<svg xmlns="http://www.w3.org/2000/svg" viewBox="0 0 24 24"><path fill="#636F7E" opacity=".16" d="M21 12a9 9 0 1 1-18 0 9 9 0 1 1 18 0Z"/><path fill="#151E28" d="M2.25 12A9.75 9.75 0 0 1 12 2.25 9.75 9.75 0 0 1 21.75 12 9.75 9.75 0 0 1 12 21.75 9.75 9.75 0 0 1 2.25 12ZM12 3.75a8.25 8.25 0 1 0 0 16.5 8.25 8.25 0 0 0 0-16.5ZM8.47 8.47a.75.75 0 0 1 1.06 0L12 10.94l2.47-2.47a.751.751 0 0 1 1.042.018.751.751 0 0 1 .018 1.042L13.06 12l2.47 2.47a.749.749 0 0 1-.326 1.275.749.749 0 0 1-.734-.215L12 13.06l-2.47 2.47a.751.751 0 0 1-1.042-.018.751.751 0 0 1-.018-1.042L10.94 12 8.47 9.53a.75.75 0 0 1 0-1.06Zm11.06-7 3 3a.749.749 0 0 1-.326 1.275.749.749 0 0 1-.734-.215l-3-3a.749.749 0 0 1 .326-1.275.749.749 0 0 1 .734.215Zm-14 1.06-3 3a.751.751 0 0 1-1.042-.018.751.751 0 0 1-.018-1.042l3-3a.751.751 0 0 1 1.042.018.751.751 0 0 1 .018 1.042Z"/></svg>