<svg xmlns="http://www.w3.org/2000/svg" viewBox="0 0 24 24"><path fill="#636F7E" opacity=".16" d="M22 12a10 10 0 1 1-20 0 10 10 0 1 1 20 0Z"/><path fill="#151E28" d="M1.25 12C1.25 6.063 6.063 1.25 12 1.25S22.75 6.063 22.75 12 17.937 22.75 12 22.75 1.25 17.937 1.25 12ZM12 2.75A9.25 9.25 0 0 0 2.75 12 9.25 9.25 0 0 0 12 21.25 9.25 9.25 0 0 0 21.25 12 9.25 9.25 0 0 0 12 2.75Zm-.83 4.5h1.855c.445 0 .816 0 1.12.021.317.021.617.068.907.188a2.75 2.75 0 0 1 1.489 1.489.75.75 0 1 1-1.386.574 1.248 1.248 0 0 0-.677-.677c-.077-.032-.194-.061-.435-.078-.247-.017-.567-.017-1.043-.017h-1.8c-.573 0-.957.001-1.253.025-.287.023-.424.065-.515.111-.235.12-.426.311-.546.546-.046.091-.088.228-.111.515-.025.296-.025.681-.025 1.253V13c-.005.348.001.696.017 1.043.017.241.046.358.078.435.127.307.37.55.677.677a.75.75 0 1 1-.574 1.386 2.749 2.749 0 0 1-1.488-1.489 2.814 2.814 0 0 1-.19-.907c-.02-.304-.02-.675-.02-1.12V11.17c0-.535 0-.98.03-1.345.03-.38.098-.736.27-1.073A2.749 2.749 0 0 1 8.752 7.55c.337-.172.693-.24 1.073-.27.365-.03.81-.03 1.345-.03ZM15.15 12a.75.75 0 0 1-.75.75h-.59l2.72 2.72a.749.749 0 0 1-.326 1.275.749.749 0 0 1-.734-.215l-2.72-2.72v.59a.75.75 0 0 1-1.5 0V12a.75.75 0 0 1 .75-.75h2.4a.75.75 0 0 1 .75.75Z"/></svg>