<svg xmlns="http://www.w3.org/2000/svg" viewBox="0 0 24 24"><path fill="#636F7E" opacity=".16" d="M22 12a10 10 0 1 1-20 0 10 10 0 1 1 20 0Z"/><path fill="#151E28" d="M12 1.25c5.937 0 10.75 4.813 10.75 10.75S17.937 22.75 12 22.75 1.25 17.937 1.25 12 6.063 1.25 12 1.25ZM2.75 12A9.25 9.25 0 0 0 12 21.25 9.25 9.25 0 0 0 21.25 12 9.25 9.25 0 0 0 12 2.75 9.25 9.25 0 0 0 2.75 12ZM16 16.75a.75.75 0 0 1-.75-.75v-.013a5.147 5.147 0 0 1-8.294-2.983.75.75 0 1 1 1.471-.294 3.644 3.644 0 0 0 5.963 2.04H14a.75.75 0 0 1 0-1.5h2a.75.75 0 0 1 .75.75v2a.75.75 0 0 1-.75.75ZM7.25 8a.75.75 0 0 1 1.5 0v.013a5.146 5.146 0 0 1 8.293 2.983.75.75 0 0 1-1.47.293A3.645 3.645 0 0 0 9.61 9.25H10a.75.75 0 0 1 0 1.501H8a.75.75 0 0 1-.75-.75Z"/></svg>