<svg xmlns="http://www.w3.org/2000/svg" viewBox="0 0 24 24"><path fill="#636F7E" opacity=".16" d="M22 12a10 10 0 1 1-20 0 10 10 0 1 1 20 0Z"/><path fill="#151E28" d="M1.25 12C1.25 6.063 6.063 1.25 12 1.25S22.75 6.063 22.75 12 17.937 22.75 12 22.75 1.25 17.937 1.25 12ZM12 2.75A9.25 9.25 0 0 0 2.75 12 9.25 9.25 0 0 0 12 21.25 9.25 9.25 0 0 0 21.25 12 9.25 9.25 0 0 0 12 2.75ZM12.75 16a.75.75 0 0 1-.75.75h-.83c-.535 0-.98 0-1.345-.03-.38-.03-.736-.098-1.073-.27a2.749 2.749 0 0 1-1.202-1.202c-.172-.337-.24-.693-.27-1.073-.03-.365-.03-.81-.03-1.345v-1.66c0-.535 0-.98.03-1.345.03-.38.098-.736.27-1.073A2.749 2.749 0 0 1 8.752 7.55c.337-.172.693-.24 1.073-.27.365-.03.81-.03 1.345-.03H12a.75.75 0 0 1 0 1.5h-.8c-.573 0-.957.001-1.253.025-.287.023-.424.065-.514.111-.236.12-.427.311-.547.547-.046.09-.088.227-.111.514-.025.296-.025.681-.025 1.253v1.6c0 .573.001.957.025 1.253.023.287.065.424.111.515.12.235.312.426.547.546.09.046.227.088.514.111.296.025.681.025 1.253.025h.8a.75.75 0 0 1 .75.75Zm3.78-3.47-2 2a.749.749 0 0 1-1.275-.326.749.749 0 0 1 .215-.734l.72-.72H11a.75.75 0 0 1 0-1.5h3.19l-.72-.72a.751.751 0 0 1 .018-1.042.751.751 0 0 1 1.042-.018l2 2a.75.75 0 0 1 0 1.06Z"/></svg>