<svg xmlns="http://www.w3.org/2000/svg" viewBox="0 0 24 24"><path fill="#636F7E" opacity=".16" d="M12.2 17h-.4c-1.68 0-2.52 0-3.162-.327a3 3 0 0 1-1.311-1.311C7 14.72 7 13.88 7 12.2v-.4c0-1.68 0-2.52.327-3.162a3 3 0 0 1 1.311-1.311C9.28 7 10.12 7 11.8 7h.4c1.68 0 2.52 0 3.162.327a3 3 0 0 1 1.311 1.311C17 9.28 17 10.12 17 11.8v.4c0 1.68 0 2.52-.327 3.162a3 3 0 0 1-1.311 1.311C14.72 17 13.88 17 12.2 17Z"/><path fill="#151E28" d="M16.25 9.889a2.14 2.14 0 0 0-2.139-2.139.75.75 0 0 1 0-1.5 3.64 3.64 0 0 1 3.639 3.639v2.343c0 .813 0 1.469-.043 2-.045.546-.14 1.026-.366 1.47a3.749 3.749 0 0 1-1.639 1.64c-.444.226-.924.32-1.47.365-.531.043-1.187.043-2 .043H9.89a3.639 3.639 0 0 1-3.639-3.639.75.75 0 0 1 1.5 0 2.14 2.14 0 0 0 2.139 2.14h2.31c.853 0 1.447-.002 1.91-.04.453-.036.714-.105.912-.206.423-.216.767-.56.983-.983.1-.198.17-.459.207-.913.037-.462.038-1.056.038-1.909ZM10 6.25a.75.75 0 0 1 0 1.5H8.81l3.72 3.72a.751.751 0 0 1-.018 1.042.751.751 0 0 1-1.042.018L7.75 8.81V10a.75.75 0 0 1-1.5 0V7A.75.75 0 0 1 7 6.25Z"/></svg>