<svg xmlns="http://www.w3.org/2000/svg" viewBox="0 0 24 24"><path fill="#636F7E" opacity=".16" d="M22 12a10 10 0 1 1-20 0 10 10 0 1 1 20 0Z"/><path fill="#151E28" d="M12 1.25c5.937 0 10.75 4.813 10.75 10.75S17.937 22.75 12 22.75 1.25 17.937 1.25 12 6.063 1.25 12 1.25ZM2.75 12A9.25 9.25 0 0 0 12 21.25 9.25 9.25 0 0 0 21.25 12 9.25 9.25 0 0 0 12 2.75 9.25 9.25 0 0 0 2.75 12Zm7.053-3.864L11.47 6.47a.75.75 0 0 1 1.06 0l1.667 1.666a.75.75 0 1 1-1.06 1.061l-.387-.386v1.522a.75.75 0 0 1-1.5 0V8.811l-.386.386a.75.75 0 0 1-1.061-1.06ZM8.136 9.803a.75.75 0 1 1 1.061 1.06l-.386.387h1.522a.75.75 0 0 1 0 1.5H8.811l.386.386a.75.75 0 0 1-1.06 1.061L6.47 12.53a.75.75 0 0 1 0-1.06Zm7.053 1.447-.386-.386a.75.75 0 0 1 1.06-1.061l1.667 1.667a.75.75 0 0 1 0 1.06l-1.666 1.667a.75.75 0 0 1-1.061-1.06l.386-.387h-1.522a.75.75 0 0 1 0-1.5Zm-2.439 2.417v1.522l.386-.386a.75.75 0 0 1 1.061 1.06L12.53 17.53a.75.75 0 0 1-1.06 0l-1.667-1.666a.75.75 0 0 1 1.06-1.061l.387.386v-1.522a.75.75 0 0 1 1.5 0Z"/></svg>