<svg xmlns="http://www.w3.org/2000/svg" viewBox="0 0 24 24"><path fill="#636F7E" opacity=".16" d="M22 12a10 10 0 1 1-20 0 10 10 0 1 1 20 0Z"/><path fill="#151E28" d="M12 1.25c5.937 0 10.75 4.813 10.75 10.75S17.937 22.75 12 22.75 1.25 17.937 1.25 12 6.063 1.25 12 1.25ZM2.75 12A9.25 9.25 0 0 0 12 21.25 9.25 9.25 0 0 0 21.25 12 9.25 9.25 0 0 0 12 2.75 9.25 9.25 0 0 0 2.75 12ZM15 14.25a.75.75 0 0 1 0 1.5h-.232c-.813 0-1.469 0-2-.043-.546-.045-1.026-.14-1.47-.366a3.752 3.752 0 0 1-1.64-1.638c-.226-.445-.32-.925-.365-1.471-.043-.531-.043-1.187-.043-2V9.81l-.72.72a.749.749 0 0 1-1.275-.326.749.749 0 0 1 .215-.734l2-2a.75.75 0 0 1 1.06 0l2 2a.749.749 0 0 1-.326 1.275.749.749 0 0 1-.734-.215l-.72-.72v.39c0 .853 0 1.447.038 1.91.037.453.107.714.207.912.216.423.56.767.984.983.197.1.458.17.912.207.462.037 1.056.038 1.909.038Z"/></svg>