<svg xmlns="http://www.w3.org/2000/svg" viewBox="0 0 24 24"><path fill="#636F7E" opacity=".16" d="M10 9v5a1 1 0 0 0 1 1h2a1 1 0 0 0 1-1V9h6v8.8c0 1.12 0 1.68-.218 2.108a2.006 2.006 0 0 1-.874.874C18.48 21 17.92 21 16.8 21H7.2c-1.12 0-1.68 0-2.108-.218a2.006 2.006 0 0 1-.874-.874C4 19.48 4 18.92 4 17.8V9Z"/><path fill="#151E28" d="M8.18 2.25h7.651c.699 0 1.249 0 1.734.19.429.169.808.442 1.103.796.337.403.51.927.733 1.595l.04.12 1.265 3.796a.738.738 0 0 1 .044.271v8.812c0 .535 0 .98-.03 1.345-.03.38-.098.736-.27 1.074a2.752 2.752 0 0 1-1.202 1.201c-.337.172-.694.24-1.073.27-.365.03-.81.03-1.345.03H7.17c-.535 0-.98 0-1.345-.03-.38-.03-.736-.098-1.074-.27a2.747 2.747 0 0 1-1.201-1.2c-.172-.338-.24-.694-.27-1.074-.03-.364-.03-.81-.03-1.344V9.017a.754.754 0 0 1 .044-.27L4.56 4.95l.04-.12c.222-.669.396-1.193.733-1.595a2.747 2.747 0 0 1 1.103-.795c.488-.192 1.04-.192 1.745-.191Zm1.07 7.5h-4.5v8.05c0 .572 0 .957.025 1.253.023.287.065.424.111.515.12.235.311.426.546.546.091.046.228.088.515.111.296.024.68.025 1.253.025h9.6c.572 0 .957 0 1.252-.025.288-.023.425-.065.515-.111.235-.12.427-.311.547-.546.046-.091.088-.228.111-.515.024-.296.025-.68.025-1.253V9.75h-4.5V14A1.75 1.75 0 0 1 13 15.75h-2A1.75 1.75 0 0 1 9.25 14Zm3.115-6h-.73l-.813 4.884a5.199 5.199 0 0 0-.072.863V14c0 .138.112.25.25.25h2a.25.25 0 0 0 .25-.25V9.497c0-.29-.024-.578-.071-.863Zm-4.059 0c-.893 0-1.133.013-1.322.087a1.253 1.253 0 0 0-.501.361c-.13.156-.218.38-.5 1.227L5.04 8.25h4.324l.75-4.5H8.306Zm6.33 4.5h4.323l-.942-2.825c-.282-.847-.37-1.071-.5-1.227a1.235 1.235 0 0 0-.501-.361c-.188-.074-.429-.087-1.322-.087h-1.808Z"/></svg>