<svg xmlns="http://www.w3.org/2000/svg" viewBox="0 0 24 24"><path fill="#636F7E" opacity=".16" d="M21 12a9 9 0 1 1-18 0 9 9 0 1 1 18 0Z"/><path fill="#151E28" d="M12 2.25A9.75 9.75 0 0 1 21.75 12 9.75 9.75 0 0 1 12 21.75 9.75 9.75 0 0 1 2.25 12 9.75 9.75 0 0 1 12 2.25ZM3.75 12a8.25 8.25 0 1 0 16.5 0 8.25 8.25 0 0 0-16.5 0ZM10 7.25a.75.75 0 0 1 0 1.5c-.69 0-1.25.56-1.25 1.25v4c0 .69.56 1.25 1.25 1.25a.75.75 0 0 1 0 1.5A2.75 2.75 0 0 1 7.25 14v-4A2.75 2.75 0 0 1 10 7.25Zm4 0A2.75 2.75 0 0 1 16.75 10v4A2.75 2.75 0 0 1 14 16.75a.75.75 0 0 1 0-1.5c.69 0 1.25-.56 1.25-1.25v-4c0-.69-.56-1.25-1.25-1.25a.75.75 0 0 1 0-1.5Z"/></svg>