<svg xmlns="http://www.w3.org/2000/svg" viewBox="0 0 24 24"><path fill="#636F7E" opacity=".16" d="m14 15.647-9.128 4.832c-.87.461-1.812-.481-1.351-1.351l4.832-9.129C9.668 7.515 13.013 7.012 15 9c1.988 1.988 1.485 5.332-1 6.647Z"/><path fill="#151E28" d="M15.53 8.47h.001c2.344 2.344 1.75 6.288-1.18 7.84l-9.128 4.832c-1.523.806-3.171-.842-2.365-2.365L7.69 9.648c1.552-2.93 5.496-3.523 7.84-1.178Zm-6.514 1.88L6.73 14.669l.8.801a.749.749 0 0 1-.326 1.275.749.749 0 0 1-.734-.215l-.475-.474-1.811 3.423a.25.25 0 0 0 .337.337l8.654-4.581-1.705-1.705a.751.751 0 0 1 .018-1.042.751.751 0 0 1 1.042-.018l1.926 1.925c1.31-1.288 1.4-3.479.014-4.865-1.631-1.63-4.374-1.218-5.454.82ZM19.25 4.521l-.056 1.924 2.029.61a.75.75 0 0 1 .24 1.314l-2.007 1.536a.75.75 0 0 1-.912-1.19l.843-.645-1.175-.352a.75.75 0 0 1-.534-.74l.044-1.5-1.452.378a.75.75 0 0 1-.841-.354l-.607-1.065-.397.873a.75.75 0 0 1-1.366-.62l1.006-2.21a.75.75 0 0 1 1.334-.06l1.049 1.84 1.862-.486a.75.75 0 0 1 .94.747Z"/></svg>