<svg xmlns="http://www.w3.org/2000/svg" viewBox="0 0 24 24"><path fill="#636F7E" opacity=".16" d="M3 20v-9.6c0-2.24 0-3.36.436-4.216a4 4 0 0 1 1.352-1.517L18 17.84c-.77.16-1.798.16-3.4.16H7.938c-.72 0-1.08 0-1.429.062a4 4 0 0 0-.898.272c-.324.141-.624.341-1.223.74L3 20Z"/><path fill="#151E28" d="m2.53 1.47 20 20a.749.749 0 0 1-.326 1.275.749.749 0 0 1-.734-.215l-3.826-3.825a4.954 4.954 0 0 1-.644.045H7.211a3.25 3.25 0 0 0-1.803.546l-1.992 1.328A.75.75 0 0 1 2.25 20V8a4.734 4.734 0 0 1 1.36-3.328L1.47 2.53a.751.751 0 0 1 .018-1.042.751.751 0 0 1 1.042-.018Zm13.66 15.78L4.671 5.732A3.236 3.236 0 0 0 3.75 8v10.599l.826-.551a4.751 4.751 0 0 1 2.635-.798ZM8 3.25h9A4.75 4.75 0 0 1 21.75 8v6a4.727 4.727 0 0 1-.636 2.375.748.748 0 0 1-1.31.009.75.75 0 0 1 .012-.76A3.238 3.238 0 0 0 20.25 14V8A3.25 3.25 0 0 0 17 4.75H8a.75.75 0 0 1 0-1.5Z"/></svg>