<svg xmlns="http://www.w3.org/2000/svg" viewBox="0 0 24 24"><path fill="#636F7E" opacity=".16" d="M7 9a5 5 0 0 1 10 0 5 5 0 0 1 0 10h-3.21c-.515-1.406-1.79-3-1.79-3s-1.275 1.594-1.79 3H7A5 5 0 0 1 7 9Z"/><path fill="#151E28" d="M8.318 6.876a.75.75 0 0 1-1.298-.752 5.75 5.75 0 0 1 10.687 2.169 5.752 5.752 0 0 1 .443 11.342.75.75 0 1 1-.3-1.47A4.25 4.25 0 0 0 17 9.75a.75.75 0 0 1-.75-.75 4.25 4.25 0 0 0-7.932-2.124ZM12 16l.586-.468.002.003.006.006.019.025a17.039 17.039 0 0 1 1.026 1.478c.261.425.532.914.74 1.407.202.48.371 1.027.371 1.549 0 .93-.319 1.659-.895 2.139-.552.46-1.244.611-1.855.611s-1.303-.151-1.855-.611c-.576-.48-.895-1.209-.895-2.139 0-.522.169-1.068.371-1.549.208-.493.479-.982.74-1.407.316-.51.658-1.004 1.026-1.478l.02-.025.005-.006.001-.002.001-.001Zm-9.25-2c0 2.02 1.421 3.76 3.4 4.165a.75.75 0 1 1-.3 1.47A5.75 5.75 0 1 1 9.3 8.729a.75.75 0 0 1-.6 1.374A4.249 4.249 0 0 0 2.75 14Zm8.889 3.83v.001a9.026 9.026 0 0 0-.635 1.202c-.173.41-.254.739-.254.967 0 .57.181.841.355.986.198.165.506.264.895.264s.697-.099.895-.264c.174-.145.355-.416.355-.986 0-.227-.081-.557-.254-.967a9.026 9.026 0 0 0-.635-1.202c-.123-.2-.246-.388-.361-.558-.115.17-.238.357-.361.557ZM12 16l-.586-.469a.75.75 0 0 1 1.172 0Z"/></svg>