<svg xmlns="http://www.w3.org/2000/svg" viewBox="0 0 24 24"><path fill="#636F7E" opacity=".16" d="M7 9a5 5 0 0 1 10 0 5 5 0 0 1 0 10H8l2-2-2-1 1-4-5 5 2 1-.213.852A5 5 0 0 1 7 9Z"/><path fill="#151E28" d="M12 4.75a4.248 4.248 0 0 0-3.682 2.126.75.75 0 0 1-1.298-.752 5.75 5.75 0 0 1 10.687 2.169 5.75 5.75 0 0 1 .442 11.342.75.75 0 0 1-.298-1.47A4.252 4.252 0 0 0 17 9.75a.75.75 0 0 1-.75-.75A4.25 4.25 0 0 0 12 4.75Zm-2.272 7.432-.854 3.416 1.461.732a.75.75 0 0 1 .195 1.2l-5 5a.75.75 0 0 1-1.258-.712l.854-3.416-1.461-.732a.75.75 0 0 1-.195-1.2l5-5a.75.75 0 0 1 1.258.712ZM7 9.75A4.25 4.25 0 0 0 2.75 14a.75.75 0 0 1-1.5 0A5.751 5.751 0 0 1 9.3 8.729a.75.75 0 0 1-.6 1.374A4.231 4.231 0 0 0 7 9.75Zm-.665 7.579a.75.75 0 0 1 .393.853l-.344 1.373 2.35-2.349-1.069-.535a.75.75 0 0 1-.393-.853l.344-1.373-2.35 2.349ZM15 14.25a.75.75 0 0 1 .75.75v2a.75.75 0 0 1-1.5 0v-2a.75.75 0 0 1 .75-.75Zm-3 5a.75.75 0 0 1 .75.75v2a.75.75 0 0 1-1.5 0v-2a.75.75 0 0 1 .75-.75Z"/></svg>