<svg xmlns="http://www.w3.org/2000/svg" viewBox="0 0 24 24"><path fill="#636F7E" opacity=".16" d="M14.122 14.121c-3.124 3.125-7.556 3.758-9.9 1.415-2.343-2.344-1.709-6.776 1.414-9.9 3.125-3.125 7.557-3.757 9.9-1.415 2.343 2.344 1.71 6.776-1.414 9.9Zm-2.121-2.12c1.952-1.953 2.585-4.486 1.414-5.657-1.172-1.172-3.705-.539-5.657 1.414-1.953 1.952-2.586 4.485-1.414 5.657C7.515 14.586 10.048 13.953 12 12Z"/><path fill="#151E28" d="M3.693 16.067v-.001c-1.377-1.376-1.837-3.326-1.556-5.293.28-1.967 1.304-4.002 2.97-5.667 1.665-1.666 3.7-2.689 5.666-2.97 1.968-.28 3.918.18 5.294 1.555l.001.002 2.827 2.827A8.75 8.75 0 0 1 6.52 18.894l-2.828-2.827Zm1.06-1.062v.001c.967.966 2.405 1.36 4.02 1.13 1.616-.231 3.36-1.087 4.819-2.545 1.458-1.458 2.314-3.202 2.545-4.818.23-1.615-.164-3.052-1.13-4.019l-.002-.002c-.966-.967-2.404-1.361-4.02-1.131-1.616.231-3.36 1.087-4.818 2.545-1.458 1.459-2.315 3.203-2.545 4.819-.231 1.615.164 3.053 1.131 4.02Zm.398-4.308c.295-1.176 1.02-2.414 2.076-3.47s2.294-1.782 3.47-2.076c1.16-.29 2.403-.183 3.248.662.845.845.951 2.088.662 3.248-.294 1.176-1.02 2.414-2.076 3.47-1.056 1.055-2.294 1.781-3.47 2.075-1.16.29-2.403.184-3.248-.661-.845-.845-.952-2.088-.662-3.248Zm12.471-1.712c-.281 1.967-1.304 4-2.97 5.667-1.665 1.665-3.7 2.688-5.667 2.969a7.531 7.531 0 0 1-1.552.064l.148.149a7.229 7.229 0 0 0 5.313 2.12l-.924-.924a.749.749 0 0 1 .326-1.275.749.749 0 0 1 .734.215l1.5 1.5a.75.75 0 0 1 .15.215 7.208 7.208 0 0 0 2.596-1.348L15.97 17.03a.749.749 0 0 1 .326-1.275.749.749 0 0 1 .734.215l1.307 1.306a7.204 7.204 0 0 0 1.348-2.595.75.75 0 0 1-.215-.15l-1.5-1.5a.75.75 0 1 1 1.06-1.061l.925.924a7.231 7.231 0 0 0-2.12-5.314l-.149-.147a7.58 7.58 0 0 1-.064 1.552ZM6.607 11.061c-.222.888-.06 1.497.267 1.823.326.326.935.49 1.823.267.87-.217 1.876-.784 2.773-1.681.897-.897 1.464-1.902 1.681-2.773.222-.888.06-1.497-.267-1.823-.326-.327-.935-.49-1.823-.267-.871.217-1.876.784-2.773 1.681-.897.897-1.464 1.902-1.681 2.773Zm11.079-3.629h-.001Z"/></svg>