<svg xmlns="http://www.w3.org/2000/svg" viewBox="0 0 24 24"><path fill="#636F7E" opacity=".16" d="M21 12a9 9 0 1 1-18 0 9 9 0 1 1 18 0Z"/><path fill="#151E28" d="M12 2.25A9.75 9.75 0 0 1 21.75 12 9.75 9.75 0 0 1 12 21.75 9.75 9.75 0 0 1 2.25 12 9.75 9.75 0 0 1 12 2.25ZM3.75 12a8.25 8.25 0 1 0 16.5 0 8.25 8.25 0 0 0-16.5 0Zm8.181-3.25c-1.12 0-2.114.595-2.681 1.5H12a.75.75 0 0 1 0 1.5H8.76a3.477 3.477 0 0 0 0 .5H11a.75.75 0 0 1 0 1.5H9.25c.567.905 1.56 1.5 2.681 1.5 1 0 1.894-.47 2.48-1.214a.75.75 0 1 1 1.178.928 4.647 4.647 0 0 1-3.658 1.786c-1.984 0-3.668-1.248-4.353-3H7a.75.75 0 0 1 0-1.5h.256a4.633 4.633 0 0 1 0-.5H7a.75.75 0 0 1 0-1.5h.578c.685-1.753 2.37-3 4.353-3 1.484 0 2.803.701 3.658 1.786a.75.75 0 1 1-1.178.928 3.149 3.149 0 0 0-2.48-1.214Z"/></svg>