<svg xmlns="http://www.w3.org/2000/svg" viewBox="0 0 24 24"><path fill="#636F7E" opacity=".16" d="M2 12s.998-7 10-7c9 0 10 7 10 7s-1 7-10 7-10-7-10-7Zm10 3a3 3 0 1 0 0-6 3 3 0 0 0 0 6Z"/><path fill="#151E28" d="M22.742 12.107v.001l-.001.003v.008l-.004.022-.013.075a8.195 8.195 0 0 1-.315 1.13 9.34 9.34 0 0 1-1.444 2.617C19.446 17.897 16.727 19.75 12 19.75c-4.727 0-7.445-1.853-8.965-3.787a9.343 9.343 0 0 1-1.445-2.617 8.191 8.191 0 0 1-.314-1.13l-.013-.075-.004-.022-.001-.008v-.004L2 12l-.742-.107v-.001l.001-.003v-.007l.004-.023.013-.075c.077-.384.182-.761.314-1.13a9.343 9.343 0 0 1 1.445-2.617C4.554 6.103 7.272 4.25 11.999 4.25c4.728 0 7.446 1.853 8.966 3.787a9.343 9.343 0 0 1 1.445 2.617c.103.286.19.578.26.874.027.109.049.22.067.331l.004.023.001.007v.004L22 12ZM2.79 12.13l.001-.001c.057.241.128.479.212.712a7.86 7.86 0 0 0 1.212 2.196C5.446 16.603 7.728 18.25 12 18.25s6.553-1.647 7.787-3.213a7.853 7.853 0 0 0 1.21-2.196c.099-.275.179-.556.241-.841a6.831 6.831 0 0 0-.24-.841 7.86 7.86 0 0 0-1.212-2.196C18.555 7.397 16.274 5.75 12 5.75c-4.274 0-6.555 1.647-7.786 3.213a7.825 7.825 0 0 0-1.211 2.195 6.549 6.549 0 0 0-.212.712l-.029.13.028.13ZM12 8.25a3.75 3.75 0 1 1 0 7.5 3.75 3.75 0 0 1 0-7.5ZM9.75 12a2.25 2.25 0 1 0 4.5 0 2.25 2.25 0 0 0-4.5 0Zm-8.492-.106L2 12l-.742.106a.753.753 0 0 1 0-.212Zm21.484.212L22 12l.742-.106c.01.07.01.142 0 .212Z"/></svg>