<svg xmlns="http://www.w3.org/2000/svg" viewBox="0 0 24 24"><path fill="#636F7E" opacity=".16" d="M21 12a9 9 0 1 1-18 0 9 9 0 1 1 18 0Z"/><path fill="#151E28" d="M12 2.25A9.75 9.75 0 0 1 21.75 12 9.75 9.75 0 0 1 12 21.75 9.75 9.75 0 0 1 2.25 12 9.75 9.75 0 0 1 12 2.25ZM3.75 12a8.25 8.25 0 1 0 16.5 0 8.25 8.25 0 0 0-16.5 0Zm4.974 4.197a.75.75 0 0 1-1.452-.379L8 16c-.727-.182-.727-.182-.727-.184l.001-.003.001-.006.004-.014c.049-.16.114-.315.194-.463.186-.336.428-.637.717-.89.721-.642 1.908-1.19 3.81-1.19 1.902 0 3.089.548 3.811 1.19.289.253.531.555.716.891a2.645 2.645 0 0 1 .194.462l.004.014.002.006v.004c0 .001-.003.002-.727.183l.728-.182a.75.75 0 1 1-1.452.379l-.007-.02a.947.947 0 0 0-.061-.132 1.825 1.825 0 0 0-.394-.485c-.403-.358-1.216-.81-2.814-.81s-2.411.452-2.814.811a1.78 1.78 0 0 0-.393.484c-.027.049-.05.1-.069.152ZM10 9a1 1 0 1 1-2 0 1 1 0 0 1 2 0Zm5 1a1 1 0 1 1 0-2 1 1 0 0 1 0 2Zm-6.275 6.193.001-.003.001-.004Z"/></svg>