<svg xmlns="http://www.w3.org/2000/svg" viewBox="0 0 24 24"><path fill="#636F7E" opacity=".16" d="M12 22C6.477 22 2 17.523 2 12S6.477 2 12 2s10 4.477 10 10-4.477 10-10 10Zm0-8a2 2 0 1 0 .001-3.999A2 2 0 0 0 12 14Z"/><path fill="#151E28" d="M17.48 21.25H22a.75.75 0 0 1 0 1.5H12C6.063 22.75 1.25 17.937 1.25 12S6.063 1.25 12 1.25 22.75 6.063 22.75 12a10.744 10.744 0 0 1-5.27 9.25ZM12 2.75A9.25 9.25 0 0 0 2.75 12 9.25 9.25 0 0 0 12 21.25 9.25 9.25 0 0 0 21.25 12 9.25 9.25 0 0 0 12 2.75ZM9.25 12a2.75 2.75 0 1 1 5.5 0 2.75 2.75 0 0 1-5.5 0ZM12 10.75a1.25 1.25 0 1 0 0 2.5 1.25 1.25 0 0 0 0-2.5ZM6 13a1 1 0 1 1 0-2 1 1 0 0 1 0 2Zm7-7a1 1 0 1 1-2 0 1 1 0 0 1 2 0Zm-1 13a1 1 0 1 1 0-2 1 1 0 0 1 0 2Zm7-7a1 1 0 1 1-2 0 1 1 0 0 1 2 0Z"/></svg>