<svg xmlns="http://www.w3.org/2000/svg" viewBox="0 0 24 24"><path fill="#636F7E" opacity=".16" d="M4 7V3h6v4a3 3 0 1 1-6 0Zm11-4c5 4 5 11 5 11h-5Z"/><path fill="#151E28" d="M14.675 2.324a.75.75 0 0 1 .793.09c2.668 2.135 3.981 5.05 4.63 7.385.325 1.172.488 2.214.57 2.964.043.401.071.804.082 1.208V14a.75.75 0 0 1-.75.75h-4.25V21a.75.75 0 0 1-1.5 0V3a.75.75 0 0 1 .425-.676ZM4.75 3v4a2.25 2.25 0 1 0 4.5 0V3a.75.75 0 0 1 1.5 0v4a3.75 3.75 0 0 1-3 3.675V21a.75.75 0 0 1-1.5 0V10.675A3.751 3.751 0 0 1 3.25 7V3a.75.75 0 0 1 1.5 0Zm11 10.25h3.458a17.265 17.265 0 0 0-.556-3.05c-.486-1.75-1.355-3.774-2.902-5.47ZM7.75 3v4a.75.75 0 0 1-1.5 0V3a.75.75 0 0 1 1.5 0Z"/></svg>