<svg xmlns="http://www.w3.org/2000/svg" viewBox="0 0 24 24"><path fill="#636F7E" opacity=".16" d="M18 9A6 6 0 1 1 6 9a6 6 0 1 1 12 0Z"/><path fill="#151E28" d="M5.25 9a6.75 6.75 0 1 1 13.5 0 6.75 6.75 0 0 1-13.5 0ZM12 3.75a5.25 5.25 0 1 0 .001 10.501A5.25 5.25 0 0 0 12 3.75Zm-5.5-.9a8.249 8.249 0 0 0 5.497 14.399h.005a8.225 8.225 0 0 0 6.148-2.75.75.75 0 0 1 1.117 1 9.73 9.73 0 0 1-6.517 3.221v1.53H15a.75.75 0 0 1 0 1.5H9a.75.75 0 0 1 0-1.5h2.25v-1.529c-5.034-.383-9-4.589-9-9.721A9.728 9.728 0 0 1 5.5 1.733a.751.751 0 1 1 1 1.117Z"/></svg>