<svg xmlns="http://www.w3.org/2000/svg" viewBox="0 0 24 24"><path fill="#636F7E" opacity=".16" d="M9.493 10.874a2.5 2.5 0 1 1 .045-.046 2.5 2.5 0 1 1 3.514 3.558 2.501 2.501 0 0 1 3.505.03 2.501 2.501 0 1 1-4.187 2.401 2.501 2.501 0 0 1 .645-2.395c-.871.848-1.61.763-2.468.664-.518-.06-1.079-.125-1.738.007.132-.66.067-1.219.007-1.737v-.001c-.1-.863-.185-1.605.677-2.481ZM4.566 15.8a2.5 2.5 0 0 1 0-3.536c.886-.886 1.635-.8 2.504-.7h.002c.517.06 1.077.125 1.737-.007-.132.659-.067 1.22-.007 1.737v.001c.1.869.186 1.615-.695 2.499.884-.88 1.631-.794 2.498-.694h.002c.518.06 1.078.124 1.738-.007-.132.659-.067 1.22-.007 1.737v.001c.1.87.186 1.617-.7 2.504a2.5 2.5 0 0 1-3.54-3.531 2.5 2.5 0 0 1-3.532-.004Zm-1.414 4.95a2.5 2.5 0 0 1 0-3.536c.886-.886 1.633-.8 2.502-.7h.004c.518.06 1.077.125 1.737-.007-.132.659-.067 1.22-.007 1.737v.003c.1.87.186 1.617-.7 2.503a2.5 2.5 0 0 1-3.536 0Zm9.863-6.328.037-.036-.037.036Z"/><path fill="#151E28" d="M13.582 10.32c.71.71 1.024 1.668.938 2.597a3.248 3.248 0 0 1 2.296 5.8 3.25 3.25 0 0 1-3.896.074c-.157.37-.403.725-.752 1.075a3.25 3.25 0 0 1-4.197.34c-.158.37-.403.724-.753 1.074a3.25 3.25 0 0 1-4.596-4.596c.35-.35.704-.595 1.074-.753a3.25 3.25 0 0 1 .34-4.197c.35-.35.704-.595 1.075-.753a3.25 3.25 0 1 1 5.874-1.6 3.243 3.243 0 0 1 2.597.939Zm8.666.428a.75.75 0 0 1-.205.677l-.324.324c-1.601 1.602-3.864 1.218-5.456.08a.75.75 0 1 1 .872-1.22c1.263.902 2.643.96 3.523.08l.023-.023a1.846 1.846 0 0 0-.328-.627c-.175-.208-.42-.367-.801-.443a.75.75 0 1 1 .294-1.47c.689.137 1.244.46 1.655.947.4.475.625 1.062.747 1.675Zm-7.073-8.703c.561.278 1.069.646 1.424 1.156.365.523.533 1.143.488 1.844a.751.751 0 0 1-1.497-.096c.025-.389-.066-.666-.222-.89a1.822 1.822 0 0 0-.52-.478l-.027.016c-1.079.622-1.38 1.97-.835 3.424a.75.75 0 1 1-1.405.527c-.686-1.834-.472-4.118 1.49-5.25l.397-.23a.75.75 0 0 1 .707-.023Zm1.427 6.777h.001l-.93.817a.75.75 0 0 1-.99-1.126l.93-.817a6.642 6.642 0 0 1 4.672-1.648.75.75 0 1 1-.065 1.499 5.144 5.144 0 0 0-3.618 1.275ZM3.683 17.744a1.75 1.75 0 0 0 2.475 2.475c.283-.284.411-.516.473-.71.065-.2.079-.414.059-.698a7.255 7.255 0 0 0-.04-.399 9.11 9.11 0 0 1-.08-1.08c-.408-.001-.778-.045-1.08-.08-.151-.018-.285-.034-.399-.042-.284-.018-.498-.004-.698.06-.194.063-.426.19-.71.474Zm1.414-4.95a1.75 1.75 0 0 0 2.475 2.475c.283-.284.411-.516.473-.71.065-.2.079-.414.06-.698a8.517 8.517 0 0 0-.041-.399 9.093 9.093 0 0 1-.08-1.08 9.078 9.078 0 0 1-1.08-.08c-.151-.017-.285-.033-.399-.041-.284-.019-.498-.005-.698.06-.194.063-.426.189-.71.473Zm4.928-1.392c-.269.274-.392.499-.452.689-.065.199-.079.414-.059.697.01.134.024.267.04.4.048.358.074.719.08 1.08.409 0 .778.044 1.08.08.151.017.285.033.399.041.284.018.498.004.698-.06.194-.063.426-.19.71-.474a1.75 1.75 0 0 0-2.456-2.493Zm-.682 4.454c-.195.063-.427.19-.71.474a1.75 1.75 0 0 0 2.474 2.475c.284-.284.412-.516.474-.71.064-.2.079-.415.06-.699a8.79 8.79 0 0 0-.041-.398 9.292 9.292 0 0 1-.08-1.08 9.292 9.292 0 0 1-1.08-.08 7.63 7.63 0 0 0-.4-.041c-.283-.02-.497-.005-.697.06Zm4.239-.94a1.75 1.75 0 1 0 2.477 2.475 1.75 1.75 0 0 0-2.477-2.475ZM8.986 7.845a1.75 1.75 0 1 0-.02 2.495l.019-.02.02-.019a1.75 1.75 0 0 0-.019-2.456Z"/></svg>