<svg xmlns="http://www.w3.org/2000/svg" viewBox="0 0 24 24"><path fill="#636F7E" opacity=".16" d="M9.4 21c-2.24 0-3.36 0-4.216-.436a3.991 3.991 0 0 1-1.748-1.748C3 17.96 3 16.84 3 14.6V9.4c0-2.24 0-3.36.436-4.216a3.991 3.991 0 0 1 1.748-1.748C6.04 3 7.16 3 9.4 3h5.2c2.24 0 3.36 0 4.216.436a3.991 3.991 0 0 1 1.748 1.748C21 6.04 21 7.16 21 9.4v5.2c0 2.24 0 3.36-.436 4.216a3.991 3.991 0 0 1-1.748 1.748C17.96 21 16.84 21 14.6 21ZM8.7 7A1.7 1.7 0 0 0 7 8.7v.6A1.7 1.7 0 0 0 8.7 11h.6A1.7 1.7 0 0 0 11 9.3v-.6A1.7 1.7 0 0 0 9.3 7Z"/><path fill="#151E28" d="M6.834 3.802c-.62.051-1.005.147-1.31.302a3.258 3.258 0 0 0-1.42 1.42c-.155.305-.252.69-.302 1.31-.052.629-.052 1.434-.052 2.566v5.2c0 1.132.001 1.936.052 2.566.051.62.147 1.005.302 1.31a3.258 3.258 0 0 0 1.42 1.42c.305.155.69.252 1.31.302.629.052 1.434.052 2.566.052h5.2c1.132 0 1.936-.001 2.566-.052.62-.051 1.005-.147 1.31-.302a3.258 3.258 0 0 0 1.42-1.42c.155-.305.252-.69.302-1.31.052-.629.052-1.433.052-2.566V12a.75.75 0 0 1 1.5 0v2.633c0 1.092 0 1.958-.057 2.655-.058.714-.18 1.317-.461 1.869a4.752 4.752 0 0 1-2.075 2.076c-.552.28-1.155.402-1.869.46-.697.057-1.563.057-2.655.057H9.367c-1.092 0-1.958 0-2.655-.057-.714-.058-1.318-.18-1.868-.461a4.75 4.75 0 0 1-2.077-2.075c-.28-.552-.402-1.155-.46-1.869-.057-.697-.057-1.563-.057-2.655V9.367c0-1.092 0-1.958.057-2.655.058-.714.18-1.318.461-1.868a4.752 4.752 0 0 1 2.076-2.077c.551-.28 1.154-.402 1.868-.46.697-.057 1.563-.057 2.655-.057H12a.75.75 0 0 1 0 1.5H9.4c-1.132 0-1.936.001-2.566.052ZM8.7 6.25h.6a2.45 2.45 0 0 1 2.45 2.45v.6a2.45 2.45 0 0 1-2.45 2.45h-.6A2.45 2.45 0 0 1 6.25 9.3v-.6A2.45 2.45 0 0 1 8.7 6.25Zm8.95 7.053h-.001c.286.247.536.622.866 1.117l.064.096.045.068a.75.75 0 1 1-1.248.832l-.046-.067c-.423-.636-.552-.817-.66-.91a1.25 1.25 0 0 0-1.548-.067c-.117.084-.261.252-.738.848l-.4.5-.005.007a2.749 2.749 0 0 1-4.086.226l-.006-.006-.004-.004a1.25 1.25 0 0 0-1.766 0l-.004.004L6.53 17.53a.749.749 0 0 1-1.275-.326.749.749 0 0 1 .215-.734l1.583-1.583.005-.006a2.75 2.75 0 0 1 3.884 0l.005.006.005.004a1.25 1.25 0 0 0 1.857-.103l.004-.005.4-.5.072-.09c.371-.464.653-.817.959-1.038a2.75 2.75 0 0 1 3.406.148ZM14.97 6.97a.75.75 0 0 1 1.06 0l1.22 1.22V3a.75.75 0 0 1 1.5 0v5.19l1.22-1.22a.749.749 0 0 1 1.275.326.749.749 0 0 1-.215.734l-2.5 2.5a.747.747 0 0 1-1.06 0l-2.5-2.5a.75.75 0 0 1 0-1.06ZM7.75 8.7v.6c0 .525.425.95.95.95h.6a.95.95 0 0 0 .95-.95v-.6a.95.95 0 0 0-.95-.95h-.6a.95.95 0 0 0-.95.95Z"/></svg>