<svg xmlns="http://www.w3.org/2000/svg" viewBox="0 0 24 24"><path fill="#636F7E" opacity=".16" d="M20.785 15.505 21 14h-3.287c-.627 0-.94 0-1.224.086a2.001 2.001 0 0 0-.689.369c-.229.188-.403.449-.75.97l-.1.15c-.347.521-.521.782-.75.97a2.001 2.001 0 0 1-.69.369c-.283.086-.596.086-1.223.086h-.574c-.627 0-.94 0-1.224-.086a2 2 0 0 1-.689-.369c-.229-.189-.403-.449-.75-.97l-.1-.15c-.347-.521-.521-.782-.75-.97a2 2 0 0 0-.69-.369C7.228 14 6.915 14 6.288 14H3l.215 1.505c.278 1.948.418 2.923.888 3.655a4 4 0 0 0 1.704 1.478C6.598 21 7.583 21 9.55 21h4.898c1.969 0 2.952 0 3.745-.362a4 4 0 0 0 1.703-1.478c.47-.732.61-1.707.888-3.655Z"/><path fill="#151E28" d="M7.861 3.25h8.278c.757-.001 1.35-.001 1.864.215.451.189.844.495 1.137.887.334.447.477 1.022.66 1.757l.034.133 1.36 5.441.008.034c.145.58.228.912.285 1.25a8.73 8.73 0 0 1 .104 2.01c-.022.342-.07.681-.155 1.273l-.004.034-.02.132c-.168 1.182-.276 1.937-.565 2.567a4.748 4.748 0 0 1-2.965 2.57c-.662.197-1.426.197-2.62.197H8.737c-1.193 0-1.957 0-2.62-.197a4.752 4.752 0 0 1-2.964-2.57c-.289-.629-.397-1.385-.566-2.567l-.018-.132-.005-.034c-.085-.592-.133-.931-.155-1.273a8.73 8.73 0 0 1 .104-2.01c.056-.338.14-.67.285-1.25l.008-.033 1.36-5.442.034-.133c.182-.735.326-1.311.66-1.757a2.748 2.748 0 0 1 1.136-.887c.513-.215 1.103-.215 1.855-.215h.01ZM6.578 4.848h-.001a1.245 1.245 0 0 0-.516.403c-.129.172-.206.42-.439 1.355l-1.36 5.441c-.157.623-.224.896-.27 1.169l-.006.033h2.395c.535 0 .955 0 1.348.12.346.105.668.277.947.506.317.261.55.611.846 1.056l.052.078.1.15c.373.56.48.705.603.807.127.104.273.182.43.23.153.046.333.054 1.006.054h.575c.672 0 .853-.008 1.005-.054a1.26 1.26 0 0 0 .43-.23c.123-.102.23-.247.603-.807l.1-.15.052-.078c.296-.445.529-.795.846-1.056.279-.229.601-.401.947-.506.394-.119.814-.119 1.348-.119h2.395l-.006-.034c-.046-.273-.114-.546-.269-1.169l-1.36-5.441c-.234-.935-.311-1.183-.44-1.355a1.248 1.248 0 0 0-.517-.403c-.198-.084-.458-.098-1.421-.098H7.998c-.963 0-1.223.014-1.42.098Zm-2.68 9.902.008.132c.017.276.057.555.148 1.19.194 1.36.276 1.88.462 2.284a3.25 3.25 0 0 0 2.028 1.76c.427.126.954.134 2.327.134h6.258c1.373 0 1.9-.008 2.327-.134a3.25 3.25 0 0 0 2.028-1.76c.186-.404.268-.925.462-2.284.091-.635.13-.914.148-1.19l.007-.132h-2.388c-.673 0-.853.008-1.006.054a1.26 1.26 0 0 0-.43.23c-.123.101-.23.247-.603.807l-.1.15-.052.078c-.296.445-.529.794-.846 1.055-.279.23-.601.402-.947.507-.393.12-.813.12-1.348.119h-.761c-.534 0-.954 0-1.348-.119a2.739 2.739 0 0 1-.947-.507c-.317-.26-.55-.61-.846-1.055l-.152-.228c-.373-.56-.48-.706-.602-.807a1.26 1.26 0 0 0-.43-.23c-.153-.046-.334-.054-1.006-.054Z"/></svg>