<svg xmlns="http://www.w3.org/2000/svg" viewBox="0 0 24 24"><path fill="#636F7E" opacity=".16" d="M21 12a9 9 0 1 1-18 0 9 9 0 1 1 18 0Z"/><path fill="#151E28" d="M2.25 12A9.75 9.75 0 0 1 12 2.25 9.75 9.75 0 0 1 21.75 12 9.75 9.75 0 0 1 12 21.75 9.75 9.75 0 0 1 2.25 12ZM12 3.75a8.25 8.25 0 1 0 0 16.5 8.25 8.25 0 0 0 0-16.5Zm-2.5 6.5a1.75 1.75 0 1 0 .874 3.266.75.75 0 1 1 .752 1.299 3.249 3.249 0 0 1-4.441-4.438A3.25 3.25 0 0 1 12.75 12a1.75 1.75 0 1 0 .876-1.516.75.75 0 1 1-.752-1.299 3.249 3.249 0 0 1 4.441 4.438A3.25 3.25 0 0 1 11.25 12a1.75 1.75 0 0 0-1.75-1.75Z"/></svg>