<svg xmlns="http://www.w3.org/2000/svg" viewBox="0 0 24 24"><path fill="#636F7E" opacity=".16" d="M17 7H7a5 5 0 0 0 0 10h10a5 5 0 0 0 0-10Z"/><path fill="#151E28" d="M16 6.25h1a5.75 5.75 0 1 1 0 11.5h-1a.75.75 0 0 1 0-1.5h1a4.25 4.25 0 0 0 0-8.5h-1a.75.75 0 0 1 0-1.5ZM2.75 12A4.25 4.25 0 0 0 7 16.25h1a.75.75 0 0 1 0 1.5H7a5.75 5.75 0 1 1 0-11.5h1a.75.75 0 0 1 0 1.5H7A4.25 4.25 0 0 0 2.75 12Zm11.78 6.47 2 2a.749.749 0 0 1-.326 1.275.749.749 0 0 1-.734-.215l-2-2a.749.749 0 0 1 .326-1.275.749.749 0 0 1 .734.215Zm-6-16 2 2a.749.749 0 0 1-.326 1.275.749.749 0 0 1-.734-.215l-2-2a.749.749 0 0 1 .326-1.275.749.749 0 0 1 .734.215Zm2 17.06-2 2a.751.751 0 0 1-1.042-.018.751.751 0 0 1-.018-1.042l2-2a.749.749 0 0 1 1.275.326.749.749 0 0 1-.215.734Zm6-16-2 2a.751.751 0 0 1-1.042-.018.751.751 0 0 1-.018-1.042l2-2a.751.751 0 0 1 1.042.018.751.751 0 0 1 .018 1.042Z"/></svg>