<svg xmlns="http://www.w3.org/2000/svg" viewBox="0 0 24 24"><path fill="#636F7E" opacity=".16" d="M7 7v10a5 5 0 0 0 10 0V7A5 5 0 0 0 7 7Z"/><path fill="#151E28" d="M12 21.25A4.25 4.25 0 0 0 16.25 17v-1a.75.75 0 0 1 1.5 0v1a5.75 5.75 0 1 1-11.5 0v-1a.75.75 0 0 1 1.5 0v1A4.25 4.25 0 0 0 12 21.25ZM6.25 8V7a5.75 5.75 0 1 1 11.5 0v1a.75.75 0 0 1-1.5 0V7a4.25 4.25 0 0 0-8.5 0v1a.75.75 0 0 1-1.5 0Zm12.22 1.47 2-2a.749.749 0 0 1 1.275.326.749.749 0 0 1-.215.734l-2 2a.749.749 0 0 1-1.275-.326.749.749 0 0 1 .215-.734Zm-16 6 2-2a.749.749 0 0 1 1.275.326.749.749 0 0 1-.215.734l-2 2a.749.749 0 0 1-1.275-.326.749.749 0 0 1 .215-.734Zm17.06-2 2 2a.751.751 0 0 1-.018 1.042.751.751 0 0 1-1.042.018l-2-2a.749.749 0 0 1 .326-1.275.749.749 0 0 1 .734.215Zm-16-6 2 2a.751.751 0 0 1-.018 1.042.751.751 0 0 1-1.042.018l-2-2a.751.751 0 0 1 .018-1.042.751.751 0 0 1 1.042-.018Z"/></svg>