<svg xmlns="http://www.w3.org/2000/svg" viewBox="0 0 24 24"><path fill="#636F7E" opacity=".16" d="M13 22h-2c-.929 0-1.393 0-1.783-.051a5.999 5.999 0 0 1-5.166-5.166C4 16.393 4 15.93 4 15c0-.929 0-1.393.051-1.783A6 6 0 0 1 9.217 8.05C9.607 8 10.07 8 11 8h2c.929 0 1.393 0 1.783.051a5.999 5.999 0 0 1 5.166 5.166C20 13.607 20 14.07 20 15c0 .929 0 1.393-.051 1.783a5.999 5.999 0 0 1-5.166 5.166C14.393 22 13.93 22 13 22Zm-1.2-9a1.8 1.8 0 0 0-1.8 1.8v.4a1.8 1.8 0 0 0 1.8 1.8h.4a1.8 1.8 0 0 0 1.8-1.8v-.4a1.8 1.8 0 0 0-1.8-1.8Z"/><path fill="#151E28" d="M8.75 5v2.367c.122-.023.245-.043.369-.059.439-.058.949-.058 1.811-.058h2.14c.862 0 1.372 0 1.812.058a6.75 6.75 0 0 1 5.81 5.811c.058.439.058.949.058 1.811v.14c0 .862 0 1.372-.058 1.812a6.75 6.75 0 0 1-5.811 5.81c-.439.058-.949.058-1.811.058h-2.141c-.861 0-1.37 0-1.81-.058a6.75 6.75 0 0 1-5.811-5.811c-.058-.439-.058-.949-.058-1.811v-.141c0-.861 0-1.37.058-1.81A6.75 6.75 0 0 1 7.25 7.835V5A4.75 4.75 0 0 1 11.404.299 4.75 4.75 0 0 1 16.6 3.813a.75.75 0 1 1-1.452.374A3.25 3.25 0 0 0 8.75 5ZM11 8.75c-.953 0-1.356.002-1.685.045a5.25 5.25 0 0 0-4.52 4.52c-.043.329-.045.732-.045 1.685 0 .953.002 1.356.045 1.685a5.25 5.25 0 0 0 4.52 4.52c.329.043.732.045 1.685.045h2c.953 0 1.356-.002 1.685-.045a5.25 5.25 0 0 0 4.52-4.52c.043-.329.045-.732.045-1.685 0-.953-.002-1.356-.045-1.685a5.25 5.25 0 0 0-4.52-4.52c-.329-.043-.732-.045-1.685-.045ZM9.25 14.8a2.55 2.55 0 0 1 2.55-2.55h.4a2.55 2.55 0 0 1 2.55 2.55v.4a2.55 2.55 0 0 1-2.55 2.55h-.4a2.55 2.55 0 0 1-2.55-2.55Zm2.55-1.05c-.58 0-1.05.47-1.05 1.05v.4c0 .58.47 1.05 1.05 1.05h.4c.58 0 1.05-.47 1.05-1.05v-.4c0-.58-.47-1.05-1.05-1.05Z"/></svg>