<svg xmlns="http://www.w3.org/2000/svg" viewBox="0 0 24 24"><path fill="#636F7E" opacity=".16" d="M19 9A7 7 0 1 1 5 9a7 7 0 1 1 14 0Z"/><path fill="#151E28" d="M12 1.25a7.75 7.75 0 0 1 4.278 14.213l1.67 5.01c.493 1.478-1.048 2.815-2.443 2.118l-2.946-1.473a1.25 1.25 0 0 0-1.118 0l-2.946 1.473c-1.395.697-2.936-.639-2.443-2.118l1.67-5.01A7.75 7.75 0 0 1 12 1.25ZM5.75 9a6.25 6.25 0 1 0 12.5 0 6.25 6.25 0 0 0-12.5 0Zm6.862 7.726a7.705 7.705 0 0 1-3.356-.476h-.215l-1.566 4.697a.25.25 0 0 0 .349.303l2.946-1.474a2.751 2.751 0 0 1 2.46 0l2.946 1.474a.25.25 0 0 0 .349-.303l-1.566-4.697h-.215a7.717 7.717 0 0 1-2.132.476Z"/></svg>