<svg xmlns="http://www.w3.org/2000/svg" viewBox="0 0 24 24"><path fill="#636F7E" opacity=".16" d="M20 7v10c0 .932 0 1.398-.152 1.765a2 2 0 0 1-1.083 1.083C18.398 20 17.932 20 17 20c-.932 0-1.398 0-1.765-.152a2 2 0 0 1-1.083-1.083C14 18.398 14 17.932 14 17V7c0-.932 0-1.398.152-1.765a2 2 0 0 1 1.083-1.083C15.602 4 16.068 4 17 4c.932 0 1.398 0 1.765.152a2 2 0 0 1 1.083 1.083C20 5.602 20 6.068 20 7ZM10 7v10c0 .932 0 1.398-.152 1.765a2 2 0 0 1-1.083 1.083C8.398 20 7.932 20 7 20c-.932 0-1.398 0-1.765-.152a2 2 0 0 1-1.083-1.083C4 18.398 4 17.932 4 17V7c0-.932 0-1.398.152-1.765a2 2 0 0 1 1.083-1.083C5.602 4 6.068 4 7 4c.932 0 1.398 0 1.765.152a2 2 0 0 1 1.083 1.083C10 5.602 10 6.068 10 7Z"/><path fill="#151E28" d="M6.975 3.25h.05c.445 0 .816 0 1.12.02.317.022.617.069.907.19.674.279 1.21.814 1.489 1.488.12.29.167.59.188.907.021.304.021.675.021 1.12v10.05c0 .445 0 .816-.02 1.12a2.82 2.82 0 0 1-.19.907 2.749 2.749 0 0 1-1.488 1.489c-.29.12-.59.167-.907.188-.304.021-.675.021-1.12.021h-.05c-.445 0-.816 0-1.12-.02a2.82 2.82 0 0 1-.907-.19 2.749 2.749 0 0 1-1.489-1.488c-.12-.29-.167-.59-.188-.907-.021-.304-.021-.675-.021-1.12V6.975c0-.445 0-.816.02-1.12.022-.317.069-.617.19-.907a2.749 2.749 0 0 1 1.488-1.489c.29-.12.59-.167.907-.188.304-.021.675-.021 1.12-.021Zm10 0h.05c.445 0 .816 0 1.12.02.317.022.617.069.907.19.674.279 1.21.814 1.489 1.488.12.29.167.59.188.907.021.304.021.675.021 1.12v10.05c0 .445 0 .816-.02 1.12a2.82 2.82 0 0 1-.19.907 2.749 2.749 0 0 1-1.488 1.489c-.29.12-.59.167-.907.188-.304.021-.675.021-1.12.021h-.05c-.445 0-.816 0-1.12-.02a2.82 2.82 0 0 1-.907-.19 2.749 2.749 0 0 1-1.489-1.488c-.12-.29-.167-.59-.188-.907-.021-.304-.021-.675-.021-1.12V6.975c0-.445 0-.816.02-1.12.022-.317.069-.617.19-.907a2.749 2.749 0 0 1 1.488-1.489c.29-.12.59-.167.907-.188.304-.021.675-.021 1.12-.021Zm-1.018 1.517c-.241.017-.358.046-.435.078-.307.127-.55.37-.677.677-.032.077-.061.194-.078.435-.016.347-.022.695-.017 1.043v10c0 .476 0 .796.017 1.043.017.241.046.358.078.435.127.307.37.55.677.677.077.032.194.061.435.078.247.017.567.017 1.043.017s.796 0 1.043-.017c.241-.017.358-.046.435-.078.307-.127.55-.37.677-.677.032-.077.061-.194.078-.435.017-.247.017-.567.017-1.043V7c0-.476 0-.796-.017-1.043-.017-.241-.046-.358-.078-.435a1.248 1.248 0 0 0-.677-.677c-.077-.032-.194-.061-.435-.078A17.265 17.265 0 0 0 17 4.75c-.476 0-.796 0-1.043.017Zm-10 0c-.241.017-.358.046-.435.078-.307.127-.55.37-.677.677-.032.077-.061.194-.078.435-.016.347-.022.695-.017 1.043v10c0 .476 0 .796.017 1.043.017.241.046.358.078.435.127.307.37.55.677.677.077.032.194.061.435.078.247.017.567.017 1.043.017s.796 0 1.043-.017c.241-.017.358-.046.435-.078.307-.127.55-.37.677-.677.032-.077.061-.194.078-.435.017-.247.017-.567.017-1.043V7c0-.476 0-.796-.017-1.043-.017-.241-.046-.358-.078-.435a1.248 1.248 0 0 0-.677-.677c-.077-.032-.194-.061-.435-.078A17.265 17.265 0 0 0 7 4.75c-.476 0-.796 0-1.043.017Z"/></svg>