<svg xmlns="http://www.w3.org/2000/svg" viewBox="0 0 24 24"><path fill="#636F7E" opacity=".16" d="M8 11a4 4 0 0 1-3.31-6.247L9.732 10c-.357.619-1.017 1-1.732 1Zm9 9a4 4 0 0 1-4-4c0-.715.381-1.375 1-1.732l5 5.197A3.98 3.98 0 0 1 17 20Z"/><path fill="#151E28" d="m2.53 1.47 20 20a.749.749 0 0 1-.326 1.275.749.749 0 0 1-.734-.215l-2.303-2.302A4.728 4.728 0 0 1 17 20.75C9.406 20.75 3.25 14.594 3.25 7a4.73 4.73 0 0 1 .522-2.167L1.47 2.53a.751.751 0 0 1 .018-1.042.751.751 0 0 1 1.042-.018Zm10.495 12.616-3.111-3.111A2.741 2.741 0 0 1 8 11.75a4.727 4.727 0 0 1-2.588-.766 12.288 12.288 0 0 0 7.604 7.604A4.727 4.727 0 0 1 12.25 16c0-.745.296-1.42.775-1.914ZM7.407 2.287c.197-.025.395-.037.593-.037A2.75 2.75 0 0 1 10.75 5v1.5a.75.75 0 0 1-1.5 0V5c0-.69-.56-1.25-1.25-1.25-.136 0-.272.008-.407.025a.752.752 0 0 1-.799-1.039.747.747 0 0 1 .613-.449ZM17.5 13.25H19A2.75 2.75 0 0 1 21.75 16c0 .198-.012.396-.037.593a.75.75 0 0 1-1.488-.186c.016-.133.025-.269.025-.407 0-.69-.56-1.25-1.25-1.25h-1.5a.75.75 0 0 1 0-1.5ZM8.853 9.914 4.915 5.975A3.252 3.252 0 0 0 8 10.25c.33 0 .63-.127.853-.336Zm9.172 9.171-3.939-3.938a1.249 1.249 0 0 0-.336.853 3.25 3.25 0 0 0 4.275 3.085Z"/></svg>