<svg xmlns="http://www.w3.org/2000/svg" viewBox="0 0 24 24"><path fill="#636F7E" opacity=".16" d="M21 12a9 9 0 1 1-18 0 9 9 0 1 1 18 0Z"/><path fill="#151E28" d="M2.25 12A9.75 9.75 0 0 1 12 2.25 9.75 9.75 0 0 1 21.75 12 9.75 9.75 0 0 1 12 21.75 9.75 9.75 0 0 1 2.25 12ZM12 3.75a8.25 8.25 0 1 0 0 16.5 8.25 8.25 0 0 0 0-16.5Zm-2.438 6.1h.001a3.25 3.25 0 1 0 4.875 0 .75.75 0 1 1 1.125-.992 4.75 4.75 0 1 1-7.125 0 .75.75 0 0 1 1.124.992ZM12 7.25a.75.75 0 0 1 .75.75v4a.75.75 0 0 1-1.5 0V8a.75.75 0 0 1 .75-.75Z"/></svg>