<svg xmlns="http://www.w3.org/2000/svg" viewBox="0 0 24 24"><path fill="#636F7E" opacity=".16" d="M14 8a3 3 0 1 1 6 0 3 3 0 0 1-6 0ZM3.75 7.75a3 3 0 1 1 6 0 3 3 0 0 1-6 0Z"/><path fill="#151E28" d="M19.25 11a3.751 3.751 0 0 1-5.604-4.677A3.75 3.75 0 0 1 20.75 8v6.095c0 .838 0 1.372-.091 1.832a4.751 4.751 0 0 1-3.732 3.732c-.46.091-.994.091-1.832.091H15a.75.75 0 0 1 0-1.5c.965 0 1.338-.004 1.634-.062a3.248 3.248 0 0 0 2.554-2.554c.058-.296.062-.669.062-1.634ZM9 10.75a3.751 3.751 0 0 1-5.604-4.677A3.75 3.75 0 0 1 10.5 7.75v6.095c0 .838 0 1.372-.091 1.832a4.751 4.751 0 0 1-3.732 3.732c-.46.091-.994.091-1.832.091H4.75a.75.75 0 0 1 0-1.5c.965 0 1.338-.004 1.634-.062a3.248 3.248 0 0 0 2.554-2.554c.058-.296.062-.669.062-1.634ZM14.75 8a2.25 2.25 0 1 0 4.5 0 2.25 2.25 0 0 0-4.5 0Zm-8-2.5a2.25 2.25 0 1 0 0 4.5 2.25 2.25 0 0 0 0-4.5Z"/></svg>