<svg xmlns="http://www.w3.org/2000/svg" viewBox="0 0 24 24"><path fill="#636F7E" opacity=".16" d="m13.273 3.656-9.617 9.617c-.792.792-1.188 1.188-1.336 1.644a2 2 0 0 0 0 1.236c.148.457.544.853 1.336 1.645l2.546 2.546c.792.792 1.188 1.188 1.644 1.336a2 2 0 0 0 1.236 0c.457-.148.853-.544 1.645-1.337l9.617-9.616c.792-.792 1.188-1.188 1.336-1.645a2 2 0 0 0 0-1.236c-.148-.457-.544-.853-1.336-1.645l-2.546-2.545c-.792-.792-1.188-1.188-1.644-1.337a2 2 0 0 0-1.236 0c-.457.149-.853.545-1.645 1.337Z"/><path fill="#151E28" d="m18.329 3.126 2.546 2.545.02.022c.322.312.633.636.93.971.247.29.452.59.569.95.18.552.18 1.148 0 1.7-.118.36-.322.66-.568.95-.237.279-.553.594-.93.972l-.022.021-.566.566-2.828 2.828-2.828 2.829-2.829 2.828-.587.587c-.378.378-.693.694-.972.93-.29.247-.59.451-.95.568-.552.18-1.148.18-1.7 0-.36-.117-.659-.321-.95-.568-.278-.236-.593-.552-.971-.93l-.022-.021-2.546-2.546-.02-.021c-.378-.378-.694-.693-.93-.972-.247-.29-.452-.59-.569-.95a2.743 2.743 0 0 1 0-1.7c.118-.36.322-.66.568-.95.237-.278.553-.593.93-.971l.022-.022 9.617-9.617.021-.02c.378-.379.692-.694.972-.93.29-.247.59-.452.95-.569a2.743 2.743 0 0 1 1.7 0c.36.118.659.322.95.568.335.298.659.608.971.93Zm-1.556 4.101 3.006 3.005.035-.035c.404-.405.676-.677.868-.904.186-.219.254-.346.285-.442a1.245 1.245 0 0 0 0-.773c-.031-.097-.099-.223-.285-.443-.192-.226-.464-.498-.868-.903l-2.546-2.546c-.405-.405-.677-.676-.903-.868-.22-.186-.347-.254-.443-.285a1.245 1.245 0 0 0-.773 0c-.096.031-.223.099-.443.285-.226.192-.498.463-.903.868l-9.617 9.617c-.404.405-.676.677-.868.903-.186.22-.254.346-.285.443a1.245 1.245 0 0 0 0 .773c.031.096.099.223.285.443.192.226.464.498.868.903l2.546 2.545c.291.3.592.59.903.869.22.185.347.253.443.285.251.082.522.082.773 0 .096-.032.223-.099.443-.285.311-.279.612-.569.903-.869l.035-.035-1.59-1.591a.749.749 0 0 1 .326-1.275.749.749 0 0 1 .734.215l1.591 1.59 1.768-1.768-3.005-3.005a.751.751 0 0 1 .018-1.042.751.751 0 0 1 1.042-.018l3.005 3.005 1.768-1.768-1.59-1.591a.749.749 0 0 1 .326-1.275.749.749 0 0 1 .734.215l1.591 1.59 1.768-1.767-3.005-3.006a.751.751 0 0 1 .018-1.042.751.751 0 0 1 1.042-.018Zm3.006 3.005h-.001Z"/></svg>