<svg xmlns="http://www.w3.org/2000/svg" viewBox="0 0 24 24"><path fill="#636F7E" opacity=".16" d="M13.75 17h.5c.966 0 1.75.784 1.75 1.75v.5A1.75 1.75 0 0 1 14.25 21h-.5A1.75 1.75 0 0 1 12 19.25v-.5c0-.966.784-1.75 1.75-1.75ZM12 4.75c0-.966.784-1.75 1.75-1.75h.5c.966 0 1.75.784 1.75 1.75v.5A1.75 1.75 0 0 1 14.25 7h-.5A1.75 1.75 0 0 1 12 5.25Zm-5 7c0-.966.784-1.75 1.75-1.75h.5c.966 0 1.75.784 1.75 1.75v.5A1.75 1.75 0 0 1 9.25 14h-.5A1.75 1.75 0 0 1 7 12.25Z"/><path fill="#151E28" d="M13.75 16.25h.5a2.5 2.5 0 0 1 2.5 2.5v.5a2.5 2.5 0 0 1-2.5 2.5h-.5a2.5 2.5 0 0 1-2.5-2.5v-.5a2.5 2.5 0 0 1 2.5-2.5Zm0-14h.5a2.5 2.5 0 0 1 2.5 2.5v.5a2.5 2.5 0 0 1-2.5 2.5h-.5a2.5 2.5 0 0 1-2.5-2.5v-.5a2.5 2.5 0 0 1 2.5-2.5Zm-7.5 9.5a2.5 2.5 0 0 1 2.5-2.5h.5a2.5 2.5 0 0 1 2.5 2.5v.5a2.5 2.5 0 0 1-2.5 2.5h-.5a2.5 2.5 0 0 1-2.5-2.5Zm7 .25a.75.75 0 0 1 .75-.75h7a.75.75 0 0 1 0 1.5h-7a.75.75 0 0 1-.75-.75Zm-11-7A.75.75 0 0 1 3 4.25h6a.75.75 0 0 1 0 1.5H3A.75.75 0 0 1 2.25 5ZM3 18.25h6a.75.75 0 0 1 0 1.5H3a.75.75 0 0 1 0-1.5Zm5.75-7.5a1 1 0 0 0-1 1v.5a1 1 0 0 0 1 1h.5a1 1 0 0 0 1-1v-.5a1 1 0 0 0-1-1Zm4-6v.5a1 1 0 0 0 1 1h.5a1 1 0 0 0 1-1v-.5a1 1 0 0 0-1-1h-.5a1 1 0 0 0-1 1Zm0 14v.5a1 1 0 0 0 1 1h.5a1 1 0 0 0 1-1v-.5a1 1 0 0 0-1-1h-.5a1 1 0 0 0-1 1ZM18.25 5a.75.75 0 0 1 .75-.75h2a.75.75 0 0 1 0 1.5h-2a.75.75 0 0 1-.75-.75Zm0 14a.75.75 0 0 1 .75-.75h2a.75.75 0 0 1 0 1.5h-2a.75.75 0 0 1-.75-.75ZM3 11.25h1a.75.75 0 0 1 0 1.5H3a.75.75 0 0 1 0-1.5Z"/></svg>