<svg xmlns="http://www.w3.org/2000/svg" viewBox="0 0 24 24"><path fill="#636F7E" opacity=".16" d="m4.102 10.958 1.255-4.6c.23-.844.345-1.267.588-1.58a2 2 0 0 1 .82-.627C7.13 4 7.569 4 8.445 4H14.8c1.12 0 1.68 0 2.108.218a2 2 0 0 1 .874.874C18 5.52 18 6.08 18 7.2v6.474c0 .49 0 .734-.055.965a2.02 2.02 0 0 1-.24.578c-.123.201-.296.374-.642.72L11.41 21.59A1.404 1.404 0 0 1 9.2 19.9L12 15H7.19c-1.425 0-2.137 0-2.619-.296a2 2 0 0 1-.872-1.142c-.159-.543.029-1.23.403-2.604Z"/><path fill="#151E28" d="M8.31 3.25h6.521c.535 0 .98 0 1.345.03.38.03.736.098 1.074.27.517.264.937.684 1.2 1.201.172.338.24.694.27 1.074.03.365.03.81.03 1.345v6.577c0 .418 0 .748-.076 1.066a2.704 2.704 0 0 1-.33.795c-.17.28-.403.512-.7.808l-.051.052-5.652 5.652c-.403.403-.951.63-1.523.63-1.653 0-2.69-1.786-1.87-3.222l2.16-3.778H7.155c-.683 0-1.244 0-1.694-.04-.462-.041-.897-.13-1.282-.367a2.751 2.751 0 0 1-1.2-1.57c-.127-.434-.099-.877-.017-1.334.08-.445.228-.986.407-1.645l.01-.033 1.254-4.6.036-.13c.194-.716.347-1.278.682-1.712a2.742 2.742 0 0 1 1.128-.861c.505-.208 1.082-.208 1.82-.208h.011ZM7.051 4.844v.001a1.248 1.248 0 0 0-.513.39c-.129.168-.209.41-.458 1.32l-1.254 4.6c-.191.701-.321 1.179-.387 1.549-.066.367-.052.539-.02.647.087.297.281.552.545.714.096.059.259.118.629.151.376.034.871.034 1.597.034H12c.267 0 .514.142.648.374a.746.746 0 0 1 .003.748l-2.8 4.9a.653.653 0 0 0 1.03.786l5.651-5.651c.372-.371.467-.473.533-.583.069-.111.119-.233.15-.36.03-.125.035-.265.035-.79V7.2c0-.573-.001-.957-.025-1.253-.023-.287-.065-.424-.111-.515a1.25 1.25 0 0 0-.547-.546c-.09-.046-.227-.088-.515-.111-.295-.025-.68-.025-1.252-.025H8.444c-.943 0-1.198.014-1.393.094ZM20.25 14V4a.75.75 0 0 1 1.5 0v10a.75.75 0 0 1-1.5 0Z"/></svg>