<svg xmlns="http://www.w3.org/2000/svg" viewBox="0 0 24 24"><path fill="#636F7E" opacity=".16" d="M3 19a4 4 0 0 1 4-4h6a4 4 0 0 1 4 4 2 2 0 0 1-2 2H5a2 2 0 0 1-2-2Zm7-7a4 4 0 1 1 0-8 4 4 0 0 1 0 8Z"/><path fill="#151E28" d="M2.25 19A4.75 4.75 0 0 1 7 14.25h6A4.75 4.75 0 0 1 17.75 19 2.75 2.75 0 0 1 15 21.75H5A2.75 2.75 0 0 1 2.25 19Zm3-11a4.75 4.75 0 1 1 9.5 0 4.75 4.75 0 0 1-9.5 0ZM7 15.75A3.25 3.25 0 0 0 3.75 19c0 .69.56 1.25 1.25 1.25h10c.69 0 1.25-.56 1.25-1.25A3.25 3.25 0 0 0 13 15.75Zm3-11a3.25 3.25 0 1 0 0 6.5 3.25 3.25 0 0 0 0-6.5Zm9.53 7.78a.75.75 0 0 1-1.06 0l-2-2a.749.749 0 0 1 .326-1.275.749.749 0 0 1 .734.215L19 10.94l3.47-3.47a.751.751 0 0 1 1.042.018.751.751 0 0 1 .018 1.042Z"/></svg>