<?xml version="1.0" standalone="no"?>
<!DOCTYPE svg PUBLIC "-//W3C//DTD SVG 1.1//EN" "http://www.w3.org/Graphics/SVG/1.1/DTD/svg11.dtd" >
<svg xmlns="http://www.w3.org/2000/svg">
<metadata>Generated by IcoMoon</metadata>
<defs>
<font id="digibear-icons-duotone" horiz-adv-x="1024">
<font-face units-per-em="1024" ascent="960" descent="-64" />
<missing-glyph horiz-adv-x="1024" />
<glyph unicode="&#x20;" horiz-adv-x="512" d="" />
<glyph unicode="&#xe900;" glyph-name="activity-duotone" d="M640 778.667c12.8 0 24.363-7.637 29.44-19.413l119.637-279.253h149.589c17.673 0 32-14.327 32-32s-14.327-32-32-32v0h-170.667c-0.006 0-0.013 0-0.019 0-13.125 0-24.404 7.902-29.34 19.207l-0.080 0.206-98.56 230.016-226.56-528.683c-5.006-11.536-16.298-19.459-29.44-19.459s-24.434 7.922-29.36 19.252l-0.080 0.207-119.637 279.253h-149.589c-17.673 0-32 14.327-32 32s14.327 32 32 32v0h170.667c12.8 0 24.363-7.637 29.44-19.413l98.56-230.016 226.56 528.683c5.017 11.512 16.296 19.413 29.421 19.413 0.007 0 0.014 0 0.020 0h-0.001z" />
<glyph unicode="&#xe901;" d="M256 832h512c94.257 0 170.667-76.41 170.667-170.667v0-256c0-94.257-76.41-170.667-170.667-170.667v0h-184.875l-38.357 45.995c-7.881 9.404-19.631 15.341-32.768 15.341s-24.887-5.937-32.714-15.274l-0.054-0.066-38.357-45.995h-184.875c-94.257 0-170.667 76.41-170.667 170.667v0 256c0 94.257 76.41 170.667 170.667 170.667v0z" />
<glyph unicode="&#xe902;" d="M356.992 864h310.016c46.592 0 83.541 0 113.28-2.432 30.464-2.475 56.192-7.68 79.744-19.669 38.324-19.791 68.785-50.252 88.045-87.448l0.531-1.128c11.947-23.509 17.152-49.237 19.627-79.701 2.432-29.739 2.432-66.688 2.432-113.28v-116.395c0-35.755 0-58.539-3.883-78.165-16.433-80.458-78.774-142.799-157.925-159.008l-1.307-0.224c-11.586-2.171-24.972-3.47-38.641-3.583l-0.1-0.001c-0.241-0.007-0.526-0.010-0.811-0.010-17.679 0-32.010 14.331-32.010 32.010 0 17.394 13.873 31.547 31.158 31.999l0.042 0.001c13.355 0.341 21.376 1.067 27.861 2.347 55.080 11.209 97.761 53.89 108.819 108.078l0.152 0.892c2.475 12.629 2.645 28.544 2.645 69.717v110.933c0 48.299-0.043 82.603-2.219 109.483-2.176 26.453-6.272 42.88-12.885 55.893-13.569 26.192-34.395 47.018-59.815 60.222l-0.772 0.365c-13.013 6.613-29.44 10.752-55.893 12.885-26.837 2.219-61.141 2.219-109.483 2.219h-307.2c-48.299 0-82.603-0.043-109.483-2.219-26.453-2.176-42.88-6.272-55.893-12.885-26.192-13.569-47.018-34.395-60.222-59.815l-0.365-0.772c-6.613-13.013-10.752-29.44-12.885-55.893-2.219-26.837-2.219-61.184-2.219-109.483v-110.933c0-41.173 0.171-57.088 2.645-69.717 11.209-55.080 53.89-97.761 108.078-108.819l0.892-0.152c9.216-1.579 18.517-2.347 27.861-2.347 17.327-0.453 31.2-14.606 31.2-32 0-17.679-14.331-32.010-32.010-32.010-0.285 0-0.569 0.004-0.853 0.011l0.042-0.001c-13.755 0.093-27.143 1.393-40.142 3.799l1.401-0.215c-80.458 16.433-142.799 78.774-159.008 157.925l-0.224 1.307c-3.883 19.627-3.883 42.411-3.883 78.165v116.395c0 46.592 0 83.541 2.432 113.28 2.475 30.464 7.68 56.235 19.669 79.701 19.804 38.328 50.26 68.797 87.448 88.086l1.128 0.532c23.509 11.947 49.237 17.152 79.701 19.627 29.739 2.432 66.688 2.432 113.28 2.432zM569.344 301.141h-0.043l122.24-146.688c40.533-48.64 5.973-122.453-57.344-122.453h-244.48c-63.317 0-97.877 73.813-57.344 122.453l122.283 146.688c13.777 16.484 34.345 26.894 57.344 26.894s43.567-10.411 57.248-26.777l0.096-0.118zM503.808 260.181l-122.24-146.688c-1.537-1.835-2.471-4.222-2.471-6.827 0-5.89 4.773-10.664 10.662-10.667h244.48c5.889 0.002 10.663 4.777 10.663 10.667 0 2.605-0.934 4.991-2.484 6.843l0.014-0.017-122.24 146.688c-1.97 2.351-4.908 3.835-8.192 3.835s-6.222-1.484-8.178-3.819l-0.014-0.017z" />
<glyph unicode="&#xe903;" d="M896 448c0-212.077-171.923-384-384-384s-384 171.923-384 384v0c0 212.077 171.923 384 384 384s384-171.923 384-384v0z" />
<glyph unicode="&#xe904;" d="M96 448c0 229.75 186.25 416 416 416v0c229.75 0 416-186.25 416-416v0c0-229.75-186.25-416-416-416v0c-229.75 0-416 186.25-416 416v0zM512 800c-194.404 0-352-157.596-352-352s157.596-352 352-352v0c194.404 0 352 157.596 352 352s-157.596 352-352 352v0zM705.28 598.613c5.782-5.789 9.359-13.784 9.359-22.613s-3.576-16.824-9.359-22.614v0l-213.333-213.333c-5.789-5.782-13.784-9.359-22.613-9.359s-16.824 3.576-22.614 9.359v0l-85.333 85.333c-6.29 5.853-10.212 14.177-10.212 23.418 0 14.866 10.151 27.361 23.899 30.933l0.222 0.049c2.381 0.636 5.115 1.001 7.934 1.001 9.223 0 17.533-3.907 23.366-10.155l0.017-0.019 62.72-62.72 190.72 190.72c5.789 5.782 13.784 9.359 22.613 9.359s16.824-3.576 22.614-9.359v0zM833.28 897.28l128-128c6.29-5.853 10.212-14.177 10.212-23.418 0-14.866-10.151-27.361-23.899-30.933l-0.222-0.049c-2.381-0.636-5.115-1.001-7.934-1.001-9.223 0-17.533 3.907-23.366 10.155l-0.017 0.019-128 128c-6.29 5.853-10.212 14.177-10.212 23.418 0 14.866 10.151 27.361 23.899 30.933l0.222 0.049c2.381 0.636 5.115 1.001 7.934 1.001 9.223 0 17.533-3.907 23.366-10.155l0.017-0.019zM235.947 852.053l-128-128c-5.705-5.321-13.386-8.587-21.831-8.587-8.834 0-16.832 3.575-22.629 9.356l0.001-0.001c-5.781 5.796-9.355 13.794-9.355 22.628 0 8.444 3.267 16.126 8.605 21.85l-0.017-0.019 128 128c5.705 5.321 13.386 8.587 21.831 8.587 8.834 0 16.832-3.575 22.629-9.356l-0.001 0.001c5.781-5.796 9.355-13.794 9.355-22.628 0-8.444-3.267-16.126-8.605-21.85l0.017 0.019z" />
<glyph unicode="&#xe905;" d="M896 448c0-212.077-171.923-384-384-384s-384 171.923-384 384v0c0 212.077 171.923 384 384 384s384-171.923 384-384v0z" />
<glyph unicode="&#xe906;" d="M96 448c0 229.75 186.25 416 416 416v0c229.75 0 416-186.25 416-416v0c0-229.75-186.25-416-416-416v0c-229.75 0-416 186.25-416 416v0zM512 800c-194.404 0-352-157.596-352-352s157.596-352 352-352v0c194.404 0 352 157.596 352 352s-157.596 352-352 352v0zM361.387 598.613c5.789 5.782 13.784 9.359 22.613 9.359s16.824-3.576 22.614-9.359v0l105.387-105.387 105.387 105.387c5.705 5.321 13.386 8.587 21.831 8.587 8.834 0 16.832-3.575 22.629-9.356l-0.001 0.001c5.781-5.796 9.355-13.794 9.355-22.628 0-8.444-3.267-16.126-8.605-21.85l0.017 0.019-105.387-105.387 105.387-105.387c6.29-5.853 10.212-14.177 10.212-23.418 0-14.866-10.151-27.361-23.899-30.933l-0.222-0.049c-2.381-0.636-5.115-1.001-7.934-1.001-9.223 0-17.533 3.907-23.366 10.155l-0.017 0.019-105.387 105.387-105.387-105.387c-5.705-5.321-13.386-8.587-21.831-8.587-8.834 0-16.832 3.575-22.629 9.356l0.001-0.001c-5.781 5.796-9.355 13.794-9.355 22.628 0 8.444 3.267 16.126 8.605 21.85l-0.017-0.019 105.387 105.387-105.387 105.387c-5.782 5.789-9.359 13.784-9.359 22.613s3.576 16.824 9.359 22.614v0zM833.28 897.28l128-128c6.29-5.853 10.212-14.177 10.212-23.418 0-14.866-10.151-27.361-23.899-30.933l-0.222-0.049c-2.381-0.636-5.115-1.001-7.934-1.001-9.223 0-17.533 3.907-23.366 10.155l-0.017 0.019-128 128c-6.29 5.853-10.212 14.177-10.212 23.418 0 14.866 10.151 27.361 23.899 30.933l0.222 0.049c2.381 0.636 5.115 1.001 7.934 1.001 9.223 0 17.533-3.907 23.366-10.155l0.017-0.019zM235.947 852.053l-128-128c-5.705-5.321-13.386-8.587-21.831-8.587-8.834 0-16.832 3.575-22.629 9.356l0.001-0.001c-5.781 5.796-9.355 13.794-9.355 22.628 0 8.444 3.267 16.126 8.605 21.85l-0.017-0.019 128 128c5.705 5.321 13.386 8.587 21.831 8.587 8.834 0 16.832-3.575 22.629-9.356l-0.001 0.001c5.781-5.796 9.355-13.794 9.355-22.628 0-8.444-3.267-16.126-8.605-21.85l0.017 0.019z" />
<glyph unicode="&#xe907;" d="M896 448c0-212.077-171.923-384-384-384s-384 171.923-384 384v0c0 212.077 171.923 384 384 384s384-171.923 384-384v0z" />
<glyph unicode="&#xe908;" d="M96 448c0 229.75 186.25 416 416 416v0c229.75 0 416-186.25 416-416v0c0-229.75-186.25-416-416-416v0c-229.75 0-416 186.25-416 416v0zM512 800c-194.404 0-352-157.596-352-352s157.596-352 352-352v0c194.404 0 352 157.596 352 352s-157.596 352-352 352v0zM512 650.667c17.673 0 32-14.327 32-32v0-153.557l113.749-75.819c8.641-5.82 14.249-15.567 14.249-26.624 0-17.672-14.326-31.998-31.998-31.998-6.615 0-12.762 2.007-17.863 5.446l0.114-0.072-128 85.333c-8.641 5.811-14.251 15.552-14.251 26.603 0 0.007 0 0.014 0 0.022v-0.001 170.667c0 17.673 14.327 32 32 32v0zM833.28 897.28l128-128c6.29-5.853 10.212-14.177 10.212-23.418 0-14.866-10.151-27.361-23.899-30.933l-0.222-0.049c-2.381-0.636-5.115-1.001-7.934-1.001-9.223 0-17.533 3.907-23.366 10.155l-0.017 0.019-128 128c-6.29 5.853-10.212 14.177-10.212 23.418 0 14.866 10.151 27.361 23.899 30.933l0.222 0.049c2.381 0.636 5.115 1.001 7.934 1.001 9.223 0 17.533-3.907 23.366-10.155l0.017-0.019zM235.947 852.053l-128-128c-5.705-5.321-13.386-8.587-21.831-8.587-8.834 0-16.832 3.575-22.629 9.356l0.001-0.001c-5.781 5.796-9.355 13.794-9.355 22.628 0 8.444 3.267 16.126 8.605 21.85l-0.017-0.019 128 128c5.705 5.321 13.386 8.587 21.831 8.587 8.834 0 16.832-3.575 22.629-9.356l-0.001 0.001c5.781-5.796 9.355-13.794 9.355-22.628 0-8.444-3.267-16.126-8.605-21.85l0.017 0.019z" />
<glyph unicode="&#xe909;" d="M896 448c0-212.077-171.923-384-384-384s-384 171.923-384 384v0c0 212.077 171.923 384 384 384s384-171.923 384-384v0z" />
<glyph unicode="&#xe90a;" d="M96 448c0 229.75 186.25 416 416 416v0c229.75 0 416-186.25 416-416v0c0-229.75-186.25-416-416-416v0c-229.75 0-416 186.25-416 416v0zM512 800c-194.404 0-352-157.596-352-352s157.596-352 352-352v0c194.404 0 352 157.596 352 352s-157.596 352-352 352v0zM309.333 448c0 17.673 14.327 32 32 32v0h341.333c17.673 0 32-14.327 32-32s-14.327-32-32-32v0h-341.333c-17.673 0-32 14.327-32 32v0zM833.28 897.28l128-128c6.29-5.853 10.212-14.177 10.212-23.418 0-14.866-10.151-27.361-23.899-30.933l-0.222-0.049c-2.381-0.636-5.115-1.001-7.934-1.001-9.223 0-17.533 3.907-23.366 10.155l-0.017 0.019-128 128c-6.29 5.853-10.212 14.177-10.212 23.418 0 14.866 10.151 27.361 23.899 30.933l0.222 0.049c2.381 0.636 5.115 1.001 7.934 1.001 9.223 0 17.533-3.907 23.366-10.155l0.017-0.019zM235.947 852.053l-128-128c-5.705-5.321-13.386-8.587-21.831-8.587-8.834 0-16.832 3.575-22.629 9.356l0.001-0.001c-5.781 5.796-9.355 13.794-9.355 22.628 0 8.444 3.267 16.126 8.605 21.85l-0.017-0.019 128 128c5.705 5.321 13.386 8.587 21.831 8.587 8.834 0 16.832-3.575 22.629-9.356l-0.001 0.001c5.781-5.796 9.355-13.794 9.355-22.628 0-8.444-3.267-16.126-8.605-21.85l0.017 0.019z" />
<glyph unicode="&#xe90b;" d="M128 448c0-0.010 0-0.022 0-0.035 0-212.077 171.923-384 384-384 102.355 0 195.357 40.047 264.192 105.326l-0.171-0.161-542.933 542.891c-65.066-68.469-105.088-161.276-105.088-263.43 0-0.208 0-0.416 0-0.623v0.032z" />
<glyph unicode="&#xe90c;" d="M104.107 810.667l-41.387 41.387c-5.321 5.705-8.587 13.386-8.587 21.831 0 8.834 3.575 16.832 9.356 22.629l-0.001-0.001c5.796 5.781 13.794 9.355 22.628 9.355 8.444 0 16.126-3.267 21.85-8.605l-0.019 0.017 853.333-853.333c6.29-5.853 10.212-14.177 10.212-23.418 0-14.866-10.151-27.361-23.899-30.933l-0.222-0.049c-2.381-0.636-5.115-1.001-7.934-1.001-9.223 0-17.533 3.907-23.366 10.155l-0.017 0.019-133.376 133.376c-72.079-62.207-166.664-100.096-270.099-100.096-0.203 0-0.406 0-0.61 0h0.031c-229.75 0-416 186.25-416 416v0c0 0.172 0 0.375 0 0.578 0 103.435 37.89 198.019 100.546 270.632l-0.45-0.534-46.763 46.763-41.387-41.387c-5.705-5.321-13.386-8.587-21.831-8.587-8.834 0-16.832 3.575-22.629 9.356l0.001-0.001c-5.781 5.796-9.355 13.794-9.355 22.628 0 8.444 3.267 16.126 8.605 21.85l-0.017-0.019zM737.28 177.493l-495.787 495.787c-50.841-60.608-81.723-139.452-81.723-225.509 0-97.202 39.399-185.203 103.099-248.902v0c63.699-63.7 151.7-103.099 248.902-103.099 86.057 0 164.901 30.882 226.055 82.168l-0.546-0.446zM512 800c-46.72 0-91.307-9.088-132.011-25.6-3.548-1.474-7.669-2.33-11.989-2.33-17.676 0-32.005 14.329-32.005 32.005 0 13.355 8.18 24.8 19.803 29.597l0.213 0.078c46.203 19.245 99.877 30.423 156.162 30.423 229.75 0 416-186.25 416-416 0-56.285-11.178-109.958-31.435-158.923l1.012 2.761c-4.397-12.797-16.329-21.829-30.371-21.829-17.697 0-32.043 14.346-32.043 32.043 0 5.002 1.146 9.737 3.191 13.956l-0.083-0.191c16.939 41.941 25.6 86.784 25.557 132.011 0 194.404-157.596 352-352 352v0zM788.053 897.28c5.789 5.782 13.784 9.359 22.613 9.359s16.824-3.576 22.614-9.359v0l128-128c5.321-5.705 8.587-13.386 8.587-21.831 0-8.834-3.575-16.832-9.356-22.629l0.001 0.001c-5.796-5.781-13.794-9.355-22.628-9.355-8.444 0-16.126 3.267-21.85 8.605l0.019-0.017-128 128c-5.782 5.789-9.359 13.784-9.359 22.613s3.576 16.824 9.359 22.614v0z" />
<glyph unicode="&#xe90d;" d="M896 448c0-212.077-171.923-384-384-384s-384 171.923-384 384v0c0 212.077 171.923 384 384 384s384-171.923 384-384v0z" />
<glyph unicode="&#xe90e;" d="M96 448c0 229.75 186.25 416 416 416v0c229.75 0 416-186.25 416-416v0c0-229.75-186.25-416-416-416v0c-229.75 0-416 186.25-416 416v0zM512 800c-194.404 0-352-157.596-352-352s157.596-352 352-352v0c194.404 0 352 157.596 352 352s-157.596 352-352 352v0zM512 650.667c17.673 0 32-14.327 32-32v0-138.667h138.667c17.673 0 32-14.327 32-32s-14.327-32-32-32v0h-138.667v-138.667c0-17.673-14.327-32-32-32s-32 14.327-32 32v0 138.667h-138.667c-17.673 0-32 14.327-32 32s14.327 32 32 32v0h138.667v138.667c0 17.673 14.327 32 32 32v0zM833.28 897.28l128-128c6.29-5.853 10.212-14.177 10.212-23.418 0-14.866-10.151-27.361-23.899-30.933l-0.222-0.049c-2.381-0.636-5.115-1.001-7.934-1.001-9.223 0-17.533 3.907-23.366 10.155l-0.017 0.019-128 128c-6.29 5.853-10.212 14.177-10.212 23.418 0 14.866 10.151 27.361 23.899 30.933l0.222 0.049c2.381 0.636 5.115 1.001 7.934 1.001 9.223 0 17.533-3.907 23.366-10.155l0.017-0.019zM235.947 852.053l-128-128c-5.705-5.321-13.386-8.587-21.831-8.587-8.834 0-16.832 3.575-22.629 9.356l0.001-0.001c-5.781 5.796-9.355 13.794-9.355 22.628 0 8.444 3.267 16.126 8.605 21.85l-0.017-0.019 128 128c5.705 5.321 13.386 8.587 21.831 8.587 8.834 0 16.832-3.575 22.629-9.356l-0.001 0.001c5.781-5.796 9.355-13.794 9.355-22.628 0-8.444-3.267-16.126-8.605-21.85l0.017 0.019z" />
<glyph unicode="&#xe90f;" d="M896 448c0-212.077-171.923-384-384-384s-384 171.923-384 384v0c0 212.077 171.923 384 384 384s384-171.923 384-384v0z" />
<glyph unicode="&#xe910;" d="M96 448c0 229.75 186.25 416 416 416v0c229.75 0 416-186.25 416-416v0c0-229.75-186.25-416-416-416v0c-229.75 0-416 186.25-416 416v0zM512 800c-194.404 0-352-157.596-352-352s157.596-352 352-352v0c194.404 0 352 157.596 352 352s-157.596 352-352 352v0zM394.667 576c0 17.673 14.327 32 32 32v0h170.667c0.047 0 0.102 0 0.158 0 17.626 0 31.915-14.289 31.915-31.915 0-6.654-2.036-12.832-5.52-17.946l0.071 0.111-137.515-206.251h110.891c17.673 0 32-14.327 32-32s-14.327-32-32-32v0h-170.667c-0.047 0-0.102 0-0.158 0-17.626 0-31.915 14.289-31.915 31.915 0 6.654 2.036 12.832 5.52 17.946l-0.071-0.111 137.515 206.251h-110.891c-17.673 0-32 14.327-32 32v0zM833.28 897.28l128-128c6.29-5.853 10.212-14.177 10.212-23.418 0-14.866-10.151-27.361-23.899-30.933l-0.222-0.049c-2.381-0.636-5.115-1.001-7.934-1.001-9.223 0-17.533 3.907-23.366 10.155l-0.017 0.019-128 128c-6.29 5.853-10.212 14.177-10.212 23.418 0 14.866 10.151 27.361 23.899 30.933l0.222 0.049c2.381 0.636 5.115 1.001 7.934 1.001 9.223 0 17.533-3.907 23.366-10.155l0.017-0.019zM235.947 852.053l-128-128c-5.705-5.321-13.386-8.587-21.831-8.587-8.834 0-16.832 3.575-22.629 9.356l0.001-0.001c-5.781 5.796-9.355 13.794-9.355 22.628 0 8.444 3.267 16.126 8.605 21.85l-0.017-0.019 128 128c5.705 5.321 13.386 8.587 21.831 8.587 8.834 0 16.832-3.575 22.629-9.356l-0.001 0.001c5.781-5.796 9.355-13.794 9.355-22.628 0-8.444-3.267-16.126-8.605-21.85l0.017 0.019z" />
<glyph unicode="&#xe911;" d="M223.36 825.515c15.659 6.485 35.541 6.485 75.307 6.485s59.648 0 75.307-6.485c20.907-8.661 37.547-25.301 46.208-46.208 6.485-15.659 6.485-35.541 6.485-75.307v-341.333c0-39.765 0-59.648-6.485-75.307-8.661-20.907-25.301-37.547-46.208-46.208-15.659-6.485-35.541-6.485-75.307-6.485s-59.648 0-75.307 6.485c-20.985 8.859-37.349 25.223-45.997 45.647l-0.211 0.561c-6.485 15.659-6.485 35.541-6.485 75.307v341.333c0 39.765 0 59.648 6.485 75.307 8.661 20.907 25.301 37.547 46.208 46.208zM650.027 654.848c15.659 6.485 35.541 6.485 75.307 6.485s59.648 0 75.307-6.485c20.907-8.661 37.547-25.301 46.208-46.208 6.485-15.659 6.485-35.541 6.485-75.307v-170.667c0-39.765 0-59.648-6.485-75.307-8.661-20.907-25.301-37.547-46.208-46.208-15.659-6.485-35.541-6.485-75.307-6.485s-59.648 0-75.307 6.485c-20.985 8.859-37.349 25.223-45.997 45.647l-0.211 0.561c-6.485 15.659-6.485 35.541-6.485 75.307v170.667c0 39.765 0 59.648 6.485 75.307 8.661 20.907 25.301 37.547 46.208 46.208z" />
<glyph unicode="&#xe912;" d="M138.667 705.067c0 18.987 0 34.816 0.896 47.787 0.896 13.525 2.901 26.325 8.021 38.699 12.169 28.847 34.673 51.337 62.76 63.199l0.77 0.289c11.416 4.585 24.632 7.507 38.451 8.098l0.248 0.008c12.971 0.853 28.8 0.853 47.787 0.853h2.133c18.987 0 34.816 0 47.787-0.896 13.525-0.896 26.325-2.901 38.699-8.021 28.847-12.169 51.337-34.673 63.199-62.76l0.289-0.77c4.821-12.373 7.552-25.429 8.107-38.699 0.853-12.971 0.853-28.8 0.853-47.787v-343.467c0-18.987 0-34.816-0.896-47.787-0.563-14.056-3.457-27.277-8.305-39.51l0.284 0.812c-12.169-28.847-34.673-51.337-62.76-63.199l-0.77-0.289c-12.373-5.163-25.173-7.168-38.699-8.107-12.971-0.853-28.8-0.853-47.787-0.853h-2.133c-18.987 0-34.816 0-47.787 0.896-14.056 0.563-27.277 3.457-39.51 8.305l0.812-0.284c-28.847 12.169-51.337 34.673-63.199 62.76l-0.289 0.77c-4.594 11.416-7.517 24.633-8.099 38.456l-0.008 0.243c-0.853 12.971-0.853 28.8-0.853 47.787zM565.333 534.4c0 18.987 0 34.816 0.853 47.787 0.939 13.525 2.944 26.325 8.107 38.699 12.151 28.858 34.641 51.361 62.719 63.242l0.769 0.289c12.373 5.12 25.173 7.125 38.699 8.021 12.971 0.896 28.8 0.896 47.787 0.896h2.133c18.987 0 34.816 0 47.787-0.853 13.525-0.939 26.325-2.987 38.699-8.107 28.757-11.904 51.627-34.731 63.531-63.488 5.12-12.373 7.125-25.173 8.021-38.699 0.896-12.971 0.896-28.8 0.896-47.787v-172.8c0-18.987 0-34.816-0.853-47.787-0.6-14.067-3.522-27.283-8.392-39.511l0.285 0.813c-12.151-28.858-34.641-51.361-62.719-63.242l-0.769-0.289c-12.373-5.12-25.173-7.125-38.699-8.021-12.971-0.896-28.8-0.896-47.787-0.896h-2.133c-18.987 0-34.816 0-47.787 0.853-14.067 0.6-27.283 3.522-39.511 8.392l0.813-0.285c-28.858 12.151-51.361 34.641-63.242 62.719l-0.289 0.769c-5.12 12.373-7.125 25.173-8.021 38.699-0.896 12.971-0.896 28.8-0.896 47.787v172.8zM203.392 748.501c-0.725-10.539-0.725-24.192-0.725-44.501v-341.333c-0.213-14.848 0.043-29.696 0.725-44.501 0.725-10.283 1.963-15.275 3.328-18.56 5.419-13.099 15.787-23.467 28.885-28.885 3.285-1.365 8.277-2.603 18.56-3.328 10.539-0.725 24.192-0.725 44.501-0.725 14.848-0.213 29.696 0.043 44.501 0.725 10.283 0.725 15.275 1.963 18.56 3.328 13.099 5.419 23.467 15.787 28.885 28.885 1.365 3.285 2.603 8.277 3.328 18.56 0.725 10.539 0.725 24.192 0.725 44.501v341.333c0 20.309 0 33.963-0.725 44.501-0.725 10.283-1.963 15.275-3.328 18.56-5.521 13.129-15.757 23.364-28.535 28.754l-0.35 0.131c-3.285 1.365-8.277 2.603-18.56 3.328-10.539 0.725-24.192 0.725-44.501 0.725s-33.963 0-44.501-0.725c-10.283-0.725-15.275-1.963-18.56-3.328-13.099-5.419-23.467-15.787-28.885-28.885-1.365-3.285-2.603-8.277-3.328-18.56zM633.387 596.395c-1.365-3.285-2.603-8.277-3.328-18.56-0.683-14.805-0.939-29.653-0.725-44.501v-170.667c0-20.309 0-33.963 0.725-44.501 0.725-10.283 1.963-15.275 3.328-18.56 5.419-13.099 15.787-23.467 28.885-28.885 3.285-1.365 8.277-2.603 18.56-3.328 10.539-0.725 24.192-0.725 44.501-0.725s33.963 0 44.501 0.725c10.283 0.725 15.275 1.963 18.56 3.328 13.099 5.419 23.467 15.787 28.885 28.885 1.365 3.285 2.603 8.277 3.328 18.56 0.725 10.539 0.725 24.192 0.725 44.501v170.667c0 20.309 0 33.963-0.725 44.501-0.725 10.283-1.963 15.275-3.328 18.56-5.521 13.129-15.757 23.364-28.535 28.754l-0.35 0.131c-3.285 1.365-8.277 2.603-18.56 3.328-10.225 0.508-22.204 0.797-34.25 0.797-3.605 0-7.203-0.026-10.795-0.077l0.544 0.006c-20.309 0-33.963 0-44.501-0.725-10.283-0.725-15.275-1.963-18.56-3.328-13.099-5.419-23.467-15.787-28.885-28.885zM96 64c0 17.673 14.327 32 32 32v0h768c17.673 0 32-14.327 32-32s-14.327-32-32-32v0h-768c-17.673 0-32 14.327-32 32v0z" />
<glyph unicode="&#xe913;" d="M219.819 736.683c8.856 20.976 25.222 37.328 45.648 45.955l0.56 0.21c15.659 6.485 35.541 6.485 75.307 6.485h341.333c39.765 0 59.648 0 75.307-6.485 20.986-8.837 37.352-25.19 45.998-45.606l0.21-0.56c6.485-15.701 6.485-35.584 6.485-75.349 0-39.68 0-59.605-6.485-75.307-8.856-20.976-25.222-37.328-45.648-45.955l-0.56-0.21c-15.659-6.528-35.541-6.528-75.307-6.528h-341.333c-39.765 0-59.648 0-75.307 6.528-20.986 8.837-37.352 25.19-45.998 45.606l-0.21 0.56c-6.485 15.701-6.485 35.584-6.485 75.307 0 39.765 0 59.648 6.485 75.349zM305.152 310.016c8.856 20.976 25.222 37.328 45.648 45.955l0.56 0.21c15.659 6.485 35.541 6.485 75.307 6.485h170.667c39.765 0 59.648 0 75.307-6.485 20.986-8.837 37.352-25.19 45.998-45.606l0.21-0.56c6.485-15.701 6.485-35.584 6.485-75.349 0-39.68 0-59.605-6.485-75.349-8.856-20.976-25.222-37.328-45.648-45.955l-0.56-0.21c-15.659-6.485-35.541-6.485-75.307-6.485h-170.667c-39.765 0-59.648 0-75.307 6.528-20.986 8.837-37.352 25.19-45.998 45.606l-0.21 0.56c-6.485 15.701-6.485 35.584-6.485 75.307 0 39.765 0 59.648 6.485 75.349z" />
<glyph unicode="&#xe914;" d="M512 949.333c17.673 0 32-14.327 32-32v0-96h139.733c18.987 0 34.816 0 47.787-0.853 13.525-0.939 26.325-2.944 38.699-8.064 28.757-11.904 51.627-34.731 63.531-63.488 5.12-12.373 7.125-25.173 8.021-38.699 0.896-13.013 0.896-28.843 0.896-47.787v-2.176c0-18.944 0-34.773-0.853-47.787-0.6-14.067-3.522-27.283-8.392-39.511l0.285 0.813c-12.152-28.846-34.642-51.336-62.718-63.199l-0.77-0.289c-12.373-5.12-25.173-7.125-38.699-8.064-12.971-0.853-28.8-0.853-47.787-0.853h-139.733v-106.667h54.4c18.987 0 34.816 0 47.787-0.896 13.568-0.939 26.325-2.944 38.699-8.064 28.757-11.904 51.627-34.731 63.531-63.488 5.12-12.373 7.125-25.173 8.021-38.699 0.896-13.013 0.896-28.843 0.896-47.787v-2.176c0-18.944 0-34.773-0.853-47.787-0.6-14.067-3.522-27.283-8.392-39.511l0.285 0.813c-12.152-28.846-34.642-51.336-62.718-63.199l-0.77-0.289c-12.373-5.12-25.173-7.125-38.699-8.064-12.971-0.853-28.8-0.853-47.787-0.853h-54.4v-96.043c0-17.673-14.327-32-32-32s-32 14.327-32 32v0 96h-54.4c-18.987 0-34.816 0-47.787 0.896-14.062 0.585-27.28 3.493-39.512 8.349l0.814-0.285c-28.858 12.151-51.361 34.641-63.242 62.719l-0.289 0.769c-5.12 12.373-7.125 25.173-8.021 38.699-0.896 13.013-0.896 28.843-0.896 47.787v2.176c0 18.944 0 34.773 0.853 47.787 0.939 13.525 2.987 26.283 8.107 38.699 12.152 28.846 34.642 51.336 62.718 63.199l0.77 0.289c12.373 5.12 25.173 7.125 38.699 8.064 12.971 0.853 28.8 0.853 47.787 0.853h54.4v106.667h-139.733c-18.987 0-34.816 0-47.787 0.896-14.062 0.585-27.28 3.493-39.512 8.349l0.814-0.285c-28.858 12.151-51.361 34.641-63.242 62.719l-0.289 0.769c-5.12 12.373-7.125 25.173-8.021 38.699-0.896 13.013-0.896 28.843-0.896 47.787v2.176c0 18.944 0 34.773 0.853 47.787 0.939 13.525 2.987 26.283 8.107 38.699 12.163 28.814 34.632 51.282 62.676 63.156l0.769 0.289c12.373 5.12 25.173 7.125 38.699 8.064 12.971 0.853 28.8 0.853 47.787 0.853h139.733v96.043c0 0 0 0 0 0 0 17.673 14.327 32 32 32 0.015 0 0.030 0 0.045 0h-0.002zM341.333 757.333c-20.309 0-33.963 0-44.501-0.725-10.283-0.683-15.275-1.963-18.56-3.328-13.056-5.419-23.467-15.787-28.885-28.843-1.365-3.285-2.603-8.32-3.328-18.56-0.683-14.848-0.939-29.696-0.725-44.544 0-20.309 0-33.92 0.725-44.501 0.725-10.24 1.963-15.275 3.328-18.56 5.419-13.056 15.787-23.467 28.885-28.843 3.285-1.365 8.277-2.645 18.56-3.328 10.539-0.725 24.192-0.768 44.501-0.768h341.333c20.309 0 33.963 0 44.501 0.768 10.283 0.683 15.275 1.963 18.56 3.328 13.099 5.419 23.467 15.787 28.885 28.843 1.365 3.285 2.603 8.277 3.328 18.56 0.725 10.581 0.725 24.192 0.725 44.501 0 20.352 0 33.963-0.725 44.544-0.725 10.24-1.963 15.275-3.328 18.56-5.55 13.099-15.776 23.311-28.535 28.711l-0.351 0.132c-3.285 1.365-8.277 2.645-18.56 3.328-10.225 0.508-22.204 0.797-34.25 0.797-3.605 0-7.203-0.026-10.795-0.077l0.544 0.006h-341.333zM511.275 330.667h-84.608c-20.309 0-33.963 0-44.501-0.725-10.283-0.683-15.275-1.963-18.56-3.328-13.056-5.419-23.467-15.787-28.885-28.843-1.365-3.285-2.603-8.277-3.328-18.56-0.725-10.581-0.725-24.192-0.725-44.544 0-20.309 0-33.92 0.725-44.501 0.725-10.24 1.963-15.275 3.328-18.56 5.419-13.056 15.787-23.467 28.885-28.843 3.285-1.365 8.277-2.645 18.56-3.328 10.539-0.725 24.192-0.768 44.501-0.768h170.667c20.309 0 33.963 0 44.501 0.768 10.283 0.683 15.275 1.963 18.56 3.328 13.099 5.419 23.467 15.787 28.885 28.843 1.365 3.285 2.603 8.32 3.328 18.56 0.725 10.581 0.725 24.192 0.725 44.501 0 20.352 0 33.963-0.725 44.544-0.725 10.24-1.963 15.275-3.328 18.56-5.55 13.099-15.776 23.311-28.535 28.711l-0.351 0.132c-3.285 1.365-8.277 2.645-18.56 3.328-10.265 0.536-22.286 0.841-34.378 0.841-3.559 0-7.112-0.026-10.659-0.079l0.536 0.006h-86.059z" />
<glyph unicode="&#xe915;" d="M223.317 155.819c-20.976 8.856-37.328 25.222-45.955 45.648l-0.21 0.56c-6.485 15.659-6.485 35.541-6.485 75.307v341.333c0 39.765 0 59.648 6.485 75.307 8.837 20.986 25.19 37.352 45.606 45.998l0.56 0.21c15.701 6.485 35.584 6.485 75.349 6.485 39.68 0 59.605 0 75.307-6.485 20.976-8.856 37.328-25.222 45.955-45.648l0.21-0.56c6.528-15.659 6.528-35.541 6.528-75.307v-341.333c0-39.765 0-59.648-6.528-75.307-8.837-20.986-25.19-37.352-45.606-45.998l-0.56-0.21c-15.701-6.485-35.584-6.485-75.307-6.485-39.765 0-59.648 0-75.349 6.485zM649.984 241.152c-20.976 8.856-37.328 25.222-45.955 45.648l-0.21 0.56c-6.485 15.659-6.485 35.541-6.485 75.307v170.667c0 39.765 0 59.648 6.485 75.307 8.837 20.986 25.19 37.352 45.606 45.998l0.56 0.21c15.701 6.485 35.584 6.485 75.349 6.485 39.68 0 59.605 0 75.349-6.485 20.976-8.856 37.328-25.222 45.955-45.648l0.21-0.56c6.485-15.659 6.485-35.541 6.485-75.307v-170.667c0-39.765 0-59.648-6.528-75.307-8.837-20.986-25.19-37.352-45.606-45.998l-0.56-0.21c-15.701-6.485-35.584-6.485-75.307-6.485-39.765 0-59.648 0-75.349 6.485z" />
<glyph unicode="&#xe916;" d="M138.667 276.267v139.733h-96c-17.673 0-32 14.327-32 32s14.327 32 32 32v0h96v139.733c0 18.987 0 34.816 0.853 47.787 0.555 13.269 3.285 26.325 8.064 38.699 12.151 28.858 34.641 51.361 62.719 63.242l0.769 0.289c12.373 5.12 25.173 7.125 38.699 8.021 13.013 0.896 28.843 0.896 47.787 0.896h2.176c18.944 0 34.773 0 47.787-0.853 13.525-0.939 26.325-2.987 38.699-8.107 28.846-12.152 51.336-34.642 63.199-62.718l0.289-0.77c5.12-12.373 7.125-25.173 8.064-38.699 0.853-12.971 0.853-28.8 0.853-47.787v-139.733h106.667v54.4c0 18.987 0 34.816 0.896 47.787 0.555 13.269 3.285 26.325 8.064 38.699 12.151 28.858 34.641 51.361 62.719 63.242l0.769 0.289c12.373 5.12 25.173 7.125 38.699 8.021 13.013 0.896 28.843 0.896 47.787 0.896h2.176c18.944 0 34.773 0 47.787-0.853 13.525-0.939 26.325-2.987 38.699-8.107 28.846-12.152 51.336-34.642 63.199-62.718l0.289-0.77c5.12-12.373 7.125-25.173 8.064-38.699 0.853-12.971 0.853-28.8 0.853-47.787v-54.4h96.043c17.673 0 32-14.327 32-32s-14.327-32-32-32v0h-96v-54.4c0-18.987 0-34.816-0.896-47.787-0.585-14.062-3.493-27.28-8.349-39.512l0.285 0.814c-12.151-28.858-34.641-51.361-62.719-63.242l-0.769-0.289c-12.373-5.12-25.173-7.125-38.699-8.021-13.013-0.896-28.843-0.896-47.787-0.896h-2.176c-18.944 0-34.773 0-47.787 0.853-14.067 0.6-27.283 3.522-39.511 8.392l0.813-0.285c-28.846 12.152-51.336 34.642-63.199 62.718l-0.289 0.77c-4.551 11.418-7.457 24.633-8.055 38.446l-0.009 0.253c-0.853 12.971-0.853 28.8-0.853 47.787v54.4h-106.667v-139.733c0-18.987 0-34.816-0.896-47.787-0.585-14.062-3.493-27.28-8.349-39.512l0.285 0.814c-12.151-28.858-34.641-51.361-62.719-63.242l-0.769-0.289c-12.373-5.12-25.173-7.125-38.699-8.021-13.013-0.896-28.843-0.896-47.787-0.896h-2.176c-18.944 0-34.773 0-47.787 0.853-14.067 0.6-27.283 3.522-39.511 8.392l0.813-0.285c-28.846 12.152-51.336 34.642-63.199 62.718l-0.289 0.77c-4.551 11.418-7.457 24.633-8.055 38.446l-0.009 0.253c-0.853 12.971-0.853 28.8-0.853 47.787zM202.667 277.333c-0.213-14.848 0.043-29.696 0.725-44.501 0.683-10.283 1.963-15.275 3.328-18.56 5.419-13.056 15.787-23.467 28.843-28.885 3.285-1.365 8.32-2.603 18.56-3.328 10.581-0.725 24.192-0.725 44.544-0.725 14.848-0.213 29.696 0.043 44.501 0.725 10.283 0.725 15.275 1.963 18.56 3.328 13.056 5.419 23.424 15.829 28.843 28.885 1.365 3.285 2.645 8.277 3.328 18.56 0.768 10.539 0.768 24.192 0.768 44.501v341.333c0 20.309-0.043 33.963-0.768 44.501-0.683 10.283-1.963 15.275-3.328 18.56-5.504 13.127-15.726 23.363-28.494 28.754l-0.349 0.131c-3.285 1.365-8.32 2.603-18.56 3.328-10.581 0.725-24.192 0.725-44.501 0.725-14.848 0.213-29.696-0.043-44.544-0.725-10.24-0.725-15.275-1.963-18.56-3.328-13.106-5.538-23.323-15.769-28.711-28.535l-0.131-0.35c-1.365-3.285-2.645-8.277-3.328-18.56-0.725-10.539-0.725-24.192-0.725-44.501zM629.333 447.275v-84.608c0-20.309 0-33.963 0.725-44.501 0.683-10.283 1.963-15.275 3.328-18.56 5.419-13.099 15.787-23.467 28.843-28.885 3.285-1.365 8.277-2.603 18.56-3.328 10.581-0.725 24.192-0.725 44.544-0.725 20.309 0 33.92 0 44.501 0.725 10.24 0.725 15.275 1.963 18.56 3.328 13.056 5.419 23.467 15.787 28.843 28.885 1.365 3.285 2.645 8.277 3.328 18.56 0.725 10.539 0.768 24.192 0.768 44.501v170.667c0 20.309 0 33.963-0.768 44.501-0.683 10.283-1.963 15.275-3.328 18.56-5.532 13.109-15.744 23.335-28.493 28.753l-0.35 0.132c-3.285 1.365-8.32 2.603-18.56 3.328-10.225 0.508-22.204 0.797-34.25 0.797-3.605 0-7.203-0.026-10.795-0.077l0.544 0.006c-20.352 0-33.963 0-44.544-0.725-10.24-0.725-15.275-1.963-18.56-3.328-13.099-5.55-23.311-15.776-28.711-28.535l-0.132-0.351c-1.365-3.285-2.645-8.277-3.328-18.56-0.725-14.805-0.981-29.653-0.768-44.501v-86.059z" />
<glyph unicode="&#xe917;" d="M889.515 736.64c6.485-15.659 6.485-35.541 6.485-75.307s0-59.648-6.485-75.307c-8.661-20.907-25.301-37.547-46.208-46.208-15.659-6.485-35.541-6.485-75.307-6.485h-341.333c-39.765 0-59.648 0-75.307 6.485-20.985 8.859-37.349 25.223-45.997 45.647l-0.211 0.561c-6.485 15.659-6.485 35.541-6.485 75.307s0 59.648 6.485 75.307c8.661 20.907 25.301 37.547 46.208 46.208 15.659 6.485 35.541 6.485 75.307 6.485h341.333c39.765 0 59.648 0 75.307-6.485 20.907-8.661 37.547-25.301 46.208-46.208zM718.848 309.973c6.485-15.659 6.485-35.541 6.485-75.307s0-59.648-6.485-75.307c-8.661-20.907-25.301-37.547-46.208-46.208-15.659-6.485-35.541-6.485-75.307-6.485h-170.667c-39.765 0-59.648 0-75.307 6.485-20.985 8.859-37.349 25.223-45.997 45.647l-0.211 0.561c-6.485 15.659-6.485 35.541-6.485 75.307s0 59.648 6.485 75.307c8.661 20.907 25.301 37.547 46.208 46.208 15.659 6.485 35.541 6.485 75.307 6.485h170.667c39.765 0 59.648 0 75.307-6.485 20.907-8.661 37.547-25.301 46.208-46.208z" />
<glyph unicode="&#xe918;" d="M769.067 821.333c18.987 0 34.816 0 47.787-0.896 13.525-0.896 26.325-2.901 38.699-8.021 28.847-12.169 51.337-34.673 63.199-62.76l0.289-0.77c4.821-12.373 7.552-25.429 8.107-38.699 0.853-12.971 0.853-28.8 0.853-47.787v-2.133c0-18.987 0-34.816-0.896-47.787-0.563-14.056-3.457-27.277-8.305-39.51l0.284 0.812c-12.169-28.847-34.673-51.337-62.76-63.199l-0.77-0.289c-11.416-4.585-24.632-7.507-38.451-8.098l-0.248-0.008c-12.971-0.853-28.8-0.853-47.787-0.853h-343.467c-18.987 0-34.816 0-47.787 0.896-14.056 0.563-27.277 3.457-39.51 8.305l0.812-0.284c-28.847 12.169-51.337 34.673-63.199 62.76l-0.289 0.77c-4.569 11.415-7.49 24.629-8.098 38.443l-0.009 0.256c-0.853 12.971-0.853 28.8-0.853 47.787v2.133c0 18.987 0 34.816 0.896 47.787 0.896 13.525 2.901 26.325 8.021 38.699 12.169 28.847 34.673 51.337 62.76 63.199l0.77 0.289c11.416 4.585 24.632 7.507 38.451 8.098l0.248 0.008c12.971 0.853 28.8 0.853 47.787 0.853zM598.4 394.667c18.987 0 34.816 0 47.787-0.853 13.568-0.939 26.325-2.944 38.699-8.107 28.757-11.904 51.627-34.731 63.531-63.488 5.12-12.373 7.125-25.173 8.021-38.699 0.896-12.971 0.896-28.8 0.896-47.787v-2.133c0-18.987 0-34.816-0.853-47.787-0.6-14.067-3.522-27.283-8.392-39.511l0.285 0.813c-12.151-28.858-34.641-51.361-62.719-63.242l-0.769-0.289c-12.373-5.12-25.173-7.125-38.699-8.021-12.971-0.896-28.8-0.896-47.787-0.896h-172.8c-18.987 0-34.816 0-47.787 0.853-14.067 0.6-27.283 3.522-39.511 8.392l0.813-0.285c-28.858 12.151-51.361 34.641-63.242 62.719l-0.289 0.769c-5.12 12.373-7.125 25.173-8.021 38.699-0.896 12.971-0.896 28.8-0.896 47.787v2.133c0 18.987 0 34.816 0.853 47.787 0.939 13.568 2.987 26.325 8.107 38.699 12.151 28.858 34.641 51.361 62.719 63.242l0.769 0.289c12.373 5.12 25.173 7.125 38.699 8.021 12.971 0.896 28.8 0.896 47.787 0.896h172.8zM812.501 756.608c-10.539 0.725-24.192 0.725-44.501 0.725h-341.333c-20.309 0-33.963 0-44.501-0.725-10.283-0.725-15.275-1.963-18.56-3.328-13.099-5.419-23.467-15.787-28.885-28.885-1.365-3.285-2.603-8.277-3.328-18.56-0.725-10.539-0.725-24.192-0.725-44.501-0.213-14.848 0.043-29.696 0.725-44.501 0.725-10.283 1.963-15.275 3.328-18.56 5.419-13.099 15.787-23.467 28.885-28.885 3.285-1.365 8.277-2.603 18.56-3.328 10.539-0.725 24.192-0.725 44.501-0.725h341.333c20.309 0 33.963 0 44.501 0.725 10.283 0.725 15.275 1.963 18.56 3.328 13.099 5.419 23.467 15.787 28.885 28.885 1.365 3.285 2.603 8.277 3.328 18.56 0.725 10.539 0.725 24.192 0.725 44.501s0 33.963-0.725 44.501c-0.725 10.283-1.963 15.275-3.328 18.56-5.521 13.129-15.757 23.364-28.535 28.754l-0.35 0.131c-3.285 1.365-8.277 2.603-18.56 3.328zM660.395 326.613c-3.285 1.365-8.277 2.603-18.56 3.328-10.225 0.508-22.204 0.797-34.25 0.797-3.605 0-7.203-0.026-10.795-0.077l0.544 0.006h-170.667c-20.309 0-33.963 0-44.501-0.725-10.283-0.725-15.275-1.963-18.56-3.328-13.099-5.419-23.467-15.787-28.885-28.885-1.365-3.285-2.603-8.277-3.328-18.56-0.725-10.539-0.725-24.192-0.725-44.501s0-33.963 0.725-44.501c0.725-10.283 1.963-15.275 3.328-18.56 5.419-13.099 15.787-23.467 28.885-28.885 3.285-1.365 8.277-2.603 18.56-3.328 10.539-0.725 24.192-0.725 44.501-0.725h170.667c20.309 0 33.963 0 44.501 0.725 10.283 0.725 15.275 1.963 18.56 3.328 13.099 5.419 23.467 15.787 28.885 28.885 1.365 3.285 2.603 8.277 3.328 18.56 0.725 10.539 0.725 24.192 0.725 44.501s0 33.963-0.725 44.501c-0.725 10.283-1.963 15.275-3.328 18.56-5.521 13.129-15.757 23.364-28.535 28.754l-0.35 0.131zM128 864c17.673 0 32-14.327 32-32v0-768c0-17.673-14.327-32-32-32s-32 14.327-32 32v0 768c0 17.673 14.327 32 32 32v0z" />
<glyph unicode="&#xe919;" d="M134.485 736.64c8.661 20.907 25.301 37.547 46.208 46.208 15.659 6.485 35.541 6.485 75.307 6.485h341.333c39.765 0 59.648 0 75.307-6.485 20.907-8.661 37.547-25.301 46.208-46.208 6.485-15.659 6.485-35.541 6.485-75.307s0-59.648-6.485-75.307c-8.661-20.907-25.301-37.547-46.208-46.208-15.659-6.485-35.541-6.485-75.307-6.485h-341.333c-39.765 0-59.648 0-75.307 6.485-20.985 8.859-37.349 25.223-45.997 45.647l-0.211 0.561c-6.485 15.659-6.485 35.541-6.485 75.307s0 59.648 6.485 75.307zM305.152 309.973c8.661 20.907 25.301 37.547 46.208 46.208 15.659 6.485 35.541 6.485 75.307 6.485h170.667c39.765 0 59.648 0 75.307-6.485 20.907-8.661 37.547-25.301 46.208-46.208 6.485-15.659 6.485-35.541 6.485-75.307s0-59.648-6.485-75.307c-8.661-20.907-25.301-37.547-46.208-46.208-15.659-6.485-35.541-6.485-75.307-6.485h-170.667c-39.765 0-59.648 0-75.307 6.485-20.985 8.859-37.349 25.223-45.997 45.647l-0.211 0.561c-6.485 15.659-6.485 35.541-6.485 75.307s0 59.648 6.485 75.307z" />
<glyph unicode="&#xe91a;" d="M254.933 821.333h343.467c18.987 0 34.816 0 47.787-0.853 13.568-0.939 26.325-2.944 38.699-8.107 28.757-11.904 51.627-34.731 63.531-63.488 5.12-12.373 7.125-25.173 8.021-38.699 0.896-12.971 0.896-28.8 0.896-47.787v-2.133c0-18.987 0-34.816-0.853-47.787-0.6-14.067-3.522-27.283-8.392-39.511l0.285 0.813c-12.151-28.858-34.641-51.361-62.719-63.242l-0.769-0.289c-12.373-5.12-25.173-7.125-38.699-8.021-12.971-0.896-28.8-0.896-47.787-0.896h-343.467c-18.987 0-34.816 0-47.787 0.853-14.067 0.6-27.283 3.522-39.511 8.392l0.813-0.285c-28.858 12.151-51.361 34.641-63.242 62.719l-0.289 0.769c-5.12 12.373-7.125 25.173-8.021 38.699-0.896 12.971-0.896 28.8-0.896 47.787v2.133c0 18.987 0 34.816 0.853 47.787 0.939 13.525 2.944 26.325 8.107 38.699 12.151 28.858 34.641 51.361 62.719 63.242l0.769 0.289c12.373 5.12 25.173 7.125 38.699 8.021 12.971 0.896 28.8 0.896 47.787 0.896zM425.6 394.667h172.8c18.987 0 34.816 0 47.787-0.896 13.525-0.896 26.325-2.901 38.699-8.021 28.847-12.169 51.337-34.673 63.199-62.76l0.289-0.77c4.821-12.373 7.552-25.429 8.107-38.699 0.853-12.971 0.853-28.8 0.853-47.787v-2.133c0-18.987 0-34.816-0.896-47.787-0.563-14.056-3.457-27.277-8.305-39.51l0.284 0.812c-12.169-28.847-34.673-51.337-62.76-63.199l-0.77-0.289c-12.373-5.12-25.131-7.168-38.699-8.107-12.971-0.853-28.8-0.853-47.787-0.853h-172.8c-18.987 0-34.816 0-47.787 0.896-14.056 0.563-27.277 3.457-39.51 8.305l0.812-0.284c-28.847 12.169-51.337 34.673-63.199 62.76l-0.289 0.77c-4.569 11.415-7.49 24.629-8.098 38.443l-0.009 0.256c-0.853 12.971-0.853 28.8-0.853 47.787v2.133c0 18.987 0 34.816 0.896 47.787 0.896 13.525 2.901 26.325 8.021 38.699 12.169 28.847 34.673 51.337 62.76 63.199l0.77 0.289c11.416 4.585 24.632 7.507 38.451 8.098l0.248 0.008c12.971 0.853 28.8 0.853 47.787 0.853zM211.499 756.608c-10.283-0.725-15.275-1.963-18.56-3.328-13.099-5.419-23.467-15.787-28.885-28.885-1.365-3.285-2.603-8.277-3.328-18.56-0.725-10.539-0.725-24.192-0.725-44.501s0-33.963 0.725-44.501c0.725-10.283 1.963-15.275 3.328-18.56 5.419-13.099 15.787-23.467 28.885-28.885 3.285-1.365 8.277-2.603 18.56-3.328 10.539-0.725 24.192-0.725 44.501-0.725h341.333c20.309 0 33.963 0 44.501 0.725 10.283 0.725 15.275 1.963 18.56 3.328 13.099 5.419 23.467 15.787 28.885 28.885 1.365 3.285 2.603 8.277 3.328 18.56 0.725 10.539 0.725 24.192 0.725 44.501s0 33.963-0.725 44.501c-0.725 10.283-1.963 15.275-3.328 18.56-5.521 13.129-15.757 23.364-28.535 28.754l-0.35 0.131c-3.285 1.365-8.277 2.603-18.56 3.328-10.225 0.508-22.204 0.797-34.25 0.797-3.605 0-7.203-0.026-10.795-0.077l0.544 0.006h-341.333c-20.309 0-33.963 0-44.501-0.725zM363.605 326.613c-13.099-5.419-23.467-15.787-28.885-28.885-1.365-3.285-2.603-8.277-3.328-18.56-0.725-10.539-0.725-24.192-0.725-44.501-0.213-14.848 0.043-29.696 0.725-44.501 0.725-10.283 1.963-15.275 3.328-18.56 5.419-13.099 15.787-23.467 28.885-28.885 3.285-1.365 8.277-2.603 18.56-3.328 10.539-0.725 24.192-0.725 44.501-0.725h170.667c20.309 0 33.963 0 44.501 0.725 10.283 0.725 15.275 1.963 18.56 3.328 13.099 5.419 23.467 15.787 28.885 28.885 1.365 3.285 2.603 8.277 3.328 18.56 0.725 10.539 0.725 24.192 0.725 44.501s0 33.963-0.725 44.501c-0.725 10.283-1.963 15.275-3.328 18.56-5.521 13.129-15.757 23.364-28.535 28.754l-0.35 0.131c-3.285 1.365-8.277 2.603-18.56 3.328-10.539 0.725-24.192 0.725-44.501 0.725h-170.667c-14.848 0.213-29.696-0.043-44.501-0.725-10.283-0.725-15.275-1.963-18.56-3.328zM896 864c17.673 0 32-14.327 32-32v0-768c0-17.673-14.327-32-32-32s-32 14.327-32 32v0 768c0 17.673 14.327 32 32 32v0z" />
<glyph unicode="&#xe91b;" d="M223.36 70.485c-20.985 8.859-37.349 25.223-45.997 45.647l-0.211 0.561c-6.485 15.659-6.485 35.541-6.485 75.307v341.333c0 39.765 0 59.648 6.485 75.307 8.661 20.907 25.301 37.547 46.208 46.208 15.659 6.485 35.541 6.485 75.307 6.485s59.648 0 75.307-6.485c20.907-8.661 37.547-25.301 46.208-46.208 6.485-15.659 6.485-35.541 6.485-75.307v-341.333c0-39.765 0-59.648-6.485-75.307-8.661-20.907-25.301-37.547-46.208-46.208-15.659-6.485-35.541-6.485-75.307-6.485s-59.648 0-75.307 6.485zM650.027 241.152c-20.985 8.859-37.349 25.223-45.997 45.647l-0.211 0.561c-6.485 15.659-6.485 35.541-6.485 75.307v170.667c0 39.765 0 59.648 6.485 75.307 8.661 20.907 25.301 37.547 46.208 46.208 15.659 6.485 35.541 6.485 75.307 6.485s59.648 0 75.307-6.485c20.907-8.661 37.547-25.301 46.208-46.208 6.485-15.659 6.485-35.541 6.485-75.307v-170.667c0-39.765 0-59.648-6.485-75.307-8.661-20.907-25.301-37.547-46.208-46.208-15.659-6.485-35.541-6.485-75.307-6.485s-59.648 0-75.307 6.485z" />
<glyph unicode="&#xe91c;" d="M138.667 190.933v343.467c0 18.987 0 34.816 0.853 47.787 0.939 13.525 2.944 26.325 8.107 38.699 12.151 28.858 34.641 51.361 62.719 63.242l0.769 0.289c12.373 5.12 25.173 7.125 38.699 8.021 12.971 0.896 28.8 0.896 47.787 0.896h2.133c18.987 0 34.816 0 47.787-0.853 13.525-0.939 26.325-2.944 38.699-8.107 28.757-11.904 51.627-34.731 63.531-63.488 5.12-12.373 7.125-25.173 8.021-38.699 0.896-12.971 0.896-28.8 0.896-47.787v-343.467c0-18.987 0-34.816-0.853-47.787-0.6-14.067-3.522-27.283-8.392-39.511l0.285 0.813c-12.151-28.858-34.641-51.361-62.719-63.242l-0.769-0.289c-12.373-5.12-25.173-7.125-38.699-8.021-12.971-0.896-28.8-0.896-47.787-0.896h-2.133c-18.987 0-34.816 0-47.787 0.853-14.067 0.6-27.283 3.522-39.511 8.392l0.813-0.285c-28.858 12.151-51.361 34.641-63.242 62.719l-0.289 0.769c-5.12 12.373-7.125 25.173-8.021 38.699-0.896 12.971-0.896 28.8-0.896 47.787zM565.333 361.6v172.8c0 18.987 0 34.816 0.896 47.787 0.896 13.525 2.901 26.325 8.021 38.699 12.169 28.847 34.673 51.337 62.76 63.199l0.77 0.289c11.416 4.585 24.632 7.507 38.451 8.098l0.248 0.008c12.971 0.853 28.8 0.853 47.787 0.853h2.133c18.987 0 34.816 0 47.787-0.896 13.525-0.896 26.325-2.901 38.699-8.021 28.847-12.169 51.337-34.673 63.199-62.76l0.289-0.77c4.821-12.373 7.552-25.429 8.107-38.699 0.853-12.971 0.853-28.8 0.853-47.787v-172.8c0-18.987 0-34.816-0.896-47.787-0.563-14.056-3.457-27.277-8.305-39.51l0.284 0.812c-12.169-28.847-34.673-51.337-62.76-63.199l-0.77-0.289c-11.416-4.585-24.632-7.507-38.451-8.098l-0.248-0.008c-12.971-0.853-28.8-0.853-47.787-0.853h-2.133c-18.987 0-34.816 0-47.787 0.896-14.056 0.563-27.277 3.457-39.51 8.305l0.812-0.284c-28.847 12.169-51.337 34.673-63.199 62.76l-0.289 0.77c-4.594 11.416-7.517 24.633-8.099 38.456l-0.008 0.243c-0.853 12.971-0.853 28.8-0.853 47.787zM203.392 147.499c0.725-10.283 1.963-15.275 3.328-18.56 5.419-13.099 15.787-23.467 28.885-28.885 3.285-1.365 8.277-2.603 18.56-3.328 10.539-0.725 24.192-0.725 44.501-0.725s33.963 0 44.501 0.725c10.283 0.725 15.275 1.963 18.56 3.328 13.099 5.419 23.467 15.787 28.885 28.885 1.365 3.285 2.603 8.277 3.328 18.56 0.725 10.539 0.725 24.192 0.725 44.501v341.333c0 20.309 0 33.963-0.725 44.501-0.725 10.283-1.963 15.275-3.328 18.56-5.521 13.129-15.757 23.364-28.535 28.754l-0.35 0.131c-3.285 1.365-8.277 2.603-18.56 3.328-10.225 0.508-22.204 0.797-34.25 0.797-3.605 0-7.203-0.026-10.795-0.077l0.544 0.006c-20.309 0-33.963 0-44.501-0.725-10.283-0.725-15.275-1.963-18.56-3.328-13.099-5.419-23.467-15.787-28.885-28.885-1.365-3.285-2.603-8.277-3.328-18.56-0.725-10.539-0.725-24.192-0.725-44.501v-341.333c0-20.309 0-33.963 0.725-44.501zM633.387 299.605c5.419-13.099 15.787-23.467 28.885-28.885 3.285-1.365 8.277-2.603 18.56-3.328 10.539-0.725 24.192-0.725 44.501-0.725s33.963 0 44.501 0.725c10.283 0.725 15.275 1.963 18.56 3.328 13.099 5.419 23.467 15.787 28.885 28.885 1.365 3.285 2.603 8.277 3.328 18.56 0.725 10.539 0.725 24.192 0.725 44.501v170.667c0 20.309 0 33.963-0.725 44.501-0.725 10.283-1.963 15.275-3.328 18.56-5.521 13.129-15.757 23.364-28.535 28.754l-0.35 0.131c-3.285 1.365-8.277 2.603-18.56 3.328-10.539 0.725-24.192 0.725-44.501 0.725s-33.963 0-44.501-0.725c-10.283-0.725-15.275-1.963-18.56-3.328-13.099-5.419-23.467-15.787-28.885-28.885-1.365-3.285-2.603-8.277-3.328-18.56-0.725-10.539-0.725-24.192-0.725-44.501v-170.667c-0.213-14.848 0.043-29.696 0.725-44.501 0.725-10.283 1.963-15.275 3.328-18.56zM96 832c0 17.673 14.327 32 32 32v0h768c17.673 0 32-14.327 32-32s-14.327-32-32-32v0h-768c-17.673 0-32 14.327-32 32v0z" />
<glyph unicode="&#xe91d;" d="M640 746.667c0-70.692-57.308-128-128-128s-128 57.308-128 128v0c0 70.692 57.308 128 128 128s128-57.308 128-128v0z" />
<glyph unicode="&#xe91e;" d="M672 746.667c-0.001-77.046-54.444-141.375-126.957-156.617l-1.043-0.183v-534.912c145.558 15.614 260.097 130.154 275.593 274.348l0.119 1.364h-94.379c-17.673 0-32 14.327-32 32s14.327 32 32 32v0h128c17.673 0 32-14.327 32-32v0c0-206.186-167.147-373.333-373.333-373.333s-373.333 167.147-373.333 373.333v0c0 17.673 14.327 32 32 32v0h128c17.673 0 32-14.327 32-32s-14.327-32-32-32v0h-94.379c15.614-145.558 130.154-260.097 274.348-275.593l1.364-0.119v534.912c-73.449 15.511-127.782 79.789-127.782 156.758 0 88.298 71.505 159.894 159.768 160.042h0.014c88.366 0 160-71.634 160-160v0zM512 842.667c-53.019 0-96-42.981-96-96s42.981-96 96-96v0c53.019 0 96 42.981 96 96s-42.981 96-96 96v0z" />
<glyph unicode="&#xe91f;" d="M512 64c-212.077 0-384 171.923-384 384v0c0 212.077 171.923 384 384 384v0c212.077 0 384-171.923 384-384v0c0-212.077-171.923-384-384-384v0zM715.691 503.253l-41.728 80.043c-20.961 39.608-61.076 66.607-107.673 68.684l-0.273 0.010-90.24 3.925c-1.64 0.075-3.562 0.118-5.494 0.118-45.194 0-84.918-23.422-107.694-58.791l-0.305-0.506-48.469-76.117c-12.563-19.463-20.030-43.24-20.030-68.761 0-21.62 5.358-41.988 14.819-59.849l-0.336 0.695 41.771-80.043c20.961-39.608 61.076-66.607 107.673-68.684l0.273-0.010 90.197-3.925c1.64-0.075 3.562-0.118 5.494-0.118 45.194 0 84.918 23.422 107.694 58.791l0.305 0.506 48.512 76.16c12.537 19.452 19.987 43.21 19.987 68.707 0 21.623-5.358 41.995-14.82 59.86l0.336-0.696z" />
<glyph unicode="&#xe920;" d="M513.28 864c229.163-0.725 414.72-186.709 414.72-416 0-229.75-186.25-416-416-416v0c-229.75 0-416 186.25-416 416v0c0 229.291 185.557 415.275 414.72 416zM645.12 569.429c-15.859 29.227-45.7 49.094-80.307 50.638l-0.205 0.007-90.197 3.84c-1.232 0.057-2.676 0.089-4.127 0.089-33.891 0-63.681-17.562-80.764-44.083l-0.229-0.379-48.469-76.075c-9.422-14.586-15.022-32.407-15.022-51.537 0-16.221 4.027-31.502 11.135-44.897l-0.252 0.52 41.728-80.085c15.532-29.335 45.057-49.438 79.442-51.444l0.26-0.012 92.757-4.011c0.839-0.026 1.826-0.041 2.816-0.041 33.324 0 62.684 16.972 79.908 42.743l0.22 0.349 50.219 78.933c8.883 14.277 14.149 31.605 14.149 50.164 0 15.852-3.842 30.807-10.646 43.984l0.252-0.537-42.667 81.877zM458.667 688.64h0.043l322.517-13.909c-61.3 72.577-150.651 119.795-251.117 124.81l-0.829 0.033zM825.173 608.768l-131.413 5.675 7.979-15.232 0.597-1.152 41.728-80.043 0.597-1.195 98.389-188.757c13.27 35.552 20.95 76.631 20.95 119.503 0 0.137 0 0.274 0 0.411v-0.021c0 0.157 0 0.342 0 0.528 0 58.548-14.359 113.743-39.747 162.255l0.92-1.93zM198.827 287.147l131.371-5.675-149.291 286.379c-13.243-35.516-20.907-76.552-20.907-119.378 0-0.181 0-0.362 0-0.543v0.028c0-0.156 0-0.342 0-0.527 0-58.534 14.359-113.715 39.746-162.212l-0.919 1.928zM807.851 257.152l-60.8 116.608-8.747-13.781-1.152-1.835-163.413-256.811c98.741 18.084 181.536 75.218 233.284 154.467l0.828 1.352zM494.677 96.384l70.571 110.848-108.587 4.651c-0.555 0.085-1.109 0.085-1.707 0.128l-212.181 9.173c61.303-72.543 150.633-119.74 251.073-124.767l0.831-0.033zM216.149 638.763l60.757-116.565 173.312 272.384c-98.728-18.085-181.509-75.219-233.241-154.466l-0.828-1.352z" />
<glyph unicode="&#xe921;" d="M618.667 64c129.621 0 234.667 124.16 234.667 277.333s-105.045 277.333-234.667 277.333c-38.4 0-74.667-10.923-106.667-30.251-30.36 18.896-67.189 30.14-106.636 30.251h-0.030c-129.579 0-234.667-124.16-234.667-277.333s105.088-277.333 234.667-277.333c38.4 0 74.667 10.923 106.667 30.251 32-19.328 68.267-30.251 106.667-30.251z" />
<glyph unicode="&#xe922;" d="M405.376 650.667c38.937-0.039 75.649-9.53 107.975-26.303l-1.308 0.618c31.016 16.164 67.73 25.657 106.658 25.685h0.009c152.064 0 266.667-143.701 266.667-309.333s-114.603-309.333-266.667-309.333c-38.937 0.039-75.649 9.53-107.975 26.303l1.308-0.618c-31.019-16.149-67.729-25.64-106.652-25.685h-0.014c-152.107 0-266.667 143.701-266.667 309.333s114.56 309.333 266.667 309.333zM202.667 341.333h-0.043c0-140.715 95.573-245.333 202.667-245.333 32.213 0 62.805 9.088 90.112 25.6 4.722 2.894 10.438 4.608 16.555 4.608s11.833-1.714 16.695-4.688l-0.14 0.080c27.093-16.64 58.283-25.515 90.112-25.6 107.136 0 202.667 104.619 202.667 245.333s-95.531 245.333-202.667 245.333c-32.213 0-62.805-9.131-90.112-25.6-4.722-2.894-10.438-4.608-16.555-4.608s-11.833 1.714-16.695 4.688l0.14-0.080c-25.636 15.961-56.729 25.472-90.034 25.6h-0.035c-107.179 0-202.667-104.619-202.667-245.333zM721.109 846.080c14.818-2.994 25.819-15.911 25.819-31.397 0-0.617-0.017-1.23-0.052-1.839l0.004 0.084-0.427-7.979c-1.024-19.072-1.963-36.096-4.907-53.035-3.541-20.139-9.813-39.595-21.163-64.427-5.259-10.896-16.222-18.28-28.91-18.28-17.673 0-32 14.327-32 32 0 4.703 1.014 9.169 2.836 13.191l-0.082-0.201c9.6 20.992 13.867 35.115 16.256 48.768 1.28 7.509 2.176 15.104 2.688 22.699-30.686-0.911-59.107-9.837-83.473-24.742l0.743 0.422c-34.56-20.565-59.947-51.413-68.352-86.187-3.304-14.376-15.99-24.935-31.142-24.935-8.628 0-16.456 3.423-22.2 8.986l0.009-0.008c-6.083 5.828-9.863 14.017-9.863 23.089 0 2.802 0.361 5.52 1.038 8.109l-0.049-0.222c13.227 55.040 51.84 98.816 97.877 126.165 45.952 27.307 102.485 40.149 155.349 29.781z" />
<glyph unicode="&#xe923;" d="M265.472 779.861h73.728c23.562 0.005 44.892 9.559 60.33 25.002l52.139 52.139c15.441 15.437 36.771 24.984 60.331 24.984s44.889-9.548 60.331-24.985l52.138-52.138c15.439-15.443 36.769-24.997 60.33-25.003h73.772c47.128 0 85.333-38.205 85.333-85.333v0-73.728c0-0.007 0-0.016 0-0.024 0-23.547 9.538-44.867 24.961-60.307l52.138-52.138c15.437-15.441 24.984-36.771 24.984-60.331s-9.548-44.889-24.985-60.331l-52.138-52.138c-15.422-15.439-24.96-36.759-24.96-60.306 0-0.009 0-0.017 0-0.026v0.001-73.728c0-47.128-38.205-85.333-85.333-85.333v0h-73.771c-23.562-0.005-44.892-9.559-60.33-25.002l-52.139-52.139c-15.441-15.437-36.771-24.984-60.331-24.984s-44.889 9.548-60.331 24.985l-52.138 52.138c-15.439 15.443-36.769 24.997-60.33 25.003h-73.729c-47.128 0-85.333 38.205-85.333 85.333v0 73.685c0 0.007 0 0.016 0 0.024 0 23.547-9.538 44.867-24.961 60.307l-52.18 52.18c-15.437 15.441-24.984 36.771-24.984 60.331s9.548 44.889 24.985 60.331l52.138 52.138c15.443 15.439 24.997 36.769 25.003 60.33v73.729c0 47.128 38.205 85.333 85.333 85.333v0z" />
<glyph unicode="&#xe924;" d="M594.987 879.573l52.096-52.096c9.984-9.984 23.552-15.616 37.717-15.616h73.771c64.801 0 117.333-52.532 117.333-117.333v0-73.728c0-14.165 5.589-27.733 15.616-37.76l52.096-52.053c21.245-21.235 34.386-50.576 34.386-82.987s-13.141-61.752-34.385-82.986l-52.096-52.096c-9.647-9.625-15.616-22.934-15.616-37.637 0-0.028 0-0.057 0-0.085v0.004-73.728c0-64.801-52.532-117.333-117.333-117.333v0h-73.771c-14.713-0.009-28.031-5.975-37.675-15.616l-52.139-52.139c-21.233-21.232-50.566-34.364-82.965-34.364s-61.732 13.132-82.965 34.364l-52.139 52.096c-9.645 9.67-22.982 15.654-37.717 15.659h-73.686c-64.801 0-117.333 52.532-117.333 117.333v0 73.685c-0.009 14.734-5.992 28.070-15.658 37.716l-52.14 52.14c-21.232 21.233-34.364 50.566-34.364 82.965s13.132 61.732 34.364 82.965l52.139 52.139c10.027 9.984 15.616 23.595 15.616 37.717v73.728c0 64.801 52.532 117.333 117.333 117.333v0h73.728c14.165 0 27.733 5.632 37.717 15.659l52.096 52.053c21.235 21.245 50.576 34.386 82.987 34.386 32.389 0 61.713-13.124 82.945-34.343l-0.001 0.001zM474.283 834.347l-52.139-52.139c-21.235-21.213-50.556-34.336-82.942-34.347h-73.73c-29.44 0-53.333-23.893-53.333-53.333v-73.728c0-31.104-12.373-60.928-34.347-82.944l-52.139-52.139c-9.654-9.652-15.626-22.987-15.626-37.717s5.972-28.065 15.626-37.717v0l52.139-52.181c21.973-21.973 34.347-51.797 34.347-82.944v-73.685c0-29.44 23.893-53.333 53.333-53.333h73.728c31.147 0 60.971-12.373 82.987-34.389l52.096-52.139c9.652-9.654 22.987-15.626 37.717-15.626s28.065 5.972 37.717 15.626l52.139 52.139c21.225 21.236 50.549 34.376 82.942 34.389h73.773c29.44 0 53.333 23.893 53.333 53.333v73.728c0 31.104 12.331 60.971 34.347 82.987l52.139 52.096c9.654 9.652 15.626 22.987 15.626 37.717s-5.972 28.065-15.626 37.717l-52.139 52.096c-21.219 21.247-34.343 50.584-34.347 82.986v73.729c0 29.44-23.893 53.333-53.333 53.333h-73.771c-32.395 0.013-61.719 13.153-82.944 34.389v0l-52.139 52.096c-9.652 9.654-22.987 15.626-37.717 15.626s-28.065-5.972-37.717-15.626v0zM608 576c0 17.673 14.327 32 32 32s32-14.327 32-32v0-9.899c0-34.688 0-62.677-1.835-85.333-1.92-23.296-5.973-43.776-15.616-62.72-15.624-30.258-39.654-54.315-68.999-69.553l-0.889-0.42c-18.987-9.643-39.467-13.653-62.763-15.573-22.656-1.835-50.645-1.835-85.333-1.835h-18.005l30.72-30.72c5.321-5.705 8.587-13.386 8.587-21.831 0-8.834-3.575-16.832-9.356-22.629l0.001 0.001c-5.796-5.781-13.794-9.355-22.628-9.355-8.444 0-16.126 3.267-21.85 8.605l0.019-0.017-85.333 85.333c-5.782 5.789-9.359 13.784-9.359 22.613s3.576 16.824 9.359 22.614v0l85.333 85.333c5.853 6.29 14.177 10.212 23.418 10.212 14.866 0 27.361-10.151 30.933-23.899l0.049-0.222c0.636-2.381 1.001-5.115 1.001-7.934 0-9.223-3.907-17.533-10.155-23.366l-0.019-0.017-30.72-30.72h16.64c36.395 0 61.739 0 81.493 1.621 19.328 1.579 30.464 4.523 38.912 8.832 18.048 9.216 32.725 23.893 41.941 41.941 4.267 8.448 7.253 19.584 8.832 38.912 1.579 19.755 1.621 45.099 1.621 81.493z" />
<glyph unicode="&#xe925;" d="M938.667 448c0-235.641-191.025-426.667-426.667-426.667s-426.667 191.025-426.667 426.667v0c0 235.641 191.025 426.667 426.667 426.667s426.667-191.025 426.667-426.667v0z" />
<glyph unicode="&#xe926;" d="M512 906.667c253.312 0 458.667-205.355 458.667-458.667s-205.355-458.667-458.667-458.667-458.667 205.355-458.667 458.667 205.355 458.667 458.667 458.667zM117.333 448c0-217.968 176.698-394.667 394.667-394.667v0c217.968 0 394.667 176.698 394.667 394.667v0c0 217.968-176.698 394.667-394.667 394.667v0c-217.968 0-394.667-176.698-394.667-394.667v0zM608 576c0 17.673 14.327 32 32 32s32-14.327 32-32v0-9.899c0-34.688 0-62.677-1.835-85.333-1.92-23.296-5.973-43.776-15.616-62.72-15.624-30.258-39.654-54.315-68.999-69.553l-0.889-0.42c-18.987-9.643-39.467-13.653-62.763-15.573-22.656-1.835-50.645-1.835-85.333-1.835h-18.005l30.72-30.72c6.29-5.853 10.212-14.177 10.212-23.418 0-14.866-10.151-27.361-23.899-30.933l-0.222-0.049c-2.381-0.636-5.115-1.001-7.934-1.001-9.223 0-17.533 3.907-23.366 10.155l-0.017 0.019-85.333 85.333c-5.782 5.789-9.359 13.784-9.359 22.613s3.576 16.824 9.359 22.614v0l85.333 85.333c5.853 6.29 14.177 10.212 23.418 10.212 14.866 0 27.361-10.151 30.933-23.899l0.049-0.222c0.636-2.381 1.001-5.115 1.001-7.934 0-9.223-3.907-17.533-10.155-23.366l-0.019-0.017-30.72-30.72h16.64c36.395 0 61.739 0 81.493 1.621 19.328 1.579 30.464 4.565 38.912 8.832 18.048 9.216 32.725 23.893 41.941 41.984 4.267 8.405 7.253 19.541 8.832 38.912 1.579 19.712 1.621 45.056 1.621 81.451z" />
<glyph unicode="&#xe927;" glyph-name="arrow-bend-down-left-duotone" d="M853.333 864c17.673 0 32-14.327 32-32v0-197.675c0-46.592 0-83.541-2.432-113.28-2.475-30.464-7.68-56.235-19.669-79.701-19.789-38.326-50.231-68.795-87.406-88.087l-1.127-0.532c-23.552-11.947-49.28-17.152-79.744-19.627-29.739-2.432-66.688-2.432-113.28-2.432h-333.781l158.72-158.72c5.321-5.705 8.587-13.386 8.587-21.831 0-8.834-3.575-16.832-9.356-22.629l0.001 0.001c-5.796-5.781-13.794-9.355-22.628-9.355-8.444 0-16.126 3.267-21.85 8.605l0.019-0.017-213.333 213.333c-5.782 5.789-9.359 13.784-9.359 22.613s3.576 16.824 9.359 22.614v0l213.333 213.333c5.705 5.321 13.386 8.587 21.831 8.587 8.834 0 16.832-3.575 22.629-9.356l-0.001 0.001c5.781-5.796 9.355-13.794 9.355-22.628 0-8.444-3.267-16.126-8.605-21.85l0.017 0.019-158.72-158.72h332.373c48.299 0 82.603 0.043 109.483 2.219 26.453 2.176 42.88 6.272 55.893 12.885 26.192 13.569 47.018 34.395 60.222 59.815l0.365 0.772c6.613 13.013 10.752 29.44 12.885 55.893 2.219 26.837 2.219 61.184 2.219 109.483v196.267c0 17.673 14.327 32 32 32v0z" />
<glyph unicode="&#xe928;" d="M626.133 64h-228.267c-20.864 0-31.275 0-41.088 2.347-8.747 2.133-17.067 5.547-24.704 10.24-8.576 5.248-15.957 12.629-30.72 27.392l-133.376 133.376c-14.763 14.763-22.144 22.144-27.392 30.72-4.428 7.094-7.948 15.318-10.117 24.075l-0.123 0.587c-2.347 9.813-2.347 20.267-2.347 41.131v228.267c0 20.864 0 31.275 2.347 41.088 2.286 9.359 5.807 17.598 10.45 25.067l-0.21-0.363c5.248 8.576 12.629 15.957 27.392 30.72l133.376 133.376c14.763 14.763 22.144 22.144 30.72 27.392 7.106 4.433 15.345 7.954 24.118 10.118l0.586 0.122c9.813 2.347 20.224 2.347 41.088 2.347h228.267c20.864 0 31.275 0 41.088-2.347 8.704-2.133 17.067-5.547 24.704-10.24 8.576-5.248 15.957-12.629 30.72-27.392l133.376-133.376c14.763-14.763 22.144-22.144 27.392-30.72 4.693-7.68 8.107-15.957 10.24-24.704 2.347-9.813 2.347-20.224 2.347-41.088v-228.267c0-20.864 0-31.275-2.347-41.088-2.133-8.704-5.547-17.067-10.24-24.704-5.248-8.576-12.629-15.957-27.392-30.72l-133.376-133.376c-14.763-14.763-22.144-22.144-30.72-27.392-7.68-4.693-15.957-8.107-24.661-10.24-9.813-2.347-20.267-2.347-41.131-2.347z" />
<glyph unicode="&#xe929;" d="M397.867 864h231.339c17.877 0 31.915 0 45.525-3.243 11.947-2.901 23.381-7.637 33.877-14.080 11.947-7.253 21.888-17.237 34.475-29.867l2.219-2.176 135.509-135.552c12.672-12.629 22.613-22.528 29.867-34.475 6.443-10.496 11.179-21.931 14.080-33.92 3.243-13.568 3.243-27.605 3.243-45.483v-234.411c0-17.877 0-31.915-3.243-45.525-3.103-12.834-7.948-24.136-14.36-34.356l0.28 0.478c-7.253-11.947-17.195-21.888-29.867-34.475l-2.176-2.219-135.552-135.509c-12.587-12.672-22.528-22.613-34.475-29.867-9.741-6.132-21.043-10.977-33.092-13.918l-0.785-0.162c-13.611-3.243-27.648-3.243-45.525-3.243h-234.411c-17.877 0-31.915 0-45.483 3.243-12.85 3.112-24.166 7.956-34.404 14.362l0.484-0.282c-11.947 7.253-21.845 17.195-34.475 29.867l-2.219 2.176-135.509 135.552c-12.629 12.587-22.613 22.528-29.867 34.475-6.096 9.744-10.937 21.042-13.912 33.075l-0.168 0.802c-3.243 13.611-3.243 27.648-3.243 45.525v234.411c0 17.877 0 31.915 3.243 45.483 2.901 11.989 7.637 23.424 14.080 33.92 7.253 11.947 17.237 21.845 29.867 34.475l2.176 2.219 135.552 135.509c12.629 12.629 22.528 22.613 34.475 29.867 10.496 6.443 21.931 11.179 33.92 14.080 13.568 3.243 27.605 3.243 45.483 3.243h3.072zM364.203 798.507l0.043 0.043c-5.851-1.428-11.002-3.629-15.672-6.531l0.227 0.131c-4.608-2.859-9.003-6.912-24.832-22.784l-133.333-133.333c-15.872-15.872-19.925-20.224-22.741-24.832-2.987-4.779-5.12-9.984-6.4-15.445-1.28-5.248-1.493-11.264-1.493-33.621v-228.267c0-22.4 0.171-28.373 1.451-33.621 1.323-5.461 3.456-10.667 6.4-15.445 2.859-4.608 6.912-9.003 22.784-24.832l133.333-133.333c15.872-15.872 20.224-19.925 24.832-22.741 4.779-2.944 9.984-5.077 15.445-6.4 5.248-1.28 11.264-1.493 33.621-1.493h228.267c22.4 0 28.373 0.171 33.621 1.451 5.851 1.428 11.002 3.629 15.672 6.531l-0.227-0.131c4.608 2.859 9.003 6.912 24.832 22.784l133.333 133.333c15.872 15.872 19.925 20.224 22.741 24.832 2.771 4.443 4.972 9.594 6.324 15.079l0.076 0.366c1.28 5.248 1.493 11.264 1.493 33.621v228.224c0 22.4-0.171 28.416-1.451 33.664-1.449 5.852-3.648 11.001-6.535 15.68l0.135-0.235c-2.859 4.608-6.912 9.003-22.784 24.832l-133.333 133.333c-15.872 15.872-20.224 19.925-24.832 22.741-4.439 2.811-9.596 5.016-15.098 6.33l-0.347 0.070c-5.248 1.28-11.264 1.493-33.621 1.493h-228.224c-22.4 0-28.416-0.213-33.707-1.493zM608 576c0 17.673 14.327 32 32 32s32-14.327 32-32v0-9.899c0-34.688 0-62.677-1.835-85.333-1.92-23.296-5.973-43.776-15.616-62.72-15.624-30.258-39.654-54.315-68.999-69.553l-0.889-0.42c-18.987-9.643-39.467-13.653-62.763-15.573-22.656-1.835-50.645-1.835-85.333-1.835h-18.005l30.72-30.72c5.321-5.705 8.587-13.386 8.587-21.831 0-8.834-3.575-16.832-9.356-22.629l0.001 0.001c-5.796-5.781-13.794-9.355-22.628-9.355-8.444 0-16.126 3.267-21.85 8.605l0.019-0.017-85.333 85.333c-5.782 5.789-9.359 13.784-9.359 22.613s3.576 16.824 9.359 22.614v0l85.333 85.333c5.853 6.29 14.177 10.212 23.418 10.212 14.866 0 27.361-10.151 30.933-23.899l0.049-0.222c0.636-2.381 1.001-5.115 1.001-7.934 0-9.223-3.907-17.533-10.155-23.366l-0.019-0.017-30.72-30.72h16.64c36.395 0 61.739 0 81.493 1.621 19.328 1.579 30.464 4.565 38.912 8.832 18.048 9.216 32.725 23.893 41.941 41.984 4.267 8.405 7.253 19.541 8.832 38.912 1.579 19.712 1.621 45.056 1.621 81.451z" />
<glyph unicode="&#xe92a;" d="M128 558.933c0 95.573 0 143.36 18.603 179.883 16.678 32.26 42.321 57.903 73.631 74.133l0.95 0.448c36.523 18.603 84.309 18.603 179.883 18.603h221.867c95.573 0 143.36 0 179.883-18.603 32.26-16.678 57.903-42.321 74.133-73.631l0.448-0.95c18.603-36.523 18.603-84.309 18.603-179.883v-221.867c0-95.573 0-143.36-18.603-179.883-16.678-32.26-42.321-57.903-73.631-74.133l-0.95-0.448c-36.523-18.603-84.309-18.603-179.883-18.603h-221.867c-95.573 0-143.36 0-179.883 18.603-32.26 16.678-57.903 42.321-74.133 73.631l-0.448 0.95c-18.603 36.523-18.603 84.309-18.603 179.883v221.867z" />
<glyph unicode="&#xe92b;" d="M399.659 864h224.683c46.592 0 83.541 0 113.28-2.432 30.464-2.475 56.192-7.68 79.744-19.669 38.324-19.791 68.785-50.252 88.045-87.448l0.531-1.128c11.947-23.509 17.152-49.237 19.627-79.701 2.432-29.739 2.432-66.688 2.432-113.28v-224.683c0-46.592 0-83.541-2.432-113.28-2.475-30.464-7.68-56.192-19.669-79.744-19.8-38.306-50.24-68.759-87.406-88.044l-1.127-0.532c-23.552-11.947-49.28-17.152-79.744-19.627-29.739-2.432-66.688-2.432-113.28-2.432h-224.683c-46.592 0-83.541 0-113.28 2.432-30.464 2.475-56.235 7.68-79.701 19.669-38.326 19.789-68.795 50.231-88.087 87.406l-0.532 1.127c-11.947 23.552-17.152 49.28-19.627 79.744-2.432 29.739-2.432 66.688-2.432 113.28v224.683c0 46.592 0 83.541 2.432 113.28 2.475 30.464 7.68 56.235 19.669 79.701 19.804 38.328 50.26 68.797 87.448 88.086l1.128 0.532c23.509 11.947 49.237 17.152 79.701 19.627 29.739 2.432 66.688 2.432 113.28 2.432zM235.733 784.896h-0.043c-26.192-13.569-47.018-34.395-60.222-59.815l-0.365-0.772c-6.613-13.013-10.752-29.44-12.885-55.893-2.219-26.837-2.219-61.184-2.219-109.483v-221.867c0-48.299 0.043-82.603 2.219-109.483 2.176-26.453 6.272-42.88 12.885-55.893 13.569-26.192 34.395-47.018 59.815-60.222l0.772-0.365c13.013-6.613 29.44-10.752 55.893-12.885 26.837-2.219 61.184-2.219 109.483-2.219h221.867c48.299 0 82.603 0.043 109.483 2.219 26.453 2.176 42.88 6.272 55.893 12.885 26.192 13.569 47.018 34.395 60.222 59.815l0.365 0.772c6.613 13.013 10.752 29.44 12.885 55.893 2.219 26.837 2.219 61.141 2.219 109.483v221.867c0 48.299-0.043 82.603-2.219 109.483-2.176 26.453-6.272 42.88-12.885 55.893-13.569 26.192-34.395 47.018-59.815 60.222l-0.772 0.365c-13.013 6.613-29.44 10.752-55.893 12.885-26.837 2.219-61.141 2.219-109.483 2.219h-221.867c-48.299 0-82.603-0.043-109.483-2.219-26.496-2.176-42.88-6.272-55.851-12.885zM608 576c0 17.673 14.327 32 32 32s32-14.327 32-32v0-9.899c0-34.688 0-62.677-1.835-85.333-1.92-23.296-5.973-43.776-15.616-62.72-15.624-30.258-39.654-54.315-68.999-69.553l-0.889-0.42c-18.987-9.643-39.467-13.653-62.763-15.573-22.656-1.835-50.645-1.835-85.333-1.835h-18.005l30.72-30.72c6.29-5.853 10.212-14.177 10.212-23.418 0-14.866-10.151-27.361-23.899-30.933l-0.222-0.049c-2.381-0.636-5.115-1.001-7.934-1.001-9.223 0-17.533 3.907-23.366 10.155l-0.017 0.019-85.333 85.333c-5.782 5.789-9.359 13.784-9.359 22.613s3.576 16.824 9.359 22.614v0l85.333 85.333c5.853 6.29 14.177 10.212 23.418 10.212 14.866 0 27.361-10.151 30.933-23.899l0.049-0.222c0.636-2.381 1.001-5.115 1.001-7.934 0-9.223-3.907-17.533-10.155-23.366l-0.019-0.017-30.72-30.72h16.64c36.395 0 61.739 0 81.493 1.621 19.328 1.579 30.464 4.565 38.912 8.832 18.048 9.216 32.725 23.893 41.941 41.984 4.267 8.405 7.253 19.541 8.832 38.912 1.579 19.712 1.621 45.056 1.621 81.451z" />
<glyph unicode="&#xe92c;" glyph-name="arrow-bend-down-left-small-duotone" d="M725.333 693.333c17.673 0 32-14.327 32-32v0-27.008c0-46.592 0-83.541-2.432-113.28-2.475-30.464-7.68-56.235-19.669-79.701-19.804-38.328-50.26-68.797-87.448-88.086l-1.128-0.532c-23.509-11.947-49.237-17.152-79.701-19.627-29.739-2.432-66.688-2.432-113.28-2.432h-77.781l73.387-73.387c6.29-5.853 10.212-14.177 10.212-23.418 0-14.866-10.151-27.361-23.899-30.933l-0.222-0.049c-2.381-0.636-5.115-1.001-7.934-1.001-9.223 0-17.533 3.907-23.366 10.155l-0.017 0.019-128 128c-5.782 5.789-9.359 13.784-9.359 22.613s3.576 16.824 9.359 22.614v0l128 128c5.853 6.29 14.177 10.212 23.418 10.212 14.866 0 27.361-10.151 30.933-23.899l0.049-0.222c0.636-2.381 1.001-5.115 1.001-7.934 0-9.223-3.907-17.533-10.155-23.366l-0.019-0.017-73.387-73.387h76.373c48.299 0 82.603 0.043 109.483 2.219 26.453 2.176 42.88 6.272 55.893 12.885 26.192 13.569 47.018 34.395 60.222 59.815l0.365 0.772c6.613 13.013 10.752 29.44 12.885 55.893 2.219 26.837 2.219 61.184 2.219 109.483v25.6c0 17.673 14.327 32 32 32v0z" />
<glyph unicode="&#xe92d;" d="M744.533 106.667h-465.067c-77.653 0-116.523 0-138.965 16.299-19.070 13.982-32.025 35.337-34.655 59.784l-0.033 0.376c-2.901 27.605 16.555 61.227 55.467 128.469l232.533 401.664c38.827 66.987 58.197 100.48 83.499 111.744 10.202 4.655 22.128 7.368 34.688 7.368s24.486-2.713 35.224-7.586l-0.536 0.218c25.301-11.264 44.672-44.8 83.456-111.787l232.533-401.621c38.912-67.243 58.411-100.864 55.509-128.427-2.663-24.823-15.618-46.178-34.45-59.993l-0.238-0.167c-22.443-16.341-61.269-16.341-138.965-16.341z" />
<glyph unicode="&#xe92e;" d="M559.659 854.229c20.693-9.216 36.011-26.197 49.835-45.696 13.696-19.413 28.843-45.525 47.531-77.867l0.811-1.408 233.387-403.029c18.773-32.427 33.963-58.667 43.947-80.256 10.069-21.76 17.195-43.563 14.848-66.133-3.66-34.137-21.475-63.504-47.373-82.501l-0.328-0.23c-18.347-13.355-40.747-18.091-64.64-20.267-23.68-2.176-54.059-2.176-91.52-2.176h-468.309c-37.461 0-67.797 0-91.52 2.176-23.851 2.176-46.293 6.912-64.64 20.267-26.237 19.207-44.066 48.56-47.698 82.169l-0.046 0.519c-2.304 22.613 4.821 44.373 14.933 66.133 9.941 21.632 25.173 47.872 43.947 80.299l0.768 1.408 233.387 403.029c18.688 32.299 33.835 58.496 47.573 77.867 13.781 19.499 29.099 36.48 49.792 45.696 14.018 6.39 30.403 10.115 47.659 10.115s33.641-3.725 48.396-10.414l-0.737 0.299zM490.325 795.776v-0.085c-4.608-2.005-11.648-7.381-23.552-24.192-11.819-16.725-25.515-40.277-45.227-74.325l-232.533-401.579c-19.797-34.176-33.493-57.899-42.112-76.501-8.661-18.773-9.813-27.605-9.259-32.64 1.579-15.019 9.429-28.715 21.675-37.589 4.053-2.987 12.288-6.4 32.853-8.277 20.437-1.92 47.829-1.92 87.296-1.92h465.067c39.509 0 66.859 0.043 87.296 1.92 20.565 1.877 28.8 5.291 32.853 8.277 12.245 8.875 20.096 22.571 21.675 37.589 0.512 5.035-0.597 13.867-9.301 32.64-8.576 18.603-22.272 42.325-42.069 76.501l-232.533 401.621c-19.712 34.048-33.408 57.643-45.227 74.325-11.904 16.811-18.944 22.144-23.552 24.235-6.375 2.91-13.826 4.607-21.675 4.607s-15.3-1.697-22.009-4.743l0.334 0.136zM565.333 490.667c0 17.673 14.327 32 32 32s32-14.327 32-32v0-35.413c0-22.827 0-41.813-1.28-57.387-1.28-16.213-4.181-31.403-11.52-45.781-11.461-22.175-29.079-39.807-50.59-50.977l-0.653-0.308c-14.421-7.339-29.611-10.24-45.824-11.52-15.573-1.28-34.56-1.28-57.387-1.28h-43.52l30.72-30.72c6.29-5.853 10.212-14.177 10.212-23.418 0-14.866-10.151-27.361-23.899-30.933l-0.222-0.049c-2.381-0.636-5.115-1.001-7.934-1.001-9.223 0-17.533 3.907-23.366 10.155l-0.017 0.019-85.333 85.333c-5.782 5.789-9.359 13.784-9.359 22.613s3.576 16.824 9.359 22.614v0l85.333 85.333c5.853 6.29 14.177 10.212 23.418 10.212 14.866 0 27.361-10.151 30.933-23.899l0.049-0.222c0.636-2.381 1.001-5.115 1.001-7.934 0-9.223-3.907-17.533-10.155-23.366l-0.019-0.017-30.72-30.72h42.24c24.405 0 40.832 0 53.419 1.067 12.288 0.981 18.133 2.773 22.016 4.736 10.027 5.12 18.176 13.269 23.296 23.296 1.963 3.883 3.755 9.728 4.736 21.973 1.024 12.629 1.067 29.013 1.067 53.461z" />
<glyph unicode="&#xe92f;" d="M265.472 779.861h73.728c23.562 0.005 44.892 9.559 60.33 25.002l52.139 52.139c15.441 15.437 36.771 24.984 60.331 24.984s44.889-9.548 60.331-24.985l52.138-52.138c15.439-15.443 36.769-24.997 60.33-25.003h73.772c47.128 0 85.333-38.205 85.333-85.333v0-73.728c0-0.007 0-0.016 0-0.024 0-23.547 9.538-44.867 24.961-60.307l52.138-52.138c15.437-15.441 24.984-36.771 24.984-60.331s-9.548-44.889-24.985-60.331l-52.138-52.138c-15.422-15.439-24.96-36.759-24.96-60.306 0-0.009 0-0.017 0-0.026v0.001-73.728c0-47.128-38.205-85.333-85.333-85.333v0h-73.771c-23.562-0.005-44.892-9.559-60.33-25.002l-52.139-52.139c-15.441-15.437-36.771-24.984-60.331-24.984s-44.889 9.548-60.331 24.985l-52.138 52.138c-15.439 15.443-36.769 24.997-60.33 25.003h-73.729c-47.128 0-85.333 38.205-85.333 85.333v0 73.685c0 0.007 0 0.016 0 0.024 0 23.547-9.538 44.867-24.961 60.307l-52.18 52.18c-15.437 15.441-24.984 36.771-24.984 60.331s9.548 44.889 24.985 60.331l52.138 52.138c15.443 15.439 24.997 36.769 25.003 60.33v73.729c0 47.128 38.205 85.333 85.333 85.333v0z" />
<glyph unicode="&#xe930;" d="M594.987 879.573l52.096-52.096c9.984-9.984 23.552-15.616 37.717-15.616h73.771c64.801 0 117.333-52.532 117.333-117.333v0-73.728c0-14.165 5.589-27.733 15.616-37.76l52.096-52.053c21.245-21.235 34.386-50.576 34.386-82.987s-13.141-61.752-34.385-82.986l-52.096-52.096c-9.647-9.625-15.616-22.934-15.616-37.637 0-0.028 0-0.057 0-0.085v0.004-73.728c0-64.801-52.532-117.333-117.333-117.333v0h-73.771c-14.713-0.009-28.031-5.975-37.675-15.616l-52.139-52.139c-21.233-21.232-50.566-34.364-82.965-34.364s-61.732 13.132-82.965 34.364l-52.139 52.096c-9.645 9.67-22.982 15.654-37.717 15.659h-73.686c-64.801 0-117.333 52.532-117.333 117.333v0 73.685c-0.009 14.734-5.992 28.070-15.658 37.716l-52.14 52.14c-21.232 21.233-34.364 50.566-34.364 82.965s13.132 61.732 34.364 82.965l52.139 52.139c10.027 9.984 15.616 23.595 15.616 37.717v73.728c0 64.801 52.532 117.333 117.333 117.333v0h73.728c14.165 0 27.733 5.632 37.717 15.659l52.096 52.053c21.235 21.245 50.576 34.386 82.987 34.386 32.389 0 61.713-13.124 82.945-34.343l-0.001 0.001zM474.283 834.347l-52.139-52.139c-21.235-21.213-50.556-34.336-82.942-34.347h-73.73c-29.44 0-53.333-23.893-53.333-53.333v-73.728c0-31.104-12.373-60.928-34.347-82.944l-52.139-52.139c-9.654-9.652-15.626-22.987-15.626-37.717s5.972-28.065 15.626-37.717v0l52.139-52.181c21.973-21.973 34.347-51.797 34.347-82.944v-73.685c0-29.44 23.893-53.333 53.333-53.333h73.728c31.147 0 60.971-12.373 82.987-34.389l52.096-52.139c9.652-9.654 22.987-15.626 37.717-15.626s28.065 5.972 37.717 15.626l52.139 52.139c21.225 21.236 50.549 34.376 82.942 34.389h73.773c29.44 0 53.333 23.893 53.333 53.333v73.728c0 31.104 12.331 60.971 34.347 82.987l52.139 52.096c9.654 9.652 15.626 22.987 15.626 37.717s-5.972 28.065-15.626 37.717l-52.139 52.096c-21.219 21.247-34.343 50.584-34.347 82.986v73.729c0 29.44-23.893 53.333-53.333 53.333h-73.771c-32.395 0.013-61.719 13.153-82.944 34.389v0l-52.139 52.096c-9.652 9.654-22.987 15.626-37.717 15.626s-28.065-5.972-37.717-15.626v0zM416 576v-8.533c0-36.395 0.043-61.739 1.621-81.493 1.579-19.328 4.565-30.464 8.832-38.912 9.216-18.048 23.893-32.725 41.941-41.941 8.448-4.309 19.584-7.253 38.912-8.832 19.755-1.621 45.099-1.621 81.493-1.621h16.64l-30.72 30.72c-6.29 5.853-10.212 14.177-10.212 23.418 0 14.866 10.151 27.361 23.899 30.933l0.222 0.049c2.381 0.636 5.115 1.001 7.934 1.001 9.223 0 17.533-3.907 23.366-10.155l0.017-0.019 85.333-85.333c5.782-5.789 9.359-13.784 9.359-22.613s-3.576-16.824-9.359-22.614v0l-85.333-85.333c-5.705-5.321-13.386-8.587-21.831-8.587-8.834 0-16.832 3.575-22.629 9.356l0.001-0.001c-5.781 5.796-9.355 13.794-9.355 22.628 0 8.444 3.267 16.126 8.605 21.85l-0.017-0.019 30.72 30.72h-18.005c-34.688 0-62.677 0-85.333 1.835-23.296 1.92-43.776 5.931-62.763 15.573-30.234 15.658-54.264 39.716-69.468 69.081l-0.42 0.892c-9.643 18.944-13.696 39.424-15.616 62.72-1.835 22.656-1.835 50.645-1.835 85.333v9.899c0 17.673 14.327 32 32 32s32-14.327 32-32v0z" />
<glyph unicode="&#xe931;" d="M938.667 448c0-235.641-191.025-426.667-426.667-426.667s-426.667 191.025-426.667 426.667v0c0 235.641 191.025 426.667 426.667 426.667s426.667-191.025 426.667-426.667v0z" />
<glyph unicode="&#xe932;" d="M512 906.667c253.312 0 458.667-205.355 458.667-458.667s-205.355-458.667-458.667-458.667-458.667 205.355-458.667 458.667 205.355 458.667 458.667 458.667zM117.333 448c0-217.968 176.698-394.667 394.667-394.667v0c217.968 0 394.667 176.698 394.667 394.667v0c0 217.968-176.698 394.667-394.667 394.667v0c-217.968 0-394.667-176.698-394.667-394.667v0zM416 576v-8.533c0-36.395 0.043-61.739 1.621-81.451 1.579-19.371 4.565-30.507 8.832-38.912 9.216-18.091 23.893-32.768 41.941-41.984 8.448-4.267 19.584-7.253 38.912-8.832 19.755-1.621 45.099-1.621 81.493-1.621h16.64l-30.72 30.72c-6.29 5.853-10.212 14.177-10.212 23.418 0 14.866 10.151 27.361 23.899 30.933l0.222 0.049c2.381 0.636 5.115 1.001 7.934 1.001 9.223 0 17.533-3.907 23.366-10.155l0.017-0.019 85.333-85.333c5.782-5.789 9.359-13.784 9.359-22.613s-3.576-16.824-9.359-22.614v0l-85.333-85.333c-5.853-6.29-14.177-10.212-23.418-10.212-14.866 0-27.361 10.151-30.933 23.899l-0.049 0.222c-0.636 2.381-1.001 5.115-1.001 7.934 0 9.223 3.907 17.533 10.155 23.366l0.019 0.017 30.72 30.72h-18.005c-34.688 0-62.677 0-85.333 1.835-23.296 1.92-43.776 5.931-62.763 15.573-30.234 15.658-54.264 39.716-69.468 69.081l-0.42 0.892c-9.643 18.944-13.696 39.424-15.616 62.72-1.835 22.656-1.835 50.645-1.835 85.333v9.899c0 17.673 14.327 32 32 32s32-14.327 32-32v0z" />
<glyph unicode="&#xe933;" glyph-name="arrow-bend-down-right-duotone" d="M170.667 864c17.673 0 32-14.327 32-32v0-196.267c0-48.299 0-82.645 2.219-109.483 2.133-26.453 6.272-42.88 12.885-55.893 13.569-26.192 34.395-47.018 59.815-60.222l0.772-0.365c13.013-6.613 29.44-10.709 55.893-12.885 26.88-2.176 61.184-2.219 109.483-2.219h332.373l-158.72 158.72c-5.321 5.705-8.587 13.386-8.587 21.831 0 8.834 3.575 16.832 9.356 22.629l-0.001-0.001c5.796 5.781 13.794 9.355 22.628 9.355 8.444 0 16.126-3.267 21.85-8.605l-0.019 0.017 213.333-213.333c5.782-5.789 9.359-13.784 9.359-22.613s-3.576-16.824-9.359-22.614v0l-213.333-213.333c-5.853-6.29-14.177-10.212-23.418-10.212-14.866 0-27.361 10.151-30.933 23.899l-0.049 0.222c-0.636 2.381-1.001 5.115-1.001 7.934 0 9.223 3.907 17.533 10.155 23.366l0.019 0.017 158.72 158.72h-333.781c-46.592 0-83.541 0-113.28 2.432-30.464 2.475-56.192 7.68-79.701 19.627-38.316 19.821-68.772 50.291-88.044 87.489l-0.532 1.129c-11.989 23.467-17.195 49.237-19.669 79.701-2.432 29.739-2.432 66.688-2.432 113.28v197.675c0 17.673 14.327 32 32 32v0z" />
<glyph unicode="&#xe934;" d="M626.133 64h-228.267c-20.864 0-31.275 0-41.088 2.347-8.747 2.133-17.067 5.547-24.704 10.24-8.576 5.248-15.957 12.629-30.72 27.392l-133.376 133.376c-14.763 14.763-22.144 22.144-27.392 30.72-4.428 7.094-7.948 15.318-10.117 24.075l-0.123 0.587c-2.347 9.813-2.347 20.267-2.347 41.131v228.267c0 20.864 0 31.275 2.347 41.088 2.286 9.359 5.807 17.598 10.45 25.067l-0.21-0.363c5.248 8.576 12.629 15.957 27.392 30.72l133.376 133.376c14.763 14.763 22.144 22.144 30.72 27.392 7.106 4.433 15.345 7.954 24.118 10.118l0.586 0.122c9.813 2.347 20.224 2.347 41.088 2.347h228.267c20.864 0 31.275 0 41.088-2.347 8.704-2.133 17.067-5.547 24.704-10.24 8.576-5.248 15.957-12.629 30.72-27.392l133.376-133.376c14.763-14.763 22.144-22.144 27.392-30.72 4.693-7.68 8.107-15.957 10.24-24.704 2.347-9.813 2.347-20.224 2.347-41.088v-228.267c0-20.864 0-31.275-2.347-41.088-2.133-8.704-5.547-17.067-10.24-24.704-5.248-8.576-12.629-15.957-27.392-30.72l-133.376-133.376c-14.763-14.763-22.144-22.144-30.72-27.392-7.68-4.693-15.957-8.107-24.661-10.24-9.813-2.347-20.267-2.347-41.131-2.347z" />
<glyph unicode="&#xe935;" d="M397.867 864h231.339c17.877 0 31.915 0 45.525-3.243 11.947-2.901 23.381-7.637 33.877-14.080 11.947-7.253 21.888-17.237 34.475-29.867l2.219-2.176 135.509-135.552c12.672-12.629 22.613-22.528 29.867-34.475 6.443-10.496 11.179-21.931 14.080-33.92 3.243-13.568 3.243-27.605 3.243-45.483v-234.411c0-17.877 0-31.915-3.243-45.525-3.103-12.834-7.948-24.136-14.36-34.356l0.28 0.478c-7.253-11.947-17.195-21.888-29.867-34.475l-2.176-2.219-135.552-135.509c-12.587-12.672-22.528-22.613-34.475-29.867-9.741-6.132-21.043-10.977-33.092-13.918l-0.785-0.162c-13.611-3.243-27.648-3.243-45.525-3.243h-234.411c-17.877 0-31.915 0-45.483 3.243-12.85 3.112-24.166 7.956-34.404 14.362l0.484-0.282c-11.947 7.253-21.845 17.195-34.475 29.867l-2.219 2.176-135.509 135.552c-12.629 12.587-22.613 22.528-29.867 34.475-6.096 9.744-10.937 21.042-13.912 33.075l-0.168 0.802c-3.243 13.611-3.243 27.648-3.243 45.525v234.411c0 17.877 0 31.915 3.243 45.483 2.901 11.989 7.637 23.424 14.080 33.92 7.253 11.947 17.237 21.845 29.867 34.475l2.176 2.219 135.552 135.509c12.629 12.629 22.528 22.613 34.475 29.867 10.496 6.443 21.931 11.179 33.92 14.080 13.568 3.243 27.605 3.243 45.483 3.243h3.072zM364.203 798.507l0.043 0.043c-5.851-1.428-11.002-3.629-15.672-6.531l0.227 0.131c-4.608-2.859-9.003-6.912-24.832-22.784l-133.333-133.333c-15.872-15.872-19.925-20.224-22.741-24.832-2.987-4.779-5.12-9.984-6.4-15.445-1.28-5.248-1.493-11.264-1.493-33.621v-228.267c0-22.4 0.171-28.373 1.451-33.621 1.323-5.461 3.456-10.667 6.4-15.445 2.859-4.608 6.912-9.003 22.784-24.832l133.333-133.333c15.872-15.872 20.224-19.925 24.832-22.741 4.779-2.944 9.984-5.077 15.445-6.4 5.248-1.28 11.264-1.493 33.621-1.493h228.267c22.4 0 28.373 0.171 33.621 1.451 5.851 1.428 11.002 3.629 15.672 6.531l-0.227-0.131c4.608 2.859 9.003 6.912 24.832 22.784l133.333 133.333c15.872 15.872 19.925 20.224 22.741 24.832 2.771 4.443 4.972 9.594 6.324 15.079l0.076 0.366c1.28 5.248 1.493 11.264 1.493 33.621v228.224c0 22.4-0.171 28.416-1.451 33.664-1.449 5.852-3.648 11.001-6.535 15.68l0.135-0.235c-2.859 4.608-6.912 9.003-22.784 24.832l-133.333 133.333c-15.872 15.872-20.224 19.925-24.832 22.741-4.439 2.811-9.596 5.016-15.098 6.33l-0.347 0.070c-5.248 1.28-11.264 1.493-33.621 1.493h-228.224c-22.4 0-28.416-0.213-33.707-1.493zM416 576v-8.533c0-36.395 0.043-61.739 1.621-81.451 1.579-19.371 4.565-30.507 8.832-38.912 9.216-18.091 23.893-32.768 41.984-41.984 8.405-4.267 19.541-7.253 38.869-8.832 19.755-1.621 45.141-1.621 81.493-1.621h16.64l-30.72 30.72c-5.321 5.705-8.587 13.386-8.587 21.831 0 8.834 3.575 16.832 9.356 22.629l-0.001-0.001c5.796 5.781 13.794 9.355 22.628 9.355 8.444 0 16.126-3.267 21.85-8.605l-0.019 0.017 85.333-85.333c5.782-5.789 9.359-13.784 9.359-22.613s-3.576-16.824-9.359-22.614v0l-85.333-85.333c-5.705-5.321-13.386-8.587-21.831-8.587-8.834 0-16.832 3.575-22.629 9.356l0.001-0.001c-5.781 5.796-9.355 13.794-9.355 22.628 0 8.444 3.267 16.126 8.605 21.85l-0.017-0.019 30.72 30.72h-18.005c-34.688 0-62.677 0-85.333 1.835-23.296 1.92-43.776 5.931-62.72 15.573-30.256 15.645-54.303 39.705-69.511 69.082l-0.42 0.892c-9.643 18.944-13.696 39.424-15.616 62.72-1.835 22.656-1.835 50.645-1.835 85.333v9.899c0 17.673 14.327 32 32 32s32-14.327 32-32v0z" />
<glyph unicode="&#xe936;" d="M128 558.933c0 95.573 0 143.36 18.603 179.883 16.678 32.26 42.321 57.903 73.631 74.133l0.95 0.448c36.523 18.603 84.309 18.603 179.883 18.603h221.867c95.573 0 143.36 0 179.883-18.603 32.26-16.678 57.903-42.321 74.133-73.631l0.448-0.95c18.603-36.523 18.603-84.309 18.603-179.883v-221.867c0-95.573 0-143.36-18.603-179.883-16.678-32.26-42.321-57.903-73.631-74.133l-0.95-0.448c-36.523-18.603-84.309-18.603-179.883-18.603h-221.867c-95.573 0-143.36 0-179.883 18.603-32.26 16.678-57.903 42.321-74.133 73.631l-0.448 0.95c-18.603 36.523-18.603 84.309-18.603 179.883v221.867z" />
<glyph unicode="&#xe937;" d="M399.659 864h224.683c46.592 0 83.541 0 113.28-2.432 30.464-2.475 56.192-7.68 79.744-19.669 38.324-19.791 68.785-50.252 88.045-87.448l0.531-1.128c11.947-23.509 17.152-49.237 19.627-79.701 2.432-29.739 2.432-66.688 2.432-113.28v-224.683c0-46.592 0-83.541-2.432-113.28-2.475-30.464-7.68-56.192-19.669-79.744-19.8-38.306-50.24-68.759-87.406-88.044l-1.127-0.532c-23.552-11.947-49.28-17.152-79.744-19.627-29.739-2.432-66.688-2.432-113.28-2.432h-224.683c-46.592 0-83.541 0-113.28 2.432-30.464 2.475-56.235 7.68-79.701 19.669-38.326 19.789-68.795 50.231-88.087 87.406l-0.532 1.127c-11.947 23.552-17.152 49.28-19.627 79.744-2.432 29.739-2.432 66.688-2.432 113.28v224.683c0 46.592 0 83.541 2.432 113.28 2.475 30.464 7.68 56.235 19.669 79.701 19.804 38.328 50.26 68.797 87.448 88.086l1.128 0.532c23.509 11.947 49.237 17.152 79.701 19.627 29.739 2.432 66.688 2.432 113.28 2.432zM235.733 784.896h-0.043c-26.192-13.569-47.018-34.395-60.222-59.815l-0.365-0.772c-6.613-13.013-10.752-29.44-12.885-55.893-2.219-26.837-2.219-61.184-2.219-109.483v-221.867c0-48.299 0.043-82.603 2.219-109.483 2.176-26.453 6.272-42.88 12.885-55.893 13.569-26.192 34.395-47.018 59.815-60.222l0.772-0.365c13.013-6.613 29.44-10.752 55.893-12.885 26.837-2.219 61.184-2.219 109.483-2.219h221.867c48.299 0 82.603 0.043 109.483 2.219 26.453 2.176 42.88 6.272 55.893 12.885 26.192 13.569 47.018 34.395 60.222 59.815l0.365 0.772c6.613 13.013 10.752 29.44 12.885 55.893 2.219 26.837 2.219 61.141 2.219 109.483v221.867c0 48.299-0.043 82.603-2.219 109.483-2.176 26.453-6.272 42.88-12.885 55.893-13.569 26.192-34.395 47.018-59.815 60.222l-0.772 0.365c-13.013 6.613-29.44 10.752-55.893 12.885-26.837 2.219-61.141 2.219-109.483 2.219h-221.867c-48.299 0-82.603-0.043-109.483-2.219-26.496-2.176-42.88-6.272-55.851-12.885zM416 576v-8.533c0-36.395 0.043-61.739 1.621-81.451 1.579-19.371 4.565-30.507 8.832-38.912 9.216-18.091 23.893-32.768 41.941-41.984 8.448-4.267 19.584-7.253 38.912-8.832 19.755-1.621 45.099-1.621 81.493-1.621h16.64l-30.72 30.72c-6.29 5.853-10.212 14.177-10.212 23.418 0 14.866 10.151 27.361 23.899 30.933l0.222 0.049c2.381 0.636 5.115 1.001 7.934 1.001 9.223 0 17.533-3.907 23.366-10.155l0.017-0.019 85.333-85.333c5.782-5.789 9.359-13.784 9.359-22.613s-3.576-16.824-9.359-22.614v0l-85.333-85.333c-5.853-6.29-14.177-10.212-23.418-10.212-14.866 0-27.361 10.151-30.933 23.899l-0.049 0.222c-0.636 2.381-1.001 5.115-1.001 7.934 0 9.223 3.907 17.533 10.155 23.366l0.019 0.017 30.72 30.72h-18.005c-34.688 0-62.677 0-85.333 1.835-23.296 1.92-43.776 5.931-62.763 15.573-30.234 15.658-54.264 39.716-69.468 69.081l-0.42 0.892c-9.643 18.944-13.696 39.424-15.616 62.72-1.835 22.656-1.835 50.645-1.835 85.333v9.899c0 17.673 14.327 32 32 32s32-14.327 32-32v0z" />
<glyph unicode="&#xe938;" glyph-name="arrow-bend-down-right-small-duotone" d="M298.667 693.333c17.673 0 32-14.327 32-32v0-25.6c0-48.299 0-82.645 2.219-109.483 2.133-26.453 6.272-42.88 12.885-55.893 13.569-26.192 34.395-47.018 59.815-60.222l0.772-0.365c13.013-6.613 29.44-10.709 55.893-12.885 26.88-2.176 61.184-2.219 109.483-2.219h76.373l-73.387 73.387c-6.29 5.853-10.212 14.177-10.212 23.418 0 14.866 10.151 27.361 23.899 30.933l0.222 0.049c2.381 0.636 5.115 1.001 7.934 1.001 9.223 0 17.533-3.907 23.366-10.155l0.017-0.019 128-128c5.782-5.789 9.359-13.784 9.359-22.613s-3.576-16.824-9.359-22.614v0l-128-128c-5.853-6.29-14.177-10.212-23.418-10.212-14.866 0-27.361 10.151-30.933 23.899l-0.049 0.222c-0.636 2.381-1.001 5.115-1.001 7.934 0 9.223 3.907 17.533 10.155 23.366l0.019 0.017 73.387 73.387h-77.781c-46.592 0-83.541 0-113.28 2.432-30.464 2.475-56.192 7.68-79.701 19.627-38.316 19.821-68.772 50.291-88.044 87.489l-0.532 1.129c-11.989 23.467-17.195 49.237-19.669 79.701-2.432 29.739-2.432 66.688-2.432 113.28v27.008c0 17.673 14.327 32 32 32v0z" />
<glyph unicode="&#xe939;" d="M744.533 106.667h-465.067c-77.653 0-116.523 0-138.965 16.299-19.070 13.982-32.025 35.337-34.655 59.784l-0.033 0.376c-2.901 27.605 16.555 61.227 55.467 128.469l232.533 401.664c38.827 66.987 58.197 100.48 83.499 111.744 10.202 4.655 22.128 7.368 34.688 7.368s24.486-2.713 35.224-7.586l-0.536 0.218c25.301-11.264 44.672-44.8 83.456-111.787l232.533-401.621c38.912-67.243 58.411-100.864 55.509-128.427-2.663-24.823-15.618-46.178-34.45-59.993l-0.238-0.167c-22.443-16.341-61.269-16.341-138.965-16.341z" />
<glyph unicode="&#xe93a;" d="M559.659 854.229c20.693-9.216 36.011-26.197 49.835-45.696 13.696-19.413 28.843-45.525 47.531-77.867l0.811-1.408 233.387-403.029c18.773-32.427 33.963-58.667 43.947-80.256 10.069-21.76 17.195-43.563 14.848-66.133-3.66-34.137-21.475-63.504-47.373-82.501l-0.328-0.23c-18.347-13.355-40.747-18.091-64.64-20.267-23.68-2.176-54.059-2.176-91.52-2.176h-468.309c-37.461 0-67.797 0-91.52 2.176-23.851 2.176-46.293 6.912-64.64 20.267-26.237 19.207-44.066 48.56-47.698 82.169l-0.046 0.519c-2.304 22.613 4.821 44.373 14.933 66.133 9.941 21.632 25.173 47.872 43.947 80.299l0.768 1.408 233.387 403.029c18.688 32.299 33.835 58.496 47.573 77.867 13.781 19.499 29.099 36.48 49.792 45.696 14.018 6.39 30.403 10.115 47.659 10.115s33.641-3.725 48.396-10.414l-0.737 0.299zM490.325 795.776v-0.085c-4.608-2.005-11.648-7.381-23.552-24.192-11.819-16.725-25.515-40.277-45.227-74.325l-232.533-401.579c-19.797-34.176-33.493-57.899-42.112-76.501-8.661-18.773-9.813-27.605-9.259-32.64 1.579-15.019 9.429-28.715 21.675-37.589 4.053-2.987 12.288-6.4 32.853-8.277 20.437-1.92 47.829-1.92 87.296-1.92h465.067c39.509 0 66.859 0.043 87.296 1.92 20.565 1.877 28.8 5.291 32.853 8.277 12.245 8.875 20.096 22.571 21.675 37.589 0.512 5.035-0.597 13.867-9.301 32.64-8.576 18.603-22.272 42.325-42.069 76.501l-232.533 401.621c-19.712 34.048-33.408 57.643-45.227 74.325-11.904 16.811-18.944 22.144-23.552 24.235-6.375 2.91-13.826 4.607-21.675 4.607s-15.3-1.697-22.009-4.743l0.334 0.136zM416 490.667v-34.133c0-24.448 0.043-40.832 1.067-53.461 0.981-12.245 2.773-18.091 4.736-21.973 5.12-10.027 13.269-18.176 23.296-23.296 3.883-1.963 9.728-3.755 22.016-4.736 12.587-1.067 29.013-1.067 53.419-1.067h42.24l-30.72 30.72c-6.29 5.853-10.212 14.177-10.212 23.418 0 14.866 10.151 27.361 23.899 30.933l0.222 0.049c2.381 0.636 5.115 1.001 7.934 1.001 9.223 0 17.533-3.907 23.366-10.155l0.017-0.019 85.333-85.333c5.782-5.789 9.359-13.784 9.359-22.613s-3.576-16.824-9.359-22.614v0l-85.333-85.333c-5.853-6.29-14.177-10.212-23.418-10.212-14.866 0-27.361 10.151-30.933 23.899l-0.049 0.222c-0.636 2.381-1.001 5.115-1.001 7.934 0 9.223 3.907 17.533 10.155 23.366l0.019 0.017 30.72 30.72h-43.52c-22.827 0-41.813 0-57.387 1.28-16.213 1.28-31.403 4.181-45.781 11.52-22.186 11.465-39.821 29.099-50.977 50.632l-0.308 0.653c-7.339 14.379-10.24 29.568-11.52 45.781-1.28 15.573-1.28 34.56-1.28 57.387v35.413c0 17.673 14.327 32 32 32s32-14.327 32-32v0z" />
<glyph unicode="&#xe93b;" d="M265.472 779.861h73.728c23.562 0.005 44.892 9.559 60.33 25.002l52.139 52.139c15.441 15.437 36.771 24.984 60.331 24.984s44.889-9.548 60.331-24.985l52.138-52.138c15.439-15.443 36.769-24.997 60.33-25.003h73.772c47.128 0 85.333-38.205 85.333-85.333v0-73.728c0-0.007 0-0.016 0-0.024 0-23.547 9.538-44.867 24.961-60.307l52.138-52.138c15.437-15.441 24.984-36.771 24.984-60.331s-9.548-44.889-24.985-60.331l-52.138-52.138c-15.422-15.439-24.96-36.759-24.96-60.306 0-0.009 0-0.017 0-0.026v0.001-73.728c0-47.128-38.205-85.333-85.333-85.333v0h-73.771c-23.562-0.005-44.892-9.559-60.33-25.002l-52.139-52.139c-15.441-15.437-36.771-24.984-60.331-24.984s-44.889 9.548-60.331 24.985l-52.138 52.138c-15.439 15.443-36.769 24.997-60.33 25.003h-73.729c-47.128 0-85.333 38.205-85.333 85.333v0 73.685c0 0.007 0 0.016 0 0.024 0 23.547-9.538 44.867-24.961 60.307l-52.18 52.18c-15.437 15.441-24.984 36.771-24.984 60.331s9.548 44.889 24.985 60.331l52.138 52.138c15.443 15.439 24.997 36.769 25.003 60.33v73.729c0 47.128 38.205 85.333 85.333 85.333v0z" />
<glyph unicode="&#xe93c;" d="M594.987 879.573l52.096-52.096c9.984-9.984 23.552-15.616 37.717-15.616h73.771c64.801 0 117.333-52.532 117.333-117.333v0-73.728c0-14.165 5.589-27.733 15.616-37.76l52.096-52.053c21.245-21.235 34.386-50.576 34.386-82.987s-13.141-61.752-34.385-82.986l-52.096-52.096c-9.647-9.625-15.616-22.934-15.616-37.637 0-0.028 0-0.057 0-0.085v0.004-73.728c0-64.801-52.532-117.333-117.333-117.333v0h-73.771c-14.713-0.009-28.031-5.975-37.675-15.616l-52.139-52.139c-21.233-21.232-50.566-34.364-82.965-34.364s-61.732 13.132-82.965 34.364l-52.139 52.096c-9.645 9.67-22.982 15.654-37.717 15.659h-73.686c-64.801 0-117.333 52.532-117.333 117.333v0 73.685c-0.009 14.734-5.992 28.070-15.658 37.716l-52.14 52.14c-21.232 21.233-34.364 50.566-34.364 82.965s13.132 61.732 34.364 82.965l52.139 52.139c10.027 9.984 15.616 23.595 15.616 37.717v73.728c0 64.801 52.532 117.333 117.333 117.333v0h73.728c14.165 0 27.733 5.632 37.717 15.659l52.096 52.053c21.235 21.245 50.576 34.386 82.987 34.386 32.389 0 61.713-13.124 82.945-34.343l-0.001 0.001zM474.283 834.347l-52.139-52.139c-21.235-21.213-50.556-34.336-82.942-34.347h-73.73c-29.44 0-53.333-23.893-53.333-53.333v-73.728c0-31.104-12.373-60.928-34.347-82.944l-52.139-52.139c-9.654-9.652-15.626-22.987-15.626-37.717s5.972-28.065 15.626-37.717v0l52.139-52.181c21.973-21.973 34.347-51.797 34.347-82.944v-73.685c0-29.44 23.893-53.333 53.333-53.333h73.728c31.147 0 60.971-12.373 82.987-34.389l52.096-52.139c9.652-9.654 22.987-15.626 37.717-15.626s28.065 5.972 37.717 15.626l52.139 52.139c21.225 21.236 50.549 34.376 82.942 34.389h73.773c29.44 0 53.333 23.893 53.333 53.333v73.728c0 31.104 12.331 60.971 34.347 82.987l52.139 52.096c9.654 9.652 15.626 22.987 15.626 37.717s-5.972 28.065-15.626 37.717l-52.139 52.096c-21.219 21.247-34.343 50.584-34.347 82.986v73.729c0 29.44-23.893 53.333-53.333 53.333h-73.771c-32.395 0.013-61.719 13.153-82.944 34.389v0l-52.139 52.096c-9.652 9.654-22.987 15.626-37.717 15.626s-28.065-5.972-37.717-15.626v0zM640 544h-8.533c-36.395 0-61.739-0.043-81.451-1.664-19.371-1.536-30.507-4.523-38.912-8.789-18.163-9.384-32.6-23.821-41.732-41.449l-0.252-0.535c-4.267-8.405-7.253-19.541-8.832-38.869-1.621-19.755-1.621-45.141-1.621-81.493v-16.64l30.72 30.72c5.705 5.321 13.386 8.587 21.831 8.587 8.834 0 16.832-3.575 22.629-9.356l-0.001 0.001c5.781-5.796 9.355-13.794 9.355-22.628 0-8.444-3.267-16.126-8.605-21.85l0.017 0.019-85.333-85.333c-5.789-5.782-13.784-9.359-22.613-9.359s-16.824 3.576-22.614 9.359v0l-85.333 85.333c-6.29 5.853-10.212 14.177-10.212 23.418 0 14.866 10.151 27.361 23.899 30.933l0.222 0.049c2.381 0.636 5.115 1.001 7.934 1.001 9.223 0 17.533-3.907 23.366-10.155l0.017-0.019 30.72-30.72v18.005c0 34.688 0 62.635 1.835 85.333 1.92 23.296 5.931 43.776 15.573 62.72 15.36 30.123 39.851 54.613 69.973 69.931 18.944 9.643 39.424 13.696 62.72 15.573 22.656 1.877 50.645 1.877 85.333 1.877h9.899c17.673 0 32-14.327 32-32s-14.327-32-32-32v0z" />
<glyph unicode="&#xe93d;" d="M938.667 448c0-235.641-191.025-426.667-426.667-426.667s-426.667 191.025-426.667 426.667v0c0 235.641 191.025 426.667 426.667 426.667s426.667-191.025 426.667-426.667v0z" />
<glyph unicode="&#xe93e;" d="M512 906.667c253.312 0 458.667-205.355 458.667-458.667s-205.355-458.667-458.667-458.667-458.667 205.355-458.667 458.667 205.355 458.667 458.667 458.667zM117.333 448c0-217.968 176.698-394.667 394.667-394.667v0c217.968 0 394.667 176.698 394.667 394.667v0c0 217.968-176.698 394.667-394.667 394.667v0c-217.968 0-394.667-176.698-394.667-394.667v0zM640 544h-8.533c-36.395 0-61.739-0.043-81.451-1.621-19.371-1.579-30.507-4.565-38.912-8.832-18.091-9.216-32.768-23.893-41.984-41.941-4.267-8.448-7.253-19.584-8.832-38.912-1.621-19.755-1.621-45.099-1.621-81.493v-16.64l30.72 30.72c5.853 6.29 14.177 10.212 23.418 10.212 14.866 0 27.361-10.151 30.933-23.899l0.049-0.222c0.636-2.381 1.001-5.115 1.001-7.934 0-9.223-3.907-17.533-10.155-23.366l-0.019-0.017-85.333-85.333c-5.789-5.782-13.784-9.359-22.613-9.359s-16.824 3.576-22.614 9.359v0l-85.333 85.333c-5.321 5.705-8.587 13.386-8.587 21.831 0 8.834 3.575 16.832 9.356 22.629l-0.001-0.001c5.796 5.781 13.794 9.355 22.628 9.355 8.444 0 16.126-3.267 21.85-8.605l-0.019 0.017 30.72-30.72v18.005c0 34.688 0 62.677 1.835 85.333 1.92 23.296 5.931 43.776 15.573 62.763 15.658 30.234 39.716 54.264 69.081 69.468l0.892 0.42c18.944 9.643 39.424 13.696 62.72 15.616 22.656 1.835 50.645 1.835 85.333 1.835h9.899c17.673 0 32-14.327 32-32s-14.327-32-32-32v0z" />
<glyph unicode="&#xe93f;" glyph-name="arrow-bend-left-down-duotone" d="M406.613 126.72c-5.789-5.782-13.784-9.359-22.613-9.359s-16.824 3.576-22.614 9.359v0l-213.333 213.333c-6.29 5.853-10.212 14.177-10.212 23.418 0 14.866 10.151 27.361 23.899 30.933l0.222 0.049c2.381 0.636 5.115 1.001 7.934 1.001 9.223 0 17.533-3.907 23.366-10.155l0.017-0.019 158.72-158.72v333.824c0 46.592 0 83.541 2.432 113.28 2.475 30.464 7.68 56.192 19.627 79.701 19.821 38.316 50.291 68.772 87.489 88.044l1.129 0.532c23.467 11.989 49.237 17.195 79.701 19.669 29.739 2.432 66.688 2.432 113.28 2.432h197.675c17.673 0 32-14.327 32-32s-14.327-32-32-32v0h-196.267c-48.341 0-82.645 0-109.483-2.219-26.453-2.133-42.88-6.272-55.893-12.885-26.192-13.569-47.018-34.395-60.222-59.815l-0.365-0.772c-6.613-13.013-10.709-29.44-12.885-55.893-2.176-26.88-2.219-61.184-2.219-109.483v-332.373l158.72 158.72c5.853 6.29 14.177 10.212 23.418 10.212 14.866 0 27.361-10.151 30.933-23.899l0.049-0.222c0.636-2.381 1.001-5.115 1.001-7.934 0-9.223-3.907-17.533-10.155-23.366l-0.019-0.017-213.333-213.333z" />
<glyph unicode="&#xe940;" d="M626.133 64h-228.267c-20.864 0-31.275 0-41.088 2.347-8.747 2.133-17.067 5.547-24.704 10.24-8.576 5.248-15.957 12.629-30.72 27.392l-133.376 133.376c-14.763 14.763-22.144 22.144-27.392 30.72-4.428 7.094-7.948 15.318-10.117 24.075l-0.123 0.587c-2.347 9.813-2.347 20.267-2.347 41.131v228.267c0 20.864 0 31.275 2.347 41.088 2.286 9.359 5.807 17.598 10.45 25.067l-0.21-0.363c5.248 8.576 12.629 15.957 27.392 30.72l133.376 133.376c14.763 14.763 22.144 22.144 30.72 27.392 7.106 4.433 15.345 7.954 24.118 10.118l0.586 0.122c9.813 2.347 20.224 2.347 41.088 2.347h228.267c20.864 0 31.275 0 41.088-2.347 8.704-2.133 17.067-5.547 24.704-10.24 8.576-5.248 15.957-12.629 30.72-27.392l133.376-133.376c14.763-14.763 22.144-22.144 27.392-30.72 4.693-7.68 8.107-15.957 10.24-24.704 2.347-9.813 2.347-20.224 2.347-41.088v-228.267c0-20.864 0-31.275-2.347-41.088-2.133-8.704-5.547-17.067-10.24-24.704-5.248-8.576-12.629-15.957-27.392-30.72l-133.376-133.376c-14.763-14.763-22.144-22.144-30.72-27.392-7.68-4.693-15.957-8.107-24.661-10.24-9.813-2.347-20.267-2.347-41.131-2.347z" />
<glyph unicode="&#xe941;" d="M397.867 864h231.339c17.877 0 31.915 0 45.525-3.243 11.947-2.901 23.381-7.637 33.877-14.080 11.947-7.253 21.888-17.237 34.475-29.867l2.219-2.176 135.509-135.552c12.672-12.629 22.613-22.528 29.867-34.475 6.443-10.496 11.179-21.931 14.080-33.92 3.243-13.568 3.243-27.605 3.243-45.483v-234.411c0-17.877 0-31.915-3.243-45.525-3.103-12.834-7.948-24.136-14.36-34.356l0.28 0.478c-7.253-11.947-17.195-21.888-29.867-34.475l-2.176-2.219-135.552-135.509c-12.587-12.672-22.528-22.613-34.475-29.867-9.741-6.132-21.043-10.977-33.092-13.918l-0.785-0.162c-13.611-3.243-27.648-3.243-45.525-3.243h-234.411c-17.877 0-31.915 0-45.483 3.243-12.85 3.112-24.166 7.956-34.404 14.362l0.484-0.282c-11.947 7.253-21.845 17.195-34.475 29.867l-2.219 2.176-135.509 135.552c-12.629 12.587-22.613 22.528-29.867 34.475-6.096 9.744-10.937 21.042-13.912 33.075l-0.168 0.802c-3.243 13.611-3.243 27.648-3.243 45.525v234.411c0 17.877 0 31.915 3.243 45.483 2.901 11.989 7.637 23.424 14.080 33.92 7.253 11.947 17.237 21.845 29.867 34.475l2.176 2.219 135.552 135.509c12.629 12.629 22.528 22.613 34.475 29.867 10.496 6.443 21.931 11.179 33.92 14.080 13.568 3.243 27.605 3.243 45.483 3.243h3.072zM364.203 798.507l0.043 0.043c-5.851-1.428-11.002-3.629-15.672-6.531l0.227 0.131c-4.608-2.859-9.003-6.912-24.832-22.784l-133.333-133.333c-15.872-15.872-19.925-20.224-22.741-24.832-2.987-4.779-5.12-9.984-6.4-15.445-1.28-5.248-1.493-11.264-1.493-33.621v-228.267c0-22.4 0.171-28.373 1.451-33.621 1.323-5.461 3.456-10.667 6.4-15.445 2.859-4.608 6.912-9.003 22.784-24.832l133.333-133.333c15.872-15.872 20.224-19.925 24.832-22.741 4.779-2.944 9.984-5.077 15.445-6.4 5.248-1.28 11.264-1.493 33.621-1.493h228.267c22.4 0 28.373 0.171 33.621 1.451 5.851 1.428 11.002 3.629 15.672 6.531l-0.227-0.131c4.608 2.859 9.003 6.912 24.832 22.784l133.333 133.333c15.872 15.872 19.925 20.224 22.741 24.832 2.771 4.443 4.972 9.594 6.324 15.079l0.076 0.366c1.28 5.248 1.493 11.264 1.493 33.621v228.224c0 22.4-0.171 28.416-1.451 33.664-1.449 5.852-3.648 11.001-6.535 15.68l0.135-0.235c-2.859 4.608-6.912 9.003-22.784 24.832l-133.333 133.333c-15.872 15.872-20.224 19.925-24.832 22.741-4.439 2.811-9.596 5.016-15.098 6.33l-0.347 0.070c-5.248 1.28-11.264 1.493-33.621 1.493h-228.224c-22.4 0-28.416-0.213-33.707-1.493zM640 544h-8.491c-36.395 0-61.781-0.043-81.493-1.621-19.371-1.579-30.507-4.565-38.912-8.832-18.163-9.384-32.6-23.821-41.732-41.449l-0.252-0.535c-4.267-8.405-7.253-19.541-8.832-38.869-1.621-19.755-1.621-45.141-1.621-81.493v-16.64l30.72 30.72c5.705 5.321 13.386 8.587 21.831 8.587 8.834 0 16.832-3.575 22.629-9.356l-0.001 0.001c5.781-5.796 9.355-13.794 9.355-22.628 0-8.444-3.267-16.126-8.605-21.85l0.017 0.019-85.333-85.333c-5.789-5.782-13.784-9.359-22.613-9.359s-16.824 3.576-22.614 9.359v0l-85.333 85.333c-6.29 5.853-10.212 14.177-10.212 23.418 0 14.866 10.151 27.361 23.899 30.933l0.222 0.049c2.381 0.636 5.115 1.001 7.934 1.001 9.223 0 17.533-3.907 23.366-10.155l0.017-0.019 30.72-30.72v18.005c0 34.688 0 62.677 1.835 85.333 1.92 23.296 5.931 43.776 15.573 62.72 15.36 30.123 39.851 54.613 69.973 69.931 18.944 9.643 39.424 13.696 62.72 15.616 22.656 1.835 50.645 1.835 85.333 1.835h9.899c0.006 0 0.014 0 0.021 0 17.673 0 32-14.327 32-32 0-17.666-14.315-31.988-31.978-32h-0.001z" />
<glyph unicode="&#xe942;" d="M128 558.933c0 95.573 0 143.36 18.603 179.883 16.678 32.26 42.321 57.903 73.631 74.133l0.95 0.448c36.523 18.603 84.309 18.603 179.883 18.603h221.867c95.573 0 143.36 0 179.883-18.603 32.26-16.678 57.903-42.321 74.133-73.631l0.448-0.95c18.603-36.523 18.603-84.309 18.603-179.883v-221.867c0-95.573 0-143.36-18.603-179.883-16.678-32.26-42.321-57.903-73.631-74.133l-0.95-0.448c-36.523-18.603-84.309-18.603-179.883-18.603h-221.867c-95.573 0-143.36 0-179.883 18.603-32.26 16.678-57.903 42.321-74.133 73.631l-0.448 0.95c-18.603 36.523-18.603 84.309-18.603 179.883v221.867z" />
<glyph unicode="&#xe943;" d="M399.659 864h224.683c46.592 0 83.541 0 113.28-2.432 30.464-2.475 56.192-7.68 79.744-19.669 38.324-19.791 68.785-50.252 88.045-87.448l0.531-1.128c11.947-23.509 17.152-49.237 19.627-79.701 2.432-29.739 2.432-66.688 2.432-113.28v-224.683c0-46.592 0-83.541-2.432-113.28-2.475-30.464-7.68-56.192-19.669-79.744-19.8-38.306-50.24-68.759-87.406-88.044l-1.127-0.532c-23.552-11.947-49.28-17.152-79.744-19.627-29.739-2.432-66.688-2.432-113.28-2.432h-224.683c-46.592 0-83.541 0-113.28 2.432-30.464 2.475-56.235 7.68-79.701 19.669-38.326 19.789-68.795 50.231-88.087 87.406l-0.532 1.127c-11.947 23.552-17.152 49.28-19.627 79.744-2.432 29.739-2.432 66.688-2.432 113.28v224.683c0 46.592 0 83.541 2.432 113.28 2.475 30.464 7.68 56.235 19.669 79.701 19.804 38.328 50.26 68.797 87.448 88.086l1.128 0.532c23.509 11.947 49.237 17.152 79.701 19.627 29.739 2.432 66.688 2.432 113.28 2.432zM235.733 784.896h-0.043c-26.192-13.569-47.018-34.395-60.222-59.815l-0.365-0.772c-6.613-13.013-10.752-29.44-12.885-55.893-2.219-26.837-2.219-61.184-2.219-109.483v-221.867c0-48.299 0.043-82.603 2.219-109.483 2.176-26.453 6.272-42.88 12.885-55.893 13.569-26.192 34.395-47.018 59.815-60.222l0.772-0.365c13.013-6.613 29.44-10.752 55.893-12.885 26.837-2.219 61.184-2.219 109.483-2.219h221.867c48.299 0 82.603 0.043 109.483 2.219 26.453 2.176 42.88 6.272 55.893 12.885 26.192 13.569 47.018 34.395 60.222 59.815l0.365 0.772c6.613 13.013 10.752 29.44 12.885 55.893 2.219 26.837 2.219 61.141 2.219 109.483v221.867c0 48.299-0.043 82.603-2.219 109.483-2.176 26.453-6.272 42.88-12.885 55.893-13.569 26.192-34.395 47.018-59.815 60.222l-0.772 0.365c-13.013 6.613-29.44 10.752-55.893 12.885-26.837 2.219-61.141 2.219-109.483 2.219h-221.867c-48.299 0-82.603-0.043-109.483-2.219-26.496-2.176-42.88-6.272-55.851-12.885zM640 544h-8.533c-36.395 0-61.739-0.043-81.451-1.621-19.371-1.579-30.507-4.565-38.912-8.832-18.091-9.216-32.768-23.893-41.984-41.941-4.267-8.448-7.253-19.584-8.832-38.912-1.621-19.755-1.621-45.099-1.621-81.493v-16.64l30.72 30.72c5.853 6.29 14.177 10.212 23.418 10.212 14.866 0 27.361-10.151 30.933-23.899l0.049-0.222c0.636-2.381 1.001-5.115 1.001-7.934 0-9.223-3.907-17.533-10.155-23.366l-0.019-0.017-85.333-85.333c-5.789-5.782-13.784-9.359-22.613-9.359s-16.824 3.576-22.614 9.359v0l-85.333 85.333c-5.321 5.705-8.587 13.386-8.587 21.831 0 8.834 3.575 16.832 9.356 22.629l-0.001-0.001c5.796 5.781 13.794 9.355 22.628 9.355 8.444 0 16.126-3.267 21.85-8.605l-0.019 0.017 30.72-30.72v18.005c0 34.688 0 62.677 1.835 85.333 1.92 23.296 5.931 43.776 15.573 62.763 15.658 30.234 39.716 54.264 69.081 69.468l0.892 0.42c18.944 9.643 39.424 13.696 62.72 15.616 22.656 1.835 50.645 1.835 85.333 1.835h9.899c17.673 0 32-14.327 32-32s-14.327-32-32-32v0z" />
<glyph unicode="&#xe944;" glyph-name="arrow-bend-left-down-small-duotone" d="M757.333 661.333c0-17.673-14.327-32-32-32v0h-25.6c-48.299 0-82.645 0-109.483-2.219-26.453-2.133-42.88-6.272-55.893-12.885-26.192-13.569-47.018-34.395-60.222-59.815l-0.365-0.772c-6.613-13.013-10.709-29.44-12.885-55.893-2.176-26.88-2.219-61.184-2.219-109.483v-76.373l73.387 73.387c5.853 6.29 14.177 10.212 23.418 10.212 14.866 0 27.361-10.151 30.933-23.899l0.049-0.222c0.636-2.381 1.001-5.115 1.001-7.934 0-9.223-3.907-17.533-10.155-23.366l-0.019-0.017-128-128c-5.789-5.782-13.784-9.359-22.613-9.359s-16.824 3.576-22.614 9.359v0l-128 128c-6.29 5.853-10.212 14.177-10.212 23.418 0 14.866 10.151 27.361 23.899 30.933l0.222 0.049c2.381 0.636 5.115 1.001 7.934 1.001 9.223 0 17.533-3.907 23.366-10.155l0.017-0.019 73.387-73.387v77.781c0 46.592 0 83.541 2.432 113.28 2.475 30.464 7.68 56.192 19.627 79.701 19.821 38.316 50.291 68.772 87.489 88.044l1.129 0.532c23.467 11.989 49.237 17.195 79.701 19.669 29.739 2.432 66.688 2.432 113.28 2.432h27.008c17.673 0 32-14.327 32-32v0z" />
<glyph unicode="&#xe945;" d="M744.533 106.667h-465.067c-77.653 0-116.523 0-138.965 16.299-19.070 13.982-32.025 35.337-34.655 59.784l-0.033 0.376c-2.901 27.605 16.555 61.227 55.467 128.469l232.533 401.664c38.827 66.987 58.197 100.48 83.499 111.744 10.202 4.655 22.128 7.368 34.688 7.368s24.486-2.713 35.224-7.586l-0.536 0.218c25.301-11.264 44.672-44.8 83.456-111.787l232.533-401.621c38.912-67.243 58.411-100.864 55.509-128.427-2.663-24.823-15.618-46.178-34.45-59.993l-0.238-0.167c-22.443-16.341-61.269-16.341-138.965-16.341z" />
</font>
</defs>
</svg>
