<svg xmlns="http://www.w3.org/2000/svg" viewBox="0 0 24 24"><path fill="#151E28" d="M2.25 12A9.75 9.75 0 0 1 12 2.25 9.75 9.75 0 0 1 21.75 12 9.75 9.75 0 0 1 12 21.75 9.75 9.75 0 0 1 2.25 12ZM10 8.25a.75.75 0 0 0 0 1.5h2.599l-3.223 4.834A.75.75 0 0 0 10 15.75h4a.75.75 0 0 0 0-1.5h-2.599l3.223-4.834A.75.75 0 0 0 14 8.25Zm9.53-6.78 3 3a.749.749 0 0 1-.326 1.275.749.749 0 0 1-.734-.215l-3-3a.749.749 0 0 1 .326-1.275.749.749 0 0 1 .734.215Zm-14 1.06-3 3a.751.751 0 0 1-1.042-.018.751.751 0 0 1-.018-1.042l3-3a.751.751 0 0 1 1.042.018.751.751 0 0 1 .018 1.042Z"/></svg>