<svg xmlns="http://www.w3.org/2000/svg" viewBox="0 0 24 24"><path fill="#151E28" d="M12.03 2.25c5.371.017 9.72 4.376 9.72 9.75A9.75 9.75 0 0 1 12 21.75 9.75 9.75 0 0 1 2.25 12c0-5.374 4.349-9.733 9.72-9.75Zm-1.28 4.11h.001l4.277.184 3.282.142a8.234 8.234 0 0 0-5.905-2.926Zm8.59 1.872-3.08-.133.187.357.014.027.978 1.876.014.028.786 1.508 1.52 2.916a8.234 8.234 0 0 0 .491-2.81 8.213 8.213 0 0 0-.91-3.77ZM4.66 15.77l3.079.133-1.979-3.797-1.52-2.915a8.233 8.233 0 0 0-.49 2.81 8.209 8.209 0 0 0 .91 3.769Zm14.274.703-1.425-2.733-.205.323-.027.043-1.136 1.785-.027.042-.903 1.42-1.764 2.772a8.258 8.258 0 0 0 5.487-3.652Zm-7.34 3.768 1.654-2.598-.393-.017-.04-.002-2.112-.09c-.013-.002-.026-.002-.04-.003l-1.691-.073-3.282-.142a8.236 8.236 0 0 0 5.904 2.925ZM5.066 7.529l1.424 2.732 2.298-3.612 1.764-2.772a8.256 8.256 0 0 0-5.486 3.652Z"/></svg>