<svg xmlns="http://www.w3.org/2000/svg" viewBox="0 0 24 24"><path fill="#151E28" d="M9.253 2.25h5.494c.419 0 .748 0 1.066.076.281.068.549.179.795.33.28.17.512.403.808.7l.052.051 3.126 3.125.05.052c.296.295.53.528.7.808.151.246.262.514.33.794.076.319.076.648.076 1.067v5.494c0 .419 0 .748-.076 1.066a2.759 2.759 0 0 1-.33.795c-.17.28-.403.512-.7.808l-.051.052-3.125 3.126-.052.05c-.296.296-.528.53-.808.7a2.759 2.759 0 0 1-.795.33c-.318.076-.647.076-1.066.076H9.253c-.419 0-.748 0-1.067-.076a2.737 2.737 0 0 1-.794-.33c-.28-.17-.513-.403-.808-.7l-.052-.051-3.126-3.125-.05-.052c-.297-.296-.53-.528-.7-.808a2.693 2.693 0 0 1-.33-.795c-.076-.318-.076-.647-.076-1.066V9.253c0-.419 0-.748.076-1.067.068-.28.179-.548.33-.794.17-.28.403-.513.7-.808l.051-.052 3.125-3.126.052-.05c.295-.297.528-.53.808-.7.246-.151.514-.262.794-.33.319-.076.648-.076 1.067-.076Zm.269 6.595a.75.75 0 1 0-.574-1.386 2.75 2.75 0 0 0-1.489 1.489c-.12.29-.167.59-.188.907-.021.304-.021.675-.021 1.12v1.855c0 .535 0 .98.03 1.345.03.38.098.736.27 1.074.264.517.685.938 1.202 1.201.337.172.693.24 1.073.27.365.03.81.03 1.345.03h1.855c.445 0 .816 0 1.12-.02.318-.022.617-.069.907-.19a2.754 2.754 0 0 0 1.489-1.487.75.75 0 1 0-1.386-.575c-.127.307-.37.55-.677.677-.077.032-.194.061-.435.078-.247.017-.567.017-1.043.017h-1.8c-.572 0-.957 0-1.253-.025-.287-.023-.424-.065-.514-.111a1.255 1.255 0 0 1-.547-.546c-.046-.091-.088-.228-.111-.515-.024-.296-.025-.68-.025-1.253V11c0-.476 0-.796.017-1.043.017-.24.046-.358.078-.435.127-.307.37-.55.677-.677ZM15.15 12a.75.75 0 0 0-.75-.75h-.59l2.72-2.72a.749.749 0 0 0-.326-1.275.749.749 0 0 0-.734.215l-2.72 2.72V9.6a.75.75 0 0 0-1.5 0V12c0 .414.336.75.75.75h2.4a.75.75 0 0 0 .75-.75Z"/></svg>