<svg xmlns="http://www.w3.org/2000/svg" viewBox="0 0 24 24"><path fill="#151E28" d="M12 1.25c5.937 0 10.75 4.813 10.75 10.75S17.937 22.75 12 22.75 1.25 17.937 1.25 12 6.063 1.25 12 1.25Zm-4 15.5a.75.75 0 0 0 .75-.75v-.2c0-.853 0-1.447.038-1.91.037-.453.107-.714.207-.912.216-.423.56-.767.984-.983.197-.1.458-.17.912-.207.343-.028.758-.035 1.297-.037l-.718.719a.751.751 0 0 0 .018 1.042.751.751 0 0 0 1.042.018l2-2a.75.75 0 0 0 0-1.06l-2-2a.751.751 0 0 0-1.042.018.751.751 0 0 0-.018 1.042l.72.72c-.553.003-1.023.01-1.421.043-.547.045-1.027.14-1.471.366a3.752 3.752 0 0 0-1.64 1.638c-.226.445-.32.925-.365 1.471-.043.531-.043 1.187-.043 2V16c0 .414.336.75.75.75Zm6.47-3.22a.75.75 0 0 0 1.06 0l2-2a.75.75 0 0 0 0-1.06l-2-2a.749.749 0 0 0-1.275.326.749.749 0 0 0 .215.734L15.94 11l-1.47 1.47a.75.75 0 0 0 0 1.06Z"/></svg>