<svg xmlns="http://www.w3.org/2000/svg" viewBox="0 0 24 24"><path fill="#151E28" d="M13.117 2.479c.485.216.844.614 1.168 1.071.321.455.676 1.067 1.114 1.825l.019.033 5.45 9.413.02.033c.44.76.796 1.375 1.03 1.881.236.51.403 1.021.348 1.55a2.75 2.75 0 0 1-1.118 1.939c-.43.313-.955.424-1.515.475-.555.051-1.267.051-2.145.051H6.512c-.878 0-1.589 0-2.145-.051-.559-.051-1.085-.162-1.515-.475a2.749 2.749 0 0 1-1.119-1.938c-.054-.53.113-1.04.35-1.55.233-.507.59-1.122 1.03-1.882l.018-.033 5.45-9.413.02-.033c.438-.757.793-1.371 1.115-1.825.323-.457.682-.855 1.167-1.071a2.75 2.75 0 0 1 2.234 0ZM15 17.75A1.75 1.75 0 0 0 16.75 16v-3.477c0-1.585-1.94-2.353-3.025-1.198l-.106.112-.346-.346a1.75 1.75 0 0 0-2.475 0l-.707.707a1.75 1.75 0 0 0 0 2.475l.346.346-.112.106c-1.155 1.086-.387 3.025 1.198 3.025Zm.25-1.75a.25.25 0 0 1-.25.25h-3.477a.25.25 0 0 1-.17-.432l.675-.636a.75.75 0 0 0 .017-1.077l-.893-.893a.25.25 0 0 1 0-.353l.707-.707a.25.25 0 0 1 .353 0l.893.893a.75.75 0 0 0 1.077-.017l.636-.676a.25.25 0 0 1 .432.171Zm-7.28-3.848a.75.75 0 0 0 1.06 0l2.122-2.122a.75.75 0 0 0-1.061-1.06L7.97 11.09a.75.75 0 0 0 0 1.06Z"/></svg>