<svg xmlns="http://www.w3.org/2000/svg" viewBox="0 0 24 24"><path fill="#151E28" d="M9.53 19.53a.75.75 0 0 1-1.06 0l-5-5a.749.749 0 0 1 .326-1.275.749.749 0 0 1 .734.215l3.72 3.72V9.366c0-1.092 0-1.958.057-2.655.058-.714.18-1.317.46-1.868a4.752 4.752 0 0 1 2.077-2.076c.55-.281 1.154-.403 1.868-.461.697-.057 1.563-.057 2.655-.057H20a.75.75 0 0 1 0 1.5h-4.6c-1.133 0-1.937 0-2.566.052-.62.05-1.005.147-1.31.302a3.258 3.258 0 0 0-1.42 1.42c-.155.305-.251.69-.302 1.31-.051.63-.052 1.434-.052 2.566v7.79l3.72-3.72a.749.749 0 0 1 1.275.326.749.749 0 0 1-.215.734l-5 5Z"/></svg>