<svg xmlns="http://www.w3.org/2000/svg" viewBox="0 0 24 24"><path fill="#151E28" d="M13.117 2.479c.485.216.844.614 1.168 1.071.321.455.676 1.067 1.114 1.825l.019.033 5.45 9.413.02.033c.44.76.796 1.375 1.03 1.881.236.51.403 1.021.348 1.55a2.75 2.75 0 0 1-1.118 1.939c-.43.313-.955.424-1.515.475-.555.051-1.267.051-2.145.051H6.512c-.878 0-1.589 0-2.145-.051-.559-.051-1.085-.162-1.515-.475a2.749 2.749 0 0 1-1.119-1.938c-.054-.53.113-1.04.35-1.55.233-.507.59-1.122 1.03-1.882l.018-.033 5.45-9.413.02-.033c.438-.757.793-1.371 1.115-1.825.323-.457.682-.855 1.167-1.071a2.75 2.75 0 0 1 2.234 0Zm-.228 8.271.166.001c.296.013.564.128.772.311a.75.75 0 0 0 .992-1.124 2.745 2.745 0 0 0-1.699-.685c-.06-.003-.128-.003-.215-.003H11.17c-.535 0-.98 0-1.345.03-.38.03-.736.098-1.073.27a2.75 2.75 0 0 0-1.202 1.2c-.172.338-.24.694-.27 1.074-.03.365-.03.81-.03 1.345v1.735a2.744 2.744 0 0 0 .688 1.914.75.75 0 0 0 1.124-.992 1.245 1.245 0 0 1-.31-.772c-.002-.055-.002-.111-.002-.166V13.2c0-.572 0-.957.025-1.252.023-.288.065-.425.111-.516.12-.235.312-.426.547-.546.09-.046.227-.088.514-.111.296-.024.68-.025 1.253-.025Zm.111 3a.75.75 0 0 0 0-1.5h-2a.75.75 0 0 0-.75.75v2a.75.75 0 0 0 1.5 0v-.19l2.72 2.72a.749.749 0 0 0 1.275-.326.749.749 0 0 0-.215-.734l-2.72-2.72Z"/></svg>