<svg xmlns="http://www.w3.org/2000/svg" viewBox="0 0 24 24"><path fill="#151E28" d="M13.117 2.479c.485.216.844.614 1.168 1.071.321.455.676 1.067 1.114 1.825l.019.033 5.45 9.413.02.033c.44.76.796 1.375 1.03 1.881.236.51.403 1.021.348 1.55a2.75 2.75 0 0 1-1.118 1.939c-.43.313-.955.424-1.515.475-.555.051-1.267.051-2.145.051H6.512c-.878 0-1.589 0-2.145-.051-.559-.051-1.085-.162-1.515-.475a2.749 2.749 0 0 1-1.119-1.938c-.054-.53.113-1.04.35-1.55.233-.507.59-1.122 1.03-1.882l.018-.033 5.45-9.413.02-.033c.438-.757.793-1.371 1.115-1.825.323-.457.682-.855 1.167-1.071a2.75 2.75 0 0 1 2.234 0ZM12 17.25a.75.75 0 0 0 0 1.5h.83c.535 0 .98 0 1.345-.03.38-.03.736-.098 1.073-.27a2.752 2.752 0 0 0 1.202-1.201c.172-.338.24-.694.27-1.074.03-.365.03-.81.03-1.344V13.17c0-.535 0-.98-.03-1.345-.03-.38-.098-.736-.27-1.073a2.75 2.75 0 0 0-1.2-1.202c-.338-.172-.694-.24-1.074-.27-.365-.03-.81-.03-1.345-.03H12a.75.75 0 0 0 0 1.5h.8c.572 0 .957 0 1.252.025.288.023.425.065.516.111.235.12.426.311.546.546.046.091.088.228.111.515.024.296.025.68.025 1.253v1.6c0 .572 0 .957-.025 1.252-.023.288-.065.425-.111.515-.12.235-.311.427-.546.547-.091.046-.228.088-.515.111-.296.024-.68.025-1.253.025Zm-4.53-2.72 2 2a.749.749 0 0 0 1.275-.326.749.749 0 0 0-.215-.734l-.72-.72H13a.75.75 0 0 0 0-1.5H9.81l.72-.72a.751.751 0 0 0-.018-1.042.751.751 0 0 0-1.042-.018l-2 2a.75.75 0 0 0 0 1.06Z"/></svg>