<svg xmlns="http://www.w3.org/2000/svg" viewBox="0 0 24 24"><path fill="#151E28" d="M9.253 2.25h5.494c.419 0 .748 0 1.066.076.281.068.549.179.795.33.28.17.512.403.808.7l.052.051 3.126 3.125.05.052c.296.295.53.528.7.808.151.246.262.514.33.794.076.319.076.648.076 1.067v5.494c0 .419 0 .748-.076 1.066a2.759 2.759 0 0 1-.33.795c-.17.28-.403.512-.7.808l-.051.052-3.125 3.126-.052.05c-.296.296-.528.53-.808.7a2.759 2.759 0 0 1-.795.33c-.318.076-.647.076-1.066.076H9.253c-.419 0-.748 0-1.067-.076a2.737 2.737 0 0 1-.794-.33c-.28-.17-.513-.403-.808-.7l-.052-.051-3.126-3.125-.05-.052c-.297-.296-.53-.528-.7-.808a2.693 2.693 0 0 1-.33-.795c-.076-.318-.076-.647-.076-1.066V9.253c0-.419 0-.748.076-1.067.068-.28.179-.548.33-.794.17-.28.403-.513.7-.808l.051-.052 3.125-3.126.052-.05c.295-.297.528-.53.808-.7.246-.151.514-.262.794-.33.319-.076.648-.076 1.067-.076Zm7.204 12.005.093-3.429c.043-1.581-1.868-2.403-2.987-1.285l-.17.17-1.777-1.777a1.75 1.75 0 0 0-2.475 0l-.707.708a1.75 1.75 0 0 0 0 2.474l1.777 1.777-.17.17c-1.118 1.12-.296 3.03 1.285 2.987l3.429-.092h.001a1.751 1.751 0 0 0 1.701-1.703Zm-1.499-.04a.25.25 0 0 1-.243.243l-3.43.093a.249.249 0 0 1-.236-.151.248.248 0 0 1 .053-.276l.7-.7a.75.75 0 0 0 0-1.06l-2.307-2.308a.25.25 0 0 1 0-.354l.707-.707a.25.25 0 0 1 .354 0l2.307 2.308a.75.75 0 0 0 1.06 0l.7-.7a.249.249 0 0 1 .276-.054c.095.04.155.134.152.237Z"/></svg>