<svg xmlns="http://www.w3.org/2000/svg" viewBox="0 0 24 24"><path fill="#151E28" d="M9.367 2.25h5.266c1.092 0 1.958 0 2.655.057.714.058 1.317.18 1.869.461a4.744 4.744 0 0 1 2.076 2.076c.28.551.402 1.154.46 1.868.057.697.057 1.563.057 2.655v5.266c0 1.092 0 1.958-.057 2.655-.058.714-.18 1.317-.461 1.869a4.752 4.752 0 0 1-2.075 2.076c-.552.28-1.155.402-1.869.46-.697.057-1.563.057-2.655.057H9.367c-1.092 0-1.958 0-2.655-.057-.714-.058-1.318-.18-1.868-.461a4.75 4.75 0 0 1-2.077-2.075c-.28-.552-.402-1.155-.46-1.869-.057-.697-.057-1.563-.057-2.655V9.367c0-1.092 0-1.958.057-2.655.058-.714.18-1.318.461-1.868a4.752 4.752 0 0 1 2.076-2.077c.551-.28 1.154-.402 1.868-.46.697-.057 1.563-.057 2.655-.057ZM7.543 9.745v-.001l-.093 3.43c-.043 1.581 1.868 2.403 2.987 1.285l.17-.17.363.363a1.75 1.75 0 0 0 2.475 0l.707-.708a1.75 1.75 0 0 0 0-2.474l-.363-.363.17-.17c1.118-1.119.296-3.03-1.284-2.987l-3.43.093a1.75 1.75 0 0 0-1.702 1.702Zm1.742-.203 3.43-.093a.249.249 0 0 1 .237.152.249.249 0 0 1-.054.276l-.7.7a.75.75 0 0 0 0 1.06l.893.893a.25.25 0 0 1 0 .354l-.707.707a.25.25 0 0 1-.354 0l-.893-.893a.75.75 0 0 0-1.061 0l-.7.7a.248.248 0 0 1-.276.053.249.249 0 0 1-.151-.236l.093-3.43a.25.25 0 0 1 .243-.243Zm3.806 7.231a.75.75 0 0 0 1.061 0l2.121-2.122a.75.75 0 0 0-1.061-1.06l-2.121 2.122a.75.75 0 0 0 0 1.06Z"/></svg>