<svg xmlns="http://www.w3.org/2000/svg" viewBox="0 0 24 24"><path fill="#151E28" d="M15.1 7.182A1.75 1.75 0 0 1 16.818 8.9l.087 4.896c.029 1.574-1.874 2.382-2.987 1.269l-.688-.689-1.033 1.033a1.75 1.75 0 0 1-2.475 0l-1.131-1.131a1.75 1.75 0 0 1 0-2.475l1.033-1.033-.689-.688c-1.113-1.113-.305-3.016 1.27-2.987Zm.218 1.745a.25.25 0 0 0-.245-.245l-4.896-.088a.25.25 0 0 0-.181.427l1.219 1.219a.75.75 0 0 1 0 1.06l-1.563 1.563a.25.25 0 0 0 0 .354l1.131 1.131a.25.25 0 0 0 .354 0l1.563-1.563a.75.75 0 0 1 1.06 0l1.219 1.219a.25.25 0 0 0 .427-.181ZM6.47 13.924a.75.75 0 0 1 1.06 0l2.546 2.546a.751.751 0 0 1-.018 1.042.751.751 0 0 1-1.042.018L6.47 14.985a.75.75 0 0 1 0-1.06Z"/></svg>