<svg xmlns="http://www.w3.org/2000/svg" viewBox="0 0 24 24"><path fill="#151E28" d="M9.253 2.25h5.494c.419 0 .748 0 1.066.076.281.068.549.179.795.33.28.17.512.403.808.7l.052.051 3.126 3.125.05.052c.296.295.53.528.7.808.151.246.262.514.33.794.076.319.076.648.076 1.067v5.494c0 .419 0 .748-.076 1.066a2.759 2.759 0 0 1-.33.795c-.17.28-.403.512-.7.808l-.051.052-3.125 3.126-.052.05c-.296.296-.528.53-.808.7a2.759 2.759 0 0 1-.795.33c-.318.076-.647.076-1.066.076H9.253c-.419 0-.748 0-1.067-.076a2.737 2.737 0 0 1-.794-.33c-.28-.17-.513-.403-.808-.7l-.052-.051-3.126-3.125-.05-.052c-.297-.296-.53-.528-.7-.808a2.693 2.693 0 0 1-.33-.795c-.076-.318-.076-.647-.076-1.066V9.253c0-.419 0-.748.076-1.067.068-.28.179-.548.33-.794.17-.28.403-.513.7-.808l.051-.052 3.125-3.126.052-.05c.295-.297.528-.53.808-.7.246-.151.514-.262.794-.33.319-.076.648-.076 1.067-.076Zm2.747 13h-.8c-.573 0-.957-.001-1.253-.025-.287-.023-.424-.065-.514-.111a1.25 1.25 0 0 1-.547-.546c-.046-.091-.088-.228-.111-.516-.025-.295-.025-.68-.025-1.252v-1.6c0-.573.001-.957.025-1.253.023-.287.065-.424.111-.514.12-.236.311-.427.547-.547.09-.046.227-.088.514-.111.296-.025.681-.025 1.253-.025h.8a.75.75 0 0 0 0-1.5h-.83c-.535 0-.98 0-1.345.03-.38.03-.736.098-1.073.27A2.749 2.749 0 0 0 7.55 8.752c-.172.337-.24.693-.27 1.073-.03.365-.03.81-.03 1.345v1.661c0 .535 0 .98.03 1.345.03.38.098.736.27 1.074a2.75 2.75 0 0 0 1.202 1.2c.337.172.693.24 1.073.27.365.03.81.03 1.345.03H12a.75.75 0 0 0 0-1.5Zm-1.551-2.741 1.846 2a.75.75 0 0 0 1.102-1.018l-.684-.741H16a.75.75 0 0 0 0-1.5h-3.287l.684-.741a.75.75 0 0 0-1.102-1.018l-1.846 2a.75.75 0 0 0 0 1.018Z"/></svg>