<svg xmlns="http://www.w3.org/2000/svg" viewBox="0 0 24 24"><path fill="#151E28" d="M9.253 2.25h5.494c.419 0 .748 0 1.066.076.281.068.549.179.795.33.28.17.512.403.808.7l.052.051 3.126 3.125.05.052c.296.295.53.528.7.808.151.246.262.514.33.794.076.319.076.648.076 1.067v5.494c0 .419 0 .748-.076 1.066a2.759 2.759 0 0 1-.33.795c-.17.28-.403.512-.7.808l-.051.052-3.125 3.126-.052.05c-.296.296-.528.53-.808.7a2.759 2.759 0 0 1-.795.33c-.318.076-.647.076-1.066.076H9.253c-.419 0-.748 0-1.067-.076a2.737 2.737 0 0 1-.794-.33c-.28-.17-.513-.403-.808-.7l-.052-.051-3.126-3.125-.05-.052c-.297-.296-.53-.528-.7-.808a2.693 2.693 0 0 1-.33-.795c-.076-.318-.076-.647-.076-1.066V9.253c0-.419 0-.748.076-1.067.068-.28.179-.548.33-.794.17-.28.403-.513.7-.808l.051-.052 3.125-3.126.052-.05c.295-.297.528-.53.808-.7.246-.151.514-.262.794-.33.319-.076.648-.076 1.067-.076ZM8 16.75a.75.75 0 0 0 .75-.75v-.2c0-.853 0-1.447.038-1.91.037-.453.107-.714.207-.912.216-.423.56-.767.984-.983.197-.1.458-.17.912-.207.343-.028.758-.035 1.297-.037l-.718.719a.751.751 0 0 0 .018 1.042.751.751 0 0 0 1.042.018l2-2a.75.75 0 0 0 0-1.06l-2-2a.751.751 0 0 0-1.042.018.751.751 0 0 0-.018 1.042l.72.72c-.553.003-1.023.01-1.421.043-.547.045-1.027.14-1.471.366a3.752 3.752 0 0 0-1.64 1.638c-.226.445-.32.925-.365 1.471-.043.531-.043 1.187-.043 2V16c0 .414.336.75.75.75Zm6.47-3.22a.75.75 0 0 0 1.06 0l2-2a.75.75 0 0 0 0-1.06l-2-2a.749.749 0 0 0-1.275.326.749.749 0 0 0 .215.734L15.94 11l-1.47 1.47a.75.75 0 0 0 0 1.06Z"/></svg>