<svg xmlns="http://www.w3.org/2000/svg" viewBox="0 0 24 24"><path fill="#151E28" d="M12 1.25c5.937 0 10.75 4.813 10.75 10.75S17.937 22.75 12 22.75 1.25 17.937 1.25 12 6.063 1.25 12 1.25Zm4 15.5a.75.75 0 0 0 .75-.75v-.232c0-.813 0-1.469-.043-2-.045-.546-.139-1.026-.366-1.471a3.747 3.747 0 0 0-1.638-1.638c-.445-.226-.925-.321-1.472-.366-.398-.033-.868-.04-1.421-.043l.72-.72a.751.751 0 0 0-.018-1.042.751.751 0 0 0-1.042-.018l-2 2a.75.75 0 0 0 0 1.06l2 2a.751.751 0 0 0 1.042-.018.751.751 0 0 0 .018-1.042l-.718-.719c.433-.004.865.009 1.297.037.454.037.715.107.912.207.424.216.768.56.984.983.1.198.17.459.207.912.038.463.038 1.057.038 1.91v.2c0 .414.336.75.75.75Zm-6.47-3.22a.75.75 0 0 0 0-1.06L8.06 11l1.47-1.47a.749.749 0 0 0-.326-1.275.749.749 0 0 0-.734.215l-2 2a.75.75 0 0 0 0 1.06l2 2a.75.75 0 0 0 1.06 0Z"/></svg>