<svg xmlns="http://www.w3.org/2000/svg" viewBox="0 0 24 24"><path fill="#151E28" d="M13.117 2.479c.485.216.844.614 1.168 1.071.321.455.676 1.067 1.114 1.825l.019.033 5.45 9.413.02.033c.44.76.796 1.375 1.03 1.881.236.51.403 1.021.348 1.55a2.75 2.75 0 0 1-1.118 1.939c-.43.313-.955.424-1.515.475-.555.051-1.267.051-2.145.051H6.512c-.878 0-1.589 0-2.145-.051-.559-.051-1.085-.162-1.515-.475a2.749 2.749 0 0 1-1.119-1.938c-.054-.53.113-1.04.35-1.55.233-.507.59-1.122 1.03-1.882l.018-.033 5.45-9.413.02-.033c.438-.757.793-1.371 1.115-1.825.323-.457.682-.855 1.167-1.071a2.75 2.75 0 0 1 2.234 0Zm2.34 9.266a1.75 1.75 0 0 0-1.702-1.702l-3.43-.093c-1.58-.043-2.402 1.868-1.284 2.987l.17.17-1.777 1.777a1.75 1.75 0 0 0 0 2.475l.707.707a1.75 1.75 0 0 0 2.475 0l1.777-1.777.17.17c1.119 1.118 3.03.296 2.987-1.285l-.093-3.43Zm-1.742-.203a.25.25 0 0 1 .243.243l.092 3.43a.25.25 0 0 1-.426.183l-.7-.7a.75.75 0 0 0-1.061 0l-2.308 2.307a.25.25 0 0 1-.353 0l-.707-.707a.25.25 0 0 1 0-.353l2.307-2.308a.75.75 0 0 0 0-1.06l-.7-.7a.249.249 0 0 1-.054-.276.249.249 0 0 1 .237-.152Z"/></svg>