<svg xmlns="http://www.w3.org/2000/svg" viewBox="0 0 24 24"><path fill="#151E28" d="M9.367 2.25h5.266c1.092 0 1.958 0 2.655.057.714.058 1.317.18 1.869.461a4.744 4.744 0 0 1 2.076 2.076c.28.551.402 1.154.46 1.868.057.697.057 1.563.057 2.655v5.266c0 1.092 0 1.958-.057 2.655-.058.714-.18 1.317-.461 1.869a4.752 4.752 0 0 1-2.075 2.076c-.552.28-1.155.402-1.869.46-.697.057-1.563.057-2.655.057H9.367c-1.092 0-1.958 0-2.655-.057-.714-.058-1.318-.18-1.868-.461a4.75 4.75 0 0 1-2.077-2.075c-.28-.552-.402-1.155-.46-1.869-.057-.697-.057-1.563-.057-2.655V9.367c0-1.092 0-1.958.057-2.655.058-.714.18-1.318.461-1.868a4.752 4.752 0 0 1 2.076-2.077c.551-.28 1.154-.402 1.868-.46.697-.057 1.563-.057 2.655-.057ZM9 16.75a.75.75 0 0 0 .75-.75v-.2c0-.853 0-1.447.038-1.91.037-.453.107-.714.207-.912.216-.423.56-.767.984-.983.197-.1.458-.17.912-.207.462-.037 1.056-.038 1.909-.038h.39l-.72.72a.749.749 0 0 0 .326 1.275.749.749 0 0 0 .734-.215l2-2a.75.75 0 0 0 0-1.06l-2-2a.749.749 0 0 0-1.275.326.749.749 0 0 0 .215.734l.72.72h-.423c-.813 0-1.469 0-2 .043-.546.045-1.026.14-1.47.366a3.752 3.752 0 0 0-1.64 1.638c-.226.445-.32.925-.365 1.471-.043.531-.043 1.187-.043 2V16c0 .414.336.75.75.75Z"/></svg>