<svg xmlns="http://www.w3.org/2000/svg" viewBox="0 0 24 24"><path fill="#151E28" d="M13.117 2.479c.485.216.844.614 1.168 1.071.321.455.676 1.067 1.114 1.825l.019.033 5.45 9.413.02.033c.44.76.796 1.375 1.03 1.881.236.51.403 1.021.348 1.55a2.75 2.75 0 0 1-1.118 1.939c-.43.313-.955.424-1.515.475-.555.051-1.267.051-2.145.051H6.512c-.878 0-1.589 0-2.145-.051-.559-.051-1.085-.162-1.515-.475a2.749 2.749 0 0 1-1.119-1.938c-.054-.53.113-1.04.35-1.55.233-.507.59-1.122 1.03-1.882l.018-.033 5.45-9.413.02-.033c.438-.757.793-1.371 1.115-1.825.323-.457.682-.855 1.167-1.071a2.75 2.75 0 0 1 2.234 0ZM12 9.25a.749.749 0 0 0-.53.22l-1.334 1.333a.748.748 0 0 0 .332 1.265.75.75 0 0 0 .729-.205l.053-.052v.856a.75.75 0 0 0 1.5 0v-.856l.053.053a.748.748 0 0 0 1.265-.332.75.75 0 0 0-.205-.729L12.53 9.47a.749.749 0 0 0-.53-.22Zm2.136 3.947.053.053h-.856a.75.75 0 0 0 0 1.5h.856l-.053.053a.748.748 0 0 0 .332 1.265.75.75 0 0 0 .729-.205l1.333-1.333a.75.75 0 0 0 0-1.06l-1.333-1.334a.75.75 0 0 0-1.06 1.061Zm-4.272-1.061a.75.75 0 0 0-1.061 0L7.47 13.47a.75.75 0 0 0 0 1.06l1.333 1.334a.75.75 0 0 0 1.06-1.061l-.052-.053h.856a.75.75 0 0 0 0-1.5H9.81l.053-.053a.75.75 0 0 0 0-1.06ZM12 14.583a.75.75 0 0 0-.75.75v.856l-.053-.053a.75.75 0 0 0-1.06 1.061l1.333 1.333a.75.75 0 0 0 1.06 0l1.334-1.333a.75.75 0 0 0-1.061-1.06l-.053.052v-.856a.75.75 0 0 0-.75-.75Z"/></svg>