<svg xmlns="http://www.w3.org/2000/svg" viewBox="0 0 24 24"><path fill="#151E28" d="M13.117 2.479c.485.216.844.614 1.168 1.071.321.455.676 1.067 1.114 1.825l.019.033 5.45 9.413.02.033c.44.76.796 1.375 1.03 1.881.236.51.403 1.021.348 1.55a2.75 2.75 0 0 1-1.118 1.939c-.43.313-.955.424-1.515.475-.555.051-1.267.051-2.145.051H6.512c-.878 0-1.589 0-2.145-.051-.559-.051-1.085-.162-1.515-.475a2.749 2.749 0 0 1-1.119-1.938c-.054-.53.113-1.04.35-1.55.233-.507.59-1.122 1.03-1.882l.018-.033 5.45-9.413.02-.033c.438-.757.793-1.371 1.115-1.825.323-.457.682-.855 1.167-1.071a2.75 2.75 0 0 1 2.234 0Zm2.817 16.27v.001a.75.75 0 0 0 .76-.739l.011-.756v-.031c.008-.541.014-.991-.011-1.361-.026-.384-.09-.745-.26-1.088a2.75 2.75 0 0 0-1.203-1.22c-.34-.175-.701-.243-1.085-.275-.362-.03-.806-.03-1.336-.03l.72-.72a.751.751 0 0 0-.018-1.042.751.751 0 0 0-1.042-.018l-2 2a.75.75 0 0 0 0 1.06l2 2a.75.75 0 0 0 1.061-1.06l-.72-.72c.549 0 .923.001 1.213.025.29.024.429.067.52.114.237.122.428.316.547.554.046.092.086.232.106.522.021.3.016.689.007 1.269l-.01.755a.75.75 0 0 0 .74.76ZM10.53 16.53a.75.75 0 0 0 0-1.06L9.06 14l1.47-1.47a.751.751 0 0 0-.018-1.042.751.751 0 0 0-1.042-.018l-2 2a.75.75 0 0 0 0 1.06l2 2a.75.75 0 0 0 1.06 0Z"/></svg>