<svg xmlns="http://www.w3.org/2000/svg" viewBox="0 0 24 24"><path fill="#151E28" d="M12 1.25c5.937 0 10.75 4.813 10.75 10.75S17.937 22.75 12 22.75 1.25 17.937 1.25 12 6.063 1.25 12 1.25Zm3 7h-3.476c-1.586 0-2.354 1.939-1.199 3.025l.112.106-.346.346a1.75 1.75 0 0 0 0 2.475l.707.707a1.75 1.75 0 0 0 2.475 0l.346-.346.106.113c1.085 1.154 3.025.386 3.025-1.2V10A1.75 1.75 0 0 0 15 8.25Zm.25 1.75v3.477a.25.25 0 0 1-.432.171l-.636-.676a.75.75 0 0 0-1.077-.017l-.893.893a.25.25 0 0 1-.353 0l-.707-.707a.25.25 0 0 1 0-.353l.893-.893a.75.75 0 0 0-.017-1.077l-.676-.636a.25.25 0 0 1 .172-.432H15a.25.25 0 0 1 .25.25Zm-7.28 3.848v.002a.75.75 0 0 0 0 1.06l2.121 2.12a.75.75 0 1 0 1.061-1.06L9.03 13.848a.75.75 0 0 0-1.06 0Z"/></svg>