<svg xmlns="http://www.w3.org/2000/svg" viewBox="0 0 24 24"><path fill="#151E28" d="M12 1.25c5.937 0 10.75 4.813 10.75 10.75S17.937 22.75 12 22.75 1.25 17.937 1.25 12 6.063 1.25 12 1.25Zm-1.889 15.5a.75.75 0 0 0 0-1.5l-.166-.001a1.25 1.25 0 0 1-1.194-1.194l-.001-.166V11.2c0-.573.001-.957.025-1.253.023-.287.065-.424.111-.514.12-.236.311-.427.547-.547.09-.046.227-.088.514-.111.296-.025.681-.025 1.253-.025h2.689c.055-.001.111 0 .166.001a1.25 1.25 0 0 1 1.194 1.194l.001.166a.75.75 0 0 0 1.5 0v-.016c0-.088 0-.155-.003-.215a2.75 2.75 0 0 0-2.627-2.627c-.06-.003-.127-.003-.215-.003H11.17c-.535 0-.98 0-1.345.03-.38.03-.736.098-1.073.27A2.749 2.749 0 0 0 7.55 8.752c-.172.337-.24.693-.27 1.073-.03.365-.03.81-.03 1.345v2.735a2.75 2.75 0 0 0 2.63 2.842c.06.003.127.003.215.003ZM12.85 16c0 .414.336.75.75.75H16a.75.75 0 0 0 .75-.75v-2.4a.75.75 0 0 0-1.5 0v.59l-2.72-2.72a.749.749 0 0 0-1.275.326.749.749 0 0 0 .215.734l2.72 2.72h-.59a.75.75 0 0 0-.75.75Z"/></svg>