<svg xmlns="http://www.w3.org/2000/svg" viewBox="0 0 24 24"><path fill="#151E28" d="M12 1.25c5.937 0 10.75 4.813 10.75 10.75S17.937 22.75 12 22.75 1.25 17.937 1.25 12 6.063 1.25 12 1.25ZM8.75 13v-.8c0-.573.001-.957.025-1.253.023-.287.065-.424.111-.515.12-.235.312-.426.547-.546.09-.046.227-.088.514-.111.296-.025.681-.025 1.253-.025h1.6c.573 0 .957.001 1.253.025.287.023.424.065.515.111.235.12.426.311.546.546.046.091.088.228.111.516.025.295.025.68.025 1.252v.8a.75.75 0 0 0 1.5 0v-.83c0-.535 0-.98-.03-1.345-.03-.38-.098-.736-.27-1.073a2.749 2.749 0 0 0-1.202-1.202c-.337-.172-.693-.24-1.073-.27-.365-.03-.81-.03-1.345-.03h-1.66c-.535 0-.98 0-1.345.03-.38.03-.736.098-1.073.27A2.749 2.749 0 0 0 7.55 9.752c-.172.337-.24.693-.27 1.073-.03.365-.03.81-.03 1.345V13a.75.75 0 0 0 1.5 0Zm3.78-1.53a.75.75 0 0 0-1.06 0l-2 2a.749.749 0 0 0 .326 1.275.749.749 0 0 0 .734-.215l.72-.72V17a.75.75 0 0 0 1.5 0v-3.19l.72.72a.751.751 0 0 0 1.042-.018.751.751 0 0 0 .018-1.042Z"/></svg>