<svg xmlns="http://www.w3.org/2000/svg" viewBox="0 0 24 24"><path fill="#151E28" d="M9.253 2.25h5.494c.419 0 .748 0 1.066.076.281.068.549.179.795.33.28.17.512.403.808.7l.052.051 3.126 3.125.05.052c.296.295.53.528.7.808.151.246.262.514.33.794.076.319.076.648.076 1.067v5.494c0 .419 0 .748-.076 1.066a2.759 2.759 0 0 1-.33.795c-.17.28-.403.512-.7.808l-.051.052-3.125 3.126-.052.05c-.296.296-.528.53-.808.7a2.759 2.759 0 0 1-.795.33c-.318.076-.647.076-1.066.076H9.253c-.419 0-.748 0-1.067-.076a2.737 2.737 0 0 1-.794-.33c-.28-.17-.513-.403-.808-.7l-.052-.051-3.126-3.125-.05-.052c-.297-.296-.53-.528-.7-.808a2.693 2.693 0 0 1-.33-.795c-.076-.318-.076-.647-.076-1.066V9.253c0-.419 0-.748.076-1.067.068-.28.179-.548.33-.794.17-.28.403-.513.7-.808l.051-.052 3.125-3.126.052-.05c.295-.297.528-.53.808-.7.246-.151.514-.262.794-.33.319-.076.648-.076 1.067-.076ZM15 16.75h.001a.75.75 0 0 0 .75-.75v-.232c0-.813 0-1.469-.043-2-.045-.546-.139-1.026-.365-1.471a3.752 3.752 0 0 0-1.64-1.638c-.444-.226-.924-.321-1.47-.366-.531-.043-1.187-.043-2-.043H9.81l.72-.72a.749.749 0 0 0-.326-1.275.749.749 0 0 0-.734.215l-2 2a.75.75 0 0 0 0 1.06l2 2a.749.749 0 0 0 1.275-.326.749.749 0 0 0-.215-.734l-.72-.72h.39c.853 0 1.447.001 1.909.038.454.037.715.107.912.207.424.216.768.56.984.983.1.198.17.459.207.912.038.463.038 1.057.038 1.91v.2c0 .414.336.75.75.75Z"/></svg>