<svg xmlns="http://www.w3.org/2000/svg" viewBox="0 0 24 24"><path fill="#151E28" d="M12 6.25a.75.75 0 0 1 .75.75v10a.75.75 0 0 1-1.5 0V7a.75.75 0 0 1 .75-.75Zm7 6.5h-2.19l.72.72a.749.749 0 0 1-.326 1.275.749.749 0 0 1-.734-.215l-2-2a.75.75 0 0 1 0-1.06l2-2a.749.749 0 0 1 1.275.326.749.749 0 0 1-.215.734l-.72.72H19a.75.75 0 0 1 0 1.5ZM4.25 12a.75.75 0 0 1 .75-.75h2.19l-.72-.72a.751.751 0 0 1 .018-1.042.751.751 0 0 1 1.042-.018l2 2a.75.75 0 0 1 0 1.06l-2 2a.749.749 0 0 1-1.275-.326.749.749 0 0 1 .215-.734l.72-.72H5a.75.75 0 0 1-.75-.75Z"/></svg>