<svg xmlns="http://www.w3.org/2000/svg" viewBox="0 0 24 24"><path fill="#151E28" d="M9.367 2.25h5.266c1.092 0 1.958 0 2.655.057.714.058 1.317.18 1.869.461a4.744 4.744 0 0 1 2.076 2.076c.28.551.402 1.154.46 1.868.057.697.057 1.563.057 2.655v5.266c0 1.092 0 1.958-.057 2.655-.058.714-.18 1.317-.461 1.869a4.752 4.752 0 0 1-2.075 2.076c-.552.28-1.155.402-1.869.46-.697.057-1.563.057-2.655.057H9.367c-1.092 0-1.958 0-2.655-.057-.714-.058-1.318-.18-1.868-.461a4.75 4.75 0 0 1-2.077-2.075c-.28-.552-.402-1.155-.46-1.869-.057-.697-.057-1.563-.057-2.655V9.367c0-1.092 0-1.958.057-2.655.058-.714.18-1.318.461-1.868a4.752 4.752 0 0 1 2.076-2.077c.551-.28 1.154-.402 1.868-.46.697-.057 1.563-.057 2.655-.057Zm-2.26 10.954 2.36 2.49c1.087 1.148 3.02.378 3.02-1.204v-.24H15a1.75 1.75 0 0 0 1.75-1.75v-1A1.75 1.75 0 0 0 15 9.75h-2.513v-.24c0-1.582-1.933-2.352-3.02-1.204l-2.36 2.49a1.75 1.75 0 0 0 0 2.408Zm1.089-1.376 2.359-2.49a.25.25 0 0 1 .432.172v.99c0 .414.336.75.75.75H15a.25.25 0 0 1 .25.25v1a.25.25 0 0 1-.25.25h-3.264a.75.75 0 0 0-.75.75v.99a.252.252 0 0 1-.157.231.252.252 0 0 1-.273-.059l-2.36-2.49a.25.25 0 0 1 0-.344Z"/></svg>