<svg xmlns="http://www.w3.org/2000/svg" viewBox="0 0 24 24"><path fill="#151E28" d="M12 1.25c5.937 0 10.75 4.813 10.75 10.75S17.937 22.75 12 22.75 1.25 17.937 1.25 12 6.063 1.25 12 1.25Zm3 15.5A1.75 1.75 0 0 0 16.75 15v-3.476c0-1.586-1.94-2.354-3.025-1.2l-.106.113-.346-.346a1.75 1.75 0 0 0-2.475 0l-.707.707a1.75 1.75 0 0 0 0 2.475l.346.346-.112.106c-1.155 1.086-.387 3.025 1.199 3.025Zm.25-1.75a.25.25 0 0 1-.25.25h-3.476a.25.25 0 0 1-.172-.432l.676-.636a.75.75 0 0 0 .017-1.077l-.893-.893a.25.25 0 0 1 0-.353l.707-.707a.25.25 0 0 1 .353 0l.893.893a.75.75 0 0 0 1.077-.017l.636-.676a.25.25 0 0 1 .432.171Zm-7.28-3.848a.75.75 0 0 0 1.06 0l2.122-2.122a.748.748 0 0 0-.332-1.265.75.75 0 0 0-.729.205L7.97 10.09a.75.75 0 0 0 0 1.06Z"/></svg>