<svg xmlns="http://www.w3.org/2000/svg" viewBox="0 0 24 24"><path fill="#151E28" d="M9.253 2.25h5.494c.419 0 .748 0 1.066.076.281.068.549.179.795.33.28.17.512.403.808.7l.052.051 3.126 3.125.05.052c.296.295.53.528.7.808.151.246.262.514.33.794.076.319.076.648.076 1.067v5.494c0 .419 0 .748-.076 1.066a2.759 2.759 0 0 1-.33.795c-.17.28-.403.512-.7.808l-.051.052-3.125 3.126-.052.05c-.296.296-.528.53-.808.7a2.759 2.759 0 0 1-.795.33c-.318.076-.647.076-1.066.076H9.253c-.419 0-.748 0-1.067-.076a2.737 2.737 0 0 1-.794-.33c-.28-.17-.513-.403-.808-.7l-.052-.051-3.126-3.125-.05-.052c-.297-.296-.53-.528-.7-.808a2.693 2.693 0 0 1-.33-.795c-.076-.318-.076-.647-.076-1.066V9.253c0-.419 0-.748.076-1.067.068-.28.179-.548.33-.794.17-.28.403-.513.7-.808l.051-.052 3.125-3.126.052-.05c.295-.297.528-.53.808-.7.246-.151.514-.262.794-.33.319-.076.648-.076 1.067-.076Zm4.636 5a.75.75 0 0 0 0 1.5c.055-.001.111 0 .166.001a1.25 1.25 0 0 1 1.194 1.194l.001.166V12.8c0 .573-.001.957-.025 1.253-.023.287-.065.424-.111.515-.12.235-.311.426-.546.546-.091.046-.228.088-.516.111-.295.025-.68.025-1.252.025h-2.689l-.166-.001a1.25 1.25 0 0 1-1.194-1.194l-.001-.166a.75.75 0 0 0-1.5 0v.016c0 .088 0 .155.003.215a2.75 2.75 0 0 0 2.627 2.627c.06.003.127.003.215.003h2.735c.535 0 .98 0 1.345-.03.38-.03.736-.098 1.074-.27a2.752 2.752 0 0 0 1.201-1.202c.172-.337.24-.693.27-1.073.03-.365.03-.81.03-1.345v-2.735a2.747 2.747 0 0 0-2.845-2.845ZM11.15 8a.75.75 0 0 0-.75-.75H8a.75.75 0 0 0-.75.75v2.4a.75.75 0 0 0 1.5 0v-.59l2.72 2.72a.749.749 0 0 0 1.275-.326.749.749 0 0 0-.215-.734L9.81 8.75h.59a.75.75 0 0 0 .75-.75Z"/></svg>