<svg xmlns="http://www.w3.org/2000/svg" viewBox="0 0 24 24"><path fill="#151E28" d="M12 1.25c5.937 0 10.75 4.813 10.75 10.75S17.937 22.75 12 22.75 1.25 17.937 1.25 12 6.063 1.25 12 1.25Zm-1.889 6h-.016c-.087 0-.155 0-.215.003A2.75 2.75 0 0 0 7.253 9.88c-.003.06-.003.128-.003.215v2.735c0 .535 0 .98.03 1.345.03.38.098.736.27 1.073.264.518.684.938 1.202 1.202.337.172.693.24 1.073.27.365.03.81.03 1.345.03h2.735c.088 0 .155 0 .215-.003a2.75 2.75 0 0 0 2.627-2.627c.003-.06.003-.127.003-.215v-.016a.75.75 0 0 0-1.5 0l-.001.166a1.25 1.25 0 0 1-1.194 1.194 4.593 4.593 0 0 1-.166.001H11.2c-.572 0-.957 0-1.253-.025-.287-.023-.424-.065-.514-.111a1.255 1.255 0 0 1-.547-.546c-.046-.091-.088-.228-.111-.515-.024-.296-.025-.68-.025-1.253v-2.689l.001-.166a1.25 1.25 0 0 1 1.194-1.194l.166-.001a.75.75 0 0 0 0-1.5ZM12.85 8c0 .414.336.75.75.75h.59l-2.72 2.72a.749.749 0 0 0 .326 1.275.749.749 0 0 0 .734-.215l2.72-2.72v.59a.75.75 0 0 0 1.5 0V8a.75.75 0 0 0-.75-.75h-2.4a.75.75 0 0 0-.75.75Z"/></svg>