<svg xmlns="http://www.w3.org/2000/svg" viewBox="0 0 24 24"><path fill="#151E28" d="M9.325 2.25h5.422c.419 0 .748 0 1.067.076.28.068.548.179.794.33.28.17.513.404.808.7l.052.051 3.126 3.125.05.052c.297.296.53.528.7.808.151.246.262.514.33.795.076.318.076.647.076 1.066v5.494c0 .419 0 .748-.076 1.067a2.687 2.687 0 0 1-.33.794c-.17.28-.403.513-.7.808l-.051.052-3.125 3.126-.052.05c-.295.297-.528.53-.808.7a2.687 2.687 0 0 1-.794.33c-.319.076-.648.076-1.067.076H9.253c-.419 0-.748 0-1.066-.076a2.704 2.704 0 0 1-.795-.33c-.28-.17-.512-.403-.808-.7l-.052-.051-3.125-3.125-.051-.052c-.296-.295-.53-.528-.7-.808a2.737 2.737 0 0 1-.33-.794c-.076-.319-.076-.648-.076-1.067V9.253c0-.419 0-.748.076-1.066.068-.281.179-.549.33-.795.17-.28.404-.512.7-.808l.051-.052 3.125-3.125.052-.051c.296-.296.528-.53.808-.7.246-.151.514-.262.795-.33.318-.076.647-.076 1.066-.076h.072ZM8.25 14c0 .966.784 1.75 1.75 1.75h3.358c1.612 0 2.367-1.994 1.16-3.061l-.013-.011 1.743-1.744a1.75 1.75 0 0 0 0-2.475l-.707-.707a1.75 1.75 0 0 0-2.475 0l-1.743 1.744-.012-.013C10.244 8.275 8.25 9.03 8.25 10.642Zm1.75.25a.25.25 0 0 1-.25-.25v-3.358a.25.25 0 0 1 .437-.166l.54.61a.749.749 0 0 0 1.092.034l2.308-2.307a.25.25 0 0 1 .353 0l.707.707a.25.25 0 0 1 0 .354L12.88 12.18a.752.752 0 0 0 .034 1.092l.61.54a.25.25 0 0 1-.166.437H10Z"/></svg>