<svg xmlns="http://www.w3.org/2000/svg" viewBox="0 0 24 24"><path fill="#151E28" d="M9.367 2.25h5.266c1.092 0 1.958 0 2.655.057.714.058 1.317.18 1.869.461a4.744 4.744 0 0 1 2.076 2.076c.28.551.402 1.154.46 1.868.057.697.057 1.563.057 2.655v5.266c0 1.092 0 1.958-.057 2.655-.058.714-.18 1.317-.461 1.869a4.752 4.752 0 0 1-2.075 2.076c-.552.28-1.155.402-1.869.46-.697.057-1.563.057-2.655.057H9.367c-1.092 0-1.958 0-2.655-.057-.714-.058-1.318-.18-1.868-.461a4.75 4.75 0 0 1-2.077-2.075c-.28-.552-.402-1.155-.46-1.869-.057-.697-.057-1.563-.057-2.655V9.367c0-1.092 0-1.958.057-2.655.058-.714.18-1.318.461-1.868a4.752 4.752 0 0 1 2.076-2.077c.551-.28 1.154-.402 1.868-.46.697-.057 1.563-.057 2.655-.057Zm7.526 10.954a1.75 1.75 0 0 0 0-2.408l-2.36-2.49c-1.087-1.148-3.02-.378-3.02 1.204v.24H11a1.75 1.75 0 0 0-1.75 1.75v1c0 .966.784 1.75 1.75 1.75h.513v.24c0 1.582 1.933 2.352 3.02 1.204Zm-1.089-1.376a.25.25 0 0 1 0 .344l-2.36 2.49a.252.252 0 0 1-.273.059.252.252 0 0 1-.157-.231v-.99a.75.75 0 0 0-.75-.75H11a.25.25 0 0 1-.25-.25v-1a.25.25 0 0 1 .25-.25h1.263a.75.75 0 0 0 .75-.75v-.99a.25.25 0 0 1 .432-.172ZM8 14.25a.75.75 0 0 0 .75-.75v-3a.75.75 0 0 0-1.5 0v3c0 .414.336.75.75.75Z"/></svg>