<svg xmlns="http://www.w3.org/2000/svg" viewBox="0 0 24 24"><path fill="#151E28" d="M13.295 1.744a.745.745 0 0 1 .992-.437c.06.025.117.058.168.097L18.25 4.25h1.864a2.75 2.75 0 0 1 2.575 3.716l-1.477 3.939a7.255 7.255 0 0 0-.462 2.546V21A1.75 1.75 0 0 1 19 22.75h-2.18a1.75 1.75 0 0 1-1.716-1.407l-.856-4.281-.214 2.131-.002.029c-.049.484-.09.89-.15 1.222-.061.348-.153.67-.335.972-.28.466-.691.838-1.182 1.07-.319.15-.65.21-1 .238-.337.026-.745.026-1.232.026h-.266c-.487 0-.895 0-1.231-.026-.352-.028-.682-.087-1-.237a2.75 2.75 0 0 1-1.183-1.07c-.182-.303-.274-.625-.336-.973-.06-.331-.1-.738-.149-1.222l-.002-.029-.712-7.118A.628.628 0 0 1 5.25 12V2a.75.75 0 0 1 1.5 0v7.597a3.25 3.25 0 1 0 6.5 0V2c0-.09.016-.176.045-.256ZM14.75 3.5v6.689l.153-.152a7.255 7.255 0 0 0 1.907-3.369l.342-1.367Z"/></svg>