<svg xmlns="http://www.w3.org/2000/svg" viewBox="0 0 24 24"><path fill="#151E28" d="M4.25 9a7.75 7.75 0 0 1 15.5 0c0 2.378.47 3.448.897 4.175.076.13.162.262.25.398.396.611.853 1.316.853 2.427A2.75 2.75 0 0 1 19 18.75H5A2.75 2.75 0 0 1 2.25 16c0-1.11.457-1.816.853-2.427.088-.136.174-.268.25-.398.427-.727.897-1.797.897-4.175Zm4.671 10.293a.75.75 0 0 1 .957.457 2.25 2.25 0 0 0 4.244 0 .75.75 0 1 1 1.415.5 3.751 3.751 0 0 1-7.073 0 .75.75 0 0 1 .457-.957ZM8.25 11c0 .414.336.75.75.75h6a.75.75 0 0 0 0-1.5H9a.75.75 0 0 0-.75.75Z"/></svg>