<svg xmlns="http://www.w3.org/2000/svg" viewBox="0 0 24 24"><path fill="#151E28" d="M9.367 2.25h5.266c1.092 0 1.958 0 2.655.057.714.058 1.317.18 1.869.461a4.744 4.744 0 0 1 2.076 2.076c.28.551.402 1.154.46 1.868.057.697.057 1.563.057 2.655v5.266c0 1.092 0 1.958-.057 2.655-.058.714-.18 1.317-.461 1.869a4.752 4.752 0 0 1-2.075 2.076c-.552.28-1.155.402-1.869.46-.697.057-1.563.057-2.655.057H9.367c-1.092 0-1.958 0-2.655-.057-.714-.058-1.318-.18-1.868-.461a4.75 4.75 0 0 1-2.077-2.075c-.28-.552-.402-1.155-.46-1.869-.057-.697-.057-1.563-.057-2.655V9.367c0-1.092 0-1.958.057-2.655.058-.714.18-1.318.461-1.868a4.752 4.752 0 0 1 2.076-2.077c.551-.28 1.154-.402 1.868-.46.697-.057 1.563-.057 2.655-.057ZM12.99 8c0 .414.336.75.75.75a.57.57 0 0 1 .554.583v1.302a1.643 1.643 0 0 0 .715 1.36l.008.005-.008.005c-.45.307-.715.819-.715 1.36v1.302a.57.57 0 0 1-.554.583.75.75 0 0 0 0 1.5c1.15 0 2.054-.948 2.054-2.083v-1.302a.144.144 0 0 1 .06-.12l.375-.255a1.2 1.2 0 0 0 0-1.98l-.375-.255a.144.144 0 0 1-.06-.12V9.333c0-1.135-.904-2.083-2.054-2.083a.75.75 0 0 0-.75.75ZM8.206 9.333v1.302a.146.146 0 0 1-.06.12l-.375.255a1.2 1.2 0 0 0 0 1.98l.375.255a.146.146 0 0 1 .06.12v1.302c0 1.135.904 2.083 2.054 2.083a.75.75 0 0 0 0-1.5.57.57 0 0 1-.554-.583v-1.302c0-.541-.265-1.053-.715-1.36L8.983 12l.008-.005c.45-.307.715-.819.715-1.36V9.333a.57.57 0 0 1 .554-.583.75.75 0 0 0 0-1.5c-1.15 0-2.054.948-2.054 2.083Z"/></svg>