<svg xmlns="http://www.w3.org/2000/svg" viewBox="0 0 24 24"><path fill="#151E28" d="M12 2.25A9.75 9.75 0 0 1 21.75 12 9.75 9.75 0 0 1 12 21.75c-1.653 0-2.998-.322-4.028-.722a65.592 65.592 0 0 0-1.502-.572 7.476 7.476 0 0 0-.41-.137 1.09 1.09 0 0 0-.145-.035h-.001a1.427 1.427 0 0 0-.24-.013 1.627 1.627 0 0 0-.233.065 1.897 1.897 0 0 0-.354.186c-.207.126-.474.304-.854.557l-.817.545A.75.75 0 0 1 2.25 21v-9A9.75 9.75 0 0 1 12 2.25Zm1.25 7.655h-.001a2.684 2.684 0 0 1-.174.272c-.172.244-.406.536-.66.854l-.01.013c-.243.304-.505.63-.705.914a4.001 4.001 0 0 0-.277.44 1.32 1.32 0 0 0-.173.602.75.75 0 0 0 1.491.113l.008-.015c.053-.095.112-.187.176-.275.172-.244.406-.536.66-.854l.01-.013c.243-.304.505-.63.705-.914.101-.141.194-.288.277-.44A1.32 1.32 0 0 0 14.75 10v-.021c.001-.258.001-.926-.349-1.539-.406-.71-1.18-1.19-2.401-1.19-.632 0-1.155.16-1.572.438a2.51 2.51 0 0 0-.849.977c-.184.374-.294.78-.323 1.196l-.006.092V10a.75.75 0 0 0 1.5.006v-.004c.011-.232.069-.458.17-.667a1.01 1.01 0 0 1 .34-.398c.145-.097.371-.187.74-.187.779 0 1.005.27 1.099.435.123.215.146.481.151.72ZM12 17a1 1 0 1 0 0-2 1 1 0 0 0 0 2Zm1.273-7.145-.004.01.004-.01Zm-.546 3.29.004-.01-.004.01Z"/></svg>