<svg xmlns="http://www.w3.org/2000/svg" viewBox="0 0 24 24"><path fill="#151E28" d="M9.367 2.25h5.266c1.092 0 1.958 0 2.655.058.714.058 1.317.18 1.869.46a4.744 4.744 0 0 1 2.076 2.076c.28.551.402 1.155.46 1.868.029.394.046.79.05 1.185a.772.772 0 0 1 .002.186c.005.389.005.815.005 1.283v5.267c0 1.092 0 1.958-.057 2.655-.058.714-.18 1.317-.461 1.869a4.752 4.752 0 0 1-2.075 2.076c-.552.28-1.155.402-1.869.46-.697.057-1.563.057-2.655.057H9.367c-1.092 0-1.958 0-2.655-.057-.714-.058-1.318-.18-1.868-.46a4.752 4.752 0 0 1-2.077-2.076c-.28-.552-.402-1.155-.46-1.869-.057-.697-.057-1.563-.057-2.655V9.367c0-.468 0-.894.004-1.284a.724.724 0 0 1 .003-.186c.007-.442.021-.835.05-1.185.058-.713.18-1.318.461-1.868a4.752 4.752 0 0 1 2.076-2.077c.551-.28 1.154-.402 1.868-.46.697-.057 1.563-.057 2.655-.057Zm5.233 1.5h-4.175l-2.1 3.5h5.25l2.099-3.497c-.322-.003-.678-.003-1.074-.003ZM6.25 16c0 .414.336.75.75.75h8a.75.75 0 0 0 0-1.5H7a.75.75 0 0 0-.75.75Zm13.948-9.166c-.051-.62-.147-1.005-.302-1.31a3.258 3.258 0 0 0-1.42-1.42c-.269-.136-.599-.227-1.099-.282a.773.773 0 0 1-.033.064l-2.02 3.364h4.9a11.452 11.452 0 0 0-.026-.416ZM6.575 7.25l2.1-3.5c-.765.003-1.355.013-1.841.052-.62.05-1.005.147-1.31.302a3.258 3.258 0 0 0-1.42 1.42c-.155.305-.251.69-.302 1.31-.01.13-.02.269-.026.416ZM6.25 12c0 .414.336.75.75.75h4a.75.75 0 0 0 0-1.5H7a.75.75 0 0 0-.75.75Z"/></svg>