<svg xmlns="http://www.w3.org/2000/svg" viewBox="0 0 24 24"><path fill="#151E28" d="M17.095 2.25c.838 0 1.372 0 1.832.091a4.751 4.751 0 0 1 3.732 3.732c.091.46.091.994.091 1.832v8.19c0 .838 0 1.372-.091 1.832a4.751 4.751 0 0 1-3.732 3.732c-.46.091-.994.091-1.832.091H6.905c-.838 0-1.372 0-1.832-.091a4.751 4.751 0 0 1-3.732-3.732c-.091-.46-.091-.994-.091-1.832v-8.19c0-.838 0-1.372.091-1.832a4.751 4.751 0 0 1 3.732-3.732c.46-.091.994-.091 1.832-.091h10.19Zm-1.491 6c-.095 0-.169 0-.235.003a2.75 2.75 0 0 0-2.616 2.616c-.003.066-.003.139-.003.234v1.793c0 .095 0 .169.003.235a2.75 2.75 0 0 0 2.85 2.619h.134a2.754 2.754 0 0 0 1.832-.76c.024-.022.047-.046.077-.076l.006-.005.378-.379a.749.749 0 0 0-.326-1.275.749.749 0 0 0-.734.215l-.379.378c-.23.249-.551.394-.89.402h-.08l-.18-.001a1.25 1.25 0 0 1-1.19-1.19l-.001-.18v-1.758l.001-.18a1.25 1.25 0 0 1 1.19-1.19l.18-.001a1.25 1.25 0 0 1 .97.402l.379.378a.749.749 0 0 0 1.275-.326.749.749 0 0 0-.215-.734l-.378-.379-.006-.005c-.03-.03-.053-.054-.077-.076a2.754 2.754 0 0 0-1.832-.76Zm-7 0c-.095 0-.168 0-.234.003a2.75 2.75 0 0 0-2.617 2.616c-.003.066-.003.139-.003.234v1.793c0 .095 0 .169.003.235a2.75 2.75 0 0 0 2.851 2.619h.133a2.754 2.754 0 0 0 1.832-.76l.078-.076.005-.005.378-.379a.749.749 0 0 0-.326-1.275.749.749 0 0 0-.734.215l-.379.378c-.23.249-.551.394-.89.402h-.08l-.18-.001a1.25 1.25 0 0 1-1.19-1.19l-.001-.18v-1.758l.001-.18a1.25 1.25 0 0 1 1.19-1.19l.18-.001a1.25 1.25 0 0 1 .97.402l.379.378a.749.749 0 0 0 1.275-.326.749.749 0 0 0-.215-.734l-.378-.379-.006-.005c-.03-.03-.053-.054-.077-.076a2.754 2.754 0 0 0-1.832-.76Z"/></svg>