<svg xmlns="http://www.w3.org/2000/svg" viewBox="0 0 24 24"><path fill="#151E28" d="m6.952 19 .001-.001a2.485 2.485 0 0 0-.039.75 5.75 5.75 0 0 1-.62-11.456 5.75 5.75 0 0 1 11.414 0 5.75 5.75 0 0 1-.621 11.457 2.51 2.51 0 0 0-.039-.75l-.006-.027A2.494 2.494 0 0 0 16.6 18a2.5 2.5 0 0 0-2.301-3.983 2.5 2.5 0 0 0-4.598 0A2.5 2.5 0 0 0 7.401 18a2.516 2.516 0 0 0-.449 1Zm5.798-4h-.001v1.7l1.473-.85a.75.75 0 0 1 .75 1.3l-1.474.85 1.476.85a.75.75 0 0 1-.75 1.3l-1.473-.85V21a.75.75 0 0 1-1.5 0v-1.701l-1.474.851a.75.75 0 0 1-.75-1.3L10.5 18l-1.474-.851a.75.75 0 0 1 .75-1.298l1.474.85V15a.75.75 0 0 1 1.5 0Z"/></svg>