<svg xmlns="http://www.w3.org/2000/svg" viewBox="0 0 24 24"><path fill="#151E28" d="M12 2.25A9.75 9.75 0 0 1 21.75 12 9.75 9.75 0 0 1 12 21.75 9.75 9.75 0 0 1 2.25 12 9.75 9.75 0 0 1 12 2.25Zm-.75 7.5V9A2.25 2.25 0 1 0 9 11.25h.75v1.5H9A2.25 2.25 0 1 0 11.25 15v-.75h1.5V15A2.25 2.25 0 1 0 15 12.75h-.75v-1.5H15A2.25 2.25 0 1 0 12.75 9v.75Zm1.5 3h-1.5v-1.5h1.5ZM8.25 9a.75.75 0 0 1 1.5 0v.75H9A.75.75 0 0 1 8.25 9ZM15 8.25a.75.75 0 0 1 0 1.5h-.75V9a.75.75 0 0 1 .75-.75Zm-6 6h.75V15a.75.75 0 1 1-.75-.75Zm5.25 0H15a.75.75 0 1 1-.75.75Z"/></svg>