<svg xmlns="http://www.w3.org/2000/svg" viewBox="0 0 24 24"><path fill="#151E28" d="M13.117 2.479c.485.216.844.614 1.168 1.071.321.455.676 1.067 1.114 1.825l.019.033 5.45 9.413.02.033c.44.76.796 1.375 1.03 1.881.236.51.403 1.021.348 1.55a2.75 2.75 0 0 1-1.118 1.939c-.43.313-.955.424-1.515.475-.555.051-1.267.051-2.145.051H6.512c-.878 0-1.589 0-2.145-.051-.559-.051-1.085-.162-1.515-.475a2.749 2.749 0 0 1-1.119-1.938c-.054-.53.113-1.04.35-1.55.233-.507.59-1.122 1.03-1.882l.018-.033 5.45-9.413.02-.033c.438-.757.793-1.371 1.115-1.825.323-.457.682-.855 1.167-1.071a2.75 2.75 0 0 1 2.234 0ZM11.75 15.75h.5v.5a2 2 0 1 0 2-2h-.5v-.5h.5a2 2 0 1 0-2-2v.5h-.5v-.5a2 2 0 1 0-2 2h.5v.5h-.5a2 2 0 1 0 2 2Zm-2-4.5a.5.5 0 0 1 .5.5v.5h-.5a.5.5 0 0 1 0-1Zm4 .5a.5.5 0 1 1 .5.5h-.5Zm-4.5 4.5a.5.5 0 0 1 .5-.5h.5v.5a.5.5 0 0 1-1 0Zm4.5-.5h.5a.5.5 0 1 1-.5.5Zm-2-2h.5v.5h-.5Z"/></svg>