<svg xmlns="http://www.w3.org/2000/svg" viewBox="0 0 24 24"><path fill="#151E28" d="M12 2.25c5.384 0 9.75 4.365 9.75 9.75s-4.366 9.75-9.75 9.75A9.75 9.75 0 0 1 2.25 12 9.75 9.75 0 0 1 12 2.25Zm3.53 6.22a.75.75 0 0 0-.677-.205l-2.908.581-.115.023c-.643.128-1.148.229-1.568.486a2.75 2.75 0 0 0-.907.907c-.258.42-.358.925-.486 1.568l-.023.115-.582 2.908a.75.75 0 0 0 .883.882l2.908-.581.115-.023c.643-.128 1.148-.229 1.568-.486.369-.227.68-.538.906-.907.258-.42.359-.925.487-1.568l.023-.115.581-2.908a.75.75 0 0 0-.205-.677Z"/></svg>