<svg xmlns="http://www.w3.org/2000/svg" viewBox="0 0 24 24"><path fill="#151E28" d="M6.767 3.25h10.464c.813 0 1.47 0 2 .043.547.045 1.027.139 1.471.365.706.36 1.28.934 1.639 1.64.226.444.321.924.365 1.471a16.257 16.257 0 0 1 .042 1.283c.002.223.002.46.002.713v6.467c0 .813 0 1.469-.044 2-.045.546-.139 1.026-.365 1.47a3.752 3.752 0 0 1-1.639 1.639c-.444.226-.924.321-1.471.366-.531.043-1.186.043-1.999.043H6.768c-.813 0-1.47 0-2-.043-.547-.045-1.027-.139-1.47-.365a3.756 3.756 0 0 1-1.64-1.64c-.226-.444-.32-.924-.365-1.47-.043-.531-.043-1.187-.043-2V8.768l.001-.723c-.003-.426.012-.852.042-1.277.045-.546.139-1.026.365-1.47.36-.706.934-1.28 1.64-1.639.443-.226.923-.321 1.47-.366.531-.043 1.187-.043 1.999-.043ZM2.75 8.75v6.45c0 .852 0 1.447.038 1.91.037.453.106.714.207.912.215.423.56.767.983.983.198.1.458.17.912.207.463.037 1.057.038 1.91.038h10.4c.852 0 1.446 0 1.909-.038.454-.038.714-.107.912-.207.423-.216.767-.56.983-.983.1-.198.17-.459.207-.913.038-.462.039-1.057.039-1.909V8.75ZM5.25 12a.75.75 0 0 1 .75-.75h3a.75.75 0 0 1 0 1.5H6a.75.75 0 0 1-.75-.75Z"/></svg>