<svg xmlns="http://www.w3.org/2000/svg" viewBox="0 0 24 24"><path fill="#151E28" d="M5.512 19.241a2.5 2.5 0 0 0 .703 1.51H5.75c-2.47 0-4.5-1.962-4.5-4.418 0-2.15 1.559-3.922 3.605-4.328a4.751 4.751 0 0 1 9.29 0c2.046.406 3.605 2.178 3.605 4.329 0 2.455-2.03 4.416-4.5 4.416h-.412l.242-.363c.083-.124.153-.254.211-.387l.01-.023a2.5 2.5 0 0 0-.963-3.089 2.5 2.5 0 0 0-4.418-2.275l-2 3a2.495 2.495 0 0 0-.408 1.628Zm7.252-11.233a.75.75 0 1 1-.528-1.404 5.559 5.559 0 0 1 7.16 7.16.75.75 0 1 1-1.404-.528 4.057 4.057 0 0 0-5.228-5.228Zm-2.348 7.368a.75.75 0 0 1 .208 1.04L9.401 18.25H11a.748.748 0 0 1 .624 1.166l-2 3a.749.749 0 1 1-1.248-.832l1.223-1.834H8a.748.748 0 0 1-.624-1.166l2-3a.75.75 0 0 1 1.04-.208ZM15.35 3.85a.85.85 0 1 1-1.701-.001.85.85 0 0 1 1.701.001Zm5.8 7.5a.85.85 0 1 1 1.701.001.85.85 0 0 1-1.701-.001Zm-.566-4.724a.85.85 0 1 1-1.216-1.189.85.85 0 0 1 1.216 1.189ZM8.5 5.5a.85.85 0 1 1 1.188 1.217A.85.85 0 0 1 8.5 5.5Z"/></svg>