<svg xmlns="http://www.w3.org/2000/svg" viewBox="0 0 24 24"><path fill="#151E28" d="M15.175 4.27c.141-.013.283-.02.425-.02 1.237 0 1.24 0 1.893.076l.092.01a.75.75 0 0 1-.17 1.49l-.152-.017a7.628 7.628 0 0 0-.371-.039c-.242-.02-.485-.02-1.274-.02H15.6a2.85 2.85 0 0 0-2.85 2.85V15a.75.75 0 0 1-.75.75H3a.75.75 0 0 1-.75-.75v-3.594c0-1.086 0-1.947.057-2.64.057-.71.177-1.31.457-1.86a4.754 4.754 0 0 1 2.06-2.073c.547-.283 1.147-.408 1.855-.47.694-.062 1.554-.067 2.64-.075h.033l5.643-.038a.726.726 0 0 1 .18.02Zm2.994 2.98h1.661c.535 0 .98 0 1.345.03.38.03.736.098 1.073.27.518.264.938.684 1.202 1.202.172.337.24.693.27 1.073.03.365.03.81.03 1.345v5.66c0 .535 0 .98-.03 1.345-.03.38-.098.736-.27 1.073a2.749 2.749 0 0 1-1.202 1.202c-.337.172-.694.24-1.073.27-.365.03-.81.03-1.345.03h-1.66c-.535 0-.98 0-1.345-.03-.38-.03-.736-.098-1.074-.27a2.755 2.755 0 0 1-1.201-1.201c-.172-.338-.24-.694-.27-1.074-.03-.364-.03-.81-.03-1.345v-5.66c0-.535 0-.98.03-1.345.03-.38.098-.736.27-1.073a2.75 2.75 0 0 1 1.2-1.202c.338-.172.694-.24 1.074-.27.364-.03.81-.03 1.345-.03ZM5.221 20.75c-.22 0-.372 0-.522-.012a3.75 3.75 0 0 1-1.7-.567c-.129-.08-.25-.172-.426-.304l-.023-.017-.012-.009a21.61 21.61 0 0 1-.565-.432c-.13-.105-.29-.24-.402-.4a1.748 1.748 0 0 1 .891-2.674c.183-.051.372-.078.562-.079.183-.006.421-.006.71-.006H12a.75.75 0 0 1 0 1.5H3.75c-.308 0-.52 0-.673.006-.098.003-.146.009-.162.01H2.91a.252.252 0 0 0-.148.155.248.248 0 0 0 .026.212l.003.003c.012.011.047.044.124.106.289.227.584.448.884.661.307.194.658.31 1.02.34.083.007.172.007.43.007h7.25a.75.75 0 0 1 0 1.5H5.221Zm14.579-12h-1.6c-.372 0-.665 0-.905.007A.75.75 0 0 0 18 9.25h2a.75.75 0 0 0 .705-.493c-.241-.007-.532-.007-.905-.007Z"/></svg>