<svg xmlns="http://www.w3.org/2000/svg" viewBox="0 0 24 24"><path fill="#151E28" d="M9.325 2.25h5.422c.419 0 .748 0 1.067.076.28.068.548.179.794.33.28.17.513.404.808.7l.052.051 3.126 3.125.05.052c.297.296.53.528.7.808.151.246.262.514.33.795.076.318.076.647.076 1.066v5.494c0 .419 0 .748-.076 1.067a2.687 2.687 0 0 1-.33.794c-.17.28-.403.513-.7.808l-.051.052-3.125 3.126-.052.05c-.295.297-.528.53-.808.7a2.687 2.687 0 0 1-.794.33c-.319.076-.648.076-1.067.076H9.253c-.419 0-.748 0-1.066-.076a2.704 2.704 0 0 1-.795-.33c-.28-.17-.512-.403-.808-.7l-.052-.051-3.125-3.125-.051-.052c-.296-.295-.53-.528-.7-.808a2.737 2.737 0 0 1-.33-.794c-.076-.319-.076-.648-.076-1.067V9.253c0-.419 0-.748.076-1.066.068-.281.179-.549.33-.795.17-.28.404-.512.7-.808l.051-.052 3.125-3.125.052-.051c.296-.296.528-.53.808-.7.246-.151.514-.262.795-.33.318-.076.647-.076 1.066-.076h.072ZM6.25 13c0 .414.336.75.75.75h.578c.685 1.752 2.369 3 4.353 3a4.647 4.647 0 0 0 3.658-1.786.75.75 0 1 0-1.178-.928 3.148 3.148 0 0 1-2.48 1.214 3.166 3.166 0 0 1-2.681-1.5H11a.75.75 0 0 0 0-1.5H8.76a3.477 3.477 0 0 1 0-.5H12a.75.75 0 0 0 0-1.5H9.25a3.167 3.167 0 0 1 2.681-1.5 3.149 3.149 0 0 1 2.48 1.214.75.75 0 1 0 1.178-.928 4.649 4.649 0 0 0-3.658-1.786c-1.983 0-3.668 1.247-4.353 3H7a.75.75 0 0 0 0 1.5h.256a4.633 4.633 0 0 0 0 .5H7a.75.75 0 0 0-.75.75Z"/></svg>