<svg xmlns="http://www.w3.org/2000/svg" viewBox="0 0 24 24"><path fill="#151E28" d="M9.367 2.25h5.266c1.092 0 1.958 0 2.655.057.714.058 1.317.18 1.869.461a4.744 4.744 0 0 1 2.076 2.076c.28.551.402 1.154.46 1.868.057.697.057 1.563.057 2.655v5.266c0 1.092 0 1.958-.057 2.655-.058.714-.18 1.317-.461 1.869a4.752 4.752 0 0 1-2.075 2.076c-.552.28-1.155.402-1.869.46-.697.057-1.563.057-2.655.057H9.367c-1.092 0-1.958 0-2.655-.057-.714-.058-1.318-.18-1.868-.461a4.75 4.75 0 0 1-2.077-2.075c-.28-.552-.402-1.155-.46-1.869-.057-.697-.057-1.563-.057-2.655V9.367c0-1.092 0-1.958.057-2.655.058-.714.18-1.318.461-1.868a4.752 4.752 0 0 1 2.076-2.077c.551-.28 1.154-.402 1.868-.46.697-.057 1.563-.057 2.655-.057ZM6.25 13c0 .414.336.75.75.75h.578c.685 1.752 2.369 3 4.353 3a4.647 4.647 0 0 0 3.658-1.786.75.75 0 1 0-1.178-.928 3.148 3.148 0 0 1-2.48 1.214 3.166 3.166 0 0 1-2.681-1.5H11a.75.75 0 0 0 0-1.5H8.76a3.477 3.477 0 0 1 0-.5H12a.75.75 0 0 0 0-1.5H9.25a3.167 3.167 0 0 1 2.681-1.5 3.149 3.149 0 0 1 2.48 1.214.75.75 0 1 0 1.178-.928 4.649 4.649 0 0 0-3.658-1.786c-1.983 0-3.668 1.247-4.353 3H7a.75.75 0 0 0 0 1.5h.256a4.633 4.633 0 0 0 0 .5H7a.75.75 0 0 0-.75.75Z"/></svg>