<svg xmlns="http://www.w3.org/2000/svg" viewBox="0 0 24 24"><path fill="#151E28" d="M12 2.25A9.75 9.75 0 0 1 21.75 12 9.75 9.75 0 0 1 12 21.75 9.75 9.75 0 0 1 2.25 12 9.75 9.75 0 0 1 12 2.25ZM6.25 13c0 .414.336.75.75.75h.578c.685 1.752 2.369 3 4.353 3a4.647 4.647 0 0 0 3.658-1.786.75.75 0 1 0-1.178-.928 3.148 3.148 0 0 1-2.48 1.214 3.166 3.166 0 0 1-2.681-1.5H11a.75.75 0 0 0 0-1.5H8.76a3.477 3.477 0 0 1 0-.5H12a.75.75 0 0 0 0-1.5H9.25a3.167 3.167 0 0 1 2.681-1.5 3.149 3.149 0 0 1 2.48 1.214.75.75 0 1 0 1.178-.928 4.649 4.649 0 0 0-3.658-1.786c-1.983 0-3.668 1.247-4.353 3H7a.75.75 0 0 0 0 1.5h.256a4.633 4.633 0 0 0 0 .5H7a.75.75 0 0 0-.75.75Z"/></svg>