<svg xmlns="http://www.w3.org/2000/svg" viewBox="0 0 24 24"><path fill="#151E28" d="M14.633 2.25c1.092 0 1.958 0 2.655.057.714.058 1.317.18 1.869.46a4.75 4.75 0 0 1 2.075 2.077c.281.55.403 1.154.461 1.868.057.697.057 1.563.057 2.655v5.266c0 1.092 0 1.958-.057 2.655-.058.714-.18 1.317-.46 1.869a4.752 4.752 0 0 1-2.076 2.075c-.552.281-1.155.403-1.869.461-.697.057-1.563.057-2.655.057H9.367c-1.092 0-1.958 0-2.655-.057-.714-.058-1.317-.18-1.868-.46a4.744 4.744 0 0 1-2.076-2.076c-.281-.552-.403-1.155-.461-1.869-.057-.697-.057-1.563-.057-2.655V9.367c0-1.092 0-1.958.057-2.655.058-.714.18-1.317.46-1.868a4.752 4.752 0 0 1 2.077-2.076c.55-.281 1.154-.403 1.868-.461.697-.057 1.563-.057 2.655-.057h5.266Zm-1.658 6c-.445 0-.816 0-1.12.021a2.812 2.812 0 0 0-.907.188A2.749 2.749 0 0 0 9.46 9.948c-.12.29-.168.589-.19.907-.02.304-.02.675-.02 1.12v.05c0 .445 0 .816.021 1.12.021.317.068.617.188.907a2.749 2.749 0 0 0 1.489 1.488c.29.113.596.177.907.19.304.02.675.02 1.12.02H14a.75.75 0 0 0 0-1.5h-1c-.476 0-.796 0-1.043-.017-.241-.017-.358-.046-.435-.078a1.248 1.248 0 0 1-.677-.677c-.032-.077-.061-.194-.078-.435a5.786 5.786 0 0 1-.012-.293H14a.75.75 0 0 0 0-1.5h-3.245c.002-.109.006-.206.012-.293.017-.241.046-.358.078-.435.127-.307.37-.55.677-.677.077-.032.194-.061.435-.078.247-.017.567-.017 1.043-.017h1a.75.75 0 0 0 0-1.5Z"/></svg>