<svg xmlns="http://www.w3.org/2000/svg" viewBox="0 0 24 24"><path fill="#151E28" d="M12.884 4.545a1.25 1.25 0 0 0 1.768 0l.707-.707a3.75 3.75 0 0 1 5.303 5.303l-.707.707a1.25 1.25 0 0 0 0 1.768.75.75 0 1 1-1.061 1.061l-7.07-7.072a.751.751 0 0 1 .018-1.042.751.751 0 0 1 1.042-.018Zm0 3.889v-.001l-6.003 6.003c-.412.412-.567.57-.697.741a3.326 3.326 0 0 0-.316.512c-.096.192-.167.402-.352.955l-.157.472-.004.012c-.034.11-.075.219-.122.324-.024.054-.05.105-.083.171l-.006.011-.865 1.73a.637.637 0 0 0 .856.856l1.73-.866.011-.005c.066-.033.117-.059.171-.083.047-.021.095-.041.144-.06.055-.021.11-.039.18-.062l.011-.004.473-.157c.553-.185.763-.257.955-.352.18-.089.352-.196.512-.316.171-.13.329-.285.741-.697l6.003-6.003a.75.75 0 0 1 1.06 1.061l-6.002 6.002-.038.038c-.362.363-.596.596-.861.796a4.8 4.8 0 0 1-.748.463c-.298.147-.611.252-1.098.414l-.05.017-.472.157a3.425 3.425 0 0 0-.132.045 3.27 3.27 0 0 0-.19.088l-1.73.865a2.139 2.139 0 0 1-2.867-2.868l.865-1.73.061-.124c.026-.065.05-.131.072-.197l.157-.473.017-.05c.162-.487.267-.8.414-1.097a4.81 4.81 0 0 1 .463-.749c.199-.264.433-.498.796-.86l.037-.038 6.004-6.001a.749.749 0 0 1 1.275.326.749.749 0 0 1-.215.734Z"/></svg>