<svg xmlns="http://www.w3.org/2000/svg" viewBox="0 0 24 24"><path fill="#151E28" d="M17.75 7.667v6.565c0 .813 0 1.469-.043 2-.045.546-.14 1.026-.366 1.47a3.749 3.749 0 0 1-1.639 1.64c-.444.226-.924.32-1.47.365-.531.043-1.187.043-2 .043H8.768c-.813 0-1.469 0-2-.043-.546-.045-1.026-.14-1.47-.366a3.749 3.749 0 0 1-1.64-1.639c-.226-.444-.32-.924-.365-1.47-.043-.531-.043-1.187-.043-2V6.768c0-.813 0-1.469.043-2 .045-.546.14-1.026.366-1.47a3.749 3.749 0 0 1 1.639-1.64c.444-.226.924-.32 1.47-.365.531-.043 1.187-.043 2-.043h2.661c.096 0 .19.018.274.052.46.09.89.297 1.249.602.085.073.166.153.268.255l.017.018 3.586 3.586.018.017c.102.102.182.182.255.268.348.41.567.911.633 1.442a.752.752 0 0 1 .021.177Zm3 2.333v4.034c0 1.371 0 2.447-.071 3.311-.071.88-.22 1.607-.556 2.265a5.747 5.747 0 0 1-2.513 2.513c-.658.336-1.385.485-2.265.557-.864.07-1.94.07-3.311.07H9a.75.75 0 0 1 0-1.5h3c1.413 0 2.427-.001 3.223-.066.787-.064 1.295-.187 1.707-.397a4.25 4.25 0 0 0 1.857-1.857c.209-.412.333-.92.397-1.707.066-.796.066-1.811.066-3.223v-4a.75.75 0 0 1 1.5 0Zm-8.571-5.533c0 .572 0 .956.024 1.252.024.287.066.425.112.515.12.235.311.426.546.546.091.047.228.088.515.112.296.025.68.025 1.253.025h1.227l-.093-.094-3.584-3.584Z"/></svg>