<svg xmlns="http://www.w3.org/2000/svg" viewBox="0 0 24 24"><path fill="#151E28" d="M9.633 2.354v-.001c.382.092.748.244 1.083.45.38.233.7.551 1.16 1.013l.06.06.188.188c.544.544.733.726.943.854.201.124.421.215.651.27.238.057.5.062 1.27.062h2.244c.813 0 1.469 0 2 .043.546.045 1.026.139 1.47.365.706.36 1.28.934 1.639 1.64.226.444.321.924.366 1.47.043.531.043 1.187.043 2v4.464c0 .813 0 1.469-.043 2-.045.546-.139 1.026-.365 1.47a3.749 3.749 0 0 1-1.64 1.639c-.444.226-.924.321-1.47.366-.531.043-1.187.043-2 .043H6.768c-.813 0-1.469 0-2-.043-.546-.045-1.026-.139-1.47-.365a3.749 3.749 0 0 1-1.639-1.64c-.226-.444-.321-.924-.366-1.47-.043-.531-.043-1.187-.043-2V7.768c0-.813 0-1.469.043-2 .045-.546.139-1.026.365-1.47.36-.706.934-1.28 1.64-1.639.444-.226.924-.321 1.47-.366.531-.043 1.187-.043 2-.043h1.329c.652 0 1.103 0 1.536.104ZM8.25 13c0 .414.336.75.75.75h6a.75.75 0 0 0 0-1.5H9a.75.75 0 0 0-.75.75Z"/></svg>