<svg xmlns="http://www.w3.org/2000/svg" viewBox="0 0 24 24"><path fill="#151E28" d="M6.25 14.5V3a.75.75 0 0 1 1.5 0v11.5a.75.75 0 0 1-1.5 0ZM17 8.75a.75.75 0 0 1 .75.75V21a.75.75 0 0 1-1.5 0V9.5a.75.75 0 0 1 .75-.75ZM8.75 7a.75.75 0 0 1 .75-.75H21a.75.75 0 0 1 0 1.5H9.5A.75.75 0 0 1 8.75 7Zm-6.5 10a.75.75 0 0 1 .75-.75h11.5a.75.75 0 0 1 0 1.5H3a.75.75 0 0 1-.75-.75Zm14-14a.75.75 0 0 1 1.5 0v1.5a.75.75 0 0 1-1.5 0ZM7 18.75a.75.75 0 0 1 .75.75V21a.75.75 0 0 1-1.5 0v-1.5a.75.75 0 0 1 .75-.75ZM2.25 7A.75.75 0 0 1 3 6.25h1.5a.75.75 0 0 1 0 1.5H3A.75.75 0 0 1 2.25 7Zm16.5 10a.75.75 0 0 1 .75-.75H21a.75.75 0 0 1 0 1.5h-1.5a.75.75 0 0 1-.75-.75Z"/></svg>