<svg xmlns="http://www.w3.org/2000/svg" viewBox="0 0 24 24"><path fill="#151E28" d="M2.25 12A9.75 9.75 0 0 1 12 2.25 9.75 9.75 0 0 1 21.75 12 9.75 9.75 0 0 1 12 21.75 9.75 9.75 0 0 1 2.25 12ZM12 20.25a8.31 8.31 0 0 0 1.25-.094v-1.302a.632.632 0 0 0-.349-.565 2.132 2.132 0 0 1-.954-2.86l.132-.264c.235-.47.616-.851 1.086-1.086l.765-.382.092-.047c.677-.338 1.143-.571 1.622-.671a3.753 3.753 0 0 1 2.649.43c.423.246.791.614 1.327 1.15l.073.073.095.096A8.228 8.228 0 0 0 20.25 12a8.239 8.239 0 0 0-3.5-6.746v.355c0 .481 0 .813-.058 1.141-.052.29-.137.572-.255.842-.133.305-.318.581-.585.981l-.034.052-.266.399-.033.049c-.249.374-.421.632-.631.857a3.75 3.75 0 0 1-1.252.883c-.283.122-.584.197-1.02.306l-.057.014-1.582.396a2.198 2.198 0 0 1-2.087-.578.697.697 0 0 0-1.118.181l-.81 1.622c-.14.278-.212.586-.212.896v.956c0 .149 0 .253-.005.355a3.75 3.75 0 0 1-1.03 2.383A8.232 8.232 0 0 0 12 20.25Z"/></svg>