<svg xmlns="http://www.w3.org/2000/svg" viewBox="0 0 24 24"><path fill="#151E28" d="M16.958 9.804C13.81 12.079 9.366 11.91 6.41 9.3a8.66 8.66 0 0 1-.605-.593L6.94 4.922a1.752 1.752 0 0 1 2.46-1.06l2.042 1.02a1.25 1.25 0 0 0 1.118 0l2.041-1.021a1.75 1.75 0 0 1 2.459 1.062l1.135 3.784a8.264 8.264 0 0 1-1.237 1.097ZM3.205 13.735c.076.986.63 1.903 1.53 2.417a14.645 14.645 0 0 0 14.53 0 3.054 3.054 0 0 0 1.41-3.529l-.045-.15-.357-1.19c1.45.925 2.477 2.189 2.477 3.717 0 1.818-1.454 3.262-3.343 4.206-1.935.968-4.554 1.544-7.407 1.544-2.853 0-5.472-.576-7.406-1.544C2.704 18.262 1.25 16.818 1.25 15c0-1.528 1.027-2.792 2.477-3.717l-.357 1.19-.045.15c-.108.36-.148.737-.12 1.112Zm2.111-3.399c.402.365.828.691 1.273.978 3.485 2.247 8.141 2.095 11.469-.455a9.47 9.47 0 0 0 .626-.523l.794 2.647a1.803 1.803 0 0 1-.833 2.084 13.393 13.393 0 0 1-13.29 0 1.803 1.803 0 0 1-.833-2.084Z"/></svg>