<svg xmlns="http://www.w3.org/2000/svg" viewBox="0 0 24 24"><path fill="#151E28" d="M2.25 12A9.75 9.75 0 0 1 12 2.25 9.75 9.75 0 0 1 21.75 12c0 4.987-3.745 9.1-8.575 9.68-.39.047-.782.07-1.175.07h-.016C6.607 21.741 2.25 17.38 2.25 12ZM12 3.75A8.252 8.252 0 0 0 4.84 16.1l2.218-2.218v-.001a2.75 2.75 0 0 1 3.884 0l.01.01a1.25 1.25 0 0 0 1.857-.102l.404-.506.072-.09c.37-.464.653-.817.959-1.038a2.75 2.75 0 0 1 3.405.148c.286.247.537.622.866 1.117l.064.096 1.064 1.596A8.252 8.252 0 0 0 12 3.75Zm-2.7 3.5h.4a2.05 2.05 0 0 1 2.05 2.05v.4a2.05 2.05 0 0 1-2.05 2.05h-.4A2.05 2.05 0 0 1 7.25 9.7v-.4A2.05 2.05 0 0 1 9.3 7.25ZM8.75 9.3v.4c0 .304.246.55.55.55h.4a.55.55 0 0 0 .55-.55v-.4a.55.55 0 0 0-.55-.55h-.4a.55.55 0 0 0-.55.55Z"/></svg>