<svg xmlns="http://www.w3.org/2000/svg" viewBox="0 0 24 24"><path fill="#151E28" d="M7.515 7.25H8.75a.75.75 0 0 1 0 1.5H7.633c-.83 0-1.052.011-1.232.077a1.254 1.254 0 0 0-.485.323c-.129.14-.225.342-.544 1.108l-.624 1.498c-.212.507-.304.729-.38.952-.061.179-.115.36-.161.542h2.174c.535-.001.955-.001 1.348.119.346.105.668.277.947.507.317.26.55.61.846 1.055l.052.078.1.15c.373.56.48.706.603.807.127.104.273.182.43.23.153.046.333.054 1.006.054h.575c.672 0 .853-.008 1.005-.054a1.26 1.26 0 0 0 .43-.23c.123-.102.23-.247.603-.807l.1-.15.052-.078c.296-.445.529-.795.846-1.055.279-.23.601-.402.947-.507.394-.119.814-.119 1.348-.119h2.174a8.005 8.005 0 0 0-.161-.542c-.076-.222-.169-.445-.38-.952l-.624-1.498c-.319-.766-.415-.968-.545-1.108a1.254 1.254 0 0 0-.485-.323c-.179-.066-.402-.077-1.232-.077H15.25a.75.75 0 0 1 0-1.5h1.243c.651 0 1.163 0 1.623.17.406.149.772.393 1.066.71.335.363.533.837.785 1.443l.045.108.624 1.498.011.027c.146.335.28.674.403 1.018a8.761 8.761 0 0 1 .443 3.483 17.22 17.22 0 0 1-.136 1.086l-.004.03-.011.08c-.104.723-.169 1.185-.302 1.585a4.75 4.75 0 0 1-3.675 3.188c-.416.074-.882.074-1.612.074H8.244c-.73 0-1.196 0-1.611-.074a4.751 4.751 0 0 1-3.676-3.188c-.132-.401-.198-.862-.301-1.585l-.012-.08-.004-.03c-.072-.506-.114-.796-.136-1.086a8.761 8.761 0 0 1 .443-3.483c.093-.275.207-.546.403-1.018l.012-.027.624-1.498.045-.108c.252-.606.449-1.081.784-1.443a2.75 2.75 0 0 1 1.067-.71c.46-.17.971-.17 1.622-.17h.011Zm3.955-5.78a.75.75 0 0 1 1.06 0l3 3a.749.749 0 0 1-.326 1.275.749.749 0 0 1-.734-.215l-1.72-1.72V12a.75.75 0 0 1-1.5 0V3.81L9.53 5.53a.751.751 0 0 1-1.042-.018.751.751 0 0 1-.018-1.042Z"/></svg>