<svg xmlns="http://www.w3.org/2000/svg" viewBox="0 0 24 24"><path fill="#151E28" d="M9.03 4.97a3.58 3.58 0 0 1 .475 4.474L19.53 19.47a.751.751 0 0 1-.018 1.042.751.751 0 0 1-1.042.018L8.444 10.505a3.58 3.58 0 0 1-4.474-.475l-1.5-1.5a3.578 3.578 0 0 1 5.06-5.06Zm11.257-2.663A.75.75 0 0 1 20.75 3c0 3.651-1.046 6.286-2.111 8.018-.532.864-1.066 1.5-1.473 1.923a7.938 7.938 0 0 1-.65.607l-.044.035-.014.01-.005.005h-.002v.002L16 13l.45.6a.75.75 0 0 1-.98-.07l-3-3a.75.75 0 0 1 0-1.06v-.001l.259-.259.694-.693 2.171-2.172L19.47 2.47a.75.75 0 0 1 .817-.163ZM9.53 13.47a.75.75 0 0 1 0 1.06l-6 6a.751.751 0 0 1-1.042-.018.751.751 0 0 1-.018-1.042l6-6a.75.75 0 0 1 1.06 0Z"/></svg>