<svg xmlns="http://www.w3.org/2000/svg" viewBox="0 0 24 24"><path fill="#151E28" d="M9.25 2.25h5.5v9h-5.5Zm0 19.5v-9h5.5v9h-5.5ZM6.712 2.307c.31-.026.655-.04 1.038-.048v8.991h-5.5V9.367c0-1.093 0-1.958.057-2.656.058-.713.18-1.317.46-1.868a4.752 4.752 0 0 1 2.077-2.076c.55-.28 1.154-.402 1.868-.46Zm9.538-.047c.383.007.727.021 1.038.047.714.058 1.317.18 1.869.46a4.752 4.752 0 0 1 2.075 2.076c.281.551.403 1.155.461 1.868.057.698.057 1.563.057 2.655v1.884h-5.5V2.26Zm0 19.48v-8.99h5.5v1.883c0 1.092 0 1.957-.057 2.655-.058.713-.18 1.317-.46 1.868a4.744 4.744 0 0 1-2.076 2.076c-.552.28-1.155.402-1.869.46-.31.026-.655.04-1.038.048Zm-14-8.99h5.5v8.99a17.122 17.122 0 0 1-1.038-.047c-.714-.059-1.317-.18-1.868-.461a4.744 4.744 0 0 1-2.076-2.076c-.281-.551-.403-1.155-.461-1.868-.057-.698-.057-1.563-.057-2.655Z"/></svg>