<svg xmlns="http://www.w3.org/2000/svg" viewBox="0 0 24 24"><path fill="#151E28" d="M14.75 2.25v19.5h-5.5V2.25h5.5Zm1.5 19.49V2.258c.383.008.728.022 1.038.048.714.058 1.317.18 1.869.46a4.744 4.744 0 0 1 2.076 2.076c.28.551.402 1.155.46 1.868.057.698.057 1.563.057 2.656v5.267c0 1.092 0 1.957-.057 2.655-.058.713-.18 1.317-.461 1.868a4.752 4.752 0 0 1-2.075 2.076c-.552.281-1.155.402-1.869.461-.311.025-.655.039-1.038.047ZM7.75 2.26v19.48a16.814 16.814 0 0 1-1.038-.048c-.714-.058-1.318-.18-1.868-.46a4.752 4.752 0 0 1-2.077-2.076c-.28-.551-.402-1.155-.46-1.868-.057-.698-.057-1.563-.057-2.655V9.366c0-1.092 0-1.957.057-2.655.058-.713.18-1.317.461-1.868a4.744 4.744 0 0 1 2.076-2.076c.551-.28 1.154-.402 1.868-.46.311-.026.655-.04 1.038-.047Z"/></svg>