<svg xmlns="http://www.w3.org/2000/svg" viewBox="0 0 24 24"><path fill="#151E28" d="M9.367 2.25h5.266c1.092 0 1.958 0 2.655.057.714.058 1.317.18 1.869.46a4.752 4.752 0 0 1 2.075 2.076c.281.551.403 1.155.461 1.868.036.441.05.95.054 1.539H2.253c.005-.59.018-1.098.054-1.539.058-.713.18-1.317.46-1.868a4.752 4.752 0 0 1 2.077-2.076c.55-.28 1.154-.402 1.868-.46.685-.057 1.534-.057 2.6-.057ZM2.25 9.75h6v11.997c-.513 0-1.026-.018-1.538-.055-.714-.058-1.317-.18-1.868-.46a4.744 4.744 0 0 1-2.076-2.076c-.281-.551-.403-1.155-.461-1.868-.057-.698-.057-1.563-.057-2.655Zm7.5 6.5h11.99c-.007.383-.022.727-.047 1.038-.058.713-.18 1.317-.46 1.868a4.744 4.744 0 0 1-2.076 2.076c-.552.28-1.155.402-1.869.46-.697.058-1.563.058-2.655.058H9.75v-5.5Zm12-6.5v5h-12v-5h12Z"/></svg>