<svg xmlns="http://www.w3.org/2000/svg" viewBox="0 0 24 24"><path fill="#151E28" d="M14.75 2.25v5.5h-5.5v-5.5h5.5Zm-7 7v5.5h-5.5v-5.5h5.5Zm1.5 0h5.5v5.5h-5.5Zm12.5 5.5h-5.5v-5.5h5.5Zm-12.5 7v-5.5h5.5v5.5Zm7-14V2.259c.383.008.728.022 1.038.048.714.058 1.317.18 1.869.46a4.744 4.744 0 0 1 2.076 2.076c.28.551.402 1.155.46 1.868.026.346.042.692.047 1.039h-5.49Zm-8.5 0H2.26c.007-.383.022-.728.047-1.039.058-.713.18-1.317.46-1.868a4.752 4.752 0 0 1 2.077-2.076c.55-.28 1.154-.402 1.868-.46.31-.026.655-.04 1.038-.048V7.75Zm13.99 8.5c-.007.383-.022.727-.047 1.038-.058.713-.18 1.317-.461 1.868a4.752 4.752 0 0 1-2.075 2.076c-.552.281-1.155.402-1.869.461-.311.025-.655.039-1.038.047v-5.49Zm-19.48 0h5.49v5.49a16.814 16.814 0 0 1-1.038-.048c-.714-.058-1.318-.18-1.868-.46a4.752 4.752 0 0 1-2.077-2.076c-.28-.551-.402-1.155-.46-1.868a17.738 17.738 0 0 1-.047-1.038Z"/></svg>