<svg xmlns="http://www.w3.org/2000/svg" viewBox="0 0 24 24"><path fill="#151E28" d="M9.557 22.502a.75.75 0 0 1-1.285-.684l1.855-7.417-3.462-1.73a.75.75 0 0 1-.222-1.173l1.892-2.102L2.47 3.53a.751.751 0 0 1 .018-1.042.751.751 0 0 1 1.042-.018l18 18a.749.749 0 0 1-.326 1.275.749.749 0 0 1-.734-.215l-5.283-5.283Zm6.795-21.164c.304.162.459.51.376.844l-1.855 7.416 3.462 1.731a.749.749 0 1 1-.67 1.342l-4-2a.75.75 0 0 1-.393-.853l1.27-5.076-1.985 2.204a.75.75 0 0 1-1.114-1.003l4-4.445a.75.75 0 0 1 .91-.16Z"/></svg>