<svg xmlns="http://www.w3.org/2000/svg" viewBox="0 0 24 24"><path fill="#151E28" d="M1.47 2.53a.751.751 0 0 1 .018-1.042.751.751 0 0 1 1.042-.018l20 20a.749.749 0 0 1-.326 1.275.749.749 0 0 1-.734-.215l-5.572-5.572c-.097.309-.146.63-.148.953V19a3.75 3.75 0 0 1-7.5 0v-1.09c0-.734-.27-1.44-.706-2.125a9.952 9.952 0 0 0-1.168-1.453A7.728 7.728 0 0 1 4.25 9c0-1.086.224-2.12.628-3.06L1.47 2.53Zm7.852.821a.75.75 0 1 1-.644-1.355 7.75 7.75 0 0 1 9.964 10.999.748.748 0 0 1-1.315-.011.75.75 0 0 1 .031-.763 6.25 6.25 0 0 0-8.036-8.87ZM9.75 19a2.25 2.25 0 1 0 4.5 0v-.962c-.658.426-1.41.712-2.25.712-.843 0-1.599-.291-2.25-.712ZM4.878 5.94v-.001Z"/></svg>