<svg xmlns="http://www.w3.org/2000/svg" viewBox="0 0 24 24"><path fill="#151E28" d="M12.802 3.137c.395.203.626.589.79.913.172.34.356.8.576 1.352l.014.033 4.696 11.74.014.034c.264.662.48 1.203.61 1.625.118.383.24.881.063 1.333a1.752 1.752 0 0 1-1.292 1.08c-.476.094-.945-.115-1.301-.298-.391-.202-.886-.511-1.491-.889l-.031-.019-2.152-1.345c-.661-.414-.844-.517-1.021-.557a1.263 1.263 0 0 0-.554 0c-.177.04-.36.143-1.022.557L8.549 20.04l-.03.02c-.605.378-1.099.687-1.492.889-.355.183-.824.392-1.3.298a1.752 1.752 0 0 1-1.292-1.08c-.177-.453-.055-.951.063-1.333.129-.422.346-.963.611-1.625l.013-.034 4.696-11.74.013-.033c.221-.552.405-1.012.577-1.352.164-.323.394-.709.79-.913a1.753 1.753 0 0 1 1.604 0Z"/></svg>