<svg xmlns="http://www.w3.org/2000/svg" viewBox="0 0 24 24"><path fill="#151E28" d="M8.75 5v3a.75.75 0 0 1-.012.134c.158-.034.318-.062.479-.083C9.607 8 10.071 8 11 8h2c.93 0 1.393 0 1.783.051a5.999 5.999 0 0 1 5.166 5.166c.051.39.051.854.051 1.783 0 .93 0 1.393-.051 1.783a5.999 5.999 0 0 1-5.166 5.166C14.393 22 13.929 22 13 22h-2c-.93 0-1.393 0-1.783-.051a5.999 5.999 0 0 1-5.166-5.166C4 16.393 4 15.929 4 15c0-.93 0-1.393.051-1.783A6 6 0 0 1 7.49 8.55.747.747 0 0 1 7.25 8V5A4.75 4.75 0 0 1 11.404.299 4.75 4.75 0 0 1 16.6 3.813a.75.75 0 1 1-1.452.374A3.25 3.25 0 0 0 8.75 5ZM10 14.8v.4a1.8 1.8 0 0 0 1.8 1.8h.4a1.8 1.8 0 0 0 1.8-1.8v-.4a1.8 1.8 0 0 0-1.8-1.8h-.4a1.8 1.8 0 0 0-1.8 1.8Z"/></svg>