<svg xmlns="http://www.w3.org/2000/svg" viewBox="0 0 24 24"><path fill="#151E28" d="M5.512 19.24c.054.568.302 1.101.702 1.509H5.75c-2.47 0-4.5-1.962-4.5-4.417 0-2.15 1.559-3.923 3.605-4.329a4.751 4.751 0 0 1 9.29 0c2.046.406 3.605 2.179 3.605 4.33 0 2.454-2.03 4.416-4.5 4.416h-.412l.242-.363c.083-.124.153-.254.211-.387l.01-.023a2.502 2.502 0 0 0-.963-3.09 2.5 2.5 0 0 0-4.418-2.274l-2 3a2.495 2.495 0 0 0-.408 1.628Zm5.714-12.427a.75.75 0 1 1-1.364-.626 6.752 6.752 0 0 1 6.137-3.937.75.75 0 0 1 .6 1.2 4.251 4.251 0 0 0 4.898 6.529.75.75 0 0 1 .984.912 6.762 6.762 0 0 1-3.106 3.956.752.752 0 0 1-1.147-.644.75.75 0 0 1 .397-.654 5.28 5.28 0 0 0 1.86-1.82 5.748 5.748 0 0 1-5.851-7.8 5.264 5.264 0 0 0-3.408 2.884Zm-.81 8.562a.75.75 0 0 1 .208 1.04L9.401 18.25H11a.748.748 0 0 1 .624 1.166l-2 3a.749.749 0 1 1-1.248-.832l1.223-1.834H8a.748.748 0 0 1-.624-1.166l2-3a.75.75 0 0 1 1.04-.208Z"/></svg>