<svg xmlns="http://www.w3.org/2000/svg" viewBox="0 0 24 24"><path fill="#151E28" d="M14.243 14.083v.001a4.33 4.33 0 0 0-4.486 0l-.639-.32a2.501 2.501 0 0 0-2.236 4.472l.99.495c.82.411 1.75.55 2.655.397-.083.56.025 1.132.308 1.622H5.75c-2.47 0-4.5-1.962-4.5-4.416 0-2.151 1.559-3.924 3.605-4.33a4.751 4.751 0 0 1 9.29 0 4.52 4.52 0 0 1 2.669 1.632 2.5 2.5 0 0 0-1.932.128Zm-3.017-7.27a.75.75 0 1 1-1.364-.626A6.75 6.75 0 0 1 16 2.25a.75.75 0 0 1 .6 1.2 4.25 4.25 0 0 0 4.897 6.529.75.75 0 0 1 .984.912 6.762 6.762 0 0 1-3.106 3.956.75.75 0 0 1-.75-1.298 5.28 5.28 0 0 0 1.86-1.82 5.748 5.748 0 0 1-5.851-7.8 5.264 5.264 0 0 0-3.408 2.884Zm6.42 13.61a1.079 1.079 0 0 0-1.293 0 2.576 2.576 0 0 1-2.699.243l-.99-.495a.75.75 0 1 1 .671-1.342l.99.495c.365.183.802.143 1.129-.102a2.579 2.579 0 0 1 3.093 0c.326.245.763.285 1.128.102l.99-.495a.75.75 0 1 1 .67 1.342l-.99.495a2.576 2.576 0 0 1-2.698-.244Zm-6.293-3.5.001-.001a2.578 2.578 0 0 1-2.699.244l-.99-.495a.749.749 0 1 1 .67-1.342l.99.495c.365.183.802.143 1.129-.102a2.577 2.577 0 0 1 3.092 0c.327.245.764.285 1.129.102l.99-.495a.75.75 0 1 1 .671 1.342l-.99.495a2.582 2.582 0 0 1-2.7-.243 1.076 1.076 0 0 0-1.293 0Z"/></svg>