<svg xmlns="http://www.w3.org/2000/svg" viewBox="0 0 24 24"><path fill="#151E28" d="M12.822 2.1v-.001c.35.098.647.278.937.498.334.264.658.539.972.827l.022.02 4.209 3.741.023.021c.358.308.703.629 1.036.963.275.289.506.59.643.96.21.565.228 1.183.052 1.76-.115.377-.328.692-.585.996-.248.293-.579.624-.978 1.023l-.022.022-6.468 6.467-.02.02c-.358.358-.657.658-.922.884-.277.236-.563.433-.906.551a2.746 2.746 0 0 1-1.637.048c-.35-.097-.647-.277-.937-.497-.278-.21-.594-.491-.972-.828l-.022-.02-4.209-3.74-.023-.021a18.096 18.096 0 0 1-1.036-.963c-.275-.29-.506-.59-.643-.96a2.748 2.748 0 0 1-.052-1.76c.115-.378.328-.692.585-.996.248-.293.58-.624.978-1.023l.022-.022 6.468-6.467.02-.021c.358-.357.657-.657.922-.883.277-.236.563-.433.906-.551a2.746 2.746 0 0 1 1.637-.048Zm-1.148 1.466c-.094.032-.214.098-.422.275-.214.183-.471.439-.855.823l-6.213 6.213a6.235 6.235 0 0 1 2.73-.152l6.09 1.015c1.173.196 1.688.28 2.198.29.481.01.962-.027 1.436-.112.475-.086.944-.237 1.95-.572a8.49 8.49 0 0 0 .397-.43c.197-.232.266-.365.296-.465a1.246 1.246 0 0 0-.023-.8c-.036-.098-.113-.227-.323-.448-.216-.226-.519-.496-.97-.898l-4.208-3.74a16.492 16.492 0 0 0-.903-.771c-.216-.165-.341-.224-.436-.25a1.25 1.25 0 0 0-.744.022Zm7.314 12.95a1.75 1.75 0 0 1 2.024 0c.195.138.336.32.447.482.11.16.234.365.375.6l.011.02.514.857.002.003a2.75 2.75 0 0 1-1.487 4.021l-.004.001h-.001a2.748 2.748 0 0 1-1.738 0h-.005a2.749 2.749 0 0 1-1.487-4.022l.002-.004.514-.857.011-.019c.141-.235.265-.44.375-.6.111-.163.252-.344.447-.482Z"/></svg>