<svg xmlns="http://www.w3.org/2000/svg" viewBox="0 0 24 24"><path fill="#151E28" d="m12 21 .093.744a.724.724 0 0 1-.186 0L12 21l-.094.744h-.003l-.007-.001-.022-.003a12.23 12.23 0 0 1-1.32-.282c-1.019-.273-2-.669-2.922-1.18C5.481 19.069 3.25 16.857 3.25 13a5.753 5.753 0 0 1 3.401-5.25H7c.177 0 .482.05.897.168.134.037.274.08.419.128.29.096.598.21.909.338a14.26 14.26 0 0 1 1.966.974A4.241 4.241 0 0 1 13.25 13a4.24 4.24 0 0 1-1.7 3.4.75.75 0 0 0 .9 1.2 5.742 5.742 0 0 0 2.3-4.6 5.731 5.731 0 0 0-2.786-4.928l.036.022A5.75 5.75 0 0 1 20.75 13c0 3.856-2.23 6.068-4.382 7.279a13.007 13.007 0 0 1-4.164 1.45l-.078.01-.022.004h-.007l-.002.001h-.001ZM6.794 2.67v-.001c1.239-.243 2.564.058 3.641.698 1.078.641 1.983 1.667 2.294 2.957a.749.749 0 0 1-.942.903.748.748 0 0 1-.516-.551c-.197-.815-.793-1.538-1.603-2.02a3.967 3.967 0 0 0-1.938-.57c.012.178.033.356.062.532.056.32.156.651.382 1.143a.75.75 0 1 1-1.364.626c-.266-.582-.412-1.038-.495-1.51-.069-.397-.091-.796-.116-1.243l-.01-.187a.75.75 0 0 1 .605-.777Zm9.107 0a.75.75 0 0 1 .604.777l-.01.187c-.024.447-.046.846-.116 1.243-.082.472-.228.928-.495 1.51a.75.75 0 1 1-1.364-.626c.226-.492.326-.823.382-1.143.03-.168.048-.336.062-.532-.398.006-.81.084-1.212.228a.75.75 0 0 1-.505-1.412c.842-.302 1.768-.407 2.654-.233Z"/></svg>