<svg xmlns="http://www.w3.org/2000/svg" viewBox="0 0 24 24"><path fill="#151E28" d="M11.25 1.327V10a.73.73 0 0 0 .013.14 2 2 0 1 0 1.474 0 .73.73 0 0 0 .013-.14V1.328c.297.145.506.379.67.598.169.226.354.526.564.868l.018.028 5.793 9.415.047.075c.264.429.472.766.577 1.141.092.33.122.675.087 1.016-.039.388-.187.755-.374 1.223l-.033.082-.598 1.494-.044.11c-.246.618-.44 1.103-.776 1.473-.11.12-.23.23-.358.33A2.25 2.25 0 0 1 16.5 22.75h-9a2.25 2.25 0 0 1-1.821-3.572 2.666 2.666 0 0 1-.359-.33c-.336-.369-.529-.854-.776-1.472l-.044-.11-.597-1.494-.033-.082c-.187-.468-.334-.835-.374-1.223a2.743 2.743 0 0 1 .087-1.016c.105-.375.313-.712.577-1.141l.046-.075L10 2.82l.016-.027c.211-.342.395-.642.565-.868.164-.218.373-.453.669-.598ZM7.5 19.75a.75.75 0 0 0 0 1.5h9a.75.75 0 0 0 0-1.5Z"/></svg>