<svg xmlns="http://www.w3.org/2000/svg" viewBox="0 0 24 24"><path fill="#151E28" d="M8 2.25A2.75 2.75 0 0 1 10.75 5v4A2.75 2.75 0 0 1 8 11.75a4.727 4.727 0 0 1-2.588-.766 12.288 12.288 0 0 0 7.604 7.604A4.728 4.728 0 0 1 12.25 16 2.75 2.75 0 0 1 15 13.25h4A2.75 2.75 0 0 1 21.75 16 4.75 4.75 0 0 1 17 20.75C9.406 20.75 3.25 14.594 3.25 7A4.75 4.75 0 0 1 8 2.25Zm12 8.5a.75.75 0 0 1-.75-.75c0-3.086-2.164-5.25-5.25-5.25a.75.75 0 0 1 0-1.5c3.914 0 6.75 2.836 6.75 6.75a.75.75 0 0 1-.75.75ZM16.25 10A2.25 2.25 0 0 0 14 7.75a.75.75 0 0 1 0-1.5A3.75 3.75 0 0 1 17.75 10a.75.75 0 0 1-1.5 0Z"/></svg>