<svg xmlns="http://www.w3.org/2000/svg" viewBox="0 0 24 24"><path fill="#151E28" d="M20.75 9.555v.001c0 2.767-1.079 5.221-2.426 7.21-1.347 1.99-2.991 3.555-4.193 4.56l-.05.04c-.421.353-.763.64-1.325.8a2.866 2.866 0 0 1-.756.092c-.241 0-.517-.024-.755-.092-.562-.16-.905-.447-1.325-.8l-.05-.04c-1.203-1.005-2.846-2.57-4.194-4.56-1.347-1.989-2.426-4.443-2.426-7.211 0-2.733 1.096-4.83 2.768-6.232C7.673 1.936 9.852 1.263 12 1.263s4.327.673 5.982 2.062c1.672 1.4 2.768 3.497 2.768 6.23ZM12 7.25a.75.75 0 0 0-.75.75v2.25H9a.75.75 0 0 0 0 1.5h2.25V14a.75.75 0 0 0 1.5 0v-2.25H15a.75.75 0 0 0 0-1.5h-2.25V8a.75.75 0 0 0-.75-.75Z"/></svg>