<svg xmlns="http://www.w3.org/2000/svg" viewBox="0 0 24 24"><path fill="#151E28" d="M17.095 2.25c.838 0 1.372 0 1.832.091a4.751 4.751 0 0 1 3.732 3.732c.091.46.091.994.091 1.832v8.19c0 .838 0 1.372-.091 1.832a4.751 4.751 0 0 1-3.732 3.732c-.46.091-.994.091-1.832.091H6.905c-.838 0-1.372 0-1.832-.091a4.751 4.751 0 0 1-3.732-3.732c-.091-.46-.091-.994-.091-1.832v-8.19c0-.838 0-1.372.091-1.832a4.751 4.751 0 0 1 3.732-3.732c.46-.091.994-.091 1.832-.091h10.19Zm-4.345 9v1.5a3 3 0 0 0 2.706 2.986l1.556 1.333a.75.75 0 1 0 .976-1.138l-.703-.603a2.996 2.996 0 0 0 1.465-2.578v-1.5a3 3 0 1 0-6 0ZM7 8.25a.75.75 0 0 0-.75.75v6a.75.75 0 0 0 1.5 0v-2.25h2.5V15a.75.75 0 0 0 1.5 0V9a.75.75 0 0 0-1.5 0v2.25h-2.5V9A.75.75 0 0 0 7 8.25Zm8.75 1.5a1.5 1.5 0 0 1 1.5 1.5v1.5a1.5 1.5 0 0 1-3 0v-1.5a1.5 1.5 0 0 1 1.5-1.5Z"/></svg>