<svg xmlns="http://www.w3.org/2000/svg" viewBox="0 0 24 24"><path fill="#151E28" d="M9.253 2.25h5.494c.419 0 .748 0 1.066.076.281.068.549.179.795.33.28.17.512.403.808.7l.052.051 3.126 3.125.05.052c.296.295.53.528.7.808.151.246.262.514.33.794.076.319.076.648.076 1.067v5.494c0 .419 0 .748-.076 1.066a2.759 2.759 0 0 1-.33.795c-.17.28-.403.512-.7.808l-.051.052-3.125 3.126-.052.05c-.296.296-.528.53-.808.7a2.759 2.759 0 0 1-.795.33c-.318.076-.647.076-1.066.076H9.253c-.419 0-.748 0-1.067-.076a2.737 2.737 0 0 1-.794-.33c-.28-.17-.513-.403-.808-.7l-.052-.051-3.126-3.125-.05-.052c-.297-.296-.53-.528-.7-.808a2.693 2.693 0 0 1-.33-.795c-.076-.318-.076-.647-.076-1.066V9.253c0-.419 0-.748.076-1.067.068-.28.179-.548.33-.794.17-.28.403-.513.7-.808l.051-.052 3.125-3.126.052-.05c.295-.297.528-.53.808-.7.246-.151.514-.262.794-.33.319-.076.648-.076 1.067-.076Zm-.51 11.854.001-.005.004-.027.018-.111c.101-.571.267-1.13.493-1.664.418-.972.961-1.547 1.63-1.547.379 0 .846.167 1.38.507.523.334 1.046.792 1.516 1.27.243.246.468.493.668.723H13a.75.75 0 0 0 0 1.5h3a.75.75 0 0 0 .75-.75v-3a.75.75 0 0 0-1.5 0v.891a15.064 15.064 0 0 0-.396-.418c-.515-.521-1.126-1.064-1.779-1.481-.644-.41-1.398-.742-2.186-.742-1.665 0-2.566 1.425-3.008 2.453a9.234 9.234 0 0 0-.615 2.135l-.006.041-.002.012-.001.003v.002l.354.05-.354-.049a.75.75 0 0 0 1.486.207ZM8 14l-.389-.054L8 14Z"/></svg>