<svg xmlns="http://www.w3.org/2000/svg" viewBox="0 0 24 24"><path fill="#151E28" d="M11.107 4.395c.274-.149.614-.296.998-.273.51.03.982.283 1.291.69.232.308.297.672.326.983.028.31.028.704.028 1.16v10.09c0 .456 0 .849-.028 1.16-.028.31-.094.675-.326.982-.309.408-.78.66-1.291.691-.384.023-.724-.125-.998-.273-.336-.193-.663-.4-.981-.62l-.03-.02-7.515-5.01-.027-.018c-.31-.207-.585-.39-.794-.558-.215-.174-.444-.395-.574-.709a1.748 1.748 0 0 1 0-1.34l.688.285-.688-.286c.13-.313.359-.535.574-.708.209-.168.483-.351.794-.558l.027-.018 7.516-5.01.029-.02c.38-.253.706-.471.98-.62Zm9 0c.274-.149.614-.296.998-.273.51.03.982.283 1.291.69.232.308.297.672.326.983.028.31.028.704.028 1.16v10.09c0 .456 0 .849-.028 1.16-.029.31-.094.675-.326.982-.309.408-.78.66-1.291.691-.384.023-.724-.125-.998-.273-.336-.193-.663-.4-.981-.62l-.03-.02-.017-.011-4.012-2.842a.749.749 0 0 1-.317-.612v-7c0-.243.118-.472.317-.612l4.012-2.842.018-.012.029-.02c.38-.252.706-.47.98-.619Z"/></svg>