<svg xmlns="http://www.w3.org/2000/svg" viewBox="0 0 24 24"><path fill="#151E28" d="M10.287 6.08h-.001c3.89-3.889 7.837-3.694 9.67-3.3l.014.003c.111.022.22.052.326.089.141.053.277.121.404.203.143.089.294.23.394.33.124.119.234.251.33.394.082.127.15.263.203.404.037.106.067.215.089.326l.003.013c.394 1.834.589 5.781-3.3 9.67-.382.382-.752.735-1.11 1.063.711 2.694-.293 5.609-2.591 7.25l-1.344.96a.75.75 0 0 1-1.147-.374l-1.414-4.242a.781.781 0 0 1-.025-.095c-1.254-.145-2.432-.835-3.33-1.733-.898-.898-1.588-2.076-1.733-3.33a.633.633 0 0 1-.095-.025l-4.242-1.414a.75.75 0 0 1-.373-1.147l.96-1.344c1.64-2.297 4.555-3.302 7.25-2.591.327-.358.68-.728 1.062-1.11Zm6.187 4.774a2.002 2.002 0 1 0-2.831-2.831 2.002 2.002 0 0 0 2.831 2.831Zm-2.628 10.45c1.57-1.121 2.37-3.022 2.154-4.9-.953.77-1.801 1.34-2.537 1.765l-1.052.751.918 2.754ZM3.195 10.653l-.37.517 2.754.918.75-1.05a19.746 19.746 0 0 1 1.766-2.539c-1.878-.216-3.779.584-4.9 2.154Z"/></svg>