<svg xmlns="http://www.w3.org/2000/svg" viewBox="0 0 24 24"><path fill="#151E28" d="m18.307 3.104 2.567 2.567.022.022c.377.377.693.693.93.971.246.29.45.59.568.95.18.552.18 1.148 0 1.7-.117.36-.322.66-.569.95-.236.279-.552.594-.93.972l-.02.021-.036.036-.53-.53-.53-.531-2.299-2.298a.751.751 0 0 0-1.042.018.751.751 0 0 0-.018 1.042l2.297 2.299.53.53.531.53-1.768 1.768-.53-.53-.53-.53-.884-.884a.751.751 0 0 0-1.042.018.751.751 0 0 0-.018 1.042l.883.884.53.53.53.53-1.767 1.769-.53-.53-.53-.531-2.299-2.298a.749.749 0 0 0-1.275.326.749.749 0 0 0 .215.734l2.298 2.299.53.53.53.53-1.768 1.768-.53-.53-.53-.53-.884-.885a.748.748 0 0 0-1.265.332.75.75 0 0 0 .205.729l.883.884.53.53.53.53-.034.036-.022.021c-.378.378-.693.694-.972.93-.29.247-.59.451-.95.568-.552.18-1.148.18-1.7 0-.36-.117-.659-.321-.95-.568-.278-.236-.593-.552-.971-.93l-.022-.021-2.545-2.546-.022-.021a17.783 17.783 0 0 1-.93-.972c-.246-.29-.45-.59-.568-.95a2.743 2.743 0 0 1 0-1.7c.117-.36.322-.66.569-.95.236-.278.552-.593.93-.971l.02-.022 9.617-9.616.022-.022c.378-.378.693-.693.972-.93.29-.246.59-.45.95-.568a2.743 2.743 0 0 1 1.7 0c.36.117.659.322.95.569.278.236.593.551.971.93Z"/></svg>