<svg xmlns="http://www.w3.org/2000/svg" viewBox="0 0 24 24"><path fill="#151E28" d="M10.17 1.25h3.66c.535 0 .98 0 1.345.03.38.03.736.098 1.073.27.518.264.938.684 1.202 1.202.172.337.24.693.27 1.073.03.365.03.81.03 1.345v.08H13a.75.75 0 0 0 0 1.5h4.75v2.5H15a.75.75 0 0 0 0 1.5h2.75v2.5H13a.75.75 0 0 0 0 1.5h4.75v2.5H15a.75.75 0 0 0 0 1.5h2.75v.08c0 .535 0 .98-.03 1.345-.03.38-.098.736-.27 1.073a2.752 2.752 0 0 1-1.201 1.202c-.338.172-.694.24-1.074.27-.365.03-.81.03-1.345.03h-3.66c-.535 0-.98 0-1.345-.03-.38-.03-.736-.098-1.073-.27a2.75 2.75 0 0 1-1.202-1.2c-.172-.338-.24-.694-.27-1.074-.03-.365-.03-.81-.03-1.345V5.17c0-.535 0-.98.03-1.345.03-.38.098-.736.27-1.073A2.749 2.749 0 0 1 7.752 1.55c.337-.172.693-.24 1.073-.27.365-.03.81-.03 1.345-.03Z"/></svg>