<svg xmlns="http://www.w3.org/2000/svg" viewBox="0 0 24 24"><path fill="#151E28" d="M3.304 11.669a2.411 2.411 0 0 1 1.27-3.536c.728-.259 1.61-.523 2.49-.663.863-.137 1.81-.17 2.619.12.097.036.192.073.285.111 1.526.637 1.779 2.338 1.581 3.556l-.006.04c.366.164.701.392.988.672.39.391.62.952.772 1.527.157.592.255 1.297.32 2.067.127 1.531.127 3.43.127 5.41V21a.75.75 0 0 1-1.5 0c0-2.01 0-3.85-.122-5.313-.061-.73-.15-1.337-.275-1.807-.129-.488-.274-.74-.383-.85a1.595 1.595 0 0 0-.183-.155l-.013.08c-.084.515-.254 1.086-.567 1.57-.32.496-.812.934-1.517 1.063-.704.13-1.472.043-2.29-.25-.807-.29-1.518-.918-2.096-1.573-.59-.667-1.103-1.433-1.5-2.096ZM18.97 4.372a2.41 2.41 0 0 1 2.657 2.657c-.077.769-.214 1.68-.463 2.536-.244.839-.619 1.71-1.226 2.317-.615.615-1.273 1.021-1.965 1.204-.692.183-1.325-.002-1.825-.314-.49-.305-.888-.75-1.183-1.18l-.974-1.419c-.698-1.017-1.195-2.663-.086-3.89a5.53 5.53 0 0 1 .211-.222c.607-.607 1.479-.983 2.318-1.227.855-.248 1.767-.385 2.536-.462ZM6.72 10.25a.75.75 0 0 0-.001 1.5h.037l.133.007c.118.007.286.02.484.048.403.057.887.167 1.297.369a.751.751 0 0 0 .66-1.347c-.61-.3-1.266-.439-1.748-.507a7.595 7.595 0 0 0-.838-.07h-.023V11Zm11.932-2.62a.75.75 0 0 0-1.022-.282l-.002.001-.002.001-.005.003-.014.008a5.358 5.358 0 0 0-.657.478c-.356.304-.81.772-1.12 1.394a.75.75 0 0 0 1.341.67c.19-.378.485-.694.754-.923.134-.115.276-.22.425-.315l.02-.013h.002l.001-.001a.75.75 0 0 0 .28-1.021ZM18 8l-.37-.652L18 8Z"/></svg>