<svg xmlns="http://www.w3.org/2000/svg" viewBox="0 0 24 24"><path fill="#151E28" d="M11.25 18.75a2.5 2.5 0 0 1 2.5-2.5h.5a2.5 2.5 0 0 1 2.5 2.5v.5a2.5 2.5 0 0 1-2.5 2.5h-.5a2.5 2.5 0 0 1-2.5-2.5Zm0-14a2.5 2.5 0 0 1 2.5-2.5h.5a2.5 2.5 0 0 1 2.5 2.5v.5a2.5 2.5 0 0 1-2.5 2.5h-.5a2.5 2.5 0 0 1-2.5-2.5Zm-2.5 4.5h.5a2.5 2.5 0 0 1 2.5 2.5v.5a2.5 2.5 0 0 1-2.5 2.5h-.5a2.5 2.5 0 0 1-2.5-2.5v-.5a2.5 2.5 0 0 1 2.5-2.5Zm5.25 2h7a.75.75 0 0 1 0 1.5h-7a.75.75 0 0 1 0-1.5Zm-11-7h6a.75.75 0 0 1 0 1.5H3a.75.75 0 0 1 0-1.5ZM2.25 19a.75.75 0 0 1 .75-.75h6a.75.75 0 0 1 0 1.5H3a.75.75 0 0 1-.75-.75ZM19 4.25h2a.75.75 0 0 1 0 1.5h-2a.75.75 0 0 1 0-1.5Zm0 14h2a.75.75 0 0 1 0 1.5h-2a.75.75 0 0 1 0-1.5ZM2.25 12a.75.75 0 0 1 .75-.75h1a.75.75 0 0 1 0 1.5H3a.75.75 0 0 1-.75-.75Z"/></svg>