<svg xmlns="http://www.w3.org/2000/svg" viewBox="0 0 24 24"><path fill="#151E28" d="M10.849 3.674a3.75 3.75 0 0 1 4.489 1.86c.241.47.328 1.072.37 1.768.042.709.042 1.635.042 2.824v3.749c0 1.188 0 2.114-.043 2.823-.041.696-.128 1.297-.37 1.769a3.75 3.75 0 0 1-4.488 1.86c-.505-.163-.99-.527-1.512-.99-.532-.47-1.187-1.126-2.027-1.966l-.02-.02-.199-.2a1.25 1.25 0 0 0-.89-.401h-.097c-.096 0-.17 0-.235-.003a2.75 2.75 0 0 1-2.616-2.616c-.003-.066-.003-.14-.003-.235v-3.792c0-.096 0-.169.003-.235A2.75 2.75 0 0 1 5.87 7.253c.066-.003.14-.003.235-.003H6.2c.339-.008.66-.153.89-.402l.2-.2.019-.018c.84-.84 1.495-1.496 2.027-1.967.521-.463 1.007-.826 1.512-.99ZM18.45 6.4 18 7l.451-.6v.002h.002l.003.003.01.008a4.56 4.56 0 0 1 .388.357c.297.313.56.656.785 1.025.566.919 1.111 2.304 1.111 4.205 0 1.901-.545 3.286-1.111 4.206a6.109 6.109 0 0 1-.785 1.025 4.56 4.56 0 0 1-.36.335l-.027.022-.01.007-.004.003-.002.001-.001.001a.751.751 0 0 1-.904-1.196l.005-.005c.077-.065.15-.134.22-.207.224-.236.421-.495.59-.773.434-.705.889-1.82.889-3.418 0-1.6-.455-2.715-.888-3.42a4.654 4.654 0 0 0-.59-.772 2.663 2.663 0 0 0-.18-.173l-.041-.035-.006-.004A.75.75 0 1 1 18.45 6.4Z"/></svg>