<svg xmlns="http://www.w3.org/2000/svg" viewBox="0 0 24 24"><path fill="#151E28" d="M2.53 1.47h.001l20 20a.751.751 0 0 1-.018 1.042.751.751 0 0 1-1.042.018l-2.735-2.735c-.392.857-1.462 1.325-2.412.825l-4.207-2.212a.252.252 0 0 0-.233 0L7.678 20.62c-1.284.675-2.785-.415-2.54-1.845l.804-4.685a.25.25 0 0 0-.072-.22l-3.405-3.319C1.427 9.54 2 7.775 3.435 7.568l2.682-.39L1.47 2.53a.751.751 0 0 1 .018-1.042.751.751 0 0 1 1.042-.018Zm7.9 1.015c.642-1.3 2.497-1.3 3.139 0l2.103 4.262a.251.251 0 0 0 .189.137l4.703.683c1.435.209 2.009 1.973.97 2.985l-3.01 2.935a.75.75 0 1 1-1.047-1.075l3.01-2.934a.25.25 0 0 0-.139-.426l-4.703-.684a1.752 1.752 0 0 1-1.318-.957l-2.103-4.262a.25.25 0 0 0-.448 0l-1.104 2.235a.75.75 0 1 1-1.345-.664l1.104-2.235Z"/></svg>