<svg xmlns="http://www.w3.org/2000/svg" viewBox="0 0 24 24"><path fill="#151E28" d="M17.095 2.25c.838 0 1.372 0 1.832.091a4.751 4.751 0 0 1 3.732 3.732c.091.46.091.994.091 1.832v8.19c0 .838 0 1.372-.091 1.832a4.751 4.751 0 0 1-3.732 3.732c-.46.091-.994.091-1.832.091H6.905c-.838 0-1.372 0-1.832-.091a4.751 4.751 0 0 1-3.732-3.732c-.091-.46-.091-.994-.091-1.832v-8.19c0-.838 0-1.372.091-1.832a4.751 4.751 0 0 1 3.732-3.732c.46-.091.994-.091 1.832-.091h10.19ZM5.25 13c0 .414.336.75.75.75h7a.75.75 0 0 0 0-1.5H6a.75.75 0 0 0-.75.75Zm5 4c0 .414.336.75.75.75h7a.75.75 0 0 0 0-1.5h-7a.75.75 0 0 0-.75.75Zm-5 0c0 .414.336.75.75.75h2a.75.75 0 0 0 0-1.5H6a.75.75 0 0 0-.75.75Zm10-4c0 .414.336.75.75.75h2a.75.75 0 0 0 0-1.5h-2a.75.75 0 0 0-.75.75Z"/></svg>