<svg xmlns="http://www.w3.org/2000/svg" viewBox="0 0 24 24"><path fill="#151E28" d="m8.45 1.4 2.08 1.561c.742.556.95.696 1.152.749.208.055.428.055.636 0 .202-.053.41-.193 1.152-.749l2.08-1.56a.75.75 0 0 1 .9 1.2l-2.08 1.56-.105.08-.016.01c.919.004 1.531.023 2.068.13a6.752 6.752 0 0 1 5.303 5.303c.13.653.13 1.418.13 2.712v.21c0 1.294 0 2.059-.13 2.712a6.75 6.75 0 0 1-4.5 5.092l1.023 1.704a.75.75 0 0 1-1.286.772l-1.302-2.17c-.505.034-1.118.034-1.95.034h-3.21c-.832 0-1.445 0-1.95-.034l-1.302 2.17a.748.748 0 0 1-1.304-.018.75.75 0 0 1 .018-.754l1.023-1.705a6.75 6.75 0 0 1-4.5-5.092c-.13-.652-.13-1.418-.13-2.712v-.21c0-1.294 0-2.059.13-2.712A6.752 6.752 0 0 1 7.683 4.38c.537-.107 1.148-.126 2.068-.13l-.016-.01-.105-.08L7.55 2.6a.75.75 0 0 1 .9-1.2Z"/></svg>