<svg xmlns="http://www.w3.org/2000/svg" viewBox="0 0 24 24"><path fill="#151E28" d="M21.106 15.742a.75.75 0 0 1-.848-.635v-.001l-.002-.01a10.208 10.208 0 0 0-1.157-3.224C18.18 10.264 16.64 8.75 14 8.75c-2.723 0-5.298 1.6-7.256 3.314a23.132 23.132 0 0 0-2.175 2.186H10a.75.75 0 0 1 0 1.5H3a.75.75 0 0 1-.75-.75V8a.75.75 0 0 1 1.5 0v4.914c.63-.698 1.3-1.359 2.006-1.979C7.798 9.15 10.723 7.25 14 7.25c3.36 0 5.32 1.985 6.401 3.878a11.746 11.746 0 0 1 1.337 3.736l.003.02v.006l.001.002v.001L21 15l.742-.106a.75.75 0 0 1-.636.848Z"/></svg>