<svg xmlns="http://www.w3.org/2000/svg" viewBox="0 0 24 24"><path fill="#151E28" d="M9.253 2.25h5.494c.419 0 .748 0 1.066.076.281.068.549.179.795.33.28.17.512.403.808.7l.052.051 3.126 3.125.05.052c.296.295.53.528.7.808.151.246.262.514.33.794.076.319.076.648.076 1.067v5.494c0 .419 0 .748-.076 1.066a2.759 2.759 0 0 1-.33.795c-.17.28-.403.512-.7.808l-.051.052-3.125 3.126-.052.05c-.296.296-.528.53-.808.7a2.759 2.759 0 0 1-.795.33c-.318.076-.647.076-1.066.076H9.253c-.419 0-.748 0-1.067-.076a2.737 2.737 0 0 1-.794-.33c-.28-.17-.513-.403-.808-.7l-.052-.051-3.126-3.125-.05-.052c-.297-.296-.53-.528-.7-.808a2.693 2.693 0 0 1-.33-.795c-.076-.318-.076-.647-.076-1.066V9.253c0-.419 0-.748.076-1.067.068-.28.179-.548.33-.794.17-.28.403-.513.7-.808l.051-.052 3.125-3.126.052-.05c.295-.297.528-.53.808-.7.246-.151.514-.262.794-.33.319-.076.648-.076 1.067-.076Zm6.004 11.854a.75.75 0 1 0 1.486-.207L16 14l.743-.104v-.002l-.001-.003-.002-.012-.006-.041a9.14 9.14 0 0 0-.127-.635 9.187 9.187 0 0 0-.488-1.5c-.442-1.028-1.343-2.453-3.008-2.453-.788 0-1.542.332-2.186.742-.653.417-1.264.96-1.778 1.481-.139.14-.271.28-.397.418V11a.75.75 0 0 0-1.5 0v3c0 .414.336.75.75.75h3a.75.75 0 0 0 0-1.5H9.548c.2-.23.424-.477.667-.723.47-.478.993-.936 1.516-1.27.534-.34 1.001-.507 1.38-.507.669 0 1.212.575 1.63 1.547.226.534.391 1.093.492 1.664l.02.111.003.027Z"/></svg>