<svg xmlns="http://www.w3.org/2000/svg" viewBox="0 0 24 24"><path fill="#151E28" d="M2.25 12A9.75 9.75 0 0 1 12 2.25 9.75 9.75 0 0 1 21.75 12 9.75 9.75 0 0 1 12 21.75 9.75 9.75 0 0 1 2.25 12Zm7.28-3.53a.751.751 0 0 0-1.042.018.751.751 0 0 0-.018 1.042L10.94 12l-2.47 2.47a.749.749 0 0 0 .326 1.275.749.749 0 0 0 .734-.215L12 13.06l2.47 2.47a.749.749 0 0 0 1.275-.326.749.749 0 0 0-.215-.734L13.06 12l2.47-2.47a.751.751 0 0 0-.018-1.042.751.751 0 0 0-1.042-.018L12 10.94Zm10-7 3 3a.749.749 0 0 1-.326 1.275.749.749 0 0 1-.734-.215l-3-3a.749.749 0 0 1 .326-1.275.749.749 0 0 1 .734.215Zm-14 1.06-3 3a.751.751 0 0 1-1.042-.018.751.751 0 0 1-.018-1.042l3-3a.751.751 0 0 1 1.042.018.751.751 0 0 1 .018 1.042Z"/></svg>