<svg xmlns="http://www.w3.org/2000/svg" viewBox="0 0 24 24"><path fill="#151E28" d="m2.44 3.5-.97-.97a.751.751 0 0 1 .018-1.042.751.751 0 0 1 1.042-.018l1.5 1.5 18.5 18.5a.749.749 0 0 1-.326 1.275.749.749 0 0 1-.734-.215l-3.126-3.126A9.714 9.714 0 0 1 12 21.75 9.75 9.75 0 0 1 2.25 12a9.714 9.714 0 0 1 2.346-6.344L3.5 4.56l-.97.97a.751.751 0 0 1-1.042-.018.751.751 0 0 1-.018-1.042Zm6.466.85v-.001a.75.75 0 0 1-.562-1.39 9.75 9.75 0 0 1 12.697 12.696.75.75 0 1 1-1.391-.562A8.25 8.25 0 0 0 8.906 4.35Zm9.564-2.88a.75.75 0 0 1 1.06 0l3 3a.751.751 0 0 1-.018 1.042.751.751 0 0 1-1.042.018l-3-3a.75.75 0 0 1 0-1.06Z"/></svg>