<svg xmlns="http://www.w3.org/2000/svg" viewBox="0 0 24 24"><path fill="#151E28" d="M2.25 12A9.75 9.75 0 0 1 12 2.25 9.75 9.75 0 0 1 21.75 12 9.75 9.75 0 0 1 12 21.75 9.75 9.75 0 0 1 2.25 12Zm10.5-4a.75.75 0 0 0-1.5 0v4c0 .25.125.485.334.624l3 2a.75.75 0 1 0 .832-1.248l-2.666-1.777Zm6.78-6.53 3 3a.749.749 0 0 1-.326 1.275.749.749 0 0 1-.734-.215l-3-3a.749.749 0 0 1 .326-1.275.749.749 0 0 1 .734.215Zm-14 1.06-3 3a.751.751 0 0 1-1.042-.018.751.751 0 0 1-.018-1.042l3-3a.751.751 0 0 1 1.042.018.751.751 0 0 1 .018 1.042Z"/></svg>