<svg xmlns="http://www.w3.org/2000/svg" viewBox="0 0 24 24"><path fill="#151E28" d="M3.25 5.975c0-.445 0-.816.021-1.12.021-.317.068-.617.188-.907A2.749 2.749 0 0 1 4.948 2.46a2.82 2.82 0 0 1 .907-.19c.304-.02.675-.02 1.12-.02h.05c.445 0 .816 0 1.12.021.317.021.617.068.907.188a2.749 2.749 0 0 1 1.488 1.489c.113.29.177.596.19.907.02.304.02.675.02 1.12v8.05c0 .445 0 .816-.021 1.12a2.812 2.812 0 0 1-.188.907 2.749 2.749 0 0 1-1.489 1.488c-.29.121-.59.168-.907.19-.304.02-.675.02-1.12.02h-.05c-.445 0-.816 0-1.12-.021a2.812 2.812 0 0 1-.907-.188 2.749 2.749 0 0 1-1.488-1.489 2.808 2.808 0 0 1-.19-.907c-.02-.304-.02-.675-.02-1.12Zm10 4c0-.445 0-.816.02-1.12.022-.317.069-.617.19-.907a2.749 2.749 0 0 1 1.488-1.489c.29-.12.59-.167.907-.188.304-.021.675-.021 1.12-.021h.05c.445 0 .816 0 1.12.02.317.022.617.07.907.19.674.279 1.21.814 1.489 1.488.12.29.167.59.188.907.021.304.021.675.021 1.12v4.05c0 .445 0 .816-.02 1.12a2.82 2.82 0 0 1-.19.907 2.749 2.749 0 0 1-1.488 1.489c-.29.12-.59.167-.907.188-.304.021-.675.021-1.12.021h-.05c-.445 0-.816 0-1.12-.02a2.82 2.82 0 0 1-.907-.19 2.749 2.749 0 0 1-1.489-1.488c-.12-.29-.167-.59-.188-.907-.021-.304-.021-.675-.021-1.12v-4.05ZM2.25 21a.75.75 0 0 1 .75-.75h18a.75.75 0 0 1 0 1.5H3a.75.75 0 0 1-.75-.75Z"/></svg>