<svg xmlns="http://www.w3.org/2000/svg" viewBox="0 0 24 24"><path fill="#151E28" d="M12 .25a.75.75 0 0 1 .75.75v2.25h3.275c.445 0 .816 0 1.12.02.317.022.617.069.907.189.674.279 1.21.814 1.489 1.488.12.29.167.59.188.907.021.305.021.676.021 1.12v.051c0 .444 0 .815-.02 1.12a2.82 2.82 0 0 1-.19.907 2.747 2.747 0 0 1-1.488 1.488c-.29.12-.59.167-.907.189-.304.02-.675.02-1.12.02H12.75v2.5h1.275c.445 0 .816 0 1.12.021.318.022.617.069.907.189.674.279 1.21.814 1.489 1.488.12.29.167.59.188.907.021.305.021.676.021 1.12v.051c0 .444 0 .815-.02 1.12a2.82 2.82 0 0 1-.19.907 2.747 2.747 0 0 1-1.488 1.488c-.29.12-.59.167-.907.189-.304.02-.675.02-1.12.02H12.75V23a.75.75 0 0 1-1.5 0v-2.25H9.975c-.445 0-.816 0-1.12-.021a2.82 2.82 0 0 1-.907-.189 2.749 2.749 0 0 1-1.489-1.488c-.12-.29-.167-.59-.188-.907-.021-.305-.021-.676-.021-1.12v-.051c0-.444 0-.815.02-1.12.022-.317.07-.616.19-.907a2.747 2.747 0 0 1 1.488-1.488c.29-.12.59-.167.907-.189.304-.02.675-.02 1.12-.02h1.275v-2.5H7.975c-.445 0-.816 0-1.12-.021a2.82 2.82 0 0 1-.907-.189 2.749 2.749 0 0 1-1.489-1.488c-.12-.29-.167-.59-.188-.907-.021-.305-.021-.676-.021-1.12v-.051c0-.444 0-.815.02-1.12.022-.317.07-.616.19-.907A2.75 2.75 0 0 1 5.947 3.46c.29-.12.59-.167.907-.189.304-.02.675-.02 1.12-.02h3.275V1A.75.75 0 0 1 12 .25Z"/></svg>