<svg xmlns="http://www.w3.org/2000/svg" viewBox="0 0 24 24"><path fill="#151E28" d="M3.25 14.5c0-3.882 2.686-7.25 6.25-7.25.892 0 1.738.216 2.5.602a5.514 5.514 0 0 1 2.5-.602c3.565 0 6.25 3.368 6.25 7.25s-2.685 7.25-6.25 7.25a5.514 5.514 0 0 1-2.5-.602 5.514 5.514 0 0 1-2.5.602c-3.564 0-6.25-3.368-6.25-7.25ZM17.505 3.447l-.01.187c-.025.447-.046.846-.115 1.242-.083.473-.229.929-.496 1.51a.75.75 0 1 1-1.363-.625c.225-.492.325-.823.381-1.143.03-.176.051-.354.063-.532a3.987 3.987 0 0 0-1.939.57c-.81.482-1.405 1.205-1.602 2.02a.748.748 0 0 1-1.25.374.749.749 0 0 1-.208-.726c.311-1.289 1.215-2.317 2.294-2.957 1.077-.641 2.401-.941 3.641-.698a.75.75 0 0 1 .604.778Z"/></svg>