<svg xmlns="http://www.w3.org/2000/svg" viewBox="0 0 24 24"><path fill="#151E28" d="M13.117 2.479c.485.216.844.614 1.168 1.071.321.455.676 1.067 1.114 1.825l.019.033 5.45 9.413.02.033c.44.76.796 1.375 1.03 1.881.236.51.403 1.021.348 1.55a2.75 2.75 0 0 1-1.118 1.939c-.43.313-.955.424-1.515.475-.555.051-1.267.051-2.145.051H6.512c-.878 0-1.589 0-2.145-.051-.559-.051-1.085-.162-1.515-.475a2.749 2.749 0 0 1-1.119-1.938c-.054-.53.113-1.04.35-1.55.233-.507.59-1.122 1.03-1.882l.018-.033 5.45-9.413.02-.033c.438-.757.793-1.371 1.115-1.825.323-.457.682-.855 1.167-1.071a2.75 2.75 0 0 1 2.234 0ZM15.75 17a.75.75 0 0 0-.75-.75h-.8c-.572 0-.957 0-1.252-.025-.288-.023-.425-.065-.516-.111a1.253 1.253 0 0 1-.546-.546c-.046-.091-.088-.228-.111-.515-.024-.296-.025-.68-.025-1.253v-.99l.72.72a.751.751 0 0 0 1.042-.018.751.751 0 0 0 .018-1.042l-2-2a.75.75 0 0 0-1.06 0l-2 2a.751.751 0 0 0 .018 1.042.751.751 0 0 0 1.042.018l.72-.72v1.02c0 .535 0 .98.03 1.345.03.38.098.736.27 1.073.263.517.684.938 1.201 1.202.338.172.694.24 1.074.27.365.03.81.03 1.345.03H15a.75.75 0 0 0 .75-.75Z"/></svg>