<svg xmlns="http://www.w3.org/2000/svg" viewBox="0 0 24 24"><path fill="#151E28" d="M9.367 2.25h5.266c1.092 0 1.958 0 2.655.057.714.058 1.317.18 1.869.461a4.744 4.744 0 0 1 2.076 2.076c.28.551.402 1.154.46 1.868.057.697.057 1.563.057 2.655v5.266c0 1.092 0 1.958-.057 2.655-.058.714-.18 1.317-.461 1.869a4.752 4.752 0 0 1-2.075 2.076c-.552.28-1.155.402-1.869.46-.697.057-1.563.057-2.655.057H9.367c-1.092 0-1.958 0-2.655-.057-.714-.058-1.318-.18-1.868-.461a4.75 4.75 0 0 1-2.077-2.075c-.28-.552-.402-1.155-.46-1.869-.057-.697-.057-1.563-.057-2.655V9.367c0-1.092 0-1.958.057-2.655.058-.714.18-1.318.461-1.868a4.752 4.752 0 0 1 2.076-2.077c.551-.28 1.154-.402 1.868-.46.697-.057 1.563-.057 2.655-.057ZM8.25 9c0 .414.336.75.75.75h.2c.853 0 1.447 0 1.91.038.453.037.714.107.912.207.423.216.767.56.983.984.1.197.17.458.207.912.037.462.038 1.056.038 1.909v.39l-.72-.72a.749.749 0 0 0-1.275.326.749.749 0 0 0 .215.734l2 2a.75.75 0 0 0 1.06 0l2-2a.749.749 0 0 0-.326-1.275.749.749 0 0 0-.734.215l-.72.72v-.423c0-.813 0-1.469-.043-2-.045-.546-.14-1.026-.366-1.47a3.752 3.752 0 0 0-1.638-1.64c-.445-.226-.925-.32-1.471-.365-.531-.043-1.187-.043-2-.043H9a.75.75 0 0 0-.75.75Z"/></svg>