<svg xmlns="http://www.w3.org/2000/svg" viewBox="0 0 24 24"><path fill="#151E28" d="M13.117 2.479c.485.216.844.614 1.168 1.071.321.455.676 1.067 1.114 1.825l.019.033 5.45 9.413.02.033c.44.76.796 1.375 1.03 1.881.236.51.403 1.021.348 1.55a2.75 2.75 0 0 1-1.118 1.939c-.43.313-.955.424-1.515.475-.555.051-1.267.051-2.145.051H6.512c-.878 0-1.589 0-2.145-.051-.559-.051-1.085-.162-1.515-.475a2.749 2.749 0 0 1-1.119-1.938c-.054-.53.113-1.04.35-1.55.233-.507.59-1.122 1.03-1.882l.018-.033 5.45-9.413.02-.033c.438-.757.793-1.371 1.115-1.825.323-.457.682-.855 1.167-1.071a2.75 2.75 0 0 1 2.234 0Zm2.945 8.702a.75.75 0 0 0-1.124.992c.183.208.298.476.31.773.002.023.002.054.002.165v1.69c0 .572 0 .956-.025 1.252-.023.287-.065.424-.111.515-.12.235-.312.426-.547.546-.09.046-.227.088-.515.111-.295.024-.68.025-1.252.025h-1.69l-.166-.001a1.247 1.247 0 0 1-.772-.311.75.75 0 0 0-.992 1.124 2.745 2.745 0 0 0 1.699.685c.06.003.127.003.215.003h1.735c.534 0 .98 0 1.345-.03.38-.03.736-.098 1.073-.27a2.752 2.752 0 0 0 1.202-1.201c.172-.338.24-.694.27-1.074.03-.365.03-.81.03-1.345v-1.735c0-.087 0-.155-.003-.215a2.748 2.748 0 0 0-.685-1.7ZM11 14.25a.75.75 0 0 0 0 1.5h2a.75.75 0 0 0 .75-.75v-2a.75.75 0 0 0-1.5 0v.19l-2.72-2.72a.751.751 0 0 0-1.042.018.751.751 0 0 0-.018 1.042l2.72 2.72Z"/></svg>