<svg xmlns="http://www.w3.org/2000/svg" viewBox="0 0 24 24"><path fill="#151E28" d="M12 1.25c5.937 0 10.75 4.813 10.75 10.75S17.937 22.75 12 22.75 1.25 17.937 1.25 12 6.063 1.25 12 1.25ZM7.107 13.204l2.36 2.49c1.087 1.148 3.02.378 3.02-1.204v-.24H13a1.75 1.75 0 0 0 1.75-1.75v-1A1.75 1.75 0 0 0 13 9.75h-.513v-.24c0-1.582-1.933-2.352-3.02-1.204l-2.36 2.49a1.75 1.75 0 0 0 0 2.408Zm1.089-1.032a.25.25 0 0 1 0-.344l2.359-2.49a.25.25 0 0 1 .432.172v.99c0 .414.336.75.75.75H13a.25.25 0 0 1 .25.25v1a.25.25 0 0 1-.25.25h-1.264a.75.75 0 0 0-.75.75v.99a.252.252 0 0 1-.157.231.252.252 0 0 1-.273-.059ZM16 14.25a.75.75 0 0 0 .75-.75v-3a.75.75 0 0 0-1.5 0v3c0 .414.336.75.75.75Z"/></svg>