<svg xmlns="http://www.w3.org/2000/svg" viewBox="0 0 24 24"><path fill="#151E28" d="M12 1.25c5.937 0 10.75 4.813 10.75 10.75S17.937 22.75 12 22.75 1.25 17.937 1.25 12 6.063 1.25 12 1.25ZM9.197 9.803a.75.75 0 0 0-1.06 0L6.47 11.47a.75.75 0 0 0 0 1.06l1.666 1.667a.75.75 0 1 0 1.061-1.06l-.386-.387h1.522a.75.75 0 0 0 0-1.5H8.811l.386-.386a.75.75 0 0 0 0-1.061ZM11.47 6.47 9.803 8.136a.75.75 0 1 0 1.06 1.061l.387-.386v1.522a.75.75 0 0 0 1.5 0V8.811l.386.386a.75.75 0 0 0 1.061-1.06L12.53 6.47a.75.75 0 0 0-1.06 0Zm3.333 4.394.386.386h-1.522a.75.75 0 0 0 0 1.5h1.522l-.386.386a.75.75 0 0 0 1.06 1.061l1.667-1.667a.75.75 0 0 0 0-1.06l-1.666-1.667a.75.75 0 0 0-1.061 1.06Zm-2.053 4.325v-1.522a.75.75 0 0 0-1.5 0v1.522l-.386-.386a.75.75 0 0 0-1.061 1.06l1.667 1.667a.75.75 0 0 0 1.06 0l1.667-1.666a.75.75 0 0 0-1.06-1.061Z"/></svg>