<svg xmlns="http://www.w3.org/2000/svg" viewBox="0 0 24 24"><path fill="#151E28" d="M13.117 2.479c.485.216.844.614 1.168 1.071.321.455.676 1.067 1.114 1.825l.019.033 5.45 9.413.02.033c.44.76.796 1.375 1.03 1.881.236.51.403 1.021.348 1.55a2.75 2.75 0 0 1-1.118 1.939c-.43.313-.955.424-1.515.475-.555.051-1.267.051-2.145.051H6.512c-.878 0-1.589 0-2.145-.051-.559-.051-1.085-.162-1.515-.475a2.749 2.749 0 0 1-1.119-1.938c-.054-.53.113-1.04.35-1.55.233-.507.59-1.122 1.03-1.882l.018-.033 5.45-9.413.02-.033c.438-.757.793-1.371 1.115-1.825.323-.457.682-.855 1.167-1.071a2.75 2.75 0 0 1 2.234 0Zm.772 7.771a.75.75 0 0 0 0 1.5c.055-.001.111 0 .166.001a1.25 1.25 0 0 1 1.194 1.194l.001.166V14.8c0 .572-.001.957-.025 1.252-.023.288-.065.425-.111.515-.12.235-.311.427-.546.547-.091.046-.228.088-.516.111-.295.025-.68.025-1.252.025h-1.689l-.166-.001a1.25 1.25 0 0 1-1.194-1.194l-.001-.166a.75.75 0 0 0-1.5 0v.016a2.75 2.75 0 0 0 2.63 2.842c.06.003.128.003.215.003h1.735c.535 0 .98 0 1.345-.03.38-.03.736-.098 1.074-.27a2.752 2.752 0 0 0 1.201-1.202c.172-.337.24-.693.27-1.073.03-.365.03-.81.03-1.345v-1.735c0-.087 0-.155-.003-.215a2.75 2.75 0 0 0-2.842-2.63ZM11 11.75a.75.75 0 0 0 0-1.5H9a.75.75 0 0 0-.75.75v2a.75.75 0 0 0 1.5 0v-.19l2.72 2.72a.749.749 0 0 0 1.275-.326.749.749 0 0 0-.215-.734l-2.72-2.72Z"/></svg>