<svg xmlns="http://www.w3.org/2000/svg" viewBox="0 0 24 24"><path fill="#151E28" d="M13.117 2.479c.485.216.844.614 1.168 1.071.321.455.676 1.067 1.114 1.825l.019.033 5.45 9.413.02.033c.44.76.796 1.375 1.03 1.881.236.51.403 1.021.348 1.55a2.75 2.75 0 0 1-1.118 1.939c-.43.313-.955.424-1.515.475-.555.051-1.267.051-2.145.051H6.512c-.878 0-1.589 0-2.145-.051-.559-.051-1.085-.162-1.515-.475a2.749 2.749 0 0 1-1.119-1.938c-.054-.53.113-1.04.35-1.55.233-.507.59-1.122 1.03-1.882l.018-.033 5.45-9.413.02-.033c.438-.757.793-1.371 1.115-1.825.323-.457.682-.855 1.167-1.071a2.75 2.75 0 0 1 2.234 0ZM9 10.25a.75.75 0 0 0-.75.75v2c0 .414.336.75.75.75h2a.75.75 0 0 0 0-1.5h-.34c.403-.62.79-.948 1.152-1.082.38-.14.89-.123 1.643.312.411.237.741.559.983.93a.75.75 0 1 0 1.257-.82 4.4 4.4 0 0 0-1.49-1.41c-.998-.576-1.983-.764-2.913-.42-.607.225-1.112.649-1.544 1.19a.75.75 0 0 0-.748-.7ZM15.75 17v-2a.75.75 0 0 0-.75-.75h-2a.75.75 0 0 0 0 1.5h.34c-.404.62-.792.949-1.153 1.083-.38.14-.89.123-1.643-.312a2.918 2.918 0 0 1-.983-.93.751.751 0 0 0-1.257.818 4.4 4.4 0 0 0 1.49 1.41c.998.577 1.983.765 2.913.42.607-.224 1.113-.648 1.545-1.19A.75.75 0 0 0 15.75 17Z"/></svg>