<svg xmlns="http://www.w3.org/2000/svg" viewBox="0 0 24 24"><path fill="#151E28" d="M9.367 2.25h5.266c1.092 0 1.958 0 2.655.057.714.058 1.317.18 1.869.461a4.744 4.744 0 0 1 2.076 2.076c.28.551.402 1.154.46 1.868.057.697.057 1.563.057 2.655v5.266c0 1.092 0 1.958-.057 2.655-.058.714-.18 1.317-.461 1.869a4.752 4.752 0 0 1-2.075 2.076c-.552.28-1.155.402-1.869.46-.697.057-1.563.057-2.655.057H9.367c-1.092 0-1.958 0-2.655-.057-.714-.058-1.318-.18-1.868-.461a4.75 4.75 0 0 1-2.077-2.075c-.28-.552-.402-1.155-.46-1.869-.057-.697-.057-1.563-.057-2.655V9.367c0-1.092 0-1.958.057-2.655.058-.714.18-1.318.461-1.868a4.752 4.752 0 0 1 2.076-2.077c.551-.28 1.154-.402 1.868-.46.697-.057 1.563-.057 2.655-.057Zm.155 6.595a.75.75 0 1 0-.574-1.386 2.75 2.75 0 0 0-1.489 1.489c-.12.29-.167.59-.188.907-.021.304-.021.675-.021 1.12v1.855c0 .535 0 .98.03 1.345.03.38.098.736.27 1.074.264.517.685.938 1.202 1.201.337.172.693.24 1.073.27.365.03.81.03 1.345.03h1.855c.445 0 .816 0 1.12-.02.318-.022.617-.069.907-.19a2.754 2.754 0 0 0 1.489-1.487.75.75 0 1 0-1.386-.575c-.127.307-.37.55-.677.677-.077.032-.194.061-.435.078-.247.017-.567.017-1.043.017h-1.8c-.572 0-.957 0-1.253-.025-.287-.023-.424-.065-.514-.111a1.255 1.255 0 0 1-.547-.546c-.046-.091-.088-.228-.111-.515-.024-.296-.025-.68-.025-1.253V11c0-.476 0-.796.017-1.043.017-.24.046-.358.078-.435.127-.307.37-.55.677-.677ZM15.15 12a.75.75 0 0 0-.75-.75h-.59l2.72-2.72a.749.749 0 0 0-.326-1.275.749.749 0 0 0-.734.215l-2.72 2.72V9.6a.75.75 0 0 0-1.5 0V12c0 .414.336.75.75.75h2.4a.75.75 0 0 0 .75-.75Z"/></svg>