<svg xmlns="http://www.w3.org/2000/svg" viewBox="0 0 24 24"><path fill="#151E28" d="M9.367 2.25h5.266c1.092 0 1.958 0 2.655.057.714.058 1.317.18 1.869.461a4.744 4.744 0 0 1 2.076 2.076c.28.551.402 1.154.46 1.868.057.697.057 1.563.057 2.655v5.266c0 1.092 0 1.958-.057 2.655-.058.714-.18 1.317-.461 1.869a4.752 4.752 0 0 1-2.075 2.076c-.552.28-1.155.402-1.869.46-.697.057-1.563.057-2.655.057H9.367c-1.092 0-1.958 0-2.655-.057-.714-.058-1.318-.18-1.868-.461a4.75 4.75 0 0 1-2.077-2.075c-.28-.552-.402-1.155-.46-1.869-.057-.697-.057-1.563-.057-2.655V9.367c0-1.092 0-1.958.057-2.655.058-.714.18-1.318.461-1.868a4.752 4.752 0 0 1 2.076-2.077c.551-.28 1.154-.402 1.868-.46.697-.057 1.563-.057 2.655-.057Zm5.795 5.258a.75.75 0 1 0-.634 1.36c.267.123.48.338.605.604.04.085.076.213.096.48.02.274.021.63.021 1.16V12.8c0 .572 0 .957-.025 1.253-.023.287-.065.424-.111.515-.12.235-.311.426-.546.546-.091.046-.228.088-.515.111-.296.024-.68.025-1.253.025h-1.689c-.53 0-.885 0-1.16-.021-.266-.02-.394-.056-.48-.096a1.25 1.25 0 0 1-.604-.605.75.75 0 1 0-1.36.634 2.747 2.747 0 0 0 1.33 1.33c.318.148.65.206 1.001.233.338.025.75.025 1.245.025h1.748c.534 0 .98 0 1.344-.03.38-.03.736-.098 1.074-.27a2.755 2.755 0 0 0 1.201-1.201c.172-.338.24-.694.27-1.074.03-.364.03-.81.03-1.344v-1.748c0-.494 0-.907-.025-1.245-.027-.352-.085-.683-.233-1a2.747 2.747 0 0 0-1.33-1.33ZM8.85 12c0 .414.336.75.75.75H12a.75.75 0 0 0 .75-.75V9.6a.75.75 0 0 0-1.5 0v.59L8.53 7.47a.751.751 0 0 0-1.042.018.751.751 0 0 0-.018 1.042l2.72 2.72H9.6a.75.75 0 0 0-.75.75Z"/></svg>