<svg xmlns="http://www.w3.org/2000/svg" viewBox="0 0 24 24"><path fill="#151E28" d="M13.117 2.479c.485.216.844.614 1.168 1.071.321.455.676 1.067 1.114 1.825l.019.033 5.45 9.413.02.033c.44.76.796 1.375 1.03 1.881.236.51.403 1.021.348 1.55a2.75 2.75 0 0 1-1.118 1.939c-.43.313-.955.424-1.515.475-.555.051-1.267.051-2.145.051H6.512c-.878 0-1.589 0-2.145-.051-.559-.051-1.085-.162-1.515-.475a2.749 2.749 0 0 1-1.119-1.938c-.054-.53.113-1.04.35-1.55.233-.507.59-1.122 1.03-1.882l.018-.033 5.45-9.413.02-.033c.438-.757.793-1.371 1.115-1.825.323-.457.682-.855 1.167-1.071a2.75 2.75 0 0 1 2.234 0ZM15 10.25a.75.75 0 0 0-.749.7c-.431-.541-.937-.965-1.543-1.19-.93-.344-1.915-.156-2.913.42a4.4 4.4 0 0 0-1.49 1.41.75.75 0 1 0 1.257.82c.25-.383.586-.702.983-.93.753-.435 1.263-.452 1.642-.312.363.134.749.462 1.153 1.082H13a.75.75 0 0 0 0 1.5h2a.75.75 0 0 0 .75-.75v-2a.75.75 0 0 0-.75-.75ZM8.249 17a.75.75 0 0 0 1.498.049c.432.542.938.966 1.544 1.19.931.345 1.916.157 2.914-.42a4.4 4.4 0 0 0 1.49-1.41.751.751 0 0 0-1.257-.818c-.242.37-.572.692-.983.93-.754.435-1.263.452-1.643.312-.361-.134-.749-.463-1.153-1.083H11a.75.75 0 0 0 0-1.5H9a.75.75 0 0 0-.75.75v2Z"/></svg>