<svg xmlns="http://www.w3.org/2000/svg" viewBox="0 0 24 24"><path fill="#151E28" d="M12 1.25c5.937 0 10.75 4.813 10.75 10.75S17.937 22.75 12 22.75 1.25 17.937 1.25 12 6.063 1.25 12 1.25Zm-1.204 15.143a1.75 1.75 0 0 0 2.408 0l2.49-2.36c1.148-1.087.378-3.02-1.204-3.02h-.24V8.5a1.75 1.75 0 0 0-1.75-1.75h-1A1.75 1.75 0 0 0 9.75 8.5v2.513h-.24c-1.582 0-2.352 1.933-1.204 3.02Zm1.032-1.089-2.49-2.36a.252.252 0 0 1-.059-.273.252.252 0 0 1 .231-.157h.99a.75.75 0 0 0 .75-.75V8.5a.25.25 0 0 1 .25-.25h1a.25.25 0 0 1 .25.25v3.263c0 .414.336.75.75.75h.99a.25.25 0 0 1 .172.432l-2.49 2.359a.25.25 0 0 1-.344 0Z"/></svg>