<svg xmlns="http://www.w3.org/2000/svg" viewBox="0 0 24 24"><path fill="#151E28" d="M9.367 2.25h5.266c1.092 0 1.958 0 2.655.057.714.058 1.317.18 1.869.461a4.744 4.744 0 0 1 2.076 2.076c.28.551.402 1.154.46 1.868.057.697.057 1.563.057 2.655v5.266c0 1.092 0 1.958-.057 2.655-.058.714-.18 1.317-.461 1.869a4.752 4.752 0 0 1-2.075 2.076c-.552.28-1.155.402-1.869.46-.697.057-1.563.057-2.655.057H9.367c-1.092 0-1.958 0-2.655-.057-.714-.058-1.318-.18-1.868-.461a4.75 4.75 0 0 1-2.077-2.075c-.28-.552-.402-1.155-.46-1.869-.057-.697-.057-1.563-.057-2.655V9.367c0-1.092 0-1.958.057-2.655.058-.714.18-1.318.461-1.868a4.752 4.752 0 0 1 2.076-2.077c.551-.28 1.154-.402 1.868-.46.697-.057 1.563-.057 2.655-.057Zm5.633 6h-3.476c-1.586 0-2.354 1.939-1.199 3.025l.112.106-.346.346a1.75 1.75 0 0 0 0 2.475l.707.707a1.75 1.75 0 0 0 2.475 0l.346-.346.106.113c1.085 1.154 3.025.386 3.025-1.2V10A1.75 1.75 0 0 0 15 8.25Zm.25 1.75v3.477a.25.25 0 0 1-.432.171l-.636-.676a.75.75 0 0 0-1.077-.017l-.893.893a.25.25 0 0 1-.353 0l-.707-.707a.25.25 0 0 1 0-.353l.893-.893a.75.75 0 0 0-.017-1.077l-.676-.636a.25.25 0 0 1 .172-.432H15a.25.25 0 0 1 .25.25Zm-7.28 3.848v.002a.75.75 0 0 0 0 1.06l2.121 2.12a.75.75 0 1 0 1.061-1.06L9.03 13.848a.75.75 0 0 0-1.06 0Z"/></svg>