<svg xmlns="http://www.w3.org/2000/svg" viewBox="0 0 24 24"><path fill="#151E28" d="M9.367 2.25h5.266c1.092 0 1.958 0 2.655.057.714.058 1.317.18 1.869.461a4.744 4.744 0 0 1 2.076 2.076c.28.551.402 1.154.46 1.868.057.697.057 1.563.057 2.655v5.266c0 1.092 0 1.958-.057 2.655-.058.714-.18 1.317-.461 1.869a4.752 4.752 0 0 1-2.075 2.076c-.552.28-1.155.402-1.869.46-.697.057-1.563.057-2.655.057H9.367c-1.092 0-1.958 0-2.655-.057-.714-.058-1.318-.18-1.868-.461a4.75 4.75 0 0 1-2.077-2.075c-.28-.552-.402-1.155-.46-1.869-.057-.697-.057-1.563-.057-2.655V9.367c0-1.092 0-1.958.057-2.655.058-.714.18-1.318.461-1.868a4.752 4.752 0 0 1 2.076-2.077c.551-.28 1.154-.402 1.868-.46.697-.057 1.563-.057 2.655-.057Zm4.522 14.5h.016c.088 0 .155 0 .215-.003a2.75 2.75 0 0 0 2.627-2.627c.003-.06.003-.127.003-.215V11.17c0-.535 0-.98-.03-1.345-.03-.38-.098-.736-.27-1.073a2.75 2.75 0 0 0-1.2-1.202c-.338-.172-.694-.24-1.074-.27-.365-.03-.81-.03-1.345-.03h-2.735c-.088 0-.155 0-.215.003A2.75 2.75 0 0 0 7.253 9.88c-.003.06-.003.127-.003.215v.016a.75.75 0 0 0 1.5 0l.001-.166a1.25 1.25 0 0 1 1.194-1.194l.166-.001H12.8c.572 0 .957 0 1.252.025.288.023.425.065.516.111.235.12.426.311.546.547.046.09.088.227.111.514.024.296.025.68.025 1.253v2.689l-.001.166a1.25 1.25 0 0 1-1.194 1.194 4.593 4.593 0 0 1-.166.001.75.75 0 0 0 0 1.5ZM11.15 16a.75.75 0 0 0-.75-.75h-.59l2.72-2.72a.749.749 0 0 0-.326-1.275.749.749 0 0 0-.734.215l-2.72 2.72v-.59a.75.75 0 0 0-1.5 0V16c0 .414.336.75.75.75h2.4a.75.75 0 0 0 .75-.75Z"/></svg>