<svg xmlns="http://www.w3.org/2000/svg" viewBox="0 0 24 24"><path fill="#151E28" d="M12 1.25c5.937 0 10.75 4.813 10.75 10.75S17.937 22.75 12 22.75 1.25 17.937 1.25 12 6.063 1.25 12 1.25Zm-.83 6c-.535 0-.98 0-1.345.03-.38.03-.736.098-1.073.27A2.749 2.749 0 0 0 7.55 8.752c-.172.337-.24.693-.27 1.073-.03.365-.03.81-.03 1.345v1.855c0 .445 0 .816.021 1.12.021.317.068.617.188.907a2.75 2.75 0 0 0 1.489 1.489.75.75 0 1 0 .574-1.386 1.248 1.248 0 0 1-.677-.677c-.032-.077-.061-.194-.078-.435-.017-.247-.017-.567-.017-1.043v-1.8c0-.573.001-.957.025-1.253.023-.287.065-.424.111-.514.12-.236.311-.427.547-.547.09-.046.227-.088.514-.111.296-.025.681-.025 1.253-.025H13c.348-.005.696.001 1.043.017.241.017.358.046.435.078.307.127.55.37.677.677a.75.75 0 1 0 1.386-.574 2.749 2.749 0 0 0-1.489-1.488 2.835 2.835 0 0 0-.907-.19c-.304-.02-.675-.02-1.12-.02Zm3.23 4H12a.75.75 0 0 0-.75.75v2.4a.75.75 0 0 0 1.5 0v-.59l2.72 2.72a.751.751 0 0 0 1.042-.018.751.751 0 0 0 .018-1.042l-2.72-2.72h.59a.75.75 0 0 0 0-1.5Z"/></svg>