<svg xmlns="http://www.w3.org/2000/svg" viewBox="0 0 24 24"><path fill="#151E28" d="M13.117 2.479c.485.216.844.614 1.168 1.071.321.455.676 1.067 1.114 1.825l.019.033 5.45 9.413.02.033c.44.76.796 1.375 1.03 1.881.236.51.403 1.021.348 1.55a2.75 2.75 0 0 1-1.118 1.939c-.43.313-.955.424-1.515.475-.555.051-1.267.051-2.145.051H6.512c-.878 0-1.589 0-2.145-.051-.559-.051-1.085-.162-1.515-.475a2.749 2.749 0 0 1-1.119-1.938c-.054-.53.113-1.04.35-1.55.233-.507.59-1.122 1.03-1.882l.018-.033 5.45-9.413.02-.033c.438-.757.793-1.371 1.115-1.825.323-.457.682-.855 1.167-1.071a2.75 2.75 0 0 1 2.234 0Zm-4.055 9.695a.75.75 0 0 0-1.124-.993 2.748 2.748 0 0 0-.685 1.7c-.003.06-.003.127-.003.214v1.736c0 .534 0 .98.03 1.344.03.38.098.736.27 1.074.264.517.685.938 1.202 1.201.337.172.693.24 1.073.27.365.03.81.03 1.345.03h1.735c.087 0 .155 0 .215-.003a2.748 2.748 0 0 0 1.7-.685.75.75 0 0 0-.993-1.124 1.245 1.245 0 0 1-.772.31c-.055.002-.111.002-.166.002H11.2c-.572 0-.957 0-1.253-.025-.287-.023-.424-.065-.514-.111a1.255 1.255 0 0 1-.547-.546c-.046-.091-.088-.228-.111-.515-.024-.296-.025-.68-.025-1.253v-1.689l.001-.165c.013-.297.128-.565.311-.772ZM13 14.25h-.19l2.72-2.72a.749.749 0 0 0-.326-1.275.749.749 0 0 0-.734.215l-2.72 2.72V13a.75.75 0 0 0-1.5 0v2c0 .414.336.75.75.75h2a.75.75 0 0 0 0-1.5Z"/></svg>