<svg xmlns="http://www.w3.org/2000/svg" viewBox="0 0 24 24"><path fill="#151E28" d="M9.367 2.25h5.266c1.092 0 1.958 0 2.655.057.714.058 1.317.18 1.869.461a4.744 4.744 0 0 1 2.076 2.076c.28.551.402 1.154.46 1.868.057.697.057 1.563.057 2.655v5.266c0 1.092 0 1.958-.057 2.655-.058.714-.18 1.317-.461 1.869a4.752 4.752 0 0 1-2.075 2.076c-.552.28-1.155.402-1.869.46-.697.057-1.563.057-2.655.057H9.367c-1.092 0-1.958 0-2.655-.057-.714-.058-1.318-.18-1.868-.461a4.75 4.75 0 0 1-2.077-2.075c-.28-.552-.402-1.155-.46-1.869-.057-.697-.057-1.563-.057-2.655V9.367c0-1.092 0-1.958.057-2.655.058-.714.18-1.318.461-1.868a4.752 4.752 0 0 1 2.076-2.077c.551-.28 1.154-.402 1.868-.46.697-.057 1.563-.057 2.655-.057ZM6.49 8.45a.75.75 0 0 0-.04 1.06l2.222 2.4a2.263 2.263 0 0 0 3.323 0 .766.766 0 0 1 1.121 0l2.167 2.34h-1.616a.75.75 0 0 0 0 1.5H17a.75.75 0 0 0 .75-.75v-3.6a.75.75 0 0 0-1.5 0v1.686l-2.033-2.196a2.263 2.263 0 0 0-3.323 0 .766.766 0 0 1-1.121 0L7.55 8.49a.75.75 0 0 0-1.06-.04Z"/></svg>