<svg xmlns="http://www.w3.org/2000/svg" viewBox="0 0 24 24"><path fill="#151E28" d="M12 1.25c5.937 0 10.75 4.813 10.75 10.75S17.937 22.75 12 22.75 1.25 17.937 1.25 12 6.063 1.25 12 1.25Zm0 17.5a.75.75 0 0 0 .75-.75v-2.19l.72.72a.749.749 0 0 0 1.275-.326.749.749 0 0 0-.215-.734l-2-2a.75.75 0 0 0-1.06 0l-2 2a.749.749 0 0 0 .326 1.275.749.749 0 0 0 .734-.215l.72-.72V18c0 .414.336.75.75.75Zm0-13.5a.75.75 0 0 0-.75.75v2.19l-.72-.72a.751.751 0 0 0-1.042.018.751.751 0 0 0-.018 1.042l2 2a.75.75 0 0 0 1.06 0l2-2a.749.749 0 0 0-.326-1.275.749.749 0 0 0-.734.215l-.72.72V6a.75.75 0 0 0-.75-.75Zm-4 7.5h8a.75.75 0 0 0 0-1.5H8a.75.75 0 0 0 0 1.5Z"/></svg>