<svg xmlns="http://www.w3.org/2000/svg" viewBox="0 0 24 24"><path fill="#151E28" d="M13.117 2.479c.485.216.844.614 1.168 1.071.321.455.676 1.067 1.114 1.825l.019.033 5.45 9.413.02.033c.44.76.796 1.375 1.03 1.881.236.51.403 1.021.348 1.55a2.75 2.75 0 0 1-1.118 1.939c-.43.313-.955.424-1.515.475-.555.051-1.267.051-2.145.051H6.512c-.878 0-1.589 0-2.145-.051-.559-.051-1.085-.162-1.515-.475a2.749 2.749 0 0 1-1.119-1.938c-.054-.53.113-1.04.35-1.55.233-.507.59-1.122 1.03-1.882l.018-.033 5.45-9.413.02-.033c.438-.757.793-1.371 1.115-1.825.323-.457.682-.855 1.167-1.071a2.75 2.75 0 0 1 2.234 0ZM12 17.25h-.8c-.573 0-.957-.001-1.253-.025-.287-.023-.424-.065-.514-.111a1.247 1.247 0 0 1-.547-.547c-.046-.09-.088-.227-.111-.515-.025-.295-.025-.68-.025-1.252v-1.6c0-.573.001-.957.025-1.253.023-.287.065-.424.111-.515.12-.235.312-.426.547-.546.09-.046.227-.088.515-.111.295-.025.68-.025 1.252-.025h.8a.75.75 0 0 0 0-1.5h-.83c-.535 0-.98 0-1.345.03-.38.03-.736.098-1.073.27a2.749 2.749 0 0 0-1.202 1.202c-.172.337-.24.693-.27 1.073-.03.365-.03.81-.03 1.345v1.661c0 .535 0 .98.03 1.345.03.38.098.736.27 1.074a2.75 2.75 0 0 0 1.202 1.2c.337.172.693.24 1.073.27.365.03.81.03 1.345.03H12a.75.75 0 0 0 0-1.5Zm4.53-3.78-2-2a.749.749 0 0 0-1.275.326.749.749 0 0 0 .215.734l.72.72H11a.75.75 0 0 0 0 1.5h3.19l-.72.72a.751.751 0 0 0 .018 1.042.751.751 0 0 0 1.042.018l2-2a.75.75 0 0 0 0-1.06Z"/></svg>