<svg xmlns="http://www.w3.org/2000/svg" viewBox="0 0 24 24"><path fill="#151E28" d="M9.253 2.25h5.494c.419 0 .748 0 1.066.076.281.068.549.179.795.33.28.17.512.403.808.7l.052.051 3.126 3.125.05.052c.296.295.53.528.7.808.151.246.262.514.33.794.076.319.076.648.076 1.067v5.494c0 .419 0 .748-.076 1.066a2.759 2.759 0 0 1-.33.795c-.17.28-.403.512-.7.808l-.051.052-3.125 3.126-.052.05c-.296.296-.528.53-.808.7a2.759 2.759 0 0 1-.795.33c-.318.076-.647.076-1.066.076H9.253c-.419 0-.748 0-1.067-.076a2.737 2.737 0 0 1-.794-.33c-.28-.17-.513-.403-.808-.7l-.052-.051-3.126-3.125-.05-.052c-.297-.296-.53-.528-.7-.808a2.693 2.693 0 0 1-.33-.795c-.076-.318-.076-.647-.076-1.066V9.253c0-.419 0-.748.076-1.067.068-.28.179-.548.33-.794.17-.28.403-.513.7-.808l.051-.052 3.125-3.126.052-.05c.295-.297.528-.53.808-.7.246-.151.514-.262.794-.33.319-.076.648-.076 1.067-.076ZM15 16.75A1.75 1.75 0 0 0 16.75 15v-3.476c0-1.586-1.94-2.354-3.025-1.2l-.106.113-.346-.346a1.75 1.75 0 0 0-2.475 0l-.707.707a1.75 1.75 0 0 0 0 2.475l.346.346-.112.106c-1.155 1.086-.387 3.025 1.199 3.025Zm.25-1.75a.25.25 0 0 1-.25.25h-3.476a.25.25 0 0 1-.172-.432l.676-.636a.75.75 0 0 0 .017-1.077l-.893-.893a.25.25 0 0 1 0-.353l.707-.707a.25.25 0 0 1 .353 0l.893.893a.75.75 0 0 0 1.077-.017l.636-.676a.25.25 0 0 1 .432.171Zm-7.28-3.848a.75.75 0 0 0 1.06 0l2.122-2.122a.748.748 0 0 0-.332-1.265.75.75 0 0 0-.729.205L7.97 10.09a.75.75 0 0 0 0 1.06Z"/></svg>