<svg xmlns="http://www.w3.org/2000/svg" viewBox="0 0 24 24"><path fill="#151E28" d="M9.367 2.25h5.266c1.092 0 1.958 0 2.655.057.714.058 1.317.18 1.869.461a4.744 4.744 0 0 1 2.076 2.076c.28.551.402 1.154.46 1.868.057.697.057 1.563.057 2.655v5.266c0 1.092 0 1.958-.057 2.655-.058.714-.18 1.317-.461 1.869a4.752 4.752 0 0 1-2.075 2.076c-.552.28-1.155.402-1.869.46-.697.057-1.563.057-2.655.057H9.367c-1.092 0-1.958 0-2.655-.057-.714-.058-1.318-.18-1.868-.461a4.75 4.75 0 0 1-2.077-2.075c-.28-.552-.402-1.155-.46-1.869-.057-.697-.057-1.563-.057-2.655V9.367c0-1.092 0-1.958.057-2.655.058-.714.18-1.318.461-1.868a4.752 4.752 0 0 1 2.076-2.077c.551-.28 1.154-.402 1.868-.46.697-.057 1.563-.057 2.655-.057ZM16 16.75a.75.75 0 0 0 .75-.75v-.232c0-.813 0-1.469-.043-2-.045-.546-.139-1.026-.366-1.471a3.747 3.747 0 0 0-1.638-1.638c-.445-.226-.925-.321-1.472-.366-.398-.033-.868-.04-1.421-.043l.72-.72a.751.751 0 0 0-.018-1.042.751.751 0 0 0-1.042-.018l-2 2a.75.75 0 0 0 0 1.06l2 2a.751.751 0 0 0 1.042-.018.751.751 0 0 0 .018-1.042l-.718-.719c.433-.004.865.009 1.297.037.454.037.715.107.912.207.424.216.768.56.984.983.1.198.17.459.207.912.038.463.038 1.057.038 1.91v.2c0 .414.336.75.75.75Zm-6.47-3.22a.75.75 0 0 0 0-1.06L8.06 11l1.47-1.47a.749.749 0 0 0-.326-1.275.749.749 0 0 0-.734.215l-2 2a.75.75 0 0 0 0 1.06l2 2a.75.75 0 0 0 1.06 0Z"/></svg>