<svg xmlns="http://www.w3.org/2000/svg" viewBox="0 0 24 24"><path fill="#151E28" d="M18 19.75H7.272c-1.559 0-2.34-1.885-1.237-2.987l2.712-2.713-3.005-3.005a1.75 1.75 0 0 1 0-2.475L8.57 5.742a1.75 1.75 0 0 1 2.475 0l3.005 3.005 2.712-2.712c1.103-1.103 2.988-.322 2.988 1.237V18A1.75 1.75 0 0 1 18 19.75Zm.25-1.75V7.271a.25.25 0 0 0-.427-.176l-3.243 3.242a.75.75 0 0 1-1.06 0L9.984 6.802a.25.25 0 0 0-.353 0L6.802 9.63a.25.25 0 0 0 0 .354l3.536 3.537a.75.75 0 0 1 0 1.06l-3.243 3.242a.25.25 0 0 0 .177.427H18a.25.25 0 0 0 .25-.25ZM2.913 8.217v-.001a.75.75 0 0 1 0-1.06l4.243-4.242a.75.75 0 1 1 1.061 1.06L3.973 8.217a.75.75 0 0 1-1.06 0Z"/></svg>