<svg xmlns="http://www.w3.org/2000/svg" viewBox="0 0 24 24"><path fill="#151E28" d="M13.117 2.479c.485.216.844.614 1.168 1.071.321.455.676 1.067 1.114 1.825l.019.033 5.45 9.413.02.033c.44.76.796 1.375 1.03 1.881.236.51.403 1.021.348 1.55a2.75 2.75 0 0 1-1.118 1.939c-.43.313-.955.424-1.515.475-.555.051-1.267.051-2.145.051H6.512c-.878 0-1.589 0-2.145-.051-.559-.051-1.085-.162-1.515-.475a2.749 2.749 0 0 1-1.119-1.938c-.054-.53.113-1.04.35-1.55.233-.507.59-1.122 1.03-1.882l.018-.033 5.45-9.413.02-.033c.438-.757.793-1.371 1.115-1.825.323-.457.682-.855 1.167-1.071a2.75 2.75 0 0 1 2.234 0Zm-3.006 7.771h-.016c-.087 0-.155 0-.215.003a2.75 2.75 0 0 0-2.627 2.627c-.003.06-.003.128-.003.215v1.735c0 .535 0 .98.03 1.345.03.38.098.736.27 1.073.264.518.684.938 1.202 1.202.337.172.693.24 1.073.27.365.03.81.03 1.345.03h1.735c.087 0 .155 0 .215-.003a2.75 2.75 0 0 0 2.627-2.627c.003-.06.003-.128.003-.215v-.016a.75.75 0 0 0-1.5 0l-.001.166a1.25 1.25 0 0 1-1.194 1.194 4.593 4.593 0 0 1-.166.001H11.2c-.572 0-.957 0-1.253-.025-.287-.023-.424-.065-.514-.111a1.247 1.247 0 0 1-.547-.547c-.046-.09-.088-.227-.111-.515-.024-.295-.025-.68-.025-1.252v-1.689l.001-.166a1.25 1.25 0 0 1 1.194-1.194l.166-.001a.75.75 0 0 0 0-1.5Zm3.126 1.453-1.534 1.534a.75.75 0 0 0-1.453.263V15c0 .414.336.75.75.75h1.5a.75.75 0 0 0 .263-1.453l1.534-1.534a.75.75 0 0 0 1.453-.263V11a.75.75 0 0 0-.75-.75h-1.5a.75.75 0 0 0-.263 1.453Z"/></svg>