<svg xmlns="http://www.w3.org/2000/svg" viewBox="0 0 24 24"><path fill="#151E28" d="M13.117 2.479c.485.216.844.614 1.168 1.071.321.455.676 1.067 1.114 1.825l.019.033 5.45 9.413.02.033c.44.76.796 1.375 1.03 1.881.236.51.403 1.021.348 1.55a2.75 2.75 0 0 1-1.118 1.939c-.43.313-.955.424-1.515.475-.555.051-1.267.051-2.145.051H6.512c-.878 0-1.589 0-2.145-.051-.559-.051-1.085-.162-1.515-.475a2.749 2.749 0 0 1-1.119-1.938c-.054-.53.113-1.04.35-1.55.233-.507.59-1.122 1.03-1.882l.018-.033 5.45-9.413.02-.033c.438-.757.793-1.371 1.115-1.825.323-.457.682-.855 1.167-1.071a2.75 2.75 0 0 1 2.234 0Zm3.776 12.725a1.75 1.75 0 0 0 0-2.408l-2.36-2.49c-1.087-1.148-3.02-.378-3.02 1.204v.24H11a1.75 1.75 0 0 0-1.75 1.75v1c0 .966.784 1.75 1.75 1.75h.513v.24c0 1.582 1.932 2.352 3.02 1.204Zm-1.089-1.376a.25.25 0 0 1 0 .344l-2.36 2.49a.252.252 0 0 1-.273.059.252.252 0 0 1-.157-.231v-.99a.75.75 0 0 0-.75-.75H11a.25.25 0 0 1-.25-.25v-1a.25.25 0 0 1 .25-.25h1.263a.75.75 0 0 0 .75-.75v-.99a.25.25 0 0 1 .432-.172ZM8 16.25a.75.75 0 0 0 .75-.75v-3a.75.75 0 0 0-1.5 0v3c0 .414.336.75.75.75Z"/></svg>