<svg xmlns="http://www.w3.org/2000/svg" viewBox="0 0 24 24"><path fill="#151E28" d="M6.25 12a.75.75 0 0 1 .75-.75h10a.75.75 0 0 1 0 1.5H7a.75.75 0 0 1-.75-.75Zm6.5-7v2.19l.72-.72a.749.749 0 0 1 1.275.326.749.749 0 0 1-.215.734l-2 2a.75.75 0 0 1-1.06 0l-2-2a.751.751 0 0 1 .018-1.042.751.751 0 0 1 1.042-.018l.72.72V5a.75.75 0 0 1 1.5 0ZM12 19.75a.75.75 0 0 1-.75-.75v-2.19l-.72.72a.749.749 0 0 1-1.275-.326.749.749 0 0 1 .215-.734l2-2a.75.75 0 0 1 1.06 0l2 2a.751.751 0 0 1-.018 1.042.751.751 0 0 1-1.042.018l-.72-.72V19a.75.75 0 0 1-.75.75Z"/></svg>