<svg xmlns="http://www.w3.org/2000/svg" viewBox="0 0 24 24"><path fill="#151E28" d="M12 1.25c5.937 0 10.75 4.813 10.75 10.75S17.937 22.75 12 22.75 1.25 17.937 1.25 12 6.063 1.25 12 1.25ZM7.543 9.745v-.001l-.093 3.43c-.043 1.581 1.868 2.403 2.987 1.285l.17-.17 1.777 1.777a1.75 1.75 0 0 0 2.475 0l.707-.707a1.75 1.75 0 0 0 0-2.475l-1.777-1.777.17-.17c1.118-1.119.296-3.03-1.284-2.987l-3.43.093a1.75 1.75 0 0 0-1.702 1.702Zm1.742-.203 3.43-.093a.249.249 0 0 1 .237.152.249.249 0 0 1-.054.276l-.7.7a.75.75 0 0 0 0 1.06l2.307 2.307a.25.25 0 0 1 0 .354l-.707.707a.25.25 0 0 1-.354 0l-2.307-2.307a.75.75 0 0 0-1.061 0l-.7.7a.248.248 0 0 1-.276.053.249.249 0 0 1-.151-.236l.093-3.43a.25.25 0 0 1 .243-.243Z"/></svg>