<svg xmlns="http://www.w3.org/2000/svg" viewBox="0 0 24 24"><path fill="#151E28" d="M9.253 2.25h5.494c.419 0 .748 0 1.066.076.281.068.549.179.795.33.28.17.512.403.808.7l.052.051 3.126 3.125.05.052c.296.295.53.528.7.808.151.246.262.514.33.794.076.319.076.648.076 1.067v5.494c0 .419 0 .748-.076 1.066a2.759 2.759 0 0 1-.33.795c-.17.28-.403.512-.7.808l-.051.052-3.125 3.126-.052.05c-.296.296-.528.53-.808.7a2.759 2.759 0 0 1-.795.33c-.318.076-.647.076-1.066.076H9.253c-.419 0-.748 0-1.067-.076a2.737 2.737 0 0 1-.794-.33c-.28-.17-.513-.403-.808-.7l-.052-.051-3.126-3.125-.05-.052c-.297-.296-.53-.528-.7-.808a2.693 2.693 0 0 1-.33-.795c-.076-.318-.076-.647-.076-1.066V9.253c0-.419 0-.748.076-1.067.068-.28.179-.548.33-.794.17-.28.403-.513.7-.808l.051-.052 3.125-3.126.052-.05c.295-.297.528-.53.808-.7.246-.151.514-.262.794-.33.319-.076.648-.076 1.067-.076ZM7.107 13.204l2.36 2.49c1.087 1.148 3.02.378 3.02-1.204v-.24H15a1.75 1.75 0 0 0 1.75-1.75v-1A1.75 1.75 0 0 0 15 9.75h-2.513v-.24c0-1.582-1.933-2.352-3.02-1.204l-2.36 2.49a1.75 1.75 0 0 0 0 2.408Zm1.089-1.376 2.359-2.49a.25.25 0 0 1 .432.172v.99c0 .414.336.75.75.75H15a.25.25 0 0 1 .25.25v1a.25.25 0 0 1-.25.25h-3.264a.75.75 0 0 0-.75.75v.99a.252.252 0 0 1-.157.231.252.252 0 0 1-.273-.059l-2.36-2.49a.25.25 0 0 1 0-.344Z"/></svg>