<svg xmlns="http://www.w3.org/2000/svg" viewBox="0 0 24 24"><path fill="#151E28" d="M12 1.25c5.937 0 10.75 4.813 10.75 10.75S17.937 22.75 12 22.75 1.25 17.937 1.25 12 6.063 1.25 12 1.25Zm1.692 10.664a.75.75 0 0 0 0 1.06l.497.498H9.778a.75.75 0 0 0 0 1.5h4.411l-.497.498a.749.749 0 0 0 .326 1.275.749.749 0 0 0 .734-.215l1.778-1.777a.75.75 0 0 0 0-1.061l-1.777-1.778a.75.75 0 0 0-1.061 0ZM10.308 7.47a.75.75 0 0 0-1.06 0L7.47 9.247a.75.75 0 0 0 0 1.061l1.777 1.778a.75.75 0 1 0 1.061-1.06l-.497-.498h4.411a.75.75 0 0 0 0-1.5H9.811l.497-.498a.75.75 0 0 0 0-1.06Z"/></svg>