<svg xmlns="http://www.w3.org/2000/svg" viewBox="0 0 24 24"><path fill="#151E28" d="M9.367 2.25h5.266c1.092 0 1.958 0 2.655.057.714.058 1.317.18 1.869.461a4.744 4.744 0 0 1 2.076 2.076c.28.551.402 1.154.46 1.868.057.697.057 1.563.057 2.655v5.266c0 1.092 0 1.958-.057 2.655-.058.714-.18 1.317-.461 1.869a4.752 4.752 0 0 1-2.075 2.076c-.552.28-1.155.402-1.869.46-.697.057-1.563.057-2.655.057H9.367c-1.092 0-1.958 0-2.655-.057-.714-.058-1.318-.18-1.868-.461a4.75 4.75 0 0 1-2.077-2.075c-.28-.552-.402-1.155-.46-1.869-.057-.697-.057-1.563-.057-2.655V9.367c0-1.092 0-1.958.057-2.655.058-.714.18-1.318.461-1.868a4.752 4.752 0 0 1 2.076-2.077c.551-.28 1.154-.402 1.868-.46.697-.057 1.563-.057 2.655-.057ZM7.249 16a.75.75 0 0 0 1.5 0v-.013a5.142 5.142 0 0 0 4.99.852 5.142 5.142 0 0 0 3.304-3.835.749.749 0 1 0-1.47-.293 3.644 3.644 0 0 1-5.963 2.04h.389a.751.751 0 0 0 0-1.501h-2a.75.75 0 0 0-.75.75Zm8.75-8.75a.75.75 0 0 0-.75.75v.013a5.144 5.144 0 0 0-8.293 2.984.75.75 0 0 0 1.471.293 3.645 3.645 0 0 1 5.962-2.04h-.39a.75.75 0 0 0 0 1.5h2a.75.75 0 0 0 .75-.75V8a.75.75 0 0 0-.75-.75Z"/></svg>