<svg xmlns="http://www.w3.org/2000/svg" viewBox="0 0 24 24"><path fill="#151E28" d="M9.367 2.25h5.266c1.092 0 1.958 0 2.655.057.714.058 1.317.18 1.869.461a4.744 4.744 0 0 1 2.076 2.076c.28.551.402 1.154.46 1.868.057.697.057 1.563.057 2.655v5.266c0 1.092 0 1.958-.057 2.655-.058.714-.18 1.317-.461 1.869a4.752 4.752 0 0 1-2.075 2.076c-.552.28-1.155.402-1.869.46-.697.057-1.563.057-2.655.057H9.367c-1.092 0-1.958 0-2.655-.057-.714-.058-1.318-.18-1.868-.461a4.75 4.75 0 0 1-2.077-2.075c-.28-.552-.402-1.155-.46-1.869-.057-.697-.057-1.563-.057-2.655V9.367c0-1.092 0-1.958.057-2.655.058-.714.18-1.318.461-1.868a4.752 4.752 0 0 1 2.076-2.077c.551-.28 1.154-.402 1.868-.46.697-.057 1.563-.057 2.655-.057Zm1.716 14.5h.029a.75.75 0 0 0 0-1.5c-.53 0-.886-.001-1.16-.021-.267-.02-.396-.056-.48-.096a1.247 1.247 0 0 1-.605-.604c-.039-.085-.076-.214-.096-.48-.021-.275-.021-.63-.021-1.16V11.2c0-.573.001-.957.025-1.253.023-.287.065-.424.111-.514.12-.236.311-.427.547-.547.09-.046.227-.088.514-.111.296-.025.681-.025 1.253-.025h1.688c.53 0 .886.001 1.16.021.267.02.395.056.48.096.266.124.481.338.605.604.039.085.076.214.096.48.021.275.021.63.021 1.16a.75.75 0 0 0 1.5 0v-.028c0-.495 0-.907-.026-1.245-.026-.352-.084-.683-.232-1a2.747 2.747 0 0 0-1.33-1.33c-.317-.148-.648-.206-1-.232-.338-.026-.751-.026-1.245-.026H11.17c-.535 0-.98 0-1.345.03-.38.03-.736.098-1.073.27A2.749 2.749 0 0 0 7.55 8.752c-.172.337-.24.693-.27 1.073-.03.365-.03.81-.03 1.345v1.747c0 .495 0 .907.026 1.245.026.352.084.683.232 1a2.747 2.747 0 0 0 1.33 1.33c.317.148.648.206 1 .232.338.026.751.026 1.245.026Zm3.417 0H16a.75.75 0 0 0 .75-.75v-1.5a.75.75 0 0 0-1.453-.263l-1.534-1.534a.75.75 0 0 0-.263-1.453H12a.75.75 0 0 0-.75.75v1.5a.75.75 0 0 0 1.453.263l1.534 1.534a.75.75 0 0 0 .263 1.453Z"/></svg>