<svg xmlns="http://www.w3.org/2000/svg" viewBox="0 0 24 24"><path fill="#151E28" d="M13.117 2.479c.485.216.844.614 1.168 1.071.321.455.676 1.067 1.114 1.825l.019.033 5.45 9.413.02.033c.44.76.796 1.375 1.03 1.881.236.51.403 1.021.348 1.55a2.75 2.75 0 0 1-1.118 1.939c-.43.313-.955.424-1.515.475-.555.051-1.267.051-2.145.051H6.512c-.878 0-1.589 0-2.145-.051-.559-.051-1.085-.162-1.515-.475a2.749 2.749 0 0 1-1.119-1.938c-.054-.53.113-1.04.35-1.55.233-.507.59-1.122 1.03-1.882l.018-.033 5.45-9.413.02-.033c.438-.757.793-1.371 1.115-1.825.323-.457.682-.855 1.167-1.071a2.75 2.75 0 0 1 2.234 0Zm-4.574 9.266v-.001l-.093 3.43c-.043 1.581 1.868 2.403 2.987 1.285l.17-.17.363.363a1.75 1.75 0 0 0 2.475 0l.707-.708a1.75 1.75 0 0 0 0-2.474l-.363-.363.17-.17c1.118-1.119.296-3.03-1.285-2.987l-3.429.093a1.75 1.75 0 0 0-1.702 1.702Zm1.742-.203 3.43-.093a.249.249 0 0 1 .237.152.249.249 0 0 1-.054.276l-.7.7a.75.75 0 0 0 0 1.06l.893.893a.25.25 0 0 1 0 .354l-.707.707a.25.25 0 0 1-.354 0l-.893-.893a.75.75 0 0 0-1.061 0l-.7.7a.248.248 0 0 1-.276.053.249.249 0 0 1-.151-.236l.093-3.43a.25.25 0 0 1 .243-.243Zm3.806 7.231a.75.75 0 0 0 1.061 0l2.12-2.122a.749.749 0 0 0-.326-1.275.749.749 0 0 0-.734.215l-2.121 2.122a.75.75 0 0 0 0 1.06Z"/></svg>