<svg xmlns="http://www.w3.org/2000/svg" viewBox="0 0 24 24"><path fill="#151E28" d="M9.253 2.25h5.494c.419 0 .748 0 1.066.076.281.068.549.179.795.33.28.17.512.403.808.7l.052.051 3.126 3.125.05.052c.296.295.53.528.7.808.151.246.262.514.33.794.076.319.076.648.076 1.067v5.494c0 .419 0 .748-.076 1.066a2.759 2.759 0 0 1-.33.795c-.17.28-.403.512-.7.808l-.051.052-3.125 3.126-.052.05c-.296.296-.528.53-.808.7a2.759 2.759 0 0 1-.795.33c-.318.076-.647.076-1.066.076H9.253c-.419 0-.748 0-1.067-.076a2.737 2.737 0 0 1-.794-.33c-.28-.17-.513-.403-.808-.7l-.052-.051-3.126-3.125-.05-.052c-.297-.296-.53-.528-.7-.808a2.693 2.693 0 0 1-.33-.795c-.076-.318-.076-.647-.076-1.066V9.253c0-.419 0-.748.076-1.067.068-.28.179-.548.33-.794.17-.28.403-.513.7-.808l.051-.052 3.125-3.126.052-.05c.295-.297.528-.53.808-.7.246-.151.514-.262.794-.33.319-.076.648-.076 1.067-.076Zm1.83 5c-.494 0-.907 0-1.245.026-.352.026-.683.084-1 .232a2.747 2.747 0 0 0-1.33 1.33c-.148.317-.206.648-.232 1-.026.338-.026.75-.026 1.245v1.747c0 .535 0 .98.03 1.345.03.38.098.736.27 1.073.264.518.684.938 1.202 1.202.337.172.693.24 1.073.27.365.03.81.03 1.345.03h1.747c.494 0 .907 0 1.245-.026.352-.026.683-.084 1-.232a2.747 2.747 0 0 0 1.33-1.33c.148-.317.206-.648.232-1 .026-.338.026-.75.026-1.245v-.028a.75.75 0 0 0-1.5 0c0 .53 0 .885-.021 1.16-.02.266-.057.395-.096.48a1.25 1.25 0 0 1-.605.604c-.085.04-.213.076-.48.096-.274.02-.63.021-1.16.021H11.2c-.572 0-.957 0-1.253-.025-.287-.023-.424-.065-.514-.111a1.255 1.255 0 0 1-.547-.546c-.046-.091-.088-.228-.111-.515-.024-.296-.025-.68-.025-1.253v-1.689c0-.53 0-.885.021-1.16.02-.266.057-.395.096-.48a1.25 1.25 0 0 1 .605-.604c.084-.04.213-.076.48-.096.274-.02.63-.021 1.16-.021a.75.75 0 0 0 0-1.5h-.029Zm3.154 1.453-1.534 1.534a.75.75 0 0 0-1.453.263V12c0 .414.336.75.75.75h1.5a.75.75 0 0 0 .263-1.453l1.534-1.534A.75.75 0 0 0 16.75 9.5V8a.75.75 0 0 0-.75-.75h-1.5a.75.75 0 0 0-.263 1.453Z"/></svg>