<svg xmlns="http://www.w3.org/2000/svg" viewBox="0 0 24 24"><path fill="#151E28" d="M9.367 2.25h5.266c1.092 0 1.958 0 2.655.057.714.058 1.317.18 1.869.461a4.744 4.744 0 0 1 2.076 2.076c.28.551.402 1.154.46 1.868.057.697.057 1.563.057 2.655v5.266c0 1.092 0 1.958-.057 2.655-.058.714-.18 1.317-.461 1.869a4.752 4.752 0 0 1-2.075 2.076c-.552.28-1.155.402-1.869.46-.697.057-1.563.057-2.655.057H9.367c-1.092 0-1.958 0-2.655-.057-.714-.058-1.318-.18-1.868-.461a4.75 4.75 0 0 1-2.077-2.075c-.28-.552-.402-1.155-.46-1.869-.057-.697-.057-1.563-.057-2.655V9.367c0-1.092 0-1.958.057-2.655.058-.714.18-1.318.461-1.868a4.752 4.752 0 0 1 2.076-2.077c.551-.28 1.154-.402 1.868-.46.697-.057 1.563-.057 2.655-.057Zm.744 14.5a.75.75 0 0 0 0-1.5l-.166-.001a1.25 1.25 0 0 1-1.194-1.194l-.001-.166V11.2c0-.573.001-.957.025-1.253.023-.287.065-.424.111-.514.12-.236.311-.427.547-.547.09-.046.227-.088.514-.111.296-.025.681-.025 1.253-.025h2.689c.055-.001.111 0 .166.001a1.25 1.25 0 0 1 1.194 1.194l.001.166a.75.75 0 0 0 1.5 0v-.016c0-.088 0-.155-.003-.215a2.75 2.75 0 0 0-2.627-2.627c-.06-.003-.127-.003-.215-.003H11.17c-.535 0-.98 0-1.345.03-.38.03-.736.098-1.073.27A2.749 2.749 0 0 0 7.55 8.752c-.172.337-.24.693-.27 1.073-.03.365-.03.81-.03 1.345v2.735a2.75 2.75 0 0 0 2.63 2.842c.06.003.128.003.215.003ZM12.85 16c0 .414.336.75.75.75H16a.75.75 0 0 0 .75-.75v-2.4a.75.75 0 0 0-1.5 0v.59l-2.72-2.72a.749.749 0 0 0-1.275.326.749.749 0 0 0 .215.734l2.72 2.72h-.59a.75.75 0 0 0-.75.75Z"/></svg>