<svg xmlns="http://www.w3.org/2000/svg" viewBox="0 0 24 24"><path fill="#151E28" d="M12 1.25c5.937 0 10.75 4.813 10.75 10.75S17.937 22.75 12 22.75 1.25 17.937 1.25 12 6.063 1.25 12 1.25ZM8.25 9c0 .414.336.75.75.75h.2c.853 0 1.447 0 1.91.038.453.037.714.107.912.207.423.216.767.56.983.984.1.197.17.458.207.912.037.462.038 1.056.038 1.909v.39l-.72-.72a.749.749 0 0 0-1.275.326.749.749 0 0 0 .215.734l2 2a.75.75 0 0 0 1.06 0l2-2a.749.749 0 0 0-.326-1.275.749.749 0 0 0-.734.215l-.72.72v-.423c0-.813 0-1.469-.043-2-.045-.546-.14-1.026-.366-1.47a3.752 3.752 0 0 0-1.638-1.64c-.445-.226-.925-.32-1.471-.365-.531-.043-1.187-.043-2-.043H9a.75.75 0 0 0-.75.75Z"/></svg>