<svg xmlns="http://www.w3.org/2000/svg" viewBox="0 0 24 24"><path fill="#151E28" d="M9.253 2.25h5.494c.419 0 .748 0 1.066.076.281.068.549.179.795.33.28.17.512.403.808.7l.052.051 3.126 3.125.05.052c.296.295.53.528.7.808.151.246.262.514.33.794.076.319.076.648.076 1.067v5.494c0 .419 0 .748-.076 1.066a2.759 2.759 0 0 1-.33.795c-.17.28-.403.512-.7.808l-.051.052-3.125 3.126-.052.05c-.296.296-.528.53-.808.7a2.759 2.759 0 0 1-.795.33c-.318.076-.647.076-1.066.076H9.253c-.419 0-.748 0-1.067-.076a2.737 2.737 0 0 1-.794-.33c-.28-.17-.513-.403-.808-.7l-.052-.051-3.126-3.125-.05-.052c-.297-.296-.53-.528-.7-.808a2.693 2.693 0 0 1-.33-.795c-.076-.318-.076-.647-.076-1.066V9.253c0-.419 0-.748.076-1.067.068-.28.179-.548.33-.794.17-.28.403-.513.7-.808l.051-.052 3.125-3.126.052-.05c.295-.297.528-.53.808-.7.246-.151.514-.262.794-.33.319-.076.648-.076 1.067-.076ZM7.249 16a.75.75 0 0 0 1.5 0v-.013a5.142 5.142 0 0 0 4.99.852 5.142 5.142 0 0 0 3.304-3.835.749.749 0 1 0-1.47-.293 3.644 3.644 0 0 1-5.963 2.04h.389a.751.751 0 0 0 0-1.501h-2a.75.75 0 0 0-.75.75Zm8.75-8.75a.75.75 0 0 0-.75.75v.013a5.144 5.144 0 0 0-8.293 2.984.75.75 0 0 0 1.471.293 3.645 3.645 0 0 1 5.962-2.04h-.39a.75.75 0 0 0 0 1.5h2a.75.75 0 0 0 .75-.75V8a.75.75 0 0 0-.75-.75Z"/></svg>