<svg xmlns="http://www.w3.org/2000/svg" viewBox="0 0 24 24"><path fill="#151E28" d="M12 1.25c5.937 0 10.75 4.813 10.75 10.75S17.937 22.75 12 22.75 1.25 17.937 1.25 12 6.063 1.25 12 1.25Zm1.889 6a.75.75 0 0 0 0 1.5c.055-.001.111 0 .166.001a1.25 1.25 0 0 1 1.194 1.194l.001.166V12.8c0 .573-.001.957-.025 1.253-.023.287-.065.424-.111.515-.12.235-.311.426-.546.546-.091.046-.228.088-.516.111-.295.025-.68.025-1.252.025h-2.689l-.166-.001a1.25 1.25 0 0 1-1.194-1.194l-.001-.166a.75.75 0 0 0-1.5 0v.016c0 .088 0 .155.003.215a2.75 2.75 0 0 0 2.627 2.627c.06.003.127.003.215.003h2.735c.535 0 .98 0 1.345-.03.38-.03.736-.098 1.074-.27a2.752 2.752 0 0 0 1.201-1.202c.172-.337.24-.693.27-1.073.03-.365.03-.81.03-1.345v-2.735a2.747 2.747 0 0 0-2.845-2.845ZM11.15 8a.75.75 0 0 0-.75-.75H8a.75.75 0 0 0-.75.75v2.4a.75.75 0 0 0 1.5 0v-.59l2.72 2.72a.749.749 0 0 0 1.275-.326.749.749 0 0 0-.215-.734L9.81 8.75h.59a.75.75 0 0 0 .75-.75Z"/></svg>