<svg xmlns="http://www.w3.org/2000/svg" viewBox="0 0 24 24"><path fill="#151E28" d="M20 19.75a.75.75 0 0 1-.75-.75v-4.6c0-1.133 0-1.937-.052-2.566-.05-.62-.147-1.005-.302-1.31a3.258 3.258 0 0 0-1.42-1.42c-.305-.155-.69-.251-1.31-.302-.63-.051-1.434-.052-2.566-.052H5.81l3.72 3.72a.749.749 0 0 1-.326 1.275.749.749 0 0 1-.734-.215l-5-5a.75.75 0 0 1 0-1.06l5-5a.751.751 0 0 1 1.042.018.751.751 0 0 1 .018 1.042L5.81 7.25h7.823c1.092 0 1.958 0 2.655.057.714.058 1.317.18 1.869.46a4.75 4.75 0 0 1 2.075 2.077c.281.55.403 1.154.461 1.868.057.697.057 1.563.057 2.655V19a.75.75 0 0 1-.75.75Z"/></svg>