<svg xmlns="http://www.w3.org/2000/svg" viewBox="0 0 24 24"><path fill="#151E28" d="M16.232 21.75H14a.75.75 0 0 1 0-1.5h2.2c.852 0 1.447-.001 1.909-.038.454-.037.715-.107.913-.207.423-.216.767-.56.983-.983.1-.198.169-.459.207-.912.038-.463.038-1.058.038-1.91V7.8c0-.852-.001-1.447-.038-1.909-.037-.454-.107-.715-.207-.912a2.253 2.253 0 0 0-.983-.984c-.198-.1-.459-.17-.912-.207-.463-.038-1.058-.038-1.91-.038H7.8c-.852 0-1.447.001-1.909.038-.454.037-.715.107-.912.207a2.25 2.25 0 0 0-.984.984c-.1.197-.17.458-.207.911-.038.463-.038 1.058-.038 1.91V10a.75.75 0 0 1-1.5 0V7.768c0-.813 0-1.469.043-2 .045-.546.139-1.026.365-1.47.36-.706.934-1.28 1.64-1.639.444-.226.924-.321 1.47-.366.531-.043 1.187-.043 2-.043h8.464c.813 0 1.469 0 2 .043.546.045 1.026.139 1.47.365.706.36 1.28.934 1.639 1.64.226.444.321.924.366 1.47.043.531.043 1.187.043 2v8.464c0 .813 0 1.469-.043 2-.045.546-.139 1.026-.365 1.47a3.749 3.749 0 0 1-1.64 1.639c-.444.226-.924.321-1.47.366-.531.043-1.187.043-2 .043ZM9.75 21a.75.75 0 0 1-.75.75H3a.75.75 0 0 1-.75-.75v-6a.75.75 0 0 1 1.5 0v4.19l9.44-9.44H9a.75.75 0 0 1 0-1.5h6a.75.75 0 0 1 .75.75v6a.75.75 0 0 1-1.5 0v-4.19l-9.44 9.44H9a.75.75 0 0 1 .75.75Z"/></svg>