<svg xmlns="http://www.w3.org/2000/svg" viewBox="0 0 24 24"><path fill="#151E28" d="M15.75 6.263c.296.007.567.02.815.04.674.053 1.246.164 1.776.42a4.746 4.746 0 0 1 2.054 1.913c.293.51.445 1.072.545 1.74.1.653.158 1.463.23 2.483l.003.032.085 1.2.002.034c.084 1.162.15 2.082.14 2.824-.009.757-.096 1.401-.361 1.994a4.747 4.747 0 0 1-2.088 2.242c-.573.307-1.209.44-1.963.503-.74.062-1.662.062-2.827.062H9.839c-1.166 0-2.087 0-2.826-.062-.755-.063-1.391-.196-1.964-.503a4.747 4.747 0 0 1-2.088-2.242c-.265-.593-.352-1.237-.362-1.994-.009-.739.056-1.654.139-2.808l.001-.016.003-.034.085-1.2.002-.032c.074-1.02.131-1.831.23-2.483.101-.668.253-1.231.546-1.741a4.743 4.743 0 0 1 2.054-1.912c.53-.256 1.102-.367 1.776-.42.248-.02.519-.033.815-.04V6a3.75 3.75 0 0 1 7.5 0ZM9.75 11a.75.75 0 0 0-1.5 0 3.75 3.75 0 0 0 7.5 0 .75.75 0 0 0-1.5 0 2.25 2.25 0 1 1-4.5 0Zm0-4.75h4.5V6a2.25 2.25 0 1 0-4.5 0Z"/></svg>