<svg xmlns="http://www.w3.org/2000/svg" viewBox="0 0 24 24"><path fill="#151E28" d="M11.022 2.25h1.955c1.039 0 1.862 0 2.529.053.682.055 1.261.169 1.795.429a4.753 4.753 0 0 1 2.06 1.949c.291.519.436 1.09.528 1.77.09.661.136 1.484.194 2.52l.001.032.289 5.2.002.034c.064 1.147.114 2.055.094 2.787-.021.748-.115 1.383-.385 1.966a4.746 4.746 0 0 1-2.086 2.206c-.568.301-1.196.431-1.942.494-.73.06-1.638.06-2.788.06h-2.537c-1.148 0-2.058 0-2.788-.061-.745-.063-1.374-.193-1.942-.493a4.746 4.746 0 0 1-2.086-2.206c-.269-.583-.364-1.218-.385-1.966-.02-.719.029-1.607.091-2.725l.003-.062.002-.034.289-5.2.002-.032c.057-1.036.103-1.858.193-2.52.092-.68.238-1.251.528-1.77a4.745 4.745 0 0 1 2.06-1.948c.535-.262 1.114-.375 1.796-.43.666-.053 1.49-.053 2.528-.053ZM9 6.25a.75.75 0 0 0-.75.75v2a3.75 3.75 0 0 0 7.5 0V7a.75.75 0 0 0-1.5 0v2a2.25 2.25 0 1 1-4.5 0V7A.75.75 0 0 0 9 6.25Z"/></svg>