<svg xmlns="http://www.w3.org/2000/svg" viewBox="0 0 24 24"><path fill="#151E28" d="M4.877 5.94 1.47 2.53a.751.751 0 0 1 .018-1.042.751.751 0 0 1 1.042-.018l20 20a.749.749 0 0 1-.326 1.275.749.749 0 0 1-.734-.215l-3.78-3.78H5A2.75 2.75 0 0 1 2.25 16c0-1.11.457-1.816.853-2.427.088-.136.174-.268.25-.398.427-.727.897-1.797.897-4.175 0-1.086.224-2.121.628-3.061ZM8.78 3.642h-.001a.75.75 0 1 1-.774-1.284A7.751 7.751 0 0 1 19.75 9c0 2.378.47 3.448.897 4.175.076.13.162.262.25.398.396.611.853 1.317.853 2.427a.75.75 0 0 1-1.5 0c0-.637-.187-.932-.537-1.482-.105-.166-.225-.354-.36-.584-.573-.975-1.103-2.312-1.103-4.934a6.252 6.252 0 0 0-9.47-5.358Zm.14 15.652a.75.75 0 0 1 .957.457 2.25 2.25 0 0 0 4.244 0 .75.75 0 0 1 1.415.5 3.751 3.751 0 0 1-7.073 0 .75.75 0 0 1 .457-.957Z"/></svg>