<svg xmlns="http://www.w3.org/2000/svg" viewBox="0 0 24 24"><path fill="#151E28" d="M15.15 4.08v-.001l3.562 10.685a.751.751 0 0 1-1.424.475l-2.383-7.15-8.407 7.473a.75.75 0 1 1-.996-1.122l5.124-4.555a.44.44 0 0 1-.027-.047l-2.492-4.95a.25.25 0 0 0-.223-.138H5.5a.75.75 0 0 1 0-1.5h2.384a1.75 1.75 0 0 1 1.563.963l2.337 4.642 2.605-2.315-.662-1.987a1.748 1.748 0 0 1 1.66-2.303H19A2.75 2.75 0 0 1 21.75 5v1a.75.75 0 0 1-1.5 0V5c0-.69-.56-1.25-1.25-1.25h-3.613a.25.25 0 0 0-.237.33ZM2.75 15a3.252 3.252 0 0 0 2.621 3.19A2.752 2.752 0 0 1 8 16.25h2a.75.75 0 0 1 .75.75v.25H12a.75.75 0 0 1 0 1.5h-1.25v.5H12a.75.75 0 0 1 0 1.5h-1.25V21a.75.75 0 0 1-.75.75H8a2.751 2.751 0 0 1-2.659-2.045A4.75 4.75 0 0 1 6 10.25a.75.75 0 0 1 0 1.5A3.25 3.25 0 0 0 2.75 15Zm17.625-4.114h.001a4.75 4.75 0 1 1-6.78 2.333.75.75 0 0 1 1.39.562 3.25 3.25 0 1 0 4.639-1.597.75.75 0 1 1 .75-1.298Z"/></svg>