<svg xmlns="http://www.w3.org/2000/svg" viewBox="0 0 24 24"><path fill="#151E28" d="M8.768 3.25h4.464c.813 0 1.469 0 2 .043.546.045 1.026.14 1.47.366.706.359 1.28.933 1.64 1.639.226.444.32.924.365 1.47.043.531.043 1.187.043 2v11.158c0 .472 0 .878-.03 1.197-.028.318-.095.692-.335 1.003-.317.411-.801.66-1.32.68-.393.014-.736-.15-1.011-.31-.34-.21-.67-.434-.991-.672l-.029-.02-2.61-1.865c-.72-.515-.922-.643-1.117-.693a1.251 1.251 0 0 0-.614 0c-.195.05-.396.178-1.117.693l-2.61 1.864-.029.02c-.384.275-.714.51-.99.673-.276.16-.62.324-1.012.31a1.752 1.752 0 0 1-1.32-.68c-.24-.311-.307-.685-.336-1.003-.029-.32-.029-.725-.029-1.197V8.768c0-.813 0-1.469.043-2 .045-.546.14-1.026.366-1.47a3.749 3.749 0 0 1 1.639-1.64c.444-.226.924-.32 1.47-.365.531-.043 1.187-.043 2-.043Zm7.432-1.5H9a.75.75 0 0 1 0-1.5h7.232c.813 0 1.469 0 2 .043.546.045 1.026.139 1.47.365.706.36 1.28.934 1.639 1.64.226.444.321.924.366 1.47.043.531.043 1.187.043 2V19a.75.75 0 0 1-1.5 0V5.8c0-.852-.001-1.447-.038-1.909-.037-.454-.107-.715-.207-.912a2.253 2.253 0 0 0-.983-.984c-.198-.1-.459-.17-.912-.207-.463-.038-1.058-.038-1.91-.038Z"/></svg>