<svg xmlns="http://www.w3.org/2000/svg" viewBox="0 0 24 24"><path fill="#151E28" d="M9.768 2.25h4.464c.813 0 1.469 0 2 .043.546.045 1.026.139 1.47.365.706.36 1.28.934 1.639 1.64.226.444.321.924.366 1.47.043.531.043 1.187.043 2v11.158c0 .472 0 .877-.029 1.197-.029.318-.096.692-.336 1.003-.317.411-.801.66-1.32.68-.392.014-.736-.15-1.012-.31a14.84 14.84 0 0 1-.99-.673l-.029-.02-2.61-1.864c-.721-.515-.922-.643-1.117-.693a1.251 1.251 0 0 0-.614 0c-.195.05-.397.178-1.117.693l-2.61 1.865-.029.02c-.384.274-.714.51-.991.672-.275.16-.618.324-1.011.31a1.75 1.75 0 0 1-1.32-.68c-.24-.311-.307-.685-.335-1.003-.03-.319-.03-.725-.03-1.197V7.768c0-.813 0-1.469.043-2 .045-.546.139-1.026.365-1.47.36-.706.934-1.28 1.64-1.639.444-.226.924-.321 1.47-.366.531-.043 1.187-.043 2-.043ZM9 9.25a.75.75 0 0 0 0 1.5h2.25V13a.75.75 0 0 0 1.5 0v-2.25H15a.75.75 0 0 0 0-1.5h-2.25V7a.75.75 0 0 0-1.5 0v2.25Z"/></svg>