<svg xmlns="http://www.w3.org/2000/svg" viewBox="0 0 24 24"><path fill="#151E28" d="M4.25 5A2.75 2.75 0 0 1 7 2.25h10A2.75 2.75 0 0 1 19.75 5v12.83c0 .535 0 .98-.03 1.345-.03.38-.098.736-.27 1.073a2.752 2.752 0 0 1-1.201 1.202c-.338.172-.694.24-1.074.27-.365.03-.81.03-1.345.03H7.427c-.393 0-.696 0-.963-.053a2.75 2.75 0 0 1-2.161-2.16c-.053-.268-.053-.571-.053-.964v-.146c0-.134 0-.258.002-.373L4.25 18ZM7.5 16.75c-.501 0-.641.004-.744.024a1.25 1.25 0 0 0-.982.982c-.02.103-.024.244-.024.744 0 .501.004.641.024.744.099.496.486.883.982.982.103.02.244.024.744.024h8.3c.572 0 .957-.001 1.252-.025.288-.023.425-.065.515-.111.236-.12.427-.311.547-.547.046-.09.088-.227.111-.515.025-.295.025-.68.025-1.252v-1.05ZM8.25 7c0 .414.336.75.75.75h6a.75.75 0 0 0 0-1.5H9a.75.75 0 0 0-.75.75Z"/></svg>