<svg xmlns="http://www.w3.org/2000/svg" viewBox="0 0 24 24"><path fill="#151E28" d="M20.75 3v18a.75.75 0 0 1-1.5 0V3a.75.75 0 0 1 1.5 0ZM13 12a1 1 0 1 1-2 0 1 1 0 0 1 2 0Zm0-4a1 1 0 1 1-2 0 1 1 0 0 1 2 0Zm-5 5a1 1 0 1 1 0-2 1 1 0 0 1 0 2Zm-3-1a1 1 0 1 1-2 0 1 1 0 0 1 2 0Zm7-7a1 1 0 1 1 0-2 1 1 0 0 1 0 2Zm0 12a1 1 0 1 1 0-2 1 1 0 0 1 0 2Zm4-4a1 1 0 1 1 0-2 1 1 0 0 1 0 2ZM5 8a1 1 0 1 1-2 0 1 1 0 0 1 2 0Zm4-4a1 1 0 1 1-2 0 1 1 0 0 1 2 0ZM4 17a1 1 0 1 1 0-2 1 1 0 0 1 0 2ZM17 4a1 1 0 1 1-2 0 1 1 0 0 1 2 0Zm-5 17a1 1 0 1 1 0-2 1 1 0 0 1 0 2ZM4 5a1 1 0 1 1 0-2 1 1 0 0 1 0 2Zm5 15a1 1 0 1 1-2 0 1 1 0 0 1 2 0Zm-4 0a1 1 0 1 1-2 0 1 1 0 0 1 2 0Zm12 0a1 1 0 1 1-2 0 1 1 0 0 1 2 0Z"/></svg>