<svg xmlns="http://www.w3.org/2000/svg" viewBox="0 0 24 24"><path fill="#151E28" d="M8.18 2.25h7.64c.705-.002 1.257-.002 1.745.19.428.168.808.442 1.103.795.337.403.511.927.733 1.595l.04.12 1.265 3.797a.76.76 0 0 1 .044.271v8.813c0 .534 0 .98-.03 1.344-.03.38-.098.736-.27 1.074a2.752 2.752 0 0 1-1.202 1.201c-.337.172-.693.24-1.073.27-.365.03-.81.03-1.345.03H7.169c-.535 0-.98 0-1.345-.03-.38-.03-.736-.098-1.074-.27a2.747 2.747 0 0 1-1.2-1.201c-.172-.338-.24-.694-.27-1.074-.03-.365-.03-.81-.03-1.345V9.017a.76.76 0 0 1 .044-.271l1.265-3.795.04-.12c.223-.669.396-1.192.733-1.595a2.747 2.747 0 0 1 1.103-.795C6.92 2.25 7.47 2.25 8.169 2.25h.011Zm10.779 6-.941-2.825c-.283-.847-.37-1.071-.5-1.227a1.247 1.247 0 0 0-.502-.361c-.188-.074-.429-.087-1.322-.087H8.306c-.893 0-1.133.013-1.322.087a1.253 1.253 0 0 0-.501.361c-.13.156-.218.38-.5 1.227L5.04 8.25Z"/></svg>