<svg xmlns="http://www.w3.org/2000/svg" viewBox="0 0 24 24"><path fill="#151E28" d="M3.25 10A.75.75 0 0 1 4 9.25h16a.75.75 0 0 1 .75.75v6.83c0 .535 0 .98-.03 1.345-.03.38-.098.736-.27 1.073a2.752 2.752 0 0 1-1.201 1.202c-.338.172-.694.24-1.074.27-.364.03-.81.03-1.345.03H7.17c-.535 0-.98 0-1.345-.03-.38-.03-.736-.098-1.073-.27a2.75 2.75 0 0 1-1.202-1.2c-.172-.338-.24-.694-.27-1.074-.03-.365-.03-.81-.03-1.345Zm-2-4A2.75 2.75 0 0 1 4 3.25h16a2.75 2.75 0 1 1 0 5.5H4A2.75 2.75 0 0 1 1.25 6ZM4 4.75a1.25 1.25 0 0 0 0 2.5h16a1.25 1.25 0 0 0 0-2.5ZM8.25 13c0 .414.336.75.75.75h6a.75.75 0 0 0 0-1.5H9a.75.75 0 0 0-.75.75Z"/></svg>