<svg xmlns="http://www.w3.org/2000/svg" viewBox="0 0 24 24"><path fill="#151E28" d="M8.18 2.25h7.651c.699 0 1.249 0 1.734.191.428.168.808.442 1.103.795.337.403.51.927.733 1.595l.04.12 1.265 3.796a.738.738 0 0 1 .044.271v8.812c0 .535 0 .98-.03 1.345-.03.38-.098.736-.27 1.074a2.752 2.752 0 0 1-1.202 1.201c-.337.172-.694.24-1.073.27-.365.03-.81.03-1.345.03H7.17c-.535 0-.98 0-1.345-.03-.38-.03-.736-.098-1.074-.27a2.747 2.747 0 0 1-1.201-1.2c-.172-.338-.24-.694-.27-1.074-.03-.364-.03-.81-.03-1.344V9.017a.754.754 0 0 1 .044-.27L4.56 4.95l.04-.12c.222-.669.396-1.192.733-1.595a2.747 2.747 0 0 1 1.103-.795c.488-.192 1.039-.192 1.744-.19Zm3.07 1.5H8.306c-.893 0-1.133.013-1.322.087a1.253 1.253 0 0 0-.501.361c-.13.156-.218.38-.5 1.227L5.04 8.25h6.21Zm1.5 4.5h6.209l-.942-2.825c-.282-.847-.37-1.071-.5-1.227a1.235 1.235 0 0 0-.501-.361c-.188-.074-.429-.087-1.322-.087H12.75Z"/></svg>