<svg xmlns="http://www.w3.org/2000/svg" viewBox="0 0 24 24"><path fill="#151E28" d="M10.979 2.25h4.84c.705-.001 1.257-.001 1.745.191.428.168.808.442 1.103.795.337.402.511.926.733 1.595l.04.12 1.265 3.795a.76.76 0 0 1 .044.271v8.813c0 .534 0 .98-.03 1.344-.03.38-.098.737-.27 1.074a2.749 2.749 0 0 1-1.202 1.202c-.337.172-.693.239-1.073.27-.365.03-.81.03-1.345.03H7.168c-.534 0-.98 0-1.344-.03-.38-.031-.736-.098-1.074-.27a2.75 2.75 0 0 1-1.2-1.202c-.172-.337-.24-.693-.27-1.073-.03-.365-.03-.811-.03-1.345V9.017a.76.76 0 0 1 .044-.271l1.265-3.795.04-.12c.223-.669.396-1.193.733-1.595a2.743 2.743 0 0 1 1.103-.796c.488-.191 1.041-.191 1.745-.19h2.799Zm1.386 1.5h-.73l-.813 4.883a5.199 5.199 0 0 0-.072.863V14c0 .138.112.25.25.25h2a.25.25 0 0 0 .25-.25V9.496c0-.289-.024-.578-.071-.863Zm1.52 0 .75 4.5h4.324l-.941-2.825c-.283-.847-.37-1.072-.5-1.227a1.247 1.247 0 0 0-.502-.361c-.188-.075-.429-.087-1.322-.087Zm-4.52 4.5.75-4.5H8.306c-.893 0-1.133.012-1.322.087-.194.076-.367.2-.501.36-.13.156-.218.38-.5 1.228L5.04 8.25h4.325Z"/></svg>