<svg xmlns="http://www.w3.org/2000/svg" viewBox="0 0 24 24"><path fill="#151E28" d="M9.325 2.25h5.422c.419 0 .748 0 1.067.076.28.068.548.179.794.33.28.17.513.404.808.7l.052.051 3.126 3.125.05.052c.297.296.53.528.7.808.151.246.262.514.33.795.076.318.076.647.076 1.066v5.494c0 .419 0 .748-.076 1.067a2.687 2.687 0 0 1-.33.794c-.17.28-.403.513-.7.808l-.051.052-3.125 3.126-.052.05c-.295.297-.528.53-.808.7a2.687 2.687 0 0 1-.794.33c-.319.076-.648.076-1.067.076H9.253c-.419 0-.748 0-1.066-.076a2.704 2.704 0 0 1-.795-.33c-.28-.17-.512-.403-.808-.7l-.052-.051-3.125-3.125-.051-.052c-.296-.295-.53-.528-.7-.808a2.737 2.737 0 0 1-.33-.794c-.076-.319-.076-.648-.076-1.067V9.253c0-.419 0-.748.076-1.066.068-.281.179-.549.33-.795.17-.28.404-.512.7-.808l.051-.052 3.125-3.125.052-.051c.296-.296.528-.53.808-.7.246-.151.514-.262.795-.33.318-.076.647-.076 1.066-.076h.072ZM12.99 8c0 .414.336.75.75.75a.57.57 0 0 1 .554.583v1.302a1.643 1.643 0 0 0 .715 1.36l.008.005-.008.005c-.45.307-.715.819-.715 1.36v1.302a.57.57 0 0 1-.554.583.75.75 0 0 0 0 1.5c1.15 0 2.054-.948 2.054-2.083v-1.302a.144.144 0 0 1 .06-.12l.375-.255a1.2 1.2 0 0 0 0-1.98l-.375-.255a.144.144 0 0 1-.06-.12V9.333c0-1.135-.904-2.083-2.054-2.083a.75.75 0 0 0-.75.75ZM8.206 9.333v1.302a.146.146 0 0 1-.06.12l-.375.255a1.2 1.2 0 0 0 0 1.98l.375.255a.146.146 0 0 1 .06.12v1.302c0 1.135.904 2.083 2.054 2.083a.75.75 0 0 0 0-1.5.57.57 0 0 1-.554-.583v-1.302c0-.541-.265-1.053-.715-1.36L8.983 12l.008-.005c.45-.307.715-.819.715-1.36V9.333a.57.57 0 0 1 .554-.583.75.75 0 0 0 0-1.5c-1.15 0-2.054.948-2.054 2.083Z"/></svg>