<svg xmlns="http://www.w3.org/2000/svg" viewBox="0 0 24 24"><path fill="#151E28" d="M13.117 2.479c.485.216.844.614 1.168 1.071.321.455.676 1.067 1.114 1.825l.019.033 5.45 9.413.02.033c.44.76.796 1.375 1.03 1.881.236.51.403 1.021.348 1.55a2.75 2.75 0 0 1-1.118 1.939c-.43.313-.955.424-1.515.475-.555.051-1.267.051-2.145.051H6.512c-.878 0-1.589 0-2.145-.051-.559-.051-1.085-.162-1.515-.475a2.749 2.749 0 0 1-1.119-1.938c-.054-.53.113-1.04.35-1.55.233-.507.59-1.122 1.03-1.882l.018-.033 5.45-9.413.02-.033c.438-.757.793-1.371 1.115-1.825.323-.457.682-.855 1.167-1.071a2.75 2.75 0 0 1 2.234 0ZM12.555 11c0 .414.336.75.75.75.111 0 .228.097.228.25v.976c0 .386.156.755.433 1.024a1.425 1.425 0 0 0-.433 1.023V16c0 .154-.118.25-.228.25a.75.75 0 0 0 0 1.5c.97 0 1.728-.799 1.728-1.75v-.937l.244-.166c.63-.43.63-1.364 0-1.794l-.244-.166V12c0-.951-.758-1.75-1.728-1.75a.75.75 0 0 0-.75.75Zm-3.588 1v.937l-.244.166a1.087 1.087 0 0 0 0 1.794l.244.166V16c0 .951.758 1.75 1.728 1.75a.75.75 0 0 0 0-1.5c-.111 0-.228-.096-.228-.25v-.977c0-.386-.157-.756-.433-1.023.276-.267.433-.637.433-1.024V12c0-.153.118-.25.228-.25a.75.75 0 0 0 0-1.5c-.97 0-1.728.799-1.728 1.75Z"/></svg>