<svg xmlns="http://www.w3.org/2000/svg" viewBox="0 0 24 24"><path fill="#151E28" d="M12 2.25A9.75 9.75 0 0 1 21.75 12 9.75 9.75 0 0 1 12 21.75 9.75 9.75 0 0 1 2.25 12 9.75 9.75 0 0 1 12 2.25ZM13.25 8c0 .414.336.75.75.75.69 0 1.25.56 1.25 1.25v4c0 .69-.56 1.25-1.25 1.25a.75.75 0 0 0 0 1.5A2.75 2.75 0 0 0 16.75 14v-4A2.75 2.75 0 0 0 14 7.25a.75.75 0 0 0-.75.75Zm-6 2v4A2.75 2.75 0 0 0 10 16.75a.75.75 0 0 0 0-1.5c-.69 0-1.25-.56-1.25-1.25v-4c0-.69.56-1.25 1.25-1.25a.75.75 0 0 0 0-1.5A2.75 2.75 0 0 0 7.25 10Z"/></svg>