<svg xmlns="http://www.w3.org/2000/svg" viewBox="0 0 24 24"><path fill="#151E28" d="M13.117 2.479c.485.216.844.614 1.168 1.071.321.455.676 1.067 1.114 1.825l.019.033 5.45 9.413.02.033c.44.76.796 1.375 1.03 1.881.236.51.403 1.021.348 1.55a2.75 2.75 0 0 1-1.118 1.939c-.43.313-.955.424-1.515.475-.555.051-1.267.051-2.145.051H6.512c-.878 0-1.589 0-2.145-.051-.559-.051-1.085-.162-1.515-.475a2.749 2.749 0 0 1-1.119-1.938c-.054-.53.113-1.04.35-1.55.233-.507.59-1.122 1.03-1.882l.018-.033 5.45-9.413.02-.033c.438-.757.793-1.371 1.115-1.825.323-.457.682-.855 1.167-1.071a2.75 2.75 0 0 1 2.234 0Zm-2.202 8.233h-.001a.75.75 0 0 0-.98-.405C8.406 10.943 7.25 12.315 7.25 14s1.156 3.057 2.684 3.692a.75.75 0 1 0 .576-1.384c-1.105-.46-1.76-1.364-1.76-2.308 0-.944.655-1.848 1.76-2.308a.75.75 0 0 0 .405-.98Zm2.17 0a.747.747 0 0 0 .405.981c1.105.459 1.76 1.363 1.76 2.307s-.655 1.848-1.76 2.308a.75.75 0 0 0 .576 1.384c1.528-.635 2.684-2.007 2.684-3.692s-1.155-3.057-2.685-3.693a.75.75 0 0 0-.98.405Z"/></svg>