<svg xmlns="http://www.w3.org/2000/svg" viewBox="0 0 24 24"><path fill="#151E28" d="M9.325 2.25h5.422c.419 0 .748 0 1.067.076.28.068.548.179.794.33.28.17.513.404.808.7l.052.051 3.126 3.125.05.052c.297.296.53.528.7.808.151.246.262.514.33.795.076.318.076.647.076 1.066v5.494c0 .419 0 .748-.076 1.067a2.687 2.687 0 0 1-.33.794c-.17.28-.403.513-.7.808l-.051.052-3.125 3.126-.052.05c-.295.297-.528.53-.808.7a2.687 2.687 0 0 1-.794.33c-.319.076-.648.076-1.067.076H9.253c-.419 0-.748 0-1.066-.076a2.704 2.704 0 0 1-.795-.33c-.28-.17-.512-.403-.808-.7l-.052-.051-3.125-3.125-.051-.052c-.296-.295-.53-.528-.7-.808a2.737 2.737 0 0 1-.33-.794c-.076-.319-.076-.648-.076-1.067V9.253c0-.419 0-.748.076-1.066.068-.281.179-.549.33-.795.17-.28.404-.512.7-.808l.051-.052 3.125-3.125.052-.051c.296-.296.528-.53.808-.7.246-.151.514-.262.795-.33.318-.076.647-.076 1.066-.076h.072Zm3.76 6.462a.75.75 0 0 0 .405.98c1.105.46 1.76 1.364 1.76 2.308 0 .944-.655 1.847-1.76 2.307a.75.75 0 1 0 .576 1.386c1.528-.636 2.684-2.008 2.684-3.693s-1.155-3.057-2.685-3.692a.75.75 0 0 0-.98.404Zm-2.17 0h-.001a.75.75 0 0 0-.98-.404C8.406 8.943 7.25 10.316 7.25 12c0 1.684 1.156 3.057 2.684 3.693a.75.75 0 1 0 .576-1.386C9.405 13.848 8.75 12.944 8.75 12s.655-1.848 1.76-2.308a.75.75 0 0 0 .405-.98Z"/></svg>