<svg xmlns="http://www.w3.org/2000/svg" viewBox="0 0 24 24"><path fill="#151E28" d="M15.25 12.75V13a.746.746 0 0 0 .75.75.746.746 0 0 0 .75-.75v-.25H21a.75.75 0 0 1 .75.75v1.133c0 1.092 0 1.958-.057 2.655-.058.714-.18 1.317-.461 1.869a4.752 4.752 0 0 1-2.075 2.076c-.552.28-1.155.402-1.869.46-.697.057-1.563.057-2.655.057H9.367c-1.092 0-1.958 0-2.655-.057-.714-.058-1.318-.18-1.868-.461a4.75 4.75 0 0 1-2.077-2.075c-.28-.552-.402-1.155-.46-1.869-.057-.697-.057-1.563-.057-2.655V13.5a.75.75 0 0 1 .75-.75h4.25V13a.746.746 0 0 0 .75.75.746.746 0 0 0 .75-.75v-.25Zm-7.941-7.5a4.751 4.751 0 0 1 9.382 0H19A3.75 3.75 0 0 1 22.75 9a2.25 2.25 0 0 1-2.25 2.25h-3.75V11a.746.746 0 0 0-.75-.75.746.746 0 0 0-.75.75v.25h-6.5V11a.746.746 0 0 0-.75-.75.746.746 0 0 0-.75.75v.25H3.5A2.25 2.25 0 0 1 1.25 9 3.75 3.75 0 0 1 5 5.25Zm1.528 0h6.326a3.252 3.252 0 0 0-6.326 0Z"/></svg>