<svg xmlns="http://www.w3.org/2000/svg" viewBox="0 0 24 24"><path fill="#151E28" d="M15.25 12.75V13a.746.746 0 0 0 .75.75.746.746 0 0 0 .75-.75v-.25H21a.75.75 0 0 1 .75.75v1.133c0 1.092 0 1.958-.057 2.655-.058.714-.18 1.317-.461 1.869a4.752 4.752 0 0 1-2.075 2.076c-.552.28-1.155.402-1.869.46-.697.057-1.563.057-2.655.057H9.367c-1.092 0-1.958 0-2.655-.057-.714-.058-1.318-.18-1.868-.461a4.75 4.75 0 0 1-2.077-2.075c-.28-.552-.402-1.155-.46-1.869-.057-.697-.057-1.563-.057-2.655V13.5a.75.75 0 0 1 .75-.75h4.25V13a.746.746 0 0 0 .75.75.746.746 0 0 0 .75-.75v-.25Zm-7.941-7.5a4.751 4.751 0 0 1 9.382 0h3.096c.196 0 .347 0 .483.013a2.751 2.751 0 0 1 2.467 2.467c.013.136.013.287.013.483v.074c0 .196 0 .347-.013.483a2.751 2.751 0 0 1-2.467 2.467 5.193 5.193 0 0 1-.483.013H16.75V11a.746.746 0 0 0-.75-.75.746.746 0 0 0-.75.75v.25h-6.5V11a.746.746 0 0 0-.75-.75.746.746 0 0 0-.75.75v.25H4.213c-.196 0-.347 0-.483-.013A2.751 2.751 0 0 1 1.263 8.77c-.013-.136-.013-.287-.013-.483v-.074c0-.196 0-.347.013-.483A2.751 2.751 0 0 1 3.73 5.263c.136-.013.287-.013.483-.013Zm1.528 0h6.326a3.252 3.252 0 0 0-6.326 0Z"/></svg>