<svg xmlns="http://www.w3.org/2000/svg" viewBox="0 0 24 24"><path fill="#151E28" d="M8.75 1v1.25h6.5V1a.75.75 0 0 1 1.5 0v1.275c.18.007.359.018.538.032.714.058 1.317.18 1.869.461a4.744 4.744 0 0 1 2.076 2.076c.28.551.402 1.154.46 1.868.029.394.046.79.05 1.185a.817.817 0 0 1 .003.185c.004.39.004.817.004 1.285v5.266c0 1.092 0 1.958-.057 2.655-.058.714-.18 1.317-.461 1.869a4.752 4.752 0 0 1-2.075 2.076c-.552.28-1.155.402-1.869.46-.697.057-1.563.057-2.655.057H9.368c-1.092 0-1.958 0-2.655-.057-.714-.058-1.318-.18-1.868-.461a4.75 4.75 0 0 1-2.077-2.075c-.28-.552-.402-1.155-.46-1.869-.057-.697-.057-1.563-.057-2.655V8.022a.384.384 0 0 1 0-.048c.004-1.094.032-1.844.246-2.484A4.75 4.75 0 0 1 5.49 2.496c.489-.163 1.04-.218 1.76-.236V1a.75.75 0 0 1 1.5 0Zm11.474 6.25a11.606 11.606 0 0 0-.026-.416c-.05-.62-.147-1.005-.302-1.31a3.258 3.258 0 0 0-1.42-1.42c-.305-.155-.69-.251-1.31-.302-.13-.01-.269-.02-.416-.026V4a.75.75 0 0 1-1.5 0v-.25h-6.5V4a.75.75 0 0 1-1.5 0v-.24c-.626.017-.983.058-1.283.158a3.248 3.248 0 0 0-2.048 2.05c-.101.3-.142.656-.158 1.282ZM8 11.25a.75.75 0 0 0 0 1.5h4a.75.75 0 0 0 0-1.5Zm4 4a.75.75 0 0 0 0 1.5h4a.75.75 0 0 0 0-1.5ZM16 13a1 1 0 1 0 0-2 1 1 0 0 0 0 2Zm-7 3a1 1 0 1 0-2 0 1 1 0 0 0 2 0Z"/></svg>