<svg xmlns="http://www.w3.org/2000/svg" viewBox="0 0 24 24"><path fill="#151E28" d="m2.53 1.47 20 20a.75.75 0 1 1-1.06 1.061l-1.84-1.84a6.75 6.75 0 0 1-2.146.894c-.734.165-1.598.165-3.058.165H9.574c-1.46 0-2.324 0-3.058-.166a6.75 6.75 0 0 1-5.101-5.1c-.151-.673-.164-1.455-.165-2.706v-2.652a5.783 5.783 0 0 1 3.5-5.314L1.47 2.53a.751.751 0 0 1 .018-1.042.751.751 0 0 1 1.042-.018Zm7.725 2.28c-.488 0-.95.149-1.334.41a.75.75 0 1 1-.842-1.242 3.872 3.872 0 0 1 2.176-.668h3.49a3.878 3.878 0 0 1 3.68 2.652.814.814 0 0 0 .612.54l.065.013a5.782 5.782 0 0 1 4.648 5.67v2.301c0 1.46 0 2.324-.165 3.058a6.826 6.826 0 0 1-.22.766.75.75 0 1 1-1.415-.5c.068-.193.126-.392.172-.596.123-.55.128-1.233.128-2.847v-2.181a4.28 4.28 0 0 0-3.442-4.2l-.065-.013a2.314 2.314 0 0 1-1.741-1.537 2.38 2.38 0 0 0-2.257-1.626Zm4.025 12.064-4.99-5.221A3.184 3.184 0 0 0 8.5 12.7v.6a3.2 3.2 0 0 0 3.2 3.2h.6c.747 0 1.435-.257 1.98-.686Zm-2.012-6.4a.75.75 0 0 1 .895-.57 3.954 3.954 0 0 1 2.992 2.992.75.75 0 1 1-1.464.327 2.453 2.453 0 0 0-1.854-1.854.748.748 0 0 1-.569-.896Z"/></svg>