<svg xmlns="http://www.w3.org/2000/svg" viewBox="0 0 24 24"><path fill="#151E28" d="m4.278 10.795 1.172-4.1a4.75 4.75 0 0 1 4.567-3.445h3.966a4.75 4.75 0 0 1 4.567 3.445l1.171 4.099.002.005a6.067 6.067 0 0 1 2.027 4.534c0 1.382-.82 2.572-2 3.11V21a.75.75 0 0 1-1.5 0v-2.25H5.75V21a.75.75 0 0 1-1.5 0v-2.557a3.418 3.418 0 0 1-2-3.11c0-1.801.783-3.419 2.027-4.533l.001-.005Zm2.615-3.688-.726 2.54a6.076 6.076 0 0 1 2.167-.397h7.333a6.076 6.076 0 0 1 2.167.397l-.726-2.54a3.25 3.25 0 0 0-3.125-2.357h-3.966a3.25 3.25 0 0 0-3.124 2.357ZM6.25 14c0 .414.336.75.75.75h1a.75.75 0 0 0 0-1.5H7a.75.75 0 0 0-.75.75Zm9.75-.75a.75.75 0 0 0 0 1.5h1a.75.75 0 0 0 0-1.5ZM4.277 10.8l.001-.001Z"/></svg>