<svg xmlns="http://www.w3.org/2000/svg" viewBox="0 0 24 24"><path fill="#151E28" d="M12 2.25A9.75 9.75 0 0 1 21.75 12 9.75 9.75 0 0 1 12 21.75c-1.653 0-2.998-.322-4.028-.722a65.592 65.592 0 0 0-1.502-.572 7.476 7.476 0 0 0-.41-.137 1.09 1.09 0 0 0-.145-.035h-.001a1.427 1.427 0 0 0-.24-.013 1.627 1.627 0 0 0-.233.065 1.897 1.897 0 0 0-.354.186c-.207.126-.474.304-.854.557l-.817.545A.75.75 0 0 1 2.25 21v-9A9.75 9.75 0 0 1 12 2.25ZM8.97 8.97a.75.75 0 0 0 0 1.06L10.94 12l-1.97 1.97a.749.749 0 0 0 .326 1.275.749.749 0 0 0 .734-.215L12 13.06l1.97 1.97a.749.749 0 0 0 1.275-.326.749.749 0 0 0-.215-.734L13.06 12l1.97-1.97a.749.749 0 0 0-.326-1.275.749.749 0 0 0-.734.215L12 10.94l-1.97-1.97a.75.75 0 0 0-1.06 0Z"/></svg>