<svg xmlns="http://www.w3.org/2000/svg" viewBox="0 0 24 24"><path fill="#151E28" d="m2.53 1.47 20 20a.749.749 0 0 1-.326 1.275.749.749 0 0 1-.734-.215l-3.126-3.126A9.714 9.714 0 0 1 12 21.75c-1.653 0-2.998-.322-4.028-.722a65.592 65.592 0 0 0-1.502-.572 7.476 7.476 0 0 0-.41-.137 1.09 1.09 0 0 0-.145-.035h-.001a1.427 1.427 0 0 0-.24-.013 1.627 1.627 0 0 0-.233.065 1.897 1.897 0 0 0-.354.186c-.207.126-.474.304-.854.557l-.817.545A.75.75 0 0 1 2.25 21v-9a9.714 9.714 0 0 1 2.346-6.344L1.47 2.53a.751.751 0 0 1 .018-1.042.751.751 0 0 1 1.042-.018ZM12 3.75c-1.14 0-2.223.23-3.208.647a.75.75 0 1 1-.584-1.382A9.724 9.724 0 0 1 12 2.25 9.75 9.75 0 0 1 21.75 12a9.724 9.724 0 0 1-.765 3.792.75.75 0 1 1-1.382-.584A8.25 8.25 0 0 0 12 3.75Z"/></svg>