<svg xmlns="http://www.w3.org/2000/svg" viewBox="0 0 24 24"><path fill="#151E28" d="m2.53 1.47 20 20a.749.749 0 0 1-.326 1.275.749.749 0 0 1-.734-.215l-3.826-3.825a4.954 4.954 0 0 1-.644.045H7.211a3.25 3.25 0 0 0-1.803.546l-1.992 1.328A.75.75 0 0 1 2.25 20V8a4.734 4.734 0 0 1 1.36-3.328L1.47 2.53a.751.751 0 0 1 .018-1.042.751.751 0 0 1 1.042-.018ZM7.25 4A.75.75 0 0 1 8 3.25h9A4.75 4.75 0 0 1 21.75 8v6c0 .864-.231 1.676-.636 2.375a.75.75 0 1 1-1.298-.75A3.232 3.232 0 0 0 20.25 14V8A3.25 3.25 0 0 0 17 4.75H8A.75.75 0 0 1 7.25 4Z"/></svg>