<svg xmlns="http://www.w3.org/2000/svg" viewBox="0 0 24 24"><path fill="#151E28" d="M14.633 3.25c1.092 0 1.958 0 2.655.057.714.058 1.317.18 1.869.46a4.75 4.75 0 0 1 2.075 2.077c.281.55.403 1.154.461 1.868.057.697.057 1.563.057 2.655v1.266c0 1.092 0 1.958-.057 2.655-.058.714-.18 1.317-.46 1.869a4.752 4.752 0 0 1-2.076 2.075c-.552.281-1.155.403-1.869.461-.697.057-1.563.057-2.655.057H7.938c-.746 0-1.03.003-1.297.05a3.271 3.271 0 0 0-.73.221c-.25.11-.487.264-1.107.678l-1.388.925A.75.75 0 0 1 2.25 20v-9.633c0-1.092 0-1.958.057-2.655.058-.714.18-1.317.46-1.868a4.752 4.752 0 0 1 2.077-2.076c.55-.281 1.154-.403 1.868-.461.697-.057 1.563-.057 2.655-.057h5.266ZM13.25 8.905h-.001a2.684 2.684 0 0 1-.174.272c-.172.244-.406.536-.66.854l-.01.013c-.243.304-.505.63-.705.914a4.001 4.001 0 0 0-.277.44 1.32 1.32 0 0 0-.173.602.75.75 0 0 0 1.491.113l.008-.015c.053-.095.112-.187.176-.275.172-.244.406-.536.66-.854l.01-.013c.243-.304.505-.63.705-.914.101-.141.194-.288.277-.44A1.32 1.32 0 0 0 14.75 9v-.021c.001-.258.001-.926-.349-1.539-.406-.71-1.18-1.19-2.401-1.19-.632 0-1.155.16-1.572.438a2.51 2.51 0 0 0-.849.977c-.184.374-.294.78-.323 1.196l-.006.092V9a.75.75 0 0 0 1.5.006v-.003c.011-.232.069-.459.17-.668a1.01 1.01 0 0 1 .34-.398c.145-.097.371-.187.74-.187.779 0 1.005.27 1.099.435.123.215.146.481.151.72ZM12 16a1 1 0 1 0 0-2 1 1 0 0 0 0 2Zm1.273-7.145-.004.01.004-.01Zm-.546 3.29.004-.01-.004.01Z"/></svg>