<svg xmlns="http://www.w3.org/2000/svg" viewBox="0 0 24 24"><path fill="#151E28" d="M12 1.25c5.937 0 10.75 4.813 10.75 10.75S17.937 22.75 12 22.75 1.25 17.937 1.25 12 6.063 1.25 12 1.25Zm3.53 14.28a.75.75 0 0 0 0-1.06l-3-3a.75.75 0 0 0-1.06 0l-3 3a.749.749 0 0 0 .326 1.275.749.749 0 0 0 .734-.215L12 13.06l2.47 2.47a.75.75 0 0 0 1.06 0Zm0-5.06-3-3a.75.75 0 0 0-1.06 0l-3 3a.751.751 0 0 0 .018 1.042.751.751 0 0 0 1.042.018L12 9.06l2.47 2.47a.749.749 0 0 0 1.275-.326.749.749 0 0 0-.215-.734Z"/></svg>