<svg xmlns="http://www.w3.org/2000/svg" viewBox="0 0 24 24"><path fill="#151E28" d="M17.232 3.293c.546.045 1.026.139 1.47.365.706.36 1.28.934 1.639 1.64.226.444.321.924.366 1.47.043.531.043 1.187.043 2v8.464c0 .813 0 1.469-.043 2-.045.546-.139 1.026-.365 1.47a3.749 3.749 0 0 1-1.64 1.639c-.444.226-.924.321-1.47.366-.531.043-1.187.043-2 .043H8.768c-.813 0-1.469 0-2-.043-.546-.045-1.026-.139-1.47-.365a3.749 3.749 0 0 1-1.639-1.64c-.226-.444-.321-.924-.366-1.47-.043-.531-.043-1.187-.043-2V8.768c0-.813 0-1.469.043-2 .045-.546.139-1.026.365-1.47.36-.706.934-1.28 1.64-1.639.444-.226.924-.321 1.471-.366.437-.035.959-.042 1.584-.043a2.752 2.752 0 0 1 2.647-2h2c1.23 0 2.311.816 2.647 2 .625.001 1.147.008 1.585.043ZM12 9.25a.75.75 0 0 0-.75.75v2.25H9a.75.75 0 0 0 0 1.5h2.25V16a.75.75 0 0 0 1.5 0v-2.25H15a.75.75 0 0 0 0-1.5h-2.25V10a.75.75 0 0 0-.75-.75Zm-1-6.5a1.25 1.25 0 0 0 0 2.5h2a1.25 1.25 0 0 0 0-2.5Z"/></svg>