<svg xmlns="http://www.w3.org/2000/svg" viewBox="0 0 24 24"><path fill="#151E28" d="M17.232 2.293c.546.045 1.026.139 1.47.365.706.36 1.28.934 1.639 1.64.226.444.321.924.366 1.47.043.531.043 1.187.043 2v8.464c0 .813 0 1.469-.043 2-.045.546-.139 1.026-.365 1.47a3.749 3.749 0 0 1-1.64 1.639c-.444.226-.924.321-1.47.366-.531.043-1.187.043-2 .043H8.768c-.813 0-1.469 0-2-.043-.546-.045-1.026-.139-1.47-.365a3.749 3.749 0 0 1-1.639-1.64c-.226-.444-.321-.924-.366-1.47-.043-.531-.043-1.187-.043-2V7.768c0-.813 0-1.469.043-2 .045-.546.139-1.026.365-1.47.36-.706.934-1.28 1.64-1.639.444-.226.924-.321 1.471-.366.437-.035.959-.042 1.584-.043A2.752 2.752 0 0 1 11 .25h2c1.23 0 2.311.816 2.647 2 .625.001 1.147.008 1.585.043ZM8.97 8.97a.75.75 0 0 0 0 1.06L10.94 12l-1.97 1.97a.749.749 0 0 0 .326 1.275.749.749 0 0 0 .734-.215L12 13.06l1.97 1.97a.749.749 0 0 0 1.275-.326.749.749 0 0 0-.215-.734L13.06 12l1.97-1.97a.749.749 0 0 0-.326-1.275.749.749 0 0 0-.734.215L12 10.94l-1.97-1.97a.75.75 0 0 0-1.06 0ZM11 1.75a1.25 1.25 0 0 0 0 2.5h2a1.25 1.25 0 0 0 0-2.5Z"/></svg>