<svg xmlns="http://www.w3.org/2000/svg" viewBox="0 0 24 24"><path fill="#151E28" d="M8.008 17.772c-.17.396-.302.807-.396 1.228H7A5 5 0 0 1 7 9a5 5 0 0 1 10 0 5 5 0 0 1 0 10h-.611a6.955 6.955 0 0 0-.397-1.228 12.323 12.323 0 0 0-.863-1.645 18.75 18.75 0 0 0-1.14-1.641l-.024-.031-.008-.01-.003-.004v-.002h-.001l-1.367 1.093.002.003.006.006.019.025a17.039 17.039 0 0 1 1.026 1.478c.261.425.532.914.74 1.407.202.48.371 1.027.371 1.549 0 .93-.319 1.659-.895 2.139-.552.46-1.244.611-1.855.611s-1.303-.151-1.855-.611c-.576-.48-.895-1.209-.895-2.139 0-.522.169-1.068.371-1.549.208-.493.479-.982.74-1.407.316-.51.658-1.004 1.026-1.478l.02-.025.005-.006.001-.002.001-.001v-.001l-1.366-1.093-.001.002-.001.001-.003.004-.008.01-.025.03a18.647 18.647 0 0 0-1.139 1.642 12.323 12.323 0 0 0-.863 1.645Zm3.631.058v.001a9.026 9.026 0 0 0-.635 1.202c-.173.41-.254.739-.254.967 0 .57.181.841.355.986.198.165.506.264.895.264s.697-.099.895-.264c.174-.145.355-.416.355-.986 0-.227-.081-.557-.254-.967a9.026 9.026 0 0 0-.635-1.202c-.123-.2-.246-.388-.361-.558-.115.17-.238.357-.361.557Zm-.225-2.298L12 16l.003-.001.583-.467 1.366-1.094a2.5 2.5 0 0 0-3.904 0l1.367 1.093ZM12 16l-.585-.469a.75.75 0 0 1 1.171.001Z"/></svg>