<svg xmlns="http://www.w3.org/2000/svg" viewBox="0 0 24 24"><path fill="#151E28" d="M17.468 16.6v-.001a2.5 2.5 0 0 0-1.35-1.835l-.206-.103.513-2.055a2.501 2.501 0 0 0-4.193-2.374l-5 5a2.5 2.5 0 0 0 .65 4.004l.206.104-.102.41H7a5.751 5.751 0 0 1-.707-11.457 5.75 5.75 0 0 1 11.414 0A5.75 5.75 0 0 1 17 19.75h-1.215l.75-.75.233-.232a2.5 2.5 0 0 0 .7-2.168Zm-2.74-4.418-.855 3.416 1.462.732a.75.75 0 0 1 .195 1.2l-5 5a.75.75 0 0 1-1.258-.712l.855-3.416-1.462-.732a.75.75 0 0 1-.195-1.2l5-5a.75.75 0 0 1 1.258.712Zm-3.393 5.147a.75.75 0 0 1 .393.853l-.344 1.373 2.35-2.349-1.069-.535a.75.75 0 0 1-.393-.853l.344-1.373-2.35 2.349Z"/></svg>