<svg xmlns="http://www.w3.org/2000/svg" viewBox="0 0 24 24"><path fill="#151E28" d="M12 3.25a5.751 5.751 0 0 1 5.707 5.043A5.75 5.75 0 0 1 17 19.75H7a5.751 5.751 0 0 1-.707-11.457A5.751 5.751 0 0 1 12 3.25ZM8.354 13.922c.383-.287.91-.287 1.292 0a2.58 2.58 0 0 0 2.7.244l.99-.495a.75.75 0 1 0-.671-1.342l-.99.495a1.077 1.077 0 0 1-1.129-.102 2.577 2.577 0 0 0-3.092 0 1.077 1.077 0 0 1-1.129.102l-.99-.495a.75.75 0 1 0-.67 1.342l.99.495a2.578 2.578 0 0 0 2.699-.244Zm6.293 3.5c.781.586 1.825.68 2.698.244l.99-.495a.749.749 0 1 0-.67-1.342l-.99.495a1.077 1.077 0 0 1-1.129-.102 2.577 2.577 0 0 0-3.092 0 1.077 1.077 0 0 1-1.129.102l-.99-.495a.751.751 0 0 0-.671 1.342l.99.495a2.578 2.578 0 0 0 2.7-.244c.383-.287.91-.287 1.293 0Z"/></svg>