<svg xmlns="http://www.w3.org/2000/svg" viewBox="0 0 24 24"><path fill="#151E28" d="M6.48 18.973c.076.105.161.203.252.295l.482.482H7a5.751 5.751 0 0 1-.707-11.457 5.75 5.75 0 0 1 11.414 0A5.75 5.75 0 0 1 17 19.75h-.215l.483-.482a2.5 2.5 0 0 0-2.768-4.06V12a2.5 2.5 0 1 0-5 0v3.208a2.5 2.5 0 0 0-3.02 3.765ZM12.75 12v7.19l2.22-2.22a.749.749 0 0 1 1.275.326.749.749 0 0 1-.215.734l-3.5 3.5a.75.75 0 0 1-1.06 0l-3.5-3.5a.751.751 0 0 1 .018-1.042.751.751 0 0 1 1.042-.018l2.22 2.22V12a.75.75 0 0 1 1.5 0Z"/></svg>