<svg xmlns="http://www.w3.org/2000/svg" viewBox="0 0 24 24"><path fill="#151E28" d="M3.68 16.053c-1.366-1.375-1.823-3.32-1.543-5.28.281-1.967 1.304-4.002 2.97-5.667 1.665-1.666 3.7-2.689 5.667-2.97 1.967-.28 3.917.18 5.293 1.555l2.828 2.829a8.74 8.74 0 0 1 2.425 7.74l-.662-.662-.703-.704-.924-.924a.75.75 0 1 0-1.061 1.06l1.7 1.701.598.598.584.583a8.671 8.671 0 0 1-1.45 2.43l-.532-.533-.533-.533-1.306-1.306a.75.75 0 1 0-1.061 1.06l1.306 1.307.534.533.532.532a8.671 8.671 0 0 1-2.43 1.45l-.584-.584-.597-.598-1.7-1.7a.75.75 0 1 0-1.061 1.06l.924.925.703.703.662.661a8.74 8.74 0 0 1-7.738-2.425l-2.829-2.828Zm1.073-1.048v.001c.967.966 2.405 1.36 4.02 1.13 1.616-.231 3.36-1.087 4.819-2.545 1.458-1.459 2.314-3.203 2.544-4.819.232-1.615-.163-3.053-1.13-4.02l-.01-.011c-.967-.959-2.4-1.35-4.01-1.12-1.616.231-3.36 1.087-4.819 2.545-1.458 1.459-2.315 3.203-2.545 4.819-.231 1.615.164 3.053 1.131 4.02Zm.399-4.308c.294-1.176 1.02-2.414 2.075-3.47 1.056-1.056 2.294-1.781 3.47-2.076 1.16-.29 2.403-.183 3.248.662.845.845.952 2.088.662 3.248-.294 1.177-1.02 2.414-2.076 3.47s-2.293 1.781-3.47 2.076c-1.16.29-2.402.183-3.248-.662-.845-.845-.951-2.088-.661-3.248Z"/></svg>