<svg xmlns="http://www.w3.org/2000/svg" viewBox="0 0 24 24"><path fill="#151E28" d="M11.798 1.25h.404a2.547 2.547 0 0 1 2.548 2.549v.37a.495.495 0 0 0 .843.349l.262-.262a2.549 2.549 0 0 1 3.604 0l.285.285a2.549 2.549 0 0 1 0 3.604l-.263.262a.495.495 0 0 0 .35.843h.371a2.548 2.548 0 0 1 2.548 2.548v.404a2.547 2.547 0 0 1-2.549 2.548h-.37a.495.495 0 0 0-.349.843l.262.262a2.549 2.549 0 0 1 0 3.604l-.285.285a2.549 2.549 0 0 1-3.604 0l-.262-.263a.495.495 0 0 0-.843.35v.371a2.548 2.548 0 0 1-2.548 2.548h-.404a2.547 2.547 0 0 1-2.548-2.549v-.37a.495.495 0 0 0-.843-.349l-.262.262a2.549 2.549 0 0 1-3.604 0l-.285-.285a2.549 2.549 0 0 1 0-3.604l.263-.262a.495.495 0 0 0-.35-.843h-.371a2.548 2.548 0 0 1-2.548-2.548v-.404A2.547 2.547 0 0 1 3.799 9.25h.37a.495.495 0 0 0 .349-.843l-.262-.262a2.549 2.549 0 0 1 0-3.604l.285-.285a2.549 2.549 0 0 1 3.604 0l.262.263a.495.495 0 0 0 .843-.35v-.371a2.548 2.548 0 0 1 2.548-2.548ZM9 11.8v.4a2.8 2.8 0 0 0 2.8 2.8h.4a2.8 2.8 0 0 0 2.8-2.8v-.4A2.8 2.8 0 0 0 12.2 9h-.4A2.8 2.8 0 0 0 9 11.8Z"/></svg>