<svg xmlns="http://www.w3.org/2000/svg" viewBox="0 0 24 24"><path fill="#151E28" d="M17.8 11.25h.03c.535 0 .98 0 1.345.03.38.03.736.097 1.073.27.518.263.939.684 1.202 1.201.172.337.24.694.27 1.074.03.364.03.81.03 1.344v2.661c0 .534 0 .98-.03 1.344-.03.38-.098.737-.27 1.074a2.752 2.752 0 0 1-1.201 1.202c-.338.172-.694.239-1.074.27-.364.03-.81.03-1.345.03h-.66c-.535 0-.98 0-1.345-.03-.38-.031-.736-.098-1.073-.27a2.749 2.749 0 0 1-1.202-1.202c-.172-.337-.24-.694-.27-1.074-.03-.364-.03-.81-.03-1.344v-2.66c0-.535 0-.98.03-1.345.03-.38.098-.737.27-1.074a2.749 2.749 0 0 1 1.202-1.202c.337-.172.693-.239 1.073-.27.365-.03.81-.03 1.345-.03h.63Zm-11.63-9h.661c.535 0 .98 0 1.345.03.38.031.736.098 1.074.27.517.264.937.684 1.2 1.201.172.337.24.694.27 1.074.03.365.03.81.03 1.345v2.66c0 .534 0 .98-.03 1.344-.03.38-.098.737-.27 1.074a2.752 2.752 0 0 1-1.201 1.202c-.338.172-.694.239-1.074.27-.365.03-.81.03-1.345.03h-.66c-.535 0-.98 0-1.345-.03-.38-.031-.736-.098-1.073-.27a2.749 2.749 0 0 1-1.202-1.202c-.172-.337-.24-.694-.27-1.074-.03-.364-.03-.81-.03-1.344V6.168c0-.534 0-.98.03-1.344.03-.38.098-.737.27-1.074a2.75 2.75 0 0 1 1.202-1.2c.337-.173.693-.24 1.073-.27.365-.03.81-.03 1.345-.03Zm-.67 13v-.001h2.073c.393 0 .696 0 .964.054a2.75 2.75 0 0 1 2.16 2.16c.053.268.053.571.053.963v.147c0 .393 0 .696-.053.964a2.75 2.75 0 0 1-2.16 2.16c-.268.053-.571.053-.964.053H5.427c-.393 0-.696 0-.964-.054a2.75 2.75 0 0 1-2.16-2.16c-.053-.267-.053-.57-.053-.963v-.147c0-.393 0-.695.053-.963a2.75 2.75 0 0 1 2.161-2.161c.267-.052.57-.052.963-.052Zm13.073-13c.393-.001.696-.001.964.053a2.75 2.75 0 0 1 2.16 2.16c.053.268.053.571.053.963v.147c0 .393 0 .696-.053.964a2.75 2.75 0 0 1-2.161 2.16c-.267.053-.57.053-.963.053h-2.146c-.393 0-.696 0-.964-.054a2.75 2.75 0 0 1-2.16-2.16c-.053-.267-.053-.57-.053-.963v-.147c0-.393 0-.695.053-.963a2.75 2.75 0 0 1 2.161-2.161c.267-.052.57-.052.963-.052Z"/></svg>