<svg xmlns="http://www.w3.org/2000/svg" viewBox="0 0 24 24"><path fill="#151E28" d="M9.325 2.25h5.422c.419 0 .748 0 1.067.076.28.068.548.179.794.33.28.17.513.404.808.7l.052.051 3.126 3.125.05.052c.297.296.53.528.7.808.151.246.262.514.33.795.076.318.076.647.076 1.066v5.494c0 .419 0 .748-.076 1.067a2.687 2.687 0 0 1-.33.794c-.17.28-.403.513-.7.808l-.051.052-3.125 3.126-.052.05c-.295.297-.528.53-.808.7a2.687 2.687 0 0 1-.794.33c-.319.076-.648.076-1.067.076H9.253c-.419 0-.748 0-1.066-.076a2.704 2.704 0 0 1-.795-.33c-.28-.17-.512-.403-.808-.7l-.052-.051-3.125-3.125-.051-.052c-.296-.295-.53-.528-.7-.808a2.737 2.737 0 0 1-.33-.794c-.076-.319-.076-.648-.076-1.067V9.253c0-.419 0-.748.076-1.066.068-.281.179-.549.33-.795.17-.28.404-.512.7-.808l.051-.052 3.125-3.125.052-.051c.296-.296.528-.53.808-.7.246-.151.514-.262.795-.33.318-.076.647-.076 1.066-.076h.072Zm4.924 10.5v-1.5H15A2.25 2.25 0 1 0 12.75 9v.75h-1.5V9A2.25 2.25 0 1 0 9 11.25h.75v1.5H9A2.25 2.25 0 1 0 11.25 15v-.75h1.5V15A2.25 2.25 0 1 0 15 12.75Zm-3 0v-1.5h1.5v1.5Zm3 1.5h.75a.75.75 0 1 1-.75.75ZM8.25 9a.75.75 0 0 1 1.5 0v.75H9A.75.75 0 0 1 8.25 9ZM15 8.25a.75.75 0 0 1 0 1.5h-.75V9a.75.75 0 0 1 .75-.75Zm-6 6h.75V15a.75.75 0 1 1-.75-.75Z"/></svg>