<svg xmlns="http://www.w3.org/2000/svg" viewBox="0 0 24 24"><path fill="#151E28" d="M9.17 6.25h5.661c.535 0 .98 0 1.345.03.38.03.736.098 1.074.27a2.75 2.75 0 0 1 1.2 1.202c.172.337.24.693.27 1.073.03.365.03.81.03 1.345v3.66c0 .535 0 .98-.03 1.345-.03.38-.098.736-.27 1.074a2.752 2.752 0 0 1-1.202 1.201c-.337.172-.693.24-1.073.27-.365.03-.81.03-1.345.03H9.17c-.535 0-.98 0-1.345-.03-.38-.03-.736-.098-1.073-.27a2.749 2.749 0 0 1-1.202-1.202c-.172-.337-.24-.693-.27-1.073-.03-.365-.03-.81-.03-1.345v-3.66c0-.535 0-.98.03-1.345.03-.38.098-.736.27-1.073A2.749 2.749 0 0 1 6.752 6.55c.337-.172.693-.24 1.073-.27.365-.03.81-.03 1.345-.03ZM6.75 13.8c0 .573.001.957.025 1.253.023.287.065.424.111.515.12.235.312.426.547.546.09.046.227.088.514.111.296.025.681.025 1.253.025h5.6c.572 0 .957-.001 1.252-.025.288-.023.425-.065.515-.111.235-.12.427-.311.547-.546.046-.091.088-.228.111-.516.025-.295.025-.68.025-1.252v-2.05H6.75Zm.018-11.55H7a.75.75 0 0 1 0 1.5h-.2c-.852 0-1.447.001-1.909.038-.454.037-.715.107-.912.207a2.25 2.25 0 0 0-.984.984c-.1.197-.17.458-.207.911-.038.463-.038 1.058-.038 1.91V8a.75.75 0 0 1-1.5 0v-.232c0-.813 0-1.469.043-2 .045-.546.139-1.026.365-1.47.36-.706.934-1.28 1.64-1.639.444-.226.924-.321 1.47-.366.531-.043 1.187-.043 2-.043ZM2.75 16v.2c0 .852.001 1.447.038 1.909.037.454.107.715.207.913.216.423.56.767.984.983.197.1.458.169.911.207.463.038 1.058.038 1.91.038H7a.75.75 0 0 1 0 1.5h-.232c-.813 0-1.469 0-2-.043-.546-.045-1.026-.139-1.47-.365a3.749 3.749 0 0 1-1.639-1.64c-.226-.444-.321-.924-.366-1.47-.043-.531-.043-1.187-.043-2V16a.75.75 0 0 1 1.5 0ZM17.2 3.75H17a.75.75 0 0 1 0-1.5h.232c.813 0 1.469 0 2 .043.546.045 1.026.139 1.47.365.706.36 1.28.934 1.639 1.64.226.444.321.924.366 1.47.043.531.043 1.187.043 2V8a.75.75 0 0 1-1.5 0v-.2c0-.852-.001-1.447-.038-1.909-.037-.454-.107-.715-.207-.912a2.253 2.253 0 0 0-.983-.984c-.198-.1-.459-.17-.912-.207-.463-.038-1.058-.038-1.91-.038ZM22.75 16v.232c0 .813 0 1.469-.043 2-.045.546-.139 1.026-.365 1.47a3.749 3.749 0 0 1-1.64 1.639c-.444.226-.924.321-1.47.366-.531.043-1.187.043-2 .043H17a.75.75 0 0 1 0-1.5h.2c.852 0 1.447-.001 1.909-.038.454-.037.715-.107.913-.207.423-.216.767-.56.983-.983.1-.198.169-.459.207-.912.038-.463.038-1.058.038-1.91V16a.75.75 0 0 1 1.5 0Z"/></svg>