<svg xmlns="http://www.w3.org/2000/svg" viewBox="0 0 24 24"><path fill="#151E28" d="M6.768 3.25h10.465c.813 0 1.469 0 2 .043.546.045 1.026.139 1.47.365.706.36 1.28.934 1.639 1.64.226.444.321.924.366 1.471.028.391.041.782.041 1.174a.708.708 0 0 1 .001.103l.001.72v6.466c0 .813 0 1.469-.043 2-.045.546-.139 1.026-.365 1.47a3.749 3.749 0 0 1-1.64 1.639c-.444.226-.924.321-1.47.366-.531.043-1.187.043-2 .043H12a.75.75 0 0 1 0-1.5h5.199c.853 0 1.448-.001 1.91-.038.454-.037.715-.107.912-.207.424-.216.768-.56.984-.983.1-.198.169-.459.207-.912.038-.463.038-1.058.038-1.91V8.75H2.75v3.45a.75.75 0 0 1-1.5 0V8.768l.001-.717a.853.853 0 0 1 .002-.113c-.001-.39.013-.781.04-1.17.045-.546.139-1.026.365-1.47.36-.706.934-1.28 1.64-1.639.444-.226.924-.321 1.47-.366.531-.043 1.187-.043 2-.043ZM4.47 14.47a.75.75 0 0 1 1.06 0l3 3a.75.75 0 0 1 0 1.06l-3 3a.749.749 0 0 1-1.275-.326.749.749 0 0 1 .215-.734l1.72-1.72H1a.75.75 0 0 1 0-1.5h5.19l-1.72-1.72a.75.75 0 0 1 0-1.06ZM5.25 12a.75.75 0 0 1 .75-.75h3a.75.75 0 0 1 0 1.5H6a.75.75 0 0 1-.75-.75Z"/></svg>