<svg xmlns="http://www.w3.org/2000/svg" viewBox="0 0 24 24"><path fill="#151E28" d="M12 3.25a9.75 9.75 0 0 1 6.573 16.952 1.66 1.66 0 0 1-1.675.325 14.7 14.7 0 0 0-9.796 0 1.66 1.66 0 0 1-1.675-.325A9.726 9.726 0 0 1 2.25 13 9.75 9.75 0 0 1 12 3.25ZM9.25 14a2.751 2.751 0 1 0 3.5-2.646V7a.75.75 0 0 0-1.5 0v4.354a2.75 2.75 0 0 0-2 2.646Zm1.5 0a1.25 1.25 0 1 1 2.5 0 1.25 1.25 0 0 1-2.5 0Zm7.59-6.28a8.3 8.3 0 0 0-1.061-1.06l-.86.86a.749.749 0 0 0 .326 1.275.749.749 0 0 0 .734-.215l.86-.86ZM6.72 6.66a8.3 8.3 0 0 0-1.06 1.061l.86.86a.749.749 0 0 0 1.275-.326.749.749 0 0 0-.215-.734l-.86-.86Zm-2.936 5.59a8.35 8.35 0 0 0 0 1.5H5a.75.75 0 0 0 0-1.5Zm16.432 1.5a8.35 8.35 0 0 0 0-1.5H19a.75.75 0 0 0 0 1.5Z"/></svg>