<svg xmlns="http://www.w3.org/2000/svg" viewBox="0 0 24 24"><path fill="#151E28" d="M13.489 19.241c-.058-.718-.34-1.315-.5-1.627a9.2 9.2 0 0 0-.71-1.137 14.937 14.937 0 0 0-.89-1.115l-.02-.022-.006-.008-.003-.002v-.001h-.001l-1.301 1.17.002.002.004.004.014.017a13.496 13.496 0 0 1 .781.977c.198.276.41.596.574.916.152.296.317.69.317 1.085 0 1.274-1.113 2.25-2.25 2.25s-2.25-.976-2.25-2.25c0-.395.165-.79.317-1.085.165-.32.376-.64.574-.916.244-.338.505-.664.78-.977l.015-.017.004-.004.002-.002.498.447-.555-.5-.744-.669-.5-.449-.001.002-.003.002-.006.008-.02.022a15.409 15.409 0 0 0-.89 1.114c-.224.312-.49.711-.71 1.138-.16.312-.442.909-.5 1.627-.017.249-.01.499.02.746v.007c.032.262.09.515.172.756-2.448-.025-4.453-1.977-4.453-4.417 0-2.15 1.559-3.923 3.605-4.329a4.751 4.751 0 0 1 9.29 0c2.046.406 3.605 2.179 3.605 4.33 0 2.439-2.005 4.39-4.453 4.416.163-.486.228-.999.192-1.51Zm-.725-11.233a.75.75 0 1 1-.528-1.404 5.559 5.559 0 0 1 7.16 7.16.75.75 0 1 1-1.404-.528 4.057 4.057 0 0 0-5.228-5.228Zm-1.405 7.32h-.001a2.498 2.498 0 0 0-3.716 0l.499.449.744.669.058.052a.75.75 0 0 1 1.114 0ZM15.35 3.85a.85.85 0 1 1-1.701-.001.85.85 0 0 1 1.701.001Zm5.8 7.5a.85.85 0 1 1 1.701.001.85.85 0 0 1-1.701-.001Zm-.566-4.724a.85.85 0 1 1-1.216-1.189.85.85 0 0 1 1.216 1.189ZM8.5 5.5a.85.85 0 1 1 1.188 1.217A.85.85 0 0 1 8.5 5.5Zm1 12.684a6.766 6.766 0 0 0-.141.192c-.177.245-.34.498-.458.725-.049.092-.09.188-.124.286a.547.547 0 0 0-.027.113c0 .393.387.75.75.75s.75-.357.75-.75a.532.532 0 0 0-.027-.113 2.009 2.009 0 0 0-.124-.286 5.937 5.937 0 0 0-.458-.725 6.766 6.766 0 0 0-.141-.192Zm.064-1.241.494-.444v-.001l-.494.445Z"/></svg>