<svg xmlns="http://www.w3.org/2000/svg" viewBox="0 0 24 24"><path fill="#151E28" d="M8.17 7.25h7.661c.535 0 .98 0 1.345.03.38.03.736.098 1.074.27a2.75 2.75 0 0 1 1.2 1.202c.172.337.24.693.27 1.073.03.365.03.81.03 1.345v1.66c0 .535 0 .98-.03 1.345-.03.38-.098.736-.27 1.074a2.752 2.752 0 0 1-1.202 1.201c-.337.172-.693.24-1.073.27-.365.03-.81.03-1.345.03H8.169c-.534 0-.979 0-1.344-.03-.38-.03-.736-.098-1.073-.27a2.749 2.749 0 0 1-1.202-1.202c-.172-.337-.24-.693-.27-1.073-.03-.365-.03-.81-.03-1.345v-1.66c0-.535 0-.98.03-1.345.03-.38.098-.736.27-1.073A2.749 2.749 0 0 1 5.752 7.55c.337-.172.693-.24 1.073-.27.365-.03.81-.03 1.345-.03ZM2.25 3A.75.75 0 0 1 3 2.25h18a.75.75 0 0 1 0 1.5H3A.75.75 0 0 1 2.25 3ZM3 20.25h18a.75.75 0 0 1 0 1.5H3a.75.75 0 0 1 0-1.5Z"/></svg>