<svg xmlns="http://www.w3.org/2000/svg" viewBox="0 0 24 24"><path fill="#151E28" d="M9.325 2.25h5.422c.419 0 .748 0 1.067.076.28.068.548.179.794.33.28.17.513.404.808.7l.052.051 3.126 3.125.05.052c.297.296.53.528.7.808.151.246.262.514.33.795.076.318.076.647.076 1.066v5.494c0 .419 0 .748-.076 1.067a2.687 2.687 0 0 1-.33.794c-.17.28-.403.513-.7.808l-.051.052-3.125 3.126-.052.05c-.295.297-.528.53-.808.7a2.687 2.687 0 0 1-.794.33c-.319.076-.648.076-1.067.076H9.253c-.419 0-.748 0-1.066-.076a2.704 2.704 0 0 1-.795-.33c-.28-.17-.512-.403-.808-.7l-.052-.051-3.125-3.125-.051-.052c-.296-.295-.53-.528-.7-.808a2.737 2.737 0 0 1-.33-.794c-.076-.319-.076-.648-.076-1.067V9.253c0-.419 0-.748.076-1.066.068-.281.179-.549.33-.795.17-.28.404-.512.7-.808l.051-.052 3.125-3.125.052-.051c.296-.296.528-.53.808-.7.246-.151.514-.262.795-.33.318-.076.647-.076 1.066-.076h.072Zm3.425 4.211a.75.75 0 0 0-1.5 0v.504c-.623.042-1.238.15-1.752.398-.377.183-.721.45-.966.836-.246.387-.36.84-.36 1.34 0 .986.636 1.645 1.296 2.085.521.347 1.165.63 1.782.883v2.986a3.112 3.112 0 0 1-1.04-.37c-.437-.261-.537-.518-.537-.661a.75.75 0 0 0-1.5 0c0 .876.588 1.542 1.265 1.948.509.305 1.134.512 1.812.6v.528a.75.75 0 0 0 1.5 0v-.503c.623-.041 1.238-.15 1.752-.398.377-.182.72-.45.966-.836.246-.387.359-.84.359-1.34 0-.986-.635-1.645-1.296-2.085-.52-.347-1.164-.63-1.781-.883V8.508c.414.074.77.206 1.04.368.436.262.537.52.537.663a.75.75 0 0 0 1.5 0c0-.877-.589-1.543-1.266-1.949-.508-.305-1.133-.512-1.811-.6Zm-2.6 2.253c.265-.128.633-.207 1.1-.245v2.408a6.426 6.426 0 0 1-.95-.501c-.493-.329-.627-.593-.627-.837 0-.27.059-.432.125-.536a.81.81 0 0 1 .352-.29Zm2.6 6.817v-2.408c.362.161.683.323.95.501.492.329.627.593.627.838 0 .27-.06.431-.125.535a.819.819 0 0 1-.353.29c-.264.127-.632.206-1.099.244Z"/></svg>