<svg xmlns="http://www.w3.org/2000/svg" viewBox="0 0 24 24"><path fill="#151E28" d="M13.117 2.479c.485.216.844.614 1.168 1.071.321.455.676 1.067 1.114 1.825l.019.033 5.45 9.413.02.033c.44.76.796 1.375 1.03 1.881.236.51.403 1.021.348 1.55a2.75 2.75 0 0 1-1.118 1.939c-.43.313-.955.424-1.515.475-.555.051-1.267.051-2.145.051H6.512c-.878 0-1.589 0-2.145-.051-.559-.051-1.085-.162-1.515-.475a2.749 2.749 0 0 1-1.119-1.938c-.054-.53.113-1.04.35-1.55.233-.507.59-1.122 1.03-1.882l.018-.033 5.45-9.413.02-.033c.438-.757.793-1.371 1.115-1.825.323-.457.682-.855 1.167-1.071a2.75 2.75 0 0 1 2.234 0ZM12.75 9a.75.75 0 0 0-1.5 0v.29c-.35.042-.7.125-1.01.285a1.787 1.787 0 0 0-.728.675c-.18.315-.27.673-.262 1.036 0 .775.471 1.293.94 1.628.317.227.697.415 1.06.578v1.629a1.39 1.39 0 0 1-.259-.129c-.232-.149-.241-.264-.241-.278a.75.75 0 0 0-1.5 0c0 .697.438 1.224.93 1.54.31.2.676.342 1.07.422V17a.75.75 0 0 0 1.5 0v-.29c.35-.042.7-.125 1.01-.285.283-.147.544-.364.728-.675.183-.31.262-.662.262-1.036 0-.775-.471-1.293-.94-1.628-.317-.227-.697-.415-1.06-.578V10.88c.091.034.177.077.259.129.232.149.241.264.241.278a.75.75 0 0 0 1.5 0c0-.697-.438-1.224-.93-1.54-.31-.2-.676-.342-1.07-.422Zm0 5.184c.068.04.13.081.19.123.281.201.31.325.31.407 0 .162-.033.238-.052.27a.292.292 0 0 1-.129.109 1.15 1.15 0 0 1-.319.1v-1.009Zm-1.82-3.277c.08-.041.185-.075.32-.1v1.008a2.917 2.917 0 0 1-.19-.122c-.281-.201-.31-.325-.31-.407 0-.162.033-.238.052-.27a.292.292 0 0 1 .129-.109Z"/></svg>