<svg xmlns="http://www.w3.org/2000/svg" viewBox="0 0 24 24"><path fill="#151E28" d="M8.367 3.25h7.266c1.092 0 1.958 0 2.655.057.714.058 1.317.18 1.869.461a4.744 4.744 0 0 1 2.076 2.076c.28.551.402 1.154.46 1.868.057.697.057 1.563.057 2.655v3.266c0 1.092 0 1.958-.057 2.655-.058.714-.18 1.317-.461 1.869a4.752 4.752 0 0 1-2.075 2.076c-.552.28-1.155.402-1.869.46-.697.057-1.563.057-2.655.057H8.367c-1.092 0-1.958 0-2.655-.057-.714-.058-1.318-.18-1.868-.461a4.75 4.75 0 0 1-2.077-2.075c-.28-.552-.402-1.155-.46-1.869-.057-.697-.057-1.563-.057-2.655v-3.266c0-1.092 0-1.958.057-2.655.058-.714.18-1.318.461-1.868a4.752 4.752 0 0 1 2.076-2.077c.551-.28 1.154-.402 1.868-.46.697-.057 1.563-.057 2.655-.057ZM4.39 8.564a.75.75 0 0 0 .174 1.046l3.28 2.343.132.095c1.211.865 1.988 1.42 2.858 1.64a4.745 4.745 0 0 0 2.332 0c.869-.22 1.648-.775 2.858-1.64l.132-.095 3.28-2.343a.75.75 0 1 0-.872-1.22l-3.28 2.343c-1.39.992-1.926 1.36-2.486 1.502a3.242 3.242 0 0 1-1.596 0c-.56-.142-1.096-.51-2.486-1.502L5.436 8.39a.75.75 0 0 0-1.046.174Z"/></svg>