<svg xmlns="http://www.w3.org/2000/svg" viewBox="0 0 24 24"><path fill="#151E28" d="M13.117 2.479c.485.216.844.614 1.168 1.071.321.455.676 1.067 1.114 1.825l.019.033 5.45 9.413.02.033c.44.76.796 1.375 1.03 1.881.236.51.403 1.021.348 1.55a2.75 2.75 0 0 1-1.118 1.939c-.43.313-.955.424-1.515.475-.555.051-1.267.051-2.145.051H6.512c-.878 0-1.589 0-2.145-.051-.559-.051-1.085-.162-1.515-.475a2.749 2.749 0 0 1-1.119-1.938c-.054-.53.113-1.04.35-1.55.233-.507.59-1.122 1.03-1.882l.018-.033 5.45-9.413.02-.033c.438-.757.793-1.371 1.115-1.825.323-.457.682-.855 1.167-1.071a2.75 2.75 0 0 1 2.234 0ZM7.75 15c0 .414.336.75.75.75h.854c.59 1.176 1.757 2 3.146 2 1.144 0 2.149-.568 2.792-1.425a.75.75 0 0 0-1.2-.9c-.386.515-.962.825-1.592.825-.478 0-.931-.184-1.291-.5h.291a.75.75 0 0 0 0-1.5h-1.045a2.61 2.61 0 0 1 0-.5H12.5a.75.75 0 0 0 0-1.5h-1.291a1.96 1.96 0 0 1 1.291-.5c.63 0 1.206.31 1.592.825a.75.75 0 0 0 1.2-.9c-.642-.857-1.648-1.425-2.792-1.425-1.389 0-2.556.824-3.146 2H8.5a.75.75 0 0 0 0 1.5h.45a3.792 3.792 0 0 0 0 .5H8.5a.75.75 0 0 0-.75.75Z"/></svg>