<svg xmlns="http://www.w3.org/2000/svg" viewBox="0 0 24 24"><path fill="#151E28" d="M12 2.25A9.75 9.75 0 0 1 21.75 12 9.75 9.75 0 0 1 12 21.75 9.75 9.75 0 0 1 2.25 12 9.75 9.75 0 0 1 12 2.25ZM9.049 13c-.581 0-.871 0-1.14.207-.195.148-.38.504-.391.749-.015.338.111.519.362.879l.003.004C8.618 15.889 9.893 17 12 17c2.108 0 3.382-1.11 4.117-2.161l.003-.004c.251-.36.377-.541.362-.879-.01-.245-.196-.6-.39-.75-.27-.206-.56-.206-1.141-.206H9.049ZM10 9a1 1 0 1 0-2 0 1 1 0 0 0 2 0Zm5 1a1 1 0 1 0 0-2 1 1 0 0 0 0 2Z"/></svg>