<svg xmlns="http://www.w3.org/2000/svg" viewBox="0 0 24 24"><path fill="#151E28" d="M12 2.25A9.75 9.75 0 0 1 21.75 12 9.75 9.75 0 0 1 12 21.75 9.75 9.75 0 0 1 2.25 12 9.75 9.75 0 0 1 12 2.25ZM8.725 16.193v.001a1.17 1.17 0 0 1 .067-.149c.102-.183.236-.347.394-.485.403-.358 1.216-.81 2.814-.81s2.411.452 2.814.811c.158.137.292.301.394.484.023.043.044.087.061.133a.752.752 0 1 0 1.459-.36L16 16c.727-.182.727-.182.727-.184l-.001-.003-.001-.006-.004-.014a2.534 2.534 0 0 0-.194-.463 3.288 3.288 0 0 0-.717-.89c-.721-.642-1.908-1.19-3.81-1.19-1.902 0-3.089.548-3.811 1.189a3.325 3.325 0 0 0-.716.892 2.645 2.645 0 0 0-.194.462l-.004.014-.002.006v.004l.113.029L8 16l-.614-.154-.113-.028a.75.75 0 0 0 1.45.379v.001l.001-.002v-.003l.002-.002-.001.002ZM16 9a1 1 0 1 0-2 0 1 1 0 0 0 2 0Zm-7 1a1 1 0 1 0 0-2 1 1 0 0 0 0 2Zm-.273 6.184-.001.002Zm-.001.007v-.002.002Zm-.001.004v-.001l-.001.002v.001-.001l.001-.001Z"/></svg>