<svg xmlns="http://www.w3.org/2000/svg" viewBox="0 0 24 24"><path fill="#151E28" d="M19.75 8.975v7.257c0 .813 0 1.469-.043 2-.045.546-.139 1.026-.365 1.47a3.749 3.749 0 0 1-1.64 1.639c-.444.226-.924.321-1.47.366-.531.043-1.187.043-2 .043H9.768c-.813 0-1.469 0-2-.043-.546-.045-1.026-.139-1.47-.365a3.749 3.749 0 0 1-1.639-1.64c-.226-.444-.321-.924-.366-1.47-.043-.531-.043-1.187-.043-2V7.768c0-.813 0-1.469.043-2 .045-.546.139-1.026.365-1.47.36-.706.934-1.28 1.64-1.639.444-.226.924-.321 1.47-.366.531-.043 1.187-.043 2-.043h3.293a2.75 2.75 0 0 1 1.891.654c.093.081.182.166.268.255l.017.018 3.586 3.586.018.017c.102.102.182.182.255.268.372.439.598.983.644 1.557.01.112.01.226.01.37ZM8.273 11.403v.001c-.034.037-.069.08-.115.135l-.009.01-.008.01a2.75 2.75 0 0 0 .173 3.815l.009.01 3.147 3.146a.75.75 0 0 0 1.06 0l3.146-3.146.01-.009a2.75 2.75 0 0 0 .282-3.682c-.03-.039-.065-.08-.109-.134l-.008-.01-.009-.01a2.75 2.75 0 0 0-3.731-.558l-.111.082a2.75 2.75 0 0 0-3.727.34Zm2.76.81v.001l.11.082.407.305c.267.2.633.2.9 0l.407-.305.11-.082a1.25 1.25 0 0 1 1.643.192c.059.067.117.136.172.207a1.25 1.25 0 0 1-.073 1.617c-.013.014-.03.032-.093.094L12 16.94l-2.616-2.617a2.762 2.762 0 0 1-.093-.094 1.25 1.25 0 0 1-.073-1.617c.055-.071.113-.14.172-.207a1.25 1.25 0 0 1 1.643-.192ZM13.75 5.8c0 .573.001.957.025 1.253.023.287.065.424.111.514.12.235.311.427.546.547.091.046.228.088.516.111.295.025.68.025 1.252.025h1.908a1.314 1.314 0 0 0-.155-.231 5.034 5.034 0 0 0-.19-.196l-3.586-3.586a4.074 4.074 0 0 0-.197-.19 1.236 1.236 0 0 0-.23-.155Z"/></svg>