<svg xmlns="http://www.w3.org/2000/svg" viewBox="0 0 24 24"><path fill="#151E28" d="M13.025 2.25c.144 0 .258 0 .37.01a2.748 2.748 0 0 1 1.557.644c.085.073.166.153.268.255l.017.018 3.586 3.586.018.017c.102.102.182.182.255.268a2.75 2.75 0 0 1 .654 1.891v3.311H21a.75.75 0 0 1 0 1.5H3a.75.75 0 0 1 0-1.5h1.25V7.768c0-.813 0-1.469.043-2 .045-.546.14-1.026.366-1.47a3.749 3.749 0 0 1 1.639-1.64c.444-.226.924-.32 1.47-.365.531-.043 1.187-.043 2-.043h3.257ZM7 15.25a.75.75 0 0 1 .75.75v2A3.75 3.75 0 0 1 4 21.75a.75.75 0 0 1 0-1.5A2.25 2.25 0 0 0 6.25 18v-2a.75.75 0 0 1 .75-.75Zm10.75.75v2A2.25 2.25 0 0 0 20 20.25a.75.75 0 0 1 0 1.5A3.75 3.75 0 0 1 16.25 18v-2a.75.75 0 0 1 1.5 0Zm.358-7.75a1.27 1.27 0 0 0-.155-.23 3.533 3.533 0 0 0-.19-.197l-3.586-3.586a3.514 3.514 0 0 0-.196-.19 1.244 1.244 0 0 0-.231-.155V5.8c0 .572 0 .957.025 1.253.023.287.065.424.111.514.12.236.311.427.546.547.091.046.228.088.515.111.296.024.68.025 1.253.025Zm-6.108 7a.75.75 0 0 1 .75.75v5a.75.75 0 0 1-1.5 0v-5a.75.75 0 0 1 .75-.75Z"/></svg>