<svg xmlns="http://www.w3.org/2000/svg" viewBox="0 0 24 24"><path fill="#151E28" d="M19.75 8.975V12a.75.75 0 0 1-1.5 0V9.75H15A2.74 2.74 0 0 1 13.112 9a2.743 2.743 0 0 1-.862-2V3.75H11a.75.75 0 0 1 0-1.5h2.061a2.75 2.75 0 0 1 1.891.654c.093.081.182.166.268.255l.017.018 3.586 3.586.018.017c.102.102.182.182.255.268.372.439.598.983.644 1.557.01.112.01.226.01.37ZM5.75 6a.75.75 0 0 1-1.5 0A3.75 3.75 0 0 1 8 2.25a.75.75 0 0 1 0 1.5A2.25 2.25 0 0 0 5.75 6Zm11.5 15.536a3.734 3.734 0 0 1-1.25.214h-3a.75.75 0 0 1 0-1.5h3c.255 0 .509-.043.75-.128a.751.751 0 1 1 .5 1.414ZM6.876 19.95c.33.19.713.3 1.124.3h2a.75.75 0 0 1 0 1.5H8a3.734 3.734 0 0 1-1.876-.502.75.75 0 0 1 .752-1.298ZM5.75 9v3a.75.75 0 0 1-1.5 0V9a.75.75 0 0 1 1.5 0Zm0 6v3a.75.75 0 0 1-1.5 0v-3a.75.75 0 0 1 1.5 0Zm14 0v3a.75.75 0 0 1-1.5 0v-3a.75.75 0 0 1 1.5 0Z"/></svg>