<svg xmlns="http://www.w3.org/2000/svg" viewBox="0 0 24 24"><path fill="#151E28" d="m2.53 1.47 20 20a.75.75 0 1 1-1.061 1.061l-2.39-2.39c-.353.507-.826.92-1.377 1.2-.444.226-.924.321-1.47.366-.531.043-1.187.043-2 .043H9.768c-.813 0-1.469 0-2-.043-.546-.045-1.026-.139-1.47-.365a3.749 3.749 0 0 1-1.639-1.64c-.226-.444-.321-.924-.366-1.47-.043-.531-.043-1.187-.043-2V7.74c0-.984 0-1.744.084-2.344v-.001L1.47 2.53a.751.751 0 0 1 .018-1.042.751.751 0 0 1 1.042-.018Zm7.267.78h3.264a2.75 2.75 0 0 1 1.891.654c.093.081.182.166.268.255l.017.018 3.586 3.586.018.017c.102.102.182.182.255.268.372.439.598.983.644 1.557.01.112.01.226.01.37V15a.75.75 0 0 1-1.5 0V9.75h-2.081c-.535 0-.98 0-1.345-.03-.38-.03-.736-.098-1.074-.27a2.75 2.75 0 0 1-1.2-1.202c-.172-.337-.24-.693-.27-1.073-.03-.365-.03-.81-.03-1.345V3.75H9.8c-.293 0-1.555 0-1.795.002a.75.75 0 0 1-.01-1.5c.246-.002 1.508-.002 1.802-.002Zm8.156 5.77v-.001a5.034 5.034 0 0 0-.19-.196l-3.586-3.586a4.074 4.074 0 0 0-.197-.19 1.236 1.236 0 0 0-.23-.155V5.8c0 .573.001.957.025 1.253.023.287.065.424.111.514.12.235.311.427.546.547.091.046.228.088.516.111.295.025.68.025 1.252.025h1.908a1.236 1.236 0 0 0-.155-.23Z"/></svg>