<svg xmlns="http://www.w3.org/2000/svg" viewBox="0 0 24 24"><path fill="#151E28" d="M8.146 3.25h7.708c1.105 0 1.986 0 2.658.061.661.059 1.285.186 1.75.57a2.75 2.75 0 0 1 .995 2.234c-.025.602-.349 1.152-.747 1.682-.404.54-.993 1.195-1.733 2.016l-.026.03-2.907 3.23a7.948 7.948 0 0 0-.45.52 3.248 3.248 0 0 0-.63 1.642 8.015 8.015 0 0 0-.014.687v2.842c0 2.044-2.151 3.374-3.98 2.46a2.75 2.75 0 0 1-1.52-2.46v-2.308c0-.941-.004-1.298-.078-1.63a3.276 3.276 0 0 0-.34-.886c-.167-.296-.403-.564-1.033-1.264l-2.55-2.833-.026-.03c-.739-.821-1.328-1.476-1.733-2.016-.398-.531-.721-1.08-.747-1.682a2.75 2.75 0 0 1 .995-2.234c.465-.384 1.09-.511 1.75-.571.672-.06 1.553-.06 2.658-.06Z"/></svg>