<svg xmlns="http://www.w3.org/2000/svg" viewBox="0 0 24 24"><path fill="#151E28" d="M12 1.25A7.75 7.75 0 0 1 19.75 9v10.878c0 .543-.333.943-.745 1.115a1.366 1.366 0 0 1-1.224-.1 1.251 1.251 0 0 0-1.387.063c-.104.076-.223.21-.628.697l-.69.827a.75.75 0 0 1-1.153 0l-.04-.05c-.432-.517-.724-.867-.97-1.114-.241-.243-.381-.328-.484-.366a1.253 1.253 0 0 0-.858 0c-.103.038-.243.123-.483.366-.247.247-.54.597-.97 1.114l-.042.05a.75.75 0 0 1-1.152 0l-.689-.827c-.406-.487-.525-.621-.629-.697a1.25 1.25 0 0 0-1.386-.064 1.362 1.362 0 0 1-1.225.1 1.191 1.191 0 0 1-.745-1.114V9A7.75 7.75 0 0 1 12 1.25Zm-3 7a.75.75 0 0 0-.75.75v2a.75.75 0 0 0 1.5 0V9A.75.75 0 0 0 9 8.25Zm6 0a.75.75 0 0 0-.75.75v2a.75.75 0 0 0 1.5 0V9a.75.75 0 0 0-.75-.75Z"/></svg>