<svg xmlns="http://www.w3.org/2000/svg" viewBox="0 0 24 24"><path fill="#151E28" d="M2.25 12A9.75 9.75 0 0 1 12 2.25 9.75 9.75 0 0 1 21.75 12 9.75 9.75 0 0 1 12 21.75 9.75 9.75 0 0 1 2.25 12Zm18 0a8.252 8.252 0 0 0-5.379-7.737 3.747 3.747 0 0 1-1.29 2.928c-.057.05-.12.1-.21.172l-.012.01-.144.115a3.475 3.475 0 0 1-2.171.762c-.695 0-1.339.364-1.696.96l-.04.067A1.75 1.75 0 0 1 10.75 11c0 .138.112.25.25.25h1c.081 0 .161.013.238.039l1.62.54.06.02c.455.152.771.256 1.063.416.259.141.5.311.719.508.246.222.451.485.746.864l.039.05 2.3 2.958.018.023A8.207 8.207 0 0 0 20.25 12Zm-16.5 0a8.255 8.255 0 0 0 5.707 7.85c.009-.031.02-.062.032-.093l.506-1.264a.51.51 0 0 0-.113-.55l-.277-.277a2.602 2.602 0 0 1-.24-3.401l1.18-1.575A1.75 1.75 0 0 1 9.25 11a.25.25 0 0 0-.25-.25H8a.75.75 0 0 1-.671-.415l-1.755-3.51A8.215 8.215 0 0 0 3.75 12Z"/></svg>