<svg xmlns="http://www.w3.org/2000/svg" viewBox="0 0 24 24"><path fill="#151E28" d="M4 5.25h2c.966 0 1.75.784 1.75 1.75v2A1.75 1.75 0 0 1 6 10.75H4A1.75 1.75 0 0 1 2.25 9V7c0-.966.784-1.75 1.75-1.75Zm0 8h2c.966 0 1.75.784 1.75 1.75v2A1.75 1.75 0 0 1 6 18.75H4A1.75 1.75 0 0 1 2.25 17v-2c0-.966.784-1.75 1.75-1.75Zm7 0h2c.966 0 1.75.784 1.75 1.75v2A1.75 1.75 0 0 1 13 18.75h-2A1.75 1.75 0 0 1 9.25 17v-2c0-.966.784-1.75 1.75-1.75Zm7 0h2c.966 0 1.75.784 1.75 1.75v2A1.75 1.75 0 0 1 20 18.75h-2A1.75 1.75 0 0 1 16.25 17v-2c0-.966.784-1.75 1.75-1.75ZM9.25 7c0-.966.784-1.75 1.75-1.75h2c.966 0 1.75.784 1.75 1.75v2A1.75 1.75 0 0 1 13 10.75h-2A1.75 1.75 0 0 1 9.25 9Zm7 0c0-.966.784-1.75 1.75-1.75h2c.966 0 1.75.784 1.75 1.75v2A1.75 1.75 0 0 1 20 10.75h-2A1.75 1.75 0 0 1 16.25 9Z"/></svg>