<svg xmlns="http://www.w3.org/2000/svg" viewBox="0 0 24 24"><path fill="#151E28" d="M16.558 11.266v.001A2.75 2.75 0 0 0 20 12.563v2.013a5.85 5.85 0 0 1-1.715 4.138A4.39 4.39 0 0 0 17 21.818a.182.182 0 0 1-.182.182H7a4.848 4.848 0 0 0-1.42-3.42 6.514 6.514 0 0 1-1.856-3.79l-.066-.52a4.698 4.698 0 0 1 .083-1.642c.201-.716.835-1.431 1.74-1.99.918-.566 1.987-.888 2.83-.888h2.834a1.103 1.103 0 0 1 .494 2.092L8.664 13.33a.75.75 0 0 0 .35 1.42A2.25 2.25 0 0 1 11.25 17a.75.75 0 0 0 1.5 0 3.748 3.748 0 0 0-1.74-3.167l1.3-.65c.702-.351 1.208-1 1.378-1.766.39.213.837.333 1.312.333.556.001 1.1-.168 1.558-.484ZM13.75 9V4a1.25 1.25 0 0 1 2.5 0v5a1.25 1.25 0 0 1-2.5 0Zm-4-.75V3a1.25 1.25 0 0 1 2.5 0v5.495a2.599 2.599 0 0 0-1.105-.245H9.75Zm-4 .567V4a1.25 1.25 0 0 1 2.5 0v4.25c-.801.01-1.676.217-2.5.567ZM19 5.75c.69 0 1.25.56 1.25 1.25v3a1.25 1.25 0 0 1-2.5 0V7c0-.69.56-1.25 1.25-1.25Z"/></svg>