<svg xmlns="http://www.w3.org/2000/svg" viewBox="0 0 24 24"><path fill="#151E28" d="M12 2.25A9.75 9.75 0 0 1 21.75 12 9.75 9.75 0 0 1 12 21.75 9.75 9.75 0 0 1 2.25 12 9.75 9.75 0 0 1 12 2.25Zm-.272 5.932a.75.75 0 1 0-1.456-.364L9.914 9.25H8.5a.75.75 0 0 0 0 1.5h1.04l-.626 2.5H7.5a.75.75 0 0 0 0 1.5h1.04l-.268 1.068a.75.75 0 1 0 1.456.364l.358-1.432h2.453l-.267 1.068a.75.75 0 1 0 1.456.364l.358-1.432H15.5a.75.75 0 0 0 0-1.5h-1.04l.626-2.5H16.5a.75.75 0 0 0 0-1.5h-1.04l.268-1.068a.75.75 0 1 0-1.456-.364l-.358 1.432h-2.453Zm-.642 2.568h2.453l-.625 2.5h-2.453Z"/></svg>