<svg xmlns="http://www.w3.org/2000/svg" viewBox="0 0 24 24"><path fill="#151E28" d="M10.819 1.25h2.362c1.615-.001 2.651-.001 3.536.371a4.745 4.745 0 0 1 1.962 1.532c.575.768.827 1.774 1.217 3.34l.044.173 1.788 7.152a.76.76 0 0 1 .022.196v1.619c0 1.092 0 1.958-.057 2.655-.058.714-.18 1.317-.461 1.869a4.752 4.752 0 0 1-2.075 2.076c-.552.28-1.155.402-1.869.46-.697.057-1.563.057-2.655.057H9.367c-1.092 0-1.958 0-2.655-.057-.714-.058-1.318-.18-1.868-.461a4.75 4.75 0 0 1-2.077-2.075c-.28-.552-.402-1.155-.46-1.869-.057-.697-.057-1.563-.057-2.655v-1.605a.743.743 0 0 1 .022-.21L4.06 6.666l.044-.173c.391-1.566.642-2.572 1.217-3.34A4.747 4.747 0 0 1 7.283 1.62c.885-.37 1.921-.37 3.536-.37ZM7.864 3.004a3.25 3.25 0 0 0-1.342 1.048c-.371.495-.556 1.177-1.006 2.978l-1.555 6.22h16.078l-1.555-6.22c-.45-1.801-.636-2.483-1.006-2.978a3.25 3.25 0 0 0-1.342-1.048c-.57-.24-1.277-.254-3.133-.254h-2.006c-1.856 0-2.563.014-3.133.254ZM10.25 18c0 .414.336.75.75.75h6a.75.75 0 0 0 0-1.5h-6a.75.75 0 0 0-.75.75ZM7 19a1 1 0 1 0 0-2 1 1 0 0 0 0 2Z"/></svg>