<svg xmlns="http://www.w3.org/2000/svg" viewBox="0 0 24 24"><path fill="#151E28" d="m2.53 1.47 20 20a.749.749 0 0 1-.326 1.275.749.749 0 0 1-.734-.215l-5.014-5.014-3.245 3.317c-.664.68-1.757.68-2.422 0l-7.099-7.26a5.467 5.467 0 0 1 .626-8.197L1.47 2.53a.751.751 0 0 1 .018-1.042.751.751 0 0 1 1.042-.018Zm16.708 5.505a3.969 3.969 0 0 0-5.676 0l-1.026 1.05a.75.75 0 0 1-1.072 0l-1.026-1.05a3.99 3.99 0 0 0-.82-.644.75.75 0 1 1 .764-1.292c.405.24.785.536 1.129.887l.49.501.489-.5a5.47 5.47 0 1 1 7.82 7.646l-.774.793a.75.75 0 0 1-1.073-1.05l.775-.791a3.97 3.97 0 0 0 0-5.55Z"/></svg>