<svg xmlns="http://www.w3.org/2000/svg" viewBox="0 0 24 24"><path fill="#151E28" d="M9.4 3.75c-1.132 0-1.937 0-2.566.052-.62.05-1.005.147-1.31.302a3.258 3.258 0 0 0-1.42 1.42c-.155.305-.251.69-.302 1.31-.051.63-.052 1.434-.052 2.566v5.2c0 1.117 0 1.914.05 2.54l3.253-3.253.005-.005v-.001a2.75 2.75 0 0 1 3.884 0l.005.005.005.005a1.25 1.25 0 0 0 1.857-.102l.004-.006.4-.5.072-.09c.371-.464.653-.817.959-1.038a2.75 2.75 0 0 1 3.406.148c.286.247.536.622.865 1.117l.064.096 1.665 2.498c.006-.408.006-.873.006-1.414V12a.75.75 0 0 1 1.5 0v2.633c0 1.092 0 1.958-.057 2.655a6.406 6.406 0 0 1-.167 1.076l-.004.017c-.07.274-.165.53-.29.776a4.75 4.75 0 0 1-2.075 2.075c-.552.281-1.155.403-1.869.461-.697.057-1.563.057-2.655.057H9.367c-1.092 0-1.957 0-2.655-.057a5.895 5.895 0 0 1-1.337-.242 3.662 3.662 0 0 1-.531-.219 4.752 4.752 0 0 1-2.076-2.075c-.281-.552-.403-1.155-.461-1.869-.057-.697-.057-1.563-.057-2.655V9.367c0-1.092 0-1.958.057-2.655.058-.714.18-1.317.46-1.868a4.752 4.752 0 0 1 2.077-2.076c.55-.281 1.154-.403 1.868-.461.697-.057 1.563-.057 2.655-.057H12a.75.75 0 0 1 0 1.5Zm-.7 2.5h.6a2.45 2.45 0 0 1 2.45 2.45v.6a2.45 2.45 0 0 1-2.45 2.45h-.6A2.45 2.45 0 0 1 6.25 9.3v-.6A2.45 2.45 0 0 1 8.7 6.25Zm6.27.72a.75.75 0 0 1 1.06 0l1.22 1.22V3a.75.75 0 0 1 1.5 0v5.19l1.22-1.22a.749.749 0 0 1 1.275.326.749.749 0 0 1-.215.734l-2.5 2.5a.747.747 0 0 1-1.06 0l-2.5-2.5a.75.75 0 0 1 0-1.06ZM7.75 8.7v.6c0 .525.425.95.95.95h.6a.95.95 0 0 0 .95-.95v-.6a.95.95 0 0 0-.95-.95h-.6a.95.95 0 0 0-.95.95Z"/></svg>