<svg xmlns="http://www.w3.org/2000/svg" viewBox="0 0 24 24"><path fill="#151E28" d="m2.53 1.47 20 20a.749.749 0 0 1-.326 1.275.749.749 0 0 1-.734-.215l-1.683-1.683c-.2.144-.41.273-.63.386-.552.28-1.155.402-1.869.46-.697.057-1.563.057-2.655.057H9.367c-1.092 0-1.958 0-2.655-.057-.714-.058-1.318-.18-1.868-.461a4.75 4.75 0 0 1-2.077-2.075c-.28-.552-.402-1.155-.46-1.869-.057-.697-.057-1.563-.057-2.655V9.367c0-1.092 0-1.958.057-2.655.058-.714.18-1.318.461-1.868.112-.22.241-.43.385-.63L1.47 2.53a.751.751 0 0 1 .018-1.042.751.751 0 0 1 1.042-.018Zm14.636 2.332c-.63-.051-1.434-.052-2.566-.052H8a.75.75 0 0 1 0-1.5h6.633c1.092 0 1.958 0 2.655.057.714.058 1.317.18 1.869.46a4.75 4.75 0 0 1 2.075 2.077c.281.55.403 1.154.461 1.868.057.697.057 1.563.057 2.655V16a.75.75 0 0 1-1.5 0V9.4c0-1.132 0-1.937-.052-2.566-.05-.62-.147-1.005-.302-1.31a3.258 3.258 0 0 0-1.42-1.42c-.305-.155-.69-.251-1.31-.302Zm-4.394 10.03-2.353-2.352c-.346.178-.73.271-1.119.27h-.6A2.45 2.45 0 0 1 6.25 9.3v-.6c0-.403.098-.784.27-1.12L4.234 5.295c-.046.075-.09.152-.13.23-.155.305-.251.69-.302 1.31-.051.63-.052 1.434-.052 2.566v5.2c0 1.117 0 1.914.05 2.54l3.253-3.253.005-.006a2.75 2.75 0 0 1 3.884 0l.005.006.005.004a1.252 1.252 0 0 0 1.82-.059ZM7.75 9.3c0 .525.425.95.95.95h.49L7.75 8.81v.49Z"/></svg>