<svg xmlns="http://www.w3.org/2000/svg" viewBox="0 0 24 24"><path fill="#151E28" d="M16.139 3.25h.01c.752 0 1.342 0 1.854.215.451.189.844.495 1.137.887.334.446.477 1.022.66 1.757l.034.133 1.36 5.442.008.033c.145.58.228.912.285 1.25a8.73 8.73 0 0 1 .104 2.01c-.022.342-.07.681-.155 1.273l-.005.034-.019.132c-.168 1.182-.276 1.938-.565 2.567a4.752 4.752 0 0 1-2.964 2.57c-.663.197-1.427.197-2.62.197H8.736c-1.193 0-1.957 0-2.62-.197a4.752 4.752 0 0 1-2.964-2.57c-.29-.63-.397-1.385-.566-2.567l-.018-.132-.005-.034c-.085-.592-.133-.931-.155-1.273a8.73 8.73 0 0 1 .104-2.01c.056-.338.14-.67.285-1.25l.008-.034 1.36-5.441.033-.133c.183-.735.327-1.31.661-1.757a2.748 2.748 0 0 1 1.136-.887c.515-.216 1.108-.216 1.865-.215h8.279Zm-8.141 1.5c-.963 0-1.223.014-1.42.098a1.248 1.248 0 0 0-.517.403c-.129.172-.206.42-.44 1.355l-1.36 5.441c-.156.623-.223.896-.27 1.169l-.005.034h2.395c.535 0 .955 0 1.348.119.346.105.668.277.947.506.317.261.55.611.846 1.056l.052.078.1.15c.373.56.48.705.603.807.127.104.273.182.43.23.153.046.333.054 1.006.054h.575c.672 0 .853-.008 1.005-.054a1.26 1.26 0 0 0 .43-.23c.124-.102.23-.247.603-.807l.1-.15.052-.078c.296-.445.529-.795.846-1.056.28-.23.601-.401.947-.506.394-.12.814-.12 1.348-.12h2.394l-.005-.033c-.046-.273-.114-.546-.27-1.169l-1.36-5.441c-.233-.935-.31-1.183-.44-1.355a1.248 1.248 0 0 0-.515-.403c-.199-.084-.459-.098-1.422-.098Z"/></svg>