<svg xmlns="http://www.w3.org/2000/svg" viewBox="0 0 24 24"><path fill="#151E28" d="M5.17 2.25h13.66c.535 0 .98 0 1.345.03.38.03.736.098 1.073.27.518.264.938.684 1.202 1.202.172.337.24.693.27 1.073.03.365.03.81.03 1.345v5.66c0 .535 0 .98-.03 1.345-.03.38-.098.736-.27 1.073a2.752 2.752 0 0 1-1.201 1.202c-.338.172-.694.24-1.074.27-.364.03-.81.03-1.345.03H5.17c-.535 0-.98 0-1.345-.03-.38-.03-.736-.098-1.073-.27a2.75 2.75 0 0 1-1.202-1.2c-.172-.338-.24-.694-.27-1.074-.03-.365-.03-.81-.03-1.345V6.17c0-.535 0-.98.03-1.345.03-.38.098-.736.27-1.073A2.749 2.749 0 0 1 2.752 2.55c.337-.172.693-.24 1.073-.27.365-.03.81-.03 1.345-.03Zm6.3 15.22a.75.75 0 0 1 1.06 0l3 3a.749.749 0 0 1-.326 1.275.749.749 0 0 1-.734-.215L12 19.06l-2.47 2.47a.751.751 0 0 1-1.042-.018.751.751 0 0 1-.018-1.042ZM9.25 11c0 .414.336.75.75.75h4a.75.75 0 0 0 0-1.5h-4a.75.75 0 0 0-.75.75ZM10 8a1 1 0 1 0 0-2 1 1 0 0 0 0 2Zm-4 4a1 1 0 1 0 0-2 1 1 0 0 0 0 2Zm9-5a1 1 0 1 0-2 0 1 1 0 0 0 2 0Zm4 4a1 1 0 1 0-2 0 1 1 0 0 0 2 0ZM7 7a1 1 0 1 0-2 0 1 1 0 0 0 2 0Zm11 1a1 1 0 1 0 0-2 1 1 0 0 0 0 2Z"/></svg>