<svg xmlns="http://www.w3.org/2000/svg" viewBox="0 0 24 24"><path fill="#151E28" d="M3.692 16.066v-.001c-1.376-1.376-1.836-3.326-1.556-5.293.281-1.967 1.304-4.002 2.97-5.667 1.666-1.666 3.7-2.689 5.667-2.97 1.967-.281 3.917.179 5.293 1.555l2.828 2.83a8.749 8.749 0 0 1-3.896 14.692 8.749 8.749 0 0 1-8.478-2.318Zm3.889 1.768a7.25 7.25 0 0 0 10.252-.001 7.25 7.25 0 0 0 .001-10.253l-.149-.148a7.54 7.54 0 0 1-.063 1.553c-.282 1.966-1.305 4.001-2.97 5.666-1.666 1.666-3.7 2.689-5.667 2.97a7.471 7.471 0 0 1-1.553.063Zm4.596-6.718a.749.749 0 0 0-1.275.326.749.749 0 0 0 .215.734l.706.708a.75.75 0 1 0 1.061-1.06Zm1.414-4.95a.75.75 0 0 0-1.06 0l-.707.708a.749.749 0 0 0 .326 1.275.749.749 0 0 0 .734-.215l.707-.708a.75.75 0 0 0 0-1.06Zm-5.657 5.657a.75.75 0 0 0-1.06 0l-.707.708a.751.751 0 0 0 .018 1.042.751.751 0 0 0 1.042.018l.707-.708a.75.75 0 0 0 0-1.06Zm0-4.949a.751.751 0 0 0-1.042.018.751.751 0 0 0-.018 1.042l.707.707a.751.751 0 0 0 1.042-.018.751.751 0 0 0 .018-1.042l-.707-.708Z"/></svg>