<svg xmlns="http://www.w3.org/2000/svg" viewBox="0 0 24 24"><path fill="#151E28" d="m20.25 2.916-.74.124.74-.123v.004l.001.008.004.025.012.087c.013.104.025.208.034.313.024.27.047.656.047 1.144 0 .975-.093 2.356-.46 4.008-.735 3.308-2.567 7.682-6.92 12.035a.75.75 0 0 1-1.06 0l-.012-.013-.013-.012-.012-.013-.013-.012-.012-.013-.013-.012-.013-.013-.012-.012-.013-.013-.012-.013-.013-.012-.012-.013-.013-.012-.013-.013-.012-.013-.013-.012-.013-.013-.012-.013-.013-.012-.013-.013-.012-.013-.013-.013-.013-.012-.013-.013-.012-.013-.013-.013-.013-.012-.013-.013-.013-.013-.013-.013-.012-.013-.013-.013-.013-.013-.013-.012-.013-.013-.013-.013-.013-.013-.013-.013-.013-.013-.013-.013-.012-.013-.013-.013-.013-.013-.013-.013-.013-.013-.013-.013-.013-.013-.013-.013-.013-.013-.013-.013-.013-.013-.014-.013-.013-.013-.026-.026-.013-.013-.013-.013-.013-.014-.013-.013-.013-.013-.013-.013-.013-.013-.014-.013-.013-.013-.013-.013-.013-.014-.013-.013-.013-.013-.014-.013-.013-.013-.013-.013-.013-.014-.013-.013-.014-.013-.013-.013-.013-.013-.013-.014-.013-.013-.013-.013-.014-.013-.013-.013-.013-.014-.013-.013-.014-.013-.013-.013-.013-.014-.013-.013-.014-.013-.013-.013-.013-.014-.013-.013-.014-.013-.013-.013-.013-.013-.013-.014-.014-.013-.013-.013-.013-.014-.013-.013-.014-.013-.013-.013-.013-.014-.013-.013-.014-.013-.013-.013-.013-.014-.013-.013-.014-.013-.013-.013-.013-.014-.013-.013-.014-.013-.013-.013-.013-.014-.013-.013-.014-.013-.013-.013-.013-.014-.013-.013-.014-.013-.013-.013-.013-.014-.013-.013-.013-.013-.014-.013-.013-.013-.013-.014-.013-.013-.014-.013-.013-.013-.013-.014-.013-.013-.013-.013-.014-.013-.013-.013-.013-.013-.013-.014-.013-.013-.013-.013-.014-.013-.013-.013-.013-.013-.013-.013-.013-.014-.013-.013-.013-.013-.013-.013-.014-.013-.013-.013-.013-.013-.013-.013-.013-.013-.013-.013-.013-.013-.013-.013-.013-.014-.013-.013-.013-.012-.013-.014-.013-.012-.013-.014-.013-.012-.013-.014-.013-.012-.013-.013-.013-.013-.013-.013-.013-.013-.013-.013-.013-.013-.012-.013-.013-.013-.013-.013-.013-.012-.013-.013-.013-.013-.003-.004-3.359 3.36a2.25 2.25 0 1 1-3.182-3.183l3.881-3.88.008-.009L18.98 2.51a.748.748 0 0 1 1.27.406ZM7.487 16.121 4.13 19.48a.749.749 0 0 0 .326 1.275.749.749 0 0 0 .734-.215l3.36-3.358-1.062-1.06Z"/></svg>