<svg xmlns="http://www.w3.org/2000/svg" viewBox="0 0 24 24"><path fill="#151E28" d="m16 13 .45.6a.75.75 0 0 1-.98-.07l-3-3a.75.75 0 0 1 0-1.06v-.001l.004-.004.013-.012.05-.05.192-.193.694-.693L19.47 2.47a.75.75 0 0 1 1.28.53c0 3.651-1.045 6.286-2.111 8.018-.532.864-1.066 1.5-1.473 1.923a7.938 7.938 0 0 1-.65.607l-.044.035-.014.01-.005.005-.002.001S16.45 13.6 16 13ZM5.378 2.581a.75.75 0 0 1 1.04-.203L6 3l.42-.622.001.002.005.003.017.011a18.01 18.01 0 0 1 .992.749c.574.467 1.317 1.13 1.953 1.892.624.746 1.214 1.669 1.362 2.652a2.84 2.84 0 0 1-.672 2.331l9.452 9.452a.751.751 0 0 1-.018 1.042.751.751 0 0 1-1.042.018l-9.572-9.572a3.798 3.798 0 0 1-2.61.417c-.991-.19-1.87-.73-2.576-1.311a11.612 11.612 0 0 1-1.7-1.762c-.224-.285-.435-.58-.634-.883l-.01-.015-.003-.005-.001-.002L2 7l-.637.396a.75.75 0 1 1 1.274-.793v.002l.006.008a11.237 11.237 0 0 0 .548.761c.363.461.872 1.038 1.473 1.53.606.499 1.258.873 1.908.998.617.12 1.276.025 1.978-.502.352-.264.539-.52.636-.747.095-.226.121-.47.08-.743-.086-.575-.465-1.238-1.029-1.914-.551-.66-1.214-1.254-1.75-1.69-.289-.235-.587-.46-.892-.675l-.012-.007-.002-.002a.75.75 0 0 1-.203-1.04ZM9.53 14.53l-6 6a.751.751 0 0 1-1.042-.018.751.751 0 0 1-.018-1.042l6-6a.751.751 0 0 1 1.042.018.751.751 0 0 1 .018 1.042ZM3.47 4.47a.75.75 0 0 1 1.06 0l3 3a.751.751 0 0 1-.018 1.042.751.751 0 0 1-1.042.018l-3-3a.75.75 0 0 1 0-1.06Z"/></svg>