<svg xmlns="http://www.w3.org/2000/svg" viewBox="0 0 24 24"><path fill="#151E28" d="M9.4 2.25h4.85v19.5H9.367c-1.092 0-1.958 0-2.655-.058-.714-.058-1.317-.18-1.868-.46a4.744 4.744 0 0 1-2.076-2.076c-.281-.551-.403-1.155-.461-1.868-.057-.698-.057-1.563-.057-2.655V9.366c0-1.093 0-1.958.057-2.656.058-.713.18-1.317.46-1.868a4.752 4.752 0 0 1 2.077-2.076c.55-.28 1.154-.402 1.868-.46.685-.057 1.534-.057 2.6-.057H9.4Zm6.35.002c.513 0 1.026.018 1.538.055.714.058 1.317.18 1.869.46a4.744 4.744 0 0 1 2.076 2.076c.28.551.402 1.155.46 1.868.057.698.057 1.563.057 2.655v5.267c0 1.092 0 1.957-.057 2.655-.058.713-.18 1.317-.461 1.868a4.752 4.752 0 0 1-2.075 2.076c-.552.28-1.155.402-1.869.46-.512.037-1.025.055-1.538.055Z"/></svg>