<svg xmlns="http://www.w3.org/2000/svg" viewBox="0 0 24 24"><path fill="#151E28" d="M21.146 4.93a1.678 1.678 0 0 1 1.096 2.262c-.49 1.188-1.432 3.305-2.695 5.385-1.249 2.056-2.876 4.187-4.774 5.283-2.43 1.402-4.65 1.649-6.567.91-1.451-.558-2.365-1.836-3.036-2.971a8.465 8.465 0 0 0-.419 2.632V21a.75.75 0 0 1-1.5 0v-2.57c0-1.5.338-2.96.966-4.281l-.107-.186c-.68-1.177-1.414-2.678-1.16-4.297.32-2.03 1.643-3.828 4.073-5.23 1.01-.584 2.251-.866 3.535-.973 1.292-.107 2.677-.04 4.014.113 2.673.306 5.226.966 6.574 1.354Zm-5.91 3.782a.749.749 0 1 0-.474-1.423l-4.127 1.376a11.824 11.824 0 0 0-3.643 1.982 9.994 9.994 0 0 0-1.58 1.585.75.75 0 0 0 1.175.933c.392-.493.84-.946 1.342-1.347.95-.76 2.027-1.345 3.18-1.73l4.128-1.376Z"/></svg>