<svg xmlns="http://www.w3.org/2000/svg" viewBox="0 0 24 24"><path fill="#151E28" d="m16.37 8.773.001-.001c.341.342.563.765.696 1.24.162.585-.055 1.11-.165 1.375l-.011.027c-.06.147-.091.222-.107.279 1.059 2.636.285 5.927-2.031 8.244-2.316 2.316-5.607 3.09-8.244 2.03a3.168 3.168 0 0 0-.278.108l-.028.011c-.264.11-.789.327-1.374.164-.475-.132-.898-.354-1.24-.696-.341-.341-.563-.764-.695-1.24-.163-.584.054-1.109.164-1.374l.011-.027c.04-.091.076-.184.107-.279-1.059-2.636-.285-5.927 2.031-8.244 2.316-2.316 5.607-3.09 8.244-2.03.094-.031.187-.067.278-.107l.028-.012c.264-.11.789-.327 1.374-.164.475.132.899.354 1.239.696Zm-1.567-7.049a.748.748 0 0 1 1.03-.396c.69.34 1.183.977 1.489 1.625.308.653.47 1.409.426 2.095a.75.75 0 0 1-1.497-.096c.026-.403-.072-.906-.286-1.359a2.647 2.647 0 0 0-.231-.4c-.06.095-.119.184-.175.268l-.188.27c-.119.17-.204.29-.279.431-.09.157-.136.335-.135.516 0 .221.054.548.246 1.059a.75.75 0 0 1-1.405.526c-.227-.606-.342-1.122-.34-1.59.001-.487.128-.875.31-1.216.121-.228.285-.46.425-.66l.125-.18c.195-.278.358-.578.485-.893Zm5.607 3.01a.75.75 0 0 1 0 1.06L17.674 8.53a.751.751 0 0 1-1.042-.018.751.751 0 0 1-.018-1.042l2.736-2.736a.75.75 0 0 1 1.06 0Z"/></svg>