<svg xmlns="http://www.w3.org/2000/svg" viewBox="0 0 24 24"><path fill="#151E28" d="m16.816 11.876.03.018 3.38 2.113.029.018c.336.21.63.394.853.563.229.174.475.399.614.723.188.44.188.938 0 1.378-.14.324-.385.549-.614.723-.223.17-.517.353-.853.563l-.028.018-3.381 2.113-.03.018c-.374.234-.698.437-.97.574-.274.138-.61.272-.986.242a1.748 1.748 0 0 1-1.265-.7c-.225-.304-.29-.66-.317-.965-.028-.303-.028-.686-.028-1.127v-4.296c0-.441 0-.824.028-1.127.028-.305.092-.661.317-.964.3-.405.762-.66 1.265-.701.376-.03.712.104.986.242.272.137.596.34.97.574ZM3 4.25h17a.75.75 0 0 1 0 1.5H3a.75.75 0 0 1 0-1.5Zm0 14h7a.75.75 0 0 1 0 1.5H3a.75.75 0 0 1 0-1.5Zm0-7h7a.75.75 0 0 1 0 1.5H3a.75.75 0 0 1 0-1.5Z"/></svg>