<svg xmlns="http://www.w3.org/2000/svg" viewBox="0 0 24 24"><path fill="#151E28" d="M21.562 4.028c.135.424.026.86-.087 1.204-.119.363-.314.818-.548 1.364l-.015.033-4.98 11.622-.015.034c-.28.655-.51 1.19-.717 1.58-.188.354-.453.792-.898.987a1.75 1.75 0 0 1-1.677-.15c-.403-.27-.587-.749-.709-1.13-.135-.42-.266-.988-.426-1.683l-.008-.035-.57-2.473c-.176-.761-.233-.963-.33-1.116a1.237 1.237 0 0 0-.391-.391c-.154-.097-.356-.154-1.116-.33l-2.473-.57-.035-.008c-.695-.161-1.263-.292-1.683-.425-.381-.123-.86-.307-1.13-.71a1.75 1.75 0 0 1-.15-1.677c.194-.445.633-.711.987-.899.389-.207.925-.436 1.581-.717l.033-.014 11.622-4.981.033-.014c.546-.234 1.001-.429 1.364-.548.344-.113.78-.223 1.204-.087a1.75 1.75 0 0 1 1.134 1.134Z"/></svg>