<svg xmlns="http://www.w3.org/2000/svg" viewBox="0 0 24 24"><path fill="#151E28" d="M1.25 12a.75.75 0 0 1 .75-.75h1.28a8.718 8.718 0 0 1 2.024-4.884L1.469 2.53a.748.748 0 0 1 .332-1.265.75.75 0 0 1 .729.205l20 20a.749.749 0 0 1-.326 1.275.749.749 0 0 1-.734-.215l-3.836-3.835a8.71 8.71 0 0 1-4.884 2.023V22a.75.75 0 0 1-1.5 0v-1.282a8.752 8.752 0 0 1-7.97-7.968H2a.75.75 0 0 1-.75-.75ZM12 1.25a.75.75 0 0 1 .75.75v1.282a8.753 8.753 0 0 1 7.968 7.968H22a.75.75 0 0 1 0 1.5h-1.282a8.73 8.73 0 0 1-.605 2.531.751.751 0 1 1-1.39-.562 7.249 7.249 0 0 0-9.442-9.442.75.75 0 0 1-.563-1.39 8.729 8.729 0 0 1 2.532-.605V2a.75.75 0 0 1 .75-.75Zm-2.585 9.226a2.999 2.999 0 0 0 4.108 4.108l-4.108-4.108Zm2.345-1.559a.75.75 0 0 1 .864-.615 3.752 3.752 0 0 1 3.074 3.074.75.75 0 1 1-1.48.248 2.253 2.253 0 0 0-1.842-1.843.75.75 0 0 1-.616-.864Zm1.764 5.668v-.001Z"/></svg>