<svg xmlns="http://www.w3.org/2000/svg" viewBox="0 0 24 24"><path fill="#151E28" d="M7.544 9.095A.75.75 0 0 1 7.25 8.5V6a4.75 4.75 0 0 1 9.5 0v2.5a.75.75 0 0 1-.294.595 5.994 5.994 0 0 1 2.493 4.122C19 13.607 19 14.07 19 15c0 .929 0 1.393-.051 1.783a5.999 5.999 0 0 1-5.166 5.166C13.393 22 12.93 22 12 22c-.929 0-1.393 0-1.783-.051a5.999 5.999 0 0 1-5.166-5.166C5 16.393 5 15.93 5 15c0-.929 0-1.393.051-1.783a5.994 5.994 0 0 1 2.493-4.122ZM8.75 6v2.437c.471-.19.964-.32 1.467-.386C10.607 8 11.071 8 12 8c.93 0 1.393 0 1.783.051.503.066.996.196 1.467.386V6a3.25 3.25 0 1 0-6.5 0ZM10 14.8v.4a1.8 1.8 0 0 0 1.8 1.8h.4a1.8 1.8 0 0 0 1.8-1.8v-.4a1.8 1.8 0 0 0-1.8-1.8h-.4a1.8 1.8 0 0 0-1.8 1.8Z"/></svg>