<svg xmlns="http://www.w3.org/2000/svg" viewBox="0 0 24 24"><path fill="#151E28" d="M8.75 5v2.635a6.79 6.79 0 0 1 1.369-.327c.439-.058.949-.058 1.811-.058h.14c.862 0 1.372 0 1.812.058a6.75 6.75 0 0 1 5.81 5.811c.058.439.058.949.058 1.811v.14c0 .862 0 1.372-.058 1.812a6.75 6.75 0 0 1-5.811 5.81c-.439.058-.949.058-1.811.058h-.14c-.862 0-1.372 0-1.812-.058a6.75 6.75 0 0 1-5.81-5.811c-.058-.439-.058-.949-.058-1.811v-.141c0-.861 0-1.37.058-1.81A6.747 6.747 0 0 1 7.25 8.387V5A4.75 4.75 0 0 1 11.404.299 4.75 4.75 0 0 1 16.6 3.813a.75.75 0 1 1-1.452.374A3.25 3.25 0 0 0 8.75 5Zm3.05 8a1.8 1.8 0 0 0-1.8 1.8v.4a1.8 1.8 0 0 0 1.8 1.8h.4a1.8 1.8 0 0 0 1.8-1.8v-.4a1.8 1.8 0 0 0-1.8-1.8Z"/></svg>