<svg xmlns="http://www.w3.org/2000/svg" viewBox="0 0 24 24"><path fill="#151E28" d="M9.768 2.25h4.464c.813 0 1.469 0 2 .043.546.045 1.026.139 1.47.365.706.36 1.28.934 1.639 1.64.226.444.321.924.366 1.47.043.531.043 1.187.043 2v8.464c0 .813 0 1.469-.043 2-.045.546-.139 1.026-.365 1.47a3.749 3.749 0 0 1-1.64 1.639c-.444.226-.924.321-1.47.366-.531.043-1.187.043-2 .043H9.768c-.813 0-1.469 0-2-.043-.546-.045-1.026-.139-1.47-.365a3.749 3.749 0 0 1-1.639-1.64c-.226-.444-.321-.924-.366-1.47-.043-.531-.043-1.187-.043-2V7.768c0-.813 0-1.469.043-2 .045-.546.139-1.026.365-1.47.36-.706.934-1.28 1.64-1.639.444-.226.924-.321 1.47-.366.531-.043 1.187-.043 2-.043ZM9 10.757v2.486c0 .905 0 1.358.19 1.62.166.229.421.377.702.408.322.035.714-.189 1.497-.636l.005-.003 2.175-1.243c.797-.455 1.195-.683 1.328-.98.116-.26.116-.557 0-.817-.133-.298-.531-.526-1.328-.981l-2.175-1.243c-.786-.45-1.18-.674-1.502-.639a.998.998 0 0 0-.702.407C9 9.4 9 9.852 9 10.757ZM2.75 6v12a.75.75 0 0 1-1.5 0V6a.75.75 0 0 1 1.5 0ZM22 5.25a.75.75 0 0 1 .75.75v12a.75.75 0 0 1-1.5 0V6a.75.75 0 0 1 .75-.75Z"/></svg>