<svg xmlns="http://www.w3.org/2000/svg" viewBox="0 0 24 24"><path fill="#151E28" d="M5.421 6.482 1.47 2.53a.751.751 0 0 1 .018-1.042.751.751 0 0 1 1.042-.018l11.78 11.78h.023l.21.233 7.987 7.987a.749.749 0 0 1-.326 1.275.749.749 0 0 1-.734-.215l-4.25-4.25a6.745 6.745 0 0 1-4.47 2.429V23a.75.75 0 0 1-1.5 0v-2.291a6.753 6.753 0 0 1-5.959-5.959H5a.75.75 0 0 1 0-1.5h7.19L6.752 7.814c-.002.062-.002.124-.002.186v3a.75.75 0 0 1-1.5 0V8c0-.521.06-1.03.171-1.518ZM12 1.25A6.75 6.75 0 0 1 18.75 8v3a.75.75 0 0 1-1.5 0V8A5.25 5.25 0 0 0 8.5 4.087a.752.752 0 0 1-1.238-.404.75.75 0 0 1 .238-.714A6.725 6.725 0 0 1 12 1.25ZM17.25 14a.75.75 0 0 1 .75-.75h1a.75.75 0 0 1 0 1.5h-1a.75.75 0 0 1-.75-.75Z"/></svg>