<svg xmlns="http://www.w3.org/2000/svg" viewBox="0 0 24 24"><path fill="#151E28" d="M9.768 2.25h4.464c.813 0 1.469 0 2 .043.546.045 1.026.139 1.47.365.706.36 1.28.934 1.639 1.64.226.444.321.924.366 1.47.043.531.043 1.187.043 2v8.464c0 .813 0 1.469-.043 2-.045.546-.139 1.026-.365 1.47a3.749 3.749 0 0 1-1.64 1.639c-.444.226-.924.321-1.47.366-.531.043-1.187.043-2 .043H9.768c-.813 0-1.469 0-2-.043-.546-.045-1.026-.139-1.47-.365a3.749 3.749 0 0 1-1.639-1.64c-.226-.444-.321-.924-.366-1.47-.043-.531-.043-1.187-.043-2V7.768c0-.813 0-1.469.043-2 .045-.546.139-1.026.365-1.47.36-.706.934-1.28 1.64-1.639.444-.226.924-.321 1.47-.366.531-.043 1.187-.043 2-.043ZM7.25 15a2.75 2.75 0 1 0 5.5 0v-3.415l1.962-.49a2.691 2.691 0 0 0-1.305-5.22l-1.574.394a.747.747 0 0 0-.583.713v5.568a2.75 2.75 0 0 0-4 2.45Zm-4.5-9v12a.75.75 0 0 1-1.5 0V6a.75.75 0 0 1 1.5 0ZM22 5.25a.75.75 0 0 1 .75.75v12a.75.75 0 0 1-1.5 0V6a.75.75 0 0 1 .75-.75Zm-9.25 2.335 1.021-.256a1.19 1.19 0 1 1 .577 2.31l-1.598.4V7.585ZM10 13.75a1.25 1.25 0 1 1 0 2.5 1.25 1.25 0 0 1 0-2.5Z"/></svg>