<svg xmlns="http://www.w3.org/2000/svg" viewBox="0 0 24 24"><path fill="#151E28" d="M15 18a2.5 2.5 0 0 0-4.961-.442 2.511 2.511 0 0 0-1.007-.014 2.503 2.503 0 0 0-.694-.656 2.5 2.5 0 0 0-4.418-2.275l-1.17 1.754-.62.93-.21.316c-.114.17-.205.352-.272.54a4.32 4.32 0 0 1-.398-1.819c0-2.151 1.559-3.924 3.605-4.33a4.751 4.751 0 0 1 9.29 0c2.046.406 3.605 2.179 3.605 4.329 0 1.853-1.156 3.424-2.785 4.084.023-.136.035-.275.035-.417ZM11.226 6.813a.75.75 0 1 1-1.364-.626 6.752 6.752 0 0 1 6.137-3.937.75.75 0 0 1 .6 1.2 4.251 4.251 0 0 0 4.898 6.529.75.75 0 0 1 .984.912 6.762 6.762 0 0 1-3.106 3.956.752.752 0 0 1-1.147-.644.75.75 0 0 1 .397-.654 5.28 5.28 0 0 0 1.86-1.82 5.748 5.748 0 0 1-5.851-7.8 5.264 5.264 0 0 0-3.408 2.884Zm-4.81 8.563a.75.75 0 0 1 .208 1.04L5.401 18.25H7a.748.748 0 0 1 .624 1.166l-2 3a.749.749 0 1 1-1.248-.832l1.223-1.834H4a.748.748 0 0 1-.624-1.166l2-3a.75.75 0 0 1 1.04-.208ZM13.25 18v2a.75.75 0 0 1-1.5 0v-2a.75.75 0 0 1 1.5 0Zm-3 2v2a.75.75 0 0 1-1.5 0v-2a.75.75 0 0 1 1.5 0Z"/></svg>