<svg xmlns="http://www.w3.org/2000/svg" viewBox="0 0 24 24"><path fill="#151E28" d="M9 .25a.75.75 0 0 1 .75.75v1.25h4.5V1a.75.75 0 0 1 1.5 0v1.25c.58.002 1.068.01 1.482.043.546.045 1.026.14 1.47.366.706.359 1.28.933 1.64 1.639.226.444.32.924.365 1.47.043.531.043 1.187.043 2v8.464c0 .813 0 1.469-.043 2-.045.546-.14 1.026-.366 1.47a3.749 3.749 0 0 1-1.639 1.64c-.444.226-.924.32-1.47.365-.531.043-1.187.043-2 .043H8.768c-.813 0-1.469 0-2-.043-.546-.045-1.026-.14-1.47-.366a3.749 3.749 0 0 1-1.64-1.639c-.226-.444-.32-.924-.365-1.47-.043-.531-.043-1.187-.043-2V7.768c0-.813 0-1.469.043-2 .045-.546.14-1.026.366-1.47a3.749 3.749 0 0 1 1.639-1.64c.444-.226.924-.32 1.47-.365.414-.033.902-.04 1.482-.043V1A.75.75 0 0 1 9 .25ZM7.25 9c0 .414.336.75.75.75h8a.75.75 0 0 0 0-1.5H8a.75.75 0 0 0-.75.75Zm0 4c0 .414.336.75.75.75h4a.75.75 0 0 0 0-1.5H8a.75.75 0 0 0-.75.75Zm0 4c0 .414.336.75.75.75h2a.75.75 0 0 0 0-1.5H8a.75.75 0 0 0-.75.75Z"/></svg>