<svg xmlns="http://www.w3.org/2000/svg" viewBox="0 0 24 24"><path fill="#151E28" d="M7.975 1.25h6.05c.445 0 .816 0 1.12.021.317.021.617.068.907.188a2.75 2.75 0 0 1 1.489 1.489c.112.29.176.596.188.907.008.132.014.263.016.395H19A2.75 2.75 0 0 1 21.75 7v3A2.75 2.75 0 0 1 19 12.75h-6c-.69 0-1.25.56-1.25 1.25v1.354a2.75 2.75 0 0 1 2 2.646v2a2.75 2.75 0 1 1-5.5 0v-2c0-1.23.817-2.31 2-2.646V14A2.75 2.75 0 0 1 13 11.25h6c.69 0 1.25-.56 1.25-1.25V7c0-.69-.56-1.25-1.25-1.25h-1.254a7.449 7.449 0 0 1-.017.395 2.812 2.812 0 0 1-.188.907 2.749 2.749 0 0 1-1.489 1.488c-.29.12-.589.168-.907.19-.304.02-.675.02-1.12.02h-6.05c-.445 0-.816 0-1.12-.021a2.812 2.812 0 0 1-.907-.188A2.749 2.749 0 0 1 4.46 7.052a2.84 2.84 0 0 1-.19-.907c-.02-.304-.02-.675-.02-1.12v-.05c0-.445 0-.816.021-1.12.021-.317.068-.617.188-.907A2.749 2.749 0 0 1 5.948 1.46a2.82 2.82 0 0 1 .907-.19c.304-.02.675-.02 1.12-.02ZM16.25 5c0-.476 0-.796-.017-1.043-.017-.241-.046-.358-.078-.435a1.248 1.248 0 0 0-.677-.677c-.077-.032-.194-.061-.435-.078A17.265 17.265 0 0 0 14 2.75H8c-.476 0-.796 0-1.043.017-.241.017-.358.046-.435.078-.307.127-.55.37-.677.677-.032.077-.061.194-.078.435-.016.347-.022.695-.017 1.043 0 .476 0 .796.017 1.043.017.241.046.358.078.435.127.307.37.55.677.677.077.032.194.061.435.078.247.017.567.017 1.043.017h6c.476 0 .796 0 1.043-.017.241-.017.358-.046.435-.078.307-.127.55-.37.677-.677.032-.077.061-.194.078-.435.017-.247.017-.567.017-1.043Z"/></svg>