<svg xmlns="http://www.w3.org/2000/svg" viewBox="0 0 24 24"><path fill="#151E28" d="M20.85 2.793c.057.053.113.108.168.164l.012.013.013.012a2.75 2.75 0 0 1 .164 3.868c-.044.048-.097.1-.164.168l-.013.012L9.784 18.277l-.044.044c-.425.424-.698.698-1.012.924-.279.2-.578.369-.892.505-.355.152-.731.247-1.314.392l-.06.016-2.28.57a.752.752 0 0 1-.91-.91l.57-2.281.016-.06c.145-.583.239-.958.392-1.313.135-.314.305-.614.505-.892.226-.314.5-.587.924-1.012l.044-.044L16.97 2.97l.012-.013a2.75 2.75 0 0 1 3.868-.164Z"/></svg>