<svg xmlns="http://www.w3.org/2000/svg" viewBox="0 0 24 24"><path fill="#151E28" d="M2.956 22.143h.001l.678-.678.965-.965 4.489-4.49a.781.781 0 0 0 .09-.108 2 2 0 1 0-1.042-1.042.79.79 0 0 0-.109.09l-4.49 4.49-.965.965-.678.677c-.107-.312-.089-.625-.05-.895.04-.281.121-.623.215-1.014l.008-.032 2.56-10.754.02-.086c.117-.49.208-.875.399-1.215.168-.299.391-.563.657-.78.302-.246.666-.402 1.13-.6l.08-.035 1.479-.633.109-.047c.611-.263 1.09-.469 1.59-.493a2.73 2.73 0 0 1 .487.02 2.251 2.251 0 0 1 3.813-1.236l6.364 6.364a2.251 2.251 0 0 1-1.236 3.813c.021.161.028.324.02.487-.023.5-.229.98-.492 1.59l-.047.109-.634 1.48-.034.08c-.199.464-.354.828-.6 1.13a2.747 2.747 0 0 1-.78.656c-.34.192-.726.283-1.216.4l-.085.02-10.754 2.56-.033.008c-.39.094-.733.174-1.013.214-.27.04-.584.057-.896-.05Zm15.68-10.375a.751.751 0 0 0 1.042-.018.751.751 0 0 0 .018-1.042l-6.364-6.365a.749.749 0 0 0-1.275.326.749.749 0 0 0 .215.734l6.363 6.365Z"/></svg>