<svg xmlns="http://www.w3.org/2000/svg" viewBox="0 0 24 24"><path fill="#151E28" d="m2.53 1.47 20 20a.75.75 0 1 1-1.06 1.061l-4.27-4.27a23.979 23.979 0 0 1-3.067 3.062l-.05.042c-.422.353-.765.641-1.327.801a2.86 2.86 0 0 1-.755.092c-.241 0-.518-.024-.756-.092-.562-.16-.905-.447-1.325-.799l-.05-.041c-1.203-1.005-2.846-2.569-4.194-4.559-1.347-1.989-2.426-4.444-2.426-7.212 0-1.617.384-3.02 1.055-4.19L1.47 2.53a.751.751 0 0 1 .018-1.042.751.751 0 0 1 1.042-.018Zm5.35 2.37a.75.75 0 0 1-.762-1.292c2.567-1.513 5.941-1.685 8.686-.537 2.786 1.165 4.945 3.703 4.945 7.545 0 1.928-.524 3.705-1.296 5.275a.749.749 0 0 1-1.298.088.749.749 0 0 1-.048-.75c.694-1.411 1.142-2.962 1.142-4.614 0-3.175-1.737-5.205-4.024-6.16-2.328-.974-5.204-.817-7.345.445Zm3.743 3.941v.001a.751.751 0 0 1-.247-1.48 3.75 3.75 0 0 1 4.322 4.322.75.75 0 1 1-1.48-.248 2.252 2.252 0 0 0-2.595-2.595ZM8.304 9.364l-.002.012a3.75 3.75 0 0 0 4.322 4.322l.012-.002Z"/></svg>