<svg xmlns="http://www.w3.org/2000/svg" viewBox="0 0 24 24"><path fill="#151E28" d="M7.164 5.915v-.001a4.836 4.836 0 1 1 5.585 4.777V17a.75.75 0 0 1-1.5 0v-6.31a4.836 4.836 0 0 1-4.085-4.775ZM5.299 16.534c-.578.251-.989.515-1.244.765-.254.247-.305.426-.305.536 0 .126.071.351.437.655.361.301.93.605 1.698.875 1.529.538 3.691.885 6.115.885 2.424 0 4.585-.347 6.115-.885.768-.27 1.337-.574 1.698-.875.367-.304.437-.529.437-.655 0-.109-.051-.289-.305-.536-.255-.249-.666-.514-1.244-.765a.75.75 0 0 1 .598-1.376c.673.293 1.262.646 1.694 1.067.434.423.757.966.757 1.61 0 .749-.433 1.356-.977 1.809-.55.456-1.3.834-2.16 1.136-1.728.608-4.066.97-6.613.97-2.547 0-4.885-.362-6.612-.969-.861-.303-1.611-.681-2.16-1.137-.545-.453-.978-1.061-.978-1.809 0-.644.323-1.187.757-1.61.432-.421 1.021-.774 1.694-1.067a.75.75 0 0 1 .598 1.376Z"/></svg>