<svg xmlns="http://www.w3.org/2000/svg" viewBox="0 0 24 24"><path fill="#151E28" d="m8.87 3.954.001-.001 9.441 6.07.028.018c.283.175.559.363.826.561.223.174.462.397.597.717a1.75 1.75 0 0 1 0 1.362c-.136.319-.374.543-.596.717-.217.168-.503.352-.828.561l-.027.018-9.441 6.068-.029.02c-.377.242-.702.451-.975.593-.275.143-.612.283-.992.256a1.754 1.754 0 0 1-1.276-.697c-.228-.305-.293-.664-.321-.973-.028-.306-.028-.693-.028-1.14V5.896a13.57 13.57 0 0 1 .029-1.141c.027-.308.092-.668.32-.972a1.75 1.75 0 0 1 1.276-.697c.38-.027.717.113.992.256.273.142.598.351.975.593Z"/></svg>