<svg xmlns="http://www.w3.org/2000/svg" viewBox="0 0 24 24"><path fill="#151E28" d="M3.25 9a2.744 2.744 0 0 1 1.115-2.211 2.752 2.752 0 0 1 2.511-3.536 2.75 2.75 0 0 1 2.913-.888A2.746 2.746 0 0 1 12 1.25a2.744 2.744 0 0 1 2.211 1.115 2.745 2.745 0 0 1 2.912.888 2.748 2.748 0 0 1 2.512 3.536 2.746 2.746 0 0 1 .214 4.246c.279.618.34 1.313.173 1.97l-1.567 6.267-.018.073c-.133.536-.226.902-.373 1.222a3.749 3.749 0 0 1-2.712 2.118c-.346.065-.724.065-1.276.065H9.924c-.552 0-.93 0-1.276-.065a3.75 3.75 0 0 1-2.713-2.118c-.146-.319-.238-.686-.372-1.222l-.018-.074-1.567-6.266a2.993 2.993 0 0 1 .173-1.969A2.744 2.744 0 0 1 3.25 9ZM12 2.75a1.25 1.25 0 0 0-1.18.836.75.75 0 0 1-1.125.375 1.247 1.247 0 0 0-1.784.425.751.751 0 0 1-.749.374A1.249 1.249 0 0 0 5.96 6.694a.752.752 0 0 1-.374 1.126 1.249 1.249 0 0 0-.495 2.038 3.02 3.02 0 0 1 4.247.615A3.494 3.494 0 0 1 12 9.25c1.07 0 2.021.477 2.662 1.223a3.023 3.023 0 0 1 4.248-.615 1.249 1.249 0 0 0-.495-2.038.75.75 0 0 1-.375-1.125 1.249 1.249 0 0 0-1.202-1.934.75.75 0 0 1-.749-.375 1.253 1.253 0 0 0-1.784-.425.75.75 0 0 1-1.125-.375A1.25 1.25 0 0 0 12 2.75ZM9.271 13.252a.75.75 0 0 0-.685.81l.417 5a.75.75 0 1 0 1.494-.124l-.416-5a.75.75 0 0 0-.81-.685Zm6.143.81a.751.751 0 0 0-1.495-.124l-.416 5a.75.75 0 1 0 1.494.124Z"/></svg>