<svg xmlns="http://www.w3.org/2000/svg" viewBox="0 0 24 24"><path fill="#151E28" d="M17.095 2.25c.838 0 1.372 0 1.832.091a4.751 4.751 0 0 1 3.732 3.732c.091.46.091.994.091 1.832v8.19c0 .838 0 1.372-.091 1.832a4.751 4.751 0 0 1-3.732 3.732c-.46.091-.994.091-1.832.091H6.905c-.838 0-1.372 0-1.832-.091a4.751 4.751 0 0 1-3.732-3.732c-.091-.46-.091-.994-.091-1.832v-8.19c0-.838 0-1.372.091-1.832a4.751 4.751 0 0 1 3.732-3.732c.46-.091.994-.091 1.832-.091h10.19ZM13.25 9v6a.75.75 0 0 0 1.5 0v-1.19l1.72 1.72a.749.749 0 0 0 1.275-.326.749.749 0 0 0-.215-.734L15.06 12l2.47-2.47a.749.749 0 0 0-.326-1.275.749.749 0 0 0-.734.215l-1.72 1.72V9a.75.75 0 0 0-1.5 0ZM7 8.25a.75.75 0 0 0-.75.75v.025c0 .445 0 .816.021 1.12.021.317.068.617.188.907a2.749 2.749 0 0 0 1.489 1.488c.29.113.596.177.907.19.304.02.675.02 1.12.02h.275V15a.75.75 0 0 0 1.5 0V9a.75.75 0 0 0-1.5 0v2.25H10c-.476 0-.796 0-1.043-.017-.241-.017-.358-.046-.435-.078a1.248 1.248 0 0 1-.677-.677c-.032-.077-.061-.194-.078-.435C7.75 9.796 7.75 9.476 7.75 9A.75.75 0 0 0 7 8.25Z"/></svg>