<svg xmlns="http://www.w3.org/2000/svg" viewBox="0 0 24 24"><path fill="#151E28" d="M9.253 2.25h5.494c.419 0 .748 0 1.066.076.281.068.549.179.795.33.28.17.512.403.808.7l.052.051 3.126 3.125.05.052c.296.295.53.528.7.808.151.246.262.514.33.794.076.319.076.648.076 1.067v5.494c0 .419 0 .748-.076 1.066a2.759 2.759 0 0 1-.33.795c-.17.28-.403.512-.7.808l-.051.052-3.125 3.126-.052.05c-.296.296-.528.53-.808.7a2.759 2.759 0 0 1-.795.33c-.318.076-.647.076-1.066.076H9.253c-.419 0-.748 0-1.067-.076a2.737 2.737 0 0 1-.794-.33c-.28-.17-.513-.403-.808-.7l-.052-.051-3.126-3.125-.05-.052c-.297-.296-.53-.528-.7-.808a2.693 2.693 0 0 1-.33-.795c-.076-.318-.076-.647-.076-1.066V9.253c0-.419 0-.748.076-1.067.068-.28.179-.548.33-.794.17-.28.403-.513.7-.808l.051-.052 3.125-3.126.052-.05c.295-.297.528-.53.808-.7.246-.151.514-.262.794-.33.319-.076.648-.076 1.067-.076ZM12 8.75c.69 0 1.25.56 1.25 1.25 0 .357-.149.637-.45.937-.237.235-.502.423-.81.643-.138.099-.284.203-.44.32a.75.75 0 0 0-.3.6v1a.75.75 0 0 0 1.5 0v-.617l.012-.009c.344-.245.764-.545 1.094-.872.48-.476.894-1.117.894-2.002a2.75 2.75 0 1 0-5.5 0 .75.75 0 0 0 1.5 0c0-.69.56-1.25 1.25-1.25ZM12 17a1 1 0 1 0 0-2 1 1 0 0 0 0 2Z"/></svg>