<svg xmlns="http://www.w3.org/2000/svg" viewBox="0 0 24 24"><path fill="#151E28" d="M17 4.25A3.75 3.75 0 0 1 20.75 8v6.095c0 .838 0 1.372-.091 1.832a4.751 4.751 0 0 1-3.732 3.732c-.46.091-.994.091-1.832.091H15a.75.75 0 0 1 0-1.5c.965 0 1.338-.004 1.634-.062a3.248 3.248 0 0 0 2.554-2.554c.058-.296.062-.669.062-1.634v-3a3.749 3.749 0 0 1-5.822-4.141A3.75 3.75 0 0 1 17 4.25ZM6.75 4a3.75 3.75 0 0 1 3.75 3.75v6.095c0 .838 0 1.372-.091 1.832a4.751 4.751 0 0 1-3.732 3.732c-.46.091-.994.091-1.832.091H4.75a.75.75 0 0 1 0-1.5c.965 0 1.338-.004 1.634-.062a3.248 3.248 0 0 0 2.554-2.554c.058-.296.062-.669.062-1.634v-3a3.749 3.749 0 0 1-5.822-4.141A3.75 3.75 0 0 1 6.75 4Z"/></svg>