<svg xmlns="http://www.w3.org/2000/svg" viewBox="0 0 24 24"><path fill="#151E28" d="M8.75 4a.75.75 0 0 1 0 1.5c-.965 0-1.338.004-1.634.062a3.248 3.248 0 0 0-2.554 2.554c-.058.296-.062.669-.062 1.634v3a3.751 3.751 0 0 1 5.604 4.677A3.75 3.75 0 0 1 3 15.75V9.655c0-.838 0-1.372.091-1.832a4.751 4.751 0 0 1 3.732-3.732C7.283 4 7.817 4 8.655 4Zm10.155.25H19a.75.75 0 0 1 0 1.5c-.965 0-1.338.004-1.634.062a3.248 3.248 0 0 0-2.554 2.554c-.058.296-.062.669-.062 1.634v3a3.751 3.751 0 0 1 5.604 4.677A3.75 3.75 0 0 1 13.25 16V9.905c0-.838 0-1.372.091-1.832a4.751 4.751 0 0 1 3.732-3.732c.46-.091.994-.091 1.832-.091Z"/></svg>