<svg xmlns="http://www.w3.org/2000/svg" viewBox="0 0 24 24"><path fill="#151E28" d="m16 4 .586-.468.002.003.006.006.019.025a17.287 17.287 0 0 1 1.026 1.478c.261.425.532.914.74 1.407.202.48.371 1.027.371 1.549 0 .93-.319 1.659-.895 2.139-.552.46-1.243.611-1.855.611-.611 0-1.303-.151-1.855-.611-.576-.48-.895-1.209-.895-2.139 0-.522.169-1.068.371-1.549.208-.493.479-.982.74-1.407.316-.51.658-1.004 1.026-1.478l.02-.025.005-.006.002-.002v-.001Zm-4 9 .586-.468h.001v.001l.001.002.005.006.02.025c.368.474.71.968 1.026 1.478.282.45.529.92.74 1.407.202.481.371 1.027.371 1.549 0 .93-.319 1.659-.895 2.139-.552.46-1.243.611-1.855.611-.611 0-1.303-.151-1.855-.611-.576-.48-.894-1.209-.894-2.139 0-.522.168-1.069.37-1.549.208-.493.479-.982.74-1.407a17.039 17.039 0 0 1 1.026-1.478l.019-.025.006-.006.002-.003s.001-.001.586.468ZM7 6l.586-.468h.001v.001l.001.002.005.006.02.025c.368.474.71.968 1.026 1.478.281.45.529.92.74 1.407.202.481.371 1.027.371 1.549 0 .93-.319 1.659-.895 2.139-.552.46-1.243.611-1.855.611-.611 0-1.303-.151-1.855-.611-.576-.48-.894-1.209-.894-2.139 0-.522.168-1.069.37-1.549.208-.493.479-.982.74-1.407a17.563 17.563 0 0 1 1.026-1.478l.02-.025.005-.006.002-.003Zm0 0-.586-.469a.75.75 0 0 1 1.172 0Zm9-2-.585-.469a.749.749 0 0 1 1.171 0Zm-3.414 8.531L12 13l-.585-.469a.752.752 0 0 1 1.17 0Z"/></svg>