<svg xmlns="http://www.w3.org/2000/svg" viewBox="0 0 24 24"><path fill="#151E28" d="M13.117 2.479c.485.216.844.614 1.168 1.071.321.455.676 1.067 1.114 1.825l.019.033 5.45 9.413.02.033c.44.76.796 1.375 1.03 1.881.236.51.403 1.021.348 1.55a2.75 2.75 0 0 1-1.118 1.939c-.43.313-.955.424-1.515.475-.555.051-1.267.051-2.145.051H6.512c-.878 0-1.589 0-2.145-.051-.559-.051-1.085-.162-1.515-.475a2.749 2.749 0 0 1-1.119-1.938c-.054-.53.113-1.04.35-1.55.233-.507.59-1.122 1.03-1.882l.018-.033 5.45-9.413.02-.033c.438-.757.793-1.371 1.115-1.825.323-.457.682-.855 1.167-1.071a2.75 2.75 0 0 1 2.234 0ZM8.743 16.104l.001-.005.004-.027a7.86 7.86 0 0 1 .511-1.775c.418-.972.961-1.547 1.63-1.547.379 0 .846.167 1.38.507.523.334 1.045.792 1.516 1.27.243.246.468.493.668.723H13a.75.75 0 0 0 0 1.5h3a.75.75 0 0 0 .75-.75v-3a.75.75 0 0 0-1.5 0v.89a15.039 15.039 0 0 0-.397-.417c-.514-.521-1.125-1.064-1.778-1.481-.644-.41-1.398-.742-2.186-.742-1.665 0-2.566 1.425-3.008 2.453a9.236 9.236 0 0 0-.591 1.992l-.024.143-.006.041-.002.011-.001.004v.002L8 16l-.743-.103a.75.75 0 0 0 1.486.207Z"/></svg>