<svg xmlns="http://www.w3.org/2000/svg" viewBox="0 0 24 24"><path fill="#151E28" d="M2.894 15.742a.75.75 0 0 1-.636-.848L3 15l-.742-.107v-.001l.001-.002v-.006l.003-.02a11.746 11.746 0 0 1 1.337-3.736C4.68 9.236 6.64 7.25 10 7.25c3.278 0 6.203 1.9 8.243 3.685.707.62 1.377 1.281 2.007 1.979V8a.75.75 0 0 1 1.5 0v7a.75.75 0 0 1-.75.75h-7a.75.75 0 0 1 0-1.5h5.431a23.132 23.132 0 0 0-2.175-2.186C15.298 10.35 12.723 8.75 10 8.75c-2.64 0-4.18 1.514-5.098 3.122a10.272 10.272 0 0 0-1.112 2.977c-.018.088-.03.155-.038.199l-.008.048-.002.01v.001a.75.75 0 0 1-.848.635Z"/></svg>