<svg xmlns="http://www.w3.org/2000/svg" viewBox="0 0 24 24"><path fill="#151E28" d="M12 1.25c5.937 0 10.75 4.813 10.75 10.75S17.937 22.75 12 22.75 1.25 17.937 1.25 12 6.063 1.25 12 1.25ZM8.743 14.104l.001-.005.004-.027.018-.111c.101-.571.267-1.13.493-1.664.418-.972.961-1.547 1.63-1.547.379 0 .846.167 1.38.507.523.334 1.046.792 1.516 1.27.243.246.468.493.668.723H13a.75.75 0 0 0 0 1.5h3a.75.75 0 0 0 .75-.75v-3a.75.75 0 0 0-1.5 0v.891a15.064 15.064 0 0 0-.396-.418c-.515-.521-1.126-1.064-1.779-1.481-.644-.41-1.398-.742-2.186-.742-1.665 0-2.566 1.425-3.008 2.453a9.234 9.234 0 0 0-.615 2.135l-.006.041-.002.012-.001.003v.002l.354.05-.354-.049a.75.75 0 0 0 1.486.207ZM8 14l-.389-.054L8 14Z"/></svg>