<svg xmlns="http://www.w3.org/2000/svg" viewBox="0 0 24 24"><path fill="#151E28" d="M6.25 11c0-5.5 2.928-8.153 4.503-9.171l.013-.008c.072-.047.172-.112.292-.168.138-.062.282-.109.43-.141.164-.039.37-.046.512-.046.171-.003.343.013.511.046.148.032.292.079.43.141.12.056.22.121.293.168l.012.009C14.821 2.847 17.75 5.5 17.75 11c0 .539-.012 1.051-.033 1.535 2.408 1.403 3.758 4.174 3.294 6.959l-.271 1.629a.749.749 0 0 1-1.075.548l-4-2a.72.72 0 0 1-.085-.049c-.99.783-2.31 1.128-3.58 1.128s-2.59-.345-3.58-1.129a.885.885 0 0 1-.084.05l-4 2a.749.749 0 0 1-1.076-.548l-.271-1.628c-.464-2.786.886-5.557 3.294-6.96A33.883 33.883 0 0 1 6.25 11ZM14 10a2 2 0 1 0-3.999-.001A2 2 0 0 0 14 10Zm5.532 9.248c.317-1.903-.462-3.813-1.943-4.988a19.73 19.73 0 0 1-.546 3.042l-.212 1.275 2.596 1.298Zm-15.064 0 .105.627 2.596-1.299-.212-1.27a19.661 19.661 0 0 1-.546-3.046c-1.481 1.175-2.26 3.085-1.943 4.988Z"/></svg>