<svg xmlns="http://www.w3.org/2000/svg" viewBox="0 0 24 24"><path fill="#151E28" d="m17.23 2.412-.001-.001a4.748 4.748 0 0 1 3.359 3.36c.162.605.162 1.317.162 2.435v6.427c0 1.092 0 1.958-.057 2.655-.058.714-.18 1.318-.461 1.868a4.75 4.75 0 0 1-2.075 2.077c-.552.28-1.155.402-1.869.46-.697.057-1.563.057-2.655.057h-3.66c-.909 0-1.629 0-2.213-.04-.596-.041-1.104-.125-1.578-.322a4.753 4.753 0 0 1-2.57-2.57c-.197-.474-.282-.982-.322-1.578-.04-.583-.04-1.304-.04-2.213V13.52c0-2.34 0-3.67.298-4.785a8.751 8.751 0 0 1 6.187-6.187c1.114-.298 2.444-.298 4.784-.298h.275c1.118 0 1.83 0 2.436.162ZM12.75 7a.75.75 0 0 0-1.5 0v4a.75.75 0 0 0 1.5 0ZM15 6.25a.75.75 0 0 0-.75.75v4a.75.75 0 0 0 1.5 0V7a.75.75 0 0 0-.75-.75Zm-6 2.5a.75.75 0 0 0-.75.75V11a.75.75 0 0 0 1.5 0V9.5A.75.75 0 0 0 9 8.75Z"/></svg>