<svg xmlns="http://www.w3.org/2000/svg" viewBox="0 0 24 24"><path fill="#151E28" d="M19.5 9.5c.465 0 .697 0 .89.038a2 2 0 0 1 1.572 1.572c.038.193.038.425.038.89s0 .697-.038.89a2 2 0 0 1-1.572 1.572c-.193.038-.425.038-.89.038h-15c-.465 0-.697 0-.89-.038a2 2 0 0 1-1.572-1.572C2 12.697 2 12.465 2 12s0-.697.038-.89A2 2 0 0 1 3.61 9.538c.193-.038.425-.038.89-.038Zm-15-6h15c.465 0 .697 0 .89.038a2 2 0 0 1 1.572 1.572C22 5.303 22 5.535 22 6s0 .697-.038.89a2 2 0 0 1-1.572 1.572c-.193.038-.425.038-.89.038h-15c-.465 0-.697 0-.89-.038A2 2 0 0 1 2.038 6.89C2 6.697 2 6.465 2 6s0-.697.038-.89A2 2 0 0 1 3.61 3.538c.193-.038.425-.038.89-.038Zm0 12h15c.465 0 .697 0 .89.038a2 2 0 0 1 1.572 1.572c.038.193.038.425.038.89s0 .697-.038.89a2 2 0 0 1-1.572 1.572c-.193.038-.425.038-.89.038h-15c-.465 0-.697 0-.89-.038a2 2 0 0 1-1.572-1.572C2 18.697 2 18.465 2 18s0-.697.038-.89a2 2 0 0 1 1.572-1.572c.193-.038.425-.038.89-.038ZM18 12a1 1 0 1 0-2 0 1 1 0 0 0 2 0Zm-1-5a1 1 0 1 0 0-2 1 1 0 0 0 0 2Zm0 12a1 1 0 1 0 0-2 1 1 0 0 0 0 2Z"/></svg>