<svg xmlns="http://www.w3.org/2000/svg" viewBox="0 0 24 24"><path fill="#151E28" d="M9.45 2.4a.75.75 0 0 1 .15 1.05L7.48 6.275c.8-.022 1.6-.031 2.4-.025h4.24c.93 0 1.723 0 2.399.025l-2.12-2.825a.75.75 0 0 1 1.2-.9l2.994 3.99c.314.09.606.21.879.373a4.75 4.75 0 0 1 2.084 2.577c.226.674.229 1.395.124 2.233-.102.825-.32 1.845-.598 3.14l-.008.035-.528 2.465-.006.027c-.14.654-.253 1.184-.378 1.612-.13.443-.286.826-.533 1.174a3.749 3.749 0 0 1-1.567 1.266c-.391.17-.799.241-1.26.275-.444.033-.986.033-1.654.033H8.852c-.668 0-1.21 0-1.655-.033-.46-.034-.868-.105-1.26-.275a3.746 3.746 0 0 1-1.566-1.266c-.248-.348-.403-.731-.533-1.174-.125-.428-.239-.958-.379-1.611l-.006-.028-.528-2.465-.007-.035c-.278-1.295-.496-2.315-.599-3.14-.104-.838-.1-1.559.125-2.233a4.75 4.75 0 0 1 2.084-2.577c.273-.162.565-.282.879-.372L8.4 2.55a.75.75 0 0 1 1.05-.15Z"/></svg>