<svg xmlns="http://www.w3.org/2000/svg" viewBox="0 0 24 24"><path fill="#151E28" d="M19.25 11.25a2.5 2.5 0 0 1 2.5 2.5v.5a2.5 2.5 0 0 1-2.5 2.5h-.5a2.5 2.5 0 0 1-2.5-2.5v-.5a2.5 2.5 0 0 1 2.5-2.5Zm-14 0a2.5 2.5 0 0 1 2.5 2.5v.5a2.5 2.5 0 0 1-2.5 2.5h-.5a2.5 2.5 0 0 1-2.5-2.5v-.5a2.5 2.5 0 0 1 2.5-2.5Zm9.5-2.5v.5a2.5 2.5 0 0 1-2.5 2.5h-.5a2.5 2.5 0 0 1-2.5-2.5v-.5a2.5 2.5 0 0 1 2.5-2.5h.5a2.5 2.5 0 0 1 2.5 2.5Zm-2 5.25v7a.75.75 0 0 1-1.5 0v-7a.75.75 0 0 1 1.5 0ZM5 2.25a.75.75 0 0 1 .75.75v6a.75.75 0 0 1-1.5 0V3A.75.75 0 0 1 5 2.25ZM19.75 3v6a.75.75 0 0 1-1.5 0V3a.75.75 0 0 1 1.5 0Zm-14 16v2a.75.75 0 0 1-1.5 0v-2a.75.75 0 0 1 1.5 0Zm14 0v2a.75.75 0 0 1-1.5 0v-2a.75.75 0 0 1 1.5 0ZM12 2.25a.75.75 0 0 1 .75.75v1a.75.75 0 0 1-1.5 0V3a.75.75 0 0 1 .75-.75Z"/></svg>