<svg xmlns="http://www.w3.org/2000/svg" viewBox="0 0 24 24"><path fill="#151E28" d="m17.338 5.533-.002.001c.242.472.329 1.073.37 1.769.043.709.043 1.635.043 2.824v3.749c0 1.188 0 2.114-.042 2.823-.042.696-.129 1.297-.37 1.769a3.75 3.75 0 0 1-4.489 1.86c-.505-.163-.991-.527-1.513-.99-.531-.471-1.186-1.126-2.026-1.966l-.019-.019-.2-.2a1.251 1.251 0 0 0-.89-.402h-.096c-.095 0-.169 0-.235-.003a2.75 2.75 0 0 1-2.619-2.85v-3.795c0-.095 0-.168.004-.233a2.75 2.75 0 0 1 2.85-2.619h.017a1.25 1.25 0 0 0 .97-.402l.199-.2.02-.02c.84-.84 1.496-1.495 2.026-1.966.522-.463 1.008-.826 1.512-.99a3.75 3.75 0 0 1 4.49 1.86Z"/></svg>