<svg xmlns="http://www.w3.org/2000/svg" viewBox="0 0 24 24"><path fill="#151E28" d="M13.338 5.533h-.002c.242.472.329 1.073.37 1.769.043.709.043 1.635.043 2.824v3.749c0 1.188 0 2.114-.042 2.823-.042.696-.129 1.297-.37 1.769a3.75 3.75 0 0 1-4.489 1.86c-.505-.163-.99-.527-1.512-.99-.532-.471-1.187-1.126-2.027-1.966l-.019-.02-.2-.2a1.25 1.25 0 0 0-.89-.4h-.096a2.752 2.752 0 0 1-2.854-2.854v-3.792c0-.095 0-.169.003-.235a2.75 2.75 0 0 1 2.616-2.616c.066-.002.139-.002.235-.002h.017a1.25 1.25 0 0 0 .97-.402l.199-.2.02-.02c.84-.84 1.495-1.496 2.027-1.967.521-.463 1.007-.826 1.511-.99a3.75 3.75 0 0 1 4.49 1.86Zm6.078-2.157L19 4l.418-.623h.001l.002.002.005.003.013.009.039.028c.184.14.358.293.522.457.44.448.824.947 1.143 1.488.822 1.37 1.607 3.504 1.607 6.636s-.785 5.266-1.607 6.636a7.784 7.784 0 0 1-1.144 1.489c-.16.16-.297.279-.398.36a2.78 2.78 0 0 1-.163.123l-.013.01-.005.003-.003.002v.001l-.401-.6.4.6a.75.75 0 0 1-.836-1.245l.01-.008c.123-.095.239-.197.349-.307.354-.361.662-.764.918-1.2.678-1.13 1.393-2.996 1.393-5.864s-.715-4.734-1.393-5.864a6.229 6.229 0 0 0-.918-1.199 3.626 3.626 0 0 0-.282-.256c-.031-.026-.054-.042-.067-.052l-.011-.008a.75.75 0 1 1 .837-1.245ZM15.4 6.55a.75.75 0 0 1 1.05-.15l.002.001.001.001.004.003.01.008a3.998 3.998 0 0 1 .387.357c.22.228.503.567.785 1.025.566.92 1.111 2.304 1.111 4.205 0 1.901-.545 3.286-1.111 4.206a6.142 6.142 0 0 1-.785 1.024 4.375 4.375 0 0 1-.388.358l-.01.007-.003.003-.002.001L16 17l.45.6a.75.75 0 1 1-.905-1.197l.005-.004.041-.035c.04-.034.102-.091.18-.172.223-.236.421-.496.59-.773.433-.705.888-1.82.888-3.419s-.455-2.714-.889-3.42a4.606 4.606 0 0 0-.59-.771 2.878 2.878 0 0 0-.22-.208l-.005-.004A.75.75 0 0 1 15.4 6.55Z"/></svg>