<svg xmlns="http://www.w3.org/2000/svg" viewBox="0 0 24 24"><path fill="#151E28" d="M3.75 13a.75.75 0 0 1-1.5 0A9.75 9.75 0 0 1 12 3.25 9.75 9.75 0 0 1 21.75 13 9.75 9.75 0 0 1 12 22.75H7a.75.75 0 0 1 0-1.5h5A8.25 8.25 0 1 0 3.75 13Zm-.5 6a.75.75 0 0 1 .75-.75h6a.75.75 0 0 1 0 1.5H4a.75.75 0 0 1-.75-.75Zm-2-3a.75.75 0 0 1 .75-.75h5a.75.75 0 0 1 0 1.5H2a.75.75 0 0 1-.75-.75Zm8-15A.75.75 0 0 1 10 .25h4a.75.75 0 0 1 0 1.5h-4A.75.75 0 0 1 9.25 1Zm3.5 9v4a.75.75 0 0 1-1.5 0v-4a.75.75 0 0 1 1.5 0Z"/></svg>