<svg xmlns="http://www.w3.org/2000/svg" viewBox="0 0 24 24"><path fill="#151E28" d="M12.807 1.713c.603.104 1.173.363 2.058.765l.094.043 5.147 2.34.032.014c.482.219.889.404 1.193.577.295.168.637.399.822.775a1.75 1.75 0 0 1 0 1.546c-.185.375-.527.607-.822.775-.304.173-.711.358-1.193.576l-.032.015-5.147 2.34-.094.042c-.885.403-1.455.662-2.058.766a4.754 4.754 0 0 1-1.614 0c-.603-.104-1.173-.363-2.058-.766l-.094-.042-5.147-2.34-.033-.015c-.481-.218-.888-.403-1.192-.576-.295-.168-.637-.399-.822-.775a1.75 1.75 0 0 1 0-1.546c.185-.375.527-.607.822-.775.304-.173.712-.357 1.192-.577l.033-.014 5.147-2.34.094-.043c.885-.402 1.455-.661 2.058-.765a4.754 4.754 0 0 1 1.614 0ZM2.315 11.695a.75.75 0 0 1 .99-.38l6.4 2.844c.992.441 1.371.604 1.754.668.358.06.724.06 1.082 0 .383-.064.761-.227 1.754-.668l6.4-2.844a.75.75 0 1 1 .61 1.37l-6.401 2.845-.092.04c-.87.387-1.43.636-2.021.736a4.72 4.72 0 0 1-1.582 0c-.592-.1-1.152-.349-2.021-.735l-.092-.041-6.4-2.845a.75.75 0 0 1-.381-.99Zm.99 4.62 6.4 2.844c.993.441 1.371.604 1.754.668.358.06.724.06 1.082 0 .383-.064.761-.227 1.754-.668l6.4-2.844a.75.75 0 0 1 .609 1.37l-6.4 2.845-.092.041c-.869.386-1.429.635-2.021.735a4.72 4.72 0 0 1-1.582 0c-.592-.1-1.152-.349-2.021-.736l-.092-.04-6.401-2.845a.75.75 0 1 1 .61-1.37Z"/></svg>