<svg xmlns="http://www.w3.org/2000/svg" viewBox="0 0 24 24"><path fill="#151E28" d="M13.57 2.485h-.001l2.104 4.262a.25.25 0 0 0 .188.137l4.703.683c1.436.209 2.009 1.973.97 2.985l-3.403 3.318a.249.249 0 0 0-.072.221l.804 4.685c.244 1.429-1.256 2.519-2.54 1.844l-4.207-2.211a.25.25 0 0 0-.232 0L7.677 20.62c-1.284.676-2.785-.414-2.539-1.844l.803-4.685a.249.249 0 0 0-.072-.221l-3.403-3.318C1.427 9.54 2 7.776 3.437 7.567l4.703-.683a.25.25 0 0 0 .188-.137l2.102-4.262c.642-1.3 2.497-1.3 3.14 0Z"/></svg>