<svg xmlns="http://www.w3.org/2000/svg" viewBox="0 0 24 24"><path fill="#151E28" d="M9.367 2.25h5.266c1.092 0 1.958 0 2.655.057.714.058 1.317.18 1.869.46a4.75 4.75 0 0 1 2.075 2.077c.281.55.403 1.154.461 1.868.057.697.057 1.563.057 2.655V12A9.75 9.75 0 0 1 12 21.75H9.367c-1.092 0-1.958 0-2.655-.057-.714-.058-1.317-.18-1.868-.46a4.744 4.744 0 0 1-2.076-2.076c-.281-.552-.403-1.155-.461-1.869-.057-.697-.057-1.563-.057-2.655V9.367c0-1.092 0-1.958.057-2.655.058-.714.18-1.317.46-1.868a4.752 4.752 0 0 1 2.077-2.076c.55-.281 1.154-.403 1.868-.461.697-.057 1.563-.057 2.655-.057Zm3.383 17.966a8.254 8.254 0 0 0 7.466-7.466h-2.024c-1.024 0-1.768.004-2.358.052-.62.05-1.005.147-1.31.302a3.258 3.258 0 0 0-1.42 1.42c-.155.305-.251.69-.302 1.31-.051.63-.052 1.433-.052 2.566Z"/></svg>