<svg xmlns="http://www.w3.org/2000/svg" viewBox="0 0 24 24"><path fill="#151E28" d="M11.84 8.847a13.474 13.474 0 0 1 3.188 3.187c2.458 3.443.621 8.162-3.223 9.584-2.37.876-4.36 1.16-5.925 1.071-1.544-.088-2.75-.547-3.448-1.245-.699-.699-1.158-1.905-1.246-3.45-.09-1.565.195-3.555 1.071-5.924C3.68 8.225 8.398 6.39 11.84 8.847Zm3.335-6.802c.561.278 1.069.646 1.424 1.156.365.523.533 1.143.488 1.844a.751.751 0 0 1-1.497-.096c.025-.389-.066-.666-.222-.89a1.822 1.822 0 0 0-.52-.478l-.027.016c-1.079.622-1.38 1.97-.835 3.424a.75.75 0 1 1-1.405.527c-.686-1.834-.472-4.118 1.49-5.25l.397-.23a.75.75 0 0 1 .707-.023Zm7.073 8.703a.75.75 0 0 1-.205.677l-.324.324c-1.601 1.602-3.864 1.218-5.456.08a.75.75 0 0 1 .872-1.22c1.263.902 2.643.96 3.523.08l.023-.023a1.846 1.846 0 0 0-.328-.627c-.175-.208-.42-.367-.801-.443a.75.75 0 0 1 .294-1.47c.689.137 1.244.46 1.655.947.4.475.625 1.062.747 1.675Zm-5.645-1.926-.93.817a.75.75 0 0 1-.99-1.126l.93-.817a6.642 6.642 0 0 1 4.672-1.648.75.75 0 1 1-.065 1.499 5.146 5.146 0 0 0-3.617 1.275ZM8 12a1 1 0 1 0-2 0 1 1 0 0 0 2 0Zm5 4a1 1 0 1 0-2 0 1 1 0 0 0 2 0Zm-7 3a1 1 0 1 0 0-2 1 1 0 0 0 0 2Z"/></svg>