<svg xmlns="http://www.w3.org/2000/svg" viewBox="0 0 24 24"><path fill="#151E28" d="M12 5.25a6.75 6.75 0 1 1 0 13.5 6.75 6.75 0 0 1 0-13.5Zm7.07 1.093a1 1 0 1 1-1.413-1.414 1 1 0 0 1 1.414 1.414ZM2 12a1 1 0 1 1 2 0 1 1 0 0 1-2 0Zm11-9a1 1 0 1 1-2 0 1 1 0 0 1 2 0Zm0 18a1 1 0 1 1-2 0 1 1 0 0 1 2 0Zm7-9a1 1 0 1 1 2 0 1 1 0 0 1-2 0Zm-2.343 5.657a1 1 0 1 1 1.39 1.438 1 1 0 0 1-1.39-1.438ZM6.344 19.071a1.002 1.002 0 0 1-1.687-.441 1.002 1.002 0 0 1 1.675-.961 1 1 0 0 1 .012 1.402ZM4.929 4.929h.001a1 1 0 0 1 1.413 1.414 1.002 1.002 0 0 1-1.687-.441c-.091-.35.013-.722.273-.973Z"/></svg>