<svg xmlns="http://www.w3.org/2000/svg" viewBox="0 0 24 24"><path fill="#151E28" d="M6.768 1.25h4.464c.813 0 1.469 0 2 .043.546.045 1.026.14 1.47.366.706.359 1.28.933 1.64 1.639.226.444.32.924.365 1.47.043.531.043 1.187.043 2v4.464c0 .813 0 1.469-.043 2-.045.546-.14 1.026-.366 1.47a3.749 3.749 0 0 1-1.639 1.64c-.444.226-.924.32-1.47.365-.531.043-1.187.043-2 .043H6.768c-.813 0-1.469 0-2-.043-.546-.045-1.026-.14-1.47-.366a3.749 3.749 0 0 1-1.64-1.639c-.226-.444-.32-.924-.365-1.47-.043-.531-.043-1.187-.043-2V6.768c0-.813 0-1.469.043-2 .045-.546.14-1.026.366-1.47a3.749 3.749 0 0 1 1.639-1.64c.444-.226.924-.32 1.47-.365.531-.043 1.187-.043 2-.043Zm11.732 6h.5A3.75 3.75 0 0 1 22.75 11v8A3.75 3.75 0 0 1 19 22.75h-8A3.75 3.75 0 0 1 7.25 19v-.5a.75.75 0 0 1 1.5 0v.5A2.25 2.25 0 0 0 11 21.25h8A2.25 2.25 0 0 0 21.25 19v-8A2.25 2.25 0 0 0 19 8.75h-.5a.75.75 0 0 1 0-1.5Z"/></svg>