<svg xmlns="http://www.w3.org/2000/svg" viewBox="0 0 24 24"><path fill="#151E28" d="M8.903 5.25h8.928c.535 0 .98 0 1.345.03.38.03.736.098 1.074.27a2.75 2.75 0 0 1 1.2 1.202c.172.337.24.693.27 1.073.03.365.03.81.03 1.345v4.062c0 .813 0 1.469-.043 2-.045.546-.139 1.026-.365 1.47a3.749 3.749 0 0 1-1.64 1.639c-.444.226-.924.321-1.47.366-.531.043-1.187.043-2 .043H8.903c-.652 0-1.103 0-1.536-.103a3.73 3.73 0 0 1-1.083-.45c-.38-.232-.7-.552-1.16-1.012l-.06-.06-1.2-1.2-.023-.023c-.575-.575-1.038-1.039-1.383-1.445-.355-.418-.628-.824-.782-1.298a3.747 3.747 0 0 1 0-2.318c.154-.474.427-.88.782-1.298.345-.406.808-.87 1.383-1.445l.023-.023 1.2-1.2.06-.06c.461-.461.779-.78 1.159-1.012a3.745 3.745 0 0 1 1.084-.449c.433-.104.884-.104 1.536-.104ZM12 12a2 2 0 1 0-3.999-.001A2 2 0 0 0 12 12Z"/></svg>