<svg xmlns="http://www.w3.org/2000/svg" viewBox="0 0 24 24"><path fill="#151E28" d="M7.903 7.25h8.927c.535 0 .98 0 1.345.03.38.03.736.098 1.074.27.518.264.938.684 1.202 1.202.171.337.238.693.27 1.073.03.365.03.81.03 1.345v4.062c0 .813 0 1.469-.044 2-.045.546-.14 1.026-.366 1.47a3.752 3.752 0 0 1-1.638 1.64c-.444.226-.925.32-1.471.365-.531.043-1.187.043-2 .043H7.903c-.652 0-1.103 0-1.536-.104a3.739 3.739 0 0 1-1.083-.449c-.38-.232-.699-.551-1.16-1.012l-.06-.06-1.2-1.2-.023-.023c-.575-.575-1.038-1.039-1.383-1.445-.355-.418-.628-.824-.782-1.298a3.747 3.747 0 0 1 0-2.318c.154-.474.427-.88.782-1.298.345-.406.808-.87 1.383-1.445l.023-.023 1.2-1.2.06-.06c.461-.46.78-.78 1.16-1.012a3.741 3.741 0 0 1 1.083-.45c.433-.103.884-.103 1.536-.103ZM15 5.75h-5a.75.75 0 0 1 0-1.5h5.034c1.372 0 2.447 0 3.312.071.88.072 1.607.22 2.265.556a5.747 5.747 0 0 1 2.513 2.513c.335.658.484 1.385.557 2.265.07.864.07 1.94.07 3.311V16a.75.75 0 0 1-1.5 0v-3c0-1.413-.001-2.427-.066-3.223-.064-.787-.187-1.295-.397-1.706a4.255 4.255 0 0 0-1.858-1.858c-.411-.209-.919-.333-1.706-.397-.797-.066-1.811-.066-3.224-.066ZM10 16a2 2 0 1 0 .001-3.999A2 2 0 0 0 10 16Z"/></svg>