<svg xmlns="http://www.w3.org/2000/svg" viewBox="0 0 24 24"><path fill="#151E28" d="M3.886 11.25h16.228a2.75 2.75 0 0 1 2.575 3.716l-1.257 3.351a3.75 3.75 0 0 1-3.511 2.433H6.079a3.75 3.75 0 0 1-3.511-2.434l-1.257-3.35a2.75 2.75 0 0 1 2.575-3.716Zm6.276-6.5a2.25 2.25 0 0 0-2.134 1.538l-1.316 3.95a.75.75 0 0 1-1.423-.475l1.316-3.949a3.75 3.75 0 0 1 3.557-2.564h3.676a3.75 3.75 0 0 1 3.557 2.564l.146.436H22a.75.75 0 0 1 0 1.5h-3.96l.67 2.013a.75.75 0 0 1-1.422.474l-1.317-3.949a2.25 2.25 0 0 0-2.134-1.538ZM12 17a1 1 0 1 0 0-2 1 1 0 0 0 0 2Zm-4-1a1 1 0 1 0-2 0 1 1 0 0 0 2 0Zm10 0a1 1 0 1 0-2 0 1 1 0 0 0 2 0Z"/></svg>