<svg xmlns="http://www.w3.org/2000/svg" viewBox="0 0 24 24"><path fill="#151E28" d="M8.367 2.277h7.266c1.092 0 1.958 0 2.655.058.714.058 1.317.18 1.869.46a4.744 4.744 0 0 1 2.076 2.076c.28.551.402 1.155.46 1.868.057.698.057 1.563.057 2.655v5.239c0 1.092 0 1.958-.057 2.655-.058.714-.18 1.317-.461 1.869a4.752 4.752 0 0 1-2.075 2.076c-.552.28-1.155.402-1.869.46-.697.057-1.563.057-2.655.057H8.367c-1.092 0-1.958 0-2.655-.057-.714-.058-1.318-.18-1.868-.461a4.75 4.75 0 0 1-2.077-2.075c-.28-.552-.402-1.155-.46-1.869-.057-.697-.057-1.563-.057-2.655V9.394c0-1.092 0-1.957.057-2.655.058-.713.18-1.317.461-1.868a4.744 4.744 0 0 1 2.076-2.076c.551-.281 1.154-.402 1.868-.461.697-.057 1.563-.057 2.655-.057ZM6.47 9.47a.75.75 0 0 0 0 1.06L8.94 13l-2.47 2.47a.751.751 0 0 0 .018 1.042.751.751 0 0 0 1.042.018l3-3a.75.75 0 0 0 0-1.06l-3-3a.75.75 0 0 0-1.06 0ZM13 15.25a.75.75 0 0 0 0 1.5h4a.75.75 0 0 0 0-1.5Z"/></svg>