<svg xmlns="http://www.w3.org/2000/svg" viewBox="0 0 24 24"><path fill="#151E28" d="M11.98 2.026a2.273 2.273 0 0 1 3.8 2.392L14.137 8.25h2.708c.683 0 1.245 0 1.695.04.462.041.896.13 1.282.367a2.75 2.75 0 0 1 1.199 1.57c.127.435.099.877.017 1.334-.08.444-.228.986-.408 1.645l-.009.033-1.254 4.6-.036.13c-.194.716-.347 1.278-.682 1.712a2.742 2.742 0 0 1-1.128.861c-.506.21-1.087.209-1.829.208H9.17c-.535 0-.98 0-1.345-.03-.38-.03-.736-.098-1.073-.27a2.75 2.75 0 0 1-1.202-1.2c-.172-.338-.24-.694-.27-1.074-.03-.365-.03-.81-.03-1.345v-5.694c0-.381 0-.681.064-.974.056-.258.15-.507.277-.738.144-.262.342-.488.593-.774l.043-.05 5.754-6.575ZM3.75 10v10a.75.75 0 0 1-1.5 0V10a.75.75 0 0 1 1.5 0Z"/></svg>