<svg xmlns="http://www.w3.org/2000/svg" viewBox="0 0 24 24"><path fill="#151E28" d="M8.31 3.25h6.52c.535 0 .98 0 1.345.03.38.03.736.098 1.073.27a2.75 2.75 0 0 1 1.202 1.2c.172.338.24.694.27 1.074.03.364.03.81.03 1.344v6.578c0 .418 0 .748-.076 1.066-.067.281-.178.55-.33.795-.17.28-.404.512-.7.808l-.05.052-5.653 5.651a2.15 2.15 0 0 1-1.522.63c-1.654 0-2.69-1.785-1.87-3.221l2.159-3.778H7.155c-.683 0-1.245 0-1.694-.04-.463-.041-.897-.13-1.282-.367a2.751 2.751 0 0 1-1.2-1.57c-.127-.435-.099-.877-.017-1.334.08-.444.228-.986.408-1.645l.009-.033 1.254-4.6.036-.13c.194-.716.347-1.278.682-1.712a2.742 2.742 0 0 1 1.128-.861c.506-.21 1.087-.209 1.829-.208h.002ZM21 14.75a.75.75 0 0 1-.75-.75V4a.75.75 0 0 1 1.5 0v10a.75.75 0 0 1-.75.75Z"/></svg>