<svg xmlns="http://www.w3.org/2000/svg" viewBox="0 0 24 24"><path fill="#151E28" d="M5.663 4.25h12.674c.613 0 1.031 0 1.395.072a3.751 3.751 0 0 1 2.946 2.946c.072.364.072.782.072 1.395V9A1.75 1.75 0 0 1 21 10.75a1.25 1.25 0 0 0 0 2.5c.966 0 1.75.784 1.75 1.75v.337c0 .613 0 1.031-.072 1.395a3.751 3.751 0 0 1-2.946 2.946c-.364.072-.782.072-1.395.072H5.663c-.613 0-1.031 0-1.395-.072a3.751 3.751 0 0 1-2.946-2.946c-.072-.364-.072-.782-.072-1.395V15c0-.966.784-1.75 1.75-1.75a1.25 1.25 0 0 0 0-2.5A1.75 1.75 0 0 1 1.25 9v-.337c0-.613 0-1.031.072-1.395a3.751 3.751 0 0 1 2.946-2.946c.364-.072.782-.072 1.395-.072Zm9.337 6a.75.75 0 0 0-.75.75v2a.75.75 0 0 0 1.5 0v-2a.75.75 0 0 0-.75-.75Zm.75-4.5h-1.5V7.5a.75.75 0 0 0 1.5 0Zm-1.5 12.5h1.5V16.5a.75.75 0 0 0-1.5 0Z"/></svg>