<svg xmlns="http://www.w3.org/2000/svg" viewBox="0 0 24 24"><path fill="#151E28" d="M5.25 11A4.75 4.75 0 0 1 10 6.25h4A4.75 4.75 0 0 1 18.75 11v4c0 1.715-.91 3.219-2.272 4.053L17.6 20.55a.75.75 0 0 1-1.2.9l-1.36-1.814c-.341.076-.69.114-1.04.114h-4c-.357 0-.705-.04-1.04-.114L7.6 21.45a.75.75 0 0 1-1.2-.9l1.122-1.497A4.746 4.746 0 0 1 5.25 15ZM8 2.25h8A6.75 6.75 0 0 1 22.75 9v12a.75.75 0 0 1-1.5 0V9c0-2.9-2.35-5.25-5.25-5.25H8A5.25 5.25 0 0 0 2.75 9v12a.75.75 0 0 1-1.5 0V9A6.75 6.75 0 0 1 8 2.25ZM17.25 11A3.25 3.25 0 0 0 14 7.75h-4A3.25 3.25 0 0 0 6.75 11v.25h10.5Zm-6.5 3.5a.75.75 0 0 0-1.5 0v1a.75.75 0 0 0 1.5 0Zm3.25-.75a.75.75 0 0 0-.75.75v1a.75.75 0 0 0 1.5 0v-1a.75.75 0 0 0-.75-.75Z"/></svg>