<svg xmlns="http://www.w3.org/2000/svg" viewBox="0 0 24 24"><path fill="#151E28" d="M11.25 19.839h-.121c-1.063 0-2.238-.101-3.295-.464-1.068-.367-2.059-1.019-2.654-2.139-.61-1.146-.93-2.556-.93-4.236 0-2.01.996-4.212 2.168-6.132 1.188-1.945 2.63-3.718 3.662-4.893a2.54 2.54 0 0 1 3.84 0c1.032 1.176 2.474 2.948 3.662 4.893C18.754 8.789 19.75 10.99 19.75 13c0 1.68-.319 3.091-.929 4.236-.596 1.12-1.587 1.772-2.655 2.139-1.056.364-2.232.464-3.296.464h-.12v2.16a.75.75 0 0 1-1.5 0v-2.16Zm-1.72-8.37a.75.75 0 0 0-1.06 1.061l2.78 2.78V17a.75.75 0 0 0 1.5 0V6a.75.75 0 0 0-1.5 0v7.19l-1.72-1.72Z"/></svg>