<svg xmlns="http://www.w3.org/2000/svg" viewBox="0 0 24 24"><path fill="#151E28" d="M3.253 18.647A2.75 2.75 0 0 1 1.25 16V8A4.75 4.75 0 0 1 6 3.25h5c1.598 0 3.012.79 3.873 2h.197c.862 0 1.372 0 1.811.058a6.75 6.75 0 0 1 5.811 5.81c.058.44.058.95.058 1.812V15a3.75 3.75 0 0 1-3.005 3.676 3.25 3.25 0 0 1-6.486.074H9.741a3.25 3.25 0 0 1-6.488-.103Zm17.995-6.397a7.69 7.69 0 0 0-.043-.935 5.25 5.25 0 0 0-4.52-4.52c-.252-.033-.548-.042-1.101-.044.108.398.166.817.166 1.249v1A3.25 3.25 0 0 0 19 12.25ZM6.5 16.75a1.75 1.75 0 1 0 .001 3.501A1.75 1.75 0 0 0 6.5 16.75Zm10 0a1.75 1.75 0 1 0 .001 3.501 1.75 1.75 0 0 0-.001-3.501Z"/></svg>