<svg xmlns="http://www.w3.org/2000/svg" viewBox="0 0 24 24"><path fill="#151E28" d="M9.367 2.25h5.266c1.092 0 1.958 0 2.655.057.714.058 1.317.18 1.869.461a4.744 4.744 0 0 1 2.076 2.076c.28.551.402 1.154.46 1.868.057.697.057 1.563.057 2.655v5.266c0 1.092 0 1.958-.057 2.655-.058.714-.18 1.317-.461 1.869a4.752 4.752 0 0 1-2.075 2.076c-.552.28-1.155.402-1.869.46-.697.057-1.563.057-2.655.057H9.367c-1.092 0-1.958 0-2.655-.057-.714-.058-1.318-.18-1.868-.461a4.75 4.75 0 0 1-2.077-2.075c-.28-.552-.402-1.155-.46-1.869-.057-.697-.057-1.563-.057-2.655V9.367c0-1.092 0-1.958.057-2.655.058-.714.18-1.318.461-1.868a4.752 4.752 0 0 1 2.076-2.077c.551-.28 1.154-.402 1.868-.46.697-.057 1.563-.057 2.655-.057Zm5.89 11.854a.75.75 0 1 0 1.486-.207L16 14l.743-.104v-.002l-.001-.003-.002-.012-.006-.041a9.14 9.14 0 0 0-.127-.635 9.187 9.187 0 0 0-.488-1.5c-.442-1.028-1.343-2.453-3.008-2.453-.788 0-1.542.332-2.186.742-.653.417-1.264.96-1.778 1.481-.139.14-.271.28-.397.418V11a.75.75 0 0 0-1.5 0v3c0 .414.336.75.75.75h3a.75.75 0 0 0 0-1.5H9.548c.2-.23.424-.477.667-.723.47-.478.993-.936 1.516-1.27.534-.34 1.001-.507 1.38-.507.669 0 1.212.575 1.63 1.547.226.534.391 1.093.492 1.664l.02.111.003.027Z"/></svg>