<svg xmlns="http://www.w3.org/2000/svg" viewBox="0 0 24 24"><path fill="#151E28" d="M10.7 4.503c.29-.246.59-.451.95-.568a2.743 2.743 0 0 1 1.7 0c.172.056.33.132.481.223l.825-.825.022-.021c.378-.378.693-.693.972-.93.29-.247.59-.451.95-.568a2.743 2.743 0 0 1 1.7 0c.36.117.659.321.95.568.278.237.593.552.971.93l.022.021.424.424.021.022c.378.378.693.693.93.971.247.29.451.59.568.95.18.552.18 1.148 0 1.7-.117.36-.321.66-.568.95-.237.279-.552.594-.93.972l-.021.021-.826.826c.092.15.168.309.224.481.18.552.18 1.148 0 1.7-.117.36-.322.66-.568.95-.298.336-.608.66-.93.972l-.021.021-5.657 5.657-.023.023c-.575.575-1.038 1.038-1.444 1.383-.418.355-.825.628-1.299.782a3.747 3.747 0 0 1-2.318 0c-.474-.154-.88-.427-1.298-.782-.406-.345-.87-.809-1.444-1.383l-.023-.023-.99-.99-.023-.023c-.575-.574-1.038-1.038-1.383-1.444-.355-.418-.628-.824-.782-1.298a3.747 3.747 0 0 1 0-2.318c.154-.474.427-.88.782-1.299.345-.406.808-.87 1.383-1.444l.023-.023 5.657-5.657.021-.021c.378-.378.693-.693.972-.93Zm8.163 4.523.743-.743c.405-.405.676-.677.868-.903.187-.22.254-.347.286-.443a1.245 1.245 0 0 0 0-.773c-.032-.097-.1-.223-.286-.443-.192-.226-.463-.498-.868-.903l-.424-.424c-.405-.405-.677-.676-.903-.868-.22-.187-.346-.254-.443-.286a1.245 1.245 0 0 0-.773 0c-.096.032-.223.1-.443.286-.226.192-.498.463-.903.868l-.743.743c.095.093.194.192.297.296l.022.021 3.253 3.253.021.022c.104.103.203.202.296.297Zm-11.49 5.48a.749.749 0 0 0-1.275.326.749.749 0 0 0 .215.734l2.12 2.121a.75.75 0 1 0 1.061-1.06l-2.12-2.122Z"/></svg>