<svg xmlns="http://www.w3.org/2000/svg" viewBox="0 0 24 24"><path fill="#151E28" d="M4 2.25h16a.75.75 0 0 1 0 1.5H4a1.25 1.25 0 0 0-1.25 1.228v.057A1.25 1.25 0 0 0 4 6.25h14.83c.534 0 .98 0 1.344.03.38.03.737.098 1.074.27.518.264.938.684 1.202 1.202.172.337.239.693.27 1.073.03.365.03.81.03 1.345v1.08H20a2.75 2.75 0 1 0 0 5.5h2.75v1.08c0 .535 0 .981-.03 1.345-.031.38-.098.736-.27 1.074a2.752 2.752 0 0 1-1.202 1.201c-.337.172-.694.24-1.074.27-.364.03-.81.03-1.344.03H6.768c-.813 0-1.469 0-2-.043-.547-.045-1.027-.139-1.47-.365a3.756 3.756 0 0 1-1.64-1.64c-.226-.444-.32-.924-.365-1.47-.043-.531-.043-1.187-.043-2V5.052A2.75 2.75 0 0 1 4 2.25Zm18.75 10.5v2.5H20a1.25 1.25 0 0 1 0-2.5h2.75Z"/></svg>