<svg xmlns="http://www.w3.org/2000/svg" viewBox="0 0 24 24"><path fill="#151E28" d="M4.877 5.939 1.469 2.53a.751.751 0 0 1 .018-1.042.751.751 0 0 1 1.042-.018l20 20a.75.75 0 1 1-1.06 1.061l-2.309-2.31a2.752 2.752 0 0 1-.876 1.024c-.423.299-.932.406-1.473.455-.536.05-1.219.05-2.06.05H9.247c-.841 0-1.524 0-2.06-.049-.541-.05-1.05-.156-1.473-.456a2.748 2.748 0 0 1-1.138-1.878c-.068-.514.073-1.014.28-1.517.204-.497.521-1.103.911-1.847l.017-.034.165-.317a.751.751 0 0 1 1.33.696l-.166.316c-.411.787-.695 1.331-.87 1.757-.176.428-.195.629-.18.746.047.344.234.653.517.853.096.068.284.145.744.187.46.043 1.073.043 1.96.043h5.43c.887 0 1.5-.001 1.96-.043.461-.042.648-.119.744-.187.283-.2.47-.509.517-.853a.737.737 0 0 1 .032-.139l-2.907-2.906A7.75 7.75 0 0 1 4.877 5.939ZM12 2.75a6.221 6.221 0 0 0-3.571 1.12.749.749 0 0 1-1.189-.547.749.749 0 0 1 .331-.683A7.75 7.75 0 0 1 18.36 13.43a.75.75 0 1 1-1.23-.86A6.251 6.251 0 0 0 12 2.75Zm-.002 4c-.264 0-.516.045-.75.128a.75.75 0 1 1-.499-1.415 3.75 3.75 0 0 1 4.786 4.787.75.75 0 1 1-1.414-.5 2.25 2.25 0 0 0-2.122-3Z"/></svg>