<svg xmlns="http://www.w3.org/2000/svg" viewBox="0 0 24 24"><path fill="#151E28" d="M12.75 9v2.25H18a.75.75 0 0 1 0 1.5h-5.25V13c-.005.348.001.696.017 1.043.017.241.046.358.078.435.127.307.37.55.677.677.077.032.194.061.435.078.247.017.567.017 1.043.017h.025c.445 0 .816 0 1.12.021.317.021.617.068.907.188a2.749 2.749 0 0 1 1.488 1.489c.113.29.177.596.19.907.02.304.02.675.02 1.12V20c0 .69.56 1.25 1.25 1.25a.75.75 0 0 1 0 1.5A2.75 2.75 0 0 1 17.25 20v-1c0-.476 0-.796-.017-1.043-.017-.241-.046-.358-.078-.435a1.248 1.248 0 0 0-.677-.677c-.077-.032-.194-.061-.435-.078-.247-.017-.567-.017-1.043-.017h-.025c-.445 0-.816 0-1.12-.021a2.812 2.812 0 0 1-.907-.188 2.749 2.749 0 0 1-1.488-1.489 2.808 2.808 0 0 1-.19-.907c-.02-.304-.02-.675-.02-1.12V9a.75.75 0 0 1 1.5 0Zm-8 8a4.251 4.251 0 0 0 7.65 2.55.75.75 0 0 1 1.2.901A5.75 5.75 0 1 1 9 11.25a.75.75 0 0 1 0 1.5A4.25 4.25 0 0 0 4.75 17Zm4.5-13a2.75 2.75 0 1 1 5.5 0 2.75 2.75 0 0 1-5.5 0Z"/></svg>