<svg xmlns="http://www.w3.org/2000/svg" viewBox="0 0 24 24"><path fill="#151E28" d="M11.25 20.25v-5.525c-2.472-.167-4.236-1.16-5.461-2.55-1.32-1.496-1.964-3.394-2.278-5.034l-.004-.02a16.966 16.966 0 0 1-.264-4.045l.007-.103.002-.028v-.009l.001-.002v-.001L4 3l-.747-.068A.75.75 0 0 1 4 2.25h16a.75.75 0 0 1 .747.682L20 3l.747-.067v.003l.001.009.002.028c.012.158.021.316.025.475.01.317.014.767-.01 1.305-.049 1.071-.211 2.516-.675 3.974-.464 1.457-1.241 2.968-2.547 4.117-1.18 1.039-2.748 1.743-4.793 1.881v5.525H16a.75.75 0 0 1 0 1.5H8a.75.75 0 0 1 0-1.5ZM4.734 4.685h-.001c.023.524.073 1.046.148 1.565h1.927c1.874 0 3.73.358 5.47 1.054 1.563.625 3.231.946 4.915.946h1.474c.406-1.285.555-2.58.6-3.565.016-.362.018-.679.015-.935H4.718c-.004.312.001.624.016.935Z"/></svg>