<svg viewBox="0 0 24 24" fill="none" xmlns="http://www.w3.org/2000/svg"><path fill-rule="evenodd" clip-rule="evenodd" d="M5.235 3.152C5.602 3 6.068 3 7 3c.932 0 1.398 0 1.765.152a2 2 0 0 1 1.083 1.083C10 4.602 10 5.068 10 6v8c0 .932 0 1.398-.152 1.765a2 2 0 0 1-1.083 1.083C8.398 17 7.932 17 7 17c-.932 0-1.398 0-1.765-.152a2 2 0 0 1-1.083-1.083C4 15.398 4 14.932 4 14V6c0-.932 0-1.398.152-1.765a2 2 0 0 1 1.083-1.083Zm10 4C15.602 7 16.068 7 17 7c.932 0 1.398 0 1.765.152a2 2 0 0 1 1.083 1.083C20 8.602 20 9.068 20 10v4c0 .932 0 1.398-.152 1.765a2 2 0 0 1-1.083 1.083C18.398 17 17.932 17 17 17c-.932 0-1.398 0-1.765-.152a2 2 0 0 1-1.083-1.083C14 15.398 14 14.932 14 14v-4c0-.932 0-1.398.152-1.765a2 2 0 0 1 1.083-1.083Z" fill="#636F7E" fill-opacity=".16"/><path fill-rule="evenodd" clip-rule="evenodd" d="M3.25 5.975v8.05c0 .445 0 .816.02 1.12.022.318.069.617.19.907a2.75 2.75 0 0 0 1.488 1.489c.29.12.59.167.907.188.304.021.675.021 1.12.021h.05c.445 0 .816 0 1.12-.02.317-.022.617-.069.907-.19a2.75 2.75 0 0 0 1.489-1.488c.12-.29.167-.59.188-.907.021-.304.021-.675.021-1.12v-8.05c0-.445 0-.816-.02-1.12a2.822 2.822 0 0 0-.19-.907 2.75 2.75 0 0 0-1.488-1.489c-.29-.12-.59-.167-.907-.188-.304-.021-.675-.021-1.12-.021h-.05c-.445 0-.816 0-1.12.02a2.823 2.823 0 0 0-.907.19 2.75 2.75 0 0 0-1.489 1.488c-.12.29-.167.59-.188.907-.021.304-.021.675-.021 1.12Zm1.517-1.018c.017-.241.046-.358.078-.435.127-.307.37-.55.677-.677.077-.032.194-.061.435-.078.247-.017.567-.017 1.043-.017s.796 0 1.043.017c.241.017.358.046.435.078.307.127.55.37.677.677.032.077.061.194.078.435.017.247.017.567.017 1.043v8c0 .476 0 .796-.017 1.043-.017.241-.046.358-.078.435a1.25 1.25 0 0 1-.677.677c-.077.032-.194.061-.435.078A17.07 17.07 0 0 1 7 16.25c-.476 0-.796 0-1.043-.017-.241-.017-.358-.046-.435-.078a1.25 1.25 0 0 1-.677-.677c-.032-.077-.061-.194-.078-.435A17.091 17.091 0 0 1 4.75 14V6c0-.476 0-.796.017-1.043ZM2.25 21c0 .414.336.75.75.75h18a.75.75 0 0 0 0-1.5H3a.75.75 0 0 0-.75.75Zm11-11v-.025c0-.445 0-.816.02-1.12.022-.317.069-.617.19-.907a2.75 2.75 0 0 1 1.488-1.489c.29-.12.59-.167.907-.188.304-.021.675-.021 1.12-.021h.05c.445 0 .816 0 1.12.02.317.022.617.07.907.19a2.75 2.75 0 0 1 1.489 1.488c.12.29.167.59.188.907.021.304.021.675.021 1.12v4.05c0 .445 0 .816-.02 1.12a2.822 2.822 0 0 1-.19.907 2.75 2.75 0 0 1-1.488 1.489c-.29.12-.59.167-.907.188-.304.021-.675.021-1.12.021h-.05c-.445 0-.816 0-1.12-.02a2.822 2.822 0 0 1-.907-.19 2.75 2.75 0 0 1-1.489-1.488c-.12-.29-.167-.59-.188-.907-.021-.304-.021-.675-.021-1.12V10Zm1.595-1.478c-.032.077-.061.194-.078.435A17.07 17.07 0 0 0 14.75 10v4c0 .476 0 .796.017 1.043.017.241.046.358.078.435.127.307.37.55.677.677.077.032.194.061.435.078.247.017.567.017 1.043.017s.796 0 1.043-.017c.241-.017.358-.046.435-.078.307-.127.55-.37.677-.677.032-.077.061-.194.078-.435.017-.247.017-.567.017-1.043v-4c0-.476 0-.796-.017-1.043-.017-.241-.046-.358-.078-.435a1.25 1.25 0 0 0-.677-.677c-.077-.032-.194-.061-.435-.078A17.091 17.091 0 0 0 17 7.75c-.476 0-.796 0-1.043.017-.241.017-.358.046-.435.078a1.25 1.25 0 0 0-.677.677Z" fill="#151E28"/></svg>