<svg viewBox="0 0 24 24" fill="none" xmlns="http://www.w3.org/2000/svg"><path fill-rule="evenodd" clip-rule="evenodd" d="M5.152 5.234C5 5.602 5 6.068 5 7c0 .931 0 1.397.152 1.765a2 2 0 0 0 1.083 1.082C6.602 10 7.068 10 8 10h8c.932 0 1.398 0 1.765-.153a2 2 0 0 0 1.083-1.082C19 8.397 19 7.93 19 7c0-.932 0-1.398-.152-1.766a2 2 0 0 0-1.083-1.082C17.398 4 16.932 4 16 4H8c-.932 0-1.398 0-1.765.152a2 2 0 0 0-1.083 1.082Zm2 10C7 15.602 7 16.068 7 17c0 .931 0 1.397.152 1.765a2 2 0 0 0 1.083 1.082C8.602 20 9.068 20 10 20h4c.932 0 1.398 0 1.765-.152a2 2 0 0 0 1.083-1.082C17 18.397 17 17.93 17 17c0-.932 0-1.398-.152-1.766a2 2 0 0 0-1.083-1.082C15.398 14 14.932 14 14 14h-4c-.932 0-1.398 0-1.765.152a2 2 0 0 0-1.083 1.082Z" fill="#636F7E" fill-opacity=".16"/><path fill-rule="evenodd" clip-rule="evenodd" d="M12 .25a.75.75 0 0 1 .75.75v2.25h3.275c.445 0 .816 0 1.12.02.317.022.617.069.907.189a2.75 2.75 0 0 1 1.489 1.488c.12.29.167.59.188.907.021.305.021.676.021 1.12v.051c0 .444 0 .815-.02 1.12a2.822 2.822 0 0 1-.19.907 2.75 2.75 0 0 1-1.488 1.488c-.29.12-.59.167-.907.189-.304.02-.675.02-1.12.02H12.75v2.5h1.275c.445 0 .816 0 1.12.021.318.022.617.069.907.189a2.75 2.75 0 0 1 1.489 1.488c.12.29.167.59.188.907.021.305.021.676.021 1.12v.051c0 .444 0 .815-.02 1.12a2.822 2.822 0 0 1-.19.907 2.75 2.75 0 0 1-1.488 1.488c-.29.12-.59.167-.907.189-.304.02-.675.02-1.12.02H12.75V23a.75.75 0 0 1-1.5 0v-2.25H9.975c-.445 0-.816 0-1.12-.021a2.822 2.822 0 0 1-.907-.189 2.75 2.75 0 0 1-1.489-1.488c-.12-.29-.167-.59-.188-.907-.021-.305-.021-.676-.021-1.12v-.051c0-.444 0-.815.02-1.12.022-.317.07-.616.19-.907a2.75 2.75 0 0 1 1.488-1.488c.29-.12.59-.167.907-.189.304-.02.675-.02 1.12-.02h1.275v-2.5H7.975c-.445 0-.816 0-1.12-.021a2.822 2.822 0 0 1-.907-.189 2.75 2.75 0 0 1-1.489-1.488c-.12-.29-.167-.59-.188-.907-.021-.305-.021-.676-.021-1.12v-.051c0-.444 0-.815.02-1.12.022-.317.07-.616.19-.907A2.75 2.75 0 0 1 5.947 3.46c.29-.12.59-.167.907-.189.304-.02.675-.02 1.12-.02h3.275V1A.75.75 0 0 1 12 .25Zm-.017 14.5H10c-.476 0-.796 0-1.043.017-.241.016-.358.046-.435.078a1.25 1.25 0 0 0-.677.676c-.032.077-.061.194-.078.435-.017.248-.017.567-.017 1.044 0 .476 0 .795.017 1.043.017.24.046.358.078.435.127.306.37.55.677.676.077.032.194.062.435.078.247.017.567.018 1.043.018h4c.476 0 .796 0 1.043-.018.241-.016.358-.046.435-.078.307-.127.55-.37.677-.676.032-.077.061-.195.078-.435.017-.248.017-.567.017-1.043 0-.477 0-.796-.017-1.044-.017-.24-.046-.358-.078-.435a1.25 1.25 0 0 0-.677-.676c-.077-.032-.194-.062-.435-.078A17.073 17.073 0 0 0 14 14.749h-2.017Zm.017-10H8c-.476 0-.796 0-1.043.017-.241.016-.358.046-.435.078a1.25 1.25 0 0 0-.677.676c-.032.077-.061.195-.078.435A17.09 17.09 0 0 0 5.75 7c0 .476 0 .795.017 1.043.017.24.046.358.078.435.127.306.37.55.677.676.077.032.194.062.435.078.247.017.567.018 1.043.018h8c.476 0 .796 0 1.043-.018.241-.016.358-.046.435-.078.307-.127.55-.37.677-.676.032-.077.061-.194.078-.435.017-.248.017-.567.017-1.043 0-.477 0-.796-.017-1.044-.017-.24-.046-.358-.078-.435a1.25 1.25 0 0 0-.677-.676c-.077-.032-.194-.062-.435-.078A17.091 17.091 0 0 0 16 4.75h-4Z" fill="#151E28"/></svg>