<svg viewBox="0 0 24 24" fill="none" xmlns="http://www.w3.org/2000/svg"><circle cx="12" cy="5" r="3" fill="#636F7E" fill-opacity=".16"/><path fill-rule="evenodd" clip-rule="evenodd" d="M12 2.75a2.25 2.25 0 1 0 0 4.5 2.25 2.25 0 0 0 0-4.5ZM15.75 5a3.751 3.751 0 0 1-3 3.675v12.537a7.253 7.253 0 0 0 6.462-6.462H17a.75.75 0 0 1 0-1.5h3a.75.75 0 0 1 .75.75 8.75 8.75 0 1 1-17.5 0 .75.75 0 0 1 .75-.75h3a.75.75 0 0 1 0 1.5H4.788a7.253 7.253 0 0 0 6.462 6.462V8.675A3.751 3.751 0 0 1 12 1.25 3.75 3.75 0 0 1 15.75 5Z" fill="#151E28"/></svg>