<svg viewBox="0 0 24 24" fill="none" xmlns="http://www.w3.org/2000/svg"><path d="M14.5 21c3.038 0 5.5-2.91 5.5-6.5S17.538 8 14.5 8c-.9 0-1.75.256-2.5.709A4.808 4.808 0 0 0 9.5 8C6.463 8 4 10.91 4 14.5S6.463 21 9.5 21c.9 0 1.75-.256 2.5-.709.75.453 1.6.709 2.5.709Z" fill="#636F7E" fill-opacity=".16"/><path fill-rule="evenodd" clip-rule="evenodd" d="M16.901 2.67a.75.75 0 0 1 .604.777l-.01.187c-.024.447-.046.846-.115 1.243-.083.472-.23.928-.496 1.51a.75.75 0 0 1-1.363-.626c.225-.492.325-.823.381-1.143a5.37 5.37 0 0 0 .063-.532 3.97 3.97 0 0 0-1.939.57c-.81.482-1.405 1.205-1.602 2.02a.75.75 0 1 1-1.458-.352c.31-1.29 1.215-2.316 2.294-2.957 1.077-.64 2.402-.941 3.641-.698Zm-7.4 4.58c-3.565 0-6.25 3.368-6.25 7.25s2.685 7.25 6.25 7.25c.89 0 1.737-.216 2.5-.602a5.517 5.517 0 0 0 2.5.602c3.564 0 6.25-3.368 6.25-7.25s-2.686-7.25-6.25-7.25c-.892 0-1.738.216-2.5.602a5.517 5.517 0 0 0-2.5-.602ZM4.75 14.5c0-3.298 2.238-5.75 4.75-5.75.754 0 1.47.214 2.111.6a.75.75 0 0 0 .776 0c.64-.386 1.357-.6 2.112-.6 2.511 0 4.75 2.452 4.75 5.75s-2.239 5.75-4.75 5.75a4.058 4.058 0 0 1-2.112-.6.75.75 0 0 0-.776 0c-.64.387-1.357.6-2.112.6-2.51 0-4.75-2.452-4.75-5.75Z" fill="#151E28"/></svg>