<svg viewBox="0 0 24 24" fill="none" xmlns="http://www.w3.org/2000/svg"><path d="m21.293 12.707-7.586 7.586c-.63.63-1.707.184-1.707-.707V15H4a1 1 0 0 1-1-1v-4a1 1 0 0 1 1-1h8V4.414c0-.89 1.077-1.337 1.707-.707l7.586 7.586a1 1 0 0 1 0 1.414Z" fill="#636F7E" fill-opacity=".16"/><path fill-rule="evenodd" clip-rule="evenodd" d="M20.763 11.823a.25.25 0 0 1 0 .354l-7.586 7.585a.25.25 0 0 1-.427-.176V15a.75.75 0 0 0-.75-.75H4a.25.25 0 0 1-.25-.25v-4A.25.25 0 0 1 4 9.75h8a.75.75 0 0 0 .75-.75V4.414a.25.25 0 0 1 .427-.177l7.586 7.586Zm1.06 1.414a1.75 1.75 0 0 0 0-2.475l-7.586-7.585c-1.102-1.103-2.987-.322-2.987 1.237V8.25H4A1.75 1.75 0 0 0 2.25 10v4c0 .966.784 1.75 1.75 1.75h7.25v3.836c0 1.559 1.885 2.34 2.987 1.237l7.586-7.586Z" fill="#151E28"/></svg>