<svg viewBox="0 0 24 24" fill="none" xmlns="http://www.w3.org/2000/svg"><path d="m17.33 12.694-3.4 3.524c-.624.647-1.72.205-1.72-.694V13.8H10a1 1 0 0 1-1-1v-1.6a1 1 0 0 1 1-1h2.21V8.477c0-.9 1.095-1.342 1.72-.695l3.4 3.524a1 1 0 0 1 0 1.388Z" fill="#636F7E" fill-opacity=".16"/><path fill-rule="evenodd" clip-rule="evenodd" d="M16.79 11.827a.25.25 0 0 1 0 .347l-3.4 3.523a.25.25 0 0 1-.43-.173V13.8a.75.75 0 0 0-.75-.75H10a.25.25 0 0 1-.25-.25v-1.6a.25.25 0 0 1 .25-.25h2.21a.75.75 0 0 0 .75-.75V8.477a.25.25 0 0 1 .43-.174l3.4 3.524Zm1.08 1.388a1.75 1.75 0 0 0 0-2.43l-3.4-3.523c-1.093-1.133-3.01-.36-3.01 1.215v.973H10a1.75 1.75 0 0 0-1.75 1.75v1.6c0 .967.784 1.75 1.75 1.75h1.46v.974c0 1.574 1.917 2.348 3.01 1.215l3.4-3.524ZM7 14.55a.75.75 0 0 0 .75-.75v-3.6a.75.75 0 0 0-1.5 0v3.6c0 .414.336.75.75.75Z" fill="#151E28"/></svg>