<svg viewBox="0 0 24 24" fill="none" xmlns="http://www.w3.org/2000/svg"><path d="M13 21h-1V3h1c2.8 0 4.2 0 5.27.545a5 5 0 0 1 2.185 2.185C21 6.8 21 8.2 21 11v2c0 2.8 0 4.2-.545 5.27a5 5 0 0 1-2.185 2.185C17.2 21 15.8 21 13 21Z" fill="#636F7E" fill-opacity=".16"/><path fill-rule="evenodd" clip-rule="evenodd" d="M2.47 11.47a.75.75 0 0 0 0 1.06l4 4a.75.75 0 0 0 1.06-1.06l-2.72-2.72H16a.75.75 0 0 0 0-1.5H4.81l2.72-2.72a.75.75 0 0 0-1.06-1.06l-4 4ZM12 20.25a.75.75 0 0 0 0 1.5h1.034c1.371 0 2.447 0 3.311-.07.88-.072 1.607-.221 2.265-.557a5.75 5.75 0 0 0 2.513-2.513c.336-.658.485-1.385.556-2.265.071-.864.071-1.94.071-3.311v-2.068c0-1.371 0-2.447-.07-3.311-.072-.88-.221-1.607-.557-2.265a5.75 5.75 0 0 0-2.513-2.513c-.658-.336-1.385-.484-2.265-.556-.864-.071-1.94-.071-3.311-.071H12a.75.75 0 0 0 0 1.5h1c1.412 0 2.427 0 3.223.066.787.064 1.295.188 1.707.397a4.25 4.25 0 0 1 1.857 1.858c.21.411.333.919.397 1.706.065.796.066 1.81.066 3.223v2c0 1.412 0 2.427-.066 3.223-.064.787-.188 1.295-.397 1.707a4.251 4.251 0 0 1-1.857 1.857c-.412.21-.92.333-1.707.397-.796.065-1.81.066-3.223.066h-1Z" fill="#151E28"/></svg>