<svg viewBox="0 0 24 24" fill="none" xmlns="http://www.w3.org/2000/svg"><path d="M17.45 20H6.55c-1.82 0-2.731 0-3.257-.382a2 2 0 0 1-.813-1.41c-.068-.647.388-1.435 1.3-3.011l5.45-9.414c.91-1.57 1.364-2.355 1.957-2.619a2 2 0 0 1 1.626 0c.593.264 1.047 1.05 1.956 2.62l5.45 9.413c.912 1.576 1.369 2.364 1.301 3.01a2 2 0 0 1-.813 1.41C20.181 20 19.271 20 17.45 20Z" fill="#636F7E" fill-opacity=".16"/><path fill-rule="evenodd" clip-rule="evenodd" d="M13.117 2.479a2.75 2.75 0 0 0-2.234 0c-.485.216-.844.614-1.167 1.071-.322.454-.677 1.068-1.115 1.825l-.02.033-5.45 9.413-.018.033c-.44.76-.797 1.375-1.03 1.882-.237.51-.404 1.02-.35 1.55a2.75 2.75 0 0 0 1.119 1.938c.43.313.956.424 1.515.475.556.051 1.267.051 2.145.051h10.976c.878 0 1.59 0 2.145-.051.56-.051 1.085-.162 1.515-.475a2.75 2.75 0 0 0 1.118-1.939c.055-.529-.112-1.04-.348-1.55-.234-.506-.59-1.121-1.03-1.881l-.02-.033-5.45-9.413-.019-.033c-.438-.758-.793-1.37-1.114-1.825-.324-.457-.683-.855-1.168-1.071Zm-1.625 1.37a1.25 1.25 0 0 1 1.016 0c.108.049.273.174.552.568.277.391.598.944 1.06 1.742l5.45 9.413c.464.801.785 1.357.986 1.793.204.44.23.647.218.765a1.25 1.25 0 0 1-.508.881c-.095.07-.288.15-.77.194-.479.044-1.12.045-2.046.045H6.55c-.925 0-1.567 0-2.046-.045-.482-.044-.675-.124-.77-.194a1.25 1.25 0 0 1-.508-.881c-.013-.118.014-.325.217-.765.202-.436.523-.992.987-1.793L9.88 6.16c.462-.798.783-1.35 1.06-1.742.279-.394.444-.52.552-.567ZM15 16.25a.75.75 0 0 1 0 1.5h-.83c-.535 0-.98 0-1.345-.03-.38-.03-.736-.098-1.073-.27a2.751 2.751 0 0 1-1.202-1.201c-.172-.338-.24-.694-.27-1.074-.03-.365-.03-.81-.03-1.345v-1.02l-.72.72a.75.75 0 0 1-1.06-1.06l2-2a.75.75 0 0 1 1.06 0l2 2a.75.75 0 1 1-1.06 1.06l-.72-.72v.99c0 .572 0 .957.025 1.252.023.288.065.425.111.516.12.235.311.426.546.546.091.046.228.088.515.111.296.024.68.025 1.253.025h.8Z" fill="#151E28"/></svg>