<svg viewBox="0 0 24 24" fill="none" xmlns="http://www.w3.org/2000/svg"><path d="m11.293 21.293-7.586-7.586c-.63-.63-.184-1.707.707-1.707H9V7a1 1 0 0 1 1-1h4a1 1 0 0 1 1 1v5h4.586c.89 0 1.337 1.077.707 1.707l-7.586 7.586a1 1 0 0 1-1.414 0Z" fill="#636F7E" fill-opacity=".16"/><path fill-rule="evenodd" clip-rule="evenodd" d="M12.177 20.763a.25.25 0 0 1-.354 0l-7.586-7.586a.25.25 0 0 1 .177-.427H9a.75.75 0 0 0 .75-.75V7a.25.25 0 0 1 .25-.25h4a.25.25 0 0 1 .25.25v5c0 .414.336.75.75.75h4.586a.25.25 0 0 1 .177.427l-7.586 7.586Zm-1.415 1.06a1.75 1.75 0 0 0 2.475 0l7.586-7.586c1.103-1.102.322-2.987-1.237-2.987H15.75V7A1.75 1.75 0 0 0 14 5.25h-4A1.75 1.75 0 0 0 8.25 7v4.25H4.414c-1.559 0-2.34 1.885-1.237 2.987l7.585 7.586ZM8.25 3c0 .414.336.75.75.75h6a.75.75 0 1 0 0-1.5H9a.75.75 0 0 0-.75.75Z" fill="#151E28"/></svg>