<svg viewBox="0 0 24 24" fill="none" xmlns="http://www.w3.org/2000/svg"><path fill-rule="evenodd" clip-rule="evenodd" d="M20 19.75a.75.75 0 0 1-.75-.75v-4.6c0-1.133 0-1.937-.052-2.566-.05-.62-.147-1.005-.302-1.31a3.25 3.25 0 0 0-1.42-1.42c-.305-.155-.69-.251-1.31-.302-.63-.051-1.434-.052-2.566-.052H8.81l3.72 3.72a.75.75 0 1 1-1.06 1.06l-5-5a.75.75 0 0 1 0-1.06l5-5a.75.75 0 1 1 1.06 1.06L8.81 7.25h4.823c1.092 0 1.958 0 2.655.057.714.058 1.317.18 1.869.46a4.75 4.75 0 0 1 2.075 2.077c.281.55.403 1.154.461 1.868.057.697.057 1.563.057 2.655V19a.75.75 0 0 1-.75.75ZM9.53 13.53a.75.75 0 0 1-1.06 0l-5-5a.75.75 0 0 1 0-1.06l5-5a.75.75 0 0 1 1.06 1.06L5.06 8l4.47 4.47a.75.75 0 0 1 0 1.06Z" fill="#151E28"/></svg>