<svg viewBox="0 0 24 24" fill="none" xmlns="http://www.w3.org/2000/svg"><path d="M14.675 21h-5.35c-.489 0-.733 0-.963-.055-.205-.05-.4-.13-.579-.24-.201-.123-.374-.296-.72-.642l-3.126-3.126c-.346-.346-.519-.519-.642-.72a2.001 2.001 0 0 1-.24-.578C3 15.409 3 15.164 3 14.675v-5.35c0-.489 0-.733.055-.963a2 2 0 0 1 .24-.579c.123-.201.296-.374.642-.72l3.126-3.126c.346-.346.519-.519.72-.642a2 2 0 0 1 .579-.24C8.592 3 8.836 3 9.325 3h5.35c.489 0 .733 0 .963.055.204.05.4.13.579.24.201.123.374.296.72.642l3.126 3.126c.346.346.519.519.642.72.11.18.19.374.24.579.055.23.055.474.055.963v5.35c0 .489 0 .733-.055.963-.05.204-.13.4-.24.579-.123.201-.296.374-.642.72l-3.126 3.126c-.346.346-.519.519-.72.642-.18.11-.374.19-.578.24-.23.055-.475.055-.964.055Z" fill="#636F7E" fill-opacity=".16"/><path fill-rule="evenodd" clip-rule="evenodd" d="M9.253 2.25h5.494c.419 0 .748 0 1.066.076.281.067.55.178.795.33.28.17.512.403.808.7l.052.05 3.125 3.126.051.052c.297.295.53.528.7.808.151.246.263.514.33.794.076.319.076.648.076 1.067v5.494c0 .419 0 .748-.076 1.066a2.75 2.75 0 0 1-.33.795c-.17.28-.404.512-.7.808l-.05.052-3.126 3.125-.052.051c-.296.297-.528.53-.808.7a2.75 2.75 0 0 1-.795.33c-.318.076-.647.076-1.066.076H9.253c-.419 0-.748 0-1.067-.076a2.75 2.75 0 0 1-.794-.33c-.28-.17-.513-.404-.808-.7l-.052-.05-3.125-3.126-.051-.052c-.297-.296-.53-.528-.7-.808a2.75 2.75 0 0 1-.33-.795c-.076-.318-.076-.647-.076-1.066V9.253c0-.419 0-.748.076-1.067a2.75 2.75 0 0 1 .33-.794c.17-.28.403-.513.7-.808l.05-.052 3.126-3.125.052-.051c.295-.297.528-.53.808-.7a2.75 2.75 0 0 1 .794-.33c.319-.076.648-.076 1.067-.076Zm.072 1.5c-.524 0-.665.005-.788.035a1.25 1.25 0 0 0-.362.15c-.108.066-.21.161-.582.533L4.468 7.593c-.372.371-.467.474-.534.582a1.25 1.25 0 0 0-.15.362c-.03.123-.034.264-.034.788v5.35c0 .524.005.665.035.788.03.128.08.25.15.362.066.108.161.21.533.582l3.125 3.125c.371.372.474.467.582.534.112.068.234.119.362.15.123.03.264.034.788.034h5.35c.524 0 .665-.005.788-.035.128-.03.25-.08.362-.15.108-.066.21-.161.582-.533l3.125-3.125c.372-.371.467-.474.534-.582.068-.112.119-.234.15-.362.03-.123.034-.264.034-.788v-5.35c0-.524-.005-.665-.035-.788a1.253 1.253 0 0 0-.15-.362c-.066-.108-.161-.21-.533-.582l-3.125-3.125c-.371-.372-.474-.467-.582-.534a1.25 1.25 0 0 0-.362-.15c-.123-.03-.264-.034-.788-.034h-5.35Zm.77 13h.016a.75.75 0 1 0 0-1.5l-.166-.001a1.25 1.25 0 0 1-1.194-1.194 4.695 4.695 0 0 1-.001-.166v-2.69c0-.572 0-.956.025-1.252.023-.287.065-.424.111-.515a1.25 1.25 0 0 1 .547-.546c.09-.046.227-.088.514-.111.296-.024.68-.025 1.253-.025h2.689l.166.001a1.25 1.25 0 0 1 1.194 1.194l.001.166a.75.75 0 0 0 1.5 0v-.016c0-.088 0-.155-.003-.215a2.75 2.75 0 0 0-2.627-2.627c-.06-.003-.127-.003-.215-.003H11.17c-.535 0-.98 0-1.345.03-.38.03-.736.098-1.073.27a2.75 2.75 0 0 0-1.202 1.2c-.172.338-.24.694-.27 1.074-.03.365-.03.81-.03 1.345v2.735a2.75 2.75 0 0 0 2.63 2.842c.06.003.128.003.215.003Zm3.505 0a.75.75 0 0 1 0-1.5h.59l-2.72-2.72a.75.75 0 0 1 1.06-1.06l2.72 2.72v-.59a.75.75 0 0 1 1.5 0V16a.75.75 0 0 1-.75.75h-2.4Z" fill="#151E28"/></svg>