<svg viewBox="0 0 24 24" fill="none" xmlns="http://www.w3.org/2000/svg"><path d="M5 18V7.272c0-.89 1.077-1.337 1.707-.707L9.95 9.808l5.657-5.657a1 1 0 0 1 1.414 0l2.828 2.828a1 1 0 0 1 0 1.415l-5.657 5.656 3.243 3.243c.63.63.184 1.707-.707 1.707H6a1 1 0 0 1-1-1Z" fill="#636F7E" fill-opacity=".16"/><path fill-rule="evenodd" clip-rule="evenodd" d="M6 18.25a.25.25 0 0 1-.25-.25V7.272a.25.25 0 0 1 .427-.177l3.242 3.243a.75.75 0 0 0 1.061 0l5.657-5.657a.25.25 0 0 1 .354 0l2.828 2.829a.25.25 0 0 1 0 .353l-5.657 5.657a.75.75 0 0 0 0 1.06l3.243 3.243a.25.25 0 0 1-.177.427H6ZM4.25 18c0 .966.783 1.75 1.75 1.75h10.728c1.559 0 2.34-1.885 1.237-2.987l-2.712-2.713 5.127-5.126a1.75 1.75 0 0 0 0-2.475L17.55 3.62a1.75 1.75 0 0 0-2.475 0L9.95 8.747 7.237 6.035C6.135 4.932 4.25 5.713 4.25 7.272V18Z" fill="#151E28"/></svg>