<svg viewBox="0 0 24 24" fill="none" xmlns="http://www.w3.org/2000/svg"><path fill-rule="evenodd" clip-rule="evenodd" d="M12 3.25a.75.75 0 0 0-.75.75v16a.75.75 0 0 0 1.5 0V4a.75.75 0 0 0-.75-.75ZM1.25 12c0 .414.336.75.75.75h5.19l-1.72 1.72a.75.75 0 1 0 1.06 1.06l3-3a.75.75 0 0 0 0-1.06l-3-3a.75.75 0 0 0-1.06 1.06l1.72 1.72H2a.75.75 0 0 0-.75.75Zm20.75.75a.75.75 0 0 0 0-1.5h-5.19l1.72-1.72a.75.75 0 0 0-1.06-1.06l-3 3a.75.75 0 0 0 0 1.06l3 3a.75.75 0 1 0 1.06-1.06l-1.72-1.72H22Z" fill="#151E28"/></svg>