<svg viewBox="0 0 24 24" fill="none" xmlns="http://www.w3.org/2000/svg"><path fill-rule="evenodd" clip-rule="evenodd" d="M7.097 18.75a.75.75 0 0 0 .74-.76l-.006-.519c-.014-1.145-.024-1.959.02-2.596.044-.628.137-1.017.291-1.325a3.25 3.25 0 0 1 1.422-1.44c.306-.158.694-.256 1.322-.307.58-.048 1.31-.053 2.303-.053l-1.72 1.72a.75.75 0 1 0 1.061 1.06l3-3a.75.75 0 0 0 0-1.06l-3-3a.75.75 0 0 0-1.06 1.06l1.72 1.72c-.985 0-1.778.005-2.427.058-.72.059-1.33.183-1.885.468A4.75 4.75 0 0 0 6.8 12.88c-.279.558-.395 1.17-.445 1.89-.049.706-.038 1.581-.024 2.686v.033l.007.52a.75.75 0 0 0 .76.74Zm7.373-4.22a.75.75 0 0 0 1.06 0l3-3a.75.75 0 0 0 0-1.06l-3-3a.75.75 0 0 0-1.06 1.06L16.94 11l-2.47 2.47a.75.75 0 0 0 0 1.06Z" fill="#151E28"/></svg>