<svg viewBox="0 0 24 24" fill="none" xmlns="http://www.w3.org/2000/svg"><path d="M17 7H7v10h10V7Z" fill="#636F7E" fill-opacity=".16"/><path fill-rule="evenodd" clip-rule="evenodd" d="M17.75 7a.75.75 0 0 0-.75-.75h-2.857a.75.75 0 1 0 0 1.5h1.046l-2.29 2.291a.75.75 0 0 0 1.06 1.06l2.291-2.29v1.046a.75.75 0 1 0 1.5 0V7Zm-7.893-.75H7a.75.75 0 0 0-.75.75v2.857a.75.75 0 1 0 1.5 0V8.811l2.291 2.29a.75.75 0 0 0 1.06-1.06L8.812 7.75h1.046a.75.75 0 1 0 0-1.5Zm3.041 6.648a.75.75 0 0 0 0 1.06l2.291 2.292h-1.046a.75.75 0 1 0 0 1.5H17a.75.75 0 0 0 .75-.75v-2.857a.75.75 0 1 0-1.5 0v1.046l-2.291-2.29a.75.75 0 0 0-1.06 0Zm-1.796 0a.75.75 0 0 0-1.06 0L7.75 15.19v-1.046a.75.75 0 1 0-1.5 0V17c0 .414.336.75.75.75h2.857a.75.75 0 1 0 0-1.5H8.811l2.29-2.291a.75.75 0 0 0 0-1.06Z" fill="#151E28"/></svg>