<svg viewBox="0 0 24 24" fill="none" xmlns="http://www.w3.org/2000/svg"><path d="M3 9.4c0-2.24 0-3.36.436-4.216a4 4 0 0 1 1.748-1.748C6.04 3 7.16 3 9.4 3h5.2c2.24 0 3.36 0 4.216.436a4 4 0 0 1 1.748 1.748C21 6.04 21 7.16 21 9.4v5.2c0 2.24 0 3.36-.436 4.216a4 4 0 0 1-1.748 1.748C17.96 21 16.84 21 14.6 21H9.4c-2.24 0-3.36 0-4.216-.436a4 4 0 0 1-1.748-1.748C3 17.96 3 16.84 3 14.6V9.4Z" fill="#636F7E" fill-opacity=".16"/><path fill-rule="evenodd" clip-rule="evenodd" d="M9.367 2.25h5.266c1.092 0 1.958 0 2.655.057.714.058 1.317.18 1.869.46a4.75 4.75 0 0 1 2.075 2.077c.281.55.403 1.154.461 1.868.057.697.057 1.563.057 2.655v5.266c0 1.092 0 1.958-.057 2.655-.058.714-.18 1.317-.46 1.869a4.75 4.75 0 0 1-2.076 2.075c-.552.281-1.155.403-1.869.461-.697.057-1.563.057-2.655.057H9.367c-1.092 0-1.958 0-2.655-.057-.714-.058-1.317-.18-1.868-.46a4.75 4.75 0 0 1-2.076-2.076c-.281-.552-.403-1.155-.461-1.869-.057-.697-.057-1.563-.057-2.655V9.367c0-1.092 0-1.958.057-2.655.058-.714.18-1.317.46-1.868a4.75 4.75 0 0 1 2.077-2.076c.55-.281 1.154-.403 1.868-.461.697-.057 1.563-.057 2.655-.057ZM6.834 3.802c-.62.05-1.005.147-1.31.302a3.25 3.25 0 0 0-1.42 1.42c-.155.305-.251.69-.302 1.31-.051.63-.052 1.434-.052 2.566v5.2c0 1.133 0 1.937.052 2.566.05.62.147 1.005.302 1.31a3.25 3.25 0 0 0 1.42 1.42c.305.155.69.251 1.31.302.63.051 1.434.052 2.566.052h5.2c1.133 0 1.937 0 2.566-.052.62-.05 1.005-.147 1.31-.302a3.25 3.25 0 0 0 1.42-1.42c.155-.305.251-.69.302-1.31.051-.63.052-1.434.052-2.566V9.4c0-1.132 0-1.937-.052-2.566-.05-.62-.147-1.005-.302-1.31a3.25 3.25 0 0 0-1.42-1.42c-.305-.155-.69-.251-1.31-.302-.63-.051-1.434-.052-2.566-.052H9.4c-1.132 0-1.937 0-2.566.052Zm7.219 4.973c-.296-.024-.68-.025-1.253-.025h-1.689c-.53 0-.885 0-1.16.021-.266.02-.395.057-.48.096a1.25 1.25 0 0 0-.604.605.75.75 0 1 1-1.36-.634 2.75 2.75 0 0 1 1.33-1.33c.318-.148.65-.206 1.001-.232.338-.026.75-.026 1.245-.026h1.747c.535 0 .98 0 1.345.03.38.03.736.098 1.073.27a2.75 2.75 0 0 1 1.202 1.2c.172.338.24.694.27 1.074.03.365.03.81.03 1.344v1.748c0 .494 0 .907-.026 1.245-.026.352-.084.683-.232 1a2.75 2.75 0 0 1-1.33 1.33.75.75 0 0 1-.634-1.36 1.25 1.25 0 0 0 .605-.604c.04-.085.076-.213.096-.48.02-.274.021-.63.021-1.16V11.2c0-.572 0-.957-.025-1.253-.023-.287-.065-.424-.111-.515a1.25 1.25 0 0 0-.546-.546c-.091-.046-.228-.088-.515-.111ZM9.6 11.25a.75.75 0 0 0 0 1.5h.59l-2.72 2.72a.75.75 0 0 0 1.06 1.06l2.72-2.72v.59a.75.75 0 0 0 1.5 0V12a.75.75 0 0 0-.75-.75H9.6Z" fill="#151E28"/></svg>