<svg viewBox="0 0 24 24" fill="none" xmlns="http://www.w3.org/2000/svg"><path fill-rule="evenodd" clip-rule="evenodd" d="M12 22c5.523 0 10-4.477 10-10S17.523 2 12 2 2 6.477 2 12s4.477 10 10 10ZM9 10.642V14a1 1 0 0 0 1 1h3.358c.921 0 1.353-1.14.663-1.75l-.61-.539 2.306-2.307a1 1 0 0 0 0-1.414l-.707-.708a1 1 0 0 0-1.414 0L11.29 10.59l-.54-.61c-.61-.69-1.75-.26-1.75.661Z" fill="#636F7E" fill-opacity=".16"/><path fill-rule="evenodd" clip-rule="evenodd" d="M2.75 12a9.25 9.25 0 1 1 18.5 0 9.25 9.25 0 0 1-18.5 0ZM12 1.25C6.063 1.25 1.25 6.063 1.25 12S6.063 22.75 12 22.75 22.75 17.937 22.75 12 17.937 1.25 12 1.25ZM9.75 14c0 .138.112.25.25.25h3.358a.25.25 0 0 0 .166-.437l-.61-.54a.75.75 0 0 1-.034-1.092l2.307-2.308a.25.25 0 0 0 0-.353l-.707-.707a.25.25 0 0 0-.354 0L11.82 11.12a.75.75 0 0 1-1.092-.033l-.54-.61a.25.25 0 0 0-.437.165V14Zm.25 1.75A1.75 1.75 0 0 1 8.25 14v-3.358c0-1.612 1.994-2.367 3.061-1.16l.011.014 1.744-1.744a1.75 1.75 0 0 1 2.475 0l.707.707a1.75 1.75 0 0 1 0 2.475l-1.744 1.744.013.01c1.208 1.068.453 3.062-1.159 3.062H10Z" fill="#151E28"/></svg>