<svg viewBox="0 0 24 24" fill="none" xmlns="http://www.w3.org/2000/svg"><circle cx="12" cy="12" r="10" fill="#636F7E" fill-opacity=".16"/><path fill-rule="evenodd" clip-rule="evenodd" d="M2.75 12a9.25 9.25 0 1 1 18.5 0 9.25 9.25 0 0 1-18.5 0ZM12 1.25C6.063 1.25 1.25 6.063 1.25 12S6.063 22.75 12 22.75 22.75 17.937 22.75 12 17.937 1.25 12 1.25ZM7.25 8a.75.75 0 0 1 1.5 0v.013a5.145 5.145 0 0 1 8.293 2.983.75.75 0 0 1-1.47.293A3.644 3.644 0 0 0 9.61 9.25H10a.75.75 0 0 1 0 1.501H8a.75.75 0 0 1-.75-.75V8ZM16 16.75a.75.75 0 0 0 .75-.75v-2a.75.75 0 0 0-.75-.75h-2a.75.75 0 0 0 0 1.5h.39a3.644 3.644 0 0 1-5.963-2.04.75.75 0 0 0-1.471.294 5.145 5.145 0 0 0 8.294 2.983V16c0 .414.336.75.75.75Z" fill="#151E28"/></svg>