<svg viewBox="0 0 24 24" fill="none" xmlns="http://www.w3.org/2000/svg"><path d="M3 9.4c0-2.24 0-3.36.436-4.216a4 4 0 0 1 1.748-1.748C6.04 3 7.16 3 9.4 3h5.2c2.24 0 3.36 0 4.216.436a4 4 0 0 1 1.748 1.748C21 6.04 21 7.16 21 9.4v5.2c0 2.24 0 3.36-.436 4.216a4 4 0 0 1-1.748 1.748C17.96 21 16.84 21 14.6 21H9.4c-2.24 0-3.36 0-4.216-.436a4 4 0 0 1-1.748-1.748C3 17.96 3 16.84 3 14.6V9.4Z" fill="#636F7E" fill-opacity=".16"/><path fill-rule="evenodd" clip-rule="evenodd" d="M9.367 2.25h5.266c1.092 0 1.958 0 2.655.057.714.058 1.317.18 1.869.46a4.75 4.75 0 0 1 2.075 2.077c.281.55.403 1.154.461 1.868.057.697.057 1.563.057 2.655v5.266c0 1.092 0 1.958-.057 2.655-.058.714-.18 1.317-.46 1.869a4.75 4.75 0 0 1-2.076 2.075c-.552.281-1.155.403-1.869.461-.697.057-1.563.057-2.655.057H9.367c-1.092 0-1.958 0-2.655-.057-.714-.058-1.317-.18-1.868-.46a4.75 4.75 0 0 1-2.076-2.076c-.281-.552-.403-1.155-.461-1.869-.057-.697-.057-1.563-.057-2.655V9.367c0-1.092 0-1.958.057-2.655.058-.714.18-1.317.46-1.868a4.75 4.75 0 0 1 2.077-2.076c.55-.281 1.154-.403 1.868-.461.697-.057 1.563-.057 2.655-.057ZM6.834 3.802c-.62.05-1.005.147-1.31.302a3.25 3.25 0 0 0-1.42 1.42c-.155.305-.251.69-.302 1.31-.051.63-.052 1.434-.052 2.566v5.2c0 1.133 0 1.937.052 2.566.05.62.147 1.005.302 1.31a3.25 3.25 0 0 0 1.42 1.42c.305.155.69.251 1.31.302.63.051 1.434.052 2.566.052h5.2c1.133 0 1.937 0 2.566-.052.62-.05 1.005-.147 1.31-.302a3.25 3.25 0 0 0 1.42-1.42c.155-.305.251-.69.302-1.31.051-.63.052-1.434.052-2.566V9.4c0-1.132 0-1.937-.052-2.566-.05-.62-.147-1.005-.302-1.31a3.25 3.25 0 0 0-1.42-1.42c-.305-.155-.69-.251-1.31-.302-.63-.051-1.434-.052-2.566-.052H9.4c-1.132 0-1.937 0-2.566.052ZM12.75 16a.75.75 0 0 0-.75-.75h-.8c-.572 0-.957 0-1.253-.025-.287-.023-.424-.065-.514-.111a1.25 1.25 0 0 1-.547-.546c-.046-.091-.088-.228-.111-.515-.024-.296-.025-.68-.025-1.253v-1.6c0-.572 0-.957.025-1.253.023-.287.065-.424.111-.514a1.25 1.25 0 0 1 .547-.547c.09-.046.227-.088.514-.111.296-.024.68-.025 1.253-.025h.8a.75.75 0 0 0 0-1.5h-.83c-.535 0-.98 0-1.345.03-.38.03-.736.098-1.073.27A2.75 2.75 0 0 0 7.55 8.752c-.172.337-.24.693-.27 1.073-.03.365-.03.81-.03 1.345v1.66c0 .535 0 .98.03 1.345.03.38.098.736.27 1.073a2.75 2.75 0 0 0 1.202 1.202c.337.172.693.24 1.073.27.365.03.81.03 1.345.03H12a.75.75 0 0 0 .75-.75Zm-2.301-4.509a.75.75 0 0 0 0 1.018l1.846 2a.75.75 0 1 0 1.102-1.018l-.684-.741H16a.75.75 0 0 0 0-1.5h-3.287l.684-.741a.75.75 0 0 0-1.102-1.018l-1.846 2Z" fill="#151E28"/></svg>