<svg viewBox="0 0 24 24" fill="none" xmlns="http://www.w3.org/2000/svg"><path fill-rule="evenodd" clip-rule="evenodd" d="M6.55 20h10.9c1.82 0 2.731 0 3.257-.382a2 2 0 0 0 .813-1.41c.068-.647-.389-1.435-1.3-3.011l-5.45-9.414c-.91-1.57-1.364-2.355-1.957-2.619a2 2 0 0 0-1.626 0c-.593.264-1.047 1.05-1.956 2.62l-5.45 9.413c-.913 1.576-1.369 2.364-1.301 3.01a2 2 0 0 0 .813 1.41C3.819 20 4.729 20 6.55 20Zm3.46-2.822-2.358-2.49a1 1 0 0 1 0-1.376l2.359-2.49c.622-.656 1.726-.216 1.726.688v.99H15a1 1 0 0 1 1 1v1a1 1 0 0 1-1 1h-3.263v.99c0 .904-1.104 1.344-1.726.688Z" fill="#636F7E" fill-opacity=".16"/><path fill-rule="evenodd" clip-rule="evenodd" d="M13.117 2.479a2.75 2.75 0 0 0-2.234 0c-.485.216-.844.614-1.167 1.071-.322.454-.677 1.068-1.115 1.825l-.02.033-5.45 9.413-.018.033c-.44.76-.797 1.375-1.03 1.882-.237.51-.404 1.02-.35 1.55a2.75 2.75 0 0 0 1.119 1.938c.43.313.956.424 1.515.475.556.051 1.267.051 2.145.051h10.976c.878 0 1.59 0 2.145-.051.56-.051 1.085-.162 1.515-.475a2.75 2.75 0 0 0 1.118-1.939c.055-.529-.112-1.04-.348-1.55-.234-.506-.59-1.121-1.03-1.881l-.02-.033-5.45-9.413-.019-.033c-.438-.758-.793-1.37-1.114-1.825-.324-.457-.683-.855-1.168-1.071Zm-1.625 1.37a1.25 1.25 0 0 1 1.016 0c.108.049.273.174.552.568.277.391.598.944 1.06 1.742l5.45 9.413c.464.801.785 1.357.986 1.793.204.44.23.647.218.765a1.25 1.25 0 0 1-.508.881c-.095.07-.288.15-.77.194-.479.044-1.12.045-2.046.045H6.55c-.925 0-1.567 0-2.046-.045-.482-.044-.675-.124-.77-.194a1.25 1.25 0 0 1-.508-.881c-.013-.118.014-.325.217-.765.202-.436.523-.992.987-1.793L9.88 6.16c.462-.798.783-1.35 1.06-1.742.279-.394.444-.52.552-.567ZM8.196 14.173a.25.25 0 0 1 0-.344l2.36-2.49a.25.25 0 0 1 .43.172v.99c0 .414.337.75.75.75H15a.25.25 0 0 1 .25.25v1a.25.25 0 0 1-.25.25h-3.263a.75.75 0 0 0-.75.75v.99a.25.25 0 0 1-.432.172l-2.359-2.49Zm-1.089-1.376a1.75 1.75 0 0 0 0 2.408l2.36 2.49c1.087 1.148 3.02.378 3.02-1.204v-.24H15a1.75 1.75 0 0 0 1.75-1.75v-1A1.75 1.75 0 0 0 15 11.75h-2.513v-.24c0-1.582-1.933-2.352-3.02-1.204l-2.36 2.49Z" fill="#151E28"/></svg>