<svg viewBox="0 0 24 24" fill="none" xmlns="http://www.w3.org/2000/svg"><circle cx="12" cy="12" r="9" fill="#636F7E" fill-opacity=".16"/><path fill-rule="evenodd" clip-rule="evenodd" d="M18.746 7.25a8.25 8.25 0 0 0-14.981 5.271.75.75 0 0 1-1.498.094 9.75 9.75 0 0 1 4.858-9.059c4.296-2.48 9.696-1.32 12.625 2.526V3a.75.75 0 0 1 1.5 0v5a.75.75 0 0 1-.75.75h-5a.75.75 0 0 1 0-1.5h3.246Zm-13.492 9.5H8.5a.75.75 0 0 0 0-1.5h-5a.75.75 0 0 0-.75.75v5a.75.75 0 0 0 1.5 0v-3.082c2.928 3.845 8.328 5.007 12.625 2.526a9.75 9.75 0 0 0 4.858-9.059.75.75 0 0 0-1.498.094A8.25 8.25 0 0 1 5.254 16.75Z" fill="#151E28"/></svg>