<svg viewBox="0 0 24 24" fill="none" xmlns="http://www.w3.org/2000/svg"><path fill-rule="evenodd" clip-rule="evenodd" d="M9.325 21h5.35c.489 0 .733 0 .963-.055.204-.05.4-.13.579-.24.201-.123.374-.296.72-.642l3.126-3.126c.346-.346.519-.519.642-.72.11-.18.19-.374.24-.578.055-.23.055-.475.055-.964v-5.35c0-.489 0-.733-.055-.963-.05-.205-.13-.4-.24-.579-.123-.201-.296-.374-.642-.72l-3.126-3.126c-.346-.346-.519-.519-.72-.642a2.001 2.001 0 0 0-.578-.24C15.409 3 15.164 3 14.675 3h-5.35c-.489 0-.733 0-.963.055a2 2 0 0 0-.579.24c-.201.123-.374.296-.72.642L3.937 7.063c-.346.346-.519.519-.642.72a2 2 0 0 0-.24.579C3 8.592 3 8.836 3 9.325v5.35c0 .489 0 .733.055.963.05.204.13.4.24.579.123.201.296.374.642.72l3.126 3.126c.346.346.519.519.72.642.18.11.374.19.579.24.23.055.474.055.963.055Zm.686-5.822-2.36-2.49a1 1 0 0 1 0-1.376l2.36-2.49c.622-.656 1.726-.216 1.726.688v.99H13a1 1 0 0 1 1 1v1a1 1 0 0 1-1 1h-1.263v.99c0 .904-1.104 1.344-1.726.688Z" fill="#636F7E" fill-opacity=".16"/><path fill-rule="evenodd" clip-rule="evenodd" d="M9.326 2.25h-.073c-.419 0-.748 0-1.066.076a2.75 2.75 0 0 0-.795.33c-.28.17-.512.404-.808.7l-.052.051-3.125 3.125-.051.052c-.296.296-.53.528-.7.808a2.75 2.75 0 0 0-.33.795c-.076.318-.076.647-.076 1.066v5.494c0 .419 0 .748.076 1.067.067.28.179.548.33.794.17.28.404.513.7.808l.051.052 3.125 3.125.052.051c.296.297.528.53.808.7.246.152.514.263.795.33.318.076.647.076 1.066.076h5.494c.419 0 .748 0 1.067-.076a2.71 2.71 0 0 0 .794-.33c.28-.17.513-.403.808-.7l.052-.05 3.125-3.126.051-.052c.297-.295.53-.528.7-.808a2.71 2.71 0 0 0 .33-.794c.076-.319.076-.648.076-1.067V9.253c0-.419 0-.748-.076-1.066a2.75 2.75 0 0 0-.33-.795c-.17-.28-.403-.512-.7-.808l-.05-.052-3.126-3.125-.052-.051c-.295-.296-.528-.53-.808-.7a2.75 2.75 0 0 0-.794-.33c-.319-.076-.648-.076-1.067-.076H9.325Zm-.79 1.535c.124-.03.265-.035.79-.035h5.349c.524 0 .665.005.788.035.128.03.25.08.362.15.108.066.21.161.582.533l3.125 3.125c.372.371.467.474.534.582.068.112.119.234.15.362.03.123.034.264.034.789v5.349c0 .524-.005.665-.035.788a1.25 1.25 0 0 1-.15.362c-.066.108-.161.21-.533.582l-3.125 3.125c-.371.372-.474.467-.582.534a1.25 1.25 0 0 1-.362.15c-.123.03-.263.034-.788.034h-5.35c-.524 0-.665-.005-.788-.035a1.25 1.25 0 0 1-.362-.15c-.108-.066-.21-.161-.582-.533l-3.125-3.125c-.372-.371-.467-.474-.534-.582a1.25 1.25 0 0 1-.15-.362c-.03-.123-.034-.263-.034-.788v-5.35c0-.524.005-.665.035-.788.03-.128.08-.25.15-.362.066-.108.161-.21.533-.582l3.125-3.125c.371-.372.474-.467.582-.534a1.25 1.25 0 0 1 .362-.15Zm-.34 8.387a.25.25 0 0 1 0-.344l2.36-2.49a.25.25 0 0 1 .43.172v.99c0 .414.337.75.75.75H13a.25.25 0 0 1 .25.25v1a.25.25 0 0 1-.25.25h-1.263a.75.75 0 0 0-.75.75v.99a.25.25 0 0 1-.432.172l-2.359-2.49Zm-1.089-1.376a1.75 1.75 0 0 0 0 2.408l2.36 2.49c1.088 1.149 3.02.379 3.02-1.204v-.24H13a1.75 1.75 0 0 0 1.75-1.75v-1A1.75 1.75 0 0 0 13 9.75h-.513v-.24c0-1.582-1.932-2.352-3.02-1.204l-2.36 2.49ZM15.25 13.5a.75.75 0 1 0 1.5 0v-3a.75.75 0 1 0-1.5 0v3Z" fill="#151E28"/></svg>