<svg viewBox="0 0 24 24" fill="none" xmlns="http://www.w3.org/2000/svg"><circle cx="12" cy="12" r="10" fill="#636F7E" fill-opacity=".16"/><path fill-rule="evenodd" clip-rule="evenodd" d="M2.75 12a9.25 9.25 0 1 1 18.5 0 9.25 9.25 0 0 1-18.5 0ZM12 1.25C6.063 1.25 1.25 6.063 1.25 12S6.063 22.75 12 22.75 22.75 17.937 22.75 12 17.937 1.25 12 1.25Zm-3 8.5a.75.75 0 0 1 0-1.5h.232c.813 0 1.469 0 2 .043.546.045 1.026.14 1.47.366a3.75 3.75 0 0 1 1.64 1.638c.226.445.32.925.365 1.471.043.531.043 1.187.043 2v.422l.72-.72a.75.75 0 1 1 1.06 1.06l-2 2a.75.75 0 0 1-1.06 0l-2-2a.75.75 0 1 1 1.06-1.06l.72.72v-.39c0-.853 0-1.447-.038-1.91-.037-.453-.107-.714-.207-.912a2.25 2.25 0 0 0-.984-.983c-.197-.1-.458-.17-.912-.207-.462-.037-1.056-.038-1.909-.038H9Z" fill="#151E28"/></svg>