<svg viewBox="0 0 24 24" fill="none" xmlns="http://www.w3.org/2000/svg"><path fill-rule="evenodd" clip-rule="evenodd" d="M3.436 5.184C3 6.04 3 7.16 3 9.4v5.2c0 2.24 0 3.36.436 4.216a4 4 0 0 0 1.748 1.748C6.04 21 7.16 21 9.4 21h5.2c2.24 0 3.36 0 4.216-.436a4 4 0 0 0 1.748-1.748C21 17.96 21 16.84 21 14.6V9.4c0-2.24 0-3.36-.436-4.216a4 4 0 0 0-1.748-1.748C17.96 3 16.84 3 14.6 3H9.4c-2.24 0-3.36 0-4.216.436a4 4 0 0 0-1.748 1.748Zm4.764 8.01.092-3.429a1 1 0 0 1 .973-.973l3.43-.092c.903-.025 1.373 1.067.733 1.706l-.7.7.893.894a1 1 0 0 1 0 1.414l-.707.707a1 1 0 0 1-1.414 0l-.893-.893-.7.7c-.64.64-1.732.17-1.707-.734Z" fill="#636F7E" fill-opacity=".16"/><path fill-rule="evenodd" clip-rule="evenodd" d="M9.4 2.25h-.033c-1.092 0-1.958 0-2.655.057-.714.058-1.317.18-1.868.46a4.75 4.75 0 0 0-2.076 2.077c-.281.55-.403 1.154-.461 1.868-.057.697-.057 1.563-.057 2.655v5.266c0 1.092 0 1.958.057 2.655.058.714.18 1.317.46 1.869a4.75 4.75 0 0 0 2.077 2.075c.55.281 1.154.403 1.868.461.697.057 1.563.057 2.655.057h5.266c1.092 0 1.958 0 2.655-.057.714-.058 1.317-.18 1.869-.46a4.75 4.75 0 0 0 2.075-2.076c.281-.552.403-1.155.461-1.869.057-.697.057-1.563.057-2.655V9.367c0-1.092 0-1.958-.057-2.655-.058-.714-.18-1.317-.46-1.868a4.75 4.75 0 0 0-2.076-2.076c-.552-.281-1.155-.403-1.869-.461-.697-.057-1.563-.057-2.655-.057H9.4ZM5.525 4.104c.304-.155.688-.251 1.309-.302.63-.051 1.434-.052 2.566-.052h5.2c1.133 0 1.937 0 2.566.052.62.05 1.005.147 1.31.302a3.25 3.25 0 0 1 1.42 1.42c.155.305.251.69.302 1.31.051.63.052 1.434.052 2.566v5.2c0 1.133 0 1.937-.052 2.566-.05.62-.147 1.005-.302 1.31a3.25 3.25 0 0 1-1.42 1.42c-.305.155-.69.251-1.31.302-.63.051-1.434.052-2.566.052H9.4c-1.132 0-1.937 0-2.566-.052-.62-.05-1.005-.147-1.31-.302a3.25 3.25 0 0 1-1.42-1.42c-.155-.305-.251-.69-.302-1.31-.051-.63-.052-1.434-.052-2.566V9.4c0-1.132 0-1.937.052-2.566.05-.62.147-1.005.302-1.31a3.25 3.25 0 0 1 1.42-1.42Zm3.517 5.681a.25.25 0 0 1 .243-.243l3.43-.093a.25.25 0 0 1 .183.427l-.7.7a.75.75 0 0 0 0 1.061l.893.893a.25.25 0 0 1 0 .354l-.707.707a.25.25 0 0 1-.354 0l-.893-.893a.75.75 0 0 0-1.06 0l-.7.7a.25.25 0 0 1-.428-.183l.093-3.43Zm.203-1.742a1.75 1.75 0 0 0-1.702 1.702l-.093 3.43c-.043 1.58 1.868 2.402 2.987 1.284l.17-.17.363.363a1.75 1.75 0 0 0 2.474 0l.708-.707a1.75 1.75 0 0 0 0-2.475l-.363-.363.17-.17c1.118-1.119.296-3.03-1.285-2.987l-3.43.093Zm3.846 7.67a.75.75 0 0 0 1.06 1.06l2.122-2.121a.75.75 0 0 0-1.06-1.061l-2.122 2.121Z" fill="#151E28"/></svg>