<svg viewBox="0 0 24 24" fill="none" xmlns="http://www.w3.org/2000/svg"><circle cx="12" cy="12" r="10" fill="#636F7E" fill-opacity=".16"/><path fill-rule="evenodd" clip-rule="evenodd" d="M12 2.75a9.25 9.25 0 1 0 0 18.5 9.25 9.25 0 0 0 0-18.5ZM1.25 12C1.25 6.063 6.063 1.25 12 1.25S22.75 6.063 22.75 12 17.937 22.75 12 22.75 1.25 17.937 1.25 12ZM9 7.25a.75.75 0 0 0 0 1.5h6a.75.75 0 0 0 0-1.5H9Zm.227 5.038a.75.75 0 0 1 1.06-1.061l2.963 2.962v-2.432a.75.75 0 0 1 1.5 0V16a.75.75 0 0 1-.75.75H9.757a.75.75 0 0 1 0-1.5h2.432l-2.962-2.962Z" fill="#151E28"/></svg>