<svg viewBox="0 0 24 24" fill="none" xmlns="http://www.w3.org/2000/svg"><path d="m7.932 8.914-.087 4.896c-.017.899 1.07 1.36 1.706.724l1.22-1.218 1.562 1.563a1 1 0 0 0 1.415 0l1.13-1.131a1 1 0 0 0 0-1.415l-1.562-1.563 1.218-1.218c.636-.637.175-1.723-.725-1.707l-4.895.087a1 1 0 0 0-.982.982Z" fill="#636F7E" fill-opacity=".16"/><path fill-rule="evenodd" clip-rule="evenodd" d="M8.927 8.682a.25.25 0 0 0-.245.245l-.088 4.896a.25.25 0 0 0 .427.181l1.219-1.219a.75.75 0 0 1 1.06 0l1.563 1.563a.25.25 0 0 0 .354 0l1.131-1.13a.25.25 0 0 0 0-.354L12.785 11.3a.75.75 0 0 1 0-1.06l1.219-1.219a.25.25 0 0 0-.181-.427l-4.896.088ZM7.182 8.9A1.75 1.75 0 0 1 8.9 7.182l4.896-.087c1.574-.029 2.382 1.874 1.269 2.987l-.689.688 1.033 1.033a1.75 1.75 0 0 1 0 2.475l-1.131 1.131a1.75 1.75 0 0 1-2.475 0l-1.033-1.033-.688.689c-1.113 1.113-3.016.305-2.987-1.269L7.182 8.9Zm6.742 8.63a.75.75 0 0 1 0-1.06l2.546-2.546a.75.75 0 0 1 1.06 1.06l-2.545 2.546a.75.75 0 0 1-1.06 0Z" fill="#151E28"/></svg>