<svg viewBox="0 0 24 24" fill="none" xmlns="http://www.w3.org/2000/svg"><path fill-rule="evenodd" clip-rule="evenodd" d="M12 22c5.523 0 10-4.477 10-10S17.523 2 12 2 2 6.477 2 12s4.477 10 10 10Zm-1.99-6.822-2.358-2.49a1 1 0 0 1 0-1.376l2.359-2.49c.622-.656 1.726-.216 1.726.688v.99H15a1 1 0 0 1 1 1v1a1 1 0 0 1-1 1h-3.263v.99c0 .904-1.104 1.344-1.726.688Z" fill="#636F7E" fill-opacity=".16"/><path fill-rule="evenodd" clip-rule="evenodd" d="M2.75 12a9.25 9.25 0 1 1 18.5 0 9.25 9.25 0 0 1-18.5 0ZM12 1.25C6.063 1.25 1.25 6.063 1.25 12S6.063 22.75 12 22.75 22.75 17.937 22.75 12 17.937 1.25 12 1.25Zm-1.445 13.412-2.359-2.49a.25.25 0 0 1 0-.344l2.36-2.49a.25.25 0 0 1 .43.172v.99c0 .414.337.75.75.75H15a.25.25 0 0 1 .25.25v1a.25.25 0 0 1-.25.25h-3.263a.75.75 0 0 0-.75.75v.99a.25.25 0 0 1-.432.172Zm-3.448-3.866a1.75 1.75 0 0 0 0 2.408l2.36 2.49c1.087 1.148 3.02.378 3.02-1.204v-.24H15a1.75 1.75 0 0 0 1.75-1.75v-1A1.75 1.75 0 0 0 15 9.75h-2.513v-.24c0-1.582-1.933-2.352-3.02-1.204l-2.36 2.49Z" fill="#151E28"/></svg>