<svg viewBox="0 0 24 24" fill="none" xmlns="http://www.w3.org/2000/svg"><circle cx="12" cy="12" r="10" fill="#636F7E" fill-opacity=".16"/><path fill-rule="evenodd" clip-rule="evenodd" d="M2.75 12a9.25 9.25 0 1 1 18.5 0 9.25 9.25 0 0 1-18.5 0ZM12 1.25C6.063 1.25 1.25 6.063 1.25 12S6.063 22.75 12 22.75 22.75 17.937 22.75 12 17.937 1.25 12 1.25Zm4 6a.75.75 0 0 1 .75.75v2.286a.75.75 0 0 1-1.5 0V9.81l-1.577 1.576a.75.75 0 0 1-1.06-1.06l1.576-1.577h-.475a.75.75 0 0 1 0-1.5H16Zm-8 0h2.286a.75.75 0 0 1 0 1.5H9.81l1.576 1.577a.75.75 0 0 1-1.06 1.06L8.75 9.811v.475a.75.75 0 0 1-1.5 0V8A.75.75 0 0 1 8 7.25Zm4.613 6.423a.75.75 0 0 1 1.06-1.06l1.577 1.576v-.475a.75.75 0 0 1 1.5 0V16a.75.75 0 0 1-.75.75h-2.286a.75.75 0 0 1 0-1.5h.475l-1.576-1.577Zm-2.286-1.06a.75.75 0 0 1 1.06 1.06L9.811 15.25h.475a.75.75 0 0 1 0 1.5H8a.75.75 0 0 1-.75-.75v-2.286a.75.75 0 0 1 1.5 0v.475l1.577-1.576Z" fill="#151E28"/></svg>