<svg viewBox="0 0 24 24" fill="none" xmlns="http://www.w3.org/2000/svg"><path d="M18 19H7.272c-.89 0-1.337-1.077-.707-1.707l3.243-3.242-3.536-3.536a1 1 0 0 1 0-1.414l2.829-2.829a1 1 0 0 1 1.414 0l3.535 3.536 3.243-3.243c.63-.63 1.707-.184 1.707.707V18a1 1 0 0 1-1 1Z" fill="#636F7E" fill-opacity=".16"/><path fill-rule="evenodd" clip-rule="evenodd" d="M18.25 18a.25.25 0 0 1-.25.25H7.272a.25.25 0 0 1-.177-.427l3.243-3.242a.75.75 0 0 0 0-1.06L6.802 9.984a.25.25 0 0 1 0-.354l2.829-2.828a.25.25 0 0 1 .353 0l3.536 3.535a.75.75 0 0 0 1.06 0l3.243-3.242a.25.25 0 0 1 .427.176V18ZM18 19.75A1.75 1.75 0 0 0 19.75 18V7.272c0-1.559-1.885-2.34-2.988-1.237L14.05 8.747l-3.005-3.005a1.75 1.75 0 0 0-2.475 0L5.742 8.57a1.75 1.75 0 0 0 0 2.475l3.005 3.005-2.712 2.713c-1.103 1.102-.322 2.987 1.237 2.987H18ZM2.913 8.217a.75.75 0 0 0 1.06 0l4.244-4.243a.75.75 0 1 0-1.061-1.06L2.913 7.156a.75.75 0 0 0 0 1.06Z" fill="#151E28"/></svg>