<svg viewBox="0 0 24 24" fill="none" xmlns="http://www.w3.org/2000/svg"><path fill-rule="evenodd" clip-rule="evenodd" d="M6.55 20h10.9c1.82 0 2.731 0 3.257-.382a2 2 0 0 0 .813-1.41c.068-.647-.389-1.435-1.3-3.011l-5.45-9.414c-.91-1.57-1.364-2.355-1.957-2.619a2 2 0 0 0-1.626 0c-.593.264-1.047 1.05-1.956 2.62l-5.45 9.413c-.913 1.576-1.369 2.364-1.301 3.01a2 2 0 0 0 .813 1.41C3.819 20 4.729 20 6.55 20Zm3.974-10H14a1 1 0 0 1 1 1v3.476c0 .906-1.108 1.345-1.729.685l-.635-.675-.893.893a1 1 0 0 1-1.415 0l-.707-.707a1 1 0 0 1 0-1.415l.893-.893-.676-.636c-.66-.62-.22-1.728.686-1.728Z" fill="#636F7E" fill-opacity=".16"/><path fill-rule="evenodd" clip-rule="evenodd" d="M13.117 2.479a2.75 2.75 0 0 0-2.234 0c-.485.216-.844.614-1.167 1.071-.322.454-.677 1.068-1.115 1.825l-.02.033-5.45 9.413-.018.033c-.44.76-.797 1.375-1.03 1.882-.237.51-.404 1.02-.35 1.55a2.75 2.75 0 0 0 1.119 1.938c.43.313.956.424 1.515.475.556.051 1.267.051 2.145.051h10.976c.878 0 1.59 0 2.145-.051.56-.051 1.085-.162 1.515-.475a2.75 2.75 0 0 0 1.118-1.939c.055-.529-.112-1.04-.348-1.55-.234-.506-.59-1.121-1.03-1.881l-.02-.033-5.45-9.413-.019-.033c-.438-.758-.793-1.37-1.114-1.825-.324-.457-.683-.855-1.168-1.071Zm-1.625 1.37a1.25 1.25 0 0 1 1.016 0c.108.049.273.174.552.568.277.391.598.944 1.06 1.742l5.45 9.413c.464.801.785 1.357.986 1.793.204.44.23.647.218.765a1.25 1.25 0 0 1-.508.881c-.095.07-.288.15-.77.194-.479.044-1.12.045-2.046.045H6.55c-.925 0-1.567 0-2.046-.045-.482-.044-.675-.124-.77-.194a1.25 1.25 0 0 1-.508-.881c-.013-.118.014-.325.217-.765.202-.436.523-.992.987-1.793L9.88 6.16c.462-.798.783-1.35 1.06-1.742.279-.394.444-.52.552-.567ZM14 10.75a.25.25 0 0 1 .25.25v3.476a.25.25 0 0 1-.432.172l-.636-.676a.75.75 0 0 0-1.077-.017l-.893.893a.25.25 0 0 1-.353 0l-.707-.707a.25.25 0 0 1 0-.353l.893-.893a.75.75 0 0 0-.017-1.077l-.676-.636a.25.25 0 0 1 .171-.432H14Zm1.75.25A1.75 1.75 0 0 0 14 9.25h-3.477c-1.585 0-2.353 1.94-1.198 3.025l.112.106-.346.346a1.75 1.75 0 0 0 0 2.475l.707.707a1.75 1.75 0 0 0 2.475 0l.346-.346.106.112c1.086 1.155 3.025.387 3.025-1.199V11Zm-7.72 3.848a.75.75 0 0 0-1.06 1.061l2.12 2.121a.75.75 0 0 0 1.06-1.06l-2.12-2.122Z" fill="#151E28"/></svg>