<svg viewBox="0 0 24 24" fill="none" xmlns="http://www.w3.org/2000/svg"><path d="M3 13v-1h18v1c0 2.8 0 4.2-.545 5.27a5 5 0 0 1-2.185 2.185C17.2 21 15.8 21 13 21h-2c-2.8 0-4.2 0-5.27-.545a5 5 0 0 1-2.185-2.185C3 17.2 3 15.8 3 13Z" fill="#636F7E" fill-opacity=".16"/><path fill-rule="evenodd" clip-rule="evenodd" d="M3.75 12a.75.75 0 0 0-1.5 0v1.034c0 1.371 0 2.447.07 3.311.073.88.221 1.607.557 2.265a5.75 5.75 0 0 0 2.513 2.513c.658.336 1.385.485 2.265.556.864.071 1.94.071 3.311.071h2.068c1.371 0 2.447 0 3.311-.07.88-.072 1.607-.221 2.265-.557a5.75 5.75 0 0 0 2.513-2.513c.336-.658.485-1.385.556-2.265.071-.864.071-1.94.071-3.311V12a.75.75 0 0 0-1.5 0v1c0 1.412 0 2.427-.066 3.223-.064.787-.188 1.295-.397 1.707a4.251 4.251 0 0 1-1.857 1.857c-.412.21-.92.333-1.707.397-.796.065-1.81.066-3.223.066h-2c-1.413 0-2.427 0-3.223-.066-.787-.064-1.295-.188-1.706-.397a4.25 4.25 0 0 1-1.858-1.857c-.21-.412-.333-.92-.397-1.707-.065-.796-.066-1.81-.066-3.223v-1Zm9-9a.75.75 0 0 0-1.5 0v11.19l-2.72-2.72a.75.75 0 0 0-1.06 1.06l4 4a.75.75 0 0 0 1.06 0l4-4a.75.75 0 1 0-1.06-1.06l-2.72 2.72V3Z" fill="#151E28"/></svg>