<svg viewBox="0 0 24 24" fill="none" xmlns="http://www.w3.org/2000/svg"><path fill-rule="evenodd" clip-rule="evenodd" d="M12 22c5.523 0 10-4.477 10-10S17.523 2 12 2 2 6.477 2 12s4.477 10 10 10Zm-3.8-8.806.092-3.429a1 1 0 0 1 .973-.973l3.43-.092c.903-.025 1.373 1.067.733 1.706l-.7.7 2.308 2.308a1 1 0 0 1 0 1.414l-.708.708a1 1 0 0 1-1.414 0l-2.307-2.308-.7.7c-.64.64-1.732.17-1.707-.734Z" fill="#636F7E" fill-opacity=".16"/><path fill-rule="evenodd" clip-rule="evenodd" d="M2.75 12a9.25 9.25 0 1 1 18.5 0 9.25 9.25 0 0 1-18.5 0ZM12 1.25C6.063 1.25 1.25 6.063 1.25 12S6.063 22.75 12 22.75 22.75 17.937 22.75 12 17.937 1.25 12 1.25ZM9.042 9.785a.25.25 0 0 1 .243-.243l3.43-.093a.25.25 0 0 1 .183.427l-.7.7a.75.75 0 0 0 0 1.061l2.307 2.307a.25.25 0 0 1 0 .354l-.707.707a.25.25 0 0 1-.354 0l-2.307-2.307a.75.75 0 0 0-1.06 0l-.7.7a.25.25 0 0 1-.428-.183l.093-3.43Zm.203-1.742a1.75 1.75 0 0 0-1.702 1.702l-.093 3.43c-.043 1.58 1.868 2.402 2.987 1.284l.17-.17 1.777 1.777a1.75 1.75 0 0 0 2.475 0l.707-.707a1.75 1.75 0 0 0 0-2.475l-1.777-1.777.17-.17c1.118-1.119.296-3.03-1.285-2.987l-3.43.093Z" fill="#151E28"/></svg>