<svg viewBox="0 0 24 24" fill="none" xmlns="http://www.w3.org/2000/svg"><path d="m7.956 15.038.03-4.697c.005-.88 1.063-1.325 1.695-.712l1.09 1.055 1.562-1.563a1 1 0 0 1 1.414 0l1.132 1.131a1 1 0 0 1 0 1.415l-1.563 1.563 1.055 1.089c.613.632.168 1.69-.712 1.696l-4.697.03a1 1 0 0 1-1.006-1.007Z" fill="#636F7E" fill-opacity=".16"/><path fill-rule="evenodd" clip-rule="evenodd" d="M8.957 15.295a.25.25 0 0 1-.252-.252l.03-4.697a.25.25 0 0 1 .424-.178l1.09 1.055a.75.75 0 0 0 1.051-.008l1.563-1.563a.25.25 0 0 1 .354 0l1.131 1.131a.25.25 0 0 1 0 .354L12.785 12.7a.75.75 0 0 0-.008 1.052l1.055 1.089a.25.25 0 0 1-.178.424l-4.697.03Zm-1.752-.261a1.75 1.75 0 0 0 1.762 1.76l4.697-.03c1.54-.009 2.318-1.86 1.245-2.967l-.541-.559 1.041-1.04a1.75 1.75 0 0 0 0-2.476l-1.131-1.131a1.75 1.75 0 0 0-2.475 0l-1.041 1.041-.559-.541c-1.106-1.073-2.958-.295-2.968 1.245l-.03 4.697Zm6.72-8.564a.75.75 0 0 0 0 1.06l2.545 2.546a.75.75 0 0 0 1.06-1.06L14.985 6.47a.75.75 0 0 0-1.06 0Z" fill="#151E28"/></svg>