<svg viewBox="0 0 24 24" fill="none" xmlns="http://www.w3.org/2000/svg"><path d="m15.424 15.906-4.895.088c-.9.016-1.361-1.071-.725-1.707l1.218-1.219-2.977-2.977a1 1 0 0 1 0-1.414l1.131-1.132a1 1 0 0 1 1.415 0l2.977 2.978 1.219-1.22c.636-.635 1.723-.173 1.707.726l-.088 4.895a1 1 0 0 1-.982.982Z" fill="#636F7E" fill-opacity=".16"/><path fill-rule="evenodd" clip-rule="evenodd" d="M15.656 14.911a.25.25 0 0 1-.245.245l-4.896.088a.25.25 0 0 1-.181-.427l1.219-1.219a.75.75 0 0 0 0-1.06L8.575 9.56a.25.25 0 0 1 0-.354l1.132-1.131a.25.25 0 0 1 .353 0l2.978 2.977a.75.75 0 0 0 1.06 0l1.219-1.219a.25.25 0 0 1 .427.181l-.088 4.896Zm-.218 1.745a1.75 1.75 0 0 0 1.718-1.718l.088-4.896c.028-1.574-1.875-2.382-2.988-1.268l-.688.688-2.447-2.447a1.75 1.75 0 0 0-2.475 0L7.515 8.146a1.75 1.75 0 0 0 0 2.475l2.447 2.447-.689.689c-1.113 1.113-.305 3.015 1.269 2.987l4.896-.088Z" fill="#151E28"/></svg>