<svg viewBox="0 0 24 24" fill="none" xmlns="http://www.w3.org/2000/svg"><path fill-rule="evenodd" clip-rule="evenodd" d="M12 22c5.523 0 10-4.477 10-10S17.523 2 12 2 2 6.477 2 12s4.477 10 10 10Zm1.99-6.822 2.359-2.49a1 1 0 0 0 0-1.376l-2.36-2.49c-.622-.656-1.726-.216-1.726.688v.99H11a1 1 0 0 0-1 1v1a1 1 0 0 0 1 1h1.263v.99c0 .904 1.104 1.344 1.726.688Z" fill="#636F7E" fill-opacity=".16"/><path fill-rule="evenodd" clip-rule="evenodd" d="M2.75 12a9.25 9.25 0 1 1 18.5 0 9.25 9.25 0 0 1-18.5 0ZM12 1.25C6.063 1.25 1.25 6.063 1.25 12S6.063 22.75 12 22.75 22.75 17.937 22.75 12 17.937 1.25 12 1.25Zm1.445 13.412 2.359-2.49a.25.25 0 0 0 0-.344l-2.36-2.49a.25.25 0 0 0-.43.172v.99a.75.75 0 0 1-.75.75H11a.25.25 0 0 0-.25.25v1c0 .138.112.25.25.25h1.263a.75.75 0 0 1 .75.75v.99a.25.25 0 0 0 .432.172Zm3.448-3.866a1.75 1.75 0 0 1 0 2.408l-2.36 2.49c-1.087 1.148-3.02.378-3.02-1.204v-.24H11a1.75 1.75 0 0 1-1.75-1.75v-1c0-.966.784-1.75 1.75-1.75h.513v-.24c0-1.582 1.933-2.352 3.02-1.204l2.36 2.49ZM8.75 13.5a.75.75 0 0 1-1.5 0v-3a.75.75 0 0 1 1.5 0v3Z" fill="#151E28"/></svg>