<svg viewBox="0 0 24 24" fill="none" xmlns="http://www.w3.org/2000/svg"><circle cx="12" cy="12" r="10" fill="#636F7E" fill-opacity=".16"/><path fill-rule="evenodd" clip-rule="evenodd" d="M2.75 12a9.25 9.25 0 1 1 18.5 0 9.25 9.25 0 0 1-18.5 0ZM12 1.25C6.063 1.25 1.25 6.063 1.25 12S6.063 22.75 12 22.75 22.75 17.937 22.75 12 17.937 1.25 12 1.25Zm-4 6a.75.75 0 0 0-.75.75v3a.75.75 0 0 0 1.5 0V9.81l5.44 5.44H13a.75.75 0 0 0 0 1.5h3a.75.75 0 0 0 .75-.75v-3a.75.75 0 0 0-1.5 0v1.19L9.81 8.75H11a.75.75 0 0 0 0-1.5H8Z" fill="#151E28"/></svg>