<svg viewBox="0 0 24 24" fill="none" xmlns="http://www.w3.org/2000/svg"><circle cx="12" cy="12" r="10" fill="#636F7E" fill-opacity=".16"/><path fill-rule="evenodd" clip-rule="evenodd" d="M12 2.75a9.25 9.25 0 1 0 0 18.5 9.25 9.25 0 0 0 0-18.5ZM1.25 12C1.25 6.063 6.063 1.25 12 1.25S22.75 6.063 22.75 12 17.937 22.75 12 22.75 1.25 17.937 1.25 12Zm13.9 0a.75.75 0 0 0-.75-.75H12a.75.75 0 0 0-.75.75v2.4a.75.75 0 0 0 1.5 0v-.59l2.72 2.72a.75.75 0 1 0 1.06-1.06l-2.72-2.72h.59a.75.75 0 0 0 .75-.75ZM11.2 7.25h-.03c-.535 0-.98 0-1.345.03-.38.03-.736.098-1.073.27A2.75 2.75 0 0 0 7.55 8.752c-.172.337-.24.693-.27 1.073-.03.365-.03.81-.03 1.345v1.855c0 .445 0 .816.02 1.12.022.317.069.617.19.907a2.75 2.75 0 0 0 1.488 1.489.75.75 0 1 0 .574-1.386 1.25 1.25 0 0 1-.677-.677c-.032-.077-.061-.194-.078-.435A17.086 17.086 0 0 1 8.75 13v-1.8c0-.572 0-.957.025-1.253.023-.287.065-.424.111-.515a1.25 1.25 0 0 1 .546-.546c.091-.046.228-.088.515-.111.296-.024.68-.025 1.253-.025H13c.476 0 .796 0 1.043.017.241.017.358.046.435.078.307.127.55.37.677.677a.75.75 0 0 0 1.386-.574 2.75 2.75 0 0 0-1.489-1.489c-.29-.12-.59-.167-.907-.188-.304-.021-.675-.021-1.12-.021H11.2Z" fill="#151E28"/></svg>