<svg viewBox="0 0 24 24" fill="none" xmlns="http://www.w3.org/2000/svg"><path d="m6.67 12.694 3.4 3.524c.624.647 1.72.205 1.72-.694V13.8H16a1 1 0 0 0 1-1v-1.6a1 1 0 0 0-1-1h-4.21V8.477c0-.9-1.095-1.342-1.72-.695l-3.4 3.524a1 1 0 0 0 0 1.388Z" fill="#636F7E" fill-opacity=".16"/><path fill-rule="evenodd" clip-rule="evenodd" d="M7.21 11.827a.25.25 0 0 0 0 .347l3.4 3.523a.25.25 0 0 0 .43-.173V13.8a.75.75 0 0 1 .75-.75H16a.25.25 0 0 0 .25-.25v-1.6a.25.25 0 0 0-.25-.25h-4.21a.75.75 0 0 1-.75-.75V8.477a.25.25 0 0 0-.43-.174l-3.4 3.524Zm-1.08 1.388a1.75 1.75 0 0 1 0-2.43l3.4-3.523c1.093-1.133 3.01-.36 3.01 1.215v.973H16c.966 0 1.75.784 1.75 1.75v1.6A1.75 1.75 0 0 1 16 14.55h-3.46v.974c0 1.574-1.917 2.348-3.01 1.215l-3.4-3.524Z" fill="#151E28"/></svg>