<svg viewBox="0 0 24 24" fill="none" xmlns="http://www.w3.org/2000/svg"><path d="M5 18.056V7.33c0-.891 1.077-1.338 1.707-.708L9.95 9.864l3.535-3.535a1 1 0 0 1 1.415 0l2.828 2.828a1 1 0 0 1 0 1.414l-3.536 3.536 3.243 3.242c.63.63.184 1.707-.707 1.707H6a1 1 0 0 1-1-1Z" fill="#636F7E" fill-opacity=".16"/><path fill-rule="evenodd" clip-rule="evenodd" d="M6 18.306a.25.25 0 0 1-.25-.25V7.328a.25.25 0 0 1 .427-.176l3.242 3.242a.75.75 0 0 0 1.061 0l3.536-3.535a.25.25 0 0 1 .353 0l2.829 2.828a.25.25 0 0 1 0 .354l-3.536 3.535a.75.75 0 0 0 0 1.06l3.243 3.244a.25.25 0 0 1-.177.426H6Zm-1.75-.25c0 .967.784 1.75 1.75 1.75h10.728c1.559 0 2.34-1.885 1.237-2.987l-2.712-2.712 3.005-3.006a1.75 1.75 0 0 0 0-2.474L15.43 5.798a1.75 1.75 0 0 0-2.475 0L9.95 8.803 7.237 6.091C6.135 4.989 4.25 5.769 4.25 7.328v10.728ZM15.783 2.97a.75.75 0 0 0 0 1.06l4.243 4.243a.75.75 0 0 0 1.06-1.06L16.845 2.97a.75.75 0 0 0-1.06 0Z" fill="#151E28"/></svg>