<svg viewBox="0 0 24 24" fill="none" xmlns="http://www.w3.org/2000/svg"><path fill-rule="evenodd" clip-rule="evenodd" d="M21 6a3 3 0 1 1-6 0 3 3 0 0 1 6 0ZM6 21a3 3 0 1 0 0-6 3 3 0 0 0 0 6Zm12 0a3 3 0 1 0 0-6 3 3 0 0 0 0 6ZM6 9a3 3 0 1 0 0-6 3 3 0 0 0 0 6Z" fill="#636F7E" fill-opacity=".16"/><path fill-rule="evenodd" clip-rule="evenodd" d="M18 3.75a2.25 2.25 0 1 0 0 4.5 2.25 2.25 0 0 0 0-4.5ZM21.75 6a3.751 3.751 0 0 1-3 3.675v4.65a3.751 3.751 0 1 1-4.425 4.425h-4.65a3.751 3.751 0 1 1-4.425-4.425v-4.65A3.751 3.751 0 1 1 9.675 5.25h4.65A3.751 3.751 0 0 1 21.75 6ZM9.675 17.25h4.65a3.755 3.755 0 0 1 2.925-2.925v-4.65a3.755 3.755 0 0 1-2.925-2.925h-4.65A3.754 3.754 0 0 1 6.75 9.675v4.65a3.755 3.755 0 0 1 2.925 2.925ZM8.25 18a2.25 2.25 0 1 1-4.5 0 2.25 2.25 0 0 1 4.5 0Zm7.5 0a2.25 2.25 0 1 0 4.5 0 2.25 2.25 0 0 0-4.5 0ZM8.25 6a2.25 2.25 0 1 0-4.5 0 2.25 2.25 0 0 0 4.5 0Z" fill="#151E28"/></svg>