<svg viewBox="0 0 24 24" fill="none" xmlns="http://www.w3.org/2000/svg"><path fill-rule="evenodd" clip-rule="evenodd" d="M5.561 12c-2.133-3.245-2.77-6.347-1.34-7.778 1.431-1.43 4.533-.793 7.78 1.34 3.245-2.133 6.347-2.77 7.777-1.34 1.43 1.431.794 4.533-1.34 7.778 2.134 3.246 2.77 6.348 1.34 7.778-1.43 1.431-4.532.794-7.778-1.339-3.246 2.133-6.347 2.77-7.778 1.34-1.43-1.431-.794-4.533 1.34-7.779Z" fill="#636F7E" fill-opacity=".16"/><path fill-rule="evenodd" clip-rule="evenodd" d="M4.702 15.264c-.748 1.995-.59 3.344.05 3.984.37.37.961.583 1.823.544.864-.04 1.926-.336 3.103-.895a.75.75 0 0 1 .644 1.354c-1.29.614-2.552.987-3.678 1.039-1.126.052-2.19-.219-2.952-.981-1.313-1.313-1.181-3.473-.394-5.572.813-2.169 2.43-4.597 4.636-6.803a24.776 24.776 0 0 1 1.584-1.453.75.75 0 0 1 .964 1.15c-.501.42-.999.876-1.487 1.364-2.09 2.09-3.57 4.343-4.293 6.269Zm8.556-10.48a.75.75 0 0 1 .35-1.002c1.304-.628 2.58-1.012 3.717-1.07 1.139-.058 2.214.21 2.984.98 1.312 1.312 1.18 3.472.393 5.571-.813 2.17-2.43 4.597-4.636 6.803-.54.54-1.094 1.045-1.652 1.51a.75.75 0 1 1-.96-1.152c.523-.436 1.042-.91 1.551-1.419 2.09-2.09 3.57-4.342 4.293-6.268.748-1.996.59-3.344-.05-3.985-.373-.372-.972-.587-1.846-.542-.876.045-1.952.35-3.143.924a.75.75 0 0 1-1-.35ZM13 12a1 1 0 1 1-2 0 1 1 0 0 1 2 0ZM4.753 4.752c.64-.64 1.989-.798 3.984-.05 1.926.723 4.179 2.203 6.269 4.293.488.488.943.986 1.364 1.487a.75.75 0 1 0 1.15-.964 24.76 24.76 0 0 0-1.454-1.584c-2.205-2.206-4.633-3.823-6.802-4.636-2.1-.787-4.26-.919-5.572.394-.763.762-1.033 1.826-.981 2.953.051 1.125.424 2.386 1.038 3.677a.75.75 0 1 0 1.355-.644c-.56-1.177-.855-2.239-.895-3.103-.04-.862.174-1.454.544-1.823Zm15.465 8.856a.75.75 0 1 0-1.351.651c.574 1.191.879 2.267.924 3.143.044.874-.17 1.473-.543 1.846-.64.64-1.989.798-3.984.05-1.926-.722-4.179-2.203-6.269-4.293a23.23 23.23 0 0 1-1.418-1.551.75.75 0 0 0-1.153.96c.466.558.97 1.111 1.51 1.652 2.206 2.206 4.634 3.823 6.803 4.636 2.1.787 4.26.919 5.572-.393.77-.77 1.038-1.846.98-2.984-.058-1.137-.442-2.412-1.07-3.717Z" fill="#151E28"/></svg>