<svg viewBox="0 0 24 24" fill="none" xmlns="http://www.w3.org/2000/svg"><path d="M7 10h14s0 6-7 6-7-6-7-6Z" fill="#636F7E" fill-opacity=".16"/><path fill-rule="evenodd" clip-rule="evenodd" d="M2 3.75c.738 0 .994.004 1.208.05a2.25 2.25 0 0 1 1.516 1.143c.103.193.177.438.38 1.148l1.15 4.025c.001.052.005.121.012.204a7.388 7.388 0 0 0 .96 3.058c1.012 1.733 3.01 3.372 6.774 3.372 3.764 0 5.762-1.64 6.773-3.372a7.387 7.387 0 0 0 .977-3.347V9.97l-.002-.065a7.102 7.102 0 0 0-.12-.984 7.386 7.386 0 0 0-.855-2.298C19.763 4.89 17.764 3.25 14 3.25a.75.75 0 0 0-.75.75v5.25H7.566l-1.02-3.57-.024-.083C6.352 5 6.235 4.59 6.048 4.24l-.662.352.662-.352a3.75 3.75 0 0 0-2.527-1.906c-.389-.083-.815-.083-1.436-.083H2a.75.75 0 0 0 0 1.5Zm12.75 5.5h5.413l-.009-.044a5.888 5.888 0 0 0-.677-1.828c-.68-1.165-2.004-2.409-4.727-2.602V9.25Zm-6.904 1.544-.009-.044h12.326l-.008.044a5.887 5.887 0 0 1-.678 1.828C18.738 13.89 17.236 15.25 14 15.25s-4.738-1.36-5.477-2.628a5.888 5.888 0 0 1-.677-1.828ZM10 18.75a1.25 1.25 0 1 0 0 2.5 1.25 1.25 0 0 0 0-2.5ZM7.25 20a2.75 2.75 0 1 1 5.5 0 2.75 2.75 0 0 1-5.5 0ZM18 18.75a1.25 1.25 0 1 0 0 2.5 1.25 1.25 0 0 0 0-2.5ZM15.25 20a2.75 2.75 0 1 1 5.5 0 2.75 2.75 0 0 1-5.5 0Z" fill="#151E28"/></svg>