<svg viewBox="0 0 24 24" fill="none" xmlns="http://www.w3.org/2000/svg"><path d="m19.625 14.245-.29-5.2c-.118-2.127-.177-3.19-.628-3.998a4 4 0 0 0-1.735-1.64C16.141 3 15.076 3 12.945 3h-1.89c-2.131 0-3.196 0-4.028.406a4 4 0 0 0-1.734 1.641c-.452.807-.51 1.87-.63 3.998l-.288 5.2c-.13 2.351-.196 3.527.221 4.431a4 4 0 0 0 1.757 1.857C7.233 21 8.41 21 10.765 21h2.47c2.354 0 3.532 0 4.411-.467a4 4 0 0 0 1.757-1.857c.417-.904.352-2.08.222-4.431Z" fill="#636F7E" fill-opacity=".16"/><path fill-rule="evenodd" clip-rule="evenodd" d="M11.054 2.25h-.032c-1.038 0-1.862 0-2.528.053-.682.055-1.261.168-1.796.43a4.75 4.75 0 0 0-2.06 1.948c-.29.519-.436 1.09-.528 1.77-.09.662-.136 1.484-.193 2.52l-.002.032-.289 5.2-.002.034c-.063 1.147-.114 2.055-.094 2.787.021.748.116 1.383.385 1.966a4.75 4.75 0 0 0 2.086 2.206c.568.3 1.197.43 1.942.493.73.061 1.64.061 2.788.061h2.537c1.15 0 2.058 0 2.788-.06.746-.063 1.374-.193 1.942-.494a4.75 4.75 0 0 0 2.086-2.206c.27-.583.364-1.218.385-1.966.02-.732-.03-1.64-.094-2.787l-.002-.034-.289-5.2-.001-.032c-.058-1.036-.104-1.859-.194-2.52-.092-.68-.237-1.251-.528-1.77a4.75 4.75 0 0 0-2.06-1.949c-.534-.26-1.113-.374-1.795-.429-.667-.053-1.49-.053-2.529-.053h-1.923ZM7.357 4.08c.296-.145.665-.234 1.256-.282.6-.047 1.364-.048 2.441-.048h1.891c1.078 0 1.841 0 2.441.048.591.048.96.137 1.257.282a3.25 3.25 0 0 1 1.409 1.333c.161.288.271.652.351 1.24.081.595.124 1.358.184 2.434l.289 5.2c.066 1.188.112 2.033.093 2.696-.018.654-.099 1.058-.247 1.379a3.25 3.25 0 0 1-1.427 1.509c-.312.165-.712.269-1.364.323-.66.055-1.506.056-2.697.056h-2.469c-1.19 0-2.037 0-2.697-.056-.652-.054-1.051-.158-1.363-.323a3.25 3.25 0 0 1-1.428-1.51c-.148-.32-.229-.724-.247-1.378-.019-.663.028-1.508.094-2.696l.289-5.2c.06-1.076.102-1.839.183-2.435.08-.587.19-.95.351-1.239a3.25 3.25 0 0 1 1.41-1.333ZM9.75 7a.75.75 0 0 0-1.5 0v2a3.75 3.75 0 1 0 7.5 0V7a.75.75 0 0 0-1.5 0v2a2.25 2.25 0 1 1-4.5 0V7Z" fill="#151E28"/></svg>