<svg viewBox="0 0 24 24" fill="none" xmlns="http://www.w3.org/2000/svg"><path fill-rule="evenodd" clip-rule="evenodd" d="M18 5h2.114a2 2 0 0 1 1.873 2.702l-1.478 3.94A7.998 7.998 0 0 0 20 14.45V21a1 1 0 0 1-1 1h-2.18a1 1 0 0 1-.98-.804L14 12l1.433-1.433a7.999 7.999 0 0 0 2.104-3.717L18 5ZM9.896 22h.208c1.023 0 1.535 0 1.94-.192a2 2 0 0 0 .86-.778c.232-.385.282-.894.384-1.912L14 12V9.597a4 4 0 1 1-8 0V12l.712 7.118c.102 1.018.153 1.527.384 1.912a2 2 0 0 0 .86.778c.405.192.917.192 1.94.192Z" fill="#636F7E" fill-opacity=".16"/><path fill-rule="evenodd" clip-rule="evenodd" d="M13.295 1.744a.748.748 0 0 1 .992-.437c.06.025.117.058.168.097L18.25 4.25h1.864a2.75 2.75 0 0 1 2.575 3.716l-1.477 3.939a7.251 7.251 0 0 0-.462 2.546V21A1.75 1.75 0 0 1 19 22.75h-2.18a1.75 1.75 0 0 1-1.716-1.407l-.856-4.281-.214 2.131-.002.029c-.049.484-.09.89-.15 1.222-.061.348-.153.67-.335.972a2.75 2.75 0 0 1-1.182 1.07c-.319.15-.65.21-1 .238-.337.026-.745.026-1.232.026h-.266c-.487 0-.895 0-1.231-.026-.352-.028-.682-.087-1-.237a2.75 2.75 0 0 1-1.183-1.07c-.182-.303-.274-.625-.336-.973-.06-.331-.1-.738-.149-1.222l-.002-.029-.712-7.118A.75.75 0 0 1 5.25 12V2a.75.75 0 0 1 1.5 0v7.597a3.25 3.25 0 0 0 6.5 0V2c0-.09.016-.176.045-.256ZM14.75 3.5v6.689l.153-.152a7.25 7.25 0 0 0 1.907-3.369l.342-1.367L14.75 3.5Zm-1.621 9.673a4.756 4.756 0 0 1-6.258 0l.587 5.87c.052.521.087.87.135 1.136.047.258.096.382.145.465.128.212.315.38.538.486.087.042.215.078.477.098.27.021.62.022 1.143.022h.208c.523 0 .873 0 1.143-.022.261-.02.39-.056.477-.098a1.25 1.25 0 0 0 .537-.486c.05-.083.1-.207.146-.465.047-.267.083-.614.135-1.135l.587-5.871Zm5.136-6.14.32-1.283h1.529a1.25 1.25 0 0 1 1.17 1.689l-1.477 3.94a8.75 8.75 0 0 0-.557 3.072V21a.25.25 0 0 1-.25.25h-2.18a.25.25 0 0 1-.245-.201l-1.76-8.803 1.149-1.149a8.75 8.75 0 0 0 2.301-4.065Z" fill="#151E28"/></svg>