<svg viewBox="0 0 24 24" fill="none" xmlns="http://www.w3.org/2000/svg"><path d="M2 10.8v2.4c0 1.68 0 2.52.327 3.162a3 3 0 0 0 1.311 1.311C4.28 18 5.12 18 6.8 18h8.4c1.68 0 2.52 0 3.162-.327a3 3 0 0 0 1.311-1.311C20 15.72 20 14.88 20 13.2v-2.4c0-1.68 0-2.52-.327-3.162a3 3 0 0 0-1.311-1.311C17.72 6 16.88 6 15.2 6H6.8c-1.68 0-2.52 0-3.162.327a3 3 0 0 0-1.311 1.311C2 8.28 2 9.12 2 10.8Z" fill="#636F7E" fill-opacity=".16"/><path fill-rule="evenodd" clip-rule="evenodd" d="M11 5.25a.75.75 0 0 1 .75.75v8a.75.75 0 0 1-1.5 0V6a.75.75 0 0 1 .75-.75Zm-4.2 0h-.032c-.813 0-1.469 0-2 .043-.546.045-1.026.14-1.47.366a3.75 3.75 0 0 0-1.64 1.639c-.226.444-.32.924-.365 1.47-.043.531-.043 1.187-.043 2v2.464c0 .813 0 1.469.043 2 .045.546.14 1.026.366 1.47a3.75 3.75 0 0 0 1.639 1.64c.444.226.924.32 1.47.365.531.043 1.187.043 2 .043H7a.75.75 0 0 0 0-1.5h-.2c-.852 0-1.447 0-1.91-.038-.453-.038-.714-.107-.911-.207a2.25 2.25 0 0 1-.984-.983c-.1-.198-.17-.459-.207-.913-.037-.462-.038-1.056-.038-1.909v-2.4c0-.852 0-1.447.038-1.91.037-.453.107-.714.207-.911a2.25 2.25 0 0 1 .984-.984c.197-.1.458-.17.912-.207.462-.037 1.057-.038 1.909-.038H7a.75.75 0 1 0 0-1.5h-.2Zm8.4 1.5c.852 0 1.447 0 1.91.038.453.037.714.107.912.207.423.216.767.56.983.984.1.197.17.458.207.912.037.462.038 1.057.038 1.909v2.4c0 .853 0 1.447-.038 1.91-.038.453-.107.714-.207.912a2.25 2.25 0 0 1-.983.983c-.198.1-.459.17-.913.207-.462.037-1.057.038-1.909.038H15a.75.75 0 0 0 0 1.5h.232c.813 0 1.469 0 2-.043.546-.045 1.026-.14 1.47-.366a3.75 3.75 0 0 0 1.64-1.639c.226-.444.32-.924.365-1.47.043-.531.043-1.187.043-2v-2.464c0-.813 0-1.469-.043-2-.045-.546-.14-1.026-.366-1.47a3.75 3.75 0 0 0-1.639-1.64c-.444-.226-.924-.32-1.47-.365-.531-.043-1.187-.043-2-.043H15a.75.75 0 0 0 0 1.5h.2ZM23.25 9a.75.75 0 0 0-1.5 0v6a.75.75 0 0 0 1.5 0V9ZM11 19a1 1 0 1 0 0-2 1 1 0 0 0 0 2Z" fill="#151E28"/></svg>