<svg viewBox="0 0 24 24" fill="none" xmlns="http://www.w3.org/2000/svg"><path d="M19 18H5a2 2 0 0 1-2-2c0-2.187 2-2 2-7a7 7 0 1 1 14 0c0 5 2 4.813 2 7a2 2 0 0 1-2 2Z" fill="#636F7E" fill-opacity=".16"/><path fill-rule="evenodd" clip-rule="evenodd" d="M12 2.75A6.25 6.25 0 0 0 5.75 9c0 2.622-.53 3.959-1.103 4.934-.135.23-.255.418-.36.584-.35.55-.537.845-.537 1.482 0 .69.56 1.25 1.25 1.25h14c.69 0 1.25-.56 1.25-1.25 0-.637-.187-.931-.537-1.482a18.734 18.734 0 0 1-.36-.584C18.78 12.96 18.25 11.623 18.25 9A6.25 6.25 0 0 0 12 2.75ZM4.25 9a7.75 7.75 0 1 1 15.5 0c0 2.378.47 3.448.897 4.175.076.13.162.262.25.398.396.611.853 1.316.853 2.427A2.75 2.75 0 0 1 19 18.75H5A2.75 2.75 0 0 1 2.25 16c0-1.11.457-1.816.853-2.427.088-.136.174-.268.25-.398.427-.727.897-1.797.897-4.175Zm4.671 10.293a.75.75 0 0 1 .957.457 2.251 2.251 0 0 0 4.244 0 .75.75 0 1 1 1.415.5 3.751 3.751 0 0 1-7.073 0 .75.75 0 0 1 .457-.957ZM12.75 8a.75.75 0 0 0-1.5 0v2.25H9a.75.75 0 0 0 0 1.5h2.25V14a.75.75 0 0 0 1.5 0v-2.25H15a.75.75 0 0 0 0-1.5h-2.25V8Z" fill="#151E28"/></svg>