<svg viewBox="0 0 24 24" fill="none" xmlns="http://www.w3.org/2000/svg"><path fill-rule="evenodd" clip-rule="evenodd" d="M6 21a4 4 0 1 0 0-8 4 4 0 0 0 0 8Zm12 0a4 4 0 1 0 0-8 4 4 0 0 0 0 8Z" fill="#636F7E" fill-opacity=".16"/><path fill-rule="evenodd" clip-rule="evenodd" d="M15.387 5.75a.25.25 0 0 0-.237.33l3.562 10.683a.75.75 0 0 1-1.424.474l-2.383-7.15-8.407 7.474a.75.75 0 0 1-.996-1.122l5.124-4.554a.71.71 0 0 1-.027-.048l-2.492-4.95a.25.25 0 0 0-.223-.137H5.5a.75.75 0 0 1 0-1.5h2.384a1.75 1.75 0 0 1 1.563.963l2.337 4.642L14.39 8.54l-.662-1.987a1.75 1.75 0 0 1 1.66-2.303H19A2.75 2.75 0 0 1 21.75 7v1a.75.75 0 0 1-1.5 0V7c0-.69-.56-1.25-1.25-1.25h-3.613ZM6 13.75A3.25 3.25 0 1 0 9.25 17a.75.75 0 0 1 1.5 0A4.75 4.75 0 1 1 6 12.25a.75.75 0 0 1 0 1.5Zm13.35-.59a.75.75 0 0 1 1.025-.274 4.75 4.75 0 1 1-6.78 2.333.75.75 0 1 1 1.391.562 3.25 3.25 0 1 0 4.639-1.597.75.75 0 0 1-.274-1.024Z" fill="#151E28"/></svg>