<svg viewBox="0 0 24 24" fill="none" xmlns="http://www.w3.org/2000/svg"><path fill-rule="evenodd" clip-rule="evenodd" d="M16.5 7.5 12 12V3l4.5 4.5ZM12 12v9l4.5-4.5L12 12Z" fill="#636F7E" fill-opacity=".16"/><path fill-rule="evenodd" clip-rule="evenodd" d="M12.53 2.47a.75.75 0 0 0-1.28.53v7.19L7.53 6.47a.75.75 0 0 0-1.06 1.06L10.94 12l-4.47 4.47a.75.75 0 1 0 1.06 1.06l3.72-3.72V21a.75.75 0 0 0 1.28.53l4.5-4.5a.75.75 0 0 0 0-1.06L13.06 12l3.97-3.97a.75.75 0 0 0 0-1.06l-4.5-4.5Zm2.91 5.03-2.69 2.69V4.81l2.69 2.69Zm0 9-2.69 2.69v-5.38l2.69 2.69Z" fill="#151E28"/></svg>