<svg viewBox="0 0 24 24" fill="none" xmlns="http://www.w3.org/2000/svg"><path d="m12 21 4.5-4.5L12 12v9Z" fill="#636F7E" fill-opacity=".16"/><path fill-rule="evenodd" clip-rule="evenodd" d="M1.47 1.47a.75.75 0 0 1 1.06 0l5 5 5 4.999 4.5 4.5v.001l5.5 5.5a.75.75 0 1 1-1.06 1.06l-4.97-4.97-3.97 3.97a.75.75 0 0 1-1.28-.53v-7.19l-3.72 3.72a.75.75 0 0 1-1.06-1.06L10.94 12 6.47 7.53l-5-5a.75.75 0 0 1 0-1.06Zm11.28 12.34v5.38l2.69-2.69-2.69-2.69ZM11.713 2.308a.75.75 0 0 1 .817.163l4.5 4.5a.75.75 0 0 1 0 1.06l-2 2a.75.75 0 0 1-1.06-1.06l1.47-1.47-2.69-2.69V8a.75.75 0 0 1-1.5 0V3a.75.75 0 0 1 .463-.693Z" fill="#151E28"/></svg>