<svg viewBox="0 0 24 24" fill="none" xmlns="http://www.w3.org/2000/svg"><path d="M19 18.89V7.8c0-1.68 0-2.52-.327-3.162a3 3 0 0 0-1.311-1.311C16.72 3 15.88 3 14.2 3H9.8c-1.68 0-2.52 0-3.162.327a3 3 0 0 0-1.311 1.311C5 5.28 5 6.12 5 7.8v11.09c0 1.005 0 1.508.208 1.778a1 1 0 0 0 .755.388c.34.013.75-.28 1.567-.863l2.61-1.865c.67-.477 1.004-.716 1.369-.809a1.99 1.99 0 0 1 .982 0c.365.093.7.332 1.369.81l2.61 1.864c.818.584 1.226.876 1.567.863a1 1 0 0 0 .755-.388c.208-.27.208-.773.208-1.777Z" fill="#636F7E" fill-opacity=".16"/><path fill-rule="evenodd" clip-rule="evenodd" d="M9.8 2.25h-.032c-.813 0-1.469 0-2 .043-.546.045-1.026.14-1.47.366a3.75 3.75 0 0 0-1.64 1.639c-.226.444-.32.924-.365 1.47-.043.531-.043 1.187-.043 2v11.158c0 .472 0 .878.03 1.197.028.318.095.692.335 1.003.317.411.8.66 1.32.68.393.014.736-.15 1.011-.31.277-.162.607-.398.991-.672l.029-.02 2.61-1.865c.72-.515.922-.643 1.117-.693.202-.05.412-.05.614 0 .195.05.396.178 1.117.693l2.61 1.864.029.02c.384.275.714.51.99.673.276.16.62.324 1.012.31a1.75 1.75 0 0 0 1.32-.68c.24-.311.307-.685.336-1.003.029-.32.029-.725.029-1.197V7.768c0-.813 0-1.469-.043-2-.045-.546-.14-1.026-.366-1.47a3.75 3.75 0 0 0-1.639-1.64c-.444-.226-.924-.32-1.47-.365-.531-.043-1.187-.043-2-.043H9.8ZM6.979 3.995c.197-.1.458-.17.912-.207.462-.037 1.057-.038 1.909-.038h4.4c.853 0 1.447 0 1.91.038.453.037.714.107.912.207.423.216.767.56.983.984.1.197.17.458.207.912.037.462.038 1.057.038 1.909v11.09c0 .518 0 .854-.023 1.097a1.082 1.082 0 0 1-.04.235.25.25 0 0 1-.162.083 1.076 1.076 0 0 1-.214-.104c-.21-.123-.484-.318-.905-.618l-2.61-1.865-.102-.073c-.568-.406-1.014-.725-1.519-.853a2.75 2.75 0 0 0-1.35 0c-.505.128-.95.447-1.519.853l-.102.073-2.61 1.865c-.42.3-.695.495-.905.618a1.08 1.08 0 0 1-.214.104.25.25 0 0 1-.163-.083 1.086 1.086 0 0 1-.04-.235 14.595 14.595 0 0 1-.022-1.096V7.8c0-.852 0-1.447.038-1.91.037-.453.107-.714.207-.911a2.25 2.25 0 0 1 .984-.984Zm9.02 4.566a.75.75 0 0 0-.997-1.122l-3.972 3.53-1.5-1.5a.75.75 0 0 0-1.06 1.061l2 2a.75.75 0 0 0 1.028.03l4.5-4Z" fill="#151E28"/></svg>