<svg viewBox="0 0 24 24" fill="none" xmlns="http://www.w3.org/2000/svg"><path d="M17 3H7a2 2 0 0 0-2 2v13a2 2 0 0 1 2-2h12V5a2 2 0 0 0-2-2Z" fill="#636F7E" fill-opacity=".16"/><path fill-rule="evenodd" clip-rule="evenodd" d="M7 2.25A2.75 2.75 0 0 0 4.25 5v13c0 .018 0 .036.002.054-.002.115-.002.239-.002.373v.146c0 .393 0 .696.053.963a2.75 2.75 0 0 0 2.16 2.161c.268.053.571.053.964.053h8.403c.535 0 .98 0 1.345-.03.38-.03.736-.098 1.073-.27a2.751 2.751 0 0 0 1.202-1.201c.172-.338.24-.694.27-1.074.03-.365.03-.81.03-1.345V5A2.75 2.75 0 0 0 17 2.25H7Zm11.25 14.5H7.5c-.5 0-.641.004-.744.024a1.25 1.25 0 0 0-.982.982c-.02.103-.024.243-.024.744 0 .5.004.641.024.744.099.496.486.883.982.982.103.02.243.024.744.024h8.3c.572 0 .957 0 1.252-.025.288-.023.425-.065.515-.111a1.25 1.25 0 0 0 .547-.547c.046-.09.088-.227.111-.515.024-.295.025-.68.025-1.252v-1.05Zm0-1.5V5c0-.69-.56-1.25-1.25-1.25H7c-.69 0-1.25.56-1.25 1.25v10.55c.375-.192.8-.3 1.25-.3h11.25ZM8.25 7A.75.75 0 0 1 9 6.25h6a.75.75 0 0 1 0 1.5H9A.75.75 0 0 1 8.25 7Z" fill="#151E28"/></svg>