<svg viewBox="0 0 24 24" fill="none" xmlns="http://www.w3.org/2000/svg"><path fill="#636F7E" fill-opacity=".16" d="M4 4h16v16H4z"/><path fill-rule="evenodd" clip-rule="evenodd" d="M4 5a1 1 0 1 0 0-2 1 1 0 0 0 0 2Zm1 7a1 1 0 1 1-2 0 1 1 0 0 1 2 0Zm0 8a1 1 0 1 1-2 0 1 1 0 0 1 2 0ZM5 8a1 1 0 1 1-2 0 1 1 0 0 1 2 0Zm-1 9a1 1 0 1 0 0-2 1 1 0 0 0 0 2Zm5 3a1 1 0 1 1-2 0 1 1 0 0 1 2 0Zm-1-7a1 1 0 1 0 0-2 1 1 0 0 0 0 2Zm1-9a1 1 0 1 1-2 0 1 1 0 0 1 2 0Zm3 17a1 1 0 1 0 0-2 1 1 0 0 0 0 2Zm1-9a1 1 0 1 1-2 0 1 1 0 0 1 2 0Zm-1-7a1 1 0 1 0 0-2 1 1 0 0 0 0 2Zm1 3a1 1 0 1 1-2 0 1 1 0 0 1 2 0Zm-1 9a1 1 0 1 0 0-2 1 1 0 0 0 0 2Zm5 3a1 1 0 1 1-2 0 1 1 0 0 1 2 0Zm-1-7a1 1 0 1 0 0-2 1 1 0 0 0 0 2Zm1-9a1 1 0 1 1-2 0 1 1 0 0 1 2 0Zm3 17a1 1 0 1 0 0-2 1 1 0 0 0 0 2Zm1-9a1 1 0 1 1-2 0 1 1 0 0 1 2 0Zm-1-7a1 1 0 1 0 0-2 1 1 0 0 0 0 2Zm1 3a1 1 0 1 1-2 0 1 1 0 0 1 2 0Zm-1 9a1 1 0 1 0 0-2 1 1 0 0 0 0 2Z" fill="#151E28"/></svg>