<svg viewBox="0 0 24 24" fill="none" xmlns="http://www.w3.org/2000/svg"><rect x="4" y="4" width="16" height="16" rx="2" fill="#636F7E" fill-opacity=".16"/><path fill-rule="evenodd" clip-rule="evenodd" d="M12.75 3a.75.75 0 0 0-1.5 0v8.25H3a.75.75 0 0 0 0 1.5h8.25V21a.75.75 0 0 0 1.5 0v-8.25H21a.75.75 0 0 0 0-1.5h-8.25V3ZM8 5a1 1 0 1 0 0-2 1 1 0 0 0 0 2Zm0 16a1 1 0 1 0 0-2 1 1 0 0 0 0 2Zm13-1a1 1 0 1 1-2 0 1 1 0 0 1 2 0ZM4 21a1 1 0 1 0 0-2 1 1 0 0 0 0 2ZM21 4a1 1 0 1 1-2 0 1 1 0 0 1 2 0ZM4 5a1 1 0 1 0 0-2 1 1 0 0 0 0 2Zm17 3a1 1 0 1 1-2 0 1 1 0 0 1 2 0ZM4 9a1 1 0 1 0 0-2 1 1 0 0 0 0 2Zm17 7a1 1 0 1 1-2 0 1 1 0 0 1 2 0ZM4 17a1 1 0 1 0 0-2 1 1 0 0 0 0 2Zm13 3a1 1 0 1 1-2 0 1 1 0 0 1 2 0ZM16 5a1 1 0 1 0 0-2 1 1 0 0 0 0 2Z" fill="#151E28"/></svg>