<svg viewBox="0 0 24 24" fill="none" xmlns="http://www.w3.org/2000/svg"><path d="M2 6a2 2 0 0 1 2-2h16a2 2 0 1 1 0 4H4a2 2 0 0 1-2-2Z" fill="#636F7E" fill-opacity=".16"/><path fill-rule="evenodd" clip-rule="evenodd" d="M1.25 6A2.75 2.75 0 0 1 4 3.25h16a2.75 2.75 0 1 1 0 5.5H4A2.75 2.75 0 0 1 1.25 6ZM4 4.75a1.25 1.25 0 1 0 0 2.5h16a1.25 1.25 0 1 0 0-2.5H4Zm0 4.5a.75.75 0 0 1 .75.75v6.8c0 .572 0 .957.025 1.252.023.288.065.425.111.515.12.236.311.427.547.547.09.046.227.088.514.111.296.024.68.025 1.253.025h9.6c.572 0 .957 0 1.252-.025.288-.023.425-.065.515-.111a1.25 1.25 0 0 0 .547-.547c.046-.09.088-.227.111-.515.024-.295.025-.68.025-1.252V10a.75.75 0 1 1 1.5 0v6.83c0 .535 0 .98-.03 1.345-.03.38-.098.736-.27 1.073a2.751 2.751 0 0 1-1.201 1.202c-.338.172-.694.24-1.074.27-.364.03-.81.03-1.345.03H7.17c-.535 0-.98 0-1.345-.03-.38-.03-.736-.098-1.073-.27a2.75 2.75 0 0 1-1.202-1.2c-.172-.338-.24-.694-.27-1.074-.03-.365-.03-.81-.03-1.345V10A.75.75 0 0 1 4 9.25Zm5 3a.75.75 0 0 0 0 1.5h6a.75.75 0 0 0 0-1.5H9Z" fill="#151E28"/></svg>