<svg viewBox="0 0 24 24" fill="none" xmlns="http://www.w3.org/2000/svg"><path d="M4 9h16v8.8c0 1.12 0 1.68-.218 2.108a2 2 0 0 1-.874.874C18.48 21 17.92 21 16.8 21H7.2c-1.12 0-1.68 0-2.108-.218a2 2 0 0 1-.874-.874C4 19.48 4 18.92 4 17.8V9Z" fill="#636F7E" fill-opacity=".16"/><path fill-rule="evenodd" clip-rule="evenodd" d="M8.306 2.25H8.18c-.704 0-1.257-.001-1.745.191a2.75 2.75 0 0 0-1.103.795c-.337.403-.51.926-.733 1.595l-.04.12-1.265 3.795a.744.744 0 0 0-.044.271v8.813c0 .535 0 .98.03 1.345.03.38.098.736.27 1.074a2.75 2.75 0 0 0 1.2 1.201c.338.172.694.24 1.074.27.365.03.81.03 1.345.03h9.661c.535 0 .98 0 1.345-.03.38-.03.736-.098 1.073-.27a2.749 2.749 0 0 0 1.202-1.201c.172-.338.24-.694.27-1.074.03-.364.03-.81.03-1.344V9.018a.748.748 0 0 0-.044-.271L19.441 4.95l-.04-.12c-.222-.668-.396-1.192-.733-1.595a2.75 2.75 0 0 0-1.103-.795c-.488-.192-1.04-.192-1.745-.19H8.306Zm10.653 6-.941-2.825c-.283-.847-.37-1.071-.5-1.227a1.25 1.25 0 0 0-.502-.361c-.188-.074-.429-.087-1.322-.087H8.306c-.893 0-1.133.013-1.322.087a1.25 1.25 0 0 0-.501.361c-.13.156-.218.38-.5 1.227L5.04 8.25h13.918ZM4.75 17.8V9.75h14.5v8.05c0 .573 0 .957-.025 1.253-.023.287-.065.424-.111.515a1.25 1.25 0 0 1-.547.546c-.09.046-.227.088-.515.111-.295.025-.68.025-1.252.025H7.2c-.572 0-.957 0-1.253-.025-.287-.023-.424-.065-.515-.111a1.25 1.25 0 0 1-.546-.546c-.046-.09-.088-.228-.111-.515-.024-.296-.025-.68-.025-1.253Z" fill="#151E28"/></svg>