<svg viewBox="0 0 24 24" fill="none" xmlns="http://www.w3.org/2000/svg"><circle cx="12" cy="12" r="9" fill="#636F7E" fill-opacity=".16"/><path fill-rule="evenodd" clip-rule="evenodd" d="M3.75 12a8.25 8.25 0 1 1 16.5 0 8.25 8.25 0 0 1-16.5 0ZM12 2.25c-5.385 0-9.75 4.365-9.75 9.75s4.365 9.75 9.75 9.75 9.75-4.365 9.75-9.75S17.385 2.25 12 2.25Zm-1.74 5c-1.15 0-2.054.948-2.054 2.083v1.302a.145.145 0 0 1-.06.12l-.375.255a1.2 1.2 0 0 0 0 1.98l.375.255c.033.023.06.066.06.12v1.302c0 1.135.904 2.083 2.054 2.083a.75.75 0 0 0 0-1.5.57.57 0 0 1-.554-.583v-1.302c0-.541-.265-1.053-.715-1.36L8.983 12l.008-.005c.45-.307.715-.819.715-1.36V9.333a.57.57 0 0 1 .554-.583.75.75 0 0 0 0-1.5Zm3.48 0a.75.75 0 0 0 0 1.5.57.57 0 0 1 .554.583v1.302c0 .541.265 1.053.715 1.36l.008.005-.008.005c-.45.307-.715.819-.715 1.36v1.302a.57.57 0 0 1-.554.583.75.75 0 0 0 0 1.5c1.15 0 2.054-.948 2.054-2.083v-1.302c0-.054.027-.098.06-.12l.375-.255a1.2 1.2 0 0 0 0-1.98l-.375-.255a.144.144 0 0 1-.06-.12V9.333c0-1.135-.904-2.083-2.054-2.083Z" fill="#151E28"/></svg>