<svg viewBox="0 0 24 24" fill="none" xmlns="http://www.w3.org/2000/svg"><circle cx="12" cy="12" r="9" fill="#636F7E" fill-opacity=".16"/><path fill-rule="evenodd" clip-rule="evenodd" d="M3.75 12a8.25 8.25 0 1 1 16.5 0 8.25 8.25 0 0 1-16.5 0ZM12 2.25c-5.385 0-9.75 4.365-9.75 9.75s4.365 9.75 9.75 9.75 9.75-4.365 9.75-9.75S17.385 2.25 12 2.25Zm-1.49 7.442a.75.75 0 0 0-.576-1.384C8.406 8.943 7.25 10.315 7.25 12s1.156 3.057 2.684 3.693a.75.75 0 0 0 .576-1.386c-1.105-.46-1.76-1.363-1.76-2.307s.655-1.848 1.76-2.308Zm3.556-1.384a.75.75 0 0 0-.576 1.384c1.105.46 1.76 1.364 1.76 2.308 0 .944-.655 1.848-1.76 2.307a.75.75 0 0 0 .576 1.386c1.528-.636 2.684-2.008 2.684-3.693s-1.156-3.057-2.684-3.692Z" fill="#151E28"/></svg>