<svg viewBox="0 0 24 24" fill="none" xmlns="http://www.w3.org/2000/svg"><path d="M2 10a4 4 0 0 1 4-4h12a4 4 0 0 1 4 4 2 2 0 0 1-2 2H4a2 2 0 0 1-2-2Z" fill="#636F7E" fill-opacity=".16"/><path fill-rule="evenodd" clip-rule="evenodd" d="M7.309 5.25H6A4.75 4.75 0 0 0 1.25 10 2.75 2.75 0 0 0 4 12.75h3.25V13a.75.75 0 0 0 1.5 0v-.25h6.5V13a.75.75 0 0 0 1.5 0v-.25H20A2.75 2.75 0 0 0 22.75 10 4.75 4.75 0 0 0 18 5.25h-1.309a4.751 4.751 0 0 0-9.382 0Zm1.528 0h6.326a3.251 3.251 0 0 0-6.326 0Zm7.913 6H20c.69 0 1.25-.56 1.25-1.25A3.25 3.25 0 0 0 18 6.75H6A3.25 3.25 0 0 0 2.75 10c0 .69.56 1.25 1.25 1.25h3.25V11a.75.75 0 0 1 1.5 0v.25h6.5V11a.75.75 0 0 1 1.5 0v.25ZM3 13.25a.75.75 0 0 1 .75.75v.6c0 1.133 0 1.937.052 2.566.05.62.147 1.005.302 1.31a3.25 3.25 0 0 0 1.42 1.42c.305.155.69.251 1.31.302.63.051 1.434.052 2.566.052h5.2c1.133 0 1.937 0 2.566-.052.62-.05 1.005-.147 1.31-.302a3.25 3.25 0 0 0 1.42-1.42c.155-.305.251-.69.302-1.31.051-.63.052-1.434.052-2.566V14a.75.75 0 0 1 1.5 0v.633c0 1.092 0 1.958-.057 2.655-.058.714-.18 1.317-.46 1.869a4.75 4.75 0 0 1-2.076 2.075c-.552.281-1.155.403-1.869.461-.697.057-1.563.057-2.655.057H9.367c-1.092 0-1.958 0-2.655-.057-.714-.058-1.317-.18-1.868-.46a4.75 4.75 0 0 1-2.076-2.076c-.281-.552-.403-1.155-.461-1.869-.057-.697-.057-1.563-.057-2.655V14a.75.75 0 0 1 .75-.75Z" fill="#151E28"/></svg>