<svg viewBox="0 0 24 24" fill="none" xmlns="http://www.w3.org/2000/svg"><path d="m15.575 15.055 1.642-.985A3.673 3.673 0 0 0 19 10.92V10H5v.92c0 1.29.677 2.486 1.783 3.15l1.642.985a2.698 2.698 0 0 1 1.273 2.757l-.205 1.229a2.541 2.541 0 1 0 5.014 0l-.205-1.23a2.698 2.698 0 0 1 1.273-2.756Z" fill="#636F7E" fill-opacity=".16"/><path fill-rule="evenodd" clip-rule="evenodd" d="M9.8 1.25h-.032l-.723.001a.758.758 0 0 0-.101.001 17.1 17.1 0 0 0-1.175.041c-.547.045-1.027.14-1.471.366a3.75 3.75 0 0 0-1.64 1.639c-.226.444-.32.924-.365 1.47-.043.531-.043 1.187-.043 2v4.152c0 1.554.815 2.994 2.147 3.793l1.642.985a1.948 1.948 0 0 1 .92 1.99l-.206 1.23a3.291 3.291 0 1 0 6.494 0l-.205-1.23a1.948 1.948 0 0 1 .919-1.99l1.642-.985a4.423 4.423 0 0 0 2.147-3.793V6.768c0-.813 0-1.469-.043-2-.045-.546-.14-1.026-.366-1.47a3.75 3.75 0 0 0-1.639-1.64c-.444-.226-.924-.32-1.47-.365-.531-.043-1.187-.043-2-.043H9.8Zm2.45 1.5V4a.75.75 0 0 0 1.5 0V2.75h.45c.853 0 1.447 0 1.91.038.453.037.714.107.912.207.423.216.767.56.983.984.1.197.17.458.207.912.037.462.038 1.057.038 1.909v2.45H5.75V6.8c0-.852 0-1.447.038-1.91.037-.453.107-.714.207-.911a2.25 2.25 0 0 1 .984-.984c.197-.1.458-.17.912-.207.111-.009.23-.016.359-.021V6a.75.75 0 0 0 1.5 0V2.75h2.5Zm-6.5 8h12.5v.17a2.923 2.923 0 0 1-1.42 2.507l-1.64.985a3.448 3.448 0 0 0-1.628 3.523l.205 1.23a1.791 1.791 0 1 1-3.534 0l.205-1.23a3.448 3.448 0 0 0-1.627-3.523l-1.642-.985A2.923 2.923 0 0 1 5.75 10.92v-.17Z" fill="#151E28"/></svg>