<svg viewBox="0 0 24 24" fill="none" xmlns="http://www.w3.org/2000/svg"><path d="M3 8h18v6.6c0 2.24 0 3.36-.436 4.216a4 4 0 0 1-1.748 1.748C17.96 21 16.84 21 14.6 21H9.4c-2.24 0-3.36 0-4.216-.436a4 4 0 0 1-1.748-1.748C3 17.96 3 16.84 3 14.6V8Z" fill="#636F7E" fill-opacity=".16"/><path fill-rule="evenodd" clip-rule="evenodd" d="M8.75 1a.75.75 0 0 0-1.5 0v1.26c-.72.018-1.271.073-1.76.236A4.75 4.75 0 0 0 2.497 5.49c-.214.641-.242 1.392-.246 2.486a.772.772 0 0 0 0 .044v6.613c0 1.092 0 1.958.057 2.655.058.714.18 1.317.46 1.869a4.75 4.75 0 0 0 2.077 2.075c.55.281 1.154.403 1.868.461.697.057 1.563.057 2.655.057h5.265c1.092 0 1.958 0 2.655-.057.714-.058 1.317-.18 1.869-.46a4.75 4.75 0 0 0 2.075-2.076c.281-.552.403-1.155.461-1.869.057-.697.057-1.563.057-2.655V9.367c0-.468 0-.895-.004-1.284a.777.777 0 0 0-.003-.186 18.44 18.44 0 0 0-.05-1.185c-.058-.714-.18-1.317-.46-1.868a4.75 4.75 0 0 0-2.076-2.076c-.552-.281-1.155-.403-1.869-.461a13.61 13.61 0 0 0-.538-.032V1a.75.75 0 1 0-1.5 0v1.25h-6.5V1Zm11.474 6.25a11.772 11.772 0 0 0-.026-.416c-.05-.62-.147-1.005-.302-1.31a3.25 3.25 0 0 0-1.42-1.42c-.305-.155-.69-.251-1.31-.302-.13-.01-.269-.02-.416-.026V4a.75.75 0 1 1-1.5 0v-.25h-6.5V4a.75.75 0 0 1-1.5 0v-.24c-.626.017-.983.058-1.283.158a3.25 3.25 0 0 0-2.048 2.05c-.101.3-.142.656-.158 1.282h16.463ZM3.75 8.75v5.85c0 1.133 0 1.937.052 2.566.05.62.147 1.005.302 1.31a3.25 3.25 0 0 0 1.42 1.42c.305.155.69.251 1.31.302.63.051 1.434.052 2.566.052h5.2c1.133 0 1.937 0 2.566-.052.62-.05 1.005-.147 1.31-.302a3.25 3.25 0 0 0 1.42-1.42c.155-.305.251-.69.302-1.31.052-.63.052-1.434.052-2.566V8.75H3.75Z" fill="#151E28"/></svg>