<svg viewBox="0 0 24 24" fill="none" xmlns="http://www.w3.org/2000/svg"><path d="M3 8h18v6.6c0 2.24 0 3.36-.436 4.216a4 4 0 0 1-1.748 1.748C17.96 21 16.84 21 14.6 21H9.4c-2.24 0-3.36 0-4.216-.436a4 4 0 0 1-1.748-1.748C3 17.96 3 16.84 3 14.6V8Z" fill="#636F7E" fill-opacity=".16"/><path fill-rule="evenodd" clip-rule="evenodd" d="M8 .25a.75.75 0 0 1 .75.75v1.25h6.5V1a.75.75 0 0 1 1.5 0v1.275c.19.008.37.018.538.032.714.058 1.317.18 1.869.46a4.75 4.75 0 0 1 2.075 2.077c.281.55.403 1.154.461 1.868.029.35.043.743.05 1.185a.748.748 0 0 1 .003.186c.004.389.004.815.004 1.283v5.267c0 1.092 0 1.958-.057 2.655-.058.714-.18 1.317-.46 1.869a4.75 4.75 0 0 1-2.076 2.075c-.552.281-1.155.403-1.869.461-.697.057-1.563.057-2.655.057H9.367c-1.092 0-1.958 0-2.655-.057-.714-.058-1.317-.18-1.868-.46a4.75 4.75 0 0 1-2.076-2.076c-.281-.552-.403-1.155-.461-1.869-.057-.697-.057-1.563-.057-2.655V7.976c.004-1.094.032-1.845.246-2.486a4.75 4.75 0 0 1 2.995-2.994c.488-.163 1.04-.218 1.76-.237V1A.75.75 0 0 1 8 .25Zm12.198 6.584c.01.13.02.269.026.416H3.761c.016-.626.057-.983.158-1.283a3.25 3.25 0 0 1 2.048-2.049c.3-.1.657-.14 1.283-.157V4a.75.75 0 0 0 1.5 0v-.25h6.5V4a.75.75 0 0 0 1.5 0v-.224c.147.007.285.015.416.026.62.05 1.005.147 1.31.302a3.25 3.25 0 0 1 1.42 1.42c.155.305.251.69.302 1.31ZM3.75 14.6V8.75h16.5v5.85c0 1.133 0 1.937-.052 2.566-.05.62-.147 1.005-.302 1.31a3.25 3.25 0 0 1-1.42 1.42c-.305.155-.69.251-1.31.302-.63.051-1.434.052-2.566.052H9.4c-1.132 0-1.937 0-2.566-.052-.62-.05-1.005-.147-1.31-.302a3.25 3.25 0 0 1-1.42-1.42c-.155-.305-.251-.69-.302-1.31-.051-.63-.052-1.434-.052-2.566ZM15 16.25a.75.75 0 0 0 0 1.5h2a.75.75 0 0 0 0-1.5h-2Z" fill="#151E28"/></svg>