<svg viewBox="0 0 24 24" fill="none" xmlns="http://www.w3.org/2000/svg"><path d="M3 9.4c0-2.24 0-3.36.436-4.216a4 4 0 0 1 1.748-1.748C6.04 3 7.16 3 9.4 3h5.2c2.24 0 3.36 0 4.216.436a4 4 0 0 1 1.748 1.748C21 6.04 21 7.16 21 9.4v5.2c0 2.24 0 3.36-.436 4.216a4 4 0 0 1-1.748 1.748C17.96 21 16.84 21 14.6 21H9.4c-2.24 0-3.36 0-4.216-.436a4 4 0 0 1-1.748-1.748C3 17.96 3 16.84 3 14.6V9.4Z" fill="#636F7E" fill-opacity=".16"/><path fill-rule="evenodd" clip-rule="evenodd" d="M8.75 1a.75.75 0 0 0-1.5 0v1.26c-.72.018-1.271.073-1.76.236A4.75 4.75 0 0 0 2.497 5.49c-.247.737-.246 1.618-.246 3v6.143c0 1.092 0 1.958.057 2.655.058.714.18 1.317.46 1.869a4.75 4.75 0 0 0 2.077 2.075c.55.281 1.154.403 1.868.461.697.057 1.563.057 2.655.057h5.265c1.092 0 1.958 0 2.655-.057.714-.058 1.317-.18 1.869-.46a4.75 4.75 0 0 0 2.075-2.076c.281-.552.403-1.155.461-1.869.057-.697.057-1.563.057-2.655V9.367c0-1.092 0-1.958-.057-2.655-.058-.714-.18-1.317-.46-1.868a4.75 4.75 0 0 0-2.076-2.076c-.552-.281-1.155-.403-1.869-.461a13.61 13.61 0 0 0-.538-.032V1a.75.75 0 1 0-1.5 0v1.25h-6.5V1Zm6.5 3v-.25h-6.5V4a.75.75 0 0 1-1.5 0v-.24c-.626.017-.983.058-1.283.158a3.25 3.25 0 0 0-2.048 2.05c-.16.473-.169 1.086-.169 2.68V14.6c0 1.133 0 1.937.052 2.566.05.62.147 1.005.302 1.31a3.25 3.25 0 0 0 1.42 1.42c.305.155.69.251 1.31.302.63.051 1.434.052 2.566.052h5.2c1.133 0 1.937 0 2.566-.052.62-.05 1.005-.147 1.31-.302a3.25 3.25 0 0 0 1.42-1.42c.155-.305.251-.69.302-1.31.052-.63.052-1.434.052-2.566V9.4c0-1.132 0-1.937-.052-2.566-.05-.62-.147-1.005-.302-1.31a3.25 3.25 0 0 0-1.42-1.42c-.305-.155-.69-.251-1.31-.302-.13-.01-.269-.02-.416-.026V4a.75.75 0 1 1-1.5 0ZM9.53 8.47a.75.75 0 0 0-1.06 1.06L10.94 12l-2.47 2.47a.75.75 0 1 0 1.06 1.06L12 13.06l2.47 2.47a.75.75 0 1 0 1.06-1.06L13.06 12l2.47-2.47a.75.75 0 0 0-1.06-1.06L12 10.94 9.53 8.47Z" fill="#151E28"/></svg>