<svg viewBox="0 0 24 24" fill="none" xmlns="http://www.w3.org/2000/svg"><path d="M10 4a8 8 0 0 0-8 8v4a2 2 0 0 0 2 2c.704-2.534 4.296-2.534 5 0h5l.033-.117c.694-2.518 4.263-2.525 4.967-.009a4.002 4.002 0 0 0-1.25-7.866A8.003 8.003 0 0 0 10 4Z" fill="#636F7E" fill-opacity=".16"/><path fill-rule="evenodd" clip-rule="evenodd" d="M2.75 12a7.25 7.25 0 0 1 14.274-1.806.75.75 0 0 0 .772.562 3.25 3.25 0 0 1 1.563 6.197 3.25 3.25 0 0 0-5.86.297H9.501a3.25 3.25 0 0 0-5.963-.088A1.25 1.25 0 0 1 2.75 16v-4Zm.503 6.647A2.751 2.751 0 0 1 1.25 16v-4a8.75 8.75 0 0 1 17.062-2.74 4.75 4.75 0 0 1 1.437 9.157l.001.083a3.25 3.25 0 0 1-6.49.25H9.74a3.25 3.25 0 0 1-6.487-.103ZM6.25 11a.75.75 0 0 1 .75-.75h6a.75.75 0 0 1 0 1.5H7a.75.75 0 0 1-.75-.75Zm2 7.5a1.75 1.75 0 1 0-3.5 0 1.75 1.75 0 0 0 3.5 0Zm10 0a1.75 1.75 0 1 0-3.5 0 1.75 1.75 0 0 0 3.5 0Z" fill="#151E28"/></svg>