<svg viewBox="0 0 24 24" fill="none" xmlns="http://www.w3.org/2000/svg"><path d="M21 10.4c0-2.24 0-3.36-.436-4.216a4 4 0 0 0-1.748-1.748C17.96 4 16.84 4 14.6 4H9.4c-2.24 0-3.36 0-4.216.436a4 4 0 0 0-1.748 1.748C3 7.04 3 8.16 3 10.4V20l1.388-.925c.599-.4.899-.6 1.223-.74a4 4 0 0 1 .898-.273C6.857 18 7.218 18 7.938 18H14.6c2.24 0 3.36 0 4.216-.436a4 4 0 0 0 1.748-1.748C21 14.96 21 13.84 21 11.6v-1.2Z" fill="#636F7E" fill-opacity=".16"/><path fill-rule="evenodd" clip-rule="evenodd" d="M14.633 3.25H9.367c-1.092 0-1.958 0-2.655.057-.714.058-1.317.18-1.868.46a4.75 4.75 0 0 0-2.076 2.077c-.281.55-.403 1.154-.461 1.868-.057.697-.057 1.563-.057 2.655V20a.75.75 0 0 0 1.166.624l1.388-.925c.62-.414.857-.569 1.107-.678.234-.102.479-.176.73-.22.268-.048.55-.051 1.297-.051h6.695c1.092 0 1.958 0 2.655-.057.714-.058 1.317-.18 1.869-.46a4.75 4.75 0 0 0 2.075-2.076c.281-.552.403-1.155.461-1.869.057-.697.057-1.563.057-2.655v-1.266c0-1.092 0-1.958-.057-2.655-.058-.714-.18-1.317-.46-1.868a4.75 4.75 0 0 0-2.076-2.076c-.552-.281-1.155-.403-1.869-.461-.697-.057-1.563-.057-2.655-.057Zm2.533 1.552c.62.05 1.005.147 1.31.302a3.25 3.25 0 0 1 1.42 1.42c.155.305.251.69.302 1.31.051.63.052 1.434.052 2.566v1.2c0 1.133 0 1.937-.052 2.566-.05.62-.147 1.005-.302 1.31a3.25 3.25 0 0 1-1.42 1.42c-.305.155-.69.251-1.31.302-.63.051-1.434.052-2.566.052H7.87c-.656 0-1.078 0-1.492.074a4.752 4.752 0 0 0-1.067.323c-.386.168-.737.402-1.283.766l-.056.038-.222.148V10.4c0-1.132 0-1.937.052-2.566.05-.62.147-1.005.302-1.31a3.25 3.25 0 0 1 1.42-1.42c.305-.155.69-.251 1.31-.302.63-.051 1.434-.052 2.566-.052h5.2c1.133 0 1.937 0 2.566.052ZM12 6.25a.75.75 0 0 1 .75.75v4a.75.75 0 0 1-1.5 0V7a.75.75 0 0 1 .75-.75ZM12 15a1 1 0 1 0 0-2 1 1 0 0 0 0 2Z" fill="#151E28"/></svg>