<svg viewBox="0 0 24 24" fill="none" xmlns="http://www.w3.org/2000/svg"><path d="M3 21v-9a8.97 8.97 0 0 1 2.5-6.225L18.225 18.5A8.97 8.97 0 0 1 12 21c-1.554 0-2.806-.302-3.756-.671-1.32-.512-1.979-.769-2.267-.793-.367-.03-.406-.026-.758.083-.276.086-.651.336-1.402.836L3 21Z" fill="#636F7E" fill-opacity=".16"/><path fill-rule="evenodd" clip-rule="evenodd" d="M2.53 1.47a.75.75 0 0 0-1.06 1.06l3.126 3.126A9.714 9.714 0 0 0 2.25 12v9a.75.75 0 0 0 1.166.624l.817-.545c.38-.253.647-.431.854-.557.213-.13.31-.172.354-.186.19-.059.217-.063.233-.065.015-.002.043-.004.24.013h.001c.005 0 .046.007.145.035.1.03.234.073.41.137.355.127.839.314 1.502.572 1.03.4 2.375.722 4.028.722a9.714 9.714 0 0 0 6.344-2.346l3.126 3.126a.75.75 0 1 0 1.06-1.06l-20-20Zm14.75 16.87L5.66 6.72A8.214 8.214 0 0 0 3.75 12v7.599c.214-.141.397-.26.555-.357.232-.142.46-.267.692-.34l.008-.002c.16-.05.325-.1.506-.12.18-.02.353-.006.52.008l.008.001c.26.022.59.13.938.255.375.134.877.329 1.526.581l.012.005c.87.338 2.03.62 3.485.62a8.214 8.214 0 0 0 5.28-1.91ZM8.791 4.397a8.25 8.25 0 0 1 10.811 10.811.75.75 0 1 0 1.382.584A9.723 9.723 0 0 0 21.75 12 9.75 9.75 0 0 0 12 2.25a9.722 9.722 0 0 0-3.792.765.75.75 0 0 0 .584 1.382Z" fill="#151E28"/></svg>