<svg viewBox="0 0 24 24" fill="none" xmlns="http://www.w3.org/2000/svg"><path d="M12 21a9 9 0 1 0-9-9v9l.817-.545c.75-.5 1.126-.75 1.402-.836.352-.109.39-.113.758-.082.288.024.948.28 2.267.792.95.37 2.202.671 3.756.671Z" fill="#636F7E" fill-opacity=".16"/><path fill-rule="evenodd" clip-rule="evenodd" d="M12 3.75A8.25 8.25 0 0 0 3.75 12v7.599c.214-.141.397-.26.555-.357.232-.142.46-.267.692-.34l.008-.002c.16-.05.325-.1.506-.12.18-.02.353-.006.52.008l.008.001c.26.022.59.13.938.255.375.134.877.329 1.526.581l.012.005c.87.338 2.03.62 3.485.62a8.25 8.25 0 0 0 0-16.5ZM2.25 12c0-5.385 4.365-9.75 9.75-9.75s9.75 4.365 9.75 9.75-4.365 9.75-9.75 9.75c-1.653 0-2.997-.322-4.028-.722a69.713 69.713 0 0 0-1.501-.572 7.006 7.006 0 0 0-.411-.137c-.1-.028-.14-.034-.145-.035a1.565 1.565 0 0 0-.241-.013 1.562 1.562 0 0 0-.233.065 1.86 1.86 0 0 0-.354.186c-.207.126-.473.304-.854.557l-.817.545A.75.75 0 0 1 2.25 21v-9ZM13 16a1 1 0 1 1-2 0 1 1 0 0 1 2 0Zm.099-6.815c.123.215.146.481.15.72-.033.062-.09.152-.174.272-.172.243-.406.536-.66.854l-.01.013c-.243.303-.505.63-.705.914-.102.144-.2.295-.277.44a1.32 1.32 0 0 0-.173.602.75.75 0 0 0 1.492.113l.007-.015c.033-.062.09-.153.176-.275.172-.243.406-.536.66-.854l.01-.013c.243-.303.505-.63.705-.914.102-.144.2-.295.277-.44A1.32 1.32 0 0 0 14.75 10v-.021c0-.258.001-.926-.349-1.539-.406-.71-1.18-1.19-2.401-1.19-.631 0-1.155.16-1.572.438a2.505 2.505 0 0 0-.849.977 3.207 3.207 0 0 0-.328 1.288v.03l-.001.01v.006L10 10h-.75a.75.75 0 0 0 1.5.006v-.004l.002-.035a1.71 1.71 0 0 1 .169-.632c.08-.16.19-.299.339-.398.145-.097.371-.187.74-.187.779 0 1.005.27 1.099.435Zm.174.67-.004.01a.062.062 0 0 1 .004-.01Zm-.546 3.29.004-.01a.062.062 0 0 1-.004.01Z" fill="#151E28"/></svg>