<svg viewBox="0 0 24 24" fill="none" xmlns="http://www.w3.org/2000/svg"><path d="M18 10c0-1.864 0-2.796-.305-3.53a4 4 0 0 0-2.164-2.166C14.796 4 13.864 4 12 4H8.4c-2.24 0-3.36 0-4.216.436a4 4 0 0 0-1.748 1.748C2 7.04 2 8.16 2 10.4V18l1.388-.925c.599-.4.899-.6 1.223-.74a4 4 0 0 1 .898-.273C5.857 16 6.218 16 6.938 16H12c1.864 0 2.796 0 3.53-.305a4 4 0 0 0 2.165-2.164C18 12.796 18 11.864 18 10Z" fill="#636F7E" fill-opacity=".16"/><path fill-rule="evenodd" clip-rule="evenodd" d="M8.4 4.75c-1.132 0-1.937 0-2.566.052-.62.05-1.005.147-1.31.302a3.25 3.25 0 0 0-1.42 1.42c-.155.305-.251.69-.302 1.31-.051.63-.052 1.434-.052 2.566v6.199l.222-.148.056-.038c.546-.364.897-.598 1.283-.766.341-.15.7-.258 1.067-.323.414-.074.836-.074 1.492-.074H12c.942 0 1.611 0 2.138-.036.52-.036.845-.103 1.106-.211a3.25 3.25 0 0 0 1.759-1.76c.108-.26.175-.586.21-1.105.037-.527.037-1.196.037-2.138s0-1.611-.036-2.138c-.036-.52-.103-.845-.211-1.106a3.25 3.25 0 0 0-1.76-1.759c-.26-.108-.586-.175-1.105-.21C13.61 4.75 12.942 4.75 12 4.75H8.4Zm-4.556-.982c.55-.281 1.154-.403 1.868-.461.697-.057 1.563-.057 2.655-.057h3.66c.91 0 1.63 0 2.213.04.596.04 1.104.125 1.578.322a4.75 4.75 0 0 1 2.57 2.57c.197.474.281.982.322 1.578.04.584.04 1.304.04 2.213v.054c0 .91 0 1.63-.04 2.213-.04.596-.125 1.104-.322 1.578a4.75 4.75 0 0 1-2.57 2.57c-.474.197-.982.281-1.578.322-.584.04-1.304.04-2.213.04H6.938c-.746 0-1.03.003-1.297.05a3.255 3.255 0 0 0-.73.221c-.25.11-.487.264-1.107.678l-1.388.925A.75.75 0 0 1 1.25 18v-7.633c0-1.092 0-1.958.057-2.655.058-.714.18-1.317.46-1.868a4.75 4.75 0 0 1 2.077-2.076Zm16.843 4.569a.75.75 0 1 0-.374 1.452c.54.14.937.63.937 1.211v7.599l-.826-.551a4.75 4.75 0 0 0-2.635-.798H12a.75.75 0 0 0 0 1.5h5.789c.641 0 1.269.19 1.803.546l1.992 1.328A.75.75 0 0 0 22.75 20v-9a2.75 2.75 0 0 0-2.063-2.663Z" fill="#151E28"/></svg>