<svg viewBox="0 0 24 24" fill="none" xmlns="http://www.w3.org/2000/svg"><path d="M14.675 21h-5.35c-.489 0-.733 0-.963-.055-.205-.05-.4-.13-.579-.24-.201-.123-.374-.296-.72-.642l-3.126-3.126c-.346-.346-.519-.519-.642-.72a2.001 2.001 0 0 1-.24-.578C3 15.409 3 15.164 3 14.675v-5.35c0-.489 0-.733.055-.963a2 2 0 0 1 .24-.579c.123-.201.296-.374.642-.72l3.126-3.126c.346-.346.519-.519.72-.642a2 2 0 0 1 .579-.24C8.592 3 8.836 3 9.325 3h5.35c.489 0 .733 0 .963.055.204.05.4.13.579.24.201.123.374.296.72.642l3.126 3.126c.346.346.519.519.642.72.11.18.19.374.24.579.055.23.055.474.055.963v5.35c0 .489 0 .733-.055.963-.05.204-.13.4-.24.579-.123.201-.296.374-.642.72l-3.126 3.126c-.346.346-.519.519-.72.642-.18.11-.374.19-.578.24-.23.055-.475.055-.964.055Z" fill="#636F7E" fill-opacity=".16"/><path fill-rule="evenodd" clip-rule="evenodd" d="M9.325 2.25h-.072c-.419 0-.748 0-1.067.076a2.75 2.75 0 0 0-.794.33c-.28.17-.513.403-.808.7l-.052.05-3.125 3.126-.051.052c-.297.295-.53.528-.7.808a2.75 2.75 0 0 0-.33.794c-.076.319-.076.648-.076 1.067v5.494c0 .419 0 .748.076 1.066.067.281.178.55.33.795.17.28.403.512.7.808l.05.052 3.126 3.125.052.051c.295.297.528.53.808.7.246.151.514.263.794.33.319.076.648.076 1.067.076h5.494c.419 0 .748 0 1.066-.076a2.75 2.75 0 0 0 .795-.33c.28-.17.512-.404.808-.7l.052-.05 3.125-3.126.051-.052c.297-.296.53-.528.7-.808a2.75 2.75 0 0 0 .33-.795c.076-.318.076-.647.076-1.066V9.253c0-.419 0-.748-.076-1.067a2.75 2.75 0 0 0-.33-.794c-.17-.28-.404-.513-.7-.808l-.05-.052-3.126-3.125-.052-.051c-.296-.297-.528-.53-.808-.7a2.75 2.75 0 0 0-.795-.33c-.318-.076-.647-.076-1.066-.076H9.325Zm-.788 1.535c.123-.03.264-.035.788-.035h5.35c.524 0 .665.005.788.035.128.03.25.08.362.15.108.066.21.161.582.533l3.125 3.125c.372.371.467.474.534.582.068.112.119.234.15.362.03.123.034.264.034.788v5.35c0 .524-.005.665-.035.788-.03.128-.08.25-.15.362-.066.108-.161.21-.533.582l-3.125 3.125c-.371.372-.474.467-.582.534a1.253 1.253 0 0 1-.362.15c-.123.03-.264.034-.788.034h-5.35c-.524 0-.665-.005-.788-.035a1.253 1.253 0 0 1-.362-.15c-.108-.066-.21-.161-.582-.533l-3.125-3.125c-.372-.371-.467-.474-.534-.582a1.25 1.25 0 0 1-.15-.362c-.03-.123-.034-.264-.034-.788v-5.35c0-.524.005-.665.035-.788.03-.128.08-.25.15-.362.066-.108.161-.21.533-.582l3.125-3.125c.371-.372.474-.467.582-.534a1.25 1.25 0 0 1 .362-.15Zm7.994 9.684a.75.75 0 0 1-1.061 1.061L12 11.06l-3.47 3.47a.75.75 0 1 1-1.06-1.06l4-4a.75.75 0 0 1 1.06 0l4 4Z" fill="#151E28"/></svg>