<svg viewBox="0 0 24 24" fill="none" xmlns="http://www.w3.org/2000/svg"><path d="M21 8v6.6c0 2.24 0 3.36-.436 4.216a4 4 0 0 1-1.748 1.748C17.96 21 16.84 21 14.6 21H9.4c-2.24 0-3.36 0-4.216-.436a4 4 0 0 1-1.748-1.748C3 17.96 3 16.84 3 14.6V8h18Z" fill="#636F7E" fill-opacity=".16"/><path fill-rule="evenodd" clip-rule="evenodd" d="M14.6 2.25H9.367c-1.092 0-1.958 0-2.655.057-.714.058-1.317.18-1.868.46a4.75 4.75 0 0 0-2.076 2.077c-.281.55-.403 1.154-.461 1.868-.029.35-.043.743-.05 1.185a.756.756 0 0 0-.003.186c-.004.39-.004.816-.004 1.284v5.266c0 1.092 0 1.958.057 2.655.058.714.18 1.317.46 1.869a4.75 4.75 0 0 0 2.077 2.075c.55.281 1.154.403 1.868.461.697.057 1.563.057 2.655.057h5.266c1.092 0 1.958 0 2.655-.057.714-.058 1.317-.18 1.869-.46a4.75 4.75 0 0 0 2.075-2.076c.281-.552.403-1.155.461-1.869.057-.697.057-1.563.057-2.655V9.365c0-.467 0-.893-.005-1.282a.75.75 0 0 0-.002-.186 18.437 18.437 0 0 0-.05-1.185c-.058-.714-.18-1.317-.46-1.868a4.75 4.75 0 0 0-2.076-2.076c-.552-.281-1.155-.403-1.869-.46-.697-.058-1.563-.058-2.655-.058H14.6ZM3.75 9.4v-.65h16.5v5.85c0 1.133 0 1.937-.052 2.566-.05.62-.147 1.005-.302 1.31a3.25 3.25 0 0 1-1.42 1.42c-.305.155-.69.251-1.31.302-.63.052-1.434.052-2.566.052H9.4c-1.132 0-1.937 0-2.566-.052-.62-.05-1.005-.147-1.31-.302a3.25 3.25 0 0 1-1.42-1.42c-.155-.305-.251-.69-.302-1.31-.051-.63-.052-1.433-.052-2.566V9.4Zm16.448-2.566c.01.13.02.269.026.416h-4.9l2.02-3.364a.75.75 0 0 0 .033-.064c.5.055.83.146 1.099.282a3.25 3.25 0 0 1 1.42 1.42c.155.305.251.69.302 1.31ZM14.6 3.75c.396 0 .752 0 1.074.002L13.575 7.25h-5.25l2.1-3.5H14.6Zm-8.025 3.5 2.1-3.5c-.765.003-1.355.012-1.841.052-.62.05-1.005.147-1.31.302a3.25 3.25 0 0 0-1.42 1.42c-.155.305-.251.69-.302 1.31-.01.13-.02.269-.026.416h2.8Zm.425 4a.75.75 0 0 0 0 1.5h4a.75.75 0 0 0 0-1.5H7Zm0 4a.75.75 0 0 0 0 1.5h8a.75.75 0 0 0 0-1.5H7Z" fill="#151E28"/></svg>