<svg viewBox="0 0 24 24" fill="none" xmlns="http://www.w3.org/2000/svg"><path fill-rule="evenodd" clip-rule="evenodd" d="M9 4h-.2c-1.68 0-2.52 0-3.162.327a3 3 0 0 0-1.311 1.311C4 6.28 4 7.12 4 8.8v8.4c0 1.68 0 2.52.327 3.162a3 3 0 0 0 1.311 1.311C6.28 22 7.12 22 8.8 22h6.4c1.68 0 2.52 0 3.162-.327a3 3 0 0 0 1.311-1.311C20 19.72 20 18.88 20 17.2V8.8c0-1.68 0-2.52-.327-3.162a3 3 0 0 0-1.311-1.311C17.72 4 16.88 4 15.2 4H15a2 2 0 0 1-2 2h-2a2 2 0 0 1-2-2Z" fill="#636F7E" fill-opacity=".16"/><path fill-rule="evenodd" clip-rule="evenodd" d="M6.89 4.788c.378-.03.843-.037 1.464-.038a2.751 2.751 0 0 0 2.646 2h2a2.75 2.75 0 0 0 2.646-2c.621.001 1.086.008 1.463.038.454.037.715.107.912.207.424.216.768.56.984.984.1.197.17.458.207.912.037.462.038 1.057.038 1.909v8.4c0 .852 0 1.447-.038 1.91-.038.453-.107.714-.207.912-.216.423-.56.767-.983.983-.198.1-.459.17-.913.207-.462.037-1.057.038-1.909.038H8.8c-.852 0-1.447 0-1.91-.038-.453-.038-.714-.107-.911-.207a2.25 2.25 0 0 1-.984-.983c-.1-.198-.17-.459-.207-.913-.037-.462-.038-1.057-.038-1.909V8.8c0-.852 0-1.447.038-1.91.037-.453.107-.714.207-.911a2.25 2.25 0 0 1 .984-.984c.197-.1.458-.17.912-.207Zm10.341-1.495a21.28 21.28 0 0 0-1.585-.043 2.751 2.751 0 0 0-2.646-2h-2c-1.259 0-2.32.846-2.647 2-.625.001-1.147.008-1.584.043-.547.045-1.027.14-1.471.366a3.75 3.75 0 0 0-1.64 1.639c-.226.444-.32.924-.365 1.47-.043.531-.043 1.187-.043 2v8.464c0 .813 0 1.469.043 2 .045.546.14 1.026.366 1.47a3.75 3.75 0 0 0 1.639 1.64c.444.226.924.32 1.47.365.531.043 1.187.043 2 .043h6.464c.813 0 1.469 0 2-.043.546-.045 1.026-.14 1.47-.366a3.75 3.75 0 0 0 1.64-1.639c.226-.444.32-.924.365-1.47.043-.531.043-1.187.043-2V8.768c0-.813 0-1.469-.043-2-.045-.546-.14-1.026-.366-1.47a3.75 3.75 0 0 0-1.639-1.64c-.444-.226-.924-.32-1.47-.365ZM11 2.75a1.25 1.25 0 1 0 0 2.5h2a1.25 1.25 0 1 0 0-2.5h-2Zm-2 9.5a.75.75 0 0 0 0 1.5h6a.75.75 0 0 0 0-1.5H9Z" fill="#151E28"/></svg>