<svg viewBox="0 0 24 24" fill="none" xmlns="http://www.w3.org/2000/svg"><path fill-rule="evenodd" clip-rule="evenodd" d="M7 9a5 5 0 0 1 10 0 5 5 0 0 1 0 10h-3.21c-.515-1.406-1.79-3-1.79-3s-1.275 1.594-1.79 3H7A5 5 0 0 1 7 9Z" fill="#636F7E" fill-opacity=".16"/><path fill-rule="evenodd" clip-rule="evenodd" d="M8.318 6.876A4.25 4.25 0 0 1 16.25 9c0 .414.336.75.75.75a4.25 4.25 0 0 1 .85 8.415.75.75 0 1 0 .3 1.47 5.752 5.752 0 0 0-.443-11.342A5.751 5.751 0 0 0 7.02 6.124a.75.75 0 1 0 1.298.752ZM2.75 14a4.25 4.25 0 0 1 5.95-3.897.75.75 0 0 0 .6-1.374 5.75 5.75 0 1 0-3.45 10.906.75.75 0 0 0 .3-1.47A4.252 4.252 0 0 1 2.75 14ZM12 16l.586-.469a.75.75 0 0 0-1.172 0L12 16Zm0 0 .586-.468.002.003.006.006.019.025a12.157 12.157 0 0 1 .306.407c.195.268.457.644.72 1.071.261.425.532.914.74 1.407.202.48.371 1.027.371 1.549 0 .93-.319 1.659-.895 2.139-.552.46-1.244.611-1.855.611s-1.303-.151-1.855-.611c-.576-.48-.895-1.209-.895-2.139 0-.522.169-1.068.371-1.549.208-.493.479-.982.74-1.407a17.045 17.045 0 0 1 1.026-1.478l.02-.025.005-.006.001-.002.001-.001L12 16Zm-.361 1.83c.123-.2.246-.387.361-.557.115.17.238.358.361.558.239.387.468.805.635 1.202.173.41.254.74.254.967 0 .57-.181.841-.355.986-.198.165-.506.264-.895.264s-.697-.099-.895-.264c-.174-.145-.355-.416-.355-.986 0-.228.081-.557.254-.967.167-.397.396-.815.635-1.202Z" fill="#151E28"/></svg>