<svg viewBox="0 0 24 24" fill="none" xmlns="http://www.w3.org/2000/svg"><path d="M12 2a5 5 0 0 0-5 5 5 5 0 0 0 0 10h10a5 5 0 0 0 0-10 5 5 0 0 0-5-5Z" fill="#636F7E" fill-opacity=".16"/><path fill-rule="evenodd" clip-rule="evenodd" d="M8.318 4.876A4.25 4.25 0 0 1 16.25 7c0 .414.336.75.75.75a4.25 4.25 0 0 1 .85 8.415.75.75 0 1 0 .3 1.47 5.752 5.752 0 0 0-.443-11.342A5.751 5.751 0 0 0 7.02 4.124a.75.75 0 1 0 1.298.752ZM2.75 12A4.25 4.25 0 0 1 8.7 8.103a.75.75 0 1 0 .6-1.374 5.75 5.75 0 1 0-3.45 10.906.75.75 0 0 0 .3-1.47A4.252 4.252 0 0 1 2.75 12Zm13.28 2.97-3.5-3.5a.75.75 0 0 0-1.06 0l-3.5 3.5a.75.75 0 1 0 1.06 1.06l2.22-2.22V21a.75.75 0 0 0 1.5 0v-7.19l2.22 2.22a.75.75 0 1 0 1.06-1.06Z" fill="#151E28"/></svg>