<svg viewBox="0 0 24 24" fill="none" xmlns="http://www.w3.org/2000/svg"><path d="M12 4a5 5 0 0 0-5 5 5 5 0 0 0 0 10h10a5 5 0 0 0 0-10 5 5 0 0 0-5-5Z" fill="#636F7E" fill-opacity=".16"/><path fill-rule="evenodd" clip-rule="evenodd" d="M12 4.75a4.248 4.248 0 0 0-3.682 2.126.75.75 0 0 1-1.298-.752 5.751 5.751 0 0 1 10.687 2.169 5.751 5.751 0 0 1 4.564 8.007.75.75 0 0 1-1.374-.6A4.25 4.25 0 0 0 17 9.75a.75.75 0 0 1-.75-.75A4.25 4.25 0 0 0 12 4.75Zm-5 5a4.25 4.25 0 0 0-1.7 8.147.75.75 0 1 1-.6 1.374A5.751 5.751 0 0 1 9.3 8.73a.75.75 0 0 1-.6 1.374A4.233 4.233 0 0 0 7 9.75Zm3.646 5.172a1.078 1.078 0 0 0-1.292 0 2.577 2.577 0 0 1-2.7.244l-.99-.495a.75.75 0 1 1 .671-1.342l.99.495c.365.183.802.143 1.129-.102a2.578 2.578 0 0 1 3.092 0c.327.245.764.285 1.129.102l.99-.495a.75.75 0 1 1 .67 1.342l-.99.495a2.577 2.577 0 0 1-2.699-.244Zm3.707 3.5c.384-.287.91-.287 1.293 0a2.58 2.58 0 0 0 2.7.244l.99-.495a.75.75 0 1 0-.671-1.342l-.99.495a1.077 1.077 0 0 1-1.128-.102 2.578 2.578 0 0 0-3.094 0 1.077 1.077 0 0 1-1.128.102l-.99-.495a.75.75 0 1 0-.67 1.342l.99.495a2.577 2.577 0 0 0 2.699-.244Z" fill="#151E28"/></svg>