<svg viewBox="0 0 24 24" fill="none" xmlns="http://www.w3.org/2000/svg"><path d="M2 14a5 5 0 0 0 5 5h10a4.99 4.99 0 0 0 1.5-.229L9 9.416A5 5 0 0 0 2 14Z" fill="#636F7E" fill-opacity=".16"/><path fill-rule="evenodd" clip-rule="evenodd" d="M2.53 1.47a.75.75 0 0 0-1.06 1.06l5.723 5.723A5.75 5.75 0 1 0 7 19.75h10a5.75 5.75 0 0 0 1.493-.196l2.977 2.976a.75.75 0 1 0 1.06-1.06l-20-20Zm14.655 16.776L9.1 10.16a.747.747 0 0 1-.4-.057A4.25 4.25 0 1 0 7 18.25h10.001c.062 0 .124-.001.185-.004ZM9.875 5.318A4.25 4.25 0 0 1 16.25 9c.001.414.337.75.751.75a4.25 4.25 0 0 1 3.682 6.375.75.75 0 1 0 1.298.75 5.751 5.751 0 0 0-4.273-8.582A5.751 5.751 0 0 0 9.124 4.02a.75.75 0 1 0 .752 1.298Z" fill="#151E28"/></svg>