<svg viewBox="0 0 24 24" fill="none" xmlns="http://www.w3.org/2000/svg"><path fill-rule="evenodd" clip-rule="evenodd" d="M7 9a5 5 0 0 1 10 0 5 5 0 0 1 0 10H8l2-2-2-1 1-4-5 5 2 1-.213.852A5 5 0 0 1 7 9Z" fill="#636F7E" fill-opacity=".16"/><path fill-rule="evenodd" clip-rule="evenodd" d="M12 4.75a4.248 4.248 0 0 0-3.682 2.126.75.75 0 0 1-1.298-.752 5.751 5.751 0 0 1 10.687 2.169 5.751 5.751 0 0 1 .442 11.342.75.75 0 0 1-.298-1.47A4.252 4.252 0 0 0 17 9.75a.75.75 0 0 1-.75-.75A4.25 4.25 0 0 0 12 4.75Zm-5 5A4.25 4.25 0 0 0 2.75 14a.75.75 0 0 1-1.5 0A5.75 5.75 0 0 1 9.3 8.729a.75.75 0 0 1-.6 1.374A4.233 4.233 0 0 0 7 9.75Zm8 4.5a.75.75 0 0 1 .75.75v2a.75.75 0 0 1-1.5 0v-2a.75.75 0 0 1 .75-.75Zm-3 5a.75.75 0 0 1 .75.75v2a.75.75 0 0 1-1.5 0v-2a.75.75 0 0 1 .75-.75Zm-2.272-7.068a.75.75 0 0 0-1.258-.712l-5 5a.75.75 0 0 0 .195 1.2l1.461.732-.854 3.416a.75.75 0 0 0 1.258.712l5-5a.75.75 0 0 0-.195-1.2l-1.461-.732.854-3.416Zm-3.393 5.147-1.069-.535 2.35-2.349-.344 1.373a.75.75 0 0 0 .393.853l1.069.535-2.35 2.349.344-1.373a.75.75 0 0 0-.393-.853Z" fill="#151E28"/></svg>