<svg viewBox="0 0 24 24" fill="none" xmlns="http://www.w3.org/2000/svg"><path d="M12 4a5 5 0 0 0-5 5 5 5 0 0 0 0 10h10a5 5 0 0 0 0-10 5 5 0 0 0-5-5Z" fill="#636F7E" fill-opacity=".16"/><path fill-rule="evenodd" clip-rule="evenodd" d="M8.318 6.876A4.25 4.25 0 0 1 16.25 9c0 .414.336.75.75.75a4.25 4.25 0 0 1 .85 8.415.75.75 0 1 0 .3 1.47 5.752 5.752 0 0 0-.443-11.342A5.751 5.751 0 0 0 7.02 6.124a.75.75 0 1 0 1.298.752ZM2.75 14a4.25 4.25 0 0 1 5.95-3.897.75.75 0 0 0 .6-1.374 5.75 5.75 0 1 0-3.45 10.906.75.75 0 0 0 .3-1.47A4.252 4.252 0 0 1 2.75 14Zm7 1a.75.75 0 0 0-1.5 0v2a.75.75 0 0 0 1.5 0v-2Zm6 0a.75.75 0 0 0-1.5 0v2a.75.75 0 0 0 1.5 0v-2Zm-3 5a.75.75 0 0 0-1.5 0v2a.75.75 0 0 0 1.5 0v-2Z" fill="#151E28"/></svg>