<svg viewBox="0 0 24 24" fill="none" xmlns="http://www.w3.org/2000/svg"><path d="M12 4a5 5 0 0 0-5 5 5 5 0 0 0 0 10h10a5 5 0 0 0 0-10 5 5 0 0 0-5-5Z" fill="#636F7E" fill-opacity=".16"/><path fill-rule="evenodd" clip-rule="evenodd" d="M12 4.75a4.248 4.248 0 0 0-3.682 2.126.75.75 0 0 1-1.298-.752 5.751 5.751 0 0 1 10.687 2.169A5.751 5.751 0 0 1 17 19.75H7A5.75 5.75 0 1 1 9.3 8.729a.75.75 0 0 1-.6 1.374A4.25 4.25 0 1 0 7 18.25h10a4.25 4.25 0 0 0 0-8.5.75.75 0 0 1-.75-.75A4.25 4.25 0 0 0 12 4.75Z" fill="#151E28"/></svg>