<svg viewBox="0 0 24 24" fill="none" xmlns="http://www.w3.org/2000/svg"><path fill-rule="evenodd" clip-rule="evenodd" d="M13 2h-2a2 2 0 0 0-2 2v.098A1.562 1.562 0 0 1 6.657 5.45l-.085-.049a2 2 0 0 0-2.732.732l-1 1.732a2 2 0 0 0 .732 2.732l.085.05a1.562 1.562 0 0 1 0 2.705l-.085.049a2 2 0 0 0-.732 2.732l1 1.732a2 2 0 0 0 2.732.732l.085-.049A1.562 1.562 0 0 1 9 19.902V20a2 2 0 0 0 2 2h2a2 2 0 0 0 2-2v-.098a1.562 1.562 0 0 1 2.343-1.353l.085.05a2 2 0 0 0 2.732-.733l1-1.732a2 2 0 0 0-.732-2.732l-.085-.05a1.562 1.562 0 0 1 0-2.705l.085-.049a2 2 0 0 0 .732-2.732l-1-1.732a2 2 0 0 0-2.732-.732l-.085.049A1.562 1.562 0 0 1 15 4.098V4a2 2 0 0 0-2-2Zm-1.2 7A2.8 2.8 0 0 0 9 11.8v.4a2.8 2.8 0 0 0 2.8 2.8h.4a2.8 2.8 0 0 0 2.8-2.8v-.4A2.8 2.8 0 0 0 12.2 9h-.4Z" fill="#636F7E" fill-opacity=".16"/><path fill-rule="evenodd" clip-rule="evenodd" d="M11 1.25A2.75 2.75 0 0 0 8.25 4v.098a.812.812 0 0 1-1.218.703l-.085-.049A2.75 2.75 0 0 0 3.19 5.76l-1 1.732a2.75 2.75 0 0 0 1.007 3.757l.085.049a.812.812 0 0 1 0 1.406l-.085.05A2.75 2.75 0 0 0 2.19 16.51l1 1.732a2.75 2.75 0 0 0 3.757 1.007l.085-.05a.812.812 0 0 1 1.218.704V20A2.75 2.75 0 0 0 11 22.75h2A2.75 2.75 0 0 0 15.75 20v-.098a.812.812 0 0 1 1.218-.703l.085.049a2.75 2.75 0 0 0 3.757-1.007l1-1.732a2.75 2.75 0 0 0-1.007-3.757l-.085-.049a.812.812 0 0 1 0-1.406l.085-.05a2.75 2.75 0 0 0 1.007-3.756l-1-1.732a2.75 2.75 0 0 0-3.757-1.007l-.085.05a.812.812 0 0 1-1.218-.704V4A2.75 2.75 0 0 0 13 1.25h-2ZM9.75 4c0-.69.56-1.25 1.25-1.25h2c.69 0 1.25.56 1.25 1.25v.098a2.312 2.312 0 0 0 3.468 2.003l.085-.05a1.25 1.25 0 0 1 1.708.458l1 1.732a1.25 1.25 0 0 1-.458 1.708l-.085.049a2.312 2.312 0 0 0 0 4.004l.085.05a1.25 1.25 0 0 1 .458 1.707l-1 1.732a1.25 1.25 0 0 1-1.708.458l-.085-.05a2.312 2.312 0 0 0-3.468 2.003V20c0 .69-.56 1.25-1.25 1.25h-2c-.69 0-1.25-.56-1.25-1.25v-.098A2.312 2.312 0 0 0 6.282 17.9l-.085.049a1.25 1.25 0 0 1-1.708-.458l-1-1.732a1.25 1.25 0 0 1 .458-1.707l.085-.05a2.312 2.312 0 0 0 0-4.004l-.085-.05a1.25 1.25 0 0 1-.458-1.707l1-1.732a1.25 1.25 0 0 1 1.708-.458l.085.05A2.312 2.312 0 0 0 9.75 4.097V4Zm2.05 4.25a3.55 3.55 0 0 0-3.55 3.55v.4a3.55 3.55 0 0 0 3.55 3.55h.4a3.55 3.55 0 0 0 3.55-3.55v-.4a3.55 3.55 0 0 0-3.55-3.55h-.4ZM9.75 11.8a2.05 2.05 0 0 1 2.05-2.05h.4a2.05 2.05 0 0 1 2.05 2.05v.4a2.05 2.05 0 0 1-2.05 2.05h-.4a2.05 2.05 0 0 1-2.05-2.05v-.4Z" fill="#151E28"/></svg>