<svg viewBox="0 0 24 24" fill="none" xmlns="http://www.w3.org/2000/svg"><path fill-rule="evenodd" clip-rule="evenodd" d="M14 19.831v.37c0 .994-.805 1.799-1.798 1.799h-.404A1.798 1.798 0 0 1 10 20.202v-.371a1.244 1.244 0 0 0-2.123-.88l-.262.263a1.798 1.798 0 0 1-2.543 0l-.286-.285a1.798 1.798 0 0 1 0-2.544l.262-.262A1.244 1.244 0 0 0 4.17 14H3.8A1.798 1.798 0 0 1 2 12.202v-.404C2 10.805 2.805 10 3.798 10h.371a1.244 1.244 0 0 0 .88-2.123l-.263-.262a1.798 1.798 0 0 1 0-2.543l.286-.286a1.798 1.798 0 0 1 2.543 0l.262.262A1.244 1.244 0 0 0 10 4.17V3.8c0-.996.805-1.8 1.798-1.8h.404C13.195 2 14 2.805 14 3.798v.371a1.244 1.244 0 0 0 2.123.88l.262-.263a1.798 1.798 0 0 1 2.543 0l.286.286a1.798 1.798 0 0 1 0 2.543l-.262.262A1.244 1.244 0 0 0 19.83 10h.37c.994 0 1.799.805 1.799 1.798v.404c0 .993-.805 1.798-1.798 1.798h-.371a1.244 1.244 0 0 0-.88 2.123l.263.262a1.8 1.8 0 0 1 0 2.544l-.285.285a1.798 1.798 0 0 1-2.544 0l-.262-.262A1.244 1.244 0 0 0 14 19.83ZM11.8 9A2.8 2.8 0 0 0 9 11.8v.4a2.8 2.8 0 0 0 2.8 2.8h.4a2.8 2.8 0 0 0 2.8-2.8v-.4A2.8 2.8 0 0 0 12.2 9h-.4Z" fill="#636F7E" fill-opacity=".16"/><path fill-rule="evenodd" clip-rule="evenodd" d="M11.798 1.25A2.548 2.548 0 0 0 9.25 3.798v.371a.494.494 0 0 1-.843.35l-.262-.263a2.548 2.548 0 0 0-3.604 0l-.285.285a2.548 2.548 0 0 0 0 3.604l.262.262a.494.494 0 0 1-.349.843h-.37a2.548 2.548 0 0 0-2.549 2.548v.404a2.548 2.548 0 0 0 2.548 2.548h.371a.494.494 0 0 1 .35.843l-.263.262a2.548 2.548 0 0 0 0 3.604l.285.285a2.548 2.548 0 0 0 3.604 0l.262-.262a.494.494 0 0 1 .843.349v.37a2.548 2.548 0 0 0 2.548 2.549h.404a2.548 2.548 0 0 0 2.548-2.548v-.371a.494.494 0 0 1 .843-.35l.262.263a2.548 2.548 0 0 0 3.604 0l.285-.285a2.548 2.548 0 0 0 0-3.604l-.262-.262a.494.494 0 0 1 .349-.843h.37a2.548 2.548 0 0 0 2.549-2.548v-.404a2.548 2.548 0 0 0-2.548-2.548h-.371a.494.494 0 0 1-.35-.843l.263-.262a2.548 2.548 0 0 0 0-3.604l-.285-.285a2.548 2.548 0 0 0-3.604 0l-.262.262a.494.494 0 0 1-.843-.349v-.37a2.548 2.548 0 0 0-2.548-2.549h-.404ZM10.75 3.798c0-.579.47-1.048 1.048-1.048h.404c.579 0 1.048.47 1.048 1.048v.371a1.994 1.994 0 0 0 3.404 1.41l.262-.262a1.047 1.047 0 0 1 1.482 0l.285.285c.41.41.41 1.073 0 1.482l-.262.263a1.994 1.994 0 0 0 1.41 3.403h.37c.58 0 1.049.47 1.049 1.048v.404c0 .579-.47 1.048-1.048 1.048h-.371a1.994 1.994 0 0 0-1.41 3.404l.262.262c.41.409.41 1.073 0 1.482l-.285.285c-.41.41-1.073.41-1.482 0l-.262-.262a1.994 1.994 0 0 0-3.404 1.41v.37c0 .58-.47 1.049-1.048 1.049h-.404c-.579 0-1.048-.47-1.048-1.048v-.371a1.994 1.994 0 0 0-3.403-1.41l-.263.262c-.409.41-1.073.41-1.482 0l-.285-.285a1.048 1.048 0 0 1 0-1.482l.262-.262a1.994 1.994 0 0 0-1.41-3.404h-.37c-.58 0-1.049-.47-1.049-1.048v-.404c0-.579.47-1.048 1.048-1.048h.371a1.994 1.994 0 0 0 1.41-3.403l-.262-.263a1.048 1.048 0 0 1 0-1.482l.285-.285c.41-.41 1.073-.41 1.482 0l.263.262a1.994 1.994 0 0 0 3.403-1.41v-.37ZM11.8 8.25a3.55 3.55 0 0 0-3.55 3.55v.4a3.55 3.55 0 0 0 3.55 3.55h.4a3.55 3.55 0 0 0 3.55-3.55v-.4a3.55 3.55 0 0 0-3.55-3.55h-.4ZM9.75 11.8a2.05 2.05 0 0 1 2.05-2.05h.4a2.05 2.05 0 0 1 2.05 2.05v.4a2.05 2.05 0 0 1-2.05 2.05h-.4a2.05 2.05 0 0 1-2.05-2.05v-.4Z" fill="#151E28"/></svg>