<svg viewBox="0 0 24 24" fill="none" xmlns="http://www.w3.org/2000/svg"><circle cx="12" cy="12" r="9" fill="#636F7E" fill-opacity=".16"/><path fill-rule="evenodd" clip-rule="evenodd" d="M3.75 12a8.25 8.25 0 1 1 16.5 0 8.25 8.25 0 0 1-16.5 0ZM12 2.25c-5.385 0-9.75 4.365-9.75 9.75s4.365 9.75 9.75 9.75 9.75-4.365 9.75-9.75S17.385 2.25 12 2.25Zm.75 7.5h-1.5V9A2.25 2.25 0 1 0 9 11.25h.75v1.5H9A2.25 2.25 0 1 0 11.25 15v-.75h1.5V15A2.25 2.25 0 1 0 15 12.75h-.75v-1.5H15A2.25 2.25 0 1 0 12.75 9v.75Zm1.5 5.25v-.75H15a.75.75 0 1 1-.75.75Zm-3-2.25h1.5v-1.5h-1.5v1.5Zm-3 2.25a.75.75 0 0 1 .75-.75h.75V15a.75.75 0 0 1-1.5 0ZM9 8.25a.75.75 0 0 0 0 1.5h.75V9A.75.75 0 0 0 9 8.25Zm5.25.75a.75.75 0 1 1 .75.75h-.75V9Z" fill="#151E28"/></svg>