<svg viewBox="0 0 24 24" fill="none" xmlns="http://www.w3.org/2000/svg"><path fill-rule="evenodd" clip-rule="evenodd" d="M14.25 6.5a3.25 3.25 0 1 1 3.25 3.25h-1.75v4.5h1.75a3.25 3.25 0 1 1-3.25 3.25v-1.75h-4.5v1.75a3.25 3.25 0 1 1-3.25-3.25h1.75v-4.5H6.5A3.25 3.25 0 1 1 9.75 6.5v1.75h4.5V6.5Zm3.25-1.75a1.75 1.75 0 0 0-1.75 1.75v1.75h1.75a1.75 1.75 0 1 0 0-3.5Zm-7.75 5v4.5h4.5v-4.5h-4.5Zm-5 7.75c0-.966.784-1.75 1.75-1.75h1.75v1.75a1.75 1.75 0 1 1-3.5 0ZM6.5 4.75a1.75 1.75 0 1 0 0 3.5h1.75V6.5A1.75 1.75 0 0 0 6.5 4.75Zm9.25 12.75v-1.75h1.75a1.75 1.75 0 1 1-1.75 1.75Z" fill="#151E28"/></svg>