<svg viewBox="0 0 24 24" fill="none" xmlns="http://www.w3.org/2000/svg"><rect x="4" y="4" width="16" height="16" rx="4" fill="#636F7E" fill-opacity=".16"/><path fill-rule="evenodd" clip-rule="evenodd" d="M8.905 3.25H9a.75.75 0 0 1 0 1.5c-.965 0-1.338.004-1.634.062a3.25 3.25 0 0 0-2.553 2.554c-.06.296-.063.669-.063 1.634a.75.75 0 0 1-1.5 0v-.095c0-.838 0-1.372.091-1.832l.736.147-.736-.147a4.75 4.75 0 0 1 3.732-3.732c.46-.091.994-.091 1.832-.091Zm7.73 1.562c-.297-.058-.67-.062-1.635-.062a.75.75 0 0 1 0-1.5h.095c.838 0 1.372 0 1.832.091a4.75 4.75 0 0 1 3.732 3.732c.091.46.091.994.091 1.832V9a.75.75 0 0 1-1.5 0c0-.965-.004-1.338-.062-1.634a3.25 3.25 0 0 0-2.554-2.554ZM4 14.25a.75.75 0 0 1 .75.75c0 .965.004 1.338.063 1.634a3.25 3.25 0 0 0 2.553 2.554c.296.058.669.062 1.634.062a.75.75 0 0 1 0 1.5h-.095c-.838 0-1.372 0-1.832-.091l.147-.736-.147.736a4.75 4.75 0 0 1-3.732-3.732c-.091-.46-.091-.994-.09-1.832V15a.75.75 0 0 1 .75-.75Zm16 0a.75.75 0 0 1 .75.75v.095c0 .838 0 1.372-.091 1.832a4.75 4.75 0 0 1-3.732 3.732c-.46.091-.994.091-1.832.091H15a.75.75 0 0 1 0-1.5c.965 0 1.338-.004 1.634-.062a3.25 3.25 0 0 0 2.554-2.554c.058-.296.062-.669.062-1.634a.75.75 0 0 1 .75-.75Z" fill="#151E28"/></svg>