<svg viewBox="0 0 24 24" fill="none" xmlns="http://www.w3.org/2000/svg"><path d="M18.22 8.923C18.606 9 19.07 9 20 9v6c-.93 0-1.394 0-1.78.077a4 4 0 0 0-3.143 3.143C15 18.606 15 19.07 15 20H9c0-.93 0-1.394-.077-1.78a4 4 0 0 0-3.143-3.143C5.394 15 4.93 15 4 15V9c.93 0 1.394 0 1.78-.077A4 4 0 0 0 8.923 5.78C9 5.394 9 4.93 9 4h6c0 .93 0 1.394.077 1.78a4 4 0 0 0 3.143 3.143Z" fill="#636F7E" fill-opacity=".16"/><path fill-rule="evenodd" clip-rule="evenodd" d="M9 3.25a.75.75 0 0 1 .75.75v.095c0 .838 0 1.372-.091 1.832a4.75 4.75 0 0 1-3.732 3.732c-.46.091-.994.091-1.832.091H4a.75.75 0 1 1 0-1.5c.965 0 1.338-.004 1.634-.062a3.25 3.25 0 0 0 2.554-2.554c.058-.296.062-.669.062-1.634A.75.75 0 0 1 9 3.25Zm6 0a.75.75 0 0 1 .75.75c0 .965.004 1.338.063 1.634a3.25 3.25 0 0 0 2.553 2.554c.296.058.669.062 1.634.062a.75.75 0 0 1 0 1.5h-.095c-.838 0-1.372 0-1.832-.091a4.75 4.75 0 0 1-3.732-3.732c-.091-.46-.091-.994-.09-1.832V4a.75.75 0 0 1 .75-.75ZM5.634 15.812c-.296-.058-.669-.062-1.634-.062a.75.75 0 0 1 0-1.5h.095c.838 0 1.372 0 1.832.091a4.75 4.75 0 0 1 3.732 3.732c.091.46.091.994.091 1.832V20a.75.75 0 0 1-1.5 0c0-.965-.004-1.338-.062-1.634a3.25 3.25 0 0 0-2.554-2.554Zm14.27-1.562H20a.75.75 0 0 1 0 1.5c-.965 0-1.338.004-1.634.062a3.25 3.25 0 0 0-2.553 2.554c-.06.296-.063.669-.063 1.634a.75.75 0 0 1-1.5 0v-.095c0-.838 0-1.372.091-1.832a4.75 4.75 0 0 1 3.732-3.732c.46-.091.994-.091 1.832-.091Z" fill="#151E28"/></svg>