<svg viewBox="0 0 24 24" fill="none" xmlns="http://www.w3.org/2000/svg"><path fill-rule="evenodd" clip-rule="evenodd" d="M5.436 7.184C5 8.04 5 9.16 5 11.4v1.2c0 2.24 0 3.36.436 4.216a4 4 0 0 0 1.748 1.748C8.04 19 9.16 19 11.4 19h1.2c2.24 0 3.36 0 4.216-.436a4 4 0 0 0 1.748-1.748C19 15.96 19 14.84 19 12.6v-1.2c0-2.24 0-3.36-.436-4.216a4 4 0 0 0-1.748-1.748C15.96 5 14.84 5 12.6 5h-1.2c-2.24 0-3.36 0-4.216.436a4 4 0 0 0-1.748 1.748Zm3.716 3.05C9 10.603 9 11.069 9 12s0 1.398.152 1.765a2 2 0 0 0 1.083 1.083C10.602 15 11.068 15 12 15c.932 0 1.398 0 1.765-.152a2 2 0 0 0 1.083-1.083C15 13.398 15 12.932 15 12c0-.932 0-1.398-.152-1.765a2 2 0 0 0-1.083-1.083C13.398 9 12.932 9 12 9c-.932 0-1.398 0-1.765.152a2 2 0 0 0-1.083 1.083Z" fill="#636F7E" fill-opacity=".16"/><path fill-rule="evenodd" clip-rule="evenodd" d="M8.75 2a.75.75 0 0 0-1.5 0v2.592c-.139.05-.274.108-.406.176a4.75 4.75 0 0 0-2.076 2.076 3.574 3.574 0 0 0-.176.406H2a.75.75 0 0 0 0 1.5h2.304c-.052.666-.054 1.482-.054 2.5H2a.75.75 0 0 0 0 1.5h2.25c0 1.018.002 1.834.054 2.5H2a.75.75 0 0 0 0 1.5h2.592c.05.139.108.274.176.407a4.75 4.75 0 0 0 2.076 2.075c.132.068.267.126.406.176V22a.75.75 0 0 0 1.5 0v-2.304c.666.052 1.482.054 2.5.054V22a.75.75 0 0 0 1.5 0v-2.25c1.018 0 1.834-.002 2.5-.054V22a.75.75 0 0 0 1.5 0v-2.592a3.47 3.47 0 0 0 .407-.176 4.75 4.75 0 0 0 2.075-2.075 3.47 3.47 0 0 0 .176-.407H22a.75.75 0 0 0 0-1.5h-2.304c.052-.666.054-1.482.054-2.5H22a.75.75 0 0 0 0-1.5h-2.25c0-1.018-.002-1.834-.054-2.5H22a.75.75 0 0 0 0-1.5h-2.592a3.592 3.592 0 0 0-.176-.406 4.75 4.75 0 0 0-2.075-2.076 3.578 3.578 0 0 0-.407-.176V2a.75.75 0 0 0-1.5 0v2.304c-.666-.052-1.482-.054-2.5-.054V2a.75.75 0 0 0-1.5 0v2.25c-1.018 0-1.834.002-2.5.054V2Zm9.5 10v-.6c0-1.133 0-1.937-.052-2.566-.05-.62-.147-1.005-.302-1.31a3.25 3.25 0 0 0-1.42-1.42c-.305-.155-.69-.251-1.31-.302-.63-.051-1.434-.052-2.566-.052h-1.2c-1.133 0-1.937 0-2.566.052-.62.05-1.005.147-1.31.302a3.25 3.25 0 0 0-1.42 1.42c-.155.305-.251.69-.302 1.31-.051.63-.052 1.434-.052 2.566v1.2c0 1.133 0 1.937.052 2.566.05.62.147 1.005.302 1.31a3.25 3.25 0 0 0 1.42 1.42c.305.155.69.251 1.31.302.63.051 1.434.052 2.566.052h1.2c1.133 0 1.937 0 2.566-.052.62-.05 1.005-.147 1.31-.302a3.25 3.25 0 0 0 1.42-1.42c.155-.305.251-.69.302-1.31.051-.63.052-1.434.052-2.566V12ZM12 8.25h-.025c-.445 0-.816 0-1.12.02a2.823 2.823 0 0 0-.907.19 2.75 2.75 0 0 0-1.489 1.488c-.12.29-.167.59-.188.907-.021.304-.021.675-.021 1.12v.05c0 .445 0 .816.02 1.12.022.318.07.617.19.907a2.75 2.75 0 0 0 1.488 1.489c.29.12.59.167.907.188.304.021.675.021 1.12.021h.05c.445 0 .816 0 1.12-.02.318-.022.617-.069.907-.19a2.75 2.75 0 0 0 1.489-1.488c.12-.29.167-.59.188-.907.021-.304.021-.675.021-1.12v-.05c0-.445 0-.816-.02-1.12a2.821 2.821 0 0 0-.19-.907 2.75 2.75 0 0 0-1.488-1.489c-.29-.12-.59-.167-.907-.188-.304-.021-.675-.021-1.12-.021H12Zm-1.478 1.595c.077-.032.194-.061.435-.078.247-.017.567-.017 1.043-.017s.796 0 1.043.017c.241.017.358.046.435.078.307.127.55.37.677.677.032.077.061.194.078.435.017.247.017.567.017 1.043s0 .796-.017 1.043c-.017.241-.046.358-.078.435a1.25 1.25 0 0 1-.677.677c-.077.032-.194.061-.435.078-.247.017-.567.017-1.043.017s-.796 0-1.043-.017c-.241-.017-.358-.046-.435-.078a1.25 1.25 0 0 1-.677-.677c-.032-.077-.061-.194-.078-.435A17.091 17.091 0 0 1 9.75 12c0-.476 0-.796.017-1.043.017-.241.046-.358.078-.435.127-.307.37-.55.677-.677Z" fill="#151E28"/></svg>