<svg viewBox="0 0 24 24" fill="none" xmlns="http://www.w3.org/2000/svg"><path fill-rule="evenodd" clip-rule="evenodd" d="m12 2 9 5v10l-9 5-9-5V7l9-5Z" fill="#636F7E" fill-opacity=".16"/><path fill-rule="evenodd" clip-rule="evenodd" d="M11.636 1.344a.75.75 0 0 1 .728 0l9 5A.75.75 0 0 1 21.75 7v10a.75.75 0 0 1-.386.656l-8.998 4.999a.75.75 0 0 1-.73 0l-1.543-2.572 1.157.642v-8.284l-7.5-4.166v1.227l-1.103-1.84 1.103 1.84v7.057l6.342 3.523 1.542 2.573-8.998-5A.75.75 0 0 1 2.25 17V6.993a.75.75 0 0 1 .383-.647m9.003-5.002-9 5ZM4.544 7 12 11.142 19.456 7 12 2.858 4.544 7Zm5.548 13.082h.001L3.75 9.503l6.342 10.58Zm2.658-7.64v8.283l7.5-4.166V8.275l-7.5 4.166Z" fill="#151E28"/></svg>