<svg viewBox="0 0 24 24" fill="none" xmlns="http://www.w3.org/2000/svg"><path fill-rule="evenodd" clip-rule="evenodd" d="M18 9a3 3 0 1 0 0-6 3 3 0 0 0 0 6ZM6 21a3 3 0 1 0 0-6 3 3 0 0 0 0 6Z" fill="#636F7E" fill-opacity=".16"/><path fill-rule="evenodd" clip-rule="evenodd" d="M18 3.75a2.25 2.25 0 1 0 0 4.5 2.25 2.25 0 0 0 0-4.5ZM6.777 14.33a8.252 8.252 0 0 1 7.554-7.553A3.751 3.751 0 0 0 21.75 6a3.75 3.75 0 0 0-7.43-.727 9.752 9.752 0 0 0-9.047 9.047 3.751 3.751 0 1 0 1.504.01ZM3.75 18a2.25 2.25 0 1 1 4.5 0 2.25 2.25 0 0 1-4.5 0Z" fill="#151E28"/></svg>