<svg viewBox="0 0 24 24" fill="none" xmlns="http://www.w3.org/2000/svg"><path d="M9.5 9a4 4 0 0 0-4 4 3.5 3.5 0 1 0 0 7h8a3.5 3.5 0 1 0 0-7 4 4 0 0 0-4-4Z" fill="#636F7E" fill-opacity=".16"/><path fill-rule="evenodd" clip-rule="evenodd" d="M15.35 3.85a.85.85 0 1 1-1.7 0 .85.85 0 0 1 1.7 0Zm-2.586 4.158a4.058 4.058 0 0 1 5.228 5.228.75.75 0 0 0 1.404.528 5.558 5.558 0 0 0-7.16-7.16.75.75 0 1 0 .528 1.404Zm-5.867 3.207A3.014 3.014 0 0 1 9.5 9.75c1.673 0 3 1.322 3 2.916 0 .415.336.75.75.75 1.673 0 3 1.322 3 2.917 0 1.595-1.327 2.917-3 2.917h-7.5c-1.673 0-3-1.322-3-2.917 0-1.595 1.327-2.916 3-2.916.43 0 .838.087 1.205.244a.75.75 0 1 0 .59-1.38 4.56 4.56 0 0 0-1.795-.365c-2.47 0-4.5 1.962-4.5 4.417s2.03 4.417 4.5 4.417h7.5c2.47 0 4.5-1.962 4.5-4.417 0-2.22-1.661-4.037-3.806-4.364-.341-2.119-2.214-3.72-4.444-3.72a4.514 4.514 0 0 0-3.894 2.202.75.75 0 0 0 1.291.764Zm14.253.135a.85.85 0 1 0 1.7 0 .85.85 0 0 0-1.7 0Zm-.566-4.724a.85.85 0 1 1-1.202-1.202.85.85 0 0 1 1.202 1.202ZM8.5 5.5a.85.85 0 1 0 1.202 1.202A.85.85 0 0 0 8.5 5.5Zm11 10.952a.85.85 0 1 0 1.202 1.202.85.85 0 0 0-1.202-1.202Z" fill="#151E28"/></svg>