<svg viewBox="0 0 24 24" fill="none" xmlns="http://www.w3.org/2000/svg"><path d="M9.5 9a4 4 0 0 0-4 4 3.5 3.5 0 1 0 0 7h8a3.5 3.5 0 1 0 0-7 4 4 0 0 0-4-4Z" fill="#636F7E" fill-opacity=".16"/><path fill-rule="evenodd" clip-rule="evenodd" d="M14.5 4.7a.85.85 0 1 0 0-1.7.85.85 0 0 0 0 1.7Zm-.308 3.05c-.504 0-.985.091-1.428.258a.75.75 0 0 1-.528-1.404 5.558 5.558 0 0 1 7.16 7.16.75.75 0 1 1-1.404-.528 4.058 4.058 0 0 0-3.8-5.486Zm-4.692 2a3.014 3.014 0 0 0-2.603 1.465.75.75 0 1 1-1.29-.764A4.514 4.514 0 0 1 9.5 8.25c2.23 0 4.103 1.6 4.444 3.719 2.145.327 3.806 2.144 3.806 4.364 0 2.15-1.56 3.923-3.604 4.33a.75.75 0 0 1-.292-1.472c1.379-.274 2.396-1.46 2.396-2.858 0-1.595-1.327-2.916-3-2.916a.75.75 0 0 1-.75-.75c0-1.595-1.327-2.917-3-2.917Zm-3.75 3.666c-1.673 0-3 1.322-3 2.917 0 1.398 1.017 2.584 2.396 2.858a.75.75 0 1 1-.292 1.471c-2.044-.406-3.604-2.179-3.604-4.329 0-2.455 2.03-4.416 4.5-4.416.636 0 1.244.13 1.795.365a.75.75 0 0 1-.59 1.38 3.061 3.061 0 0 0-1.205-.246ZM22 12.2a.85.85 0 1 1 0-1.7.85.85 0 0 1 0 1.7Zm-2.618-5.574a.85.85 0 1 0 1.202-1.202.85.85 0 0 0-1.202 1.202ZM8.5 6.702A.85.85 0 1 1 9.702 5.5.85.85 0 0 1 8.5 6.702ZM10.25 17a.75.75 0 1 0-1.5 0v.7l-.607-.35a.75.75 0 1 0-.75 1.3L8 19l-.607.35a.75.75 0 0 0 .75 1.3l.607-.35v.7a.75.75 0 0 0 1.5 0v-.701l.607.35a.75.75 0 0 0 .75-1.299L11 19l.607-.35a.75.75 0 1 0-.75-1.3l-.607.351V17Z" fill="#151E28"/></svg>