<svg viewBox="0 0 24 24" fill="none" xmlns="http://www.w3.org/2000/svg"><path d="M9.5 9a4 4 0 0 0-4 4 3.5 3.5 0 1 0 0 7h8a3.5 3.5 0 1 0 0-7 4 4 0 0 0-4-4Z" fill="#636F7E" fill-opacity=".16"/><path fill-rule="evenodd" clip-rule="evenodd" d="M14.5 4.7a.85.85 0 1 0 0-1.7.85.85 0 0 0 0 1.7Zm-.308 3.05c-.504 0-.985.091-1.428.258a.75.75 0 0 1-.528-1.404 5.558 5.558 0 0 1 7.16 7.16.75.75 0 1 1-1.404-.528 4.058 4.058 0 0 0-3.8-5.486Zm-4.692 2a3.014 3.014 0 0 0-2.603 1.465.75.75 0 1 1-1.29-.764A4.514 4.514 0 0 1 9.5 8.25c2.23 0 4.103 1.6 4.444 3.719 2.145.327 3.806 2.144 3.806 4.364 0 .725-.178 1.41-.494 2.015a.75.75 0 0 1-1.33-.695c.207-.396.324-.844.324-1.32 0-1.595-1.327-2.916-3-2.916a.75.75 0 0 1-.75-.75c0-1.595-1.327-2.917-3-2.917Zm-3.75 3.666c-1.673 0-3 1.322-3 2.917a.75.75 0 0 1-1.5 0c0-2.455 2.03-4.416 4.5-4.416.636 0 1.244.13 1.795.365a.75.75 0 0 1-.59 1.38 3.061 3.061 0 0 0-1.205-.246ZM22 12.2a.85.85 0 1 1 0-1.7.85.85 0 0 1 0 1.7Zm-2.618-5.574a.85.85 0 1 0 1.202-1.202.85.85 0 0 0-1.202 1.202ZM8.5 6.702A.85.85 0 1 1 9.702 5.5.85.85 0 0 1 8.5 6.702ZM13.75 17a.75.75 0 1 0-1.5 0v.25H12a.75.75 0 1 0 0 1.5h.25V19a.75.75 0 0 0 1.5 0v-.25H14a.75.75 0 0 0 0-1.5h-.25V17ZM9.5 19.25a.75.75 0 0 1 .75.75v.25h.25a.75.75 0 1 1 0 1.5h-.25V22a.75.75 0 0 1-1.5 0v-.25H8.5a.75.75 0 0 1 0-1.5h.25V20a.75.75 0 0 1 .75-.75Zm-2.876-2.834a.75.75 0 0 0-1.248-.832l-2 3A.75.75 0 0 0 4 19.75h1.599l-1.223 1.834a.75.75 0 0 0 1.248.832l2-3A.75.75 0 0 0 7 18.25H5.401l1.223-1.834Z" fill="#151E28"/></svg>