<svg viewBox="0 0 24 24" fill="none" xmlns="http://www.w3.org/2000/svg"><path d="M15 11.2c0-1.12 0-1.68.218-2.108a2 2 0 0 1 .874-.874C16.52 8 17.08 8 18.2 8h1.6c1.12 0 1.68 0 2.108.218a2 2 0 0 1 .874.874C23 9.52 23 10.08 23 11.2v5.6c0 1.12 0 1.68-.218 2.108a2 2 0 0 1-.874.874C21.48 20 20.92 20 19.8 20h-1.6c-1.12 0-1.68 0-2.108-.218a2 2 0 0 1-.874-.874C15 18.48 15 17.92 15 16.8v-5.6Z" fill="#636F7E" fill-opacity=".16"/><path fill-rule="evenodd" clip-rule="evenodd" d="M9.4 4.25h-.033c-1.092 0-1.958 0-2.655.057-.714.058-1.317.18-1.869.46a4.75 4.75 0 0 0-2.075 2.077c-.281.55-.403 1.154-.461 1.868-.057.697-.057 1.563-.057 2.655V15a.75.75 0 0 0 1.5 0v-3.6c0-1.133 0-1.937.052-2.566.05-.62.147-1.005.302-1.31a3.25 3.25 0 0 1 1.42-1.42c.305-.155.69-.251 1.31-.302.63-.051 1.433-.052 2.566-.052h5.2c1.132 0 1.937 0 2.566.052.62.05 1.005.147 1.31.302a.75.75 0 1 0 .68-1.336c-.55-.281-1.154-.403-1.868-.461-.697-.057-1.563-.057-2.655-.057H9.4Zm8.77 3h1.66c.535 0 .98 0 1.345.03.38.03.736.098 1.073.27a2.75 2.75 0 0 1 1.202 1.202c.172.337.24.693.27 1.073.03.365.03.81.03 1.345v5.66c0 .535 0 .98-.03 1.345-.03.38-.098.736-.27 1.073a2.751 2.751 0 0 1-1.202 1.202c-.337.172-.694.24-1.073.27-.365.03-.81.03-1.345.03h-1.66c-.535 0-.98 0-1.345-.03-.38-.03-.736-.098-1.074-.27a2.751 2.751 0 0 1-1.201-1.201c-.172-.338-.24-.694-.27-1.074-.03-.365-.03-.81-.03-1.345v-5.66c0-.535 0-.98.03-1.345.03-.38.098-.736.27-1.073a2.75 2.75 0 0 1 1.2-1.202c.338-.172.694-.24 1.074-.27.364-.03.81-.03 1.345-.03Zm-1.223 1.525c-.287.023-.424.065-.515.111a1.25 1.25 0 0 0-.546.547c-.046.09-.088.227-.111.514-.024.296-.025.68-.025 1.253v5.6c0 .572 0 .957.025 1.252.023.288.065.425.111.515.12.236.311.427.546.547.091.046.228.088.515.111.296.024.68.025 1.253.025h1.6c.572 0 .957 0 1.252-.025.288-.023.425-.065.515-.111a1.25 1.25 0 0 0 .547-.547c.046-.09.088-.227.111-.515.024-.295.025-.68.025-1.252v-5.6c0-.572 0-.957-.025-1.253-.023-.287-.065-.424-.111-.514a1.25 1.25 0 0 0-.547-.547c-.09-.046-.227-.088-.515-.111a6.587 6.587 0 0 0-.347-.018.75.75 0 0 1-.705.493h-2a.75.75 0 0 1-.705-.493 7.56 7.56 0 0 0-.348.018ZM5.221 20.75H13.5a.75.75 0 0 0 0-1.5H5.25c-.259 0-.348 0-.43-.007a2.25 2.25 0 0 1-1.021-.34 5.828 5.828 0 0 1-.35-.253 21.628 21.628 0 0 1-.534-.408 2.04 2.04 0 0 1-.124-.106l-.003-.003a.25.25 0 0 1 .122-.366h.005c.016-.003.064-.008.162-.011.154-.006.365-.006.673-.006H13a.75.75 0 0 0 0-1.5H3.735c-.29 0-.528 0-.711.006a2.118 2.118 0 0 0-.562.079 1.75 1.75 0 0 0-.891 2.675c.112.159.272.294.402.4.143.114.333.257.565.43v.001l.012.009.023.017c.176.132.297.223.425.304a3.75 3.75 0 0 0 1.7.567c.151.012.303.012.523.012ZM11 6.25a.75.75 0 0 0 0 1.5h2a.75.75 0 0 0 0-1.5h-2Z" fill="#151E28"/></svg>