<svg viewBox="0 0 24 24" fill="none" xmlns="http://www.w3.org/2000/svg"><path fill-rule="evenodd" clip-rule="evenodd" d="M12 7a2 2 0 1 0 0-4 2 2 0 0 0 0 4Zm9 5a2 2 0 1 1-4 0 2 2 0 0 1 4 0ZM5 21a2 2 0 1 0 0-4 2 2 0 0 0 0 4Zm9-2a2 2 0 1 1-4 0 2 2 0 0 1 4 0Zm7 0a2 2 0 1 1-4 0 2 2 0 0 1 4 0Zm-9-5a2 2 0 1 0 0-4 2 2 0 0 0 0 4Zm-5-2a2 2 0 1 1-4 0 2 2 0 0 1 4 0Zm14-7a2 2 0 1 1-4 0 2 2 0 0 1 4 0ZM5 7a2 2 0 1 0 0-4 2 2 0 0 0 0 4Z" fill="#636F7E" fill-opacity=".16"/><path fill-rule="evenodd" clip-rule="evenodd" d="M10.75 5a1.25 1.25 0 1 1 2.5 0 1.25 1.25 0 0 1-2.5 0ZM12 2.25a2.75 2.75 0 1 0 0 5.5 2.75 2.75 0 0 0 0-5.5Zm7 8.5a1.25 1.25 0 1 0 0 2.5 1.25 1.25 0 0 0 0-2.5ZM16.25 12a2.75 2.75 0 1 1 5.5 0 2.75 2.75 0 0 1-5.5 0Zm-12.5 7a1.25 1.25 0 1 1 2.5 0 1.25 1.25 0 0 1-2.5 0ZM5 16.25a2.75 2.75 0 1 0 0 5.5 2.75 2.75 0 0 0 0-5.5Zm7 1.5a1.25 1.25 0 1 0 0 2.5 1.25 1.25 0 0 0 0-2.5ZM9.25 19a2.75 2.75 0 1 1 5.5 0 2.75 2.75 0 0 1-5.5 0ZM19 17.75a1.25 1.25 0 1 0 0 2.5 1.25 1.25 0 0 0 0-2.5ZM16.25 19a2.75 2.75 0 1 1 5.5 0 2.75 2.75 0 0 1-5.5 0Zm-5.5-7a1.25 1.25 0 1 1 2.5 0 1.25 1.25 0 0 1-2.5 0ZM12 9.25a2.75 2.75 0 1 0 0 5.5 2.75 2.75 0 0 0 0-5.5Zm-7 1.5a1.25 1.25 0 1 0 0 2.5 1.25 1.25 0 0 0 0-2.5ZM2.25 12a2.75 2.75 0 1 1 5.5 0 2.75 2.75 0 0 1-5.5 0ZM19 3.75a1.25 1.25 0 1 0 0 2.5 1.25 1.25 0 0 0 0-2.5ZM16.25 5a2.75 2.75 0 1 1 5.5 0 2.75 2.75 0 0 1-5.5 0ZM3.75 5a1.25 1.25 0 1 1 2.5 0 1.25 1.25 0 0 1-2.5 0ZM5 2.25a2.75 2.75 0 1 0 0 5.5 2.75 2.75 0 0 0 0-5.5Z" fill="#151E28"/></svg>