<svg viewBox="0 0 24 24" fill="none" xmlns="http://www.w3.org/2000/svg"><path d="M20 14a8 8 0 1 1-16 0c0-3.23 2.94-7.08 5.496-10.09.883-1.04 1.324-1.56 1.825-1.74a1.98 1.98 0 0 1 1.359 0c.5.18.941.7 1.824 1.74C17.062 6.92 20 10.77 20 14Z" fill="#636F7E" fill-opacity=".16"/><path fill-rule="evenodd" clip-rule="evenodd" d="M12.425 2.875c-.28-.1-.57-.1-.85 0-.097.036-.24.121-.494.374-.256.255-.564.617-1.013 1.146C8.795 5.893 7.453 7.571 6.43 9.261 5.399 10.966 4.75 12.592 4.75 14a7.25 7.25 0 1 0 14.5 0c0-1.408-.65-3.034-1.681-4.74-1.023-1.689-2.365-3.367-3.637-4.865-.45-.53-.758-.89-1.014-1.146-.254-.253-.396-.338-.494-.374Zm-1.359-1.41a2.73 2.73 0 0 1 1.868 0c.403.145.731.41 1.044.722.305.304.653.714 1.077 1.212l.02.025c1.286 1.512 2.692 3.265 3.778 5.06 1.077 1.78 1.897 3.694 1.897 5.516a8.75 8.75 0 1 1-17.5 0c0-1.822.82-3.736 1.897-5.516C6.234 6.69 7.64 4.936 8.924 3.424l.022-.025c.423-.498.771-.908 1.076-1.212.313-.312.642-.577 1.044-.722Z" fill="#151E28"/></svg>