<svg viewBox="0 0 24 24" fill="none" xmlns="http://www.w3.org/2000/svg"><path fill-rule="evenodd" clip-rule="evenodd" d="M5 5h2a1 1 0 0 1 1 1v12a1 1 0 0 1-1 1H5a1 1 0 0 1-1-1V6a1 1 0 0 1 1-1Zm12 0h2a1 1 0 0 1 1 1v12a1 1 0 0 1-1 1h-2a1 1 0 0 1-1-1V6a1 1 0 0 1 1-1Z" fill="#636F7E" fill-opacity=".16"/><path fill-rule="evenodd" clip-rule="evenodd" d="M7 5.75a.25.25 0 0 1 .25.25v12a.25.25 0 0 1-.25.25H5a.25.25 0 0 1-.25-.25V6A.25.25 0 0 1 5 5.75h2ZM8.75 6A1.75 1.75 0 0 0 7 4.25H5A1.75 1.75 0 0 0 3.25 6v5.25H1a.75.75 0 0 0 0 1.5h2.25V18c0 .966.784 1.75 1.75 1.75h2A1.75 1.75 0 0 0 8.75 18v-5.25h6.5V18c0 .967.784 1.75 1.75 1.75h2A1.75 1.75 0 0 0 20.75 18v-5.25H23a.75.75 0 0 0 0-1.5h-2.25V6A1.75 1.75 0 0 0 19 4.25h-2A1.75 1.75 0 0 0 15.25 6v5.25h-6.5V6Zm10.5 12V6a.25.25 0 0 0-.25-.25h-2a.25.25 0 0 0-.25.25v12c0 .138.112.25.25.25h2a.25.25 0 0 0 .25-.25Z" fill="#151E28"/></svg>