<svg viewBox="0 0 24 24" fill="none" xmlns="http://www.w3.org/2000/svg"><path d="m17.5 3.5-4.246 4.247c-.467.466-.7.7-.89.963a3.998 3.998 0 0 0-.425.751c-.129.299-.209.619-.369 1.259L11 13l2.28-.57c.64-.16.96-.24 1.259-.369a4 4 0 0 0 .75-.425c.265-.19.498-.423.964-.89L20.5 6.5c.08-.08.12-.12.151-.155a2 2 0 0 0 0-2.69A4.885 4.885 0 0 0 20.5 3.5c-.08-.08-.12-.12-.155-.152a2 2 0 0 0-2.69 0 5.431 5.431 0 0 0-.155.152Z" fill="#636F7E" fill-opacity=".16"/><path fill-rule="evenodd" clip-rule="evenodd" d="M18.16 3.904a1.25 1.25 0 0 1 1.68 0c.02.017.044.04.13.127l.127.128a1.25 1.25 0 0 1 0 1.682 4.708 4.708 0 0 1-.127.129l-4.247 4.246c-.483.484-.668.665-.871.811-.19.137-.395.253-.61.346-.23.099-.48.164-1.144.33l-1.067.266.267-1.067c.165-.663.23-.914.33-1.144a3.25 3.25 0 0 1 .345-.61c.146-.203.328-.388.81-.871l4.247-4.246c.086-.086.11-.11.13-.127Zm2.69-1.11a2.75 2.75 0 0 0-3.868.163l-.012.013-4.247 4.246-.044.044c-.425.425-.698.699-.924 1.013-.2.278-.37.577-.505.891-.153.355-.247.731-.392 1.314l-.016.06-.57 2.28a.75.75 0 0 0 .91.91l2.28-.57.06-.015c.583-.146.959-.24 1.314-.393.314-.136.613-.305.892-.505.313-.225.587-.5 1.012-.924l.044-.044 4.246-4.246.013-.013a2.75 2.75 0 0 0 0-4.035l-.013-.013-.012-.013a5.111 5.111 0 0 0-.168-.163ZM9.4 2.25h-.033c-1.092 0-1.958 0-2.655.057-.714.058-1.317.18-1.868.46a4.75 4.75 0 0 0-2.076 2.077c-.281.55-.403 1.155-.461 1.868-.057.698-.057 1.563-.057 2.655v5.266c0 1.092 0 1.958.057 2.655.058.714.18 1.317.46 1.869a4.75 4.75 0 0 0 2.077 2.076c.55.28 1.154.402 1.868.46.697.057 1.563.057 2.655.057h5.266c1.092 0 1.958 0 2.655-.057.714-.058 1.317-.18 1.869-.46a4.75 4.75 0 0 0 2.075-2.076c.281-.552.403-1.155.461-1.869.057-.697.057-1.563.057-2.655V12a.75.75 0 0 0-1.5 0v2.6c0 1.133 0 1.937-.052 2.566-.05.62-.147 1.005-.302 1.31a3.25 3.25 0 0 1-1.42 1.42c-.305.155-.69.252-1.31.302-.63.052-1.434.052-2.566.052H9.4c-1.132 0-1.937 0-2.566-.052-.62-.05-1.005-.147-1.31-.302a3.25 3.25 0 0 1-1.42-1.42c-.155-.305-.251-.69-.302-1.31-.051-.63-.052-1.433-.052-2.566V9.4c0-1.132 0-1.937.052-2.566.05-.62.147-1.005.302-1.31a3.25 3.25 0 0 1 1.42-1.42c.305-.155.69-.251 1.31-.302.63-.051 1.434-.052 2.566-.052H12a.75.75 0 0 0 0-1.5H9.4Z" fill="#151E28"/></svg>