<svg viewBox="0 0 24 24" fill="none" xmlns="http://www.w3.org/2000/svg"><path fill-rule="evenodd" clip-rule="evenodd" d="M9.25 10.25a3.168 3.168 0 0 1 2.681-1.5c1 0 1.894.47 2.48 1.214a.75.75 0 1 0 1.178-.928 4.649 4.649 0 0 0-3.658-1.786c-1.984 0-3.668 1.247-4.353 3H7a.75.75 0 0 0 0 1.5h.256a4.89 4.89 0 0 0 0 .5H7a.75.75 0 0 0 0 1.5h.578c.685 1.752 2.37 3 4.353 3a4.649 4.649 0 0 0 3.658-1.786.75.75 0 1 0-1.178-.928 3.15 3.15 0 0 1-2.48 1.214 3.168 3.168 0 0 1-2.681-1.5H11a.75.75 0 0 0 0-1.5H8.76a3.378 3.378 0 0 1 0-.5H12a.75.75 0 0 0 0-1.5H9.25Z" fill="#151E28"/></svg>