<svg viewBox="0 0 24 24" fill="none" xmlns="http://www.w3.org/2000/svg"><circle cx="12" cy="12" r="9" fill="#636F7E" fill-opacity=".16"/><path fill-rule="evenodd" clip-rule="evenodd" d="M3.75 12a8.25 8.25 0 1 1 16.5 0 8.25 8.25 0 0 1-16.5 0ZM12 2.25c-5.385 0-9.75 4.365-9.75 9.75s4.365 9.75 9.75 9.75 9.75-4.365 9.75-9.75S17.385 2.25 12 2.25Zm-.069 6.5c-1.12 0-2.114.595-2.681 1.5H12a.75.75 0 0 1 0 1.5H8.76a3.383 3.383 0 0 0 0 .5H11a.75.75 0 0 1 0 1.5H9.25c.567.905 1.56 1.5 2.681 1.5 1 0 1.894-.47 2.48-1.214a.75.75 0 1 1 1.178.928 4.649 4.649 0 0 1-3.658 1.786c-1.984 0-3.668-1.248-4.353-3H7a.75.75 0 0 1 0-1.5h.256a4.89 4.89 0 0 1 0-.5H7a.75.75 0 0 1 0-1.5h.578c.685-1.753 2.37-3 4.353-3 1.484 0 2.803.701 3.658 1.786a.75.75 0 1 1-1.178.928 3.15 3.15 0 0 0-2.48-1.214Z" fill="#151E28"/></svg>