<svg viewBox="0 0 24 24" fill="none" xmlns="http://www.w3.org/2000/svg"><path fill-rule="evenodd" clip-rule="evenodd" d="M12 21a9 9 0 1 0 0-18 9 9 0 0 0 0 18Zm-4.091-7.793C8.178 13 8.469 13 9.049 13h5.902c.58 0 .871 0 1.14.207.195.148.38.504.391.749.015.339-.112.52-.365.883C15.382 15.889 14.107 17 12 17c-2.108 0-3.382-1.11-4.117-2.161-.253-.363-.38-.544-.365-.883.01-.245.196-.6.39-.75Z" fill="#636F7E" fill-opacity=".16"/><path fill-rule="evenodd" clip-rule="evenodd" d="M3.75 12a8.25 8.25 0 1 1 16.5 0 8.25 8.25 0 0 1-16.5 0ZM12 2.25c-5.385 0-9.75 4.365-9.75 9.75s4.365 9.75 9.75 9.75 9.75-4.365 9.75-9.75S17.385 2.25 12 2.25Zm-2.95 10h-.104c-.476-.002-1.017-.005-1.494.361a1.788 1.788 0 0 0-.473.588 1.789 1.789 0 0 0-.21.724c-.027.596.235.969.465 1.296l.034.05c.83 1.187 2.31 2.481 4.732 2.481 2.421 0 3.902-1.294 4.732-2.482l.034-.049c.23-.327.492-.7.465-1.296-.012-.27-.11-.53-.21-.724a1.787 1.787 0 0 0-.473-.588c-.477-.366-1.018-.363-1.494-.361H9.049Zm-.69 1.56a.28.28 0 0 1 .013-.014c.012-.009.033-.019.096-.028.114-.016.27-.018.58-.018h5.902c.31 0 .466.002.58.018.063.01.084.019.096.027l.005.006.007.01a.56.56 0 0 1 .094.188c0 .027-.002.04-.002.043a.177.177 0 0 1-.012.032.974.974 0 0 1-.066.115c-.039.059-.085.126-.15.22-.64.914-1.709 1.841-3.503 1.841s-2.863-.927-3.502-1.841a7.737 7.737 0 0 1-.15-.22.99.99 0 0 1-.067-.115.135.135 0 0 1-.012-.032.202.202 0 0 1-.002-.043.559.559 0 0 1 .094-.189ZM16 9a1 1 0 1 1-2 0 1 1 0 0 1 2 0Zm-7 1a1 1 0 1 0 0-2 1 1 0 0 0 0 2Z" fill="#151E28"/></svg>