<svg viewBox="0 0 24 24" fill="none" xmlns="http://www.w3.org/2000/svg"><circle cx="12" cy="12" r="9" fill="#636F7E" fill-opacity=".16"/><path fill-rule="evenodd" clip-rule="evenodd" d="M12.5 3.75a8.24 8.24 0 0 1 6.746 3.5H17a.75.75 0 1 0 0 1.5h4a.75.75 0 0 0 .75-.75V4a.75.75 0 0 0-1.5 0v2.083A9.735 9.735 0 0 0 12.5 2.25c-5.385 0-9.75 4.365-9.75 9.75s4.365 9.75 9.75 9.75a9.75 9.75 0 0 0 8.736-5.416.75.75 0 1 0-1.343-.668A8.25 8.25 0 1 1 12.5 3.75ZM10.75 9a.75.75 0 0 0-1.5 0v6a.75.75 0 0 0 1.5 0V9Zm3 1.5a.75.75 0 0 1 1.5 0v3a.75.75 0 0 1-1.5 0v-3Zm.75-2.25a2.25 2.25 0 0 0-2.25 2.25v3a2.25 2.25 0 0 0 4.5 0v-3a2.25 2.25 0 0 0-2.25-2.25Z" fill="#151E28"/></svg>