<svg viewBox="0 0 24 24" fill="none" xmlns="http://www.w3.org/2000/svg"><path d="M17 14.2V7.667h-2.371c-1.12 0-1.68 0-2.108-.218a2 2 0 0 1-.874-.874c-.218-.428-.218-.988-.218-2.108V2H8.8c-1.68 0-2.52 0-3.162.327a3 3 0 0 0-1.311 1.311C4 4.28 4 5.12 4 6.8v7.4c0 1.68 0 2.52.327 3.162a3 3 0 0 0 1.311 1.311C6.28 19 7.12 19 8.8 19h3.4c1.68 0 2.52 0 3.162-.327a3 3 0 0 0 1.311-1.311C17 16.72 17 15.88 17 14.2Z" fill="#636F7E" fill-opacity=".16"/><path fill-rule="evenodd" clip-rule="evenodd" d="M12.179 4.467V3.239l3.584 3.584.093.094h-1.227c-.573 0-.957 0-1.253-.025-.287-.024-.424-.065-.515-.112a1.25 1.25 0 0 1-.546-.546c-.046-.09-.088-.228-.112-.515-.024-.296-.024-.68-.024-1.252Zm5.571 3.2v6.565c0 .813 0 1.469-.043 2-.045.546-.14 1.026-.366 1.47a3.75 3.75 0 0 1-1.639 1.64c-.444.226-.924.32-1.47.365-.531.043-1.187.043-2 .043H8.768c-.813 0-1.469 0-2-.043-.546-.045-1.026-.14-1.47-.366a3.75 3.75 0 0 1-1.64-1.639c-.226-.444-.32-.924-.365-1.47-.043-.531-.043-1.187-.043-2V6.768c0-.813 0-1.469.043-2 .045-.546.14-1.026.366-1.47a3.75 3.75 0 0 1 1.639-1.64c.444-.226.924-.32 1.47-.365.531-.043 1.187-.043 2-.043h2.661c.096 0 .19.018.274.052.46.09.89.297 1.249.602.085.073.166.153.268.255l.017.018 3.586 3.586.018.017c.102.102.182.182.255.268.348.41.567.911.633 1.442a.75.75 0 0 1 .021.177ZM6.89 2.788c-.453.037-.714.107-.911.207a2.25 2.25 0 0 0-.984.984c-.1.197-.17.458-.207.912-.037.462-.038 1.057-.038 1.909v7.4c0 .853 0 1.447.038 1.91.037.453.107.714.207.912.216.423.56.767.984.983.197.1.458.17.912.207.462.037 1.057.038 1.909.038h3.4c.853 0 1.447 0 1.91-.038.453-.038.714-.107.912-.207.423-.216.767-.56.983-.983.1-.198.17-.459.207-.913.037-.462.038-1.057.038-1.909V8.417h-1.651c-.535 0-.98 0-1.345-.03-.38-.031-.737-.098-1.074-.27a2.75 2.75 0 0 1-1.202-1.202c-.171-.337-.239-.694-.27-1.074-.03-.364-.03-.81-.03-1.344V2.75H8.8c-.852 0-1.447 0-1.91.038ZM20.75 10a.75.75 0 0 0-1.5 0v4c0 1.412 0 2.427-.066 3.223-.064.787-.188 1.295-.397 1.707a4.251 4.251 0 0 1-1.857 1.857c-.412.21-.92.333-1.707.397-.796.065-1.81.066-3.223.066H9a.75.75 0 0 0 0 1.5h3.034c1.371 0 2.447 0 3.311-.07.88-.072 1.607-.221 2.265-.557a5.75 5.75 0 0 0 2.513-2.513c.336-.658.485-1.385.556-2.265.071-.864.071-1.94.071-3.311V10Z" fill="#151E28"/></svg>