<svg viewBox="0 0 24 24" fill="none" xmlns="http://www.w3.org/2000/svg"><path d="M9.8 21h4.4c1.68 0 2.52 0 3.162-.327a3 3 0 0 0 1.311-1.311 2.19 2.19 0 0 0 .144-.362L5.077 5.5C5 6.048 5 6.764 5 7.8v8.4c0 1.68 0 2.52.327 3.162a3 3 0 0 0 1.311 1.311C7.28 21 8.12 21 9.8 21Z" fill="#636F7E" fill-opacity=".16"/><path fill-rule="evenodd" clip-rule="evenodd" d="M2.53 1.47a.75.75 0 0 0-1.06 1.06l2.864 2.865v.001c-.084.6-.084 1.36-.084 2.344v8.492c0 .813 0 1.469.043 2 .045.546.14 1.026.366 1.47a3.75 3.75 0 0 0 1.639 1.64c.444.226.924.32 1.47.365.531.043 1.187.043 2 .043h4.464c.813 0 1.469 0 2-.043.546-.045 1.026-.14 1.47-.366a3.751 3.751 0 0 0 1.377-1.2l2.39 2.39a.75.75 0 1 0 1.061-1.061l-20-20Zm15.46 17.58L5.754 6.814c-.004.285-.004.61-.004.986v8.4c0 .852 0 1.447.038 1.91.037.453.107.714.207.912.216.423.56.767.984.983.197.1.458.17.912.207.462.037 1.057.038 1.909.038h4.4c.852 0 1.447 0 1.91-.038.453-.038.714-.107.912-.207a2.25 2.25 0 0 0 .968-.955ZM9.797 2.25h3.228c.144 0 .258 0 .37.01a2.75 2.75 0 0 1 1.557.644c.085.073.166.153.268.255l.017.018 3.586 3.586.018.017c.102.102.182.182.255.268.373.439.598.983.645 1.557.01.112.009.226.009.37V15a.75.75 0 0 1-1.5 0V9.75h-2.08c-.535 0-.98 0-1.345-.03-.38-.03-.736-.098-1.073-.27a2.75 2.75 0 0 1-1.202-1.202c-.172-.337-.24-.693-.27-1.073-.03-.365-.03-.81-.03-1.345V3.75H9.8c-.293 0-1.554 0-1.795.002a.75.75 0 0 1-.01-1.5c.246-.002 1.508-.002 1.802-.002ZM13.75 5.8V3.892c.082.043.16.095.23.155.034.029.069.063.197.19l3.586 3.586c.127.128.161.163.19.196.06.072.112.149.155.231H16.2c-.572 0-.957 0-1.252-.025-.288-.023-.425-.065-.516-.111a1.25 1.25 0 0 1-.546-.547c-.046-.09-.088-.227-.111-.514-.024-.296-.025-.68-.025-1.253Z" fill="#151E28"/></svg>