<svg viewBox="0 0 24 24" fill="none" xmlns="http://www.w3.org/2000/svg"><path d="M19 16.2V9h-2.8c-1.12 0-1.68 0-2.108-.218a2 2 0 0 1-.874-.874C13 7.48 13 6.92 13 5.8V3H9.8c-1.68 0-2.52 0-3.162.327a3 3 0 0 0-1.311 1.311C5 5.28 5 6.12 5 7.8v8.4c0 1.68 0 2.52.327 3.162a3 3 0 0 0 1.311 1.311C7.28 21 8.12 21 9.8 21h4.4c1.68 0 2.52 0 3.162-.327a3 3 0 0 0 1.311-1.311C19 18.72 19 17.88 19 16.2Z" fill="#636F7E" fill-opacity=".16"/><path fill-rule="evenodd" clip-rule="evenodd" d="M13.75 5.8V3.892c.082.043.16.095.23.155.034.029.069.063.197.19l3.586 3.586c.127.128.161.163.19.196.06.072.112.149.155.231H16.2c-.572 0-.957 0-1.252-.025-.288-.023-.425-.065-.516-.111a1.25 1.25 0 0 1-.546-.547c-.046-.09-.088-.227-.111-.514-.024-.296-.025-.68-.025-1.253Zm6 10.4V8.975c0-.144 0-.258-.01-.37a2.75 2.75 0 0 0-.644-1.557c-.073-.086-.153-.166-.255-.268l-.018-.017-3.586-3.586-.017-.018a4.57 4.57 0 0 0-.268-.255 2.75 2.75 0 0 0-1.557-.645c-.112-.01-.226-.009-.37-.009H9.768c-.813 0-1.469 0-2 .043-.546.045-1.026.14-1.47.366a3.75 3.75 0 0 0-1.64 1.639c-.226.444-.32.924-.365 1.47-.043.531-.043 1.187-.043 2v8.464c0 .813 0 1.469.043 2 .045.546.14 1.026.366 1.47a3.75 3.75 0 0 0 1.639 1.64c.444.226.924.32 1.47.365.531.043 1.187.043 2 .043h4.464c.813 0 1.469 0 2-.043.546-.045 1.026-.14 1.47-.366a3.75 3.75 0 0 0 1.64-1.639c.226-.444.32-.924.365-1.47.043-.531.043-1.187.043-2V16.2ZM7.89 3.788c-.453.037-.714.107-.911.207a2.25 2.25 0 0 0-.984.984c-.1.197-.17.458-.207.912-.037.462-.038 1.057-.038 1.909v8.4c0 .852 0 1.447.038 1.91.037.453.107.714.207.912.216.423.56.767.984.983.197.1.458.17.912.207.462.037 1.057.038 1.909.038h4.4c.853 0 1.447 0 1.91-.038.453-.038.714-.107.912-.207.423-.216.767-.56.983-.983.1-.198.17-.459.207-.913.037-.462.038-1.057.038-1.909V9.75h-2.08c-.535 0-.98 0-1.345-.03-.38-.03-.736-.098-1.073-.27a2.75 2.75 0 0 1-1.202-1.202c-.172-.337-.24-.693-.27-1.073-.03-.365-.03-.81-.03-1.345V3.75H9.8c-.852 0-1.447 0-1.91.038Zm5.14 7.182a.75.75 0 1 0-1.06 1.06l1.22 1.22H9a.75.75 0 0 0 0 1.5h4.19l-1.22 1.22a.75.75 0 1 0 1.06 1.06l2.5-2.5a.75.75 0 0 0 0-1.06l-2.5-2.5Z" fill="#151E28"/></svg>