<svg viewBox="0 0 24 24" fill="none" xmlns="http://www.w3.org/2000/svg"><path d="M7 21h10V3H7v18Z" fill="#636F7E" fill-opacity=".16"/><path fill-rule="evenodd" clip-rule="evenodd" d="M14.6 2.25h.033c.85 0 1.564 0 2.167.027a.75.75 0 0 1 .487.03h.001c.714.058 1.317.18 1.869.46a4.75 4.75 0 0 1 2.075 2.077c.281.55.403 1.154.461 1.868.057.697.057 1.563.057 2.655v5.266c0 1.092 0 1.958-.057 2.655-.058.714-.18 1.317-.46 1.869a4.75 4.75 0 0 1-2.076 2.075c-.552.281-1.155.403-1.869.461h-.001a.747.747 0 0 1-.487.03c-.603.027-1.316.027-2.167.027H9.367c-.85 0-1.564 0-2.167-.027a.753.753 0 0 1-.487-.03h-.001c-.714-.058-1.317-.18-1.868-.46a4.75 4.75 0 0 1-2.076-2.076c-.281-.552-.403-1.155-.461-1.869-.057-.697-.057-1.563-.057-2.655V9.367c0-1.092 0-1.958.057-2.655.058-.714.18-1.317.46-1.868a4.75 4.75 0 0 1 2.077-2.076c.55-.281 1.154-.403 1.868-.461h.001a.748.748 0 0 1 .487-.03c.603-.027 1.316-.027 2.167-.027H14.6ZM6.25 3.875V5.5a.75.75 0 0 0 1.5 0V3.76a82.55 82.55 0 0 1 1.65-.01h5.2c.648 0 1.188 0 1.65.01V5.5a.75.75 0 0 0 1.5 0V3.875c.302.054.53.13.726.23a3.25 3.25 0 0 1 1.42 1.42c.155.304.251.688.302 1.309.051.63.052 1.434.052 2.566v5.2c0 1.133 0 1.937-.052 2.566-.05.62-.147 1.005-.302 1.31a3.25 3.25 0 0 1-1.42 1.42c-.196.1-.424.175-.726.23V18.5a.75.75 0 0 0-1.5 0v1.74c-.462.01-1.002.01-1.65.01H9.4c-.648 0-1.188 0-1.65-.01V18.5a.75.75 0 0 0-1.5 0v1.625a2.566 2.566 0 0 1-.725-.23 3.25 3.25 0 0 1-1.42-1.42c-.156-.304-.252-.688-.303-1.309-.051-.63-.052-1.434-.052-2.566V9.4c0-1.132 0-1.937.052-2.566.05-.62.147-1.005.302-1.31a3.25 3.25 0 0 1 1.42-1.42c.196-.1.424-.175.726-.23ZM7.75 8.5a.75.75 0 0 0-1.5 0v2a.75.75 0 0 0 1.5 0v-2Zm10 0a.75.75 0 0 0-1.5 0v2a.75.75 0 0 0 1.5 0v-2Zm-10 5a.75.75 0 0 0-1.5 0v2a.75.75 0 0 0 1.5 0v-2Zm10 0a.75.75 0 0 0-1.5 0v2a.75.75 0 0 0 1.5 0v-2Z" fill="#151E28"/></svg>