<svg viewBox="0 0 24 24" fill="none" xmlns="http://www.w3.org/2000/svg"><path d="M5 14V4l2.637-.527a6.23 6.23 0 0 1 4.43.767l.725.435a4.69 4.69 0 0 0 4.511.174c.78-.39 1.697.177 1.697 1.048v7.12a1.59 1.59 0 0 1-.879 1.422l-.06.03a6.233 6.233 0 0 1-5.995-.23 6.232 6.232 0 0 0-4.429-.766L5 14Z" fill="#636F7E" fill-opacity=".16"/><path fill-rule="evenodd" clip-rule="evenodd" d="M5 1.25a.75.75 0 0 1 .75.75v1.085l1.74-.348a6.983 6.983 0 0 1 4.962.86l.726.435a3.94 3.94 0 0 0 3.79.146 1.923 1.923 0 0 1 2.782 1.72v7.12c0 .886-.5 1.696-1.293 2.092l-.061.03a6.983 6.983 0 0 1-6.716-.257 5.483 5.483 0 0 0-3.896-.675l-2.034.407V22a.75.75 0 0 1-1.5 0V2A.75.75 0 0 1 5 1.25Zm.75 11.835 1.74-.348a6.983 6.983 0 0 1 4.962.86 5.483 5.483 0 0 0 5.273.202l.061-.03a.84.84 0 0 0 .464-.751v-7.12a.423.423 0 0 0-.612-.379 5.44 5.44 0 0 1-5.232-.2l-.726-.436a5.483 5.483 0 0 0-3.896-.675l-2.034.407v8.47Z" fill="#151E28"/></svg>