<svg viewBox="0 0 24 24" fill="none" xmlns="http://www.w3.org/2000/svg"><path fill-rule="evenodd" clip-rule="evenodd" d="M3.436 5.184C3 6.04 3 7.16 3 9.4v5.2c0 2.24 0 3.36.436 4.216a4 4 0 0 0 1.748 1.748C6.04 21 7.16 21 9.4 21h5.2c2.24 0 3.36 0 4.216-.436a4 4 0 0 0 1.748-1.748C21 17.96 21 16.84 21 14.6V9.988c0-.734 0-1.1-.083-1.446a3 3 0 0 0-.36-.867c-.185-.303-.444-.562-.963-1.08l-2.188-2.19c-.519-.518-.778-.777-1.081-.963a3.001 3.001 0 0 0-.867-.36C15.112 3 14.745 3 14.012 3H9.4c-2.24 0-3.36 0-4.216.436a4 4 0 0 0-1.748 1.748ZM11.7 11A2.7 2.7 0 0 0 9 13.7v.6a2.7 2.7 0 0 0 2.7 2.7h.6a2.7 2.7 0 0 0 2.7-2.7v-.6a2.7 2.7 0 0 0-2.7-2.7h-.6Z" fill="#636F7E" fill-opacity=".16"/><path fill-rule="evenodd" clip-rule="evenodd" d="M15.283 3.812c-.24-.057-.502-.062-1.271-.062H9.4c-1.132 0-1.937 0-2.566.052-.62.05-1.005.147-1.31.302a3.25 3.25 0 0 0-1.42 1.42c-.155.305-.251.69-.302 1.31-.051.63-.052 1.434-.052 2.566v5.2c0 1.133 0 1.937.052 2.566.05.62.147 1.005.302 1.31a3.25 3.25 0 0 0 1.42 1.42c.305.155.69.251 1.31.302.63.051 1.434.052 2.566.052h5.2c1.133 0 1.937 0 2.566-.052.62-.05 1.005-.147 1.31-.302a3.25 3.25 0 0 0 1.42-1.42c.155-.305.251-.69.302-1.31.051-.63.052-1.434.052-2.566V9.988c0-.77-.005-1.032-.062-1.27a2.249 2.249 0 0 0-.27-.65c-.128-.21-.31-.4-.854-.944l-2.188-2.188c-.545-.544-.734-.726-.943-.854a2.25 2.25 0 0 0-.65-.27ZM14.097 2.25c.652 0 1.103 0 1.536.104a3.75 3.75 0 0 1 1.084.449c.38.232.698.551 1.159 1.012l.06.06 2.188 2.189.06.06c.462.46.78.78 1.013 1.16.206.335.358.7.45 1.083.103.433.103.884.103 1.536v4.73c0 1.092 0 1.958-.057 2.655-.058.714-.18 1.317-.46 1.869a4.75 4.75 0 0 1-2.076 2.075c-.552.281-1.155.403-1.869.461-.697.057-1.563.057-2.655.057H9.367c-1.092 0-1.958 0-2.655-.057-.714-.058-1.317-.18-1.868-.46a4.75 4.75 0 0 1-2.076-2.076c-.281-.552-.403-1.155-.461-1.869-.057-.697-.057-1.563-.057-2.655V9.367c0-1.092 0-1.958.057-2.655.058-.714.18-1.317.46-1.868a4.75 4.75 0 0 1 2.077-2.076c.55-.281 1.154-.403 1.868-.461.697-.057 1.563-.057 2.655-.057h4.73ZM15 7.75H8a.75.75 0 0 1 0-1.5h7a.75.75 0 0 1 0 1.5Zm-3.3 2.5a3.45 3.45 0 0 0-3.45 3.45v.6a3.45 3.45 0 0 0 3.45 3.45h.6a3.45 3.45 0 0 0 3.45-3.45v-.6a3.45 3.45 0 0 0-3.45-3.45h-.6ZM9.75 13.7a1.95 1.95 0 0 1 1.95-1.95h.6a1.95 1.95 0 0 1 1.95 1.95v.6a1.95 1.95 0 0 1-1.95 1.95h-.6a1.95 1.95 0 0 1-1.95-1.95v-.6Z" fill="#151E28"/></svg>