<svg viewBox="0 0 24 24" fill="none" xmlns="http://www.w3.org/2000/svg"><path d="M17.2 20H6.8c-1.68 0-2.52 0-3.162-.327a3 3 0 0 1-1.311-1.311C2 17.72 2 16.88 2 15.2V7.8c0-1.68 0-2.52.327-3.162A3 3 0 0 1 3.342 3.5L19.5 19.923c-.548.077-1.264.077-2.3.077Z" fill="#636F7E" fill-opacity=".16"/><path fill-rule="evenodd" clip-rule="evenodd" d="M2.53 1.47a.75.75 0 0 0-1.06 1.06l.848.849a3.75 3.75 0 0 0-.66.919c-.226.444-.32.924-.365 1.47-.043.531-.043 1.187-.043 2v7.464c0 .813 0 1.469.043 2 .045.546.14 1.026.366 1.47a3.75 3.75 0 0 0 1.639 1.64c.444.226.924.32 1.47.365.532.043 1.187.043 2 .043H17.26c.983 0 1.744 0 2.344-.084h.001l1.865 1.864a.75.75 0 1 0 1.06-1.06l-20-20Zm15.656 17.776L3.379 4.44a2.25 2.25 0 0 0-.384.539c-.1.197-.17.458-.207.912-.037.462-.038 1.057-.038 1.909v7.4c0 .852 0 1.447.038 1.91.038.453.107.714.207.912.216.423.56.767.984.983.197.1.458.17.912.207.462.037 1.057.038 1.91.038h10.4c.375 0 .7 0 .985-.003ZM8.012 3.75c.77 0 1.032.005 1.27.062.23.055.45.146.651.27.21.128.399.31.943.854l.188.188.53-.53-.53.53.06.06c.46.462.78.78 1.16 1.013a3.75 3.75 0 0 0 1.083.45c.433.103.884.103 1.536.103H17.2c.852 0 1.447 0 1.91.038.453.037.714.107.912.207.423.216.767.56.983.984.1.197.17.458.207.912.038.462.038 1.057.038 1.909v4.4c0 .756 0 1.31-.027 1.754a.75.75 0 1 0 1.497.092c.03-.495.03-1.095.03-1.823v-4.455c0-.813 0-1.469-.043-2-.045-.546-.14-1.026-.366-1.47a3.75 3.75 0 0 0-1.639-1.64c-.444-.226-.924-.32-1.47-.365-.531-.043-1.187-.043-2-.043h-2.244c-.77 0-1.032-.005-1.27-.062a2.25 2.25 0 0 1-.65-.27c-.21-.128-.4-.31-.944-.854l-.188-.188-.53.53.53-.53-.06-.06c-.46-.462-.78-.78-1.16-1.013a3.75 3.75 0 0 0-1.083-.45C9.2 2.25 8.749 2.25 8.097 2.25H6.8a.75.75 0 0 0 0 1.5h1.212Z" fill="#151E28"/></svg>