<svg viewBox="0 0 24 24" fill="none" xmlns="http://www.w3.org/2000/svg"><path fill-rule="evenodd" clip-rule="evenodd" d="M6.8 20h10.4c1.68 0 2.52 0 3.162-.327a3 3 0 0 0 1.311-1.311C22 17.72 22 16.88 22 15.2v-4.4c0-1.68 0-2.52-.327-3.162a3 3 0 0 0-1.311-1.311C19.72 6 18.88 6 17.2 6h-2.212c-.733 0-1.1 0-1.446-.083a3.001 3.001 0 0 1-.867-.36c-.303-.185-.562-.444-1.08-.963l-.19-.188c-.518-.519-.777-.778-1.08-.964a3.001 3.001 0 0 0-.867-.36C9.112 3 8.746 3 8.012 3H6.8c-1.68 0-2.52 0-3.162.327a3 3 0 0 0-1.311 1.311C2 5.28 2 6.12 2 7.8v7.4c0 1.68 0 2.52.327 3.162a3 3 0 0 0 1.311 1.311C4.28 20 5.12 20 6.8 20Zm4.2-4a2 2 0 1 0 0-4 2 2 0 0 0 0 4Z" fill="#636F7E" fill-opacity=".16"/><path fill-rule="evenodd" clip-rule="evenodd" d="M8.012 3.75c.77 0 1.032.005 1.27.062.23.055.45.146.651.27.21.128.399.31.943.854l.188.188.06.06c.46.462.78.78 1.16 1.013a3.75 3.75 0 0 0 1.083.45c.433.103.884.103 1.536.103H17.2c.852 0 1.447 0 1.91.038.453.037.714.107.912.207.423.216.767.56.983.984.1.197.17.458.207.912.037.462.038 1.057.038 1.909v4.4c0 .852 0 1.447-.038 1.91-.038.453-.107.714-.207.912-.216.423-.56.767-.983.983-.198.1-.459.17-.913.207-.462.037-1.057.038-1.909.038H6.8c-.852 0-1.447 0-1.91-.038-.453-.038-.714-.107-.911-.207a2.25 2.25 0 0 1-.984-.983c-.1-.198-.17-.459-.207-.913-.037-.462-.038-1.057-.038-1.909V7.8c0-.852 0-1.447.038-1.91.037-.453.107-.714.207-.911a2.25 2.25 0 0 1 .984-.984c.197-.1.458-.17.912-.207.462-.037 1.057-.038 1.909-.038h1.212Zm1.62-1.396C9.2 2.25 8.75 2.25 8.098 2.25h-1.33c-.813 0-1.469 0-2 .043-.546.045-1.026.14-1.47.366a3.75 3.75 0 0 0-1.64 1.639c-.226.444-.32.924-.365 1.47-.043.531-.043 1.187-.043 2v7.464c0 .813 0 1.469.043 2 .045.546.14 1.026.366 1.47a3.75 3.75 0 0 0 1.639 1.64c.444.226.924.32 1.47.365.531.043 1.187.043 2 .043h10.464c.813 0 1.469 0 2-.043.546-.045 1.026-.14 1.47-.366a3.75 3.75 0 0 0 1.64-1.639c.226-.444.32-.924.365-1.47.043-.531.043-1.187.043-2v-4.464c0-.813 0-1.469-.043-2-.045-.546-.14-1.026-.366-1.47a3.75 3.75 0 0 0-1.639-1.64c-.444-.226-.924-.32-1.47-.365-.531-.043-1.187-.043-2-.043h-2.244c-.77 0-1.032-.005-1.27-.062a2.25 2.25 0 0 1-.651-.27c-.21-.128-.399-.31-.943-.854l-.188-.188-.06-.06c-.46-.462-.78-.78-1.16-1.013a3.75 3.75 0 0 0-1.083-.45ZM13.53 8.47a.75.75 0 0 0-1.28.53v2.55a2.75 2.75 0 1 0 1.5 2.45v-3.19l.72.72a.75.75 0 1 0 1.06-1.06l-2-2ZM11 12.75a1.25 1.25 0 1 1 0 2.5 1.25 1.25 0 0 1 0-2.5Z" fill="#151E28"/></svg>