<svg viewBox="0 0 24 24" fill="none" xmlns="http://www.w3.org/2000/svg"><path fill-rule="evenodd" clip-rule="evenodd" d="M4 7V3h6v4a3 3 0 0 1-6 0Zm11-4v11h5s0-7-5-11Z" fill="#636F7E" fill-opacity=".16"/><path fill-rule="evenodd" clip-rule="evenodd" d="M14.675 2.324a.75.75 0 0 1 .793.09c2.668 2.135 3.981 5.05 4.63 7.385.325 1.172.488 2.214.57 2.964a15.206 15.206 0 0 1 .082 1.208V14H20h.75a.75.75 0 0 1-.75.75h-4.25V21a.75.75 0 0 1-1.5 0V3a.75.75 0 0 1 .425-.676ZM15.75 13.25h3.458a17.257 17.257 0 0 0-.556-3.05c-.486-1.75-1.355-3.774-2.902-5.47v8.52ZM4.75 3a.75.75 0 0 0-1.5 0v4a3.751 3.751 0 0 0 3 3.675V21a.75.75 0 0 0 1.5 0V10.675a3.75 3.75 0 0 0 3-3.675V3a.75.75 0 0 0-1.5 0v4a2.25 2.25 0 0 1-4.5 0V3Zm3 0a.75.75 0 0 0-1.5 0v4a.75.75 0 0 0 1.5 0V3Z" fill="#151E28"/></svg>