<svg viewBox="0 0 24 24" fill="none" xmlns="http://www.w3.org/2000/svg"><path d="M8 10 6 6l-.255-.471A8.97 8.97 0 0 1 12 3a9 9 0 0 1 1.92.205L14 3.5c.032.127.048.191.06.25a3 3 0 0 1-.97 2.875c-.046.04-.097.08-.2.163l-.143.115a2.726 2.726 0 0 1-1.703.597c-.958 0-1.845.502-2.338 1.324L8 10h1a1 1 0 0 1 1 1 1 1 0 0 0 1 1h1l1.621.54c.513.171.769.257 1.002.383a3 3 0 0 1 .575.407c.197.178.363.39.694.817L18.5 17.5l.327.365A8.98 8.98 0 0 1 12 21c-.725 0-1.43-.086-2.106-.248L10 20.5l.546-1.366a1.853 1.853 0 0 0-.41-1.998 1.853 1.853 0 0 1-.172-2.421L12 12h-1a1 1 0 0 1-1-1 1 1 0 0 0-1-1H8Z" fill="#636F7E" fill-opacity=".16"/><path fill-rule="evenodd" clip-rule="evenodd" d="M6.684 5.69A8.217 8.217 0 0 1 12 3.75c.447 0 .887.036 1.315.104l.01.049a2.25 2.25 0 0 1-.727 2.156 6.188 6.188 0 0 1-.176.143l-.144.115c-.35.28-.786.433-1.234.433-1.221 0-2.353.64-2.981 1.688l-.003.005L6.684 5.69Zm-1.11 1.135A8.254 8.254 0 0 0 9.452 19.85l.398-.993c.164-.41.068-.878-.244-1.19a2.603 2.603 0 0 1-.242-3.401l1.18-1.575A1.75 1.75 0 0 1 9.25 11a.25.25 0 0 0-.25-.25H8a.75.75 0 0 1-.67-.415l-1.756-3.51Zm5.361 13.357A8.32 8.32 0 0 0 12 20.25a8.224 8.224 0 0 0 5.82-2.403l-2.52-3.24c-.347-.446-.468-.597-.604-.72a2.248 2.248 0 0 0-.431-.305c-.162-.088-.344-.151-.88-.33l-1.11-.37-1.71 2.283a1.102 1.102 0 0 0 .101 1.44c.737.737.963 1.841.577 2.808l-.308.769Zm7.868-3.514a8.253 8.253 0 0 0-3.932-12.405 3.75 3.75 0 0 1-1.29 2.928c-.057.05-.12.1-.21.173l-.012.01-.144.114a3.476 3.476 0 0 1-2.171.762c-.695 0-1.338.364-1.695.96l-.04.067A1.75 1.75 0 0 1 10.75 11c0 .138.112.25.25.25h1c.08 0 .16.013.237.039l1.621.54.06.02c.455.151.771.257 1.063.416.259.14.5.31.719.508.247.223.451.485.746.864l.038.05 2.32 2.981ZM12 2.25c-5.385 0-9.75 4.365-9.75 9.75s4.365 9.75 9.75 9.75 9.75-4.365 9.75-9.75S17.385 2.25 12 2.25Z" fill="#151E28"/></svg>