<svg viewBox="0 0 24 24" fill="none" xmlns="http://www.w3.org/2000/svg"><circle cx="12" cy="9" r="6" fill="#636F7E" fill-opacity=".16"/><path fill-rule="evenodd" clip-rule="evenodd" d="M6.5 2.85a.75.75 0 1 0-1-1.117A9.728 9.728 0 0 0 2.25 9c0 5.132 3.966 9.338 9 9.721v1.529H9a.75.75 0 0 0 0 1.5h6a.75.75 0 0 0 0-1.5h-2.25v-1.53a9.729 9.729 0 0 0 6.517-3.221.75.75 0 0 0-1.117-1 8.227 8.227 0 0 1-6.148 2.75h-.005A8.25 8.25 0 0 1 6.5 2.85Zm5.5.9a5.25 5.25 0 1 0 0 10.5 5.25 5.25 0 0 0 0-10.5ZM5.25 9a6.75 6.75 0 1 1 13.5 0 6.75 6.75 0 0 1-13.5 0Z" fill="#151E28"/></svg>