<svg viewBox="0 0 24 24" fill="none" xmlns="http://www.w3.org/2000/svg"><path fill-rule="evenodd" clip-rule="evenodd" d="M9.493 10.874a2.5 2.5 0 1 1 .045-.046 2.5 2.5 0 0 1 3.514 3.558c-.887.886-1.635.8-2.505.7-.518-.06-1.079-.125-1.738.007.132-.66.067-1.22.007-1.738-.1-.863-.185-1.605.677-2.481ZM4.566 15.8a2.5 2.5 0 0 0 3.532.004 2.5 2.5 0 0 0 3.54 3.531c.886-.887.8-1.634.7-2.505-.06-.517-.125-1.078.007-1.737-.66.131-1.22.067-1.738.007-.868-.1-1.615-.187-2.5.694.881-.884.795-1.63.695-2.5-.06-.517-.125-1.078.007-1.737-.66.132-1.22.067-1.737.007-.87-.1-1.619-.187-2.506.7a2.5 2.5 0 0 0 0 3.536Zm-1.414 4.95a2.5 2.5 0 0 0 3.536 0c.887-.887.8-1.635.7-2.506-.06-.517-.125-1.078.007-1.737-.66.132-1.22.067-1.738.007-.87-.1-1.618-.187-2.505.7a2.5 2.5 0 0 0 0 3.536Zm13.435-2.829a2.5 2.5 0 1 1-3.535-3.535 2.5 2.5 0 0 1 3.535 3.535Z" fill="#636F7E" fill-opacity=".16"/><path fill-rule="evenodd" clip-rule="evenodd" d="M15.175 2.045a.75.75 0 0 0-.707.023l-.397.23c-1.962 1.132-2.176 3.416-1.49 5.25a.75.75 0 0 0 1.405-.527c-.545-1.454-.244-2.802.835-3.424l.027-.016c.235.152.405.312.52.478.156.224.247.501.222.89a.75.75 0 0 0 1.497.096c.045-.701-.123-1.321-.488-1.844-.355-.51-.863-.878-1.424-1.156Zm7.073 8.703a.75.75 0 0 1-.205.677l-.324.324c-1.601 1.602-3.864 1.218-5.456.08a.75.75 0 1 1 .872-1.22c1.263.902 2.643.96 3.523.08l.023-.023a1.84 1.84 0 0 0-.328-.627c-.175-.208-.42-.367-.801-.443a.75.75 0 1 1 .294-1.47c.689.137 1.244.46 1.655.947.4.475.625 1.062.747 1.675Zm-8.666-.428c.71.71 1.024 1.668.938 2.597a3.25 3.25 0 1 1-1.6 5.874c-.157.37-.403.725-.752 1.075a3.25 3.25 0 0 1-4.197.34c-.158.37-.403.724-.753 1.074a3.25 3.25 0 0 1-4.596-4.596c.35-.35.704-.595 1.074-.753a3.25 3.25 0 0 1 .34-4.197c.35-.35.704-.595 1.075-.753a3.25 3.25 0 1 1 5.874-1.6 3.243 3.243 0 0 1 2.597.939ZM8.986 7.845a1.75 1.75 0 0 1 .019 2.456l-.02.019-.019.02a1.75 1.75 0 1 1 .02-2.495Zm1.039 3.557.022-.022.018-.018a1.75 1.75 0 0 1 2.456 2.493c-.284.284-.516.411-.71.474-.2.064-.414.078-.698.06-.114-.008-.248-.024-.399-.041-.302-.036-.671-.08-1.08-.08a9.254 9.254 0 0 0-.08-1.08 8.5 8.5 0 0 1-.04-.4c-.02-.283-.006-.498.059-.697.06-.19.183-.415.452-.689Zm-6.342 6.342c.284-.284.516-.411.71-.474.2-.064.414-.078.698-.06.114.008.248.024.399.042.302.035.672.079 1.08.08.001.408.044.778.08 1.08.018.15.033.285.04.399.02.284.006.498-.059.698-.062.194-.19.426-.473.71a1.75 1.75 0 0 1-2.475-2.475Zm5.66-1.888c-.195.063-.427.19-.71.474a1.75 1.75 0 0 0 2.474 2.475c.284-.284.412-.516.474-.71.064-.2.079-.415.06-.699a8.45 8.45 0 0 0-.041-.398 9.248 9.248 0 0 1-.08-1.08 9.246 9.246 0 0 1-1.08-.08 8.452 8.452 0 0 0-.4-.041c-.283-.02-.497-.005-.697.06Zm-4.246-3.062c.284-.284.516-.41.71-.473.2-.065.414-.079.698-.06.114.008.248.024.399.041a9.11 9.11 0 0 0 1.08.08c.001.409.044.778.08 1.08.018.15.033.285.041.399.019.284.005.498-.06.698-.062.194-.19.426-.473.71a1.75 1.75 0 1 1-2.475-2.475Zm8.485 2.122a1.75 1.75 0 1 1 2.475 2.475 1.75 1.75 0 0 1-2.475-2.475Zm3.02-6.094a5.144 5.144 0 0 1 3.618-1.275.75.75 0 0 0 .065-1.499 6.644 6.644 0 0 0-4.672 1.648l-.93.817a.75.75 0 0 0 .99 1.126l.93-.817Z" fill="#151E28"/></svg>