<svg viewBox="0 0 24 24" fill="none" xmlns="http://www.w3.org/2000/svg"><path fill-rule="evenodd" clip-rule="evenodd" d="M13 5v1a2 2 0 1 1 4 0v3c0 .263-.05.515-.143.745l.143.04V9a2 2 0 1 1 4 0v1a2 2 0 0 1-1 1.733v2.843a5.853 5.853 0 0 1-1.715 4.138A4.39 4.39 0 0 0 17 21.818V22H7c0-1.28-.514-2.514-1.42-3.42a6.513 6.513 0 0 1-1.856-3.79l-.066-.52A4.689 4.689 0 0 1 8.311 9H9V8l-4 2V6a2 2 0 1 1 4 0V5a2 2 0 1 1 4 0Zm-1.854 4c.651 0 1.27.027 1.855.073A1.99 1.99 0 0 1 13 9h-1.854Z" fill="#636F7E" fill-opacity=".16"/><path fill-rule="evenodd" clip-rule="evenodd" d="M11 2.25a2.75 2.75 0 0 0-2.442 1.484A2.75 2.75 0 0 0 4.25 6v4c0 .023 0 .046.003.068a5.416 5.416 0 0 0-1.339 4.295l.065.52c.2 1.6.933 3.09 2.07 4.228A4.096 4.096 0 0 1 6.25 22a.75.75 0 0 0 1.5 0c0-1.48-.593-2.905-1.638-3.95a5.764 5.764 0 0 1-1.643-3.352l-.065-.52A3.939 3.939 0 0 1 8.31 9.75h2.835a1.104 1.104 0 0 1 .493 2.092l-2.96 1.48a.753.753 0 0 0-.303 1.095.75.75 0 0 0 .638.333A2.25 2.25 0 0 1 11.25 17a.75.75 0 0 0 1.5 0 3.747 3.747 0 0 0-1.74-3.166l1.3-.65a2.604 2.604 0 0 0 1.378-1.766c.39.212.837.332 1.312.332a2.74 2.74 0 0 0 1.558-.484A2.75 2.75 0 0 0 21.75 10V9a2.75 2.75 0 0 0-4-2.45V6a2.75 2.75 0 0 0-4.308-2.266A2.75 2.75 0 0 0 11 2.25ZM9.75 8V5a1.25 1.25 0 1 1 2.5 0v3.495a2.594 2.594 0 0 0-1.104-.245H9.75V8Zm-1.5-2v2.25a5.39 5.39 0 0 0-2.5.639V6a1.25 1.25 0 0 1 2.5 0Zm5.5 0v3a1.25 1.25 0 1 0 2.5 0V6a1.25 1.25 0 1 0-2.5 0Zm4 4V9a1.25 1.25 0 1 1 2.5 0v1a1.25 1.25 0 1 1-2.5 0Zm3 4a.75.75 0 0 0-1.5 0v.576a5.103 5.103 0 0 1-1.495 3.608 5.14 5.14 0 0 0-1.505 3.634V22a.75.75 0 0 0 1.5 0v-.182a3.64 3.64 0 0 1 1.066-2.573 6.603 6.603 0 0 0 1.934-4.67V14Z" fill="#151E28"/></svg>