<svg viewBox="0 0 24 24" fill="none" xmlns="http://www.w3.org/2000/svg"><circle cx="12" cy="12" r="9" fill="#636F7E" fill-opacity=".16"/><path fill-rule="evenodd" clip-rule="evenodd" d="M3.75 12a8.25 8.25 0 1 1 16.5 0 8.25 8.25 0 0 1-16.5 0ZM12 2.25c-5.385 0-9.75 4.365-9.75 9.75s4.365 9.75 9.75 9.75 9.75-4.365 9.75-9.75S17.385 2.25 12 2.25Zm-.818 5.022a.75.75 0 0 1 .546.91L11.46 9.25h2.453l.358-1.432a.75.75 0 0 1 1.456.364L15.46 9.25h1.04a.75.75 0 0 1 0 1.5h-1.414l-.625 2.5H15.5a.75.75 0 0 1 0 1.5h-1.414l-.358 1.432a.75.75 0 0 1-1.456-.364l.267-1.068h-2.453l-.358 1.432a.75.75 0 0 1-1.456-.364l.267-1.068H7.5a.75.75 0 0 1 0-1.5h1.414l.625-2.5H8.5a.75.75 0 0 1 0-1.5h1.414l.358-1.432a.75.75 0 0 1 .91-.546Zm-.096 3.478h2.453l-.625 2.5h-2.453l.625-2.5Z" fill="#151E28"/></svg>