<svg viewBox="0 0 24 24" fill="none" xmlns="http://www.w3.org/2000/svg"><path d="M14.675 21h-5.35c-.489 0-.733 0-.963-.055-.205-.05-.4-.13-.579-.24-.201-.123-.374-.296-.72-.642l-3.126-3.126c-.346-.346-.519-.519-.642-.72a2.001 2.001 0 0 1-.24-.578C3 15.409 3 15.164 3 14.675v-5.35c0-.489 0-.733.055-.963a2 2 0 0 1 .24-.579c.123-.201.296-.374.642-.72l3.126-3.126c.346-.346.519-.519.72-.642a2 2 0 0 1 .579-.24C8.592 3 8.836 3 9.325 3h5.35c.489 0 .733 0 .963.055.204.05.4.13.579.24.201.123.374.296.72.642l3.126 3.126c.346.346.519.519.642.72.11.18.19.374.24.579.055.23.055.474.055.963v5.35c0 .489 0 .733-.055.963-.05.204-.13.4-.24.579-.123.201-.296.374-.642.72l-3.126 3.126c-.346.346-.519.519-.72.642-.18.11-.374.19-.578.24-.23.055-.475.055-.964.055Z" fill="#636F7E" fill-opacity=".16"/><path fill-rule="evenodd" clip-rule="evenodd" d="M9.326 2.25h-.073c-.419 0-.748 0-1.066.076a2.75 2.75 0 0 0-.795.33c-.28.17-.512.404-.808.7l-.052.051-3.125 3.125-.051.052c-.296.296-.53.528-.7.808a2.75 2.75 0 0 0-.33.795c-.076.318-.076.647-.076 1.066v5.494c0 .419 0 .748.076 1.067.067.28.179.548.33.794.17.28.404.513.7.808l.051.052 3.125 3.125.052.051c.296.297.528.53.808.7.246.152.514.263.795.33.318.076.647.076 1.066.076h5.494c.419 0 .748 0 1.067-.076a2.71 2.71 0 0 0 .794-.33c.28-.17.513-.403.808-.7l.052-.05 3.125-3.126.051-.052c.297-.295.53-.528.7-.808a2.71 2.71 0 0 0 .33-.794c.076-.319.076-.648.076-1.067V9.253c0-.419 0-.748-.076-1.066a2.75 2.75 0 0 0-.33-.795c-.17-.28-.403-.512-.7-.808l-.05-.052-3.126-3.125-.052-.051c-.295-.296-.528-.53-.808-.7a2.75 2.75 0 0 0-.794-.33c-.319-.076-.648-.076-1.067-.076H9.325Zm-.79 1.535c.124-.03.265-.035.79-.035h5.349c.524 0 .665.005.788.035.128.03.25.08.362.15.108.066.21.161.582.533l3.125 3.125c.372.371.467.474.534.582.068.112.119.234.15.362.03.123.034.264.034.789v5.349c0 .524-.005.665-.035.788a1.25 1.25 0 0 1-.15.362c-.066.108-.161.21-.533.582l-3.125 3.125c-.371.372-.474.467-.582.534a1.25 1.25 0 0 1-.362.15c-.123.03-.263.034-.788.034h-5.35c-.524 0-.665-.005-.788-.035a1.25 1.25 0 0 1-.362-.15c-.108-.066-.21-.161-.582-.533l-3.125-3.125c-.372-.371-.467-.474-.534-.582a1.25 1.25 0 0 1-.15-.362c-.03-.123-.034-.263-.034-.788v-5.35c0-.524.005-.665.035-.788.03-.128.08-.25.15-.362.066-.108.161-.21.533-.582l3.125-3.125c.371-.372.474-.467.582-.534a1.25 1.25 0 0 1 .362-.15ZM10 7.25a.75.75 0 0 1 .75.75v1.25h2.5V8a.75.75 0 1 1 1.5 0v1.25H16a.75.75 0 0 1 0 1.5h-1.25v2.5H16a.75.75 0 1 1 0 1.5h-1.25V16a.75.75 0 0 1-1.5 0v-1.25h-2.5V16a.75.75 0 0 1-1.5 0v-1.25H8a.75.75 0 0 1 0-1.5h1.25v-2.5H8a.75.75 0 0 1 0-1.5h1.25V8a.75.75 0 0 1 .75-.75Zm.75 3.5h2.5v2.5h-2.5v-2.5Z" fill="#151E28"/></svg>