<svg viewBox="0 0 24 24" fill="none" xmlns="http://www.w3.org/2000/svg"><path d="m17.84 10.13.92 3.068c.14.47-.061.974-.487 1.217a12.644 12.644 0 0 1-12.546 0 1.054 1.054 0 0 1-.486-1.217l.92-3.067a9.373 9.373 0 0 0 11.678 0Z" fill="#636F7E" fill-opacity=".16"/><path fill-rule="evenodd" clip-rule="evenodd" d="M8.377 5.354a.25.25 0 0 1 .351-.151l2.042 1.02a2.75 2.75 0 0 0 2.46 0l2.042-1.02a.25.25 0 0 1 .351.151l1.348 4.492a8.624 8.624 0 0 1-9.942 0l1.348-4.492ZM6.578 11.35l-.619 2.064a.305.305 0 0 0 .14.351 11.893 11.893 0 0 0 11.802 0 .304.304 0 0 0 .14-.35l-.62-2.065a10.127 10.127 0 0 1-10.843 0Zm2.82-7.488A1.75 1.75 0 0 0 6.94 4.923l-2.418 8.06a1.804 1.804 0 0 0 .833 2.084 13.393 13.393 0 0 0 13.29 0 1.803 1.803 0 0 0 .833-2.085L17.06 4.923a1.75 1.75 0 0 0-2.459-1.062L12.56 4.88a1.25 1.25 0 0 1-1.118 0L9.4 3.86Zm-5.803 9.136a.75.75 0 0 1-.052 1.059c-.568.514-.793 1.006-.793 1.444 0 .764.724 1.705 2.487 2.498C6.929 18.76 9.32 19.25 12 19.25c2.68 0 5.071-.49 6.763-1.252 1.763-.793 2.487-1.734 2.487-2.498 0-.438-.225-.93-.793-1.444a.75.75 0 0 1 1.007-1.112c.763.69 1.286 1.557 1.286 2.556 0 1.722-1.515 3.03-3.371 3.866-1.927.867-4.537 1.384-7.379 1.384-2.842 0-5.452-.517-7.379-1.384C2.765 18.53 1.25 17.222 1.25 15.5c0-.999.523-1.865 1.286-2.556a.75.75 0 0 1 1.06.053Z" fill="#151E28"/></svg>