<svg viewBox="0 0 24 24" fill="none" xmlns="http://www.w3.org/2000/svg"><path d="M3 14.027h18V15.6c0 2.24 0 3.36-.436 4.216a4 4 0 0 1-1.748 1.748C17.96 22 16.84 22 14.6 22H9.4c-2.24 0-3.36 0-4.216-.436a4 4 0 0 1-1.748-1.748C3 18.96 3 17.84 3 15.6v-1.573Z" fill="#636F7E" fill-opacity=".16"/><path fill-rule="evenodd" clip-rule="evenodd" d="M10.997 1.25h-.178c-1.615 0-2.651 0-3.536.37a4.75 4.75 0 0 0-1.962 1.533c-.575.768-.826 1.774-1.217 3.34l-.044.173-1.788 7.152a.75.75 0 0 0-.022.196v1.619c0 1.092 0 1.958.057 2.655.058.714.18 1.317.46 1.869a4.75 4.75 0 0 0 2.077 2.075c.55.281 1.154.403 1.868.461.697.057 1.563.057 2.655.057h5.266c1.092 0 1.958 0 2.655-.057.714-.058 1.317-.18 1.869-.46a4.75 4.75 0 0 0 2.075-2.076c.281-.552.403-1.155.461-1.869.057-.697.057-1.563.057-2.655v-1.619a.748.748 0 0 0-.022-.196L19.94 6.666l-.044-.173c-.39-1.566-.642-2.572-1.217-3.34a4.75 4.75 0 0 0-1.962-1.532c-.885-.372-1.921-.372-3.536-.371h-2.184ZM7.864 3.004c.57-.24 1.277-.254 3.133-.254h2.006c1.856 0 2.563.014 3.133.254a3.25 3.25 0 0 1 1.342 1.048c.37.495.556 1.177 1.006 2.978l1.555 6.22H3.961l1.555-6.22c.45-1.801.635-2.483 1.006-2.978a3.25 3.25 0 0 1 1.342-1.048ZM3.75 15.6v-.823h16.5v.823c0 1.133 0 1.937-.052 2.566-.05.62-.147 1.005-.302 1.31a3.25 3.25 0 0 1-1.42 1.42c-.305.155-.69.251-1.31.302-.63.051-1.434.052-2.566.052H9.4c-1.132 0-1.937 0-2.566-.052-.62-.05-1.005-.147-1.31-.302a3.25 3.25 0 0 1-1.42-1.42c-.155-.305-.251-.69-.302-1.31-.051-.63-.052-1.433-.052-2.566Zm6.5 2.4a.75.75 0 0 1 .75-.75h6a.75.75 0 0 1 0 1.5h-6a.75.75 0 0 1-.75-.75ZM7 19a1 1 0 1 0 0-2 1 1 0 0 0 0 2Z" fill="#151E28"/></svg>