<svg viewBox="0 0 24 24" fill="none" xmlns="http://www.w3.org/2000/svg"><path d="M3 16a3 3 0 1 1 6 0v2a3 3 0 1 1-6 0v-2Zm12 0a3 3 0 1 1 6 0v2a3 3 0 1 1-6 0v-2Z" fill="#636F7E" fill-opacity=".16"/><path fill-rule="evenodd" clip-rule="evenodd" d="M12 2.25A9.75 9.75 0 0 0 2.25 12v6a3.75 3.75 0 1 0 7.5 0v-2a3.75 3.75 0 0 0-6-3v-1a8.25 8.25 0 1 1 16.5 0v1a3.75 3.75 0 0 0-6 3v2a3.75 3.75 0 1 0 7.5 0v-6A9.75 9.75 0 0 0 12 2.25ZM20.25 16a2.25 2.25 0 0 0-4.5 0v2a2.25 2.25 0 0 0 4.5 0v-2Zm-16.5 0v2a2.25 2.25 0 0 0 4.5 0v-2a2.25 2.25 0 0 0-4.5 0Z" fill="#151E28"/></svg>