<svg viewBox="0 0 24 24" fill="none" xmlns="http://www.w3.org/2000/svg"><path d="M2 16a3 3 0 1 1 6 0v2a3 3 0 1 1-6 0v-2Zm14 0a3 3 0 1 1 6 0v2a3 3 0 1 1-6 0v-2Z" fill="#636F7E" fill-opacity=".16"/><path fill-rule="evenodd" clip-rule="evenodd" d="M12 2.25A7.75 7.75 0 0 0 4.25 10v2.325a3.75 3.75 0 0 0-3 3.675v2a3.75 3.75 0 1 0 7.5 0v-2a3.751 3.751 0 0 0-3-3.675V10a6.25 6.25 0 1 1 12.5 0v2.325a3.75 3.75 0 0 0-3 3.675v2a3.75 3.75 0 1 0 7.5 0v-2a3.751 3.751 0 0 0-3-3.675V10A7.75 7.75 0 0 0 12 2.25Zm7 11.5A2.25 2.25 0 0 0 16.75 16v2a2.25 2.25 0 0 0 4.5 0v-2A2.25 2.25 0 0 0 19 13.75Zm-14 0A2.25 2.25 0 0 0 2.75 16v2a2.25 2.25 0 0 0 4.5 0v-2A2.25 2.25 0 0 0 5 13.75Z" fill="#151E28"/></svg>