<svg viewBox="0 0 24 24" fill="none" xmlns="http://www.w3.org/2000/svg"><path d="m4.226 13.049 7.1 7.26c.37.38.98.38 1.35 0L16.4 16.5 5.5 5.523a4.719 4.719 0 0 0-1.274 7.527Z" fill="#636F7E" fill-opacity=".16"/><path fill-rule="evenodd" clip-rule="evenodd" d="M2.53 1.47a.75.75 0 0 0-1.06 1.06l2.846 2.846a5.469 5.469 0 0 0-.626 8.197l7.099 7.26c.665.68 1.758.68 2.422 0l3.245-3.317 5.014 5.014a.75.75 0 1 0 1.06-1.06l-20-20Zm12.865 14.985L5.39 6.451a3.969 3.969 0 0 0-.628 6.073l7.098 7.261a.194.194 0 0 0 .278 0l3.256-3.33Zm-1.833-9.48a3.97 3.97 0 0 1 5.676 5.55l-.774.792a.75.75 0 0 0 1.072 1.049l.775-.793a5.469 5.469 0 1 0-7.821-7.647l-.49.501-.49-.5a5.476 5.476 0 0 0-1.128-.888.75.75 0 1 0-.764 1.292c.293.173.57.387.82.644l1.026 1.05a.75.75 0 0 0 1.072 0l1.026-1.05Z" fill="#151E28"/></svg>