<svg viewBox="0 0 24 24" fill="none" xmlns="http://www.w3.org/2000/svg"><circle cx="12" cy="12" r="9" fill="#636F7E" fill-opacity=".16"/><path fill-rule="evenodd" clip-rule="evenodd" d="M3.75 5.877V4a.75.75 0 0 0-1.5 0v4c0 .414.336.75.75.75h4a.75.75 0 0 0 0-1.5H4.565C6.138 5.169 9.161 3.75 12 3.75A8.25 8.25 0 1 1 3.75 12a.75.75 0 0 0-1.5 0c0 5.385 4.365 9.75 9.75 9.75s9.75-4.365 9.75-9.75S17.385 2.25 12 2.25c-3.02 0-6.288 1.386-8.25 3.627ZM12 7.25a.75.75 0 0 1 .75.75v3.599l2.666 1.777a.75.75 0 1 1-.832 1.248l-3-2A.75.75 0 0 1 11.25 12V8a.75.75 0 0 1 .75-.75Z" fill="#151E28"/></svg>