<svg viewBox="0 0 24 24" fill="none" xmlns="http://www.w3.org/2000/svg"><path d="M3 10.467A3 3 0 0 1 4.158 8.1l6-4.666a3 3 0 0 1 3.684 0l6 4.666A3 3 0 0 1 21 10.467V18a3 3 0 0 1-3 3h-2a1 1 0 0 1-1-1v-3a3 3 0 1 0-6 0v3a1 1 0 0 1-1 1H6a3 3 0 0 1-3-3v-7.533Z" fill="#636F7E" fill-opacity=".16"/><path fill-rule="evenodd" clip-rule="evenodd" d="M13.381 4.025a2.25 2.25 0 0 0-2.762 0l-6 4.666a2.25 2.25 0 0 0-.869 1.776V18A2.25 2.25 0 0 0 6 20.25h2a.25.25 0 0 0 .25-.25v-3a3.75 3.75 0 1 1 7.5 0v3c0 .138.112.25.25.25h2A2.25 2.25 0 0 0 20.25 18v-7.533c0-.694-.32-1.35-.869-1.776l-6-4.666ZM9.698 2.84a3.75 3.75 0 0 1 4.604 0l6 4.666a3.75 3.75 0 0 1 1.448 2.96V18A3.75 3.75 0 0 1 18 21.75h-2A1.75 1.75 0 0 1 14.25 20v-3a2.25 2.25 0 0 0-4.5 0v3A1.75 1.75 0 0 1 8 21.75H6A3.75 3.75 0 0 1 2.25 18v-7.533a3.75 3.75 0 0 1 1.448-2.96l6-4.666Z" fill="#151E28"/></svg>