<svg viewBox="0 0 24 24" fill="none" xmlns="http://www.w3.org/2000/svg"><path fill-rule="evenodd" clip-rule="evenodd" d="M21 10.467V18a3 3 0 0 1-3 3H6a3 3 0 0 1-3-3v-7.533A3 3 0 0 1 4.158 8.1l6-4.666a3 3 0 0 1 3.684 0l6 4.666A3 3 0 0 1 21 10.467ZM11.8 9A2.8 2.8 0 0 0 9 11.8v.4a2.8 2.8 0 0 0 2.8 2.8h.4a2.8 2.8 0 0 0 2.8-2.8v-.4A2.8 2.8 0 0 0 12.2 9h-.4Z" fill="#636F7E" fill-opacity=".16"/><path fill-rule="evenodd" clip-rule="evenodd" d="M10.619 4.025a2.25 2.25 0 0 1 2.762 0l6 4.666a2.25 2.25 0 0 1 .869 1.776V18A2.25 2.25 0 0 1 18 20.25H6A2.25 2.25 0 0 1 3.75 18v-7.533c0-.694.32-1.35.869-1.776l6-4.666Zm3.683-1.184a3.75 3.75 0 0 0-4.604 0l-6 4.666a3.75 3.75 0 0 0-1.448 2.96V18A3.75 3.75 0 0 0 6 21.75h12A3.75 3.75 0 0 0 21.75 18v-7.533a3.75 3.75 0 0 0-1.448-2.96l-6-4.666ZM11.8 8.25a3.55 3.55 0 0 0-3.55 3.55v.4a3.55 3.55 0 0 0 3.55 3.55h.4a3.55 3.55 0 0 0 3.55-3.55v-.4a3.55 3.55 0 0 0-3.55-3.55h-.4ZM9.75 11.8a2.05 2.05 0 0 1 2.05-2.05h.4a2.05 2.05 0 0 1 2.05 2.05v.4a2.05 2.05 0 0 1-2.05 2.05h-.4a2.05 2.05 0 0 1-2.05-2.05v-.4Z" fill="#151E28"/></svg>