<svg viewBox="0 0 24 24" fill="none" xmlns="http://www.w3.org/2000/svg"><path fill-rule="evenodd" clip-rule="evenodd" d="M9.4 21h5.2c2.24 0 3.36 0 4.216-.436.3-.154.58-.343.83-.564l-9.334-9.334c-.283.21-.633.334-1.012.334h-.6A1.7 1.7 0 0 1 7 9.3v-.6c0-.38.124-.73.334-1.012L4 4.354a4 4 0 0 0-.564.83C3 6.039 3 7.16 3 9.4v5.2c0 2.24 0 3.36.436 4.216a4 4 0 0 0 1.748 1.748C6.04 21 7.16 21 9.4 21Z" fill="#636F7E" fill-opacity=".16"/><path fill-rule="evenodd" clip-rule="evenodd" d="M2.53 1.47a.75.75 0 0 0-1.06 1.06l1.683 1.684a4.75 4.75 0 0 0-.385.63c-.281.55-.403 1.154-.461 1.868-.057.697-.057 1.563-.057 2.655v5.266c0 1.092 0 1.958.057 2.655.058.714.18 1.317.46 1.869a4.75 4.75 0 0 0 2.077 2.075c.55.281 1.154.403 1.868.461.697.057 1.563.057 2.655.057h5.266c1.092 0 1.958 0 2.655-.057.714-.058 1.317-.18 1.869-.46.22-.113.43-.242.63-.386l1.683 1.683a.75.75 0 1 0 1.06-1.06l-20-20Zm16.176 18.296-4.422-4.42-.305.38v.001a2.75 2.75 0 0 1-4.086.226l-.01-.01a1.25 1.25 0 0 0-1.765 0L6.53 17.53a.75.75 0 0 1-1.06-1.06l1.588-1.588v-.001a2.75 2.75 0 0 1 3.884 0l.01.01a1.25 1.25 0 0 0 1.857-.102l.404-.506.002-.002.002-.003-2.798-2.798a2.44 2.44 0 0 1-1.119.27h-.6A2.45 2.45 0 0 1 6.25 9.3v-.6c0-.403.098-.784.27-1.12L4.234 5.295c-.046.075-.09.152-.13.23-.155.305-.251.69-.302 1.31-.051.63-.052 1.434-.052 2.566v5.2c0 1.133 0 1.937.052 2.566.05.62.147 1.005.302 1.31a3.25 3.25 0 0 0 1.42 1.42c.305.155.69.251 1.31.302.63.051 1.434.052 2.566.052h5.2c1.133 0 1.937 0 2.566-.052.62-.05 1.005-.147 1.31-.302.078-.04.155-.084.23-.13ZM7.75 8.811V9.3c0 .525.425.95.95.95h.49L7.75 8.81ZM14.6 3.75c1.133 0 1.937 0 2.566.052.62.05 1.005.147 1.31.302a3.25 3.25 0 0 1 1.42 1.42c.155.305.251.69.302 1.31.051.63.052 1.434.052 2.566V16a.75.75 0 0 0 1.5 0V9.367c0-1.092 0-1.958-.057-2.655-.058-.714-.18-1.317-.46-1.868a4.75 4.75 0 0 0-2.076-2.076c-.552-.281-1.155-.403-1.869-.461-.697-.057-1.563-.057-2.655-.057H8a.75.75 0 0 0 0 1.5h6.6Zm3.05 9.553a.75.75 0 1 0-.98 1.136c.108.093.237.274.66.91l.046.067a.75.75 0 1 0 1.248-.832l-.045-.068-.064-.096c-.33-.495-.58-.87-.866-1.117Z" fill="#151E28"/></svg>