<svg viewBox="0 0 24 24" fill="none" xmlns="http://www.w3.org/2000/svg"><path fill-rule="evenodd" clip-rule="evenodd" d="M12 13a5 5 0 1 0 0-10 5 5 0 0 0 0 10Zm.57-.032a5.001 5.001 0 0 1-5.14-2.936A5 5 0 1 0 12 18.001a5 5 0 1 0 4.57-7.968 5.004 5.004 0 0 1-4 2.935Z" fill="#636F7E" fill-opacity=".16"/><path fill-rule="evenodd" clip-rule="evenodd" d="M7.75 8a4.25 4.25 0 1 1 8.5 0 4.25 4.25 0 0 1-8.5 0ZM12 2.25a5.75 5.75 0 1 0 0 11.5 5.75 5.75 0 0 0 0-11.5Zm-5.85 8.043a.75.75 0 0 1-.274 1.025A4.262 4.262 0 0 0 3.75 15a4.25 4.25 0 0 0 8.5 0 .75.75 0 0 1 1.5 0c0 1.294-.428 2.49-1.15 3.451a5.75 5.75 0 1 1-7.475-8.431.75.75 0 0 1 1.024.273Zm11.7 0a.75.75 0 0 1 1.025-.273A5.757 5.757 0 0 1 21.75 15a5.75 5.75 0 0 1-8.626 4.98.75.75 0 1 1 .752-1.298 4.25 4.25 0 0 0 4.249-7.364.75.75 0 0 1-.274-1.025Z" fill="#151E28"/></svg>