<svg viewBox="0 0 24 24" fill="none" xmlns="http://www.w3.org/2000/svg"><path d="M20.785 15.505 21 14h-3.287c-.627 0-.94 0-1.224.086a2.001 2.001 0 0 0-.689.369c-.229.188-.403.449-.75.97l-.1.15c-.347.521-.521.782-.75.97a2.001 2.001 0 0 1-.69.369c-.283.086-.596.086-1.223.086h-.574c-.627 0-.94 0-1.224-.086a2 2 0 0 1-.689-.369c-.229-.189-.403-.449-.75-.97l-.1-.15c-.347-.521-.521-.782-.75-.97a2 2 0 0 0-.69-.369C7.228 14 6.915 14 6.288 14H3l.215 1.505c.278 1.948.418 2.923.888 3.655a4 4 0 0 0 1.704 1.478C6.598 21 7.583 21 9.55 21h4.898c1.969 0 2.952 0 3.745-.362a4 4 0 0 0 1.703-1.478c.47-.732.61-1.707.888-3.655Z" fill="#636F7E" fill-opacity=".16"/><path fill-rule="evenodd" clip-rule="evenodd" d="M12.53 1.47a.75.75 0 0 0-1.06 0l-3 3a.75.75 0 0 0 1.06 1.06l1.72-1.72V12a.75.75 0 0 0 1.5 0V3.81l1.72 1.72a.75.75 0 0 0 1.06-1.06l-3-3ZM7.516 7.25H8.75a.75.75 0 1 1 0 1.5H7.633c-.83 0-1.053.011-1.232.077a1.25 1.25 0 0 0-.485.323c-.13.14-.225.342-.544 1.108l-.625 1.498c-.21.507-.303.73-.379.952-.061.179-.115.36-.161.542H6.38c.535 0 .955 0 1.348.119.346.105.668.277.947.507.317.26.55.61.846 1.055l.052.078.1.15c.373.56.48.705.603.807.127.104.273.182.43.23.153.046.333.054 1.006.054h.575c.672 0 .852-.008 1.005-.054a1.26 1.26 0 0 0 .43-.23c.123-.101.23-.247.603-.807l.1-.15.052-.078c.296-.445.529-.795.846-1.055.28-.23.601-.402.947-.507.393-.12.814-.12 1.348-.119h2.174a7.244 7.244 0 0 0-.161-.542 16.187 16.187 0 0 0-.38-.952l-.624-1.498c-.32-.766-.415-.968-.545-1.108a1.25 1.25 0 0 0-.485-.323c-.179-.066-.402-.077-1.232-.077H15.25a.75.75 0 0 1 0-1.5h1.233c.656 0 1.17-.001 1.634.17.406.15.772.393 1.066.71.335.362.533.837.785 1.443l.045.108.624 1.498.011.027c.197.473.31.743.403 1.018a8.75 8.75 0 0 1 .443 3.483 16.8 16.8 0 0 1-.136 1.086l-.004.03-.011.08c-.104.723-.17 1.184-.302 1.585a4.75 4.75 0 0 1-3.675 3.188c-.416.074-.882.074-1.612.074H8.245c-.73 0-1.196 0-1.611-.074a4.75 4.75 0 0 1-3.676-3.188c-.132-.4-.198-.862-.301-1.585l-.012-.08-.004-.03c-.072-.507-.114-.797-.136-1.086a8.75 8.75 0 0 1 .443-3.483c.094-.275.207-.546.403-1.018l.012-.027.624-1.498.045-.108c.252-.606.449-1.08.784-1.443a2.75 2.75 0 0 1 1.067-.71c.463-.171.977-.17 1.633-.17Zm-3.515 8.343a7.25 7.25 0 0 1-.014-.843h2.3c.673 0 .853.008 1.006.054.157.048.303.126.43.23.123.101.23.247.603.807l.1.15.052.078c.296.445.529.795.846 1.056.28.23.601.401.947.506.393.12.814.12 1.348.119h.761c.535 0 .955 0 1.348-.119.346-.105.668-.277.947-.506.317-.261.55-.611.846-1.056l.052-.078.1-.15c.373-.56.48-.705.603-.807a1.26 1.26 0 0 1 .43-.23c.153-.046.333-.054 1.006-.054h2.3c.011.28.007.562-.015.843a16.15 16.15 0 0 1-.129 1.017c-.118.83-.167 1.15-.252 1.408a3.25 3.25 0 0 1-2.515 2.181c-.267.048-.59.051-1.43.051H8.328c-.84 0-1.162-.003-1.43-.05a3.25 3.25 0 0 1-2.514-2.182c-.086-.258-.134-.577-.253-1.408a16.192 16.192 0 0 1-.129-1.017Z" fill="#151E28"/></svg>