<svg viewBox="0 0 24 24" fill="none" xmlns="http://www.w3.org/2000/svg"><path d="M20.785 15.505 21 14h-3.287c-.627 0-.94 0-1.224.086a2.001 2.001 0 0 0-.689.369c-.229.188-.403.449-.75.97l-.1.15c-.347.521-.521.782-.75.97a2.001 2.001 0 0 1-.69.369c-.283.086-.596.086-1.223.086h-.574c-.627 0-.94 0-1.224-.086a2 2 0 0 1-.689-.369c-.229-.189-.403-.449-.75-.97l-.1-.15c-.347-.521-.521-.782-.75-.97a2 2 0 0 0-.69-.369C7.228 14 6.915 14 6.288 14H3l.215 1.505c.278 1.948.418 2.923.888 3.655a4 4 0 0 0 1.704 1.478C6.598 21 7.583 21 9.55 21h4.898c1.969 0 2.952 0 3.745-.362a4 4 0 0 0 1.703-1.478c.47-.732.61-1.707.888-3.655Z" fill="#636F7E" fill-opacity=".16"/><path fill-rule="evenodd" clip-rule="evenodd" d="M7.998 3.25h-.137c-.757 0-1.35-.001-1.865.215a2.75 2.75 0 0 0-1.136.887c-.334.446-.478 1.022-.66 1.757l-.034.133-1.36 5.442-.008.033c-.145.58-.229.912-.285 1.25a8.75 8.75 0 0 0-.104 2.01c.022.342.07.681.155 1.273l.005.034.018.132c.169 1.182.277 1.938.566 2.567a4.75 4.75 0 0 0 2.964 2.57c.663.197 1.427.197 2.62.197h6.525c1.194 0 1.958 0 2.62-.197a4.75 4.75 0 0 0 2.965-2.57c.289-.63.397-1.385.565-2.567l.02-.132.004-.034c.085-.592.133-.931.155-1.273a8.748 8.748 0 0 0-.104-2.01c-.057-.338-.14-.67-.285-1.25l-.008-.034-1.36-5.441-.034-.133c-.183-.735-.326-1.31-.66-1.757a2.75 2.75 0 0 0-1.137-.887c-.514-.216-1.107-.216-1.864-.215H7.998Zm-1.42 1.598c.197-.084.457-.098 1.42-.098h8.003c.963 0 1.223.014 1.421.098.205.086.384.225.517.403.129.172.206.42.44 1.355l1.36 5.441c.155.623.223.896.269 1.169l.006.034h-2.395c-.534 0-.954 0-1.348.119a2.75 2.75 0 0 0-.947.506c-.317.261-.55.611-.846 1.056l-.052.078-.1.15c-.373.56-.48.705-.603.807a1.25 1.25 0 0 1-.43.23c-.152.046-.333.054-1.005.054h-.575c-.673 0-.853-.008-1.006-.054a1.25 1.25 0 0 1-.43-.23c-.123-.102-.23-.247-.603-.807l-.1-.15-.052-.078c-.296-.445-.529-.795-.846-1.056a2.75 2.75 0 0 0-.947-.506c-.393-.12-.813-.12-1.348-.12H3.986a7.98 7.98 0 0 1 .006-.033c.046-.273.113-.546.27-1.169l1.36-5.441c.233-.935.31-1.183.439-1.355a1.25 1.25 0 0 1 .516-.403Zm-2.68 9.902.008.132c.017.276.057.555.148 1.19.194 1.36.276 1.88.462 2.284a3.25 3.25 0 0 0 2.028 1.76c.427.126.954.134 2.327.134h6.258c1.373 0 1.9-.008 2.327-.134a3.25 3.25 0 0 0 2.028-1.76c.186-.404.268-.925.462-2.284.091-.635.13-.914.148-1.19l.007-.132h-2.388c-.673 0-.853.008-1.006.054a1.248 1.248 0 0 0-.43.23c-.123.101-.23.247-.603.807l-.1.15-.052.078c-.296.445-.529.794-.846 1.055a2.75 2.75 0 0 1-.947.507c-.393.12-.813.12-1.348.119h-.761c-.534 0-.954 0-1.348-.119a2.75 2.75 0 0 1-.947-.507c-.317-.26-.55-.61-.846-1.055l-.052-.078-.1-.15c-.373-.56-.48-.706-.602-.807a1.248 1.248 0 0 0-.43-.23c-.153-.046-.334-.054-1.006-.054h-2.39Z" fill="#151E28"/></svg>