<svg viewBox="0 0 24 24" fill="none" xmlns="http://www.w3.org/2000/svg"><circle cx="12" cy="12" r="9" fill="#636F7E" fill-opacity=".16"/><path fill-rule="evenodd" clip-rule="evenodd" d="M12 3.75a8.25 8.25 0 1 0 0 16.5 8.25 8.25 0 0 0 0-16.5ZM2.25 12c0-5.385 4.365-9.75 9.75-9.75s9.75 4.365 9.75 9.75-4.365 9.75-9.75 9.75S2.25 17.385 2.25 12Zm7.25-1.75a1.75 1.75 0 1 0 .874 3.266.75.75 0 0 1 .752 1.299A3.25 3.25 0 1 1 12.75 12a1.75 1.75 0 1 0 .876-1.516.75.75 0 0 1-.752-1.299A3.25 3.25 0 1 1 11.25 12a1.75 1.75 0 0 0-1.75-1.75Z" fill="#151E28"/></svg>