<svg viewBox="0 0 24 24" fill="none" xmlns="http://www.w3.org/2000/svg"><path fill-rule="evenodd" clip-rule="evenodd" d="M4 18v3h4v-2h2v-2h2l1.257-1.257A6 6 0 1 0 9.53 12.47L4 18Zm12-8a1.5 1.5 0 1 0 0-3 1.5 1.5 0 0 0 0 3Z" fill="#636F7E" fill-opacity=".16"/><path fill-rule="evenodd" clip-rule="evenodd" d="M9.75 10a5.25 5.25 0 1 1 3.725 5.025.75.75 0 0 0-.748.188l-1.038 1.037H10a.75.75 0 0 0-.75.75v1.25H8a.75.75 0 0 0-.75.75v1.25h-2.5v-1.94L10.06 13a.75.75 0 0 0 .154-.84A5.229 5.229 0 0 1 9.75 10ZM15 3.25a6.75 6.75 0 0 0-6.351 9.04l-5.18 5.18a.75.75 0 0 0-.219.53v3c0 .414.336.75.75.75h4a.75.75 0 0 0 .75-.75v-1.25H10a.75.75 0 0 0 .75-.75v-1.25H12a.75.75 0 0 0 .53-.22l.952-.952A6.75 6.75 0 1 0 15 3.25Zm.25 5.25a.75.75 0 1 1 1.5 0 .75.75 0 0 1-1.5 0ZM16 6.25a2.25 2.25 0 1 0 0 4.5 2.25 2.25 0 0 0 0-4.5Z" fill="#151E28"/></svg>