<svg viewBox="0 0 24 24" fill="none" xmlns="http://www.w3.org/2000/svg"><path d="M2 6.2c0-1.12 0-1.68.218-2.108a2 2 0 0 1 .874-.874C3.52 3 4.08 3 5.2 3h13.6c1.12 0 1.68 0 2.108.218a2 2 0 0 1 .874.874C22 4.52 22 5.08 22 6.2v5.6c0 1.12 0 1.68-.218 2.108a2 2 0 0 1-.874.874C20.48 15 19.92 15 18.8 15H5.2c-1.12 0-1.68 0-2.108-.218a2 2 0 0 1-.874-.874C2 13.48 2 12.92 2 11.8V6.2Z" fill="#636F7E" fill-opacity=".16"/><path fill-rule="evenodd" clip-rule="evenodd" d="M5.17 2.25h13.66c.535 0 .98 0 1.345.03.38.03.736.098 1.073.27a2.75 2.75 0 0 1 1.202 1.202c.172.337.24.693.27 1.073.03.365.03.81.03 1.345v5.66c0 .535 0 .98-.03 1.345-.03.38-.098.736-.27 1.073a2.751 2.751 0 0 1-1.201 1.202c-.338.172-.694.24-1.074.27-.364.03-.81.03-1.345.03H5.17c-.535 0-.98 0-1.345-.03-.38-.03-.736-.098-1.073-.27a2.75 2.75 0 0 1-1.202-1.2c-.172-.338-.24-.694-.27-1.074-.03-.365-.03-.81-.03-1.345V6.17c0-.535 0-.98.03-1.345.03-.38.098-.736.27-1.073A2.75 2.75 0 0 1 2.752 2.55c.337-.172.693-.24 1.073-.27.365-.03.81-.03 1.345-.03ZM3.947 3.775c-.287.023-.424.065-.514.111a1.25 1.25 0 0 0-.547.547c-.046.09-.088.227-.111.514-.024.296-.025.68-.025 1.253v5.6c0 .572 0 .957.025 1.252.023.288.065.425.111.516.12.235.311.426.547.546.09.046.227.088.514.111.296.024.68.025 1.253.025h13.6c.572 0 .957 0 1.252-.025.288-.023.425-.065.515-.111a1.25 1.25 0 0 0 .547-.546c.046-.091.088-.228.111-.515.024-.296.025-.68.025-1.253V6.2c0-.572 0-.957-.025-1.253-.023-.287-.065-.424-.111-.514a1.25 1.25 0 0 0-.547-.547c-.09-.046-.227-.088-.515-.111-.295-.024-.68-.025-1.252-.025H5.2c-.572 0-.957 0-1.253.025ZM7 7a1 1 0 1 1-2 0 1 1 0 0 1 2 0Zm4 0a1 1 0 1 1-2 0 1 1 0 0 1 2 0Zm3 1a1 1 0 1 0 0-2 1 1 0 0 0 0 2Zm5-1a1 1 0 1 1-2 0 1 1 0 0 1 2 0Zm-1 5a1 1 0 1 0 0-2 1 1 0 0 0 0 2ZM7 11a1 1 0 1 1-2 0 1 1 0 0 1 2 0Zm3-.75a.75.75 0 0 0 0 1.5h4a.75.75 0 0 0 0-1.5h-4Zm2.53 7.22a.75.75 0 0 0-1.06 0l-3 3a.75.75 0 1 0 1.06 1.06L12 19.06l2.47 2.47a.75.75 0 1 0 1.06-1.06l-3-3Z" fill="#151E28"/></svg>