<svg viewBox="0 0 24 24" fill="none" xmlns="http://www.w3.org/2000/svg"><ellipse cx="9.879" cy="9.879" rx="8" ry="6" transform="rotate(-45 9.879 9.879)" fill="#636F7E" fill-opacity=".16"/><path fill-rule="evenodd" clip-rule="evenodd" d="M4.752 15.005c-.967-.967-1.362-2.405-1.13-4.02.23-1.616 1.086-3.36 2.545-4.819 1.458-1.458 3.202-2.314 4.818-2.545 1.616-.23 3.053.164 4.02 1.131.968.967 1.362 2.405 1.131 4.02-.23 1.617-1.086 3.36-2.545 4.819-1.458 1.458-3.202 2.314-4.818 2.545-1.615.23-3.052-.163-4.02-1.13Zm-1.058 1.063-.002-.002c-1.376-1.376-1.837-3.326-1.556-5.293.281-1.967 1.304-4.002 2.97-5.667 1.666-1.666 3.7-2.689 5.667-2.97 1.967-.28 3.917.18 5.293 1.555l2.828 2.829A8.75 8.75 0 1 1 6.52 18.894l-2.826-2.826Zm3.738 1.617.149.149A7.25 7.25 0 0 0 17.834 7.58l-.149-.148c.033.51.01 1.03-.064 1.553-.28 1.967-1.303 4-2.97 5.667-1.665 1.665-3.7 2.688-5.666 2.969a7.524 7.524 0 0 1-1.553.064ZM6.874 6.873a.75.75 0 0 1 1.06 0l.707.707a.75.75 0 0 1-1.06 1.061l-.707-.707a.75.75 0 0 1 0-1.06Zm4.242 4.243a.75.75 0 0 1 1.06 0l.708.707a.75.75 0 0 1-1.06 1.06l-.708-.706a.75.75 0 0 1 0-1.061Zm2.475-3.89a.75.75 0 0 0-1.06-1.06l-.708.707a.75.75 0 0 0 1.061 1.061l.707-.707Zm-5.657 5.658a.75.75 0 0 0-1.06-1.06l-.707.706a.75.75 0 0 0 1.06 1.06l.707-.706Z" fill="#151E28"/></svg>