<svg viewBox="0 0 24 24" fill="none" xmlns="http://www.w3.org/2000/svg"><path fill-rule="evenodd" clip-rule="evenodd" d="m20 3-7 7 3 3s4-3 4-10ZM4.5 9.5 3 8a2.828 2.828 0 1 1 4-4l1.5 1.5a2.828 2.828 0 0 1-4 4Z" fill="#636F7E" fill-opacity=".16"/><path fill-rule="evenodd" clip-rule="evenodd" d="M20.287 2.307A.75.75 0 0 1 20.75 3c0 3.651-1.046 6.286-2.111 8.018-.532.864-1.066 1.5-1.473 1.923a8.022 8.022 0 0 1-.65.607 3.54 3.54 0 0 1-.044.035l-.014.01-.005.005h-.002v.002L16 13l.45.6a.75.75 0 0 1-.902-1.198V12.4l.003-.002.022-.018a6.547 6.547 0 0 0 .51-.479c.344-.357.81-.909 1.278-1.67.744-1.21 1.502-2.957 1.779-5.311l-2.485 2.484-2.172 2.172-.693.694-.192.192-.05.05-.014.013-.003.003v.001L13 10l-.53-.53v-.001l.004-.004.013-.013.05-.05.192-.192.694-.693 2.171-2.172L19.47 2.47a.75.75 0 0 1 .817-.163ZM13 10l.53.53a.75.75 0 0 1-1.06-1.06L13 10Zm-3.47 3.47a.75.75 0 0 1 0 1.06l-6 6a.75.75 0 0 1-1.06-1.06l6-6a.75.75 0 0 1 1.06 0Zm-.025-4.026A3.58 3.58 0 0 0 9.03 4.97l-1.5-1.5a3.578 3.578 0 0 0-5.06 5.06l1.5 1.5a3.58 3.58 0 0 0 4.474.475L18.47 20.53a.75.75 0 0 0 1.06-1.06L9.505 9.444ZM7.97 8.971a2.08 2.08 0 0 1-2.939-.001l-1.5-1.5a2.078 2.078 0 1 1 2.94-2.94l1.5 1.5a2.078 2.078 0 0 1-.001 2.94Z" fill="#151E28"/></svg>