<svg viewBox="0 0 24 24" fill="none" xmlns="http://www.w3.org/2000/svg"><path fill-rule="evenodd" clip-rule="evenodd" d="M9 10c-3.5 2.625-7-3-7-3l4-4s6.5 4.375 3 7Zm11-7-7 7 3 3s4-3 4-10Z" fill="#636F7E" fill-opacity=".16"/><path fill-rule="evenodd" clip-rule="evenodd" d="M6.419 2.378a.75.75 0 0 0-.838 1.244l.002.002.012.007a6.448 6.448 0 0 1 .235.168c.163.118.392.292.658.508.535.435 1.198 1.03 1.749 1.69.564.675.943 1.338 1.03 1.913.04.273.014.517-.081.743-.097.228-.284.483-.636.747-.702.527-1.361.621-1.978.502-.65-.125-1.302-.5-1.908-.997-.6-.493-1.11-1.07-1.473-1.53a11.213 11.213 0 0 1-.548-.762l-.006-.008v-.001a.75.75 0 0 0-1.274.792L2 7c-.637.396-.637.397-.636.397l.001.002.003.005.01.015a5.73 5.73 0 0 0 .162.243c.11.16.27.382.472.64a11.58 11.58 0 0 0 1.7 1.762c.706.58 1.585 1.12 2.576 1.311a3.801 3.801 0 0 0 2.61-.417l9.572 9.572a.75.75 0 1 0 1.06-1.06l-9.452-9.452c.208-.243.371-.503.489-.78a2.845 2.845 0 0 0 .183-1.55c-.148-.984-.738-1.907-1.362-2.653-.636-.762-1.38-1.425-1.954-1.892a17.563 17.563 0 0 0-.991-.749l-.017-.011-.005-.003-.001-.001c0-.001-.001-.001-.42.621l.419-.622ZM4.53 4.47a.75.75 0 1 0-1.06 1.06l3 3a.75.75 0 0 0 1.06-1.06l-3-3ZM20.75 3a.75.75 0 0 0-1.28-.53l-3.875 3.875-2.172 2.172-.694.693-.192.192-.05.05-.013.013-.003.004h-.001L13 10l-.53-.53a.75.75 0 0 0 1.06 1.06L13 10l.53.53h.001l.004-.004.012-.013.05-.05.193-.192.693-.694 2.172-2.172 2.485-2.484c-.277 2.354-1.035 4.102-1.779 5.311a9.945 9.945 0 0 1-1.277 1.67 6.543 6.543 0 0 1-.533.497l-.002.002h-.001a.75.75 0 0 0 .902 1.2L16 13l.45.599.001-.001.002-.001.005-.004.014-.01.044-.036.15-.126c.124-.109.296-.269.5-.48.407-.425.941-1.06 1.473-1.924 1.066-1.732 2.11-4.367 2.11-8.018ZM9.53 14.53a.75.75 0 0 0-1.06-1.06l-6 6a.75.75 0 0 0 1.06 1.06l6-6Z" fill="#151E28"/></svg>