<svg viewBox="0 0 24 24" fill="none" xmlns="http://www.w3.org/2000/svg"><path fill-rule="evenodd" clip-rule="evenodd" d="M14.8 3A4.8 4.8 0 0 0 10 7.8v.4a4.8 4.8 0 0 0 4.8 4.8h.4A4.8 4.8 0 0 0 20 8.2v-.4A4.8 4.8 0 0 0 15.2 3h-.4Zm-.1 3A1.7 1.7 0 0 0 13 7.7v.6a1.7 1.7 0 0 0 1.7 1.7h.6A1.7 1.7 0 0 0 17 8.3v-.6A1.7 1.7 0 0 0 15.3 6h-.6Z" fill="#636F7E" fill-opacity=".16"/><path fill-rule="evenodd" clip-rule="evenodd" d="M9.25 7.8a5.55 5.55 0 0 1 5.55-5.55h.4a5.55 5.55 0 0 1 5.55 5.55v.4a5.55 5.55 0 0 1-5.55 5.55h-.4a5.551 5.551 0 0 1-5.065-3.279l-1.985.992v3.03l4.528 1.81a.75.75 0 0 1 .472.697v3.25H16a.75.75 0 0 1 0 1.5H8a.75.75 0 0 1 0-1.5h3.25v-2.742l-4.529-1.812A.75.75 0 0 1 6.25 15v-4a.75.75 0 0 1 .415-.67l2.643-1.323A5.597 5.597 0 0 1 9.25 8.2v-.4Zm5.55-4.05a4.05 4.05 0 0 0-4.05 4.05v.4a4.05 4.05 0 0 0 4.05 4.05h.4a4.05 4.05 0 0 0 4.05-4.05v-.4a4.05 4.05 0 0 0-4.05-4.05h-.4Zm-.1 1.5a2.45 2.45 0 0 0-2.45 2.45v.6a2.45 2.45 0 0 0 2.45 2.45h.6a2.45 2.45 0 0 0 2.45-2.45v-.6a2.45 2.45 0 0 0-2.45-2.45h-.6Zm-.95 2.45a.95.95 0 0 1 .95-.95h.6a.95.95 0 0 1 .95.95v.6a.95.95 0 0 1-.95.95h-.6a.95.95 0 0 1-.95-.95v-.6Z" fill="#151E28"/></svg>