<svg viewBox="0 0 24 24" fill="none" xmlns="http://www.w3.org/2000/svg"><path d="M9.4 5h5.2c2.24 0 3.36 0 4.216.436a4 4 0 0 1 1.748 1.748C21 8.04 21 9.16 21 11.4V15H3v-3.6c0-2.24 0-3.36.436-4.216a4 4 0 0 1 1.748-1.748C6.04 5 7.16 5 9.4 5Z" fill="#636F7E" fill-opacity=".16"/><path fill-rule="evenodd" clip-rule="evenodd" d="M3 15.75a.75.75 0 0 0 .75-.75v-3.6c0-1.133 0-1.937.052-2.566.05-.62.147-1.005.302-1.31a3.25 3.25 0 0 1 1.42-1.42c.305-.155.69-.251 1.31-.302.63-.051 1.433-.052 2.566-.052h5.2c1.132 0 1.937 0 2.566.052.62.05 1.005.147 1.31.302a3.25 3.25 0 0 1 1.42 1.42c.155.305.251.69.302 1.31.051.63.052 1.434.052 2.566V15a.75.75 0 0 0 1.5 0v-3.633c0-1.092 0-1.958-.057-2.655-.058-.714-.18-1.317-.46-1.868a4.75 4.75 0 0 0-2.077-2.076c-.55-.281-1.154-.403-1.868-.461-.697-.057-1.563-.057-2.655-.057H9.367c-1.092 0-1.958 0-2.655.057-.714.058-1.317.18-1.869.46a4.75 4.75 0 0 0-2.075 2.077c-.281.55-.403 1.154-.461 1.868-.057.697-.057 1.563-.057 2.655V15c0 .414.336.75.75.75Zm2.221 5H18.78c.22 0 .371 0 .522-.012a3.75 3.75 0 0 0 1.7-.567c.129-.08.25-.172.426-.304l.023-.017.012-.009c.232-.174.422-.317.565-.432.13-.105.29-.24.402-.4a1.75 1.75 0 0 0-.891-2.674 2.118 2.118 0 0 0-.562-.079c-.183-.006-.421-.006-.711-.006H3.735c-.29 0-.528 0-.711.006a2.118 2.118 0 0 0-.562.079 1.75 1.75 0 0 0-.891 2.675c.112.159.272.294.402.4.143.114.333.257.565.43v.001l.012.009.023.017c.176.132.297.223.425.304a3.75 3.75 0 0 0 1.7.567c.151.012.303.012.523.012Zm.029-1.5c-.259 0-.348 0-.43-.007a2.25 2.25 0 0 1-1.021-.34 5.828 5.828 0 0 1-.35-.253 21.628 21.628 0 0 1-.534-.408 2.04 2.04 0 0 1-.124-.106l-.003-.003a.25.25 0 0 1 .122-.366h.005c.016-.003.064-.008.162-.011.154-.006.365-.006.673-.006h16.5c.308 0 .52 0 .672.006.099.003.147.008.163.01h.005a.25.25 0 0 1 .122.367l-.004.003a1.978 1.978 0 0 1-.123.106c-.12.096-.288.223-.535.408a5.806 5.806 0 0 1-.35.253 2.25 2.25 0 0 1-1.02.34 5.802 5.802 0 0 1-.43.007H5.25Zm5.75-13a.75.75 0 0 0 0 1.5h2a.75.75 0 0 0 0-1.5h-2Z" fill="#151E28"/></svg>