<svg viewBox="0 0 24 24" fill="none" xmlns="http://www.w3.org/2000/svg"><path d="M21 9.4c0-2.24 0-3.36-.436-4.216a4 4 0 0 0-1.748-1.749C17.96 3 16.84 3 14.6 3H9.4c-2.24 0-3.36 0-4.216.435a4 4 0 0 0-1.748 1.749C3 6.039 3 7.159 3 9.4v5.2c0 2.24 0 3.36.436 4.216a4 4 0 0 0 1.748 1.748C6.04 21 7.16 21 9.4 21h5.2c2.24 0 3.36 0 4.216-.436a4 4 0 0 0 1.748-1.748C21 17.96 21 16.84 21 14.6V9.4Z" fill="#636F7E" fill-opacity=".16"/><path fill-rule="evenodd" clip-rule="evenodd" d="M14.633 2.25H9.367c-1.092 0-1.958 0-2.655.057-.714.058-1.317.18-1.868.46a4.75 4.75 0 0 0-2.076 2.076c-.281.551-.403 1.155-.461 1.868-.05.615-.056 1.36-.057 2.277a.787.787 0 0 0 0 .023v6.001c0 .916.007 1.661.057 2.276.058.713.18 1.317.46 1.868a4.75 4.75 0 0 0 2.077 2.076c.55.28 1.154.402 1.868.46.61.05 1.35.057 2.258.057a.756.756 0 0 0 .06 0h5.94a.706.706 0 0 0 .06 0c.907 0 1.646-.007 2.257-.056.714-.059 1.317-.18 1.869-.461a4.75 4.75 0 0 0 2.075-2.076c.281-.551.403-1.155.461-1.868.05-.615.056-1.36.057-2.276V8.988c0-.916-.007-1.662-.057-2.277-.058-.713-.18-1.317-.46-1.868a4.75 4.75 0 0 0-2.076-2.076c-.552-.28-1.155-.402-1.869-.46-.697-.058-1.563-.057-2.655-.057Zm5.614 6a20.032 20.032 0 0 0-.049-1.417c-.05-.62-.147-1.004-.302-1.309a3.25 3.25 0 0 0-1.42-1.42c-.305-.155-.69-.252-1.31-.302a19.968 19.968 0 0 0-1.416-.05V8.25h4.497Zm-5.997 0v-4.5h-4.5v4.5h4.5Zm-4.5 1.5h4.5v4.5h-4.5v-4.5Zm-1.5-1.5V3.752c-.565.005-1.024.018-1.416.05-.62.05-1.005.147-1.31.302a3.25 3.25 0 0 0-1.42 1.42c-.155.305-.251.689-.302 1.31a19.97 19.97 0 0 0-.05 1.416H8.25Zm-4.5 1.5h4.5v4.5h-4.5v-4.5Zm12 0h4.5v4.5h-4.5v-4.5ZM3.802 17.166a19.967 19.967 0 0 1-.05-1.416H8.25v4.497a20.02 20.02 0 0 1-1.416-.05c-.62-.05-1.005-.147-1.31-.302a3.25 3.25 0 0 1-1.42-1.42c-.155-.305-.251-.689-.302-1.31ZM9.75 20.25v-4.5h4.5v4.5h-4.5Zm6-.003V15.75h4.497a19.953 19.953 0 0 1-.049 1.416c-.05.62-.147 1.005-.302 1.309a3.25 3.25 0 0 1-1.42 1.42c-.305.155-.69.252-1.31.303a20.02 20.02 0 0 1-1.416.049Z" fill="#151E28"/></svg>