<svg viewBox="0 0 24 24" fill="none" xmlns="http://www.w3.org/2000/svg"><path d="M21 9.4c0-2.24 0-3.36-.436-4.216a4 4 0 0 0-1.748-1.749C17.96 3 16.84 3 14.6 3H9.4c-2.24 0-3.36 0-4.216.435a4 4 0 0 0-1.748 1.749C3 6.039 3 7.159 3 9.4v5.2c0 2.24 0 3.36.436 4.216a4 4 0 0 0 1.748 1.748C6.04 21 7.16 21 9.4 21h5.2c2.24 0 3.36 0 4.216-.436a4 4 0 0 0 1.748-1.748C21 17.96 21 16.84 21 14.6V9.4Z" fill="#636F7E" fill-opacity=".16"/><path fill-rule="evenodd" clip-rule="evenodd" d="M9.367 2.25h5.266c1.092 0 1.958 0 2.655.057.714.058 1.317.18 1.869.46a4.75 4.75 0 0 1 2.076 2.076c.28.551.402 1.155.46 1.868.05.615.056 1.36.057 2.277v5.645c0 1.092 0 1.957-.057 2.655-.058.713-.18 1.317-.46 1.868a4.75 4.75 0 0 1-2.076 2.076c-.552.28-1.155.402-1.869.46-.61.05-1.35.057-2.258.057a.753.753 0 0 1-.059 0H9.367c-1.092 0-1.957 0-2.655-.056-.713-.059-1.317-.18-1.868-.461a4.75 4.75 0 0 1-2.076-2.076c-.28-.551-.402-1.155-.46-1.868-.058-.698-.058-1.563-.058-2.655V9.01a.78.78 0 0 1 0-.023c.001-.916.007-1.662.057-2.277.059-.713.18-1.317.461-1.868a4.75 4.75 0 0 1 2.076-2.076c.551-.28 1.155-.402 1.868-.46.698-.058 1.563-.057 2.655-.057ZM3.75 9.75v4.85c0 1.132 0 1.936.052 2.566.051.62.147 1.005.302 1.309a3.25 3.25 0 0 0 1.42 1.42c.305.155.69.252 1.31.303.63.05 1.434.052 2.566.052h4.85V9.75H3.75Zm12 0v10.497a20.02 20.02 0 0 0 1.416-.05c.621-.05 1.005-.147 1.31-.302a3.25 3.25 0 0 0 1.42-1.42c.155-.305.252-.689.302-1.31.052-.629.052-1.433.052-2.565V9.75h-4.5Zm4.497-1.5H3.753c.005-.565.017-1.025.05-1.417.05-.62.146-1.004.301-1.309a3.25 3.25 0 0 1 1.42-1.42c.305-.155.69-.252 1.31-.302.63-.052 1.434-.052 2.566-.052h5.2c1.133 0 1.937 0 2.566.052.621.05 1.005.147 1.31.302a3.25 3.25 0 0 1 1.42 1.42c.155.305.252.689.302 1.31.032.391.045.851.05 1.416Z" fill="#151E28"/></svg>