<svg viewBox="0 0 24 24" fill="none" xmlns="http://www.w3.org/2000/svg"><path d="M21 9.4c0-2.24 0-3.36-.436-4.216a4 4 0 0 0-1.748-1.749C17.96 3 16.84 3 14.6 3H9.4c-2.24 0-3.36 0-4.216.435a4 4 0 0 0-1.748 1.749C3 6.039 3 7.159 3 9.4v5.2c0 2.24 0 3.36.436 4.216a4 4 0 0 0 1.748 1.748C6.04 21 7.16 21 9.4 21h5.2c2.24 0 3.36 0 4.216-.436a4 4 0 0 0 1.748-1.748C21 17.96 21 16.84 21 14.6V9.4Z" fill="#636F7E" fill-opacity=".16"/><path fill-rule="evenodd" clip-rule="evenodd" d="M9.4 2.25h-.033c-1.092 0-1.958 0-2.655.057-.714.058-1.317.18-1.868.46a4.75 4.75 0 0 0-2.076 2.076c-.281.551-.403 1.155-.461 1.868-.05.615-.056 1.36-.057 2.277a.786.786 0 0 0 0 .023v5.622c0 1.092 0 1.957.057 2.655.058.713.18 1.317.46 1.868a4.75 4.75 0 0 0 2.077 2.076c.55.28 1.154.402 1.868.46.61.05 1.35.057 2.258.057a.756.756 0 0 0 .06 0h5.94a.706.706 0 0 0 .06 0c.907 0 1.646-.007 2.257-.056.714-.059 1.317-.18 1.869-.461a4.75 4.75 0 0 0 2.075-2.076c.281-.551.403-1.155.461-1.868.057-.698.057-1.563.057-2.655V8.988c0-.916-.007-1.662-.057-2.277-.058-.713-.18-1.317-.46-1.868a4.75 4.75 0 0 0-2.076-2.076c-.552-.28-1.155-.402-1.869-.46-.697-.058-1.563-.057-2.655-.057H9.4Zm10.847 6a20.033 20.033 0 0 0-.049-1.417c-.05-.62-.147-1.004-.302-1.309a3.25 3.25 0 0 0-1.42-1.42c-.305-.155-.69-.252-1.31-.302-.63-.052-1.434-.052-2.566-.052H9.4c-1.132 0-1.937 0-2.566.052-.62.05-1.005.147-1.31.302a3.25 3.25 0 0 0-1.42 1.42c-.155.305-.251.689-.302 1.31a19.97 19.97 0 0 0-.05 1.416h16.495Zm-5.997 1.5h-4.5v10.5h4.5V9.75Zm-6 0h-4.5v4.85c0 1.132 0 1.936.052 2.566.05.62.147 1.005.302 1.309a3.25 3.25 0 0 0 1.42 1.42c.305.155.69.252 1.31.303.392.032.851.044 1.416.049V9.75Zm7.5 0h4.5v4.85c0 1.132 0 1.936-.052 2.566-.05.62-.147 1.005-.302 1.309a3.25 3.25 0 0 1-1.42 1.42c-.305.155-.69.252-1.31.303a20.02 20.02 0 0 1-1.416.049V9.75Z" fill="#151E28"/></svg>