<svg viewBox="0 0 24 24" fill="none" xmlns="http://www.w3.org/2000/svg"><path d="M20.94 5.652c-2.663-.765-10.031-2.593-13.542-.566-2.58 1.49-3.705 3.368-3.77 5.376-.03.902.34 1.755.79 2.537l1.637 2.835c.452.781 1.006 1.528 1.802 1.953 1.772.948 3.961.913 6.54-.577 3.453-1.993 6.185-7.964 7.152-10.304a.928.928 0 0 0-.61-1.254Z" fill="#636F7E" fill-opacity=".16"/><path fill-rule="evenodd" clip-rule="evenodd" d="M20.732 6.372a.187.187 0 0 1 .122.098c.02.04.025.092.001.15-.475 1.152-1.383 3.19-2.59 5.179-1.223 2.013-2.688 3.864-4.242 4.762-1.483.856-2.77 1.168-3.871 1.109-1.094-.059-2.067-.487-2.926-1.225a.75.75 0 1 0-.978 1.138c1.078.926 2.36 1.506 3.823 1.585 1.457.078 3.032-.344 4.702-1.308 1.898-1.096 3.525-3.227 4.774-5.283 1.263-2.08 2.204-4.197 2.695-5.385a1.678 1.678 0 0 0-1.096-2.261c-1.349-.388-3.901-1.048-6.574-1.354-1.337-.153-2.722-.22-4.014-.113-1.284.107-2.525.389-3.535.972C5.353 5.4 4.2 6.553 3.539 7.854 2.875 9.16 2.737 10.56 3 11.957a.75.75 0 1 0 1.475-.278c-.21-1.112-.094-2.17.403-3.146.499-.982 1.413-1.942 2.896-2.798.745-.43 1.741-.68 2.91-.776 1.16-.096 2.441-.038 3.718.108 2.555.292 5.018.928 6.331 1.305Zm-5.495 2.34a.75.75 0 1 0-.475-1.423l-4.127 1.376a11.813 11.813 0 0 0-3.642 1.982A9.969 9.969 0 0 0 3.25 18.43V21a.75.75 0 1 0 1.5 0v-2.57a8.469 8.469 0 0 1 3.179-6.613c.95-.76 2.026-1.346 3.18-1.73l4.127-1.377Z" fill="#151E28"/></svg>