<svg viewBox="0 0 24 24" fill="none" xmlns="http://www.w3.org/2000/svg"><path d="M6.726 21.246c2.328.968 5.342.315 7.497-1.84 2.155-2.155 2.808-5.17 1.84-7.496-.195-.469.461-1.05.281-1.696-.105-.377-.27-.678-.504-.911-.233-.233-.534-.399-.91-.504-.647-.18-1.227.477-1.696.282-2.327-.968-5.341-.315-7.497 1.84-2.155 2.155-2.808 5.169-1.84 7.496.196.469-.46 1.05-.28 1.696.104.376.27.678.503.91.233.234.534.4.91.504.647.18 1.228-.476 1.696-.281Z" fill="#636F7E" fill-opacity=".16"/><path fill-rule="evenodd" clip-rule="evenodd" d="M14.803 1.724a.75.75 0 0 1 1.03-.396c.69.34 1.183.977 1.489 1.625.308.653.47 1.409.426 2.095a.75.75 0 1 1-1.497-.096c.026-.403-.072-.906-.286-1.359a2.68 2.68 0 0 0-.231-.4c-.06.095-.119.184-.175.268l-.188.27c-.119.17-.204.29-.279.431a1.028 1.028 0 0 0-.135.516c0 .221.054.548.246 1.059a.75.75 0 0 1-1.405.526c-.227-.606-.342-1.122-.34-1.59.001-.487.128-.875.31-1.216.121-.228.285-.46.425-.66l.125-.18a4.45 4.45 0 0 0 .485-.893Zm5.607 3.01a.75.75 0 0 1 0 1.06L17.674 8.53a.75.75 0 0 1-1.06-1.06l2.736-2.736a.75.75 0 0 1 1.06 0Zm-5.1 5.1c-.125-.126-.305-.235-.581-.312-.041-.011-.114-.012-.428.117l-.035.015c-.122.05-.303.126-.485.17a1.333 1.333 0 0 1-.835-.05c-2.007-.835-4.705-.296-6.678 1.677-1.973 1.973-2.513 4.672-1.678 6.678.133.319.102.62.05.835a3.326 3.326 0 0 1-.17.485l-.014.035c-.13.314-.129.387-.117.428.077.277.186.456.31.582.126.125.306.234.582.31.041.012.114.013.428-.116l.035-.015c.122-.05.303-.126.485-.17.215-.051.517-.082.835.05 2.007.835 4.705.296 6.678-1.677 1.973-1.973 2.513-4.672 1.678-6.678a1.333 1.333 0 0 1-.05-.835c.044-.182.12-.364.17-.485l.014-.035c.13-.314.129-.387.117-.428-.077-.277-.186-.456-.31-.582Zm-.179-1.757c.476.132.898.354 1.24.696.341.341.563.764.696 1.24.162.585-.055 1.109-.165 1.374l-.011.027c-.06.147-.09.222-.107.279 1.059 2.636.285 5.927-2.031 8.243-2.316 2.317-5.607 3.09-8.244 2.031a2.996 2.996 0 0 0-.278.108l-.028.01c-.265.11-.789.328-1.374.165-.475-.133-.898-.354-1.24-.696-.341-.341-.563-.764-.695-1.24-.163-.584.054-1.109.164-1.374l.011-.027a3 3 0 0 0 .107-.279c-1.059-2.636-.285-5.927 2.031-8.244 2.316-2.316 5.607-3.09 8.244-2.03a3 3 0 0 0 .278-.107l.028-.012c.265-.11.789-.327 1.374-.164Z" fill="#151E28"/></svg>