<svg viewBox="0 0 24 24" fill="none" xmlns="http://www.w3.org/2000/svg"><path d="m11 14-2 8 6-6.667-6-5.555L7 12l4 2Z" fill="#636F7E" fill-opacity=".16"/><path fill-rule="evenodd" clip-rule="evenodd" d="M16.728 2.182a.75.75 0 0 0-1.286-.684l-4 4.445a.75.75 0 0 0 1.115 1.003l1.984-2.204-1.269 5.076a.75.75 0 0 0 .393.853l4 2a.75.75 0 0 0 .67-1.342L14.873 9.6l1.855-7.417Zm-7.33 8.276L8.215 11.77l3.12 1.56a.75.75 0 0 1 .392.852l-1.27 5.076 3.666-4.073-4.727-4.727Zm5.789 5.79-5.63 6.254a.75.75 0 0 1-1.285-.684l1.854-7.416-3.461-1.731a.75.75 0 0 1-.222-1.173l1.892-2.102L2.47 3.53a.75.75 0 0 1 1.06-1.06l18 18a.75.75 0 0 1-1.06 1.06l-5.283-5.283Z" fill="#151E28"/></svg>