<svg viewBox="0 0 24 24" fill="none" xmlns="http://www.w3.org/2000/svg"><path d="M12 2a7 7 0 0 0-5.08 11.816c.408.43.8.89 1.133 1.385C8.977 16.576 10.343 18 12 18s3.023-1.424 3.947-2.8c.332-.493.725-.954 1.133-1.384A7 7 0 0 0 12 2Z" fill="#636F7E" fill-opacity=".16"/><path fill-rule="evenodd" clip-rule="evenodd" d="M5.75 9a6.25 6.25 0 1 1 10.785 4.3c-.46.485-.933 1.038-1.329 1.655-.412.59-.893 1.152-1.424 1.574-.582.462-1.177.721-1.782.721s-1.2-.259-1.782-.721c-.53-.422-1.012-.984-1.425-1.574-.395-.617-.869-1.17-1.329-1.655A6.226 6.226 0 0 1 5.75 9Zm.626 5.332A7.725 7.725 0 0 1 4.25 9a7.75 7.75 0 1 1 13.374 5.332 10.024 10.024 0 0 0-1.168 1.453c-.435.684-.706 1.39-.706 2.126V19a3.75 3.75 0 1 1-7.5 0v-1.09c0-.734-.27-1.44-.706-2.125a10.023 10.023 0 0 0-1.168-1.453Zm7.874 3.706V19a2.25 2.25 0 0 1-4.5 0v-.962c.651.421 1.407.712 2.25.712s1.599-.29 2.25-.712Z" fill="#151E28"/></svg>