<svg viewBox="0 0 24 24" fill="none" xmlns="http://www.w3.org/2000/svg"><path fill-rule="evenodd" clip-rule="evenodd" d="M6.53 3.47a.75.75 0 0 0-1.06 0l-3 3a.75.75 0 0 0 1.06 1.06l1.72-1.72v12.38l-1.72-1.72a.75.75 0 0 0-1.06 1.06l3 3a.75.75 0 0 0 1.06 0l3-3a.75.75 0 1 0-1.06-1.06l-1.72 1.72V5.81l1.72 1.72a.75.75 0 0 0 1.06-1.06l-3-3Zm5.47.78a.75.75 0 0 0 0 1.5h10a.75.75 0 0 0 0-1.5H12ZM11.25 12a.75.75 0 0 1 .75-.75h10a.75.75 0 0 1 0 1.5H12a.75.75 0 0 1-.75-.75Zm.75 6.25a.75.75 0 0 0 0 1.5h10a.75.75 0 0 0 0-1.5H12Z" fill="#151E28"/></svg>