<svg viewBox="0 0 24 24" fill="none" xmlns="http://www.w3.org/2000/svg"><path d="M18 16a4 4 0 0 0 0-8H6a4 4 0 1 0 0 8h12Z" fill="#636F7E" fill-opacity=".16"/><path fill-rule="evenodd" clip-rule="evenodd" d="m8.53 3.47 1.5 1.5a.75.75 0 0 1-1.06 1.06l-1.5-1.5a.75.75 0 1 1 1.06-1.06Zm5.44 2.56a.75.75 0 0 1 0-1.06l1.5-1.5a.75.75 0 0 1 1.06 1.06l-1.5 1.5a.75.75 0 0 1-1.06 0ZM18 7.25a4.75 4.75 0 1 1 0 9.5h-2a.75.75 0 0 1 0-1.5h2a3.25 3.25 0 0 0 0-6.5h-2a.75.75 0 0 1 0-1.5h2ZM8.75 8a.75.75 0 0 1-.75.75H6a3.25 3.25 0 1 0 0 6.5h2a.75.75 0 0 1 0 1.5H6a4.75 4.75 0 1 1 0-9.5h2a.75.75 0 0 1 .75.75Zm1.28 11.03-1.5 1.5a.75.75 0 0 1-1.06-1.06l1.5-1.5a.75.75 0 0 1 1.06 1.06Zm3.94 0a.75.75 0 0 1 1.06-1.06l1.5 1.5a.75.75 0 0 1-1.06 1.06l-1.5-1.5Z" fill="#151E28"/></svg>