<svg viewBox="0 0 24 24" fill="none" xmlns="http://www.w3.org/2000/svg"><path fill-rule="evenodd" clip-rule="evenodd" d="M19.07 4.929a4 4 0 0 0-5.656 0l-2.828 2.828A3.982 3.982 0 0 0 9.55 9.55a3.982 3.982 0 0 0-1.793 1.036L4.93 13.414a4 4 0 1 0 5.657 5.657l2.828-2.829a3.983 3.983 0 0 0 1.036-1.792 3.983 3.983 0 0 0 1.793-1.036l2.828-2.828a4 4 0 0 0 0-5.657Z" fill="#636F7E" fill-opacity=".16"/><path fill-rule="evenodd" clip-rule="evenodd" d="M12.884 4.399a4.75 4.75 0 1 1 6.717 6.717l-2.828 2.829a4.75 4.75 0 0 1-6.717 0 .75.75 0 1 1 1.06-1.06 3.25 3.25 0 0 0 4.596 0l2.829-2.83a3.25 3.25 0 0 0-4.596-4.596l-2.122 2.122a.75.75 0 0 1-1.06-1.06l2.12-2.122Zm-5.657 5.657a4.75 4.75 0 0 1 6.718 0 .75.75 0 1 1-1.061 1.06 3.25 3.25 0 0 0-4.596 0l-2.829 2.829a3.25 3.25 0 1 0 4.597 4.596l2.12-2.121a.75.75 0 0 1 1.062 1.06l-2.122 2.122A4.75 4.75 0 0 1 4.4 12.884l2.828-2.828Z" fill="#151E28"/></svg>