<svg viewBox="0 0 24 24" fill="none" xmlns="http://www.w3.org/2000/svg"><path fill-rule="evenodd" clip-rule="evenodd" d="M12 2a4 4 0 0 0-4 4v4c0 .729.195 1.412.535 2A3.981 3.981 0 0 0 8 14v4a4 4 0 0 0 8 0v-4c0-.729-.195-1.412-.535-2 .34-.588.535-1.271.535-2V6a4 4 0 0 0-4-4Z" fill="#636F7E" fill-opacity=".16"/><path fill-rule="evenodd" clip-rule="evenodd" d="M7.25 6a4.75 4.75 0 0 1 9.5 0v4A4.75 4.75 0 0 1 12 14.75a.75.75 0 0 1 0-1.5A3.25 3.25 0 0 0 15.25 10V6a3.25 3.25 0 0 0-6.5 0v3a.75.75 0 0 1-1.5 0V6Zm0 8A4.75 4.75 0 0 1 12 9.25a.75.75 0 0 1 0 1.5A3.25 3.25 0 0 0 8.75 14v4a3.25 3.25 0 0 0 6.5 0v-3a.75.75 0 0 1 1.5 0v3a4.75 4.75 0 1 1-9.5 0v-4Z" fill="#151E28"/></svg>