<svg viewBox="0 0 24 24" fill="none" xmlns="http://www.w3.org/2000/svg"><path d="M16 6a4 4 0 0 0-8 0v12a4 4 0 0 0 8 0V6Z" fill="#636F7E" fill-opacity=".16"/><path fill-rule="evenodd" clip-rule="evenodd" d="M7.25 6a4.75 4.75 0 0 1 9.5 0v2a.75.75 0 0 1-1.5 0V6a3.25 3.25 0 0 0-6.5 0v2a.75.75 0 0 1-1.5 0V6ZM8 15.25a.75.75 0 0 1 .75.75v2a3.25 3.25 0 0 0 6.5 0v-2a.75.75 0 0 1 1.5 0v2a4.75 4.75 0 1 1-9.5 0v-2a.75.75 0 0 1 .75-.75Zm12.03-6.22-1.5 1.5a.75.75 0 1 1-1.06-1.06l1.5-1.5a.75.75 0 0 1 1.06 1.06Zm-2.56 4.44a.75.75 0 0 1 1.06 0l1.5 1.5a.75.75 0 0 1-1.06 1.06l-1.5-1.5a.75.75 0 0 1 0-1.06Zm-12-2.94-1.5-1.5a.75.75 0 1 1 1.06-1.06l1.5 1.5a.75.75 0 0 1-1.06 1.06Zm0 2.94a.75.75 0 1 1 1.06 1.06l-1.5 1.5a.75.75 0 0 1-1.06-1.06l1.5-1.5Z" fill="#151E28"/></svg>