<svg viewBox="0 0 24 24" fill="none" xmlns="http://www.w3.org/2000/svg"><path d="M7 7v10a5 5 0 0 0 10 0V7A5 5 0 0 0 7 7Z" fill="#636F7E" fill-opacity=".16"/><path fill-rule="evenodd" clip-rule="evenodd" d="M12 21.25A4.25 4.25 0 0 1 7.75 17v-2a.75.75 0 0 0-1.5 0v2a5.75 5.75 0 0 0 11.5 0v-2a.75.75 0 0 0-1.5 0v2A4.25 4.25 0 0 1 12 21.25ZM6.25 9a.75.75 0 0 0 1.5 0V7a4.25 4.25 0 0 1 8.5 0v2a.75.75 0 0 0 1.5 0V7a5.75 5.75 0 0 0-11.5 0v2Zm5 7a.75.75 0 0 0 1.5 0V8a.75.75 0 0 0-1.5 0v8Z" fill="#151E28"/></svg>