<svg viewBox="0 0 24 24" fill="none" xmlns="http://www.w3.org/2000/svg"><path fill-rule="evenodd" clip-rule="evenodd" d="M6 8a4 4 0 1 0 0 8h4c.729 0 1.412-.195 2-.535.588.34 1.271.535 2 .535h4a4 4 0 0 0 0-8h-4c-.729 0-1.412.195-2 .535A3.981 3.981 0 0 0 10 8H6Z" fill="#636F7E" fill-opacity=".16"/><path fill-rule="evenodd" clip-rule="evenodd" d="M18 7.25a4.75 4.75 0 1 1 0 9.5h-4A4.75 4.75 0 0 1 9.25 12a.75.75 0 0 1 1.5 0A3.25 3.25 0 0 0 14 15.25h4a3.25 3.25 0 0 0 0-6.5h-3a.75.75 0 0 1 0-1.5h3Zm-8 0A4.75 4.75 0 0 1 14.75 12a.75.75 0 0 1-1.5 0A3.25 3.25 0 0 0 10 8.75H6a3.25 3.25 0 0 0 0 6.5h3a.75.75 0 0 1 0 1.5H6a4.75 4.75 0 1 1 0-9.5h4Z" fill="#151E28"/></svg>