<svg viewBox="0 0 24 24" fill="none" xmlns="http://www.w3.org/2000/svg"><path d="M17 7H7a5 5 0 0 0 0 10h10a5 5 0 0 0 0-10Z" fill="#636F7E" fill-opacity=".16"/><path fill-rule="evenodd" clip-rule="evenodd" d="M8.53 2.47a.75.75 0 1 0-1.06 1.06l2 2a.75.75 0 1 0 1.06-1.06l-2-2Zm8 1.06a.75.75 0 0 0-1.06-1.06l-2 2a.75.75 0 0 0 1.06 1.06l2-2Zm-6 16a.75.75 0 1 0-1.06-1.06l-2 2a.75.75 0 0 0 1.06 1.06l2-2Zm4-1.06a.75.75 0 1 0-1.06 1.06l2 2a.75.75 0 1 0 1.06-1.06l-2-2ZM2.75 12A4.25 4.25 0 0 1 7 7.75h1a.75.75 0 0 0 0-1.5H7a5.75 5.75 0 1 0 0 11.5h1a.75.75 0 0 0 0-1.5H7A4.25 4.25 0 0 1 2.75 12ZM16 6.25a.75.75 0 0 0 0 1.5h1a4.25 4.25 0 0 1 0 8.5h-1a.75.75 0 0 0 0 1.5h1a5.75 5.75 0 0 0 0-11.5h-1Z" fill="#151E28"/></svg>