<svg viewBox="0 0 24 24" fill="none" xmlns="http://www.w3.org/2000/svg"><path d="M14 13.887v4.226c0 .942 0 1.413.197 1.679a1 1 0 0 0 .723.4c.33.027.729-.223 1.528-.722l3.381-2.113c.72-.45 1.08-.675 1.203-.963a1 1 0 0 0 0-.788c-.123-.288-.483-.513-1.203-.963l-3.381-2.113c-.799-.5-1.199-.749-1.528-.723a1 1 0 0 0-.723.401c-.197.265-.197.737-.197 1.679Z" fill="#636F7E" fill-opacity=".16"/><path fill-rule="evenodd" clip-rule="evenodd" d="M3 4.25a.75.75 0 0 0 0 1.5h17a.75.75 0 0 0 0-1.5H3Zm0 7a.75.75 0 0 0 0 1.5h7a.75.75 0 0 0 0-1.5H3Zm0 7a.75.75 0 0 0 0 1.5h7a.75.75 0 0 0 0-1.5H3Zm13.846-6.356-.03-.018c-.374-.234-.698-.437-.97-.574-.274-.138-.61-.272-.986-.242a1.75 1.75 0 0 0-1.265.7c-.225.304-.29.66-.317.965-.028.303-.028.686-.028 1.127v4.296c0 .441 0 .824.028 1.127.028.305.092.661.317.964.3.405.762.66 1.265.701.376.03.712-.104.986-.242.272-.137.596-.34.97-.574l.03-.018 3.38-2.113.029-.018c.336-.21.63-.394.853-.563.229-.174.475-.399.614-.723a1.75 1.75 0 0 0 0-1.378c-.14-.324-.385-.549-.614-.723-.223-.17-.517-.353-.853-.563l-.028-.018-3.381-2.113Zm-2.038.75a.25.25 0 0 1 .158-.087c.017.004.077.02.204.084.203.102.468.267.88.525l3.382 2.113c.372.233.607.38.769.504a.9.9 0 0 1 .146.129.25.25 0 0 1 0 .176.9.9 0 0 1-.146.13c-.162.122-.397.27-.77.503l-3.38 2.113c-.413.258-.678.422-.88.525a.997.997 0 0 1-.205.084.25.25 0 0 1-.158-.087 1.004 1.004 0 0 1-.037-.218c-.02-.227-.021-.539-.021-1.025v-4.226c0-.486 0-.799.021-1.025a.974.974 0 0 1 .037-.218Z" fill="#151E28"/></svg>