<svg viewBox="0 0 24 24" fill="none" xmlns="http://www.w3.org/2000/svg"><path fill-rule="evenodd" clip-rule="evenodd" d="M7.53 3.53a.75.75 0 0 0-1.06-1.06L4 4.94l-.47-.47a.75.75 0 0 0-1.06 1.06l1 1a.75.75 0 0 0 1.06 0l3-3ZM21.75 5a.75.75 0 0 0-.75-.75H11a.75.75 0 0 0 0 1.5h10a.75.75 0 0 0 .75-.75ZM21 11.25a.75.75 0 0 1 0 1.5H11a.75.75 0 0 1 0-1.5h10Zm0 7a.75.75 0 0 1 0 1.5H11a.75.75 0 0 1 0-1.5h10ZM7.53 9.47a.75.75 0 0 1 0 1.06l-3 3a.75.75 0 0 1-1.06 0l-1-1a.75.75 0 1 1 1.06-1.06l.47.47 2.47-2.47a.75.75 0 0 1 1.06 0ZM4.5 20.937a2 2 0 1 0 0-4 2 2 0 0 0 0 4Z" fill="#151E28"/></svg>