<svg viewBox="0 0 24 24" fill="none" xmlns="http://www.w3.org/2000/svg"><path fill-rule="evenodd" clip-rule="evenodd" d="M12 20A8 8 0 0 1 6.19 6.5l3.54 3.54a3 3 0 0 0 4.231 4.231l3.539 3.538A7.973 7.973 0 0 1 12 20Z" fill="#636F7E" fill-opacity=".16"/><path fill-rule="evenodd" clip-rule="evenodd" d="M12 1.25a.75.75 0 0 1 .75.75v1.282a8.752 8.752 0 0 1 7.968 7.968H22a.75.75 0 0 1 0 1.5h-1.282a8.7 8.7 0 0 1-.605 2.531.75.75 0 1 1-1.39-.562 7.25 7.25 0 0 0-9.442-9.442.75.75 0 0 1-.563-1.39 8.704 8.704 0 0 1 2.532-.605V2a.75.75 0 0 1 .75-.75ZM1.25 12a.75.75 0 0 1 .75-.75h1.28a8.715 8.715 0 0 1 2.024-4.884L1.469 2.53A.75.75 0 1 1 2.53 1.47l20 20a.75.75 0 1 1-1.06 1.06l-3.836-3.835a8.716 8.716 0 0 1-4.884 2.023V22a.75.75 0 0 1-1.5 0v-1.282a8.752 8.752 0 0 1-7.97-7.968H2a.75.75 0 0 1-.75-.75Zm15.319 5.63-2.501-2.501A3.75 3.75 0 0 1 8.87 9.932l-2.5-2.5A7.25 7.25 0 0 0 16.568 17.63Zm-6.6-6.6a2.25 2.25 0 0 0 3.001 3.001L9.969 11.03Zm2.655-2.728a.75.75 0 1 0-.248 1.48c.94.157 1.685.901 1.843 1.842a.75.75 0 0 0 1.479-.248 3.752 3.752 0 0 0-3.074-3.074Z" fill="#151E28"/></svg>