<svg viewBox="0 0 24 24" fill="none" xmlns="http://www.w3.org/2000/svg"><path d="m6.5 9.213 11.622-4.98c1.148-.492 1.722-.738 2.077-.625a1 1 0 0 1 .648.648c.114.356-.132.93-.624 2.077l-4.98 11.622c-.587 1.368-.88 2.052-1.242 2.21a1 1 0 0 1-.958-.085c-.329-.22-.496-.945-.83-2.395l-.571-2.473c-.163-.707-.245-1.06-.425-1.347a2 2 0 0 0-.627-.626c-.286-.18-.64-.262-1.346-.425l-2.473-.57c-1.45-.335-2.175-.503-2.395-.831a1 1 0 0 1-.085-.959c.158-.362.842-.655 2.21-1.24Z" fill="#636F7E" fill-opacity=".16"/><path fill-rule="evenodd" clip-rule="evenodd" d="M19.994 4.331a1.426 1.426 0 0 0-.302.075c-.293.096-.687.264-1.274.516L6.796 9.902c-.697.3-1.175.505-1.502.679-.223.118-.305.187-.328.205a.25.25 0 0 0 .017.18c.025.015.118.069.358.145.353.113.86.23 1.598.401l2.473.57c.036.01.072.017.107.025.602.139 1.075.248 1.47.497.349.22.643.514.863.862.25.396.358.869.496 1.47l.025.107.57 2.473c.17.739.289 1.246.401 1.599.077.24.13.333.145.358a.25.25 0 0 0 .18.016c.019-.022.088-.104.206-.327.174-.327.38-.805.678-1.502l4.98-11.622c.253-.588.42-.982.517-1.274.063-.191.072-.278.075-.302a.25.25 0 0 0-.131-.13Zm.434-1.437a1.75 1.75 0 0 1 1.134 1.134c.135.424.026.86-.087 1.204-.12.363-.314.818-.548 1.364l-.014.033-4.981 11.622-.014.033c-.281.656-.511 1.192-.718 1.58-.187.355-.453.793-.898.988a1.75 1.75 0 0 1-1.677-.15c-.403-.27-.587-.749-.71-1.13-.133-.42-.265-.988-.425-1.683l-.008-.035-.57-2.473c-.176-.76-.233-.963-.33-1.116a1.248 1.248 0 0 0-.391-.392c-.154-.096-.356-.153-1.116-.329l-2.473-.57-.035-.008c-.695-.16-1.263-.292-1.683-.426-.381-.122-.86-.306-1.13-.709a1.75 1.75 0 0 1-.15-1.677c.194-.445.633-.711.987-.899.39-.206.925-.436 1.58-.717l.034-.014 11.622-4.98.033-.015c.546-.234 1.001-.43 1.364-.548.344-.113.78-.223 1.204-.087Z" fill="#151E28"/></svg>