<svg viewBox="0 0 24 24" fill="none" xmlns="http://www.w3.org/2000/svg"><path fill-rule="evenodd" clip-rule="evenodd" d="M13 22h-2c-.929 0-1.393 0-1.783-.051a6 6 0 0 1-5.166-5.166C4 16.393 4 15.93 4 15c0-.929 0-1.393.051-1.783A6 6 0 0 1 9.217 8.05C9.607 8 10.07 8 11 8h2c.929 0 1.393 0 1.783.051a6 6 0 0 1 5.166 5.166C20 13.607 20 14.07 20 15c0 .929 0 1.393-.051 1.783a6 6 0 0 1-5.166 5.166C14.393 22 13.93 22 13 22Zm-1.2-9a1.8 1.8 0 0 0-1.8 1.8v.4a1.8 1.8 0 0 0 1.8 1.8h.4a1.8 1.8 0 0 0 1.8-1.8v-.4a1.8 1.8 0 0 0-1.8-1.8h-.4Z" fill="#636F7E" fill-opacity=".16"/><path fill-rule="evenodd" clip-rule="evenodd" d="M8.75 5a3.25 3.25 0 0 1 6.398-.813.75.75 0 1 0 1.452-.374A4.752 4.752 0 0 0 7.25 5v2.835a6.751 6.751 0 0 0-3.942 5.284c-.058.44-.058.949-.058 1.81v.141c0 .862 0 1.372.058 1.811a6.75 6.75 0 0 0 5.811 5.811c.44.058.949.058 1.81.058h2.141c.862 0 1.372 0 1.811-.058a6.75 6.75 0 0 0 5.811-5.81c.058-.44.058-.95.058-1.812v-.14c0-.862 0-1.372-.058-1.811a6.75 6.75 0 0 0-5.81-5.811c-.44-.058-.95-.058-1.812-.058h-2.14c-.862 0-1.372 0-1.811.058a6.79 6.79 0 0 0-.369.059V5ZM11 8.75c-.953 0-1.356.002-1.685.045a5.25 5.25 0 0 0-4.52 4.52c-.043.329-.045.732-.045 1.685 0 .953.002 1.356.045 1.685a5.25 5.25 0 0 0 4.52 4.52c.329.043.732.045 1.685.045h2c.953 0 1.356-.002 1.685-.045a5.25 5.25 0 0 0 4.52-4.52c.043-.329.045-.732.045-1.685 0-.953-.002-1.356-.045-1.685a5.25 5.25 0 0 0-4.52-4.52c-.329-.043-.732-.045-1.685-.045h-2ZM9.25 14.8a2.55 2.55 0 0 1 2.55-2.55h.4a2.55 2.55 0 0 1 2.55 2.55v.4a2.55 2.55 0 0 1-2.55 2.55h-.4a2.55 2.55 0 0 1-2.55-2.55v-.4Zm2.55-1.05c-.58 0-1.05.47-1.05 1.05v.4c0 .58.47 1.05 1.05 1.05h.4c.58 0 1.05-.47 1.05-1.05v-.4c0-.58-.47-1.05-1.05-1.05h-.4Z" fill="#151E28"/></svg>