<svg viewBox="0 0 24 24" fill="none" xmlns="http://www.w3.org/2000/svg"><path d="M19 11a8 8 0 1 1-16 0 8 8 0 0 1 16 0Z" fill="#636F7E" fill-opacity=".16"/><path fill-rule="evenodd" clip-rule="evenodd" d="M3.75 11a7.25 7.25 0 1 1 14.5 0 7.25 7.25 0 0 1-14.5 0ZM11 2.25a8.75 8.75 0 1 0 5.634 15.445l2.836 2.835a.75.75 0 1 0 1.06-1.06l-2.835-2.836A8.75 8.75 0 0 0 11 2.25ZM7.25 11a.75.75 0 0 1 .75-.75h2.25V8a.75.75 0 0 1 1.5 0v2.25H14a.75.75 0 0 1 0 1.5h-2.25V14a.75.75 0 0 1-1.5 0v-2.25H8a.75.75 0 0 1-.75-.75Z" fill="#151E28"/></svg>