<svg viewBox="0 0 24 24" fill="none" xmlns="http://www.w3.org/2000/svg"><circle cx="12" cy="9" r="7" fill="#636F7E" fill-opacity=".16"/><path fill-rule="evenodd" clip-rule="evenodd" d="M5.75 9a6.25 6.25 0 1 1 12.5 0 6.25 6.25 0 0 1-12.5 0ZM12 1.25a7.75 7.75 0 0 0-4.278 14.213l-1.67 5.01c-.493 1.479 1.048 2.815 2.443 2.118l2.946-1.473a1.25 1.25 0 0 1 1.118 0l2.946 1.473c1.395.697 2.936-.64 2.443-2.118l-1.67-5.01A7.75 7.75 0 0 0 12 1.25Zm.612 15.476a7.711 7.711 0 0 0 2.132-.476h.215l1.566 4.697a.25.25 0 0 1-.349.303l-2.946-1.474a2.75 2.75 0 0 0-2.46 0L7.824 21.25a.25.25 0 0 1-.349-.303l1.566-4.697h.215a7.7 7.7 0 0 0 2.744.5c.206 0 .41-.008.612-.024Z" fill="#151E28"/></svg>