<svg viewBox="0 0 24 24" fill="none" xmlns="http://www.w3.org/2000/svg"><path fill-rule="evenodd" clip-rule="evenodd" d="M5.327 4.638C5 5.28 5 6.12 5 7.8v8.4c0 1.68 0 2.52.327 3.162a3 3 0 0 0 1.311 1.311C7.28 21 8.12 21 9.8 21h4.4c1.68 0 2.52 0 3.162-.327a3 3 0 0 0 1.311-1.311C19 18.72 19 17.88 19 16.2V7.8c0-1.68 0-2.52-.327-3.162a3 3 0 0 0-1.311-1.311C16.72 3 15.88 3 14.2 3H9.8c-1.68 0-2.52 0-3.162.327a3 3 0 0 0-1.311 1.311ZM9 13.243v-2.486c0-.905 0-1.358.19-1.62a1 1 0 0 1 .702-.408c.323-.035.716.19 1.502.639l2.175 1.243c.797.455 1.195.683 1.328.98a1 1 0 0 1 0 .817c-.133.298-.531.526-1.328.981l-2.175 1.243c-.786.45-1.18.674-1.502.639a1 1 0 0 1-.702-.408C9 14.601 9 14.149 9 13.244Z" fill="#636F7E" fill-opacity=".16"/><path fill-rule="evenodd" clip-rule="evenodd" d="M9.8 2.25h-.032c-.813 0-1.469 0-2 .043-.546.045-1.026.14-1.47.366a3.75 3.75 0 0 0-1.64 1.639c-.226.444-.32.924-.365 1.47-.043.531-.043 1.187-.043 2v8.464c0 .813 0 1.469.043 2 .045.546.14 1.026.366 1.47a3.75 3.75 0 0 0 1.639 1.64c.444.226.924.32 1.47.365.531.043 1.187.043 2 .043h4.464c.813 0 1.469 0 2-.043.546-.045 1.026-.14 1.47-.366a3.75 3.75 0 0 0 1.64-1.639c.226-.444.32-.924.365-1.47.043-.531.043-1.187.043-2V7.768c0-.813 0-1.469-.043-2-.045-.546-.14-1.026-.366-1.47a3.75 3.75 0 0 0-1.639-1.64c-.444-.226-.924-.32-1.47-.365-.531-.043-1.187-.043-2-.043H9.8ZM6.979 3.995c.197-.1.458-.17.912-.207.462-.037 1.057-.038 1.909-.038h4.4c.853 0 1.447 0 1.91.038.453.037.714.107.912.207.423.216.767.56.983.984.1.197.17.458.207.912.037.462.038 1.057.038 1.909v8.4c0 .852 0 1.447-.038 1.91-.038.453-.107.714-.207.912-.216.423-.56.767-.983.983-.198.1-.459.17-.913.207-.462.037-1.057.038-1.909.038H9.8c-.852 0-1.447 0-1.91-.038-.453-.038-.714-.107-.911-.207a2.25 2.25 0 0 1-.984-.983c-.1-.198-.17-.459-.207-.913-.037-.462-.038-1.057-.038-1.909V7.8c0-.852 0-1.447.038-1.91.037-.453.107-.714.207-.911a2.25 2.25 0 0 1 .984-.984ZM2.75 6a.75.75 0 0 0-1.5 0v12a.75.75 0 0 0 1.5 0V6ZM22 5.25a.75.75 0 0 0-.75.75v12a.75.75 0 0 0 1.5 0V6a.75.75 0 0 0-.75-.75ZM11.766 8.717l-.03-.017c-.367-.21-.687-.393-.956-.516-.272-.124-.602-.24-.968-.2a1.75 1.75 0 0 0-1.23.712c-.215.298-.278.643-.305.941-.027.294-.027.662-.027 1.086v2.554c0 .424 0 .792.027 1.086.027.298.09.643.306.94.29.401.737.66 1.229.714.366.04.696-.077.968-.201.269-.123.589-.306.957-.516l.029-.017 2.175-1.243.03-.016c.373-.214.697-.399.94-.57.248-.173.52-.4.67-.74a1.75 1.75 0 0 0 0-1.429c-.15-.338-.422-.566-.67-.74a13.091 13.091 0 0 0-.94-.568l-.03-.017-2.175-1.243Zm-1.96.85a.25.25 0 0 1 .154-.09.962.962 0 0 1 .198.072c.198.09.458.238.864.47l2.175 1.243c.411.235.674.386.855.513a.977.977 0 0 1 .166.135.25.25 0 0 1 0 .18.977.977 0 0 1-.166.135c-.181.127-.444.278-.855.513l-2.175 1.243c-.406.232-.666.38-.864.47a.962.962 0 0 1-.198.073.25.25 0 0 1-.155-.09.963.963 0 0 1-.034-.208c-.02-.217-.021-.516-.021-.983v-2.486c0-.467 0-.766.02-.983a.962.962 0 0 1 .035-.208Z" fill="#151E28"/></svg>