<svg viewBox="0 0 24 24" fill="none" xmlns="http://www.w3.org/2000/svg"><path d="M16.369 3.315 7 8H6c-.932 0-1.398 0-1.765.152a2 2 0 0 0-1.083 1.082C3 9.602 3 10.068 3 11s0 1.398.152 1.765a2 2 0 0 0 1.083 1.082C4.602 14 5.068 14 6 14h1l9.369 4.684c1.533.767 2.3 1.15 2.923 1.058a2 2 0 0 0 1.347-.832c.361-.516.361-1.373.361-3.088V6.177c0-1.714 0-2.571-.361-3.087a2 2 0 0 0-1.347-.833c-.623-.092-1.39.292-2.923 1.058Z" fill="#636F7E" fill-opacity=".16"/><path fill-rule="evenodd" clip-rule="evenodd" d="M16.704 3.986c.78-.39 1.32-.658 1.74-.823.424-.165.622-.18.739-.164.34.05.644.239.841.52.068.097.143.282.184.734.041.45.042 1.053.042 1.924v9.645c0 .872 0 1.474-.042 1.925-.041.452-.116.637-.184.733a1.25 1.25 0 0 1-.841.52c-.117.017-.316.002-.738-.163s-.96-.434-1.74-.824l-9.37-4.684a.75.75 0 0 0-.335-.08H6c-.476 0-.796 0-1.043-.017-.241-.016-.358-.045-.435-.077a1.25 1.25 0 0 1-.677-.677c-.032-.077-.061-.194-.078-.435A17.086 17.086 0 0 1 3.75 11c0-.476 0-.796.017-1.043.017-.241.046-.358.078-.436.127-.306.37-.55.677-.676.077-.032.194-.062.435-.078A17.09 17.09 0 0 1 6 8.75h1a.75.75 0 0 0 .335-.08l9.37-4.684Zm2.698-2.47c-.507-.076-1.003.054-1.503.25-.493.192-1.094.493-1.832.862l-.034.016-9.21 4.606h-.848c-.445 0-.816 0-1.12.02a2.823 2.823 0 0 0-.907.19 2.75 2.75 0 0 0-1.489 1.487c-.12.29-.167.59-.188.907-.021.305-.021.676-.021 1.12v.052c0 .444 0 .816.02 1.12.022.317.069.617.19.907a2.75 2.75 0 0 0 1.488 1.488c.29.12.59.167.907.189.304.02.675.02 1.12.02h.848l9.21 4.606.034.017c.738.369 1.339.67 1.832.862.5.195.996.325 1.503.25a2.75 2.75 0 0 0 1.851-1.144c.294-.42.4-.922.449-1.456.048-.528.048-1.2.048-2.024V6.14c0-.825 0-1.497-.048-2.024-.05-.534-.155-1.036-.449-1.456a2.75 2.75 0 0 0-1.851-1.145ZM6.25 16a.75.75 0 0 0-1.5 0v2a2.75 2.75 0 0 0 5.5 0v-.5a.75.75 0 0 0-1.5 0v.5a1.25 1.25 0 0 1-2.5 0v-2Z" fill="#151E28"/></svg>