<svg viewBox="0 0 24 24" fill="none" xmlns="http://www.w3.org/2000/svg"><circle cx="10" cy="14" r="4" fill="#636F7E" fill-opacity=".16"/><path fill-rule="evenodd" clip-rule="evenodd" d="M21.33 5.019c.751-1.504-.844-3.1-2.349-2.348l-3.87 1.935a.25.25 0 0 1-.36-.224v-.321c0-1.461-1.686-2.28-2.834-1.375l-7.33 5.775a.748.748 0 0 0-.067.059 7.75 7.75 0 0 0 10.96 10.96.749.749 0 0 0 .059-.066l5.775-7.331c.904-1.148.087-2.833-1.375-2.833h-.32a.25.25 0 0 1-.224-.362l1.934-3.87Zm-1.678-1.006a.25.25 0 0 1 .336.335l-1.935 3.87a1.75 1.75 0 0 0 1.565 2.532h.321a.25.25 0 0 1 .197.405l-5.747 7.295A6.25 6.25 0 0 1 5.55 9.61l7.295-5.747a.25.25 0 0 1 .405.197v.321a1.75 1.75 0 0 0 2.533 1.565l3.87-1.934ZM6.75 14a3.25 3.25 0 1 1 6.5 0 3.25 3.25 0 0 1-6.5 0ZM10 9.25a4.75 4.75 0 1 0 0 9.5 4.75 4.75 0 0 0 0-9.5Z" fill="#151E28"/></svg>