<svg viewBox="0 0 24 24" fill="none" xmlns="http://www.w3.org/2000/svg"><path fill-rule="evenodd" clip-rule="evenodd" d="M18.8 19H5.2c-1.12 0-1.68 0-2.108-.218a2 2 0 0 1-.874-.874C2 17.48 2 16.92 2 15.8V8.2c0-1.12 0-1.68.218-2.108a2 2 0 0 1 .874-.874C3.52 5 4.08 5 5.2 5h13.6c1.12 0 1.68 0 2.108.218a2 2 0 0 1 .874.874C22 6.52 22 7.08 22 8.2v7.6c0 1.12 0 1.68-.218 2.108a2 2 0 0 1-.874.874C20.48 19 19.92 19 18.8 19ZM12 14.5a2.5 2.5 0 1 0 0-5 2.5 2.5 0 0 0 0 5Z" fill="#636F7E" fill-opacity=".16"/><path fill-rule="evenodd" clip-rule="evenodd" d="M5.2 4.25h-.03c-.535 0-.98 0-1.345.03-.38.03-.736.098-1.073.27A2.75 2.75 0 0 0 1.55 5.752c-.172.337-.24.693-.27 1.073-.03.365-.03.81-.03 1.345v7.66c0 .535 0 .98.03 1.345.03.38.098.736.27 1.073a2.75 2.75 0 0 0 1.202 1.202c.337.172.693.24 1.073.27.365.03.81.03 1.345.03h13.66c.535 0 .98 0 1.345-.03.38-.03.736-.098 1.073-.27a2.75 2.75 0 0 0 1.202-1.202c.172-.337.24-.694.27-1.073.03-.365.03-.81.03-1.345V8.17c0-.535 0-.98-.03-1.345-.031-.38-.098-.736-.27-1.074a2.75 2.75 0 0 0-1.202-1.201c-.337-.172-.694-.24-1.074-.27-.364-.03-.81-.03-1.344-.03H5.2ZM3.433 5.886c.09-.046.227-.088.514-.111.296-.024.68-.025 1.253-.025h13.6c.572 0 .956 0 1.252.025.287.023.425.065.515.111.235.12.427.311.546.546.047.091.088.228.112.515.024.296.025.68.025 1.253v7.6c0 .572 0 .957-.025 1.252-.023.288-.065.425-.111.515a1.25 1.25 0 0 1-.547.547c-.09.046-.227.088-.515.111-.295.024-.68.025-1.252.025H5.2c-.572 0-.957 0-1.253-.025-.287-.023-.424-.065-.514-.111a1.25 1.25 0 0 1-.547-.547c-.046-.09-.088-.227-.111-.515-.024-.295-.025-.68-.025-1.252V8.2c0-.572 0-.957.025-1.253.023-.287.065-.424.111-.514a1.25 1.25 0 0 1 .547-.547ZM10.25 12a1.75 1.75 0 1 1 3.5 0 1.75 1.75 0 0 1-3.5 0ZM12 8.75a3.25 3.25 0 1 0 0 6.5 3.25 3.25 0 0 0 0-6.5Z" fill="#151E28"/></svg>