<svg viewBox="0 0 24 24" fill="none" xmlns="http://www.w3.org/2000/svg"><path fill-rule="evenodd" clip-rule="evenodd" d="M15.797 3.373 12 5v5l5.607-2.403a4.35 4.35 0 0 0 .337-.153 2 2 0 0 0 1.049-1.59c.007-.086.007-.18.007-.37 0-.398 0-.598-.022-.744A2 2 0 0 0 16.49 3.1c-.142.037-.326.116-.693.273ZM9 22a3 3 0 1 0 0-6 3 3 0 0 0 0 6Z" fill="#636F7E" fill-opacity=".16"/><path fill-rule="evenodd" clip-rule="evenodd" d="M16.681 3.824a1.25 1.25 0 0 1 1.555 1.026c.012.076.014.204.014.635 0 .203 0 .258-.005.305a1.25 1.25 0 0 1-.655.993 4.12 4.12 0 0 1-.278.125L12.75 8.863V5.495l3.342-1.433c.396-.17.515-.218.59-.238Zm3.04.806a2.75 2.75 0 0 0-3.422-2.256c-.197.052-.43.151-.736.283l-.062.026-3.796 1.628a.75.75 0 0 0-.455.69V16a3.75 3.75 0 1 0 1.5 3v-8.505l5.153-2.209.026-.011c.148-.063.263-.113.37-.17a2.75 2.75 0 0 0 1.44-2.185c.011-.12.011-.245.011-.406v-.095c0-.335 0-.587-.03-.789ZM9 16.75a2.25 2.25 0 1 0 0 4.5 2.25 2.25 0 0 0 0-4.5Z" fill="#151E28"/></svg>