<svg viewBox="0 0 24 24" fill="none" xmlns="http://www.w3.org/2000/svg"><path fill-rule="evenodd" clip-rule="evenodd" d="M5 7.8c0-1.68 0-2.52.327-3.162a3 3 0 0 1 1.311-1.311C7.28 3 8.12 3 9.8 3h4.4c1.68 0 2.52 0 3.162.327a3 3 0 0 1 1.311 1.311C19 5.28 19 6.12 19 7.8v8.4c0 1.68 0 2.52-.327 3.162a3 3 0 0 1-1.311 1.311C16.72 21 15.88 21 14.2 21H9.8c-1.68 0-2.52 0-3.162-.327a3 3 0 0 1-1.311-1.311C5 18.72 5 17.88 5 16.2V7.8Zm7 7.2a2 2 0 1 1-4 0 2 2 0 0 1 4 0Zm1.59-8.397L12 7v4l2.53-.633a1.94 1.94 0 1 0-.94-3.764Z" fill="#636F7E" fill-opacity=".16"/><path fill-rule="evenodd" clip-rule="evenodd" d="M9.8 2.25h-.032c-.813 0-1.469 0-2 .043-.546.045-1.026.14-1.47.366a3.75 3.75 0 0 0-1.64 1.639c-.226.444-.32.924-.365 1.47-.043.531-.043 1.187-.043 2v8.464c0 .813 0 1.469.043 2 .045.546.14 1.026.366 1.47a3.75 3.75 0 0 0 1.639 1.64c.444.226.924.32 1.47.365.531.043 1.187.043 2 .043h4.464c.813 0 1.469 0 2-.043.546-.045 1.026-.14 1.47-.366a3.75 3.75 0 0 0 1.64-1.639c.226-.444.32-.924.365-1.47.043-.531.043-1.187.043-2V7.768c0-.813 0-1.469-.043-2-.045-.546-.14-1.026-.366-1.47a3.75 3.75 0 0 0-1.639-1.64c-.444-.226-.924-.32-1.47-.365-.531-.043-1.187-.043-2-.043H9.8ZM6.979 3.995c.197-.1.458-.17.912-.207.462-.037 1.057-.038 1.909-.038h4.4c.853 0 1.447 0 1.91.038.453.037.714.107.912.207.423.216.767.56.983.984.1.197.17.458.207.912.037.462.038 1.057.038 1.909v8.4c0 .852 0 1.447-.038 1.91-.038.453-.107.714-.207.912-.216.423-.56.767-.983.983-.198.1-.459.17-.913.207-.462.037-1.057.038-1.909.038H9.8c-.852 0-1.447 0-1.91-.038-.453-.038-.714-.107-.911-.207a2.25 2.25 0 0 1-.984-.983c-.1-.198-.17-.459-.207-.913-.037-.462-.038-1.057-.038-1.909V7.8c0-.852 0-1.447.038-1.91.037-.453.107-.714.207-.911a2.25 2.25 0 0 1 .984-.984ZM2.75 6a.75.75 0 0 0-1.5 0v12a.75.75 0 0 0 1.5 0V6ZM22 5.25a.75.75 0 0 0-.75.75v12a.75.75 0 0 0 1.5 0V6a.75.75 0 0 0-.75-.75ZM8.75 15a1.25 1.25 0 1 1 2.5 0 1.25 1.25 0 0 1-2.5 0ZM10 12.25A2.75 2.75 0 1 0 12.75 15v-3.414l1.962-.491a2.69 2.69 0 1 0-1.305-5.22l-1.589.397A.75.75 0 0 0 11.25 7v4m0 .001v1.549c-.375-.192-.8-.3-1.25-.3m3.771-4.92a1.19 1.19 0 1 1 .577 2.31l-1.598.4V7.585l1.021-.256Z" fill="#151E28"/></svg>