<svg viewBox="0 0 24 24" fill="none" xmlns="http://www.w3.org/2000/svg"><path fill-rule="evenodd" clip-rule="evenodd" d="M21 6v-.56c0-1.5 0-2.249-.314-2.74a2 2 0 0 0-1.199-.865c-.566-.142-1.277.095-2.699.569l-5.6 1.866c-.787.263-1.18.394-1.471.637a2 2 0 0 0-.578.802C9 6.062 9 6.477 9 7.306V10l12-4Zm0 10a3 3 0 1 1-6 0 3 3 0 0 1 6 0ZM9 19a3 3 0 1 1-6 0 3 3 0 0 1 6 0Z" fill="#636F7E" fill-opacity=".16"/><path fill-rule="evenodd" clip-rule="evenodd" d="M17.025 3.115c.725-.241 1.22-.406 1.606-.497.382-.09.563-.084.673-.056.31.078.578.271.75.54.061.097.125.266.16.657.035.395.036.917.036 1.68v.02l-10.5 3.5V7.306c0-.893.013-1.134.087-1.322.076-.195.2-.367.361-.502.155-.13.38-.218 1.227-.5l5.6-1.867Zm2.645-2.008c-.455-.114-.913-.06-1.384.051-.46.109-1.019.296-1.701.523l-.034.011-5.6 1.867-.12.04c-.669.222-1.193.396-1.595.733a2.75 2.75 0 0 0-.795 1.103c-.192.488-.192 1.04-.191 1.745v8.819a3.75 3.75 0 1 0 1.5 3V10.54l10.5-3.5V13a3.75 3.75 0 1 0 1.5 3V6m0-.002v-.594c0-.72 0-1.31-.042-1.78-.043-.48-.137-.933-.39-1.328a2.75 2.75 0 0 0-1.648-1.189M18 13.75a2.25 2.25 0 1 0 0 4.5 2.25 2.25 0 0 0 0-4.5Zm-12 3a2.25 2.25 0 1 0 0 4.5 2.25 2.25 0 0 0 0-4.5Z" fill="#151E28"/></svg>