<svg viewBox="0 0 24 24" fill="none" xmlns="http://www.w3.org/2000/svg"><path d="M9.5 9a4 4 0 0 0-4 4 3.5 3.5 0 1 0 0 7h8a3.5 3.5 0 1 0 0-7 4 4 0 0 0-4-4Z" fill="#636F7E" fill-opacity=".16"/><path fill-rule="evenodd" clip-rule="evenodd" d="M11.226 6.813a5.263 5.263 0 0 1 3.408-2.884 5.75 5.75 0 0 0 5.851 7.8 5.279 5.279 0 0 1-1.86 1.82.75.75 0 1 0 .75 1.298 6.764 6.764 0 0 0 3.106-3.956.75.75 0 0 0-.984-.912 4.25 4.25 0 0 1-4.898-6.529.75.75 0 0 0-.6-1.2 6.751 6.751 0 0 0-6.137 3.937.75.75 0 0 0 1.364.626ZM9.5 9.75a3.015 3.015 0 0 0-2.603 1.465.75.75 0 1 1-1.29-.764A4.514 4.514 0 0 1 9.5 8.25c2.23 0 4.103 1.6 4.444 3.719 2.145.327 3.806 2.144 3.806 4.364 0 .725-.178 1.41-.494 2.015a.75.75 0 1 1-1.33-.695c.207-.396.324-.844.324-1.32 0-1.595-1.327-2.916-3-2.916a.75.75 0 0 1-.75-.75c0-1.595-1.327-2.917-3-2.917Zm-3.75 3.667c-1.673 0-3 1.321-3 2.916 0 .476.117.924.324 1.32a.75.75 0 1 1-1.33.695 4.336 4.336 0 0 1-.494-2.015c0-2.455 2.03-4.416 4.5-4.416.636 0 1.244.13 1.795.365a.75.75 0 1 1-.59 1.38 3.06 3.06 0 0 0-1.205-.245ZM13 16.25a.75.75 0 0 1 .75.75v.25H14a.75.75 0 0 1 0 1.5h-.25V19a.75.75 0 0 1-1.5 0v-.25H12a.75.75 0 0 1 0-1.5h.25V17a.75.75 0 0 1 .75-.75ZM6.75 17a.75.75 0 0 0-1.5 0v.25H5a.75.75 0 0 0 0 1.5h.25V19a.75.75 0 0 0 1.5 0v-.25H7a.75.75 0 0 0 0-1.5h-.25V17Zm2.75 2.25a.75.75 0 0 1 .75.75v.25h.25a.75.75 0 0 1 0 1.5h-.25V22a.75.75 0 0 1-1.5 0v-.25H8.5a.75.75 0 0 1 0-1.5h.25V20a.75.75 0 0 1 .75-.75Z" fill="#151E28"/></svg>