<svg viewBox="0 0 24 24" fill="none" xmlns="http://www.w3.org/2000/svg"><path d="M9.5 9a4 4 0 0 0-4 4 3.5 3.5 0 1 0 0 7h8a3.5 3.5 0 1 0 0-7 4 4 0 0 0-4-4Z" fill="#636F7E" fill-opacity=".16"/><path fill-rule="evenodd" clip-rule="evenodd" d="M11.226 6.813a5.263 5.263 0 0 1 3.408-2.884 5.75 5.75 0 0 0 5.851 7.8 5.279 5.279 0 0 1-1.86 1.82.75.75 0 1 0 .75 1.298 6.764 6.764 0 0 0 3.106-3.956.75.75 0 0 0-.984-.912A4.25 4.25 0 0 1 16.6 3.45a.75.75 0 0 0-.6-1.2 6.751 6.751 0 0 0-6.138 3.937.75.75 0 0 0 1.364.626Zm-4.329 4.402A3.015 3.015 0 0 1 9.5 9.75c1.673 0 3 1.322 3 2.917 0 .414.336.75.75.75 1.673 0 3 1.321 3 2.916a.75.75 0 0 0 1.5 0c0-2.22-1.661-4.037-3.806-4.364-.341-2.119-2.214-3.72-4.444-3.72a4.514 4.514 0 0 0-3.894 2.202.75.75 0 1 0 1.291.764ZM2.75 16.333c0-1.595 1.327-2.916 3-2.916.43 0 .838.087 1.205.244a.75.75 0 0 0 .59-1.379 4.56 4.56 0 0 0-1.795-.365c-2.47 0-4.5 1.961-4.5 4.416s2.03 4.417 4.5 4.417a.75.75 0 0 0 0-1.5c-1.673 0-3-1.322-3-2.917Zm7.896.59a1.078 1.078 0 0 0-1.292 0 2.577 2.577 0 0 1-2.7.243l-.99-.495a.75.75 0 1 1 .671-1.342l.99.495c.365.183.802.143 1.129-.102a2.577 2.577 0 0 1 3.092 0c.327.245.764.285 1.129.102l.99-.495a.75.75 0 1 1 .67 1.342l-.99.495a2.577 2.577 0 0 1-2.699-.244Zm3.707 3.5c.384-.288.91-.288 1.293 0a2.58 2.58 0 0 0 2.7.243l.99-.495a.75.75 0 1 0-.671-1.342l-.99.495a1.077 1.077 0 0 1-1.128-.102 2.578 2.578 0 0 0-3.094 0 1.077 1.077 0 0 1-1.128.102l-.99-.495a.75.75 0 1 0-.67 1.342l.99.495a2.577 2.577 0 0 0 2.699-.244Z" fill="#151E28"/></svg>