<svg viewBox="0 0 24 24" fill="none" xmlns="http://www.w3.org/2000/svg"><path fill-rule="evenodd" clip-rule="evenodd" d="M5.5 13a4 4 0 0 1 8 0 3.5 3.5 0 1 1 0 7h-2.593c.06-.156.093-.324.093-.5 0-.833-1.5-2.5-1.5-2.5S8 18.667 8 19.5c0 .176.033.344.093.5H5.5a3.5 3.5 0 1 1 0-7Z" fill="#636F7E" fill-opacity=".16"/><path fill-rule="evenodd" clip-rule="evenodd" d="M11.226 6.813a5.263 5.263 0 0 1 3.408-2.884 5.75 5.75 0 0 0 5.851 7.8 5.279 5.279 0 0 1-1.86 1.82.75.75 0 1 0 .75 1.298 6.764 6.764 0 0 0 3.106-3.956.75.75 0 0 0-.984-.912 4.25 4.25 0 0 1-4.898-6.529.75.75 0 0 0-.6-1.2 6.751 6.751 0 0 0-6.137 3.937.75.75 0 0 0 1.364.626ZM9.5 9.75a3.015 3.015 0 0 0-2.603 1.465.75.75 0 1 1-1.29-.764A4.514 4.514 0 0 1 9.5 8.25c2.23 0 4.103 1.6 4.444 3.719 2.145.327 3.806 2.144 3.806 4.364 0 2.15-1.56 3.924-3.604 4.33a.75.75 0 1 1-.292-1.472c1.379-.274 2.396-1.46 2.396-2.858 0-1.595-1.327-2.916-3-2.916a.75.75 0 0 1-.75-.75c0-1.595-1.327-2.917-3-2.917Zm-3.75 3.667c-1.673 0-3 1.321-3 2.916 0 1.398 1.017 2.584 2.396 2.858a.75.75 0 0 1-.292 1.471c-2.044-.405-3.604-2.178-3.604-4.329 0-2.455 2.03-4.416 4.5-4.416.636 0 1.244.13 1.795.365a.75.75 0 1 1-.59 1.38 3.06 3.06 0 0 0-1.205-.245Zm4.307 3.081L9.5 17l-.557-.502a.75.75 0 0 1 1.114 0ZM9.5 17l-.558-.502v.001l-.002.002-.004.004-.014.017a8.955 8.955 0 0 0-.233.272 13.15 13.15 0 0 0-.548.705c-.198.276-.41.596-.574.916-.152.296-.317.69-.317 1.085 0 1.274 1.113 2.25 2.25 2.25s2.25-.976 2.25-2.25c0-.395-.165-.79-.317-1.085a7.47 7.47 0 0 0-.574-.916 13.206 13.206 0 0 0-.78-.977l-.015-.017-.005-.004v-.002h-.001L9.5 17Zm0 1.184a7.989 7.989 0 0 0-.141.192c-.177.245-.34.498-.458.725a2.021 2.021 0 0 0-.124.286.507.507 0 0 0-.027.113c0 .393.387.75.75.75s.75-.357.75-.75a.494.494 0 0 0-.027-.113 2.017 2.017 0 0 0-.124-.286 6.004 6.004 0 0 0-.458-.725 7.989 7.989 0 0 0-.141-.192Z" fill="#151E28"/></svg>