<svg viewBox="0 0 24 24" fill="none" xmlns="http://www.w3.org/2000/svg"><path d="M14.596 19.803a7 7 0 1 1-1.62-11.108c.267.144.628.113.942.037.419-.1.883-.037 1.188.268l.5.5c.25.25.348.614.277.96-.082.407-.16.912-.078 1.063a7.003 7.003 0 0 1-1.21 8.28Z" fill="#636F7E" fill-opacity=".16"/><path fill-rule="evenodd" clip-rule="evenodd" d="M15.232 1.3a.75.75 0 0 0-.428.424 4.452 4.452 0 0 1-.486.893l-.125.18c-.14.2-.303.432-.425.66-.181.34-.309.729-.31 1.216-.002.468.113.984.34 1.59a.75.75 0 0 0 1.405-.526c-.191-.51-.246-.838-.245-1.06 0-.202.047-.351.134-.515.075-.14.16-.262.279-.43l.188-.271c.057-.084.115-.173.175-.269.083.118.161.252.232.401.214.453.312.956.286 1.359a.75.75 0 0 0 1.497.096c.044-.686-.118-1.442-.427-2.095-.306-.648-.799-1.284-1.489-1.625a.75.75 0 0 0-.601-.028Zm4.798 3.17a.75.75 0 0 1 0 1.06l-2.736 2.736a.75.75 0 0 1-1.06-1.06l2.735-2.736a.75.75 0 0 1 1.06 0Zm-5.454 5.06.5.5a.309.309 0 0 1 .072.281 7.396 7.396 0 0 0-.111.702 2.69 2.69 0 0 0-.015.366c.004.095.017.303.124.501a6.25 6.25 0 1 1-2.526-2.526c.527.285 1.13.19 1.474.107.256-.061.42.007.482.069Zm1.56-.56-.5-.5c-.547-.548-1.312-.607-1.893-.467a1.34 1.34 0 0 1-.31.043.282.282 0 0 1-.1-.012h-.001a7.75 7.75 0 1 0 3.19 3.238c0-.028.003-.065.007-.11.016-.16.05-.359.09-.553a1.808 1.808 0 0 0-.482-1.64Z" fill="#151E28"/></svg>