<svg viewBox="0 0 24 24" fill="none" xmlns="http://www.w3.org/2000/svg"><path fill-rule="evenodd" clip-rule="evenodd" d="M14 2H8c-.932 0-1.398 0-1.765.152a2 2 0 0 0-1.083 1.083C5 3.602 5 4.068 5 5c0 .932 0 1.398.152 1.765a2 2 0 0 0 1.083 1.083C6.602 8 7.068 8 8 8h6c.932 0 1.398 0 1.765-.152a2 2 0 0 0 1.083-1.083C17 6.398 17 5.932 17 5c0-.932 0-1.398-.152-1.765a2 2 0 0 0-1.083-1.083C15.398 2 14.932 2 14 2Zm-1 18v-2a2 2 0 1 0-4 0v2a2 2 0 1 0 4 0Z" fill="#636F7E" fill-opacity=".16"/><path fill-rule="evenodd" clip-rule="evenodd" d="M7.975 1.25h6.05c.445 0 .816 0 1.12.02.318.022.617.07.907.19a2.75 2.75 0 0 1 1.489 1.488c.12.29.167.59.188.907.009.12.014.252.017.395H19A2.75 2.75 0 0 1 21.75 7v3A2.75 2.75 0 0 1 19 12.75h-6c-.69 0-1.25.56-1.25 1.25v1.354a2.75 2.75 0 0 1 2 2.646v2a2.75 2.75 0 1 1-5.5 0v-2a2.75 2.75 0 0 1 2-2.646V14A2.75 2.75 0 0 1 13 11.25h6c.69 0 1.25-.56 1.25-1.25V7c0-.69-.56-1.25-1.25-1.25h-1.255a8.433 8.433 0 0 1-.016.395 2.822 2.822 0 0 1-.188.907 2.75 2.75 0 0 1-1.489 1.489c-.29.12-.59.167-.907.188-.304.021-.675.021-1.12.021h-6.05c-.445 0-.816 0-1.12-.02a2.823 2.823 0 0 1-.907-.19 2.75 2.75 0 0 1-1.489-1.488c-.12-.29-.167-.59-.188-.907-.021-.304-.021-.675-.021-1.12v-.05c0-.445 0-.816.02-1.12a2.84 2.84 0 0 1 .19-.907 2.75 2.75 0 0 1 1.488-1.489c.29-.12.59-.167.907-.188.304-.021.675-.021 1.12-.021ZM16.25 5c0-.476 0-.796-.017-1.043-.017-.241-.046-.358-.078-.435a1.25 1.25 0 0 0-.677-.677c-.077-.032-.194-.061-.435-.078A17.091 17.091 0 0 0 14 2.75H8c-.476 0-.796 0-1.043.017-.241.017-.358.046-.435.078a1.25 1.25 0 0 0-.677.677c-.032.077-.061.194-.078.435A17.09 17.09 0 0 0 5.75 5c0 .476 0 .796.017 1.043.017.241.046.358.078.435.127.307.37.55.677.677.077.032.194.061.435.078.247.017.567.017 1.043.017h6c.476 0 .796 0 1.043-.017.241-.017.358-.046.435-.078.307-.127.55-.37.677-.677.032-.077.061-.194.078-.435.017-.247.017-.567.017-1.043ZM11 16.75c-.69 0-1.25.56-1.25 1.25v2a1.25 1.25 0 1 0 2.5 0v-2c0-.69-.56-1.25-1.25-1.25Z" fill="#151E28"/></svg>