<svg viewBox="0 0 24 24" fill="none" xmlns="http://www.w3.org/2000/svg"><path fill-rule="evenodd" clip-rule="evenodd" d="M12.134 18.866 18.6 12.4c.1-.1-.002-.266-.137-.222-.767.254-1.225.394-1.693.478a8 8 0 0 1-1.584.124c-.577-.012-1.153-.108-2.305-.3L6.79 11.465A5.496 5.496 0 0 0 2 13l-.08.073a2 2 0 0 0 .119.537c.174.468.615.86 1.498 1.645l4.208 3.74c.794.706 1.19 1.059 1.635 1.183a2 2 0 0 0 1.19-.035c.437-.15.813-.526 1.564-1.277Zm9.582-.006-.514-.857c-.302-.503-.453-.754-.624-.875a1 1 0 0 0-1.156 0c-.172.121-.322.372-.624.875l-.514.857-.002.003a2 2 0 0 0 1.082 2.925l.003.001h.001a2 2 0 0 0 1.264 0l.004-.001a2 2 0 0 0 1.082-2.925l-.002-.003Z" fill="#636F7E" fill-opacity=".16"/><path fill-rule="evenodd" clip-rule="evenodd" d="M11.185 2.148a2.75 2.75 0 0 1 1.637-.049c.35.098.646.278.937.498.278.21.594.491.972.827l.022.02 4.209 3.74.023.022c.422.374.772.686 1.036.963.275.289.506.59.643.96a2.75 2.75 0 0 1 .052 1.76c-.115.377-.328.692-.585.996-.248.292-.58.624-.978 1.023l-.022.022-6.467 6.467-.02.02c-.359.358-.658.658-.923.884-.277.236-.563.433-.906.551a2.75 2.75 0 0 1-1.637.048c-.35-.098-.646-.277-.937-.497-.278-.21-.594-.491-.972-.828l-.022-.02-4.209-3.74-.023-.02a18.434 18.434 0 0 1-1.036-.964c-.275-.29-.506-.59-.643-.96a2.75 2.75 0 0 1-.052-1.76c.115-.378.328-.692.585-.996.248-.293.58-.624.978-1.023l.022-.022 6.467-6.467.02-.02c.359-.358.658-.658.923-.884.277-.236.563-.433.906-.551Zm1.233 1.396a1.25 1.25 0 0 0-.744.022c-.094.032-.214.098-.422.275-.214.182-.471.439-.855.823l-6.213 6.213a6.243 6.243 0 0 1 2.73-.152l6.09 1.015c1.173.196 1.688.28 2.198.29.48.01.962-.027 1.435-.112.476-.086.945-.236 1.951-.571.161-.166.291-.305.397-.43.197-.233.266-.366.296-.466a1.25 1.25 0 0 0-.023-.8c-.036-.098-.113-.227-.323-.448-.216-.226-.519-.496-.97-.897l-4.208-3.741a16.67 16.67 0 0 0-.903-.772c-.217-.164-.341-.223-.436-.25Zm4.062 9.915a8.75 8.75 0 0 1-1.31.071c-.631-.013-1.257-.118-2.35-.3l-.063-.01-6.09-1.015a4.746 4.746 0 0 0-3.93 1.13l.005.014c.036.098.113.227.323.447.216.227.519.497.97.898l4.208 3.74c.406.361.678.602.903.772.217.165.341.223.436.25.245.068.504.06.744-.022.094-.032.214-.098.422-.275.214-.182.471-.439.855-.823l4.877-4.876Zm2.508 3.057a1.75 1.75 0 0 1 2.024 0c.195.138.336.32.447.482.11.16.234.365.375.6l.011.02.514.857.002.003a2.75 2.75 0 0 1-1.487 4.021l-.004.001h-.001a2.75 2.75 0 0 1-1.738 0h-.005a2.75 2.75 0 0 1-1.487-4.022l.002-.004.514-.857.011-.019c.141-.235.265-.44.375-.6.111-.163.252-.344.447-.482Zm.875 1.218a.982.982 0 0 0-.086.113c-.08.117-.18.282-.336.542l-.514.857-.002.003a1.25 1.25 0 0 0 .677 1.828h.003c.256.086.534.086.79 0h.003a1.25 1.25 0 0 0 .677-1.829l-.002-.002-.514-.857c-.156-.26-.255-.425-.336-.542a.982.982 0 0 0-.086-.113.25.25 0 0 0-.274 0Z" fill="#151E28"/></svg>