<svg viewBox="0 0 24 24" fill="none" xmlns="http://www.w3.org/2000/svg"><path fill-rule="evenodd" clip-rule="evenodd" d="M18 7a2 2 0 1 0 0-4 2 2 0 0 0 0 4ZM6 21a2 2 0 1 0 0-4 2 2 0 0 0 0 4Z" fill="#636F7E" fill-opacity=".16"/><path fill-rule="evenodd" clip-rule="evenodd" d="M18 3.75a1.25 1.25 0 1 0 0 2.5 1.25 1.25 0 0 0 0-2.5ZM15.25 5a2.75 2.75 0 1 1 5.5 0 2.75 2.75 0 0 1-5.5 0Zm-7.75.75a2.75 2.75 0 0 0 0 5.5h9a4.25 4.25 0 0 1 0 8.5H8.646a2.751 2.751 0 1 1 0-1.5H16.5a2.75 2.75 0 1 0 0-5.5h-9a4.25 4.25 0 0 1 0-8.5H12a.75.75 0 0 1 0 1.5H7.5ZM7.25 19a1.25 1.25 0 1 0-2.5 0 1.25 1.25 0 0 0 2.5 0Z" fill="#151E28"/></svg>