<svg viewBox="0 0 24 24" fill="none" xmlns="http://www.w3.org/2000/svg"><path d="M20 13a5 5 0 0 0-8-4 5 5 0 0 0-8 4c0 7 8 8 8 8s8-1 8-8Z" fill="#636F7E" fill-opacity=".16"/><path fill-rule="evenodd" clip-rule="evenodd" d="M6.19 3.447a.75.75 0 0 1 .604-.778c1.239-.243 2.564.057 3.64.698 1.08.64 1.984 1.668 2.295 2.957a.75.75 0 1 1-1.458.352c-.197-.815-.792-1.538-1.603-2.02a3.986 3.986 0 0 0-1.938-.57c.015.196.033.364.062.532.056.32.156.651.382 1.143a.75.75 0 1 1-1.363.625c-.267-.581-.413-1.037-.496-1.51-.07-.396-.091-.795-.115-1.242l-.01-.187Zm10.315 0a.75.75 0 0 0-.604-.778c-.886-.174-1.812-.069-2.654.233a.75.75 0 0 0 .505 1.412 3.806 3.806 0 0 1 1.212-.228 5.373 5.373 0 0 1-.062.532c-.056.32-.156.651-.382 1.143a.75.75 0 1 0 1.364.625c.267-.581.413-1.037.495-1.51.07-.396.091-.795.116-1.242l.01-.187ZM4.75 13a4.25 4.25 0 1 1 6.8 3.4.75.75 0 0 0 .9 1.2 5.742 5.742 0 0 0 2.3-4.6 5.73 5.73 0 0 0-1.5-3.874 4.25 4.25 0 0 1 6 3.874c0 3.144-1.77 4.932-3.618 5.971-.93.524-1.868.847-2.578 1.04a11.064 11.064 0 0 1-1.054.231l-.206-.036c-.202-.038-.495-.1-.848-.195a11.415 11.415 0 0 1-2.578-1.04C6.519 17.931 4.75 16.144 4.75 13ZM9 7.25a5.73 5.73 0 0 1 3 .844A5.75 5.75 0 0 1 20.75 13c0 3.856-2.23 6.069-4.382 7.279-1.07.601-2.132.965-2.922 1.18a12.604 12.604 0 0 1-1.242.27l-.078.01-.022.004h-.007l-.002.001h-.001L12 21l-.094.744h-.003l-.007-.001-.022-.003a8.76 8.76 0 0 1-.356-.06 12.604 12.604 0 0 1-.964-.222 12.914 12.914 0 0 1-2.922-1.18C5.481 19.069 3.25 16.857 3.25 13A5.75 5.75 0 0 1 9 7.25ZM12 21l.093.744a.742.742 0 0 1-.186 0L12 21Z" fill="#151E28"/></svg>