<svg viewBox="0 0 24 24" fill="none" xmlns="http://www.w3.org/2000/svg"><path d="M5.22 18.778c2.734 2.734 7.073 2.827 9.692.208 2.619-2.619 1.081-6.03 3.847-8.797 1.31-1.31 1.263-3.479-.103-4.846-1.367-1.367-3.537-1.413-4.846-.104-2.766 2.766-6.179 1.229-8.797 3.848-2.62 2.619-2.526 6.958.208 9.691Z" fill="#636F7E" fill-opacity=".16"/><path fill-rule="evenodd" clip-rule="evenodd" d="M21.307 3.752a.75.75 0 0 0-1.06-1.06L18.61 4.328c-1.633-1.152-3.886-1.064-5.33.38-1.205 1.205-2.535 1.484-4.063 1.773l-.114.022c-1.478.279-3.164.597-4.62 2.053-2.934 2.933-2.798 7.748.207 10.753s7.82 3.14 10.752.208c1.457-1.457 1.775-3.144 2.054-4.621l.021-.114c.29-1.528.569-2.858 1.773-4.063 1.444-1.444 1.533-3.697.381-5.33l1.636-1.637Zm-3.78 1.66-.816.815a.75.75 0 1 0 1.06 1.06l.816-.814c.607 1.048.47 2.358-.358 3.186-1.562 1.561-1.897 3.32-2.185 4.844-.293 1.548-.537 2.828-1.662 3.953-2.305 2.305-6.169 2.254-8.631-.208-2.463-2.463-2.513-6.326-.208-8.63 1.125-1.126 2.404-1.37 3.952-1.663 1.525-.288 3.283-.624 4.845-2.185.828-.828 2.138-.965 3.186-.358Z" fill="#151E28"/></svg>