<svg viewBox="0 0 24 24" fill="none" xmlns="http://www.w3.org/2000/svg"><path fill-rule="evenodd" clip-rule="evenodd" d="m4.598 15.495.597 1.494c.29.726.436 1.09.679 1.356a2 2 0 0 0 .78.529c.339.126.73.126 1.512.126h7.667c.783 0 1.174 0 1.512-.126a2 2 0 0 0 .781-.529c.243-.267.388-.63.678-1.356l.598-1.494c.22-.548.329-.822.357-1.102a2 2 0 0 0-.063-.739c-.076-.271-.23-.522-.54-1.025l-5.793-9.415c-.451-.732-.677-1.099-.967-1.224a1 1 0 0 0-.793 0c-.29.125-.515.492-.966 1.224L4.844 12.63c-.31.503-.464.754-.54 1.025a2 2 0 0 0-.063.739c.028.28.138.554.357 1.102ZM12 14a2 2 0 1 0 0-4 2 2 0 0 0 0 4Z" fill="#636F7E" fill-opacity=".16"/><path fill-rule="evenodd" clip-rule="evenodd" d="M12.694 1.302a1.75 1.75 0 0 0-1.388 0c-.327.14-.552.39-.725.623-.17.226-.355.526-.565.868l-.018.028-5.793 9.415-.046.075c-.265.43-.473.767-.577 1.142a2.75 2.75 0 0 0-.088 1.015c.04.388.187.756.375 1.223l.032.082.598 1.494.044.11c.246.618.44 1.103.776 1.473.11.12.23.231.359.33A2.25 2.25 0 0 0 7.5 22.75h9a2.25 2.25 0 0 0 1.822-3.57c.129-.099.25-.21.359-.33.336-.37.53-.855.776-1.473l.044-.11.597-1.494.033-.082c.188-.467.335-.835.374-1.223a2.75 2.75 0 0 0-.087-1.015c-.104-.375-.312-.713-.577-1.142l-.046-.075-5.794-9.415-.017-.028c-.21-.342-.395-.642-.565-.868-.173-.232-.399-.482-.725-.623Zm3.143 18.448h.663a.75.75 0 1 1 0 1.5h-9a.75.75 0 0 1 0-1.5h8.337Zm-.004-1.5c.842 0 1.069-.011 1.25-.079a1.25 1.25 0 0 0 .488-.33c.13-.143.224-.349.537-1.13l.598-1.495c.235-.588.292-.748.307-.899a1.249 1.249 0 0 0-.04-.461c-.04-.146-.123-.294-.456-.834L12.75 3.65v5.704a2.751 2.751 0 1 1-1.5 0V3.65l-5.768 9.372c-.332.54-.415.688-.456.834a1.25 1.25 0 0 0-.04.461c.016.15.073.31.308.9l.598 1.493c.312.782.407.988.537 1.13.134.148.301.262.488.331.18.068.407.08 1.25.08h7.666ZM12 10.75a1.25 1.25 0 1 0 0 2.5 1.25 1.25 0 0 0 0-2.5Z" fill="#151E28"/></svg>