<svg viewBox="0 0 24 24" fill="none" xmlns="http://www.w3.org/2000/svg"><path d="m4 20 .57-2.28c.16-.64.24-.96.369-1.259a3.99 3.99 0 0 1 .425-.75c.19-.265.423-.498.89-.965L10.5 10.5l3 3-4.247 4.247c-.466.466-.7.7-.963.889a3.998 3.998 0 0 1-.751.425c-.299.129-.619.209-1.259.369L4 20Z" fill="#636F7E" fill-opacity=".16"/><path fill-rule="evenodd" clip-rule="evenodd" d="M2.53 1.47a.75.75 0 0 0-1.06 1.06l7.97 7.97-3.717 3.716-.044.044c-.425.425-.698.699-.924 1.012-.2.279-.37.578-.505.892-.153.355-.247.73-.392 1.313l-.016.06-.57 2.281a.75.75 0 0 0 .91.91l2.28-.57.06-.016c.583-.145.959-.239 1.314-.392.314-.136.613-.305.892-.505.314-.226.587-.5 1.012-.924l.044-.044L13.5 14.56l7.97 7.97a.75.75 0 1 0 1.06-1.061l-8.497-8.498-.003-.002-.002-.003-2.995-2.995-.003-.002-.002-.003L2.53 1.47Zm7.97 10.09-3.716 3.717c-.483.483-.665.668-.811.871-.137.19-.253.395-.346.61-.099.23-.164.48-.33 1.144l-.266 1.067 1.067-.267c.663-.165.914-.23 1.144-.33a3.25 3.25 0 0 0 .61-.345c.203-.146.388-.328.871-.81L12.44 13.5l-1.94-1.94Zm10.35-8.767a2.75 2.75 0 0 0-3.868.164l-.012.013-5 5a.75.75 0 0 0 1.06 1.06l5-5c.086-.085.11-.11.13-.127a1.25 1.25 0 0 1 1.68 0c.02.017.044.042.13.127.085.086.11.11.127.13a1.25 1.25 0 0 1 0 1.68 4.648 4.648 0 0 1-.127.13l-5 5a.75.75 0 1 0 1.06 1.06l5-5 .013-.012c.067-.068.12-.12.163-.168a2.75 2.75 0 0 0-.163-3.868l-.013-.012-.012-.013c-.068-.067-.12-.12-.168-.164Z" fill="#151E28"/></svg>