<svg viewBox="0 0 24 24" fill="none" xmlns="http://www.w3.org/2000/svg"><path d="M17.5 3.5 6.253 14.746c-.466.467-.7.7-.889.964a4.003 4.003 0 0 0-.425.751c-.129.299-.209.619-.369 1.259L4 20l2.28-.57c.64-.16.96-.24 1.259-.369.265-.114.517-.257.75-.425.265-.19.498-.423.964-.89L20.5 6.5c.08-.08.12-.12.151-.155a2 2 0 0 0 0-2.69A4.899 4.899 0 0 0 20.5 3.5c-.08-.08-.12-.12-.155-.152a2 2 0 0 0-2.69 0 5.431 5.431 0 0 0-.155.152Z" fill="#636F7E" fill-opacity=".16"/><path fill-rule="evenodd" clip-rule="evenodd" d="M18.16 3.904a1.25 1.25 0 0 1 1.68 0c.02.017.044.04.13.127l.127.128a1.25 1.25 0 0 1 0 1.682 4.632 4.632 0 0 1-.127.129L8.723 17.216c-.483.484-.668.665-.871.811-.19.137-.395.253-.61.346-.23.099-.48.164-1.144.33l-1.067.266.267-1.067c.165-.663.23-.914.33-1.144a3.25 3.25 0 0 1 .345-.61c.146-.203.328-.388.81-.871L18.03 4.031c.086-.086.11-.11.13-.127Zm2.69-1.11a2.75 2.75 0 0 0-3.868.163l-.012.013L5.723 14.216l-.044.044c-.425.425-.698.699-.924 1.013-.2.278-.37.577-.505.891-.153.355-.247.731-.392 1.314l-.016.06-.57 2.28a.75.75 0 0 0 .91.91l2.28-.57.06-.015c.583-.146.959-.24 1.314-.393.314-.136.613-.305.892-.505.314-.226.587-.5 1.012-.924l.044-.044L21.03 7.031l.013-.013c.067-.067.12-.12.163-.168a2.75 2.75 0 0 0-.163-3.867l-.013-.013-.012-.013c-.068-.067-.12-.119-.168-.163ZM10 20.25a.75.75 0 0 0 0 1.5h10a.75.75 0 0 0 0-1.5H10Z" fill="#151E28"/></svg>