<svg viewBox="0 0 24 24" fill="none" xmlns="http://www.w3.org/2000/svg"><path fill-rule="evenodd" clip-rule="evenodd" d="m18.059 16.91.633-1.48c.308-.718.463-1.078.48-1.438a2 2 0 0 0-.178-.927c-.15-.328-.427-.604-.98-1.158l-5.421-5.421c-.554-.553-.83-.83-1.159-.98a2 2 0 0 0-.926-.178c-.36.017-.72.171-1.439.48L7.59 6.44c-.542.233-.813.349-1.031.527a2 2 0 0 0-.478.567c-.138.245-.206.532-.343 1.106l-2.56 10.754c-.2.837-.3 1.256-.183 1.55a1 1 0 0 0 .56.56c.294.116.712.017 1.55-.183l10.753-2.56c.575-.137.862-.205 1.107-.343a2 2 0 0 0 .567-.478c.178-.218.294-.49.527-1.031Zm-6.292-4.178a2 2 0 1 0-2.828 2.829 2 2 0 0 0 2.828-2.829Z" fill="#636F7E" fill-opacity=".16"/><path fill-rule="evenodd" clip-rule="evenodd" d="M20.076 11.848a.75.75 0 0 1-1.06 0l-.197-.196-.19-.19-.085-.085-5.421-5.421-.084-.084c-.066-.066-.129-.13-.191-.19l-.197-.198a.75.75 0 1 1 1.061-1.06l6.364 6.364a.75.75 0 0 1 0 1.06Zm-9.116-7.25a2.25 2.25 0 0 1 3.813-1.236l6.364 6.365A2.25 2.25 0 0 1 19.9 13.54c.021.161.028.324.02.488-.024.498-.23.978-.492 1.589l-.047.11-.634 1.478-.035.081c-.198.463-.354.828-.6 1.13a2.748 2.748 0 0 1-.78.656c-.34.191-.725.283-1.215.4l-.086.02-10.754 2.56-.032.008c-.39.093-.733.174-1.013.215-.287.04-.623.058-.954-.073a1.75 1.75 0 0 1-.981-.981c-.131-.33-.114-.667-.073-.954.04-.28.122-.622.215-1.013l.008-.032 2.56-10.754.02-.086c.117-.49.209-.876.4-1.215a2.75 2.75 0 0 1 .657-.78c.301-.246.666-.402 1.129-.6l.081-.035 1.479-.634.109-.047c.611-.262 1.09-.468 1.59-.492a2.75 2.75 0 0 1 .487.02Zm.989 2.305c-.505-.502-.662-.64-.826-.714a1.25 1.25 0 0 0-.579-.112c-.193.01-.405.088-1.18.42l-1.478.634c-.583.25-.736.322-.853.418a1.25 1.25 0 0 0-.298.354c-.075.132-.12.295-.267.912l-2.55 10.706 4.034-4.033a2.751 2.751 0 1 1 1.06 1.06L4.98 20.581l10.706-2.549c.616-.146.78-.192.911-.267a1.24 1.24 0 0 0 .355-.298c.096-.117.169-.27.418-.853l.634-1.479c.332-.774.41-.986.42-1.18a1.24 1.24 0 0 0-.112-.578c-.075-.164-.212-.321-.715-.826L11.95 6.903Zm-2.47 8.137a1.25 1.25 0 1 0 1.748-1.787A1.25 1.25 0 0 0 9.48 15.04Z" fill="#151E28"/></svg>