<svg viewBox="0 0 24 24" fill="none" xmlns="http://www.w3.org/2000/svg"><path d="M18.865 14.473 19 14h-.394A11.91 11.91 0 0 1 12 12l-.82 1.64a6 6 0 0 1-3.718 3.085l-3.222.92A1.71 1.71 0 0 0 4.71 21h5.501a9 9 0 0 0 8.654-6.527Z" fill="#636F7E" fill-opacity=".16"/><path fill-rule="evenodd" clip-rule="evenodd" d="M17.53 1.47a.75.75 0 0 0-1.06 1.06c.85.85 1.03 1.656 1.03 2.22a2.568 2.568 0 0 1-.157.882.96.96 0 0 1-.016.036l-.001.003a.75.75 0 0 0-.04.096c-1.12-.293-2.087-.246-2.903.03a4.428 4.428 0 0 0-1.896 1.283 5.9 5.9 0 0 0-.938 1.46 5.941 5.941 0 0 0-.268.71l-.004.014-.001.005v.002c-.001.001-.001.001.723.196l-.724-.195a.75.75 0 0 0 .77.943l2.183-.13.954 1.651a.75.75 0 0 0 1.024.275l1.652-.954 1.826 1.205a.75.75 0 0 0 1.138-.431l-.725-.195.725.194v-.003l.002-.005.004-.015.006-.024.005-.022.034-.159a6.16 6.16 0 0 0 .077-.543 5.9 5.9 0 0 0-.081-1.733 4.428 4.428 0 0 0-1.001-2.059 4.474 4.474 0 0 0-1.188-.95 1.778 1.778 0 0 0 .055-.128c.032-.08.072-.19.111-.327.078-.272.154-.654.154-1.112 0-.936-.32-2.13-1.47-3.28Zm.446 4.518-.647-.323v.001l-.001.001-.001.003-.002.002.004-.007.647.323ZM13.19 8.644c.116-.189.255-.383.419-.569a2.93 2.93 0 0 1 1.254-.857c.516-.174 1.19-.228 2.076.009.886.237 1.443.621 1.802 1.03.363.414.56.893.658 1.37.05.242.072.48.079.701l-1.18-.778a.75.75 0 0 0-.788-.024l-1.404.81-.81-1.403a.75.75 0 0 0-.695-.374l-1.411.085Zm-.855 2.685a.75.75 0 0 1 .336 1.006l-.82 1.64a6.75 6.75 0 0 1-4.183 3.471l-3.222.92a.96.96 0 0 0 .264 1.884h5.501a8.25 8.25 0 0 0 7.933-5.983l.135-.473a.75.75 0 1 1 1.442.412l-.135.473a9.75 9.75 0 0 1-9.375 7.071H4.71a2.46 2.46 0 0 1-.676-4.826l3.222-.92a5.25 5.25 0 0 0 3.253-2.7l.82-1.64a.75.75 0 0 1 1.006-.335Z" fill="#151E28"/></svg>