<svg viewBox="0 0 24 24" fill="none" xmlns="http://www.w3.org/2000/svg"><circle cx="14" cy="4" r="2" fill="#636F7E" fill-opacity=".16"/><path fill-rule="evenodd" clip-rule="evenodd" d="M14 2.75a1.25 1.25 0 1 0 0 2.5 1.25 1.25 0 0 0 0-2.5ZM11.25 4a2.75 2.75 0 1 1 5.5 0 2.75 2.75 0 0 1-5.5 0Zm1.202 5.765a.755.755 0 0 1-.031.07l-.304.608a3.25 3.25 0 0 0 .877 3.991l1.337 1.07a4.75 4.75 0 0 1 1.69 2.778l.714 3.57a.75.75 0 1 1-1.47.295l-.715-3.571a3.25 3.25 0 0 0-1.156-1.9l-1.338-1.07a4.75 4.75 0 0 1-1.437-5.488l-.307.077a3.25 3.25 0 0 0-2.295 2.125l-.305.917a.75.75 0 0 1-1.424-.474l.306-.917A4.75 4.75 0 0 1 9.948 8.74l1-.25a8.041 8.041 0 0 1 1.95-.24c1.578 0 2.98 1.01 3.478 2.507l.089.266c.125.376.337.718.617.998l.448.449a.75.75 0 1 1-1.06 1.06l-.449-.448a4.053 4.053 0 0 1-.98-1.585l-.088-.265a2.167 2.167 0 0 0-2.055-1.482 6.6 6.6 0 0 0-.446.015Zm-2.215 5.524a.75.75 0 0 1 .474.948l-.7 2.104a4.75 4.75 0 0 1-1.148 1.857L6.53 22.53a.75.75 0 0 1-1.06-1.06l2.332-2.333a3.25 3.25 0 0 0 .785-1.27l.701-2.104a.75.75 0 0 1 .95-.474Z" fill="#151E28"/></svg>