<svg viewBox="0 0 24 24" fill="none" xmlns="http://www.w3.org/2000/svg"><path fill-rule="evenodd" clip-rule="evenodd" d="M18.385 16.849a2 2 0 0 0 2.828 0 4 4 0 1 0-5.657-5.657 2 2 0 0 0 0 2.829l2.829 2.828Zm-9.9-2.828a2 2 0 0 0 0-2.829 4 4 0 0 0-5.657 5.657 2 2 0 0 0 2.829 0l2.828-2.828Z" fill="#636F7E" fill-opacity=".16"/><path fill-rule="evenodd" clip-rule="evenodd" d="M20.693 11.733a1.01 1.01 0 0 1-.01-.01l-.028-.028a3.25 3.25 0 0 0-4.569.028 1.25 1.25 0 0 0 0 1.767l2.829 2.829a1.25 1.25 0 0 0 1.768 0 3.25 3.25 0 0 0 .01-4.586Zm-3.296-2.359a12.283 12.283 0 0 0-10.753 0 4.728 4.728 0 0 1 2.371 1.288 2.75 2.75 0 0 1 0 3.89L6.188 17.38a2.75 2.75 0 0 1-3.889 0 4.75 4.75 0 0 1-.012-6.706l.012-.012c5.358-5.358 14.037-5.37 19.41-.035l.035.035a4.75 4.75 0 0 1 0 6.717 2.75 2.75 0 0 1-3.889 0l-2.828-2.828a2.75 2.75 0 0 1 0-3.889 4.728 4.728 0 0 1 2.371-1.288ZM7.955 13.49a1.25 1.25 0 0 0 0-1.767 3.25 3.25 0 0 0-4.596 4.596 1.25 1.25 0 0 0 1.767 0l2.829-2.829Z" fill="#151E28"/></svg>