<svg viewBox="0 0 24 24" fill="none" xmlns="http://www.w3.org/2000/svg"><path fill-rule="evenodd" clip-rule="evenodd" d="M18.385 11.849a2 2 0 0 0 2.828 0 4 4 0 1 0-5.657-5.657 2 2 0 0 0 0 2.829l2.829 2.828Zm-9.9-2.828a2 2 0 0 0 0-2.829 4 4 0 1 0-5.657 5.657 2 2 0 0 0 2.829 0l2.828-2.828Z" fill="#636F7E" fill-opacity=".16"/><path fill-rule="evenodd" clip-rule="evenodd" d="m20.683 6.723.01.01a3.25 3.25 0 0 1-.01 4.586 1.25 1.25 0 0 1-1.768 0L16.087 8.49a1.25 1.25 0 0 1 0-1.767 3.25 3.25 0 0 1 4.568-.028l.028.028ZM6.645 4.374a12.283 12.283 0 0 1 10.753 0 4.728 4.728 0 0 0-2.372 1.288 2.75 2.75 0 0 0 0 3.89l2.829 2.828a2.75 2.75 0 0 0 3.889 0 4.75 4.75 0 0 0 0-6.718l-.036-.035C16.336.292 7.656.304 2.298 5.662l-.011.012a4.75 4.75 0 0 0 .011 6.705 2.75 2.75 0 0 0 3.89 0l2.828-2.828a2.75 2.75 0 0 0 0-3.889 4.728 4.728 0 0 0-2.371-1.288Zm1.31 2.349a1.25 1.25 0 0 1 0 1.767l-2.828 2.83a1.25 1.25 0 0 1-1.768 0 3.25 3.25 0 0 1 4.596-4.596ZM12.75 12a.75.75 0 0 0-1.5 0v6.19l-1.72-1.72a.75.75 0 0 0-1.06 1.06l3 3a.75.75 0 0 0 1.06 0l3-3a.75.75 0 0 0-1.06-1.06l-1.72 1.72V12Z" fill="#151E28"/></svg>