<svg viewBox="0 0 24 24" fill="none" xmlns="http://www.w3.org/2000/svg"><path fill-rule="evenodd" clip-rule="evenodd" d="M8 3a4 4 0 1 0 0 8 2 2 0 0 0 2-2V5a2 2 0 0 0-2-2Zm7 11a2 2 0 0 0-2 2 4 4 0 0 0 8 0 2 2 0 0 0-2-2h-4Z" fill="#636F7E" fill-opacity=".16"/><path fill-rule="evenodd" clip-rule="evenodd" d="M8 2.25A4.75 4.75 0 0 0 3.25 7c0 7.594 6.156 13.75 13.75 13.75A4.75 4.75 0 0 0 21.75 16 2.75 2.75 0 0 0 19 13.25h-4A2.75 2.75 0 0 0 12.25 16c0 .954.281 1.843.766 2.588a12.283 12.283 0 0 1-7.604-7.604A4.728 4.728 0 0 0 8 11.75 2.75 2.75 0 0 0 10.75 9V5A2.75 2.75 0 0 0 8 2.25ZM4.75 7A3.25 3.25 0 0 0 8 10.25c.69 0 1.25-.56 1.25-1.25V5c0-.69-.56-1.25-1.25-1.25A3.25 3.25 0 0 0 4.75 7Zm15.5 9a3.25 3.25 0 0 1-6.5 0c0-.69.56-1.25 1.25-1.25h4c.69 0 1.25.56 1.25 1.25ZM15 3.25a.75.75 0 0 1 .75.75v4a.75.75 0 0 1-1.5 0V4a.75.75 0 0 1 .75-.75Zm4.75.75a.75.75 0 0 0-1.5 0v4a.75.75 0 0 0 1.5 0V4Z" fill="#151E28"/></svg>