<svg viewBox="0 0 24 24" fill="none" xmlns="http://www.w3.org/2000/svg"><path fill-rule="evenodd" clip-rule="evenodd" d="M10.35 20.75C8.01 18.793 4 14.694 4 9.555c0-1.61.41-2.961 1.099-4.055L17 17.312c-1.134 1.457-2.382 2.628-3.348 3.435-.463.387-.694.58-1.102.697a2.411 2.411 0 0 1-1.1 0c-.407-.116-.638-.309-1.1-.694ZM12 13a3 3 0 0 1-2.959-3.5l3.459 3.458c-.163.027-.33.042-.5.042Z" fill="#636F7E" fill-opacity=".16"/><path fill-rule="evenodd" clip-rule="evenodd" d="M1.47 1.47a.75.75 0 0 1 1.06 0l20 20a.75.75 0 1 1-1.06 1.06l-4.27-4.27a24.009 24.009 0 0 1-3.067 3.063l-.05.042c-.421.353-.765.64-1.327.8a2.856 2.856 0 0 1-.755.093c-.241 0-.518-.024-.756-.092-.562-.16-.905-.447-1.326-.799l-.05-.041c-1.202-1.005-2.845-2.57-4.193-4.56-1.347-1.988-2.426-4.443-2.426-7.21 0-1.618.384-3.02 1.055-4.19L1.47 2.53a.75.75 0 0 1 0-1.06Zm3.944 5.005c-.418.86-.664 1.883-.664 3.08 0 2.372.925 4.536 2.168 6.37 1.242 1.834 2.774 3.297 3.914 4.25.479.4.594.483.825.549.057.016.183.034.343.034.161 0 .286-.018.344-.034.23-.066.346-.15.827-.552a22.42 22.42 0 0 0 2.964-2.977l-3.5-3.499-.01.002a3.75 3.75 0 0 1-4.322-4.322v-.012l-2.889-2.89Zm5.492 5.492-.873-.873c.204.366.507.669.873.873ZM12 7.75c-.129 0-.254.01-.376.031a.75.75 0 0 1-.248-1.48 3.75 3.75 0 0 1 4.322 4.322.75.75 0 0 1-1.48-.247A2.25 2.25 0 0 0 12 7.75ZM7.88 3.84c2.142-1.262 5.018-1.419 7.346-.445 2.287.955 4.024 2.985 4.024 6.16 0 1.652-.448 3.203-1.142 4.614a.75.75 0 1 0 1.346.662c.772-1.57 1.296-3.347 1.296-5.275 0-3.842-2.159-6.38-4.945-7.545-2.745-1.148-6.119-.976-8.686.537a.75.75 0 0 0 .762 1.292Z" fill="#151E28"/></svg>