<svg viewBox="0 0 24 24" fill="none" xmlns="http://www.w3.org/2000/svg"><path fill-rule="evenodd" clip-rule="evenodd" d="M18 8.519c0-8.692-12-8.692-12 0 0 3.624 2.577 6.57 4.353 8.17.427.385.64.577 1.069.706.298.09.858.09 1.156 0 .429-.129.642-.321 1.07-.706 1.776-1.6 4.352-4.546 4.352-8.17ZM11.8 6A1.8 1.8 0 0 0 10 7.8v.4a1.8 1.8 0 0 0 1.8 1.8h.4A1.8 1.8 0 0 0 14 8.2v-.4A1.8 1.8 0 0 0 12.2 6h-.4Z" fill="#636F7E" fill-opacity=".16"/><path fill-rule="evenodd" clip-rule="evenodd" d="M6.75 8.519c0-1.99.682-3.419 1.646-4.35C9.369 3.23 10.677 2.75 12 2.75c1.322 0 2.63.479 3.604 1.42.964.93 1.646 2.359 1.646 4.349 0 3.284-2.356 6.038-4.105 7.613-.436.392-.536.47-.783.545a1.48 1.48 0 0 1-.362.036c-.178 0-.31-.02-.361-.035-.248-.075-.348-.154-.784-.546-1.748-1.575-4.105-4.33-4.105-7.613Zm12 0c0-2.356-.818-4.187-2.104-5.429C15.369 1.857 13.677 1.25 12 1.25c-1.678 0-3.37.607-4.646 1.84C6.068 4.332 5.25 6.163 5.25 8.52c0 3.964 2.797 7.102 4.601 8.727l.039.035c.4.361.725.654 1.315.832.248.076.545.1.795.1s.547-.024.795-.1c.59-.178.915-.47 1.315-.832l.04-.035c1.803-1.625 4.6-4.763 4.6-8.727ZM9.25 7.8a2.55 2.55 0 0 1 2.55-2.55h.4a2.55 2.55 0 0 1 2.55 2.55v.4a2.55 2.55 0 0 1-2.55 2.55h-.4A2.55 2.55 0 0 1 9.25 8.2v-.4Zm2.55-1.05c-.58 0-1.05.47-1.05 1.05v.4c0 .58.47 1.05 1.05 1.05h.4c.58 0 1.05-.47 1.05-1.05v-.4c0-.58-.47-1.05-1.05-1.05h-.4Zm-6.112 8.797a.75.75 0 0 1-.39.987c-.577.251-.988.516-1.243.765-.254.247-.305.427-.305.537 0 .125.07.35.437.655.361.3.93.605 1.698.875 1.53.537 3.691.884 6.115.884 2.424 0 4.586-.347 6.115-.884.768-.27 1.337-.575 1.698-.875.366-.305.437-.53.437-.655 0-.11-.051-.29-.305-.537-.255-.25-.666-.514-1.244-.765a.75.75 0 1 1 .598-1.375c.673.292 1.262.645 1.694 1.066.434.423.757.966.757 1.61 0 .749-.433 1.356-.978 1.809-.549.457-1.299.834-2.16 1.137-1.727.607-4.065.969-6.612.969-2.547 0-4.885-.362-6.613-.97-.86-.302-1.61-.68-2.16-1.136-.544-.453-.977-1.06-.977-1.808 0-.645.323-1.188.757-1.61.432-.422 1.021-.775 1.694-1.067a.75.75 0 0 1 .987.388Z" fill="#151E28"/></svg>