<svg viewBox="0 0 24 24" fill="none" xmlns="http://www.w3.org/2000/svg"><path fill-rule="evenodd" clip-rule="evenodd" d="M20 9.555C20-.5 4-.5 4 9.555c0 5.139 4.009 9.238 6.35 11.195.462.385.693.578 1.1.695.297.084.804.084 1.1 0 .407-.117.638-.31 1.1-.695C15.992 18.793 20 14.694 20 9.555ZM11.8 7A2.8 2.8 0 0 0 9 9.8v.4a2.8 2.8 0 0 0 2.8 2.8h.4a2.8 2.8 0 0 0 2.8-2.8v-.4A2.8 2.8 0 0 0 12.2 7h-.4Z" fill="#636F7E" fill-opacity=".16"/><path fill-rule="evenodd" clip-rule="evenodd" d="M4.75 9.555c0-2.294.904-3.968 2.232-5.081 1.345-1.127 3.166-1.71 5.018-1.71 1.852 0 3.673.583 5.018 1.71 1.328 1.113 2.232 2.787 2.232 5.081 0 2.372-.925 4.536-2.168 6.37-1.242 1.834-2.774 3.297-3.913 4.25-.48.4-.594.482-.825.548a1.417 1.417 0 0 1-.344.035c-.16 0-.286-.018-.343-.035-.232-.066-.346-.148-.825-.549-1.14-.952-2.672-2.415-3.914-4.249-1.243-1.834-2.168-3.998-2.168-6.37Zm16 0c0-2.733-1.096-4.83-2.768-6.23C16.327 1.936 14.148 1.263 12 1.263s-4.327.673-5.982 2.06C4.346 4.725 3.25 6.822 3.25 9.555c0 2.768 1.079 5.222 2.426 7.211 1.348 1.99 2.991 3.555 4.194 4.56l.05.04c.42.353.763.64 1.325.8.238.068.514.092.755.092s.517-.024.756-.092c.562-.16.904-.447 1.325-.8l.05-.04c1.202-1.005 2.846-2.57 4.193-4.56 1.347-1.989 2.426-4.443 2.426-7.21ZM11.8 6.25A3.55 3.55 0 0 0 8.25 9.8v.4a3.55 3.55 0 0 0 3.55 3.55h.4a3.55 3.55 0 0 0 3.55-3.55v-.4a3.55 3.55 0 0 0-3.55-3.55h-.4ZM9.75 9.8a2.05 2.05 0 0 1 2.05-2.05h.4a2.05 2.05 0 0 1 2.05 2.05v.4a2.05 2.05 0 0 1-2.05 2.05h-.4a2.05 2.05 0 0 1-2.05-2.05v-.4Z" fill="#151E28"/></svg>