<svg viewBox="0 0 24 24" fill="none" xmlns="http://www.w3.org/2000/svg"><path fill-rule="evenodd" clip-rule="evenodd" d="M20.214 5.08a15.926 15.926 0 0 0-8.215-2.267c-3.003 0-5.813.827-8.215 2.267-.45.27-.58.854-.315 1.307l.819 1.403a15.928 15.928 0 0 1 7.71-1.977c2.797 0 5.425.717 7.712 1.977l.819-1.403c.265-.453.135-1.037-.315-1.307ZM8 14a2.5 2.5 0 1 0-2.27-3.55l1.914 3.525c.116.016.235.025.356.025Zm5 .5a2.5 2.5 0 0 1 4.108-1.915l-2.337 4.307A2.501 2.501 0 0 1 13 14.5Z" fill="#636F7E" fill-opacity=".16"/><path fill-rule="evenodd" clip-rule="evenodd" d="M10.46 20.738 3.635 8.158l-.813-1.392c-.457-.784-.25-1.834.577-2.33a16.676 16.676 0 0 1 8.6-2.373c3.144 0 6.086.866 8.6 2.374.828.495 1.036 1.545.578 2.329l-.813 1.392-6.826 12.58c-.663 1.22-2.414 1.22-3.077 0Zm8.963-13.944.458-.784c.072-.124.02-.242-.053-.287a15.176 15.176 0 0 0-7.83-2.16c-2.863 0-5.54.789-7.828 2.16-.074.045-.126.163-.054.287l.459.784a16.684 16.684 0 0 1 7.424-1.731c2.664 0 5.186.623 7.424 1.731ZM5.31 8.104l.527.97a3.25 3.25 0 1 1 3.018 5.562l2.923 5.387a.25.25 0 0 0 .44 0l1.516-2.794a3.25 3.25 0 0 1 3.091-5.697l1.86-3.428A15.185 15.185 0 0 0 12 6.563c-2.4 0-4.67.554-6.688 1.54Zm10.796 4.754a1.75 1.75 0 0 0-1.653 3.045l1.653-3.045Zm-7.977.44-1.54-2.836.01-.012a1.75 1.75 0 1 1 1.751 2.765.75.75 0 0 0-.221.083Z" fill="#151E28"/></svg>