<svg viewBox="0 0 24 24" fill="none" xmlns="http://www.w3.org/2000/svg"><path d="M5 10.2V12a7 7 0 0 0 11.899 5L8 8h-.8c-.186 0-.279 0-.357.006a2 2 0 0 0-1.837 1.837C5 9.921 5 10.014 5 10.2Z" fill="#636F7E" fill-opacity=".16"/><path fill-rule="evenodd" clip-rule="evenodd" d="M9.75 2a.75.75 0 0 0-1.5 0v3.5a.75.75 0 0 0 1.5 0V2ZM7 8.75c-.69 0-1.25.56-1.25 1.25v2a6.25 6.25 0 0 0 10.107 4.918L7.69 8.75H7Zm-.716-1.406A2.751 2.751 0 0 0 4.25 10v2a7.75 7.75 0 0 0 7 7.714V23a.75.75 0 0 0 1.5 0v-3.286a7.717 7.717 0 0 0 4.174-1.73l4.546 4.546a.75.75 0 1 0 1.06-1.06L8.535 7.474a.694.694 0 0 0-.009-.009L2.53 1.47a.75.75 0 0 0-1.06 1.06l4.814 4.814ZM11.25 8a.75.75 0 0 1 .75-.75h5A2.75 2.75 0 0 1 19.75 10v2c0 .768-.112 1.511-.321 2.214a.75.75 0 1 1-1.438-.428A6.253 6.253 0 0 0 18.25 12v-2c0-.69-.56-1.25-1.25-1.25h-5a.75.75 0 0 1-.75-.75ZM15 1.25a.75.75 0 0 1 .75.75v3.5a.75.75 0 0 1-1.5 0V2a.75.75 0 0 1 .75-.75Z" fill="#151E28"/></svg>