<svg viewBox="0 0 24 24" fill="none" xmlns="http://www.w3.org/2000/svg"><path d="M20 10.2V3H4v7.2c0 1.68 0 2.52.327 3.162a3 3 0 0 0 1.311 1.311C6.28 15 7.12 15 8.8 15h6.4c1.68 0 2.52 0 3.162-.327a3 3 0 0 0 1.311-1.311C20 12.72 20 11.88 20 10.2Z" fill="#636F7E" fill-opacity=".16"/><path fill-rule="evenodd" clip-rule="evenodd" d="M1.25 3A.75.75 0 0 1 2 2.25h20a.75.75 0 0 1 0 1.5H2A.75.75 0 0 1 1.25 3Zm3.5 3a.75.75 0 0 0-1.5 0v4.232c0 .813 0 1.469.043 2 .045.546.14 1.026.366 1.47a3.75 3.75 0 0 0 1.639 1.64c.444.226.924.32 1.47.365.531.043 1.187.043 2 .043h2.482v1.825l-4.636 2.782a.75.75 0 1 0 .772 1.286L12 18.875l4.614 2.768a.75.75 0 1 0 .772-1.286l-4.636-2.782V15.75h2.482c.813 0 1.469 0 2-.043.546-.045 1.026-.14 1.47-.366a3.75 3.75 0 0 0 1.64-1.638c.226-.445.32-.925.365-1.471.043-.531.043-1.187.043-2V6a.75.75 0 0 0-1.5 0v4.2c0 .853 0 1.447-.038 1.91-.038.453-.107.714-.207.912-.216.423-.56.767-.983.983-.198.1-.459.17-.913.207-.462.037-1.057.038-1.909.038H8.8c-.852 0-1.447 0-1.91-.038-.453-.037-.714-.107-.911-.207a2.25 2.25 0 0 1-.984-.984c-.1-.197-.17-.458-.207-.912-.037-.462-.038-1.056-.038-1.909V6Zm11.666 2.624a.75.75 0 1 0-.832-1.248l-2.488 1.659L11.53 7.47a.75.75 0 0 0-.946-.094l-3 2a.75.75 0 1 0 .832 1.248l2.488-1.659 1.566 1.565a.75.75 0 0 0 .946.094l3-2Z" fill="#151E28"/></svg>