<svg viewBox="0 0 24 24" fill="none" xmlns="http://www.w3.org/2000/svg"><path fill-rule="evenodd" clip-rule="evenodd" d="M5 8a2 2 0 0 0-2 2v6a2 2 0 0 0 2 2h2c0-.932 0-1.398.152-1.765a2 2 0 0 1 1.083-1.083C8.602 15 9.068 15 10 15h4c.932 0 1.398 0 1.765.152a2 2 0 0 1 1.083 1.083C17 16.602 17 17.068 17 18h2a2 2 0 0 0 2-2v-6a2 2 0 0 0-2-2H5Z" fill="#636F7E" fill-opacity=".16"/><path fill-rule="evenodd" clip-rule="evenodd" d="M9.2 2.25h-.03c-.535 0-.98 0-1.345.03-.38.03-.736.098-1.073.27A2.75 2.75 0 0 0 5.55 3.752c-.172.337-.24.693-.27 1.073-.03.365-.03.81-.03 1.345v1.08H5A2.75 2.75 0 0 0 2.25 10v6a2.75 2.75 0 0 0 2.063 2.663.75.75 0 1 0 .374-1.452A1.25 1.25 0 0 1 3.75 16v-6c0-.69.56-1.25 1.25-1.25h14c.69 0 1.25.56 1.25 1.25v6a1.25 1.25 0 0 1-.937 1.21.75.75 0 1 0 .374 1.453A2.75 2.75 0 0 0 21.75 16v-6A2.75 2.75 0 0 0 19 7.25h-.25V6.17c0-.535 0-.98-.03-1.345-.03-.38-.098-.736-.27-1.073a2.75 2.75 0 0 0-1.2-1.202c-.338-.172-.694-.24-1.074-.27-.365-.03-.81-.03-1.345-.03H9.2Zm8.05 5V6.2c0-.572 0-.957-.025-1.253-.023-.287-.065-.424-.111-.514a1.25 1.25 0 0 0-.547-.547c-.09-.046-.227-.088-.515-.111-.295-.024-.68-.025-1.252-.025H9.2c-.572 0-.957 0-1.253.025-.287.023-.424.065-.514.111a1.25 1.25 0 0 0-.547.547c-.046.09-.088.227-.111.514-.024.296-.025.68-.025 1.253v1.05h10.5Zm-7.275 7h4.05c.445 0 .816 0 1.12.02.318.022.617.069.907.19a2.75 2.75 0 0 1 1.489 1.488c.12.29.167.59.188.907.021.304.021.675.021 1.12v.05c0 .445 0 .816-.02 1.12a2.822 2.822 0 0 1-.19.907 2.75 2.75 0 0 1-1.488 1.489c-.29.12-.59.167-.907.188-.304.021-.675.021-1.12.021h-4.05c-.445 0-.816 0-1.12-.02a2.822 2.822 0 0 1-.907-.19 2.75 2.75 0 0 1-1.489-1.488c-.12-.29-.167-.59-.188-.907-.021-.304-.021-.675-.021-1.12v-.05c0-.445 0-.816.02-1.12a2.84 2.84 0 0 1 .19-.907 2.75 2.75 0 0 1 1.488-1.489c.29-.12.59-.167.907-.188.304-.021.675-.021 1.12-.021Zm-1.018 1.517c-.241.017-.358.046-.435.078a1.25 1.25 0 0 0-.677.677c-.032.077-.061.194-.078.435-.017.247-.017.567-.017 1.043s0 .796.017 1.043c.017.241.046.358.078.435.127.307.37.55.677.677.077.032.194.061.435.078.247.017.567.017 1.043.017h4c.476 0 .796 0 1.043-.017.241-.017.358-.046.435-.078.307-.127.55-.37.677-.677.032-.077.061-.194.078-.435.017-.247.017-.567.017-1.043s0-.796-.017-1.043c-.017-.241-.046-.358-.078-.435a1.25 1.25 0 0 0-.677-.677c-.077-.032-.194-.061-.435-.078A17.073 17.073 0 0 0 14 15.75h-4c-.476 0-.796 0-1.043.017Z" fill="#151E28"/></svg>