<svg viewBox="0 0 24 24" fill="none" xmlns="http://www.w3.org/2000/svg"><path d="M17 3H7c-.93 0-1.394 0-1.78.077A4 4 0 0 0 2.077 6.22C2 6.606 2 7.07 2 8v8c0 .93 0 1.394.077 1.78a4 4 0 0 0 3.143 3.143C5.606 21 6.07 21 7 21h10c.93 0 1.394 0 1.78-.077a4 4 0 0 0 3.143-3.143C22 17.394 22 16.93 22 16V8c0-.93 0-1.394-.077-1.78a4 4 0 0 0-3.143-3.143C18.394 3 17.93 3 17 3Z" fill="#636F7E" fill-opacity=".16"/><path fill-rule="evenodd" clip-rule="evenodd" d="M17 2.25h.095c.838 0 1.372 0 1.832.091a4.75 4.75 0 0 1 3.732 3.732c.091.46.091.994.091 1.832v8.19c0 .838 0 1.372-.091 1.832a4.75 4.75 0 0 1-3.732 3.732c-.46.091-.994.091-1.832.091H6.905c-.838 0-1.372 0-1.832-.091a4.75 4.75 0 0 1-3.732-3.732c-.091-.46-.091-.994-.091-1.832v-8.19c0-.838 0-1.372.091-1.832a4.75 4.75 0 0 1 3.732-3.732c.46-.091.994-.091 1.832-.091H17Zm1.634 1.562c-.296-.058-.669-.062-1.634-.062H7c-.965 0-1.338.004-1.634.062a3.25 3.25 0 0 0-2.554 2.554c-.058.296-.062.669-.062 1.634v8c0 .965.004 1.338.062 1.634a3.25 3.25 0 0 0 2.554 2.554c.296.058.669.062 1.634.062h10c.965 0 1.338-.004 1.634-.062a3.25 3.25 0 0 0 2.554-2.554c.058-.296.062-.669.062-1.634V8c0-.965-.004-1.338-.062-1.634a3.25 3.25 0 0 0-2.554-2.554ZM7.75 9a.75.75 0 0 0-1.5 0v.025c0 .445 0 .816.02 1.12.022.318.07.617.19.907a2.75 2.75 0 0 0 1.488 1.489c.29.12.59.167.907.188.304.021.675.021 1.12.021h.275V15a.75.75 0 0 0 1.5 0V9a.75.75 0 0 0-1.5 0v2.25H10c-.476 0-.796 0-1.043-.017-.24-.017-.358-.046-.435-.078a1.25 1.25 0 0 1-.677-.677c-.032-.077-.061-.194-.078-.435A17.083 17.083 0 0 1 7.75 9ZM14 8.25a.75.75 0 0 0-.75.75v6a.75.75 0 0 0 1.5 0v-1.19l1.72 1.72a.75.75 0 0 0 1.06-1.06L15.06 12l2.47-2.47a.75.75 0 1 0-1.06-1.06l-1.72 1.72V9a.75.75 0 0 0-.75-.75Z" fill="#151E28"/></svg>