<svg viewBox="0 0 24 24" fill="none" xmlns="http://www.w3.org/2000/svg"><path fill-rule="evenodd" clip-rule="evenodd" d="M2.204 9.447C2 10.21 2 11.14 2 13c0 1.86 0 2.79.204 3.553a6 6 0 0 0 4.243 4.243C7.21 21 8.14 21 10 21h4c1.86 0 2.79 0 3.553-.204a6 6 0 0 0 4.243-4.243C22 15.79 22 14.86 22 13c0-1.86 0-2.79-.204-3.553a6 6 0 0 0-4.243-4.243C16.79 5 15.86 5 14 5h-4c-1.86 0-2.79 0-3.553.204a6 6 0 0 0-4.243 4.243ZM8 15a2 2 0 1 1 0-4 2 2 0 0 1 0 4Z" fill="#636F7E" fill-opacity=".16"/><path fill-rule="evenodd" clip-rule="evenodd" d="M18 1.25a.75.75 0 0 1 0 1.5H9c-1.02 0-1.882.68-2.158 1.61.748-.11 1.667-.11 3.018-.11h4.28c1.727 0 2.748 0 3.607.23a6.75 6.75 0 0 1 4.773 4.773c.23.86.23 1.88.23 3.607v.28c0 1.727 0 2.748-.23 3.607a6.75 6.75 0 0 1-4.773 4.773c-.86.23-1.88.23-3.607.23H9.86c-1.727 0-2.748 0-3.607-.23a6.75 6.75 0 0 1-4.773-4.773c-.23-.86-.23-1.88-.23-3.607v-.28c0-1.726 0-2.748.23-3.607a6.75 6.75 0 0 1 3.774-4.42A3.75 3.75 0 0 1 9 1.25h9Zm-8 4.5c-1.908 0-2.715.006-3.359.179A5.25 5.25 0 0 0 2.93 9.64c-.173.644-.179 1.45-.179 3.36 0 1.907.006 2.714.179 3.358a5.25 5.25 0 0 0 3.71 3.712c.644.173 1.45.179 3.359.179h4c1.908 0 2.715-.006 3.359-.179a5.25 5.25 0 0 0 3.712-3.712c.173-.644.179-1.45.179-3.359 0-1.908-.006-2.715-.179-3.359a5.25 5.25 0 0 0-3.71-3.71c-.644-.173-1.45-.179-3.359-.179h-4Zm-2 6a1.25 1.25 0 1 1 0 2.5 1.25 1.25 0 0 1 0-2.5ZM10.75 13a2.75 2.75 0 1 0-5.5 0 2.75 2.75 0 0 0 5.5 0Zm8 2a.75.75 0 1 1-1.5 0v-4a.75.75 0 0 1 1.5 0v4ZM14 14.75a.75.75 0 0 0 .75-.75v-2a.75.75 0 0 0-1.5 0v2c0 .414.336.75.75.75Z" fill="#151E28"/></svg>