<svg viewBox="0 0 24 24" fill="none" xmlns="http://www.w3.org/2000/svg"><path d="M3 6.027v12.017A3 3 0 0 0 6.056 21h10.993c.486 0 .64-.655.206-.873a.46.46 0 0 1-.255-.412V6.027c0-1.349-1.457-2.194-2.628-1.525a1.757 1.757 0 0 1-1.744 0l-1.04-.595c-.579-.33-.868-.496-1.176-.56a2 2 0 0 0-.824 0c-.308.064-.597.23-1.176.56l-1.04.595a1.757 1.757 0 0 1-1.744 0C4.458 3.832 3 4.678 3 6.027Z" fill="#636F7E" fill-opacity=".16"/><path fill-rule="evenodd" clip-rule="evenodd" d="M10.567 2.613a2.75 2.75 0 0 0-1.134 0c-.425.09-.813.311-1.306.594l-.087.05L7 3.85c-.31.177-.69.177-1 0-1.67-.955-3.75.252-3.75 2.176v10.205c0 .813 0 1.469.043 2 .045.546.14 1.027.366 1.47a3.75 3.75 0 0 0 1.639 1.64c.444.226.924.32 1.47.365.531.043 1.187.043 2 .043H19A2.75 2.75 0 0 0 21.75 19v-1.545c0-1.099-.282-1.93-.852-2.484-.562-.546-1.277-.697-1.869-.72a.75.75 0 0 0-.058 1.499c.408.016.693.114.881.297.18.175.398.552.398 1.408V19a1.25 1.25 0 0 1-1.244 1.25h-.016A1.25 1.25 0 0 1 17.75 19V6.027c0-1.924-2.08-3.131-3.75-2.176-.31.177-.69.177-1 0l-1.04-.595-.087-.05c-.493-.282-.88-.504-1.306-.593Zm5.683 9.386V6.027c0-.773-.835-1.257-1.506-.874a2.51 2.51 0 0 1-2.488 0l-1.04-.594c-.623-.356-.794-.444-.958-.478a1.25 1.25 0 0 0-.516 0c-.164.034-.335.122-.958.478l-1.04.594a2.51 2.51 0 0 1-2.488 0 1.007 1.007 0 0 0-1.506.874V16.2c0 .853 0 1.447.038 1.91.037.453.107.714.207.912.216.423.56.767.984.983.197.1.458.17.912.207.462.038 1.057.038 1.909.038h8.75c-.192-.375-.3-.8-.3-1.25v-7Z" fill="#151E28"/></svg>