<svg viewBox="0 0 24 24" fill="none" xmlns="http://www.w3.org/2000/svg"><circle cx="12" cy="12" r="10" fill="#636F7E" fill-opacity=".16"/><path fill-rule="evenodd" clip-rule="evenodd" d="M2.75 12a9.25 9.25 0 1 1 18.5 0 9.25 9.25 0 0 1-18.5 0ZM12 1.25C6.063 1.25 1.25 6.063 1.25 12S6.063 22.75 12 22.75 22.75 17.937 22.75 12 17.937 1.25 12 1.25ZM8.743 14.104v-.005l.005-.027a8.049 8.049 0 0 1 .106-.525c.081-.348.212-.803.404-1.25.419-.972.962-1.547 1.63-1.547.38 0 .847.168 1.38.508.524.333 1.046.79 1.517 1.269.243.246.468.492.668.723H13a.75.75 0 0 0 0 1.5h3a.75.75 0 0 0 .75-.75v-3a.75.75 0 0 0-1.5 0v.89a16.129 16.129 0 0 0-.396-.417c-.515-.522-1.126-1.064-1.78-1.48-.643-.41-1.397-.743-2.185-.743-1.665 0-2.566 1.425-3.008 2.453a9.202 9.202 0 0 0-.488 1.5 9.511 9.511 0 0 0-.127.635l-.006.04-.002.013v.005L8 14l-.743-.103a.75.75 0 0 0 1.486.207Z" fill="#151E28"/></svg>