<svg viewBox="0 0 24 24" fill="none" xmlns="http://www.w3.org/2000/svg"><path fill-rule="evenodd" clip-rule="evenodd" d="M2.894 15.742a.75.75 0 0 0 .848-.635v-.001l.002-.01.008-.048c.008-.044.02-.111.038-.199a10.255 10.255 0 0 1 1.112-2.977C5.82 10.264 7.36 8.75 10 8.75c2.723 0 5.298 1.6 7.256 3.314a23.129 23.129 0 0 1 2.175 2.186H14a.75.75 0 0 0 0 1.5h7a.75.75 0 0 0 .75-.75V8a.75.75 0 0 0-1.5 0v4.914a24.386 24.386 0 0 0-2.007-1.979C16.203 9.15 13.278 7.25 10 7.25c-3.36 0-5.32 1.985-6.401 3.878a11.756 11.756 0 0 0-1.07 2.572 11.449 11.449 0 0 0-.267 1.164l-.003.02v.006l-.001.002v.001L3 15l-.742-.106a.75.75 0 0 0 .636.848Z" fill="#151E28"/></svg>