<svg viewBox="0 0 24 24" fill="none" xmlns="http://www.w3.org/2000/svg"><path fill-rule="evenodd" clip-rule="evenodd" d="M11.16 2.459C9.736 3.379 7 5.821 7 10.999c0 2.877.337 4.91.735 6.305C8.262 19.151 10.08 20 12 20c1.92 0 3.738-.849 4.264-2.696.398-1.396.736-3.428.736-6.304 0-5.179-2.737-7.62-4.16-8.541-.164-.105-.245-.158-.499-.217a2.25 2.25 0 0 0-.682 0c-.254.06-.336.112-.499.217Zm.84 9.54a2 2 0 1 0 0-4 2 2 0 0 0 0 4Z" fill="#636F7E" fill-opacity=".16"/><path fill-rule="evenodd" clip-rule="evenodd" d="M11.82 2.974a.676.676 0 0 0-.128.04 1.135 1.135 0 0 0-.124.075c-1.274.823-3.818 3.054-3.818 7.91a30.69 30.69 0 0 0 .102 2.563c.119 1.417.33 2.528.562 3.383a12.94 12.94 0 0 0 .042.153c.398 1.394 1.798 2.152 3.544 2.152s3.146-.758 3.543-2.151c.376-1.32.707-3.281.707-6.1 0-4.856-2.545-7.087-3.818-7.91a1.14 1.14 0 0 0-.124-.076.673.673 0 0 0-.128-.039h-.001a1.961 1.961 0 0 0-.359 0ZM6.25 11c0 .54.011 1.05.033 1.535-2.408 1.403-3.758 4.174-3.294 6.96l.271 1.628a.75.75 0 0 0 1.076.548l4-2a.754.754 0 0 0 .084-.05c.99.784 2.31 1.129 3.58 1.129s2.59-.345 3.58-1.128a.759.759 0 0 0 .085.049l4 2a.75.75 0 0 0 1.075-.548l.271-1.629c.464-2.785-.886-5.556-3.294-6.959.021-.484.033-.996.033-1.535 0-5.5-2.929-8.153-4.504-9.17l-.012-.009c-.073-.047-.173-.112-.293-.168a2.153 2.153 0 0 0-.43-.141A2.442 2.442 0 0 0 12 1.466c-.142 0-.348.007-.512.046a2.147 2.147 0 0 0-.43.141c-.12.056-.22.121-.292.168l-.013.008C9.178 2.847 6.25 5.5 6.25 11Zm-1.782 8.248c-.317-1.903.462-3.813 1.943-4.988a19.7 19.7 0 0 0 .546 3.046l.212 1.27-2.596 1.299-.105-.627Zm15.064 0c.317-1.903-.462-3.813-1.943-4.988a19.713 19.713 0 0 1-.546 3.042l-.212 1.275 2.596 1.298.105-.627ZM10.75 10a1.25 1.25 0 1 1 2.5 0 1.25 1.25 0 0 1-2.5 0ZM12 7.25a2.75 2.75 0 1 0 0 5.5 2.75 2.75 0 0 0 0-5.5Z" fill="#151E28"/></svg>