<svg viewBox="0 0 24 24" fill="none" xmlns="http://www.w3.org/2000/svg"><path d="M7 5.2v13.6c0 1.12 0 1.68.218 2.108a2 2 0 0 0 .874.874C8.52 22 9.08 22 10.2 22h3.6c1.12 0 1.68 0 2.108-.218a2 2 0 0 0 .874-.874C17 20.48 17 19.92 17 18.8V5.2c0-1.12 0-1.68-.218-2.108a2 2 0 0 0-.874-.874C15.48 2 14.92 2 13.8 2h-3.6c-1.12 0-1.68 0-2.108.218a2 2 0 0 0-.874.874C7 3.52 7 4.08 7 5.2Z" fill="#636F7E" fill-opacity=".16"/><path fill-rule="evenodd" clip-rule="evenodd" d="M10.2 1.25h-.03c-.535 0-.98 0-1.345.03-.38.03-.736.098-1.073.27A2.75 2.75 0 0 0 6.55 2.752c-.172.337-.24.693-.27 1.073-.03.365-.03.81-.03 1.345v13.66c0 .535 0 .98.03 1.345.03.38.098.736.27 1.073a2.75 2.75 0 0 0 1.202 1.202c.337.172.693.24 1.073.27.365.03.81.03 1.345.03h3.66c.535 0 .98 0 1.345-.03.38-.03.736-.098 1.073-.27a2.751 2.751 0 0 0 1.202-1.201c.172-.338.24-.694.27-1.074.03-.364.03-.81.03-1.345V5.17c0-.535 0-.98-.03-1.345-.03-.38-.098-.736-.27-1.073a2.75 2.75 0 0 0-1.2-1.202c-.338-.172-.694-.24-1.074-.27-.365-.03-.81-.03-1.345-.03H10.2Zm6.05 4H12a.75.75 0 0 0 0 1.5h4.25v2.5H14a.75.75 0 0 0 0 1.5h2.25v2.5H12a.75.75 0 0 0 0 1.5h4.25v2.5H14a.75.75 0 0 0 0 1.5h2.25v.05c0 .572 0 .957-.025 1.252-.023.288-.065.425-.111.515a1.25 1.25 0 0 1-.546.547c-.091.046-.228.088-.515.111-.296.024-.68.025-1.253.025h-3.6c-.572 0-.957 0-1.253-.025-.287-.023-.424-.065-.514-.111a1.25 1.25 0 0 1-.547-.547c-.046-.09-.088-.227-.111-.515-.024-.295-.025-.68-.025-1.252V5.2c0-.572 0-.957.025-1.253.023-.287.065-.424.111-.514a1.25 1.25 0 0 1 .547-.547c.09-.046.227-.088.514-.111.296-.024.68-.025 1.253-.025h3.6c.572 0 .957 0 1.252.025.288.023.425.065.516.111.235.12.426.311.546.547.046.09.088.227.111.514.024.296.025.68.025 1.253v.05Z" fill="#151E28"/></svg>