<svg viewBox="0 0 24 24" fill="none" xmlns="http://www.w3.org/2000/svg"><path fill-rule="evenodd" clip-rule="evenodd" d="M6 10a3 3 0 1 0 0-6 3 3 0 0 0 0 6Zm0 10a3 3 0 1 0 0-6 3 3 0 0 0 0 6Z" fill="#636F7E" fill-opacity=".16"/><path fill-rule="evenodd" clip-rule="evenodd" d="M3.75 7a2.25 2.25 0 1 1 4.5 0 2.25 2.25 0 0 1-4.5 0ZM6 3.25a3.75 3.75 0 1 0 2.079 6.871L10.621 12l-2.542 1.879a3.75 3.75 0 1 0 1.066 1.078l2.737-2.024 1.915 1.415 6.742 5.244a.75.75 0 0 0 .921-1.184l-6.75-5.25-.014-.011-2.354-1.74a.832.832 0 0 0-.028-.02l-3.17-2.343A3.75 3.75 0 0 0 6 3.25ZM3.75 17a2.25 2.25 0 1 1 4.5 0 2.25 2.25 0 0 1-4.5 0ZM21.46 5.592a.75.75 0 0 0-.92-1.184l-6.44 5a.75.75 0 1 0 .92 1.184l6.44-5Z" fill="#151E28"/></svg>