<svg viewBox="0 0 24 24" fill="none" xmlns="http://www.w3.org/2000/svg"><path d="M20 14.6V8.333c0-1.24 0-1.86-.136-2.368a4 4 0 0 0-2.829-2.829C16.527 3 15.907 3 14.667 3c-2.48 0-3.72 0-4.738.273a8 8 0 0 0-5.656 5.656C4 9.947 4 11.187 4 13.667V15c0 1.864 0 2.796.304 3.53a4 4 0 0 0 2.165 2.165C7.204 21 8.136 21 10 21h3.6c2.24 0 3.36 0 4.216-.436a4 4 0 0 0 1.748-1.748C20 17.96 20 16.84 20 14.6Z" fill="#636F7E" fill-opacity=".16"/><path fill-rule="evenodd" clip-rule="evenodd" d="M14.667 3.75c1.288 0 1.785.006 2.174.11a3.25 3.25 0 0 1 2.299 2.3c.105.39.111.886.111 2.174V14.6c0 1.133 0 1.937-.052 2.566-.05.62-.147 1.005-.302 1.31a3.25 3.25 0 0 1-1.42 1.42c-.305.155-.69.251-1.31.302-.63.051-1.434.052-2.566.052H10c-.942 0-1.611 0-2.138-.036-.52-.036-.845-.103-1.106-.211a3.25 3.25 0 0 1-1.759-1.76c-.108-.26-.175-.586-.21-1.105C4.75 16.61 4.75 15.942 4.75 15v-1.333c0-2.528.006-3.646.247-4.543a7.25 7.25 0 0 1 5.127-5.127c.897-.24 2.014-.247 4.543-.247Zm2.562-1.338c-.605-.162-1.317-.162-2.435-.162h-.275c-2.34 0-3.67 0-4.784.298a8.75 8.75 0 0 0-6.187 6.187C3.25 9.85 3.25 11.18 3.25 13.52v1.507c0 .91 0 1.63.04 2.213.04.596.125 1.104.322 1.578a4.75 4.75 0 0 0 2.57 2.57c.474.197.982.281 1.578.322.584.04 1.304.04 2.213.04h3.66c1.092 0 1.958 0 2.655-.057.714-.058 1.317-.18 1.869-.46a4.75 4.75 0 0 0 2.075-2.076c.281-.552.403-1.155.461-1.869.057-.697.057-1.563.057-2.655V8.206c0-1.118 0-1.83-.162-2.435a4.75 4.75 0 0 0-3.359-3.36ZM12.75 7a.75.75 0 0 0-1.5 0v4a.75.75 0 0 0 1.5 0V7Zm3 0a.75.75 0 0 0-1.5 0v4a.75.75 0 0 0 1.5 0V7ZM9 8.75a.75.75 0 0 1 .75.75V11a.75.75 0 0 1-1.5 0V9.5A.75.75 0 0 1 9 8.75Z" fill="#151E28"/></svg>