<svg viewBox="0 0 24 24" fill="none" xmlns="http://www.w3.org/2000/svg"><path d="M11.46 14h5.068c.597 0 .896 0 1.169-.05a3 3 0 0 0 1.84-1.139c.168-.221.302-.488.569-1.022.635-1.271.953-1.907 1.017-2.416a3 3 0 0 0-1.98-3.202C18.66 6 17.95 6 16.529 6H5.334l1.572 4.718c.394 1.18.59 1.77.955 2.207a3 3 0 0 0 1.203.867c.53.208 1.152.208 2.396.208Z" fill="#636F7E" fill-opacity=".16"/><path fill-rule="evenodd" clip-rule="evenodd" d="M1 2.75c.842 0 1.133.005 1.377.066a2.25 2.25 0 0 1 1.363.982c.134.212.23.486.497 1.285l.551 1.654.006.015 1.4 4.203.048.142c.315.946.541 1.626.923 2.153H6a2.75 2.75 0 1 0 0 5.5h.55a2.75 2.75 0 1 0 4.9 0h3.1a2.75 2.75 0 1 0 4.9 0H21a.75.75 0 0 0 0-1.5H6a1.25 1.25 0 0 1 0-2.5h4a.76.76 0 0 0 .153-.015c.342.015.723.015 1.157.015h5.29c.529 0 .893 0 1.235-.064a3.75 3.75 0 0 0 2.302-1.422c.21-.277.373-.603.609-1.076l.032-.064.01-.019c.309-.62.554-1.11.729-1.51.175-.4.306-.766.351-1.13a3.75 3.75 0 0 0-2.474-4.001c-.345-.122-.73-.17-1.167-.192-.435-.022-.984-.022-1.677-.022H5.874l-.214-.641-.03-.092c-.224-.672-.378-1.134-.622-1.52a3.75 3.75 0 0 0-2.272-1.638c-.444-.11-.931-.11-1.64-.109H1a.75.75 0 0 0 0 1.5Zm7.99 16h.02a1.25 1.25 0 1 1-.02 0ZM15.75 20a1.25 1.25 0 0 1 1.244-1.25h.012A1.25 1.25 0 1 1 15.75 20Zm.778-13.25c.719 0 1.229 0 1.62.02.395.02.607.06.746.108A2.25 2.25 0 0 1 20.38 9.28c-.019.146-.08.353-.238.715-.157.36-.385.816-.706 1.458-.28.56-.38.753-.495.905a2.25 2.25 0 0 1-1.381.854c-.189.035-.404.038-1.031.038H11.46c-1.308 0-1.756-.013-2.121-.156a2.25 2.25 0 0 1-.903-.65c-.251-.301-.405-.722-.818-1.963L6.374 6.75h10.154Z" fill="#151E28"/></svg>