<svg viewBox="0 0 24 24" fill="none" xmlns="http://www.w3.org/2000/svg"><path fill-rule="evenodd" clip-rule="evenodd" d="M17.47 3.47a.75.75 0 0 1 1.06 0l3 3a.75.75 0 0 1 0 1.06l-3 3a.75.75 0 1 1-1.06-1.06l1.72-1.72h-.805c-1.984 0-2.785.011-3.464.26a4.25 4.25 0 0 0-1.697 1.15c-.483.537-.79 1.276-1.528 3.118l-.06.15c-.657 1.644-1.06 2.655-1.745 3.416a5.75 5.75 0 0 1-2.296 1.554c-.96.352-2.048.352-3.82.352H2a.75.75 0 0 1 0-1.5h1.615c1.984 0 2.785-.011 3.464-.26a4.25 4.25 0 0 0 1.697-1.15c.483-.537.79-1.276 1.528-3.118l.06-.15c.657-1.644 1.06-2.655 1.745-3.416a5.75 5.75 0 0 1 2.296-1.554c.96-.353 2.048-.352 3.82-.352h.963l-1.72-1.72a.75.75 0 0 1 0-1.06ZM7.079 8.01c-.68-.249-1.48-.26-3.464-.26H2a.75.75 0 0 1 0-1.5h1.775c1.772 0 2.86 0 3.82.352a5.75 5.75 0 0 1 2.296 1.554.75.75 0 0 1-1.115 1.003A4.25 4.25 0 0 0 7.079 8.01Zm10.39 5.46a.75.75 0 0 1 1.061 0l3 3a.75.75 0 0 1 0 1.06l-3 3a.75.75 0 1 1-1.06-1.06l1.72-1.72h-.966c-1.772 0-2.86 0-3.82-.352a5.75 5.75 0 0 1-2.296-1.554.75.75 0 0 1 1.115-1.003 4.25 4.25 0 0 0 1.697 1.149c.68.249 1.48.26 3.464.26h.804l-1.72-1.72a.75.75 0 0 1 0-1.06Z" fill="#151E28"/></svg>