<svg viewBox="0 0 24 24" fill="none" xmlns="http://www.w3.org/2000/svg"><path d="M5 5.93v12.14c0 .954 0 1.431.2 1.698a1 1 0 0 0 .729.398c.332.023.733-.235 1.536-.75l10.765-6.92a.589.589 0 0 0 0-.991L7.465 4.585c-.803-.516-1.204-.775-1.536-.75a1 1 0 0 0-.73.397C5 4.5 5 4.976 5 5.931Z" fill="#636F7E" fill-opacity=".16"/><path fill-rule="evenodd" clip-rule="evenodd" d="m7.87 3.954-.028-.019c-.377-.242-.702-.451-.975-.593-.275-.143-.612-.283-.992-.256a1.75 1.75 0 0 0-1.276.697c-.228.304-.293.664-.32.972a13.64 13.64 0 0 0-.029 1.141v12.208c0 .447 0 .834.028 1.14.028.309.093.668.321.973.304.406.77.66 1.276.697.38.027.717-.113.992-.256.273-.142.598-.351.975-.593l.029-.02 9.88-6.35V20a.75.75 0 0 0 1.5 0V4a.75.75 0 0 0-1.5 0v6.305L7.87 3.954Zm-.81 1.261L17.613 12 7.06 18.784c-.414.266-.681.437-.886.544a1.026 1.026 0 0 1-.206.088.25.25 0 0 1-.16-.087 1.022 1.022 0 0 1-.036-.221c-.021-.23-.022-.547-.022-1.039V5.93c0-.492 0-.809.022-1.038a1.02 1.02 0 0 1 .037-.222.25.25 0 0 1 .159-.086c.017.004.078.022.206.088.205.107.472.277.886.543Z" fill="#151E28"/></svg>