<svg viewBox="0 0 24 24" fill="none" xmlns="http://www.w3.org/2000/svg"><path d="M18.5 5.93v12.14c0 .954 0 1.431-.2 1.698a1 1 0 0 1-.729.398c-.332.023-.733-.235-1.536-.75L5.27 12.495a.589.589 0 0 1 0-.991l10.765-6.92c.803-.516 1.204-.775 1.536-.75a1 1 0 0 1 .73.397c.199.267.199.744.199 1.699Z" fill="#636F7E" fill-opacity=".16"/><path fill-rule="evenodd" clip-rule="evenodd" d="m15.63 3.954.028-.019c.377-.242.702-.451.975-.593.274-.143.612-.283.992-.256.506.036.972.29 1.276.697.228.304.293.664.32.972.029.306.029.693.029 1.14v12.21c0 .447 0 .834-.028 1.14-.028.309-.093.668-.321.973a1.75 1.75 0 0 1-1.276.697c-.38.027-.718-.113-.992-.256-.273-.142-.598-.351-.975-.593l-.029-.02-9.879-6.35V20a.75.75 0 0 1-1.5 0V4a.75.75 0 1 1 1.5 0v6.305l9.88-6.351Zm.81 1.261L5.887 12l10.553 6.784c.414.266.681.437.886.544.128.066.189.084.206.088a.25.25 0 0 0 .16-.087c.005-.017.023-.078.036-.221.021-.23.022-.547.022-1.039V5.93c0-.492 0-.809-.022-1.038a1.017 1.017 0 0 0-.037-.222.25.25 0 0 0-.159-.086 1.02 1.02 0 0 0-.206.088c-.205.107-.472.277-.886.543Z" fill="#151E28"/></svg>