<svg viewBox="0 0 24 24" fill="none" xmlns="http://www.w3.org/2000/svg"><path fill-rule="evenodd" clip-rule="evenodd" d="M12 4.75c0-.966.784-1.75 1.75-1.75h.5c.966 0 1.75.784 1.75 1.75v.5A1.75 1.75 0 0 1 14.25 7h-.5A1.75 1.75 0 0 1 12 5.25v-.5Zm-5 7c0-.966.784-1.75 1.75-1.75h.5c.966 0 1.75.784 1.75 1.75v.5A1.75 1.75 0 0 1 9.25 14h-.5A1.75 1.75 0 0 1 7 12.25v-.5ZM13.75 17A1.75 1.75 0 0 0 12 18.75v.5c0 .966.784 1.75 1.75 1.75h.5A1.75 1.75 0 0 0 16 19.25v-.5A1.75 1.75 0 0 0 14.25 17h-.5Z" fill="#636F7E" fill-opacity=".16"/><path fill-rule="evenodd" clip-rule="evenodd" d="M13.75 2.25a2.5 2.5 0 0 0-2.5 2.5v.5a2.5 2.5 0 0 0 2.5 2.5h.5a2.5 2.5 0 0 0 2.5-2.5v-.5a2.5 2.5 0 0 0-2.5-2.5h-.5Zm-1 2.5a1 1 0 0 1 1-1h.5a1 1 0 0 1 1 1v.5a1 1 0 0 1-1 1h-.5a1 1 0 0 1-1-1v-.5ZM2.25 5A.75.75 0 0 1 3 4.25h6a.75.75 0 0 1 0 1.5H3A.75.75 0 0 1 2.25 5Zm16 0a.75.75 0 0 1 .75-.75h2a.75.75 0 0 1 0 1.5h-2a.75.75 0 0 1-.75-.75ZM3 11.25a.75.75 0 0 0 0 1.5h1a.75.75 0 0 0 0-1.5H3Zm10.25.75a.75.75 0 0 1 .75-.75h7a.75.75 0 0 1 0 1.5h-7a.75.75 0 0 1-.75-.75ZM3 18.25a.75.75 0 0 0 0 1.5h6a.75.75 0 0 0 0-1.5H3Zm15.25.75a.75.75 0 0 1 .75-.75h2a.75.75 0 0 1 0 1.5h-2a.75.75 0 0 1-.75-.75Zm-12-7.25a2.5 2.5 0 0 1 2.5-2.5h.5a2.5 2.5 0 0 1 2.5 2.5v.5a2.5 2.5 0 0 1-2.5 2.5h-.5a2.5 2.5 0 0 1-2.5-2.5v-.5Zm2.5-1a1 1 0 0 0-1 1v.5a1 1 0 0 0 1 1h.5a1 1 0 0 0 1-1v-.5a1 1 0 0 0-1-1h-.5Zm5 5.5a2.5 2.5 0 0 0-2.5 2.5v.5a2.5 2.5 0 0 0 2.5 2.5h.5a2.5 2.5 0 0 0 2.5-2.5v-.5a2.5 2.5 0 0 0-2.5-2.5h-.5Zm-1 2.5a1 1 0 0 1 1-1h.5a1 1 0 0 1 1 1v.5a1 1 0 0 1-1 1h-.5a1 1 0 0 1-1-1v-.5Z" fill="#151E28"/></svg>