<svg viewBox="0 0 24 24" fill="none" xmlns="http://www.w3.org/2000/svg"><path fill-rule="evenodd" clip-rule="evenodd" d="M12 2.25a.75.75 0 0 1 .75.75v1.599l1.834-1.223a.75.75 0 1 1 .832 1.248L12.75 6.401v4.3l3.723-2.15.207-3.197a.75.75 0 0 1 1.497.096l-.142 2.2 1.384-.8a.75.75 0 1 1 .75 1.3l-1.384.799 1.975.977a.75.75 0 0 1-.665 1.344l-2.872-1.42L13.5 12l3.724 2.15 2.872-1.42a.75.75 0 1 1 .664 1.344l-1.975.977 1.384.8a.75.75 0 0 1-.75 1.298l-1.384-.799.142 2.2a.75.75 0 1 1-1.497.096l-.206-3.197-3.724-2.15v4.3l2.666 1.777a.75.75 0 1 1-.832 1.248l-1.834-1.223V21a.75.75 0 0 1-1.5 0v-1.599l-1.834 1.223a.75.75 0 1 1-.832-1.248l2.666-1.777v-4.3l-3.724 2.15-.206 3.197a.75.75 0 1 1-1.497-.096l.142-2.2-1.385.8a.75.75 0 0 1-.75-1.3l1.385-.799-1.976-.977a.75.75 0 1 1 .665-1.344l2.872 1.42L10.5 12 6.776 9.85l-2.872 1.42a.75.75 0 0 1-.665-1.344l1.976-.977-1.384-.8a.75.75 0 0 1 .75-1.299l1.384.8-.142-2.2a.75.75 0 1 1 1.497-.096l.206 3.197 3.724 2.15V6.4L8.584 4.624a.75.75 0 0 1 .832-1.248l1.834 1.223V3a.75.75 0 0 1 .75-.75Z" fill="#151E28"/></svg>