<svg viewBox="0 0 24 24" fill="none" xmlns="http://www.w3.org/2000/svg"><path fill-rule="evenodd" clip-rule="evenodd" d="M15 2.25a.75.75 0 0 0 0 1.5h2.599l-3.223 4.834A.75.75 0 0 0 15 9.75h4a.75.75 0 0 0 0-1.5h-2.599l3.223-4.834A.75.75 0 0 0 19 2.25h-4ZM7.75 6a.75.75 0 0 0-1.5 0v10.19l-1.72-1.72a.75.75 0 0 0-1.06 1.06l3 3a.75.75 0 0 0 1.06 0l3-3a.75.75 0 1 0-1.06-1.06l-1.72 1.72V6ZM17 13.75c-.69 0-1.25.56-1.25 1.25v.667c0 .162 0 .258.004.33a.662.662 0 0 0 .005.07.25.25 0 0 0 .174.174l.07.006c.072.003.169.003.33.003h1.334c.161 0 .258 0 .33-.003a.662.662 0 0 0 .07-.006.25.25 0 0 0 .174-.176c-.002.01.002 0 .006-.068.003-.072.003-.168.003-.33V15c0-.69-.56-1.25-1.25-1.25ZM14.25 15a2.75 2.75 0 1 1 5.5 0v.731l-.001.225a.79.79 0 0 1 .001.044v3a.75.75 0 0 1-1.5 0v-1.27c-.17.02-.347.02-.52.02h-1.46c-.172 0-.35 0-.519-.02V19a.75.75 0 0 1-1.5 0v-3l.001-.044-.001-.225V15Z" fill="#151E28"/></svg>