<svg viewBox="0 0 24 24" fill="none" xmlns="http://www.w3.org/2000/svg"><path d="M2 10.121v3.758c0 .112 0 .169.002.216a2 2 0 0 0 1.903 1.903c.047.002.104.002.216.002h.098a2 2 0 0 1 1.333.552l.07.07.2.2c1.712 1.712 2.568 2.568 3.257 2.79a3 3 0 0 0 3.591-1.487c.33-.644.33-1.855.33-4.277v-3.696c0-2.422 0-3.633-.33-4.277a3 3 0 0 0-3.59-1.487c-.689.222-1.545 1.078-3.258 2.79l-.2.2a2 2 0 0 1-1.402.62C4.196 8 4.172 8 4.122 8c-.112 0-.169 0-.216.002a2 2 0 0 0-1.903 1.903C2 9.952 2 10.009 2 10.12Z" fill="#636F7E" fill-opacity=".16"/><path fill-rule="evenodd" clip-rule="evenodd" d="M19.416 3.376a.75.75 0 0 0-.837 1.245l.011.008c.013.01.036.026.067.052.063.05.16.135.281.256.242.241.578.631.919 1.199.678 1.13 1.393 2.996 1.393 5.864s-.715 4.734-1.393 5.864a6.19 6.19 0 0 1-.919 1.2 3.665 3.665 0 0 1-.348.307l-.01.008a.75.75 0 0 0 .836 1.245l-.4-.6.4.6.002-.001.002-.002.005-.003.013-.01a2.842 2.842 0 0 0 .163-.123c.101-.081.238-.2.398-.36.32-.322.735-.807 1.144-1.489.822-1.37 1.607-3.504 1.607-6.636s-.785-5.266-1.607-6.636A7.712 7.712 0 0 0 20 3.876a5.164 5.164 0 0 0-.522-.457 2.2 2.2 0 0 0-.039-.028l-.013-.009-.005-.003-.002-.002h-.001S19.416 3.376 19 4l.416-.624Zm-7.413 2.841a2.25 2.25 0 0 0-2.694-1.116c-.184.06-.47.235-.977.684-.494.438-1.117 1.06-1.98 1.924l-.2.2-.006.005c-.03.03-.053.054-.077.076a2.75 2.75 0 0 1-1.832.76h-.116l-.18.001a1.25 1.25 0 0 0-1.19 1.19l-.001.18v3.758l.001.18a1.25 1.25 0 0 0 1.19 1.19l.18.001h.116a2.75 2.75 0 0 1 1.832.76l.078.076.005.005.2.2c.863.863 1.486 1.486 1.98 1.924.506.449.793.624.977.684a2.25 2.25 0 0 0 2.694-1.116c.088-.172.166-.5.207-1.175.04-.658.04-1.54.04-2.76v-3.696c0-1.22 0-2.102-.04-2.76-.04-.676-.119-1.002-.207-1.175ZM8.849 3.674a3.75 3.75 0 0 1 4.489 1.86c.241.47.328 1.072.37 1.768.042.709.042 1.635.042 2.824v3.749c0 1.188 0 2.114-.043 2.823-.041.696-.128 1.297-.37 1.769a3.75 3.75 0 0 1-4.488 1.86c-.505-.163-.99-.527-1.512-.99-.532-.47-1.187-1.126-2.027-1.966l-.02-.02-.199-.2a1.25 1.25 0 0 0-.89-.401h-.097c-.096 0-.17 0-.235-.003a2.75 2.75 0 0 1-2.616-2.616c-.003-.066-.003-.14-.003-.235v-3.792c0-.096 0-.169.003-.235a2.75 2.75 0 0 1 2.85-2.619h.098a1.25 1.25 0 0 0 .89-.402l.2-.2.019-.018c.84-.84 1.495-1.496 2.027-1.967.521-.463 1.007-.826 1.512-.99ZM15.4 6.55a.75.75 0 0 1 1.05-.15L16 7l.45-.6.001.001.002.001.004.003.01.008a1.85 1.85 0 0 1 .113.094 4.2 4.2 0 0 1 .274.263c.22.228.503.567.785 1.025.566.92 1.111 2.304 1.111 4.205 0 1.901-.545 3.286-1.111 4.206a6.09 6.09 0 0 1-.785 1.024 4.337 4.337 0 0 1-.36.336l-.028.022-.01.007-.003.003-.002.001S16.45 17.6 16 17l.45.6a.75.75 0 0 1-.904-1.197l.005-.004.041-.035c.04-.034.102-.091.18-.172a4.68 4.68 0 0 0 .59-.773c.433-.705.888-1.82.888-3.419s-.455-2.714-.889-3.42a4.6 4.6 0 0 0-.59-.771 2.92 2.92 0 0 0-.22-.208l-.006-.004A.75.75 0 0 1 15.4 6.55Z" fill="#151E28"/></svg>