<svg viewBox="0 0 24 24" fill="none" xmlns="http://www.w3.org/2000/svg"><path d="M4 10.121v3.758c0 .112 0 .169.002.216a2 2 0 0 0 1.903 1.903c.047.002.104.002.216.002h.098a2 2 0 0 1 1.333.552l.07.07.2.2c1.712 1.712 2.568 2.568 3.257 2.79a3 3 0 0 0 3.591-1.487c.33-.644.33-1.855.33-4.277v-3.696c0-2.422 0-3.633-.33-4.277a3 3 0 0 0-3.591-1.487c-.689.222-1.545 1.078-3.258 2.79l-.2.2a2 2 0 0 1-1.402.62C6.195 8 6.171 8 6.121 8c-.112 0-.169 0-.216.002a2 2 0 0 0-1.903 1.903C4 9.952 4 10.009 4 10.12Z" fill="#636F7E" fill-opacity=".16"/><path fill-rule="evenodd" clip-rule="evenodd" d="M11.31 5.101a2.25 2.25 0 0 1 2.693 1.116c.088.173.166.5.207 1.175.04.658.04 1.54.04 2.76v3.696c0 1.22 0 2.102-.04 2.76-.04.676-.119 1.003-.207 1.175a2.25 2.25 0 0 1-2.694 1.116c-.184-.06-.47-.235-.977-.684-.494-.438-1.117-1.06-1.98-1.924l-.2-.2-.005-.005-.078-.076a2.75 2.75 0 0 0-1.832-.76h-.116l-.18-.001a1.25 1.25 0 0 1-1.19-1.19 4.69 4.69 0 0 1-.001-.18V10.12l.001-.18a1.25 1.25 0 0 1 1.19-1.19h.188c.042 0 .075 0 .108-.002A2.75 2.75 0 0 0 8.07 7.99c.024-.022.048-.046.077-.076l.006-.005.2-.2c.863-.863 1.486-1.486 1.98-1.924.506-.449.793-.624.977-.684Zm4.028.432a3.75 3.75 0 0 0-4.49-1.86c-.504.164-.99.527-1.511.99C8.805 5.134 8.15 5.79 7.31 6.63l-.02.02-.199.2a1.25 1.25 0 0 1-.97.402h-.017a2.75 2.75 0 0 0-2.85 2.619c-.004.065-.004.138-.004.234v3.792a2.75 2.75 0 0 0 2.854 2.854H6.2a1.25 1.25 0 0 1 .89.4l.2.2.019.02c.84.84 1.495 1.495 2.027 1.966.521.463 1.007.827 1.512.99a3.75 3.75 0 0 0 4.489-1.86c.241-.472.328-1.073.37-1.769.042-.709.042-1.635.042-2.823v-3.749c0-1.189 0-2.115-.043-2.824-.041-.696-.128-1.297-.37-1.769Zm3.112.867a.75.75 0 0 0-.905 1.197l.006.004.041.035c.04.034.102.092.18.173a4.6 4.6 0 0 1 .59.772c.433.705.888 1.82.888 3.42 0 1.598-.455 2.713-.889 3.418a4.56 4.56 0 0 1-.59.773 2.925 2.925 0 0 1-.22.207l-.005.005a.75.75 0 0 0 .904 1.196L18 17l.45.6.001-.001.002-.001.004-.003.01-.007.027-.022a4.337 4.337 0 0 0 .36-.335 6.09 6.09 0 0 0 .785-1.025c.566-.92 1.111-2.305 1.111-4.206 0-1.901-.545-3.286-1.111-4.205a6.092 6.092 0 0 0-.785-1.025 4.367 4.367 0 0 0-.36-.335.201.201 0 0 0-.028-.022l-.01-.008-.003-.003h-.002V6.4L18 7l.45-.6Z" fill="#151E28"/></svg>