<svg viewBox="0 0 24 24" fill="none" xmlns="http://www.w3.org/2000/svg"><path d="m12.465 17.745 4.207 2.212a1 1 0 0 0 1.45-1.055L17.969 18 7.5 7.735l-3.957.575a1 1 0 0 0-.554 1.705l3.404 3.318a1 1 0 0 1 .287.885l-.803 4.684a1 1 0 0 0 1.45 1.055l4.207-2.212a1 1 0 0 1 .931 0Z" fill="#636F7E" fill-opacity=".16"/><path fill-rule="evenodd" clip-rule="evenodd" d="M2.53 1.47a.75.75 0 0 0-1.06 1.06l4.647 4.648-2.682.39C2 7.775 1.427 9.54 2.465 10.551L5.87 13.87a.25.25 0 0 1 .072.22l-.804 4.685c-.245 1.43 1.256 2.52 2.54 1.845l4.206-2.212a.25.25 0 0 1 .233 0l4.207 2.212c.95.5 2.02.032 2.412-.825l2.735 2.735a.75.75 0 0 0 1.06-1.06l-20-20Zm14.733 16.853L7.44 8.501l-3.789.55a.25.25 0 0 0-.138.427l3.403 3.318c.412.402.6.98.503 1.549l-.803 4.684a.25.25 0 0 0 .363.263l4.206-2.211a1.75 1.75 0 0 1 1.63 0l4.206 2.211a.25.25 0 0 0 .363-.263l-.121-.706ZM13.569 2.485c-.642-1.3-2.497-1.3-3.139 0L9.328 4.72a.75.75 0 0 0 1.345.664l1.104-2.235a.25.25 0 0 1 .448 0l2.103 4.262a1.75 1.75 0 0 0 1.318.957l4.703.684a.25.25 0 0 1 .139.426l-3.01 2.934a.75.75 0 1 0 1.046 1.075l3.01-2.935c1.04-1.012.466-2.776-.969-2.985l-4.703-.683a.25.25 0 0 1-.189-.137L13.57 2.485Z" fill="#151E28"/></svg>