<svg viewBox="0 0 24 24" fill="none" xmlns="http://www.w3.org/2000/svg"><circle cx="12" cy="12" r="6" fill="#636F7E" fill-opacity=".16"/><path fill-rule="evenodd" clip-rule="evenodd" d="M13 3a1 1 0 1 1-2 0 1 1 0 0 1 2 0Zm0 18a1 1 0 1 1-2 0 1 1 0 0 1 2 0ZM12 6.75a5.25 5.25 0 1 0 0 10.5 5.25 5.25 0 0 0 0-10.5ZM5.25 12a6.75 6.75 0 1 1 13.5 0 6.75 6.75 0 0 1-13.5 0ZM20 12a1 1 0 1 0 2 0 1 1 0 0 0-2 0ZM2 12a1 1 0 1 0 2 0 1 1 0 0 0-2 0Zm17.07-5.657a1 1 0 1 1-1.413-1.414 1 1 0 0 1 1.414 1.414ZM6.344 19.071a1 1 0 1 1-1.414-1.414 1 1 0 0 1 1.414 1.414ZM4.929 4.929a1 1 0 1 0 1.414 1.414A1 1 0 0 0 4.93 4.929Zm12.728 12.728a1 1 0 1 0 1.414 1.414 1 1 0 0 0-1.414-1.414Z" fill="#151E28"/></svg>