<svg viewBox="0 0 24 24" fill="none" xmlns="http://www.w3.org/2000/svg"><path d="M9.573 20.17 10 20l2 2 2-2 .427.17c2.358.944 4.968-.522 5.216-3.05.37-3.754.551-8.698-.643-11.12-.864-1.751-3-4-3-4v5s-1.5-1-4-1-4 1-4 1V2S5.863 4.249 5 6c-1.195 2.422-1.012 7.366-.644 11.12.249 2.528 2.86 3.994 5.217 3.05Z" fill="#636F7E" fill-opacity=".16"/><path fill-rule="evenodd" clip-rule="evenodd" d="M8.278 1.304A.75.75 0 0 1 8.75 2v3.816l.056-.02A9.354 9.354 0 0 1 12 5.25c1.35 0 2.438.27 3.194.545l.056.02V2a.75.75 0 0 1 1.294-.517L16 2l.544-.516.002.002.005.006.02.02.073.079a30.408 30.408 0 0 1 1.112 1.277c.648.788 1.444 1.843 1.916 2.8.674 1.366.927 3.347.985 5.37.06 2.053-.081 4.263-.267 6.156-.3 3.05-3.431 4.774-6.21 3.686l-1.65 1.65a.75.75 0 0 1-1.06 0l-1.65-1.65c-2.779 1.088-5.91-.636-6.21-3.686-.186-1.893-.327-4.103-.268-6.155.058-2.024.312-4.005.985-5.37.472-.958 1.269-2.013 1.917-2.802A30.423 30.423 0 0 1 7.43 1.512l.02-.02.005-.006.001-.002L8 2l-.544-.517a.75.75 0 0 1 .822-.18ZM7.25 4.008c-.593.735-1.217 1.593-1.578 2.324-.52 1.056-.773 2.757-.83 4.75-.057 1.964.078 4.104.26 5.965.197 1.993 2.263 3.2 4.192 2.427l.427-.17a.75.75 0 0 1 .81.166L12 20.94l1.47-1.47a.75.75 0 0 1 .808-.166l.427.17c1.93.772 3.996-.434 4.192-2.427.183-1.861.317-4.001.261-5.965-.057-1.993-.31-3.694-.83-4.75-.361-.731-.985-1.59-1.578-2.324V7a.75.75 0 0 1-1.163.626l-.005-.003a3.44 3.44 0 0 0-.202-.114 5.828 5.828 0 0 0-.699-.304A7.856 7.856 0 0 0 12 6.75c-1.15 0-2.062.23-2.681.455a5.82 5.82 0 0 0-.699.304 3.416 3.416 0 0 0-.202.114l-.005.003A.75.75 0 0 1 7.25 7V4.008Zm8.334 3.616L16 7l-.416.624Zm-8.255 6.04a.75.75 0 0 1 1.006-.335l2 1a.75.75 0 0 1 .195 1.201l-1 1a.75.75 0 0 1-1.06-1.06l.264-.264-1.07-.535a.75.75 0 0 1-.335-1.006Zm8.336-.335a.75.75 0 1 1 .67 1.342l-1.069.535.264.264a.75.75 0 0 1-1.06 1.06l-1-1a.75.75 0 0 1 .195-1.2l2-1Z" fill="#151E28"/></svg>