<svg viewBox="0 0 24 24" fill="none" xmlns="http://www.w3.org/2000/svg"><path fill-rule="evenodd" clip-rule="evenodd" d="m20.052 15.091-2.829 2.829c-1.188 1.188-1.782 1.782-2.467 2.005a3 3 0 0 1-1.854 0c-.685-.223-1.28-.817-2.467-2.005l-5.1-5.1c-.519-.518-.778-.778-.963-1.08a3 3 0 0 1-.36-.868c-.083-.345-.083-.712-.083-1.446V7.73c0-1.68 0-2.52.327-3.162a3 3 0 0 1 1.311-1.31c.642-.328 1.482-.328 3.162-.328h1.698c.733 0 1.1 0 1.445.083a3 3 0 0 1 .868.36c.302.185.562.444 1.08.963l6.232 6.231c.791.792 1.188 1.188 1.336 1.645a2 2 0 0 1 0 1.236c-.149.457-.545.853-1.337 1.645ZM10 11a2 2 0 1 0 0-4 2 2 0 0 0 0 4Z" fill="#636F7E" fill-opacity=".16"/><path fill-rule="evenodd" clip-rule="evenodd" d="m14.35 3.805-.06-.06c-.46-.461-.779-.78-1.159-1.013a3.75 3.75 0 0 0-1.084-.45c-.433-.103-.883-.103-1.535-.103H8.697c-.813 0-1.468 0-2 .044-.546.044-1.026.139-1.47.365a3.75 3.75 0 0 0-1.639 1.639c-.226.444-.32.924-.365 1.47-.044.532-.044 1.187-.044 2v1.815c0 .652 0 1.102.104 1.535.092.383.243.749.449 1.084.233.38.552.699 1.012 1.16l.06.06 5.1 5.1.023.022c.575.575 1.039 1.038 1.445 1.383.418.355.824.628 1.298.782a3.75 3.75 0 0 0 2.318 0c.474-.154.88-.427 1.298-.782.406-.345.87-.808 1.445-1.383l.022-.023 2.829-2.828.021-.022c.378-.377.693-.693.93-.971.246-.29.451-.59.568-.95a2.75 2.75 0 0 0 0-1.7c-.117-.36-.322-.66-.568-.95-.237-.279-.552-.594-.93-.972l-.021-.021-6.231-6.231Zm-2.002.206c.21.128.398.31.942.854l6.231 6.231c.405.405.676.677.868.904.187.22.254.346.286.443a1.25 1.25 0 0 1 0 .772c-.032.097-.1.223-.286.443-.192.226-.463.498-.868.903l-2.828 2.829c-.603.602-1.024 1.022-1.378 1.323-.347.294-.58.43-.79.498a2.25 2.25 0 0 1-1.391 0c-.211-.068-.444-.204-.792-.498-.354-.3-.774-.72-1.377-1.323l-5.1-5.1c-.543-.544-.726-.733-.854-.942a2.25 2.25 0 0 1-.27-.65c-.057-.24-.062-.502-.062-1.272V7.73c0-.852 0-1.446.039-1.91.037-.453.106-.714.207-.911a2.25 2.25 0 0 1 .983-.984c.197-.1.458-.17.912-.206.463-.038 1.057-.039 1.91-.039h1.697c.769 0 1.032.005 1.27.062.23.056.45.147.65.27ZM8.75 9a1.25 1.25 0 1 1 2.5 0 1.25 1.25 0 0 1-2.5 0ZM10 6.25a2.75 2.75 0 1 0 0 5.5 2.75 2.75 0 0 0 0-5.5Z" fill="#151E28"/></svg>