<svg viewBox="0 0 24 24" fill="none" xmlns="http://www.w3.org/2000/svg"><path fill-rule="evenodd" clip-rule="evenodd" d="M20 11.2v4c0 1.68 0 2.52-.327 3.162a3 3 0 0 1-1.31 1.311C17.72 20 16.88 20 15.2 20H7.988c-.733 0-1.1 0-1.445-.083a3 3 0 0 1-.868-.36c-.302-.185-.562-.444-1.08-.963l-1.2-1.2c-1.189-1.188-1.783-1.782-2.005-2.467a3 3 0 0 1 0-1.854c.222-.685.816-1.28 2.004-2.467l1.2-1.2c.52-.519.779-.778 1.081-.964a3 3 0 0 1 .868-.36C6.888 8 7.255 8 7.988 8H16.8c1.12 0 1.68 0 2.108.218a2 2 0 0 1 .874.874C20 9.52 20 10.08 20 11.2ZM10 16a2 2 0 1 0 0-4 2 2 0 0 0 0 4Z" fill="#636F7E" fill-opacity=".16"/><path fill-rule="evenodd" clip-rule="evenodd" d="M15 5.75c1.413 0 2.427 0 3.224.066.787.064 1.295.188 1.706.397a4.25 4.25 0 0 1 1.858 1.858c.21.411.333.919.397 1.706.065.796.066 1.81.066 3.223v3a.75.75 0 0 0 1.5 0v-3.034c0-1.371 0-2.447-.07-3.311-.073-.88-.222-1.607-.557-2.265a5.75 5.75 0 0 0-2.513-2.513c-.658-.336-1.385-.484-2.265-.556-.865-.071-1.94-.071-3.312-.071H10a.75.75 0 0 0 0 1.5h5Zm-7.097 1.5h8.927c.535 0 .98 0 1.345.03.38.03.736.098 1.074.27a2.75 2.75 0 0 1 1.202 1.202c.171.337.238.693.27 1.073.03.365.03.81.03 1.345v4.062c0 .813 0 1.469-.044 2-.045.546-.14 1.026-.366 1.47a3.75 3.75 0 0 1-1.638 1.64c-.444.226-.925.32-1.471.365-.531.043-1.187.043-2 .043H7.903c-.652 0-1.103 0-1.536-.104a3.751 3.751 0 0 1-1.083-.449c-.38-.232-.699-.551-1.16-1.012l-.06-.06-1.2-1.2-.023-.023c-.575-.575-1.038-1.039-1.383-1.445-.355-.418-.628-.824-.782-1.298a3.75 3.75 0 0 1 0-2.318c.154-.474.427-.88.782-1.298.345-.406.808-.87 1.383-1.445l.023-.023 1.2-1.2.06-.06c.461-.46.78-.78 1.16-1.012a3.75 3.75 0 0 1 1.083-.45c.433-.103.884-.103 1.536-.103Zm.085 1.5c-.769 0-1.032.005-1.27.062a2.25 2.25 0 0 0-.65.27c-.21.128-.4.31-.943.854l-1.2 1.2c-.603.603-1.023 1.024-1.323 1.377-.295.348-.43.58-.5.792a2.25 2.25 0 0 0 0 1.39c.07.211.205.444.5.792.3.354.72.774 1.323 1.377l1.2 1.2c.544.544.733.726.942.855.202.123.421.214.65.269.24.057.502.062 1.271.062H15.2c.853 0 1.447 0 1.91-.038.453-.038.714-.107.912-.207a2.25 2.25 0 0 0 .983-.983c.1-.198.17-.459.207-.913.038-.462.038-1.057.038-1.909v-4c0-.572 0-.957-.024-1.253-.024-.287-.066-.424-.112-.514a1.25 1.25 0 0 0-.546-.547c-.09-.046-.228-.088-.515-.111-.296-.024-.68-.025-1.253-.025H7.988Zm2.012 4a1.25 1.25 0 1 0 0 2.5 1.25 1.25 0 0 0 0-2.5ZM7.25 14a2.75 2.75 0 1 1 5.5 0 2.75 2.75 0 0 1-5.5 0Z" fill="#151E28"/></svg>