<svg viewBox="0 0 24 24" fill="none" xmlns="http://www.w3.org/2000/svg"><path fill-rule="evenodd" clip-rule="evenodd" d="m17.612 16.152-2.828 2.828c-1.189 1.188-1.783 1.782-2.468 2.005a3 3 0 0 1-1.854 0c-.685-.223-1.279-.817-2.467-2.005l-5.1-5.1c-.518-.518-.778-.778-.963-1.08a3 3 0 0 1-.36-.868c-.082-.345-.082-.712-.082-1.446V8.79c0-1.68 0-2.52.327-3.162a3 3 0 0 1 1.31-1.31C3.77 3.99 4.61 3.99 6.29 3.99h1.697c.734 0 1.1 0 1.446.083a3 3 0 0 1 .867.36c.303.185.562.444 1.081.963l6.23 6.231c.793.792 1.189 1.188 1.337 1.645a2 2 0 0 1 0 1.236c-.148.457-.544.853-1.336 1.645ZM7.147 12.474a2 2 0 1 0 2.828-2.828 2 2 0 0 0-2.828 2.829Z" fill="#636F7E" fill-opacity=".16"/><path fill-rule="evenodd" clip-rule="evenodd" d="M17.93 8.763c1 .999 1.716 1.716 2.233 2.325.511.602.783 1.049.926 1.488a4.25 4.25 0 0 1 0 2.627c-.143.439-.415.885-.926 1.487-.517.61-1.234 1.327-2.233 2.326l-2.12 2.121a.75.75 0 1 0 1.06 1.06l2.121-2.12.024-.024c.97-.97 1.73-1.73 2.291-2.392.572-.673.98-1.292 1.21-1.995a5.75 5.75 0 0 0 0-3.554c-.23-.702-.638-1.322-1.21-1.995-.56-.66-1.321-1.421-2.291-2.391l-.024-.024-3.536-3.536a.75.75 0 0 0-1.06 1.06l3.535 3.537Zm-6.08-3.958.061.06 6.231 6.23.022.022c.377.378.693.693.93.972.246.29.45.59.568.95a2.75 2.75 0 0 1 0 1.7c-.117.36-.322.66-.569.95-.236.278-.552.594-.93.971l-.02.022-2.83 2.828-.022.023c-.575.575-1.038 1.038-1.444 1.383-.418.355-.825.628-1.299.782a3.75 3.75 0 0 1-2.317 0c-.475-.154-.88-.427-1.299-.782-.406-.345-.87-.808-1.444-1.383l-.023-.023-5.1-5.1-.06-.06c-.46-.46-.78-.779-1.013-1.159a3.75 3.75 0 0 1-.448-1.084C.74 11.675.74 11.224.74 10.572V8.757c0-.813 0-1.468.043-2 .045-.546.14-1.026.365-1.47a3.75 3.75 0 0 1 1.64-1.639c.444-.226.924-.32 1.47-.365.531-.044 1.187-.044 2-.044h1.814c.652 0 1.103 0 1.536.104a3.75 3.75 0 0 1 1.084.449c.38.233.698.552 1.159 1.013Zm-1 1.12c-.543-.543-.732-.726-.942-.854a2.25 2.25 0 0 0-.65-.27c-.24-.057-.502-.062-1.271-.062H6.29c-.853 0-1.447 0-1.91.039-.453.037-.714.106-.912.207a2.25 2.25 0 0 0-.983.983c-.1.197-.17.458-.207.912-.038.463-.038 1.057-.038 1.91v1.697c0 .769.005 1.031.062 1.27.055.23.146.45.27.65.128.21.31.4.854.943l5.1 5.1c.602.602 1.023 1.022 1.377 1.323.347.294.58.43.791.498a2.25 2.25 0 0 0 1.39 0c.212-.068.445-.204.792-.498.354-.3.774-.72 1.377-1.323l2.829-2.829c.404-.404.676-.677.868-.903.186-.22.254-.346.285-.443a1.251 1.251 0 0 0 0-.772c-.031-.097-.099-.224-.285-.443-.192-.227-.464-.499-.868-.904l-6.231-6.23Zm-1.405 4.251a1.25 1.25 0 1 0-1.768 1.768 1.25 1.25 0 0 0 1.768-1.768Zm-2.829-1.06a2.75 2.75 0 1 1 3.89 3.889 2.75 2.75 0 0 1-3.89-3.89Z" fill="#151E28"/></svg>