<svg viewBox="0 0 24 24" fill="none" xmlns="http://www.w3.org/2000/svg"><path d="M2.013 14.702A2 2 0 0 1 3.886 12h16.228a2 2 0 0 1 1.873 2.702l-1.257 3.351A3 3 0 0 1 17.921 20H6.079a3 3 0 0 1-2.809-1.947l-1.257-3.35Z" fill="#636F7E" fill-opacity=".16"/><path fill-rule="evenodd" clip-rule="evenodd" d="M8.028 6.288a2.25 2.25 0 0 1 2.134-1.538h3.676c.968 0 1.828.62 2.134 1.538l1.317 3.95a.75.75 0 0 0 1.423-.475L18.04 7.75H22a.75.75 0 0 0 0-1.5h-4.46l-.146-.436a3.75 3.75 0 0 0-3.557-2.564h-3.675a3.75 3.75 0 0 0-3.558 2.564L5.289 9.763a.75.75 0 0 0 1.423.474l1.316-3.949ZM3.886 11.25a2.75 2.75 0 0 0-2.575 3.716l1.257 3.35a3.75 3.75 0 0 0 3.511 2.434h11.842a3.75 3.75 0 0 0 3.511-2.433l1.257-3.351a2.75 2.75 0 0 0-2.575-3.716H3.886Zm-1.17 3.189a1.25 1.25 0 0 1 1.17-1.689h16.228a1.25 1.25 0 0 1 1.17 1.689l-1.256 3.351a2.25 2.25 0 0 1-2.107 1.46H6.079a2.25 2.25 0 0 1-2.107-1.46l-1.256-3.351ZM7 17a1 1 0 1 0 0-2 1 1 0 0 0 0 2Zm6-1a1 1 0 1 1-2 0 1 1 0 0 1 2 0Zm4 1a1 1 0 1 0 0-2 1 1 0 0 0 0 2Z" fill="#151E28"/></svg>