<svg viewBox="0 0 24 24" fill="none" xmlns="http://www.w3.org/2000/svg"><circle cx="12" cy="12" r="9" fill="#636F7E" fill-opacity=".16"/><path fill-rule="evenodd" clip-rule="evenodd" d="M11.25 3.784V5a.75.75 0 0 0 1.5 0V3.784a8.252 8.252 0 0 1 7.466 7.466H19a.75.75 0 0 0 0 1.5h1.216a8.252 8.252 0 0 1-7.467 7.466V19a.75.75 0 0 0-1.5 0v1.216a8.252 8.252 0 0 1-7.466-7.466H5a.75.75 0 0 0 0-1.5H3.783a8.252 8.252 0 0 1 7.466-7.466Zm-9 8.198c.01-5.373 4.366-9.727 9.74-9.732a.8.8 0 0 1 .02 0c5.38.005 9.74 4.368 9.74 9.75 0 5.385-4.366 9.75-9.75 9.75a9.75 9.75 0 0 1-9.75-9.732.772.772 0 0 1 0-.036ZM12 9.25a.75.75 0 0 1 .75.75v1.25H14a.75.75 0 1 1 0 1.5h-1.25V14a.75.75 0 0 1-1.5 0v-1.25H10a.75.75 0 0 1 0-1.5h1.25V10a.75.75 0 0 1 .75-.75Z" fill="#151E28"/></svg>