<svg viewBox="0 0 24 24" fill="none" xmlns="http://www.w3.org/2000/svg"><circle cx="12" cy="12" r="9" fill="#636F7E" fill-opacity=".16"/><path fill-rule="evenodd" clip-rule="evenodd" d="M12.75 3.784V6a.75.75 0 0 1-1.5 0V3.784a8.252 8.252 0 0 0-7.466 7.466H6a.75.75 0 0 1 0 1.5H3.784a8.252 8.252 0 0 0 7.466 7.466V18a.75.75 0 0 1 1.5 0v2.216a8.252 8.252 0 0 0 7.466-7.466H18a.75.75 0 0 1 0-1.5h2.216a8.252 8.252 0 0 0-7.466-7.466Zm9 8.216c0 5.385-4.365 9.75-9.75 9.75S2.25 17.385 2.25 12 6.615 2.25 12 2.25s9.75 4.365 9.75 9.75Z" fill="#151E28"/></svg>