<svg viewBox="0 0 24 24" fill="none" xmlns="http://www.w3.org/2000/svg"><path d="m4.102 10.958 1.255-4.6c.23-.844.345-1.267.588-1.58a2 2 0 0 1 .82-.627C7.13 4 7.569 4 8.445 4H14.8c1.12 0 1.68 0 2.108.218a2 2 0 0 1 .874.874C18 5.52 18 6.08 18 7.2v6.474c0 .49 0 .734-.055.965a2.02 2.02 0 0 1-.24.578c-.123.201-.296.374-.642.72L11.41 21.59A1.404 1.404 0 0 1 9.2 19.9L12 15H7.19c-1.425 0-2.137 0-2.619-.296a2 2 0 0 1-.872-1.142c-.159-.543.029-1.23.403-2.604Z" fill="#636F7E" fill-opacity=".16"/><path fill-rule="evenodd" clip-rule="evenodd" d="M8.444 3.25H8.31c-.743 0-1.324-.001-1.831.208a2.75 2.75 0 0 0-1.128.861c-.335.434-.488.996-.682 1.712l-.036.13-1.254 4.6-.01.033c-.179.659-.327 1.2-.407 1.645-.082.457-.11.9.017 1.334a2.75 2.75 0 0 0 1.2 1.57c.385.237.82.326 1.282.367.45.04 1.011.04 1.694.04h3.553l-2.16 3.778c-.82 1.436.217 3.222 1.87 3.222.572 0 1.12-.227 1.523-.63l5.652-5.652.051-.052c.297-.296.53-.528.7-.808.152-.246.263-.514.33-.795.076-.318.076-.648.076-1.066V7.17c0-.535 0-.98-.03-1.345-.03-.38-.098-.736-.27-1.074a2.75 2.75 0 0 0-1.2-1.201c-.338-.172-.694-.24-1.074-.27-.365-.03-.81-.03-1.345-.03H8.444ZM7.051 4.844c.195-.08.45-.094 1.393-.094H14.8c.572 0 .957 0 1.252.025.288.023.425.065.515.111.236.12.427.311.547.546.046.091.088.228.111.515.024.296.025.68.025 1.253v6.474c0 .525-.005.665-.035.79a1.25 1.25 0 0 1-.15.36c-.066.11-.161.212-.533.583l-5.651 5.651a.653.653 0 0 1-1.03-.786l2.8-4.9A.75.75 0 0 0 12 14.25H7.19c-.726 0-1.221 0-1.597-.034-.37-.033-.533-.092-.629-.151a1.25 1.25 0 0 1-.545-.714c-.032-.108-.046-.28.02-.647.066-.37.196-.848.387-1.549l1.254-4.6c.249-.91.329-1.152.458-1.32a1.25 1.25 0 0 1 .513-.39ZM20.25 14a.75.75 0 0 0 1.5 0V4a.75.75 0 0 0-1.5 0v10Z" fill="#151E28"/></svg>