<svg viewBox="0 0 24 24" fill="none" xmlns="http://www.w3.org/2000/svg"><path d="M6 12h12v3a4 4 0 0 1-4 4h-4a4 4 0 0 1-4-4v-3Z" fill="#636F7E" fill-opacity=".16"/><path fill-rule="evenodd" clip-rule="evenodd" d="M12.75 3.75h3.014c1.086 0 2.08.614 2.565 1.585a.75.75 0 1 0 1.342-.67 4.368 4.368 0 0 0-3.907-2.415H8.236A4.368 4.368 0 0 0 4.33 4.665a.75.75 0 0 0 1.342.67A2.868 2.868 0 0 1 8.236 3.75h3.014v2.5H10A4.75 4.75 0 0 0 5.25 11v4c0 1.715.91 3.219 2.272 4.053L6.4 20.55a.75.75 0 0 0 1.2.9l1.36-1.814c.335.075.683.114 1.04.114h4c.357 0 .705-.04 1.04-.114l1.36 1.814a.75.75 0 1 0 1.2-.9l-1.122-1.497A4.747 4.747 0 0 0 18.75 15v-4A4.75 4.75 0 0 0 14 6.25h-1.25v-2.5Zm-2.75 4h4A3.25 3.25 0 0 1 17.25 11v.25H6.75V11A3.25 3.25 0 0 1 10 7.75Zm-3.25 5V15A3.25 3.25 0 0 0 10 18.25h4A3.25 3.25 0 0 0 17.25 15v-2.25H6.75Zm4 1.75a.75.75 0 0 0-1.5 0v1a.75.75 0 0 0 1.5 0v-1Zm3.25-.75a.75.75 0 0 1 .75.75v1a.75.75 0 0 1-1.5 0v-1a.75.75 0 0 1 .75-.75Z" fill="#151E28"/></svg>