<svg viewBox="0 0 24 24" fill="none" xmlns="http://www.w3.org/2000/svg"><path d="M13.51 21h-3.02c-1.581 0-2.372 0-2.992-.3A3 3 0 0 1 6.2 19.485c-.34-.598-.394-1.387-.499-2.966L5 6h14l-.701 10.52c-.105 1.578-.158 2.367-.499 2.965a3 3 0 0 1-1.298 1.215c-.62.3-1.41.3-2.993.3Z" fill="#636F7E" fill-opacity=".16"/><path fill-rule="evenodd" clip-rule="evenodd" d="M10.581 2.25h-.02c-.114 0-.202 0-.286.005a2.75 2.75 0 0 0-2.385 1.72c-.031.077-.06.16-.095.268l-.007.02a4.18 4.18 0 0 1-.07.203 1.25 1.25 0 0 1-1.084.782 4.177 4.177 0 0 1-.215.002H3a.75.75 0 0 0 0 1.5h3.439c.114 0 .202 0 .286-.005l.123-.01c.05.01.1.015.152.015h10a.753.753 0 0 0 .151-.015 2.77 2.77 0 0 0 .41.015H21a.75.75 0 0 0 0-1.5h-3.419c-.143 0-.183 0-.215-.002a1.25 1.25 0 0 1-1.084-.782 4.35 4.35 0 0 1-.07-.203l-.007-.02c-.036-.107-.064-.191-.095-.269a2.75 2.75 0 0 0-2.385-1.719 4.816 4.816 0 0 0-.286-.005h-2.858Zm4.411 3a2.743 2.743 0 0 1-.102-.224 4.39 4.39 0 0 1-.095-.27l-.006-.019a4.35 4.35 0 0 0-.07-.203 1.25 1.25 0 0 0-1.085-.782 4.173 4.173 0 0 0-.215-.002H10.58c-.143 0-.183 0-.215.002a1.25 1.25 0 0 0-1.084.782 4.18 4.18 0 0 0-.07.203l-.007.02c-.036.107-.064.191-.095.269-.03.076-.065.151-.102.224h5.984Zm-9.077 3.2a.75.75 0 0 0-1.497.1l.535 8.02.002.03c.05.763.092 1.38.165 1.879.076.514.193.964.428 1.377a3.75 3.75 0 0 0 1.623 1.519c.428.207.885.294 1.403.335.503.04 1.121.04 1.886.04h3.08c.765 0 1.383 0 1.886-.04.518-.041.975-.128 1.403-.335a3.75 3.75 0 0 0 1.623-1.519c.235-.413.352-.863.428-1.377.073-.5.114-1.116.165-1.879l.002-.03.535-8.02a.75.75 0 0 0-1.497-.1l-.535 8.02c-.053.8-.09 1.358-.154 1.79-.063.425-.142.669-.248.854a2.25 2.25 0 0 1-.973.91c-.192.094-.44.157-.868.19-.436.036-.995.036-1.798.036h-3.018c-.803 0-1.362 0-1.798-.035-.427-.034-.676-.097-.868-.19a2.25 2.25 0 0 1-.973-.911c-.106-.185-.185-.43-.248-.853-.063-.433-.101-.99-.154-1.792L5.915 8.45ZM10 10.25a.75.75 0 0 1 .75.75v5a.75.75 0 0 1-1.5 0v-5a.75.75 0 0 1 .75-.75Zm4.75.75a.75.75 0 0 0-1.5 0v5a.75.75 0 0 0 1.5 0v-5Z" fill="#151E28"/></svg>