<svg viewBox="0 0 24 24" fill="none" xmlns="http://www.w3.org/2000/svg"><path d="M10.643 2.469C8.608 4.789 5 9.41 5 13c0 2.291.63 3.953 1.698 5.08.75.792 1.862 1.066 2.947 1.178l1.536.158a7.994 7.994 0 0 0 1.638 0l1.536-.158c1.085-.112 2.197-.386 2.947-1.178C18.37 16.953 19 15.291 19 13c0-3.59-3.608-8.21-5.643-10.531a1.789 1.789 0 0 0-2.713 0Z" fill="#636F7E" fill-opacity=".16"/><path fill-rule="evenodd" clip-rule="evenodd" d="M12.793 2.963a1.039 1.039 0 0 0-1.586 0C10.204 4.107 8.824 5.807 7.7 7.65 6.559 9.517 5.75 11.421 5.75 13c0 2.903 1.064 4.566 2.616 5.435a.75.75 0 0 1-.732 1.309C5.506 18.553 4.25 16.317 4.25 13c0-2.01.996-4.212 2.168-6.132 1.188-1.946 2.63-3.717 3.662-4.894a2.539 2.539 0 0 1 3.84 0c1.032 1.177 2.474 2.948 3.662 4.894 1.172 1.92 2.168 4.121 2.168 6.132 0 3.317-1.256 5.552-3.384 6.743a.75.75 0 1 1-.732-1.31c1.552-.868 2.616-2.531 2.616-5.433 0-1.58-.808-3.483-1.949-5.35-1.125-1.843-2.505-3.543-3.508-4.687ZM12 5.25a.75.75 0 0 1 .75.75v16a.75.75 0 1 1-1.5 0v-6.69l-2.78-2.78a.75.75 0 1 1 1.06-1.06l1.72 1.719v-7.19a.75.75 0 0 1 .75-.75Z" fill="#151E28"/></svg>