<svg viewBox="0 0 24 24" fill="none" xmlns="http://www.w3.org/2000/svg"><path d="M4 10.5A7.5 7.5 0 0 1 11.5 3h1a7.5 7.5 0 0 1 7.5 7.5v1a7.5 7.5 0 0 1-7.5 7.5h-1A7.5 7.5 0 0 1 4 11.5v-1Z" fill="#636F7E" fill-opacity=".16"/><path fill-rule="evenodd" clip-rule="evenodd" d="M11.5 2.25a8.25 8.25 0 0 0-8.25 8.25v1a8.249 8.249 0 0 0 4.4 7.298.75.75 0 1 0 .7-1.326 6.75 6.75 0 0 1-3.6-5.972v-1a6.75 6.75 0 0 1 6.75-6.75h1a6.75 6.75 0 0 1 6.75 6.75v1a6.75 6.75 0 0 1-3.6 5.972.75.75 0 0 0 .7 1.326 8.249 8.249 0 0 0 4.4-7.298v-1a8.25 8.25 0 0 0-8.25-8.25h-1ZM12.75 6a.75.75 0 0 0-1.5 0v7.19l-1.72-1.72a.75.75 0 0 0-1.06 1.06l2.78 2.78V22a.75.75 0 0 0 1.5 0v-9.689l2.78-2.78a.75.75 0 0 0-1.06-1.061l-1.72 1.72V6Z" fill="#151E28"/></svg>