<svg viewBox="0 0 24 24" fill="none" xmlns="http://www.w3.org/2000/svg"><path d="M12 3a6 6 0 0 0-5.634 8.067A3.001 3.001 0 0 0 7 17h10a3 3 0 0 0 .634-5.933A6 6 0 0 0 12 3Z" fill="#636F7E" fill-opacity=".16"/><path fill-rule="evenodd" clip-rule="evenodd" d="M6.75 9a5.25 5.25 0 1 1 10.18 1.809.75.75 0 0 0 .547.991A2.251 2.251 0 0 1 17 16.25h-1a.75.75 0 0 0 0 1.5h1a3.75 3.75 0 0 0 1.561-7.16 6.75 6.75 0 1 0-13.123 0A3.75 3.75 0 0 0 7 17.75h1a.75.75 0 0 0 0-1.5H7a2.25 2.25 0 0 1-.477-4.45.75.75 0 0 0 .547-.991A5.238 5.238 0 0 1 6.75 9Zm6-1a.75.75 0 0 0-1.5 0v14a.75.75 0 0 0 1.5 0V8Z" fill="#151E28"/></svg>