<svg viewBox="0 0 24 24" fill="none" xmlns="http://www.w3.org/2000/svg"><path d="M18.024 19.337 16 19l-3.008-.376a8.007 8.007 0 0 0-1.984 0L8 19l-2.024.337c-1.631.272-2.869-1.44-2.099-2.904l7.238-13.752a1 1 0 0 1 1.77 0l7.238 13.752c.77 1.463-.468 3.176-2.099 2.904Z" fill="#636F7E" fill-opacity=".16"/><path fill-rule="evenodd" clip-rule="evenodd" d="M10.451 2.332c.656-1.247 2.441-1.247 3.098 0l7.237 13.752c1.06 2.012-.642 4.367-2.885 3.993l-2.024-.337a.75.75 0 1 1 .246-1.48l2.024.337c1.02.17 1.793-.9 1.312-1.815L12.22 3.031a.25.25 0 0 0-.442 0L4.54 16.782c-.481.915.292 1.985 1.312 1.815l2.024-.337a.75.75 0 1 1 .246 1.48l-2.024.337c-2.243.374-3.944-1.981-2.885-3.993L10.45 2.332ZM12 9.25a.75.75 0 0 1 .75.75v12a.75.75 0 0 1-1.5 0v-5.69l-2.78-2.78a.75.75 0 0 1 1.06-1.06l1.72 1.72V10a.75.75 0 0 1 .75-.75Z" fill="#151E28"/></svg>