<svg viewBox="0 0 24 24" fill="none" xmlns="http://www.w3.org/2000/svg"><path d="M2 8v8a2 2 0 0 0 2 2c.704-2.534 4.296-2.534 5 0h5c.704-2.534 4.296-2.534 5 0a3 3 0 0 0 3-3v-2h-3a4 4 0 0 1-4-4V8a4 4 0 0 0-4-4H6a4 4 0 0 0-4 4Z" fill="#636F7E" fill-opacity=".16"/><path fill-rule="evenodd" clip-rule="evenodd" d="M2.75 8A3.25 3.25 0 0 1 6 4.75h5A3.25 3.25 0 0 1 14.25 8v1A4.75 4.75 0 0 0 19 13.75h2.25V15a2.25 2.25 0 0 1-1.77 2.199 3.25 3.25 0 0 0-5.98.051h-4a3.25 3.25 0 0 0-5.963-.088A1.25 1.25 0 0 1 2.75 16V8Zm.503 10.647A2.751 2.751 0 0 1 1.25 16V8A4.75 4.75 0 0 1 6 3.25h5c1.598 0 3.012.79 3.873 2h.197c.862 0 1.372 0 1.811.058a6.75 6.75 0 0 1 5.811 5.81c.058.44.058.95.058 1.812V15a3.75 3.75 0 0 1-3.005 3.676 3.25 3.25 0 0 1-6.486.074H9.741a3.25 3.25 0 0 1-6.488-.103Zm17.995-6.397a7.745 7.745 0 0 0-.043-.935 5.25 5.25 0 0 0-4.52-4.52c-.252-.033-.548-.042-1.101-.044.108.398.166.817.166 1.249v1A3.25 3.25 0 0 0 19 12.25h2.248ZM8.25 18.5a1.75 1.75 0 1 0-3.5 0 1.75 1.75 0 0 0 3.5 0Zm10 0a1.75 1.75 0 1 0-3.5 0 1.75 1.75 0 0 0 3.5 0Z" fill="#151E28"/></svg>