<svg viewBox="0 0 24 24" fill="none" xmlns="http://www.w3.org/2000/svg"><path d="M2 8v8a2 2 0 0 0 2 2c.704-2.534 4.296-2.534 5 0h5c.704-2.534 4.296-2.534 5 0a3 3 0 0 0 3-3v-2h-3a4 4 0 0 1-4-4V8a4 4 0 0 0-4-4H6a4 4 0 0 0-4 4Z" fill="#636F7E" fill-opacity=".16"/><path fill-rule="evenodd" clip-rule="evenodd" d="M6 4.75A3.25 3.25 0 0 0 2.75 8v8c0 .527.326.978.787 1.162a3.25 3.25 0 0 1 5.964.088h3.998a3.25 3.25 0 0 1 5.98-.051A2.25 2.25 0 0 0 21.25 15v-1.25H19A4.75 4.75 0 0 1 14.25 9V8A3.25 3.25 0 0 0 11 4.75H6ZM1.25 16a2.75 2.75 0 0 0 2.003 2.647 3.25 3.25 0 0 0 6.488.103h3.518a3.25 3.25 0 0 0 6.486-.074A3.751 3.751 0 0 0 22.75 15v-2.07c0-.862 0-1.372-.058-1.811a6.75 6.75 0 0 0-5.81-5.811c-.44-.058-.95-.058-1.812-.058h-.197c-.86-1.21-2.274-2-3.873-2H6A4.75 4.75 0 0 0 1.25 8v8Zm19.955-4.685c.03.225.04.486.043.935H19A3.25 3.25 0 0 1 15.75 9V8c0-.432-.058-.851-.166-1.25.553.003.85.012 1.101.045a5.25 5.25 0 0 1 4.52 4.52ZM6.5 16.75a1.75 1.75 0 1 1 0 3.5 1.75 1.75 0 0 1 0-3.5Zm10 0a1.75 1.75 0 1 1 0 3.5 1.75 1.75 0 0 1 0-3.5ZM9.75 8a.75.75 0 0 0-1.5 0v2.25H6a.75.75 0 0 0 0 1.5h2.25V14a.75.75 0 0 0 1.5 0v-2.25H12a.75.75 0 0 0 0-1.5H9.75V8Z" fill="#151E28"/></svg>