<svg viewBox="0 0 24 24" fill="none" xmlns="http://www.w3.org/2000/svg"><path d="M18 11c0 3.314-4 4-6 4s-6-.686-6-4a6 6 0 1 1 12 0Z" fill="#636F7E" fill-opacity=".16"/><path fill-rule="evenodd" clip-rule="evenodd" d="M6.75 11a5.25 5.25 0 1 1 10.5 0c0 1.27-.732 2.054-1.818 2.563-1.114.522-2.492.687-3.432.687s-2.318-.165-3.432-.687C7.482 13.054 6.75 12.27 6.75 11ZM12 4.25A6.75 6.75 0 0 0 5.25 11c0 2.044 1.268 3.26 2.682 3.922 1.386.65 3.008.828 4.068.828 1.06 0 2.682-.178 4.068-.828 1.414-.663 2.682-1.878 2.682-3.922A6.75 6.75 0 0 0 12 4.25Zm-7.648 9.012a.75.75 0 1 0-.704-1.324c-1.31.697-2.398 1.72-2.398 3.062 0 .825.421 1.535 1.02 2.102.598.565 1.423 1.04 2.38 1.423 1.919.767 4.518 1.225 7.35 1.225s5.431-.458 7.35-1.225c.957-.383 1.782-.858 2.38-1.423.599-.567 1.02-1.277 1.02-2.102 0-1.342-1.087-2.365-2.398-3.062a.75.75 0 1 0-.704 1.324c1.2.64 1.602 1.278 1.602 1.738 0 .28-.139.622-.551 1.012-.414.392-1.054.78-1.907 1.12-1.7.68-4.102 1.118-6.792 1.118-2.69 0-5.092-.438-6.793-1.118-.852-.34-1.492-.728-1.906-1.12-.412-.39-.551-.732-.551-1.012 0-.46.401-1.099 1.602-1.738Z" fill="#151E28"/></svg>