<svg viewBox="0 0 24 24" fill="none" xmlns="http://www.w3.org/2000/svg"><path fill-rule="evenodd" clip-rule="evenodd" d="M2.522 9.852C3.397 6.921 5.738 3 12 3 8 4 8 13 8 13H5.2c-1.004 0-1.506 0-1.993-.304-.358-.223-.757-.759-.869-1.166-.151-.553-.04-.928.184-1.678ZM12 3c4 1 4 10 4 10h2.8c1.004 0 1.506 0 1.992-.304.358-.223.757-.759.87-1.166.151-.553.04-.928-.185-1.678C20.602 6.921 18.262 3 12 3Z" fill="#636F7E" fill-opacity=".16"/><path fill-rule="evenodd" clip-rule="evenodd" d="m12 3.782-.02.006c-.109.04-.215.088-.32.145l.34.856.339-.856a2.228 2.228 0 0 0-.34-.151Zm.339.15-.34.857 2.954 7.461h.274a23.771 23.771 0 0 0-.46-3.72c-.243-1.152-.598-2.285-1.106-3.174-.382-.668-.82-1.148-1.322-1.423Zm-.34.857-.338-.856h-.002c-.5.275-.939.756-1.32 1.423-.508.889-.863 2.022-1.105 3.174a23.76 23.76 0 0 0-.424 3.103c-.016.23-.028.437-.037.617h.274L12 4.789ZM9.048 12.25 12 4.789l2.953 7.461H9.047ZM8 13.75h10.934c.874.001 1.584.002 2.256-.418.284-.177.538-.443.73-.702.193-.259.376-.579.464-.901.21-.762.04-1.327-.165-2.015l-.023-.076c-.461-1.546-1.321-3.397-2.932-4.865C17.637 3.29 15.302 2.25 12 2.25S6.362 3.29 4.736 4.773c-1.61 1.468-2.47 3.319-2.932 4.865l-.023.076c-.206.688-.375 1.253-.166 2.015.089.323.271.642.464.901s.447.525.731.702c.672.42 1.382.42 2.256.418H8Zm-.729-1.5c.01-.208.023-.453.043-.726.064-.88.193-2.072.452-3.304.258-1.223.653-2.527 1.27-3.608.116-.203.242-.401.378-.591-1.585.359-2.772 1.043-3.668 1.86-1.343 1.225-2.091 2.8-2.505 4.186-.232.777-.266.949-.18 1.264.024.085.097.236.221.403.124.167.248.28.323.326.266.167.522.19 1.595.19h2.07Zm7.693-7.638a6.88 6.88 0 0 0-.379-.591c1.586.359 2.772 1.043 3.668 1.86 1.344 1.225 2.092 2.8 2.506 4.186.232.777.266.949.18 1.264a1.384 1.384 0 0 1-.221.403c-.125.167-.249.28-.323.326-.267.167-.523.19-1.595.19h-2.071a27.2 27.2 0 0 0-.044-.726 25.26 25.26 0 0 0-.451-3.304c-.258-1.223-.653-2.527-1.27-3.608ZM12.75 15a.75.75 0 0 0-1.5 0v5a1.25 1.25 0 0 1-2.5 0v-1a.75.75 0 0 0-1.5 0v1a2.75 2.75 0 1 0 5.5 0v-5Z" fill="#151E28"/></svg>