<svg viewBox="0 0 24 24" fill="none" xmlns="http://www.w3.org/2000/svg"><path d="M10.237 5.985 4.58 11.642c-1.188 1.188-1.782 1.782-2.004 2.467a3 3 0 0 0 0 1.854c.222.685.816 1.279 2.004 2.467l.99.99c1.188 1.188 1.782 1.782 2.467 2.004a3 3 0 0 0 1.854 0c.685-.222 1.28-.816 2.467-2.004l5.657-5.657c.792-.792 1.188-1.188 1.337-1.645a2 2 0 0 0 0-1.236c-.149-.457-.545-.853-1.337-1.645l-3.253-3.252c-.792-.792-1.188-1.188-1.644-1.337a2 2 0 0 0-1.236 0c-.457.149-.853.545-1.645 1.337Z" fill="#636F7E" fill-opacity=".16"/><path fill-rule="evenodd" clip-rule="evenodd" d="M10.767 6.515c.405-.405.677-.676.904-.868.22-.187.346-.254.443-.285a1.25 1.25 0 0 1 .772 0c.097.03.224.098.443.285.226.192.498.463.903.868l3.253 3.253c.405.404.676.676.868.903.186.22.254.346.285.443a1.25 1.25 0 0 1 0 .772c-.031.097-.099.224-.285.443-.192.227-.463.499-.868.903l-5.657 5.657c-.603.603-1.023 1.023-1.377 1.323-.347.295-.58.43-.791.499a2.249 2.249 0 0 1-1.391 0c-.21-.069-.444-.204-.791-.499-.354-.3-.775-.72-1.377-1.323l-.99-.99c-.603-.602-1.023-1.023-1.323-1.377-.295-.347-.43-.58-.5-.791a2.25 2.25 0 0 1 0-1.39c.07-.211.205-.445.5-.792.3-.354.72-.774 1.323-1.377l5.656-5.657Zm.883-2.58c-.36.117-.66.322-.95.568a17.82 17.82 0 0 0-.972.93l-.021.021-5.657 5.657-.023.023c-.575.575-1.038 1.038-1.383 1.444-.355.418-.628.825-.782 1.299a3.75 3.75 0 0 0 0 2.318c.154.474.427.88.782 1.298.345.406.808.87 1.383 1.444l.023.023.99.99.023.023c.574.575 1.038 1.038 1.444 1.383.418.355.824.628 1.298.782a3.75 3.75 0 0 0 2.318 0c.474-.154.88-.427 1.299-.782.406-.345.87-.809 1.444-1.383l.023-.023 5.657-5.657.021-.021c.378-.378.693-.693.93-.972.246-.29.451-.59.568-.95a2.75 2.75 0 0 0 0-1.7 2.278 2.278 0 0 0-.224-.481l.826-.826.021-.021c.378-.378.693-.693.93-.972.247-.29.451-.59.568-.95a2.75 2.75 0 0 0 0-1.7c-.117-.36-.321-.66-.568-.95a17.818 17.818 0 0 0-.93-.971l-.021-.022-.424-.424-.022-.021a17.823 17.823 0 0 0-.971-.93c-.291-.247-.59-.451-.95-.568a2.75 2.75 0 0 0-1.7 0c-.36.117-.66.321-.95.568-.279.237-.594.552-.972.93l-.022.021-.825.825a2.285 2.285 0 0 0-.481-.223 2.75 2.75 0 0 0-1.7 0Zm3.324 1.202c.095.093.194.192.297.296l.022.021 3.253 3.253.021.022c.104.103.203.202.296.297l.743-.743c.405-.405.676-.677.868-.903.187-.22.254-.347.286-.443a1.25 1.25 0 0 0 0-.773c-.032-.097-.1-.223-.286-.443-.192-.226-.463-.498-.868-.903l-.424-.424c-.405-.405-.677-.676-.903-.868-.22-.187-.346-.254-.443-.286a1.25 1.25 0 0 0-.773 0c-.096.032-.223.1-.443.286-.226.192-.498.463-.903.868l-.743.743Zm-7.6 9.368a.75.75 0 1 0-1.061 1.061l2.121 2.121a.75.75 0 1 0 1.06-1.06l-2.12-2.122Z" fill="#151E28"/></svg>