<svg viewBox="0 0 24 24" fill="none" xmlns="http://www.w3.org/2000/svg"><path fill-rule="evenodd" clip-rule="evenodd" d="M22 12c0 5.523-4.477 10-10 10S2 17.523 2 12 6.477 2 12 2s10 4.477 10 10Zm-8-3a2 2 0 1 1-4 0 2 2 0 0 1 4 0Zm-6 6.667A2.667 2.667 0 0 1 10.667 13h2.666A2.667 2.667 0 0 1 16 15.667c0 .736-.597 1.333-1.333 1.333H9.333A1.333 1.333 0 0 1 8 15.667Z" fill="#636F7E" fill-opacity=".16"/><path fill-rule="evenodd" clip-rule="evenodd" d="M2.75 12a9.25 9.25 0 1 1 18.5 0 9.25 9.25 0 0 1-18.5 0ZM12 1.25C6.063 1.25 1.25 6.063 1.25 12S6.063 22.75 12 22.75 22.75 17.937 22.75 12 17.937 1.25 12 1.25Zm0 6.5a1.25 1.25 0 1 0 0 2.5 1.25 1.25 0 0 0 0-2.5ZM9.25 9a2.75 2.75 0 1 1 5.5 0 2.75 2.75 0 0 1-5.5 0Zm1.417 4.75a1.917 1.917 0 0 0-1.917 1.917c0 .322.261.583.583.583h5.334a.583.583 0 0 0 .583-.583 1.917 1.917 0 0 0-1.917-1.917h-2.666ZM7.25 15.667a3.417 3.417 0 0 1 3.417-3.417h2.666a3.417 3.417 0 0 1 3.417 3.417c0 1.15-.933 2.083-2.083 2.083H9.333a2.083 2.083 0 0 1-2.083-2.083Z" fill="#151E28"/></svg>