<svg viewBox="0 0 24 24" fill="none" xmlns="http://www.w3.org/2000/svg"><path fill-rule="evenodd" clip-rule="evenodd" d="M12 12a4 4 0 1 0 0-8 4 4 0 0 0 0 8Zm-7 7a4 4 0 0 1 4-4h6a4 4 0 0 1 4 4 2 2 0 0 1-2 2H7a2 2 0 0 1-2-2Z" fill="#636F7E" fill-opacity=".16"/><path fill-rule="evenodd" clip-rule="evenodd" d="M8.75 8a3.25 3.25 0 1 1 6.5 0 3.25 3.25 0 0 1-6.5 0ZM12 3.25a4.75 4.75 0 1 0 0 9.5 4.75 4.75 0 0 0 0-9.5ZM5.75 19A3.25 3.25 0 0 1 9 15.75h6A3.25 3.25 0 0 1 18.25 19c0 .69-.56 1.25-1.25 1.25H7c-.69 0-1.25-.56-1.25-1.25ZM9 14.25A4.75 4.75 0 0 0 4.25 19 2.75 2.75 0 0 0 7 21.75h10A2.75 2.75 0 0 0 19.75 19 4.75 4.75 0 0 0 15 14.25H9Z" fill="#151E28"/></svg>