<svg viewBox="0 0 24 24" fill="none" xmlns="http://www.w3.org/2000/svg"><path fill-rule="evenodd" clip-rule="evenodd" d="M10 12a4 4 0 1 0 0-8 4 4 0 0 0 0 8Zm-7 7a4 4 0 0 1 4-4h6a4 4 0 0 1 4 4 2 2 0 0 1-2 2H5a2 2 0 0 1-2-2Z" fill="#636F7E" fill-opacity=".16"/><path fill-rule="evenodd" clip-rule="evenodd" d="M6.75 8a3.25 3.25 0 1 1 6.5 0 3.25 3.25 0 0 1-6.5 0ZM10 3.25a4.75 4.75 0 1 0 0 9.5 4.75 4.75 0 0 0 0-9.5Zm6 0a.75.75 0 0 0 0 1.5 3.25 3.25 0 0 1 0 6.5.75.75 0 0 0 0 1.5 4.75 4.75 0 1 0 0-9.5Zm-9 12.5A3.25 3.25 0 0 0 3.75 19c0 .69.56 1.25 1.25 1.25h10c.69 0 1.25-.56 1.25-1.25A3.25 3.25 0 0 0 13 15.75H7ZM2.25 19A4.75 4.75 0 0 1 7 14.25h6A4.75 4.75 0 0 1 17.75 19 2.75 2.75 0 0 1 15 21.75H5A2.75 2.75 0 0 1 2.25 19ZM18 14.25a.75.75 0 0 0 0 1.5h1A3.25 3.25 0 0 1 22.25 19c0 .69-.56 1.25-1.25 1.25h-2a.75.75 0 0 0 0 1.5h2A2.75 2.75 0 0 0 23.75 19 4.75 4.75 0 0 0 19 14.25h-1Z" fill="#151E28"/></svg>