<svg viewBox="0 0 24 24" fill="none" xmlns="http://www.w3.org/2000/svg"><path fill-rule="evenodd" clip-rule="evenodd" d="M10 12a4 4 0 1 0 0-8 4 4 0 0 0 0 8Zm-7 7a4 4 0 0 1 4-4h6a4 4 0 0 1 4 4 2 2 0 0 1-2 2H5a2 2 0 0 1-2-2Z" fill="#636F7E" fill-opacity=".16"/><path fill-rule="evenodd" clip-rule="evenodd" d="M6.75 8a3.25 3.25 0 1 1 6.5 0 3.25 3.25 0 0 1-6.5 0ZM10 3.25a4.75 4.75 0 1 0 0 9.5 4.75 4.75 0 0 0 0-9.5ZM3.75 19A3.25 3.25 0 0 1 7 15.75h6A3.25 3.25 0 0 1 16.25 19c0 .69-.56 1.25-1.25 1.25H5c-.69 0-1.25-.56-1.25-1.25ZM7 14.25A4.75 4.75 0 0 0 2.25 19 2.75 2.75 0 0 0 5 21.75h10A2.75 2.75 0 0 0 17.75 19 4.75 4.75 0 0 0 13 14.25H7Zm13-10a.75.75 0 0 0-.75.75v5a.75.75 0 0 0 1.5 0V5a.75.75 0 0 0-.75-.75ZM20 14a1 1 0 1 0 0-2 1 1 0 0 0 0 2Z" fill="#151E28"/></svg>