<svg viewBox="0 0 24 24" fill="none" xmlns="http://www.w3.org/2000/svg"><path fill-rule="evenodd" clip-rule="evenodd" d="M4 8.4c0-2.24 0-3.36.436-4.216a4 4 0 0 1 1.748-1.748C7.04 2 8.16 2 10.4 2h3.2c2.24 0 3.36 0 4.216.436a4 4 0 0 1 1.748 1.748C20 5.04 20 6.16 20 8.4v7.2c0 2.24 0 3.36-.436 4.216a4 4 0 0 1-1.748 1.748C16.96 22 15.84 22 13.6 22h-3.2c-2.24 0-3.36 0-4.216-.436a4 4 0 0 1-1.748-1.748C4 18.96 4 17.84 4 15.6V8.4ZM14 11a2 2 0 1 1-4 0 2 2 0 0 1 4 0Zm-6 6.667A2.667 2.667 0 0 1 10.667 15h2.666A2.667 2.667 0 0 1 16 17.667c0 .736-.597 1.333-1.333 1.333H9.333A1.333 1.333 0 0 1 8 17.667Z" fill="#636F7E" fill-opacity=".16"/><path fill-rule="evenodd" clip-rule="evenodd" d="M10.4 1.25h-.033c-1.092 0-1.958 0-2.655.057-.714.058-1.317.18-1.868.46a4.75 4.75 0 0 0-2.076 2.077c-.281.55-.403 1.154-.461 1.868-.057.697-.057 1.563-.057 2.655v7.266c0 1.092 0 1.958.057 2.655.058.714.18 1.317.46 1.869a4.75 4.75 0 0 0 2.077 2.075c.55.281 1.154.403 1.868.461.697.057 1.563.057 2.655.057h3.266c1.092 0 1.958 0 2.655-.057.714-.058 1.317-.18 1.869-.46a4.75 4.75 0 0 0 2.075-2.076c.281-.552.403-1.155.461-1.869.057-.697.057-1.563.057-2.655V8.367c0-1.092 0-1.958-.057-2.655-.058-.714-.18-1.317-.46-1.868a4.75 4.75 0 0 0-2.076-2.076c-.552-.281-1.155-.403-1.869-.461-.697-.057-1.563-.057-2.655-.057H10.4ZM6.525 3.104c.304-.155.688-.251 1.309-.302.63-.051 1.434-.052 2.566-.052h3.2c1.133 0 1.937 0 2.566.052.62.05 1.005.147 1.31.302a3.25 3.25 0 0 1 1.42 1.42c.155.305.251.69.302 1.31.051.63.052 1.434.052 2.566v7.2c0 1.133 0 1.937-.052 2.566-.05.62-.147 1.005-.302 1.31a3.25 3.25 0 0 1-1.42 1.42c-.305.155-.69.251-1.31.302-.63.051-1.434.052-2.566.052h-3.2c-1.132 0-1.937 0-2.566-.052-.62-.05-1.005-.147-1.31-.302a3.25 3.25 0 0 1-1.42-1.42c-.155-.305-.251-.69-.302-1.31-.051-.63-.052-1.433-.052-2.566V8.4c0-1.132 0-1.937.052-2.566.05-.62.147-1.005.302-1.31a3.25 3.25 0 0 1 1.42-1.42ZM8.25 5A.75.75 0 0 1 9 4.25h6a.75.75 0 0 1 0 1.5H9A.75.75 0 0 1 8.25 5Zm2.5 6a1.25 1.25 0 1 1 2.5 0 1.25 1.25 0 0 1-2.5 0ZM12 8.25a2.75 2.75 0 1 0 0 5.5 2.75 2.75 0 0 0 0-5.5Zm-3.25 9.417c0-1.059.858-1.917 1.917-1.917h2.666c1.059 0 1.917.858 1.917 1.917a.583.583 0 0 1-.583.583H9.333a.583.583 0 0 1-.583-.583Zm1.917-3.417a3.417 3.417 0 0 0-3.417 3.417c0 1.15.933 2.083 2.083 2.083h5.334c1.15 0 2.083-.933 2.083-2.083a3.417 3.417 0 0 0-3.417-3.417h-2.666Z" fill="#151E28"/></svg>