<svg viewBox="0 0 24 24" fill="none" xmlns="http://www.w3.org/2000/svg"><path fill-rule="evenodd" clip-rule="evenodd" d="M18.8 21h-12c-1.68 0-2.52 0-3.163-.327a3 3 0 0 1-1.31-1.311C1.998 18.72 1.998 17.88 2 16.2V5c.165.33.247.495.34.638a3 3 0 0 0 2.173 1.343c.17.02.354.02.723.02h13.563c1.12 0 1.68 0 2.108.217a2 2 0 0 1 .874.874C22 8.52 22 9.08 22 10.2v7.6c0 1.12 0 1.68-.218 2.108a2 2 0 0 1-.874.874C20.48 21 19.92 21 18.8 21Zm1.2-5a2 2 0 1 1 0-4h1.5v4H20Z" fill="#636F7E" fill-opacity=".16"/><path fill-rule="evenodd" clip-rule="evenodd" d="M1.25 5A2.75 2.75 0 0 1 4 2.25h16a.75.75 0 0 1 0 1.5H4A1.25 1.25 0 0 0 2.75 5v.041A1.25 1.25 0 0 0 4 6.25h14.83c.534 0 .98 0 1.344.03.38.03.737.098 1.074.27a2.75 2.75 0 0 1 1.202 1.202c.172.337.239.693.27 1.073.03.365.03.81.03 1.345v7.66c0 .535 0 .98-.03 1.345-.031.38-.098.736-.27 1.073a2.751 2.751 0 0 1-1.202 1.202c-.337.172-.694.24-1.074.27-.364.03-.81.03-1.344.03H6.768c-.813 0-1.469 0-2-.043-.546-.045-1.026-.14-1.47-.366a3.75 3.75 0 0 1-1.64-1.639c-.226-.444-.32-.924-.365-1.47-.043-.532-.043-1.187-.043-2V5Zm1.5 11.2V7.45c.375.192.8.3 1.25.3h14.8c.572 0 .956 0 1.252.025.287.023.425.065.515.111.235.12.427.311.546.547.047.09.088.227.112.514.024.296.025.68.025 1.253v1.05H20a2.75 2.75 0 0 0 0 5.5h1.25v1.05c0 .572 0 .957-.025 1.252-.024.288-.065.425-.112.515a1.25 1.25 0 0 1-.546.547c-.09.046-.228.088-.515.111-.296.024-.68.025-1.252.025h-12c-.853 0-1.447 0-1.91-.038-.453-.038-.714-.107-.912-.207a2.25 2.25 0 0 1-.983-.984c-.1-.197-.17-.458-.207-.912-.038-.462-.038-1.057-.038-1.91Zm18.5-.95v-2.5H20a1.25 1.25 0 0 0 0 2.5h1.25Z" fill="#151E28"/></svg>