<svg viewBox="0 0 24 24" fill="none" xmlns="http://www.w3.org/2000/svg"><path d="M5 11.4c0-2.24 0-3.36.436-4.216a4 4 0 0 1 1.748-1.748C8.04 5 9.16 5 11.4 5h1.2c2.24 0 3.36 0 4.216.436a4 4 0 0 1 1.748 1.748C19 8.04 19 9.16 19 11.4v1.2c0 2.24 0 3.36-.436 4.216a4 4 0 0 1-1.748 1.748C15.96 19 14.84 19 12.6 19h-1.2c-2.24 0-3.36 0-4.216-.436a4 4 0 0 1-1.748-1.748C5 15.96 5 14.84 5 12.6v-1.2Z" fill="#636F7E" fill-opacity=".16"/><path fill-rule="evenodd" clip-rule="evenodd" d="M7.25 2A.75.75 0 0 1 8 1.25h8a.75.75 0 0 1 0 1.5H8A.75.75 0 0 1 7.25 2Zm4.15 2.25h-.033c-1.092 0-1.958 0-2.655.057-.714.058-1.317.18-1.868.46a4.75 4.75 0 0 0-2.076 2.077c-.281.55-.403 1.154-.461 1.868-.057.697-.057 1.563-.057 2.655v1.266c0 1.092 0 1.958.057 2.655.058.714.18 1.317.46 1.869a4.75 4.75 0 0 0 2.077 2.075c.55.281 1.154.403 1.868.461.697.057 1.563.057 2.655.057h1.266c1.092 0 1.958 0 2.655-.057.714-.058 1.317-.18 1.869-.46a4.75 4.75 0 0 0 2.075-2.076c.281-.552.403-1.155.461-1.869.057-.697.057-1.563.057-2.655v-1.266c0-1.092 0-1.958-.057-2.655-.058-.714-.18-1.317-.46-1.868a4.75 4.75 0 0 0-2.076-2.076c-.552-.281-1.155-.403-1.869-.461-.697-.057-1.563-.057-2.655-.057H11.4ZM7.525 6.104c.304-.155.688-.251 1.309-.302.63-.051 1.434-.052 2.566-.052h1.2c1.133 0 1.937 0 2.566.052.62.05 1.005.147 1.31.302a3.25 3.25 0 0 1 1.42 1.42c.155.305.251.69.302 1.31.051.63.052 1.434.052 2.566v1.2c0 1.133 0 1.937-.052 2.566-.05.62-.147 1.005-.302 1.31a3.25 3.25 0 0 1-1.42 1.42c-.305.155-.69.251-1.31.302-.63.051-1.434.052-2.566.052h-1.2c-1.133 0-1.937 0-2.566-.052-.62-.05-1.005-.147-1.31-.302a3.25 3.25 0 0 1-1.42-1.42c-.155-.305-.251-.69-.302-1.31-.051-.63-.052-1.434-.052-2.566v-1.2c0-1.133 0-1.937.052-2.566.05-.62.147-1.005.302-1.31a3.25 3.25 0 0 1 1.42-1.42ZM12.75 9a.75.75 0 0 0-1.5 0v3c0 .199.079.39.22.53l1.5 1.5a.75.75 0 1 0 1.06-1.06l-1.28-1.28V9ZM8 22.75a.75.75 0 0 1 0-1.5h8a.75.75 0 0 1 0 1.5H8Z" fill="#151E28"/></svg>