<svg viewBox="0 0 24 24" fill="none" xmlns="http://www.w3.org/2000/svg"><circle cx="12" cy="4" r="2" fill="#636F7E" fill-opacity=".16"/><path fill-rule="evenodd" clip-rule="evenodd" d="M10.75 4a1.25 1.25 0 1 1 2.5 0 1.25 1.25 0 0 1-2.5 0ZM12 1.25a2.75 2.75 0 1 0 0 5.5 2.75 2.75 0 0 0 0-5.5Zm0 7a.75.75 0 0 1 .75.75v2.25H18a.75.75 0 0 1 0 1.5h-5.25V13c0 .476 0 .796.017 1.043.017.241.046.358.078.435.127.307.37.55.677.677.077.032.194.061.435.078.247.017.567.017 1.043.017h.025c.445 0 .816 0 1.12.02.317.022.617.069.907.19a2.75 2.75 0 0 1 1.489 1.488c.12.29.167.59.188.907.021.304.021.675.021 1.12V20c0 .69.56 1.25 1.25 1.25a.75.75 0 0 1 0 1.5A2.75 2.75 0 0 1 17.25 20v-1c0-.476 0-.796-.017-1.043-.017-.241-.046-.358-.078-.435a1.25 1.25 0 0 0-.677-.677c-.077-.032-.194-.061-.435-.078A17.073 17.073 0 0 0 15 16.75h-.025c-.445 0-.816 0-1.12-.02a2.822 2.822 0 0 1-.907-.19 2.75 2.75 0 0 1-1.489-1.488c-.12-.29-.167-.59-.188-.907-.021-.304-.021-.675-.021-1.12V9a.75.75 0 0 1 .75-.75Zm-3 4.5a4.25 4.25 0 1 0 3.4 6.8.75.75 0 1 1 1.2.901A5.75 5.75 0 1 1 9 11.25a.75.75 0 0 1 0 1.5Z" fill="#151E28"/></svg>