<svg viewBox="0 0 24 24" fill="none" xmlns="http://www.w3.org/2000/svg"><path d="M17.192 9c-1.778 0-3.54-.34-5.192-1-1.652-.66-3.414-1-5.193-1h-2.56c.602 3.146 2.425 7 7.753 7 4.227 0 6.248-2.426 7.203-5h-2.01Z" fill="#636F7E" fill-opacity=".16"/><path fill-rule="evenodd" clip-rule="evenodd" d="M4.718 3.75a15.808 15.808 0 0 0 .164 2.5h1.925c1.875 0 3.732.358 5.471 1.054 1.563.625 3.231.946 4.915.946h1.475c.405-1.284.554-2.58.599-3.565.016-.362.018-.68.015-.935H4.718Zm6.532 10.975v5.525H8a.75.75 0 0 0 0 1.5h8a.75.75 0 0 0 0-1.5h-3.25v-5.525c2.045-.138 3.613-.842 4.793-1.88 1.306-1.15 2.083-2.66 2.547-4.118.464-1.458.626-2.903.675-3.974a16.924 16.924 0 0 0-.007-1.677 9.43 9.43 0 0 0-.008-.103l-.002-.028v-.012L20 3l.747-.068A.75.75 0 0 0 20 2.25H4a.75.75 0 0 0-.747.682L4 3a74.326 74.326 0 0 0-.747-.067v.012l-.003.028a12.087 12.087 0 0 0-.025.475c-.01.317-.014.767.01 1.305a16.92 16.92 0 0 0 .276 2.388c.313 1.64.957 3.538 2.278 5.035 1.225 1.388 2.989 2.382 5.461 2.55Zm.78-1.475c1.944-.006 3.326-.562 4.328-1.37.725-.583 1.278-1.32 1.697-2.13h-.862c-1.875 0-3.732-.358-5.472-1.054a13.232 13.232 0 0 0-4.914-.946h-1.62c.047.174.097.348.153.523.411 1.293 1.071 2.532 2.109 3.445.991.873 2.378 1.492 4.358 1.53l.193.002h.03Z" fill="#151E28"/></svg>