<svg viewBox="0 0 24 24" fill="none" xmlns="http://www.w3.org/2000/svg"><path d="M14 21v-7l2.078-2.078a6.563 6.563 0 0 0-.703-9.89L15.333 2A.833.833 0 0 0 14 2.667V6a2 2 0 0 1-4 0V2.667A.833.833 0 0 0 8.667 2l-.042.031a6.563 6.563 0 0 0-.703 9.891L10 14v7a2 2 0 1 0 4 0Z" fill="#636F7E" fill-opacity=".16"/><path fill-rule="evenodd" clip-rule="evenodd" d="M8.217 1.4C9.26.617 10.75 1.362 10.75 2.667V6a1.25 1.25 0 1 0 2.5 0V2.667c0-1.305 1.49-2.05 2.533-1.267l.042.031a7.313 7.313 0 0 1 .783 11.022L14.75 14.31V21a2.75 2.75 0 1 1-5.5 0v-6.69l-1.858-1.858A7.313 7.313 0 0 1 8.175 1.43l.042-.03Zm.942 1.182a.076.076 0 0 0-.042.018l-.042.031a5.813 5.813 0 0 0-.623 8.761l2.078 2.078c.14.14.22.331.22.53v7a1.25 1.25 0 1 0 2.5 0v-7a.75.75 0 0 1 .22-.53l2.077-2.078a5.813 5.813 0 0 0-.622-8.76l-.042-.032a.076.076 0 0 0-.042-.018.09.09 0 0 0-.045.01.09.09 0 0 0-.035.03.076.076 0 0 0-.011.045V6a2.75 2.75 0 1 1-5.5 0V2.667a.076.076 0 0 0-.01-.045.09.09 0 0 0-.036-.03.09.09 0 0 0-.045-.01Z" fill="#151E28"/></svg>