<svg xmlns="http://www.w3.org/2000/svg" viewBox="0 0 24 24"><path fill="#151E28" d="M12 1.25c5.937 0 10.75 4.813 10.75 10.75S17.937 22.75 12 22.75 1.25 17.937 1.25 12 6.063 1.25 12 1.25Zm-3 7a.75.75 0 0 0-.751.75v.232c0 .813 0 1.469.043 2 .045.546.139 1.026.365 1.471.36.705.934 1.279 1.64 1.638.444.226.924.321 1.47.366.531.043 1.187.043 2 .043h.423l-.72.72a.749.749 0 0 0 .326 1.275.749.749 0 0 0 .734-.215l2-2a.75.75 0 0 0 0-1.06l-2-2a.749.749 0 0 0-1.275.326.749.749 0 0 0 .215.734l.72.72h-.39c-.853 0-1.447-.001-1.909-.038-.454-.037-.715-.107-.912-.207a2.253 2.253 0 0 1-.984-.983c-.1-.198-.17-.459-.207-.912-.038-.463-.038-1.057-.038-1.91V9A.75.75 0 0 0 9 8.25Z"/></svg>