<svg xmlns="http://www.w3.org/2000/svg" viewBox="0 0 24 24"><path fill="#151E28" d="M9.367 2.25h5.266c1.092 0 1.958 0 2.655.057.714.058 1.317.18 1.869.461a4.744 4.744 0 0 1 2.076 2.076c.28.551.402 1.154.46 1.868.057.697.057 1.563.057 2.655v5.266c0 1.092 0 1.958-.057 2.655-.058.714-.18 1.317-.461 1.869a4.752 4.752 0 0 1-2.075 2.076c-.552.28-1.155.402-1.869.46-.697.057-1.563.057-2.655.057H9.367c-1.092 0-1.958 0-2.655-.057-.714-.058-1.318-.18-1.868-.461a4.75 4.75 0 0 1-2.077-2.075c-.28-.552-.402-1.155-.46-1.869-.057-.697-.057-1.563-.057-2.655V9.367c0-1.092 0-1.958.057-2.655.058-.714.18-1.318.461-1.868a4.752 4.752 0 0 1 2.076-2.077c.551-.28 1.154-.402 1.868-.46.697-.057 1.563-.057 2.655-.057ZM8.75 13v-.8c0-.573.001-.957.025-1.253.023-.287.065-.424.111-.515.12-.235.312-.426.547-.546.09-.046.227-.088.514-.111.296-.025.681-.025 1.253-.025h1.6c.573 0 .957.001 1.253.025.287.023.424.065.515.111.235.12.426.311.546.546.046.091.088.228.111.516.025.295.025.68.025 1.252v.8a.75.75 0 0 0 1.5 0v-.83c0-.535 0-.98-.03-1.345-.03-.38-.098-.736-.27-1.073a2.749 2.749 0 0 0-1.202-1.202c-.337-.172-.693-.24-1.073-.27-.365-.03-.81-.03-1.345-.03h-1.66c-.535 0-.98 0-1.345.03-.38.03-.736.098-1.073.27A2.749 2.749 0 0 0 7.55 9.752c-.172.337-.24.693-.27 1.073-.03.365-.03.81-.03 1.345V13a.75.75 0 0 0 1.5 0Zm2.72-1.53-2 2a.749.749 0 0 0 .326 1.275.749.749 0 0 0 .734-.215l.72-.72V17a.75.75 0 0 0 1.5 0v-3.19l.72.72a.751.751 0 0 0 1.042-.018.751.751 0 0 0 .018-1.042l-2-2a.75.75 0 0 0-1.06 0Z"/></svg>