<svg xmlns="http://www.w3.org/2000/svg" viewBox="0 0 24 24"><path fill="#151E28" d="M12 1.25c5.937 0 10.75 4.813 10.75 10.75S17.937 22.75 12 22.75 1.25 17.937 1.25 12 6.063 1.25 12 1.25ZM7.249 16a.75.75 0 0 0 1.5 0v-.013a5.142 5.142 0 0 0 4.99.852 5.142 5.142 0 0 0 3.304-3.835.749.749 0 1 0-1.47-.293 3.644 3.644 0 0 1-5.963 2.04h.389a.751.751 0 0 0 0-1.501h-2a.75.75 0 0 0-.75.75Zm8.75-8.75a.75.75 0 0 0-.75.75v.013a5.144 5.144 0 0 0-8.293 2.984.75.75 0 0 0 1.471.293 3.645 3.645 0 0 1 5.962-2.04h-.39a.75.75 0 0 0 0 1.5h2a.75.75 0 0 0 .75-.75V8a.75.75 0 0 0-.75-.75Z"/></svg>