<svg xmlns="http://www.w3.org/2000/svg" viewBox="0 0 24 24"><path fill="#151E28" d="M12 1.25c5.937 0 10.75 4.813 10.75 10.75S17.937 22.75 12 22.75 1.25 17.937 1.25 12 6.063 1.25 12 1.25Zm0 5a.749.749 0 0 0-.53.22L9.803 8.136a.75.75 0 1 0 1.06 1.061l.387-.386v2.439H8.81l.387-.386a.75.75 0 0 0-1.06-1.061L6.47 11.47a.75.75 0 0 0 0 1.06l1.666 1.667a.75.75 0 1 0 1.061-1.06l-.386-.387h2.439v2.44l-.386-.387a.75.75 0 0 0-1.061 1.06l1.667 1.667a.75.75 0 0 0 1.06 0l1.667-1.666a.75.75 0 0 0-1.06-1.061l-.387.386V12.75h2.44l-.387.386a.75.75 0 0 0 1.06 1.061l1.667-1.667a.75.75 0 0 0 0-1.06l-1.666-1.667a.75.75 0 0 0-1.061 1.06l.386.387H12.75V8.81l.386.387a.75.75 0 0 0 1.061-1.06L12.53 6.47a.749.749 0 0 0-.53-.22Z"/></svg>