<svg xmlns="http://www.w3.org/2000/svg" viewBox="0 0 24 24"><path fill="#151E28" d="M12 1.25c5.937 0 10.75 4.813 10.75 10.75S17.937 22.75 12 22.75 1.25 17.937 1.25 12 6.063 1.25 12 1.25ZM9.522 8.845a.75.75 0 1 0-.574-1.386 2.75 2.75 0 0 0-1.489 1.489c-.12.29-.167.59-.188.907-.021.304-.021.675-.021 1.12v1.855c0 .535 0 .98.03 1.345.03.38.098.736.27 1.074.264.517.685.938 1.202 1.201.337.172.693.24 1.073.27.365.03.81.03 1.345.03h1.855c.445 0 .816 0 1.12-.02.318-.022.617-.069.907-.19a2.754 2.754 0 0 0 1.489-1.487.75.75 0 1 0-1.386-.575c-.127.307-.37.55-.677.677-.077.032-.194.061-.435.078-.247.017-.567.017-1.043.017h-1.8c-.572 0-.957 0-1.253-.025-.287-.023-.424-.065-.514-.111a1.255 1.255 0 0 1-.547-.546c-.046-.091-.088-.228-.111-.515-.024-.296-.025-.68-.025-1.253V11c0-.476 0-.796.017-1.043.017-.24.046-.358.078-.435.127-.307.37-.55.677-.677ZM15.15 12a.75.75 0 0 0-.75-.75h-.59l2.72-2.72a.749.749 0 0 0-.326-1.275.749.749 0 0 0-.734.215l-2.72 2.72V9.6a.75.75 0 0 0-1.5 0V12c0 .414.336.75.75.75h2.4a.75.75 0 0 0 .75-.75Z"/></svg>