<svg xmlns="http://www.w3.org/2000/svg" viewBox="0 0 24 24"><path fill="#151E28" d="M9.367 2.25h5.266c1.092 0 1.958 0 2.655.057.714.058 1.317.18 1.869.461a4.744 4.744 0 0 1 2.076 2.076c.28.551.402 1.154.46 1.868.057.697.057 1.563.057 2.655v5.266c0 1.092 0 1.958-.057 2.655-.058.714-.18 1.317-.461 1.869a4.752 4.752 0 0 1-2.075 2.076c-.552.28-1.155.402-1.869.46-.697.057-1.563.057-2.655.057H9.367c-1.092 0-1.958 0-2.655-.057-.714-.058-1.318-.18-1.868-.461a4.75 4.75 0 0 1-2.077-2.075c-.28-.552-.402-1.155-.46-1.869-.057-.697-.057-1.563-.057-2.655V9.367c0-1.092 0-1.958.057-2.655.058-.714.18-1.318.461-1.868a4.752 4.752 0 0 1 2.076-2.077c.551-.28 1.154-.402 1.868-.46.697-.057 1.563-.057 2.655-.057ZM8 16.75a.75.75 0 0 0 .75-.75v-.2c0-.853 0-1.447.038-1.91.037-.453.107-.714.207-.912.216-.423.56-.767.984-.983.197-.1.458-.17.912-.207.343-.028.758-.035 1.297-.037l-.718.719a.751.751 0 0 0 .018 1.042.751.751 0 0 0 1.042.018l2-2a.75.75 0 0 0 0-1.06l-2-2a.751.751 0 0 0-1.042.018.751.751 0 0 0-.018 1.042l.72.72c-.553.003-1.023.01-1.421.043-.547.045-1.027.14-1.471.366a3.752 3.752 0 0 0-1.64 1.638c-.226.445-.32.925-.365 1.471-.043.531-.043 1.187-.043 2V16c0 .414.336.75.75.75Zm6.47-3.22a.75.75 0 0 0 1.06 0l2-2a.75.75 0 0 0 0-1.06l-2-2a.749.749 0 0 0-1.275.326.749.749 0 0 0 .215.734L15.94 11l-1.47 1.47a.75.75 0 0 0 0 1.06Z"/></svg>