<svg xmlns="http://www.w3.org/2000/svg" viewBox="0 0 24 24"><path fill="#151E28" d="M9.367 2.25h5.266c1.092 0 1.958 0 2.655.057.714.058 1.317.18 1.869.461a4.744 4.744 0 0 1 2.076 2.076c.28.551.402 1.154.46 1.868.057.697.057 1.563.057 2.655v5.266c0 1.092 0 1.958-.057 2.655-.058.714-.18 1.317-.461 1.869a4.752 4.752 0 0 1-2.075 2.076c-.552.28-1.155.402-1.869.46-.697.057-1.563.057-2.655.057H9.367c-1.092 0-1.958 0-2.655-.057-.714-.058-1.318-.18-1.868-.461a4.75 4.75 0 0 1-2.077-2.075c-.28-.552-.402-1.155-.46-1.869-.057-.697-.057-1.563-.057-2.655V9.367c0-1.092 0-1.958.057-2.655.058-.714.18-1.318.461-1.868a4.752 4.752 0 0 1 2.076-2.077c.551-.28 1.154-.402 1.868-.46.697-.057 1.563-.057 2.655-.057Zm-.17 7.553a.75.75 0 0 0-1.06 0L6.47 11.47a.75.75 0 0 0 0 1.06l1.666 1.667a.75.75 0 1 0 1.061-1.06l-.386-.387h1.522a.75.75 0 0 0 0-1.5H8.811l.386-.386a.75.75 0 0 0 0-1.061ZM12.53 6.47a.75.75 0 0 0-1.06 0L9.803 8.136a.75.75 0 1 0 1.06 1.061l.387-.386v1.522a.75.75 0 0 0 1.5 0V8.811l.386.386a.75.75 0 0 0 1.061-1.06Zm2.273 4.394.386.386h-1.522a.75.75 0 0 0 0 1.5h1.522l-.386.386a.75.75 0 0 0 1.06 1.061l1.667-1.667a.75.75 0 0 0 0-1.06l-1.666-1.667a.75.75 0 0 0-1.061 1.06Zm-2.053 4.325v-1.522a.75.75 0 0 0-1.5 0v1.522l-.386-.386a.75.75 0 0 0-1.061 1.06l1.667 1.667a.75.75 0 0 0 1.06 0l1.667-1.666a.75.75 0 0 0-1.06-1.061Z"/></svg>