<svg xmlns="http://www.w3.org/2000/svg" viewBox="0 0 24 24"><path fill="#151E28" d="M9.367 2.25h5.266c1.092 0 1.958 0 2.655.057.714.058 1.317.18 1.869.461a4.744 4.744 0 0 1 2.076 2.076c.28.551.402 1.154.46 1.868.057.697.057 1.563.057 2.655v5.266c0 1.092 0 1.958-.057 2.655-.058.714-.18 1.317-.461 1.869a4.752 4.752 0 0 1-2.075 2.076c-.552.28-1.155.402-1.869.46-.697.057-1.563.057-2.655.057H9.367c-1.092 0-1.958 0-2.655-.057-.714-.058-1.318-.18-1.868-.461a4.75 4.75 0 0 1-2.077-2.075c-.28-.552-.402-1.155-.46-1.869-.057-.697-.057-1.563-.057-2.655V9.367c0-1.092 0-1.958.057-2.655.058-.714.18-1.318.461-1.868a4.752 4.752 0 0 1 2.076-2.077c.551-.28 1.154-.402 1.868-.46.697-.057 1.563-.057 2.655-.057Zm.744 5h-.016c-.087 0-.155 0-.215.003A2.75 2.75 0 0 0 7.253 9.88c-.003.06-.003.128-.003.215v2.735c0 .535 0 .98.03 1.345.03.38.098.736.27 1.073.264.518.684.938 1.202 1.202.337.172.693.24 1.073.27.365.03.81.03 1.345.03h2.735c.088 0 .155 0 .215-.003a2.75 2.75 0 0 0 2.627-2.627c.003-.06.003-.127.003-.215v-.016a.75.75 0 0 0-1.5 0l-.001.166a1.25 1.25 0 0 1-1.194 1.194 4.593 4.593 0 0 1-.166.001H11.2c-.572 0-.957 0-1.253-.025-.287-.023-.424-.065-.514-.111a1.255 1.255 0 0 1-.547-.546c-.046-.091-.088-.228-.111-.515-.024-.296-.025-.68-.025-1.253v-2.689l.001-.166a1.25 1.25 0 0 1 1.194-1.194l.166-.001a.75.75 0 0 0 0-1.5ZM12.85 8c0 .414.336.75.75.75h.59l-2.72 2.72a.749.749 0 0 0 .326 1.275.749.749 0 0 0 .734-.215l2.72-2.72v.59a.75.75 0 0 0 1.5 0V8a.75.75 0 0 0-.75-.75h-2.4a.75.75 0 0 0-.75.75Z"/></svg>