<svg xmlns="http://www.w3.org/2000/svg" viewBox="0 0 24 24"><path fill="#151E28" d="M9.253 2.25h5.494c.419 0 .748 0 1.066.076.281.068.549.179.795.33.28.17.512.403.808.7l.052.051 3.126 3.125.05.052c.296.295.53.528.7.808.151.246.262.514.33.794.076.319.076.648.076 1.067v5.494c0 .419 0 .748-.076 1.066a2.759 2.759 0 0 1-.33.795c-.17.28-.403.512-.7.808l-.051.052-3.125 3.126-.052.05c-.296.296-.528.53-.808.7a2.759 2.759 0 0 1-.795.33c-.318.076-.647.076-1.066.076H9.253c-.419 0-.748 0-1.067-.076a2.737 2.737 0 0 1-.794-.33c-.28-.17-.513-.403-.808-.7l-.052-.051-3.126-3.125-.05-.052c-.297-.296-.53-.528-.7-.808a2.693 2.693 0 0 1-.33-.795c-.076-.318-.076-.647-.076-1.066V9.253c0-.419 0-.748.076-1.067.068-.28.179-.548.33-.794.17-.28.403-.513.7-.808l.051-.052 3.125-3.126.052-.05c.295-.297.528-.53.808-.7.246-.151.514-.262.794-.33.319-.076.648-.076 1.067-.076ZM8.75 13v-.8c0-.573.001-.957.025-1.253.023-.287.065-.424.111-.515.12-.235.312-.426.547-.546.09-.046.227-.088.514-.111.296-.025.681-.025 1.253-.025h1.6c.573 0 .957.001 1.253.025.287.023.424.065.515.111.235.12.426.311.546.546.046.091.088.228.111.516.025.295.025.68.025 1.252v.8a.75.75 0 0 0 1.5 0v-.83c0-.535 0-.98-.03-1.345-.03-.38-.098-.736-.27-1.073a2.749 2.749 0 0 0-1.202-1.202c-.337-.172-.693-.24-1.073-.27-.365-.03-.81-.03-1.345-.03h-1.66c-.535 0-.98 0-1.345.03-.38.03-.736.098-1.073.27A2.749 2.749 0 0 0 7.55 9.752c-.172.337-.24.693-.27 1.073-.03.365-.03.81-.03 1.345V13a.75.75 0 0 0 1.5 0Zm2.72-1.53-2 2a.749.749 0 0 0 .326 1.275.749.749 0 0 0 .734-.215l.72-.72V17a.75.75 0 0 0 1.5 0v-3.19l.72.72a.751.751 0 0 0 1.042-.018.751.751 0 0 0 .018-1.042l-2-2a.75.75 0 0 0-1.06 0Z"/></svg>