<svg xmlns="http://www.w3.org/2000/svg" viewBox="0 0 24 24"><path fill="#151E28" d="M13.117 2.479c.485.216.844.614 1.168 1.071.321.455.676 1.067 1.114 1.825l.019.033 5.45 9.413.02.033c.44.76.796 1.375 1.03 1.881.236.51.403 1.021.348 1.55a2.75 2.75 0 0 1-1.118 1.939c-.43.313-.955.424-1.515.475-.555.051-1.267.051-2.145.051H6.512c-.878 0-1.589 0-2.145-.051-.559-.051-1.085-.162-1.515-.475a2.749 2.749 0 0 1-1.119-1.938c-.054-.53.113-1.04.35-1.55.233-.507.59-1.122 1.03-1.882l.018-.033 5.45-9.413.02-.033c.438-.757.793-1.371 1.115-1.825.323-.457.682-.855 1.167-1.071a2.75 2.75 0 0 1 2.234 0Zm.772 15.271h.016c.088 0 .155 0 .215-.003a2.75 2.75 0 0 0 2.627-2.627c.003-.06.003-.128.003-.215V13.17c0-.534 0-.98-.03-1.344-.03-.38-.098-.736-.27-1.073a2.747 2.747 0 0 0-1.2-1.203c-.338-.172-.694-.24-1.074-.27-.365-.03-.81-.03-1.345-.03h-1.735c-.087 0-.155 0-.215.003a2.75 2.75 0 0 0-2.627 2.627c-.003.06-.003.128-.003.215v.016a.75.75 0 0 0 1.5 0l.001-.166a1.25 1.25 0 0 1 1.194-1.194l.166-.001H12.8c.572 0 .957 0 1.252.025.288.023.425.065.516.111.235.12.426.311.546.546.046.091.088.228.111.515.024.296.025.68.025 1.253v1.689l-.001.166a1.25 1.25 0 0 1-1.194 1.194 4.593 4.593 0 0 1-.166.001.75.75 0 0 0 0 1.5Zm-3.126-1.453 1.534-1.534a.75.75 0 0 0 1.453-.263V13a.75.75 0 0 0-.75-.75h-1.5a.75.75 0 0 0-.263 1.452l-1.534 1.535a.75.75 0 0 0-1.453.263V17c0 .414.336.75.75.75h1.5a.75.75 0 0 0 .263-1.453Z"/></svg>