<svg xmlns="http://www.w3.org/2000/svg" viewBox="0 0 24 24"><path fill="#151E28" d="M9.367 2.25h5.266c1.092 0 1.958 0 2.655.057.714.058 1.317.18 1.869.461a4.744 4.744 0 0 1 2.076 2.076c.28.551.402 1.154.46 1.868.057.697.057 1.563.057 2.655v5.266c0 1.092 0 1.958-.057 2.655-.058.714-.18 1.317-.461 1.869a4.752 4.752 0 0 1-2.075 2.076c-.552.28-1.155.402-1.869.46-.697.057-1.563.057-2.655.057H9.367c-1.092 0-1.958 0-2.655-.057-.714-.058-1.318-.18-1.868-.461a4.75 4.75 0 0 1-2.077-2.075c-.28-.552-.402-1.155-.46-1.869-.057-.697-.057-1.563-.057-2.655V9.367c0-1.092 0-1.958.057-2.655.058-.714.18-1.318.461-1.868a4.752 4.752 0 0 1 2.076-2.077c.551-.28 1.154-.402 1.868-.46.697-.057 1.563-.057 2.655-.057Zm7.09 12.005.093-3.429c.043-1.581-1.868-2.403-2.987-1.285l-.17.17-1.777-1.777a1.75 1.75 0 0 0-2.475 0l-.707.708a1.75 1.75 0 0 0 0 2.474l1.777 1.777-.17.17c-1.118 1.12-.296 3.03 1.285 2.987l3.429-.092h.001a1.751 1.751 0 0 0 1.701-1.703Zm-1.499-.04a.25.25 0 0 1-.243.243l-3.43.093a.249.249 0 0 1-.236-.151.248.248 0 0 1 .053-.276l.7-.7a.75.75 0 0 0 0-1.06l-2.307-2.308a.25.25 0 0 1 0-.354l.707-.707a.25.25 0 0 1 .354 0l2.307 2.308a.75.75 0 0 0 1.06 0l.7-.7a.249.249 0 0 1 .276-.054c.095.04.155.134.152.237Z"/></svg>