<svg xmlns="http://www.w3.org/2000/svg" viewBox="0 0 24 24"><path fill="#151E28" d="M12 1.25c5.937 0 10.75 4.813 10.75 10.75S17.937 22.75 12 22.75 1.25 17.937 1.25 12 6.063 1.25 12 1.25ZM16.75 16v-2a.75.75 0 0 0-.75-.75h-2a.75.75 0 0 0 0 1.501h.389a3.644 3.644 0 0 1-5.963-2.04.751.751 0 0 0-1.242-.439.749.749 0 0 0-.228.732 5.142 5.142 0 0 0 3.304 3.835 5.142 5.142 0 0 0 4.99-.852V16a.75.75 0 0 0 1.5 0ZM8 7.25a.75.75 0 0 0-.75.75v2c0 .414.336.75.75.75h2a.75.75 0 0 0 0-1.5h-.39a3.645 3.645 0 0 1 5.962 2.04.749.749 0 1 0 1.471-.293A5.144 5.144 0 0 0 8.75 8.012V8A.75.75 0 0 0 8 7.25Z"/></svg>