<svg xmlns="http://www.w3.org/2000/svg" viewBox="0 0 24 24"><path fill="#151E28" d="M9.367 2.25h5.266c1.092 0 1.958 0 2.655.057.714.058 1.317.18 1.869.461a4.744 4.744 0 0 1 2.076 2.076c.28.551.402 1.154.46 1.868.057.697.057 1.563.057 2.655v5.266c0 1.092 0 1.958-.057 2.655-.058.714-.18 1.317-.461 1.869a4.752 4.752 0 0 1-2.075 2.076c-.552.28-1.155.402-1.869.46-.697.057-1.563.057-2.655.057H9.367c-1.092 0-1.958 0-2.655-.057-.714-.058-1.318-.18-1.868-.461a4.75 4.75 0 0 1-2.077-2.075c-.28-.552-.402-1.155-.46-1.869-.057-.697-.057-1.563-.057-2.655V9.367c0-1.092 0-1.958.057-2.655.058-.714.18-1.318.461-1.868a4.752 4.752 0 0 1 2.076-2.077c.551-.28 1.154-.402 1.868-.46.697-.057 1.563-.057 2.655-.057Zm7.09 7.495v-.001a1.75 1.75 0 0 0-1.702-1.701l-3.43-.093c-1.58-.043-2.402 1.868-1.284 2.987l.17.17-1.777 1.777a1.75 1.75 0 0 0 0 2.475l.707.707a1.75 1.75 0 0 0 2.475 0l1.777-1.777.17.17c1.119 1.118 3.03.296 2.987-1.285Zm-1.742-.203a.25.25 0 0 1 .243.243l.092 3.43a.25.25 0 0 1-.426.183l-.7-.7a.75.75 0 0 0-1.061 0l-2.307 2.307a.25.25 0 0 1-.354 0l-.707-.707a.25.25 0 0 1 0-.354l2.307-2.307a.75.75 0 0 0 0-1.06l-.7-.7a.249.249 0 0 1-.054-.276.249.249 0 0 1 .237-.152Z"/></svg>