<svg xmlns="http://www.w3.org/2000/svg" viewBox="0 0 24 24"><path fill="#151E28" d="M9.253 2.25h5.494c.419 0 .748 0 1.066.076.281.068.549.179.795.33.28.17.512.403.808.7l.052.051 3.126 3.125.05.052c.296.295.53.528.7.808.151.246.262.514.33.794.076.319.076.648.076 1.067v5.494c0 .419 0 .748-.076 1.066a2.759 2.759 0 0 1-.33.795c-.17.28-.403.512-.7.808l-.051.052-3.125 3.126-.052.05c-.296.296-.528.53-.808.7a2.759 2.759 0 0 1-.795.33c-.318.076-.647.076-1.066.076H9.253c-.419 0-.748 0-1.067-.076a2.737 2.737 0 0 1-.794-.33c-.28-.17-.513-.403-.808-.7l-.052-.051-3.126-3.125-.05-.052c-.297-.296-.53-.528-.7-.808a2.693 2.693 0 0 1-.33-.795c-.076-.318-.076-.647-.076-1.066V9.253c0-.419 0-.748.076-1.067.068-.28.179-.548.33-.794.17-.28.403-.513.7-.808l.051-.052 3.125-3.126.052-.05c.295-.297.528-.53.808-.7.246-.151.514-.262.794-.33.319-.076.648-.076 1.067-.076Zm-1.71 7.495v-.001l-.093 3.43c-.043 1.581 1.868 2.403 2.987 1.285l.17-.17 1.777 1.777a1.75 1.75 0 0 0 2.475 0l.707-.707a1.75 1.75 0 0 0 0-2.475l-1.777-1.777.17-.17c1.118-1.119.296-3.03-1.284-2.987l-3.43.093a1.75 1.75 0 0 0-1.702 1.702Zm1.742-.203 3.43-.093a.249.249 0 0 1 .237.152.249.249 0 0 1-.054.276l-.7.7a.75.75 0 0 0 0 1.06l2.307 2.307a.25.25 0 0 1 0 .354l-.707.707a.25.25 0 0 1-.354 0l-2.307-2.307a.75.75 0 0 0-1.061 0l-.7.7a.248.248 0 0 1-.276.053.249.249 0 0 1-.151-.236l.093-3.43a.25.25 0 0 1 .243-.243Z"/></svg>