<svg xmlns="http://www.w3.org/2000/svg" viewBox="0 0 24 24"><path fill="#151E28" d="M13.117 2.479c.485.216.844.614 1.168 1.071.321.455.676 1.067 1.114 1.825l.019.033 5.45 9.413.02.033c.44.76.796 1.375 1.03 1.881.236.51.403 1.021.348 1.55a2.75 2.75 0 0 1-1.118 1.939c-.43.313-.955.424-1.515.475-.555.051-1.267.051-2.145.051H6.512c-.878 0-1.589 0-2.145-.051-.559-.051-1.085-.162-1.515-.475a2.749 2.749 0 0 1-1.119-1.938c-.054-.53.113-1.04.35-1.55.233-.507.59-1.122 1.03-1.882l.018-.033 5.45-9.413.02-.033c.438-.757.793-1.371 1.115-1.825.323-.457.682-.855 1.167-1.071a2.75 2.75 0 0 1 2.234 0ZM7.25 16c0 .966.783 1.75 1.75 1.75h3.358c1.612 0 2.367-1.994 1.16-3.061l-.014-.012 1.744-1.743a1.75 1.75 0 0 0 0-2.475l-.707-.707a1.75 1.75 0 0 0-2.475 0l-1.744 1.743-.01-.012c-1.068-1.208-3.062-.453-3.062 1.159Zm1.75.25a.25.25 0 0 1-.25-.25v-3.358a.25.25 0 0 1 .437-.166l.54.61a.749.749 0 0 0 1.092.034l2.307-2.307a.25.25 0 0 1 .354 0l.707.707a.25.25 0 0 1 0 .353l-2.307 2.308a.752.752 0 0 0 .034 1.092l.61.54a.25.25 0 0 1-.166.437Z"/></svg>