<svg xmlns="http://www.w3.org/2000/svg" viewBox="0 0 24 24"><path fill="#151E28" d="M9.253 2.25h5.494c.419 0 .748 0 1.066.076.281.068.549.179.795.33.28.17.512.403.808.7l.052.051 3.126 3.125.05.052c.296.295.53.528.7.808.151.246.262.514.33.794.076.319.076.648.076 1.067v5.494c0 .419 0 .748-.076 1.066a2.759 2.759 0 0 1-.33.795c-.17.28-.403.512-.7.808l-.051.052-3.125 3.126-.052.05c-.296.296-.528.53-.808.7a2.759 2.759 0 0 1-.795.33c-.318.076-.647.076-1.066.076H9.253c-.419 0-.748 0-1.067-.076a2.737 2.737 0 0 1-.794-.33c-.28-.17-.513-.403-.808-.7l-.052-.051-3.126-3.125-.05-.052c-.297-.296-.53-.528-.7-.808a2.693 2.693 0 0 1-.33-.795c-.076-.318-.076-.647-.076-1.066V9.253c0-.419 0-.748.076-1.067.068-.28.179-.548.33-.794.17-.28.403-.513.7-.808l.051-.052 3.125-3.126.052-.05c.295-.297.528-.53.808-.7.246-.151.514-.262.794-.33.319-.076.648-.076 1.067-.076Zm5.909 5.258a.75.75 0 1 0-.634 1.36c.267.123.48.338.605.604.04.085.076.213.096.48.02.274.021.63.021 1.16V12.8c0 .572 0 .957-.025 1.253-.023.287-.065.424-.111.515-.12.235-.311.426-.546.546-.091.046-.228.088-.515.111-.296.024-.68.025-1.253.025h-1.689c-.53 0-.885 0-1.16-.021-.266-.02-.394-.056-.48-.096a1.25 1.25 0 0 1-.604-.605.75.75 0 1 0-1.36.634 2.747 2.747 0 0 0 1.33 1.33c.318.148.65.206 1.001.233.338.025.75.025 1.245.025h1.748c.534 0 .98 0 1.344-.03.38-.03.736-.098 1.074-.27a2.755 2.755 0 0 0 1.201-1.201c.172-.338.24-.694.27-1.074.03-.364.03-.81.03-1.344v-1.748c0-.494 0-.907-.025-1.245-.027-.352-.085-.683-.233-1a2.747 2.747 0 0 0-1.33-1.33ZM8.85 12c0 .414.336.75.75.75H12a.75.75 0 0 0 .75-.75V9.6a.75.75 0 0 0-1.5 0v.59L8.53 7.47a.751.751 0 0 0-1.042.018.751.751 0 0 0-.018 1.042l2.72 2.72H9.6a.75.75 0 0 0-.75.75Z"/></svg>