<svg xmlns="http://www.w3.org/2000/svg" viewBox="0 0 24 24"><path fill="#151E28" d="M9.367 2.25h5.266c1.092 0 1.958 0 2.655.057.714.058 1.317.18 1.869.461a4.744 4.744 0 0 1 2.076 2.076c.28.551.402 1.154.46 1.868.057.697.057 1.563.057 2.655v5.266c0 1.092 0 1.958-.057 2.655-.058.714-.18 1.317-.461 1.869a4.752 4.752 0 0 1-2.075 2.076c-.552.28-1.155.402-1.869.46-.697.057-1.563.057-2.655.057H9.367c-1.092 0-1.958 0-2.655-.057-.714-.058-1.318-.18-1.868-.461a4.75 4.75 0 0 1-2.077-2.075c-.28-.552-.402-1.155-.46-1.869-.057-.697-.057-1.563-.057-2.655V9.367c0-1.092 0-1.958.057-2.655.058-.714.18-1.318.461-1.868a4.752 4.752 0 0 1 2.076-2.077c.551-.28 1.154-.402 1.868-.46.697-.057 1.563-.057 2.655-.057Zm1.429 5.357-2.49 2.36c-1.148 1.087-.378 3.02 1.204 3.02h.24v.513c0 .966.784 1.75 1.75 1.75h1a1.75 1.75 0 0 0 1.75-1.75v-.513h.24c1.582 0 2.352-1.933 1.204-3.02l-2.49-2.36a1.75 1.75 0 0 0-2.408 0Zm1.376 1.089 2.49 2.359a.25.25 0 0 1-.172.432h-.99a.75.75 0 0 0-.75.75V13.5a.25.25 0 0 1-.25.25h-1a.25.25 0 0 1-.25-.25v-1.264a.75.75 0 0 0-.75-.75h-.99a.252.252 0 0 1-.231-.157.252.252 0 0 1 .059-.273l2.49-2.36a.25.25 0 0 1 .344 0ZM9.75 16.5c0 .414.336.75.75.75h3a.75.75 0 0 0 0-1.5h-3a.75.75 0 0 0-.75.75Z"/></svg>