<svg xmlns="http://www.w3.org/2000/svg" viewBox="0 0 24 24"><path fill="#151E28" d="M2 3.75v.001a.75.75 0 0 1 0-1.5h.085c.621 0 1.047 0 1.436.083A3.75 3.75 0 0 1 6.048 4.24c.187.35.304.76.474 1.357l.024.083 1.02 3.57h5.684V4a.75.75 0 0 1 .75-.75c3.764 0 5.763 1.64 6.773 3.373a7.39 7.39 0 0 1 .975 3.282l.002.065v.061a7.388 7.388 0 0 1-.977 3.347C19.762 15.11 17.764 16.75 14 16.75s-5.762-1.639-6.774-3.372a7.384 7.384 0 0 1-.96-3.058 3.295 3.295 0 0 1-.012-.204l-1.15-4.025c-.203-.71-.277-.955-.38-1.148A2.251 2.251 0 0 0 3.208 3.8c-.214-.046-.47-.05-1.208-.05Zm16 13.5a2.75 2.75 0 1 1 0 5.5 2.75 2.75 0 0 1 0-5.5Zm-8 0a2.75 2.75 0 1 1 0 5.5 2.75 2.75 0 0 1 0-5.5Zm4.75-8h5.413l-.009-.044a5.884 5.884 0 0 0-.677-1.828c-.68-1.165-2.004-2.409-4.727-2.602ZM8.75 20a1.25 1.25 0 1 0 2.5 0 1.25 1.25 0 0 0-2.5 0Zm8 0a1.25 1.25 0 1 0 2.5 0 1.25 1.25 0 0 0-2.5 0Z"/></svg>