<svg xmlns="http://www.w3.org/2000/svg" viewBox="0 0 24 24"><path fill="#151E28" d="M9 21.75H4A1.75 1.75 0 0 1 2.25 20v-.5c0-.982.787-1.709 1.677-1.794 3.008-.29 5.924-1.962 7.89-4.35a1.97 1.97 0 0 0-.901-.415c-.564-.099-1.38.012-2.53.702a.75.75 0 1 1-.772-1.286c1.351-.81 2.535-1.074 3.563-.893 1.033.182 1.776.79 2.29 1.45.491.631.801 1.345.989 1.895.541-.303 1.309-.655 2.171-.798.74-.124 1.575-.097 2.387.27a.771.771 0 0 1 .228.113c.074.04.147.082.218.126.942.589 1.715 1.634 2.252 3.243a.751.751 0 0 1-.862.98.747.747 0 0 1-.561-.506c-.359-1.075-.799-1.74-1.239-2.147A11.743 11.743 0 0 1 9 21.75ZM15.75 5c.006.276.021.553.044.828l.017.243c.031.462.064 1.011.064 1.594 0 1.147-.125 2.512-.704 3.67a.75.75 0 1 1-1.342-.671c.421-.841.546-1.923.546-3 0-.529-.03-1.037-.061-1.491l-.015-.22c-.025-.357-.049-.696-.049-.953A2.75 2.75 0 0 1 17 2.25c1.121 0 1.904.711 2.417 1.55.51.835.835 1.917 1.045 2.982.418 2.124.424 4.467.278 5.341a.751.751 0 0 1-1.225.474.75.75 0 0 1-.254-.72c.108-.655.122-2.811-.27-4.805-.196-.994-.479-1.876-.854-2.49-.373-.61-.75-.832-1.137-.832-.69 0-1.25.56-1.25 1.25Z"/></svg>