<svg xmlns="http://www.w3.org/2000/svg" viewBox="0 0 24 24"><path fill="#151E28" d="M8.768 3.25h6.464c.813 0 1.469 0 2 .043.546.045 1.027.139 1.471.365.705.36 1.279.934 1.638 1.64.226.444.321.924.366 1.47.043.531.043 1.187.043 2v2.599c.173.041.34.103.499.183.517.264.938.685 1.201 1.202.172.337.24.693.27 1.073.03.365.03.81.03 1.345V21a.75.75 0 0 1-1.5 0v-1.25H2.75V21a.75.75 0 0 1-1.5 0v-5.831c0-.535 0-.98.03-1.345.03-.38.098-.736.27-1.074a2.75 2.75 0 0 1 1.202-1.2c.161-.083.328-.141.498-.183V8.768c0-.813 0-1.469.044-2 .045-.546.139-1.026.365-1.47a3.752 3.752 0 0 1 1.639-1.639c.444-.226.924-.321 1.47-.366.532-.043 1.187-.043 2-.043Zm-4.018 8h1.5v-.823c0-.393 0-.696.053-.964a2.75 2.75 0 0 1 2.161-2.16c.267-.053.57-.053.963-.053h.146c.393 0 .696 0 .964.053.56.111 1.071.395 1.463.81a2.745 2.745 0 0 1 1.464-.81c.267-.053.57-.053.963-.053h.146c.393 0 .696 0 .964.053a2.75 2.75 0 0 1 2.16 2.161c.053.267.053.57.053.963v.823h1.5V8.8c0-.852 0-1.447-.038-1.909-.037-.454-.107-.715-.207-.912a2.253 2.253 0 0 0-.983-.984c-.198-.1-.459-.17-.912-.207-.463-.038-1.057-.038-1.909-.038h-6.4c-.853 0-1.447.001-1.91.038-.454.037-.715.107-.912.207a2.25 2.25 0 0 0-.984.984c-.1.197-.169.458-.206.911-.039.463-.039 1.058-.039 1.91v2.45Zm6.5 0v-.81c0-.452-.004-.586-.024-.684a1.25 1.25 0 0 0-.982-.982c-.103-.02-.244-.024-.744-.024-.501 0-.641.004-.744.024a1.25 1.25 0 0 0-.982.982c-.02.103-.024.244-.024.744v.75h3.5Zm5-.75c0-.501-.004-.641-.024-.744a1.25 1.25 0 0 0-.982-.982c-.103-.02-.244-.024-.744-.024-.501 0-.641.004-.744.024a1.25 1.25 0 0 0-.982.982c-.019.098-.024.232-.024.684v.81h3.5Z"/></svg>