<svg xmlns="http://www.w3.org/2000/svg" viewBox="0 0 24 24"><path fill="#151E28" d="M12 2.25A9.75 9.75 0 0 1 21.75 12 9.75 9.75 0 0 1 12 21.75 9.75 9.75 0 0 1 2.25 12 9.75 9.75 0 0 1 12 2.25Zm1.085 6.462a.75.75 0 0 0 .405.98c1.105.46 1.76 1.364 1.76 2.308 0 .944-.655 1.847-1.76 2.307a.75.75 0 1 0 .576 1.386c1.528-.636 2.684-2.008 2.684-3.693s-1.155-3.057-2.685-3.692a.75.75 0 0 0-.98.404Zm-2.17 0h-.001a.75.75 0 0 0-.98-.404C8.406 8.943 7.25 10.316 7.25 12c0 1.684 1.156 3.057 2.684 3.693a.75.75 0 1 0 .576-1.386C9.405 13.848 8.75 12.944 8.75 12s.655-1.848 1.76-2.308a.75.75 0 0 0 .405-.98Z"/></svg>