<svg xmlns="http://www.w3.org/2000/svg" viewBox="0 0 24 24"><path fill="#151E28" d="M9.367 2.25h5.266c1.092 0 1.958 0 2.655.057.714.058 1.317.18 1.869.461a4.744 4.744 0 0 1 2.076 2.076c.28.551.402 1.154.46 1.868.057.697.057 1.563.057 2.655v5.266c0 1.092 0 1.958-.057 2.655-.058.714-.18 1.317-.461 1.869a4.752 4.752 0 0 1-2.075 2.076c-.552.28-1.155.402-1.869.46-.697.057-1.563.057-2.655.057H9.367c-1.092 0-1.958 0-2.655-.057-.714-.058-1.318-.18-1.868-.461a4.75 4.75 0 0 1-2.077-2.075c-.28-.552-.402-1.155-.46-1.869-.057-.697-.057-1.563-.057-2.655V9.367c0-1.092 0-1.958.057-2.655.058-.714.18-1.318.461-1.868a4.752 4.752 0 0 1 2.076-2.077c.551-.28 1.154-.402 1.868-.46.697-.057 1.563-.057 2.655-.057Zm3.718 6.462a.75.75 0 0 0 .405.98c1.105.46 1.76 1.364 1.76 2.308 0 .944-.655 1.847-1.76 2.307a.75.75 0 1 0 .576 1.386c1.528-.636 2.684-2.008 2.684-3.693s-1.155-3.057-2.685-3.692a.75.75 0 0 0-.98.404Zm-2.17 0h-.001a.75.75 0 0 0-.98-.404C8.406 8.943 7.25 10.316 7.25 12c0 1.684 1.156 3.057 2.684 3.693a.75.75 0 1 0 .576-1.386C9.405 13.848 8.75 12.944 8.75 12s.655-1.848 1.76-2.308a.75.75 0 0 0 .405-.98Z"/></svg>