<svg xmlns="http://www.w3.org/2000/svg" viewBox="0 0 24 24"><path fill="#151E28" d="M9.768 1.25h4.464c.813 0 1.469 0 2 .043.546.045 1.026.139 1.47.365.706.36 1.28.934 1.639 1.64.226.444.321.924.366 1.47.043.531.043 1.187.043 2v4.152a4.423 4.423 0 0 1-2.147 3.793l-1.642.985a1.949 1.949 0 0 0-.919 1.99l.205 1.23a3.29 3.29 0 0 1-5.045 3.292 3.29 3.29 0 0 1-1.449-3.292l.206-1.23a1.949 1.949 0 0 0-.92-1.99l-1.642-.985A4.423 4.423 0 0 1 4.25 10.92V6.768c0-.813 0-1.469.043-2 .045-.546.139-1.026.365-1.47.36-.706.934-1.28 1.64-1.639.444-.226.924-.321 1.471-.366a17.059 17.059 0 0 1 1.276-.042l.723-.001Zm2.482 1.5h-2.5V6a.75.75 0 0 1-1.5 0V2.767a8.535 8.535 0 0 0-.359.021c-.454.037-.715.107-.912.207a2.25 2.25 0 0 0-.984.984c-.1.197-.17.458-.207.911-.038.463-.038 1.058-.038 1.91v2.45h12.5V6.8c0-.852-.001-1.447-.038-1.909-.037-.454-.107-.715-.207-.912a2.253 2.253 0 0 0-.983-.984c-.198-.1-.459-.17-.912-.207-.463-.038-1.057-.038-1.91-.038h-.45V4a.75.75 0 0 1-1.5 0Z"/></svg>