<svg xmlns="http://www.w3.org/2000/svg" viewBox="0 0 24 24"><path fill="#151E28" d="M10.255 2.25h3.49a3.878 3.878 0 0 1 3.679 2.652.813.813 0 0 0 .613.541l.065.013a5.782 5.782 0 0 1 4.648 5.67v2.3c0 1.46 0 2.324-.166 3.058a6.75 6.75 0 0 1-5.1 5.101c-.734.165-1.598.165-3.058.165H9.574c-1.46 0-2.324 0-3.058-.166a6.75 6.75 0 0 1-5.101-5.1c-.165-.734-.165-1.598-.165-3.058v-2.301a5.782 5.782 0 0 1 4.648-5.67l.065-.013a.814.814 0 0 0 .612-.54 3.878 3.878 0 0 1 3.68-2.652ZM8.5 12.7v.6a3.2 3.2 0 0 0 3.2 3.2h.6a3.2 3.2 0 0 0 3.2-3.2v-.6a3.2 3.2 0 0 0-3.2-3.2h-.6a3.2 3.2 0 0 0-3.2 3.2Z"/></svg>