<svg xmlns="http://www.w3.org/2000/svg" viewBox="0 0 24 24"><path fill="#151E28" d="M5 7.25h14a.75.75 0 0 1 0 1.5h-.251v9.081c0 .534 0 .98-.03 1.344-.03.38-.098.736-.27 1.074a2.752 2.752 0 0 1-1.202 1.201c-.337.172-.693.24-1.073.27-.323.027-.711.03-1.167.03H9.168c-.534 0-.98 0-1.344-.03-.38-.03-.736-.098-1.074-.27a2.75 2.75 0 0 1-1.2-1.202c-.172-.337-.24-.693-.27-1.073-.03-.365-.03-.81-.03-1.345V8.75H5a.75.75 0 0 1 0-1.5Zm9.25 1.5h-7.5v9.05c0 .572 0 .957.025 1.252.023.288.065.425.111.515.12.236.311.427.546.547.091.046.228.088.515.111.296.024.68.025 1.253.025h5.05Zm-9.275-4.5h14.05c.445 0 .815 0 1.12.021.317.021.617.068.907.188a2.749 2.749 0 0 1 1.488 1.489c.113.29.176.596.189.907.02.304.02.675.02 1.12v.05c0 .445 0 .816-.02 1.12a2.84 2.84 0 0 1-.189.907 2.749 2.749 0 0 1-1.488 1.489c-.321.133-.655.176-1.014.195a.75.75 0 0 1-.076-1.498c.296-.016.429-.047.516-.083.307-.127.55-.37.677-.677.032-.077.061-.194.078-.435.017-.247.017-.567.017-1.043s-.001-.796-.017-1.043c-.017-.241-.046-.358-.078-.435a1.251 1.251 0 0 0-.677-.677c-.077-.032-.195-.061-.435-.078-.247-.017-.567-.017-1.043-.017H5c-.348-.005-.696.001-1.043.017-.241.017-.358.046-.435.078-.307.127-.55.37-.677.677-.032.077-.061.194-.078.435-.017.247-.017.567-.017 1.043-.005.348.001.696.017 1.043.017.241.046.358.078.435.127.307.37.55.677.677.086.036.22.067.516.083a.75.75 0 0 1-.076 1.498c-.359-.019-.694-.062-1.014-.195a2.749 2.749 0 0 1-1.488-1.489 2.84 2.84 0 0 1-.19-.907c-.02-.304-.02-.675-.02-1.12v-.05c0-.445 0-.816.021-1.12.021-.317.068-.617.188-.907A2.749 2.749 0 0 1 2.948 4.46a2.82 2.82 0 0 1 .907-.19c.304-.02.675-.02 1.12-.02ZM12 14.75a.75.75 0 0 1 .75.75V18a.75.75 0 0 1-1.5 0v-2.5a.75.75 0 0 1 .75-.75Z"/></svg>