<svg xmlns="http://www.w3.org/2000/svg" viewBox="0 0 24 24"><path fill="#151E28" d="M1 11.504A8.504 8.504 0 0 1 9.504 3a8.504 8.504 0 0 1 8.504 8.504 8.504 8.504 0 0 1-8.504 8.504 9.783 9.783 0 0 1-3.134-.494 90.468 90.468 0 0 0-1.598-.528 8.298 8.298 0 0 0-.435-.126 1.196 1.196 0 0 0-.147-.03 5.889 5.889 0 0 0-.23-.008s-.008.001-.038.01c-.04.01-.09.027-.183.057a1.89 1.89 0 0 0-.341.182c-.2.123-.46.297-.83.543l-.402.268A.75.75 0 0 1 1 19.258Zm17.97-1.901a.75.75 0 0 1 .892-1.206 7.471 7.471 0 0 1 3.036 6.018v6.733a.75.75 0 0 1-1.167.623l-.06-.04a32.286 32.286 0 0 0-.8-.523 1.94 1.94 0 0 0-.326-.177l-.057-.02-.15-.05h-.024c-.032 0-.07 0-.134.002h-.06.001l-.002.001c-.011.002-.055.007-.15.027-.112.023-.263.06-.462.112-.398.104-.952.26-1.705.474-.671.19-1.467.32-2.387.32a7.473 7.473 0 0 1-2.271-.35.751.751 0 0 1 .455-1.43c.572.182 1.182.28 1.816.28.776 0 1.435-.11 1.978-.263l.01-.003c.742-.21 1.31-.37 1.724-.48.38-.099.728-.183.968-.187l.055-.001c.13-.003.279-.006.421.017.142.022.283.07.407.113l.051.018c.122.042.245.1.369.167v-5.363a5.972 5.972 0 0 0-2.428-4.812Z"/></svg>