<svg xmlns="http://www.w3.org/2000/svg" viewBox="0 0 24 24"><path fill="#151E28" d="M5.712 3.307c.697-.057 1.563-.057 2.655-.057h3.66c.909 0 1.629 0 2.213.04.596.04 1.104.125 1.578.322a4.753 4.753 0 0 1 2.57 2.57c.197.474.282.982.322 1.578.04.583.04 1.303.04 2.213v.054c0 .909 0 1.629-.04 2.213-.041.596-.125 1.104-.322 1.578a4.753 4.753 0 0 1-2.57 2.57c-.474.197-.982.282-1.578.322-.583.04-1.303.04-2.213.04H6.938c-.747 0-1.029.003-1.297.051a3.217 3.217 0 0 0-.73.22c-.25.109-.487.264-1.107.678l-1.388.925A.75.75 0 0 1 1.25 18v-7.633c0-1.092 0-1.958.057-2.655.058-.714.18-1.318.461-1.868a4.752 4.752 0 0 1 2.076-2.077c.551-.28 1.154-.402 1.868-.46Zm14.975 5.03A2.75 2.75 0 0 1 22.75 11v9a.748.748 0 0 1-1.166.624l-1.992-1.328a3.252 3.252 0 0 0-1.803-.546H12a.75.75 0 0 1 0-1.5h5.789c.938 0 1.855.278 2.635.798l.826.551V11c0-.581-.397-1.071-.937-1.211a.75.75 0 1 1 .374-1.452Z"/></svg>