<svg xmlns="http://www.w3.org/2000/svg" viewBox="0 0 24 24"><path fill="#151E28" d="m2.801 14.663-.569.57c-.254.254-.45.559-.575.896a5.752 5.752 0 0 1 4.636-7.835 5.75 5.75 0 0 1 11.414-.001 5.75 5.75 0 0 1-.207 11.436V17a2.5 2.5 0 0 0-4.888-.742.771.771 0 0 0-.225 0 2.498 2.498 0 0 0-1.269-1.494l-.206-.103.513-2.055a2.501 2.501 0 0 0-4.193-2.374l-4.43 4.431Zm6.927-2.481-.854 3.416 1.461.732a.75.75 0 0 1 .195 1.2l-5 5a.75.75 0 0 1-1.258-.712l.854-3.416-1.461-.732a.75.75 0 0 1-.195-1.2l5-5a.75.75 0 0 1 1.258.712Zm-3.393 5.147a.75.75 0 0 1 .393.853l-.344 1.373 2.35-2.349-1.069-.535a.75.75 0 0 1-.393-.853l.344-1.373-2.35 2.35ZM15 16.25a.75.75 0 0 1 .75.75v2a.75.75 0 0 1-1.5 0v-2a.75.75 0 0 1 .75-.75Zm-3 3a.75.75 0 0 1 .75.75v2a.75.75 0 0 1-1.5 0v-2a.75.75 0 0 1 .75-.75Z"/></svg>