<svg xmlns="http://www.w3.org/2000/svg" viewBox="0 0 24 24"><path fill="#151E28" d="M11 1.25h2A2.75 2.75 0 0 1 15.75 4v.098a.812.812 0 0 0 1.218.704l.085-.05a2.75 2.75 0 0 1 3.757 1.007l1 1.732a2.75 2.75 0 0 1-1.007 3.756l-.085.05a.812.812 0 0 0 0 1.406l.085.049a2.75 2.75 0 0 1 1.007 3.757l-1 1.732a2.75 2.75 0 0 1-3.757 1.007l-.085-.049a.812.812 0 0 0-1.218.703V20A2.75 2.75 0 0 1 13 22.75h-2A2.75 2.75 0 0 1 8.25 20v-.097a.812.812 0 0 0-1.218-.704l-.085.05a2.75 2.75 0 0 1-3.757-1.007l-1-1.732a2.75 2.75 0 0 1 1.007-3.756l.085-.05a.812.812 0 0 0 0-1.406l-.085-.049A2.75 2.75 0 0 1 2.19 7.492l1-1.732a2.75 2.75 0 0 1 3.757-1.008l.085.049a.812.812 0 0 0 1.218-.703V4A2.75 2.75 0 0 1 11 1.25ZM9 11.8v.4a2.8 2.8 0 0 0 2.8 2.8h.4a2.8 2.8 0 0 0 2.8-2.8v-.4A2.8 2.8 0 0 0 12.2 9h-.4A2.8 2.8 0 0 0 9 11.8Z"/></svg>