<svg xmlns="http://www.w3.org/2000/svg" viewBox="0 0 24 24"><path fill="#151E28" d="M9.367 2.25h5.266c1.092 0 1.958 0 2.655.057.714.058 1.317.18 1.869.461a4.744 4.744 0 0 1 2.076 2.076c.28.551.402 1.154.46 1.868.057.697.057 1.563.057 2.655v5.266c0 1.092 0 1.958-.057 2.655-.058.714-.18 1.317-.461 1.869a4.752 4.752 0 0 1-2.075 2.076c-.552.28-1.155.402-1.869.46-.697.057-1.563.057-2.655.057H9.367c-1.092 0-1.958 0-2.655-.057-.714-.058-1.318-.18-1.868-.461a4.75 4.75 0 0 1-2.077-2.075c-.28-.552-.402-1.155-.46-1.869-.057-.697-.057-1.563-.057-2.655V9.367c0-1.092 0-1.958.057-2.655.058-.714.18-1.318.461-1.868a4.752 4.752 0 0 1 2.076-2.077c.551-.28 1.154-.402 1.868-.46.697-.057 1.563-.057 2.655-.057Zm4.883 10.5v-1.5H15A2.25 2.25 0 1 0 12.75 9v.75h-1.5V9A2.25 2.25 0 1 0 9 11.25h.75v1.5H9A2.25 2.25 0 1 0 11.25 15v-.75h1.5V15A2.25 2.25 0 1 0 15 12.75Zm-3 0v-1.5h1.5v1.5ZM8.25 9a.75.75 0 0 1 1.5 0v.75H9A.75.75 0 0 1 8.25 9ZM15 8.25a.75.75 0 0 1 0 1.5h-.75V9a.75.75 0 0 1 .75-.75Zm-6 6h.75V15a.75.75 0 1 1-.75-.75Zm5.25 0H15a.75.75 0 1 1-.75.75Z"/></svg>