<svg xmlns="http://www.w3.org/2000/svg" viewBox="0 0 24 24"><path fill="#151E28" d="M19.904 14.25H20a.75.75 0 0 1 0 1.5c-.965 0-1.338.004-1.634.062a3.25 3.25 0 0 0-2.553 2.554c-.06.296-.063.669-.063 1.634a.75.75 0 0 1-1.5 0v-.095c0-.838 0-1.372.091-1.832a4.751 4.751 0 0 1 3.732-3.732c.46-.091.994-.091 1.831-.091ZM15 3.25h.001a.75.75 0 0 1 .749.75c0 .965.004 1.338.063 1.634a3.25 3.25 0 0 0 2.553 2.554c.296.058.669.062 1.634.062a.75.75 0 0 1 0 1.5h-.095c-.838 0-1.372 0-1.832-.091a4.751 4.751 0 0 1-3.732-3.732c-.091-.46-.091-.994-.09-1.832V4A.75.75 0 0 1 15 3.25Zm-6 0a.75.75 0 0 1 .75.75v.095c0 .838 0 1.372-.091 1.832a4.751 4.751 0 0 1-3.732 3.732c-.46.091-.994.091-1.832.091H4a.75.75 0 0 1 0-1.5c.965 0 1.338-.004 1.634-.062a3.248 3.248 0 0 0 2.554-2.554c.058-.296.062-.669.062-1.634A.75.75 0 0 1 9 3.25ZM5.634 15.812c-.296-.058-.669-.062-1.634-.062a.75.75 0 0 1 0-1.5h.095c.838 0 1.372 0 1.832.091a4.751 4.751 0 0 1 3.732 3.732c.091.46.091.994.091 1.832V20a.75.75 0 0 1-1.5 0c0-.965-.004-1.338-.062-1.634a3.248 3.248 0 0 0-2.554-2.554Z"/></svg>