<svg xmlns="http://www.w3.org/2000/svg" viewBox="0 0 24 24"><path fill="#151E28" d="M8 1.25a.75.75 0 0 1 .75.75v2.304c.666-.052 1.482-.054 2.5-.054V2a.75.75 0 0 1 1.5 0v2.25c1.018 0 1.834.002 2.5.054V2a.75.75 0 0 1 1.5 0v2.592c.139.05.274.108.407.176a4.752 4.752 0 0 1 2.075 2.076c.068.132.126.267.176.406H22a.75.75 0 0 1 0 1.5h-2.304c.052.666.054 1.482.054 2.5H22a.75.75 0 0 1 0 1.5h-2.25c0 1.018-.002 1.834-.054 2.5H22a.75.75 0 0 1 0 1.5h-2.592c-.05.139-.109.275-.176.407a4.75 4.75 0 0 1-2.075 2.075 3.569 3.569 0 0 1-.407.176V22a.75.75 0 0 1-1.5 0v-2.304c-.666.052-1.482.054-2.5.054V22a.75.75 0 0 1-1.5 0v-2.25c-1.018 0-1.834-.002-2.5-.054V22a.75.75 0 0 1-1.5 0v-2.592a3.554 3.554 0 0 1-.406-.176 4.752 4.752 0 0 1-2.076-2.075 3.569 3.569 0 0 1-.176-.407H2a.75.75 0 0 1 0-1.5h2.304c-.052-.666-.054-1.482-.054-2.5H2a.75.75 0 0 1 0-1.5h2.25c0-1.018.002-1.834.054-2.5H2a.75.75 0 0 1 0-1.5h2.592c.05-.139.108-.274.176-.406a4.744 4.744 0 0 1 2.076-2.076c.132-.068.267-.126.406-.176V2A.75.75 0 0 1 8 1.25ZM9 12c0 .932 0 1.398.152 1.765.203.49.593.88 1.083 1.083.367.152.833.152 1.765.152.932 0 1.398 0 1.765-.152.49-.203.88-.593 1.083-1.083C15 13.398 15 12.932 15 12c0-.932 0-1.398-.152-1.765a2.003 2.003 0 0 0-1.083-1.083C13.398 9 12.932 9 12 9c-.932 0-1.398 0-1.765.152-.49.203-.88.593-1.083 1.083C9 10.602 9 11.068 9 12Z"/></svg>