<svg xmlns="http://www.w3.org/2000/svg" viewBox="0 0 24 24"><path fill="#151E28" d="M6.768 3.25h10.464c.813 0 1.469 0 2 .043.546.045 1.026.139 1.47.365.706.36 1.28.934 1.639 1.64.226.444.321.924.366 1.471.028.391.041.782.041 1.174a.708.708 0 0 1 .001.103l.001.72V14a.75.75 0 0 1-1.5 0V8.75H2.75v6.45c0 .852.001 1.447.038 1.909.037.454.107.715.207.913.216.423.56.767.983.983.198.1.459.169.912.207.463.038 1.057.038 1.91.038H14a.75.75 0 0 1 0 1.5H6.768c-.813 0-1.469 0-2-.043-.546-.045-1.026-.139-1.471-.365a3.752 3.752 0 0 1-1.638-1.64c-.226-.444-.321-.924-.366-1.47-.043-.531-.043-1.187-.043-2V8.768l.001-.717a.853.853 0 0 1 .002-.113c-.001-.39.013-.781.04-1.17.045-.546.139-1.026.365-1.47.36-.706.934-1.28 1.64-1.639.444-.226.924-.321 1.47-.366.531-.043 1.187-.043 2-.043ZM16.25 18a.75.75 0 0 1 .75-.75h6a.75.75 0 0 1 0 1.5h-6a.75.75 0 0 1-.75-.75Zm-11-6a.75.75 0 0 1 .75-.75h3a.75.75 0 0 1 0 1.5H6a.75.75 0 0 1-.75-.75Z"/></svg>