<svg xmlns="http://www.w3.org/2000/svg" viewBox="0 0 24 24"><path fill="#151E28" d="M4.131 4.271c.498-.441 1.176-.805 1.949-1.095C7.631 2.595 9.725 2.25 12 2.25s4.368.345 5.92.926c.773.29 1.451.654 1.949 1.095.497.441.881 1.023.881 1.729v4c0 .706-.384 1.289-.881 1.729-.498.441-1.176.805-1.949 1.095-1.551.581-3.645.926-5.92.926s-4.369-.345-5.92-.926c-.773-.29-1.451-.654-1.949-1.095-.497-.441-.881-1.023-.881-1.729V6c0-.706.384-1.289.881-1.729ZM4 13.25a.75.75 0 0 1 .75.75c0 .123.064.33.376.607.312.276.806.56 1.48.812 1.344.504 3.251.831 5.394.831 2.143 0 4.05-.327 5.393-.83.675-.254 1.169-.537 1.48-.813.313-.278.377-.484.377-.607a.75.75 0 0 1 1.5 0v4c0 .706-.384 1.288-.881 1.729-.498.441-1.176.805-1.949 1.095-1.552.581-3.645.926-5.92.926s-4.369-.345-5.92-.926c-.773-.29-1.451-.654-1.949-1.095-.497-.44-.881-1.023-.881-1.729v-4a.75.75 0 0 1 .75-.75Zm1.126-7.857c-.312.278-.376.484-.376.607s.064.33.376.607c.312.276.806.56 1.48.812 1.344.504 3.251.831 5.394.831 2.143 0 4.05-.327 5.393-.83.675-.254 1.169-.537 1.48-.813.313-.278.377-.484.377-.607s-.064-.33-.376-.607c-.312-.276-.806-.56-1.48-.812C16.05 4.077 14.143 3.75 12 3.75c-2.143 0-4.05.327-5.394.83-.674.254-1.168.537-1.48.813Z"/></svg>