<svg xmlns="http://www.w3.org/2000/svg" viewBox="0 0 24 24"><path fill="#151E28" d="M15 18a2.5 2.5 0 0 0-4.961-.442 2.511 2.511 0 0 0-1.007-.014 2.503 2.503 0 0 0-.694-.656 2.5 2.5 0 0 0-4.418-2.275l-1.17 1.754-.62.93-.21.316c-.114.17-.205.352-.272.54a4.32 4.32 0 0 1-.398-1.819c0-2.151 1.559-3.924 3.605-4.33a4.751 4.751 0 0 1 9.29 0c2.046.406 3.605 2.179 3.605 4.329 0 1.853-1.156 3.424-2.785 4.084.023-.136.035-.275.035-.417Zm-2.236-9.992a.75.75 0 1 1-.528-1.404 5.559 5.559 0 0 1 7.16 7.16.75.75 0 1 1-1.404-.528 4.057 4.057 0 0 0-5.228-5.228Zm-6.348 7.368a.75.75 0 0 1 .208 1.04L5.401 18.25H7a.748.748 0 0 1 .624 1.166l-2 3a.749.749 0 1 1-1.248-.832l1.223-1.834H4a.748.748 0 0 1-.624-1.166l2-3a.75.75 0 0 1 1.04-.208ZM13.25 18v2a.75.75 0 0 1-1.5 0v-2a.75.75 0 0 1 1.5 0Zm-3 2v2a.75.75 0 0 1-1.5 0v-2a.75.75 0 0 1 1.5 0Zm5.1-16.15a.85.85 0 1 1-1.701-.001.85.85 0 0 1 1.701.001Zm5.8 7.5a.85.85 0 1 1 1.701.001.85.85 0 0 1-1.701-.001Zm-.566-4.724a.85.85 0 1 1-1.216-1.189.85.85 0 0 1 1.216 1.189ZM8.5 5.5a.85.85 0 1 1 1.188 1.217A.85.85 0 0 1 8.5 5.5Z"/></svg>