<svg xmlns="http://www.w3.org/2000/svg" viewBox="0 0 24 24"><path fill="#151E28" d="M4 20c0 .142.012.281.035.417-1.629-.66-2.785-2.231-2.785-4.084 0-2.15 1.559-3.923 3.605-4.329a4.751 4.751 0 0 1 9.29 0c2.046.406 3.605 2.179 3.605 4.33 0 1.852-1.156 3.423-2.785 4.083.023-.136.035-.275.035-.417v-2a2.5 2.5 0 0 0-4.961-.442 2.512 2.512 0 0 0-1.078 0A2.5 2.5 0 0 0 4 18v2Zm8.764-11.992a.75.75 0 1 1-.528-1.404 5.559 5.559 0 0 1 7.16 7.16.75.75 0 1 1-1.404-.528 4.057 4.057 0 0 0-5.228-5.228ZM6.5 17.25a.75.75 0 0 1 .75.75v2a.75.75 0 0 1-1.5 0v-2a.75.75 0 0 1 .75-.75Zm6 0a.75.75 0 0 1 .75.75v2a.75.75 0 0 1-1.5 0v-2a.75.75 0 0 1 .75-.75Zm-3 2a.75.75 0 0 1 .75.75v2a.75.75 0 0 1-1.5 0v-2a.75.75 0 0 1 .75-.75Zm5.85-15.4a.85.85 0 1 1-1.701-.001.85.85 0 0 1 1.701.001Zm5.8 7.5a.85.85 0 1 1 1.701.001.85.85 0 0 1-1.701-.001Zm-.566-4.724a.85.85 0 1 1-1.216-1.189.85.85 0 0 1 1.216 1.189ZM8.5 5.5a.85.85 0 1 1 1.188 1.217A.85.85 0 0 1 8.5 5.5Z"/></svg>