<svg xmlns="http://www.w3.org/2000/svg" viewBox="0 0 24 24"><path fill="#151E28" d="M4.854 12.004a4.75 4.75 0 0 1 9.291 0c2.046.406 3.605 2.179 3.605 4.33 0 2.454-2.03 4.416-4.5 4.416h-7.5c-2.47 0-4.5-1.962-4.5-4.417 0-2.15 1.559-3.923 3.605-4.329Zm7.91-3.996a.75.75 0 1 1-.528-1.404 5.559 5.559 0 0 1 7.16 7.16.75.75 0 1 1-1.404-.528 4.057 4.057 0 0 0-5.228-5.228ZM15.35 3.85a.85.85 0 1 1-1.701-.001.85.85 0 0 1 1.701.001Zm5.8 7.5a.85.85 0 1 1 1.701.001.85.85 0 0 1-1.701-.001Zm-1.65 5.102a.85.85 0 1 1 1.188 1.217.85.85 0 0 1-1.188-1.217Zm1.084-9.826a.85.85 0 1 1-1.216-1.189.85.85 0 0 1 1.216 1.189ZM8.5 5.5a.85.85 0 1 1 1.188 1.217A.85.85 0 0 1 8.5 5.5Z"/></svg>