<svg xmlns="http://www.w3.org/2000/svg" viewBox="0 0 24 24"><path fill="#151E28" d="M5.39 19.229a2.512 2.512 0 0 0-.012 1.506C3.08 20.55 1.25 18.664 1.25 16.333c0-2.15 1.559-3.923 3.605-4.329a4.751 4.751 0 0 1 9.29 0c2.046.406 3.605 2.179 3.605 4.33 0 2.33-1.83 4.215-4.127 4.4a2.486 2.486 0 0 0-.1-1.734 2.498 2.498 0 0 0-2.011-3.485 2.498 2.498 0 0 0-4.024.001A2.498 2.498 0 0 0 5.477 19a2.36 2.36 0 0 0-.087.23Zm7.374-11.221a.75.75 0 1 1-.528-1.404 5.559 5.559 0 0 1 7.16 7.16.75.75 0 1 1-1.404-.528 4.057 4.057 0 0 0-5.228-5.228ZM9.5 16.25a.75.75 0 0 1 .75.75v.701l.607-.35a.75.75 0 0 1 .75 1.299L11 19l.607.35a.75.75 0 0 1-.75 1.3l-.607-.351V21a.75.75 0 0 1-1.5 0v-.7l-.607.35a.75.75 0 0 1-.75-1.3L8 19l-.607-.35a.75.75 0 0 1 .75-1.3l.607.35V17a.75.75 0 0 1 .75-.75Zm5.85-12.4a.85.85 0 1 1-1.701-.001.85.85 0 0 1 1.701.001Zm5.8 7.5a.85.85 0 1 1 1.701.001.85.85 0 0 1-1.701-.001Zm-.566-4.724a.85.85 0 1 1-1.216-1.189.85.85 0 0 1 1.216 1.189ZM8.5 5.5a.85.85 0 1 1 1.188 1.217A.85.85 0 0 1 8.5 5.5Z"/></svg>