<svg xmlns="http://www.w3.org/2000/svg" viewBox="0 0 24 24"><path fill="#151E28" d="M2.793 16.825a2.5 2.5 0 0 0 1.011 3.371c.03.056.064.111.099.165-1.559-.69-2.653-2.226-2.653-4.028 0-2.15 1.559-3.923 3.605-4.329a4.751 4.751 0 0 1 9.29 0c2.046.406 3.605 2.179 3.605 4.33 0 1.801-1.094 3.337-2.653 4.027.035-.054.068-.109.099-.165a2.5 2.5 0 0 0 1.298-2.022l.001-.02a2.49 2.49 0 0 0-1.299-2.35 2.5 2.5 0 0 0-4.392 0A2.506 2.506 0 0 0 9.55 17.5a1.667 1.667 0 0 0-.1 0 2.506 2.506 0 0 0-1.254-1.696 2.5 2.5 0 0 0-4.392 0 2.51 2.51 0 0 0-1.011 1.021Zm9.971-8.817a.75.75 0 1 1-.528-1.404 5.559 5.559 0 0 1 7.16 7.16.75.75 0 1 1-1.404-.528 4.057 4.057 0 0 0-5.228-5.228ZM6 16.25a.75.75 0 0 1 .75.75v.25H7a.75.75 0 0 1 0 1.5h-.25V19a.75.75 0 0 1-1.5 0v-.25H5a.75.75 0 0 1 0-1.5h.25V17a.75.75 0 0 1 .75-.75Zm7 0a.75.75 0 0 1 .75.75v.25H14a.75.75 0 0 1 0 1.5h-.25V19a.75.75 0 0 1-1.5 0v-.25H12a.75.75 0 0 1 0-1.5h.25V17a.75.75 0 0 1 .75-.75Zm-3.5 3a.75.75 0 0 1 .75.75v.25h.25a.75.75 0 0 1 0 1.5h-.25V22a.75.75 0 0 1-1.5 0v-.25H8.5a.75.75 0 0 1 0-1.5h.25V20a.75.75 0 0 1 .75-.75Zm5.85-15.4a.85.85 0 1 1-1.701-.001.85.85 0 0 1 1.701.001Zm5.8 7.5a.85.85 0 1 1 1.701.001.85.85 0 0 1-1.701-.001Zm-.566-4.724a.85.85 0 1 1-1.216-1.189.85.85 0 0 1 1.216 1.189ZM8.5 5.5a.85.85 0 1 1 1.188 1.217A.85.85 0 0 1 8.5 5.5Z"/></svg>