<svg xmlns="http://www.w3.org/2000/svg" viewBox="0 0 24 24"><path fill="#151E28" d="M17.095 2.25c.838 0 1.372 0 1.832.091a4.751 4.751 0 0 1 3.732 3.732c.091.46.091.994.091 1.832v8.19c0 .838 0 1.372-.091 1.832a4.751 4.751 0 0 1-3.732 3.732c-.46.091-.994.091-1.832.091H6.905c-.838 0-1.372 0-1.832-.091a4.751 4.751 0 0 1-3.732-3.732c-.091-.46-.091-.994-.091-1.832v-8.19c0-.838 0-1.372.091-1.832a4.751 4.751 0 0 1 3.732-3.732c.46-.091.994-.091 1.832-.091h10.19ZM13.25 10v4c0 .966.784 1.75 1.75 1.75a3.75 3.75 0 0 0 0-7.5A1.75 1.75 0 0 0 13.25 10ZM7 8.25a.75.75 0 0 0-.75.75v6a.75.75 0 0 0 1.5 0v-2.25h2.5V15a.75.75 0 0 0 1.5 0V9a.75.75 0 0 0-1.5 0v2.25h-2.5V9A.75.75 0 0 0 7 8.25Zm8 1.5a2.25 2.25 0 1 1 0 4.5.25.25 0 0 1-.25-.25v-4a.25.25 0 0 1 .25-.25Z"/></svg>