<svg xmlns="http://www.w3.org/2000/svg" viewBox="0 0 24 24"><path fill="#151E28" d="m22 12 .742-.106c.01.07.01.142 0 .212L22 12l.742.107v.004l-.001.008-.004.022c-.018.111-.04.222-.067.331-.05.216-.133.516-.26.874a9.343 9.343 0 0 1-1.445 2.617c-1.52 1.934-4.238 3.787-8.965 3.787-4.727 0-7.446-1.853-8.965-3.787a9.34 9.34 0 0 1-1.444-2.617 8.195 8.195 0 0 1-.315-1.13l-.013-.075-.004-.022v-.008l-.001-.003c0-.001 0-.002.742-.108l-.742.106a.753.753 0 0 1 0-.212L2 12l-.742-.107v-.004l.001-.007.004-.023.013-.075c.077-.384.182-.761.314-1.13a9.343 9.343 0 0 1 1.445-2.617C4.554 6.103 7.272 4.25 11.999 4.25c4.728 0 7.447 1.853 8.966 3.787a9.34 9.34 0 0 1 1.444 2.617c.132.369.237.746.315 1.13l.013.075.004.023v.007l.001.003c0 .002 0 .002-.742.108ZM2.762 12l.029.13c.039.167.106.413.212.711a7.86 7.86 0 0 0 1.212 2.196C5.445 16.603 7.727 18.25 12 18.25s6.554-1.647 7.785-3.213a7.86 7.86 0 0 0 1.212-2.196c.098-.275.178-.556.24-.841a6.664 6.664 0 0 0-.241-.841 7.853 7.853 0 0 0-1.21-2.196c-1.232-1.566-3.513-3.213-7.787-3.213-4.273 0-6.554 1.647-7.785 3.213a7.848 7.848 0 0 0-1.21 2.195c-.099.275-.18.556-.242.842ZM12 8.25a3.75 3.75 0 1 1 0 7.5 3.75 3.75 0 0 1 0-7.5Z"/></svg>