<svg xmlns="http://www.w3.org/2000/svg" viewBox="0 0 24 24"><path fill="#151E28" d="M1.47 1.47a.75.75 0 0 1 1.06 0l20 20a.749.749 0 0 1-.326 1.275.749.749 0 0 1-.734-.215l-3.896-3.895c-1.454.68-3.283 1.115-5.574 1.115-4.727 0-7.446-1.853-8.965-3.787a9.34 9.34 0 0 1-1.444-2.617 8.195 8.195 0 0 1-.315-1.13l-.013-.075-.004-.022v-.008l-.001-.003c0-.001 0-.002.742-.108l-.742.106a.753.753 0 0 1 0-.212L2 12l-.742-.107v-.007l.003-.013a7.134 7.134 0 0 1 .15-.658c.112-.398.3-.947.605-1.563a9.15 9.15 0 0 1 3.057-3.518L1.47 2.53a.75.75 0 0 1 0-1.06Zm4.686 5.747a7.661 7.661 0 0 0-2.796 3.101 7.603 7.603 0 0 0-.505 1.303c-.046.163-.075.29-.092.375V12c.061.285.142.566.24.841a7.86 7.86 0 0 0 1.212 2.196C5.446 16.603 7.727 18.25 12 18.25c1.821 0 3.273-.299 4.433-.756l-2.365-2.365a3.75 3.75 0 0 1-5.197-5.197ZM12 5.75c-.684 0-1.317.042-1.9.12a.751.751 0 0 1-.197-1.488c.652-.086 1.35-.132 2.098-.132 4.727 0 7.446 1.853 8.965 3.787a9.34 9.34 0 0 1 1.444 2.617c.132.369.237.746.315 1.13l.013.075.004.023v.007l.001.003c0 .001 0 .002-.149.023l.148-.021c.01.07.01.142 0 .212l-.635-.091.636.092v.003l-.001.007-.003.02a5.215 5.215 0 0 1-.055.277c-.04.179-.105.43-.205.733-.2.605-.543 1.42-1.117 2.272a.75.75 0 0 1-1.244-.838c.482-.716.77-1.401.937-1.905.074-.222.135-.447.184-.676a6.664 6.664 0 0 0-.241-.841 7.86 7.86 0 0 0-1.212-2.196C18.555 7.397 16.273 5.75 12 5.75Zm1.25 2.714a3.758 3.758 0 0 1 2.286 2.286.751.751 0 1 1-1.414.5 2.263 2.263 0 0 0-1.372-1.372.75.75 0 1 1 .5-1.414ZM22 12l.107.015-.106-.015.593-.085Z"/></svg>