<svg xmlns="http://www.w3.org/2000/svg" viewBox="0 0 24 24"><path fill="#151E28" d="M12.697 4.395c.335.193.662.4.98.62l.029.02 7.516 5.01.027.018c.272.175.537.361.794.558.215.173.444.395.574.708l-.688.286.688-.285c.178.429.178.911 0 1.34-.13.314-.359.535-.574.709-.209.168-.484.351-.794.558l-.027.018-7.515 5.01-.03.02c-.379.253-.706.47-.98.62-.275.148-.614.296-.999.273a1.751 1.751 0 0 1-1.291-.691c-.232-.307-.297-.672-.326-.982-.028-.311-.028-.704-.028-1.16V6.955c0-.456 0-.85.028-1.16.029-.311.094-.675.327-.983.309-.407.78-.659 1.29-.69.385-.023.724.124.999.273Zm-9 0c.274.149.601.367.98.619l.029.02.018.012 4.013 2.842a.752.752 0 0 1 .316.612v7a.752.752 0 0 1-.316.612l-4.013 2.842-.017.011-.03.02c-.379.253-.706.47-.98.62-.275.148-.614.296-.999.273a1.751 1.751 0 0 1-1.291-.691c-.232-.307-.297-.672-.326-.982-.028-.311-.028-.704-.028-1.16V6.955c0-.456 0-.85.028-1.16.029-.311.094-.675.327-.983.309-.407.78-.659 1.29-.69.385-.023.724.124.999.273Z"/></svg>