<svg xmlns="http://www.w3.org/2000/svg" viewBox="0 0 24 24"><path fill="#151E28" d="M15.633 2.354v-.001c.382.092.748.244 1.083.45.38.233.7.551 1.16 1.013l.06.06 2.189 2.188.06.06c.461.461.78.779 1.012 1.159.206.336.357.701.449 1.084.104.433.104.884.104 1.536v4.73c0 1.092 0 1.958-.057 2.655-.058.714-.18 1.317-.461 1.869a4.752 4.752 0 0 1-2.075 2.076c-.552.28-1.155.402-1.869.46-.697.057-1.563.057-2.655.057H9.367c-1.092 0-1.958 0-2.655-.057-.714-.058-1.318-.18-1.868-.461a4.75 4.75 0 0 1-2.077-2.075c-.28-.552-.402-1.155-.46-1.869-.057-.697-.057-1.563-.057-2.655V9.367c0-1.092 0-1.958.057-2.655.058-.714.18-1.318.461-1.868a4.752 4.752 0 0 1 2.076-2.077c.551-.28 1.154-.402 1.868-.46.697-.057 1.563-.057 2.655-.057h4.73c.652 0 1.103 0 1.536.104ZM8.25 13.7v.6a3.45 3.45 0 0 0 3.45 3.45h.6a3.45 3.45 0 0 0 3.45-3.45v-.6a3.45 3.45 0 0 0-3.45-3.45h-.6a3.45 3.45 0 0 0-3.45 3.45Zm3.45-1.95h.6a1.95 1.95 0 0 1 1.95 1.95v.6a1.95 1.95 0 0 1-1.95 1.95h-.6a1.95 1.95 0 0 1-1.95-1.95v-.6a1.95 1.95 0 0 1 1.95-1.95Zm-3.7-4h7a.75.75 0 0 0 0-1.5H8a.75.75 0 0 0 0 1.5Z"/></svg>