<svg xmlns="http://www.w3.org/2000/svg" viewBox="0 0 24 24"><path fill="#151E28" d="M9.283 3.812c-.24-.057-.502-.062-1.271-.062H6.8c-.852 0-1.447 0-1.91.038-.453.037-.714.107-.911.207a2.25 2.25 0 0 0-.984.984c-.1.197-.17.458-.207.912-.037.462-.038 1.057-.038 1.909v7.4c0 .852 0 1.447.038 1.91.038.453.107.714.207.912.216.423.56.767.984.983.293.15.44.198.545.22.11.022.213.025.476.025h.385l1.365-6.825.005-.026c.087-.436.16-.802.244-1.101.077-.311.208-.606.386-.872.29-.416.689-.743 1.153-.946.3-.13.605-.183.93-.207.31-.023.684-.023 1.129-.023h8.533c.64 0 1.17 0 1.596.037.44.039.852.122 1.226.34.565.332.993.855 1.207 1.474.142.41.143.83.094 1.269-.047.425-.15.944-.276 1.572l-.007.033-1.235 6.172a.75.75 0 0 1-.735.603H4.971c-.228 0-.477 0-.75-.056-.292-.06-.575-.175-.923-.353a3.749 3.749 0 0 1-1.64-1.639c-.226-.444-.32-.924-.365-1.47-.043-.531-.043-1.187-.043-2V7.768c0-.813 0-1.469.043-2 .045-.546.14-1.026.366-1.47a3.749 3.749 0 0 1 1.639-1.64c.444-.226.924-.32 1.47-.365.532-.043 1.187-.043 2-.043h1.329c.652 0 1.103 0 1.536.104.383.092.748.243 1.084.449.38.232.698.551 1.159 1.012l.06.06.188.189c.545.544.734.726.943.854.201.124.42.215.65.27.24.057.502.062 1.271.062h1.214c.155 0 .564 0 1.023.044.436.043 1.023.133 1.477.365.576.293 1.43.805 1.695 1.783a.75.75 0 1 1-1.448.392c-.08-.298-.374-.557-.928-.839-.186-.095-.53-.168-.94-.208a9.235 9.235 0 0 0-.88-.037h-1.298c-.652 0-1.103 0-1.536-.104a3.745 3.745 0 0 1-1.084-.449c-.38-.232-.698-.551-1.159-1.012l-.06-.06-.188-.189c-.544-.544-.733-.726-.943-.854a2.232 2.232 0 0 0-.65-.27Z"/></svg>