<svg xmlns="http://www.w3.org/2000/svg" viewBox="0 0 24 24"><path fill="#151E28" d="M9.633 2.354v-.001c.382.092.748.244 1.083.45.38.233.7.551 1.16 1.013l.06.06.188.188c.544.544.733.726.943.854.201.124.421.215.651.27.238.057.5.062 1.27.062h2.244c.813 0 1.469 0 2 .043.546.045 1.026.139 1.47.365.706.36 1.28.934 1.639 1.64.226.444.321.924.366 1.47.043.531.043 1.187.043 2v4.464c0 .813 0 1.469-.043 2-.045.546-.139 1.026-.365 1.47a3.749 3.749 0 0 1-1.64 1.639c-.444.226-.924.321-1.47.366-.531.043-1.187.043-2 .043H6.768c-.813 0-1.469 0-2-.043-.546-.045-1.026-.139-1.47-.365a3.749 3.749 0 0 1-1.639-1.64c-.226-.444-.321-.924-.366-1.47-.043-.531-.043-1.187-.043-2V7.768c0-.813 0-1.469.043-2 .045-.546.139-1.026.365-1.47.36-.706.934-1.28 1.64-1.639.444-.226.924-.321 1.47-.366.531-.043 1.187-.043 2-.043h1.329c.652 0 1.103 0 1.536.104Zm-1.36 8.05c-.034.037-.069.08-.115.135l-.009.01-.008.01a2.75 2.75 0 0 0 .173 3.815l.009.01 3.147 3.146a.75.75 0 0 0 1.06 0l3.146-3.146.01-.01a2.75 2.75 0 0 0 .173-3.815l-.008-.01-.009-.01a2.75 2.75 0 0 0-3.731-.558l-.111.082a2.75 2.75 0 0 0-3.727.341Zm2.76.81.11.082.407.305c.267.2.633.2.9 0l.407-.305.11-.082a1.25 1.25 0 0 1 1.643.192c.059.067.117.136.172.207a1.25 1.25 0 0 1-.073 1.617c-.013.014-.03.032-.093.094L12 15.94l-2.616-2.617a2.762 2.762 0 0 1-.093-.094 1.25 1.25 0 0 1-.073-1.617c.055-.071.113-.14.172-.207a1.25 1.25 0 0 1 1.643-.191Z"/></svg>