<svg xmlns="http://www.w3.org/2000/svg" viewBox="0 0 24 24"><path fill="#151E28" d="M18.24 6.25H19a2.752 2.752 0 0 1 .75 5.396v6.184c0 .535 0 .98-.03 1.345-.03.38-.098.736-.27 1.074a2.752 2.752 0 0 1-1.202 1.201c-.337.172-.693.24-1.073.27-.365.03-.81.03-1.345.03H8.17c-.535 0-.98 0-1.345-.03-.38-.03-.736-.098-1.073-.27a2.749 2.749 0 0 1-1.202-1.202c-.172-.337-.24-.693-.27-1.073-.03-.365-.03-.81-.03-1.345v-6.184A2.75 2.75 0 0 1 5 6.25h.76a3.25 3.25 0 0 1 2.74-5h.08a3.33 3.33 0 0 1 3.19 2.373l.23.767.23-.767a3.33 3.33 0 0 1 3.19-2.373h.08a3.25 3.25 0 0 1 2.74 5Zm-6.99 4v-2.5H5a1.25 1.25 0 0 0 0 2.5Zm9-1.25c0-.69-.56-1.25-1.25-1.25h-6.25v2.5H19c.69 0 1.25-.56 1.25-1.25Zm-9 11.25h1.5v-8.5h-1.5Zm6-15.75a1.75 1.75 0 0 0-1.75-1.75h-.08a1.83 1.83 0 0 0-1.753 1.304l-.659 2.196H15.5a1.75 1.75 0 0 0 1.75-1.75Zm-6.917-.446A1.83 1.83 0 0 0 8.58 2.75H8.5a1.75 1.75 0 0 0 0 3.5h2.492Z"/></svg>