<svg xmlns="http://www.w3.org/2000/svg" viewBox="0 0 24 24"><path fill="#151E28" d="M22.248 10.748a.75.75 0 0 1-.205.677l-.324.324c-1.602 1.602-3.864 1.218-5.456.08a.75.75 0 1 1 .871-1.22c1.264.902 2.644.96 3.524.08l.023-.023a1.846 1.846 0 0 0-.328-.627c-.175-.208-.42-.367-.802-.443a.75.75 0 1 1 .295-1.47c.689.137 1.244.46 1.655.947.4.475.625 1.062.747 1.675Zm-7.073-8.703c.56.278 1.068.646 1.424 1.156.365.523.533 1.143.487 1.844a.75.75 0 1 1-1.497-.096c.026-.389-.065-.666-.221-.89a1.822 1.822 0 0 0-.52-.478l-.027.016c-1.079.622-1.38 1.97-.835 3.424a.75.75 0 1 1-1.405.527c-.686-1.834-.472-4.118 1.49-5.25l.397-.23a.75.75 0 0 1 .707-.023Zm1.428 6.777-.93.817a.75.75 0 0 1-.99-1.126l.93-.817a6.642 6.642 0 0 1 4.672-1.648.75.75 0 1 1-.065 1.499 5.146 5.146 0 0 0-3.617 1.275Zm-7.971 9.993a1.75 1.75 0 0 1-.01-2.475l.006-.006.004-.004.005-.006a3.95 3.95 0 0 0 .44-.518 3.764 3.764 0 0 1 0 .001 4.036 4.036 0 0 1-.432.51c.278-.275.506-.4.698-.46.199-.065.414-.08.697-.06.134.01.267.024.4.041.358.048.719.074 1.08.08 0 .408.044.777.08 1.08.017.15.033.284.041.398.018.284.004.499-.06.699-.063.194-.19.426-.474.71a1.75 1.75 0 0 1-2.475.01Zm1.388-7.408a3.244 3.244 0 0 1 .002-.003l.025-.024.022-.022a1.75 1.75 0 0 1 2.452 2.497c-.284.284-.516.411-.71.473-.2.065-.414.08-.698.06a7.35 7.35 0 0 1-.399-.041c-.302-.035-.671-.078-1.08-.08a9.126 9.126 0 0 0-.08-1.08 8.487 8.487 0 0 1-.041-.398c-.019-.284-.005-.498.06-.698.06-.189.181-.412.447-.684ZM4.393 17.27v.001c.2-.065.414-.079.698-.06.133.011.266.024.399.041.358.048.719.074 1.08.08.006.361.032.722.08 1.08.017.133.03.266.041.399.019.283.004.498-.06.698-.062.194-.19.426-.474.71a1.75 1.75 0 0 1-2.474-2.475c.283-.284.516-.411.71-.474Zm1.414-4.95-.001.002c.2-.065.414-.079.698-.059.133.01.266.024.399.04.358.048.719.074 1.08.08.005.361.032.722.08 1.08.017.133.03.266.041.399.019.284.005.498-.06.698-.062.194-.189.426-.474.71a1.75 1.75 0 0 1-2.473-2.476c.284-.284.516-.411.71-.474Zm10.25 2.595v.001a1.75 1.75 0 1 1-2.505.03l.03-.031a1.75 1.75 0 0 1 2.475 0Zm-9.546-7.07a1.75 1.75 0 1 1 2.475 2.477 1.75 1.75 0 0 1-2.475-2.477Zm8.009 5.071a3.239 3.239 0 0 1 2.598.939v.001a3.242 3.242 0 0 0-2.598-.939 3.231 3.231 0 0 1 0-.001Zm-3.506 2.969.063.004c.16.009.329.01.504-.002a2.987 2.987 0 0 0 .689-.13 2.934 2.934 0 0 0-.118.035 2.922 2.922 0 0 1-.572.096c-.175.012-.343.01-.503.001l-.064-.004a10.41 10.41 0 0 1 .001 0Zm2.123 1.412c-.016-.236-.04-.444-.062-.64.023.196.046.404.063.64a3.57 3.57 0 0 1-.001 0Zm-3.535-3.536a3.43 3.43 0 0 1-.001.001 11.638 11.638 0 0 0 .001-.001Zm3.407 4.793a2.681 2.681 0 0 1-.082.221 3.067 3.067 0 0 0 .082-.221Zm-5.084-2.577v-.001a.752.752 0 0 1 0 .001Zm.153 1.043c.007-.086.018-.175.034-.267a3.258 3.258 0 0 0 0 .001c-.016.092-.027.18-.034.266Zm1.395-2.001Zm-1.286 3.692c-.014-.226-.038-.428-.059-.618.022.189.045.392.059.618Zm.77-2.883.12-.022-.12.022Zm-.832 2.244c-.019-.168-.038-.327-.049-.486.011.158.03.317.049.485l.003.022-.003-.021Z"/></svg>