<svg xmlns="http://www.w3.org/2000/svg" viewBox="0 0 24 24"><path fill="#151E28" d="M17.8 13.25h.03c.535 0 .98 0 1.345.03.38.03.736.097 1.073.27.518.263.939.684 1.202 1.201.172.337.24.694.27 1.074.03.364.03.81.03 1.344v.66c0 .535 0 .98-.03 1.345-.03.38-.098.737-.27 1.074a2.752 2.752 0 0 1-1.201 1.202c-.338.172-.694.239-1.074.27-.365.03-.81.03-1.345.03h-.66c-.535 0-.98 0-1.345-.03-.38-.031-.736-.098-1.073-.27a2.749 2.749 0 0 1-1.202-1.202c-.172-.337-.24-.694-.27-1.074-.03-.364-.03-.81-.03-1.344v-.66c0-.535 0-.98.03-1.345.03-.38.098-.737.27-1.074a2.752 2.752 0 0 1 1.201-1.202c.338-.172.694-.239 1.074-.27.365-.03.81-.03 1.345-.03h.63Zm-11.6-11v-.002h.63c.535 0 .98 0 1.345.03.38.031.736.098 1.073.27.518.264.938.684 1.202 1.202.172.337.24.694.27 1.074.03.365.03.81.03 1.345v.66c0 .534 0 .98-.03 1.344-.03.38-.098.737-.27 1.074a2.749 2.749 0 0 1-1.202 1.202c-.337.172-.693.239-1.073.27-.365.03-.81.03-1.345.03h-.66c-.535 0-.98 0-1.345-.03-.38-.031-.736-.098-1.073-.27A2.749 2.749 0 0 1 2.55 9.247c-.172-.337-.24-.694-.27-1.074-.03-.364-.03-.81-.03-1.345v-.66c0-.534 0-.98.03-1.344.03-.38.098-.737.27-1.074a2.75 2.75 0 0 1 1.202-1.2c.337-.173.693-.24 1.073-.27.365-.03.81-.03 1.345-.03Zm0 11v-.002h.63c.535 0 .98 0 1.345.03.38.031.736.098 1.073.27.518.264.938.684 1.202 1.202.172.337.24.694.27 1.074.03.365.03.81.03 1.345v.66c0 .534 0 .98-.03 1.344-.03.38-.098.737-.27 1.074a2.749 2.749 0 0 1-1.202 1.202c-.337.172-.693.239-1.073.27-.365.03-.81.03-1.345.03h-.66c-.535 0-.98 0-1.345-.03-.38-.031-.736-.098-1.073-.27a2.749 2.749 0 0 1-1.202-1.202c-.172-.337-.24-.694-.27-1.074-.03-.365-.03-.81-.03-1.345v-.66c0-.534 0-.98.03-1.344.03-.38.098-.737.27-1.074a2.75 2.75 0 0 1 1.202-1.2c.337-.173.693-.24 1.073-.27.365-.03.81-.03 1.345-.03Zm11.63-11v-.002c.535 0 .98 0 1.345.03.38.031.736.098 1.074.27.517.264.938.685 1.201 1.202.172.337.24.694.27 1.074.03.365.03.81.03 1.345v.66c0 .534 0 .98-.03 1.344-.03.38-.098.737-.27 1.074a2.749 2.749 0 0 1-1.202 1.202c-.337.172-.693.239-1.073.27-.365.03-.81.03-1.345.03h-.66c-.535 0-.98 0-1.345-.03-.38-.031-.736-.098-1.074-.27a2.752 2.752 0 0 1-1.201-1.202c-.172-.337-.24-.694-.27-1.074-.03-.364-.03-.81-.03-1.344v-.661c0-.534 0-.98.03-1.344.03-.38.098-.737.27-1.074a2.75 2.75 0 0 1 1.202-1.2c.337-.173.693-.24 1.073-.27.365-.03.81-.03 1.345-.03Z"/></svg>