<svg xmlns="http://www.w3.org/2000/svg" viewBox="0 0 24 24"><path fill="#151E28" d="M4 2.25h2c.966 0 1.75.784 1.75 1.75v2A1.75 1.75 0 0 1 6 7.75H4A1.75 1.75 0 0 1 2.25 6V4c0-.966.784-1.75 1.75-1.75Zm7 0h2c.966 0 1.75.784 1.75 1.75v2A1.75 1.75 0 0 1 13 7.75h-2A1.75 1.75 0 0 1 9.25 6V4c0-.966.784-1.75 1.75-1.75Zm-7 7h2c.966 0 1.75.784 1.75 1.75v2A1.75 1.75 0 0 1 6 14.75H4A1.75 1.75 0 0 1 2.25 13v-2c0-.966.784-1.75 1.75-1.75Zm7 7h2c.966 0 1.75.784 1.75 1.75v2A1.75 1.75 0 0 1 13 21.75h-2A1.75 1.75 0 0 1 9.25 20v-2c0-.966.784-1.75 1.75-1.75Zm7-7h2c.966 0 1.75.784 1.75 1.75v2A1.75 1.75 0 0 1 20 14.75h-2A1.75 1.75 0 0 1 16.25 13v-2c0-.966.784-1.75 1.75-1.75ZM9.25 11c0-.966.784-1.75 1.75-1.75h2c.966 0 1.75.784 1.75 1.75v2A1.75 1.75 0 0 1 13 14.75h-2A1.75 1.75 0 0 1 9.25 13Zm7-7c0-.966.784-1.75 1.75-1.75h2c.966 0 1.75.784 1.75 1.75v2A1.75 1.75 0 0 1 20 7.75h-2A1.75 1.75 0 0 1 16.25 6Zm-14 14c0-.966.784-1.75 1.75-1.75h2c.966 0 1.75.784 1.75 1.75v2A1.75 1.75 0 0 1 6 21.75H4A1.75 1.75 0 0 1 2.25 20Zm14 0c0-.966.784-1.75 1.75-1.75h2c.966 0 1.75.784 1.75 1.75v2A1.75 1.75 0 0 1 20 21.75h-2A1.75 1.75 0 0 1 16.25 20Z"/></svg>