<svg xmlns="http://www.w3.org/2000/svg" viewBox="0 0 24 24"><path fill="#151E28" d="M10.724 2.25h2.589c1.178 0 2.113 0 2.823.063.692.061 1.347.192 1.82.596a2.75 2.75 0 0 1 .956 2.306c-.049.621-.42 1.177-.866 1.71-.457.545-1.118 1.207-1.952 2.04l-.027.028L13.06 12l3.009 3.007.028.028c.833.833 1.494 1.495 1.951 2.041.446.532.817 1.088.866 1.708a2.749 2.749 0 0 1-.956 2.307c-.473.404-1.128.535-1.82.596-.709.063-1.645.063-2.823.063h-2.628c-1.178 0-2.113 0-2.823-.063-.692-.061-1.347-.192-1.821-.596a2.75 2.75 0 0 1-.955-2.306c.049-.621.42-1.177.866-1.71.457-.545 1.118-1.207 1.951-2.04l.028-.028L10.94 12 7.932 8.993l-.028-.028c-.833-.833-1.494-1.495-1.951-2.04-.446-.533-.817-1.089-.866-1.709a2.749 2.749 0 0 1 .956-2.307c.473-.404 1.128-.535 1.82-.596.709-.063 1.645-.063 2.823-.063h.038Z"/></svg>