<svg xmlns="http://www.w3.org/2000/svg" viewBox="0 0 24 24"><path fill="#151E28" d="M6.834 3.802c-.62.051-1.005.147-1.31.302a3.258 3.258 0 0 0-1.42 1.42c-.155.305-.252.69-.302 1.31-.052.629-.052 1.434-.052 2.566v5.2c0 1.117 0 1.914.05 2.54l3.253-3.254.005-.005h.001a2.75 2.75 0 0 1 3.883 0v.001l.005.004.005.005a1.25 1.25 0 0 0 1.857-.103l.004-.005.4-.5.072-.09c.371-.464.653-.817.959-1.038a2.75 2.75 0 0 1 3.406.148c.285.247.535.622.865 1.117l.064.096 1.665 2.498c.006-.408.006-.874.006-1.414V12a.75.75 0 0 1 1.5 0v2.633c0 1.092 0 1.958-.057 2.655a6.488 6.488 0 0 1-.167 1.076l-.004.017c-.07.274-.165.53-.29.776a4.752 4.752 0 0 1-2.075 2.076c-.552.28-1.155.402-1.869.46-.697.057-1.563.057-2.655.057H9.367c-1.092 0-1.957 0-2.655-.057-.492-.04-.931-.11-1.337-.242a3.55 3.55 0 0 1-.322-.121 4.749 4.749 0 0 1-2.286-2.173c-.28-.552-.402-1.155-.46-1.869-.057-.697-.057-1.563-.057-2.655V9.367c0-1.092 0-1.958.057-2.655.058-.714.18-1.318.461-1.868a4.752 4.752 0 0 1 2.076-2.077c.551-.28 1.154-.402 1.868-.46.697-.057 1.563-.057 2.655-.057H12a.75.75 0 0 1 0 1.5H9.4c-1.132 0-1.936.001-2.566.052ZM20.53 3.47h.001a2.164 2.164 0 0 1 0 3.06l-2.63 2.63-.049.048c-.463.463-.762.763-1.107 1.003-.306.213-.636.39-.983.526-.391.154-.806.237-1.448.365l-.067.013-.6.12a.75.75 0 0 1-.883-.882l.12-.6.014-.067c.128-.642.211-1.057.365-1.448.136-.347.313-.677.526-.983.241-.345.539-.644 1.003-1.107l.048-.048 2.63-2.63a2.164 2.164 0 0 1 3.06 0ZM6.25 8.7A2.45 2.45 0 0 1 8.7 6.25h.6a2.45 2.45 0 0 1 2.45 2.45v.6a2.45 2.45 0 0 1-2.45 2.45h-.6A2.45 2.45 0 0 1 6.25 9.3Zm12.28-4.17L15.9 7.16c-.527.528-.725.73-.881.953a3.243 3.243 0 0 0-.36.672c-.072.185-.123.382-.201.757.375-.078.572-.129.757-.202.237-.092.462-.213.672-.36.223-.155.425-.353.953-.88l2.63-2.63a.664.664 0 1 0-.94-.94ZM8.7 7.75a.95.95 0 0 0-.95.95v.6c0 .525.425.95.95.95h.6a.95.95 0 0 0 .95-.95v-.6a.95.95 0 0 0-.95-.95Z"/></svg>