<svg xmlns="http://www.w3.org/2000/svg" viewBox="0 0 24 24"><path fill="#151E28" d="M5.17 5.25h13.661c.535 0 .98 0 1.345.03.38.03.736.098 1.074.27a2.75 2.75 0 0 1 1.2 1.202c.172.337.24.693.27 1.073.03.365.03.81.03 1.345v5.66c0 .535 0 .98-.03 1.345-.03.38-.098.736-.27 1.074a2.752 2.752 0 0 1-1.202 1.201c-.337.172-.693.24-1.073.27-.365.03-.81.03-1.345.03H5.17c-.535 0-.98 0-1.345-.03-.38-.03-.736-.098-1.073-.27a2.749 2.749 0 0 1-1.202-1.202c-.172-.337-.24-.693-.27-1.073-.03-.365-.03-.81-.03-1.345V9.17c0-.535 0-.98.03-1.345.03-.38.098-.736.27-1.073A2.749 2.749 0 0 1 2.752 5.55c.337-.172.693-.24 1.073-.27.365-.03.81-.03 1.345-.03ZM9.25 14c0 .414.336.75.75.75h4a.75.75 0 0 0 0-1.5h-4a.75.75 0 0 0-.75.75ZM15 10a1 1 0 1 0-2 0 1 1 0 0 0 2 0Zm-5 1a1 1 0 1 0 0-2 1 1 0 0 0 0 2Zm-4 4a1 1 0 1 0 0-2 1 1 0 0 0 0 2Zm1-5a1 1 0 1 0-2 0 1 1 0 0 0 2 0Zm11 1a1 1 0 1 0 0-2 1 1 0 0 0 0 2Zm1 3a1 1 0 1 0-2 0 1 1 0 0 0 2 0Z"/></svg>