<svg xmlns="http://www.w3.org/2000/svg" viewBox="0 0 24 24"><path fill="#151E28" d="M2.25 9.25h19.5v5.5H2.25Zm12.383-7c1.092 0 1.958 0 2.655.057.714.058 1.317.18 1.869.46a4.752 4.752 0 0 1 2.075 2.076c.281.551.403 1.155.461 1.868.025.311.04.656.047 1.039H2.26c.007-.383.022-.728.047-1.039.058-.713.18-1.317.46-1.868a4.752 4.752 0 0 1 2.077-2.076c.55-.28 1.154-.402 1.868-.46.685-.057 1.534-.057 2.6-.057h5.321ZM2.307 17.288c-.025-.311-.04-.655-.047-1.038h19.48c-.007.383-.022.727-.047 1.038-.058.713-.18 1.317-.46 1.868a4.744 4.744 0 0 1-2.076 2.076c-.552.28-1.155.402-1.869.46-.697.058-1.563.058-2.655.058H9.367c-1.092 0-1.958 0-2.655-.058-.714-.058-1.317-.18-1.868-.46a4.744 4.744 0 0 1-2.076-2.076c-.281-.551-.403-1.155-.461-1.868Z"/></svg>