<svg xmlns="http://www.w3.org/2000/svg" viewBox="0 0 24 24"><path fill="#151E28" d="M2.25 9.75h12v12H9.367c-1.092 0-1.957 0-2.655-.058-.713-.058-1.317-.18-1.868-.46a4.744 4.744 0 0 1-2.076-2.076c-.28-.551-.402-1.155-.46-1.868-.058-.698-.058-1.563-.058-2.655V9.75Zm7.117-7.5h5.321c1.066 0 1.915 0 2.6.057.714.058 1.317.18 1.869.46a4.744 4.744 0 0 1 2.076 2.076c.28.551.402 1.155.46 1.868.036.512.054 1.026.054 1.539H2.253c.005-.589.018-1.098.055-1.539.058-.713.18-1.317.46-1.868a4.744 4.744 0 0 1 2.076-2.076c.551-.28 1.155-.402 1.868-.46.698-.057 1.563-.057 2.655-.057Zm6.383 19.497V9.75h6v4.883c0 1.092 0 1.957-.057 2.655-.058.713-.18 1.317-.46 1.868a4.744 4.744 0 0 1-2.076 2.076c-.552.28-1.155.402-1.869.46-.44.037-.948.05-1.538.055Z"/></svg>