<svg xmlns="http://www.w3.org/2000/svg" viewBox="0 0 24 24"><path fill="#151E28" d="M12 2.25A9.75 9.75 0 0 1 21.75 12 9.75 9.75 0 0 1 12 21.75 9.75 9.75 0 0 1 2.25 12 9.75 9.75 0 0 1 12 2.25Zm3.359 6.391A4.735 4.735 0 0 1 16.75 12c0 1.312-.532 2.5-1.391 3.359l2.475 2.475A8.222 8.222 0 0 0 20.25 12c0-2.278-.923-4.34-2.416-5.834ZM3.75 12a8.222 8.222 0 0 0 2.416 5.834l2.475-2.475A4.736 4.736 0 0 1 7.25 12a4.733 4.733 0 0 1 1.391-3.358L6.166 6.167A8.223 8.223 0 0 0 3.75 12Zm5 0a3.25 3.25 0 1 0 6.5 0 3.25 3.25 0 0 0-6.5 0Z"/></svg>