<svg xmlns="http://www.w3.org/2000/svg" viewBox="0 0 24 24"><path fill="#151E28" d="M7.49 8.55A.75.75 0 0 1 7.25 8V6a4.75 4.75 0 0 1 9.5 0v2a.75.75 0 0 1-.24.55 6 6 0 0 1 3.439 4.667C20 13.607 20 14.07 20 15c0 .929 0 1.393-.051 1.783a5.999 5.999 0 0 1-5.166 5.166C14.393 22 13.93 22 13 22h-2c-.929 0-1.393 0-1.783-.051a5.999 5.999 0 0 1-5.166-5.166C4 16.393 4 15.93 4 15c0-.929 0-1.393.051-1.783A6 6 0 0 1 7.49 8.55ZM8.75 6v2a.75.75 0 0 1-.012.134c.158-.034.318-.062.479-.083C9.607 8 10.071 8 11 8h2c.93 0 1.393 0 1.783.051.161.021.321.049.479.083A.742.742 0 0 1 15.25 8V6a3.25 3.25 0 1 0-6.5 0ZM10 14.8v.4a1.8 1.8 0 0 0 1.8 1.8h.4a1.8 1.8 0 0 0 1.8-1.8v-.4a1.8 1.8 0 0 0-1.8-1.8h-.4a1.8 1.8 0 0 0-1.8 1.8Z"/></svg>