<svg xmlns="http://www.w3.org/2000/svg" viewBox="0 0 24 24"><path fill="#151E28" d="M18.981 2.67c1.505-.751 3.1.845 2.348 2.349l-1.934 3.87a.251.251 0 0 0 .223.361h.321c1.462 0 2.28 1.685 1.375 2.833l-5.775 7.331a.732.732 0 0 1-.059.066A7.75 7.75 0 0 1 4.52 8.52c.02-.02.043-.04.066-.059l7.331-5.775c1.148-.904 2.833-.086 2.833 1.375v.321a.25.25 0 0 0 .362.224l3.87-1.935Zm1.007 1.678a.251.251 0 0 0-.047-.289.25.25 0 0 0-.289-.046l-3.87 1.934a1.75 1.75 0 0 1-2.532-1.565v-.321a.25.25 0 0 0-.405-.197L5.55 9.611a6.25 6.25 0 1 0 8.839 8.839l5.747-7.295a.25.25 0 0 0-.197-.405h-.32a1.75 1.75 0 0 1-1.566-2.533ZM5.25 14a4.75 4.75 0 1 1 9.5 0 4.75 4.75 0 0 1-9.5 0Z"/></svg>