<svg xmlns="http://www.w3.org/2000/svg" viewBox="0 0 24 24"><path fill="#151E28" d="M5.17 4.25h13.66c.534 0 .98 0 1.344.03.38.03.737.098 1.074.27.517.263.938.684 1.202 1.201.172.338.239.694.27 1.074.03.365.03.81.03 1.345v7.66c0 .535 0 .98-.03 1.345-.03.379-.098.736-.27 1.073a2.749 2.749 0 0 1-1.202 1.202c-.337.172-.693.24-1.073.27-.365.03-.81.03-1.345.03H5.17c-.535 0-.98 0-1.345-.03-.38-.03-.736-.098-1.073-.27a2.749 2.749 0 0 1-1.202-1.202c-.172-.337-.24-.693-.27-1.073-.03-.365-.03-.81-.03-1.345V8.17c0-.535 0-.98.03-1.345.03-.38.098-.736.27-1.073A2.749 2.749 0 0 1 2.752 4.55c.337-.172.693-.24 1.073-.27.365-.03.81-.03 1.345-.03ZM8.75 12a3.25 3.25 0 1 0 6.5 0 3.25 3.25 0 0 0-6.5 0ZM12 10.25a1.75 1.75 0 1 1-.001 3.501A1.75 1.75 0 0 1 12 10.25Z"/></svg>