<svg xmlns="http://www.w3.org/2000/svg" viewBox="0 0 24 24"><path fill="#151E28" d="M5.39 19.229a2.512 2.512 0 0 0-.012 1.506C3.08 20.55 1.25 18.664 1.25 16.333c0-2.15 1.559-3.923 3.605-4.329a4.751 4.751 0 0 1 9.29 0c2.046.406 3.605 2.179 3.605 4.33 0 2.33-1.83 4.215-4.127 4.4a2.486 2.486 0 0 0-.1-1.734 2.498 2.498 0 0 0-2.011-3.485 2.498 2.498 0 0 0-4.024.001A2.498 2.498 0 0 0 5.477 19a2.36 2.36 0 0 0-.087.23Zm5.836-12.416a.75.75 0 1 1-1.364-.626 6.752 6.752 0 0 1 6.137-3.937.75.75 0 0 1 .6 1.2 4.251 4.251 0 0 0 4.898 6.529.75.75 0 0 1 .984.912 6.762 6.762 0 0 1-3.106 3.956.752.752 0 0 1-1.147-.644.75.75 0 0 1 .397-.654 5.28 5.28 0 0 0 1.86-1.82 5.748 5.748 0 0 1-5.851-7.8 5.264 5.264 0 0 0-3.408 2.884ZM9.5 16.25a.75.75 0 0 1 .75.75v.701l.607-.35a.75.75 0 0 1 .75 1.299L11 19l.607.35a.75.75 0 0 1-.75 1.3l-.607-.351V21a.75.75 0 0 1-1.5 0v-.7l-.607.35a.75.75 0 0 1-.75-1.3L8 19l-.607-.35a.75.75 0 0 1 .75-1.3l.607.35V17a.75.75 0 0 1 .75-.75Z"/></svg>