<svg xmlns="http://www.w3.org/2000/svg" viewBox="0 0 24 24"><path fill="#151E28" d="M13.489 19.241c-.058-.718-.34-1.315-.5-1.627a9.2 9.2 0 0 0-.71-1.137 14.937 14.937 0 0 0-.89-1.115l-.02-.022-.006-.008-.003-.002v-.001h-.001l-1.795 1.614.494-.444h.001v.002l.005.004.015.017c.275.313.536.639.78.977.213.291.405.597.574.916.152.295.317.69.317 1.085 0 1.274-1.113 2.25-2.25 2.25s-2.25-.976-2.25-2.25c0-.395.165-.789.317-1.085.164-.32.376-.64.574-.916a13.295 13.295 0 0 1 .781-.977l.014-.017.004-.004.002-.002v-.001l.497.448h.001l-.555-.5-.744-.669-.5-.449-.001.002-.003.002-.006.008-.02.022a15.409 15.409 0 0 0-.89 1.114c-.224.312-.49.711-.71 1.138-.16.312-.442.909-.5 1.627-.017.249-.01.499.02.746v.007c.032.262.09.515.172.756-2.448-.025-4.453-1.977-4.453-4.417 0-2.15 1.559-3.923 3.605-4.329a4.751 4.751 0 0 1 9.29 0c2.046.406 3.605 2.179 3.605 4.33 0 2.439-2.005 4.39-4.453 4.416.163-.486.228-.999.192-1.51ZM11.226 6.813a.75.75 0 1 1-1.364-.626 6.752 6.752 0 0 1 6.137-3.937.75.75 0 0 1 .6 1.2 4.251 4.251 0 0 0 4.898 6.529.75.75 0 0 1 .984.912 6.762 6.762 0 0 1-3.106 3.956.752.752 0 0 1-1.147-.644.75.75 0 0 1 .397-.654 5.28 5.28 0 0 0 1.86-1.82 5.748 5.748 0 0 1-5.851-7.8 5.264 5.264 0 0 0-3.408 2.884Zm.133 8.515h-.001a2.498 2.498 0 0 0-3.716 0l.499.449.744.669.058.052a.75.75 0 0 1 1.114 0ZM9.5 18.184a6.766 6.766 0 0 0-.141.192c-.177.245-.34.498-.458.725-.049.092-.09.188-.124.286a.547.547 0 0 0-.027.113c0 .393.387.75.75.75s.75-.357.75-.75a.532.532 0 0 0-.027-.113 2.009 2.009 0 0 0-.124-.286 5.937 5.937 0 0 0-.458-.725 6.766 6.766 0 0 0-.141-.192ZM9.5 17l.064-.057-.063.056L9.5 17Z"/></svg>