<svg xmlns="http://www.w3.org/2000/svg" viewBox="0 0 24 24"><path fill="#151E28" d="m2.75 16.368-.62.929-.21.316c-.114.17-.205.352-.272.54a4.334 4.334 0 0 1-.398-1.82c0-2.15 1.559-3.923 3.605-4.329a4.751 4.751 0 0 1 9.29 0c2.046.406 3.605 2.179 3.605 4.33 0 1.801-1.094 3.337-2.653 4.027.035-.054.068-.109.099-.165a2.5 2.5 0 0 0 1.298-2.022l.001-.02a2.49 2.49 0 0 0-1.299-2.35 2.5 2.5 0 0 0-4.392 0A2.506 2.506 0 0 0 9.55 17.5H9.5c-.16 0-.316.015-.468.044a2.507 2.507 0 0 0-.694-.656 2.5 2.5 0 0 0-4.418-2.275Zm8.476-9.555a.75.75 0 1 1-1.364-.626 6.752 6.752 0 0 1 6.137-3.937.75.75 0 0 1 .6 1.2 4.251 4.251 0 0 0 4.898 6.529.75.75 0 0 1 .984.912 6.762 6.762 0 0 1-3.106 3.956.752.752 0 0 1-1.147-.644.75.75 0 0 1 .397-.654 5.28 5.28 0 0 0 1.86-1.82 5.748 5.748 0 0 1-5.851-7.8 5.264 5.264 0 0 0-3.408 2.884Zm-4.81 8.563a.75.75 0 0 1 .208 1.04L5.401 18.25H7a.748.748 0 0 1 .624 1.166l-2 3a.749.749 0 1 1-1.248-.832l1.223-1.834H4a.748.748 0 0 1-.624-1.166l2-3a.75.75 0 0 1 1.04-.208ZM13 16.25a.75.75 0 0 1 .75.75v.25H14a.75.75 0 0 1 0 1.5h-.25V19a.75.75 0 0 1-1.5 0v-.25H12a.75.75 0 0 1 0-1.5h.25V17a.75.75 0 0 1 .75-.75ZM10.25 20v.25h.25a.75.75 0 0 1 0 1.5h-.25V22a.75.75 0 0 1-1.5 0v-.25H8.5a.75.75 0 0 1 0-1.5h.25V20a.75.75 0 0 1 1.5 0Z"/></svg>