<svg xmlns="http://www.w3.org/2000/svg" viewBox="0 0 24 24"><path fill="#151E28" d="M4.855 12.004a4.751 4.751 0 0 1 9.29 0c2.046.407 3.605 2.179 3.605 4.33 0 2.454-2.03 4.416-4.5 4.416h-7.5c-2.47 0-4.5-1.962-4.5-4.417 0-2.15 1.559-3.922 3.605-4.329Zm6.371-5.191a.75.75 0 1 1-1.364-.626 6.752 6.752 0 0 1 6.137-3.937.75.75 0 0 1 .6 1.2 4.251 4.251 0 0 0 4.898 6.529.75.75 0 0 1 .984.912 6.762 6.762 0 0 1-3.106 3.956.752.752 0 0 1-1.147-.644.75.75 0 0 1 .397-.654 5.28 5.28 0 0 0 1.86-1.82 5.748 5.748 0 0 1-5.851-7.8 5.264 5.264 0 0 0-3.408 2.884Z"/></svg>