<svg xmlns="http://www.w3.org/2000/svg" viewBox="0 0 24 24"><path fill="#151E28" d="M9.768 2.25h4.464c.813 0 1.469 0 2 .043.546.045 1.026.139 1.471.365.705.36 1.279.934 1.638 1.64.226.444.321.924.366 1.47.043.531.043 1.187.043 2v8.464c0 .813 0 1.469-.043 2-.045.546-.139 1.026-.365 1.47a3.749 3.749 0 0 1-1.64 1.639c-.444.226-.924.321-1.47.366-.531.043-1.187.043-2 .043H9.768c-.813 0-1.468 0-2-.043-.546-.045-1.026-.139-1.47-.365a3.749 3.749 0 0 1-1.639-1.64c-.226-.444-.321-.924-.365-1.47a19.72 19.72 0 0 1-.044-1.482H3a.75.75 0 0 1 0-1.5h1.25v-2.5H3a.75.75 0 0 1 0-1.5h1.25v-2.5H3a.75.75 0 0 1 0-1.5h1.251c.001-.58.009-1.068.043-1.482.044-.546.139-1.026.364-1.47.36-.706.934-1.28 1.64-1.639.444-.226.924-.321 1.47-.366.532-.043 1.187-.043 2-.043Zm.032 1.5c-.852 0-1.447 0-1.91.038-.453.037-.714.107-.911.207a2.25 2.25 0 0 0-.984.984c-.1.197-.17.458-.206.912-.03.356-.037.79-.038 1.359H7a.75.75 0 0 1 0 1.5H5.75v2.5H7a.75.75 0 0 1 0 1.5H5.75v2.5H7a.75.75 0 0 1 0 1.5H5.75c.001.57.008 1.003.038 1.36.037.453.106.714.206.912.216.423.56.767.984.983.197.1.458.17.912.207.462.037 1.057.038 1.91.038h3.449V3.75H9.8Z"/></svg>