<svg xmlns="http://www.w3.org/2000/svg" viewBox="0 0 24 24"><path fill="#151E28" d="M16.975 3.25h.05c.445 0 .816 0 1.12.021.317.021.617.068.907.188a2.749 2.749 0 0 1 1.488 1.489c.113.29.177.596.19.907.02.304.02.675.02 1.12v10.05c0 .445 0 .816-.021 1.12a2.812 2.812 0 0 1-.188.907 2.749 2.749 0 0 1-1.489 1.488c-.29.121-.59.168-.907.19-.304.02-.675.02-1.12.02h-.05c-.445 0-.816 0-1.12-.021a2.812 2.812 0 0 1-.907-.188 2.749 2.749 0 0 1-1.488-1.489 2.814 2.814 0 0 1-.19-.907c-.02-.304-.02-.675-.02-1.12V6.975c0-.445 0-.816.021-1.12.021-.317.068-.617.188-.907a2.749 2.749 0 0 1 1.489-1.488 2.82 2.82 0 0 1 .907-.19c.304-.02.675-.02 1.12-.02Zm-10 0h.05c.445 0 .816 0 1.12.021.317.021.617.068.907.188a2.749 2.749 0 0 1 1.488 1.489c.113.29.177.596.19.907.02.304.02.675.02 1.12v10.05c0 .445 0 .816-.021 1.12a2.812 2.812 0 0 1-.188.907 2.749 2.749 0 0 1-1.489 1.488c-.29.121-.59.168-.907.19-.304.02-.675.02-1.12.02h-.05c-.445 0-.816 0-1.12-.021a2.812 2.812 0 0 1-.907-.188 2.749 2.749 0 0 1-1.488-1.489 2.814 2.814 0 0 1-.19-.907c-.02-.304-.02-.675-.02-1.12V6.975c0-.445 0-.816.021-1.12.021-.317.068-.617.188-.907A2.749 2.749 0 0 1 4.948 3.46a2.82 2.82 0 0 1 .907-.19c.304-.02.675-.02 1.12-.02Z"/></svg>