<svg xmlns="http://www.w3.org/2000/svg" viewBox="0 0 24 24"><path fill="#151E28" d="M6.644 13.374c.899.19 1.723.637 2.371 1.288a2.75 2.75 0 0 1 0 3.889L6.188 21.38a2.75 2.75 0 0 1-3.89 0 4.75 4.75 0 0 1-.012-6.706l.012-.012c5.357-5.358 14.035-5.37 19.407-.038l.039.038a4.75 4.75 0 0 1 0 6.718 2.75 2.75 0 0 1-3.89 0l-2.828-2.828a2.75 2.75 0 0 1 0-3.89 4.722 4.722 0 0 1 2.371-1.288 12.285 12.285 0 0 0-10.753 0Zm10.824-8.788h.001l-5 4a.749.749 0 0 1-.938 0L7.75 5.56V8a.75.75 0 0 1-1.5 0V4A.75.75 0 0 1 7 3.25h4a.75.75 0 0 1 0 1.5H9.138L12 7.04l4.532-3.626a.75.75 0 1 1 .936 1.172Z"/></svg>