<svg xmlns="http://www.w3.org/2000/svg" viewBox="0 0 24 24"><path fill="#151E28" d="M20.75 9.542v.001c0 2.767-1.079 5.222-2.426 7.21-1.347 1.99-2.991 3.555-4.193 4.56l-.05.041c-.421.352-.763.639-1.325.799a2.866 2.866 0 0 1-.756.092c-.241 0-.517-.024-.755-.092-.562-.161-.905-.447-1.325-.799l-.05-.041c-1.203-1.005-2.846-2.57-4.194-4.56-1.347-1.988-2.426-4.443-2.426-7.21 0-2.734 1.096-4.83 2.768-6.233C7.673 1.924 9.852 1.25 12 1.25s4.327.674 5.982 2.061c1.672 1.401 2.768 3.497 2.768 6.231ZM16.53 7.47a.75.75 0 0 0-1.06 0L11 11.94l-1.47-1.47a.749.749 0 0 0-1.275.326.749.749 0 0 0 .215.734l2 2a.75.75 0 0 0 1.06 0l5-5a.75.75 0 0 0 0-1.06Z"/></svg>