<svg xmlns="http://www.w3.org/2000/svg" viewBox="0 0 24 24"><path fill="#151E28" d="M3.25 12a8.75 8.75 0 0 1 17.137-2.503c.626-.737 1.05-1.4 1.27-1.955.247-.617.198-.973.086-1.167-.085-.147-.262-.305-.631-.418-.375-.114-.896-.164-1.563-.12a.75.75 0 1 1-.098-1.497c.773-.05 1.49-.003 2.099.183.613.187 1.163.532 1.492 1.102.44.763.336 1.654.009 2.473-.33.83-.937 1.716-1.727 2.607-1.585 1.787-4.029 3.723-6.949 5.409s-5.818 2.834-8.159 3.313c-1.166.239-2.237.32-3.12.192-.873-.126-1.697-.481-2.137-1.244-.36-.624-.355-1.338-.165-2.018.19-.676.58-1.387 1.101-2.098a.75.75 0 0 1 1.21.886c-.46.63-.743 1.176-.866 1.618-.124.438-.074.702.019.862.112.194.395.415 1.053.51.59.085 1.378.05 2.33-.124A8.722 8.722 0 0 1 3.25 12Zm17.064 2.734v.001a8.753 8.753 0 0 1-10.501 5.74.749.749 0 1 1 .374-1.453 7.254 7.254 0 0 0 8.702-4.756.751.751 0 0 1 1.425.468Z"/></svg>