<svg xmlns="http://www.w3.org/2000/svg" viewBox="0 0 24 24"><path fill="#151E28" d="M8 2.25h2.259a3.75 3.75 0 0 1 3.256 1.89l2.92 5.11h3.206c.352 0 .7.082 1.015.24l.785.392a2.368 2.368 0 0 1 0 4.236l-.785.392c-.315.158-.662.24-1.015.24h-3.206l-2.92 5.11a3.75 3.75 0 0 1-3.256 1.89H7a.749.749 0 0 1-.69-1.045l2.553-5.955H6.311l-1.195 1.194a2.75 2.75 0 0 1-1.944.806H2a.75.75 0 0 1-.728-.932l.758-3.03a3.257 3.257 0 0 0 0-1.576l-.758-3.03A.749.749 0 0 1 2 7.25h1.172c.729 0 1.428.29 1.944.805L6.31 9.25h2.696L7.279 3.206A.752.752 0 0 1 8 2.25Z"/></svg>