<svg xmlns="http://www.w3.org/2000/svg" viewBox="0 0 24 24"><path fill="#151E28" d="M4 5.25h16a.75.75 0 0 1 .75.75v4.232c0 .813 0 1.469-.043 2-.045.546-.139 1.026-.365 1.471a3.752 3.752 0 0 1-1.64 1.638c-.444.226-.924.321-1.47.366-.531.043-1.187.043-2 .043H12.75v1.825l4.636 2.782a.748.748 0 0 1-.018 1.304.75.75 0 0 1-.754-.018L12 18.875l-4.614 2.768a.75.75 0 1 1-.772-1.286l4.636-2.782V15.75H8.768c-.813 0-1.469 0-2-.043-.546-.045-1.026-.139-1.47-.365a3.749 3.749 0 0 1-1.639-1.64c-.226-.444-.321-.924-.366-1.47-.043-.531-.043-1.187-.043-2V6A.75.75 0 0 1 4 5.25ZM1.25 3A.75.75 0 0 1 2 2.25h20a.75.75 0 0 1 0 1.5H2A.75.75 0 0 1 1.25 3ZM8 7.25a.75.75 0 0 0-.75.75v4a.75.75 0 0 0 1.5 0V8A.75.75 0 0 0 8 7.25ZM12.75 9a.75.75 0 0 0-1.5 0v3a.75.75 0 0 0 1.5 0Zm3.25.25a.75.75 0 0 0-.75.75v2a.75.75 0 0 0 1.5 0v-2a.75.75 0 0 0-.75-.75Z"/></svg>