<svg xmlns="http://www.w3.org/2000/svg" viewBox="0 0 24 24"><path fill="#151E28" d="M9.367 2.25h5.266c1.092 0 1.958 0 2.655.057.714.058 1.317.18 1.869.461a4.744 4.744 0 0 1 2.076 2.076c.28.551.402 1.154.46 1.868.057.697.057 1.563.057 2.655v5.266c0 1.092 0 1.958-.057 2.655-.058.714-.18 1.317-.461 1.869a4.752 4.752 0 0 1-2.075 2.076c-.552.28-1.155.402-1.869.46-.697.057-1.563.057-2.655.057H9.367c-1.092 0-1.958 0-2.655-.057-.714-.058-1.318-.18-1.868-.461a4.75 4.75 0 0 1-2.077-2.075c-.28-.552-.402-1.155-.46-1.869-.057-.697-.057-1.563-.057-2.655V9.367c0-1.092 0-1.958.057-2.655.058-.714.18-1.318.461-1.868a4.752 4.752 0 0 1 2.076-2.077c.551-.28 1.154-.402 1.868-.46.697-.057 1.563-.057 2.655-.057ZM12 8.75c.69 0 1.25.56 1.25 1.25 0 .357-.149.637-.45.937-.237.235-.502.423-.81.643-.138.099-.284.203-.44.32a.75.75 0 0 0-.3.6v1a.75.75 0 0 0 1.5 0v-.617l.012-.009c.344-.245.764-.545 1.094-.872.48-.476.894-1.117.894-2.002a2.75 2.75 0 1 0-5.5 0 .75.75 0 0 0 1.5 0c0-.69.56-1.25 1.25-1.25ZM12 17a1 1 0 1 0 0-2 1 1 0 0 0 0 2Z"/></svg>