<svg xmlns="http://www.w3.org/2000/svg" viewBox="0 0 24 24"><path fill="#151E28" d="M8.75 5v.898A2.226 2.226 0 0 1 11.704 8a2.226 2.226 0 0 1-2.227 2.224A2.226 2.226 0 0 1 7.25 8V5c0-1.499 1.248-2.75 2.75-2.75a.75.75 0 0 1 0 1.5c-.673 0-1.25.578-1.25 1.25Zm-5 0v.898A2.226 2.226 0 0 1 6.704 8a2.226 2.226 0 0 1-2.227 2.224A2.226 2.226 0 0 1 2.25 8V5c0-1.499 1.248-2.75 2.75-2.75a.75.75 0 0 1 0 1.5c-.673 0-1.25.578-1.25 1.25Zm16.454 14v-.898A2.226 2.226 0 0 1 17.25 16c0-1.23.999-2.224 2.227-2.224 1.228 0 2.227.994 2.227 2.224v3c0 1.499-1.248 2.75-2.75 2.75a.75.75 0 0 1 0-1.5c.673 0 1.25-.578 1.25-1.25Zm-5 0v-.898A2.226 2.226 0 0 1 12.25 16c0-1.23.999-2.224 2.227-2.224 1.228 0 2.227.994 2.227 2.224v3c0 1.499-1.248 2.75-2.75 2.75a.75.75 0 0 1 0-1.5c.673 0 1.25-.578 1.25-1.25Z"/></svg>