<svg xmlns="http://www.w3.org/2000/svg" viewBox="0 0 24 24"><path fill="#151E28" d="M9.367 2.25h5.266c1.092 0 1.958 0 2.655.057.714.058 1.317.18 1.869.461a4.744 4.744 0 0 1 2.076 2.076c.28.551.402 1.154.46 1.868.057.697.057 1.563.057 2.655v5.266c0 1.092 0 1.958-.057 2.655-.058.714-.18 1.317-.461 1.869a4.752 4.752 0 0 1-2.075 2.076c-.552.28-1.155.402-1.869.46-.697.057-1.563.057-2.655.057H9.367c-1.092 0-1.958 0-2.655-.057-.714-.058-1.318-.18-1.868-.461a4.75 4.75 0 0 1-2.077-2.075c-.28-.552-.402-1.155-.46-1.869-.057-.697-.057-1.563-.057-2.655V9.367c0-1.092 0-1.958.057-2.655.058-.714.18-1.318.461-1.868a4.752 4.752 0 0 1 2.076-2.077c.551-.28 1.154-.402 1.868-.46.697-.057 1.563-.057 2.655-.057Zm-.624 11.854.001-.005.004-.027.018-.111c.101-.571.267-1.13.493-1.664.418-.972.961-1.547 1.63-1.547.379 0 .846.167 1.38.507.523.334 1.046.792 1.516 1.27.243.246.468.493.668.723H13a.75.75 0 0 0 0 1.5h3a.75.75 0 0 0 .75-.75v-3a.75.75 0 0 0-1.5 0v.891a15.064 15.064 0 0 0-.396-.418c-.515-.521-1.126-1.064-1.779-1.481-.644-.41-1.398-.742-2.186-.742-1.665 0-2.566 1.425-3.008 2.453a9.234 9.234 0 0 0-.615 2.135l-.006.041-.002.012-.001.003v.002l.354.05-.354-.049a.75.75 0 0 0 1.486.207ZM8 14l-.389-.054L8 14Z"/></svg>