<svg xmlns="http://www.w3.org/2000/svg" viewBox="0 0 24 24"><path fill="#151E28" d="m2.53 1.47 20 20a.75.75 0 1 1-1.06 1.061l-3.52-3.52c-2.115 1.771-4.58 2.453-5.46 2.654a2.19 2.19 0 0 1-.98 0c-1.158-.264-5.22-1.398-7.441-4.893-.657-1.032-.819-2.232-.819-3.312V6.655c0-.648.138-1.311.454-1.89L1.47 2.53a.751.751 0 0 1 .018-1.042.751.751 0 0 1 1.042-.018ZM12 3.75c-1.563 0-2.835.14-3.856.34a.75.75 0 0 1-.288-1.472c1.122-.22 2.492-.368 4.144-.368 3.382 0 5.576.619 6.897 1.21 1.331.595 1.853 1.955 1.853 3.194v6.806a7.924 7.924 0 0 1-.17 1.703.75.75 0 0 1-1.464-.326c.096-.432.134-.896.134-1.377V6.654c0-.882-.36-1.554-.965-1.825C17.177 4.334 15.196 3.75 12 3.75Z"/></svg>