<svg xmlns="http://www.w3.org/2000/svg" viewBox="0 0 24 24"><path fill="#151E28" d="M2.53 1.47v-.001l20 20a.75.75 0 1 1-1.06 1.061l-4.11-4.11a3.75 3.75 0 0 1-4.511 1.906c-.505-.164-.991-.527-1.513-.99-.531-.471-1.186-1.126-2.026-1.966l-.019-.019-.257-.257a1.25 1.25 0 0 0-.833-.345h-.08l-.017.001a2.752 2.752 0 0 1-2.854-2.854v-3.791c0-.095 0-.169.003-.235a2.75 2.75 0 0 1 1.329-2.227L1.47 2.53a.751.751 0 0 1 .018-1.042.751.751 0 0 1 1.042-.018Zm13.473 4.747a2.25 2.25 0 0 0-2.694-1.116c-.128.042-.322.146-.63.39-.303.242-.673.584-1.155 1.054a.75.75 0 0 1-1.048-1.073c.404-.405.828-.79 1.27-1.154.362-.288.722-.521 1.103-.644a3.75 3.75 0 0 1 4.489 1.86c.241.47.328 1.072.37 1.768.042.709.042 1.635.042 2.823V13a.75.75 0 0 1-1.5 0v-2.848c0-1.22 0-2.102-.04-2.76-.04-.676-.119-1.003-.207-1.175Z"/></svg>