<svg xmlns="http://www.w3.org/2000/svg" viewBox="0 0 24 24"><path fill="#151E28" d="M12 1.25c5.937 0 10.75 4.813 10.75 10.75S17.937 22.75 12 22.75 1.25 17.937 1.25 12 6.063 1.25 12 1.25ZM8.5 12.3c0 1.12 0 1.68.218 2.108.192.376.498.682.874.874.428.218.988.218 2.108.218h.6c1.12 0 1.68 0 2.108-.218.376-.192.682-.498.874-.874.218-.428.218-.988.218-2.108v-.6c0-1.12 0-1.68-.218-2.108a2.006 2.006 0 0 0-.874-.874C13.98 8.5 13.42 8.5 12.3 8.5h-.6c-1.12 0-1.68 0-2.108.218a2.006 2.006 0 0 0-.874.874C8.5 10.02 8.5 10.58 8.5 11.7Z"/></svg>