<svg xmlns="http://www.w3.org/2000/svg" viewBox="0 0 24 24"><path fill="#151E28" d="M8.75 2v3.815l.056-.02A9.353 9.353 0 0 1 12 5.25a9.371 9.371 0 0 1 3.194.546l.056.02V2a.75.75 0 0 1 1.294-.517L16 2l.544-.516.002.002.005.006.02.02c.408.44.803.892 1.184 1.355.649.789 1.445 1.844 1.917 2.802.674 1.365.927 3.346.985 5.37.059 2.052-.081 4.262-.267 6.155-.3 3.05-3.431 4.774-6.21 3.686l-1.65 1.65a.75.75 0 0 1-1.06 0l-1.65-1.65c-2.779 1.088-5.91-.636-6.21-3.686-.186-1.893-.327-4.103-.268-6.156.058-2.023.312-4.004.985-5.37.472-.957 1.269-2.012 1.917-2.8a29.97 29.97 0 0 1 1.184-1.356l.026-.026.002-.002L8 2l-.544-.517A.749.749 0 0 1 8.75 2Zm-.415 11.33a.749.749 0 1 0-.67 1.34l1.069.536-.264.264a.749.749 0 0 0 .326 1.275.749.749 0 0 0 .734-.215l1-1a.748.748 0 0 0-.195-1.2Zm8.336.335a.75.75 0 0 0-1.006-.336l-2 1a.751.751 0 0 0-.195 1.201l1 1a.749.749 0 0 0 1.275-.326.749.749 0 0 0-.215-.734l-.264-.264 1.07-.535a.75.75 0 0 0 .335-1.006Z"/></svg>