<svg xmlns="http://www.w3.org/2000/svg" viewBox="0 0 24 24"><path fill="#151E28" d="M14.35 3.805h.001l6.231 6.231.021.021c.322.312.632.636.93.972.246.29.451.59.568.95.18.552.18 1.148 0 1.7-.117.36-.322.66-.568.95-.237.278-.552.594-.93.971l-.021.022-2.829 2.828-.022.023c-.575.575-1.039 1.038-1.445 1.383-.418.355-.824.628-1.298.782a3.747 3.747 0 0 1-2.318 0c-.474-.154-.88-.427-1.298-.782-.406-.345-.87-.808-1.445-1.383l-.022-.022-5.1-5.1-.06-.06c-.461-.461-.78-.78-1.013-1.16a3.733 3.733 0 0 1-.449-1.084c-.104-.433-.104-.884-.104-1.535V7.697c0-.813 0-1.468.044-2 .045-.546.139-1.026.365-1.47a3.752 3.752 0 0 1 1.639-1.639c.444-.226.924-.321 1.47-.365.532-.044 1.187-.044 2-.044h1.815c.652 0 1.103 0 1.535.103.383.092.749.244 1.084.45.38.233.699.552 1.159 1.013ZM12 9a2 2 0 1 0-3.999-.001A2 2 0 0 0 12 9Z"/></svg>