<svg xmlns="http://www.w3.org/2000/svg" viewBox="0 0 24 24"><path fill="#151E28" d="m11.85 4.804.061.06 6.231 6.232.022.021c.377.378.693.693.93.972.246.29.45.59.568.95.18.552.18 1.148 0 1.7-.117.36-.322.66-.569.95-.236.278-.552.594-.93.971l-.02.022-2.83 2.828-.022.023c-.575.575-1.038 1.038-1.444 1.383-.418.355-.825.628-1.299.782a3.744 3.744 0 0 1-2.317 0c-.475-.154-.88-.427-1.299-.782-.406-.345-.87-.808-1.444-1.383l-.023-.023-5.1-5.1-.06-.06c-.46-.46-.78-.779-1.013-1.159a3.745 3.745 0 0 1-.449-1.084C.74 11.674.74 11.224.74 10.572V8.757c0-.813 0-1.468.043-2 .045-.546.14-1.026.365-1.47.36-.706.934-1.28 1.64-1.64.444-.225.924-.32 1.47-.364.531-.044 1.187-.044 2-.044h1.814c.652 0 1.103 0 1.536.104.383.092.748.243 1.084.449.38.233.698.552 1.159 1.012Zm6.08 3.959-3.535-3.537a.751.751 0 0 1 .018-1.042.751.751 0 0 1 1.042-.018l3.536 3.536.024.024c.97.97 1.731 1.731 2.291 2.391.572.674.98 1.293 1.21 1.996a5.751 5.751 0 0 1 0 3.553c-.23.703-.638 1.322-1.21 1.995-.561.662-1.321 1.422-2.291 2.392l-.024.024-2.121 2.12a.751.751 0 0 1-1.042-.018.751.751 0 0 1-.018-1.042l2.12-2.121c.999-.999 1.716-1.717 2.233-2.325.511-.603.783-1.049.926-1.488a4.256 4.256 0 0 0 0-2.627c-.143-.439-.415-.886-.926-1.488-.517-.609-1.233-1.326-2.233-2.325ZM7.147 12.474a2 2 0 1 0 2.828-2.828 2 2 0 1 0-2.828 2.829Z"/></svg>