<svg xmlns="http://www.w3.org/2000/svg" viewBox="0 0 24 24"><path fill="#151E28" d="M5.066 13.75h-.001c-.874.001-1.583.002-2.255-.418a2.833 2.833 0 0 1-.73-.702 2.84 2.84 0 0 1-.465-.901c-.21-.761-.041-1.325.165-2.011l.001-.004.023-.076c.461-1.546 1.321-3.397 2.932-4.865C6.362 3.29 8.698 2.25 12 2.25s5.637 1.04 7.264 2.523c1.61 1.468 2.47 3.319 2.932 4.865l.023.076c.206.688.375 1.253.165 2.015a2.835 2.835 0 0 1-.463.901c-.2.276-.447.514-.731.702-.672.42-1.382.42-2.256.418H5.066Zm6.914-9.962h.001c-.11.04-.216.088-.32.145l.169.428-.17-.428h-.001c-.5.275-.939.756-1.32 1.423-.508.889-.863 2.022-1.105 3.174a23.756 23.756 0 0 0-.461 3.72h6.453a23.754 23.754 0 0 0-.46-3.72c-.242-1.152-.597-2.285-1.105-3.174-.382-.668-.82-1.148-1.322-1.423L12 4.789l-.001-.001.34-.856a2.226 2.226 0 0 0-.339-.15ZM12.75 15v5a2.75 2.75 0 1 1-5.5 0v-1a.75.75 0 0 1 1.5 0v1a1.25 1.25 0 0 0 2.5 0v-5a.75.75 0 0 1 1.5 0Zm-.751-10.211-.169-.428.169.427v.001Z"/></svg>