<svg xmlns="http://www.w3.org/2000/svg" viewBox="0 0 24 24"><path fill="#151E28" d="M13.117 2.479c.485.216.844.614 1.168 1.071.321.455.676 1.067 1.114 1.825l.019.033 5.45 9.413.02.033c.44.76.796 1.375 1.03 1.881.236.51.403 1.021.348 1.55a2.75 2.75 0 0 1-1.118 1.939c-.43.313-.955.424-1.515.475-.555.051-1.267.051-2.145.051H6.512c-.878 0-1.589 0-2.145-.051-.559-.051-1.085-.162-1.515-.475a2.749 2.749 0 0 1-1.119-1.938c-.054-.53.113-1.04.35-1.55.233-.507.59-1.122 1.03-1.882l.018-.033 5.45-9.413.02-.033c.438-.757.793-1.371 1.115-1.825.323-.457.682-.855 1.167-1.071a2.75 2.75 0 0 1 2.234 0Zm2.14 13.625a.75.75 0 1 0 1.486-.207L16 16l.743-.104v-.002l-.001-.004-.002-.011-.006-.041a9.14 9.14 0 0 0-.127-.635 9.187 9.187 0 0 0-.488-1.5c-.442-1.028-1.343-2.453-3.008-2.453-.788 0-1.542.332-2.186.742-.654.417-1.264.96-1.778 1.481-.139.14-.271.28-.397.417V13a.75.75 0 0 0-1.5 0v3c0 .414.336.75.75.75h3a.75.75 0 0 0 0-1.5H9.547c.2-.23.425-.477.668-.723.47-.478.993-.936 1.516-1.27.534-.34 1.001-.507 1.38-.507.669 0 1.212.575 1.63 1.547.226.534.391 1.093.492 1.664l.02.111.003.027Z"/></svg>