<svg xmlns="http://www.w3.org/2000/svg" viewBox="0 0 24 24"><path fill="#151E28" d="M1.47 1.47a.75.75 0 0 1 1.06 0l20 20a.749.749 0 0 1-.326 1.275.749.749 0 0 1-.734-.215L17 18.061a4.748 4.748 0 0 1-1.844 1.671c-.55.281-1.154.403-1.868.461-.697.057-1.563.057-2.655.057H8.367c-1.092 0-1.958 0-2.655-.057-.714-.058-1.317-.18-1.868-.46a4.744 4.744 0 0 1-2.076-2.076c-.281-.552-.403-1.155-.461-1.869-.057-.697-.057-1.563-.057-2.655v-2.266c0-1.092 0-1.958.057-2.655.058-.714.18-1.317.46-1.868A4.753 4.753 0 0 1 3.44 4.5L1.47 2.53a.75.75 0 0 1 0-1.06Zm9.13 3.78v-.001H8.4a.75.75 0 0 1 0-1.5h2.233c1.092 0 1.958 0 2.655.057.714.058 1.318.18 1.868.461a4.744 4.744 0 0 1 2.076 2.076c.163.326.28.672.348 1.03.174-.166.334-.313.483-.443.408-.355.826-.663 1.288-.775a2.75 2.75 0 0 1 2.998 1.242c.247.406.325.919.363 1.458.038.554.038 1.275.038 2.185v1.92c0 .908 0 1.63-.038 2.184-.038.538-.116 1.052-.363 1.458a2.755 2.755 0 0 1-.974.952.75.75 0 0 1-.75-1.3c.177-.102.331-.248.442-.432.045-.073.113-.267.148-.782.035-.495.035-1.165.035-2.111v-1.858c0-.946 0-1.616-.035-2.111-.035-.515-.103-.709-.147-.782a1.249 1.249 0 0 0-1.363-.564c-.083.02-.267.109-.657.448-.334.291-.746.698-1.306 1.257.008.458.008.972.008 1.548V13.1a.75.75 0 0 1-1.5 0v-2.2c0-1.132-.001-1.936-.052-2.566-.051-.62-.147-1.005-.302-1.31a3.258 3.258 0 0 0-1.42-1.42c-.305-.155-.69-.252-1.31-.302-.629-.052-1.433-.052-2.566-.052Z"/></svg>