<svg xmlns="http://www.w3.org/2000/svg" viewBox="0 0 24 24"><path fill="#151E28" d="M1.25 5A2.75 2.75 0 0 1 4 2.25h16a.75.75 0 0 1 0 1.5H4c-.685 0-1.24.55-1.25 1.232v.048A1.25 1.25 0 0 0 4 6.25h14.828c.535 0 .98 0 1.345.03.38.03.737.098 1.074.27.518.264.938.684 1.202 1.202.172.337.239.694.27 1.073.03.365.03.81.03 1.345v1.08H20a2.75 2.75 0 1 0 0 5.5h2.75v1.08c0 .535 0 .98-.03 1.345-.031.38-.098.736-.27 1.073a2.749 2.749 0 0 1-1.202 1.202c-.337.172-.694.24-1.074.27-.364.03-.81.03-1.344.03H6.767c-.812 0-1.468 0-1.999-.043-.547-.045-1.027-.14-1.471-.366a3.752 3.752 0 0 1-1.639-1.639c-.226-.444-.32-.924-.365-1.47-.044-.531-.044-1.187-.043-2ZM10 10.25a.75.75 0 0 0-.75.75v2.25H7a.75.75 0 0 0 0 1.5h2.25V17a.75.75 0 0 0 1.5 0v-2.25H13a.75.75 0 0 0 0-1.5h-2.25V11a.75.75 0 0 0-.75-.75Zm12.75 5H20a1.25 1.25 0 0 1 0-2.5h2.75Z"/></svg>