<svg xmlns="http://www.w3.org/2000/svg" viewBox="0 0 24 24"><path fill="#151E28" d="M10.462 3.075c.662-1.22 2.414-1.22 3.076 0l6.827 12.58.812 1.392c.458.784.25 1.834-.577 2.33A16.676 16.676 0 0 1 12 21.75a16.677 16.677 0 0 1-8.6-2.373c-.828-.496-1.035-1.546-.578-2.33l.813-1.392ZM12 18.75a16.683 16.683 0 0 1-7.424-1.731l-.458.784c-.072.124-.021.243.053.287a15.169 15.169 0 0 0 7.828 2.16 15.173 15.173 0 0 0 7.83-2.16c.073-.044.125-.163.053-.286l-.458-.785A16.688 16.688 0 0 1 12 18.75Zm-2-6a.75.75 0 0 0-.75.75v1a.75.75 0 0 0 1.5 0v-1a.75.75 0 0 0-.75-.75Zm4 0a.75.75 0 0 0-.75.75v1a.75.75 0 0 0 1.5 0v-1a.75.75 0 0 0-.75-.75Zm-2-4.5a.75.75 0 0 0-.75.75v1a.75.75 0 0 0 1.5 0V9a.75.75 0 0 0-.75-.75Z"/></svg>