<svg xmlns="http://www.w3.org/2000/svg" viewBox="0 0 24 24"><path fill="#151E28" d="M11.832 2.25h.336c.89 0 1.603 0 2.171.044.58.045 1.088.14 1.542.376a3.75 3.75 0 0 1 1.926 2.466c.118.498.087 1.013-.01 1.587-.095.562-.268 1.253-.484 2.116l-.008.031-.029.117c-.16.644-.285 1.147-.558 1.551a2.75 2.75 0 0 1-1.34 1.046c-.458.167-.977.167-1.64.166h-3.487c-.658 0-1.174 0-1.629-.165a2.752 2.752 0 0 1-1.34-1.047c-.273-.404-.398-.907-.558-1.551l-.03-.117-.007-.03c-.216-.864-.389-1.555-.484-2.117-.097-.574-.128-1.09-.01-1.587A3.749 3.749 0 0 1 8.12 2.67c.454-.236.962-.33 1.542-.376.569-.044 1.28-.044 2.17-.044ZM5.496 5.792a.75.75 0 0 1 .066 1.058A3.231 3.231 0 0 0 4.75 9v8A3.25 3.25 0 0 0 8 20.25h8A3.25 3.25 0 0 0 19.25 17V9c0-.825-.306-1.576-.812-2.15a.749.749 0 0 1 .405-1.252.751.751 0 0 1 .719.26A4.736 4.736 0 0 1 20.75 9v8A4.75 4.75 0 0 1 16 21.75H8A4.75 4.75 0 0 1 3.25 17V9c0-1.204.449-2.305 1.188-3.142a.75.75 0 0 1 1.058-.066Zm7.84-.463h-.001a.75.75 0 0 0-1.006.336l-1 2a.75.75 0 1 0 1.342.67l1-2a.75.75 0 0 0-.335-1.006Z"/></svg>