<svg viewBox="0 0 24 24" fill="none" xmlns="http://www.w3.org/2000/svg"><path fill-rule="evenodd" clip-rule="evenodd" d="M18.47 1.47a.75.75 0 0 1 1.06 0l3 3a.75.75 0 0 1-1.06 1.06l-3-3a.75.75 0 0 1 0-1.06ZM2.44 3.5l-.97.97a.75.75 0 0 0 1.06 1.06l.97-.97 1.096 1.096A9.715 9.715 0 0 0 2.25 12 9.75 9.75 0 0 0 12 21.75a9.714 9.714 0 0 0 6.344-2.346l3.126 3.126a.75.75 0 1 0 1.06-1.06L4.03 2.97l-1.5-1.5a.75.75 0 0 0-1.06 1.06l.97.97Zm6.466.85A8.25 8.25 0 0 1 19.65 15.093a.75.75 0 1 0 1.391.562A9.724 9.724 0 0 0 21.75 12 9.75 9.75 0 0 0 12 2.25a9.725 9.725 0 0 0-3.656.709.75.75 0 0 0 .562 1.39Z" fill="#151E28"/></svg>