<svg viewBox="0 0 24 24" fill="none" xmlns="http://www.w3.org/2000/svg"><path fill-rule="evenodd" clip-rule="evenodd" d="M5.53 2.53a.75.75 0 0 0-1.06-1.06l-3 3a.75.75 0 0 0 1.06 1.06l3-3Zm14-1.06a.75.75 0 1 0-1.06 1.06l3 3a.75.75 0 1 0 1.06-1.06l-3-3ZM2.25 12c0-5.385 4.365-9.75 9.75-9.75s9.75 4.365 9.75 9.75-4.365 9.75-9.75 9.75S2.25 17.385 2.25 12ZM10 8.25a.75.75 0 0 0 0 1.5h2.599l-3.223 4.834A.75.75 0 0 0 10 15.75h4a.75.75 0 0 0 0-1.5h-2.599l3.223-4.834A.75.75 0 0 0 14 8.25h-4Z" fill="#151E28"/></svg>