<svg viewBox="0 0 24 24" fill="none" xmlns="http://www.w3.org/2000/svg"><path fill-rule="evenodd" clip-rule="evenodd" d="M5.53 2.53a.75.75 0 0 0-1.06-1.06l-3 3a.75.75 0 0 0 1.06 1.06l3-3Zm14-1.06a.75.75 0 1 0-1.06 1.06l3 3a.75.75 0 1 0 1.06-1.06l-3-3ZM2.25 12c0-5.385 4.365-9.75 9.75-9.75s9.75 4.365 9.75 9.75-4.365 9.75-9.75 9.75S2.25 17.385 2.25 12Zm7.28-3.53a.75.75 0 0 0-1.06 1.06L10.94 12l-2.47 2.47a.75.75 0 1 0 1.06 1.06L12 13.06l2.47 2.47a.75.75 0 1 0 1.06-1.06L13.06 12l2.47-2.47a.75.75 0 0 0-1.06-1.06L12 10.94 9.53 8.47Z" fill="#151E28"/></svg>