<svg viewBox="0 0 24 24" fill="none" xmlns="http://www.w3.org/2000/svg"><path fill-rule="evenodd" clip-rule="evenodd" d="M3.25 16.025V12.75H1a.75.75 0 1 1 0-1.5h2.25V7.975c0-.445 0-.816.02-1.12a2.84 2.84 0 0 1 .189-.907 2.75 2.75 0 0 1 1.488-1.489c.29-.12.59-.167.907-.188.305-.021.676-.021 1.12-.021h.051c.444 0 .815 0 1.12.02.317.022.617.07.907.19a2.75 2.75 0 0 1 1.488 1.488c.12.29.167.59.189.907.02.304.02.675.02 1.12v3.275h2.5V9.975c0-.445 0-.816.021-1.12a2.84 2.84 0 0 1 .189-.907 2.75 2.75 0 0 1 1.488-1.489c.29-.12.59-.167.907-.188.305-.021.676-.021 1.12-.021h.051c.444 0 .815 0 1.12.02.317.022.617.07.907.19a2.75 2.75 0 0 1 1.488 1.488c.12.29.167.59.189.907.02.304.02.675.02 1.12v1.275H23a.75.75 0 0 1 0 1.5h-2.25v1.275c0 .445 0 .816-.021 1.12a2.822 2.822 0 0 1-.189.907 2.75 2.75 0 0 1-1.488 1.489c-.29.12-.59.167-.907.188-.305.021-.676.021-1.12.021h-.051c-.444 0-.815 0-1.12-.02a2.822 2.822 0 0 1-.907-.19 2.75 2.75 0 0 1-1.488-1.488 2.84 2.84 0 0 1-.189-.907c-.02-.304-.02-.675-.02-1.12V12.75h-2.5v3.275c0 .445 0 .816-.021 1.12a2.822 2.822 0 0 1-.189.907 2.75 2.75 0 0 1-1.488 1.489c-.29.12-.59.167-.907.188-.305.021-.676.021-1.12.021h-.051c-.444 0-.815 0-1.12-.02a2.822 2.822 0 0 1-.907-.19 2.75 2.75 0 0 1-1.488-1.488 2.84 2.84 0 0 1-.189-.907c-.02-.304-.02-.675-.02-1.12Z" fill="#151E28"/></svg>