<svg viewBox="0 0 24 24" fill="none" xmlns="http://www.w3.org/2000/svg"><path fill-rule="evenodd" clip-rule="evenodd" d="M12.03 2.25c5.371.017 9.72 4.376 9.72 9.75 0 5.385-4.365 9.75-9.75 9.75S2.25 17.385 2.25 12c0-5.374 4.349-9.733 9.72-9.75h.06Zm-1.28 4.11 1.655-2.6a8.233 8.233 0 0 1 5.905 2.926l-3.282-.142-4.277-.184Zm8.59 1.872-3.08-.133.187.357.014.027.978 1.876.014.028.786 1.508 1.52 2.916a8.226 8.226 0 0 0 .491-2.81 8.21 8.21 0 0 0-.91-3.77Zm-.406 8.241-1.425-2.733-.205.323a2.735 2.735 0 0 1-.027.043l-1.136 1.785a3.045 3.045 0 0 1-.027.042l-.903 1.42-1.764 2.772a8.255 8.255 0 0 0 5.487-3.652Zm-7.34 3.768 1.654-2.598-.393-.017-.04-.002-2.112-.09c-.013-.002-.026-.002-.04-.003l-1.691-.073-3.282-.142a8.232 8.232 0 0 0 5.904 2.925ZM4.66 15.77l3.079.133-1.979-3.797-1.52-2.915a8.235 8.235 0 0 0-.49 2.81 8.21 8.21 0 0 0 .91 3.769Zm.406-8.241a8.255 8.255 0 0 1 5.486-3.652L8.788 6.649 6.49 10.261 5.066 7.529Z" fill="#151E28"/></svg>