<svg viewBox="0 0 24 24" fill="none" xmlns="http://www.w3.org/2000/svg"><path fill-rule="evenodd" clip-rule="evenodd" d="M17.505 3.447a.75.75 0 0 0-.604-.778c-1.24-.243-2.564.057-3.641.698-1.079.64-1.983 1.668-2.294 2.957a.75.75 0 1 0 1.458.352c.197-.815.792-1.538 1.602-2.02a3.986 3.986 0 0 1 1.939-.57 5.37 5.37 0 0 1-.063.532c-.056.32-.156.651-.381 1.143a.75.75 0 1 0 1.363.625c.267-.581.413-1.037.496-1.51.069-.396.09-.795.115-1.242l.01-.187ZM3.25 14.5c0-3.882 2.686-7.25 6.25-7.25.892 0 1.738.216 2.5.602a5.517 5.517 0 0 1 2.5-.602c3.565 0 6.25 3.368 6.25 7.25s-2.685 7.25-6.25 7.25a5.517 5.517 0 0 1-2.5-.602 5.516 5.516 0 0 1-2.5.602c-3.564 0-6.25-3.368-6.25-7.25Z" fill="#151E28"/></svg>