<svg viewBox="0 0 24 24" fill="none" xmlns="http://www.w3.org/2000/svg"><path fill-rule="evenodd" clip-rule="evenodd" d="M13.117 2.479a2.75 2.75 0 0 0-2.234 0c-.485.216-.844.614-1.167 1.071-.322.454-.677 1.068-1.115 1.825l-.02.033-5.45 9.413-.018.033c-.44.76-.797 1.375-1.03 1.882-.237.51-.404 1.02-.35 1.55a2.75 2.75 0 0 0 1.119 1.938c.43.313.956.424 1.515.475.556.051 1.267.051 2.145.051h10.976c.878 0 1.59 0 2.145-.051.56-.051 1.085-.162 1.515-.475a2.75 2.75 0 0 0 1.118-1.939c.055-.529-.112-1.04-.348-1.55-.234-.506-.59-1.121-1.03-1.881l-.02-.033-5.45-9.413-.019-.033c-.438-.758-.793-1.37-1.114-1.825-.324-.457-.683-.855-1.168-1.071Zm.598 9.063a.25.25 0 0 1 .243.243l.092 3.43a.25.25 0 0 1-.426.183l-.7-.7a.75.75 0 0 0-1.061 0l-2.308 2.307a.25.25 0 0 1-.353 0l-.707-.707a.25.25 0 0 1 0-.353l2.307-2.308a.75.75 0 0 0 0-1.06l-.7-.7a.25.25 0 0 1 .183-.428l3.43.093Zm1.742.203a1.75 1.75 0 0 0-1.702-1.702l-3.43-.093c-1.58-.043-2.402 1.868-1.284 2.987l.17.17-1.777 1.777a1.75 1.75 0 0 0 0 2.475l.707.707a1.75 1.75 0 0 0 2.475 0l1.777-1.777.17.17c1.119 1.118 3.03.296 2.987-1.285l-.093-3.43Z" fill="#151E28"/></svg>