<svg viewBox="0 0 24 24" fill="none" xmlns="http://www.w3.org/2000/svg"><path fill-rule="evenodd" clip-rule="evenodd" d="M9.4 2.25h-.033c-1.092 0-1.958 0-2.655.057-.714.058-1.317.18-1.868.46a4.75 4.75 0 0 0-2.076 2.077c-.281.55-.403 1.154-.461 1.868-.057.697-.057 1.563-.057 2.655v5.266c0 1.092 0 1.958.057 2.655.058.714.18 1.317.46 1.869a4.75 4.75 0 0 0 2.077 2.075c.55.281 1.154.403 1.868.461.697.057 1.563.057 2.655.057h5.266c1.092 0 1.958 0 2.655-.057.714-.058 1.317-.18 1.869-.46a4.75 4.75 0 0 0 2.075-2.076c.281-.552.403-1.155.461-1.869.057-.697.057-1.563.057-2.655V9.367c0-1.092 0-1.958-.057-2.655-.058-.714-.18-1.317-.46-1.868a4.75 4.75 0 0 0-2.076-2.076c-.552-.281-1.155-.403-1.869-.461-.697-.057-1.563-.057-2.655-.057H9.4Zm-1.4 5a.75.75 0 0 0-.75.75v2c0 .414.336.75.75.75h2a.75.75 0 0 0 0-1.5h-.39a3.644 3.644 0 0 1 5.962 2.04.75.75 0 1 0 1.471-.293A5.144 5.144 0 0 0 8.75 8.012V8A.75.75 0 0 0 8 7.25ZM16.75 16a.75.75 0 0 1-1.5 0v-.013a5.144 5.144 0 0 1-8.294-2.983.75.75 0 1 1 1.47-.293 3.644 3.644 0 0 0 5.963 2.04H14a.75.75 0 0 1 0-1.501h2a.75.75 0 0 1 .75.75v2Z" fill="#151E28"/></svg>