<svg viewBox="0 0 24 24" fill="none" xmlns="http://www.w3.org/2000/svg"><path fill-rule="evenodd" clip-rule="evenodd" d="M10 6.25a.75.75 0 1 1 0 1.5H8.81l3.72 3.72a.75.75 0 0 1-1.06 1.06L7.75 8.81V10a.75.75 0 0 1-1.5 0V7A.75.75 0 0 1 7 6.25h3Zm6.25 3.639a2.139 2.139 0 0 0-2.139-2.139.75.75 0 0 1 0-1.5 3.64 3.64 0 0 1 3.639 3.639v2.343c0 .813 0 1.469-.043 2-.045.546-.14 1.026-.366 1.47a3.75 3.75 0 0 1-1.639 1.64c-.444.226-.924.32-1.47.365-.531.043-1.187.043-2 .043H9.89a3.639 3.639 0 0 1-3.639-3.639.75.75 0 0 1 1.5 0 2.14 2.14 0 0 0 2.139 2.14h2.31c.853 0 1.447-.002 1.91-.04.453-.036.714-.105.912-.206a2.25 2.25 0 0 0 .983-.983c.1-.198.17-.459.207-.913.037-.462.038-1.056.038-1.909V9.89Z" fill="#151E28"/></svg>