<svg viewBox="0 0 24 24" fill="none" xmlns="http://www.w3.org/2000/svg"><path fill-rule="evenodd" clip-rule="evenodd" d="M12 1.25C6.063 1.25 1.25 6.063 1.25 12S6.063 22.75 12 22.75 22.75 17.937 22.75 12 17.937 1.25 12 1.25Zm1.889 6h.016a2.75 2.75 0 0 1 2.845 2.845v2.735c0 .535 0 .98-.03 1.345-.03.38-.098.736-.27 1.073a2.751 2.751 0 0 1-1.201 1.202c-.338.172-.694.24-1.074.27-.365.03-.81.03-1.345.03h-2.735c-.088 0-.155 0-.215-.003a2.75 2.75 0 0 1-2.627-2.627c-.003-.06-.003-.127-.003-.215v-.016a.75.75 0 0 1 1.5 0l.001.166a1.25 1.25 0 0 0 1.194 1.194l.166.001H12.8c.572 0 .957 0 1.252-.025.288-.023.425-.065.516-.111a1.25 1.25 0 0 0 .546-.546c.046-.091.088-.228.111-.515.024-.296.025-.68.025-1.253v-2.689l-.001-.166a1.25 1.25 0 0 0-1.194-1.194 4.683 4.683 0 0 0-.166-.001.75.75 0 0 1 0-1.5ZM11.15 8a.75.75 0 0 0-.75-.75H8a.75.75 0 0 0-.75.75v2.4a.75.75 0 0 0 1.5 0v-.59l2.72 2.72a.75.75 0 1 0 1.06-1.06L9.81 8.75h.59a.75.75 0 0 0 .75-.75Z" fill="#151E28"/></svg>