<svg viewBox="0 0 24 24" fill="none" xmlns="http://www.w3.org/2000/svg"><path fill-rule="evenodd" clip-rule="evenodd" d="M12 20.25a.75.75 0 0 1 0 1.5h-1.034c-1.371 0-2.447 0-3.311-.07-.88-.072-1.607-.221-2.265-.557a5.75 5.75 0 0 1-2.513-2.513c-.336-.658-.484-1.385-.556-2.265-.071-.864-.071-1.94-.071-3.311v-2.068c0-1.371 0-2.447.07-3.311.073-.88.221-1.607.557-2.265A5.75 5.75 0 0 1 5.39 2.877c.658-.336 1.385-.484 2.265-.556.864-.071 1.94-.071 3.311-.071H12a.75.75 0 0 1 0 1.5h-1c-1.413 0-2.427 0-3.223.066-.787.064-1.295.188-1.706.397a4.25 4.25 0 0 0-1.858 1.858c-.21.411-.333.919-.397 1.706-.065.796-.066 1.81-.066 3.223v2c0 1.412 0 2.427.066 3.223.064.787.188 1.295.397 1.707a4.25 4.25 0 0 0 1.858 1.857c.411.21.919.333 1.706.397.796.065 1.81.066 3.223.066h1Zm9.53-7.72a.75.75 0 0 0 0-1.06l-4-4a.75.75 0 1 0-1.06 1.06l2.72 2.72H8a.75.75 0 0 0 0 1.5h11.19l-2.72 2.72a.75.75 0 1 0 1.06 1.06l4-4Z" fill="#151E28"/></svg>