<svg viewBox="0 0 24 24" fill="none" xmlns="http://www.w3.org/2000/svg"><path fill-rule="evenodd" clip-rule="evenodd" d="M12 1.25C6.063 1.25 1.25 6.063 1.25 12S6.063 22.75 12 22.75 22.75 17.937 22.75 12 17.937 1.25 12 1.25Zm-2 13a.25.25 0 0 1-.25-.25v-3.476a.25.25 0 0 1 .432-.172l.636.676a.75.75 0 0 0 1.077.017l.893-.893a.25.25 0 0 1 .353 0l.707.707a.25.25 0 0 1 0 .353l-.893.893a.75.75 0 0 0 .017 1.077l.676.636a.25.25 0 0 1-.171.432H10ZM8.25 14c0 .966.784 1.75 1.75 1.75h3.476c1.586 0 2.354-1.94 1.2-3.025l-.113-.106.346-.346a1.75 1.75 0 0 0 0-2.475l-.707-.707a1.75 1.75 0 0 0-2.475 0l-.346.346-.106-.112C10.189 8.17 8.25 8.938 8.25 10.524V14Zm5.598-7.03a.75.75 0 0 0 0 1.06l2.122 2.122a.75.75 0 1 0 1.06-1.061L14.91 6.97a.75.75 0 0 0-1.06 0Z" fill="#151E28"/></svg>