<svg viewBox="0 0 24 24" fill="none" xmlns="http://www.w3.org/2000/svg"><path fill-rule="evenodd" clip-rule="evenodd" d="M13.117 2.479a2.75 2.75 0 0 0-2.234 0c-.485.216-.844.614-1.167 1.071-.322.454-.677 1.068-1.115 1.825l-.02.033-5.45 9.413-.018.033c-.44.76-.797 1.375-1.03 1.882-.237.51-.404 1.02-.35 1.55a2.75 2.75 0 0 0 1.119 1.938c.43.313.956.424 1.515.475.556.051 1.267.051 2.145.051h10.976c.878 0 1.59 0 2.145-.051.56-.051 1.085-.162 1.515-.475a2.75 2.75 0 0 0 1.118-1.939c.055-.529-.112-1.04-.348-1.55-.234-.506-.59-1.121-1.03-1.881l-.02-.033-5.45-9.413-.019-.033c-.438-.758-.793-1.37-1.114-1.825-.324-.457-.683-.855-1.168-1.071ZM8.196 13.828a.25.25 0 0 0 0 .344l2.36 2.49a.25.25 0 0 0 .43-.172v-.99a.75.75 0 0 1 .75-.75H13a.25.25 0 0 0 .25-.25v-1a.25.25 0 0 0-.25-.25h-1.263a.75.75 0 0 1-.75-.75v-.99a.25.25 0 0 0-.432-.172l-2.359 2.49Zm-1.089 1.376a1.75 1.75 0 0 1 0-2.408l2.36-2.49c1.087-1.148 3.02-.378 3.02 1.204v.24H13c.966 0 1.75.784 1.75 1.75v1A1.75 1.75 0 0 1 13 16.25h-.513v.24c0 1.582-1.933 2.352-3.02 1.204l-2.36-2.49ZM16 16.25a.75.75 0 0 1-.75-.75v-3a.75.75 0 0 1 1.5 0v3a.75.75 0 0 1-.75.75Z" fill="#151E28"/></svg>