<svg viewBox="0 0 24 24" fill="none" xmlns="http://www.w3.org/2000/svg"><path fill-rule="evenodd" clip-rule="evenodd" d="M12.53 5.47a.75.75 0 0 0-1.06 0l-2 2a.75.75 0 0 0 1.06 1.06l.72-.72v3.44H7.81l.72-.72a.75.75 0 1 0-1.06-1.06l-2 2a.75.75 0 0 0 0 1.06l2 2a.75.75 0 0 0 1.06-1.06l-.72-.72h3.44v3.44l-.72-.72a.75.75 0 1 0-1.06 1.06l2 2a.75.75 0 0 0 1.06 0l2-2a.75.75 0 1 0-1.06-1.06l-.72.72v-3.44h3.44l-.72.72a.75.75 0 1 0 1.06 1.06l2-2a.75.75 0 0 0 0-1.06l-2-2a.75.75 0 1 0-1.06 1.06l.72.72h-3.44V7.81l.72.72a.75.75 0 1 0 1.06-1.06l-2-2Z" fill="#151E28"/></svg>