<svg viewBox="0 0 24 24" fill="none" xmlns="http://www.w3.org/2000/svg"><path fill-rule="evenodd" clip-rule="evenodd" d="M12 1.25C6.063 1.25 1.25 6.063 1.25 12S6.063 22.75 12 22.75 22.75 17.937 22.75 12 17.937 1.25 12 1.25Zm2.4 10a.75.75 0 0 1 0 1.5h-.59l2.72 2.72a.75.75 0 0 1-1.06 1.06l-2.72-2.72v.59a.75.75 0 0 1-1.5 0V12a.75.75 0 0 1 .75-.75h2.4Zm-3.23-4h1.855c.445 0 .816 0 1.12.02.318.022.617.07.907.19a2.75 2.75 0 0 1 1.489 1.488.75.75 0 0 1-1.386.574 1.25 1.25 0 0 0-.677-.677c-.077-.032-.194-.061-.435-.078A17.091 17.091 0 0 0 13 8.75h-1.8c-.572 0-.957 0-1.253.025-.287.023-.424.065-.514.111a1.25 1.25 0 0 0-.547.547c-.046.09-.088.227-.111.514-.024.296-.025.68-.025 1.253V13c0 .476 0 .796.017 1.043.017.241.046.358.078.435.127.307.37.55.677.677a.75.75 0 0 1-.574 1.386 2.75 2.75 0 0 1-1.489-1.489c-.12-.29-.167-.59-.188-.907-.021-.304-.021-.675-.021-1.12V11.17c0-.535 0-.98.03-1.345.03-.38.098-.736.27-1.073A2.75 2.75 0 0 1 8.752 7.55c.337-.172.693-.24 1.073-.27.365-.03.81-.03 1.345-.03Z" fill="#151E28"/></svg>