<svg viewBox="0 0 24 24" fill="none" xmlns="http://www.w3.org/2000/svg"><path fill-rule="evenodd" clip-rule="evenodd" d="M9.4 2.25h-.033c-1.092 0-1.958 0-2.655.057-.714.058-1.317.18-1.868.46a4.75 4.75 0 0 0-2.076 2.077c-.281.55-.403 1.154-.461 1.868-.057.697-.057 1.563-.057 2.655v5.266c0 1.092 0 1.958.057 2.655.058.714.18 1.317.46 1.869a4.75 4.75 0 0 0 2.077 2.075c.55.281 1.154.403 1.868.461.697.057 1.563.057 2.655.057h5.266c1.092 0 1.958 0 2.655-.057.714-.058 1.317-.18 1.869-.46a4.75 4.75 0 0 0 2.075-2.076c.281-.552.403-1.155.461-1.869.057-.697.057-1.563.057-2.655V9.367c0-1.092 0-1.958-.057-2.655-.058-.714-.18-1.317-.46-1.868a4.75 4.75 0 0 0-2.076-2.076c-.552-.281-1.155-.403-1.869-.461-.697-.057-1.563-.057-2.655-.057H9.4Zm2.6 13a.75.75 0 0 1 0 1.5h-.83c-.535 0-.98 0-1.345-.03-.38-.03-.736-.098-1.073-.27a2.75 2.75 0 0 1-1.202-1.2c-.172-.338-.24-.694-.27-1.074-.03-.365-.03-.81-.03-1.345V11.17c0-.535 0-.98.03-1.345.03-.38.098-.736.27-1.073A2.75 2.75 0 0 1 8.752 7.55c.337-.172.693-.24 1.073-.27.365-.03.81-.03 1.345-.03H12a.75.75 0 0 1 0 1.5h-.8c-.572 0-.957 0-1.253.025-.287.023-.424.065-.514.111a1.25 1.25 0 0 0-.547.547c-.046.09-.088.227-.111.514-.024.296-.025.68-.025 1.253v1.6c0 .572 0 .957.025 1.252.023.288.065.425.111.516.12.235.311.426.547.546.09.046.227.088.514.111.296.024.68.025 1.253.025h.8Zm4.53-3.78a.75.75 0 0 1 0 1.06l-2 2a.75.75 0 0 1-1.06-1.06l.72-.72H11a.75.75 0 0 1 0-1.5h3.19l-.72-.72a.75.75 0 1 1 1.06-1.06l2 2Z" fill="#151E28"/></svg>