<svg viewBox="0 0 24 24" fill="none" xmlns="http://www.w3.org/2000/svg"><path fill-rule="evenodd" clip-rule="evenodd" d="M9.4 2.25h-.033c-1.092 0-1.958 0-2.655.057-.714.058-1.317.18-1.868.46a4.75 4.75 0 0 0-2.076 2.077c-.281.55-.403 1.154-.461 1.868-.057.697-.057 1.563-.057 2.655v5.266c0 1.092 0 1.958.057 2.655.058.714.18 1.317.46 1.869a4.75 4.75 0 0 0 2.077 2.075c.55.281 1.154.403 1.868.461.697.057 1.563.057 2.655.057h5.266c1.092 0 1.958 0 2.655-.057.714-.058 1.317-.18 1.869-.46a4.75 4.75 0 0 0 2.075-2.076c.281-.552.403-1.155.461-1.869.057-.697.057-1.563.057-2.655V9.367c0-1.092 0-1.958-.057-2.655-.058-.714-.18-1.317-.46-1.868a4.75 4.75 0 0 0-2.076-2.076c-.552-.281-1.155-.403-1.869-.461-.697-.057-1.563-.057-2.655-.057H9.4Zm3.13 4.22a.75.75 0 0 0-1.06 0L9.803 8.136a.75.75 0 1 0 1.06 1.061l.387-.386v1.522a.75.75 0 0 0 1.5 0V8.811l.386.386a.75.75 0 0 0 1.061-1.06L12.53 6.47Zm2.273 4.394.386.386h-1.522a.75.75 0 0 0 0 1.5h1.522l-.386.386a.75.75 0 0 0 1.06 1.061l1.667-1.667a.75.75 0 0 0 0-1.06l-1.666-1.667a.75.75 0 0 0-1.061 1.06ZM9.197 9.803a.75.75 0 0 0-1.06 0L6.47 11.47a.75.75 0 0 0 0 1.06l1.666 1.667a.75.75 0 1 0 1.061-1.06l-.386-.387h1.522a.75.75 0 0 0 0-1.5H8.811l.386-.386a.75.75 0 0 0 0-1.061Zm3.553 5.386v-1.522a.75.75 0 0 0-1.5 0v1.522l-.386-.386a.75.75 0 0 0-1.061 1.06l1.667 1.667a.75.75 0 0 0 1.06 0l1.667-1.666a.75.75 0 0 0-1.06-1.061l-.387.386Z" fill="#151E28"/></svg>