<svg viewBox="0 0 24 24" fill="none" xmlns="http://www.w3.org/2000/svg"><path fill-rule="evenodd" clip-rule="evenodd" d="M12 1.25C6.063 1.25 1.25 6.063 1.25 12S6.063 22.75 12 22.75 22.75 17.937 22.75 12 17.937 1.25 12 1.25Zm4 15.5a.75.75 0 0 1-.75-.75v-.2c0-.853 0-1.447-.038-1.91-.037-.453-.107-.714-.207-.912a2.252 2.252 0 0 0-.984-.983c-.197-.1-.458-.17-.912-.207a17.565 17.565 0 0 0-1.297-.037l.718.719a.75.75 0 0 1-1.06 1.06l-2-2a.75.75 0 0 1 0-1.06l2-2a.75.75 0 0 1 1.06 1.06l-.72.72c.553.003 1.023.01 1.421.043.547.045 1.027.14 1.472.366a3.75 3.75 0 0 1 1.638 1.638c.227.445.321.925.366 1.471.043.531.043 1.187.043 2V16a.75.75 0 0 1-.75.75Zm-6.47-3.22a.75.75 0 0 1-1.06 0l-2-2a.75.75 0 0 1 0-1.06l2-2a.75.75 0 1 1 1.06 1.06L8.06 11l1.47 1.47a.75.75 0 0 1 0 1.06Z" fill="#151E28"/></svg>