<svg viewBox="0 0 24 24" fill="none" xmlns="http://www.w3.org/2000/svg"><path fill-rule="evenodd" clip-rule="evenodd" d="M13.117 2.479a2.75 2.75 0 0 0-2.234 0c-.485.216-.844.614-1.167 1.071-.322.454-.677 1.068-1.115 1.825l-.02.033-5.45 9.413-.018.033c-.44.76-.797 1.375-1.03 1.882-.237.51-.404 1.02-.35 1.55a2.75 2.75 0 0 0 1.119 1.938c.43.313.956.424 1.515.475.556.051 1.267.051 2.145.051h10.976c.878 0 1.59 0 2.145-.051.56-.051 1.085-.162 1.515-.475a2.75 2.75 0 0 0 1.118-1.939c.055-.529-.112-1.04-.348-1.55-.234-.506-.59-1.121-1.03-1.881l-.02-.033-5.45-9.413-.019-.033c-.438-.758-.793-1.37-1.114-1.825-.324-.457-.683-.855-1.168-1.071Zm.772 15.271h.016c.088 0 .155 0 .215-.003a2.75 2.75 0 0 0 2.627-2.627c.003-.06.003-.128.003-.215V13.17c0-.534 0-.98-.03-1.344-.03-.38-.098-.736-.27-1.073a2.75 2.75 0 0 0-1.2-1.203c-.338-.172-.694-.24-1.074-.27-.365-.03-.81-.03-1.345-.03h-1.735c-.087 0-.155 0-.215.003a2.75 2.75 0 0 0-2.627 2.627c-.003.06-.003.128-.003.215v.016a.75.75 0 0 0 1.5 0l.001-.166a1.25 1.25 0 0 1 1.194-1.194l.166-.001H12.8c.572 0 .957 0 1.252.025.288.023.425.065.516.111.235.12.426.311.546.546.046.091.088.228.111.515.024.296.025.68.025 1.253v1.689l-.001.166a1.25 1.25 0 0 1-1.194 1.194 4.696 4.696 0 0 1-.166.001.75.75 0 1 0 0 1.5ZM11 16.25a.75.75 0 0 1 0 1.5H9a.75.75 0 0 1-.75-.75v-2a.75.75 0 0 1 1.5 0v.19l2.72-2.72a.75.75 0 1 1 1.06 1.06l-2.72 2.72H11Z" fill="#151E28"/></svg>