<svg viewBox="0 0 24 24" fill="none" xmlns="http://www.w3.org/2000/svg"><path fill-rule="evenodd" clip-rule="evenodd" d="M9.4 2.25h-.033c-1.092 0-1.958 0-2.655.057-.714.058-1.317.18-1.868.46a4.75 4.75 0 0 0-2.076 2.077c-.281.55-.403 1.154-.461 1.868-.057.697-.057 1.563-.057 2.655v5.266c0 1.092 0 1.958.057 2.655.058.714.18 1.317.46 1.869a4.75 4.75 0 0 0 2.077 2.075c.55.281 1.154.403 1.868.461.697.057 1.563.057 2.655.057h5.266c1.092 0 1.958 0 2.655-.057.714-.058 1.317-.18 1.869-.46a4.75 4.75 0 0 0 2.075-2.076c.281-.552.403-1.155.461-1.869.057-.697.057-1.563.057-2.655V9.367c0-1.092 0-1.958-.057-2.655-.058-.714-.18-1.317-.46-1.868a4.75 4.75 0 0 0-2.076-2.076c-.552-.281-1.155-.403-1.869-.461-.697-.057-1.563-.057-2.655-.057H9.4Zm5.315 7.292a.25.25 0 0 1 .243.243l.092 3.43a.25.25 0 0 1-.426.183l-.7-.7a.75.75 0 0 0-1.061 0l-2.307 2.307a.25.25 0 0 1-.354 0l-.707-.707a.25.25 0 0 1 0-.354l2.307-2.307a.75.75 0 0 0 0-1.06l-.7-.7a.25.25 0 0 1 .183-.428l3.43.093Zm1.742.203a1.75 1.75 0 0 0-1.702-1.702l-3.43-.093c-1.58-.043-2.402 1.868-1.284 2.987l.17.17-1.777 1.777a1.75 1.75 0 0 0 0 2.475l.707.707a1.75 1.75 0 0 0 2.475 0l1.777-1.777.17.17c1.119 1.118 3.03.296 2.987-1.285l-.093-3.43Z" fill="#151E28"/></svg>