<svg viewBox="0 0 24 24" fill="none" xmlns="http://www.w3.org/2000/svg"><path fill-rule="evenodd" clip-rule="evenodd" d="M12 1.25C6.063 1.25 1.25 6.063 1.25 12S6.063 22.75 12 22.75 22.75 17.937 22.75 12 17.937 1.25 12 1.25Zm-.172 7.446-2.49 2.36a.25.25 0 0 0 .172.43h.99a.75.75 0 0 1 .75.75V15.5c0 .138.112.25.25.25h1a.25.25 0 0 0 .25-.25v-3.263a.75.75 0 0 1 .75-.75h.99a.25.25 0 0 0 .172-.432l-2.49-2.359a.25.25 0 0 0-.344 0Zm-1.032-1.089a1.75 1.75 0 0 1 2.408 0l2.49 2.36c1.148 1.087.378 3.02-1.204 3.02h-.24V15.5a1.75 1.75 0 0 1-1.75 1.75h-1a1.75 1.75 0 0 1-1.75-1.75v-2.513h-.24c-1.582 0-2.352-1.933-1.204-3.02l2.49-2.36Z" fill="#151E28"/></svg>