<svg viewBox="0 0 24 24" fill="none" xmlns="http://www.w3.org/2000/svg"><path fill-rule="evenodd" clip-rule="evenodd" d="M9.325 2.25h-.072c-.419 0-.748 0-1.067.076a2.75 2.75 0 0 0-.794.33c-.28.17-.513.403-.808.7l-.052.05-3.125 3.126-.051.052c-.297.295-.53.528-.7.808a2.75 2.75 0 0 0-.33.794c-.076.319-.076.648-.076 1.067v5.494c0 .419 0 .748.076 1.066.067.281.178.55.33.795.17.28.403.512.7.808l.05.052 3.126 3.125.052.051c.295.297.528.53.808.7.246.151.514.263.794.33.319.076.648.076 1.067.076h5.494c.419 0 .748 0 1.066-.076a2.75 2.75 0 0 0 .795-.33c.28-.17.512-.404.808-.7l.052-.05 3.125-3.126.051-.052c.297-.296.53-.528.7-.808a2.75 2.75 0 0 0 .33-.795c.076-.318.076-.647.076-1.066V9.253c0-.419 0-.748-.076-1.067a2.75 2.75 0 0 0-.33-.794c-.17-.28-.404-.513-.7-.808l-.05-.052-3.126-3.125-.052-.051c-.296-.297-.528-.53-.808-.7a2.75 2.75 0 0 0-.795-.33c-.318-.076-.647-.076-1.066-.076H9.325Zm5.633 11.965a.25.25 0 0 1-.243.243l-3.43.093a.25.25 0 0 1-.183-.427l.7-.7a.75.75 0 0 0 0-1.06l-2.307-2.308a.25.25 0 0 1 0-.354l.707-.707a.25.25 0 0 1 .354 0l2.307 2.308a.75.75 0 0 0 1.06 0l.7-.7a.25.25 0 0 1 .428.183l-.093 3.429Zm-.203 1.743a1.75 1.75 0 0 0 1.702-1.703l.093-3.429c.043-1.581-1.868-2.403-2.987-1.285l-.17.17-1.777-1.777a1.75 1.75 0 0 0-2.475 0l-.707.708a1.75 1.75 0 0 0 0 2.474l1.777 1.777-.17.17c-1.118 1.12-.296 3.03 1.285 2.987l3.43-.092Z" fill="#151E28"/></svg>