<svg viewBox="0 0 24 24" fill="none" xmlns="http://www.w3.org/2000/svg"><path fill-rule="evenodd" clip-rule="evenodd" d="M12 1.25C6.063 1.25 1.25 6.063 1.25 12S6.063 22.75 12 22.75 22.75 17.937 22.75 12 17.937 1.25 12 1.25Zm-1.692 6.22a.75.75 0 0 0-1.06 0L7.47 9.247a.75.75 0 0 0 0 1.061l1.777 1.778a.75.75 0 1 0 1.061-1.06l-.497-.498h4.411a.75.75 0 0 0 0-1.5H9.811l.497-.498a.75.75 0 0 0 0-1.06Zm3.384 4.444a.75.75 0 0 0 0 1.06l.497.498H9.778a.75.75 0 0 0 0 1.5h4.411l-.497.498a.75.75 0 1 0 1.06 1.06l1.778-1.777a.75.75 0 0 0 0-1.061l-1.777-1.778a.75.75 0 0 0-1.061 0Z" fill="#151E28"/></svg>