<svg viewBox="0 0 24 24" fill="none" xmlns="http://www.w3.org/2000/svg"><path fill-rule="evenodd" clip-rule="evenodd" d="M9.4 2.25h-.033c-1.092 0-1.958 0-2.655.057-.714.058-1.317.18-1.868.46a4.75 4.75 0 0 0-2.076 2.077c-.281.55-.403 1.154-.461 1.868-.057.697-.057 1.563-.057 2.655v5.266c0 1.092 0 1.958.057 2.655.058.714.18 1.317.46 1.869a4.75 4.75 0 0 0 2.077 2.075c.55.281 1.154.403 1.868.461.697.057 1.563.057 2.655.057h5.266c1.092 0 1.958 0 2.655-.057.714-.058 1.317-.18 1.869-.46a4.75 4.75 0 0 0 2.075-2.076c.281-.552.403-1.155.461-1.869.057-.697.057-1.563.057-2.655V9.367c0-1.092 0-1.958-.057-2.655-.058-.714-.18-1.317-.46-1.868a4.75 4.75 0 0 0-2.076-2.076c-.552-.281-1.155-.403-1.869-.461-.697-.057-1.563-.057-2.655-.057H9.4Zm.6 12a.25.25 0 0 1-.25-.25v-3.358a.25.25 0 0 1 .437-.166l.54.61a.75.75 0 0 0 1.092.034l2.307-2.307a.25.25 0 0 1 .354 0l.707.707a.25.25 0 0 1 0 .353l-2.307 2.308a.75.75 0 0 0 .034 1.092l.61.54a.25.25 0 0 1-.166.437H10ZM8.25 14c0 .966.784 1.75 1.75 1.75h3.358c1.612 0 2.367-1.994 1.16-3.061l-.014-.011 1.744-1.744a1.75 1.75 0 0 0 0-2.475l-.707-.707a1.75 1.75 0 0 0-2.475 0l-1.743 1.743-.012-.012C10.244 8.275 8.25 9.03 8.25 10.642V14Z" fill="#151E28"/></svg>