<svg viewBox="0 0 24 24" fill="none" xmlns="http://www.w3.org/2000/svg"><path fill-rule="evenodd" clip-rule="evenodd" d="M9.4 2.25h-.033c-1.092 0-1.958 0-2.655.057-.714.058-1.317.18-1.868.46a4.75 4.75 0 0 0-2.076 2.077c-.281.55-.403 1.154-.461 1.868-.057.697-.057 1.563-.057 2.655v5.266c0 1.092 0 1.958.057 2.655.058.714.18 1.317.46 1.869a4.75 4.75 0 0 0 2.077 2.075c.55.281 1.154.403 1.868.461.697.057 1.563.057 2.655.057h5.266c1.092 0 1.958 0 2.655-.057.714-.058 1.317-.18 1.869-.46a4.75 4.75 0 0 0 2.075-2.076c.281-.552.403-1.155.461-1.869.057-.697.057-1.563.057-2.655V9.367c0-1.092 0-1.958-.057-2.655-.058-.714-.18-1.317-.46-1.868a4.75 4.75 0 0 0-2.076-2.076c-.552-.281-1.155-.403-1.869-.461-.697-.057-1.563-.057-2.655-.057H9.4Zm3.4 6.5c.572 0 .957 0 1.253.025.287.023.424.065.515.111.235.12.426.311.546.547.046.09.088.227.111.514.024.296.025.68.025 1.253v1.689c0 .53 0 .885-.021 1.16-.02.266-.056.395-.096.48a1.25 1.25 0 0 1-.605.604.75.75 0 0 0 .634 1.36 2.75 2.75 0 0 0 1.33-1.33c.148-.318.206-.65.233-1.001.025-.338.025-.75.025-1.245V11.17c0-.535 0-.98-.03-1.345-.03-.38-.098-.736-.27-1.073a2.75 2.75 0 0 0-1.2-1.202c-.338-.172-.694-.24-1.074-.27-.364-.03-.81-.03-1.344-.03h-1.748c-.494 0-.907 0-1.245.026-.352.026-.683.084-1 .232a2.75 2.75 0 0 0-1.33 1.33.75.75 0 0 0 1.36.634 1.25 1.25 0 0 1 .604-.605c.085-.04.213-.076.48-.096.274-.02.63-.021 1.16-.021H12.8ZM8.85 12a.75.75 0 0 1 .75-.75H12a.75.75 0 0 1 .75.75v2.4a.75.75 0 0 1-1.5 0v-.59l-2.72 2.72a.75.75 0 1 1-1.06-1.06l2.72-2.72H9.6a.75.75 0 0 1-.75-.75Z" fill="#151E28"/></svg>