<svg viewBox="0 0 24 24" fill="none" xmlns="http://www.w3.org/2000/svg"><path fill-rule="evenodd" clip-rule="evenodd" d="M12 1.25C6.063 1.25 1.25 6.063 1.25 12S6.063 22.75 12 22.75 22.75 17.937 22.75 12 17.937 1.25 12 1.25Zm3.999 6a.75.75 0 0 1 .75.75v2a.75.75 0 0 1-.75.75h-2a.75.75 0 0 1 0-1.5h.39a3.644 3.644 0 0 0-5.962 2.04.75.75 0 0 1-1.471-.293 5.144 5.144 0 0 1 8.293-2.984V8a.75.75 0 0 1 .75-.75ZM7.249 16a.75.75 0 0 0 1.5 0v-.013a5.144 5.144 0 0 0 8.294-2.983.75.75 0 1 0-1.47-.293 3.644 3.644 0 0 1-5.963 2.04h.389a.75.75 0 0 0 0-1.501h-2a.75.75 0 0 0-.75.75v2Z" fill="#151E28"/></svg>