<svg viewBox="0 0 24 24" fill="none" xmlns="http://www.w3.org/2000/svg"><path fill-rule="evenodd" clip-rule="evenodd" d="M9.325 2.25h-.072c-.419 0-.748 0-1.067.076a2.75 2.75 0 0 0-.794.33c-.28.17-.513.403-.808.7l-.052.05-3.125 3.126-.051.052c-.297.295-.53.528-.7.808a2.75 2.75 0 0 0-.33.794c-.076.319-.076.648-.076 1.067v5.494c0 .419 0 .748.076 1.066.067.281.178.55.33.795.17.28.403.512.7.808l.05.052 3.126 3.125.052.051c.295.297.528.53.808.7.246.151.514.263.794.33.319.076.648.076 1.067.076h5.494c.419 0 .748 0 1.066-.076a2.75 2.75 0 0 0 .795-.33c.28-.17.512-.404.808-.7l.052-.05 3.125-3.126.051-.052c.297-.296.53-.528.7-.808a2.75 2.75 0 0 0 .33-.795c.076-.318.076-.647.076-1.066V9.253c0-.419 0-.748-.076-1.067a2.75 2.75 0 0 0-.33-.794c-.17-.28-.404-.513-.7-.808l-.05-.052-3.126-3.125-.052-.051c-.296-.297-.528-.53-.808-.7a2.75 2.75 0 0 0-.795-.33c-.318-.076-.647-.076-1.066-.076H9.325ZM16.75 8a.75.75 0 0 0-.75-.75h-2.286a.75.75 0 0 0 0 1.5h.475L12 10.94 9.81 8.75h.476a.75.75 0 0 0 0-1.5H8a.75.75 0 0 0-.75.75v2.286a.75.75 0 0 0 1.5 0V9.81L10.94 12l-2.19 2.19v-.476a.75.75 0 0 0-1.5 0V16c0 .414.336.75.75.75h2.286a.75.75 0 0 0 0-1.5H9.81L12 13.06l2.19 2.19h-.476a.75.75 0 0 0 0 1.5H16a.75.75 0 0 0 .75-.75v-2.286a.75.75 0 0 0-1.5 0v.475L13.06 12l2.19-2.19v.476a.75.75 0 0 0 1.5 0V8Z" fill="#151E28"/></svg>