<svg viewBox="0 0 24 24" fill="none" xmlns="http://www.w3.org/2000/svg"><path fill-rule="evenodd" clip-rule="evenodd" d="M9.325 2.25h-.072c-.419 0-.748 0-1.067.076a2.75 2.75 0 0 0-.794.33c-.28.17-.513.403-.808.7l-.052.05-3.125 3.126-.051.052c-.297.295-.53.528-.7.808a2.75 2.75 0 0 0-.33.794c-.076.319-.076.648-.076 1.067v5.494c0 .419 0 .748.076 1.066.067.281.178.55.33.795.17.28.403.512.7.808l.05.052 3.126 3.125.052.051c.295.297.528.53.808.7.246.151.514.263.794.33.319.076.648.076 1.067.076h5.494c.419 0 .748 0 1.066-.076a2.75 2.75 0 0 0 .795-.33c.28-.17.512-.404.808-.7l.052-.05 3.125-3.126.051-.052c.297-.296.53-.528.7-.808a2.75 2.75 0 0 0 .33-.795c.076-.318.076-.647.076-1.066V9.253c0-.419 0-.748-.076-1.067a2.75 2.75 0 0 0-.33-.794c-.17-.28-.404-.513-.7-.808l-.05-.052-3.126-3.125-.052-.051c-.296-.297-.528-.53-.808-.7a2.75 2.75 0 0 0-.795-.33c-.318-.076-.647-.076-1.066-.076H9.325Zm5.837 5.258a.75.75 0 0 0-.634 1.36c.267.123.48.338.605.604.04.085.076.213.096.48.02.274.021.63.021 1.16V12.8c0 .572 0 .957-.025 1.253-.023.287-.065.424-.111.515a1.25 1.25 0 0 1-.546.546c-.091.046-.228.088-.515.111-.296.024-.68.025-1.253.025h-1.689c-.53 0-.885 0-1.16-.021-.266-.02-.394-.056-.48-.096a1.25 1.25 0 0 1-.604-.605.75.75 0 0 0-1.36.634 2.75 2.75 0 0 0 1.33 1.33c.318.148.65.206 1.001.233.338.025.75.025 1.245.025h1.748c.534 0 .98 0 1.344-.03.38-.03.736-.098 1.074-.27a2.751 2.751 0 0 0 1.201-1.201c.172-.338.24-.694.27-1.074.03-.364.03-.81.03-1.344v-1.748c0-.494 0-.907-.025-1.245-.027-.352-.085-.683-.233-1a2.75 2.75 0 0 0-1.33-1.33ZM8.85 12c0 .414.336.75.75.75H12a.75.75 0 0 0 .75-.75V9.6a.75.75 0 0 0-1.5 0v.59L8.53 7.47a.75.75 0 0 0-1.06 1.06l2.72 2.72H9.6a.75.75 0 0 0-.75.75Z" fill="#151E28"/></svg>