<svg viewBox="0 0 24 24" fill="none" xmlns="http://www.w3.org/2000/svg"><path fill-rule="evenodd" clip-rule="evenodd" d="M12 1.25C6.063 1.25 1.25 6.063 1.25 12S6.063 22.75 12 22.75 22.75 17.937 22.75 12 17.937 1.25 12 1.25ZM9.285 9.542a.25.25 0 0 0-.243.243l-.093 3.43a.25.25 0 0 0 .427.183l.7-.7a.75.75 0 0 1 1.061 0l.893.893a.25.25 0 0 0 .354 0l.707-.707a.25.25 0 0 0 0-.354l-.893-.893a.75.75 0 0 1 0-1.06l.7-.7a.25.25 0 0 0-.183-.428l-3.43.093Zm-1.742.203a1.75 1.75 0 0 1 1.702-1.702l3.43-.093c1.58-.043 2.402 1.868 1.284 2.987l-.17.17.363.363a1.75 1.75 0 0 1 0 2.474l-.707.708a1.75 1.75 0 0 1-2.475 0l-.363-.363-.17.17c-1.119 1.118-3.03.296-2.987-1.285l.093-3.43Zm5.548 7.028a.75.75 0 0 1 0-1.06l2.121-2.122a.75.75 0 0 1 1.061 1.06l-2.121 2.122a.75.75 0 0 1-1.061 0Z" fill="#151E28"/></svg>