<svg viewBox="0 0 24 24" fill="none" xmlns="http://www.w3.org/2000/svg"><path fill-rule="evenodd" clip-rule="evenodd" d="M9.4 2.25h-.033c-1.092 0-1.958 0-2.655.057-.714.058-1.317.18-1.868.46a4.75 4.75 0 0 0-2.076 2.077c-.281.55-.403 1.154-.461 1.868-.057.697-.057 1.563-.057 2.655v5.266c0 1.092 0 1.958.057 2.655.058.714.18 1.317.46 1.869a4.75 4.75 0 0 0 2.077 2.075c.55.281 1.154.403 1.868.461.697.057 1.563.057 2.655.057h5.266c1.092 0 1.958 0 2.655-.057.714-.058 1.317-.18 1.869-.46a4.75 4.75 0 0 0 2.075-2.076c.281-.552.403-1.155.461-1.869.057-.697.057-1.563.057-2.655V9.367c0-1.092 0-1.958-.057-2.655-.058-.714-.18-1.317-.46-1.868a4.75 4.75 0 0 0-2.076-2.076c-.552-.281-1.155-.403-1.869-.461-.697-.057-1.563-.057-2.655-.057H9.4ZM16.75 8a.75.75 0 0 0-.75-.75h-2.286a.75.75 0 0 0 0 1.5h.475l-1.576 1.577a.75.75 0 0 0 1.06 1.06l1.577-1.576v.475a.75.75 0 0 0 1.5 0V8Zm-6.464-.75H8a.75.75 0 0 0-.75.75v2.286a.75.75 0 0 0 1.5 0V9.81l1.577 1.576a.75.75 0 0 0 1.06-1.06L9.811 8.75h.475a.75.75 0 0 0 0-1.5Zm2.327 5.363a.75.75 0 0 0 0 1.06l1.576 1.577h-.475a.75.75 0 0 0 0 1.5H16a.75.75 0 0 0 .75-.75v-2.286a.75.75 0 0 0-1.5 0v.475l-1.577-1.576a.75.75 0 0 0-1.06 0Zm-1.226 0a.75.75 0 0 0-1.06 0L8.75 14.189v-.475a.75.75 0 0 0-1.5 0V16c0 .414.336.75.75.75h2.286a.75.75 0 0 0 0-1.5H9.81l1.576-1.577a.75.75 0 0 0 0-1.06Z" fill="#151E28"/></svg>