<svg viewBox="0 0 24 24" fill="none" xmlns="http://www.w3.org/2000/svg"><path fill-rule="evenodd" clip-rule="evenodd" d="M9.325 2.25h-.072c-.419 0-.748 0-1.067.076a2.75 2.75 0 0 0-.794.33c-.28.17-.513.403-.808.7l-.052.05-3.125 3.126-.051.052c-.297.295-.53.528-.7.808a2.75 2.75 0 0 0-.33.794c-.076.319-.076.648-.076 1.067v5.494c0 .419 0 .748.076 1.066.067.281.178.55.33.795.17.28.403.512.7.808l.05.052 3.126 3.125.052.051c.295.297.528.53.808.7.246.151.514.263.794.33.319.076.648.076 1.067.076h5.494c.419 0 .748 0 1.066-.076a2.75 2.75 0 0 0 .795-.33c.28-.17.512-.404.808-.7l.052-.05 3.125-3.126.051-.052c.297-.296.53-.528.7-.808a2.75 2.75 0 0 0 .33-.795c.076-.318.076-.647.076-1.066V9.253c0-.419 0-.748-.076-1.067a2.75 2.75 0 0 0-.33-.794c-.17-.28-.404-.513-.7-.808l-.05-.052-3.126-3.125-.052-.051c-.296-.297-.528-.53-.808-.7a2.75 2.75 0 0 0-.795-.33c-.318-.076-.647-.076-1.066-.076H9.325Zm2.847 13.054a.25.25 0 0 1-.344 0l-2.49-2.36a.25.25 0 0 1 .172-.43h.99a.75.75 0 0 0 .75-.75V8.5a.25.25 0 0 1 .25-.25h1a.25.25 0 0 1 .25.25v3.263c0 .414.336.75.75.75h.99a.25.25 0 0 1 .172.432l-2.49 2.359Zm-1.376 1.089a1.75 1.75 0 0 0 2.408 0l2.49-2.36c1.148-1.087.378-3.02-1.204-3.02h-.24V8.5a1.75 1.75 0 0 0-1.75-1.75h-1A1.75 1.75 0 0 0 9.75 8.5v2.513h-.24c-1.582 0-2.352 1.933-1.204 3.02l2.49 2.36Z" fill="#151E28"/></svg>