<svg viewBox="0 0 24 24" fill="none" xmlns="http://www.w3.org/2000/svg"><path fill-rule="evenodd" clip-rule="evenodd" d="M9.4 2.25h-.033c-1.092 0-1.958 0-2.655.057-.714.058-1.317.18-1.868.46a4.75 4.75 0 0 0-2.076 2.077c-.281.55-.403 1.154-.461 1.868-.057.697-.057 1.563-.057 2.655v5.266c0 1.092 0 1.958.057 2.655.058.714.18 1.317.46 1.869a4.75 4.75 0 0 0 2.077 2.075c.55.281 1.154.403 1.868.461.697.057 1.563.057 2.655.057h5.266c1.092 0 1.958 0 2.655-.057.714-.058 1.317-.18 1.869-.46a4.75 4.75 0 0 0 2.075-2.076c.281-.552.403-1.155.461-1.869.057-.697.057-1.563.057-2.655V9.367c0-1.092 0-1.958-.057-2.655-.058-.714-.18-1.317-.46-1.868a4.75 4.75 0 0 0-2.076-2.076c-.552-.281-1.155-.403-1.869-.461-.697-.057-1.563-.057-2.655-.057H9.4Zm5.762 5.258a.75.75 0 0 0-.634 1.36c.267.123.48.338.605.604.04.085.076.213.096.48.02.274.021.63.021 1.16V12.8c0 .572 0 .957-.025 1.253-.023.287-.065.424-.111.515a1.25 1.25 0 0 1-.546.546c-.091.046-.228.088-.515.111-.296.024-.68.025-1.253.025h-1.689c-.53 0-.885 0-1.16-.021-.266-.02-.394-.056-.48-.096a1.25 1.25 0 0 1-.604-.605.75.75 0 0 0-1.36.634 2.75 2.75 0 0 0 1.33 1.33c.318.148.65.206 1.001.233.338.025.75.025 1.245.025h1.748c.534 0 .98 0 1.344-.03.38-.03.736-.098 1.074-.27a2.751 2.751 0 0 0 1.201-1.201c.172-.338.24-.694.27-1.074.03-.364.03-.81.03-1.344v-1.748c0-.494 0-.907-.025-1.245-.027-.352-.085-.683-.233-1a2.75 2.75 0 0 0-1.33-1.33ZM8.85 12c0 .414.336.75.75.75H12a.75.75 0 0 0 .75-.75V9.6a.75.75 0 0 0-1.5 0v.59L8.53 7.47a.75.75 0 0 0-1.06 1.06l2.72 2.72H9.6a.75.75 0 0 0-.75.75Z" fill="#151E28"/></svg>