<svg viewBox="0 0 24 24" fill="none" xmlns="http://www.w3.org/2000/svg"><path fill-rule="evenodd" clip-rule="evenodd" d="M5.254 7.25a8.25 8.25 0 0 1 14.981 5.271.75.75 0 0 0 1.498.094 9.75 9.75 0 0 0-4.858-9.059C12.578 1.076 7.179 2.237 4.25 6.082V3a.75.75 0 0 0-1.5 0v5c0 .414.336.75.75.75h5a.75.75 0 1 0 0-1.5H5.254Zm13.492 9.5H15.5a.75.75 0 0 1 0-1.5h5a.75.75 0 0 1 .75.75v5a.75.75 0 0 1-1.5 0v-3.082c-2.928 3.845-8.328 5.007-12.625 2.526a9.75 9.75 0 0 1-4.858-9.059.75.75 0 0 1 1.498.094 8.25 8.25 0 0 0 14.981 5.271Z" fill="#151E28"/></svg>