<svg viewBox="0 0 24 24" fill="none" xmlns="http://www.w3.org/2000/svg"><path fill-rule="evenodd" clip-rule="evenodd" d="M18.25 18a.25.25 0 0 1-.25.25H7.272a.25.25 0 0 1-.177-.427l3.243-3.242a.75.75 0 0 0 0-1.061L4.681 7.863a.25.25 0 0 1 0-.353L7.51 4.68a.25.25 0 0 1 .353 0l5.657 5.657a.75.75 0 0 0 1.06 0l3.243-3.243a.25.25 0 0 1 .427.177V18ZM18 19.75A1.75 1.75 0 0 0 19.75 18V7.272c0-1.559-1.885-2.34-2.987-1.237L14.05 8.747 8.924 3.62a1.75 1.75 0 0 0-2.475 0L3.62 6.45a1.75 1.75 0 0 0 0 2.475l5.127 5.126-2.712 2.713c-1.103 1.102-.322 2.987 1.237 2.987H18Z" fill="#151E28"/></svg>