<svg viewBox="0 0 24 24" fill="none" xmlns="http://www.w3.org/2000/svg"><path fill-rule="evenodd" clip-rule="evenodd" d="M9 8.75a.25.25 0 0 0-.25.25v4.698c0 .22.26.332.42.183l1.14-1.063a.75.75 0 0 1 1.041.018l2.978 2.977a.25.25 0 0 0 .353 0l1.131-1.13a.25.25 0 0 0 0-.354l-2.977-2.978a.75.75 0 0 1-.018-1.042l1.063-1.138a.25.25 0 0 0-.183-.421H9ZM7.25 9c0-.966.784-1.75 1.75-1.75h4.698c1.53 0 2.324 1.826 1.28 2.944l-.569.61 2.465 2.464a1.75 1.75 0 0 1 0 2.475l-1.131 1.131a1.75 1.75 0 0 1-2.475 0l-2.465-2.465-.609.569c-1.118 1.044-2.944.25-2.944-1.28V9Z" fill="#151E28"/></svg>