<svg viewBox="0 0 24 24" fill="none" xmlns="http://www.w3.org/2000/svg"><path fill-rule="evenodd" clip-rule="evenodd" d="M9.4 2.25h-.033c-1.092 0-1.958 0-2.655.057-.714.058-1.317.18-1.868.46a4.75 4.75 0 0 0-2.076 2.077c-.281.55-.403 1.154-.461 1.868-.057.697-.057 1.563-.057 2.655v5.266c0 1.092 0 1.958.057 2.655.058.714.18 1.317.46 1.869a4.75 4.75 0 0 0 2.077 2.075c.55.281 1.154.403 1.868.461.697.057 1.563.057 2.655.057h5.266c1.092 0 1.958 0 2.655-.057.714-.058 1.317-.18 1.869-.46a4.75 4.75 0 0 0 2.075-2.076c.281-.552.403-1.155.461-1.869.057-.697.057-1.563.057-2.655V9.367c0-1.092 0-1.958-.057-2.655-.058-.714-.18-1.317-.46-1.868a4.75 4.75 0 0 0-2.076-2.076c-.552-.281-1.155-.403-1.869-.461-.697-.057-1.563-.057-2.655-.057H9.4Zm-1.204 9.578a.25.25 0 0 0 0 .344l2.36 2.49a.25.25 0 0 0 .43-.172v-.99a.75.75 0 0 1 .75-.75H13a.25.25 0 0 0 .25-.25v-1a.25.25 0 0 0-.25-.25h-1.263a.75.75 0 0 1-.75-.75v-.99a.25.25 0 0 0-.432-.172l-2.359 2.49Zm-1.089 1.376a1.75 1.75 0 0 1 0-2.408l2.36-2.49c1.087-1.148 3.02-.378 3.02 1.204v.24H13c.966 0 1.75.784 1.75 1.75v1A1.75 1.75 0 0 1 13 14.25h-.513v.24c0 1.582-1.933 2.352-3.02 1.204l-2.36-2.49ZM16 14.25a.75.75 0 0 1-.75-.75v-3a.75.75 0 0 1 1.5 0v3a.75.75 0 0 1-.75.75Z" fill="#151E28"/></svg>