<svg viewBox="0 0 24 24" fill="none" xmlns="http://www.w3.org/2000/svg"><path fill-rule="evenodd" clip-rule="evenodd" d="M13.117 2.479a2.75 2.75 0 0 0-2.234 0c-.485.216-.844.614-1.167 1.071-.322.454-.677 1.068-1.115 1.825l-.02.033-5.45 9.413-.018.033c-.44.76-.797 1.375-1.03 1.882-.237.51-.404 1.02-.35 1.55a2.75 2.75 0 0 0 1.119 1.938c.43.313.956.424 1.515.475.556.051 1.267.051 2.145.051h10.976c.878 0 1.59 0 2.145-.051.56-.051 1.085-.162 1.515-.475a2.75 2.75 0 0 0 1.118-1.939c.055-.529-.112-1.04-.348-1.55-.234-.506-.59-1.121-1.03-1.881l-.02-.033-5.45-9.413-.019-.033c-.438-.758-.793-1.37-1.114-1.825-.324-.457-.683-.855-1.168-1.071Zm2.817 16.27a.75.75 0 0 1-.74-.76l.01-.755c.009-.58.014-.969-.007-1.269-.02-.29-.06-.43-.106-.522a1.25 1.25 0 0 0-.547-.554c-.091-.047-.23-.09-.52-.114-.29-.024-.664-.025-1.213-.025l.72.72a.75.75 0 0 1-1.061 1.06l-2-2a.75.75 0 0 1 0-1.06l2-2a.75.75 0 0 1 1.06 1.06l-.72.72c.53 0 .974 0 1.336.03.384.032.745.1 1.085.275a2.75 2.75 0 0 1 1.203 1.22c.17.343.234.704.26 1.088.025.37.019.82.011 1.361v.031l-.011.756a.75.75 0 0 1-.76.739ZM10.53 16.53a.75.75 0 0 1-1.06 0l-2-2a.75.75 0 0 1 0-1.06l2-2a.75.75 0 0 1 1.06 1.06L9.06 14l1.47 1.47a.75.75 0 0 1 0 1.06Z" fill="#151E28"/></svg>