<svg viewBox="0 0 24 24" fill="none" xmlns="http://www.w3.org/2000/svg"><path fill-rule="evenodd" clip-rule="evenodd" d="M9.4 2.25h-.033c-1.092 0-1.958 0-2.655.057-.714.058-1.317.18-1.868.46a4.75 4.75 0 0 0-2.076 2.077c-.281.55-.403 1.154-.461 1.868-.057.697-.057 1.563-.057 2.655v5.266c0 1.092 0 1.958.057 2.655.058.714.18 1.317.46 1.869a4.75 4.75 0 0 0 2.077 2.075c.55.281 1.154.403 1.868.461.697.057 1.563.057 2.655.057h5.266c1.092 0 1.958 0 2.655-.057.714-.058 1.317-.18 1.869-.46a4.75 4.75 0 0 0 2.075-2.076c.281-.552.403-1.155.461-1.869.057-.697.057-1.563.057-2.655V9.367c0-1.092 0-1.958-.057-2.655-.058-.714-.18-1.317-.46-1.868a4.75 4.75 0 0 0-2.076-2.076c-.552-.281-1.155-.403-1.869-.461-.697-.057-1.563-.057-2.655-.057H9.4ZM15.25 10a.25.25 0 0 0-.25-.25h-3.476a.25.25 0 0 0-.172.432l.676.636a.75.75 0 0 1 .017 1.077l-.893.893a.25.25 0 0 0 0 .353l.707.707a.25.25 0 0 0 .353 0l.893-.893a.75.75 0 0 1 1.077.017l.636.676a.25.25 0 0 0 .432-.171V10ZM15 8.25c.966 0 1.75.784 1.75 1.75v3.476c0 1.586-1.94 2.354-3.025 1.2l-.106-.113-.346.346a1.75 1.75 0 0 1-2.475 0l-.707-.707a1.75 1.75 0 0 1 0-2.475l.346-.346-.112-.106C9.17 10.189 9.938 8.25 11.524 8.25H15Zm-7.03 5.598a.75.75 0 0 1 1.06 0l2.122 2.122a.75.75 0 1 1-1.061 1.06L7.97 14.91a.75.75 0 0 1 0-1.06Z" fill="#151E28"/></svg>