<svg viewBox="0 0 24 24" fill="none" xmlns="http://www.w3.org/2000/svg"><path fill-rule="evenodd" clip-rule="evenodd" d="M9.4 2.25h-.033c-1.092 0-1.958 0-2.655.057-.714.058-1.317.18-1.868.46a4.75 4.75 0 0 0-2.076 2.077c-.281.55-.403 1.154-.461 1.868-.057.697-.057 1.563-.057 2.655v5.266c0 1.092 0 1.958.057 2.655.058.714.18 1.317.46 1.869a4.75 4.75 0 0 0 2.077 2.075c.55.281 1.154.403 1.868.461.697.057 1.563.057 2.655.057h5.266c1.092 0 1.958 0 2.655-.057.714-.058 1.317-.18 1.869-.46a4.75 4.75 0 0 0 2.075-2.076c.281-.552.403-1.155.461-1.869.057-.697.057-1.563.057-2.655V9.367c0-1.092 0-1.958-.057-2.655-.058-.714-.18-1.317-.46-1.868a4.75 4.75 0 0 0-2.076-2.076c-.552-.281-1.155-.403-1.869-.461-.697-.057-1.563-.057-2.655-.057H9.4Zm2.6 4a.75.75 0 0 0-.53.22L9.803 8.136a.75.75 0 1 0 1.06 1.061l.387-.386v2.439H8.81l.387-.386a.75.75 0 0 0-1.06-1.061L6.47 11.47a.75.75 0 0 0 0 1.06l1.666 1.667a.75.75 0 1 0 1.061-1.06l-.386-.387h2.439v2.44l-.386-.387a.75.75 0 0 0-1.061 1.06l1.667 1.667a.75.75 0 0 0 1.06 0l1.667-1.666a.75.75 0 0 0-1.06-1.061l-.387.386V12.75h2.44l-.387.386a.75.75 0 0 0 1.06 1.061l1.667-1.667a.75.75 0 0 0 0-1.06l-1.666-1.667a.75.75 0 0 0-1.061 1.06l.386.387H12.75V8.81l.386.387a.75.75 0 0 0 1.061-1.06L12.53 6.47a.75.75 0 0 0-.53-.22Z" fill="#151E28"/></svg>