<svg viewBox="0 0 24 24" fill="none" xmlns="http://www.w3.org/2000/svg"><path fill-rule="evenodd" clip-rule="evenodd" d="M9.4 2.25h-.033c-1.092 0-1.958 0-2.655.057-.714.058-1.317.18-1.868.46a4.75 4.75 0 0 0-2.076 2.077c-.281.55-.403 1.154-.461 1.868-.057.697-.057 1.563-.057 2.655v5.266c0 1.092 0 1.958.057 2.655.058.714.18 1.317.46 1.869a4.75 4.75 0 0 0 2.077 2.075c.55.281 1.154.403 1.868.461.697.057 1.563.057 2.655.057h5.266c1.092 0 1.958 0 2.655-.057.714-.058 1.317-.18 1.869-.46a4.75 4.75 0 0 0 2.075-2.076c.281-.552.403-1.155.461-1.869.057-.697.057-1.563.057-2.655V9.367c0-1.092 0-1.958-.057-2.655-.058-.714-.18-1.317-.46-1.868a4.75 4.75 0 0 0-2.076-2.076c-.552-.281-1.155-.403-1.869-.461-.697-.057-1.563-.057-2.655-.057H9.4Zm1.8 5h-.03c-.535 0-.98 0-1.345.03-.38.03-.736.098-1.073.27A2.75 2.75 0 0 0 7.55 8.752c-.172.337-.24.693-.27 1.073-.03.365-.03.81-.03 1.345v1.855c0 .445 0 .816.02 1.12.022.318.07.617.19.907a2.75 2.75 0 0 0 1.488 1.489.75.75 0 1 0 .574-1.386 1.25 1.25 0 0 1-.677-.677c-.032-.077-.061-.194-.078-.435A17.091 17.091 0 0 1 8.75 13v-1.8c0-.572 0-.957.025-1.253.023-.287.065-.424.111-.514a1.25 1.25 0 0 1 .547-.547c.09-.046.227-.088.514-.111.296-.024.68-.025 1.253-.025H13c.476 0 .796 0 1.043.017.241.017.358.046.435.078.307.127.55.37.677.677a.75.75 0 1 0 1.386-.574 2.75 2.75 0 0 0-1.489-1.489c-.29-.12-.59-.167-.907-.188-.304-.021-.675-.021-1.12-.021H11.2ZM15.15 12a.75.75 0 0 0-.75-.75H12a.75.75 0 0 0-.75.75v2.4a.75.75 0 0 0 1.5 0v-.59l2.72 2.72a.75.75 0 1 0 1.06-1.06l-2.72-2.72h.59a.75.75 0 0 0 .75-.75Z" fill="#151E28"/></svg>