<svg viewBox="0 0 24 24" fill="none" xmlns="http://www.w3.org/2000/svg"><path fill-rule="evenodd" clip-rule="evenodd" d="M6 5.75a.25.25 0 0 0-.25.25v10.728c0 .223.27.334.427.177l3.242-3.243a.75.75 0 0 1 1.061 0l3.536 3.536a.25.25 0 0 0 .353 0l2.829-2.829a.25.25 0 0 0 0-.353l-3.536-3.536a.75.75 0 0 1 0-1.06l3.243-3.243a.25.25 0 0 0-.177-.427H6ZM4.25 6c0-.966.784-1.75 1.75-1.75h10.728c1.559 0 2.34 1.885 1.237 2.987L15.253 9.95l3.005 3.005a1.75 1.75 0 0 1 0 2.475l-2.828 2.828a1.75 1.75 0 0 1-2.475 0L9.95 15.253l-2.713 2.712c-1.102 1.103-2.987.322-2.987-1.237V6Zm11.533 15.087a.75.75 0 0 1 0-1.061l4.243-4.243a.75.75 0 0 1 1.06 1.061l-4.242 4.243a.75.75 0 0 1-1.06 0Z" fill="#151E28"/></svg>