<svg viewBox="0 0 24 24" fill="none" xmlns="http://www.w3.org/2000/svg"><path fill-rule="evenodd" clip-rule="evenodd" d="M12 1.25C6.063 1.25 1.25 6.063 1.25 12S6.063 22.75 12 22.75 22.75 17.937 22.75 12 17.937 1.25 12 1.25Zm-1.889 15.5h-.016c-.088 0-.155 0-.215-.003a2.75 2.75 0 0 1-2.627-2.627c-.003-.06-.003-.128-.003-.215V11.17c0-.535 0-.98.03-1.345.03-.38.098-.736.27-1.073A2.75 2.75 0 0 1 8.752 7.55c.337-.172.693-.24 1.073-.27.365-.03.81-.03 1.345-.03h2.735c.088 0 .155 0 .215.003a2.75 2.75 0 0 1 2.627 2.627c.003.06.003.127.003.215v.016a.75.75 0 0 1-1.5 0l-.001-.166a1.25 1.25 0 0 0-1.194-1.194 4.683 4.683 0 0 0-.166-.001H11.2c-.572 0-.957 0-1.253.025-.287.023-.424.065-.514.111a1.25 1.25 0 0 0-.547.547c-.046.09-.088.227-.111.514-.024.296-.025.68-.025 1.253v2.689l.001.166a1.25 1.25 0 0 0 1.194 1.194l.166.001a.75.75 0 0 1 0 1.5ZM12.85 16c0 .414.336.75.75.75H16a.75.75 0 0 0 .75-.75v-2.4a.75.75 0 0 0-1.5 0v.59l-2.72-2.72a.75.75 0 1 0-1.06 1.06l2.72 2.72h-.59a.75.75 0 0 0-.75.75Z" fill="#151E28"/></svg>