<svg viewBox="0 0 24 24" fill="none" xmlns="http://www.w3.org/2000/svg"><path fill-rule="evenodd" clip-rule="evenodd" d="M10.889 6.25h-.103c-.727 0-1.223 0-1.65.101A3.75 3.75 0 0 0 6.35 9.135c-.101.428-.101.924-.1 1.651v1.446c0 .813 0 1.469.042 2 .045.546.14 1.026.366 1.47a3.75 3.75 0 0 0 1.639 1.64c.444.226.924.32 1.47.365.532.043 1.187.043 2 .043h1.446c.727 0 1.223 0 1.65-.101a3.75 3.75 0 0 0 2.785-2.784c.101-.428.101-.924.101-1.65v-.104a.75.75 0 1 0-1.5 0c0 .87-.005 1.173-.06 1.408a2.25 2.25 0 0 1-1.671 1.67c-.234.056-.539.061-1.408.061H11.8c-.853 0-1.448 0-1.91-.038-.454-.037-.715-.107-.912-.207a2.25 2.25 0 0 1-.984-.983c-.1-.198-.17-.459-.207-.913-.037-.462-.038-1.056-.038-1.909v-1.311c0-.87.005-1.173.06-1.408a2.25 2.25 0 0 1 1.671-1.67c.235-.056.539-.061 1.408-.061a.75.75 0 0 0 0-1.5ZM14.25 7c0 .414.336.75.75.75h.19l-2.44 2.44V10a.75.75 0 0 0-1.5 0v2c0 .414.336.75.75.75h2a.75.75 0 1 0 0-1.5h-.19l2.44-2.44V9a.75.75 0 0 0 1.5 0V7a.75.75 0 0 0-.75-.75h-2a.75.75 0 0 0-.75.75Z" fill="#151E28"/></svg>