<svg viewBox="0 0 24 24" fill="none" xmlns="http://www.w3.org/2000/svg"><path fill-rule="evenodd" clip-rule="evenodd" d="M12 1.25C6.063 1.25 1.25 6.063 1.25 12S6.063 22.75 12 22.75 22.75 17.937 22.75 12 17.937 1.25 12 1.25Zm-2 13a.25.25 0 0 1-.25-.25v-3.358a.25.25 0 0 1 .437-.166l.54.61a.75.75 0 0 0 1.092.034l2.307-2.307a.25.25 0 0 1 .354 0l.707.707a.25.25 0 0 1 0 .353l-2.307 2.308a.75.75 0 0 0 .034 1.092l.61.54a.25.25 0 0 1-.166.437H10ZM8.25 14c0 .966.784 1.75 1.75 1.75h3.358c1.612 0 2.367-1.994 1.16-3.061l-.014-.011 1.744-1.744a1.75 1.75 0 0 0 0-2.475l-.707-.707a1.75 1.75 0 0 0-2.475 0l-1.743 1.743-.012-.012C10.244 8.275 8.25 9.03 8.25 10.642V14Z" fill="#151E28"/></svg>