<svg viewBox="0 0 24 24" fill="none" xmlns="http://www.w3.org/2000/svg"><path fill-rule="evenodd" clip-rule="evenodd" d="M12 1.25C6.063 1.25 1.25 6.063 1.25 12S6.063 22.75 12 22.75 22.75 17.937 22.75 12 17.937 1.25 12 1.25ZM16.75 8a.75.75 0 0 0-.75-.75h-2.286a.75.75 0 0 0 0 1.5h.475l-1.576 1.577a.75.75 0 0 0 1.06 1.06l1.577-1.576v.475a.75.75 0 0 0 1.5 0V8Zm-6.464-.75H8a.75.75 0 0 0-.75.75v2.286a.75.75 0 0 0 1.5 0V9.81l1.577 1.576a.75.75 0 0 0 1.06-1.06L9.811 8.75h.475a.75.75 0 0 0 0-1.5Zm2.327 5.363a.75.75 0 0 0 0 1.06l1.576 1.577h-.475a.75.75 0 0 0 0 1.5H16a.75.75 0 0 0 .75-.75v-2.286a.75.75 0 0 0-1.5 0v.475l-1.577-1.576a.75.75 0 0 0-1.06 0Zm-1.226 0a.75.75 0 0 0-1.06 0L8.75 14.189v-.475a.75.75 0 0 0-1.5 0V16c0 .414.336.75.75.75h2.286a.75.75 0 0 0 0-1.5H9.81l1.576-1.577a.75.75 0 0 0 0-1.06Z" fill="#151E28"/></svg>