<svg viewBox="0 0 24 24" fill="none" xmlns="http://www.w3.org/2000/svg"><path fill-rule="evenodd" clip-rule="evenodd" d="M13.117 2.479a2.75 2.75 0 0 0-2.234 0c-.485.216-.844.614-1.167 1.071-.322.454-.677 1.068-1.115 1.825l-.02.033-5.45 9.413-.018.033c-.44.76-.797 1.375-1.03 1.882-.237.51-.404 1.02-.35 1.55a2.75 2.75 0 0 0 1.119 1.938c.43.313.956.424 1.515.475.556.051 1.267.051 2.145.051h10.976c.878 0 1.59 0 2.145-.051.56-.051 1.085-.162 1.515-.475a2.75 2.75 0 0 0 1.118-1.939c.055-.529-.112-1.04-.348-1.55-.234-.506-.59-1.121-1.03-1.881l-.02-.033-5.45-9.413-.019-.033c-.438-.758-.793-1.37-1.114-1.825-.324-.457-.683-.855-1.168-1.071ZM14.25 11a.25.25 0 0 0-.25-.25h-3.477a.25.25 0 0 0-.17.432l.675.636a.75.75 0 0 1 .017 1.077l-.893.893a.25.25 0 0 0 0 .353l.707.707a.25.25 0 0 0 .353 0l.893-.893a.75.75 0 0 1 1.077.017l.636.676a.25.25 0 0 0 .432-.171V11ZM14 9.25c.966 0 1.75.784 1.75 1.75v3.477c0 1.585-1.94 2.353-3.025 1.198l-.106-.112-.346.346a1.75 1.75 0 0 1-2.475 0l-.707-.707a1.75 1.75 0 0 1 0-2.475l.346-.346-.112-.106C8.17 11.189 8.938 9.25 10.523 9.25H14Zm-7.03 5.598a.75.75 0 0 1 1.06 0l2.122 2.122a.75.75 0 0 1-1.061 1.06L6.97 15.91a.75.75 0 0 1 0-1.06Z" fill="#151E28"/></svg>