<svg viewBox="0 0 24 24" fill="none" xmlns="http://www.w3.org/2000/svg"><path fill-rule="evenodd" clip-rule="evenodd" d="M13.117 2.479a2.75 2.75 0 0 0-2.234 0c-.485.216-.844.614-1.167 1.071-.322.454-.677 1.068-1.115 1.825l-.02.033-5.45 9.413-.018.033c-.44.76-.797 1.375-1.03 1.882-.237.51-.404 1.02-.35 1.55a2.75 2.75 0 0 0 1.119 1.938c.43.313.956.424 1.515.475.556.051 1.267.051 2.145.051h10.976c.878 0 1.59 0 2.145-.051.56-.051 1.085-.162 1.515-.475a2.75 2.75 0 0 0 1.118-1.939c.055-.529-.112-1.04-.348-1.55-.234-.506-.59-1.121-1.03-1.881l-.02-.033-5.45-9.413-.019-.033c-.438-.758-.793-1.37-1.114-1.825-.324-.457-.683-.855-1.168-1.071Zm2.945 8.702a.75.75 0 0 0-1.124.992c.183.208.298.476.31.773.002.023.002.054.002.165v1.69c0 .572 0 .956-.025 1.252-.023.287-.065.424-.111.515a1.25 1.25 0 0 1-.547.546c-.09.046-.227.088-.515.111-.295.024-.68.025-1.252.025h-1.69l-.166-.001a1.243 1.243 0 0 1-.772-.311.75.75 0 0 0-.992 1.124 2.744 2.744 0 0 0 1.699.685c.06.003.127.003.215.003h1.735c.534 0 .98 0 1.345-.03.38-.03.736-.098 1.073-.27a2.751 2.751 0 0 0 1.202-1.201c.172-.338.24-.694.27-1.074.03-.365.03-.81.03-1.345v-1.735c0-.087 0-.155-.003-.215a2.744 2.744 0 0 0-.685-1.7ZM11 14.25a.75.75 0 0 0 0 1.5h2a.75.75 0 0 0 .75-.75v-2a.75.75 0 0 0-1.5 0v.19l-2.72-2.72a.75.75 0 0 0-1.06 1.06l2.72 2.72H11Z" fill="#151E28"/></svg>