<svg viewBox="0 0 24 24" fill="none" xmlns="http://www.w3.org/2000/svg"><path fill-rule="evenodd" clip-rule="evenodd" d="M9.4 2.25h-.033c-1.092 0-1.958 0-2.655.057-.714.058-1.317.18-1.868.46a4.75 4.75 0 0 0-2.076 2.077c-.281.55-.403 1.154-.461 1.868-.057.697-.057 1.563-.057 2.655v5.266c0 1.092 0 1.958.057 2.655.058.714.18 1.317.46 1.869a4.75 4.75 0 0 0 2.077 2.075c.55.281 1.154.403 1.868.461.697.057 1.563.057 2.655.057h5.266c1.092 0 1.958 0 2.655-.057.714-.058 1.317-.18 1.869-.46a4.75 4.75 0 0 0 2.075-2.076c.281-.552.403-1.155.461-1.869.057-.697.057-1.563.057-2.655V9.367c0-1.092 0-1.958-.057-2.655-.058-.714-.18-1.317-.46-1.868a4.75 4.75 0 0 0-2.076-2.076c-.552-.281-1.155-.403-1.869-.461-.697-.057-1.563-.057-2.655-.057H9.4Zm.122 6.595a.75.75 0 1 0-.574-1.386 2.75 2.75 0 0 0-1.489 1.489c-.12.29-.167.59-.188.907-.021.304-.021.675-.021 1.12v1.855c0 .535 0 .98.03 1.345.03.38.098.736.27 1.074a2.75 2.75 0 0 0 1.202 1.201c.337.172.693.24 1.073.27.365.03.81.03 1.345.03h1.855c.445 0 .816 0 1.12-.02.318-.022.617-.069.907-.19a2.75 2.75 0 0 0 1.489-1.487.75.75 0 1 0-1.386-.575 1.25 1.25 0 0 1-.677.677c-.077.032-.194.061-.435.078-.247.017-.567.017-1.043.017h-1.8c-.572 0-.957 0-1.253-.025-.287-.023-.424-.065-.514-.111a1.25 1.25 0 0 1-.547-.546c-.046-.091-.088-.228-.111-.515-.024-.296-.025-.68-.025-1.253V11c0-.476 0-.796.017-1.043.017-.24.046-.358.078-.435.127-.307.37-.55.677-.677ZM15.15 12a.75.75 0 0 1-.75.75H12a.75.75 0 0 1-.75-.75V9.6a.75.75 0 0 1 1.5 0v.59l2.72-2.72a.75.75 0 1 1 1.06 1.06l-2.72 2.72h.59a.75.75 0 0 1 .75.75Z" fill="#151E28"/></svg>