<svg viewBox="0 0 24 24" fill="none" xmlns="http://www.w3.org/2000/svg"><path fill-rule="evenodd" clip-rule="evenodd" d="M9.4 2.25h-.033c-1.092 0-1.958 0-2.655.057-.714.058-1.317.18-1.868.46a4.75 4.75 0 0 0-2.076 2.077c-.281.55-.403 1.154-.461 1.868-.057.697-.057 1.563-.057 2.655v5.266c0 1.092 0 1.958.057 2.655.058.714.18 1.317.46 1.869a4.75 4.75 0 0 0 2.077 2.075c.55.281 1.154.403 1.868.461.697.057 1.563.057 2.655.057h5.266c1.092 0 1.958 0 2.655-.057.714-.058 1.317-.18 1.869-.46a4.75 4.75 0 0 0 2.075-2.076c.281-.552.403-1.155.461-1.869.057-.697.057-1.563.057-2.655V9.367c0-1.092 0-1.958-.057-2.655-.058-.714-.18-1.317-.46-1.868a4.75 4.75 0 0 0-2.076-2.076c-.552-.281-1.155-.403-1.869-.461-.697-.057-1.563-.057-2.655-.057H9.4Zm4.489 5h.016a2.75 2.75 0 0 1 2.845 2.845v2.735c0 .535 0 .98-.03 1.345-.03.38-.098.736-.27 1.073a2.751 2.751 0 0 1-1.201 1.202c-.338.172-.694.24-1.074.27-.365.03-.81.03-1.345.03h-2.735c-.088 0-.155 0-.215-.003a2.75 2.75 0 0 1-2.627-2.627c-.003-.06-.003-.127-.003-.215v-.016a.75.75 0 0 1 1.5 0l.001.166a1.25 1.25 0 0 0 1.194 1.194l.166.001H12.8c.572 0 .957 0 1.252-.025.288-.023.425-.065.516-.111a1.25 1.25 0 0 0 .546-.546c.046-.091.088-.228.111-.515.024-.296.025-.68.025-1.253v-2.689l-.001-.166a1.25 1.25 0 0 0-1.194-1.194 4.683 4.683 0 0 0-.166-.001.75.75 0 0 1 0-1.5ZM11.15 8a.75.75 0 0 0-.75-.75H8a.75.75 0 0 0-.75.75v2.4a.75.75 0 0 0 1.5 0v-.59l2.72 2.72a.75.75 0 1 0 1.06-1.06L9.81 8.75h.59a.75.75 0 0 0 .75-.75Z" fill="#151E28"/></svg>