<svg viewBox="0 0 24 24" fill="none" xmlns="http://www.w3.org/2000/svg"><path fill-rule="evenodd" clip-rule="evenodd" d="M12 1.25C6.063 1.25 1.25 6.063 1.25 12S6.063 22.75 12 22.75 22.75 17.937 22.75 12 17.937 1.25 12 1.25Zm0 17.5a.75.75 0 0 0 .75-.75v-2.19l.72.72a.75.75 0 1 0 1.06-1.06l-2-2a.75.75 0 0 0-1.06 0l-2 2a.75.75 0 1 0 1.06 1.06l.72-.72V18c0 .414.336.75.75.75Zm-4-6a.75.75 0 0 1 0-1.5h8a.75.75 0 0 1 0 1.5H8Zm4-7.5a.75.75 0 0 1 .75.75v2.19l.72-.72a.75.75 0 1 1 1.06 1.06l-2 2a.75.75 0 0 1-1.06 0l-2-2a.75.75 0 0 1 1.06-1.06l.72.72V6a.75.75 0 0 1 .75-.75Z" fill="#151E28"/></svg>