<svg viewBox="0 0 24 24" fill="none" xmlns="http://www.w3.org/2000/svg"><path fill-rule="evenodd" clip-rule="evenodd" d="M12 1.25C6.063 1.25 1.25 6.063 1.25 12S6.063 22.75 12 22.75 22.75 17.937 22.75 12 17.937 1.25 12 1.25Zm-.889 6h-.028c-.494 0-.907 0-1.245.026-.352.026-.683.084-1 .232a2.75 2.75 0 0 0-1.33 1.33c-.148.317-.206.648-.232 1-.026.338-.026.75-.026 1.245v1.747c0 .535 0 .98.03 1.345.03.38.098.736.27 1.073a2.75 2.75 0 0 0 1.202 1.202c.337.172.693.24 1.073.27.365.03.81.03 1.345.03h1.747c.494 0 .907 0 1.245-.026.352-.026.683-.084 1-.232a2.75 2.75 0 0 0 1.33-1.33c.148-.317.206-.648.232-1 .026-.338.026-.75.026-1.245v-.028a.75.75 0 0 0-1.5 0c0 .53 0 .885-.021 1.16-.02.266-.057.395-.096.48a1.25 1.25 0 0 1-.605.604c-.085.04-.213.076-.48.096-.274.02-.63.021-1.16.021H11.2c-.572 0-.957 0-1.253-.025-.287-.023-.424-.065-.514-.111a1.25 1.25 0 0 1-.547-.546c-.046-.091-.088-.228-.111-.515-.024-.296-.025-.68-.025-1.253v-1.689c0-.53 0-.885.021-1.16.02-.266.057-.395.096-.48a1.25 1.25 0 0 1 .605-.604c.084-.04.213-.076.48-.096.274-.02.63-.021 1.16-.021a.75.75 0 0 0 0-1.5Zm3.126 1.453A.75.75 0 0 1 14.5 7.25H16a.75.75 0 0 1 .75.75v1.5a.75.75 0 0 1-1.453.263l-1.534 1.534a.75.75 0 0 1-.263 1.453H12a.75.75 0 0 1-.75-.75v-1.5a.75.75 0 0 1 1.453-.263l1.534-1.534Z" fill="#151E28"/></svg>