<svg viewBox="0 0 24 24" fill="none" xmlns="http://www.w3.org/2000/svg"><path fill-rule="evenodd" clip-rule="evenodd" d="M12 1.25C6.063 1.25 1.25 6.063 1.25 12S6.063 22.75 12 22.75 22.75 17.937 22.75 12 17.937 1.25 12 1.25Zm3.162 6.258a.75.75 0 0 0-.634 1.36c.266.123.48.338.605.604.04.085.075.213.096.48.02.274.02.63.02 1.16V12.8c0 .572 0 .957-.024 1.253-.023.287-.065.424-.111.515a1.25 1.25 0 0 1-.547.546c-.09.046-.228.088-.515.111-.295.024-.68.025-1.252.025h-1.69c-.53 0-.885 0-1.16-.021-.266-.02-.395-.056-.48-.096a1.25 1.25 0 0 1-.604-.605.75.75 0 0 0-1.36.634 2.75 2.75 0 0 0 1.33 1.33c.318.148.65.206 1.001.233.338.025.75.025 1.245.025h1.747c.534 0 .98 0 1.345-.03.38-.03.736-.098 1.073-.27a2.75 2.75 0 0 0 1.202-1.201c.172-.338.24-.694.27-1.074.03-.364.03-.81.03-1.344v-1.748c0-.494 0-.907-.026-1.245-.026-.352-.084-.683-.232-1a2.75 2.75 0 0 0-1.33-1.33ZM8.85 12c0 .414.336.75.75.75H12a.75.75 0 0 0 .75-.75V9.6a.75.75 0 0 0-1.5 0v.59L8.53 7.47a.75.75 0 0 0-1.06 1.06l2.72 2.72H9.6a.75.75 0 0 0-.75.75Z" fill="#151E28"/></svg>