<svg viewBox="0 0 24 24" fill="none" xmlns="http://www.w3.org/2000/svg"><path fill-rule="evenodd" clip-rule="evenodd" d="M12 1.25C6.063 1.25 1.25 6.063 1.25 12S6.063 22.75 12 22.75 22.75 17.937 22.75 12 17.937 1.25 12 1.25ZM15.25 10a.25.25 0 0 0-.25-.25h-3.476a.25.25 0 0 0-.172.432l.676.636a.75.75 0 0 1 .017 1.077l-.893.893a.25.25 0 0 0 0 .353l.707.707a.25.25 0 0 0 .353 0l.893-.893a.75.75 0 0 1 1.077.017l.636.676a.25.25 0 0 0 .432-.171V10ZM15 8.25c.966 0 1.75.784 1.75 1.75v3.476c0 1.586-1.94 2.354-3.025 1.2l-.106-.113-.346.346a1.75 1.75 0 0 1-2.475 0l-.707-.707a1.75 1.75 0 0 1 0-2.475l.346-.346-.112-.106C9.17 10.189 9.938 8.25 11.524 8.25H15Zm-7.03 5.598a.75.75 0 0 1 1.06 0l2.122 2.122a.75.75 0 1 1-1.061 1.06L7.97 14.91a.75.75 0 0 1 0-1.06Z" fill="#151E28"/></svg>