<svg viewBox="0 0 24 24" fill="none" xmlns="http://www.w3.org/2000/svg"><path fill-rule="evenodd" clip-rule="evenodd" d="M9.325 2.25h-.072c-.419 0-.748 0-1.067.076a2.75 2.75 0 0 0-.794.33c-.28.17-.513.403-.808.7l-.052.05-3.125 3.126-.051.052c-.297.295-.53.528-.7.808a2.75 2.75 0 0 0-.33.794c-.076.319-.076.648-.076 1.067v5.494c0 .419 0 .748.076 1.066.067.281.178.55.33.795.17.28.403.512.7.808l.05.052 3.126 3.125.052.051c.295.297.528.53.808.7.246.151.514.263.794.33.319.076.648.076 1.067.076h5.494c.419 0 .748 0 1.066-.076a2.75 2.75 0 0 0 .795-.33c.28-.17.512-.404.808-.7l.052-.05 3.125-3.126.051-.052c.297-.296.53-.528.7-.808a2.75 2.75 0 0 0 .33-.795c.076-.318.076-.647.076-1.066V9.253c0-.419 0-.748-.076-1.067a2.75 2.75 0 0 0-.33-.794c-.17-.28-.404-.513-.7-.808l-.05-.052-3.126-3.125-.052-.051c-.296-.297-.528-.53-.808-.7a2.75 2.75 0 0 0-.795-.33c-.318-.076-.647-.076-1.066-.076H9.325Zm6.479 9.578a.25.25 0 0 1 0 .344l-2.36 2.49a.25.25 0 0 1-.43-.172v-.99a.75.75 0 0 0-.75-.75H9a.25.25 0 0 1-.25-.25v-1a.25.25 0 0 1 .25-.25h3.263a.75.75 0 0 0 .75-.75v-.99a.25.25 0 0 1 .432-.172l2.359 2.49Zm1.089 1.376a1.75 1.75 0 0 0 0-2.408l-2.36-2.49c-1.087-1.148-3.02-.378-3.02 1.204v.24H9a1.75 1.75 0 0 0-1.75 1.75v1c0 .966.784 1.75 1.75 1.75h2.513v.24c0 1.582 1.933 2.352 3.02 1.204l2.36-2.49Z" fill="#151E28"/></svg>