<svg viewBox="0 0 24 24" fill="none" xmlns="http://www.w3.org/2000/svg"><path fill-rule="evenodd" clip-rule="evenodd" d="M9.4 2.25h-.033c-1.092 0-1.958 0-2.655.057-.714.058-1.317.18-1.868.46a4.75 4.75 0 0 0-2.076 2.077c-.281.55-.403 1.154-.461 1.868-.057.697-.057 1.563-.057 2.655v5.266c0 1.092 0 1.958.057 2.655.058.714.18 1.317.46 1.869a4.75 4.75 0 0 0 2.077 2.075c.55.281 1.154.403 1.868.461.697.057 1.563.057 2.655.057h5.266c1.092 0 1.958 0 2.655-.057.714-.058 1.317-.18 1.869-.46a4.75 4.75 0 0 0 2.075-2.076c.281-.552.403-1.155.461-1.869.057-.697.057-1.563.057-2.655V9.367c0-1.092 0-1.958-.057-2.655-.058-.714-.18-1.317-.46-1.868a4.75 4.75 0 0 0-2.076-2.076c-.552-.281-1.155-.403-1.869-.461-.697-.057-1.563-.057-2.655-.057H9.4Zm5.558 11.965a.25.25 0 0 1-.243.243l-3.43.093a.25.25 0 0 1-.183-.427l.7-.7a.75.75 0 0 0 0-1.06l-2.307-2.308a.25.25 0 0 1 0-.354l.707-.707a.25.25 0 0 1 .354 0l2.307 2.308a.75.75 0 0 0 1.06 0l.7-.7a.25.25 0 0 1 .428.183l-.093 3.429Zm-.203 1.743a1.75 1.75 0 0 0 1.702-1.703l.093-3.429c.043-1.581-1.868-2.403-2.987-1.285l-.17.17-1.777-1.777a1.75 1.75 0 0 0-2.475 0l-.707.708a1.75 1.75 0 0 0 0 2.474l1.777 1.777-.17.17c-1.118 1.12-.296 3.03 1.285 2.987l3.43-.092Z" fill="#151E28"/></svg>