<svg viewBox="0 0 24 24" fill="none" xmlns="http://www.w3.org/2000/svg"><path fill-rule="evenodd" clip-rule="evenodd" d="M12.53 2.47a.75.75 0 0 0-1.06 0l-3 3a.75.75 0 0 0 1.06 1.06l1.72-1.72V9a.75.75 0 0 0 1.5 0V4.81l1.72 1.72a.75.75 0 1 0 1.06-1.06l-3-3Zm4.94 6a.75.75 0 0 0 0 1.06l1.72 1.72H15a.75.75 0 0 0 0 1.5h4.19l-1.72 1.72a.75.75 0 1 0 1.06 1.06l3-3a.75.75 0 0 0 0-1.06l-3-3a.75.75 0 0 0-1.06 0Zm-10.94 0a.75.75 0 0 0-1.06 0l-3 3a.75.75 0 0 0 0 1.06l3 3a.75.75 0 0 0 1.06-1.06l-1.72-1.72H9a.75.75 0 0 0 0-1.5H4.81l1.72-1.72a.75.75 0 0 0 0-1.06Zm6.22 10.72V15a.75.75 0 0 0-1.5 0v4.19l-1.72-1.72a.75.75 0 0 0-1.06 1.06l3 3a.75.75 0 0 0 1.06 0l3-3a.75.75 0 1 0-1.06-1.06l-1.72 1.72Z" fill="#151E28"/></svg>