<svg viewBox="0 0 24 24" fill="none" xmlns="http://www.w3.org/2000/svg"><path fill-rule="evenodd" clip-rule="evenodd" d="M12 1.25C6.063 1.25 1.25 6.063 1.25 12S6.063 22.75 12 22.75 22.75 17.937 22.75 12 17.937 1.25 12 1.25ZM8.196 12.172l2.36 2.49a.25.25 0 0 0 .43-.172v-.99a.75.75 0 0 1 .75-.75H13a.25.25 0 0 0 .25-.25v-1a.25.25 0 0 0-.25-.25h-1.263a.75.75 0 0 1-.75-.75v-.99a.25.25 0 0 0-.432-.172l-2.359 2.49a.25.25 0 0 0 0 .344Zm-1.089 1.032a1.75 1.75 0 0 1 0-2.408l2.36-2.49c1.087-1.148 3.02-.378 3.02 1.204v.24H13c.966 0 1.75.784 1.75 1.75v1A1.75 1.75 0 0 1 13 14.25h-.513v.24c0 1.582-1.933 2.352-3.02 1.204l-2.36-2.49ZM16 14.25a.75.75 0 0 1-.75-.75v-3a.75.75 0 0 1 1.5 0v3a.75.75 0 0 1-.75.75Z" fill="#151E28"/></svg>