<svg viewBox="0 0 24 24" fill="none" xmlns="http://www.w3.org/2000/svg"><path fill-rule="evenodd" clip-rule="evenodd" d="M9.4 2.25h-.033c-1.092 0-1.958 0-2.655.057-.714.058-1.317.18-1.868.46a4.75 4.75 0 0 0-2.076 2.077c-.281.55-.403 1.154-.461 1.868-.057.697-.057 1.563-.057 2.655v5.266c0 1.092 0 1.958.057 2.655.058.714.18 1.317.46 1.869a4.75 4.75 0 0 0 2.077 2.075c.55.281 1.154.403 1.868.461.697.057 1.563.057 2.655.057h5.266c1.092 0 1.958 0 2.655-.057.714-.058 1.317-.18 1.869-.46a4.75 4.75 0 0 0 2.075-2.076c.281-.552.403-1.155.461-1.869.057-.697.057-1.563.057-2.655V9.367c0-1.092 0-1.958-.057-2.655-.058-.714-.18-1.317-.46-1.868a4.75 4.75 0 0 0-2.076-2.076c-.552-.281-1.155-.403-1.869-.461-.697-.057-1.563-.057-2.655-.057H9.4Zm2.772 6.446a.25.25 0 0 0-.344 0l-2.49 2.36a.25.25 0 0 0 .172.43h.99a.75.75 0 0 1 .75.75V13.5c0 .138.112.25.25.25h1a.25.25 0 0 0 .25-.25v-1.263a.75.75 0 0 1 .75-.75h.99a.25.25 0 0 0 .172-.432l-2.49-2.359Zm-1.376-1.089a1.75 1.75 0 0 1 2.408 0l2.49 2.36c1.148 1.087.378 3.02-1.204 3.02h-.24v.513a1.75 1.75 0 0 1-1.75 1.75h-1a1.75 1.75 0 0 1-1.75-1.75v-.513h-.24c-1.582 0-2.352-1.933-1.204-3.02l2.49-2.36ZM9.75 16.5a.75.75 0 0 1 .75-.75h3a.75.75 0 0 1 0 1.5h-3a.75.75 0 0 1-.75-.75Z" fill="#151E28"/></svg>