<svg viewBox="0 0 24 24" fill="none" xmlns="http://www.w3.org/2000/svg"><path fill-rule="evenodd" clip-rule="evenodd" d="M12 1.25C6.063 1.25 1.25 6.063 1.25 12S6.063 22.75 12 22.75 22.75 17.937 22.75 12 17.937 1.25 12 1.25Zm-5.51 14.3a.75.75 0 0 1-.04-1.06l2.222-2.4a2.264 2.264 0 0 1 3.323 0 .764.764 0 0 0 1.121 0l2.167-2.34h-1.616a.75.75 0 0 1 0-1.5H17a.75.75 0 0 1 .75.75v3.6a.75.75 0 0 1-1.5 0v-1.686l-2.033 2.196a2.264 2.264 0 0 1-3.323 0 .764.764 0 0 0-1.121 0l-2.223 2.4a.75.75 0 0 1-1.06.04Z" fill="#151E28"/></svg>