<svg viewBox="0 0 24 24" fill="none" xmlns="http://www.w3.org/2000/svg"><path fill-rule="evenodd" clip-rule="evenodd" d="M9.4 2.25h-.033c-1.092 0-1.958 0-2.655.057-.714.058-1.317.18-1.868.46a4.75 4.75 0 0 0-2.076 2.077c-.281.55-.403 1.154-.461 1.868-.057.697-.057 1.563-.057 2.655v5.266c0 1.092 0 1.958.057 2.655.058.714.18 1.317.46 1.869a4.75 4.75 0 0 0 2.077 2.075c.55.281 1.154.403 1.868.461.697.057 1.563.057 2.655.057h5.266c1.092 0 1.958 0 2.655-.057.714-.058 1.317-.18 1.869-.46a4.75 4.75 0 0 0 2.075-2.076c.281-.552.403-1.155.461-1.869.057-.697.057-1.563.057-2.655V9.367c0-1.092 0-1.958-.057-2.655-.058-.714-.18-1.317-.46-1.868a4.75 4.75 0 0 0-2.076-2.076c-.552-.281-1.155-.403-1.869-.461-.697-.057-1.563-.057-2.655-.057H9.4Zm6.6 14.5h-3a.75.75 0 0 1 0-1.5h1.19l-1.72-1.72a.75.75 0 1 1 1.06-1.06l1.72 1.72V13a.75.75 0 0 1 1.5 0v3a.75.75 0 0 1-.75.75Zm-5-8a.75.75 0 0 0 0-1.5H8a.75.75 0 0 0-.75.75v3a.75.75 0 0 0 1.5 0V9.81l1.72 1.72a.75.75 0 1 0 1.06-1.06L9.81 8.75H11Z" fill="#151E28"/></svg>