<svg viewBox="0 0 24 24" fill="none" xmlns="http://www.w3.org/2000/svg"><path fill-rule="evenodd" clip-rule="evenodd" d="M9.325 2.25h-.072c-.419 0-.748 0-1.067.076a2.75 2.75 0 0 0-.794.33c-.28.17-.513.403-.808.7l-.052.05-3.125 3.126-.051.052c-.297.295-.53.528-.7.808a2.75 2.75 0 0 0-.33.794c-.076.319-.076.648-.076 1.067v5.494c0 .419 0 .748.076 1.066.067.281.178.55.33.795.17.28.403.512.7.808l.05.052 3.126 3.125.052.051c.295.297.528.53.808.7.246.151.514.263.794.33.319.076.648.076 1.067.076h5.494c.419 0 .748 0 1.066-.076a2.75 2.75 0 0 0 .795-.33c.28-.17.512-.404.808-.7l.052-.05 3.125-3.126.051-.052c.297-.296.53-.528.7-.808a2.75 2.75 0 0 0 .33-.795c.076-.318.076-.647.076-1.066V9.253c0-.419 0-.748-.076-1.067a2.75 2.75 0 0 0-.33-.794c-.17-.28-.404-.513-.7-.808l-.05-.052-3.126-3.125-.052-.051c-.296-.297-.528-.53-.808-.7a2.75 2.75 0 0 0-.795-.33c-.318-.076-.647-.076-1.066-.076H9.325Zm.675 12a.25.25 0 0 1-.25-.25v-3.476a.25.25 0 0 1 .432-.172l.636.676a.75.75 0 0 0 1.077.017l.893-.893a.25.25 0 0 1 .353 0l.707.707a.25.25 0 0 1 0 .353l-.893.893a.75.75 0 0 0 .017 1.077l.676.636a.25.25 0 0 1-.171.432H10ZM8.25 14c0 .966.784 1.75 1.75 1.75h3.476c1.586 0 2.354-1.94 1.2-3.025l-.113-.106.346-.346a1.75 1.75 0 0 0 0-2.475l-.707-.707a1.75 1.75 0 0 0-2.475 0l-.346.346-.106-.112C10.189 8.17 8.25 8.938 8.25 10.524V14Zm5.598-7.03a.75.75 0 0 0 0 1.06l2.122 2.122a.75.75 0 1 0 1.06-1.061L14.91 6.97a.75.75 0 0 0-1.06 0Z" fill="#151E28"/></svg>