<svg viewBox="0 0 24 24" fill="none" xmlns="http://www.w3.org/2000/svg"><path fill-rule="evenodd" clip-rule="evenodd" d="M9.325 2.25h-.072c-.419 0-.748 0-1.067.076a2.75 2.75 0 0 0-.794.33c-.28.17-.513.403-.808.7l-.052.05-3.125 3.126-.051.052c-.297.295-.53.528-.7.808a2.75 2.75 0 0 0-.33.794c-.076.319-.076.648-.076 1.067v5.494c0 .419 0 .748.076 1.066.067.281.178.55.33.795.17.28.403.512.7.808l.05.052 3.126 3.125.052.051c.295.297.528.53.808.7.246.151.514.263.794.33.319.076.648.076 1.067.076h5.494c.419 0 .748 0 1.066-.076a2.75 2.75 0 0 0 .795-.33c.28-.17.512-.404.808-.7l.052-.05 3.125-3.126.051-.052c.297-.296.53-.528.7-.808a2.75 2.75 0 0 0 .33-.795c.076-.318.076-.647.076-1.066V9.253c0-.419 0-.748-.076-1.067a2.75 2.75 0 0 0-.33-.794c-.17-.28-.404-.513-.7-.808l-.05-.052-3.126-3.125-.052-.051c-.296-.297-.528-.53-.808-.7a2.75 2.75 0 0 0-.795-.33c-.318-.076-.647-.076-1.066-.076H9.325Zm.197 6.595a.75.75 0 1 0-.574-1.386 2.75 2.75 0 0 0-1.489 1.489c-.12.29-.167.59-.188.907-.021.304-.021.675-.021 1.12v1.855c0 .535 0 .98.03 1.345.03.38.098.736.27 1.074a2.75 2.75 0 0 0 1.202 1.201c.337.172.693.24 1.073.27.365.03.81.03 1.345.03h1.855c.445 0 .816 0 1.12-.02.318-.022.617-.069.907-.19a2.75 2.75 0 0 0 1.489-1.487.75.75 0 1 0-1.386-.575 1.25 1.25 0 0 1-.677.677c-.077.032-.194.061-.435.078-.247.017-.567.017-1.043.017h-1.8c-.572 0-.957 0-1.253-.025-.287-.023-.424-.065-.514-.111a1.25 1.25 0 0 1-.547-.546c-.046-.091-.088-.228-.111-.515-.024-.296-.025-.68-.025-1.253V11c0-.476 0-.796.017-1.043.017-.24.046-.358.078-.435.127-.307.37-.55.677-.677ZM15.15 12a.75.75 0 0 1-.75.75H12a.75.75 0 0 1-.75-.75V9.6a.75.75 0 0 1 1.5 0v.59l2.72-2.72a.75.75 0 1 1 1.06 1.06l-2.72 2.72h.59a.75.75 0 0 1 .75.75Z" fill="#151E28"/></svg>