<svg viewBox="0 0 24 24" fill="none" xmlns="http://www.w3.org/2000/svg"><path fill-rule="evenodd" clip-rule="evenodd" d="M14.47 19.53a.75.75 0 0 0 1.06 0l5-5a.75.75 0 0 0-1.06-1.06l-3.72 3.72V9.366c0-1.092 0-1.958-.057-2.655-.058-.714-.18-1.317-.46-1.868a4.75 4.75 0 0 0-2.077-2.076c-.55-.281-1.154-.403-1.868-.46-.697-.058-1.563-.058-2.655-.058H4a.75.75 0 0 0 0 1.5h4.6c1.132 0 1.937 0 2.566.052.62.05 1.005.147 1.31.302a3.25 3.25 0 0 1 1.42 1.42c.155.305.251.69.302 1.31.051.63.052 1.434.052 2.566v7.79l-3.72-3.72a.75.75 0 1 0-1.06 1.06l5 5Z" fill="#151E28"/></svg>