<svg viewBox="0 0 24 24" fill="none" xmlns="http://www.w3.org/2000/svg"><path fill-rule="evenodd" clip-rule="evenodd" d="M9.4 2.25h-.033c-1.092 0-1.958 0-2.655.057-.714.058-1.317.18-1.868.46a4.75 4.75 0 0 0-2.076 2.077c-.281.55-.403 1.154-.461 1.868-.057.697-.057 1.563-.057 2.655v5.266c0 1.092 0 1.958.057 2.655.058.714.18 1.317.46 1.869a4.75 4.75 0 0 0 2.077 2.075c.55.281 1.154.403 1.868.461.697.057 1.563.057 2.655.057h5.266c1.092 0 1.958 0 2.655-.057.714-.058 1.317-.18 1.869-.46a4.75 4.75 0 0 0 2.075-2.076c.281-.552.403-1.155.461-1.869.057-.697.057-1.563.057-2.655V9.367c0-1.092 0-1.958-.057-2.655-.058-.714-.18-1.317-.46-1.868a4.75 4.75 0 0 0-2.076-2.076c-.552-.281-1.155-.403-1.869-.461-.697-.057-1.563-.057-2.655-.057H9.4Zm2.6 8.5a1.25 1.25 0 1 0 0 2.5 1.25 1.25 0 0 0 0-2.5Zm1.36-1.14a2.75 2.75 0 1 0 .493 4.423A2.25 2.25 0 0 0 17.75 12.5v-.501a5.75 5.75 0 1 0-3.195 5.152.75.75 0 0 0-.668-1.343A4.25 4.25 0 1 1 16.25 12v.5a.75.75 0 0 1-1.5 0V10a.75.75 0 0 0-1.39-.39Z" fill="#151E28"/></svg>