<svg viewBox="0 0 24 24" fill="none" xmlns="http://www.w3.org/2000/svg"><path fill-rule="evenodd" clip-rule="evenodd" d="M9.75 6.25h4.5V6a2.25 2.25 0 1 0-4.5 0v.25Zm6 .013V6a3.75 3.75 0 1 0-7.5 0v.263c-.296.007-.567.02-.815.04-.674.053-1.246.164-1.776.42a4.75 4.75 0 0 0-2.054 1.912c-.293.51-.445 1.073-.546 1.741-.099.652-.156 1.463-.23 2.483l-.002.032-.085 1.2-.003.034c-.083 1.162-.149 2.082-.14 2.824.01.757.097 1.401.362 1.994a4.75 4.75 0 0 0 2.088 2.242c.573.307 1.209.44 1.964.503.739.062 1.66.062 2.826.062h4.322c1.165 0 2.087 0 2.827-.062.754-.063 1.39-.196 1.963-.503a4.75 4.75 0 0 0 2.088-2.242c.265-.593.352-1.237.361-1.994.01-.742-.056-1.662-.14-2.824l-.002-.034-.085-1.2-.003-.032c-.072-1.02-.13-1.83-.23-2.483-.1-.668-.252-1.23-.545-1.74a4.75 4.75 0 0 0-2.054-1.913c-.53-.256-1.102-.367-1.776-.42-.248-.02-.519-.033-.815-.04ZM9.75 11a.75.75 0 0 0-1.5 0 3.75 3.75 0 1 0 7.5 0 .75.75 0 1 0-1.5 0 2.25 2.25 0 1 1-4.5 0Z" fill="#151E28"/></svg>