<svg viewBox="0 0 24 24" fill="none" xmlns="http://www.w3.org/2000/svg"><path fill-rule="evenodd" clip-rule="evenodd" d="M15.75 5c0-.69.56-1.25 1.25-1.25.387 0 .764.222 1.137.832.375.614.658 1.496.854 2.49.392 1.994.378 4.15.27 4.805a.75.75 0 1 0 1.479.246c.146-.874.14-3.217-.278-5.341-.21-1.065-.535-2.147-1.045-2.982-.513-.839-1.296-1.55-2.417-1.55A2.75 2.75 0 0 0 14.25 5c0 .257.024.596.049.953l.015.22c.031.454.061.962.061 1.491 0 1.077-.125 2.159-.546 3a.75.75 0 1 0 1.342.671c.579-1.158.704-2.523.704-3.67 0-.583-.033-1.132-.064-1.594l-.017-.243A13.502 13.502 0 0 1 15.75 5ZM9 21.75c4.26 0 7.991-2.268 10.05-5.66.44.407.88 1.072 1.239 2.147a.75.75 0 1 0 1.423-.474c-.537-1.609-1.31-2.654-2.252-3.243a3.83 3.83 0 0 0-.218-.126.759.759 0 0 0-.228-.113c-.812-.367-1.647-.394-2.387-.27-.862.143-1.63.495-2.171.798-.188-.55-.498-1.264-.989-1.895-.514-.66-1.257-1.268-2.29-1.45-1.028-.181-2.212.083-3.563.893a.75.75 0 1 0 .772 1.286c1.15-.69 1.966-.801 2.53-.702.342.06.64.206.901.415-1.966 2.388-4.882 4.06-7.89 4.35-.89.085-1.677.812-1.677 1.794v.5c0 .966.784 1.75 1.75 1.75h5Z" fill="#151E28"/></svg>