<svg viewBox="0 0 24 24" fill="none" xmlns="http://www.w3.org/2000/svg"><path fill-rule="evenodd" clip-rule="evenodd" d="M8.8 3.25h-.032c-.813 0-1.468 0-2 .043-.546.045-1.026.14-1.47.366a3.75 3.75 0 0 0-1.639 1.639c-.226.444-.32.924-.365 1.47-.044.531-.044 1.187-.044 2v2.599c-.17.042-.337.1-.498.183a2.75 2.75 0 0 0-1.202 1.2c-.172.338-.24.694-.27 1.074-.03.365-.03.81-.03 1.345V21a.75.75 0 0 0 1.5 0v-1.25h18.5V21a.75.75 0 0 0 1.5 0v-5.83c0-.535 0-.98-.03-1.345-.03-.38-.098-.736-.27-1.073a2.751 2.751 0 0 0-1.201-1.202 2.284 2.284 0 0 0-.499-.183V8.768c0-.813 0-1.469-.043-2-.045-.546-.14-1.026-.366-1.47a3.75 3.75 0 0 0-1.638-1.64c-.444-.226-.925-.32-1.471-.365-.531-.043-1.187-.043-2-.043H8.8Zm-3.63 8h-.42V8.8c0-.852 0-1.447.039-1.91.037-.453.106-.714.206-.911a2.25 2.25 0 0 1 .984-.984c.197-.1.458-.17.912-.207.463-.037 1.057-.038 1.91-.038h6.4c.852 0 1.446 0 1.909.038.453.037.714.107.912.207.423.216.767.56.983.984.1.197.17.458.207.912.038.462.038 1.057.038 1.909v2.45h-1.5v-.823c0-.393 0-.696-.053-.963a2.75 2.75 0 0 0-2.16-2.161c-.268-.053-.571-.053-.964-.053h-.146c-.393 0-.696 0-.963.053a2.748 2.748 0 0 0-1.464.81 2.748 2.748 0 0 0-1.463-.81c-.268-.053-.571-.053-.964-.053h-.146c-.393 0-.696 0-.963.053a2.75 2.75 0 0 0-2.161 2.16c-.053.268-.053.571-.053.964v.823H5.17Zm11.08-.75v.75h-3.5v-.81c0-.452.005-.586.024-.684a1.25 1.25 0 0 1 .982-.982c.103-.02.243-.024.744-.024.5 0 .641.004.744.024.496.099.883.486.982.982.02.103.024.243.024.744Zm-5 0v.75h-3.5v-.75c0-.5.004-.641.024-.744a1.25 1.25 0 0 1 .982-.982c.103-.02.243-.024.744-.024.5 0 .641.004.744.024.496.099.883.486.982.982.02.098.024.232.024.684v.06Z" fill="#151E28"/></svg>