<svg viewBox="0 0 24 24" fill="none" xmlns="http://www.w3.org/2000/svg"><path fill-rule="evenodd" clip-rule="evenodd" d="M8.78 3.642A6.25 6.25 0 0 1 18.25 9c0 2.622.53 3.959 1.103 4.934.135.23.255.418.36.584.35.55.537.845.537 1.482a.75.75 0 0 0 1.5 0c0-1.11-.457-1.816-.853-2.427-.088-.136-.174-.268-.25-.398-.427-.727-.897-1.797-.897-4.175A7.75 7.75 0 0 0 8.005 2.358a.75.75 0 1 0 .774 1.284ZM4.877 5.94 1.47 2.53a.75.75 0 0 1 1.06-1.06l20 20a.75.75 0 1 1-1.06 1.06l-3.78-3.78H5A2.75 2.75 0 0 1 2.25 16c0-1.11.457-1.816.853-2.427.088-.136.174-.268.25-.398.427-.727.897-1.797.897-4.175 0-1.086.224-2.121.628-3.061ZM8.92 19.294a.75.75 0 0 1 .957.457 2.251 2.251 0 0 0 4.244 0 .75.75 0 1 1 1.415.5 3.751 3.751 0 0 1-7.073 0 .75.75 0 0 1 .457-.957Z" fill="#151E28"/></svg>