<svg viewBox="0 0 24 24" fill="none" xmlns="http://www.w3.org/2000/svg"><path fill-rule="evenodd" clip-rule="evenodd" d="M15.15 4.08a.25.25 0 0 1 .237-.33H19c.69 0 1.25.56 1.25 1.25v1a.75.75 0 0 0 1.5 0V5A2.75 2.75 0 0 0 19 2.25h-3.613a1.75 1.75 0 0 0-1.66 2.303l.662 1.987-2.605 2.315-2.337-4.642a1.75 1.75 0 0 0-1.563-.963H5.5a.75.75 0 1 0 0 1.5h2.384a.25.25 0 0 1 .223.138l2.492 4.95a.716.716 0 0 0 .027.047L5.502 14.44a.75.75 0 0 0 .996 1.122l8.407-7.473 2.383 7.15a.75.75 0 0 0 1.424-.475L15.15 4.079ZM2.75 15A3.25 3.25 0 0 1 6 11.75a.75.75 0 0 0 0-1.5 4.75 4.75 0 0 0-.659 9.455A2.751 2.751 0 0 0 8 21.75h2a.75.75 0 0 0 .75-.75v-.25H12a.75.75 0 0 0 0-1.5h-1.25v-.5H12a.75.75 0 0 0 0-1.5h-1.25V17a.75.75 0 0 0-.75-.75H8a2.751 2.751 0 0 0-2.629 1.94A3.251 3.251 0 0 1 2.75 15Zm17.625-4.114a.75.75 0 1 0-.75 1.298 3.25 3.25 0 1 1-4.639 1.597.75.75 0 0 0-1.39-.562 4.75 4.75 0 1 0 6.78-2.333Z" fill="#151E28"/></svg>