<svg viewBox="0 0 24 24" fill="none" xmlns="http://www.w3.org/2000/svg"><path fill-rule="evenodd" clip-rule="evenodd" d="M4.25 5A2.75 2.75 0 0 1 7 2.25h10A2.75 2.75 0 0 1 19.75 5v12.83c0 .535 0 .98-.03 1.345-.03.38-.098.736-.27 1.073a2.751 2.751 0 0 1-1.201 1.202c-.338.172-.694.24-1.074.27-.365.03-.81.03-1.345.03H7.427c-.393 0-.696 0-.963-.053a2.75 2.75 0 0 1-2.161-2.16c-.053-.268-.053-.571-.053-.964v-.146c0-.134 0-.258.002-.373A.758.758 0 0 1 4.25 18V5ZM7.5 16.75h10.75v1.05c0 .572 0 .957-.025 1.252-.023.288-.065.425-.111.515a1.25 1.25 0 0 1-.547.547c-.09.046-.227.088-.515.111-.295.024-.68.025-1.252.025H7.5c-.5 0-.641-.004-.744-.024a1.25 1.25 0 0 1-.982-.982c-.02-.103-.024-.243-.024-.744 0-.5.004-.641.024-.744a1.25 1.25 0 0 1 .982-.982c.103-.02.243-.024.744-.024ZM8.25 7A.75.75 0 0 1 9 6.25h6a.75.75 0 0 1 0 1.5H9A.75.75 0 0 1 8.25 7Z" fill="#151E28"/></svg>