<svg viewBox="0 0 24 24" fill="none" xmlns="http://www.w3.org/2000/svg"><path fill-rule="evenodd" clip-rule="evenodd" d="M9.8 2.25h-.032c-.813 0-1.469 0-2 .043-.546.045-1.026.14-1.47.366a3.75 3.75 0 0 0-1.64 1.639c-.226.444-.32.924-.365 1.47-.043.531-.043 1.187-.043 2v11.158c0 .472 0 .878.03 1.197.028.318.095.692.335 1.003.317.411.8.66 1.32.68.393.014.736-.15 1.011-.31.277-.162.607-.398.991-.672l.029-.02 2.61-1.865c.72-.515.922-.643 1.117-.693.202-.051.412-.051.614 0 .195.05.396.178 1.117.693l2.61 1.864.029.02c.384.275.714.51.99.673.276.16.62.324 1.012.31a1.75 1.75 0 0 0 1.32-.68c.24-.311.307-.685.336-1.003.029-.32.029-.725.029-1.197V7.768c0-.813 0-1.469-.043-2-.045-.546-.14-1.026-.366-1.47a3.75 3.75 0 0 0-1.639-1.64c-.444-.226-.924-.32-1.47-.365-.531-.043-1.187-.043-2-.043H9.8Z" fill="#151E28"/></svg>