<svg viewBox="0 0 24 24" fill="none" xmlns="http://www.w3.org/2000/svg"><path fill-rule="evenodd" clip-rule="evenodd" d="M1.47 1.47a.75.75 0 0 1 1.06 0l20 20a.75.75 0 1 1-1.06 1.06l-1.853-1.853c-.05.155-.123.308-.232.449a1.75 1.75 0 0 1-1.32.68c-.393.014-.736-.15-1.011-.31-.277-.162-.607-.398-.991-.672l-.029-.02-2.61-1.865c-.72-.515-.922-.643-1.117-.693a1.249 1.249 0 0 0-.614 0c-.195.05-.396.178-1.117.693l-2.61 1.864-.029.02c-.384.275-.714.51-.99.673-.276.16-.62.324-1.012.31a1.75 1.75 0 0 1-1.32-.68c-.24-.311-.307-.685-.336-1.003-.029-.32-.029-.725-.029-1.197V7.74c0-.983 0-1.744.084-2.344v-.001L1.47 2.53a.75.75 0 0 1 0-1.06Zm8.27.78h4.492c.813 0 1.469 0 2 .043.546.045 1.026.14 1.47.366a3.75 3.75 0 0 1 1.64 1.639c.226.444.32.924.365 1.47.043.531.043 1.187.043 2V15a.75.75 0 0 1-1.5 0V7.8c0-.852 0-1.447-.038-1.91-.038-.453-.107-.714-.207-.911a2.25 2.25 0 0 0-.983-.984c-.198-.1-.459-.17-.913-.207-.462-.037-1.057-.038-1.909-.038H9.8c-1.06 0-1.713.002-2.196.07a.75.75 0 0 1-.208-1.486c.6-.084 1.36-.084 2.344-.084Z" fill="#151E28"/></svg>