<svg viewBox="0 0 24 24" fill="none" xmlns="http://www.w3.org/2000/svg"><path fill-rule="evenodd" clip-rule="evenodd" d="M16.2 1.75c.852 0 1.447 0 1.91.038.453.037.714.107.912.207.423.216.767.56.983.984.1.197.17.458.207.912.037.462.038 1.057.038 1.909V19a.75.75 0 0 0 1.5 0V5.768c0-.813 0-1.469-.043-2-.045-.546-.14-1.026-.366-1.47a3.75 3.75 0 0 0-1.639-1.64c-.444-.226-.924-.32-1.47-.365-.531-.043-1.187-.043-2-.043H9a.75.75 0 1 0 0 1.5h7.2Zm-7.432 1.5h4.464c.813 0 1.469 0 2 .043.546.045 1.026.14 1.47.366a3.75 3.75 0 0 1 1.64 1.639c.226.444.32.924.365 1.47.043.531.043 1.187.043 2v11.158c0 .472 0 .878-.03 1.197-.028.318-.095.692-.335 1.003a1.75 1.75 0 0 1-1.32.68c-.393.014-.736-.15-1.011-.31a14.391 14.391 0 0 1-.991-.672l-.029-.02-2.61-1.865c-.72-.515-.922-.643-1.117-.693a1.251 1.251 0 0 0-.614 0c-.195.05-.396.178-1.117.693l-2.61 1.864-.029.02c-.384.275-.714.51-.99.673-.276.16-.62.324-1.012.31a1.75 1.75 0 0 1-1.32-.68c-.24-.311-.307-.685-.336-1.003-.029-.32-.029-.725-.029-1.197V8.768c0-.813 0-1.469.043-2 .045-.546.14-1.026.366-1.47a3.75 3.75 0 0 1 1.639-1.64c.444-.226.924-.32 1.47-.365.531-.043 1.187-.043 2-.043Z" fill="#151E28"/></svg>