<svg viewBox="0 0 24 24" fill="none" xmlns="http://www.w3.org/2000/svg"><path fill-rule="evenodd" clip-rule="evenodd" d="M8.306 2.25H8.18c-.704 0-1.257-.001-1.745.191a2.75 2.75 0 0 0-1.103.795c-.337.403-.51.926-.733 1.595l-.04.12-1.265 3.795a.744.744 0 0 0-.044.271v8.813c0 .535 0 .98.03 1.345.03.38.098.736.27 1.074a2.75 2.75 0 0 0 1.2 1.201c.338.172.694.24 1.074.27.365.03.81.03 1.345.03h9.661c.535 0 .98 0 1.345-.03.38-.03.736-.098 1.073-.27a2.749 2.749 0 0 0 1.202-1.201c.172-.338.24-.694.27-1.074.03-.364.03-.81.03-1.344V9.018a.748.748 0 0 0-.044-.271L19.441 4.95l-.04-.12c-.222-.668-.396-1.192-.733-1.595a2.75 2.75 0 0 0-1.103-.795c-.488-.192-1.04-.192-1.745-.19H8.306Zm10.653 6-.941-2.825c-.283-.847-.37-1.071-.5-1.227a1.25 1.25 0 0 0-.502-.361c-.188-.074-.429-.087-1.322-.087H8.306c-.893 0-1.133.013-1.322.087a1.25 1.25 0 0 0-.501.361c-.13.156-.218.38-.5 1.227L5.04 8.25h13.918Z" fill="#151E28"/></svg>