<svg viewBox="0 0 24 24" fill="none" xmlns="http://www.w3.org/2000/svg"><path fill-rule="evenodd" clip-rule="evenodd" d="M10.98 2.25h-2.8c-.704-.001-1.257-.001-1.745.19a2.75 2.75 0 0 0-1.103.796c-.337.402-.51.926-.733 1.595l-.04.12-1.265 3.795a.746.746 0 0 0-.044.271v8.813c0 .534 0 .98.03 1.345.03.38.098.736.27 1.073a2.75 2.75 0 0 0 1.2 1.202c.338.172.694.239 1.074.27.364.03.81.03 1.344.03h9.661c.535 0 .98 0 1.345-.03.38-.031.736-.098 1.073-.27a2.75 2.75 0 0 0 1.202-1.202c.172-.337.24-.694.27-1.074.03-.364.03-.81.03-1.344V9.017a.753.753 0 0 0-.044-.271L19.44 4.951l-.04-.12c-.222-.669-.396-1.193-.733-1.595a2.75 2.75 0 0 0-1.103-.795c-.488-.192-1.04-.192-1.745-.191h-4.84Zm1.385 1.5h-.73l-.813 4.883a5.244 5.244 0 0 0-.072.863V14c0 .138.112.25.25.25h2a.25.25 0 0 0 .25-.25V9.496c0-.289-.024-.578-.071-.863l-.814-4.883Zm1.52 0 .75 4.5h4.324l-.941-2.825c-.283-.847-.37-1.072-.5-1.227a1.25 1.25 0 0 0-.502-.361c-.188-.075-.429-.087-1.322-.087h-1.808Zm-8.844 4.5h4.324l.75-4.5H8.306c-.893 0-1.133.012-1.322.087a1.25 1.25 0 0 0-.501.36c-.13.156-.218.38-.5 1.228L5.04 8.25Z" fill="#151E28"/></svg>