<svg viewBox="0 0 24 24" fill="none" xmlns="http://www.w3.org/2000/svg"><path fill-rule="evenodd" clip-rule="evenodd" d="M8.18 2.25h7.64c.704 0 1.257-.001 1.745.191a2.75 2.75 0 0 1 1.103.795c.337.403.51.927.733 1.595l.04.12 1.265 3.796a.735.735 0 0 1 .044.271v8.812c0 .535 0 .98-.03 1.345-.03.38-.098.736-.27 1.074a2.749 2.749 0 0 1-1.202 1.201c-.337.172-.694.24-1.073.27-.365.03-.81.03-1.345.03H7.17c-.535 0-.98 0-1.345-.03-.38-.03-.736-.098-1.074-.27a2.75 2.75 0 0 1-1.201-1.2c-.172-.338-.24-.694-.27-1.074-.03-.364-.03-.81-.03-1.344V9.017a.745.745 0 0 1 .044-.27L4.56 4.95l.04-.12c.222-.669.396-1.192.733-1.595a2.75 2.75 0 0 1 1.103-.795c.488-.192 1.04-.192 1.745-.19Zm3.07 1.5H8.306c-.893 0-1.133.013-1.322.087a1.25 1.25 0 0 0-.501.361c-.13.156-.218.38-.5 1.227L5.04 8.25h6.21v-4.5Zm1.5 4.5v-4.5h2.944c.893 0 1.134.013 1.322.087.195.076.367.2.501.361.13.156.218.38.5 1.227l.942 2.825H12.75Z" fill="#151E28"/></svg>