<svg viewBox="0 0 24 24" fill="none" xmlns="http://www.w3.org/2000/svg"><path fill-rule="evenodd" clip-rule="evenodd" d="M4.25 6A3.75 3.75 0 0 1 8 2.25a.75.75 0 0 1 0 1.5A2.25 2.25 0 0 0 5.75 6v2.93c0 .92-.46 1.778-1.225 2.288l-.861.574a.25.25 0 0 0 0 .416l.861.574A2.75 2.75 0 0 1 5.75 15.07V18A2.25 2.25 0 0 0 8 20.25a.75.75 0 1 1 0 1.5A3.75 3.75 0 0 1 4.25 18v-2.93a1.25 1.25 0 0 0-.557-1.04l-.861-.574a1.75 1.75 0 0 1 0-2.912l.861-.574a1.25 1.25 0 0 0 .557-1.04V6Zm11-3a.75.75 0 0 1 .75-.75A3.75 3.75 0 0 1 19.75 6v2.93c0 .418.209.808.556 1.04l.862.574a1.75 1.75 0 0 1 0 2.912l-.861.574a1.25 1.25 0 0 0-.557 1.04V18A3.75 3.75 0 0 1 16 21.75a.75.75 0 0 1 0-1.5A2.25 2.25 0 0 0 18.25 18v-2.93c0-.92.46-1.778 1.224-2.288l.862-.574a.25.25 0 0 0 0-.416l-.861-.574A2.75 2.75 0 0 1 18.25 8.93V6A2.25 2.25 0 0 0 16 3.75a.75.75 0 0 1-.75-.75Z" fill="#151E28"/></svg>