<svg viewBox="0 0 24 24" fill="none" xmlns="http://www.w3.org/2000/svg"><path fill-rule="evenodd" clip-rule="evenodd" d="M9.4 2.25h-.033c-1.092 0-1.958 0-2.655.057-.714.058-1.317.18-1.868.46a4.75 4.75 0 0 0-2.076 2.077c-.281.55-.403 1.154-.461 1.868-.057.697-.057 1.563-.057 2.655v5.266c0 1.092 0 1.958.057 2.655.058.714.18 1.317.46 1.869a4.75 4.75 0 0 0 2.077 2.075c.55.281 1.154.403 1.868.461.697.057 1.563.057 2.655.057h5.266c1.092 0 1.958 0 2.655-.057.714-.058 1.317-.18 1.869-.46a4.75 4.75 0 0 0 2.075-2.076c.281-.552.403-1.155.461-1.869.057-.697.057-1.563.057-2.655V9.367c0-1.092 0-1.958-.057-2.655-.058-.714-.18-1.317-.46-1.868a4.75 4.75 0 0 0-2.076-2.076c-.552-.281-1.155-.403-1.869-.461-.697-.057-1.563-.057-2.655-.057H9.4ZM8.206 9.333c0-1.135.904-2.083 2.054-2.083a.75.75 0 0 1 0 1.5.57.57 0 0 0-.554.583v1.302c0 .541-.265 1.053-.715 1.36L8.983 12l.008.005c.45.307.715.819.715 1.36v1.302a.57.57 0 0 0 .554.583.75.75 0 0 1 0 1.5c-1.15 0-2.054-.948-2.054-2.083v-1.302a.145.145 0 0 0-.06-.12l-.375-.255a1.2 1.2 0 0 1 0-1.98l.375-.255a.145.145 0 0 0 .06-.12V9.333ZM12.99 8a.75.75 0 0 1 .75-.75c1.15 0 2.054.948 2.054 2.083v1.302c0 .054.027.098.06.12l.375.255a1.2 1.2 0 0 1 0 1.98l-.375.255a.144.144 0 0 0-.06.12v1.302c0 1.135-.904 2.083-2.054 2.083a.75.75 0 0 1 0-1.5.57.57 0 0 0 .554-.583v-1.302c0-.541.265-1.053.715-1.36l.008-.005-.008-.005a1.644 1.644 0 0 1-.715-1.36V9.333a.57.57 0 0 0-.554-.583.75.75 0 0 1-.75-.75Z" fill="#151E28"/></svg>