<svg viewBox="0 0 24 24" fill="none" xmlns="http://www.w3.org/2000/svg"><path fill-rule="evenodd" clip-rule="evenodd" d="M13.117 2.479a2.75 2.75 0 0 0-2.234 0c-.485.216-.844.614-1.167 1.071-.322.454-.677 1.068-1.115 1.825l-.02.033-5.45 9.413-.018.033c-.44.76-.797 1.375-1.03 1.882-.237.51-.404 1.02-.35 1.55a2.75 2.75 0 0 0 1.119 1.938c.43.313.956.424 1.515.475.556.051 1.267.051 2.145.051h10.976c.878 0 1.59 0 2.145-.051.56-.051 1.085-.162 1.515-.475a2.75 2.75 0 0 0 1.118-1.939c.055-.529-.112-1.04-.348-1.55-.234-.506-.59-1.121-1.03-1.881l-.02-.033-5.45-9.413-.019-.033c-.438-.758-.793-1.37-1.114-1.825-.324-.457-.683-.855-1.168-1.071Zm-2.202 8.233a.75.75 0 0 1-.405.98c-1.105.46-1.76 1.364-1.76 2.308 0 .944.655 1.848 1.76 2.308a.75.75 0 1 1-.576 1.384C8.406 17.057 7.25 15.685 7.25 14s1.156-3.057 2.684-3.693a.75.75 0 0 1 .98.405Zm2.17 0a.75.75 0 0 1 .98-.405c1.53.636 2.685 2.008 2.685 3.693s-1.156 3.057-2.684 3.692a.75.75 0 0 1-.576-1.384c1.105-.46 1.76-1.364 1.76-2.308 0-.944-.655-1.848-1.76-2.307a.75.75 0 0 1-.405-.981Z" fill="#151E28"/></svg>