<svg viewBox="0 0 24 24" fill="none" xmlns="http://www.w3.org/2000/svg"><path fill-rule="evenodd" clip-rule="evenodd" d="M12 2.25c-5.385 0-9.75 4.365-9.75 9.75s4.365 9.75 9.75 9.75 9.75-4.365 9.75-9.75S17.385 2.25 12 2.25ZM8.206 9.333c0-1.135.904-2.083 2.054-2.083a.75.75 0 0 1 0 1.5.57.57 0 0 0-.554.583v1.302c0 .541-.265 1.053-.715 1.36L8.983 12l.008.005c.45.307.715.819.715 1.36v1.302a.57.57 0 0 0 .554.583.75.75 0 0 1 0 1.5c-1.15 0-2.054-.948-2.054-2.083v-1.302a.145.145 0 0 0-.06-.12l-.375-.255a1.2 1.2 0 0 1 0-1.98l.375-.255a.145.145 0 0 0 .06-.12V9.333ZM12.99 8a.75.75 0 0 1 .75-.75c1.15 0 2.054.948 2.054 2.083v1.302c0 .054.027.098.06.12l.375.255a1.2 1.2 0 0 1 0 1.98l-.375.255a.144.144 0 0 0-.06.12v1.302c0 1.135-.904 2.083-2.054 2.083a.75.75 0 0 1 0-1.5.57.57 0 0 0 .554-.583v-1.302c0-.541.265-1.053.715-1.36l.008-.005-.008-.005a1.644 1.644 0 0 1-.715-1.36V9.333a.57.57 0 0 0-.554-.583.75.75 0 0 1-.75-.75Z" fill="#151E28"/></svg>