<svg viewBox="0 0 24 24" fill="none" xmlns="http://www.w3.org/2000/svg"><path fill-rule="evenodd" clip-rule="evenodd" d="M8.672 3.602a.75.75 0 0 1-.338 1.005A8.25 8.25 0 0 0 3.75 12a8.25 8.25 0 0 0 4.584 7.393.75.75 0 0 1-.668 1.343A9.75 9.75 0 0 1 2.25 12a9.75 9.75 0 0 1 5.416-8.736.75.75 0 0 1 1.006.338Zm6.656 0a.75.75 0 0 1 1.006-.338A9.75 9.75 0 0 1 21.75 12a9.75 9.75 0 0 1-5.416 8.736.75.75 0 1 1-.668-1.343A8.25 8.25 0 0 0 20.25 12a8.25 8.25 0 0 0-4.584-7.393.75.75 0 0 1-.338-1.005Z" fill="#151E28"/></svg>