<svg viewBox="0 0 24 24" fill="none" xmlns="http://www.w3.org/2000/svg"><path fill-rule="evenodd" clip-rule="evenodd" d="M12 2.25c-5.385 0-9.75 4.365-9.75 9.75s4.365 9.75 9.75 9.75 9.75-4.365 9.75-9.75S17.385 2.25 12 2.25ZM7.25 10A2.75 2.75 0 0 1 10 7.25a.75.75 0 0 1 0 1.5c-.69 0-1.25.56-1.25 1.25v4c0 .69.56 1.25 1.25 1.25a.75.75 0 0 1 0 1.5A2.75 2.75 0 0 1 7.25 14v-4Zm6-2a.75.75 0 0 1 .75-.75A2.75 2.75 0 0 1 16.75 10v4A2.75 2.75 0 0 1 14 16.75a.75.75 0 0 1 0-1.5c.69 0 1.25-.56 1.25-1.25v-4c0-.69-.56-1.25-1.25-1.25a.75.75 0 0 1-.75-.75Z" fill="#151E28"/></svg>