<svg viewBox="0 0 24 24" fill="none" xmlns="http://www.w3.org/2000/svg"><path fill-rule="evenodd" clip-rule="evenodd" d="M12 2.25c-5.385 0-9.75 4.365-9.75 9.75s4.365 9.75 9.75 9.75 9.75-4.365 9.75-9.75S17.385 2.25 12 2.25Zm-1.085 6.462a.75.75 0 0 1-.405.98c-1.105.46-1.76 1.364-1.76 2.308 0 .944.655 1.848 1.76 2.307a.75.75 0 0 1-.576 1.386C8.406 15.057 7.25 13.684 7.25 12s1.156-3.057 2.684-3.692a.75.75 0 0 1 .98.404Zm2.17 0a.75.75 0 0 1 .98-.404c1.53.635 2.685 2.007 2.685 3.692s-1.156 3.057-2.684 3.693a.75.75 0 0 1-.576-1.386c1.105-.46 1.76-1.363 1.76-2.307s-.655-1.848-1.76-2.308a.75.75 0 0 1-.405-.98Z" fill="#151E28"/></svg>