<svg viewBox="0 0 24 24" fill="none" xmlns="http://www.w3.org/2000/svg"><path fill-rule="evenodd" clip-rule="evenodd" d="M9.4 2.25h-.033c-1.092 0-1.958 0-2.655.057-.714.058-1.317.18-1.868.46a4.75 4.75 0 0 0-2.076 2.077c-.281.55-.403 1.154-.461 1.868-.057.697-.057 1.563-.057 2.655v5.266c0 1.092 0 1.958.057 2.655.058.714.18 1.317.46 1.869a4.75 4.75 0 0 0 2.077 2.075c.55.281 1.154.403 1.868.461.697.057 1.563.057 2.655.057h5.266c1.092 0 1.958 0 2.655-.057.714-.058 1.317-.18 1.869-.46a4.75 4.75 0 0 0 2.075-2.076c.281-.552.403-1.155.461-1.869.057-.697.057-1.563.057-2.655V9.367c0-1.092 0-1.958-.057-2.655-.058-.714-.18-1.317-.46-1.868a4.75 4.75 0 0 0-2.076-2.076c-.552-.281-1.155-.403-1.869-.461-.697-.057-1.563-.057-2.655-.057H9.4Zm1.515 6.462a.75.75 0 0 1-.405.98c-1.105.46-1.76 1.364-1.76 2.308 0 .944.655 1.848 1.76 2.307a.75.75 0 0 1-.576 1.386C8.406 15.057 7.25 13.684 7.25 12s1.156-3.057 2.684-3.692a.75.75 0 0 1 .98.404Zm2.17 0a.75.75 0 0 1 .98-.404c1.53.635 2.685 2.007 2.685 3.692s-1.156 3.057-2.684 3.693a.75.75 0 0 1-.576-1.386c1.105-.46 1.76-1.363 1.76-2.307s-.655-1.848-1.76-2.308a.75.75 0 0 1-.405-.98Z" fill="#151E28"/></svg>