<svg viewBox="0 0 24 24" fill="none" xmlns="http://www.w3.org/2000/svg"><path fill-rule="evenodd" clip-rule="evenodd" d="M8.837 5.25a3.251 3.251 0 0 1 6.326 0H8.837Zm-1.528 0a4.751 4.751 0 0 1 9.382 0h3.096c.196 0 .347 0 .483.013a2.75 2.75 0 0 1 2.467 2.467c.013.136.013.287.013.483v.074c0 .196 0 .347-.013.483a2.75 2.75 0 0 1-2.467 2.467 5.122 5.122 0 0 1-.483.013H16.75V11a.747.747 0 0 0-.75-.75.748.748 0 0 0-.75.75v.25h-6.5V11a.747.747 0 0 0-.75-.75.748.748 0 0 0-.75.75v.25H4.213c-.196 0-.347 0-.483-.013A2.75 2.75 0 0 1 1.263 8.77c-.013-.136-.013-.287-.013-.483v-.074c0-.196 0-.347.013-.483A2.75 2.75 0 0 1 3.73 5.263c.136-.013.287-.013.483-.013H7.31Zm7.941 7.5h-6.5V13a.747.747 0 0 1-.75.75.747.747 0 0 1-.75-.75v-.25H3a.75.75 0 0 0-.75.75v1.133c0 1.092 0 1.958.057 2.655.058.714.18 1.317.46 1.869a4.75 4.75 0 0 0 2.077 2.075c.55.281 1.154.403 1.868.461.697.057 1.563.057 2.655.057h5.266c1.092 0 1.958 0 2.655-.057.714-.058 1.317-.18 1.869-.46a4.75 4.75 0 0 0 2.075-2.076c.281-.552.403-1.155.461-1.869.057-.697.057-1.563.057-2.655V13.5a.75.75 0 0 0-.75-.75h-4.25V13a.747.747 0 0 1-.75.75.747.747 0 0 1-.75-.75v-.25Z" fill="#151E28"/></svg>