<svg viewBox="0 0 24 24" fill="none" xmlns="http://www.w3.org/2000/svg"><path fill-rule="evenodd" clip-rule="evenodd" d="M8.837 5.25a3.251 3.251 0 0 1 6.326 0H8.837Zm-1.528 0a4.751 4.751 0 0 1 9.382 0H19A3.75 3.75 0 0 1 22.75 9a2.25 2.25 0 0 1-2.25 2.25h-3.75V11a.747.747 0 0 0-.75-.75.748.748 0 0 0-.75.75v.25h-6.5V11a.747.747 0 0 0-.75-.75.748.748 0 0 0-.75.75v.25H3.5A2.25 2.25 0 0 1 1.25 9 3.75 3.75 0 0 1 5 5.25h2.309Zm7.941 7.5h-6.5V13a.747.747 0 0 1-.75.75.747.747 0 0 1-.75-.75v-.25H3a.75.75 0 0 0-.75.75v1.133c0 1.092 0 1.958.057 2.655.058.714.18 1.317.46 1.869a4.75 4.75 0 0 0 2.077 2.075c.55.281 1.154.403 1.868.461.697.057 1.563.057 2.655.057h5.266c1.092 0 1.958 0 2.655-.057.714-.058 1.317-.18 1.869-.46a4.75 4.75 0 0 0 2.075-2.076c.281-.552.403-1.155.461-1.869.057-.697.057-1.563.057-2.655V13.5a.75.75 0 0 0-.75-.75h-4.25V13a.747.747 0 0 1-.75.75.747.747 0 0 1-.75-.75v-.25Z" fill="#151E28"/></svg>