<svg viewBox="0 0 24 24" fill="none" xmlns="http://www.w3.org/2000/svg"><path fill-rule="evenodd" clip-rule="evenodd" d="M18.53 1.47a.75.75 0 0 1 0 1.06l-1.727 1.727A6.729 6.729 0 0 1 18.75 9v.598c.59-.397.82-.57.988-.775a2.25 2.25 0 0 0 .415-.775c.09-.294.097-.631.097-1.617V6a.75.75 0 0 1 1.5 0v.541c0 .833 0 1.409-.162 1.943a3.75 3.75 0 0 1-.691 1.292c-.355.431-.834.75-1.526 1.212l-.092.061-.529.352V14.6l.529.352.092.061c.692.462 1.171.78 1.526 1.212.313.381.548.82.691 1.292.162.535.162 1.11.162 1.942V20a.75.75 0 0 1-1.5 0v-.431c0-.986-.008-1.323-.097-1.617a2.25 2.25 0 0 0-.415-.775c-.17-.207-.401-.38-1-.782a6.75 6.75 0 0 1-13.477 0c-.598.402-.83.575-1 .782a2.25 2.25 0 0 0-.414.775c-.09.294-.097.631-.097 1.617V20a.75.75 0 0 1-1.5 0v-.541c0-.833 0-1.409.162-1.943.143-.472.378-.91.691-1.291.355-.432.834-.751 1.526-1.213l.092-.061.529-.352V11.4l-.529-.352-.092-.061c-.692-.462-1.171-.78-1.526-1.212a3.75 3.75 0 0 1-.691-1.292c-.163-.534-.162-1.11-.162-1.942V6a.75.75 0 0 1 1.5 0v.431c0 .986.008 1.323.097 1.617.086.283.227.547.415.775.169.206.398.378.988.775V9c0-1.849.743-3.524 1.947-4.743L5.47 2.53a.75.75 0 0 1 1.06-1.06l1.84 1.839A6.719 6.719 0 0 1 12 2.25a6.71 6.71 0 0 1 3.63 1.059l1.84-1.84a.75.75 0 0 1 1.06 0ZM17.25 9v1.25H6.75V9a5.25 5.25 0 1 1 10.5 0ZM12 13.25a.75.75 0 0 1 .75.75v5a.75.75 0 0 1-1.5 0v-5a.75.75 0 0 1 .75-.75Z" fill="#151E28"/></svg>