<svg viewBox="0 0 24 24" fill="none" xmlns="http://www.w3.org/2000/svg"><path fill-rule="evenodd" clip-rule="evenodd" d="M8 .25a.75.75 0 0 1 .75.75v1.25h6.5V1a.75.75 0 0 1 1.5 0v1.275c.19.008.369.018.538.032.714.058 1.317.18 1.869.46a4.75 4.75 0 0 1 2.075 2.077c.281.55.403 1.154.461 1.868.057.697.057 1.563.057 2.655v5.266c0 1.092 0 1.958-.057 2.655-.058.714-.18 1.317-.46 1.869a4.75 4.75 0 0 1-2.076 2.075c-.552.281-1.155.403-1.869.461-.697.057-1.563.057-2.655.057H9.367c-1.092 0-1.958 0-2.655-.057-.714-.058-1.317-.18-1.868-.46a4.75 4.75 0 0 1-2.076-2.076c-.281-.552-.403-1.155-.461-1.869-.057-.697-.057-1.563-.057-2.655V8.49c0-1.382 0-2.263.246-3a4.75 4.75 0 0 1 2.995-2.994c.488-.163 1.04-.218 1.759-.237V1A.75.75 0 0 1 8 .25Zm5 8a.75.75 0 0 0-.75.75v3a.75.75 0 0 0 .75.75h1.5a.75.75 0 1 1 0 1.5H13a.75.75 0 0 0 0 1.5h1.5a2.25 2.25 0 1 0 0-4.5h-.75v-1.5H16a.75.75 0 0 0 0-1.5h-3Zm-2.713.057A.75.75 0 0 1 10.75 9v6a.75.75 0 0 1-1.5 0v-4.19l-.72.72a.75.75 0 0 1-1.06-1.06l2-2a.75.75 0 0 1 .817-.163Z" fill="#151E28"/></svg>