<svg viewBox="0 0 24 24" fill="none" xmlns="http://www.w3.org/2000/svg"><path fill-rule="evenodd" clip-rule="evenodd" d="M8.75 1a.75.75 0 0 0-1.5 0v1.26c-.72.018-1.271.073-1.76.236A4.75 4.75 0 0 0 2.497 5.49c-.214.64-.242 1.39-.246 2.484a.757.757 0 0 0 0 .048v6.611c0 1.092 0 1.958.057 2.655.058.714.18 1.317.46 1.869a4.75 4.75 0 0 0 2.077 2.075c.55.281 1.154.403 1.868.461.697.057 1.563.057 2.655.057h5.265c1.092 0 1.958 0 2.655-.057.714-.058 1.317-.18 1.869-.46a4.75 4.75 0 0 0 2.075-2.076c.281-.552.403-1.155.461-1.869.057-.697.057-1.563.057-2.655V9.367c0-.468 0-.895-.004-1.285a.768.768 0 0 0-.003-.185 18.455 18.455 0 0 0-.05-1.185c-.058-.714-.18-1.317-.46-1.868a4.75 4.75 0 0 0-2.076-2.076c-.552-.281-1.155-.403-1.869-.461a13.61 13.61 0 0 0-.538-.032V1a.75.75 0 1 0-1.5 0v1.25h-6.5V1Zm11.474 6.25a11.772 11.772 0 0 0-.026-.416c-.05-.62-.147-1.005-.302-1.31a3.25 3.25 0 0 0-1.42-1.42c-.305-.155-.69-.251-1.31-.302-.13-.01-.269-.02-.416-.026V4a.75.75 0 1 1-1.5 0v-.25h-6.5V4a.75.75 0 0 1-1.5 0v-.24c-.626.017-.983.058-1.283.158a3.25 3.25 0 0 0-2.048 2.05c-.101.3-.142.656-.158 1.282h16.463ZM16 13a1 1 0 1 0 0-2 1 1 0 0 0 0 2Zm-7 3a1 1 0 1 1-2 0 1 1 0 0 1 2 0Zm-1-4.75a.75.75 0 0 0 0 1.5h4a.75.75 0 0 0 0-1.5H8Zm4 4a.75.75 0 0 0 0 1.5h4a.75.75 0 0 0 0-1.5h-4Z" fill="#151E28"/></svg>