<svg viewBox="0 0 24 24" fill="none" xmlns="http://www.w3.org/2000/svg"><path fill-rule="evenodd" clip-rule="evenodd" d="M2.53 1.47a.75.75 0 0 0-1.06 1.06l3.28 3.282a5.784 5.784 0 0 0-3.5 5.314v2.652c.001 1.251.014 2.033.165 2.706a6.75 6.75 0 0 0 5.101 5.1c.734.166 1.598.166 3.058.166h4.852c1.46 0 2.324 0 3.058-.165a6.745 6.745 0 0 0 2.146-.894l1.84 1.84a.75.75 0 1 0 1.06-1.061l-20-20Zm7.725 2.28c-.488 0-.95.149-1.334.41a.75.75 0 0 1-.842-1.242 3.874 3.874 0 0 1 2.176-.668h3.49a3.878 3.878 0 0 1 3.68 2.652.814.814 0 0 0 .612.54l.065.013a5.782 5.782 0 0 1 4.648 5.67v2.301c0 1.46 0 2.324-.165 3.058a6.749 6.749 0 0 1-.22.766.75.75 0 1 1-1.415-.5c.068-.193.126-.392.172-.596.123-.55.128-1.233.128-2.847v-2.181a4.282 4.282 0 0 0-3.442-4.2l-.065-.013a2.314 2.314 0 0 1-1.741-1.537 2.378 2.378 0 0 0-2.257-1.626h-3.49Zm4.025 12.064-4.99-5.221A3.188 3.188 0 0 0 8.5 12.7v.6a3.2 3.2 0 0 0 3.2 3.2h.6c.747 0 1.435-.257 1.98-.686Zm-2.012-6.4a.75.75 0 0 1 .895-.57 3.954 3.954 0 0 1 2.992 2.992.75.75 0 0 1-1.464.327 2.454 2.454 0 0 0-1.854-1.854.75.75 0 0 1-.569-.896Z" fill="#151E28"/></svg>