<svg viewBox="0 0 24 24" fill="none" xmlns="http://www.w3.org/2000/svg"><path fill-rule="evenodd" clip-rule="evenodd" d="M10.255 2.25a3.878 3.878 0 0 0-3.68 2.652.814.814 0 0 1-.612.54l-.065.013a5.782 5.782 0 0 0-4.648 5.67v2.301c0 1.46 0 2.324.165 3.058a6.75 6.75 0 0 0 5.101 5.1c.734.166 1.598.166 3.058.166h4.852c1.46 0 2.324 0 3.058-.165a6.75 6.75 0 0 0 5.1-5.101c.166-.734.166-1.598.166-3.058v-2.3a5.782 5.782 0 0 0-4.648-5.67l-.065-.013a.814.814 0 0 1-.613-.541 3.878 3.878 0 0 0-3.679-2.652h-3.49ZM8.5 12.7a3.2 3.2 0 0 1 3.2-3.2h.6a3.2 3.2 0 0 1 3.2 3.2v.6a3.2 3.2 0 0 1-3.2 3.2h-.6a3.2 3.2 0 0 1-3.2-3.2v-.6Z" fill="#151E28"/></svg>