<svg viewBox="0 0 24 24" fill="none" xmlns="http://www.w3.org/2000/svg"><path fill-rule="evenodd" clip-rule="evenodd" d="M6.893 7.107a3.25 3.25 0 0 1 3.124-2.357h3.966a3.25 3.25 0 0 1 3.125 2.357l.726 2.54a6.069 6.069 0 0 0-2.167-.397H8.334a6.07 6.07 0 0 0-2.167.397l.726-2.54ZM4.277 10.8l.001-.005 1.172-4.1a4.75 4.75 0 0 1 4.567-3.445h3.966a4.75 4.75 0 0 1 4.567 3.445l1.171 4.099.002.005a6.068 6.068 0 0 1 2.027 4.534c0 1.382-.82 2.572-2 3.11V21a.75.75 0 0 1-1.5 0v-2.25H5.75V21a.75.75 0 0 1-1.5 0v-2.557a3.417 3.417 0 0 1-2-3.11c0-1.801.783-3.42 2.028-4.534ZM6.25 14a.75.75 0 0 1 .75-.75h1a.75.75 0 0 1 0 1.5H7a.75.75 0 0 1-.75-.75Zm9.75-.75a.75.75 0 0 0 0 1.5h1a.75.75 0 0 0 0-1.5h-1Z" fill="#151E28"/></svg>