<svg viewBox="0 0 24 24" fill="none" xmlns="http://www.w3.org/2000/svg"><path fill-rule="evenodd" clip-rule="evenodd" d="M5 4.25h-.025c-.445 0-.816 0-1.12.02a2.823 2.823 0 0 0-.907.19 2.75 2.75 0 0 0-1.489 1.488c-.12.29-.167.59-.188.907-.021.304-.021.675-.021 1.12v.05c0 .445 0 .816.02 1.12.022.317.07.617.19.907a2.75 2.75 0 0 0 1.488 1.489c.32.133.655.176 1.014.195a.75.75 0 0 0 .076-1.498c-.296-.016-.43-.047-.516-.083a1.25 1.25 0 0 1-.677-.677c-.032-.077-.061-.194-.078-.435A17.09 17.09 0 0 1 2.75 8c0-.476 0-.796.017-1.043.017-.241.046-.358.078-.435.127-.307.37-.55.677-.677.077-.032.194-.061.435-.078A17.09 17.09 0 0 1 5 5.75h14c.476 0 .796 0 1.043.017.24.017.358.046.435.078.306.127.55.37.677.677.032.077.061.194.078.435.016.247.017.567.017 1.043s0 .796-.017 1.043c-.017.241-.046.358-.078.435a1.25 1.25 0 0 1-.677.677c-.087.036-.22.067-.516.083a.75.75 0 0 0 .076 1.498c.359-.019.693-.062 1.014-.195a2.75 2.75 0 0 0 1.488-1.489c.12-.29.167-.59.189-.907.02-.304.02-.675.02-1.12v-.05c0-.445 0-.816-.02-1.12a2.822 2.822 0 0 0-.189-.907 2.75 2.75 0 0 0-1.488-1.489l-.287.693.287-.693c-.29-.12-.59-.167-.907-.188-.305-.021-.675-.021-1.12-.021H5Zm0 3a.75.75 0 0 0 0 1.5h.25v9.08c0 .535 0 .98.03 1.345.03.38.098.736.27 1.073a2.75 2.75 0 0 0 1.2 1.202c.338.172.694.24 1.074.27.364.03.81.03 1.344.03h5.839c.456 0 .844-.003 1.167-.03.38-.03.736-.098 1.073-.27a2.75 2.75 0 0 0 1.202-1.201c.172-.338.24-.694.27-1.074.03-.364.03-.81.03-1.344V8.75H19a.75.75 0 0 0 0-1.5H5Zm9.25 1.5h-7.5v9.05c0 .572 0 .957.025 1.252.023.288.065.425.111.515.12.236.311.427.546.547.091.046.228.088.515.111.296.024.68.025 1.253.025h5.05V8.75Zm-2.25 6a.75.75 0 0 1 .75.75V18a.75.75 0 0 1-1.5 0v-2.5a.75.75 0 0 1 .75-.75Z" fill="#151E28"/></svg>