<svg viewBox="0 0 24 24" fill="none" xmlns="http://www.w3.org/2000/svg"><path fill-rule="evenodd" clip-rule="evenodd" d="M19.25 4.521a.75.75 0 0 0-.94-.747l-1.862.486-1.049-1.84a.75.75 0 0 0-1.334.06l-1.006 2.21a.75.75 0 0 0 1.366.62l.397-.873.607 1.065a.75.75 0 0 0 .841.354l1.452-.378-.044 1.5a.75.75 0 0 0 .534.74l1.175.352-.843.645a.75.75 0 0 0 .912 1.19l2.007-1.536a.75.75 0 0 0-.24-1.314l-2.029-.61.056-1.924ZM7.69 9.65c1.552-2.93 5.496-3.524 7.84-1.18 1.99 1.991 1.864 5.134-.013 6.988l-.53-.531-.531-.53-1.926-1.926a.75.75 0 1 0-1.06 1.06l1.705 1.705.555.555.554.555-9.06 4.797c-1.524.806-3.173-.842-2.366-2.365l2.028-3.83.555.554.554.555.475.474a.75.75 0 0 0 1.06-1.06l-.8-.8-.555-.556-.555-.555 2.07-3.91Z" fill="#151E28"/></svg>