<svg viewBox="0 0 24 24" fill="none" xmlns="http://www.w3.org/2000/svg"><path fill-rule="evenodd" clip-rule="evenodd" d="M12 2.25A9.75 9.75 0 0 0 2.25 12v9a.75.75 0 0 0 1.166.624l.817-.545c.38-.253.647-.431.854-.557.213-.13.31-.172.354-.186.19-.059.217-.063.233-.065.015-.002.043-.004.24.013h.001c.005 0 .046.007.145.035.1.03.234.073.41.137.355.127.839.314 1.502.572 1.03.4 2.375.722 4.028.722 5.385 0 9.75-4.365 9.75-9.75S17.385 2.25 12 2.25ZM12 17a1 1 0 1 0 0-2 1 1 0 0 0 0 2Zm1.25-7.095c-.005-.239-.028-.505-.151-.72-.094-.165-.32-.435-1.099-.435-.369 0-.595.09-.74.187-.15.1-.259.237-.34.398a1.71 1.71 0 0 0-.17.667v.004A.75.75 0 0 1 9.25 10H10h-.75v-.047l.006-.092a3.207 3.207 0 0 1 .323-1.196c.17-.34.436-.701.849-.977.417-.278.94-.438 1.572-.438 1.221 0 1.995.48 2.401 1.19.35.613.35 1.281.349 1.539V10c0 .26-.113.489-.173.602a4.143 4.143 0 0 1-.277.44c-.2.284-.462.61-.705.914l-.01.013c-.254.318-.488.61-.66.854a2.755 2.755 0 0 0-.176.275l-.008.015A.75.75 0 0 1 11.25 13c0-.26.113-.489.173-.602.076-.145.175-.296.277-.44.2-.284.462-.61.705-.914l.01-.013c.254-.318.488-.61.66-.854.085-.12.141-.21.174-.272Zm.023-.05-.004.01a.062.062 0 0 1 .004-.01Zm-.546 3.29.004-.01a.062.062 0 0 1-.004.01Z" fill="#151E28"/></svg>