<svg viewBox="0 0 24 24" fill="none" xmlns="http://www.w3.org/2000/svg"><path fill-rule="evenodd" clip-rule="evenodd" d="M14.6 3.25h.033c1.092 0 1.958 0 2.655.057.714.058 1.317.18 1.869.46a4.75 4.75 0 0 1 2.075 2.077c.281.55.403 1.154.461 1.868.057.697.057 1.563.057 2.655v1.266c0 1.092 0 1.958-.057 2.655-.058.714-.18 1.317-.46 1.869a4.75 4.75 0 0 1-2.076 2.075c-.552.281-1.155.403-1.869.461-.697.057-1.563.057-2.655.057H7.938c-.746 0-1.03.003-1.297.05a3.255 3.255 0 0 0-.73.221c-.25.11-.487.264-1.107.678l-1.388.925A.75.75 0 0 1 2.25 20v-9.633c0-1.092 0-1.958.057-2.655.058-.714.18-1.317.46-1.868a4.75 4.75 0 0 1 2.077-2.076c.55-.281 1.154-.403 1.868-.461.697-.057 1.563-.057 2.655-.057H14.6ZM12.75 11a.75.75 0 0 0-1.5 0v4a.75.75 0 0 0 1.5 0v-4ZM13 8a1 1 0 1 1-2 0 1 1 0 0 1 2 0Z" fill="#151E28"/></svg>