<svg viewBox="0 0 24 24" fill="none" xmlns="http://www.w3.org/2000/svg"><path fill-rule="evenodd" clip-rule="evenodd" d="M5.712 3.307c-.714.058-1.317.18-1.868.46a4.75 4.75 0 0 0-2.076 2.077c-.281.55-.403 1.154-.461 1.868-.057.697-.057 1.563-.057 2.655V18a.75.75 0 0 0 1.166.624l1.388-.925c.62-.414.857-.569 1.107-.678.234-.102.479-.176.73-.22.268-.048.55-.051 1.297-.051h5.089c.91 0 1.63 0 2.213-.04.596-.04 1.104-.125 1.578-.322a4.75 4.75 0 0 0 2.57-2.57c.197-.474.281-.982.322-1.578.04-.584.04-1.304.04-2.213v-.054c0-.91 0-1.63-.04-2.213-.04-.596-.125-1.104-.322-1.578a4.75 4.75 0 0 0-2.57-2.57c-.474-.197-.982-.282-1.578-.322-.584-.04-1.304-.04-2.213-.04h-3.66c-1.092 0-1.958 0-2.655.057Zm14.975 5.03a.75.75 0 1 0-.374 1.452c.54.14.937.63.937 1.211v7.599l-.826-.551a4.75 4.75 0 0 0-2.635-.798H12a.75.75 0 0 0 0 1.5h5.789c.641 0 1.269.19 1.803.546l1.992 1.328A.75.75 0 0 0 22.75 20v-9a2.75 2.75 0 0 0-2.063-2.663Z" fill="#151E28"/></svg>