<svg viewBox="0 0 24 24" fill="none" xmlns="http://www.w3.org/2000/svg"><path fill-rule="evenodd" clip-rule="evenodd" d="M12 2.25A9.75 9.75 0 0 0 2.25 12v9a.75.75 0 0 0 1.166.624l.817-.545c.38-.253.647-.431.854-.557.213-.13.31-.172.354-.186.19-.059.217-.063.233-.065.015-.002.043-.004.24.013h.001c.005 0 .046.007.145.035.1.03.234.073.41.137.355.127.839.314 1.502.572 1.03.4 2.375.722 4.028.722 5.385 0 9.75-4.365 9.75-9.75S17.385 2.25 12 2.25ZM12.75 8a.75.75 0 0 0-1.5 0v5a.75.75 0 0 0 1.5 0V8Zm.25 8a1 1 0 1 1-2 0 1 1 0 0 1 2 0Z" fill="#151E28"/></svg>