<svg viewBox="0 0 24 24" fill="none" xmlns="http://www.w3.org/2000/svg"><path fill-rule="evenodd" clip-rule="evenodd" d="M2.53 1.47a.75.75 0 0 0-1.06 1.06l3.126 3.126A9.714 9.714 0 0 0 2.25 12v9a.75.75 0 0 0 1.166.624l.817-.545c.38-.253.647-.431.854-.557.213-.13.31-.172.354-.186.19-.059.217-.063.233-.065.015-.002.043-.004.24.013h.001c.005 0 .046.007.145.035.1.03.234.073.41.137.355.127.839.314 1.502.572 1.03.4 2.375.722 4.028.722a9.714 9.714 0 0 0 6.344-2.346l3.126 3.126a.75.75 0 1 0 1.06-1.06l-20-20ZM12 3.75c-1.14 0-2.223.23-3.208.647a.75.75 0 0 1-.584-1.382A9.722 9.722 0 0 1 12 2.25 9.75 9.75 0 0 1 21.75 12a9.723 9.723 0 0 1-.765 3.792.75.75 0 0 1-1.382-.584A8.25 8.25 0 0 0 12 3.75Z" fill="#151E28"/></svg>