<svg viewBox="0 0 24 24" fill="none" xmlns="http://www.w3.org/2000/svg"><path fill-rule="evenodd" clip-rule="evenodd" d="M2.53 1.47a.75.75 0 0 0-1.06 1.06l2.14 2.142A4.736 4.736 0 0 0 2.25 8v12a.75.75 0 0 0 1.166.624l1.992-1.328a3.25 3.25 0 0 1 1.803-.546H17a4.8 4.8 0 0 0 .644-.045l3.826 3.825a.75.75 0 1 0 1.06-1.06l-20-20ZM7.25 4A.75.75 0 0 1 8 3.25h9A4.75 4.75 0 0 1 21.75 8v6c0 .864-.231 1.676-.636 2.375a.75.75 0 1 1-1.298-.75A3.232 3.232 0 0 0 20.25 14V8A3.25 3.25 0 0 0 17 4.75H8A.75.75 0 0 1 7.25 4Z" fill="#151E28"/></svg>