<svg viewBox="0 0 24 24" fill="none" xmlns="http://www.w3.org/2000/svg"><path fill-rule="evenodd" clip-rule="evenodd" d="m14 3 .586-.469a.75.75 0 0 0-.679-.275L14 3Zm0 0 .586-.468.002.002.002.003.008.01a3.24 3.24 0 0 1 .1.135c.063.09.15.219.253.386.206.334.474.82.74 1.453.534 1.267 1.06 3.116 1.06 5.479a.75.75 0 0 1-1.5 0c0-2.137-.475-3.788-.942-4.896a9.236 9.236 0 0 0-.633-1.246 5.508 5.508 0 0 0-1.476.805c-1.112.833-2.525 2.445-3.483 5.558a.75.75 0 0 1-1.433-.442C8.326 6.392 9.912 4.504 11.3 3.463a7.005 7.005 0 0 1 1.786-.988 4.905 4.905 0 0 1 .739-.206l.052-.01.018-.002h.01v-.001c.002 0 .002 0 .095.744Zm-7.562 8.25c-2.477 0-4.188 2.497-4.188 5.164 0 1.793.723 3.167 1.841 4.072 1.098.889 2.53 1.288 3.923 1.263 1.393-.025 2.813-.474 3.9-1.366 1.103-.906 1.836-2.251 1.836-3.97 0-2.666-1.71-5.163-4.187-5.163A3.52 3.52 0 0 0 8 11.619a3.52 3.52 0 0 0-1.562-.369Zm6.806.211A3.487 3.487 0 0 1 16 11.62a3.52 3.52 0 0 1 1.563-.369c2.476 0 4.187 2.497 4.187 5.164 0 2.336-1.347 3.944-3.076 4.74-1.696.78-3.803.806-5.493.011a.75.75 0 1 1 .638-1.357c1.272.598 2.916.587 4.228-.017 1.281-.59 2.203-1.714 2.203-3.377 0-2.209-1.367-3.664-2.687-3.664a2.08 2.08 0 0 0-1.151.358.75.75 0 0 1-.823 0 2.081 2.081 0 0 0-1.151-.358 2 2 0 0 0-.682.121.75.75 0 0 1-.512-1.41Z" fill="#151E28"/></svg>