<svg viewBox="0 0 24 24" fill="none" xmlns="http://www.w3.org/2000/svg"><path fill-rule="evenodd" clip-rule="evenodd" d="M14.6 2.25H9.367c-1.092 0-1.958 0-2.655.057-.714.058-1.317.18-1.868.46a4.75 4.75 0 0 0-2.076 2.077c-.281.55-.403 1.155-.461 1.868-.029.35-.043.743-.05 1.185a.758.758 0 0 0-.003.186c-.004.39-.004.816-.004 1.284v5.266c0 1.092 0 1.958.057 2.655.058.714.18 1.317.46 1.869a4.75 4.75 0 0 0 2.077 2.076c.55.28 1.154.402 1.868.46.697.057 1.563.057 2.655.057h5.266c1.092 0 1.958 0 2.655-.057.714-.058 1.317-.18 1.869-.46a4.75 4.75 0 0 0 2.075-2.076c.281-.552.403-1.155.461-1.869.057-.697.057-1.563.057-2.655V9.366c0-.468 0-.894-.005-1.283a.75.75 0 0 0-.002-.186 18.433 18.433 0 0 0-.05-1.185c-.058-.713-.18-1.317-.46-1.868a4.75 4.75 0 0 0-2.076-2.076c-.552-.28-1.155-.402-1.869-.46-.697-.058-1.563-.058-2.655-.058H14.6Zm5.598 4.584c.01.13.02.269.026.416h-4.9l2.02-3.364a.748.748 0 0 0 .033-.064c.5.055.83.146 1.099.282a3.25 3.25 0 0 1 1.42 1.42c.155.305.251.69.302 1.31ZM14.6 3.75c.396 0 .752 0 1.074.003L13.575 7.25h-5.25l2.1-3.5H14.6Zm-8.025 3.5 2.1-3.5c-.765.003-1.355.013-1.841.052-.62.05-1.005.147-1.31.302a3.25 3.25 0 0 0-1.42 1.42c-.155.305-.251.69-.302 1.31-.01.13-.02.269-.026.416h2.8ZM6.25 12a.75.75 0 0 1 .75-.75h4a.75.75 0 0 1 0 1.5H7a.75.75 0 0 1-.75-.75Zm0 4a.75.75 0 0 1 .75-.75h8a.75.75 0 0 1 0 1.5H7a.75.75 0 0 1-.75-.75Z" fill="#151E28"/></svg>