<svg viewBox="0 0 24 24" fill="none" xmlns="http://www.w3.org/2000/svg"><path fill-rule="evenodd" clip-rule="evenodd" d="M8.102 4.74c.068.003.148.005.25.007A2.751 2.751 0 0 0 11 6.75h2a2.75 2.75 0 0 0 2.646-2c.621.001 1.086.008 1.463.038.454.037.715.107.912.207.424.216.768.56.984.984.1.197.17.458.207.912.037.462.038 1.057.038 1.909V16a.75.75 0 0 0 1.5 0V8.768c0-.813 0-1.469-.043-2-.045-.546-.14-1.026-.366-1.47a3.75 3.75 0 0 0-1.639-1.64c-.444-.226-.924-.32-1.47-.365-.438-.035-.96-.042-1.585-.043a2.751 2.751 0 0 0-2.647-2h-2a2.751 2.751 0 0 0-2.645 1.996l-.144-.004a7.911 7.911 0 0 0-.757.01.75.75 0 1 0 .092 1.497c.256-.016.36-.013.556-.008ZM13 2.75a1.25 1.25 0 1 1 0 2.5h-2a1.25 1.25 0 1 1 0-2.5h2Zm7.08 18.39c-.352.506-.824.92-1.377 1.201-.445.227-.925.321-1.471.366-.531.043-1.187.043-2 .043H8.768c-.813 0-1.469 0-2-.043-.546-.045-1.026-.14-1.47-.366a3.75 3.75 0 0 1-1.64-1.639c-.226-.444-.32-.924-.365-1.47-.043-.531-.043-1.187-.043-2V8.768c0-.813 0-1.469.043-2 .045-.546.14-1.026.366-1.47.064-.127.135-.249.213-.366L1.47 2.53a.75.75 0 0 1 1.06-1.06l20 20a.75.75 0 1 1-1.06 1.06l-1.39-1.39Z" fill="#151E28"/></svg>