<svg viewBox="0 0 24 24" fill="none" xmlns="http://www.w3.org/2000/svg"><path fill-rule="evenodd" clip-rule="evenodd" d="M17.232 3.293c-.438-.035-.96-.042-1.585-.043a2.751 2.751 0 0 0-2.647-2h-2c-1.259 0-2.32.846-2.647 2-.625.001-1.147.008-1.584.043-.547.045-1.027.14-1.471.366a3.75 3.75 0 0 0-1.64 1.639c-.226.444-.32.924-.365 1.47-.043.531-.043 1.187-.043 2v8.464c0 .813 0 1.469.043 2 .045.546.14 1.026.366 1.47a3.75 3.75 0 0 0 1.639 1.64c.444.226.924.32 1.47.365.531.043 1.187.043 2 .043h6.464c.813 0 1.469 0 2-.043.546-.045 1.026-.14 1.47-.366a3.75 3.75 0 0 0 1.64-1.639c.226-.444.32-.924.365-1.47.043-.531.043-1.187.043-2V8.768c0-.813 0-1.469-.043-2-.045-.546-.14-1.026-.366-1.47a3.75 3.75 0 0 0-1.639-1.64c-.444-.226-.924-.32-1.47-.365ZM11 2.75a1.25 1.25 0 1 0 0 2.5h2a1.25 1.25 0 1 0 0-2.5h-2Zm4.53 7.72a.75.75 0 0 1 0 1.06l-4 4a.75.75 0 0 1-1.06 0l-1.5-1.5a.75.75 0 1 1 1.06-1.06l.97.97 3.47-3.47a.75.75 0 0 1 1.06 0Z" fill="#151E28"/></svg>