<svg viewBox="0 0 24 24" fill="none" xmlns="http://www.w3.org/2000/svg"><path fill-rule="evenodd" clip-rule="evenodd" d="M15.646 3.25c.626.001 1.148.008 1.585.043.547.045 1.027.14 1.471.366a3.75 3.75 0 0 1 1.64 1.639c.226.444.32.924.365 1.47.043.531.043 1.187.043 2v8.464c0 .813 0 1.469-.043 2-.045.546-.14 1.026-.366 1.47a3.75 3.75 0 0 1-1.639 1.64c-.444.226-.924.32-1.47.365-.531.043-1.187.043-2 .043H8.768c-.813 0-1.469 0-2-.043-.546-.045-1.026-.14-1.47-.366a3.75 3.75 0 0 1-1.64-1.639c-.226-.444-.32-.924-.365-1.47-.043-.531-.043-1.187-.043-2V8.768c0-.813 0-1.469.043-2 .045-.546.14-1.026.366-1.47a3.75 3.75 0 0 1 1.639-1.64c.444-.226.924-.32 1.47-.365.438-.035.96-.042 1.585-.043a2.751 2.751 0 0 1 2.647-2h2a2.75 2.75 0 0 1 2.646 2ZM14.25 4c0-.69-.56-1.25-1.25-1.25h-2a1.25 1.25 0 1 0 0 2.5h2c.69 0 1.25-.56 1.25-1.25Z" fill="#151E28"/></svg>