<svg viewBox="0 0 24 24" fill="none" xmlns="http://www.w3.org/2000/svg"><path fill-rule="evenodd" clip-rule="evenodd" d="M17 2.25h.095c.838 0 1.372 0 1.832.091a4.75 4.75 0 0 1 3.732 3.732c.091.46.091.994.091 1.832v8.19c0 .838 0 1.372-.091 1.832a4.75 4.75 0 0 1-3.732 3.732c-.46.091-.994.091-1.832.091H6.905c-.838 0-1.372 0-1.832-.091a4.75 4.75 0 0 1-3.732-3.732c-.091-.46-.091-.994-.091-1.832v-8.19c0-.838 0-1.372.091-1.832a4.75 4.75 0 0 1 3.732-3.732c.46-.091.994-.091 1.832-.091H17Zm-8.396 6h.133a2.75 2.75 0 0 1 1.832.76c.024.022.047.046.077.076l.006.005.378.379a.75.75 0 1 1-1.06 1.06l-.379-.378a1.25 1.25 0 0 0-.97-.402l-.18.001a1.25 1.25 0 0 0-1.19 1.19l-.001.18v1.758l.001.18a1.25 1.25 0 0 0 1.19 1.19l.18.001h.08a1.25 1.25 0 0 0 .89-.402l.379-.378a.75.75 0 1 1 1.06 1.06l-.378.379-.005.005-.078.076a2.75 2.75 0 0 1-1.832.76h-.133c-.096 0-.17 0-.235-.003a2.75 2.75 0 0 1-2.616-2.616c-.003-.066-.003-.14-.003-.235v-1.793c0-.095 0-.168.003-.234A2.75 2.75 0 0 1 8.37 8.253c.066-.003.14-.003.235-.003Zm7 0h.133a2.75 2.75 0 0 1 1.832.76c.024.022.047.046.077.076l.006.005.378.379a.75.75 0 1 1-1.06 1.06l-.379-.378a1.25 1.25 0 0 0-.97-.402l-.18.001a1.25 1.25 0 0 0-1.19 1.19l-.001.18v1.758l.001.18a1.25 1.25 0 0 0 1.19 1.19l.18.001h.08a1.25 1.25 0 0 0 .89-.402l.379-.378a.75.75 0 1 1 1.06 1.06l-.378.379-.006.005c-.03.03-.053.054-.077.076a2.75 2.75 0 0 1-1.832.76h-.134c-.095 0-.168 0-.234-.003a2.75 2.75 0 0 1-2.616-2.616c-.003-.066-.003-.14-.003-.235v-1.793c0-.095 0-.168.003-.234a2.75 2.75 0 0 1 2.616-2.616c.066-.003.14-.003.235-.003Z" fill="#151E28"/></svg>