<svg viewBox="0 0 24 24" fill="none" xmlns="http://www.w3.org/2000/svg"><path fill-rule="evenodd" clip-rule="evenodd" d="m2.801 14.663-.569.57a2.499 2.499 0 0 0-.575.896 5.751 5.751 0 0 1 4.636-7.835 5.751 5.751 0 0 1 11.414-.001 5.751 5.751 0 0 1-.207 11.436V17a2.5 2.5 0 0 0-4.888-.742.751.751 0 0 0-.225 0 2.5 2.5 0 0 0-1.269-1.494l-.206-.103.513-2.055a2.5 2.5 0 0 0-4.193-2.374l-4.43 4.431ZM15 16.25a.75.75 0 0 1 .75.75v2a.75.75 0 0 1-1.5 0v-2a.75.75 0 0 1 .75-.75Zm-3 3a.75.75 0 0 1 .75.75v2a.75.75 0 0 1-1.5 0v-2a.75.75 0 0 1 .75-.75Zm-2.272-7.068a.75.75 0 0 0-1.258-.712l-5 5a.75.75 0 0 0 .195 1.2l1.461.732-.854 3.416a.75.75 0 0 0 1.258.712l5-5a.75.75 0 0 0-.195-1.2l-1.461-.732.854-3.416Zm-3.393 5.147-1.069-.534 2.35-2.35-.344 1.373a.75.75 0 0 0 .393.853l1.069.535-2.35 2.349.344-1.373a.75.75 0 0 0-.393-.853Z" fill="#151E28"/></svg>