<svg viewBox="0 0 24 24" fill="none" xmlns="http://www.w3.org/2000/svg"><path fill-rule="evenodd" clip-rule="evenodd" d="M8.008 17.772A6.945 6.945 0 0 0 7.612 19H7A5 5 0 0 1 7 9a5 5 0 0 1 10 0 5 5 0 0 1 0 10h-.611a6.958 6.958 0 0 0-.397-1.228 12.345 12.345 0 0 0-.863-1.645 18.729 18.729 0 0 0-1.14-1.641l-.024-.031-.008-.01-.003-.004v-.002h-.001l-1.95 1.56L12 16l-.002-.002-1.95-1.56-.001.002-.001.001-.003.004-.008.01-.025.03a12.652 12.652 0 0 0-.344.459c-.214.293-.502.708-.795 1.183a12.35 12.35 0 0 0-.863 1.645Zm3.406-2.24a.75.75 0 0 1 1.172 0l1.366-1.094a2.5 2.5 0 0 0-3.904 0l1.366 1.093ZM12 16l.586-.468.002.003.006.006.019.025a12.157 12.157 0 0 1 .306.407c.195.268.457.644.72 1.071.261.425.532.914.74 1.407.202.48.371 1.027.371 1.549 0 .93-.319 1.659-.895 2.139-.552.46-1.244.611-1.855.611s-1.303-.151-1.855-.611c-.576-.48-.895-1.209-.895-2.139 0-.522.169-1.068.371-1.549.208-.493.479-.982.74-1.407a17.045 17.045 0 0 1 1.026-1.478l.02-.025.005-.006.001-.002.001-.001L12 16Zm-.361 1.83c.123-.2.246-.387.361-.557.115.17.238.358.361.558.239.387.468.805.635 1.202.173.41.254.74.254.967 0 .57-.181.841-.355.986-.198.165-.506.264-.895.264s-.697-.099-.895-.264c-.174-.145-.355-.416-.355-.986 0-.228.081-.557.254-.967.167-.397.396-.815.635-1.202Z" fill="#151E28"/></svg>