<svg viewBox="0 0 24 24" fill="none" xmlns="http://www.w3.org/2000/svg"><path fill-rule="evenodd" clip-rule="evenodd" d="M6.48 18.973a2.5 2.5 0 0 1 3.02-3.765V12a2.5 2.5 0 0 1 5 0v3.208a2.501 2.501 0 0 1 2.768 4.06l-.483.482H17a5.75 5.75 0 0 0 .707-11.457 5.751 5.751 0 0 0-11.414 0A5.751 5.751 0 0 0 7 19.75h.214l-.482-.482a2.524 2.524 0 0 1-.252-.295ZM12.75 12a.75.75 0 0 0-1.5 0v7.19l-2.22-2.22a.75.75 0 0 0-1.06 1.06l3.5 3.5a.75.75 0 0 0 1.06 0l3.5-3.5a.75.75 0 1 0-1.06-1.06l-2.22 2.22V12Z" fill="#151E28"/></svg>