<svg viewBox="0 0 24 24" fill="none" xmlns="http://www.w3.org/2000/svg"><path fill-rule="evenodd" clip-rule="evenodd" d="M6.804 15.804A2.5 2.5 0 0 0 5.5 17.978V18a2.497 2.497 0 0 0 .656 1.689 5.751 5.751 0 0 1 .137-11.396 5.751 5.751 0 0 1 11.414 0 5.751 5.751 0 0 1 .137 11.396A2.499 2.499 0 0 0 18.5 18v-.022a2.5 2.5 0 0 0-1.304-2.174 2.5 2.5 0 0 0-4.392 0c-.315.172-.59.41-.804.696a2.511 2.511 0 0 0-.804-.696 2.5 2.5 0 0 0-4.392 0ZM9.75 17a.75.75 0 0 0-1.5 0v.25H8a.75.75 0 0 0 0 1.5h.25V19a.75.75 0 0 0 1.5 0v-.25H10a.75.75 0 0 0 0-1.5h-.25V17Zm6 0a.75.75 0 0 0-1.5 0v.25H14a.75.75 0 0 0 0 1.5h.25V19a.75.75 0 0 0 1.5 0v-.25H16a.75.75 0 0 0 0-1.5h-.25V17Zm-3 3a.75.75 0 0 0-1.5 0v.25H11a.75.75 0 0 0 0 1.5h.25V22a.75.75 0 0 0 1.5 0v-.25H13a.75.75 0 0 0 0-1.5h-.25V20Z" fill="#151E28"/></svg>