<svg viewBox="0 0 24 24" fill="none" xmlns="http://www.w3.org/2000/svg"><path fill-rule="evenodd" clip-rule="evenodd" d="M17.196 15.804a2.5 2.5 0 0 1 1.304 2.174V18a2.498 2.498 0 0 1-.656 1.689 5.751 5.751 0 0 0-.137-11.396 5.751 5.751 0 0 0-11.414 0 5.751 5.751 0 0 0-4.636 7.835 2.499 2.499 0 0 1 .575-.896l.57-.569 4.43-4.43a2.5 2.5 0 0 1 4.193 2.373l-.513 2.055.206.103a2.5 2.5 0 0 1 1.225 1.364c.14-.125.295-.233.461-.324a2.5 2.5 0 0 1 4.392 0ZM15.75 17a.75.75 0 0 0-1.5 0v.25H14a.75.75 0 0 0 0 1.5h.25V19a.75.75 0 0 0 1.5 0v-.25H16a.75.75 0 0 0 0-1.5h-.25V17ZM12 19.25a.75.75 0 0 1 .75.75v.25H13a.75.75 0 0 1 0 1.5h-.25V22a.75.75 0 0 1-1.5 0v-.25H11a.75.75 0 0 1 0-1.5h.25V20a.75.75 0 0 1 .75-.75Zm-2.272-7.068a.75.75 0 0 0-1.258-.712l-5 5a.75.75 0 0 0 .195 1.2l1.461.732-.854 3.416a.75.75 0 0 0 1.258.712l5-5a.75.75 0 0 0-.195-1.2l-1.461-.732.854-3.416Zm-3.393 5.147-1.069-.534 2.35-2.35-.344 1.373a.75.75 0 0 0 .393.853l1.069.535-2.35 2.349.344-1.373a.75.75 0 0 0-.393-.853Z" fill="#151E28"/></svg>