<svg viewBox="0 0 24 24" fill="none" xmlns="http://www.w3.org/2000/svg"><path fill-rule="evenodd" clip-rule="evenodd" d="M17.468 16.6a2.5 2.5 0 0 1-.7 2.168l-.233.232-.75.75H17a5.75 5.75 0 0 0 .707-11.457 5.751 5.751 0 0 0-11.414 0A5.751 5.751 0 0 0 7 19.75h.986l.102-.41-.206-.104a2.5 2.5 0 0 1-.65-4.004l5-5a2.5 2.5 0 0 1 4.193 2.374l-.513 2.055.206.103a2.5 2.5 0 0 1 1.35 1.835Zm-2.74-4.418a.75.75 0 0 0-1.258-.712l-5 5a.75.75 0 0 0 .195 1.2l1.462.732-.855 3.416a.75.75 0 0 0 1.258.712l5-5a.75.75 0 0 0-.195-1.2l-1.462-.732.855-3.416Zm-3.393 5.147-1.069-.535 2.35-2.349-.344 1.373a.75.75 0 0 0 .393.853l1.069.535-2.35 2.349.344-1.373a.75.75 0 0 0-.393-.853Z" fill="#151E28"/></svg>