<svg viewBox="0 0 24 24" fill="none" xmlns="http://www.w3.org/2000/svg"><path fill-rule="evenodd" clip-rule="evenodd" d="M6.952 19a2.511 2.511 0 0 1 .449-1 2.5 2.5 0 0 1 2.3-3.983 2.5 2.5 0 0 1 4.598 0A2.5 2.5 0 0 1 16.6 18a2.493 2.493 0 0 1 .442.973l.006.027c.05.245.064.497.039.75a5.75 5.75 0 0 0 .621-11.457 5.751 5.751 0 0 0-11.414 0 5.751 5.751 0 0 0 .62 11.456 2.503 2.503 0 0 1 .039-.75Zm5.798-4a.75.75 0 0 0-1.5 0v1.701l-1.474-.85a.75.75 0 0 0-.75 1.298L10.5 18l-1.473.85a.75.75 0 1 0 .75 1.3l1.474-.851V21a.75.75 0 0 0 1.5 0v-1.7l1.473.85a.75.75 0 0 0 .75-1.3L13.498 18l1.474-.85a.75.75 0 0 0-.75-1.3l-1.473.85V15Z" fill="#151E28"/></svg>