<svg viewBox="0 0 24 24" fill="none" xmlns="http://www.w3.org/2000/svg"><path fill-rule="evenodd" clip-rule="evenodd" d="M11.798 1.25A2.548 2.548 0 0 0 9.25 3.798v.371a.494.494 0 0 1-.843.35l-.262-.263a2.548 2.548 0 0 0-3.604 0l-.285.285a2.548 2.548 0 0 0 0 3.604l.262.262a.494.494 0 0 1-.349.843h-.37a2.548 2.548 0 0 0-2.549 2.548v.404a2.548 2.548 0 0 0 2.548 2.548h.371a.494.494 0 0 1 .35.843l-.263.262a2.548 2.548 0 0 0 0 3.604l.285.285a2.548 2.548 0 0 0 3.604 0l.262-.262a.494.494 0 0 1 .843.349v.37a2.548 2.548 0 0 0 2.548 2.549h.404a2.548 2.548 0 0 0 2.548-2.548v-.371a.494.494 0 0 1 .843-.35l.262.263a2.548 2.548 0 0 0 3.604 0l.285-.285a2.548 2.548 0 0 0 0-3.604l-.262-.262a.494.494 0 0 1 .349-.843h.37a2.548 2.548 0 0 0 2.549-2.548v-.404a2.548 2.548 0 0 0-2.548-2.548h-.371a.494.494 0 0 1-.35-.843l.263-.262a2.548 2.548 0 0 0 0-3.604l-.285-.285a2.548 2.548 0 0 0-3.604 0l-.262.262a.494.494 0 0 1-.843-.349v-.37a2.548 2.548 0 0 0-2.548-2.549h-.404ZM9 11.8A2.8 2.8 0 0 1 11.8 9h.4a2.8 2.8 0 0 1 2.8 2.8v.4a2.8 2.8 0 0 1-2.8 2.8h-.4A2.8 2.8 0 0 1 9 12.2v-.4Z" fill="#151E28"/></svg>