<svg viewBox="0 0 24 24" fill="none" xmlns="http://www.w3.org/2000/svg"><path fill-rule="evenodd" clip-rule="evenodd" d="M11 1.25A2.75 2.75 0 0 0 8.25 4v.098a.812.812 0 0 1-1.218.703l-.085-.049A2.75 2.75 0 0 0 3.19 5.76l-1 1.732a2.75 2.75 0 0 0 1.007 3.757l.085.049a.812.812 0 0 1 0 1.406l-.085.05A2.75 2.75 0 0 0 2.19 16.51l1 1.732a2.75 2.75 0 0 0 3.757 1.007l.085-.05a.812.812 0 0 1 1.218.704V20A2.75 2.75 0 0 0 11 22.75h2A2.75 2.75 0 0 0 15.75 20v-.098a.812.812 0 0 1 1.218-.703l.085.049a2.75 2.75 0 0 0 3.757-1.007l1-1.732a2.75 2.75 0 0 0-1.007-3.757l-.085-.049a.812.812 0 0 1 0-1.406l.085-.05a2.75 2.75 0 0 0 1.007-3.756l-1-1.732a2.75 2.75 0 0 0-3.757-1.007l-.085.05a.812.812 0 0 1-1.218-.704V4A2.75 2.75 0 0 0 13 1.25h-2ZM9 11.8A2.8 2.8 0 0 1 11.8 9h.4a2.8 2.8 0 0 1 2.8 2.8v.4a2.8 2.8 0 0 1-2.8 2.8h-.4A2.8 2.8 0 0 1 9 12.2v-.4Z" fill="#151E28"/></svg>