<svg viewBox="0 0 24 24" fill="none" xmlns="http://www.w3.org/2000/svg"><path fill-rule="evenodd" clip-rule="evenodd" d="M18.573 2.25h-2.146c-.393 0-.696 0-.963.052a2.75 2.75 0 0 0-2.161 2.161c-.053.268-.053.57-.053.963v.147c0 .393 0 .696.053.963a2.75 2.75 0 0 0 2.16 2.16c.268.054.571.054.964.054h2.146c.393 0 .696 0 .963-.053a2.75 2.75 0 0 0 2.161-2.16c.053-.268.053-.571.053-.964v-.147c0-.392 0-.695-.053-.963a2.75 2.75 0 0 0-2.16-2.16c-.268-.054-.571-.054-.964-.053ZM6.2 2.25h-.03c-.535 0-.98 0-1.345.03-.38.03-.736.097-1.073.27a2.75 2.75 0 0 0-1.202 1.2c-.172.337-.24.694-.27 1.074-.03.364-.03.81-.03 1.344V8.83c0 .534 0 .98.03 1.344.03.38.098.737.27 1.074a2.75 2.75 0 0 0 1.202 1.202c.337.172.693.239 1.073.27.365.03.81.03 1.345.03h.66c.535 0 .98 0 1.345-.03.38-.031.736-.098 1.074-.27a2.75 2.75 0 0 0 1.201-1.202c.172-.337.24-.694.27-1.074.03-.364.03-.81.03-1.344V6.17c0-.535 0-.98-.03-1.345-.03-.38-.098-.737-.27-1.074a2.75 2.75 0 0 0-1.2-1.201c-.338-.172-.694-.239-1.074-.27-.365-.03-.81-.03-1.345-.03H6.2Zm-.7 13h-.073c-.393 0-.696 0-.963.052a2.75 2.75 0 0 0-2.161 2.161c-.053.268-.053.57-.053.963v.147c0 .393 0 .696.053.963a2.75 2.75 0 0 0 2.16 2.16c.268.054.571.054.964.054h2.146c.393 0 .696 0 .964-.053a2.75 2.75 0 0 0 2.16-2.16c.053-.268.053-.571.053-.964v-.147c0-.392 0-.695-.053-.963a2.75 2.75 0 0 0-2.16-2.16c-.268-.054-.571-.054-.964-.054H5.5Zm12.3-4h.03c.535 0 .98 0 1.345.03.38.03.736.097 1.073.27.518.263.939.684 1.202 1.201.172.337.24.694.27 1.074.03.364.03.81.03 1.344v2.661c0 .534 0 .98-.03 1.344-.03.38-.098.737-.27 1.074a2.749 2.749 0 0 1-1.201 1.202c-.338.172-.694.239-1.074.27-.364.03-.81.03-1.345.03h-.66c-.535 0-.98 0-1.345-.03-.38-.031-.736-.098-1.073-.27a2.749 2.749 0 0 1-1.202-1.202c-.172-.337-.24-.694-.27-1.074-.03-.364-.03-.81-.03-1.344v-2.66c0-.535 0-.98.03-1.345.03-.38.098-.737.27-1.074a2.749 2.749 0 0 1 1.202-1.202c.337-.172.693-.239 1.073-.27.365-.03.81-.03 1.345-.03h.63Z" fill="#151E28"/></svg>