<svg viewBox="0 0 24 24" fill="none" xmlns="http://www.w3.org/2000/svg"><path fill-rule="evenodd" clip-rule="evenodd" d="M12 2.25c-5.385 0-9.75 4.365-9.75 9.75s4.365 9.75 9.75 9.75 9.75-4.365 9.75-9.75S17.385 2.25 12 2.25Zm-.75 7.5h1.5V9A2.25 2.25 0 1 1 15 11.25h-.75v1.5H15A2.25 2.25 0 1 1 12.75 15v-.75h-1.5V15A2.25 2.25 0 1 1 9 12.75h.75v-1.5H9A2.25 2.25 0 1 1 11.25 9v.75Zm3 4.5V15a.75.75 0 1 0 .75-.75h-.75Zm-1.5-1.5h-1.5v-1.5h1.5v1.5ZM9 14.25a.75.75 0 1 0 .75.75v-.75H9ZM8.25 9a.75.75 0 0 1 1.5 0v.75H9A.75.75 0 0 1 8.25 9ZM15 8.25a.75.75 0 0 0-.75.75v.75H15a.75.75 0 0 0 0-1.5Z" fill="#151E28"/></svg>