<svg viewBox="0 0 24 24" fill="none" xmlns="http://www.w3.org/2000/svg"><path fill-rule="evenodd" clip-rule="evenodd" d="M9.4 2.25h-.033c-1.092 0-1.958 0-2.655.057-.714.058-1.317.18-1.868.46a4.75 4.75 0 0 0-2.076 2.077c-.281.55-.403 1.154-.461 1.868-.057.697-.057 1.563-.057 2.655v5.266c0 1.092 0 1.958.057 2.655.058.714.18 1.317.46 1.869a4.75 4.75 0 0 0 2.077 2.075c.55.281 1.154.403 1.868.461.697.057 1.563.057 2.655.057h5.266c1.092 0 1.958 0 2.655-.057.714-.058 1.317-.18 1.869-.46a4.75 4.75 0 0 0 2.075-2.076c.281-.552.403-1.155.461-1.869.057-.697.057-1.563.057-2.655V9.367c0-1.092 0-1.958-.057-2.655-.058-.714-.18-1.317-.46-1.868a4.75 4.75 0 0 0-2.076-2.076c-.552-.281-1.155-.403-1.869-.461-.697-.057-1.563-.057-2.655-.057H9.4Zm4.85 10.5v-1.5H15A2.25 2.25 0 1 0 12.75 9v.75h-1.5V9A2.25 2.25 0 1 0 9 11.25h.75v1.5H9A2.25 2.25 0 1 0 11.25 15v-.75h1.5V15A2.25 2.25 0 1 0 15 12.75h-.75Zm0 1.5V15a.75.75 0 1 0 .75-.75h-.75Zm-3-1.5v-1.5h1.5v1.5h-1.5ZM9 14.25a.75.75 0 1 0 .75.75v-.75H9ZM8.25 9a.75.75 0 0 1 1.5 0v.75H9A.75.75 0 0 1 8.25 9ZM15 8.25a.75.75 0 0 0-.75.75v.75H15a.75.75 0 0 0 0-1.5Z" fill="#151E28"/></svg>