<svg viewBox="0 0 24 24" fill="none" xmlns="http://www.w3.org/2000/svg"><path fill-rule="evenodd" clip-rule="evenodd" d="M12 2.25c-5.385 0-9.75 4.365-9.75 9.75s4.365 9.75 9.75 9.75c5.384 0 9.75-4.365 9.75-9.75S17.384 2.25 12 2.25Zm3.53 6.22a.75.75 0 0 1 .205.677l-.581 2.908-.023.115c-.128.643-.229 1.148-.487 1.568a2.75 2.75 0 0 1-.906.907c-.42.257-.925.358-1.568.486l-.115.023-2.908.581a.75.75 0 0 1-.883-.882l.582-2.908.023-.115c.128-.643.228-1.148.486-1.568.227-.37.537-.68.907-.907.42-.257.925-.358 1.568-.486l.115-.023 2.908-.581a.75.75 0 0 1 .677.205Z" fill="#151E28"/></svg>