<svg viewBox="0 0 24 24" fill="none" xmlns="http://www.w3.org/2000/svg"><path fill-rule="evenodd" clip-rule="evenodd" d="M6.8 3.25h-.033c-.812 0-1.468 0-1.999.043-.547.045-1.027.14-1.47.366a3.75 3.75 0 0 0-1.64 1.639c-.226.444-.32.924-.365 1.47a16.483 16.483 0 0 0-.042 1.277l-.001.723v6.464c0 .813 0 1.469.043 2 .045.546.139 1.026.365 1.47a3.75 3.75 0 0 0 1.64 1.64c.443.226.923.32 1.47.365.53.043 1.187.043 2 .043h10.464c.813 0 1.468 0 1.999-.043.547-.045 1.027-.14 1.471-.366a3.75 3.75 0 0 0 1.639-1.639c.226-.444.32-.924.365-1.47.044-.531.044-1.187.044-2V8.765c0-.253 0-.49-.002-.713a.756.756 0 0 0 0-.115 16.367 16.367 0 0 0-.042-1.168c-.044-.547-.139-1.027-.365-1.471a3.75 3.75 0 0 0-1.639-1.64c-.444-.226-.924-.32-1.471-.365-.53-.043-1.187-.043-2-.043H6.8Zm-4.05 5.5v6.45c0 .852 0 1.447.038 1.91.037.453.106.714.207.912.215.423.56.767.983.983.198.1.458.17.912.207.463.037 1.057.038 1.91.038h10.4c.852 0 1.446 0 1.909-.038.454-.038.714-.107.912-.207a2.25 2.25 0 0 0 .983-.983c.1-.198.17-.459.207-.913.038-.462.039-1.057.039-1.909V8.75H2.75ZM5.25 12a.75.75 0 0 1 .75-.75h3a.75.75 0 0 1 0 1.5H6a.75.75 0 0 1-.75-.75Z" fill="#151E28"/></svg>