<svg viewBox="0 0 24 24" fill="none" xmlns="http://www.w3.org/2000/svg"><path fill-rule="evenodd" clip-rule="evenodd" d="M1.47 1.47a.75.75 0 0 1 1.06 0l17.99 17.99a.622.622 0 0 1 .02.02l1.99 1.99a.75.75 0 1 1-1.06 1.06l-1.78-1.78H6.767c-.813 0-1.469 0-2-.043-.546-.045-1.026-.14-1.47-.366a3.75 3.75 0 0 1-1.64-1.639c-.226-.444-.32-.924-.365-1.47-.043-.531-.043-1.187-.043-2V8.768l.001-.719a.764.764 0 0 1 0-.109c.005-.446.015-.834.042-1.171.045-.547.14-1.027.365-1.471A3.75 3.75 0 0 1 2.86 3.92L1.47 2.53a.75.75 0 0 1 0-1.061Zm1.28 7.28v6.45c0 .852 0 1.447.038 1.91.037.453.106.714.207.912.216.423.56.767.983.983.198.1.459.17.912.207.463.038 1.057.038 1.91.038h11.39L7.69 8.75H2.75Zm8.5-.75a.75.75 0 0 1 .75-.75h9.233a8.978 8.978 0 0 0-.022-.36c-.037-.453-.106-.714-.206-.911a2.25 2.25 0 0 0-.984-.984c-.197-.1-.458-.17-.912-.207-.463-.037-1.057-.038-1.91-.038H8a.75.75 0 0 1 0-1.5h9.232c.813 0 1.468 0 2 .043.546.045 1.026.14 1.47.366a3.75 3.75 0 0 1 1.639 1.639c.226.444.32.924.365 1.47a16.453 16.453 0 0 1 .042 1.281c.002.224.002.463.002.717v6.57c0 1.257 0 2.17-.215 2.882a.75.75 0 0 1-1.436-.436c.143-.469.15-1.143.15-2.582V8.75H12a.75.75 0 0 1-.75-.75Zm-6 4a.75.75 0 0 1 .75-.75h3a.75.75 0 0 1 0 1.5H6a.75.75 0 0 1-.75-.75Z" fill="#151E28"/></svg>