<svg viewBox="0 0 24 24" fill="none" xmlns="http://www.w3.org/2000/svg"><path fill-rule="evenodd" clip-rule="evenodd" d="M6.8 3.25h-.032c-.813 0-1.469 0-2 .043-.546.045-1.026.14-1.47.366a3.75 3.75 0 0 0-1.64 1.639c-.226.444-.32.924-.365 1.47a16.42 16.42 0 0 0-.04 1.17.76.76 0 0 0-.002.113l-.001.717v6.464c0 .813 0 1.469.043 2 .045.546.14 1.026.366 1.47a3.75 3.75 0 0 0 1.638 1.64c.445.226.925.32 1.471.365.531.043 1.187.043 2 .043H13a.75.75 0 0 0 0-1.5H6.8c-.853 0-1.447 0-1.91-.038-.453-.038-.714-.107-.912-.207a2.25 2.25 0 0 1-.983-.983c-.1-.198-.17-.459-.207-.913-.037-.462-.038-1.057-.038-1.909V8.75h18.5V12a.75.75 0 0 0 1.5 0V8.766l-.001-.72a.792.792 0 0 0-.001-.103 16.52 16.52 0 0 0-.041-1.174c-.045-.547-.14-1.027-.366-1.471a3.75 3.75 0 0 0-1.639-1.64c-.444-.226-.924-.32-1.47-.365-.531-.043-1.187-.043-2-.043H6.8ZM5.25 12a.75.75 0 0 1 .75-.75h3a.75.75 0 0 1 0 1.5H6a.75.75 0 0 1-.75-.75Zm14.22 2.47a.75.75 0 0 1 1.06 0l3 3a.75.75 0 0 1 0 1.06l-3 3a.75.75 0 1 1-1.06-1.06l1.72-1.72H16a.75.75 0 1 1 0-1.5h5.19l-1.72-1.72a.75.75 0 0 1 0-1.06Z" fill="#151E28"/></svg>