<svg viewBox="0 0 24 24" fill="none" xmlns="http://www.w3.org/2000/svg"><path fill-rule="evenodd" clip-rule="evenodd" d="M6.75 14.8c0 .572 0 .957.025 1.252.023.288.065.425.111.515.12.236.311.427.547.547.09.046.227.088.514.111.296.024.68.025 1.253.025H22a.75.75 0 0 1 0 1.5H9.17c-.535 0-.98 0-1.345-.03-.38-.03-.736-.098-1.073-.27a2.75 2.75 0 0 1-1.202-1.2c-.172-.338-.24-.694-.27-1.074-.03-.365-.03-.81-.03-1.345V8.5a.75.75 0 0 1 1.5 0v6.3ZM5.25 3.5V2a.75.75 0 0 1 1.5 0v1.5a.75.75 0 1 1-1.5 0Zm12 5.7c0-.572 0-.957-.025-1.253-.023-.287-.065-.424-.111-.514a1.25 1.25 0 0 0-.547-.547c-.09-.046-.227-.088-.515-.111-.295-.024-.68-.025-1.252-.025H2a.75.75 0 0 1 0-1.5h12.83c.535 0 .98 0 1.345.03.38.03.736.098 1.073.27a2.75 2.75 0 0 1 1.202 1.202c.172.337.24.693.27 1.073.03.365.03.81.03 1.344V15.5a.75.75 0 0 1-1.5 0V9.2Zm1.5 11.3V22a.75.75 0 0 1-1.5 0v-1.5a.75.75 0 0 1 1.5 0Z" fill="#151E28"/></svg>