<svg viewBox="0 0 24 24" fill="none" xmlns="http://www.w3.org/2000/svg"><path fill-rule="evenodd" clip-rule="evenodd" d="M6.72 6.66a8.3 8.3 0 0 0-1.06 1.061l.86.86a.75.75 0 1 0 1.06-1.06l-.86-.86Zm-2.936 5.59a8.355 8.355 0 0 0 0 1.5H5a.75.75 0 0 0 0-1.5H3.784Zm16.432 1.5a8.377 8.377 0 0 0 0-1.5H19a.75.75 0 0 0 0 1.5h1.216ZM18.34 7.72a8.296 8.296 0 0 0-1.061-1.06l-.86.86a.75.75 0 1 0 1.06 1.06l.86-.86ZM12 3.25A9.75 9.75 0 0 0 2.25 13a9.726 9.726 0 0 0 3.177 7.202c.47.43 1.122.52 1.675.325a14.696 14.696 0 0 1 9.796 0 1.659 1.659 0 0 0 1.675-.325A9.727 9.727 0 0 0 21.75 13 9.75 9.75 0 0 0 12 3.25ZM10.75 14a1.25 1.25 0 1 1 2.5 0 1.25 1.25 0 0 1-2.5 0Zm-1.5 0a2.75 2.75 0 0 1 2-2.646V7a.75.75 0 0 1 1.5 0v4.354A2.751 2.751 0 1 1 9.25 14Z" fill="#151E28"/></svg>