<svg viewBox="0 0 24 24" fill="none" xmlns="http://www.w3.org/2000/svg"><path fill-rule="evenodd" clip-rule="evenodd" d="M15.35 3.85a.85.85 0 1 1-1.7 0 .85.85 0 0 1 1.7 0Zm-2.586 4.158a4.058 4.058 0 0 1 5.228 5.228.75.75 0 0 0 1.404.528 5.558 5.558 0 0 0-7.16-7.16.75.75 0 0 0 .528 1.404ZM5.39 19.229a2.511 2.511 0 0 0-.012 1.506C3.08 20.55 1.25 18.664 1.25 16.333c0-2.15 1.559-3.923 3.605-4.329a4.751 4.751 0 0 1 9.29 0c2.046.406 3.605 2.179 3.605 4.33 0 2.33-1.83 4.215-4.127 4.4a2.484 2.484 0 0 0-.1-1.734 2.497 2.497 0 0 0-.125-2.25 2.496 2.496 0 0 0-1.886-1.235A2.496 2.496 0 0 0 9.5 14.5c-.825 0-1.556.4-2.012 1.016a2.496 2.496 0 0 0-1.885 1.234A2.496 2.496 0 0 0 5.477 19a2.51 2.51 0 0 0-.087.23ZM9.5 16.25a.75.75 0 0 1 .75.75v.701l.607-.35a.75.75 0 0 1 .75 1.299L11 19l.607.35a.75.75 0 0 1-.75 1.3l-.607-.351V21a.75.75 0 0 1-1.5 0v-.7l-.607.35a.75.75 0 0 1-.75-1.3L8 19l-.607-.35a.75.75 0 1 1 .75-1.3l.607.35V17a.75.75 0 0 1 .75-.75Zm11.65-4.9a.85.85 0 1 0 1.7 0 .85.85 0 0 0-1.7 0Zm-.566-4.724a.85.85 0 1 1-1.202-1.202.85.85 0 0 1 1.202 1.202ZM8.5 5.5a.85.85 0 1 0 1.202 1.202A.85.85 0 0 0 8.5 5.5Z" fill="#151E28"/></svg>