<svg viewBox="0 0 24 24" fill="none" xmlns="http://www.w3.org/2000/svg"><path fill-rule="evenodd" clip-rule="evenodd" d="M15.35 3.85a.85.85 0 1 1-1.7 0 .85.85 0 0 1 1.7 0Zm-2.586 4.158a4.058 4.058 0 0 1 5.228 5.228.75.75 0 0 0 1.404.528 5.558 5.558 0 0 0-7.16-7.16.75.75 0 1 0 .528 1.404ZM5.512 19.241a2.496 2.496 0 0 0 .703 1.51H5.75c-2.47 0-4.5-1.962-4.5-4.418 0-2.15 1.559-3.922 3.605-4.328a4.751 4.751 0 0 1 9.29 0c2.046.406 3.605 2.178 3.605 4.329 0 2.455-2.03 4.416-4.5 4.416h-.412l.242-.363c.083-.124.153-.254.211-.387l.01-.023a2.494 2.494 0 0 0-.097-2.157 2.498 2.498 0 0 0-.866-.932 2.501 2.501 0 0 0-4.418-2.275l-2 3a2.5 2.5 0 0 0-.408 1.628Zm4.904-3.865a.75.75 0 0 1 .208 1.04L9.401 18.25H11a.75.75 0 0 1 .624 1.166l-2 3a.75.75 0 1 1-1.248-.832l1.223-1.834H8a.75.75 0 0 1-.624-1.166l2-3a.75.75 0 0 1 1.04-.208ZM21.15 11.35a.85.85 0 1 0 1.7 0 .85.85 0 0 0-1.7 0Zm-.566-4.724a.85.85 0 1 1-1.202-1.202.85.85 0 0 1 1.202 1.202ZM8.5 5.5a.85.85 0 1 0 1.202 1.202A.85.85 0 0 0 8.5 5.5Z" fill="#151E28"/></svg>