<svg viewBox="0 0 24 24" fill="none" xmlns="http://www.w3.org/2000/svg"><path fill-rule="evenodd" clip-rule="evenodd" d="M15.35 3.85a.85.85 0 1 1-1.7 0 .85.85 0 0 1 1.7 0Zm-2.586 4.158a4.058 4.058 0 0 1 5.228 5.228.75.75 0 0 0 1.404.528 5.558 5.558 0 0 0-7.16-7.16.75.75 0 1 0 .528 1.404Zm-7.91 3.996a4.751 4.751 0 0 1 9.291 0c2.046.406 3.605 2.179 3.605 4.33 0 2.454-2.03 4.416-4.5 4.416h-7.5c-2.47 0-4.5-1.962-4.5-4.417 0-2.15 1.559-3.923 3.605-4.329Zm16.296-.654a.85.85 0 1 0 1.7 0 .85.85 0 0 0-1.7 0Zm-.566-4.724a.85.85 0 1 1-1.202-1.202.85.85 0 0 1 1.202 1.202ZM8.5 5.5a.85.85 0 1 0 1.202 1.202A.85.85 0 0 0 8.5 5.5Zm11 10.952a.85.85 0 1 0 1.202 1.202.85.85 0 0 0-1.202-1.202Z" fill="#151E28"/></svg>