<svg viewBox="0 0 24 24" fill="none" xmlns="http://www.w3.org/2000/svg"><path fill-rule="evenodd" clip-rule="evenodd" d="M15.35 3.85a.85.85 0 1 1-1.7 0 .85.85 0 0 1 1.7 0Zm-2.586 4.158a4.058 4.058 0 0 1 5.228 5.228.75.75 0 0 0 1.404.528 5.558 5.558 0 0 0-7.16-7.16.75.75 0 1 0 .528 1.404Zm-9.971 8.817a2.489 2.489 0 0 0-.287 1.349 2.5 2.5 0 0 0 1.298 2.022c.03.056.064.111.099.165-1.559-.69-2.653-2.226-2.653-4.028 0-2.15 1.559-3.923 3.605-4.329a4.751 4.751 0 0 1 9.29 0c2.046.406 3.605 2.179 3.605 4.33 0 1.801-1.094 3.337-2.653 4.027a2.49 2.49 0 0 0 .099-.165 2.5 2.5 0 0 0 1.298-2.022l.001-.02a2.49 2.49 0 0 0-.288-1.33 2.511 2.511 0 0 0-1.011-1.02 2.5 2.5 0 0 0-4.392 0A2.504 2.504 0 0 0 9.55 17.5a2.76 2.76 0 0 0-.1 0 2.504 2.504 0 0 0-1.254-1.696 2.5 2.5 0 0 0-4.392 0 2.51 2.51 0 0 0-1.011 1.021ZM6 16.25a.75.75 0 0 1 .75.75v.25H7a.75.75 0 0 1 0 1.5h-.25V19a.75.75 0 0 1-1.5 0v-.25H5a.75.75 0 0 1 0-1.5h.25V17a.75.75 0 0 1 .75-.75Zm7 0a.75.75 0 0 1 .75.75v.25H14a.75.75 0 0 1 0 1.5h-.25V19a.75.75 0 0 1-1.5 0v-.25H12a.75.75 0 0 1 0-1.5h.25V17a.75.75 0 0 1 .75-.75Zm-3.5 3a.75.75 0 0 1 .75.75v.25h.25a.75.75 0 0 1 0 1.5h-.25V22a.75.75 0 0 1-1.5 0v-.25H8.5a.75.75 0 0 1 0-1.5h.25V20a.75.75 0 0 1 .75-.75Zm11.65-7.9a.85.85 0 1 0 1.7 0 .85.85 0 0 0-1.7 0Zm-.566-4.724a.85.85 0 1 1-1.202-1.202.85.85 0 0 1 1.202 1.202ZM8.5 5.5a.85.85 0 1 0 1.202 1.202A.85.85 0 0 0 8.5 5.5Z" fill="#151E28"/></svg>