<svg viewBox="0 0 24 24" fill="none" xmlns="http://www.w3.org/2000/svg"><path fill-rule="evenodd" clip-rule="evenodd" d="M15.35 3.85a.85.85 0 1 1-1.7 0 .85.85 0 0 1 1.7 0Zm-2.586 4.158a4.058 4.058 0 0 1 5.228 5.228.75.75 0 0 0 1.404.528 5.558 5.558 0 0 0-7.16-7.16.75.75 0 1 0 .528 1.404ZM15 18v2c0 .142-.012.281-.035.417 1.629-.66 2.785-2.231 2.785-4.084 0-2.15-1.559-3.923-3.605-4.329a4.751 4.751 0 0 0-9.29 0c-2.046.406-3.605 2.179-3.605 4.33 0 .65.142 1.265.398 1.819.067-.188.158-.37.272-.54l.21-.316.62-.93 1.17-1.754a2.5 2.5 0 0 1 4.418 2.275c.268.17.505.392.694.656a2.513 2.513 0 0 1 1.007.014A2.5 2.5 0 0 1 15 18Zm-1.75 0a.75.75 0 0 0-1.5 0v2a.75.75 0 0 0 1.5 0v-2Zm-3 2a.75.75 0 0 0-1.5 0v2a.75.75 0 0 0 1.5 0v-2Zm-3.834-4.624a.75.75 0 0 1 .208 1.04L5.401 18.25H7a.75.75 0 0 1 .624 1.166l-2 3a.75.75 0 1 1-1.248-.832l1.223-1.834H4a.75.75 0 0 1-.624-1.166l2-3a.75.75 0 0 1 1.04-.208ZM21.15 11.35a.85.85 0 1 0 1.7 0 .85.85 0 0 0-1.7 0Zm-.566-4.724a.85.85 0 1 1-1.202-1.202.85.85 0 0 1 1.202 1.202ZM8.5 5.5a.85.85 0 1 0 1.202 1.202A.85.85 0 0 0 8.5 5.5Z" fill="#151E28"/></svg>