<svg viewBox="0 0 24 24" fill="none" xmlns="http://www.w3.org/2000/svg"><path fill-rule="evenodd" clip-rule="evenodd" d="M15.35 3.85a.85.85 0 1 1-1.7 0 .85.85 0 0 1 1.7 0Zm-2.586 4.158a4.058 4.058 0 0 1 5.228 5.228.75.75 0 0 0 1.404.528 5.558 5.558 0 0 0-7.16-7.16.75.75 0 1 0 .528 1.404Zm.725 11.233c-.058-.718-.34-1.315-.5-1.627a9.175 9.175 0 0 0-.71-1.137 14.878 14.878 0 0 0-.89-1.115l-.02-.022-.006-.008-.003-.002v-.001h-.001l-1.795 1.614.494-.445v.001l.002.002.004.004.014.017a9.034 9.034 0 0 1 .233.272c.148.178.347.427.548.705.198.276.41.596.574.916.152.296.317.69.317 1.085 0 1.274-1.113 2.25-2.25 2.25s-2.25-.976-2.25-2.25c0-.395.165-.79.317-1.085.165-.32.376-.64.574-.916a13.15 13.15 0 0 1 .78-.977l.015-.017.004-.004.002-.002.498.447a839.838 839.838 0 0 0-1.799-1.618l-.001.002-.003.002-.006.008-.02.022a10.584 10.584 0 0 0-.268.314c-.165.198-.39.48-.622.8-.224.312-.49.711-.71 1.138-.16.312-.442.909-.5 1.627a3.982 3.982 0 0 0 .02.746v.007c.032.262.09.515.172.756-2.448-.025-4.453-1.977-4.453-4.417 0-2.15 1.559-3.923 3.605-4.329a4.751 4.751 0 0 1 9.29 0c2.046.406 3.605 2.179 3.605 4.33 0 2.439-2.005 4.39-4.453 4.416a3.886 3.886 0 0 0 .192-1.51Zm-2.13-3.913-1.302 1.17a.75.75 0 0 0-1.114 0l-1.301-1.17a2.5 2.5 0 0 1 3.716 0ZM9.5 18.184a7.989 7.989 0 0 0-.141.192c-.177.245-.34.498-.458.725a2.021 2.021 0 0 0-.124.286.507.507 0 0 0-.027.113c0 .393.387.75.75.75s.75-.357.75-.75a.494.494 0 0 0-.027-.113 2.017 2.017 0 0 0-.124-.286 6.004 6.004 0 0 0-.458-.725 7.989 7.989 0 0 0-.141-.192Zm11.65-6.834a.85.85 0 1 0 1.7 0 .85.85 0 0 0-1.7 0Zm-.566-4.724a.85.85 0 1 1-1.202-1.202.85.85 0 0 1 1.202 1.202ZM8.5 5.5a.85.85 0 1 0 1.202 1.202A.85.85 0 0 0 8.5 5.5Z" fill="#151E28"/></svg>