<svg viewBox="0 0 24 24" fill="none" xmlns="http://www.w3.org/2000/svg"><path fill-rule="evenodd" clip-rule="evenodd" d="M15.35 3.85a.85.85 0 1 1-1.7 0 .85.85 0 0 1 1.7 0Zm-2.586 4.158a4.058 4.058 0 0 1 5.228 5.228.75.75 0 0 0 1.404.528 5.558 5.558 0 0 0-7.16-7.16.75.75 0 1 0 .528 1.404ZM4 18.703V20c0 .142.012.281.035.417-1.629-.66-2.785-2.231-2.785-4.084 0-2.15 1.559-3.923 3.605-4.329a4.751 4.751 0 0 1 9.29 0c2.046.406 3.605 2.179 3.605 4.33 0 1.852-1.156 3.423-2.785 4.083.023-.136.035-.275.035-.417v-2a2.5 2.5 0 0 0-4.961-.442 2.511 2.511 0 0 0-1.078 0A2.5 2.5 0 0 0 4 18v.703Zm2.5-1.453a.75.75 0 0 1 .75.75v2a.75.75 0 0 1-1.5 0v-2a.75.75 0 0 1 .75-.75Zm6 0a.75.75 0 0 1 .75.75v2a.75.75 0 0 1-1.5 0v-2a.75.75 0 0 1 .75-.75Zm-3 2a.75.75 0 0 1 .75.75v2a.75.75 0 0 1-1.5 0v-2a.75.75 0 0 1 .75-.75Zm11.65-7.9a.85.85 0 1 0 1.7 0 .85.85 0 0 0-1.7 0Zm-.566-4.724a.85.85 0 1 1-1.202-1.202.85.85 0 0 1 1.202 1.202ZM8.5 5.5a.85.85 0 1 0 1.202 1.202A.85.85 0 0 0 8.5 5.5Z" fill="#151E28"/></svg>