<svg viewBox="0 0 24 24" fill="none" xmlns="http://www.w3.org/2000/svg"><path fill-rule="evenodd" clip-rule="evenodd" d="M15.35 3.85a.85.85 0 1 1-1.7 0 .85.85 0 0 1 1.7 0Zm-2.586 4.158a4.058 4.058 0 0 1 5.228 5.228.75.75 0 0 0 1.404.528 5.558 5.558 0 0 0-7.16-7.16.75.75 0 1 0 .528 1.404ZM2.75 16.368l-.62.929-.21.316c-.114.17-.205.352-.272.54a4.332 4.332 0 0 1-.398-1.82c0-2.15 1.559-3.923 3.605-4.329a4.751 4.751 0 0 1 9.29 0c2.046.406 3.605 2.179 3.605 4.33 0 1.801-1.094 3.337-2.653 4.027a2.49 2.49 0 0 0 .099-.165 2.5 2.5 0 0 0 1.298-2.022l.001-.02a2.49 2.49 0 0 0-.288-1.33 2.511 2.511 0 0 0-1.011-1.02 2.5 2.5 0 0 0-4.392 0A2.504 2.504 0 0 0 9.55 17.5H9.5c-.16 0-.316.015-.468.044a2.499 2.499 0 0 0-.694-.656 2.5 2.5 0 0 0-4.418-2.275l-1.17 1.755ZM13 16.25a.75.75 0 0 1 .75.75v.25H14a.75.75 0 0 1 0 1.5h-.25V19a.75.75 0 0 1-1.5 0v-.25H12a.75.75 0 0 1 0-1.5h.25V17a.75.75 0 0 1 .75-.75ZM10.25 20a.75.75 0 0 0-1.5 0v.25H8.5a.75.75 0 0 0 0 1.5h.25V22a.75.75 0 0 0 1.5 0v-.25h.25a.75.75 0 0 0 0-1.5h-.25V20Zm-3.834-4.624a.75.75 0 0 1 .208 1.04L5.401 18.25H7a.75.75 0 0 1 .624 1.166l-2 3a.75.75 0 1 1-1.248-.832l1.223-1.834H4a.75.75 0 0 1-.624-1.166l2-3a.75.75 0 0 1 1.04-.208ZM21.15 11.35a.85.85 0 1 0 1.7 0 .85.85 0 0 0-1.7 0Zm-.566-4.724a.85.85 0 1 1-1.202-1.202.85.85 0 0 1 1.202 1.202ZM8.5 5.5a.85.85 0 1 0 1.202 1.202A.85.85 0 0 0 8.5 5.5Z" fill="#151E28"/></svg>