<svg viewBox="0 0 24 24" fill="none" xmlns="http://www.w3.org/2000/svg"><path fill-rule="evenodd" clip-rule="evenodd" d="M15.35 3.85a.85.85 0 1 1-1.7 0 .85.85 0 0 1 1.7 0Zm-2.586 4.158a4.058 4.058 0 0 1 5.228 5.228.75.75 0 0 0 1.404.528 5.558 5.558 0 0 0-7.16-7.16.75.75 0 0 0 .528 1.404Zm1.479 6.075.53-.264.109-.055a2.5 2.5 0 0 1 1.932-.128 4.519 4.519 0 0 0-2.669-1.632 4.751 4.751 0 0 0-9.29 0c-2.046.406-3.605 2.179-3.605 4.329 0 2.455 2.03 4.417 4.5 4.417h5.084a2.513 2.513 0 0 1-.307-1.622 4.325 4.325 0 0 1-2.655-.397l-.99-.495a2.5 2.5 0 0 1 2.236-4.472l.639.32a4.328 4.328 0 0 1 4.486 0Zm6.907-2.733a.85.85 0 1 0 1.7 0 .85.85 0 0 0-1.7 0Zm-.566-4.724a.85.85 0 1 1-1.202-1.202.85.85 0 0 1 1.202 1.202ZM8.5 5.5a.85.85 0 1 0 1.202 1.202A.85.85 0 0 0 8.5 5.5Zm4.146 11.422a1.078 1.078 0 0 0-1.293 0 2.577 2.577 0 0 1-2.699.244l-.99-.495a.75.75 0 1 1 .671-1.342l.99.495c.365.183.802.143 1.129-.102a2.578 2.578 0 0 1 3.092 0c.327.245.764.285 1.129.102l.99-.495a.75.75 0 1 1 .67 1.342l-.99.495a2.577 2.577 0 0 1-2.699-.244Zm3.707 3.5c.384-.287.91-.287 1.293 0a2.58 2.58 0 0 0 2.7.244l.99-.495a.75.75 0 1 0-.671-1.342l-.99.495a1.077 1.077 0 0 1-1.128-.102 2.578 2.578 0 0 0-3.094 0 1.077 1.077 0 0 1-1.128.102l-.99-.495a.75.75 0 1 0-.67 1.342l.99.495a2.577 2.577 0 0 0 2.699-.244Z" fill="#151E28"/></svg>