<svg viewBox="0 0 24 24" fill="none" xmlns="http://www.w3.org/2000/svg"><path fill-rule="evenodd" clip-rule="evenodd" d="M17 2.25h.095c.838 0 1.372 0 1.832.091a4.75 4.75 0 0 1 3.732 3.732c.091.46.091.994.091 1.832v8.19c0 .838 0 1.372-.091 1.832a4.75 4.75 0 0 1-3.732 3.732c-.46.091-.994.091-1.832.091H6.905c-.838 0-1.372 0-1.832-.091a4.75 4.75 0 0 1-3.732-3.732c-.091-.46-.091-.994-.091-1.832v-8.19c0-.838 0-1.372.091-1.832a4.75 4.75 0 0 1 3.732-3.732c.46-.091.994-.091 1.832-.091H17Zm-10 6a.75.75 0 0 1 .75.75v2.25h2.5V9a.75.75 0 0 1 1.5 0v6a.75.75 0 0 1-1.5 0v-2.25h-2.5V15a.75.75 0 0 1-1.5 0V9A.75.75 0 0 1 7 8.25Zm8 1.5a.25.25 0 0 0-.25.25v4c0 .138.112.25.25.25a2.25 2.25 0 0 0 0-4.5Zm-1.75.25c0-.966.784-1.75 1.75-1.75a3.75 3.75 0 1 1 0 7.5A1.75 1.75 0 0 1 13.25 14v-4Z" fill="#151E28"/></svg>