<svg viewBox="0 0 24 24" fill="none" xmlns="http://www.w3.org/2000/svg"><path fill-rule="evenodd" clip-rule="evenodd" d="M15.175 4.27a.752.752 0 0 0-.18-.02l-5.643.038h-.033c-1.086.008-1.946.013-2.64.075-.708.062-1.308.187-1.855.47a4.75 4.75 0 0 0-2.06 2.073c-.28.55-.4 1.15-.457 1.86-.057.693-.057 1.554-.057 2.64V15c0 .414.336.75.75.75h9a.75.75 0 0 0 .75-.75V8.6a2.85 2.85 0 0 1 2.85-2.85h.018c.789 0 1.032 0 1.274.02.108.008.216.02.371.039l.152.017a.75.75 0 0 0 .17-1.49l-.092-.01c-.653-.076-.656-.076-1.893-.076a4.6 4.6 0 0 0-.425.02Zm2.994 2.98h1.661c.535 0 .98 0 1.345.03.38.03.736.098 1.073.27a2.75 2.75 0 0 1 1.202 1.202c.172.337.24.693.27 1.073.03.365.03.81.03 1.345v5.66c0 .535 0 .98-.03 1.345-.03.38-.098.736-.27 1.073a2.751 2.751 0 0 1-1.202 1.202c-.337.172-.694.24-1.073.27-.365.03-.81.03-1.345.03h-1.66c-.535 0-.98 0-1.345-.03-.38-.03-.736-.098-1.074-.27a2.751 2.751 0 0 1-1.201-1.201c-.172-.338-.24-.694-.27-1.074-.03-.364-.03-.81-.03-1.345v-5.66c0-.535 0-.98.03-1.345.03-.38.098-.736.27-1.073a2.75 2.75 0 0 1 1.2-1.202c.338-.172.694-.24 1.074-.27.364-.03.81-.03 1.345-.03Zm1.63 1.5c.373 0 .665 0 .906.007A.75.75 0 0 1 20 9.25h-2a.75.75 0 0 1-.705-.493c.24-.007.533-.007.905-.007h1.6Zm-14.55 12h-.028c-.22 0-.372 0-.522-.012a3.75 3.75 0 0 1-1.7-.567c-.129-.08-.25-.172-.426-.304l-.023-.017-.012-.009a23.16 23.16 0 0 1-.565-.432c-.13-.105-.29-.24-.402-.4a1.75 1.75 0 0 1 .891-2.674 2.12 2.12 0 0 1 .562-.079c.183-.006.421-.006.71-.006H12a.75.75 0 0 1 0 1.5H3.75c-.308 0-.52 0-.673.006-.098.003-.146.009-.162.01H2.91a.25.25 0 0 0-.122.367l.003.003c.012.011.047.044.124.106a23.447 23.447 0 0 0 .884.661c.307.194.658.31 1.02.34.083.007.172.007.43.007h7.25a.75.75 0 0 1 0 1.5H5.25Z" fill="#151E28"/></svg>