<svg viewBox="0 0 24 24" fill="none" xmlns="http://www.w3.org/2000/svg"><path fill-rule="evenodd" clip-rule="evenodd" d="M13.652 6.63A.75.75 0 0 0 13 6.25h-2a.75.75 0 0 0 0 1.5h2a.75.75 0 0 0 .652-1.12Zm4.887-2.086a.732.732 0 0 1 .048.029c.092.036.258.117.383.18.126.064.29.149.373.2.26.162.348.233.491.35l.143.118A.75.75 0 0 1 19.5 6.75h-.1c-1.133 0-1.937 0-2.566.052-.62.05-1.005.147-1.31.302a3.25 3.25 0 0 0-1.42 1.42c-.155.305-.251.69-.302 1.31-.051.63-.052 1.434-.052 2.566V15a.75.75 0 0 1-.75.75H3a.75.75 0 0 1-.75-.75v-3.633c0-1.092 0-1.958.057-2.655.058-.714.18-1.317.46-1.868a4.75 4.75 0 0 1 2.077-2.076c.55-.281 1.154-.403 1.868-.461.697-.057 1.563-.057 2.655-.057h5.353c1.606 0 2.744 0 3.62.218l.012.003.025.006a.753.753 0 0 1 .162.067Zm-.37 2.706h1.661c.535 0 .98 0 1.345.03.38.03.736.098 1.073.27a2.75 2.75 0 0 1 1.202 1.202c.172.337.24.693.27 1.073.03.365.03.81.03 1.345v5.66c0 .535 0 .98-.03 1.345-.03.38-.098.736-.27 1.073a2.751 2.751 0 0 1-1.202 1.202c-.337.172-.694.24-1.073.27-.365.03-.81.03-1.345.03h-1.66c-.535 0-.98 0-1.345-.03-.38-.03-.736-.098-1.074-.27a2.751 2.751 0 0 1-1.201-1.201c-.172-.338-.24-.694-.27-1.074-.03-.365-.03-.81-.03-1.345v-5.66c0-.535 0-.98.03-1.345.03-.38.098-.736.27-1.073a2.75 2.75 0 0 1 1.2-1.202c.338-.172.694-.24 1.074-.27.364-.03.81-.03 1.345-.03Zm1.63 1.5c.373 0 .665 0 .906.007A.75.75 0 0 1 20 9.25h-2a.75.75 0 0 1-.705-.493c.24-.007.533-.007.905-.007h1.6Zm-14.55 12h-.028c-.22 0-.372 0-.522-.012a3.75 3.75 0 0 1-1.7-.567c-.129-.08-.25-.172-.426-.304l-.023-.017-.012-.009a21.94 21.94 0 0 1-.565-.432c-.13-.105-.29-.24-.402-.4a1.75 1.75 0 0 1 .891-2.674 2.12 2.12 0 0 1 .562-.079c.183-.006.421-.006.71-.006H13a.75.75 0 0 1 0 1.5H3.75c-.308 0-.52 0-.673.006-.098.003-.146.009-.162.01H2.91a.25.25 0 0 0-.122.367l.003.003c.012.011.047.044.124.106a23.447 23.447 0 0 0 .884.661c.307.194.658.31 1.02.34.083.007.172.007.43.007h8.25a.75.75 0 0 1 0 1.5H5.25Z" fill="#151E28"/></svg>