<svg viewBox="0 0 24 24" fill="none" xmlns="http://www.w3.org/2000/svg"><path fill-rule="evenodd" clip-rule="evenodd" d="M9.25 5a2.75 2.75 0 1 1 5.5 0 2.75 2.75 0 0 1-5.5 0ZM19 9.25a2.75 2.75 0 1 0 0 5.5 2.75 2.75 0 0 0 0-5.5ZM2.25 19a2.75 2.75 0 1 1 5.5 0 2.75 2.75 0 0 1-5.5 0ZM12 16.25a2.75 2.75 0 1 0 0 5.5 2.75 2.75 0 0 0 0-5.5Zm7 0a2.75 2.75 0 1 0 0 5.5 2.75 2.75 0 0 0 0-5.5ZM9.25 12a2.75 2.75 0 1 1 5.5 0 2.75 2.75 0 0 1-5.5 0ZM5 9.25a2.75 2.75 0 1 0 0 5.5 2.75 2.75 0 0 0 0-5.5Zm14-7a2.75 2.75 0 1 0 0 5.5 2.75 2.75 0 0 0 0-5.5ZM2.25 5a2.75 2.75 0 1 1 5.5 0 2.75 2.75 0 0 1-5.5 0Z" fill="#151E28"/></svg>