<svg viewBox="0 0 24 24" fill="none" xmlns="http://www.w3.org/2000/svg"><path fill-rule="evenodd" clip-rule="evenodd" d="M2.25 3A.75.75 0 0 1 3 2.25h18a.75.75 0 0 1 0 1.5H3A.75.75 0 0 1 2.25 3ZM8.2 7.25h-.03c-.535 0-.98 0-1.345.03-.38.03-.736.098-1.073.27A2.75 2.75 0 0 0 4.55 8.752c-.172.337-.24.693-.27 1.073-.03.365-.03.81-.03 1.345v1.66c0 .535 0 .98.03 1.345.03.38.098.736.27 1.073a2.75 2.75 0 0 0 1.202 1.202c.337.172.693.24 1.073.27.365.03.81.03 1.344.03h7.661c.535 0 .98 0 1.345-.03.38-.03.736-.098 1.073-.27a2.751 2.751 0 0 0 1.202-1.201c.172-.338.24-.694.27-1.074.03-.365.03-.81.03-1.345v-1.66c0-.535 0-.98-.03-1.345-.03-.38-.098-.736-.27-1.073a2.75 2.75 0 0 0-1.2-1.202c-.338-.172-.694-.24-1.074-.27-.365-.03-.81-.03-1.345-.03H8.2Zm-5.2 13a.75.75 0 0 0 0 1.5h18a.75.75 0 0 0 0-1.5H3Z" fill="#151E28"/></svg>