<svg viewBox="0 0 24 24" fill="none" xmlns="http://www.w3.org/2000/svg"><path fill-rule="evenodd" clip-rule="evenodd" d="M13.117 2.479a2.75 2.75 0 0 0-2.234 0c-.485.216-.844.614-1.167 1.071-.322.454-.677 1.068-1.115 1.825l-.02.033-5.45 9.413-.018.033c-.44.76-.797 1.375-1.03 1.882-.237.51-.404 1.02-.35 1.55a2.75 2.75 0 0 0 1.119 1.938c.43.313.956.424 1.515.475.556.051 1.267.051 2.145.051h10.976c.878 0 1.59 0 2.145-.051.56-.051 1.085-.162 1.515-.475a2.75 2.75 0 0 0 1.118-1.939c.055-.529-.112-1.04-.348-1.55-.234-.506-.59-1.121-1.03-1.881l-.02-.033-5.45-9.413-.019-.033c-.438-.758-.793-1.37-1.114-1.825-.324-.457-.683-.855-1.168-1.071ZM12.75 9a.75.75 0 0 0-1.5 0v.29c-.35.042-.7.125-1.01.285a1.785 1.785 0 0 0-.728.675 2.002 2.002 0 0 0-.262 1.036c0 .775.471 1.293.94 1.628.317.227.697.415 1.06.578v1.629a1.4 1.4 0 0 1-.259-.129c-.232-.149-.241-.264-.241-.278a.75.75 0 0 0-1.5 0c0 .697.438 1.224.93 1.54.31.2.676.342 1.07.422V17a.75.75 0 0 0 1.5 0v-.29c.35-.042.7-.125 1.01-.285.283-.147.544-.364.728-.675.183-.31.262-.662.262-1.036 0-.775-.471-1.293-.94-1.628-.317-.227-.697-.415-1.06-.578V10.88a1.4 1.4 0 0 1 .259.129c.232.149.241.264.241.278a.75.75 0 0 0 1.5 0c0-.697-.438-1.224-.93-1.54-.31-.2-.676-.342-1.07-.422V9Zm-1.82 1.907c.08-.041.185-.075.32-.1v1.008a2.83 2.83 0 0 1-.19-.122c-.281-.201-.31-.325-.31-.407 0-.162.033-.238.052-.27a.292.292 0 0 1 .129-.109Zm1.82 4.287v-1.01c.068.04.13.081.19.123.281.201.31.325.31.407 0 .162-.033.238-.052.27a.292.292 0 0 1-.129.109 1.156 1.156 0 0 1-.319.1Z" fill="#151E28"/></svg>