<svg viewBox="0 0 24 24" fill="none" xmlns="http://www.w3.org/2000/svg"><path fill-rule="evenodd" clip-rule="evenodd" d="M12.75 3a.75.75 0 0 0-1.5 0v1.263c-1.136.043-2.235.2-3.112.624-.55.267-1.036.648-1.378 1.188-.343.54-.51 1.185-.51 1.925 0 1.37.875 2.318 1.896 2.999.888.591 2.015 1.07 3.104 1.508v5.706c-.955-.095-1.786-.367-2.4-.735-.784-.47-1.1-1.017-1.1-1.478a.75.75 0 0 0-1.5 0c0 1.195.804 2.15 1.829 2.764.863.518 1.967.856 3.171.955V21a.75.75 0 0 0 1.5 0v-1.263c1.136-.043 2.235-.2 3.112-.624.55-.267 1.036-.648 1.378-1.188.343-.54.51-1.185.51-1.925 0-1.37-.875-2.318-1.896-2.999-.887-.591-2.015-1.07-3.104-1.508V5.787c.955.095 1.786.367 2.4.735.784.47 1.1 1.017 1.1 1.478a.75.75 0 0 0 1.5 0c0-1.195-.804-2.15-1.829-2.764-.863-.518-1.967-.856-3.171-.955V3Zm-1.5 2.765c-1.023.043-1.86.183-2.459.473-.354.17-.601.383-.765.64-.163.257-.276.612-.276 1.122 0 .63.375 1.182 1.229 1.751.62.414 1.404.775 2.271 1.136V5.765Zm1.5 7.348v5.122c1.023-.043 1.86-.183 2.46-.473.353-.17.6-.383.764-.64.163-.258.276-.612.276-1.122 0-.63-.375-1.182-1.229-1.751-.62-.414-1.404-.775-2.271-1.136Z" fill="#151E28"/></svg>