<svg viewBox="0 0 24 24" fill="none" xmlns="http://www.w3.org/2000/svg"><path fill-rule="evenodd" clip-rule="evenodd" d="M9.326 2.25h-.073c-.419 0-.748 0-1.066.076a2.75 2.75 0 0 0-.795.33c-.28.17-.512.404-.808.7l-.052.051-3.125 3.125-.051.052c-.296.296-.53.528-.7.808a2.75 2.75 0 0 0-.33.795c-.076.318-.076.647-.076 1.066v5.494c0 .419 0 .748.076 1.067.067.28.179.548.33.794.17.28.404.513.7.808l.051.052 3.125 3.125.052.051c.296.297.528.53.808.7.246.152.514.263.795.33.318.076.647.076 1.066.076h5.494c.419 0 .748 0 1.067-.076a2.71 2.71 0 0 0 .794-.33c.28-.17.513-.403.808-.7l.052-.05 3.125-3.126.051-.052c.297-.295.53-.528.7-.808a2.71 2.71 0 0 0 .33-.794c.076-.319.076-.648.076-1.067V9.253c0-.419 0-.748-.076-1.066a2.75 2.75 0 0 0-.33-.795c-.17-.28-.403-.512-.7-.808l-.05-.052-3.126-3.125-.052-.051c-.295-.296-.528-.53-.808-.7a2.75 2.75 0 0 0-.794-.33c-.319-.076-.648-.076-1.067-.076H9.325ZM13.5 7a1.5 1.5 0 1 1-3 0 1.5 1.5 0 0 1 3 0ZM12 13.5a1.5 1.5 0 1 0 0-3 1.5 1.5 0 0 0 0 3Zm1.5 3.5a1.5 1.5 0 1 1-3 0 1.5 1.5 0 0 1 3 0Z" fill="#151E28"/></svg>