<svg viewBox="0 0 24 24" fill="none" xmlns="http://www.w3.org/2000/svg"><path fill-rule="evenodd" clip-rule="evenodd" d="M1.47 1.47a.75.75 0 0 1 1.06 0l20 20a.75.75 0 1 1-1.06 1.06l-2.831-2.83A8.75 8.75 0 0 1 3.249 14c0-2.27 1.279-4.71 2.796-6.895L1.47 2.53a.75.75 0 0 1 0-1.06Zm9.596-.005a2.73 2.73 0 0 1 1.868 0c.403.145.731.41 1.044.722.305.304.653.714 1.077 1.212l.02.025c1.285 1.512 2.691 3.265 3.778 5.06 1.077 1.78 1.897 3.694 1.897 5.516 0 .37-.023.735-.068 1.093a.75.75 0 1 1-1.488-.186c.037-.297.056-.6.056-.907 0-1.408-.65-3.034-1.68-4.74-1.023-1.689-2.365-3.367-3.638-4.865-.45-.53-.757-.89-1.013-1.146-.254-.252-.396-.338-.494-.373a1.23 1.23 0 0 0-.85 0c-.097.035-.24.12-.494.374-.256.255-.564.617-1.014 1.146l-.075.089a.75.75 0 0 1-1.144-.97l.076-.09.021-.024c.424-.5.772-.909 1.077-1.213.313-.312.641-.577 1.044-.723Z" fill="#151E28"/></svg>