<svg viewBox="0 0 24 24" fill="none" xmlns="http://www.w3.org/2000/svg"><path fill-rule="evenodd" clip-rule="evenodd" d="M8.4 3.25h-.033c-1.092 0-1.958 0-2.655.057-.714.058-1.317.18-1.868.46a4.75 4.75 0 0 0-2.076 2.077c-.281.55-.403 1.154-.461 1.868-.057.697-.057 1.563-.057 2.655v3.266c0 1.092 0 1.958.057 2.655.058.714.18 1.317.46 1.869a4.75 4.75 0 0 0 2.077 2.075c.55.281 1.154.403 1.868.461.697.057 1.563.057 2.655.057h7.266c1.092 0 1.958 0 2.655-.057.714-.058 1.317-.18 1.869-.46a4.75 4.75 0 0 0 2.075-2.076c.281-.552.403-1.155.461-1.869.057-.697.057-1.563.057-2.655v-3.266c0-1.092 0-1.958-.057-2.655-.058-.714-.18-1.317-.46-1.868a4.75 4.75 0 0 0-2.076-2.076c-.552-.281-1.155-.403-1.869-.461-.697-.057-1.563-.057-2.655-.057H8.4ZM4.39 8.564a.75.75 0 0 1 1.046-.174l3.28 2.343c1.39.992 1.926 1.36 2.486 1.502a3.25 3.25 0 0 0 1.596 0c.56-.142 1.096-.51 2.486-1.502l3.28-2.343a.75.75 0 1 1 .872 1.22l-3.28 2.343-.132.095c-1.21.865-1.989 1.42-2.858 1.64a4.748 4.748 0 0 1-2.332 0c-.87-.22-1.647-.775-2.858-1.64l-.132-.095-3.28-2.343a.75.75 0 0 1-.174-1.046Z" fill="#151E28"/></svg>