<svg viewBox="0 0 24 24" fill="none" xmlns="http://www.w3.org/2000/svg"><path fill-rule="evenodd" clip-rule="evenodd" d="M10.367 2.25h5.266c1.092 0 1.958 0 2.655.057.714.058 1.317.18 1.869.46a4.75 4.75 0 0 1 2.075 2.077c.281.55.403 1.154.461 1.868.057.697.057 1.563.057 2.655v1.266c0 1.092 0 1.958-.057 2.655-.058.714-.18 1.317-.46 1.868a4.75 4.75 0 0 1-2.076 2.076c-.552.281-1.155.403-1.869.461-.697.057-1.563.057-2.655.057h-5.266c-1.092 0-1.958 0-2.655-.057-.714-.058-1.317-.18-1.868-.46a4.75 4.75 0 0 1-2.076-2.077c-.281-.55-.403-1.154-.461-1.868-.057-.697-.057-1.563-.057-2.655V9.367c0-1.092 0-1.958.057-2.655.058-.714.18-1.317.46-1.868a4.75 4.75 0 0 1 2.077-2.076c.55-.281 1.154-.403 1.868-.461.697-.057 1.563-.057 2.655-.057ZM1 5.25a.75.75 0 0 1 .75.75v4.4c0 1.692 0 2.917.08 3.88.077.954.228 1.585.492 2.104a5.25 5.25 0 0 0 2.295 2.294c.518.264 1.15.415 2.103.493.963.078 2.187.079 3.88.079H18a.75.75 0 0 1 0 1.5h-7.434c-1.651 0-2.937 0-3.968-.084-1.047-.086-1.897-.262-2.662-.652a6.75 6.75 0 0 1-2.95-2.95C.596 16.3.42 15.45.334 14.402.25 13.37.25 12.085.25 10.434V6A.75.75 0 0 1 1 5.25Zm5.424 1.27a.75.75 0 0 1 1.056-.096L9.383 8.01c.737.614 1.26 1.048 1.697 1.36.43.308.736.465 1.028.548a3.25 3.25 0 0 0 1.784 0c.292-.083.598-.24 1.028-.547.438-.313.96-.747 1.697-1.361l1.903-1.586a.75.75 0 1 1 .96 1.152l-1.903 1.586-.022.019c-.71.591-1.274 1.062-1.764 1.41-.502.359-.966.621-1.488.77a4.75 4.75 0 0 1-2.606 0c-.521-.149-.986-.411-1.488-.77-.49-.348-1.054-.819-1.764-1.41l-.022-.02L6.52 7.577a.75.75 0 0 1-.096-1.056Z" fill="#151E28"/></svg>