<svg viewBox="0 0 24 24" fill="none" xmlns="http://www.w3.org/2000/svg"><path fill-rule="evenodd" clip-rule="evenodd" d="M9.4 2.25h-.033c-1.092 0-1.958 0-2.655.057-.714.058-1.317.18-1.868.46a4.75 4.75 0 0 0-2.076 2.077c-.281.55-.403 1.154-.461 1.868-.057.697-.057 1.563-.057 2.655v5.266c0 1.092 0 1.958.057 2.655.058.714.18 1.317.46 1.869a4.75 4.75 0 0 0 2.077 2.075c.55.281 1.154.403 1.868.461.697.057 1.563.057 2.655.057h5.266c1.092 0 1.958 0 2.655-.057.714-.058 1.317-.18 1.869-.46a4.75 4.75 0 0 0 2.075-2.076c.281-.552.403-1.155.461-1.869.057-.697.057-1.563.057-2.655V9.367c0-1.092 0-1.958-.057-2.655-.058-.714-.18-1.317-.46-1.868a4.75 4.75 0 0 0-2.076-2.076c-.552-.281-1.155-.403-1.869-.461-.697-.057-1.563-.057-2.655-.057H9.4ZM6.25 13a.75.75 0 0 1 .75-.75h.256a4.89 4.89 0 0 1 0-.5H7a.75.75 0 0 1 0-1.5h.578c.685-1.753 2.37-3 4.353-3 1.484 0 2.803.701 3.658 1.786a.75.75 0 1 1-1.178.928 3.15 3.15 0 0 0-2.48-1.214c-1.12 0-2.114.595-2.681 1.5H12a.75.75 0 0 1 0 1.5H8.76a3.383 3.383 0 0 0 0 .5H11a.75.75 0 0 1 0 1.5H9.25c.567.905 1.56 1.5 2.681 1.5 1 0 1.894-.47 2.48-1.214a.75.75 0 1 1 1.178.928 4.649 4.649 0 0 1-3.658 1.786c-1.984 0-3.668-1.248-4.353-3H7a.75.75 0 0 1-.75-.75Z" fill="#151E28"/></svg>