<svg viewBox="0 0 24 24" fill="none" xmlns="http://www.w3.org/2000/svg"><path fill-rule="evenodd" clip-rule="evenodd" d="M9.326 2.25h-.073c-.419 0-.748 0-1.066.076a2.75 2.75 0 0 0-.795.33c-.28.17-.512.404-.808.7l-.052.051-3.125 3.125-.051.052c-.296.296-.53.528-.7.808a2.75 2.75 0 0 0-.33.795c-.076.318-.076.647-.076 1.066v5.494c0 .419 0 .748.076 1.067.067.28.179.548.33.794.17.28.404.513.7.808l.051.052 3.125 3.125.052.051c.296.297.528.53.808.7.246.152.514.263.795.33.318.076.647.076 1.066.076h5.494c.419 0 .748 0 1.067-.076a2.71 2.71 0 0 0 .794-.33c.28-.17.513-.403.808-.7l.052-.05 3.125-3.126.051-.052c.297-.295.53-.528.7-.808a2.71 2.71 0 0 0 .33-.794c.076-.319.076-.648.076-1.067V9.253c0-.419 0-.748-.076-1.066a2.75 2.75 0 0 0-.33-.795c-.17-.28-.403-.512-.7-.808l-.05-.052-3.126-3.125-.052-.051c-.295-.296-.528-.53-.808-.7a2.75 2.75 0 0 0-.794-.33c-.319-.076-.648-.076-1.067-.076H9.325ZM6.25 13a.75.75 0 0 1 .75-.75h.256a4.89 4.89 0 0 1 0-.5H7a.75.75 0 0 1 0-1.5h.578c.685-1.753 2.37-3 4.353-3 1.484 0 2.803.701 3.658 1.786a.75.75 0 1 1-1.178.928 3.15 3.15 0 0 0-2.48-1.214c-1.12 0-2.114.595-2.681 1.5H12a.75.75 0 0 1 0 1.5H8.76a3.383 3.383 0 0 0 0 .5H11a.75.75 0 0 1 0 1.5H9.25c.567.905 1.56 1.5 2.681 1.5 1 0 1.894-.47 2.48-1.214a.75.75 0 1 1 1.178.928 4.649 4.649 0 0 1-3.658 1.786c-1.984 0-3.668-1.248-4.353-3H7a.75.75 0 0 1-.75-.75Z" fill="#151E28"/></svg>