<svg viewBox="0 0 24 24" fill="none" xmlns="http://www.w3.org/2000/svg"><path fill-rule="evenodd" clip-rule="evenodd" d="M12.884 4.545a.75.75 0 0 0-1.06 1.06l7.07 7.072a.75.75 0 1 0 1.061-1.061 1.25 1.25 0 0 1 0-1.768l.707-.707a3.75 3.75 0 0 0-5.303-5.303l-.707.707a1.25 1.25 0 0 1-1.768 0Zm0 3.889a.75.75 0 1 0-1.06-1.06L5.82 13.375l-.037.038c-.363.362-.597.596-.796.86a4.75 4.75 0 0 0-.463.749c-.147.297-.252.61-.414 1.097l-.017.05-.157.473a3.638 3.638 0 0 1-.072.197l-.061.124-.865 1.73a2.137 2.137 0 0 0 2.867 2.868l1.73-.865a3.57 3.57 0 0 1 .19-.088 3.45 3.45 0 0 1 .132-.045l.472-.157.05-.017c.487-.162.8-.267 1.098-.414a4.8 4.8 0 0 0 .748-.463c.265-.2.499-.433.861-.796l.038-.038 6.002-6.002a.75.75 0 0 0-1.06-1.061l-6.003 6.003c-.412.412-.57.567-.741.697-.16.12-.332.227-.512.316-.192.095-.402.167-.955.352l-.473.157-.011.004c-.07.023-.125.041-.18.062a2.868 2.868 0 0 0-.144.06c-.054.024-.105.05-.171.083l-.011.005-1.73.866a.637.637 0 0 1-.856-.856l.865-1.73.006-.011c.033-.066.059-.117.083-.171a2.724 2.724 0 0 0 .122-.324l.004-.012.157-.472c.185-.553.256-.763.352-.955.09-.18.195-.351.316-.512.13-.171.285-.329.697-.741l6.003-6.003Z" fill="#151E28"/></svg>