<svg viewBox="0 0 24 24" fill="none" xmlns="http://www.w3.org/2000/svg"><path fill-rule="evenodd" clip-rule="evenodd" d="M12 2.25c-5.385 0-9.75 4.365-9.75 9.75s4.365 9.75 9.75 9.75 9.75-4.365 9.75-9.75S17.385 2.25 12 2.25ZM16 9a1 1 0 1 1-2 0 1 1 0 0 1 2 0Zm-7 1a1 1 0 1 0 0-2 1 1 0 0 0 0 2Zm-.273 6.184-.002.009v.002l-.002.003v-.001a.75.75 0 0 1-1.45-.379L8 16c-.728-.182-.727-.182-.727-.183v-.004l.002-.006.004-.014a1.352 1.352 0 0 1 .047-.142 2.69 2.69 0 0 1 .147-.32c.138-.255.362-.576.716-.892.722-.641 1.909-1.189 3.811-1.189s3.089.548 3.81 1.19c.355.315.58.636.717.89a2.569 2.569 0 0 1 .194.463l.004.014.001.006.001.003c0 .002 0 .002-.727.184l.728-.182a.75.75 0 1 1-1.459.36 1.076 1.076 0 0 0-.061-.133 1.806 1.806 0 0 0-.394-.484c-.403-.359-1.216-.811-2.814-.811s-2.411.452-2.814.81a1.808 1.808 0 0 0-.394.485 1.081 1.081 0 0 0-.068.152v-.004l.002-.003v-.004l.001-.002Z" fill="#151E28"/></svg>