<svg viewBox="0 0 24 24" fill="none" xmlns="http://www.w3.org/2000/svg"><path fill-rule="evenodd" clip-rule="evenodd" d="M12 2.25c-5.385 0-9.75 4.365-9.75 9.75s4.365 9.75 9.75 9.75 9.75-4.365 9.75-9.75S17.385 2.25 12 2.25ZM9.05 13c-.582 0-.872 0-1.141.207-.195.148-.38.504-.391.749-.015.339.112.52.365.883C8.618 15.889 9.893 17 12 17c2.108 0 3.382-1.11 4.117-2.161.253-.363.38-.544.365-.883-.01-.245-.196-.6-.39-.75-.27-.206-.56-.206-1.141-.206H9.049ZM15 10a1 1 0 1 0 0-2 1 1 0 0 0 0 2Zm-5-1a1 1 0 1 1-2 0 1 1 0 0 1 2 0Z" fill="#151E28"/></svg>