<svg viewBox="0 0 24 24" fill="none" xmlns="http://www.w3.org/2000/svg"><path fill-rule="evenodd" clip-rule="evenodd" d="M12.697 4.395c-.275-.149-.614-.296-.999-.273a1.75 1.75 0 0 0-1.29.69c-.233.308-.298.672-.327.983-.028.31-.028.704-.028 1.16v10.09c0 .456 0 .849.028 1.16.029.31.094.675.326.982.309.408.78.66 1.291.691.385.023.724-.125.999-.273.274-.15.601-.367.98-.62l.03-.02 7.515-5.01.027-.018c.31-.207.585-.39.794-.558.215-.174.444-.395.574-.709l-.693-.287.693.287a1.75 1.75 0 0 0 0-1.34l-.688.285.688-.286c-.13-.313-.359-.535-.574-.708a11.527 11.527 0 0 0-.794-.558l-.027-.018-7.516-5.01-.029-.02a14.001 14.001 0 0 0-.98-.62Zm-9 0c-.275-.149-.614-.296-.999-.273a1.75 1.75 0 0 0-1.29.69c-.233.308-.298.672-.327.983-.028.31-.028.704-.028 1.16v10.09c0 .456 0 .849.028 1.16.029.31.094.675.326.982.309.408.78.66 1.291.691.385.023.724-.125.999-.273.274-.15.601-.367.98-.62l.03-.02.017-.011 4.013-2.842a.75.75 0 0 0 .316-.612v-7a.75.75 0 0 0-.316-.612L4.724 5.046l-.018-.012-.029-.02c-.379-.252-.706-.47-.98-.619Z" fill="#151E28"/></svg>