<svg viewBox="0 0 24 24" fill="none" xmlns="http://www.w3.org/2000/svg"><path fill-rule="evenodd" clip-rule="evenodd" d="M19.75 9v-.025c0-.144 0-.258-.01-.37a2.75 2.75 0 0 0-.644-1.557c-.073-.086-.153-.166-.255-.268l-.018-.017-3.586-3.586-.017-.018a4.57 4.57 0 0 0-.268-.255 2.75 2.75 0 0 0-1.557-.645c-.112-.01-.226-.009-.37-.009H11a.75.75 0 0 0 0 1.5h1.25V7a2.74 2.74 0 0 0 .862 2A2.74 2.74 0 0 0 15 9.75h3.25V12a.75.75 0 0 0 1.5 0V9Zm-14-3A2.25 2.25 0 0 1 8 3.75a.75.75 0 0 0 0-1.5A3.75 3.75 0 0 0 4.25 6a.75.75 0 0 0 1.5 0Zm0 3a.75.75 0 0 0-1.5 0v3a.75.75 0 0 0 1.5 0V9Zm0 6a.75.75 0 0 0-1.5 0v3a.75.75 0 0 0 1.5 0v-3Zm14 0a.75.75 0 0 0-1.5 0v3a.75.75 0 0 0 1.5 0v-3ZM6.876 19.95a.75.75 0 0 0-.752 1.298c.553.32 1.194.502 1.876.502h2a.75.75 0 0 0 0-1.5H8c-.411 0-.794-.11-1.124-.3Zm10.374 1.586a.75.75 0 1 0-.5-1.414 2.248 2.248 0 0 1-.75.128h-3a.75.75 0 0 0 0 1.5h3c.437 0 .858-.075 1.25-.214Z" fill="#151E28"/></svg>