<svg viewBox="0 0 24 24" fill="none" xmlns="http://www.w3.org/2000/svg"><path fill-rule="evenodd" clip-rule="evenodd" d="M2.53 1.47a.75.75 0 0 0-1.06 1.06l2.864 2.865v.001c-.084.6-.084 1.36-.084 2.344v8.492c0 .813 0 1.469.043 2 .045.546.14 1.026.366 1.47a3.75 3.75 0 0 0 1.639 1.64c.444.226.924.32 1.47.365.531.043 1.187.043 2 .043h4.464c.813 0 1.469 0 2-.043.546-.045 1.026-.14 1.47-.366a3.751 3.751 0 0 0 1.377-1.2l2.39 2.39a.75.75 0 1 0 1.061-1.061l-20-20Zm7.27.78h-.003c-.294 0-1.556 0-1.802.002a.75.75 0 0 0 .01 1.5c.24-.002 1.502-.002 1.795-.002h2.45v2.08c0 .535 0 .98.03 1.345.03.38.098.736.27 1.073a2.75 2.75 0 0 0 1.2 1.202c.338.172.694.24 1.074.27.365.03.81.03 1.345.03h2.081V15a.75.75 0 0 0 1.5 0V8.975c0-.144 0-.258-.01-.37a2.75 2.75 0 0 0-.644-1.557c-.073-.086-.153-.166-.255-.268l-.018-.017-3.586-3.586-.017-.018a4.57 4.57 0 0 0-.268-.255 2.75 2.75 0 0 0-1.557-.645c-.112-.01-.226-.009-.37-.009H9.8Zm8.153 5.77c.06.07.112.148.155.23H16.2c-.572 0-.957 0-1.252-.025-.288-.023-.425-.065-.516-.111a1.25 1.25 0 0 1-.546-.547c-.046-.09-.088-.227-.111-.514-.024-.296-.025-.68-.025-1.253V3.892c.082.043.16.095.23.155.034.029.069.063.197.19l3.586 3.586c.127.128.161.163.19.196Z" fill="#151E28"/></svg>