<svg viewBox="0 0 24 24" fill="none" xmlns="http://www.w3.org/2000/svg"><path fill-rule="evenodd" clip-rule="evenodd" d="M12.179 4.467V3.239l3.584 3.584.093.094h-1.227c-.573 0-.957 0-1.253-.025-.287-.024-.424-.065-.515-.112a1.25 1.25 0 0 1-.546-.546c-.046-.09-.088-.228-.112-.515-.024-.296-.024-.68-.024-1.252Zm5.571 3.2v6.565c0 .813 0 1.469-.043 2-.045.546-.14 1.026-.366 1.47a3.75 3.75 0 0 1-1.639 1.64c-.444.226-.924.32-1.47.365-.531.043-1.187.043-2 .043H8.768c-.813 0-1.469 0-2-.043-.546-.045-1.026-.14-1.47-.366a3.75 3.75 0 0 1-1.64-1.639c-.226-.444-.32-.924-.365-1.47-.043-.531-.043-1.187-.043-2V6.768c0-.813 0-1.469.043-2 .045-.546.14-1.026.366-1.47a3.75 3.75 0 0 1 1.639-1.64c.444-.226.924-.32 1.47-.365.531-.043 1.187-.043 2-.043h2.661c.096 0 .19.018.274.052.46.09.89.297 1.249.602.085.073.166.153.268.255l.017.018 3.586 3.586.018.017c.102.102.182.182.255.268.348.41.567.911.633 1.442a.75.75 0 0 1 .021.177Zm3 2.333a.75.75 0 0 0-1.5 0v4c0 1.412 0 2.427-.066 3.223-.064.787-.188 1.295-.397 1.707a4.251 4.251 0 0 1-1.857 1.857c-.412.21-.92.333-1.707.397-.796.065-1.81.066-3.223.066H9a.75.75 0 0 0 0 1.5h3.034c1.371 0 2.447 0 3.311-.07.88-.072 1.607-.221 2.265-.557a5.75 5.75 0 0 0 2.513-2.513c.336-.658.485-1.385.556-2.265.071-.864.071-1.94.071-3.311V10Z" fill="#151E28"/></svg>