<svg viewBox="0 0 24 24" fill="none" xmlns="http://www.w3.org/2000/svg"><path fill-rule="evenodd" clip-rule="evenodd" d="M13.75 5.8V3.892c.082.043.16.095.23.155.034.029.069.063.197.19l3.586 3.586c.127.128.161.163.19.196.06.072.112.149.155.231H16.2c-.572 0-.957 0-1.252-.025-.288-.023-.425-.065-.516-.111a1.25 1.25 0 0 1-.546-.547c-.046-.09-.088-.227-.111-.514-.024-.296-.025-.68-.025-1.253Zm6 10.4V8.975c0-.144 0-.258-.01-.37a2.75 2.75 0 0 0-.644-1.557c-.073-.086-.153-.166-.255-.268l-.018-.017-3.586-3.586-.017-.018a4.57 4.57 0 0 0-.268-.255 2.75 2.75 0 0 0-1.557-.645c-.112-.01-.226-.009-.37-.009H9.768c-.813 0-1.469 0-2 .043-.546.045-1.026.14-1.47.366a3.75 3.75 0 0 0-1.64 1.639c-.226.444-.32.924-.365 1.47-.043.531-.043 1.187-.043 2v8.464c0 .813 0 1.469.043 2 .045.546.14 1.026.366 1.47a3.75 3.75 0 0 0 1.639 1.64c.444.226.924.32 1.47.365.531.043 1.187.043 2 .043h4.464c.813 0 1.469 0 2-.043.546-.045 1.026-.14 1.47-.366a3.75 3.75 0 0 0 1.64-1.639c.226-.444.32-.924.365-1.47.043-.531.043-1.187.043-2V16.2Zm-8.717-3.987a1.25 1.25 0 0 0-1.643.192 4.538 4.538 0 0 0-.172.207 1.25 1.25 0 0 0 .073 1.617c.013.014.03.032.093.094L12 16.94l2.616-2.616c.063-.062.08-.08.093-.094a1.25 1.25 0 0 0 .073-1.617 4.877 4.877 0 0 0-.172-.207 1.25 1.25 0 0 0-1.643-.192 4.431 4.431 0 0 0-.11.082l-.407.305a.75.75 0 0 1-.9 0l-.407-.305a4.431 4.431 0 0 0-.11-.082Zm-2.76-.81a2.75 2.75 0 0 1 3.727-.34l.111-.082a2.75 2.75 0 0 1 3.731.558l.009.01.008.01c.044.054.079.095.109.134a2.75 2.75 0 0 1-.282 3.682l-.01.009-3.146 3.146a.75.75 0 0 1-1.06 0l-3.147-3.146-.009-.01a2.75 2.75 0 0 1-.173-3.815l.008-.01.009-.01c.046-.055.081-.098.115-.135Z" fill="#151E28"/></svg>