<svg viewBox="0 0 24 24" fill="none" xmlns="http://www.w3.org/2000/svg"><path fill-rule="evenodd" clip-rule="evenodd" d="M13 2.25h.025c.144 0 .258 0 .37.01a2.75 2.75 0 0 1 1.557.644c.085.073.166.153.268.255l.017.018 3.586 3.586.018.017c.102.102.182.182.255.268.373.439.598.983.645 1.557.01.112.009.226.009.37v7.257c0 .813 0 1.469-.043 2-.045.546-.14 1.026-.366 1.47a3.75 3.75 0 0 1-1.639 1.64c-.444.226-.924.32-1.47.365-.531.043-1.187.043-2 .043H9.768c-.813 0-1.469 0-2-.043-.546-.045-1.026-.14-1.47-.366a3.75 3.75 0 0 1-1.64-1.639c-.226-.444-.32-.924-.365-1.47-.043-.531-.043-1.187-.043-2V7.768c0-.813 0-1.469.043-2 .045-.546.14-1.026.366-1.47a3.75 3.75 0 0 1 1.639-1.64c.444-.226.924-.32 1.47-.365.531-.043 1.187-.043 2-.043H13Zm5.108 6a1.252 1.252 0 0 0-.155-.23 3.85 3.85 0 0 0-.19-.197l-3.586-3.586a3.792 3.792 0 0 0-.196-.19 1.25 1.25 0 0 0-.231-.155V5.8c0 .572 0 .957.025 1.253.023.287.065.424.111.514.12.236.311.427.546.547.091.046.228.088.515.111.296.024.68.025 1.253.025h1.908Z" fill="#151E28"/></svg>