<svg viewBox="0 0 24 24" fill="none" xmlns="http://www.w3.org/2000/svg"><path fill-rule="evenodd" clip-rule="evenodd" d="M13.75 5.8V3.892c.082.043.16.095.23.155.034.029.069.063.197.19l3.586 3.586c.127.128.161.163.19.196.06.072.112.149.155.231H16.2c-.572 0-.957 0-1.252-.025-.288-.023-.425-.065-.516-.111a1.25 1.25 0 0 1-.546-.547c-.046-.09-.088-.227-.111-.514-.024-.296-.025-.68-.025-1.253Zm6 10.4V8.975c0-.144 0-.258-.01-.37a2.75 2.75 0 0 0-.644-1.557c-.073-.086-.153-.166-.255-.268l-.018-.017-3.586-3.586-.017-.018a4.57 4.57 0 0 0-.268-.255 2.75 2.75 0 0 0-1.557-.645c-.112-.01-.226-.009-.37-.009H9.768c-.813 0-1.469 0-2 .043-.546.045-1.026.14-1.47.366a3.75 3.75 0 0 0-1.64 1.639c-.226.444-.32.924-.365 1.47-.043.531-.043 1.187-.043 2v8.464c0 .813 0 1.469.043 2 .045.546.14 1.026.366 1.47a3.75 3.75 0 0 0 1.639 1.64c.444.226.924.32 1.47.365.531.043 1.187.043 2 .043h4.464c.813 0 1.469 0 2-.043.546-.045 1.026-.14 1.47-.366a3.75 3.75 0 0 0 1.64-1.639c.226-.444.32-.924.365-1.47.043-.531.043-1.187.043-2V16.2Zm-7.188-4.947a.75.75 0 0 1 .685.81l-.5 6a.75.75 0 1 1-1.494-.125l.5-6a.75.75 0 0 1 .81-.685ZM9.95 12.4a.75.75 0 0 1 .15 1.05L8.938 15l1.162 1.55a.75.75 0 1 1-1.2.9l-1.5-2a.75.75 0 0 1 0-.9l1.5-2a.75.75 0 0 1 1.05-.15Zm4.6 0a.75.75 0 0 1 1.05.15l1.5 2c.2.267.2.633 0 .9l-1.5 2a.75.75 0 1 1-1.2-.9L15.562 15 14.4 13.45a.75.75 0 0 1 .15-1.05Z" fill="#151E28"/></svg>