<svg viewBox="0 0 24 24" fill="none" xmlns="http://www.w3.org/2000/svg"><path fill-rule="evenodd" clip-rule="evenodd" d="M8.185 3.25h-.039c-1.105 0-1.986 0-2.658.06-.66.06-1.285.187-1.75.571a2.75 2.75 0 0 0-.995 2.234c.026.602.349 1.151.747 1.682.405.54.994 1.195 1.733 2.016l.026.03 2.55 2.833c.63.7.866.968 1.033 1.264.156.277.27.576.34.886.074.332.078.689.078 1.63v2.308a2.75 2.75 0 0 0 1.52 2.46c1.829.914 3.98-.416 3.98-2.46v-2.842c0-.395.001-.545.014-.687a3.25 3.25 0 0 1 .63-1.642c.085-.114.185-.226.45-.52l2.907-3.23.026-.03c.74-.821 1.329-1.476 1.733-2.016.398-.53.722-1.08.747-1.682a2.75 2.75 0 0 0-.995-2.234c-.465-.384-1.089-.511-1.75-.57-.672-.061-1.553-.061-2.658-.061H8.185Z" fill="#151E28"/></svg>