<svg viewBox="0 0 24 24" fill="none" xmlns="http://www.w3.org/2000/svg"><path fill-rule="evenodd" clip-rule="evenodd" d="M12 3.75A8.25 8.25 0 0 0 3.75 12a.75.75 0 0 1-1.5 0c0-5.385 4.365-9.75 9.75-9.75s9.75 4.365 9.75 9.75a.75.75 0 0 1-.75.75.748.748 0 0 1-.75-.75 8.254 8.254 0 0 0-7.406-8.207A8.347 8.347 0 0 0 12 3.75ZM3.602 15.328a.75.75 0 0 1 1.005.338A8.28 8.28 0 0 0 6.5 18.15a.75.75 0 0 1-1 1.118 9.78 9.78 0 0 1-2.236-2.933.75.75 0 0 1 .338-1.006Zm16.742.133a.75.75 0 0 1 .322 1.01A9.75 9.75 0 0 1 12 21.75a9.736 9.736 0 0 1-3.212-.542.75.75 0 1 1 .494-1.416c.85.296 1.764.458 2.718.458a8.25 8.25 0 0 0 7.334-4.467.75.75 0 0 1 1.01-.322ZM10.3 8.103A4.25 4.25 0 0 1 16.25 12v2a.75.75 0 0 0 1.5 0v-2A5.75 5.75 0 0 0 9.7 6.729a.75.75 0 1 0 .6 1.374ZM8.103 10.3a.75.75 0 0 0-1.374-.6A5.733 5.733 0 0 0 6.25 12v3a.75.75 0 0 0 1.5 0v-3c0-.606.126-1.18.353-1.7Zm4.647.7a.75.75 0 0 0-1.5 0v6a.75.75 0 0 0 1.5 0v-6Z" fill="#151E28"/></svg>