<svg viewBox="0 0 24 24" fill="none" xmlns="http://www.w3.org/2000/svg"><path fill-rule="evenodd" clip-rule="evenodd" d="M12.335 2.33a.75.75 0 0 0-.67 0C9.515 3.403 7.67 5.261 6.364 7.351 5.059 9.44 4.25 11.826 4.25 14c0 4.42 3.474 7.745 7.74 7.75h.022A7.75 7.75 0 0 0 19.75 14c0-2.174-.81-4.56-2.114-6.647-1.307-2.091-3.152-3.95-5.3-5.024Zm4.25 15.918A6.228 6.228 0 0 0 18.25 14c0-1.826-.69-3.94-1.886-5.852-1.12-1.794-2.649-3.35-4.364-4.3-1.715.95-3.243 2.506-4.364 4.3C6.441 10.06 5.75 12.174 5.75 14c0 1.713.64 3.219 1.687 4.323a4.75 4.75 0 1 1 9.148-.075Z" fill="#151E28"/></svg>