<svg viewBox="0 0 24 24" fill="none" xmlns="http://www.w3.org/2000/svg"><path fill-rule="evenodd" clip-rule="evenodd" d="M15.633 2.354c-.433-.104-.884-.104-1.536-.104h-4.73c-1.092 0-1.958 0-2.655.057-.714.058-1.317.18-1.868.46a4.75 4.75 0 0 0-2.076 2.077c-.281.55-.403 1.154-.461 1.868-.057.697-.057 1.563-.057 2.655v5.266c0 1.092 0 1.958.057 2.655.058.714.18 1.317.46 1.869a4.75 4.75 0 0 0 2.077 2.075c.55.281 1.154.403 1.868.461.697.057 1.563.057 2.655.057h5.266c1.092 0 1.958 0 2.655-.057.714-.058 1.317-.18 1.869-.46a4.75 4.75 0 0 0 2.075-2.076c.281-.552.403-1.155.461-1.869.057-.697.057-1.563.057-2.655v-4.73c0-.652 0-1.103-.104-1.536a3.751 3.751 0 0 0-.449-1.084c-.232-.38-.551-.698-1.012-1.159l-.06-.06-2.189-2.188-.06-.06c-.46-.462-.78-.78-1.16-1.013a3.75 3.75 0 0 0-1.083-.45ZM8 7.75h7a.75.75 0 0 0 0-1.5H8a.75.75 0 0 0 0 1.5Zm.25 5.95a3.45 3.45 0 0 1 3.45-3.45h.6a3.45 3.45 0 0 1 3.45 3.45v.6a3.45 3.45 0 0 1-3.45 3.45h-.6a3.45 3.45 0 0 1-3.45-3.45v-.6Zm3.45-1.95a1.95 1.95 0 0 0-1.95 1.95v.6a1.95 1.95 0 0 0 1.95 1.95h.6a1.95 1.95 0 0 0 1.95-1.95v-.6a1.95 1.95 0 0 0-1.95-1.95h-.6Z" fill="#151E28"/></svg>