<svg viewBox="0 0 24 24" fill="none" xmlns="http://www.w3.org/2000/svg"><path fill-rule="evenodd" clip-rule="evenodd" d="M18.75 6.767V5.266c.171.006.331.015.482.027.546.045 1.026.14 1.47.366a3.75 3.75 0 0 1 1.64 1.639c.226.444.32.924.365 1.47.043.531.043 1.187.043 2v4.464c0 .813 0 1.469-.043 2-.045.546-.14 1.026-.366 1.47a3.75 3.75 0 0 1-1.639 1.64c-.444.226-.924.32-1.47.365-.531.043-1.187.043-2 .043H6.768c-.813 0-1.469 0-2-.043-.546-.045-1.026-.14-1.47-.366a3.75 3.75 0 0 1-1.64-1.639c-.226-.444-.32-.924-.365-1.47-.043-.531-.043-1.187-.043-2V7.768c0-.813 0-1.469.043-2 .045-.546.14-1.026.366-1.47a3.75 3.75 0 0 1 1.639-1.64c.444-.226.924-.32 1.47-.365.531-.043 1.187-.043 2-.043h1.329c.652 0 1.103 0 1.536.104a3.75 3.75 0 0 1 1.084.449c.38.232.698.551 1.159 1.012l.06.06.188.189c.544.544.734.726.943.854.06.037.12.07.183.101v.812l.018.006A.753.753 0 0 0 13.25 6v1a2.75 2.75 0 1 0 5.5 0v-.233Zm-1.5-1.017V7a1.25 1.25 0 1 1-2.5 0V5.75h2.5ZM16 11.25a.75.75 0 0 1 .75.75v1a.75.75 0 0 1-1.5 0v-1a.75.75 0 0 1 .75-.75Zm0 4a.75.75 0 0 1 .75.75v1a.75.75 0 0 1-1.5 0v-1a.75.75 0 0 1 .75-.75Z" fill="#151E28"/></svg>