<svg viewBox="0 0 24 24" fill="none" xmlns="http://www.w3.org/2000/svg"><path fill-rule="evenodd" clip-rule="evenodd" d="M9.633 2.354C9.2 2.25 8.749 2.25 8.097 2.25H6.768c-.813 0-1.469 0-2 .043-.546.045-1.026.14-1.47.366a3.75 3.75 0 0 0-1.64 1.639c-.226.444-.32.924-.365 1.47-.043.531-.043 1.187-.043 2v7.464c0 .813 0 1.469.043 2 .045.546.14 1.026.366 1.47a3.75 3.75 0 0 0 1.639 1.64c.444.226.924.32 1.47.365.531.043 1.187.043 2 .043h10.464c.813 0 1.469 0 2-.043.546-.045 1.026-.14 1.47-.366a3.75 3.75 0 0 0 1.64-1.639c.226-.444.32-.924.365-1.47.043-.531.043-1.187.043-2v-4.464c0-.813 0-1.469-.043-2-.045-.546-.14-1.026-.366-1.47a3.75 3.75 0 0 0-1.639-1.64c-.444-.226-.924-.32-1.47-.365-.531-.043-1.187-.043-2-.043h-2.244c-.77 0-1.032-.005-1.27-.062a2.25 2.25 0 0 1-.651-.27c-.21-.128-.399-.31-.943-.854l-.188-.188-.06-.06c-.46-.462-.78-.78-1.16-1.013a3.75 3.75 0 0 0-1.083-.45Zm1.4 8.86a1.25 1.25 0 0 0-1.643.191 4.538 4.538 0 0 0-.172.207 1.25 1.25 0 0 0 .073 1.617c.013.014.03.032.093.094L12 15.94l2.616-2.616c.063-.062.08-.08.093-.094a1.25 1.25 0 0 0 .073-1.617 4.877 4.877 0 0 0-.172-.207 1.25 1.25 0 0 0-1.643-.192 4.431 4.431 0 0 0-.11.082l-.407.305a.75.75 0 0 1-.9 0l-.407-.305a4.431 4.431 0 0 0-.11-.082Zm-2.76-.81A2.75 2.75 0 0 1 12 10.063l.111-.082a2.75 2.75 0 0 1 3.616.423c.034.037.07.08.115.135l.009.01.008.01a2.75 2.75 0 0 1-.173 3.815l-.01.01-3.146 3.146a.75.75 0 0 1-1.06 0l-3.147-3.146-.009-.01a2.75 2.75 0 0 1-.173-3.815l.008-.01.009-.01c.046-.055.081-.098.115-.135Z" fill="#151E28"/></svg>