<svg viewBox="0 0 24 24" fill="none" xmlns="http://www.w3.org/2000/svg"><path fill-rule="evenodd" clip-rule="evenodd" d="M15.469 2.414A.75.75 0 0 0 14.25 3v18a.75.75 0 0 0 1.5 0v-6.25H20a.75.75 0 0 0 .75-.75H20h.75v-.029a5.611 5.611 0 0 0-.01-.316 16.505 16.505 0 0 0-.072-.892 18.754 18.754 0 0 0-.57-2.964c-.649-2.335-1.962-5.25-4.63-7.385ZM4.75 3a.75.75 0 0 0-1.5 0v4a3.751 3.751 0 0 0 3 3.675V21a.75.75 0 0 0 1.5 0V10.675a3.75 3.75 0 0 0 3-3.675V3a.75.75 0 0 0-1.5 0v4a2.25 2.25 0 0 1-4.5 0V3Zm3 0a.75.75 0 0 0-1.5 0v4a.75.75 0 0 0 1.5 0V3Z" fill="#151E28"/></svg>