<svg viewBox="0 0 24 24" fill="none" xmlns="http://www.w3.org/2000/svg"><path fill-rule="evenodd" clip-rule="evenodd" d="M17.25 4.5a1.75 1.75 0 0 0-1.75-1.75h-.08a1.83 1.83 0 0 0-1.753 1.304l-.659 2.196H15.5a1.75 1.75 0 0 0 1.75-1.75Zm.99 1.75a3.25 3.25 0 0 0-2.74-5h-.08a3.33 3.33 0 0 0-3.19 2.373L12 4.39l-.23-.767A3.33 3.33 0 0 0 8.58 1.25H8.5a3.25 3.25 0 0 0-2.74 5H5a2.75 2.75 0 0 0-.75 5.396v6.184c0 .535 0 .98.03 1.345.03.38.098.736.27 1.073a2.75 2.75 0 0 0 1.202 1.202c.337.172.693.24 1.073.27.365.03.81.03 1.345.03h7.66c.535 0 .98 0 1.345-.03.38-.03.736-.098 1.073-.27a2.751 2.751 0 0 0 1.202-1.201c.172-.338.24-.694.27-1.074.03-.365.03-.81.03-1.345v-6.184A2.751 2.751 0 0 0 19 6.25h-.76Zm-6.99 14h1.5v-8.5h-1.5v8.5Zm0-10H5a1.25 1.25 0 1 1 0-2.5h6.25v2.5Zm9-1.25c0 .69-.56 1.25-1.25 1.25h-6.25v-2.5H19c.69 0 1.25.56 1.25 1.25Zm-9.917-4.946.659 2.196H8.5a1.75 1.75 0 1 1 0-3.5h.08c.808 0 1.521.53 1.753 1.304Z" fill="#151E28"/></svg>