<svg viewBox="0 0 24 24" fill="none" xmlns="http://www.w3.org/2000/svg"><path fill-rule="evenodd" clip-rule="evenodd" d="M1.75 9.5c0-.98.264-1.635.678-2.106.426-.485 1.081-.85 1.998-1.11C6.293 5.757 8.92 5.75 12 5.75s5.707.007 7.574.534c.917.26 1.572.625 1.998 1.11.415.47.678 1.127.678 2.106 0 .81-.002 2.372-.239 3.722-.07.403-.158.763-.263 1.067-.005-.505-.023-.88-.09-1.216a4.75 4.75 0 0 0-3.731-3.732c-.46-.091-.994-.091-1.832-.091h-8.19c-.838 0-1.372 0-1.832.091a4.75 4.75 0 0 0-3.732 3.732c-.067.336-.085.711-.09 1.216a7.098 7.098 0 0 1-.262-1.067c-.237-1.35-.239-2.912-.239-3.722Zm.54 7.112c-.49-.201-.848-.6-1.095-1.025-.347-.598-.553-1.362-.684-2.105C.25 11.993.25 10.317.25 9.515V9.5c0-1.27.352-2.302 1.051-3.097.687-.78 1.643-1.259 2.717-1.562 2.091-.591 4.925-.591 7.885-.591h.194c2.96 0 5.794 0 7.885.59 1.074.304 2.03.783 2.717 1.563.699.795 1.051 1.826 1.051 3.097v.015c0 .801 0 2.478-.261 3.967-.13.743-.337 1.507-.684 2.105-.247.425-.604.824-1.095 1.025a4.75 4.75 0 0 1-4.189 4.11c-.26.028-.559.028-1.027.028h-1.546a2.52 2.52 0 0 1-2.098-1.123 1.022 1.022 0 0 0-1.7 0 2.522 2.522 0 0 1-2.098 1.123H7.506c-.468 0-.767 0-1.027-.029a4.75 4.75 0 0 1-4.19-4.109ZM16 15a1 1 0 1 1-2 0 1 1 0 0 1 2 0Zm-7 1a1 1 0 1 0 0-2 1 1 0 0 0 0 2Z" fill="#151E28"/></svg>