<svg viewBox="0 0 24 24" fill="none" xmlns="http://www.w3.org/2000/svg"><path fill-rule="evenodd" clip-rule="evenodd" d="M3.75 12c0-1.96.683-3.76 1.824-5.175l1.755 3.51A.75.75 0 0 0 8 10.75h1a.25.25 0 0 1 .25.25c0 .81.549 1.49 1.295 1.69l-1.18 1.575a2.603 2.603 0 0 0 .24 3.401l.277.277a.51.51 0 0 1 .113.55l-.506 1.264a1.134 1.134 0 0 0-.032.093A8.254 8.254 0 0 1 3.75 12Zm16.5 0a8.21 8.21 0 0 1-1.447 4.668l-.018-.023-2.3-2.958-.039-.05c-.295-.379-.5-.642-.746-.864a3.752 3.752 0 0 0-.719-.508c-.292-.16-.608-.264-1.063-.416l-.06-.02-1.62-.54A.75.75 0 0 0 12 11.25h-1a.25.25 0 0 1-.25-.25 1.75 1.75 0 0 0-1.442-1.723l.04-.067a1.977 1.977 0 0 1 1.696-.96c.789 0 1.555-.269 2.171-.762l.144-.115.012-.01c.09-.072.153-.122.21-.172a3.75 3.75 0 0 0 1.29-2.928A8.253 8.253 0 0 1 20.25 12Zm-18 0c0-5.385 4.365-9.75 9.75-9.75s9.75 4.365 9.75 9.75-4.365 9.75-9.75 9.75S2.25 17.385 2.25 12Z" fill="#151E28"/></svg>