<svg viewBox="0 0 24 24" fill="none" xmlns="http://www.w3.org/2000/svg"><path fill-rule="evenodd" clip-rule="evenodd" d="M12 20.25a8.232 8.232 0 0 1-6.285-2.906 3.75 3.75 0 0 0 1.03-2.383c.005-.102.005-.206.005-.355v-.956c0-.31.072-.618.212-.896l.81-1.622a.698.698 0 0 1 1.118-.181 2.198 2.198 0 0 0 2.087.578l1.582-.396.057-.014c.436-.109.737-.184 1.02-.306a3.76 3.76 0 0 0 1.252-.883c.21-.225.382-.483.631-.857l.033-.049.266-.399.034-.052c.267-.4.452-.676.585-.981.118-.27.203-.552.255-.842.058-.328.058-.66.058-1.141v-.355A8.24 8.24 0 0 1 20.25 12a8.24 8.24 0 0 1-.462 2.728l-.095-.096-.073-.073c-.536-.536-.904-.904-1.327-1.15a3.75 3.75 0 0 0-2.649-.43c-.479.1-.945.333-1.622.671l-.092.047-.765.382c-.47.235-.851.616-1.086 1.086l-.132.264a2.132 2.132 0 0 0 .954 2.86.632.632 0 0 1 .349.565v1.302a8.31 8.31 0 0 1-1.25.094ZM2.25 12c0-5.385 4.365-9.75 9.75-9.75s9.75 4.365 9.75 9.75-4.365 9.75-9.75 9.75S2.25 17.385 2.25 12Z" fill="#151E28"/></svg>