<svg viewBox="0 0 24 24" fill="none" xmlns="http://www.w3.org/2000/svg"><path fill-rule="evenodd" clip-rule="evenodd" d="M10.96 4.25c.382-.363.732-.5 1.04-.5.308 0 .658.137 1.04.5.385.367.767.934 1.103 1.69.601 1.354 1.013 3.21 1.093 5.31H8.764c.08-2.1.492-3.956 1.093-5.31.336-.756.718-1.323 1.103-1.69Zm-3.697 7c.08-2.273.524-4.345 1.223-5.919a8.7 8.7 0 0 1 .537-1.028 8.257 8.257 0 0 0-5.24 6.947h3.48Zm-3.48 1.5h3.48c.08 2.273.524 4.345 1.223 5.919.163.366.342.71.537 1.028a8.257 8.257 0 0 1-5.24-6.947ZM2.25 12c0-5.385 4.365-9.75 9.75-9.75s9.75 4.365 9.75 9.75-4.365 9.75-9.75 9.75S2.25 17.385 2.25 12Zm17.966-.75a8.257 8.257 0 0 0-5.24-6.947c.196.318.375.662.538 1.028.7 1.574 1.142 3.646 1.223 5.919h3.48Zm-3.48 1.5h3.48a8.257 8.257 0 0 1-5.24 6.947c.196-.317.375-.662.538-1.028.7-1.574 1.142-3.646 1.223-5.919Zm-1.5 0c-.08 2.1-.492 3.956-1.093 5.31-.336.756-.718 1.323-1.103 1.69-.382.363-.732.5-1.04.5-.308 0-.658-.137-1.04-.5-.385-.367-.767-.934-1.103-1.69-.601-1.354-1.013-3.21-1.093-5.31h6.472Z" fill="#151E28"/></svg>