<svg viewBox="0 0 24 24" fill="none" xmlns="http://www.w3.org/2000/svg"><path fill-rule="evenodd" clip-rule="evenodd" d="M15.175 2.045a.75.75 0 0 0-.707.023l-.397.23c-1.962 1.132-2.176 3.416-1.49 5.25a.75.75 0 0 0 1.405-.527c-.545-1.454-.244-2.802.835-3.424l.027-.016c.235.152.405.312.52.478.156.224.247.501.221.89a.75.75 0 0 0 1.497.096c.046-.701-.122-1.321-.487-1.844-.356-.51-.864-.878-1.424-1.156Zm7.073 8.703a.75.75 0 0 1-.205.677l-.324.324c-1.602 1.602-3.864 1.218-5.456.08a.75.75 0 1 1 .871-1.22c1.264.902 2.644.96 3.524.08l.023-.023a1.84 1.84 0 0 0-.328-.627c-.175-.208-.42-.367-.802-.443a.75.75 0 1 1 .295-1.47c.689.137 1.244.46 1.655.947.4.475.625 1.062.747 1.675ZM7.925 15.977a.75.75 0 0 1 .205.677 3.49 3.49 0 0 0-.018.1c-.083.486-.039.869.013 1.318.023.195.047.404.062.639.026.379.018.805-.128 1.257-.147.458-.418.889-.841 1.312.423-.423.694-.854.841-1.312.146-.452.154-.878.128-1.257-.015-.235-.04-.444-.062-.64-.052-.448-.096-.83-.013-1.318a3.26 3.26 0 0 0 .51-.413 1.75 1.75 0 0 0 2.485 2.465c.284-.284.411-.516.474-.71.064-.2.078-.415.06-.699-.008-.114-.024-.248-.041-.398-.036-.303-.08-.672-.08-1.08a9.246 9.246 0 0 1-1.08-.08 8.463 8.463 0 0 0-.4-.041c-.283-.02-.498-.005-.697.06-.192.06-.42.185-.698.46.167-.168.31-.338.432-.51.477-.079.854-.035 1.297.016.196.022.404.046.64.062.178.012.368.017.566.003a2.9 2.9 0 0 0 .69-.131c.271-.087.532-.218.788-.397-.078.477-.034.855.017 1.297.022.196.046.404.062.64.025.378.017.805-.128 1.257-.148.458-.418.888-.841 1.311.423-.423.694-.853.84-1.31.147-.453.154-.88.13-1.258-.017-.236-.04-.444-.063-.64-.051-.442-.095-.82-.017-1.297.177-.124.351-.271.524-.444.558-.559.871-1.27.938-2a3.244 3.244 0 0 1 2.598.94 3.235 3.235 0 0 1 0-.001 3.243 3.243 0 0 0-2.598-.938c-.067.73-.38 1.44-.938 1.999-.173.173-.347.32-.524.444l.022-.12-.022.12c-.256.18-.517.31-.787.397a2.92 2.92 0 0 1-.69.13c-.199.014-.389.01-.568-.002-.235-.016-.443-.04-.639-.062-.443-.051-.82-.095-1.297-.017a2.91 2.91 0 0 0 .396-.787c.146-.453.154-.879.129-1.258a12.71 12.71 0 0 0-.063-.639c-.052-.449-.096-.831-.013-1.318.174-.114.34-.246.494-.397-.266.272-.387.495-.447.684-.065.2-.079.414-.06.698.008.114.023.248.041.398.036.303.079.672.08 1.08.409.002.778.045 1.08.08.15.018.285.034.399.041.284.02.498.005.698-.06.194-.062.426-.189.71-.473a1.75 1.75 0 0 0-2.452-2.497 3.24 3.24 0 0 0-.002.002l-.02.02-.025.024a3.26 3.26 0 0 1-.496.4c-.083.487-.039.87.013 1.318.023.196.047.404.062.64.026.378.018.804-.128 1.257a2.94 2.94 0 0 1-.396.787l-.12.022a3.3 3.3 0 0 1 .12-.022 3.944 3.944 0 0 1-.44.518l-.005.006-.004.004c-.16.16-.334.3-.516.42l.018-.1a.75.75 0 0 0-.205-.678ZM4.393 17.27c-.194.063-.427.19-.71.474a1.75 1.75 0 0 0 2.474 2.475c.284-.284.412-.516.474-.71.064-.2.079-.415.06-.698a8.473 8.473 0 0 0-.041-.399 9.26 9.26 0 0 1-.08-1.08 9.246 9.246 0 0 1-1.08-.08 8.452 8.452 0 0 0-.399-.041c-.284-.019-.498-.005-.698.06Zm1.414-4.95c-.194.063-.426.19-.71.474A1.75 1.75 0 0 0 7.57 15.27c.285-.284.412-.516.474-.71.065-.2.079-.414.06-.698a8.473 8.473 0 0 0-.041-.399 9.093 9.093 0 0 1-.08-1.08 9.245 9.245 0 0 1-1.08-.08 8.45 8.45 0 0 0-.399-.04c-.284-.02-.498-.006-.698.059Zm.704-4.475a1.75 1.75 0 1 1 2.475 2.475 1.75 1.75 0 0 1-2.475-2.475Zm9.546 7.07a1.75 1.75 0 1 0-2.475 2.476 1.75 1.75 0 0 0 2.475-2.475Zm.546-6.093a5.144 5.144 0 0 1 3.617-1.275.75.75 0 0 0 .065-1.499 6.644 6.644 0 0 0-4.672 1.648l-.93.817a.75.75 0 0 0 .99 1.126l.93-.817Z" fill="#151E28"/></svg>