<svg viewBox="0 0 24 24" fill="none" xmlns="http://www.w3.org/2000/svg"><path fill-rule="evenodd" clip-rule="evenodd" d="M17.83 2.25h-.66c-.535 0-.98 0-1.345.03-.38.03-.736.097-1.073.27a2.75 2.75 0 0 0-1.202 1.2c-.172.337-.24.694-.27 1.074-.03.364-.03.81-.03 1.344v.661c0 .534 0 .98.03 1.344.03.38.098.737.27 1.074a2.75 2.75 0 0 0 1.201 1.202c.338.172.694.239 1.074.27.365.03.81.03 1.345.03h.66c.535 0 .98 0 1.345-.03.38-.031.736-.098 1.073-.27a2.75 2.75 0 0 0 1.202-1.202c.172-.337.24-.694.27-1.074.03-.364.03-.81.03-1.344v-.66c0-.535 0-.98-.03-1.345-.03-.38-.098-.737-.27-1.074a2.75 2.75 0 0 0-1.201-1.202c-.338-.172-.694-.239-1.074-.27-.365-.03-.81-.03-1.345-.03Zm-11.63 0h-.03c-.535 0-.98 0-1.345.03-.38.03-.736.097-1.073.27a2.75 2.75 0 0 0-1.202 1.2c-.172.337-.24.694-.27 1.074-.03.364-.03.81-.03 1.344v.66c0 .535 0 .981.03 1.345.03.38.098.737.27 1.074a2.75 2.75 0 0 0 1.202 1.202c.337.172.693.239 1.073.27.365.03.81.03 1.345.03h.66c.535 0 .98 0 1.345-.03.38-.031.736-.098 1.073-.27a2.75 2.75 0 0 0 1.202-1.202c.172-.337.24-.694.27-1.074.03-.364.03-.81.03-1.344v-.66c0-.535 0-.98-.03-1.345-.03-.38-.098-.737-.27-1.074a2.75 2.75 0 0 0-1.202-1.202c-.337-.172-.693-.239-1.073-.27-.365-.03-.81-.03-1.345-.03H6.2Zm0 11h-.03c-.535 0-.98 0-1.345.03-.38.03-.736.097-1.073.27a2.75 2.75 0 0 0-1.202 1.2c-.172.337-.24.694-.27 1.074-.03.364-.03.81-.03 1.344v.66c0 .535 0 .98.03 1.345.03.38.098.737.27 1.074a2.75 2.75 0 0 0 1.202 1.202c.337.172.693.239 1.073.27.365.03.81.03 1.345.03h.66c.535 0 .98 0 1.345-.03.38-.031.736-.098 1.073-.27a2.75 2.75 0 0 0 1.202-1.202c.172-.337.24-.694.27-1.074.03-.364.03-.81.03-1.344v-.66c0-.535 0-.98-.03-1.345-.03-.38-.098-.737-.27-1.074a2.75 2.75 0 0 0-1.202-1.202c-.337-.172-.693-.239-1.073-.27-.365-.03-.81-.03-1.345-.03H6.2Zm11.6 0h.03c.535 0 .98 0 1.345.03.38.03.736.097 1.073.27.518.263.939.684 1.202 1.201.172.337.24.694.27 1.074.03.364.03.81.03 1.344v.66c0 .535 0 .98-.03 1.345-.03.38-.098.737-.27 1.074a2.751 2.751 0 0 1-1.201 1.202c-.338.172-.694.239-1.074.27-.365.03-.81.03-1.345.03h-.66c-.535 0-.98 0-1.345-.03-.38-.031-.736-.098-1.073-.27a2.751 2.751 0 0 1-1.202-1.202c-.172-.337-.24-.694-.27-1.074-.03-.364-.03-.81-.03-1.344v-.66c0-.535 0-.98.03-1.345.03-.38.098-.737.27-1.074a2.751 2.751 0 0 1 1.201-1.202c.338-.172.694-.239 1.074-.27.365-.03.81-.03 1.345-.03h.63Z" fill="#151E28"/></svg>