<svg viewBox="0 0 24 24" fill="none" xmlns="http://www.w3.org/2000/svg"><path fill-rule="evenodd" clip-rule="evenodd" d="M4 2.25A1.75 1.75 0 0 0 2.25 4v2c0 .966.784 1.75 1.75 1.75h2A1.75 1.75 0 0 0 7.75 6V4A1.75 1.75 0 0 0 6 2.25H4Zm0 7A1.75 1.75 0 0 0 2.25 11v2c0 .966.784 1.75 1.75 1.75h2A1.75 1.75 0 0 0 7.75 13v-2A1.75 1.75 0 0 0 6 9.25H4ZM2.25 18c0-.966.784-1.75 1.75-1.75h2c.966 0 1.75.784 1.75 1.75v2A1.75 1.75 0 0 1 6 21.75H4A1.75 1.75 0 0 1 2.25 20v-2ZM11 2.25A1.75 1.75 0 0 0 9.25 4v2c0 .966.784 1.75 1.75 1.75h2A1.75 1.75 0 0 0 14.75 6V4A1.75 1.75 0 0 0 13 2.25h-2ZM9.25 11c0-.966.784-1.75 1.75-1.75h2c.966 0 1.75.784 1.75 1.75v2A1.75 1.75 0 0 1 13 14.75h-2A1.75 1.75 0 0 1 9.25 13v-2ZM11 16.25A1.75 1.75 0 0 0 9.25 18v2c0 .966.784 1.75 1.75 1.75h2A1.75 1.75 0 0 0 14.75 20v-2A1.75 1.75 0 0 0 13 16.25h-2ZM16.25 4c0-.966.784-1.75 1.75-1.75h2c.966 0 1.75.784 1.75 1.75v2A1.75 1.75 0 0 1 20 7.75h-2A1.75 1.75 0 0 1 16.25 6V4ZM18 9.25A1.75 1.75 0 0 0 16.25 11v2c0 .966.784 1.75 1.75 1.75h2A1.75 1.75 0 0 0 21.75 13v-2A1.75 1.75 0 0 0 20 9.25h-2ZM16.25 18c0-.966.784-1.75 1.75-1.75h2c.966 0 1.75.784 1.75 1.75v2A1.75 1.75 0 0 1 20 21.75h-2A1.75 1.75 0 0 1 16.25 20v-2Z" fill="#151E28"/></svg>