<svg viewBox="0 0 24 24" fill="none" xmlns="http://www.w3.org/2000/svg"><path fill-rule="evenodd" clip-rule="evenodd" d="M5.75 8.817c.824-.35 1.699-.557 2.5-.567V4a1.25 1.25 0 1 0-2.5 0v4.817Zm4-.816v.249h1.395c.395 0 .77.088 1.105.245V3a1.25 1.25 0 0 0-2.5 0v5Zm4 .999V4a1.25 1.25 0 1 1 2.5 0v5a1.25 1.25 0 0 1-2.5 0Zm2.808 2.266A2.74 2.74 0 0 1 15 11.75c-.475 0-.922-.12-1.312-.333a2.605 2.605 0 0 1-1.378 1.766l-1.3.65A3.747 3.747 0 0 1 12.75 17a.75.75 0 0 1-1.5 0c0-1.238-1-2.242-2.236-2.25a.743.743 0 0 1-.317-.063.75.75 0 0 1-.033-1.357l2.975-1.488a1.104 1.104 0 0 0-.494-2.092H8.311c-.843 0-1.912.322-2.83.888-.905.559-1.539 1.274-1.74 1.99a4.682 4.682 0 0 0-.083 1.642l.066.52a6.513 6.513 0 0 0 1.856 3.79A4.846 4.846 0 0 1 7 22h9.818c.1 0 .182-.081.182-.182a4.39 4.39 0 0 1 1.285-3.104A5.853 5.853 0 0 0 20 14.576v-2.013a2.75 2.75 0 0 1-3.442-1.296ZM19 5.75c-.69 0-1.25.56-1.25 1.25v3a1.25 1.25 0 1 0 2.5 0V7c0-.69-.56-1.25-1.25-1.25Z" fill="#151E28"/></svg>