<svg viewBox="0 0 24 24" fill="none" xmlns="http://www.w3.org/2000/svg"><path fill-rule="evenodd" clip-rule="evenodd" d="M12 2.25c-5.385 0-9.75 4.365-9.75 9.75s4.365 9.75 9.75 9.75 9.75-4.365 9.75-9.75S17.385 2.25 12 2.25Zm-.272 5.932a.75.75 0 0 0-1.456-.364L9.914 9.25H8.5a.75.75 0 0 0 0 1.5h1.04l-.626 2.5H7.5a.75.75 0 0 0 0 1.5h1.04l-.268 1.068a.75.75 0 0 0 1.456.364l.358-1.432h2.453l-.267 1.068a.75.75 0 0 0 1.456.364l.358-1.432H15.5a.75.75 0 0 0 0-1.5h-1.04l.626-2.5H16.5a.75.75 0 0 0 0-1.5h-1.04l.268-1.068a.75.75 0 0 0-1.456-.364l-.358 1.432h-2.453l.267-1.068Zm-.642 2.568h2.453l-.625 2.5h-2.453l.625-2.5Z" fill="#151E28"/></svg>