<svg viewBox="0 0 24 24" fill="none" xmlns="http://www.w3.org/2000/svg"><path fill-rule="evenodd" clip-rule="evenodd" d="M12 2.25c-5.385 0-9.75 4.365-9.75 9.75s4.365 9.75 9.75 9.75 9.75-4.365 9.75-9.75S17.385 2.25 12 2.25ZM10.75 8a.75.75 0 0 0-1.5 0v1.25H8a.75.75 0 0 0 0 1.5h1.25v2.5H8a.75.75 0 0 0 0 1.5h1.25V16a.75.75 0 0 0 1.5 0v-1.25h2.5V16a.75.75 0 0 0 1.5 0v-1.25H16a.75.75 0 0 0 0-1.5h-1.25v-2.5H16a.75.75 0 0 0 0-1.5h-1.25V8a.75.75 0 0 0-1.5 0v1.25h-2.5V8Zm2.5 2.75v2.5h-2.5v-2.5h2.5Z" fill="#151E28"/></svg>