<svg viewBox="0 0 24 24" fill="none" xmlns="http://www.w3.org/2000/svg"><path fill-rule="evenodd" clip-rule="evenodd" d="M9.326 2.25h-.073c-.419 0-.748 0-1.066.076a2.75 2.75 0 0 0-.795.33c-.28.17-.512.404-.808.7l-.052.051-3.125 3.125-.051.052c-.296.296-.53.528-.7.808a2.75 2.75 0 0 0-.33.795c-.076.318-.076.647-.076 1.066v5.494c0 .419 0 .748.076 1.067.067.28.179.548.33.794.17.28.404.513.7.808l.051.052 3.125 3.125.052.051c.296.297.528.53.808.7.246.152.514.263.795.33.318.076.647.076 1.066.076h5.494c.419 0 .748 0 1.067-.076a2.71 2.71 0 0 0 .794-.33c.28-.17.513-.403.808-.7l.052-.05 3.125-3.126.051-.052c.297-.295.53-.528.7-.808a2.71 2.71 0 0 0 .33-.794c.076-.319.076-.648.076-1.067V9.253c0-.419 0-.748-.076-1.066a2.75 2.75 0 0 0-.33-.795c-.17-.28-.403-.512-.7-.808l-.05-.052-3.126-3.125-.052-.051c-.295-.296-.528-.53-.808-.7a2.75 2.75 0 0 0-.794-.33c-.319-.076-.648-.076-1.067-.076H9.325Zm2.402 5.932a.75.75 0 0 0-1.456-.364L9.914 9.25H8.5a.75.75 0 0 0 0 1.5h1.04l-.626 2.5H7.5a.75.75 0 0 0 0 1.5h1.04l-.268 1.068a.75.75 0 0 0 1.456.364l.358-1.432h2.453l-.267 1.068a.75.75 0 0 0 1.456.364l.358-1.432H15.5a.75.75 0 0 0 0-1.5h-1.04l.626-2.5H16.5a.75.75 0 0 0 0-1.5h-1.04l.268-1.068a.75.75 0 0 0-1.456-.364l-.358 1.432h-2.453l.267-1.068ZM10.46 13.25h2.453l.625-2.5h-2.453l-.625 2.5Z" fill="#151E28"/></svg>