<svg viewBox="0 0 24 24" fill="none" xmlns="http://www.w3.org/2000/svg"><path fill-rule="evenodd" clip-rule="evenodd" d="M16.958 9.804a8.28 8.28 0 0 0 1.237-1.097L17.06 4.923a1.75 1.75 0 0 0-2.459-1.062L12.56 4.882a1.25 1.25 0 0 1-1.118 0L9.4 3.862a1.75 1.75 0 0 0-2.46 1.06L5.805 8.707c.194.21.396.407.605.593 2.956 2.61 7.4 2.779 10.548.504Zm-11.642.532c.402.365.828.691 1.273.978 3.485 2.247 8.141 2.095 11.469-.455a9.72 9.72 0 0 0 .626-.523l.794 2.647a1.804 1.804 0 0 1-.833 2.084 13.393 13.393 0 0 1-13.29 0 1.804 1.804 0 0 1-.833-2.084l.794-2.647Zm-2.111 3.399c.076.986.63 1.903 1.53 2.417a14.644 14.644 0 0 0 14.53 0 3.054 3.054 0 0 0 1.41-3.529l-.045-.15-.357-1.19c1.45.925 2.477 2.189 2.477 3.717 0 1.818-1.454 3.262-3.343 4.206-1.935.968-4.554 1.544-7.407 1.544-2.853 0-5.472-.576-7.406-1.544C2.704 18.262 1.25 16.818 1.25 15c0-1.528 1.027-2.792 2.477-3.717l-.357 1.19-.045.15a3.07 3.07 0 0 0-.12 1.112Z" fill="#151E28"/></svg>