<svg viewBox="0 0 24 24" fill="none" xmlns="http://www.w3.org/2000/svg"><path fill-rule="evenodd" clip-rule="evenodd" d="M10.997 1.25h-.178c-1.615 0-2.651 0-3.536.37a4.75 4.75 0 0 0-1.962 1.533c-.575.768-.826 1.774-1.217 3.34l-.044.173-1.788 7.152a.75.75 0 0 0-.022.21v1.605c0 1.092 0 1.958.057 2.655.058.714.18 1.317.46 1.869a4.75 4.75 0 0 0 2.077 2.075c.55.281 1.154.403 1.868.461.697.057 1.563.057 2.655.057h5.266c1.092 0 1.958 0 2.655-.057.714-.058 1.317-.18 1.869-.46a4.75 4.75 0 0 0 2.075-2.076c.281-.552.403-1.155.461-1.869.057-.697.057-1.563.057-2.655v-1.619a.748.748 0 0 0-.022-.196L19.94 6.666l-.044-.173c-.39-1.566-.642-2.572-1.217-3.34a4.75 4.75 0 0 0-1.962-1.532c-.885-.372-1.921-.372-3.536-.371h-2.184ZM7.864 3.004c.57-.24 1.277-.254 3.133-.254h2.006c1.856 0 2.563.014 3.133.254a3.25 3.25 0 0 1 1.342 1.048c.37.495.556 1.177 1.006 2.978l1.555 6.22H3.961l1.555-6.22c.45-1.801.635-2.483 1.006-2.978a3.25 3.25 0 0 1 1.342-1.048ZM10.25 18a.75.75 0 0 1 .75-.75h6a.75.75 0 0 1 0 1.5h-6a.75.75 0 0 1-.75-.75ZM7 19a1 1 0 1 0 0-2 1 1 0 0 0 0 2Z" fill="#151E28"/></svg>