<svg viewBox="0 0 24 24" fill="none" xmlns="http://www.w3.org/2000/svg"><path fill-rule="evenodd" clip-rule="evenodd" d="M2.53 1.47a.75.75 0 0 0-1.06 1.06l2.846 2.846a5.469 5.469 0 0 0-.626 8.197l7.099 7.26c.665.68 1.758.68 2.422 0l3.245-3.317 5.014 5.014a.75.75 0 1 0 1.06-1.06l-20-20Zm16.708 5.505a3.97 3.97 0 0 0-5.676 0l-1.026 1.05a.75.75 0 0 1-1.072 0l-1.026-1.05a3.978 3.978 0 0 0-.82-.644.75.75 0 0 1 .764-1.292c.405.24.785.536 1.129.887l.49.501.489-.5a5.469 5.469 0 1 1 7.82 7.646l-.774.793a.75.75 0 0 1-1.073-1.05l.775-.791a3.969 3.969 0 0 0 0-5.55Z" fill="#151E28"/></svg>