<svg viewBox="0 0 24 24" fill="none" xmlns="http://www.w3.org/2000/svg"><path fill-rule="evenodd" clip-rule="evenodd" d="M10.725 2.25h-.039c-1.178 0-2.114 0-2.823.063-.692.061-1.347.192-1.82.596a2.75 2.75 0 0 0-.956 2.307c.049.62.42 1.176.866 1.709.457.545 1.118 1.207 1.951 2.04l.028.028L10.94 12l-3.007 3.007-.028.028c-.833.833-1.494 1.495-1.951 2.04-.446.533-.817 1.089-.866 1.71a2.75 2.75 0 0 0 .955 2.306c.474.404 1.129.535 1.821.596.71.063 1.645.063 2.823.063h2.628c1.178 0 2.114 0 2.823-.063.692-.061 1.347-.192 1.82-.596a2.75 2.75 0 0 0 .956-2.307c-.049-.62-.42-1.176-.866-1.708-.457-.546-1.118-1.208-1.951-2.041l-.028-.028L13.06 12l3.007-3.007.027-.028c.834-.833 1.495-1.495 1.952-2.04.446-.533.817-1.089.866-1.71a2.75 2.75 0 0 0-.956-2.306c-.473-.404-1.128-.535-1.82-.596-.71-.063-1.645-.063-2.823-.063h-2.589Z" fill="#151E28"/></svg>