<svg viewBox="0 0 24 24" fill="none" xmlns="http://www.w3.org/2000/svg"><path fill-rule="evenodd" clip-rule="evenodd" d="M12 3.75A8.25 8.25 0 0 0 4.84 16.1l2.218-2.218v-.001a2.75 2.75 0 0 1 3.884 0l.01.01a1.25 1.25 0 0 0 1.857-.102l.404-.506.072-.09c.37-.464.653-.817.959-1.038a2.75 2.75 0 0 1 3.405.148c.286.247.537.622.866 1.117l.064.096 1.064 1.596A8.25 8.25 0 0 0 12 3.75ZM2.25 12c0 5.38 4.357 9.741 9.734 9.75H12a9.9 9.9 0 0 0 1.175-.07c4.83-.58 8.575-4.693 8.575-9.68 0-5.385-4.365-9.75-9.75-9.75S2.25 6.615 2.25 12ZM9.3 7.25A2.05 2.05 0 0 0 7.25 9.3v.4a2.05 2.05 0 0 0 2.05 2.05h.4a2.05 2.05 0 0 0 2.05-2.05v-.4A2.05 2.05 0 0 0 9.7 7.25h-.4ZM8.75 9.3a.55.55 0 0 1 .55-.55h.4a.55.55 0 0 1 .55.55v.4a.55.55 0 0 1-.55.55h-.4a.55.55 0 0 1-.55-.55v-.4Z" fill="#151E28"/></svg>