<svg viewBox="0 0 24 24" fill="none" xmlns="http://www.w3.org/2000/svg"><path fill-rule="evenodd" clip-rule="evenodd" d="M14.6 2.25h.033c1.092 0 1.958 0 2.655.057.714.058 1.317.18 1.869.46a4.75 4.75 0 0 1 2.075 2.077c.281.55.403 1.154.461 1.868.057.697.057 1.563.057 2.655v5.266c0 1.092 0 1.958-.057 2.655a6.495 6.495 0 0 1-.171 1.093c-.07.274-.165.53-.29.776a4.75 4.75 0 0 1-2.075 2.075c-.552.281-1.155.403-1.869.461-.697.057-1.563.057-2.655.057H9.367c-1.092 0-1.957 0-2.655-.057a5.793 5.793 0 0 1-1.348-.246 3.62 3.62 0 0 1-.52-.215 4.75 4.75 0 0 1-2.076-2.075c-.281-.552-.403-1.155-.461-1.869-.057-.697-.057-1.563-.057-2.655V9.367c0-1.092 0-1.958.057-2.655.058-.714.18-1.317.46-1.868a4.75 4.75 0 0 1 2.077-2.076c.55-.281 1.154-.403 1.868-.461.697-.057 1.563-.057 2.655-.057H14.6Zm5.644 13.764-1.665-2.498-.064-.096c-.33-.495-.58-.87-.865-1.117a2.75 2.75 0 0 0-3.406-.148c-.306.221-.588.574-.959 1.038l-.072.09-.4.5-.004.005a1.25 1.25 0 0 1-1.857.103l-.005-.005-.005-.004v-.001a2.75 2.75 0 0 0-3.883 0h-.001l-.005.005L3.8 17.14c-.05-.626-.05-1.423-.05-2.54V9.4c0-1.132 0-1.937.052-2.566.05-.62.147-1.005.302-1.31a3.25 3.25 0 0 1 1.42-1.42c.305-.155.69-.251 1.31-.302.63-.051 1.434-.052 2.566-.052h5.2c1.133 0 1.937 0 2.566.052.62.05 1.005.147 1.31.302a3.25 3.25 0 0 1 1.42 1.42c.155.305.251.69.302 1.31.051.63.052 1.434.052 2.566v5.2c0 .54 0 1.006-.006 1.414ZM8.7 6.25A2.45 2.45 0 0 0 6.25 8.7v.6a2.45 2.45 0 0 0 2.45 2.45h.6a2.45 2.45 0 0 0 2.45-2.45v-.6A2.45 2.45 0 0 0 9.3 6.25h-.6ZM7.75 8.7a.95.95 0 0 1 .95-.95h.6a.95.95 0 0 1 .95.95v.6a.95.95 0 0 1-.95.95h-.6a.95.95 0 0 1-.95-.95v-.6Z" fill="#151E28"/></svg>