<svg viewBox="0 0 24 24" fill="none" xmlns="http://www.w3.org/2000/svg"><path fill-rule="evenodd" clip-rule="evenodd" d="M2.53 1.47a.75.75 0 0 0-1.06 1.06l1.683 1.684a4.75 4.75 0 0 0-.385.63c-.281.55-.403 1.154-.461 1.868-.057.697-.057 1.563-.057 2.655v5.266c0 1.092 0 1.958.057 2.655.058.714.18 1.317.46 1.869a4.75 4.75 0 0 0 2.077 2.075c.55.281 1.154.403 1.868.461.697.057 1.563.057 2.655.057h5.266c1.092 0 1.958 0 2.655-.057.714-.058 1.317-.18 1.869-.46.22-.113.43-.242.63-.386l1.683 1.683a.75.75 0 1 0 1.06-1.06l-20-20Zm10.242 12.362-2.353-2.352a2.44 2.44 0 0 1-1.119.27h-.6A2.45 2.45 0 0 1 6.25 9.3v-.6c0-.403.098-.784.27-1.12L4.234 5.295c-.046.075-.09.152-.13.23-.155.305-.251.69-.302 1.31-.051.63-.052 1.434-.052 2.566v5.2c0 1.117 0 1.914.05 2.54l3.253-3.253.005-.006a2.75 2.75 0 0 1 3.884 0l.005.006.005.004a1.25 1.25 0 0 0 1.82-.059ZM7.75 8.811V9.3c0 .525.425.95.95.95h.49L7.75 8.81Zm9.416-5.009c-.63-.051-1.434-.052-2.566-.052H8a.75.75 0 0 1 0-1.5h6.633c1.092 0 1.958 0 2.655.057.714.058 1.317.18 1.869.46a4.75 4.75 0 0 1 2.075 2.077c.281.55.403 1.154.461 1.868.057.697.057 1.563.057 2.655V16a.75.75 0 0 1-1.5 0V9.4c0-1.132 0-1.937-.052-2.566-.05-.62-.147-1.005-.302-1.31a3.25 3.25 0 0 0-1.42-1.42c-.305-.155-.69-.251-1.31-.302Z" fill="#151E28"/></svg>