<svg viewBox="0 0 24 24" fill="none" xmlns="http://www.w3.org/2000/svg"><path fill-rule="evenodd" clip-rule="evenodd" d="M6.834 3.802c.63-.051 1.434-.052 2.566-.052H12a.75.75 0 0 0 0-1.5H9.367c-1.092 0-1.958 0-2.655.057-.714.058-1.317.18-1.868.46a4.75 4.75 0 0 0-2.076 2.077c-.281.55-.403 1.154-.461 1.868-.057.697-.057 1.563-.057 2.655v5.266c0 1.092 0 1.958.057 2.655.058.714.18 1.317.46 1.869a4.75 4.75 0 0 0 2.286 2.173c.105.045.212.086.322.121.406.132.845.202 1.337.242.698.057 1.563.057 2.655.057h5.266c1.092 0 1.958 0 2.655-.057.714-.058 1.317-.18 1.869-.46a4.75 4.75 0 0 0 2.075-2.076c.125-.246.22-.502.29-.776l.004-.017c.085-.332.135-.688.167-1.076.057-.697.057-1.563.057-2.655V12a.75.75 0 0 0-1.5 0v2.6c0 .54 0 1.006-.006 1.414l-1.665-2.498-.064-.096c-.33-.495-.58-.87-.865-1.117a2.75 2.75 0 0 0-3.406-.148c-.306.221-.588.574-.959 1.038l-.072.09-.4.5-.004.005a1.25 1.25 0 0 1-1.857.103l-.005-.005-.005-.004v-.001a2.75 2.75 0 0 0-3.883 0h-.001l-.005.005L3.8 17.14c-.05-.626-.05-1.423-.05-2.54V9.4c0-1.132 0-1.937.052-2.566.05-.62.147-1.005.302-1.31a3.25 3.25 0 0 1 1.42-1.42c.305-.155.69-.251 1.31-.302ZM6.25 8.7A2.45 2.45 0 0 1 8.7 6.25h.6a2.45 2.45 0 0 1 2.45 2.45v.6a2.45 2.45 0 0 1-2.45 2.45h-.6A2.45 2.45 0 0 1 6.25 9.3v-.6Zm2.45-.95a.95.95 0 0 0-.95.95v.6c0 .525.425.95.95.95h.6a.95.95 0 0 0 .95-.95v-.6a.95.95 0 0 0-.95-.95h-.6Zm9.83-5.28a.75.75 0 0 0-1.06 0l-2.5 2.5a.75.75 0 0 0 1.06 1.06l1.22-1.22V10a.75.75 0 0 0 1.5 0V4.81l1.22 1.22a.75.75 0 1 0 1.06-1.06l-2.5-2.5Z" fill="#151E28"/></svg>