<svg viewBox="0 0 24 24" fill="none" xmlns="http://www.w3.org/2000/svg"><path fill-rule="evenodd" clip-rule="evenodd" d="M11.47 1.47a.75.75 0 0 1 1.06 0l3 3a.75.75 0 1 1-1.06 1.06l-1.72-1.72V12a.75.75 0 0 1-1.5 0V3.81L9.53 5.53a.75.75 0 0 1-1.06-1.06l3-3ZM7.632 7.25h-.117c-.656 0-1.17-.001-1.633.17a2.75 2.75 0 0 0-1.067.71c-.335.362-.532.837-.784 1.443l-.045.108-.624 1.498-.012.027c-.196.472-.31.743-.403 1.018a8.75 8.75 0 0 0-.443 3.483c.022.29.064.58.136 1.086l.004.03.012.08c.103.723.169 1.184.301 1.585a4.75 4.75 0 0 0 3.676 3.188c.415.074.881.074 1.611.074h7.509c.73 0 1.196 0 1.612-.074a4.75 4.75 0 0 0 3.675-3.188c.133-.4.198-.862.302-1.585l.011-.08.004-.03a16.8 16.8 0 0 0 .136-1.086 8.75 8.75 0 0 0-.443-3.483 16.145 16.145 0 0 0-.403-1.018l-.011-.027-.624-1.498-.045-.108c-.252-.606-.45-1.08-.785-1.443a2.75 2.75 0 0 0-1.066-.71c-.463-.171-.978-.17-1.634-.17H15.25a.75.75 0 0 0 0 1.5h1.116c.83 0 1.053.011 1.232.077.185.068.351.179.485.323.13.14.226.342.545 1.108l.624 1.498c.211.507.304.73.38.952.06.179.114.36.161.542h-2.174c-.534 0-.954 0-1.348.119a2.748 2.748 0 0 0-.947.507c-.317.26-.55.61-.846 1.055l-.052.078-.1.15c-.373.56-.48.705-.603.807a1.252 1.252 0 0 1-.43.23c-.152.046-.333.054-1.005.054h-.575c-.673 0-.853-.008-1.006-.054a1.252 1.252 0 0 1-.43-.23c-.123-.101-.23-.247-.603-.807l-.1-.15-.052-.078c-.296-.445-.529-.795-.846-1.055a2.748 2.748 0 0 0-.947-.507c-.393-.12-.813-.12-1.348-.119H4.207c.046-.182.1-.363.161-.542.076-.223.168-.445.38-.952l.624-1.498c.319-.766.415-.968.544-1.108.134-.144.3-.255.485-.323.18-.066.402-.077 1.232-.077H8.75a.75.75 0 1 0 0-1.5H7.633Z" fill="#151E28"/></svg>