<svg viewBox="0 0 24 24" fill="none" xmlns="http://www.w3.org/2000/svg"><path fill-rule="evenodd" clip-rule="evenodd" d="M12 1.25a.75.75 0 0 1 .75.75v8.19l1.72-1.72a.75.75 0 1 1 1.06 1.06l-3 3a.75.75 0 0 1-1.06 0l-3-3a.75.75 0 1 1 1.06-1.06l1.72 1.72V2a.75.75 0 0 1 .75-.75Zm-4.002 2h-.137c-.757 0-1.35-.001-1.865.215a2.75 2.75 0 0 0-1.136.887c-.334.446-.478 1.022-.66 1.757l-.034.133-1.36 5.442-.008.033c-.145.58-.229.912-.285 1.25a8.751 8.751 0 0 0-.104 2.01c.022.342.07.681.155 1.273l.005.034.018.132c.169 1.182.277 1.938.566 2.567a4.75 4.75 0 0 0 2.964 2.57c.663.197 1.427.197 2.62.197h6.525c1.194 0 1.958 0 2.62-.197a4.75 4.75 0 0 0 2.965-2.57c.289-.63.397-1.385.565-2.567l.02-.132.004-.034c.085-.592.133-.931.155-1.273a8.75 8.75 0 0 0-.104-2.01c-.057-.338-.14-.67-.285-1.25l-.008-.034-1.36-5.441-.034-.133c-.183-.735-.326-1.31-.66-1.757a2.75 2.75 0 0 0-1.137-.887c-.514-.216-1.107-.216-1.864-.215h-.889a.75.75 0 0 0 0 1.5H16c.963 0 1.223.014 1.421.098.205.086.384.225.517.403.129.172.206.42.44 1.355l1.36 5.441c.155.623.223.896.269 1.17l.006.033h-2.395c-.534 0-.954 0-1.348.119a2.748 2.748 0 0 0-.947.507c-.317.26-.55.61-.846 1.055l-.052.078-.1.15c-.373.56-.48.705-.603.807a1.251 1.251 0 0 1-.43.23c-.152.046-.333.054-1.005.054h-.575c-.673 0-.853-.008-1.006-.054a1.251 1.251 0 0 1-.43-.23c-.123-.101-.23-.247-.603-.807l-.1-.15-.052-.078c-.296-.445-.529-.795-.846-1.055a2.748 2.748 0 0 0-.947-.507c-.393-.12-.813-.12-1.348-.119H3.986l.006-.034c.046-.273.113-.546.27-1.169l1.36-5.441c.233-.934.31-1.183.439-1.355a1.25 1.25 0 0 1 .516-.403c.198-.084.458-.098 1.421-.098h.752a.75.75 0 0 0 0-1.5h-.752Z" fill="#151E28"/></svg>