<svg viewBox="0 0 24 24" fill="none" xmlns="http://www.w3.org/2000/svg"><path fill-rule="evenodd" clip-rule="evenodd" d="M5.17 2.25h13.66c.535 0 .98 0 1.345.03.38.03.736.098 1.073.27a2.75 2.75 0 0 1 1.202 1.202c.172.337.24.693.27 1.073.03.365.03.81.03 1.345v5.66c0 .535 0 .98-.03 1.345-.03.38-.098.736-.27 1.073a2.751 2.751 0 0 1-1.201 1.202c-.338.172-.694.24-1.074.27-.364.03-.81.03-1.345.03H5.17c-.535 0-.98 0-1.345-.03-.38-.03-.736-.098-1.073-.27a2.75 2.75 0 0 1-1.202-1.2c-.172-.338-.24-.694-.27-1.074-.03-.365-.03-.81-.03-1.345V6.17c0-.535 0-.98.03-1.345.03-.38.098-.736.27-1.073A2.75 2.75 0 0 1 2.752 2.55c.337-.172.693-.24 1.073-.27.365-.03.81-.03 1.345-.03Zm3.3 16.28a.75.75 0 1 1 1.06-1.06L12 19.94l2.47-2.47a.75.75 0 1 1 1.06 1.06l-3 3a.75.75 0 0 1-1.06 0l-3-3ZM7 7a1 1 0 1 1-2 0 1 1 0 0 1 2 0Zm3 1a1 1 0 1 0 0-2 1 1 0 0 0 0 2Zm5-1a1 1 0 1 1-2 0 1 1 0 0 1 2 0Zm3 1a1 1 0 1 0 0-2 1 1 0 0 0 0 2Zm1 3a1 1 0 1 1-2 0 1 1 0 0 1 2 0ZM6 12a1 1 0 1 0 0-2 1 1 0 0 0 0 2Zm3.25-1a.75.75 0 0 1 .75-.75h4a.75.75 0 0 1 0 1.5h-4a.75.75 0 0 1-.75-.75Z" fill="#151E28"/></svg>