<svg viewBox="0 0 24 24" fill="none" xmlns="http://www.w3.org/2000/svg"><path fill-rule="evenodd" clip-rule="evenodd" d="m3.692 16.066.002.002 2.826 2.826A8.75 8.75 0 1 0 18.894 6.52l-2.828-2.83c-1.376-1.376-3.326-1.836-5.293-1.555-1.967.281-4.001 1.304-5.667 2.97-1.666 1.665-2.689 3.7-2.97 5.667-.28 1.967.18 3.917 1.556 5.293Zm3.889 1.768-.149-.15a7.45 7.45 0 0 0 1.553-.063c1.967-.281 4.001-1.304 5.667-2.97 1.665-1.665 2.688-3.7 2.97-5.666a7.532 7.532 0 0 0 .063-1.553l.149.148A7.25 7.25 0 1 1 7.58 17.833Zm.353-10.96a.75.75 0 0 0-1.06 1.06l.707.707a.75.75 0 0 0 1.06-1.06l-.707-.708Zm4.243 4.242a.75.75 0 1 0-1.06 1.06l.706.708a.75.75 0 1 0 1.061-1.06l-.707-.708Zm1.414-4.95a.75.75 0 0 1 0 1.06l-.707.708a.75.75 0 1 1-1.06-1.06l.707-.708a.75.75 0 0 1 1.06 0Zm-5.657 5.657a.75.75 0 0 1 0 1.06l-.707.708a.75.75 0 0 1-1.06-1.06l.707-.708a.75.75 0 0 1 1.06 0Z" fill="#151E28"/></svg>