<svg viewBox="0 0 24 24" fill="none" xmlns="http://www.w3.org/2000/svg"><path fill-rule="evenodd" clip-rule="evenodd" d="M20.287 2.307A.75.75 0 0 1 20.75 3c0 3.651-1.046 6.286-2.111 8.018-.532.864-1.066 1.5-1.473 1.923a8.022 8.022 0 0 1-.65.607 3.54 3.54 0 0 1-.044.035l-.014.01-.005.005h-.002v.002L16 13l.45.6a.75.75 0 0 1-.98-.07l-3-3a.75.75 0 0 1 0-1.06L13 10l-.53-.53v-.001l.004-.004.013-.013.05-.05.192-.192.694-.693 2.171-2.172L19.47 2.47a.75.75 0 0 1 .817-.163ZM9.53 13.47a.75.75 0 0 1 0 1.06l-6 6a.75.75 0 0 1-1.06-1.06l6-6a.75.75 0 0 1 1.06 0Zm-.5-8.5a3.58 3.58 0 0 1 .475 4.474L19.53 19.47a.75.75 0 0 1-1.06 1.06L8.444 10.505a3.58 3.58 0 0 1-4.474-.475l-1.5-1.5a3.578 3.578 0 0 1 5.06-5.06l1.5 1.5Z" fill="#151E28"/></svg>