<svg viewBox="0 0 24 24" fill="none" xmlns="http://www.w3.org/2000/svg"><path fill-rule="evenodd" clip-rule="evenodd" d="M5.378 2.581a.75.75 0 0 1 1.04-.203L6 3l.42-.622.001.002.005.003.017.011a7.941 7.941 0 0 1 .272.193c.18.132.43.32.72.556.574.467 1.317 1.13 1.953 1.892.624.746 1.214 1.669 1.362 2.652a2.841 2.841 0 0 1-.183 1.551 3.012 3.012 0 0 1-.489.78l9.452 9.452a.75.75 0 0 1-1.06 1.06l-9.572-9.572a3.801 3.801 0 0 1-2.61.417c-.991-.19-1.87-.73-2.576-1.311a11.58 11.58 0 0 1-1.7-1.762 12.714 12.714 0 0 1-.634-.883l-.01-.015-.003-.005-.001-.002L2 7l-.637.396a.75.75 0 0 1 1.274-.793v.002l.006.008a4.169 4.169 0 0 0 .132.198c.095.138.236.334.416.563.363.461.872 1.038 1.473 1.53.606.499 1.258.873 1.908.998.617.12 1.276.025 1.978-.502.352-.264.539-.52.636-.747.095-.226.121-.47.08-.743-.086-.575-.465-1.238-1.029-1.914-.551-.66-1.214-1.254-1.75-1.69a16.052 16.052 0 0 0-.892-.675l-.012-.007-.002-.002a.75.75 0 0 1-.203-1.04ZM3.47 4.47a.75.75 0 0 1 1.06 0l3 3a.75.75 0 0 1-1.06 1.06l-3-3a.75.75 0 0 1 0-1.06ZM16 13l.45.6a.75.75 0 0 1-.98-.07l-3-3a.75.75 0 0 1 0-1.06L13 10l-.53-.53v-.001l.004-.004.013-.012.05-.05.192-.193.694-.693 2.172-2.172L19.47 2.47a.75.75 0 0 1 1.28.53c0 3.651-1.045 6.286-2.111 8.018-.532.864-1.066 1.5-1.473 1.923a8.053 8.053 0 0 1-.65.607 2.927 2.927 0 0 1-.044.035l-.014.01-.005.005-.002.001S16.45 13.6 16 13l-3-3m-3.47 4.53a.75.75 0 0 0-1.06-1.06l-6 6a.75.75 0 0 0 1.06 1.06l6-6Z" fill="#151E28"/></svg>