<svg viewBox="0 0 24 24" fill="none" xmlns="http://www.w3.org/2000/svg"><path fill-rule="evenodd" clip-rule="evenodd" d="M2.25 15c0 .414.336.75.75.75h18a.75.75 0 0 0 .75-.75v-3.633c0-1.092 0-1.958-.057-2.655-.058-.714-.18-1.317-.46-1.868a4.75 4.75 0 0 0-2.076-2.076c-.552-.281-1.155-.403-1.869-.461-.697-.057-1.563-.057-2.655-.057H9.367c-1.092 0-1.958 0-2.655.057-.714.058-1.317.18-1.868.46a4.75 4.75 0 0 0-2.076 2.077c-.281.55-.403 1.154-.461 1.868-.057.697-.057 1.563-.057 2.655V15Zm2.971 5.75H18.78c.22 0 .371 0 .522-.012a3.75 3.75 0 0 0 1.7-.567c.129-.08.25-.172.426-.304l.023-.017.012-.009c.232-.174.422-.317.565-.432.13-.105.29-.24.402-.4a1.75 1.75 0 0 0-.891-2.674 2.118 2.118 0 0 0-.562-.079c-.183-.006-.421-.006-.711-.006H3.735c-.29 0-.528 0-.711.006a2.118 2.118 0 0 0-.562.079 1.75 1.75 0 0 0-.891 2.675c.112.159.272.294.402.4.143.114.333.257.565.43v.001l.012.009.023.017c.176.132.297.223.425.304a3.75 3.75 0 0 0 1.7.567c.151.012.303.012.523.012Zm.029-1.5c-.259 0-.348 0-.43-.007a2.25 2.25 0 0 1-1.021-.34 5.828 5.828 0 0 1-.35-.253 21.628 21.628 0 0 1-.534-.408 2.04 2.04 0 0 1-.124-.106l-.003-.003a.25.25 0 0 1 .122-.366h.005c.016-.003.064-.008.162-.011.154-.006.365-.006.673-.006h16.5c.308 0 .52 0 .672.006.099.003.147.008.163.01h.005a.25.25 0 0 1 .122.367l-.004.003a1.978 1.978 0 0 1-.123.106c-.12.096-.288.223-.535.408a5.806 5.806 0 0 1-.35.253 2.25 2.25 0 0 1-1.02.34 5.802 5.802 0 0 1-.43.007H5.25Zm5-12.25a.75.75 0 0 1 .75-.75h2a.75.75 0 0 1 0 1.5h-2a.75.75 0 0 1-.75-.75Z" fill="#151E28"/></svg>