<svg viewBox="0 0 24 24" fill="none" xmlns="http://www.w3.org/2000/svg"><path fill-rule="evenodd" clip-rule="evenodd" d="M9.4 2.25h-.033c-1.092 0-1.958 0-2.655.057-.714.058-1.317.18-1.868.46a4.75 4.75 0 0 0-2.076 2.076c-.281.551-.403 1.155-.461 1.868-.036.441-.05.95-.054 1.539h1.5a19.97 19.97 0 0 1 .049-1.417c.05-.62.147-1.004.302-1.309a3.25 3.25 0 0 1 1.42-1.42c.305-.155.69-.252 1.31-.302.63-.052 1.434-.052 2.566-.052h5.2c1.133 0 1.937 0 2.566.052.62.05 1.005.147 1.31.302a3.25 3.25 0 0 1 1.42 1.42c.155.305.251.689.302 1.31.032.391.044.851.05 1.416h1.5a21.649 21.649 0 0 0-.055-1.539c-.058-.713-.18-1.317-.46-1.868a4.75 4.75 0 0 0-2.076-2.076c-.552-.28-1.155-.402-1.869-.46-.697-.058-1.563-.057-2.655-.057H9.4Zm12.35 7.5h-1.5v4.85c0 1.132 0 1.936-.052 2.566-.05.62-.147 1.005-.302 1.309a3.25 3.25 0 0 1-1.42 1.42c-.305.155-.69.252-1.31.303-.27.021-.57.034-.916.041v1.5c.383-.007.727-.021 1.038-.047.714-.058 1.317-.18 1.869-.46a4.75 4.75 0 0 0 2.075-2.076c.281-.551.403-1.155.461-1.868.057-.698.057-1.563.057-2.655V9.75Zm-18 0h-1.5v4.883c0 1.092 0 1.957.057 2.655.058.713.18 1.317.46 1.868a4.75 4.75 0 0 0 2.077 2.076c.55.28 1.154.402 1.868.46.31.026.655.04 1.038.048v-1.5c-.345-.008-.647-.02-.916-.042-.62-.051-1.005-.148-1.31-.303a3.25 3.25 0 0 1-1.42-1.42c-.155-.305-.251-.689-.302-1.31-.051-.629-.052-1.433-.052-2.565V9.75Zm10.85 10.5h.15v1.5h-5.5v-1.5h5.35Z" fill="#151E28"/><path fill-rule="evenodd" clip-rule="evenodd" d="M3.003 8.25h17.994c-.012-1.502-.079-2.372-.433-3.066a4 4 0 0 0-1.748-1.749C17.96 3 16.84 3 14.6 3H9.4c-2.24 0-3.36 0-4.216.435a4 4 0 0 0-1.748 1.749c-.354.694-.42 1.564-.433 3.066ZM21 9.75h-4.75v11.24c1.202-.025 1.952-.114 2.566-.426a4 4 0 0 0 1.748-1.748C21 17.96 21 16.84 21 14.6V9.75Zm-6.25 0h-5.5V21h5.5V9.75Zm-7 0H3v4.85c0 2.24 0 3.36.436 4.216a4 4 0 0 0 1.748 1.748c.614.312 1.364.4 2.566.426V9.75Z" fill="#151E28"/></svg>