<svg viewBox="0 0 24 24" fill="none" xmlns="http://www.w3.org/2000/svg"><path fill-rule="evenodd" clip-rule="evenodd" d="M14.633 2.25h.117v5.5h-5.5v-5.5h5.383Zm7.107 14h-5.49v5.49c.383-.008.727-.022 1.038-.047.714-.059 1.317-.18 1.869-.461a4.75 4.75 0 0 0 2.075-2.076c.281-.551.403-1.155.461-1.868.025-.311.04-.655.047-1.038Zm-17.99-7h4v5.5h-5.5v-5.5h1.5Zm12.5-6.99v5.49h5.49a17.239 17.239 0 0 0-.047-1.039c-.058-.713-.18-1.317-.46-1.868a4.75 4.75 0 0 0-2.076-2.076c-.552-.28-1.155-.402-1.869-.46-.31-.026-.655-.04-1.038-.048Zm5.5 12.49h-5.5v-5.5h5.5v5.5Zm-14-12.49v5.49H2.26c.007-.383.022-.728.047-1.039.058-.713.18-1.317.46-1.868a4.75 4.75 0 0 1 2.077-2.076c.55-.28 1.154-.402 1.868-.46.31-.026.655-.04 1.038-.048ZM2.26 16.25c.008.383.022.727.047 1.038.058.713.18 1.317.46 1.868a4.75 4.75 0 0 0 2.077 2.076c.55.28 1.154.402 1.868.46.31.026.655.04 1.038.048v-5.49H2.26Zm6.99 5.5v-5.5h5.5v5.5h-5.5Zm0-12.5h5.5v5.5h-5.5v-5.5Z" fill="#151E28"/></svg>