<svg viewBox="0 0 24 24" fill="none" xmlns="http://www.w3.org/2000/svg"><path fill-rule="evenodd" clip-rule="evenodd" d="M6.712 2.307c.44-.037.948-.05 1.538-.055v19.495a21.637 21.637 0 0 1-1.538-.055c-.714-.058-1.317-.18-1.868-.46a4.75 4.75 0 0 1-2.076-2.076c-.281-.551-.403-1.155-.461-1.868-.057-.698-.057-1.563-.057-2.655V9.366c0-1.093 0-1.958.057-2.656.058-.713.18-1.317.46-1.868a4.75 4.75 0 0 1 2.077-2.076c.55-.28 1.154-.402 1.868-.46ZM9.75 21.75v-9h5v9h-5Zm0-19.5v9h5v-9h-5Zm6.5 18.74v.75c.383-.008.727-.022 1.038-.047.714-.059 1.317-.18 1.869-.461a4.75 4.75 0 0 0 2.075-2.076c.281-.551.403-1.155.461-1.868.057-.698.057-1.563.057-2.655V12.75h-5.5v8.24Zm0-17.98v-.75c.383.007.727.021 1.038.047.714.058 1.317.18 1.869.46a4.75 4.75 0 0 1 2.075 2.076c.281.551.403 1.155.461 1.868.057.698.057 1.563.057 2.655v1.884h-5.5V3.01Z" fill="#151E28"/></svg>