<svg viewBox="0 0 24 24" fill="none" xmlns="http://www.w3.org/2000/svg"><path fill-rule="evenodd" clip-rule="evenodd" d="M14.633 2.25h.117v19.5h-5.5V2.25h5.383Zm1.617.01v19.48c.383-.008.727-.022 1.038-.047.714-.059 1.317-.18 1.869-.461a4.75 4.75 0 0 0 2.075-2.076c.281-.551.403-1.155.461-1.868.057-.698.057-1.563.057-2.655V9.366c0-1.093 0-1.958-.057-2.656-.058-.713-.18-1.317-.46-1.868a4.75 4.75 0 0 0-2.076-2.076c-.552-.28-1.155-.402-1.869-.46-.31-.026-.655-.04-1.038-.048Zm-8.5 0c-.383.007-.727.021-1.038.047-.714.058-1.317.18-1.868.46a4.75 4.75 0 0 0-2.076 2.076c-.281.551-.403 1.155-.461 1.868-.057.698-.057 1.563-.057 2.655v5.267c0 1.092 0 1.957.057 2.655.058.713.18 1.317.46 1.868a4.75 4.75 0 0 0 2.077 2.076c.55.28 1.154.402 1.868.46.31.026.655.04 1.038.048V2.26Z" fill="#151E28"/></svg>