<svg viewBox="0 0 24 24" fill="none" xmlns="http://www.w3.org/2000/svg"><path fill-rule="evenodd" clip-rule="evenodd" d="M9.4 2.25h1.85v19.5H9.367c-1.092 0-1.958 0-2.655-.058-.714-.058-1.317-.18-1.868-.46a4.75 4.75 0 0 1-2.076-2.076c-.281-.551-.403-1.155-.461-1.868-.057-.698-.057-1.563-.057-2.655V9.366c0-1.092 0-1.957.057-2.655.058-.713.18-1.317.46-1.868a4.75 4.75 0 0 1 2.077-2.076c.55-.28 1.154-.402 1.868-.46.697-.058 1.563-.057 2.655-.057H9.4Zm3.35 0v19.5h1.883c1.092 0 1.958 0 2.655-.058.714-.058 1.317-.18 1.869-.46a4.75 4.75 0 0 0 2.075-2.076c.281-.551.403-1.155.461-1.868.057-.698.057-1.563.057-2.655V9.366c0-1.093 0-1.958-.057-2.656-.058-.713-.18-1.317-.46-1.868a4.75 4.75 0 0 0-2.076-2.076c-.552-.28-1.155-.402-1.869-.46-.697-.058-1.563-.057-2.655-.057H12.75Z" fill="#151E28"/></svg>