<svg viewBox="0 0 24 24" fill="none" xmlns="http://www.w3.org/2000/svg"><path fill-rule="evenodd" clip-rule="evenodd" d="M6.712 2.307c.31-.026.655-.04 1.038-.048v8.991h-5.5V9.367c0-1.093 0-1.958.057-2.656.058-.713.18-1.317.46-1.868a4.75 4.75 0 0 1 2.077-2.076c.55-.28 1.154-.402 1.868-.46ZM2.25 12.75h5.5v8.99a17.225 17.225 0 0 1-1.038-.047c-.714-.059-1.317-.18-1.868-.461a4.75 4.75 0 0 1-2.076-2.076c-.281-.551-.403-1.155-.461-1.868-.057-.698-.057-1.563-.057-2.655V12.75Zm7 8.25v.75h5.5v-9h-5.5V21Zm0-18.75v9h5.5v-9h-5.5Zm7 19.49v-8.99h5.5v1.883c0 1.092 0 1.957-.057 2.655-.058.713-.18 1.317-.46 1.868a4.75 4.75 0 0 1-2.076 2.076c-.552.28-1.155.402-1.869.46-.31.026-.655.04-1.038.048Zm0-18.73v-.75c.383.007.727.021 1.038.047.714.058 1.317.18 1.869.46a4.75 4.75 0 0 1 2.075 2.076c.281.551.403 1.155.461 1.868.057.698.057 1.563.057 2.655v1.884h-5.5V3.01Z" fill="#151E28"/></svg>