<svg viewBox="0 0 24 24" fill="none" xmlns="http://www.w3.org/2000/svg"><path fill-rule="evenodd" clip-rule="evenodd" d="M9.4 2.25h-.033c-1.092 0-1.957 0-2.655.057-.713.058-1.317.18-1.868.46a4.75 4.75 0 0 0-2.076 2.076c-.28.551-.402 1.155-.46 1.868-.037.441-.05.95-.055 1.539h19.494a21.655 21.655 0 0 0-.054-1.539c-.058-.713-.18-1.317-.46-1.868a4.75 4.75 0 0 0-2.076-2.076c-.552-.28-1.155-.402-1.869-.46-.697-.058-1.563-.057-2.655-.057H9.4ZM2.25 14.6V9.75h12v12H9.367c-1.092 0-1.957 0-2.655-.058-.713-.058-1.317-.18-1.868-.46a4.75 4.75 0 0 1-2.076-2.076c-.28-.551-.402-1.155-.46-1.868-.058-.698-.058-1.563-.058-2.655V14.6Zm13.5 7.147V9.75h6v4.883c0 1.092 0 1.957-.057 2.655-.058.713-.18 1.317-.46 1.868a4.75 4.75 0 0 1-2.076 2.076c-.552.28-1.155.402-1.869.46-.44.037-.948.05-1.538.055Z" fill="#151E28"/></svg>