<svg viewBox="0 0 24 24" fill="none" xmlns="http://www.w3.org/2000/svg"><path fill-rule="evenodd" clip-rule="evenodd" d="M11.25 2.25H9.367c-1.092 0-1.958 0-2.655.057-.714.058-1.317.18-1.868.46a4.75 4.75 0 0 0-2.076 2.076c-.281.551-.403 1.155-.461 1.868-.057.698-.057 1.563-.057 2.655v1.884h9v-9Zm-9 12.35v-1.85h9v9H9.367c-1.092 0-1.958 0-2.655-.058-.714-.058-1.317-.18-1.868-.46a4.75 4.75 0 0 1-2.076-2.076c-.281-.551-.403-1.155-.461-1.868-.057-.698-.057-1.563-.057-2.655V14.6Zm10.5 7.15v-9h9v1.883c0 1.092 0 1.957-.057 2.655-.058.713-.18 1.317-.46 1.868a4.75 4.75 0 0 1-2.076 2.076c-.552.28-1.155.402-1.869.46-.697.058-1.563.058-2.655.058H12.75Zm9-12.35v1.85h-9v-9h1.883c1.092 0 1.958 0 2.655.057.714.058 1.317.18 1.869.46a4.75 4.75 0 0 1 2.075 2.076c.281.551.403 1.155.461 1.868.057.698.057 1.563.057 2.656V9.4Z" fill="#151E28"/></svg>