<svg viewBox="0 0 24 24" fill="none" xmlns="http://www.w3.org/2000/svg"><path fill-rule="evenodd" clip-rule="evenodd" d="M9.367 2.25h5.266c1.092 0 1.958 0 2.655.057.714.058 1.317.18 1.869.46a4.75 4.75 0 0 1 2.075 2.076c.281.551.403 1.155.461 1.868.036.441.05.95.054 1.539H2.253c.005-.59.018-1.098.054-1.539.058-.713.18-1.317.46-1.868a4.75 4.75 0 0 1 2.077-2.076c.55-.28 1.154-.402 1.868-.46.697-.058 1.563-.057 2.655-.057ZM21 9.75h.75v5h-12v-5H21Zm-18.75 0h6v11.997a21.637 21.637 0 0 1-1.538-.055c-.714-.058-1.317-.18-1.868-.46a4.75 4.75 0 0 1-2.076-2.076c-.281-.551-.403-1.155-.461-1.868-.057-.698-.057-1.563-.057-2.655V9.75Zm7.5 10.5v-4h11.99c-.007.383-.022.727-.047 1.038-.058.713-.18 1.317-.46 1.868a4.75 4.75 0 0 1-2.076 2.076c-.552.28-1.155.402-1.869.46-.697.058-1.563.058-2.655.058H9.75v-1.5Z" fill="#151E28"/></svg>