<svg viewBox="0 0 24 24" fill="none" xmlns="http://www.w3.org/2000/svg"><path fill-rule="evenodd" clip-rule="evenodd" d="M14.803 1.724a.75.75 0 0 1 1.03-.396c.69.34 1.183.977 1.489 1.625.308.653.47 1.409.426 2.095a.75.75 0 1 1-1.497-.096c.026-.403-.072-.906-.286-1.359a2.68 2.68 0 0 0-.231-.4c-.06.095-.119.184-.175.268l-.188.27c-.119.17-.204.29-.279.431a1.028 1.028 0 0 0-.135.516c0 .221.054.548.246 1.059a.75.75 0 0 1-1.405.526c-.227-.606-.342-1.122-.34-1.59.001-.487.128-.875.31-1.216.121-.228.285-.46.425-.66l.125-.18a4.45 4.45 0 0 0 .485-.893Zm5.607 3.01a.75.75 0 0 1 0 1.06L17.674 8.53a.75.75 0 0 1-1.06-1.06l2.736-2.736a.75.75 0 0 1 1.06 0Zm-4.04 4.039c-.34-.342-.764-.564-1.239-.696-.585-.163-1.11.054-1.374.164l-.028.012a3 3 0 0 1-.278.107c-2.637-1.06-5.928-.286-8.244 2.03-2.316 2.317-3.09 5.608-2.031 8.244a3 3 0 0 1-.107.279l-.011.027c-.11.265-.327.79-.164 1.374.132.476.354.899.695 1.24.342.342.765.564 1.24.696.585.163 1.11-.054 1.374-.164l.028-.011c.146-.061.221-.091.278-.108 2.637 1.06 5.928.286 8.244-2.03 2.316-2.317 3.09-5.608 2.031-8.244.016-.057.047-.132.107-.279l.011-.027c.11-.265.327-.79.165-1.375-.133-.475-.355-.898-.696-1.24Z" fill="#151E28"/></svg>