<svg viewBox="0 0 24 24" fill="none" xmlns="http://www.w3.org/2000/svg"><path fill-rule="evenodd" clip-rule="evenodd" d="M3.75 12c0-2.278.923-4.34 2.416-5.833l2.475 2.475A4.735 4.735 0 0 0 7.25 12c0 1.312.532 2.5 1.391 3.359l-2.475 2.475A8.224 8.224 0 0 1 3.75 12Zm11.609-3.359A4.735 4.735 0 0 1 16.75 12c0 1.312-.532 2.5-1.391 3.359l2.475 2.475A8.224 8.224 0 0 0 20.25 12c0-2.278-.923-4.34-2.416-5.834l-2.475 2.475ZM12 2.25c-5.385 0-9.75 4.365-9.75 9.75s4.365 9.75 9.75 9.75 9.75-4.365 9.75-9.75S17.385 2.25 12 2.25ZM8.75 12a3.25 3.25 0 1 1 6.5 0 3.25 3.25 0 0 1-6.5 0Z" fill="#151E28"/></svg>