<svg viewBox="0 0 24 24" fill="none" xmlns="http://www.w3.org/2000/svg"><path fill-rule="evenodd" clip-rule="evenodd" d="M9.322 3.351a6.25 6.25 0 0 1 8.036 8.87.75.75 0 1 0 1.284.774A7.75 7.75 0 0 0 8.678 1.996a.75.75 0 0 0 .644 1.355ZM4.878 5.94 1.47 2.53a.75.75 0 0 1 1.06-1.06l20 20a.75.75 0 1 1-1.06 1.06l-5.572-5.572a3.243 3.243 0 0 0-.148.953V19a3.75 3.75 0 1 1-7.5 0v-1.09c0-.734-.27-1.44-.706-2.125a10.023 10.023 0 0 0-1.168-1.453A7.726 7.726 0 0 1 4.25 9c0-1.086.224-2.121.628-3.061ZM9.75 19v-.962c.651.421 1.407.712 2.25.712.84 0 1.592-.286 2.25-.712V19a2.25 2.25 0 0 1-4.5 0Z" fill="#151E28"/></svg>