<svg viewBox="0 0 24 24" fill="none" xmlns="http://www.w3.org/2000/svg"><path fill-rule="evenodd" clip-rule="evenodd" d="M16.352 1.338a.75.75 0 0 1 .376.844l-1.855 7.416 3.462 1.731a.75.75 0 1 1-.67 1.342l-4-2a.75.75 0 0 1-.393-.853l1.27-5.076-1.985 2.204a.75.75 0 0 1-1.114-1.003l4-4.445a.75.75 0 0 1 .91-.16ZM9.557 22.502l5.63-6.255 5.283 5.283a.75.75 0 1 0 1.06-1.06l-18-18a.75.75 0 0 0-1.06 1.06l5.865 5.866-1.892 2.102a.75.75 0 0 0 .222 1.173l3.462 1.73-1.855 7.417a.75.75 0 0 0 1.285.684Z" fill="#151E28"/></svg>