<svg viewBox="0 0 24 24" fill="none" xmlns="http://www.w3.org/2000/svg"><path fill-rule="evenodd" clip-rule="evenodd" d="M5.459 18.54a4.25 4.25 0 0 1 0-6.01l.707-.707a.75.75 0 0 0-1.06-1.06l-.708.706a5.75 5.75 0 1 0 8.132 8.132l.707-.707a.75.75 0 1 0-1.06-1.06l-.708.706a4.25 4.25 0 0 1-6.01 0Zm5.303-13.435a.75.75 0 0 0 1.06 1.061l.708-.707a4.25 4.25 0 1 1 6.01 6.01l-.707.707a.75.75 0 0 0 1.06 1.061l.708-.707a5.75 5.75 0 0 0-8.132-8.132l-.707.707ZM8.75 2.171a.75.75 0 1 0-1.5 0V5a.75.75 0 1 0 1.5 0V2.17ZM2.172 7.25a.75.75 0 0 0 0 1.5H5a.75.75 0 0 0 0-1.5H2.172ZM16.75 19a.75.75 0 1 0-1.5 0v2.828a.75.75 0 0 0 1.5 0V19ZM19 15.25a.75.75 0 1 0 0 1.5h2.828a.75.75 0 0 0 0-1.5H19Z" fill="#151E28"/></svg>