<svg viewBox="0 0 24 24" fill="none" xmlns="http://www.w3.org/2000/svg"><path fill-rule="evenodd" clip-rule="evenodd" d="M21.562 4.028a1.75 1.75 0 0 0-1.134-1.134c-.424-.136-.86-.026-1.204.087-.363.119-.818.314-1.364.548l-.033.014L6.205 8.524l-.033.014c-.656.281-1.192.51-1.581.717-.354.188-.793.454-.987.899a1.75 1.75 0 0 0 .15 1.677c.27.403.749.587 1.13.71.42.133.988.264 1.683.425l.035.008 2.473.57c.76.176.962.233 1.116.33.158.099.292.233.391.391.097.153.154.355.33 1.116l.57 2.473.008.035c.16.695.291 1.263.426 1.683.122.381.306.86.709 1.13a1.75 1.75 0 0 0 1.677.15c.445-.195.71-.633.898-.987.207-.39.437-.925.717-1.58l.015-.034 4.98-11.622.015-.033c.234-.546.429-1.001.548-1.364.113-.344.222-.78.087-1.204Z" fill="#151E28"/></svg>