<svg viewBox="0 0 24 24" fill="none" xmlns="http://www.w3.org/2000/svg"><path fill-rule="evenodd" clip-rule="evenodd" d="M12 1.25a.75.75 0 0 1 .75.75v1.282a8.752 8.752 0 0 1 7.968 7.968H22a.75.75 0 0 1 0 1.5h-1.282a8.7 8.7 0 0 1-.605 2.531.75.75 0 1 1-1.39-.562 7.25 7.25 0 0 0-9.442-9.442.75.75 0 0 1-.563-1.39 8.704 8.704 0 0 1 2.532-.605V2a.75.75 0 0 1 .75-.75ZM1.25 12a.75.75 0 0 1 .75-.75h1.28a8.715 8.715 0 0 1 2.024-4.884L1.469 2.53A.75.75 0 1 1 2.53 1.47l20 20a.75.75 0 1 1-1.06 1.06l-3.836-3.835a8.716 8.716 0 0 1-4.884 2.023V22a.75.75 0 0 1-1.5 0v-1.282a8.752 8.752 0 0 1-7.97-7.968H2a.75.75 0 0 1-.75-.75Zm12.274 2.585-4.109-4.109a3 3 0 0 0 4.109 4.108ZM11.76 8.917a.75.75 0 0 1 .864-.615 3.752 3.752 0 0 1 3.074 3.074.75.75 0 1 1-1.48.248 2.252 2.252 0 0 0-1.842-1.843.75.75 0 0 1-.616-.864Z" fill="#151E28"/></svg>