<svg viewBox="0 0 24 24" fill="none" xmlns="http://www.w3.org/2000/svg"><path fill-rule="evenodd" clip-rule="evenodd" d="M12.802 3.137a1.75 1.75 0 0 0-1.604 0c-.396.204-.626.59-.79.913-.172.34-.356.8-.577 1.352l-.013.033-4.696 11.74-.013.034c-.265.662-.482 1.203-.611 1.625-.118.382-.24.88-.063 1.333a1.75 1.75 0 0 0 1.292 1.08c.476.094.945-.115 1.3-.298.393-.202.887-.511 1.492-.889l.03-.02 2.152-1.344c.662-.414.845-.517 1.022-.557.182-.041.372-.041.554 0 .177.04.36.143 1.021.557l2.152 1.345.031.019c.605.378 1.1.687 1.491.889.356.183.825.392 1.301.298a1.75 1.75 0 0 0 1.292-1.08c.177-.452.055-.95-.063-1.333-.13-.422-.346-.963-.61-1.625l-.014-.034-4.696-11.74-.014-.033c-.22-.552-.404-1.012-.576-1.352-.164-.324-.395-.71-.79-.913Z" fill="#151E28"/></svg>