<svg viewBox="0 0 24 24" fill="none" xmlns="http://www.w3.org/2000/svg"><path fill-rule="evenodd" clip-rule="evenodd" d="M8.75 6a3.25 3.25 0 0 1 6.5 0v2c0 .046.004.09.012.134a6.047 6.047 0 0 0-.479-.083C14.393 8 13.93 8 13 8h-2c-.929 0-1.393 0-1.783.051a6.038 6.038 0 0 0-.479.083A.754.754 0 0 0 8.75 8V6ZM7.49 8.55A.748.748 0 0 1 7.25 8V6a4.75 4.75 0 0 1 9.5 0v2a.748.748 0 0 1-.24.55 6.001 6.001 0 0 1 3.439 4.667C20 13.607 20 14.07 20 15c0 .929 0 1.393-.051 1.783a6 6 0 0 1-5.166 5.166C14.393 22 13.93 22 13 22h-2c-.929 0-1.393 0-1.783-.051a6 6 0 0 1-5.166-5.166C4 16.393 4 15.93 4 15c0-.929 0-1.393.051-1.783A6.001 6.001 0 0 1 7.49 8.55ZM10 14.8a1.8 1.8 0 0 1 1.8-1.8h.4a1.8 1.8 0 0 1 1.8 1.8v.4a1.8 1.8 0 0 1-1.8 1.8h-.4a1.8 1.8 0 0 1-1.8-1.8v-.4Z" fill="#151E28"/></svg>