<svg viewBox="0 0 24 24" fill="none" xmlns="http://www.w3.org/2000/svg"><path fill-rule="evenodd" clip-rule="evenodd" d="M8.75 5a3.25 3.25 0 0 1 6.398-.813.75.75 0 1 0 1.452-.374A4.752 4.752 0 0 0 7.25 5v3.387a6.748 6.748 0 0 0-2.942 4.732c-.058.44-.058.949-.058 1.81v.141c0 .862 0 1.372.058 1.811a6.75 6.75 0 0 0 5.81 5.811c.44.058.95.058 1.812.058h.14c.862 0 1.372 0 1.811-.058a6.75 6.75 0 0 0 5.811-5.81c.058-.44.058-.95.058-1.812v-.14c0-.862 0-1.372-.058-1.811a6.75 6.75 0 0 0-5.81-5.811c-.44-.058-.95-.058-1.812-.058h-.14c-.862 0-1.372 0-1.811.058a6.756 6.756 0 0 0-1.369.327V5Zm3.05 8a1.8 1.8 0 0 0-1.8 1.8v.4a1.8 1.8 0 0 0 1.8 1.8h.4a1.8 1.8 0 0 0 1.8-1.8v-.4a1.8 1.8 0 0 0-1.8-1.8h-.4Z" fill="#151E28"/></svg>