<svg viewBox="0 0 24 24" fill="none" xmlns="http://www.w3.org/2000/svg"><path fill-rule="evenodd" clip-rule="evenodd" d="M8.75 6a3.25 3.25 0 0 1 6.5 0v2.437a5.999 5.999 0 0 0-1.467-.386C13.393 8 12.93 8 12 8c-.929 0-1.393 0-1.783.051a5.999 5.999 0 0 0-1.467.386V6ZM7.544 9.095A.749.749 0 0 1 7.25 8.5V6a4.75 4.75 0 0 1 9.5 0v2.5a.749.749 0 0 1-.294.595 5.997 5.997 0 0 1 2.493 4.122C19 13.607 19 14.07 19 15c0 .929 0 1.393-.051 1.783a6 6 0 0 1-5.166 5.166C13.393 22 12.93 22 12 22c-.929 0-1.393 0-1.783-.051a6 6 0 0 1-5.166-5.166C5 16.393 5 15.93 5 15c0-.929 0-1.393.051-1.783a5.997 5.997 0 0 1 2.493-4.122ZM10 14.8a1.8 1.8 0 0 1 1.8-1.8h.4a1.8 1.8 0 0 1 1.8 1.8v.4a1.8 1.8 0 0 1-1.8 1.8h-.4a1.8 1.8 0 0 1-1.8-1.8v-.4Z" fill="#151E28"/></svg>