<svg viewBox="0 0 24 24" fill="none" xmlns="http://www.w3.org/2000/svg"><path fill-rule="evenodd" clip-rule="evenodd" d="M8.75 5a3.25 3.25 0 0 1 6.398-.813.75.75 0 1 0 1.452-.374A4.752 4.752 0 0 0 7.25 5v3c0 .217.092.413.24.55a6.001 6.001 0 0 0-3.439 4.667C4 13.607 4 14.07 4 15c0 .929 0 1.393.051 1.783a6 6 0 0 0 5.166 5.166C9.607 22 10.07 22 11 22h2c.929 0 1.393 0 1.783-.051a6 6 0 0 0 5.166-5.166C20 16.393 20 15.93 20 15c0-.929 0-1.393-.051-1.783a6 6 0 0 0-5.166-5.166C14.393 8 13.93 8 13 8h-2c-.929 0-1.393 0-1.783.051a6.039 6.039 0 0 0-.479.083A.754.754 0 0 0 8.75 8V5ZM10 14.8a1.8 1.8 0 0 1 1.8-1.8h.4a1.8 1.8 0 0 1 1.8 1.8v.4a1.8 1.8 0 0 1-1.8 1.8h-.4a1.8 1.8 0 0 1-1.8-1.8v-.4Z" fill="#151E28"/></svg>