<svg viewBox="0 0 24 24" fill="none" xmlns="http://www.w3.org/2000/svg"><path fill-rule="evenodd" clip-rule="evenodd" d="M12 2.75c-.825 0-1.576.306-2.15.812a.75.75 0 0 1-.992-1.124A4.75 4.75 0 0 1 16.75 6v2.387a6.748 6.748 0 0 1 2.942 4.732c.034.258.047.53.053.868a.75.75 0 1 1-1.5.026 6.204 6.204 0 0 0-.04-.698 5.25 5.25 0 0 0-4.52-4.52 6.191 6.191 0 0 0-.698-.04.75.75 0 0 1 .026-1.5c.338.005.61.019.868.053.474.062.932.173 1.369.327V6A3.25 3.25 0 0 0 12 2.75ZM11.94 13h-.14a1.8 1.8 0 0 0-1.8 1.8v.4a1.8 1.8 0 0 0 1.8 1.8h.4a1.8 1.8 0 0 0 1.8-1.8v-.14L11.94 13Zm6.703 6.704a6.748 6.748 0 0 1-4.762 2.988c-.44.058-.949.058-1.81.058h-.141c-.862 0-1.372 0-1.811-.058a6.75 6.75 0 0 1-5.811-5.81c-.058-.44-.058-.95-.058-1.812v-.14c0-.862 0-1.372.058-1.811a6.748 6.748 0 0 1 2.988-4.762L1.47 2.53a.75.75 0 0 1 1.06-1.06l20 20a.75.75 0 1 1-1.06 1.06l-2.827-2.826Z" fill="#151E28"/></svg>