<svg viewBox="0 0 24 24" fill="none" xmlns="http://www.w3.org/2000/svg"><path fill-rule="evenodd" clip-rule="evenodd" d="M1 2.75c.422 0 .57.001.69.016A2.25 2.25 0 0 1 3.595 4.4c.032.117.056.262.12.68l.918 5.964.004.029c.107.698.194 1.263.3 1.72.11.472.252.883.496 1.256a3.75 3.75 0 0 0 1.593 1.367c.406.184.834.262 1.317.298.468.036 1.04.036 1.746.036H22a.75.75 0 0 0 0-1.5H10.118c-.742 0-1.257 0-1.661-.031-.395-.03-.628-.086-.812-.17a2.25 2.25 0 0 1-.956-.82c-.11-.168-.2-.39-.29-.776-.092-.395-.171-.904-.284-1.637L5.197 4.85l-.007-.049c-.054-.35-.09-.59-.15-.802a3.75 3.75 0 0 0-3.174-2.724 7.253 7.253 0 0 0-.817-.026H1a.75.75 0 0 0 0 1.5Zm9 16a1.25 1.25 0 1 0 0 2.5 1.25 1.25 0 0 0 0-2.5ZM7.25 20a2.75 2.75 0 1 1 5.5 0 2.75 2.75 0 0 1-5.5 0ZM18 18.75a1.25 1.25 0 1 0 0 2.5 1.25 1.25 0 0 0 0-2.5ZM15.25 20a2.75 2.75 0 1 1 5.5 0 2.75 2.75 0 0 1-5.5 0ZM12.17 6.25h4.66c.535 0 .98 0 1.345.03.38.03.736.098 1.073.27a2.75 2.75 0 0 1 1.202 1.202c.172.337.24.693.27 1.073.03.365.03.81.03 1.345V12a.75.75 0 0 1-.75.75H9a.75.75 0 0 1-.75-.75v-1.83c0-.535 0-.98.03-1.345.03-.38.098-.736.27-1.073A2.75 2.75 0 0 1 9.752 6.55c.337-.172.693-.24 1.073-.27.365-.03.81-.03 1.345-.03Z" fill="#151E28"/></svg>