<svg viewBox="0 0 24 24" fill="none" xmlns="http://www.w3.org/2000/svg"><path fill-rule="evenodd" clip-rule="evenodd" d="M20.217 5.307a5.172 5.172 0 0 1 0 7.314l-.187.188a3.204 3.204 0 0 1-2.894.876c-1.548-.31-2.127-2.22-1.01-3.337l.682-.682a.993.993 0 0 0 0-1.404l-.182-.182a1.25 1.25 0 0 0-1.768 0l-1.885 1.886a.25.25 0 0 0-.07.141l-.472 3.3a4.75 4.75 0 0 1-1.344 2.687l-.959.96v1.103a.75.75 0 0 1-.75.75H8.275l-1.548 1.548a2.25 2.25 0 1 1-3.182-3.182l3.788-3.788c.41-.41.676-.942.758-1.516l.498-3.488a1.75 1.75 0 0 1 .495-.99l.959-.959V5.43a.75.75 0 0 1 .75-.75h1.103l.488-.488a4.75 4.75 0 0 1 6.717 0l1.116 1.116Z" fill="#151E28"/></svg>