<svg viewBox="0 0 24 24" fill="none" xmlns="http://www.w3.org/2000/svg"><path fill-rule="evenodd" clip-rule="evenodd" d="M4.25 9a7.75 7.75 0 1 1 12.028 6.463l1.67 5.01c.493 1.479-1.048 2.815-2.443 2.118l-2.946-1.473a1.25 1.25 0 0 0-1.118 0l-2.946 1.473c-1.395.697-2.936-.64-2.443-2.118l1.67-5.01A7.743 7.743 0 0 1 4.25 9Zm10.494 7.25a7.711 7.711 0 0 1-2.744.5 7.7 7.7 0 0 1-2.744-.5H9.04l-1.566 4.697a.25.25 0 0 0 .349.303l2.946-1.474a2.75 2.75 0 0 1 2.46 0l2.946 1.474c.2.1.42-.092.349-.303l-1.566-4.697h-.215Z" fill="#151E28"/></svg>