<svg viewBox="0 0 24 24" fill="none" xmlns="http://www.w3.org/2000/svg"><path fill-rule="evenodd" clip-rule="evenodd" d="M9.8 2.25h-.032c-.813 0-1.469 0-2 .043-.546.045-1.026.14-1.47.366a3.75 3.75 0 0 0-1.64 1.639c-.226.444-.32.924-.365 1.47-.043.531-.043 1.187-.043 2v8.464c0 .813 0 1.469.043 2 .045.546.14 1.026.366 1.47a3.75 3.75 0 0 0 1.639 1.64c.444.226.924.32 1.47.365.531.043 1.187.043 2 .043h4.464c.813 0 1.469 0 2-.043.546-.045 1.026-.14 1.47-.366a3.75 3.75 0 0 0 1.64-1.639c.226-.444.32-.924.365-1.47.043-.531.043-1.187.043-2V7.768c0-.813 0-1.469-.043-2-.045-.546-.14-1.026-.366-1.47a3.75 3.75 0 0 0-1.639-1.64c-.444-.226-.924-.32-1.47-.365-.531-.043-1.187-.043-2-.043H9.8ZM2.75 6a.75.75 0 0 0-1.5 0v12a.75.75 0 0 0 1.5 0V6ZM22 5.25a.75.75 0 0 0-.75.75v12a.75.75 0 0 0 1.5 0V6a.75.75 0 0 0-.75-.75ZM9 10.757v2.486c0 .905 0 1.358.19 1.62a1 1 0 0 0 .702.408c.323.035.716-.19 1.502-.639l2.175-1.243c.797-.455 1.195-.683 1.328-.98a1 1 0 0 0 0-.817c-.133-.298-.531-.526-1.328-.981l-2.175-1.243c-.786-.45-1.18-.674-1.502-.639a1 1 0 0 0-.702.407C9 9.4 9 9.852 9 10.757Z" fill="#151E28"/></svg>