<svg viewBox="0 0 24 24" fill="none" xmlns="http://www.w3.org/2000/svg"><path fill-rule="evenodd" clip-rule="evenodd" d="M17.9 1.766c.499-.196.995-.326 1.502-.25a2.75 2.75 0 0 1 1.851 1.144c.294.42.4.922.449 1.456.048.527.048 1.199.048 2.024v9.72c0 .825 0 1.496-.048 2.024-.05.534-.155 1.036-.449 1.456a2.75 2.75 0 0 1-1.851 1.144c-.507.075-1.003-.055-1.503-.25-.493-.193-1.094-.493-1.832-.862l-.034-.017-9.21-4.605h-.848c-.445 0-.816 0-1.12-.021a2.824 2.824 0 0 1-.907-.188 2.75 2.75 0 0 1-1.489-1.489c-.12-.29-.167-.59-.188-.907-.021-.304-.021-.675-.021-1.12v-.05c0-.445 0-.816.02-1.12a2.82 2.82 0 0 1 .19-.908A2.75 2.75 0 0 1 3.947 7.46c.29-.12.59-.167.907-.188.304-.021.675-.021 1.12-.021h.848l9.21-4.606.034-.016c.738-.37 1.339-.67 1.832-.862ZM6.25 16a.75.75 0 0 0-1.5 0v2a2.75 2.75 0 0 0 5.5 0v-.5a.75.75 0 0 0-1.5 0v.5a1.25 1.25 0 0 1-2.5 0v-2Z" fill="#151E28"/></svg>