<svg viewBox="0 0 24 24" fill="none" xmlns="http://www.w3.org/2000/svg"><path fill-rule="evenodd" clip-rule="evenodd" d="M12 1.25c-1.728 0-3.306.65-4.5 1.719a.75.75 0 1 0 1 1.118A5.25 5.25 0 0 1 17.25 8v3a.75.75 0 0 0 1.5 0V8A6.75 6.75 0 0 0 12 1.25ZM5.421 6.482 1.47 2.53a.75.75 0 0 1 1.06-1.06l11.78 11.78h.023l.21.233 7.987 7.987a.75.75 0 1 1-1.06 1.06l-4.25-4.25a6.741 6.741 0 0 1-4.47 2.429V23a.75.75 0 0 1-1.5 0v-2.291l.332-.723-.332.723a6.753 6.753 0 0 1-5.959-5.959H5a.75.75 0 0 1 0-1.5h7.19L6.752 7.814A5.348 5.348 0 0 0 6.75 8v3a.75.75 0 0 1-1.5 0V8c0-.521.06-1.03.171-1.518ZM17.25 14a.75.75 0 0 1 .75-.75h1a.75.75 0 0 1 0 1.5h-1a.75.75 0 0 1-.75-.75Z" fill="#151E28"/></svg>