<svg viewBox="0 0 24 24" fill="none" xmlns="http://www.w3.org/2000/svg"><path fill-rule="evenodd" clip-rule="evenodd" d="M5.2 4.25h-.03c-.535 0-.98 0-1.345.03-.38.03-.736.098-1.073.27A2.75 2.75 0 0 0 1.55 5.752c-.172.337-.24.693-.27 1.073-.03.365-.03.81-.03 1.345v7.66c0 .535 0 .98.03 1.345.03.38.098.736.27 1.073a2.75 2.75 0 0 0 1.202 1.202c.337.172.693.24 1.073.27.365.03.81.03 1.345.03h13.66c.535 0 .98 0 1.345-.03.38-.03.736-.098 1.073-.27a2.75 2.75 0 0 0 1.202-1.202c.172-.337.24-.694.27-1.073.03-.365.03-.81.03-1.345V8.17c0-.535 0-.98-.03-1.345-.031-.38-.098-.736-.27-1.074a2.75 2.75 0 0 0-1.202-1.201c-.337-.172-.694-.24-1.074-.27-.364-.03-.81-.03-1.344-.03H5.2Zm6.8 6a1.75 1.75 0 1 0 0 3.5 1.75 1.75 0 0 0 0-3.5ZM8.75 12a3.25 3.25 0 1 1 6.5 0 3.25 3.25 0 0 1-6.5 0Z" fill="#151E28"/></svg>