<svg viewBox="0 0 24 24" fill="none" xmlns="http://www.w3.org/2000/svg"><path fill-rule="evenodd" clip-rule="evenodd" d="M9.583 2.72c-.351-.068-.67.004-.946.103a9.408 9.408 0 0 0-.875.394l-.032.016A9.75 9.75 0 0 0 2.25 12 9.75 9.75 0 0 0 12 21.75a9.742 9.742 0 0 0 8.124-4.358l.013-.018c.12-.182.232-.35.316-.498.09-.16.177-.343.217-.56a1.736 1.736 0 0 0-1.032-1.924c-.232-.1-.5-.12-.714-.13-.233-.012-.536-.012-.904-.012H18a7.25 7.25 0 0 1-7.193-8.166l.004-.032c.07-.559.129-1.022.147-1.38.016-.334.013-.752-.188-1.103a1.731 1.731 0 0 0-1.187-.85Z" fill="#151E28"/></svg>