<svg viewBox="0 0 24 24" fill="none" xmlns="http://www.w3.org/2000/svg"><path fill-rule="evenodd" clip-rule="evenodd" d="M9.8 2.25h-.032c-.813 0-1.469 0-2 .043-.546.045-1.026.14-1.47.366a3.75 3.75 0 0 0-1.64 1.639c-.226.444-.32.924-.365 1.47-.043.531-.043 1.187-.043 2v8.464c0 .813 0 1.469.043 2 .045.546.14 1.026.366 1.47a3.75 3.75 0 0 0 1.639 1.64c.444.226.924.32 1.47.365.531.043 1.187.043 2 .043h4.464c.813 0 1.469 0 2-.043.546-.045 1.026-.14 1.47-.366a3.75 3.75 0 0 0 1.64-1.639c.226-.444.32-.924.365-1.47.043-.531.043-1.187.043-2V7.768c0-.813 0-1.469-.043-2-.045-.546-.14-1.026-.366-1.47a3.75 3.75 0 0 0-1.639-1.64c-.444-.226-.924-.32-1.47-.365-.531-.043-1.187-.043-2-.043H9.8ZM2.75 6a.75.75 0 0 0-1.5 0v12a.75.75 0 0 0 1.5 0V6ZM22 5.25a.75.75 0 0 0-.75.75v12a.75.75 0 0 0 1.5 0V6a.75.75 0 0 0-.75-.75Zm-12 8.5a1.25 1.25 0 1 0 0 2.5 1.25 1.25 0 0 0 0-2.5ZM7.25 15a2.75 2.75 0 0 1 4-2.45V6.982a.747.747 0 0 1 .583-.713l1.574-.394a2.69 2.69 0 1 1 1.305 5.22l-1.962.49V15a2.75 2.75 0 1 1-5.5 0Zm5.5-4.96V7.585l1.021-.256a1.19 1.19 0 1 1 .577 2.31l-1.598.4Z" fill="#151E28"/></svg>