<svg viewBox="0 0 24 24" fill="none" xmlns="http://www.w3.org/2000/svg"><path fill-rule="evenodd" clip-rule="evenodd" d="M11.226 6.813a5.262 5.262 0 0 1 3.408-2.884 5.75 5.75 0 0 0 5.851 7.8 5.28 5.28 0 0 1-1.86 1.82.75.75 0 0 0 .75 1.298 6.764 6.764 0 0 0 3.106-3.956.75.75 0 0 0-.984-.912A4.25 4.25 0 0 1 16.6 3.45a.75.75 0 0 0-.6-1.2 6.751 6.751 0 0 0-6.138 3.937.75.75 0 1 0 1.364.626Zm3.017 7.27.53-.264.109-.055a2.5 2.5 0 0 1 1.932-.128 4.52 4.52 0 0 0-2.669-1.632 4.751 4.751 0 0 0-9.29 0c-2.046.406-3.605 2.179-3.605 4.33 0 2.454 2.03 4.416 4.5 4.416h5.085a2.51 2.51 0 0 1-.308-1.622 4.325 4.325 0 0 1-2.655-.397l-.99-.495a2.5 2.5 0 0 1 2.236-4.472l.639.32a4.328 4.328 0 0 1 4.486 0Zm-2.89 2.84c.384-.288.91-.288 1.293 0a2.58 2.58 0 0 0 2.7.243l.99-.495a.75.75 0 1 0-.671-1.342l-.99.495a1.077 1.077 0 0 1-1.129-.102 2.578 2.578 0 0 0-3.092 0 1.077 1.077 0 0 1-1.129.102l-.99-.495a.75.75 0 1 0-.67 1.342l.99.495a2.577 2.577 0 0 0 2.699-.244Zm6.293 3.5a1.078 1.078 0 0 0-1.293 0 2.577 2.577 0 0 1-2.699.243l-.99-.495a.75.75 0 1 1 .671-1.342l.99.495c.365.183.802.143 1.129-.102a2.578 2.578 0 0 1 3.093 0c.326.245.763.285 1.128.102l.99-.495a.75.75 0 1 1 .67 1.342l-.99.495a2.577 2.577 0 0 1-2.698-.244Z" fill="#151E28"/></svg>