<svg viewBox="0 0 24 24" fill="none" xmlns="http://www.w3.org/2000/svg"><path fill-rule="evenodd" clip-rule="evenodd" d="M11.226 6.813a5.263 5.263 0 0 1 3.408-2.884 5.75 5.75 0 0 0 5.851 7.8 5.279 5.279 0 0 1-1.86 1.82.75.75 0 1 0 .75 1.298 6.764 6.764 0 0 0 3.106-3.956.75.75 0 0 0-.984-.912 4.25 4.25 0 0 1-4.898-6.529.75.75 0 0 0-.6-1.2 6.751 6.751 0 0 0-6.137 3.937.75.75 0 0 0 1.364.626ZM2.75 16.368l-.62.929-.21.316c-.114.17-.205.352-.272.54a4.332 4.332 0 0 1-.398-1.82c0-2.15 1.559-3.923 3.605-4.329a4.751 4.751 0 0 1 9.29 0c2.046.406 3.605 2.179 3.605 4.33 0 1.801-1.094 3.337-2.653 4.027a2.49 2.49 0 0 0 .099-.165 2.5 2.5 0 0 0 1.298-2.022l.001-.02a2.49 2.49 0 0 0-.288-1.33 2.511 2.511 0 0 0-1.011-1.02 2.5 2.5 0 0 0-4.392 0A2.504 2.504 0 0 0 9.55 17.5H9.5c-.16 0-.316.015-.468.044a2.499 2.499 0 0 0-.694-.656 2.5 2.5 0 0 0-4.418-2.275l-1.17 1.755ZM13 16.25a.75.75 0 0 1 .75.75v.25H14a.75.75 0 0 1 0 1.5h-.25V19a.75.75 0 0 1-1.5 0v-.25H12a.75.75 0 0 1 0-1.5h.25V17a.75.75 0 0 1 .75-.75ZM10.25 20a.75.75 0 0 0-1.5 0v.25H8.5a.75.75 0 0 0 0 1.5h.25V22a.75.75 0 0 0 1.5 0v-.25h.25a.75.75 0 0 0 0-1.5h-.25V20Zm-3.834-4.624a.75.75 0 0 1 .208 1.04L5.401 18.25H7a.75.75 0 0 1 .624 1.166l-2 3a.75.75 0 1 1-1.248-.832l1.223-1.834H4a.75.75 0 0 1-.624-1.166l2-3a.75.75 0 0 1 1.04-.208Z" fill="#151E28"/></svg>