<svg viewBox="0 0 24 24" fill="none" xmlns="http://www.w3.org/2000/svg"><path fill-rule="evenodd" clip-rule="evenodd" d="M11.226 6.813a5.263 5.263 0 0 1 3.408-2.884 5.75 5.75 0 0 0 5.851 7.8 5.279 5.279 0 0 1-1.86 1.82.75.75 0 1 0 .75 1.298 6.764 6.764 0 0 0 3.106-3.956.75.75 0 0 0-.984-.912 4.25 4.25 0 0 1-4.898-6.529.75.75 0 0 0-.6-1.2 6.751 6.751 0 0 0-6.137 3.937.75.75 0 0 0 1.364.626ZM5.39 19.229a2.511 2.511 0 0 0-.012 1.506C3.08 20.55 1.25 18.664 1.25 16.333c0-2.15 1.559-3.923 3.605-4.329a4.751 4.751 0 0 1 9.29 0c2.046.406 3.605 2.179 3.605 4.33 0 2.33-1.83 4.215-4.127 4.4a2.484 2.484 0 0 0-.1-1.734 2.497 2.497 0 0 0-.125-2.25 2.496 2.496 0 0 0-1.886-1.235A2.496 2.496 0 0 0 9.5 14.5c-.825 0-1.556.4-2.012 1.016a2.496 2.496 0 0 0-1.885 1.234A2.496 2.496 0 0 0 5.477 19a2.51 2.51 0 0 0-.087.23ZM9.5 16.25a.75.75 0 0 1 .75.75v.701l.607-.35a.75.75 0 0 1 .75 1.299L11 19l.607.35a.75.75 0 1 1-.75 1.3l-.607-.351V21a.75.75 0 0 1-1.5 0v-.7l-.607.35a.75.75 0 0 1-.75-1.3L8 19l-.607-.35a.75.75 0 1 1 .75-1.3l.607.35V17a.75.75 0 0 1 .75-.75Z" fill="#151E28"/></svg>