<svg viewBox="0 0 24 24" fill="none" xmlns="http://www.w3.org/2000/svg"><path fill-rule="evenodd" clip-rule="evenodd" d="M11.226 6.813a5.263 5.263 0 0 1 3.408-2.884 5.75 5.75 0 0 0 5.851 7.8 5.279 5.279 0 0 1-1.86 1.82.75.75 0 1 0 .75 1.298 6.764 6.764 0 0 0 3.106-3.956.75.75 0 0 0-.984-.912 4.25 4.25 0 0 1-4.898-6.529.75.75 0 0 0-.6-1.2 6.751 6.751 0 0 0-6.137 3.937.75.75 0 0 0 1.364.626Zm-6.371 5.191a4.751 4.751 0 0 1 9.29 0c2.046.407 3.605 2.179 3.605 4.33 0 2.454-2.03 4.416-4.5 4.416h-7.5c-2.47 0-4.5-1.962-4.5-4.417 0-2.15 1.559-3.922 3.605-4.329Z" fill="#151E28"/></svg>