<svg viewBox="0 0 24 24" fill="none" xmlns="http://www.w3.org/2000/svg"><path fill-rule="evenodd" clip-rule="evenodd" d="M11.226 6.813a5.263 5.263 0 0 1 3.408-2.884 5.75 5.75 0 0 0 5.851 7.8 5.279 5.279 0 0 1-1.86 1.82.75.75 0 1 0 .75 1.298 6.764 6.764 0 0 0 3.106-3.956.75.75 0 0 0-.984-.912 4.25 4.25 0 0 1-4.898-6.529.75.75 0 0 0-.6-1.2 6.751 6.751 0 0 0-6.137 3.937.75.75 0 0 0 1.364.626ZM2.793 16.825a2.489 2.489 0 0 0-.287 1.349 2.5 2.5 0 0 0 1.298 2.022c.03.056.064.111.099.165-1.559-.69-2.653-2.226-2.653-4.028 0-2.15 1.559-3.923 3.605-4.329a4.751 4.751 0 0 1 9.29 0c2.046.406 3.605 2.179 3.605 4.33 0 1.801-1.094 3.337-2.653 4.027a2.49 2.49 0 0 0 .099-.165 2.5 2.5 0 0 0 1.298-2.022l.001-.02a2.49 2.49 0 0 0-.288-1.33 2.511 2.511 0 0 0-1.011-1.02 2.5 2.5 0 0 0-4.392 0A2.504 2.504 0 0 0 9.55 17.5a2.76 2.76 0 0 0-.1 0 2.504 2.504 0 0 0-1.254-1.696 2.5 2.5 0 0 0-4.392 0 2.51 2.51 0 0 0-1.011 1.021ZM6 16.25a.75.75 0 0 1 .75.75v.25H7a.75.75 0 0 1 0 1.5h-.25V19a.75.75 0 0 1-1.5 0v-.25H5a.75.75 0 0 1 0-1.5h.25V17a.75.75 0 0 1 .75-.75Zm7 0a.75.75 0 0 1 .75.75v.25H14a.75.75 0 0 1 0 1.5h-.25V19a.75.75 0 0 1-1.5 0v-.25H12a.75.75 0 0 1 0-1.5h.25V17a.75.75 0 0 1 .75-.75Zm-3.5 3a.75.75 0 0 1 .75.75v.25h.25a.75.75 0 0 1 0 1.5h-.25V22a.75.75 0 0 1-1.5 0v-.25H8.5a.75.75 0 0 1 0-1.5h.25V20a.75.75 0 0 1 .75-.75Z" fill="#151E28"/></svg>