<svg viewBox="0 0 24 24" fill="none" xmlns="http://www.w3.org/2000/svg"><path fill-rule="evenodd" clip-rule="evenodd" d="M11.226 6.813a5.263 5.263 0 0 1 3.408-2.884 5.75 5.75 0 0 0 5.851 7.8 5.279 5.279 0 0 1-1.86 1.82.75.75 0 1 0 .75 1.298 6.764 6.764 0 0 0 3.106-3.956.75.75 0 0 0-.984-.912 4.25 4.25 0 0 1-4.898-6.529.75.75 0 0 0-.6-1.2 6.751 6.751 0 0 0-6.137 3.937.75.75 0 0 0 1.364.626ZM15 18v2c0 .142-.012.281-.035.417 1.629-.66 2.785-2.231 2.785-4.084 0-2.15-1.559-3.923-3.605-4.329a4.751 4.751 0 0 0-9.29 0c-2.046.406-3.605 2.179-3.605 4.33 0 .65.142 1.265.398 1.819.067-.188.158-.37.272-.54l.21-.316.62-.93 1.17-1.754a2.5 2.5 0 0 1 4.418 2.275c.268.17.505.392.694.656a2.513 2.513 0 0 1 1.007.014A2.5 2.5 0 0 1 15 18Zm-1.75 0a.75.75 0 0 0-1.5 0v2a.75.75 0 0 0 1.5 0v-2Zm-3 2a.75.75 0 0 0-1.5 0v2a.75.75 0 0 0 1.5 0v-2Zm-3.834-4.624a.75.75 0 0 1 .208 1.04L5.401 18.25H7a.75.75 0 0 1 .624 1.166l-2 3a.75.75 0 1 1-1.248-.832l1.223-1.834H4a.75.75 0 0 1-.624-1.166l2-3a.75.75 0 0 1 1.04-.208Z" fill="#151E28"/></svg>