<svg viewBox="0 0 24 24" fill="none" xmlns="http://www.w3.org/2000/svg"><path fill-rule="evenodd" clip-rule="evenodd" d="M9.8 2.25h-.032c-.813 0-1.468 0-2 .043-.546.045-1.026.14-1.47.366a3.75 3.75 0 0 0-1.64 1.639c-.225.444-.32.924-.364 1.47-.034.414-.042.902-.043 1.482H3a.75.75 0 0 0 0 1.5h1.25v2.5H3a.75.75 0 0 0 0 1.5h1.25v2.5H3a.75.75 0 0 0 0 1.5h1.25c.002.58.01 1.068.044 1.482.044.546.139 1.026.365 1.47a3.75 3.75 0 0 0 1.639 1.64c.444.226.924.32 1.47.365.532.043 1.187.043 2 .043h4.464c.813 0 1.469 0 2-.043.546-.045 1.026-.14 1.47-.366a3.75 3.75 0 0 0 1.64-1.639c.226-.444.32-.924.365-1.47.043-.531.043-1.187.043-2V7.768c0-.813 0-1.469-.043-2-.045-.546-.14-1.026-.366-1.47a3.75 3.75 0 0 0-1.638-1.64c-.445-.226-.925-.32-1.471-.365-.531-.043-1.187-.043-2-.043H9.8Zm3.45 1.5H9.8c-.852 0-1.447 0-1.91.038-.453.037-.714.107-.911.207a2.25 2.25 0 0 0-.984.984c-.1.197-.17.458-.206.912-.03.356-.037.79-.038 1.359H7a.75.75 0 0 1 0 1.5H5.75v2.5H7a.75.75 0 0 1 0 1.5H5.75v2.5H7a.75.75 0 0 1 0 1.5H5.75c.001.57.008 1.003.038 1.36.037.453.106.714.206.912.216.423.56.767.984.983.197.1.458.17.912.207.462.037 1.057.038 1.91.038h3.449V3.75Z" fill="#151E28"/></svg>