<svg viewBox="0 0 24 24" fill="none" xmlns="http://www.w3.org/2000/svg"><path fill-rule="evenodd" clip-rule="evenodd" d="M14.803 1.724a.75.75 0 0 1 1.03-.396c.69.34 1.183.977 1.489 1.625.309.653.47 1.409.427 2.095a.75.75 0 1 1-1.497-.096c.026-.403-.072-.906-.286-1.359a2.67 2.67 0 0 0-.232-.4c-.06.095-.118.184-.175.268l-.188.27c-.119.17-.204.29-.279.431a1.027 1.027 0 0 0-.135.516c0 .221.054.548.246 1.059a.75.75 0 0 1-1.405.526c-.227-.606-.342-1.122-.34-1.59.001-.487.129-.875.31-1.216.122-.228.285-.46.425-.66l.125-.18c.174-.256.342-.532.486-.893ZM20.03 5.53a.75.75 0 1 0-1.06-1.06l-2.737 2.736a.75.75 0 1 0 1.06 1.06L20.03 5.53Zm-3.893 3.44-.5-.5c-.548-.548-1.313-.607-1.894-.467a1.34 1.34 0 0 1-.31.043.282.282 0 0 1-.1-.012h-.001a7.75 7.75 0 1 0 3.19 3.238c0-.028.003-.065.007-.11.016-.16.05-.359.09-.553a1.808 1.808 0 0 0-.482-1.64Z" fill="#151E28"/></svg>