<svg viewBox="0 0 24 24" fill="none" xmlns="http://www.w3.org/2000/svg"><path fill-rule="evenodd" clip-rule="evenodd" d="M12.822 2.1a2.75 2.75 0 0 0-1.637.048c-.343.118-.629.315-.906.551-.265.226-.564.526-.922.883l-.02.021-6.468 6.467-.022.022c-.398.399-.73.73-.978 1.023-.257.304-.47.618-.585.996a2.75 2.75 0 0 0 .052 1.76c.137.37.368.67.643.96.264.277.614.589 1.036.963l.023.021 4.209 3.74.022.02c.378.337.694.618.972.828.29.22.587.4.937.497a2.75 2.75 0 0 0 1.637-.048c.343-.118.629-.315.906-.551.265-.226.564-.526.922-.884l.02-.02 6.468-6.467.022-.022c.399-.399.73-.73.978-1.023.257-.304.47-.619.585-.996a2.75 2.75 0 0 0-.052-1.76c-.137-.37-.368-.671-.643-.96a18.35 18.35 0 0 0-1.036-.963l-.023-.021-4.209-3.741-.022-.02a17.297 17.297 0 0 0-.972-.827c-.29-.22-.587-.4-.937-.498Zm-1.148 1.466c.24-.083.5-.09.744-.022.095.026.22.085.436.25.225.17.497.41.903.771l4.208 3.74c.451.402.754.672.97.898.21.221.287.35.323.448.095.257.104.538.023.8-.03.1-.099.233-.296.465a8.619 8.619 0 0 1-.397.43c-1.006.335-1.475.486-1.95.572a7.246 7.246 0 0 1-1.436.112c-.51-.01-1.025-.094-2.198-.29l-6.09-1.015a6.243 6.243 0 0 0-2.73.152l6.213-6.213c.384-.384.641-.64.855-.823.208-.177.328-.243.422-.275Zm7.314 12.95a1.75 1.75 0 0 1 2.024 0c.195.138.336.32.447.482.11.16.234.365.375.6l.011.02.514.857.002.003a2.75 2.75 0 0 1-1.487 4.021l-.004.001h-.001a2.75 2.75 0 0 1-1.738 0h-.005a2.75 2.75 0 0 1-1.487-4.022l.002-.004.514-.857.011-.019c.141-.235.265-.44.375-.6.111-.163.252-.344.447-.482Z" fill="#151E28"/></svg>