<svg viewBox="0 0 24 24" fill="none" xmlns="http://www.w3.org/2000/svg"><path fill-rule="evenodd" clip-rule="evenodd" d="M8 1.25h-.025c-.445 0-.816 0-1.12.02a2.823 2.823 0 0 0-.907.19 2.75 2.75 0 0 0-1.489 1.488c-.12.29-.167.59-.188.907-.021.304-.021.675-.021 1.12v.05c0 .445 0 .816.02 1.12.022.317.07.617.19.907a2.75 2.75 0 0 0 1.488 1.489c.29.12.59.167.907.188.304.021.675.021 1.12.021h6.05c.445 0 .816 0 1.12-.02.318-.022.617-.07.907-.19a2.75 2.75 0 0 0 1.489-1.488c.12-.29.167-.59.188-.907.009-.12.014-.252.017-.395H19c.69 0 1.25.56 1.25 1.25v3c0 .69-.56 1.25-1.25 1.25h-6A2.75 2.75 0 0 0 10.25 14v1.354a2.751 2.751 0 0 0-2 2.646v2a2.75 2.75 0 1 0 5.5 0v-2a2.75 2.75 0 0 0-2-2.646V14c0-.69.56-1.25 1.25-1.25h6A2.75 2.75 0 0 0 21.75 10V7A2.75 2.75 0 0 0 19 4.25h-1.255a8.433 8.433 0 0 0-.016-.395 2.822 2.822 0 0 0-.188-.907 2.75 2.75 0 0 0-1.489-1.489c-.29-.12-.59-.167-.907-.188-.304-.021-.675-.021-1.12-.021H8ZM16.25 5c0-.476 0-.796-.017-1.043-.017-.241-.046-.358-.078-.435a1.25 1.25 0 0 0-.677-.677c-.077-.032-.194-.061-.435-.078A17.091 17.091 0 0 0 14 2.75H8c-.476 0-.796 0-1.043.017-.241.017-.358.046-.435.078a1.25 1.25 0 0 0-.677.677c-.032.077-.061.194-.078.435A17.09 17.09 0 0 0 5.75 5c0 .476 0 .796.017 1.043.017.241.046.358.078.435.127.307.37.55.677.677.077.032.194.061.435.078.247.017.567.017 1.043.017h6c.476 0 .796 0 1.043-.017.241-.017.358-.046.435-.078.307-.127.55-.37.677-.677.032-.077.061-.194.078-.435.017-.247.017-.567.017-1.043Z" fill="#151E28"/></svg>