<svg viewBox="0 0 24 24" fill="none" xmlns="http://www.w3.org/2000/svg"><path fill-rule="evenodd" clip-rule="evenodd" d="m4.085 8.245.033-.012 13.538-4.835.033-.012c.48-.171.887-.317 1.216-.402.322-.083.718-.151 1.106-.017a1.75 1.75 0 0 1 1.08 1.08c.134.387.065.783-.018 1.105-.085.329-.23.737-.402 1.216l-.012.034-4.835 13.537-.011.033c-.167.466-.309.864-.448 1.165-.138.297-.332.64-.674.853a1.75 1.75 0 0 1-1.502.169c-.381-.133-.646-.423-.846-.682-.203-.263-.43-.62-.695-1.037l-.02-.03-2.69-4.23 1.086-1.086 4.524-4.524a.75.75 0 0 0-1.06-1.06L8.42 14.576l-.543.543-4.23-2.691-.03-.02a14.984 14.984 0 0 1-1.036-.695c-.26-.2-.55-.465-.682-.846a1.75 1.75 0 0 1 .168-1.501c.214-.343.556-.537.853-.674a15.1 15.1 0 0 1 1.165-.448Z" fill="#151E28"/></svg>