<svg viewBox="0 0 24 24" fill="none" xmlns="http://www.w3.org/2000/svg"><path fill-rule="evenodd" clip-rule="evenodd" d="M2.53 1.47a.75.75 0 0 0-1.06 1.06l4.813 4.813-2.48 2.48a6.75 6.75 0 0 0 9.546 9.546l2.48-2.48 5.64 5.641a.75.75 0 1 0 1.061-1.06l-8.985-8.986a.944.944 0 0 0-.014-.014l-.015-.014L2.53 1.47ZM11.94 13l-1.768-1.768-2.48 2.48A1.25 1.25 0 0 0 9.46 15.48L11.94 13Zm-2.83-2.828L7.343 8.404l-2.48 2.48a5.25 5.25 0 1 0 7.425 7.424l2.48-2.48L13 14.062l-2.48 2.48a2.75 2.75 0 0 1-3.889-3.89l2.48-2.48ZM20.42 5.58a4.75 4.75 0 0 1 0 6.717l-1.232 1.232a.75.75 0 0 1-1.061-1.06l1.232-1.232a3.25 3.25 0 0 0-4.596-4.597l-1.39 1.39a.75.75 0 0 1-1.06-1.061l1.39-1.39a4.75 4.75 0 0 1 6.717 0Zm-8.84-3.535a.75.75 0 1 1 1.06 1.06l-2.11 2.112a.75.75 0 1 1-1.061-1.06l2.111-2.112Zm4.95 6.364a.75.75 0 0 1 1.06 1.06l-1.414 1.415a.75.75 0 0 1-1.06-1.06l1.414-1.415Z" fill="#151E28"/></svg>