<svg viewBox="0 0 24 24" fill="none" xmlns="http://www.w3.org/2000/svg"><path fill-rule="evenodd" clip-rule="evenodd" d="m5.246 3.707.032.015 12.99 6.154.033.015c.46.218.851.403 1.144.576.286.169.615.4.794.77a1.75 1.75 0 0 1 0 1.526c-.179.37-.508.6-.794.77-.293.172-.684.357-1.144.575l-.032.015-12.991 6.154-.032.015c-.447.212-.829.393-1.14.507-.308.113-.687.218-1.08.127a1.75 1.75 0 0 1-1.181-.943c-.176-.363-.158-.756-.116-1.08.042-.33.134-.742.241-1.225l.008-.035 1.087-4.893H11a.75.75 0 1 0 0-1.5H3.065L1.978 6.356 1.97 6.32a15.106 15.106 0 0 1-.241-1.224c-.042-.325-.06-.718.116-1.081a1.75 1.75 0 0 1 1.18-.942c.394-.091.773.013 1.08.126.312.115.694.295 1.14.507Z" fill="#151E28"/></svg>