<svg viewBox="0 0 24 24" fill="none" xmlns="http://www.w3.org/2000/svg"><path fill-rule="evenodd" clip-rule="evenodd" d="M6.794 2.67a.75.75 0 0 0-.605.777l.01.187c.025.447.047.846.116 1.243.083.472.229.928.495 1.51a.75.75 0 0 0 1.364-.626c-.226-.492-.326-.823-.382-1.143a5.389 5.389 0 0 1-.062-.532c.65.01 1.333.21 1.938.57.81.482 1.406 1.205 1.603 2.02a.75.75 0 1 0 1.458-.352c-.311-1.29-1.216-2.316-2.294-2.957-1.077-.64-2.402-.941-3.641-.698Zm9.107 0a.75.75 0 0 1 .604.777l-.01.187c-.024.447-.046.846-.116 1.243-.082.472-.228.928-.495 1.51a.75.75 0 1 1-1.364-.626c.226-.492.326-.823.382-1.143.03-.168.048-.336.062-.532-.398.006-.81.084-1.212.228a.75.75 0 0 1-.505-1.412c.842-.302 1.768-.407 2.654-.233ZM12 21l-.094.744h-.003l-.007-.001-.022-.003a8.815 8.815 0 0 1-.356-.06 12.595 12.595 0 0 1-.964-.222 12.914 12.914 0 0 1-2.922-1.18C5.481 19.069 3.25 16.857 3.25 13a5.751 5.751 0 0 1 3.401-5.25H7c.177 0 .482.05.897.168.134.037.274.08.419.128.29.096.598.21.909.338a14.229 14.229 0 0 1 1.966.974A4.242 4.242 0 0 1 13.25 13a4.24 4.24 0 0 1-1.7 3.4.75.75 0 0 0 .9 1.2 5.742 5.742 0 0 0 2.3-4.6 5.73 5.73 0 0 0-2.3-4.6 6.514 6.514 0 0 0-.486-.328l.036.022A5.75 5.75 0 0 1 20.75 13c0 3.856-2.23 6.068-4.382 7.279-1.07.601-2.132.965-2.922 1.18a12.595 12.595 0 0 1-1.242.27l-.078.01-.022.004h-.007l-.002.001h-.001L12 21Zm0 0 .093.744a.752.752 0 0 1-.186 0L12 21Z" fill="#151E28"/></svg>