<svg viewBox="0 0 24 24" fill="none" xmlns="http://www.w3.org/2000/svg"><path fill-rule="evenodd" clip-rule="evenodd" d="M11.25 1.327c-.296.145-.505.38-.669.598-.17.226-.354.526-.565.868L10 2.82l-5.794 9.415-.046.075c-.264.429-.472.766-.577 1.141a2.75 2.75 0 0 0-.087 1.016c.04.388.187.755.374 1.223l.033.082.597 1.494.044.11c.247.618.44 1.103.776 1.472.11.121.23.232.359.33A2.25 2.25 0 0 0 7.5 22.75h9a2.25 2.25 0 0 0 1.823-3.569c.128-.1.248-.21.358-.33.336-.37.53-.855.776-1.473l.044-.11.598-1.494.033-.082c.187-.468.335-.835.374-1.223a2.75 2.75 0 0 0-.087-1.016c-.105-.375-.313-.712-.577-1.141l-.047-.075-5.793-9.415-.018-.028c-.21-.342-.395-.642-.564-.868-.164-.219-.373-.453-.67-.598V10a.753.753 0 0 1-.013.14 2 2 0 1 1-1.474 0 .753.753 0 0 1-.013-.14V1.327ZM7.5 19.75a.75.75 0 1 0 0 1.5h9a.75.75 0 0 0 0-1.5h-9Z" fill="#151E28"/></svg>