<svg viewBox="0 0 24 24" fill="none" xmlns="http://www.w3.org/2000/svg"><path fill-rule="evenodd" clip-rule="evenodd" d="M2.53 1.47a.75.75 0 0 0-1.06 1.06l7.97 7.97-3.717 3.716-.044.044c-.425.425-.698.699-.924 1.012-.2.279-.37.578-.505.892-.153.355-.247.73-.392 1.313l-.016.06-.57 2.281a.75.75 0 0 0 .91.91l2.28-.57.06-.016c.583-.145.959-.239 1.314-.392.314-.136.613-.305.892-.505.314-.226.587-.5 1.012-.924l.044-.044L13.5 14.56l7.97 7.97a.75.75 0 1 0 1.06-1.061l-8.497-8.498-.003-.002-.002-.003-2.995-2.995-.003-.002-.002-.003L2.53 1.47Zm14.62 1.323a2.75 2.75 0 0 1 3.7 0c.049.045.1.097.168.164l.012.013.013.012c.067.068.12.12.163.168a2.75 2.75 0 0 1 0 3.7c-.044.049-.096.1-.163.168l-.013.012-5 5a.75.75 0 1 1-1.06-1.06l5-5c.085-.086.11-.11.127-.13a1.25 1.25 0 0 0 0-1.68 4.64 4.64 0 0 0-.127-.13 4.739 4.739 0 0 0-.13-.127 1.25 1.25 0 0 0-1.68 0 4.739 4.739 0 0 0-.13.127l-5 5a.75.75 0 1 1-1.06-1.06l5-5 .012-.013c.068-.067.12-.12.168-.164Z" fill="#151E28"/></svg>