<svg viewBox="0 0 24 24" fill="none" xmlns="http://www.w3.org/2000/svg"><path fill-rule="evenodd" clip-rule="evenodd" d="M17.15 2.793a2.75 2.75 0 0 1 3.868.164l.012.013.013.012c.067.068.12.12.164.168a2.75 2.75 0 0 1-.164 3.868l-.013.012L9.784 18.277l-.044.044c-.425.424-.698.698-1.012.924-.279.2-.578.37-.892.505-.355.153-.73.247-1.313.392l-.06.015-2.281.57a.75.75 0 0 1-.91-.909l.57-2.28.016-.06c.145-.583.239-.959.392-1.314a4.75 4.75 0 0 1 .505-.892c.226-.314.5-.587.924-1.012l.044-.044L16.97 2.97l.012-.013c.068-.067.12-.12.168-.164ZM10 20.25a.75.75 0 0 0 0 1.5h10a.75.75 0 0 0 0-1.5H10Z" fill="#151E28"/></svg>