<svg viewBox="0 0 24 24" fill="none" xmlns="http://www.w3.org/2000/svg"><path fill-rule="evenodd" clip-rule="evenodd" d="M20.85 2.793a2.75 2.75 0 0 0-3.868.164l-.012.013L5.723 14.216l-.044.044c-.424.425-.698.698-.924 1.012-.2.278-.37.578-.505.892-.153.355-.247.73-.392 1.313l-.016.06-.57 2.281a.75.75 0 0 0 .91.91l2.28-.57.06-.016c.583-.145.959-.24 1.314-.392.314-.136.613-.305.892-.505.314-.226.587-.5 1.012-.924l.044-.044L21.03 7.03l.013-.012c.067-.068.12-.12.164-.168a2.75 2.75 0 0 0-.164-3.868l-.013-.012-.012-.013a5.112 5.112 0 0 0-.168-.164Z" fill="#151E28"/></svg>