<svg viewBox="0 0 24 24" fill="none" xmlns="http://www.w3.org/2000/svg"><path fill-rule="evenodd" clip-rule="evenodd" d="M12 2.25c-5.385 0-9.75 4.365-9.75 9.75s4.365 9.75 9.75 9.75 9.75-4.365 9.75-9.75S17.385 2.25 12 2.25Zm3.45 5.15a.75.75 0 0 1 .15 1.05l-6 8a.75.75 0 1 1-1.2-.9l6-8a.75.75 0 0 1 1.05-.15Zm-1.7 7.1a.75.75 0 1 1 1.5 0 .75.75 0 0 1-1.5 0Zm.75-2.25a2.25 2.25 0 1 0 0 4.5 2.25 2.25 0 0 0 0-4.5Zm-5-3.5a.75.75 0 1 0 0 1.5.75.75 0 0 0 0-1.5Zm-2.25.75a2.25 2.25 0 1 1 4.5 0 2.25 2.25 0 0 1-4.5 0Z" fill="#151E28"/></svg>