<svg viewBox="0 0 24 24" fill="none" xmlns="http://www.w3.org/2000/svg"><path fill-rule="evenodd" clip-rule="evenodd" d="M14 1.25a2.75 2.75 0 1 0 0 5.5 2.75 2.75 0 0 0 0-5.5Zm-3.38 8.868-.308.077a3.25 3.25 0 0 0-2.295 2.125l-.305.917a.75.75 0 0 1-1.424-.474l.306-.917A4.75 4.75 0 0 1 9.948 8.74l1-.25a8.041 8.041 0 0 1 1.95-.24c1.578 0 2.98 1.01 3.478 2.507l.089.266c.125.376.337.718.617.998l.448.449a.75.75 0 1 1-1.06 1.06l-.449-.448a4.053 4.053 0 0 1-.98-1.585l-.088-.265a2.167 2.167 0 0 0-2.055-1.482 6.6 6.6 0 0 0-.446.015.755.755 0 0 1-.031.07l-.304.608a3.25 3.25 0 0 0 .877 3.991l1.337 1.07a4.75 4.75 0 0 1 1.69 2.778l.714 3.57a.75.75 0 1 1-1.47.295l-.715-3.571a3.25 3.25 0 0 0-1.156-1.9l-1.338-1.07a4.75 4.75 0 0 1-1.437-5.488Zm.091 6.12a.75.75 0 0 0-1.423-.475l-.7 2.104a3.25 3.25 0 0 1-.786 1.27L5.47 21.47a.75.75 0 1 0 1.06 1.06l2.333-2.332a4.75 4.75 0 0 0 1.147-1.857l.701-2.104Z" fill="#151E28"/></svg>