<svg viewBox="0 0 24 24" fill="none" xmlns="http://www.w3.org/2000/svg"><path fill-rule="evenodd" clip-rule="evenodd" d="M17.468 4.586a.75.75 0 1 0-.936-1.172L12 7.04 9.138 4.75H11a.75.75 0 0 0 0-1.5H7a.75.75 0 0 0-.75.75v4a.75.75 0 0 0 1.5 0V5.56l3.781 3.026a.75.75 0 0 0 .938 0l5-4ZM6.644 13.374a12.283 12.283 0 0 1 10.753 0 4.728 4.728 0 0 0-2.371 1.288 2.75 2.75 0 0 0 0 3.89l2.828 2.828a2.75 2.75 0 0 0 3.89 0 4.75 4.75 0 0 0 0-6.718l-.039-.038c-5.372-5.332-14.05-5.32-19.407.038l-.012.012a4.75 4.75 0 0 0 .012 6.706 2.75 2.75 0 0 0 3.89 0l2.827-2.829a2.75 2.75 0 0 0 0-3.889 4.728 4.728 0 0 0-2.371-1.288Z" fill="#151E28"/></svg>