<svg viewBox="0 0 24 24" fill="none" xmlns="http://www.w3.org/2000/svg"><path fill-rule="evenodd" clip-rule="evenodd" d="M8 2.25A4.75 4.75 0 0 0 3.25 7c0 7.594 6.156 13.75 13.75 13.75A4.75 4.75 0 0 0 21.75 16 2.75 2.75 0 0 0 19 13.25h-4A2.75 2.75 0 0 0 12.25 16c0 .954.281 1.843.766 2.588a12.283 12.283 0 0 1-7.604-7.604A4.728 4.728 0 0 0 8 11.75 2.75 2.75 0 0 0 10.75 9V5A2.75 2.75 0 0 0 8 2.25Zm12 8.5a.75.75 0 0 1-.75-.75c0-3.086-2.164-5.25-5.25-5.25a.75.75 0 0 1 0-1.5c3.914 0 6.75 2.836 6.75 6.75a.75.75 0 0 1-.75.75ZM16.25 10a.75.75 0 0 0 1.5 0A3.75 3.75 0 0 0 14 6.25a.75.75 0 0 0 0 1.5A2.25 2.25 0 0 1 16.25 10Z" fill="#151E28"/></svg>