<svg viewBox="0 0 24 24" fill="none" xmlns="http://www.w3.org/2000/svg"><path fill-rule="evenodd" clip-rule="evenodd" d="M3.25 7A4.75 4.75 0 0 1 8 2.25 2.75 2.75 0 0 1 10.75 5v4A2.75 2.75 0 0 1 8 11.75a4.728 4.728 0 0 1-2.588-.766 12.283 12.283 0 0 0 7.604 7.604A4.728 4.728 0 0 1 12.25 16 2.75 2.75 0 0 1 15 13.25h4A2.75 2.75 0 0 1 21.75 16 4.75 4.75 0 0 1 17 20.75C9.406 20.75 3.25 14.594 3.25 7Zm12.28-3.53a.75.75 0 1 0-1.06 1.06l1.97 1.97-1.97 1.97a.75.75 0 0 0 1.06 1.06l1.97-1.97 1.97 1.97a.75.75 0 1 0 1.06-1.06L18.56 6.5l1.97-1.97a.75.75 0 0 0-1.06-1.06L17.5 5.44l-1.97-1.97Z" fill="#151E28"/></svg>