<svg viewBox="0 0 24 24" fill="none" xmlns="http://www.w3.org/2000/svg"><path fill-rule="evenodd" clip-rule="evenodd" d="M2.53 1.47a.75.75 0 0 0-1.06 1.06l2.302 2.303A4.733 4.733 0 0 0 3.25 7c0 7.594 6.156 13.75 13.75 13.75.78 0 1.517-.188 2.167-.522l2.303 2.302a.75.75 0 1 0 1.06-1.06l-20-20Zm10.495 12.616-3.111-3.111A2.745 2.745 0 0 1 8 11.75a4.728 4.728 0 0 1-2.588-.766 12.283 12.283 0 0 0 7.604 7.604A4.728 4.728 0 0 1 12.25 16c0-.745.296-1.42.775-1.914Zm-5.618-11.8A4.79 4.79 0 0 1 8 2.25 2.75 2.75 0 0 1 10.75 5v1.5a.75.75 0 0 1-1.5 0V5c0-.69-.56-1.25-1.25-1.25a3.29 3.29 0 0 0-.407.025.75.75 0 1 1-.186-1.488ZM17.5 13.25a.75.75 0 0 0 0 1.5H19c.69 0 1.25.56 1.25 1.25 0 .138-.009.274-.025.407a.75.75 0 0 0 1.488.186A4.8 4.8 0 0 0 21.75 16 2.75 2.75 0 0 0 19 13.25h-1.5Z" fill="#151E28"/></svg>