<svg viewBox="0 0 24 24" fill="none" xmlns="http://www.w3.org/2000/svg"><path fill-rule="evenodd" clip-rule="evenodd" d="M2.53 1.47a.75.75 0 0 0-1.06 1.06l2.835 2.835c-.671 1.17-1.055 2.573-1.055 4.19 0 2.768 1.079 5.223 2.426 7.212 1.348 1.99 2.991 3.554 4.194 4.559l.05.041c.42.352.763.639 1.325.799.238.068.515.092.756.092.24 0 .517-.024.755-.092.562-.16.905-.448 1.327-.801l.05-.042a24.009 24.009 0 0 0 3.067-3.062l4.27 4.27a.75.75 0 1 0 1.06-1.061l-20-20Zm5.774 7.894 4.332 4.332-.012.002a3.75 3.75 0 0 1-4.322-4.322l.002-.012ZM7.88 3.84c2.141-1.262 5.017-1.419 7.345-.445 2.287.955 4.024 2.985 4.024 6.16 0 1.652-.448 3.203-1.142 4.614a.75.75 0 1 0 1.346.662c.772-1.57 1.296-3.347 1.296-5.275 0-3.842-2.159-6.38-4.945-7.545-2.745-1.148-6.119-.976-8.686.537A.75.75 0 0 0 7.88 3.84Zm3.743 3.941a2.25 2.25 0 0 1 2.595 2.595.75.75 0 1 0 1.48.248 3.75 3.75 0 0 0-4.322-4.322.75.75 0 0 0 .247 1.48Z" fill="#151E28"/></svg>