<svg viewBox="0 0 24 24" fill="none" xmlns="http://www.w3.org/2000/svg"><path fill-rule="evenodd" clip-rule="evenodd" d="M20.75 9.542c0-2.734-1.096-4.83-2.768-6.231C16.327 1.924 14.148 1.25 12 1.25s-4.327.674-5.982 2.06C4.346 4.713 3.25 6.809 3.25 9.543c0 2.767 1.079 5.222 2.426 7.21 1.348 1.99 2.991 3.555 4.194 4.56l.05.041c.42.352.763.638 1.325.799.238.068.514.092.755.092s.517-.024.756-.092c.562-.16.904-.447 1.325-.799l.05-.041c1.202-1.005 2.846-2.57 4.193-4.56 1.347-1.988 2.426-4.443 2.426-7.21ZM16.53 7.47a.75.75 0 0 1 0 1.06l-5 5a.75.75 0 0 1-1.06 0l-2-2a.75.75 0 1 1 1.06-1.06L11 11.94l4.47-4.47a.75.75 0 0 1 1.06 0Z" fill="#151E28"/></svg>