<svg viewBox="0 0 24 24" fill="none" xmlns="http://www.w3.org/2000/svg"><path fill-rule="evenodd" clip-rule="evenodd" d="M20.75 9.555c0-2.733-1.096-4.83-2.768-6.23C16.327 1.936 14.148 1.263 12 1.263s-4.327.673-5.982 2.06C4.346 4.725 3.25 6.822 3.25 9.555c0 2.768 1.079 5.222 2.426 7.211 1.348 1.99 2.991 3.555 4.194 4.56l.05.04c.42.353.763.64 1.325.8.238.068.514.092.755.092s.517-.024.756-.092c.562-.16.904-.447 1.325-.8l.05-.04c1.202-1.005 2.846-2.57 4.193-4.56 1.347-1.989 2.426-4.443 2.426-7.21ZM12 7.25a.75.75 0 0 1 .75.75v2.25H15a.75.75 0 0 1 0 1.5h-2.25V14a.75.75 0 0 1-1.5 0v-2.25H9a.75.75 0 0 1 0-1.5h2.25V8a.75.75 0 0 1 .75-.75Z" fill="#151E28"/></svg>