<svg viewBox="0 0 24 24" fill="none" xmlns="http://www.w3.org/2000/svg"><path fill-rule="evenodd" clip-rule="evenodd" d="m3.634 8.158 6.827 12.58c.662 1.22 2.414 1.22 3.076 0l6.826-12.58.813-1.392c.458-.784.25-1.834-.577-2.33a16.675 16.675 0 0 0-8.6-2.373c-3.143 0-6.086.866-8.6 2.374-.827.495-1.035 1.545-.578 2.329l.813 1.392Zm8.145 11.865-2.923-5.387a3.251 3.251 0 1 0-3.018-5.562l-.527-.97a15.186 15.186 0 0 1 6.688-1.541c2.4 0 4.669.554 6.687 1.54l-1.86 3.429a3.25 3.25 0 0 0-3.091 5.697l-1.516 2.794a.25.25 0 0 1-.44 0Z" fill="#151E28"/></svg>