<svg viewBox="0 0 24 24" fill="none" xmlns="http://www.w3.org/2000/svg"><path fill-rule="evenodd" clip-rule="evenodd" d="M8 2.25a.75.75 0 0 0-.721.956L9.006 9.25H6.31L5.116 8.055a2.75 2.75 0 0 0-1.944-.805H2a.75.75 0 0 0-.728.932l.758 3.03a3.25 3.25 0 0 1 0 1.576l-.758 3.03A.75.75 0 0 0 2 16.75h1.172a2.75 2.75 0 0 0 1.944-.806l1.195-1.194h2.552L6.31 20.705A.75.75 0 0 0 7 21.75h3.259a3.75 3.75 0 0 0 3.256-1.89l2.92-5.11h3.206c.353 0 .7-.082 1.015-.24l.785-.392a2.368 2.368 0 0 0 0-4.236l-.785-.392a2.269 2.269 0 0 0-1.015-.24h-3.206l-2.92-5.11a3.75 3.75 0 0 0-3.256-1.89H8Z" fill="#151E28"/></svg>