<svg viewBox="0 0 24 24" fill="none" xmlns="http://www.w3.org/2000/svg"><path fill-rule="evenodd" clip-rule="evenodd" d="m8.87 3.954-.028-.019c-.377-.242-.702-.451-.975-.593-.275-.143-.612-.283-.992-.256a1.75 1.75 0 0 0-1.276.697c-.228.304-.293.664-.32.972a13.64 13.64 0 0 0-.029 1.141v12.208c0 .447 0 .834.028 1.14.028.309.093.668.321.973.304.406.77.66 1.276.697.38.027.717-.113.992-.256.273-.142.598-.351.975-.593l.029-.02 9.441-6.068.027-.018c.325-.209.611-.393.828-.561.222-.174.46-.398.596-.717a1.75 1.75 0 0 0 0-1.362c-.135-.32-.374-.543-.597-.717a11.932 11.932 0 0 0-.826-.561l-.028-.018-9.441-6.07Z" fill="#151E28"/></svg>