<svg viewBox="0 0 24 24" fill="none" xmlns="http://www.w3.org/2000/svg"><path fill-rule="evenodd" clip-rule="evenodd" d="M12 1.25C6.063 1.25 1.25 6.063 1.25 12S6.063 22.75 12 22.75 22.75 17.937 22.75 12 17.937 1.25 12 1.25Zm-2 12.64c0 1.005 0 1.508.208 1.778a1 1 0 0 0 .755.388c.34.013.75-.28 1.567-.863l2.647-1.891c.615-.44.922-.659 1.031-.93a1 1 0 0 0 0-.743c-.109-.272-.416-.492-1.03-.931l-2.648-1.89c-.817-.585-1.226-.877-1.567-.864a1 1 0 0 0-.755.388C10 8.602 10 9.104 10 10.11v3.782Z" fill="#151E28"/></svg>