<svg viewBox="0 0 24 24" fill="none" xmlns="http://www.w3.org/2000/svg"><path fill-rule="evenodd" clip-rule="evenodd" d="M12 2.75a1.25 1.25 0 0 0-1.18.836.75.75 0 0 1-1.125.375 1.25 1.25 0 0 0-1.784.425.75.75 0 0 1-.749.374A1.25 1.25 0 0 0 5.96 6.694a.75.75 0 0 1-.374 1.126 1.25 1.25 0 0 0-.495 2.038A2.997 2.997 0 0 1 6.91 9.25c.99 0 1.875.478 2.428 1.223A3.497 3.497 0 0 1 12 9.25c1.07 0 2.021.477 2.662 1.223A3.02 3.02 0 0 1 17.09 9.25c.692 0 1.318.228 1.82.608a1.25 1.25 0 0 0-.495-2.038.75.75 0 0 1-.375-1.125 1.25 1.25 0 0 0-1.202-1.934.75.75 0 0 1-.749-.375 1.25 1.25 0 0 0-1.784-.425.75.75 0 0 1-1.125-.375A1.25 1.25 0 0 0 12 2.75ZM3.25 9c0 .808.348 1.533.901 2.036a2.997 2.997 0 0 0-.173 1.969l1.567 6.266.018.074c.134.536.226.903.372 1.222a3.75 3.75 0 0 0 2.713 2.118c.346.065.724.065 1.276.065h4.152c.552 0 .93 0 1.276-.065a3.75 3.75 0 0 0 2.712-2.118c.147-.32.24-.686.373-1.222l.018-.073 1.567-6.267a2.997 2.997 0 0 0-.173-1.97A2.744 2.744 0 0 0 20.75 9c0-.907-.439-1.71-1.115-2.211a2.75 2.75 0 0 0-2.512-3.536 2.745 2.745 0 0 0-2.912-.888A2.745 2.745 0 0 0 12 1.25c-.907 0-1.71.439-2.211 1.115a2.75 2.75 0 0 0-2.913.888 2.75 2.75 0 0 0-2.511 3.536A2.745 2.745 0 0 0 3.25 9Zm12.164 5.062a.75.75 0 0 0-1.495-.124l-.416 5a.75.75 0 1 0 1.494.124l.417-5Zm-6.143-.81a.75.75 0 0 0-.685.81l.417 5a.75.75 0 1 0 1.494-.124l-.416-5a.75.75 0 0 0-.81-.685Z" fill="#151E28"/></svg>