<svg viewBox="0 0 24 24" fill="none" xmlns="http://www.w3.org/2000/svg"><path fill-rule="evenodd" clip-rule="evenodd" d="M13.117 2.479a2.75 2.75 0 0 0-2.234 0c-.485.216-.844.614-1.167 1.071-.322.454-.677 1.068-1.115 1.825l-.02.033-5.45 9.413-.018.033c-.44.76-.797 1.375-1.03 1.882-.237.51-.404 1.02-.35 1.55a2.75 2.75 0 0 0 1.119 1.938c.43.313.956.424 1.515.475.556.051 1.267.051 2.145.051h10.976c.878 0 1.59 0 2.145-.051.56-.051 1.085-.162 1.515-.475a2.75 2.75 0 0 0 1.118-1.939c.055-.529-.112-1.04-.348-1.55-.234-.506-.59-1.121-1.03-1.881l-.02-.033-5.45-9.413-.019-.033c-.438-.758-.793-1.37-1.114-1.825-.324-.457-.683-.855-1.168-1.071ZM12.75 11a.75.75 0 0 0-1.5 0v3a.75.75 0 0 0 1.5 0v-3Zm-2.505.437a.75.75 0 0 1 .068 1.058c-.35.4-.563.921-.563 1.496 0 1.25 1.01 2.259 2.25 2.259s2.25-1.01 2.25-2.26c0-.574-.212-1.096-.563-1.495a.75.75 0 1 1 1.126-.99 3.75 3.75 0 0 1 .937 2.486A3.755 3.755 0 0 1 12 17.75a3.755 3.755 0 0 1-3.75-3.76c0-.952.354-1.823.937-2.485a.75.75 0 0 1 1.058-.068Z" fill="#151E28"/></svg>