<svg viewBox="0 0 24 24" fill="none" xmlns="http://www.w3.org/2000/svg"><path fill-rule="evenodd" clip-rule="evenodd" d="M9.75 2a.75.75 0 0 0-1.5 0v3.5a.75.75 0 0 0 1.5 0V2Zm7.174 15.985 4.546 4.545a.75.75 0 1 0 1.06-1.06L8.535 7.474a.694.694 0 0 0-.009-.009L2.53 1.47a.75.75 0 0 0-1.06 1.06l4.814 4.814A2.751 2.751 0 0 0 4.25 10v2a7.75 7.75 0 0 0 7 7.714V23a.75.75 0 0 0 1.5 0v-3.286a7.717 7.717 0 0 0 4.174-1.73ZM12 7.25a.75.75 0 0 0 0 1.5h5c.69 0 1.25.56 1.25 1.25v2a6.22 6.22 0 0 1-.259 1.786.75.75 0 1 0 1.438.428A7.752 7.752 0 0 0 19.75 12v-2A2.75 2.75 0 0 0 17 7.25h-5Zm3-6a.75.75 0 0 1 .75.75v3.5a.75.75 0 0 1-1.5 0V2a.75.75 0 0 1 .75-.75Z" fill="#151E28"/></svg>