<svg viewBox="0 0 24 24" fill="none" xmlns="http://www.w3.org/2000/svg"><path fill-rule="evenodd" clip-rule="evenodd" d="M9 1.25a.75.75 0 0 1 .75.75v3.5a.75.75 0 0 1-1.5 0V2A.75.75 0 0 1 9 1.25Zm-1.83 6h9.66c.156 0 .277 0 .386.008a2.75 2.75 0 0 1 2.525 2.526c.01.109.009.23.009.387V12a7.75 7.75 0 0 1-7 7.714V23a.75.75 0 0 1-1.5 0v-3.286a7.75 7.75 0 0 1-7-7.714v-1.83c0-.156 0-.277.008-.386a2.75 2.75 0 0 1 2.526-2.526c.109-.008.23-.008.387-.008ZM15.75 2a.75.75 0 0 0-1.5 0v3.5a.75.75 0 0 0 1.5 0V2Z" fill="#151E28"/></svg>