<svg viewBox="0 0 24 24" fill="none" xmlns="http://www.w3.org/2000/svg"><path fill-rule="evenodd" clip-rule="evenodd" d="M2 2.25a.75.75 0 0 0 0 1.5h20a.75.75 0 0 0 0-1.5H2Zm2 3a.75.75 0 0 0-.75.75v4.232c0 .813 0 1.469.043 2 .045.546.14 1.026.366 1.47a3.75 3.75 0 0 0 1.639 1.64c.444.226.924.32 1.47.365.531.043 1.187.043 2 .043h2.482v1.825l-4.636 2.782a.75.75 0 1 0 .772 1.286L12 18.875l4.614 2.768a.75.75 0 1 0 .772-1.286l-4.636-2.782V15.75h2.482c.813 0 1.469 0 2-.043.546-.045 1.026-.14 1.47-.366a3.75 3.75 0 0 0 1.64-1.638c.226-.445.32-.925.365-1.471.043-.531.043-1.187.043-2V6a.75.75 0 0 0-.75-.75H4Zm12.624 3.334a.75.75 0 0 1-.208 1.04l-3 2a.75.75 0 0 1-.946-.094l-1.566-1.565-2.488 1.659a.75.75 0 1 1-.832-1.248l3-2a.75.75 0 0 1 .946.094l1.566 1.565 2.488-1.659a.75.75 0 0 1 1.04.208Z" fill="#151E28"/></svg>