<svg viewBox="0 0 24 24" fill="none" xmlns="http://www.w3.org/2000/svg"><path fill-rule="evenodd" clip-rule="evenodd" d="M2.53 1.47a.75.75 0 0 0-1.06 1.06l4.72 4.72H5A2.75 2.75 0 0 0 2.25 10v6A2.75 2.75 0 0 0 5 18.75h1.255c.003.143.008.274.016.395.021.317.068.617.188.907a2.75 2.75 0 0 0 1.489 1.489c.29.12.59.167.907.188.304.021.675.021 1.12.021h3.855c.535 0 .98 0 1.345-.03.38-.03.736-.098 1.073-.27a2.751 2.751 0 0 0 1.202-1.201c.172-.338.24-.694.27-1.074.01-.116.016-.24.02-.374l3.73 3.73a.75.75 0 1 0 1.06-1.061l-4-4-10-10-6-6Zm13.72 15.84-1.58-1.58a.755.755 0 0 1-.17.02H10c-.476 0-.796 0-1.043.017-.241.017-.358.046-.435.078a1.25 1.25 0 0 0-.677.677c-.032.077-.061.194-.078.435-.017.247-.017.567-.017 1.043s0 .796.017 1.043c.017.241.046.358.078.435.127.307.37.55.677.677.077.032.194.061.435.078.247.017.567.017 1.043.017h3.8c.572 0 .957 0 1.252-.025.288-.023.425-.065.516-.111a1.25 1.25 0 0 0 .546-.547c.046-.09.088-.227.111-.515.024-.295.025-.68.025-1.252v-.49Zm-.207-13.543A17.086 17.086 0 0 0 15 3.75H8a.75.75 0 0 1 0-1.5h7.025c.445 0 .816 0 1.12.02.318.022.617.069.907.19a2.75 2.75 0 0 1 1.489 1.488c.12.29.167.59.188.907.021.304.021.675.021 1.12V7.25H19A2.75 2.75 0 0 1 21.75 10v6c0 .5-.134.97-.368 1.375a.75.75 0 1 1-1.299-.75c.106-.184.167-.396.167-.625v-6c0-.69-.56-1.25-1.25-1.25h-7a.75.75 0 0 1 0-1.5h5.25V6c0-.476 0-.796-.017-1.043-.017-.241-.046-.358-.078-.435a1.25 1.25 0 0 0-.677-.677c-.077-.032-.194-.061-.435-.078Z" fill="#151E28"/></svg>