<svg viewBox="0 0 24 24" fill="none" xmlns="http://www.w3.org/2000/svg"><path fill-rule="evenodd" clip-rule="evenodd" d="M17 2.25h.095c.838 0 1.372 0 1.832.091a4.75 4.75 0 0 1 3.732 3.732c.091.46.091.994.091 1.832v8.19c0 .838 0 1.372-.091 1.832a4.75 4.75 0 0 1-3.732 3.732c-.46.091-.994.091-1.832.091H6.905c-.838 0-1.372 0-1.832-.091a4.75 4.75 0 0 1-3.732-3.732c-.091-.46-.091-.994-.091-1.832v-8.19c0-.838 0-1.372.091-1.832a4.75 4.75 0 0 1 3.732-3.732c.46-.091.994-.091 1.832-.091H17Zm-10 6a.75.75 0 0 1 .75.75v2.25h2.5V9a.75.75 0 0 1 1.5 0v6a.75.75 0 0 1-1.5 0v-2.25h-2.5V15a.75.75 0 0 1-1.5 0V9A.75.75 0 0 1 7 8.25Zm8.75 1.5a1.5 1.5 0 0 0-1.5 1.5v1.5a1.5 1.5 0 0 0 3 0v-1.5a1.5 1.5 0 0 0-1.5-1.5Zm-3 1.5a3 3 0 1 1 6 0v1.5a2.998 2.998 0 0 1-1.465 2.578l.703.603a.75.75 0 1 1-.976 1.138l-1.556-1.333a3 3 0 0 1-2.706-2.986v-1.5Z" fill="#151E28"/></svg>