<svg viewBox="0 0 24 24" fill="none" xmlns="http://www.w3.org/2000/svg"><path fill-rule="evenodd" clip-rule="evenodd" d="M12 2.25c-5.385 0-9.75 4.365-9.75 9.75s4.365 9.75 9.75 9.75 9.75-4.365 9.75-9.75S17.385 2.25 12 2.25ZM10.75 10a1.25 1.25 0 1 1 2.5 0c0 .357-.149.638-.45.937-.237.235-.502.424-.81.644-.138.098-.284.202-.44.319a.75.75 0 0 0-.3.6v1a.75.75 0 0 0 1.5 0v-.617l.012-.009c.345-.245.765-.545 1.094-.872.48-.476.894-1.117.894-2.002a2.75 2.75 0 1 0-5.5 0 .75.75 0 0 0 1.5 0ZM13 16a1 1 0 1 1-2 0 1 1 0 0 1 2 0Z" fill="#151E28"/></svg>