<svg viewBox="0 0 24 24" fill="none" xmlns="http://www.w3.org/2000/svg"><path fill-rule="evenodd" clip-rule="evenodd" d="M8.75 4h-.095c-.838 0-1.372 0-1.832.091l.147.736-.147-.736a4.75 4.75 0 0 0-3.732 3.732C3 8.283 3 8.817 3 9.655v6.095a3.75 3.75 0 1 0 1.5-3v-3c0-.965.004-1.338.062-1.634a3.25 3.25 0 0 1 2.554-2.554c.296-.058.669-.062 1.634-.062a.75.75 0 0 0 0-1.5Zm10.155.25H19a.75.75 0 0 1 0 1.5c-.965 0-1.338.004-1.634.062a3.25 3.25 0 0 0-2.554 2.554c-.058.296-.062.669-.062 1.634v3a3.75 3.75 0 1 1-1.5 3V9.905c0-.838 0-1.372.091-1.832a4.75 4.75 0 0 1 3.732-3.732l.147.736-.147-.736c.46-.091.994-.091 1.832-.091Z" fill="#151E28"/></svg>