<svg viewBox="0 0 24 24" fill="none" xmlns="http://www.w3.org/2000/svg"><path fill-rule="evenodd" clip-rule="evenodd" d="M6.75 4A3.75 3.75 0 1 0 9 10.75v3c0 .965-.004 1.338-.062 1.634a3.25 3.25 0 0 1-2.554 2.554c-.296.058-.669.062-1.634.062a.75.75 0 0 0 0 1.5h.095c.838 0 1.372 0 1.832-.091a4.75 4.75 0 0 0 3.732-3.732c.091-.46.091-.994.091-1.832V7.75A3.75 3.75 0 0 0 6.75 4ZM17 4.25A3.75 3.75 0 1 0 19.25 11v3c0 .965-.004 1.338-.062 1.634a3.25 3.25 0 0 1-2.554 2.554c-.296.058-.669.062-1.634.062a.75.75 0 0 0 0 1.5h.095c.838 0 1.372 0 1.832-.091a4.75 4.75 0 0 0 3.732-3.732c.091-.46.091-.994.091-1.832V8A3.75 3.75 0 0 0 17 4.25Z" fill="#151E28"/></svg>