<svg viewBox="0 0 24 24" fill="none" xmlns="http://www.w3.org/2000/svg"><path fill-rule="evenodd" clip-rule="evenodd" d="M3.75 5c0-.672.577-1.25 1.25-1.25a.75.75 0 0 0 0-1.5C3.498 2.25 2.25 3.501 2.25 5v3c0 1.23.999 2.224 2.227 2.224A2.225 2.225 0 0 0 6.704 8 2.225 2.225 0 0 0 3.75 5.898V5Zm5 0c0-.672.577-1.25 1.25-1.25a.75.75 0 0 0 0-1.5C8.498 2.25 7.25 3.501 7.25 5v3c0 1.23.999 2.224 2.227 2.224A2.225 2.225 0 0 0 11.704 8 2.225 2.225 0 0 0 8.75 5.898V5Zm6.454 14v-.898A2.225 2.225 0 0 1 12.25 16c0-1.23.999-2.224 2.227-2.224 1.228 0 2.227.994 2.227 2.224v3c0 1.499-1.248 2.75-2.75 2.75a.75.75 0 0 1 0-1.5c.673 0 1.25-.578 1.25-1.25Zm5 0v-.898A2.225 2.225 0 0 1 17.25 16c0-1.23.999-2.224 2.227-2.224 1.228 0 2.227.994 2.227 2.224v3c0 1.499-1.248 2.75-2.75 2.75a.75.75 0 0 1 0-1.5c.673 0 1.25-.578 1.25-1.25Z" fill="#151E28"/></svg>