<svg viewBox="0 0 24 24" fill="none" xmlns="http://www.w3.org/2000/svg"><path fill-rule="evenodd" clip-rule="evenodd" d="M18 1.25a.75.75 0 0 1 0 1.5H9c-1.02 0-1.882.68-2.158 1.61.748-.11 1.667-.11 3.018-.11h4.28c1.727 0 2.748 0 3.607.23a6.75 6.75 0 0 1 4.773 4.773c.23.86.23 1.88.23 3.607v.28c0 1.727 0 2.748-.23 3.607a6.75 6.75 0 0 1-4.773 4.773c-.86.23-1.88.23-3.607.23H9.86c-1.727 0-2.748 0-3.607-.23a6.75 6.75 0 0 1-4.773-4.773c-.23-.86-.23-1.88-.23-3.607v-.28c0-1.726 0-2.748.23-3.607a6.75 6.75 0 0 1 3.774-4.42A3.75 3.75 0 0 1 9 1.25h9ZM9.25 13a1.25 1.25 0 1 0-2.5 0 1.25 1.25 0 0 0 2.5 0ZM8 10.25a2.75 2.75 0 1 1 0 5.5 2.75 2.75 0 0 1 0-5.5Zm10 5.5a.75.75 0 0 0 .75-.75v-4a.75.75 0 0 0-1.5 0v4c0 .414.336.75.75.75ZM14.75 14a.75.75 0 0 1-1.5 0v-2a.75.75 0 0 1 1.5 0v2Z" fill="#151E28"/></svg>