<svg viewBox="0 0 24 24" fill="none" xmlns="http://www.w3.org/2000/svg"><path fill-rule="evenodd" clip-rule="evenodd" d="m16 4 .586-.469a.75.75 0 0 0-1.171 0L16 4Zm0 0 .586-.468.002.003.006.006.019.025a15.857 15.857 0 0 1 .306.407c.195.269.457.644.72 1.071.261.425.532.914.74 1.407.202.48.371 1.027.371 1.549 0 .93-.319 1.659-.895 2.139-.552.46-1.243.611-1.855.611-.611 0-1.303-.151-1.855-.611-.576-.48-.895-1.209-.895-2.139 0-.522.169-1.068.371-1.549.208-.493.479-.982.74-1.407a16.971 16.971 0 0 1 1.026-1.478l.02-.025.005-.006.002-.002v-.001L16 4ZM7 6l.586-.469a.75.75 0 0 0-1.172 0L7 6Zm0 0-.586-.468-.002.003-.005.006-.02.025a10.604 10.604 0 0 0-.306.407 17.34 17.34 0 0 0-.72 1.071c-.261.425-.532.914-.74 1.407-.202.48-.37 1.027-.37 1.549 0 .93.318 1.659.894 2.139.552.46 1.244.611 1.855.611.612 0 1.303-.151 1.855-.611.576-.48.895-1.209.895-2.139 0-.522-.169-1.068-.371-1.549a10.617 10.617 0 0 0-.74-1.407 17.006 17.006 0 0 0-1.026-1.478l-.02-.025-.005-.006-.001-.002v-.001h-.001L7 6Zm5.586 6.531L12 13l-.585-.469a.75.75 0 0 1 1.17 0ZM12 13c-.585-.469-.586-.468-.586-.468l-.002.003-.006.006-.019.025a12.157 12.157 0 0 0-.306.407c-.195.268-.457.644-.72 1.071-.261.425-.532.914-.74 1.407-.202.48-.37 1.027-.37 1.549 0 .93.318 1.659.894 2.139.552.46 1.244.611 1.855.611.612 0 1.303-.151 1.855-.611.576-.48.895-1.209.895-2.139 0-.522-.169-1.068-.371-1.549a10.611 10.611 0 0 0-.74-1.407 17.041 17.041 0 0 0-1.026-1.478l-.02-.025-.005-.006-.001-.002v-.001h-.001L12 13Z" fill="#151E28"/></svg>