<svg viewBox="0 0 24 24" fill="none" xmlns="http://www.w3.org/2000/svg"><path fill-rule="evenodd" clip-rule="evenodd" d="M9.433 2.613a2.75 2.75 0 0 1 1.134 0c.425.09.813.311 1.306.594l.087.05L13 3.85c.31.177.69.177 1 0 1.67-.955 3.75.252 3.75 2.176V19a1.25 1.25 0 0 0 1.24 1.25h.016A1.25 1.25 0 0 0 20.25 19v-1.545c0-.856-.218-1.233-.398-1.408-.188-.183-.473-.281-.881-.297a.75.75 0 1 1 .058-1.5c.592.024 1.307.175 1.869.721.57.554.852 1.385.852 2.484V19A2.75 2.75 0 0 1 19 21.75H7.768c-.813 0-1.469 0-2-.043-.546-.045-1.026-.14-1.47-.366a3.75 3.75 0 0 1-1.64-1.638c-.226-.444-.32-.925-.365-1.471-.043-.531-.043-1.187-.043-2V6.027c0-1.924 2.08-3.131 3.75-2.176.31.177.69.177 1 0l1.04-.595.087-.05c.493-.282.88-.504 1.306-.593Z" fill="#151E28"/></svg>