<svg viewBox="0 0 24 24" fill="none" xmlns="http://www.w3.org/2000/svg"><path fill-rule="evenodd" clip-rule="evenodd" d="M9.4 2.25h-.033c-1.092 0-1.958 0-2.655.057-.714.058-1.317.18-1.868.46a4.75 4.75 0 0 0-2.076 2.077c-.281.55-.403 1.154-.461 1.868-.057.697-.057 1.563-.057 2.655v5.266c0 1.092 0 1.958.057 2.655.058.714.18 1.317.46 1.869a4.75 4.75 0 0 0 2.077 2.075c.55.281 1.154.403 1.868.461.697.057 1.563.057 2.655.057h5.266c1.092 0 1.958 0 2.655-.057.714-.058 1.317-.18 1.869-.46a4.75 4.75 0 0 0 2.075-2.076c.281-.552.403-1.155.461-1.869.057-.697.057-1.563.057-2.655V9.367c0-1.092 0-1.958-.057-2.655-.058-.714-.18-1.317-.46-1.868a4.75 4.75 0 0 0-2.076-2.076c-.552-.281-1.155-.403-1.869-.461-.697-.057-1.563-.057-2.655-.057H9.4Zm-.657 11.854a.75.75 0 0 1-1.486-.207L8 14a135.21 135.21 0 0 1-.743-.104v-.002l.001-.003.002-.012.006-.041a9.511 9.511 0 0 1 .127-.635c.095-.402.25-.947.488-1.5.442-1.028 1.343-2.453 3.008-2.453.788 0 1.542.332 2.186.742.653.417 1.264.96 1.779 1.481.138.14.27.28.396.418V11a.75.75 0 0 1 1.5 0v3a.75.75 0 0 1-.75.75h-3a.75.75 0 0 1 0-1.5h1.453c-.2-.23-.425-.477-.668-.723-.47-.478-.993-.936-1.516-1.27-.534-.34-1.001-.507-1.38-.507-.669 0-1.212.575-1.63 1.547a7.712 7.712 0 0 0-.493 1.664 5.15 5.15 0 0 0-.018.111l-.004.027-.001.005Z" fill="#151E28"/></svg>