<svg viewBox="0 0 24 24" fill="none" xmlns="http://www.w3.org/2000/svg"><path fill-rule="evenodd" clip-rule="evenodd" d="M9.325 2.25h-.072c-.419 0-.748 0-1.067.076a2.75 2.75 0 0 0-.794.33c-.28.17-.513.403-.808.7l-.052.05-3.125 3.126-.051.052c-.297.295-.53.528-.7.808a2.75 2.75 0 0 0-.33.794c-.076.319-.076.648-.076 1.067v5.494c0 .419 0 .748.076 1.066.067.281.178.55.33.795.17.28.403.512.7.808l.05.052 3.126 3.125.052.051c.295.297.528.53.808.7.246.151.514.263.794.33.319.076.648.076 1.067.076h5.494c.419 0 .748 0 1.066-.076a2.75 2.75 0 0 0 .795-.33c.28-.17.512-.404.808-.7l.052-.05 3.125-3.126.051-.052c.297-.296.53-.528.7-.808a2.75 2.75 0 0 0 .33-.795c.076-.318.076-.647.076-1.066V9.253c0-.419 0-.748-.076-1.067a2.75 2.75 0 0 0-.33-.794c-.17-.28-.404-.513-.7-.808l-.05-.052-3.126-3.125-.052-.051c-.296-.297-.528-.53-.808-.7a2.75 2.75 0 0 0-.795-.33c-.318-.076-.647-.076-1.066-.076H9.325Zm-.582 11.854a.75.75 0 0 1-1.486-.207L8 14a135.21 135.21 0 0 1-.743-.104v-.002l.001-.003.002-.012.006-.041a9.511 9.511 0 0 1 .127-.635c.095-.402.25-.947.488-1.5.442-1.028 1.343-2.453 3.008-2.453.788 0 1.542.332 2.186.742.653.417 1.264.96 1.779 1.481.138.14.27.28.396.418V11a.75.75 0 0 1 1.5 0v3a.75.75 0 0 1-.75.75h-3a.75.75 0 0 1 0-1.5h1.453c-.2-.23-.425-.477-.668-.723-.47-.478-.993-.936-1.516-1.27-.534-.34-1.001-.507-1.38-.507-.669 0-1.212.575-1.63 1.547a7.712 7.712 0 0 0-.493 1.664 5.15 5.15 0 0 0-.018.111l-.004.027-.001.005Z" fill="#151E28"/></svg>