<svg viewBox="0 0 24 24" fill="none" xmlns="http://www.w3.org/2000/svg"><path fill-rule="evenodd" clip-rule="evenodd" d="M12 1.25C6.063 1.25 1.25 6.063 1.25 12S6.063 22.75 12 22.75 22.75 17.937 22.75 12 17.937 1.25 12 1.25ZM8.743 14.104a.75.75 0 0 1-1.486-.207L8 14a135.21 135.21 0 0 1-.743-.104v-.002l.001-.003.002-.012.006-.041a9.511 9.511 0 0 1 .127-.635c.095-.402.25-.947.488-1.5.442-1.028 1.343-2.453 3.008-2.453.788 0 1.542.332 2.186.742.653.417 1.264.96 1.779 1.481.138.14.27.28.396.418V11a.75.75 0 0 1 1.5 0v3a.75.75 0 0 1-.75.75h-3a.75.75 0 0 1 0-1.5h1.453c-.2-.23-.425-.477-.668-.723-.47-.478-.993-.936-1.516-1.27-.534-.34-1.001-.507-1.38-.507-.669 0-1.212.575-1.63 1.547a7.712 7.712 0 0 0-.493 1.664 5.15 5.15 0 0 0-.018.111l-.004.027-.001.005Z" fill="#151E28"/></svg>