<svg viewBox="0 0 24 24" fill="none" xmlns="http://www.w3.org/2000/svg"><path fill-rule="evenodd" clip-rule="evenodd" d="M6.917 14.745a.75.75 0 0 0 .828-.662L7 14l.745.083.001-.007.004-.033.021-.14c.02-.124.052-.304.1-.522a8.496 8.496 0 0 1 .509-1.576c.52-1.17 1.302-2.055 2.509-2.055 1.317 0 2.65 1.016 3.745 2.248.387.435.722.873.991 1.252h-2.514a.75.75 0 0 0 0 1.5H17a.75.75 0 0 0 .75-.75V9a.75.75 0 0 0-1.5 0v2.588a15.22 15.22 0 0 0-.495-.586c-1.127-1.268-2.85-2.752-4.866-2.752-2.127 0-3.289 1.615-3.88 2.945a9.99 9.99 0 0 0-.602 1.861 10.251 10.251 0 0 0-.15.839l-.002.015v.006L7 14l-.745-.083a.75.75 0 0 0 .662.828Z" fill="#151E28"/></svg>