<svg viewBox="0 0 24 24" fill="none" xmlns="http://www.w3.org/2000/svg"><path fill-rule="evenodd" clip-rule="evenodd" d="M6.25 11c0 .54.011 1.05.033 1.535-2.408 1.403-3.758 4.174-3.294 6.96l.271 1.628a.75.75 0 0 0 1.076.548l4-2a.754.754 0 0 0 .084-.05c.99.784 2.31 1.129 3.58 1.129s2.59-.345 3.58-1.128a.759.759 0 0 0 .085.049l4 2a.75.75 0 0 0 1.075-.548l.271-1.629c.464-2.785-.886-5.556-3.294-6.959.021-.484.033-.996.033-1.535 0-5.5-2.929-8.153-4.504-9.17l-.012-.009c-.073-.047-.173-.112-.293-.168a2.153 2.153 0 0 0-.43-.141A2.442 2.442 0 0 0 12 1.466c-.142 0-.348.007-.512.046a2.147 2.147 0 0 0-.43.141c-.12.056-.22.121-.292.168l-.013.008C9.178 2.847 6.25 5.5 6.25 11Zm-1.782 8.248c-.317-1.903.462-3.813 1.943-4.988a19.7 19.7 0 0 0 .546 3.046l.212 1.27-2.596 1.299-.105-.627Zm15.064 0c.317-1.903-.462-3.813-1.943-4.988a19.713 19.713 0 0 1-.546 3.042l-.212 1.275 2.596 1.298.105-.627ZM14 10a2 2 0 1 1-4 0 2 2 0 0 1 4 0Z" fill="#151E28"/></svg>