<svg viewBox="0 0 24 24" fill="none" xmlns="http://www.w3.org/2000/svg"><path fill-rule="evenodd" clip-rule="evenodd" d="M10.287 6.08c-.382.382-.735.752-1.062 1.11-2.695-.711-5.61.294-7.25 2.591l-.96 1.344a.75.75 0 0 0 .373 1.147l4.242 1.414c.031.01.063.02.095.025.145 1.254.835 2.432 1.733 3.33.898.898 2.076 1.588 3.33 1.733a.749.749 0 0 0 .025.095l1.414 4.242a.75.75 0 0 0 1.147.374l1.344-.96c2.298-1.641 3.302-4.556 2.591-7.25.358-.328.728-.681 1.11-1.063 3.889-3.889 3.694-7.836 3.3-9.67l-.003-.013a2.35 2.35 0 0 0-.089-.326 2.152 2.152 0 0 0-.203-.404 2.44 2.44 0 0 0-.33-.394c-.1-.1-.251-.241-.394-.33a2.15 2.15 0 0 0-.404-.203 2.368 2.368 0 0 0-.326-.089l-.014-.003c-1.833-.394-5.78-.589-9.67 3.3Zm-7.092 4.573c1.121-1.57 3.022-2.37 4.9-2.154a19.704 19.704 0 0 0-1.766 2.539l-.75 1.05-2.754-.918.37-.517Zm10.651 10.651c1.57-1.121 2.37-3.022 2.154-4.9-.953.77-1.801 1.34-2.537 1.765l-1.052.751.918 2.754.517-.37Zm2.628-10.45a2 2 0 1 1-2.829-2.83 2 2 0 0 1 2.829 2.83Z" fill="#151E28"/></svg>