<svg viewBox="0 0 24 24" fill="none" xmlns="http://www.w3.org/2000/svg"><path fill-rule="evenodd" clip-rule="evenodd" d="m18.307 3.104.022.022 2.545 2.545.022.022c.377.377.693.693.93.971.246.29.45.59.568.95a2.75 2.75 0 0 1 0 1.7c-.117.36-.322.66-.569.95-.236.279-.552.594-.93.972l-.02.021-.036.036-.53-.53-.53-.531-2.299-2.298a.75.75 0 0 0-1.06 1.06l2.297 2.299.53.53.531.53-1.768 1.768-.53-.53-.53-.53-.884-.884a.75.75 0 0 0-1.06 1.06l.883.884.53.53.53.53-1.767 1.769-.53-.53-.53-.531-2.299-2.298a.75.75 0 1 0-1.06 1.06l2.298 2.299.53.53.53.53-1.768 1.768-.53-.53-.53-.53-.884-.885a.75.75 0 1 0-1.06 1.061l.883.884.53.53.53.53-.034.036-.022.021c-.378.378-.693.694-.972.93-.29.247-.59.451-.95.568a2.75 2.75 0 0 1-1.7 0c-.36-.117-.659-.321-.95-.568-.278-.236-.593-.552-.971-.93l-.022-.021-2.545-2.546-.022-.021a17.822 17.822 0 0 1-.93-.972c-.246-.29-.45-.59-.568-.95a2.75 2.75 0 0 1 0-1.7c.117-.36.322-.66.569-.95.236-.278.552-.593.93-.971l.02-.022 9.617-9.616.022-.022c.378-.378.693-.693.972-.93.29-.246.59-.45.95-.568a2.75 2.75 0 0 1 1.7 0c.36.117.659.322.95.569.278.236.593.551.971.93Z" fill="#151E28"/></svg>