<svg viewBox="0 0 24 24" fill="none" xmlns="http://www.w3.org/2000/svg"><path fill-rule="evenodd" clip-rule="evenodd" d="M8.75 2.995a.75.75 0 0 1-.74.76c-1.364.019-2.006.105-2.485.349a3.25 3.25 0 0 0-1.42 1.42c-.075.147-.13.251-.172.329-.103.196-.118.225-.14.347-.04.236-.043.636-.043 1.8a.75.75 0 1 1-1.5 0v-.135c0-.99 0-1.538.065-1.92.065-.376.208-.643.353-.912.033-.063.067-.125.1-.19a4.75 4.75 0 0 1 2.076-2.075c.83-.424 1.81-.494 3.146-.513a.75.75 0 0 1 .76.74Zm6.5 0a.75.75 0 0 1 .76-.74c1.336.019 2.315.09 3.146.513a4.75 4.75 0 0 1 2.076 2.075c.033.065.067.127.1.19.145.269.288.536.353.913.065.38.065.928.065 1.92V8a.75.75 0 0 1-1.5 0c0-1.164-.003-1.564-.044-1.8-.02-.122-.036-.151-.14-.347l-.17-.329a3.25 3.25 0 0 0-1.42-1.42c-.48-.244-1.122-.33-2.486-.349a.75.75 0 0 1-.74-.76ZM3 15.25a.75.75 0 0 1 .75.75c0 1.163.003 1.564.044 1.8.02.122.036.151.14.347.04.078.096.182.17.328a3.25 3.25 0 0 0 1.42 1.42c.48.245 1.122.33 2.486.35a.75.75 0 1 1-.02 1.5c-1.336-.019-2.315-.09-3.146-.513a4.75 4.75 0 0 1-2.076-2.076l-.1-.19c-.145-.268-.288-.536-.353-.912-.065-.381-.065-.928-.065-1.92V16a.75.75 0 0 1 .75-.75Zm18 0a.75.75 0 0 1 .75.75v.134c0 .991 0 1.539-.065 1.92-.065.376-.208.644-.353.913-.033.062-.067.125-.1.19a4.75 4.75 0 0 1-2.075 2.075c-.832.424-1.81.494-3.147.512a.75.75 0 0 1-.02-1.5c1.364-.018 2.006-.104 2.486-.348a3.25 3.25 0 0 0 1.42-1.42l.17-.33c.104-.195.12-.224.14-.346.04-.236.044-.637.044-1.8a.75.75 0 0 1 .75-.75Zm-13-8a.75.75 0 0 1 .75.75v1.5a.75.75 0 1 1-1.5 0V8A.75.75 0 0 1 8 7.25Zm8.75.75a.75.75 0 0 0-1.5 0v1.5a.75.75 0 0 0 1.5 0V8ZM12 7.25a.75.75 0 0 1 .75.75v2.747c0 .418 0 .748-.076 1.066a2.75 2.75 0 0 1-.33.795c-.17.28-.403.512-.7.808l-.051.051-.063.063a.75.75 0 0 1-1.06-1.06l.062-.063c.371-.371.467-.474.534-.582.068-.112.119-.234.15-.362.03-.124.034-.264.034-.789V8a.75.75 0 0 1 .75-.75Zm-4.335 7.079a.75.75 0 0 1 1.003.329l.001.003.02.036c.023.035.06.093.114.165.11.146.285.348.54.552.502.401 1.34.836 2.657.836 1.318 0 2.155-.435 2.656-.836a3 3 0 0 0 .54-.552 2.068 2.068 0 0 0 .135-.201l.001-.003a.75.75 0 0 1 1.339.677L16 15l.67.336-.001.003-.002.004-.006.01-.016.03a3.549 3.549 0 0 1-.248.379c-.172.23-.434.528-.803.823-.749.6-1.912 1.165-3.594 1.165s-2.845-.566-3.594-1.165a4.585 4.585 0 0 1-.803-.823 3.575 3.575 0 0 1-.264-.408l-.006-.011-.002-.004-.001-.002v-.001L8 15l-.67.335a.75.75 0 0 1 .335-1.006Z" fill="#151E28"/></svg>