<svg viewBox="0 0 24 24" fill="none" xmlns="http://www.w3.org/2000/svg"><path fill-rule="evenodd" clip-rule="evenodd" d="M19.75 7.8v7.904h1.114c1.041 0 1.886.845 1.886 1.887a4.16 4.16 0 0 1-4.16 4.159H9A2.75 2.75 0 0 1 6.25 19V5a1.25 1.25 0 0 0-1.235-1.25H4.99A1.25 1.25 0 0 0 3.75 5v1.545c0 .856.217 1.233.398 1.408.188.183.473.282.881.298a.75.75 0 1 1-.058 1.498c-.592-.023-1.307-.174-1.869-.72-.57-.554-.852-1.385-.852-2.484V5A2.75 2.75 0 0 1 5 2.25h9.232c.813 0 1.469 0 2 .043.546.045 1.026.14 1.47.366a3.75 3.75 0 0 1 1.64 1.639c.226.444.32.924.365 1.47.043.532.043 1.187.043 2V7.8Zm-8.3 12.45h7.14a2.66 2.66 0 0 0 2.66-2.66.386.386 0 0 0-.386-.386h-7.319c-.546 0-.7.005-.81.03a1.25 1.25 0 0 0-.956.955c-.025.111-.029.265-.029.811 0 .45-.108.875-.3 1.25Z" fill="#151E28"/></svg>