<svg viewBox="0 0 24 24" fill="none" xmlns="http://www.w3.org/2000/svg"><path fill-rule="evenodd" clip-rule="evenodd" d="M17.23 2.412c-.606-.162-1.318-.162-2.436-.162h-.275c-2.34 0-3.67 0-4.784.298a8.75 8.75 0 0 0-6.187 6.187C3.25 9.85 3.25 11.18 3.25 13.52v1.507c0 .909 0 1.63.04 2.213.04.596.125 1.104.322 1.578a4.75 4.75 0 0 0 2.57 2.57c.474.197.982.281 1.578.322.584.04 1.304.04 2.213.04h3.66c1.092 0 1.958 0 2.655-.057.714-.058 1.317-.18 1.869-.46a4.75 4.75 0 0 0 2.075-2.077c.281-.55.403-1.154.461-1.868.057-.697.057-1.563.057-2.655V8.206c0-1.118 0-1.83-.162-2.435a4.75 4.75 0 0 0-3.359-3.36ZM15 6.25a.75.75 0 0 1 .75.75v4a.75.75 0 0 1-1.5 0V7a.75.75 0 0 1 .75-.75ZM12.75 7a.75.75 0 0 0-1.5 0v4a.75.75 0 0 0 1.5 0V7ZM9 8.75a.75.75 0 0 1 .75.75V11a.75.75 0 0 1-1.5 0V9.5A.75.75 0 0 1 9 8.75Z" fill="#151E28"/></svg>