<svg viewBox="0 0 24 24" fill="none" xmlns="http://www.w3.org/2000/svg"><path fill-rule="evenodd" clip-rule="evenodd" d="M4.5 3.5h15c.465 0 .697 0 .89.038a2 2 0 0 1 1.572 1.572C22 5.303 22 5.535 22 6s0 .697-.038.89a2 2 0 0 1-1.572 1.572c-.193.038-.425.038-.89.038h-15c-.465 0-.697 0-.89-.038A2 2 0 0 1 2.038 6.89C2 6.697 2 6.465 2 6s0-.697.038-.89A2 2 0 0 1 3.61 3.538c.193-.038.425-.038.89-.038ZM17 7a1 1 0 1 0 0-2 1 1 0 0 0 0 2ZM4.5 15.5h15c.465 0 .697 0 .89.038a2 2 0 0 1 1.572 1.572c.038.193.038.425.038.89s0 .697-.038.89a2 2 0 0 1-1.572 1.572c-.193.038-.425.038-.89.038h-15c-.465 0-.697 0-.89-.038a2 2 0 0 1-1.572-1.572C2 18.697 2 18.465 2 18s0-.697.038-.89a2 2 0 0 1 1.572-1.572c.193-.038.425-.038.89-.038ZM17 19a1 1 0 1 0 0-2 1 1 0 0 0 0 2Zm2.5-9.5h-15c-.465 0-.697 0-.89.038a2 2 0 0 0-1.572 1.572C2 11.303 2 11.535 2 12s0 .697.038.89a2 2 0 0 0 1.572 1.572c.193.038.425.038.89.038h15c.465 0 .697 0 .89-.038a2 2 0 0 0 1.572-1.572C22 12.697 22 12.465 22 12s0-.697-.038-.89a2 2 0 0 0-1.572-1.572c-.193-.038-.425-.038-.89-.038ZM18 12a1 1 0 1 1-2 0 1 1 0 0 1 2 0Z" fill="#151E28"/></svg>