<svg viewBox="0 0 24 24" fill="none" xmlns="http://www.w3.org/2000/svg"><path fill-rule="evenodd" clip-rule="evenodd" d="M12 2.25c-3.382 0-5.576.619-6.897 1.21-1.331.595-1.853 1.955-1.853 3.194v6.806c0 1.08.162 2.28.819 3.312 2.221 3.495 6.283 4.629 7.441 4.893.325.074.655.074.98 0 1.158-.264 5.22-1.398 7.441-4.893.657-1.032.82-2.232.82-3.312V6.655c0-1.24-.523-2.6-1.854-3.195-1.321-.591-3.514-1.21-6.897-1.21Zm4.03 6.72a.75.75 0 0 1 0 1.06l-4.5 4.5a.75.75 0 0 1-1.06 0l-2-2a.75.75 0 1 1 1.06-1.06L11 12.94l3.97-3.97a.75.75 0 0 1 1.06 0Z" fill="#151E28"/></svg>