<svg viewBox="0 0 24 24" fill="none" xmlns="http://www.w3.org/2000/svg"><path fill-rule="evenodd" clip-rule="evenodd" d="M2.53 1.47a.75.75 0 0 0-1.06 1.06l2.234 2.235c-.316.579-.454 1.242-.454 1.89v6.805c0 1.08.162 2.28.819 3.312 2.221 3.495 6.283 4.629 7.441 4.893.325.074.655.074.98 0 .88-.201 3.345-.883 5.46-2.654l3.52 3.52a.75.75 0 1 0 1.06-1.061l-20-20ZM12 3.75c-1.563 0-2.835.14-3.856.34a.75.75 0 0 1-.288-1.472c1.122-.22 2.492-.368 4.144-.368 3.382 0 5.576.619 6.897 1.21 1.331.595 1.853 1.955 1.853 3.194v6.806a7.86 7.86 0 0 1-.17 1.703.75.75 0 0 1-1.464-.326c.096-.432.134-.896.134-1.377V6.654c0-.882-.36-1.554-.965-1.825C17.177 4.334 15.196 3.75 12 3.75Z" fill="#151E28"/></svg>