<svg viewBox="0 0 24 24" fill="none" xmlns="http://www.w3.org/2000/svg"><path fill-rule="evenodd" clip-rule="evenodd" d="M2.287 2.807c-.228-.052-.5-.057-1.287-.057a.75.75 0 1 1 0-1.5h.09c.662 0 1.117 0 1.532.095a3.75 3.75 0 0 1 2.41 1.78c.176.305.298.655.445 1.125a.75.75 0 0 1 .023 0h12.234c.7 0 1.274 0 1.733.041.47.042.912.133 1.303.377a2.75 2.75 0 0 1 1.194 1.606l-.723.198.723-.198c.122.444.082.893-.013 1.356-.092.452-.258 1.002-.458 1.671l-.01.034-.738 2.46-.045.148c-.324 1.083-.548 1.83-1.005 2.401l-.585-.469.585.47a3.75 3.75 0 0 1-1.523 1.132c-.678.274-1.458.274-2.589.273h-4.191c-1.124 0-1.898.001-2.573-.27A3.751 3.751 0 0 1 7.3 14.36c-.457-.566-.684-1.306-1.014-2.38l-.045-.147-2.076-6.744c-.23-.752-.315-1.01-.432-1.213a2.25 2.25 0 0 0-1.446-1.068ZM8.75 20a1.25 1.25 0 1 1 2.5 0 1.25 1.25 0 0 1-2.5 0ZM10 17.25a2.75 2.75 0 1 0 0 5.5 2.75 2.75 0 0 0 0-5.5ZM16.75 20a1.25 1.25 0 1 1 2.5 0 1.25 1.25 0 0 1-2.5 0ZM18 17.25a2.75 2.75 0 1 0 0 5.5 2.75 2.75 0 0 0 0-5.5Z" fill="#151E28"/></svg>