<svg viewBox="0 0 24 24" fill="none" xmlns="http://www.w3.org/2000/svg"><path fill-rule="evenodd" clip-rule="evenodd" d="M2.377 2.816C2.133 2.756 1.842 2.75 1 2.75a.75.75 0 0 1 0-1.5h.097c.708 0 1.195 0 1.64.11a3.75 3.75 0 0 1 2.27 1.636c.245.387.399.85.623 1.521l.03.092.214.641h10.675c.693 0 1.242 0 1.677.022.437.023.822.07 1.167.192a3.75 3.75 0 0 1 2.474 4.002c-.046.363-.176.728-.351 1.13a36.5 36.5 0 0 1-.73 1.51l-.01.018-.031.064c-.236.473-.4.798-.61 1.076a3.75 3.75 0 0 1-2.3 1.422c-.343.064-.707.064-1.236.064H11.31c-.434 0-.815 0-1.157-.015a.76.76 0 0 1-.153.015H6a1.25 1.25 0 0 0 0 2.5h15a.75.75 0 0 1 0 1.5h-1.55a2.75 2.75 0 1 1-4.9 0h-3.1a2.75 2.75 0 1 1-4.9 0H6a2.75 2.75 0 0 1 0-5.5h1.165c-.382-.527-.608-1.207-.923-2.153l-.047-.142-1.401-4.203-.006-.015-.55-1.654c-.267-.799-.364-1.073-.498-1.285a2.25 2.25 0 0 0-1.363-.982ZM9.01 18.75h-.022a1.25 1.25 0 1 0 .022 0Zm7.983 0a1.25 1.25 0 1 0 .012 0h-.012Z" fill="#151E28"/></svg>