<svg viewBox="0 0 24 24" fill="none" xmlns="http://www.w3.org/2000/svg"><path fill-rule="evenodd" clip-rule="evenodd" d="m15.658 3.935-.029.019-9.879 6.35V4a.75.75 0 0 0-1.5 0v16a.75.75 0 0 0 1.5 0v-6.305l9.88 6.35.028.02c.377.242.702.451.975.593.275.143.612.283.992.256a1.75 1.75 0 0 0 1.276-.697c.228-.305.293-.664.321-.972.028-.307.028-.694.028-1.141V5.896c0-.448 0-.835-.028-1.141-.028-.308-.093-.668-.321-.972a1.75 1.75 0 0 0-1.276-.697c-.38-.027-.717.113-.992.256-.273.142-.598.35-.975.593Z" fill="#151E28"/></svg>