<svg viewBox="0 0 24 24" fill="none" xmlns="http://www.w3.org/2000/svg"><path fill-rule="evenodd" clip-rule="evenodd" d="M2 4.25a.75.75 0 0 1 .75.75v7.25h8.5v-2.08c0-.535 0-.98.03-1.345.03-.38.098-.736.27-1.073a2.75 2.75 0 0 1 1.2-1.202c.338-.172.694-.24 1.074-.27.365-.03.81-.03 1.345-.03h.858c.91 0 1.63 0 2.213.04.596.04 1.104.125 1.578.322a4.75 4.75 0 0 1 2.57 2.57c.197.474.281.982.322 1.578.04.584.04 1.304.04 2.213V19a.75.75 0 0 1-1.5 0v-5.25H2.75V19a.75.75 0 0 1-1.5 0V5A.75.75 0 0 1 2 4.25ZM7 10a2 2 0 1 0 0-4 2 2 0 0 0 0 4Z" fill="#151E28"/></svg>