<svg viewBox="0 0 24 24" fill="none" xmlns="http://www.w3.org/2000/svg"><path fill-rule="evenodd" clip-rule="evenodd" d="M5 2.25a.75.75 0 0 1 .75.75v6a.75.75 0 0 1-1.5 0V3A.75.75 0 0 1 5 2.25Zm7 0a.75.75 0 0 1 .75.75v1a.75.75 0 0 1-1.5 0V3a.75.75 0 0 1 .75-.75Zm7.75.75a.75.75 0 0 0-1.5 0v6a.75.75 0 0 0 1.5 0V3Zm0 16a.75.75 0 0 0-1.5 0v2a.75.75 0 0 0 1.5 0v-2Zm-7-5a.75.75 0 0 0-1.5 0v7a.75.75 0 0 0 1.5 0v-7Zm-7 5a.75.75 0 0 0-1.5 0v2a.75.75 0 0 0 1.5 0v-2Zm13.5-7.75a2.5 2.5 0 0 1 2.5 2.5v.5a2.5 2.5 0 0 1-2.5 2.5h-.5a2.5 2.5 0 0 1-2.5-2.5v-.5a2.5 2.5 0 0 1 2.5-2.5h.5Zm-4.5-2.5a2.5 2.5 0 0 0-2.5-2.5h-.5a2.5 2.5 0 0 0-2.5 2.5v.5a2.5 2.5 0 0 0 2.5 2.5h.5a2.5 2.5 0 0 0 2.5-2.5v-.5Zm-9.5 2.5a2.5 2.5 0 0 1 2.5 2.5v.5a2.5 2.5 0 0 1-2.5 2.5h-.5a2.5 2.5 0 0 1-2.5-2.5v-.5a2.5 2.5 0 0 1 2.5-2.5h.5Z" fill="#151E28"/></svg>