<svg viewBox="0 0 24 24" fill="none" xmlns="http://www.w3.org/2000/svg"><path fill-rule="evenodd" clip-rule="evenodd" d="M11.25 4.75a2.5 2.5 0 0 1 2.5-2.5h.5a2.5 2.5 0 0 1 2.5 2.5v.5a2.5 2.5 0 0 1-2.5 2.5h-.5a2.5 2.5 0 0 1-2.5-2.5v-.5ZM3 4.25a.75.75 0 0 0 0 1.5h6a.75.75 0 0 0 0-1.5H3Zm16 0a.75.75 0 0 0 0 1.5h2a.75.75 0 0 0 0-1.5h-2ZM2.25 12a.75.75 0 0 1 .75-.75h1a.75.75 0 0 1 0 1.5H3a.75.75 0 0 1-.75-.75ZM14 11.25a.75.75 0 0 0 0 1.5h7a.75.75 0 0 0 0-1.5h-7ZM2.25 19a.75.75 0 0 1 .75-.75h6a.75.75 0 0 1 0 1.5H3a.75.75 0 0 1-.75-.75ZM19 18.25a.75.75 0 0 0 0 1.5h2a.75.75 0 0 0 0-1.5h-2Zm-10.25-9a2.5 2.5 0 0 0-2.5 2.5v.5a2.5 2.5 0 0 0 2.5 2.5h.5a2.5 2.5 0 0 0 2.5-2.5v-.5a2.5 2.5 0 0 0-2.5-2.5h-.5Zm2.5 9.5a2.5 2.5 0 0 1 2.5-2.5h.5a2.5 2.5 0 0 1 2.5 2.5v.5a2.5 2.5 0 0 1-2.5 2.5h-.5a2.5 2.5 0 0 1-2.5-2.5v-.5Z" fill="#151E28"/></svg>