<svg viewBox="0 0 24 24" fill="none" xmlns="http://www.w3.org/2000/svg"><path fill-rule="evenodd" clip-rule="evenodd" d="M17.75 3a.75.75 0 0 0-1.28-.53l-2 2a.75.75 0 0 0 1.06 1.06l.72-.72v4.44H15a.75.75 0 0 0 0 1.5h4a.75.75 0 0 0 0-1.5h-1.25V3Zm-10 3a.75.75 0 0 0-1.5 0v10.19l-1.72-1.72a.75.75 0 0 0-1.06 1.06l3 3a.75.75 0 0 0 1.06 0l3-3a.75.75 0 1 0-1.06-1.06l-1.72 1.72V6Zm10.5 12v-.55a2.75 2.75 0 1 1 1.5-2.45v3a2.75 2.75 0 0 1-5.132 1.375.75.75 0 1 1 1.299-.75A1.25 1.25 0 0 0 18.25 18ZM17 16.25a1.25 1.25 0 1 0 0-2.5 1.25 1.25 0 0 0 0 2.5Z" fill="#151E28"/></svg>