<svg viewBox="0 0 24 24" fill="none" xmlns="http://www.w3.org/2000/svg"><path fill-rule="evenodd" clip-rule="evenodd" d="M2.53 1.47a.75.75 0 0 0-1.06 1.06l5.112 5.113A2.75 2.75 0 0 0 5.253 9.87c-.003.066-.003.14-.003.235v3.791a2.75 2.75 0 0 0 2.854 2.854l.017-.001h.08c.311.008.608.13.833.345l.057.057.516-.516-.516.516.2.2.019.019c.84.84 1.495 1.495 2.026 1.966.522.463 1.008.826 1.513.99a3.75 3.75 0 0 0 4.511-1.906l4.11 4.11a.75.75 0 1 0 1.06-1.061l-20-20Zm13.473 4.747a2.25 2.25 0 0 0-2.694-1.116c-.128.042-.322.146-.63.39-.303.242-.673.584-1.155 1.054a.75.75 0 0 1-1.048-1.073 17.74 17.74 0 0 1 1.27-1.154c.362-.288.722-.521 1.103-.644a3.75 3.75 0 0 1 4.489 1.86c.241.47.328 1.072.37 1.768.042.709.042 1.635.042 2.823V13a.75.75 0 0 1-1.5 0v-2.848c0-1.22 0-2.102-.04-2.76-.04-.676-.119-1.003-.207-1.175Z" fill="#151E28"/></svg>