<svg viewBox="0 0 24 24" fill="none" xmlns="http://www.w3.org/2000/svg"><path fill-rule="evenodd" clip-rule="evenodd" d="M19.416 3.376a.75.75 0 0 0-.837 1.245l.011.008c.013.01.036.026.067.052.063.05.16.135.282.256.241.241.577.631.918 1.199.678 1.13 1.393 2.996 1.393 5.864s-.715 4.734-1.393 5.864a6.22 6.22 0 0 1-.918 1.2 3.665 3.665 0 0 1-.349.307l-.01.008a.75.75 0 0 0 .836 1.245l-.4-.6.401.6v-.001l.003-.002.005-.003.013-.01a2.765 2.765 0 0 0 .163-.123c.101-.081.238-.2.398-.36.32-.322.735-.807 1.144-1.489.822-1.37 1.607-3.504 1.607-6.636s-.785-5.266-1.607-6.636A7.712 7.712 0 0 0 20 3.876a5.164 5.164 0 0 0-.522-.457 2.155 2.155 0 0 0-.039-.028l-.013-.009-.005-.003-.002-.002h-.001L19 4l.416-.624Zm-6.078 2.157a3.75 3.75 0 0 0-4.49-1.86c-.504.164-.99.527-1.511.99C6.805 5.134 6.15 5.79 5.31 6.63l-.02.02-.199.2a1.25 1.25 0 0 1-.97.402h-.017c-.096 0-.169 0-.235.002A2.75 2.75 0 0 0 1.253 9.87c-.003.066-.003.14-.003.235v3.792a2.75 2.75 0 0 0 2.854 2.854H4.2a1.25 1.25 0 0 1 .89.4l.2.2.019.02c.84.84 1.495 1.495 2.027 1.966.522.463 1.007.827 1.512.99a3.75 3.75 0 0 0 4.489-1.86c.241-.472.328-1.073.37-1.769.042-.709.042-1.635.042-2.823v-3.749c0-1.189 0-2.115-.043-2.824-.041-.696-.128-1.297-.37-1.769ZM15.4 6.55a.75.75 0 0 1 1.05-.15L16 7l.45-.6.002.001.001.001.004.003.01.008a1.79 1.79 0 0 1 .113.094 4.2 4.2 0 0 1 .274.263c.22.228.503.567.785 1.025.566.92 1.111 2.304 1.111 4.205 0 1.901-.545 3.286-1.111 4.206a6.09 6.09 0 0 1-.785 1.024 4.337 4.337 0 0 1-.388.358l-.01.007-.003.003-.002.001L16 17l.45.6a.75.75 0 0 1-.905-1.197l.005-.004.041-.035c.04-.034.102-.091.18-.172a4.68 4.68 0 0 0 .59-.773c.433-.705.888-1.82.888-3.419s-.455-2.714-.889-3.42a4.594 4.594 0 0 0-.59-.771 2.89 2.89 0 0 0-.22-.208l-.005-.004A.75.75 0 0 1 15.4 6.55Z" fill="#151E28"/></svg>