<svg viewBox="0 0 24 24" fill="none" xmlns="http://www.w3.org/2000/svg"><path fill-rule="evenodd" clip-rule="evenodd" d="M8.849 3.674a3.75 3.75 0 0 1 4.489 1.86c.241.47.328 1.072.37 1.768.042.709.042 1.635.042 2.824v3.749c0 1.188 0 2.114-.043 2.823-.041.696-.128 1.297-.37 1.769a3.75 3.75 0 0 1-4.488 1.86c-.505-.163-.99-.527-1.512-.99-.532-.47-1.187-1.126-2.027-1.966l-.02-.02-.199-.2a1.25 1.25 0 0 0-.89-.401h-.097c-.096 0-.169 0-.235-.003a2.75 2.75 0 0 1-2.616-2.616c-.003-.066-.003-.14-.003-.235v-3.792c0-.096 0-.169.003-.235A2.75 2.75 0 0 1 3.87 7.253c.066-.003.14-.003.235-.003H4.2a1.25 1.25 0 0 0 .89-.402l.2-.2.019-.018c.84-.84 1.495-1.496 2.027-1.967.521-.463 1.007-.826 1.512-.99ZM17.53 9.47a.75.75 0 1 0-1.06 1.06l1.97 1.97-1.97 1.97a.75.75 0 1 0 1.06 1.06l1.97-1.97 1.97 1.97a.75.75 0 1 0 1.06-1.06l-1.97-1.97 1.97-1.97a.75.75 0 0 0-1.06-1.06l-1.97 1.97-1.97-1.97Z" fill="#151E28"/></svg>