<svg viewBox="0 0 24 24" fill="none" xmlns="http://www.w3.org/2000/svg"><path fill-rule="evenodd" clip-rule="evenodd" d="M17.338 5.533a3.75 3.75 0 0 0-4.49-1.86c-.504.164-.99.527-1.512.99-.53.471-1.186 1.126-2.026 1.966l-.02.02-.199.2a1.25 1.25 0 0 1-.97.402h-.017a2.75 2.75 0 0 0-2.85 2.619c-.004.065-.004.138-.004.233v3.795a2.75 2.75 0 0 0 2.619 2.85c.066.003.14.003.235.003H8.2a1.25 1.25 0 0 1 .89.402l.2.2.019.019c.84.84 1.495 1.495 2.026 1.966.522.463 1.008.827 1.513.99a3.75 3.75 0 0 0 4.489-1.86c.241-.472.328-1.073.37-1.769.042-.709.042-1.635.042-2.823v-3.749c0-1.189 0-2.115-.043-2.824-.041-.696-.128-1.297-.37-1.769Z" fill="#151E28"/></svg>