<svg viewBox="0 0 24 24" fill="none" xmlns="http://www.w3.org/2000/svg"><path fill-rule="evenodd" clip-rule="evenodd" d="M10.849 3.674a3.75 3.75 0 0 1 4.489 1.86c.241.47.328 1.072.37 1.768.042.709.042 1.635.042 2.824v3.749c0 1.188 0 2.114-.043 2.823-.041.696-.128 1.297-.37 1.769a3.75 3.75 0 0 1-4.488 1.86c-.505-.163-.99-.527-1.512-.99-.532-.47-1.187-1.126-2.027-1.966l-.02-.02-.199-.2a1.25 1.25 0 0 0-.89-.401h-.097c-.096 0-.17 0-.235-.003a2.75 2.75 0 0 1-2.616-2.616c-.003-.066-.003-.14-.003-.235v-3.792c0-.096 0-.169.003-.235A2.75 2.75 0 0 1 5.87 7.253c.066-.003.14-.003.235-.003H6.2a1.25 1.25 0 0 0 .89-.402l.2-.2.019-.018c.84-.84 1.495-1.496 2.027-1.967.521-.463 1.007-.826 1.512-.99ZM18.45 6.4a.75.75 0 0 0-.905 1.197l.006.004.041.035c.04.034.102.092.18.173a4.6 4.6 0 0 1 .59.772c.433.705.888 1.82.888 3.42 0 1.598-.455 2.713-.889 3.418a4.56 4.56 0 0 1-.59.773 2.925 2.925 0 0 1-.22.207l-.005.005a.75.75 0 0 0 .904 1.196L18 17l.45.6.001-.001.002-.001.004-.003.01-.007.027-.022a4.337 4.337 0 0 0 .36-.335 6.09 6.09 0 0 0 .785-1.025c.566-.92 1.111-2.305 1.111-4.206 0-1.901-.545-3.286-1.111-4.205a6.092 6.092 0 0 0-.785-1.025 4.367 4.367 0 0 0-.36-.335.201.201 0 0 0-.028-.022l-.01-.008-.003-.003h-.002V6.4L18 7l.45-.6Z" fill="#151E28"/></svg>