<svg viewBox="0 0 24 24" fill="none" xmlns="http://www.w3.org/2000/svg"><path fill-rule="evenodd" clip-rule="evenodd" d="M12.75 3a.75.75 0 0 0-1.5 0v3a.75.75 0 0 0 1.5 0V3Zm0 15a.75.75 0 0 0-1.5 0v3a.75.75 0 0 0 1.5 0v-3Zm-10.5-6a.75.75 0 0 1 .75-.75h3a.75.75 0 0 1 0 1.5H3a.75.75 0 0 1-.75-.75ZM18 11.25a.75.75 0 0 0 0 1.5h3a.75.75 0 0 0 0-1.5h-3Zm.894-6.144a.75.75 0 0 1 0 1.06l-2.121 2.122a.75.75 0 0 1-1.06-1.061l2.12-2.121a.75.75 0 0 1 1.061 0Zm-12.727 0a.75.75 0 0 0-1.061 1.06l2.121 2.122a.75.75 0 0 0 1.06-1.06l-2.12-2.122Zm2.12 10.606a.75.75 0 0 1 0 1.06l-2.12 2.122a.75.75 0 1 1-1.061-1.06l2.121-2.122a.75.75 0 0 1 1.06 0Zm8.486 0a.75.75 0 0 0-1.06 1.06l2.12 2.122a.75.75 0 1 0 1.061-1.06l-2.121-2.122Z" fill="#151E28"/></svg>