<svg viewBox="0 0 24 24" fill="none" xmlns="http://www.w3.org/2000/svg"><path fill-rule="evenodd" clip-rule="evenodd" d="M12.807 1.713a4.75 4.75 0 0 0-1.614 0c-.603.104-1.173.363-2.058.765l-.094.043-5.147 2.34-.033.014c-.48.22-.888.404-1.192.577-.295.168-.637.4-.822.775a1.75 1.75 0 0 0 0 1.546c.185.376.527.607.822.775.304.173.711.358 1.192.576l.033.015 5.147 2.34.094.042c.885.403 1.455.662 2.058.766a4.75 4.75 0 0 0 1.614 0c.603-.104 1.173-.363 2.058-.766l.094-.042 5.147-2.34.032-.015c.482-.218.889-.403 1.193-.576.295-.168.637-.4.822-.775a1.75 1.75 0 0 0 0-1.546c-.185-.376-.527-.607-.822-.775-.304-.173-.711-.358-1.193-.577l-.032-.014-5.147-2.34-.094-.043c-.885-.402-1.455-.661-2.058-.765ZM2.315 11.695a.75.75 0 0 1 .99-.38l6.4 2.844c.992.441 1.371.604 1.754.668.358.06.724.06 1.082 0 .383-.064.761-.227 1.754-.668l6.4-2.844a.75.75 0 1 1 .61 1.37l-6.401 2.845-.092.04c-.87.387-1.43.636-2.021.736a4.745 4.745 0 0 1-1.582 0c-.592-.1-1.152-.349-2.021-.735l-.092-.041-6.4-2.845a.75.75 0 0 1-.381-.99Zm.99 4.62a.75.75 0 1 0-.61 1.37l6.401 2.845.092.04c.869.387 1.429.636 2.021.736a4.745 4.745 0 0 0 1.582 0c.592-.1 1.152-.349 2.021-.735l.092-.041 6.4-2.845a.75.75 0 0 0-.609-1.37l-6.4 2.844c-.993.441-1.371.604-1.754.668a3.25 3.25 0 0 1-1.082 0c-.383-.064-.761-.227-1.754-.668l-6.4-2.844Z" fill="#151E28"/></svg>