<svg viewBox="0 0 24 24" fill="none" xmlns="http://www.w3.org/2000/svg"><path fill-rule="evenodd" clip-rule="evenodd" d="M13.57 2.485c-.643-1.3-2.498-1.3-3.14 0L8.328 6.747a.25.25 0 0 1-.188.137l-4.703.683C2 7.776 1.427 9.54 2.466 10.552l3.403 3.318a.25.25 0 0 1 .072.221l-.803 4.685c-.246 1.43 1.255 2.52 2.539 1.844l4.207-2.211a.25.25 0 0 1 .232 0l4.207 2.211c1.284.675 2.784-.415 2.54-1.844l-.804-4.685a.25.25 0 0 1 .072-.221l3.403-3.318c1.039-1.012.466-2.776-.97-2.985l-4.703-.683a.25.25 0 0 1-.188-.137l-2.104-4.262Z" fill="#151E28"/></svg>