<svg viewBox="0 0 24 24" fill="none" xmlns="http://www.w3.org/2000/svg"><path fill-rule="evenodd" clip-rule="evenodd" d="M2.53 1.47a.75.75 0 1 0-1.06 1.06l4.647 4.648-2.681.39C2 7.775 1.427 9.54 2.466 10.551l3.403 3.318a.25.25 0 0 1 .072.221l-.803 4.684c-.246 1.43 1.255 2.52 2.539 1.845l4.207-2.212a.25.25 0 0 1 .232 0l4.207 2.212c.95.5 2.02.032 2.412-.825l2.735 2.735a.75.75 0 1 0 1.06-1.06l-20-20Zm7.9 1.015c.643-1.3 2.497-1.3 3.14 0l2.102 4.262a.25.25 0 0 0 .189.137l4.703.683c1.436.209 2.009 1.973.97 2.985l-3.01 2.935a.75.75 0 1 1-1.047-1.074l3.01-2.935a.25.25 0 0 0-.139-.426l-4.703-.684a1.75 1.75 0 0 1-1.318-.957l-2.103-4.262a.25.25 0 0 0-.448 0l-1.103 2.235a.75.75 0 1 1-1.345-.664l1.103-2.235Z" fill="#151E28"/></svg>