<svg viewBox="0 0 24 24" fill="none" xmlns="http://www.w3.org/2000/svg"><path fill-rule="evenodd" clip-rule="evenodd" d="M12 1.25C6.063 1.25 1.25 6.063 1.25 12S6.063 22.75 12 22.75 22.75 17.937 22.75 12 17.937 1.25 12 1.25ZM8.5 12.3c0 1.12 0 1.68.218 2.108a2 2 0 0 0 .874.874c.428.218.988.218 2.108.218h.6c1.12 0 1.68 0 2.108-.218a2 2 0 0 0 .874-.874c.218-.428.218-.988.218-2.108v-.6c0-1.12 0-1.68-.218-2.108a2 2 0 0 0-.874-.874C13.98 8.5 13.42 8.5 12.3 8.5h-.6c-1.12 0-1.68 0-2.108.218a2 2 0 0 0-.874.874C8.5 10.02 8.5 10.58 8.5 11.7v.6Z" fill="#151E28"/></svg>