<svg viewBox="0 0 24 24" fill="none" xmlns="http://www.w3.org/2000/svg"><path fill-rule="evenodd" clip-rule="evenodd" d="M13 3a1 1 0 1 1-2 0 1 1 0 0 1 2 0Zm0 18a1 1 0 1 1-2 0 1 1 0 0 1 2 0ZM12 5.25a6.75 6.75 0 1 0 0 13.5 6.75 6.75 0 0 0 0-13.5ZM20 12a1 1 0 1 0 2 0 1 1 0 0 0-2 0ZM2 12a1 1 0 1 0 2 0 1 1 0 0 0-2 0Zm17.07-5.657a1 1 0 1 1-1.413-1.414 1 1 0 0 1 1.414 1.414ZM6.344 19.071a1 1 0 1 1-1.414-1.414 1 1 0 0 1 1.414 1.414ZM4.929 4.929a1 1 0 1 0 1.414 1.414A1 1 0 0 0 4.93 4.929Zm12.728 12.728a1 1 0 1 0 1.414 1.414 1 1 0 0 0-1.414-1.414Z" fill="#151E28"/></svg>