<svg viewBox="0 0 24 24" fill="none" xmlns="http://www.w3.org/2000/svg"><path fill-rule="evenodd" clip-rule="evenodd" d="M8.75 2a.75.75 0 0 0-1.294-.517L8 2l-.544-.516-.002.002-.006.006-.02.02a15.98 15.98 0 0 0-.334.366c-.219.244-.52.588-.85.99-.648.788-1.445 1.843-1.917 2.8-.673 1.366-.927 3.347-.985 5.37-.059 2.053.082 4.263.268 6.156.3 3.05 3.431 4.774 6.21 3.686l1.65 1.65a.75.75 0 0 0 1.06 0l1.65-1.65c2.779 1.088 5.91-.636 6.21-3.686.186-1.893.326-4.103.267-6.155-.058-2.024-.311-4.005-.985-5.37-.472-.958-1.268-2.013-1.917-2.802a30.408 30.408 0 0 0-1.184-1.355l-.02-.02-.005-.006-.002-.002L16 2l.544-.517A.75.75 0 0 0 15.25 2v3.816l-.056-.02A9.354 9.354 0 0 0 12 5.25c-1.351 0-2.438.27-3.194.545l-.056.02V2Zm-.415 11.33a.75.75 0 1 0-.67 1.34l1.069.536-.264.264a.75.75 0 1 0 1.06 1.06l1-1a.75.75 0 0 0-.195-1.2l-2-1Zm8.336.335a.75.75 0 0 0-1.006-.336l-2 1a.75.75 0 0 0-.195 1.201l1 1a.75.75 0 1 0 1.06-1.06l-.264-.264 1.07-.535a.75.75 0 0 0 .335-1.006Z" fill="#151E28"/></svg>