<svg viewBox="0 0 24 24" fill="none" xmlns="http://www.w3.org/2000/svg"><path fill-rule="evenodd" clip-rule="evenodd" d="M6.17 2.25h1.66c.535 0 .98 0 1.345.03.38.03.736.098 1.073.27a2.75 2.75 0 0 1 1.202 1.202c.172.337.24.693.27 1.073.03.365.03.81.03 1.345V17c0 .065-.001.13-.004.193l4.723-4.722.002-.002 2.236-2.236c.405-.405.676-.677.868-.904.187-.22.254-.346.285-.443a1.25 1.25 0 0 0 0-.772c-.031-.097-.099-.224-.285-.443-.192-.227-.463-.499-.868-.903l-.975-.975c-.405-.405-.677-.676-.903-.868-.22-.186-.346-.254-.443-.285a1.25 1.25 0 0 0-.773 0c-.096.031-.223.099-.443.285-.226.192-.498.464-.903.868l-.737.737a.75.75 0 0 1-1.06-1.06l.736-.737.022-.022c.378-.378.693-.693.971-.93.291-.246.59-.45.95-.568a2.75 2.75 0 0 1 1.7 0c.36.117.66.322.95.568.28.237.594.552.972.93l.022.021.974.975.022.021c.378.378.693.693.93.972.246.29.45.59.568.95a2.75 2.75 0 0 1 0 1.7c-.117.36-.322.66-.569.95-.236.279-.551.594-.929.972l-.022.021-.966.966c.133.005.258.011.374.02.38.032.736.099 1.073.27.518.264.939.685 1.202 1.203.172.337.24.693.27 1.073.03.365.03.81.03 1.345v1.66c0 .535 0 .98-.03 1.345-.03.38-.098.736-.27 1.073a2.751 2.751 0 0 1-1.201 1.202c-.338.172-.694.24-1.074.27-.364.03-.81.03-1.345.03H7A4.75 4.75 0 0 1 2.25 17V6.17c0-.535 0-.98.03-1.345.03-.38.098-.736.27-1.073A2.75 2.75 0 0 1 3.752 2.55c.337-.172.693-.24 1.073-.27.365-.03.81-.03 1.345-.03ZM7 18a1 1 0 1 0 0-2 1 1 0 0 0 0 2Z" fill="#151E28"/></svg>