<svg viewBox="0 0 24 24" fill="none" xmlns="http://www.w3.org/2000/svg"><path fill-rule="evenodd" clip-rule="evenodd" d="M6.768 1.25h4.464c.813 0 1.469 0 2 .043.546.045 1.026.14 1.47.366a3.75 3.75 0 0 1 1.64 1.639c.226.444.32.924.365 1.47.043.531.043 1.187.043 2v4.464c0 .813 0 1.469-.043 2-.045.546-.14 1.026-.366 1.47a3.75 3.75 0 0 1-1.639 1.64c-.444.226-.924.32-1.47.365-.531.043-1.187.043-2 .043H6.768c-.813 0-1.469 0-2-.043-.546-.045-1.026-.14-1.47-.366a3.75 3.75 0 0 1-1.64-1.639c-.226-.444-.32-.924-.365-1.47-.043-.531-.043-1.187-.043-2V6.768c0-.813 0-1.469.043-2 .045-.546.14-1.026.366-1.47a3.75 3.75 0 0 1 1.639-1.64c.444-.226.924-.32 1.47-.365.531-.043 1.187-.043 2-.043Zm11.732 6a.75.75 0 0 0 0 1.5h.5A2.25 2.25 0 0 1 21.25 11v8A2.25 2.25 0 0 1 19 21.25h-8A2.25 2.25 0 0 1 8.75 19v-.5a.75.75 0 0 0-1.5 0v.5A3.75 3.75 0 0 0 11 22.75h8A3.75 3.75 0 0 0 22.75 19v-8A3.75 3.75 0 0 0 19 7.25h-.5Z" fill="#151E28"/></svg>