<svg viewBox="0 0 24 24" fill="none" xmlns="http://www.w3.org/2000/svg"><path fill-rule="evenodd" clip-rule="evenodd" d="m14.35 3.805-.06-.06c-.46-.461-.779-.78-1.159-1.013a3.749 3.749 0 0 0-1.084-.45c-.432-.103-.883-.103-1.535-.103H8.697c-.813 0-1.468 0-2 .044-.546.044-1.026.139-1.47.365a3.75 3.75 0 0 0-1.639 1.639c-.226.444-.32.924-.365 1.47-.044.532-.044 1.187-.044 2v1.815c0 .651 0 1.102.104 1.535.092.383.243.749.449 1.084.233.38.552.699 1.013 1.16l.06.06 5.1 5.1.022.022c.575.575 1.039 1.038 1.445 1.383.418.355.824.628 1.298.782a3.75 3.75 0 0 0 2.318 0c.474-.154.88-.427 1.298-.782.406-.345.87-.808 1.445-1.383l.022-.023 2.829-2.828.021-.022c.378-.377.693-.693.93-.971.246-.29.451-.59.568-.95a2.75 2.75 0 0 0 0-1.7c-.117-.36-.322-.66-.568-.95a17.823 17.823 0 0 0-.93-.972l-.021-.021-6.231-6.231ZM12 9a2 2 0 1 1-4 0 2 2 0 0 1 4 0Z" fill="#151E28"/></svg>