<svg viewBox="0 0 24 24" fill="none" xmlns="http://www.w3.org/2000/svg"><path fill-rule="evenodd" clip-rule="evenodd" d="M8.988 5.25h-.085c-.652 0-1.103 0-1.536.104a3.75 3.75 0 0 0-1.084.449c-.38.232-.698.551-1.159 1.012l-.06.06-1.2 1.2-.023.023c-.575.575-1.038 1.039-1.383 1.445-.355.418-.628.824-.782 1.298a3.75 3.75 0 0 0 0 2.318c.154.474.427.88.782 1.298.345.406.808.87 1.383 1.445l.023.023 1.2 1.2.06.06c.46.46.78.78 1.16 1.012.335.206.7.358 1.083.45.433.103.884.103 1.536.103h7.329c.813 0 1.469 0 2-.043.546-.045 1.026-.14 1.47-.366a3.75 3.75 0 0 0 1.64-1.639c.226-.444.32-.924.365-1.47.043-.531.043-1.187.043-2V9.17c0-.535 0-.98-.03-1.345-.03-.38-.098-.736-.27-1.073a2.75 2.75 0 0 0-1.2-1.202c-.338-.172-.694-.24-1.074-.27-.365-.03-.81-.03-1.345-.03H8.988ZM12 12a2 2 0 1 1-4 0 2 2 0 0 1 4 0Z" fill="#151E28"/></svg>