<svg viewBox="0 0 24 24" fill="none" xmlns="http://www.w3.org/2000/svg"><path fill-rule="evenodd" clip-rule="evenodd" d="M17.93 8.763c1 .999 1.716 1.716 2.233 2.325.511.602.783 1.049.926 1.488a4.25 4.25 0 0 1 0 2.627c-.143.439-.415.885-.926 1.488-.517.608-1.234 1.326-2.233 2.325l-2.12 2.121a.75.75 0 0 0 1.06 1.06l2.121-2.12.024-.024c.97-.97 1.73-1.73 2.291-2.392.572-.673.98-1.292 1.21-1.995a5.75 5.75 0 0 0 0-3.553c-.23-.703-.638-1.322-1.21-1.996-.56-.66-1.321-1.421-2.291-2.391l-.024-.024-3.536-3.536a.75.75 0 0 0-1.06 1.06l3.535 3.537Zm-6.08-3.959.061.06 6.231 6.232.022.021c.377.378.693.693.93.972.246.29.45.59.568.95a2.75 2.75 0 0 1 0 1.7c-.117.36-.322.66-.569.95-.236.278-.552.594-.93.971l-.02.022-2.83 2.828-.022.023c-.575.575-1.038 1.038-1.444 1.383-.418.355-.825.628-1.299.782a3.75 3.75 0 0 1-2.317 0c-.475-.154-.88-.427-1.299-.782-.406-.345-.87-.808-1.444-1.383l-.023-.023-5.1-5.1-.06-.06c-.46-.46-.78-.779-1.013-1.159a3.75 3.75 0 0 1-.449-1.084C.74 11.674.74 11.224.74 10.572V8.757c0-.813 0-1.468.043-2 .045-.546.14-1.026.365-1.47a3.75 3.75 0 0 1 1.64-1.64c.444-.225.924-.32 1.47-.364.531-.044 1.187-.044 2-.044h1.814c.652 0 1.103 0 1.536.104a3.75 3.75 0 0 1 1.084.449c.38.233.698.552 1.159 1.012Zm-4.703 7.67a2 2 0 1 0 2.828-2.828 2 2 0 0 0-2.828 2.829Z" fill="#151E28"/></svg>