<svg viewBox="0 0 24 24" fill="none" xmlns="http://www.w3.org/2000/svg"><path fill-rule="evenodd" clip-rule="evenodd" d="M15 5.75c1.413 0 2.427 0 3.224.066.787.064 1.295.188 1.706.397a4.25 4.25 0 0 1 1.858 1.858c.21.411.333.919.397 1.706.065.796.066 1.81.066 3.223v3a.75.75 0 0 0 1.5 0v-3.034c0-1.371 0-2.447-.07-3.311-.073-.88-.222-1.607-.557-2.265a5.75 5.75 0 0 0-2.513-2.513c-.658-.336-1.385-.484-2.265-.556-.865-.071-1.94-.071-3.312-.071H10a.75.75 0 0 0 0 1.5h5Zm-7.097 1.5h8.927c.535 0 .98 0 1.345.03.38.03.736.098 1.074.27a2.75 2.75 0 0 1 1.202 1.202c.171.337.238.693.27 1.073.03.365.03.81.03 1.345v4.062c0 .813 0 1.469-.044 2-.045.546-.14 1.026-.366 1.47a3.75 3.75 0 0 1-1.638 1.64c-.444.226-.925.32-1.471.365-.531.043-1.187.043-2 .043H7.903c-.652 0-1.103 0-1.536-.104a3.751 3.751 0 0 1-1.083-.449c-.38-.232-.699-.551-1.16-1.012l-.06-.06-1.2-1.2-.023-.023c-.575-.575-1.038-1.039-1.383-1.445-.355-.418-.628-.824-.782-1.298a3.75 3.75 0 0 1 0-2.318c.154-.474.427-.88.782-1.298.345-.406.808-.87 1.383-1.445l.023-.023 1.2-1.2.06-.06c.461-.46.78-.78 1.16-1.012a3.75 3.75 0 0 1 1.083-.45c.433-.103.884-.103 1.536-.103ZM10 16a2 2 0 1 0 0-4 2 2 0 0 0 0 4Z" fill="#151E28"/></svg>