<svg viewBox="0 0 24 24" fill="none" xmlns="http://www.w3.org/2000/svg"><path fill-rule="evenodd" clip-rule="evenodd" d="M10.162 4.75a2.25 2.25 0 0 0-2.134 1.538l-1.316 3.95a.75.75 0 0 1-1.423-.475l1.316-3.949a3.75 3.75 0 0 1 3.557-2.564h3.676a3.75 3.75 0 0 1 3.557 2.564l.146.436H22a.75.75 0 0 1 0 1.5h-3.96l.67 2.013a.75.75 0 0 1-1.422.474l-1.317-3.949a2.25 2.25 0 0 0-2.134-1.538h-3.675Zm-6.276 6.5a2.75 2.75 0 0 0-2.575 3.716l1.257 3.35a3.75 3.75 0 0 0 3.511 2.434h11.842a3.75 3.75 0 0 0 3.511-2.433l1.257-3.351a2.75 2.75 0 0 0-2.575-3.716H3.886ZM8 16a1 1 0 1 1-2 0 1 1 0 0 1 2 0Zm4 1a1 1 0 1 0 0-2 1 1 0 0 0 0 2Zm6-1a1 1 0 1 1-2 0 1 1 0 0 1 2 0Z" fill="#151E28"/></svg>