<svg viewBox="0 0 24 24" fill="none" xmlns="http://www.w3.org/2000/svg"><path fill-rule="evenodd" clip-rule="evenodd" d="M2.278 11.25a9.752 9.752 0 0 1 8.972-8.972V4a.75.75 0 0 0 1.5 0V2.278a9.752 9.752 0 0 1 8.971 8.972H20a.75.75 0 0 0 0 1.5h1.722a9.752 9.752 0 0 1-8.972 8.971V20a.75.75 0 0 0-1.5 0v1.721a9.752 9.752 0 0 1-8.972-8.971H4a.75.75 0 0 0 0-1.5H2.278Zm9.722-2a.75.75 0 0 1 .75.75v1.25H14a.75.75 0 0 1 0 1.5h-1.25V14a.75.75 0 0 1-1.5 0v-1.25H10a.75.75 0 0 1 0-1.5h1.25V10a.75.75 0 0 1 .75-.75Z" fill="#151E28"/></svg>