<svg viewBox="0 0 24 24" fill="none" xmlns="http://www.w3.org/2000/svg"><path fill-rule="evenodd" clip-rule="evenodd" d="M8.4 2.277h-.033c-1.092 0-1.958 0-2.655.057-.714.059-1.317.18-1.868.461a4.75 4.75 0 0 0-2.076 2.076c-.281.551-.403 1.155-.461 1.868-.057.698-.057 1.563-.057 2.655v5.239c0 1.092 0 1.958.057 2.655.058.714.18 1.317.46 1.869a4.75 4.75 0 0 0 2.077 2.075c.55.281 1.154.403 1.868.461.697.057 1.563.057 2.655.057h7.266c1.092 0 1.958 0 2.655-.057.714-.058 1.317-.18 1.869-.46a4.75 4.75 0 0 0 2.075-2.076c.281-.552.403-1.155.461-1.869.057-.697.057-1.563.057-2.655V9.394c0-1.092 0-1.957-.057-2.655-.058-.713-.18-1.317-.46-1.868a4.75 4.75 0 0 0-2.076-2.076c-.552-.28-1.155-.402-1.869-.46-.697-.058-1.563-.058-2.655-.058H8.4ZM13 15.25a.75.75 0 0 0 0 1.5h4a.75.75 0 0 0 0-1.5h-4ZM6.47 9.47a.75.75 0 0 1 1.06 0l3 3a.75.75 0 0 1 0 1.06l-3 3a.75.75 0 0 1-1.06-1.06L8.94 13l-2.47-2.47a.75.75 0 0 1 0-1.06Z" fill="#151E28"/></svg>