<svg viewBox="0 0 24 24" fill="none" xmlns="http://www.w3.org/2000/svg"><path fill-rule="evenodd" clip-rule="evenodd" d="M5.75 4.25h-.087c-.613 0-1.031 0-1.395.072a3.75 3.75 0 0 0-2.946 2.946c-.072.364-.072.782-.072 1.395V9c0 .966.784 1.75 1.75 1.75a1.25 1.25 0 1 1 0 2.5A1.75 1.75 0 0 0 1.25 15v.337c0 .613 0 1.031.072 1.395a3.75 3.75 0 0 0 2.946 2.946c.364.072.782.072 1.395.072h12.674c.613 0 1.031 0 1.395-.072a3.75 3.75 0 0 0 2.946-2.946c.072-.364.072-.782.072-1.395V15A1.75 1.75 0 0 0 21 13.25a1.25 1.25 0 1 1 0-2.5A1.75 1.75 0 0 0 22.75 9v-.337c0-.613 0-1.031-.072-1.395a3.75 3.75 0 0 0-2.946-2.946c-.364-.072-.782-.072-1.395-.072H5.75Zm8.5 14h1.5V16.5a.75.75 0 0 0-1.5 0v1.75Zm1.5-12.5h-1.5V7.5a.75.75 0 0 0 1.5 0V5.75Zm-.75 4.5a.75.75 0 0 1 .75.75v2a.75.75 0 0 1-1.5 0v-2a.75.75 0 0 1 .75-.75Z" fill="#151E28"/></svg>