<svg viewBox="0 0 24 24" fill="none" xmlns="http://www.w3.org/2000/svg"><path fill-rule="evenodd" clip-rule="evenodd" d="M10.336 3.33a.75.75 0 0 0-.671 1.34c.959.48 1.401 1.117 1.598 1.717-.342.02-.683.054-1.023.101-.578.08-1.21.195-1.821.438-.931.37-1.778.88-2.506 1.505a.75.75 0 0 0 .09 1.205l1.247.78V12a.75.75 0 0 0 .932.727L12 11.773l3.818.954A.75.75 0 0 0 16.75 12v-1.585l1.247-.78a.75.75 0 0 0 .09-1.204 8.893 8.893 0 0 0-2.505-1.505c-.611-.243-1.243-.357-1.821-.438a12.75 12.75 0 0 0-.947-.096c-.223-1.072-.886-2.267-2.478-3.063Zm-5.208 7.01a.75.75 0 0 1 .301 1.018A5.508 5.508 0 0 0 4.75 14c0 3.36 3.149 6.25 7.25 6.25 4.102 0 7.25-2.89 7.25-6.25 0-.943-.242-1.837-.679-2.642a.75.75 0 1 1 1.319-.716c.55 1.014.86 2.153.86 3.358 0 4.371-4.015 7.75-8.75 7.75S3.25 18.37 3.25 14a7 7 0 0 1 .861-3.358.75.75 0 0 1 1.017-.301Z" fill="#151E28"/></svg>