<svg viewBox="0 0 24 24" fill="none" xmlns="http://www.w3.org/2000/svg"><path fill-rule="evenodd" clip-rule="evenodd" d="M5.3 4.647C7.055 3.771 9.425 3.25 12 3.25c2.576 0 4.946.52 6.7 1.397 1.708.854 3.05 2.173 3.05 3.853 0 1.68-1.342 2.999-3.05 3.853-1.754.876-4.123 1.397-6.7 1.397-2.576 0-4.946-.52-6.7-1.397-1.708-.854-3.05-2.173-3.05-3.853 0-1.68 1.342-2.999 3.05-3.853ZM6.75 14a.75.75 0 0 0-1.5 0c0 1.265 1.006 2.21 2.172 2.792 1.21.605 2.83.958 4.578.958 1.748 0 3.368-.353 4.578-.958 1.166-.583 2.172-1.527 2.172-2.792a.75.75 0 0 0-1.5 0c0 .391-.337.947-1.343 1.45-.961.481-2.341.8-3.907.8-1.566 0-2.946-.319-3.907-.8C7.087 14.948 6.75 14.392 6.75 14ZM10 18.25a.75.75 0 0 1 .746.673.712.712 0 0 0 .175.113c.238.119.618.214 1.079.214.461 0 .841-.095 1.079-.214a.712.712 0 0 0 .175-.113.75.75 0 0 1 1.496.077c0 .713-.559 1.157-1 1.378-.487.243-1.107.372-1.75.372s-1.263-.129-1.75-.372c-.441-.22-1-.665-1-1.378a.75.75 0 0 1 .75-.75Zm3.271.652s0 .003-.005.008l.005-.008Zm-2.538.008-.005-.008.005.008Z" fill="#151E28"/></svg>