<svg viewBox="0 0 24 24" fill="none" xmlns="http://www.w3.org/2000/svg"><path fill-rule="evenodd" clip-rule="evenodd" d="M9 3.25A4.75 4.75 0 0 0 4.25 8v6a4.752 4.752 0 0 0 3.466 4.574l-1.34 2.01a.75.75 0 1 0 1.248.832l1.777-2.666H14.6l1.777 2.666a.75.75 0 1 0 1.248-.832l-1.34-2.01c2-.56 3.466-2.396 3.466-4.574V8A4.75 4.75 0 0 0 15 3.25H9Zm9.25 8V8A3.25 3.25 0 0 0 15 4.75H9A3.25 3.25 0 0 0 5.75 8v3.25h12.5ZM9 13.75a.75.75 0 0 1 .75.75v1a.75.75 0 0 1-1.5 0v-1a.75.75 0 0 1 .75-.75Zm6.75.75a.75.75 0 0 0-1.5 0v1a.75.75 0 0 0 1.5 0v-1Z" fill="#151E28"/></svg>