<svg viewBox="0 0 24 24" fill="none" xmlns="http://www.w3.org/2000/svg"><path fill-rule="evenodd" clip-rule="evenodd" d="M8 2.25A6.75 6.75 0 0 0 1.25 9v12a.75.75 0 0 0 1.5 0V9C2.75 6.1 5.1 3.75 8 3.75h8c2.9 0 5.25 2.35 5.25 5.25v12a.75.75 0 0 0 1.5 0V9A6.75 6.75 0 0 0 16 2.25H8ZM5.25 11A4.75 4.75 0 0 1 10 6.25h4A4.75 4.75 0 0 1 18.75 11v4c0 1.715-.91 3.219-2.272 4.053L17.6 20.55a.75.75 0 1 1-1.2.9l-1.36-1.814a4.764 4.764 0 0 1-1.04.114h-4c-.357 0-.705-.04-1.04-.114L7.6 21.45a.75.75 0 1 1-1.2-.9l1.122-1.497A4.747 4.747 0 0 1 5.25 15v-4Zm12 0v.25H6.75V11A3.25 3.25 0 0 1 10 7.75h4A3.25 3.25 0 0 1 17.25 11Zm-6.5 3.5a.75.75 0 0 0-1.5 0v1a.75.75 0 0 0 1.5 0v-1Zm3.25-.75a.75.75 0 0 1 .75.75v1a.75.75 0 0 1-1.5 0v-1a.75.75 0 0 1 .75-.75Z" fill="#151E28"/></svg>