<svg viewBox="0 0 24 24" fill="none" xmlns="http://www.w3.org/2000/svg"><path fill-rule="evenodd" clip-rule="evenodd" d="M10.56 2.25h2.879c.114 0 .202 0 .286.005a2.75 2.75 0 0 1 2.385 1.72c.031.077.06.16.095.268l.007.02c.045.136.058.173.07.203.18.448.602.753 1.084.782.032.002.072.002.215.002H21a.75.75 0 0 1 0 1.5h-3.439c-.114 0-.202 0-.286-.005a2.77 2.77 0 0 1-.123-.01.753.753 0 0 1-.152.015H7a.753.753 0 0 1-.152-.015 2.764 2.764 0 0 1-.123.01c-.084.005-.172.005-.286.005H3a.75.75 0 1 1 0-1.5h3.419c.143 0 .183 0 .215-.002a1.25 1.25 0 0 0 1.084-.782 3.89 3.89 0 0 0 .07-.203l.007-.02c.036-.107.064-.191.095-.269a2.75 2.75 0 0 1 2.385-1.719c.084-.005.172-.005.286-.005Zm4.33 2.776c.03.076.065.151.102.224H9.008a3.013 3.013 0 0 0 .197-.494l.007-.019a4.18 4.18 0 0 1 .07-.203 1.25 1.25 0 0 1 1.084-.782c.032-.002.072-.002.215-.002h2.838c.143 0 .183 0 .215.002.482.03.904.334 1.084.782.012.03.025.067.07.203l.007.02c.036.107.064.191.095.269ZM4.619 7.988a.75.75 0 0 1 .548-.238h13.666a.75.75 0 0 1 .749.8l-.535 8.02-.002.03c-.05.763-.092 1.38-.165 1.879-.076.514-.193.964-.428 1.377a3.75 3.75 0 0 1-1.623 1.519c-.428.207-.885.294-1.403.335-.503.04-1.121.04-1.886.04h-3.08c-.765 0-1.383 0-1.886-.04-.518-.041-.975-.128-1.403-.335a3.75 3.75 0 0 1-1.623-1.519c-.235-.413-.352-.863-.428-1.377-.073-.5-.114-1.116-.165-1.879l-.002-.03-.535-8.02a.75.75 0 0 1 .201-.562ZM10.75 12a.75.75 0 0 0-1.5 0v5a.75.75 0 0 0 1.5 0v-5Zm3.25-.75a.75.75 0 0 1 .75.75v5a.75.75 0 0 1-1.5 0v-5a.75.75 0 0 1 .75-.75Z" fill="#151E28"/></svg>