<svg viewBox="0 0 24 24" fill="none" xmlns="http://www.w3.org/2000/svg"><path fill-rule="evenodd" clip-rule="evenodd" d="M11.13 19.839h.12v2.16a.75.75 0 0 0 1.5 0v-2.16h.12c1.064 0 2.24-.1 3.296-.464 1.068-.367 2.059-1.019 2.655-2.139.61-1.145.929-2.556.929-4.236 0-2.01-.996-4.211-2.168-6.132-1.188-1.945-2.63-3.717-3.662-4.893a2.539 2.539 0 0 0-3.84 0C9.048 3.15 7.606 4.923 6.418 6.868 5.246 8.788 4.25 10.99 4.25 13c0 1.68.32 3.09.93 4.236.595 1.12 1.586 1.772 2.654 2.139 1.057.363 2.232.464 3.295.464Zm-1.6-8.37a.75.75 0 0 0-1.06 1.061l2.78 2.78V17a.75.75 0 0 0 1.5 0V6a.75.75 0 0 0-1.5 0v7.19l-1.72-1.72Z" fill="#151E28"/></svg>