<svg viewBox="0 0 24 24" fill="none" xmlns="http://www.w3.org/2000/svg"><path fill-rule="evenodd" clip-rule="evenodd" d="m11.98 3.788.02-.006a2.202 2.202 0 0 1 .339.15l-.34.857-.338-.856c.104-.057.21-.105.32-.145Zm-.32.145.34.856-2.953 7.461h-.274a23.76 23.76 0 0 1 .461-3.72c.242-1.152.597-2.285 1.105-3.174.381-.667.82-1.148 1.32-1.423h.002Zm3.293 8.317L12 4.789l.339-.856c.502.275.94.755 1.322 1.423.508.889.863 2.022 1.105 3.174a23.771 23.771 0 0 1 .46 3.72h-.273Zm-5.906 0L12 4.789l2.953 7.461H9.047ZM16 13.75H5.066c-.874.001-1.584.002-2.256-.418a2.835 2.835 0 0 1-.73-.702 2.834 2.834 0 0 1-.465-.901c-.21-.762-.04-1.327.166-2.015l.023-.076c.461-1.546 1.321-3.397 2.932-4.865C6.362 3.29 8.698 2.25 12 2.25s5.637 1.04 7.264 2.523c1.61 1.468 2.47 3.319 2.932 4.865l.023.076c.206.688.375 1.253.165 2.015a2.835 2.835 0 0 1-.463.901 2.837 2.837 0 0 1-.731.702c-.672.42-1.382.42-2.256.418H16ZM12.75 15a.75.75 0 0 0-1.5 0v5a1.25 1.25 0 0 1-2.5 0v-1a.75.75 0 0 0-1.5 0v1a2.75 2.75 0 1 0 5.5 0v-5Z" fill="#151E28"/></svg>