<svg viewBox="0 0 24 24" fill="none" xmlns="http://www.w3.org/2000/svg"><path fill-rule="evenodd" clip-rule="evenodd" d="M17.083 14.745a.75.75 0 0 1-.828-.662L17 14l-.745.083-.001-.007-.005-.033a8.785 8.785 0 0 0-.12-.662 8.496 8.496 0 0 0-.509-1.576c-.52-1.17-1.302-2.055-2.509-2.055-1.317 0-2.65 1.016-3.745 2.248-.387.435-.722.873-.991 1.252h2.514a.75.75 0 0 1 0 1.5H7a.75.75 0 0 1-.75-.75V9a.75.75 0 0 1 1.5 0v2.588c.154-.192.32-.389.495-.586 1.127-1.268 2.85-2.752 4.866-2.752 2.127 0 3.289 1.615 3.88 2.945.304.685.491 1.361.602 1.861a10.254 10.254 0 0 1 .15.839l.002.015v.006L17 14l.745-.083a.75.75 0 0 1-.662.828Z" fill="#151E28"/></svg>