<svg viewBox="0 0 24 24" fill="none" xmlns="http://www.w3.org/2000/svg"><path fill-rule="evenodd" clip-rule="evenodd" d="M12 1.25C6.063 1.25 1.25 6.063 1.25 12S6.063 22.75 12 22.75 22.75 17.937 22.75 12 17.937 1.25 12 1.25Zm3.257 12.854a.75.75 0 0 0 1.486-.207L16 14l.743-.104v-.002l-.001-.003-.002-.012-.006-.041a9.477 9.477 0 0 0-.127-.635 9.204 9.204 0 0 0-.488-1.5c-.442-1.028-1.343-2.453-3.008-2.453-.788 0-1.542.332-2.186.742-.653.417-1.264.96-1.778 1.481-.139.14-.271.28-.397.418V11a.75.75 0 0 0-1.5 0v3c0 .414.336.75.75.75h3a.75.75 0 0 0 0-1.5H9.548c.2-.23.424-.477.667-.723.47-.478.993-.936 1.516-1.27.534-.34 1.001-.507 1.38-.507.669 0 1.212.575 1.63 1.547a7.717 7.717 0 0 1 .492 1.664l.02.111.003.027.001.005Z" fill="#151E28"/></svg>