<svg viewBox="0 0 24 24" fill="none" xmlns="http://www.w3.org/2000/svg"><path fill-rule="evenodd" clip-rule="evenodd" d="M13.117 2.479a2.75 2.75 0 0 0-2.234 0c-.485.216-.844.614-1.167 1.071-.322.454-.677 1.068-1.115 1.825l-.02.033-5.45 9.413-.018.033c-.44.76-.797 1.375-1.03 1.882-.237.51-.404 1.02-.35 1.55a2.75 2.75 0 0 0 1.119 1.938c.43.313.956.424 1.515.475.556.051 1.267.051 2.145.051h10.976c.878 0 1.59 0 2.145-.05.56-.052 1.085-.163 1.515-.476a2.75 2.75 0 0 0 1.118-1.939c.055-.529-.112-1.04-.348-1.55-.234-.506-.59-1.121-1.03-1.881l-.02-.033-5.45-9.413-.019-.033c-.438-.757-.793-1.37-1.114-1.825-.324-.457-.683-.855-1.168-1.071ZM12 12a2 2 0 1 0 0-4 2 2 0 0 0 0 4Zm-1.333 2A2.667 2.667 0 0 0 8 16.667C8 17.403 8.597 18 9.333 18h5.334c.736 0 1.333-.597 1.333-1.333A2.667 2.667 0 0 0 13.333 14h-2.666Z" fill="#151E28"/></svg>