<svg viewBox="0 0 24 24" fill="none" xmlns="http://www.w3.org/2000/svg"><path fill-rule="evenodd" clip-rule="evenodd" d="M10.4 1.25h-.033c-1.092 0-1.958 0-2.655.057-.714.058-1.317.18-1.868.46a4.75 4.75 0 0 0-2.076 2.077c-.281.55-.403 1.154-.461 1.868-.057.697-.057 1.563-.057 2.655v7.266c0 1.092 0 1.958.057 2.655.058.714.18 1.317.46 1.869a4.75 4.75 0 0 0 2.077 2.075c.55.281 1.154.403 1.868.461.697.057 1.563.057 2.655.057h3.266c1.092 0 1.958 0 2.655-.057.714-.058 1.317-.18 1.869-.46a4.75 4.75 0 0 0 2.075-2.076c.281-.552.403-1.155.461-1.869.057-.697.057-1.563.057-2.655V8.367c0-1.092 0-1.958-.057-2.655-.058-.714-.18-1.317-.46-1.868a4.75 4.75 0 0 0-2.076-2.076c-.552-.281-1.155-.403-1.869-.461-.697-.057-1.563-.057-2.655-.057H10.4ZM14 11a2 2 0 1 1-4 0 2 2 0 0 1 4 0Zm-6 6.667A2.667 2.667 0 0 1 10.667 15h2.666A2.667 2.667 0 0 1 16 17.667c0 .736-.597 1.333-1.333 1.333H9.333A1.333 1.333 0 0 1 8 17.667ZM8.25 5A.75.75 0 0 1 9 4.25h6a.75.75 0 0 1 0 1.5H9A.75.75 0 0 1 8.25 5Z" fill="#151E28"/></svg>