<svg viewBox="0 0 24 24" fill="none" xmlns="http://www.w3.org/2000/svg"><path fill-rule="evenodd" clip-rule="evenodd" d="M1.47 1.47a.75.75 0 0 1 1.06 0l20 20a.75.75 0 1 1-1.06 1.06L17 18.061a4.75 4.75 0 0 1-1.844 1.671c-.55.281-1.154.403-1.868.461-.697.057-1.563.057-2.655.057H8.367c-1.092 0-1.958 0-2.655-.057-.714-.058-1.317-.18-1.868-.46a4.75 4.75 0 0 1-2.076-2.076c-.281-.552-.403-1.155-.461-1.869-.057-.697-.057-1.563-.057-2.655v-2.266c0-1.092 0-1.958.057-2.655.058-.714.18-1.317.46-1.868A4.75 4.75 0 0 1 3.44 4.5L1.47 2.53a.75.75 0 0 1 0-1.06Zm9.13 3.78c1.133 0 1.937 0 2.566.052.62.05 1.005.147 1.31.302a3.25 3.25 0 0 1 1.42 1.42c.155.305.251.69.302 1.31.051.63.052 1.434.052 2.566v2.2a.75.75 0 0 0 1.5 0v-2.233c0-.576 0-1.09-.008-1.548.56-.559.972-.966 1.306-1.257.39-.339.574-.428.657-.448a1.25 1.25 0 0 1 1.363.564c.044.073.112.267.147.782.035.495.035 1.165.035 2.111v1.858c0 .946 0 1.616-.035 2.111-.035.515-.103.709-.148.782-.111.184-.265.33-.442.432a.75.75 0 0 0 .75 1.3c.39-.226.728-.548.974-.952.247-.406.325-.92.363-1.458.038-.554.038-1.276.038-2.184v-1.92c0-.91 0-1.631-.038-2.185-.038-.539-.116-1.052-.363-1.458a2.75 2.75 0 0 0-2.998-1.242c-.462.112-.88.42-1.288.775-.149.13-.309.277-.483.443a3.967 3.967 0 0 0-.348-1.03 4.75 4.75 0 0 0-2.076-2.076c-.55-.281-1.154-.403-1.868-.461-.697-.057-1.563-.057-2.655-.057H8.4a.75.75 0 0 0 0 1.5h2.2Z" fill="#151E28"/></svg>