<svg viewBox="0 0 24 24" fill="none" xmlns="http://www.w3.org/2000/svg"><path fill-rule="evenodd" clip-rule="evenodd" d="M8.367 3.75h2.266c1.092 0 1.958 0 2.655.057.714.058 1.317.18 1.868.46a4.75 4.75 0 0 1 2.076 2.077c.164.321.274.66.348 1.03.174-.166.334-.314.483-.443.408-.355.826-.663 1.288-.775a2.75 2.75 0 0 1 2.998 1.242c.247.406.325.92.363 1.458.038.554.038 1.276.038 2.185v1.918c0 .91 0 1.631-.038 2.185-.038.539-.116 1.052-.363 1.458a2.75 2.75 0 0 1-2.998 1.242c-.462-.112-.88-.42-1.288-.775-.149-.13-.309-.277-.483-.442a3.967 3.967 0 0 1-.348 1.03 4.75 4.75 0 0 1-2.075 2.075c-.552.281-1.155.403-1.869.461-.697.057-1.563.057-2.655.057H8.367c-1.092 0-1.958 0-2.655-.057-.714-.058-1.317-.18-1.868-.46a4.75 4.75 0 0 1-2.076-2.076c-.281-.552-.403-1.155-.461-1.869-.057-.697-.057-1.563-.057-2.655v-2.266c0-1.092 0-1.958.057-2.655.058-.714.18-1.317.46-1.868a4.75 4.75 0 0 1 2.077-2.076c.55-.281 1.154-.403 1.868-.461.697-.057 1.563-.057 2.655-.057Zm9.383 7.117c0-.576 0-1.09-.008-1.548.56-.559.972-.966 1.306-1.257.39-.339.574-.428.657-.448a1.25 1.25 0 0 1 1.363.564c.044.073.112.267.147.782.035.495.035 1.165.035 2.111v1.858c0 .946 0 1.616-.035 2.111-.035.515-.103.709-.148.782a1.25 1.25 0 0 1-1.362.564c-.083-.02-.268-.11-.657-.448-.334-.29-.747-.698-1.306-1.257.008-.459.008-.972.008-1.548v-2.266Z" fill="#151E28"/></svg>