<svg viewBox="0 0 24 24" fill="none" xmlns="http://www.w3.org/2000/svg"><path fill-rule="evenodd" clip-rule="evenodd" d="M4 2.25a2.75 2.75 0 0 0-2.75 2.802v11.18c0 .813 0 1.469.043 2 .045.546.139 1.026.365 1.47a3.75 3.75 0 0 0 1.64 1.64c.443.226.923.32 1.47.365.531.043 1.187.043 2 .043H18.83c.534 0 .98 0 1.344-.03.38-.03.737-.098 1.074-.27a2.75 2.75 0 0 0 1.202-1.201c.172-.338.239-.694.27-1.074.03-.364.03-.81.03-1.345v-1.08H20a2.75 2.75 0 1 1 0-5.5h2.75v-1.08c0-.535 0-.98-.03-1.345-.031-.38-.098-.736-.27-1.073a2.75 2.75 0 0 0-1.202-1.202c-.337-.172-.694-.24-1.074-.27-.364-.03-.81-.03-1.344-.03H4a1.25 1.25 0 0 1-1.25-1.215v-.057A1.25 1.25 0 0 1 4 3.75h16a.75.75 0 0 0 0-1.5H4Zm18 10.5h.75v2.5H20a1.25 1.25 0 1 1 0-2.5h2Z" fill="#151E28"/></svg>