<svg viewBox="0 0 24 24" fill="none" xmlns="http://www.w3.org/2000/svg"><path fill-rule="evenodd" clip-rule="evenodd" d="M7.25 2A.75.75 0 0 1 8 1.25h8a.75.75 0 0 1 0 1.5H8A.75.75 0 0 1 7.25 2Zm4.15 2.25h-.033c-1.092 0-1.958 0-2.655.057-.714.058-1.317.18-1.868.46a4.75 4.75 0 0 0-2.076 2.077c-.281.55-.403 1.154-.461 1.868-.057.697-.057 1.563-.057 2.655v1.266c0 1.092 0 1.958.057 2.655.058.714.18 1.317.46 1.869a4.75 4.75 0 0 0 2.077 2.075c.55.281 1.154.403 1.868.461.697.057 1.563.057 2.655.057h1.266c1.092 0 1.958 0 2.655-.057.714-.058 1.317-.18 1.869-.46a4.75 4.75 0 0 0 2.075-2.076c.281-.552.403-1.155.461-1.869.057-.697.057-1.563.057-2.655v-1.266c0-1.092 0-1.958-.057-2.655-.058-.714-.18-1.317-.46-1.868a4.75 4.75 0 0 0-2.076-2.076c-.552-.281-1.155-.403-1.869-.461-.697-.057-1.563-.057-2.655-.057H11.4Zm.6 4a.75.75 0 0 1 .75.75v2.69l1.28 1.28a.75.75 0 1 1-1.06 1.06l-1.5-1.5a.75.75 0 0 1-.22-.53V9a.75.75 0 0 1 .75-.75Zm-4 14.5a.75.75 0 0 1 0-1.5h8a.75.75 0 0 1 0 1.5H8Z" fill="#151E28"/></svg>