<svg viewBox="0 0 24 24" fill="none" xmlns="http://www.w3.org/2000/svg"><path fill-rule="evenodd" clip-rule="evenodd" d="M12 18.75c2.665 0 5.186-.623 7.424-1.731l.458.785c.072.123.02.242-.053.286a15.175 15.175 0 0 1-7.83 2.16 15.17 15.17 0 0 1-7.828-2.16c-.074-.044-.125-.163-.053-.287l.458-.784A16.685 16.685 0 0 0 12 18.75ZM10.462 3.075l-6.827 12.58-.813 1.392c-.457.784-.25 1.834.578 2.33A16.676 16.676 0 0 0 12 21.75c3.143 0 6.086-.866 8.6-2.373.827-.496 1.035-1.546.577-2.33l-.812-1.392-6.827-12.58c-.662-1.22-2.414-1.22-3.076 0ZM12 8.25a.75.75 0 0 1 .75.75v1a.75.75 0 0 1-1.5 0V9a.75.75 0 0 1 .75-.75Zm-2 4.5a.75.75 0 0 1 .75.75v1a.75.75 0 0 1-1.5 0v-1a.75.75 0 0 1 .75-.75Zm4 0a.75.75 0 0 1 .75.75v1a.75.75 0 0 1-1.5 0v-1a.75.75 0 0 1 .75-.75Z" fill="#151E28"/></svg>