<svg viewBox="0 0 24 24" fill="none" xmlns="http://www.w3.org/2000/svg"><path fill-rule="evenodd" clip-rule="evenodd" d="M12 3.25a.75.75 0 0 1 .75.75v16a.75.75 0 1 1-1.5 0V4a.75.75 0 0 1 .75-.75Zm-5 4a.75.75 0 0 1 .75.75v8a.75.75 0 0 1-1.5 0V8A.75.75 0 0 1 7 7.25Zm10 0a.75.75 0 0 1 .75.75v8a.75.75 0 0 1-1.5 0V8a.75.75 0 0 1 .75-.75Zm5 2.5a.75.75 0 0 1 .75.75V13a.75.75 0 0 1-1.5 0v-2.5a.75.75 0 0 1 .75-.75Zm-20 .5a.75.75 0 0 1 .75.75v2a.75.75 0 0 1-1.5 0v-2a.75.75 0 0 1 .75-.75Z" fill="#151E28"/></svg>