<svg viewBox="0 0 24 24" fill="none" xmlns="http://www.w3.org/2000/svg"><path fill-rule="evenodd" clip-rule="evenodd" d="M12 2.75a6.218 6.218 0 0 0-3.571 1.12.75.75 0 1 1-.858-1.23A7.75 7.75 0 0 1 18.36 13.43a.75.75 0 0 1-1.23-.86A6.25 6.25 0 0 0 12 2.75ZM4.877 5.939A7.75 7.75 0 0 0 15.06 16.122l2.907 2.906a.75.75 0 0 0-.032.139 1.25 1.25 0 0 1-.517.853c-.096.068-.283.145-.744.187-.46.042-1.073.043-1.96.043h-5.43c-.887 0-1.5 0-1.96-.043-.46-.042-.648-.119-.744-.187a1.25 1.25 0 0 1-.517-.853c-.015-.117.004-.318.18-.746.175-.426.459-.97.87-1.757l.166-.316a.75.75 0 0 0-1.33-.696l-.165.317-.017.034c-.39.744-.707 1.35-.911 1.847-.207.503-.348 1.003-.28 1.517a2.75 2.75 0 0 0 1.138 1.878c.423.3.932.406 1.473.456.536.049 1.219.049 2.06.049h5.504c.841 0 1.524 0 2.06-.05.541-.049 1.05-.156 1.473-.455a2.75 2.75 0 0 0 .876-1.024l2.309 2.31a.75.75 0 1 0 1.06-1.061l-20-20a.75.75 0 0 0-1.06 1.06l3.409 3.41Zm7.121.811c-.264 0-.516.045-.75.128a.75.75 0 0 1-.499-1.415 3.75 3.75 0 0 1 4.786 4.787.75.75 0 1 1-1.414-.5 2.25 2.25 0 0 0-2.122-3Z" fill="#151E28"/></svg>