<svg viewBox="0 0 24 24" fill="none" xmlns="http://www.w3.org/2000/svg"><path fill-rule="evenodd" clip-rule="evenodd" d="M4.25 9a7.75 7.75 0 1 1 15.5 0 7.75 7.75 0 0 1-15.5 0Zm2.713 6.335a.75.75 0 0 1 .317 1.013l-.166.316c-.411.787-.695 1.33-.87 1.757-.177.428-.196.63-.18.746.046.344.234.653.517.853.096.068.283.145.744.187.459.042 1.073.043 1.96.043h5.43c.887 0 1.5 0 1.96-.043.46-.042.647-.119.744-.187.283-.2.47-.51.516-.853.016-.117-.003-.318-.179-.746-.175-.426-.46-.97-.87-1.757l-.166-.316a.75.75 0 1 1 1.329-.696l.166.317.017.034c.39.744.706 1.35.911 1.847.207.503.348 1.003.279 1.517a2.75 2.75 0 0 1-1.137 1.878c-.423.3-.932.406-1.474.456-.535.049-1.218.049-2.059.049H9.247c-.84 0-1.523 0-2.059-.05-.542-.049-1.05-.156-1.474-.455a2.75 2.75 0 0 1-1.136-1.878c-.07-.514.071-1.014.278-1.517.205-.497.522-1.103.911-1.848l.018-.033.166-.317a.75.75 0 0 1 1.012-.317ZM15 9a3 3 0 1 1-6 0 3 3 0 0 1 6 0Z" fill="#151E28"/></svg>