<svg viewBox="0 0 24 24" fill="none" xmlns="http://www.w3.org/2000/svg"><path fill-rule="evenodd" clip-rule="evenodd" d="M9.25 4a2.75 2.75 0 1 1 5.5 0 2.75 2.75 0 0 1-5.5 0Zm3.5 5a.75.75 0 0 0-1.5 0v4.025c0 .445 0 .816.02 1.12.022.318.069.617.19.907a2.75 2.75 0 0 0 1.488 1.489c.29.12.59.167.907.188.304.021.675.021 1.12.021H15c.476 0 .796 0 1.043.017.241.017.358.046.435.078.307.127.55.37.677.677.032.077.061.194.078.435.017.247.017.567.017 1.043v1A2.75 2.75 0 0 0 20 22.75a.75.75 0 0 0 0-1.5c-.69 0-1.25-.56-1.25-1.25v-1.025c0-.445 0-.816-.02-1.12a2.822 2.822 0 0 0-.19-.907 2.75 2.75 0 0 0-1.488-1.489c-.29-.12-.59-.167-.907-.188-.304-.021-.675-.021-1.12-.021H15c-.476 0-.796 0-1.043-.017-.241-.017-.358-.046-.435-.078a1.25 1.25 0 0 1-.677-.677c-.032-.077-.061-.194-.078-.435A17.073 17.073 0 0 1 12.75 13v-.25H18a.75.75 0 0 0 0-1.5h-5.25V9Zm-8 8A4.25 4.25 0 0 1 9 12.75a.75.75 0 0 0 0-1.5 5.75 5.75 0 1 0 4.6 9.201.75.75 0 1 0-1.2-.901A4.25 4.25 0 0 1 4.75 17Z" fill="#151E28"/></svg>