<svg viewBox="0 0 24 24" fill="none" xmlns="http://www.w3.org/2000/svg"><path fill-rule="evenodd" clip-rule="evenodd" d="M4.734 4.685a15.1 15.1 0 0 1-.016-.935h14.564c.003.256.001.573-.015.935-.045.985-.194 2.28-.6 3.565h-1.474c-1.684 0-3.352-.321-4.915-.946a14.731 14.731 0 0 0-5.47-1.054H4.881a15.823 15.823 0 0 1-.148-1.565ZM11.25 20.25v-5.525c-2.472-.167-4.236-1.16-5.461-2.55-1.32-1.496-1.964-3.394-2.278-5.034l-.004-.02a16.92 16.92 0 0 1-.272-2.368 16.901 16.901 0 0 1 .008-1.677l.007-.103.002-.028v-.009l.001-.002v-.001L4 3l-.747-.068A.75.75 0 0 1 4 2.25h16a.75.75 0 0 1 .747.682L20 3l.747-.067v.003l.001.009.002.028a9.43 9.43 0 0 1 .025.475c.01.317.014.767-.01 1.305-.049 1.071-.211 2.516-.675 3.974-.464 1.457-1.241 2.968-2.547 4.117-1.18 1.039-2.748 1.743-4.793 1.881v5.525H16a.75.75 0 0 1 0 1.5H8a.75.75 0 0 1 0-1.5h3.25Z" fill="#151E28"/></svg>