<svg xmlns="http://www.w3.org/2000/svg" viewBox="0 0 24 24">
  <defs/>
  <path fill="#151E28" d="M2.25,12 C2.25,6.615 6.615,2.25 12,2.25 C17.385,2.25 21.75,6.615 21.75,12 C21.75,17.385 17.385,21.75 12,21.75 C6.615,21.75 2.25,17.385 2.25,12 Z M12.75,8 C12.75,7.586 12.414,7.25 12,7.25 C11.586,7.25 11.25,7.586 11.25,8 L11.25,11.25 L8,11.25 C7.586,11.25 7.25,11.586 7.25,12 C7.25,12.414 7.586,12.75 8,12.75 L11.25,12.75 L11.25,16 C11.25,16.414 11.586,16.75 12,16.75 C12.414,16.75 12.75,16.414 12.75,16 L12.75,12.75 L16,12.75 C16.414,12.75 16.75,12.414 16.75,12 C16.75,11.586 16.414,11.25 16,11.25 L12.75,11.25 Z M5.53,2.53 L2.53,5.53 C2.237,5.823 1.763,5.823 1.47,5.53 C1.177,5.237 1.177,4.763 1.47,4.47 L4.47,1.47 C4.763,1.177 5.237,1.177 5.53,1.47 C5.823,1.763 5.823,2.237 5.53,2.53 Z M19.53,1.47 L22.53,4.47 C22.823,4.763 22.823,5.237 22.53,5.53 C22.237,5.823 21.763,5.823 21.47,5.53 L18.47,2.53 C18.177,2.237 18.177,1.763 18.47,1.47 C18.763,1.177 19.237,1.177 19.53,1.47 Z"/>
</svg>

