<svg xmlns="http://www.w3.org/2000/svg" viewBox="0 0 24 24">
  <defs/>
  <path fill="#151E28" d="M2.25,12 C2.25,6.615 6.615,2.25 12,2.25 C17.385,2.25 21.75,6.615 21.75,12 C21.75,17.385 17.385,21.75 12,21.75 C6.615,21.75 2.25,17.385 2.25,12 Z M10,8.25 C9.586,8.25 9.25,8.586 9.25,9 C9.25,9.414 9.586,9.75 10,9.75 L12.599,9.75 L9.376,14.584 C9.223,14.814 9.208,15.11 9.339,15.354 C9.469,15.598 9.723,15.75 10,15.75 L14,15.75 C14.414,15.75 14.75,15.414 14.75,15 C14.75,14.586 14.414,14.25 14,14.25 L11.401,14.25 L14.624,9.416 C14.778,9.186 14.792,8.89 14.661,8.646 C14.531,8.402 14.277,8.25 14,8.25 Z M5.53,2.53 L2.53,5.53 C2.237,5.823 1.763,5.823 1.47,5.53 C1.177,5.237 1.177,4.763 1.47,4.47 L4.47,1.47 C4.763,1.177 5.237,1.177 5.53,1.47 C5.823,1.763 5.823,2.237 5.53,2.53 Z M19.53,1.47 L22.53,4.47 C22.823,4.763 22.823,5.237 22.53,5.53 C22.237,5.823 21.763,5.823 21.47,5.53 L18.47,2.53 C18.177,2.237 18.177,1.763 18.47,1.47 C18.763,1.177 19.237,1.177 19.53,1.47 Z"/>
</svg>

