<svg xmlns="http://www.w3.org/2000/svg" viewBox="0 0 24 24">
  <defs/>
  <path fill="#151E28" d="M2.25,12 C2.25,6.615 6.615,2.25 12,2.25 C17.385,2.25 21.75,6.615 21.75,12 C21.75,17.385 17.385,21.75 12,21.75 C6.615,21.75 2.25,17.385 2.25,12 Z M12.75,8 C12.75,7.586 12.414,7.25 12,7.25 C11.586,7.25 11.25,7.586 11.25,8 L11.25,12 C11.25,12.251 11.375,12.485 11.584,12.624 L14.584,14.624 C14.929,14.854 15.394,14.761 15.624,14.416 C15.854,14.071 15.761,13.606 15.416,13.376 L12.75,11.599 Z M5.53,2.53 L2.53,5.53 C2.237,5.823 1.763,5.823 1.47,5.53 C1.177,5.237 1.177,4.763 1.47,4.47 L4.47,1.47 C4.763,1.177 5.237,1.177 5.53,1.47 C5.823,1.763 5.823,2.237 5.53,2.53 Z M19.53,1.47 L22.53,4.47 C22.823,4.763 22.823,5.237 22.53,5.53 C22.237,5.823 21.763,5.823 21.47,5.53 L18.47,2.53 C18.177,2.237 18.177,1.763 18.47,1.47 C18.763,1.177 19.237,1.177 19.53,1.47 Z"/>
</svg>

