<svg xmlns="http://www.w3.org/2000/svg" viewBox="0 0 24 24">
  <defs/>
  <path fill="#151E28" d="M2.25,12 C2.25,6.615 6.615,2.25 12,2.25 C17.385,2.25 21.75,6.615 21.75,12 C21.75,17.385 17.385,21.75 12,21.75 C6.615,21.75 2.25,17.385 2.25,12 Z M16.53,9.53 C16.823,9.237 16.823,8.763 16.53,8.47 C16.237,8.177 15.763,8.177 15.47,8.47 L11,12.939 L9.53,11.47 C9.237,11.177 8.763,11.177 8.47,11.47 C8.177,11.763 8.177,12.237 8.47,12.53 L10.47,14.53 C10.763,14.823 11.237,14.823 11.53,14.53 Z M5.53,2.53 L2.53,5.53 C2.237,5.823 1.763,5.823 1.47,5.53 C1.177,5.237 1.177,4.763 1.47,4.47 L4.47,1.47 C4.763,1.177 5.237,1.177 5.53,1.47 C5.823,1.763 5.823,2.237 5.53,2.53 Z M19.53,1.47 L22.53,4.47 C22.823,4.763 22.823,5.237 22.53,5.53 C22.237,5.823 21.763,5.823 21.47,5.53 L18.47,2.53 C18.177,2.237 18.177,1.763 18.47,1.47 C18.763,1.177 19.237,1.177 19.53,1.47 Z"/>
</svg>

