<svg xmlns="http://www.w3.org/2000/svg" viewBox="0 0 24 24">
  <defs/>
  <path fill="#151E28" d="M12,0.25 C12.414,0.25 12.75,0.586 12.75,1 L12.75,3.25 L16.025,3.25 C16.47,3.25 16.841,3.25 17.145,3.27 C17.462,3.292 17.762,3.339 18.052,3.459 C18.726,3.738 19.262,4.273 19.541,4.947 C19.661,5.238 19.708,5.537 19.729,5.854 C19.75,6.159 19.75,6.53 19.75,6.974 L19.75,7.025 C19.75,7.469 19.75,7.84 19.729,8.145 C19.708,8.462 19.661,8.762 19.541,9.052 C19.262,9.726 18.726,10.261 18.052,10.54 C17.762,10.66 17.462,10.707 17.145,10.729 C16.841,10.75 16.47,10.75 16.025,10.75 L12.75,10.75 L12.75,13.25 L14.025,13.25 C14.47,13.25 14.841,13.25 15.145,13.27 C15.462,13.292 15.762,13.339 16.052,13.459 C16.726,13.738 17.262,14.273 17.541,14.947 C17.661,15.238 17.708,15.537 17.729,15.854 C17.75,16.159 17.75,16.53 17.75,16.974 L17.75,17.025 C17.75,17.469 17.75,17.84 17.729,18.145 C17.708,18.462 17.661,18.761 17.541,19.052 C17.262,19.726 16.726,20.261 16.052,20.54 C15.762,20.66 15.462,20.707 15.145,20.729 C14.841,20.75 14.47,20.75 14.025,20.75 L12.75,20.75 L12.75,23 C12.75,23.414 12.414,23.75 12,23.75 C11.586,23.75 11.25,23.414 11.25,23 L11.25,20.75 L9.975,20.75 C9.53,20.75 9.159,20.75 8.855,20.729 C8.538,20.707 8.238,20.66 7.948,20.54 C7.274,20.261 6.738,19.726 6.459,19.052 C6.339,18.761 6.292,18.462 6.271,18.145 C6.25,17.84 6.25,17.469 6.25,17.025 L6.25,16.974 C6.25,16.53 6.25,16.159 6.271,15.854 C6.292,15.537 6.339,15.238 6.459,14.947 C6.738,14.273 7.274,13.738 7.948,13.459 C8.238,13.339 8.538,13.292 8.855,13.27 C9.159,13.25 9.53,13.25 9.975,13.25 L11.25,13.25 L11.25,10.75 L7.975,10.75 C7.53,10.75 7.159,10.75 6.855,10.729 C6.538,10.707 6.238,10.66 5.948,10.54 C5.274,10.261 4.738,9.726 4.459,9.052 C4.339,8.762 4.292,8.462 4.271,8.145 C4.25,7.84 4.25,7.469 4.25,7.025 L4.25,6.974 C4.25,6.53 4.25,6.159 4.271,5.854 C4.292,5.537 4.339,5.238 4.459,4.947 C4.738,4.273 5.274,3.738 5.948,3.459 C6.238,3.339 6.538,3.292 6.855,3.27 C7.159,3.25 7.53,3.25 7.975,3.25 L11.25,3.25 L11.25,1 C11.25,0.586 11.586,0.25 12,0.25 Z"/>
</svg>

