<svg xmlns="http://www.w3.org/2000/svg" viewBox="0 0 24 24">
  <defs/>
  <path fill="#151E28" d="M18,3.25 L18.025,3.25 C18.47,3.25 18.841,3.25 19.145,3.271 C19.462,3.292 19.762,3.339 20.052,3.459 C20.726,3.738 21.262,4.274 21.541,4.948 C21.661,5.238 21.708,5.537 21.729,5.855 C21.75,6.159 21.75,6.53 21.75,6.975 L21.75,7.025 C21.75,7.47 21.75,7.841 21.729,8.145 C21.708,8.462 21.661,8.762 21.541,9.052 C21.262,9.726 20.726,10.262 20.052,10.541 C19.762,10.661 19.462,10.708 19.145,10.729 C18.841,10.75 18.47,10.75 18.025,10.75 L9.975,10.75 C9.53,10.75 9.159,10.75 8.855,10.729 C8.538,10.708 8.238,10.661 7.948,10.541 C7.274,10.262 6.738,9.726 6.459,9.052 C6.339,8.762 6.292,8.462 6.271,8.145 C6.25,7.841 6.25,7.47 6.25,7.025 L6.25,6.975 C6.25,6.53 6.25,6.159 6.271,5.855 C6.292,5.537 6.339,5.238 6.459,4.948 C6.738,4.274 7.274,3.738 7.948,3.459 C8.238,3.339 8.538,3.292 8.855,3.271 C9.159,3.25 9.53,3.25 9.975,3.25 L18,3.25 Z M14.025,13.25 C14.47,13.25 14.841,13.25 15.145,13.271 C15.462,13.292 15.762,13.339 16.052,13.459 C16.726,13.738 17.262,14.274 17.541,14.948 C17.661,15.238 17.708,15.538 17.729,15.855 C17.75,16.159 17.75,16.53 17.75,16.975 L17.75,17.025 C17.75,17.47 17.75,17.841 17.729,18.145 C17.708,18.462 17.661,18.762 17.541,19.052 C17.262,19.726 16.726,20.261 16.052,20.541 C15.762,20.661 15.462,20.708 15.145,20.729 C14.841,20.75 14.47,20.75 14.025,20.75 L9.975,20.75 C9.53,20.75 9.159,20.75 8.855,20.729 C8.538,20.708 8.238,20.661 7.948,20.541 C7.274,20.261 6.738,19.726 6.459,19.052 C6.339,18.762 6.292,18.462 6.271,18.145 C6.25,17.841 6.25,17.47 6.25,17.025 L6.25,16.975 C6.25,16.53 6.25,16.159 6.271,15.855 C6.292,15.538 6.339,15.238 6.459,14.948 C6.738,14.274 7.274,13.738 7.948,13.459 C8.238,13.339 8.538,13.292 8.855,13.271 C9.159,13.25 9.53,13.25 9.975,13.25 Z M2.25,3 C2.25,2.586 2.586,2.25 3,2.25 C3.414,2.25 3.75,2.586 3.75,3 L3.75,21 C3.75,21.414 3.414,21.75 3,21.75 C2.586,21.75 2.25,21.414 2.25,21 Z"/>
</svg>

