<svg xmlns="http://www.w3.org/2000/svg" viewBox="0 0 24 24">
  <defs/>
  <path fill="#151E28" d="M5.975,3.25 L14.025,3.25 C14.47,3.25 14.841,3.25 15.145,3.271 C15.462,3.292 15.762,3.339 16.052,3.459 C16.726,3.738 17.262,4.274 17.541,4.948 C17.661,5.238 17.708,5.538 17.729,5.855 C17.75,6.159 17.75,6.53 17.75,6.975 L17.75,7.025 C17.75,7.47 17.75,7.841 17.729,8.145 C17.708,8.462 17.661,8.762 17.541,9.052 C17.262,9.726 16.726,10.262 16.052,10.541 C15.762,10.661 15.462,10.708 15.145,10.729 C14.841,10.75 14.47,10.75 14.025,10.75 L5.975,10.75 C5.53,10.75 5.159,10.75 4.855,10.729 C4.538,10.708 4.238,10.661 3.948,10.541 C3.274,10.262 2.738,9.726 2.459,9.052 C2.339,8.762 2.292,8.462 2.271,8.145 C2.25,7.841 2.25,7.47 2.25,7.025 L2.25,6.975 C2.25,6.53 2.25,6.159 2.271,5.855 C2.292,5.538 2.339,5.238 2.459,4.948 C2.738,4.274 3.274,3.738 3.948,3.459 C4.238,3.339 4.538,3.292 4.855,3.271 C5.159,3.25 5.53,3.25 5.975,3.25 Z M9.975,13.25 L14.025,13.25 C14.47,13.25 14.841,13.25 15.145,13.271 C15.462,13.292 15.762,13.339 16.052,13.459 C16.726,13.738 17.262,14.274 17.541,14.948 C17.661,15.238 17.708,15.538 17.729,15.855 C17.75,16.159 17.75,16.53 17.75,16.975 L17.75,17.025 C17.75,17.47 17.75,17.841 17.729,18.145 C17.708,18.462 17.661,18.762 17.541,19.052 C17.262,19.726 16.726,20.262 16.052,20.541 C15.762,20.661 15.462,20.708 15.145,20.729 C14.841,20.75 14.47,20.75 14.025,20.75 L9.975,20.75 C9.53,20.75 9.159,20.75 8.855,20.729 C8.538,20.708 8.238,20.661 7.948,20.541 C7.274,20.262 6.738,19.726 6.459,19.052 C6.339,18.762 6.292,18.462 6.271,18.145 C6.25,17.841 6.25,17.47 6.25,17.025 L6.25,16.975 C6.25,16.53 6.25,16.159 6.271,15.855 C6.292,15.538 6.339,15.238 6.459,14.948 C6.738,14.274 7.274,13.738 7.948,13.459 C8.238,13.339 8.538,13.292 8.855,13.271 C9.159,13.25 9.53,13.25 9.975,13.25 Z M21,2.25 C21.414,2.25 21.75,2.586 21.75,3 L21.75,21 C21.75,21.414 21.414,21.75 21,21.75 C20.586,21.75 20.25,21.414 20.25,21 L20.25,3 C20.25,2.586 20.586,2.25 21,2.25 Z"/>
</svg>

