<svg xmlns="http://www.w3.org/2000/svg" viewBox="0 0 24 24">
  <defs/>
  <path fill="#151E28" d="M3.25,16.025 L3.25,12.75 L1,12.75 C0.586,12.75 0.25,12.414 0.25,12 C0.25,11.586 0.586,11.25 1,11.25 L3.25,11.25 L3.25,7.975 C3.25,7.53 3.25,7.159 3.27,6.855 C3.292,6.538 3.339,6.238 3.459,5.948 C3.738,5.274 4.273,4.738 4.947,4.459 C5.238,4.339 5.537,4.292 5.854,4.271 C6.159,4.25 6.53,4.25 6.974,4.25 L7.025,4.25 C7.469,4.25 7.84,4.25 8.145,4.271 C8.462,4.292 8.762,4.339 9.052,4.459 C9.726,4.738 10.261,5.274 10.54,5.948 C10.66,6.238 10.707,6.538 10.729,6.855 C10.75,7.159 10.75,7.53 10.75,7.975 L10.75,11.25 L13.25,11.25 L13.25,9.975 C13.25,9.53 13.25,9.159 13.27,8.855 C13.292,8.538 13.339,8.238 13.459,7.948 C13.738,7.274 14.273,6.738 14.947,6.459 C15.238,6.339 15.537,6.292 15.854,6.271 C16.159,6.25 16.53,6.25 16.974,6.25 L17.025,6.25 C17.469,6.25 17.84,6.25 18.145,6.271 C18.462,6.292 18.761,6.339 19.052,6.459 C19.726,6.738 20.261,7.274 20.54,7.948 C20.66,8.238 20.707,8.538 20.729,8.855 C20.75,9.159 20.75,9.53 20.75,9.975 L20.75,11.25 L23,11.25 C23.414,11.25 23.75,11.586 23.75,12 C23.75,12.414 23.414,12.75 23,12.75 L20.75,12.75 L20.75,14.025 C20.75,14.47 20.75,14.841 20.729,15.145 C20.707,15.462 20.66,15.762 20.54,16.052 C20.261,16.726 19.726,17.262 19.052,17.541 C18.761,17.661 18.462,17.708 18.145,17.729 C17.84,17.75 17.469,17.75 17.025,17.75 L16.974,17.75 C16.53,17.75 16.159,17.75 15.854,17.729 C15.537,17.708 15.238,17.661 14.947,17.541 C14.273,17.262 13.738,16.726 13.459,16.052 C13.339,15.762 13.292,15.462 13.27,15.145 C13.25,14.841 13.25,14.47 13.25,14.025 L13.25,12.75 L10.75,12.75 L10.75,16.025 C10.75,16.47 10.75,16.841 10.729,17.145 C10.707,17.462 10.66,17.762 10.54,18.052 C10.261,18.726 9.726,19.262 9.052,19.541 C8.762,19.661 8.462,19.708 8.145,19.729 C7.84,19.75 7.469,19.75 7.025,19.75 L6.974,19.75 C6.53,19.75 6.159,19.75 5.854,19.729 C5.537,19.708 5.238,19.661 4.947,19.541 C4.273,19.262 3.738,18.726 3.459,18.052 C3.339,17.762 3.292,17.462 3.27,17.145 C3.25,16.841 3.25,16.47 3.25,16.025 Z"/>
</svg>

