<svg xmlns="http://www.w3.org/2000/svg" viewBox="0 0 24 24">
  <defs/>
  <path fill="#151E28" d="M12.031,2.25 C17.402,2.267 21.75,6.626 21.75,12 C21.75,17.385 17.385,21.75 12,21.75 C6.615,21.75 2.25,17.385 2.25,12 C2.25,6.626 6.599,2.267 11.969,2.25 C11.99,2.249 12.01,2.249 12.031,2.25 Z M19.341,8.231 L16.261,8.098 L16.447,8.455 C16.452,8.464 16.456,8.473 16.461,8.482 L17.439,10.358 C17.444,10.367 17.448,10.377 17.453,10.386 L18.239,11.894 L19.759,14.81 C20.077,13.933 20.25,12.987 20.25,12 C20.25,10.642 19.922,9.361 19.341,8.231 Z M18.934,16.472 L17.51,13.739 L17.304,14.062 C17.295,14.076 17.286,14.09 17.277,14.105 L16.141,15.89 C16.132,15.904 16.123,15.918 16.114,15.932 L15.211,17.351 L13.446,20.124 C15.745,19.717 17.714,18.36 18.934,16.472 Z M10.751,6.359 L15.028,6.543 L18.31,6.685 C16.878,4.986 14.772,3.874 12.405,3.76 Z M4.66,15.77 L7.739,15.903 L5.76,12.106 L4.241,9.191 C3.923,10.068 3.75,11.014 3.75,12 C3.75,13.358 4.078,14.64 4.66,15.77 Z M5.066,7.529 L6.49,10.261 L8.788,6.649 L10.552,3.877 C8.255,4.283 6.285,5.641 5.066,7.529 Z M11.594,20.24 L13.248,17.642 L12.855,17.625 C12.842,17.624 12.829,17.624 12.816,17.623 L10.703,17.532 C10.689,17.531 10.677,17.531 10.663,17.53 L8.972,17.457 L5.69,17.316 C7.122,19.014 9.227,20.126 11.594,20.24 Z"/>
</svg>

