<svg xmlns="http://www.w3.org/2000/svg" viewBox="0 0 24 24">
  <defs/>
  <path fill="#151E28" d="M3.25,14.5 C3.25,10.618 5.936,7.25 9.5,7.25 C10.392,7.25 11.238,7.466 12,7.852 C12.763,7.466 13.609,7.25 14.5,7.25 C18.065,7.25 20.75,10.618 20.75,14.5 C20.75,18.382 18.065,21.75 14.5,21.75 C13.609,21.75 12.763,21.534 12,21.148 C11.238,21.534 10.392,21.75 9.5,21.75 C5.936,21.75 3.25,18.382 3.25,14.5 Z M17.505,3.447 L17.495,3.634 C17.471,4.081 17.449,4.48 17.38,4.877 C17.297,5.349 17.151,5.805 16.884,6.386 C16.711,6.763 16.266,6.928 15.89,6.756 C15.513,6.583 15.348,6.138 15.521,5.761 C15.746,5.269 15.846,4.938 15.902,4.618 C15.932,4.45 15.95,4.282 15.965,4.086 C15.315,4.097 14.631,4.296 14.026,4.656 C13.216,5.138 12.62,5.861 12.424,6.676 C12.327,7.079 11.922,7.326 11.519,7.229 C11.116,7.132 10.869,6.727 10.966,6.324 C11.277,5.035 12.181,4.008 13.26,3.367 C14.337,2.726 15.662,2.426 16.901,2.669 C17.268,2.741 17.526,3.073 17.505,3.447 Z"/>
</svg>

