<svg xmlns="http://www.w3.org/2000/svg" viewBox="0 0 24 24">
  <defs/>
  <path fill="#151E28" d="M13.117,2.479 C13.602,2.695 13.961,3.093 14.285,3.55 C14.606,4.004 14.961,4.617 15.399,5.375 L15.418,5.408 L20.868,14.821 L20.887,14.854 C21.327,15.614 21.684,16.229 21.918,16.736 C22.154,17.245 22.321,17.756 22.266,18.285 C22.185,19.061 21.779,19.766 21.148,20.224 C20.718,20.537 20.192,20.648 19.633,20.699 C19.077,20.75 18.366,20.75 17.488,20.75 L6.512,20.75 C5.634,20.75 4.923,20.75 4.367,20.699 C3.808,20.648 3.282,20.537 2.852,20.224 C2.221,19.766 1.815,19.061 1.734,18.285 C1.679,17.756 1.846,17.245 2.082,16.736 C2.316,16.229 2.673,15.614 3.113,14.854 L3.132,14.821 L8.582,5.408 L8.601,5.375 C9.039,4.618 9.394,4.004 9.715,3.55 C10.039,3.093 10.398,2.695 10.883,2.479 C11.594,2.163 12.406,2.163 13.117,2.479 Z M8.75,14 L8.75,13.2 C8.75,12.628 8.751,12.243 8.775,11.948 C8.798,11.66 8.84,11.523 8.886,11.432 C9.006,11.197 9.197,11.006 9.433,10.886 C9.523,10.84 9.66,10.798 9.947,10.775 C10.243,10.751 10.628,10.75 11.2,10.75 L12.8,10.75 C13.372,10.75 13.757,10.751 14.052,10.775 C14.34,10.798 14.477,10.84 14.568,10.886 C14.803,11.006 14.994,11.197 15.114,11.432 C15.16,11.523 15.202,11.66 15.225,11.948 C15.249,12.243 15.25,12.628 15.25,13.2 L15.25,14 C15.25,14.414 15.586,14.75 16,14.75 C16.414,14.75 16.75,14.414 16.75,14 L16.75,13.169 C16.75,12.635 16.75,12.19 16.72,11.825 C16.689,11.446 16.622,11.089 16.45,10.752 C16.187,10.234 15.766,9.813 15.248,9.55 C14.911,9.378 14.555,9.311 14.175,9.28 C13.81,9.25 13.365,9.25 12.83,9.25 L11.17,9.25 C10.635,9.25 10.19,9.25 9.825,9.28 C9.445,9.311 9.089,9.378 8.752,9.55 C8.234,9.813 7.813,10.234 7.55,10.752 C7.378,11.089 7.311,11.446 7.28,11.825 C7.25,12.19 7.25,12.635 7.25,13.17 L7.25,14 C7.25,14.414 7.586,14.75 8,14.75 C8.414,14.75 8.75,14.414 8.75,14 Z M14.53,16.53 C14.823,16.237 14.823,15.763 14.53,15.47 C14.237,15.177 13.763,15.177 13.47,15.47 L12.75,16.189 L12.75,13 C12.75,12.586 12.414,12.25 12,12.25 C11.586,12.25 11.25,12.586 11.25,13 L11.25,16.189 L10.53,15.47 C10.237,15.177 9.763,15.177 9.47,15.47 C9.177,15.763 9.177,16.237 9.47,16.53 L11.47,18.53 C11.763,18.823 12.237,18.823 12.53,18.53 Z"/>
</svg>

