<svg xmlns="http://www.w3.org/2000/svg" viewBox="0 0 24 24">
  <defs/>
  <path fill="#151E28" d="M9.325,2.25 L14.675,2.25 L14.747,2.25 C15.166,2.25 15.495,2.25 15.814,2.326 C16.094,2.393 16.362,2.504 16.608,2.655 C16.888,2.826 17.121,3.059 17.416,3.356 L17.468,3.407 L20.593,6.532 L20.644,6.584 C20.941,6.879 21.174,7.112 21.345,7.392 C21.496,7.638 21.607,7.906 21.674,8.186 C21.75,8.505 21.75,8.834 21.75,9.253 L21.75,14.747 C21.75,15.166 21.75,15.495 21.674,15.814 C21.607,16.094 21.496,16.362 21.345,16.608 C21.174,16.888 20.941,17.121 20.644,17.416 L17.468,20.593 L17.416,20.644 C17.121,20.941 16.888,21.174 16.608,21.345 C16.362,21.496 16.094,21.607 15.814,21.674 C15.495,21.75 15.166,21.75 14.747,21.75 L9.253,21.75 C8.834,21.75 8.505,21.75 8.186,21.674 C7.906,21.607 7.638,21.496 7.392,21.345 C7.112,21.174 6.879,20.941 6.584,20.644 L6.532,20.593 L3.407,17.468 L3.356,17.416 C3.059,17.121 2.826,16.888 2.655,16.608 C2.504,16.362 2.393,16.094 2.326,15.814 C2.25,15.495 2.25,15.166 2.25,14.747 L2.25,14.675 L2.25,9.325 L2.25,9.253 C2.25,8.834 2.25,8.505 2.326,8.186 C2.393,7.906 2.504,7.638 2.655,7.392 C2.826,7.112 3.059,6.879 3.356,6.584 L3.407,6.532 L6.532,3.407 L6.584,3.356 C6.879,3.059 7.112,2.826 7.392,2.655 C7.638,2.504 7.906,2.393 8.186,2.326 C8.505,2.25 8.834,2.25 9.253,2.25 Z M12.889,7.25 C12.475,7.25 12.139,7.586 12.139,8 C12.139,8.414 12.475,8.75 12.889,8.75 C13.418,8.75 13.774,8.75 14.048,8.771 C14.315,8.791 14.443,8.828 14.528,8.867 C14.795,8.991 15.009,9.205 15.133,9.472 C15.172,9.556 15.208,9.685 15.229,9.952 C15.25,10.226 15.25,10.582 15.25,11.111 L15.25,12.8 C15.25,13.372 15.249,13.757 15.225,14.052 C15.202,14.34 15.16,14.477 15.114,14.568 C14.994,14.803 14.803,14.994 14.568,15.114 C14.477,15.16 14.34,15.202 14.052,15.225 C13.757,15.249 13.372,15.25 12.8,15.25 L11.111,15.25 C10.582,15.25 10.226,15.25 9.952,15.229 C9.685,15.208 9.556,15.172 9.472,15.133 C9.205,15.009 8.991,14.795 8.867,14.528 C8.828,14.443 8.791,14.315 8.771,14.048 C8.75,13.774 8.75,13.418 8.75,12.889 C8.75,12.475 8.414,12.139 8,12.139 C7.586,12.139 7.25,12.475 7.25,12.889 L7.25,12.917 C7.25,13.411 7.25,13.824 7.276,14.162 C7.302,14.514 7.36,14.845 7.508,15.162 C7.781,15.748 8.252,16.219 8.838,16.492 C9.155,16.64 9.486,16.698 9.838,16.724 C10.176,16.75 10.589,16.75 11.083,16.75 L12.83,16.75 C13.365,16.75 13.811,16.75 14.175,16.72 C14.555,16.689 14.911,16.622 15.248,16.45 C15.766,16.187 16.187,15.766 16.45,15.248 C16.622,14.911 16.689,14.555 16.72,14.175 C16.75,13.81 16.75,13.365 16.75,12.83 L16.75,11.083 C16.75,10.589 16.75,10.176 16.724,9.838 C16.698,9.486 16.64,9.155 16.492,8.838 C16.219,8.252 15.748,7.781 15.162,7.508 C14.845,7.36 14.514,7.302 14.162,7.276 C13.824,7.25 13.411,7.25 12.917,7.25 Z M9.763,8.703 C10.048,8.596 10.25,8.322 10.25,8 C10.25,7.586 9.914,7.25 9.5,7.25 L8,7.25 C7.586,7.25 7.25,7.586 7.25,8 L7.25,9.5 C7.25,9.914 7.586,10.25 8,10.25 C8.322,10.25 8.596,10.048 8.703,9.763 L10.237,11.297 C9.952,11.404 9.75,11.678 9.75,12 C9.75,12.414 10.086,12.75 10.5,12.75 L12,12.75 C12.414,12.75 12.75,12.414 12.75,12 L12.75,10.5 C12.75,10.086 12.414,9.75 12,9.75 C11.678,9.75 11.404,9.952 11.297,10.237 Z"/>
</svg>

