<svg xmlns="http://www.w3.org/2000/svg" viewBox="0 0 24 24">
  <defs/>
  <path fill="#151E28" d="M12,1.25 C17.937,1.25 22.75,6.063 22.75,12 C22.75,17.937 17.937,22.75 12,22.75 C6.063,22.75 1.25,17.937 1.25,12 C1.25,6.063 6.063,1.25 12,1.25 Z M14.773,12.773 C15.066,12.48 15.066,12.005 14.773,11.712 L11.811,8.75 L14.242,8.75 C14.657,8.75 14.992,8.414 14.992,8 C14.992,7.586 14.657,7.25 14.242,7.25 L10,7.25 C9.801,7.25 9.61,7.329 9.469,7.47 C9.329,7.61 9.25,7.801 9.25,8 L9.25,12.243 C9.25,12.657 9.586,12.993 10,12.993 C10.414,12.993 10.75,12.657 10.75,12.243 L10.75,9.81 L13.712,12.773 C14.005,13.066 14.48,13.066 14.773,12.773 Z M15.75,16 C15.75,15.586 15.414,15.25 15,15.25 L9,15.25 C8.586,15.25 8.25,15.586 8.25,16 C8.25,16.414 8.586,16.75 9,16.75 L15,16.75 C15.414,16.75 15.75,16.414 15.75,16 Z"/>
</svg>

