<svg xmlns="http://www.w3.org/2000/svg" viewBox="0 0 24 24">
  <defs/>
  <path fill="#151E28" d="M12,1.25 C17.937,1.25 22.75,6.063 22.75,12 C22.75,17.937 17.937,22.75 12,22.75 C6.063,22.75 1.25,17.937 1.25,12 C1.25,6.063 6.063,1.25 12,1.25 Z M12.43,6.869 C12.137,6.577 11.662,6.577 11.369,6.869 C11.076,7.162 11.076,7.637 11.369,7.93 L11.699,8.259 C9.216,8.415 7.25,10.478 7.25,13 C7.25,15.623 9.377,17.75 12,17.75 C14.623,17.75 16.75,15.623 16.75,13 C16.75,12.586 16.414,12.25 16,12.25 C15.586,12.25 15.25,12.586 15.25,13 C15.25,14.795 13.795,16.25 12,16.25 C10.205,16.25 8.75,14.795 8.75,13 C8.75,11.316 10.031,9.93 11.673,9.766 L11.37,10.069 C11.077,10.362 11.077,10.837 11.37,11.13 C11.662,11.423 12.137,11.423 12.43,11.13 L14.03,9.53 C14.323,9.237 14.323,8.762 14.03,8.469 Z"/>
</svg>

