<svg xmlns="http://www.w3.org/2000/svg" viewBox="0 0 24 24">
  <defs/>
  <path fill="#151E28" d="M9.325,2.25 L14.675,2.25 L14.747,2.25 C15.166,2.25 15.495,2.25 15.814,2.326 C16.094,2.393 16.362,2.504 16.608,2.655 C16.888,2.826 17.121,3.059 17.416,3.356 L17.468,3.407 L20.593,6.532 L20.644,6.584 C20.941,6.879 21.174,7.112 21.345,7.392 C21.496,7.638 21.607,7.906 21.674,8.186 C21.75,8.505 21.75,8.834 21.75,9.253 L21.75,14.747 C21.75,15.166 21.75,15.495 21.674,15.814 C21.607,16.094 21.496,16.362 21.345,16.608 C21.174,16.888 20.941,17.121 20.644,17.416 L17.468,20.593 L17.416,20.644 C17.121,20.941 16.888,21.174 16.608,21.345 C16.362,21.496 16.094,21.607 15.814,21.674 C15.495,21.75 15.166,21.75 14.747,21.75 L9.253,21.75 C8.834,21.75 8.505,21.75 8.186,21.674 C7.906,21.607 7.638,21.496 7.392,21.345 C7.112,21.174 6.879,20.941 6.584,20.644 L6.532,20.593 L3.407,17.468 L3.356,17.416 C3.059,17.121 2.826,16.888 2.655,16.608 C2.504,16.362 2.393,16.094 2.326,15.814 C2.25,15.495 2.25,15.166 2.25,14.747 L2.25,14.675 L2.25,9.325 L2.25,9.253 C2.25,8.834 2.25,8.505 2.326,8.186 C2.393,7.906 2.504,7.638 2.655,7.392 C2.826,7.112 3.059,6.879 3.356,6.584 L3.407,6.532 L6.532,3.407 L6.584,3.356 C6.879,3.059 7.112,2.826 7.392,2.655 C7.638,2.504 7.906,2.393 8.186,2.326 C8.505,2.25 8.834,2.25 9.253,2.25 Z M12.889,16.75 L12.917,16.75 C13.411,16.75 13.824,16.75 14.162,16.724 C14.514,16.698 14.845,16.64 15.162,16.492 C15.748,16.219 16.219,15.748 16.492,15.162 C16.64,14.845 16.698,14.514 16.724,14.162 C16.75,13.824 16.75,13.411 16.75,12.917 L16.75,11.17 C16.75,10.635 16.75,10.19 16.72,9.825 C16.689,9.445 16.622,9.089 16.45,8.752 C16.187,8.234 15.766,7.813 15.248,7.55 C14.911,7.378 14.555,7.311 14.175,7.28 C13.811,7.25 13.365,7.25 12.831,7.25 L11.083,7.25 C10.589,7.25 10.176,7.25 9.838,7.276 C9.486,7.302 9.155,7.36 8.838,7.508 C8.252,7.781 7.781,8.252 7.508,8.838 C7.36,9.155 7.302,9.486 7.276,9.838 C7.25,10.176 7.25,10.589 7.25,11.083 L7.25,11.111 C7.25,11.525 7.586,11.861 8,11.861 C8.414,11.861 8.75,11.525 8.75,11.111 C8.75,10.582 8.75,10.226 8.771,9.952 C8.791,9.685 8.828,9.556 8.867,9.472 C8.991,9.205 9.205,8.991 9.472,8.867 C9.556,8.828 9.685,8.791 9.952,8.771 C10.226,8.75 10.582,8.75 11.111,8.75 L12.8,8.75 C13.372,8.75 13.757,8.751 14.052,8.775 C14.34,8.798 14.477,8.84 14.568,8.886 C14.803,9.006 14.994,9.197 15.114,9.433 C15.16,9.523 15.202,9.66 15.225,9.947 C15.249,10.243 15.25,10.628 15.25,11.2 L15.25,12.889 C15.25,13.418 15.25,13.774 15.229,14.048 C15.208,14.315 15.172,14.443 15.133,14.528 C15.009,14.795 14.795,15.009 14.528,15.133 C14.443,15.172 14.315,15.208 14.048,15.229 C13.774,15.25 13.418,15.25 12.889,15.25 C12.475,15.25 12.139,15.586 12.139,16 C12.139,16.414 12.475,16.75 12.889,16.75 Z M9.763,15.297 L11.297,13.763 C11.404,14.047 11.678,14.25 12,14.25 C12.414,14.25 12.75,13.914 12.75,13.5 L12.75,12 C12.75,11.586 12.414,11.25 12,11.25 L10.5,11.25 C10.086,11.25 9.75,11.586 9.75,12 C9.75,12.322 9.952,12.596 10.237,12.703 L8.703,14.237 C8.596,13.952 8.322,13.75 8,13.75 C7.586,13.75 7.25,14.086 7.25,14.5 L7.25,16 C7.25,16.414 7.586,16.75 8,16.75 L9.5,16.75 C9.914,16.75 10.25,16.414 10.25,16 C10.25,15.678 10.048,15.404 9.763,15.297 Z"/>
</svg>

