<svg xmlns="http://www.w3.org/2000/svg" viewBox="0 0 24 24">
  <defs/>
  <path fill="#151E28" d="M12,1.25 C17.937,1.25 22.75,6.063 22.75,12 C22.75,17.937 17.937,22.75 12,22.75 C6.063,22.75 1.25,17.937 1.25,12 C1.25,6.063 6.063,1.25 12,1.25 Z M12.8,8.75 C13.373,8.75 13.757,8.751 14.053,8.775 C14.34,8.798 14.477,8.84 14.568,8.886 C14.803,9.006 14.994,9.197 15.114,9.433 C15.16,9.523 15.202,9.66 15.225,9.947 C15.25,10.243 15.25,10.628 15.25,11.2 L15.25,12.889 C15.25,13.418 15.25,13.774 15.229,14.048 C15.209,14.315 15.172,14.443 15.133,14.528 C15.009,14.795 14.795,15.009 14.528,15.133 C14.153,15.308 13.991,15.754 14.166,16.13 C14.341,16.505 14.787,16.667 15.162,16.492 C15.748,16.219 16.219,15.748 16.493,15.162 C16.64,14.845 16.698,14.514 16.725,14.162 C16.75,13.824 16.75,13.411 16.75,12.917 L16.75,11.17 C16.75,10.635 16.75,10.189 16.72,9.825 C16.689,9.445 16.622,9.089 16.45,8.752 C16.187,8.234 15.766,7.813 15.249,7.55 C14.911,7.378 14.555,7.311 14.175,7.28 C13.811,7.25 13.365,7.25 12.831,7.25 L11.083,7.25 C10.589,7.25 10.176,7.25 9.838,7.276 C9.486,7.302 9.155,7.36 8.838,7.508 C8.252,7.781 7.781,8.252 7.508,8.838 C7.333,9.213 7.495,9.659 7.871,9.834 C8.246,10.009 8.692,9.847 8.867,9.472 C8.991,9.205 9.205,8.991 9.472,8.867 C9.557,8.828 9.685,8.791 9.952,8.771 C10.226,8.75 10.582,8.75 11.111,8.75 Z M8.85,12 C8.85,12.414 9.186,12.75 9.6,12.75 L10.189,12.75 L7.47,15.47 C7.177,15.763 7.177,16.237 7.47,16.53 C7.763,16.823 8.237,16.823 8.53,16.53 L11.25,13.811 L11.25,14.4 C11.25,14.814 11.586,15.15 12,15.15 C12.414,15.15 12.75,14.814 12.75,14.4 L12.75,12 C12.75,11.586 12.414,11.25 12,11.25 L9.6,11.25 C9.186,11.25 8.85,11.586 8.85,12 Z"/>
</svg>

