<svg xmlns="http://www.w3.org/2000/svg" viewBox="0 0 24 24">
  <defs/>
  <path fill="#151E28" d="M9.367,2.25 L14.633,2.25 C15.725,2.25 16.591,2.25 17.288,2.307 C18.002,2.365 18.605,2.487 19.156,2.768 C20.05,3.223 20.777,3.95 21.232,4.844 C21.513,5.395 21.635,5.998 21.693,6.712 C21.75,7.409 21.75,8.275 21.75,9.367 L21.75,14.633 C21.75,15.725 21.75,16.591 21.693,17.288 C21.635,18.002 21.513,18.605 21.232,19.156 C20.777,20.05 20.05,20.777 19.156,21.232 C18.605,21.513 18.002,21.635 17.288,21.693 C16.591,21.75 15.725,21.75 14.633,21.75 L9.367,21.75 C8.275,21.75 7.409,21.75 6.712,21.693 C5.998,21.635 5.395,21.513 4.844,21.232 C3.95,20.777 3.223,20.05 2.768,19.156 C2.487,18.605 2.365,18.002 2.307,17.288 C2.25,16.591 2.25,15.725 2.25,14.633 L2.25,9.367 C2.25,8.275 2.25,7.409 2.307,6.712 C2.365,5.998 2.487,5.395 2.768,4.844 C3.223,3.95 3.95,3.223 4.844,2.768 C5.395,2.487 5.998,2.365 6.712,2.307 C7.409,2.25 8.275,2.25 9.367,2.25 Z M14.773,11.227 C14.48,10.934 14.005,10.934 13.712,11.227 L10.75,14.189 L10.75,11.757 C10.75,11.343 10.414,11.007 10,11.007 C9.586,11.007 9.25,11.343 9.25,11.757 L9.25,16 C9.25,16.199 9.329,16.39 9.469,16.531 C9.61,16.671 9.801,16.75 10,16.75 L14.242,16.75 C14.657,16.75 14.992,16.414 14.992,16 C14.992,15.586 14.657,15.25 14.242,15.25 L11.811,15.25 L14.773,12.288 C15.066,11.995 15.066,11.52 14.773,11.227 Z M15,7.25 L9,7.25 C8.586,7.25 8.25,7.586 8.25,8 C8.25,8.414 8.586,8.75 9,8.75 L15,8.75 C15.414,8.75 15.75,8.414 15.75,8 C15.75,7.586 15.414,7.25 15,7.25 Z"/>
</svg>

