<svg xmlns="http://www.w3.org/2000/svg" viewBox="0 0 24 24">
  <defs/>
  <path fill="#151E28" d="M12,1.25 C17.937,1.25 22.75,6.063 22.75,12 C22.75,17.937 17.937,22.75 12,22.75 C6.063,22.75 1.25,17.937 1.25,12 C1.25,6.063 6.063,1.25 12,1.25 Z M12.75,7 C12.75,6.586 12.414,6.25 12,6.25 C11.586,6.25 11.25,6.586 11.25,7 L11.25,11.189 L9.53,9.47 C9.237,9.177 8.763,9.177 8.47,9.47 C8.177,9.763 8.177,10.237 8.47,10.53 L11.47,13.53 C11.61,13.671 11.801,13.75 12,13.75 C12.199,13.75 12.39,13.671 12.53,13.53 L15.53,10.53 C15.823,10.237 15.823,9.763 15.53,9.47 C15.237,9.177 14.763,9.177 14.47,9.47 L12.75,11.189 Z M9,16.75 L15,16.75 C15.414,16.75 15.75,16.414 15.75,16 C15.75,15.586 15.414,15.25 15,15.25 L9,15.25 C8.586,15.25 8.25,15.586 8.25,16 C8.25,16.414 8.586,16.75 9,16.75 Z"/>
</svg>

