<svg xmlns="http://www.w3.org/2000/svg" viewBox="0 0 24 24">
  <defs/>
  <path fill="#151E28" d="M13.117,2.479 C13.602,2.695 13.961,3.093 14.285,3.55 C14.606,4.004 14.961,4.617 15.399,5.375 L15.399,5.375 L15.418,5.408 L20.868,14.821 L20.887,14.854 C21.327,15.614 21.684,16.229 21.918,16.736 C22.154,17.245 22.321,17.756 22.266,18.285 C22.185,19.061 21.779,19.766 21.148,20.224 C20.718,20.537 20.192,20.648 19.633,20.699 C19.077,20.75 18.366,20.75 17.488,20.75 L6.512,20.75 C5.634,20.75 4.923,20.75 4.367,20.699 C3.808,20.648 3.282,20.537 2.852,20.224 C2.221,19.766 1.815,19.061 1.734,18.285 C1.679,17.756 1.846,17.245 2.082,16.736 C2.316,16.229 2.673,15.614 3.113,14.854 L3.132,14.821 L8.582,5.408 L8.601,5.375 C9.039,4.618 9.394,4.004 9.715,3.55 C10.039,3.093 10.398,2.695 10.883,2.479 C11.594,2.163 12.406,2.163 13.117,2.479 Z M11.5,17.75 C11.914,17.75 12.25,17.414 12.25,17 C12.25,16.586 11.914,16.25 11.5,16.25 L10.811,16.25 L11.53,15.53 C11.823,15.237 11.823,14.763 11.53,14.47 C11.237,14.177 10.763,14.177 10.47,14.47 L9.75,15.189 L9.75,14.5 C9.75,14.086 9.414,13.75 9,13.75 C8.586,13.75 8.25,14.086 8.25,14.5 L8.25,17 C8.25,17.414 8.586,17.75 9,17.75 Z M11.75,11 C11.75,11.414 12.086,11.75 12.5,11.75 L13.189,11.75 L12.47,12.47 C12.177,12.763 12.177,13.237 12.47,13.53 C12.763,13.823 13.237,13.823 13.53,13.53 L14.25,12.811 L14.25,13.5 C14.25,13.914 14.586,14.25 15,14.25 C15.414,14.25 15.75,13.914 15.75,13.5 L15.75,11 C15.75,10.586 15.414,10.25 15,10.25 L12.5,10.25 C12.086,10.25 11.75,10.586 11.75,11 Z"/>
</svg>

