<svg xmlns="http://www.w3.org/2000/svg" viewBox="0 0 24 24">
  <defs/>
  <path fill="#151E28" d="M12,1.25 C17.937,1.25 22.75,6.063 22.75,12 C22.75,17.937 17.937,22.75 12,22.75 C6.063,22.75 1.25,17.937 1.25,12 C1.25,6.063 6.063,1.25 12,1.25 Z M15,16.75 C15.967,16.75 16.75,15.967 16.75,15 L16.75,11.524 C16.75,9.938 14.811,9.17 13.725,10.325 L13.619,10.437 L13.273,10.091 C12.59,9.408 11.481,9.408 10.798,10.091 L10.091,10.798 C9.408,11.481 9.408,12.59 10.091,13.273 L10.437,13.619 L10.325,13.725 C9.17,14.811 9.938,16.75 11.524,16.75 Z M15.25,15 C15.25,15.138 15.138,15.25 15,15.25 L11.524,15.25 C11.297,15.25 11.187,14.973 11.352,14.818 L12.028,14.182 C12.176,14.043 12.261,13.85 12.264,13.647 C12.268,13.444 12.188,13.249 12.045,13.106 L11.152,12.212 C11.054,12.115 11.054,11.956 11.152,11.859 L11.859,11.152 C11.956,11.054 12.115,11.054 12.212,11.152 L13.106,12.045 C13.249,12.188 13.444,12.267 13.647,12.264 C13.85,12.261 14.043,12.176 14.182,12.028 L14.818,11.352 C14.973,11.187 15.25,11.297 15.25,11.524 Z M7.97,11.152 C8.263,11.444 8.737,11.444 9.03,11.152 L11.152,9.03 C11.445,8.737 11.445,8.263 11.152,7.97 C10.859,7.677 10.384,7.677 10.091,7.97 L7.97,10.091 C7.677,10.384 7.677,10.859 7.97,11.152 Z"/>
</svg>

