<svg xmlns="http://www.w3.org/2000/svg" viewBox="0 0 24 24">
  <defs/>
  <path fill="#151E28" d="M9.325,2.25 L14.675,2.25 L14.747,2.25 C15.166,2.25 15.495,2.25 15.814,2.326 C16.094,2.393 16.362,2.504 16.608,2.655 C16.888,2.826 17.121,3.059 17.416,3.356 L17.468,3.407 L20.593,6.532 L20.644,6.584 C20.941,6.879 21.174,7.112 21.345,7.392 C21.496,7.638 21.607,7.906 21.674,8.186 C21.75,8.505 21.75,8.834 21.75,9.253 L21.75,14.747 C21.75,15.166 21.75,15.495 21.674,15.814 C21.607,16.094 21.496,16.362 21.345,16.608 C21.174,16.888 20.941,17.121 20.644,17.416 L17.468,20.593 L17.416,20.644 C17.121,20.941 16.888,21.174 16.608,21.345 C16.362,21.496 16.094,21.607 15.814,21.674 C15.495,21.75 15.166,21.75 14.747,21.75 L9.253,21.75 C8.834,21.75 8.505,21.75 8.186,21.674 C7.906,21.607 7.638,21.496 7.392,21.345 C7.112,21.174 6.879,20.941 6.584,20.644 L6.532,20.593 L3.407,17.468 L3.356,17.416 C3.059,17.121 2.826,16.888 2.655,16.608 C2.504,16.362 2.393,16.094 2.326,15.814 C2.25,15.495 2.25,15.166 2.25,14.747 L2.25,14.675 L2.25,9.325 L2.25,9.253 C2.25,8.834 2.25,8.505 2.326,8.186 C2.393,7.906 2.504,7.638 2.655,7.392 C2.826,7.112 3.059,6.879 3.356,6.584 L3.407,6.532 L6.532,3.407 L6.584,3.356 C6.879,3.059 7.112,2.826 7.392,2.655 C7.638,2.504 7.906,2.393 8.186,2.326 C8.505,2.25 8.834,2.25 9.253,2.25 Z M9,8.25 C8.586,8.25 8.25,8.586 8.25,9 L8.25,9.232 C8.25,10.045 8.25,10.701 8.293,11.231 C8.338,11.778 8.432,12.258 8.659,12.703 C9.018,13.408 9.592,13.982 10.297,14.341 C10.742,14.568 11.222,14.662 11.769,14.707 C12.299,14.75 12.955,14.75 13.768,14.75 L14.189,14.75 L13.47,15.47 C13.177,15.763 13.177,16.237 13.47,16.53 C13.763,16.823 14.237,16.823 14.53,16.53 L16.53,14.53 C16.823,14.237 16.823,13.763 16.53,13.47 L14.53,11.47 C14.237,11.177 13.763,11.177 13.47,11.47 C13.177,11.763 13.177,12.237 13.47,12.53 L14.189,13.25 L13.8,13.25 C12.948,13.25 12.353,13.249 11.891,13.212 C11.437,13.175 11.176,13.105 10.979,13.005 C10.555,12.789 10.211,12.445 9.995,12.021 C9.895,11.824 9.825,11.563 9.788,11.109 C9.751,10.647 9.75,10.052 9.75,9.2 L9.75,9 C9.75,8.586 9.414,8.25 9,8.25 Z"/>
</svg>

