<svg xmlns="http://www.w3.org/2000/svg" viewBox="0 0 24 24">
  <defs/>
  <path fill="#151E28" d="M9.325,2.25 L14.675,2.25 L14.747,2.25 C15.166,2.25 15.495,2.25 15.814,2.326 C16.094,2.393 16.362,2.504 16.608,2.655 C16.888,2.826 17.121,3.059 17.416,3.356 L17.468,3.407 L20.593,6.532 L20.644,6.584 C20.941,6.879 21.174,7.112 21.345,7.392 C21.496,7.638 21.607,7.906 21.674,8.186 C21.75,8.505 21.75,8.834 21.75,9.253 L21.75,14.747 C21.75,15.166 21.75,15.495 21.674,15.814 C21.607,16.094 21.496,16.362 21.345,16.608 C21.174,16.888 20.941,17.121 20.644,17.416 L17.468,20.593 L17.416,20.644 C17.121,20.941 16.888,21.174 16.608,21.345 C16.362,21.496 16.094,21.607 15.814,21.674 C15.495,21.75 15.166,21.75 14.747,21.75 L9.253,21.75 C8.834,21.75 8.505,21.75 8.186,21.674 C7.906,21.607 7.638,21.496 7.392,21.345 C7.112,21.174 6.879,20.941 6.584,20.644 L6.532,20.593 L3.407,17.468 L3.356,17.416 C3.059,17.121 2.826,16.888 2.655,16.608 C2.504,16.362 2.393,16.094 2.326,15.814 C2.25,15.495 2.25,15.166 2.25,14.747 L2.25,14.675 L2.25,9.325 L2.25,9.253 C2.25,8.834 2.25,8.505 2.326,8.186 C2.393,7.906 2.504,7.638 2.655,7.392 C2.826,7.112 3.059,6.879 3.356,6.584 L3.407,6.532 L6.532,3.407 L6.584,3.356 C6.879,3.059 7.112,2.826 7.392,2.655 C7.638,2.504 7.906,2.393 8.186,2.326 C8.505,2.25 8.834,2.25 9.253,2.25 Z M10.796,16.393 C11.471,17.032 12.529,17.032 13.204,16.393 L15.694,14.034 C16.842,12.946 16.072,11.013 14.49,11.013 L14.25,11.013 L14.25,8.5 C14.25,7.534 13.467,6.75 12.5,6.75 L11.5,6.75 C10.533,6.75 9.75,7.534 9.75,8.5 L9.75,11.013 L9.51,11.013 C7.928,11.013 7.158,12.946 8.306,14.034 Z M12.172,15.304 C12.075,15.395 11.925,15.395 11.828,15.304 L9.338,12.945 C9.174,12.789 9.284,12.513 9.51,12.513 L10.5,12.513 C10.914,12.513 11.25,12.177 11.25,11.763 L11.25,8.5 C11.25,8.362 11.362,8.25 11.5,8.25 L12.5,8.25 C12.638,8.25 12.75,8.362 12.75,8.5 L12.75,11.763 C12.75,12.177 13.086,12.513 13.5,12.513 L14.49,12.513 C14.716,12.513 14.826,12.789 14.662,12.945 Z"/>
</svg>

