<svg xmlns="http://www.w3.org/2000/svg" viewBox="0 0 24 24">
  <defs/>
  <path fill="#151E28" d="M12,1.25 C17.937,1.25 22.75,6.063 22.75,12 C22.75,17.937 17.937,22.75 12,22.75 C6.063,22.75 1.25,17.937 1.25,12 C1.25,6.063 6.063,1.25 12,1.25 Z M17,11.25 L12.811,11.25 L14.53,9.53 C14.823,9.237 14.823,8.763 14.53,8.47 C14.238,8.177 13.763,8.177 13.47,8.47 L10.47,11.47 C10.329,11.61 10.25,11.801 10.25,12 C10.25,12.199 10.329,12.39 10.47,12.53 L13.47,15.53 C13.763,15.823 14.238,15.823 14.53,15.53 C14.823,15.237 14.823,14.763 14.53,14.47 L12.811,12.75 L17,12.75 C17.414,12.75 17.75,12.414 17.75,12 C17.75,11.586 17.414,11.25 17,11.25 Z M7.25,15 C7.25,15.414 7.586,15.75 8,15.75 C8.414,15.75 8.75,15.414 8.75,15 L8.75,9 C8.75,8.586 8.414,8.25 8,8.25 C7.586,8.25 7.25,8.586 7.25,9 Z"/>
</svg>

