<svg xmlns="http://www.w3.org/2000/svg" viewBox="0 0 24 24">
  <defs/>
  <path fill="#151E28" d="M4.25,18 L4.25,7.272 C4.25,5.713 6.135,4.932 7.237,6.035 L9.95,8.747 L15.076,3.62 C15.76,2.937 16.868,2.937 17.551,3.62 L20.38,6.449 C21.063,7.132 21.063,8.24 20.38,8.924 L15.253,14.05 L17.965,16.763 C19.068,17.865 18.287,19.75 16.728,19.75 L6,19.75 C5.034,19.75 4.25,18.966 4.25,18 Z M6,18.25 L16.728,18.25 C16.951,18.25 17.062,17.981 16.905,17.823 L13.662,14.581 C13.369,14.288 13.369,13.813 13.662,13.52 L19.319,7.863 C19.417,7.765 19.417,7.607 19.319,7.51 L16.49,4.681 C16.393,4.583 16.235,4.583 16.137,4.681 L10.48,10.338 C10.187,10.631 9.712,10.631 9.419,10.338 L6.177,7.095 C6.019,6.938 5.75,7.049 5.75,7.272 L5.75,18 C5.75,18.138 5.862,18.25 6,18.25 Z"/>
</svg>

