<svg xmlns="http://www.w3.org/2000/svg" viewBox="0 0 24 24">
  <defs/>
  <path fill="#151E28" d="M12,1.25 C17.937,1.25 22.75,6.063 22.75,12 C22.75,17.937 17.937,22.75 12,22.75 C6.063,22.75 1.25,17.937 1.25,12 C1.25,6.063 6.063,1.25 12,1.25 Z M10.796,7.607 L8.306,9.966 C7.158,11.054 7.928,12.987 9.51,12.987 L9.75,12.987 L9.75,15.5 C9.75,16.466 10.533,17.25 11.5,17.25 L12.5,17.25 C13.467,17.25 14.25,16.466 14.25,15.5 L14.25,12.987 L14.49,12.987 C16.072,12.987 16.842,11.054 15.694,9.966 L13.204,7.607 C12.529,6.968 11.471,6.968 10.796,7.607 Z M11.828,8.696 C11.925,8.605 12.075,8.605 12.172,8.696 L14.662,11.055 C14.826,11.211 14.716,11.487 14.49,11.487 L13.5,11.487 C13.086,11.487 12.75,11.823 12.75,12.237 L12.75,15.5 C12.75,15.638 12.638,15.75 12.5,15.75 L11.5,15.75 C11.362,15.75 11.25,15.638 11.25,15.5 L11.25,12.237 C11.25,11.823 10.914,11.487 10.5,11.487 L9.51,11.487 C9.284,11.487 9.174,11.211 9.338,11.055 Z"/>
</svg>

