<svg xmlns="http://www.w3.org/2000/svg" viewBox="0 0 24 24">
  <defs/>
  <path fill="#151E28" d="M9.367,2.25 L14.633,2.25 C15.725,2.25 16.591,2.25 17.288,2.307 C18.002,2.365 18.605,2.487 19.156,2.768 C20.05,3.223 20.777,3.95 21.232,4.844 C21.513,5.395 21.635,5.998 21.693,6.712 C21.75,7.409 21.75,8.275 21.75,9.367 L21.75,14.633 C21.75,15.725 21.75,16.591 21.693,17.288 C21.635,18.002 21.513,18.605 21.232,19.156 C20.777,20.05 20.05,20.777 19.156,21.232 C18.605,21.513 18.002,21.635 17.288,21.693 C16.591,21.75 15.725,21.75 14.633,21.75 L9.367,21.75 C8.275,21.75 7.409,21.75 6.712,21.693 C5.998,21.635 5.395,21.513 4.844,21.232 C3.95,20.777 3.223,20.05 2.768,19.156 C2.487,18.605 2.365,18.002 2.307,17.288 C2.25,16.591 2.25,15.725 2.25,14.633 L2.25,9.367 C2.25,8.275 2.25,7.409 2.307,6.712 C2.365,5.998 2.487,5.395 2.768,4.844 C3.223,3.95 3.95,3.223 4.844,2.768 C5.395,2.487 5.998,2.365 6.712,2.307 C7.409,2.25 8.275,2.25 9.367,2.25 Z M6.49,15.55 C6.794,15.832 7.269,15.814 7.55,15.51 L9.773,13.11 C10.075,12.783 10.592,12.783 10.894,13.11 C11.79,14.077 13.321,14.077 14.217,13.11 L16.25,10.914 L16.25,12.6 C16.25,13.014 16.586,13.35 17,13.35 C17.414,13.35 17.75,13.014 17.75,12.6 L17.75,9 C17.75,8.586 17.414,8.25 17,8.25 L13.667,8.25 C13.252,8.25 12.917,8.586 12.917,9 C12.917,9.414 13.252,9.75 13.667,9.75 L15.283,9.75 L13.116,12.09 C12.814,12.417 12.297,12.417 11.995,12.09 C11.099,11.123 9.568,11.123 8.672,12.09 L6.45,14.49 C6.168,14.794 6.187,15.269 6.49,15.55 Z"/>
</svg>

