<svg xmlns="http://www.w3.org/2000/svg" viewBox="0 0 24 24">
  <defs/>
  <path fill="#151E28" d="M9.367,2.25 L14.633,2.25 C15.725,2.25 16.591,2.25 17.288,2.307 C18.002,2.365 18.605,2.487 19.156,2.768 C20.05,3.223 20.777,3.95 21.232,4.844 C21.513,5.395 21.635,5.998 21.693,6.712 C21.75,7.409 21.75,8.275 21.75,9.367 L21.75,14.633 C21.75,15.725 21.75,16.591 21.693,17.288 C21.635,18.002 21.513,18.605 21.232,19.156 C20.777,20.05 20.05,20.777 19.156,21.232 C18.605,21.513 18.002,21.635 17.288,21.693 C16.591,21.75 15.725,21.75 14.633,21.75 L9.367,21.75 C8.275,21.75 7.409,21.75 6.712,21.693 C5.998,21.635 5.395,21.513 4.844,21.232 C3.95,20.777 3.223,20.05 2.768,19.156 C2.487,18.605 2.365,18.002 2.307,17.288 C2.25,16.591 2.25,15.725 2.25,14.633 L2.25,9.367 C2.25,8.275 2.25,7.409 2.307,6.712 C2.365,5.998 2.487,5.395 2.768,4.844 C3.223,3.95 3.95,3.223 4.844,2.768 C5.395,2.487 5.998,2.365 6.712,2.307 C7.409,2.25 8.275,2.25 9.367,2.25 Z M10.796,7.607 L8.306,9.966 C7.158,11.054 7.928,12.987 9.51,12.987 L9.75,12.987 L9.75,15.5 C9.75,16.466 10.533,17.25 11.5,17.25 L12.5,17.25 C13.467,17.25 14.25,16.466 14.25,15.5 L14.25,12.987 L14.49,12.987 C16.072,12.987 16.842,11.054 15.694,9.966 L13.204,7.607 C12.529,6.968 11.471,6.968 10.796,7.607 Z M12.172,8.696 L14.662,11.055 C14.826,11.211 14.716,11.487 14.49,11.487 L13.5,11.487 C13.086,11.487 12.75,11.823 12.75,12.237 L12.75,15.5 C12.75,15.638 12.638,15.75 12.5,15.75 L11.5,15.75 C11.362,15.75 11.25,15.638 11.25,15.5 L11.25,12.237 C11.25,11.823 10.914,11.487 10.5,11.487 L9.51,11.487 C9.284,11.487 9.174,11.211 9.338,11.055 L11.828,8.696 C11.925,8.605 12.075,8.605 12.172,8.696 Z"/>
</svg>

