<svg xmlns="http://www.w3.org/2000/svg" viewBox="0 0 24 24">
  <defs/>
  <path fill="#151E28" d="M9.367,2.25 L14.633,2.25 C15.725,2.25 16.591,2.25 17.288,2.307 C18.002,2.365 18.605,2.487 19.156,2.768 C20.05,3.223 20.777,3.95 21.232,4.844 C21.513,5.395 21.635,5.998 21.693,6.712 C21.75,7.409 21.75,8.275 21.75,9.367 L21.75,14.633 C21.75,15.725 21.75,16.591 21.693,17.288 C21.635,18.002 21.513,18.605 21.232,19.156 C20.777,20.05 20.05,20.777 19.156,21.232 C18.605,21.513 18.002,21.635 17.288,21.693 C16.591,21.75 15.725,21.75 14.633,21.75 L9.367,21.75 C8.275,21.75 7.409,21.75 6.712,21.693 C5.998,21.635 5.395,21.513 4.844,21.232 C3.95,20.777 3.223,20.05 2.768,19.156 C2.487,18.605 2.365,18.002 2.307,17.288 C2.25,16.591 2.25,15.725 2.25,14.633 L2.25,9.367 C2.25,8.275 2.25,7.409 2.307,6.712 C2.365,5.998 2.487,5.395 2.768,4.844 C3.223,3.95 3.95,3.223 4.844,2.768 C5.395,2.487 5.998,2.365 6.712,2.307 C7.409,2.25 8.275,2.25 9.367,2.25 Z M10.111,7.25 L10.095,7.25 C10.007,7.25 9.94,7.25 9.88,7.253 C8.456,7.315 7.315,8.456 7.253,9.88 C7.25,9.94 7.25,10.007 7.25,10.095 L7.25,12.831 C7.25,13.365 7.25,13.81 7.28,14.175 C7.311,14.555 7.378,14.911 7.55,15.248 C7.813,15.766 8.234,16.187 8.752,16.45 C9.089,16.622 9.445,16.689 9.825,16.72 C10.189,16.75 10.635,16.75 11.17,16.75 L13.905,16.75 C13.993,16.75 14.06,16.75 14.12,16.747 C15.545,16.685 16.685,15.545 16.747,14.12 C16.75,14.06 16.75,13.993 16.75,13.905 L16.75,13.889 C16.75,13.475 16.414,13.139 16,13.139 C15.586,13.139 15.25,13.475 15.25,13.889 C15.25,14 15.25,14.031 15.249,14.054 C15.22,14.702 14.702,15.22 14.054,15.249 C14.031,15.25 14,15.25 13.889,15.25 L11.2,15.25 C10.628,15.25 10.243,15.249 9.947,15.225 C9.66,15.202 9.523,15.16 9.433,15.114 C9.197,14.994 9.006,14.803 8.886,14.568 C8.84,14.477 8.798,14.34 8.775,14.052 C8.751,13.757 8.75,13.372 8.75,12.8 L8.75,10.111 C8.75,10 8.75,9.969 8.751,9.945 C8.779,9.298 9.298,8.779 9.945,8.751 C9.969,8.75 10,8.75 10.111,8.75 C10.525,8.75 10.861,8.414 10.861,8 C10.861,7.586 10.525,7.25 10.111,7.25 Z M12.85,8 C12.85,8.414 13.186,8.75 13.6,8.75 L14.189,8.75 L11.47,11.47 C11.177,11.763 11.177,12.238 11.47,12.53 C11.763,12.823 12.237,12.823 12.53,12.53 L15.25,9.811 L15.25,10.4 C15.25,10.814 15.586,11.15 16,11.15 C16.414,11.15 16.75,10.814 16.75,10.4 L16.75,8 C16.75,7.586 16.414,7.25 16,7.25 L13.6,7.25 C13.186,7.25 12.85,7.586 12.85,8 Z"/>
</svg>

