<svg xmlns="http://www.w3.org/2000/svg" viewBox="0 0 24 24">
  <defs/>
  <path fill="#151E28" d="M9.367,2.25 L14.633,2.25 C15.725,2.25 16.591,2.25 17.288,2.307 C18.002,2.365 18.605,2.487 19.156,2.768 C20.05,3.223 20.777,3.95 21.232,4.844 C21.513,5.395 21.635,5.998 21.693,6.712 C21.75,7.409 21.75,8.275 21.75,9.367 L21.75,14.633 C21.75,15.725 21.75,16.591 21.693,17.288 C21.635,18.002 21.513,18.605 21.232,19.156 C20.777,20.05 20.05,20.777 19.156,21.232 C18.605,21.513 18.002,21.635 17.288,21.693 C16.591,21.75 15.725,21.75 14.633,21.75 L9.367,21.75 C8.275,21.75 7.409,21.75 6.712,21.693 C5.998,21.635 5.395,21.513 4.844,21.232 C3.95,20.777 3.223,20.05 2.768,19.156 C2.487,18.605 2.365,18.002 2.307,17.288 C2.25,16.591 2.25,15.725 2.25,14.633 L2.25,9.367 C2.25,8.275 2.25,7.409 2.307,6.712 C2.365,5.998 2.487,5.395 2.768,4.844 C3.223,3.95 3.95,3.223 4.844,2.768 C5.395,2.487 5.998,2.365 6.712,2.307 C7.409,2.25 8.275,2.25 9.367,2.25 Z M5.25,12 C5.25,12.415 5.586,12.75 6,12.75 L8.189,12.75 L7.47,13.47 C7.177,13.763 7.177,14.238 7.47,14.531 C7.763,14.824 8.237,14.824 8.53,14.531 L10.53,12.531 C10.823,12.238 10.823,11.763 10.53,11.47 L8.53,9.47 C8.237,9.177 7.763,9.177 7.47,9.47 C7.177,9.763 7.177,10.238 7.47,10.531 L8.189,11.25 L6,11.25 C5.586,11.25 5.25,11.586 5.25,12 Z M18.75,12 C18.75,11.586 18.414,11.25 18,11.25 L15.811,11.25 L16.53,10.531 C16.823,10.238 16.823,9.763 16.53,9.47 C16.237,9.177 15.763,9.177 15.47,9.47 L13.47,11.47 C13.177,11.763 13.177,12.238 13.47,12.531 L15.47,14.531 C15.763,14.824 16.237,14.824 16.53,14.531 C16.823,14.238 16.823,13.763 16.53,13.47 L15.811,12.75 L18,12.75 C18.414,12.75 18.75,12.415 18.75,12 Z M11.25,8 L11.25,16 C11.25,16.414 11.586,16.75 12,16.75 C12.414,16.75 12.75,16.414 12.75,16 L12.75,8 C12.75,7.586 12.414,7.25 12,7.25 C11.586,7.25 11.25,7.586 11.25,8 Z"/>
</svg>

