<svg xmlns="http://www.w3.org/2000/svg" viewBox="0 0 24 24">
  <defs/>
  <path fill="#151E28" d="M9.367,2.25 L14.633,2.25 C15.725,2.25 16.591,2.25 17.288,2.307 C18.002,2.365 18.605,2.487 19.156,2.768 C20.05,3.223 20.777,3.95 21.232,4.844 C21.513,5.395 21.635,5.998 21.693,6.712 C21.75,7.409 21.75,8.275 21.75,9.367 L21.75,14.633 C21.75,15.725 21.75,16.591 21.693,17.288 C21.635,18.002 21.513,18.605 21.232,19.156 C20.777,20.05 20.05,20.777 19.156,21.232 C18.605,21.513 18.002,21.635 17.288,21.693 C16.591,21.75 15.725,21.75 14.633,21.75 L9.367,21.75 C8.275,21.75 7.409,21.75 6.712,21.693 C5.998,21.635 5.395,21.513 4.844,21.232 C3.95,20.777 3.223,20.05 2.768,19.156 C2.487,18.605 2.365,18.002 2.307,17.288 C2.25,16.591 2.25,15.725 2.25,14.633 L2.25,9.367 C2.25,8.275 2.25,7.409 2.307,6.712 C2.365,5.998 2.487,5.395 2.768,4.844 C3.223,3.95 3.95,3.223 4.844,2.768 C5.395,2.487 5.998,2.365 6.712,2.307 C7.409,2.25 8.275,2.25 9.367,2.25 Z M10.796,16.393 C11.471,17.032 12.529,17.032 13.204,16.393 L15.694,14.034 C16.842,12.946 16.072,11.013 14.49,11.013 L14.25,11.013 L14.25,8.5 C14.25,7.534 13.467,6.75 12.5,6.75 L11.5,6.75 C10.533,6.75 9.75,7.534 9.75,8.5 L9.75,11.013 L9.51,11.013 C7.928,11.013 7.158,12.946 8.306,14.034 Z M12.172,15.304 C12.075,15.395 11.925,15.395 11.828,15.304 L9.338,12.945 C9.174,12.789 9.284,12.513 9.51,12.513 L10.5,12.513 C10.914,12.513 11.25,12.177 11.25,11.763 L11.25,8.5 C11.25,8.362 11.362,8.25 11.5,8.25 L12.5,8.25 C12.638,8.25 12.75,8.362 12.75,8.5 L12.75,11.763 C12.75,12.177 13.086,12.513 13.5,12.513 L14.49,12.513 C14.716,12.513 14.826,12.789 14.662,12.945 Z"/>
</svg>

