<svg xmlns="http://www.w3.org/2000/svg" viewBox="0 0 24 24">
  <defs/>
  <path fill="#151E28" d="M12,1.25 C17.937,1.25 22.75,6.063 22.75,12 C22.75,17.937 17.937,22.75 12,22.75 C6.063,22.75 1.25,17.937 1.25,12 C1.25,6.063 6.063,1.25 12,1.25 Z M10.308,7.47 C10.015,7.177 9.54,7.177 9.247,7.47 L7.47,9.247 C7.177,9.54 7.177,10.015 7.47,10.308 L9.247,12.086 C9.54,12.379 10.015,12.379 10.308,12.086 C10.601,11.793 10.601,11.318 10.308,11.025 L9.811,10.528 L14.222,10.528 C14.636,10.528 14.972,10.192 14.972,9.778 C14.972,9.364 14.636,9.028 14.222,9.028 L9.811,9.028 L10.308,8.53 C10.601,8.237 10.601,7.763 10.308,7.47 Z M13.692,11.914 C13.399,12.207 13.399,12.682 13.692,12.975 L14.189,13.472 L9.778,13.472 C9.364,13.472 9.028,13.808 9.028,14.222 C9.028,14.636 9.364,14.972 9.778,14.972 L14.189,14.972 L13.692,15.47 C13.399,15.763 13.399,16.237 13.692,16.53 C13.985,16.823 14.46,16.823 14.753,16.53 L16.53,14.753 C16.823,14.46 16.823,13.985 16.53,13.692 L14.753,11.914 C14.46,11.621 13.985,11.621 13.692,11.914 Z"/>
</svg>

