<svg xmlns="http://www.w3.org/2000/svg" viewBox="0 0 24 24">
  <defs/>
  <path fill="#151E28" d="M13.117,2.479 C13.602,2.695 13.961,3.093 14.285,3.55 C14.606,4.004 14.961,4.617 15.399,5.375 L15.418,5.408 L20.868,14.821 L20.887,14.854 C21.327,15.614 21.684,16.229 21.918,16.736 C22.154,17.245 22.321,17.756 22.266,18.285 C22.185,19.061 21.779,19.766 21.148,20.224 C20.718,20.537 20.192,20.648 19.633,20.699 C19.077,20.75 18.366,20.75 17.488,20.75 L6.512,20.75 C5.634,20.75 4.923,20.75 4.367,20.699 C3.808,20.648 3.282,20.537 2.852,20.224 C2.221,19.766 1.815,19.061 1.734,18.285 C1.679,17.756 1.846,17.245 2.082,16.736 C2.316,16.229 2.673,15.614 3.113,14.854 L3.132,14.821 L8.582,5.408 L8.601,5.375 C9.039,4.618 9.394,4.004 9.715,3.55 C10.039,3.093 10.398,2.695 10.883,2.479 C11.594,2.163 12.406,2.163 13.117,2.479 Z M9.227,14.773 C9.52,15.066 9.995,15.066 10.288,14.773 L13.25,11.811 L13.25,14.243 C13.25,14.657 13.586,14.993 14,14.993 C14.414,14.993 14.75,14.657 14.75,14.243 L14.75,10 C14.75,9.801 14.671,9.61 14.53,9.47 C14.39,9.329 14.199,9.25 14,9.25 L9.757,9.25 C9.343,9.25 9.007,9.586 9.007,10 C9.007,10.414 9.343,10.75 9.757,10.75 L12.189,10.75 L9.227,13.712 C8.934,14.005 8.934,14.48 9.227,14.773 Z M9,17.75 L15,17.75 C15.414,17.75 15.75,17.414 15.75,17 C15.75,16.586 15.414,16.25 15,16.25 L9,16.25 C8.586,16.25 8.25,16.586 8.25,17 C8.25,17.414 8.586,17.75 9,17.75 Z"/>
</svg>

