<svg xmlns="http://www.w3.org/2000/svg" viewBox="0 0 24 24">
  <defs/>
  <path fill="#151E28" d="M13.117,2.479 C13.602,2.695 13.961,3.093 14.285,3.55 C14.606,4.004 14.961,4.617 15.399,5.375 L15.399,5.375 L15.418,5.408 L20.868,14.821 L20.887,14.854 C21.327,15.614 21.684,16.229 21.918,16.736 C22.154,17.245 22.321,17.756 22.266,18.285 C22.185,19.061 21.779,19.766 21.148,20.224 C20.718,20.537 20.192,20.648 19.633,20.699 C19.077,20.75 18.366,20.75 17.488,20.75 L6.512,20.75 C5.634,20.75 4.923,20.75 4.367,20.699 C3.808,20.648 3.282,20.537 2.852,20.224 C2.221,19.766 1.815,19.061 1.734,18.285 C1.679,17.756 1.846,17.245 2.082,16.736 C2.316,16.229 2.673,15.614 3.113,14.854 L3.132,14.821 L8.582,5.408 L8.601,5.375 C9.039,4.618 9.394,4.004 9.715,3.55 C10.039,3.093 10.398,2.695 10.883,2.479 C11.594,2.163 12.406,2.163 13.117,2.479 Z M8.52,17.576 C8.838,17.841 9.311,17.798 9.576,17.48 L10.91,15.88 C10.957,15.824 11.043,15.824 11.09,15.88 C11.737,16.656 12.929,16.656 13.576,15.88 L14.25,15.071 L14.25,15.4 C14.25,15.814 14.586,16.15 15,16.15 C15.414,16.15 15.75,15.814 15.75,15.4 L15.75,13 C15.75,12.586 15.414,12.25 15,12.25 L13,12.25 C12.586,12.25 12.25,12.586 12.25,13 C12.25,13.414 12.586,13.75 13,13.75 L13.399,13.75 L12.424,14.92 C12.377,14.976 12.29,14.976 12.243,14.92 C11.596,14.144 10.404,14.144 9.757,14.92 L8.424,16.52 C8.159,16.838 8.202,17.311 8.52,17.576 Z"/>
</svg>

