<svg xmlns="http://www.w3.org/2000/svg" viewBox="0 0 24 24">
  <defs/>
  <path fill="#151E28" d="M9.325,2.25 L14.675,2.25 L14.747,2.25 C15.166,2.25 15.495,2.25 15.814,2.326 C16.094,2.393 16.362,2.504 16.608,2.655 C16.888,2.826 17.121,3.059 17.416,3.356 L17.468,3.407 L20.593,6.532 L20.644,6.584 C20.941,6.879 21.174,7.112 21.345,7.392 C21.496,7.638 21.607,7.906 21.674,8.186 C21.75,8.505 21.75,8.834 21.75,9.253 L21.75,14.747 C21.75,15.166 21.75,15.495 21.674,15.814 C21.607,16.094 21.496,16.362 21.345,16.608 C21.174,16.888 20.941,17.121 20.644,17.416 L17.468,20.593 L17.416,20.644 C17.121,20.941 16.888,21.174 16.608,21.345 C16.362,21.496 16.094,21.607 15.814,21.674 C15.495,21.75 15.166,21.75 14.747,21.75 L9.253,21.75 C8.834,21.75 8.505,21.75 8.186,21.674 C7.906,21.607 7.638,21.496 7.392,21.345 C7.112,21.174 6.879,20.941 6.584,20.644 L6.532,20.593 L3.407,17.468 L3.356,17.416 C3.059,17.121 2.826,16.888 2.655,16.608 C2.504,16.362 2.393,16.094 2.326,15.814 C2.25,15.495 2.25,15.166 2.25,14.747 L2.25,14.675 L2.25,9.325 L2.25,9.253 C2.25,8.834 2.25,8.505 2.326,8.186 C2.393,7.906 2.504,7.638 2.655,7.392 C2.826,7.112 3.059,6.879 3.356,6.584 L3.407,6.532 L6.532,3.407 L6.584,3.356 C6.879,3.059 7.112,2.826 7.392,2.655 C7.638,2.504 7.906,2.393 8.186,2.326 C8.505,2.25 8.834,2.25 9.253,2.25 Z M15.75,15 C15.75,14.586 15.414,14.25 15,14.25 L14.8,14.25 C13.948,14.25 13.353,14.249 12.891,14.212 C12.437,14.175 12.176,14.105 11.979,14.005 C11.555,13.789 11.211,13.445 10.995,13.021 C10.895,12.824 10.825,12.563 10.788,12.109 C10.751,11.647 10.75,11.052 10.75,10.2 L10.75,9.811 L11.47,10.53 C11.763,10.823 12.237,10.823 12.53,10.53 C12.823,10.237 12.823,9.763 12.53,9.47 L10.53,7.47 C10.237,7.177 9.763,7.177 9.47,7.47 L7.47,9.47 C7.177,9.763 7.177,10.237 7.47,10.53 C7.763,10.823 8.237,10.823 8.53,10.53 L9.25,9.811 L9.25,10.232 C9.25,11.045 9.25,11.701 9.293,12.231 C9.338,12.778 9.432,13.258 9.659,13.703 C10.018,14.408 10.592,14.982 11.297,15.341 C11.742,15.568 12.222,15.662 12.769,15.707 C13.299,15.75 13.955,15.75 14.768,15.75 L15,15.75 C15.414,15.75 15.75,15.414 15.75,15 Z"/>
</svg>

