<svg xmlns="http://www.w3.org/2000/svg" viewBox="0 0 24 24">
  <defs/>
  <path fill="#151E28" d="M12,1.25 C17.937,1.25 22.75,6.063 22.75,12 C22.75,17.937 17.937,22.75 12,22.75 C6.063,22.75 1.25,17.937 1.25,12 C1.25,6.063 6.063,1.25 12,1.25 Z M16.53,10.53 C16.823,10.237 16.823,9.763 16.53,9.47 L14.53,7.47 C14.237,7.177 13.763,7.177 13.47,7.47 L11.47,9.47 C11.177,9.763 11.177,10.237 11.47,10.53 C11.763,10.823 12.237,10.823 12.53,10.53 L13.25,9.811 L13.25,13 C13.25,14.243 12.243,15.25 11,15.25 C9.757,15.25 8.75,14.243 8.75,13 L8.75,11 C8.75,10.586 8.414,10.25 8,10.25 C7.586,10.25 7.25,10.586 7.25,11 L7.25,13 C7.25,15.071 8.929,16.75 11,16.75 C13.071,16.75 14.75,15.071 14.75,13 L14.75,9.811 L15.47,10.53 C15.763,10.823 16.237,10.823 16.53,10.53 Z"/>
</svg>

