<svg xmlns="http://www.w3.org/2000/svg" viewBox="0 0 24 24">
  <defs/>
  <path fill="#151E28" d="M9.367,2.25 L14.633,2.25 C15.725,2.25 16.591,2.25 17.288,2.307 C18.002,2.365 18.605,2.487 19.156,2.768 C20.05,3.223 20.777,3.95 21.232,4.844 C21.513,5.395 21.635,5.998 21.693,6.712 C21.75,7.409 21.75,8.275 21.75,9.367 L21.75,14.633 C21.75,15.725 21.75,16.591 21.693,17.288 C21.635,18.002 21.513,18.605 21.232,19.156 C20.777,20.05 20.05,20.777 19.156,21.232 C18.605,21.513 18.002,21.635 17.288,21.693 C16.591,21.75 15.725,21.75 14.633,21.75 L9.367,21.75 C8.275,21.75 7.409,21.75 6.712,21.693 C5.998,21.635 5.395,21.513 4.844,21.232 C3.95,20.777 3.223,20.05 2.768,19.156 C2.487,18.605 2.365,18.002 2.307,17.288 C2.25,16.591 2.25,15.725 2.25,14.633 L2.25,9.367 C2.25,8.275 2.25,7.409 2.307,6.712 C2.365,5.998 2.487,5.395 2.768,4.844 C3.223,3.95 3.95,3.223 4.844,2.768 C5.395,2.487 5.998,2.365 6.712,2.307 C7.409,2.25 8.275,2.25 9.367,2.25 Z M10.308,7.47 C10.015,7.177 9.54,7.177 9.247,7.47 L7.47,9.247 C7.177,9.54 7.177,10.015 7.47,10.308 L9.247,12.086 C9.54,12.379 10.015,12.379 10.308,12.086 C10.601,11.793 10.601,11.318 10.308,11.025 L9.811,10.528 L14.222,10.528 C14.636,10.528 14.972,10.192 14.972,9.778 C14.972,9.364 14.636,9.028 14.222,9.028 L9.811,9.028 L10.308,8.53 C10.601,8.237 10.601,7.763 10.308,7.47 Z M13.692,11.914 C13.399,12.207 13.399,12.682 13.692,12.975 L14.189,13.472 L9.778,13.472 C9.364,13.472 9.028,13.808 9.028,14.222 C9.028,14.636 9.364,14.972 9.778,14.972 L14.189,14.972 L13.692,15.47 C13.399,15.763 13.399,16.237 13.692,16.53 C13.985,16.823 14.46,16.823 14.753,16.53 L16.53,14.753 C16.823,14.46 16.823,13.985 16.53,13.692 L14.753,11.914 C14.46,11.621 13.985,11.621 13.692,11.914 Z"/>
</svg>

