<svg xmlns="http://www.w3.org/2000/svg" viewBox="0 0 24 24">
  <defs/>
  <path fill="#151E28" d="M9.367,2.25 L14.633,2.25 C15.725,2.25 16.591,2.25 17.288,2.307 C18.002,2.365 18.605,2.487 19.156,2.768 C20.05,3.223 20.777,3.95 21.232,4.844 C21.513,5.395 21.635,5.998 21.693,6.712 C21.75,7.409 21.75,8.275 21.75,9.367 L21.75,14.633 C21.75,15.725 21.75,16.591 21.693,17.288 C21.635,18.002 21.513,18.605 21.232,19.156 C20.777,20.05 20.05,20.777 19.156,21.232 C18.605,21.513 18.002,21.635 17.288,21.693 C16.591,21.75 15.725,21.75 14.633,21.75 L9.367,21.75 C8.275,21.75 7.409,21.75 6.712,21.693 C5.998,21.635 5.395,21.513 4.844,21.232 C3.95,20.777 3.223,20.05 2.768,19.156 C2.487,18.605 2.365,18.002 2.307,17.288 C2.25,16.591 2.25,15.725 2.25,14.633 L2.25,9.367 C2.25,8.275 2.25,7.409 2.307,6.712 C2.365,5.998 2.487,5.395 2.768,4.844 C3.223,3.95 3.95,3.223 4.844,2.768 C5.395,2.487 5.998,2.365 6.712,2.307 C7.409,2.25 8.275,2.25 9.367,2.25 Z M14.755,15.958 C15.685,15.932 16.432,15.185 16.457,14.255 L16.55,10.826 C16.593,9.245 14.682,8.423 13.563,9.541 L13.393,9.711 L11.616,7.934 C10.933,7.251 9.825,7.251 9.141,7.934 L8.434,8.642 C7.751,9.325 7.751,10.433 8.434,11.116 L10.211,12.893 L10.041,13.063 C8.923,14.182 9.745,16.093 11.326,16.05 Z M14.958,14.215 C14.954,14.348 14.847,14.455 14.715,14.458 L11.285,14.551 C11.059,14.557 10.942,14.284 11.102,14.124 L11.802,13.424 C12.095,13.131 12.095,12.656 11.802,12.363 L9.495,10.056 C9.397,9.958 9.397,9.8 9.495,9.702 L10.202,8.995 C10.3,8.897 10.458,8.897 10.556,8.995 L12.863,11.302 C13.156,11.595 13.631,11.595 13.924,11.302 L14.624,10.602 C14.784,10.442 15.057,10.56 15.051,10.786 Z"/>
</svg>

