<svg xmlns="http://www.w3.org/2000/svg" viewBox="0 0 24 24">
  <defs/>
  <path fill="#151E28" d="M13.117,2.479 C13.602,2.695 13.961,3.093 14.285,3.55 C14.606,4.004 14.961,4.617 15.399,5.375 L15.399,5.375 L15.418,5.408 L20.868,14.821 L20.887,14.854 C21.327,15.614 21.684,16.229 21.918,16.736 C22.154,17.245 22.321,17.756 22.266,18.285 C22.185,19.061 21.779,19.766 21.148,20.224 C20.718,20.537 20.192,20.648 19.633,20.699 C19.077,20.75 18.366,20.75 17.488,20.75 L6.512,20.75 C5.634,20.75 4.923,20.75 4.367,20.699 C3.808,20.648 3.282,20.537 2.852,20.224 C2.221,19.766 1.815,19.061 1.734,18.285 C1.679,17.756 1.846,17.245 2.082,16.736 C2.316,16.229 2.673,15.614 3.113,14.854 L3.132,14.821 L8.582,5.408 L8.601,5.375 C9.039,4.618 9.394,4.004 9.715,3.55 C10.039,3.093 10.398,2.695 10.883,2.479 C11.594,2.163 12.406,2.163 13.117,2.479 Z M10.805,11.745 C11.177,11.7 11.464,11.383 11.464,11 C11.464,10.586 11.128,10.25 10.714,10.25 L9,10.25 C8.586,10.25 8.25,10.586 8.25,11 L8.25,12.714 C8.25,13.128 8.586,13.464 9,13.464 C9.383,13.464 9.7,13.177 9.745,12.805 L10.613,13.673 C10.905,13.966 11.38,13.966 11.673,13.673 C11.966,13.38 11.966,12.905 11.673,12.613 Z M11.673,14.327 C11.38,14.034 10.905,14.034 10.613,14.327 L9.745,15.195 C9.7,14.823 9.383,14.536 9,14.536 C8.586,14.536 8.25,14.872 8.25,15.286 L8.25,17 C8.25,17.414 8.586,17.75 9,17.75 L10.714,17.75 C11.128,17.75 11.464,17.414 11.464,17 C11.464,16.617 11.177,16.3 10.805,16.255 L11.673,15.387 C11.966,15.095 11.966,14.62 11.673,14.327 Z M15.75,11 C15.75,10.586 15.414,10.25 15,10.25 L13.286,10.25 C12.872,10.25 12.536,10.586 12.536,11 C12.536,11.383 12.823,11.7 13.195,11.745 L12.327,12.613 C12.034,12.905 12.034,13.38 12.327,13.673 C12.62,13.966 13.095,13.966 13.387,13.673 L14.255,12.805 C14.3,13.177 14.616,13.464 15,13.464 C15.414,13.464 15.75,13.128 15.75,12.714 Z M12.327,14.327 C12.034,14.62 12.034,15.095 12.327,15.387 L13.195,16.255 C12.823,16.3 12.536,16.617 12.536,17 C12.536,17.414 12.872,17.75 13.286,17.75 L15,17.75 C15.414,17.75 15.75,17.414 15.75,17 L15.75,15.286 C15.75,14.872 15.414,14.536 15,14.536 C14.616,14.536 14.3,14.823 14.255,15.195 L13.387,14.327 C13.095,14.034 12.62,14.034 12.327,14.327 Z"/>
</svg>

