<svg xmlns="http://www.w3.org/2000/svg" viewBox="0 0 24 24">
  <defs/>
  <path fill="#151E28" d="M13.117,2.479 C13.602,2.695 13.961,3.093 14.285,3.55 C14.606,4.004 14.961,4.617 15.399,5.375 L15.399,5.375 L15.418,5.408 L20.868,14.821 L20.887,14.854 C21.327,15.614 21.684,16.229 21.918,16.736 C22.154,17.245 22.321,17.756 22.266,18.285 C22.185,19.061 21.779,19.766 21.148,20.224 C20.718,20.537 20.192,20.648 19.633,20.699 C19.077,20.75 18.366,20.75 17.488,20.75 L6.512,20.75 C5.634,20.75 4.923,20.75 4.367,20.699 C3.808,20.648 3.282,20.537 2.852,20.224 C2.221,19.766 1.815,19.061 1.734,18.285 C1.679,17.756 1.846,17.245 2.082,16.736 C2.316,16.229 2.673,15.614 3.113,14.854 L3.132,14.821 L8.582,5.408 L8.601,5.375 C9.039,4.618 9.394,4.004 9.715,3.55 C10.039,3.093 10.398,2.695 10.883,2.479 C11.594,2.163 12.406,2.163 13.117,2.479 Z M14,9.25 L10.523,9.25 C8.938,9.25 8.17,11.189 9.325,12.275 L9.437,12.381 L9.091,12.727 C8.408,13.41 8.408,14.519 9.091,15.202 L9.798,15.909 C10.481,16.593 11.59,16.593 12.273,15.909 L12.619,15.563 L12.725,15.675 C13.811,16.83 15.75,16.062 15.75,14.477 L15.75,11 C15.75,10.033 14.967,9.25 14,9.25 Z M14.25,11 L14.25,14.477 C14.25,14.703 13.973,14.813 13.818,14.648 L13.182,13.972 C13.043,13.824 12.85,13.739 12.647,13.736 C12.444,13.733 12.249,13.812 12.106,13.955 L11.212,14.848 C11.115,14.946 10.956,14.946 10.859,14.848 L10.152,14.141 C10.054,14.044 10.054,13.885 10.152,13.788 L11.045,12.894 C11.188,12.751 11.267,12.556 11.264,12.353 C11.261,12.15 11.176,11.957 11.028,11.818 L10.352,11.182 C10.187,11.027 10.297,10.75 10.523,10.75 L14,10.75 C14.138,10.75 14.25,10.862 14.25,11 Z M6.97,14.848 C6.677,15.141 6.677,15.616 6.97,15.909 L9.091,18.03 C9.384,18.323 9.859,18.323 10.152,18.03 C10.444,17.737 10.444,17.263 10.152,16.97 L8.03,14.848 C7.737,14.556 7.263,14.556 6.97,14.848 Z"/>
</svg>

