<svg xmlns="http://www.w3.org/2000/svg" viewBox="0 0 24 24">
  <defs/>
  <path fill="#151E28" d="M16.25,9.889 C16.25,8.708 15.292,7.75 14.111,7.75 C13.697,7.75 13.361,7.414 13.361,7 C13.361,6.586 13.697,6.25 14.111,6.25 C16.121,6.25 17.75,7.879 17.75,9.889 L17.75,12.232 C17.75,13.045 17.75,13.701 17.707,14.231 C17.662,14.778 17.568,15.258 17.341,15.703 C16.982,16.408 16.408,16.982 15.703,17.341 C15.258,17.568 14.778,17.662 14.231,17.707 C13.701,17.75 13.045,17.75 12.232,17.75 L9.889,17.75 C7.879,17.75 6.25,16.121 6.25,14.111 C6.25,13.697 6.586,13.361 7,13.361 C7.414,13.361 7.75,13.697 7.75,14.111 C7.75,15.292 8.708,16.25 9.889,16.25 L12.2,16.25 C13.052,16.25 13.647,16.25 14.109,16.212 C14.563,16.175 14.824,16.105 15.021,16.005 C15.445,15.789 15.789,15.445 16.005,15.021 C16.105,14.824 16.174,14.563 16.212,14.109 C16.249,13.647 16.25,13.052 16.25,12.2 Z M10,6.25 C10.414,6.25 10.75,6.586 10.75,7 C10.75,7.414 10.414,7.75 10,7.75 L8.811,7.75 L12.53,11.47 C12.823,11.763 12.823,12.238 12.53,12.53 C12.237,12.823 11.763,12.823 11.47,12.53 L7.75,8.811 L7.75,10 C7.75,10.414 7.414,10.75 7,10.75 C6.586,10.75 6.25,10.414 6.25,10 L6.25,7 C6.25,6.586 6.586,6.25 7,6.25 Z"/>
</svg>

