<svg xmlns="http://www.w3.org/2000/svg" viewBox="0 0 24 24">
  <defs/>
  <path fill="#151E28" d="M9.367,2.25 L14.633,2.25 C15.725,2.25 16.591,2.25 17.288,2.307 C18.002,2.365 18.605,2.487 19.156,2.768 C20.05,3.223 20.777,3.95 21.232,4.844 C21.513,5.395 21.635,5.998 21.693,6.712 C21.75,7.409 21.75,8.275 21.75,9.367 L21.75,14.633 C21.75,15.725 21.75,16.591 21.693,17.288 C21.635,18.002 21.513,18.605 21.232,19.156 C20.777,20.05 20.05,20.777 19.156,21.232 C18.605,21.513 18.002,21.635 17.288,21.693 C16.591,21.75 15.725,21.75 14.633,21.75 L9.367,21.75 C8.275,21.75 7.409,21.75 6.712,21.693 C5.998,21.635 5.395,21.513 4.844,21.232 C3.95,20.777 3.223,20.05 2.768,19.156 C2.487,18.605 2.365,18.002 2.307,17.288 C2.25,16.591 2.25,15.725 2.25,14.633 L2.25,9.367 C2.25,8.275 2.25,7.409 2.307,6.712 C2.365,5.998 2.487,5.395 2.768,4.844 C3.223,3.95 3.95,3.223 4.844,2.768 C5.395,2.487 5.998,2.365 6.712,2.307 C7.409,2.25 8.275,2.25 9.367,2.25 Z M15,8.25 L11.524,8.25 C9.938,8.25 9.17,10.189 10.325,11.275 L10.437,11.381 L10.091,11.727 C9.408,12.41 9.408,13.519 10.091,14.202 L10.798,14.909 C11.481,15.592 12.59,15.592 13.273,14.909 L13.619,14.563 L13.725,14.675 C14.811,15.83 16.75,15.062 16.75,13.476 L16.75,10 C16.75,9.033 15.967,8.25 15,8.25 Z M15.25,10 L15.25,13.476 C15.25,13.703 14.973,13.813 14.818,13.648 L14.182,12.972 C14.043,12.824 13.85,12.739 13.647,12.736 C13.444,12.733 13.249,12.812 13.106,12.955 L12.212,13.848 C12.115,13.946 11.956,13.946 11.859,13.848 L11.152,13.141 C11.054,13.044 11.054,12.885 11.152,12.788 L12.045,11.894 C12.188,11.751 12.268,11.556 12.264,11.353 C12.261,11.15 12.176,10.957 12.028,10.818 L11.352,10.182 C11.187,10.027 11.297,9.75 11.524,9.75 L15,9.75 C15.138,9.75 15.25,9.862 15.25,10 Z M7.97,13.848 C7.677,14.141 7.677,14.616 7.97,14.909 L10.091,17.03 C10.384,17.323 10.859,17.323 11.152,17.03 C11.445,16.737 11.445,16.263 11.152,15.97 L9.03,13.848 C8.737,13.556 8.263,13.556 7.97,13.848 Z"/>
</svg>

