<svg xmlns="http://www.w3.org/2000/svg" viewBox="0 0 24 24">
  <defs/>
  <path fill="#151E28" d="M6.13,13.215 C5.476,12.537 5.476,11.463 6.13,10.785 L9.53,7.262 C10.623,6.129 12.54,6.902 12.54,8.477 L12.54,9.45 L14,9.45 C14.967,9.45 15.75,10.234 15.75,11.2 L15.75,12.8 C15.75,13.767 14.967,14.55 14,14.55 L12.54,14.55 L12.54,15.524 C12.54,17.098 10.623,17.872 9.53,16.739 Z M7.21,11.827 C7.116,11.923 7.116,12.077 7.21,12.174 L10.61,15.697 C10.766,15.859 11.04,15.748 11.04,15.524 L11.04,13.8 C11.04,13.386 11.375,13.05 11.79,13.05 L14,13.05 C14.138,13.05 14.25,12.938 14.25,12.8 L14.25,11.2 C14.25,11.062 14.138,10.95 14,10.95 L11.79,10.95 C11.375,10.95 11.04,10.614 11.04,10.2 L11.04,8.477 C11.04,8.252 10.766,8.141 10.61,8.303 Z M17,14.55 C16.586,14.55 16.25,14.214 16.25,13.8 L16.25,10.2 C16.25,9.786 16.586,9.45 17,9.45 C17.414,9.45 17.75,9.786 17.75,10.2 L17.75,13.8 C17.75,14.214 17.414,14.55 17,14.55 Z"/>
</svg>

