<svg xmlns="http://www.w3.org/2000/svg" viewBox="0 0 24 24">
  <defs/>
  <path fill="#151E28" d="M13.117,2.479 C13.602,2.695 13.961,3.093 14.285,3.55 C14.606,4.004 14.961,4.617 15.399,5.375 L15.399,5.375 L15.418,5.408 L20.868,14.821 L20.887,14.854 C21.327,15.614 21.684,16.229 21.918,16.736 C22.154,17.245 22.321,17.756 22.266,18.285 C22.185,19.061 21.779,19.766 21.148,20.224 C20.718,20.537 20.192,20.648 19.633,20.699 C19.077,20.75 18.366,20.75 17.488,20.75 L6.512,20.75 C5.634,20.75 4.923,20.75 4.367,20.699 C3.808,20.648 3.282,20.537 2.852,20.224 C2.221,19.766 1.815,19.061 1.734,18.285 C1.679,17.756 1.846,17.245 2.082,16.736 C2.316,16.229 2.673,15.614 3.113,14.854 L3.132,14.821 L8.582,5.408 L8.601,5.375 C9.039,4.618 9.394,4.004 9.715,3.55 C10.039,3.093 10.398,2.695 10.883,2.479 C11.594,2.163 12.406,2.163 13.117,2.479 Z M15,17.75 C15.967,17.75 16.75,16.966 16.75,16 L16.75,12.523 C16.75,10.938 14.811,10.17 13.725,11.325 L13.619,11.437 L13.273,11.091 C12.59,10.408 11.481,10.408 10.798,11.091 L10.091,11.798 C9.408,12.481 9.408,13.59 10.091,14.273 L10.437,14.619 L10.325,14.725 C9.17,15.811 9.938,17.75 11.523,17.75 Z M15.25,16 C15.25,16.138 15.138,16.25 15,16.25 L11.523,16.25 C11.297,16.25 11.187,15.973 11.352,15.818 L12.028,15.182 C12.176,15.043 12.261,14.85 12.264,14.647 C12.267,14.444 12.188,14.249 12.045,14.106 L11.152,13.212 C11.054,13.115 11.054,12.956 11.152,12.859 L11.859,12.152 C11.956,12.054 12.115,12.054 12.212,12.152 L13.106,13.045 C13.249,13.188 13.444,13.267 13.647,13.264 C13.85,13.261 14.043,13.176 14.182,13.028 L14.818,12.352 C14.973,12.187 15.25,12.297 15.25,12.523 Z M7.97,12.152 C8.263,12.444 8.737,12.444 9.03,12.152 L11.152,10.03 C11.444,9.737 11.444,9.263 11.152,8.97 C10.859,8.677 10.384,8.677 10.091,8.97 L7.97,11.091 C7.677,11.384 7.677,11.859 7.97,12.152 Z"/>
</svg>

