<svg xmlns="http://www.w3.org/2000/svg" viewBox="0 0 24 24">
  <defs/>
  <path fill="#151E28" d="M12,1.25 C17.937,1.25 22.75,6.063 22.75,12 C22.75,17.937 17.937,22.75 12,22.75 C6.063,22.75 1.25,17.937 1.25,12 C1.25,6.063 6.063,1.25 12,1.25 Z M8.47,15.53 C8.763,15.823 9.237,15.823 9.53,15.53 L14.25,10.811 L14.25,13.5 C14.25,13.914 14.586,14.25 15,14.25 C15.414,14.25 15.75,13.914 15.75,13.5 L15.75,9 C15.75,8.586 15.414,8.25 15,8.25 L10.5,8.25 C10.086,8.25 9.75,8.586 9.75,9 C9.75,9.414 10.086,9.75 10.5,9.75 L13.189,9.75 L8.47,14.47 C8.177,14.763 8.177,15.237 8.47,15.53 Z"/>
</svg>

