<svg xmlns="http://www.w3.org/2000/svg" viewBox="0 0 24 24">
  <defs/>
  <path fill="#151E28" d="M9.367,2.25 L14.633,2.25 C15.725,2.25 16.591,2.25 17.288,2.307 C18.002,2.365 18.605,2.487 19.156,2.768 C20.05,3.223 20.777,3.95 21.232,4.844 C21.513,5.395 21.635,5.998 21.693,6.712 C21.75,7.409 21.75,8.275 21.75,9.367 L21.75,14.633 C21.75,15.725 21.75,16.591 21.693,17.288 C21.635,18.002 21.513,18.605 21.232,19.156 C20.777,20.05 20.05,20.777 19.156,21.232 C18.605,21.513 18.002,21.635 17.288,21.693 C16.591,21.75 15.725,21.75 14.633,21.75 L9.367,21.75 C8.275,21.75 7.409,21.75 6.712,21.693 C5.998,21.635 5.395,21.513 4.844,21.232 C3.95,20.777 3.223,20.05 2.768,19.156 C2.487,18.605 2.365,18.002 2.307,17.288 C2.25,16.591 2.25,15.725 2.25,14.633 L2.25,9.367 C2.25,8.275 2.25,7.409 2.307,6.712 C2.365,5.998 2.487,5.395 2.768,4.844 C3.223,3.95 3.95,3.223 4.844,2.768 C5.395,2.487 5.998,2.365 6.712,2.307 C7.409,2.25 8.275,2.25 9.367,2.25 Z M9,8.25 C8.586,8.25 8.25,8.586 8.25,9 L8.25,9.232 C8.25,10.045 8.25,10.701 8.293,11.231 C8.338,11.778 8.432,12.258 8.659,12.703 C9.018,13.408 9.592,13.982 10.297,14.341 C10.742,14.568 11.222,14.662 11.769,14.707 C12.299,14.75 12.955,14.75 13.768,14.75 L14.189,14.75 L13.47,15.47 C13.177,15.763 13.177,16.237 13.47,16.53 C13.763,16.823 14.237,16.823 14.53,16.53 L16.53,14.53 C16.823,14.237 16.823,13.763 16.53,13.47 L14.53,11.47 C14.237,11.177 13.763,11.177 13.47,11.47 C13.177,11.763 13.177,12.237 13.47,12.53 L14.189,13.25 L13.8,13.25 C12.948,13.25 12.353,13.249 11.891,13.212 C11.437,13.175 11.176,13.105 10.979,13.005 C10.555,12.789 10.211,12.445 9.995,12.021 C9.895,11.824 9.825,11.563 9.788,11.109 C9.751,10.647 9.75,10.052 9.75,9.2 L9.75,9 C9.75,8.586 9.414,8.25 9,8.25 Z"/>
</svg>

