<svg xmlns="http://www.w3.org/2000/svg" viewBox="0 0 24 24">
  <defs/>
  <path fill="#151E28" d="M13.117,2.479 C13.602,2.695 13.961,3.093 14.285,3.55 C14.606,4.004 14.961,4.617 15.399,5.375 L15.399,5.375 L15.418,5.408 L20.868,14.821 L20.887,14.854 C21.327,15.614 21.684,16.229 21.918,16.736 C22.154,17.245 22.321,17.756 22.266,18.285 C22.185,19.061 21.779,19.766 21.148,20.224 C20.718,20.537 20.192,20.648 19.633,20.699 C19.077,20.75 18.366,20.75 17.488,20.75 L6.512,20.75 C5.634,20.75 4.923,20.75 4.367,20.699 C3.808,20.648 3.282,20.537 2.852,20.224 C2.221,19.766 1.815,19.061 1.734,18.285 C1.679,17.756 1.846,17.245 2.082,16.736 C2.316,16.229 2.673,15.614 3.113,14.854 L3.132,14.821 L8.582,5.408 L8.601,5.375 C9.039,4.618 9.394,4.004 9.715,3.55 C10.039,3.093 10.398,2.695 10.883,2.479 C11.594,2.163 12.406,2.163 13.117,2.479 Z M6.25,15 C6.25,15.415 6.586,15.75 7,15.75 L8.189,15.75 L7.97,15.969 C7.677,16.262 7.677,16.737 7.97,17.03 C8.262,17.323 8.737,17.323 9.03,17.03 L10.53,15.531 C10.823,15.238 10.823,14.763 10.53,14.47 L9.03,12.97 C8.738,12.677 8.263,12.677 7.97,12.969 C7.677,13.262 7.677,13.737 7.97,14.03 L8.19,14.25 L7,14.25 C6.586,14.25 6.25,14.586 6.25,15 Z M17.75,15 C17.75,14.586 17.414,14.25 17,14.25 L15.81,14.25 L16.03,14.03 C16.323,13.737 16.323,13.262 16.03,12.969 C15.737,12.677 15.262,12.677 14.97,12.97 L13.47,14.47 C13.177,14.763 13.177,15.238 13.47,15.531 L14.97,17.03 C15.263,17.323 15.738,17.323 16.03,17.03 C16.323,16.737 16.323,16.262 16.03,15.969 L15.811,15.75 L17,15.75 C17.414,15.75 17.75,15.415 17.75,15 Z M11.25,12 L11.25,18 C11.25,18.414 11.586,18.75 12,18.75 C12.414,18.75 12.75,18.414 12.75,18 L12.75,12 C12.75,11.586 12.414,11.25 12,11.25 C11.586,11.25 11.25,11.586 11.25,12 Z"/>
</svg>

