<svg xmlns="http://www.w3.org/2000/svg" viewBox="0 0 24 24">
  <defs/>
  <path fill="#151E28" d="M13.117,2.479 C13.602,2.695 13.961,3.093 14.285,3.55 C14.606,4.004 14.961,4.617 15.399,5.375 L15.399,5.375 L15.418,5.408 L20.868,14.821 L20.887,14.854 C21.327,15.614 21.684,16.229 21.918,16.736 C22.154,17.245 22.321,17.756 22.266,18.285 C22.185,19.061 21.779,19.766 21.148,20.224 C20.718,20.537 20.192,20.648 19.633,20.699 C19.077,20.75 18.366,20.75 17.488,20.75 L6.512,20.75 C5.634,20.75 4.923,20.75 4.367,20.699 C3.808,20.648 3.282,20.537 2.852,20.224 C2.221,19.766 1.815,19.061 1.734,18.285 C1.679,17.756 1.846,17.245 2.082,16.736 C2.316,16.229 2.673,15.614 3.113,14.854 L3.132,14.821 L8.582,5.408 L8.601,5.375 C9.039,4.618 9.394,4.004 9.715,3.55 C10.039,3.093 10.398,2.695 10.883,2.479 C11.594,2.163 12.406,2.163 13.117,2.479 Z M15.457,11.745 C15.432,10.815 14.685,10.068 13.755,10.043 L10.326,9.95 C8.745,9.907 7.923,11.818 9.041,12.937 L9.211,13.107 L7.434,14.884 C6.751,15.567 6.751,16.675 7.434,17.359 L8.141,18.066 C8.825,18.749 9.933,18.749 10.616,18.066 L12.393,16.289 L12.563,16.459 C13.682,17.577 15.593,16.755 15.55,15.174 Z M13.715,11.542 C13.847,11.546 13.954,11.653 13.958,11.785 L14.05,15.215 C14.057,15.441 13.784,15.558 13.624,15.398 L12.924,14.698 C12.631,14.405 12.156,14.405 11.863,14.698 L9.555,17.005 C9.458,17.103 9.3,17.103 9.202,17.005 L8.495,16.298 C8.397,16.2 8.397,16.042 8.495,15.944 L10.802,13.637 C11.095,13.344 11.095,12.869 10.802,12.576 L10.102,11.876 C9.942,11.716 10.059,11.443 10.285,11.449 Z"/>
</svg>

