<svg xmlns="http://www.w3.org/2000/svg" viewBox="0 0 24 24">
  <defs/>
  <path fill="#151E28" d="M9.367,2.25 L14.633,2.25 C15.725,2.25 16.591,2.25 17.288,2.307 C18.002,2.365 18.605,2.487 19.156,2.768 C20.05,3.223 20.777,3.95 21.232,4.844 C21.513,5.395 21.635,5.998 21.693,6.712 C21.75,7.409 21.75,8.275 21.75,9.367 L21.75,14.633 C21.75,15.725 21.75,16.591 21.693,17.288 C21.635,18.002 21.513,18.605 21.232,19.156 C20.777,20.05 20.05,20.777 19.156,21.232 C18.605,21.513 18.002,21.635 17.288,21.693 C16.591,21.75 15.725,21.75 14.633,21.75 L9.367,21.75 C8.275,21.75 7.409,21.75 6.712,21.693 C5.998,21.635 5.395,21.513 4.844,21.232 C3.95,20.777 3.223,20.05 2.768,19.156 C2.487,18.605 2.365,18.002 2.307,17.288 C2.25,16.591 2.25,15.725 2.25,14.633 L2.25,9.367 C2.25,8.275 2.25,7.409 2.307,6.712 C2.365,5.998 2.487,5.395 2.768,4.844 C3.223,3.95 3.95,3.223 4.844,2.768 C5.395,2.487 5.998,2.365 6.712,2.307 C7.409,2.25 8.275,2.25 9.367,2.25 Z M15.162,7.508 C14.787,7.333 14.341,7.495 14.166,7.871 C13.991,8.246 14.153,8.692 14.528,8.867 C14.795,8.991 15.009,9.205 15.133,9.472 C15.172,9.557 15.209,9.685 15.229,9.952 C15.25,10.226 15.25,10.582 15.25,11.111 L15.25,12.8 C15.25,13.373 15.25,13.757 15.225,14.053 C15.202,14.34 15.16,14.477 15.114,14.568 C14.994,14.803 14.803,14.994 14.568,15.114 C14.477,15.16 14.34,15.202 14.053,15.225 C13.757,15.25 13.373,15.25 12.8,15.25 L11.111,15.25 C10.582,15.25 10.226,15.25 9.952,15.229 C9.685,15.209 9.557,15.172 9.472,15.133 C9.205,15.009 8.991,14.795 8.867,14.528 C8.692,14.153 8.246,13.991 7.871,14.166 C7.495,14.341 7.333,14.787 7.508,15.162 C7.781,15.748 8.252,16.219 8.838,16.493 C9.155,16.64 9.486,16.698 9.838,16.725 C10.176,16.75 10.589,16.75 11.083,16.75 L12.831,16.75 C13.365,16.75 13.811,16.75 14.175,16.72 C14.555,16.689 14.911,16.622 15.249,16.45 C15.766,16.187 16.187,15.766 16.45,15.249 C16.622,14.911 16.689,14.555 16.72,14.175 C16.75,13.811 16.75,13.365 16.75,12.831 L16.75,11.083 C16.75,10.589 16.75,10.176 16.725,9.838 C16.698,9.486 16.64,9.155 16.493,8.838 C16.219,8.252 15.748,7.781 15.162,7.508 Z M8.85,12 C8.85,12.414 9.186,12.75 9.6,12.75 L12,12.75 C12.414,12.75 12.75,12.414 12.75,12 L12.75,9.6 C12.75,9.186 12.414,8.85 12,8.85 C11.586,8.85 11.25,9.186 11.25,9.6 L11.25,10.189 L8.53,7.47 C8.237,7.177 7.763,7.177 7.47,7.47 C7.177,7.763 7.177,8.237 7.47,8.53 L10.189,11.25 L9.6,11.25 C9.186,11.25 8.85,11.586 8.85,12 Z"/>
</svg>

