<svg xmlns="http://www.w3.org/2000/svg" viewBox="0 0 24 24">
  <defs/>
  <path fill="#151E28" d="M13.117,2.479 C13.602,2.695 13.961,3.093 14.285,3.55 C14.606,4.004 14.961,4.617 15.399,5.375 L15.399,5.375 L15.418,5.408 L20.868,14.821 L20.887,14.854 C21.327,15.614 21.684,16.229 21.918,16.736 C22.154,17.245 22.321,17.756 22.266,18.285 C22.185,19.061 21.779,19.766 21.148,20.224 C20.718,20.537 20.192,20.648 19.633,20.699 C19.077,20.75 18.366,20.75 17.488,20.75 L6.512,20.75 C5.634,20.75 4.923,20.75 4.367,20.699 C3.808,20.648 3.282,20.537 2.852,20.224 C2.221,19.766 1.815,19.061 1.734,18.285 C1.679,17.756 1.846,17.245 2.082,16.736 C2.316,16.229 2.673,15.614 3.113,14.854 L3.132,14.821 L8.582,5.408 L8.601,5.375 C9.039,4.618 9.394,4.004 9.715,3.55 C10.039,3.093 10.398,2.695 10.883,2.479 C11.594,2.163 12.406,2.163 13.117,2.479 Z M8.066,18.75 C8.481,18.744 8.812,18.404 8.806,17.99 L8.795,17.234 C8.787,16.655 8.782,16.265 8.803,15.965 C8.823,15.674 8.863,15.535 8.909,15.443 C9.027,15.205 9.219,15.01 9.456,14.889 C9.547,14.842 9.686,14.799 9.976,14.775 C10.266,14.751 10.64,14.75 11.189,14.75 L10.47,15.47 C10.177,15.762 10.177,16.237 10.47,16.53 C10.762,16.823 11.237,16.823 11.53,16.53 L13.53,14.53 C13.823,14.237 13.823,13.762 13.53,13.47 L11.53,11.47 C11.237,11.177 10.762,11.177 10.47,11.47 C10.177,11.762 10.177,12.237 10.47,12.53 L11.189,13.25 C10.659,13.25 10.216,13.25 9.854,13.28 C9.47,13.312 9.109,13.38 8.769,13.555 C8.248,13.823 7.827,14.251 7.566,14.776 C7.396,15.118 7.332,15.479 7.306,15.863 C7.281,16.232 7.287,16.684 7.295,17.225 L7.295,17.255 L7.306,18.01 C7.312,18.425 7.652,18.756 8.066,18.75 Z M13.47,16.53 C13.762,16.823 14.237,16.823 14.53,16.53 L16.53,14.53 C16.671,14.39 16.75,14.199 16.75,14 C16.75,13.801 16.671,13.61 16.53,13.47 L14.53,11.47 C14.237,11.177 13.762,11.177 13.47,11.47 C13.177,11.762 13.177,12.237 13.47,12.53 L14.939,14 L13.47,15.47 C13.177,15.762 13.177,16.237 13.47,16.53 Z"/>
</svg>

