<svg xmlns="http://www.w3.org/2000/svg" viewBox="0 0 24 24">
  <defs/>
  <path fill="#151E28" d="M13.117,2.479 C13.602,2.695 13.961,3.093 14.285,3.55 C14.606,4.004 14.961,4.617 15.399,5.375 L15.399,5.375 L15.418,5.408 L20.868,14.821 L20.887,14.854 C21.327,15.614 21.684,16.229 21.918,16.736 C22.154,17.245 22.321,17.756 22.266,18.285 C22.185,19.061 21.779,19.766 21.148,20.224 C20.718,20.537 20.192,20.648 19.633,20.699 C19.077,20.75 18.366,20.75 17.488,20.75 L6.512,20.75 C5.634,20.75 4.923,20.75 4.367,20.699 C3.808,20.648 3.282,20.537 2.852,20.224 C2.221,19.766 1.815,19.061 1.734,18.285 C1.679,17.756 1.846,17.245 2.082,16.736 C2.316,16.229 2.673,15.614 3.113,14.854 L3.132,14.821 L8.582,5.408 L8.601,5.375 C9.039,4.618 9.394,4.004 9.715,3.55 C10.039,3.093 10.398,2.695 10.883,2.479 C11.594,2.163 12.406,2.163 13.117,2.479 Z M16.062,11.181 C15.788,10.87 15.314,10.841 15.004,11.115 C14.693,11.389 14.663,11.863 14.938,12.173 C15.121,12.381 15.236,12.649 15.249,12.946 C15.25,12.969 15.25,13 15.25,13.111 L15.25,14.8 C15.25,15.373 15.249,15.757 15.225,16.053 C15.202,16.34 15.16,16.477 15.114,16.568 C14.994,16.803 14.803,16.994 14.567,17.114 C14.477,17.16 14.34,17.202 14.052,17.225 C13.757,17.25 13.372,17.25 12.8,17.25 L11.111,17.25 C11,17.25 10.969,17.25 10.945,17.249 C10.649,17.236 10.381,17.121 10.173,16.938 C9.863,16.664 9.389,16.693 9.115,17.004 C8.841,17.314 8.87,17.788 9.181,18.062 C9.637,18.465 10.229,18.719 10.88,18.747 C10.94,18.75 11.007,18.75 11.095,18.75 L12.83,18.75 C13.365,18.75 13.81,18.75 14.175,18.72 C14.554,18.689 14.911,18.622 15.248,18.45 C15.766,18.187 16.187,17.766 16.45,17.249 C16.622,16.911 16.689,16.555 16.72,16.175 C16.75,15.811 16.75,15.365 16.75,14.83 L16.75,13.095 C16.75,13.008 16.75,12.941 16.747,12.88 C16.719,12.23 16.465,11.637 16.062,11.181 Z M11,14.25 C10.586,14.25 10.25,14.586 10.25,15 C10.25,15.414 10.586,15.75 11,15.75 L13,15.75 C13.414,15.75 13.75,15.414 13.75,15 L13.75,13 C13.75,12.586 13.414,12.25 13,12.25 C12.586,12.25 12.25,12.586 12.25,13 L12.25,13.189 L9.53,10.47 C9.237,10.177 8.763,10.177 8.47,10.47 C8.177,10.762 8.177,11.237 8.47,11.53 L11.189,14.25 Z"/>
</svg>

