<svg xmlns="http://www.w3.org/2000/svg" viewBox="0 0 24 24">
  <defs/>
  <path fill="#151E28" d="M12,1.25 C17.937,1.25 22.75,6.063 22.75,12 C22.75,17.937 17.937,22.75 12,22.75 C6.063,22.75 1.25,17.937 1.25,12 C1.25,6.063 6.063,1.25 12,1.25 Z M15.75,9 C15.75,8.586 15.414,8.25 15,8.25 L14.768,8.25 C13.955,8.25 13.299,8.25 12.769,8.293 C12.222,8.338 11.742,8.432 11.297,8.659 C10.592,9.018 10.018,9.592 9.659,10.297 C9.432,10.742 9.338,11.222 9.293,11.769 C9.25,12.299 9.25,12.955 9.25,13.768 L9.25,14.189 L8.53,13.47 C8.237,13.177 7.763,13.177 7.47,13.47 C7.177,13.763 7.177,14.237 7.47,14.53 L9.47,16.53 C9.763,16.823 10.237,16.823 10.53,16.53 L12.53,14.53 C12.823,14.237 12.823,13.763 12.53,13.47 C12.237,13.177 11.763,13.177 11.47,13.47 L10.75,14.189 L10.75,13.8 C10.75,12.948 10.751,12.353 10.788,11.891 C10.825,11.437 10.895,11.176 10.995,10.979 C11.211,10.555 11.555,10.211 11.979,9.995 C12.176,9.895 12.437,9.825 12.891,9.788 C13.353,9.751 13.948,9.75 14.8,9.75 L15,9.75 C15.414,9.75 15.75,9.414 15.75,9 Z"/>
</svg>

