<svg xmlns="http://www.w3.org/2000/svg" viewBox="0 0 24 24">
  <defs/>
  <path fill="#151E28" d="M9.325,2.25 L14.675,2.25 L14.747,2.25 C15.166,2.25 15.495,2.25 15.814,2.326 C16.094,2.393 16.362,2.504 16.608,2.655 C16.888,2.826 17.121,3.059 17.416,3.356 L17.468,3.407 L20.593,6.532 L20.644,6.584 C20.941,6.879 21.174,7.112 21.345,7.392 C21.496,7.638 21.607,7.906 21.674,8.186 C21.75,8.505 21.75,8.834 21.75,9.253 L21.75,14.747 C21.75,15.166 21.75,15.495 21.674,15.814 C21.607,16.094 21.496,16.362 21.345,16.608 C21.174,16.888 20.941,17.121 20.644,17.416 L17.468,20.593 L17.416,20.644 C17.121,20.941 16.888,21.174 16.608,21.345 C16.362,21.496 16.094,21.607 15.814,21.674 C15.495,21.75 15.166,21.75 14.747,21.75 L9.253,21.75 C8.834,21.75 8.505,21.75 8.186,21.674 C7.906,21.607 7.638,21.496 7.392,21.345 C7.112,21.174 6.879,20.941 6.584,20.644 L6.532,20.593 L3.407,17.468 L3.356,17.416 C3.059,17.121 2.826,16.888 2.655,16.608 C2.504,16.362 2.393,16.094 2.326,15.814 C2.25,15.495 2.25,15.166 2.25,14.747 L2.25,14.675 L2.25,9.325 L2.25,9.253 C2.25,8.834 2.25,8.505 2.326,8.186 C2.393,7.906 2.504,7.638 2.655,7.392 C2.826,7.112 3.059,6.879 3.356,6.584 L3.407,6.532 L6.532,3.407 L6.584,3.356 C6.879,3.059 7.112,2.826 7.392,2.655 C7.638,2.504 7.906,2.393 8.186,2.326 C8.505,2.25 8.834,2.25 9.253,2.25 Z M15,8.25 L11.524,8.25 C9.938,8.25 9.17,10.189 10.325,11.275 L10.437,11.381 L10.091,11.727 C9.408,12.41 9.408,13.519 10.091,14.202 L10.798,14.909 C11.481,15.592 12.59,15.592 13.273,14.909 L13.619,14.563 L13.725,14.675 C14.811,15.83 16.75,15.062 16.75,13.476 L16.75,10 C16.75,9.033 15.967,8.25 15,8.25 Z M15.25,10 L15.25,13.476 C15.25,13.703 14.973,13.813 14.818,13.648 L14.182,12.972 C14.043,12.824 13.85,12.739 13.647,12.736 C13.444,12.733 13.249,12.812 13.106,12.955 L12.212,13.848 C12.115,13.946 11.956,13.946 11.859,13.848 L11.152,13.141 C11.054,13.044 11.054,12.885 11.152,12.788 L12.045,11.894 C12.188,11.751 12.268,11.556 12.264,11.353 C12.261,11.15 12.176,10.957 12.028,10.818 L11.352,10.182 C11.187,10.027 11.297,9.75 11.524,9.75 L15,9.75 C15.138,9.75 15.25,9.862 15.25,10 Z M7.97,13.848 C7.677,14.141 7.677,14.616 7.97,14.909 L10.091,17.03 C10.384,17.323 10.859,17.323 11.152,17.03 C11.445,16.737 11.445,16.263 11.152,15.97 L9.03,13.848 C8.737,13.556 8.263,13.556 7.97,13.848 Z"/>
</svg>

