<svg xmlns="http://www.w3.org/2000/svg" viewBox="0 0 24 24">
  <defs/>
  <path fill="#151E28" d="M12,1.25 C17.937,1.25 22.75,6.063 22.75,12 C22.75,17.937 17.937,22.75 12,22.75 C6.063,22.75 1.25,17.937 1.25,12 C1.25,6.063 6.063,1.25 12,1.25 Z M16,16.75 C16.414,16.75 16.75,16.414 16.75,16 L16.75,15.768 C16.75,14.955 16.75,14.299 16.707,13.769 C16.662,13.222 16.568,12.742 16.341,12.297 C15.982,11.592 15.408,11.018 14.703,10.659 C14.258,10.432 13.778,10.338 13.231,10.293 C12.833,10.261 12.363,10.253 11.81,10.251 L12.53,9.53 C12.823,9.237 12.823,8.763 12.53,8.47 C12.237,8.177 11.762,8.177 11.47,8.47 L9.47,10.47 C9.177,10.763 9.177,11.237 9.47,11.53 L11.47,13.53 C11.762,13.823 12.237,13.823 12.53,13.53 C12.823,13.238 12.823,12.763 12.53,12.47 L11.811,11.751 C12.351,11.753 12.766,11.76 13.109,11.788 C13.563,11.825 13.824,11.895 14.021,11.995 C14.445,12.211 14.789,12.555 15.005,12.979 C15.105,13.176 15.175,13.437 15.212,13.891 C15.249,14.353 15.25,14.948 15.25,15.8 L15.25,16 C15.25,16.414 15.586,16.75 16,16.75 Z M9.53,13.53 C9.823,13.238 9.823,12.763 9.53,12.47 L8.061,11 L9.53,9.53 C9.823,9.237 9.823,8.763 9.53,8.47 C9.237,8.177 8.763,8.177 8.47,8.47 L6.47,10.47 C6.177,10.763 6.177,11.237 6.47,11.53 L8.47,13.53 C8.763,13.823 9.237,13.823 9.53,13.53 Z"/>
</svg>

