<svg xmlns="http://www.w3.org/2000/svg" viewBox="0 0 24 24">
  <defs/>
  <path fill="#151E28" d="M13.117,2.479 C13.602,2.695 13.961,3.093 14.285,3.55 C14.606,4.004 14.961,4.617 15.399,5.375 L15.399,5.375 L15.418,5.408 L20.868,14.821 L20.887,14.854 C21.327,15.614 21.684,16.229 21.918,16.736 C22.154,17.245 22.321,17.756 22.266,18.285 C22.185,19.061 21.779,19.766 21.148,20.224 C20.718,20.537 20.192,20.648 19.633,20.699 C19.077,20.75 18.366,20.75 17.488,20.75 L6.512,20.75 C5.634,20.75 4.923,20.75 4.367,20.699 C3.808,20.648 3.282,20.537 2.852,20.224 C2.221,19.766 1.815,19.061 1.734,18.285 C1.679,17.756 1.846,17.245 2.082,16.736 C2.316,16.229 2.673,15.614 3.113,14.854 L3.132,14.821 L8.582,5.408 L8.601,5.375 C9.039,4.618 9.394,4.004 9.715,3.55 C10.039,3.093 10.398,2.695 10.883,2.479 C11.594,2.163 12.406,2.163 13.117,2.479 Z M8.543,11.745 L8.45,15.174 C8.407,16.755 10.318,17.577 11.437,16.459 L11.607,16.289 L13.384,18.066 C14.067,18.749 15.175,18.749 15.859,18.066 L16.566,17.359 C17.249,16.675 17.249,15.567 16.566,14.884 L14.789,13.107 L14.959,12.937 C16.077,11.818 15.255,9.907 13.674,9.95 L10.245,10.043 C9.315,10.068 8.568,10.815 8.543,11.745 Z M10.285,11.542 L13.715,11.449 C13.941,11.443 14.058,11.716 13.898,11.876 L13.198,12.576 C12.905,12.869 12.905,13.344 13.198,13.637 L15.505,15.944 C15.603,16.042 15.603,16.2 15.505,16.298 L14.798,17.005 C14.7,17.103 14.542,17.103 14.444,17.005 L12.137,14.698 C11.844,14.405 11.369,14.405 11.076,14.698 L10.376,15.398 C10.216,15.558 9.943,15.441 9.949,15.215 L10.042,11.785 C10.046,11.653 10.153,11.546 10.285,11.542 Z"/>
</svg>

