<svg xmlns="http://www.w3.org/2000/svg" viewBox="0 0 24 24">
  <defs/>
  <path fill="#151E28" d="M9.325,2.25 L14.675,2.25 L14.747,2.25 C15.166,2.25 15.495,2.25 15.814,2.326 C16.094,2.393 16.362,2.504 16.608,2.655 C16.888,2.826 17.121,3.059 17.416,3.356 L17.468,3.407 L20.593,6.532 L20.644,6.584 C20.941,6.879 21.174,7.112 21.345,7.392 C21.496,7.638 21.607,7.906 21.674,8.186 C21.75,8.505 21.75,8.834 21.75,9.253 L21.75,14.747 C21.75,15.166 21.75,15.495 21.674,15.814 C21.607,16.094 21.496,16.362 21.345,16.608 C21.174,16.888 20.941,17.121 20.644,17.416 L17.468,20.593 L17.416,20.644 C17.121,20.941 16.888,21.174 16.608,21.345 C16.362,21.496 16.094,21.607 15.814,21.674 C15.495,21.75 15.166,21.75 14.747,21.75 L9.253,21.75 C8.834,21.75 8.505,21.75 8.186,21.674 C7.906,21.607 7.638,21.496 7.392,21.345 C7.112,21.174 6.879,20.941 6.584,20.644 L6.532,20.593 L3.407,17.468 L3.356,17.416 C3.059,17.121 2.826,16.888 2.655,16.608 C2.504,16.362 2.393,16.094 2.326,15.814 C2.25,15.495 2.25,15.166 2.25,14.747 L2.25,14.675 L2.25,9.325 L2.25,9.253 C2.25,8.834 2.25,8.505 2.326,8.186 C2.393,7.906 2.504,7.638 2.655,7.392 C2.826,7.112 3.059,6.879 3.356,6.584 L3.407,6.532 L6.532,3.407 L6.584,3.356 C6.879,3.059 7.112,2.826 7.392,2.655 C7.638,2.504 7.906,2.393 8.186,2.326 C8.505,2.25 8.834,2.25 9.253,2.25 Z M7.107,13.204 L9.466,15.694 C10.554,16.842 12.487,16.072 12.487,14.49 L12.487,14.25 L13,14.25 C13.967,14.25 14.75,13.467 14.75,12.5 L14.75,11.5 C14.75,10.533 13.967,9.75 13,9.75 L12.487,9.75 L12.487,9.51 C12.487,7.928 10.554,7.158 9.466,8.306 L7.107,10.796 C6.468,11.471 6.468,12.529 7.107,13.204 Z M8.196,11.828 L10.555,9.338 C10.711,9.174 10.987,9.284 10.987,9.51 L10.987,10.5 C10.987,10.914 11.323,11.25 11.737,11.25 L13,11.25 C13.138,11.25 13.25,11.362 13.25,11.5 L13.25,12.5 C13.25,12.638 13.138,12.75 13,12.75 L11.737,12.75 C11.323,12.75 10.987,13.086 10.987,13.5 L10.987,14.49 C10.987,14.716 10.711,14.826 10.555,14.662 L8.196,12.172 C8.105,12.075 8.105,11.925 8.196,11.828 Z M16,14.25 C16.414,14.25 16.75,13.914 16.75,13.5 L16.75,10.5 C16.75,10.086 16.414,9.75 16,9.75 C15.586,9.75 15.25,10.086 15.25,10.5 L15.25,13.5 C15.25,13.914 15.586,14.25 16,14.25 Z"/>
</svg>

