<svg xmlns="http://www.w3.org/2000/svg" viewBox="0 0 24 24">
  <defs/>
  <path fill="#151E28" d="M13.117,2.479 C13.602,2.695 13.961,3.093 14.285,3.55 C14.606,4.004 14.961,4.617 15.399,5.375 L15.418,5.408 L20.868,14.821 L20.887,14.854 C21.327,15.614 21.684,16.229 21.918,16.736 C22.154,17.245 22.321,17.756 22.266,18.285 C22.185,19.061 21.779,19.766 21.148,20.224 C20.718,20.537 20.192,20.648 19.633,20.699 C19.077,20.75 18.366,20.75 17.488,20.75 L6.512,20.75 C5.634,20.75 4.923,20.75 4.367,20.699 C3.808,20.648 3.282,20.537 2.852,20.224 C2.221,19.766 1.815,19.061 1.734,18.285 C1.679,17.756 1.846,17.245 2.082,16.736 C2.316,16.229 2.673,15.614 3.113,14.854 L3.132,14.821 L8.582,5.408 L8.601,5.375 C9.039,4.618 9.394,4.004 9.715,3.55 C10.039,3.093 10.398,2.695 10.883,2.479 C11.594,2.163 12.406,2.163 13.117,2.479 Z M11.095,9.25 L11.095,9.25 C11.008,9.25 10.94,9.25 10.88,9.253 C10.229,9.281 9.637,9.535 9.181,9.938 C8.87,10.212 8.841,10.686 9.115,10.996 C9.389,11.307 9.863,11.337 10.173,11.062 C10.381,10.879 10.649,10.764 10.945,10.751 C10.969,10.75 11,10.75 11.111,10.75 L12.8,10.75 C13.372,10.75 13.757,10.751 14.052,10.775 C14.34,10.798 14.477,10.84 14.568,10.886 C14.803,11.006 14.994,11.197 15.114,11.432 C15.16,11.523 15.202,11.66 15.225,11.948 C15.249,12.243 15.25,12.628 15.25,13.2 L15.25,14.889 C15.25,15 15.25,15.031 15.249,15.054 C15.236,15.351 15.121,15.619 14.938,15.827 C14.664,16.137 14.693,16.611 15.004,16.885 C15.314,17.159 15.788,17.13 16.062,16.819 C16.465,16.363 16.719,15.77 16.747,15.12 C16.75,15.06 16.75,14.992 16.75,14.905 L16.75,13.17 C16.75,12.635 16.75,12.19 16.72,11.825 C16.689,11.445 16.622,11.089 16.45,10.752 C16.187,10.234 15.766,9.813 15.248,9.55 C14.911,9.378 14.554,9.311 14.175,9.28 C13.81,9.25 13.365,9.25 12.83,9.25 L11.095,9.25 Z M11,13.75 L11.189,13.75 L8.47,16.47 C8.177,16.763 8.177,17.237 8.47,17.53 C8.763,17.823 9.237,17.823 9.53,17.53 L12.25,14.811 L12.25,15 C12.25,15.414 12.586,15.75 13,15.75 C13.414,15.75 13.75,15.414 13.75,15 L13.75,13 C13.75,12.586 13.414,12.25 13,12.25 L11,12.25 C10.586,12.25 10.25,12.586 10.25,13 C10.25,13.414 10.586,13.75 11,13.75 Z"/>
</svg>

