<svg xmlns="http://www.w3.org/2000/svg" viewBox="0 0 24 24">
  <defs/>
  <path fill="#151E28" d="M12,1.25 C17.937,1.25 22.75,6.063 22.75,12 C22.75,17.937 17.937,22.75 12,22.75 C6.063,22.75 1.25,17.937 1.25,12 C1.25,6.063 6.063,1.25 12,1.25 Z M9.522,8.845 C9.904,8.687 10.086,8.248 9.928,7.865 C9.769,7.483 9.33,7.301 8.948,7.459 C8.274,7.739 7.738,8.274 7.459,8.948 C7.339,9.238 7.292,9.538 7.271,9.855 C7.25,10.159 7.25,10.53 7.25,10.975 L7.25,12.831 C7.25,13.365 7.25,13.811 7.28,14.175 C7.311,14.555 7.378,14.911 7.55,15.249 C7.813,15.766 8.234,16.187 8.752,16.45 C9.089,16.622 9.445,16.689 9.825,16.72 C10.189,16.75 10.635,16.75 11.17,16.75 L13.025,16.75 C13.47,16.75 13.841,16.75 14.145,16.729 C14.462,16.708 14.762,16.661 15.052,16.541 C15.726,16.262 16.262,15.726 16.541,15.052 C16.699,14.67 16.517,14.231 16.135,14.073 C15.752,13.914 15.313,14.096 15.155,14.479 C15.028,14.785 14.785,15.028 14.478,15.155 C14.401,15.187 14.284,15.216 14.043,15.233 C13.796,15.25 13.476,15.25 13,15.25 L11.2,15.25 C10.628,15.25 10.243,15.25 9.947,15.225 C9.66,15.202 9.523,15.16 9.433,15.114 C9.197,14.994 9.006,14.803 8.886,14.568 C8.84,14.477 8.798,14.34 8.775,14.053 C8.751,13.757 8.75,13.373 8.75,12.8 L8.75,11 C8.75,10.524 8.75,10.204 8.767,9.957 C8.784,9.716 8.813,9.599 8.845,9.522 C8.972,9.215 9.215,8.972 9.522,8.845 Z M15.15,12 C15.15,11.586 14.814,11.25 14.4,11.25 L13.811,11.25 L16.53,8.53 C16.823,8.237 16.823,7.763 16.53,7.47 C16.237,7.177 15.763,7.177 15.47,7.47 L12.75,10.189 L12.75,9.6 C12.75,9.186 12.414,8.85 12,8.85 C11.586,8.85 11.25,9.186 11.25,9.6 L11.25,12 C11.25,12.414 11.586,12.75 12,12.75 L14.4,12.75 C14.814,12.75 15.15,12.414 15.15,12 Z"/>
</svg>

