<svg xmlns="http://www.w3.org/2000/svg" viewBox="0 0 24 24">
  <defs/>
  <path fill="#151E28" d="M12,1.25 C17.937,1.25 22.75,6.063 22.75,12 C22.75,17.937 17.937,22.75 12,22.75 C6.063,22.75 1.25,17.937 1.25,12 C1.25,6.063 6.063,1.25 12,1.25 Z M15,16.75 C15.414,16.75 15.75,16.414 15.75,16 L15.75,15.768 C15.75,14.955 15.75,14.299 15.707,13.769 C15.662,13.222 15.568,12.742 15.341,12.297 C14.982,11.592 14.408,11.018 13.703,10.659 C13.258,10.432 12.778,10.338 12.231,10.293 C11.701,10.25 11.045,10.25 10.232,10.25 L9.811,10.25 L10.53,9.53 C10.823,9.237 10.823,8.763 10.53,8.47 C10.237,8.177 9.763,8.177 9.47,8.47 L7.47,10.47 C7.177,10.763 7.177,11.237 7.47,11.53 L9.47,13.53 C9.763,13.823 10.237,13.823 10.53,13.53 C10.823,13.237 10.823,12.763 10.53,12.47 L9.811,11.75 L10.2,11.75 C11.052,11.75 11.647,11.751 12.109,11.788 C12.563,11.825 12.824,11.895 13.021,11.995 C13.445,12.211 13.789,12.555 14.005,12.979 C14.105,13.176 14.175,13.437 14.212,13.891 C14.249,14.353 14.25,14.948 14.25,15.8 L14.25,16 C14.25,16.414 14.586,16.75 15,16.75 Z"/>
</svg>

