<svg xmlns="http://www.w3.org/2000/svg" viewBox="0 0 24 24">
  <defs/>
  <path fill="#151E28" d="M9.367,2.25 L14.633,2.25 C15.725,2.25 16.591,2.25 17.288,2.307 C18.002,2.365 18.605,2.487 19.156,2.768 C20.05,3.223 20.777,3.95 21.232,4.844 C21.513,5.395 21.635,5.998 21.693,6.712 C21.75,7.409 21.75,8.275 21.75,9.367 L21.75,14.633 C21.75,15.725 21.75,16.591 21.693,17.288 C21.635,18.002 21.513,18.605 21.232,19.156 C20.777,20.05 20.05,20.777 19.156,21.232 C18.605,21.513 18.002,21.635 17.288,21.693 C16.591,21.75 15.725,21.75 14.633,21.75 L9.367,21.75 C8.275,21.75 7.409,21.75 6.712,21.693 C5.998,21.635 5.395,21.513 4.844,21.232 C3.95,20.777 3.223,20.05 2.768,19.156 C2.487,18.605 2.365,18.002 2.307,17.288 C2.25,16.591 2.25,15.725 2.25,14.633 L2.25,9.367 C2.25,8.275 2.25,7.409 2.307,6.712 C2.365,5.998 2.487,5.395 2.768,4.844 C3.223,3.95 3.95,3.223 4.844,2.768 C5.395,2.487 5.998,2.365 6.712,2.307 C7.409,2.25 8.275,2.25 9.367,2.25 Z M7.107,13.204 L9.466,15.694 C10.554,16.842 12.487,16.072 12.487,14.49 L12.487,14.25 L15,14.25 C15.967,14.25 16.75,13.467 16.75,12.5 L16.75,11.5 C16.75,10.533 15.967,9.75 15,9.75 L12.487,9.75 L12.487,9.51 C12.487,7.928 10.554,7.158 9.466,8.306 L7.107,10.796 C6.468,11.471 6.468,12.529 7.107,13.204 Z M8.196,11.828 L10.555,9.338 C10.711,9.174 10.987,9.284 10.987,9.51 L10.987,10.5 C10.987,10.914 11.323,11.25 11.737,11.25 L15,11.25 C15.138,11.25 15.25,11.362 15.25,11.5 L15.25,12.5 C15.25,12.638 15.138,12.75 15,12.75 L11.737,12.75 C11.323,12.75 10.987,13.086 10.987,13.5 L10.987,14.49 C10.987,14.716 10.711,14.826 10.555,14.662 L8.196,12.172 C8.105,12.075 8.105,11.925 8.196,11.828 Z"/>
</svg>

