<svg xmlns="http://www.w3.org/2000/svg" viewBox="0 0 24 24">
  <defs/>
  <path fill="#151E28" d="M9.325,2.25 L14.675,2.25 L14.747,2.25 C15.166,2.25 15.495,2.25 15.814,2.326 C16.094,2.393 16.362,2.504 16.608,2.655 C16.888,2.826 17.121,3.059 17.416,3.356 L17.468,3.407 L20.593,6.532 L20.644,6.584 C20.941,6.879 21.174,7.112 21.345,7.392 C21.496,7.638 21.607,7.906 21.674,8.186 C21.75,8.505 21.75,8.834 21.75,9.253 L21.75,14.747 C21.75,15.166 21.75,15.495 21.674,15.814 C21.607,16.094 21.496,16.362 21.345,16.608 C21.174,16.888 20.941,17.121 20.644,17.416 L17.468,20.593 L17.416,20.644 C17.121,20.941 16.888,21.174 16.608,21.345 C16.362,21.496 16.094,21.607 15.814,21.674 C15.495,21.75 15.166,21.75 14.747,21.75 L9.253,21.75 C8.834,21.75 8.505,21.75 8.186,21.674 C7.906,21.607 7.638,21.496 7.392,21.345 C7.112,21.174 6.879,20.941 6.584,20.644 L6.532,20.593 L3.407,17.468 L3.356,17.416 C3.059,17.121 2.826,16.888 2.655,16.608 C2.504,16.362 2.393,16.094 2.326,15.814 C2.25,15.495 2.25,15.166 2.25,14.747 L2.25,14.675 L2.25,9.325 L2.25,9.253 C2.25,8.834 2.25,8.505 2.326,8.186 C2.393,7.906 2.504,7.638 2.655,7.392 C2.826,7.112 3.059,6.879 3.356,6.584 L3.407,6.532 L6.532,3.407 L6.584,3.356 C6.879,3.059 7.112,2.826 7.392,2.655 C7.638,2.504 7.906,2.393 8.186,2.326 C8.505,2.25 8.834,2.25 9.253,2.25 Z M8.75,13 L8.75,12.2 C8.75,11.628 8.751,11.243 8.775,10.948 C8.798,10.66 8.84,10.523 8.886,10.432 C9.006,10.197 9.197,10.006 9.433,9.886 C9.523,9.84 9.66,9.798 9.947,9.775 C10.243,9.751 10.628,9.75 11.2,9.75 L12.8,9.75 C13.372,9.75 13.757,9.751 14.052,9.775 C14.34,9.798 14.477,9.84 14.568,9.886 C14.803,10.006 14.994,10.197 15.114,10.432 C15.16,10.523 15.202,10.66 15.225,10.948 C15.249,11.243 15.25,11.628 15.25,12.2 L15.25,13 C15.25,13.414 15.586,13.75 16,13.75 C16.414,13.75 16.75,13.414 16.75,13 L16.75,12.17 C16.75,11.635 16.75,11.189 16.72,10.825 C16.689,10.445 16.622,10.089 16.45,9.752 C16.187,9.234 15.766,8.813 15.248,8.55 C14.911,8.378 14.555,8.311 14.175,8.28 C13.81,8.25 13.365,8.25 12.831,8.25 L11.169,8.25 C10.635,8.25 10.19,8.25 9.825,8.28 C9.445,8.311 9.089,8.378 8.752,8.55 C8.234,8.813 7.813,9.234 7.55,9.752 C7.378,10.089 7.311,10.445 7.28,10.825 C7.25,11.19 7.25,11.635 7.25,12.169 L7.25,13 C7.25,13.414 7.586,13.75 8,13.75 C8.414,13.75 8.75,13.414 8.75,13 Z M11.47,11.47 L9.47,13.47 C9.177,13.762 9.177,14.237 9.47,14.53 C9.763,14.823 10.237,14.823 10.53,14.53 L11.25,13.811 L11.25,17 C11.25,17.414 11.586,17.75 12,17.75 C12.414,17.75 12.75,17.414 12.75,17 L12.75,13.811 L13.47,14.53 C13.763,14.823 14.237,14.823 14.53,14.53 C14.823,14.237 14.823,13.762 14.53,13.47 L12.53,11.47 C12.237,11.177 11.763,11.177 11.47,11.47 Z"/>
</svg>

