<svg xmlns="http://www.w3.org/2000/svg" viewBox="0 0 24 24">
  <defs/>
  <path fill="#151E28" d="M13.117,2.479 C13.602,2.695 13.961,3.093 14.285,3.55 C14.606,4.004 14.961,4.617 15.399,5.375 L15.418,5.408 L20.868,14.821 L20.887,14.854 C21.327,15.614 21.684,16.229 21.918,16.736 C22.154,17.245 22.321,17.756 22.266,18.285 C22.185,19.061 21.779,19.766 21.148,20.224 C20.718,20.537 20.192,20.648 19.633,20.699 C19.077,20.75 18.366,20.75 17.488,20.75 L6.512,20.75 C5.634,20.75 4.923,20.75 4.367,20.699 C3.808,20.648 3.282,20.537 2.852,20.224 C2.221,19.766 1.815,19.061 1.734,18.285 C1.679,17.756 1.846,17.245 2.082,16.736 C2.316,16.229 2.673,15.614 3.113,14.854 L3.132,14.821 L8.582,5.408 L8.601,5.375 C9.039,4.618 9.394,4.004 9.715,3.55 C10.039,3.093 10.398,2.695 10.883,2.479 C11.594,2.163 12.406,2.163 13.117,2.479 Z M9.227,13.227 C8.934,13.52 8.934,13.995 9.227,14.288 L12.189,17.25 L9.758,17.25 C9.343,17.25 9.008,17.586 9.008,18 C9.008,18.414 9.343,18.75 9.758,18.75 L14,18.75 C14.199,18.75 14.39,18.671 14.531,18.531 C14.671,18.39 14.75,18.199 14.75,18 L14.75,13.758 C14.75,13.343 14.414,13.008 14,13.008 C13.586,13.008 13.25,13.343 13.25,13.758 L13.25,16.19 L10.288,13.227 C9.995,12.934 9.52,12.934 9.227,13.227 Z M9,10.25 C8.586,10.25 8.25,10.586 8.25,11 C8.25,11.414 8.586,11.75 9,11.75 L15,11.75 C15.414,11.75 15.75,11.414 15.75,11 C15.75,10.586 15.414,10.25 15,10.25 Z"/>
</svg>

