<svg xmlns="http://www.w3.org/2000/svg" viewBox="0 0 24 24">
  <defs/>
  <path fill="#151E28" d="M12,1.25 C17.937,1.25 22.75,6.063 22.75,12 C22.75,17.937 17.937,22.75 12,22.75 C6.063,22.75 1.25,17.937 1.25,12 C1.25,6.063 6.063,1.25 12,1.25 Z M7,11.25 C6.586,11.25 6.25,11.586 6.25,12 C6.25,12.414 6.586,12.75 7,12.75 L11.189,12.75 L9.47,14.47 C9.177,14.763 9.177,15.237 9.47,15.53 C9.763,15.823 10.237,15.823 10.53,15.53 L13.53,12.53 C13.671,12.39 13.75,12.199 13.75,12 C13.75,11.801 13.671,11.61 13.53,11.47 L10.53,8.47 C10.237,8.177 9.763,8.177 9.47,8.47 C9.177,8.763 9.177,9.237 9.47,9.53 L11.189,11.25 Z M16.75,15 L16.75,9 C16.75,8.586 16.414,8.25 16,8.25 C15.586,8.25 15.25,8.586 15.25,9 L15.25,15 C15.25,15.414 15.586,15.75 16,15.75 C16.414,15.75 16.75,15.414 16.75,15 Z"/>
</svg>

