<svg xmlns="http://www.w3.org/2000/svg" viewBox="0 0 24 24">
  <defs/>
  <path fill="#151E28" d="M9.367,2.25 L14.633,2.25 C15.725,2.25 16.591,2.25 17.288,2.307 C18.002,2.365 18.605,2.487 19.156,2.768 C20.05,3.223 20.777,3.95 21.232,4.844 C21.513,5.395 21.635,5.998 21.693,6.712 C21.75,7.409 21.75,8.275 21.75,9.367 L21.75,14.633 C21.75,15.725 21.75,16.591 21.693,17.288 C21.635,18.002 21.513,18.605 21.232,19.156 C20.777,20.05 20.05,20.777 19.156,21.232 C18.605,21.513 18.002,21.635 17.288,21.693 C16.591,21.75 15.725,21.75 14.633,21.75 L9.367,21.75 C8.275,21.75 7.409,21.75 6.712,21.693 C5.998,21.635 5.395,21.513 4.844,21.232 C3.95,20.777 3.223,20.05 2.768,19.156 C2.487,18.605 2.365,18.002 2.307,17.288 C2.25,16.591 2.25,15.725 2.25,14.633 L2.25,9.367 C2.25,8.275 2.25,7.409 2.307,6.712 C2.365,5.998 2.487,5.395 2.768,4.844 C3.223,3.95 3.95,3.223 4.844,2.768 C5.395,2.487 5.998,2.365 6.712,2.307 C7.409,2.25 8.275,2.25 9.367,2.25 Z M12.43,6.869 C12.137,6.577 11.662,6.577 11.369,6.869 C11.076,7.162 11.076,7.637 11.369,7.93 L11.699,8.259 C9.216,8.415 7.25,10.478 7.25,13 C7.25,15.623 9.377,17.75 12,17.75 C14.623,17.75 16.75,15.623 16.75,13 C16.75,12.586 16.414,12.25 16,12.25 C15.586,12.25 15.25,12.586 15.25,13 C15.25,14.795 13.795,16.25 12,16.25 C10.205,16.25 8.75,14.795 8.75,13 C8.75,11.316 10.031,9.93 11.673,9.766 L11.37,10.069 C11.077,10.362 11.077,10.837 11.37,11.13 C11.662,11.423 12.137,11.423 12.43,11.13 L14.03,9.53 C14.323,9.237 14.323,8.762 14.03,8.469 Z"/>
</svg>

