<svg xmlns="http://www.w3.org/2000/svg" viewBox="0 0 24 24">
  <defs/>
  <path fill="#151E28" d="M12,1.25 C17.937,1.25 22.75,6.063 22.75,12 C22.75,17.937 17.937,22.75 12,22.75 C6.063,22.75 1.25,17.937 1.25,12 C1.25,6.063 6.063,1.25 12,1.25 Z M9,16.75 C9.414,16.75 9.75,16.414 9.75,16 L9.75,15.8 C9.75,14.948 9.751,14.353 9.788,13.891 C9.825,13.437 9.895,13.176 9.995,12.979 C10.211,12.555 10.555,12.211 10.979,11.995 C11.176,11.895 11.437,11.825 11.891,11.788 C12.353,11.751 12.948,11.75 13.8,11.75 L14.189,11.75 L13.47,12.47 C13.177,12.763 13.177,13.237 13.47,13.53 C13.763,13.823 14.237,13.823 14.53,13.53 L16.53,11.53 C16.823,11.237 16.823,10.763 16.53,10.47 L14.53,8.47 C14.237,8.177 13.763,8.177 13.47,8.47 C13.177,8.763 13.177,9.237 13.47,9.53 L14.189,10.25 L13.768,10.25 C12.955,10.25 12.299,10.25 11.769,10.293 C11.222,10.338 10.742,10.432 10.297,10.659 C9.592,11.018 9.018,11.592 8.659,12.297 C8.432,12.742 8.338,13.222 8.293,13.769 C8.25,14.299 8.25,14.955 8.25,15.768 L8.25,16 C8.25,16.414 8.586,16.75 9,16.75 Z"/>
</svg>

