<svg xmlns="http://www.w3.org/2000/svg" viewBox="0 0 24 24">
  <defs/>
  <path fill="#151E28" d="M9.325,2.25 L14.675,2.25 L14.747,2.25 C15.166,2.25 15.495,2.25 15.814,2.326 C16.094,2.393 16.362,2.504 16.608,2.655 C16.888,2.826 17.121,3.059 17.416,3.356 L17.468,3.407 L20.593,6.532 L20.644,6.584 C20.941,6.879 21.174,7.112 21.345,7.392 C21.496,7.638 21.607,7.906 21.674,8.186 C21.75,8.505 21.75,8.834 21.75,9.253 L21.75,14.747 C21.75,15.166 21.75,15.495 21.674,15.814 C21.607,16.094 21.496,16.362 21.345,16.608 C21.174,16.888 20.941,17.121 20.644,17.416 L17.468,20.593 L17.416,20.644 C17.121,20.941 16.888,21.174 16.608,21.345 C16.362,21.496 16.094,21.607 15.814,21.674 C15.495,21.75 15.166,21.75 14.747,21.75 L9.253,21.75 C8.834,21.75 8.505,21.75 8.186,21.674 C7.906,21.607 7.638,21.496 7.392,21.345 C7.112,21.174 6.879,20.941 6.584,20.644 L6.532,20.593 L3.407,17.468 L3.356,17.416 C3.059,17.121 2.826,16.888 2.655,16.608 C2.504,16.362 2.393,16.094 2.326,15.814 C2.25,15.495 2.25,15.166 2.25,14.747 L2.25,14.675 L2.25,9.325 L2.25,9.253 C2.25,8.834 2.25,8.505 2.326,8.186 C2.393,7.906 2.504,7.638 2.655,7.392 C2.826,7.112 3.059,6.879 3.356,6.584 L3.407,6.532 L6.532,3.407 L6.584,3.356 C6.879,3.059 7.112,2.826 7.392,2.655 C7.638,2.504 7.906,2.393 8.186,2.326 C8.505,2.25 8.834,2.25 9.253,2.25 Z M11.17,7.25 L11.169,7.25 C10.635,7.25 10.19,7.25 9.825,7.28 C9.445,7.311 9.089,7.378 8.752,7.55 C8.234,7.813 7.813,8.234 7.55,8.752 C7.378,9.089 7.311,9.445 7.28,9.825 C7.25,10.19 7.25,10.635 7.25,11.169 L7.25,13.025 C7.25,13.47 7.25,13.841 7.271,14.145 C7.292,14.462 7.339,14.762 7.459,15.052 C7.738,15.726 8.274,16.262 8.948,16.541 C9.33,16.699 9.769,16.517 9.928,16.135 C10.086,15.752 9.904,15.313 9.522,15.155 C9.215,15.028 8.972,14.785 8.845,14.478 C8.813,14.401 8.784,14.284 8.767,14.043 C8.75,13.796 8.75,13.476 8.75,13 L8.75,11.2 C8.75,10.628 8.751,10.243 8.775,9.947 C8.798,9.66 8.84,9.523 8.886,9.433 C9.006,9.197 9.197,9.006 9.433,8.886 C9.523,8.84 9.66,8.798 9.947,8.775 C10.243,8.751 10.628,8.75 11.2,8.75 L13,8.75 C13.476,8.75 13.796,8.75 14.043,8.767 C14.284,8.784 14.401,8.813 14.478,8.845 C14.785,8.972 15.028,9.215 15.155,9.522 C15.313,9.904 15.752,10.086 16.135,9.928 C16.517,9.769 16.699,9.33 16.541,8.948 C16.262,8.274 15.726,7.738 15.052,7.459 C14.762,7.339 14.462,7.292 14.145,7.271 C13.841,7.25 13.47,7.25 13.025,7.25 L11.17,7.25 Z M15.15,12 C15.15,11.586 14.814,11.25 14.4,11.25 L12,11.25 C11.586,11.25 11.25,11.586 11.25,12 L11.25,14.4 C11.25,14.814 11.586,15.15 12,15.15 C12.414,15.15 12.75,14.814 12.75,14.4 L12.75,13.811 L15.47,16.53 C15.763,16.823 16.237,16.823 16.53,16.53 C16.823,16.237 16.823,15.763 16.53,15.47 L13.811,12.75 L14.4,12.75 C14.814,12.75 15.15,12.414 15.15,12 Z"/>
</svg>

