<svg xmlns="http://www.w3.org/2000/svg" viewBox="0 0 24 24">
  <defs/>
  <path fill="#151E28" d="M9.325,2.25 L14.675,2.25 L14.747,2.25 C15.166,2.25 15.495,2.25 15.814,2.326 C16.094,2.393 16.362,2.504 16.608,2.655 C16.888,2.826 17.121,3.059 17.416,3.356 L17.468,3.407 L20.593,6.532 L20.644,6.584 C20.941,6.879 21.174,7.112 21.345,7.392 C21.496,7.638 21.607,7.906 21.674,8.186 C21.75,8.505 21.75,8.834 21.75,9.253 L21.75,14.747 C21.75,15.166 21.75,15.495 21.674,15.814 C21.607,16.094 21.496,16.362 21.345,16.608 C21.174,16.888 20.941,17.121 20.644,17.416 L17.468,20.593 L17.416,20.644 C17.121,20.941 16.888,21.174 16.608,21.345 C16.362,21.496 16.094,21.607 15.814,21.674 C15.495,21.75 15.166,21.75 14.747,21.75 L9.253,21.75 C8.834,21.75 8.505,21.75 8.186,21.674 C7.906,21.607 7.638,21.496 7.392,21.345 C7.112,21.174 6.879,20.941 6.584,20.644 L6.532,20.593 L3.407,17.468 L3.356,17.416 C3.059,17.121 2.826,16.888 2.655,16.608 C2.504,16.362 2.393,16.094 2.326,15.814 C2.25,15.495 2.25,15.166 2.25,14.747 L2.25,14.675 L2.25,9.325 L2.25,9.253 C2.25,8.834 2.25,8.505 2.326,8.186 C2.393,7.906 2.504,7.638 2.655,7.392 C2.826,7.112 3.059,6.879 3.356,6.584 L3.407,6.532 L6.532,3.407 L6.584,3.356 C6.879,3.059 7.112,2.826 7.392,2.655 C7.638,2.504 7.906,2.393 8.186,2.326 C8.505,2.25 8.834,2.25 9.253,2.25 Z M16,16.75 C16.414,16.75 16.75,16.414 16.75,16 L16.75,15.768 C16.75,14.955 16.75,14.299 16.707,13.769 C16.662,13.222 16.568,12.742 16.341,12.297 C15.982,11.592 15.408,11.018 14.703,10.659 C14.258,10.432 13.778,10.338 13.231,10.293 C12.833,10.261 12.363,10.253 11.81,10.251 L12.53,9.53 C12.823,9.237 12.823,8.763 12.53,8.47 C12.237,8.177 11.762,8.177 11.47,8.47 L9.47,10.47 C9.177,10.763 9.177,11.237 9.47,11.53 L11.47,13.53 C11.762,13.823 12.237,13.823 12.53,13.53 C12.823,13.238 12.823,12.763 12.53,12.47 L11.811,11.751 C12.351,11.753 12.766,11.76 13.109,11.788 C13.563,11.825 13.824,11.895 14.021,11.995 C14.445,12.211 14.789,12.555 15.005,12.979 C15.105,13.176 15.175,13.437 15.212,13.891 C15.249,14.353 15.25,14.948 15.25,15.8 L15.25,16 C15.25,16.414 15.586,16.75 16,16.75 Z M9.53,13.53 C9.823,13.238 9.823,12.763 9.53,12.47 L8.061,11 L9.53,9.53 C9.823,9.237 9.823,8.763 9.53,8.47 C9.237,8.177 8.763,8.177 8.47,8.47 L6.47,10.47 C6.177,10.763 6.177,11.237 6.47,11.53 L8.47,13.53 C8.763,13.823 9.237,13.823 9.53,13.53 Z"/>
</svg>

