<svg xmlns="http://www.w3.org/2000/svg" viewBox="0 0 24 24">
  <defs/>
  <path fill="#151E28" d="M12,1.25 C17.937,1.25 22.75,6.063 22.75,12 C22.75,17.937 17.937,22.75 12,22.75 C6.063,22.75 1.25,17.937 1.25,12 C1.25,6.063 6.063,1.25 12,1.25 Z M11.57,6.869 L9.97,8.469 C9.677,8.762 9.677,9.237 9.97,9.53 L11.57,11.13 C11.863,11.423 12.338,11.423 12.63,11.13 C12.923,10.837 12.923,10.362 12.63,10.069 L12.327,9.766 C13.969,9.93 15.25,11.316 15.25,13 C15.25,14.795 13.795,16.25 12,16.25 C10.205,16.25 8.75,14.795 8.75,13 C8.75,12.586 8.414,12.25 8,12.25 C7.586,12.25 7.25,12.586 7.25,13 C7.25,15.623 9.377,17.75 12,17.75 C14.623,17.75 16.75,15.623 16.75,13 C16.75,10.478 14.784,8.415 12.301,8.259 L12.631,7.93 C12.924,7.637 12.924,7.162 12.631,6.869 C12.338,6.577 11.863,6.577 11.57,6.869 Z"/>
</svg>

