<svg xmlns="http://www.w3.org/2000/svg" viewBox="0 0 24 24">
  <defs/>
  <path fill="#151E28" d="M12,1.25 C17.937,1.25 22.75,6.063 22.75,12 C22.75,17.937 17.937,22.75 12,22.75 C6.063,22.75 1.25,17.937 1.25,12 C1.25,6.063 6.063,1.25 12,1.25 Z M8.47,8.47 C8.177,8.763 8.177,9.237 8.47,9.53 L13.189,14.25 L10.5,14.25 C10.086,14.25 9.75,14.586 9.75,15 C9.75,15.414 10.086,15.75 10.5,15.75 L15,15.75 C15.414,15.75 15.75,15.414 15.75,15 L15.75,10.5 C15.75,10.086 15.414,9.75 15,9.75 C14.586,9.75 14.25,10.086 14.25,10.5 L14.25,13.189 L9.53,8.47 C9.237,8.177 8.763,8.177 8.47,8.47 Z"/>
</svg>

