<svg xmlns="http://www.w3.org/2000/svg" viewBox="0 0 24 24">
  <defs/>
  <path fill="#151E28" d="M9.367,2.25 L14.633,2.25 C15.725,2.25 16.591,2.25 17.288,2.307 C18.002,2.365 18.605,2.487 19.156,2.768 C20.05,3.223 20.777,3.95 21.232,4.844 C21.513,5.395 21.635,5.998 21.693,6.712 C21.75,7.409 21.75,8.275 21.75,9.367 L21.75,14.633 C21.75,15.725 21.75,16.591 21.693,17.288 C21.635,18.002 21.513,18.605 21.232,19.156 C20.777,20.05 20.05,20.777 19.156,21.232 C18.605,21.513 18.002,21.635 17.288,21.693 C16.591,21.75 15.725,21.75 14.633,21.75 L9.367,21.75 C8.275,21.75 7.409,21.75 6.712,21.693 C5.998,21.635 5.395,21.513 4.844,21.232 C3.95,20.777 3.223,20.05 2.768,19.156 C2.487,18.605 2.365,18.002 2.307,17.288 C2.25,16.591 2.25,15.725 2.25,14.633 L2.25,9.367 C2.25,8.275 2.25,7.409 2.307,6.712 C2.365,5.998 2.487,5.395 2.768,4.844 C3.223,3.95 3.95,3.223 4.844,2.768 C5.395,2.487 5.998,2.365 6.712,2.307 C7.409,2.25 8.275,2.25 9.367,2.25 Z M7,11.25 C6.586,11.25 6.25,11.586 6.25,12 C6.25,12.414 6.586,12.75 7,12.75 L11.189,12.75 L9.47,14.47 C9.177,14.763 9.177,15.237 9.47,15.53 C9.763,15.823 10.237,15.823 10.53,15.53 L13.53,12.53 C13.671,12.39 13.75,12.199 13.75,12 C13.75,11.801 13.671,11.61 13.53,11.47 L10.53,8.47 C10.237,8.177 9.763,8.177 9.47,8.47 C9.177,8.763 9.177,9.237 9.47,9.53 L11.189,11.25 Z M16.75,9 C16.75,8.586 16.414,8.25 16,8.25 C15.586,8.25 15.25,8.586 15.25,9 L15.25,15 C15.25,15.414 15.586,15.75 16,15.75 C16.414,15.75 16.75,15.414 16.75,15 Z"/>
</svg>

