<svg xmlns="http://www.w3.org/2000/svg" viewBox="0 0 24 24">
  <defs/>
  <path fill="#151E28" d="M12,1.25 C17.937,1.25 22.75,6.063 22.75,12 C22.75,17.937 17.937,22.75 12,22.75 C6.063,22.75 1.25,17.937 1.25,12 C1.25,6.063 6.063,1.25 12,1.25 Z M12.75,12.811 L14.47,14.53 C14.763,14.823 15.237,14.823 15.53,14.53 C15.823,14.238 15.823,13.763 15.53,13.47 L12.53,10.47 C12.39,10.329 12.199,10.25 12,10.25 C11.801,10.25 11.61,10.329 11.47,10.47 L8.47,13.47 C8.177,13.763 8.177,14.238 8.47,14.53 C8.763,14.823 9.237,14.823 9.53,14.53 L11.25,12.811 L11.25,17 C11.25,17.414 11.586,17.75 12,17.75 C12.414,17.75 12.75,17.414 12.75,17 Z M9,7.25 C8.586,7.25 8.25,7.586 8.25,8 C8.25,8.414 8.586,8.75 9,8.75 L15,8.75 C15.414,8.75 15.75,8.414 15.75,8 C15.75,7.586 15.414,7.25 15,7.25 Z"/>
</svg>

