<svg xmlns="http://www.w3.org/2000/svg" viewBox="0 0 24 24">
  <defs/>
  <path fill="#151E28" d="M13.117,2.479 C13.602,2.695 13.961,3.093 14.285,3.55 C14.606,4.004 14.961,4.617 15.399,5.375 L15.418,5.408 L20.868,14.821 L20.887,14.854 C21.327,15.614 21.684,16.229 21.918,16.736 C22.154,17.245 22.321,17.756 22.266,18.285 C22.185,19.061 21.779,19.766 21.148,20.224 C20.718,20.537 20.192,20.648 19.633,20.699 C19.077,20.75 18.366,20.75 17.488,20.75 L6.512,20.75 C5.634,20.75 4.923,20.75 4.367,20.699 C3.808,20.648 3.282,20.537 2.852,20.224 C2.221,19.766 1.815,19.061 1.734,18.285 C1.679,17.756 1.846,17.245 2.082,16.736 C2.316,16.229 2.673,15.614 3.113,14.854 L3.132,14.821 L8.582,5.408 L8.601,5.375 C9.039,4.618 9.394,4.004 9.715,3.55 C10.039,3.093 10.398,2.695 10.883,2.479 C11.594,2.163 12.406,2.163 13.117,2.479 Z M16.5,14.25 L13.811,14.25 L15.03,13.03 C15.323,12.737 15.323,12.262 15.03,11.97 C14.737,11.677 14.263,11.677 13.97,11.97 L11.47,14.47 C11.177,14.762 11.177,15.237 11.47,15.53 L13.97,18.03 C14.263,18.323 14.737,18.323 15.03,18.03 C15.323,17.737 15.323,17.263 15.03,16.97 L13.811,15.75 L16.5,15.75 C16.914,15.75 17.25,15.414 17.25,15 C17.25,14.586 16.914,14.25 16.5,14.25 Z M9,17.75 C9.414,17.75 9.75,17.414 9.75,17 L9.75,13 C9.75,12.586 9.414,12.25 9,12.25 C8.586,12.25 8.25,12.586 8.25,13 L8.25,17 C8.25,17.414 8.586,17.75 9,17.75 Z"/>
</svg>

