<svg xmlns="http://www.w3.org/2000/svg" viewBox="0 0 24 24">
  <defs/>
  <path fill="#151E28" d="M13.117,2.479 C13.602,2.695 13.961,3.093 14.285,3.55 C14.606,4.004 14.961,4.617 15.399,5.375 L15.399,5.375 L15.418,5.408 L20.868,14.821 L20.887,14.854 C21.327,15.614 21.684,16.229 21.918,16.736 C22.154,17.245 22.321,17.756 22.266,18.285 C22.185,19.061 21.779,19.766 21.148,20.224 C20.718,20.537 20.192,20.648 19.633,20.699 C19.077,20.75 18.366,20.75 17.488,20.75 L6.512,20.75 C5.634,20.75 4.923,20.75 4.367,20.699 C3.808,20.648 3.282,20.537 2.852,20.224 C2.221,19.766 1.815,19.061 1.734,18.285 C1.679,17.756 1.846,17.245 2.082,16.736 C2.316,16.229 2.673,15.614 3.113,14.854 L3.132,14.821 L8.582,5.408 L8.601,5.375 C9.039,4.618 9.394,4.004 9.715,3.55 C10.039,3.093 10.398,2.695 10.883,2.479 C11.594,2.163 12.406,2.163 13.117,2.479 Z M6.97,14.97 C6.677,15.262 6.677,15.737 6.97,16.03 L8.97,18.03 C9.263,18.323 9.737,18.323 10.03,18.03 L12.03,16.03 C12.323,15.737 12.323,15.262 12.03,14.97 C11.737,14.677 11.262,14.677 10.97,14.97 L10.25,15.689 L10.25,13.5 C10.25,12.257 11.257,11.25 12.5,11.25 C13.743,11.25 14.75,12.257 14.75,13.5 L14.75,14.5 C14.75,14.914 15.086,15.25 15.5,15.25 C15.914,15.25 16.25,14.914 16.25,14.5 L16.25,13.5 C16.25,11.429 14.571,9.75 12.5,9.75 C10.429,9.75 8.75,11.429 8.75,13.5 L8.75,15.689 L8.03,14.97 C7.737,14.677 7.263,14.677 6.97,14.97 Z"/>
</svg>

