<svg xmlns="http://www.w3.org/2000/svg" viewBox="0 0 24 24">
  <defs/>
  <path fill="#151E28" d="M9.367,2.25 L14.633,2.25 C15.725,2.25 16.591,2.25 17.288,2.307 C18.002,2.365 18.605,2.487 19.156,2.768 C20.05,3.223 20.777,3.95 21.232,4.844 C21.513,5.395 21.635,5.998 21.693,6.712 C21.75,7.409 21.75,8.275 21.75,9.367 L21.75,14.633 C21.75,15.725 21.75,16.591 21.693,17.288 C21.635,18.002 21.513,18.605 21.232,19.156 C20.777,20.05 20.05,20.777 19.156,21.232 C18.605,21.513 18.002,21.635 17.288,21.693 C16.591,21.75 15.725,21.75 14.633,21.75 L9.367,21.75 C8.275,21.75 7.409,21.75 6.712,21.693 C5.998,21.635 5.395,21.513 4.844,21.232 C3.95,20.777 3.223,20.05 2.768,19.156 C2.487,18.605 2.365,18.002 2.307,17.288 C2.25,16.591 2.25,15.725 2.25,14.633 L2.25,9.367 C2.25,8.275 2.25,7.409 2.307,6.712 C2.365,5.998 2.487,5.395 2.768,4.844 C3.223,3.95 3.95,3.223 4.844,2.768 C5.395,2.487 5.998,2.365 6.712,2.307 C7.409,2.25 8.275,2.25 9.367,2.25 Z M12.889,16.75 L12.917,16.75 C13.411,16.75 13.824,16.75 14.162,16.724 C14.514,16.698 14.845,16.64 15.162,16.492 C15.748,16.219 16.219,15.748 16.492,15.162 C16.64,14.845 16.698,14.514 16.724,14.162 C16.75,13.824 16.75,13.411 16.75,12.917 L16.75,11.17 C16.75,10.635 16.75,10.19 16.72,9.825 C16.689,9.445 16.622,9.089 16.45,8.752 C16.187,8.234 15.766,7.813 15.248,7.55 C14.911,7.378 14.555,7.311 14.175,7.28 C13.811,7.25 13.365,7.25 12.831,7.25 L11.083,7.25 C10.589,7.25 10.176,7.25 9.838,7.276 C9.486,7.302 9.155,7.36 8.838,7.508 C8.252,7.781 7.781,8.252 7.508,8.838 C7.36,9.155 7.302,9.486 7.276,9.838 C7.25,10.176 7.25,10.589 7.25,11.083 L7.25,11.111 C7.25,11.525 7.586,11.861 8,11.861 C8.414,11.861 8.75,11.525 8.75,11.111 C8.75,10.582 8.75,10.226 8.771,9.952 C8.791,9.685 8.828,9.556 8.867,9.472 C8.991,9.205 9.205,8.991 9.472,8.867 C9.556,8.828 9.685,8.791 9.952,8.771 C10.226,8.75 10.582,8.75 11.111,8.75 L12.8,8.75 C13.372,8.75 13.757,8.751 14.052,8.775 C14.34,8.798 14.477,8.84 14.568,8.886 C14.803,9.006 14.994,9.197 15.114,9.433 C15.16,9.523 15.202,9.66 15.225,9.947 C15.249,10.243 15.25,10.628 15.25,11.2 L15.25,12.889 C15.25,13.418 15.25,13.774 15.229,14.048 C15.208,14.315 15.172,14.443 15.133,14.528 C15.009,14.795 14.795,15.009 14.528,15.133 C14.443,15.172 14.315,15.208 14.048,15.229 C13.774,15.25 13.418,15.25 12.889,15.25 C12.475,15.25 12.139,15.586 12.139,16 C12.139,16.414 12.475,16.75 12.889,16.75 Z M9.763,15.297 L11.297,13.763 C11.404,14.047 11.678,14.25 12,14.25 C12.414,14.25 12.75,13.914 12.75,13.5 L12.75,12 C12.75,11.586 12.414,11.25 12,11.25 L10.5,11.25 C10.086,11.25 9.75,11.586 9.75,12 C9.75,12.322 9.952,12.596 10.237,12.703 L8.703,14.237 C8.596,13.952 8.322,13.75 8,13.75 C7.586,13.75 7.25,14.086 7.25,14.5 L7.25,16 C7.25,16.414 7.586,16.75 8,16.75 L9.5,16.75 C9.914,16.75 10.25,16.414 10.25,16 C10.25,15.678 10.048,15.404 9.763,15.297 Z"/>
</svg>

