<svg xmlns="http://www.w3.org/2000/svg" viewBox="0 0 24 24">
  <defs/>
  <path fill="#151E28" d="M12,1.25 C17.937,1.25 22.75,6.063 22.75,12 C22.75,17.937 17.937,22.75 12,22.75 C6.063,22.75 1.25,17.937 1.25,12 C1.25,6.063 6.063,1.25 12,1.25 Z M10.53,7.47 C10.237,7.177 9.763,7.177 9.47,7.47 L7.47,9.47 C7.177,9.763 7.177,10.237 7.47,10.53 L9.47,12.53 C9.763,12.823 10.237,12.823 10.53,12.53 C10.823,12.237 10.823,11.763 10.53,11.47 L9.811,10.75 L13,10.75 C14.243,10.75 15.25,11.757 15.25,13 C15.25,14.243 14.243,15.25 13,15.25 L11,15.25 C10.586,15.25 10.25,15.586 10.25,16 C10.25,16.414 10.586,16.75 11,16.75 L13,16.75 C15.071,16.75 16.75,15.071 16.75,13 C16.75,10.929 15.071,9.25 13,9.25 L9.811,9.25 L10.53,8.53 C10.823,8.237 10.823,7.763 10.53,7.47 Z"/>
</svg>

