<svg xmlns="http://www.w3.org/2000/svg" viewBox="0 0 24 24">
  <defs/>
  <path fill="#151E28" d="M12,1.25 C17.937,1.25 22.75,6.063 22.75,12 C22.75,17.937 17.937,22.75 12,22.75 C6.063,22.75 1.25,17.937 1.25,12 C1.25,6.063 6.063,1.25 12,1.25 Z M8.25,9 C8.25,9.414 8.586,9.75 9,9.75 L9.2,9.75 C10.052,9.75 10.647,9.751 11.109,9.788 C11.563,9.825 11.824,9.895 12.021,9.995 C12.445,10.211 12.789,10.555 13.005,10.979 C13.105,11.176 13.175,11.437 13.212,11.891 C13.249,12.353 13.25,12.948 13.25,13.8 L13.25,14.189 L12.53,13.47 C12.237,13.177 11.763,13.177 11.47,13.47 C11.177,13.763 11.177,14.237 11.47,14.53 L13.47,16.53 C13.763,16.823 14.237,16.823 14.53,16.53 L16.53,14.53 C16.823,14.237 16.823,13.763 16.53,13.47 C16.237,13.177 15.763,13.177 15.47,13.47 L14.75,14.189 L14.75,13.768 C14.75,12.955 14.75,12.299 14.707,11.769 C14.662,11.222 14.568,10.742 14.341,10.297 C13.982,9.592 13.408,9.018 12.703,8.659 C12.258,8.432 11.778,8.338 11.231,8.293 C10.701,8.25 10.045,8.25 9.232,8.25 L9,8.25 C8.586,8.25 8.25,8.586 8.25,9 Z"/>
</svg>

