<svg xmlns="http://www.w3.org/2000/svg" viewBox="0 0 24 24">
  <defs/>
  <path fill="#151E28" d="M13.117,2.479 C13.602,2.695 13.961,3.093 14.285,3.55 C14.606,4.004 14.961,4.617 15.399,5.375 L15.418,5.408 L20.868,14.821 L20.887,14.854 C21.327,15.614 21.684,16.229 21.918,16.736 C22.154,17.245 22.321,17.756 22.266,18.285 C22.185,19.061 21.779,19.766 21.148,20.224 C20.718,20.537 20.192,20.648 19.633,20.699 C19.077,20.75 18.366,20.75 17.488,20.75 L6.512,20.75 C5.634,20.75 4.923,20.75 4.367,20.699 C3.808,20.648 3.282,20.537 2.852,20.224 C2.221,19.766 1.815,19.061 1.734,18.285 C1.679,17.756 1.846,17.245 2.082,16.736 C2.316,16.229 2.673,15.614 3.113,14.854 L3.132,14.821 L8.582,5.408 L8.601,5.375 C9.039,4.618 9.394,4.004 9.715,3.55 C10.039,3.093 10.398,2.695 10.883,2.479 C11.594,2.163 12.406,2.163 13.117,2.479 Z M13.889,10.25 C13.475,10.25 13.139,10.586 13.139,11 C13.139,11.414 13.475,11.75 13.889,11.75 C14,11.75 14.031,11.75 14.054,11.751 C14.702,11.779 15.22,12.298 15.249,12.946 C15.25,12.969 15.25,13 15.25,13.111 L15.25,14.8 C15.25,15.372 15.249,15.757 15.225,16.052 C15.202,16.34 15.16,16.477 15.114,16.567 C14.994,16.803 14.803,16.994 14.568,17.114 C14.477,17.16 14.34,17.202 14.052,17.225 C13.757,17.249 13.372,17.25 12.8,17.25 L11.111,17.25 C11,17.25 10.969,17.25 10.946,17.249 C10.298,17.221 9.779,16.702 9.751,16.055 C9.75,16.031 9.75,16 9.75,15.889 C9.75,15.475 9.414,15.139 9,15.139 C8.586,15.139 8.25,15.475 8.25,15.889 L8.25,15.905 C8.25,15.993 8.25,16.06 8.253,16.12 C8.315,17.545 9.456,18.685 10.88,18.747 C10.94,18.75 11.008,18.75 11.095,18.75 L12.83,18.75 C13.365,18.75 13.81,18.75 14.175,18.72 C14.555,18.689 14.911,18.622 15.248,18.45 C15.766,18.187 16.187,17.766 16.45,17.249 C16.622,16.911 16.689,16.555 16.72,16.175 C16.75,15.81 16.75,15.365 16.75,14.83 L16.75,13.095 C16.75,13.007 16.75,12.94 16.747,12.88 C16.685,11.455 15.545,10.315 14.12,10.253 C14.06,10.25 13.992,10.25 13.905,10.25 Z M11,11.75 C11.414,11.75 11.75,11.414 11.75,11 C11.75,10.586 11.414,10.25 11,10.25 L9,10.25 C8.586,10.25 8.25,10.586 8.25,11 L8.25,13 C8.25,13.414 8.586,13.75 9,13.75 C9.414,13.75 9.75,13.414 9.75,13 L9.75,12.811 L12.47,15.53 C12.763,15.823 13.237,15.823 13.53,15.53 C13.823,15.238 13.823,14.763 13.53,14.47 L10.811,11.75 Z"/>
</svg>

