<svg xmlns="http://www.w3.org/2000/svg" viewBox="0 0 24 24">
  <defs/>
  <path fill="#151E28" d="M9.367,2.25 L14.633,2.25 C15.725,2.25 16.591,2.25 17.288,2.307 C18.002,2.365 18.605,2.487 19.156,2.768 C20.05,3.223 20.777,3.95 21.232,4.844 C21.513,5.395 21.635,5.998 21.693,6.712 C21.75,7.409 21.75,8.275 21.75,9.367 L21.75,14.633 C21.75,15.725 21.75,16.591 21.693,17.288 C21.635,18.002 21.513,18.605 21.232,19.156 C20.777,20.05 20.05,20.777 19.156,21.232 C18.605,21.513 18.002,21.635 17.288,21.693 C16.591,21.75 15.725,21.75 14.633,21.75 L9.367,21.75 C8.275,21.75 7.409,21.75 6.712,21.693 C5.998,21.635 5.395,21.513 4.844,21.232 C3.95,20.777 3.223,20.05 2.768,19.156 C2.487,18.605 2.365,18.002 2.307,17.288 C2.25,16.591 2.25,15.725 2.25,14.633 L2.25,9.367 C2.25,8.275 2.25,7.409 2.307,6.712 C2.365,5.998 2.487,5.395 2.768,4.844 C3.223,3.95 3.95,3.223 4.844,2.768 C5.395,2.487 5.998,2.365 6.712,2.307 C7.409,2.25 8.275,2.25 9.367,2.25 Z M15,16.75 C15.414,16.75 15.75,16.414 15.75,16 L15.75,15.768 C15.75,14.955 15.75,14.299 15.707,13.769 C15.662,13.222 15.568,12.742 15.341,12.297 C14.982,11.592 14.408,11.018 13.703,10.659 C13.258,10.432 12.778,10.338 12.231,10.293 C11.701,10.25 11.045,10.25 10.232,10.25 L9.811,10.25 L10.53,9.53 C10.823,9.237 10.823,8.763 10.53,8.47 C10.237,8.177 9.763,8.177 9.47,8.47 L7.47,10.47 C7.177,10.763 7.177,11.237 7.47,11.53 L9.47,13.53 C9.763,13.823 10.237,13.823 10.53,13.53 C10.823,13.237 10.823,12.763 10.53,12.47 L9.811,11.75 L10.2,11.75 C11.052,11.75 11.647,11.751 12.109,11.788 C12.563,11.825 12.824,11.895 13.021,11.995 C13.445,12.211 13.789,12.555 14.005,12.979 C14.105,13.176 14.175,13.437 14.212,13.891 C14.249,14.353 14.25,14.948 14.25,15.8 L14.25,16 C14.25,16.414 14.586,16.75 15,16.75 Z"/>
</svg>

