<svg xmlns="http://www.w3.org/2000/svg" viewBox="0 0 24 24">
  <defs/>
  <path fill="#151E28" d="M9.367,2.25 L14.633,2.25 C15.725,2.25 16.591,2.25 17.288,2.307 C18.002,2.365 18.605,2.487 19.156,2.768 C20.05,3.223 20.777,3.95 21.232,4.844 C21.513,5.395 21.635,5.998 21.693,6.712 C21.75,7.409 21.75,8.275 21.75,9.367 L21.75,14.633 C21.75,15.725 21.75,16.591 21.693,17.288 C21.635,18.002 21.513,18.605 21.232,19.156 C20.777,20.05 20.05,20.777 19.156,21.232 C18.605,21.513 18.002,21.635 17.288,21.693 C16.591,21.75 15.725,21.75 14.633,21.75 L9.367,21.75 C8.275,21.75 7.409,21.75 6.712,21.693 C5.998,21.635 5.395,21.513 4.844,21.232 C3.95,20.777 3.223,20.05 2.768,19.156 C2.487,18.605 2.365,18.002 2.307,17.288 C2.25,16.591 2.25,15.725 2.25,14.633 L2.25,9.367 C2.25,8.275 2.25,7.409 2.307,6.712 C2.365,5.998 2.487,5.395 2.768,4.844 C3.223,3.95 3.95,3.223 4.844,2.768 C5.395,2.487 5.998,2.365 6.712,2.307 C7.409,2.25 8.275,2.25 9.367,2.25 Z M11.111,16.75 C11.525,16.75 11.861,16.414 11.861,16 C11.861,15.586 11.525,15.25 11.111,15.25 C10.582,15.25 10.226,15.25 9.952,15.229 C9.685,15.208 9.556,15.172 9.472,15.133 C9.205,15.009 8.991,14.795 8.867,14.528 C8.828,14.443 8.791,14.315 8.771,14.048 C8.75,13.774 8.75,13.418 8.75,12.889 L8.75,11.2 C8.75,10.628 8.751,10.243 8.775,9.947 C8.798,9.66 8.84,9.523 8.886,9.433 C9.006,9.197 9.197,9.006 9.433,8.886 C9.523,8.84 9.66,8.798 9.947,8.775 C10.243,8.751 10.628,8.75 11.2,8.75 L12.889,8.75 C13.418,8.75 13.774,8.75 14.048,8.771 C14.315,8.791 14.443,8.828 14.528,8.867 C14.795,8.991 15.009,9.205 15.133,9.472 C15.172,9.556 15.208,9.685 15.229,9.952 C15.25,10.226 15.25,10.582 15.25,11.111 C15.25,11.525 15.586,11.861 16,11.861 C16.414,11.861 16.75,11.525 16.75,11.111 L16.75,11.083 C16.75,10.589 16.75,10.176 16.724,9.838 C16.698,9.486 16.64,9.155 16.492,8.838 C16.219,8.252 15.748,7.781 15.162,7.508 C14.845,7.36 14.514,7.302 14.162,7.276 C13.824,7.25 13.411,7.25 12.917,7.25 L11.169,7.25 C10.635,7.25 10.189,7.25 9.825,7.28 C9.445,7.311 9.089,7.378 8.752,7.55 C8.234,7.813 7.813,8.234 7.55,8.752 C7.378,9.089 7.311,9.445 7.28,9.825 C7.25,10.19 7.25,10.635 7.25,11.169 L7.25,12.917 C7.25,13.411 7.25,13.824 7.276,14.162 C7.302,14.514 7.36,14.845 7.508,15.162 C7.781,15.748 8.252,16.219 8.838,16.492 C9.155,16.64 9.486,16.698 9.838,16.724 C10.176,16.75 10.589,16.75 11.083,16.75 Z M14.5,16.75 L16,16.75 C16.199,16.75 16.39,16.671 16.53,16.53 C16.671,16.39 16.75,16.199 16.75,16 L16.75,14.5 C16.75,14.086 16.414,13.75 16,13.75 C15.678,13.75 15.404,13.952 15.297,14.237 L13.763,12.703 C14.048,12.596 14.25,12.322 14.25,12 C14.25,11.586 13.914,11.25 13.5,11.25 L12,11.25 C11.586,11.25 11.25,11.586 11.25,12 L11.25,13.5 C11.25,13.914 11.586,14.25 12,14.25 C12.322,14.25 12.596,14.047 12.703,13.763 L14.237,15.297 C13.952,15.404 13.75,15.678 13.75,16 C13.75,16.414 14.086,16.75 14.5,16.75 Z"/>
</svg>

