<svg xmlns="http://www.w3.org/2000/svg" viewBox="0 0 24 24">
  <defs/>
  <path fill="#151E28" d="M9.367,2.25 L14.633,2.25 C15.725,2.25 16.591,2.25 17.288,2.307 C18.002,2.365 18.605,2.487 19.156,2.768 C20.05,3.223 20.777,3.95 21.232,4.844 C21.513,5.395 21.635,5.998 21.693,6.712 C21.75,7.409 21.75,8.275 21.75,9.367 L21.75,14.633 C21.75,15.725 21.75,16.591 21.693,17.288 C21.635,18.002 21.513,18.605 21.232,19.156 C20.777,20.05 20.05,20.777 19.156,21.232 C18.605,21.513 18.002,21.635 17.288,21.693 C16.591,21.75 15.725,21.75 14.633,21.75 L9.367,21.75 C8.275,21.75 7.409,21.75 6.712,21.693 C5.998,21.635 5.395,21.513 4.844,21.232 C3.95,20.777 3.223,20.05 2.768,19.156 C2.487,18.605 2.365,18.002 2.307,17.288 C2.25,16.591 2.25,15.725 2.25,14.633 L2.25,9.367 C2.25,8.275 2.25,7.409 2.307,6.712 C2.365,5.998 2.487,5.395 2.768,4.844 C3.223,3.95 3.95,3.223 4.844,2.768 C5.395,2.487 5.998,2.365 6.712,2.307 C7.409,2.25 8.275,2.25 9.367,2.25 Z M8.25,14 C8.25,14.967 9.033,15.75 10,15.75 L13.476,15.75 C15.062,15.75 15.83,13.811 14.675,12.725 L14.563,12.619 L14.909,12.273 C15.592,11.59 15.592,10.481 14.909,9.798 L14.202,9.091 C13.519,8.408 12.41,8.408 11.727,9.091 L11.381,9.437 L11.275,9.325 C10.189,8.17 8.25,8.938 8.25,10.524 Z M10,14.25 C9.862,14.25 9.75,14.138 9.75,14 L9.75,10.524 C9.75,10.297 10.027,10.187 10.182,10.352 L10.818,11.028 C10.957,11.176 11.15,11.261 11.353,11.264 C11.556,11.268 11.751,11.188 11.894,11.045 L12.788,10.152 C12.885,10.054 13.044,10.054 13.141,10.152 L13.848,10.859 C13.946,10.956 13.946,11.115 13.848,11.212 L12.955,12.106 C12.812,12.249 12.733,12.444 12.736,12.647 C12.739,12.85 12.824,13.043 12.972,13.182 L13.648,13.818 C13.813,13.973 13.703,14.25 13.476,14.25 Z M13.848,6.97 C13.556,7.263 13.556,7.737 13.848,8.03 L15.97,10.152 C16.263,10.445 16.737,10.445 17.03,10.152 C17.323,9.859 17.323,9.384 17.03,9.091 L14.909,6.97 C14.616,6.677 14.141,6.677 13.848,6.97 Z"/>
</svg>

