<svg xmlns="http://www.w3.org/2000/svg" viewBox="0 0 24 24">
  <defs/>
  <path fill="#151E28" d="M9.367,2.25 L14.633,2.25 C15.725,2.25 16.591,2.25 17.288,2.307 C18.002,2.365 18.605,2.487 19.156,2.768 C20.05,3.223 20.777,3.95 21.232,4.844 C21.513,5.395 21.635,5.998 21.693,6.712 C21.75,7.409 21.75,8.275 21.75,9.367 L21.75,14.633 C21.75,15.725 21.75,16.591 21.693,17.288 C21.635,18.002 21.513,18.605 21.232,19.156 C20.777,20.05 20.05,20.777 19.156,21.232 C18.605,21.513 18.002,21.635 17.288,21.693 C16.591,21.75 15.725,21.75 14.633,21.75 L9.367,21.75 C8.275,21.75 7.409,21.75 6.712,21.693 C5.998,21.635 5.395,21.513 4.844,21.232 C3.95,20.777 3.223,20.05 2.768,19.156 C2.487,18.605 2.365,18.002 2.307,17.288 C2.25,16.591 2.25,15.725 2.25,14.633 L2.25,9.367 C2.25,8.275 2.25,7.409 2.307,6.712 C2.365,5.998 2.487,5.395 2.768,4.844 C3.223,3.95 3.95,3.223 4.844,2.768 C5.395,2.487 5.998,2.365 6.712,2.307 C7.409,2.25 8.275,2.25 9.367,2.25 Z M7.543,9.745 L7.45,13.174 C7.407,14.755 9.318,15.577 10.437,14.459 L10.607,14.289 L10.97,14.652 C11.653,15.335 12.761,15.335 13.444,14.652 L14.152,13.944 C14.835,13.261 14.835,12.153 14.152,11.47 L13.789,11.107 L13.959,10.937 C15.077,9.818 14.255,7.907 12.674,7.95 L9.245,8.043 C8.315,8.068 7.568,8.815 7.543,9.745 Z M9.285,9.542 L12.715,9.449 C12.941,9.443 13.058,9.716 12.898,9.876 L12.198,10.576 C11.905,10.869 11.905,11.344 12.198,11.637 L13.091,12.53 C13.189,12.628 13.189,12.786 13.091,12.884 L12.384,13.591 C12.286,13.689 12.128,13.689 12.03,13.591 L11.137,12.698 C10.844,12.405 10.369,12.405 10.076,12.698 L9.376,13.398 C9.216,13.558 8.943,13.441 8.949,13.215 L9.042,9.785 C9.046,9.652 9.153,9.546 9.285,9.542 Z M13.091,16.773 C13.384,17.066 13.859,17.066 14.152,16.773 L16.273,14.652 C16.566,14.359 16.566,13.884 16.273,13.591 C15.98,13.298 15.505,13.298 15.212,13.591 L13.091,15.712 C12.798,16.005 12.798,16.48 13.091,16.773 Z"/>
</svg>

