<svg xmlns="http://www.w3.org/2000/svg" viewBox="0 0 24 24">
  <defs/>
  <path fill="#151E28" d="M13.117,2.479 C13.602,2.695 13.961,3.093 14.285,3.55 C14.606,4.004 14.961,4.617 15.399,5.375 L15.399,5.375 L15.418,5.408 L20.868,14.821 L20.887,14.854 C21.327,15.614 21.684,16.229 21.918,16.736 C22.154,17.245 22.321,17.756 22.266,18.285 C22.185,19.061 21.779,19.766 21.148,20.224 C20.718,20.537 20.192,20.648 19.633,20.699 C19.077,20.75 18.366,20.75 17.488,20.75 L6.512,20.75 C5.634,20.75 4.923,20.75 4.367,20.699 C3.808,20.648 3.282,20.537 2.852,20.224 C2.221,19.766 1.815,19.061 1.734,18.285 C1.679,17.756 1.846,17.245 2.082,16.736 C2.316,16.229 2.673,15.614 3.113,14.854 L3.132,14.821 L8.582,5.408 L8.601,5.375 C9.039,4.618 9.394,4.004 9.715,3.55 C10.039,3.093 10.398,2.695 10.883,2.479 C11.594,2.163 12.406,2.163 13.117,2.479 Z M11.308,9.47 C11.015,9.177 10.54,9.177 10.247,9.47 L8.47,11.247 C8.177,11.54 8.177,12.015 8.47,12.308 L10.247,14.086 C10.54,14.379 11.015,14.379 11.308,14.086 C11.601,13.793 11.601,13.318 11.308,13.025 L10.811,12.528 L14.222,12.528 C14.636,12.528 14.972,12.192 14.972,11.778 C14.972,11.363 14.636,11.028 14.222,11.028 L10.811,11.028 L11.308,10.53 C11.601,10.237 11.601,9.763 11.308,9.47 Z M12.692,13.914 C12.399,14.207 12.399,14.682 12.692,14.975 L13.189,15.472 L9.778,15.472 C9.364,15.472 9.028,15.808 9.028,16.222 C9.028,16.636 9.364,16.972 9.778,16.972 L13.189,16.972 L12.692,17.47 C12.399,17.763 12.399,18.237 12.692,18.53 C12.985,18.823 13.46,18.823 13.752,18.53 L15.53,16.753 C15.823,16.46 15.823,15.985 15.53,15.692 L13.752,13.914 C13.46,13.621 12.985,13.621 12.692,13.914 Z"/>
</svg>

