<svg xmlns="http://www.w3.org/2000/svg" viewBox="0 0 24 24">
  <defs/>
  <path fill="#151E28" d="M12,1.25 C17.937,1.25 22.75,6.063 22.75,12 C22.75,17.937 17.937,22.75 12,22.75 C6.063,22.75 1.25,17.937 1.25,12 C1.25,6.063 6.063,1.25 12,1.25 Z M9.227,12.773 C9.52,13.066 9.995,13.066 10.288,12.773 L13.25,9.81 L13.25,12.243 C13.25,12.657 13.586,12.993 14,12.993 C14.414,12.993 14.75,12.657 14.75,12.243 L14.75,8 C14.75,7.801 14.671,7.61 14.531,7.47 C14.39,7.329 14.199,7.25 14,7.25 L9.758,7.25 C9.343,7.25 9.008,7.586 9.008,8 C9.008,8.414 9.343,8.75 9.758,8.75 L12.189,8.75 L9.227,11.712 C8.934,12.005 8.934,12.48 9.227,12.773 Z M8.25,16 C8.25,16.414 8.586,16.75 9,16.75 L15,16.75 C15.414,16.75 15.75,16.414 15.75,16 C15.75,15.586 15.414,15.25 15,15.25 L9,15.25 C8.586,15.25 8.25,15.586 8.25,16 Z"/>
</svg>

