<svg xmlns="http://www.w3.org/2000/svg" viewBox="0 0 24 24">
  <defs/>
  <path fill="#151E28" d="M13.117,2.479 C13.602,2.695 13.961,3.093 14.285,3.55 C14.606,4.004 14.961,4.617 15.399,5.375 L15.399,5.375 L15.418,5.408 L20.868,14.821 L20.887,14.854 C21.327,15.614 21.684,16.229 21.918,16.736 C22.154,17.245 22.321,17.756 22.266,18.285 C22.185,19.061 21.779,19.766 21.148,20.224 C20.718,20.537 20.192,20.648 19.633,20.699 C19.077,20.75 18.366,20.75 17.488,20.75 L6.512,20.75 C5.634,20.75 4.923,20.75 4.367,20.699 C3.808,20.648 3.282,20.537 2.852,20.224 C2.221,19.766 1.815,19.061 1.734,18.285 C1.679,17.756 1.846,17.245 2.082,16.736 C2.316,16.229 2.673,15.614 3.113,14.854 L3.132,14.821 L8.582,5.408 L8.601,5.375 C9.039,4.618 9.394,4.004 9.715,3.55 C10.039,3.093 10.398,2.695 10.883,2.479 C11.594,2.163 12.406,2.163 13.117,2.479 Z M10.111,17.75 C10.525,17.75 10.861,17.414 10.861,17 C10.861,16.586 10.525,16.25 10.111,16.25 C10,16.25 9.969,16.25 9.945,16.249 C9.298,16.221 8.779,15.702 8.751,15.054 C8.75,15.031 8.75,15 8.75,14.889 L8.75,13.2 C8.75,12.627 8.751,12.243 8.775,11.947 C8.798,11.66 8.84,11.523 8.886,11.432 C9.006,11.197 9.197,11.006 9.433,10.886 C9.523,10.84 9.66,10.798 9.947,10.775 C10.243,10.75 10.628,10.75 11.2,10.75 L12.889,10.75 C13,10.75 13.031,10.75 13.054,10.751 C13.702,10.779 14.22,11.298 14.249,11.945 C14.25,11.969 14.25,12 14.25,12.111 C14.25,12.525 14.586,12.861 15,12.861 C15.414,12.861 15.75,12.525 15.75,12.111 L15.75,12.095 C15.75,12.008 15.75,11.94 15.747,11.88 C15.685,10.455 14.545,9.315 13.12,9.253 C13.06,9.25 12.992,9.25 12.905,9.25 L11.17,9.25 C10.635,9.25 10.19,9.25 9.825,9.28 C9.445,9.311 9.089,9.378 8.752,9.55 C8.234,9.813 7.813,10.234 7.55,10.752 C7.378,11.089 7.311,11.445 7.28,11.825 C7.25,12.189 7.25,12.635 7.25,13.169 L7.25,14.905 C7.25,14.993 7.25,15.06 7.253,15.12 C7.315,16.544 8.456,17.685 9.88,17.747 C9.94,17.75 10.008,17.75 10.095,17.75 Z M13.237,16.297 C12.952,16.404 12.75,16.678 12.75,17 C12.75,17.414 13.086,17.75 13.5,17.75 L15,17.75 C15.414,17.75 15.75,17.414 15.75,17 L15.75,15.5 C15.75,15.086 15.414,14.75 15,14.75 C14.678,14.75 14.404,14.952 14.297,15.237 L12.763,13.702 C13.048,13.596 13.25,13.321 13.25,13 C13.25,12.586 12.914,12.25 12.5,12.25 L11,12.25 C10.586,12.25 10.25,12.586 10.25,13 L10.25,14.5 C10.25,14.914 10.586,15.25 11,15.25 C11.322,15.25 11.596,15.047 11.703,14.763 Z"/>
</svg>

