<svg xmlns="http://www.w3.org/2000/svg" viewBox="0 0 24 24">
  <defs/>
  <path fill="#151E28" d="M13.117,2.479 C13.602,2.695 13.961,3.093 14.285,3.55 C14.606,4.004 14.961,4.617 15.399,5.375 L15.418,5.408 L20.868,14.821 L20.887,14.854 C21.327,15.614 21.684,16.229 21.918,16.736 C22.154,17.245 22.321,17.756 22.266,18.285 C22.185,19.061 21.779,19.766 21.148,20.224 C20.718,20.537 20.192,20.648 19.633,20.699 C19.077,20.75 18.366,20.75 17.488,20.75 L6.512,20.75 C5.634,20.75 4.923,20.75 4.367,20.699 C3.808,20.648 3.282,20.537 2.852,20.224 C2.221,19.766 1.815,19.061 1.734,18.285 C1.679,17.756 1.846,17.245 2.082,16.736 C2.316,16.229 2.673,15.614 3.113,14.854 L3.132,14.821 L8.582,5.408 L8.601,5.375 C9.039,4.618 9.394,4.004 9.715,3.55 C10.039,3.093 10.398,2.695 10.883,2.479 C11.594,2.163 12.406,2.163 13.117,2.479 Z M12.83,9.27 C12.537,8.977 12.062,8.977 11.769,9.27 C11.499,9.541 11.478,9.967 11.708,10.261 C9.773,10.41 8.25,12.027 8.25,14 C8.25,16.071 9.929,17.75 12,17.75 C14.071,17.75 15.75,16.071 15.75,14 C15.75,13.586 15.414,13.25 15,13.25 C14.586,13.25 14.25,13.586 14.25,14 C14.25,15.243 13.243,16.25 12,16.25 C10.757,16.25 9.75,15.243 9.75,14 C9.75,12.865 10.591,11.926 11.684,11.772 C11.48,12.064 11.509,12.47 11.769,12.73 C12.062,13.023 12.537,13.023 12.83,12.73 L14.03,11.53 C14.323,11.238 14.323,10.763 14.03,10.47 Z"/>
</svg>

