<svg xmlns="http://www.w3.org/2000/svg" viewBox="0 0 24 24">
  <defs/>
  <path fill="#151E28" d="M12,1.25 C17.937,1.25 22.75,6.063 22.75,12 C22.75,17.937 17.937,22.75 12,22.75 C6.063,22.75 1.25,17.937 1.25,12 C1.25,6.063 6.063,1.25 12,1.25 Z M7.249,16 C7.249,16.414 7.585,16.75 7.999,16.75 C8.413,16.75 8.749,16.414 8.749,16 L8.749,15.987 C10.356,17.297 12.669,17.552 14.571,16.454 C15.906,15.683 16.764,14.404 17.043,13.004 C17.124,12.598 16.861,12.203 16.454,12.122 C16.048,12.041 15.653,12.305 15.572,12.711 C15.374,13.705 14.766,14.609 13.821,15.155 C12.438,15.953 10.75,15.742 9.609,14.75 L9.999,14.75 C10.413,14.75 10.749,14.414 10.749,14 C10.749,13.586 10.413,13.25 9.999,13.25 L7.999,13.25 C7.585,13.25 7.249,13.586 7.249,14 Z M15.999,7.25 C15.585,7.25 15.249,7.586 15.249,8 L15.249,8.013 C13.642,6.704 11.33,6.449 9.428,7.547 C8.094,8.317 7.235,9.597 6.956,10.997 C6.875,11.403 7.139,11.798 7.545,11.879 C7.951,11.96 8.346,11.696 8.427,11.29 C8.625,10.296 9.233,9.391 10.178,8.846 C11.561,8.048 13.249,8.259 14.389,9.25 L13.999,9.25 C13.585,9.25 13.249,9.586 13.249,10 C13.249,10.414 13.585,10.75 13.999,10.75 L15.999,10.75 C16.413,10.75 16.749,10.414 16.749,10 L16.749,8 C16.749,7.586 16.413,7.25 15.999,7.25 Z"/>
</svg>

