<svg xmlns="http://www.w3.org/2000/svg" viewBox="0 0 24 24">
  <defs/>
  <path fill="#151E28" d="M12,1.25 C17.937,1.25 22.75,6.063 22.75,12 C22.75,17.937 17.937,22.75 12,22.75 C6.063,22.75 1.25,17.937 1.25,12 C1.25,6.063 6.063,1.25 12,1.25 Z M8,16.75 C8.414,16.75 8.75,16.414 8.75,16 L8.75,15.8 C8.75,14.948 8.751,14.353 8.788,13.891 C8.825,13.437 8.895,13.176 8.995,12.979 C9.211,12.555 9.555,12.211 9.979,11.995 C10.176,11.895 10.437,11.825 10.891,11.788 C11.234,11.76 11.649,11.753 12.189,11.751 L11.47,12.47 C11.177,12.763 11.177,13.238 11.47,13.53 C11.763,13.823 12.238,13.823 12.53,13.53 L14.53,11.53 C14.823,11.237 14.823,10.763 14.53,10.47 L12.53,8.47 C12.238,8.177 11.763,8.177 11.47,8.47 C11.177,8.763 11.177,9.237 11.47,9.53 L12.19,10.251 C11.637,10.253 11.167,10.261 10.769,10.293 C10.222,10.338 9.742,10.432 9.298,10.659 C8.592,11.018 8.018,11.592 7.659,12.297 C7.432,12.742 7.338,13.222 7.293,13.769 C7.25,14.299 7.25,14.955 7.25,15.768 L7.25,16 C7.25,16.414 7.586,16.75 8,16.75 Z M14.47,13.53 C14.763,13.823 15.238,13.823 15.53,13.53 L17.53,11.53 C17.823,11.237 17.823,10.763 17.53,10.47 L15.53,8.47 C15.238,8.177 14.763,8.177 14.47,8.47 C14.177,8.763 14.177,9.237 14.47,9.53 L15.939,11 L14.47,12.47 C14.177,12.763 14.177,13.238 14.47,13.53 Z"/>
</svg>

