<svg xmlns="http://www.w3.org/2000/svg" viewBox="0 0 24 24">
  <defs/>
  <path fill="#151E28" d="M9.325,2.25 L14.675,2.25 L14.747,2.25 C15.166,2.25 15.495,2.25 15.814,2.326 C16.094,2.393 16.362,2.504 16.608,2.655 C16.888,2.826 17.121,3.059 17.416,3.356 L17.468,3.407 L20.593,6.532 L20.644,6.584 C20.941,6.879 21.174,7.112 21.345,7.392 C21.496,7.638 21.607,7.906 21.674,8.186 C21.75,8.505 21.75,8.834 21.75,9.253 L21.75,14.747 C21.75,15.166 21.75,15.495 21.674,15.814 C21.607,16.094 21.496,16.362 21.345,16.608 C21.174,16.888 20.941,17.121 20.644,17.416 L17.468,20.593 L17.416,20.644 C17.121,20.941 16.888,21.174 16.608,21.345 C16.362,21.496 16.094,21.607 15.814,21.674 C15.495,21.75 15.166,21.75 14.747,21.75 L9.253,21.75 C8.834,21.75 8.505,21.75 8.186,21.674 C7.906,21.607 7.638,21.496 7.392,21.345 C7.112,21.174 6.879,20.941 6.584,20.644 L6.532,20.593 L3.407,17.468 L3.356,17.416 C3.059,17.121 2.826,16.888 2.655,16.608 C2.504,16.362 2.393,16.094 2.326,15.814 C2.25,15.495 2.25,15.166 2.25,14.747 L2.25,14.675 L2.25,9.325 L2.25,9.253 C2.25,8.834 2.25,8.505 2.326,8.186 C2.393,7.906 2.504,7.638 2.655,7.392 C2.826,7.112 3.059,6.879 3.356,6.584 L3.407,6.532 L6.532,3.407 L6.584,3.356 C6.879,3.059 7.112,2.826 7.392,2.655 C7.638,2.504 7.906,2.393 8.186,2.326 C8.505,2.25 8.834,2.25 9.253,2.25 Z M16.75,16 L16.75,14 C16.75,13.586 16.414,13.25 16,13.25 L14,13.25 C13.586,13.25 13.25,13.586 13.25,14 C13.25,14.414 13.586,14.75 14,14.75 L14.39,14.75 C13.249,15.742 11.561,15.953 10.178,15.155 C9.233,14.609 8.625,13.705 8.427,12.711 C8.346,12.305 7.951,12.041 7.545,12.122 C7.138,12.203 6.875,12.598 6.956,13.004 C7.235,14.404 8.093,15.683 9.428,16.454 C11.33,17.552 13.643,17.297 15.25,15.987 L15.25,16 C15.25,16.414 15.586,16.75 16,16.75 C16.414,16.75 16.75,16.414 16.75,16 Z M8,7.25 C7.586,7.25 7.25,7.586 7.25,8 L7.25,10 C7.25,10.414 7.586,10.75 8,10.75 L10,10.75 C10.414,10.75 10.75,10.414 10.75,10 C10.75,9.586 10.414,9.25 10,9.25 L9.61,9.25 C10.75,8.259 12.438,8.048 13.821,8.846 C14.766,9.391 15.374,10.296 15.572,11.29 C15.653,11.696 16.048,11.96 16.454,11.879 C16.86,11.798 17.124,11.403 17.043,10.997 C16.764,9.597 15.905,8.317 14.571,7.547 C12.669,6.449 10.357,6.704 8.75,8.013 L8.75,8 C8.75,7.586 8.414,7.25 8,7.25 Z"/>
</svg>

