<svg xmlns="http://www.w3.org/2000/svg" viewBox="0 0 24 24">
  <defs/>
  <path fill="#151E28" d="M7.75,14.111 C7.75,15.292 8.708,16.25 9.889,16.25 C10.303,16.25 10.639,16.586 10.639,17 C10.639,17.414 10.303,17.75 9.889,17.75 C7.879,17.75 6.25,16.121 6.25,14.111 L6.25,11.768 C6.25,10.955 6.25,10.299 6.293,9.769 C6.338,9.222 6.432,8.742 6.659,8.298 C7.018,7.592 7.592,7.018 8.298,6.659 C8.742,6.432 9.222,6.338 9.769,6.293 C10.299,6.25 10.955,6.25 11.768,6.25 L14.111,6.25 C16.121,6.25 17.75,7.879 17.75,9.889 C17.75,10.303 17.414,10.639 17,10.639 C16.586,10.639 16.25,10.303 16.25,9.889 C16.25,8.708 15.292,7.75 14.111,7.75 L11.8,7.75 C10.948,7.75 10.353,7.751 9.891,7.788 C9.437,7.825 9.176,7.895 8.979,7.995 C8.555,8.211 8.211,8.555 7.995,8.979 C7.895,9.176 7.825,9.437 7.788,9.891 C7.751,10.353 7.75,10.948 7.75,11.8 Z M15,11.25 C15.414,11.25 15.75,11.586 15.75,12 C15.75,12.414 15.414,12.75 15,12.75 L13.811,12.75 L17.53,16.47 C17.823,16.763 17.823,17.237 17.53,17.53 C17.237,17.823 16.763,17.823 16.47,17.53 L12.75,13.811 L12.75,15 C12.75,15.414 12.414,15.75 12,15.75 C11.586,15.75 11.25,15.414 11.25,15 L11.25,12 C11.25,11.586 11.586,11.25 12,11.25 Z"/>
</svg>

