<svg xmlns="http://www.w3.org/2000/svg" viewBox="0 0 24 24">
  <defs/>
  <path fill="#151E28" d="M9.325,2.25 L14.675,2.25 L14.747,2.25 C15.166,2.25 15.495,2.25 15.814,2.326 C16.094,2.393 16.362,2.504 16.608,2.655 C16.888,2.826 17.121,3.059 17.416,3.356 L17.468,3.407 L20.593,6.532 L20.644,6.584 C20.941,6.879 21.174,7.112 21.345,7.392 C21.496,7.638 21.607,7.906 21.674,8.186 C21.75,8.505 21.75,8.834 21.75,9.253 L21.75,14.747 C21.75,15.166 21.75,15.495 21.674,15.814 C21.607,16.094 21.496,16.362 21.345,16.608 C21.174,16.888 20.941,17.121 20.644,17.416 L17.468,20.593 L17.416,20.644 C17.121,20.941 16.888,21.174 16.608,21.345 C16.362,21.496 16.094,21.607 15.814,21.674 C15.495,21.75 15.166,21.75 14.747,21.75 L9.253,21.75 C8.834,21.75 8.505,21.75 8.186,21.674 C7.906,21.607 7.638,21.496 7.392,21.345 C7.112,21.174 6.879,20.941 6.584,20.644 L6.532,20.593 L3.407,17.468 L3.356,17.416 C3.059,17.121 2.826,16.888 2.655,16.608 C2.504,16.362 2.393,16.094 2.326,15.814 C2.25,15.495 2.25,15.166 2.25,14.747 L2.25,14.675 L2.25,9.325 L2.25,9.253 C2.25,8.834 2.25,8.505 2.326,8.186 C2.393,7.906 2.504,7.638 2.655,7.392 C2.826,7.112 3.059,6.879 3.356,6.584 L3.407,6.532 L6.532,3.407 L6.584,3.356 C6.879,3.059 7.112,2.826 7.392,2.655 C7.638,2.504 7.906,2.393 8.186,2.326 C8.505,2.25 8.834,2.25 9.253,2.25 Z M12.613,12.613 C12.32,12.905 12.32,13.38 12.613,13.673 L14.189,15.25 L13.714,15.25 C13.3,15.25 12.964,15.586 12.964,16 C12.964,16.414 13.3,16.75 13.714,16.75 L16,16.75 C16.414,16.75 16.75,16.414 16.75,16 L16.75,13.714 C16.75,13.3 16.414,12.964 16,12.964 C15.586,12.964 15.25,13.3 15.25,13.714 L15.25,14.189 L13.673,12.613 C13.38,12.32 12.905,12.32 12.613,12.613 Z M16.75,8 C16.75,7.586 16.414,7.25 16,7.25 L13.714,7.25 C13.3,7.25 12.964,7.586 12.964,8 C12.964,8.414 13.3,8.75 13.714,8.75 L14.189,8.75 L12.613,10.327 C12.32,10.62 12.32,11.095 12.613,11.387 C12.905,11.68 13.38,11.68 13.673,11.387 L15.25,9.811 L15.25,10.286 C15.25,10.7 15.586,11.036 16,11.036 C16.414,11.036 16.75,10.7 16.75,10.286 Z M11.387,12.613 C11.095,12.32 10.62,12.32 10.327,12.613 L8.75,14.189 L8.75,13.714 C8.75,13.3 8.414,12.964 8,12.964 C7.586,12.964 7.25,13.3 7.25,13.714 L7.25,16 C7.25,16.414 7.586,16.75 8,16.75 L10.286,16.75 C10.7,16.75 11.036,16.414 11.036,16 C11.036,15.586 10.7,15.25 10.286,15.25 L9.811,15.25 L11.387,13.673 C11.68,13.38 11.68,12.905 11.387,12.613 Z M10.286,7.25 L8,7.25 C7.586,7.25 7.25,7.586 7.25,8 L7.25,10.286 C7.25,10.7 7.586,11.036 8,11.036 C8.414,11.036 8.75,10.7 8.75,10.286 L8.75,9.811 L10.327,11.387 C10.62,11.68 11.095,11.68 11.387,11.387 C11.68,11.095 11.68,10.62 11.387,10.327 L9.811,8.75 L10.286,8.75 C10.7,8.75 11.036,8.414 11.036,8 C11.036,7.586 10.7,7.25 10.286,7.25 Z"/>
</svg>

