<svg xmlns="http://www.w3.org/2000/svg" viewBox="0 0 24 24">
  <defs/>
  <path fill="#151E28" d="M13.117,2.479 C13.602,2.695 13.961,3.093 14.285,3.55 C14.606,4.004 14.961,4.617 15.399,5.375 L15.399,5.375 L15.418,5.408 L20.868,14.821 L20.887,14.854 C21.327,15.614 21.684,16.229 21.918,16.736 C22.154,17.245 22.321,17.756 22.266,18.285 C22.185,19.061 21.779,19.766 21.148,20.224 C20.718,20.537 20.192,20.648 19.633,20.699 C19.077,20.75 18.366,20.75 17.488,20.75 L6.512,20.75 C5.634,20.75 4.923,20.75 4.367,20.699 C3.808,20.648 3.282,20.537 2.852,20.224 C2.221,19.766 1.815,19.061 1.734,18.285 C1.679,17.756 1.846,17.245 2.082,16.736 C2.316,16.229 2.673,15.614 3.113,14.854 L3.132,14.821 L8.582,5.408 L8.601,5.375 C9.039,4.618 9.394,4.004 9.715,3.55 C10.039,3.093 10.398,2.695 10.883,2.479 C11.594,2.163 12.406,2.163 13.117,2.479 Z M10.796,8.607 L8.306,10.966 C7.158,12.054 7.928,13.987 9.51,13.987 L9.75,13.987 L9.75,14.5 C9.75,15.467 10.533,16.25 11.5,16.25 L12.5,16.25 C13.467,16.25 14.25,15.467 14.25,14.5 L14.25,13.987 L14.49,13.987 C16.072,13.987 16.842,12.054 15.694,10.966 L13.203,8.607 C12.529,7.968 11.471,7.968 10.796,8.607 Z M12.172,9.696 L14.662,12.055 C14.826,12.211 14.716,12.487 14.49,12.487 L13.5,12.487 C13.086,12.487 12.75,12.823 12.75,13.237 L12.75,14.5 C12.75,14.638 12.638,14.75 12.5,14.75 L11.5,14.75 C11.362,14.75 11.25,14.638 11.25,14.5 L11.25,13.237 C11.25,12.823 10.914,12.487 10.5,12.487 L9.51,12.487 C9.284,12.487 9.174,12.211 9.338,12.055 L11.828,9.696 C11.925,9.605 12.075,9.605 12.172,9.696 Z M9.75,17.5 C9.75,17.914 10.086,18.25 10.5,18.25 L13.5,18.25 C13.914,18.25 14.25,17.914 14.25,17.5 C14.25,17.086 13.914,16.75 13.5,16.75 L10.5,16.75 C10.086,16.75 9.75,17.086 9.75,17.5 Z"/>
</svg>

