<svg xmlns="http://www.w3.org/2000/svg" viewBox="0 0 24 24">
  <defs/>
  <path fill="#151E28" d="M13.117,2.479 C13.602,2.695 13.961,3.093 14.285,3.55 C14.606,4.004 14.961,4.617 15.399,5.375 L15.399,5.375 L15.418,5.408 L20.868,14.821 L20.887,14.854 C21.327,15.614 21.684,16.229 21.918,16.736 C22.154,17.245 22.321,17.756 22.266,18.285 C22.185,19.061 21.779,19.766 21.148,20.224 C20.718,20.537 20.192,20.648 19.633,20.699 C19.077,20.75 18.366,20.75 17.488,20.75 L6.512,20.75 C5.634,20.75 4.923,20.75 4.367,20.699 C3.808,20.648 3.282,20.537 2.852,20.224 C2.221,19.766 1.815,19.061 1.734,18.285 C1.679,17.756 1.846,17.245 2.082,16.736 C2.316,16.229 2.673,15.614 3.113,14.854 L3.132,14.821 L8.582,5.408 L8.601,5.375 C9.039,4.618 9.394,4.004 9.715,3.55 C10.039,3.093 10.398,2.695 10.883,2.479 C11.594,2.163 12.406,2.163 13.117,2.479 Z M14,10.25 C13.586,10.25 13.25,10.586 13.25,11 L13.25,11.8 C13.25,12.372 13.249,12.757 13.225,13.052 C13.202,13.34 13.16,13.477 13.114,13.568 C12.994,13.803 12.803,13.994 12.568,14.114 C12.477,14.16 12.34,14.202 12.052,14.225 C11.757,14.249 11.372,14.25 10.8,14.25 L9.811,14.25 L10.53,13.53 C10.823,13.237 10.823,12.762 10.53,12.47 C10.237,12.177 9.763,12.177 9.47,12.47 L7.47,14.47 C7.177,14.762 7.177,15.237 7.47,15.53 L9.47,17.53 C9.763,17.823 10.237,17.823 10.53,17.53 C10.823,17.237 10.823,16.763 10.53,16.47 L9.811,15.75 L10.83,15.75 C11.365,15.75 11.81,15.75 12.175,15.72 C12.554,15.689 12.911,15.622 13.248,15.45 C13.766,15.187 14.187,14.766 14.45,14.248 C14.622,13.911 14.689,13.554 14.72,13.175 C14.75,12.81 14.75,12.365 14.75,11.83 L14.75,11 C14.75,10.586 14.414,10.25 14,10.25 Z"/>
</svg>

