<svg xmlns="http://www.w3.org/2000/svg" viewBox="0 0 24 24">
  <defs/>
  <path fill="#151E28" d="M9.367,2.25 L14.633,2.25 C15.725,2.25 16.591,2.25 17.288,2.307 C18.002,2.365 18.605,2.487 19.156,2.768 C20.05,3.223 20.777,3.95 21.232,4.844 C21.513,5.395 21.635,5.998 21.693,6.712 C21.75,7.409 21.75,8.275 21.75,9.367 L21.75,14.633 C21.75,15.725 21.75,16.591 21.693,17.288 C21.635,18.002 21.513,18.605 21.232,19.156 C20.777,20.05 20.05,20.777 19.156,21.232 C18.605,21.513 18.002,21.635 17.288,21.693 C16.591,21.75 15.725,21.75 14.633,21.75 L9.367,21.75 C8.275,21.75 7.409,21.75 6.712,21.693 C5.998,21.635 5.395,21.513 4.844,21.232 C3.95,20.777 3.223,20.05 2.768,19.156 C2.487,18.605 2.365,18.002 2.307,17.288 C2.25,16.591 2.25,15.725 2.25,14.633 L2.25,9.367 C2.25,8.275 2.25,7.409 2.307,6.712 C2.365,5.998 2.487,5.395 2.768,4.844 C3.223,3.95 3.95,3.223 4.844,2.768 C5.395,2.487 5.998,2.365 6.712,2.307 C7.409,2.25 8.275,2.25 9.367,2.25 Z M15.75,15 C15.75,14.586 15.414,14.25 15,14.25 L14.8,14.25 C13.948,14.25 13.353,14.249 12.891,14.212 C12.437,14.175 12.176,14.105 11.979,14.005 C11.555,13.789 11.211,13.445 10.995,13.021 C10.895,12.824 10.825,12.563 10.788,12.109 C10.751,11.647 10.75,11.052 10.75,10.2 L10.75,9.811 L11.47,10.53 C11.763,10.823 12.237,10.823 12.53,10.53 C12.823,10.237 12.823,9.763 12.53,9.47 L10.53,7.47 C10.237,7.177 9.763,7.177 9.47,7.47 L7.47,9.47 C7.177,9.763 7.177,10.237 7.47,10.53 C7.763,10.823 8.237,10.823 8.53,10.53 L9.25,9.811 L9.25,10.232 C9.25,11.045 9.25,11.701 9.293,12.231 C9.338,12.778 9.432,13.258 9.659,13.703 C10.018,14.408 10.592,14.982 11.297,15.341 C11.742,15.568 12.222,15.662 12.769,15.707 C13.299,15.75 13.955,15.75 14.768,15.75 L15,15.75 C15.414,15.75 15.75,15.414 15.75,15 Z"/>
</svg>

