<svg xmlns="http://www.w3.org/2000/svg" viewBox="0 0 24 24">
  <defs/>
  <path fill="#151E28" d="M9.367,2.25 L14.633,2.25 C15.725,2.25 16.591,2.25 17.288,2.307 C18.002,2.365 18.605,2.487 19.156,2.768 C20.05,3.223 20.777,3.95 21.232,4.844 C21.513,5.395 21.635,5.998 21.693,6.712 C21.75,7.409 21.75,8.275 21.75,9.367 L21.75,14.633 C21.75,15.725 21.75,16.591 21.693,17.288 C21.635,18.002 21.513,18.605 21.232,19.156 C20.777,20.05 20.05,20.777 19.156,21.232 C18.605,21.513 18.002,21.635 17.288,21.693 C16.591,21.75 15.725,21.75 14.633,21.75 L9.367,21.75 C8.275,21.75 7.409,21.75 6.712,21.693 C5.998,21.635 5.395,21.513 4.844,21.232 C3.95,20.777 3.223,20.05 2.768,19.156 C2.487,18.605 2.365,18.002 2.307,17.288 C2.25,16.591 2.25,15.725 2.25,14.633 L2.25,9.367 C2.25,8.275 2.25,7.409 2.307,6.712 C2.365,5.998 2.487,5.395 2.768,4.844 C3.223,3.95 3.95,3.223 4.844,2.768 C5.395,2.487 5.998,2.365 6.712,2.307 C7.409,2.25 8.275,2.25 9.367,2.25 Z M11.57,6.869 L9.97,8.469 C9.677,8.762 9.677,9.237 9.97,9.53 L11.57,11.13 C11.863,11.423 12.338,11.423 12.63,11.13 C12.923,10.837 12.923,10.362 12.63,10.069 L12.327,9.766 C13.969,9.93 15.25,11.316 15.25,13 C15.25,14.795 13.795,16.25 12,16.25 C10.205,16.25 8.75,14.795 8.75,13 C8.75,12.586 8.414,12.25 8,12.25 C7.586,12.25 7.25,12.586 7.25,13 C7.25,15.623 9.377,17.75 12,17.75 C14.623,17.75 16.75,15.623 16.75,13 C16.75,10.478 14.784,8.415 12.301,8.259 L12.631,7.93 C12.924,7.637 12.924,7.162 12.631,6.869 C12.338,6.577 11.863,6.577 11.57,6.869 Z"/>
</svg>

