<svg xmlns="http://www.w3.org/2000/svg" viewBox="0 0 24 24">
  <defs/>
  <path fill="#151E28" d="M13.117,2.479 C13.602,2.695 13.961,3.093 14.285,3.55 C14.606,4.004 14.961,4.617 15.399,5.375 L15.399,5.375 L15.418,5.408 L20.868,14.821 L20.887,14.854 C21.327,15.614 21.684,16.229 21.918,16.736 C22.154,17.245 22.321,17.756 22.266,18.285 C22.185,19.061 21.779,19.766 21.148,20.224 C20.718,20.537 20.192,20.648 19.633,20.699 C19.077,20.75 18.366,20.75 17.488,20.75 L6.512,20.75 C5.634,20.75 4.923,20.75 4.367,20.699 C3.808,20.648 3.282,20.537 2.852,20.224 C2.221,19.766 1.815,19.061 1.734,18.285 C1.679,17.756 1.846,17.245 2.082,16.736 C2.316,16.229 2.673,15.614 3.113,14.854 L3.132,14.821 L8.582,5.408 L8.601,5.375 C9.039,4.618 9.394,4.004 9.715,3.55 C10.039,3.093 10.398,2.695 10.883,2.479 C11.594,2.163 12.406,2.163 13.117,2.479 Z M12,14.583 C11.586,14.583 11.25,14.919 11.25,15.333 L11.25,16.189 L11.197,16.136 C10.904,15.843 10.429,15.843 10.136,16.136 C9.843,16.429 9.843,16.904 10.136,17.197 L11.47,18.53 C11.762,18.823 12.237,18.823 12.53,18.53 L13.864,17.197 C14.156,16.904 14.156,16.429 13.864,16.136 C13.571,15.843 13.096,15.843 12.803,16.136 L12.75,16.189 L12.75,15.333 C12.75,14.919 12.414,14.583 12,14.583 Z M14.136,13.197 L14.189,13.25 L13.333,13.25 C12.919,13.25 12.583,13.586 12.583,14 C12.583,14.414 12.919,14.75 13.333,14.75 L14.189,14.75 L14.136,14.803 C13.843,15.096 13.843,15.571 14.136,15.864 C14.429,16.156 14.904,16.156 15.197,15.864 L16.53,14.53 C16.671,14.39 16.75,14.199 16.75,14 C16.75,13.801 16.671,13.61 16.53,13.47 L15.197,12.136 C14.904,11.843 14.429,11.843 14.136,12.136 C13.843,12.429 13.843,12.904 14.136,13.197 Z M9.864,12.136 C9.571,11.843 9.096,11.843 8.803,12.136 L7.47,13.47 C7.177,13.762 7.177,14.237 7.47,14.53 L8.803,15.864 C9.096,16.156 9.571,16.156 9.864,15.864 C10.156,15.571 10.156,15.096 9.864,14.803 L9.811,14.75 L10.667,14.75 C11.081,14.75 11.417,14.414 11.417,14 C11.417,13.586 11.081,13.25 10.667,13.25 L9.811,13.25 L9.864,13.197 C10.156,12.904 10.156,12.429 9.864,12.136 Z M12,9.25 C11.801,9.25 11.61,9.329 11.47,9.47 L10.136,10.803 C9.843,11.096 9.843,11.571 10.136,11.864 C10.429,12.156 10.904,12.156 11.197,11.864 L11.25,11.811 L11.25,12.667 C11.25,13.081 11.586,13.417 12,13.417 C12.414,13.417 12.75,13.081 12.75,12.667 L12.75,11.811 L12.803,11.864 C13.096,12.156 13.571,12.156 13.864,11.864 C14.156,11.571 14.156,11.096 13.864,10.803 L12.53,9.47 C12.39,9.329 12.199,9.25 12,9.25 Z"/>
</svg>

