<svg xmlns="http://www.w3.org/2000/svg" viewBox="0 0 24 24">
  <defs/>
  <path fill="#151E28" d="M9.325,2.25 L14.675,2.25 L14.747,2.25 C15.166,2.25 15.495,2.25 15.814,2.326 C16.094,2.393 16.362,2.504 16.608,2.655 C16.888,2.826 17.121,3.059 17.416,3.356 L17.468,3.407 L20.593,6.532 L20.644,6.584 C20.941,6.879 21.174,7.112 21.345,7.392 C21.496,7.638 21.607,7.906 21.674,8.186 C21.75,8.505 21.75,8.834 21.75,9.253 L21.75,14.747 C21.75,15.166 21.75,15.495 21.674,15.814 C21.607,16.094 21.496,16.362 21.345,16.608 C21.174,16.888 20.941,17.121 20.644,17.416 L17.468,20.593 L17.416,20.644 C17.121,20.941 16.888,21.174 16.608,21.345 C16.362,21.496 16.094,21.607 15.814,21.674 C15.495,21.75 15.166,21.75 14.747,21.75 L9.253,21.75 C8.834,21.75 8.505,21.75 8.186,21.674 C7.906,21.607 7.638,21.496 7.392,21.345 C7.112,21.174 6.879,20.941 6.584,20.644 L6.532,20.593 L3.407,17.468 L3.356,17.416 C3.059,17.121 2.826,16.888 2.655,16.608 C2.504,16.362 2.393,16.094 2.326,15.814 C2.25,15.495 2.25,15.166 2.25,14.747 L2.25,14.675 L2.25,9.325 L2.25,9.253 C2.25,8.834 2.25,8.505 2.326,8.186 C2.393,7.906 2.504,7.638 2.655,7.392 C2.826,7.112 3.059,6.879 3.356,6.584 L3.407,6.532 L6.532,3.407 L6.584,3.356 C6.879,3.059 7.112,2.826 7.392,2.655 C7.638,2.504 7.906,2.393 8.186,2.326 C8.505,2.25 8.834,2.25 9.253,2.25 Z M10.796,7.607 L8.306,9.966 C7.158,11.054 7.928,12.987 9.51,12.987 L9.75,12.987 L9.75,13.5 C9.75,14.467 10.533,15.25 11.5,15.25 L12.5,15.25 C13.467,15.25 14.25,14.467 14.25,13.5 L14.25,12.987 L14.49,12.987 C16.072,12.987 16.842,11.054 15.694,9.966 L13.204,7.607 C12.529,6.968 11.471,6.968 10.796,7.607 Z M12.172,8.696 L14.662,11.055 C14.826,11.211 14.716,11.487 14.49,11.487 L13.5,11.487 C13.086,11.487 12.75,11.823 12.75,12.237 L12.75,13.5 C12.75,13.638 12.638,13.75 12.5,13.75 L11.5,13.75 C11.362,13.75 11.25,13.638 11.25,13.5 L11.25,12.237 C11.25,11.823 10.914,11.487 10.5,11.487 L9.51,11.487 C9.284,11.487 9.174,11.211 9.338,11.055 L11.828,8.696 C11.925,8.605 12.075,8.605 12.172,8.696 Z M9.75,16.5 C9.75,16.914 10.086,17.25 10.5,17.25 L13.5,17.25 C13.914,17.25 14.25,16.914 14.25,16.5 C14.25,16.086 13.914,15.75 13.5,15.75 L10.5,15.75 C10.086,15.75 9.75,16.086 9.75,16.5 Z"/>
</svg>

