<svg xmlns="http://www.w3.org/2000/svg" viewBox="0 0 24 24">
  <defs/>
  <path fill="#151E28" d="M9.367,2.25 L14.633,2.25 C15.725,2.25 16.591,2.25 17.288,2.307 C18.002,2.365 18.605,2.487 19.156,2.768 C20.05,3.223 20.777,3.95 21.232,4.844 C21.513,5.395 21.635,5.998 21.693,6.712 C21.75,7.409 21.75,8.275 21.75,9.367 L21.75,14.633 C21.75,15.725 21.75,16.591 21.693,17.288 C21.635,18.002 21.513,18.605 21.232,19.156 C20.777,20.05 20.05,20.777 19.156,21.232 C18.605,21.513 18.002,21.635 17.288,21.693 C16.591,21.75 15.725,21.75 14.633,21.75 L9.367,21.75 C8.275,21.75 7.409,21.75 6.712,21.693 C5.998,21.635 5.395,21.513 4.844,21.232 C3.95,20.777 3.223,20.05 2.768,19.156 C2.487,18.605 2.365,18.002 2.307,17.288 C2.25,16.591 2.25,15.725 2.25,14.633 L2.25,9.367 C2.25,8.275 2.25,7.409 2.307,6.712 C2.365,5.998 2.487,5.395 2.768,4.844 C3.223,3.95 3.95,3.223 4.844,2.768 C5.395,2.487 5.998,2.365 6.712,2.307 C7.409,2.25 8.275,2.25 9.367,2.25 Z M16.75,16 L16.75,14 C16.75,13.586 16.414,13.25 16,13.25 L14,13.25 C13.586,13.25 13.25,13.586 13.25,14 C13.25,14.414 13.586,14.75 14,14.75 L14.39,14.75 C13.249,15.742 11.561,15.953 10.178,15.155 C9.233,14.609 8.625,13.705 8.427,12.711 C8.346,12.305 7.951,12.041 7.545,12.122 C7.138,12.203 6.875,12.598 6.956,13.004 C7.235,14.404 8.093,15.683 9.428,16.454 C11.33,17.552 13.643,17.297 15.25,15.987 L15.25,16 C15.25,16.414 15.586,16.75 16,16.75 C16.414,16.75 16.75,16.414 16.75,16 Z M8,7.25 C7.586,7.25 7.25,7.586 7.25,8 L7.25,10 C7.25,10.414 7.586,10.75 8,10.75 L10,10.75 C10.414,10.75 10.75,10.414 10.75,10 C10.75,9.586 10.414,9.25 10,9.25 L9.61,9.25 C10.75,8.259 12.438,8.048 13.821,8.846 C14.766,9.391 15.374,10.296 15.572,11.29 C15.653,11.696 16.048,11.96 16.454,11.879 C16.86,11.798 17.124,11.403 17.043,10.997 C16.764,9.597 15.905,8.317 14.571,7.547 C12.669,6.449 10.357,6.704 8.75,8.013 L8.75,8 C8.75,7.586 8.414,7.25 8,7.25 Z"/>
</svg>

