<svg xmlns="http://www.w3.org/2000/svg" viewBox="0 0 24 24">
  <defs/>
  <path fill="#151E28" d="M12,1.25 C17.937,1.25 22.75,6.063 22.75,12 C22.75,17.937 17.937,22.75 12,22.75 C6.063,22.75 1.25,17.937 1.25,12 C1.25,6.063 6.063,1.25 12,1.25 Z M12.47,8.47 C12.177,8.763 12.177,9.237 12.47,9.53 L14.189,11.25 L8,11.25 C7.586,11.25 7.25,11.586 7.25,12 C7.25,12.414 7.586,12.75 8,12.75 L14.189,12.75 L12.47,14.47 C12.177,14.763 12.177,15.237 12.47,15.53 C12.763,15.823 13.237,15.823 13.53,15.53 L16.53,12.53 C16.823,12.237 16.823,11.763 16.53,11.47 L13.53,8.47 C13.237,8.177 12.763,8.177 12.47,8.47 Z"/>
</svg>

