<svg xmlns="http://www.w3.org/2000/svg" viewBox="0 0 24 24">
  <defs/>
  <path fill="#151E28" d="M9.367,2.25 L14.633,2.25 C15.725,2.25 16.591,2.25 17.288,2.307 C18.002,2.365 18.605,2.487 19.156,2.768 C20.05,3.223 20.777,3.95 21.232,4.844 C21.513,5.395 21.635,5.998 21.693,6.712 C21.75,7.409 21.75,8.275 21.75,9.367 L21.75,14.633 C21.75,15.725 21.75,16.591 21.693,17.288 C21.635,18.002 21.513,18.605 21.232,19.156 C20.777,20.05 20.05,20.777 19.156,21.232 C18.605,21.513 18.002,21.635 17.288,21.693 C16.591,21.75 15.725,21.75 14.633,21.75 L9.367,21.75 C8.275,21.75 7.409,21.75 6.712,21.693 C5.998,21.635 5.395,21.513 4.844,21.232 C3.95,20.777 3.223,20.05 2.768,19.156 C2.487,18.605 2.365,18.002 2.307,17.288 C2.25,16.591 2.25,15.725 2.25,14.633 L2.25,9.367 C2.25,8.275 2.25,7.409 2.307,6.712 C2.365,5.998 2.487,5.395 2.768,4.844 C3.223,3.95 3.95,3.223 4.844,2.768 C5.395,2.487 5.998,2.365 6.712,2.307 C7.409,2.25 8.275,2.25 9.367,2.25 Z M16.457,9.745 C16.432,8.815 15.685,8.068 14.755,8.043 L11.326,7.95 C9.745,7.907 8.923,9.818 10.041,10.937 L10.211,11.107 L8.434,12.884 C7.751,13.567 7.751,14.675 8.434,15.359 L9.141,16.066 C9.825,16.749 10.933,16.749 11.616,16.066 L13.393,14.289 L13.563,14.459 C14.682,15.577 16.593,14.755 16.55,13.174 Z M14.715,9.542 C14.847,9.546 14.954,9.652 14.958,9.785 L15.05,13.215 C15.057,13.441 14.784,13.558 14.624,13.398 L13.924,12.698 C13.631,12.405 13.156,12.405 12.863,12.698 L10.556,15.005 C10.458,15.103 10.3,15.103 10.202,15.005 L9.495,14.298 C9.397,14.2 9.397,14.042 9.495,13.944 L11.802,11.637 C12.095,11.344 12.095,10.869 11.802,10.576 L11.102,9.876 C10.942,9.716 11.059,9.443 11.285,9.449 Z"/>
</svg>

