<svg xmlns="http://www.w3.org/2000/svg" viewBox="0 0 24 24">
  <defs/>
  <path fill="#151E28" d="M12,1.25 C17.937,1.25 22.75,6.063 22.75,12 C22.75,17.937 17.937,22.75 12,22.75 C6.063,22.75 1.25,17.937 1.25,12 C1.25,6.063 6.063,1.25 12,1.25 Z M8.25,14 C8.25,14.967 9.033,15.75 10,15.75 L13.358,15.75 C14.97,15.75 15.725,13.756 14.517,12.689 L14.505,12.677 L16.248,10.934 C16.931,10.251 16.931,9.143 16.248,8.459 L15.541,7.752 C14.857,7.069 13.749,7.069 13.066,7.752 L11.323,9.495 L11.311,9.483 C10.244,8.275 8.25,9.03 8.25,10.642 Z M10,14.25 C9.862,14.25 9.75,14.138 9.75,14 L9.75,10.642 C9.75,10.411 10.035,10.304 10.187,10.476 L10.727,11.087 C10.864,11.242 11.059,11.333 11.266,11.34 C11.472,11.346 11.673,11.267 11.819,11.12 L14.127,8.813 C14.224,8.715 14.382,8.715 14.48,8.813 L15.187,9.52 C15.285,9.618 15.285,9.776 15.187,9.873 L12.88,12.181 C12.733,12.327 12.654,12.528 12.66,12.734 C12.667,12.941 12.758,13.136 12.913,13.273 L13.524,13.813 C13.696,13.965 13.589,14.25 13.358,14.25 Z"/>
</svg>

