<svg xmlns="http://www.w3.org/2000/svg" viewBox="0 0 24 24">
  <defs/>
  <path fill="#151E28" d="M13.117,2.479 C13.602,2.695 13.961,3.093 14.285,3.55 C14.606,4.004 14.961,4.617 15.399,5.375 L15.418,5.408 L20.868,14.821 L20.887,14.854 C21.327,15.614 21.684,16.229 21.918,16.736 C22.154,17.245 22.321,17.756 22.266,18.285 C22.185,19.061 21.779,19.766 21.148,20.224 C20.718,20.537 20.192,20.648 19.633,20.699 C19.077,20.75 18.366,20.75 17.488,20.75 L6.512,20.75 C5.634,20.75 4.923,20.75 4.367,20.699 C3.808,20.648 3.282,20.537 2.852,20.224 C2.221,19.766 1.815,19.061 1.734,18.285 C1.679,17.756 1.846,17.245 2.082,16.736 C2.316,16.229 2.673,15.614 3.113,14.854 L3.132,14.821 L8.582,5.408 L8.601,5.375 C9.039,4.618 9.394,4.004 9.715,3.55 C10.039,3.093 10.398,2.695 10.883,2.479 C11.594,2.163 12.406,2.163 13.117,2.479 Z M12,17.25 C11.586,17.25 11.25,17.586 11.25,18 C11.25,18.414 11.586,18.75 12,18.75 L12.831,18.75 C13.365,18.75 13.811,18.75 14.175,18.72 C14.555,18.689 14.911,18.622 15.248,18.45 C15.766,18.187 16.187,17.766 16.45,17.249 C16.622,16.911 16.689,16.555 16.72,16.175 C16.75,15.811 16.75,15.365 16.75,14.831 L16.75,13.169 C16.75,12.635 16.75,12.189 16.72,11.825 C16.689,11.445 16.622,11.089 16.45,10.752 C16.187,10.234 15.766,9.813 15.248,9.55 C14.911,9.378 14.555,9.311 14.175,9.28 C13.81,9.25 13.365,9.25 12.831,9.25 L12,9.25 C11.586,9.25 11.25,9.586 11.25,10 C11.25,10.414 11.586,10.75 12,10.75 L12.8,10.75 C13.372,10.75 13.757,10.751 14.052,10.775 C14.34,10.798 14.477,10.84 14.568,10.886 C14.803,11.006 14.994,11.197 15.114,11.432 C15.16,11.523 15.202,11.66 15.225,11.948 C15.249,12.243 15.25,12.628 15.25,13.2 L15.25,14.8 C15.25,15.372 15.249,15.757 15.225,16.052 C15.202,16.34 15.16,16.477 15.114,16.567 C14.994,16.803 14.803,16.994 14.568,17.114 C14.477,17.16 14.34,17.202 14.052,17.225 C13.757,17.249 13.372,17.25 12.8,17.25 Z M7.47,14.53 L9.47,16.53 C9.763,16.823 10.237,16.823 10.53,16.53 C10.823,16.237 10.823,15.763 10.53,15.47 L9.811,14.75 L13,14.75 C13.414,14.75 13.75,14.414 13.75,14 C13.75,13.586 13.414,13.25 13,13.25 L9.811,13.25 L10.53,12.53 C10.823,12.237 10.823,11.763 10.53,11.47 C10.237,11.177 9.763,11.177 9.47,11.47 L7.47,13.47 C7.177,13.763 7.177,14.237 7.47,14.53 Z"/>
</svg>

