<svg xmlns="http://www.w3.org/2000/svg" viewBox="0 0 24 24">
  <defs/>
  <path fill="#151E28" d="M13.117,2.479 C13.602,2.695 13.961,3.093 14.285,3.55 C14.606,4.004 14.961,4.617 15.399,5.375 L15.418,5.408 L20.868,14.821 L20.887,14.854 C21.327,15.614 21.684,16.229 21.918,16.736 C22.154,17.245 22.321,17.756 22.266,18.285 C22.185,19.061 21.779,19.766 21.148,20.224 C20.718,20.537 20.192,20.648 19.633,20.699 C19.077,20.75 18.366,20.75 17.488,20.75 L6.512,20.75 C5.634,20.75 4.923,20.75 4.367,20.699 C3.808,20.648 3.282,20.537 2.852,20.224 C2.221,19.766 1.815,19.061 1.734,18.285 C1.679,17.756 1.846,17.245 2.082,16.736 C2.316,16.229 2.673,15.614 3.113,14.854 L3.132,14.821 L8.582,5.408 L8.601,5.375 C9.039,4.618 9.394,4.004 9.715,3.55 C10.039,3.093 10.398,2.695 10.883,2.479 C11.594,2.163 12.406,2.163 13.117,2.479 Z M14.773,13.227 C14.48,12.934 14.005,12.934 13.712,13.227 L10.75,16.19 L10.75,13.758 C10.75,13.343 10.414,13.008 10,13.008 C9.586,13.008 9.25,13.343 9.25,13.758 L9.25,18 C9.25,18.199 9.329,18.39 9.47,18.531 C9.61,18.671 9.801,18.75 10,18.75 L14.243,18.75 C14.657,18.75 14.993,18.414 14.993,18 C14.993,17.586 14.657,17.25 14.243,17.25 L11.811,17.25 L14.773,14.288 C15.066,13.995 15.066,13.52 14.773,13.227 Z M15,10.25 L9,10.25 C8.585,10.25 8.25,10.586 8.25,11 C8.25,11.414 8.585,11.75 9,11.75 L15,11.75 C15.414,11.75 15.75,11.414 15.75,11 C15.75,10.586 15.414,10.25 15,10.25 Z"/>
</svg>

