<svg xmlns="http://www.w3.org/2000/svg" viewBox="0 0 24 24">
  <defs/>
  <path fill="#151E28" d="M13.117,2.479 C13.602,2.695 13.961,3.093 14.285,3.55 C14.606,4.004 14.961,4.617 15.399,5.375 L15.399,5.375 L15.418,5.408 L20.868,14.821 L20.887,14.854 C21.327,15.614 21.684,16.229 21.918,16.736 C22.154,17.245 22.321,17.756 22.266,18.285 C22.185,19.061 21.779,19.766 21.148,20.224 C20.718,20.537 20.192,20.648 19.633,20.699 C19.077,20.75 18.366,20.75 17.488,20.75 L6.512,20.75 C5.634,20.75 4.923,20.75 4.367,20.699 C3.808,20.648 3.282,20.537 2.852,20.224 C2.221,19.766 1.815,19.061 1.734,18.285 C1.679,17.756 1.846,17.245 2.082,16.736 C2.316,16.229 2.673,15.614 3.113,14.854 L3.132,14.821 L8.582,5.408 L8.601,5.375 C9.039,4.618 9.394,4.004 9.715,3.55 C10.039,3.093 10.398,2.695 10.883,2.479 C11.594,2.163 12.406,2.163 13.117,2.479 Z M8.25,17 C8.25,17.414 8.586,17.75 9,17.75 L9.83,17.75 C10.365,17.75 10.81,17.75 11.175,17.72 C11.554,17.689 11.911,17.622 12.248,17.45 C12.766,17.187 13.187,16.766 13.45,16.248 C13.622,15.911 13.689,15.554 13.72,15.175 C13.75,14.81 13.75,14.365 13.75,13.83 L13.75,12.811 L14.47,13.53 C14.762,13.823 15.237,13.823 15.53,13.53 C15.823,13.237 15.823,12.762 15.53,12.47 L13.53,10.47 C13.237,10.177 12.762,10.177 12.47,10.47 L10.47,12.47 C10.177,12.762 10.177,13.237 10.47,13.53 C10.762,13.823 11.237,13.823 11.53,13.53 L12.25,12.811 L12.25,13.8 C12.25,14.372 12.249,14.757 12.225,15.052 C12.202,15.34 12.16,15.477 12.114,15.568 C11.994,15.803 11.803,15.994 11.568,16.114 C11.477,16.16 11.34,16.202 11.052,16.225 C10.757,16.249 10.372,16.25 9.8,16.25 L9,16.25 C8.586,16.25 8.25,16.586 8.25,17 Z"/>
</svg>

