<svg xmlns="http://www.w3.org/2000/svg" viewBox="0 0 24 24">
  <defs/>
  <path fill="#151E28" d="M9.367,2.25 L14.633,2.25 C15.725,2.25 16.591,2.25 17.288,2.307 C18.002,2.365 18.605,2.487 19.156,2.768 C20.05,3.223 20.777,3.95 21.232,4.844 C21.513,5.395 21.635,5.998 21.693,6.712 C21.75,7.409 21.75,8.275 21.75,9.367 L21.75,14.633 C21.75,15.725 21.75,16.591 21.693,17.288 C21.635,18.002 21.513,18.605 21.232,19.156 C20.777,20.05 20.05,20.777 19.156,21.232 C18.605,21.513 18.002,21.635 17.288,21.693 C16.591,21.75 15.725,21.75 14.633,21.75 L9.367,21.75 C8.275,21.75 7.409,21.75 6.712,21.693 C5.998,21.635 5.395,21.513 4.844,21.232 C3.95,20.777 3.223,20.05 2.768,19.156 C2.487,18.605 2.365,18.002 2.307,17.288 C2.25,16.591 2.25,15.725 2.25,14.633 L2.25,9.367 C2.25,8.275 2.25,7.409 2.307,6.712 C2.365,5.998 2.487,5.395 2.768,4.844 C3.223,3.95 3.95,3.223 4.844,2.768 C5.395,2.487 5.998,2.365 6.712,2.307 C7.409,2.25 8.275,2.25 9.367,2.25 Z M12,6.25 C11.801,6.25 11.61,6.329 11.47,6.47 L9.803,8.136 C9.51,8.429 9.51,8.904 9.803,9.197 C10.096,9.49 10.571,9.49 10.864,9.197 L11.25,8.811 L11.25,11.25 L8.811,11.25 L9.197,10.864 C9.49,10.571 9.49,10.096 9.197,9.803 C8.904,9.51 8.429,9.51 8.136,9.803 L6.47,11.47 C6.177,11.763 6.177,12.237 6.47,12.53 L8.136,14.197 C8.429,14.49 8.904,14.49 9.197,14.197 C9.49,13.904 9.49,13.429 9.197,13.136 L8.811,12.75 L11.25,12.75 L11.25,15.189 L10.864,14.803 C10.571,14.51 10.096,14.51 9.803,14.803 C9.51,15.096 9.51,15.571 9.803,15.864 L11.47,17.53 C11.763,17.823 12.237,17.823 12.53,17.53 L14.197,15.864 C14.49,15.571 14.49,15.096 14.197,14.803 C13.904,14.51 13.429,14.51 13.136,14.803 L12.75,15.189 L12.75,12.75 L15.189,12.75 L14.803,13.136 C14.51,13.429 14.51,13.904 14.803,14.197 C15.096,14.49 15.571,14.49 15.864,14.197 L17.53,12.53 C17.671,12.39 17.75,12.199 17.75,12 C17.75,11.801 17.671,11.61 17.53,11.47 L15.864,9.803 C15.571,9.51 15.096,9.51 14.803,9.803 C14.51,10.096 14.51,10.571 14.803,10.864 L15.189,11.25 L12.75,11.25 L12.75,8.811 L13.136,9.197 C13.429,9.49 13.904,9.49 14.197,9.197 C14.49,8.904 14.49,8.429 14.197,8.136 L12.53,6.47 C12.39,6.329 12.199,6.25 12,6.25 Z"/>
</svg>

