<svg xmlns="http://www.w3.org/2000/svg" viewBox="0 0 24 24">
  <defs/>
  <path fill="#151E28" d="M9.325,2.25 L14.675,2.25 L14.747,2.25 C15.166,2.25 15.495,2.25 15.814,2.326 C16.094,2.393 16.362,2.504 16.608,2.655 C16.888,2.826 17.121,3.059 17.416,3.356 L17.468,3.407 L20.593,6.532 L20.644,6.584 C20.941,6.879 21.174,7.112 21.345,7.392 C21.496,7.638 21.607,7.906 21.674,8.186 C21.75,8.505 21.75,8.834 21.75,9.253 L21.75,14.747 C21.75,15.166 21.75,15.495 21.674,15.814 C21.607,16.094 21.496,16.362 21.345,16.608 C21.174,16.888 20.941,17.121 20.644,17.416 L17.468,20.593 L17.416,20.644 C17.121,20.941 16.888,21.174 16.608,21.345 C16.362,21.496 16.094,21.607 15.814,21.674 C15.495,21.75 15.166,21.75 14.747,21.75 L9.253,21.75 C8.834,21.75 8.505,21.75 8.186,21.674 C7.906,21.607 7.638,21.496 7.392,21.345 C7.112,21.174 6.879,20.941 6.584,20.644 L6.532,20.593 L3.407,17.468 L3.356,17.416 C3.059,17.121 2.826,16.888 2.655,16.608 C2.504,16.362 2.393,16.094 2.326,15.814 C2.25,15.495 2.25,15.166 2.25,14.747 L2.25,14.675 L2.25,9.325 L2.25,9.253 C2.25,8.834 2.25,8.505 2.326,8.186 C2.393,7.906 2.504,7.638 2.655,7.392 C2.826,7.112 3.059,6.879 3.356,6.584 L3.407,6.532 L6.532,3.407 L6.584,3.356 C6.879,3.059 7.112,2.826 7.392,2.655 C7.638,2.504 7.906,2.393 8.186,2.326 C8.505,2.25 8.834,2.25 9.253,2.25 Z M16.457,9.745 C16.432,8.815 15.685,8.068 14.755,8.043 L11.326,7.95 C9.745,7.907 8.923,9.818 10.041,10.937 L10.211,11.107 L8.434,12.884 C7.751,13.567 7.751,14.675 8.434,15.359 L9.141,16.066 C9.825,16.749 10.933,16.749 11.616,16.066 L13.393,14.289 L13.563,14.459 C14.682,15.577 16.593,14.755 16.55,13.174 Z M14.715,9.542 C14.847,9.546 14.954,9.652 14.958,9.785 L15.05,13.215 C15.057,13.441 14.784,13.558 14.624,13.398 L13.924,12.698 C13.631,12.405 13.156,12.405 12.863,12.698 L10.556,15.005 C10.458,15.103 10.3,15.103 10.202,15.005 L9.495,14.298 C9.397,14.2 9.397,14.042 9.495,13.944 L11.802,11.637 C12.095,11.344 12.095,10.869 11.802,10.576 L11.102,9.876 C10.942,9.716 11.059,9.443 11.285,9.449 Z"/>
</svg>

