<svg xmlns="http://www.w3.org/2000/svg" viewBox="0 0 24 24">
  <defs/>
  <path fill="#151E28" d="M7.75,14.111 C7.75,15.292 8.708,16.25 9.889,16.25 C10.303,16.25 10.639,16.586 10.639,17 C10.639,17.414 10.303,17.75 9.889,17.75 C7.879,17.75 6.25,16.121 6.25,14.111 L6.25,11.768 C6.25,10.955 6.25,10.299 6.293,9.769 C6.338,9.222 6.432,8.742 6.659,8.298 C7.018,7.592 7.592,7.018 8.298,6.659 C8.742,6.432 9.222,6.338 9.769,6.293 C10.299,6.25 10.955,6.25 11.768,6.25 L14.111,6.25 C16.121,6.25 17.75,7.879 17.75,9.889 C17.75,10.303 17.414,10.639 17,10.639 C16.586,10.639 16.25,10.303 16.25,9.889 C16.25,8.708 15.292,7.75 14.111,7.75 L11.8,7.75 C10.948,7.75 10.353,7.751 9.891,7.788 C9.437,7.825 9.176,7.895 8.979,7.995 C8.555,8.211 8.211,8.555 7.995,8.979 C7.895,9.176 7.825,9.437 7.788,9.891 C7.751,10.353 7.75,10.948 7.75,11.8 Z M14,17.75 C13.586,17.75 13.25,17.414 13.25,17 C13.25,16.586 13.586,16.25 14,16.25 L15.189,16.25 L11.47,12.53 C11.177,12.237 11.177,11.763 11.47,11.47 C11.763,11.177 12.237,11.177 12.53,11.47 L16.25,15.189 L16.25,14 C16.25,13.586 16.586,13.25 17,13.25 C17.414,13.25 17.75,13.586 17.75,14 L17.75,17 C17.75,17.414 17.414,17.75 17,17.75 Z"/>
</svg>

