<svg xmlns="http://www.w3.org/2000/svg" viewBox="0 0 24 24">
  <defs/>
  <path fill="#151E28" d="M9.325,2.25 L14.675,2.25 L14.747,2.25 C15.166,2.25 15.495,2.25 15.814,2.326 C16.094,2.393 16.362,2.504 16.608,2.655 C16.888,2.826 17.121,3.059 17.416,3.356 L17.468,3.407 L20.593,6.532 L20.644,6.584 C20.941,6.879 21.174,7.112 21.345,7.392 C21.496,7.638 21.607,7.906 21.674,8.186 C21.75,8.505 21.75,8.834 21.75,9.253 L21.75,14.747 C21.75,15.166 21.75,15.495 21.674,15.814 C21.607,16.094 21.496,16.362 21.345,16.608 C21.174,16.888 20.941,17.121 20.644,17.416 L17.468,20.593 L17.416,20.644 C17.121,20.941 16.888,21.174 16.608,21.345 C16.362,21.496 16.094,21.607 15.814,21.674 C15.495,21.75 15.166,21.75 14.747,21.75 L9.253,21.75 C8.834,21.75 8.505,21.75 8.186,21.674 C7.906,21.607 7.638,21.496 7.392,21.345 C7.112,21.174 6.879,20.941 6.584,20.644 L6.532,20.593 L3.407,17.468 L3.356,17.416 C3.059,17.121 2.826,16.888 2.655,16.608 C2.504,16.362 2.393,16.094 2.326,15.814 C2.25,15.495 2.25,15.166 2.25,14.747 L2.25,14.675 L2.25,9.325 L2.25,9.253 C2.25,8.834 2.25,8.505 2.326,8.186 C2.393,7.906 2.504,7.638 2.655,7.392 C2.826,7.112 3.059,6.879 3.356,6.584 L3.407,6.532 L6.532,3.407 L6.584,3.356 C6.879,3.059 7.112,2.826 7.392,2.655 C7.638,2.504 7.906,2.393 8.186,2.326 C8.505,2.25 8.834,2.25 9.253,2.25 Z M12,15.25 L11.2,15.25 C10.628,15.25 10.243,15.249 9.947,15.225 C9.66,15.202 9.523,15.16 9.433,15.114 C9.197,14.994 9.006,14.803 8.886,14.568 C8.84,14.477 8.798,14.34 8.775,14.052 C8.751,13.757 8.75,13.372 8.75,12.8 L8.75,11.2 C8.75,10.628 8.751,10.243 8.775,9.947 C8.798,9.66 8.84,9.523 8.886,9.433 C9.006,9.197 9.197,9.006 9.433,8.886 C9.523,8.84 9.66,8.798 9.947,8.775 C10.243,8.751 10.628,8.75 11.2,8.75 L12,8.75 C12.414,8.75 12.75,8.414 12.75,8 C12.75,7.586 12.414,7.25 12,7.25 L11.169,7.25 C10.635,7.25 10.189,7.25 9.825,7.28 C9.445,7.311 9.089,7.378 8.752,7.55 C8.234,7.813 7.813,8.234 7.55,8.752 C7.378,9.089 7.311,9.445 7.28,9.825 C7.25,10.19 7.25,10.635 7.25,11.17 L7.25,12.83 C7.25,13.365 7.25,13.81 7.28,14.175 C7.311,14.555 7.378,14.911 7.55,15.248 C7.813,15.766 8.234,16.187 8.752,16.45 C9.089,16.622 9.445,16.689 9.825,16.72 C10.19,16.75 10.635,16.75 11.17,16.75 L12,16.75 C12.414,16.75 12.75,16.414 12.75,16 C12.75,15.586 12.414,15.25 12,15.25 Z M10.449,12.509 L12.295,14.509 C12.576,14.813 13.05,14.832 13.355,14.551 C13.659,14.27 13.678,13.796 13.397,13.491 L12.713,12.75 L16,12.75 C16.414,12.75 16.75,12.414 16.75,12 C16.75,11.586 16.414,11.25 16,11.25 L12.713,11.25 L13.397,10.509 C13.678,10.204 13.659,9.73 13.355,9.449 C13.05,9.168 12.576,9.187 12.295,9.491 L10.449,11.491 C10.184,11.779 10.184,12.221 10.449,12.509 Z"/>
</svg>

