<svg xmlns="http://www.w3.org/2000/svg" viewBox="0 0 24 24">
  <defs/>
  <path fill="#151E28" d="M12,1.25 C17.937,1.25 22.75,6.063 22.75,12 C22.75,17.937 17.937,22.75 12,22.75 C6.063,22.75 1.25,17.937 1.25,12 C1.25,6.063 6.063,1.25 12,1.25 Z M16.53,13.47 C16.237,13.177 15.763,13.177 15.47,13.47 L14.75,14.189 L14.75,11 C14.75,8.929 13.071,7.25 11,7.25 C8.929,7.25 7.25,8.929 7.25,11 L7.25,13 C7.25,13.414 7.586,13.75 8,13.75 C8.414,13.75 8.75,13.414 8.75,13 L8.75,11 C8.75,9.757 9.757,8.75 11,8.75 C12.243,8.75 13.25,9.757 13.25,11 L13.25,14.189 L12.53,13.47 C12.237,13.177 11.763,13.177 11.47,13.47 C11.177,13.763 11.177,14.237 11.47,14.53 L13.47,16.53 C13.763,16.823 14.237,16.823 14.53,16.53 L16.53,14.53 C16.823,14.237 16.823,13.763 16.53,13.47 Z"/>
</svg>

