<svg xmlns="http://www.w3.org/2000/svg" viewBox="0 0 24 24">
  <defs/>
  <path fill="#151E28" d="M13.117,2.479 C13.602,2.695 13.961,3.093 14.285,3.55 C14.606,4.004 14.961,4.617 15.399,5.375 L15.399,5.375 L15.418,5.408 L20.868,14.821 L20.887,14.854 C21.327,15.614 21.684,16.229 21.918,16.736 C22.154,17.245 22.321,17.756 22.266,18.285 C22.185,19.061 21.779,19.766 21.148,20.224 C20.718,20.537 20.192,20.648 19.633,20.699 C19.077,20.75 18.366,20.75 17.488,20.75 L6.512,20.75 C5.634,20.75 4.923,20.75 4.367,20.699 C3.808,20.648 3.282,20.537 2.852,20.224 C2.221,19.766 1.815,19.061 1.734,18.285 C1.679,17.756 1.846,17.245 2.082,16.736 C2.316,16.229 2.673,15.614 3.113,14.854 L3.132,14.821 L8.582,5.408 L8.601,5.375 C9.039,4.618 9.394,4.004 9.715,3.55 C10.039,3.093 10.398,2.695 10.883,2.479 C11.594,2.163 12.406,2.163 13.117,2.479 Z M11.111,10.25 L11.095,10.25 C11.008,10.25 10.94,10.25 10.88,10.253 C9.456,10.315 8.315,11.455 8.253,12.88 C8.25,12.94 8.25,13.007 8.25,13.094 L8.25,14.831 C8.25,15.365 8.25,15.81 8.28,16.175 C8.311,16.555 8.378,16.911 8.55,17.249 C8.813,17.766 9.234,18.187 9.752,18.45 C10.089,18.622 10.445,18.689 10.825,18.72 C11.19,18.75 11.635,18.75 12.17,18.75 L13.905,18.75 C13.992,18.75 14.06,18.75 14.12,18.747 C15.545,18.685 16.685,17.545 16.747,16.12 C16.75,16.06 16.75,15.992 16.75,15.905 L16.75,15.889 C16.75,15.475 16.414,15.139 16,15.139 C15.586,15.139 15.25,15.475 15.25,15.889 C15.25,16 15.25,16.031 15.249,16.055 C15.22,16.702 14.702,17.221 14.054,17.249 C14.031,17.25 14,17.25 13.889,17.25 L12.2,17.25 C11.628,17.25 11.243,17.249 10.948,17.225 C10.66,17.202 10.523,17.16 10.432,17.114 C10.197,16.994 10.006,16.803 9.886,16.567 C9.84,16.477 9.798,16.34 9.775,16.052 C9.751,15.757 9.75,15.372 9.75,14.8 L9.75,13.111 C9.75,13 9.75,12.969 9.751,12.946 C9.779,12.298 10.298,11.779 10.946,11.751 C10.969,11.75 11,11.75 11.111,11.75 C11.525,11.75 11.861,11.414 11.861,11 C11.861,10.586 11.525,10.25 11.111,10.25 Z M14,11.75 L14.189,11.75 L11.47,14.47 C11.177,14.763 11.177,15.238 11.47,15.53 C11.763,15.823 12.237,15.823 12.53,15.53 L15.25,12.811 L15.25,13 C15.25,13.414 15.586,13.75 16,13.75 C16.414,13.75 16.75,13.414 16.75,13 L16.75,11 C16.75,10.586 16.414,10.25 16,10.25 L14,10.25 C13.586,10.25 13.25,10.586 13.25,11 C13.25,11.414 13.586,11.75 14,11.75 Z"/>
</svg>

