<svg xmlns="http://www.w3.org/2000/svg" viewBox="0 0 24 24">
  <defs/>
  <path fill="#151E28" d="M9.325,2.25 L14.675,2.25 L14.747,2.25 C15.166,2.25 15.495,2.25 15.814,2.326 C16.094,2.393 16.362,2.504 16.608,2.655 C16.888,2.826 17.121,3.059 17.416,3.356 L17.468,3.407 L20.593,6.532 L20.644,6.584 C20.941,6.879 21.174,7.112 21.345,7.392 C21.496,7.638 21.607,7.906 21.674,8.186 C21.75,8.505 21.75,8.834 21.75,9.253 L21.75,14.747 C21.75,15.166 21.75,15.495 21.674,15.814 C21.607,16.094 21.496,16.362 21.345,16.608 C21.174,16.888 20.941,17.121 20.644,17.416 L17.468,20.593 L17.416,20.644 C17.121,20.941 16.888,21.174 16.608,21.345 C16.362,21.496 16.094,21.607 15.814,21.674 C15.495,21.75 15.166,21.75 14.747,21.75 L9.253,21.75 C8.834,21.75 8.505,21.75 8.186,21.674 C7.906,21.607 7.638,21.496 7.392,21.345 C7.112,21.174 6.879,20.941 6.584,20.644 L6.532,20.593 L3.407,17.468 L3.356,17.416 C3.059,17.121 2.826,16.888 2.655,16.608 C2.504,16.362 2.393,16.094 2.326,15.814 C2.25,15.495 2.25,15.166 2.25,14.747 L2.25,14.675 L2.25,9.325 L2.25,9.253 C2.25,8.834 2.25,8.505 2.326,8.186 C2.393,7.906 2.504,7.638 2.655,7.392 C2.826,7.112 3.059,6.879 3.356,6.584 L3.407,6.532 L6.532,3.407 L6.584,3.356 C6.879,3.059 7.112,2.826 7.392,2.655 C7.638,2.504 7.906,2.393 8.186,2.326 C8.505,2.25 8.834,2.25 9.253,2.25 Z M12,6.25 C11.801,6.25 11.61,6.329 11.47,6.47 L9.803,8.136 C9.51,8.429 9.51,8.904 9.803,9.197 C10.096,9.49 10.571,9.49 10.864,9.197 L11.25,8.811 L11.25,11.25 L8.811,11.25 L9.197,10.864 C9.49,10.571 9.49,10.096 9.197,9.803 C8.904,9.51 8.429,9.51 8.136,9.803 L6.47,11.47 C6.177,11.763 6.177,12.237 6.47,12.53 L8.136,14.197 C8.429,14.49 8.904,14.49 9.197,14.197 C9.49,13.904 9.49,13.429 9.197,13.136 L8.811,12.75 L11.25,12.75 L11.25,15.189 L10.864,14.803 C10.571,14.51 10.096,14.51 9.803,14.803 C9.51,15.096 9.51,15.571 9.803,15.864 L11.47,17.53 C11.763,17.823 12.237,17.823 12.53,17.53 L14.197,15.864 C14.49,15.571 14.49,15.096 14.197,14.803 C13.904,14.51 13.429,14.51 13.136,14.803 L12.75,15.189 L12.75,12.75 L15.189,12.75 L14.803,13.136 C14.51,13.429 14.51,13.904 14.803,14.197 C15.096,14.49 15.571,14.49 15.864,14.197 L17.53,12.53 C17.671,12.39 17.75,12.199 17.75,12 C17.75,11.801 17.671,11.61 17.53,11.47 L15.864,9.803 C15.571,9.51 15.096,9.51 14.803,9.803 C14.51,10.096 14.51,10.571 14.803,10.864 L15.189,11.25 L12.75,11.25 L12.75,8.811 L13.136,9.197 C13.429,9.49 13.904,9.49 14.197,9.197 C14.49,8.904 14.49,8.429 14.197,8.136 L12.53,6.47 C12.39,6.329 12.199,6.25 12,6.25 Z"/>
</svg>

