<svg xmlns="http://www.w3.org/2000/svg" viewBox="0 0 24 24">
  <defs/>
  <path fill="#151E28" d="M12,1.25 C17.937,1.25 22.75,6.063 22.75,12 C22.75,17.937 17.937,22.75 12,22.75 C6.063,22.75 1.25,17.937 1.25,12 C1.25,6.063 6.063,1.25 12,1.25 Z M7.107,13.204 L9.466,15.694 C10.554,16.842 12.487,16.072 12.487,14.49 L12.487,14.25 L15,14.25 C15.967,14.25 16.75,13.467 16.75,12.5 L16.75,11.5 C16.75,10.533 15.967,9.75 15,9.75 L12.487,9.75 L12.487,9.51 C12.487,7.928 10.554,7.158 9.466,8.306 L7.107,10.796 C6.468,11.471 6.468,12.529 7.107,13.204 Z M8.196,12.172 C8.105,12.075 8.105,11.925 8.196,11.828 L10.555,9.338 C10.711,9.174 10.987,9.284 10.987,9.51 L10.987,10.5 C10.987,10.914 11.323,11.25 11.737,11.25 L15,11.25 C15.138,11.25 15.25,11.362 15.25,11.5 L15.25,12.5 C15.25,12.638 15.138,12.75 15,12.75 L11.737,12.75 C11.323,12.75 10.987,13.086 10.987,13.5 L10.987,14.49 C10.987,14.716 10.711,14.826 10.555,14.662 Z"/>
</svg>

