<svg xmlns="http://www.w3.org/2000/svg" viewBox="0 0 24 24">
  <defs/>
  <path fill="#151E28" d="M13.117,2.479 C13.602,2.695 13.961,3.093 14.285,3.55 C14.606,4.004 14.961,4.617 15.399,5.375 L15.399,5.375 L15.418,5.408 L20.868,14.821 L20.887,14.854 C21.327,15.614 21.684,16.229 21.918,16.736 C22.154,17.245 22.321,17.756 22.266,18.285 C22.185,19.061 21.779,19.766 21.148,20.224 C20.718,20.537 20.192,20.648 19.633,20.699 C19.077,20.75 18.366,20.75 17.488,20.75 L6.512,20.75 C5.634,20.75 4.923,20.75 4.367,20.699 C3.808,20.648 3.282,20.537 2.852,20.224 C2.221,19.766 1.815,19.061 1.734,18.285 C1.679,17.756 1.846,17.245 2.082,16.736 C2.316,16.229 2.673,15.614 3.113,14.854 L3.132,14.821 L8.582,5.408 L8.601,5.375 C9.039,4.618 9.394,4.004 9.715,3.55 C10.039,3.093 10.398,2.695 10.883,2.479 C11.594,2.163 12.406,2.163 13.117,2.479 Z M15.934,18.75 C16.348,18.756 16.688,18.425 16.694,18.01 L16.705,17.255 L16.705,17.225 C16.713,16.684 16.719,16.232 16.694,15.863 C16.668,15.479 16.604,15.118 16.434,14.776 C16.173,14.251 15.752,13.823 15.231,13.555 C14.891,13.38 14.53,13.312 14.146,13.28 C13.784,13.25 13.341,13.25 12.811,13.25 L13.53,12.53 C13.823,12.237 13.823,11.762 13.53,11.47 C13.238,11.177 12.763,11.177 12.47,11.47 L10.47,13.47 C10.177,13.762 10.177,14.237 10.47,14.53 L12.47,16.53 C12.763,16.823 13.238,16.823 13.53,16.53 C13.823,16.237 13.823,15.762 13.53,15.47 L12.811,14.75 C13.36,14.75 13.734,14.751 14.024,14.775 C14.314,14.799 14.453,14.842 14.544,14.889 C14.781,15.01 14.972,15.205 15.091,15.443 C15.137,15.535 15.177,15.674 15.197,15.965 C15.218,16.265 15.213,16.655 15.205,17.234 L15.194,17.99 C15.188,18.404 15.519,18.744 15.934,18.75 Z M10.53,16.53 C10.823,16.237 10.823,15.762 10.53,15.47 L9.061,14 L10.53,12.53 C10.823,12.237 10.823,11.762 10.53,11.47 C10.238,11.177 9.763,11.177 9.47,11.47 L7.47,13.47 C7.329,13.61 7.25,13.801 7.25,14 C7.25,14.199 7.329,14.39 7.47,14.53 L9.47,16.53 C9.763,16.823 10.238,16.823 10.53,16.53 Z"/>
</svg>

