<svg xmlns="http://www.w3.org/2000/svg" viewBox="0 0 24 24">
  <defs/>
  <path fill="#151E28" d="M13.117,2.479 C13.602,2.695 13.961,3.093 14.285,3.55 C14.606,4.004 14.961,4.617 15.399,5.375 L15.399,5.375 L15.418,5.408 L20.868,14.821 L20.887,14.854 C21.327,15.614 21.684,16.229 21.918,16.736 C22.154,17.245 22.321,17.756 22.266,18.285 C22.185,19.061 21.779,19.766 21.148,20.224 C20.718,20.537 20.192,20.648 19.633,20.699 C19.077,20.75 18.366,20.75 17.488,20.75 L6.512,20.75 C5.634,20.75 4.923,20.75 4.367,20.699 C3.808,20.648 3.282,20.537 2.852,20.224 C2.221,19.766 1.815,19.061 1.734,18.285 C1.679,17.756 1.846,17.245 2.082,16.736 C2.316,16.229 2.673,15.614 3.113,14.854 L3.132,14.821 L8.582,5.408 L8.601,5.375 C9.039,4.618 9.394,4.004 9.715,3.55 C10.039,3.093 10.398,2.695 10.883,2.479 C11.594,2.163 12.406,2.163 13.117,2.479 Z M15.75,17 C15.75,16.586 15.414,16.25 15,16.25 L14.2,16.25 C13.628,16.25 13.243,16.249 12.948,16.225 C12.66,16.202 12.523,16.16 12.432,16.114 C12.197,15.994 12.006,15.803 11.886,15.568 C11.84,15.477 11.798,15.34 11.775,15.052 C11.751,14.757 11.75,14.372 11.75,13.8 L11.75,12.811 L12.47,13.53 C12.762,13.823 13.237,13.823 13.53,13.53 C13.823,13.237 13.823,12.762 13.53,12.47 L11.53,10.47 C11.237,10.177 10.762,10.177 10.47,10.47 L8.47,12.47 C8.177,12.762 8.177,13.237 8.47,13.53 C8.763,13.823 9.237,13.823 9.53,13.53 L10.25,12.811 L10.25,13.83 C10.25,14.365 10.25,14.81 10.28,15.175 C10.311,15.554 10.378,15.911 10.55,16.248 C10.813,16.766 11.234,17.187 11.752,17.45 C12.089,17.622 12.445,17.689 12.825,17.72 C13.189,17.75 13.635,17.75 14.17,17.75 L15,17.75 C15.414,17.75 15.75,17.414 15.75,17 Z"/>
</svg>

