<svg xmlns="http://www.w3.org/2000/svg" viewBox="0 0 24 24">
  <defs/>
  <path fill="#151E28" d="M13.117,2.479 C13.602,2.695 13.961,3.093 14.285,3.55 C14.606,4.004 14.961,4.617 15.399,5.375 L15.418,5.408 L20.868,14.821 L20.887,14.854 C21.327,15.614 21.684,16.229 21.918,16.736 C22.154,17.245 22.321,17.756 22.266,18.285 C22.185,19.061 21.779,19.766 21.148,20.224 C20.718,20.537 20.192,20.648 19.633,20.699 C19.077,20.75 18.366,20.75 17.488,20.75 L6.512,20.75 C5.634,20.75 4.923,20.75 4.367,20.699 C3.808,20.648 3.282,20.537 2.852,20.224 C2.221,19.766 1.815,19.061 1.734,18.285 C1.679,17.756 1.846,17.245 2.082,16.736 C2.316,16.229 2.673,15.614 3.113,14.854 L3.132,14.821 L8.582,5.408 L8.601,5.375 C9.039,4.618 9.394,4.004 9.715,3.55 C10.039,3.093 10.398,2.695 10.883,2.479 C11.594,2.163 12.406,2.163 13.117,2.479 Z M12,18.75 C12.415,18.75 12.75,18.414 12.75,18 L12.75,16.811 L12.97,17.03 C13.262,17.323 13.737,17.323 14.03,17.03 C14.323,16.738 14.323,16.263 14.03,15.97 L12.531,14.47 C12.238,14.177 11.763,14.177 11.47,14.47 L9.97,15.97 C9.677,16.262 9.677,16.737 9.97,17.03 C10.262,17.323 10.737,17.323 11.03,17.03 L11.25,16.81 L11.25,18 C11.25,18.414 11.586,18.75 12,18.75 Z M12,7.25 C11.586,7.25 11.25,7.586 11.25,8 L11.25,9.19 L11.03,8.97 C10.737,8.677 10.262,8.677 9.97,8.97 C9.677,9.263 9.677,9.738 9.97,10.03 L11.47,11.53 C11.763,11.823 12.238,11.823 12.531,11.53 L14.03,10.03 C14.323,9.737 14.323,9.262 14.03,8.97 C13.737,8.677 13.262,8.677 12.97,8.97 L12.75,9.189 L12.75,8 C12.75,7.586 12.415,7.25 12,7.25 Z M9,13.75 L15,13.75 C15.415,13.75 15.75,13.414 15.75,13 C15.75,12.586 15.415,12.25 15,12.25 L9,12.25 C8.586,12.25 8.25,12.586 8.25,13 C8.25,13.414 8.586,13.75 9,13.75 Z"/>
</svg>

