<svg xmlns="http://www.w3.org/2000/svg" viewBox="0 0 24 24">
  <defs/>
  <path fill="#151E28" d="M9.325,2.25 L14.675,2.25 L14.747,2.25 C15.166,2.25 15.495,2.25 15.814,2.326 C16.094,2.393 16.362,2.504 16.608,2.655 C16.888,2.826 17.121,3.059 17.416,3.356 L17.468,3.407 L20.593,6.532 L20.644,6.584 C20.941,6.879 21.174,7.112 21.345,7.392 C21.496,7.638 21.607,7.906 21.674,8.186 C21.75,8.505 21.75,8.834 21.75,9.253 L21.75,14.747 C21.75,15.166 21.75,15.495 21.674,15.814 C21.607,16.094 21.496,16.362 21.345,16.608 C21.174,16.888 20.941,17.121 20.644,17.416 L17.468,20.593 L17.416,20.644 C17.121,20.941 16.888,21.174 16.608,21.345 C16.362,21.496 16.094,21.607 15.814,21.674 C15.495,21.75 15.166,21.75 14.747,21.75 L9.253,21.75 C8.834,21.75 8.505,21.75 8.186,21.674 C7.906,21.607 7.638,21.496 7.392,21.345 C7.112,21.174 6.879,20.941 6.584,20.644 L6.532,20.593 L3.407,17.468 L3.356,17.416 C3.059,17.121 2.826,16.888 2.655,16.608 C2.504,16.362 2.393,16.094 2.326,15.814 C2.25,15.495 2.25,15.166 2.25,14.747 L2.25,14.675 L2.25,9.325 L2.25,9.253 C2.25,8.834 2.25,8.505 2.326,8.186 C2.393,7.906 2.504,7.638 2.655,7.392 C2.826,7.112 3.059,6.879 3.356,6.584 L3.407,6.532 L6.532,3.407 L6.584,3.356 C6.879,3.059 7.112,2.826 7.392,2.655 C7.638,2.504 7.906,2.393 8.186,2.326 C8.505,2.25 8.834,2.25 9.253,2.25 Z M7.543,9.745 L7.45,13.174 C7.407,14.755 9.318,15.577 10.437,14.459 L10.607,14.289 L12.384,16.066 C13.067,16.749 14.175,16.749 14.859,16.066 L15.566,15.359 C16.249,14.675 16.249,13.567 15.566,12.884 L13.789,11.107 L13.959,10.937 C15.077,9.818 14.255,7.907 12.674,7.95 L9.245,8.043 C8.315,8.068 7.568,8.815 7.543,9.745 Z M9.285,9.542 L12.715,9.449 C12.941,9.443 13.058,9.716 12.898,9.876 L12.198,10.576 C11.905,10.869 11.905,11.344 12.198,11.637 L14.505,13.944 C14.603,14.042 14.603,14.2 14.505,14.298 L13.798,15.005 C13.7,15.103 13.542,15.103 13.444,15.005 L11.137,12.698 C10.844,12.405 10.369,12.405 10.076,12.698 L9.376,13.398 C9.216,13.558 8.943,13.441 8.949,13.215 L9.042,9.785 C9.046,9.652 9.153,9.546 9.285,9.542 Z"/>
</svg>

