<svg xmlns="http://www.w3.org/2000/svg" viewBox="0 0 24 24">
  <defs/>
  <path fill="#151E28" d="M13.117,2.479 C13.602,2.695 13.961,3.093 14.285,3.55 C14.606,4.004 14.961,4.617 15.399,5.375 L15.399,5.375 L15.418,5.408 L20.868,14.821 L20.887,14.854 C21.327,15.614 21.684,16.229 21.918,16.736 C22.154,17.245 22.321,17.756 22.266,18.285 C22.185,19.061 21.779,19.766 21.148,20.224 C20.718,20.537 20.192,20.648 19.633,20.699 C19.077,20.75 18.366,20.75 17.488,20.75 L6.512,20.75 C5.634,20.75 4.923,20.75 4.367,20.699 C3.808,20.648 3.282,20.537 2.852,20.224 C2.221,19.766 1.815,19.061 1.734,18.285 C1.679,17.756 1.846,17.245 2.082,16.736 C2.316,16.229 2.673,15.614 3.113,14.854 L3.132,14.821 L8.582,5.408 L8.601,5.375 C9.039,4.618 9.394,4.004 9.715,3.55 C10.039,3.093 10.398,2.695 10.883,2.479 C11.594,2.163 12.406,2.163 13.117,2.479 Z M8.25,11 C8.25,11.414 8.586,11.75 9,11.75 L9.8,11.75 C10.372,11.75 10.757,11.751 11.052,11.775 C11.34,11.798 11.477,11.84 11.568,11.886 C11.803,12.006 11.994,12.197 12.114,12.432 C12.16,12.523 12.202,12.66 12.225,12.947 C12.249,13.243 12.25,13.627 12.25,14.2 L12.25,15.189 L11.53,14.47 C11.237,14.177 10.762,14.177 10.47,14.47 C10.177,14.762 10.177,15.237 10.47,15.53 L12.47,17.53 C12.762,17.823 13.237,17.823 13.53,17.53 L15.53,15.53 C15.823,15.237 15.823,14.762 15.53,14.47 C15.237,14.177 14.762,14.177 14.47,14.47 L13.75,15.189 L13.75,14.17 C13.75,13.635 13.75,13.189 13.72,12.825 C13.689,12.445 13.622,12.089 13.45,11.752 C13.187,11.234 12.766,10.813 12.248,10.55 C11.911,10.378 11.554,10.311 11.175,10.28 C10.81,10.25 10.365,10.25 9.831,10.25 L9,10.25 C8.586,10.25 8.25,10.586 8.25,11 Z"/>
</svg>

