<svg xmlns="http://www.w3.org/2000/svg" viewBox="0 0 24 24">
  <defs/>
  <path fill="#151E28" d="M9.367,2.25 L14.633,2.25 C15.725,2.25 16.591,2.25 17.288,2.307 C18.002,2.365 18.605,2.487 19.156,2.768 C20.05,3.223 20.777,3.95 21.232,4.844 C21.513,5.395 21.635,5.998 21.693,6.712 C21.75,7.409 21.75,8.275 21.75,9.367 L21.75,14.633 C21.75,15.725 21.75,16.591 21.693,17.288 C21.635,18.002 21.513,18.605 21.232,19.156 C20.777,20.05 20.05,20.777 19.156,21.232 C18.605,21.513 18.002,21.635 17.288,21.693 C16.591,21.75 15.725,21.75 14.633,21.75 L9.367,21.75 C8.275,21.75 7.409,21.75 6.712,21.693 C5.998,21.635 5.395,21.513 4.844,21.232 C3.95,20.777 3.223,20.05 2.768,19.156 C2.487,18.605 2.365,18.002 2.307,17.288 C2.25,16.591 2.25,15.725 2.25,14.633 L2.25,9.367 C2.25,8.275 2.25,7.409 2.307,6.712 C2.365,5.998 2.487,5.395 2.768,4.844 C3.223,3.95 3.95,3.223 4.844,2.768 C5.395,2.487 5.998,2.365 6.712,2.307 C7.409,2.25 8.275,2.25 9.367,2.25 Z M16.75,8 C16.75,7.586 16.414,7.25 16,7.25 L13.714,7.25 C13.3,7.25 12.964,7.586 12.964,8 C12.964,8.414 13.3,8.75 13.714,8.75 L14.189,8.75 L12,10.939 L9.811,8.75 L10.286,8.75 C10.7,8.75 11.036,8.414 11.036,8 C11.036,7.586 10.7,7.25 10.286,7.25 L8,7.25 C7.586,7.25 7.25,7.586 7.25,8 L7.25,10.286 C7.25,10.7 7.586,11.036 8,11.036 C8.414,11.036 8.75,10.7 8.75,10.286 L8.75,9.811 L10.939,12 L8.75,14.189 L8.75,13.714 C8.75,13.3 8.414,12.964 8,12.964 C7.586,12.964 7.25,13.3 7.25,13.714 L7.25,16 C7.25,16.414 7.586,16.75 8,16.75 L10.286,16.75 C10.7,16.75 11.036,16.414 11.036,16 C11.036,15.586 10.7,15.25 10.286,15.25 L9.811,15.25 L12,13.061 L14.189,15.25 L13.714,15.25 C13.3,15.25 12.964,15.586 12.964,16 C12.964,16.414 13.3,16.75 13.714,16.75 L16,16.75 C16.414,16.75 16.75,16.414 16.75,16 L16.75,13.714 C16.75,13.3 16.414,12.964 16,12.964 C15.586,12.964 15.25,13.3 15.25,13.714 L15.25,14.189 L13.061,12 L15.25,9.811 L15.25,10.286 C15.25,10.7 15.586,11.036 16,11.036 C16.414,11.036 16.75,10.7 16.75,10.286 Z"/>
</svg>

