<svg xmlns="http://www.w3.org/2000/svg" viewBox="0 0 24 24">
  <defs/>
  <path fill="#151E28" d="M9.367,2.25 L14.633,2.25 C15.725,2.25 16.591,2.25 17.288,2.307 C18.002,2.365 18.605,2.487 19.156,2.768 C20.05,3.223 20.777,3.95 21.232,4.844 C21.513,5.395 21.635,5.998 21.693,6.712 C21.75,7.409 21.75,8.275 21.75,9.367 L21.75,14.633 C21.75,15.725 21.75,16.591 21.693,17.288 C21.635,18.002 21.513,18.605 21.232,19.156 C20.777,20.05 20.05,20.777 19.156,21.232 C18.605,21.513 18.002,21.635 17.288,21.693 C16.591,21.75 15.725,21.75 14.633,21.75 L9.367,21.75 C8.275,21.75 7.409,21.75 6.712,21.693 C5.998,21.635 5.395,21.513 4.844,21.232 C3.95,20.777 3.223,20.05 2.768,19.156 C2.487,18.605 2.365,18.002 2.307,17.288 C2.25,16.591 2.25,15.725 2.25,14.633 L2.25,9.367 C2.25,8.275 2.25,7.409 2.307,6.712 C2.365,5.998 2.487,5.395 2.768,4.844 C3.223,3.95 3.95,3.223 4.844,2.768 C5.395,2.487 5.998,2.365 6.712,2.307 C7.409,2.25 8.275,2.25 9.367,2.25 Z M10.111,16.75 C10.525,16.75 10.861,16.414 10.861,16 C10.861,15.586 10.525,15.25 10.111,15.25 C10,15.25 9.969,15.25 9.945,15.249 C9.298,15.22 8.779,14.702 8.751,14.054 C8.75,14.031 8.75,14 8.75,13.889 L8.75,11.2 C8.75,10.628 8.751,10.243 8.775,9.947 C8.798,9.66 8.84,9.523 8.886,9.433 C9.006,9.197 9.197,9.006 9.433,8.886 C9.523,8.84 9.66,8.798 9.947,8.775 C10.243,8.751 10.628,8.75 11.2,8.75 L13.889,8.75 C14,8.75 14.031,8.75 14.054,8.751 C14.702,8.779 15.22,9.298 15.249,9.945 C15.25,9.969 15.25,10 15.25,10.111 C15.25,10.525 15.586,10.861 16,10.861 C16.414,10.861 16.75,10.525 16.75,10.111 L16.75,10.095 C16.75,10.007 16.75,9.94 16.747,9.88 C16.685,8.456 15.545,7.315 14.12,7.253 C14.06,7.25 13.993,7.25 13.906,7.25 L11.169,7.25 C10.635,7.25 10.189,7.25 9.825,7.28 C9.445,7.311 9.089,7.378 8.752,7.55 C8.234,7.813 7.813,8.234 7.55,8.752 C7.378,9.089 7.311,9.445 7.28,9.825 C7.25,10.19 7.25,10.635 7.25,11.169 L7.25,13.905 C7.25,13.993 7.25,14.06 7.253,14.12 C7.315,15.545 8.456,16.685 9.88,16.747 C9.94,16.75 10.008,16.75 10.095,16.75 Z M12.85,16 C12.85,16.414 13.186,16.75 13.6,16.75 L16,16.75 C16.414,16.75 16.75,16.414 16.75,16 L16.75,13.6 C16.75,13.186 16.414,12.85 16,12.85 C15.586,12.85 15.25,13.186 15.25,13.6 L15.25,14.189 L12.53,11.47 C12.237,11.177 11.763,11.177 11.47,11.47 C11.177,11.762 11.177,12.237 11.47,12.53 L14.189,15.25 L13.6,15.25 C13.186,15.25 12.85,15.586 12.85,16 Z"/>
</svg>

