<svg xmlns="http://www.w3.org/2000/svg" viewBox="0 0 24 24">
  <defs/>
  <path fill="#151E28" d="M12,1.25 C17.937,1.25 22.75,6.063 22.75,12 C22.75,17.937 17.937,22.75 12,22.75 C6.063,22.75 1.25,17.937 1.25,12 C1.25,6.063 6.063,1.25 12,1.25 Z M9.227,11.227 C8.934,11.52 8.934,11.995 9.227,12.288 L12.189,15.25 L9.758,15.25 C9.343,15.25 9.008,15.586 9.008,16 C9.008,16.414 9.343,16.75 9.758,16.75 L14,16.75 C14.199,16.75 14.39,16.671 14.531,16.531 C14.671,16.39 14.75,16.199 14.75,16 L14.75,11.757 C14.75,11.343 14.414,11.007 14,11.007 C13.586,11.007 13.25,11.343 13.25,11.757 L13.25,14.189 L10.288,11.227 C9.995,10.934 9.52,10.934 9.227,11.227 Z M8.25,8 C8.25,8.414 8.586,8.75 9,8.75 L15,8.75 C15.414,8.75 15.75,8.414 15.75,8 C15.75,7.586 15.414,7.25 15,7.25 L9,7.25 C8.586,7.25 8.25,7.586 8.25,8 Z"/>
</svg>

