<svg xmlns="http://www.w3.org/2000/svg" viewBox="0 0 24 24">
  <defs/>
  <path fill="#151E28" d="M13.117,2.479 C13.602,2.695 13.961,3.093 14.285,3.55 C14.606,4.004 14.961,4.617 15.399,5.375 L15.399,5.375 L15.418,5.408 L20.868,14.821 L20.887,14.854 C21.327,15.614 21.684,16.229 21.918,16.736 C22.154,17.245 22.321,17.756 22.266,18.285 C22.185,19.061 21.779,19.766 21.148,20.224 C20.718,20.537 20.192,20.648 19.633,20.699 C19.077,20.75 18.366,20.75 17.488,20.75 L6.512,20.75 C5.634,20.75 4.923,20.75 4.367,20.699 C3.808,20.648 3.282,20.537 2.852,20.224 C2.221,19.766 1.815,19.061 1.734,18.285 C1.679,17.756 1.846,17.245 2.082,16.736 C2.316,16.229 2.673,15.614 3.113,14.854 L3.132,14.821 L8.582,5.408 L8.601,5.375 C9.039,4.618 9.394,4.004 9.715,3.55 C10.039,3.093 10.398,2.695 10.883,2.479 C11.594,2.163 12.406,2.163 13.117,2.479 Z M8.543,11.745 L8.45,15.174 C8.407,16.755 10.318,17.577 11.437,16.459 L11.607,16.289 L11.97,16.652 C12.653,17.335 13.761,17.335 14.444,16.652 L15.152,15.944 C15.835,15.261 15.835,14.153 15.152,13.47 L14.789,13.107 L14.959,12.937 C16.077,11.818 15.255,9.907 13.674,9.95 L10.245,10.043 C9.315,10.068 8.568,10.815 8.543,11.745 Z M10.285,11.542 L13.715,11.449 C13.941,11.443 14.058,11.716 13.898,11.876 L13.198,12.576 C12.905,12.869 12.905,13.344 13.198,13.637 L14.091,14.53 C14.189,14.628 14.189,14.786 14.091,14.884 L13.384,15.591 C13.286,15.689 13.128,15.689 13.03,15.591 L12.137,14.698 C11.844,14.405 11.369,14.405 11.076,14.698 L10.376,15.398 C10.216,15.558 9.943,15.441 9.949,15.215 L10.042,11.785 C10.046,11.653 10.153,11.546 10.285,11.542 Z M14.091,18.773 C14.384,19.066 14.859,19.066 15.152,18.773 L17.273,16.652 C17.566,16.359 17.566,15.884 17.273,15.591 C16.98,15.298 16.505,15.298 16.212,15.591 L14.091,17.712 C13.798,18.005 13.798,18.48 14.091,18.773 Z"/>
</svg>

