<svg xmlns="http://www.w3.org/2000/svg" viewBox="0 0 24 24">
  <defs/>
  <path fill="#151E28" d="M7.245,15.043 L7.249,10.332 C7.25,8.794 9.093,8.005 10.206,9.067 L10.803,9.636 L13.263,7.177 C13.946,6.493 15.054,6.493 15.738,7.177 L16.869,8.308 C17.552,8.991 17.552,10.099 16.869,10.783 L14.409,13.243 L14.947,13.807 C16.005,14.918 15.225,16.755 13.691,16.764 L9.007,16.794 C8.035,16.801 7.245,16.015 7.245,15.043 Z M8.997,15.294 L13.682,15.265 C13.901,15.263 14.012,15.001 13.861,14.842 L12.818,13.747 C12.537,13.452 12.543,12.987 12.831,12.7 L15.808,9.722 C15.906,9.625 15.906,9.466 15.808,9.369 L14.677,8.237 C14.579,8.14 14.421,8.14 14.323,8.237 L11.346,11.215 C11.058,11.502 10.593,11.508 10.298,11.227 L9.171,10.153 C9.012,10.001 8.749,10.113 8.749,10.333 L8.745,15.044 C8.745,15.183 8.858,15.295 8.997,15.294 Z"/>
</svg>

