<svg xmlns="http://www.w3.org/2000/svg" viewBox="0 0 24 24">
  <defs/>
  <path fill="#151E28" d="M9.325,2.25 L14.675,2.25 L14.747,2.25 C15.166,2.25 15.495,2.25 15.814,2.326 C16.094,2.393 16.362,2.504 16.608,2.655 C16.888,2.826 17.121,3.059 17.416,3.356 L17.468,3.407 L20.593,6.532 L20.644,6.584 C20.941,6.879 21.174,7.112 21.345,7.392 C21.496,7.638 21.607,7.906 21.674,8.186 C21.75,8.505 21.75,8.834 21.75,9.253 L21.75,14.747 C21.75,15.166 21.75,15.495 21.674,15.814 C21.607,16.094 21.496,16.362 21.345,16.608 C21.174,16.888 20.941,17.121 20.644,17.416 L17.468,20.593 L17.416,20.644 C17.121,20.941 16.888,21.174 16.608,21.345 C16.362,21.496 16.094,21.607 15.814,21.674 C15.495,21.75 15.166,21.75 14.747,21.75 L9.253,21.75 C8.834,21.75 8.505,21.75 8.186,21.674 C7.906,21.607 7.638,21.496 7.392,21.345 C7.112,21.174 6.879,20.941 6.584,20.644 L6.532,20.593 L3.407,17.468 L3.356,17.416 C3.059,17.121 2.826,16.888 2.655,16.608 C2.504,16.362 2.393,16.094 2.326,15.814 C2.25,15.495 2.25,15.166 2.25,14.747 L2.25,14.675 L2.25,9.325 L2.25,9.253 C2.25,8.834 2.25,8.505 2.326,8.186 C2.393,7.906 2.504,7.638 2.655,7.392 C2.826,7.112 3.059,6.879 3.356,6.584 L3.407,6.532 L6.532,3.407 L6.584,3.356 C6.879,3.059 7.112,2.826 7.392,2.655 C7.638,2.504 7.906,2.393 8.186,2.326 C8.505,2.25 8.834,2.25 9.253,2.25 Z M8.25,14 C8.25,14.967 9.033,15.75 10,15.75 L13.476,15.75 C15.062,15.75 15.83,13.811 14.675,12.725 L14.563,12.619 L14.909,12.273 C15.592,11.59 15.592,10.481 14.909,9.798 L14.202,9.091 C13.519,8.408 12.41,8.408 11.727,9.091 L11.381,9.437 L11.275,9.325 C10.189,8.17 8.25,8.938 8.25,10.524 Z M10,14.25 C9.862,14.25 9.75,14.138 9.75,14 L9.75,10.524 C9.75,10.297 10.027,10.187 10.182,10.352 L10.818,11.028 C10.957,11.176 11.15,11.261 11.353,11.264 C11.556,11.268 11.751,11.188 11.894,11.045 L12.788,10.152 C12.885,10.054 13.044,10.054 13.141,10.152 L13.848,10.859 C13.946,10.956 13.946,11.115 13.848,11.212 L12.955,12.106 C12.812,12.249 12.733,12.444 12.736,12.647 C12.739,12.85 12.824,13.043 12.972,13.182 L13.648,13.818 C13.813,13.973 13.703,14.25 13.476,14.25 Z M13.848,6.97 C13.556,7.263 13.556,7.737 13.848,8.03 L15.97,10.152 C16.263,10.445 16.737,10.445 17.03,10.152 C17.323,9.859 17.323,9.384 17.03,9.091 L14.909,6.97 C14.616,6.677 14.141,6.677 13.848,6.97 Z"/>
</svg>

