<svg xmlns="http://www.w3.org/2000/svg" viewBox="0 0 24 24">
  <defs/>
  <path fill="#151E28" d="M12,1.25 C17.937,1.25 22.75,6.063 22.75,12 C22.75,17.937 17.937,22.75 12,22.75 C6.063,22.75 1.25,17.937 1.25,12 C1.25,6.063 6.063,1.25 12,1.25 Z M6.49,8.45 C6.187,8.731 6.168,9.206 6.45,9.51 L8.672,11.91 C9.568,12.877 11.099,12.877 11.995,11.91 C12.297,11.583 12.814,11.583 13.116,11.91 L15.283,14.25 L13.667,14.25 C13.252,14.25 12.917,14.586 12.917,15 C12.917,15.414 13.252,15.75 13.667,15.75 L17,15.75 C17.414,15.75 17.75,15.414 17.75,15 L17.75,11.4 C17.75,10.986 17.414,10.65 17,10.65 C16.586,10.65 16.25,10.986 16.25,11.4 L16.25,13.086 L14.217,10.89 C13.321,9.923 11.79,9.923 10.894,10.89 C10.592,11.217 10.075,11.217 9.773,10.89 L7.55,8.49 C7.269,8.187 6.794,8.168 6.49,8.45 Z"/>
</svg>

