<svg xmlns="http://www.w3.org/2000/svg" viewBox="0 0 24 24">
  <defs/>
  <path fill="#151E28" d="M13.117,2.479 C13.602,2.695 13.961,3.093 14.285,3.55 C14.606,4.004 14.961,4.617 15.399,5.375 L15.399,5.375 L15.418,5.408 L20.868,14.821 L20.887,14.854 C21.327,15.614 21.684,16.229 21.918,16.736 C22.154,17.245 22.321,17.756 22.266,18.285 C22.185,19.061 21.779,19.766 21.148,20.224 C20.718,20.537 20.192,20.648 19.633,20.699 C19.077,20.75 18.366,20.75 17.488,20.75 L6.512,20.75 C5.634,20.75 4.923,20.75 4.367,20.699 C3.808,20.648 3.282,20.537 2.852,20.224 C2.221,19.766 1.815,19.061 1.734,18.285 C1.679,17.756 1.846,17.245 2.082,16.736 C2.316,16.229 2.673,15.614 3.113,14.854 L3.132,14.821 L8.582,5.408 L8.601,5.375 C9.039,4.618 9.394,4.004 9.715,3.55 C10.039,3.093 10.398,2.695 10.883,2.479 C11.594,2.163 12.406,2.163 13.117,2.479 Z M11.53,18.53 C11.823,18.237 11.823,17.763 11.53,17.47 L10.811,16.75 L13,16.75 C15.071,16.75 16.75,15.071 16.75,13 C16.75,10.929 15.071,9.25 13,9.25 L12,9.25 C11.586,9.25 11.25,9.586 11.25,10 C11.25,10.414 11.586,10.75 12,10.75 L13,10.75 C14.243,10.75 15.25,11.757 15.25,13 C15.25,14.243 14.243,15.25 13,15.25 L10.811,15.25 L11.53,14.53 C11.823,14.237 11.823,13.762 11.53,13.47 C11.237,13.177 10.762,13.177 10.47,13.47 L8.47,15.47 C8.177,15.762 8.177,16.237 8.47,16.53 L10.47,18.53 C10.762,18.823 11.237,18.823 11.53,18.53 Z"/>
</svg>

