<svg xmlns="http://www.w3.org/2000/svg" viewBox="0 0 24 24">
  <defs/>
  <path fill="#151E28" d="M9.367,2.25 L14.633,2.25 C15.725,2.25 16.591,2.25 17.288,2.307 C18.002,2.365 18.605,2.487 19.156,2.768 C20.05,3.223 20.777,3.95 21.232,4.844 C21.513,5.395 21.635,5.998 21.693,6.712 C21.75,7.409 21.75,8.275 21.75,9.367 L21.75,14.633 C21.75,15.725 21.75,16.591 21.693,17.288 C21.635,18.002 21.513,18.605 21.232,19.156 C20.777,20.05 20.05,20.777 19.156,21.232 C18.605,21.513 18.002,21.635 17.288,21.693 C16.591,21.75 15.725,21.75 14.633,21.75 L9.367,21.75 C8.275,21.75 7.409,21.75 6.712,21.693 C5.998,21.635 5.395,21.513 4.844,21.232 C3.95,20.777 3.223,20.05 2.768,19.156 C2.487,18.605 2.365,18.002 2.307,17.288 C2.25,16.591 2.25,15.725 2.25,14.633 L2.25,9.367 C2.25,8.275 2.25,7.409 2.307,6.712 C2.365,5.998 2.487,5.395 2.768,4.844 C3.223,3.95 3.95,3.223 4.844,2.768 C5.395,2.487 5.998,2.365 6.712,2.307 C7.409,2.25 8.275,2.25 9.367,2.25 Z M12,15.25 L11.2,15.25 C10.628,15.25 10.243,15.249 9.947,15.225 C9.66,15.202 9.523,15.16 9.433,15.114 C9.197,14.994 9.006,14.803 8.886,14.568 C8.84,14.477 8.798,14.34 8.775,14.052 C8.751,13.757 8.75,13.372 8.75,12.8 L8.75,11.2 C8.75,10.628 8.751,10.243 8.775,9.947 C8.798,9.66 8.84,9.523 8.886,9.433 C9.006,9.197 9.197,9.006 9.433,8.886 C9.523,8.84 9.66,8.798 9.947,8.775 C10.243,8.751 10.628,8.75 11.2,8.75 L12,8.75 C12.414,8.75 12.75,8.414 12.75,8 C12.75,7.586 12.414,7.25 12,7.25 L11.169,7.25 C10.635,7.25 10.19,7.25 9.825,7.28 C9.445,7.311 9.089,7.378 8.752,7.55 C8.234,7.813 7.813,8.234 7.55,8.752 C7.378,9.089 7.311,9.445 7.28,9.825 C7.25,10.19 7.25,10.635 7.25,11.17 L7.25,12.83 C7.25,13.365 7.25,13.81 7.28,14.175 C7.311,14.555 7.378,14.911 7.55,15.248 C7.813,15.766 8.234,16.187 8.752,16.45 C9.089,16.622 9.445,16.689 9.825,16.72 C10.19,16.75 10.635,16.75 11.17,16.75 L12,16.75 C12.414,16.75 12.75,16.414 12.75,16 C12.75,15.586 12.414,15.25 12,15.25 Z M16.53,11.47 L14.53,9.47 C14.238,9.177 13.763,9.177 13.47,9.47 C13.177,9.763 13.177,10.237 13.47,10.53 L14.189,11.25 L11,11.25 C10.586,11.25 10.25,11.586 10.25,12 C10.25,12.414 10.586,12.75 11,12.75 L14.189,12.75 L13.47,13.47 C13.177,13.763 13.177,14.237 13.47,14.53 C13.763,14.823 14.238,14.823 14.53,14.53 L16.53,12.53 C16.823,12.237 16.823,11.763 16.53,11.47 Z"/>
</svg>

