<svg xmlns="http://www.w3.org/2000/svg" viewBox="0 0 24 24">
  <defs/>
  <path fill="#151E28" d="M13.117,2.479 C13.602,2.695 13.961,3.093 14.285,3.55 C14.606,4.004 14.961,4.617 15.399,5.375 L15.418,5.408 L20.868,14.821 L20.887,14.854 C21.327,15.614 21.684,16.229 21.918,16.736 C22.154,17.245 22.321,17.756 22.266,18.285 C22.185,19.061 21.779,19.766 21.148,20.224 C20.718,20.537 20.192,20.648 19.633,20.699 C19.077,20.75 18.366,20.75 17.488,20.75 L6.512,20.75 C5.634,20.75 4.923,20.75 4.367,20.699 C3.808,20.648 3.282,20.537 2.852,20.224 C2.221,19.766 1.815,19.061 1.734,18.285 C1.679,17.756 1.846,17.245 2.082,16.736 C2.316,16.229 2.673,15.614 3.113,14.854 L3.132,14.821 L8.582,5.408 L8.601,5.375 C9.039,4.618 9.394,4.004 9.715,3.55 C10.039,3.093 10.398,2.695 10.883,2.479 C11.594,2.163 12.406,2.163 13.117,2.479 Z M13.889,17.75 L13.905,17.75 C13.993,17.75 14.06,17.75 14.12,17.747 C15.545,17.685 16.685,16.544 16.747,15.12 C16.75,15.06 16.75,14.992 16.75,14.905 L16.75,13.17 C16.75,12.635 16.75,12.189 16.72,11.825 C16.689,11.445 16.622,11.089 16.45,10.752 C16.187,10.234 15.766,9.813 15.248,9.55 C14.911,9.378 14.555,9.311 14.175,9.28 C13.81,9.25 13.365,9.25 12.83,9.25 L11.095,9.25 C11.008,9.25 10.94,9.25 10.88,9.253 C9.456,9.315 8.315,10.455 8.253,11.88 C8.25,11.94 8.25,12.007 8.25,12.094 L8.25,12.111 C8.25,12.525 8.586,12.861 9,12.861 C9.414,12.861 9.75,12.525 9.75,12.111 C9.75,12 9.75,11.969 9.751,11.945 C9.779,11.298 10.298,10.779 10.946,10.751 C10.969,10.75 11,10.75 11.111,10.75 L12.8,10.75 C13.372,10.75 13.757,10.75 14.052,10.775 C14.34,10.798 14.477,10.84 14.568,10.886 C14.803,11.006 14.994,11.197 15.114,11.432 C15.16,11.523 15.202,11.66 15.225,11.947 C15.249,12.243 15.25,12.627 15.25,13.2 L15.25,14.889 C15.25,15 15.25,15.031 15.249,15.054 C15.22,15.702 14.702,16.221 14.054,16.249 C14.031,16.25 14,16.25 13.889,16.25 C13.475,16.25 13.139,16.586 13.139,17 C13.139,17.414 13.475,17.75 13.889,17.75 Z M10.763,16.297 L12.297,14.763 C12.404,15.047 12.678,15.25 13,15.25 C13.414,15.25 13.75,14.914 13.75,14.5 L13.75,13 C13.75,12.586 13.414,12.25 13,12.25 L11.5,12.25 C11.086,12.25 10.75,12.586 10.75,13 C10.75,13.321 10.952,13.596 11.237,13.702 L9.703,15.237 C9.596,14.952 9.322,14.75 9,14.75 C8.586,14.75 8.25,15.086 8.25,15.5 L8.25,17 C8.25,17.414 8.586,17.75 9,17.75 L10.5,17.75 C10.914,17.75 11.25,17.414 11.25,17 C11.25,16.678 11.048,16.404 10.763,16.297 Z"/>
</svg>

