<svg xmlns="http://www.w3.org/2000/svg" viewBox="0 0 24 24">
  <defs/>
  <path fill="#151E28" d="M18,19.75 L7.272,19.75 C5.713,19.75 4.932,17.865 6.035,16.763 L8.747,14.05 L5.742,11.045 C5.058,10.362 5.058,9.254 5.742,8.57 L8.57,5.742 C9.254,5.059 10.362,5.059 11.045,5.742 L14.05,8.747 L16.763,6.035 C17.865,4.932 19.75,5.713 19.75,7.272 L19.75,18 C19.75,18.967 18.966,19.75 18,19.75 Z M18.25,18 L18.25,7.272 C18.25,7.05 17.981,6.938 17.823,7.095 L14.58,10.338 C14.288,10.631 13.813,10.631 13.52,10.338 L9.984,6.803 C9.887,6.705 9.728,6.705 9.631,6.803 L6.802,9.631 C6.705,9.729 6.705,9.887 6.802,9.985 L10.338,13.52 C10.631,13.813 10.631,14.288 10.338,14.581 L7.095,17.823 C6.938,17.981 7.049,18.25 7.272,18.25 L18,18.25 C18.138,18.25 18.25,18.138 18.25,18 Z M2.913,8.217 C2.62,7.924 2.62,7.449 2.913,7.156 L7.156,2.914 C7.449,2.621 7.924,2.621 8.217,2.914 C8.509,3.206 8.509,3.681 8.217,3.974 L3.974,8.217 C3.681,8.51 3.206,8.51 2.913,8.217 Z"/>
</svg>

