<svg xmlns="http://www.w3.org/2000/svg" viewBox="0 0 24 24">
  <defs/>
  <path fill="#151E28" d="M12,1.25 C17.937,1.25 22.75,6.063 22.75,12 C22.75,17.937 17.937,22.75 12,22.75 C6.063,22.75 1.25,17.937 1.25,12 C1.25,6.063 6.063,1.25 12,1.25 Z M8.75,12 C8.75,11.586 8.414,11.25 8,11.25 C7.586,11.25 7.25,11.586 7.25,12 L7.25,12.831 C7.25,13.365 7.25,13.81 7.28,14.175 C7.311,14.555 7.378,14.911 7.55,15.248 C7.813,15.766 8.234,16.187 8.752,16.45 C9.089,16.622 9.445,16.689 9.825,16.72 C10.19,16.75 10.635,16.75 11.17,16.75 L12.83,16.75 C13.365,16.75 13.81,16.75 14.175,16.72 C14.555,16.689 14.911,16.622 15.248,16.45 C15.766,16.187 16.187,15.766 16.45,15.248 C16.622,14.911 16.689,14.555 16.72,14.175 C16.75,13.811 16.75,13.365 16.75,12.83 L16.75,12 C16.75,11.586 16.414,11.25 16,11.25 C15.586,11.25 15.25,11.586 15.25,12 L15.25,12.8 C15.25,13.372 15.249,13.757 15.225,14.052 C15.202,14.34 15.16,14.477 15.114,14.568 C14.994,14.803 14.803,14.994 14.568,15.114 C14.477,15.16 14.34,15.202 14.052,15.225 C13.757,15.249 13.372,15.25 12.8,15.25 L11.2,15.25 C10.628,15.25 10.243,15.249 9.947,15.225 C9.66,15.202 9.523,15.16 9.433,15.114 C9.197,14.994 9.006,14.803 8.886,14.568 C8.84,14.477 8.798,14.34 8.775,14.052 C8.751,13.757 8.75,13.372 8.75,12.8 Z M12.53,7.47 C12.237,7.177 11.763,7.177 11.47,7.47 L9.47,9.47 C9.177,9.763 9.177,10.237 9.47,10.53 C9.763,10.823 10.237,10.823 10.53,10.53 L11.25,9.811 L11.25,13 C11.25,13.414 11.586,13.75 12,13.75 C12.414,13.75 12.75,13.414 12.75,13 L12.75,9.811 L13.47,10.53 C13.763,10.823 14.237,10.823 14.53,10.53 C14.823,10.237 14.823,9.763 14.53,9.47 Z"/>
</svg>

