<svg xmlns="http://www.w3.org/2000/svg" viewBox="0 0 24 24">
  <defs/>
  <path fill="#151E28" d="M9.367,2.25 L14.633,2.25 C15.725,2.25 16.591,2.25 17.288,2.307 C18.002,2.365 18.605,2.487 19.156,2.768 C20.05,3.223 20.777,3.95 21.232,4.844 C21.513,5.395 21.635,5.998 21.693,6.712 C21.75,7.409 21.75,8.275 21.75,9.367 L21.75,14.633 C21.75,15.725 21.75,16.591 21.693,17.288 C21.635,18.002 21.513,18.605 21.232,19.156 C20.777,20.05 20.05,20.777 19.156,21.232 C18.605,21.513 18.002,21.635 17.288,21.693 C16.591,21.75 15.725,21.75 14.633,21.75 L9.367,21.75 C8.275,21.75 7.409,21.75 6.712,21.693 C5.998,21.635 5.395,21.513 4.844,21.232 C3.95,20.777 3.223,20.05 2.768,19.156 C2.487,18.605 2.365,18.002 2.307,17.288 C2.25,16.591 2.25,15.725 2.25,14.633 L2.25,9.367 C2.25,8.275 2.25,7.409 2.307,6.712 C2.365,5.998 2.487,5.395 2.768,4.844 C3.223,3.95 3.95,3.223 4.844,2.768 C5.395,2.487 5.998,2.365 6.712,2.307 C7.409,2.25 8.275,2.25 9.367,2.25 Z M15,8.25 C14.586,8.25 14.25,8.586 14.25,9 L14.25,9.2 C14.25,10.052 14.249,10.647 14.212,11.109 C14.175,11.563 14.105,11.824 14.005,12.021 C13.789,12.445 13.445,12.789 13.021,13.005 C12.824,13.105 12.563,13.175 12.109,13.212 C11.647,13.249 11.052,13.25 10.2,13.25 L9.811,13.25 L10.53,12.53 C10.823,12.237 10.823,11.763 10.53,11.47 C10.237,11.177 9.763,11.177 9.47,11.47 L7.47,13.47 C7.177,13.763 7.177,14.237 7.47,14.53 L9.47,16.53 C9.763,16.823 10.237,16.823 10.53,16.53 C10.823,16.237 10.823,15.763 10.53,15.47 L9.811,14.75 L10.232,14.75 C11.045,14.75 11.701,14.75 12.231,14.707 C12.778,14.662 13.258,14.568 13.703,14.341 C14.408,13.982 14.982,13.408 15.341,12.703 C15.568,12.258 15.662,11.778 15.707,11.231 C15.75,10.701 15.75,10.045 15.75,9.232 L15.75,9 C15.75,8.586 15.414,8.25 15,8.25 Z"/>
</svg>

