<svg xmlns="http://www.w3.org/2000/svg" viewBox="0 0 24 24">
  <defs/>
  <path fill="#151E28" d="M12,1.25 C17.937,1.25 22.75,6.063 22.75,12 C22.75,17.937 17.937,22.75 12,22.75 C6.063,22.75 1.25,17.937 1.25,12 C1.25,6.063 6.063,1.25 12,1.25 Z M15.53,8.47 C15.237,8.177 14.763,8.177 14.47,8.47 L9.75,13.189 L9.75,10.5 C9.75,10.086 9.414,9.75 9,9.75 C8.586,9.75 8.25,10.086 8.25,10.5 L8.25,15 C8.25,15.414 8.586,15.75 9,15.75 L13.5,15.75 C13.914,15.75 14.25,15.414 14.25,15 C14.25,14.586 13.914,14.25 13.5,14.25 L10.811,14.25 L15.53,9.53 C15.823,9.237 15.823,8.763 15.53,8.47 Z"/>
</svg>

