<svg xmlns="http://www.w3.org/2000/svg" viewBox="0 0 24 24">
  <defs/>
  <path fill="#151E28" d="M12,1.25 C17.937,1.25 22.75,6.063 22.75,12 C22.75,17.937 17.937,22.75 12,22.75 C6.063,22.75 1.25,17.937 1.25,12 C1.25,6.063 6.063,1.25 12,1.25 Z M16.457,9.745 C16.432,8.815 15.685,8.068 14.755,8.043 L11.326,7.95 C9.745,7.907 8.923,9.818 10.041,10.937 L10.211,11.107 L8.434,12.884 C7.751,13.567 7.751,14.675 8.434,15.359 L9.141,16.066 C9.825,16.749 10.933,16.749 11.616,16.066 L13.393,14.289 L13.563,14.459 C14.682,15.577 16.593,14.755 16.55,13.174 Z M14.715,9.542 C14.847,9.546 14.954,9.652 14.958,9.785 L15.05,13.215 C15.057,13.441 14.784,13.558 14.624,13.398 L13.924,12.698 C13.631,12.405 13.156,12.405 12.863,12.698 L10.556,15.005 C10.458,15.103 10.3,15.103 10.202,15.005 L9.495,14.298 C9.397,14.2 9.397,14.042 9.495,13.944 L11.802,11.637 C12.095,11.344 12.095,10.869 11.802,10.576 L11.102,9.876 C10.942,9.716 11.059,9.443 11.285,9.449 Z"/>
</svg>

