<svg xmlns="http://www.w3.org/2000/svg" viewBox="0 0 24 24">
  <defs/>
  <path fill="#151E28" d="M12,1.25 C17.937,1.25 22.75,6.063 22.75,12 C22.75,17.937 17.937,22.75 12,22.75 C6.063,22.75 1.25,17.937 1.25,12 C1.25,6.063 6.063,1.25 12,1.25 Z M15.53,15.53 C15.823,15.237 15.823,14.763 15.53,14.47 L10.811,9.75 L13.5,9.75 C13.914,9.75 14.25,9.414 14.25,9 C14.25,8.586 13.914,8.25 13.5,8.25 L9,8.25 C8.586,8.25 8.25,8.586 8.25,9 L8.25,13.5 C8.25,13.914 8.586,14.25 9,14.25 C9.414,14.25 9.75,13.914 9.75,13.5 L9.75,10.811 L14.47,15.53 C14.763,15.823 15.237,15.823 15.53,15.53 Z"/>
</svg>

