<svg xmlns="http://www.w3.org/2000/svg" viewBox="0 0 24 24">
  <defs/>
  <path fill="#151E28" d="M9.367,2.25 L14.633,2.25 C15.725,2.25 16.591,2.25 17.288,2.307 C18.002,2.365 18.605,2.487 19.156,2.768 C20.05,3.223 20.777,3.95 21.232,4.844 C21.513,5.395 21.635,5.998 21.693,6.712 C21.75,7.409 21.75,8.275 21.75,9.367 L21.75,14.633 C21.75,15.725 21.75,16.591 21.693,17.288 C21.635,18.002 21.513,18.605 21.232,19.156 C20.777,20.05 20.05,20.777 19.156,21.232 C18.605,21.513 18.002,21.635 17.288,21.693 C16.591,21.75 15.725,21.75 14.633,21.75 L9.367,21.75 C8.275,21.75 7.409,21.75 6.712,21.693 C5.998,21.635 5.395,21.513 4.844,21.232 C3.95,20.777 3.223,20.05 2.768,19.156 C2.487,18.605 2.365,18.002 2.307,17.288 C2.25,16.591 2.25,15.725 2.25,14.633 L2.25,9.367 C2.25,8.275 2.25,7.409 2.307,6.712 C2.365,5.998 2.487,5.395 2.768,4.844 C3.223,3.95 3.95,3.223 4.844,2.768 C5.395,2.487 5.998,2.365 6.712,2.307 C7.409,2.25 8.275,2.25 9.367,2.25 Z M6.49,8.45 C6.187,8.731 6.168,9.206 6.45,9.51 L8.672,11.91 C9.568,12.877 11.099,12.877 11.995,11.91 C12.297,11.583 12.814,11.583 13.116,11.91 L15.283,14.25 L13.667,14.25 C13.252,14.25 12.917,14.586 12.917,15 C12.917,15.414 13.252,15.75 13.667,15.75 L17,15.75 C17.414,15.75 17.75,15.414 17.75,15 L17.75,11.4 C17.75,10.986 17.414,10.65 17,10.65 C16.586,10.65 16.25,10.986 16.25,11.4 L16.25,13.086 L14.217,10.89 C13.321,9.923 11.79,9.923 10.894,10.89 C10.592,11.217 10.075,11.217 9.773,10.89 L7.55,8.49 C7.269,8.187 6.794,8.168 6.49,8.45 Z"/>
</svg>

