<svg xmlns="http://www.w3.org/2000/svg" viewBox="0 0 24 24">
  <defs/>
  <path fill="#151E28" d="M12,1.25 C17.937,1.25 22.75,6.063 22.75,12 C22.75,17.937 17.937,22.75 12,22.75 C6.063,22.75 1.25,17.937 1.25,12 C1.25,6.063 6.063,1.25 12,1.25 Z M11.53,8.47 C11.237,8.177 10.763,8.177 10.47,8.47 L7.47,11.47 C7.177,11.763 7.177,12.237 7.47,12.53 L10.47,15.53 C10.763,15.823 11.237,15.823 11.53,15.53 C11.823,15.237 11.823,14.763 11.53,14.47 L9.811,12.75 L16,12.75 C16.414,12.75 16.75,12.414 16.75,12 C16.75,11.586 16.414,11.25 16,11.25 L9.811,11.25 L11.53,9.53 C11.823,9.237 11.823,8.763 11.53,8.47 Z"/>
</svg>

