<svg xmlns="http://www.w3.org/2000/svg" viewBox="0 0 24 24">
  <defs/>
  <path fill="#151E28" d="M9.367,2.25 L14.633,2.25 C15.725,2.25 16.591,2.25 17.288,2.307 C18.002,2.365 18.605,2.487 19.156,2.768 C20.05,3.223 20.777,3.95 21.232,4.844 C21.513,5.395 21.635,5.998 21.693,6.712 C21.75,7.409 21.75,8.275 21.75,9.367 L21.75,14.633 C21.75,15.725 21.75,16.591 21.693,17.288 C21.635,18.002 21.513,18.605 21.232,19.156 C20.777,20.05 20.05,20.777 19.156,21.232 C18.605,21.513 18.002,21.635 17.288,21.693 C16.591,21.75 15.725,21.75 14.633,21.75 L9.367,21.75 C8.275,21.75 7.409,21.75 6.712,21.693 C5.998,21.635 5.395,21.513 4.844,21.232 C3.95,20.777 3.223,20.05 2.768,19.156 C2.487,18.605 2.365,18.002 2.307,17.288 C2.25,16.591 2.25,15.725 2.25,14.633 L2.25,9.367 C2.25,8.275 2.25,7.409 2.307,6.712 C2.365,5.998 2.487,5.395 2.768,4.844 C3.223,3.95 3.95,3.223 4.844,2.768 C5.395,2.487 5.998,2.365 6.712,2.307 C7.409,2.25 8.275,2.25 9.367,2.25 Z M15.75,9 C15.75,8.586 15.414,8.25 15,8.25 L14.768,8.25 C13.955,8.25 13.299,8.25 12.769,8.293 C12.222,8.338 11.742,8.432 11.297,8.659 C10.592,9.018 10.018,9.592 9.659,10.297 C9.432,10.742 9.338,11.222 9.293,11.769 C9.25,12.299 9.25,12.955 9.25,13.768 L9.25,14.189 L8.53,13.47 C8.237,13.177 7.763,13.177 7.47,13.47 C7.177,13.763 7.177,14.237 7.47,14.53 L9.47,16.53 C9.763,16.823 10.237,16.823 10.53,16.53 L12.53,14.53 C12.823,14.237 12.823,13.763 12.53,13.47 C12.237,13.177 11.763,13.177 11.47,13.47 L10.75,14.189 L10.75,13.8 C10.75,12.948 10.751,12.353 10.788,11.891 C10.825,11.437 10.895,11.176 10.995,10.979 C11.211,10.555 11.555,10.211 11.979,9.995 C12.176,9.895 12.437,9.825 12.891,9.788 C13.353,9.751 13.948,9.75 14.8,9.75 L15,9.75 C15.414,9.75 15.75,9.414 15.75,9 Z"/>
</svg>

