<svg xmlns="http://www.w3.org/2000/svg" viewBox="0 0 24 24">
  <defs/>
  <path fill="#151E28" d="M13.111,6.25 L13.214,6.25 C13.941,6.25 14.437,6.25 14.865,6.351 C16.245,6.678 17.322,7.755 17.649,9.135 C17.75,9.563 17.75,10.059 17.75,10.786 L17.75,10.889 L17.75,12.238 C17.75,13.048 17.75,13.702 17.707,14.231 C17.662,14.778 17.568,15.258 17.341,15.703 C16.982,16.408 16.408,16.982 15.703,17.341 C15.258,17.568 14.778,17.662 14.231,17.707 C13.702,17.75 13.048,17.75 12.238,17.75 L10.889,17.75 L10.786,17.75 C10.059,17.75 9.563,17.75 9.135,17.649 C7.755,17.322 6.678,16.245 6.351,14.865 C6.25,14.437 6.25,13.941 6.25,13.214 L6.25,13.214 L6.25,13.111 C6.25,12.697 6.586,12.361 7,12.361 C7.414,12.361 7.75,12.697 7.75,13.111 C7.75,13.98 7.755,14.285 7.811,14.519 C8.007,15.347 8.653,15.993 9.481,16.189 C9.716,16.245 10.02,16.25 10.889,16.25 L12.2,16.25 C13.052,16.25 13.647,16.25 14.109,16.212 C14.563,16.175 14.824,16.105 15.021,16.005 C15.445,15.789 15.789,15.445 16.005,15.021 C16.105,14.824 16.175,14.563 16.212,14.109 C16.25,13.647 16.25,13.052 16.25,12.2 L16.25,10.889 C16.25,10.02 16.245,9.716 16.189,9.481 C15.993,8.653 15.347,8.007 14.519,7.811 C14.285,7.755 13.98,7.75 13.111,7.75 C12.697,7.75 12.361,7.414 12.361,7 C12.361,6.586 12.697,6.25 13.111,6.25 Z M9.75,7 C9.75,7.414 9.414,7.75 9,7.75 L8.811,7.75 L11.25,10.189 L11.25,10 C11.25,9.586 11.586,9.25 12,9.25 C12.414,9.25 12.75,9.586 12.75,10 L12.75,12 C12.75,12.414 12.414,12.75 12,12.75 L10,12.75 C9.586,12.75 9.25,12.414 9.25,12 C9.25,11.586 9.586,11.25 10,11.25 L10.189,11.25 L7.75,8.811 L7.75,9 C7.75,9.414 7.414,9.75 7,9.75 C6.586,9.75 6.25,9.414 6.25,9 L6.25,7 C6.25,6.586 6.586,6.25 7,6.25 L9,6.25 C9.414,6.25 9.75,6.586 9.75,7 Z"/>
</svg>

