<svg xmlns="http://www.w3.org/2000/svg" viewBox="0 0 24 24">
  <defs/>
  <path fill="#151E28" d="M13.117,2.479 C13.602,2.695 13.961,3.093 14.285,3.55 C14.606,4.004 14.961,4.617 15.399,5.375 L15.399,5.375 L15.418,5.408 L20.868,14.821 L20.887,14.854 C21.327,15.614 21.684,16.229 21.918,16.736 C22.154,17.245 22.321,17.756 22.266,18.285 C22.185,19.061 21.779,19.766 21.148,20.224 C20.718,20.537 20.192,20.648 19.633,20.699 C19.077,20.75 18.366,20.75 17.488,20.75 L6.512,20.75 C5.634,20.75 4.923,20.75 4.367,20.699 C3.808,20.648 3.282,20.537 2.852,20.224 C2.221,19.766 1.815,19.061 1.734,18.285 C1.679,17.756 1.846,17.245 2.082,16.736 C2.316,16.229 2.673,15.614 3.113,14.854 L3.132,14.821 L8.582,5.408 L8.601,5.375 C9.039,4.618 9.394,4.004 9.715,3.55 C10.039,3.093 10.398,2.695 10.883,2.479 C11.594,2.163 12.406,2.163 13.117,2.479 Z M15,17.75 C15.414,17.75 15.75,17.414 15.75,17 L15.75,16.17 C15.75,15.635 15.75,15.189 15.72,14.825 C15.689,14.445 15.622,14.089 15.45,13.752 C15.187,13.234 14.766,12.813 14.248,12.55 C13.911,12.378 13.554,12.311 13.175,12.28 C12.81,12.25 12.365,12.25 11.83,12.25 L10.811,12.25 L11.53,11.53 C11.823,11.237 11.823,10.762 11.53,10.47 C11.237,10.177 10.762,10.177 10.47,10.47 L8.47,12.47 C8.177,12.762 8.177,13.237 8.47,13.53 L10.47,15.53 C10.762,15.823 11.237,15.823 11.53,15.53 C11.823,15.237 11.823,14.762 11.53,14.47 L10.811,13.75 L11.8,13.75 C12.372,13.75 12.757,13.751 13.052,13.775 C13.34,13.798 13.477,13.84 13.568,13.886 C13.803,14.006 13.994,14.197 14.114,14.432 C14.16,14.523 14.202,14.66 14.225,14.948 C14.249,15.243 14.25,15.627 14.25,16.2 L14.25,17 C14.25,17.414 14.586,17.75 15,17.75 Z"/>
</svg>

