<svg xmlns="http://www.w3.org/2000/svg" viewBox="0 0 24 24">
  <defs/>
  <path fill="#151E28" d="M13.117,2.479 C13.602,2.695 13.961,3.093 14.285,3.55 C14.606,4.004 14.961,4.617 15.399,5.375 L15.399,5.375 L15.418,5.408 L20.868,14.821 L20.887,14.854 C21.327,15.614 21.684,16.229 21.918,16.736 C22.154,17.245 22.321,17.756 22.266,18.285 C22.185,19.061 21.779,19.766 21.148,20.224 C20.718,20.537 20.192,20.648 19.633,20.699 C19.077,20.75 18.366,20.75 17.488,20.75 L6.512,20.75 C5.634,20.75 4.923,20.75 4.367,20.699 C3.808,20.648 3.282,20.537 2.852,20.224 C2.221,19.766 1.815,19.061 1.734,18.285 C1.679,17.756 1.846,17.245 2.082,16.736 C2.316,16.229 2.673,15.614 3.113,14.854 L3.132,14.821 L8.582,5.408 L8.601,5.375 C9.039,4.618 9.394,4.004 9.715,3.55 C10.039,3.093 10.398,2.695 10.883,2.479 C11.594,2.163 12.406,2.163 13.117,2.479 Z M10.796,17.393 C11.471,18.032 12.529,18.032 13.203,17.393 L15.694,15.033 C16.842,13.946 16.072,12.013 14.49,12.013 L14.25,12.013 L14.25,9.5 C14.25,8.533 13.467,7.75 12.5,7.75 L11.5,7.75 C10.533,7.75 9.75,8.533 9.75,9.5 L9.75,12.013 L9.51,12.013 C7.928,12.013 7.158,13.946 8.306,15.033 Z M12.172,16.304 C12.075,16.395 11.925,16.395 11.828,16.304 L9.338,13.945 C9.174,13.789 9.284,13.513 9.51,13.513 L10.5,13.513 C10.914,13.513 11.25,13.177 11.25,12.763 L11.25,9.5 C11.25,9.362 11.362,9.25 11.5,9.25 L12.5,9.25 C12.638,9.25 12.75,9.362 12.75,9.5 L12.75,12.763 C12.75,13.177 13.086,13.513 13.5,13.513 L14.49,13.513 C14.716,13.513 14.826,13.789 14.662,13.945 Z"/>
</svg>

