<svg xmlns="http://www.w3.org/2000/svg" viewBox="0 0 24 24">
  <defs/>
  <path fill="#151E28" d="M13.117,2.479 C13.602,2.695 13.961,3.093 14.285,3.55 C14.606,4.004 14.961,4.617 15.399,5.375 L15.399,5.375 L15.418,5.408 L20.868,14.821 L20.887,14.854 C21.327,15.614 21.684,16.229 21.918,16.736 C22.154,17.245 22.321,17.756 22.266,18.285 C22.185,19.061 21.779,19.766 21.148,20.224 C20.718,20.537 20.192,20.648 19.633,20.699 C19.077,20.75 18.366,20.75 17.488,20.75 L6.512,20.75 C5.634,20.75 4.923,20.75 4.367,20.699 C3.808,20.648 3.282,20.537 2.852,20.224 C2.221,19.766 1.815,19.061 1.734,18.285 C1.679,17.756 1.846,17.245 2.082,16.736 C2.316,16.229 2.673,15.614 3.113,14.854 L3.132,14.821 L8.582,5.408 L8.601,5.375 C9.039,4.618 9.394,4.004 9.715,3.55 C10.039,3.093 10.398,2.695 10.883,2.479 C11.594,2.163 12.406,2.163 13.117,2.479 Z M16.893,15.203 C17.532,14.529 17.532,13.471 16.893,12.796 L14.534,10.306 C13.446,9.158 11.513,9.928 11.513,11.51 L11.513,11.75 L11,11.75 C10.033,11.75 9.25,12.533 9.25,13.5 L9.25,14.5 C9.25,15.467 10.033,16.25 11,16.25 L11.513,16.25 L11.513,16.49 C11.513,18.072 13.446,18.842 14.534,17.694 Z M15.804,13.828 C15.895,13.925 15.895,14.075 15.804,14.172 L13.445,16.662 C13.289,16.826 13.013,16.716 13.013,16.49 L13.013,15.5 C13.013,15.086 12.677,14.75 12.263,14.75 L11,14.75 C10.862,14.75 10.75,14.638 10.75,14.5 L10.75,13.5 C10.75,13.362 10.862,13.25 11,13.25 L12.263,13.25 C12.677,13.25 13.013,12.914 13.013,12.5 L13.013,11.51 C13.013,11.284 13.289,11.174 13.445,11.338 Z M8,16.25 C8.414,16.25 8.75,15.914 8.75,15.5 L8.75,12.5 C8.75,12.086 8.414,11.75 8,11.75 C7.586,11.75 7.25,12.086 7.25,12.5 L7.25,15.5 C7.25,15.914 7.586,16.25 8,16.25 Z"/>
</svg>

