<svg xmlns="http://www.w3.org/2000/svg" viewBox="0 0 24 24">
  <defs/>
  <path fill="#151E28" d="M9.367,2.25 L14.633,2.25 C15.725,2.25 16.591,2.25 17.288,2.307 C18.002,2.365 18.605,2.487 19.156,2.768 C20.05,3.223 20.777,3.95 21.232,4.844 C21.513,5.395 21.635,5.998 21.693,6.712 C21.75,7.409 21.75,8.275 21.75,9.367 L21.75,14.633 C21.75,15.725 21.75,16.591 21.693,17.288 C21.635,18.002 21.513,18.605 21.232,19.156 C20.777,20.05 20.05,20.777 19.156,21.232 C18.605,21.513 18.002,21.635 17.288,21.693 C16.591,21.75 15.725,21.75 14.633,21.75 L9.367,21.75 C8.275,21.75 7.409,21.75 6.712,21.693 C5.998,21.635 5.395,21.513 4.844,21.232 C3.95,20.777 3.223,20.05 2.768,19.156 C2.487,18.605 2.365,18.002 2.307,17.288 C2.25,16.591 2.25,15.725 2.25,14.633 L2.25,9.367 C2.25,8.275 2.25,7.409 2.307,6.712 C2.365,5.998 2.487,5.395 2.768,4.844 C3.223,3.95 3.95,3.223 4.844,2.768 C5.395,2.487 5.998,2.365 6.712,2.307 C7.409,2.25 8.275,2.25 9.367,2.25 Z M8.75,13 L8.75,12.2 C8.75,11.628 8.751,11.243 8.775,10.948 C8.798,10.66 8.84,10.523 8.886,10.432 C9.006,10.197 9.197,10.006 9.433,9.886 C9.523,9.84 9.66,9.798 9.947,9.775 C10.243,9.751 10.628,9.75 11.2,9.75 L12.8,9.75 C13.372,9.75 13.757,9.751 14.052,9.775 C14.34,9.798 14.477,9.84 14.568,9.886 C14.803,10.006 14.994,10.197 15.114,10.432 C15.16,10.523 15.202,10.66 15.225,10.948 C15.249,11.243 15.25,11.628 15.25,12.2 L15.25,13 C15.25,13.414 15.586,13.75 16,13.75 C16.414,13.75 16.75,13.414 16.75,13 L16.75,12.17 C16.75,11.635 16.75,11.189 16.72,10.825 C16.689,10.445 16.622,10.089 16.45,9.752 C16.187,9.234 15.766,8.813 15.248,8.55 C14.911,8.378 14.555,8.311 14.175,8.28 C13.81,8.25 13.365,8.25 12.831,8.25 L11.169,8.25 C10.635,8.25 10.19,8.25 9.825,8.28 C9.445,8.311 9.089,8.378 8.752,8.55 C8.234,8.813 7.813,9.234 7.55,9.752 C7.378,10.089 7.311,10.445 7.28,10.825 C7.25,11.19 7.25,11.635 7.25,12.169 L7.25,13 C7.25,13.414 7.586,13.75 8,13.75 C8.414,13.75 8.75,13.414 8.75,13 Z M11.47,11.47 L9.47,13.47 C9.177,13.762 9.177,14.237 9.47,14.53 C9.763,14.823 10.237,14.823 10.53,14.53 L11.25,13.811 L11.25,17 C11.25,17.414 11.586,17.75 12,17.75 C12.414,17.75 12.75,17.414 12.75,17 L12.75,13.811 L13.47,14.53 C13.763,14.823 14.237,14.823 14.53,14.53 C14.823,14.237 14.823,13.762 14.53,13.47 L12.53,11.47 C12.237,11.177 11.763,11.177 11.47,11.47 Z"/>
</svg>

