<svg xmlns="http://www.w3.org/2000/svg" viewBox="0 0 24 24">
  <defs/>
  <path fill="#151E28" d="M9.325,2.25 L14.675,2.25 L14.747,2.25 C15.166,2.25 15.495,2.25 15.814,2.326 C16.094,2.393 16.362,2.504 16.608,2.655 C16.888,2.826 17.121,3.059 17.416,3.356 L17.468,3.407 L20.593,6.532 L20.644,6.584 C20.941,6.879 21.174,7.112 21.345,7.392 C21.496,7.638 21.607,7.906 21.674,8.186 C21.75,8.505 21.75,8.834 21.75,9.253 L21.75,14.747 C21.75,15.166 21.75,15.495 21.674,15.814 C21.607,16.094 21.496,16.362 21.345,16.608 C21.174,16.888 20.941,17.121 20.644,17.416 L17.468,20.593 L17.416,20.644 C17.121,20.941 16.888,21.174 16.608,21.345 C16.362,21.496 16.094,21.607 15.814,21.674 C15.495,21.75 15.166,21.75 14.747,21.75 L9.253,21.75 C8.834,21.75 8.505,21.75 8.186,21.674 C7.906,21.607 7.638,21.496 7.392,21.345 C7.112,21.174 6.879,20.941 6.584,20.644 L6.532,20.593 L3.407,17.468 L3.356,17.416 C3.059,17.121 2.826,16.888 2.655,16.608 C2.504,16.362 2.393,16.094 2.326,15.814 C2.25,15.495 2.25,15.166 2.25,14.747 L2.25,14.675 L2.25,9.325 L2.25,9.253 C2.25,8.834 2.25,8.505 2.326,8.186 C2.393,7.906 2.504,7.638 2.655,7.392 C2.826,7.112 3.059,6.879 3.356,6.584 L3.407,6.532 L6.532,3.407 L6.584,3.356 C6.879,3.059 7.112,2.826 7.392,2.655 C7.638,2.504 7.906,2.393 8.186,2.326 C8.505,2.25 8.834,2.25 9.253,2.25 Z M10.308,7.47 C10.015,7.177 9.54,7.177 9.247,7.47 L7.47,9.247 C7.177,9.54 7.177,10.015 7.47,10.308 L9.247,12.086 C9.54,12.379 10.015,12.379 10.308,12.086 C10.601,11.793 10.601,11.318 10.308,11.025 L9.811,10.528 L14.222,10.528 C14.636,10.528 14.972,10.192 14.972,9.778 C14.972,9.364 14.636,9.028 14.222,9.028 L9.811,9.028 L10.308,8.53 C10.601,8.237 10.601,7.763 10.308,7.47 Z M13.692,11.914 C13.399,12.207 13.399,12.682 13.692,12.975 L14.189,13.472 L9.778,13.472 C9.364,13.472 9.028,13.808 9.028,14.222 C9.028,14.636 9.364,14.972 9.778,14.972 L14.189,14.972 L13.692,15.47 C13.399,15.763 13.399,16.237 13.692,16.53 C13.985,16.823 14.46,16.823 14.753,16.53 L16.53,14.753 C16.823,14.46 16.823,13.985 16.53,13.692 L14.753,11.914 C14.46,11.621 13.985,11.621 13.692,11.914 Z"/>
</svg>

