<svg xmlns="http://www.w3.org/2000/svg" viewBox="0 0 24 24">
  <defs/>
  <path fill="#151E28" d="M13.117,2.479 C13.602,2.695 13.961,3.093 14.285,3.55 C14.606,4.004 14.961,4.617 15.399,5.375 L15.399,5.375 L15.418,5.408 L20.868,14.821 L20.887,14.854 C21.327,15.614 21.684,16.229 21.918,16.736 C22.154,17.245 22.321,17.756 22.266,18.285 C22.185,19.061 21.779,19.766 21.148,20.224 C20.718,20.537 20.192,20.648 19.633,20.699 C19.077,20.75 18.366,20.75 17.488,20.75 L6.512,20.75 C5.634,20.75 4.923,20.75 4.367,20.699 C3.808,20.648 3.282,20.537 2.852,20.224 C2.221,19.766 1.815,19.061 1.734,18.285 C1.679,17.756 1.846,17.245 2.082,16.736 C2.316,16.229 2.673,15.614 3.113,14.854 L3.132,14.821 L8.582,5.408 L8.601,5.375 C9.039,4.618 9.394,4.004 9.715,3.55 C10.039,3.093 10.398,2.695 10.883,2.479 C11.594,2.163 12.406,2.163 13.117,2.479 Z M15.75,11 C15.75,10.586 15.414,10.25 15,10.25 L14.169,10.25 C13.635,10.25 13.189,10.25 12.825,10.28 C12.445,10.311 12.089,10.378 11.752,10.55 C11.234,10.813 10.813,11.234 10.55,11.752 C10.378,12.089 10.311,12.445 10.28,12.825 C10.25,13.189 10.25,13.635 10.25,14.17 L10.25,15.189 L9.53,14.47 C9.237,14.177 8.763,14.177 8.47,14.47 C8.177,14.762 8.177,15.237 8.47,15.53 L10.47,17.53 C10.762,17.823 11.237,17.823 11.53,17.53 L13.53,15.53 C13.823,15.237 13.823,14.762 13.53,14.47 C13.237,14.177 12.762,14.177 12.47,14.47 L11.75,15.189 L11.75,14.2 C11.75,13.627 11.751,13.243 11.775,12.947 C11.798,12.66 11.84,12.523 11.886,12.432 C12.006,12.197 12.197,12.006 12.432,11.886 C12.523,11.84 12.66,11.798 12.948,11.775 C13.243,11.751 13.628,11.75 14.2,11.75 L15,11.75 C15.414,11.75 15.75,11.414 15.75,11 Z"/>
</svg>

