<svg xmlns="http://www.w3.org/2000/svg" viewBox="0 0 24 24">
  <defs/>
  <path fill="#151E28" d="M13.117,2.479 C13.602,2.695 13.961,3.093 14.285,3.55 C14.606,4.004 14.961,4.617 15.399,5.375 L15.399,5.375 L15.418,5.408 L20.868,14.821 L20.887,14.854 C21.327,15.614 21.684,16.229 21.918,16.736 C22.154,17.245 22.321,17.756 22.266,18.285 C22.185,19.061 21.779,19.766 21.148,20.224 C20.718,20.537 20.192,20.648 19.633,20.699 C19.077,20.75 18.366,20.75 17.488,20.75 L6.512,20.75 C5.634,20.75 4.923,20.75 4.367,20.699 C3.808,20.648 3.282,20.537 2.852,20.224 C2.221,19.766 1.815,19.061 1.734,18.285 C1.679,17.756 1.846,17.245 2.082,16.736 C2.316,16.229 2.673,15.614 3.113,14.854 L3.132,14.821 L8.582,5.408 L8.601,5.375 C9.039,4.618 9.394,4.004 9.715,3.55 C10.039,3.093 10.398,2.695 10.883,2.479 C11.594,2.163 12.406,2.163 13.117,2.479 Z M9,17.75 C9.414,17.75 9.75,17.414 9.75,17 L9.75,16.2 C9.75,15.627 9.751,15.243 9.775,14.948 C9.798,14.66 9.84,14.523 9.886,14.432 C10.006,14.197 10.197,14.006 10.432,13.886 C10.523,13.84 10.66,13.798 10.948,13.775 C11.243,13.751 11.628,13.75 12.2,13.75 L13.189,13.75 L12.47,14.47 C12.177,14.762 12.177,15.237 12.47,15.53 C12.762,15.823 13.237,15.823 13.53,15.53 L15.53,13.53 C15.823,13.237 15.823,12.762 15.53,12.47 L13.53,10.47 C13.237,10.177 12.762,10.177 12.47,10.47 C12.177,10.762 12.177,11.237 12.47,11.53 L13.189,12.25 L12.17,12.25 C11.635,12.25 11.189,12.25 10.825,12.28 C10.445,12.311 10.089,12.378 9.752,12.55 C9.234,12.813 8.813,13.234 8.55,13.752 C8.378,14.089 8.311,14.445 8.28,14.825 C8.25,15.189 8.25,15.635 8.25,16.169 L8.25,17 C8.25,17.414 8.586,17.75 9,17.75 Z"/>
</svg>

