<svg xmlns="http://www.w3.org/2000/svg" viewBox="0 0 24 24">
  <defs/>
  <path fill="#151E28" d="M12,1.25 C17.937,1.25 22.75,6.063 22.75,12 C22.75,17.937 17.937,22.75 12,22.75 C6.063,22.75 1.25,17.937 1.25,12 C1.25,6.063 6.063,1.25 12,1.25 Z M15.162,7.508 C14.787,7.333 14.34,7.495 14.165,7.871 C13.99,8.246 14.153,8.692 14.528,8.867 C14.795,8.991 15.009,9.205 15.133,9.472 C15.172,9.557 15.208,9.685 15.229,9.952 C15.249,10.226 15.25,10.582 15.25,11.111 L15.25,12.8 C15.25,13.373 15.249,13.757 15.225,14.053 C15.202,14.34 15.16,14.477 15.114,14.568 C14.994,14.803 14.803,14.994 14.567,15.114 C14.477,15.16 14.34,15.202 14.052,15.225 C13.757,15.25 13.372,15.25 12.8,15.25 L11.111,15.25 C10.581,15.25 10.226,15.25 9.952,15.229 C9.685,15.209 9.556,15.172 9.472,15.133 C9.205,15.009 8.991,14.795 8.867,14.528 C8.692,14.153 8.246,13.991 7.87,14.166 C7.495,14.341 7.332,14.787 7.508,15.162 C7.781,15.748 8.252,16.219 8.838,16.493 C9.155,16.64 9.486,16.698 9.838,16.725 C10.176,16.75 10.589,16.75 11.083,16.75 L12.83,16.75 C13.365,16.75 13.81,16.75 14.175,16.72 C14.554,16.689 14.911,16.622 15.248,16.45 C15.766,16.187 16.187,15.766 16.45,15.249 C16.622,14.911 16.689,14.555 16.72,14.175 C16.75,13.811 16.75,13.365 16.75,12.831 L16.75,11.083 C16.75,10.589 16.75,10.176 16.724,9.838 C16.698,9.486 16.64,9.155 16.492,8.838 C16.219,8.252 15.748,7.781 15.162,7.508 Z M8.85,12 C8.85,12.414 9.186,12.75 9.6,12.75 L12,12.75 C12.414,12.75 12.75,12.414 12.75,12 L12.75,9.6 C12.75,9.186 12.414,8.85 12,8.85 C11.586,8.85 11.25,9.186 11.25,9.6 L11.25,10.189 L8.53,7.47 C8.237,7.177 7.763,7.177 7.47,7.47 C7.177,7.763 7.177,8.237 7.47,8.53 L10.189,11.25 L9.6,11.25 C9.186,11.25 8.85,11.586 8.85,12 Z"/>
</svg>

