<svg xmlns="http://www.w3.org/2000/svg" viewBox="0 0 24 24">
  <defs/>
  <path fill="#151E28" d="M12,1.25 C17.937,1.25 22.75,6.063 22.75,12 C22.75,17.937 17.937,22.75 12,22.75 C6.063,22.75 1.25,17.937 1.25,12 C1.25,6.063 6.063,1.25 12,1.25 Z M7.543,9.745 L7.45,13.174 C7.407,14.755 9.318,15.577 10.437,14.459 L10.607,14.289 L10.97,14.652 C11.653,15.335 12.761,15.335 13.444,14.652 L14.152,13.944 C14.835,13.261 14.835,12.153 14.152,11.47 L13.789,11.107 L13.959,10.937 C15.077,9.818 14.255,7.907 12.674,7.95 L9.245,8.043 C8.315,8.068 7.568,8.815 7.543,9.745 Z M9.285,9.542 L12.715,9.449 C12.941,9.443 13.058,9.716 12.898,9.876 L12.198,10.576 C11.905,10.869 11.905,11.344 12.198,11.637 L13.091,12.53 C13.189,12.628 13.189,12.786 13.091,12.884 L12.384,13.591 C12.286,13.689 12.128,13.689 12.03,13.591 L11.137,12.698 C10.844,12.405 10.369,12.405 10.076,12.698 L9.376,13.398 C9.216,13.558 8.943,13.441 8.949,13.215 L9.042,9.785 C9.046,9.652 9.153,9.546 9.285,9.542 Z M13.091,16.773 C13.384,17.066 13.859,17.066 14.152,16.773 L16.273,14.652 C16.566,14.359 16.566,13.884 16.273,13.591 C15.98,13.298 15.505,13.298 15.212,13.591 L13.091,15.712 C12.798,16.005 12.798,16.48 13.091,16.773 Z"/>
</svg>

