<svg xmlns="http://www.w3.org/2000/svg" viewBox="0 0 24 24">
  <defs/>
  <path fill="#151E28" d="M9.325,2.25 L14.675,2.25 L14.747,2.25 C15.166,2.25 15.495,2.25 15.814,2.326 C16.094,2.393 16.362,2.504 16.608,2.655 C16.888,2.826 17.121,3.059 17.416,3.356 L17.468,3.407 L20.593,6.532 L20.644,6.584 C20.941,6.879 21.174,7.112 21.345,7.392 C21.496,7.638 21.607,7.906 21.674,8.186 C21.75,8.505 21.75,8.834 21.75,9.253 L21.75,14.747 C21.75,15.166 21.75,15.495 21.674,15.814 C21.607,16.094 21.496,16.362 21.345,16.608 C21.174,16.888 20.941,17.121 20.644,17.416 L17.468,20.593 L17.416,20.644 C17.121,20.941 16.888,21.174 16.608,21.345 C16.362,21.496 16.094,21.607 15.814,21.674 C15.495,21.75 15.166,21.75 14.747,21.75 L9.253,21.75 C8.834,21.75 8.505,21.75 8.186,21.674 C7.906,21.607 7.638,21.496 7.392,21.345 C7.112,21.174 6.879,20.941 6.584,20.644 L6.532,20.593 L3.407,17.468 L3.356,17.416 C3.059,17.121 2.826,16.888 2.655,16.608 C2.504,16.362 2.393,16.094 2.326,15.814 C2.25,15.495 2.25,15.166 2.25,14.747 L2.25,14.675 L2.25,9.325 L2.25,9.253 C2.25,8.834 2.25,8.505 2.326,8.186 C2.393,7.906 2.504,7.638 2.655,7.392 C2.826,7.112 3.059,6.879 3.356,6.584 L3.407,6.532 L6.532,3.407 L6.584,3.356 C6.879,3.059 7.112,2.826 7.392,2.655 C7.638,2.504 7.906,2.393 8.186,2.326 C8.505,2.25 8.834,2.25 9.253,2.25 Z M8.25,9 C8.25,9.414 8.586,9.75 9,9.75 L9.2,9.75 C10.052,9.75 10.647,9.751 11.109,9.788 C11.563,9.825 11.824,9.895 12.021,9.995 C12.445,10.211 12.789,10.555 13.005,10.979 C13.105,11.176 13.175,11.437 13.212,11.891 C13.249,12.353 13.25,12.948 13.25,13.8 L13.25,14.189 L12.53,13.47 C12.237,13.177 11.763,13.177 11.47,13.47 C11.177,13.763 11.177,14.237 11.47,14.53 L13.47,16.53 C13.763,16.823 14.237,16.823 14.53,16.53 L16.53,14.53 C16.823,14.237 16.823,13.763 16.53,13.47 C16.237,13.177 15.763,13.177 15.47,13.47 L14.75,14.189 L14.75,13.768 C14.75,12.955 14.75,12.299 14.707,11.769 C14.662,11.222 14.568,10.742 14.341,10.297 C13.982,9.592 13.408,9.018 12.703,8.659 C12.258,8.432 11.778,8.338 11.231,8.293 C10.701,8.25 10.045,8.25 9.232,8.25 L9,8.25 C8.586,8.25 8.25,8.586 8.25,9 Z"/>
</svg>

