<svg xmlns="http://www.w3.org/2000/svg" viewBox="0 0 24 24">
  <defs/>
  <path fill="#151E28" d="M9.367,2.25 L14.633,2.25 C15.725,2.25 16.591,2.25 17.288,2.307 C18.002,2.365 18.605,2.487 19.156,2.768 C20.05,3.223 20.777,3.95 21.232,4.844 C21.513,5.395 21.635,5.998 21.693,6.712 C21.75,7.409 21.75,8.275 21.75,9.367 L21.75,14.633 C21.75,15.725 21.75,16.591 21.693,17.288 C21.635,18.002 21.513,18.605 21.232,19.156 C20.777,20.05 20.05,20.777 19.156,21.232 C18.605,21.513 18.002,21.635 17.288,21.693 C16.591,21.75 15.725,21.75 14.633,21.75 L9.367,21.75 C8.275,21.75 7.409,21.75 6.712,21.693 C5.998,21.635 5.395,21.513 4.844,21.232 C3.95,20.777 3.223,20.05 2.768,19.156 C2.487,18.605 2.365,18.002 2.307,17.288 C2.25,16.591 2.25,15.725 2.25,14.633 L2.25,9.367 C2.25,8.275 2.25,7.409 2.307,6.712 C2.365,5.998 2.487,5.395 2.768,4.844 C3.223,3.95 3.95,3.223 4.844,2.768 C5.395,2.487 5.998,2.365 6.712,2.307 C7.409,2.25 8.275,2.25 9.367,2.25 Z M8.75,12 C8.75,11.586 8.414,11.25 8,11.25 C7.586,11.25 7.25,11.586 7.25,12 L7.25,12.831 C7.25,13.365 7.25,13.81 7.28,14.175 C7.311,14.555 7.378,14.911 7.55,15.248 C7.813,15.766 8.234,16.187 8.752,16.45 C9.089,16.622 9.445,16.689 9.825,16.72 C10.19,16.75 10.635,16.75 11.17,16.75 L12.83,16.75 C13.365,16.75 13.81,16.75 14.175,16.72 C14.555,16.689 14.911,16.622 15.248,16.45 C15.766,16.187 16.187,15.766 16.45,15.248 C16.622,14.911 16.689,14.555 16.72,14.175 C16.75,13.811 16.75,13.365 16.75,12.83 L16.75,12 C16.75,11.586 16.414,11.25 16,11.25 C15.586,11.25 15.25,11.586 15.25,12 L15.25,12.8 C15.25,13.372 15.249,13.757 15.225,14.052 C15.202,14.34 15.16,14.477 15.114,14.568 C14.994,14.803 14.803,14.994 14.568,15.114 C14.477,15.16 14.34,15.202 14.052,15.225 C13.757,15.249 13.372,15.25 12.8,15.25 L11.2,15.25 C10.628,15.25 10.243,15.249 9.947,15.225 C9.66,15.202 9.523,15.16 9.433,15.114 C9.197,14.994 9.006,14.803 8.886,14.568 C8.84,14.477 8.798,14.34 8.775,14.052 C8.751,13.757 8.75,13.372 8.75,12.8 Z M12.53,13.53 L14.53,11.53 C14.823,11.238 14.823,10.763 14.53,10.47 C14.237,10.177 13.763,10.177 13.47,10.47 L12.75,11.189 L12.75,8 C12.75,7.586 12.414,7.25 12,7.25 C11.586,7.25 11.25,7.586 11.25,8 L11.25,11.189 L10.53,10.47 C10.237,10.177 9.763,10.177 9.47,10.47 C9.177,10.763 9.177,11.238 9.47,11.53 L11.47,13.53 C11.763,13.823 12.237,13.823 12.53,13.53 Z"/>
</svg>

