<svg xmlns="http://www.w3.org/2000/svg" viewBox="0 0 24 24">
  <defs/>
  <path fill="#151E28" d="M12,1.25 C17.937,1.25 22.75,6.063 22.75,12 C22.75,17.937 17.937,22.75 12,22.75 C6.063,22.75 1.25,17.937 1.25,12 C1.25,6.063 6.063,1.25 12,1.25 Z M10.53,16.53 C10.823,16.237 10.823,15.763 10.53,15.47 L9.811,14.75 L13,14.75 C15.071,14.75 16.75,13.071 16.75,11 C16.75,8.929 15.071,7.25 13,7.25 L11,7.25 C10.586,7.25 10.25,7.586 10.25,8 C10.25,8.414 10.586,8.75 11,8.75 L13,8.75 C14.243,8.75 15.25,9.757 15.25,11 C15.25,12.243 14.243,13.25 13,13.25 L9.811,13.25 L10.53,12.53 C10.823,12.237 10.823,11.763 10.53,11.47 C10.237,11.177 9.763,11.177 9.47,11.47 L7.47,13.47 C7.177,13.763 7.177,14.237 7.47,14.53 L9.47,16.53 C9.763,16.823 10.237,16.823 10.53,16.53 Z"/>
</svg>

