<svg xmlns="http://www.w3.org/2000/svg" viewBox="0 0 24 24">
  <defs/>
  <path fill="#151E28" d="M9.325,2.25 L14.675,2.25 L14.747,2.25 C15.166,2.25 15.495,2.25 15.814,2.326 C16.094,2.393 16.362,2.504 16.608,2.655 C16.888,2.826 17.121,3.059 17.416,3.356 L17.468,3.407 L20.593,6.532 L20.644,6.584 C20.941,6.879 21.174,7.112 21.345,7.392 C21.496,7.638 21.607,7.906 21.674,8.186 C21.75,8.505 21.75,8.834 21.75,9.253 L21.75,14.747 C21.75,15.166 21.75,15.495 21.674,15.814 C21.607,16.094 21.496,16.362 21.345,16.608 C21.174,16.888 20.941,17.121 20.644,17.416 L17.468,20.593 L17.416,20.644 C17.121,20.941 16.888,21.174 16.608,21.345 C16.362,21.496 16.094,21.607 15.814,21.674 C15.495,21.75 15.166,21.75 14.747,21.75 L9.253,21.75 C8.834,21.75 8.505,21.75 8.186,21.674 C7.906,21.607 7.638,21.496 7.392,21.345 C7.112,21.174 6.879,20.941 6.584,20.644 L6.532,20.593 L3.407,17.468 L3.356,17.416 C3.059,17.121 2.826,16.888 2.655,16.608 C2.504,16.362 2.393,16.094 2.326,15.814 C2.25,15.495 2.25,15.166 2.25,14.747 L2.25,14.675 L2.25,9.325 L2.25,9.253 C2.25,8.834 2.25,8.505 2.326,8.186 C2.393,7.906 2.504,7.638 2.655,7.392 C2.826,7.112 3.059,6.879 3.356,6.584 L3.407,6.532 L6.532,3.407 L6.584,3.356 C6.879,3.059 7.112,2.826 7.392,2.655 C7.638,2.504 7.906,2.393 8.186,2.326 C8.505,2.25 8.834,2.25 9.253,2.25 Z M7.249,16 C7.249,16.414 7.585,16.75 7.999,16.75 C8.413,16.75 8.749,16.414 8.749,16 L8.749,15.987 C10.356,17.297 12.669,17.552 14.571,16.454 C15.906,15.683 16.764,14.404 17.043,13.004 C17.124,12.598 16.861,12.203 16.454,12.122 C16.048,12.041 15.653,12.305 15.572,12.711 C15.374,13.705 14.766,14.609 13.821,15.155 C12.438,15.953 10.75,15.742 9.609,14.75 L9.999,14.75 C10.413,14.75 10.749,14.414 10.749,14 C10.749,13.586 10.413,13.25 9.999,13.25 L7.999,13.25 C7.585,13.25 7.249,13.586 7.249,14 Z M15.999,7.25 C15.585,7.25 15.249,7.586 15.249,8 L15.249,8.013 C13.642,6.704 11.33,6.449 9.428,7.547 C8.094,8.317 7.235,9.597 6.956,10.997 C6.875,11.403 7.139,11.798 7.545,11.879 C7.951,11.96 8.346,11.696 8.427,11.29 C8.625,10.296 9.233,9.391 10.178,8.846 C11.561,8.048 13.249,8.259 14.389,9.25 L13.999,9.25 C13.585,9.25 13.249,9.586 13.249,10 C13.249,10.414 13.585,10.75 13.999,10.75 L15.999,10.75 C16.413,10.75 16.749,10.414 16.749,10 L16.749,8 C16.749,7.586 16.413,7.25 15.999,7.25 Z"/>
</svg>

