<svg xmlns="http://www.w3.org/2000/svg" viewBox="0 0 24 24">
  <defs/>
  <path fill="#151E28" d="M9.325,2.25 L14.675,2.25 L14.747,2.25 C15.166,2.25 15.495,2.25 15.814,2.326 C16.094,2.393 16.362,2.504 16.608,2.655 C16.888,2.826 17.121,3.059 17.416,3.356 L17.468,3.407 L20.593,6.532 L20.644,6.584 C20.941,6.879 21.174,7.112 21.345,7.392 C21.496,7.638 21.607,7.906 21.674,8.186 C21.75,8.505 21.75,8.834 21.75,9.253 L21.75,14.747 C21.75,15.166 21.75,15.495 21.674,15.814 C21.607,16.094 21.496,16.362 21.345,16.608 C21.174,16.888 20.941,17.121 20.644,17.416 L17.468,20.593 L17.416,20.644 C17.121,20.941 16.888,21.174 16.608,21.345 C16.362,21.496 16.094,21.607 15.814,21.674 C15.495,21.75 15.166,21.75 14.747,21.75 L9.253,21.75 C8.834,21.75 8.505,21.75 8.186,21.674 C7.906,21.607 7.638,21.496 7.392,21.345 C7.112,21.174 6.879,20.941 6.584,20.644 L6.532,20.593 L3.407,17.468 L3.356,17.416 C3.059,17.121 2.826,16.888 2.655,16.608 C2.504,16.362 2.393,16.094 2.326,15.814 C2.25,15.495 2.25,15.166 2.25,14.747 L2.25,14.675 L2.25,9.325 L2.25,9.253 C2.25,8.834 2.25,8.505 2.326,8.186 C2.393,7.906 2.504,7.638 2.655,7.392 C2.826,7.112 3.059,6.879 3.356,6.584 L3.407,6.532 L6.532,3.407 L6.584,3.356 C6.879,3.059 7.112,2.826 7.392,2.655 C7.638,2.504 7.906,2.393 8.186,2.326 C8.505,2.25 8.834,2.25 9.253,2.25 Z M10.111,16.75 C10.525,16.75 10.861,16.414 10.861,16 C10.861,15.586 10.525,15.25 10.111,15.25 C10,15.25 9.969,15.25 9.945,15.249 C9.298,15.22 8.779,14.702 8.751,14.054 C8.75,14.031 8.75,14 8.75,13.889 L8.75,11.2 C8.75,10.628 8.751,10.243 8.775,9.947 C8.798,9.66 8.84,9.523 8.886,9.433 C9.006,9.197 9.197,9.006 9.433,8.886 C9.523,8.84 9.66,8.798 9.947,8.775 C10.243,8.751 10.628,8.75 11.2,8.75 L13.889,8.75 C14,8.75 14.031,8.75 14.054,8.751 C14.702,8.779 15.22,9.298 15.249,9.945 C15.25,9.969 15.25,10 15.25,10.111 C15.25,10.525 15.586,10.861 16,10.861 C16.414,10.861 16.75,10.525 16.75,10.111 L16.75,10.095 C16.75,10.007 16.75,9.94 16.747,9.88 C16.685,8.456 15.545,7.315 14.12,7.253 C14.06,7.25 13.993,7.25 13.906,7.25 L11.169,7.25 C10.635,7.25 10.189,7.25 9.825,7.28 C9.445,7.311 9.089,7.378 8.752,7.55 C8.234,7.813 7.813,8.234 7.55,8.752 C7.378,9.089 7.311,9.445 7.28,9.825 C7.25,10.19 7.25,10.635 7.25,11.169 L7.25,13.905 C7.25,13.993 7.25,14.06 7.253,14.12 C7.315,15.545 8.456,16.685 9.88,16.747 C9.94,16.75 10.008,16.75 10.095,16.75 Z M12.85,16 C12.85,16.414 13.186,16.75 13.6,16.75 L16,16.75 C16.414,16.75 16.75,16.414 16.75,16 L16.75,13.6 C16.75,13.186 16.414,12.85 16,12.85 C15.586,12.85 15.25,13.186 15.25,13.6 L15.25,14.189 L12.53,11.47 C12.237,11.177 11.763,11.177 11.47,11.47 C11.177,11.762 11.177,12.237 11.47,12.53 L14.189,15.25 L13.6,15.25 C13.186,15.25 12.85,15.586 12.85,16 Z"/>
</svg>

