<svg xmlns="http://www.w3.org/2000/svg" viewBox="0 0 24 24">
  <defs/>
  <path fill="#151E28" d="M13.117,2.479 C13.602,2.695 13.961,3.093 14.285,3.55 C14.606,4.004 14.961,4.617 15.399,5.375 L15.418,5.408 L20.868,14.821 L20.887,14.854 C21.327,15.614 21.684,16.229 21.918,16.736 C22.154,17.245 22.321,17.756 22.266,18.285 C22.185,19.061 21.779,19.766 21.148,20.224 C20.718,20.537 20.192,20.648 19.633,20.699 C19.077,20.75 18.366,20.75 17.488,20.75 L6.512,20.75 C5.634,20.75 4.923,20.75 4.367,20.699 C3.808,20.648 3.282,20.537 2.852,20.224 C2.221,19.766 1.815,19.061 1.734,18.285 C1.679,17.756 1.846,17.245 2.082,16.736 C2.316,16.229 2.673,15.614 3.113,14.854 L3.132,14.821 L8.582,5.408 L8.601,5.375 C9.039,4.618 9.394,4.004 9.715,3.55 C10.039,3.093 10.398,2.695 10.883,2.479 C11.594,2.163 12.406,2.163 13.117,2.479 Z M8.75,13 C8.75,12.586 8.414,12.25 8,12.25 C7.586,12.25 7.25,12.586 7.25,13 L7.25,13.831 C7.25,14.365 7.25,14.81 7.28,15.175 C7.311,15.555 7.378,15.911 7.55,16.249 C7.813,16.766 8.234,17.187 8.752,17.45 C9.089,17.622 9.445,17.689 9.825,17.72 C10.19,17.75 10.635,17.75 11.17,17.75 L12.83,17.75 C13.365,17.75 13.81,17.75 14.175,17.72 C14.555,17.689 14.911,17.622 15.248,17.45 C15.766,17.187 16.187,16.766 16.45,16.249 C16.622,15.911 16.689,15.555 16.72,15.175 C16.75,14.811 16.75,14.365 16.75,13.831 L16.75,13 C16.75,12.586 16.414,12.25 16,12.25 C15.586,12.25 15.25,12.586 15.25,13 L15.25,13.8 C15.25,14.372 15.249,14.757 15.225,15.052 C15.202,15.34 15.16,15.477 15.114,15.568 C14.994,15.803 14.803,15.994 14.568,16.114 C14.477,16.16 14.34,16.202 14.052,16.225 C13.757,16.249 13.372,16.25 12.8,16.25 L11.2,16.25 C10.628,16.25 10.243,16.249 9.947,16.225 C9.66,16.202 9.523,16.16 9.433,16.114 C9.197,15.994 9.006,15.803 8.886,15.568 C8.84,15.477 8.798,15.34 8.775,15.052 C8.751,14.757 8.75,14.372 8.75,13.8 Z M14.53,12.53 C14.823,12.238 14.823,11.763 14.53,11.47 C14.237,11.177 13.763,11.177 13.47,11.47 L12.75,12.189 L12.75,9 C12.75,8.586 12.414,8.25 12,8.25 C11.586,8.25 11.25,8.586 11.25,9 L11.25,12.189 L10.53,11.47 C10.237,11.177 9.763,11.177 9.47,11.47 C9.177,11.763 9.177,12.238 9.47,12.53 L11.47,14.53 C11.763,14.823 12.237,14.823 12.53,14.53 Z"/>
</svg>

