<svg xmlns="http://www.w3.org/2000/svg" viewBox="0 0 24 24">
  <defs/>
  <path fill="#151E28" d="M13.117,2.479 C13.602,2.695 13.961,3.093 14.285,3.55 C14.606,4.004 14.961,4.617 15.399,5.375 L15.418,5.408 L20.868,14.821 L20.887,14.854 C21.327,15.614 21.684,16.229 21.918,16.736 C22.154,17.245 22.321,17.756 22.266,18.285 C22.185,19.061 21.779,19.766 21.148,20.224 C20.718,20.537 20.192,20.648 19.633,20.699 C19.077,20.75 18.366,20.75 17.488,20.75 L6.512,20.75 C5.634,20.75 4.923,20.75 4.367,20.699 C3.808,20.648 3.282,20.537 2.852,20.224 C2.221,19.766 1.815,19.061 1.734,18.285 C1.679,17.756 1.846,17.245 2.082,16.736 C2.316,16.229 2.673,15.614 3.113,14.854 L3.132,14.821 L8.582,5.408 L8.601,5.375 C9.039,4.618 9.394,4.004 9.715,3.55 C10.039,3.093 10.398,2.695 10.883,2.479 C11.594,2.163 12.406,2.163 13.117,2.479 Z M12.75,17.5 L12.75,14.811 L13.97,16.03 C14.263,16.323 14.737,16.323 15.03,16.03 C15.323,15.737 15.323,15.262 15.03,14.97 L12.53,12.47 C12.237,12.177 11.763,12.177 11.47,12.47 L8.97,14.97 C8.677,15.262 8.677,15.737 8.97,16.03 C9.263,16.323 9.737,16.323 10.03,16.03 L11.25,14.811 L11.25,17.5 C11.25,17.914 11.586,18.25 12,18.25 C12.414,18.25 12.75,17.914 12.75,17.5 Z M9.25,10 C9.25,10.414 9.586,10.75 10,10.75 L14,10.75 C14.414,10.75 14.75,10.414 14.75,10 C14.75,9.586 14.414,9.25 14,9.25 L10,9.25 C9.586,9.25 9.25,9.586 9.25,10 Z"/>
</svg>

