<svg xmlns="http://www.w3.org/2000/svg" viewBox="0 0 24 24">
  <defs/>
  <path fill="#151E28" d="M21.823,13.237 L14.237,20.823 C13.135,21.926 11.25,21.145 11.25,19.586 L11.25,15.75 L4,15.75 C3.033,15.75 2.25,14.966 2.25,14 L2.25,10 C2.25,9.033 3.033,8.25 4,8.25 L11.25,8.25 L11.25,4.414 C11.25,2.855 13.135,2.074 14.237,3.177 L21.823,10.762 C22.507,11.446 22.507,12.554 21.823,13.237 Z M20.763,11.823 L13.177,4.237 C13.019,4.08 12.75,4.191 12.75,4.414 L12.75,9 C12.75,9.414 12.414,9.75 12,9.75 L4,9.75 C3.862,9.75 3.75,9.862 3.75,10 L3.75,14 C3.75,14.138 3.862,14.25 4,14.25 L12,14.25 C12.414,14.25 12.75,14.586 12.75,15 L12.75,19.586 C12.75,19.809 13.019,19.92 13.177,19.763 L20.763,12.177 C20.86,12.079 20.86,11.921 20.763,11.823 Z"/>
</svg>

