<svg xmlns="http://www.w3.org/2000/svg" viewBox="0 0 24 24">
  <defs/>
  <path fill="#151E28" d="M12,1.25 C17.937,1.25 22.75,6.063 22.75,12 C22.75,17.937 17.937,22.75 12,22.75 C6.063,22.75 1.25,17.937 1.25,12 C1.25,6.063 6.063,1.25 12,1.25 Z M10.796,16.393 C11.471,17.032 12.529,17.032 13.204,16.393 L15.694,14.034 C16.842,12.946 16.072,11.013 14.49,11.013 L14.25,11.013 L14.25,8.5 C14.25,7.534 13.467,6.75 12.5,6.75 L11.5,6.75 C10.533,6.75 9.75,7.534 9.75,8.5 L9.75,11.013 L9.51,11.013 C7.928,11.013 7.158,12.946 8.306,14.034 Z M11.828,15.304 L9.338,12.945 C9.174,12.789 9.284,12.513 9.51,12.513 L10.5,12.513 C10.914,12.513 11.25,12.177 11.25,11.763 L11.25,8.5 C11.25,8.362 11.362,8.25 11.5,8.25 L12.5,8.25 C12.638,8.25 12.75,8.362 12.75,8.5 L12.75,11.763 C12.75,12.177 13.086,12.513 13.5,12.513 L14.49,12.513 C14.716,12.513 14.826,12.789 14.662,12.945 L12.172,15.304 C12.075,15.395 11.925,15.395 11.828,15.304 Z"/>
</svg>

