<svg xmlns="http://www.w3.org/2000/svg" viewBox="0 0 24 24">
  <defs/>
  <path fill="#151E28" d="M9.367,2.25 L14.633,2.25 C15.725,2.25 16.591,2.25 17.288,2.307 C18.002,2.365 18.605,2.487 19.156,2.768 C20.05,3.223 20.777,3.95 21.232,4.844 C21.513,5.395 21.635,5.998 21.693,6.712 C21.75,7.409 21.75,8.275 21.75,9.367 L21.75,14.633 C21.75,15.725 21.75,16.591 21.693,17.288 C21.635,18.002 21.513,18.605 21.232,19.156 C20.777,20.05 20.05,20.777 19.156,21.232 C18.605,21.513 18.002,21.635 17.288,21.693 C16.591,21.75 15.725,21.75 14.633,21.75 L9.367,21.75 C8.275,21.75 7.409,21.75 6.712,21.693 C5.998,21.635 5.395,21.513 4.844,21.232 C3.95,20.777 3.223,20.05 2.768,19.156 C2.487,18.605 2.365,18.002 2.307,17.288 C2.25,16.591 2.25,15.725 2.25,14.633 L2.25,9.367 C2.25,8.275 2.25,7.409 2.307,6.712 C2.365,5.998 2.487,5.395 2.768,4.844 C3.223,3.95 3.95,3.223 4.844,2.768 C5.395,2.487 5.998,2.365 6.712,2.307 C7.409,2.25 8.275,2.25 9.367,2.25 Z M13.889,16.75 L13.905,16.75 C13.993,16.75 14.06,16.75 14.12,16.747 C15.545,16.685 16.685,15.545 16.747,14.12 C16.75,14.06 16.75,13.993 16.75,13.905 L16.75,11.17 C16.75,10.635 16.75,10.19 16.72,9.825 C16.689,9.445 16.622,9.089 16.45,8.752 C16.187,8.234 15.766,7.813 15.248,7.55 C14.911,7.378 14.555,7.311 14.175,7.28 C13.811,7.25 13.365,7.25 12.831,7.25 L10.094,7.25 C10.007,7.25 9.94,7.25 9.88,7.253 C8.456,7.315 7.315,8.456 7.253,9.88 C7.25,9.94 7.25,10.007 7.25,10.094 L7.25,10.111 C7.25,10.525 7.586,10.861 8,10.861 C8.414,10.861 8.75,10.525 8.75,10.111 C8.75,10 8.75,9.969 8.751,9.945 C8.779,9.298 9.298,8.779 9.945,8.751 C9.969,8.75 10,8.75 10.111,8.75 L12.8,8.75 C13.372,8.75 13.757,8.751 14.052,8.775 C14.34,8.798 14.477,8.84 14.568,8.886 C14.803,9.006 14.994,9.197 15.114,9.433 C15.16,9.523 15.202,9.66 15.225,9.947 C15.249,10.243 15.25,10.628 15.25,11.2 L15.25,13.889 C15.25,14 15.25,14.031 15.249,14.054 C15.22,14.702 14.702,15.22 14.054,15.249 C14.031,15.25 14,15.25 13.889,15.25 C13.475,15.25 13.139,15.586 13.139,16 C13.139,16.414 13.475,16.75 13.889,16.75 Z M11.15,16 C11.15,15.586 10.814,15.25 10.4,15.25 L9.811,15.25 L12.53,12.53 C12.823,12.237 12.823,11.762 12.53,11.47 C12.237,11.177 11.763,11.177 11.47,11.47 L8.75,14.189 L8.75,13.6 C8.75,13.186 8.414,12.85 8,12.85 C7.586,12.85 7.25,13.186 7.25,13.6 L7.25,16 C7.25,16.414 7.586,16.75 8,16.75 L10.4,16.75 C10.814,16.75 11.15,16.414 11.15,16 Z"/>
</svg>

