<svg xmlns="http://www.w3.org/2000/svg" viewBox="0 0 24 24">
  <defs/>
  <path fill="#151E28" d="M9.367,2.25 L14.633,2.25 C15.725,2.25 16.591,2.25 17.288,2.307 C18.002,2.365 18.605,2.487 19.156,2.768 C20.05,3.223 20.777,3.95 21.232,4.844 C21.513,5.395 21.635,5.998 21.693,6.712 C21.75,7.409 21.75,8.275 21.75,9.367 L21.75,14.633 C21.75,15.725 21.75,16.591 21.693,17.288 C21.635,18.002 21.513,18.605 21.232,19.156 C20.777,20.05 20.05,20.777 19.156,21.232 C18.605,21.513 18.002,21.635 17.288,21.693 C16.591,21.75 15.725,21.75 14.633,21.75 L9.367,21.75 C8.275,21.75 7.409,21.75 6.712,21.693 C5.998,21.635 5.395,21.513 4.844,21.232 C3.95,20.777 3.223,20.05 2.768,19.156 C2.487,18.605 2.365,18.002 2.307,17.288 C2.25,16.591 2.25,15.725 2.25,14.633 L2.25,9.367 C2.25,8.275 2.25,7.409 2.307,6.712 C2.365,5.998 2.487,5.395 2.768,4.844 C3.223,3.95 3.95,3.223 4.844,2.768 C5.395,2.487 5.998,2.365 6.712,2.307 C7.409,2.25 8.275,2.25 9.367,2.25 Z M9.227,12.773 C9.52,13.066 9.995,13.066 10.287,12.773 L13.25,9.81 L13.25,12.243 C13.25,12.657 13.585,12.993 14,12.993 C14.414,12.993 14.75,12.657 14.75,12.243 L14.75,8 C14.75,7.801 14.671,7.61 14.53,7.47 C14.389,7.329 14.199,7.25 14,7.25 L9.757,7.25 C9.343,7.25 9.007,7.586 9.007,8 C9.007,8.414 9.343,8.75 9.757,8.75 L12.189,8.75 L9.227,11.712 C8.934,12.005 8.934,12.48 9.227,12.773 Z M9,16.75 L15,16.75 C15.414,16.75 15.75,16.414 15.75,16 C15.75,15.586 15.414,15.25 15,15.25 L9,15.25 C8.586,15.25 8.25,15.586 8.25,16 C8.25,16.414 8.586,16.75 9,16.75 Z"/>
</svg>

