<svg xmlns="http://www.w3.org/2000/svg" viewBox="0 0 24 24">
  <defs/>
  <path fill="#151E28" d="M9.367,2.25 L14.633,2.25 C15.725,2.25 16.591,2.25 17.288,2.307 C18.002,2.365 18.605,2.487 19.156,2.768 C20.05,3.223 20.777,3.95 21.232,4.844 C21.513,5.395 21.635,5.998 21.693,6.712 C21.75,7.409 21.75,8.275 21.75,9.367 L21.75,14.633 C21.75,15.725 21.75,16.591 21.693,17.288 C21.635,18.002 21.513,18.605 21.232,19.156 C20.777,20.05 20.05,20.777 19.156,21.232 C18.605,21.513 18.002,21.635 17.288,21.693 C16.591,21.75 15.725,21.75 14.633,21.75 L9.367,21.75 C8.275,21.75 7.409,21.75 6.712,21.693 C5.998,21.635 5.395,21.513 4.844,21.232 C3.95,20.777 3.223,20.05 2.768,19.156 C2.487,18.605 2.365,18.002 2.307,17.288 C2.25,16.591 2.25,15.725 2.25,14.633 L2.25,9.367 C2.25,8.275 2.25,7.409 2.307,6.712 C2.365,5.998 2.487,5.395 2.768,4.844 C3.223,3.95 3.95,3.223 4.844,2.768 C5.395,2.487 5.998,2.365 6.712,2.307 C7.409,2.25 8.275,2.25 9.367,2.25 Z M12,5.25 C11.586,5.25 11.25,5.586 11.25,6 L11.25,8.189 L10.531,7.47 C10.238,7.177 9.763,7.177 9.47,7.47 C9.177,7.763 9.177,8.237 9.47,8.53 L11.47,10.53 C11.763,10.823 12.238,10.823 12.531,10.53 L14.531,8.53 C14.824,8.237 14.824,7.763 14.531,7.47 C14.238,7.177 13.763,7.177 13.47,7.47 L12.75,8.189 L12.75,6 C12.75,5.586 12.415,5.25 12,5.25 Z M12,18.75 C12.415,18.75 12.75,18.414 12.75,18 L12.75,15.811 L13.47,16.53 C13.763,16.823 14.238,16.823 14.531,16.53 C14.824,16.237 14.824,15.763 14.531,15.47 L12.531,13.47 C12.238,13.177 11.763,13.177 11.47,13.47 L9.47,15.47 C9.177,15.763 9.177,16.237 9.47,16.53 C9.763,16.823 10.238,16.823 10.531,16.53 L11.25,15.811 L11.25,18 C11.25,18.414 11.586,18.75 12,18.75 Z M8,12.75 L16,12.75 C16.414,12.75 16.75,12.414 16.75,12 C16.75,11.586 16.414,11.25 16,11.25 L8,11.25 C7.586,11.25 7.25,11.586 7.25,12 C7.25,12.414 7.586,12.75 8,12.75 Z"/>
</svg>

