<svg xmlns="http://www.w3.org/2000/svg" viewBox="0 0 24 24">
  <defs/>
  <path fill="#151E28" d="M13.117,2.479 C13.602,2.695 13.961,3.093 14.285,3.55 C14.606,4.004 14.961,4.617 15.399,5.375 L15.418,5.408 L20.868,14.821 L20.887,14.854 C21.327,15.614 21.684,16.229 21.918,16.736 C22.154,17.245 22.321,17.756 22.266,18.285 C22.185,19.061 21.779,19.766 21.148,20.224 C20.718,20.537 20.192,20.648 19.633,20.699 C19.077,20.75 18.366,20.75 17.488,20.75 L6.512,20.75 C5.634,20.75 4.923,20.75 4.367,20.699 C3.808,20.648 3.282,20.537 2.852,20.224 C2.221,19.766 1.815,19.061 1.734,18.285 C1.679,17.756 1.846,17.245 2.082,16.736 C2.316,16.229 2.673,15.614 3.113,14.854 L3.132,14.821 L8.582,5.408 L8.601,5.375 C9.039,4.618 9.394,4.004 9.715,3.55 C10.039,3.093 10.398,2.695 10.883,2.479 C11.594,2.163 12.406,2.163 13.117,2.479 Z M8.249,17 C8.249,17.414 8.585,17.75 8.999,17.75 C9.397,17.75 9.722,17.44 9.747,17.049 C10.179,17.591 10.685,18.015 11.292,18.239 C12.222,18.584 13.207,18.396 14.205,17.82 C14.825,17.461 15.328,16.973 15.695,16.409 C15.921,16.062 15.823,15.597 15.475,15.372 C15.128,15.146 14.664,15.244 14.438,15.591 C14.196,15.962 13.866,16.283 13.455,16.521 C12.701,16.956 12.192,16.973 11.812,16.833 C11.451,16.699 11.063,16.37 10.659,15.75 L10.999,15.75 C11.413,15.75 11.749,15.414 11.749,15 C11.749,14.586 11.413,14.25 10.999,14.25 L8.999,14.25 C8.585,14.25 8.249,14.586 8.249,15 Z M14.999,10.25 C14.601,10.25 14.276,10.559 14.25,10.95 C13.819,10.409 13.313,9.985 12.707,9.761 C11.777,9.416 10.792,9.604 9.794,10.18 C9.173,10.539 8.671,11.027 8.304,11.591 C8.078,11.938 8.176,12.403 8.523,12.629 C8.87,12.855 9.335,12.756 9.561,12.409 C9.802,12.038 10.132,11.717 10.544,11.479 C11.297,11.045 11.807,11.027 12.186,11.168 C12.548,11.302 12.935,11.63 13.339,12.25 L12.999,12.25 C12.585,12.25 12.249,12.586 12.249,13 C12.249,13.414 12.585,13.75 12.999,13.75 L14.999,13.75 C15.413,13.75 15.749,13.414 15.749,13 L15.749,11 C15.749,10.586 15.413,10.25 14.999,10.25 Z"/>
</svg>

