<svg xmlns="http://www.w3.org/2000/svg" viewBox="0 0 24 24">
  <defs/>
  <path fill="#151E28" d="M9.325,2.25 L14.675,2.25 L14.747,2.25 C15.166,2.25 15.495,2.25 15.814,2.326 C16.094,2.393 16.362,2.504 16.608,2.655 C16.888,2.826 17.121,3.059 17.416,3.356 L17.468,3.407 L20.593,6.532 L20.644,6.584 C20.941,6.879 21.174,7.112 21.345,7.392 C21.496,7.638 21.607,7.906 21.674,8.186 C21.75,8.505 21.75,8.834 21.75,9.253 L21.75,14.747 C21.75,15.166 21.75,15.495 21.674,15.814 C21.607,16.094 21.496,16.362 21.345,16.608 C21.174,16.888 20.941,17.121 20.644,17.416 L17.468,20.593 L17.416,20.644 C17.121,20.941 16.888,21.174 16.608,21.345 C16.362,21.496 16.094,21.607 15.814,21.674 C15.495,21.75 15.166,21.75 14.747,21.75 L9.253,21.75 C8.834,21.75 8.505,21.75 8.186,21.674 C7.906,21.607 7.638,21.496 7.392,21.345 C7.112,21.174 6.879,20.941 6.584,20.644 L6.532,20.593 L3.407,17.468 L3.356,17.416 C3.059,17.121 2.826,16.888 2.655,16.608 C2.504,16.362 2.393,16.094 2.326,15.814 C2.25,15.495 2.25,15.166 2.25,14.747 L2.25,14.675 L2.25,9.325 L2.25,9.253 C2.25,8.834 2.25,8.505 2.326,8.186 C2.393,7.906 2.504,7.638 2.655,7.392 C2.826,7.112 3.059,6.879 3.356,6.584 L3.407,6.532 L6.532,3.407 L6.584,3.356 C6.879,3.059 7.112,2.826 7.392,2.655 C7.638,2.504 7.906,2.393 8.186,2.326 C8.505,2.25 8.834,2.25 9.253,2.25 Z M14.755,15.958 C15.685,15.932 16.432,15.185 16.457,14.255 L16.55,10.826 C16.593,9.245 14.682,8.423 13.563,9.541 L13.393,9.711 L11.616,7.934 C10.933,7.251 9.825,7.251 9.141,7.934 L8.434,8.642 C7.751,9.325 7.751,10.433 8.434,11.116 L10.211,12.893 L10.041,13.063 C8.923,14.182 9.745,16.093 11.326,16.05 Z M14.958,14.215 C14.954,14.348 14.847,14.455 14.715,14.458 L11.285,14.551 C11.059,14.557 10.942,14.284 11.102,14.124 L11.802,13.424 C12.095,13.131 12.095,12.656 11.802,12.363 L9.495,10.056 C9.397,9.958 9.397,9.8 9.495,9.702 L10.202,8.995 C10.3,8.897 10.458,8.897 10.556,8.995 L12.863,11.302 C13.156,11.595 13.631,11.595 13.924,11.302 L14.624,10.602 C14.784,10.442 15.057,10.56 15.051,10.786 Z"/>
</svg>

