<svg xmlns="http://www.w3.org/2000/svg" viewBox="0 0 24 24">
  <defs/>
  <path fill="#151E28" d="M12,1.25 C17.937,1.25 22.75,6.063 22.75,12 C22.75,17.937 17.937,22.75 12,22.75 C6.063,22.75 1.25,17.937 1.25,12 C1.25,6.063 6.063,1.25 12,1.25 Z M9,8.25 C8.586,8.25 8.25,8.586 8.25,9 L8.25,9.232 C8.25,10.045 8.25,10.701 8.293,11.231 C8.338,11.778 8.432,12.258 8.659,12.703 C9.018,13.408 9.592,13.982 10.297,14.341 C10.742,14.568 11.222,14.662 11.769,14.707 C12.299,14.75 12.955,14.75 13.768,14.75 L14.189,14.75 L13.47,15.47 C13.177,15.763 13.177,16.237 13.47,16.53 C13.763,16.823 14.237,16.823 14.53,16.53 L16.53,14.53 C16.823,14.237 16.823,13.763 16.53,13.47 L14.53,11.47 C14.237,11.177 13.763,11.177 13.47,11.47 C13.177,11.763 13.177,12.237 13.47,12.53 L14.189,13.25 L13.8,13.25 C12.948,13.25 12.353,13.249 11.891,13.212 C11.437,13.175 11.176,13.105 10.979,13.005 C10.555,12.789 10.211,12.445 9.995,12.021 C9.895,11.824 9.825,11.563 9.788,11.109 C9.751,10.647 9.75,10.052 9.75,9.2 L9.75,9 C9.75,8.586 9.414,8.25 9,8.25 Z"/>
</svg>

