<svg xmlns="http://www.w3.org/2000/svg" viewBox="0 0 24 24">
  <defs/>
  <path fill="#151E28" d="M9.325,2.25 L14.675,2.25 L14.747,2.25 C15.166,2.25 15.495,2.25 15.814,2.326 C16.094,2.393 16.362,2.504 16.608,2.655 C16.888,2.826 17.121,3.059 17.416,3.356 L17.468,3.407 L20.593,6.532 L20.644,6.584 C20.941,6.879 21.174,7.112 21.345,7.392 C21.496,7.638 21.607,7.906 21.674,8.186 C21.75,8.505 21.75,8.834 21.75,9.253 L21.75,14.747 C21.75,15.166 21.75,15.495 21.674,15.814 C21.607,16.094 21.496,16.362 21.345,16.608 C21.174,16.888 20.941,17.121 20.644,17.416 L17.468,20.593 L17.416,20.644 C17.121,20.941 16.888,21.174 16.608,21.345 C16.362,21.496 16.094,21.607 15.814,21.674 C15.495,21.75 15.166,21.75 14.747,21.75 L9.253,21.75 C8.834,21.75 8.505,21.75 8.186,21.674 C7.906,21.607 7.638,21.496 7.392,21.345 C7.112,21.174 6.879,20.941 6.584,20.644 L6.532,20.593 L3.407,17.468 L3.356,17.416 C3.059,17.121 2.826,16.888 2.655,16.608 C2.504,16.362 2.393,16.094 2.326,15.814 C2.25,15.495 2.25,15.166 2.25,14.747 L2.25,14.675 L2.25,9.325 L2.25,9.253 C2.25,8.834 2.25,8.505 2.326,8.186 C2.393,7.906 2.504,7.638 2.655,7.392 C2.826,7.112 3.059,6.879 3.356,6.584 L3.407,6.532 L6.532,3.407 L6.584,3.356 C6.879,3.059 7.112,2.826 7.392,2.655 C7.638,2.504 7.906,2.393 8.186,2.326 C8.505,2.25 8.834,2.25 9.253,2.25 Z M14.773,11.227 C14.48,10.934 14.005,10.934 13.713,11.227 L10.75,14.189 L10.75,11.757 C10.75,11.343 10.415,11.007 10,11.007 C9.586,11.007 9.25,11.343 9.25,11.757 L9.25,16 C9.25,16.199 9.329,16.39 9.47,16.531 C9.611,16.671 9.801,16.75 10,16.75 L14.243,16.75 C14.657,16.75 14.993,16.414 14.993,16 C14.993,15.586 14.657,15.25 14.243,15.25 L11.811,15.25 L14.773,12.288 C15.066,11.995 15.066,11.52 14.773,11.227 Z M15,7.25 L9,7.25 C8.586,7.25 8.25,7.586 8.25,8 C8.25,8.414 8.586,8.75 9,8.75 L15,8.75 C15.414,8.75 15.75,8.414 15.75,8 C15.75,7.586 15.414,7.25 15,7.25 Z"/>
</svg>

