<svg xmlns="http://www.w3.org/2000/svg" viewBox="0 0 24 24">
  <defs/>
  <path fill="#151E28" d="M13.117,2.479 C13.602,2.695 13.961,3.093 14.285,3.55 C14.606,4.004 14.961,4.617 15.399,5.375 L15.399,5.375 L15.418,5.408 L20.868,14.821 L20.887,14.854 C21.327,15.614 21.684,16.229 21.918,16.736 C22.154,17.245 22.321,17.756 22.266,18.285 C22.185,19.061 21.779,19.766 21.148,20.224 C20.718,20.537 20.192,20.648 19.633,20.699 C19.077,20.75 18.366,20.75 17.488,20.75 L6.512,20.75 C5.634,20.75 4.923,20.75 4.367,20.699 C3.808,20.648 3.282,20.537 2.852,20.224 C2.221,19.766 1.815,19.061 1.734,18.285 C1.679,17.756 1.846,17.245 2.082,16.736 C2.316,16.229 2.673,15.614 3.113,14.854 L3.132,14.821 L8.582,5.408 L8.601,5.375 C9.039,4.618 9.394,4.004 9.715,3.55 C10.039,3.093 10.398,2.695 10.883,2.479 C11.594,2.163 12.406,2.163 13.117,2.479 Z M7.25,16 C7.25,16.966 8.033,17.75 9,17.75 L12.476,17.75 C14.062,17.75 14.83,15.811 13.675,14.725 L13.563,14.619 L13.909,14.273 C14.592,13.59 14.592,12.481 13.909,11.798 L13.202,11.091 C12.519,10.408 11.41,10.408 10.727,11.091 L10.381,11.437 L10.275,11.325 C9.189,10.17 7.25,10.938 7.25,12.523 Z M9,16.25 C8.862,16.25 8.75,16.138 8.75,16 L8.75,12.523 C8.75,12.297 9.027,12.187 9.182,12.352 L9.818,13.028 C9.957,13.176 10.15,13.261 10.353,13.264 C10.556,13.267 10.751,13.188 10.894,13.045 L11.788,12.152 C11.885,12.054 12.044,12.054 12.141,12.152 L12.848,12.859 C12.946,12.956 12.946,13.115 12.848,13.212 L11.955,14.106 C11.812,14.249 11.732,14.444 11.736,14.647 C11.739,14.85 11.824,15.043 11.972,15.182 L12.648,15.818 C12.813,15.973 12.703,16.25 12.476,16.25 Z M12.848,8.97 C12.555,9.263 12.555,9.737 12.848,10.03 L14.97,12.152 C15.263,12.444 15.737,12.444 16.03,12.152 C16.323,11.859 16.323,11.384 16.03,11.091 L13.909,8.97 C13.616,8.677 13.141,8.677 12.848,8.97 Z"/>
</svg>

