<svg xmlns="http://www.w3.org/2000/svg" viewBox="0 0 24 24">
  <defs/>
  <path fill="#151E28" d="M13.117,2.479 C13.602,2.695 13.961,3.093 14.285,3.55 C14.606,4.004 14.961,4.617 15.399,5.375 L15.399,5.375 L15.418,5.408 L20.868,14.821 L20.887,14.854 C21.327,15.614 21.684,16.229 21.918,16.736 C22.154,17.245 22.321,17.756 22.266,18.285 C22.185,19.061 21.779,19.766 21.148,20.224 C20.718,20.537 20.192,20.648 19.633,20.699 C19.077,20.75 18.366,20.75 17.488,20.75 L6.512,20.75 C5.634,20.75 4.923,20.75 4.367,20.699 C3.808,20.648 3.282,20.537 2.852,20.224 C2.221,19.766 1.815,19.061 1.734,18.285 C1.679,17.756 1.846,17.245 2.082,16.736 C2.316,16.229 2.673,15.614 3.113,14.854 L3.132,14.821 L8.582,5.408 L8.601,5.375 C9.039,4.618 9.394,4.004 9.715,3.55 C10.039,3.093 10.398,2.695 10.883,2.479 C11.594,2.163 12.406,2.163 13.117,2.479 Z M14.755,17.958 C15.685,17.932 16.432,17.185 16.457,16.256 L16.55,12.826 C16.593,11.245 14.682,10.423 13.563,11.541 L13.393,11.711 L11.616,9.934 C10.933,9.251 9.825,9.251 9.141,9.934 L8.434,10.642 C7.751,11.325 7.751,12.433 8.434,13.116 L10.211,14.893 L10.041,15.063 C8.923,16.182 9.745,18.093 11.326,18.05 Z M14.958,16.215 C14.954,16.348 14.847,16.455 14.715,16.458 L11.285,16.551 C11.059,16.557 10.942,16.284 11.102,16.124 L11.802,15.424 C12.095,15.131 12.095,14.656 11.802,14.363 L9.495,12.056 C9.397,11.958 9.397,11.8 9.495,11.702 L10.202,10.995 C10.3,10.897 10.458,10.897 10.556,10.995 L12.863,13.302 C13.156,13.595 13.631,13.595 13.924,13.302 L14.624,12.602 C14.784,12.442 15.057,12.56 15.05,12.786 Z"/>
</svg>

