<svg xmlns="http://www.w3.org/2000/svg" viewBox="0 0 24 24">
  <defs/>
  <path fill="#151E28" d="M13.117,2.479 C13.602,2.695 13.961,3.093 14.285,3.55 C14.606,4.004 14.961,4.617 15.399,5.375 L15.399,5.375 L15.418,5.408 L20.868,14.821 L20.887,14.854 C21.327,15.614 21.684,16.229 21.918,16.736 C22.154,17.245 22.321,17.756 22.266,18.285 C22.185,19.061 21.779,19.766 21.148,20.224 C20.718,20.537 20.192,20.648 19.633,20.699 C19.077,20.75 18.366,20.75 17.488,20.75 L6.512,20.75 C5.634,20.75 4.923,20.75 4.367,20.699 C3.808,20.648 3.282,20.537 2.852,20.224 C2.221,19.766 1.815,19.061 1.734,18.285 C1.679,17.756 1.846,17.245 2.082,16.736 C2.316,16.229 2.673,15.614 3.113,14.854 L3.132,14.821 L8.582,5.408 L8.601,5.375 C9.039,4.618 9.394,4.004 9.715,3.55 C10.039,3.093 10.398,2.695 10.883,2.479 C11.594,2.163 12.406,2.163 13.117,2.479 Z M7.25,16 C7.25,16.966 8.033,17.75 9,17.75 L12.358,17.75 C13.97,17.75 14.725,15.756 13.517,14.689 L13.505,14.677 L15.248,12.934 C15.931,12.251 15.931,11.143 15.248,10.459 L14.541,9.752 C13.857,9.069 12.749,9.069 12.066,9.752 L10.323,11.495 L10.311,11.483 C9.244,10.275 7.25,11.03 7.25,12.642 Z M9,16.25 C8.862,16.25 8.75,16.138 8.75,16 L8.75,12.642 C8.75,12.411 9.035,12.304 9.187,12.476 L9.727,13.087 C9.864,13.242 10.059,13.333 10.266,13.34 C10.472,13.346 10.673,13.267 10.819,13.12 L13.127,10.813 C13.224,10.715 13.382,10.715 13.48,10.813 L14.187,11.52 C14.285,11.618 14.285,11.776 14.187,11.873 L11.88,14.181 C11.733,14.327 11.654,14.528 11.66,14.734 C11.667,14.941 11.758,15.136 11.913,15.273 L12.524,15.813 C12.696,15.965 12.589,16.25 12.358,16.25 Z"/>
</svg>

