<svg xmlns="http://www.w3.org/2000/svg" viewBox="0 0 24 24">
  <defs/>
  <path fill="#151E28" d="M13.117,2.479 C13.602,2.695 13.961,3.093 14.285,3.55 C14.606,4.004 14.961,4.617 15.399,5.375 L15.399,5.375 L15.418,5.408 L20.868,14.821 L20.887,14.854 C21.327,15.614 21.684,16.229 21.918,16.736 C22.154,17.245 22.321,17.756 22.266,18.285 C22.185,19.061 21.779,19.766 21.148,20.224 C20.718,20.537 20.192,20.648 19.633,20.699 C19.077,20.75 18.366,20.75 17.488,20.75 L6.512,20.75 C5.634,20.75 4.923,20.75 4.367,20.699 C3.808,20.648 3.282,20.537 2.852,20.224 C2.221,19.766 1.815,19.061 1.734,18.285 C1.679,17.756 1.846,17.245 2.082,16.736 C2.316,16.229 2.673,15.614 3.113,14.854 L3.132,14.821 L8.582,5.408 L8.601,5.375 C9.039,4.618 9.394,4.004 9.715,3.55 C10.039,3.093 10.398,2.695 10.883,2.479 C11.594,2.163 12.406,2.163 13.117,2.479 Z M12,17.25 L11.2,17.25 C10.628,17.25 10.243,17.249 9.947,17.225 C9.66,17.202 9.523,17.16 9.433,17.114 C9.197,16.994 9.006,16.803 8.886,16.567 C8.84,16.477 8.798,16.34 8.775,16.052 C8.751,15.757 8.75,15.372 8.75,14.8 L8.75,13.2 C8.75,12.628 8.751,12.243 8.775,11.948 C8.798,11.66 8.84,11.523 8.886,11.432 C9.006,11.197 9.197,11.006 9.433,10.886 C9.523,10.84 9.66,10.798 9.947,10.775 C10.243,10.751 10.628,10.75 11.2,10.75 L12,10.75 C12.414,10.75 12.75,10.414 12.75,10 C12.75,9.586 12.414,9.25 12,9.25 L11.169,9.25 C10.635,9.25 10.189,9.25 9.825,9.28 C9.445,9.311 9.089,9.378 8.752,9.55 C8.234,9.813 7.813,10.234 7.55,10.752 C7.378,11.089 7.311,11.445 7.28,11.825 C7.25,12.19 7.25,12.635 7.25,13.17 L7.25,14.83 C7.25,15.365 7.25,15.81 7.28,16.175 C7.311,16.555 7.378,16.911 7.55,17.249 C7.813,17.766 8.234,18.187 8.752,18.45 C9.089,18.622 9.445,18.689 9.825,18.72 C10.189,18.75 10.635,18.75 11.169,18.75 L12,18.75 C12.414,18.75 12.75,18.414 12.75,18 C12.75,17.586 12.414,17.25 12,17.25 Z M10.449,14.509 L12.295,16.509 C12.576,16.813 13.05,16.832 13.355,16.551 C13.659,16.27 13.678,15.796 13.397,15.491 L12.713,14.75 L16,14.75 C16.414,14.75 16.75,14.414 16.75,14 C16.75,13.586 16.414,13.25 16,13.25 L12.713,13.25 L13.397,12.509 C13.678,12.204 13.659,11.73 13.355,11.449 C13.05,11.168 12.576,11.187 12.295,11.491 L10.449,13.491 C10.184,13.779 10.184,14.221 10.449,14.509 Z"/>
</svg>

