<svg xmlns="http://www.w3.org/2000/svg" viewBox="0 0 24 24">
  <defs/>
  <path fill="#151E28" d="M12,1.25 C17.937,1.25 22.75,6.063 22.75,12 C22.75,17.937 17.937,22.75 12,22.75 C6.063,22.75 1.25,17.937 1.25,12 C1.25,6.063 6.063,1.25 12,1.25 Z M11.111,7.25 L11.083,7.25 C10.589,7.25 10.176,7.25 9.838,7.276 C9.486,7.302 9.155,7.36 8.838,7.508 C8.252,7.781 7.781,8.252 7.508,8.838 C7.36,9.155 7.302,9.486 7.276,9.838 C7.25,10.176 7.25,10.589 7.25,11.083 L7.25,12.831 C7.25,13.365 7.25,13.81 7.28,14.175 C7.311,14.555 7.378,14.911 7.55,15.248 C7.813,15.766 8.234,16.187 8.752,16.45 C9.089,16.622 9.445,16.689 9.825,16.72 C10.189,16.75 10.635,16.75 11.17,16.75 L12.917,16.75 C13.411,16.75 13.824,16.75 14.162,16.724 C14.514,16.698 14.845,16.64 15.162,16.492 C15.748,16.219 16.219,15.748 16.492,15.162 C16.64,14.845 16.698,14.514 16.724,14.162 C16.75,13.824 16.75,13.411 16.75,12.917 L16.75,12.889 C16.75,12.475 16.414,12.139 16,12.139 C15.586,12.139 15.25,12.475 15.25,12.889 C15.25,13.418 15.25,13.774 15.229,14.048 C15.208,14.315 15.172,14.443 15.133,14.528 C15.009,14.795 14.795,15.009 14.528,15.133 C14.443,15.172 14.315,15.208 14.048,15.229 C13.774,15.25 13.418,15.25 12.889,15.25 L11.2,15.25 C10.628,15.25 10.243,15.249 9.947,15.225 C9.66,15.202 9.523,15.16 9.433,15.114 C9.197,14.994 9.006,14.803 8.886,14.568 C8.84,14.477 8.798,14.34 8.775,14.052 C8.751,13.757 8.75,13.372 8.75,12.8 L8.75,11.111 C8.75,10.582 8.75,10.226 8.771,9.952 C8.791,9.685 8.828,9.556 8.867,9.472 C8.991,9.205 9.205,8.991 9.472,8.867 C9.556,8.828 9.685,8.791 9.952,8.771 C10.226,8.75 10.582,8.75 11.111,8.75 C11.525,8.75 11.861,8.414 11.861,8 C11.861,7.586 11.525,7.25 11.111,7.25 Z M14.237,8.703 L12.703,10.237 C12.596,9.952 12.322,9.75 12,9.75 C11.586,9.75 11.25,10.086 11.25,10.5 L11.25,12 C11.25,12.414 11.586,12.75 12,12.75 L13.5,12.75 C13.914,12.75 14.25,12.414 14.25,12 C14.25,11.678 14.048,11.404 13.763,11.297 L15.297,9.763 C15.404,10.048 15.678,10.25 16,10.25 C16.414,10.25 16.75,9.914 16.75,9.5 L16.75,8 C16.75,7.586 16.414,7.25 16,7.25 L14.5,7.25 C14.086,7.25 13.75,7.586 13.75,8 C13.75,8.322 13.952,8.596 14.237,8.703 Z"/>
</svg>

