<svg xmlns="http://www.w3.org/2000/svg" viewBox="0 0 24 24">
  <defs/>
  <path fill="#151E28" d="M9.325,2.25 L14.675,2.25 L14.747,2.25 C15.166,2.25 15.495,2.25 15.814,2.326 C16.094,2.393 16.362,2.504 16.608,2.655 C16.888,2.826 17.121,3.059 17.416,3.356 L17.468,3.407 L20.593,6.532 L20.644,6.584 C20.941,6.879 21.174,7.112 21.345,7.392 C21.496,7.638 21.607,7.906 21.674,8.186 C21.75,8.505 21.75,8.834 21.75,9.253 L21.75,14.747 C21.75,15.166 21.75,15.495 21.674,15.814 C21.607,16.094 21.496,16.362 21.345,16.608 C21.174,16.888 20.941,17.121 20.644,17.416 L17.468,20.593 L17.416,20.644 C17.121,20.941 16.888,21.174 16.608,21.345 C16.362,21.496 16.094,21.607 15.814,21.674 C15.495,21.75 15.166,21.75 14.747,21.75 L9.253,21.75 C8.834,21.75 8.505,21.75 8.186,21.674 C7.906,21.607 7.638,21.496 7.392,21.345 C7.112,21.174 6.879,20.941 6.584,20.644 L6.532,20.593 L3.407,17.468 L3.356,17.416 C3.059,17.121 2.826,16.888 2.655,16.608 C2.504,16.362 2.393,16.094 2.326,15.814 C2.25,15.495 2.25,15.166 2.25,14.747 L2.25,14.675 L2.25,9.325 L2.25,9.253 C2.25,8.834 2.25,8.505 2.326,8.186 C2.393,7.906 2.504,7.638 2.655,7.392 C2.826,7.112 3.059,6.879 3.356,6.584 L3.407,6.532 L6.532,3.407 L6.584,3.356 C6.879,3.059 7.112,2.826 7.392,2.655 C7.638,2.504 7.906,2.393 8.186,2.326 C8.505,2.25 8.834,2.25 9.253,2.25 Z M8,16.75 C8.414,16.75 8.75,16.414 8.75,16 L8.75,15.8 C8.75,14.948 8.751,14.353 8.788,13.891 C8.825,13.437 8.895,13.176 8.995,12.979 C9.211,12.555 9.555,12.211 9.979,11.995 C10.176,11.895 10.437,11.825 10.891,11.788 C11.234,11.76 11.649,11.753 12.189,11.751 L11.47,12.47 C11.177,12.763 11.177,13.238 11.47,13.53 C11.763,13.823 12.238,13.823 12.53,13.53 L14.53,11.53 C14.823,11.237 14.823,10.763 14.53,10.47 L12.53,8.47 C12.238,8.177 11.763,8.177 11.47,8.47 C11.177,8.763 11.177,9.237 11.47,9.53 L12.19,10.251 C11.637,10.253 11.167,10.261 10.769,10.293 C10.222,10.338 9.742,10.432 9.298,10.659 C8.592,11.018 8.018,11.592 7.659,12.297 C7.432,12.742 7.338,13.222 7.293,13.769 C7.25,14.299 7.25,14.955 7.25,15.768 L7.25,16 C7.25,16.414 7.586,16.75 8,16.75 Z M14.47,13.53 C14.763,13.823 15.238,13.823 15.53,13.53 L17.53,11.53 C17.823,11.237 17.823,10.763 17.53,10.47 L15.53,8.47 C15.238,8.177 14.763,8.177 14.47,8.47 C14.177,8.763 14.177,9.237 14.47,9.53 L15.939,11 L14.47,12.47 C14.177,12.763 14.177,13.238 14.47,13.53 Z"/>
</svg>

