<svg xmlns="http://www.w3.org/2000/svg" viewBox="0 0 24 24">
  <defs/>
  <path fill="#151E28" d="M9.367,2.25 L14.633,2.25 C15.725,2.25 16.591,2.25 17.288,2.307 C18.002,2.365 18.605,2.487 19.156,2.768 C20.05,3.223 20.777,3.95 21.232,4.844 C21.513,5.395 21.635,5.998 21.693,6.712 C21.75,7.409 21.75,8.275 21.75,9.367 L21.75,14.633 C21.75,15.725 21.75,16.591 21.693,17.288 C21.635,18.002 21.513,18.605 21.232,19.156 C20.777,20.05 20.05,20.777 19.156,21.232 C18.605,21.513 18.002,21.635 17.288,21.693 C16.591,21.75 15.725,21.75 14.633,21.75 L9.367,21.75 C8.275,21.75 7.409,21.75 6.712,21.693 C5.998,21.635 5.395,21.513 4.844,21.232 C3.95,20.777 3.223,20.05 2.768,19.156 C2.487,18.605 2.365,18.002 2.307,17.288 C2.25,16.591 2.25,15.725 2.25,14.633 L2.25,9.367 C2.25,8.275 2.25,7.409 2.307,6.712 C2.365,5.998 2.487,5.395 2.768,4.844 C3.223,3.95 3.95,3.223 4.844,2.768 C5.395,2.487 5.998,2.365 6.712,2.307 C7.409,2.25 8.275,2.25 9.367,2.25 Z M8.25,15 C8.25,15.414 8.586,15.75 9,15.75 L9.232,15.75 C10.045,15.75 10.701,15.75 11.231,15.707 C11.778,15.662 12.258,15.568 12.703,15.341 C13.408,14.982 13.982,14.408 14.341,13.703 C14.568,13.258 14.662,12.778 14.707,12.231 C14.75,11.701 14.75,11.045 14.75,10.232 L14.75,9.811 L15.47,10.53 C15.763,10.823 16.237,10.823 16.53,10.53 C16.823,10.237 16.823,9.763 16.53,9.47 L14.53,7.47 C14.237,7.177 13.763,7.177 13.47,7.47 L11.47,9.47 C11.177,9.763 11.177,10.237 11.47,10.53 C11.763,10.823 12.237,10.823 12.53,10.53 L13.25,9.811 L13.25,10.2 C13.25,11.052 13.249,11.647 13.212,12.109 C13.175,12.563 13.105,12.824 13.005,13.021 C12.789,13.445 12.445,13.789 12.021,14.005 C11.824,14.105 11.563,14.175 11.109,14.212 C10.647,14.249 10.052,14.25 9.2,14.25 L9,14.25 C8.586,14.25 8.25,14.586 8.25,15 Z"/>
</svg>

