<svg xmlns="http://www.w3.org/2000/svg" viewBox="0 0 24 24">
  <defs/>
  <path fill="#151E28" d="M13.117,2.479 C13.602,2.695 13.961,3.093 14.285,3.55 C14.606,4.004 14.961,4.617 15.399,5.375 L15.399,5.375 L15.418,5.408 L20.868,14.821 L20.887,14.854 C21.327,15.614 21.684,16.229 21.918,16.736 C22.154,17.245 22.321,17.756 22.266,18.285 C22.185,19.061 21.779,19.766 21.148,20.224 C20.718,20.537 20.192,20.648 19.633,20.699 C19.077,20.75 18.366,20.75 17.488,20.75 L6.512,20.75 C5.634,20.75 4.923,20.75 4.367,20.699 C3.808,20.648 3.282,20.537 2.852,20.224 C2.221,19.766 1.815,19.061 1.734,18.285 C1.679,17.756 1.846,17.245 2.082,16.736 C2.316,16.229 2.673,15.614 3.113,14.854 L3.132,14.821 L8.582,5.408 L8.601,5.375 C9.039,4.618 9.394,4.004 9.715,3.55 C10.039,3.093 10.398,2.695 10.883,2.479 C11.594,2.163 12.406,2.163 13.117,2.479 Z M9.062,12.174 C9.336,11.863 9.307,11.389 8.996,11.115 C8.686,10.841 8.212,10.87 7.938,11.181 C7.535,11.637 7.281,12.23 7.253,12.88 C7.25,12.94 7.25,13.008 7.25,13.095 L7.25,14.831 C7.25,15.365 7.25,15.811 7.28,16.175 C7.311,16.555 7.378,16.911 7.55,17.249 C7.813,17.766 8.234,18.187 8.752,18.45 C9.089,18.622 9.445,18.689 9.825,18.72 C10.19,18.75 10.635,18.75 11.17,18.75 L12.905,18.75 C12.992,18.75 13.06,18.75 13.12,18.747 C13.77,18.719 14.363,18.465 14.819,18.062 C15.13,17.788 15.159,17.314 14.885,17.004 C14.611,16.693 14.137,16.664 13.827,16.938 C13.619,17.121 13.351,17.236 13.054,17.249 C13.031,17.25 13,17.25 12.889,17.25 L11.2,17.25 C10.628,17.25 10.243,17.25 9.947,17.225 C9.66,17.202 9.523,17.16 9.433,17.114 C9.197,16.994 9.006,16.803 8.886,16.568 C8.84,16.477 8.798,16.34 8.775,16.053 C8.751,15.757 8.75,15.373 8.75,14.8 L8.75,13.111 C8.75,13 8.75,12.969 8.751,12.946 C8.764,12.649 8.879,12.381 9.062,12.174 Z M13,14.25 L12.811,14.25 L15.53,11.53 C15.823,11.237 15.823,10.762 15.53,10.47 C15.237,10.177 14.763,10.177 14.47,10.47 L11.75,13.189 L11.75,13 C11.75,12.586 11.414,12.25 11,12.25 C10.586,12.25 10.25,12.586 10.25,13 L10.25,15 C10.25,15.414 10.586,15.75 11,15.75 L13,15.75 C13.414,15.75 13.75,15.414 13.75,15 C13.75,14.586 13.414,14.25 13,14.25 Z"/>
</svg>

