<svg xmlns="http://www.w3.org/2000/svg" viewBox="0 0 24 24">
  <defs/>
  <path fill="#151E28" d="M7.205,15.033 L7.235,10.336 C7.245,8.796 9.097,8.018 10.203,9.091 L10.762,9.632 L11.803,8.591 C12.486,7.908 13.594,7.908 14.278,8.591 L15.409,9.722 C16.093,10.406 16.093,11.514 15.409,12.197 L14.368,13.238 L14.91,13.797 C15.982,14.903 15.204,16.755 13.664,16.765 L8.967,16.795 C7.991,16.801 7.199,16.009 7.205,15.033 Z M8.957,15.295 L13.654,15.265 C13.874,15.263 13.986,14.999 13.832,14.841 L12.777,13.752 C12.492,13.458 12.496,12.989 12.785,12.7 L14.348,11.137 C14.446,11.039 14.446,10.881 14.348,10.783 L13.217,9.652 C13.119,9.554 12.961,9.554 12.863,9.652 L11.3,11.215 C11.011,11.504 10.542,11.508 10.248,11.223 L9.159,10.168 C9.001,10.014 8.737,10.126 8.735,10.346 L8.705,15.043 C8.705,15.182 8.818,15.295 8.957,15.295 Z M13.924,6.47 C14.217,6.177 14.692,6.177 14.985,6.47 L17.53,9.015 C17.823,9.308 17.823,9.783 17.53,10.076 C17.237,10.369 16.763,10.369 16.47,10.076 L13.924,7.53 C13.631,7.237 13.631,6.763 13.924,6.47 Z"/>
</svg>

