<svg xmlns="http://www.w3.org/2000/svg" viewBox="0 0 24 24">
  <defs/>
  <path fill="#151E28" d="M13.117,2.479 C13.602,2.695 13.961,3.093 14.285,3.55 C14.606,4.004 14.961,4.617 15.399,5.375 L15.399,5.375 L15.418,5.408 L20.868,14.821 L20.887,14.854 C21.327,15.614 21.684,16.229 21.918,16.736 C22.154,17.245 22.321,17.756 22.266,18.285 C22.185,19.061 21.779,19.766 21.148,20.224 C20.718,20.537 20.192,20.648 19.633,20.699 C19.077,20.75 18.366,20.75 17.488,20.75 L6.512,20.75 C5.634,20.75 4.923,20.75 4.367,20.699 C3.808,20.648 3.282,20.537 2.852,20.224 C2.221,19.766 1.815,19.061 1.734,18.285 C1.679,17.756 1.846,17.245 2.082,16.736 C2.316,16.229 2.673,15.614 3.113,14.854 L3.132,14.821 L8.582,5.408 L8.601,5.375 C9.039,4.618 9.394,4.004 9.715,3.55 C10.039,3.093 10.398,2.695 10.883,2.479 C11.594,2.163 12.406,2.163 13.117,2.479 Z M8.52,11.424 C8.202,11.689 8.159,12.162 8.424,12.48 L9.757,14.08 C10.404,14.856 11.596,14.856 12.243,14.08 C12.29,14.024 12.377,14.024 12.424,14.08 L13.399,15.25 L13,15.25 C12.586,15.25 12.25,15.586 12.25,16 C12.25,16.414 12.586,16.75 13,16.75 L15,16.75 C15.414,16.75 15.75,16.414 15.75,16 L15.75,13.6 C15.75,13.186 15.414,12.85 15,12.85 C14.586,12.85 14.25,13.186 14.25,13.6 L14.25,13.928 L13.576,13.12 C12.929,12.344 11.737,12.344 11.09,13.12 C11.043,13.176 10.957,13.176 10.91,13.12 L9.576,11.52 C9.311,11.202 8.838,11.159 8.52,11.424 Z"/>
</svg>

