<svg xmlns="http://www.w3.org/2000/svg" viewBox="0 0 24 24">
  <defs/>
  <path fill="#151E28" d="M9.325,2.25 L14.675,2.25 L14.747,2.25 C15.166,2.25 15.495,2.25 15.814,2.326 C16.094,2.393 16.362,2.504 16.608,2.655 C16.888,2.826 17.121,3.059 17.416,3.356 L17.468,3.407 L20.593,6.532 L20.644,6.584 C20.941,6.879 21.174,7.112 21.345,7.392 C21.496,7.638 21.607,7.906 21.674,8.186 C21.75,8.505 21.75,8.834 21.75,9.253 L21.75,14.747 C21.75,15.166 21.75,15.495 21.674,15.814 C21.607,16.094 21.496,16.362 21.345,16.608 C21.174,16.888 20.941,17.121 20.644,17.416 L17.468,20.593 L17.416,20.644 C17.121,20.941 16.888,21.174 16.608,21.345 C16.362,21.496 16.094,21.607 15.814,21.674 C15.495,21.75 15.166,21.75 14.747,21.75 L9.253,21.75 C8.834,21.75 8.505,21.75 8.186,21.674 C7.906,21.607 7.638,21.496 7.392,21.345 C7.112,21.174 6.879,20.941 6.584,20.644 L6.532,20.593 L3.407,17.468 L3.356,17.416 C3.059,17.121 2.826,16.888 2.655,16.608 C2.504,16.362 2.393,16.094 2.326,15.814 C2.25,15.495 2.25,15.166 2.25,14.747 L2.25,14.675 L2.25,9.325 L2.25,9.253 C2.25,8.834 2.25,8.505 2.326,8.186 C2.393,7.906 2.504,7.638 2.655,7.392 C2.826,7.112 3.059,6.879 3.356,6.584 L3.407,6.532 L6.532,3.407 L6.584,3.356 C6.879,3.059 7.112,2.826 7.392,2.655 C7.638,2.504 7.906,2.393 8.186,2.326 C8.505,2.25 8.834,2.25 9.253,2.25 Z M11.111,16.75 C11.525,16.75 11.861,16.414 11.861,16 C11.861,15.586 11.525,15.25 11.111,15.25 C10.582,15.25 10.226,15.25 9.952,15.229 C9.685,15.208 9.556,15.172 9.472,15.133 C9.205,15.009 8.991,14.795 8.867,14.528 C8.828,14.443 8.791,14.315 8.771,14.048 C8.75,13.774 8.75,13.418 8.75,12.889 L8.75,11.2 C8.75,10.628 8.751,10.243 8.775,9.947 C8.798,9.66 8.84,9.523 8.886,9.433 C9.006,9.197 9.197,9.006 9.433,8.886 C9.523,8.84 9.66,8.798 9.947,8.775 C10.243,8.751 10.628,8.75 11.2,8.75 L12.889,8.75 C13.418,8.75 13.774,8.75 14.048,8.771 C14.315,8.791 14.443,8.828 14.528,8.867 C14.795,8.991 15.009,9.205 15.133,9.472 C15.172,9.556 15.208,9.685 15.229,9.952 C15.25,10.226 15.25,10.582 15.25,11.111 C15.25,11.525 15.586,11.861 16,11.861 C16.414,11.861 16.75,11.525 16.75,11.111 L16.75,11.083 C16.75,10.589 16.75,10.176 16.724,9.838 C16.698,9.486 16.64,9.155 16.492,8.838 C16.219,8.252 15.748,7.781 15.162,7.508 C14.845,7.36 14.514,7.302 14.162,7.276 C13.824,7.25 13.411,7.25 12.917,7.25 L11.169,7.25 C10.635,7.25 10.189,7.25 9.825,7.28 C9.445,7.311 9.089,7.378 8.752,7.55 C8.234,7.813 7.813,8.234 7.55,8.752 C7.378,9.089 7.311,9.445 7.28,9.825 C7.25,10.19 7.25,10.635 7.25,11.169 L7.25,12.917 C7.25,13.411 7.25,13.824 7.276,14.162 C7.302,14.514 7.36,14.845 7.508,15.162 C7.781,15.748 8.252,16.219 8.838,16.492 C9.155,16.64 9.486,16.698 9.838,16.724 C10.176,16.75 10.589,16.75 11.083,16.75 Z M14.5,16.75 L16,16.75 C16.199,16.75 16.39,16.671 16.53,16.53 C16.671,16.39 16.75,16.199 16.75,16 L16.75,14.5 C16.75,14.086 16.414,13.75 16,13.75 C15.678,13.75 15.404,13.952 15.297,14.237 L13.763,12.703 C14.048,12.596 14.25,12.322 14.25,12 C14.25,11.586 13.914,11.25 13.5,11.25 L12,11.25 C11.586,11.25 11.25,11.586 11.25,12 L11.25,13.5 C11.25,13.914 11.586,14.25 12,14.25 C12.322,14.25 12.596,14.047 12.703,13.763 L14.237,15.297 C13.952,15.404 13.75,15.678 13.75,16 C13.75,16.414 14.086,16.75 14.5,16.75 Z"/>
</svg>

