<svg xmlns="http://www.w3.org/2000/svg" viewBox="0 0 24 24">
  <defs/>
  <path fill="#151E28" d="M12,1.25 C17.937,1.25 22.75,6.063 22.75,12 C22.75,17.937 17.937,22.75 12,22.75 C6.063,22.75 1.25,17.937 1.25,12 C1.25,6.063 6.063,1.25 12,1.25 Z M14.755,15.957 C15.685,15.932 16.432,15.184 16.457,14.255 L16.55,10.826 C16.593,9.244 14.682,8.422 13.563,9.541 L13.393,9.711 L11.616,7.934 C10.933,7.25 9.825,7.25 9.141,7.934 L8.434,8.641 C7.751,9.324 7.751,10.432 8.434,11.116 L10.211,12.893 L10.041,13.063 C8.923,14.182 9.745,16.093 11.326,16.05 Z M14.958,14.215 C14.954,14.347 14.847,14.454 14.715,14.458 L11.285,14.55 C11.059,14.556 10.942,14.283 11.102,14.124 L11.802,13.423 C12.095,13.13 12.095,12.656 11.802,12.363 L9.495,10.055 C9.397,9.958 9.397,9.799 9.495,9.702 L10.202,8.995 C10.3,8.897 10.458,8.897 10.556,8.995 L12.863,11.302 C13.156,11.595 13.631,11.595 13.924,11.302 L14.624,10.602 C14.784,10.442 15.057,10.559 15.051,10.785 Z"/>
</svg>

