<svg xmlns="http://www.w3.org/2000/svg" viewBox="0 0 24 24">
  <defs/>
  <path fill="#151E28" d="M12,1.25 C17.937,1.25 22.75,6.063 22.75,12 C22.75,17.937 17.937,22.75 12,22.75 C6.063,22.75 1.25,17.937 1.25,12 C1.25,6.063 6.063,1.25 12,1.25 Z M12.75,15.189 L12.75,13.667 C12.75,13.252 12.414,12.917 12,12.917 C11.586,12.917 11.25,13.252 11.25,13.667 L11.25,15.189 L10.864,14.803 C10.571,14.51 10.096,14.51 9.803,14.803 C9.51,15.096 9.51,15.571 9.803,15.864 L11.47,17.53 C11.763,17.823 12.237,17.823 12.53,17.53 L14.197,15.864 C14.49,15.571 14.49,15.096 14.197,14.803 C13.904,14.51 13.429,14.51 13.136,14.803 Z M14.803,10.864 L15.189,11.25 L13.667,11.25 C13.252,11.25 12.917,11.586 12.917,12 C12.917,12.414 13.252,12.75 13.667,12.75 L15.189,12.75 L14.803,13.136 C14.51,13.429 14.51,13.904 14.803,14.197 C15.096,14.49 15.571,14.49 15.864,14.197 L17.53,12.53 C17.823,12.237 17.823,11.763 17.53,11.47 L15.864,9.803 C15.571,9.51 15.096,9.51 14.803,9.803 C14.51,10.096 14.51,10.571 14.803,10.864 Z M11.47,6.47 L9.803,8.136 C9.51,8.429 9.51,8.904 9.803,9.197 C10.096,9.49 10.571,9.49 10.864,9.197 L11.25,8.811 L11.25,10.333 C11.25,10.748 11.586,11.083 12,11.083 C12.414,11.083 12.75,10.748 12.75,10.333 L12.75,8.811 L13.136,9.197 C13.429,9.49 13.904,9.49 14.197,9.197 C14.49,8.904 14.49,8.429 14.197,8.136 L12.53,6.47 C12.237,6.177 11.763,6.177 11.47,6.47 Z M9.197,9.803 C8.904,9.51 8.429,9.51 8.136,9.803 L6.47,11.47 C6.177,11.763 6.177,12.237 6.47,12.53 L8.136,14.197 C8.429,14.49 8.904,14.49 9.197,14.197 C9.49,13.904 9.49,13.429 9.197,13.136 L8.811,12.75 L10.333,12.75 C10.748,12.75 11.083,12.414 11.083,12 C11.083,11.586 10.748,11.25 10.333,11.25 L8.811,11.25 L9.197,10.864 C9.49,10.571 9.49,10.096 9.197,9.803 Z"/>
</svg>

