<svg xmlns="http://www.w3.org/2000/svg" viewBox="0 0 24 24">
  <defs/>
  <path fill="#151E28" d="M7.182,8.9 C7.199,7.958 7.958,7.199 8.9,7.182 L13.796,7.095 C15.37,7.066 16.178,8.969 15.065,10.082 L14.376,10.77 L15.409,11.803 C16.093,12.486 16.093,13.594 15.409,14.278 L14.278,15.409 C13.594,16.093 12.486,16.093 11.803,15.409 L10.77,14.376 L10.082,15.065 C8.969,16.178 7.066,15.37 7.095,13.796 Z M8.927,8.682 C8.793,8.684 8.684,8.793 8.682,8.927 L8.594,13.823 C8.59,14.048 8.862,14.163 9.021,14.004 L10.24,12.785 C10.533,12.492 11.007,12.492 11.3,12.785 L12.863,14.348 C12.961,14.446 13.119,14.446 13.217,14.348 L14.348,13.217 C14.446,13.119 14.446,12.961 14.348,12.863 L12.785,11.3 C12.492,11.007 12.492,10.533 12.785,10.24 L14.004,9.021 C14.163,8.862 14.048,8.59 13.823,8.594 Z M13.924,17.53 C13.631,17.237 13.631,16.763 13.924,16.47 L16.47,13.924 C16.763,13.631 17.237,13.631 17.53,13.924 C17.823,14.217 17.823,14.692 17.53,14.985 L14.985,17.53 C14.692,17.823 14.217,17.823 13.924,17.53 Z"/>
</svg>

