<svg xmlns="http://www.w3.org/2000/svg" viewBox="0 0 24 24">
  <defs/>
  <path fill="#151E28" d="M9.367,2.25 L14.633,2.25 C15.725,2.25 16.591,2.25 17.288,2.307 C18.002,2.365 18.605,2.487 19.156,2.768 C20.05,3.223 20.777,3.95 21.232,4.844 C21.513,5.395 21.635,5.998 21.693,6.712 C21.75,7.409 21.75,8.275 21.75,9.367 L21.75,14.633 C21.75,15.725 21.75,16.591 21.693,17.288 C21.635,18.002 21.513,18.605 21.232,19.156 C20.777,20.05 20.05,20.777 19.156,21.232 C18.605,21.513 18.002,21.635 17.288,21.693 C16.591,21.75 15.725,21.75 14.633,21.75 L9.367,21.75 C8.275,21.75 7.409,21.75 6.712,21.693 C5.998,21.635 5.395,21.513 4.844,21.232 C3.95,20.777 3.223,20.05 2.768,19.156 C2.487,18.605 2.365,18.002 2.307,17.288 C2.25,16.591 2.25,15.725 2.25,14.633 L2.25,9.367 C2.25,8.275 2.25,7.409 2.307,6.712 C2.365,5.998 2.487,5.395 2.768,4.844 C3.223,3.95 3.95,3.223 4.844,2.768 C5.395,2.487 5.998,2.365 6.712,2.307 C7.409,2.25 8.275,2.25 9.367,2.25 Z M16.893,13.204 C17.532,12.529 17.532,11.471 16.893,10.796 L14.534,8.306 C13.446,7.158 11.513,7.928 11.513,9.51 L11.513,9.75 L9,9.75 C8.033,9.75 7.25,10.533 7.25,11.5 L7.25,12.5 C7.25,13.467 8.033,14.25 9,14.25 L11.513,14.25 L11.513,14.49 C11.513,16.072 13.446,16.842 14.534,15.694 Z M15.804,11.828 C15.895,11.925 15.895,12.075 15.804,12.172 L13.445,14.662 C13.289,14.826 13.013,14.716 13.013,14.49 L13.013,13.5 C13.013,13.086 12.677,12.75 12.263,12.75 L9,12.75 C8.862,12.75 8.75,12.638 8.75,12.5 L8.75,11.5 C8.75,11.362 8.862,11.25 9,11.25 L12.263,11.25 C12.677,11.25 13.013,10.914 13.013,10.5 L13.013,9.51 C13.013,9.284 13.289,9.174 13.445,9.338 Z"/>
</svg>

