<svg xmlns="http://www.w3.org/2000/svg" viewBox="0 0 24 24">
  <defs/>
  <path fill="#151E28" d="M12,1.25 C17.937,1.25 22.75,6.063 22.75,12 C22.75,17.937 17.937,22.75 12,22.75 C6.063,22.75 1.25,17.937 1.25,12 C1.25,6.063 6.063,1.25 12,1.25 Z M13.47,7.47 C13.177,7.763 13.177,8.237 13.47,8.53 L14.189,9.25 L11,9.25 C8.929,9.25 7.25,10.929 7.25,13 C7.25,15.071 8.929,16.75 11,16.75 L13,16.75 C13.414,16.75 13.75,16.414 13.75,16 C13.75,15.586 13.414,15.25 13,15.25 L11,15.25 C9.757,15.25 8.75,14.243 8.75,13 C8.75,11.757 9.757,10.75 11,10.75 L14.189,10.75 L13.47,11.47 C13.177,11.763 13.177,12.237 13.47,12.53 C13.763,12.823 14.237,12.823 14.53,12.53 L16.53,10.53 C16.823,10.237 16.823,9.763 16.53,9.47 L14.53,7.47 C14.237,7.177 13.763,7.177 13.47,7.47 Z"/>
</svg>

