<svg xmlns="http://www.w3.org/2000/svg" viewBox="0 0 24 24">
  <defs/>
  <path fill="#151E28" d="M12,1.25 C17.937,1.25 22.75,6.063 22.75,12 C22.75,17.937 17.937,22.75 12,22.75 C6.063,22.75 1.25,17.937 1.25,12 C1.25,6.063 6.063,1.25 12,1.25 Z M8.75,13 L8.75,12.2 C8.75,11.628 8.751,11.243 8.775,10.948 C8.798,10.66 8.84,10.523 8.886,10.432 C9.006,10.197 9.197,10.006 9.433,9.886 C9.523,9.84 9.66,9.798 9.947,9.775 C10.243,9.751 10.628,9.75 11.2,9.75 L12.8,9.75 C13.372,9.75 13.757,9.751 14.052,9.775 C14.34,9.798 14.477,9.84 14.568,9.886 C14.803,10.006 14.994,10.197 15.114,10.432 C15.16,10.523 15.202,10.66 15.225,10.948 C15.249,11.243 15.25,11.628 15.25,12.2 L15.25,13 C15.25,13.414 15.586,13.75 16,13.75 C16.414,13.75 16.75,13.414 16.75,13 L16.75,12.17 C16.75,11.635 16.75,11.189 16.72,10.825 C16.689,10.445 16.622,10.089 16.45,9.752 C16.187,9.234 15.766,8.813 15.248,8.55 C14.911,8.378 14.555,8.311 14.175,8.28 C13.81,8.25 13.365,8.25 12.831,8.25 L11.169,8.25 C10.635,8.25 10.19,8.25 9.825,8.28 C9.445,8.311 9.089,8.378 8.752,8.55 C8.234,8.813 7.813,9.234 7.55,9.752 C7.378,10.089 7.311,10.445 7.28,10.825 C7.25,11.19 7.25,11.635 7.25,12.169 L7.25,13 C7.25,13.414 7.586,13.75 8,13.75 C8.414,13.75 8.75,13.414 8.75,13 Z M11.47,17.53 C11.763,17.823 12.237,17.823 12.53,17.53 L14.53,15.53 C14.823,15.238 14.823,14.763 14.53,14.47 C14.237,14.177 13.763,14.177 13.47,14.47 L12.75,15.189 L12.75,12 C12.75,11.586 12.414,11.25 12,11.25 C11.586,11.25 11.25,11.586 11.25,12 L11.25,15.189 L10.53,14.47 C10.237,14.177 9.763,14.177 9.47,14.47 C9.177,14.763 9.177,15.238 9.47,15.53 Z"/>
</svg>

