<svg xmlns="http://www.w3.org/2000/svg" viewBox="0 0 24 24">
  <defs/>
  <path fill="#151E28" d="M12,20.25 C12.414,20.25 12.75,20.586 12.75,21 C12.75,21.414 12.414,21.75 12,21.75 L10.966,21.75 C9.595,21.75 8.519,21.75 7.655,21.679 C6.775,21.608 6.048,21.459 5.39,21.123 C4.308,20.572 3.428,19.692 2.877,18.61 C2.541,17.952 2.393,17.225 2.321,16.345 C2.25,15.481 2.25,14.406 2.25,13.034 L2.25,10.966 C2.25,9.594 2.25,8.519 2.321,7.655 C2.393,6.775 2.541,6.048 2.877,5.39 C3.428,4.308 4.308,3.428 5.39,2.877 C6.048,2.541 6.775,2.393 7.655,2.321 C8.519,2.25 9.594,2.25 10.966,2.25 L12,2.25 C12.414,2.25 12.75,2.586 12.75,3 C12.75,3.414 12.414,3.75 12,3.75 L11,3.75 C9.587,3.75 8.573,3.751 7.777,3.816 C6.99,3.88 6.482,4.004 6.071,4.213 C5.271,4.621 4.621,5.271 4.213,6.071 C4.004,6.482 3.88,6.99 3.816,7.777 C3.751,8.573 3.75,9.587 3.75,11 L3.75,13 C3.75,14.413 3.751,15.427 3.816,16.223 C3.88,17.01 4.004,17.518 4.213,17.93 C4.621,18.729 5.271,19.379 6.071,19.787 C6.482,19.996 6.99,20.12 7.777,20.184 C8.573,20.249 9.587,20.25 11,20.25 Z M7.47,11.47 L11.47,7.47 C11.763,7.177 12.237,7.177 12.53,7.47 C12.823,7.763 12.823,8.237 12.53,8.53 L9.811,11.25 L21,11.25 C21.414,11.25 21.75,11.586 21.75,12 C21.75,12.414 21.414,12.75 21,12.75 L9.811,12.75 L12.53,15.47 C12.823,15.763 12.823,16.237 12.53,16.53 C12.237,16.823 11.763,16.823 11.47,16.53 L7.47,12.53 C7.177,12.237 7.177,11.763 7.47,11.47 Z"/>
</svg>

