<svg xmlns="http://www.w3.org/2000/svg" viewBox="0 0 24 24">
  <defs/>
  <path fill="#151E28" d="M12,1.25 C17.937,1.25 22.75,6.063 22.75,12 C22.75,17.937 17.937,22.75 12,22.75 C6.063,22.75 1.25,17.937 1.25,12 C1.25,6.063 6.063,1.25 12,1.25 Z M7.47,13.47 C7.177,13.763 7.177,14.237 7.47,14.53 L9.47,16.53 C9.763,16.823 10.237,16.823 10.53,16.53 L12.53,14.53 C12.823,14.237 12.823,13.763 12.53,13.47 C12.237,13.177 11.763,13.177 11.47,13.47 L10.75,14.189 L10.75,11 C10.75,9.757 11.757,8.75 13,8.75 C14.243,8.75 15.25,9.757 15.25,11 L15.25,13 C15.25,13.414 15.586,13.75 16,13.75 C16.414,13.75 16.75,13.414 16.75,13 L16.75,11 C16.75,8.929 15.071,7.25 13,7.25 C10.929,7.25 9.25,8.929 9.25,11 L9.25,14.189 L8.53,13.47 C8.237,13.177 7.763,13.177 7.47,13.47 Z"/>
</svg>

