<svg xmlns="http://www.w3.org/2000/svg" viewBox="0 0 24 24">
  <defs/>
  <path fill="#151E28" d="M12,1.25 C17.937,1.25 22.75,6.063 22.75,12 C22.75,17.937 17.937,22.75 12,22.75 C6.063,22.75 1.25,17.937 1.25,12 C1.25,6.063 6.063,1.25 12,1.25 Z M14.773,11.227 C14.48,10.934 14.005,10.934 13.713,11.227 L10.75,14.189 L10.75,11.757 C10.75,11.343 10.415,11.007 10,11.007 C9.586,11.007 9.25,11.343 9.25,11.757 L9.25,16 C9.25,16.199 9.329,16.39 9.47,16.531 C9.611,16.671 9.801,16.75 10,16.75 L14.243,16.75 C14.657,16.75 14.993,16.414 14.993,16 C14.993,15.586 14.657,15.25 14.243,15.25 L11.811,15.25 L14.773,12.288 C15.066,11.995 15.066,11.52 14.773,11.227 Z M15.75,8 C15.75,7.586 15.414,7.25 15,7.25 L9,7.25 C8.586,7.25 8.25,7.586 8.25,8 C8.25,8.414 8.586,8.75 9,8.75 L15,8.75 C15.414,8.75 15.75,8.414 15.75,8 Z"/>
</svg>

