<svg xmlns="http://www.w3.org/2000/svg" viewBox="0 0 24 24">
  <defs/>
  <path fill="#151E28" d="M9.326,2.25 L14.675,2.25 L14.747,2.25 C15.166,2.25 15.495,2.25 15.814,2.326 C16.094,2.393 16.362,2.505 16.608,2.655 C16.888,2.826 17.121,3.06 17.416,3.356 L17.468,3.407 L20.593,6.532 L20.644,6.584 C20.941,6.88 21.174,7.112 21.345,7.392 C21.496,7.638 21.607,7.906 21.674,8.187 C21.75,8.505 21.75,8.834 21.75,9.252 L21.75,14.748 C21.75,15.166 21.75,15.495 21.674,15.814 C21.607,16.094 21.496,16.362 21.345,16.608 C21.174,16.888 20.941,17.121 20.644,17.416 L20.593,17.468 L17.468,20.593 L17.416,20.644 C17.121,20.941 16.888,21.174 16.608,21.345 C16.362,21.496 16.094,21.607 15.814,21.674 C15.495,21.75 15.166,21.75 14.748,21.75 L9.252,21.75 C8.834,21.75 8.505,21.75 8.187,21.674 C7.906,21.607 7.638,21.496 7.392,21.345 C7.112,21.174 6.88,20.941 6.584,20.644 L6.532,20.593 L3.407,17.468 L3.356,17.416 C3.06,17.121 2.826,16.888 2.655,16.608 C2.505,16.362 2.393,16.094 2.326,15.814 C2.25,15.495 2.25,15.166 2.25,14.747 L2.25,14.675 L2.25,9.326 L2.25,9.253 C2.25,8.834 2.25,8.505 2.326,8.187 C2.393,7.906 2.505,7.638 2.655,7.392 C2.826,7.112 3.06,6.88 3.356,6.584 L3.407,6.532 L6.532,3.407 L6.584,3.356 C6.88,3.06 7.112,2.826 7.392,2.655 C7.638,2.505 7.906,2.393 8.187,2.326 C8.505,2.25 8.834,2.25 9.253,2.25 Z M8.25,14 C8.25,14.967 9.034,15.75 10,15.75 L13.358,15.75 C14.97,15.75 15.725,13.756 14.517,12.689 L14.505,12.677 L16.248,10.934 C16.931,10.251 16.931,9.143 16.248,8.459 L15.541,7.752 C14.857,7.069 13.749,7.069 13.066,7.752 L11.323,9.496 L11.311,9.483 C10.244,8.275 8.25,9.03 8.25,10.642 Z M10,14.25 C9.862,14.25 9.75,14.138 9.75,14 L9.75,10.642 C9.75,10.411 10.035,10.304 10.187,10.476 L10.727,11.087 C10.864,11.242 11.059,11.333 11.266,11.34 C11.473,11.346 11.673,11.267 11.819,11.12 L14.127,8.813 C14.224,8.715 14.382,8.715 14.48,8.813 L15.187,9.52 C15.285,9.618 15.285,9.776 15.187,9.874 L12.88,12.181 C12.733,12.327 12.654,12.528 12.66,12.734 C12.667,12.941 12.759,13.136 12.913,13.273 L13.524,13.813 C13.696,13.965 13.589,14.25 13.358,14.25 Z"/>
</svg>

