<svg xmlns="http://www.w3.org/2000/svg" viewBox="0 0 24 24">
  <defs/>
  <path fill="#151E28" d="M12,1.25 C17.937,1.25 22.75,6.063 22.75,12 C22.75,17.937 17.937,22.75 12,22.75 C6.063,22.75 1.25,17.937 1.25,12 C1.25,6.063 6.063,1.25 12,1.25 Z M7.25,8 L7.25,11 C7.25,11.414 7.586,11.75 8,11.75 C8.414,11.75 8.75,11.414 8.75,11 L8.75,9.811 L14.189,15.25 L13,15.25 C12.586,15.25 12.25,15.586 12.25,16 C12.25,16.414 12.586,16.75 13,16.75 L16,16.75 C16.414,16.75 16.75,16.414 16.75,16 L16.75,13 C16.75,12.586 16.414,12.25 16,12.25 C15.586,12.25 15.25,12.586 15.25,13 L15.25,14.189 L9.811,8.75 L11,8.75 C11.414,8.75 11.75,8.414 11.75,8 C11.75,7.586 11.414,7.25 11,7.25 L8,7.25 C7.586,7.25 7.25,7.586 7.25,8 Z"/>
</svg>

