<svg xmlns="http://www.w3.org/2000/svg" viewBox="0 0 24 24">
  <defs/>
  <path fill="#151E28" d="M12,1.25 C17.937,1.25 22.75,6.063 22.75,12 C22.75,17.937 17.937,22.75 12,22.75 C6.063,22.75 1.25,17.937 1.25,12 C1.25,6.063 6.063,1.25 12,1.25 Z M12.889,7.25 C12.475,7.25 12.139,7.586 12.139,8 C12.139,8.414 12.475,8.75 12.889,8.75 C13.418,8.75 13.774,8.75 14.048,8.771 C14.315,8.791 14.443,8.828 14.528,8.867 C14.795,8.991 15.009,9.205 15.133,9.472 C15.172,9.556 15.208,9.685 15.229,9.952 C15.25,10.226 15.25,10.582 15.25,11.111 L15.25,12.8 C15.25,13.372 15.249,13.757 15.225,14.052 C15.202,14.34 15.16,14.477 15.114,14.568 C14.994,14.803 14.803,14.994 14.568,15.114 C14.477,15.16 14.34,15.202 14.052,15.225 C13.757,15.249 13.372,15.25 12.8,15.25 L11.111,15.25 C10.582,15.25 10.226,15.25 9.952,15.229 C9.685,15.208 9.556,15.172 9.472,15.133 C9.205,15.009 8.991,14.795 8.867,14.528 C8.828,14.443 8.791,14.315 8.771,14.048 C8.75,13.774 8.75,13.418 8.75,12.889 C8.75,12.475 8.414,12.139 8,12.139 C7.586,12.139 7.25,12.475 7.25,12.889 L7.25,12.917 C7.25,13.411 7.25,13.824 7.276,14.162 C7.302,14.514 7.36,14.845 7.508,15.162 C7.781,15.748 8.252,16.219 8.838,16.492 C9.155,16.64 9.486,16.698 9.838,16.724 C10.176,16.75 10.589,16.75 11.083,16.75 L12.83,16.75 C13.365,16.75 13.811,16.75 14.175,16.72 C14.555,16.689 14.911,16.622 15.248,16.45 C15.766,16.187 16.187,15.766 16.45,15.248 C16.622,14.911 16.689,14.555 16.72,14.175 C16.75,13.81 16.75,13.365 16.75,12.83 L16.75,11.083 C16.75,10.589 16.75,10.176 16.724,9.838 C16.698,9.486 16.64,9.155 16.492,8.838 C16.219,8.252 15.748,7.781 15.162,7.508 C14.845,7.36 14.514,7.302 14.162,7.276 C13.824,7.25 13.411,7.25 12.917,7.25 Z M9.763,8.703 C10.048,8.596 10.25,8.322 10.25,8 C10.25,7.586 9.914,7.25 9.5,7.25 L8,7.25 C7.586,7.25 7.25,7.586 7.25,8 L7.25,9.5 C7.25,9.914 7.586,10.25 8,10.25 C8.322,10.25 8.596,10.048 8.703,9.763 L10.237,11.297 C9.952,11.404 9.75,11.678 9.75,12 C9.75,12.414 10.086,12.75 10.5,12.75 L12,12.75 C12.414,12.75 12.75,12.414 12.75,12 L12.75,10.5 C12.75,10.086 12.414,9.75 12,9.75 C11.678,9.75 11.404,9.952 11.297,10.237 Z"/>
</svg>

