<svg xmlns="http://www.w3.org/2000/svg" viewBox="0 0 24 24">
  <defs/>
  <path fill="#151E28" d="M13.117,2.479 C13.602,2.695 13.961,3.093 14.285,3.55 C14.606,4.004 14.961,4.617 15.399,5.375 L15.399,5.375 L15.418,5.408 L20.868,14.821 L20.887,14.854 C21.327,15.614 21.684,16.229 21.918,16.736 C22.154,17.245 22.321,17.756 22.266,18.285 C22.185,19.061 21.779,19.766 21.148,20.224 C20.718,20.537 20.192,20.648 19.633,20.699 C19.077,20.75 18.366,20.75 17.488,20.75 L6.512,20.75 C5.634,20.75 4.923,20.75 4.367,20.699 C3.808,20.648 3.282,20.537 2.852,20.224 C2.221,19.766 1.815,19.061 1.734,18.285 C1.679,17.756 1.846,17.245 2.082,16.736 C2.316,16.229 2.673,15.614 3.113,14.854 L3.132,14.821 L8.582,5.408 L8.601,5.375 C9.039,4.618 9.394,4.004 9.715,3.55 C10.039,3.093 10.398,2.695 10.883,2.479 C11.594,2.163 12.406,2.163 13.117,2.479 Z M7.107,15.203 L9.466,17.694 C10.554,18.842 12.487,18.072 12.487,16.49 L12.487,16.25 L15,16.25 C15.967,16.25 16.75,15.467 16.75,14.5 L16.75,13.5 C16.75,12.533 15.967,11.75 15,11.75 L12.487,11.75 L12.487,11.51 C12.487,9.928 10.554,9.158 9.466,10.306 L7.107,12.796 C6.468,13.471 6.468,14.529 7.107,15.203 Z M8.196,13.828 L10.555,11.338 C10.711,11.174 10.987,11.284 10.987,11.51 L10.987,12.5 C10.987,12.914 11.323,13.25 11.737,13.25 L15,13.25 C15.138,13.25 15.25,13.362 15.25,13.5 L15.25,14.5 C15.25,14.638 15.138,14.75 15,14.75 L11.737,14.75 C11.323,14.75 10.987,15.086 10.987,15.5 L10.987,16.49 C10.987,16.716 10.711,16.826 10.555,16.662 L8.196,14.172 C8.105,14.075 8.105,13.925 8.196,13.828 Z"/>
</svg>

