<svg xmlns="http://www.w3.org/2000/svg" viewBox="0 0 24 24">
  <defs/>
  <path fill="#151E28" d="M12,1.25 C17.937,1.25 22.75,6.063 22.75,12 C22.75,17.937 17.937,22.75 12,22.75 C6.063,22.75 1.25,17.937 1.25,12 C1.25,6.063 6.063,1.25 12,1.25 Z M8.25,15 C8.25,15.414 8.586,15.75 9,15.75 L9.232,15.75 C10.045,15.75 10.701,15.75 11.231,15.707 C11.778,15.662 12.258,15.568 12.703,15.341 C13.408,14.982 13.982,14.408 14.341,13.703 C14.568,13.258 14.662,12.778 14.707,12.231 C14.75,11.701 14.75,11.045 14.75,10.232 L14.75,9.811 L15.47,10.53 C15.763,10.823 16.237,10.823 16.53,10.53 C16.823,10.237 16.823,9.763 16.53,9.47 L14.53,7.47 C14.237,7.177 13.763,7.177 13.47,7.47 L11.47,9.47 C11.177,9.763 11.177,10.237 11.47,10.53 C11.763,10.823 12.237,10.823 12.53,10.53 L13.25,9.811 L13.25,10.2 C13.25,11.052 13.249,11.647 13.212,12.109 C13.175,12.563 13.105,12.824 13.005,13.021 C12.789,13.445 12.445,13.789 12.021,14.005 C11.824,14.105 11.563,14.175 11.109,14.212 C10.647,14.249 10.052,14.25 9.2,14.25 L9,14.25 C8.586,14.25 8.25,14.586 8.25,15 Z"/>
</svg>

