<svg xmlns="http://www.w3.org/2000/svg" viewBox="0 0 24 24">
  <defs/>
  <path fill="#151E28" d="M12,1.25 C17.937,1.25 22.75,6.063 22.75,12 C22.75,17.937 17.937,22.75 12,22.75 C6.063,22.75 1.25,17.937 1.25,12 C1.25,6.063 6.063,1.25 12,1.25 Z M8.25,14 C8.25,14.967 9.033,15.75 10,15.75 L13.476,15.75 C15.062,15.75 15.83,13.811 14.675,12.725 L14.563,12.619 L14.909,12.273 C15.592,11.59 15.592,10.481 14.909,9.798 L14.202,9.091 C13.519,8.408 12.41,8.408 11.727,9.091 L11.381,9.437 L11.275,9.325 C10.189,8.17 8.25,8.938 8.25,10.524 Z M10,14.25 C9.862,14.25 9.75,14.138 9.75,14 L9.75,10.524 C9.75,10.297 10.027,10.187 10.182,10.352 L10.818,11.028 C10.957,11.176 11.15,11.261 11.353,11.264 C11.556,11.268 11.751,11.188 11.894,11.045 L12.788,10.152 C12.885,10.054 13.044,10.054 13.141,10.152 L13.848,10.859 C13.946,10.956 13.946,11.115 13.848,11.212 L12.955,12.106 C12.812,12.249 12.733,12.444 12.736,12.647 C12.739,12.85 12.824,13.043 12.972,13.182 L13.648,13.818 C13.813,13.973 13.703,14.25 13.476,14.25 Z M13.848,6.97 C13.556,7.263 13.556,7.737 13.848,8.03 L15.97,10.152 C16.263,10.445 16.737,10.445 17.03,10.152 C17.323,9.859 17.323,9.384 17.03,9.091 L14.909,6.97 C14.616,6.677 14.141,6.677 13.848,6.97 Z"/>
</svg>

