<svg xmlns="http://www.w3.org/2000/svg" viewBox="0 0 24 24">
  <defs/>
  <path fill="#151E28" d="M14.325,5.25 C14.672,3.538 16.186,2.25 18,2.25 C20.071,2.25 21.75,3.929 21.75,6 C21.75,7.814 20.462,9.328 18.75,9.675 L18.75,14.325 C20.462,14.672 21.75,16.186 21.75,18 C21.75,20.071 20.071,21.75 18,21.75 C16.186,21.75 14.672,20.462 14.325,18.75 L9.675,18.75 C9.328,20.462 7.814,21.75 6,21.75 C3.929,21.75 2.25,20.071 2.25,18 C2.25,16.186 3.538,14.672 5.25,14.325 L5.25,9.675 C3.538,9.328 2.25,7.814 2.25,6 C2.25,3.929 3.929,2.25 6,2.25 C7.814,2.25 9.328,3.538 9.675,5.25 Z M9.675,17.25 L14.325,17.25 C14.623,15.781 15.781,14.623 17.25,14.325 L17.25,9.675 C15.781,9.377 14.623,8.219 14.325,6.75 L9.675,6.75 C9.377,8.219 8.219,9.377 6.75,9.675 L6.75,14.325 C8.219,14.623 9.377,15.781 9.675,17.25 Z"/>
</svg>

