<svg xmlns="http://www.w3.org/2000/svg" viewBox="0 0 24 24">
  <defs/>
  <path fill="#151E28" d="M12,2.25 C17.385,2.25 21.75,6.615 21.75,12 C21.75,17.385 17.385,21.75 12,21.75 C6.615,21.75 2.25,17.385 2.25,12 C2.25,6.615 6.615,2.25 12,2.25 Z M13.36,9.609 C12.959,9.381 12.495,9.25 12,9.25 C10.481,9.25 9.25,10.481 9.25,12 C9.25,13.519 10.481,14.75 12,14.75 C12.714,14.75 13.364,14.478 13.852,14.032 C14.263,14.474 14.849,14.75 15.5,14.75 C16.743,14.75 17.75,13.743 17.75,12.5 L17.75,12 C17.75,8.824 15.176,6.25 12,6.25 C8.824,6.25 6.25,8.824 6.25,12 C6.25,15.176 8.824,17.75 12,17.75 C12.917,17.75 13.785,17.535 14.556,17.152 C14.927,16.968 15.078,16.517 14.894,16.146 C14.71,15.776 14.259,15.624 13.888,15.809 C13.32,16.091 12.68,16.25 12,16.25 C9.653,16.25 7.75,14.347 7.75,12 C7.75,9.653 9.653,7.75 12,7.75 C14.347,7.75 16.25,9.653 16.25,12 L16.25,12.5 C16.25,12.914 15.914,13.25 15.5,13.25 C15.086,13.25 14.75,12.914 14.75,12.5 L14.75,10 C14.75,9.586 14.414,9.25 14,9.25 C13.729,9.25 13.492,9.394 13.36,9.609 Z M12,10.75 C12.69,10.75 13.25,11.31 13.25,12 C13.25,12.69 12.69,13.25 12,13.25 C11.31,13.25 10.75,12.69 10.75,12 C10.75,11.31 11.31,10.75 12,10.75 Z"/>
</svg>

