<svg xmlns="http://www.w3.org/2000/svg" viewBox="0 0 24 24">
  <defs/>
  <path fill="#151E28" d="M9.326,2.25 L14.675,2.25 L14.747,2.25 C15.166,2.25 15.495,2.25 15.814,2.326 C16.094,2.393 16.362,2.505 16.608,2.655 C16.888,2.826 17.121,3.06 17.416,3.356 L17.468,3.407 L20.593,6.532 L20.644,6.584 C20.941,6.88 21.174,7.112 21.345,7.392 C21.496,7.638 21.607,7.906 21.674,8.187 C21.75,8.505 21.75,8.834 21.75,9.252 L21.75,14.748 C21.75,15.166 21.75,15.495 21.674,15.814 C21.607,16.094 21.496,16.362 21.345,16.608 C21.174,16.888 20.941,17.121 20.644,17.416 L20.593,17.468 L17.468,20.593 L17.416,20.644 C17.121,20.941 16.888,21.174 16.608,21.345 C16.362,21.496 16.094,21.607 15.814,21.674 C15.495,21.75 15.166,21.75 14.748,21.75 L9.252,21.75 C8.834,21.75 8.505,21.75 8.187,21.674 C7.906,21.607 7.638,21.496 7.392,21.345 C7.112,21.174 6.88,20.941 6.584,20.644 L6.532,20.593 L3.407,17.468 L3.356,17.416 C3.06,17.121 2.826,16.888 2.655,16.608 C2.505,16.362 2.393,16.094 2.326,15.814 C2.25,15.495 2.25,15.166 2.25,14.747 L2.25,14.675 L2.25,9.326 L2.25,9.253 C2.25,8.834 2.25,8.505 2.326,8.187 C2.393,7.906 2.505,7.638 2.655,7.392 C2.826,7.112 3.06,6.88 3.356,6.584 L3.407,6.532 L6.532,3.407 L6.584,3.356 C6.88,3.06 7.112,2.826 7.392,2.655 C7.638,2.505 7.906,2.393 8.187,2.326 C8.505,2.25 8.834,2.25 9.253,2.25 Z M13.36,9.609 C12.959,9.381 12.495,9.25 12,9.25 C10.481,9.25 9.25,10.481 9.25,12 C9.25,13.519 10.481,14.75 12,14.75 C12.714,14.75 13.364,14.478 13.852,14.032 C14.263,14.474 14.849,14.75 15.5,14.75 C16.743,14.75 17.75,13.743 17.75,12.5 L17.75,12 C17.75,8.824 15.176,6.25 12,6.25 C8.824,6.25 6.25,8.824 6.25,12 C6.25,15.176 8.824,17.75 12,17.75 C12.917,17.75 13.785,17.535 14.556,17.152 C14.927,16.968 15.078,16.517 14.894,16.146 C14.71,15.776 14.259,15.624 13.888,15.809 C13.32,16.091 12.68,16.25 12,16.25 C9.653,16.25 7.75,14.347 7.75,12 C7.75,9.653 9.653,7.75 12,7.75 C14.347,7.75 16.25,9.653 16.25,12 L16.25,12.5 C16.25,12.914 15.914,13.25 15.5,13.25 C15.086,13.25 14.75,12.914 14.75,12.5 L14.75,10 C14.75,9.586 14.414,9.25 14,9.25 C13.729,9.25 13.492,9.394 13.36,9.609 Z M12,10.75 C12.69,10.75 13.25,11.31 13.25,12 C13.25,12.69 12.69,13.25 12,13.25 C11.31,13.25 10.75,12.69 10.75,12 C10.75,11.31 11.31,10.75 12,10.75 Z"/>
</svg>

