<svg xmlns="http://www.w3.org/2000/svg" viewBox="0 0 24 24">
  <defs/>
  <path fill="#151E28" d="M13.117,2.479 C13.602,2.695 13.961,3.093 14.285,3.55 C14.606,4.004 14.961,4.617 15.399,5.375 L15.418,5.408 L20.868,14.821 L20.887,14.854 C21.327,15.614 21.684,16.229 21.918,16.736 C22.154,17.245 22.321,17.756 22.266,18.285 C22.185,19.061 21.779,19.766 21.148,20.224 C20.718,20.537 20.192,20.648 19.633,20.699 C19.077,20.75 18.366,20.75 17.488,20.75 L6.512,20.75 C5.634,20.75 4.923,20.75 4.367,20.699 C3.808,20.648 3.282,20.537 2.852,20.224 C2.221,19.766 1.815,19.061 1.734,18.285 C1.679,17.756 1.846,17.245 2.082,16.736 C2.316,16.229 2.673,15.614 3.113,14.854 L3.132,14.821 L8.582,5.408 L8.601,5.375 C9.039,4.618 9.394,4.004 9.715,3.55 C10.039,3.093 10.398,2.695 10.883,2.479 C11.594,2.163 12.406,2.163 13.117,2.479 Z M12.97,11.969 C12.676,11.829 12.347,11.75 12,11.75 C10.757,11.75 9.75,12.757 9.75,14 C9.75,15.243 10.757,16.25 12,16.25 C12.539,16.25 13.033,16.06 13.421,15.745 C13.774,16.059 14.24,16.25 14.75,16.25 C15.854,16.25 16.75,15.355 16.75,14.25 L16.75,14.017 L16.75,14 C16.75,11.377 14.623,9.25 12,9.25 C9.377,9.25 7.25,11.377 7.25,14 C7.25,16.623 9.377,18.75 12,18.75 C12.757,18.75 13.475,18.572 14.112,18.256 C14.483,18.072 14.634,17.621 14.449,17.25 C14.265,16.879 13.815,16.728 13.444,16.913 C13.01,17.128 12.52,17.25 12,17.25 C10.205,17.25 8.75,15.795 8.75,14 C8.75,12.205 10.205,10.75 12,10.75 C13.79,10.75 15.242,12.197 15.25,13.985 L15.25,14 L15.25,14.25 C15.25,14.526 15.026,14.75 14.75,14.75 C14.474,14.75 14.25,14.526 14.25,14.25 L14.25,12.5 C14.25,12.086 13.914,11.75 13.5,11.75 C13.293,11.75 13.106,11.834 12.97,11.969 Z M12,13.25 C12.414,13.25 12.75,13.586 12.75,14 C12.75,14.414 12.414,14.75 12,14.75 C11.586,14.75 11.25,14.414 11.25,14 C11.25,13.586 11.586,13.25 12,13.25 Z"/>
</svg>

