<svg xmlns="http://www.w3.org/2000/svg" viewBox="0 0 24 24">
  <defs/>
  <path fill="#151E28" d="M15.75,6.263 C16.046,6.27 16.317,6.282 16.566,6.302 C17.239,6.356 17.811,6.467 18.341,6.723 C19.203,7.139 19.919,7.805 20.395,8.635 C20.688,9.145 20.84,9.708 20.941,10.376 C21.04,11.028 21.098,11.839 21.17,12.859 L21.173,12.891 L21.258,14.091 L21.261,14.125 L21.261,14.127 C21.344,15.289 21.41,16.207 21.4,16.949 C21.391,17.706 21.304,18.35 21.039,18.943 C20.61,19.9 19.875,20.689 18.951,21.185 C18.378,21.492 17.742,21.625 16.987,21.688 C16.248,21.75 15.326,21.75 14.161,21.75 L9.839,21.75 C8.674,21.75 7.752,21.75 7.013,21.688 C6.258,21.625 5.622,21.492 5.049,21.185 C4.125,20.689 3.391,19.9 2.961,18.943 C2.696,18.35 2.609,17.706 2.6,16.949 C2.59,16.207 2.656,15.287 2.739,14.125 L2.739,14.125 L2.742,14.091 L2.827,12.891 L2.83,12.859 C2.903,11.839 2.96,11.028 3.059,10.376 C3.16,9.708 3.312,9.145 3.605,8.635 C4.082,7.805 4.797,7.139 5.659,6.723 C6.189,6.467 6.761,6.356 7.435,6.302 C7.683,6.282 7.954,6.27 8.25,6.263 L8.25,6 C8.25,3.929 9.929,2.25 12,2.25 C14.071,2.25 15.75,3.929 15.75,6 Z M9.75,11 C9.75,10.586 9.414,10.25 9,10.25 C8.586,10.25 8.25,10.586 8.25,11 C8.25,13.071 9.929,14.75 12,14.75 C14.071,14.75 15.75,13.071 15.75,11 C15.75,10.586 15.415,10.25 15,10.25 C14.586,10.25 14.25,10.586 14.25,11 C14.25,12.243 13.243,13.25 12,13.25 C10.758,13.25 9.75,12.243 9.75,11 Z M9.75,6.25 L14.073,6.25 C14.132,6.25 14.192,6.25 14.25,6.25 L14.25,6 C14.25,4.757 13.243,3.75 12,3.75 C10.758,3.75 9.75,4.757 9.75,6 Z"/>
</svg>

