<svg xmlns="http://www.w3.org/2000/svg" viewBox="0 0 24 24">
  <defs/>
  <path fill="#151E28" d="M11.022,2.25 L12.977,2.25 C14.016,2.25 14.839,2.25 15.506,2.303 C16.188,2.358 16.767,2.471 17.302,2.732 C18.17,3.157 18.889,3.837 19.361,4.681 C19.652,5.2 19.797,5.772 19.889,6.45 C19.979,7.112 20.025,7.935 20.083,8.971 L20.083,8.971 L20.084,9.003 L20.373,14.203 L20.375,14.237 C20.439,15.384 20.489,16.292 20.469,17.024 C20.448,17.772 20.353,18.407 20.084,18.99 C19.649,19.934 18.916,20.709 17.998,21.196 C17.43,21.497 16.802,21.627 16.056,21.689 C15.326,21.75 14.417,21.75 13.268,21.75 L10.731,21.75 C9.582,21.75 8.673,21.75 7.943,21.689 C7.198,21.627 6.569,21.497 6.001,21.196 C5.084,20.709 4.351,19.934 3.915,18.99 C3.646,18.407 3.551,17.772 3.53,17.024 C3.51,16.292 3.561,15.384 3.624,14.237 L3.626,14.203 L3.915,9.003 L3.917,8.971 C3.974,7.935 4.02,7.113 4.11,6.45 C4.202,5.772 4.348,5.2 4.638,4.681 C5.111,3.837 5.829,3.157 6.698,2.732 C7.233,2.471 7.812,2.358 8.494,2.303 C9.16,2.25 9.984,2.25 11.022,2.25 Z M9,6.25 C8.586,6.25 8.25,6.586 8.25,7 L8.25,9 C8.25,11.071 9.929,12.75 12,12.75 C14.071,12.75 15.75,11.071 15.75,9 L15.75,7 C15.75,6.586 15.414,6.25 15,6.25 C14.586,6.25 14.25,6.586 14.25,7 L14.25,9 C14.25,10.243 13.243,11.25 12,11.25 C10.757,11.25 9.75,10.243 9.75,9 L9.75,7 C9.75,6.586 9.414,6.25 9,6.25 Z"/>
</svg>

