<svg xmlns="http://www.w3.org/2000/svg" viewBox="0 0 24 24">
  <defs/>
  <path fill="#151E28" d="M13.295,1.744 C13.324,1.664 13.366,1.59 13.42,1.525 C13.491,1.438 13.578,1.371 13.673,1.325 C13.758,1.284 13.851,1.258 13.949,1.252 C14.062,1.244 14.178,1.262 14.287,1.307 C14.347,1.332 14.404,1.365 14.455,1.404 L18.25,4.25 L20.114,4.25 C22.034,4.25 23.363,6.168 22.689,7.966 L21.212,11.905 C20.906,12.719 20.75,13.581 20.75,14.451 L20.75,21 C20.75,21.966 19.966,22.75 19,22.75 L16.82,22.75 C15.986,22.75 15.267,22.161 15.104,21.343 L14.248,17.062 L14.034,19.193 L14.032,19.222 C13.983,19.706 13.943,20.113 13.883,20.444 C13.821,20.792 13.729,21.115 13.547,21.416 C13.267,21.882 12.856,22.254 12.365,22.487 C12.046,22.637 11.716,22.696 11.364,22.724 C11.028,22.75 10.62,22.75 10.133,22.75 L9.867,22.75 C9.38,22.75 8.972,22.75 8.636,22.724 C8.284,22.696 7.954,22.637 7.635,22.487 C7.144,22.254 6.733,21.882 6.453,21.416 C6.271,21.115 6.179,20.792 6.117,20.444 C6.058,20.113 6.017,19.706 5.968,19.222 L5.966,19.193 L5.254,12.075 C5.251,12.05 5.25,12.025 5.25,12 L5.25,2 C5.25,1.586 5.586,1.25 6,1.25 C6.414,1.25 6.75,1.586 6.75,2 L6.75,9.597 C6.75,10.335 7.001,11.051 7.462,11.627 C8.763,13.253 11.237,13.253 12.538,11.627 C12.999,11.051 13.25,10.335 13.25,9.597 L13.25,2 C13.25,1.91 13.266,1.824 13.295,1.744 Z M14.75,3.5 L14.75,10.189 L14.903,10.036 C15.832,9.107 16.491,7.943 16.81,6.668 L17.152,5.301 Z"/>
</svg>

