<svg xmlns="http://www.w3.org/2000/svg" viewBox="0 0 24 24">
  <defs/>
  <path fill="#151E28" d="M9,21.75 L4,21.75 C3.033,21.75 2.25,20.966 2.25,20 L2.25,19.5 C2.25,18.518 3.037,17.791 3.927,17.705 C6.935,17.416 9.851,15.744 11.817,13.356 C11.555,13.147 11.258,13.002 10.917,12.941 C10.352,12.842 9.536,12.953 8.386,13.643 C8.031,13.856 7.57,13.741 7.357,13.386 C7.144,13.031 7.259,12.57 7.614,12.357 C8.965,11.547 10.149,11.283 11.178,11.464 C12.21,11.646 12.953,12.253 13.467,12.914 C13.958,13.545 14.267,14.258 14.456,14.809 C14.997,14.506 15.765,14.154 16.627,14.01 C17.367,13.887 18.202,13.914 19.014,14.281 C19.057,14.294 19.1,14.311 19.142,14.332 C19.177,14.35 19.211,14.371 19.242,14.394 C19.315,14.433 19.388,14.475 19.46,14.52 C20.402,15.109 21.175,16.154 21.712,17.763 C21.843,18.156 21.63,18.58 21.237,18.712 C20.844,18.843 20.42,18.63 20.289,18.237 C19.93,17.162 19.49,16.497 19.051,16.089 C16.991,19.482 13.261,21.75 9,21.75 Z M15.75,5 C15.75,5.2 15.769,5.471 15.794,5.828 L15.794,5.828 L15.811,6.071 C15.842,6.533 15.875,7.082 15.875,7.664 C15.875,8.812 15.75,10.177 15.171,11.335 C14.986,11.706 14.535,11.856 14.165,11.671 C13.794,11.486 13.644,11.035 13.829,10.665 C14.25,9.823 14.375,8.741 14.375,7.664 C14.375,7.135 14.345,6.627 14.314,6.173 C14.309,6.1 14.304,6.026 14.299,5.954 L14.299,5.953 C14.274,5.596 14.25,5.257 14.25,5 C14.25,3.481 15.481,2.25 17,2.25 C18.121,2.25 18.904,2.961 19.417,3.8 C19.927,4.635 20.253,5.717 20.462,6.782 C20.88,8.906 20.885,11.249 20.74,12.123 C20.672,12.532 20.285,12.808 19.877,12.74 C19.468,12.672 19.192,12.285 19.26,11.877 C19.369,11.222 19.383,9.066 18.99,7.071 C18.795,6.078 18.512,5.196 18.137,4.582 C17.764,3.972 17.387,3.75 17,3.75 C16.31,3.75 15.75,4.31 15.75,5 Z"/>
</svg>

