<svg xmlns="http://www.w3.org/2000/svg" viewBox="0 0 24 24">
  <defs/>
  <path fill="#151E28" d="M6.768,5.25 L15.232,5.25 C16.045,5.25 16.701,5.25 17.232,5.293 C17.778,5.338 18.258,5.432 18.702,5.659 C19.408,6.018 19.982,6.592 20.341,7.298 C20.568,7.742 20.662,8.222 20.707,8.769 C20.75,9.299 20.75,9.955 20.75,10.768 L20.75,13.232 C20.75,14.045 20.75,14.701 20.707,15.231 C20.662,15.778 20.568,16.258 20.341,16.702 C19.982,17.408 19.408,17.982 18.702,18.341 C18.258,18.568 17.778,18.662 17.232,18.707 C16.701,18.75 16.045,18.75 15.232,18.75 L6.768,18.75 C5.955,18.75 5.299,18.75 4.769,18.707 C4.222,18.662 3.742,18.568 3.298,18.341 C2.592,17.982 2.018,17.408 1.659,16.702 C1.432,16.258 1.338,15.778 1.293,15.231 C1.25,14.701 1.25,14.045 1.25,13.232 L1.25,10.768 C1.25,9.955 1.25,9.299 1.293,8.769 C1.338,8.222 1.432,7.742 1.659,7.298 C2.018,6.592 2.592,6.018 3.298,5.659 C3.742,5.432 4.222,5.338 4.769,5.293 C5.299,5.25 5.955,5.25 6.768,5.25 Z M11.335,7.329 C10.965,7.144 10.514,7.294 10.329,7.665 L8.329,11.665 C8.213,11.897 8.225,12.173 8.362,12.394 C8.499,12.615 8.74,12.75 9,12.75 L11.786,12.75 L10.329,15.665 C10.144,16.035 10.294,16.486 10.665,16.671 C11.035,16.856 11.486,16.706 11.671,16.335 L13.671,12.335 C13.787,12.103 13.775,11.827 13.638,11.606 C13.501,11.385 13.26,11.25 13,11.25 L10.214,11.25 L11.671,8.335 C11.856,7.965 11.706,7.514 11.335,7.329 Z M22.5,8.25 C22.914,8.25 23.25,8.586 23.25,9 L23.25,15 C23.25,15.414 22.914,15.75 22.5,15.75 C22.086,15.75 21.75,15.414 21.75,15 L21.75,9 C21.75,8.586 22.086,8.25 22.5,8.25 Z"/>
</svg>

