<svg xmlns="http://www.w3.org/2000/svg" viewBox="0 0 24 24">
  <defs/>
  <path fill="#151E28" d="M4.25,9 C4.25,4.72 7.72,1.25 12,1.25 C16.28,1.25 19.75,4.72 19.75,9 C19.75,11.378 20.22,12.448 20.647,13.175 C20.723,13.305 20.809,13.437 20.897,13.573 L20.897,13.573 C21.293,14.184 21.75,14.889 21.75,16 C21.75,17.519 20.519,18.75 19,18.75 L5,18.75 C3.481,18.75 2.25,17.519 2.25,16 C2.25,14.889 2.707,14.184 3.103,13.573 C3.191,13.437 3.277,13.305 3.353,13.175 C3.78,12.448 4.25,11.378 4.25,9 Z M10.47,13.53 C10.763,13.823 11.237,13.823 11.53,13.53 L15.53,9.53 C15.823,9.237 15.823,8.763 15.53,8.47 C15.237,8.177 14.763,8.177 14.47,8.47 L11,11.939 L9.53,10.47 C9.237,10.177 8.763,10.177 8.47,10.47 C8.177,10.763 8.177,11.237 8.47,11.53 Z M8.921,19.293 C9.311,19.155 9.74,19.36 9.878,19.75 C10.187,20.625 11.022,21.25 12,21.25 C12.979,21.25 13.813,20.625 14.122,19.75 C14.26,19.36 14.689,19.155 15.079,19.293 C15.47,19.431 15.675,19.859 15.537,20.25 C15.022,21.705 13.634,22.75 12,22.75 C10.366,22.75 8.978,21.705 8.464,20.25 C8.326,19.859 8.53,19.431 8.921,19.293 Z"/>
</svg>

