<svg xmlns="http://www.w3.org/2000/svg" viewBox="0 0 24 24">
  <defs/>
  <path fill="#151E28" d="M14.307,2.424 L19.307,5.202 C20.815,6.04 21.75,7.629 21.75,9.354 L21.75,14.647 C21.75,16.372 20.815,17.961 19.307,18.799 L14.307,21.577 C12.872,22.374 11.128,22.374 9.693,21.577 L4.693,18.799 C3.185,17.961 2.25,16.372 2.25,14.647 L2.25,9.354 C2.25,7.629 3.185,6.04 4.693,5.202 L9.693,2.424 C11.128,1.627 12.872,1.627 14.307,2.424 Z M9,11.8 L9,12.2 C9,13.747 10.254,15 11.8,15 L12.2,15 C13.746,15 15,13.747 15,12.2 L15,11.8 C15,10.254 13.746,9 12.2,9 L11.8,9 C10.254,9 9,10.254 9,11.8 Z"/>
</svg>

