<svg xmlns="http://www.w3.org/2000/svg" viewBox="0 0 24 24">
  <defs/>
  <path fill="#151E28" d="M9.768,2.25 L14.232,2.25 C15.045,2.25 15.701,2.25 16.232,2.293 C16.778,2.338 17.258,2.432 17.702,2.659 C18.408,3.018 18.982,3.592 19.341,4.298 C19.568,4.742 19.662,5.222 19.707,5.769 C19.75,6.299 19.75,6.955 19.75,7.768 L19.75,18.926 C19.75,19.398 19.75,19.804 19.721,20.123 C19.692,20.441 19.625,20.815 19.385,21.126 C19.068,21.537 18.584,21.786 18.065,21.806 C17.672,21.82 17.329,21.657 17.054,21.496 C16.777,21.334 16.447,21.098 16.063,20.823 L16.062,20.823 L16.034,20.803 L13.424,18.939 C12.703,18.424 12.502,18.295 12.307,18.246 C12.106,18.195 11.894,18.195 11.693,18.246 C11.498,18.295 11.297,18.424 10.576,18.939 L7.966,20.803 L7.937,20.823 L7.937,20.824 C7.553,21.098 7.223,21.334 6.946,21.496 C6.671,21.657 6.328,21.82 5.935,21.806 C5.416,21.786 4.932,21.537 4.615,21.126 C4.375,20.815 4.308,20.441 4.279,20.123 C4.25,19.804 4.25,19.398 4.25,18.926 L4.25,7.768 C4.25,6.955 4.25,6.299 4.293,5.769 C4.338,5.222 4.432,4.742 4.659,4.298 C5.018,3.592 5.592,3.018 6.298,2.659 C6.742,2.432 7.222,2.338 7.769,2.293 C8.299,2.25 8.955,2.25 9.768,2.25 L9.768,2.25 Z"/>
</svg>

