<svg xmlns="http://www.w3.org/2000/svg" viewBox="0 0 24 24">
  <defs/>
  <path fill="#151E28" d="M8.768,3.25 L13.232,3.25 C14.045,3.25 14.701,3.25 15.231,3.293 C15.778,3.338 16.258,3.432 16.702,3.659 C17.408,4.018 17.982,4.592 18.341,5.298 C18.568,5.742 18.662,6.222 18.707,6.769 C18.75,7.299 18.75,7.955 18.75,8.768 L18.75,19.926 C18.75,20.398 18.75,20.804 18.721,21.123 C18.692,21.441 18.625,21.815 18.385,22.126 C18.068,22.537 17.584,22.786 17.065,22.806 C16.672,22.82 16.329,22.657 16.054,22.496 C15.777,22.334 15.447,22.098 15.063,21.823 L15.062,21.823 L15.034,21.803 L12.424,19.939 C11.703,19.424 11.502,19.295 11.307,19.246 C11.106,19.195 10.894,19.195 10.693,19.246 C10.498,19.295 10.297,19.424 9.576,19.939 L6.966,21.803 L6.937,21.823 L6.937,21.824 L6.937,21.824 C6.553,22.098 6.223,22.334 5.946,22.496 C5.671,22.657 5.328,22.82 4.935,22.806 C4.416,22.786 3.932,22.537 3.615,22.126 C3.375,21.815 3.308,21.441 3.279,21.123 C3.25,20.804 3.25,20.398 3.25,19.926 L3.25,8.768 C3.25,7.955 3.25,7.299 3.293,6.769 C3.338,6.222 3.432,5.742 3.659,5.298 C4.018,4.592 4.592,4.018 5.298,3.659 C5.742,3.432 6.222,3.338 6.769,3.293 C7.299,3.25 7.955,3.25 8.768,3.25 Z M16.2,1.75 L9,1.75 C8.586,1.75 8.25,1.414 8.25,1 C8.25,0.586 8.586,0.25 9,0.25 L16.2,0.25 L16.232,0.25 C17.045,0.25 17.701,0.25 18.232,0.293 C18.778,0.338 19.258,0.432 19.702,0.659 C20.408,1.018 20.982,1.592 21.341,2.298 C21.568,2.742 21.662,3.222 21.707,3.769 C21.75,4.299 21.75,4.955 21.75,5.768 L21.75,19 C21.75,19.414 21.414,19.75 21,19.75 C20.586,19.75 20.25,19.414 20.25,19 L20.25,5.8 C20.25,4.948 20.249,4.353 20.212,3.891 C20.174,3.437 20.105,3.176 20.005,2.979 C19.789,2.555 19.445,2.211 19.021,1.995 C18.824,1.895 18.563,1.825 18.109,1.788 C17.647,1.751 17.052,1.75 16.2,1.75 Z"/>
</svg>

