<svg xmlns="http://www.w3.org/2000/svg" viewBox="0 0 24 24">
  <defs/>
  <path fill="#151E28" d="M12.75,19.984 L12.75,4.846 L13.892,4.338 C15.507,3.621 17.254,3.25 19.021,3.25 C20.528,3.25 21.75,4.472 21.75,5.98 L21.75,16.021 C21.75,17.528 20.528,18.75 19.021,18.75 C17.464,18.75 15.924,19.077 14.501,19.709 L12.75,20.487 L12.75,19.984 Z M11.25,18.846 L11.25,20.487 L9.499,19.709 C8.076,19.077 6.536,18.75 4.98,18.75 C3.472,18.75 2.25,17.528 2.25,16.021 L2.25,5.98 C2.25,4.472 3.472,3.25 4.98,3.25 C6.746,3.25 8.493,3.621 10.108,4.338 L11.25,4.846 L11.25,18.846 Z"/>
</svg>

