<svg xmlns="http://www.w3.org/2000/svg" viewBox="0 0 24 24">
  <defs/>
  <path fill="#151E28" d="M1.47,1.47 C1.763,1.177 2.237,1.177 2.53,1.47 L22.53,21.47 C22.823,21.763 22.823,22.237 22.53,22.53 C22.237,22.823 21.763,22.823 21.47,22.53 L19.617,20.677 C19.567,20.832 19.494,20.985 19.385,21.126 C19.068,21.537 18.584,21.786 18.065,21.806 C17.672,21.82 17.329,21.657 17.054,21.496 C16.777,21.334 16.447,21.098 16.063,20.823 L16.034,20.803 L13.424,18.939 C12.703,18.424 12.502,18.295 12.307,18.246 C12.106,18.195 11.894,18.195 11.693,18.246 C11.498,18.295 11.297,18.424 10.576,18.939 L7.966,20.803 L7.937,20.823 C7.553,21.098 7.223,21.334 6.946,21.496 C6.671,21.657 6.328,21.82 5.935,21.806 C5.416,21.786 4.932,21.537 4.615,21.126 C4.375,20.815 4.308,20.441 4.279,20.123 C4.25,19.804 4.25,19.398 4.25,18.926 L4.25,7.74 C4.25,6.757 4.25,5.996 4.334,5.396 L4.334,5.395 L1.47,2.53 C1.177,2.237 1.177,1.763 1.47,1.47 Z M9.74,2.25 L14.232,2.25 C15.045,2.25 15.701,2.25 16.232,2.293 C16.778,2.338 17.258,2.432 17.702,2.659 C18.408,3.018 18.982,3.592 19.341,4.298 C19.568,4.742 19.662,5.222 19.707,5.769 C19.75,6.299 19.75,6.955 19.75,7.768 L19.75,15 C19.75,15.414 19.414,15.75 19,15.75 C18.586,15.75 18.25,15.414 18.25,15 L18.25,7.8 C18.25,6.948 18.249,6.353 18.212,5.891 C18.174,5.437 18.105,5.176 18.005,4.979 C17.789,4.555 17.445,4.211 17.021,3.995 C16.824,3.895 16.563,3.825 16.109,3.788 C15.647,3.751 15.052,3.75 14.2,3.75 L9.8,3.75 C8.741,3.75 8.087,3.752 7.604,3.819 C7.194,3.877 6.815,3.591 6.757,3.181 C6.7,2.77 6.986,2.391 7.396,2.334 C7.996,2.25 8.757,2.25 9.74,2.25 Z"/>
</svg>

