<svg xmlns="http://www.w3.org/2000/svg" viewBox="0 0 24 24">
  <defs/>
  <path fill="#151E28" d="M8.18,2.25 L8.306,2.25 L15.694,2.25 L15.82,2.25 C16.525,2.249 17.077,2.249 17.565,2.441 C17.993,2.609 18.373,2.883 18.668,3.236 C19.005,3.639 19.179,4.163 19.401,4.831 L19.441,4.951 L20.706,8.747 C20.721,8.788 20.733,8.832 20.74,8.877 C20.748,8.924 20.751,8.971 20.75,9.018 L20.75,17.831 C20.75,18.365 20.75,18.811 20.72,19.175 C20.689,19.555 20.622,19.911 20.45,20.249 C20.187,20.766 19.766,21.187 19.248,21.45 C18.911,21.622 18.555,21.689 18.175,21.72 C17.81,21.75 17.365,21.75 16.83,21.75 L7.169,21.75 C6.635,21.75 6.19,21.75 5.825,21.72 C5.445,21.689 5.089,21.622 4.751,21.45 C4.234,21.187 3.813,20.766 3.55,20.249 C3.378,19.911 3.311,19.555 3.28,19.175 C3.25,18.811 3.25,18.365 3.25,17.831 L3.25,9.017 C3.249,8.973 3.252,8.928 3.259,8.883 C3.267,8.835 3.278,8.79 3.294,8.746 L4.559,4.951 L4.599,4.831 C4.821,4.162 4.995,3.639 5.332,3.236 C5.627,2.883 6.007,2.609 6.435,2.441 C6.923,2.249 7.476,2.249 8.18,2.25 Z M11.25,3.75 L8.306,3.75 C7.413,3.75 7.173,3.763 6.984,3.837 C6.789,3.913 6.617,4.038 6.483,4.198 C6.353,4.354 6.265,4.578 5.982,5.425 L5.041,8.25 L11.25,8.25 Z M12.75,8.25 L18.959,8.25 L18.018,5.425 C17.735,4.578 17.647,4.354 17.517,4.198 C17.383,4.038 17.211,3.913 17.016,3.837 C16.828,3.763 16.587,3.75 15.694,3.75 L12.75,3.75 Z"/>
</svg>

