<svg xmlns="http://www.w3.org/2000/svg" viewBox="0 0 24 24">
  <defs/>
  <path fill="#151E28" d="M8.306,2.25 L10.984,2.25 C10.994,2.25 11.004,2.25 11.014,2.25 L12.986,2.25 C12.996,2.25 13.006,2.25 13.016,2.25 L15.694,2.25 L15.82,2.25 C16.525,2.249 17.077,2.249 17.565,2.441 C17.993,2.609 18.373,2.883 18.668,3.236 C19.005,3.639 19.179,4.163 19.401,4.831 L19.441,4.951 L20.705,8.742 C20.724,8.795 20.737,8.85 20.744,8.908 C20.749,8.944 20.751,8.98 20.75,9.016 L20.75,17.83 C20.75,18.365 20.75,18.81 20.72,19.175 C20.689,19.555 20.622,19.911 20.45,20.248 C20.187,20.766 19.766,21.187 19.249,21.45 C18.911,21.622 18.555,21.689 18.175,21.72 C17.81,21.75 17.365,21.75 16.831,21.75 L7.169,21.75 C6.635,21.75 6.19,21.75 5.825,21.72 C5.445,21.689 5.089,21.622 4.752,21.45 C4.234,21.187 3.813,20.766 3.55,20.248 C3.378,19.911 3.311,19.555 3.28,19.175 C3.25,18.81 3.25,18.365 3.25,17.83 L3.25,9.019 C3.249,8.973 3.252,8.926 3.26,8.879 C3.267,8.833 3.279,8.788 3.295,8.745 L4.559,4.951 L4.599,4.831 C4.821,4.162 4.995,3.639 5.332,3.236 C5.627,2.883 6.007,2.609 6.435,2.441 C6.923,2.249 7.476,2.249 8.18,2.25 Z M10.115,3.75 L8.306,3.75 C7.413,3.75 7.173,3.763 6.984,3.837 C6.789,3.913 6.617,4.038 6.483,4.198 C6.353,4.354 6.265,4.578 5.982,5.425 L5.041,8.25 L9.365,8.25 L9.26,8.876 C9.254,8.917 9.25,8.958 9.25,9 L9.25,9 L9.25,9 L9.25,14 C9.25,14.966 10.034,15.75 11,15.75 L13,15.75 C13.967,15.75 14.75,14.966 14.75,14 L14.75,9 C14.75,8.958 14.747,8.917 14.74,8.876 L14.635,8.25 L18.959,8.25 L18.018,5.425 C17.735,4.578 17.647,4.354 17.517,4.198 C17.383,4.038 17.211,3.913 17.016,3.837 C16.828,3.763 16.587,3.75 15.694,3.75 L13.885,3.75 L14.635,8.25 L13.115,8.25 L13.24,9 L13.25,9 L13.25,14 C13.25,14.138 13.138,14.25 13,14.25 L11,14.25 C10.862,14.25 10.75,14.138 10.75,14 L10.75,9 L10.76,9 L10.885,8.25 L9.365,8.25 Z M12.365,3.75 L11.635,3.75 L10.885,8.25 L13.115,8.25 Z"/>
</svg>

