<svg xmlns="http://www.w3.org/2000/svg" viewBox="0 0 24 24">
  <defs/>
  <path fill="#151E28" d="M12,2.25 C17.385,2.25 21.75,6.615 21.75,12 C21.75,17.385 17.385,21.75 12,21.75 C6.615,21.75 2.25,17.385 2.25,12 C2.25,6.615 6.615,2.25 12,2.25 Z M13.25,8 C13.25,8.414 13.586,8.75 14,8.75 C14.69,8.75 15.25,9.31 15.25,10 L15.25,14 C15.25,14.69 14.69,15.25 14,15.25 C13.586,15.25 13.25,15.586 13.25,16 C13.25,16.414 13.586,16.75 14,16.75 C15.519,16.75 16.75,15.519 16.75,14 L16.75,10 C16.75,8.481 15.519,7.25 14,7.25 C13.586,7.25 13.25,7.586 13.25,8 Z M7.25,10 L7.25,14 C7.25,15.519 8.481,16.75 10,16.75 C10.414,16.75 10.75,16.414 10.75,16 C10.75,15.586 10.414,15.25 10,15.25 C9.31,15.25 8.75,14.69 8.75,14 L8.75,10 C8.75,9.31 9.31,8.75 10,8.75 C10.414,8.75 10.75,8.414 10.75,8 C10.75,7.586 10.414,7.25 10,7.25 C8.481,7.25 7.25,8.481 7.25,10 Z"/>
</svg>

