<svg xmlns="http://www.w3.org/2000/svg" viewBox="0 0 24 24">
  <defs/>
  <path fill="#151E28" d="M13.117,2.479 C13.602,2.695 13.961,3.093 14.285,3.55 C14.606,4.004 14.961,4.617 15.399,5.375 L15.399,5.375 L15.418,5.408 L20.868,14.821 L20.887,14.854 C21.327,15.614 21.684,16.229 21.918,16.736 C22.154,17.245 22.321,17.756 22.266,18.285 C22.185,19.061 21.779,19.766 21.148,20.224 C20.718,20.537 20.192,20.648 19.633,20.699 C19.077,20.75 18.366,20.75 17.488,20.75 L6.512,20.75 C5.634,20.75 4.923,20.75 4.367,20.699 C3.808,20.648 3.282,20.537 2.852,20.224 C2.221,19.766 1.815,19.061 1.734,18.285 C1.679,17.756 1.846,17.245 2.082,16.736 C2.316,16.229 2.673,15.614 3.113,14.854 L3.132,14.821 L8.582,5.408 L8.601,5.375 C9.039,4.618 9.394,4.004 9.715,3.55 C10.039,3.093 10.398,2.695 10.883,2.479 C11.594,2.163 12.406,2.163 13.117,2.479 Z M8.967,12 L8.967,12.937 L8.723,13.103 C8.092,13.532 8.092,14.467 8.723,14.897 L8.967,15.063 L8.967,16 C8.967,16.951 9.725,17.75 10.695,17.75 C11.109,17.75 11.445,17.414 11.445,17 C11.445,16.586 11.109,16.25 10.695,16.25 C10.584,16.25 10.467,16.153 10.467,16 L10.467,15.023 C10.467,14.637 10.31,14.267 10.034,14 C10.31,13.733 10.467,13.363 10.467,12.976 L10.467,12 C10.467,11.847 10.584,11.75 10.695,11.75 C11.109,11.75 11.445,11.414 11.445,11 C11.445,10.586 11.109,10.25 10.695,10.25 C9.725,10.25 8.967,11.049 8.967,12 Z M12.555,11 C12.555,11.414 12.891,11.75 13.305,11.75 C13.416,11.75 13.533,11.847 13.533,12 L13.533,12.976 C13.533,13.363 13.69,13.733 13.966,14 C13.69,14.267 13.533,14.637 13.533,15.023 L13.533,16 C13.533,16.153 13.416,16.25 13.305,16.25 C12.891,16.25 12.555,16.586 12.555,17 C12.555,17.414 12.891,17.75 13.305,17.75 C14.275,17.75 15.033,16.951 15.033,16 L15.033,15.063 L15.277,14.897 C15.908,14.467 15.908,13.532 15.277,13.103 L15.033,12.937 L15.033,12 C15.033,11.049 14.275,10.25 13.305,10.25 C12.891,10.25 12.555,10.586 12.555,11 Z"/>
</svg>

