<svg xmlns="http://www.w3.org/2000/svg" viewBox="0 0 24 24">
  <defs/>
  <path fill="#151E28" d="M9.367,2.25 L14.633,2.25 C15.725,2.25 16.591,2.25 17.288,2.307 C18.002,2.365 18.605,2.487 19.156,2.768 C20.05,3.223 20.777,3.95 21.232,4.844 C21.513,5.395 21.635,5.998 21.693,6.712 C21.75,7.409 21.75,8.275 21.75,9.367 L21.75,14.633 C21.75,15.725 21.75,16.591 21.693,17.288 C21.635,18.002 21.513,18.605 21.232,19.156 C20.777,20.05 20.05,20.777 19.156,21.232 C18.605,21.513 18.002,21.635 17.288,21.693 C16.591,21.75 15.725,21.75 14.633,21.75 L9.367,21.75 C8.275,21.75 7.409,21.75 6.712,21.693 C5.998,21.635 5.395,21.513 4.844,21.232 C3.95,20.777 3.223,20.05 2.768,19.156 C2.487,18.605 2.365,18.002 2.307,17.288 C2.25,16.591 2.25,15.725 2.25,14.633 L2.25,9.367 C2.25,8.275 2.25,7.409 2.307,6.712 C2.365,5.998 2.487,5.395 2.768,4.844 C3.223,3.95 3.95,3.223 4.844,2.768 C5.395,2.487 5.998,2.365 6.712,2.307 C7.409,2.25 8.275,2.25 9.367,2.25 Z M10.915,8.712 C10.756,8.33 10.317,8.148 9.934,8.308 C8.406,8.943 7.25,10.315 7.25,12 C7.25,13.685 8.406,15.057 9.934,15.693 C10.317,15.852 10.756,15.67 10.915,15.288 C11.074,14.906 10.893,14.467 10.51,14.307 C9.405,13.848 8.75,12.944 8.75,12 C8.75,11.056 9.405,10.152 10.51,9.692 C10.893,9.533 11.074,9.094 10.915,8.712 Z M13.085,8.712 C12.926,9.094 13.107,9.533 13.49,9.692 C14.595,10.152 15.25,11.056 15.25,12 C15.25,12.944 14.595,13.848 13.49,14.307 C13.107,14.467 12.926,14.906 13.085,15.288 C13.244,15.67 13.683,15.852 14.066,15.693 C15.594,15.057 16.75,13.685 16.75,12 C16.75,10.315 15.594,8.943 14.066,8.308 C13.683,8.148 13.244,8.33 13.085,8.712 Z"/>
</svg>

