<svg xmlns="http://www.w3.org/2000/svg" viewBox="0 0 24 24">
  <defs/>
  <path fill="#151E28" d="M13.117,2.479 C13.602,2.695 13.961,3.093 14.285,3.55 C14.606,4.004 14.961,4.617 15.399,5.375 L15.399,5.375 L15.418,5.408 L20.868,14.821 L20.887,14.854 C21.327,15.614 21.684,16.229 21.918,16.736 C22.154,17.245 22.321,17.756 22.266,18.285 C22.185,19.061 21.779,19.766 21.148,20.224 C20.718,20.537 20.192,20.648 19.633,20.699 C19.077,20.75 18.366,20.75 17.488,20.75 L6.512,20.75 C5.634,20.75 4.923,20.75 4.367,20.699 C3.808,20.648 3.282,20.537 2.852,20.224 C2.221,19.766 1.815,19.061 1.734,18.285 C1.679,17.756 1.846,17.245 2.082,16.736 C2.316,16.229 2.673,15.614 3.113,14.854 L3.132,14.821 L8.582,5.408 L8.601,5.375 C9.039,4.618 9.394,4.004 9.715,3.55 C10.039,3.093 10.398,2.695 10.883,2.479 C11.594,2.163 12.406,2.163 13.117,2.479 Z M10.915,10.712 C10.756,10.33 10.317,10.148 9.934,10.307 C8.406,10.943 7.25,12.315 7.25,14 C7.25,15.685 8.406,17.057 9.934,17.692 C10.317,17.851 10.756,17.67 10.915,17.288 C11.074,16.906 10.893,16.467 10.51,16.308 C9.405,15.848 8.75,14.944 8.75,14 C8.75,13.056 9.405,12.152 10.51,11.693 C10.893,11.533 11.074,11.094 10.915,10.712 Z M13.085,10.712 C12.926,11.094 13.107,11.533 13.49,11.693 C14.595,12.152 15.25,13.056 15.25,14 C15.25,14.944 14.595,15.848 13.49,16.308 C13.107,16.467 12.926,16.906 13.085,17.288 C13.244,17.67 13.683,17.851 14.066,17.692 C15.594,17.057 16.75,15.685 16.75,14 C16.75,12.315 15.594,10.943 14.066,10.307 C13.683,10.148 13.244,10.33 13.085,10.712 Z"/>
</svg>

