<svg xmlns="http://www.w3.org/2000/svg" viewBox="0 0 24 24">
  <defs/>
  <path fill="#151E28" d="M13.117,2.479 C13.602,2.695 13.961,3.093 14.285,3.55 C14.606,4.004 14.961,4.617 15.399,5.375 L15.399,5.375 L15.418,5.408 L20.868,14.821 L20.887,14.854 C21.327,15.614 21.684,16.229 21.918,16.736 C22.154,17.245 22.321,17.756 22.266,18.285 C22.185,19.061 21.779,19.766 21.148,20.224 C20.718,20.537 20.192,20.648 19.633,20.699 C19.077,20.75 18.366,20.75 17.488,20.75 L6.512,20.75 C5.634,20.75 4.923,20.75 4.367,20.699 C3.808,20.648 3.282,20.537 2.852,20.224 C2.221,19.766 1.815,19.061 1.734,18.285 C1.679,17.756 1.846,17.245 2.082,16.736 C2.316,16.229 2.673,15.614 3.113,14.854 L3.132,14.821 L8.582,5.408 L8.601,5.375 C9.039,4.618 9.394,4.004 9.715,3.55 C10.039,3.093 10.398,2.695 10.883,2.479 C11.594,2.163 12.406,2.163 13.117,2.479 Z M8.25,12.5 L8.25,15.5 C8.25,16.743 9.257,17.75 10.5,17.75 C10.914,17.75 11.25,17.414 11.25,17 C11.25,16.586 10.914,16.25 10.5,16.25 C10.086,16.25 9.75,15.914 9.75,15.5 L9.75,12.5 C9.75,12.086 10.086,11.75 10.5,11.75 C10.914,11.75 11.25,11.414 11.25,11 C11.25,10.586 10.914,10.25 10.5,10.25 C9.257,10.25 8.25,11.257 8.25,12.5 Z M12.75,11 C12.75,11.414 13.086,11.75 13.5,11.75 C13.914,11.75 14.25,12.086 14.25,12.5 L14.25,15.5 C14.25,15.914 13.914,16.25 13.5,16.25 C13.086,16.25 12.75,16.586 12.75,17 C12.75,17.414 13.086,17.75 13.5,17.75 C14.743,17.75 15.75,16.743 15.75,15.5 L15.75,12.5 C15.75,11.257 14.743,10.25 13.5,10.25 C13.086,10.25 12.75,10.586 12.75,11 Z"/>
</svg>

