<svg xmlns="http://www.w3.org/2000/svg" viewBox="0 0 24 24">
  <defs/>
  <path fill="#151E28" d="M12,2.25 C17.385,2.25 21.75,6.615 21.75,12 C21.75,17.385 17.385,21.75 12,21.75 C6.615,21.75 2.25,17.385 2.25,12 C2.25,6.615 6.615,2.25 12,2.25 Z M12.99,8 C12.99,8.414 13.325,8.75 13.74,8.75 C14.031,8.75 14.294,8.996 14.294,9.333 L14.294,10.635 C14.294,11.176 14.559,11.688 15.009,11.995 L15.017,12 L15.009,12.005 C14.559,12.312 14.294,12.824 14.294,13.365 L14.294,14.667 C14.294,15.004 14.031,15.25 13.74,15.25 C13.325,15.25 12.99,15.586 12.99,16 C12.99,16.414 13.325,16.75 13.74,16.75 C14.89,16.75 15.794,15.802 15.794,14.667 L15.794,13.365 C15.794,13.311 15.821,13.267 15.854,13.245 L16.229,12.99 C16.924,12.516 16.924,11.484 16.229,11.01 L15.854,10.755 C15.821,10.733 15.794,10.689 15.794,10.635 L15.794,9.333 C15.794,8.198 14.89,7.25 13.74,7.25 C13.325,7.25 12.99,7.586 12.99,8 Z M8.206,9.333 L8.206,10.635 C8.206,10.689 8.179,10.733 8.146,10.755 L7.771,11.01 C7.076,11.484 7.076,12.516 7.771,12.99 L8.146,13.245 C8.179,13.267 8.206,13.311 8.206,13.365 L8.206,14.667 C8.206,15.802 9.11,16.75 10.26,16.75 C10.675,16.75 11.01,16.414 11.01,16 C11.01,15.586 10.675,15.25 10.26,15.25 C9.969,15.25 9.706,15.004 9.706,14.667 L9.706,13.365 C9.706,12.824 9.441,12.312 8.991,12.005 L8.983,12 L8.991,11.995 C9.441,11.688 9.706,11.176 9.706,10.635 L9.706,9.333 C9.706,8.996 9.969,8.75 10.26,8.75 C10.675,8.75 11.01,8.414 11.01,8 C11.01,7.586 10.675,7.25 10.26,7.25 C9.11,7.25 8.206,8.198 8.206,9.333 Z"/>
</svg>

