<svg xmlns="http://www.w3.org/2000/svg" viewBox="0 0 24 24">
  <defs/>
  <path fill="#151E28" d="M12,2.25 C17.385,2.25 21.75,6.615 21.75,12 C21.75,17.385 17.385,21.75 12,21.75 C6.615,21.75 2.25,17.385 2.25,12 C2.25,6.615 6.615,2.25 12,2.25 Z M10.915,8.712 C10.756,8.33 10.317,8.148 9.934,8.308 C8.406,8.943 7.25,10.315 7.25,12 C7.25,13.685 8.406,15.057 9.934,15.693 C10.317,15.852 10.756,15.67 10.915,15.288 C11.074,14.906 10.893,14.467 10.51,14.307 C9.405,13.848 8.75,12.944 8.75,12 C8.75,11.056 9.405,10.152 10.51,9.692 C10.893,9.533 11.074,9.094 10.915,8.712 Z M13.085,8.712 C12.926,9.094 13.107,9.533 13.49,9.692 C14.595,10.152 15.25,11.056 15.25,12 C15.25,12.944 14.595,13.848 13.49,14.307 C13.107,14.467 12.926,14.906 13.085,15.288 C13.244,15.67 13.683,15.852 14.066,15.693 C15.594,15.057 16.75,13.685 16.75,12 C16.75,10.315 15.594,8.943 14.066,8.308 C13.683,8.148 13.244,8.33 13.085,8.712 Z"/>
</svg>

