<svg xmlns="http://www.w3.org/2000/svg" viewBox="0 0 24 24">
  <defs/>
  <path fill="#151E28" d="M9.326,2.25 L14.675,2.25 L14.747,2.25 C15.166,2.25 15.495,2.25 15.814,2.326 C16.094,2.393 16.362,2.505 16.608,2.655 C16.888,2.826 17.121,3.06 17.416,3.356 L17.468,3.407 L20.593,6.532 L20.644,6.584 C20.941,6.88 21.174,7.112 21.345,7.392 C21.496,7.638 21.607,7.906 21.674,8.187 C21.75,8.505 21.75,8.834 21.75,9.252 L21.75,14.748 C21.75,15.166 21.75,15.495 21.674,15.814 C21.607,16.094 21.496,16.362 21.345,16.608 C21.174,16.888 20.941,17.121 20.644,17.416 L20.593,17.468 L17.468,20.593 L17.416,20.644 C17.121,20.941 16.888,21.174 16.608,21.345 C16.362,21.496 16.094,21.607 15.814,21.674 C15.495,21.75 15.166,21.75 14.748,21.75 L9.252,21.75 C8.834,21.75 8.505,21.75 8.187,21.674 C7.906,21.607 7.638,21.496 7.392,21.345 C7.112,21.174 6.88,20.941 6.584,20.644 L6.532,20.593 L3.407,17.468 L3.356,17.416 C3.06,17.121 2.826,16.888 2.655,16.608 C2.505,16.362 2.393,16.094 2.326,15.814 C2.25,15.495 2.25,15.166 2.25,14.747 L2.25,14.675 L2.25,9.326 L2.25,9.253 C2.25,8.834 2.25,8.505 2.326,8.187 C2.393,7.906 2.505,7.638 2.655,7.392 C2.826,7.112 3.06,6.88 3.356,6.584 L3.407,6.532 L6.532,3.407 L6.584,3.356 C6.88,3.06 7.112,2.826 7.392,2.655 C7.638,2.505 7.906,2.393 8.187,2.326 C8.505,2.25 8.834,2.25 9.253,2.25 Z M10.915,8.712 C10.756,8.33 10.317,8.148 9.934,8.308 C8.406,8.943 7.25,10.315 7.25,12 C7.25,13.685 8.406,15.057 9.934,15.693 C10.317,15.852 10.756,15.67 10.915,15.288 C11.074,14.906 10.893,14.467 10.51,14.307 C9.405,13.848 8.75,12.944 8.75,12 C8.75,11.056 9.405,10.152 10.51,9.692 C10.893,9.533 11.074,9.094 10.915,8.712 Z M13.085,8.712 C12.926,9.094 13.107,9.533 13.49,9.692 C14.595,10.152 15.25,11.056 15.25,12 C15.25,12.944 14.595,13.848 13.49,14.307 C13.107,14.467 12.926,14.906 13.085,15.288 C13.244,15.67 13.683,15.852 14.066,15.693 C15.594,15.057 16.75,13.685 16.75,12 C16.75,10.315 15.594,8.943 14.066,8.308 C13.683,8.148 13.244,8.33 13.085,8.712 Z"/>
</svg>

