<svg xmlns="http://www.w3.org/2000/svg" viewBox="0 0 24 24">
  <defs/>
  <path fill="#151E28" d="M15.25,12.75 L15.25,13 C15.25,13.192 15.322,13.367 15.441,13.5 C15.45,13.51 15.46,13.521 15.47,13.53 C15.605,13.666 15.793,13.75 16,13.75 C16.222,13.75 16.422,13.653 16.559,13.5 C16.678,13.367 16.75,13.192 16.75,13 L16.75,12.75 L21,12.75 C21.414,12.75 21.75,13.086 21.75,13.5 L21.75,14.633 C21.75,15.725 21.75,16.591 21.693,17.288 C21.635,18.002 21.513,18.605 21.232,19.156 C20.777,20.05 20.05,20.777 19.156,21.232 C18.605,21.513 18.002,21.635 17.288,21.693 C16.591,21.75 15.725,21.75 14.633,21.75 L9.367,21.75 C8.275,21.75 7.409,21.75 6.712,21.693 C5.998,21.635 5.395,21.513 4.844,21.232 C3.95,20.777 3.223,20.05 2.768,19.156 C2.487,18.605 2.365,18.002 2.307,17.288 C2.25,16.591 2.25,15.725 2.25,14.633 L2.25,13.5 C2.25,13.301 2.329,13.11 2.47,12.97 C2.61,12.829 2.801,12.75 3,12.75 L7.25,12.75 L7.25,13 C7.25,13.192 7.322,13.367 7.441,13.5 C7.45,13.51 7.46,13.521 7.47,13.53 C7.605,13.666 7.793,13.75 8,13.75 C8.222,13.75 8.422,13.653 8.559,13.5 C8.678,13.367 8.75,13.192 8.75,13 L8.75,12.75 Z M7.309,5.25 C7.668,2.983 9.632,1.25 12,1.25 C14.368,1.25 16.331,2.983 16.691,5.25 L19,5.25 C21.071,5.25 22.75,6.929 22.75,9 C22.75,10.243 21.743,11.25 20.5,11.25 L16.75,11.25 L16.75,11 C16.75,10.808 16.678,10.633 16.559,10.5 C16.55,10.49 16.54,10.479 16.53,10.47 C16.395,10.334 16.207,10.25 16,10.25 C15.778,10.25 15.578,10.347 15.441,10.5 C15.322,10.633 15.25,10.808 15.25,11 L15.25,11.25 L8.75,11.25 L8.75,11 C8.75,10.808 8.678,10.633 8.559,10.5 C8.55,10.49 8.54,10.479 8.53,10.47 C8.395,10.334 8.207,10.25 8,10.25 C7.778,10.25 7.578,10.347 7.441,10.5 C7.322,10.633 7.25,10.808 7.25,11 L7.25,11.25 L3.5,11.25 C2.257,11.25 1.25,10.243 1.25,9 C1.25,6.929 2.929,5.25 5,5.25 Z M8.837,5.25 L15.163,5.25 C14.825,3.817 13.537,2.75 12,2.75 C10.463,2.75 9.176,3.817 8.837,5.25 Z"/>
</svg>

