<svg xmlns="http://www.w3.org/2000/svg" viewBox="0 0 24 24">
  <defs/>
  <path fill="#151E28" d="M12,2.25 C14.071,2.25 15.75,3.929 15.75,6 L15.75,14 C16.054,13.772 16.25,13.409 16.25,13 L16.25,12.5 C16.25,11.257 17.257,10.25 18.5,10.25 C19.743,10.25 20.75,11.257 20.75,12.5 L20.75,13 C20.75,15.382 19.301,17.425 17.24,18.297 C16.331,18.682 15.75,19.346 15.75,20 L15.75,21 C15.75,21.414 15.414,21.75 15,21.75 L9,21.75 C8.586,21.75 8.25,21.414 8.25,21 L8.25,16 C8.25,15.346 7.669,14.682 6.76,14.297 C4.699,13.425 3.25,11.382 3.25,9 L3.25,8.5 C3.25,7.257 4.257,6.25 5.5,6.25 C6.743,6.25 7.75,7.257 7.75,8.5 L7.75,9 C7.75,9.409 7.946,9.772 8.25,10 L8.25,6 C8.25,3.929 9.929,2.25 12,2.25 Z"/>
</svg>

