<svg xmlns="http://www.w3.org/2000/svg" viewBox="0 0 24 24">
  <defs/>
  <path fill="#151E28" d="M8,0.25 C8.414,0.25 8.75,0.586 8.75,1 L8.75,2.25 L14.633,2.25 C14.847,2.25 15.053,2.25 15.25,2.25 L15.25,1 C15.25,0.586 15.586,0.25 16,0.25 C16.414,0.25 16.75,0.586 16.75,1 L16.75,2.275 C16.94,2.283 17.119,2.293 17.288,2.307 C18.002,2.365 18.605,2.487 19.156,2.768 C20.05,3.223 20.777,3.95 21.232,4.844 C21.513,5.395 21.635,5.998 21.693,6.712 C21.75,7.409 21.75,8.275 21.75,9.367 L21.75,14.633 C21.75,15.725 21.75,16.591 21.693,17.288 C21.635,18.002 21.513,18.605 21.232,19.156 C20.777,20.05 20.05,20.777 19.156,21.232 C18.605,21.513 18.002,21.635 17.288,21.693 C16.591,21.75 15.725,21.75 14.633,21.75 L9.367,21.75 C8.275,21.75 7.409,21.75 6.712,21.693 C5.998,21.635 5.395,21.513 4.844,21.232 C3.95,20.777 3.223,20.05 2.768,19.156 C2.487,18.605 2.365,18.002 2.307,17.288 C2.25,16.591 2.25,15.725 2.25,14.633 L2.25,8.647 L2.25,8.49 L2.25,8.49 C2.25,7.108 2.249,6.227 2.496,5.49 C2.97,4.078 4.078,2.97 5.491,2.496 C5.979,2.333 6.531,2.278 7.25,2.259 L7.25,1 C7.25,0.586 7.586,0.25 8,0.25 Z M16.53,9.47 C16.237,9.177 15.763,9.177 15.47,9.47 L11,13.939 L9.53,12.47 C9.237,12.177 8.763,12.177 8.47,12.47 C8.177,12.763 8.177,13.237 8.47,13.53 L10.47,15.53 C10.763,15.823 11.237,15.823 11.53,15.53 L16.53,10.53 C16.823,10.237 16.823,9.763 16.53,9.47 Z"/>
</svg>

