<svg xmlns="http://www.w3.org/2000/svg" viewBox="0 0 24 24">
  <defs/>
  <path fill="#151E28" d="M8.75,1 L8.75,2.25 L14.633,2.25 C14.847,2.25 15.053,2.25 15.25,2.25 L15.25,1 C15.25,0.586 15.586,0.25 16,0.25 C16.414,0.25 16.75,0.586 16.75,1 L16.75,2.275 C16.94,2.283 17.119,2.293 17.288,2.307 C18.002,2.365 18.605,2.487 19.156,2.768 C20.05,3.223 20.777,3.95 21.232,4.844 C21.513,5.395 21.635,5.998 21.693,6.712 C21.722,7.062 21.736,7.455 21.743,7.897 C21.748,7.931 21.75,7.965 21.75,8 C21.75,8.028 21.749,8.055 21.746,8.083 C21.75,8.464 21.75,8.881 21.75,9.337 L21.75,14.633 C21.75,15.725 21.75,16.591 21.693,17.288 C21.635,18.002 21.513,18.605 21.232,19.156 C20.777,20.05 20.05,20.777 19.156,21.232 C18.605,21.513 18.002,21.635 17.288,21.693 C16.591,21.75 15.725,21.75 14.633,21.75 L9.367,21.75 C8.275,21.75 7.409,21.75 6.712,21.693 C5.998,21.635 5.395,21.513 4.844,21.232 C3.95,20.777 3.223,20.05 2.768,19.156 C2.487,18.605 2.365,18.002 2.307,17.288 C2.25,16.591 2.25,15.725 2.25,14.633 L2.25,8.647 L2.25,8.49 C2.25,8.326 2.25,8.17 2.25,8.02 C2.25,8.013 2.25,8.007 2.25,8 C2.25,7.992 2.25,7.984 2.25,7.976 C2.254,6.882 2.282,6.131 2.496,5.49 C2.97,4.078 4.078,2.97 5.491,2.496 C5.979,2.333 6.531,2.278 7.25,2.259 L7.25,1 C7.25,0.586 7.586,0.25 8,0.25 C8.414,0.25 8.75,0.586 8.75,1 Z M20.224,7.25 C20.217,7.103 20.209,6.965 20.198,6.834 C20.147,6.213 20.051,5.829 19.896,5.525 C19.584,4.913 19.087,4.416 18.476,4.104 C18.171,3.949 17.787,3.853 17.166,3.802 C17.035,3.791 16.897,3.783 16.75,3.776 L16.75,4 C16.75,4.414 16.414,4.75 16,4.75 C15.586,4.75 15.25,4.414 15.25,4 L15.25,3.75 C15.046,3.75 14.83,3.75 14.6,3.75 L8.75,3.75 L8.75,4 C8.75,4.414 8.414,4.75 8,4.75 C7.586,4.75 7.25,4.414 7.25,4 L7.25,3.761 C6.624,3.777 6.267,3.818 5.967,3.918 C5.001,4.242 4.242,5.001 3.919,5.967 C3.818,6.267 3.777,6.624 3.761,7.25 Z M15,16.25 C14.586,16.25 14.25,16.586 14.25,17 C14.25,17.414 14.586,17.75 15,17.75 L17,17.75 C17.414,17.75 17.75,17.414 17.75,17 C17.75,16.586 17.414,16.25 17,16.25 Z"/>
</svg>

