<svg xmlns="http://www.w3.org/2000/svg" viewBox="0 0 24 24">
  <defs/>
  <path fill="#151E28" d="M10.255,2.25 L13.745,2.25 C15.415,2.25 16.897,3.318 17.424,4.902 C17.517,5.179 17.751,5.385 18.037,5.443 L18.102,5.455 C20.805,5.996 22.75,8.369 22.75,11.125 L22.75,13.427 C22.75,14.887 22.75,15.75 22.585,16.484 C22.012,19.026 20.026,21.012 17.484,21.585 C16.75,21.75 15.887,21.75 14.427,21.75 L9.573,21.75 C8.113,21.75 7.25,21.75 6.516,21.585 C3.974,21.012 1.988,19.026 1.415,16.484 C1.25,15.75 1.25,14.886 1.25,13.426 L1.25,11.125 C1.25,8.369 3.196,5.996 5.898,5.455 L5.963,5.443 C6.249,5.385 6.483,5.179 6.576,4.902 C7.103,3.318 8.585,2.25 10.255,2.25 Z M7.75,12.7 L7.75,13.3 C7.75,15.481 9.518,17.25 11.7,17.25 L12.3,17.25 C14.481,17.25 16.25,15.481 16.25,13.3 L16.25,12.7 C16.25,10.519 14.481,8.75 12.3,8.75 L11.7,8.75 C9.518,8.75 7.75,10.519 7.75,12.7 Z M11.7,10.25 L12.3,10.25 C13.653,10.25 14.75,11.347 14.75,12.7 L14.75,13.3 C14.75,14.653 13.653,15.75 12.3,15.75 L11.7,15.75 C10.347,15.75 9.25,14.653 9.25,13.3 L9.25,12.7 C9.25,11.347 10.347,10.25 11.7,10.25 Z"/>
</svg>

