<svg xmlns="http://www.w3.org/2000/svg" viewBox="0 0 24 24">
  <defs/>
  <path fill="#151E28" d="M4.278,10.799 C4.278,10.798 4.279,10.796 4.279,10.794 L5.45,6.695 C6.033,4.656 7.897,3.25 10.017,3.25 L13.983,3.25 C16.104,3.25 17.968,4.656 18.55,6.695 L19.721,10.794 L19.723,10.799 C20.967,11.913 21.75,13.532 21.75,15.333 C21.75,16.715 20.93,17.905 19.75,18.443 L19.75,21 C19.75,21.414 19.414,21.75 19,21.75 C18.586,21.75 18.25,21.414 18.25,21 L18.25,18.75 L5.75,18.75 L5.75,21 C5.75,21.414 5.414,21.75 5,21.75 C4.586,21.75 4.25,21.414 4.25,21 L4.25,18.443 C3.07,17.905 2.25,16.715 2.25,15.333 C2.25,13.532 3.033,11.913 4.278,10.799 Z M6.892,7.107 L6.167,9.647 C6.84,9.391 7.57,9.25 8.334,9.25 L15.667,9.25 C16.43,9.25 17.161,9.391 17.834,9.647 L17.108,7.107 C16.709,5.712 15.434,4.75 13.983,4.75 L10.017,4.75 C8.566,4.75 7.291,5.712 6.892,7.107 Z M6.25,14 C6.25,14.414 6.586,14.75 7,14.75 L8,14.75 C8.414,14.75 8.75,14.414 8.75,14 C8.75,13.586 8.414,13.25 8,13.25 L7,13.25 C6.586,13.25 6.25,13.586 6.25,14 Z M16,13.25 C15.586,13.25 15.25,13.586 15.25,14 C15.25,14.414 15.586,14.75 16,14.75 L17,14.75 C17.414,14.75 17.75,14.414 17.75,14 C17.75,13.586 17.414,13.25 17,13.25 Z"/>
</svg>

