<svg xmlns="http://www.w3.org/2000/svg" viewBox="0 0 24 24">
  <defs/>
  <path fill="#151E28" d="M1.25,16 L1.25,12 C1.25,7.168 5.168,3.25 10,3.25 C13.877,3.25 17.163,5.77 18.312,9.26 C20.79,9.421 22.75,11.482 22.75,14 C22.75,16.007 21.507,17.721 19.749,18.417 C19.75,18.445 19.75,18.472 19.75,18.5 C19.75,20.295 18.295,21.75 16.5,21.75 C14.789,21.75 13.387,20.428 13.26,18.75 L9.741,18.75 C9.613,20.428 8.211,21.75 6.5,21.75 C4.755,21.75 3.331,20.374 3.253,18.647 C2.098,18.322 1.25,17.26 1.25,16 Z M6.25,11 C6.25,11.414 6.586,11.75 7,11.75 L13,11.75 C13.414,11.75 13.75,11.414 13.75,11 C13.75,10.586 13.414,10.25 13,10.25 L7,10.25 C6.586,10.25 6.25,10.586 6.25,11 Z M8.25,18.5 C8.25,17.534 7.467,16.75 6.5,16.75 C5.534,16.75 4.75,17.534 4.75,18.5 C4.75,19.466 5.534,20.25 6.5,20.25 C7.467,20.25 8.25,19.466 8.25,18.5 Z M18.25,18.5 C18.25,17.534 17.467,16.75 16.5,16.75 C15.534,16.75 14.75,17.534 14.75,18.5 C14.75,19.466 15.534,20.25 16.5,20.25 C17.467,20.25 18.25,19.466 18.25,18.5 Z"/>
</svg>

