<svg xmlns="http://www.w3.org/2000/svg" viewBox="0 0 24 24">
  <defs/>
  <path fill="#151E28" d="M15.6,20.25 C16.733,20.25 17.537,20.249 18.166,20.198 C18.787,20.147 19.171,20.051 19.476,19.896 C20.087,19.584 20.584,19.087 20.896,18.476 C21.051,18.171 21.147,17.787 21.198,17.166 C21.249,16.537 21.25,15.733 21.25,14.6 L21.25,9.4 C21.25,8.268 21.249,7.463 21.198,6.834 C21.147,6.213 21.051,5.829 20.896,5.525 C20.584,4.913 20.087,4.416 19.476,4.104 C19.171,3.949 18.787,3.853 18.166,3.802 C17.537,3.751 16.733,3.75 15.6,3.75 L8.4,3.75 C7.268,3.75 6.463,3.751 5.834,3.802 C5.213,3.853 4.829,3.949 4.525,4.104 C3.913,4.416 3.416,4.913 3.104,5.525 C2.949,5.829 2.853,6.213 2.802,6.834 C2.751,7.463 2.75,8.268 2.75,9.4 L2.75,9.5 C2.75,9.914 2.414,10.25 2,10.25 C1.586,10.25 1.25,9.914 1.25,9.5 L1.25,9.367 C1.25,8.275 1.25,7.409 1.307,6.712 C1.365,5.998 1.487,5.395 1.768,4.844 C2.223,3.95 2.95,3.223 3.844,2.768 C4.395,2.487 4.998,2.365 5.712,2.307 C6.409,2.25 7.275,2.25 8.367,2.25 L15.633,2.25 C16.725,2.25 17.591,2.25 18.288,2.307 C19.002,2.365 19.605,2.487 20.156,2.768 C21.05,3.223 21.777,3.95 22.232,4.844 C22.513,5.395 22.635,5.998 22.693,6.712 C22.75,7.409 22.75,8.275 22.75,9.367 L22.75,14.633 C22.75,15.725 22.75,16.591 22.693,17.288 C22.635,18.002 22.513,18.605 22.232,19.156 C21.777,20.05 21.05,20.777 20.156,21.232 C19.605,21.513 19.002,21.635 18.288,21.693 C17.591,21.75 16.725,21.75 15.633,21.75 L13.5,21.75 C13.086,21.75 12.75,21.414 12.75,21 C12.75,20.586 13.086,20.25 13.5,20.25 Z M1.25,13 C1.25,12.586 1.586,12.25 2,12.25 C6.832,12.25 10.75,16.167 10.75,21 C10.75,21.414 10.414,21.75 10,21.75 C9.586,21.75 9.25,21.414 9.25,21 C9.25,16.996 6.004,13.75 2,13.75 C1.586,13.75 1.25,13.414 1.25,13 Z M2,16.25 C4.623,16.25 6.75,18.377 6.75,21 C6.75,21.414 6.414,21.75 6,21.75 C5.586,21.75 5.25,21.414 5.25,21 C5.25,19.205 3.795,17.75 2,17.75 C1.586,17.75 1.25,17.414 1.25,17 C1.25,16.586 1.586,16.25 2,16.25 Z M2,22 C1.448,22 1,21.552 1,21 C1,20.448 1.448,20 2,20 C2.552,20 3,20.448 3,21 C3,21.552 2.552,22 2,22 Z"/>
</svg>

