<svg xmlns="http://www.w3.org/2000/svg" viewBox="0 0 24 24">
  <defs/>
  <path fill="#151E28" d="M8.367,2.25 L15.633,2.25 C16.725,2.25 17.591,2.25 18.288,2.307 C19.002,2.365 19.605,2.487 20.156,2.768 C21.05,3.223 21.777,3.95 22.232,4.844 C22.513,5.395 22.635,5.998 22.693,6.712 C22.75,7.409 22.75,8.275 22.75,9.367 L22.75,14.633 C22.75,15.725 22.75,16.591 22.693,17.288 C22.635,18.002 22.513,18.605 22.232,19.156 C21.777,20.05 21.05,20.777 20.156,21.232 C19.605,21.513 19.002,21.635 18.288,21.693 C17.591,21.75 16.725,21.75 15.633,21.75 L8.367,21.75 C7.275,21.75 6.409,21.75 5.712,21.693 C4.998,21.635 4.395,21.513 3.844,21.232 C2.95,20.777 2.223,20.05 1.768,19.156 C1.487,18.605 1.365,18.002 1.307,17.288 C1.25,16.591 1.25,15.725 1.25,14.633 L1.25,9.367 C1.25,8.275 1.25,7.409 1.307,6.712 C1.365,5.998 1.487,5.395 1.768,4.844 C2.223,3.95 2.95,3.223 3.844,2.768 C4.395,2.487 4.998,2.365 5.712,2.307 C6.409,2.25 7.275,2.25 8.367,2.25 Z M7,6.25 C6.586,6.25 6.25,6.586 6.25,7 L6.25,16 C6.25,16.414 6.586,16.75 7,16.75 C7.414,16.75 7.75,16.414 7.75,16 L7.75,7 C7.75,6.586 7.414,6.25 7,6.25 Z M11.25,10 L11.25,16 C11.25,16.414 11.586,16.75 12,16.75 C12.414,16.75 12.75,16.414 12.75,16 L12.75,10 C12.75,9.586 12.414,9.25 12,9.25 C11.586,9.25 11.25,9.586 11.25,10 Z M17,12.25 C16.586,12.25 16.25,12.586 16.25,13 L16.25,16 C16.25,16.414 16.586,16.75 17,16.75 C17.414,16.75 17.75,16.414 17.75,16 L17.75,13 C17.75,12.586 17.414,12.25 17,12.25 Z"/>
</svg>

