<svg xmlns="http://www.w3.org/2000/svg" viewBox="0 0 24 24">
  <defs/>
  <path fill="#151E28" d="M12,2.25 C17.385,2.25 21.75,6.615 21.75,12 C21.75,17.385 17.385,21.75 12,21.75 C10.347,21.75 9.003,21.428 7.972,21.028 C7.309,20.77 6.825,20.583 6.471,20.456 C6.294,20.392 6.161,20.348 6.06,20.319 C5.961,20.291 5.92,20.285 5.915,20.284 L5.915,20.284 C5.717,20.267 5.689,20.269 5.674,20.271 C5.658,20.273 5.63,20.277 5.441,20.336 C5.397,20.35 5.299,20.392 5.087,20.522 C4.88,20.648 4.614,20.826 4.233,21.079 L3.416,21.624 C3.186,21.778 2.89,21.792 2.646,21.661 C2.402,21.531 2.25,21.277 2.25,21 L2.25,12 C2.25,6.615 6.615,2.25 12,2.25 Z"/>
</svg>

