<svg xmlns="http://www.w3.org/2000/svg" viewBox="0 0 24 24">
  <defs/>
  <path fill="#151E28" d="M14.633,3.25 C15.725,3.25 16.591,3.25 17.288,3.307 C18.002,3.365 18.605,3.487 19.156,3.768 C20.05,4.223 20.777,4.95 21.232,5.844 C21.513,6.395 21.635,6.998 21.693,7.712 C21.75,8.409 21.75,9.275 21.75,10.367 L21.75,11.633 C21.75,12.725 21.75,13.591 21.693,14.288 C21.635,15.002 21.513,15.605 21.232,16.156 C20.777,17.05 20.05,17.777 19.156,18.232 C18.605,18.513 18.002,18.635 17.288,18.693 C16.591,18.75 15.725,18.75 14.633,18.75 L7.938,18.75 C7.192,18.75 6.909,18.753 6.641,18.8 C6.39,18.845 6.145,18.919 5.911,19.021 C5.661,19.13 5.424,19.285 4.804,19.699 L3.416,20.624 C3.186,20.778 2.89,20.792 2.646,20.661 C2.402,20.531 2.25,20.277 2.25,20 L2.25,10.367 C2.25,9.275 2.25,8.409 2.307,7.712 C2.365,6.998 2.487,6.395 2.768,5.844 C3.223,4.95 3.95,4.223 4.844,3.768 C5.395,3.487 5.998,3.365 6.712,3.307 C7.409,3.25 8.275,3.25 9.367,3.25 L14.633,3.25 Z M12.75,7 C12.75,6.586 12.414,6.25 12,6.25 C11.586,6.25 11.25,6.586 11.25,7 L11.25,11 C11.25,11.414 11.586,11.75 12,11.75 C12.414,11.75 12.75,11.414 12.75,11 Z M13,14 C13,13.448 12.552,13 12,13 C11.448,13 11,13.448 11,14 C11,14.552 11.448,15 12,15 C12.552,15 13,14.552 13,14 Z"/>
</svg>

