<svg xmlns="http://www.w3.org/2000/svg" viewBox="0 0 24 24">
  <defs/>
  <path fill="#151E28" d="M2.53,1.47 L22.53,21.47 C22.823,21.763 22.823,22.237 22.53,22.53 C22.237,22.823 21.763,22.823 21.47,22.53 L17.644,18.705 C17.627,18.708 17.61,18.711 17.593,18.713 C17.398,18.737 17.2,18.75 17,18.75 L7.211,18.75 C6.569,18.75 5.942,18.94 5.408,19.296 L3.416,20.624 C3.186,20.778 2.89,20.792 2.646,20.661 C2.402,20.531 2.25,20.277 2.25,20 L2.25,8 C2.25,6.704 2.77,5.528 3.611,4.672 L1.47,2.53 C1.177,2.237 1.177,1.763 1.47,1.47 C1.763,1.177 2.237,1.177 2.53,1.47 Z M7.25,4 C7.25,3.586 7.586,3.25 8,3.25 L17,3.25 C19.623,3.25 21.75,5.377 21.75,8 L21.75,14 C21.75,14.864 21.519,15.676 21.114,16.375 C20.907,16.734 20.448,16.857 20.089,16.649 C19.731,16.442 19.608,15.983 19.816,15.625 C20.092,15.147 20.25,14.593 20.25,14 L20.25,8 C20.25,6.205 18.795,4.75 17,4.75 L8,4.75 C7.586,4.75 7.25,4.414 7.25,4 Z"/>
</svg>

