<svg xmlns="http://www.w3.org/2000/svg" viewBox="0 0 24 24">
  <defs/>
  <path fill="#151E28" d="M2.53,1.47 L22.53,21.47 C22.823,21.763 22.823,22.237 22.53,22.53 C22.237,22.823 21.763,22.823 21.47,22.53 L18.344,19.404 C16.639,20.866 14.422,21.75 12,21.75 C10.347,21.75 9.003,21.428 7.972,21.028 C7.309,20.77 6.825,20.583 6.471,20.456 C6.294,20.392 6.161,20.348 6.06,20.319 C5.961,20.291 5.92,20.285 5.915,20.284 L5.915,20.284 L5.915,20.284 C5.717,20.267 5.689,20.269 5.674,20.271 C5.658,20.273 5.63,20.277 5.441,20.336 C5.397,20.35 5.299,20.392 5.087,20.522 C4.88,20.648 4.614,20.826 4.233,21.079 L3.416,21.624 C3.186,21.778 2.89,21.792 2.646,21.661 C2.402,21.531 2.25,21.277 2.25,21 L2.25,12 C2.25,9.578 3.134,7.361 4.596,5.656 L1.47,2.53 C1.177,2.237 1.177,1.763 1.47,1.47 C1.763,1.177 2.237,1.177 2.53,1.47 Z M12,3.75 C10.861,3.75 9.777,3.981 8.792,4.397 C8.41,4.558 7.97,4.379 7.809,3.998 C7.648,3.616 7.827,3.176 8.208,3.015 C9.375,2.522 10.656,2.25 12,2.25 C17.385,2.25 21.75,6.615 21.75,12 C21.75,13.344 21.478,14.625 20.985,15.792 C20.824,16.174 20.384,16.352 20.002,16.191 C19.621,16.03 19.442,15.59 19.603,15.208 C20.02,14.223 20.25,13.139 20.25,12 C20.25,7.444 16.556,3.75 12,3.75 Z"/>
</svg>

