<svg xmlns="http://www.w3.org/2000/svg" viewBox="0 0 24 24">
  <defs/>
  <path fill="#151E28" d="M5.712,3.307 C6.409,3.25 7.275,3.25 8.367,3.25 L12.028,3.25 C12.936,3.25 13.656,3.25 14.24,3.29 C14.836,3.33 15.344,3.415 15.818,3.612 C16.982,4.094 17.906,5.018 18.388,6.182 C18.585,6.656 18.67,7.164 18.71,7.76 C18.75,8.344 18.75,9.064 18.75,9.973 L18.75,10.028 C18.75,10.936 18.75,11.656 18.71,12.24 C18.67,12.836 18.585,13.344 18.388,13.818 C17.906,14.982 16.982,15.906 15.818,16.388 C15.344,16.585 14.836,16.67 14.24,16.71 C13.656,16.75 12.936,16.75 12.027,16.75 L6.938,16.75 C6.192,16.75 5.909,16.753 5.641,16.8 C5.39,16.845 5.145,16.919 4.911,17.021 C4.661,17.13 4.424,17.285 3.804,17.699 L2.416,18.624 C2.186,18.778 1.89,18.792 1.646,18.661 C1.402,18.531 1.25,18.277 1.25,18 L1.25,10.367 C1.25,9.275 1.25,8.409 1.307,7.712 C1.365,6.998 1.487,6.395 1.768,5.844 C2.223,4.95 2.95,4.223 3.844,3.768 C4.395,3.487 4.998,3.365 5.712,3.307 Z M20.687,8.337 C21.873,8.642 22.75,9.718 22.75,11 L22.75,20 C22.75,20.277 22.598,20.531 22.354,20.661 C22.11,20.792 21.814,20.778 21.584,20.624 L19.592,19.296 C19.058,18.94 18.431,18.75 17.789,18.75 L12,18.75 C11.586,18.75 11.25,18.414 11.25,18 C11.25,17.586 11.586,17.25 12,17.25 L17.789,17.25 C18.727,17.25 19.643,17.528 20.424,18.048 L21.25,18.599 L21.25,11 C21.25,10.419 20.852,9.928 20.313,9.789 C19.912,9.686 19.67,9.277 19.774,8.876 C19.877,8.475 20.286,8.233 20.687,8.337 Z"/>
</svg>

