<svg xmlns="http://www.w3.org/2000/svg" viewBox="0 0 24 24">
  <defs/>
  <path fill="#151E28" d="M12,2.25 C17.385,2.25 21.75,6.615 21.75,12 C21.75,17.385 17.385,21.75 12,21.75 C10.347,21.75 9.003,21.428 7.972,21.028 C7.309,20.77 6.825,20.583 6.471,20.456 C6.294,20.392 6.161,20.348 6.06,20.319 C5.961,20.291 5.92,20.285 5.915,20.284 L5.915,20.284 C5.717,20.267 5.689,20.269 5.674,20.271 C5.658,20.273 5.63,20.277 5.441,20.336 C5.397,20.35 5.299,20.392 5.087,20.522 C4.88,20.648 4.614,20.826 4.233,21.079 L3.416,21.624 C3.186,21.778 2.89,21.792 2.646,21.661 C2.402,21.531 2.25,21.277 2.25,21 L2.25,12 C2.25,6.615 6.615,2.25 12,2.25 Z M12,13 C12.552,13 13,12.552 13,12 C13,11.448 12.552,11 12,11 C11.448,11 11,11.448 11,12 C11,12.552 11.448,13 12,13 Z M17,12 C17,11.448 16.552,11 16,11 C15.448,11 15,11.448 15,12 C15,12.552 15.448,13 16,13 C16.552,13 17,12.552 17,12 Z M9,12 C9,11.448 8.552,11 8,11 C7.448,11 7,11.448 7,12 C7,12.552 7.448,13 8,13 C8.552,13 9,12.552 9,12 Z"/>
</svg>

