<svg xmlns="http://www.w3.org/2000/svg" viewBox="0 0 24 24">
  <defs/>
  <path fill="#151E28" d="M14.633,3.25 C15.725,3.25 16.591,3.25 17.288,3.307 C18.002,3.365 18.605,3.487 19.156,3.768 C20.05,4.223 20.777,4.95 21.232,5.844 C21.513,6.395 21.635,6.998 21.693,7.712 C21.75,8.409 21.75,9.275 21.75,10.367 L21.75,11.633 C21.75,12.725 21.75,13.591 21.693,14.288 C21.635,15.002 21.513,15.605 21.232,16.156 C20.777,17.05 20.05,17.777 19.156,18.232 C18.605,18.513 18.002,18.635 17.288,18.693 C16.591,18.75 15.725,18.75 14.633,18.75 L7.938,18.75 C7.192,18.75 6.909,18.753 6.641,18.8 C6.39,18.845 6.145,18.919 5.911,19.021 C5.661,19.13 5.424,19.285 4.804,19.699 L3.416,20.624 C3.186,20.778 2.89,20.792 2.646,20.661 C2.402,20.531 2.25,20.277 2.25,20 L2.25,10.367 C2.25,9.275 2.25,8.409 2.307,7.712 C2.365,6.998 2.487,6.395 2.768,5.844 C3.223,4.95 3.95,4.223 4.844,3.768 C5.395,3.487 5.998,3.365 6.712,3.307 C7.409,3.25 8.275,3.25 9.367,3.25 L14.633,3.25 Z M13.249,8.905 C13.216,8.967 13.16,9.057 13.075,9.177 C12.903,9.42 12.669,9.713 12.414,10.031 L12.405,10.044 C12.162,10.347 11.9,10.674 11.7,10.958 C11.598,11.102 11.499,11.253 11.423,11.398 C11.363,11.511 11.25,11.739 11.25,12 C11.25,12.414 11.586,12.75 12,12.75 C12.376,12.75 12.687,12.474 12.741,12.113 L12.749,12.098 C12.782,12.036 12.839,11.945 12.925,11.823 C13.097,11.58 13.331,11.287 13.586,10.969 L13.595,10.956 C13.838,10.653 14.1,10.326 14.3,10.042 C14.402,9.898 14.501,9.747 14.577,9.602 C14.637,9.489 14.75,9.261 14.75,9 L14.75,8.978 C14.75,8.721 14.751,8.053 14.401,7.44 C13.995,6.73 13.221,6.25 12,6.25 C11.369,6.25 10.845,6.41 10.428,6.688 C10.015,6.964 9.749,7.326 9.579,7.665 C9.411,8.001 9.331,8.328 9.291,8.564 C9.271,8.684 9.261,8.786 9.256,8.861 C9.253,8.898 9.252,8.929 9.251,8.953 L9.25,8.982 L9.25,8.993 L9.25,8.997 L9.25,8.998 L9.25,8.999 C9.25,9 9.25,9 10,9 L9.25,9 C9.25,9.414 9.586,9.75 10,9.75 C10.412,9.75 10.747,9.417 10.75,9.006 L10.75,9.003 C10.75,8.997 10.751,8.985 10.752,8.967 C10.755,8.933 10.76,8.878 10.771,8.811 C10.794,8.672 10.839,8.499 10.921,8.335 C11.001,8.174 11.11,8.036 11.26,7.937 C11.405,7.84 11.631,7.75 12,7.75 C12.779,7.75 13.005,8.02 13.099,8.185 C13.222,8.4 13.245,8.666 13.249,8.905 Z M12,16 C12.552,16 13,15.552 13,15 C13,14.448 12.552,14 12,14 C11.448,14 11,14.448 11,15 C11,15.552 11.448,16 12,16 Z M13.273,8.855 C13.273,8.855 13.272,8.858 13.269,8.865 C13.271,8.859 13.272,8.856 13.273,8.855 Z M12.727,12.144 L12.727,12.144 C12.728,12.143 12.729,12.14 12.731,12.135 C12.729,12.141 12.728,12.144 12.727,12.144 Z"/>
</svg>

