<svg xmlns="http://www.w3.org/2000/svg" viewBox="0 0 24 24">
  <defs/>
  <path fill="#151E28" d="M12,2.25 C17.385,2.25 21.75,6.615 21.75,12 C21.75,17.385 17.385,21.75 12,21.75 C6.615,21.75 2.25,17.385 2.25,12 C2.25,6.615 6.615,2.25 12,2.25 Z M16.558,8.998 C16.28,8.69 15.806,8.665 15.498,8.943 L11.027,12.967 L9.53,11.47 C9.237,11.177 8.763,11.177 8.47,11.47 C8.177,11.763 8.177,12.237 8.47,12.53 L10.47,14.53 C10.752,14.812 11.205,14.824 11.502,14.557 L16.502,10.057 C16.81,9.78 16.835,9.306 16.558,8.998 Z"/>
</svg>

