<svg xmlns="http://www.w3.org/2000/svg" viewBox="0 0 24 24">
  <defs/>
  <path fill="#151E28" d="M6.438,11.25 C6.995,11.25 7.522,11.383 8,11.619 C8.478,11.383 9.006,11.25 9.563,11.25 C12.039,11.25 13.75,13.747 13.75,16.414 C13.75,18.132 13.017,19.476 11.914,20.382 C10.827,21.275 9.407,21.724 8.014,21.749 C6.621,21.774 5.189,21.375 4.091,20.486 C2.973,19.581 2.25,18.207 2.25,16.414 C2.25,13.747 3.961,11.25 6.438,11.25 Z M13.244,11.461 C13.622,11.324 14.023,11.25 14.438,11.25 C14.995,11.25 15.522,11.383 16,11.619 C16.478,11.383 17.006,11.25 17.563,11.25 C20.039,11.25 21.75,13.747 21.75,16.414 C21.75,18.75 20.403,20.358 18.674,21.153 C16.978,21.934 14.871,21.96 13.181,21.165 C12.806,20.989 12.645,20.542 12.821,20.168 C12.998,19.793 13.444,19.632 13.819,19.808 C15.091,20.406 16.735,20.395 18.048,19.791 C19.329,19.201 20.25,18.077 20.25,16.414 C20.25,14.205 18.883,12.75 17.563,12.75 C17.159,12.75 16.77,12.873 16.412,13.108 C16.162,13.272 15.839,13.272 15.589,13.108 C15.231,12.873 14.841,12.75 14.438,12.75 C14.203,12.75 13.975,12.792 13.756,12.871 C13.367,13.012 12.937,12.811 12.795,12.422 C12.654,12.033 12.855,11.603 13.244,11.461 Z M14.586,2.531 L14.001,3 C14.583,2.533 14.586,2.532 14.586,2.532 L14.587,2.533 L14.588,2.534 L14.59,2.537 L14.598,2.547 C14.604,2.555 14.612,2.565 14.621,2.577 C14.64,2.602 14.666,2.638 14.698,2.682 C14.761,2.772 14.849,2.901 14.951,3.068 C15.157,3.402 15.425,3.889 15.692,4.521 C16.225,5.788 16.751,7.637 16.75,10 C16.75,10.414 16.415,10.75 16,10.75 C15.586,10.75 15.25,10.414 15.25,10 C15.251,7.863 14.776,6.212 14.309,5.104 C14.076,4.551 13.846,4.133 13.676,3.858 C13.652,3.866 13.627,3.875 13.601,3.884 C13.257,4.01 12.761,4.242 12.2,4.662 C11.089,5.496 9.675,7.108 8.717,10.221 C8.595,10.616 8.176,10.839 7.78,10.717 C7.384,10.595 7.162,10.175 7.284,9.779 C8.326,6.392 9.912,4.504 11.3,3.463 C11.99,2.945 12.619,2.646 13.087,2.475 C13.32,2.39 13.514,2.336 13.654,2.304 C13.725,2.287 13.782,2.276 13.825,2.269 C13.846,2.265 13.863,2.262 13.877,2.26 L13.895,2.257 L13.902,2.256 L13.905,2.256 L13.906,2.256 C13.907,2.256 13.907,2.259 14,2.998 L13.907,2.256 C14.166,2.223 14.423,2.328 14.586,2.531 Z"/>
</svg>

