<svg xmlns="http://www.w3.org/2000/svg" viewBox="0 0 24 24">
  <defs/>
  <path fill="#151E28" d="M12,1.25 C17.937,1.25 22.75,6.063 22.75,12 C22.75,17.937 17.937,22.75 12,22.75 C6.063,22.75 1.25,17.937 1.25,12 C1.25,6.063 6.063,1.25 12,1.25 Z M15.53,8.47 C15.237,8.177 14.763,8.177 14.47,8.47 L12,10.939 L9.53,8.47 C9.237,8.177 8.763,8.177 8.47,8.47 C8.177,8.763 8.177,9.237 8.47,9.53 L11.47,12.53 C11.763,12.823 12.237,12.823 12.53,12.53 L15.53,9.53 C15.823,9.237 15.823,8.763 15.53,8.47 Z M15.53,13.53 C15.823,13.237 15.823,12.763 15.53,12.47 C15.237,12.177 14.763,12.177 14.47,12.47 L12,14.939 L9.53,12.47 C9.237,12.177 8.763,12.177 8.47,12.47 C8.177,12.763 8.177,13.237 8.47,13.53 L11.47,16.53 C11.763,16.823 12.237,16.823 12.53,16.53 Z"/>
</svg>

