<svg xmlns="http://www.w3.org/2000/svg" viewBox="0 0 24 24">
  <defs/>
  <path fill="#151E28" d="M12,1.25 C17.937,1.25 22.75,6.063 22.75,12 C22.75,17.937 17.937,22.75 12,22.75 C6.063,22.75 1.25,17.937 1.25,12 C1.25,6.063 6.063,1.25 12,1.25 Z M16.53,14.53 C16.823,14.237 16.823,13.762 16.53,13.47 L12.53,9.47 C12.237,9.177 11.763,9.177 11.47,9.47 L7.47,13.47 C7.177,13.762 7.177,14.237 7.47,14.53 C7.763,14.823 8.237,14.823 8.53,14.53 L12,11.061 L15.47,14.53 C15.763,14.823 16.237,14.823 16.53,14.53 Z"/>
</svg>

