<svg xmlns="http://www.w3.org/2000/svg" viewBox="0 0 24 24">
  <defs/>
  <path fill="#151E28" d="M12,1.25 C17.937,1.25 22.75,6.063 22.75,12 C22.75,17.937 17.937,22.75 12,22.75 C6.063,22.75 1.25,17.937 1.25,12 C1.25,6.063 6.063,1.25 12,1.25 Z M16.53,10.47 C16.237,10.177 15.763,10.177 15.47,10.47 L12,13.939 L8.53,10.47 C8.237,10.177 7.763,10.177 7.47,10.47 C7.177,10.763 7.177,11.238 7.47,11.53 L11.47,15.53 C11.763,15.823 12.237,15.823 12.53,15.53 L16.53,11.53 C16.823,11.238 16.823,10.763 16.53,10.47 Z"/>
</svg>

