<svg xmlns="http://www.w3.org/2000/svg" viewBox="0 0 24 24">
  <defs/>
  <path fill="#151E28" d="M13.117,2.479 C13.602,2.695 13.961,3.093 14.285,3.55 C14.606,4.004 14.961,4.617 15.399,5.375 L15.399,5.375 L15.418,5.408 L20.868,14.821 L20.887,14.854 C21.327,15.614 21.684,16.229 21.918,16.736 C22.154,17.245 22.321,17.756 22.266,18.285 C22.185,19.061 21.779,19.766 21.148,20.224 C20.718,20.537 20.192,20.648 19.633,20.699 C19.077,20.75 18.366,20.75 17.488,20.75 L6.512,20.75 C5.634,20.75 4.923,20.75 4.367,20.699 C3.808,20.648 3.282,20.537 2.852,20.224 C2.221,19.766 1.815,19.061 1.734,18.285 C1.679,17.756 1.846,17.245 2.082,16.736 C2.316,16.229 2.673,15.614 3.113,14.854 L3.132,14.821 L8.582,5.408 L8.601,5.375 C9.039,4.618 9.394,4.004 9.715,3.55 C10.039,3.093 10.398,2.695 10.883,2.479 C11.594,2.163 12.406,2.163 13.117,2.479 Z M9.47,17.53 C9.763,17.823 10.237,17.823 10.53,17.53 C10.823,17.237 10.823,16.763 10.53,16.47 L9.061,15 L10.53,13.53 C10.823,13.237 10.823,12.763 10.53,12.47 C10.237,12.177 9.763,12.177 9.47,12.47 L7.47,14.47 C7.329,14.61 7.25,14.801 7.25,15 C7.25,15.199 7.329,15.39 7.47,15.53 Z M13.47,17.53 C13.763,17.823 14.237,17.823 14.53,17.53 L16.53,15.53 C16.671,15.39 16.75,15.199 16.75,15 C16.75,14.801 16.671,14.61 16.53,14.47 L14.53,12.47 C14.237,12.177 13.763,12.177 13.47,12.47 C13.177,12.763 13.177,13.237 13.47,13.53 L14.939,15 L13.47,16.47 C13.177,16.763 13.177,17.237 13.47,17.53 Z"/>
</svg>

