<svg xmlns="http://www.w3.org/2000/svg" viewBox="0 0 24 24">
  <defs/>
  <path fill="#151E28" d="M12,1.25 C17.937,1.25 22.75,6.063 22.75,12 C22.75,17.937 17.937,22.75 12,22.75 C6.063,22.75 1.25,17.937 1.25,12 C1.25,6.063 6.063,1.25 12,1.25 Z M10.47,16.53 C10.763,16.823 11.238,16.823 11.531,16.53 L15.531,12.53 C15.823,12.237 15.823,11.763 15.531,11.47 L11.531,7.47 C11.238,7.177 10.763,7.177 10.47,7.47 C10.177,7.763 10.177,8.237 10.47,8.53 L13.94,12 L10.47,15.47 C10.177,15.763 10.177,16.237 10.47,16.53 Z"/>
</svg>

