<svg xmlns="http://www.w3.org/2000/svg" viewBox="0 0 24 24">
  <defs/>
  <path fill="#151E28" d="M12,1.25 C17.937,1.25 22.75,6.063 22.75,12 C22.75,17.937 17.937,22.75 12,22.75 C6.063,22.75 1.25,17.937 1.25,12 C1.25,6.063 6.063,1.25 12,1.25 Z M13.53,7.47 C13.237,7.177 12.762,7.177 12.47,7.47 L8.47,11.47 C8.177,11.763 8.177,12.237 8.47,12.53 L12.47,16.53 C12.762,16.823 13.237,16.823 13.53,16.53 C13.823,16.237 13.823,15.763 13.53,15.47 L10.061,12 L13.53,8.53 C13.823,8.237 13.823,7.763 13.53,7.47 Z"/>
</svg>

