<svg xmlns="http://www.w3.org/2000/svg" viewBox="0 0 24 24">
  <defs/>
  <path fill="#151E28" d="M9.325,2.25 L14.675,2.25 L14.747,2.25 C15.166,2.25 15.495,2.25 15.814,2.326 C16.094,2.393 16.362,2.504 16.608,2.655 C16.888,2.826 17.121,3.059 17.416,3.356 L17.468,3.407 L20.593,6.532 L20.644,6.584 C20.941,6.879 21.174,7.112 21.345,7.392 C21.496,7.638 21.607,7.906 21.674,8.186 C21.75,8.505 21.75,8.834 21.75,9.253 L21.75,14.747 C21.75,15.166 21.75,15.495 21.674,15.814 C21.607,16.094 21.496,16.362 21.345,16.608 C21.174,16.888 20.941,17.121 20.644,17.416 L17.468,20.593 L17.416,20.644 C17.121,20.941 16.888,21.174 16.608,21.345 C16.362,21.496 16.094,21.607 15.814,21.674 C15.495,21.75 15.166,21.75 14.747,21.75 L9.253,21.75 C8.834,21.75 8.505,21.75 8.186,21.674 C7.906,21.607 7.638,21.496 7.392,21.345 C7.112,21.174 6.879,20.941 6.584,20.644 L6.532,20.593 L3.407,17.468 L3.356,17.416 C3.059,17.121 2.826,16.888 2.655,16.608 C2.504,16.362 2.393,16.094 2.326,15.814 C2.25,15.495 2.25,15.166 2.25,14.747 L2.25,14.675 L2.25,9.325 L2.25,9.253 C2.25,8.834 2.25,8.505 2.326,8.186 C2.393,7.906 2.504,7.638 2.655,7.392 C2.826,7.112 3.059,6.879 3.356,6.584 L3.407,6.532 L6.532,3.407 L6.584,3.356 C6.879,3.059 7.112,2.826 7.392,2.655 C7.638,2.504 7.906,2.393 8.186,2.326 C8.505,2.25 8.834,2.25 9.253,2.25 Z M9.47,15.53 C9.763,15.823 10.237,15.823 10.53,15.53 C10.823,15.237 10.823,14.763 10.53,14.47 L8.061,12 L10.53,9.53 C10.823,9.237 10.823,8.763 10.53,8.47 C10.237,8.177 9.763,8.177 9.47,8.47 L6.47,11.47 C6.329,11.61 6.25,11.801 6.25,12 C6.25,12.199 6.329,12.39 6.47,12.53 Z M13.47,15.53 C13.763,15.823 14.237,15.823 14.53,15.53 L17.53,12.53 C17.671,12.39 17.75,12.199 17.75,12 C17.75,11.801 17.671,11.61 17.53,11.47 L14.53,8.47 C14.237,8.177 13.763,8.177 13.47,8.47 C13.177,8.763 13.177,9.237 13.47,9.53 L15.939,12 L13.47,14.47 C13.177,14.763 13.177,15.237 13.47,15.53 Z"/>
</svg>

