<svg xmlns="http://www.w3.org/2000/svg" viewBox="0 0 24 24">
  <defs/>
  <path fill="#151E28" d="M12,1.25 C17.937,1.25 22.75,6.063 22.75,12 C22.75,17.937 17.937,22.75 12,22.75 C6.063,22.75 1.25,17.937 1.25,12 C1.25,6.063 6.063,1.25 12,1.25 Z M10.47,8.47 L7.47,11.47 C7.177,11.763 7.177,12.237 7.47,12.53 L10.47,15.53 C10.763,15.823 11.237,15.823 11.53,15.53 C11.823,15.237 11.823,14.763 11.53,14.47 L9.061,12 L11.53,9.53 C11.823,9.237 11.823,8.763 11.53,8.47 C11.237,8.177 10.763,8.177 10.47,8.47 Z M15.53,8.47 C15.237,8.177 14.763,8.177 14.47,8.47 L11.47,11.47 C11.177,11.763 11.177,12.237 11.47,12.53 L14.47,15.53 C14.763,15.823 15.237,15.823 15.53,15.53 C15.823,15.237 15.823,14.763 15.53,14.47 L13.061,12 L15.53,9.53 C15.823,9.237 15.823,8.763 15.53,8.47 Z"/>
</svg>

