<svg xmlns="http://www.w3.org/2000/svg" viewBox="0 0 24 24">
  <defs/>
  <path fill="#151E28" d="M10.019,2.25 L14.633,2.25 C15.725,2.25 16.591,2.25 17.288,2.307 C18.002,2.365 18.605,2.487 19.156,2.768 C20.05,3.223 20.777,3.95 21.232,4.844 C21.513,5.395 21.635,5.999 21.693,6.712 C21.722,7.062 21.736,7.455 21.743,7.897 C21.748,7.931 21.75,7.965 21.75,8 C21.75,8.028 21.749,8.056 21.746,8.083 C21.75,8.472 21.75,8.898 21.75,9.366 L21.75,14.633 C21.75,15.725 21.75,16.591 21.693,17.288 C21.635,18.002 21.513,18.605 21.232,19.157 C20.777,20.051 20.05,20.777 19.156,21.233 C18.605,21.513 18.002,21.635 17.288,21.693 C16.591,21.75 15.725,21.75 14.633,21.75 L9.367,21.75 C8.275,21.75 7.409,21.75 6.712,21.693 C5.998,21.635 5.395,21.513 4.844,21.233 C3.95,20.777 3.223,20.051 2.768,19.157 C2.487,18.605 2.365,18.002 2.307,17.288 C2.25,16.591 2.25,15.725 2.25,14.633 L2.25,9.367 C2.25,8.899 2.25,8.472 2.254,8.083 C2.252,8.056 2.25,8.028 2.25,8 C2.25,7.965 2.252,7.931 2.257,7.897 C2.264,7.455 2.278,7.062 2.307,6.712 C2.365,5.999 2.487,5.395 2.768,4.844 C3.223,3.95 3.95,3.223 4.844,2.768 C5.395,2.487 5.998,2.365 6.712,2.307 C7.409,2.25 8.275,2.25 9.367,2.25 L9.982,2.25 C9.995,2.25 10.007,2.25 10.019,2.25 Z M14.6,3.75 L10.425,3.75 L8.325,7.25 L13.575,7.25 L15.674,3.753 C15.352,3.75 14.996,3.75 14.6,3.75 Z M6.25,16 C6.25,16.414 6.586,16.75 7,16.75 L15,16.75 C15.414,16.75 15.75,16.414 15.75,16 C15.75,15.586 15.414,15.25 15,15.25 L7,15.25 C6.586,15.25 6.25,15.586 6.25,16 Z M20.198,6.834 C20.147,6.213 20.051,5.829 19.896,5.525 C19.584,4.913 19.087,4.416 18.476,4.104 C18.207,3.968 17.877,3.877 17.377,3.822 C17.367,3.844 17.356,3.865 17.343,3.886 L15.325,7.25 L20.224,7.25 C20.217,7.103 20.209,6.965 20.198,6.834 Z M6.575,7.25 L8.675,3.751 C7.91,3.753 7.32,3.763 6.834,3.802 C6.213,3.853 5.829,3.949 5.525,4.104 C4.913,4.416 4.416,4.913 4.104,5.525 C3.949,5.829 3.853,6.213 3.802,6.834 C3.791,6.965 3.783,7.103 3.776,7.25 Z M6.25,12 C6.25,12.414 6.586,12.75 7,12.75 L11,12.75 C11.414,12.75 11.75,12.414 11.75,12 C11.75,11.586 11.414,11.25 11,11.25 L7,11.25 C6.586,11.25 6.25,11.586 6.25,12 Z"/>
</svg>

