<svg xmlns="http://www.w3.org/2000/svg" viewBox="0 0 24 24">
  <defs/>
  <path fill="#151E28" d="M17.232,2.293 C17.778,2.338 18.258,2.432 18.702,2.659 C19.408,3.018 19.982,3.592 20.341,4.298 C20.568,4.742 20.662,5.222 20.707,5.769 C20.75,6.299 20.75,6.955 20.75,7.768 L20.75,16.232 C20.75,17.045 20.75,17.701 20.707,18.232 C20.662,18.778 20.568,19.258 20.341,19.702 C19.982,20.408 19.408,20.982 18.702,21.341 C18.258,21.568 17.778,21.662 17.232,21.707 C16.701,21.75 16.045,21.75 15.232,21.75 L8.768,21.75 C7.955,21.75 7.299,21.75 6.769,21.707 C6.222,21.662 5.742,21.568 5.298,21.341 C4.592,20.982 4.018,20.408 3.659,19.702 C3.432,19.258 3.338,18.778 3.293,18.232 C3.25,17.701 3.25,17.045 3.25,16.232 L3.25,7.768 C3.25,6.955 3.25,6.299 3.293,5.769 C3.338,5.222 3.432,4.742 3.659,4.298 C4.018,3.592 4.592,3.018 5.298,2.659 C5.742,2.432 6.222,2.338 6.769,2.293 C7.206,2.258 7.728,2.251 8.353,2.25 C8.68,1.096 9.741,0.25 11,0.25 L13,0.25 C14.259,0.25 15.32,1.096 15.646,2.25 C16.272,2.251 16.794,2.258 17.232,2.293 Z M8.97,8.97 C8.677,9.263 8.677,9.737 8.97,10.03 L10.939,12 L8.97,13.97 C8.677,14.263 8.677,14.737 8.97,15.03 C9.263,15.323 9.737,15.323 10.03,15.03 L12,13.061 L13.97,15.03 C14.263,15.323 14.737,15.323 15.03,15.03 C15.323,14.737 15.323,14.263 15.03,13.97 L13.061,12 L15.03,10.03 C15.323,9.737 15.323,9.263 15.03,8.97 C14.737,8.677 14.263,8.677 13.97,8.97 L12,10.939 L10.03,8.97 C9.737,8.677 9.263,8.677 8.97,8.97 Z M11,1.75 C10.31,1.75 9.75,2.31 9.75,3 C9.75,3.69 10.31,4.25 11,4.25 L13,4.25 C13.69,4.25 14.25,3.69 14.25,3 C14.25,2.31 13.69,1.75 13,1.75 Z"/>
</svg>

