<svg xmlns="http://www.w3.org/2000/svg" viewBox="0 0 24 24">
  <defs/>
  <path fill="#151E28" d="M12,2.25 C17.385,2.25 21.75,6.615 21.75,12 C21.75,17.385 17.385,21.75 12,21.75 C6.615,21.75 2.25,17.385 2.25,12 C2.25,6.615 6.615,2.25 12,2.25 Z M12,7.25 C11.586,7.25 11.25,7.586 11.25,8 L11.25,12 C11.25,12.251 11.375,12.485 11.584,12.624 L14.584,14.624 C14.929,14.854 15.394,14.761 15.624,14.416 C15.854,14.071 15.761,13.606 15.416,13.376 L12.75,11.599 L12.75,8 C12.75,7.586 12.414,7.25 12,7.25 Z"/>
</svg>

