<svg xmlns="http://www.w3.org/2000/svg" viewBox="0 0 24 24">
  <defs/>
  <path fill="#151E28" d="M6.952,19 C6.902,19.245 6.888,19.497 6.913,19.749 C3.778,19.703 1.25,17.147 1.25,14 C1.25,11.064 3.451,8.641 6.293,8.293 C6.641,5.451 9.064,3.25 12,3.25 C14.936,3.25 17.358,5.451 17.707,8.293 C20.549,8.641 22.75,11.064 22.75,14 C22.75,17.147 20.222,19.704 17.086,19.749 C17.111,19.497 17.097,19.245 17.047,19 L17.041,18.973 C16.987,18.72 16.893,18.476 16.763,18.25 C16.713,18.164 16.659,18.08 16.598,18 C17.18,17.223 17.279,16.144 16.763,15.25 C16.247,14.356 15.263,13.902 14.299,14.017 C13.918,13.125 13.032,12.5 12,12.5 C10.968,12.5 10.082,13.125 9.701,14.017 C8.737,13.902 7.752,14.356 7.236,15.25 C6.72,16.144 6.819,17.223 7.401,18 C7.341,18.08 7.286,18.164 7.236,18.25 C7.101,18.484 7.006,18.737 6.952,19 Z M12.75,15 L12.75,16.701 L14.223,15.851 C14.581,15.643 15.04,15.766 15.247,16.125 C15.454,16.484 15.331,16.942 14.973,17.149 L13.5,18 L14.972,18.851 C15.331,19.058 15.454,19.516 15.247,19.875 C15.04,20.234 14.581,20.357 14.222,20.149 L12.75,19.299 L12.75,21 C12.75,21.414 12.414,21.75 12,21.75 C11.586,21.75 11.25,21.414 11.25,21 L11.25,19.299 L9.776,20.149 C9.418,20.357 8.959,20.234 8.752,19.875 C8.545,19.516 8.668,19.058 9.026,18.851 L10.5,18 L9.026,17.149 C8.668,16.942 8.545,16.484 8.752,16.125 C8.959,15.766 9.418,15.643 9.776,15.851 L11.25,16.701 L11.25,15 C11.25,14.586 11.586,14.25 12,14.25 C12.414,14.25 12.75,14.586 12.75,15 Z"/>
</svg>

