<svg xmlns="http://www.w3.org/2000/svg" viewBox="0 0 24 24">
  <defs/>
  <path fill="#151E28" d="M17.468,16.6 C17.339,15.806 16.837,15.123 16.118,14.764 L15.912,14.661 L16.425,12.606 C16.698,11.516 16.21,10.378 15.232,9.825 C14.254,9.271 13.027,9.438 12.232,10.232 L7.232,15.232 C6.664,15.8 6.404,16.607 6.532,17.4 C6.581,17.702 6.684,17.989 6.833,18.247 C6.999,18.536 7.222,18.79 7.49,18.993 C7.612,19.085 7.743,19.167 7.882,19.236 L8.088,19.339 L7.986,19.75 L7,19.75 C3.824,19.75 1.25,17.176 1.25,14 C1.25,11.064 3.451,8.641 6.293,8.293 C6.641,5.451 9.064,3.25 12,3.25 C14.936,3.25 17.358,5.451 17.707,8.293 C20.549,8.641 22.75,11.064 22.75,14 C22.75,17.176 20.176,19.75 17,19.75 L15.785,19.75 L16.535,19 L16.768,18.768 C16.925,18.611 17.059,18.435 17.167,18.247 C17.45,17.754 17.561,17.173 17.468,16.6 Z M14.728,12.182 L13.873,15.598 L15.335,16.329 C15.551,16.437 15.702,16.642 15.74,16.88 C15.779,17.118 15.701,17.36 15.53,17.53 L10.53,22.53 C10.292,22.769 9.924,22.819 9.63,22.653 C9.337,22.487 9.191,22.145 9.272,21.818 L10.127,18.402 L8.665,17.671 C8.449,17.563 8.298,17.358 8.26,17.12 C8.221,16.882 8.299,16.64 8.47,16.47 L13.47,11.47 C13.708,11.231 14.076,11.181 14.37,11.347 C14.663,11.513 14.809,11.855 14.728,12.182 Z M11.335,17.329 C11.65,17.486 11.813,17.841 11.728,18.182 L11.384,19.555 L13.734,17.205 L12.665,16.671 C12.35,16.514 12.187,16.159 12.272,15.818 L12.616,14.445 L10.266,16.795 Z"/>
</svg>

