<svg xmlns="http://www.w3.org/2000/svg" viewBox="0 0 24 24">
  <defs/>
  <path fill="#151E28" d="M6.804,15.804 C6.033,16.225 5.508,17.04 5.5,17.978 L5.5,18 C5.5,18.284 5.547,18.557 5.635,18.811 C5.747,19.14 5.927,19.438 6.156,19.689 C3.381,19.281 1.25,16.889 1.25,14 C1.25,11.064 3.451,8.641 6.293,8.293 C6.641,5.451 9.064,3.25 12,3.25 C14.936,3.25 17.358,5.451 17.707,8.293 C20.549,8.641 22.75,11.064 22.75,14 C22.75,16.889 20.619,19.281 17.844,19.689 C18.073,19.438 18.253,19.14 18.365,18.811 C18.371,18.794 18.377,18.776 18.383,18.758 C18.459,18.519 18.5,18.264 18.5,18 L18.5,17.978 C18.492,17.04 17.967,16.225 17.196,15.804 C16.772,15.027 15.948,14.5 15,14.5 C14.052,14.5 13.228,15.027 12.804,15.804 C12.489,15.976 12.215,16.214 12,16.5 C11.785,16.214 11.511,15.976 11.196,15.804 C10.772,15.027 9.948,14.5 9,14.5 C8.052,14.5 7.228,15.027 6.804,15.804 Z M9.75,17 L9.75,17.25 L10,17.25 C10.414,17.25 10.75,17.586 10.75,18 C10.75,18.414 10.414,18.75 10,18.75 L9.75,18.75 L9.75,19 C9.75,19.414 9.414,19.75 9,19.75 C8.586,19.75 8.25,19.414 8.25,19 L8.25,18.75 L8,18.75 C7.586,18.75 7.25,18.414 7.25,18 C7.25,17.586 7.586,17.25 8,17.25 L8.25,17.25 L8.25,17 C8.25,16.586 8.586,16.25 9,16.25 C9.414,16.25 9.75,16.586 9.75,17 Z M15.75,17 L15.75,17.25 L16,17.25 C16.414,17.25 16.75,17.586 16.75,18 C16.75,18.414 16.414,18.75 16,18.75 L15.75,18.75 L15.75,19 C15.75,19.414 15.414,19.75 15,19.75 C14.586,19.75 14.25,19.414 14.25,19 L14.25,18.75 L14,18.75 C13.586,18.75 13.25,18.414 13.25,18 C13.25,17.586 13.586,17.25 14,17.25 L14.25,17.25 L14.25,17 C14.25,16.586 14.586,16.25 15,16.25 C15.414,16.25 15.75,16.586 15.75,17 Z M12.75,20 L12.75,20.25 L13,20.25 C13.414,20.25 13.75,20.586 13.75,21 C13.75,21.414 13.414,21.75 13,21.75 L12.75,21.75 L12.75,22 C12.75,22.414 12.414,22.75 12,22.75 C11.586,22.75 11.25,22.414 11.25,22 L11.25,21.75 L11,21.75 C10.586,21.75 10.25,21.414 10.25,21 C10.25,20.586 10.586,20.25 11,20.25 L11.25,20.25 L11.25,20 C11.25,19.586 11.586,19.25 12,19.25 C12.414,19.25 12.75,19.586 12.75,20 Z"/>
</svg>

