<svg xmlns="http://www.w3.org/2000/svg" viewBox="0 0 24 24">
  <defs/>
  <path fill="#151E28" d="M2.801,14.663 L2.232,15.232 C2.211,15.253 2.19,15.275 2.17,15.297 C1.943,15.54 1.77,15.824 1.657,16.128 C1.394,15.47 1.25,14.752 1.25,14 C1.25,11.064 3.451,8.641 6.293,8.293 C6.641,5.451 9.064,3.25 12,3.25 C14.936,3.25 17.358,5.451 17.707,8.293 C20.549,8.641 22.75,11.064 22.75,14 C22.75,17.007 20.441,19.475 17.5,19.729 L17.5,17 C17.5,15.619 16.381,14.5 15,14.5 C13.877,14.5 12.928,15.24 12.612,16.258 C12.575,16.253 12.538,16.25 12.5,16.25 C12.462,16.25 12.424,16.253 12.387,16.258 C12.187,15.613 11.731,15.071 11.118,14.764 L10.912,14.661 L11.425,12.606 C11.698,11.516 11.21,10.378 10.232,9.825 C9.254,9.271 8.027,9.438 7.232,10.232 Z M9.728,12.182 L8.874,15.598 L10.335,16.329 C10.551,16.437 10.702,16.642 10.74,16.88 C10.779,17.118 10.701,17.36 10.53,17.53 L5.53,22.53 C5.292,22.769 4.924,22.819 4.63,22.653 C4.337,22.487 4.191,22.145 4.272,21.818 L5.126,18.402 L3.665,17.671 C3.449,17.563 3.298,17.358 3.26,17.12 C3.221,16.882 3.299,16.64 3.47,16.47 L8.47,11.47 C8.708,11.231 9.076,11.181 9.37,11.347 C9.663,11.514 9.809,11.855 9.728,12.182 Z M6.335,17.329 C6.65,17.486 6.813,17.841 6.728,18.182 L6.384,19.555 L8.734,17.205 L7.665,16.671 C7.35,16.514 7.187,16.159 7.272,15.818 L7.616,14.445 L5.266,16.795 Z M15,16.25 C15.414,16.25 15.75,16.586 15.75,17 L15.75,19 C15.75,19.414 15.414,19.75 15,19.75 C14.586,19.75 14.25,19.414 14.25,19 L14.25,17 C14.25,16.586 14.586,16.25 15,16.25 Z M12,19.25 C12.414,19.25 12.75,19.586 12.75,20 L12.75,22 C12.75,22.414 12.414,22.75 12,22.75 C11.586,22.75 11.25,22.414 11.25,22 L11.25,20 C11.25,19.586 11.586,19.25 12,19.25 Z"/>
</svg>

