<svg xmlns="http://www.w3.org/2000/svg" viewBox="0 0 24 24">
  <defs/>
  <path fill="#151E28" d="M6.48,18.973 C6.555,19.076 6.639,19.175 6.732,19.268 L7.214,19.75 L7,19.75 C3.824,19.75 1.25,17.176 1.25,14 C1.25,11.064 3.451,8.641 6.293,8.293 C6.641,5.451 9.064,3.25 12,3.25 C14.936,3.25 17.358,5.451 17.707,8.293 C20.549,8.641 22.75,11.064 22.75,14 C22.75,17.176 20.176,19.75 17,19.75 L16.785,19.75 L17.268,19.268 C17.361,19.175 17.445,19.076 17.52,18.973 C17.542,18.943 17.564,18.912 17.584,18.881 C17.735,18.654 17.845,18.407 17.914,18.152 C18.139,17.316 17.923,16.388 17.268,15.732 C16.519,14.984 15.415,14.809 14.5,15.208 L14.5,12 C14.5,10.619 13.381,9.5 12,9.5 C10.619,9.5 9.5,10.619 9.5,12 L9.5,15.208 C8.585,14.809 7.481,14.984 6.732,15.732 C6.077,16.388 5.861,17.316 6.086,18.152 C6.164,18.442 6.295,18.721 6.48,18.973 Z M12.75,12 L12.75,19.189 L14.97,16.97 C15.263,16.677 15.737,16.677 16.03,16.97 C16.323,17.263 16.323,17.737 16.03,18.03 L12.53,21.53 C12.237,21.823 11.763,21.823 11.47,21.53 L7.97,18.03 C7.677,17.737 7.677,17.263 7.97,16.97 C8.263,16.677 8.737,16.677 9.03,16.97 L11.25,19.189 L11.25,12 C11.25,11.586 11.586,11.25 12,11.25 C12.414,11.25 12.75,11.586 12.75,12 Z"/>
</svg>

