<svg xmlns="http://www.w3.org/2000/svg" viewBox="0 0 24 24">
  <defs/>
  <path fill="#151E28" d="M17.196,15.804 C16.772,15.027 15.948,14.5 15,14.5 C14.052,14.5 13.228,15.027 12.804,15.804 C12.638,15.895 12.483,16.003 12.343,16.128 C12.124,15.54 11.69,15.05 11.118,14.764 L10.912,14.661 L11.425,12.606 C11.698,11.516 11.21,10.378 10.232,9.825 C9.254,9.271 8.027,9.438 7.232,10.232 L2.801,14.663 L2.232,15.232 C2.211,15.253 2.19,15.275 2.17,15.297 C1.943,15.54 1.77,15.824 1.657,16.128 C1.394,15.47 1.25,14.752 1.25,14 C1.25,11.064 3.451,8.641 6.293,8.293 C6.641,5.451 9.064,3.25 12,3.25 C14.936,3.25 17.358,5.451 17.707,8.293 C20.549,8.641 22.75,11.064 22.75,14 C22.75,16.889 20.619,19.281 17.844,19.689 C18.073,19.438 18.253,19.14 18.365,18.811 C18.453,18.557 18.5,18.284 18.5,18 L18.5,17.978 C18.492,17.04 17.967,16.225 17.196,15.804 Z M9.728,12.182 L8.874,15.598 L10.335,16.329 C10.551,16.437 10.702,16.642 10.74,16.88 C10.779,17.118 10.701,17.36 10.53,17.53 L5.53,22.53 C5.292,22.769 4.924,22.819 4.63,22.653 C4.337,22.487 4.191,22.145 4.272,21.818 L5.126,18.402 L3.665,17.671 C3.449,17.563 3.298,17.358 3.26,17.12 C3.221,16.882 3.299,16.64 3.47,16.47 L8.47,11.47 C8.708,11.231 9.076,11.181 9.37,11.347 C9.663,11.514 9.809,11.855 9.728,12.182 Z M12,19.25 C12.414,19.25 12.75,19.586 12.75,20 L12.75,20.25 L13,20.25 C13.414,20.25 13.75,20.586 13.75,21 C13.75,21.414 13.414,21.75 13,21.75 L12.75,21.75 L12.75,22 C12.75,22.414 12.414,22.75 12,22.75 C11.586,22.75 11.25,22.414 11.25,22 L11.25,21.75 L11,21.75 C10.586,21.75 10.25,21.414 10.25,21 C10.25,20.586 10.586,20.25 11,20.25 L11.25,20.25 L11.25,20 C11.25,19.586 11.586,19.25 12,19.25 Z M15.75,17 L15.75,17.25 L16,17.25 C16.414,17.25 16.75,17.586 16.75,18 C16.75,18.414 16.414,18.75 16,18.75 L15.75,18.75 L15.75,19 C15.75,19.414 15.414,19.75 15,19.75 C14.586,19.75 14.25,19.414 14.25,19 L14.25,18.75 L14,18.75 C13.586,18.75 13.25,18.414 13.25,18 C13.25,17.586 13.586,17.25 14,17.25 L14.25,17.25 L14.25,17 C14.25,16.586 14.586,16.25 15,16.25 C15.414,16.25 15.75,16.586 15.75,17 Z M6.335,17.329 C6.65,17.486 6.813,17.841 6.728,18.182 L6.384,19.555 L8.734,17.205 L7.665,16.671 C7.35,16.514 7.187,16.159 7.272,15.818 L7.616,14.445 L5.266,16.795 Z"/>
</svg>

