<svg xmlns="http://www.w3.org/2000/svg" viewBox="0 0 24 24">
  <defs/>
  <path fill="#151E28" d="M6.5,18.221 L6.5,19.729 C3.558,19.475 1.25,17.007 1.25,14 C1.25,11.064 3.451,8.641 6.293,8.293 C6.641,5.451 9.064,3.25 12,3.25 C14.936,3.25 17.358,5.451 17.707,8.293 C20.549,8.641 22.75,11.064 22.75,14 C22.75,17.007 20.441,19.475 17.5,19.729 L17.5,17 C17.5,15.619 16.381,14.5 15,14.5 C13.619,14.5 12.5,15.619 12.5,17 L12.5,17.55 C12.338,17.517 12.171,17.5 12,17.5 C11.829,17.5 11.662,17.517 11.5,17.55 L11.5,17 C11.5,15.619 10.381,14.5 9,14.5 C7.619,14.5 6.5,15.619 6.5,17 L6.5,18.221 Z M9.75,17 L9.75,19 C9.75,19.414 9.414,19.75 9,19.75 C8.586,19.75 8.25,19.414 8.25,19 L8.25,17 C8.25,16.586 8.586,16.25 9,16.25 C9.414,16.25 9.75,16.586 9.75,17 Z M15.75,17 L15.75,19 C15.75,19.414 15.414,19.75 15,19.75 C14.586,19.75 14.25,19.414 14.25,19 L14.25,17 C14.25,16.586 14.586,16.25 15,16.25 C15.414,16.25 15.75,16.586 15.75,17 Z M12.75,20 L12.75,22 C12.75,22.414 12.414,22.75 12,22.75 C11.586,22.75 11.25,22.414 11.25,22 L11.25,20 C11.25,19.586 11.586,19.25 12,19.25 C12.414,19.25 12.75,19.586 12.75,20 Z"/>
</svg>

