<svg xmlns="http://www.w3.org/2000/svg" viewBox="0 0 24 24">
  <defs/>
  <path fill="#151E28" d="M12,3.25 C14.936,3.25 17.358,5.451 17.707,8.293 C20.549,8.641 22.75,11.064 22.75,14 C22.75,17.176 20.176,19.75 17,19.75 L7,19.75 C3.824,19.75 1.25,17.176 1.25,14 C1.25,11.064 3.451,8.641 6.293,8.293 C6.641,5.451 9.064,3.25 12,3.25 Z M8.354,13.922 C8.737,13.635 9.263,13.635 9.646,13.922 C10.427,14.508 11.472,14.602 12.346,14.166 L13.335,13.671 C13.706,13.486 13.856,13.035 13.671,12.665 C13.486,12.294 13.035,12.144 12.665,12.329 L11.675,12.824 C11.31,13.007 10.873,12.967 10.547,12.722 C9.63,12.035 8.37,12.035 7.454,12.722 C7.127,12.967 6.69,13.007 6.325,12.824 L5.335,12.329 C4.965,12.144 4.514,12.294 4.329,12.665 C4.144,13.035 4.294,13.486 4.665,13.671 L5.654,14.166 C6.528,14.602 7.573,14.508 8.354,13.922 Z M14.646,17.422 C15.427,18.008 16.472,18.102 17.346,17.666 L18.335,17.171 C18.706,16.986 18.856,16.535 18.671,16.165 C18.486,15.794 18.035,15.644 17.665,15.829 L16.675,16.324 C16.31,16.507 15.873,16.467 15.547,16.222 C14.63,15.535 13.37,15.535 12.453,16.222 C12.127,16.467 11.69,16.507 11.325,16.324 L10.335,15.829 C9.965,15.644 9.514,15.794 9.329,16.165 C9.144,16.535 9.294,16.986 9.665,17.171 L10.654,17.666 C11.528,18.102 12.573,18.008 13.354,17.422 C13.737,17.135 14.263,17.135 14.646,17.422 Z"/>
</svg>

