<svg xmlns="http://www.w3.org/2000/svg" viewBox="0 0 24 24">
  <defs/>
  <path fill="#151E28" d="M9.5,18.25 L9.5,19.75 L7,19.75 C3.824,19.75 1.25,17.176 1.25,14 C1.25,11.064 3.451,8.641 6.293,8.293 C6.641,5.451 9.064,3.25 12,3.25 C14.936,3.25 17.358,5.451 17.707,8.293 C20.549,8.641 22.75,11.064 22.75,14 C22.75,17.176 20.176,19.75 17,19.75 L14.5,19.75 L14.5,17.792 C15.415,18.191 16.519,18.016 17.268,17.268 C18.244,16.292 18.244,14.708 17.268,13.732 L13.768,10.232 C12.792,9.256 11.208,9.256 10.232,10.232 L6.732,13.732 C5.756,14.708 5.756,16.292 6.732,17.268 C7.481,18.016 8.585,18.191 9.5,17.792 L9.5,18.25 Z M16.03,14.97 C16.323,15.263 16.323,15.737 16.03,16.03 C15.737,16.323 15.263,16.323 14.97,16.03 L12.75,13.811 L12.75,21 C12.75,21.414 12.414,21.75 12,21.75 C11.586,21.75 11.25,21.414 11.25,21 L11.25,13.811 L9.03,16.03 C8.737,16.323 8.263,16.323 7.97,16.03 C7.677,15.737 7.677,15.263 7.97,14.97 L11.47,11.47 C11.763,11.177 12.237,11.177 12.53,11.47 Z"/>
</svg>

