<svg xmlns="http://www.w3.org/2000/svg" viewBox="0 0 24 24">
  <defs/>
  <path fill="#151E28" d="M3.68,16.053 C2.314,14.678 1.857,12.734 2.137,10.773 C2.418,8.806 3.441,6.771 5.107,5.106 C6.772,3.44 8.807,2.417 10.774,2.136 C12.741,1.855 14.691,2.315 16.067,3.691 L16.067,3.692 L18.895,6.52 C21,8.625 21.808,11.535 21.32,14.259 L20.658,13.598 L19.955,12.894 L19.031,11.97 C18.738,11.677 18.263,11.677 17.97,11.97 C17.677,12.263 17.677,12.738 17.97,13.03 L19.671,14.731 L20.268,15.329 L20.852,15.913 C20.512,16.778 20.029,17.6 19.403,18.342 L18.87,17.809 L18.337,17.277 L17.031,15.97 C16.738,15.677 16.263,15.677 15.97,15.97 C15.677,16.263 15.677,16.737 15.97,17.03 L17.277,18.337 L17.809,18.87 L18.342,19.403 C17.6,20.029 16.778,20.512 15.912,20.851 L15.328,20.268 L14.731,19.67 L13.031,17.97 C12.738,17.677 12.263,17.677 11.97,17.97 C11.677,18.263 11.677,18.737 11.97,19.03 L12.894,19.955 L13.597,20.658 L14.259,21.319 C11.535,21.807 8.625,20.999 6.521,18.894 L3.692,16.066 Z M4.753,15.005 L4.753,15.005 C5.72,15.972 7.158,16.367 8.773,16.136 C10.389,15.905 12.133,15.049 13.592,13.591 C15.05,12.132 15.906,10.388 16.137,8.773 C16.368,7.157 15.973,5.719 15.006,4.752 L14.996,4.742 C14.029,3.782 12.595,3.391 10.986,3.621 C9.37,3.852 7.626,4.708 6.167,6.166 C4.709,7.625 3.853,9.369 3.622,10.985 C3.391,12.6 3.786,14.038 4.753,15.005 Z M5.152,10.697 C5.446,9.521 6.172,8.283 7.227,7.227 C8.283,6.172 9.521,5.446 10.697,5.151 C11.857,4.862 13.1,4.968 13.945,5.813 C14.79,6.658 14.897,7.901 14.607,9.061 C14.313,10.238 13.587,11.475 12.531,12.531 C11.475,13.587 10.238,14.312 9.061,14.607 C7.901,14.897 6.659,14.79 5.813,13.945 C4.968,13.1 4.862,11.857 5.152,10.697 Z"/>
</svg>

