<svg xmlns="http://www.w3.org/2000/svg" viewBox="0 0 24 24">
  <defs/>
  <path fill="#151E28" d="M11,1.25 L13,1.25 C14.519,1.25 15.75,2.481 15.75,4 L15.75,4.098 C15.75,4.388 15.905,4.656 16.156,4.801 C16.407,4.947 16.717,4.947 16.968,4.802 L17.053,4.752 C18.368,3.993 20.05,4.444 20.81,5.759 L21.81,7.491 C22.569,8.806 22.118,10.488 20.803,11.248 L20.718,11.297 C20.467,11.442 20.312,11.71 20.312,12 C20.312,12.29 20.467,12.558 20.718,12.703 L20.803,12.752 C22.118,13.512 22.569,15.194 21.81,16.509 L20.81,18.241 C20.05,19.556 18.368,20.007 17.053,19.248 L16.968,19.199 C16.717,19.053 16.407,19.053 16.156,19.199 C15.905,19.344 15.75,19.612 15.75,19.902 L15.75,20 C15.75,21.519 14.519,22.75 13,22.75 L11,22.75 C9.481,22.75 8.25,21.519 8.25,20 L8.25,19.902 C8.25,19.612 8.095,19.344 7.844,19.199 C7.593,19.053 7.283,19.053 7.032,19.199 L6.947,19.248 C5.631,20.007 3.95,19.556 3.19,18.241 L2.19,16.509 C1.431,15.194 1.881,13.512 3.197,12.752 L3.282,12.703 C3.533,12.558 3.688,12.29 3.688,12 C3.688,11.71 3.533,11.442 3.282,11.297 L3.197,11.248 C1.881,10.488 1.431,8.806 2.19,7.491 L3.19,5.759 C3.95,4.444 5.631,3.993 6.947,4.752 L7.032,4.801 C7.283,4.947 7.593,4.947 7.844,4.801 C8.095,4.656 8.25,4.388 8.25,4.098 L8.25,4 C8.25,2.481 9.481,1.25 11,1.25 Z M9,11.8 L9,12.2 C9,13.746 10.254,15 11.8,15 L12.2,15 C13.746,15 15,13.746 15,12.2 L15,11.8 C15,10.254 13.746,9 12.2,9 L11.8,9 C10.254,9 9,10.254 9,11.8 Z"/>
</svg>

