<svg xmlns="http://www.w3.org/2000/svg" viewBox="0 0 24 24">
  <defs/>
  <path fill="#151E28" d="M11.798,1.25 L12.202,1.25 C13.609,1.25 14.75,2.391 14.75,3.798 L14.75,4.169 C14.75,4.369 14.87,4.549 15.055,4.625 C15.239,4.702 15.452,4.659 15.593,4.518 L15.855,4.256 C16.85,3.261 18.464,3.261 19.459,4.256 L19.744,4.541 C20.739,5.536 20.739,7.15 19.744,8.145 L19.482,8.407 C19.341,8.548 19.299,8.761 19.375,8.945 C19.451,9.13 19.631,9.25 19.831,9.25 L20.202,9.25 C21.609,9.25 22.75,10.391 22.75,11.798 L22.75,12.202 C22.75,13.609 21.609,14.75 20.202,14.75 L19.831,14.75 C19.631,14.75 19.451,14.87 19.375,15.055 C19.299,15.239 19.341,15.452 19.482,15.593 L19.744,15.855 C20.739,16.85 20.739,18.464 19.744,19.459 L19.459,19.744 C18.464,20.739 16.85,20.739 15.855,19.744 L15.593,19.482 C15.452,19.341 15.239,19.299 15.055,19.375 C14.87,19.451 14.75,19.631 14.75,19.831 L14.75,20.202 C14.75,21.609 13.609,22.75 12.202,22.75 L11.798,22.75 C10.391,22.75 9.25,21.609 9.25,20.202 L9.25,19.831 C9.25,19.631 9.13,19.451 8.945,19.375 C8.761,19.299 8.548,19.341 8.407,19.482 L8.145,19.744 C7.15,20.739 5.536,20.739 4.541,19.744 L4.256,19.459 C3.261,18.464 3.261,16.85 4.256,15.855 L4.518,15.593 C4.659,15.452 4.702,15.239 4.625,15.055 C4.549,14.87 4.369,14.75 4.169,14.75 L3.798,14.75 C2.391,14.75 1.25,13.609 1.25,12.202 L1.25,11.798 C1.25,10.391 2.391,9.25 3.798,9.25 L4.169,9.25 C4.369,9.25 4.549,9.13 4.625,8.945 C4.702,8.761 4.659,8.548 4.518,8.407 L4.256,8.145 C3.261,7.15 3.261,5.536 4.256,4.541 L4.541,4.256 C5.536,3.261 7.15,3.261 8.145,4.256 L8.407,4.518 C8.548,4.659 8.761,4.702 8.945,4.625 C9.13,4.549 9.25,4.369 9.25,4.169 L9.25,3.798 C9.25,2.391 10.391,1.25 11.798,1.25 Z M9,11.8 L9,12.2 C9,13.746 10.254,15 11.8,15 L12.2,15 C13.746,15 15,13.746 15,12.2 L15,11.8 C15,10.254 13.746,9 12.2,9 L11.8,9 C10.254,9 9,10.254 9,11.8 Z"/>
</svg>

