<svg xmlns="http://www.w3.org/2000/svg" viewBox="0 0 24 24">
  <defs/>
  <path fill="#151E28" d="M17.83,11.25 C18.365,11.25 18.81,11.25 19.175,11.279 C19.555,11.31 19.911,11.377 20.249,11.549 C20.766,11.813 21.187,12.234 21.45,12.751 C21.622,13.088 21.689,13.445 21.72,13.825 C21.75,14.189 21.75,14.635 21.75,15.169 L21.75,17.83 C21.75,18.364 21.75,18.81 21.72,19.174 C21.689,19.554 21.622,19.911 21.45,20.248 C21.187,20.765 20.766,21.186 20.249,21.45 C19.911,21.622 19.555,21.689 19.175,21.72 C18.81,21.75 18.365,21.75 17.83,21.75 L17.17,21.75 C16.635,21.75 16.19,21.75 15.825,21.72 C15.446,21.689 15.089,21.622 14.752,21.45 C14.234,21.186 13.813,20.765 13.55,20.248 C13.378,19.911 13.311,19.554 13.28,19.174 C13.25,18.81 13.25,18.364 13.25,17.83 L13.25,15.169 C13.25,14.635 13.25,14.189 13.28,13.825 C13.311,13.445 13.378,13.088 13.55,12.751 C13.813,12.234 14.234,11.813 14.752,11.549 C15.089,11.377 15.446,11.31 15.825,11.279 C16.19,11.25 16.635,11.25 17.17,11.25 L17.83,11.25 Z M6.17,2.25 L6.831,2.25 C7.365,2.25 7.811,2.25 8.175,2.279 C8.555,2.31 8.911,2.377 9.249,2.549 C9.766,2.813 10.187,3.234 10.45,3.751 C10.622,4.088 10.689,4.445 10.72,4.825 C10.75,5.189 10.75,5.635 10.75,6.169 L10.75,8.83 C10.75,9.364 10.75,9.81 10.72,10.174 C10.689,10.554 10.622,10.911 10.45,11.248 C10.187,11.766 9.766,12.186 9.249,12.45 C8.911,12.622 8.555,12.689 8.175,12.72 C7.811,12.75 7.365,12.75 6.831,12.75 L6.17,12.75 C5.635,12.75 5.19,12.75 4.825,12.72 C4.445,12.689 4.089,12.622 3.752,12.45 C3.234,12.186 2.813,11.766 2.55,11.248 C2.378,10.911 2.311,10.554 2.28,10.174 C2.25,9.81 2.25,9.364 2.25,8.83 L2.25,6.169 C2.25,5.635 2.25,5.189 2.28,4.825 C2.311,4.445 2.378,4.088 2.55,3.751 C2.813,3.234 3.234,2.813 3.752,2.549 C4.089,2.377 4.445,2.31 4.825,2.279 C5.19,2.25 5.635,2.25 6.17,2.25 L6.17,2.25 Z M18.573,2.25 C18.966,2.249 19.269,2.249 19.537,2.302 C20.627,2.519 21.48,3.372 21.697,4.463 C21.75,4.731 21.75,5.034 21.75,5.426 L21.75,5.5 L21.75,5.573 C21.75,5.966 21.75,6.269 21.697,6.536 C21.48,7.627 20.627,8.48 19.537,8.697 C19.269,8.75 18.966,8.75 18.573,8.75 L18.5,8.75 L16.5,8.75 L16.427,8.75 L16.427,8.75 C16.034,8.75 15.731,8.75 15.464,8.697 C14.373,8.48 13.52,7.627 13.303,6.536 C13.25,6.269 13.25,5.966 13.25,5.573 L13.25,5.426 C13.25,5.034 13.25,4.731 13.303,4.463 C13.52,3.372 14.373,2.519 15.464,2.302 C15.731,2.249 16.034,2.249 16.427,2.25 L16.5,2.25 Z M5.5,15.25 L7.5,15.25 L7.573,15.25 C7.966,15.249 8.269,15.249 8.537,15.302 C9.627,15.519 10.48,16.372 10.697,17.463 C10.75,17.731 10.75,18.034 10.75,18.426 L10.75,18.5 L10.75,18.573 C10.75,18.966 10.75,19.269 10.697,19.536 C10.48,20.627 9.627,21.48 8.537,21.697 C8.269,21.75 7.966,21.75 7.573,21.75 L5.427,21.75 C5.034,21.75 4.731,21.75 4.464,21.697 C3.373,21.48 2.52,20.627 2.303,19.536 C2.25,19.269 2.25,18.966 2.25,18.573 L2.25,18.5 L2.25,18.426 C2.25,18.034 2.25,17.731 2.303,17.463 C2.52,16.372 3.373,15.519 4.464,15.302 C4.731,15.249 5.034,15.249 5.427,15.25 Z"/>
</svg>

