<svg xmlns="http://www.w3.org/2000/svg" viewBox="0 0 24 24">
  <defs/>
  <path fill="#151E28" d="M13.117,2.479 C13.602,2.695 13.961,3.093 14.285,3.55 C14.606,4.004 14.961,4.617 15.399,5.375 L15.399,5.375 L15.418,5.408 L20.868,14.821 L20.887,14.854 C21.327,15.614 21.684,16.229 21.918,16.736 C22.154,17.245 22.321,17.756 22.266,18.285 C22.185,19.061 21.779,19.766 21.148,20.224 C20.718,20.537 20.192,20.648 19.633,20.699 C19.077,20.75 18.366,20.75 17.488,20.75 L6.512,20.75 C5.634,20.75 4.923,20.75 4.367,20.699 C3.808,20.648 3.282,20.537 2.852,20.224 C2.221,19.766 1.815,19.061 1.734,18.285 C1.679,17.756 1.846,17.245 2.082,16.736 C2.316,16.229 2.673,15.614 3.113,14.854 L3.132,14.821 L8.582,5.408 L8.601,5.375 C9.039,4.618 9.394,4.004 9.715,3.55 C10.039,3.093 10.398,2.695 10.883,2.479 C11.594,2.163 12.406,2.163 13.117,2.479 Z M11.75,15.75 L12.25,15.75 L12.25,16.25 C12.25,17.355 13.145,18.25 14.25,18.25 C15.354,18.25 16.25,17.355 16.25,16.25 C16.25,15.146 15.354,14.25 14.25,14.25 L13.75,14.25 L13.75,13.75 L14.25,13.75 C15.355,13.75 16.25,12.854 16.25,11.75 C16.25,10.645 15.354,9.75 14.25,9.75 C13.145,9.75 12.25,10.645 12.25,11.75 L12.25,12.25 L11.75,12.25 L11.75,11.75 C11.75,10.645 10.855,9.75 9.75,9.75 C8.645,9.75 7.75,10.645 7.75,11.75 C7.75,12.855 8.645,13.75 9.75,13.75 L10.25,13.75 L10.25,14.25 L9.75,14.25 C8.646,14.25 7.75,15.145 7.75,16.25 C7.75,17.354 8.645,18.25 9.75,18.25 C10.855,18.25 11.75,17.355 11.75,16.25 Z M9.75,11.25 C10.026,11.25 10.25,11.474 10.25,11.75 L10.25,12.25 L9.75,12.25 C9.474,12.25 9.25,12.026 9.25,11.75 C9.25,11.474 9.474,11.25 9.75,11.25 Z M9.25,16.25 C9.25,15.974 9.474,15.75 9.75,15.75 L10.25,15.75 L10.25,16.25 C10.25,16.526 10.026,16.75 9.75,16.75 C9.474,16.75 9.25,16.526 9.25,16.25 Z M13.75,11.75 C13.75,11.474 13.974,11.25 14.25,11.25 C14.526,11.25 14.75,11.474 14.75,11.75 C14.75,12.026 14.526,12.25 14.25,12.25 L13.75,12.25 Z M13.75,15.75 L14.25,15.75 C14.526,15.75 14.75,15.974 14.75,16.25 C14.75,16.526 14.526,16.75 14.25,16.75 C13.974,16.75 13.75,16.526 13.75,16.25 Z M11.75,13.75 L12.25,13.75 L12.25,14.25 L11.75,14.25 Z"/>
</svg>

