<svg xmlns="http://www.w3.org/2000/svg" viewBox="0 0 24 24">
  <defs/>
  <path fill="#151E28" d="M12,2.25 C17.385,2.25 21.75,6.615 21.75,12 C21.75,17.385 17.385,21.75 12,21.75 C6.615,21.75 2.25,17.385 2.25,12 C2.25,6.615 6.615,2.25 12,2.25 Z M11.25,9.75 L11.25,9 C11.25,7.757 10.243,6.75 9,6.75 C7.757,6.75 6.75,7.757 6.75,9 C6.75,10.243 7.757,11.25 9,11.25 L9.75,11.25 L9.75,12.75 L9,12.75 C7.757,12.75 6.75,13.757 6.75,15 C6.75,16.243 7.757,17.25 9,17.25 C10.242,17.25 11.25,16.243 11.25,15 L11.25,14.25 L12.75,14.25 L12.75,15 C12.75,16.243 13.757,17.25 15,17.25 C16.242,17.25 17.25,16.243 17.25,15 C17.25,13.757 16.242,12.75 15,12.75 L14.25,12.75 L14.25,11.25 L15,11.25 C16.242,11.25 17.25,10.243 17.25,9 C17.25,7.757 16.242,6.75 15,6.75 C13.757,6.75 12.75,7.757 12.75,9 L12.75,9.75 Z M12.75,12.75 L11.25,12.75 L11.25,11.25 L12.75,11.25 Z M9,14.25 L9.75,14.25 L9.75,15 C9.75,15.414 9.414,15.75 9,15.75 C8.585,15.75 8.25,15.414 8.25,15 C8.25,14.586 8.585,14.25 9,14.25 Z M8.25,9 C8.25,8.586 8.586,8.25 9,8.25 C9.414,8.25 9.75,8.586 9.75,9 L9.75,9.75 L9,9.75 C8.586,9.75 8.25,9.414 8.25,9 Z M15,8.25 C15.414,8.25 15.75,8.586 15.75,9 C15.75,9.414 15.414,9.75 15,9.75 L14.25,9.75 L14.25,9 C14.25,8.586 14.585,8.25 15,8.25 Z M14.25,14.25 L15,14.25 C15.414,14.25 15.75,14.586 15.75,15 C15.75,15.414 15.414,15.75 15,15.75 C14.585,15.75 14.25,15.414 14.25,15 Z"/>
</svg>

