<svg xmlns="http://www.w3.org/2000/svg" viewBox="0 0 24 24">
  <defs/>
  <path fill="#151E28" d="M12,2.25 C17.385,2.25 21.75,6.615 21.75,12 C21.75,17.385 17.385,21.75 12,21.75 C6.615,21.75 2.25,17.385 2.25,12 C2.25,6.615 6.615,2.25 12,2.25 Z M15.53,8.47 C15.353,8.292 15.099,8.215 14.853,8.265 L11.945,8.846 L11.83,8.869 C11.187,8.997 10.682,9.098 10.262,9.355 C9.892,9.582 9.582,9.893 9.355,10.262 C9.097,10.682 8.997,11.187 8.869,11.83 L8.846,11.945 L8.264,14.853 C8.215,15.099 8.292,15.353 8.469,15.53 C8.647,15.708 8.901,15.785 9.147,15.735 L12.055,15.154 L12.17,15.131 C12.813,15.003 13.317,14.902 13.738,14.644 C14.107,14.418 14.418,14.107 14.644,13.738 C14.902,13.318 15.003,12.813 15.131,12.17 L15.154,12.055 L15.735,9.147 C15.784,8.901 15.707,8.647 15.53,8.47 Z"/>
</svg>

