<svg xmlns="http://www.w3.org/2000/svg" viewBox="0 0 24 24">
  <defs/>
  <path fill="#151E28" d="M12,2.25 C17.385,2.25 21.75,6.615 21.75,12 C21.75,17.385 17.385,21.75 12,21.75 C6.615,21.75 2.25,17.385 2.25,12 C2.25,6.615 6.615,2.25 12,2.25 Z M12,8.75 C12.971,8.75 13.841,9.175 14.438,9.85 C14.712,10.161 15.186,10.191 15.496,9.916 C15.807,9.642 15.836,9.168 15.562,8.858 C14.693,7.873 13.419,7.25 12,7.25 C9.377,7.25 7.25,9.377 7.25,12 C7.25,14.623 9.377,16.75 12,16.75 C13.419,16.75 14.693,16.127 15.562,15.142 C15.836,14.832 15.807,14.358 15.496,14.083 C15.186,13.809 14.712,13.839 14.438,14.149 C13.841,14.825 12.971,15.25 12,15.25 C10.205,15.25 8.75,13.795 8.75,12 C8.75,10.205 10.205,8.75 12,8.75 Z"/>
</svg>

