<svg xmlns="http://www.w3.org/2000/svg" viewBox="0 0 24 24">
  <defs/>
  <path fill="#151E28" d="M8,1.25 C8.414,1.25 8.75,1.586 8.75,2 L8.75,4.304 C9.416,4.252 10.232,4.25 11.25,4.25 L11.25,2 C11.25,1.586 11.586,1.25 12,1.25 C12.414,1.25 12.75,1.586 12.75,2 L12.75,4.25 C13.768,4.25 14.584,4.252 15.25,4.304 L15.25,2 C15.25,1.586 15.586,1.25 16,1.25 C16.414,1.25 16.75,1.586 16.75,2 L16.75,4.592 C16.889,4.642 17.024,4.7 17.156,4.768 C18.05,5.223 18.777,5.95 19.232,6.844 C19.3,6.976 19.358,7.111 19.408,7.25 L22,7.25 C22.414,7.25 22.75,7.586 22.75,8 C22.75,8.414 22.414,8.75 22,8.75 L19.696,8.75 C19.748,9.416 19.75,10.232 19.75,11.25 L22,11.25 C22.414,11.25 22.75,11.586 22.75,12 C22.75,12.414 22.414,12.75 22,12.75 L19.75,12.75 C19.75,13.768 19.748,14.584 19.696,15.25 L22,15.25 C22.414,15.25 22.75,15.586 22.75,16 C22.75,16.414 22.414,16.75 22,16.75 L19.408,16.75 C19.358,16.889 19.3,17.024 19.232,17.156 C18.777,18.05 18.05,18.777 17.156,19.232 C17.024,19.3 16.889,19.358 16.75,19.408 L16.75,22 C16.75,22.414 16.414,22.75 16,22.75 C15.586,22.75 15.25,22.414 15.25,22 L15.25,19.696 C14.584,19.748 13.768,19.75 12.75,19.75 L12.75,22 C12.75,22.414 12.414,22.75 12,22.75 C11.586,22.75 11.25,22.414 11.25,22 L11.25,19.75 C10.232,19.75 9.416,19.748 8.75,19.696 L8.75,22 C8.75,22.414 8.414,22.75 8,22.75 C7.586,22.75 7.25,22.414 7.25,22 L7.25,19.408 C7.111,19.358 6.976,19.3 6.844,19.232 C5.95,18.777 5.223,18.05 4.768,17.156 C4.7,17.024 4.642,16.889 4.592,16.75 L2,16.75 C1.586,16.75 1.25,16.414 1.25,16 C1.25,15.586 1.586,15.25 2,15.25 L4.304,15.25 C4.252,14.584 4.25,13.768 4.25,12.75 L2,12.75 C1.586,12.75 1.25,12.414 1.25,12 C1.25,11.586 1.586,11.25 2,11.25 L4.25,11.25 C4.25,10.232 4.252,9.416 4.304,8.75 L2,8.75 C1.586,8.75 1.25,8.414 1.25,8 C1.25,7.586 1.586,7.25 2,7.25 L4.592,7.25 C4.642,7.111 4.7,6.976 4.768,6.844 C5.223,5.95 5.95,5.223 6.844,4.768 C6.976,4.7 7.111,4.642 7.25,4.592 L7.25,2 C7.25,1.586 7.586,1.25 8,1.25 Z M9,12 C9,12.932 9,13.398 9.152,13.765 C9.355,14.255 9.745,14.645 10.235,14.848 C10.602,15 11.068,15 12,15 C12.932,15 13.398,15 13.765,14.848 C14.255,14.645 14.645,14.255 14.848,13.765 C15,13.398 15,12.932 15,12 C15,11.068 15,10.602 14.848,10.235 C14.645,9.745 14.255,9.355 13.765,9.152 C13.398,9 12.932,9 12,9 C11.068,9 10.602,9 10.235,9.152 C9.745,9.355 9.355,9.745 9.152,10.235 C9,10.602 9,11.068 9,12 Z"/>
</svg>

