<svg xmlns="http://www.w3.org/2000/svg" viewBox="0 0 24 24">
  <defs/>
  <path fill="#151E28" d="M6.767,3.25 L17.232,3.25 C18.045,3.25 18.7,3.25 19.231,3.293 C19.778,3.338 20.258,3.432 20.702,3.659 C21.408,4.018 21.981,4.592 22.341,5.298 C22.567,5.742 22.662,6.222 22.706,6.769 C22.734,7.105 22.744,7.492 22.747,7.937 C22.749,7.958 22.75,7.979 22.75,8 C22.75,8.018 22.749,8.035 22.748,8.052 C22.75,8.275 22.75,8.512 22.75,8.765 L22.75,15.232 C22.75,16.045 22.75,16.701 22.706,17.232 C22.662,17.778 22.567,18.258 22.341,18.702 C21.981,19.408 21.408,19.982 20.702,20.341 C20.258,20.568 19.778,20.662 19.231,20.707 C18.7,20.75 18.045,20.75 17.232,20.75 L6.767,20.75 C5.955,20.75 5.299,20.75 4.768,20.707 C4.221,20.662 3.741,20.568 3.297,20.341 C2.591,19.982 2.018,19.408 1.658,18.702 C1.432,18.258 1.338,17.778 1.293,17.232 C1.25,16.701 1.25,16.045 1.25,15.232 L1.25,8.768 C1.25,8.512 1.25,8.271 1.251,8.045 C1.25,8.03 1.25,8.015 1.25,8 C1.25,7.981 1.25,7.962 1.252,7.944 C1.255,7.496 1.265,7.107 1.293,6.769 C1.338,6.222 1.432,5.742 1.658,5.298 C2.018,4.592 2.591,4.018 3.297,3.659 C3.741,3.432 4.221,3.338 4.768,3.293 C5.299,3.25 5.955,3.25 6.767,3.25 Z M2.75,8.75 L2.75,15.2 C2.75,16.052 2.75,16.647 2.788,17.109 C2.825,17.563 2.894,17.824 2.995,18.021 C3.21,18.445 3.555,18.789 3.978,19.005 C4.176,19.105 4.436,19.174 4.89,19.212 C5.353,19.249 5.947,19.25 6.8,19.25 L17.199,19.25 C18.052,19.25 18.646,19.249 19.109,19.212 C19.563,19.174 19.823,19.105 20.021,19.005 C20.444,18.789 20.789,18.445 21.004,18.021 C21.105,17.824 21.174,17.563 21.211,17.109 C21.249,16.647 21.25,16.052 21.25,15.2 L21.25,8.75 Z M5.25,12 C5.25,11.586 5.586,11.25 6,11.25 L9,11.25 C9.414,11.25 9.75,11.586 9.75,12 C9.75,12.414 9.414,12.75 9,12.75 L6,12.75 C5.586,12.75 5.25,12.414 5.25,12 Z"/>
</svg>

