<svg xmlns="http://www.w3.org/2000/svg" viewBox="0 0 24 24">
  <defs/>
  <path fill="#151E28" d="M6.768,3.25 L17.232,3.25 C18.045,3.25 18.701,3.25 19.231,3.293 C19.778,3.338 20.258,3.432 20.702,3.659 C21.408,4.018 21.982,4.592 22.341,5.298 C22.567,5.742 22.662,6.222 22.707,6.769 C22.734,7.107 22.744,7.495 22.748,7.943 C22.749,7.962 22.75,7.981 22.75,8 C22.75,8.016 22.75,8.031 22.749,8.046 C22.75,8.271 22.75,8.511 22.75,8.766 L22.75,12 C22.75,12.414 22.414,12.75 22,12.75 C21.586,12.75 21.25,12.414 21.25,12 L21.25,8.75 L2.75,8.75 L2.75,15.2 C2.75,16.052 2.751,16.647 2.788,17.109 C2.825,17.563 2.895,17.824 2.995,18.021 C3.211,18.445 3.555,18.789 3.978,19.005 C4.176,19.105 4.437,19.174 4.891,19.212 C5.353,19.249 5.947,19.25 6.8,19.25 L13,19.25 C13.414,19.25 13.75,19.586 13.75,20 C13.75,20.414 13.414,20.75 13,20.75 L6.768,20.75 C5.955,20.75 5.299,20.75 4.768,20.707 C4.222,20.662 3.742,20.568 3.297,20.341 C2.592,19.982 2.018,19.408 1.659,18.702 C1.432,18.258 1.338,17.778 1.293,17.232 C1.25,16.701 1.25,16.045 1.25,15.233 L1.25,8.768 C1.25,8.514 1.25,8.276 1.251,8.051 C1.25,8.034 1.25,8.017 1.25,8 C1.25,7.979 1.25,7.958 1.252,7.938 C1.256,7.492 1.266,7.105 1.293,6.769 C1.338,6.222 1.432,5.742 1.659,5.298 C2.018,4.592 2.592,4.018 3.297,3.659 C3.742,3.432 4.222,3.338 4.768,3.293 C5.299,3.25 5.955,3.25 6.768,3.25 Z M19.47,14.47 C19.763,14.177 20.237,14.177 20.53,14.47 L23.53,17.47 C23.823,17.763 23.823,18.237 23.53,18.53 L20.53,21.53 C20.237,21.823 19.763,21.823 19.47,21.53 C19.177,21.237 19.177,20.763 19.47,20.47 L21.189,18.75 L16,18.75 C15.586,18.75 15.25,18.414 15.25,18 C15.25,17.586 15.586,17.25 16,17.25 L21.189,17.25 L19.47,15.53 C19.177,15.237 19.177,14.762 19.47,14.47 Z M5.25,12 C5.25,11.586 5.586,11.25 6,11.25 L9,11.25 C9.414,11.25 9.75,11.586 9.75,12 C9.75,12.414 9.414,12.75 9,12.75 L6,12.75 C5.586,12.75 5.25,12.414 5.25,12 Z"/>
</svg>

