<svg xmlns="http://www.w3.org/2000/svg" viewBox="0 0 24 24">
  <defs/>
  <path fill="#151E28" d="M12,2.25 C17.385,2.25 21.75,6.615 21.75,12 C21.75,17.385 17.385,21.75 12,21.75 C6.615,21.75 2.25,17.385 2.25,12 C2.25,6.615 6.615,2.25 12,2.25 Z M8.47,8.47 C8.177,8.763 8.177,9.237 8.47,9.53 L10.939,12 L8.47,14.47 C8.177,14.763 8.177,15.237 8.47,15.53 C8.763,15.823 9.237,15.823 9.53,15.53 L12,13.061 L14.47,15.53 C14.763,15.823 15.237,15.823 15.53,15.53 C15.823,15.237 15.823,14.763 15.53,14.47 L13.061,12 L15.53,9.53 C15.823,9.237 15.823,8.763 15.53,8.47 C15.237,8.177 14.763,8.177 14.47,8.47 L12,10.939 L9.53,8.47 C9.237,8.177 8.763,8.177 8.47,8.47 Z"/>
</svg>

