<svg xmlns="http://www.w3.org/2000/svg" viewBox="0 0 24 24">
  <defs/>
  <path fill="#151E28" d="M12.364,1.344 L21.047,6.168 L20.881,6.259 L20.882,6.259 L20.438,6.503 L20.438,6.503 L19.495,7.022 L19.495,7.022 L12,11.144 L4.505,7.022 L4.505,7.022 L2.953,6.168 L11.635,1.344 C11.862,1.219 12.137,1.219 12.364,1.344 Z M11.25,21.973 L11.25,22.031 L11.25,22.029 L11.25,22.442 L2.636,17.656 C2.397,17.523 2.25,17.272 2.25,17 L2.25,7.493 L3,7.906 L3.75,8.318 L11.25,12.443 L11.25,20.726 L11.25,20.726 Z M12.75,21.583 L12.75,21.583 L12.75,12.443 L21,7.906 L21,7.906 L21.75,7.494 L21.75,17 C21.75,17.272 21.602,17.523 21.364,17.656 L12.75,22.441 Z"/>
</svg>

