<svg xmlns="http://www.w3.org/2000/svg" viewBox="0 0 24 24">
  <defs/>
  <path fill="#151E28" d="M12,3.25 C17.385,3.25 21.75,7.615 21.75,13 C21.75,15.853 20.524,18.42 18.573,20.202 C18.102,20.631 17.451,20.723 16.898,20.527 C13.729,19.407 10.271,19.407 7.102,20.527 C6.549,20.723 5.898,20.631 5.427,20.202 C3.476,18.42 2.25,15.853 2.25,13 C2.25,7.615 6.615,3.25 12,3.25 Z M9.25,14 C9.25,15.519 10.481,16.75 12,16.75 C13.519,16.75 14.75,15.519 14.75,14 C14.75,12.741 13.904,11.68 12.75,11.354 L12.75,7 C12.75,6.586 12.414,6.25 12,6.25 C11.586,6.25 11.25,6.586 11.25,7 L11.25,11.354 C10.096,11.68 9.25,12.741 9.25,14 Z M10.75,14 C10.75,13.31 11.31,12.75 12,12.75 C12.69,12.75 13.25,13.31 13.25,14 C13.25,14.69 12.69,15.25 12,15.25 C11.31,15.25 10.75,14.69 10.75,14 Z M3.784,12.25 C3.761,12.497 3.75,12.747 3.75,13 C3.75,13.253 3.761,13.503 3.784,13.75 L5,13.75 C5.414,13.75 5.75,13.415 5.75,13 C5.75,12.586 5.414,12.25 5,12.25 Z M20.216,13.75 C20.239,13.503 20.25,13.253 20.25,13 C20.25,12.747 20.239,12.497 20.216,12.25 L19,12.25 C18.586,12.25 18.25,12.586 18.25,13 C18.25,13.414 18.586,13.75 19,13.75 Z M18.34,7.72 C18.019,7.336 17.664,6.981 17.279,6.66 L16.419,7.52 C16.126,7.813 16.126,8.287 16.419,8.58 C16.712,8.873 17.187,8.873 17.48,8.58 Z M6.72,6.66 C6.336,6.981 5.981,7.336 5.66,7.721 L6.52,8.581 C6.813,8.874 7.287,8.874 7.58,8.581 C7.873,8.288 7.873,7.813 7.58,7.52 Z"/>
</svg>

