<svg xmlns="http://www.w3.org/2000/svg" viewBox="0 0 24 24">
  <defs/>
  <path fill="#151E28" d="M4.131,4.271 C4.629,3.83 5.307,3.466 6.08,3.176 C7.631,2.595 9.725,2.25 12,2.25 C14.275,2.25 16.368,2.595 17.92,3.176 C18.693,3.466 19.371,3.83 19.869,4.271 C20.366,4.712 20.75,5.294 20.75,6 L20.75,10 C20.75,10.706 20.366,11.288 19.869,11.729 C19.371,12.17 18.693,12.534 17.92,12.824 C16.368,13.405 14.275,13.75 12,13.75 C9.725,13.75 7.631,13.405 6.08,12.824 C5.307,12.534 4.629,12.17 4.131,11.729 C3.634,11.288 3.25,10.706 3.25,10 L3.25,6 C3.25,5.294 3.634,4.712 4.131,4.271 Z M4,13.25 C4.414,13.25 4.75,13.586 4.75,14 C4.75,14.123 4.814,14.329 5.126,14.606 C5.438,14.883 5.932,15.166 6.606,15.419 C7.95,15.923 9.857,16.25 12,16.25 C14.143,16.25 16.05,15.923 17.393,15.419 C18.068,15.166 18.562,14.883 18.874,14.606 C19.186,14.329 19.25,14.123 19.25,14 C19.25,13.586 19.586,13.25 20,13.25 C20.414,13.25 20.75,13.586 20.75,14 L20.75,18 C20.75,18.706 20.366,19.288 19.869,19.729 C19.371,20.17 18.693,20.534 17.92,20.824 C16.368,21.405 14.275,21.75 12,21.75 C9.725,21.75 7.631,21.405 6.08,20.824 C5.307,20.534 4.629,20.17 4.131,19.729 C3.634,19.288 3.25,18.706 3.25,18 L3.25,14 C3.25,13.586 3.586,13.25 4,13.25 Z M5.126,5.393 C4.814,5.671 4.75,5.877 4.75,6 C4.75,6.123 4.814,6.329 5.126,6.607 C5.438,6.883 5.932,7.166 6.606,7.419 C7.95,7.923 9.857,8.25 12,8.25 C14.143,8.25 16.05,7.923 17.393,7.419 C18.068,7.166 18.562,6.883 18.874,6.607 C19.186,6.329 19.25,6.123 19.25,6 C19.25,5.877 19.186,5.671 18.874,5.393 C18.562,5.117 18.068,4.834 17.393,4.581 C16.05,4.077 14.143,3.75 12,3.75 C9.857,3.75 7.95,4.077 6.606,4.581 C5.932,4.834 5.438,5.117 5.126,5.393 Z"/>
</svg>

