<svg xmlns="http://www.w3.org/2000/svg" viewBox="0 0 24 24">
  <defs/>
  <path fill="#151E28" d="M13.489,19.241 C13.432,18.523 13.149,17.926 12.989,17.614 C12.769,17.187 12.503,16.788 12.279,16.477 C12.048,16.156 11.822,15.875 11.657,15.676 C11.574,15.575 11.503,15.493 11.451,15.433 C11.426,15.404 11.405,15.38 11.389,15.362 L11.369,15.34 L11.363,15.333 L11.36,15.33 L11.359,15.329 L11.359,15.328 C11.358,15.328 11.357,15.329 10.477,16.121 L10.057,16.498 L10.057,16.498 C9.91,16.631 9.746,16.778 9.564,16.943 C10.057,16.498 10.057,16.498 10.058,16.498 L10.058,16.499 L10.058,16.499 L10.059,16.501 L10.064,16.505 L10.078,16.522 C10.091,16.536 10.108,16.556 10.131,16.581 C10.175,16.632 10.237,16.705 10.311,16.794 C10.459,16.972 10.658,17.221 10.859,17.499 C11.057,17.775 11.268,18.095 11.433,18.415 C11.585,18.711 11.75,19.105 11.75,19.5 C11.75,20.774 10.637,21.75 9.5,21.75 C8.363,21.75 7.25,20.774 7.25,19.5 C7.25,19.105 7.415,18.711 7.567,18.415 C7.732,18.095 7.943,17.775 8.141,17.499 C8.342,17.221 8.541,16.972 8.689,16.794 C8.763,16.705 8.825,16.632 8.869,16.581 C8.892,16.556 8.909,16.536 8.922,16.522 L8.936,16.505 L8.94,16.501 L8.942,16.499 L8.942,16.499 L8.942,16.498 C8.942,16.498 8.943,16.498 9.44,16.946 C9.256,16.78 9.091,16.632 8.943,16.498 C9.085,16.34 9.287,16.25 9.5,16.25 C9.713,16.25 9.915,16.34 10.057,16.498 C10.216,16.356 10.355,16.231 10.477,16.121 L11.358,15.328 C10.884,14.801 10.209,14.5 9.5,14.5 C8.791,14.5 8.116,14.801 7.642,15.328 L8.91,16.469 C7.648,15.333 7.642,15.328 7.641,15.328 L7.641,15.329 L7.64,15.33 L7.637,15.333 L7.631,15.34 L7.611,15.362 C7.595,15.38 7.574,15.404 7.548,15.433 C7.497,15.493 7.426,15.575 7.343,15.676 C7.178,15.875 6.952,16.156 6.721,16.477 C6.497,16.788 6.231,17.187 6.011,17.614 C5.851,17.926 5.569,18.523 5.511,19.241 C5.504,19.326 5.5,19.412 5.5,19.5 C5.5,19.666 5.51,19.828 5.53,19.987 L5.531,19.994 C5.563,20.256 5.622,20.508 5.703,20.75 C3.255,20.725 1.25,18.773 1.25,16.333 C1.25,14.183 2.809,12.41 4.855,12.004 C5.313,9.859 7.218,8.25 9.5,8.25 C11.782,8.25 13.687,9.859 14.145,12.004 C16.191,12.41 17.75,14.183 17.75,16.333 C17.75,18.773 15.745,20.725 13.297,20.75 C13.378,20.508 13.437,20.256 13.469,19.994 C13.49,19.833 13.5,19.668 13.5,19.5 C13.5,19.412 13.496,19.326 13.489,19.241 Z M12.764,8.008 C12.376,8.154 11.944,7.958 11.798,7.57 C11.652,7.182 11.848,6.75 12.236,6.604 C12.845,6.375 13.505,6.25 14.192,6.25 C17.262,6.25 19.75,8.738 19.75,11.808 C19.75,12.495 19.625,13.155 19.396,13.764 C19.25,14.152 18.818,14.348 18.43,14.202 C18.042,14.056 17.846,13.624 17.992,13.236 C18.159,12.793 18.25,12.312 18.25,11.808 C18.25,9.567 16.433,7.75 14.192,7.75 C13.688,7.75 13.207,7.841 12.764,8.008 Z M21.15,11.35 C21.15,10.88 21.531,10.5 22,10.5 C22.469,10.5 22.85,10.88 22.85,11.35 C22.85,11.819 22.469,12.2 22,12.2 C21.531,12.2 21.15,11.819 21.15,11.35 Z M8.5,5.5 C8.832,5.168 9.37,5.168 9.702,5.5 C10.034,5.832 10.034,6.37 9.702,6.702 C9.37,7.034 8.832,7.034 8.5,6.702 C8.168,6.37 8.168,5.832 8.5,5.5 Z M15.35,3.85 C15.35,4.319 14.969,4.7 14.5,4.7 C14.031,4.7 13.65,4.319 13.65,3.85 C13.65,3.381 14.031,3 14.5,3 C14.969,3 15.35,3.381 15.35,3.85 Z M20.584,6.626 C20.252,6.958 19.714,6.958 19.382,6.626 C19.05,6.294 19.05,5.756 19.382,5.424 C19.714,5.092 20.252,5.092 20.584,5.424 C20.916,5.756 20.916,6.294 20.584,6.626 Z M9.5,18.184 C9.453,18.246 9.406,18.31 9.359,18.376 C9.182,18.621 9.018,18.874 8.901,19.101 C8.843,19.214 8.802,19.31 8.777,19.387 C8.753,19.461 8.75,19.496 8.75,19.5 L8.75,19.5 C8.75,19.893 9.137,20.25 9.5,20.25 C9.863,20.25 10.25,19.893 10.25,19.5 L10.25,19.5 C10.25,19.496 10.247,19.461 10.223,19.387 C10.198,19.31 10.157,19.214 10.099,19.101 C9.982,18.874 9.818,18.621 9.641,18.376 C9.594,18.31 9.547,18.246 9.5,18.184 Z"/>
</svg>

