<svg xmlns="http://www.w3.org/2000/svg" viewBox="0 0 24 24">
  <defs/>
  <path fill="#151E28" d="M15,18 C15,16.619 13.881,15.5 12.5,15.5 C11.27,15.5 10.248,16.388 10.039,17.558 C9.865,17.52 9.685,17.5 9.5,17.5 C9.34,17.5 9.184,17.515 9.032,17.544 C8.843,17.28 8.606,17.058 8.338,16.888 C8.744,15.822 8.376,14.579 7.387,13.92 C6.238,13.154 4.686,13.464 3.92,14.613 L2.75,16.368 L2.131,17.297 L1.92,17.613 C1.806,17.784 1.715,17.965 1.648,18.153 C1.392,17.599 1.25,16.983 1.25,16.333 C1.25,14.183 2.809,12.41 4.855,12.004 C5.313,9.859 7.218,8.25 9.5,8.25 C11.782,8.25 13.687,9.859 14.145,12.004 C16.191,12.41 17.75,14.183 17.75,16.333 C17.75,18.186 16.594,19.757 14.965,20.417 C14.988,20.281 15,20.142 15,20 Z M12.764,8.008 C12.376,8.154 11.944,7.958 11.798,7.57 C11.652,7.182 11.848,6.75 12.236,6.604 C12.845,6.375 13.505,6.25 14.192,6.25 C17.262,6.25 19.75,8.738 19.75,11.808 C19.75,12.495 19.625,13.155 19.396,13.764 C19.25,14.152 18.818,14.348 18.43,14.202 C18.042,14.056 17.846,13.624 17.992,13.236 C18.159,12.793 18.25,12.312 18.25,11.808 C18.25,9.567 16.433,7.75 14.192,7.75 C13.688,7.75 13.207,7.841 12.764,8.008 Z M6.416,15.376 C6.761,15.606 6.854,16.071 6.624,16.416 L5.401,18.25 L7,18.25 C7.277,18.25 7.531,18.402 7.661,18.646 C7.792,18.89 7.777,19.186 7.624,19.416 L5.624,22.416 C5.394,22.761 4.929,22.854 4.584,22.624 C4.239,22.394 4.146,21.929 4.376,21.584 L5.599,19.75 L4,19.75 C3.723,19.75 3.469,19.598 3.339,19.354 C3.208,19.11 3.223,18.814 3.376,18.584 L5.376,15.584 C5.606,15.239 6.071,15.146 6.416,15.376 Z M10.25,20 L10.25,22 C10.25,22.414 9.914,22.75 9.5,22.75 C9.086,22.75 8.75,22.414 8.75,22 L8.75,20 C8.75,19.586 9.086,19.25 9.5,19.25 C9.914,19.25 10.25,19.586 10.25,20 Z M13.25,18 L13.25,20 C13.25,20.414 12.914,20.75 12.5,20.75 C12.086,20.75 11.75,20.414 11.75,20 L11.75,18 C11.75,17.586 12.086,17.25 12.5,17.25 C12.914,17.25 13.25,17.586 13.25,18 Z M20.584,6.626 C20.252,6.958 19.714,6.958 19.382,6.626 C19.05,6.294 19.05,5.756 19.382,5.424 C19.714,5.092 20.252,5.092 20.584,5.424 C20.916,5.756 20.916,6.294 20.584,6.626 Z M21.15,11.35 C21.15,10.88 21.531,10.5 22,10.5 C22.469,10.5 22.85,10.88 22.85,11.35 C22.85,11.819 22.469,12.2 22,12.2 C21.531,12.2 21.15,11.819 21.15,11.35 Z M8.5,5.5 C8.832,5.168 9.37,5.168 9.702,5.5 C10.034,5.832 10.034,6.37 9.702,6.702 C9.37,7.034 8.832,7.034 8.5,6.702 C8.168,6.37 8.168,5.832 8.5,5.5 Z M15.35,3.85 C15.35,4.319 14.969,4.7 14.5,4.7 C14.031,4.7 13.65,4.319 13.65,3.85 C13.65,3.381 14.031,3 14.5,3 C14.969,3 15.35,3.381 15.35,3.85 Z"/>
</svg>

