<svg xmlns="http://www.w3.org/2000/svg" viewBox="0 0 24 24">
  <defs/>
  <path fill="#151E28" d="M5.39,19.229 C5.313,19.468 5.271,19.718 5.268,19.97 C5.265,20.226 5.301,20.483 5.378,20.735 C3.08,20.55 1.25,18.664 1.25,16.333 C1.25,14.183 2.809,12.41 4.855,12.004 C5.313,9.859 7.218,8.25 9.5,8.25 C11.782,8.25 13.687,9.859 14.145,12.004 C16.191,12.41 17.75,14.183 17.75,16.333 C17.75,18.664 15.92,20.549 13.623,20.735 C13.7,20.483 13.736,20.225 13.733,19.97 C13.732,19.956 13.732,19.941 13.732,19.927 C13.725,19.69 13.684,19.454 13.611,19.229 C13.585,19.151 13.557,19.075 13.524,19 C13.83,18.298 13.81,17.464 13.398,16.75 C12.985,16.035 12.273,15.602 11.512,15.516 C11.056,14.899 10.325,14.5 9.5,14.5 C8.675,14.5 7.944,14.899 7.488,15.516 C6.727,15.602 6.016,16.036 5.603,16.75 C5.191,17.464 5.171,18.298 5.477,19 C5.444,19.075 5.415,19.152 5.39,19.229 Z M12.764,8.008 C12.376,8.154 11.944,7.958 11.798,7.57 C11.652,7.182 11.848,6.75 12.236,6.604 C12.845,6.375 13.505,6.25 14.192,6.25 C17.262,6.25 19.75,8.738 19.75,11.808 C19.75,12.495 19.625,13.155 19.396,13.764 C19.25,14.152 18.818,14.348 18.43,14.202 C18.042,14.056 17.846,13.624 17.992,13.236 C18.159,12.793 18.25,12.312 18.25,11.808 C18.25,9.567 16.433,7.75 14.192,7.75 C13.688,7.75 13.207,7.841 12.764,8.008 Z M9.5,16.25 C9.914,16.25 10.25,16.586 10.25,17 L10.25,17.701 L10.857,17.351 C11.216,17.143 11.675,17.266 11.882,17.625 C12.089,17.984 11.966,18.442 11.607,18.649 L11,19 L11.607,19.351 C11.966,19.558 12.089,20.016 11.882,20.375 C11.675,20.734 11.216,20.857 10.857,20.649 L10.25,20.299 L10.25,21 C10.25,21.414 9.914,21.75 9.5,21.75 C9.086,21.75 8.75,21.414 8.75,21 L8.75,20.299 L8.143,20.649 C7.785,20.857 7.326,20.734 7.119,20.375 C6.912,20.016 7.035,19.558 7.393,19.351 L8,19 L7.393,18.649 C7.035,18.442 6.912,17.984 7.119,17.625 C7.326,17.266 7.785,17.143 8.143,17.351 L8.75,17.701 L8.75,17 C8.75,16.586 9.086,16.25 9.5,16.25 Z M21.15,11.35 C21.15,10.88 21.531,10.5 22,10.5 C22.469,10.5 22.85,10.88 22.85,11.35 C22.85,11.819 22.469,12.2 22,12.2 C21.531,12.2 21.15,11.819 21.15,11.35 Z M15.35,3.85 C15.35,4.319 14.969,4.7 14.5,4.7 C14.03,4.7 13.65,4.319 13.65,3.85 C13.65,3.381 14.03,3 14.5,3 C14.969,3 15.35,3.381 15.35,3.85 Z M8.5,5.5 C8.832,5.168 9.37,5.168 9.702,5.5 C10.034,5.832 10.034,6.37 9.702,6.702 C9.37,7.034 8.832,7.034 8.5,6.702 C8.168,6.37 8.168,5.832 8.5,5.5 Z M20.584,6.626 C20.252,6.958 19.714,6.958 19.382,6.626 C19.05,6.294 19.05,5.756 19.382,5.424 C19.714,5.092 20.252,5.092 20.584,5.424 C20.916,5.756 20.916,6.294 20.584,6.626 Z"/>
</svg>

