<svg xmlns="http://www.w3.org/2000/svg" viewBox="0 0 24 24">
  <defs/>
  <path fill="#151E28" d="M4.855,12.004 C5.313,9.859 7.218,8.25 9.5,8.25 C11.782,8.25 13.687,9.859 14.145,12.004 C16.191,12.41 17.75,14.183 17.75,16.333 C17.75,18.788 15.719,20.75 13.25,20.75 L5.75,20.75 C3.281,20.75 1.25,18.788 1.25,16.333 C1.25,14.183 2.809,12.41 4.855,12.004 Z M12.764,8.008 C12.376,8.154 11.944,7.958 11.798,7.57 C11.652,7.182 11.848,6.75 12.236,6.604 C12.845,6.375 13.505,6.25 14.192,6.25 C17.262,6.25 19.75,8.738 19.75,11.808 C19.75,12.495 19.625,13.155 19.396,13.764 C19.25,14.152 18.818,14.348 18.43,14.202 C18.042,14.056 17.846,13.624 17.992,13.236 C18.159,12.793 18.25,12.312 18.25,11.808 C18.25,9.567 16.433,7.75 14.192,7.75 C13.688,7.75 13.207,7.841 12.764,8.008 Z M19.5,16.452 C19.832,16.12 20.37,16.12 20.702,16.452 C21.034,16.784 21.034,17.322 20.702,17.654 C20.37,17.986 19.832,17.986 19.5,17.654 C19.168,17.322 19.168,16.784 19.5,16.452 Z M21.15,11.35 C21.15,10.88 21.531,10.5 22,10.5 C22.469,10.5 22.85,10.88 22.85,11.35 C22.85,11.819 22.469,12.2 22,12.2 C21.531,12.2 21.15,11.819 21.15,11.35 Z M8.5,5.5 C8.832,5.168 9.37,5.168 9.702,5.5 C10.034,5.832 10.034,6.37 9.702,6.702 C9.37,7.034 8.832,7.034 8.5,6.702 C8.168,6.37 8.168,5.832 8.5,5.5 Z M15.35,3.85 C15.35,4.319 14.969,4.7 14.5,4.7 C14.031,4.7 13.65,4.319 13.65,3.85 C13.65,3.381 14.031,3 14.5,3 C14.969,3 15.35,3.381 15.35,3.85 Z M20.584,6.626 C20.252,6.958 19.714,6.958 19.382,6.626 C19.05,6.294 19.05,5.756 19.382,5.424 C19.714,5.092 20.252,5.092 20.584,5.424 C20.916,5.756 20.916,6.294 20.584,6.626 Z"/>
</svg>

