<svg xmlns="http://www.w3.org/2000/svg" viewBox="0 0 24 24">
  <defs/>
  <path fill="#151E28" d="M18.539,4.544 C18.55,4.55 18.567,4.559 18.587,4.573 L18.588,4.573 C18.679,4.609 18.844,4.69 18.97,4.754 C19.096,4.817 19.26,4.902 19.343,4.953 C19.603,5.115 19.691,5.186 19.834,5.304 L19.977,5.421 C20.221,5.623 20.313,5.956 20.206,6.253 C20.099,6.551 19.816,6.75 19.5,6.75 L19.4,6.75 C18.267,6.75 17.463,6.751 16.834,6.802 C16.213,6.853 15.829,6.949 15.524,7.104 C14.913,7.416 14.416,7.913 14.104,8.525 C13.949,8.829 13.853,9.213 13.802,9.834 C13.751,10.463 13.75,11.267 13.75,12.4 L13.75,15 C13.75,15.414 13.414,15.75 13,15.75 L3,15.75 C2.586,15.75 2.25,15.414 2.25,15 L2.25,11.367 C2.25,10.275 2.25,9.409 2.307,8.712 C2.365,7.998 2.487,7.395 2.768,6.844 C3.223,5.95 3.95,5.223 4.844,4.768 C5.395,4.487 5.998,4.365 6.712,4.307 C7.409,4.25 8.275,4.25 9.366,4.25 L14.72,4.25 C16.326,4.25 17.464,4.25 18.34,4.468 L18.352,4.471 L18.353,4.471 C18.355,4.471 18.365,4.474 18.377,4.477 C18.381,4.479 18.398,4.483 18.419,4.49 C18.429,4.494 18.451,4.501 18.478,4.513 C18.491,4.519 18.513,4.529 18.539,4.544 Z M18.2,7.25 L19.83,7.25 C20.365,7.25 20.81,7.25 21.175,7.28 C21.555,7.311 21.911,7.378 22.248,7.55 C22.766,7.813 23.187,8.234 23.45,8.752 C23.622,9.089 23.689,9.445 23.72,9.825 C23.75,10.19 23.75,10.635 23.75,11.17 L23.75,16.83 C23.75,17.365 23.75,17.81 23.72,18.175 C23.689,18.555 23.622,18.911 23.45,19.249 C23.187,19.766 22.766,20.187 22.248,20.45 C21.911,20.622 21.555,20.689 21.175,20.72 C20.81,20.75 20.365,20.75 19.83,20.75 L18.17,20.75 C17.635,20.75 17.19,20.75 16.825,20.72 C16.445,20.689 16.089,20.622 15.751,20.45 C15.234,20.187 14.813,19.766 14.55,19.249 C14.378,18.911 14.311,18.555 14.28,18.175 C14.25,17.81 14.25,17.365 14.25,16.83 L14.25,11.17 C14.25,10.635 14.25,10.19 14.28,9.825 C14.311,9.445 14.378,9.089 14.55,8.752 C14.813,8.234 15.234,7.813 15.751,7.55 C16.089,7.378 16.445,7.311 16.825,7.28 C17.189,7.25 17.635,7.25 18.169,7.25 L18.2,7.25 Z M5.221,20.75 L5.216,20.75 C4.999,20.75 4.848,20.75 4.699,20.738 C4.094,20.689 3.511,20.495 2.998,20.171 C2.87,20.09 2.749,19.999 2.573,19.867 L2.573,19.867 L2.573,19.867 L2.55,19.85 L2.538,19.841 C2.306,19.667 2.116,19.524 1.973,19.409 C1.843,19.304 1.683,19.169 1.571,19.01 C0.889,18.045 1.339,16.697 2.462,16.335 C2.648,16.275 2.857,16.263 3.024,16.257 C3.207,16.25 3.445,16.25 3.735,16.25 L13,16.25 C13.414,16.25 13.75,16.586 13.75,17 C13.75,17.414 13.414,17.75 13,17.75 L3.75,17.75 C3.442,17.75 3.231,17.75 3.077,17.756 C2.979,17.759 2.931,17.764 2.915,17.766 L2.91,17.767 C2.763,17.823 2.705,18 2.788,18.132 L2.791,18.136 C2.803,18.147 2.838,18.18 2.915,18.242 C3.035,18.338 3.203,18.465 3.45,18.65 C3.657,18.805 3.728,18.858 3.799,18.903 C4.107,19.097 4.457,19.213 4.819,19.243 C4.902,19.25 4.991,19.25 5.25,19.25 L13.5,19.25 C13.914,19.25 14.25,19.586 14.25,20 C14.25,20.414 13.914,20.75 13.5,20.75 L5.221,20.75 Z M13.653,6.63 C13.524,6.403 13.28,6.25 13,6.25 L11,6.25 C10.586,6.25 10.25,6.586 10.25,7 C10.25,7.414 10.586,7.75 11,7.75 L13,7.75 C13.414,7.75 13.75,7.414 13.75,7 C13.75,6.865 13.715,6.739 13.653,6.63 Z M19.8,8.75 L18.2,8.75 C17.828,8.75 17.536,8.75 17.295,8.757 C17.4,9.045 17.676,9.25 18,9.25 L20,9.25 C20.324,9.25 20.6,9.045 20.705,8.757 C20.464,8.75 20.172,8.75 19.8,8.75 Z"/>
</svg>

