<svg xmlns="http://www.w3.org/2000/svg" viewBox="0 0 24 24">
  <defs/>
  <path fill="#151E28" d="M19,16.25 C20.519,16.25 21.75,17.481 21.75,19 C21.75,20.519 20.519,21.75 19,21.75 C17.481,21.75 16.25,20.519 16.25,19 C16.25,17.481 17.481,16.25 19,16.25 Z M12,16.25 C13.519,16.25 14.75,17.481 14.75,19 C14.75,20.519 13.519,21.75 12,21.75 C10.481,21.75 9.25,20.519 9.25,19 C9.25,17.481 10.481,16.25 12,16.25 Z M19,9.25 C20.519,9.25 21.75,10.481 21.75,12 C21.75,13.519 20.519,14.75 19,14.75 C17.481,14.75 16.25,13.519 16.25,12 C16.25,10.481 17.481,9.25 19,9.25 Z M9.25,12 C9.25,10.481 10.481,9.25 12,9.25 C13.519,9.25 14.75,10.481 14.75,12 C14.75,13.519 13.519,14.75 12,14.75 C10.481,14.75 9.25,13.519 9.25,12 Z M2.25,19 C2.25,17.481 3.481,16.25 5,16.25 C6.519,16.25 7.75,17.481 7.75,19 C7.75,20.519 6.519,21.75 5,21.75 C3.481,21.75 2.25,20.519 2.25,19 Z M19,2.25 C20.519,2.25 21.75,3.481 21.75,5 C21.75,6.519 20.519,7.75 19,7.75 C17.481,7.75 16.25,6.519 16.25,5 C16.25,3.481 17.481,2.25 19,2.25 Z M5,9.25 C6.519,9.25 7.75,10.481 7.75,12 C7.75,13.519 6.519,14.75 5,14.75 C3.481,14.75 2.25,13.519 2.25,12 C2.25,10.481 3.481,9.25 5,9.25 Z M9.25,5 C9.25,3.481 10.481,2.25 12,2.25 C13.519,2.25 14.75,3.481 14.75,5 C14.75,6.519 13.519,7.75 12,7.75 C10.481,7.75 9.25,6.519 9.25,5 Z M2.25,5 C2.25,3.481 3.481,2.25 5,2.25 C6.519,2.25 7.75,3.481 7.75,5 C7.75,6.519 6.519,7.75 5,7.75 C3.481,7.75 2.25,6.519 2.25,5 Z"/>
</svg>

