<svg xmlns="http://www.w3.org/2000/svg" viewBox="0 0 24 24">
  <defs/>
  <path fill="#151E28" d="M16.75,8.17 L16.75,15.83 C16.75,16.365 16.75,16.81 16.72,17.175 C16.689,17.555 16.622,17.911 16.45,18.249 C16.187,18.766 15.766,19.187 15.248,19.45 C14.911,19.622 14.555,19.689 14.175,19.72 C13.81,19.75 13.365,19.75 12.83,19.75 L11.17,19.75 C10.635,19.75 10.19,19.75 9.825,19.72 C9.445,19.689 9.089,19.622 8.752,19.45 C8.234,19.187 7.813,18.766 7.55,18.249 C7.378,17.911 7.311,17.555 7.28,17.175 C7.25,16.81 7.25,16.365 7.25,15.831 L7.25,8.169 C7.25,7.635 7.25,7.19 7.28,6.825 C7.311,6.445 7.378,6.089 7.55,5.752 C7.813,5.234 8.234,4.813 8.752,4.55 C9.089,4.378 9.445,4.311 9.825,4.28 C10.19,4.25 10.635,4.25 11.17,4.25 L12.83,4.25 C13.365,4.25 13.81,4.25 14.175,4.28 C14.555,4.311 14.911,4.378 15.248,4.55 C15.766,4.813 16.187,5.234 16.45,5.752 C16.622,6.089 16.689,6.445 16.72,6.825 C16.75,7.19 16.75,7.635 16.75,8.17 L16.75,8.17 Z M2.25,3 C2.25,2.586 2.586,2.25 3,2.25 C3.414,2.25 3.75,2.586 3.75,3 L3.75,21 C3.75,21.414 3.414,21.75 3,21.75 C2.586,21.75 2.25,21.414 2.25,21 Z M20.25,21 L20.25,3 C20.25,2.586 20.586,2.25 21,2.25 C21.414,2.25 21.75,2.586 21.75,3 L21.75,21 C21.75,21.414 21.414,21.75 21,21.75 C20.586,21.75 20.25,21.414 20.25,21 Z"/>
</svg>

