<svg xmlns="http://www.w3.org/2000/svg" viewBox="0 0 24 24">
  <defs/>
  <path fill="#151E28" d="M9.367,2.25 L14.633,2.25 C15.725,2.25 16.591,2.25 17.288,2.307 C18.002,2.365 18.605,2.487 19.156,2.768 C20.05,3.223 20.777,3.95 21.232,4.844 C21.513,5.395 21.635,5.998 21.693,6.712 C21.75,7.409 21.75,8.275 21.75,9.367 L21.75,14.633 C21.75,15.725 21.75,16.591 21.693,17.288 C21.635,18.002 21.513,18.605 21.232,19.156 C20.777,20.05 20.05,20.777 19.156,21.232 C18.605,21.513 18.002,21.635 17.288,21.693 C16.591,21.75 15.725,21.75 14.633,21.75 L9.367,21.75 C8.275,21.75 7.409,21.75 6.712,21.693 C5.998,21.635 5.395,21.513 4.844,21.232 C3.95,20.777 3.223,20.05 2.768,19.156 C2.487,18.605 2.365,18.002 2.307,17.288 C2.25,16.591 2.25,15.725 2.25,14.633 L2.25,9.367 C2.25,8.275 2.25,7.409 2.307,6.712 C2.365,5.998 2.487,5.395 2.768,4.844 C3.223,3.95 3.95,3.223 4.844,2.768 C5.395,2.487 5.998,2.365 6.712,2.307 C7.409,2.25 8.275,2.25 9.367,2.25 Z M12.75,6.461 C12.75,6.047 12.414,5.711 12,5.711 C11.586,5.711 11.25,6.047 11.25,6.461 L11.25,6.965 C10.627,7.007 10.012,7.115 9.498,7.363 C9.121,7.546 8.777,7.813 8.532,8.199 C8.286,8.586 8.173,9.039 8.173,9.539 C8.173,10.525 8.808,11.184 9.468,11.624 C9.989,11.971 10.633,12.255 11.25,12.507 L11.25,15.493 C10.836,15.418 10.48,15.286 10.21,15.124 C9.773,14.862 9.673,14.604 9.673,14.462 C9.673,14.047 9.337,13.712 8.923,13.712 C8.509,13.712 8.173,14.047 8.173,14.462 C8.173,15.338 8.761,16.004 9.438,16.41 C9.947,16.715 10.572,16.922 11.25,17.01 L11.25,17.538 C11.25,17.953 11.586,18.288 12,18.288 C12.414,18.288 12.75,17.953 12.75,17.538 L12.75,17.035 C13.373,16.994 13.988,16.885 14.502,16.637 C14.879,16.455 15.223,16.187 15.468,15.801 C15.714,15.414 15.827,14.961 15.827,14.462 C15.827,13.476 15.192,12.816 14.531,12.376 C14.011,12.029 13.367,11.745 12.75,11.493 L12.75,8.508 C13.164,8.582 13.52,8.714 13.79,8.876 C14.226,9.138 14.327,9.396 14.327,9.539 C14.327,9.953 14.663,10.288 15.077,10.288 C15.491,10.288 15.827,9.953 15.827,9.539 C15.827,8.662 15.238,7.996 14.561,7.59 C14.053,7.285 13.428,7.078 12.75,6.99 Z M10.151,8.714 C10.415,8.586 10.783,8.507 11.25,8.469 L11.25,10.877 C10.888,10.716 10.567,10.554 10.3,10.376 C9.807,10.047 9.673,9.783 9.673,9.539 C9.673,9.269 9.732,9.107 9.798,9.003 C9.864,8.899 9.971,8.801 10.151,8.714 Z M12.75,15.531 L12.75,13.123 C13.112,13.284 13.433,13.446 13.699,13.624 C14.192,13.953 14.327,14.217 14.327,14.462 C14.327,14.731 14.268,14.893 14.202,14.997 C14.136,15.101 14.029,15.199 13.849,15.286 C13.585,15.414 13.217,15.493 12.75,15.531 Z"/>
</svg>

