<svg xmlns="http://www.w3.org/2000/svg" viewBox="0 0 24 24">
  <defs/>
  <path fill="#151E28" d="M13.117,2.479 C13.602,2.695 13.961,3.093 14.285,3.55 C14.606,4.004 14.961,4.617 15.399,5.375 L15.418,5.408 L20.868,14.821 L20.887,14.854 C21.327,15.614 21.684,16.229 21.918,16.736 C22.154,17.245 22.321,17.756 22.266,18.285 C22.185,19.061 21.779,19.766 21.148,20.224 C20.718,20.537 20.192,20.648 19.633,20.699 C19.077,20.75 18.366,20.75 17.488,20.75 L6.512,20.75 C5.634,20.75 4.923,20.75 4.367,20.699 C3.808,20.648 3.282,20.537 2.852,20.224 C2.221,19.766 1.815,19.061 1.734,18.285 C1.679,17.756 1.846,17.245 2.082,16.736 C2.316,16.229 2.673,15.614 3.113,14.854 L3.132,14.821 L8.582,5.408 L8.601,5.375 C9.039,4.618 9.394,4.004 9.715,3.55 C10.039,3.093 10.398,2.695 10.883,2.479 C11.594,2.163 12.406,2.163 13.117,2.479 Z M12.75,9 C12.75,8.586 12.414,8.25 12,8.25 C11.586,8.25 11.25,8.586 11.25,9 L11.25,9.289 C10.9,9.332 10.549,9.415 10.241,9.575 C9.957,9.722 9.696,9.939 9.512,10.25 C9.329,10.559 9.25,10.912 9.25,11.286 C9.25,12.061 9.721,12.58 10.189,12.914 C10.507,13.141 10.887,13.329 11.25,13.492 L11.25,15.121 C11.151,15.083 11.064,15.039 10.991,14.993 C10.759,14.844 10.75,14.728 10.75,14.714 C10.75,14.3 10.414,13.964 10,13.964 C9.586,13.964 9.25,14.3 9.25,14.714 C9.25,15.411 9.688,15.938 10.18,16.254 C10.49,16.454 10.856,16.596 11.25,16.676 L11.25,17 C11.25,17.414 11.586,17.75 12,17.75 C12.414,17.75 12.75,17.414 12.75,17 L12.75,16.711 C13.1,16.668 13.451,16.585 13.759,16.425 C14.043,16.278 14.304,16.061 14.488,15.75 C14.671,15.441 14.75,15.088 14.75,14.714 C14.75,13.939 14.279,13.42 13.811,13.086 C13.493,12.859 13.113,12.671 12.75,12.508 L12.75,10.879 C12.849,10.917 12.936,10.961 13.009,11.007 C13.241,11.156 13.25,11.272 13.25,11.286 C13.25,11.7 13.586,12.036 14,12.036 C14.414,12.036 14.75,11.7 14.75,11.286 C14.75,10.589 14.312,10.062 13.82,9.746 C13.51,9.546 13.144,9.404 12.75,9.324 Z M12.75,15.194 L12.75,14.184 C12.818,14.224 12.881,14.265 12.939,14.307 C13.221,14.508 13.25,14.632 13.25,14.714 C13.25,14.876 13.217,14.952 13.198,14.985 C13.18,15.015 13.147,15.052 13.069,15.093 C12.99,15.134 12.885,15.168 12.75,15.194 Z M10.931,10.907 C11.01,10.866 11.115,10.832 11.25,10.806 L11.25,11.816 C11.182,11.776 11.119,11.735 11.061,11.693 C10.779,11.492 10.75,11.368 10.75,11.286 C10.75,11.124 10.783,11.048 10.802,11.015 C10.82,10.985 10.853,10.948 10.931,10.907 Z"/>
</svg>

