<svg xmlns="http://www.w3.org/2000/svg" viewBox="0 0 24 24">
  <defs/>
  <path fill="#151E28" d="M16.25,12 C16.25,10.481 17.481,9.25 19,9.25 C20.519,9.25 21.75,10.481 21.75,12 C21.75,13.519 20.519,14.75 19,14.75 C17.481,14.75 16.25,13.519 16.25,12 Z M12,9.25 C13.519,9.25 14.75,10.481 14.75,12 C14.75,13.519 13.519,14.75 12,14.75 C10.481,14.75 9.25,13.519 9.25,12 C9.25,10.481 10.481,9.25 12,9.25 Z M5,9.25 C6.519,9.25 7.75,10.481 7.75,12 C7.75,13.519 6.519,14.75 5,14.75 C3.481,14.75 2.25,13.519 2.25,12 C2.25,10.481 3.481,9.25 5,9.25 Z"/>
</svg>

