<svg xmlns="http://www.w3.org/2000/svg" viewBox="0 0 24 24">
  <defs/>
  <path fill="#151E28" d="M9.25,19 C9.25,17.481 10.481,16.25 12,16.25 C13.519,16.25 14.75,17.481 14.75,19 C14.75,20.519 13.519,21.75 12,21.75 C10.481,21.75 9.25,20.519 9.25,19 Z M12,9.25 C13.519,9.25 14.75,10.481 14.75,12 C14.75,13.519 13.519,14.75 12,14.75 C10.481,14.75 9.25,13.519 9.25,12 C9.25,10.481 10.481,9.25 12,9.25 Z M12,2.25 C13.519,2.25 14.75,3.481 14.75,5 C14.75,6.519 13.519,7.75 12,7.75 C10.481,7.75 9.25,6.519 9.25,5 C9.25,3.481 10.481,2.25 12,2.25 Z"/>
</svg>

