<svg xmlns="http://www.w3.org/2000/svg" viewBox="0 0 24 24">
  <defs/>
  <path fill="#151E28" d="M12.934,1.465 C13.337,1.61 13.665,1.875 13.978,2.187 C14.283,2.491 14.631,2.901 15.055,3.399 L15.076,3.424 C16.361,4.936 17.767,6.689 18.853,8.484 C19.93,10.264 20.75,12.178 20.75,14 C20.75,18.833 16.833,22.75 12,22.75 C7.168,22.75 3.25,18.833 3.25,14 C3.25,12.178 4.07,10.264 5.147,8.484 C6.234,6.689 7.64,4.936 8.924,3.424 L8.946,3.399 C9.369,2.901 9.717,2.491 10.022,2.187 C10.335,1.875 10.664,1.61 11.066,1.465 C11.675,1.245 12.326,1.245 12.934,1.465 Z"/>
</svg>

