<svg xmlns="http://www.w3.org/2000/svg" viewBox="0 0 24 24">
  <defs/>
  <path fill="#151E28" d="M10.367,2.25 L15.633,2.25 C16.725,2.25 17.591,2.25 18.288,2.307 C19.002,2.365 19.605,2.487 20.156,2.768 C21.05,3.223 21.777,3.95 22.232,4.844 C22.513,5.395 22.635,5.998 22.693,6.712 C22.75,7.409 22.75,8.275 22.75,9.367 L22.75,10.633 C22.75,11.725 22.75,12.591 22.693,13.288 C22.635,14.002 22.513,14.605 22.232,15.156 C21.777,16.05 21.05,16.777 20.156,17.232 C19.605,17.513 19.002,17.635 18.288,17.693 C17.591,17.75 16.725,17.75 15.633,17.75 L10.367,17.75 C9.275,17.75 8.409,17.75 7.712,17.693 C6.998,17.635 6.395,17.513 5.844,17.232 C4.95,16.777 4.223,16.05 3.768,15.156 C3.487,14.605 3.365,14.002 3.307,13.288 C3.25,12.591 3.25,11.725 3.25,10.633 L3.25,9.367 C3.25,8.275 3.25,7.409 3.307,6.712 C3.365,5.998 3.487,5.395 3.768,4.844 C4.223,3.95 4.95,3.223 5.844,2.768 C6.395,2.487 6.998,2.365 7.712,2.307 C8.409,2.25 9.275,2.25 10.367,2.25 Z M1,5.25 C1.414,5.25 1.75,5.586 1.75,6 L1.75,10.4 C1.75,12.092 1.751,13.317 1.829,14.28 C1.907,15.234 2.058,15.865 2.322,16.383 C2.826,17.371 3.629,18.174 4.617,18.678 C5.135,18.942 5.766,19.093 6.72,19.171 C7.683,19.249 8.907,19.25 10.6,19.25 L18,19.25 C18.414,19.25 18.75,19.586 18.75,20 C18.75,20.414 18.414,20.75 18,20.75 L10.566,20.75 C8.915,20.75 7.629,20.75 6.598,20.666 C5.551,20.58 4.701,20.404 3.936,20.014 C2.665,19.367 1.633,18.334 0.986,17.064 C0.596,16.299 0.42,15.449 0.334,14.402 C0.25,13.371 0.25,12.085 0.25,10.434 L0.25,6 C0.25,5.586 0.586,5.25 1,5.25 Z M6.424,6.52 C6.159,6.838 6.202,7.311 6.52,7.576 L8.423,9.162 L8.445,9.181 L8.445,9.181 L8.445,9.181 C9.155,9.772 9.72,10.243 10.208,10.592 C10.71,10.95 11.175,11.212 11.697,11.361 C12.549,11.604 13.451,11.604 14.303,11.361 C14.825,11.212 15.29,10.95 15.792,10.592 C16.281,10.243 16.845,9.772 17.555,9.181 L17.555,9.181 L17.555,9.181 L17.577,9.162 L19.48,7.576 C19.798,7.311 19.841,6.838 19.576,6.52 C19.311,6.202 18.838,6.159 18.52,6.424 L16.617,8.01 C15.88,8.624 15.358,9.058 14.92,9.371 C14.49,9.678 14.184,9.835 13.892,9.918 C13.309,10.085 12.691,10.085 12.108,9.918 C11.816,9.835 11.51,9.678 11.08,9.371 C10.642,9.058 10.12,8.624 9.383,8.01 L7.48,6.424 C7.162,6.159 6.689,6.202 6.424,6.52 Z"/>
</svg>

