<svg xmlns="http://www.w3.org/2000/svg" viewBox="0 0 24 24">
  <defs/>
  <path fill="#151E28" d="M8.367,3.25 L15.633,3.25 C16.725,3.25 17.591,3.25 18.288,3.307 C19.002,3.365 19.605,3.487 20.156,3.768 C21.05,4.223 21.777,4.95 22.232,5.844 C22.513,6.395 22.635,6.998 22.693,7.712 C22.75,8.409 22.75,9.275 22.75,10.367 L22.75,13.633 C22.75,14.725 22.75,15.591 22.693,16.288 C22.635,17.002 22.513,17.605 22.232,18.156 C21.777,19.05 21.05,19.777 20.156,20.232 C19.605,20.513 19.002,20.635 18.288,20.693 C17.591,20.75 16.725,20.75 15.633,20.75 L8.367,20.75 C7.275,20.75 6.409,20.75 5.712,20.693 C4.998,20.635 4.395,20.513 3.844,20.232 C2.95,19.777 2.223,19.05 1.768,18.156 C1.487,17.605 1.365,17.002 1.307,16.288 C1.25,15.591 1.25,14.725 1.25,13.633 L1.25,10.367 C1.25,9.275 1.25,8.409 1.307,7.712 C1.365,6.998 1.487,6.395 1.768,5.844 C2.223,4.95 2.95,4.223 3.844,3.768 C4.395,3.487 4.998,3.365 5.712,3.307 C6.409,3.25 7.275,3.25 8.367,3.25 Z M4.39,8.564 C4.149,8.901 4.227,9.37 4.564,9.61 L7.844,11.953 L7.976,12.048 C9.187,12.913 9.965,13.469 10.834,13.689 C11.599,13.883 12.401,13.883 13.166,13.689 C14.035,13.469 14.813,12.913 16.024,12.048 L16.156,11.953 L19.436,9.61 C19.773,9.37 19.851,8.901 19.61,8.564 C19.369,8.227 18.901,8.149 18.564,8.39 L15.284,10.733 C13.894,11.726 13.358,12.093 12.798,12.235 C12.274,12.368 11.726,12.368 11.202,12.235 C10.642,12.093 10.106,11.726 8.716,10.733 L5.436,8.39 C5.099,8.149 4.63,8.227 4.39,8.564 Z"/>
</svg>

