<svg xmlns="http://www.w3.org/2000/svg" viewBox="0 0 24 24">
  <defs/>
  <path fill="#151E28" d="M9.367,2.25 L14.633,2.25 C15.725,2.25 16.591,2.25 17.288,2.307 C18.002,2.365 18.605,2.487 19.156,2.768 C20.05,3.223 20.777,3.95 21.232,4.844 C21.513,5.395 21.635,5.998 21.693,6.712 C21.75,7.409 21.75,8.275 21.75,9.367 L21.75,14.633 C21.75,15.725 21.75,16.591 21.693,17.288 C21.635,18.002 21.513,18.605 21.232,19.156 C20.777,20.05 20.05,20.777 19.156,21.232 C18.605,21.513 18.002,21.635 17.288,21.693 C16.591,21.75 15.725,21.75 14.633,21.75 L9.367,21.75 C8.275,21.75 7.409,21.75 6.712,21.693 C5.998,21.635 5.395,21.513 4.844,21.232 C3.95,20.777 3.223,20.05 2.768,19.156 C2.487,18.605 2.365,18.002 2.307,17.288 C2.25,16.591 2.25,15.725 2.25,14.633 L2.25,9.367 C2.25,8.275 2.25,7.409 2.307,6.712 C2.365,5.998 2.487,5.395 2.768,4.844 C3.223,3.95 3.95,3.223 4.844,2.768 C5.395,2.487 5.998,2.365 6.712,2.307 C7.409,2.25 8.275,2.25 9.367,2.25 Z M6.25,13 C6.25,13.414 6.586,13.75 7,13.75 L7.578,13.75 C8.263,15.502 9.947,16.75 11.931,16.75 C13.415,16.75 14.734,16.049 15.589,14.964 C15.845,14.639 15.79,14.167 15.464,13.911 C15.139,13.655 14.667,13.71 14.411,14.036 C13.825,14.78 12.93,15.25 11.931,15.25 C10.811,15.25 9.817,14.655 9.25,13.75 L11,13.75 C11.414,13.75 11.75,13.414 11.75,13 C11.75,12.586 11.414,12.25 11,12.25 L8.759,12.25 C8.753,12.167 8.75,12.084 8.75,12 C8.75,11.916 8.753,11.833 8.759,11.75 L12,11.75 C12.414,11.75 12.75,11.414 12.75,11 C12.75,10.586 12.414,10.25 12,10.25 L9.25,10.25 C9.817,9.345 10.811,8.75 11.931,8.75 C12.93,8.75 13.825,9.22 14.411,9.964 C14.667,10.29 15.139,10.345 15.464,10.089 C15.79,9.833 15.845,9.361 15.589,9.036 C14.734,7.951 13.415,7.25 11.931,7.25 C9.947,7.25 8.263,8.497 7.578,10.25 L7,10.25 C6.586,10.25 6.25,10.586 6.25,11 C6.25,11.414 6.586,11.75 7,11.75 L7.256,11.75 C7.252,11.833 7.25,11.916 7.25,12 C7.25,12.084 7.252,12.167 7.256,12.25 L7,12.25 C6.586,12.25 6.25,12.586 6.25,13 Z"/>
</svg>

