<svg xmlns="http://www.w3.org/2000/svg" viewBox="0 0 24 24">
  <defs/>
  <path fill="#151E28" d="M13.117,2.479 C13.602,2.695 13.961,3.093 14.285,3.55 C14.606,4.004 14.961,4.618 15.399,5.375 L15.399,5.375 L15.418,5.408 L20.868,14.821 L20.887,14.854 C21.327,15.614 21.684,16.229 21.918,16.736 C22.154,17.246 22.321,17.756 22.266,18.285 C22.185,19.061 21.779,19.766 21.148,20.224 C20.718,20.537 20.192,20.648 19.633,20.699 C19.077,20.75 18.366,20.75 17.488,20.75 L6.512,20.75 C5.634,20.75 4.923,20.75 4.367,20.699 C3.808,20.648 3.282,20.537 2.852,20.224 C2.221,19.766 1.815,19.061 1.734,18.285 C1.679,17.756 1.846,17.246 2.082,16.736 C2.316,16.229 2.673,15.614 3.113,14.854 L3.132,14.821 L8.582,5.408 L8.601,5.375 L8.601,5.375 C9.039,4.618 9.394,4.004 9.716,3.55 C10.039,3.093 10.398,2.695 10.883,2.479 C11.594,2.163 12.406,2.163 13.117,2.479 Z M12.75,9 C12.75,8.586 12.414,8.25 12,8.25 C11.586,8.25 11.25,8.586 11.25,9 L11.25,14 C11.25,14.414 11.586,14.75 12,14.75 C12.414,14.75 12.75,14.414 12.75,14 Z M13,17 C13,16.448 12.552,16 12,16 C11.448,16 11,16.448 11,17 C11,17.552 11.448,18 12,18 C12.552,18 13,17.552 13,17 Z"/>
</svg>

