<svg xmlns="http://www.w3.org/2000/svg" viewBox="0 0 24 24">
  <defs/>
  <path fill="#151E28" d="M14.633,2.25 C15.725,2.25 16.591,2.25 17.288,2.307 C18.002,2.365 18.605,2.487 19.156,2.768 C20.05,3.223 20.777,3.95 21.232,4.844 C21.513,5.395 21.635,5.998 21.693,6.712 C21.75,7.409 21.75,8.275 21.75,9.367 L21.75,14.633 C21.75,15.725 21.75,16.591 21.693,17.288 C21.635,18.002 21.513,18.605 21.232,19.156 C20.777,20.05 20.05,20.777 19.156,21.232 C18.605,21.513 18.002,21.635 17.288,21.693 C16.591,21.75 15.725,21.75 14.633,21.75 L9.367,21.75 C8.275,21.75 7.409,21.75 6.712,21.693 C5.998,21.635 5.395,21.513 4.844,21.232 C3.95,20.777 3.223,20.05 2.768,19.156 C2.487,18.605 2.365,18.002 2.307,17.288 C2.25,16.591 2.25,15.725 2.25,14.633 L2.25,9.367 C2.25,8.275 2.25,7.409 2.307,6.712 C2.365,5.998 2.487,5.395 2.768,4.844 C3.223,3.95 3.95,3.223 4.844,2.768 C5.395,2.487 5.998,2.365 6.712,2.307 C7.409,2.25 8.275,2.25 9.367,2.25 L14.633,2.25 Z M12.975,8.25 C12.53,8.25 12.159,8.25 11.855,8.271 C11.538,8.292 11.238,8.339 10.948,8.459 C10.274,8.738 9.738,9.274 9.459,9.948 C9.339,10.238 9.292,10.538 9.271,10.855 C9.25,11.159 9.25,11.53 9.25,11.975 L9.25,12.025 C9.25,12.47 9.25,12.841 9.271,13.145 C9.292,13.462 9.339,13.762 9.459,14.052 C9.738,14.726 10.274,15.262 10.948,15.541 C11.238,15.661 11.538,15.708 11.855,15.729 C12.159,15.75 12.53,15.75 12.975,15.75 L14,15.75 C14.414,15.75 14.75,15.414 14.75,15 C14.75,14.586 14.414,14.25 14,14.25 L13,14.25 C12.524,14.25 12.204,14.25 11.957,14.233 C11.716,14.216 11.599,14.187 11.522,14.155 C11.215,14.028 10.972,13.785 10.845,13.478 C10.813,13.401 10.784,13.284 10.767,13.043 C10.761,12.956 10.757,12.859 10.755,12.75 L14,12.75 C14.414,12.75 14.75,12.414 14.75,12 C14.75,11.586 14.414,11.25 14,11.25 L10.755,11.25 C10.757,11.141 10.761,11.044 10.767,10.957 C10.784,10.716 10.813,10.599 10.845,10.522 C10.972,10.215 11.215,9.972 11.522,9.845 C11.599,9.813 11.716,9.784 11.957,9.767 C12.204,9.75 12.524,9.75 13,9.75 L14,9.75 C14.414,9.75 14.75,9.414 14.75,9 C14.75,8.586 14.414,8.25 14,8.25 Z"/>
</svg>

