<svg xmlns="http://www.w3.org/2000/svg" viewBox="0 0 24 24">
  <defs/>
  <path fill="#151E28" d="M22.742,12.107 L22.742,12.108 L22.742,12.111 L22.741,12.119 L22.737,12.141 C22.734,12.16 22.73,12.184 22.724,12.216 C22.712,12.278 22.695,12.364 22.67,12.472 C22.619,12.688 22.537,12.988 22.409,13.346 C22.154,14.06 21.713,15.011 20.965,15.963 C19.446,17.897 16.727,19.75 12,19.75 C7.273,19.75 4.554,17.897 3.035,15.963 C2.287,15.011 1.846,14.06 1.591,13.346 C1.463,12.988 1.381,12.688 1.33,12.472 C1.305,12.364 1.288,12.278 1.276,12.216 C1.27,12.184 1.266,12.16 1.263,12.141 L1.259,12.119 L1.258,12.111 L1.258,12.108 L1.258,12.107 C1.258,12.107 1.258,12.106 2,12 C1.262,11.895 1.258,11.894 1.258,11.893 L1.258,11.892 L1.258,11.889 L1.259,11.882 L1.263,11.859 C1.266,11.841 1.27,11.816 1.276,11.785 C1.288,11.722 1.305,11.636 1.33,11.528 C1.381,11.313 1.463,11.012 1.59,10.654 C1.845,9.94 2.287,8.989 3.035,8.037 C4.554,6.103 7.272,4.25 12,4.25 C16.727,4.25 19.446,6.103 20.965,8.037 C21.713,8.989 22.154,9.94 22.409,10.654 C22.537,11.012 22.619,11.312 22.67,11.528 C22.695,11.636 22.712,11.722 22.724,11.784 C22.73,11.816 22.734,11.84 22.737,11.859 L22.741,11.882 L22.742,11.889 L22.742,11.892 L22.742,11.893 C22.742,11.894 22.737,11.895 22.002,12 L22.743,11.894 C22.753,11.964 22.753,12.036 22.743,12.106 L22.002,12 C22.738,12.105 22.742,12.107 22.742,12.107 Z M15,12 C15,10.343 13.657,9 12,9 C10.343,9 9,10.343 9,12 C9,13.657 10.343,15 12,15 C13.657,15 15,13.657 15,12 Z M1.258,11.894 L2,12 L1.258,12.106 C1.247,12.036 1.247,11.964 1.258,11.894 Z"/>
</svg>

