<svg xmlns="http://www.w3.org/2000/svg" viewBox="0 0 24 24">
  <defs/>
  <path fill="#151E28" d="M12,2.25 C17.385,2.25 21.75,6.615 21.75,12 C21.75,17.385 17.385,21.75 12,21.75 C6.615,21.75 2.25,17.385 2.25,12 C2.25,6.615 6.615,2.25 12,2.25 Z M12,11.25 C10.481,11.25 9.25,12.481 9.25,14 L9.25,16 C9.25,17.519 10.481,18.75 12,18.75 C13.519,18.75 14.75,17.519 14.75,16 L14.75,14 C14.75,12.481 13.519,11.25 12,11.25 Z M15,10 C15.552,10 16,9.552 16,9 C16,8.448 15.552,8 15,8 C14.448,8 14,8.448 14,9 C14,9.552 14.448,10 15,10 Z M10,9 C10,8.448 9.552,8 9,8 C8.448,8 8,8.448 8,9 C8,9.552 8.448,10 9,10 C9.552,10 10,9.552 10,9 Z"/>
</svg>

