<svg xmlns="http://www.w3.org/2000/svg" viewBox="0 0 24 24">
  <defs/>
  <path fill="#151E28" d="M12,2.25 C17.385,2.25 21.75,6.615 21.75,12 C21.75,17.385 17.385,21.75 12,21.75 C6.615,21.75 2.25,17.385 2.25,12 C2.25,6.615 6.615,2.25 12,2.25 Z M17.727,13.183 C17.727,13.182 17.724,13.181 17,13 L17.728,13.182 C17.784,12.958 17.733,12.72 17.591,12.538 C17.449,12.356 17.231,12.25 17,12.25 L7,12.25 C6.769,12.25 6.551,12.356 6.409,12.538 C6.267,12.72 6.216,12.958 6.272,13.182 L6.999,13 C6.276,13.181 6.272,13.182 6.273,13.183 L6.273,13.183 L6.273,13.185 L6.275,13.19 L6.278,13.204 C6.281,13.216 6.285,13.231 6.291,13.249 C6.301,13.287 6.316,13.338 6.337,13.401 C6.378,13.528 6.439,13.704 6.526,13.913 C6.7,14.33 6.978,14.888 7.4,15.45 C8.252,16.587 9.705,17.75 12,17.75 C14.295,17.75 15.748,16.587 16.6,15.45 C17.022,14.888 17.3,14.33 17.474,13.913 C17.561,13.704 17.622,13.528 17.663,13.401 C17.684,13.338 17.699,13.287 17.709,13.249 C17.712,13.24 17.714,13.231 17.716,13.224 C17.719,13.216 17.72,13.21 17.722,13.204 L17.726,13.19 L17.727,13.185 L17.727,13.183 Z M15,10 C15.552,10 16,9.552 16,9 C16,8.448 15.552,8 15,8 C14.448,8 14,8.448 14,9 C14,9.552 14.448,10 15,10 Z M10,9 C10,8.448 9.552,8 9,8 C8.448,8 8,8.448 8,9 C8,9.552 8.448,10 9,10 C9.552,10 10,9.552 10,9 Z"/>
</svg>

