<svg xmlns="http://www.w3.org/2000/svg" viewBox="0 0 24 24">
  <defs/>
  <path fill="#151E28" d="M12,2.25 C17.385,2.25 21.75,6.615 21.75,12 C21.75,17.385 17.385,21.75 12,21.75 C6.615,21.75 2.25,17.385 2.25,12 C2.25,6.615 6.615,2.25 12,2.25 Z M7.818,16.728 C8.215,16.827 8.617,16.59 8.724,16.197 C8.725,16.194 8.727,16.187 8.731,16.177 C8.74,16.152 8.759,16.105 8.792,16.045 C8.858,15.924 8.978,15.745 9.186,15.561 C9.589,15.202 10.402,14.75 12,14.75 C13.598,14.75 14.411,15.202 14.814,15.561 C15.022,15.745 15.142,15.924 15.208,16.045 C15.241,16.105 15.26,16.152 15.269,16.177 C15.273,16.187 15.275,16.194 15.276,16.197 C15.383,16.59 15.785,16.827 16.182,16.728 C16.584,16.627 16.828,16.22 16.728,15.818 L16,16 C16.722,15.82 16.727,15.818 16.727,15.817 L16.727,15.816 L16.726,15.813 L16.725,15.807 L16.721,15.793 C16.718,15.783 16.715,15.771 16.71,15.757 C16.701,15.728 16.69,15.693 16.674,15.651 C16.642,15.567 16.595,15.457 16.527,15.33 C16.389,15.076 16.165,14.755 15.811,14.439 C15.089,13.798 13.902,13.25 12,13.25 C10.098,13.25 8.911,13.798 8.189,14.439 C7.835,14.755 7.611,15.076 7.473,15.33 C7.405,15.457 7.358,15.567 7.326,15.651 C7.31,15.693 7.298,15.728 7.29,15.757 C7.285,15.771 7.282,15.783 7.279,15.793 L7.275,15.807 L7.274,15.813 L7.273,15.816 L7.273,15.817 C7.273,15.818 7.273,15.818 8,16 L7.272,15.818 C7.172,16.22 7.416,16.627 7.818,16.728 Z M16,9 C16,8.448 15.552,8 15,8 C14.448,8 14,8.448 14,9 C14,9.552 14.448,10 15,10 C15.552,10 16,9.552 16,9 Z M9,10 C9.552,10 10,9.552 10,9 C10,8.448 9.552,8 9,8 C8.448,8 8,8.448 8,9 C8,9.552 8.448,10 9,10 Z M8.723,16.198 L8.724,16.195 L8.724,16.197 L8.723,16.198 Z"/>
</svg>

