<svg xmlns="http://www.w3.org/2000/svg" viewBox="0 0 24 24">
  <defs/>
  <path fill="#151E28" d="M12.697,4.395 C12.971,4.544 13.298,4.762 13.677,5.015 L13.706,5.034 L21.222,10.045 L21.249,10.062 L21.249,10.063 C21.56,10.27 21.834,10.453 22.043,10.621 C22.258,10.794 22.487,11.016 22.617,11.33 C22.795,11.759 22.795,12.241 22.617,12.67 C22.487,12.984 22.258,13.205 22.043,13.379 C21.834,13.547 21.56,13.73 21.249,13.937 L21.222,13.955 L13.706,18.966 L13.677,18.985 L13.677,18.985 C13.298,19.238 12.971,19.456 12.697,19.605 C12.422,19.753 12.083,19.901 11.698,19.878 C11.188,19.848 10.716,19.595 10.407,19.187 C10.175,18.88 10.11,18.516 10.081,18.205 C10.053,17.894 10.053,17.501 10.053,17.045 L10.053,6.955 C10.053,6.499 10.053,6.106 10.081,5.795 C10.11,5.484 10.175,5.12 10.407,4.813 C10.716,4.405 11.188,4.152 11.698,4.122 C12.083,4.099 12.422,4.246 12.697,4.395 Z M3.697,4.395 C3.971,4.544 4.298,4.762 4.677,5.015 L4.677,5.015 L4.706,5.034 L4.724,5.046 L8.737,7.888 C8.935,8.028 9.053,8.257 9.053,8.5 L9.053,15.5 C9.053,15.743 8.935,15.971 8.737,16.112 L4.724,18.954 L4.706,18.966 L4.677,18.985 C4.298,19.238 3.971,19.456 3.697,19.605 C3.422,19.753 3.083,19.901 2.698,19.878 C2.188,19.848 1.716,19.595 1.407,19.187 C1.175,18.88 1.11,18.516 1.081,18.205 C1.053,17.894 1.053,17.501 1.053,17.045 L1.053,6.955 C1.053,6.499 1.053,6.106 1.081,5.795 C1.11,5.484 1.175,5.12 1.407,4.813 C1.716,4.405 2.188,4.152 2.698,4.122 C3.083,4.099 3.422,4.246 3.697,4.395 Z"/>
</svg>

