<svg xmlns="http://www.w3.org/2000/svg" viewBox="0 0 24 24">
  <defs/>
  <path fill="#151E28" d="M17.75,7.667 L17.75,14.232 C17.75,15.045 17.75,15.701 17.707,16.232 C17.662,16.778 17.568,17.258 17.341,17.702 C16.982,18.408 16.408,18.982 15.703,19.341 C15.258,19.568 14.778,19.662 14.231,19.707 C13.701,19.75 13.045,19.75 12.232,19.75 L8.768,19.75 C7.955,19.75 7.299,19.75 6.769,19.707 C6.222,19.662 5.742,19.568 5.298,19.341 C4.592,18.982 4.018,18.408 3.659,17.702 C3.432,17.258 3.338,16.778 3.293,16.232 C3.25,15.701 3.25,15.045 3.25,14.232 L3.25,6.768 C3.25,5.955 3.25,5.299 3.293,4.769 C3.338,4.222 3.432,3.742 3.659,3.298 C4.018,2.592 4.592,2.018 5.298,1.659 C5.742,1.432 6.222,1.338 6.769,1.293 C7.299,1.25 7.955,1.25 8.768,1.25 L11.429,1.25 C11.526,1.25 11.618,1.268 11.703,1.302 C12.162,1.392 12.592,1.599 12.952,1.904 C13.038,1.977 13.118,2.057 13.22,2.159 L13.237,2.177 L16.823,5.763 L16.841,5.78 C16.943,5.882 17.023,5.962 17.096,6.048 C17.444,6.458 17.663,6.959 17.729,7.49 C17.743,7.547 17.75,7.606 17.75,7.667 Z M20.75,10 L20.75,14.034 C20.75,15.405 20.75,16.481 20.679,17.345 C20.608,18.225 20.459,18.952 20.123,19.61 C19.572,20.692 18.692,21.572 17.61,22.123 C16.952,22.459 16.225,22.608 15.345,22.679 C14.481,22.75 13.405,22.75 12.034,22.75 L9,22.75 C8.586,22.75 8.25,22.414 8.25,22 C8.25,21.586 8.586,21.25 9,21.25 L12,21.25 C13.413,21.25 14.427,21.249 15.223,21.184 C16.01,21.12 16.518,20.996 16.93,20.787 C17.729,20.379 18.379,19.729 18.787,18.93 C18.996,18.518 19.12,18.01 19.184,17.223 C19.249,16.427 19.25,15.413 19.25,14 L19.25,10 C19.25,9.586 19.586,9.25 20,9.25 C20.414,9.25 20.75,9.586 20.75,10 Z M12.179,4.467 C12.179,5.039 12.179,5.423 12.203,5.719 C12.227,6.006 12.269,6.144 12.315,6.234 C12.435,6.469 12.626,6.661 12.861,6.78 C12.952,6.827 13.089,6.868 13.376,6.892 C13.672,6.916 14.056,6.917 14.629,6.917 L15.856,6.917 C15.832,6.892 15.802,6.862 15.763,6.823 L12.179,3.239 Z"/>
</svg>

