<svg xmlns="http://www.w3.org/2000/svg" viewBox="0 0 24 24">
  <defs/>
  <path fill="#151E28" d="M19.75,8.975 L19.75,12 C19.75,12.414 19.414,12.75 19,12.75 C18.586,12.75 18.25,12.414 18.25,12 L18.25,9.75 L15,9.75 C14.269,9.75 13.605,9.465 13.112,8.999 C13.08,8.969 13.048,8.938 13.018,8.906 C12.542,8.412 12.25,7.74 12.25,7 L12.25,3.75 L11,3.75 C10.586,3.75 10.25,3.414 10.25,3 C10.25,2.586 10.586,2.25 11,2.25 L13.025,2.25 C13.17,2.25 13.283,2.25 13.395,2.259 C13.969,2.306 14.513,2.531 14.952,2.904 C15.038,2.977 15.118,3.057 15.22,3.159 L15.237,3.177 L18.823,6.763 L18.841,6.78 C18.943,6.882 19.023,6.962 19.096,7.048 C19.469,7.487 19.694,8.031 19.741,8.605 C19.75,8.716 19.75,8.828 19.75,8.97 L19.75,8.975 Z M5.75,6 C5.75,6.414 5.414,6.75 5,6.75 C4.586,6.75 4.25,6.414 4.25,6 C4.25,3.929 5.929,2.25 8,2.25 C8.414,2.25 8.75,2.586 8.75,3 C8.75,3.414 8.414,3.75 8,3.75 C6.757,3.75 5.75,4.757 5.75,6 Z M17.25,21.536 C16.858,21.675 16.437,21.75 16,21.75 L13,21.75 C12.586,21.75 12.25,21.414 12.25,21 C12.25,20.586 12.586,20.25 13,20.25 L16,20.25 C16.264,20.25 16.516,20.205 16.75,20.122 C17.141,19.984 17.569,20.189 17.707,20.579 C17.845,20.97 17.64,21.398 17.25,21.536 Z M6.876,19.949 C7.206,20.14 7.589,20.25 8,20.25 L10,20.25 C10.414,20.25 10.75,20.586 10.75,21 C10.75,21.414 10.414,21.75 10,21.75 L8,21.75 C7.318,21.75 6.677,21.567 6.124,21.248 C5.766,21.041 5.643,20.582 5.851,20.223 C6.058,19.865 6.517,19.742 6.876,19.949 Z M5.75,9 L5.75,12 C5.75,12.414 5.414,12.75 5,12.75 C4.586,12.75 4.25,12.414 4.25,12 L4.25,9 C4.25,8.586 4.586,8.25 5,8.25 C5.414,8.25 5.75,8.586 5.75,9 Z M5.75,15 L5.75,18 C5.75,18.414 5.414,18.75 5,18.75 C4.586,18.75 4.25,18.414 4.25,18 L4.25,15 C4.25,14.586 4.586,14.25 5,14.25 C5.414,14.25 5.75,14.586 5.75,15 Z M19.75,15 L19.75,18 C19.75,18.414 19.414,18.75 19,18.75 C18.586,18.75 18.25,18.414 18.25,18 L18.25,15 C18.25,14.586 18.586,14.25 19,14.25 C19.414,14.25 19.75,14.586 19.75,15 Z"/>
</svg>

