<svg xmlns="http://www.w3.org/2000/svg" viewBox="0 0 24 24">
  <defs/>
  <path fill="#151E28" d="M19.75,12.25 L21,12.25 C21.414,12.25 21.75,12.586 21.75,13 C21.75,13.414 21.414,13.75 21,13.75 L3,13.75 C2.586,13.75 2.25,13.414 2.25,13 C2.25,12.586 2.586,12.25 3,12.25 L4.25,12.25 L4.25,7.768 C4.25,6.955 4.25,6.299 4.293,5.769 C4.338,5.222 4.432,4.742 4.659,4.298 C5.018,3.592 5.592,3.018 6.298,2.659 C6.742,2.432 7.222,2.338 7.769,2.293 C8.299,2.25 8.955,2.25 9.768,2.25 L13,2.25 L13.025,2.25 C13.169,2.25 13.283,2.25 13.395,2.259 C13.969,2.306 14.513,2.531 14.952,2.904 C15.038,2.977 15.118,3.057 15.22,3.159 L15.237,3.177 L18.823,6.763 L18.841,6.78 C18.943,6.882 19.023,6.962 19.096,7.048 C19.469,7.487 19.694,8.031 19.741,8.605 C19.75,8.716 19.75,8.828 19.75,8.97 L19.75,12.25 Z M5.75,16 L5.75,16.2 C5.75,17.052 5.751,17.647 5.788,18.109 C5.825,18.563 5.895,18.824 5.995,19.021 C6.211,19.445 6.555,19.789 6.979,20.005 C7.176,20.105 7.437,20.174 7.891,20.212 C8.353,20.249 8.948,20.25 9.8,20.25 L14.2,20.25 C15.052,20.25 15.647,20.249 16.109,20.212 C16.563,20.174 16.824,20.105 17.021,20.005 C17.445,19.789 17.789,19.445 18.005,19.021 C18.105,18.824 18.174,18.563 18.212,18.109 C18.249,17.647 18.25,17.052 18.25,16.2 L18.25,16 C18.25,15.586 18.586,15.25 19,15.25 C19.414,15.25 19.75,15.586 19.75,16 L19.75,16.232 C19.75,17.045 19.75,17.701 19.707,18.232 C19.662,18.778 19.568,19.258 19.341,19.702 C18.982,20.408 18.408,20.982 17.702,21.341 C17.258,21.568 16.778,21.662 16.232,21.707 C15.701,21.75 15.045,21.75 14.232,21.75 L9.768,21.75 C8.955,21.75 8.299,21.75 7.769,21.707 C7.222,21.662 6.742,21.568 6.298,21.341 C5.592,20.982 5.018,20.408 4.659,19.702 C4.432,19.258 4.338,18.778 4.293,18.232 C4.25,17.701 4.25,17.045 4.25,16.232 L4.25,16 C4.25,15.586 4.586,15.25 5,15.25 C5.414,15.25 5.75,15.586 5.75,16 Z M13.75,3.892 L13.75,5.8 C13.75,6.372 13.751,6.757 13.775,7.053 C13.798,7.34 13.84,7.477 13.886,7.567 C14.006,7.803 14.197,7.994 14.432,8.114 C14.523,8.16 14.66,8.202 14.948,8.225 C15.243,8.249 15.628,8.25 16.2,8.25 L18.108,8.25 C18.065,8.168 18.013,8.091 17.953,8.019 C17.924,7.986 17.89,7.951 17.763,7.823 L14.177,4.237 C14.049,4.11 14.014,4.076 13.981,4.047 C13.909,3.987 13.832,3.935 13.75,3.892 Z"/>
</svg>

