<svg xmlns="http://www.w3.org/2000/svg" viewBox="0 0 24 24">
  <defs/>
  <path fill="#151E28" d="M19.75,9 L19.75,16.232 C19.75,17.045 19.75,17.701 19.707,18.232 C19.662,18.778 19.568,19.258 19.341,19.702 C18.982,20.408 18.408,20.982 17.702,21.341 C17.258,21.568 16.778,21.662 16.232,21.707 C15.701,21.75 15.045,21.75 14.232,21.75 L9.768,21.75 C8.955,21.75 8.299,21.75 7.769,21.707 C7.222,21.662 6.742,21.568 6.298,21.341 C5.592,20.982 5.018,20.408 4.659,19.702 C4.432,19.258 4.338,18.778 4.293,18.232 C4.25,17.701 4.25,17.045 4.25,16.232 L4.25,7.768 C4.25,6.955 4.25,6.299 4.293,5.769 C4.338,5.222 4.432,4.742 4.659,4.298 C5.018,3.592 5.592,3.018 6.298,2.659 C6.742,2.432 7.222,2.338 7.769,2.293 C8.299,2.25 8.955,2.25 9.768,2.25 L13.025,2.25 C13.17,2.25 13.283,2.25 13.395,2.259 C13.969,2.306 14.513,2.531 14.952,2.904 C15.038,2.977 15.118,3.057 15.22,3.159 L15.237,3.177 L18.823,6.763 L18.841,6.78 C18.943,6.882 19.023,6.962 19.096,7.048 C19.469,7.487 19.694,8.031 19.741,8.605 C19.75,8.716 19.75,8.828 19.75,8.97 L19.75,9 Z M8.273,11.404 C8.239,11.441 8.204,11.484 8.158,11.539 L8.158,11.539 L8.158,11.539 L8.149,11.55 L8.141,11.559 L8.141,11.559 L8.141,11.559 C8.096,11.613 8.062,11.654 8.032,11.693 C7.206,12.758 7.275,14.265 8.193,15.252 C8.227,15.288 8.265,15.325 8.314,15.375 L8.314,15.375 L8.323,15.384 L11.47,18.53 C11.763,18.823 12.237,18.823 12.53,18.53 L15.686,15.375 L15.686,15.375 C15.735,15.325 15.773,15.288 15.807,15.252 C16.725,14.265 16.794,12.758 15.968,11.693 C15.938,11.654 15.903,11.613 15.859,11.559 L15.851,11.55 L15.842,11.539 L15.842,11.539 L15.842,11.539 C15.796,11.484 15.761,11.441 15.727,11.404 C14.801,10.371 13.25,10.19 12.111,10.981 C12.078,11.005 12.042,11.031 12,11.062 C11.958,11.031 11.922,11.005 11.889,10.981 C10.75,10.19 9.199,10.371 8.273,11.404 Z M11.033,12.213 C11.049,12.224 11.07,12.24 11.143,12.295 L11.55,12.6 C11.817,12.8 12.183,12.8 12.45,12.6 L12.857,12.295 C12.93,12.24 12.951,12.224 12.967,12.213 C13.485,11.854 14.189,11.936 14.61,12.405 C14.623,12.42 14.64,12.439 14.698,12.51 C14.755,12.578 14.771,12.597 14.782,12.612 C15.158,13.096 15.127,13.781 14.709,14.229 C14.696,14.243 14.679,14.261 14.616,14.323 L12,16.939 L9.384,14.323 C9.321,14.261 9.304,14.243 9.291,14.229 C8.873,13.781 8.842,13.096 9.218,12.612 C9.229,12.597 9.245,12.578 9.301,12.51 C9.36,12.439 9.377,12.42 9.39,12.405 C9.811,11.936 10.515,11.854 11.033,12.213 Z M13.75,5.8 C13.75,6.372 13.751,6.757 13.775,7.053 C13.798,7.34 13.84,7.477 13.886,7.567 C14.006,7.803 14.197,7.994 14.432,8.114 C14.523,8.16 14.66,8.202 14.948,8.225 C15.243,8.249 15.628,8.25 16.2,8.25 L18.108,8.25 C18.065,8.168 18.013,8.091 17.953,8.019 C17.924,7.986 17.89,7.951 17.763,7.823 L14.177,4.237 C14.049,4.11 14.014,4.076 13.981,4.047 C13.909,3.987 13.832,3.935 13.75,3.892 Z"/>
</svg>

