<svg xmlns="http://www.w3.org/2000/svg" viewBox="0 0 24 24">
  <defs/>
  <path fill="#151E28" d="M22.75,12 C22.75,15.935 20.635,19.377 17.48,21.25 L22,21.25 C22.414,21.25 22.75,21.586 22.75,22 C22.75,22.414 22.414,22.75 22,22.75 L12,22.75 C6.063,22.75 1.25,17.937 1.25,12 C1.25,6.063 6.063,1.25 12,1.25 C17.937,1.25 22.75,6.063 22.75,12 Z M14,12 C14,10.895 13.105,10 12,10 C10.895,10 10,10.895 10,12 C10,13.105 10.895,14 12,14 C13.105,14 14,13.105 14,12 Z M19,12 C19,11.448 18.552,11 18,11 C17.448,11 17,11.448 17,12 C17,12.552 17.448,13 18,13 C18.552,13 19,12.552 19,12 Z M12,19 C12.552,19 13,18.552 13,18 C13,17.448 12.552,17 12,17 C11.448,17 11,17.448 11,18 C11,18.552 11.448,19 12,19 Z M13,6 C13,5.448 12.552,5 12,5 C11.448,5 11,5.448 11,6 C11,6.552 11.448,7 12,7 C12.552,7 13,6.552 13,6 Z M6,13 C6.552,13 7,12.552 7,12 C7,11.448 6.552,11 6,11 C5.448,11 5,11.448 5,12 C5,12.552 5.448,13 6,13 Z"/>
</svg>

