<svg xmlns="http://www.w3.org/2000/svg" viewBox="0 0 24 24">
  <defs/>
  <path fill="#151E28" d="M14.633,2.25 C15.725,2.25 16.591,2.25 17.288,2.307 C18.002,2.365 18.605,2.487 19.156,2.768 C20.05,3.223 20.777,3.95 21.232,4.844 C21.513,5.395 21.635,5.998 21.693,6.712 C21.75,7.409 21.75,8.275 21.75,9.367 L21.75,14.633 C21.75,15.725 21.75,16.591 21.693,17.288 C21.635,18.002 21.513,18.605 21.232,19.156 C20.777,20.05 20.05,20.777 19.156,21.232 C18.605,21.513 18.002,21.635 17.288,21.693 C16.591,21.75 15.725,21.75 14.633,21.75 L9.367,21.75 C8.275,21.75 7.409,21.75 6.712,21.693 C5.998,21.635 5.395,21.513 4.844,21.232 C3.95,20.777 3.223,20.05 2.768,19.156 C2.487,18.605 2.365,18.002 2.307,17.288 C2.25,16.591 2.25,15.725 2.25,14.633 L2.25,9.367 C2.25,8.275 2.25,7.409 2.307,6.712 C2.365,5.998 2.487,5.395 2.768,4.844 C3.223,3.95 3.95,3.223 4.844,2.768 C5.395,2.487 5.998,2.365 6.712,2.307 C7.409,2.25 8.275,2.25 9.367,2.25 L14.633,2.25 Z M7,7.75 C6.586,7.75 6.25,8.086 6.25,8.5 L6.25,10.5 C6.25,10.914 6.586,11.25 7,11.25 C7.414,11.25 7.75,10.914 7.75,10.5 L7.75,8.5 C7.75,8.086 7.414,7.75 7,7.75 Z M7,12.75 C6.586,12.75 6.25,13.086 6.25,13.5 L6.25,15.5 C6.25,15.914 6.586,16.25 7,16.25 C7.414,16.25 7.75,15.914 7.75,15.5 L7.75,13.5 C7.75,13.086 7.414,12.75 7,12.75 Z M17,7.75 C16.586,7.75 16.25,8.086 16.25,8.5 L16.25,10.5 C16.25,10.914 16.586,11.25 17,11.25 C17.414,11.25 17.75,10.914 17.75,10.5 L17.75,8.5 C17.75,8.086 17.414,7.75 17,7.75 Z M17,12.75 C16.586,12.75 16.25,13.086 16.25,13.5 L16.25,15.5 C16.25,15.914 16.586,16.25 17,16.25 C17.414,16.25 17.75,15.914 17.75,15.5 L17.75,13.5 C17.75,13.086 17.414,12.75 17,12.75 Z M6.25,3.875 L6.25,5.5 C6.25,5.914 6.586,6.25 7,6.25 C7.414,6.25 7.75,5.914 7.75,5.5 L7.75,3.76 C7.405,3.767 7.103,3.78 6.834,3.802 C6.611,3.82 6.419,3.844 6.25,3.875 Z M17.75,3.875 C17.581,3.844 17.389,3.82 17.166,3.802 C16.897,3.78 16.595,3.767 16.25,3.76 L16.25,5.5 C16.25,5.914 16.586,6.25 17,6.25 C17.414,6.25 17.75,5.914 17.75,5.5 Z M7.75,20.24 L7.75,18.5 C7.75,18.086 7.414,17.75 7,17.75 C6.586,17.75 6.25,18.086 6.25,18.5 L6.25,20.125 C6.419,20.156 6.611,20.18 6.834,20.198 C7.103,20.22 7.405,20.233 7.75,20.24 Z M17.75,20.125 L17.75,18.5 C17.75,18.086 17.414,17.75 17,17.75 C16.586,17.75 16.25,18.086 16.25,18.5 L16.25,20.24 C16.595,20.233 16.897,20.22 17.166,20.198 C17.389,20.18 17.581,20.156 17.75,20.125 Z"/>
</svg>

