<svg xmlns="http://www.w3.org/2000/svg" viewBox="0 0 24 24">
  <defs/>
  <path fill="#151E28" d="M8.146,3.25 L15.854,3.25 C16.959,3.25 17.84,3.25 18.512,3.31 C19.173,3.37 19.798,3.497 20.262,3.881 C20.925,4.429 21.293,5.256 21.257,6.115 C21.232,6.717 20.909,7.266 20.51,7.797 C20.106,8.337 19.516,8.992 18.777,9.813 L18.751,9.842 L15.843,13.073 C15.579,13.367 15.479,13.479 15.394,13.593 C15.037,14.072 14.819,14.64 14.764,15.235 C14.751,15.377 14.75,15.527 14.75,15.922 L14.75,18.764 C14.75,20.808 12.599,22.138 10.77,21.224 C9.839,20.758 9.25,19.806 9.25,18.764 L9.25,16.456 C9.25,15.515 9.246,15.158 9.172,14.826 C9.103,14.516 8.988,14.217 8.832,13.94 C8.665,13.644 8.43,13.376 7.8,12.676 L5.249,9.842 L5.223,9.813 C4.484,8.992 3.895,8.337 3.49,7.797 C3.092,7.266 2.769,6.717 2.743,6.115 C2.708,5.256 3.076,4.429 3.738,3.881 C4.203,3.497 4.827,3.37 5.488,3.31 C6.16,3.25 7.041,3.25 8.146,3.25 Z"/>
</svg>

