<svg xmlns="http://www.w3.org/2000/svg" viewBox="0 0 24 24">
  <defs/>
  <path fill="#151E28" d="M12.335,2.329 C14.489,3.406 16.333,5.301 17.638,7.405 C18.939,9.506 19.75,11.891 19.75,14 C19.75,18.28 16.28,21.75 12,21.75 C7.72,21.75 4.25,18.28 4.25,14 C4.25,11.421 5.33,8.609 7.47,6.47 C7.684,6.255 8.007,6.191 8.287,6.307 C8.567,6.423 8.75,6.697 8.75,7 L8.75,10 C8.75,10.69 9.31,11.25 10,11.25 C10.69,11.25 11.25,10.69 11.25,10 L11.25,3 C11.25,2.74 11.385,2.499 11.606,2.362 C11.827,2.225 12.103,2.213 12.335,2.329 Z"/>
</svg>

