<svg xmlns="http://www.w3.org/2000/svg" viewBox="0 0 24 24">
  <defs/>
  <path fill="#151E28" d="M5,1.25 C5.414,1.25 5.75,1.586 5.75,2 L5.75,3.085 L7.49,2.737 C9.193,2.396 10.962,2.703 12.452,3.597 L13.178,4.032 C14.333,4.725 15.762,4.78 16.968,4.178 C18.246,3.539 19.75,4.468 19.75,5.897 L19.75,13.018 C19.75,13.904 19.249,14.714 18.457,15.11 L18.396,15.141 C16.26,16.208 13.727,16.111 11.68,14.883 C10.511,14.181 9.122,13.941 7.784,14.208 L5.75,14.615 L5.75,22 C5.75,22.414 5.414,22.75 5,22.75 C4.586,22.75 4.25,22.414 4.25,22 L4.25,14.014 Q4.25,13.999 4.25,13.984 L4.25,4.014 C4.25,4.004 4.25,3.994 4.25,3.985 L4.25,2 C4.25,1.586 4.586,1.25 5,1.25 Z"/>
</svg>

