<svg xmlns="http://www.w3.org/2000/svg" viewBox="0 0 24 24">
  <defs/>
  <path fill="#151E28" d="M15.633,2.354 C16.015,2.446 16.381,2.597 16.717,2.803 C17.096,3.035 17.415,3.354 17.876,3.815 L17.936,3.876 L20.124,6.064 L20.185,6.124 C20.646,6.585 20.965,6.904 21.197,7.283 C21.403,7.619 21.555,7.985 21.646,8.367 C21.75,8.8 21.75,9.251 21.75,9.903 L21.75,14.633 C21.75,15.725 21.75,16.591 21.693,17.288 C21.635,18.002 21.513,18.605 21.232,19.156 C20.777,20.05 20.05,20.777 19.156,21.232 C18.605,21.513 18.002,21.635 17.288,21.693 C16.591,21.75 15.725,21.75 14.633,21.75 L9.367,21.75 C8.275,21.75 7.409,21.75 6.712,21.693 C5.998,21.635 5.395,21.513 4.844,21.232 C3.95,20.777 3.223,20.05 2.768,19.156 C2.487,18.605 2.365,18.002 2.307,17.288 C2.25,16.591 2.25,15.725 2.25,14.633 L2.25,9.367 C2.25,8.275 2.25,7.409 2.307,6.712 C2.365,5.998 2.487,5.395 2.768,4.844 C3.223,3.95 3.95,3.223 4.844,2.768 C5.395,2.487 5.998,2.365 6.712,2.307 C7.409,2.25 8.275,2.25 9.366,2.25 L14.012,2.25 L14.097,2.25 C14.749,2.25 15.2,2.25 15.633,2.354 Z M8.25,13.7 L8.25,14.3 C8.25,16.205 9.795,17.75 11.7,17.75 L12.3,17.75 C14.205,17.75 15.75,16.205 15.75,14.3 L15.75,13.7 C15.75,11.795 14.205,10.25 12.3,10.25 L11.7,10.25 C9.795,10.25 8.25,11.795 8.25,13.7 Z M11.7,11.75 L12.3,11.75 C13.377,11.75 14.25,12.623 14.25,13.7 L14.25,14.3 C14.25,15.377 13.377,16.25 12.3,16.25 L11.7,16.25 C10.623,16.25 9.75,15.377 9.75,14.3 L9.75,13.7 C9.75,12.623 10.623,11.75 11.7,11.75 Z M8,7.75 L15,7.75 C15.414,7.75 15.75,7.414 15.75,7 C15.75,6.586 15.414,6.25 15,6.25 L8,6.25 C7.586,6.25 7.25,6.586 7.25,7 C7.25,7.414 7.586,7.75 8,7.75 Z"/>
</svg>

