<svg xmlns="http://www.w3.org/2000/svg" viewBox="0 0 24 24">
  <defs/>
  <path fill="#151E28" d="M9.633,2.354 C10.015,2.445 10.381,2.597 10.717,2.803 C11.096,3.035 11.415,3.354 11.876,3.815 L11.936,3.876 L12.124,4.064 C12.668,4.608 12.858,4.79 13.067,4.918 C13.268,5.042 13.488,5.133 13.717,5.188 C13.956,5.245 14.219,5.25 14.988,5.25 L17.232,5.25 C18.045,5.25 18.701,5.25 19.232,5.293 C19.778,5.338 20.258,5.432 20.702,5.659 C21.408,6.018 21.982,6.592 22.341,7.298 C22.568,7.742 22.662,8.222 22.707,8.769 C22.75,9.299 22.75,9.955 22.75,10.768 L22.75,15.232 C22.75,16.045 22.75,16.701 22.707,17.232 C22.662,17.778 22.568,18.258 22.341,18.702 C21.982,19.408 21.408,19.982 20.702,20.341 C20.258,20.568 19.778,20.662 19.232,20.707 C18.701,20.75 18.045,20.75 17.232,20.75 L6.768,20.75 C5.955,20.75 5.299,20.75 4.769,20.707 C4.222,20.662 3.742,20.568 3.298,20.341 C2.592,19.982 2.018,19.408 1.659,18.702 C1.432,18.258 1.338,17.778 1.293,17.232 C1.25,16.701 1.25,16.045 1.25,15.232 L1.25,7.768 C1.25,6.955 1.25,6.299 1.293,5.769 C1.338,5.222 1.432,4.742 1.659,4.298 C2.018,3.592 2.592,3.018 3.298,2.659 C3.742,2.432 4.222,2.338 4.769,2.293 C5.299,2.25 5.955,2.25 6.768,2.25 L8.012,2.25 L8.097,2.25 L8.098,2.25 C8.749,2.25 9.2,2.25 9.633,2.354 Z M8.273,10.404 C8.239,10.441 8.204,10.484 8.158,10.539 L8.158,10.539 L8.158,10.539 L8.149,10.55 L8.141,10.559 L8.141,10.559 C8.096,10.613 8.062,10.654 8.032,10.693 C7.206,11.758 7.275,13.265 8.193,14.252 C8.227,14.288 8.265,14.325 8.314,14.375 L8.314,14.375 L8.323,14.384 L11.47,17.53 C11.763,17.823 12.237,17.823 12.53,17.53 L15.686,14.375 L15.686,14.375 C15.735,14.325 15.773,14.288 15.807,14.252 C16.725,13.265 16.794,11.758 15.968,10.693 C15.938,10.654 15.904,10.613 15.859,10.559 L15.859,10.559 L15.851,10.55 L15.842,10.539 C15.796,10.484 15.761,10.441 15.727,10.404 C14.801,9.371 13.25,9.19 12.111,9.981 C12.078,10.005 12.042,10.031 12,10.062 C11.958,10.031 11.922,10.005 11.889,9.981 C10.75,9.19 9.199,9.371 8.273,10.404 Z M11.033,11.213 C11.049,11.224 11.07,11.24 11.143,11.295 L11.55,11.6 C11.817,11.8 12.183,11.8 12.45,11.6 L12.857,11.295 C12.93,11.24 12.951,11.224 12.967,11.213 C13.485,10.854 14.189,10.936 14.61,11.405 C14.623,11.42 14.64,11.439 14.698,11.51 C14.755,11.578 14.771,11.597 14.782,11.612 C15.158,12.096 15.127,12.781 14.709,13.229 C14.696,13.243 14.679,13.261 14.616,13.323 L12,15.939 L9.384,13.323 C9.321,13.261 9.304,13.243 9.291,13.229 C8.873,12.781 8.842,12.096 9.218,11.612 C9.229,11.597 9.245,11.578 9.301,11.51 C9.36,11.439 9.377,11.42 9.39,11.405 C9.811,10.936 10.515,10.854 11.033,11.213 Z"/>
</svg>

