<svg xmlns="http://www.w3.org/2000/svg" viewBox="0 0 24 24">
  <defs/>
  <path fill="#151E28" d="M9.633,2.354 C10.015,2.445 10.381,2.597 10.717,2.803 C11.096,3.035 11.415,3.354 11.876,3.815 L11.936,3.876 L12.124,4.064 C12.668,4.608 12.858,4.79 13.067,4.918 C13.268,5.042 13.488,5.133 13.717,5.188 C13.956,5.245 14.219,5.25 14.988,5.25 L17.232,5.25 C18.045,5.25 18.701,5.25 19.232,5.293 C19.778,5.338 20.258,5.432 20.702,5.659 C21.408,6.018 21.982,6.592 22.341,7.298 C22.568,7.742 22.662,8.222 22.707,8.769 C22.75,9.299 22.75,9.955 22.75,10.768 L22.75,15.232 C22.75,16.045 22.75,16.701 22.707,17.232 C22.662,17.778 22.568,18.258 22.341,18.702 C21.982,19.408 21.408,19.982 20.702,20.341 C20.258,20.568 19.778,20.662 19.232,20.707 C18.701,20.75 18.045,20.75 17.232,20.75 L6.768,20.75 C5.955,20.75 5.299,20.75 4.769,20.707 C4.222,20.662 3.742,20.568 3.298,20.341 C2.592,19.982 2.018,19.408 1.659,18.702 C1.432,18.258 1.338,17.778 1.293,17.232 C1.25,16.701 1.25,16.045 1.25,15.232 L1.25,7.768 C1.25,6.955 1.25,6.299 1.293,5.769 C1.338,5.222 1.432,4.742 1.659,4.298 C2.018,3.592 2.592,3.018 3.298,2.659 C3.742,2.432 4.222,2.338 4.769,2.293 C5.299,2.25 5.955,2.25 6.768,2.25 L8.012,2.25 L8.097,2.25 L8.098,2.25 C8.749,2.25 9.2,2.25 9.633,2.354 Z M8.321,10.821 C6.852,11.133 5.75,12.438 5.75,14 C5.75,15.795 7.205,17.25 9,17.25 L14,17.25 C15.795,17.25 17.25,15.795 17.25,14 C17.25,12.438 16.148,11.133 14.679,10.821 C14.367,9.352 13.062,8.25 11.5,8.25 C9.938,8.25 8.633,9.352 8.321,10.821 Z M9.868,10.867 C10.122,10.214 10.757,9.75 11.5,9.75 C12.467,9.75 13.25,10.534 13.25,11.5 C13.25,11.914 13.586,12.25 14,12.25 C14.967,12.25 15.75,13.033 15.75,14 C15.75,14.967 14.967,15.75 14,15.75 L9,15.75 C8.033,15.75 7.25,14.967 7.25,14 C7.25,13.033 8.033,12.25 9,12.25 C9.485,12.25 9.922,12.446 10.24,12.765 C10.532,13.059 11.007,13.06 11.301,12.767 C11.594,12.475 11.595,12 11.303,11.707 C10.911,11.314 10.419,11.02 9.868,10.867 Z"/>
</svg>

