<svg xmlns="http://www.w3.org/2000/svg" viewBox="0 0 24 24">
  <defs/>
  <path fill="#151E28" d="M9.633,2.354 C10.015,2.445 10.381,2.597 10.717,2.803 C11.096,3.035 11.415,3.354 11.876,3.815 L11.936,3.876 L12.124,4.064 C12.668,4.608 12.858,4.79 13.067,4.918 C13.268,5.042 13.488,5.133 13.717,5.188 C13.956,5.245 14.219,5.25 14.988,5.25 L17.232,5.25 C18.045,5.25 18.701,5.25 19.232,5.293 C19.778,5.338 20.258,5.432 20.702,5.659 C21.408,6.018 21.982,6.592 22.341,7.298 C22.568,7.742 22.662,8.222 22.707,8.769 C22.75,9.299 22.75,9.955 22.75,10.768 L22.75,15.232 C22.75,16.045 22.75,16.701 22.707,17.232 C22.662,17.778 22.568,18.258 22.341,18.702 C21.982,19.408 21.408,19.982 20.702,20.341 C20.258,20.568 19.778,20.662 19.232,20.707 C18.701,20.75 18.045,20.75 17.232,20.75 L6.768,20.75 C5.955,20.75 5.299,20.75 4.769,20.707 C4.222,20.662 3.742,20.568 3.298,20.341 C2.592,19.982 2.018,19.408 1.659,18.702 C1.432,18.258 1.338,17.778 1.293,17.232 C1.25,16.701 1.25,16.045 1.25,15.232 L1.25,7.768 C1.25,6.955 1.25,6.299 1.293,5.769 C1.338,5.222 1.432,4.742 1.659,4.298 C2.018,3.592 2.592,3.018 3.298,2.659 C3.742,2.432 4.222,2.338 4.769,2.293 C5.299,2.25 5.955,2.25 6.768,2.25 L8.012,2.25 L8.097,2.25 L8.098,2.25 C8.749,2.25 9.2,2.25 9.633,2.354 Z M11.47,9.47 L8.97,11.97 C8.677,12.263 8.677,12.737 8.97,13.03 C9.263,13.323 9.737,13.323 10.03,13.03 L11.25,11.811 L11.25,16 C11.25,16.414 11.586,16.75 12,16.75 C12.414,16.75 12.75,16.414 12.75,16 L12.75,11.811 L13.97,13.03 C14.263,13.323 14.737,13.323 15.03,13.03 C15.323,12.737 15.323,12.263 15.03,11.97 L12.53,9.47 C12.237,9.177 11.763,9.177 11.47,9.47 Z"/>
</svg>

