<svg xmlns="http://www.w3.org/2000/svg" viewBox="0 0 24 24">
  <defs/>
  <path fill="#151E28" d="M17.75,3 L17.75,12.325 C19.462,12.672 20.75,14.186 20.75,16 L20.75,18 C20.75,20.071 19.071,21.75 17,21.75 C14.929,21.75 13.25,20.071 13.25,18 L13.25,16 C13.25,14.186 14.538,12.672 16.25,12.325 L16.25,3 C16.25,2.586 16.586,2.25 17,2.25 C17.414,2.25 17.75,2.586 17.75,3 Z M4.75,3 L4.75,7 C4.75,8.243 5.757,9.25 7,9.25 C8.243,9.25 9.25,8.243 9.25,7 L9.25,3 C9.25,2.586 9.586,2.25 10,2.25 C10.414,2.25 10.75,2.586 10.75,3 L10.75,7 C10.75,8.814 9.462,10.328 7.75,10.675 L7.75,21 C7.75,21.414 7.414,21.75 7,21.75 C6.586,21.75 6.25,21.414 6.25,21 L6.25,10.675 C4.538,10.328 3.25,8.814 3.25,7 L3.25,3 C3.25,2.586 3.586,2.25 4,2.25 C4.414,2.25 4.75,2.586 4.75,3 Z M7.75,3 L7.75,7 C7.75,7.414 7.414,7.75 7,7.75 C6.586,7.75 6.25,7.414 6.25,7 L6.25,3 C6.25,2.586 6.586,2.25 7,2.25 C7.414,2.25 7.75,2.586 7.75,3 Z"/>
</svg>

