<svg xmlns="http://www.w3.org/2000/svg" viewBox="0 0 24 24">
  <defs/>
  <path fill="#151E28" d="M12,1.25 C16.28,1.25 19.75,4.72 19.75,9 L19.75,19.878 C19.75,20.421 19.417,20.821 19.005,20.992 C18.617,21.154 18.158,21.121 17.781,20.893 C17.348,20.632 16.801,20.656 16.394,20.956 C16.29,21.032 16.171,21.166 15.766,21.653 L15.076,22.48 C14.934,22.651 14.723,22.75 14.5,22.75 C14.278,22.75 14.066,22.651 13.924,22.48 L13.882,22.43 C13.451,21.913 13.159,21.563 12.913,21.316 C12.672,21.073 12.532,20.988 12.429,20.95 C12.152,20.849 11.848,20.849 11.571,20.95 C11.468,20.988 11.328,21.073 11.087,21.316 C10.841,21.563 10.549,21.913 10.118,22.43 L10.076,22.48 C9.934,22.651 9.723,22.75 9.5,22.75 C9.277,22.75 9.066,22.651 8.924,22.48 L8.235,21.653 C7.829,21.166 7.71,21.032 7.606,20.956 C7.199,20.656 6.652,20.632 6.22,20.893 C5.842,21.121 5.383,21.154 4.995,20.992 C4.583,20.821 4.25,20.421 4.25,19.878 L4.25,9 C4.25,4.72 7.72,1.25 12,1.25 Z M9,8.25 C8.586,8.25 8.25,8.586 8.25,9 L8.25,11 C8.25,11.414 8.586,11.75 9,11.75 C9.414,11.75 9.75,11.414 9.75,11 L9.75,9 C9.75,8.586 9.414,8.25 9,8.25 Z M15,8.25 C14.586,8.25 14.25,8.586 14.25,9 L14.25,11 C14.25,11.414 14.586,11.75 15,11.75 C15.414,11.75 15.75,11.414 15.75,11 L15.75,9 C15.75,8.586 15.414,8.25 15,8.25 Z"/>
</svg>

