<svg xmlns="http://www.w3.org/2000/svg" viewBox="0 0 24 24">
  <defs/>
  <path fill="#151E28" d="M18.239,6.25 L19,6.25 C20.519,6.25 21.75,7.481 21.75,9 C21.75,10.259 20.904,11.32 19.75,11.646 L19.75,17.83 C19.75,18.365 19.75,18.81 19.72,19.175 C19.689,19.555 19.622,19.911 19.45,20.249 C19.187,20.766 18.766,21.187 18.249,21.45 C17.911,21.622 17.555,21.689 17.175,21.72 C16.81,21.75 16.365,21.75 15.83,21.75 L8.17,21.75 C7.635,21.75 7.19,21.75 6.825,21.72 C6.445,21.689 6.089,21.622 5.752,21.45 C5.234,21.187 4.813,20.766 4.55,20.249 C4.378,19.911 4.311,19.555 4.28,19.175 C4.25,18.81 4.25,18.365 4.25,17.83 L4.25,11.646 C3.096,11.32 2.25,10.259 2.25,9 C2.25,7.481 3.481,6.25 5,6.25 L5.761,6.25 C5.438,5.745 5.25,5.144 5.25,4.5 C5.25,2.705 6.705,1.25 8.5,1.25 L8.58,1.25 C10.051,1.25 11.347,2.215 11.77,3.623 L12,4.39 L12.23,3.623 C12.653,2.215 13.949,1.25 15.42,1.25 L15.5,1.25 C17.295,1.25 18.75,2.705 18.75,4.5 C18.75,5.144 18.562,5.745 18.239,6.25 Z M20.25,9 C20.25,8.31 19.69,7.75 19,7.75 L12.75,7.75 L12.75,10.25 L19,10.25 C19.69,10.25 20.25,9.69 20.25,9 Z M11.25,10.25 L11.25,7.75 L5,7.75 C4.31,7.75 3.75,8.31 3.75,9 C3.75,9.69 4.31,10.25 5,10.25 Z M11.25,20.25 L12.75,20.25 L12.75,11.75 L11.25,11.75 Z M17.25,4.5 C17.25,3.533 16.466,2.75 15.5,2.75 L15.42,2.75 C14.611,2.75 13.899,3.28 13.667,4.054 L13.008,6.25 L15.5,6.25 C16.466,6.25 17.25,5.466 17.25,4.5 Z M10.333,4.054 C10.101,3.28 9.388,2.75 8.58,2.75 L8.5,2.75 C7.534,2.75 6.75,3.533 6.75,4.5 C6.75,5.466 7.534,6.25 8.5,6.25 L10.992,6.25 Z"/>
</svg>

