<svg xmlns="http://www.w3.org/2000/svg" viewBox="0 0 24 24">
  <defs/>
  <path fill="#151E28" d="M2.29,16.612 C1.8,16.411 1.442,16.012 1.195,15.587 C0.848,14.989 0.642,14.225 0.511,13.482 C0.25,11.993 0.25,10.316 0.25,9.515 L0.25,9.5 C0.25,8.229 0.602,7.198 1.301,6.403 C1.988,5.623 2.944,5.144 4.018,4.841 C6.109,4.25 8.943,4.25 11.903,4.25 L12.097,4.25 C15.057,4.25 17.891,4.25 19.982,4.841 C21.056,5.144 22.012,5.623 22.699,6.403 C23.398,7.198 23.75,8.229 23.75,9.5 L23.75,9.515 C23.75,10.316 23.75,11.993 23.489,13.482 C23.358,14.225 23.152,14.989 22.805,15.587 C22.558,16.012 22.201,16.411 21.71,16.612 C21.429,18.78 19.701,20.481 17.521,20.721 C17.262,20.75 16.965,20.75 16.498,20.75 L14.948,20.75 C14.105,20.75 13.318,20.329 12.85,19.627 C12.446,19.021 11.554,19.021 11.15,19.627 C10.682,20.329 9.895,20.75 9.052,20.75 L7.502,20.75 C7.035,20.75 6.738,20.75 6.479,20.721 C4.299,20.481 2.571,18.78 2.29,16.612 Z M1.75,9.5 C1.75,10.311 1.752,11.872 1.989,13.222 C2.059,13.625 2.147,13.985 2.252,14.289 C2.256,13.784 2.274,13.409 2.341,13.073 C2.716,11.189 4.189,9.716 6.073,9.341 C6.533,9.25 7.067,9.25 7.905,9.25 L7.905,9.25 L8,9.25 L16,9.25 L16.095,9.25 L16.095,9.25 C16.933,9.25 17.467,9.25 17.927,9.341 C19.811,9.716 21.284,11.189 21.659,13.073 C21.726,13.409 21.743,13.784 21.748,14.289 C21.853,13.985 21.941,13.625 22.011,13.222 C22.248,11.872 22.25,10.311 22.25,9.5 C22.25,8.521 21.986,7.865 21.572,7.394 C21.146,6.909 20.491,6.543 19.574,6.284 C17.707,5.757 15.08,5.75 12,5.75 C8.92,5.75 6.293,5.757 4.426,6.284 C3.509,6.543 2.854,6.909 2.428,7.394 C2.013,7.865 1.75,8.521 1.75,9.5 Z M16,15 C16,14.448 15.552,14 15,14 C14.448,14 14,14.448 14,15 C14,15.552 14.448,16 15,16 C15.552,16 16,15.552 16,15 Z M9,16 C9.552,16 10,15.552 10,15 C10,14.448 9.552,14 9,14 C8.448,14 8,14.448 8,15 C8,15.552 8.448,16 9,16 Z"/>
</svg>

