<svg xmlns="http://www.w3.org/2000/svg" viewBox="0 0 24 24">
  <defs/>
  <path fill="#151E28" d="M2.25,12 C2.25,6.615 6.615,2.25 12,2.25 C17.385,2.25 21.75,6.615 21.75,12 C21.75,17.385 17.385,21.75 12,21.75 C6.615,21.75 2.25,17.385 2.25,12 Z M12,20.25 C12.425,20.25 12.842,20.218 13.25,20.156 L13.25,18.854 C13.25,18.615 13.115,18.396 12.901,18.289 C11.847,17.762 11.421,16.482 11.947,15.429 L12.079,15.165 C12.314,14.695 12.695,14.314 13.165,14.079 L13.929,13.697 L14.022,13.651 C14.699,13.312 15.165,13.078 15.644,12.979 C16.55,12.79 17.493,12.944 18.293,13.408 C18.716,13.655 19.084,14.023 19.62,14.559 L19.788,14.728 C20.087,13.874 20.25,12.956 20.25,12 C20.25,9.212 18.867,6.747 16.75,5.254 L16.75,5.61 C16.75,6.09 16.75,6.422 16.692,6.75 C16.64,7.04 16.555,7.322 16.437,7.592 C16.304,7.897 16.119,8.174 15.852,8.573 L15.818,8.625 L15.552,9.024 L15.519,9.073 C15.27,9.447 15.098,9.705 14.888,9.93 C14.536,10.307 14.109,10.608 13.636,10.813 C13.353,10.935 13.052,11.01 12.616,11.119 L12.559,11.133 L10.977,11.529 C10.228,11.716 9.436,11.497 8.89,10.951 C8.553,10.614 7.985,10.706 7.773,11.132 L6.962,12.754 C6.822,13.032 6.75,13.339 6.75,13.65 L6.75,14.606 C6.75,14.755 6.75,14.859 6.744,14.961 C6.698,15.814 6.362,16.625 5.791,17.261 C5.767,17.289 5.742,17.316 5.715,17.344 C7.228,19.122 9.482,20.25 12,20.25 Z"/>
</svg>

