<svg xmlns="http://www.w3.org/2000/svg" viewBox="0 0 24 24">
  <defs/>
  <path fill="#151E28" d="M2.25,12 C2.25,6.615 6.615,2.25 12,2.25 C17.385,2.25 21.75,6.615 21.75,12 C21.75,17.385 17.385,21.75 12,21.75 C6.615,21.75 2.25,17.385 2.25,12 Z M20.25,12 C20.25,8.453 18.012,5.43 14.872,4.263 C14.9,5.371 14.436,6.449 13.582,7.191 C13.524,7.241 13.462,7.291 13.371,7.364 L13.371,7.364 L13.359,7.373 L13.215,7.488 C12.599,7.981 11.833,8.25 11.044,8.25 C10.349,8.25 9.706,8.614 9.349,9.21 L9.308,9.277 C10.128,9.423 10.75,10.139 10.75,11 C10.75,11.138 10.862,11.25 11,11.25 L12,11.25 C12.081,11.25 12.161,11.263 12.237,11.288 L13.858,11.829 L13.918,11.849 C14.373,12 14.689,12.106 14.981,12.265 C15.24,12.405 15.481,12.576 15.7,12.773 C15.947,12.995 16.151,13.258 16.446,13.637 L16.484,13.687 L18.785,16.645 L18.803,16.668 C19.716,15.341 20.25,13.733 20.25,12 Z M3.75,12 C3.75,15.669 6.145,18.778 9.457,19.851 C9.466,19.819 9.477,19.788 9.489,19.757 L9.995,18.493 C10.071,18.303 10.026,18.087 9.882,17.943 L9.606,17.667 C8.69,16.751 8.587,15.301 9.364,14.265 L10.545,12.69 C9.799,12.49 9.25,11.809 9.25,11 C9.25,10.862 9.138,10.75 9,10.75 L8,10.75 C7.716,10.75 7.456,10.59 7.329,10.335 L5.574,6.825 C4.433,8.241 3.75,10.04 3.75,12 Z"/>
</svg>

