<svg xmlns="http://www.w3.org/2000/svg" viewBox="0 0 24 24">
  <defs/>
  <path fill="#151E28" d="M17.83,13.25 C18.365,13.25 18.81,13.25 19.175,13.279 C19.555,13.31 19.911,13.377 20.249,13.549 C20.766,13.813 21.187,14.234 21.45,14.751 C21.622,15.088 21.689,15.445 21.72,15.825 C21.75,16.189 21.75,16.635 21.75,17.169 L21.75,17.83 C21.75,18.364 21.75,18.81 21.72,19.174 C21.689,19.554 21.622,19.911 21.45,20.248 C21.187,20.765 20.766,21.186 20.249,21.45 C19.911,21.622 19.555,21.689 19.175,21.72 C18.81,21.75 18.365,21.75 17.83,21.75 L17.17,21.75 C16.635,21.75 16.19,21.75 15.825,21.72 C15.445,21.689 15.089,21.622 14.752,21.45 C14.234,21.186 13.813,20.765 13.55,20.248 C13.378,19.911 13.311,19.554 13.28,19.174 C13.25,18.81 13.25,18.364 13.25,17.83 L13.25,17.169 C13.25,16.635 13.25,16.189 13.28,15.825 C13.311,15.445 13.378,15.088 13.55,14.751 C13.813,14.234 14.234,13.813 14.752,13.549 C15.089,13.377 15.445,13.31 15.825,13.279 C16.19,13.25 16.635,13.25 17.17,13.25 L17.83,13.25 Z M17.8,2.25 L17.83,2.25 C18.365,2.25 18.81,2.249 19.175,2.279 C19.555,2.31 19.911,2.377 20.249,2.549 C20.766,2.813 21.187,3.234 21.45,3.751 C21.622,4.088 21.689,4.445 21.72,4.825 C21.75,5.189 21.75,5.635 21.75,6.169 L21.75,6.83 C21.75,7.364 21.75,7.81 21.72,8.174 C21.689,8.554 21.622,8.911 21.45,9.248 C21.187,9.765 20.766,10.186 20.249,10.45 C19.911,10.622 19.555,10.689 19.175,10.72 C18.81,10.75 18.365,10.75 17.83,10.75 L17.17,10.75 C16.635,10.75 16.19,10.75 15.825,10.72 C15.445,10.689 15.089,10.622 14.752,10.45 C14.234,10.186 13.813,9.765 13.55,9.248 C13.378,8.911 13.311,8.554 13.28,8.174 C13.25,7.81 13.25,7.364 13.25,6.83 L13.25,6.169 C13.25,5.635 13.25,5.189 13.28,4.825 C13.311,4.445 13.378,4.088 13.55,3.751 C13.813,3.234 14.234,2.813 14.752,2.549 C15.089,2.377 15.445,2.31 15.825,2.279 C16.19,2.249 16.635,2.25 17.17,2.25 L17.8,2.25 Z M6.17,13.25 L6.83,13.25 C7.365,13.25 7.81,13.25 8.175,13.279 C8.555,13.31 8.911,13.377 9.248,13.549 C9.766,13.813 10.187,14.234 10.45,14.751 C10.622,15.088 10.689,15.445 10.72,15.825 C10.75,16.189 10.75,16.635 10.75,17.169 L10.75,17.83 C10.75,18.364 10.75,18.81 10.72,19.174 C10.689,19.554 10.622,19.911 10.45,20.248 C10.187,20.765 9.766,21.186 9.248,21.45 C8.911,21.622 8.555,21.689 8.175,21.72 C7.81,21.75 7.365,21.75 6.83,21.75 L6.17,21.75 C5.635,21.75 5.19,21.75 4.825,21.72 C4.445,21.689 4.089,21.622 3.752,21.45 C3.234,21.186 2.813,20.765 2.55,20.248 C2.378,19.911 2.311,19.554 2.28,19.174 C2.25,18.81 2.25,18.364 2.25,17.83 L2.25,17.169 C2.25,16.635 2.25,16.189 2.28,15.825 C2.311,15.445 2.378,15.088 2.55,14.751 C2.813,14.234 3.234,13.813 3.752,13.549 C4.089,13.377 4.445,13.31 4.825,13.279 C5.19,13.25 5.635,13.25 6.17,13.25 Z M6.17,2.25 L6.831,2.25 C7.365,2.25 7.81,2.249 8.175,2.279 C8.555,2.31 8.911,2.377 9.248,2.549 C9.766,2.813 10.187,3.234 10.45,3.751 C10.622,4.088 10.689,4.445 10.72,4.825 C10.75,5.189 10.75,5.635 10.75,6.169 L10.75,6.83 C10.75,7.364 10.75,7.81 10.72,8.174 C10.689,8.554 10.622,8.911 10.45,9.248 C10.187,9.765 9.766,10.186 9.248,10.45 C8.911,10.622 8.555,10.689 8.175,10.72 C7.81,10.75 7.365,10.75 6.83,10.75 L6.17,10.75 C5.635,10.75 5.19,10.75 4.825,10.72 C4.445,10.689 4.089,10.622 3.752,10.45 C3.234,10.186 2.813,9.765 2.55,9.248 C2.378,8.911 2.311,8.554 2.28,8.174 C2.25,7.81 2.25,7.364 2.25,6.83 L2.25,6.169 C2.25,5.635 2.25,5.189 2.28,4.825 C2.311,4.445 2.378,4.088 2.55,3.751 C2.813,3.234 3.234,2.813 3.752,2.549 C4.089,2.377 4.445,2.31 4.825,2.279 C5.19,2.249 5.635,2.25 6.169,2.25 L6.17,2.25 Z"/>
</svg>

