<svg xmlns="http://www.w3.org/2000/svg" viewBox="0 0 24 24">
  <defs/>
  <path fill="#151E28" d="M9.25,11 C9.25,10.033 10.033,9.25 11,9.25 L13,9.25 C13.967,9.25 14.75,10.033 14.75,11 L14.75,13 C14.75,13.967 13.967,14.75 13,14.75 L11,14.75 C10.033,14.75 9.25,13.967 9.25,13 Z M11,2.25 L13,2.25 C13.967,2.25 14.75,3.033 14.75,4 L14.75,6 C14.75,6.966 13.967,7.75 13,7.75 L11,7.75 C10.033,7.75 9.25,6.966 9.25,6 L9.25,4 C9.25,3.033 10.033,2.25 11,2.25 Z M4,9.25 L6,9.25 C6.966,9.25 7.75,10.033 7.75,11 L7.75,13 C7.75,13.967 6.966,14.75 6,14.75 L4,14.75 C3.033,14.75 2.25,13.967 2.25,13 L2.25,11 C2.25,10.033 3.033,9.25 4,9.25 Z M4,2.25 L6,2.25 C6.966,2.25 7.75,3.033 7.75,4 L7.75,6 C7.75,6.966 6.966,7.75 6,7.75 L4,7.75 C3.033,7.75 2.25,6.966 2.25,6 L2.25,4 C2.25,3.033 3.033,2.25 4,2.25 Z M18,9.25 L20,9.25 C20.966,9.25 21.75,10.033 21.75,11 L21.75,13 C21.75,13.967 20.966,14.75 20,14.75 L18,14.75 C17.034,14.75 16.25,13.967 16.25,13 L16.25,11 C16.25,10.033 17.034,9.25 18,9.25 Z M11,16.25 L13,16.25 C13.967,16.25 14.75,17.034 14.75,18 L14.75,20 C14.75,20.966 13.967,21.75 13,21.75 L11,21.75 C10.033,21.75 9.25,20.966 9.25,20 L9.25,18 C9.25,17.034 10.033,16.25 11,16.25 Z M16.25,4 C16.25,3.033 17.034,2.25 18,2.25 L20,2.25 C20.966,2.25 21.75,3.033 21.75,4 L21.75,6 C21.75,6.966 20.966,7.75 20,7.75 L18,7.75 C17.034,7.75 16.25,6.966 16.25,6 Z M2.25,18 C2.25,17.034 3.033,16.25 4,16.25 L6,16.25 C6.966,16.25 7.75,17.034 7.75,18 L7.75,20 C7.75,20.966 6.966,21.75 6,21.75 L4,21.75 C3.033,21.75 2.25,20.966 2.25,20 Z M16.25,18 C16.25,17.034 17.034,16.25 18,16.25 L20,16.25 C20.966,16.25 21.75,17.034 21.75,18 L21.75,20 C21.75,20.966 20.966,21.75 20,21.75 L18,21.75 C17.034,21.75 16.25,20.966 16.25,20 Z"/>
</svg>

