<svg xmlns="http://www.w3.org/2000/svg" viewBox="0 0 24 24">
  <defs/>
  <path fill="#151E28" d="M3,1.25 L21,1.25 C21.414,1.25 21.75,1.586 21.75,2 C21.75,2.414 21.414,2.75 21,2.75 L3,2.75 C2.586,2.75 2.25,2.414 2.25,2 C2.25,1.586 2.586,1.25 3,1.25 Z M2.25,14 C2.25,13.586 2.586,13.25 3,13.25 L21,13.25 C21.414,13.25 21.75,13.586 21.75,14 C21.75,14.414 21.414,14.75 21,14.75 L3,14.75 C2.586,14.75 2.25,14.414 2.25,14 Z M9.25,7 C9.25,6.034 10.033,5.25 11,5.25 L13,5.25 C13.967,5.25 14.75,6.034 14.75,7 L14.75,9 C14.75,9.967 13.967,10.75 13,10.75 L11,10.75 C10.033,10.75 9.25,9.967 9.25,9 Z M4,5.25 L6,5.25 C6.966,5.25 7.75,6.034 7.75,7 L7.75,9 C7.75,9.967 6.966,10.75 6,10.75 L4,10.75 C3.033,10.75 2.25,9.967 2.25,9 L2.25,7 C2.25,6.034 3.033,5.25 4,5.25 Z M11,17.25 L13,17.25 C13.967,17.25 14.75,18.034 14.75,19 L14.75,21 C14.75,21.966 13.967,22.75 13,22.75 L11,22.75 C10.033,22.75 9.25,21.966 9.25,21 L9.25,19 C9.25,18.034 10.033,17.25 11,17.25 Z M16.25,7 C16.25,6.034 17.034,5.25 18,5.25 L20,5.25 C20.966,5.25 21.75,6.034 21.75,7 L21.75,9 C21.75,9.967 20.966,10.75 20,10.75 L18,10.75 C17.034,10.75 16.25,9.967 16.25,9 Z M4,17.25 L6,17.25 C6.966,17.25 7.75,18.034 7.75,19 L7.75,21 C7.75,21.966 6.966,22.75 6,22.75 L4,22.75 C3.033,22.75 2.25,21.966 2.25,21 L2.25,19 C2.25,18.034 3.033,17.25 4,17.25 Z M18,17.25 L20,17.25 C20.966,17.25 21.75,18.034 21.75,19 L21.75,21 C21.75,21.966 20.966,22.75 20,22.75 L18,22.75 C17.034,22.75 16.25,21.966 16.25,21 L16.25,19 C16.25,18.034 17.034,17.25 18,17.25 Z"/>
</svg>

