<svg xmlns="http://www.w3.org/2000/svg" viewBox="0 0 24 24">
  <defs/>
  <path fill="#151E28" d="M9.25,7 C9.25,6.034 10.033,5.25 11,5.25 L13,5.25 C13.967,5.25 14.75,6.034 14.75,7 L14.75,9 C14.75,9.967 13.967,10.75 13,10.75 L11,10.75 C10.033,10.75 9.25,9.967 9.25,9 Z M11,13.25 L13,13.25 C13.967,13.25 14.75,14.033 14.75,15 L14.75,17 C14.75,17.966 13.967,18.75 13,18.75 L11,18.75 C10.033,18.75 9.25,17.966 9.25,17 L9.25,15 C9.25,14.033 10.033,13.25 11,13.25 Z M4,5.25 L6,5.25 C6.966,5.25 7.75,6.034 7.75,7 L7.75,9 C7.75,9.967 6.966,10.75 6,10.75 L4,10.75 C3.033,10.75 2.25,9.967 2.25,9 L2.25,7 C2.25,6.034 3.033,5.25 4,5.25 Z M4,13.25 L6,13.25 C6.966,13.25 7.75,14.033 7.75,15 L7.75,17 C7.75,17.966 6.966,18.75 6,18.75 L4,18.75 C3.033,18.75 2.25,17.966 2.25,17 L2.25,15 C2.25,14.033 3.033,13.25 4,13.25 Z M16.25,7 C16.25,6.034 17.034,5.25 18,5.25 L20,5.25 C20.966,5.25 21.75,6.034 21.75,7 L21.75,9 C21.75,9.967 20.966,10.75 20,10.75 L18,10.75 C17.034,10.75 16.25,9.967 16.25,9 Z M18,13.25 L20,13.25 C20.966,13.25 21.75,14.033 21.75,15 L21.75,17 C21.75,17.966 20.966,18.75 20,18.75 L18,18.75 C17.034,18.75 16.25,17.966 16.25,17 L16.25,15 C16.25,14.033 17.034,13.25 18,13.25 Z"/>
</svg>

