<svg xmlns="http://www.w3.org/2000/svg" viewBox="0 0 24 24">
  <defs/>
  <path fill="#151E28" d="M19.247,17.191 L17.876,18.904 C17.309,19.614 17,20.495 17,21.403 L17,22 L9,22 L9,22 L7,22 L7,21.667 C7,20.618 6.506,19.63 5.667,19 C3.988,17.741 3,15.765 3,13.667 L3,12 C3,10.602 3.956,9.428 5.25,9.095 L5.25,12 C5.25,12.414 5.586,12.75 6,12.75 L6,6 C6,4.895 6.895,4 8,4 C9.105,4 10,4.895 10,6 L10,5 C10,3.895 10.895,3 12,3 C13.105,3 14,3.895 14,5 L14,6 C14,4.895 14.895,4 16,4 C17.105,4 18,4.895 18,6 L18,8.5 C18,7.672 18.672,7 19.5,7 C20.328,7 21,7.672 21,8.5 L21,12.194 C21,14.01 20.382,15.773 19.247,17.191 Z"/>
</svg>

