<svg xmlns="http://www.w3.org/2000/svg" viewBox="0 0 24 24">
  <defs/>
  <path fill="#151E28" d="M13.117,2.479 C13.602,2.695 13.961,3.093 14.285,3.55 C14.606,4.004 14.961,4.617 15.399,5.375 L15.418,5.408 L20.868,14.821 L20.887,14.854 C21.327,15.614 21.684,16.229 21.918,16.736 C22.154,17.245 22.321,17.756 22.266,18.285 C22.185,19.061 21.779,19.766 21.148,20.224 C20.718,20.537 20.192,20.648 19.633,20.699 C19.077,20.75 18.366,20.75 17.488,20.75 L6.512,20.75 C5.634,20.75 4.923,20.75 4.367,20.699 C3.808,20.648 3.282,20.537 2.852,20.224 C2.221,19.766 1.815,19.061 1.734,18.285 C1.679,17.756 1.846,17.245 2.082,16.736 C2.316,16.229 2.673,15.614 3.113,14.854 L3.132,14.821 L8.582,5.408 L8.601,5.375 C9.039,4.618 9.394,4.004 9.715,3.55 C10.039,3.093 10.398,2.695 10.883,2.479 C11.594,2.163 12.406,2.163 13.117,2.479 Z M11.728,11.182 C11.828,10.78 11.584,10.373 11.182,10.272 C10.78,10.172 10.373,10.416 10.272,10.818 L10.039,11.75 L9.5,11.75 C9.086,11.75 8.75,12.086 8.75,12.5 C8.75,12.914 9.086,13.25 9.5,13.25 L9.664,13.25 L9.289,14.75 L8.5,14.75 C8.086,14.75 7.75,15.086 7.75,15.5 C7.75,15.914 8.086,16.25 8.5,16.25 L8.914,16.25 L8.772,16.818 C8.672,17.22 8.916,17.627 9.318,17.727 C9.72,17.828 10.127,17.584 10.228,17.182 L10.461,16.25 L12.414,16.25 L12.272,16.818 C12.172,17.22 12.416,17.627 12.818,17.727 C13.22,17.828 13.627,17.584 13.728,17.182 L13.961,16.25 L14.5,16.25 C14.914,16.25 15.25,15.914 15.25,15.5 C15.25,15.086 14.914,14.75 14.5,14.75 L14.336,14.75 L14.711,13.25 L15.5,13.25 C15.914,13.25 16.25,12.914 16.25,12.5 C16.25,12.086 15.914,11.75 15.5,11.75 L15.086,11.75 L15.228,11.182 C15.328,10.78 15.084,10.373 14.682,10.272 C14.28,10.172 13.873,10.416 13.772,10.818 L13.539,11.75 L11.586,11.75 Z M10.836,14.75 L11.211,13.25 L13.164,13.25 L12.789,14.75 Z"/>
</svg>

