<svg xmlns="http://www.w3.org/2000/svg" viewBox="0 0 24 24">
  <defs/>
  <path fill="#151E28" d="M12,2.25 C17.385,2.25 21.75,6.615 21.75,12 C21.75,17.385 17.385,21.75 12,21.75 C6.615,21.75 2.25,17.385 2.25,12 C2.25,6.615 6.615,2.25 12,2.25 Z M11.728,8.182 C11.828,7.78 11.584,7.373 11.182,7.272 C10.78,7.172 10.373,7.416 10.272,7.818 L9.914,9.25 L8.5,9.25 C8.086,9.25 7.75,9.586 7.75,10 C7.75,10.414 8.086,10.75 8.5,10.75 L9.539,10.75 L8.914,13.25 L7.5,13.25 C7.086,13.25 6.75,13.586 6.75,14 C6.75,14.414 7.086,14.75 7.5,14.75 L8.539,14.75 L8.272,15.818 C8.172,16.22 8.416,16.627 8.818,16.728 C9.22,16.828 9.627,16.584 9.728,16.182 L10.086,14.75 L12.539,14.75 L12.272,15.818 C12.172,16.22 12.416,16.627 12.818,16.728 C13.22,16.828 13.627,16.584 13.728,16.182 L14.086,14.75 L15.5,14.75 C15.914,14.75 16.25,14.414 16.25,14 C16.25,13.586 15.914,13.25 15.5,13.25 L14.461,13.25 L15.086,10.75 L16.5,10.75 C16.914,10.75 17.25,10.414 17.25,10 C17.25,9.586 16.914,9.25 16.5,9.25 L15.461,9.25 L15.728,8.182 C15.828,7.78 15.584,7.373 15.182,7.272 C14.78,7.172 14.373,7.416 14.272,7.818 L13.914,9.25 L11.461,9.25 Z M11.086,10.75 L13.539,10.75 L12.914,13.25 L10.461,13.25 Z"/>
</svg>

