<svg xmlns="http://www.w3.org/2000/svg" viewBox="0 0 24 24">
  <defs/>
  <path fill="#151E28" d="M12,2.25 C17.385,2.25 21.75,6.615 21.75,12 C21.75,17.385 17.385,21.75 12,21.75 C6.615,21.75 2.25,17.385 2.25,12 C2.25,6.615 6.615,2.25 12,2.25 Z M10.75,8 C10.75,7.586 10.414,7.25 10,7.25 C9.586,7.25 9.25,7.586 9.25,8 L9.25,9.25 L8,9.25 C7.586,9.25 7.25,9.586 7.25,10 C7.25,10.414 7.586,10.75 8,10.75 L9.25,10.75 L9.25,13.25 L8,13.25 C7.586,13.25 7.25,13.586 7.25,14 C7.25,14.414 7.586,14.75 8,14.75 L9.25,14.75 L9.25,16 C9.25,16.414 9.586,16.75 10,16.75 C10.414,16.75 10.75,16.414 10.75,16 L10.75,14.75 L13.25,14.75 L13.25,16 C13.25,16.414 13.586,16.75 14,16.75 C14.414,16.75 14.75,16.414 14.75,16 L14.75,14.75 L16,14.75 C16.414,14.75 16.75,14.414 16.75,14 C16.75,13.586 16.414,13.25 16,13.25 L14.75,13.25 L14.75,10.75 L16,10.75 C16.414,10.75 16.75,10.414 16.75,10 C16.75,9.586 16.414,9.25 16,9.25 L14.75,9.25 L14.75,8 C14.75,7.586 14.414,7.25 14,7.25 C13.586,7.25 13.25,7.586 13.25,8 L13.25,9.25 L10.75,9.25 Z M13.25,10.75 L13.25,13.25 L10.75,13.25 L10.75,10.75 Z"/>
</svg>

