<svg xmlns="http://www.w3.org/2000/svg" viewBox="0 0 24 24">
  <defs/>
  <path fill="#151E28" d="M9.326,2.25 L14.675,2.25 L14.747,2.25 C15.166,2.25 15.495,2.25 15.814,2.326 C16.094,2.393 16.362,2.505 16.608,2.655 C16.888,2.826 17.121,3.06 17.416,3.356 L17.468,3.407 L20.593,6.532 L20.644,6.584 C20.941,6.88 21.174,7.112 21.345,7.392 C21.496,7.638 21.607,7.906 21.674,8.187 C21.75,8.505 21.75,8.834 21.75,9.252 L21.75,14.748 C21.75,15.166 21.75,15.495 21.674,15.814 C21.607,16.094 21.496,16.362 21.345,16.608 C21.174,16.888 20.941,17.121 20.644,17.416 L20.593,17.468 L17.468,20.593 L17.416,20.644 C17.121,20.941 16.888,21.174 16.608,21.345 C16.362,21.496 16.094,21.607 15.814,21.674 C15.495,21.75 15.166,21.75 14.748,21.75 L9.252,21.75 C8.834,21.75 8.505,21.75 8.187,21.674 C7.906,21.607 7.638,21.496 7.392,21.345 C7.112,21.174 6.88,20.941 6.584,20.644 L6.532,20.593 L3.407,17.468 L3.356,17.416 C3.06,17.121 2.826,16.888 2.655,16.608 C2.505,16.362 2.393,16.094 2.326,15.814 C2.25,15.495 2.25,15.166 2.25,14.747 L2.25,14.675 L2.25,9.326 L2.25,9.253 C2.25,8.834 2.25,8.505 2.326,8.187 C2.393,7.906 2.505,7.638 2.655,7.392 C2.826,7.112 3.06,6.88 3.356,6.584 L3.407,6.532 L6.532,3.407 L6.584,3.356 C6.88,3.06 7.112,2.826 7.392,2.655 C7.638,2.505 7.906,2.393 8.187,2.326 C8.505,2.25 8.834,2.25 9.253,2.25 Z M11.728,8.182 C11.828,7.78 11.584,7.373 11.182,7.272 C10.78,7.172 10.373,7.416 10.272,7.818 L9.914,9.25 L8.5,9.25 C8.086,9.25 7.75,9.586 7.75,10 C7.75,10.414 8.086,10.75 8.5,10.75 L9.539,10.75 L8.914,13.25 L7.5,13.25 C7.086,13.25 6.75,13.586 6.75,14 C6.75,14.414 7.086,14.75 7.5,14.75 L8.539,14.75 L8.272,15.818 C8.172,16.22 8.416,16.627 8.818,16.728 C9.22,16.828 9.627,16.584 9.728,16.182 L10.086,14.75 L12.539,14.75 L12.272,15.818 C12.172,16.22 12.416,16.627 12.818,16.728 C13.22,16.828 13.627,16.584 13.728,16.182 L14.086,14.75 L15.5,14.75 C15.914,14.75 16.25,14.414 16.25,14 C16.25,13.586 15.914,13.25 15.5,13.25 L14.461,13.25 L15.086,10.75 L16.5,10.75 C16.914,10.75 17.25,10.414 17.25,10 C17.25,9.586 16.914,9.25 16.5,9.25 L15.461,9.25 L15.728,8.182 C15.828,7.78 15.584,7.373 15.182,7.272 C14.78,7.172 14.373,7.416 14.272,7.818 L13.914,9.25 L11.461,9.25 Z M10.461,13.25 L11.086,10.75 L13.539,10.75 L12.914,13.25 Z"/>
</svg>

