<svg xmlns="http://www.w3.org/2000/svg" viewBox="0 0 24 24">
  <defs/>
  <path fill="#151E28" d="M9.367,2.25 L14.633,2.25 C15.725,2.25 16.591,2.25 17.288,2.307 C18.002,2.365 18.605,2.487 19.156,2.768 C20.05,3.223 20.777,3.95 21.232,4.844 C21.513,5.395 21.635,5.998 21.693,6.712 C21.75,7.409 21.75,8.275 21.75,9.367 L21.75,14.633 C21.75,15.725 21.75,16.591 21.693,17.288 C21.635,18.002 21.513,18.605 21.232,19.156 C20.777,20.05 20.05,20.777 19.156,21.232 C18.605,21.513 18.002,21.635 17.288,21.693 C16.591,21.75 15.725,21.75 14.633,21.75 L9.367,21.75 C8.275,21.75 7.409,21.75 6.712,21.693 C5.998,21.635 5.395,21.513 4.844,21.232 C3.95,20.777 3.223,20.05 2.768,19.156 C2.487,18.605 2.365,18.002 2.307,17.288 C2.25,16.591 2.25,15.725 2.25,14.633 L2.25,9.367 C2.25,8.275 2.25,7.409 2.307,6.712 C2.365,5.998 2.487,5.395 2.768,4.844 C3.223,3.95 3.95,3.223 4.844,2.768 C5.395,2.487 5.998,2.365 6.712,2.307 C7.409,2.25 8.275,2.25 9.367,2.25 Z M11.728,8.182 C11.828,7.78 11.584,7.373 11.182,7.272 C10.78,7.172 10.373,7.416 10.272,7.818 L9.914,9.25 L8.5,9.25 C8.086,9.25 7.75,9.586 7.75,10 C7.75,10.414 8.086,10.75 8.5,10.75 L9.539,10.75 L8.914,13.25 L7.5,13.25 C7.086,13.25 6.75,13.586 6.75,14 C6.75,14.414 7.086,14.75 7.5,14.75 L8.539,14.75 L8.272,15.818 C8.172,16.22 8.416,16.627 8.818,16.728 C9.22,16.828 9.627,16.584 9.728,16.182 L10.086,14.75 L12.539,14.75 L12.272,15.818 C12.172,16.22 12.416,16.627 12.818,16.728 C13.22,16.828 13.627,16.584 13.728,16.182 L14.086,14.75 L15.5,14.75 C15.914,14.75 16.25,14.414 16.25,14 C16.25,13.586 15.914,13.25 15.5,13.25 L14.461,13.25 L15.086,10.75 L16.5,10.75 C16.914,10.75 17.25,10.414 17.25,10 C17.25,9.586 16.914,9.25 16.5,9.25 L15.461,9.25 L15.728,8.182 C15.828,7.78 15.584,7.373 15.182,7.272 C14.78,7.172 14.373,7.416 14.272,7.818 L13.914,9.25 L11.461,9.25 Z M13.539,10.75 L12.914,13.25 L10.461,13.25 L11.086,10.75 Z"/>
</svg>

