<svg xmlns="http://www.w3.org/2000/svg" viewBox="0 0 24 24">
  <defs/>
  <path fill="#151E28" d="M16.958,9.804 C13.811,12.079 9.366,11.91 6.41,9.3 L6.41,9.3 C6.201,9.114 5.999,8.917 5.805,8.707 L6.94,4.924 C7.252,3.883 8.427,3.375 9.399,3.861 L11.441,4.882 C11.793,5.058 12.207,5.058 12.559,4.882 L14.601,3.861 C15.573,3.375 16.748,3.883 17.06,4.924 L18.195,8.707 C17.813,9.121 17.399,9.486 16.958,9.804 Z M3.205,13.735 C3.281,14.721 3.835,15.638 4.735,16.152 C9.237,18.725 14.763,18.725 19.265,16.152 C20.165,15.638 20.719,14.721 20.795,13.735 C20.823,13.368 20.786,12.992 20.675,12.623 L20.63,12.472 L20.273,11.283 C21.723,12.208 22.75,13.472 22.75,15 C22.75,16.818 21.296,18.262 19.406,19.206 C17.472,20.174 14.853,20.75 12,20.75 C9.147,20.75 6.528,20.174 4.594,19.206 C2.704,18.262 1.25,16.818 1.25,15 C1.25,13.472 2.277,12.208 3.727,11.283 L3.37,12.472 L3.325,12.623 C3.214,12.992 3.177,13.368 3.205,13.735 Z M5.316,10.336 C5.718,10.701 6.144,11.027 6.589,11.314 L6.589,11.314 C10.074,13.561 14.73,13.409 18.058,10.859 L18.058,10.859 C18.272,10.694 18.481,10.52 18.684,10.336 L19.478,12.983 C19.719,13.786 19.374,14.651 18.645,15.067 C14.528,17.42 9.473,17.42 5.355,15.067 C4.626,14.651 4.281,13.786 4.522,12.983 Z"/>
</svg>

