<svg xmlns="http://www.w3.org/2000/svg" viewBox="0 0 24 24">
  <defs/>
  <path fill="#151E28" d="M10.997,1.25 L13.003,1.25 L13.181,1.25 C14.796,1.249 15.832,1.249 16.717,1.621 C17.496,1.948 18.173,2.477 18.679,3.153 C19.254,3.921 19.505,4.927 19.896,6.493 L19.94,6.666 L21.728,13.818 C21.744,13.883 21.751,13.948 21.75,14.014 C21.75,14.018 21.75,14.023 21.75,14.027 L21.75,15.633 C21.75,16.725 21.75,17.591 21.693,18.288 C21.635,19.002 21.513,19.605 21.232,20.156 C20.777,21.05 20.05,21.777 19.156,22.232 C18.605,22.513 18.002,22.635 17.288,22.693 C16.591,22.75 15.725,22.75 14.633,22.75 L9.367,22.75 C8.275,22.75 7.409,22.75 6.712,22.693 C5.998,22.635 5.395,22.513 4.844,22.232 C3.95,21.777 3.223,21.05 2.768,20.156 C2.487,19.605 2.365,19.002 2.307,18.288 C2.25,17.591 2.25,16.725 2.25,15.633 L2.25,14.027 L2.25,14.014 C2.249,13.948 2.256,13.883 2.272,13.818 L4.06,6.666 L4.104,6.493 C4.495,4.927 4.746,3.921 5.321,3.153 C5.827,2.477 6.505,1.948 7.283,1.621 C8.168,1.249 9.204,1.249 10.819,1.25 Z M7.864,3.004 C7.331,3.228 6.868,3.589 6.522,4.052 C6.151,4.547 5.966,5.229 5.516,7.03 L3.961,13.25 L20.039,13.25 L18.484,7.03 C18.034,5.229 17.849,4.547 17.478,4.052 C17.132,3.589 16.669,3.228 16.136,3.004 C15.566,2.764 14.859,2.75 13.003,2.75 L10.997,2.75 C9.141,2.75 8.434,2.764 7.864,3.004 Z M10.25,18 C10.25,18.414 10.586,18.75 11,18.75 L17,18.75 C17.414,18.75 17.75,18.414 17.75,18 C17.75,17.586 17.414,17.25 17,17.25 L11,17.25 C10.586,17.25 10.25,17.586 10.25,18 Z M7,19 C7.552,19 8,18.552 8,18 C8,17.448 7.552,17 7,17 C6.448,17 6,17.448 6,18 C6,18.552 6.448,19 7,19 Z"/>
</svg>

