<svg xmlns="http://www.w3.org/2000/svg" viewBox="0 0 24 24">
  <defs/>
  <path fill="#151E28" d="M12,2.25 C17.385,2.25 21.75,6.615 21.75,12 L21.75,18 C21.75,20.071 20.071,21.75 18,21.75 C15.929,21.75 14.25,20.071 14.25,18 L14.25,16 C14.25,13.929 15.929,12.25 18,12.25 C18.844,12.25 19.623,12.529 20.25,13 L20.25,12 C20.25,7.444 16.556,3.75 12,3.75 C7.444,3.75 3.75,7.444 3.75,12 L3.75,13 C4.377,12.529 5.156,12.25 6,12.25 C8.071,12.25 9.75,13.929 9.75,16 L9.75,18 C9.75,20.071 8.071,21.75 6,21.75 C3.929,21.75 2.25,20.071 2.25,18 L2.25,12 C2.25,6.615 6.615,2.25 12,2.25 Z"/>
</svg>

