<svg xmlns="http://www.w3.org/2000/svg" viewBox="0 0 24 24">
  <defs/>
  <path fill="#151E28" d="M14.302,2.841 L20.302,7.507 C21.216,8.218 21.75,9.31 21.75,10.467 L21.75,18 C21.75,20.071 20.071,21.75 18,21.75 L6,21.75 C3.929,21.75 2.25,20.071 2.25,18 L2.25,10.467 C2.25,9.31 2.784,8.218 3.698,7.507 L9.698,2.841 C11.052,1.787 12.948,1.787 14.302,2.841 Z M8.25,17 C8.25,17.414 8.586,17.75 9,17.75 L15,17.75 C15.414,17.75 15.75,17.414 15.75,17 C15.75,16.586 15.414,16.25 15,16.25 L9,16.25 C8.586,16.25 8.25,16.586 8.25,17 Z"/>
</svg>

