<svg xmlns="http://www.w3.org/2000/svg" viewBox="0 0 24 24">
  <defs/>
  <path fill="#151E28" d="M14.302,2.841 L20.302,7.507 C21.216,8.218 21.75,9.31 21.75,10.467 L21.75,18 C21.75,20.071 20.071,21.75 18,21.75 L6,21.75 C3.929,21.75 2.25,20.071 2.25,18 L2.25,10.467 C2.25,9.31 2.784,8.218 3.698,7.507 L9.698,2.841 C11.052,1.787 12.948,1.787 14.302,2.841 Z M9,11.8 L9,12.2 C9,13.746 10.254,15 11.8,15 L12.2,15 C13.746,15 15,13.746 15,12.2 L15,11.8 C15,10.254 13.746,9 12.2,9 L11.8,9 C10.254,9 9,10.254 9,11.8 Z"/>
</svg>

