<svg xmlns="http://www.w3.org/2000/svg" viewBox="0 0 24 24">
  <defs/>
  <path fill="#151E28" d="M14.302,2.841 L20.302,7.507 C21.216,8.218 21.75,9.31 21.75,10.467 L21.75,18 C21.75,20.071 20.071,21.75 18,21.75 L16,21.75 C15.033,21.75 14.25,20.967 14.25,20 L14.25,17 C14.25,15.758 13.243,14.75 12,14.75 C10.757,14.75 9.75,15.758 9.75,17 L9.75,20 C9.75,20.967 8.967,21.75 8,21.75 L6,21.75 C3.929,21.75 2.25,20.071 2.25,18 L2.25,10.467 C2.25,9.31 2.784,8.218 3.698,7.507 L9.698,2.841 C11.052,1.787 12.948,1.787 14.302,2.841 Z"/>
</svg>

