<svg xmlns="http://www.w3.org/2000/svg" viewBox="0 0 24 24">
  <defs/>
  <path fill="#151E28" d="M10.686,2.25 L13.314,2.25 C14.492,2.25 15.428,2.25 16.137,2.313 C16.829,2.374 17.484,2.505 17.958,2.909 C18.627,3.481 18.982,4.338 18.913,5.216 C18.864,5.836 18.493,6.392 18.047,6.925 C17.59,7.47 16.929,8.132 16.096,8.965 L16.068,8.993 L13.061,12 L16.068,15.007 L16.096,15.035 C16.929,15.868 17.59,16.53 18.047,17.076 C18.493,17.608 18.864,18.164 18.913,18.784 C18.982,19.662 18.627,20.519 17.958,21.091 C17.484,21.495 16.829,21.626 16.137,21.687 C15.428,21.75 14.492,21.75 13.314,21.75 L10.686,21.75 C9.508,21.75 8.572,21.75 7.863,21.687 C7.171,21.626 6.516,21.495 6.042,21.091 C5.373,20.519 5.018,19.662 5.087,18.784 C5.136,18.164 5.507,17.608 5.953,17.076 C6.41,16.53 7.071,15.868 7.904,15.035 L7.932,15.007 L10.939,12 L7.932,8.993 L7.904,8.965 L7.904,8.965 C7.071,8.132 6.41,7.47 5.953,6.925 C5.506,6.392 5.136,5.836 5.087,5.216 C5.018,4.338 5.373,3.481 6.042,2.909 C6.516,2.505 7.171,2.374 7.863,2.313 C8.572,2.25 9.508,2.25 10.686,2.25 L10.686,2.25 Z"/>
</svg>

