<svg xmlns="http://www.w3.org/2000/svg" viewBox="0 0 24 24">
  <defs/>
  <path fill="#151E28" d="M2.25,12 C2.25,6.615 6.615,2.25 12,2.25 C17.385,2.25 21.75,6.615 21.75,12 C21.75,16.987 18.006,21.1 13.175,21.68 C12.79,21.726 12.398,21.75 12,21.75 L11.984,21.75 C6.607,21.741 2.25,17.379 2.25,12 Z M12,3.75 C7.444,3.75 3.75,7.444 3.75,12 C3.75,13.492 4.146,14.892 4.839,16.1 L7.058,13.882 L7.058,13.881 C8.132,12.811 9.868,12.811 10.942,13.881 L10.942,13.882 L10.952,13.891 C11.478,14.416 12.343,14.368 12.809,13.789 L12.809,13.788 L13.213,13.283 L13.285,13.193 C13.656,12.729 13.938,12.376 14.244,12.155 C15.276,11.41 16.685,11.471 17.649,12.303 C17.935,12.55 18.186,12.925 18.515,13.42 L18.579,13.516 L19.643,15.112 C20.034,14.152 20.25,13.101 20.25,12 C20.25,7.444 16.556,3.75 12,3.75 Z M9.3,7.25 L9.7,7.25 C10.832,7.25 11.75,8.168 11.75,9.3 L11.75,9.7 C11.75,10.832 10.832,11.75 9.7,11.75 L9.3,11.75 C8.168,11.75 7.25,10.832 7.25,9.7 L7.25,9.3 C7.25,8.168 8.168,7.25 9.3,7.25 Z M8.75,9.3 L8.75,9.7 C8.75,10.004 8.996,10.25 9.3,10.25 L9.7,10.25 C10.004,10.25 10.25,10.004 10.25,9.7 L10.25,9.3 C10.25,8.996 10.004,8.75 9.7,8.75 L9.3,8.75 C8.996,8.75 8.75,8.996 8.75,9.3 Z"/>
</svg>

