<svg xmlns="http://www.w3.org/2000/svg" viewBox="0 0 24 24">
  <defs/>
  <path fill="#151E28" d="M2.53,1.47 L22.53,21.47 C22.823,21.763 22.823,22.237 22.53,22.53 C22.237,22.823 21.763,22.823 21.47,22.53 L19.786,20.847 C19.588,20.991 19.377,21.12 19.156,21.232 C18.605,21.513 18.002,21.635 17.288,21.693 C16.591,21.75 15.725,21.75 14.633,21.75 L9.367,21.75 C8.275,21.75 7.409,21.75 6.712,21.693 C5.998,21.635 5.395,21.513 4.844,21.232 C3.95,20.777 3.223,20.05 2.768,19.156 C2.487,18.605 2.365,18.002 2.307,17.288 C2.25,16.591 2.25,15.725 2.25,14.633 L2.25,9.367 C2.25,8.275 2.25,7.409 2.307,6.712 C2.365,5.998 2.487,5.395 2.768,4.844 C2.88,4.623 3.009,4.412 3.153,4.214 L1.47,2.53 C1.177,2.237 1.177,1.763 1.47,1.47 C1.763,1.177 2.237,1.177 2.53,1.47 Z M17.166,3.802 C16.537,3.751 15.733,3.75 14.6,3.75 L8,3.75 C7.586,3.75 7.25,3.414 7.25,3 C7.25,2.586 7.586,2.25 8,2.25 L14.633,2.25 C15.725,2.25 16.591,2.25 17.288,2.307 C18.002,2.365 18.605,2.487 19.156,2.768 C20.05,3.223 20.777,3.95 21.232,4.844 C21.513,5.395 21.635,5.998 21.693,6.712 C21.75,7.409 21.75,8.275 21.75,9.367 L21.75,16 C21.75,16.414 21.414,16.75 21,16.75 C20.586,16.75 20.25,16.414 20.25,16 L20.25,9.4 C20.25,8.268 20.249,7.463 20.198,6.834 C20.147,6.213 20.051,5.829 19.896,5.525 C19.584,4.913 19.087,4.416 18.476,4.104 C18.171,3.949 17.787,3.853 17.166,3.802 Z M12.772,13.832 L10.419,11.48 C10.084,11.652 9.703,11.75 9.3,11.75 L8.7,11.75 C7.347,11.75 6.25,10.653 6.25,9.3 L6.25,8.7 C6.25,8.297 6.348,7.916 6.52,7.581 L4.234,5.294 C4.188,5.369 4.144,5.446 4.104,5.525 C3.949,5.829 3.853,6.213 3.802,6.834 C3.751,7.463 3.75,8.268 3.75,9.4 L3.75,14.6 C3.75,15.717 3.751,16.514 3.8,17.139 L7.053,13.887 L7.058,13.881 C8.132,12.811 9.868,12.811 10.942,13.881 L10.947,13.887 L10.952,13.891 C11.465,14.402 12.299,14.37 12.772,13.832 Z M7.75,8.811 L7.75,9.3 C7.75,9.825 8.175,10.25 8.7,10.25 L9.189,10.25 Z"/>
</svg>

