<svg xmlns="http://www.w3.org/2000/svg" viewBox="0 0 24 24">
  <defs/>
  <path fill="#151E28" d="M12,13 C9.239,13 7,10.761 7,8 C7,5.239 9.239,3 12,3 C14.761,3 17,5.239 17,8 C17,10.761 14.761,13 12,13 Z M6.676,10.177 C7.535,12.273 9.595,13.75 12,13.75 C12.281,13.75 12.557,13.73 12.827,13.691 C12.94,14.108 13,14.547 13,15 C13,17.761 10.761,20 8,20 C5.239,20 3,17.761 3,15 C3,12.697 4.557,10.757 6.676,10.177 Z M12.504,18.575 C13.284,17.593 13.75,16.351 13.75,15 C13.75,14.494 13.685,14.003 13.562,13.535 C15.272,13.054 16.659,11.801 17.323,10.177 C19.443,10.757 21,12.697 21,15 C21,17.761 18.761,20 16,20 C14.639,20 13.406,19.456 12.504,18.575 Z"/>
</svg>

