<svg xmlns="http://www.w3.org/2000/svg" viewBox="0 0 24 24">
  <defs/>
  <path fill="#151E28" d="M14.633,2.25 C15.725,2.25 16.591,2.25 17.288,2.307 C18.002,2.365 18.605,2.487 19.156,2.768 C20.05,3.223 20.777,3.95 21.232,4.844 C21.513,5.395 21.635,5.998 21.693,6.712 C21.75,7.409 21.75,8.275 21.75,9.367 L21.75,14.633 C21.75,15.725 21.75,16.591 21.693,17.288 C21.661,17.676 21.611,18.032 21.526,18.364 C21.525,18.37 21.524,18.376 21.522,18.382 C21.451,18.655 21.357,18.911 21.232,19.156 C20.777,20.05 20.05,20.777 19.157,21.232 C18.605,21.513 18.002,21.635 17.288,21.693 C16.591,21.75 15.725,21.75 14.633,21.75 L9.367,21.75 C8.275,21.75 7.41,21.75 6.712,21.693 C6.216,21.653 5.773,21.581 5.364,21.447 C5.184,21.389 5.012,21.318 4.844,21.232 L4.844,21.232 C3.95,20.777 3.223,20.05 2.768,19.156 C2.487,18.605 2.365,18.002 2.307,17.288 C2.25,16.591 2.25,15.725 2.25,14.633 L2.25,9.367 C2.25,8.275 2.25,7.409 2.307,6.712 C2.365,5.998 2.487,5.395 2.768,4.844 C3.223,3.95 3.95,3.223 4.844,2.768 C5.395,2.487 5.998,2.365 6.712,2.307 C7.409,2.25 8.275,2.25 9.367,2.25 L14.633,2.25 Z M20.244,16.014 C20.25,15.606 20.25,15.141 20.25,14.6 L20.25,9.4 C20.25,8.268 20.249,7.463 20.198,6.834 C20.147,6.213 20.051,5.829 19.896,5.525 C19.584,4.913 19.087,4.416 18.476,4.104 C18.171,3.949 17.787,3.853 17.166,3.802 C16.537,3.751 15.733,3.75 14.6,3.75 L9.4,3.75 C8.268,3.75 7.463,3.751 6.834,3.802 C6.213,3.853 5.829,3.949 5.525,4.104 C4.913,4.416 4.416,4.913 4.104,5.525 C3.949,5.829 3.853,6.213 3.802,6.834 C3.751,7.463 3.75,8.268 3.75,9.4 L3.75,14.6 C3.75,15.717 3.751,16.514 3.8,17.14 L7.053,13.887 L7.053,13.886 L7.058,13.882 L7.059,13.881 C8.132,12.811 9.868,12.811 10.942,13.881 L10.942,13.882 L10.947,13.886 L10.947,13.887 L10.952,13.891 C11.478,14.416 12.343,14.368 12.809,13.789 L12.809,13.788 L12.813,13.783 L12.813,13.783 L13.213,13.283 L13.285,13.193 C13.656,12.729 13.938,12.376 14.244,12.155 C15.276,11.41 16.685,11.471 17.65,12.303 C17.936,12.55 18.186,12.925 18.515,13.42 Z M8.7,6.25 L9.3,6.25 C10.653,6.25 11.75,7.347 11.75,8.7 L11.75,9.3 C11.75,10.653 10.653,11.75 9.3,11.75 L8.7,11.75 C7.347,11.75 6.25,10.653 6.25,9.3 L6.25,8.7 C6.25,7.347 7.347,6.25 8.7,6.25 Z M7.75,8.7 L7.75,9.3 C7.75,9.825 8.175,10.25 8.7,10.25 L9.3,10.25 C9.825,10.25 10.25,9.825 10.25,9.3 L10.25,8.7 C10.25,8.175 9.825,7.75 9.3,7.75 L8.7,7.75 C8.175,7.75 7.75,8.175 7.75,8.7 Z"/>
</svg>

