<svg xmlns="http://www.w3.org/2000/svg" viewBox="0 0 24 24">
  <defs/>
  <path fill="#151E28" d="M7.633,7.25 L8.75,7.25 C9.164,7.25 9.5,7.586 9.5,8 C9.5,8.414 9.164,8.75 8.75,8.75 L7.633,8.75 C6.803,8.75 6.58,8.761 6.401,8.827 C6.216,8.895 6.05,9.006 5.916,9.15 C5.787,9.29 5.691,9.492 5.372,10.258 L4.747,11.756 C4.536,12.263 4.444,12.485 4.368,12.708 C4.307,12.887 4.253,13.068 4.207,13.25 L6.381,13.25 C6.916,13.25 7.336,13.249 7.729,13.369 C8.075,13.474 8.397,13.646 8.676,13.875 C8.993,14.136 9.226,14.486 9.522,14.931 L9.574,15.009 L9.674,15.159 C10.047,15.719 10.154,15.865 10.277,15.966 C10.404,16.07 10.55,16.148 10.707,16.196 C10.86,16.242 11.04,16.25 11.713,16.25 L12.288,16.25 C12.96,16.25 13.141,16.242 13.293,16.196 C13.45,16.148 13.596,16.07 13.723,15.966 C13.847,15.865 13.953,15.719 14.326,15.159 L14.426,15.009 L14.478,14.931 C14.774,14.486 15.007,14.136 15.324,13.875 C15.604,13.646 15.925,13.474 16.271,13.369 C16.664,13.249 17.085,13.25 17.619,13.25 L19.793,13.25 C19.746,13.068 19.692,12.887 19.632,12.708 C19.556,12.485 19.463,12.263 19.252,11.756 L18.628,10.258 C18.309,9.492 18.213,9.29 18.083,9.15 C17.949,9.006 17.783,8.895 17.598,8.827 C17.419,8.761 17.196,8.75 16.366,8.75 L15.25,8.75 C14.836,8.75 14.5,8.414 14.5,8 C14.5,7.586 14.836,7.25 15.25,7.25 L16.366,7.25 L16.483,7.25 C17.139,7.249 17.654,7.249 18.117,7.419 C18.523,7.569 18.889,7.813 19.183,8.13 C19.518,8.492 19.716,8.967 19.968,9.573 L19.968,9.573 L20.013,9.681 L20.637,11.179 L20.648,11.206 L20.648,11.206 C20.845,11.679 20.958,11.949 21.051,12.224 C21.433,13.343 21.583,14.528 21.494,15.707 C21.472,15.996 21.431,16.286 21.358,16.793 L21.358,16.793 L21.354,16.822 L21.343,16.903 C21.24,17.626 21.174,18.087 21.042,18.488 C20.495,20.145 19.083,21.369 17.366,21.676 C16.951,21.75 16.485,21.75 15.755,21.75 L8.244,21.75 C7.515,21.75 7.049,21.75 6.634,21.676 C4.916,21.369 3.505,20.145 2.958,18.488 C2.826,18.087 2.76,17.626 2.657,16.903 L2.645,16.822 L2.641,16.793 C2.569,16.286 2.527,15.996 2.505,15.707 C2.416,14.528 2.567,13.343 2.948,12.224 C3.042,11.949 3.155,11.678 3.351,11.206 L3.363,11.179 L3.987,9.681 L4.032,9.573 C4.284,8.967 4.481,8.492 4.816,8.13 C5.111,7.813 5.476,7.569 5.883,7.419 C6.346,7.249 6.86,7.249 7.516,7.25 Z M11.469,1.47 C11.762,1.177 12.237,1.177 12.53,1.47 L15.53,4.47 C15.823,4.763 15.823,5.237 15.53,5.53 C15.237,5.823 14.762,5.823 14.469,5.53 L12.75,3.811 L12.75,12 C12.75,12.414 12.414,12.75 12,12.75 C11.586,12.75 11.25,12.414 11.25,12 L11.25,3.811 L9.53,5.53 C9.237,5.823 8.762,5.823 8.469,5.53 C8.177,5.237 8.177,4.763 8.469,4.47 Z"/>
</svg>

