<svg xmlns="http://www.w3.org/2000/svg" viewBox="0 0 24 24">
  <defs/>
  <path fill="#151E28" d="M7.998,3.25 L8.75,3.25 C9.164,3.25 9.5,3.586 9.5,4 C9.5,4.414 9.164,4.75 8.75,4.75 L7.998,4.75 C7.035,4.75 6.775,4.764 6.577,4.848 C6.372,4.934 6.194,5.073 6.061,5.251 C5.932,5.423 5.855,5.672 5.622,6.606 L4.261,12.047 C4.105,12.67 4.038,12.943 3.992,13.216 L3.986,13.25 L6.381,13.25 C6.916,13.25 7.336,13.249 7.729,13.369 C8.075,13.474 8.397,13.646 8.676,13.875 C8.993,14.136 9.226,14.486 9.522,14.931 L9.574,15.009 L9.674,15.159 C10.047,15.719 10.154,15.865 10.277,15.966 C10.404,16.07 10.55,16.148 10.707,16.196 C10.86,16.242 11.04,16.25 11.713,16.25 L12.288,16.25 C12.96,16.25 13.141,16.242 13.293,16.196 C13.45,16.148 13.597,16.07 13.724,15.966 C13.847,15.865 13.953,15.719 14.326,15.159 L14.426,15.009 L14.478,14.931 C14.774,14.486 15.007,14.136 15.324,13.875 C15.604,13.646 15.925,13.474 16.271,13.369 C16.665,13.249 17.085,13.25 17.619,13.25 L20.014,13.25 L20.008,13.216 C19.962,12.943 19.894,12.67 19.739,12.047 L18.378,6.606 C18.145,5.672 18.068,5.423 17.939,5.251 C17.806,5.073 17.627,4.934 17.423,4.848 C17.224,4.764 16.964,4.75 16.001,4.75 L15.25,4.75 C14.836,4.75 14.5,4.414 14.5,4 C14.5,3.586 14.836,3.25 15.25,3.25 L16.001,3.25 L16.139,3.25 C16.896,3.249 17.489,3.249 18.003,3.465 C18.454,3.654 18.847,3.96 19.14,4.352 C19.474,4.798 19.617,5.374 19.8,6.109 L19.833,6.242 L21.194,11.684 L21.202,11.717 L21.202,11.717 C21.347,12.297 21.43,12.63 21.487,12.967 C21.599,13.631 21.634,14.306 21.591,14.977 C21.569,15.319 21.521,15.658 21.436,16.25 L21.431,16.284 L21.412,16.416 C21.244,17.598 21.136,18.354 20.847,18.983 C20.276,20.227 19.195,21.164 17.883,21.553 C17.22,21.75 16.456,21.75 15.262,21.75 L8.737,21.75 C7.544,21.75 6.78,21.75 6.117,21.553 C4.804,21.164 3.724,20.227 3.153,18.983 C2.864,18.354 2.756,17.598 2.587,16.416 L2.569,16.284 L2.564,16.25 C2.479,15.658 2.431,15.319 2.409,14.977 C2.366,14.306 2.401,13.631 2.513,12.967 C2.569,12.63 2.653,12.297 2.798,11.717 L2.806,11.684 L4.166,6.242 L4.2,6.109 C4.382,5.374 4.526,4.798 4.86,4.352 C5.153,3.96 5.545,3.654 5.996,3.465 C6.511,3.249 7.104,3.249 7.861,3.25 Z M12,1.25 C12.414,1.25 12.75,1.586 12.75,2 L12.75,10.189 L14.47,8.47 C14.762,8.177 15.237,8.177 15.53,8.47 C15.823,8.763 15.823,9.237 15.53,9.53 L12.53,12.53 C12.237,12.823 11.762,12.823 11.47,12.53 L8.47,9.53 C8.177,9.237 8.177,8.763 8.47,8.47 C8.762,8.177 9.237,8.177 9.53,8.47 L11.25,10.189 L11.25,2 C11.25,1.586 11.586,1.25 12,1.25 Z"/>
</svg>

