<svg xmlns="http://www.w3.org/2000/svg" viewBox="0 0 24 24">
  <defs/>
  <path fill="#151E28" d="M9.326,2.25 L14.675,2.25 L14.747,2.25 C15.166,2.25 15.495,2.25 15.814,2.326 C16.094,2.393 16.362,2.505 16.608,2.655 C16.888,2.826 17.121,3.06 17.416,3.356 L17.468,3.407 L20.593,6.532 L20.644,6.584 C20.941,6.88 21.174,7.112 21.345,7.392 C21.496,7.638 21.607,7.906 21.674,8.187 C21.75,8.505 21.75,8.834 21.75,9.252 L21.75,14.748 C21.75,15.166 21.75,15.495 21.674,15.814 C21.607,16.094 21.496,16.362 21.345,16.608 C21.174,16.888 20.941,17.121 20.644,17.416 L20.593,17.468 L17.468,20.593 L17.416,20.644 C17.121,20.941 16.888,21.174 16.608,21.345 C16.362,21.496 16.094,21.607 15.814,21.674 C15.495,21.75 15.166,21.75 14.748,21.75 L9.252,21.75 C8.834,21.75 8.505,21.75 8.187,21.674 C7.906,21.607 7.638,21.496 7.392,21.345 C7.112,21.174 6.88,20.941 6.584,20.644 L6.532,20.593 L3.407,17.468 L3.356,17.416 C3.06,17.121 2.826,16.888 2.655,16.608 C2.505,16.362 2.393,16.094 2.326,15.814 C2.25,15.495 2.25,15.166 2.25,14.747 L2.25,14.675 L2.25,9.326 L2.25,9.253 C2.25,8.834 2.25,8.505 2.326,8.187 C2.393,7.906 2.505,7.638 2.655,7.392 C2.826,7.112 3.06,6.88 3.356,6.584 L3.407,6.532 L6.532,3.407 L6.584,3.356 C6.88,3.06 7.112,2.826 7.392,2.655 C7.638,2.505 7.906,2.393 8.187,2.326 C8.505,2.25 8.834,2.25 9.253,2.25 Z M7.75,12 C7.75,11.033 8.533,10.25 9.5,10.25 C10.467,10.25 11.25,11.033 11.25,12 C11.25,13.795 12.705,15.25 14.5,15.25 C16.295,15.25 17.75,13.795 17.75,12 C17.75,10.205 16.295,8.75 14.5,8.75 C13.909,8.75 13.353,8.908 12.875,9.185 C12.516,9.393 12.393,9.851 12.601,10.21 C12.808,10.568 13.267,10.691 13.625,10.484 C13.882,10.335 14.18,10.25 14.5,10.25 C15.467,10.25 16.25,11.033 16.25,12 C16.25,12.967 15.467,13.75 14.5,13.75 C13.533,13.75 12.75,12.967 12.75,12 C12.75,10.205 11.295,8.75 9.5,8.75 C7.705,8.75 6.25,10.205 6.25,12 C6.25,13.795 7.705,15.25 9.5,15.25 C10.091,15.25 10.647,15.092 11.125,14.815 C11.484,14.607 11.607,14.149 11.399,13.79 C11.192,13.432 10.733,13.309 10.375,13.516 C10.118,13.665 9.82,13.75 9.5,13.75 C8.533,13.75 7.75,12.967 7.75,12 Z"/>
</svg>

