<svg xmlns="http://www.w3.org/2000/svg" viewBox="0 0 24 24">
  <defs/>
  <path fill="#151E28" d="M9.367,2.25 L14.633,2.25 C15.725,2.25 16.591,2.25 17.288,2.307 C18.002,2.365 18.605,2.487 19.156,2.768 C20.05,3.223 20.777,3.95 21.232,4.844 C21.513,5.395 21.635,5.998 21.693,6.712 C21.75,7.409 21.75,8.275 21.75,9.367 L21.75,14.633 C21.75,15.725 21.75,16.591 21.693,17.288 C21.635,18.002 21.513,18.605 21.232,19.156 C20.777,20.05 20.05,20.777 19.156,21.232 C18.605,21.513 18.002,21.635 17.288,21.693 C16.591,21.75 15.725,21.75 14.633,21.75 L9.367,21.75 C8.275,21.75 7.409,21.75 6.712,21.693 C5.998,21.635 5.395,21.513 4.844,21.232 C3.95,20.777 3.223,20.05 2.768,19.156 C2.487,18.605 2.365,18.002 2.307,17.288 C2.25,16.591 2.25,15.725 2.25,14.633 L2.25,9.367 C2.25,8.275 2.25,7.409 2.307,6.712 C2.365,5.998 2.487,5.395 2.768,4.844 C3.223,3.95 3.95,3.223 4.844,2.768 C5.395,2.487 5.998,2.365 6.712,2.307 C7.409,2.25 8.275,2.25 9.367,2.25 Z M7.75,12 C7.75,11.033 8.533,10.25 9.5,10.25 C10.467,10.25 11.25,11.033 11.25,12 C11.25,13.795 12.705,15.25 14.5,15.25 C16.295,15.25 17.75,13.795 17.75,12 C17.75,10.205 16.295,8.75 14.5,8.75 C13.909,8.75 13.353,8.908 12.875,9.185 C12.516,9.393 12.393,9.851 12.601,10.21 C12.808,10.568 13.267,10.691 13.625,10.484 C13.882,10.335 14.18,10.25 14.5,10.25 C15.467,10.25 16.25,11.033 16.25,12 C16.25,12.967 15.467,13.75 14.5,13.75 C13.533,13.75 12.75,12.967 12.75,12 C12.75,10.205 11.295,8.75 9.5,8.75 C7.705,8.75 6.25,10.205 6.25,12 C6.25,13.795 7.705,15.25 9.5,15.25 C10.091,15.25 10.647,15.092 11.125,14.815 C11.484,14.607 11.607,14.149 11.399,13.79 C11.192,13.432 10.733,13.309 10.375,13.516 C10.118,13.665 9.82,13.75 9.5,13.75 C8.533,13.75 7.75,12.967 7.75,12 Z"/>
</svg>

