<svg xmlns="http://www.w3.org/2000/svg" viewBox="0 0 24 24">
  <defs/>
  <path fill="#151E28" d="M12,2.25 C17.385,2.25 21.75,6.615 21.75,12 C21.75,17.385 17.385,21.75 12,21.75 C6.615,21.75 2.25,17.385 2.25,12 C2.25,6.615 6.615,2.25 12,2.25 Z M7.75,12 C7.75,11.033 8.533,10.25 9.5,10.25 C10.467,10.25 11.25,11.033 11.25,12 C11.25,13.795 12.705,15.25 14.5,15.25 C16.295,15.25 17.75,13.795 17.75,12 C17.75,10.205 16.295,8.75 14.5,8.75 C13.909,8.75 13.353,8.908 12.875,9.185 C12.516,9.393 12.393,9.851 12.601,10.21 C12.808,10.568 13.267,10.691 13.625,10.484 C13.882,10.335 14.18,10.25 14.5,10.25 C15.467,10.25 16.25,11.033 16.25,12 C16.25,12.967 15.467,13.75 14.5,13.75 C13.533,13.75 12.75,12.967 12.75,12 C12.75,10.205 11.295,8.75 9.5,8.75 C7.705,8.75 6.25,10.205 6.25,12 C6.25,13.795 7.705,15.25 9.5,15.25 C10.091,15.25 10.647,15.092 11.125,14.815 C11.484,14.607 11.607,14.149 11.399,13.79 C11.192,13.432 10.733,13.309 10.375,13.516 C10.118,13.665 9.82,13.75 9.5,13.75 C8.533,13.75 7.75,12.967 7.75,12 Z"/>
</svg>

