<svg xmlns="http://www.w3.org/2000/svg" viewBox="0 0 24 24">
  <defs/>
  <path fill="#151E28" d="M13.117,2.479 C13.602,2.695 13.961,3.093 14.285,3.55 C14.606,4.004 14.961,4.617 15.399,5.375 L15.399,5.375 L15.418,5.408 L20.868,14.821 L20.887,14.854 C21.327,15.614 21.684,16.229 21.918,16.736 C22.154,17.245 22.321,17.756 22.266,18.285 C22.185,19.061 21.779,19.766 21.148,20.224 C20.718,20.537 20.192,20.648 19.633,20.699 C19.077,20.75 18.366,20.75 17.488,20.75 L6.512,20.75 C5.634,20.75 4.923,20.75 4.367,20.699 C3.808,20.648 3.282,20.537 2.852,20.224 C2.221,19.766 1.815,19.061 1.734,18.285 C1.679,17.756 1.846,17.245 2.082,16.736 C2.316,16.229 2.673,15.614 3.113,14.854 L3.132,14.821 L8.582,5.408 L8.601,5.375 C9.039,4.618 9.394,4.004 9.715,3.55 C10.039,3.093 10.398,2.695 10.883,2.479 C11.594,2.163 12.406,2.163 13.117,2.479 Z M7.75,15 C7.75,14.033 8.533,13.25 9.5,13.25 C10.467,13.25 11.25,14.033 11.25,15 C11.25,16.795 12.705,18.25 14.5,18.25 C16.295,18.25 17.75,16.795 17.75,15 C17.75,13.205 16.295,11.75 14.5,11.75 C13.909,11.75 13.353,11.908 12.875,12.185 C12.516,12.393 12.393,12.851 12.601,13.21 C12.808,13.568 13.267,13.691 13.625,13.484 C13.882,13.335 14.18,13.25 14.5,13.25 C15.467,13.25 16.25,14.033 16.25,15 C16.25,15.967 15.467,16.75 14.5,16.75 C13.533,16.75 12.75,15.967 12.75,15 C12.75,13.205 11.295,11.75 9.5,11.75 C7.705,11.75 6.25,13.205 6.25,15 C6.25,16.795 7.705,18.25 9.5,18.25 C10.091,18.25 10.647,18.092 11.125,17.815 C11.484,17.607 11.607,17.149 11.399,16.79 C11.192,16.431 10.733,16.309 10.375,16.516 C10.118,16.665 9.82,16.75 9.5,16.75 C8.533,16.75 7.75,15.967 7.75,15 Z"/>
</svg>

