<svg xmlns="http://www.w3.org/2000/svg" viewBox="0 0 24 24">
  <defs/>
  <path fill="#151E28" d="M12,2.25 C17.385,2.25 21.75,6.615 21.75,12 C21.75,17.385 17.385,21.75 12,21.75 C6.615,21.75 2.25,17.385 2.25,12 C2.25,6.615 6.615,2.25 12,2.25 Z M12.75,11 C12.75,10.586 12.414,10.25 12,10.25 C11.586,10.25 11.25,10.586 11.25,11 L11.25,16 C11.25,16.414 11.586,16.75 12,16.75 C12.414,16.75 12.75,16.414 12.75,16 Z M13,8 C13,7.448 12.552,7 12,7 C11.448,7 11,7.448 11,8 C11,8.552 11.448,9 12,9 C12.552,9 13,8.552 13,8 Z"/>
</svg>

