<svg xmlns="http://www.w3.org/2000/svg" viewBox="0 0 24 24">
  <defs/>
  <path fill="#151E28" d="M5.17,5.25 L18.83,5.25 C19.365,5.25 19.81,5.25 20.175,5.28 C20.555,5.311 20.911,5.378 21.249,5.55 C21.766,5.813 22.187,6.234 22.45,6.752 C22.622,7.089 22.689,7.445 22.72,7.825 C22.75,8.19 22.75,8.635 22.75,9.17 L22.75,14.83 C22.75,15.365 22.75,15.81 22.72,16.175 C22.689,16.555 22.622,16.911 22.45,17.249 C22.187,17.766 21.766,18.187 21.249,18.45 C20.911,18.622 20.555,18.689 20.175,18.72 C19.81,18.75 19.365,18.75 18.83,18.75 L5.17,18.75 C4.635,18.75 4.19,18.75 3.825,18.72 C3.445,18.689 3.089,18.622 2.752,18.45 C2.234,18.187 1.813,17.766 1.55,17.249 C1.378,16.911 1.311,16.555 1.28,16.175 C1.25,15.81 1.25,15.365 1.25,14.83 L1.25,9.169 C1.25,8.635 1.25,8.19 1.28,7.825 C1.311,7.445 1.378,7.089 1.55,6.752 C1.813,6.234 2.234,5.813 2.752,5.55 C3.089,5.378 3.445,5.311 3.825,5.28 C4.19,5.25 4.635,5.25 5.169,5.25 L5.17,5.25 Z M9.25,14 C9.25,14.414 9.586,14.75 10,14.75 L14,14.75 C14.414,14.75 14.75,14.414 14.75,14 C14.75,13.586 14.414,13.25 14,13.25 L10,13.25 C9.586,13.25 9.25,13.586 9.25,14 Z M19,14 C19,13.448 18.552,13 18,13 C17.448,13 17,13.448 17,14 C17,14.552 17.448,15 18,15 C18.552,15 19,14.552 19,14 Z M15,10 C15,9.448 14.552,9 14,9 C13.448,9 13,9.448 13,10 C13,10.552 13.448,11 14,11 C14.552,11 15,10.552 15,10 Z M18,11 C18.552,11 19,10.552 19,10 C19,9.448 18.552,9 18,9 C17.448,9 17,9.448 17,10 C17,10.552 17.448,11 18,11 Z M10,11 C10.552,11 11,10.552 11,10 C11,9.448 10.552,9 10,9 C9.448,9 9,9.448 9,10 C9,10.552 9.448,11 10,11 Z M6,15 C6.552,15 7,14.552 7,14 C7,13.448 6.552,13 6,13 C5.448,13 5,13.448 5,14 C5,14.552 5.448,15 6,15 Z M7,10 C7,9.448 6.552,9 6,9 C5.448,9 5,9.448 5,10 C5,10.552 5.448,11 6,11 C6.552,11 7,10.552 7,10 Z"/>
</svg>

