<svg xmlns="http://www.w3.org/2000/svg" viewBox="0 0 24 24">
  <defs/>
  <path fill="#151E28" d="M5.2,2.25 L18.83,2.25 C19.365,2.25 19.81,2.25 20.175,2.28 C20.555,2.311 20.911,2.378 21.249,2.55 C21.766,2.813 22.187,3.234 22.45,3.752 C22.622,4.089 22.689,4.445 22.72,4.825 C22.75,5.19 22.75,5.635 22.75,6.17 L22.75,11.83 C22.75,12.365 22.75,12.81 22.72,13.175 C22.689,13.555 22.622,13.911 22.45,14.248 C22.187,14.766 21.766,15.187 21.249,15.45 C20.911,15.622 20.555,15.689 20.175,15.72 C19.81,15.75 19.365,15.75 18.83,15.75 L5.17,15.75 C4.635,15.75 4.19,15.75 3.825,15.72 C3.445,15.689 3.089,15.622 2.752,15.45 C2.234,15.187 1.813,14.766 1.55,14.248 C1.378,13.911 1.311,13.555 1.28,13.175 C1.25,12.81 1.25,12.365 1.25,11.83 L1.25,6.169 C1.25,5.635 1.25,5.19 1.28,4.825 C1.311,4.445 1.378,4.089 1.55,3.752 C1.813,3.234 2.234,2.813 2.752,2.55 C3.089,2.378 3.445,2.311 3.825,2.28 C4.19,2.25 4.635,2.25 5.169,2.25 L5.2,2.25 Z M8.47,18.53 C8.177,18.237 8.177,17.763 8.47,17.47 C8.763,17.177 9.237,17.177 9.53,17.47 L12,19.939 L14.47,17.47 C14.763,17.177 15.237,17.177 15.53,17.47 C15.823,17.763 15.823,18.237 15.53,18.53 L12.53,21.53 C12.237,21.823 11.763,21.823 11.47,21.53 Z M9.25,11 C9.25,11.414 9.586,11.75 10,11.75 L14,11.75 C14.414,11.75 14.75,11.414 14.75,11 C14.75,10.586 14.414,10.25 14,10.25 L10,10.25 C9.586,10.25 9.25,10.586 9.25,11 Z M19,11 C19,10.448 18.552,10 18,10 C17.448,10 17,10.448 17,11 C17,11.552 17.448,12 18,12 C18.552,12 19,11.552 19,11 Z M6,12 C6.552,12 7,11.552 7,11 C7,10.448 6.552,10 6,10 C5.448,10 5,10.448 5,11 C5,11.552 5.448,12 6,12 Z M15,7 C15,6.448 14.552,6 14,6 C13.448,6 13,6.448 13,7 C13,7.552 13.448,8 14,8 C14.552,8 15,7.552 15,7 Z M18,8 C18.552,8 19,7.552 19,7 C19,6.448 18.552,6 18,6 C17.448,6 17,6.448 17,7 C17,7.552 17.448,8 18,8 Z M10,8 C10.552,8 11,7.552 11,7 C11,6.448 10.552,6 10,6 C9.448,6 9,6.448 9,7 C9,7.552 9.448,8 10,8 Z M7,7 C7,6.448 6.552,6 6,6 C5.448,6 5,6.448 5,7 C5,7.552 5.448,8 6,8 C6.552,8 7,7.552 7,7 Z"/>
</svg>

