<svg xmlns="http://www.w3.org/2000/svg" viewBox="0 0 24 24">
  <defs/>
  <path fill="#151E28" d="M3.692,16.066 C2.316,14.69 1.855,12.74 2.136,10.773 C2.417,8.806 3.44,6.771 5.106,5.106 C6.772,3.44 8.806,2.417 10.773,2.136 C12.74,1.855 14.69,2.315 16.066,3.691 L18.894,6.52 C22.312,9.937 22.312,15.477 18.894,18.894 C15.477,22.311 9.937,22.311 6.52,18.894 Z M7.581,17.833 C10.412,20.665 15.002,20.665 17.834,17.833 C20.665,15.002 20.665,10.412 17.834,7.58 L17.685,7.432 C17.718,7.941 17.696,8.462 17.621,8.985 C17.34,10.952 16.317,12.986 14.652,14.652 C12.986,16.317 10.952,17.34 8.985,17.621 C8.463,17.696 7.942,17.718 7.432,17.685 Z M7.934,6.873 C7.641,6.581 7.167,6.581 6.874,6.873 C6.581,7.166 6.581,7.641 6.874,7.934 L7.581,8.641 C7.874,8.934 8.349,8.934 8.641,8.641 C8.934,8.348 8.934,7.873 8.641,7.581 Z M12.177,11.116 C11.884,10.823 11.409,10.823 11.116,11.116 C10.823,11.409 10.823,11.884 11.116,12.177 L11.823,12.884 C12.116,13.177 12.591,13.177 12.884,12.884 C13.177,12.591 13.177,12.116 12.884,11.823 Z M13.591,6.166 C13.298,5.873 12.823,5.873 12.531,6.166 L11.823,6.873 C11.531,7.166 11.531,7.641 11.823,7.934 C12.116,8.227 12.591,8.227 12.884,7.934 L13.591,7.227 C13.884,6.934 13.884,6.459 13.591,6.166 Z M7.934,11.823 C7.641,11.53 7.167,11.53 6.874,11.823 L6.167,12.53 C5.874,12.823 5.874,13.298 6.167,13.591 C6.459,13.884 6.934,13.884 7.227,13.591 L7.934,12.884 C8.227,12.591 8.227,12.116 7.934,11.823 Z"/>
</svg>

