<svg xmlns="http://www.w3.org/2000/svg" viewBox="0 0 24 24">
  <defs/>
  <path fill="#151E28" d="M9.03,4.97 C10.246,6.185 10.404,8.058 9.505,9.444 L19.53,19.47 C19.823,19.763 19.823,20.237 19.53,20.53 C19.237,20.823 18.763,20.823 18.47,20.53 L8.444,10.505 C7.058,11.404 5.185,11.246 3.97,10.03 L2.47,8.53 C1.072,7.133 1.072,4.867 2.47,3.47 C3.867,2.072 6.133,2.072 7.53,3.47 Z M20.287,2.307 C20.567,2.423 20.75,2.697 20.75,3 C20.75,6.651 19.705,9.286 18.639,11.018 C18.107,11.882 17.573,12.517 17.166,12.941 C16.962,13.153 16.79,13.313 16.666,13.422 C16.603,13.476 16.553,13.518 16.516,13.548 C16.498,13.563 16.483,13.574 16.472,13.583 L16.458,13.594 L16.453,13.597 L16.451,13.599 L16.451,13.599 C16.45,13.6 16.448,13.597 16,13 L16.45,13.6 C16.151,13.824 15.733,13.794 15.469,13.53 L12.469,10.53 C12.177,10.238 12.177,9.763 12.469,9.47 L13,10 L12.47,9.47 L12.47,9.469 L12.471,9.469 L12.474,9.465 L12.487,9.452 L12.537,9.402 L12.729,9.21 L13.423,8.517 L15.594,6.345 L19.469,2.47 C19.684,2.255 20.007,2.191 20.287,2.307 Z M9.53,13.47 C9.823,13.763 9.823,14.238 9.53,14.53 L3.53,20.53 C3.237,20.823 2.762,20.823 2.47,20.53 C2.177,20.237 2.177,19.763 2.47,19.47 L8.47,13.47 C8.762,13.177 9.237,13.177 9.53,13.47 Z"/>
</svg>

