<svg xmlns="http://www.w3.org/2000/svg" viewBox="0 0 24 24">
  <defs/>
  <path fill="#151E28" d="M20.249,2.916 L19.509,3.04 C20.249,2.916 20.249,2.917 20.249,2.917 L20.25,2.918 L20.25,2.921 L20.251,2.929 L20.255,2.954 C20.258,2.975 20.262,3.004 20.267,3.041 C20.277,3.115 20.289,3.22 20.301,3.354 C20.324,3.623 20.348,4.01 20.348,4.498 C20.348,5.473 20.255,6.854 19.888,8.506 C19.153,11.814 17.321,16.188 12.969,20.541 C12.676,20.833 12.201,20.833 11.908,20.541 L11.896,20.528 L11.883,20.516 L11.871,20.503 L11.858,20.491 L11.833,20.466 L11.821,20.453 L11.808,20.441 L11.795,20.428 L11.783,20.415 L11.758,20.39 L11.745,20.378 L11.732,20.365 L11.72,20.352 L11.707,20.34 L11.694,20.327 L11.682,20.314 L11.669,20.302 L11.656,20.289 L11.644,20.276 L11.631,20.263 L11.618,20.251 L11.605,20.238 L11.593,20.225 L11.58,20.212 L11.567,20.199 L11.554,20.187 L11.541,20.174 L11.528,20.161 L11.516,20.148 L11.503,20.135 L11.49,20.122 L11.477,20.11 L11.464,20.097 L11.451,20.084 L11.438,20.071 L11.425,20.058 L11.412,20.045 L11.399,20.032 L11.387,20.019 L11.374,20.006 L11.361,19.993 L11.348,19.98 L11.335,19.967 L11.322,19.954 L11.309,19.941 L11.296,19.928 L11.283,19.915 L11.269,19.902 L11.257,19.889 L11.243,19.876 L11.23,19.863 L11.217,19.85 L11.204,19.837 L11.191,19.824 L11.178,19.811 L11.165,19.798 L11.152,19.784 L11.139,19.771 L11.113,19.745 L11.099,19.732 L11.086,19.719 L11.073,19.706 L11.06,19.692 L11.047,19.679 L11.034,19.666 L11.02,19.653 L11.007,19.64 L10.994,19.627 L10.981,19.613 L10.968,19.6 L10.941,19.574 L10.928,19.561 L10.915,19.547 L10.902,19.534 L10.875,19.508 L10.862,19.495 L10.849,19.481 L10.836,19.468 L10.822,19.455 L10.809,19.442 L10.796,19.428 L10.769,19.402 L10.756,19.389 L10.743,19.375 L10.73,19.362 L10.716,19.349 L10.703,19.336 L10.69,19.323 L10.677,19.309 L10.663,19.296 L10.65,19.283 L10.637,19.269 L10.624,19.256 L10.61,19.243 L10.597,19.23 L10.584,19.216 L10.571,19.203 L10.557,19.19 L10.544,19.177 L10.531,19.163 L10.518,19.15 L10.504,19.137 L10.491,19.124 L10.478,19.11 L10.465,19.097 L10.451,19.084 L10.438,19.071 L10.425,19.057 L10.412,19.044 L10.398,19.031 L10.385,19.018 L10.372,19.004 L10.359,18.991 L10.345,18.978 L10.332,18.965 L10.319,18.951 L10.306,18.938 L10.292,18.925 L10.279,18.912 L10.266,18.899 L10.253,18.885 L10.24,18.872 L10.226,18.859 L10.213,18.846 L10.2,18.833 L10.187,18.819 L10.174,18.806 L10.16,18.793 L10.147,18.78 L10.134,18.767 L10.121,18.753 L10.108,18.74 L10.095,18.727 L10.082,18.714 L10.068,18.701 L10.055,18.688 L10.042,18.675 L10.029,18.662 L10.016,18.648 L10.003,18.635 L9.99,18.622 L9.976,18.609 L9.963,18.596 L9.95,18.583 L9.924,18.557 L9.911,18.544 L9.898,18.531 L9.885,18.518 L9.872,18.504 L9.859,18.492 L9.846,18.479 L9.833,18.465 L9.82,18.452 L9.807,18.44 L9.794,18.427 L9.781,18.413 L9.768,18.401 L9.755,18.388 L9.742,18.375 L9.729,18.362 L9.716,18.349 L9.703,18.336 L9.69,18.323 L9.678,18.31 L9.665,18.297 L9.652,18.284 L9.639,18.271 L9.626,18.259 L9.613,18.246 L9.61,18.242 L6.251,21.601 C5.372,22.48 3.948,22.48 3.069,21.601 C2.19,20.723 2.19,19.298 3.069,18.419 L6.95,14.538 L6.958,14.53 L18.979,2.509 C19.178,2.311 19.471,2.24 19.738,2.325 C20.006,2.411 20.203,2.639 20.249,2.916 Z M7.488,16.121 L4.13,19.48 C3.837,19.773 3.837,20.248 4.13,20.541 C4.423,20.833 4.897,20.833 5.19,20.541 L8.549,17.182 Z"/>
</svg>

