<svg xmlns="http://www.w3.org/2000/svg" viewBox="0 0 24 24">
  <defs/>
  <path fill="#151E28" d="M16,13 L16.45,13.6 C16.151,13.824 15.733,13.794 15.47,13.531 L12.47,10.531 C12.177,10.238 12.177,9.763 12.47,9.47 L13,10 L12.47,9.47 L12.47,9.47 L12.471,9.469 L12.474,9.465 L12.487,9.453 L12.537,9.402 L12.729,9.21 L13.423,8.517 L15.595,6.345 L19.47,2.47 C19.684,2.255 20.007,2.191 20.287,2.307 C20.567,2.423 20.75,2.697 20.75,3 C20.75,6.651 19.705,9.286 18.639,11.018 C18.107,11.882 17.573,12.517 17.166,12.941 C16.962,13.153 16.79,13.313 16.666,13.422 C16.603,13.476 16.553,13.518 16.516,13.548 C16.498,13.563 16.483,13.575 16.472,13.583 L16.458,13.594 L16.453,13.598 L16.451,13.599 L16.451,13.6 C16.45,13.6 16.446,13.595 16,13 Z M5.378,2.581 C5.609,2.238 6.075,2.147 6.419,2.378 L6,3 C6.419,2.378 6.419,2.378 6.419,2.378 L6.42,2.379 L6.421,2.38 L6.426,2.383 L6.443,2.394 C6.457,2.404 6.477,2.417 6.502,2.435 C6.553,2.471 6.625,2.522 6.715,2.587 C6.894,2.719 7.145,2.908 7.434,3.143 C8.009,3.61 8.752,4.273 9.388,5.035 C10.012,5.781 10.602,6.704 10.75,7.687 C10.826,8.194 10.785,8.723 10.567,9.238 C10.449,9.515 10.286,9.775 10.078,10.018 L19.53,19.47 C19.823,19.763 19.823,20.237 19.53,20.53 C19.237,20.823 18.763,20.823 18.47,20.53 L8.898,10.958 C8.023,11.439 7.133,11.538 6.288,11.375 C5.297,11.184 4.418,10.644 3.712,10.064 C2.999,9.479 2.415,8.813 2.012,8.302 C1.81,8.044 1.65,7.822 1.54,7.662 C1.485,7.583 1.442,7.518 1.412,7.473 C1.397,7.45 1.386,7.432 1.378,7.419 L1.368,7.404 L1.365,7.399 L1.364,7.397 L1.364,7.397 C1.363,7.397 1.364,7.396 1.999,7.001 L1.363,7.396 C1.144,7.045 1.252,6.582 1.604,6.363 C1.955,6.145 2.418,6.252 2.637,6.603 L2.637,6.603 L2.637,6.603 L2.637,6.604 L2.637,6.605 L2.643,6.613 C2.648,6.621 2.657,6.635 2.668,6.652 C2.691,6.688 2.727,6.742 2.775,6.811 C2.87,6.949 3.011,7.145 3.191,7.374 C3.554,7.835 4.063,8.412 4.664,8.905 C5.27,9.403 5.922,9.777 6.572,9.902 C7.189,10.021 7.848,9.927 8.55,9.4 C8.902,9.136 9.089,8.881 9.186,8.653 C9.281,8.427 9.307,8.183 9.266,7.91 C9.18,7.335 8.801,6.672 8.237,5.996 C7.686,5.337 7.023,4.742 6.488,4.307 C6.222,4.091 5.993,3.917 5.83,3.799 C5.749,3.74 5.685,3.695 5.643,3.665 C5.621,3.65 5.605,3.638 5.595,3.631 L5.583,3.624 L5.581,3.622 L5.581,3.622 L5.581,3.622 C5.238,3.391 5.147,2.925 5.378,2.581 Z M9.53,14.531 L3.53,20.531 C3.237,20.823 2.762,20.823 2.47,20.531 C2.177,20.238 2.177,19.763 2.47,19.47 L8.47,13.47 C8.762,13.177 9.237,13.177 9.53,13.47 C9.823,13.763 9.823,14.238 9.53,14.531 Z M3.47,4.47 C3.763,4.177 4.238,4.177 4.53,4.47 L7.53,7.47 C7.823,7.763 7.823,8.238 7.53,8.53 C7.238,8.823 6.763,8.823 6.47,8.53 L3.47,5.53 C3.177,5.238 3.177,4.763 3.47,4.47 Z"/>
</svg>

