<svg xmlns="http://www.w3.org/2000/svg" viewBox="0 0 24 24">
  <defs/>
  <path fill="#151E28" d="M14.75,2.25 L14.75,7.75 L9.25,7.75 L9.25,2.25 L14.75,2.25 Z M7.75,9.25 L7.75,14.75 L2.25,14.75 L2.25,9.25 L7.75,9.25 Z M9.25,9.25 L14.75,9.25 L14.75,14.75 L9.25,14.75 Z M21.75,14.75 L16.25,14.75 L16.25,9.25 L21.75,9.25 Z M9.25,21.75 L9.25,16.25 L14.75,16.25 L14.75,21.75 Z M16.25,2.259 C16.633,2.267 16.977,2.281 17.288,2.306 C18.002,2.365 18.605,2.486 19.156,2.767 C20.05,3.223 20.777,3.949 21.232,4.843 C21.513,5.394 21.635,5.998 21.693,6.711 C21.718,7.022 21.733,7.367 21.74,7.75 L16.25,7.75 Z M7.75,2.259 L7.75,7.75 L2.26,7.75 C2.267,7.367 2.282,7.022 2.307,6.711 C2.365,5.998 2.487,5.394 2.768,4.843 C3.223,3.949 3.95,3.223 4.844,2.767 C5.395,2.486 5.998,2.365 6.712,2.306 C7.023,2.281 7.367,2.267 7.75,2.259 Z M21.74,16.25 C21.733,16.633 21.718,16.977 21.693,17.288 C21.635,18.001 21.513,18.605 21.232,19.156 C20.777,20.05 20.05,20.776 19.156,21.232 C18.605,21.513 18.002,21.634 17.288,21.692 C16.977,21.718 16.633,21.732 16.25,21.74 L16.25,16.25 Z M2.26,16.25 L7.75,16.25 L7.75,21.74 C7.367,21.732 7.023,21.718 6.712,21.692 C5.998,21.634 5.395,21.513 4.844,21.232 C3.95,20.776 3.223,20.05 2.768,19.156 C2.487,18.605 2.365,18.001 2.307,17.288 C2.282,16.977 2.268,16.633 2.26,16.25 Z"/>
</svg>

