<svg xmlns="http://www.w3.org/2000/svg" viewBox="0 0 24 24">
  <defs/>
  <path fill="#151E28" d="M14.25,2.25 L14.25,21.75 L9.367,21.75 C8.275,21.75 7.409,21.75 6.712,21.692 C5.998,21.634 5.395,21.513 4.844,21.232 C3.95,20.776 3.223,20.05 2.768,19.156 C2.487,18.605 2.365,18.001 2.307,17.288 C2.25,16.59 2.25,15.725 2.25,14.632 L2.25,9.367 C2.25,8.274 2.25,7.409 2.307,6.711 C2.365,5.998 2.487,5.394 2.768,4.843 C3.223,3.949 3.95,3.223 4.844,2.767 C5.395,2.486 5.998,2.365 6.712,2.306 C7.409,2.25 8.275,2.25 9.366,2.25 L14.25,2.25 Z M15.75,2.252 C16.34,2.257 16.847,2.27 17.288,2.306 C18.002,2.365 18.605,2.486 19.156,2.767 C20.05,3.223 20.777,3.949 21.232,4.843 C21.513,5.394 21.635,5.998 21.693,6.711 C21.75,7.409 21.75,8.274 21.75,9.366 L21.75,14.632 C21.75,15.725 21.75,16.59 21.693,17.288 C21.635,18.001 21.513,18.605 21.232,19.156 C20.777,20.05 20.05,20.776 19.156,21.232 C18.605,21.513 18.002,21.634 17.288,21.692 C16.847,21.729 16.34,21.742 15.75,21.747 Z"/>
</svg>

