<svg xmlns="http://www.w3.org/2000/svg" viewBox="0 0 24 24">
  <defs/>
  <path fill="#151E28" d="M6.256,17.346 C6.274,17.008 6.332,16.677 6.427,16.357 C6.478,16.184 6.54,16.016 6.613,15.851 C6.639,15.792 6.667,15.733 6.696,15.675 C6.72,15.627 6.745,15.58 6.77,15.533 C6.963,15.181 7.206,14.854 7.495,14.565 L8.028,14.032 C9.262,12.798 10.767,11.867 12.424,11.315 L15.736,10.211 C16.128,10.08 16.341,9.655 16.21,9.262 C16.079,8.869 15.654,8.657 15.261,8.788 L11.949,9.892 C10.072,10.518 8.366,11.572 6.967,12.972 L6.434,13.504 C6.294,13.645 6.161,13.792 6.037,13.945 C5.207,15.275 4.751,16.826 4.751,18.431 L4.751,21 C4.751,21.414 4.415,21.75 4.001,21.75 C3.587,21.75 3.251,21.414 3.251,21 L3.251,18.431 C3.251,16.931 3.589,15.471 4.217,14.15 L4.11,13.964 C3.431,12.787 2.696,11.286 2.951,9.667 C3.27,7.638 4.593,5.839 7.023,4.436 C8.033,3.853 9.274,3.571 10.558,3.464 C11.85,3.357 13.235,3.424 14.572,3.577 C17.245,3.883 19.798,4.543 21.146,4.931 C22.114,5.209 22.63,6.252 22.242,7.192 C21.751,8.38 20.81,10.497 19.546,12.577 C18.298,14.633 16.671,16.764 14.773,17.86 C12.343,19.262 10.124,19.509 8.206,18.771 C7.411,18.464 6.777,17.942 6.256,17.346 Z"/>
</svg>

