<svg xmlns="http://www.w3.org/2000/svg" viewBox="0 0 24 24">
  <defs/>
  <path fill="#151E28" d="M16.371,8.773 C16.712,9.114 16.934,9.537 17.066,10.012 C17.229,10.597 17.012,11.122 16.902,11.387 L16.891,11.414 C16.831,11.561 16.8,11.636 16.784,11.693 C17.843,14.329 17.069,17.62 14.753,19.937 C12.437,22.253 9.146,23.026 6.509,21.967 C6.452,21.984 6.377,22.014 6.231,22.074 L6.203,22.086 C5.938,22.196 5.414,22.413 4.829,22.25 C4.354,22.118 3.931,21.896 3.589,21.554 C3.248,21.213 3.026,20.79 2.894,20.314 C2.731,19.729 2.948,19.205 3.058,18.94 L3.069,18.913 C3.129,18.766 3.16,18.691 3.176,18.634 C2.117,15.998 2.891,12.707 5.207,10.391 C7.523,8.074 10.814,7.301 13.451,8.36 C13.508,8.343 13.583,8.313 13.729,8.253 L13.757,8.241 L13.757,8.241 C14.022,8.131 14.546,7.914 15.131,8.077 C15.606,8.209 16.029,8.431 16.371,8.773 Z M14.803,1.724 C14.881,1.529 15.036,1.375 15.231,1.3 C15.427,1.225 15.645,1.235 15.833,1.328 C16.523,1.669 17.016,2.305 17.322,2.953 C17.63,3.606 17.793,4.361 17.748,5.048 C17.722,5.462 17.365,5.775 16.952,5.748 C16.538,5.722 16.225,5.365 16.251,4.952 C16.278,4.549 16.179,4.046 15.965,3.593 C15.895,3.444 15.817,3.31 15.734,3.192 C15.674,3.288 15.615,3.377 15.559,3.461 C15.487,3.565 15.425,3.653 15.371,3.731 C15.252,3.9 15.167,4.022 15.092,4.162 C15.005,4.326 14.958,4.475 14.957,4.678 C14.957,4.899 15.011,5.226 15.203,5.737 C15.348,6.125 15.151,6.557 14.764,6.702 C14.376,6.848 13.943,6.651 13.798,6.263 C13.571,5.657 13.456,5.141 13.457,4.673 C13.459,4.186 13.587,3.798 13.768,3.457 C13.889,3.229 14.053,2.997 14.193,2.797 L14.193,2.797 C14.238,2.733 14.28,2.673 14.318,2.617 C14.492,2.361 14.66,2.085 14.803,1.724 Z M20.41,4.734 C20.703,5.027 20.703,5.501 20.41,5.794 L17.674,8.53 C17.382,8.823 16.907,8.823 16.614,8.53 C16.321,8.237 16.321,7.763 16.614,7.47 L19.35,4.734 C19.643,4.441 20.118,4.441 20.41,4.734 Z"/>
</svg>

