<svg xmlns="http://www.w3.org/2000/svg" viewBox="0 0 24 24">
  <defs/>
  <path fill="#151E28" d="M12,2.25 C17.385,2.25 21.75,6.615 21.75,12 C21.75,17.385 17.385,21.75 12,21.75 C6.615,21.75 2.25,17.385 2.25,12 C2.25,6.615 6.615,2.25 12,2.25 Z M15.359,8.641 C16.218,9.501 16.75,10.688 16.75,12 C16.75,13.312 16.218,14.499 15.359,15.359 L17.833,17.834 C19.326,16.341 20.25,14.278 20.25,12 C20.25,9.722 19.327,7.659 17.834,6.166 Z M3.75,12 C3.75,14.278 4.673,16.341 6.166,17.833 L8.641,15.359 C7.782,14.499 7.25,13.312 7.25,12 C7.25,10.689 7.782,9.501 8.641,8.642 L6.166,6.167 C4.673,7.66 3.75,9.722 3.75,12 Z M8.75,12 C8.75,13.795 10.205,15.25 12,15.25 C13.795,15.25 15.25,13.795 15.25,12 C15.25,10.205 13.795,8.75 12,8.75 C10.205,8.75 8.75,10.205 8.75,12 Z"/>
</svg>

