<svg xmlns="http://www.w3.org/2000/svg" viewBox="0 0 24 24">
  <defs/>
  <path fill="#151E28" d="M4.259,9.385 C4.253,9.257 4.25,9.129 4.25,9 C4.25,4.72 7.72,1.25 12,1.25 C16.28,1.25 19.75,4.72 19.75,9 C19.75,11.066 18.941,12.944 17.624,14.333 C17.233,14.744 16.871,15.171 16.57,15.619 C16.533,15.674 16.495,15.73 16.456,15.785 C16.021,16.469 15.75,17.176 15.75,17.911 L15.75,19 C15.75,21.071 14.071,22.75 12,22.75 C9.929,22.75 8.25,21.071 8.25,19 L8.25,17.911 C8.25,17.176 7.979,16.469 7.544,15.785 C7.505,15.73 7.467,15.674 7.43,15.619 C7.129,15.171 6.767,14.744 6.376,14.333 C5.141,13.031 4.353,11.299 4.259,9.385 Z M14.25,19 L14.25,18.038 C13.599,18.459 12.843,18.75 12,18.75 C11.157,18.75 10.401,18.459 9.75,18.038 L9.75,19 C9.75,20.243 10.757,21.25 12,21.25 C13.243,21.25 14.25,20.243 14.25,19 Z"/>
</svg>

