<svg xmlns="http://www.w3.org/2000/svg" viewBox="0 0 24 24">
  <defs/>
  <path fill="#151E28" d="M16.728,2.182 L14.873,9.598 L18.335,11.329 C18.545,11.434 18.693,11.63 18.737,11.861 C18.781,12.09 18.714,12.328 18.558,12.502 L9.557,22.502 C9.327,22.758 8.952,22.824 8.648,22.662 C8.344,22.5 8.189,22.152 8.272,21.818 L10.127,14.402 L6.665,12.671 C6.455,12.566 6.307,12.37 6.263,12.14 C6.22,11.91 6.286,11.672 6.443,11.498 L15.443,1.498 C15.673,1.242 16.048,1.176 16.352,1.338 C16.656,1.5 16.811,1.848 16.728,2.182 Z"/>
</svg>

