<svg xmlns="http://www.w3.org/2000/svg" viewBox="0 0 24 24">
  <defs/>
  <path fill="#151E28" d="M7.227,10.056 C9.082,8.201 12.09,8.201 13.945,10.056 C14.238,10.349 14.238,10.823 13.945,11.116 C13.652,11.409 13.177,11.409 12.884,11.116 C11.615,9.847 9.557,9.847 8.288,11.116 L5.459,13.945 C4.19,15.214 4.19,17.272 5.459,18.541 C6.728,19.81 8.786,19.81 10.056,18.541 L12.177,16.42 C12.47,16.127 12.945,16.127 13.238,16.42 C13.53,16.712 13.53,17.187 13.238,17.48 L11.116,19.602 C9.261,21.457 6.254,21.457 4.399,19.602 C2.544,17.747 2.544,14.739 4.399,12.884 Z M12.884,4.399 C14.739,2.544 17.746,2.544 19.601,4.399 C21.456,6.254 21.456,9.261 19.601,11.116 L16.773,13.945 C14.918,15.8 11.91,15.8 10.056,13.945 C9.763,13.652 9.763,13.177 10.056,12.884 C10.348,12.591 10.823,12.591 11.116,12.884 C12.385,14.153 14.443,14.153 15.712,12.884 L18.541,10.056 C19.81,8.786 19.81,6.729 18.541,5.459 C17.272,4.19 15.214,4.19 13.945,5.459 L11.823,7.581 C11.53,7.874 11.056,7.874 10.763,7.581 C10.47,7.288 10.47,6.813 10.763,6.52 Z"/>
</svg>

