<svg xmlns="http://www.w3.org/2000/svg" viewBox="0 0 24 24">
  <defs/>
  <path fill="#151E28" d="M6.25,8 L6.25,7 C6.25,3.824 8.824,1.25 12,1.25 C15.176,1.25 17.75,3.824 17.75,7 L17.75,8 C17.75,8.414 17.414,8.75 17,8.75 C16.586,8.75 16.25,8.414 16.25,8 L16.25,7 C16.25,4.653 14.347,2.75 12,2.75 C9.653,2.75 7.75,4.653 7.75,7 L7.75,8 C7.75,8.414 7.414,8.75 7,8.75 C6.586,8.75 6.25,8.414 6.25,8 Z M12,21.25 C14.347,21.25 16.25,19.347 16.25,17 L16.25,16 C16.25,15.586 16.586,15.25 17,15.25 C17.414,15.25 17.75,15.586 17.75,16 L17.75,17 C17.75,20.176 15.176,22.75 12,22.75 C8.824,22.75 6.25,20.176 6.25,17 L6.25,16 C6.25,15.586 6.586,15.25 7,15.25 C7.414,15.25 7.75,15.586 7.75,16 L7.75,17 C7.75,19.347 9.653,21.25 12,21.25 Z M3.53,7.47 L5.53,9.47 C5.823,9.763 5.823,10.237 5.53,10.53 C5.237,10.823 4.763,10.823 4.47,10.53 L2.47,8.53 C2.177,8.237 2.177,7.763 2.47,7.47 C2.763,7.177 3.237,7.177 3.53,7.47 Z M18.47,9.47 L20.47,7.47 C20.763,7.177 21.237,7.177 21.53,7.47 C21.823,7.763 21.823,8.237 21.53,8.53 L19.53,10.53 C19.237,10.823 18.763,10.823 18.47,10.53 C18.177,10.237 18.177,9.763 18.47,9.47 Z M2.47,15.47 L4.47,13.47 C4.763,13.177 5.237,13.177 5.53,13.47 C5.823,13.763 5.823,14.238 5.53,14.53 L3.53,16.53 C3.237,16.823 2.763,16.823 2.47,16.53 C2.177,16.237 2.177,15.763 2.47,15.47 Z M19.53,13.47 L21.53,15.47 C21.823,15.763 21.823,16.237 21.53,16.53 C21.237,16.823 20.763,16.823 20.47,16.53 L18.47,14.53 C18.177,14.238 18.177,13.763 18.47,13.47 C18.763,13.177 19.237,13.177 19.53,13.47 Z"/>
</svg>

