<svg xmlns="http://www.w3.org/2000/svg" viewBox="0 0 24 24">
  <defs/>
  <path fill="#151E28" d="M16.816,11.876 L20.227,14.007 L20.255,14.025 C20.591,14.235 20.885,14.419 21.108,14.588 C21.337,14.762 21.583,14.987 21.722,15.311 C21.91,15.751 21.91,16.249 21.722,16.689 C21.583,17.013 21.337,17.238 21.108,17.412 C20.885,17.581 20.591,17.765 20.255,17.975 L20.227,17.993 L16.846,20.106 L16.816,20.124 L16.816,20.124 C16.442,20.358 16.118,20.561 15.846,20.698 C15.572,20.836 15.236,20.97 14.86,20.94 C14.357,20.9 13.896,20.644 13.595,20.239 C13.37,19.936 13.306,19.58 13.278,19.275 C13.25,18.972 13.25,18.589 13.25,18.148 L13.25,13.852 C13.25,13.411 13.25,13.028 13.278,12.725 C13.306,12.42 13.37,12.064 13.595,11.761 C13.896,11.356 14.357,11.1 14.86,11.06 C15.236,11.03 15.572,11.164 15.846,11.302 C16.118,11.439 16.442,11.642 16.816,11.876 Z M3,4.25 L20,4.25 C20.414,4.25 20.75,4.586 20.75,5 C20.75,5.414 20.414,5.75 20,5.75 L3,5.75 C2.586,5.75 2.25,5.414 2.25,5 C2.25,4.586 2.586,4.25 3,4.25 Z M3,11.25 L10,11.25 C10.414,11.25 10.75,11.586 10.75,12 C10.75,12.414 10.414,12.75 10,12.75 L3,12.75 C2.586,12.75 2.25,12.414 2.25,12 C2.25,11.586 2.586,11.25 3,11.25 Z M3,18.25 L10,18.25 C10.414,18.25 10.75,18.586 10.75,19 C10.75,19.414 10.414,19.75 10,19.75 L3,19.75 C2.586,19.75 2.25,19.414 2.25,19 C2.25,18.586 2.586,18.25 3,18.25 Z"/>
</svg>

