<svg xmlns="http://www.w3.org/2000/svg" viewBox="0 0 24 24">
  <defs/>
  <path fill="#151E28" d="M5,16.25 C6.519,16.25 7.75,17.481 7.75,19 C7.75,20.519 6.519,21.75 5,21.75 C3.481,21.75 2.25,20.519 2.25,19 C2.25,17.481 3.481,16.25 5,16.25 Z M2.25,12 C2.25,10.481 3.481,9.25 5,9.25 C6.519,9.25 7.75,10.481 7.75,12 C7.75,13.519 6.519,14.75 5,14.75 C3.481,14.75 2.25,13.519 2.25,12 Z M5,2.25 C6.519,2.25 7.75,3.481 7.75,5 C7.75,6.519 6.519,7.75 5,7.75 C3.481,7.75 2.25,6.519 2.25,5 C2.25,3.481 3.481,2.25 5,2.25 Z M21.75,5 C21.75,5.414 21.414,5.75 21,5.75 L11,5.75 C10.586,5.75 10.25,5.414 10.25,5 C10.25,4.586 10.586,4.25 11,4.25 L21,4.25 C21.414,4.25 21.75,4.586 21.75,5 Z M21,11.25 C21.414,11.25 21.75,11.586 21.75,12 C21.75,12.414 21.414,12.75 21,12.75 L11,12.75 C10.586,12.75 10.25,12.414 10.25,12 C10.25,11.586 10.586,11.25 11,11.25 Z M21,18.25 C21.414,18.25 21.75,18.586 21.75,19 C21.75,19.414 21.414,19.75 21,19.75 L11,19.75 C10.586,19.75 10.25,19.414 10.25,19 C10.25,18.586 10.586,18.25 11,18.25 Z M5,10.75 C4.31,10.75 3.75,11.31 3.75,12 C3.75,12.69 4.31,13.25 5,13.25 C5.69,13.25 6.25,12.69 6.25,12 C6.25,11.31 5.69,10.75 5,10.75 Z M3.75,19 C3.75,19.69 4.31,20.25 5,20.25 C5.69,20.25 6.25,19.69 6.25,19 C6.25,18.31 5.69,17.75 5,17.75 C4.31,17.75 3.75,18.31 3.75,19 Z M3.75,5 C3.75,5.69 4.31,6.25 5,6.25 C5.69,6.25 6.25,5.69 6.25,5 C6.25,4.31 5.69,3.75 5,3.75 C4.31,3.75 3.75,4.31 3.75,5 Z"/>
</svg>

