<svg xmlns="http://www.w3.org/2000/svg" viewBox="0 0 24 24">
  <defs/>
  <path fill="#151E28" d="M21.562,4.028 C21.697,4.452 21.588,4.888 21.475,5.232 C21.356,5.595 21.161,6.05 20.927,6.596 L20.913,6.629 L15.932,18.251 L15.917,18.284 L15.917,18.284 C15.637,18.94 15.407,19.476 15.2,19.865 C15.013,20.219 14.747,20.657 14.302,20.852 C13.754,21.092 13.122,21.036 12.625,20.702 C12.222,20.432 12.038,19.953 11.916,19.572 C11.781,19.152 11.65,18.584 11.49,17.889 L11.482,17.854 L10.911,15.381 C10.736,14.62 10.679,14.418 10.582,14.265 C10.483,14.107 10.349,13.973 10.191,13.873 C10.037,13.777 9.835,13.72 9.075,13.545 L6.602,12.974 L6.567,12.966 C5.872,12.805 5.304,12.674 4.884,12.54 C4.503,12.418 4.024,12.234 3.753,11.831 C3.42,11.334 3.364,10.701 3.604,10.154 C3.798,9.709 4.237,9.443 4.591,9.255 C4.98,9.049 5.516,8.819 6.172,8.538 L6.205,8.524 L17.827,3.543 L17.86,3.529 C18.406,3.295 18.861,3.1 19.224,2.981 C19.568,2.868 20.004,2.758 20.428,2.894 C20.967,3.066 21.39,3.489 21.562,4.028 Z"/>
</svg>

