<svg xmlns="http://www.w3.org/2000/svg" viewBox="0 0 24 24">
  <defs/>
  <path fill="#151E28" d="M12.802,3.137 C13.197,3.341 13.428,3.726 13.592,4.05 C13.764,4.39 13.948,4.85 14.168,5.402 L14.182,5.435 L18.878,17.175 L18.891,17.209 L18.891,17.209 C19.156,17.871 19.373,18.412 19.502,18.834 C19.62,19.216 19.742,19.715 19.565,20.167 C19.347,20.724 18.86,21.131 18.273,21.247 C17.797,21.341 17.328,21.132 16.972,20.949 C16.58,20.747 16.086,20.438 15.481,20.06 L15.45,20.041 L13.298,18.696 C12.637,18.282 12.453,18.18 12.277,18.139 C12.095,18.098 11.905,18.098 11.723,18.139 C11.546,18.18 11.363,18.282 10.701,18.696 L8.549,20.041 L8.519,20.06 C7.914,20.438 7.42,20.747 7.028,20.949 C6.672,21.132 6.203,21.341 5.727,21.247 C5.14,21.131 4.653,20.724 4.435,20.167 C4.258,19.715 4.38,19.216 4.498,18.834 C4.627,18.412 4.844,17.871 5.109,17.209 L5.122,17.175 L9.818,5.435 L9.831,5.402 C10.052,4.85 10.236,4.39 10.408,4.05 C10.572,3.727 10.802,3.341 11.198,3.137 C11.701,2.878 12.299,2.878 12.802,3.137 Z"/>
</svg>

