<svg xmlns="http://www.w3.org/2000/svg" viewBox="0 0 24 24">
  <defs/>
  <path fill="#151E28" d="M1.25,12 C1.25,11.586 1.586,11.25 2,11.25 L3.281,11.25 C3.439,9.397 4.174,7.708 5.305,6.366 L1.469,2.53 C1.177,2.237 1.177,1.763 1.469,1.47 C1.762,1.177 2.237,1.177 2.53,1.47 L22.53,21.47 C22.823,21.763 22.823,22.237 22.53,22.53 C22.237,22.823 21.762,22.823 21.469,22.53 L17.634,18.695 C16.291,19.826 14.602,20.561 12.75,20.718 L12.75,22 C12.75,22.414 12.414,22.75 12,22.75 C11.585,22.75 11.25,22.414 11.25,22 L11.25,20.718 C7.016,20.359 3.641,16.984 3.281,12.75 L2,12.75 C1.586,12.75 1.25,12.414 1.25,12 Z M12,1.25 C12.414,1.25 12.75,1.586 12.75,2 L12.75,3.282 C16.984,3.641 20.359,7.016 20.718,11.25 L22,11.25 C22.414,11.25 22.75,11.586 22.75,12 C22.75,12.414 22.414,12.75 22,12.75 L20.718,12.75 C20.643,13.637 20.435,14.488 20.113,15.281 C19.958,15.665 19.521,15.851 19.137,15.695 C18.753,15.54 18.568,15.102 18.723,14.719 C19.062,13.88 19.25,12.963 19.25,12 C19.25,7.996 16.004,4.75 12,4.75 C11.037,4.75 10.12,4.937 9.281,5.277 C8.897,5.432 8.46,5.247 8.305,4.863 C8.149,4.479 8.334,4.042 8.718,3.886 C9.512,3.565 10.362,3.357 11.25,3.282 L11.25,2 C11.25,1.586 11.585,1.25 12,1.25 Z M13.524,14.585 L9.415,10.476 C9.151,10.923 9,11.444 9,12 C9,13.657 10.343,15 12,15 C12.556,15 13.077,14.849 13.524,14.585 Z M11.76,8.917 C11.829,8.509 12.215,8.233 12.624,8.302 C14.196,8.566 15.434,9.804 15.698,11.376 C15.767,11.784 15.491,12.171 15.082,12.24 C14.674,12.308 14.287,12.033 14.219,11.624 C14.061,10.683 13.316,9.939 12.376,9.781 C11.967,9.713 11.692,9.326 11.76,8.917 Z"/>
</svg>

