<svg xmlns="http://www.w3.org/2000/svg" viewBox="0 0 24 24">
  <defs/>
  <path fill="#151E28" d="M8.75,5 L8.75,7.635 C9.187,7.481 9.645,7.37 10.119,7.308 C10.558,7.25 11.067,7.25 11.93,7.25 L12.07,7.25 C12.933,7.25 13.442,7.25 13.881,7.308 C16.91,7.707 19.294,10.09 19.692,13.119 C19.75,13.557 19.75,14.066 19.75,14.925 L19.75,15.075 C19.75,15.934 19.75,16.443 19.692,16.881 C19.294,19.91 16.91,22.294 13.881,22.692 C13.443,22.75 12.934,22.75 12.075,22.75 L11.925,22.75 C11.066,22.75 10.557,22.75 10.119,22.692 C7.09,22.294 4.707,19.91 4.308,16.881 C4.25,16.442 4.25,15.933 4.25,15.07 L4.25,14.93 C4.25,14.067 4.25,13.558 4.308,13.119 C4.568,11.143 5.673,9.442 7.25,8.387 L7.25,5 C7.25,2.377 9.377,0.25 12,0.25 C14.214,0.25 16.073,1.765 16.6,3.813 C16.704,4.214 16.462,4.623 16.061,4.726 C15.66,4.83 15.251,4.588 15.148,4.187 C14.787,2.785 13.513,1.75 12,1.75 C10.205,1.75 8.75,3.205 8.75,5 Z M11.8,13 C10.806,13 10,13.806 10,14.8 L10,15.2 C10,16.194 10.806,17 11.8,17 L12.2,17 C13.194,17 14,16.194 14,15.2 L14,14.8 C14,13.806 13.194,13 12.2,13 Z"/>
</svg>

