<svg xmlns="http://www.w3.org/2000/svg" viewBox="0 0 24 24">
  <defs/>
  <path fill="#151E28" d="M7.49,8.55 C7.342,8.413 7.25,8.217 7.25,8 L7.25,6 C7.25,3.377 9.377,1.25 12,1.25 C14.623,1.25 16.75,3.377 16.75,6 L16.75,8 C16.75,8.217 16.658,8.413 16.51,8.55 C18.345,9.395 19.674,11.134 19.949,13.217 C20,13.607 20,14.071 20,15 C20,15.929 20,16.393 19.949,16.783 C19.594,19.476 17.476,21.594 14.783,21.949 C14.393,22 13.929,22 13,22 L11,22 C10.071,22 9.607,22 9.217,21.949 C6.524,21.594 4.406,19.476 4.051,16.783 C4,16.393 4,15.929 4,15 C4,14.071 4,13.607 4.051,13.217 C4.326,11.134 5.655,9.395 7.49,8.55 Z M8.75,6 L8.75,8 C8.75,8.046 8.746,8.091 8.738,8.134 C8.895,8.1 9.055,8.073 9.217,8.051 C9.607,8 10.071,8 11,8 L13,8 C13.929,8 14.393,8 14.783,8.051 C14.945,8.073 15.105,8.1 15.262,8.134 C15.254,8.091 15.25,8.046 15.25,8 L15.25,6 C15.25,4.205 13.795,2.75 12,2.75 C10.205,2.75 8.75,4.205 8.75,6 Z M10,14.8 L10,15.2 C10,16.194 10.806,17 11.8,17 L12.2,17 C13.194,17 14,16.194 14,15.2 L14,14.8 C14,13.806 13.194,13 12.2,13 L11.8,13 C10.806,13 10,13.806 10,14.8 Z"/>
</svg>

