<svg xmlns="http://www.w3.org/2000/svg" viewBox="0 0 24 24">
  <defs/>
  <path fill="#151E28" d="M8.75,5 L8.75,8 C8.75,8.046 8.746,8.091 8.738,8.134 C8.895,8.1 9.055,8.073 9.217,8.051 C9.607,8 10.071,8 11,8 L13,8 C13.929,8 14.393,8 14.783,8.051 C17.476,8.406 19.594,10.524 19.949,13.217 C20,13.607 20,14.071 20,15 C20,15.929 20,16.393 19.949,16.783 C19.594,19.476 17.476,21.594 14.783,21.949 C14.393,22 13.929,22 13,22 L11,22 C10.071,22 9.607,22 9.217,21.949 C6.524,21.594 4.406,19.476 4.051,16.783 C4,16.393 4,15.929 4,15 C4,14.071 4,13.607 4.051,13.217 C4.326,11.134 5.655,9.395 7.49,8.55 C7.342,8.413 7.25,8.217 7.25,8 L7.25,5 C7.25,2.377 9.377,0.25 12,0.25 C14.214,0.25 16.073,1.765 16.6,3.813 C16.704,4.214 16.462,4.623 16.061,4.726 C15.66,4.83 15.251,4.588 15.148,4.187 C14.787,2.785 13.513,1.75 12,1.75 C10.205,1.75 8.75,3.205 8.75,5 Z M10,14.8 L10,15.2 C10,16.194 10.806,17 11.8,17 L12.2,17 C13.194,17 14,16.194 14,15.2 L14,14.8 C14,13.806 13.194,13 12.2,13 L11.8,13 C10.806,13 10,13.806 10,14.8 Z"/>
</svg>

