<svg xmlns="http://www.w3.org/2000/svg" viewBox="0 0 24 24">
  <defs/>
  <path fill="#151E28" d="M18.643,19.704 C17.591,21.306 15.876,22.43 13.881,22.692 C13.443,22.75 12.934,22.75 12.075,22.75 L11.925,22.75 C11.066,22.75 10.557,22.75 10.119,22.692 C7.09,22.294 4.707,19.91 4.308,16.881 C4.25,16.442 4.25,15.933 4.25,15.07 L4.25,14.93 C4.25,14.067 4.25,13.558 4.308,13.119 C4.57,11.124 5.694,9.409 7.296,8.357 L1.47,2.53 C1.177,2.237 1.177,1.763 1.47,1.47 C1.763,1.177 2.237,1.177 2.53,1.47 L22.53,21.47 C22.823,21.763 22.823,22.237 22.53,22.53 C22.237,22.823 21.763,22.823 21.47,22.53 Z M12,2.75 C11.175,2.75 10.424,3.056 9.85,3.562 C9.54,3.836 9.066,3.807 8.792,3.496 C8.518,3.186 8.547,2.712 8.858,2.438 C9.695,1.699 10.796,1.25 12,1.25 C14.623,1.25 16.75,3.377 16.75,6 L16.75,8.387 C18.327,9.442 19.432,11.143 19.692,13.119 C19.726,13.377 19.74,13.649 19.745,13.987 C19.753,14.401 19.423,14.743 19.008,14.75 C18.594,14.757 18.253,14.427 18.246,14.013 C18.24,13.695 18.228,13.489 18.205,13.315 C17.895,10.959 16.041,9.105 13.685,8.795 C13.511,8.772 13.305,8.76 12.987,8.754 C12.573,8.747 12.243,8.406 12.25,7.992 C12.257,7.577 12.599,7.248 13.013,7.255 C13.351,7.26 13.623,7.274 13.881,7.308 C14.355,7.37 14.813,7.481 15.25,7.635 L15.25,6 C15.25,4.205 13.795,2.75 12,2.75 Z M11.939,13 L11.8,13 C10.806,13 10,13.806 10,14.8 L10,15.2 C10,16.194 10.806,17 11.8,17 L12.2,17 C13.194,17 14,16.194 14,15.2 L14,15.061 Z"/>
</svg>

