<svg xmlns="http://www.w3.org/2000/svg" viewBox="0 0 24 24">
  <defs/>
  <path fill="#151E28" d="M7.544,9.095 C7.365,8.958 7.25,8.743 7.25,8.5 L7.25,6 C7.25,3.377 9.377,1.25 12,1.25 C14.623,1.25 16.75,3.377 16.75,6 L16.75,8.5 C16.75,8.743 16.635,8.958 16.456,9.095 C17.793,10.038 18.724,11.512 18.949,13.217 C19,13.607 19,14.071 19,15 C19,15.929 19,16.393 18.949,16.783 C18.594,19.476 16.476,21.594 13.783,21.949 C13.393,22 12.929,22 12,22 C11.071,22 10.607,22 10.217,21.949 C7.524,21.594 5.406,19.476 5.051,16.783 C5,16.393 5,15.929 5,15 C5,14.071 5,13.607 5.051,13.217 C5.276,11.512 6.207,10.038 7.544,9.095 Z M8.75,6 L8.75,8.437 C9.213,8.25 9.704,8.119 10.217,8.051 C10.607,8 11.071,8 12,8 C12.929,8 13.393,8 13.783,8.051 C14.296,8.119 14.787,8.25 15.25,8.437 L15.25,6 C15.25,4.205 13.795,2.75 12,2.75 C10.205,2.75 8.75,4.205 8.75,6 Z M10,14.8 L10,15.2 C10,16.194 10.806,17 11.8,17 L12.2,17 C13.194,17 14,16.194 14,15.2 L14,14.8 C14,13.806 13.194,13 12.2,13 L11.8,13 C10.806,13 10,13.806 10,14.8 Z"/>
</svg>

