<svg xmlns="http://www.w3.org/2000/svg" viewBox="0 0 24 24">
  <defs/>
  <path fill="#151E28" d="M20.217,5.307 C22.237,7.327 22.237,10.602 20.217,12.622 L20.03,12.809 C19.272,13.566 18.186,13.895 17.136,13.685 C15.588,13.375 15.009,11.465 16.126,10.349 L16.808,9.666 C17.196,9.279 17.196,8.65 16.808,8.262 L16.626,8.08 C16.138,7.592 15.347,7.592 14.858,8.08 L12.973,9.966 C12.935,10.004 12.91,10.054 12.902,10.107 L12.431,13.407 C12.285,14.425 11.814,15.368 11.087,16.094 L10.128,17.053 L10.128,18.157 C10.128,18.571 9.793,18.907 9.378,18.907 L8.275,18.907 L6.727,20.455 C5.848,21.333 4.424,21.333 3.545,20.455 C2.666,19.576 2.666,18.151 3.545,17.273 L7.333,13.485 C7.743,13.075 8.009,12.543 8.09,11.969 L8.589,8.481 C8.642,8.106 8.816,7.759 9.084,7.491 L10.043,6.532 L10.043,5.429 C10.043,5.015 10.378,4.679 10.793,4.679 L11.896,4.679 L12.384,4.191 C14.239,2.336 17.246,2.336 19.101,4.191 Z"/>
</svg>

