<svg xmlns="http://www.w3.org/2000/svg" viewBox="0 0 24 24">
  <defs/>
  <path fill="#151E28" d="M3,2.25 L21,2.25 C21.284,2.25 21.544,2.411 21.671,2.665 C21.798,2.919 21.771,3.223 21.6,3.45 L17.101,9.448 L17.1,9.45 L12.75,15.25 L12.75,20.25 L16,20.25 C16.414,20.25 16.75,20.586 16.75,21 C16.75,21.414 16.414,21.75 16,21.75 L8,21.75 C7.586,21.75 7.25,21.414 7.25,21 C7.25,20.586 7.586,20.25 8,20.25 L11.25,20.25 L11.25,15.25 L6.901,9.452 L6.9,9.45 L2.4,3.45 C2.23,3.223 2.202,2.919 2.329,2.665 C2.456,2.411 2.716,2.25 3,2.25 Z M16.125,8.25 L19.5,3.75 L4.5,3.75 L7.875,8.25 Z"/>
</svg>

