<svg xmlns="http://www.w3.org/2000/svg" viewBox="0 0 24 24">
  <defs/>
  <path fill="#151E28" d="M9.768,2.25 L14.232,2.25 C15.045,2.25 15.701,2.25 16.232,2.293 C16.778,2.338 17.258,2.432 17.702,2.659 C18.408,3.018 18.982,3.592 19.341,4.298 C19.568,4.742 19.662,5.222 19.707,5.769 C19.75,6.299 19.75,6.955 19.75,7.768 L19.75,16.232 C19.75,17.045 19.75,17.701 19.707,18.232 C19.662,18.778 19.568,19.258 19.341,19.702 C18.982,20.408 18.408,20.982 17.702,21.341 C17.258,21.568 16.778,21.662 16.232,21.707 C15.701,21.75 15.045,21.75 14.232,21.75 L9.768,21.75 C8.955,21.75 8.299,21.75 7.769,21.707 C7.222,21.662 6.742,21.568 6.298,21.341 C5.592,20.982 5.018,20.408 4.659,19.702 C4.432,19.258 4.338,18.778 4.293,18.232 C4.25,17.701 4.25,17.045 4.25,16.232 L4.25,7.768 C4.25,6.955 4.25,6.299 4.293,5.769 C4.338,5.222 4.432,4.742 4.659,4.298 C5.018,3.592 5.592,3.018 6.298,2.659 C6.742,2.432 7.222,2.338 7.769,2.293 C8.299,2.25 8.955,2.25 9.768,2.25 L9.768,2.25 Z M9,10.757 L9,13.243 C9,14.148 9,14.601 9.19,14.863 C9.356,15.092 9.611,15.241 9.892,15.271 C10.215,15.306 10.608,15.081 11.393,14.632 L11.394,14.632 L13.569,13.389 C14.366,12.934 14.764,12.706 14.897,12.408 C15.014,12.149 15.014,11.851 14.897,11.592 C14.764,11.294 14.366,11.066 13.569,10.611 L11.394,9.368 L11.393,9.368 C10.608,8.919 10.215,8.694 9.892,8.729 C9.611,8.759 9.356,8.907 9.19,9.136 C9,9.399 9,9.852 9,10.757 Z M2.75,6 L2.75,18 C2.75,18.414 2.414,18.75 2,18.75 C1.586,18.75 1.25,18.414 1.25,18 L1.25,6 C1.25,5.586 1.586,5.25 2,5.25 C2.414,5.25 2.75,5.586 2.75,6 Z M22,5.25 C22.414,5.25 22.75,5.586 22.75,6 L22.75,18 C22.75,18.414 22.414,18.75 22,18.75 C21.586,18.75 21.25,18.414 21.25,18 L21.25,6 C21.25,5.586 21.586,5.25 22,5.25 Z"/>
</svg>

