<svg xmlns="http://www.w3.org/2000/svg" viewBox="0 0 24 24">
  <defs/>
  <path fill="#151E28" d="M17.899,1.766 C18.399,1.57 18.895,1.44 19.402,1.515 C20.15,1.626 20.82,2.04 21.253,2.66 C21.547,3.08 21.653,3.582 21.702,4.116 C21.75,4.643 21.75,5.315 21.75,6.14 L21.75,15.859 C21.75,16.685 21.75,17.356 21.702,17.884 C21.653,18.418 21.547,18.92 21.253,19.34 C20.82,19.96 20.15,20.374 19.402,20.484 C18.895,20.559 18.399,20.429 17.899,20.234 C17.406,20.041 16.805,19.741 16.067,19.372 L16.034,19.355 L6.823,14.75 L5.975,14.75 C5.53,14.75 5.159,14.75 4.855,14.729 C4.538,14.707 4.238,14.661 3.948,14.54 C3.274,14.261 2.738,13.726 2.459,13.052 C2.339,12.762 2.292,12.462 2.271,12.145 C2.25,11.84 2.25,11.469 2.25,11.025 L2.25,10.974 C2.25,10.53 2.25,10.159 2.271,9.854 C2.292,9.537 2.339,9.238 2.459,8.947 C2.738,8.274 3.274,7.738 3.948,7.459 C4.238,7.339 4.538,7.292 4.855,7.271 C5.159,7.25 5.53,7.25 5.975,7.25 L6.823,7.25 L16.034,2.645 L16.067,2.628 C16.805,2.259 17.406,1.958 17.899,1.766 Z M6.25,16 L6.25,18 C6.25,18.69 6.81,19.25 7.5,19.25 C8.19,19.25 8.75,18.69 8.75,18 L8.75,17.5 C8.75,17.086 9.086,16.75 9.5,16.75 C9.914,16.75 10.25,17.086 10.25,17.5 L10.25,18 C10.25,19.519 9.019,20.75 7.5,20.75 C5.981,20.75 4.75,19.519 4.75,18 L4.75,16 C4.75,15.586 5.086,15.25 5.5,15.25 C5.914,15.25 6.25,15.586 6.25,16 Z"/>
</svg>

