<svg xmlns="http://www.w3.org/2000/svg" viewBox="0 0 24 24">
  <defs/>
  <path fill="#151E28" d="M5.17,4.25 L18.83,4.25 C19.364,4.25 19.81,4.25 20.174,4.28 C20.554,4.311 20.911,4.378 21.248,4.55 C21.765,4.813 22.186,5.234 22.45,5.751 C22.622,6.089 22.689,6.445 22.72,6.825 C22.75,7.189 22.75,7.635 22.75,8.169 L22.75,8.2 L22.75,15.8 L22.75,15.835 C22.75,16.367 22.75,16.812 22.72,17.175 C22.689,17.555 22.622,17.911 22.45,18.248 C22.187,18.766 21.766,19.187 21.248,19.45 C20.911,19.622 20.555,19.689 20.175,19.72 C19.81,19.75 19.365,19.75 18.83,19.75 L5.17,19.75 C4.635,19.75 4.19,19.75 3.825,19.72 C3.445,19.689 3.089,19.622 2.752,19.45 C2.234,19.187 1.813,18.766 1.55,18.249 C1.378,17.911 1.311,17.555 1.28,17.175 C1.25,16.81 1.25,16.365 1.25,15.83 L1.25,8.169 C1.25,7.635 1.25,7.19 1.28,6.825 C1.311,6.445 1.378,6.089 1.55,5.752 C1.813,5.234 2.234,4.813 2.752,4.55 C3.089,4.378 3.445,4.311 3.825,4.28 C4.19,4.25 4.635,4.25 5.169,4.25 L5.17,4.25 Z M8.75,12 C8.75,13.795 10.205,15.25 12,15.25 C13.795,15.25 15.25,13.795 15.25,12 C15.25,10.205 13.795,8.75 12,8.75 C10.205,8.75 8.75,10.205 8.75,12 Z M12,10.25 C12.967,10.25 13.75,11.033 13.75,12 C13.75,12.967 12.967,13.75 12,13.75 C11.033,13.75 10.25,12.967 10.25,12 C10.25,11.033 11.033,10.25 12,10.25 Z"/>
</svg>

