<svg xmlns="http://www.w3.org/2000/svg" viewBox="0 0 24 24">
  <defs/>
  <path fill="#151E28" d="M9.583,2.72 C10.089,2.818 10.514,3.121 10.77,3.569 C10.971,3.92 10.974,4.338 10.958,4.672 C10.94,5.03 10.882,5.493 10.811,6.052 L10.811,6.052 L10.807,6.084 C10.769,6.384 10.75,6.69 10.75,7 C10.75,11.004 13.996,14.25 18,14.25 L18.029,14.25 C18.393,14.25 18.693,14.25 18.924,14.261 C19.139,14.271 19.406,14.292 19.639,14.392 C20.397,14.717 20.819,15.504 20.67,16.316 C20.63,16.534 20.544,16.717 20.453,16.876 C20.369,17.024 20.258,17.191 20.137,17.374 L20.137,17.374 L20.124,17.392 C18.379,20.017 15.392,21.75 12,21.75 C6.615,21.75 2.25,17.385 2.25,12 C2.25,8.146 4.487,4.815 7.73,3.233 L7.762,3.217 C8.086,3.059 8.381,2.915 8.637,2.823 C8.914,2.724 9.232,2.652 9.583,2.72 Z"/>
</svg>

