<svg xmlns="http://www.w3.org/2000/svg" viewBox="0 0 24 24">
  <defs/>
  <path fill="#151E28" d="M11.93,2.25 L12.07,2.25 C12.933,2.25 13.442,2.25 13.881,2.308 C16.91,2.707 19.294,5.09 19.692,8.119 C19.75,8.557 19.75,9.066 19.75,9.925 L19.75,14.075 C19.75,14.934 19.75,15.443 19.692,15.881 C19.294,18.91 16.91,21.294 13.881,21.692 C13.443,21.75 12.934,21.75 12.075,21.75 L11.925,21.75 C11.066,21.75 10.557,21.75 10.119,21.692 C7.09,21.294 4.707,18.91 4.308,15.881 C4.25,15.442 4.25,14.933 4.25,14.07 L4.25,9.93 C4.25,9.068 4.25,8.558 4.308,8.119 C4.707,5.09 7.09,2.707 10.119,2.308 C10.558,2.25 11.067,2.25 11.93,2.25 L11.93,2.25 Z M12,6.25 C11.586,6.25 11.25,6.586 11.25,7 L11.25,10 C11.25,10.414 11.586,10.75 12,10.75 C12.414,10.75 12.75,10.414 12.75,10 L12.75,7 C12.75,6.586 12.414,6.25 12,6.25 Z"/>
</svg>

