<svg xmlns="http://www.w3.org/2000/svg" viewBox="0 0 24 24">
  <defs/>
  <path fill="#151E28" d="M16.299,2.374 C17.884,1.956 19.48,3.009 19.72,4.63 C19.75,4.832 19.75,5.084 19.75,5.418 L19.75,5.518 C19.75,5.677 19.75,5.801 19.74,5.92 C19.659,6.845 19.117,7.667 18.298,8.106 C18.192,8.162 18.077,8.212 17.929,8.275 L17.903,8.286 L12.75,10.495 L12.75,18.967 L12.75,18.977 L12.75,19 C12.75,21.071 11.071,22.75 9,22.75 C6.929,22.75 5.25,21.071 5.25,19 C5.25,16.929 6.929,15.25 9,15.25 C9.844,15.25 10.623,15.529 11.25,16 L11.25,5 C11.25,4.7 11.429,4.429 11.705,4.311 L15.502,2.683 L15.562,2.657 C15.87,2.525 16.101,2.426 16.299,2.374 Z"/>
</svg>

