<svg xmlns="http://www.w3.org/2000/svg" viewBox="0 0 24 24">
  <defs/>
  <path fill="#151E28" d="M18.286,1.159 C18.757,1.047 19.215,0.993 19.67,1.108 C20.351,1.279 20.941,1.704 21.319,2.296 C21.571,2.692 21.664,3.143 21.708,3.625 C21.75,4.095 21.75,4.685 21.75,5.404 L21.75,15.966 L21.75,15.977 L21.75,16 C21.75,18.071 20.071,19.75 18,19.75 C15.929,19.75 14.25,18.071 14.25,16 C14.25,13.929 15.929,12.25 18,12.25 C18.844,12.25 19.623,12.529 20.25,13 L20.25,7.041 L9.75,10.541 L9.75,18.966 L9.75,18.977 L9.75,19 C9.75,21.071 8.071,22.75 6,22.75 C3.929,22.75 2.25,21.071 2.25,19 C2.25,16.929 3.929,15.25 6,15.25 C6.844,15.25 7.623,15.529 8.25,16 L8.25,7.306 L8.25,7.18 L8.25,7.18 C8.249,6.475 8.249,5.923 8.441,5.435 C8.609,5.007 8.883,4.627 9.236,4.332 C9.638,3.995 10.162,3.821 10.831,3.599 L10.951,3.559 L16.551,1.692 L16.585,1.681 C17.267,1.454 17.827,1.267 18.286,1.159 Z"/>
</svg>

