<svg xmlns="http://www.w3.org/2000/svg" viewBox="0 0 24 24">
  <defs/>
  <path fill="#151E28" d="M4.855,12.004 C5.313,9.859 7.218,8.25 9.5,8.25 C11.782,8.25 13.687,9.859 14.145,12.004 C16.191,12.41 17.75,14.183 17.75,16.333 C17.75,18.788 15.719,20.75 13.25,20.75 L5.75,20.75 C3.281,20.75 1.25,18.788 1.25,16.333 C1.25,14.183 2.809,12.41 4.855,12.004 Z M11.226,6.813 C11.053,7.189 10.608,7.354 10.231,7.182 C9.855,7.009 9.69,6.564 9.862,6.187 C10.928,3.865 13.275,2.25 16,2.25 C16.284,2.25 16.544,2.411 16.671,2.665 C16.798,2.919 16.77,3.223 16.6,3.451 C16.066,4.161 15.75,5.042 15.75,6 C15.75,8.347 17.653,10.25 20,10.25 C20.528,10.25 21.032,10.154 21.497,9.979 C21.763,9.879 22.062,9.938 22.271,10.131 C22.479,10.324 22.561,10.618 22.481,10.891 C21.99,12.576 20.862,13.987 19.375,14.847 C19.017,15.054 18.558,14.931 18.351,14.573 C18.143,14.214 18.266,13.755 18.624,13.548 C19.387,13.107 20.028,12.48 20.485,11.73 C20.325,11.743 20.163,11.75 20,11.75 C16.824,11.75 14.25,9.176 14.25,6 C14.25,5.27 14.386,4.572 14.634,3.929 C13.117,4.337 11.871,5.407 11.226,6.813 Z"/>
</svg>

