<svg xmlns="http://www.w3.org/2000/svg" viewBox="0 0 24 24">
  <defs/>
  <path fill="#151E28" d="M4,19.577 L4,20 C4,20.142 4.012,20.281 4.035,20.417 C2.406,19.757 1.25,18.186 1.25,16.333 C1.25,14.183 2.809,12.41 4.855,12.004 C5.313,9.859 7.218,8.25 9.5,8.25 C11.782,8.25 13.687,9.859 14.145,12.004 C16.191,12.41 17.75,14.183 17.75,16.333 C17.75,18.186 16.594,19.757 14.965,20.417 C14.988,20.281 15,20.142 15,20 L15,18 C15,16.619 13.881,15.5 12.5,15.5 C11.27,15.5 10.248,16.388 10.039,17.558 C9.865,17.52 9.685,17.5 9.5,17.5 C9.315,17.5 9.135,17.52 8.961,17.558 C8.752,16.388 7.73,15.5 6.5,15.5 C5.119,15.5 4,16.619 4,18 L4,19.577 Z M11.226,6.813 C11.053,7.189 10.608,7.354 10.231,7.182 C9.855,7.009 9.69,6.564 9.862,6.187 C10.928,3.865 13.275,2.25 16,2.25 C16.284,2.25 16.544,2.411 16.671,2.665 C16.798,2.919 16.77,3.223 16.6,3.451 C16.066,4.161 15.75,5.042 15.75,6 C15.75,8.347 17.653,10.25 20,10.25 C20.528,10.25 21.032,10.154 21.497,9.979 C21.763,9.879 22.062,9.938 22.271,10.131 C22.479,10.324 22.561,10.618 22.481,10.891 C21.99,12.576 20.862,13.987 19.375,14.847 C19.017,15.054 18.558,14.931 18.351,14.573 C18.143,14.214 18.266,13.755 18.624,13.548 C19.387,13.107 20.028,12.48 20.485,11.73 C20.325,11.743 20.163,11.75 20,11.75 C16.824,11.75 14.25,9.176 14.25,6 C14.25,5.27 14.386,4.572 14.634,3.929 C13.117,4.337 11.871,5.407 11.226,6.813 Z M9.5,19.25 C9.914,19.25 10.25,19.586 10.25,20 L10.25,22 C10.25,22.414 9.914,22.75 9.5,22.75 C9.086,22.75 8.75,22.414 8.75,22 L8.75,20 C8.75,19.586 9.086,19.25 9.5,19.25 Z M6.5,17.25 C6.914,17.25 7.25,17.586 7.25,18 L7.25,20 C7.25,20.414 6.914,20.75 6.5,20.75 C6.086,20.75 5.75,20.414 5.75,20 L5.75,18 C5.75,17.586 6.086,17.25 6.5,17.25 Z M12.5,17.25 C12.914,17.25 13.25,17.586 13.25,18 L13.25,20 C13.25,20.414 12.914,20.75 12.5,20.75 C12.086,20.75 11.75,20.414 11.75,20 L11.75,18 C11.75,17.586 12.086,17.25 12.5,17.25 Z"/>
</svg>

