<svg xmlns="http://www.w3.org/2000/svg" viewBox="0 0 24 24">
  <defs/>
  <path fill="#151E28" d="M5.39,19.229 C5.313,19.468 5.271,19.718 5.268,19.97 C5.265,20.226 5.301,20.483 5.378,20.735 C3.08,20.55 1.25,18.664 1.25,16.333 C1.25,14.183 2.809,12.41 4.855,12.004 C5.313,9.859 7.218,8.25 9.5,8.25 C11.782,8.25 13.687,9.859 14.145,12.004 C16.191,12.41 17.75,14.183 17.75,16.333 C17.75,18.664 15.92,20.549 13.623,20.735 C13.7,20.483 13.736,20.225 13.733,19.97 C13.732,19.956 13.732,19.941 13.732,19.927 C13.725,19.69 13.684,19.454 13.611,19.229 C13.585,19.151 13.557,19.075 13.524,19 C13.83,18.298 13.81,17.464 13.398,16.75 C12.985,16.035 12.273,15.602 11.512,15.516 C11.056,14.899 10.325,14.5 9.5,14.5 C8.675,14.5 7.944,14.899 7.488,15.516 C6.727,15.602 6.016,16.036 5.603,16.75 C5.191,17.464 5.171,18.298 5.477,19 C5.444,19.075 5.415,19.152 5.39,19.229 Z M11.226,6.813 C11.053,7.189 10.608,7.354 10.231,7.182 C9.855,7.009 9.69,6.564 9.862,6.187 C10.928,3.865 13.275,2.25 16,2.25 C16.284,2.25 16.544,2.411 16.671,2.665 C16.798,2.919 16.77,3.223 16.6,3.451 C16.066,4.161 15.75,5.042 15.75,6 C15.75,8.347 17.653,10.25 20,10.25 C20.528,10.25 21.032,10.154 21.497,9.979 C21.763,9.879 22.062,9.938 22.271,10.131 C22.479,10.324 22.561,10.618 22.481,10.891 C21.99,12.576 20.862,13.987 19.375,14.847 C19.017,15.054 18.558,14.931 18.351,14.573 C18.143,14.214 18.266,13.755 18.624,13.548 C19.387,13.107 20.028,12.48 20.485,11.73 C20.325,11.743 20.163,11.75 20,11.75 C16.824,11.75 14.25,9.176 14.25,6 C14.25,5.27 14.386,4.572 14.634,3.929 C13.117,4.337 11.871,5.407 11.226,6.813 Z M9.5,16.25 C9.914,16.25 10.25,16.586 10.25,17 L10.25,17.701 L10.857,17.351 C11.216,17.143 11.675,17.266 11.882,17.625 C12.089,17.984 11.966,18.442 11.607,18.649 L11,19 L11.607,19.351 C11.966,19.558 12.089,20.016 11.882,20.375 C11.675,20.734 11.216,20.857 10.857,20.649 L10.25,20.299 L10.25,21 C10.25,21.414 9.914,21.75 9.5,21.75 C9.086,21.75 8.75,21.414 8.75,21 L8.75,20.299 L8.143,20.649 C7.785,20.857 7.326,20.734 7.119,20.375 C6.912,20.016 7.035,19.558 7.393,19.351 L8,19 L7.393,18.649 C7.035,18.442 6.912,17.984 7.119,17.625 C7.326,17.266 7.785,17.143 8.143,17.351 L8.75,17.701 L8.75,17 C8.75,16.586 9.086,16.25 9.5,16.25 Z"/>
</svg>

