<svg xmlns="http://www.w3.org/2000/svg" viewBox="0 0 24 24">
  <defs/>
  <path fill="#151E28" d="M14.243,14.083 C12.866,13.248 11.134,13.248 9.757,14.083 L9.118,13.764 C7.883,13.146 6.381,13.647 5.764,14.882 C5.146,16.117 5.647,17.619 6.882,18.236 L7.872,18.731 C8.708,19.149 9.639,19.277 10.527,19.128 C10.521,19.168 10.516,19.209 10.512,19.25 C10.489,19.479 10.498,19.709 10.538,19.932 C10.542,19.955 10.546,19.977 10.55,20 C10.604,20.263 10.7,20.517 10.835,20.75 L5.75,20.75 C3.281,20.75 1.25,18.788 1.25,16.333 C1.25,14.183 2.809,12.41 4.855,12.004 C5.313,9.859 7.218,8.25 9.5,8.25 C11.782,8.25 13.687,9.859 14.145,12.004 C15.222,12.218 16.164,12.81 16.814,13.636 C16.448,13.51 16.052,13.469 15.659,13.523 C15.395,13.559 15.133,13.638 14.882,13.764 Z M11.226,6.813 C11.053,7.189 10.608,7.354 10.231,7.182 C9.855,7.009 9.69,6.564 9.862,6.187 C10.928,3.865 13.275,2.25 16,2.25 C16.284,2.25 16.544,2.411 16.671,2.665 C16.798,2.919 16.77,3.223 16.6,3.451 C16.066,4.161 15.75,5.042 15.75,6 C15.75,8.347 17.653,10.25 20,10.25 C20.528,10.25 21.032,10.154 21.497,9.979 C21.763,9.879 22.062,9.938 22.271,10.131 C22.479,10.324 22.561,10.618 22.481,10.891 C21.991,12.576 20.862,13.987 19.375,14.847 C19.017,15.054 18.558,14.931 18.351,14.573 C18.143,14.214 18.266,13.755 18.624,13.548 C19.387,13.107 20.028,12.48 20.486,11.73 C20.325,11.743 20.163,11.75 20,11.75 C16.824,11.75 14.25,9.176 14.25,6 C14.25,5.27 14.386,4.572 14.634,3.929 C13.117,4.337 11.871,5.407 11.226,6.813 Z M11.354,16.922 C10.573,17.508 9.528,17.602 8.654,17.166 L7.665,16.671 C7.294,16.486 7.144,16.035 7.329,15.665 C7.514,15.294 7.965,15.144 8.335,15.329 L9.325,15.824 C9.69,16.007 10.127,15.967 10.453,15.722 C11.37,15.035 12.63,15.035 13.547,15.722 C13.873,15.967 14.31,16.007 14.675,15.824 L15.665,15.329 C16.035,15.144 16.486,15.294 16.671,15.665 C16.856,16.035 16.706,16.486 16.335,16.671 L15.346,17.166 C14.472,17.602 13.427,17.508 12.646,16.922 C12.263,16.635 11.737,16.635 11.354,16.922 Z M17.646,20.422 C17.263,20.135 16.737,20.135 16.354,20.422 C15.573,21.008 14.528,21.102 13.654,20.666 L12.665,20.171 C12.294,19.986 12.144,19.535 12.329,19.165 C12.514,18.794 12.965,18.644 13.335,18.829 L14.325,19.324 C14.69,19.507 15.127,19.467 15.453,19.222 C16.37,18.535 17.63,18.535 18.546,19.222 C18.873,19.467 19.31,19.507 19.675,19.324 L20.665,18.829 C21.035,18.644 21.486,18.794 21.671,19.165 C21.856,19.535 21.706,19.986 21.335,20.171 L20.346,20.666 C19.472,21.102 18.427,21.008 17.646,20.422 Z"/>
</svg>

