<svg xmlns="http://www.w3.org/2000/svg" viewBox="0 0 24 24">
  <defs/>
  <path fill="#151E28" d="M9.768,2.25 L14.232,2.25 C15.045,2.25 15.701,2.25 16.232,2.293 C16.778,2.338 17.258,2.432 17.703,2.659 C18.408,3.018 18.982,3.592 19.341,4.298 C19.568,4.742 19.662,5.222 19.707,5.769 C19.75,6.299 19.75,6.955 19.75,7.768 L19.75,16.232 C19.75,17.045 19.75,17.701 19.707,18.232 C19.662,18.778 19.568,19.258 19.341,19.702 C18.982,20.408 18.408,20.982 17.703,21.341 C17.258,21.568 16.778,21.662 16.232,21.707 C15.701,21.75 15.045,21.75 14.232,21.75 L9.768,21.75 C8.955,21.75 8.3,21.75 7.769,21.707 C7.222,21.662 6.742,21.568 6.298,21.341 C5.592,20.982 5.018,20.408 4.659,19.702 C4.433,19.258 4.338,18.778 4.294,18.232 C4.26,17.818 4.252,17.33 4.251,16.75 L3,16.75 C2.586,16.75 2.25,16.414 2.25,16 C2.25,15.586 2.586,15.25 3,15.25 L4.25,15.25 L4.25,12.75 L3,12.75 C2.586,12.75 2.25,12.414 2.25,12 C2.25,11.586 2.586,11.25 3,11.25 L4.25,11.25 L4.25,8.75 L3,8.75 C2.586,8.75 2.25,8.414 2.25,8 C2.25,7.586 2.586,7.25 3,7.25 L4.251,7.25 C4.252,6.67 4.26,6.182 4.294,5.769 C4.338,5.222 4.433,4.742 4.659,4.298 C5.018,3.592 5.592,3.018 6.298,2.659 C6.742,2.432 7.222,2.338 7.769,2.293 C8.3,2.25 8.955,2.25 9.768,2.25 Z M13.25,3.75 L9.8,3.75 C8.948,3.75 8.353,3.751 7.891,3.788 C7.437,3.825 7.176,3.895 6.979,3.995 C6.555,4.211 6.211,4.555 5.995,4.979 C5.895,5.176 5.826,5.437 5.789,5.891 C5.759,6.247 5.752,6.681 5.751,7.25 L7,7.25 C7.414,7.25 7.75,7.586 7.75,8 C7.75,8.414 7.414,8.75 7,8.75 L5.75,8.75 L5.75,11.25 L7,11.25 C7.414,11.25 7.75,11.586 7.75,12 C7.75,12.414 7.414,12.75 7,12.75 L5.75,12.75 L5.75,15.25 L7,15.25 C7.414,15.25 7.75,15.586 7.75,16 C7.75,16.414 7.414,16.75 7,16.75 L5.751,16.75 C5.752,17.319 5.759,17.753 5.789,18.109 C5.826,18.563 5.895,18.824 5.995,19.021 C6.211,19.445 6.555,19.789 6.979,20.005 C7.176,20.105 7.437,20.174 7.891,20.212 C8.353,20.249 8.948,20.25 9.8,20.25 L13.25,20.25 Z"/>
</svg>

