<svg xmlns="http://www.w3.org/2000/svg" viewBox="0 0 24 24">
  <defs/>
  <path fill="#151E28" d="M12.822,2.099 C13.172,2.197 13.468,2.377 13.759,2.597 C14.037,2.807 14.353,3.088 14.731,3.424 L14.753,3.444 L18.962,7.185 L18.985,7.206 C19.407,7.58 19.757,7.892 20.021,8.169 C20.296,8.458 20.527,8.759 20.664,9.129 C20.874,9.694 20.892,10.312 20.716,10.889 C20.601,11.266 20.388,11.581 20.131,11.885 C19.883,12.177 19.552,12.509 19.153,12.908 L19.153,12.908 L19.153,12.908 L19.131,12.93 L12.664,19.397 L12.643,19.417 C12.285,19.775 11.986,20.075 11.721,20.301 C11.443,20.537 11.158,20.734 10.815,20.852 C10.287,21.034 9.716,21.051 9.178,20.9 C8.828,20.802 8.532,20.623 8.241,20.403 C7.963,20.193 7.647,19.912 7.269,19.575 L7.247,19.556 L3.038,15.815 L3.015,15.794 C2.593,15.42 2.243,15.108 1.979,14.83 C1.704,14.542 1.473,14.241 1.336,13.871 C1.126,13.306 1.108,12.687 1.284,12.111 C1.399,11.733 1.612,11.419 1.869,11.115 C2.117,10.823 2.449,10.491 2.847,10.092 L2.847,10.092 L2.869,10.07 L9.336,3.603 L9.357,3.582 C9.715,3.225 10.014,2.925 10.279,2.699 C10.557,2.463 10.842,2.266 11.185,2.148 C11.713,1.966 12.284,1.949 12.822,2.099 Z M11.674,3.566 C11.58,3.598 11.46,3.664 11.252,3.841 C11.038,4.023 10.781,4.28 10.397,4.664 L4.184,10.877 C5.059,10.629 5.99,10.571 6.913,10.725 L13.004,11.74 C14.177,11.936 14.691,12.02 15.202,12.03 C15.683,12.041 16.164,12.003 16.637,11.918 C17.113,11.832 17.582,11.682 18.588,11.347 C18.749,11.181 18.879,11.042 18.985,10.916 C19.182,10.684 19.251,10.551 19.281,10.451 C19.361,10.189 19.353,9.908 19.258,9.651 C19.222,9.553 19.145,9.424 18.935,9.203 C18.719,8.977 18.416,8.707 17.965,8.306 L13.757,4.565 C13.351,4.204 13.079,3.963 12.854,3.793 C12.637,3.629 12.513,3.57 12.418,3.544 C12.173,3.475 11.914,3.483 11.674,3.566 Z M18.988,16.516 C19.594,16.086 20.406,16.086 21.012,16.516 C21.207,16.654 21.348,16.835 21.459,16.997 C21.569,17.158 21.693,17.363 21.834,17.598 L21.845,17.617 L22.359,18.475 L22.361,18.478 C23.265,19.986 22.541,21.942 20.874,22.499 L20.87,22.5 L20.869,22.501 C20.305,22.689 19.695,22.689 19.131,22.501 L19.13,22.5 L19.126,22.499 C17.459,21.942 16.735,19.986 17.639,18.478 L17.641,18.475 L18.155,17.617 L18.166,17.598 C18.307,17.363 18.431,17.158 18.541,16.997 C18.652,16.835 18.793,16.654 18.988,16.516 Z"/>
</svg>

