<svg xmlns="http://www.w3.org/2000/svg" viewBox="0 0 24 24">
  <defs/>
  <path fill="#151E28" d="M5.246,3.707 L18.269,9.876 L18.301,9.891 C18.761,10.109 19.152,10.294 19.445,10.467 C19.731,10.636 20.06,10.867 20.239,11.236 C20.473,11.718 20.473,12.281 20.239,12.763 C20.06,13.132 19.731,13.363 19.445,13.532 C19.152,13.705 18.761,13.89 18.301,14.108 L18.269,14.123 L5.278,20.277 L5.246,20.292 L5.246,20.292 L5.246,20.292 C4.799,20.504 4.417,20.685 4.105,20.799 C3.798,20.912 3.419,21.017 3.026,20.926 C2.51,20.806 2.076,20.46 1.845,19.983 C1.669,19.62 1.687,19.227 1.729,18.902 C1.771,18.573 1.863,18.161 1.97,17.678 L1.978,17.643 L3.065,12.75 L4.602,12.75 L4.602,12.75 L11,12.75 C11.414,12.75 11.75,12.414 11.75,12 C11.75,11.586 11.414,11.25 11,11.25 L3.833,11.25 L3.833,11.25 L3.065,11.25 L1.978,6.356 L1.97,6.321 C1.863,5.838 1.771,5.426 1.729,5.097 C1.687,4.772 1.669,4.379 1.845,4.016 C2.076,3.539 2.51,3.193 3.026,3.074 C3.419,2.983 3.798,3.087 4.105,3.2 C4.417,3.315 4.799,3.495 5.246,3.707 Z"/>
</svg>

