<svg xmlns="http://www.w3.org/2000/svg" viewBox="0 0 24 24">
  <defs/>
  <path fill="#151E28" d="M4.085,8.245 L17.656,3.398 L17.689,3.386 C18.169,3.215 18.576,3.069 18.905,2.984 C19.228,2.901 19.623,2.833 20.011,2.967 C20.517,3.143 20.915,3.54 21.09,4.047 C21.225,4.434 21.156,4.83 21.073,5.152 C20.988,5.481 20.842,5.889 20.671,6.368 L20.659,6.402 L15.824,19.939 L15.812,19.972 L15.812,19.972 C15.646,20.438 15.504,20.836 15.365,21.137 C15.227,21.434 15.033,21.776 14.691,21.99 C14.241,22.271 13.689,22.333 13.189,22.159 C12.808,22.026 12.543,21.736 12.343,21.476 C12.14,21.214 11.913,20.857 11.648,20.44 L11.648,20.44 L11.629,20.41 L8.937,16.181 L10.024,15.094 L10.024,15.094 L14.548,10.57 C14.841,10.277 14.841,9.802 14.548,9.509 C14.255,9.217 13.78,9.217 13.488,9.509 L8.42,14.577 L8.42,14.577 L7.877,15.12 L3.647,12.429 L3.617,12.41 C3.2,12.144 2.844,11.917 2.581,11.715 C2.322,11.514 2.031,11.249 1.899,10.868 C1.725,10.368 1.787,9.816 2.067,9.367 C2.281,9.024 2.623,8.83 2.92,8.693 C3.222,8.553 3.619,8.411 4.085,8.245 Z"/>
</svg>

