<svg xmlns="http://www.w3.org/2000/svg" viewBox="0 0 24 24">
  <defs/>
  <path fill="#151E28" d="M7.5,5.75 C5.981,5.75 4.75,6.981 4.75,8.5 C4.75,10.019 5.981,11.25 7.5,11.25 L16.5,11.25 C18.847,11.25 20.75,13.153 20.75,15.5 C20.75,17.847 18.847,19.75 16.5,19.75 L8.646,19.75 C8.32,20.904 7.259,21.75 6,21.75 C4.481,21.75 3.25,20.519 3.25,19 C3.25,17.481 4.481,16.25 6,16.25 C7.259,16.25 8.32,17.096 8.646,18.25 L16.5,18.25 C18.019,18.25 19.25,17.019 19.25,15.5 C19.25,13.981 18.019,12.75 16.5,12.75 L7.5,12.75 C5.153,12.75 3.25,10.847 3.25,8.5 C3.25,6.153 5.153,4.25 7.5,4.25 L12,4.25 C12.414,4.25 12.75,4.586 12.75,5 C12.75,5.414 12.414,5.75 12,5.75 Z M15.25,5 C15.25,3.481 16.481,2.25 18,2.25 C19.519,2.25 20.75,3.481 20.75,5 C20.75,6.519 19.519,7.75 18,7.75 C16.481,7.75 15.25,6.519 15.25,5 Z"/>
</svg>

