<svg xmlns="http://www.w3.org/2000/svg" viewBox="0 0 24 24">
  <defs/>
  <path fill="#151E28" d="M21.307,3.752 L19.671,5.389 C20.823,7.022 20.734,9.275 19.29,10.719 C18.086,11.924 17.807,13.254 17.517,14.782 L17.496,14.896 C17.217,16.373 16.899,18.06 15.442,19.517 C12.509,22.449 7.695,22.313 4.69,19.309 C1.685,16.304 1.549,11.489 4.482,8.556 C5.939,7.1 7.625,6.782 9.103,6.503 L9.217,6.481 C10.745,6.192 12.075,5.913 13.28,4.709 C14.724,3.264 16.977,3.176 18.61,4.328 L20.247,2.692 C20.54,2.399 21.014,2.399 21.307,2.692 C21.6,2.984 21.6,3.459 21.307,3.752 Z"/>
</svg>

