<svg xmlns="http://www.w3.org/2000/svg" viewBox="0 0 24 24">
  <defs/>
  <path fill="#151E28" d="M2.956,22.143 L3.634,21.465 L4.599,20.501 L9.089,16.01 C9.123,15.976 9.153,15.94 9.179,15.902 C9.91,16.218 10.79,16.077 11.387,15.48 C12.168,14.699 12.168,13.432 11.387,12.651 C10.606,11.87 9.34,11.87 8.559,12.651 C7.962,13.248 7.821,14.129 8.137,14.86 C8.099,14.886 8.062,14.916 8.029,14.95 L3.538,19.44 L2.573,20.405 L1.896,21.082 C1.788,20.77 1.806,20.456 1.845,20.187 C1.885,19.906 1.966,19.564 2.06,19.174 L2.06,19.173 L2.067,19.141 L4.628,8.387 L4.648,8.301 L4.648,8.301 C4.765,7.811 4.856,7.425 5.047,7.086 C5.216,6.788 5.438,6.523 5.704,6.306 C6.006,6.06 6.37,5.904 6.833,5.706 L6.914,5.671 L8.393,5.038 L8.502,4.991 C9.113,4.728 9.593,4.522 10.092,4.498 C10.255,4.49 10.418,4.497 10.58,4.518 C10.651,4.066 10.862,3.631 11.21,3.282 C12.089,2.404 13.514,2.404 14.392,3.282 L20.756,9.646 C21.635,10.525 21.635,11.95 20.756,12.828 C20.408,13.177 19.973,13.387 19.52,13.459 C19.541,13.62 19.548,13.784 19.54,13.947 C19.517,14.446 19.311,14.925 19.048,15.536 L19.001,15.646 L18.367,17.124 L18.333,17.205 C18.135,17.669 17.979,18.033 17.732,18.335 C17.516,18.6 17.251,18.823 16.953,18.991 C16.613,19.183 16.228,19.274 15.737,19.391 L15.652,19.411 L4.898,21.971 L4.865,21.979 C4.475,22.072 4.132,22.154 3.852,22.194 C3.582,22.233 3.268,22.25 2.956,22.143 Z M18.635,11.768 C18.928,12.061 19.403,12.061 19.696,11.768 C19.989,11.475 19.989,11 19.696,10.707 L13.332,4.343 C13.039,4.05 12.564,4.05 12.271,4.343 C11.978,4.636 11.978,5.111 12.271,5.404 Z"/>
</svg>

