<svg xmlns="http://www.w3.org/2000/svg" viewBox="0 0 24 24">
  <defs/>
  <path fill="#151E28" d="M17.15,2.793 C18.199,1.84 19.801,1.84 20.85,2.793 C20.899,2.838 20.951,2.89 21.018,2.957 L21.03,2.97 L21.043,2.982 L21.043,2.982 C21.11,3.05 21.162,3.101 21.207,3.15 C22.16,4.199 22.16,5.801 21.207,6.85 C21.162,6.898 21.11,6.95 21.043,7.018 L21.03,7.03 L9.784,18.277 L9.74,18.321 C9.315,18.745 9.042,19.019 8.728,19.245 C8.449,19.445 8.15,19.614 7.836,19.75 C7.481,19.903 7.105,19.997 6.523,20.142 L6.523,20.142 L6.462,20.157 L4.182,20.728 C3.926,20.791 3.656,20.716 3.47,20.53 C3.283,20.344 3.209,20.074 3.272,19.818 L3.842,17.538 L3.858,17.477 C4.003,16.895 4.097,16.519 4.25,16.164 C4.386,15.849 4.555,15.55 4.755,15.272 C4.981,14.958 5.255,14.685 5.679,14.26 L5.723,14.216 L16.97,2.97 L16.982,2.957 L16.982,2.957 C17.05,2.89 17.101,2.838 17.15,2.793 Z M10,20.25 L20,20.25 C20.414,20.25 20.75,20.586 20.75,21 C20.75,21.414 20.414,21.75 20,21.75 L10,21.75 C9.586,21.75 9.25,21.414 9.25,21 C9.25,20.586 9.586,20.25 10,20.25 Z"/>
</svg>

