<svg xmlns="http://www.w3.org/2000/svg" viewBox="0 0 24 24">
  <defs/>
  <path fill="#151E28" d="M11.25,1.327 L11.25,10 C11.25,10.048 11.255,10.095 11.263,10.14 C10.524,10.434 10,11.156 10,12 C10,13.105 10.896,14 12,14 C13.105,14 14,13.105 14,12 C14,11.156 13.477,10.434 12.737,10.14 C12.746,10.095 12.75,10.048 12.75,10 L12.75,1.327 C13.047,1.472 13.256,1.706 13.42,1.925 C13.589,2.151 13.774,2.451 13.984,2.793 L13.984,2.793 L13.984,2.793 L13.984,2.793 L14.002,2.821 L19.795,12.236 L19.842,12.311 C20.106,12.74 20.314,13.077 20.419,13.452 C20.511,13.783 20.54,14.127 20.506,14.468 C20.467,14.856 20.319,15.224 20.132,15.691 L20.099,15.773 L19.501,17.267 L19.457,17.377 C19.211,17.995 19.017,18.48 18.681,18.849 C18.572,18.97 18.451,19.081 18.323,19.18 C18.592,19.551 18.75,20.007 18.75,20.5 C18.75,21.743 17.743,22.75 16.5,22.75 L7.5,22.75 C6.258,22.75 5.25,21.743 5.25,20.5 C5.25,20.007 5.409,19.551 5.678,19.18 C5.549,19.081 5.429,18.97 5.319,18.849 C4.983,18.48 4.79,17.995 4.543,17.377 L4.499,17.267 L3.902,15.773 L3.869,15.691 C3.682,15.224 3.534,14.856 3.495,14.468 C3.46,14.127 3.49,13.783 3.582,13.452 C3.687,13.077 3.895,12.74 4.159,12.311 L4.205,12.236 L9.999,2.821 L10.016,2.793 C10.227,2.451 10.411,2.151 10.581,1.925 C10.745,1.706 10.954,1.472 11.25,1.327 Z M7.5,19.75 C7.086,19.75 6.75,20.086 6.75,20.5 C6.75,20.914 7.086,21.25 7.5,21.25 L16.5,21.25 C16.914,21.25 17.25,20.914 17.25,20.5 C17.25,20.086 16.914,19.75 16.5,19.75 Z"/>
</svg>

