<svg xmlns="http://www.w3.org/2000/svg" viewBox="0 0 24 24">
  <defs/>
  <path fill="#151E28" d="M17.53,1.47 C18.68,2.62 19,3.814 19,4.75 C19,5.208 18.924,5.59 18.846,5.862 C18.807,5.999 18.767,6.109 18.735,6.189 C18.719,6.229 18.705,6.261 18.694,6.286 C18.689,6.298 18.684,6.308 18.68,6.317 C19.159,6.584 19.551,6.907 19.868,7.267 C20.44,7.918 20.731,8.655 20.868,9.326 C21.005,9.994 20.993,10.613 20.95,11.059 C20.928,11.284 20.898,11.47 20.872,11.602 C20.86,11.669 20.848,11.722 20.839,11.76 L20.834,11.783 L20.828,11.807 L20.824,11.822 L20.823,11.827 L20.822,11.829 L20.822,11.83 C20.822,11.83 20.822,11.83 20.098,11.637 L20.822,11.83 C20.759,12.063 20.589,12.252 20.364,12.338 C20.138,12.423 19.885,12.395 19.684,12.262 L17.858,11.057 L16.206,12.011 C15.848,12.218 15.389,12.095 15.182,11.736 L14.228,10.084 L12.044,10.215 C11.804,10.23 11.571,10.127 11.418,9.941 C11.266,9.754 11.212,9.505 11.275,9.272 L11.999,9.467 C11.283,9.275 11.275,9.272 11.275,9.272 L11.275,9.271 L11.276,9.269 L11.277,9.264 L11.281,9.249 C11.285,9.238 11.289,9.222 11.295,9.203 C11.306,9.165 11.323,9.113 11.345,9.049 C11.389,8.922 11.456,8.746 11.549,8.54 C11.735,8.132 12.034,7.59 12.487,7.08 C12.941,6.567 13.561,6.075 14.383,5.797 C15.199,5.521 16.165,5.474 17.287,5.767 C17.297,5.735 17.31,5.703 17.325,5.672 L17.326,5.672 L17.326,5.671 L17.327,5.668 C17.33,5.663 17.335,5.65 17.343,5.632 C17.358,5.594 17.38,5.533 17.404,5.45 C17.451,5.285 17.5,5.042 17.5,4.75 C17.5,4.186 17.32,3.381 16.469,2.53 C16.177,2.237 16.177,1.763 16.469,1.47 C16.762,1.177 17.237,1.177 17.53,1.47 Z M12.671,12.335 L11.851,13.975 C11.005,15.667 9.487,16.927 7.668,17.446 L4.446,18.367 C4.034,18.485 3.75,18.861 3.75,19.29 C3.75,19.82 4.18,20.25 4.71,20.25 L10.211,20.25 C13.894,20.25 17.132,17.808 18.144,14.267 L18.279,13.794 C18.392,13.396 18.808,13.165 19.206,13.279 C19.604,13.393 19.835,13.808 19.721,14.206 L19.586,14.679 C18.39,18.864 14.564,21.75 10.211,21.75 L4.71,21.75 C3.351,21.75 2.25,20.649 2.25,19.29 C2.25,18.192 2.978,17.226 4.034,16.924 L7.256,16.004 C8.671,15.6 9.851,14.62 10.509,13.304 L11.329,11.665 C11.514,11.294 11.965,11.144 12.335,11.329 C12.706,11.514 12.856,11.965 12.671,12.335 Z M17.976,5.988 L17.329,5.665 L17.329,5.665 C17.329,5.665 17.329,5.665 17.976,5.988 Z M17.328,5.667 L17.328,5.666 C17.328,5.667 17.327,5.668 17.327,5.669 L17.328,5.667 Z"/>
</svg>

