<svg xmlns="http://www.w3.org/2000/svg" viewBox="0 0 24 24">
  <defs/>
  <path fill="#151E28" d="M13.117,2.479 C13.602,2.695 13.961,3.093 14.285,3.55 C14.606,4.004 14.961,4.617 15.399,5.375 L15.418,5.408 L20.868,14.821 L20.887,14.854 C21.327,15.614 21.684,16.229 21.918,16.736 C22.154,17.245 22.321,17.756 22.266,18.285 C22.185,19.061 21.779,19.766 21.148,20.224 C20.718,20.537 20.192,20.648 19.633,20.699 C19.077,20.75 18.366,20.75 17.488,20.75 L6.512,20.75 C5.634,20.75 4.923,20.75 4.367,20.699 C3.808,20.648 3.282,20.537 2.852,20.224 C2.221,19.766 1.815,19.061 1.734,18.285 C1.679,17.756 1.846,17.245 2.082,16.736 C2.316,16.229 2.673,15.614 3.113,14.854 L3.132,14.821 L8.582,5.408 L8.601,5.375 C9.039,4.618 9.394,4.004 9.715,3.55 C10.039,3.093 10.398,2.695 10.883,2.479 C11.594,2.163 12.406,2.163 13.117,2.479 Z M14.416,10.376 C14.071,10.146 13.606,10.239 13.376,10.584 L9.376,16.584 C9.146,16.929 9.239,17.394 9.584,17.624 C9.929,17.854 10.394,17.761 10.624,17.416 L14.624,11.416 C14.854,11.071 14.761,10.606 14.416,10.376 Z M8.25,12 C8.25,12.967 9.033,13.75 10,13.75 C10.967,13.75 11.75,12.967 11.75,12 C11.75,11.033 10.967,10.25 10,10.25 C9.033,10.25 8.25,11.033 8.25,12 Z M14,14.25 C13.033,14.25 12.25,15.033 12.25,16 C12.25,16.966 13.033,17.75 14,17.75 C14.967,17.75 15.75,16.966 15.75,16 C15.75,15.033 14.967,14.25 14,14.25 Z M13.75,16 C13.75,15.862 13.862,15.75 14,15.75 C14.138,15.75 14.25,15.862 14.25,16 C14.25,16.138 14.138,16.25 14,16.25 C13.862,16.25 13.75,16.138 13.75,16 Z M10,11.75 C10.138,11.75 10.25,11.862 10.25,12 C10.25,12.138 10.138,12.25 10,12.25 C9.862,12.25 9.75,12.138 9.75,12 C9.75,11.862 9.862,11.75 10,11.75 Z"/>
</svg>

