<svg xmlns="http://www.w3.org/2000/svg" viewBox="0 0 24 24">
  <defs/>
  <path fill="#151E28" d="M12,2.25 C17.385,2.25 21.75,6.615 21.75,12 C21.75,17.385 17.385,21.75 12,21.75 C6.615,21.75 2.25,17.385 2.25,12 C2.25,6.615 6.615,2.25 12,2.25 Z M15.45,7.4 C15.119,7.151 14.649,7.219 14.4,7.55 L8.4,15.55 C8.151,15.881 8.219,16.351 8.55,16.6 C8.881,16.848 9.351,16.781 9.6,16.45 L15.6,8.45 C15.849,8.119 15.781,7.649 15.45,7.4 Z M7.25,9.5 C7.25,10.743 8.257,11.75 9.5,11.75 C10.743,11.75 11.75,10.743 11.75,9.5 C11.75,8.257 10.743,7.25 9.5,7.25 C8.257,7.25 7.25,8.257 7.25,9.5 Z M14.5,12.25 C13.257,12.25 12.25,13.257 12.25,14.5 C12.25,15.743 13.257,16.75 14.5,16.75 C15.743,16.75 16.75,15.743 16.75,14.5 C16.75,13.257 15.743,12.25 14.5,12.25 Z M9.5,8.75 C9.914,8.75 10.25,9.086 10.25,9.5 C10.25,9.914 9.914,10.25 9.5,10.25 C9.086,10.25 8.75,9.914 8.75,9.5 C8.75,9.086 9.086,8.75 9.5,8.75 Z M13.75,14.5 C13.75,14.086 14.086,13.75 14.5,13.75 C14.914,13.75 15.25,14.086 15.25,14.5 C15.25,14.914 14.914,15.25 14.5,15.25 C14.086,15.25 13.75,14.914 13.75,14.5 Z"/>
</svg>

