<svg xmlns="http://www.w3.org/2000/svg" viewBox="0 0 24 24">
  <defs/>
  <path fill="#151E28" d="M6.645,4.374 C7.514,4.558 8.341,4.987 9.016,5.662 C10.09,6.736 10.09,8.477 9.016,9.551 L6.188,12.38 C5.114,13.453 3.372,13.453 2.298,12.38 C0.447,10.528 0.443,7.53 2.287,5.674 L2.298,5.662 C7.656,0.304 16.336,0.292 21.708,5.627 L21.744,5.662 C23.599,7.517 23.599,10.524 21.744,12.38 C20.67,13.453 18.929,13.453 17.855,12.38 L15.026,9.551 C13.952,8.477 13.952,6.736 15.026,5.662 C15.701,4.987 16.529,4.558 17.397,4.374 C14.014,2.722 10.028,2.722 6.645,4.374 Z M12.75,12 L12.75,18.189 L14.47,16.469 C14.763,16.177 15.237,16.177 15.53,16.469 C15.823,16.762 15.823,17.237 15.53,17.53 L12.53,20.53 C12.237,20.823 11.763,20.823 11.47,20.53 L8.47,17.53 C8.177,17.237 8.177,16.762 8.47,16.469 C8.763,16.177 9.237,16.177 9.53,16.469 L11.25,18.189 L11.25,12 C11.25,11.586 11.586,11.25 12,11.25 C12.414,11.25 12.75,11.586 12.75,12 Z"/>
</svg>

