<svg xmlns="http://www.w3.org/2000/svg" viewBox="0 0 24 24">
  <defs/>
  <path fill="#151E28" d="M3.25,7 C3.25,4.377 5.377,2.25 8,2.25 C9.519,2.25 10.75,3.481 10.75,5 L10.75,9 C10.75,10.519 9.519,11.75 8,11.75 C7.046,11.75 6.157,11.469 5.412,10.984 C6.636,14.545 9.455,17.364 13.016,18.588 C12.531,17.843 12.25,16.954 12.25,16 C12.25,14.481 13.481,13.25 15,13.25 L19,13.25 C20.519,13.25 21.75,14.481 21.75,16 C21.75,18.623 19.623,20.75 17,20.75 C9.406,20.75 3.25,14.594 3.25,7 Z M16.811,8.25 L20,8.25 C20.414,8.25 20.75,8.586 20.75,9 C20.75,9.414 20.414,9.75 20,9.75 L15,9.75 C14.586,9.75 14.25,9.414 14.25,9 L14.25,4 C14.25,3.586 14.586,3.25 15,3.25 C15.414,3.25 15.75,3.586 15.75,4 L15.75,7.189 L20.47,2.47 C20.763,2.177 21.237,2.177 21.53,2.47 C21.823,2.763 21.823,3.237 21.53,3.53 Z"/>
</svg>

