<svg xmlns="http://www.w3.org/2000/svg" viewBox="0 0 24 24">
  <defs/>
  <path fill="#151E28" d="M3.25,7 C3.25,4.377 5.377,2.25 8,2.25 C9.519,2.25 10.75,3.481 10.75,5 L10.75,9 C10.75,10.519 9.519,11.75 8,11.75 C7.046,11.75 6.157,11.469 5.412,10.984 C6.636,14.545 9.455,17.364 13.016,18.588 C12.531,17.843 12.25,16.954 12.25,16 C12.25,14.481 13.481,13.25 15,13.25 L19,13.25 C20.519,13.25 21.75,14.481 21.75,16 C21.75,18.623 19.623,20.75 17,20.75 C9.406,20.75 3.25,14.594 3.25,7 Z M15.53,3.47 L17.5,5.439 L19.47,3.47 C19.763,3.177 20.237,3.177 20.53,3.47 C20.823,3.763 20.823,4.237 20.53,4.53 L18.561,6.5 L20.53,8.47 C20.823,8.763 20.823,9.237 20.53,9.53 C20.237,9.823 19.763,9.823 19.47,9.53 L17.5,7.561 L15.53,9.53 C15.237,9.823 14.763,9.823 14.47,9.53 C14.177,9.237 14.177,8.763 14.47,8.47 L16.439,6.5 L14.47,4.53 C14.177,4.237 14.177,3.763 14.47,3.47 C14.763,3.177 15.237,3.177 15.53,3.47 Z"/>
</svg>

