<svg xmlns="http://www.w3.org/2000/svg" viewBox="0 0 24 24">
  <defs/>
  <path fill="#151E28" d="M3.25,7 C3.25,4.377 5.377,2.25 8,2.25 C9.519,2.25 10.75,3.481 10.75,5 L10.75,9 C10.75,10.519 9.519,11.75 8,11.75 C7.046,11.75 6.157,11.469 5.412,10.984 C6.636,14.545 9.455,17.364 13.016,18.588 C12.531,17.843 12.25,16.954 12.25,16 C12.25,14.481 13.481,13.25 15,13.25 L19,13.25 C20.519,13.25 21.75,14.481 21.75,16 C21.75,18.623 19.623,20.75 17,20.75 C9.406,20.75 3.25,14.594 3.25,7 Z M16,2.25 L21,2.25 C21.414,2.25 21.75,2.586 21.75,3 L21.75,8 C21.75,8.414 21.414,8.75 21,8.75 C20.586,8.75 20.25,8.414 20.25,8 L20.25,4.811 L15.53,9.53 C15.237,9.823 14.763,9.823 14.47,9.53 C14.177,9.237 14.177,8.763 14.47,8.47 L19.189,3.75 L16,3.75 C15.586,3.75 15.25,3.414 15.25,3 C15.25,2.586 15.586,2.25 16,2.25 Z"/>
</svg>

