<svg xmlns="http://www.w3.org/2000/svg" viewBox="0 0 24 24">
  <defs/>
  <path fill="#151E28" d="M17.397,9.374 C14.014,7.722 10.027,7.722 6.644,9.374 C7.513,9.558 8.341,9.987 9.016,10.662 C10.089,11.736 10.089,13.477 9.016,14.551 L6.187,17.379 C5.113,18.454 3.372,18.454 2.298,17.379 C0.447,15.528 0.443,12.53 2.286,10.674 L2.298,10.662 C7.656,5.304 16.335,5.292 21.708,10.627 L21.743,10.662 C23.598,12.517 23.598,15.524 21.743,17.379 C20.669,18.453 18.928,18.453 17.854,17.379 L15.026,14.551 C13.952,13.477 13.952,11.736 15.026,10.662 C15.701,9.987 16.528,9.558 17.397,9.374 Z"/>
</svg>

