<svg xmlns="http://www.w3.org/2000/svg" viewBox="0 0 24 24">
  <defs/>
  <path fill="#151E28" d="M8,2.25 C9.519,2.25 10.75,3.481 10.75,5 L10.75,9 C10.75,10.519 9.519,11.75 8,11.75 C7.046,11.75 6.157,11.469 5.412,10.984 C6.636,14.545 9.455,17.364 13.016,18.588 C12.531,17.843 12.25,16.954 12.25,16 C12.25,14.481 13.481,13.25 15,13.25 L19,13.25 C20.519,13.25 21.75,14.481 21.75,16 C21.75,18.623 19.623,20.75 17,20.75 C9.406,20.75 3.25,14.594 3.25,7 C3.25,4.377 5.377,2.25 8,2.25 Z M20,10.75 C19.586,10.75 19.25,10.414 19.25,10 C19.25,6.914 17.086,4.75 14,4.75 C13.586,4.75 13.25,4.414 13.25,4 C13.25,3.586 13.586,3.25 14,3.25 C17.914,3.25 20.75,6.086 20.75,10 C20.75,10.414 20.414,10.75 20,10.75 Z M16.25,10 C16.25,8.757 15.243,7.75 14,7.75 C13.586,7.75 13.25,7.414 13.25,7 C13.25,6.586 13.586,6.25 14,6.25 C16.071,6.25 17.75,7.929 17.75,10 C17.75,10.414 17.414,10.75 17,10.75 C16.586,10.75 16.25,10.414 16.25,10 Z"/>
</svg>

