<svg xmlns="http://www.w3.org/2000/svg" viewBox="0 0 24 24">
  <defs/>
  <path fill="#151E28" d="M8.367,2.25 L15.633,2.25 C16.725,2.25 17.591,2.25 18.288,2.307 C19.002,2.365 19.605,2.487 20.156,2.768 C21.05,3.223 21.777,3.95 22.232,4.844 C22.513,5.395 22.635,5.998 22.693,6.712 C22.75,7.409 22.75,8.275 22.75,9.367 L22.75,14.633 C22.75,15.725 22.75,16.591 22.693,17.288 C22.635,18.002 22.513,18.605 22.232,19.156 C21.777,20.05 21.05,20.777 20.156,21.232 C19.605,21.513 19.002,21.635 18.288,21.693 C17.591,21.75 16.725,21.75 15.633,21.75 L8.367,21.75 C7.275,21.75 6.409,21.75 5.712,21.693 C4.998,21.635 4.395,21.513 3.844,21.232 C2.95,20.777 2.223,20.05 1.768,19.156 C1.487,18.605 1.365,18.002 1.307,17.288 C1.25,16.591 1.25,15.725 1.25,14.633 L1.25,9.367 C1.25,8.275 1.25,7.409 1.307,6.712 C1.365,5.998 1.487,5.395 1.768,4.844 C2.223,3.95 2.95,3.223 3.844,2.768 C4.395,2.487 4.998,2.365 5.712,2.307 C6.409,2.25 7.275,2.25 8.367,2.25 Z M12.75,16.2 L12.75,20.25 L15.6,20.25 C16.733,20.25 17.537,20.249 18.166,20.198 C18.787,20.147 19.171,20.051 19.476,19.896 C20.087,19.584 20.584,19.087 20.896,18.476 C21.051,18.171 21.147,17.787 21.198,17.166 C21.249,16.537 21.25,15.733 21.25,14.6 L21.25,13.75 L15.2,13.75 C14.628,13.75 14.243,13.751 13.948,13.775 C13.66,13.798 13.523,13.84 13.432,13.886 C13.197,14.006 13.006,14.197 12.886,14.432 C12.84,14.523 12.798,14.66 12.775,14.948 C12.751,15.243 12.75,15.628 12.75,16.2 Z"/>
</svg>

