<svg xmlns="http://www.w3.org/2000/svg" viewBox="0 0 24 24">
  <defs/>
  <path fill="#151E28" d="M2.53,1.47 L22.53,21.47 C22.823,21.763 22.823,22.237 22.53,22.53 C22.237,22.823 21.763,22.823 21.47,22.53 L17.2,18.261 C16.136,19.546 15.017,20.585 14.133,21.323 L14.083,21.365 C13.661,21.718 13.318,22.005 12.756,22.166 C12.517,22.234 12.241,22.258 12,22.258 C11.76,22.258 11.483,22.234 11.245,22.166 C10.683,22.006 10.34,21.719 9.919,21.367 L9.87,21.326 C8.667,20.321 7.024,18.756 5.676,16.767 C4.329,14.778 3.25,12.323 3.25,9.556 C3.25,7.938 3.634,6.536 4.305,5.365 L1.47,2.53 C1.177,2.237 1.177,1.763 1.47,1.47 C1.763,1.177 2.237,1.177 2.53,1.47 Z M7.881,3.84 C7.524,4.051 7.064,3.932 6.854,3.575 C6.644,3.218 6.762,2.759 7.119,2.548 C9.686,1.035 13.061,0.863 15.805,2.011 C18.591,3.175 20.75,5.714 20.75,9.556 C20.75,11.484 20.226,13.26 19.454,14.831 C19.271,15.203 18.822,15.356 18.45,15.173 C18.078,14.99 17.925,14.541 18.108,14.169 C18.802,12.758 19.25,11.207 19.25,9.556 C19.25,6.38 17.513,4.35 15.226,3.395 C12.898,2.421 10.022,2.578 7.881,3.84 Z M11.624,7.781 C11.216,7.85 10.829,7.574 10.76,7.166 C10.692,6.757 10.967,6.37 11.376,6.302 C11.579,6.268 11.788,6.25 12,6.25 C14.071,6.25 15.75,7.929 15.75,10 C15.75,10.212 15.732,10.421 15.698,10.624 C15.63,11.033 15.243,11.308 14.834,11.24 C14.426,11.171 14.15,10.784 14.219,10.376 C14.239,10.254 14.25,10.129 14.25,10 C14.25,8.757 13.243,7.75 12,7.75 C11.871,7.75 11.746,7.761 11.624,7.781 Z M8.304,9.364 L8.302,9.376 C8.268,9.579 8.25,9.788 8.25,10 C8.25,12.071 9.929,13.75 12,13.75 C12.212,13.75 12.421,13.732 12.624,13.698 L12.635,13.696 Z"/>
</svg>

