<svg xmlns="http://www.w3.org/2000/svg" viewBox="0 0 24 24">
  <defs/>
  <path fill="#151E28" d="M20.75,9.542 C20.75,12.309 19.671,14.764 18.324,16.753 C16.976,18.742 15.333,20.307 14.13,21.312 L14.081,21.353 C13.66,21.705 13.318,21.991 12.756,22.152 C12.517,22.22 12.241,22.244 12,22.244 C11.759,22.244 11.483,22.22 11.245,22.152 C10.683,21.992 10.34,21.705 9.919,21.353 L9.87,21.312 C8.667,20.307 7.024,18.742 5.676,16.753 C4.329,14.764 3.25,12.309 3.25,9.542 C3.25,6.808 4.346,4.712 6.018,3.311 C7.673,1.924 9.852,1.25 12,1.25 C14.148,1.25 16.327,1.924 17.982,3.311 C19.654,4.712 20.75,6.808 20.75,9.542 Z M16.53,7.47 C16.237,7.177 15.763,7.177 15.47,7.47 L11,11.939 L9.53,10.47 C9.237,10.177 8.763,10.177 8.47,10.47 C8.177,10.763 8.177,11.237 8.47,11.53 L10.47,13.53 C10.763,13.823 11.237,13.823 11.53,13.53 L16.53,8.53 C16.823,8.237 16.823,7.763 16.53,7.47 Z"/>
</svg>

