<svg xmlns="http://www.w3.org/2000/svg" viewBox="0 0 24 24">
  <defs/>
  <path fill="#151E28" d="M20.75,9.555 C20.75,12.323 19.671,14.777 18.324,16.766 C16.976,18.756 15.333,20.321 14.13,21.325 L14.081,21.367 C13.66,21.719 13.318,22.005 12.756,22.166 C12.517,22.234 12.241,22.258 12,22.258 C11.759,22.258 11.483,22.234 11.245,22.166 C10.683,22.005 10.34,21.719 9.919,21.367 L9.87,21.325 C8.667,20.321 7.024,18.756 5.676,16.766 C4.329,14.777 3.25,12.323 3.25,9.555 C3.25,6.822 4.346,4.725 6.018,3.324 C7.673,1.937 9.852,1.264 12,1.264 C14.148,1.264 16.327,1.937 17.982,3.324 C19.654,4.725 20.75,6.822 20.75,9.555 Z M8.97,7.97 C8.677,8.263 8.677,8.737 8.97,9.03 L10.939,11 L8.97,12.97 C8.677,13.263 8.677,13.737 8.97,14.03 C9.263,14.323 9.737,14.323 10.03,14.03 L12,12.061 L13.97,14.03 C14.263,14.323 14.737,14.323 15.03,14.03 C15.323,13.737 15.323,13.263 15.03,12.97 L13.061,11 L15.03,9.03 C15.323,8.737 15.323,8.263 15.03,7.97 C14.737,7.677 14.263,7.677 13.97,7.97 L12,9.939 L10.03,7.97 C9.737,7.677 9.263,7.677 8.97,7.97 Z"/>
</svg>

