<svg xmlns="http://www.w3.org/2000/svg" viewBox="0 0 24 24">
  <defs/>
  <path fill="#151E28" d="M20.75,9.555 C20.75,12.323 19.671,14.777 18.324,16.766 C16.976,18.756 15.333,20.321 14.13,21.325 L14.081,21.367 C13.66,21.719 13.318,22.005 12.756,22.166 C12.517,22.234 12.241,22.258 12,22.258 C11.759,22.258 11.483,22.234 11.245,22.166 C10.683,22.005 10.34,21.719 9.919,21.367 L9.87,21.325 C8.667,20.321 7.024,18.756 5.676,16.766 C4.329,14.777 3.25,12.323 3.25,9.555 C3.25,6.822 4.346,4.725 6.018,3.324 C7.673,1.937 9.852,1.264 12,1.264 C14.148,1.264 16.327,1.937 17.982,3.324 C19.654,4.725 20.75,6.822 20.75,9.555 Z M12,7.25 C11.586,7.25 11.25,7.586 11.25,8 L11.25,10.25 L9,10.25 C8.586,10.25 8.25,10.586 8.25,11 C8.25,11.414 8.586,11.75 9,11.75 L11.25,11.75 L11.25,14 C11.25,14.414 11.586,14.75 12,14.75 C12.414,14.75 12.75,14.414 12.75,14 L12.75,11.75 L15,11.75 C15.414,11.75 15.75,11.414 15.75,11 C15.75,10.586 15.414,10.25 15,10.25 L12.75,10.25 L12.75,8 C12.75,7.586 12.414,7.25 12,7.25 Z"/>
</svg>

