<svg xmlns="http://www.w3.org/2000/svg" viewBox="0 0 24 24">
  <defs/>
  <path fill="#151E28" d="M16.646,3.09 C17.932,4.332 18.75,6.163 18.75,8.519 C18.75,12.483 15.953,15.621 14.149,17.246 L14.11,17.281 C13.71,17.642 13.385,17.935 12.795,18.114 C12.547,18.188 12.251,18.213 12,18.213 C11.75,18.213 11.453,18.188 11.205,18.114 C10.615,17.935 10.29,17.642 9.89,17.281 L9.851,17.246 C8.047,15.621 5.25,12.483 5.25,8.519 C5.25,6.163 6.068,4.332 7.354,3.09 C8.631,1.857 10.323,1.25 12,1.25 C13.677,1.25 15.37,1.857 16.646,3.09 Z M5.688,15.547 C5.853,15.927 5.679,16.369 5.299,16.534 C4.721,16.785 4.31,17.05 4.055,17.299 C3.801,17.546 3.75,17.726 3.75,17.836 C3.75,17.961 3.821,18.186 4.187,18.49 C4.548,18.791 5.117,19.096 5.885,19.366 C7.414,19.903 9.576,20.25 12,20.25 C14.424,20.25 16.586,19.903 18.115,19.366 C18.883,19.096 19.452,18.791 19.813,18.49 C20.179,18.186 20.25,17.961 20.25,17.836 C20.25,17.726 20.199,17.546 19.945,17.299 C19.69,17.05 19.279,16.785 18.701,16.534 C18.321,16.369 18.147,15.927 18.312,15.547 C18.477,15.168 18.919,14.993 19.299,15.158 C19.972,15.451 20.561,15.804 20.993,16.225 C21.427,16.648 21.75,17.191 21.75,17.836 C21.75,18.584 21.317,19.191 20.772,19.644 C20.223,20.101 19.473,20.478 18.613,20.781 C16.885,21.388 14.547,21.75 12,21.75 C9.453,21.75 7.115,21.388 5.387,20.781 C4.527,20.478 3.777,20.101 3.228,19.644 C2.683,19.191 2.25,18.584 2.25,17.836 C2.25,17.191 2.573,16.648 3.007,16.225 C3.439,15.804 4.028,15.451 4.701,15.158 C5.081,14.993 5.523,15.168 5.688,15.547 Z M10,7.8 L10,8.2 C10,9.194 10.806,10 11.8,10 L12.2,10 C13.194,10 14,9.194 14,8.2 L14,7.8 C14,6.806 13.194,6 12.2,6 L11.8,6 C10.806,6 10,6.806 10,7.8 Z"/>
</svg>

