<svg xmlns="http://www.w3.org/2000/svg" viewBox="0 0 24 24">
  <defs/>
  <path fill="#151E28" d="M3.25,12 C3.25,7.168 7.168,3.25 12,3.25 C15.963,3.25 19.31,5.884 20.386,9.497 C21.013,8.76 21.437,8.096 21.658,7.542 C21.904,6.925 21.855,6.569 21.743,6.375 C21.658,6.228 21.481,6.07 21.112,5.957 C20.737,5.843 20.216,5.793 19.549,5.836 C19.136,5.863 18.779,5.55 18.752,5.137 C18.725,4.724 19.038,4.367 19.451,4.34 C20.224,4.289 20.942,4.337 21.55,4.523 C22.163,4.71 22.713,5.055 23.042,5.625 C23.483,6.388 23.378,7.279 23.051,8.098 C22.72,8.927 22.114,9.814 21.324,10.705 C19.739,12.492 17.295,14.428 14.375,16.114 C11.455,17.8 8.557,18.948 6.216,19.427 C5.05,19.666 3.979,19.747 3.096,19.619 C2.223,19.493 1.399,19.138 0.959,18.375 C0.598,17.751 0.604,17.037 0.794,16.357 C0.984,15.681 1.375,14.97 1.895,14.259 C2.14,13.925 2.609,13.853 2.943,14.097 C3.277,14.342 3.35,14.811 3.105,15.145 C2.645,15.775 2.362,16.321 2.239,16.763 C2.115,17.201 2.165,17.465 2.258,17.625 C2.37,17.819 2.653,18.04 3.311,18.135 C3.902,18.22 4.689,18.185 5.641,18.011 C4.16,16.444 3.25,14.328 3.25,12 Z M20.314,14.734 C19.166,18.227 15.879,20.75 12,20.75 C11.246,20.75 10.513,20.655 9.813,20.475 C9.412,20.371 9.171,19.962 9.274,19.561 C9.377,19.16 9.786,18.919 10.187,19.022 C10.766,19.171 11.373,19.25 12,19.25 C15.212,19.25 17.938,17.161 18.889,14.266 C19.019,13.873 19.442,13.658 19.836,13.788 C20.229,13.917 20.444,14.341 20.314,14.734 Z"/>
</svg>

