<svg xmlns="http://www.w3.org/2000/svg" viewBox="0 0 24 24">
  <defs/>
  <path fill="#151E28" d="M8,2.25 L10.259,2.25 C11.605,2.25 12.847,2.971 13.515,4.139 L16.435,9.25 L19.641,9.25 C19.994,9.25 20.341,9.332 20.656,9.49 L21.441,9.882 C22.243,10.283 22.75,11.103 22.75,12 C22.75,12.897 22.243,13.717 21.441,14.118 L20.656,14.51 C20.341,14.668 19.994,14.75 19.641,14.75 L16.435,14.75 L13.515,19.861 C12.847,21.029 11.605,21.75 10.259,21.75 L7,21.75 C6.748,21.75 6.513,21.623 6.374,21.413 C6.235,21.202 6.211,20.936 6.311,20.705 L8.863,14.75 L6.311,14.75 L5.116,15.944 C4.6,16.46 3.901,16.75 3.172,16.75 L2,16.75 C1.769,16.75 1.551,16.644 1.409,16.462 C1.267,16.279 1.216,16.042 1.272,15.818 L2.03,12.788 C2.159,12.271 2.159,11.729 2.03,11.212 L1.272,8.182 C1.216,7.958 1.267,7.72 1.409,7.538 C1.551,7.356 1.769,7.25 2,7.25 L3.172,7.25 C3.901,7.25 4.6,7.54 5.116,8.055 L6.311,9.25 L9.006,9.25 L7.279,3.206 C7.214,2.98 7.26,2.736 7.401,2.548 C7.543,2.36 7.765,2.25 8,2.25 Z"/>
</svg>

