<svg xmlns="http://www.w3.org/2000/svg" viewBox="0 0 24 24">
  <defs/>
  <path fill="#151E28" d="M12,1.25 C17.937,1.25 22.75,6.063 22.75,12 C22.75,17.937 17.937,22.75 12,22.75 C6.063,22.75 1.25,17.937 1.25,12 C1.25,6.063 6.063,1.25 12,1.25 Z M10,13.891 C10,14.896 10,15.398 10.208,15.668 C10.39,15.903 10.666,16.045 10.963,16.056 C11.304,16.069 11.712,15.777 12.53,15.193 L12.53,15.193 L15.177,13.302 C15.792,12.863 16.099,12.643 16.208,12.371 C16.303,12.133 16.303,11.867 16.208,11.629 C16.099,11.357 15.792,11.137 15.177,10.698 L12.53,8.807 C11.712,8.223 11.304,7.931 10.963,7.944 C10.666,7.955 10.39,8.097 10.208,8.332 C10,8.602 10,9.104 10,10.109 Z"/>
</svg>

