<svg xmlns="http://www.w3.org/2000/svg" viewBox="0 0 24 24">
  <defs/>
  <path fill="#151E28" d="M8.871,3.954 L18.312,10.023 L18.34,10.041 C18.664,10.25 18.95,10.433 19.167,10.602 C19.389,10.776 19.628,10.999 19.763,11.319 C19.947,11.754 19.947,12.245 19.763,12.681 C19.628,13 19.389,13.224 19.167,13.398 C18.95,13.566 18.664,13.75 18.34,13.959 L18.34,13.959 L18.312,13.977 L8.871,20.046 L8.842,20.065 C8.465,20.307 8.14,20.516 7.867,20.658 C7.592,20.801 7.255,20.941 6.875,20.914 C6.369,20.878 5.903,20.623 5.599,20.217 C5.371,19.912 5.306,19.553 5.278,19.245 C5.25,18.938 5.25,18.551 5.25,18.104 L5.25,5.896 C5.25,5.448 5.25,5.061 5.278,4.755 C5.306,4.447 5.371,4.087 5.599,3.783 C5.903,3.376 6.369,3.122 6.875,3.086 C7.255,3.059 7.592,3.199 7.867,3.342 C8.14,3.484 8.465,3.693 8.842,3.935 Z"/>
</svg>

