<svg xmlns="http://www.w3.org/2000/svg" viewBox="0 0 24 24">
  <defs/>
  <path fill="#151E28" d="M3.25,9 C3.25,8.093 3.689,7.289 4.365,6.789 C4.29,6.539 4.25,6.274 4.25,6 C4.25,4.523 5.415,3.317 6.876,3.253 C7.38,2.641 8.144,2.25 9,2.25 C9.274,2.25 9.539,2.29 9.789,2.365 C10.289,1.689 11.093,1.25 12,1.25 C12.907,1.25 13.711,1.689 14.211,2.365 C14.461,2.29 14.726,2.25 15,2.25 C15.856,2.25 16.62,2.641 17.124,3.253 C18.585,3.317 19.75,4.523 19.75,6 C19.75,6.274 19.71,6.539 19.635,6.789 C20.311,7.289 20.75,8.093 20.75,9 C20.75,9.808 20.402,10.533 19.849,11.036 C20.115,11.627 20.195,12.312 20.022,13.005 L18.437,19.345 C18.303,19.881 18.211,20.248 18.065,20.567 C17.557,21.671 16.546,22.46 15.352,22.685 C15.007,22.75 14.628,22.75 14.077,22.75 L9.923,22.75 C9.372,22.75 8.993,22.75 8.648,22.685 C7.454,22.46 6.443,21.671 5.935,20.567 C5.789,20.248 5.697,19.881 5.563,19.345 L5.545,19.271 L3.978,13.005 C3.805,12.312 3.885,11.627 4.151,11.036 C3.598,10.533 3.25,9.808 3.25,9 Z M12,2.75 C11.456,2.75 10.991,3.098 10.82,3.586 C10.743,3.805 10.569,3.976 10.349,4.049 C10.129,4.122 9.887,4.09 9.695,3.961 C9.496,3.828 9.258,3.75 9,3.75 C8.534,3.75 8.127,4.005 7.911,4.386 C7.761,4.651 7.465,4.799 7.162,4.76 C7.109,4.754 7.055,4.75 7,4.75 C6.31,4.75 5.75,5.31 5.75,6 C5.75,6.258 5.828,6.496 5.961,6.695 C6.09,6.887 6.122,7.129 6.049,7.349 C5.976,7.569 5.805,7.743 5.586,7.82 C5.098,7.991 4.75,8.456 4.75,9 C4.75,9.332 4.879,9.633 5.091,9.858 C5.592,9.478 6.218,9.25 6.91,9.25 C7.899,9.25 8.785,9.728 9.338,10.473 C9.979,9.727 10.929,9.25 12,9.25 C13.071,9.25 14.021,9.727 14.662,10.473 C15.215,9.728 16.101,9.25 17.09,9.25 C17.782,9.25 18.408,9.478 18.91,9.858 C19.121,9.633 19.25,9.332 19.25,9 C19.25,8.456 18.902,7.991 18.414,7.82 C18.195,7.743 18.024,7.569 17.951,7.349 C17.878,7.129 17.91,6.887 18.039,6.695 C18.172,6.496 18.25,6.258 18.25,6 C18.25,5.31 17.69,4.75 17,4.75 C16.945,4.75 16.89,4.754 16.838,4.76 C16.535,4.799 16.239,4.651 16.089,4.386 C15.873,4.005 15.466,3.75 15,3.75 C14.742,3.75 14.504,3.828 14.305,3.961 C14.113,4.09 13.871,4.122 13.651,4.049 C13.431,3.976 13.257,3.805 13.18,3.586 C13.009,3.098 12.544,2.75 12,2.75 Z M15.414,14.062 C15.448,13.649 15.142,13.287 14.729,13.253 C14.316,13.218 13.954,13.525 13.919,13.938 L13.503,18.938 C13.468,19.351 13.775,19.713 14.188,19.747 C14.601,19.782 14.963,19.475 14.997,19.062 Z M9.271,13.253 C8.858,13.287 8.552,13.649 8.586,14.062 L9.003,19.062 C9.037,19.475 9.399,19.782 9.812,19.747 C10.225,19.713 10.532,19.351 10.497,18.938 L10.081,13.938 C10.046,13.525 9.684,13.218 9.271,13.253 Z"/>
</svg>

