<svg xmlns="http://www.w3.org/2000/svg" viewBox="0 0 24 24">
  <defs/>
  <path fill="#151E28" d="M13.117,2.479 C13.602,2.695 13.961,3.093 14.285,3.55 C14.606,4.004 14.961,4.617 15.399,5.375 L15.418,5.408 L20.868,14.821 L20.887,14.854 C21.327,15.614 21.684,16.229 21.918,16.736 C22.154,17.245 22.321,17.756 22.266,18.285 C22.185,19.061 21.779,19.766 21.148,20.224 C20.718,20.537 20.192,20.648 19.633,20.699 C19.077,20.75 18.366,20.75 17.488,20.75 L6.512,20.75 C5.634,20.75 4.923,20.75 4.367,20.699 C3.808,20.648 3.282,20.537 2.852,20.224 C2.221,19.766 1.815,19.061 1.734,18.285 C1.679,17.756 1.846,17.245 2.082,16.736 C2.316,16.229 2.673,15.614 3.113,14.854 L3.132,14.821 L8.582,5.408 L8.601,5.375 C9.039,4.618 9.394,4.004 9.715,3.55 C10.039,3.093 10.398,2.695 10.883,2.479 C11.594,2.163 12.406,2.163 13.117,2.479 Z M10.245,11.437 C9.934,11.163 9.461,11.194 9.187,11.505 C8.604,12.167 8.25,13.038 8.25,13.991 C8.25,16.065 9.927,17.75 12,17.75 C14.073,17.75 15.75,16.065 15.75,13.991 C15.75,13.038 15.396,12.167 14.813,11.505 C14.54,11.194 14.066,11.163 13.755,11.437 C13.444,11.71 13.413,12.184 13.687,12.495 C14.038,12.894 14.25,13.416 14.25,13.991 C14.25,15.241 13.24,16.25 12,16.25 C10.76,16.25 9.75,15.241 9.75,13.991 C9.75,13.416 9.962,12.894 10.313,12.495 C10.587,12.184 10.556,11.71 10.245,11.437 Z M12.75,11 C12.75,10.586 12.414,10.25 12,10.25 C11.586,10.25 11.25,10.586 11.25,11 L11.25,14 C11.25,14.414 11.586,14.75 12,14.75 C12.414,14.75 12.75,14.414 12.75,14 Z"/>
</svg>

