<svg xmlns="http://www.w3.org/2000/svg" viewBox="0 0 24 24">
  <defs/>
  <path fill="#151E28" d="M12,2.25 C17.385,2.25 21.75,6.615 21.75,12 C21.75,17.385 17.385,21.75 12,21.75 C6.615,21.75 2.25,17.385 2.25,12 C2.25,6.615 6.615,2.25 12,2.25 Z M9.496,8.792 C9.186,8.518 8.712,8.547 8.438,8.858 C7.699,9.695 7.25,10.796 7.25,12 C7.25,14.623 9.377,16.75 12,16.75 C14.623,16.75 16.75,14.623 16.75,12 C16.75,10.796 16.301,9.695 15.562,8.858 C15.288,8.547 14.814,8.518 14.504,8.792 C14.193,9.066 14.164,9.54 14.438,9.85 C14.944,10.424 15.25,11.175 15.25,12 C15.25,13.795 13.795,15.25 12,15.25 C10.205,15.25 8.75,13.795 8.75,12 C8.75,11.175 9.056,10.424 9.562,9.85 C9.836,9.54 9.807,9.066 9.496,8.792 Z M12.75,8 C12.75,7.586 12.414,7.25 12,7.25 C11.586,7.25 11.25,7.586 11.25,8 L11.25,12 C11.25,12.414 11.586,12.75 12,12.75 C12.414,12.75 12.75,12.414 12.75,12 Z"/>
</svg>

