<svg xmlns="http://www.w3.org/2000/svg" viewBox="0 0 24 24">
  <defs/>
  <path fill="#151E28" d="M9.367,2.25 L14.633,2.25 C15.725,2.25 16.591,2.25 17.288,2.307 C18.002,2.365 18.605,2.487 19.156,2.768 C20.05,3.223 20.777,3.95 21.232,4.844 C21.513,5.395 21.635,5.998 21.693,6.712 C21.75,7.409 21.75,8.275 21.75,9.367 L21.75,14.633 C21.75,15.725 21.75,16.591 21.693,17.288 C21.635,18.002 21.513,18.605 21.232,19.156 C20.777,20.05 20.05,20.777 19.156,21.232 C18.605,21.513 18.002,21.635 17.288,21.693 C16.591,21.75 15.725,21.75 14.633,21.75 L9.367,21.75 C8.275,21.75 7.409,21.75 6.712,21.693 C5.998,21.635 5.395,21.513 4.844,21.232 C3.95,20.777 3.223,20.05 2.768,19.156 C2.487,18.605 2.365,18.002 2.307,17.288 C2.25,16.591 2.25,15.725 2.25,14.633 L2.25,9.367 C2.25,8.275 2.25,7.409 2.307,6.712 C2.365,5.998 2.487,5.395 2.768,4.844 C3.223,3.95 3.95,3.223 4.844,2.768 C5.395,2.487 5.998,2.365 6.712,2.307 C7.409,2.25 8.275,2.25 9.367,2.25 Z M9.496,8.792 C9.186,8.518 8.712,8.547 8.438,8.858 C7.699,9.695 7.25,10.796 7.25,12 C7.25,14.623 9.377,16.75 12,16.75 C14.623,16.75 16.75,14.623 16.75,12 C16.75,10.796 16.301,9.695 15.562,8.858 C15.288,8.547 14.814,8.518 14.504,8.792 C14.193,9.066 14.164,9.54 14.438,9.85 C14.944,10.424 15.25,11.175 15.25,12 C15.25,13.795 13.795,15.25 12,15.25 C10.205,15.25 8.75,13.795 8.75,12 C8.75,11.175 9.056,10.424 9.562,9.85 C9.836,9.54 9.807,9.066 9.496,8.792 Z M12.75,8 C12.75,7.586 12.414,7.25 12,7.25 C11.586,7.25 11.25,7.586 11.25,8 L11.25,12 C11.25,12.414 11.586,12.75 12,12.75 C12.414,12.75 12.75,12.414 12.75,12 Z"/>
</svg>

