<svg xmlns="http://www.w3.org/2000/svg" viewBox="0 0 24 24">
  <defs/>
  <path fill="#151E28" d="M7.171,7.25 L16.8,7.25 L16.829,7.25 C16.986,7.25 17.107,7.25 17.216,7.258 C18.564,7.365 19.635,8.436 19.742,9.784 C19.75,9.891 19.75,10.011 19.75,10.165 L19.75,12 C19.75,16.027 16.678,19.337 12.75,19.714 L12.75,23 C12.75,23.414 12.414,23.75 12,23.75 C11.586,23.75 11.25,23.414 11.25,23 L11.25,19.714 C7.322,19.337 4.25,16.027 4.25,12 L4.25,10.171 C4.25,10.014 4.25,9.893 4.258,9.784 C4.365,8.436 5.436,7.365 6.784,7.258 C6.893,7.25 7.014,7.25 7.171,7.25 Z M9,1.25 C9.414,1.25 9.75,1.586 9.75,2 L9.75,5.5 C9.75,5.914 9.414,6.25 9,6.25 C8.586,6.25 8.25,5.914 8.25,5.5 L8.25,2 C8.25,1.586 8.586,1.25 9,1.25 Z M15.75,2 L15.75,5.5 C15.75,5.914 15.414,6.25 15,6.25 C14.586,6.25 14.25,5.914 14.25,5.5 L14.25,2 C14.25,1.586 14.586,1.25 15,1.25 C15.414,1.25 15.75,1.586 15.75,2 Z"/>
</svg>

