<svg xmlns="http://www.w3.org/2000/svg" viewBox="0 0 24 24">
  <defs/>
  <path fill="#151E28" d="M4,5.25 L20,5.25 C20.414,5.25 20.75,5.586 20.75,6 L20.75,10.232 C20.75,11.045 20.75,11.701 20.707,12.231 C20.662,12.778 20.568,13.258 20.341,13.703 C19.982,14.408 19.408,14.982 18.702,15.341 C18.258,15.568 17.778,15.662 17.232,15.707 C16.701,15.75 16.045,15.75 15.232,15.75 L12.75,15.75 L12.75,17.575 L17.386,20.357 C17.741,20.57 17.856,21.031 17.643,21.386 C17.43,21.741 16.969,21.856 16.614,21.643 L12,18.875 L7.386,21.643 C7.031,21.856 6.57,21.741 6.357,21.386 C6.144,21.031 6.259,20.57 6.614,20.357 L11.25,17.575 L11.25,15.75 L8.768,15.75 C7.955,15.75 7.299,15.75 6.769,15.707 C6.222,15.662 5.742,15.568 5.298,15.341 C4.592,14.982 4.018,14.408 3.659,13.703 C3.432,13.258 3.338,12.778 3.293,12.231 C3.25,11.701 3.25,11.045 3.25,10.232 L3.25,6 C3.25,5.586 3.586,5.25 4,5.25 Z M1.25,3 C1.25,2.586 1.586,2.25 2,2.25 L22,2.25 C22.414,2.25 22.75,2.586 22.75,3 C22.75,3.414 22.414,3.75 22,3.75 L2,3.75 C1.586,3.75 1.25,3.414 1.25,3 Z M8,7.25 C7.586,7.25 7.25,7.586 7.25,8 L7.25,12 C7.25,12.414 7.586,12.75 8,12.75 C8.414,12.75 8.75,12.414 8.75,12 L8.75,8 C8.75,7.586 8.414,7.25 8,7.25 Z M12.75,9 C12.75,8.586 12.414,8.25 12,8.25 C11.586,8.25 11.25,8.586 11.25,9 L11.25,12 C11.25,12.414 11.586,12.75 12,12.75 C12.414,12.75 12.75,12.414 12.75,12 Z M16,9.25 C15.586,9.25 15.25,9.586 15.25,10 L15.25,12 C15.25,12.414 15.586,12.75 16,12.75 C16.414,12.75 16.75,12.414 16.75,12 L16.75,10 C16.75,9.586 16.414,9.25 16,9.25 Z"/>
</svg>

