<svg xmlns="http://www.w3.org/2000/svg" viewBox="0 0 24 24">
  <defs/>
  <path fill="#151E28" d="M4,5.25 L20,5.25 C20.414,5.25 20.75,5.586 20.75,6 L20.75,10.232 C20.75,11.045 20.75,11.701 20.707,12.231 C20.662,12.778 20.568,13.258 20.341,13.703 C19.982,14.408 19.408,14.982 18.702,15.341 C18.258,15.568 17.778,15.662 17.232,15.707 C16.701,15.75 16.045,15.75 15.232,15.75 L12.75,15.75 L12.75,17.575 L17.386,20.357 C17.741,20.57 17.856,21.031 17.643,21.386 C17.43,21.741 16.969,21.856 16.614,21.643 L12,18.875 L7.386,21.643 C7.031,21.856 6.57,21.741 6.357,21.386 C6.144,21.031 6.259,20.57 6.614,20.357 L11.25,17.575 L11.25,15.75 L8.768,15.75 C7.955,15.75 7.299,15.75 6.769,15.707 C6.222,15.662 5.742,15.568 5.298,15.341 C4.592,14.982 4.018,14.408 3.659,13.703 C3.432,13.258 3.338,12.778 3.293,12.231 C3.25,11.701 3.25,11.045 3.25,10.232 L3.25,6 C3.25,5.586 3.586,5.25 4,5.25 Z M2,2.25 L22,2.25 C22.414,2.25 22.75,2.586 22.75,3 C22.75,3.414 22.414,3.75 22,3.75 L2,3.75 C1.586,3.75 1.25,3.414 1.25,3 C1.25,2.586 1.586,2.25 2,2.25 Z M16.624,8.584 C16.394,8.239 15.929,8.146 15.584,8.376 L13.096,10.035 L11.53,8.47 C11.278,8.217 10.881,8.178 10.584,8.376 L7.584,10.376 C7.239,10.606 7.146,11.071 7.376,11.416 C7.606,11.761 8.071,11.854 8.416,11.624 L10.904,9.965 L12.47,11.53 C12.722,11.783 13.119,11.822 13.416,11.624 L16.416,9.624 C16.761,9.394 16.854,8.929 16.624,8.584 Z"/>
</svg>

