<svg xmlns="http://www.w3.org/2000/svg" viewBox="0 0 24 24">
  <defs/>
  <path fill="#151E28" d="M2.53,1.47 L8.53,7.47 L18.53,17.47 L18.531,17.47 L22.53,21.47 C22.823,21.763 22.823,22.237 22.53,22.53 C22.237,22.823 21.763,22.823 21.47,22.53 L17.741,18.801 C17.736,18.934 17.73,19.059 17.72,19.175 C17.689,19.555 17.622,19.911 17.45,20.249 C17.187,20.766 16.766,21.187 16.249,21.45 C15.911,21.622 15.555,21.689 15.175,21.72 C14.81,21.75 14.365,21.75 13.83,21.75 L9.975,21.75 C9.53,21.75 9.159,21.75 8.855,21.729 C8.538,21.708 8.238,21.661 7.948,21.541 C7.274,21.262 6.738,20.726 6.459,20.052 C6.339,19.762 6.292,19.462 6.271,19.145 C6.262,19.024 6.258,18.893 6.255,18.75 L5,18.75 C3.481,18.75 2.25,17.519 2.25,16 L2.25,10 C2.25,8.481 3.481,7.25 5,7.25 L6.189,7.25 L1.47,2.53 C1.177,2.237 1.177,1.763 1.47,1.47 C1.763,1.177 2.237,1.177 2.53,1.47 Z M16.043,3.767 C15.796,3.75 15.476,3.75 15,3.75 L8,3.75 C7.586,3.75 7.25,3.414 7.25,3 C7.25,2.586 7.586,2.25 8,2.25 L15.025,2.25 C15.47,2.25 15.841,2.25 16.146,2.271 C16.463,2.292 16.762,2.339 17.052,2.459 C17.726,2.738 18.262,3.274 18.541,3.948 C18.661,4.238 18.708,4.538 18.729,4.855 C18.75,5.159 18.75,5.53 18.75,5.975 L18.75,7.25 L19,7.25 C20.519,7.25 21.75,8.481 21.75,10 L21.75,16 C21.75,16.5 21.616,16.97 21.382,17.375 C21.174,17.734 20.715,17.857 20.357,17.649 C19.998,17.442 19.876,16.983 20.083,16.625 C20.189,16.441 20.25,16.229 20.25,16 L20.25,10 C20.25,9.31 19.69,8.75 19,8.75 L12,8.75 C11.586,8.75 11.25,8.414 11.25,8 C11.25,7.586 11.586,7.25 12,7.25 L17.25,7.25 L17.25,6 C17.25,5.524 17.25,5.204 17.233,4.957 C17.216,4.716 17.187,4.599 17.155,4.522 C17.028,4.215 16.785,3.972 16.478,3.845 C16.401,3.813 16.284,3.784 16.043,3.767 Z M16.25,17.311 L14.67,15.731 C14.615,15.743 14.559,15.75 14.5,15.75 L10,15.75 C9.524,15.75 9.204,15.75 8.957,15.767 C8.716,15.784 8.599,15.813 8.522,15.845 C8.215,15.972 7.972,16.215 7.845,16.522 C7.813,16.599 7.784,16.716 7.767,16.957 C7.75,17.204 7.75,17.524 7.75,18 C7.75,18.476 7.75,18.796 7.767,19.043 C7.784,19.284 7.813,19.401 7.845,19.478 C7.972,19.785 8.215,20.028 8.522,20.155 C8.599,20.187 8.716,20.216 8.957,20.233 C9.204,20.25 9.524,20.25 10,20.25 L13.8,20.25 C14.372,20.25 14.757,20.249 15.052,20.225 C15.34,20.202 15.477,20.16 15.568,20.114 C15.803,19.994 15.994,19.803 16.114,19.567 C16.16,19.477 16.202,19.34 16.225,19.052 C16.249,18.757 16.25,18.372 16.25,17.8 Z"/>
</svg>

