<svg xmlns="http://www.w3.org/2000/svg" viewBox="0 0 24 24">
  <defs/>
  <path fill="#151E28" d="M17,2.25 L17.095,2.25 C17.933,2.25 18.467,2.25 18.927,2.341 C20.811,2.716 22.284,4.189 22.659,6.073 C22.75,6.533 22.75,7.066 22.75,7.904 L22.75,16.096 C22.75,16.934 22.75,17.467 22.659,17.927 C22.284,19.811 20.811,21.284 18.927,21.659 C18.467,21.75 17.934,21.75 17.096,21.75 L6.904,21.75 C6.066,21.75 5.533,21.75 5.073,21.659 C3.189,21.284 1.716,19.811 1.341,17.927 C1.25,17.467 1.25,16.933 1.25,16.095 L1.25,16 L1.25,8 L1.25,7.905 C1.25,7.067 1.25,6.533 1.341,6.073 C1.716,4.189 3.189,2.716 5.073,2.341 C5.533,2.25 6.067,2.25 6.905,2.25 L6.905,2.25 L7,2.25 Z M12.75,11.25 L12.75,12.75 C12.75,14.308 13.937,15.588 15.456,15.736 L17.012,17.069 C17.326,17.339 17.8,17.303 18.069,16.988 C18.339,16.674 18.303,16.2 17.988,15.931 L17.285,15.328 C18.162,14.804 18.75,13.846 18.75,12.75 L18.75,11.25 C18.75,9.593 17.407,8.25 15.75,8.25 C14.093,8.25 12.75,9.593 12.75,11.25 Z M7,8.25 C6.586,8.25 6.25,8.586 6.25,9 L6.25,15 C6.25,15.414 6.586,15.75 7,15.75 C7.414,15.75 7.75,15.414 7.75,15 L7.75,12.75 L10.25,12.75 L10.25,15 C10.25,15.414 10.586,15.75 11,15.75 C11.414,15.75 11.75,15.414 11.75,15 L11.75,9 C11.75,8.586 11.414,8.25 11,8.25 C10.586,8.25 10.25,8.586 10.25,9 L10.25,11.25 L7.75,11.25 L7.75,9 C7.75,8.586 7.414,8.25 7,8.25 Z M15.75,9.75 C16.578,9.75 17.25,10.422 17.25,11.25 L17.25,12.75 C17.25,13.578 16.578,14.25 15.75,14.25 C14.922,14.25 14.25,13.578 14.25,12.75 L14.25,11.25 C14.25,10.422 14.922,9.75 15.75,9.75 Z"/>
</svg>

