<svg xmlns="http://www.w3.org/2000/svg" viewBox="0 0 24 24">
  <defs/>
  <path fill="#151E28" d="M17,2.25 L17.095,2.25 C17.933,2.25 18.467,2.25 18.927,2.341 C20.811,2.716 22.284,4.189 22.659,6.073 C22.75,6.533 22.75,7.066 22.75,7.904 L22.75,16.096 C22.75,16.934 22.75,17.467 22.659,17.927 C22.284,19.811 20.811,21.284 18.927,21.659 C18.467,21.75 17.934,21.75 17.096,21.75 L6.904,21.75 C6.066,21.75 5.533,21.75 5.073,21.659 C3.189,21.284 1.716,19.811 1.341,17.927 C1.25,17.467 1.25,16.933 1.25,16.095 L1.25,16 L1.25,8 L1.25,7.905 C1.25,7.067 1.25,6.533 1.341,6.073 C1.716,4.189 3.189,2.716 5.073,2.341 C5.533,2.25 6.067,2.25 6.905,2.25 L6.905,2.25 L7,2.25 Z M13.25,9 L13.25,15 C13.25,15.414 13.586,15.75 14,15.75 C14.414,15.75 14.75,15.414 14.75,15 L14.75,13.811 L16.47,15.53 C16.763,15.823 17.237,15.823 17.53,15.53 C17.823,15.237 17.823,14.763 17.53,14.47 L15.061,12 L17.53,9.53 C17.823,9.237 17.823,8.763 17.53,8.47 C17.237,8.177 16.763,8.177 16.47,8.47 L14.75,10.189 L14.75,9 C14.75,8.586 14.414,8.25 14,8.25 C13.586,8.25 13.25,8.586 13.25,9 Z M7,8.25 C6.586,8.25 6.25,8.586 6.25,9 L6.25,9.025 C6.25,9.47 6.25,9.841 6.271,10.145 C6.292,10.462 6.339,10.762 6.459,11.052 C6.738,11.726 7.274,12.262 7.948,12.541 C8.238,12.661 8.538,12.708 8.855,12.729 C9.159,12.75 9.53,12.75 9.975,12.75 L10.25,12.75 L10.25,15 C10.25,15.414 10.586,15.75 11,15.75 C11.414,15.75 11.75,15.414 11.75,15 L11.75,9 C11.75,8.586 11.414,8.25 11,8.25 C10.586,8.25 10.25,8.586 10.25,9 L10.25,11.25 L10,11.25 C9.524,11.25 9.204,11.25 8.957,11.233 C8.716,11.216 8.599,11.187 8.522,11.155 C8.215,11.028 7.972,10.785 7.845,10.478 C7.813,10.401 7.784,10.284 7.767,10.043 C7.75,9.796 7.75,9.476 7.75,9 C7.75,8.586 7.414,8.25 7,8.25 Z"/>
</svg>

