<svg xmlns="http://www.w3.org/2000/svg" viewBox="0 0 24 24">
  <defs/>
  <path fill="#151E28" d="M12,2.25 C17.385,2.25 21.75,6.615 21.75,12 C21.75,17.385 17.385,21.75 12,21.75 C6.615,21.75 2.25,17.385 2.25,12 C2.25,6.615 6.615,2.25 12,2.25 Z M10.75,10 C10.75,9.31 11.31,8.75 12,8.75 C12.69,8.75 13.25,9.31 13.25,10 C13.25,10.357 13.101,10.638 12.8,10.937 C12.563,11.172 12.298,11.361 11.99,11.581 C11.852,11.679 11.706,11.783 11.55,11.9 C11.361,12.042 11.25,12.264 11.25,12.5 L11.25,13.5 C11.25,13.914 11.586,14.25 12,14.25 C12.414,14.25 12.75,13.914 12.75,13.5 L12.75,12.883 L12.762,12.874 L12.762,12.874 C13.106,12.629 13.527,12.329 13.856,12.002 C14.336,11.526 14.75,10.885 14.75,10 C14.75,8.481 13.519,7.25 12,7.25 C10.481,7.25 9.25,8.481 9.25,10 C9.25,10.414 9.586,10.75 10,10.75 C10.414,10.75 10.75,10.414 10.75,10 Z M13,16 C13,15.448 12.552,15 12,15 C11.448,15 11,15.448 11,16 C11,16.552 11.448,17 12,17 C12.552,17 13,16.552 13,16 Z"/>
</svg>

