<svg xmlns="http://www.w3.org/2000/svg" viewBox="0 0 24 24">
  <defs/>
  <path fill="#151E28" d="M9.325,2.25 L14.675,2.25 L14.747,2.25 C15.166,2.25 15.495,2.25 15.814,2.326 C16.094,2.393 16.362,2.504 16.608,2.655 C16.888,2.826 17.121,3.059 17.416,3.356 L17.468,3.407 L20.593,6.532 L20.644,6.584 C20.941,6.879 21.174,7.112 21.345,7.392 C21.496,7.638 21.607,7.906 21.674,8.186 C21.75,8.505 21.75,8.834 21.75,9.253 L21.75,14.747 C21.75,15.166 21.75,15.495 21.674,15.814 C21.607,16.094 21.496,16.362 21.345,16.608 C21.174,16.888 20.941,17.121 20.644,17.416 L17.468,20.593 L17.416,20.644 C17.121,20.941 16.888,21.174 16.608,21.345 C16.362,21.496 16.094,21.607 15.814,21.674 C15.495,21.75 15.166,21.75 14.747,21.75 L9.253,21.75 C8.834,21.75 8.505,21.75 8.186,21.674 C7.906,21.607 7.638,21.496 7.392,21.345 C7.112,21.174 6.879,20.941 6.584,20.644 L6.532,20.593 L3.407,17.468 L3.356,17.416 C3.059,17.121 2.826,16.888 2.655,16.608 C2.504,16.362 2.393,16.094 2.326,15.814 C2.25,15.495 2.25,15.166 2.25,14.747 L2.25,14.675 L2.25,9.325 L2.25,9.253 C2.25,8.834 2.25,8.505 2.326,8.186 C2.393,7.906 2.504,7.638 2.655,7.392 C2.826,7.112 3.059,6.879 3.356,6.584 L3.407,6.532 L6.532,3.407 L6.584,3.356 C6.879,3.059 7.112,2.826 7.392,2.655 C7.638,2.504 7.906,2.393 8.186,2.326 C8.505,2.25 8.834,2.25 9.253,2.25 Z M12,8.75 C12.69,8.75 13.25,9.31 13.25,10 C13.25,10.357 13.101,10.638 12.8,10.937 C12.563,11.172 12.298,11.361 11.99,11.581 C11.852,11.679 11.706,11.783 11.55,11.9 C11.361,12.042 11.25,12.264 11.25,12.5 L11.25,13.5 C11.25,13.914 11.586,14.25 12,14.25 C12.414,14.25 12.75,13.914 12.75,13.5 L12.75,12.883 L12.762,12.874 L12.762,12.874 C13.106,12.629 13.527,12.329 13.856,12.002 C14.336,11.526 14.75,10.885 14.75,10 C14.75,8.481 13.519,7.25 12,7.25 C10.481,7.25 9.25,8.481 9.25,10 C9.25,10.414 9.586,10.75 10,10.75 C10.414,10.75 10.75,10.414 10.75,10 C10.75,9.31 11.31,8.75 12,8.75 Z M12,17 C12.552,17 13,16.552 13,16 C13,15.448 12.552,15 12,15 C11.448,15 11,15.448 11,16 C11,16.552 11.448,17 12,17 Z"/>
</svg>

