<svg xmlns="http://www.w3.org/2000/svg" viewBox="0 0 24 24">
  <defs/>
  <path fill="#151E28" d="M9.367,2.25 L14.633,2.25 C15.725,2.25 16.591,2.25 17.288,2.307 C18.002,2.365 18.605,2.487 19.156,2.768 C20.05,3.223 20.777,3.95 21.232,4.844 C21.513,5.395 21.635,5.998 21.693,6.712 C21.75,7.409 21.75,8.275 21.75,9.367 L21.75,14.633 C21.75,15.725 21.75,16.591 21.693,17.288 C21.635,18.002 21.513,18.605 21.232,19.156 C20.777,20.05 20.05,20.777 19.156,21.232 C18.605,21.513 18.002,21.635 17.288,21.693 C16.591,21.75 15.725,21.75 14.633,21.75 L9.367,21.75 C8.275,21.75 7.409,21.75 6.712,21.693 C5.998,21.635 5.395,21.513 4.844,21.232 C3.95,20.777 3.223,20.05 2.768,19.156 C2.487,18.605 2.365,18.002 2.307,17.288 C2.25,16.591 2.25,15.725 2.25,14.633 L2.25,9.367 C2.25,8.275 2.25,7.409 2.307,6.712 C2.365,5.998 2.487,5.395 2.768,4.844 C3.223,3.95 3.95,3.223 4.844,2.768 C5.395,2.487 5.998,2.365 6.712,2.307 C7.409,2.25 8.275,2.25 9.367,2.25 Z M12,8.75 C12.69,8.75 13.25,9.31 13.25,10 C13.25,10.357 13.101,10.638 12.8,10.937 C12.563,11.172 12.298,11.361 11.99,11.581 C11.852,11.679 11.706,11.783 11.55,11.9 C11.361,12.042 11.25,12.264 11.25,12.5 L11.25,13.5 C11.25,13.914 11.586,14.25 12,14.25 C12.414,14.25 12.75,13.914 12.75,13.5 L12.75,12.883 L12.762,12.874 L12.762,12.874 C13.106,12.629 13.527,12.329 13.856,12.002 C14.336,11.526 14.75,10.885 14.75,10 C14.75,8.481 13.519,7.25 12,7.25 C10.481,7.25 9.25,8.481 9.25,10 C9.25,10.414 9.586,10.75 10,10.75 C10.414,10.75 10.75,10.414 10.75,10 C10.75,9.31 11.31,8.75 12,8.75 Z M12,17 C12.552,17 13,16.552 13,16 C13,15.448 12.552,15 12,15 C11.448,15 11,15.448 11,16 C11,16.552 11.448,17 12,17 Z"/>
</svg>

