<svg xmlns="http://www.w3.org/2000/svg" viewBox="0 0 24 24">
  <defs/>
  <path fill="#151E28" d="M8.75,4 C9.164,4 9.5,4.336 9.5,4.75 C9.5,5.164 9.164,5.5 8.75,5.5 C7.785,5.5 7.412,5.504 7.116,5.562 C5.827,5.819 4.819,6.827 4.562,8.116 C4.504,8.412 4.5,8.785 4.5,9.75 L4.5,12.75 C5.127,12.279 5.906,12 6.75,12 C8.821,12 10.5,13.679 10.5,15.75 C10.5,17.821 8.821,19.5 6.75,19.5 C4.679,19.5 3,17.821 3,15.75 L3,9.75 L3,9.655 L3,9.655 C3,8.817 3,8.283 3.091,7.823 C3.466,5.939 4.939,4.466 6.823,4.091 C7.283,4 7.817,4 8.655,4 Z M18.905,4.25 L19,4.25 C19.414,4.25 19.75,4.586 19.75,5 C19.75,5.414 19.414,5.75 19,5.75 C18.035,5.75 17.662,5.754 17.366,5.812 C16.077,6.069 15.069,7.077 14.812,8.366 C14.754,8.662 14.75,9.035 14.75,10 L14.75,13 C15.377,12.529 16.156,12.25 17,12.25 C19.071,12.25 20.75,13.929 20.75,16 C20.75,18.071 19.071,19.75 17,19.75 C14.929,19.75 13.25,18.071 13.25,16 L13.25,9.904 C13.25,9.066 13.25,8.533 13.341,8.073 C13.716,6.189 15.189,4.716 17.073,4.341 C17.533,4.25 18.067,4.25 18.905,4.25 Z"/>
</svg>

