<svg xmlns="http://www.w3.org/2000/svg" viewBox="0 0 24 24">
  <defs/>
  <path fill="#151E28" d="M3.75,5 L3.75,5.898 C3.978,5.819 4.222,5.776 4.477,5.776 C5.705,5.776 6.704,6.77 6.704,8 C6.704,9.23 5.705,10.224 4.477,10.224 C3.249,10.224 2.25,9.23 2.25,8 L2.25,5 C2.25,3.501 3.498,2.25 5,2.25 C5.414,2.25 5.75,2.586 5.75,3 C5.75,3.414 5.414,3.75 5,3.75 C4.327,3.75 3.75,4.328 3.75,5 Z M15.204,19 L15.204,18.103 C14.976,18.181 14.731,18.224 14.477,18.224 C13.249,18.224 12.25,17.23 12.25,16 C12.25,14.77 13.249,13.776 14.477,13.776 C15.705,13.776 16.704,14.77 16.704,16 L16.704,19 C16.704,20.499 15.456,21.75 13.954,21.75 C13.54,21.75 13.204,21.414 13.204,21 C13.204,20.586 13.54,20.25 13.954,20.25 C14.627,20.25 15.204,19.672 15.204,19 Z M20.204,19 L20.204,18.103 C19.976,18.181 19.731,18.224 19.477,18.224 C18.249,18.224 17.25,17.23 17.25,16 C17.25,14.77 18.249,13.776 19.477,13.776 C20.705,13.776 21.704,14.77 21.704,16 L21.704,19 C21.704,20.499 20.456,21.75 18.954,21.75 C18.54,21.75 18.204,21.414 18.204,21 C18.204,20.586 18.54,20.25 18.954,20.25 C19.627,20.25 20.204,19.672 20.204,19 Z M8.75,5 L8.75,5.898 C8.978,5.819 9.222,5.776 9.477,5.776 C10.705,5.776 11.704,6.77 11.704,8 C11.704,9.23 10.705,10.224 9.477,10.224 C8.249,10.224 7.25,9.23 7.25,8 L7.25,5 C7.25,3.501 8.498,2.25 10,2.25 C10.414,2.25 10.75,2.586 10.75,3 C10.75,3.414 10.414,3.75 10,3.75 C9.327,3.75 8.75,4.328 8.75,5 Z"/>
</svg>

