<svg xmlns="http://www.w3.org/2000/svg" viewBox="0 0 24 24">
  <defs/>
  <path fill="#151E28" d="M18,1.25 C18.414,1.25 18.75,1.586 18.75,2 C18.75,2.414 18.414,2.75 18,2.75 L9,2.75 C7.98,2.75 7.118,3.429 6.842,4.36 C7.59,4.25 8.509,4.25 9.86,4.25 L10,4.25 L14,4.25 L14.14,4.25 L14.141,4.25 C15.867,4.25 16.888,4.25 17.747,4.48 C20.076,5.104 21.896,6.924 22.52,9.253 C22.75,10.112 22.75,11.134 22.75,12.86 L22.75,13.141 C22.75,14.867 22.75,15.888 22.52,16.747 C21.896,19.076 20.076,20.896 17.747,21.52 C16.888,21.75 15.867,21.75 14.141,21.75 L14.14,21.75 L14,21.75 L10,21.75 L9.86,21.75 L9.859,21.75 C8.133,21.75 7.112,21.75 6.253,21.52 C3.924,20.896 2.104,19.076 1.48,16.747 C1.25,15.888 1.25,14.867 1.25,13.141 L1.25,13.141 L1.25,13 L1.25,12.86 L1.25,12.859 C1.25,11.133 1.25,10.112 1.48,9.253 C2.012,7.269 3.411,5.654 5.254,4.834 C5.341,2.84 6.985,1.25 9,1.25 Z M8,10.25 C6.481,10.25 5.25,11.481 5.25,13 C5.25,14.519 6.481,15.75 8,15.75 C9.519,15.75 10.75,14.519 10.75,13 C10.75,11.481 9.519,10.25 8,10.25 Z M18,15.75 C18.414,15.75 18.75,15.414 18.75,15 L18.75,11 C18.75,10.586 18.414,10.25 18,10.25 C17.586,10.25 17.25,10.586 17.25,11 L17.25,15 C17.25,15.414 17.586,15.75 18,15.75 Z M9.25,13 C9.25,13.69 8.69,14.25 8,14.25 C7.31,14.25 6.75,13.69 6.75,13 C6.75,12.31 7.31,11.75 8,11.75 C8.69,11.75 9.25,12.31 9.25,13 Z M14.75,14 L14.75,12 C14.75,11.586 14.414,11.25 14,11.25 C13.586,11.25 13.25,11.586 13.25,12 L13.25,14 C13.25,14.414 13.586,14.75 14,14.75 C14.414,14.75 14.75,14.414 14.75,14 Z"/>
</svg>

