<svg xmlns="http://www.w3.org/2000/svg" viewBox="0 0 24 24">
  <defs/>
  <path fill="#151E28" d="M7,6 L6.414,5.531 C6.557,5.354 6.772,5.25 7,5.25 C7.228,5.25 7.443,5.354 7.586,5.531 L7.003,5.997 C7.585,5.532 7.586,5.532 7.586,5.532 L7.586,5.532 L7.587,5.533 L7.588,5.535 L7.594,5.541 L7.613,5.566 C7.629,5.586 7.652,5.616 7.681,5.654 C7.739,5.73 7.821,5.838 7.919,5.973 C8.115,6.242 8.376,6.617 8.639,7.044 C8.9,7.469 9.171,7.958 9.379,8.451 C9.581,8.932 9.75,9.478 9.75,10 C9.75,10.93 9.431,11.659 8.855,12.139 C8.303,12.599 7.612,12.75 7,12.75 C6.389,12.75 5.697,12.599 5.145,12.139 C4.569,11.659 4.25,10.93 4.25,10 C4.25,9.478 4.419,8.932 4.621,8.451 C4.829,7.958 5.1,7.469 5.361,7.044 C5.624,6.617 5.886,6.242 6.081,5.973 C6.179,5.838 6.261,5.73 6.319,5.654 C6.348,5.616 6.371,5.586 6.388,5.566 L6.407,5.541 L6.412,5.535 L6.414,5.533 L6.414,5.532 L6.414,5.532 C6.414,5.532 6.414,5.531 7,6 Z M12.586,12.531 L12.006,12.995 C12.585,12.532 12.586,12.532 12.586,12.532 L12.586,12.532 L12.587,12.533 L12.588,12.535 L12.594,12.541 L12.613,12.566 C12.629,12.586 12.652,12.616 12.681,12.654 C12.739,12.73 12.821,12.838 12.919,12.973 C13.115,13.241 13.376,13.617 13.639,14.044 C13.9,14.469 14.171,14.958 14.379,15.451 C14.581,15.932 14.75,16.478 14.75,17 C14.75,17.93 14.431,18.659 13.855,19.139 C13.303,19.599 12.612,19.75 12,19.75 C11.389,19.75 10.697,19.599 10.145,19.139 C9.569,18.659 9.25,17.93 9.25,17 C9.25,16.478 9.419,15.932 9.621,15.451 C9.829,14.958 10.1,14.469 10.361,14.044 C10.624,13.617 10.886,13.241 11.081,12.973 C11.179,12.838 11.261,12.73 11.319,12.654 C11.348,12.616 11.371,12.586 11.387,12.566 L11.406,12.541 L11.412,12.535 L11.414,12.533 L11.414,12.532 L11.414,12.532 C11.414,12.532 11.415,12.531 12,13 L11.415,12.531 C11.557,12.354 11.772,12.25 12,12.25 C12.228,12.25 12.443,12.354 12.586,12.531 Z M16,4 C16.586,3.532 16.586,3.532 16.586,3.532 L16.586,3.532 L16.587,3.533 L16.588,3.535 L16.594,3.541 L16.613,3.566 C16.629,3.586 16.652,3.616 16.681,3.654 C16.739,3.73 16.821,3.838 16.919,3.973 C17.115,4.242 17.376,4.617 17.639,5.044 C17.9,5.469 18.171,5.958 18.379,6.451 C18.581,6.932 18.75,7.478 18.75,8 C18.75,8.93 18.431,9.659 17.855,10.139 C17.303,10.599 16.612,10.75 16,10.75 C15.389,10.75 14.697,10.599 14.145,10.139 C13.569,9.659 13.25,8.93 13.25,8 C13.25,7.478 13.419,6.932 13.621,6.451 C13.829,5.958 14.1,5.469 14.361,5.044 C14.624,4.617 14.886,4.242 15.081,3.973 C15.179,3.838 15.261,3.73 15.319,3.654 C15.348,3.616 15.371,3.586 15.387,3.566 L15.406,3.541 L15.412,3.535 L15.414,3.533 L15.414,3.532 L15.414,3.532 C15.414,3.532 15.415,3.532 15.998,3.998 L15.415,3.531 C15.557,3.354 15.772,3.25 16,3.25 C16.228,3.25 16.443,3.354 16.586,3.531 Z"/>
</svg>

