<svg xmlns="http://www.w3.org/2000/svg" viewBox="0 0 24 24">
  <defs/>
  <path fill="#151E28" d="M9.433,2.613 C9.807,2.534 10.193,2.534 10.567,2.613 C10.992,2.702 11.38,2.924 11.873,3.207 L11.96,3.256 L13,3.851 C13.31,4.028 13.69,4.028 14,3.851 C15.671,2.896 17.75,4.103 17.75,6.027 L17.75,19 C17.75,19.69 18.31,20.25 19,20.25 C19.69,20.25 20.25,19.69 20.25,19 L20.25,17.455 C20.25,16.599 20.032,16.222 19.852,16.047 C19.664,15.864 19.379,15.765 18.971,15.75 C18.557,15.733 18.234,15.385 18.251,14.971 C18.267,14.557 18.615,14.234 19.029,14.251 C19.621,14.274 20.336,14.425 20.898,14.971 C21.468,15.525 21.75,16.356 21.75,17.455 L21.75,19 C21.75,20.512 20.53,21.739 19.021,21.75 L19,21.75 L7.768,21.75 C6.955,21.75 6.299,21.75 5.769,21.707 C5.222,21.662 4.742,21.568 4.298,21.341 C3.592,20.982 3.018,20.408 2.659,19.703 C2.432,19.258 2.338,18.778 2.293,18.232 C2.25,17.701 2.25,17.045 2.25,16.232 L2.25,6.027 C2.25,4.103 4.329,2.896 6.001,3.851 C6.31,4.028 6.69,4.028 7,3.851 L8.04,3.256 L8.127,3.207 C8.62,2.924 9.008,2.702 9.433,2.613 Z M10,8.25 C9.586,8.25 9.25,8.586 9.25,9 C9.25,9.414 9.586,9.75 10,9.75 L13,9.75 C13.414,9.75 13.75,9.414 13.75,9 C13.75,8.586 13.414,8.25 13,8.25 Z M10,16.25 C9.586,16.25 9.25,16.586 9.25,17 C9.25,17.414 9.586,17.75 10,17.75 L13,17.75 C13.414,17.75 13.75,17.414 13.75,17 C13.75,16.586 13.414,16.25 13,16.25 Z M9.25,13 C9.25,13.414 9.586,13.75 10,13.75 L13,13.75 C13.414,13.75 13.75,13.414 13.75,13 C13.75,12.586 13.414,12.25 13,12.25 L10,12.25 C9.586,12.25 9.25,12.586 9.25,13 Z M8,13 C8,12.448 7.552,12 7,12 C6.448,12 6,12.448 6,13 C6,13.552 6.448,14 7,14 C7.552,14 8,13.552 8,13 Z M7,18 C7.552,18 8,17.552 8,17 C8,16.448 7.552,16 7,16 C6.448,16 6,16.448 6,17 C6,17.552 6.448,18 7,18 Z M8,9 C8,8.448 7.552,8 7,8 C6.448,8 6,8.448 6,9 C6,9.552 6.448,10 7,10 C7.552,10 8,9.552 8,9 Z"/>
</svg>

