<svg xmlns="http://www.w3.org/2000/svg" viewBox="0 0 24 24">
  <defs/>
  <path fill="#151E28" d="M13.117,2.479 C13.602,2.695 13.961,3.093 14.285,3.55 C14.606,4.004 14.961,4.617 15.399,5.375 L15.399,5.375 L15.418,5.408 L20.868,14.821 L20.887,14.854 C21.327,15.614 21.684,16.229 21.918,16.736 C22.154,17.245 22.321,17.756 22.266,18.285 C22.185,19.061 21.779,19.766 21.148,20.224 C20.718,20.537 20.192,20.648 19.633,20.699 C19.077,20.75 18.366,20.75 17.488,20.75 L6.512,20.75 C5.634,20.75 4.923,20.75 4.367,20.699 C3.808,20.648 3.282,20.537 2.852,20.224 C2.221,19.766 1.815,19.061 1.734,18.285 C1.679,17.756 1.846,17.245 2.082,16.736 C2.316,16.229 2.673,15.614 3.113,14.854 L3.132,14.821 L8.582,5.408 L8.601,5.375 C9.039,4.618 9.394,4.004 9.715,3.55 C10.039,3.093 10.398,2.695 10.883,2.479 C11.594,2.163 12.406,2.163 13.117,2.479 Z M8.743,16.104 L8.744,16.098 L8.748,16.072 C8.751,16.048 8.758,16.01 8.766,15.961 C8.784,15.863 8.812,15.72 8.853,15.547 C8.935,15.199 9.066,14.744 9.258,14.297 C9.677,13.325 10.22,12.75 10.889,12.75 C11.268,12.75 11.735,12.918 12.269,13.257 C12.792,13.591 13.314,14.049 13.785,14.527 C14.028,14.773 14.252,15.019 14.453,15.25 L13,15.25 C12.586,15.25 12.25,15.586 12.25,16 C12.25,16.414 12.586,16.75 13,16.75 L16,16.75 C16.414,16.75 16.75,16.414 16.75,16 L16.75,13 C16.75,12.586 16.414,12.25 16,12.25 C15.586,12.25 15.25,12.586 15.25,13 L15.25,13.891 C15.124,13.753 14.992,13.613 14.853,13.473 C14.339,12.951 13.728,12.409 13.075,11.993 C12.431,11.582 11.677,11.25 10.889,11.25 C9.224,11.25 8.323,12.675 7.881,13.703 C7.643,14.256 7.488,14.801 7.393,15.203 C7.346,15.405 7.312,15.574 7.29,15.695 C7.279,15.755 7.271,15.804 7.266,15.838 L7.26,15.878 L7.258,15.891 L7.257,15.894 L7.257,15.896 L7.257,15.896 C7.257,15.897 7.257,15.897 8,16 L7.257,15.897 C7.2,16.307 7.487,16.686 7.897,16.743 C8.307,16.8 8.685,16.514 8.743,16.104 Z"/>
</svg>

