<svg xmlns="http://www.w3.org/2000/svg" viewBox="0 0 24 24">
  <defs/>
  <path fill="#151E28" d="M9.325,2.25 L14.675,2.25 L14.747,2.25 C15.166,2.25 15.495,2.25 15.814,2.326 C16.094,2.393 16.362,2.504 16.608,2.655 C16.888,2.826 17.121,3.059 17.416,3.356 L17.468,3.407 L20.593,6.532 L20.644,6.584 C20.941,6.879 21.174,7.112 21.345,7.392 C21.496,7.638 21.607,7.906 21.674,8.186 C21.75,8.505 21.75,8.834 21.75,9.253 L21.75,14.747 C21.75,15.166 21.75,15.495 21.674,15.814 C21.607,16.094 21.496,16.362 21.345,16.608 C21.174,16.888 20.941,17.121 20.644,17.416 L17.468,20.593 L17.416,20.644 C17.121,20.941 16.888,21.174 16.608,21.345 C16.362,21.496 16.094,21.607 15.814,21.674 C15.495,21.75 15.166,21.75 14.747,21.75 L9.253,21.75 C8.834,21.75 8.505,21.75 8.186,21.674 C7.906,21.607 7.638,21.496 7.392,21.345 C7.112,21.174 6.879,20.941 6.584,20.644 L6.532,20.593 L3.407,17.468 L3.356,17.416 C3.059,17.121 2.826,16.888 2.655,16.608 C2.504,16.362 2.393,16.094 2.326,15.814 C2.25,15.495 2.25,15.166 2.25,14.747 L2.25,14.675 L2.25,9.325 L2.25,9.253 C2.25,8.834 2.25,8.505 2.326,8.186 C2.393,7.906 2.504,7.638 2.655,7.392 C2.826,7.112 3.059,6.879 3.356,6.584 L3.407,6.532 L6.532,3.407 L6.584,3.356 C6.879,3.059 7.112,2.826 7.392,2.655 C7.638,2.504 7.906,2.393 8.186,2.326 C8.505,2.25 8.834,2.25 9.253,2.25 Z M8.743,14.104 L8.744,14.099 L8.748,14.072 C8.751,14.048 8.758,14.01 8.766,13.961 C8.784,13.863 8.812,13.72 8.853,13.547 C8.935,13.199 9.066,12.744 9.258,12.297 C9.677,11.325 10.22,10.75 10.889,10.75 C11.268,10.75 11.735,10.918 12.269,11.257 C12.792,11.591 13.314,12.049 13.785,12.527 C14.028,12.773 14.253,13.019 14.453,13.25 L13,13.25 C12.586,13.25 12.25,13.586 12.25,14 C12.25,14.414 12.586,14.75 13,14.75 L16,14.75 C16.414,14.75 16.75,14.414 16.75,14 L16.75,11 C16.75,10.586 16.414,10.25 16,10.25 C15.586,10.25 15.25,10.586 15.25,11 L15.25,11.891 C15.124,11.753 14.992,11.613 14.854,11.473 C14.339,10.951 13.728,10.409 13.075,9.992 C12.431,9.582 11.677,9.25 10.889,9.25 C9.224,9.25 8.323,10.675 7.881,11.703 C7.643,12.256 7.488,12.801 7.393,13.203 C7.346,13.405 7.312,13.574 7.29,13.695 C7.279,13.755 7.271,13.804 7.266,13.838 L7.26,13.878 L7.258,13.891 L7.257,13.894 L7.257,13.896 L7.257,13.896 C7.257,13.897 7.258,13.897 7.999,14 L7.257,13.897 C7.2,14.307 7.487,14.686 7.897,14.743 C8.307,14.8 8.685,14.514 8.743,14.104 Z"/>
</svg>

