<svg xmlns="http://www.w3.org/2000/svg" viewBox="0 0 24 24">
  <defs/>
  <path fill="#151E28" d="M9.367,2.25 L14.633,2.25 C15.725,2.25 16.591,2.25 17.288,2.307 C18.002,2.365 18.605,2.487 19.156,2.768 C20.05,3.223 20.777,3.95 21.232,4.844 C21.513,5.395 21.635,5.998 21.693,6.712 C21.75,7.409 21.75,8.275 21.75,9.367 L21.75,14.633 C21.75,15.725 21.75,16.591 21.693,17.288 C21.635,18.002 21.513,18.605 21.232,19.156 C20.777,20.05 20.05,20.777 19.156,21.232 C18.605,21.513 18.002,21.635 17.288,21.693 C16.591,21.75 15.725,21.75 14.633,21.75 L9.367,21.75 C8.275,21.75 7.409,21.75 6.712,21.693 C5.998,21.635 5.395,21.513 4.844,21.232 C3.95,20.777 3.223,20.05 2.768,19.156 C2.487,18.605 2.365,18.002 2.307,17.288 C2.25,16.591 2.25,15.725 2.25,14.633 L2.25,9.367 C2.25,8.275 2.25,7.409 2.307,6.712 C2.365,5.998 2.487,5.395 2.768,4.844 C3.223,3.95 3.95,3.223 4.844,2.768 C5.395,2.487 5.998,2.365 6.712,2.307 C7.409,2.25 8.275,2.25 9.367,2.25 Z M8.743,14.104 L8.744,14.099 L8.748,14.072 C8.751,14.048 8.758,14.01 8.766,13.961 C8.784,13.863 8.812,13.72 8.853,13.547 C8.935,13.199 9.066,12.744 9.258,12.297 C9.677,11.325 10.22,10.75 10.889,10.75 C11.268,10.75 11.735,10.918 12.269,11.257 C12.792,11.591 13.314,12.049 13.785,12.527 C14.028,12.773 14.253,13.019 14.453,13.25 L13,13.25 C12.586,13.25 12.25,13.586 12.25,14 C12.25,14.414 12.586,14.75 13,14.75 L16,14.75 C16.414,14.75 16.75,14.414 16.75,14 L16.75,11 C16.75,10.586 16.414,10.25 16,10.25 C15.586,10.25 15.25,10.586 15.25,11 L15.25,11.891 C15.124,11.753 14.992,11.613 14.854,11.473 C14.339,10.951 13.728,10.409 13.075,9.992 C12.431,9.582 11.677,9.25 10.889,9.25 C9.224,9.25 8.323,10.675 7.881,11.703 C7.643,12.256 7.488,12.801 7.393,13.203 C7.346,13.405 7.312,13.574 7.29,13.695 C7.279,13.755 7.271,13.804 7.266,13.838 L7.26,13.878 L7.258,13.891 L7.257,13.894 L7.257,13.896 L7.257,13.896 C7.257,13.897 7.258,13.897 7.999,14 L7.257,13.897 C7.2,14.307 7.487,14.686 7.897,14.743 C8.307,14.8 8.685,14.514 8.743,14.104 Z"/>
</svg>

