<svg xmlns="http://www.w3.org/2000/svg" viewBox="0 0 24 24">
  <defs/>
  <path fill="#151E28" d="M11.106,4.395 C11.381,4.246 11.721,4.099 12.105,4.122 C12.616,4.152 13.087,4.405 13.396,4.813 C13.628,5.12 13.693,5.484 13.722,5.795 C13.75,6.106 13.75,6.499 13.75,6.955 L13.75,17.045 C13.75,17.501 13.75,17.894 13.722,18.205 C13.693,18.516 13.628,18.88 13.396,19.187 C13.087,19.595 12.616,19.848 12.105,19.878 C11.721,19.901 11.381,19.753 11.106,19.605 C10.832,19.456 10.505,19.238 10.126,18.985 L10.097,18.966 L2.581,13.955 L2.554,13.937 L2.554,13.937 C2.243,13.73 1.969,13.547 1.76,13.379 C1.545,13.205 1.316,12.984 1.186,12.67 C1.008,12.241 1.008,11.759 1.186,11.33 C1.316,11.016 1.545,10.794 1.76,10.621 C1.969,10.453 2.243,10.27 2.554,10.063 L2.554,10.062 L2.554,10.062 L2.581,10.045 L10.097,5.034 L10.126,5.015 C10.505,4.762 10.832,4.544 11.106,4.395 Z M20.107,4.395 C20.381,4.246 20.721,4.099 21.105,4.122 C21.615,4.152 22.087,4.405 22.396,4.813 C22.628,5.12 22.694,5.484 22.722,5.795 C22.75,6.106 22.75,6.499 22.75,6.955 L22.75,17.045 C22.75,17.501 22.75,17.894 22.722,18.205 C22.694,18.516 22.628,18.88 22.396,19.187 C22.087,19.595 21.615,19.848 21.105,19.878 C20.721,19.901 20.381,19.753 20.107,19.605 C19.832,19.456 19.505,19.238 19.126,18.985 L19.097,18.966 L19.08,18.954 L15.067,16.112 C14.868,15.971 14.75,15.743 14.75,15.5 L14.75,8.5 C14.75,8.257 14.868,8.028 15.067,7.888 L19.08,5.046 L19.097,5.034 L19.126,5.015 C19.505,4.762 19.832,4.544 20.107,4.395 Z"/>
</svg>

