<svg xmlns="http://www.w3.org/2000/svg" viewBox="0 0 24 24">
  <defs/>
  <path fill="#151E28" d="M10.287,6.08 C14.176,2.191 18.123,2.386 19.956,2.78 L19.97,2.783 C20.055,2.801 20.171,2.826 20.296,2.872 C20.436,2.923 20.562,2.99 20.7,3.075 C20.843,3.164 20.994,3.305 21.094,3.405 C21.194,3.505 21.335,3.656 21.424,3.799 C21.509,3.937 21.576,4.063 21.627,4.203 C21.673,4.327 21.698,4.444 21.716,4.529 L21.716,4.529 L21.719,4.543 C22.113,6.376 22.308,10.323 18.419,14.212 C18.037,14.594 17.667,14.947 17.309,15.274 C18.02,17.969 17.016,20.884 14.718,22.525 L13.374,23.485 C13.181,23.623 12.933,23.661 12.707,23.588 C12.48,23.514 12.302,23.337 12.227,23.111 L10.813,18.869 C10.802,18.838 10.794,18.806 10.788,18.774 C9.534,18.629 8.356,17.938 7.458,17.041 C6.56,16.143 5.87,14.965 5.725,13.711 C5.693,13.705 5.661,13.697 5.63,13.686 L1.388,12.272 C1.162,12.197 0.985,12.019 0.912,11.793 C0.838,11.566 0.876,11.318 1.014,11.125 L1.974,9.781 C3.615,7.484 6.53,6.479 9.225,7.19 C9.552,6.832 9.905,6.462 10.287,6.08 Z M16.474,10.854 C17.255,10.072 17.255,8.806 16.474,8.025 C15.693,7.244 14.427,7.244 13.646,8.025 C12.864,8.806 12.864,10.072 13.646,10.854 C14.427,11.634 15.693,11.634 16.474,10.854 Z M13.846,21.304 C15.416,20.183 16.216,18.282 16,16.403 C15.047,17.174 14.199,17.745 13.462,18.169 L12.411,18.92 L13.329,21.674 Z M3.195,10.653 L2.825,11.17 L5.579,12.088 L6.329,11.038 C6.753,10.301 7.325,9.453 8.095,8.499 C6.217,8.284 4.316,9.083 3.195,10.653 Z"/>
</svg>

