<svg xmlns="http://www.w3.org/2000/svg" viewBox="0 0 24 24">
  <defs/>
  <path fill="#151E28" d="M6.25,11 C6.25,5.5 9.178,2.847 10.753,1.829 L10.766,1.821 C10.839,1.774 10.938,1.709 11.059,1.653 C11.193,1.591 11.33,1.548 11.488,1.512 C11.652,1.473 11.858,1.466 12,1.466 C12.141,1.466 12.348,1.473 12.512,1.512 C12.669,1.548 12.806,1.591 12.941,1.653 C13.061,1.709 13.161,1.774 13.234,1.821 L13.246,1.829 C14.821,2.847 17.75,5.5 17.75,11 C17.75,11.539 17.738,12.051 17.716,12.535 C20.125,13.938 21.475,16.709 21.011,19.494 L20.74,21.123 C20.701,21.358 20.552,21.56 20.34,21.668 C20.128,21.776 19.877,21.777 19.664,21.671 L15.665,19.671 C15.635,19.656 15.607,19.64 15.58,19.622 C14.59,20.405 13.269,20.75 12,20.75 C10.73,20.75 9.409,20.405 8.42,19.622 C8.393,19.64 8.365,19.656 8.336,19.671 L4.336,21.671 C4.123,21.777 3.872,21.776 3.66,21.668 C3.448,21.56 3.299,21.358 3.26,21.123 L2.989,19.494 C2.525,16.709 3.875,13.938 6.283,12.535 C6.261,12.051 6.25,11.539 6.25,11 Z M14,10 C14,8.895 13.104,8 12,8 C10.895,8 10,8.895 10,10 C10,11.104 10.895,12 12,12 C13.104,12 14,11.104 14,10 Z M19.532,19.248 C19.849,17.345 19.07,15.435 17.589,14.26 C17.46,15.478 17.264,16.482 17.043,17.302 L16.831,18.577 L19.427,19.875 Z M4.468,19.248 L4.573,19.875 L7.169,18.577 L6.957,17.306 C6.736,16.485 6.54,15.48 6.411,14.26 C4.93,15.435 4.151,17.345 4.468,19.248 Z"/>
</svg>

