<svg xmlns="http://www.w3.org/2000/svg" viewBox="0 0 24 24">
  <defs/>
  <path fill="#151E28" d="M18.307,3.104 L20.874,5.671 L20.896,5.693 C21.273,6.07 21.589,6.386 21.825,6.664 C22.072,6.955 22.277,7.254 22.394,7.614 C22.573,8.167 22.573,8.762 22.394,9.314 C22.277,9.674 22.072,9.974 21.825,10.264 C21.589,10.543 21.273,10.858 20.896,11.236 L20.874,11.257 L20.839,11.293 L20.309,10.762 L19.778,10.232 L17.48,7.934 C17.187,7.641 16.712,7.641 16.419,7.934 C16.126,8.227 16.126,8.702 16.419,8.995 L18.718,11.293 L19.248,11.823 L19.778,12.353 L18.01,14.121 L17.48,13.591 L16.95,13.06 L16.066,12.177 C15.773,11.884 15.298,11.884 15.005,12.177 C14.712,12.469 14.712,12.944 15.005,13.237 L15.889,14.121 L16.419,14.651 L16.95,15.182 L15.182,16.949 L14.652,16.419 L14.121,15.889 L11.823,13.591 C11.53,13.298 11.055,13.298 10.763,13.591 C10.47,13.884 10.47,14.358 10.763,14.651 L13.061,16.949 L13.591,17.48 L14.121,18.01 L12.354,19.778 L11.823,19.248 L10.409,17.833 C10.116,17.541 9.641,17.541 9.348,17.833 C9.055,18.126 9.055,18.601 9.348,18.894 L10.232,19.778 L10.763,20.308 L11.293,20.839 L11.236,20.896 C10.858,21.273 10.543,21.588 10.264,21.825 C9.974,22.072 9.674,22.276 9.314,22.393 C8.762,22.573 8.167,22.573 7.615,22.393 C7.255,22.276 6.955,22.072 6.664,21.825 C6.386,21.588 6.071,21.273 5.693,20.896 L5.671,20.874 L3.126,18.328 L3.104,18.307 C2.727,17.929 2.411,17.614 2.175,17.335 C1.928,17.045 1.723,16.745 1.606,16.385 C1.427,15.833 1.427,15.238 1.606,14.686 C1.723,14.325 1.928,14.026 2.175,13.735 C2.411,13.457 2.727,13.142 3.104,12.764 L3.126,12.742 L12.742,3.126 L12.764,3.104 C13.142,2.726 13.457,2.411 13.736,2.175 C14.026,1.928 14.326,1.723 14.686,1.606 C15.238,1.427 15.833,1.427 16.385,1.606 C16.745,1.723 17.045,1.928 17.336,2.175 C17.614,2.411 17.929,2.726 18.307,3.104 Z"/>
</svg>

