<svg xmlns="http://www.w3.org/2000/svg" viewBox="0 0 24 24">
  <defs/>
  <path fill="#151E28" d="M10.2,1.25 L13.83,1.25 C14.365,1.25 14.81,1.25 15.175,1.28 C15.555,1.311 15.911,1.378 16.249,1.55 C16.766,1.813 17.187,2.234 17.45,2.752 C17.622,3.089 17.689,3.445 17.72,3.825 C17.75,4.19 17.75,4.635 17.75,5.17 L17.75,5.25 L13,5.25 C12.586,5.25 12.25,5.586 12.25,6 C12.25,6.414 12.586,6.75 13,6.75 L17.75,6.75 L17.75,9.25 L15,9.25 C14.586,9.25 14.25,9.586 14.25,10 C14.25,10.414 14.586,10.75 15,10.75 L17.75,10.75 L17.75,13.25 L13,13.25 C12.586,13.25 12.25,13.586 12.25,14 C12.25,14.414 12.586,14.75 13,14.75 L17.75,14.75 L17.75,17.25 L15,17.25 C14.586,17.25 14.25,17.586 14.25,18 C14.25,18.414 14.586,18.75 15,18.75 L17.75,18.75 L17.75,18.83 C17.75,19.365 17.75,19.81 17.72,20.175 C17.689,20.555 17.622,20.911 17.45,21.249 C17.187,21.766 16.766,22.187 16.249,22.45 C15.911,22.622 15.555,22.689 15.175,22.72 C14.81,22.75 14.365,22.75 13.83,22.75 L10.17,22.75 C9.635,22.75 9.19,22.75 8.825,22.72 C8.445,22.689 8.089,22.622 7.752,22.45 C7.234,22.187 6.813,21.766 6.55,21.249 C6.378,20.911 6.311,20.555 6.28,20.175 C6.25,19.81 6.25,19.365 6.25,18.83 L6.25,5.169 C6.25,4.635 6.25,4.19 6.28,3.825 C6.311,3.445 6.378,3.089 6.55,2.752 C6.813,2.234 7.234,1.813 7.752,1.55 C8.089,1.378 8.445,1.311 8.825,1.28 C9.19,1.25 9.635,1.25 10.17,1.25 L10.2,1.25 Z"/>
</svg>

