<svg xmlns="http://www.w3.org/2000/svg" viewBox="0 0 24 24">
  <defs/>
  <path fill="#151E28" d="M17.229,2.412 C18.869,2.851 20.149,4.131 20.588,5.771 C20.75,6.376 20.75,7.088 20.75,8.205 L20.75,14.633 C20.75,15.725 20.75,16.591 20.693,17.288 C20.635,18.002 20.513,18.605 20.232,19.156 C19.777,20.05 19.05,20.777 18.156,21.232 C17.605,21.513 17.002,21.635 16.288,21.693 C15.591,21.75 14.725,21.75 13.633,21.75 L9.973,21.75 C9.064,21.75 8.344,21.75 7.76,21.71 C7.164,21.67 6.656,21.585 6.182,21.388 C5.018,20.906 4.094,19.982 3.612,18.818 C3.415,18.344 3.33,17.836 3.29,17.24 C3.25,16.656 3.25,15.936 3.25,15.028 L3.25,13.667 L3.25,13.519 L3.25,13.518 C3.25,11.179 3.25,9.849 3.548,8.735 C4.357,5.716 6.716,3.357 9.735,2.548 C10.849,2.25 12.179,2.25 14.518,2.25 L14.519,2.25 L14.667,2.25 L14.794,2.25 C15.912,2.25 16.624,2.25 17.229,2.412 Z M12.75,7 C12.75,6.586 12.414,6.25 12,6.25 C11.586,6.25 11.25,6.586 11.25,7 L11.25,11 C11.25,11.414 11.586,11.75 12,11.75 C12.414,11.75 12.75,11.414 12.75,11 Z M15,6.25 C14.586,6.25 14.25,6.586 14.25,7 L14.25,11 C14.25,11.414 14.586,11.75 15,11.75 C15.414,11.75 15.75,11.414 15.75,11 L15.75,7 C15.75,6.586 15.414,6.25 15,6.25 Z M9,8.75 C8.586,8.75 8.25,9.086 8.25,9.5 L8.25,11 C8.25,11.414 8.586,11.75 9,11.75 C9.414,11.75 9.75,11.414 9.75,11 L9.75,9.5 C9.75,9.086 9.414,8.75 9,8.75 Z"/>
</svg>

