<svg xmlns="http://www.w3.org/2000/svg" viewBox="0 0 24 24">
  <defs/>
  <path fill="#151E28" d="M3.304,11.669 C2.506,10.337 3.111,8.653 4.574,8.133 C5.302,7.874 6.185,7.61 7.064,7.47 C7.927,7.333 8.875,7.301 9.683,7.591 C9.78,7.626 9.875,7.663 9.968,7.701 C11.494,8.338 11.747,10.039 11.549,11.257 L11.543,11.297 C11.565,11.306 11.588,11.316 11.61,11.327 C11.93,11.483 12.252,11.691 12.53,11.97 C12.921,12.36 13.151,12.921 13.303,13.496 C13.46,14.088 13.558,14.793 13.622,15.563 C13.75,17.094 13.75,18.994 13.75,20.974 L13.75,21 C13.75,21.414 13.414,21.75 13,21.75 C12.586,21.75 12.25,21.414 12.25,21 C12.25,18.989 12.249,17.149 12.128,15.687 C12.067,14.957 11.978,14.35 11.853,13.88 C11.724,13.392 11.579,13.14 11.47,13.03 C11.415,12.976 11.354,12.924 11.287,12.875 L11.274,12.954 C11.19,13.47 11.02,14.041 10.707,14.526 C10.387,15.021 9.895,15.459 9.19,15.588 C8.486,15.718 7.718,15.631 6.901,15.338 C6.093,15.047 5.382,14.42 4.804,13.765 C4.214,13.098 3.701,12.332 3.304,11.669 Z M18.97,4.372 C20.515,4.218 21.78,5.484 21.627,7.029 C21.55,7.798 21.413,8.71 21.164,9.565 C20.92,10.404 20.545,11.275 19.938,11.882 C19.323,12.497 18.665,12.903 17.973,13.086 C17.281,13.269 16.648,13.084 16.148,12.772 C15.658,12.467 15.26,12.023 14.965,11.592 L13.991,10.173 C13.293,9.156 12.796,7.51 13.905,6.283 C13.972,6.208 14.043,6.134 14.116,6.061 C14.723,5.454 15.595,5.078 16.434,4.834 C17.289,4.586 18.201,4.449 18.97,4.372 Z M6.72,10.25 C6.306,10.25 5.97,10.586 5.97,11 C5.97,11.414 6.305,11.75 6.719,11.75 L6.72,11.75 L6.725,11.75 L6.756,11.751 C6.785,11.752 6.831,11.753 6.889,11.757 C7.007,11.764 7.175,11.778 7.373,11.805 C7.776,11.862 8.26,11.972 8.67,12.174 C9.042,12.356 9.491,12.202 9.673,11.83 C9.856,11.459 9.702,11.009 9.33,10.827 C8.721,10.528 8.064,10.388 7.582,10.32 C7.337,10.285 7.127,10.268 6.976,10.259 C6.901,10.255 6.84,10.253 6.796,10.252 C6.774,10.251 6.757,10.251 6.744,10.25 L6.728,10.25 L6.723,10.25 L6.72,10.25 C6.72,10.25 6.72,10.251 6.72,10.998 Z M18.652,7.63 C18.448,7.27 17.99,7.144 17.63,7.348 L17.998,7.996 C17.633,7.353 17.63,7.348 17.629,7.348 L17.629,7.349 L17.628,7.349 L17.626,7.35 L17.621,7.353 L17.607,7.361 C17.596,7.368 17.581,7.377 17.562,7.388 C17.526,7.411 17.476,7.443 17.415,7.484 C17.295,7.566 17.132,7.684 16.951,7.839 C16.594,8.143 16.14,8.611 15.829,9.233 C15.644,9.604 15.794,10.054 16.165,10.239 C16.535,10.425 16.986,10.274 17.171,9.904 C17.36,9.525 17.656,9.209 17.925,8.98 C18.056,8.867 18.174,8.782 18.257,8.725 C18.298,8.697 18.33,8.677 18.35,8.665 L18.371,8.652 L18.372,8.652 L18.373,8.651 L18.373,8.651 C18.731,8.446 18.856,7.989 18.652,7.63 Z"/>
</svg>

