<svg xmlns="http://www.w3.org/2000/svg" viewBox="0 0 24 24">
  <defs/>
  <path fill="#151E28" d="M4.5,15.5 L19.5,15.5 C19.965,15.5 20.197,15.5 20.39,15.538 C21.184,15.696 21.804,16.316 21.962,17.11 C22,17.303 22,17.535 22,18 C22,18.465 22,18.697 21.962,18.89 C21.804,19.684 21.184,20.304 20.39,20.462 C20.197,20.5 19.965,20.5 19.5,20.5 L4.5,20.5 C4.035,20.5 3.803,20.5 3.61,20.462 C2.816,20.304 2.196,19.684 2.038,18.89 C2,18.697 2,18.465 2,18 C2,17.535 2,17.303 2.038,17.11 C2.196,16.316 2.816,15.696 3.61,15.538 C3.803,15.5 4.035,15.5 4.5,15.5 Z M19.5,9.5 C19.965,9.5 20.197,9.5 20.39,9.538 C21.184,9.696 21.804,10.316 21.962,11.11 C22,11.303 22,11.535 22,12 C22,12.465 22,12.697 21.962,12.89 C21.804,13.684 21.184,14.304 20.39,14.462 C20.197,14.5 19.965,14.5 19.5,14.5 L4.5,14.5 C4.035,14.5 3.803,14.5 3.61,14.462 C2.816,14.304 2.196,13.684 2.038,12.89 C2,12.697 2,12.465 2,12 C2,11.535 2,11.303 2.038,11.11 C2.196,10.316 2.816,9.696 3.61,9.538 C3.803,9.5 4.035,9.5 4.5,9.5 Z M4.5,3.5 L19.5,3.5 C19.965,3.5 20.197,3.5 20.39,3.538 C21.184,3.696 21.804,4.316 21.962,5.11 C22,5.303 22,5.535 22,6 C22,6.465 22,6.697 21.962,6.89 C21.804,7.684 21.184,8.304 20.39,8.462 C20.197,8.5 19.965,8.5 19.5,8.5 L4.5,8.5 C4.035,8.5 3.803,8.5 3.61,8.462 C2.816,8.304 2.196,7.684 2.038,6.89 C2,6.697 2,6.465 2,6 C2,5.535 2,5.303 2.038,5.11 C2.196,4.316 2.816,3.696 3.61,3.538 C3.803,3.5 4.035,3.5 4.5,3.5 Z M18,12 C18,11.448 17.552,11 17,11 C16.448,11 16,11.448 16,12 C16,12.552 16.448,13 17,13 C17.552,13 18,12.552 18,12 Z M17,19 C17.552,19 18,18.552 18,18 C18,17.448 17.552,17 17,17 C16.448,17 16,17.448 16,18 C16,18.552 16.448,19 17,19 Z M17,7 C17.552,7 18,6.552 18,6 C18,5.448 17.552,5 17,5 C16.448,5 16,5.448 16,6 C16,6.552 16.448,7 17,7 Z"/>
</svg>

