<svg xmlns="http://www.w3.org/2000/svg" viewBox="0 0 24 24">
  <defs/>
  <path fill="#151E28" d="M12,2.25 C15.382,2.25 17.576,2.869 18.897,3.46 C20.229,4.055 20.75,5.415 20.75,6.654 L20.75,13.46 C20.75,14.54 20.588,15.74 19.931,16.772 C17.71,20.267 13.648,21.401 12.49,21.665 C12.165,21.739 11.835,21.739 11.51,21.665 C10.352,21.401 6.29,20.267 4.069,16.772 C3.412,15.74 3.25,14.54 3.25,13.46 L3.25,6.654 C3.25,5.415 3.772,4.055 5.103,3.46 C6.424,2.869 8.618,2.25 12,2.25 Z M16.03,8.97 C15.737,8.677 15.263,8.677 14.97,8.97 L11,12.939 L9.53,11.47 C9.237,11.177 8.763,11.177 8.47,11.47 C8.177,11.763 8.177,12.237 8.47,12.53 L10.47,14.53 C10.763,14.823 11.237,14.823 11.53,14.53 L16.03,10.03 C16.323,9.737 16.323,9.263 16.03,8.97 Z"/>
</svg>

