<svg xmlns="http://www.w3.org/2000/svg" viewBox="0 0 24 24">
  <defs/>
  <path fill="#151E28" d="M2.377,2.816 C2.133,2.755 1.842,2.75 1,2.75 C0.586,2.75 0.25,2.414 0.25,2 C0.25,1.586 0.586,1.25 1,1.25 L1.097,1.25 C1.805,1.25 2.292,1.25 2.736,1.359 C3.676,1.591 4.49,2.178 5.008,2.996 C5.252,3.383 5.406,3.845 5.63,4.517 L5.66,4.609 L5.874,5.25 L16.549,5.25 C17.242,5.25 17.791,5.25 18.226,5.272 C18.663,5.295 19.048,5.342 19.393,5.464 C21.056,6.05 22.086,7.716 21.867,9.466 C21.822,9.829 21.691,10.194 21.516,10.596 C21.341,10.995 21.096,11.486 20.786,12.105 L20.777,12.124 L20.745,12.188 C20.508,12.661 20.346,12.986 20.135,13.264 C19.572,14.008 18.751,14.515 17.834,14.686 C17.492,14.75 17.128,14.75 16.6,14.75 L11.31,14.75 L11.308,14.75 C10.875,14.75 10.495,14.75 10.153,14.734 C10.103,14.745 10.052,14.75 10,14.75 L6,14.75 C5.31,14.75 4.75,15.31 4.75,16 C4.75,16.69 5.31,17.25 6,17.25 L21,17.25 C21.414,17.25 21.75,17.586 21.75,18 C21.75,18.414 21.414,18.75 21,18.75 L19.45,18.75 C19.642,19.125 19.75,19.55 19.75,20 C19.75,21.519 18.519,22.75 17,22.75 C15.481,22.75 14.25,21.519 14.25,20 C14.25,19.55 14.358,19.125 14.55,18.75 L11.45,18.75 C11.642,19.125 11.75,19.55 11.75,20 C11.75,21.519 10.519,22.75 9,22.75 C7.481,22.75 6.25,21.519 6.25,20 C6.25,19.55 6.358,19.125 6.55,18.75 L6,18.75 C4.481,18.75 3.25,17.519 3.25,16 C3.25,14.481 4.481,13.25 6,13.25 L7.165,13.25 C6.783,12.723 6.557,12.043 6.242,11.097 L6.195,10.955 L4.794,6.752 L4.788,6.737 L4.237,5.083 C3.971,4.284 3.874,4.01 3.74,3.798 C3.429,3.307 2.941,2.955 2.377,2.816 Z M9.011,18.75 L8.989,18.75 C8.304,18.756 7.75,19.313 7.75,20 C7.75,20.69 8.31,21.25 9,21.25 C9.69,21.25 10.25,20.69 10.25,20 C10.25,19.313 9.696,18.756 9.011,18.75 Z M16.994,18.75 C16.306,18.753 15.75,19.312 15.75,20 C15.75,20.69 16.31,21.25 17,21.25 C17.69,21.25 18.25,20.69 18.25,20 C18.25,19.312 17.694,18.753 17.006,18.75 Z"/>
</svg>

