<svg xmlns="http://www.w3.org/2000/svg" viewBox="0 0 24 24">
  <defs/>
  <path fill="#151E28" d="M2.287,2.807 C2.059,2.755 1.787,2.75 1,2.75 C0.586,2.75 0.25,2.414 0.25,2 C0.25,1.586 0.586,1.25 1,1.25 L1.09,1.25 C1.752,1.25 2.207,1.25 2.622,1.345 C3.637,1.577 4.511,2.222 5.032,3.125 C5.208,3.43 5.33,3.78 5.477,4.25 Q5.488,4.25 5.5,4.25 L17.734,4.25 C18.433,4.25 19.008,4.25 19.467,4.291 C19.938,4.333 20.379,4.424 20.77,4.668 C21.355,5.034 21.782,5.608 21.964,6.274 C22.086,6.718 22.046,7.167 21.951,7.63 C21.859,8.082 21.694,8.632 21.493,9.301 L21.493,9.301 L21.493,9.301 L21.483,9.335 L20.745,11.795 L20.7,11.943 C20.376,13.026 20.152,13.774 19.695,14.344 C19.293,14.846 18.768,15.236 18.172,15.477 C17.494,15.751 16.715,15.751 15.584,15.75 L15.583,15.75 L15.429,15.75 L11.545,15.75 L11.392,15.75 L11.391,15.75 C10.268,15.751 9.493,15.751 8.819,15.48 C8.225,15.242 7.703,14.856 7.3,14.359 C6.843,13.793 6.616,13.053 6.286,11.979 L6.241,11.832 L4.165,5.088 C3.934,4.336 3.85,4.077 3.733,3.875 C3.42,3.333 2.896,2.946 2.287,2.807 Z M18,17.25 C19.519,17.25 20.75,18.481 20.75,20 C20.75,21.519 19.519,22.75 18,22.75 C16.481,22.75 15.25,21.519 15.25,20 C15.25,18.481 16.481,17.25 18,17.25 Z M10,17.25 C11.519,17.25 12.75,18.481 12.75,20 C12.75,21.519 11.519,22.75 10,22.75 C8.481,22.75 7.25,21.519 7.25,20 C7.25,18.481 8.481,17.25 10,17.25 Z M16.75,20 C16.75,20.69 17.31,21.25 18,21.25 C18.69,21.25 19.25,20.69 19.25,20 C19.25,19.31 18.69,18.75 18,18.75 C17.31,18.75 16.75,19.31 16.75,20 Z M8.75,20 C8.75,20.69 9.31,21.25 10,21.25 C10.69,21.25 11.25,20.69 11.25,20 C11.25,19.31 10.69,18.75 10,18.75 C9.31,18.75 8.75,19.31 8.75,20 Z"/>
</svg>

