<svg xmlns="http://www.w3.org/2000/svg" viewBox="0 0 24 24">
  <defs/>
  <path fill="#151E28" d="M9.45,2.4 C9.781,2.649 9.848,3.119 9.6,3.45 L7.481,6.275 C8.157,6.25 8.949,6.25 9.88,6.25 L14.12,6.25 C15.051,6.25 15.843,6.25 16.519,6.275 L14.4,3.45 C14.151,3.119 14.218,2.649 14.55,2.4 C14.881,2.152 15.351,2.219 15.6,2.55 L18.593,6.541 C18.907,6.631 19.199,6.751 19.472,6.913 C20.453,7.494 21.193,8.409 21.556,9.49 C21.781,10.164 21.785,10.885 21.681,11.723 C21.578,12.548 21.36,13.568 21.082,14.862 L21.082,14.863 L21.082,14.863 L21.074,14.898 L20.546,17.363 L20.54,17.39 C20.4,18.044 20.287,18.574 20.162,19.002 C20.032,19.445 19.876,19.829 19.629,20.176 C19.232,20.733 18.69,21.171 18.062,21.442 C17.671,21.612 17.263,21.683 16.803,21.717 C16.358,21.75 15.816,21.75 15.148,21.75 L8.852,21.75 C8.184,21.75 7.642,21.75 7.197,21.717 C6.737,21.683 6.329,21.612 5.938,21.442 C5.31,21.171 4.768,20.733 4.371,20.176 C4.123,19.829 3.968,19.445 3.838,19.002 C3.713,18.574 3.599,18.044 3.459,17.39 L3.454,17.363 L2.925,14.898 L2.918,14.863 C2.64,13.568 2.422,12.548 2.319,11.723 C2.215,10.885 2.218,10.164 2.444,9.49 C2.807,8.409 3.546,7.494 4.528,6.913 C4.801,6.751 5.093,6.631 5.407,6.541 L8.4,2.55 C8.648,2.219 9.118,2.152 9.45,2.4 Z"/>
</svg>

