<svg xmlns="http://www.w3.org/2000/svg" viewBox="0 0 24 24">
  <defs/>
  <path fill="#151E28" d="M7.842,3.935 L17.75,10.305 L17.75,4 C17.75,3.586 18.086,3.25 18.5,3.25 C18.914,3.25 19.25,3.586 19.25,4 L19.25,20 C19.25,20.414 18.914,20.75 18.5,20.75 C18.086,20.75 17.75,20.414 17.75,20 L17.75,13.695 L7.871,20.046 L7.842,20.065 C7.465,20.307 7.14,20.516 6.867,20.658 C6.592,20.801 6.255,20.941 5.875,20.914 C5.369,20.878 4.903,20.623 4.599,20.217 C4.371,19.912 4.306,19.553 4.278,19.245 C4.25,18.938 4.25,18.551 4.25,18.104 L4.25,5.896 C4.25,5.448 4.25,5.061 4.278,4.755 C4.306,4.447 4.371,4.087 4.599,3.783 C4.903,3.376 5.369,3.122 5.875,3.086 C6.255,3.059 6.592,3.199 6.867,3.342 C7.14,3.484 7.465,3.693 7.842,3.935 Z"/>
</svg>

