<svg xmlns="http://www.w3.org/2000/svg" viewBox="0 0 24 24">
  <defs/>
  <path fill="#151E28" d="M15.658,3.935 C16.035,3.693 16.36,3.484 16.633,3.342 C16.908,3.199 17.245,3.059 17.625,3.086 C18.131,3.122 18.597,3.376 18.901,3.783 C19.129,4.087 19.194,4.447 19.222,4.755 C19.25,5.061 19.25,5.448 19.25,5.896 L19.25,18.104 C19.25,18.551 19.25,18.938 19.222,19.245 C19.194,19.553 19.129,19.912 18.901,20.217 C18.597,20.623 18.131,20.878 17.625,20.914 C17.245,20.941 16.908,20.801 16.633,20.658 C16.36,20.516 16.035,20.307 15.658,20.065 L15.629,20.046 L5.75,13.695 L5.75,20 C5.75,20.414 5.414,20.75 5,20.75 C4.586,20.75 4.25,20.414 4.25,20 L4.25,12.336 C4.25,12.326 4.25,12.315 4.25,12.305 L4.25,11.695 C4.25,11.684 4.25,11.674 4.25,11.663 L4.25,4 C4.25,3.586 4.586,3.25 5,3.25 C5.414,3.25 5.75,3.586 5.75,4 L5.75,10.305 Z"/>
</svg>

