<svg xmlns="http://www.w3.org/2000/svg" viewBox="0 0 24 24">
  <defs/>
  <path fill="#151E28" d="M2,4.25 C2.414,4.25 2.75,4.586 2.75,5 L2.75,12.25 L11.25,12.25 L11.25,10.17 C11.25,9.635 11.25,9.19 11.28,8.825 C11.311,8.445 11.378,8.089 11.55,7.752 C11.813,7.234 12.234,6.813 12.752,6.55 C13.089,6.378 13.445,6.311 13.825,6.28 C14.19,6.25 14.635,6.25 15.17,6.25 L16.028,6.25 C16.936,6.25 17.656,6.25 18.24,6.29 C18.836,6.33 19.344,6.415 19.818,6.612 C20.982,7.094 21.906,8.018 22.388,9.182 C22.585,9.656 22.67,10.164 22.71,10.76 C22.75,11.344 22.75,12.064 22.75,12.972 L22.75,19 C22.75,19.414 22.414,19.75 22,19.75 C21.586,19.75 21.25,19.414 21.25,19 L21.25,13.75 L2.75,13.75 L2.75,19 C2.75,19.414 2.414,19.75 2,19.75 C1.586,19.75 1.25,19.414 1.25,19 L1.25,5 C1.25,4.586 1.586,4.25 2,4.25 Z M7,10 C5.895,10 5,9.105 5,8 C5,6.895 5.895,6 7,6 C8.105,6 9,6.895 9,8 C9,9.105 8.105,10 7,10 Z"/>
</svg>

