<svg xmlns="http://www.w3.org/2000/svg" viewBox="0 0 24 24">
  <defs/>
  <path fill="#151E28" d="M14.75,8.75 L14.75,9.25 C14.75,10.631 13.631,11.75 12.25,11.75 L11.75,11.75 C10.369,11.75 9.25,10.631 9.25,9.25 L9.25,8.75 C9.25,7.369 10.369,6.25 11.75,6.25 L12.25,6.25 C13.631,6.25 14.75,7.369 14.75,8.75 Z M5.25,11.25 C6.631,11.25 7.75,12.369 7.75,13.75 L7.75,14.25 C7.75,15.631 6.631,16.75 5.25,16.75 L4.75,16.75 C3.369,16.75 2.25,15.631 2.25,14.25 L2.25,13.75 C2.25,12.369 3.369,11.25 4.75,11.25 Z M19.25,11.25 C20.631,11.25 21.75,12.369 21.75,13.75 L21.75,14.25 C21.75,15.631 20.631,16.75 19.25,16.75 L18.75,16.75 C17.369,16.75 16.25,15.631 16.25,14.25 L16.25,13.75 C16.25,12.369 17.369,11.25 18.75,11.25 Z M12.75,14 L12.75,21 C12.75,21.414 12.414,21.75 12,21.75 C11.586,21.75 11.25,21.414 11.25,21 L11.25,14 C11.25,13.586 11.586,13.25 12,13.25 C12.414,13.25 12.75,13.586 12.75,14 Z M5,2.25 C5.414,2.25 5.75,2.586 5.75,3 L5.75,9 C5.75,9.414 5.414,9.75 5,9.75 C4.586,9.75 4.25,9.414 4.25,9 L4.25,3 C4.25,2.586 4.586,2.25 5,2.25 Z M19.75,3 L19.75,9 C19.75,9.414 19.414,9.75 19,9.75 C18.586,9.75 18.25,9.414 18.25,9 L18.25,3 C18.25,2.586 18.586,2.25 19,2.25 C19.414,2.25 19.75,2.586 19.75,3 Z M5.75,19 L5.75,21 C5.75,21.414 5.414,21.75 5,21.75 C4.586,21.75 4.25,21.414 4.25,21 L4.25,19 C4.25,18.586 4.586,18.25 5,18.25 C5.414,18.25 5.75,18.586 5.75,19 Z M19.75,19 L19.75,21 C19.75,21.414 19.414,21.75 19,21.75 C18.586,21.75 18.25,21.414 18.25,21 L18.25,19 C18.25,18.586 18.586,18.25 19,18.25 C19.414,18.25 19.75,18.586 19.75,19 Z M12,2.25 C12.414,2.25 12.75,2.586 12.75,3 L12.75,4 C12.75,4.414 12.414,4.75 12,4.75 C11.586,4.75 11.25,4.414 11.25,4 L11.25,3 C11.25,2.586 11.586,2.25 12,2.25 Z"/>
</svg>

