<svg xmlns="http://www.w3.org/2000/svg" viewBox="0 0 24 24">
  <defs/>
  <path fill="#151E28" d="M11.25,4.75 C11.25,3.369 12.369,2.25 13.75,2.25 L14.25,2.25 C15.631,2.25 16.75,3.369 16.75,4.75 L16.75,5.25 C16.75,6.631 15.631,7.75 14.25,7.75 L13.75,7.75 C12.369,7.75 11.25,6.631 11.25,5.25 Z M8.75,9.25 L9.25,9.25 C10.631,9.25 11.75,10.369 11.75,11.75 L11.75,12.25 C11.75,13.631 10.631,14.75 9.25,14.75 L8.75,14.75 C7.369,14.75 6.25,13.631 6.25,12.25 L6.25,11.75 C6.25,10.369 7.369,9.25 8.75,9.25 Z M11.25,18.75 C11.25,17.369 12.369,16.25 13.75,16.25 L14.25,16.25 C15.631,16.25 16.75,17.369 16.75,18.75 L16.75,19.25 C16.75,20.631 15.631,21.75 14.25,21.75 L13.75,21.75 C12.369,21.75 11.25,20.631 11.25,19.25 Z M14,11.25 L21,11.25 C21.414,11.25 21.75,11.586 21.75,12 C21.75,12.414 21.414,12.75 21,12.75 L14,12.75 C13.586,12.75 13.25,12.414 13.25,12 C13.25,11.586 13.586,11.25 14,11.25 Z M3,4.25 L9,4.25 C9.414,4.25 9.75,4.586 9.75,5 C9.75,5.414 9.414,5.75 9,5.75 L3,5.75 C2.586,5.75 2.25,5.414 2.25,5 C2.25,4.586 2.586,4.25 3,4.25 Z M2.25,19 C2.25,18.586 2.586,18.25 3,18.25 L9,18.25 C9.414,18.25 9.75,18.586 9.75,19 C9.75,19.414 9.414,19.75 9,19.75 L3,19.75 C2.586,19.75 2.25,19.414 2.25,19 Z M19,4.25 L21,4.25 C21.414,4.25 21.75,4.586 21.75,5 C21.75,5.414 21.414,5.75 21,5.75 L19,5.75 C18.586,5.75 18.25,5.414 18.25,5 C18.25,4.586 18.586,4.25 19,4.25 Z M19,18.25 L21,18.25 C21.414,18.25 21.75,18.586 21.75,19 C21.75,19.414 21.414,19.75 21,19.75 L19,19.75 C18.586,19.75 18.25,19.414 18.25,19 C18.25,18.586 18.586,18.25 19,18.25 Z M2.25,12 C2.25,11.586 2.586,11.25 3,11.25 L4,11.25 C4.414,11.25 4.75,11.586 4.75,12 C4.75,12.414 4.414,12.75 4,12.75 L3,12.75 C2.586,12.75 2.25,12.414 2.25,12 Z"/>
</svg>

