<svg xmlns="http://www.w3.org/2000/svg" viewBox="0 0 24 24">
  <defs/>
  <path fill="#151E28" d="M9.75,6.5 L9.75,7.5 C9.75,9.295 8.295,10.75 6.5,10.75 L5.5,10.75 C3.705,10.75 2.25,9.295 2.25,7.5 L2.25,6.5 C2.25,4.705 3.705,3.25 5.5,3.25 L6.5,3.25 C8.295,3.25 9.75,4.705 9.75,6.5 Z M18.5,13.25 C20.295,13.25 21.75,14.705 21.75,16.5 L21.75,17.5 C21.75,19.295 20.295,20.75 18.5,20.75 L17.5,20.75 C15.705,20.75 14.25,19.295 14.25,17.5 L14.25,16.5 C14.25,14.705 15.705,13.25 17.5,13.25 Z M21,6.25 C21.414,6.25 21.75,6.586 21.75,7 C21.75,7.414 21.414,7.75 21,7.75 L13,7.75 C12.586,7.75 12.25,7.414 12.25,7 C12.25,6.586 12.586,6.25 13,6.25 Z M11,16.25 C11.414,16.25 11.75,16.586 11.75,17 C11.75,17.414 11.414,17.75 11,17.75 L3,17.75 C2.586,17.75 2.25,17.414 2.25,17 C2.25,16.586 2.586,16.25 3,16.25 Z"/>
</svg>

