<svg xmlns="http://www.w3.org/2000/svg" viewBox="0 0 24 24">
  <defs/>
  <path fill="#151E28" d="M6.5,9.75 C4.705,9.75 3.25,8.295 3.25,6.5 L3.25,5.5 C3.25,3.705 4.705,2.25 6.5,2.25 L7.5,2.25 C9.295,2.25 10.75,3.705 10.75,5.5 L10.75,6.5 C10.75,8.295 9.295,9.75 7.5,9.75 Z M13.25,18.5 L13.25,17.5 C13.25,15.705 14.705,14.25 16.5,14.25 L17.5,14.25 C19.295,14.25 20.75,15.705 20.75,17.5 L20.75,18.5 C20.75,20.295 19.295,21.75 17.5,21.75 L16.5,21.75 C14.705,21.75 13.25,20.295 13.25,18.5 Z M6.25,21 L6.25,13 C6.25,12.586 6.586,12.25 7,12.25 C7.414,12.25 7.75,12.586 7.75,13 L7.75,21 C7.75,21.414 7.414,21.75 7,21.75 C6.586,21.75 6.25,21.414 6.25,21 Z M16.25,11 L16.25,3 C16.25,2.586 16.586,2.25 17,2.25 C17.414,2.25 17.75,2.586 17.75,3 L17.75,11 C17.75,11.414 17.414,11.75 17,11.75 C16.586,11.75 16.25,11.414 16.25,11 Z"/>
</svg>

