<svg xmlns="http://www.w3.org/2000/svg" viewBox="0 0 24 24">
  <defs/>
  <path fill="#151E28" d="M13.338,5.533 C13.579,6.005 13.666,6.606 13.708,7.302 C13.75,8.011 13.75,8.937 13.75,10.125 L13.75,13.875 C13.75,15.063 13.75,15.99 13.708,16.698 C13.666,17.394 13.579,17.995 13.338,18.467 C12.5,20.103 10.599,20.891 8.849,20.326 C8.344,20.164 7.859,19.8 7.337,19.337 C6.805,18.866 6.15,18.211 5.31,17.371 L5.291,17.351 L5.091,17.152 C5.054,17.114 5.043,17.104 5.034,17.095 C4.809,16.881 4.512,16.758 4.201,16.75 C4.189,16.75 4.174,16.75 4.121,16.75 L4.104,16.75 C4.008,16.75 3.935,16.75 3.869,16.747 C2.453,16.68 1.321,15.547 1.253,14.131 C1.25,14.065 1.25,13.992 1.25,13.897 L1.25,10.103 C1.25,10.008 1.25,9.935 1.253,9.869 C1.321,8.453 2.453,7.321 3.869,7.253 C3.935,7.25 4.008,7.25 4.104,7.25 L4.121,7.25 C4.174,7.25 4.189,7.25 4.201,7.25 C4.512,7.242 4.809,7.119 5.034,6.905 C5.043,6.896 5.054,6.886 5.091,6.848 L5.291,6.649 L5.31,6.63 L5.31,6.629 C6.15,5.789 6.805,5.134 7.337,4.663 C7.859,4.2 8.344,3.837 8.849,3.674 C10.599,3.109 12.5,3.897 13.338,5.533 Z M19.416,3.376 L19,4 C19.415,3.377 19.416,3.376 19.417,3.377 L19.418,3.377 L19.42,3.379 L19.425,3.382 L19.438,3.391 C19.449,3.398 19.462,3.408 19.477,3.419 C19.509,3.442 19.55,3.474 19.601,3.515 C19.702,3.597 19.839,3.716 19.999,3.876 C20.32,4.197 20.734,4.682 21.143,5.364 C21.965,6.734 22.75,8.868 22.75,12 C22.75,15.132 21.965,17.266 21.143,18.636 C20.734,19.318 20.32,19.803 19.999,20.124 C19.839,20.284 19.702,20.403 19.601,20.485 C19.55,20.526 19.509,20.558 19.477,20.581 C19.462,20.592 19.449,20.602 19.438,20.609 L19.425,20.618 L19.42,20.622 L19.418,20.623 L19.417,20.624 C19.417,20.624 19.416,20.624 19.017,20.026 L19.416,20.624 C19.072,20.854 18.606,20.761 18.376,20.416 C18.147,20.073 18.239,19.61 18.579,19.379 L18.59,19.371 C18.603,19.362 18.626,19.345 18.657,19.319 C18.72,19.269 18.817,19.184 18.938,19.063 C19.18,18.822 19.516,18.432 19.857,17.864 C20.535,16.734 21.25,14.868 21.25,12 C21.25,9.132 20.535,7.266 19.857,6.136 C19.516,5.568 19.18,5.178 18.938,4.937 C18.817,4.816 18.72,4.732 18.657,4.681 C18.626,4.655 18.603,4.638 18.59,4.629 L18.579,4.621 C18.239,4.39 18.147,3.927 18.376,3.584 C18.606,3.239 19.072,3.146 19.416,3.376 Z M15.4,6.55 C15.649,6.219 16.119,6.152 16.45,6.4 L16.002,6.997 C16.45,6.4 16.45,6.4 16.451,6.401 L16.451,6.401 L16.453,6.402 L16.457,6.405 L16.466,6.413 C16.474,6.418 16.483,6.426 16.494,6.435 C16.516,6.452 16.545,6.476 16.58,6.507 C16.65,6.568 16.744,6.655 16.854,6.77 C17.073,6.998 17.357,7.337 17.639,7.795 C18.205,8.714 18.75,10.099 18.75,12 C18.75,13.901 18.205,15.286 17.639,16.206 C17.357,16.663 17.073,17.002 16.854,17.23 C16.744,17.345 16.65,17.432 16.58,17.493 C16.545,17.524 16.516,17.548 16.494,17.566 C16.483,17.574 16.474,17.582 16.466,17.588 L16.457,17.595 L16.453,17.598 L16.451,17.599 L16.451,17.6 C16.45,17.6 16.45,17.6 16,17 L16.45,17.6 C16.119,17.849 15.649,17.781 15.4,17.45 C15.153,17.12 15.218,16.653 15.545,16.403 L15.551,16.399 C15.558,16.393 15.572,16.382 15.592,16.364 C15.632,16.33 15.694,16.272 15.771,16.192 C15.927,16.03 16.143,15.775 16.361,15.42 C16.795,14.714 17.25,13.599 17.25,12 C17.25,10.401 16.795,9.286 16.361,8.581 C16.143,8.225 15.927,7.97 15.771,7.809 C15.694,7.728 15.632,7.67 15.592,7.636 C15.572,7.619 15.558,7.607 15.551,7.601 L15.545,7.597 C15.218,7.347 15.153,6.88 15.4,6.55 Z"/>
</svg>

