<svg xmlns="http://www.w3.org/2000/svg" viewBox="0 0 24 24">
  <defs/>
  <path fill="#151E28" d="M2.53,1.47 L22.53,21.47 C22.823,21.763 22.823,22.237 22.53,22.53 C22.237,22.823 21.763,22.823 21.47,22.53 L17.36,18.421 C17.353,18.436 17.346,18.452 17.338,18.467 C16.5,20.103 14.599,20.891 12.849,20.326 C12.344,20.163 11.858,19.8 11.337,19.337 C10.805,18.866 10.15,18.211 9.31,17.371 L9.31,17.371 L9.291,17.351 L9.091,17.152 C9.054,17.114 9.043,17.104 9.034,17.095 C8.809,16.881 8.512,16.758 8.201,16.75 C8.189,16.75 8.174,16.75 8.121,16.75 L8.104,16.75 C8.008,16.75 7.935,16.75 7.869,16.747 C6.453,16.679 5.321,15.547 5.253,14.131 C5.25,14.065 5.25,13.992 5.25,13.897 L5.25,10.103 C5.25,10.008 5.25,9.935 5.253,9.869 C5.298,8.923 5.819,8.103 6.582,7.643 L1.47,2.53 C1.177,2.237 1.177,1.763 1.47,1.47 C1.763,1.177 2.237,1.177 2.53,1.47 Z M16.003,6.217 C15.5,5.235 14.359,4.763 13.309,5.101 C13.181,5.143 12.987,5.247 12.679,5.492 C12.376,5.733 12.006,6.075 11.524,6.545 C11.227,6.834 10.752,6.829 10.463,6.532 C10.174,6.236 10.18,5.761 10.476,5.472 C10.964,4.996 11.379,4.609 11.745,4.318 C12.108,4.03 12.468,3.797 12.849,3.674 C14.599,3.109 16.5,3.897 17.338,5.533 C17.579,6.005 17.666,6.606 17.707,7.302 C17.75,8.011 17.75,8.937 17.75,10.125 L17.75,13 C17.75,13.414 17.414,13.75 17,13.75 C16.586,13.75 16.25,13.414 16.25,13 L16.25,10.153 C16.25,8.931 16.25,8.05 16.21,7.392 C16.17,6.716 16.091,6.389 16.003,6.217 Z"/>
</svg>

