<svg xmlns="http://www.w3.org/2000/svg" viewBox="0 0 24 24">
  <defs/>
  <path fill="#151E28" d="M8.849,3.674 C10.599,3.109 12.5,3.897 13.338,5.533 C13.579,6.005 13.666,6.606 13.707,7.302 C13.75,8.011 13.75,8.937 13.75,10.125 L13.75,13.875 C13.75,15.063 13.75,15.99 13.707,16.698 C13.666,17.394 13.579,17.995 13.338,18.467 C12.5,20.103 10.599,20.891 8.849,20.326 C8.344,20.164 7.858,19.8 7.337,19.337 C6.805,18.866 6.15,18.211 5.31,17.371 L5.31,17.371 L5.31,17.371 L5.291,17.351 L5.091,17.152 C5.054,17.114 5.043,17.104 5.034,17.095 C4.809,16.881 4.512,16.758 4.201,16.75 C4.189,16.75 4.174,16.75 4.121,16.75 L4.104,16.75 C4.008,16.75 3.935,16.75 3.869,16.747 C2.453,16.68 1.321,15.547 1.253,14.131 C1.25,14.065 1.25,13.992 1.25,13.897 L1.25,10.103 C1.25,10.008 1.25,9.935 1.253,9.869 C1.321,8.453 2.453,7.321 3.869,7.253 C3.935,7.25 4.008,7.25 4.103,7.25 L4.121,7.25 C4.174,7.25 4.189,7.25 4.201,7.25 C4.512,7.242 4.809,7.119 5.034,6.905 C5.043,6.896 5.054,6.886 5.091,6.848 L5.291,6.649 L5.31,6.63 L5.31,6.629 C6.15,5.789 6.805,5.134 7.337,4.663 C7.858,4.2 8.344,3.837 8.849,3.674 Z M17.53,9.47 L19.5,11.439 L21.47,9.47 C21.763,9.177 22.237,9.177 22.53,9.47 C22.823,9.763 22.823,10.238 22.53,10.53 L20.561,12.5 L22.53,14.47 C22.823,14.763 22.823,15.238 22.53,15.53 C22.237,15.823 21.763,15.823 21.47,15.53 L19.5,13.561 L17.53,15.53 C17.237,15.823 16.763,15.823 16.47,15.53 C16.177,15.238 16.177,14.763 16.47,14.47 L18.439,12.5 L16.47,10.53 C16.177,10.238 16.177,9.763 16.47,9.47 C16.763,9.177 17.237,9.177 17.53,9.47 Z"/>
</svg>

