<svg xmlns="http://www.w3.org/2000/svg" viewBox="0 0 24 24">
  <defs/>
  <path fill="#151E28" d="M17.338,5.533 C17.579,6.005 17.666,6.606 17.707,7.302 C17.75,8.011 17.75,8.937 17.75,10.125 L17.75,13.875 C17.75,15.063 17.75,15.99 17.707,16.698 C17.666,17.394 17.579,17.995 17.338,18.467 C16.5,20.103 14.599,20.891 12.849,20.326 C12.344,20.164 11.858,19.8 11.337,19.337 C10.805,18.866 10.15,18.211 9.31,17.371 L9.291,17.351 L9.091,17.152 C9.054,17.114 9.043,17.104 9.034,17.095 C8.809,16.881 8.512,16.758 8.201,16.75 C8.189,16.75 8.174,16.75 8.121,16.75 L8.104,16.75 C8.008,16.75 7.935,16.75 7.869,16.747 C6.453,16.68 5.321,15.547 5.253,14.131 C5.25,14.065 5.25,13.992 5.25,13.897 L5.25,10.103 C5.25,10.008 5.25,9.935 5.253,9.869 C5.321,8.453 6.453,7.321 7.869,7.253 C7.935,7.25 8.008,7.25 8.103,7.25 L8.121,7.25 C8.174,7.25 8.189,7.25 8.201,7.25 C8.512,7.242 8.809,7.119 9.034,6.905 C9.043,6.896 9.054,6.886 9.091,6.848 L9.291,6.649 L9.31,6.63 C10.15,5.789 10.805,5.134 11.337,4.663 C11.858,4.2 12.344,3.837 12.849,3.674 C14.599,3.109 16.5,3.897 17.338,5.533 Z"/>
</svg>

