<svg xmlns="http://www.w3.org/2000/svg" viewBox="0 0 24 24">
  <defs/>
  <path fill="#151E28" d="M10.849,3.674 C12.599,3.109 14.5,3.897 15.338,5.533 C15.579,6.005 15.666,6.606 15.707,7.302 C15.75,8.011 15.75,8.937 15.75,10.125 L15.75,13.875 C15.75,15.063 15.75,15.99 15.707,16.698 C15.666,17.394 15.579,17.995 15.338,18.467 C14.5,20.103 12.599,20.891 10.849,20.326 C10.344,20.164 9.858,19.8 9.337,19.337 C8.805,18.866 8.15,18.211 7.31,17.371 L7.31,17.371 L7.31,17.371 L7.291,17.351 L7.091,17.152 C7.054,17.114 7.043,17.104 7.034,17.095 C6.809,16.881 6.512,16.758 6.201,16.75 C6.189,16.75 6.174,16.75 6.121,16.75 L6.104,16.75 C6.008,16.75 5.935,16.75 5.869,16.747 C4.453,16.68 3.321,15.547 3.253,14.131 C3.25,14.065 3.25,13.992 3.25,13.897 L3.25,10.103 C3.25,10.008 3.25,9.935 3.253,9.869 C3.321,8.453 4.453,7.321 5.869,7.253 C5.935,7.25 6.008,7.25 6.103,7.25 L6.121,7.25 C6.174,7.25 6.189,7.25 6.201,7.25 C6.512,7.242 6.809,7.119 7.034,6.905 C7.043,6.896 7.054,6.886 7.091,6.848 L7.291,6.649 L7.31,6.63 L7.31,6.629 C8.15,5.789 8.805,5.134 9.337,4.663 C9.858,4.2 10.344,3.837 10.849,3.674 Z M18.45,6.4 L18,7 C18.449,6.401 18.45,6.4 18.451,6.401 L18.451,6.401 L18.453,6.402 L18.457,6.405 L18.466,6.413 C18.474,6.418 18.483,6.426 18.494,6.435 C18.516,6.452 18.545,6.476 18.58,6.507 C18.65,6.568 18.744,6.655 18.854,6.77 C19.073,6.998 19.357,7.337 19.639,7.795 C20.205,8.714 20.75,10.099 20.75,12 C20.75,13.901 20.205,15.286 19.639,16.206 C19.357,16.663 19.073,17.002 18.854,17.23 C18.744,17.345 18.65,17.432 18.58,17.493 C18.545,17.524 18.516,17.548 18.494,17.566 C18.483,17.574 18.474,17.582 18.466,17.588 L18.457,17.595 L18.453,17.598 L18.451,17.599 L18.451,17.6 C18.45,17.6 18.45,17.6 18.001,17.002 L18.45,17.6 C18.119,17.849 17.649,17.781 17.4,17.45 C17.153,17.12 17.218,16.653 17.545,16.403 L17.551,16.399 C17.558,16.393 17.572,16.382 17.592,16.364 C17.632,16.33 17.694,16.272 17.771,16.192 C17.927,16.03 18.143,15.775 18.361,15.42 C18.795,14.714 19.25,13.599 19.25,12 C19.25,10.401 18.795,9.286 18.361,8.581 C18.143,8.225 17.927,7.97 17.771,7.809 C17.694,7.728 17.632,7.67 17.592,7.636 C17.572,7.619 17.558,7.607 17.551,7.601 L17.545,7.597 C17.218,7.347 17.153,6.88 17.4,6.55 C17.649,6.219 18.119,6.152 18.45,6.4 Z"/>
</svg>

