<svg xmlns="http://www.w3.org/2000/svg" viewBox="0 0 24 24">
  <defs/>
  <path fill="#151E28" d="M12.807,1.713 C13.41,1.817 13.98,2.076 14.865,2.478 L14.959,2.521 L20.106,4.861 L20.138,4.875 C20.62,5.094 21.027,5.279 21.331,5.452 C21.626,5.62 21.968,5.851 22.153,6.227 C22.393,6.714 22.393,7.286 22.153,7.773 C21.968,8.149 21.626,8.38 21.331,8.548 C21.027,8.721 20.62,8.906 20.138,9.124 L20.106,9.139 L14.959,11.479 L14.865,11.521 C13.98,11.924 13.41,12.183 12.807,12.287 C12.273,12.379 11.727,12.379 11.193,12.287 C10.59,12.183 10.02,11.924 9.135,11.521 L9.135,11.521 L9.135,11.521 L9.041,11.479 L3.894,9.139 L3.861,9.124 C3.38,8.906 2.973,8.721 2.669,8.548 C2.374,8.38 2.032,8.149 1.847,7.773 C1.606,7.286 1.606,6.714 1.847,6.227 C2.032,5.851 2.374,5.62 2.669,5.452 C2.973,5.279 3.38,5.094 3.861,4.875 L3.894,4.861 L9.041,2.521 L9.135,2.478 C10.019,2.076 10.59,1.817 11.193,1.713 C11.727,1.621 12.273,1.621 12.807,1.713 Z M2.315,11.695 C2.483,11.317 2.926,11.146 3.305,11.315 L9.705,14.159 C10.698,14.6 11.076,14.763 11.459,14.827 C11.817,14.888 12.183,14.888 12.541,14.827 C12.924,14.763 13.302,14.6 14.295,14.159 L20.695,11.315 C21.074,11.146 21.517,11.317 21.685,11.695 C21.854,12.074 21.683,12.517 21.305,12.685 L14.904,15.53 L14.812,15.571 C13.943,15.957 13.383,16.206 12.791,16.306 C12.267,16.395 11.733,16.395 11.209,16.306 C10.617,16.206 10.057,15.957 9.188,15.571 L9.188,15.571 L9.096,15.53 L2.695,12.685 C2.317,12.517 2.146,12.074 2.315,11.695 Z M3.305,16.315 L9.705,19.159 C10.698,19.6 11.076,19.763 11.459,19.827 C11.817,19.888 12.183,19.888 12.541,19.827 C12.924,19.763 13.302,19.6 14.295,19.159 L20.695,16.315 C21.074,16.146 21.517,16.317 21.685,16.695 C21.854,17.074 21.683,17.517 21.305,17.685 L14.904,20.53 L14.812,20.571 C13.943,20.957 13.383,21.206 12.791,21.306 C12.267,21.395 11.733,21.395 11.209,21.306 C10.617,21.206 10.057,20.957 9.188,20.571 L9.096,20.53 L2.695,17.685 C2.317,17.517 2.146,17.074 2.315,16.695 C2.483,16.317 2.926,16.146 3.305,16.315 Z"/>
</svg>

