<svg xmlns="http://www.w3.org/2000/svg" viewBox="0 0 24 24">
  <defs/>
  <path fill="#151E28" d="M13.569,2.485 L15.673,6.747 C15.709,6.821 15.779,6.872 15.861,6.884 L20.564,7.567 C22,7.776 22.573,9.54 21.534,10.552 L18.131,13.87 C18.072,13.927 18.045,14.01 18.059,14.091 L18.862,18.776 C19.107,20.205 17.607,21.295 16.323,20.62 L12.116,18.409 C12.043,18.37 11.956,18.37 11.884,18.409 L7.677,20.62 C6.393,21.295 4.892,20.205 5.138,18.776 L5.941,14.091 C5.955,14.01 5.928,13.927 5.869,13.87 L2.466,10.552 C1.427,9.54 2,7.776 3.436,7.567 L8.139,6.884 C8.22,6.872 8.291,6.821 8.327,6.747 L10.431,2.485 C11.073,1.185 12.927,1.185 13.569,2.485 Z"/>
</svg>

