<svg xmlns="http://www.w3.org/2000/svg" viewBox="0 0 24 24">
  <defs/>
  <path fill="#151E28" d="M9.367,2.25 L14.633,2.25 C15.725,2.25 16.591,2.25 17.288,2.307 C18.002,2.365 18.605,2.487 19.156,2.768 C20.05,3.223 20.777,3.95 21.232,4.844 C21.513,5.395 21.635,5.998 21.693,6.712 C21.75,7.409 21.75,8.275 21.75,9.367 L21.75,12 C21.75,17.385 17.385,21.75 12,21.75 L9.367,21.75 C8.275,21.75 7.409,21.75 6.712,21.693 C5.998,21.635 5.395,21.513 4.844,21.232 C3.95,20.777 3.223,20.05 2.768,19.156 C2.487,18.605 2.365,18.002 2.307,17.288 C2.25,16.591 2.25,15.725 2.25,14.633 L2.25,9.367 C2.25,8.275 2.25,7.409 2.307,6.712 C2.365,5.998 2.487,5.395 2.768,4.844 C3.223,3.95 3.95,3.223 4.844,2.768 C5.395,2.487 5.998,2.365 6.712,2.307 C7.409,2.25 8.275,2.25 9.367,2.25 Z M12.75,20.216 C16.708,19.86 19.86,16.708 20.216,12.75 L18.191,12.75 C17.168,12.75 16.424,12.754 15.834,12.802 C15.213,12.853 14.829,12.949 14.524,13.104 C13.913,13.416 13.416,13.913 13.104,14.524 C12.949,14.829 12.853,15.213 12.802,15.834 C12.751,16.463 12.75,17.267 12.75,18.4 Z M7,6.25 C6.586,6.25 6.25,6.586 6.25,7 C6.25,7.414 6.586,7.75 7,7.75 L15,7.75 C15.414,7.75 15.75,7.414 15.75,7 C15.75,6.586 15.414,6.25 15,6.25 Z M7,10.25 C6.586,10.25 6.25,10.586 6.25,11 C6.25,11.414 6.586,11.75 7,11.75 L11,11.75 C11.414,11.75 11.75,11.414 11.75,11 C11.75,10.586 11.414,10.25 11,10.25 Z M7,14.25 C6.586,14.25 6.25,14.586 6.25,15 C6.25,15.414 6.586,15.75 7,15.75 L9,15.75 C9.414,15.75 9.75,15.414 9.75,15 C9.75,14.586 9.414,14.25 9,14.25 Z"/>
</svg>

