<svg xmlns="http://www.w3.org/2000/svg" viewBox="0 0 24 24">
  <defs/>
  <path fill="#151E28" d="M21.03,5.03 L19.404,6.656 C20.867,8.361 21.75,10.578 21.75,13 C21.75,18.385 17.385,22.75 12,22.75 C6.615,22.75 2.25,18.385 2.25,13 C2.25,7.615 6.615,3.25 12,3.25 C14.422,3.25 16.639,4.133 18.344,5.596 L19.969,3.97 C20.262,3.677 20.737,3.677 21.03,3.97 C21.323,4.263 21.323,4.737 21.03,5.03 Z M10,0.25 L14,0.25 C14.414,0.25 14.75,0.586 14.75,1 C14.75,1.414 14.414,1.75 14,1.75 L10,1.75 C9.586,1.75 9.25,1.414 9.25,1 C9.25,0.586 9.586,0.25 10,0.25 Z M12.75,10 C12.75,9.586 12.414,9.25 12,9.25 C11.586,9.25 11.25,9.586 11.25,10 L11.25,14 C11.25,14.414 11.586,14.75 12,14.75 C12.414,14.75 12.75,14.414 12.75,14 Z"/>
</svg>

