<svg xmlns="http://www.w3.org/2000/svg" viewBox="0 0 24 24">
  <defs/>
  <path fill="#151E28" d="M12,1.25 C17.937,1.25 22.75,6.063 22.75,12 C22.75,17.937 17.937,22.75 12,22.75 C6.063,22.75 1.25,17.937 1.25,12 C1.25,6.063 6.063,1.25 12,1.25 Z M8.5,12.3 C8.5,13.42 8.5,13.98 8.718,14.408 C8.91,14.784 9.216,15.09 9.592,15.282 C10.02,15.5 10.58,15.5 11.7,15.5 L12.3,15.5 C13.42,15.5 13.98,15.5 14.408,15.282 C14.784,15.09 15.09,14.784 15.282,14.408 C15.5,13.98 15.5,13.42 15.5,12.3 L15.5,11.7 C15.5,10.58 15.5,10.02 15.282,9.592 C15.09,9.216 14.784,8.91 14.408,8.718 C13.98,8.5 13.42,8.5 12.3,8.5 L11.7,8.5 C10.58,8.5 10.02,8.5 9.592,8.718 C9.216,8.91 8.91,9.216 8.718,9.592 C8.5,10.02 8.5,10.58 8.5,11.7 Z"/>
</svg>

