<svg xmlns="http://www.w3.org/2000/svg" viewBox="0 0 24 24">
  <defs/>
  <path fill="#151E28" d="M17,2.25 L17.095,2.25 C17.933,2.25 18.467,2.25 18.927,2.341 C20.811,2.716 22.284,4.189 22.659,6.073 C22.75,6.533 22.75,7.066 22.75,7.904 L22.75,16.096 C22.75,16.934 22.75,17.467 22.659,17.927 C22.284,19.811 20.811,21.284 18.927,21.659 C18.467,21.75 17.934,21.75 17.096,21.75 L6.904,21.75 C6.066,21.75 5.533,21.75 5.073,21.659 C3.189,21.284 1.716,19.811 1.341,17.927 C1.25,17.467 1.25,16.933 1.25,16.095 L1.25,16 L1.25,8 L1.25,7.905 C1.25,7.067 1.25,6.533 1.341,6.073 C1.716,4.189 3.189,2.716 5.073,2.341 C5.533,2.25 6.067,2.25 6.905,2.25 L6.905,2.25 L7,2.25 Z M5.25,13 C5.25,13.414 5.586,13.75 6,13.75 L13,13.75 C13.414,13.75 13.75,13.414 13.75,13 C13.75,12.586 13.414,12.25 13,12.25 L6,12.25 C5.586,12.25 5.25,12.586 5.25,13 Z M10.25,17 C10.25,17.414 10.586,17.75 11,17.75 L18,17.75 C18.414,17.75 18.75,17.414 18.75,17 C18.75,16.586 18.414,16.25 18,16.25 L11,16.25 C10.586,16.25 10.25,16.586 10.25,17 Z M5.25,17 C5.25,17.414 5.586,17.75 6,17.75 L8,17.75 C8.414,17.75 8.75,17.414 8.75,17 C8.75,16.586 8.414,16.25 8,16.25 L6,16.25 C5.586,16.25 5.25,16.586 5.25,17 Z M15.25,13 C15.25,13.414 15.586,13.75 16,13.75 L18,13.75 C18.414,13.75 18.75,13.414 18.75,13 C18.75,12.586 18.414,12.25 18,12.25 L16,12.25 C15.586,12.25 15.25,12.586 15.25,13 Z"/>
</svg>

