<svg xmlns="http://www.w3.org/2000/svg" viewBox="0 0 24 24">
  <defs/>
  <path fill="#151E28" d="M6.2,2.25 L7.831,2.25 C8.365,2.25 8.81,2.25 9.175,2.28 C9.555,2.311 9.911,2.378 10.248,2.55 C10.766,2.813 11.187,3.234 11.45,3.752 C11.622,4.089 11.689,4.445 11.72,4.825 C11.75,5.19 11.75,5.635 11.75,6.17 L11.75,17 C11.75,17.065 11.749,17.129 11.746,17.193 L16.469,12.471 C16.469,12.47 16.47,12.469 16.471,12.469 L18.707,10.233 C19.112,9.828 19.383,9.556 19.575,9.329 C19.761,9.11 19.829,8.983 19.86,8.886 C19.942,8.635 19.942,8.365 19.86,8.114 C19.829,8.017 19.761,7.89 19.575,7.671 C19.383,7.444 19.111,7.172 18.707,6.768 L17.732,5.793 C17.327,5.388 17.055,5.117 16.829,4.925 C16.609,4.739 16.483,4.671 16.386,4.64 C16.135,4.558 15.864,4.558 15.613,4.64 C15.517,4.671 15.39,4.739 15.17,4.925 C14.944,5.117 14.672,5.389 14.267,5.793 L13.53,6.53 C13.238,6.823 12.763,6.823 12.47,6.53 C12.177,6.238 12.177,5.763 12.47,5.47 L13.206,4.733 L13.228,4.711 C13.606,4.333 13.921,4.018 14.199,3.782 C14.49,3.535 14.79,3.33 15.15,3.213 C15.702,3.034 16.297,3.034 16.849,3.213 C17.209,3.33 17.509,3.535 17.799,3.781 C18.078,4.018 18.393,4.333 18.771,4.711 L18.771,4.711 L18.793,4.732 L19.767,5.707 L19.789,5.728 L19.789,5.728 C20.167,6.106 20.482,6.421 20.718,6.7 C20.965,6.991 21.17,7.29 21.287,7.65 C21.466,8.203 21.466,8.797 21.287,9.35 C21.17,9.71 20.965,10.009 20.719,10.3 C20.482,10.579 20.167,10.894 19.789,11.272 L19.767,11.293 L18.801,12.259 C18.934,12.264 19.059,12.27 19.175,12.28 C19.555,12.311 19.911,12.378 20.249,12.55 C20.766,12.813 21.187,13.234 21.45,13.752 C21.622,14.089 21.689,14.445 21.72,14.825 C21.75,15.19 21.75,15.635 21.75,16.17 L21.75,17.83 C21.75,18.365 21.75,18.81 21.72,19.175 C21.689,19.555 21.622,19.911 21.45,20.249 C21.187,20.766 20.766,21.187 20.249,21.45 C19.911,21.622 19.555,21.689 19.175,21.72 C18.81,21.75 18.365,21.75 17.83,21.75 L7,21.75 C4.377,21.75 2.25,19.623 2.25,17 L2.25,6.169 C2.25,5.635 2.25,5.19 2.28,4.825 C2.311,4.445 2.378,4.089 2.55,3.752 C2.813,3.234 3.234,2.813 3.752,2.55 C4.089,2.378 4.445,2.311 4.825,2.28 C5.19,2.25 5.635,2.25 6.169,2.25 L6.2,2.25 Z M5,8.25 C4.586,8.25 4.25,8.586 4.25,9 C4.25,9.414 4.586,9.75 5,9.75 L9,9.75 C9.414,9.75 9.75,9.414 9.75,9 C9.75,8.586 9.414,8.25 9,8.25 Z M8,17 C8,16.448 7.552,16 7,16 C6.448,16 6,16.448 6,17 C6,17.552 6.448,18 7,18 C7.552,18 8,17.552 8,17 Z"/>
</svg>

