<svg xmlns="http://www.w3.org/2000/svg" viewBox="0 0 24 24">
  <defs/>
  <path fill="#151E28" d="M10.367,1.25 L13.634,1.25 C14.725,1.25 15.591,1.25 16.288,1.307 C17.002,1.365 17.605,1.487 18.156,1.768 C19.05,2.223 19.777,2.95 20.232,3.844 C20.513,4.395 20.635,4.998 20.693,5.712 C20.75,6.409 20.75,7.275 20.75,8.367 L20.75,15.633 C20.75,16.725 20.75,17.591 20.693,18.288 C20.635,19.002 20.513,19.605 20.232,20.156 C19.777,21.05 19.05,21.777 18.156,22.232 C17.605,22.513 17.002,22.635 16.288,22.693 C15.591,22.75 14.725,22.75 13.633,22.75 L10.367,22.75 C9.275,22.75 8.409,22.75 7.712,22.693 C6.998,22.635 6.395,22.513 5.844,22.232 C4.95,21.777 4.223,21.05 3.768,20.156 C3.487,19.605 3.365,19.002 3.307,18.288 C3.25,17.591 3.25,16.725 3.25,15.633 L3.25,8.367 C3.25,7.275 3.25,6.409 3.307,5.712 C3.365,4.998 3.487,4.395 3.768,3.844 C4.223,2.95 4.95,2.223 5.844,1.768 C6.395,1.487 6.998,1.365 7.712,1.307 C8.409,1.25 9.275,1.25 10.366,1.25 L10.367,1.25 Z M10,18.25 C9.586,18.25 9.25,18.586 9.25,19 C9.25,19.414 9.586,19.75 10,19.75 L13.5,19.75 C13.914,19.75 14.25,19.414 14.25,19 C14.25,18.586 13.914,18.25 13.5,18.25 Z M9.292,2.753 C9.265,2.83 9.25,2.913 9.25,3 C9.25,3.414 9.586,3.75 10,3.75 L13.5,3.75 C13.914,3.75 14.25,3.414 14.25,3 C14.25,2.912 14.235,2.828 14.208,2.75 C14.016,2.75 13.814,2.75 13.6,2.75 L10.4,2.75 C9.99,2.75 9.623,2.75 9.292,2.753 Z"/>
</svg>

