<svg xmlns="http://www.w3.org/2000/svg" viewBox="0 0 24 24">
  <defs/>
  <path fill="#151E28" d="M6.768,1.25 L11.232,1.25 C12.045,1.25 12.701,1.25 13.231,1.293 C13.778,1.338 14.258,1.432 14.703,1.659 C15.408,2.018 15.982,2.592 16.341,3.298 C16.568,3.742 16.662,4.222 16.707,4.769 C16.75,5.299 16.75,5.955 16.75,6.768 L16.75,11.232 C16.75,12.045 16.75,12.701 16.707,13.231 C16.662,13.778 16.568,14.258 16.341,14.703 C15.982,15.408 15.408,15.982 14.703,16.341 C14.258,16.568 13.778,16.662 13.231,16.707 C12.701,16.75 12.045,16.75 11.232,16.75 L6.768,16.75 C5.955,16.75 5.299,16.75 4.769,16.707 C4.222,16.662 3.742,16.568 3.298,16.341 C2.592,15.982 2.018,15.408 1.659,14.703 C1.432,14.258 1.338,13.778 1.293,13.231 C1.25,12.701 1.25,12.045 1.25,11.232 L1.25,6.768 C1.25,5.955 1.25,5.299 1.293,4.769 C1.338,4.222 1.432,3.742 1.659,3.298 C2.018,2.592 2.592,2.018 3.298,1.659 C3.742,1.432 4.222,1.338 4.769,1.293 C5.299,1.25 5.955,1.25 6.768,1.25 Z M18.5,7.25 L19,7.25 C21.071,7.25 22.75,8.929 22.75,11 L22.75,19 C22.75,21.071 21.071,22.75 19,22.75 L11,22.75 C8.929,22.75 7.25,21.071 7.25,19 L7.25,18.5 C7.25,18.086 7.586,17.75 8,17.75 C8.414,17.75 8.75,18.086 8.75,18.5 L8.75,19 C8.75,20.243 9.757,21.25 11,21.25 L19,21.25 C20.243,21.25 21.25,20.243 21.25,19 L21.25,11 C21.25,9.757 20.243,8.75 19,8.75 L18.5,8.75 C18.086,8.75 17.75,8.414 17.75,8 C17.75,7.586 18.086,7.25 18.5,7.25 Z"/>
</svg>

