<svg xmlns="http://www.w3.org/2000/svg" viewBox="0 0 24 24">
  <defs/>
  <path fill="#151E28" d="M8.988,5.25 L17.83,5.25 C18.365,5.25 18.81,5.25 19.175,5.28 C19.555,5.311 19.911,5.378 20.249,5.55 C20.766,5.813 21.187,6.234 21.45,6.752 C21.622,7.089 21.689,7.445 21.72,7.825 C21.75,8.19 21.75,8.635 21.75,9.17 L21.75,13.232 C21.75,14.045 21.75,14.701 21.707,15.231 C21.662,15.778 21.568,16.258 21.341,16.702 C20.982,17.408 20.408,17.982 19.702,18.341 C19.258,18.568 18.778,18.662 18.232,18.707 C17.701,18.75 17.045,18.75 16.232,18.75 L8.903,18.75 C8.251,18.75 7.8,18.75 7.367,18.646 C6.985,18.555 6.619,18.403 6.283,18.197 C5.904,17.965 5.585,17.646 5.124,17.185 L5.064,17.125 L3.864,15.925 L3.841,15.902 C3.266,15.327 2.803,14.863 2.458,14.457 C2.103,14.039 1.83,13.633 1.676,13.159 C1.431,12.406 1.431,11.594 1.676,10.841 C1.83,10.367 2.103,9.961 2.458,9.543 C2.803,9.137 3.266,8.673 3.841,8.098 L3.864,8.075 L5.064,6.875 L5.124,6.815 C5.585,6.354 5.904,6.035 6.283,5.803 C6.619,5.597 6.985,5.445 7.367,5.354 C7.8,5.25 8.251,5.25 8.902,5.25 Z M12,12 C12,10.895 11.104,10 10,10 C8.895,10 8,10.895 8,12 C8,13.105 8.895,14 10,14 C11.104,14 12,13.105 12,12 Z"/>
</svg>

