<svg xmlns="http://www.w3.org/2000/svg" viewBox="0 0 24 24">
  <defs/>
  <path fill="#151E28" d="M14.351,3.805 L20.582,10.036 L20.603,10.057 C20.981,10.435 21.296,10.75 21.533,11.029 C21.779,11.319 21.984,11.619 22.101,11.979 C22.281,12.531 22.281,13.126 22.101,13.679 C21.984,14.039 21.779,14.338 21.533,14.629 C21.296,14.907 20.981,15.223 20.603,15.6 L20.582,15.622 L17.753,18.45 L17.731,18.473 C17.156,19.048 16.692,19.511 16.286,19.856 C15.868,20.211 15.462,20.484 14.988,20.638 C14.235,20.883 13.423,20.883 12.67,20.638 C12.196,20.484 11.79,20.211 11.372,19.856 C10.965,19.511 10.502,19.048 9.927,18.473 L9.904,18.45 L4.805,13.351 L4.745,13.29 C4.284,12.83 3.965,12.511 3.732,12.131 C3.526,11.796 3.375,11.43 3.283,11.047 C3.179,10.614 3.179,10.163 3.179,9.512 L3.179,9.426 L3.179,7.729 L3.179,7.697 C3.179,6.884 3.179,6.229 3.223,5.698 C3.267,5.151 3.362,4.671 3.588,4.227 C3.948,3.521 4.521,2.947 5.227,2.588 C5.671,2.362 6.151,2.267 6.698,2.223 C7.229,2.179 7.884,2.179 8.697,2.179 L8.729,2.179 L10.427,2.179 L10.512,2.179 C11.164,2.179 11.615,2.179 12.047,2.283 C12.43,2.375 12.796,2.526 13.131,2.732 C13.511,2.965 13.83,3.284 14.29,3.744 Z M12,9 C12,7.895 11.105,7 10,7 C8.896,7 8,7.895 8,9 C8,10.104 8.896,11 10,11 C11.105,11 12,10.104 12,9 Z"/>
</svg>

