<svg xmlns="http://www.w3.org/2000/svg" viewBox="0 0 24 24">
  <defs/>
  <path fill="#151E28" d="M11.851,4.804 L18.142,11.096 L18.164,11.117 C18.542,11.495 18.857,11.81 19.093,12.089 C19.34,12.379 19.545,12.679 19.662,13.039 C19.841,13.591 19.841,14.186 19.662,14.739 C19.545,15.099 19.34,15.398 19.093,15.689 C18.857,15.967 18.542,16.283 18.164,16.66 L18.142,16.682 L15.314,19.51 L15.291,19.533 C14.716,20.108 14.253,20.571 13.847,20.916 C13.429,21.271 13.022,21.544 12.548,21.698 C11.795,21.943 10.984,21.943 10.231,21.698 C9.756,21.544 9.35,21.271 8.932,20.916 C8.526,20.571 8.062,20.108 7.488,19.533 L7.465,19.51 L2.365,14.411 L2.305,14.35 L2.305,14.35 C1.844,13.89 1.525,13.571 1.292,13.191 C1.087,12.856 0.935,12.49 0.843,12.107 C0.74,11.674 0.74,11.224 0.74,10.572 L0.74,10.486 L0.74,8.789 L0.74,8.757 C0.74,7.944 0.74,7.289 0.783,6.758 C0.828,6.211 0.922,5.731 1.148,5.287 C1.508,4.581 2.082,4.007 2.787,3.648 C3.232,3.422 3.712,3.327 4.258,3.283 C4.789,3.239 5.445,3.239 6.258,3.239 L6.29,3.239 L7.987,3.239 L8.072,3.239 C8.724,3.239 9.175,3.239 9.608,3.343 C9.991,3.435 10.356,3.586 10.692,3.792 C11.071,4.025 11.39,4.344 11.851,4.804 Z M17.931,8.763 L14.394,5.227 C14.101,4.934 14.101,4.459 14.394,4.166 C14.687,3.873 15.162,3.873 15.455,4.166 L18.991,7.702 L19.015,7.726 C19.985,8.696 20.745,9.456 21.306,10.117 C21.878,10.791 22.287,11.41 22.515,12.113 C22.89,13.267 22.89,14.511 22.515,15.666 C22.287,16.369 21.878,16.988 21.306,17.661 C20.745,18.322 19.985,19.083 19.015,20.053 L18.991,20.076 L16.87,22.198 C16.577,22.491 16.102,22.491 15.809,22.198 C15.516,21.905 15.516,21.43 15.809,21.137 L17.931,19.016 C18.929,18.017 19.646,17.299 20.163,16.691 C20.674,16.088 20.946,15.642 21.089,15.203 C21.366,14.349 21.366,13.43 21.089,12.576 C20.946,12.137 20.674,11.69 20.163,11.088 C19.646,10.479 18.929,9.762 17.931,8.763 Z M7.147,12.475 C7.928,13.256 9.194,13.256 9.975,12.475 C10.756,11.693 10.756,10.427 9.975,9.646 C9.194,8.865 7.928,8.865 7.147,9.646 C6.366,10.427 6.366,11.693 7.147,12.475 Z"/>
</svg>

