<svg xmlns="http://www.w3.org/2000/svg" viewBox="0 0 24 24">
  <defs/>
  <path fill="#151E28" d="M3.886,11.25 L20.114,11.25 C22.034,11.25 23.363,13.168 22.689,14.966 L21.432,18.317 C20.883,19.78 19.484,20.75 17.921,20.75 L6.079,20.75 C4.516,20.75 3.117,19.78 2.568,18.317 L1.311,14.966 C0.637,13.168 1.966,11.25 3.886,11.25 Z M10.163,4.75 C9.194,4.75 8.334,5.37 8.028,6.288 L6.712,10.237 C6.581,10.63 6.156,10.842 5.763,10.712 C5.37,10.58 5.158,10.156 5.289,9.763 L6.605,5.814 C7.115,4.283 8.548,3.25 10.163,3.25 L13.838,3.25 C15.452,3.25 16.885,4.283 17.396,5.814 L17.541,6.25 L22,6.25 C22.414,6.25 22.75,6.586 22.75,7 C22.75,7.414 22.414,7.75 22,7.75 L18.041,7.75 L18.712,9.763 C18.843,10.156 18.63,10.58 18.237,10.712 C17.844,10.842 17.42,10.63 17.289,10.237 L15.972,6.288 C15.666,5.37 14.806,4.75 13.838,4.75 Z M12,17 C12.552,17 13,16.552 13,16 C13,15.448 12.552,15 12,15 C11.448,15 11,15.448 11,16 C11,16.552 11.448,17 12,17 Z M18,16 C18,15.448 17.552,15 17,15 C16.448,15 16,15.448 16,16 C16,16.552 16.448,17 17,17 C17.552,17 18,16.552 18,16 Z M8,16 C8,15.448 7.552,15 7,15 C6.448,15 6,15.448 6,16 C6,16.552 6.448,17 7,17 C7.552,17 8,16.552 8,16 Z"/>
</svg>

