<svg xmlns="http://www.w3.org/2000/svg" viewBox="0 0 24 24">
  <defs/>
  <path fill="#151E28" d="M2.278,11.25 C2.642,6.463 6.463,2.643 11.25,2.278 L11.25,4 C11.25,4.414 11.585,4.75 12,4.75 C12.414,4.75 12.75,4.414 12.75,4 L12.75,2.278 C17.537,2.642 21.357,6.463 21.722,11.25 L20,11.25 C19.586,11.25 19.25,11.586 19.25,12 C19.25,12.414 19.586,12.75 20,12.75 L21.722,12.75 C21.357,17.537 17.537,21.358 12.75,21.722 L12.75,20 C12.75,19.586 12.414,19.25 12,19.25 C11.585,19.25 11.25,19.586 11.25,20 L11.25,21.722 C6.463,21.357 2.642,17.537 2.278,12.75 L4,12.75 C4.414,12.75 4.75,12.414 4.75,12 C4.75,11.586 4.414,11.25 4,11.25 Z M12,9.25 C11.586,9.25 11.25,9.586 11.25,10 L11.25,11.25 L10,11.25 C9.586,11.25 9.25,11.586 9.25,12 C9.25,12.414 9.586,12.75 10,12.75 L11.25,12.75 L11.25,14 C11.25,14.414 11.586,14.75 12,14.75 C12.414,14.75 12.75,14.414 12.75,14 L12.75,12.75 L14,12.75 C14.414,12.75 14.75,12.414 14.75,12 C14.75,11.586 14.414,11.25 14,11.25 L12.75,11.25 L12.75,10 C12.75,9.586 12.414,9.25 12,9.25 Z"/>
</svg>

