<svg xmlns="http://www.w3.org/2000/svg" viewBox="0 0 24 24">
  <defs/>
  <path fill="#151E28" d="M12,1.25 C14.071,1.25 15.75,2.929 15.75,5 L15.75,12.641 C16.973,13.695 17.75,15.257 17.75,17 C17.75,20.176 15.176,22.75 12,22.75 C8.824,22.75 6.25,20.176 6.25,17 C6.25,15.257 7.027,13.695 8.25,12.641 L8.25,5 C8.25,2.929 9.929,1.25 12,1.25 Z M12,19 C13.105,19 14,18.105 14,17 C14,16.161 13.483,15.442 12.75,15.145 L12.75,5 C12.75,4.586 12.414,4.25 12,4.25 C11.586,4.25 11.25,4.586 11.25,5 L11.25,15.145 C10.517,15.442 10,16.161 10,17 C10,18.105 10.895,19 12,19 Z"/>
</svg>

