<svg xmlns="http://www.w3.org/2000/svg" viewBox="0 0 24 24">
  <defs/>
  <path fill="#151E28" d="M8.367,2.277 L15.634,2.277 C16.725,2.277 17.591,2.277 18.288,2.334 C19.002,2.393 19.605,2.514 20.156,2.795 C21.05,3.25 21.777,3.977 22.232,4.871 C22.513,5.422 22.635,6.026 22.693,6.739 C22.75,7.437 22.75,8.302 22.75,9.394 L22.75,14.633 C22.75,15.725 22.75,16.591 22.693,17.288 C22.635,18.002 22.513,18.605 22.232,19.156 C21.777,20.05 21.05,20.777 20.156,21.232 C19.605,21.513 19.002,21.635 18.288,21.693 C17.591,21.75 16.725,21.75 15.633,21.75 L8.367,21.75 C7.275,21.75 6.409,21.75 5.712,21.693 C4.998,21.635 4.395,21.513 3.844,21.232 C2.95,20.777 2.223,20.05 1.768,19.156 C1.487,18.605 1.365,18.002 1.307,17.288 C1.25,16.591 1.25,15.725 1.25,14.633 L1.25,9.394 C1.25,8.302 1.25,7.437 1.307,6.739 C1.365,6.026 1.487,5.422 1.768,4.871 C2.223,3.977 2.95,3.25 3.844,2.795 C4.395,2.514 4.998,2.393 5.712,2.334 C6.409,2.277 7.275,2.277 8.366,2.277 L8.367,2.277 Z M6.47,9.47 C6.177,9.763 6.177,10.237 6.47,10.53 L8.939,13 L6.47,15.47 C6.177,15.763 6.177,16.237 6.47,16.53 C6.763,16.823 7.237,16.823 7.53,16.53 L10.53,13.53 C10.823,13.237 10.823,12.763 10.53,12.47 L7.53,9.47 C7.237,9.177 6.763,9.177 6.47,9.47 Z M13,15.25 C12.586,15.25 12.25,15.586 12.25,16 C12.25,16.414 12.586,16.75 13,16.75 L17,16.75 C17.414,16.75 17.75,16.414 17.75,16 C17.75,15.586 17.414,15.25 17,15.25 Z"/>
</svg>

