<svg xmlns="http://www.w3.org/2000/svg" viewBox="0 0 24 24">
  <defs/>
  <path fill="#151E28" d="M8.31,3.25 L8.444,3.25 L14.83,3.25 C15.365,3.25 15.81,3.25 16.175,3.28 C16.555,3.311 16.911,3.378 17.249,3.55 C17.766,3.813 18.187,4.234 18.45,4.751 C18.622,5.089 18.689,5.445 18.72,5.825 C18.75,6.189 18.75,6.635 18.75,7.169 L18.75,13.747 C18.75,14.165 18.75,14.495 18.674,14.814 C18.607,15.094 18.496,15.362 18.345,15.608 C18.174,15.888 17.941,16.12 17.644,16.416 L17.593,16.468 L11.941,22.119 C11.538,22.523 10.99,22.75 10.419,22.75 C8.765,22.75 7.728,20.964 8.549,19.528 L10.708,15.75 L7.155,15.75 C6.472,15.75 5.91,15.75 5.461,15.71 C4.998,15.669 4.564,15.58 4.179,15.343 C3.598,14.986 3.171,14.427 2.979,13.773 C2.852,13.338 2.88,12.896 2.962,12.439 C3.042,11.995 3.19,11.453 3.37,10.794 L3.379,10.761 L4.633,6.161 L4.669,6.031 C4.863,5.315 5.016,4.753 5.351,4.319 C5.645,3.938 6.034,3.641 6.479,3.458 C6.986,3.249 7.567,3.249 8.31,3.25 Z M21,14.75 C20.586,14.75 20.25,14.414 20.25,14 L20.25,4 C20.25,3.586 20.586,3.25 21,3.25 C21.414,3.25 21.75,3.586 21.75,4 L21.75,14 C21.75,14.414 21.414,14.75 21,14.75 Z"/>
</svg>

