<svg xmlns="http://www.w3.org/2000/svg" viewBox="0 0 24 24">
  <defs/>
  <path fill="#151E28" d="M11.981,2.026 C12.412,1.533 13.036,1.25 13.691,1.25 C15.322,1.25 16.423,2.918 15.78,4.418 L14.137,8.25 L16.845,8.25 C17.528,8.25 18.09,8.25 18.539,8.29 C19.002,8.331 19.436,8.42 19.822,8.657 C20.402,9.014 20.829,9.573 21.021,10.227 C21.148,10.662 21.12,11.104 21.038,11.561 C20.958,12.005 20.81,12.547 20.63,13.206 L20.63,13.206 L20.621,13.239 L19.367,17.839 L19.331,17.969 C19.137,18.685 18.984,19.247 18.649,19.681 C18.355,20.062 17.966,20.359 17.521,20.542 C17.014,20.751 16.433,20.751 15.691,20.75 L15.69,20.75 L15.556,20.75 L9.17,20.75 C8.635,20.75 8.19,20.75 7.825,20.72 C7.445,20.689 7.089,20.622 6.752,20.45 C6.234,20.187 5.813,19.766 5.55,19.249 C5.378,18.911 5.311,18.555 5.28,18.175 C5.25,17.81 5.25,17.365 5.25,16.83 L5.25,11.202 L5.25,11.137 C5.25,10.756 5.25,10.456 5.314,10.163 C5.37,9.905 5.464,9.657 5.591,9.425 C5.735,9.163 5.933,8.937 6.184,8.651 L6.227,8.601 Z M3.75,10 L3.75,20 C3.75,20.414 3.414,20.75 3,20.75 C2.586,20.75 2.25,20.414 2.25,20 L2.25,10 C2.25,9.586 2.586,9.25 3,9.25 C3.414,9.25 3.75,9.586 3.75,10 Z"/>
</svg>

