<svg xmlns="http://www.w3.org/2000/svg" viewBox="0 0 24 24">
  <defs/>
  <path fill="#151E28" d="M1.25,12 C1.25,7.72 4.72,4.25 9,4.25 L15,4.25 C19.28,4.25 22.75,7.72 22.75,12 C22.75,16.28 19.28,19.75 15,19.75 L9,19.75 C4.72,19.75 1.25,16.28 1.25,12 Z M9,5.75 C5.548,5.75 2.75,8.548 2.75,12 C2.75,15.452 5.548,18.25 9,18.25 L15,18.25 C18.452,18.25 21.25,15.452 21.25,12 C21.25,8.548 18.452,5.75 15,5.75 Z M10.25,12 C10.25,9.377 12.377,7.25 15,7.25 C17.623,7.25 19.75,9.377 19.75,12 C19.75,14.623 17.623,16.75 15,16.75 C12.377,16.75 10.25,14.623 10.25,12 Z"/>
</svg>

