<svg xmlns="http://www.w3.org/2000/svg" viewBox="0 0 24 24">
  <defs/>
  <path fill="#151E28" d="M10.336,3.329 C11.928,4.125 12.591,5.32 12.814,6.392 C13.13,6.412 13.446,6.444 13.761,6.488 C14.339,6.569 14.971,6.683 15.582,6.926 C16.513,7.296 17.36,7.807 18.087,8.431 C18.269,8.586 18.365,8.818 18.347,9.056 C18.329,9.294 18.199,9.509 17.997,9.636 L16.75,10.415 L16.75,12 C16.75,12.231 16.644,12.449 16.462,12.591 C16.28,12.733 16.042,12.783 15.818,12.727 L12,11.773 L8.182,12.727 C7.958,12.783 7.721,12.733 7.539,12.591 C7.357,12.449 7.25,12.231 7.25,12 L7.25,10.415 L6.004,9.636 C5.802,9.509 5.672,9.294 5.654,9.056 C5.636,8.818 5.732,8.586 5.913,8.431 C6.641,7.807 7.488,7.296 8.419,6.926 C9.03,6.683 9.662,6.569 10.24,6.488 C10.58,6.441 10.921,6.407 11.263,6.387 C11.066,5.787 10.624,5.15 9.665,4.671 C9.294,4.485 9.144,4.035 9.329,3.665 C9.515,3.294 9.965,3.144 10.336,3.329 Z M5.128,10.341 C5.492,10.538 5.627,10.994 5.429,11.358 C4.992,12.163 4.75,13.057 4.75,14 C4.75,17.361 7.899,20.25 12,20.25 C16.101,20.25 19.25,17.361 19.25,14 C19.25,13.057 19.008,12.163 18.571,11.358 C18.374,10.994 18.508,10.538 18.872,10.341 C19.237,10.143 19.692,10.278 19.889,10.642 C20.44,11.656 20.75,12.795 20.75,14 C20.75,18.371 16.736,21.75 12,21.75 C7.265,21.75 3.25,18.371 3.25,14 C3.25,12.795 3.561,11.656 4.111,10.642 C4.309,10.278 4.764,10.143 5.128,10.341 Z"/>
</svg>

