<svg xmlns="http://www.w3.org/2000/svg" viewBox="0 0 24 24">
  <defs/>
  <path fill="#151E28" d="M4.619,7.988 C4.761,7.836 4.959,7.75 5.167,7.75 L18.833,7.75 C19.041,7.75 19.239,7.836 19.381,7.988 C19.523,8.139 19.596,8.343 19.582,8.55 L19.047,16.569 L19.045,16.6 C18.994,17.363 18.953,17.98 18.88,18.479 C18.804,18.993 18.687,19.443 18.452,19.856 C18.077,20.515 17.511,21.044 16.829,21.375 C16.401,21.582 15.944,21.669 15.426,21.71 C14.923,21.75 14.305,21.75 13.54,21.75 L10.46,21.75 C9.695,21.75 9.077,21.75 8.574,21.71 C8.056,21.669 7.599,21.582 7.171,21.375 C6.489,21.044 5.923,20.515 5.548,19.856 C5.313,19.443 5.196,18.993 5.12,18.479 C5.047,17.98 5.006,17.363 4.955,16.6 L4.953,16.569 L4.418,8.55 C4.405,8.343 4.477,8.139 4.619,7.988 Z M10.561,2.25 L13.439,2.25 C13.553,2.25 13.641,2.25 13.725,2.255 C14.785,2.319 15.714,2.989 16.11,3.974 C16.141,4.052 16.169,4.136 16.205,4.243 L16.212,4.263 C16.257,4.399 16.27,4.436 16.282,4.466 C16.462,4.914 16.884,5.219 17.366,5.248 C17.398,5.25 17.438,5.25 17.581,5.25 L21,5.25 C21.414,5.25 21.75,5.586 21.75,6 C21.75,6.414 21.414,6.75 21,6.75 L17.561,6.75 L17.548,6.75 L17.523,6.75 L6.477,6.75 L6.452,6.75 L6.439,6.75 L3,6.75 C2.586,6.75 2.25,6.414 2.25,6 C2.25,5.586 2.586,5.25 3,5.25 L6.419,5.25 C6.562,5.25 6.602,5.25 6.634,5.248 C7.116,5.219 7.538,4.914 7.718,4.466 C7.73,4.436 7.743,4.399 7.788,4.263 L7.795,4.243 L7.795,4.243 L7.795,4.243 C7.831,4.136 7.859,4.052 7.89,3.974 C8.286,2.989 9.215,2.319 10.275,2.255 C10.359,2.25 10.447,2.25 10.561,2.25 Z M9.008,5.25 L14.992,5.25 C14.955,5.177 14.921,5.102 14.89,5.026 C14.859,4.948 14.831,4.864 14.795,4.757 L14.788,4.737 C14.743,4.601 14.73,4.564 14.718,4.534 C14.538,4.086 14.116,3.781 13.634,3.752 C13.602,3.75 13.562,3.75 13.419,3.75 L10.581,3.75 C10.438,3.75 10.398,3.75 10.366,3.752 C9.884,3.781 9.462,4.086 9.282,4.534 C9.27,4.564 9.257,4.601 9.212,4.737 L9.205,4.757 L9.205,4.757 L9.205,4.757 C9.169,4.864 9.141,4.948 9.11,5.026 C9.079,5.102 9.045,5.177 9.008,5.25 Z"/>
</svg>

