<svg xmlns="http://www.w3.org/2000/svg" viewBox="0 0 24 24">
  <defs/>
  <path fill="#151E28" d="M11.129,19.839 C10.066,19.839 8.891,19.738 7.834,19.375 C6.766,19.008 5.775,18.356 5.179,17.236 C4.57,16.091 4.25,14.68 4.25,13 C4.25,10.99 5.246,8.789 6.418,6.868 C7.606,4.923 9.048,3.151 10.08,1.975 C11.107,0.803 12.893,0.803 13.92,1.975 C14.952,3.151 16.394,4.923 17.582,6.868 C18.754,8.789 19.75,10.99 19.75,13 C19.75,14.68 19.43,16.091 18.821,17.236 C18.225,18.356 17.234,19.008 16.166,19.375 C15.109,19.738 13.934,19.839 12.871,19.839 L12.75,19.839 L12.75,22 C12.75,22.414 12.414,22.75 12,22.75 C11.586,22.75 11.25,22.414 11.25,22 L11.25,19.839 Z M9.531,11.47 C9.238,11.177 8.763,11.177 8.47,11.47 C8.177,11.763 8.177,12.238 8.47,12.53 L11.25,15.311 L11.25,17 C11.25,17.414 11.586,17.75 12,17.75 C12.414,17.75 12.75,17.414 12.75,17 L12.75,6 C12.75,5.586 12.414,5.25 12,5.25 C11.586,5.25 11.25,5.586 11.25,6 L11.25,13.189 Z"/>
</svg>

