<svg xmlns="http://www.w3.org/2000/svg" viewBox="0 0 24 24">
  <defs/>
  <path fill="#151E28" d="M3.25,10.5 C3.25,5.944 6.944,2.25 11.5,2.25 L12.5,2.25 C17.056,2.25 20.75,5.944 20.75,10.5 L20.75,11.5 C20.75,15.973 17.191,19.614 12.75,19.746 L12.75,22 C12.75,22.414 12.414,22.75 12,22.75 C11.586,22.75 11.25,22.414 11.25,22 L11.25,19.746 C6.809,19.614 3.25,15.973 3.25,11.5 Z M12,5.25 C11.586,5.25 11.25,5.586 11.25,6 L11.25,13.189 L9.531,11.47 C9.238,11.177 8.763,11.177 8.47,11.47 C8.177,11.762 8.177,12.237 8.47,12.53 L11.25,15.311 L11.25,17 C11.25,17.414 11.586,17.75 12,17.75 C12.414,17.75 12.75,17.414 12.75,17 L12.75,12.311 L15.53,9.53 C15.823,9.237 15.823,8.763 15.53,8.47 C15.237,8.177 14.762,8.177 14.47,8.47 L12.75,10.189 L12.75,6 C12.75,5.586 12.414,5.25 12,5.25 Z"/>
</svg>

