<svg xmlns="http://www.w3.org/2000/svg" viewBox="0 0 24 24">
  <defs/>
  <path fill="#151E28" d="M12.75,17.75 L12.75,22 C12.75,22.414 12.414,22.75 12,22.75 C11.586,22.75 11.25,22.414 11.25,22 L11.25,17.75 L7,17.75 C4.929,17.75 3.25,16.071 3.25,14 C3.25,12.486 4.147,11.182 5.438,10.59 C5.315,10.08 5.25,9.547 5.25,9 C5.25,5.272 8.272,2.25 12,2.25 C15.728,2.25 18.75,5.272 18.75,9 C18.75,9.547 18.685,10.08 18.562,10.59 C19.853,11.182 20.75,12.486 20.75,14 C20.75,16.071 19.071,17.75 17,17.75 L12.75,17.75 Z M12,7.25 C11.586,7.25 11.25,7.586 11.25,8 L11.25,15 C11.25,15.414 11.586,15.75 12,15.75 C12.414,15.75 12.75,15.414 12.75,15 L12.75,8 C12.75,7.586 12.414,7.25 12,7.25 Z"/>
</svg>

