<svg xmlns="http://www.w3.org/2000/svg" viewBox="0 0 24 24">
  <defs/>
  <path fill="#151E28" d="M3.253,18.647 C2.097,18.322 1.25,17.26 1.25,16 L1.25,8 C1.25,5.377 3.377,3.25 6,3.25 L11,3.25 C12.599,3.25 14.012,4.04 14.873,5.25 L15.07,5.25 C15.933,5.25 16.442,5.25 16.881,5.308 C19.91,5.707 22.294,8.09 22.692,11.119 C22.75,11.557 22.75,12.066 22.75,12.925 L22.75,15 C22.75,16.816 21.459,18.33 19.745,18.676 C19.654,20.389 18.236,21.75 16.5,21.75 C14.789,21.75 13.387,20.428 13.259,18.75 L9.741,18.75 C9.613,20.428 8.211,21.75 6.5,21.75 C4.754,21.75 3.33,20.374 3.253,18.647 Z M21.248,12.25 C21.245,11.801 21.235,11.54 21.205,11.315 C20.895,8.959 19.041,7.105 16.685,6.795 C16.433,6.762 16.137,6.753 15.584,6.751 C15.692,7.149 15.75,7.568 15.75,8 L15.75,9 C15.75,10.795 17.205,12.25 19,12.25 Z M16.5,16.75 C15.533,16.75 14.75,17.534 14.75,18.5 C14.75,19.466 15.533,20.25 16.5,20.25 C17.466,20.25 18.25,19.466 18.25,18.5 C18.25,17.534 17.466,16.75 16.5,16.75 Z M6.5,16.75 C5.534,16.75 4.75,17.534 4.75,18.5 C4.75,19.466 5.534,20.25 6.5,20.25 C7.466,20.25 8.25,19.466 8.25,18.5 C8.25,17.534 7.466,16.75 6.5,16.75 Z"/>
</svg>

