<svg xmlns="http://www.w3.org/2000/svg" viewBox="0 0 24 24">
  <defs/>
  <path fill="#151E28" d="M8.45,1.4 L10.53,2.96 C11.272,3.516 11.48,3.656 11.682,3.709 C11.89,3.764 12.11,3.764 12.318,3.709 C12.52,3.656 12.728,3.516 13.47,2.96 L15.55,1.4 C15.881,1.152 16.351,1.219 16.6,1.55 C16.849,1.881 16.781,2.352 16.45,2.6 L14.37,4.16 L14.265,4.239 C14.26,4.243 14.254,4.247 14.249,4.251 C15.168,4.254 15.781,4.273 16.317,4.38 C18.995,4.912 21.088,7.006 21.62,9.683 C21.75,10.336 21.75,11.1 21.75,12.394 L21.75,12.607 C21.75,13.9 21.75,14.664 21.62,15.317 C21.142,17.72 19.407,19.653 17.12,20.409 L18.143,22.114 C18.356,22.469 18.241,22.93 17.886,23.143 C17.531,23.356 17.07,23.241 16.857,22.886 L15.555,20.716 C15.051,20.75 14.44,20.75 13.613,20.75 L13.605,20.75 L13.5,20.75 L10.5,20.75 L10.395,20.75 L10.387,20.75 C9.56,20.75 8.949,20.75 8.445,20.716 L7.143,22.886 C6.93,23.241 6.469,23.356 6.114,23.143 C5.759,22.93 5.644,22.469 5.857,22.114 L6.88,20.409 C4.593,19.653 2.858,17.72 2.38,15.317 C2.25,14.664 2.25,13.899 2.25,12.605 L2.25,12.395 C2.25,11.101 2.25,10.336 2.38,9.683 C2.912,7.006 5.006,4.912 7.683,4.38 C8.22,4.273 8.832,4.254 9.751,4.251 C9.746,4.247 9.741,4.243 9.735,4.239 L9.63,4.16 L7.55,2.6 C7.219,2.352 7.152,1.881 7.4,1.55 C7.649,1.219 8.119,1.152 8.45,1.4 Z"/>
</svg>

