<svg xmlns="http://www.w3.org/2000/svg" viewBox="0 0 24 24">
  <defs/>
  <path fill="#151E28" d="M12,1.25 C17.937,1.25 22.75,6.063 22.75,12 C22.75,17.937 17.937,22.75 12,22.75 C6.063,22.75 1.25,17.937 1.25,12 C1.25,6.063 6.063,1.25 12,1.25 Z M15.257,14.104 L15.257,14.104 C15.315,14.514 15.693,14.8 16.103,14.743 C16.514,14.686 16.8,14.307 16.743,13.897 L16.003,14 C16.743,13.897 16.743,13.897 16.743,13.896 L16.743,13.896 L16.743,13.894 L16.742,13.891 L16.74,13.878 L16.734,13.838 C16.729,13.804 16.721,13.755 16.71,13.695 C16.688,13.574 16.654,13.405 16.607,13.203 C16.512,12.801 16.357,12.256 16.119,11.703 C15.677,10.675 14.776,9.25 13.111,9.25 C12.323,9.25 11.569,9.582 10.925,9.992 C10.272,10.409 9.661,10.951 9.147,11.473 C9.008,11.613 8.876,11.753 8.75,11.891 L8.75,11 C8.75,10.586 8.414,10.25 8,10.25 C7.586,10.25 7.25,10.586 7.25,11 L7.25,14 C7.25,14.414 7.586,14.75 8,14.75 L11,14.75 C11.414,14.75 11.75,14.414 11.75,14 C11.75,13.586 11.414,13.25 11,13.25 L9.548,13.25 C9.747,13.019 9.972,12.773 10.215,12.527 C10.686,12.049 11.208,11.591 11.731,11.257 C12.265,10.918 12.732,10.75 13.111,10.75 C13.78,10.75 14.323,11.325 14.742,12.297 C14.934,12.744 15.064,13.199 15.147,13.547 C15.188,13.72 15.216,13.863 15.233,13.961 C15.242,14.01 15.249,14.048 15.252,14.072 L15.256,14.099 Z"/>
</svg>

