<svg xmlns="http://www.w3.org/2000/svg" viewBox="0 0 24 24">
  <defs/>
  <path fill="#151E28" d="M13.117,2.479 C13.602,2.695 13.961,3.093 14.285,3.55 C14.606,4.004 14.961,4.617 15.399,5.375 L15.399,5.375 L15.418,5.408 L20.868,14.821 L20.887,14.854 C21.327,15.614 21.684,16.229 21.918,16.736 C22.154,17.245 22.321,17.756 22.266,18.285 C22.185,19.061 21.779,19.766 21.148,20.224 C20.718,20.537 20.192,20.648 19.633,20.699 C19.077,20.75 18.366,20.75 17.488,20.75 L6.512,20.75 C5.634,20.75 4.923,20.75 4.367,20.699 C3.808,20.648 3.282,20.537 2.852,20.224 C2.221,19.766 1.815,19.061 1.734,18.285 C1.679,17.756 1.846,17.245 2.082,16.736 C2.316,16.229 2.673,15.614 3.113,14.854 L3.132,14.821 L8.582,5.408 L8.601,5.375 C9.039,4.618 9.394,4.004 9.715,3.55 C10.039,3.093 10.398,2.695 10.883,2.479 C11.594,2.163 12.406,2.163 13.117,2.479 Z M15.257,16.104 L15.257,16.104 C15.315,16.514 15.693,16.8 16.103,16.743 C16.513,16.686 16.8,16.307 16.743,15.897 L16,16 C16.743,15.897 16.743,15.897 16.743,15.896 L16.743,15.896 L16.743,15.894 L16.742,15.891 L16.74,15.878 L16.734,15.838 C16.729,15.804 16.721,15.755 16.71,15.695 C16.688,15.574 16.654,15.405 16.607,15.203 C16.512,14.801 16.357,14.256 16.119,13.703 C15.677,12.675 14.776,11.25 13.111,11.25 C12.323,11.25 11.569,11.582 10.925,11.993 C10.271,12.409 9.661,12.951 9.147,13.473 C9.008,13.613 8.876,13.753 8.75,13.891 L8.75,13 C8.75,12.586 8.414,12.25 8,12.25 C7.586,12.25 7.25,12.586 7.25,13 L7.25,16 C7.25,16.414 7.586,16.75 8,16.75 L11,16.75 C11.414,16.75 11.75,16.414 11.75,16 C11.75,15.586 11.414,15.25 11,15.25 L9.547,15.25 C9.747,15.019 9.972,14.773 10.215,14.527 C10.686,14.049 11.208,13.591 11.731,13.257 C12.264,12.918 12.732,12.75 13.111,12.75 C13.78,12.75 14.323,13.325 14.742,14.297 C14.934,14.744 15.064,15.199 15.147,15.547 C15.188,15.72 15.216,15.863 15.233,15.961 C15.242,16.01 15.248,16.048 15.252,16.072 L15.256,16.098 Z"/>
</svg>

