<svg xmlns="http://www.w3.org/2000/svg" viewBox="0 0 24 24">
  <defs/>
  <path fill="#151E28" d="M10.7,4.503 C10.99,4.257 11.29,4.052 11.65,3.935 C12.202,3.756 12.797,3.756 13.35,3.935 C13.522,3.991 13.681,4.067 13.831,4.158 L14.656,3.333 L14.678,3.312 C15.056,2.934 15.371,2.619 15.65,2.382 C15.94,2.135 16.24,1.931 16.6,1.814 C17.152,1.634 17.747,1.634 18.299,1.814 C18.659,1.931 18.959,2.135 19.25,2.382 C19.528,2.619 19.844,2.934 20.221,3.312 L20.243,3.333 L20.667,3.757 L20.688,3.779 C21.066,4.157 21.381,4.472 21.618,4.75 C21.865,5.041 22.069,5.341 22.186,5.701 C22.366,6.253 22.366,6.848 22.186,7.4 C22.069,7.76 21.865,8.06 21.618,8.35 C21.381,8.629 21.066,8.944 20.688,9.322 L20.667,9.343 L19.841,10.169 C19.933,10.319 20.009,10.478 20.065,10.65 C20.244,11.203 20.244,11.798 20.065,12.35 C19.948,12.71 19.743,13.009 19.497,13.3 C19.26,13.579 18.945,13.894 18.567,14.272 L18.567,14.272 L18.546,14.293 L12.889,19.95 L12.866,19.973 C12.291,20.548 11.828,21.011 11.422,21.356 C11.003,21.711 10.597,21.984 10.123,22.138 C9.37,22.382 8.559,22.382 7.805,22.138 C7.331,21.984 6.925,21.711 6.507,21.356 C6.101,21.011 5.637,20.548 5.063,19.973 L5.04,19.95 L4.05,18.96 L4.027,18.937 C3.452,18.363 2.989,17.899 2.644,17.493 C2.289,17.075 2.016,16.669 1.862,16.194 C1.618,15.441 1.618,14.63 1.862,13.877 C2.016,13.403 2.289,12.996 2.644,12.578 C2.989,12.172 3.452,11.709 4.027,11.134 L4.05,11.111 L9.707,5.454 L9.728,5.433 C10.106,5.055 10.421,4.74 10.7,4.503 Z M18.863,9.026 L19.606,8.283 C20.011,7.878 20.282,7.606 20.474,7.38 C20.661,7.16 20.728,7.033 20.76,6.937 C20.841,6.686 20.841,6.415 20.76,6.164 C20.728,6.067 20.661,5.941 20.474,5.721 C20.282,5.495 20.011,5.223 19.606,4.818 L19.182,4.394 C18.777,3.989 18.505,3.718 18.279,3.526 C18.059,3.339 17.933,3.272 17.836,3.24 C17.585,3.159 17.314,3.159 17.063,3.24 C16.967,3.272 16.84,3.339 16.62,3.526 C16.394,3.718 16.122,3.989 15.717,4.394 L14.974,5.137 C15.069,5.23 15.168,5.329 15.271,5.433 L15.293,5.454 L18.546,8.707 L18.567,8.729 C18.671,8.832 18.77,8.931 18.863,9.026 Z M7.373,14.505 C7.08,14.212 6.605,14.212 6.312,14.505 C6.02,14.798 6.02,15.273 6.312,15.566 L8.434,17.687 C8.727,17.98 9.202,17.98 9.494,17.687 C9.787,17.394 9.787,16.92 9.494,16.627 Z"/>
</svg>

