<svg xmlns="http://www.w3.org/2000/svg" viewBox="0 0 24 24">
  <defs/>
  <path fill="#151E28" d="M2.25,19 C2.25,16.377 4.377,14.25 7,14.25 L13,14.25 C15.623,14.25 17.75,16.377 17.75,19 C17.75,20.519 16.519,21.75 15,21.75 L5,21.75 C3.481,21.75 2.25,20.519 2.25,19 Z M5.25,8 C5.25,5.377 7.377,3.25 10,3.25 C12.623,3.25 14.75,5.377 14.75,8 C14.75,10.623 12.623,12.75 10,12.75 C7.377,12.75 5.25,10.623 5.25,8 Z M21,6.25 C21.414,6.25 21.75,6.586 21.75,7 C21.75,7.414 21.414,7.75 21,7.75 L18.811,7.75 L22.531,11.47 C22.823,11.763 22.823,12.238 22.531,12.53 C22.238,12.823 21.763,12.823 21.47,12.53 L17.75,8.811 L17.75,11 C17.75,11.414 17.414,11.75 17,11.75 C16.586,11.75 16.25,11.414 16.25,11 L16.25,7 C16.25,6.586 16.586,6.25 17,6.25 Z"/>
</svg>

