<svg xmlns="http://www.w3.org/2000/svg" viewBox="0 0 24 24">
  <defs/>
  <path fill="#151E28" d="M8.367,3.25 L15.633,3.25 C16.725,3.25 17.591,3.25 18.288,3.307 C19.002,3.365 19.605,3.487 20.156,3.768 C21.05,4.223 21.777,4.95 22.232,5.844 C22.513,6.395 22.635,6.998 22.693,7.712 C22.75,8.409 22.75,9.275 22.75,10.367 L22.75,13.633 C22.75,14.725 22.75,15.591 22.693,16.288 C22.635,17.002 22.513,17.605 22.232,18.156 C21.777,19.05 21.05,19.777 20.156,20.232 C19.605,20.513 19.002,20.635 18.288,20.693 C17.591,20.75 16.725,20.75 15.633,20.75 L8.367,20.75 C7.275,20.75 6.409,20.75 5.712,20.693 C4.998,20.635 4.395,20.513 3.844,20.232 C2.95,19.777 2.223,19.05 1.768,18.156 C1.487,17.605 1.365,17.002 1.307,16.288 C1.25,15.591 1.25,14.725 1.25,13.633 L1.25,10.367 C1.25,9.275 1.25,8.409 1.307,7.712 C1.365,6.998 1.487,6.395 1.768,5.844 C2.223,4.95 2.95,4.223 3.844,3.768 C4.395,3.487 4.998,3.365 5.712,3.307 C6.409,3.25 7.275,3.25 8.367,3.25 Z M4.25,15.667 C4.25,16.817 5.183,17.75 6.333,17.75 L11.667,17.75 C12.817,17.75 13.75,16.817 13.75,15.667 C13.75,13.78 12.22,12.25 10.333,12.25 L7.667,12.25 C5.78,12.25 4.25,13.78 4.25,15.667 Z M9,6.25 C7.481,6.25 6.25,7.481 6.25,9 C6.25,10.519 7.481,11.75 9,11.75 C10.519,11.75 11.75,10.519 11.75,9 C11.75,7.481 10.519,6.25 9,6.25 Z M7.667,13.75 L10.333,13.75 C11.392,13.75 12.25,14.608 12.25,15.667 C12.25,15.989 11.989,16.25 11.667,16.25 L6.333,16.25 C6.011,16.25 5.75,15.989 5.75,15.667 C5.75,14.608 6.608,13.75 7.667,13.75 Z M15,7.25 C14.586,7.25 14.25,7.586 14.25,8 C14.25,8.414 14.586,8.75 15,8.75 L19,8.75 C19.414,8.75 19.75,8.414 19.75,8 C19.75,7.586 19.414,7.25 19,7.25 Z M15.25,12 C15.25,12.414 15.586,12.75 16,12.75 L19,12.75 C19.414,12.75 19.75,12.414 19.75,12 C19.75,11.586 19.414,11.25 19,11.25 L16,11.25 C15.586,11.25 15.25,11.586 15.25,12 Z M7.75,9 C7.75,8.31 8.31,7.75 9,7.75 C9.69,7.75 10.25,8.31 10.25,9 C10.25,9.69 9.69,10.25 9,10.25 C8.31,10.25 7.75,9.69 7.75,9 Z M16.25,16 C16.25,16.414 16.586,16.75 17,16.75 L19,16.75 C19.414,16.75 19.75,16.414 19.75,16 C19.75,15.586 19.414,15.25 19,15.25 L17,15.25 C16.586,15.25 16.25,15.586 16.25,16 Z"/>
</svg>

