<svg xmlns="http://www.w3.org/2000/svg" viewBox="0 0 24 24">
  <defs/>
  <path fill="#151E28" d="M2.25,19 C2.25,16.377 4.377,14.25 7,14.25 L13,14.25 C15.623,14.25 17.75,16.377 17.75,19 C17.75,20.519 16.519,21.75 15,21.75 L5,21.75 C3.481,21.75 2.25,20.519 2.25,19 Z M5.25,8 C5.25,5.377 7.377,3.25 10,3.25 C12.623,3.25 14.75,5.377 14.75,8 C14.75,10.623 12.623,12.75 10,12.75 C7.377,12.75 5.25,10.623 5.25,8 Z M19.53,12.53 C19.237,12.823 18.763,12.823 18.47,12.53 L16.47,10.53 C16.177,10.237 16.177,9.763 16.47,9.47 C16.763,9.177 17.237,9.177 17.53,9.47 L19,10.939 L22.47,7.47 C22.763,7.177 23.237,7.177 23.53,7.47 C23.823,7.763 23.823,8.237 23.53,8.53 Z"/>
</svg>

