<svg xmlns="http://www.w3.org/2000/svg" viewBox="0 0 24 24">
  <defs/>
  <path fill="#151E28" d="M2.25,19 C2.25,16.377 4.377,14.25 7,14.25 L13,14.25 C15.623,14.25 17.75,16.377 17.75,19 C17.75,20.519 16.519,21.75 15,21.75 L5,21.75 C3.481,21.75 2.25,20.519 2.25,19 Z M5.25,8 C5.25,5.377 7.377,3.25 10,3.25 C12.623,3.25 14.75,5.377 14.75,8 C14.75,10.623 12.623,12.75 10,12.75 C7.377,12.75 5.25,10.623 5.25,8 Z M20.531,6.47 L23.531,9.47 C23.664,9.603 23.737,9.775 23.749,9.949 C23.752,9.998 23.75,10.047 23.744,10.097 C23.726,10.238 23.667,10.375 23.568,10.49 C23.555,10.505 23.541,10.52 23.527,10.534 L20.531,13.53 C20.238,13.823 19.763,13.823 19.47,13.53 C19.177,13.238 19.177,12.763 19.47,12.47 L21.19,10.75 L17,10.75 C16.586,10.75 16.25,10.414 16.25,10 C16.25,9.586 16.586,9.25 17,9.25 L21.19,9.25 L19.47,7.53 C19.177,7.237 19.177,6.763 19.47,6.47 C19.763,6.177 20.238,6.177 20.531,6.47 Z"/>
</svg>

