<svg xmlns="http://www.w3.org/2000/svg" viewBox="0 0 24 24">
  <defs/>
  <path fill="#151E28" d="M2.25,19 C2.25,16.377 4.377,14.25 7,14.25 L13,14.25 C15.623,14.25 17.75,16.377 17.75,19 C17.75,20.519 16.519,21.75 15,21.75 L5,21.75 C3.481,21.75 2.25,20.519 2.25,19 Z M10,3.25 C12.623,3.25 14.75,5.377 14.75,8 C14.75,10.623 12.623,12.75 10,12.75 C7.377,12.75 5.25,10.623 5.25,8 C5.25,5.377 7.377,3.25 10,3.25 Z M16,3.25 C18.623,3.25 20.75,5.377 20.75,8 C20.75,10.623 18.623,12.75 16,12.75 C15.586,12.75 15.25,12.414 15.25,12 C15.25,11.586 15.586,11.25 16,11.25 C17.795,11.25 19.25,9.795 19.25,8 C19.25,6.205 17.795,4.75 16,4.75 C15.586,4.75 15.25,4.414 15.25,4 C15.25,3.586 15.586,3.25 16,3.25 Z M18,14.25 L19,14.25 C21.623,14.25 23.75,16.377 23.75,19 C23.75,20.519 22.519,21.75 21,21.75 L19,21.75 C18.586,21.75 18.25,21.414 18.25,21 C18.25,20.586 18.586,20.25 19,20.25 L21,20.25 C21.69,20.25 22.25,19.69 22.25,19 C22.25,17.205 20.795,15.75 19,15.75 L18,15.75 C17.586,15.75 17.25,15.414 17.25,15 C17.25,14.586 17.586,14.25 18,14.25 Z"/>
</svg>

