<svg xmlns="http://www.w3.org/2000/svg" viewBox="0 0 24 24">
  <defs/>
  <path fill="#151E28" d="M2.25,19 C2.25,16.377 4.377,14.25 7,14.25 L13,14.25 C15.623,14.25 17.75,16.377 17.75,19 C17.75,20.519 16.519,21.75 15,21.75 L5,21.75 C3.481,21.75 2.25,20.519 2.25,19 Z M5.25,8 C5.25,5.377 7.377,3.25 10,3.25 C12.623,3.25 14.75,5.377 14.75,8 C14.75,10.623 12.623,12.75 10,12.75 C7.377,12.75 5.25,10.623 5.25,8 Z M21,12.75 L17,12.75 C16.586,12.75 16.25,12.414 16.25,12 L16.25,8 C16.25,7.586 16.586,7.25 17,7.25 C17.414,7.25 17.75,7.586 17.75,8 L17.75,10.189 L21.47,6.47 C21.763,6.177 22.238,6.177 22.531,6.47 C22.823,6.763 22.823,7.237 22.531,7.53 L18.811,11.25 L21,11.25 C21.414,11.25 21.75,11.586 21.75,12 C21.75,12.414 21.414,12.75 21,12.75 Z"/>
</svg>

