<svg xmlns="http://www.w3.org/2000/svg" viewBox="0 0 24 24">
  <defs/>
  <path fill="#151E28" d="M2.25,19 C2.25,16.377 4.377,14.25 7,14.25 L13,14.25 C15.623,14.25 17.75,16.377 17.75,19 C17.75,20.519 16.519,21.75 15,21.75 L5,21.75 C3.481,21.75 2.25,20.519 2.25,19 Z M5.25,8 C5.25,5.377 7.377,3.25 10,3.25 C12.623,3.25 14.75,5.377 14.75,8 C14.75,10.623 12.623,12.75 10,12.75 C7.377,12.75 5.25,10.623 5.25,8 Z M18,12.75 C17.586,12.75 17.25,12.414 17.25,12 C17.25,11.586 17.586,11.25 18,11.25 L20.19,11.25 L16.47,7.53 C16.177,7.237 16.177,6.763 16.47,6.47 C16.763,6.177 17.238,6.177 17.531,6.47 L21.25,10.189 L21.25,8 C21.25,7.586 21.586,7.25 22,7.25 C22.414,7.25 22.75,7.586 22.75,8 L22.75,12 C22.75,12.414 22.414,12.75 22,12.75 Z"/>
</svg>

