<svg xmlns="http://www.w3.org/2000/svg" viewBox="0 0 24 24">
  <defs/>
  <path fill="#151E28" d="M2.25,19 C2.25,16.377 4.377,14.25 7,14.25 L13,14.25 C15.623,14.25 17.75,16.377 17.75,19 C17.75,20.519 16.519,21.75 15,21.75 L5,21.75 C3.481,21.75 2.25,20.519 2.25,19 Z M5.25,8 C5.25,5.377 7.377,3.25 10,3.25 C12.623,3.25 14.75,5.377 14.75,8 C14.75,10.623 12.623,12.75 10,12.75 C7.377,12.75 5.25,10.623 5.25,8 Z M18.531,6.47 L20.5,8.439 L22.47,6.47 C22.763,6.177 23.237,6.177 23.53,6.47 C23.823,6.763 23.823,7.237 23.53,7.53 L21.561,9.5 L23.53,11.47 C23.823,11.763 23.823,12.238 23.53,12.53 C23.237,12.823 22.763,12.823 22.47,12.53 L20.5,10.561 L18.531,12.53 C18.238,12.823 17.763,12.823 17.47,12.53 C17.177,12.238 17.177,11.763 17.47,11.47 L19.44,9.5 L17.47,7.53 C17.177,7.237 17.177,6.763 17.47,6.47 C17.763,6.177 18.238,6.177 18.531,6.47 Z"/>
</svg>

