<svg xmlns="http://www.w3.org/2000/svg" viewBox="0 0 24 24">
  <defs/>
  <path fill="#151E28" d="M2.25,19 C2.25,16.377 4.377,14.25 7,14.25 L13,14.25 C15.623,14.25 17.75,16.377 17.75,19 C17.75,20.519 16.519,21.75 15,21.75 L5,21.75 C3.481,21.75 2.25,20.519 2.25,19 Z M5.25,8 C5.25,5.377 7.377,3.25 10,3.25 C12.623,3.25 14.75,5.377 14.75,8 C14.75,10.623 12.623,12.75 10,12.75 C7.377,12.75 5.25,10.623 5.25,8 Z M23.531,10.53 L20.531,13.53 C20.238,13.823 19.763,13.823 19.47,13.53 L16.47,10.53 C16.177,10.238 16.177,9.763 16.47,9.47 C16.763,9.177 17.238,9.177 17.531,9.47 L19.25,11.189 L19.25,7 C19.25,6.586 19.586,6.25 20,6.25 C20.414,6.25 20.75,6.586 20.75,7 L20.75,11.189 L22.47,9.47 C22.763,9.177 23.238,9.177 23.531,9.47 C23.823,9.763 23.823,10.238 23.531,10.53 Z"/>
</svg>

