<svg xmlns="http://www.w3.org/2000/svg" viewBox="0 0 24 24">
  <defs/>
  <path fill="#151E28" d="M2.25,19 C2.25,16.377 4.377,14.25 7,14.25 L13,14.25 C15.623,14.25 17.75,16.377 17.75,19 C17.75,20.519 16.519,21.75 15,21.75 L5,21.75 C3.481,21.75 2.25,20.519 2.25,19 Z M5.25,8 C5.25,5.377 7.377,3.25 10,3.25 C12.623,3.25 14.75,5.377 14.75,8 C14.75,10.623 12.623,12.75 10,12.75 C7.377,12.75 5.25,10.623 5.25,8 Z M17,9.25 L23,9.25 C23.414,9.25 23.75,9.586 23.75,10 C23.75,10.414 23.414,10.75 23,10.75 L17,10.75 C16.586,10.75 16.25,10.414 16.25,10 C16.25,9.586 16.586,9.25 17,9.25 Z"/>
</svg>

