<svg xmlns="http://www.w3.org/2000/svg" viewBox="0 0 24 24">
  <defs/>
  <path fill="#151E28" d="M12,1.25 C17.937,1.25 22.75,6.063 22.75,12 C22.75,17.937 17.937,22.75 12,22.75 C6.063,22.75 1.25,17.937 1.25,12 C1.25,6.063 6.063,1.25 12,1.25 Z M10.667,13 C9.194,13 8,14.194 8,15.667 C8,16.403 8.597,17 9.333,17 L14.667,17 C15.403,17 16,16.403 16,15.667 C16,14.194 14.806,13 13.333,13 Z M12,11 C13.105,11 14,10.105 14,9 C14,7.895 13.105,7 12,7 C10.895,7 10,7.895 10,9 C10,10.105 10.895,11 12,11 Z"/>
</svg>

