<svg xmlns="http://www.w3.org/2000/svg" viewBox="0 0 24 24">
  <defs/>
  <path fill="#151E28" d="M8.367,3.75 L10.633,3.75 C11.725,3.75 12.591,3.75 13.288,3.807 C14.002,3.865 14.605,3.987 15.156,4.268 C16.05,4.723 16.777,5.45 17.232,6.344 C17.396,6.665 17.506,7.005 17.58,7.374 C17.754,7.208 17.914,7.06 18.063,6.931 C18.471,6.576 18.889,6.268 19.351,6.156 C20.514,5.874 21.726,6.376 22.348,7.398 C22.596,7.804 22.674,8.317 22.712,8.856 C22.75,9.41 22.75,10.132 22.75,11.041 L22.75,12.959 C22.75,13.868 22.75,14.59 22.712,15.144 C22.674,15.683 22.596,16.196 22.348,16.602 C21.726,17.624 20.514,18.126 19.351,17.844 C18.889,17.732 18.471,17.424 18.063,17.069 C17.914,16.94 17.754,16.792 17.58,16.626 C17.506,16.995 17.396,17.335 17.232,17.656 C16.777,18.55 16.05,19.277 15.156,19.732 C14.605,20.013 14.002,20.135 13.288,20.193 C12.591,20.25 11.725,20.25 10.633,20.25 L8.367,20.25 C7.275,20.25 6.409,20.25 5.712,20.193 C4.998,20.135 4.395,20.013 3.844,19.732 C2.95,19.277 2.223,18.55 1.768,17.656 C1.487,17.105 1.365,16.502 1.307,15.788 C1.25,15.091 1.25,14.225 1.25,13.133 L1.25,10.867 C1.25,9.775 1.25,8.909 1.307,8.212 C1.365,7.498 1.487,6.895 1.768,6.344 C2.223,5.45 2.95,4.723 3.844,4.268 C4.395,3.987 4.998,3.865 5.712,3.807 C6.409,3.75 7.275,3.75 8.367,3.75 Z M17.75,10.867 L17.75,13.133 C17.75,13.709 17.75,14.222 17.742,14.681 C18.301,15.24 18.714,15.647 19.048,15.938 C19.437,16.277 19.622,16.366 19.705,16.386 C20.234,16.515 20.785,16.286 21.067,15.822 C21.112,15.749 21.18,15.555 21.215,15.04 C21.25,14.545 21.25,13.875 21.25,12.929 L21.25,11.071 C21.25,10.125 21.25,9.455 21.215,8.96 C21.18,8.445 21.112,8.251 21.067,8.178 C20.785,7.714 20.234,7.485 19.705,7.614 C19.622,7.634 19.437,7.723 19.048,8.062 C18.714,8.353 18.301,8.76 17.742,9.319 C17.75,9.778 17.75,10.291 17.75,10.867 Z"/>
</svg>

