<svg xmlns="http://www.w3.org/2000/svg" viewBox="0 0 24 24">
  <defs/>
  <path fill="#151E28" d="M9.465,15.25 L14.536,15.25 C13.739,14.4 13.25,13.257 13.25,12 C13.25,9.377 15.377,7.25 18,7.25 C20.624,7.25 22.75,9.377 22.75,12 C22.75,14.623 20.624,16.75 18,16.75 L6,16.75 C3.377,16.75 1.25,14.623 1.25,12 C1.25,9.377 3.377,7.25 6,7.25 C8.624,7.25 10.75,9.377 10.75,12 C10.75,13.257 10.262,14.4 9.465,15.25 Z M6,8.75 C4.206,8.75 2.75,10.205 2.75,12 C2.75,13.795 4.206,15.25 6,15.25 C7.795,15.25 9.25,13.795 9.25,12 C9.25,10.205 7.795,8.75 6,8.75 Z M18,15.25 C19.795,15.25 21.25,13.795 21.25,12 C21.25,10.205 19.795,8.75 18,8.75 C16.206,8.75 14.75,10.205 14.75,12 C14.75,13.795 16.206,15.25 18,15.25 Z"/>
</svg>

