<svg xmlns="http://www.w3.org/2000/svg" viewBox="0 0 24 24">
  <defs/>
  <path fill="#151E28" d="M1.25,5 C1.25,3.481 2.481,2.25 3.999,2.25 L20,2.25 C20.414,2.25 20.75,2.586 20.75,3 C20.75,3.414 20.414,3.75 20,3.75 L3.999,3.75 C3.315,3.75 2.759,4.3 2.75,4.982 L2.75,5 L2.75,5.03 C2.766,5.706 3.319,6.25 3.999,6.25 L12,6.25 L12.014,6.25 L18.83,6.25 C19.364,6.25 19.81,6.25 20.174,6.28 C20.554,6.311 20.911,6.378 21.248,6.55 C21.765,6.813 22.186,7.234 22.45,7.752 C22.622,8.089 22.689,8.446 22.72,8.825 C22.749,9.19 22.749,9.635 22.749,10.17 L22.749,11.25 L20,11.25 C18.481,11.25 17.25,12.481 17.25,14 C17.25,15.519 18.481,16.75 20,16.75 L22.749,16.75 L22.749,17.83 C22.749,18.365 22.749,18.81 22.72,19.175 C22.689,19.555 22.622,19.911 22.45,20.249 C22.186,20.766 21.765,21.187 21.248,21.45 C20.911,21.622 20.554,21.689 20.174,21.72 C19.81,21.75 19.364,21.75 18.83,21.75 L6.767,21.75 C5.955,21.75 5.299,21.75 4.768,21.707 C4.221,21.662 3.741,21.568 3.297,21.341 C2.591,20.982 2.018,20.408 1.658,19.702 C1.432,19.258 1.337,18.778 1.293,18.231 C1.249,17.701 1.249,17.045 1.25,16.232 L1.25,16.232 L1.25,16.2 L1.25,5.044 C1.25,5.029 1.25,5.015 1.25,5 Z M6.25,14 C6.25,14.414 6.586,14.75 7,14.75 L13,14.75 C13.414,14.75 13.75,14.414 13.75,14 C13.75,13.586 13.414,13.25 13,13.25 L7,13.25 C6.586,13.25 6.25,13.586 6.25,14 Z M22.749,15.25 L20,15.25 C19.309,15.25 18.75,14.69 18.75,14 C18.75,13.31 19.309,12.75 20,12.75 L22.749,12.75 Z"/>
</svg>

