<svg xmlns="http://www.w3.org/2000/svg" viewBox="0 0 24 24">
  <defs/>
  <path fill="#151E28" d="M11.367,4.25 L12.633,4.25 C13.725,4.25 14.591,4.25 15.288,4.307 C16.002,4.365 16.605,4.487 17.156,4.768 C18.05,5.223 18.777,5.95 19.232,6.844 C19.513,7.395 19.635,7.998 19.693,8.712 C19.75,9.409 19.75,10.275 19.75,11.367 L19.75,12.633 C19.75,13.725 19.75,14.591 19.693,15.288 C19.635,16.002 19.513,16.605 19.232,17.156 C18.777,18.05 18.05,18.777 17.156,19.232 C16.605,19.513 16.002,19.635 15.288,19.693 C14.591,19.75 13.725,19.75 12.633,19.75 L11.367,19.75 C10.275,19.75 9.409,19.75 8.712,19.693 C7.998,19.635 7.395,19.513 6.844,19.232 C5.95,18.777 5.223,18.05 4.768,17.156 C4.487,16.605 4.365,16.002 4.307,15.288 C4.25,14.591 4.25,13.725 4.25,12.633 L4.25,11.367 C4.25,10.275 4.25,9.409 4.307,8.712 C4.365,7.998 4.487,7.395 4.768,6.844 C5.223,5.95 5.95,5.223 6.844,4.768 C7.395,4.487 7.998,4.365 8.712,4.307 C9.409,4.25 10.275,4.25 11.367,4.25 Z M7.25,2 C7.25,1.586 7.586,1.25 8,1.25 L16,1.25 C16.414,1.25 16.75,1.586 16.75,2 C16.75,2.414 16.414,2.75 16,2.75 L8,2.75 C7.586,2.75 7.25,2.414 7.25,2 Z M8,22.75 C7.586,22.75 7.25,22.414 7.25,22 C7.25,21.586 7.586,21.25 8,21.25 L16,21.25 C16.414,21.25 16.75,21.586 16.75,22 C16.75,22.414 16.414,22.75 16,22.75 Z M12,8.25 C11.586,8.25 11.25,8.586 11.25,9 L11.25,12 C11.25,12.199 11.329,12.39 11.47,12.53 L12.97,14.03 C13.263,14.323 13.737,14.323 14.03,14.03 C14.323,13.737 14.323,13.263 14.03,12.97 L12.75,11.689 L12.75,9 C12.75,8.586 12.414,8.25 12,8.25 Z"/>
</svg>

