<svg xmlns="http://www.w3.org/2000/svg" viewBox="0 0 24 24">
  <defs/>
  <path fill="#151E28" d="M10.462,3.075 C11.124,1.855 12.876,1.855 13.538,3.075 L20.365,15.655 L21.177,17.047 C21.635,17.831 21.427,18.881 20.6,19.376 C18.086,20.884 15.143,21.75 12,21.75 C8.857,21.75 5.914,20.884 3.4,19.376 C2.573,18.881 2.365,17.831 2.822,17.047 L3.635,15.655 Z M12,18.75 C9.335,18.75 6.814,18.127 4.576,17.019 L4.118,17.803 C4.046,17.927 4.097,18.046 4.171,18.09 C6.459,19.462 9.136,20.25 12,20.25 C14.864,20.25 17.541,19.462 19.829,18.09 C19.903,18.046 19.954,17.927 19.882,17.803 L19.424,17.019 C17.186,18.127 14.665,18.75 12,18.75 Z M12,8.25 C11.585,8.25 11.25,8.586 11.25,9 L11.25,10 C11.25,10.414 11.585,10.75 12,10.75 C12.414,10.75 12.75,10.414 12.75,10 L12.75,9 C12.75,8.586 12.414,8.25 12,8.25 Z M14,12.75 C13.585,12.75 13.25,13.086 13.25,13.5 L13.25,14.5 C13.25,14.914 13.585,15.25 14,15.25 C14.414,15.25 14.75,14.914 14.75,14.5 L14.75,13.5 C14.75,13.086 14.414,12.75 14,12.75 Z M10,12.75 C9.585,12.75 9.25,13.086 9.25,13.5 L9.25,14.5 C9.25,14.914 9.585,15.25 10,15.25 C10.414,15.25 10.75,14.914 10.75,14.5 L10.75,13.5 C10.75,13.086 10.414,12.75 10,12.75 Z"/>
</svg>

