<svg xmlns="http://www.w3.org/2000/svg" viewBox="0 0 24 24">
  <defs/>
  <path fill="#151E28" d="M11.25,20.25 L11.25,14.725 C8.778,14.558 7.014,13.564 5.789,12.176 C4.468,10.679 3.825,8.781 3.511,7.141 L3.507,7.12 C3.341,6.243 3.266,5.425 3.235,4.753 C3.211,4.215 3.215,3.765 3.225,3.448 C3.23,3.29 3.237,3.164 3.243,3.076 C3.245,3.032 3.248,2.998 3.25,2.973 L3.252,2.945 L3.253,2.936 L3.253,2.934 L3.253,2.933 C3.253,2.932 3.256,2.932 4,3 L3.253,2.932 C3.288,2.546 3.612,2.25 4,2.25 L20,2.25 C20.388,2.25 20.712,2.546 20.747,2.932 L20,3 C20.742,2.933 20.747,2.932 20.747,2.933 L20.747,2.934 L20.747,2.936 L20.748,2.945 L20.75,2.973 C20.752,2.998 20.755,3.032 20.758,3.076 C20.763,3.164 20.77,3.29 20.775,3.448 C20.785,3.765 20.789,4.215 20.765,4.753 C20.716,5.824 20.554,7.269 20.09,8.727 C19.626,10.184 18.849,11.695 17.542,12.844 C16.362,13.883 14.795,14.587 12.75,14.725 L12.75,20.25 L16,20.25 C16.414,20.25 16.75,20.586 16.75,21 C16.75,21.414 16.414,21.75 16,21.75 L8,21.75 C7.586,21.75 7.25,21.414 7.25,21 C7.25,20.586 7.586,20.25 8,20.25 Z M4.734,4.685 C4.755,5.149 4.799,5.682 4.882,6.25 L6.807,6.25 C8.682,6.25 10.538,6.608 12.278,7.304 C13.841,7.929 15.509,8.25 17.193,8.25 L18.668,8.25 C19.073,6.966 19.222,5.67 19.267,4.685 C19.283,4.323 19.285,4.006 19.282,3.75 L4.718,3.75 C4.715,4.006 4.717,4.323 4.734,4.685 Z"/>
</svg>

