<svg xmlns="http://www.w3.org/2000/svg" viewBox="0 0 24 24">
  <defs/>
  <path fill="#151E28" d="M10.75,2.667 L10.75,6 C10.75,6.691 11.309,7.25 12,7.25 C12.69,7.25 13.25,6.691 13.25,6 L13.25,2.667 C13.25,1.362 14.739,0.617 15.783,1.4 L15.825,1.431 C17.666,2.812 18.75,4.98 18.75,7.282 C18.75,9.221 17.979,11.081 16.608,12.453 L14.75,14.311 L14.75,21 C14.75,22.519 13.519,23.75 12,23.75 C10.481,23.75 9.25,22.519 9.25,21 L9.25,14.311 L7.392,12.453 C6.02,11.081 5.25,9.221 5.25,7.282 C5.25,4.98 6.334,2.812 8.175,1.431 L8.217,1.4 C9.26,0.617 10.75,1.362 10.75,2.667 Z"/>
</svg>

