<svg xmlns="http://www.w3.org/2000/svg" viewBox="0 0 24 24">
  <defs/>
  <path fill="#151E28" d="M17.716,4.516 L15.359,6.873 C14.87,7.362 14.87,8.153 15.359,8.641 C15.847,9.129 16.638,9.129 17.126,8.641 L19.483,6.284 C20.406,5.362 21.986,5.888 22.17,7.18 L22.178,7.231 C22.503,9.51 21.737,11.809 20.109,13.436 C18.738,14.808 16.878,15.578 14.938,15.578 L12.311,15.578 L7.581,20.309 C6.507,21.382 4.765,21.382 3.691,20.309 C2.618,19.235 2.618,17.493 3.691,16.419 L8.422,11.689 L8.422,9.062 C8.422,7.122 9.192,5.262 10.564,3.891 C12.191,2.263 14.49,1.497 16.769,1.822 L16.82,1.829 C18.112,2.014 18.638,3.594 17.716,4.516 Z"/>
</svg>

