<svg xmlns="http://www.w3.org/2000/svg" viewBox="0 0 24 24">
  <defs/>
  <path fill="#151E28" d="M2.25,12 C2.25,6.615 6.615,2.25 12,2.25 C17.385,2.25 21.75,6.615 21.75,12 C21.75,17.385 17.385,21.75 12,21.75 C6.615,21.75 2.25,17.385 2.25,12 Z M3.75,12 C3.75,14.79 5.135,17.257 7.255,18.75 C6.931,18.068 6.75,17.305 6.75,16.5 C6.75,13.601 9.101,11.25 12,11.25 C14.071,11.25 15.75,9.571 15.75,7.5 C15.75,5.429 14.071,3.75 12,3.75 C7.444,3.75 3.75,7.444 3.75,12 Z M13,17 C13,16.448 12.552,16 12,16 C11.448,16 11,16.448 11,17 C11,17.552 11.448,18 12,18 C12.552,18 13,17.552 13,17 Z M13,7 C13,7.552 12.552,8 12,8 C11.448,8 11,7.552 11,7 C11,6.448 11.448,6 12,6 C12.552,6 13,6.448 13,7 Z"/>
</svg>

