<svg xmlns="http://www.w3.org/2000/svg" viewBox="0 0 24 24"><path fill="#151E28" d="M1.25 12C1.25 6.063 6.063 1.25 12 1.25S22.75 6.063 22.75 12 17.937 22.75 12 22.75 1.25 17.937 1.25 12ZM12 2.75A9.25 9.25 0 0 0 2.75 12 9.25 9.25 0 0 0 12 21.25 9.25 9.25 0 0 0 21.25 12 9.25 9.25 0 0 0 12 2.75Zm-.917 14c-.495 0-.907 0-1.245-.026-.352-.026-.683-.084-1-.232a2.747 2.747 0 0 1-1.33-1.33c-.148-.317-.206-.648-.232-1-.026-.338-.026-.751-.026-1.245V11.17c0-.535 0-.98.03-1.345.03-.38.098-.736.27-1.073A2.749 2.749 0 0 1 8.752 7.55c.337-.172.693-.24 1.073-.27.365-.03.81-.03 1.345-.03h1.747c.495 0 .907 0 1.245.026.352.026.683.084 1 .232a2.747 2.747 0 0 1 1.33 1.33c.148.317.206.648.232 1 .026.338.026.751.026 1.245v.029a.75.75 0 0 1-1.5 0c0-.53-.001-.886-.021-1.16-.02-.267-.056-.396-.096-.48a1.247 1.247 0 0 0-.604-.605c-.085-.039-.214-.076-.48-.096-.275-.021-.63-.021-1.16-.021H11.2c-.573 0-.957.001-1.253.025-.287.023-.424.065-.514.111-.236.12-.427.311-.547.547-.046.09-.088.227-.111.514-.025.296-.025.681-.025 1.253v1.688c0 .53.001.886.021 1.16.02.267.056.395.096.48.124.266.338.481.604.605.085.039.214.076.48.096.275.021.63.021 1.16.021a.75.75 0 0 1 0 1.5Zm4.917 0h-1.5a.75.75 0 0 1-.263-1.453l-1.534-1.534a.75.75 0 0 1-1.453-.263V12a.75.75 0 0 1 .75-.75h1.5a.75.75 0 0 1 .263 1.453l1.534 1.534a.75.75 0 0 1 1.453.263V16a.75.75 0 0 1-.75.75Z"/></svg>