<svg xmlns="http://www.w3.org/2000/svg" viewBox="0 0 24 24"><path fill="#151E28" d="M12 1.25c5.937 0 10.75 4.813 10.75 10.75S17.937 22.75 12 22.75 1.25 17.937 1.25 12 6.063 1.25 12 1.25ZM2.75 12A9.25 9.25 0 0 0 12 21.25 9.25 9.25 0 0 0 21.25 12 9.25 9.25 0 0 0 12 2.75 9.25 9.25 0 0 0 2.75 12Zm12.5 4v-.2c0-.853-.001-1.447-.038-1.909-.037-.454-.107-.715-.207-.912a2.25 2.25 0 0 0-.984-.984c-.197-.1-.458-.17-.912-.207a18.037 18.037 0 0 0-1.297-.038l.718.72a.751.751 0 0 1-.018 1.042.751.751 0 0 1-1.042.018l-2-2a.75.75 0 0 1 0-1.06l2-2a.75.75 0 0 1 1.06 1.061l-.72.72c.553.002 1.022.01 1.422.042.546.045 1.026.139 1.47.365.706.36 1.28.934 1.639 1.64.226.444.321.924.366 1.47.043.531.043 1.187.043 2V16a.75.75 0 0 1-1.5 0Zm-6.78-2.47-2-2a.75.75 0 0 1 0-1.06l2-2a.749.749 0 0 1 1.275.326.749.749 0 0 1-.215.734L8.06 11l1.47 1.47a.751.751 0 0 1-.018 1.042.751.751 0 0 1-1.042.018Z"/></svg>