<svg xmlns="http://www.w3.org/2000/svg" viewBox="0 0 24 24"><path fill="#151E28" d="M9.253 2.25h5.494c.419 0 .748 0 1.067.076.28.067.548.179.794.33.28.17.513.404.808.7l.052.051 3.125 3.125.051.052c.297.296.53.528.7.808.152.246.263.514.33.795.076.318.076.647.076 1.066v5.494c0 .419 0 .748-.076 1.067a2.687 2.687 0 0 1-.33.794c-.17.28-.403.513-.7.808l-.05.052-3.126 3.125-.052.051c-.295.297-.528.53-.808.7a2.687 2.687 0 0 1-.794.33c-.319.076-.648.076-1.067.076H9.253c-.419 0-.748 0-1.066-.076a2.759 2.759 0 0 1-.795-.33c-.28-.17-.512-.403-.808-.7l-.052-.05-3.125-3.126-.051-.052c-.296-.295-.53-.528-.7-.808a2.764 2.764 0 0 1-.33-.794c-.076-.319-.076-.648-.076-1.067V9.253c0-.419 0-.748.076-1.066.068-.281.179-.549.33-.795.17-.28.404-.512.7-.808l.051-.052 3.125-3.125.052-.051c.296-.296.528-.53.808-.7.246-.151.514-.262.795-.33.318-.076.647-.076 1.066-.076Zm.072 1.5c-.524 0-.665.005-.789.035a1.237 1.237 0 0 0-.36.15c-.11.066-.212.161-.583.533L4.468 7.593c-.372.371-.467.474-.534.582a1.25 1.25 0 0 0-.15.362c-.03.123-.034.264-.034.789v5.349c0 .524.005.665.035.788.03.128.08.25.15.362.066.108.161.21.533.582l3.125 3.125c.371.372.474.467.582.534.112.068.234.119.362.15.123.03.264.034.789.034h5.349c.524 0 .665-.005.788-.035.128-.03.25-.08.362-.15.108-.066.21-.161.582-.533l3.125-3.125c.372-.371.467-.474.534-.582a1.25 1.25 0 0 0 .15-.362c.03-.123.034-.263.034-.788v-5.35c0-.524-.005-.665-.035-.788a1.25 1.25 0 0 0-.15-.362c-.066-.108-.161-.21-.533-.582l-3.125-3.125c-.371-.372-.474-.467-.582-.534a1.25 1.25 0 0 0-.362-.15c-.123-.03-.263-.034-.788-.034h-5.35Zm1.758 13c-.495 0-.907 0-1.245-.026-.352-.026-.683-.084-1-.232a2.747 2.747 0 0 1-1.33-1.33c-.148-.317-.206-.648-.232-1-.026-.338-.026-.751-.026-1.245V11.17c0-.535 0-.98.03-1.345.03-.38.098-.736.27-1.073A2.749 2.749 0 0 1 8.752 7.55c.337-.172.693-.24 1.073-.27.365-.03.81-.03 1.345-.03h1.747c.495 0 .907 0 1.245.026.352.026.683.084 1 .232a2.747 2.747 0 0 1 1.33 1.33c.148.317.206.648.232 1 .026.338.026.751.026 1.245v.029a.75.75 0 0 1-1.5 0c0-.53-.001-.886-.021-1.16-.02-.267-.056-.395-.096-.48a1.247 1.247 0 0 0-.604-.605c-.085-.039-.214-.076-.48-.096-.275-.021-.63-.021-1.16-.021H11.2c-.572 0-.957.001-1.252.025-.288.023-.425.065-.515.111-.236.12-.427.311-.547.547-.046.09-.088.227-.111.515-.025.295-.025.68-.025 1.252v1.688c0 .53.001.886.021 1.16.021.267.056.396.096.48.124.266.338.481.604.605.086.039.214.076.48.096.275.021.63.021 1.16.021a.75.75 0 0 1 0 1.5Zm4.917 0h-1.5a.75.75 0 0 1-.263-1.453l-1.534-1.534a.75.75 0 0 1-1.453-.263V12a.75.75 0 0 1 .75-.75h1.5a.75.75 0 0 1 .263 1.453l1.534 1.534a.75.75 0 0 1 1.453.263V16a.75.75 0 0 1-.75.75Z"/></svg>