<svg xmlns="http://www.w3.org/2000/svg" viewBox="0 0 24 24"><path fill="#151E28" d="M2.47 17.53a.75.75 0 0 1 0-1.06l4-4 .086-.086c.46-.461.816-.818 1.223-1.02a2.752 2.752 0 0 1 2.442 0c.407.202.763.559 1.223 1.02l.086.086c.588.588.759.744.915.822.35.173.76.173 1.11 0 .156-.078.327-.234.915-.822l4.72-4.72H15a.75.75 0 0 1 0-1.5h6a.75.75 0 0 1 .75.75v6a.75.75 0 0 1-1.5 0V8.81l-4.72 4.72-.085.086c-.46.461-.817.818-1.224 1.02a2.752 2.752 0 0 1-2.442 0c-.407-.202-.763-.559-1.223-1.02l-.086-.086c-.588-.588-.759-.744-.915-.822a1.252 1.252 0 0 0-1.11 0c-.156.078-.327.234-.915.822l-4 4a.75.75 0 0 1-1.06 0Z"/></svg>