<svg xmlns="http://www.w3.org/2000/svg" viewBox="0 0 24 24"><path fill="#151E28" d="M12 1.25c5.937 0 10.75 4.813 10.75 10.75S17.937 22.75 12 22.75 1.25 17.937 1.25 12 6.063 1.25 12 1.25ZM2.75 12A9.25 9.25 0 0 0 12 21.25 9.25 9.25 0 0 0 21.25 12 9.25 9.25 0 0 0 12 2.75 9.25 9.25 0 0 0 2.75 12Zm14 3A1.75 1.75 0 0 1 15 16.75h-3.476c-1.586 0-2.354-1.94-1.2-3.025l.113-.106-.346-.346a1.75 1.75 0 0 1 0-2.475l.707-.707a1.75 1.75 0 0 1 2.475 0l.346.346.106-.112c1.086-1.155 3.025-.387 3.025 1.199Zm-1.75.25a.25.25 0 0 0 .25-.25v-3.476a.25.25 0 0 0-.432-.172l-.636.676a.75.75 0 0 1-1.077.017l-.893-.893a.25.25 0 0 0-.353 0l-.707.707a.25.25 0 0 0 0 .353l.893.893a.75.75 0 0 1-.017 1.077l-.676.636a.25.25 0 0 0 .171.432Zm-5.97-4.098a.75.75 0 0 1-1.06-1.061l2.12-2.121a.751.751 0 0 1 1.042.018.751.751 0 0 1 .018 1.042Z"/></svg>