<svg xmlns="http://www.w3.org/2000/svg" viewBox="0 0 24 24"><path fill="#151E28" d="M9.325 2.25h5.422c.419 0 .748 0 1.067.076.28.068.548.179.794.33.28.17.513.404.808.7l.052.051 3.126 3.125.05.052c.297.296.53.528.7.808.151.246.262.514.33.795.076.318.076.647.076 1.066v5.494c0 .419 0 .748-.076 1.067a2.687 2.687 0 0 1-.33.794c-.17.28-.403.513-.7.808l-.051.052-3.125 3.126-.052.05c-.295.297-.528.53-.808.7a2.687 2.687 0 0 1-.794.33c-.319.076-.648.076-1.067.076H9.253c-.419 0-.748 0-1.066-.076a2.704 2.704 0 0 1-.795-.33c-.28-.17-.512-.403-.808-.7l-.052-.051-3.125-3.125-.051-.052c-.296-.295-.53-.528-.7-.808a2.737 2.737 0 0 1-.33-.794c-.076-.319-.076-.648-.076-1.067V9.253c0-.419 0-.748.076-1.066.068-.281.179-.549.33-.795.17-.28.404-.512.7-.808l.051-.052 3.125-3.125.052-.051c.296-.296.528-.53.808-.7.246-.151.514-.262.795-.33.318-.076.647-.076 1.066-.076h.072Zm-.789 1.535.001-.001a1.25 1.25 0 0 0-.362.15c-.108.067-.211.162-.582.534L4.468 7.593c-.372.372-.467.474-.533.582-.07.112-.12.234-.15.362-.03.123-.035.264-.035.788v5.35c0 .525.004.665.034.788.031.128.081.25.15.362.067.108.162.211.534.582l3.125 3.125c.372.372.474.467.582.533.112.069.234.119.362.15.123.03.264.035.788.035h5.35c.525 0 .665-.004.788-.034a1.25 1.25 0 0 0 .362-.15c.108-.067.211-.162.582-.534l3.125-3.125c.372-.372.467-.474.533-.582a1.25 1.25 0 0 0 .15-.362c.03-.123.035-.264.035-.788V9.326c0-.525-.004-.666-.034-.789a1.277 1.277 0 0 0-.15-.362c-.067-.108-.162-.211-.534-.582l-3.125-3.125c-.372-.372-.474-.467-.582-.533a1.196 1.196 0 0 0-.362-.15c-.123-.03-.264-.035-.788-.035H9.326c-.525 0-.666.005-.79.035Zm.709 4.258h-.001l3.43-.093c1.581-.043 2.404 1.868 1.285 2.987l-.17.17 1.777 1.777a1.75 1.75 0 0 1 0 2.475l-.707.707a1.75 1.75 0 0 1-2.475 0l-1.777-1.777-.17.17c-1.119 1.118-3.03.296-2.987-1.284l.093-3.43a1.75 1.75 0 0 1 1.702-1.702Zm-.203 1.742-.092 3.43a.249.249 0 0 0 .151.236c.095.041.204.02.276-.053l.7-.7a.75.75 0 0 1 1.06 0l2.308 2.307a.25.25 0 0 0 .353 0l.707-.707a.25.25 0 0 0 0-.353l-2.307-2.308a.75.75 0 0 1 0-1.061l.7-.7a.25.25 0 0 0-.183-.426l-3.43.092a.25.25 0 0 0-.243.243Z"/></svg>