<svg xmlns="http://www.w3.org/2000/svg" viewBox="0 0 24 24"><path fill="#151E28" d="M9.367 2.25h5.266c1.092 0 1.958 0 2.655.057.714.058 1.317.18 1.869.461a4.744 4.744 0 0 1 2.076 2.076c.28.551.402 1.154.46 1.868.057.697.057 1.563.057 2.655v5.266c0 1.092 0 1.958-.057 2.655-.058.714-.18 1.317-.461 1.869a4.752 4.752 0 0 1-2.075 2.076c-.552.28-1.155.402-1.869.46-.697.057-1.563.057-2.655.057H9.367c-1.092 0-1.958 0-2.655-.057-.714-.058-1.318-.18-1.868-.461a4.75 4.75 0 0 1-2.077-2.075c-.28-.552-.402-1.155-.46-1.869-.057-.697-.057-1.563-.057-2.655V9.367c0-1.092 0-1.958.057-2.655.058-.714.18-1.318.461-1.868a4.752 4.752 0 0 1 2.076-2.077c.551-.28 1.154-.402 1.868-.46.697-.057 1.563-.057 2.655-.057ZM5.525 4.104h-.001a3.258 3.258 0 0 0-1.42 1.42c-.155.305-.252.69-.302 1.31-.052.629-.052 1.434-.052 2.566v5.2c0 1.132.001 1.936.052 2.566.051.62.147 1.005.302 1.31a3.258 3.258 0 0 0 1.42 1.42c.305.155.69.252 1.31.302.629.052 1.434.052 2.566.052h5.2c1.132 0 1.936-.001 2.566-.052.62-.051 1.005-.147 1.31-.302a3.258 3.258 0 0 0 1.42-1.42c.155-.305.252-.69.302-1.31.052-.629.052-1.433.052-2.566V9.4c0-1.132-.001-1.936-.052-2.566-.051-.62-.147-1.005-.302-1.31a3.258 3.258 0 0 0-1.42-1.42c-.305-.155-.69-.252-1.31-.302-.629-.052-1.433-.052-2.566-.052H9.4c-1.132 0-1.936.001-2.566.052-.621.051-1.005.147-1.309.302ZM10 15.75A1.75 1.75 0 0 1 8.25 14v-3.476c0-1.586 1.94-2.354 3.025-1.2l.106.113.346-.346a1.75 1.75 0 0 1 2.475 0l.707.707a1.75 1.75 0 0 1 0 2.475l-.346.346.112.106c1.155 1.086.387 3.025-1.198 3.025ZM9.75 14c0 .138.112.25.25.25h3.477a.25.25 0 0 0 .17-.432l-.675-.636a.75.75 0 0 1-.017-1.077l.893-.893a.25.25 0 0 0 0-.353l-.707-.707a.25.25 0 0 0-.353 0l-.893.893a.75.75 0 0 1-1.077-.017l-.636-.676a.25.25 0 0 0-.432.171Zm4.098-5.97a.748.748 0 0 1 .332-1.265.75.75 0 0 1 .729.205l2.121 2.12a.751.751 0 0 1-.018 1.042.751.751 0 0 1-1.042.018Z"/></svg>