<svg xmlns="http://www.w3.org/2000/svg" viewBox="0 0 24 24"><path fill="#151E28" d="M15.387 3.75a.25.25 0 0 0-.237.33l3.562 10.683a.75.75 0 0 1-1.424.474l-2.383-7.15-8.407 7.474a.75.75 0 1 1-.996-1.122l5.124-4.554a.58.58 0 0 1-.027-.048l-2.492-4.95a.25.25 0 0 0-.223-.137H5.5a.75.75 0 0 1 0-1.5h2.384a1.75 1.75 0 0 1 1.563.963l2.337 4.642L14.39 6.54l-.662-1.987a1.748 1.748 0 0 1 1.66-2.303H19A2.75 2.75 0 0 1 21.75 5v1a.75.75 0 0 1-1.5 0V5c0-.69-.56-1.25-1.25-1.25ZM6 11.75a3.25 3.25 0 0 0-.629 6.44A2.752 2.752 0 0 1 8 16.25h2a.75.75 0 0 1 .75.75v.25H12a.75.75 0 0 1 0 1.5h-1.25v.5H12a.75.75 0 0 1 0 1.5h-1.25V21a.75.75 0 0 1-.75.75H8a2.751 2.751 0 0 1-2.659-2.045A4.752 4.752 0 0 1 6 10.25a.75.75 0 0 1 0 1.5Zm13.35-.59a.75.75 0 0 1 1.025-.274 4.75 4.75 0 1 1-6.78 2.333.75.75 0 1 1 1.391.562 3.25 3.25 0 1 0 4.639-1.597.75.75 0 0 1-.274-1.024Zm-10.1 6.59H8a1.25 1.25 0 0 0 0 2.5h1.25v-2.5Z"/></svg>