<svg xmlns="http://www.w3.org/2000/svg" viewBox="0 0 24 24"><path fill="#151E28" d="m14.307 2.423 5 2.778a4.75 4.75 0 0 1 2.443 4.152v5.293a4.751 4.751 0 0 1-2.443 4.153l-5 2.777a4.75 4.75 0 0 1-4.614 0l-5-2.778a4.75 4.75 0 0 1-2.443-4.152V9.353a4.75 4.75 0 0 1 2.443-4.152l5-2.778a4.75 4.75 0 0 1 4.614 0Zm-3.885 1.312v-.001l-5 2.778a3.248 3.248 0 0 0-1.672 2.84v5.295c0 1.18.64 2.267 1.672 2.84l5 2.778a3.25 3.25 0 0 0 3.156 0l5-2.778a3.25 3.25 0 0 0 1.672-2.841V9.353a3.25 3.25 0 0 0-1.672-2.841l-5-2.777a3.25 3.25 0 0 0-3.156 0ZM11.8 8.25h.4a3.55 3.55 0 0 1 3.55 3.55v.4a3.55 3.55 0 0 1-3.55 3.55h-.4a3.55 3.55 0 0 1-3.55-3.55v-.4a3.55 3.55 0 0 1 3.55-3.55ZM9.75 11.8v.4a2.05 2.05 0 0 0 2.05 2.05h.4a2.05 2.05 0 0 0 2.05-2.05v-.4a2.05 2.05 0 0 0-2.05-2.05h-.4a2.05 2.05 0 0 0-2.05 2.05Z"/></svg>