<svg xmlns="http://www.w3.org/2000/svg" viewBox="0 0 24 24"><path fill="#151E28" d="M8.18 2.25h7.651c.699 0 1.249 0 1.734.19.429.169.808.442 1.103.796.337.402.51.926.733 1.595l.04.12 1.265 3.795a.76.76 0 0 1 .044.272v8.812c0 .535 0 .98-.03 1.345-.03.38-.098.736-.27 1.073a2.749 2.749 0 0 1-1.202 1.202c-.337.172-.694.24-1.073.27-.365.03-.81.03-1.345.03H7.17c-.535 0-.98 0-1.345-.03-.38-.03-.736-.098-1.074-.27a2.747 2.747 0 0 1-1.201-1.2c-.172-.338-.24-.694-.27-1.074-.03-.365-.03-.81-.03-1.345V9.017a.76.76 0 0 1 .044-.271L4.56 4.951l.04-.12c.222-.669.396-1.193.733-1.595a2.747 2.747 0 0 1 1.103-.795c.488-.192 1.039-.192 1.744-.191Zm-3.43 7.5v8.05c0 .572 0 .957.025 1.252.023.288.065.425.111.515.12.236.311.427.546.547.091.046.228.088.515.111.296.024.68.025 1.253.025h9.6c.572 0 .957 0 1.252-.025.288-.023.425-.065.515-.111.236-.12.427-.311.547-.547.046-.09.088-.227.111-.515.024-.295.025-.68.025-1.252V9.75H4.75Zm6.5-6H8.306c-.893 0-1.133.013-1.322.087a1.253 1.253 0 0 0-.501.361c-.13.155-.218.38-.5 1.227L5.04 8.25h6.21Zm1.5 4.5h6.209l-.942-2.825c-.282-.847-.37-1.072-.5-1.227a1.235 1.235 0 0 0-.501-.361c-.188-.074-.429-.087-1.322-.087H12.75Z"/></svg>