<svg xmlns="http://www.w3.org/2000/svg" viewBox="0 0 24 24"><path fill="#151E28" d="M10.255 2.25h3.49a3.878 3.878 0 0 1 3.679 2.652.813.813 0 0 0 .613.541l.065.013a5.782 5.782 0 0 1 4.648 5.67v2.3c0 1.46 0 2.324-.166 3.058a6.75 6.75 0 0 1-5.1 5.101c-.734.165-1.598.165-3.058.165H9.574c-1.46 0-2.324 0-3.058-.166a6.75 6.75 0 0 1-5.101-5.1c-.165-.734-.165-1.598-.165-3.058v-2.301a5.782 5.782 0 0 1 4.648-5.67l.065-.013a.814.814 0 0 0 .612-.54 3.878 3.878 0 0 1 3.68-2.652ZM7.999 5.376H8a2.313 2.313 0 0 1-1.743 1.537l-.064.013a4.283 4.283 0 0 0-3.443 4.2v2.181c0 1.614.005 2.297.128 2.847a5.251 5.251 0 0 0 3.968 3.968c.549.123 1.233.128 2.847.128h4.614c1.614 0 2.297-.005 2.847-.128a5.251 5.251 0 0 0 3.968-3.968c.123-.549.128-1.233.128-2.848v-2.18a4.28 4.28 0 0 0-3.442-4.2l-.065-.013a2.314 2.314 0 0 1-1.741-1.537 2.38 2.38 0 0 0-2.257-1.626h-3.49a2.378 2.378 0 0 0-2.256 1.626ZM11.7 8.75h.6a3.95 3.95 0 0 1 3.95 3.95v.6a3.95 3.95 0 0 1-3.95 3.95h-.6a3.95 3.95 0 0 1-3.95-3.95v-.6a3.95 3.95 0 0 1 3.95-3.95ZM9.25 12.7v.6a2.45 2.45 0 0 0 2.45 2.45h.6a2.45 2.45 0 0 0 2.45-2.45v-.6a2.45 2.45 0 0 0-2.45-2.45h-.6a2.45 2.45 0 0 0-2.45 2.45Z"/></svg>