<svg xmlns="http://www.w3.org/2000/svg" viewBox="0 0 24 24"><path fill="#151E28" d="m2.53 1.47 20 20a.749.749 0 0 1-.326 1.275.749.749 0 0 1-.734-.215l-2.977-2.976A5.79 5.79 0 0 1 17 19.75H7a5.75 5.75 0 1 1 .193-11.497L1.47 2.53a.751.751 0 0 1 .018-1.042.751.751 0 0 1 1.042-.018Zm14.655 16.776L9.1 10.16a.752.752 0 0 1-.4-.057A4.251 4.251 0 1 0 7 18.25h10.001c.062 0 .124-.001.185-.004ZM9.875 5.318h.001a.75.75 0 0 1-.752-1.298 5.751 5.751 0 0 1 8.584 4.273 5.749 5.749 0 0 1 4.273 8.582.75.75 0 1 1-1.298-.75 4.251 4.251 0 0 0-3.682-6.375.752.752 0 0 1-.751-.75 4.251 4.251 0 0 0-6.375-3.682Z"/></svg>