<svg xmlns="http://www.w3.org/2000/svg" viewBox="0 0 24 24"><path fill="#151E28" d="M8.75 2v2.304c.666-.052 1.482-.054 2.5-.054V2a.75.75 0 0 1 1.5 0v2.25c1.018 0 1.834.002 2.5.054V2a.75.75 0 0 1 1.5 0v2.592c.139.05.275.109.407.176a4.752 4.752 0 0 1 2.075 2.076c.067.132.126.267.176.406H22a.75.75 0 0 1 0 1.5h-2.304c.052.666.054 1.482.054 2.5H22a.75.75 0 0 1 0 1.5h-2.25c0 1.018-.002 1.834-.054 2.5H22a.75.75 0 0 1 0 1.5h-2.592c-.05.139-.109.275-.176.407a4.75 4.75 0 0 1-2.075 2.075 3.569 3.569 0 0 1-.407.176V22a.75.75 0 0 1-1.5 0v-2.304c-.666.052-1.482.054-2.5.054V22a.75.75 0 0 1-1.5 0v-2.25c-1.018 0-1.834-.002-2.5-.054V22a.75.75 0 0 1-1.5 0v-2.592a3.386 3.386 0 0 1-.406-.176 4.752 4.752 0 0 1-2.076-2.075 3.47 3.47 0 0 1-.176-.407H2a.75.75 0 0 1 0-1.5h2.304c-.052-.666-.054-1.482-.054-2.5H2a.75.75 0 0 1 0-1.5h2.25c0-1.018.002-1.834.054-2.5H2a.75.75 0 0 1 0-1.5h2.592c.05-.139.109-.274.176-.406a4.744 4.744 0 0 1 2.076-2.076c.132-.068.267-.126.406-.176V2a.75.75 0 0 1 1.5 0Zm9.5 9.4c0-1.133 0-1.937-.052-2.566-.05-.62-.147-1.005-.302-1.31a3.258 3.258 0 0 0-1.42-1.42c-.305-.155-.69-.251-1.31-.302-.63-.051-1.434-.052-2.566-.052h-1.2c-1.133 0-1.937 0-2.566.052-.62.05-1.005.147-1.31.302a3.258 3.258 0 0 0-1.42 1.42c-.155.305-.251.69-.302 1.31-.051.63-.052 1.434-.052 2.566v1.2c0 1.133 0 1.937.052 2.566.05.62.147 1.005.302 1.31a3.258 3.258 0 0 0 1.42 1.42c.305.155.69.251 1.31.302.63.051 1.434.052 2.566.052h1.2c1.133 0 1.937 0 2.566-.052.62-.05 1.005-.147 1.31-.302a3.258 3.258 0 0 0 1.42-1.42c.155-.305.251-.69.302-1.31.051-.63.052-1.434.052-2.566v-1.2Zm-6.275-3.15h.05c.445 0 .816 0 1.12.021.317.021.617.068.907.188a2.749 2.749 0 0 1 1.488 1.489c.113.29.177.596.19.907.02.304.02.675.02 1.12v.05c0 .445 0 .816-.021 1.12a2.812 2.812 0 0 1-.188.907 2.749 2.749 0 0 1-1.489 1.488c-.29.121-.589.168-.907.19-.304.02-.675.02-1.12.02h-.05c-.445 0-.816 0-1.12-.021a2.812 2.812 0 0 1-.907-.188 2.749 2.749 0 0 1-1.488-1.489 2.835 2.835 0 0 1-.19-.907c-.02-.304-.02-.675-.02-1.12v-.05c0-.445 0-.816.021-1.12.021-.317.068-.617.188-.907A2.749 2.749 0 0 1 9.948 8.46a2.82 2.82 0 0 1 .907-.19c.304-.02.675-.02 1.12-.02Zm-1.453 1.595c-.307.127-.55.37-.677.677-.032.077-.061.194-.078.435-.017.247-.017.567-.017 1.043-.005.348.001.696.017 1.043.017.241.046.358.078.435.127.307.37.55.677.677.077.032.194.061.435.078.247.017.567.017 1.043.017s.796 0 1.043-.017c.241-.017.358-.046.435-.078.307-.127.55-.37.677-.677.032-.077.061-.194.078-.435.017-.247.017-.567.017-1.043s0-.796-.017-1.043c-.017-.241-.046-.358-.078-.435a1.248 1.248 0 0 0-.677-.677c-.077-.032-.194-.061-.435-.078-.247-.017-.567-.017-1.043-.017s-.796 0-1.043.017c-.241.017-.358.046-.435.078Z"/></svg>