<svg xmlns="http://www.w3.org/2000/svg" viewBox="0 0 24 24"><path fill="#151E28" d="M5.098 6.114a9.75 9.75 0 1 1 13.475 14.088 1.66 1.66 0 0 1-1.675.325 14.7 14.7 0 0 0-9.796 0 1.66 1.66 0 0 1-1.675-.325A9.726 9.726 0 0 1 2.25 13a9.722 9.722 0 0 1 2.848-6.886Zm.562 1.607a8.217 8.217 0 0 0-1.876 4.53H5a.75.75 0 0 1 0 1.5H3.784a8.228 8.228 0 0 0 2.655 5.343c.025.023.083.047.163.019a16.192 16.192 0 0 1 10.796 0c.08.028.138.004.163-.019a8.224 8.224 0 0 0 2.655-5.344H19a.75.75 0 0 1 0-1.5h1.216a8.217 8.217 0 0 0-1.876-4.53l-.86.86a.751.751 0 0 1-1.042-.018.751.751 0 0 1-.018-1.042l.86-.86A8.216 8.216 0 0 0 12 4.75a8.216 8.216 0 0 0-5.28 1.91l.86.86a.751.751 0 0 1-.018 1.042.751.751 0 0 1-1.042.018Zm5.59 3.633V7a.75.75 0 0 1 1.5 0v4.354a2.75 2.75 0 1 1-1.5 0ZM12 12.75a1.25 1.25 0 1 0 0 2.5 1.25 1.25 0 0 0 0-2.5Z"/></svg>