<svg xmlns="http://www.w3.org/2000/svg" viewBox="0 0 24 24"><path fill="#151E28" d="M9.367 2.25H12a.75.75 0 0 1 0 1.5H9.4c-1.132 0-1.936.001-2.566.052-.62.051-1.005.147-1.31.302a3.258 3.258 0 0 0-1.42 1.42c-.155.305-.252.69-.302 1.31-.052.629-.052 1.434-.052 2.566v5.2c0 1.133.001 1.936.052 2.566.051.62.147 1.005.302 1.31a3.258 3.258 0 0 0 1.42 1.42c.305.155.69.252 1.31.302.629.052 1.434.052 2.566.052h5.2c1.132 0 1.936 0 2.566-.052.62-.05 1.005-.147 1.31-.302a3.258 3.258 0 0 0 1.42-1.42c.155-.305.252-.69.302-1.31.052-.629.052-1.433.052-2.566V12a.75.75 0 0 1 1.5 0v2.633c0 1.092 0 1.958-.057 2.655-.058.714-.18 1.317-.461 1.869a4.752 4.752 0 0 1-2.075 2.076c-.552.28-1.155.402-1.869.46-.697.057-1.563.057-2.655.057H9.367c-1.092 0-1.958 0-2.655-.057-.714-.058-1.318-.18-1.868-.46a4.752 4.752 0 0 1-2.077-2.076c-.28-.552-.402-1.155-.46-1.869-.057-.697-.057-1.563-.057-2.655V9.367c0-1.092 0-1.957.057-2.655.058-.713.18-1.318.461-1.868a4.752 4.752 0 0 1 2.076-2.077c.551-.28 1.154-.402 1.868-.46.697-.057 1.563-.057 2.655-.057Zm11.483.544c.057.053.113.107.168.163l.012.013.013.013a2.75 2.75 0 0 1 0 4.035l-.013.013-4.246 4.246-.044.044c-.425.424-.699.699-1.012.924-.279.2-.578.369-.892.505-.355.153-.731.247-1.314.393l-.06.015-2.28.57a.752.752 0 0 1-.91-.91l.57-2.28.016-.06c.145-.583.239-.959.392-1.314a4.72 4.72 0 0 1 .505-.891c.226-.314.499-.588.924-1.013l.044-.044L16.97 2.97l.012-.013a2.75 2.75 0 0 1 3.868-.163Zm-2.69 1.11c-.02.017-.044.041-.13.127l-4.247 4.246c-.482.483-.664.668-.81.871-.137.19-.252.395-.345.61-.1.23-.165.481-.33 1.144l-.267 1.067 1.067-.266c.664-.166.914-.231 1.144-.33.215-.093.42-.209.61-.346.203-.146.388-.327.871-.811L19.97 5.97c.043-.042.085-.085.127-.129a1.25 1.25 0 0 0 0-1.682l-.127-.128a2.35 2.35 0 0 0-.13-.127 1.25 1.25 0 0 0-1.68 0Z"/></svg>