<svg xmlns="http://www.w3.org/2000/svg" viewBox="0 0 24 24"><path fill="#151E28" d="M14.633 2.25c1.092 0 1.958 0 2.655.057.714.058 1.317.18 1.869.46a4.75 4.75 0 0 1 2.075 2.077c.281.55.403 1.154.461 1.868.057.697.057 1.563.057 2.655v5.266c0 1.092 0 1.958-.057 2.655-.058.714-.18 1.317-.46 1.869a4.752 4.752 0 0 1-2.076 2.075c-.552.281-1.155.403-1.869.461-.697.057-1.563.057-2.655.057H9.367c-1.092 0-1.958 0-2.655-.057-.714-.058-1.317-.18-1.868-.46a4.744 4.744 0 0 1-2.076-2.076c-.281-.552-.403-1.155-.461-1.869-.057-.697-.057-1.563-.057-2.655V9.367c0-1.092 0-1.958.057-2.655.058-.714.18-1.317.46-1.868a4.752 4.752 0 0 1 2.077-2.076c.55-.281 1.154-.403 1.868-.461.697-.057 1.563-.057 2.655-.057h5.266Zm3.843 1.854c-.305-.155-.69-.251-1.31-.302-.63-.051-1.434-.052-2.566-.052H9.4c-1.132 0-1.937 0-2.566.052-.62.05-1.005.147-1.31.302a3.258 3.258 0 0 0-1.42 1.42c-.155.305-.251.69-.302 1.31-.051.63-.052 1.434-.052 2.566v5.2c0 1.133 0 1.937.052 2.566.05.62.147 1.005.302 1.31a3.258 3.258 0 0 0 1.42 1.42c.305.155.69.251 1.31.302.63.051 1.434.052 2.566.052h5.2c1.133 0 1.937 0 2.566-.052.62-.05 1.005-.147 1.31-.302a3.258 3.258 0 0 0 1.42-1.42c.155-.305.251-.69.302-1.31.051-.63.052-1.434.052-2.566V9.4c0-1.132 0-1.937-.052-2.566-.05-.62-.147-1.005-.302-1.31a3.258 3.258 0 0 0-1.42-1.42ZM12.975 8.25H14a.75.75 0 0 1 0 1.5h-1c-.476 0-.796 0-1.043.017-.241.017-.358.046-.435.078-.307.127-.55.37-.677.677-.032.077-.061.194-.078.435-.006.087-.01.183-.012.293H14a.75.75 0 0 1 0 1.5h-3.245c.002.098.006.195.012.293.017.241.046.358.078.435.127.307.37.55.677.677.077.032.194.061.435.078.247.017.567.017 1.043.017h1a.75.75 0 0 1 0 1.5h-1.025c-.445 0-.816 0-1.12-.021a2.812 2.812 0 0 1-.907-.188 2.749 2.749 0 0 1-1.488-1.489 2.835 2.835 0 0 1-.19-.907c-.02-.304-.02-.675-.02-1.12v-.05c0-.445 0-.816.021-1.12.021-.317.068-.617.188-.907a2.749 2.749 0 0 1 1.489-1.488 2.82 2.82 0 0 1 .907-.19c.304-.02.675-.02 1.12-.02Z"/></svg>