<svg xmlns="http://www.w3.org/2000/svg" viewBox="0 0 24 24"><path fill="#151E28" d="m2.53 1.47 20 20a.749.749 0 0 1-.326 1.275.749.749 0 0 1-.734-.215l-3.896-3.895c-1.454.68-3.283 1.115-5.574 1.115-4.727 0-7.445-1.853-8.965-3.787a9.343 9.343 0 0 1-1.445-2.617 8.191 8.191 0 0 1-.314-1.13l-.013-.075-.004-.022-.001-.008v-.004L2 12l-.742-.107v-.002l.001-.005.002-.013c.039-.222.089-.441.15-.658a9.088 9.088 0 0 1 .605-1.563 9.15 9.15 0 0 1 3.057-3.518L1.47 2.53a.751.751 0 0 1 .018-1.042.751.751 0 0 1 1.042-.018Zm6.341 8.462L6.156 7.217a7.661 7.661 0 0 0-2.796 3.101 7.603 7.603 0 0 0-.505 1.303c-.046.163-.075.29-.092.375V12c.062.285.142.566.241.841a7.853 7.853 0 0 0 1.21 2.196C5.447 16.603 7.728 18.25 12 18.25c1.82 0 3.273-.3 4.433-.756l-2.365-2.365a3.75 3.75 0 0 1-5.197-5.197ZM10.1 5.87l-.002-.001a.75.75 0 1 1-.196-1.487 16.043 16.043 0 0 1 2.097-.132c4.728 0 7.446 1.853 8.966 3.787a9.343 9.343 0 0 1 1.445 2.617c.103.286.19.578.26.874.027.109.049.22.067.331l.004.023.001.007v.004L22 12l.743.107v.001l-.001.002v.006l-.003.02-.01.062a7.795 7.795 0 0 1-.25.949 9.356 9.356 0 0 1-1.117 2.272.752.752 0 0 1-1.301-.086.748.748 0 0 1 .057-.752c.397-.59.712-1.23.937-1.905.065-.195.12-.392.166-.592l.017-.084a6.831 6.831 0 0 0-.24-.841 7.86 7.86 0 0 0-1.212-2.196C18.555 7.397 16.274 5.75 12 5.75c-.684 0-1.317.042-1.9.12Zm2.194 3.05a.75.75 0 0 1 .957-.456 3.758 3.758 0 0 1 2.286 2.286.751.751 0 1 1-1.414.5 2.263 2.263 0 0 0-1.372-1.372.75.75 0 0 1-.457-.957ZM9.97 11.03a2.252 2.252 0 0 0 .438 2.563c.675.674 1.702.85 2.563.438l-3-3.001Zm-8.712.864L2 12l-.742.106a.753.753 0 0 1 0-.212Zm21.484.212L22 12l.742-.106c.01.07.01.142 0 .212Z"/></svg>