<svg xmlns="http://www.w3.org/2000/svg" viewBox="0 0 24 24"><path fill="#151E28" d="M12 2.25a2.75 2.75 0 0 1 2.442 1.484A2.75 2.75 0 0 1 18.75 6v.378a2.25 2.25 0 0 1 3 2.122v3.694a8.75 8.75 0 0 1-1.918 5.466l-1.37 1.713a3.249 3.249 0 0 0-.712 2.03V22a.75.75 0 0 1-1.5 0v-.597c0-1.079.367-2.125 1.041-2.967l1.37-1.713a7.246 7.246 0 0 0 1.589-4.529V8.5a.75.75 0 0 0-1.5 0 .75.75 0 0 1-1.5 0V6a1.25 1.25 0 0 0-2.5 0 .75.75 0 0 1-1.5 0V5a1.25 1.25 0 0 0-2.5 0v1a.75.75 0 0 1-1.5 0 1.25 1.25 0 0 0-2.5 0v6a.75.75 0 0 1-1.5 0V9.878A2.25 2.25 0 0 0 3.75 12v1.667c0 1.862.877 3.616 2.367 4.733a4.084 4.084 0 0 1 1.633 3.267V22a.75.75 0 0 1-1.5 0v-.333c0-.813-.382-1.579-1.033-2.067a7.422 7.422 0 0 1-2.967-5.933V12a3.75 3.75 0 0 1 3-3.675V6a2.751 2.751 0 0 1 4.308-2.266A2.75 2.75 0 0 1 12 2.25Z"/></svg>