<svg xmlns="http://www.w3.org/2000/svg" viewBox="0 0 24 24"><path fill="#151E28" d="M9.398 3.862 9.4 3.86l2.042 1.02a1.25 1.25 0 0 0 1.118 0l2.041-1.019a1.75 1.75 0 0 1 2.459 1.062l2.418 8.059a1.803 1.803 0 0 1-.833 2.085 13.393 13.393 0 0 1-13.29 0 1.803 1.803 0 0 1-.833-2.084l2.418-8.06a1.749 1.749 0 0 1 2.458-1.061ZM8.377 5.354 7.029 9.846a8.625 8.625 0 0 0 9.942 0l-1.348-4.492a.25.25 0 0 0-.351-.151l-2.042 1.02a2.751 2.751 0 0 1-2.46 0l-2.042-1.02a.251.251 0 0 0-.351.151Zm-4.782 7.644a.75.75 0 0 1-.052 1.059c-.568.514-.793 1.006-.793 1.444 0 .764.724 1.705 2.487 2.498C6.929 18.76 9.32 19.25 12 19.25c2.68 0 5.071-.49 6.763-1.252 1.763-.793 2.487-1.734 2.487-2.498 0-.438-.225-.93-.793-1.444a.749.749 0 0 1-.052-1.059.749.749 0 0 1 1.059-.053c.763.69 1.286 1.557 1.286 2.556 0 1.722-1.515 3.03-3.371 3.866-1.927.867-4.537 1.384-7.379 1.384-2.842 0-5.452-.517-7.379-1.384C2.765 18.53 1.25 17.222 1.25 15.5c0-.999.523-1.865 1.286-2.556a.749.749 0 0 1 1.06.053Zm2.983-1.648-.619 2.064c-.04.135.018.28.14.351a11.891 11.891 0 0 0 11.802 0 .304.304 0 0 0 .14-.35l-.62-2.065a10.127 10.127 0 0 1-10.843 0Z"/></svg>