<svg xmlns="http://www.w3.org/2000/svg" viewBox="0 0 24 24"><path fill="#151E28" d="M14.633 2.25c1.092 0 1.958 0 2.655.057.714.058 1.317.18 1.869.461a4.744 4.744 0 0 1 2.076 2.076c.28.551.402 1.154.46 1.868.057.697.057 1.563.057 2.655v5.266c0 1.092 0 1.958-.057 2.655-.058.714-.18 1.317-.461 1.869a4.752 4.752 0 0 1-2.075 2.076c-.552.28-1.155.402-1.869.46-.697.057-1.563.057-2.655.057H9.367c-1.092 0-1.958 0-2.655-.057-.714-.058-1.318-.18-1.868-.461a4.75 4.75 0 0 1-2.077-2.075c-.28-.552-.402-1.155-.46-1.869-.057-.697-.057-1.563-.057-2.655V9.367c0-1.092 0-1.958.057-2.655.058-.714.18-1.318.461-1.868a4.752 4.752 0 0 1 2.076-2.077c.551-.28 1.154-.402 1.868-.46.697-.057 1.563-.057 2.655-.057Zm2.533 1.552c-.629-.052-1.433-.052-2.566-.052H9.4c-1.132 0-1.936.001-2.566.052-.62.051-1.005.147-1.31.302a3.258 3.258 0 0 0-1.42 1.42c-.155.305-.252.69-.302 1.31-.052.629-.052 1.434-.052 2.566v5.2c0 1.132.001 1.936.052 2.566.051.62.147 1.005.302 1.31a3.258 3.258 0 0 0 1.42 1.42c.305.155.69.252 1.31.302.629.052 1.434.052 2.566.052h5.2c1.132 0 1.936-.001 2.566-.052.62-.051 1.005-.147 1.31-.302a3.258 3.258 0 0 0 1.42-1.42c.155-.305.252-.69.302-1.31.052-.629.052-1.433.052-2.566V9.4c0-1.132-.001-1.936-.052-2.566-.051-.62-.147-1.005-.302-1.31a3.258 3.258 0 0 0-1.42-1.42c-.305-.155-.69-.252-1.31-.302ZM8.7 6.25h.6a2.45 2.45 0 0 1 2.45 2.45v.6a2.45 2.45 0 0 1-2.45 2.45h-.6A2.45 2.45 0 0 1 6.25 9.3v-.6A2.45 2.45 0 0 1 8.7 6.25Zm8.949 7.053c.286.247.536.622.866 1.117l.064.096.045.068a.75.75 0 1 1-1.248.832l-.046-.067c-.423-.636-.552-.817-.66-.91a1.25 1.25 0 0 0-1.548-.067c-.117.084-.261.252-.738.848l-.4.5-.005.007a2.749 2.749 0 0 1-4.086.226l-.006-.006-.004-.004a1.25 1.25 0 0 0-1.766 0l-.004.004L6.53 17.53a.749.749 0 0 1-1.275-.326.749.749 0 0 1 .215-.734l1.583-1.583.005-.006a2.75 2.75 0 0 1 3.884 0l.005.006.005.004a1.25 1.25 0 0 0 1.857-.103l.004-.005.4-.5.072-.09c.371-.464.653-.817.959-1.038a2.75 2.75 0 0 1 3.405.148ZM7.75 8.7v.6c0 .525.425.95.95.95h.6a.95.95 0 0 0 .95-.95v-.6a.95.95 0 0 0-.95-.95h-.6a.95.95 0 0 0-.95.95Z"/></svg>