<svg xmlns="http://www.w3.org/2000/svg" viewBox="0 0 24 24"><path fill="#151E28" d="M6.419 2.378 6 3l.42-.622v.001h.001l.005.004.017.011c.339.238.67.488.991.749.575.467 1.318 1.13 1.955 1.892.622.746 1.212 1.669 1.36 2.653a2.838 2.838 0 0 1-.671 2.33l9.452 9.452a.751.751 0 0 1-.018 1.042.751.751 0 0 1-1.042.018l-9.572-9.572a3.798 3.798 0 0 1-2.61.417c-.991-.191-1.87-.731-2.576-1.311a11.612 11.612 0 0 1-1.7-1.762 13.071 13.071 0 0 1-.634-.883l-.01-.015-.003-.005-.002-.002L2 7l-.637.396a.75.75 0 1 1 1.274-.792l.006.009c.172.261.355.515.548.761.362.461.872 1.038 1.472 1.531.607.497 1.259.872 1.909.997.617.119 1.276.025 1.978-.502.352-.264.539-.519.635-.747.096-.226.122-.47.082-.743-.087-.574-.466-1.238-1.03-1.914-.551-.66-1.214-1.254-1.749-1.69a15.987 15.987 0 0 0-.894-.675l-.011-.007-.002-.002a.75.75 0 0 1 .838-1.244ZM20.75 3h-.001c0 3.651-1.045 6.286-2.11 8.018a11.508 11.508 0 0 1-1.473 1.924c-.204.211-.376.37-.5.48a3.78 3.78 0 0 1-.194.162l-.014.01-.005.003-.002.002-.001.001a.75.75 0 1 1-.902-1.199h.001l.002-.002.004-.003.019-.014c.178-.151.349-.311.51-.48a9.87 9.87 0 0 0 1.277-1.671c.744-1.208 1.502-2.956 1.779-5.31l-2.485 2.484-2.172 2.172-.693.694-.193.192-.05.05-.013.013-.003.004h-.001a.749.749 0 0 1-1.275-.326.749.749 0 0 1 .215-.734L13 10l-.53-.531.259-.259.694-.693 2.171-2.172L19.47 2.47a.75.75 0 0 1 1.28.53ZM9.53 14.53l-6 6a.749.749 0 0 1-1.275-.326.749.749 0 0 1 .215-.734l6-6a.749.749 0 0 1 1.275.326.749.749 0 0 1-.215.734Zm-5-10.06 3 3a.751.751 0 0 1-.018 1.042.751.751 0 0 1-1.042.018l-3-3a.751.751 0 0 1 .018-1.042.751.751 0 0 1 1.042-.018Z"/></svg>