<svg xmlns="http://www.w3.org/2000/svg" viewBox="0 0 24 24"><path fill="#151E28" d="M9.367 2.25h5.32c1.066 0 1.915 0 2.6.057.714.058 1.317.18 1.869.46a4.744 4.744 0 0 1 2.076 2.076c.28.551.402 1.155.46 1.868.05.615.057 1.361.057 2.277v6.024c-.001.916-.007 1.661-.057 2.276-.058.713-.18 1.317-.461 1.868a4.752 4.752 0 0 1-2.075 2.076c-.552.281-1.155.402-1.869.461-.697.056-1.563.056-2.655.056H9.03a.6.6 0 0 1-.06 0c-.908 0-1.648-.007-2.258-.057-.714-.058-1.318-.18-1.868-.46a4.752 4.752 0 0 1-2.077-2.076c-.28-.551-.402-1.155-.46-1.868-.057-.698-.057-1.563-.057-2.655V8.988c.001-.917.007-1.662.057-2.277.058-.713.18-1.317.461-1.868a4.744 4.744 0 0 1 2.076-2.076c.551-.28 1.154-.402 1.868-.46.697-.057 1.563-.057 2.655-.057Zm10.88 6c0-.473-.016-.945-.049-1.417-.05-.62-.147-1.004-.302-1.309a3.258 3.258 0 0 0-1.42-1.42c-.305-.155-.69-.252-1.31-.302-.63-.052-1.434-.052-2.566-.052H9.4c-1.132 0-1.937 0-2.566.052-.62.05-1.005.147-1.31.302a3.258 3.258 0 0 0-1.42 1.42c-.155.305-.251.689-.302 1.31-.032.391-.044.851-.05 1.416ZM9.75 9.75v4.5h10.5v-4.5Zm-1.5 0h-4.5v4.85c0 1.132 0 1.936.052 2.566.05.62.147 1.005.302 1.309a3.258 3.258 0 0 0 1.42 1.42c.305.155.69.252 1.31.303.392.032.851.044 1.416.049Zm11.997 6H9.75v4.5h4.85c1.133 0 1.937-.001 2.566-.052.62-.051 1.005-.148 1.31-.303a3.258 3.258 0 0 0 1.42-1.42c.155-.305.251-.689.302-1.31.032-.391.044-.85.049-1.415Z"/></svg>