<svg xmlns="http://www.w3.org/2000/svg" viewBox="0 0 24 24"><path fill="#151E28" d="M1.25 12a.75.75 0 0 1 .75-.75h1.28a8.718 8.718 0 0 1 2.024-4.884L1.469 2.53a.748.748 0 0 1 .332-1.265.75.75 0 0 1 .729.205l20 20a.749.749 0 0 1-.326 1.275.749.749 0 0 1-.734-.215l-3.836-3.835a8.71 8.71 0 0 1-4.884 2.023V22a.75.75 0 0 1-1.5 0v-1.282a8.752 8.752 0 0 1-7.97-7.968H2a.75.75 0 0 1-.75-.75Zm15.319 5.63-2.501-2.501A3.75 3.75 0 0 1 8.87 9.932l-2.5-2.5A7.25 7.25 0 0 0 16.568 17.63ZM12 1.25a.75.75 0 0 1 .75.75v1.282a8.753 8.753 0 0 1 7.968 7.968H22a.75.75 0 0 1 0 1.5h-1.282a8.73 8.73 0 0 1-.605 2.531.751.751 0 1 1-1.39-.562 7.249 7.249 0 0 0-9.442-9.442.75.75 0 0 1-.563-1.39 8.729 8.729 0 0 1 2.532-.605V2a.75.75 0 0 1 .75-.75Zm.624 7.052a3.752 3.752 0 0 1 3.074 3.074.75.75 0 0 1-1.479.248 2.251 2.251 0 0 0-1.843-1.842.75.75 0 1 1 .248-1.48ZM9.969 11.03a2.252 2.252 0 0 0 .438 2.563c.675.674 1.702.85 2.563.438Z"/></svg>