<svg xmlns="http://www.w3.org/2000/svg" viewBox="0 0 24 24"><path fill="#151E28" d="M7.25 7.835V6a4.75 4.75 0 0 1 9.5 0v1.835a6.75 6.75 0 0 1 3.942 5.284c.058.44.058.949.058 1.81v.141c0 .862 0 1.372-.058 1.811a6.75 6.75 0 0 1-5.81 5.811c-.44.058-.95.058-1.812.058h-2.14c-.862 0-1.372 0-1.811-.058a6.75 6.75 0 0 1-5.811-5.81c-.058-.44-.058-.95-.058-1.812v-.14c0-.862 0-1.372.058-1.811A6.75 6.75 0 0 1 7.25 7.835ZM11 8.75c-.953 0-1.356.002-1.685.045a5.25 5.25 0 0 0-4.52 4.52c-.043.329-.045.732-.045 1.685 0 .953.002 1.356.045 1.685a5.25 5.25 0 0 0 4.52 4.52c.329.043.732.045 1.685.045h2c.953 0 1.356-.002 1.685-.045a5.25 5.25 0 0 0 4.52-4.52c.043-.329.045-.732.045-1.685 0-.953-.002-1.356-.045-1.685a5.25 5.25 0 0 0-4.52-4.52c-.329-.043-.732-.045-1.685-.045ZM8.75 6v1.367c.122-.023.245-.043.369-.059.439-.058.949-.058 1.811-.058h2.141c.861 0 1.37 0 1.81.057.124.017.247.037.369.06V6a3.25 3.25 0 1 0-6.5 0Zm.5 8.8a2.55 2.55 0 0 1 2.55-2.55h.4a2.55 2.55 0 0 1 2.55 2.55v.4a2.55 2.55 0 0 1-2.55 2.55h-.4a2.55 2.55 0 0 1-2.55-2.55Zm2.55-1.05c-.58 0-1.05.47-1.05 1.05v.4c0 .58.47 1.05 1.05 1.05h.4c.58 0 1.05-.47 1.05-1.05v-.4c0-.58-.47-1.05-1.05-1.05Z"/></svg>