<svg xmlns="http://www.w3.org/2000/svg" viewBox="0 0 24 24"><path fill="#151E28" d="M12.17 6.25h4.661c.535 0 .98 0 1.345.03.38.03.736.098 1.074.27a2.75 2.75 0 0 1 1.2 1.202c.172.337.24.693.27 1.073.03.365.03.81.03 1.345V12a.75.75 0 0 1-.75.75H9a.75.75 0 0 1-.75-.75v-1.83c0-.535 0-.98.03-1.345.03-.38.098-.736.27-1.073A2.749 2.749 0 0 1 9.752 6.55c.337-.172.693-.24 1.073-.27.365-.03.81-.03 1.345-.03ZM1.69 2.766C1.57 2.75 1.422 2.75 1 2.75a.75.75 0 0 1 0-1.5h.05c.354 0 .596 0 .816.026A3.75 3.75 0 0 1 5.04 4c.06.213.096.452.15.802l.007.05.918 5.964c.113.733.192 1.242.284 1.637.09.385.18.607.29.777.234.358.566.643.956.82.184.083.417.139.812.169.404.03.919.031 1.661.031H22a.75.75 0 0 1 0 1.5H10.088c-.705 0-1.277 0-1.745-.036-.483-.036-.91-.114-1.317-.298a3.754 3.754 0 0 1-1.593-1.367c-.244-.373-.385-.784-.495-1.256-.107-.457-.194-1.022-.301-1.72l-.004-.029-.918-5.965c-.064-.417-.088-.562-.12-.68A2.252 2.252 0 0 0 1.69 2.767Zm8.742 5.12c-.235.12-.426.312-.546.547-.046.09-.088.227-.111.514-.025.296-.025.681-.025 1.253v1.05h9.5V10.2c0-.573-.001-.957-.025-1.253-.023-.287-.065-.424-.111-.514a1.247 1.247 0 0 0-.547-.547c-.09-.046-.227-.088-.515-.111-.295-.025-.68-.025-1.252-.025h-4.6c-.573 0-.957.001-1.253.025-.287.023-.424.065-.515.111ZM18 17.25a2.75 2.75 0 1 1 0 5.5 2.75 2.75 0 0 1 0-5.5Zm-8 0a2.75 2.75 0 1 1 0 5.5 2.75 2.75 0 0 1 0-5.5ZM8.75 20a1.25 1.25 0 1 0 2.5 0 1.25 1.25 0 0 0-2.5 0Zm8 0a1.25 1.25 0 1 0 2.5 0 1.25 1.25 0 0 0-2.5 0Z"/></svg>