<svg xmlns="http://www.w3.org/2000/svg" viewBox="0 0 24 24"><path fill="#151E28" d="M5.42 6.482h.002L1.47 2.53a.751.751 0 0 1 .018-1.042.751.751 0 0 1 1.042-.018l20 20a.749.749 0 0 1-.326 1.275.749.749 0 0 1-.734-.215l-4.25-4.25a6.745 6.745 0 0 1-4.47 2.429V23a.75.75 0 0 1-1.5 0v-2.291a6.753 6.753 0 0 1-5.959-5.959H5a.75.75 0 0 1 0-1.5h7.189L6.753 7.814 6.75 8v3a.75.75 0 0 1-1.5 0V8a6.742 6.742 0 0 1 .17-1.518Zm10.731 10.731L13.69 14.75H6.803a5.25 5.25 0 0 0 5.188 4.5h.018a5.237 5.237 0 0 0 4.143-2.037ZM7.5 2.969A6.751 6.751 0 0 1 18.75 8v3a.75.75 0 0 1-1.5 0V8A5.25 5.25 0 0 0 8.5 4.087a.75.75 0 0 1-1-1.118ZM18 13.25h1a.75.75 0 0 1 0 1.5h-1a.75.75 0 0 1 0-1.5Z"/></svg>