<svg xmlns="http://www.w3.org/2000/svg" viewBox="0 0 24 24"><path fill="#151E28" d="M8.636 2.823c.278-.1.596-.172.947-.104.506.098.93.402 1.187.85.2.35.204.769.188 1.102-.018.359-.076.822-.147 1.381l-.004.032A7.25 7.25 0 0 0 18 14.25h.02c.368 0 .67 0 .904.01.215.01.482.032.715.132a1.736 1.736 0 0 1 1.03 1.924c-.04.217-.125.4-.216.56a8.87 8.87 0 0 1-.316.497l-.013.019A9.75 9.75 0 0 1 2.25 12a9.75 9.75 0 0 1 5.513-8.784c.323-.157.618-.301.874-.393Zm.507 1.412c-.168.06-.389.167-.755.345a8.251 8.251 0 0 0 1.658 15.429 8.25 8.25 0 0 0 8.83-3.448c.137-.206.218-.33.273-.425a.63.63 0 0 0 .046-.094.234.234 0 0 0-.132-.264c-.012-.002-.07-.012-.209-.019-.194-.009-.462-.01-.854-.01a8.749 8.749 0 0 1-8.681-9.853c.075-.599.126-1.004.14-1.298.01-.2-.002-.285-.005-.306a.23.23 0 0 0-.152-.1.624.624 0 0 0-.159.043Z"/></svg>