<svg xmlns="http://www.w3.org/2000/svg" viewBox="0 0 24 24"><path fill="#151E28" d="M7.975 1.25h6.05c.445 0 .816 0 1.12.02.318.022.617.07.907.19.674.279 1.21.814 1.489 1.488.12.29.167.59.188.907.009.12.014.252.017.395H19A2.75 2.75 0 0 1 21.75 7v3A2.75 2.75 0 0 1 19 12.75h-6c-.69 0-1.25.56-1.25 1.25v1.354a2.75 2.75 0 0 1 2 2.646v2a2.75 2.75 0 1 1-5.5 0v-2a2.75 2.75 0 0 1 2-2.646V14A2.75 2.75 0 0 1 13 11.25h6c.69 0 1.25-.56 1.25-1.25V7c0-.69-.56-1.25-1.25-1.25h-1.255a8.69 8.69 0 0 1-.016.395 2.818 2.818 0 0 1-.188.907 2.75 2.75 0 0 1-1.489 1.489c-.29.12-.59.167-.907.188-.304.021-.675.021-1.12.021h-6.05c-.445 0-.816 0-1.12-.02a2.82 2.82 0 0 1-.907-.19 2.749 2.749 0 0 1-1.489-1.488c-.12-.29-.167-.59-.188-.907-.021-.304-.021-.675-.021-1.12v-.05c0-.445 0-.816.02-1.12a2.82 2.82 0 0 1 .19-.907 2.749 2.749 0 0 1 1.488-1.489c.29-.12.59-.167.907-.188.304-.021.675-.021 1.12-.021ZM16.25 5c0-.476 0-.796-.017-1.043-.017-.241-.046-.358-.078-.435a1.248 1.248 0 0 0-.677-.677c-.077-.032-.194-.061-.435-.078A17.265 17.265 0 0 0 14 2.75H8c-.476 0-.796 0-1.043.017-.241.017-.358.046-.435.078-.307.127-.55.37-.677.677-.032.077-.061.194-.078.435-.016.347-.022.695-.017 1.043 0 .476 0 .796.017 1.043.017.241.046.358.078.435.127.307.37.55.677.677.077.032.194.061.435.078.247.017.567.017 1.043.017h6c.476 0 .796 0 1.043-.017.241-.017.358-.046.435-.078.307-.127.55-.37.677-.677.032-.077.061-.194.078-.435.017-.247.017-.567.017-1.043ZM11 16.75c-.69 0-1.25.56-1.25 1.25v2a1.25 1.25 0 0 0 2.5 0v-2c0-.69-.56-1.25-1.25-1.25Z"/></svg>