<svg xmlns="http://www.w3.org/2000/svg" viewBox="0 0 24 24"><path fill="#151E28" d="M17.15 2.794a2.75 2.75 0 0 1 3.7 0c.049.044.1.096.168.163l.012.013.013.012c.067.068.12.12.163.168a2.75 2.75 0 0 1-.163 3.868l-.013.013L9.784 18.277l-.044.044c-.425.425-.698.698-1.012.924-.279.2-.578.37-.892.505-.355.153-.73.247-1.313.393l-.06.015-2.281.57a.752.752 0 0 1-.91-.91l.57-2.28.016-.06c.145-.583.239-.959.392-1.314.136-.314.305-.613.505-.891.226-.314.5-.588.924-1.013l.044-.044L16.97 2.97l.012-.013c.068-.067.12-.119.168-.163Zm2.69 1.11a1.25 1.25 0 0 0-1.68 0c-.044.041-.087.084-.13.127L6.784 15.277c-.483.483-.665.668-.811.871-.137.19-.253.395-.346.61-.099.23-.164.48-.33 1.144l-.266 1.067 1.067-.267c.663-.165.914-.23 1.144-.33a3.19 3.19 0 0 0 .61-.345c.203-.146.388-.327.871-.81L19.97 5.97c.085-.086.11-.11.127-.129a1.25 1.25 0 0 0 0-1.682 5.103 5.103 0 0 0-.127-.128c-.043-.043-.086-.086-.13-.127Z"/></svg>