<svg xmlns="http://www.w3.org/2000/svg" viewBox="0 0 24 24"><path fill="#151E28" d="M3.25 7A4.75 4.75 0 0 1 8 2.25 2.75 2.75 0 0 1 10.75 5v4A2.75 2.75 0 0 1 8 11.75a4.727 4.727 0 0 1-2.588-.766 12.288 12.288 0 0 0 7.604 7.604A4.727 4.727 0 0 1 12.25 16 2.75 2.75 0 0 1 15 13.25h4A2.75 2.75 0 0 1 21.75 16 4.75 4.75 0 0 1 17 20.75C9.406 20.75 3.25 14.594 3.25 7Zm18.28-3.47-4.72 4.72H20a.75.75 0 0 1 0 1.5h-5a.75.75 0 0 1-.75-.75V4a.75.75 0 0 1 1.5 0v3.19l4.72-4.72a.751.751 0 0 1 1.042.018.751.751 0 0 1 .018 1.042ZM17 19.25A3.25 3.25 0 0 0 20.25 16c0-.69-.56-1.25-1.25-1.25h-4c-.69 0-1.25.56-1.25 1.25A3.25 3.25 0 0 0 17 19.25Zm-9-9c.69 0 1.25-.56 1.25-1.25V5c0-.69-.56-1.25-1.25-1.25a3.25 3.25 0 1 0 0 6.5Z"/></svg>