<svg xmlns="http://www.w3.org/2000/svg" viewBox="0 0 24 24"><path fill="#151E28" d="M1.47 1.47a.75.75 0 0 1 1.06 0l20 20a.749.749 0 0 1-.326 1.275.749.749 0 0 1-.734-.215l-4.27-4.27a23.987 23.987 0 0 1-3.067 3.063l-.05.042c-.421.353-.765.64-1.327.8-.246.065-.5.096-.755.093-.241 0-.518-.024-.756-.092-.562-.16-.905-.447-1.326-.799l-.05-.041c-1.202-1.005-2.845-2.57-4.193-4.56-1.347-1.988-2.426-4.443-2.426-7.21 0-1.618.384-3.02 1.055-4.19L1.47 2.53a.75.75 0 0 1 0-1.06Zm3.944 5.005c-.418.86-.664 1.883-.664 3.08 0 2.372.925 4.536 2.168 6.37 1.242 1.834 2.774 3.297 3.914 4.25.479.4.594.483.825.549.057.016.183.034.343.034.161 0 .286-.018.344-.034.23-.066.346-.15.827-.552a22.413 22.413 0 0 0 2.964-2.977l-3.5-3.499-.01.002a3.75 3.75 0 0 1-4.322-4.322v-.012l-2.889-2.89ZM7.88 3.84h.001a.75.75 0 0 1-.762-1.292c2.567-1.513 5.941-1.685 8.686-.537 2.786 1.165 4.945 3.703 4.945 7.545 0 1.928-.524 3.705-1.296 5.275a.749.749 0 0 1-1.298.088.749.749 0 0 1-.048-.75c.694-1.411 1.142-2.962 1.142-4.614 0-3.175-1.737-5.205-4.024-6.16-2.328-.974-5.204-.817-7.346.445ZM12 7.75c-.129 0-.254.01-.376.031a.75.75 0 1 1-.248-1.48 3.75 3.75 0 0 1 4.322 4.322.75.75 0 1 1-1.48-.247A2.25 2.25 0 0 0 12 7.75Zm-1.094 4.217-.873-.873c.204.366.507.669.873.873Z"/></svg>