<svg xmlns="http://www.w3.org/2000/svg" viewBox="0 0 24 24"><path fill="#151E28" d="M10.46 20.738 3.635 8.158l-.813-1.392c-.457-.784-.25-1.834.577-2.33a16.677 16.677 0 0 1 8.6-2.373c3.144 0 6.086.866 8.6 2.374.828.495 1.036 1.545.578 2.329l-.813 1.392-6.826 12.58c-.663 1.22-2.414 1.22-3.077 0ZM5.31 8.104l.527.97a3.251 3.251 0 0 1 5.394 2.762 3.25 3.25 0 0 1-2.376 2.8l2.923 5.387a.25.25 0 0 0 .44 0l1.516-2.794a3.25 3.25 0 0 1 3.091-5.697l1.86-3.428A15.184 15.184 0 0 0 12 6.563c-2.4 0-4.67.554-6.688 1.54Zm14.113-1.31.458-.784c.072-.124.02-.242-.053-.287a15.173 15.173 0 0 0-7.83-2.16c-2.863 0-5.54.789-7.828 2.16-.074.045-.126.163-.054.287l.459.784a16.683 16.683 0 0 1 7.424-1.731c2.664 0 5.186.623 7.424 1.731ZM8.129 13.298a.757.757 0 0 1 .221-.083 1.75 1.75 0 1 0-1.751-2.765l-.01.012Zm7.977-.44a1.751 1.751 0 0 0-1.653 3.045Z"/></svg>