<svg xmlns="http://www.w3.org/2000/svg" viewBox="0 0 24 24"><path fill="#151E28" d="M10.567 2.613c.426.089.813.311 1.306.593l.087.05 1.04.595c.31.177.69.177 1 0 1.67-.955 3.75.252 3.75 2.176V19a1.25 1.25 0 0 0 1.24 1.25h.016A1.25 1.25 0 0 0 20.25 19v-1.545c0-.856-.218-1.233-.398-1.408-.188-.183-.473-.281-.881-.297a.75.75 0 0 1 .058-1.499c.592.023 1.307.174 1.869.72.57.554.852 1.385.852 2.484V19A2.75 2.75 0 0 1 19 21.749H7.768c-.813 0-1.469 0-2-.043-.546-.045-1.026-.139-1.47-.365a3.749 3.749 0 0 1-1.639-1.64c-.226-.443-.321-.924-.366-1.47-.043-.531-.043-1.187-.043-2V6.026C2.25 4.102 4.33 2.895 6 3.85c.31.177.69.177 1 0l1.04-.593.087-.05c.493-.283.881-.504 1.306-.594.374-.079.76-.079 1.134 0Zm5.683 3.414c0-.773-.835-1.257-1.506-.874a2.51 2.51 0 0 1-2.488 0l-1.04-.594c-.623-.356-.794-.444-.958-.478a1.246 1.246 0 0 0-.516 0c-.164.034-.335.122-.958.478l-1.04.594a2.51 2.51 0 0 1-2.488 0 1.006 1.006 0 0 0-1.506.874V16.2c0 .853 0 1.447.038 1.91.037.453.107.714.207.912.216.423.56.767.984.983.197.1.458.17.912.207.462.038 1.057.038 1.909.038h8.75c-.192-.375-.3-.8-.3-1.25V6.027Z"/></svg>