<svg xmlns="http://www.w3.org/2000/svg" viewBox="0 0 24 24"><path fill="#151E28" d="M13.338 5.533h-.002c.242.472.329 1.073.37 1.769.043.709.043 1.635.043 2.824v3.749c0 1.188 0 2.114-.042 2.823-.042.696-.129 1.297-.37 1.769a3.75 3.75 0 0 1-4.489 1.86c-.505-.163-.991-.527-1.512-.99-.532-.471-1.187-1.126-2.027-1.966l-.019-.02-.2-.2a1.25 1.25 0 0 0-.89-.4h-.096a2.752 2.752 0 0 1-2.854-2.854v-3.792c0-.096 0-.169.004-.234a2.75 2.75 0 0 1 2.85-2.619h.017a1.25 1.25 0 0 0 .97-.402l.199-.2.02-.02c.84-.84 1.495-1.496 2.027-1.967.521-.463 1.007-.826 1.511-.99a3.75 3.75 0 0 1 4.49 1.86ZM9.31 5.101c-.184.06-.471.235-.977.684-.494.438-1.117 1.061-1.98 1.924l-.2.2-.006.005a2.75 2.75 0 0 1-1.91.834c-.033.002-.066.002-.108.002h-.188a1.25 1.25 0 0 0-1.19 1.19l-.001.18v3.76c-.001.06 0 .12.001.18a1.25 1.25 0 0 0 1.19 1.19l.18.001h.116a2.754 2.754 0 0 1 1.832.76l.078.076.005.005.2.2c.863.864 1.486 1.486 1.98 1.924.507.449.793.624.977.684a2.25 2.25 0 0 0 2.694-1.117c.088-.172.167-.499.207-1.175.04-.658.04-1.54.04-2.76v-3.696c0-1.22 0-2.102-.04-2.76-.041-.675-.119-1.002-.207-1.175A2.25 2.25 0 0 0 9.31 5.101Zm8.22 4.369 1.97 1.97 1.97-1.97a.751.751 0 0 1 1.042.018.751.751 0 0 1 .018 1.042l-1.97 1.97 1.97 1.97a.749.749 0 0 1-.326 1.275.749.749 0 0 1-.734-.215l-1.97-1.97-1.97 1.97a.749.749 0 0 1-1.275-.326.749.749 0 0 1 .215-.734l1.97-1.97-1.97-1.97a.749.749 0 0 1 .326-1.275.749.749 0 0 1 .734.215Z"/></svg>