<svg xmlns="http://www.w3.org/2000/svg" viewBox="0 0 24 24"><path fill="#151E28" d="M8.849 3.674a3.75 3.75 0 0 1 4.489 1.86c.241.47.328 1.072.37 1.768.042.709.042 1.635.042 2.824v3.749c0 1.188 0 2.114-.043 2.823-.041.696-.128 1.297-.37 1.769a3.75 3.75 0 0 1-4.488 1.86c-.505-.163-.99-.527-1.512-.99-.532-.47-1.187-1.126-2.027-1.966l-.02-.02-.199-.2a1.25 1.25 0 0 0-.89-.401h-.097c-.096 0-.17 0-.235-.003a2.75 2.75 0 0 1-2.616-2.616c-.003-.066-.003-.14-.003-.235v-3.792c0-.096 0-.169.003-.235a2.75 2.75 0 0 1 2.85-2.619h.098c.339-.008.66-.153.89-.402l.2-.2.019-.018c.84-.84 1.495-1.496 2.027-1.967.521-.463 1.007-.826 1.512-.99Zm3.154 2.543a2.25 2.25 0 0 0-2.694-1.116c-.184.06-.47.235-.977.684-.494.438-1.117 1.06-1.98 1.924l-.2.2-.006.005c-.03.03-.053.054-.077.076a2.754 2.754 0 0 1-1.832.76h-.116l-.18.001a1.25 1.25 0 0 0-1.19 1.19l-.001.18v3.758l.001.18a1.25 1.25 0 0 0 1.19 1.19l.18.001h.116a2.754 2.754 0 0 1 1.832.76l.078.076.005.005.2.2c.863.863 1.486 1.486 1.98 1.924.506.449.793.624.977.684a2.25 2.25 0 0 0 2.694-1.116c.088-.172.166-.5.207-1.175.04-.658.04-1.54.04-2.76v-3.696c0-1.22 0-2.102-.04-2.76-.04-.676-.119-1.002-.207-1.175Zm7.413-2.841L19 4c.416-.624.418-.623.418-.623h.001l.002.002.005.003.013.009.039.028c.184.14.358.293.522.457.44.448.824.947 1.143 1.488.822 1.37 1.607 3.504 1.607 6.636s-.785 5.266-1.607 6.636a7.784 7.784 0 0 1-1.144 1.489c-.16.16-.297.279-.398.36a2.78 2.78 0 0 1-.163.123l-.013.01-.005.003-.002.002-.002.001a.75.75 0 0 1-.836-1.245l.01-.008a3.62 3.62 0 0 0 .348-.307c.354-.361.663-.764.919-1.2.678-1.13 1.393-2.996 1.393-5.864s-.715-4.734-1.393-5.864a6.185 6.185 0 0 0-.919-1.199 3.476 3.476 0 0 0-.281-.256c-.031-.026-.054-.042-.067-.052l-.011-.008a.75.75 0 1 1 .837-1.245ZM15.4 6.55a.75.75 0 0 1 1.05-.15l.001.001.002.001.004.003.01.008a3.998 3.998 0 0 1 .387.357c.22.228.503.567.785 1.025.566.92 1.111 2.304 1.111 4.205 0 1.901-.545 3.286-1.111 4.206a6.142 6.142 0 0 1-.785 1.024 4.391 4.391 0 0 1-.36.336l-.028.022-.01.007-.003.003-.002.001S16.45 17.6 16 17l.45.6a.75.75 0 1 1-.904-1.197l.005-.004.041-.035c.04-.034.102-.091.18-.172.223-.236.421-.496.59-.773.433-.705.888-1.82.888-3.419s-.455-2.714-.889-3.42a4.606 4.606 0 0 0-.59-.771 2.878 2.878 0 0 0-.22-.208l-.006-.004A.75.75 0 0 1 15.4 6.55Z"/></svg>