<svg xmlns="http://www.w3.org/2000/svg" viewBox="0 0 24 24"><path fill="#151E28" d="M11.193 1.713a4.754 4.754 0 0 1 1.614 0c.603.104 1.173.363 2.058.766l.094.042 5.147 2.34.032.015c.482.218.889.404 1.193.576.295.168.637.4.822.775a1.75 1.75 0 0 1 0 1.546c-.185.376-.527.608-.822.775-.304.173-.711.358-1.193.577l-.032.015-5.147 2.34-.094.042c-.885.402-1.455.661-2.058.765a4.754 4.754 0 0 1-1.614 0c-.603-.104-1.173-.363-2.058-.765l-.094-.043-5.147-2.34-.033-.014c-.48-.219-.888-.404-1.192-.577-.295-.167-.637-.399-.822-.775a1.75 1.75 0 0 1 0-1.546c.185-.376.527-.607.822-.775.304-.172.711-.358 1.192-.576l.033-.015 5.147-2.34.094-.042c.885-.403 1.455-.662 2.058-.766Zm1.359 1.478a3.248 3.248 0 0 0-1.104 0c-.39.067-.776.237-1.786.696l-5.147 2.34c-.523.237-.867.394-1.105.53-.152.086-.21.136-.226.151a.254.254 0 0 0 0 .184c.016.015.074.066.226.152.238.135.582.292 1.105.53l5.147 2.34c1.01.459 1.396.628 1.786.695.365.063.739.063 1.104 0 .39-.067.776-.236 1.786-.695l5.147-2.34c.523-.238.867-.395 1.105-.53.152-.086.21-.137.226-.152a.254.254 0 0 0 0-.184 1.225 1.225 0 0 0-.226-.152c-.238-.135-.582-.292-1.105-.53l-5.147-2.34c-1.01-.458-1.396-.628-1.786-.695ZM3.305 16.315l6.4 2.845c.993.441 1.371.603 1.754.668.358.06.724.06 1.082 0 .383-.065.761-.228 1.754-.668l6.4-2.845a.75.75 0 1 1 .609 1.371l-6.4 2.845-.092.04c-.869.386-1.429.636-2.021.736a4.773 4.773 0 0 1-1.582 0c-.592-.1-1.152-.349-2.021-.736l-.092-.041-6.401-2.845a.75.75 0 0 1 .61-1.37Zm-.99-4.619a.75.75 0 0 1 .99-.381l6.4 2.845c.992.44 1.371.603 1.754.668.358.06.724.06 1.082 0 .383-.065.761-.227 1.754-.668l6.4-2.845a.751.751 0 0 1 .61 1.37l-6.401 2.845-.092.041c-.87.387-1.43.636-2.021.736a4.773 4.773 0 0 1-1.582 0c-.592-.1-1.152-.35-2.021-.736l-.092-.04-6.4-2.845a.75.75 0 0 1-.381-.99Z"/></svg>