<svg xmlns="http://www.w3.org/2000/svg" viewBox="0 0 24 24"><path fill="#151E28" d="M17.095 2.25c.838 0 1.372 0 1.832.091a4.751 4.751 0 0 1 3.732 3.732c.091.46.091.994.091 1.832v8.19c0 .838 0 1.372-.091 1.832a4.751 4.751 0 0 1-3.732 3.732c-.46.091-.994.091-1.832.091H6.905c-.838 0-1.372 0-1.832-.091a4.751 4.751 0 0 1-3.732-3.732c-.091-.46-.091-.994-.091-1.832v-8.19c0-.838 0-1.372.091-1.832a4.751 4.751 0 0 1 3.732-3.732c.46-.091.994-.091 1.832-.091h10.19Zm1.539 1.562c-.296-.058-.669-.062-1.634-.062H7c-.965 0-1.338.004-1.634.062a3.248 3.248 0 0 0-2.554 2.554c-.058.296-.062.669-.062 1.634v8c0 .965.004 1.338.062 1.634a3.248 3.248 0 0 0 2.554 2.554c.296.058.669.062 1.634.062h10c.965 0 1.338-.004 1.634-.062a3.248 3.248 0 0 0 2.554-2.554c.058-.296.062-.669.062-1.634V8c0-.965-.004-1.338-.062-1.634a3.248 3.248 0 0 0-2.554-2.554ZM6 12.25h7a.75.75 0 0 1 0 1.5H6a.75.75 0 0 1 0-1.5Zm5 4h7a.75.75 0 0 1 0 1.5h-7a.75.75 0 0 1 0-1.5Zm-5 0h2a.75.75 0 0 1 0 1.5H6a.75.75 0 0 1 0-1.5Zm10-4h2a.75.75 0 0 1 0 1.5h-2a.75.75 0 0 1 0-1.5Z"/></svg>