<svg xmlns="http://www.w3.org/2000/svg" viewBox="0 0 24 24"><path fill="#151E28" d="M5.25 12a6.75 6.75 0 1 1 13.5 0 6.75 6.75 0 0 1-13.5 0ZM12 6.75a5.25 5.25 0 1 0 .001 10.501A5.25 5.25 0 0 0 12 6.75Zm7.07-.407a1 1 0 1 1-1.413-1.414 1 1 0 0 1 1.414 1.414ZM2 12a1 1 0 1 1 2 0 1 1 0 0 1-2 0Zm11-9a1 1 0 1 1-2 0 1 1 0 0 1 2 0Zm0 18a1 1 0 1 1-2 0 1 1 0 0 1 2 0Zm7-9a1 1 0 1 1 2 0 1 1 0 0 1-2 0Zm-2.343 5.657a1 1 0 1 1 1.39 1.438 1 1 0 0 1-1.39-1.438ZM6.344 19.071a1.002 1.002 0 0 1-1.687-.441 1.002 1.002 0 0 1 1.675-.961 1 1 0 0 1 .012 1.402ZM4.929 4.929h.001a1 1 0 0 1 1.413 1.414 1.002 1.002 0 0 1-1.687-.441c-.091-.35.013-.722.273-.973Z"/></svg>