<svg xmlns="http://www.w3.org/2000/svg" viewBox="0 0 24 24"><path fill="#151E28" d="M7.903 7.25h8.927c.535 0 .98 0 1.345.03.38.03.736.098 1.074.27.518.264.938.684 1.202 1.202.171.337.238.693.27 1.073.03.365.03.81.03 1.345v4.062c0 .813 0 1.469-.044 2-.045.546-.14 1.026-.366 1.47a3.752 3.752 0 0 1-1.638 1.64c-.444.226-.925.32-1.471.365-.531.043-1.187.043-2 .043H7.903c-.652 0-1.103 0-1.536-.104a3.739 3.739 0 0 1-1.083-.449c-.38-.232-.699-.551-1.16-1.012l-.06-.06-1.2-1.2-.023-.023c-.575-.575-1.038-1.039-1.383-1.445-.355-.418-.628-.824-.782-1.298a3.747 3.747 0 0 1 0-2.318c.154-.474.427-.88.782-1.298.345-.406.808-.87 1.383-1.445l.023-.023 1.2-1.2.06-.06c.461-.46.78-.78 1.16-1.012a3.741 3.741 0 0 1 1.083-.45c.433-.103.884-.103 1.536-.103Zm.085 1.5c-.769 0-1.032.005-1.27.062a2.232 2.232 0 0 0-.65.27c-.21.128-.4.31-.943.854l-1.2 1.2c-.603.603-1.023 1.024-1.323 1.377-.295.348-.43.58-.5.792a2.246 2.246 0 0 0 0 1.39c.07.211.205.444.5.792.3.354.72.774 1.323 1.377l1.2 1.2c.544.544.733.726.942.855.202.123.421.214.65.269.24.057.502.062 1.271.062H15.2c.853 0 1.447 0 1.91-.038.453-.038.714-.107.912-.207.423-.216.767-.56.983-.983.1-.198.17-.459.207-.913.038-.462.038-1.057.038-1.909v-4c0-.572 0-.957-.024-1.253-.024-.287-.066-.424-.112-.514a1.255 1.255 0 0 0-.546-.547c-.09-.046-.228-.088-.515-.111-.296-.024-.68-.025-1.253-.025Zm7.012-3h-5a.75.75 0 0 1 0-1.5h5.034c1.372 0 2.447 0 3.312.071.88.072 1.607.22 2.265.556a5.747 5.747 0 0 1 2.513 2.513c.335.658.484 1.385.557 2.265.07.864.07 1.94.07 3.311V16a.75.75 0 0 1-1.5 0v-3c0-1.413-.001-2.427-.066-3.223-.064-.787-.187-1.295-.397-1.706a4.255 4.255 0 0 0-1.858-1.858c-.411-.209-.919-.333-1.706-.397-.797-.066-1.811-.066-3.224-.066ZM7.25 14a2.75 2.75 0 1 1 5.5 0 2.75 2.75 0 0 1-5.5 0ZM10 12.75a1.25 1.25 0 1 0 0 2.5 1.25 1.25 0 0 0 0-2.5Z"/></svg>