<svg xmlns="http://www.w3.org/2000/svg" viewBox="0 0 24 24"><path fill="#151E28" d="M3.886 11.25h16.228a2.75 2.75 0 0 1 2.575 3.716l-1.257 3.351a3.75 3.75 0 0 1-3.511 2.433H6.079a3.75 3.75 0 0 1-3.511-2.434l-1.257-3.35a2.75 2.75 0 0 1 2.575-3.716Zm-1.17 3.189 1.256 3.351a2.25 2.25 0 0 0 2.107 1.46h11.842a2.25 2.25 0 0 0 2.107-1.46l1.256-3.351a1.249 1.249 0 0 0-1.17-1.689H3.886a1.248 1.248 0 0 0-1.17 1.689Zm5.312-8.151-1.316 3.949a.75.75 0 0 1-1.423-.474l1.315-3.949a3.751 3.751 0 0 1 3.558-2.564h3.675a3.75 3.75 0 0 1 3.557 2.564l.146.436H22a.75.75 0 0 1 0 1.5h-3.96l.672 2.013a.75.75 0 0 1-1.423.475l-1.317-3.95a2.25 2.25 0 0 0-2.134-1.538h-3.676a2.25 2.25 0 0 0-2.134 1.538ZM13 16a1 1 0 1 1-2 0 1 1 0 0 1 2 0Zm-6 1a1 1 0 1 1 0-2 1 1 0 0 1 0 2Zm10 0a1 1 0 1 1 0-2 1 1 0 0 1 0 2Z"/></svg>