<svg xmlns="http://www.w3.org/2000/svg" viewBox="0 0 24 24"><path fill="#151E28" d="M8.367 2.277h7.266c1.092 0 1.958 0 2.655.057.714.059 1.317.18 1.869.461a4.752 4.752 0 0 1 2.075 2.076c.281.551.403 1.155.461 1.868.057.698.057 1.563.057 2.655v5.239c0 1.092 0 1.958-.057 2.655-.058.714-.18 1.317-.46 1.869a4.752 4.752 0 0 1-2.076 2.075c-.552.281-1.155.403-1.869.461-.697.057-1.563.057-2.655.057H8.367c-1.092 0-1.958 0-2.655-.057-.714-.058-1.317-.18-1.868-.46a4.744 4.744 0 0 1-2.076-2.076c-.281-.552-.403-1.155-.461-1.869-.057-.697-.057-1.563-.057-2.655V9.394c0-1.092 0-1.957.057-2.655.058-.713.18-1.317.46-1.868a4.752 4.752 0 0 1 2.077-2.076c.55-.28 1.154-.402 1.868-.46.697-.058 1.563-.058 2.655-.058ZM5.834 3.83c-.62.051-1.005.147-1.31.303a3.258 3.258 0 0 0-1.42 1.42c-.155.304-.251.689-.302 1.31-.051.629-.052 1.433-.052 2.565V14.6c0 1.133 0 1.937.052 2.566.05.62.147 1.005.302 1.31a3.258 3.258 0 0 0 1.42 1.42c.305.155.69.251 1.31.302.63.051 1.434.052 2.566.052h7.2c1.133 0 1.937 0 2.566-.052.62-.05 1.005-.147 1.31-.302a3.258 3.258 0 0 0 1.42-1.42c.155-.305.251-.69.302-1.31.051-.63.052-1.434.052-2.566V9.427c0-1.132 0-1.936-.052-2.566-.05-.62-.147-1.005-.302-1.31a3.258 3.258 0 0 0-1.42-1.42c-.305-.155-.69-.25-1.31-.302-.63-.051-1.433-.052-2.566-.052H8.4c-1.132 0-1.937 0-2.566.052ZM7.53 9.47l3 3a.75.75 0 0 1 0 1.06l-3 3a.749.749 0 0 1-1.275-.326.749.749 0 0 1 .215-.734L8.94 13l-2.47-2.47a.751.751 0 0 1 .018-1.042.751.751 0 0 1 1.042-.018ZM12.25 16a.75.75 0 0 1 .75-.75h4a.75.75 0 0 1 0 1.5h-4a.75.75 0 0 1-.75-.75Z"/></svg>