<svg xmlns="http://www.w3.org/2000/svg" viewBox="0 0 24 24"><path fill="#151E28" d="M20 3.25a.75.75 0 0 1 0 1.5H4a.75.75 0 0 1 0-1.5ZM20.75 19a.75.75 0 0 1-.75.75H4a.75.75 0 0 1 0-1.5h16a.75.75 0 0 1 .75.75Zm0-10a.75.75 0 0 1-.75.75H10a.75.75 0 0 1 0-1.5h10a.75.75 0 0 1 .75.75Zm0 5a.75.75 0 0 1-.75.75H10a.75.75 0 0 1 0-1.5h10a.75.75 0 0 1 .75.75ZM7.03 9.53 5.06 11.5l1.97 1.97a.751.751 0 0 1-.018 1.042.751.751 0 0 1-1.042.018l-2.5-2.5a.75.75 0 0 1 0-1.06l2.5-2.5a.751.751 0 0 1 1.042.018.751.751 0 0 1 .018 1.042Z"/></svg>