<svg xmlns="http://www.w3.org/2000/svg" viewBox="0 0 24 24"><path fill="#151E28" d="m5.915 8.45.535 8.019c.053.802.091 1.359.154 1.792.063.423.142.668.248.853.225.395.564.713.973.911.192.093.441.156.868.19.436.035.995.035 1.798.035h3.018c.803 0 1.362 0 1.798-.036.428-.033.676-.096.868-.19.409-.198.748-.515.973-.91.106-.185.185-.429.248-.854.064-.432.101-.99.154-1.79l.535-8.02a.75.75 0 0 1 1.497.1l-.535 8.02-.002.03c-.051.763-.092 1.379-.165 1.879-.076.514-.193.964-.428 1.377a3.75 3.75 0 0 1-1.623 1.519c-.428.207-.885.294-1.403.335-.503.04-1.121.04-1.886.04h-3.08c-.765 0-1.383 0-1.886-.04-.518-.041-.975-.128-1.403-.335a3.75 3.75 0 0 1-1.623-1.519c-.235-.413-.352-.863-.428-1.377-.073-.499-.115-1.116-.165-1.879l-.002-.03-.535-8.02a.75.75 0 1 1 1.497-.1Zm4.646-6.2h2.878c.095-.001.191.001.286.005a2.749 2.749 0 0 1 2.385 1.719c.031.078.059.162.095.269l.007.02c.022.068.045.136.07.203.18.448.602.753 1.084.782.032.002.072.002.215.002H21a.75.75 0 0 1 0 1.5h-3.439c-.137.005-.274 0-.41-.015-.05.01-.1.015-.151.015H7a.768.768 0 0 1-.152-.015l-.123.01c-.084.005-.172.005-.286.005H3a.75.75 0 0 1 0-1.5h3.419c.072.001.143.001.215-.002a1.25 1.25 0 0 0 1.084-.782c.025-.067.048-.135.07-.203l.007-.02c.035-.108.064-.191.095-.268a2.749 2.749 0 0 1 2.385-1.72c.084-.005.172-.005.286-.005Zm-.561 8a.75.75 0 0 1 .75.75v5a.75.75 0 0 1-1.5 0v-5a.75.75 0 0 1 .75-.75Zm4.75.75v5a.75.75 0 0 1-1.5 0v-5a.75.75 0 0 1 1.5 0Zm.242-5.75a3.013 3.013 0 0 1-.197-.494l-.006-.019a4.861 4.861 0 0 0-.07-.203 1.25 1.25 0 0 0-1.085-.782 3.853 3.853 0 0 0-.215-.002H10.58c-.143 0-.183 0-.215.002a1.25 1.25 0 0 0-1.084.782 4.861 4.861 0 0 0-.07.203l-.007.02c-.036.107-.064.191-.095.269-.03.076-.065.151-.102.224Z"/></svg>