<svg xmlns="http://www.w3.org/2000/svg" viewBox="0 0 24 24"><path fill="#151E28" d="M2.25 19A4.75 4.75 0 0 1 7 14.25h6A4.75 4.75 0 0 1 17.75 19 2.75 2.75 0 0 1 15 21.75H5A2.75 2.75 0 0 1 2.25 19Zm3-11a4.75 4.75 0 1 1 9.5 0 4.75 4.75 0 0 1-9.5 0ZM7 15.75A3.25 3.25 0 0 0 3.75 19c0 .69.56 1.25 1.25 1.25h10c.69 0 1.25-.56 1.25-1.25A3.25 3.25 0 0 0 13 15.75Zm3-11a3.25 3.25 0 1 0 0 6.5 3.25 3.25 0 0 0 0-6.5Zm11 1.5a.75.75 0 0 1 0 1.5h-2.19l3.72 3.72a.751.751 0 0 1-.018 1.042.751.751 0 0 1-1.042.018l-3.72-3.72V11a.75.75 0 0 1-1.5 0V7a.75.75 0 0 1 .75-.75Z"/></svg>