<svg xmlns="http://www.w3.org/2000/svg" viewBox="0 0 24 24"><path fill="#151E28" d="M2.53 1.47v-.001l20 20a.75.75 0 1 1-1.06 1.061L17 18.06a4.753 4.753 0 0 1-1.844 1.673c-.551.28-1.154.402-1.868.46-.697.057-1.563.057-2.655.057H8.367c-1.092 0-1.958 0-2.655-.057-.714-.058-1.318-.18-1.868-.461a4.75 4.75 0 0 1-2.077-2.075c-.28-.552-.402-1.155-.46-1.869-.057-.697-.057-1.563-.057-2.655v-2.266c0-1.092 0-1.958.057-2.655.058-.714.18-1.318.461-1.868A4.748 4.748 0 0 1 3.439 4.5L1.47 2.53a.751.751 0 0 1 .018-1.042.751.751 0 0 1 1.042-.018Zm13.372 15.493L4.528 5.589a.842.842 0 0 1-.101.067 3.247 3.247 0 0 0-1.323 1.369c-.155.304-.251.688-.302 1.309-.051.63-.052 1.434-.052 2.566v2.2c0 1.133 0 1.937.052 2.566.05.62.147 1.005.302 1.31a3.258 3.258 0 0 0 1.42 1.42c.305.155.69.251 1.31.302.63.051 1.434.052 2.566.052h2.2c1.133 0 1.937 0 2.566-.052.62-.05 1.005-.147 1.31-.302a3.258 3.258 0 0 0 1.42-1.42ZM13.166 5.302c-.63-.051-1.434-.052-2.566-.052H8.4a.75.75 0 0 1 0-1.5h2.233c1.092 0 1.958 0 2.655.057.714.058 1.317.18 1.868.46a4.752 4.752 0 0 1 2.076 2.077c.164.321.274.66.348 1.03.174-.166.334-.314.483-.443.408-.355.826-.663 1.288-.775a2.75 2.75 0 0 1 2.998 1.242c.247.406.325.92.363 1.458.038.554.038 1.276.038 2.185v1.918c0 .91 0 1.631-.038 2.185-.038.539-.116 1.052-.363 1.458-.24.394-.575.721-.974.951a.75.75 0 1 1-.75-1.299c.177-.102.33-.248.442-.432.045-.073.113-.267.148-.782.035-.495.035-1.165.035-2.111V11.07c0-.946 0-1.616-.035-2.111-.035-.515-.103-.709-.148-.782a1.25 1.25 0 0 0-1.362-.564c-.083.02-.268.11-.657.448-.334.29-.747.698-1.306 1.257.008.459.008.972.008 1.548V13.1a.75.75 0 0 1-1.5 0v-2.2c0-1.132 0-1.937-.052-2.566-.05-.62-.147-1.005-.302-1.31a3.258 3.258 0 0 0-1.42-1.42c-.305-.155-.69-.251-1.31-.302Z"/></svg>