<svg xmlns="http://www.w3.org/2000/svg" viewBox="0 0 24 24">
  <defs/>
  <path fill="#636F7E" opacity="0.16" d="M22,12 A10 10 0 1 1 2,12 A10 10 0 1 1 22,12 Z"/>
  <path fill="#151E28" d="M12,1.25 C17.937,1.25 22.75,6.063 22.75,12 C22.75,17.937 17.937,22.75 12,22.75 C6.063,22.75 1.25,17.937 1.25,12 C1.25,6.063 6.063,1.25 12,1.25 Z M2.75,12 C2.75,17.109 6.891,21.25 12,21.25 C17.109,21.25 21.25,17.109 21.25,12 C21.25,6.891 17.109,2.75 12,2.75 C6.891,2.75 2.75,6.891 2.75,12 Z M11.53,9.53 L9.811,11.25 L16,11.25 C16.414,11.25 16.75,11.586 16.75,12 C16.75,12.414 16.414,12.75 16,12.75 L9.811,12.75 L11.53,14.47 C11.823,14.763 11.823,15.238 11.53,15.53 C11.238,15.823 10.763,15.823 10.47,15.53 L7.47,12.53 C7.177,12.238 7.177,11.763 7.47,11.47 L10.47,8.47 C10.763,8.177 11.238,8.177 11.53,8.47 C11.823,8.763 11.823,9.237 11.53,9.53 Z"/>
</svg>

