<svg xmlns="http://www.w3.org/2000/svg" viewBox="0 0 24 24">
  <defs/>
  <path fill="#636F7E" opacity="0.16" d="M22,12 A10 10 0 1 1 2,12 A10 10 0 1 1 22,12 Z"/>
  <path fill="#151E28" d="M1.25,12 C1.25,6.063 6.063,1.25 12,1.25 C17.937,1.25 22.75,6.063 22.75,12 C22.75,17.937 17.937,22.75 12,22.75 C6.063,22.75 1.25,17.937 1.25,12 Z M12,2.75 C6.891,2.75 2.75,6.891 2.75,12 C2.75,17.109 6.891,21.25 12,21.25 C17.109,21.25 21.25,17.109 21.25,12 C21.25,6.891 17.109,2.75 12,2.75 Z M9.227,12.288 C8.934,11.995 8.934,11.52 9.227,11.227 C9.52,10.934 9.995,10.934 10.288,11.227 L13.25,14.189 L13.25,11.757 C13.25,11.343 13.586,11.007 14,11.007 C14.414,11.007 14.75,11.343 14.75,11.757 L14.75,16 C14.75,16.199 14.671,16.39 14.53,16.53 C14.39,16.671 14.199,16.75 14,16.75 L9.757,16.75 C9.343,16.75 9.007,16.414 9.007,16 C9.007,15.586 9.343,15.25 9.757,15.25 L12.189,15.25 Z M9,7.25 L15,7.25 C15.414,7.25 15.75,7.586 15.75,8 C15.75,8.414 15.414,8.75 15,8.75 L9,8.75 C8.586,8.75 8.25,8.414 8.25,8 C8.25,7.586 8.586,7.25 9,7.25 Z"/>
</svg>

