<svg xmlns="http://www.w3.org/2000/svg" viewBox="0 0 24 24">
  <defs/>
  <path fill="#636F7E" opacity="0.16" d="M22,12 A10 10 0 1 1 2,12 A10 10 0 1 1 22,12 Z"/>
  <path fill="#151E28" d="M1.25,12 C1.25,6.063 6.063,1.25 12,1.25 C17.937,1.25 22.75,6.063 22.75,12 C22.75,17.937 17.937,22.75 12,22.75 C6.063,22.75 1.25,17.937 1.25,12 Z M12,2.75 C6.891,2.75 2.75,6.891 2.75,12 C2.75,17.109 6.891,21.25 12,21.25 C17.109,21.25 21.25,17.109 21.25,12 C21.25,6.891 17.109,2.75 12,2.75 Z M10.111,16.75 L10.086,16.75 C10.003,16.75 9.938,16.75 9.88,16.747 C8.456,16.685 7.315,15.544 7.253,14.12 C7.25,14.06 7.25,13.992 7.25,13.905 L7.25,11.169 C7.25,10.635 7.25,10.189 7.28,9.825 C7.311,9.445 7.378,9.089 7.55,8.751 C7.813,8.234 8.234,7.813 8.752,7.55 C9.089,7.378 9.445,7.311 9.825,7.28 C10.189,7.25 10.635,7.25 11.169,7.25 L13.906,7.25 C13.993,7.25 14.06,7.25 14.12,7.253 C15.545,7.315 16.685,8.455 16.747,9.88 C16.75,9.94 16.75,10.007 16.75,10.095 L16.75,10.111 C16.75,10.525 16.414,10.861 16,10.861 C15.586,10.861 15.25,10.525 15.25,10.111 C15.25,10 15.25,9.969 15.249,9.945 C15.22,9.298 14.702,8.779 14.054,8.751 C14.031,8.75 14,8.75 13.889,8.75 L11.2,8.75 C10.628,8.75 10.243,8.751 9.947,8.775 C9.66,8.798 9.523,8.84 9.433,8.886 C9.197,9.006 9.006,9.197 8.886,9.432 C8.84,9.523 8.798,9.66 8.775,9.947 C8.751,10.243 8.75,10.627 8.75,11.2 L8.75,13.889 C8.75,14 8.75,14.031 8.751,14.054 C8.779,14.702 9.298,15.22 9.945,15.249 C9.969,15.25 10,15.25 10.111,15.25 C10.525,15.25 10.861,15.586 10.861,16 C10.861,16.414 10.525,16.75 10.111,16.75 Z M13.6,16.75 C13.186,16.75 12.85,16.414 12.85,16 C12.85,15.586 13.186,15.25 13.6,15.25 L14.189,15.25 L11.47,12.53 C11.177,12.237 11.177,11.762 11.47,11.47 C11.763,11.177 12.237,11.177 12.53,11.47 L15.25,14.189 L15.25,13.6 C15.25,13.186 15.586,12.85 16,12.85 C16.414,12.85 16.75,13.186 16.75,13.6 L16.75,16 C16.75,16.414 16.414,16.75 16,16.75 Z"/>
</svg>

