<svg xmlns="http://www.w3.org/2000/svg" viewBox="0 0 24 24">
  <defs/>
  <path fill="#636F7E" opacity="0.16" d="M22,12 A10 10 0 1 1 2,12 A10 10 0 1 1 22,12 Z"/>
  <path fill="#151E28" d="M12,1.25 C17.937,1.25 22.75,6.063 22.75,12 C22.75,17.937 17.937,22.75 12,22.75 C6.063,22.75 1.25,17.937 1.25,12 C1.25,6.063 6.063,1.25 12,1.25 Z M2.75,12 C2.75,17.109 6.891,21.25 12,21.25 C17.109,21.25 21.25,17.109 21.25,12 C21.25,6.891 17.109,2.75 12,2.75 C6.891,2.75 2.75,6.891 2.75,12 Z M9.75,16 C9.75,16.414 9.414,16.75 9,16.75 C8.586,16.75 8.25,16.414 8.25,16 L8.25,15.768 C8.25,14.955 8.25,14.299 8.293,13.769 C8.338,13.222 8.432,12.742 8.659,12.297 C9.018,11.592 9.592,11.018 10.297,10.659 C10.742,10.432 11.222,10.338 11.769,10.293 C12.299,10.25 12.955,10.25 13.768,10.25 L14.189,10.25 L13.47,9.53 C13.177,9.237 13.177,8.763 13.47,8.47 C13.763,8.177 14.237,8.177 14.53,8.47 L16.53,10.47 C16.823,10.763 16.823,11.237 16.53,11.53 L14.53,13.53 C14.237,13.823 13.763,13.823 13.47,13.53 C13.177,13.237 13.177,12.763 13.47,12.47 L14.189,11.75 L13.8,11.75 C12.948,11.75 12.353,11.751 11.891,11.788 C11.437,11.825 11.176,11.895 10.979,11.995 C10.555,12.211 10.211,12.555 9.995,12.979 C9.895,13.176 9.825,13.437 9.788,13.891 C9.751,14.353 9.75,14.948 9.75,15.8 Z"/>
</svg>

