<svg xmlns="http://www.w3.org/2000/svg" viewBox="0 0 24 24">
  <defs/>
  <path fill="#636F7E" opacity="0.16" d="M22,12 A10 10 0 1 1 2,12 A10 10 0 1 1 22,12 Z"/>
  <path fill="#151E28" d="M12,1.25 C17.937,1.25 22.75,6.063 22.75,12 C22.75,17.937 17.937,22.75 12,22.75 C6.063,22.75 1.25,17.937 1.25,12 C1.25,6.063 6.063,1.25 12,1.25 Z M2.75,12 C2.75,17.109 6.891,21.25 12,21.25 C17.109,21.25 21.25,17.109 21.25,12 C21.25,6.891 17.109,2.75 12,2.75 C6.891,2.75 2.75,6.891 2.75,12 Z M16,16.75 C15.586,16.75 15.25,16.414 15.25,16 L15.25,15.987 C13.643,17.297 11.331,17.552 9.428,16.454 C8.094,15.683 7.235,14.403 6.956,13.004 C6.875,12.598 7.139,12.203 7.545,12.122 C7.951,12.041 8.346,12.304 8.427,12.71 C8.625,13.705 9.233,14.609 10.178,15.155 C11.561,15.953 13.249,15.742 14.39,14.75 L14,14.75 C13.586,14.75 13.25,14.414 13.25,14 C13.25,13.586 13.586,13.25 14,13.25 L16,13.25 C16.414,13.25 16.75,13.586 16.75,14 L16.75,16 C16.75,16.414 16.414,16.75 16,16.75 Z M7.25,8 C7.25,7.586 7.586,7.25 8,7.25 C8.414,7.25 8.75,7.586 8.75,8 L8.75,8.013 C10.357,6.703 12.669,6.448 14.571,7.546 C15.906,8.317 16.764,9.597 17.043,10.996 C17.124,11.402 16.861,11.797 16.454,11.878 C16.048,11.959 15.653,11.696 15.572,11.29 C15.374,10.295 14.766,9.391 13.821,8.846 C12.439,8.047 10.75,8.258 9.61,9.25 L10,9.25 C10.414,9.25 10.75,9.586 10.75,10 C10.75,10.414 10.414,10.75 10,10.75 L8,10.75 C7.586,10.75 7.25,10.414 7.25,10 Z"/>
</svg>

