<svg xmlns="http://www.w3.org/2000/svg" viewBox="0 0 24 24">
  <defs/>
  <path fill="#636F7E" opacity="0.16" d="M22,12 A10 10 0 1 1 2,12 A10 10 0 1 1 22,12 Z"/>
  <path fill="#151E28" d="M12,1.25 C17.937,1.25 22.75,6.063 22.75,12 C22.75,17.937 17.937,22.75 12,22.75 C6.063,22.75 1.25,17.937 1.25,12 C1.25,6.063 6.063,1.25 12,1.25 Z M2.75,12 C2.75,17.109 6.891,21.25 12,21.25 C17.109,21.25 21.25,17.109 21.25,12 C21.25,6.891 17.109,2.75 12,2.75 C6.891,2.75 2.75,6.891 2.75,12 Z M16,7.25 C16.414,7.25 16.75,7.586 16.75,8 L16.75,10.286 C16.75,10.7 16.414,11.036 16,11.036 C15.586,11.036 15.25,10.7 15.25,10.286 L15.25,9.811 L13.061,12 L15.25,14.189 L15.25,13.714 C15.25,13.3 15.586,12.964 16,12.964 C16.414,12.964 16.75,13.3 16.75,13.714 L16.75,16 C16.75,16.414 16.414,16.75 16,16.75 L13.714,16.75 C13.3,16.75 12.964,16.414 12.964,16 C12.964,15.586 13.3,15.25 13.714,15.25 L14.189,15.25 L12,13.061 L9.811,15.25 L10.286,15.25 C10.7,15.25 11.036,15.586 11.036,16 C11.036,16.414 10.7,16.75 10.286,16.75 L8,16.75 C7.586,16.75 7.25,16.414 7.25,16 L7.25,13.714 C7.25,13.3 7.586,12.964 8,12.964 C8.414,12.964 8.75,13.3 8.75,13.714 L8.75,14.189 L10.939,12 L8.75,9.811 L8.75,10.286 C8.75,10.7 8.414,11.036 8,11.036 C7.586,11.036 7.25,10.7 7.25,10.286 L7.25,8 C7.25,7.586 7.586,7.25 8,7.25 L10.286,7.25 C10.7,7.25 11.036,7.586 11.036,8 C11.036,8.414 10.7,8.75 10.286,8.75 L9.811,8.75 L12,10.939 L14.189,8.75 L13.714,8.75 C13.3,8.75 12.964,8.414 12.964,8 C12.964,7.586 13.3,7.25 13.714,7.25 Z"/>
</svg>

