<svg xmlns="http://www.w3.org/2000/svg" viewBox="0 0 24 24">
  <defs/>
  <path fill="#636F7E" opacity="0.16" d="M22,12 A10 10 0 1 1 2,12 A10 10 0 1 1 22,12 Z"/>
  <path fill="#151E28" d="M12,1.25 C17.937,1.25 22.75,6.063 22.75,12 C22.75,17.937 17.937,22.75 12,22.75 C6.063,22.75 1.25,17.937 1.25,12 C1.25,6.063 6.063,1.25 12,1.25 Z M2.75,12 C2.75,17.109 6.891,21.25 12,21.25 C17.109,21.25 21.25,17.109 21.25,12 C21.25,6.891 17.109,2.75 12,2.75 C6.891,2.75 2.75,6.891 2.75,12 Z M12.25,8 C12.25,7.586 12.586,7.25 13,7.25 L16,7.25 C16.414,7.25 16.75,7.586 16.75,8 L16.75,11 C16.75,11.414 16.414,11.75 16,11.75 C15.586,11.75 15.25,11.414 15.25,11 L15.25,9.811 L9.811,15.25 L11,15.25 C11.414,15.25 11.75,15.586 11.75,16 C11.75,16.414 11.414,16.75 11,16.75 L8,16.75 C7.586,16.75 7.25,16.414 7.25,16 L7.25,13 C7.25,12.586 7.586,12.25 8,12.25 C8.414,12.25 8.75,12.586 8.75,13 L8.75,14.189 L14.189,8.75 L13,8.75 C12.586,8.75 12.25,8.414 12.25,8 Z"/>
</svg>

