<svg xmlns="http://www.w3.org/2000/svg" viewBox="0 0 24 24">
  <defs/>
  <path fill="#636F7E" opacity="0.16" d="M22,12 A10 10 0 1 1 2,12 A10 10 0 1 1 22,12 Z"/>
  <path fill="#151E28" d="M12,1.25 C17.937,1.25 22.75,6.063 22.75,12 C22.75,17.937 17.937,22.75 12,22.75 C6.063,22.75 1.25,17.937 1.25,12 C1.25,6.063 6.063,1.25 12,1.25 Z M2.75,12 C2.75,17.109 6.891,21.25 12,21.25 C17.109,21.25 21.25,17.109 21.25,12 C21.25,6.891 17.109,2.75 12,2.75 C6.891,2.75 2.75,6.891 2.75,12 Z M15.53,14.47 C15.823,14.763 15.823,15.238 15.53,15.53 C15.238,15.823 14.763,15.823 14.47,15.53 L9.75,10.811 L9.75,13.5 C9.75,13.914 9.414,14.25 9,14.25 C8.586,14.25 8.25,13.914 8.25,13.5 L8.25,9 C8.25,8.586 8.586,8.25 9,8.25 L13.5,8.25 C13.914,8.25 14.25,8.586 14.25,9 C14.25,9.414 13.914,9.75 13.5,9.75 L10.811,9.75 Z"/>
</svg>

