<svg xmlns="http://www.w3.org/2000/svg" viewBox="0 0 24 24">
  <defs/>
  <path fill="#636F7E" opacity="0.16" d="M12,22 C6.477,22 2,17.523 2,12 C2,6.477 6.477,2 12,2 C17.523,2 22,6.477 22,12 C22,17.523 17.523,22 12,22 Z M11.306,15.3 L14.735,15.207 C15.266,15.193 15.693,14.766 15.708,14.235 L15.8,10.805 C15.825,9.902 14.733,9.432 14.094,10.071 L13.393,10.772 L11.086,8.464 C10.695,8.074 10.062,8.074 9.672,8.464 L8.965,9.171 C8.574,9.562 8.574,10.195 8.965,10.586 L11.272,12.893 L10.572,13.593 C9.932,14.233 10.402,15.325 11.306,15.3 Z"/>
  <path fill="#151E28" d="M12,1.25 C17.937,1.25 22.75,6.063 22.75,12 C22.75,17.937 17.937,22.75 12,22.75 C6.063,22.75 1.25,17.937 1.25,12 C1.25,6.063 6.063,1.25 12,1.25 Z M2.75,12 C2.75,17.109 6.891,21.25 12,21.25 C17.109,21.25 21.25,17.109 21.25,12 C21.25,6.891 17.109,2.75 12,2.75 C6.891,2.75 2.75,6.891 2.75,12 Z M16.457,14.255 C16.432,15.185 15.685,15.932 14.755,15.957 L11.326,16.05 C9.745,16.093 8.923,14.182 10.041,13.063 L10.211,12.893 L8.434,11.116 C7.751,10.433 7.751,9.325 8.434,8.641 L9.141,7.934 C9.825,7.251 10.933,7.251 11.616,7.934 L13.393,9.711 L13.563,9.541 C14.682,8.423 16.593,9.245 16.55,10.826 Z M14.715,14.458 C14.847,14.454 14.954,14.347 14.958,14.215 L15.05,10.785 C15.057,10.559 14.784,10.442 14.624,10.602 L13.924,11.302 C13.631,11.595 13.156,11.595 12.863,11.302 L10.556,8.995 C10.458,8.897 10.3,8.897 10.202,8.995 L9.495,9.702 C9.397,9.8 9.397,9.958 9.495,10.056 L11.802,12.363 C12.095,12.656 12.095,13.131 11.802,13.424 L11.102,14.124 C10.942,14.284 11.059,14.557 11.285,14.55 Z"/>
</svg>

