<svg xmlns="http://www.w3.org/2000/svg" viewBox="0 0 24 24">
  <defs/>
  <path fill="#636F7E" opacity="0.16" d="M22,12 A10 10 0 1 1 2,12 A10 10 0 1 1 22,12 Z"/>
  <path fill="#151E28" d="M1.25,12 C1.25,6.063 6.063,1.25 12,1.25 C17.937,1.25 22.75,6.063 22.75,12 C22.75,17.937 17.937,22.75 12,22.75 C6.063,22.75 1.25,17.937 1.25,12 Z M12,2.75 C6.891,2.75 2.75,6.891 2.75,12 C2.75,17.109 6.891,21.25 12,21.25 C17.109,21.25 21.25,17.109 21.25,12 C21.25,6.891 17.109,2.75 12,2.75 Z M9.227,11.712 L12.189,8.75 L9.757,8.75 C9.343,8.75 9.007,8.414 9.007,8 C9.007,7.586 9.343,7.25 9.757,7.25 L14,7.25 C14.199,7.25 14.39,7.329 14.53,7.47 C14.671,7.61 14.75,7.801 14.75,8 L14.75,12.243 C14.75,12.657 14.414,12.993 14,12.993 C13.586,12.993 13.25,12.657 13.25,12.243 L13.25,9.811 L10.288,12.773 C9.995,13.066 9.52,13.066 9.227,12.773 C8.934,12.48 8.934,12.005 9.227,11.712 Z M15,16.75 L9,16.75 C8.586,16.75 8.25,16.414 8.25,16 C8.25,15.586 8.586,15.25 9,15.25 L15,15.25 C15.414,15.25 15.75,15.586 15.75,16 C15.75,16.414 15.414,16.75 15,16.75 Z"/>
</svg>

