<svg xmlns="http://www.w3.org/2000/svg" viewBox="0 0 24 24">
  <defs/>
  <path fill="#636F7E" opacity="0.16" d="M22,12 A10 10 0 1 1 2,12 A10 10 0 1 1 22,12 Z"/>
  <path fill="#151E28" d="M1.25,12 C1.25,6.063 6.063,1.25 12,1.25 C17.937,1.25 22.75,6.063 22.75,12 C22.75,17.937 17.937,22.75 12,22.75 C6.063,22.75 1.25,17.937 1.25,12 Z M12,2.75 C6.891,2.75 2.75,6.891 2.75,12 C2.75,17.109 6.891,21.25 12,21.25 C17.109,21.25 21.25,17.109 21.25,12 C21.25,6.891 17.109,2.75 12,2.75 Z M11.37,6.87 C11.663,6.577 12.137,6.577 12.43,6.87 L14.03,8.47 C14.323,8.763 14.323,9.237 14.03,9.53 L12.43,11.13 C12.137,11.423 11.663,11.423 11.37,11.13 C11.077,10.837 11.077,10.363 11.37,10.07 L11.673,9.766 C10.032,9.93 8.75,11.315 8.75,13 C8.75,14.795 10.205,16.25 12,16.25 C13.795,16.25 15.25,14.795 15.25,13 C15.25,12.586 15.586,12.25 16,12.25 C16.414,12.25 16.75,12.586 16.75,13 C16.75,15.623 14.623,17.75 12,17.75 C9.377,17.75 7.25,15.623 7.25,13 C7.25,10.478 9.216,8.415 11.699,8.259 L11.37,7.93 C11.077,7.637 11.077,7.163 11.37,6.87 Z"/>
</svg>

