<svg xmlns="http://www.w3.org/2000/svg" viewBox="0 0 24 24">
  <defs/>
  <path fill="#636F7E" opacity="0.16" d="M22,12 A10 10 0 1 1 2,12 A10 10 0 1 1 22,12 Z"/>
  <path fill="#151E28" d="M12,1.25 C17.937,1.25 22.75,6.063 22.75,12 C22.75,17.937 17.937,22.75 12,22.75 C6.063,22.75 1.25,17.937 1.25,12 C1.25,6.063 6.063,1.25 12,1.25 Z M2.75,12 C2.75,17.109 6.891,21.25 12,21.25 C17.109,21.25 21.25,17.109 21.25,12 C21.25,6.891 17.109,2.75 12,2.75 C6.891,2.75 2.75,6.891 2.75,12 Z M9,9.75 C8.586,9.75 8.25,9.414 8.25,9 C8.25,8.586 8.586,8.25 9,8.25 L9.232,8.25 C10.045,8.25 10.701,8.25 11.231,8.293 C11.778,8.338 12.258,8.432 12.703,8.659 C13.408,9.018 13.982,9.592 14.341,10.297 C14.568,10.742 14.662,11.222 14.707,11.769 C14.75,12.299 14.75,12.955 14.75,13.768 L14.75,14.189 L15.47,13.47 C15.763,13.177 16.237,13.177 16.53,13.47 C16.823,13.763 16.823,14.237 16.53,14.53 L14.53,16.53 C14.237,16.823 13.763,16.823 13.47,16.53 L11.47,14.53 C11.177,14.237 11.177,13.763 11.47,13.47 C11.763,13.177 12.237,13.177 12.53,13.47 L13.25,14.189 L13.25,13.8 C13.25,12.948 13.249,12.353 13.212,11.891 C13.175,11.437 13.105,11.176 13.005,10.979 C12.789,10.555 12.445,10.211 12.021,9.995 C11.824,9.895 11.563,9.825 11.109,9.788 C10.647,9.751 10.052,9.75 9.2,9.75 Z"/>
</svg>

