<svg xmlns="http://www.w3.org/2000/svg" viewBox="0 0 24 24">
  <defs/>
  <path fill="#636F7E" opacity="0.16" d="M22,12 A10 10 0 1 1 2,12 A10 10 0 1 1 22,12 Z"/>
  <path fill="#151E28" d="M12,1.25 C17.937,1.25 22.75,6.063 22.75,12 C22.75,17.937 17.937,22.75 12,22.75 C6.063,22.75 1.25,17.937 1.25,12 C1.25,6.063 6.063,1.25 12,1.25 Z M2.75,12 C2.75,17.109 6.891,21.25 12,21.25 C17.109,21.25 21.25,17.109 21.25,12 C21.25,6.891 17.109,2.75 12,2.75 C6.891,2.75 2.75,6.891 2.75,12 Z M7.999,16.75 C7.585,16.75 7.249,16.414 7.249,16 L7.249,14 C7.249,13.586 7.585,13.25 7.999,13.25 L9.999,13.25 C10.413,13.25 10.749,13.586 10.749,14 C10.749,14.414 10.413,14.75 9.999,14.75 L9.609,14.75 C10.75,15.742 12.438,15.953 13.821,15.155 C14.766,14.609 15.374,13.705 15.572,12.71 C15.653,12.304 16.048,12.041 16.454,12.122 C16.861,12.203 17.124,12.598 17.043,13.004 C16.764,14.403 15.905,15.683 14.571,16.454 C12.668,17.552 10.356,17.297 8.749,15.987 L8.749,16 C8.749,16.414 8.413,16.75 7.999,16.75 Z M16.749,8 L16.749,10 C16.749,10.414 16.413,10.75 15.999,10.75 L13.999,10.75 C13.585,10.75 13.249,10.414 13.249,10 C13.249,9.586 13.585,9.25 13.999,9.25 L14.389,9.25 C13.249,8.258 11.561,8.047 10.178,8.846 C9.233,9.391 8.625,10.295 8.427,11.29 C8.346,11.696 7.951,11.959 7.545,11.878 C7.139,11.797 6.875,11.402 6.956,10.996 C7.235,9.597 8.094,8.317 9.428,7.546 C11.33,6.448 13.642,6.703 15.249,8.013 L15.249,8 C15.249,7.586 15.585,7.25 15.999,7.25 C16.413,7.25 16.749,7.586 16.749,8 Z"/>
</svg>

