<svg xmlns="http://www.w3.org/2000/svg" viewBox="0 0 24 24">
  <defs/>
  <path fill="#636F7E" opacity="0.16" d="M17,12 A5 5 0 1 1 7,12 A5 5 0 1 1 17,12 Z"/>
  <path fill="#151E28" d="M12.53,4.47 L14.53,6.47 C14.823,6.763 14.823,7.237 14.53,7.53 L12.53,9.53 C12.238,9.823 11.763,9.823 11.47,9.53 C11.177,9.237 11.177,8.763 11.47,8.47 L12.189,7.75 L12,7.75 C9.653,7.75 7.75,9.653 7.75,12 C7.75,14.347 9.653,16.25 12,16.25 C14.347,16.25 16.25,14.347 16.25,12 C16.25,11.586 16.586,11.25 17,11.25 C17.414,11.25 17.75,11.586 17.75,12 C17.75,15.176 15.176,17.75 12,17.75 C8.824,17.75 6.25,15.176 6.25,12 C6.25,8.824 8.824,6.25 12,6.25 L12.189,6.25 L11.47,5.53 C11.177,5.237 11.177,4.763 11.47,4.47 C11.763,4.177 12.237,4.177 12.53,4.47 Z"/>
</svg>

