<svg xmlns="http://www.w3.org/2000/svg" viewBox="0 0 24 24">
  <defs/>
  <path fill="#636F7E" opacity="0.16" d="M22,12 A10 10 0 1 1 2,12 A10 10 0 1 1 22,12 Z"/>
  <path fill="#151E28" d="M1.25,12 C1.25,6.063 6.063,1.25 12,1.25 C17.937,1.25 22.75,6.063 22.75,12 C22.75,17.937 17.937,22.75 12,22.75 C6.063,22.75 1.25,17.937 1.25,12 Z M12,2.75 C6.891,2.75 2.75,6.891 2.75,12 C2.75,17.109 6.891,21.25 12,21.25 C17.109,21.25 21.25,17.109 21.25,12 C21.25,6.891 17.109,2.75 12,2.75 Z M11.111,7.25 C11.525,7.25 11.861,7.586 11.861,8 C11.861,8.414 11.525,8.75 11.111,8.75 C10.582,8.75 10.226,8.75 9.952,8.771 C9.685,8.791 9.556,8.828 9.472,8.867 C9.205,8.991 8.991,9.205 8.867,9.472 C8.828,9.556 8.791,9.685 8.771,9.952 C8.75,10.226 8.75,10.582 8.75,11.111 L8.75,12.8 C8.75,13.372 8.751,13.757 8.775,14.052 C8.798,14.34 8.84,14.477 8.886,14.568 C9.006,14.803 9.197,14.994 9.433,15.114 C9.523,15.16 9.66,15.202 9.947,15.225 C10.243,15.249 10.628,15.25 11.2,15.25 L12.889,15.25 C13.418,15.25 13.774,15.25 14.048,15.229 C14.315,15.208 14.443,15.172 14.528,15.133 C14.795,15.009 15.009,14.795 15.133,14.528 C15.172,14.443 15.208,14.315 15.229,14.048 C15.25,13.774 15.25,13.418 15.25,12.889 C15.25,12.475 15.586,12.139 16,12.139 C16.414,12.139 16.75,12.475 16.75,12.889 L16.75,12.917 C16.75,13.411 16.75,13.824 16.724,14.162 C16.698,14.514 16.64,14.845 16.492,15.162 C16.219,15.748 15.748,16.219 15.162,16.492 C14.845,16.64 14.514,16.698 14.162,16.724 C13.824,16.75 13.411,16.75 12.917,16.75 L11.17,16.75 C10.635,16.75 10.189,16.75 9.825,16.72 C9.445,16.689 9.089,16.622 8.752,16.45 C8.234,16.187 7.813,15.766 7.55,15.248 C7.378,14.911 7.311,14.555 7.28,14.175 C7.25,13.81 7.25,13.365 7.25,12.831 L7.25,11.083 C7.25,10.589 7.25,10.176 7.276,9.838 C7.302,9.486 7.36,9.155 7.508,8.838 C7.781,8.252 8.252,7.781 8.838,7.508 C9.155,7.36 9.486,7.302 9.838,7.276 C10.176,7.25 10.589,7.25 11.083,7.25 L11.111,7.25 Z M13.75,8 C13.75,7.586 14.086,7.25 14.5,7.25 L16,7.25 C16.414,7.25 16.75,7.586 16.75,8 L16.75,9.5 C16.75,9.914 16.414,10.25 16,10.25 C15.678,10.25 15.404,10.048 15.297,9.763 L13.763,11.297 C14.048,11.404 14.25,11.678 14.25,12 C14.25,12.414 13.914,12.75 13.5,12.75 L12,12.75 C11.586,12.75 11.25,12.414 11.25,12 L11.25,10.5 C11.25,10.086 11.586,9.75 12,9.75 C12.322,9.75 12.596,9.952 12.703,10.237 L14.237,8.703 C13.952,8.596 13.75,8.322 13.75,8 Z"/>
</svg>

