<svg xmlns="http://www.w3.org/2000/svg" viewBox="0 0 24 24">
  <defs/>
  <path fill="#636F7E" opacity="0.16" d="M17,7 L7,7 L7,17 L17,17 L17,7 Z"/>
  <path fill="#151E28" d="M17.75,7 L17.75,9.857 C17.75,10.271 17.414,10.607 17,10.607 C16.586,10.607 16.25,10.271 16.25,9.857 L16.25,8.811 L13.061,12 L16.25,15.189 L16.25,14.143 C16.25,13.729 16.586,13.393 17,13.393 C17.414,13.393 17.75,13.729 17.75,14.143 L17.75,17 C17.75,17.414 17.414,17.75 17,17.75 L14.143,17.75 C13.729,17.75 13.393,17.414 13.393,17 C13.393,16.586 13.729,16.25 14.143,16.25 L15.189,16.25 L12,13.061 L8.811,16.25 L9.857,16.25 C10.271,16.25 10.607,16.586 10.607,17 C10.607,17.414 10.271,17.75 9.857,17.75 L7,17.75 C6.586,17.75 6.25,17.414 6.25,17 L6.25,14.143 C6.25,13.729 6.586,13.393 7,13.393 C7.414,13.393 7.75,13.729 7.75,14.143 L7.75,15.189 L10.939,12 L7.75,8.811 L7.75,9.857 C7.75,10.271 7.414,10.607 7,10.607 C6.586,10.607 6.25,10.271 6.25,9.857 L6.25,7 C6.25,6.586 6.586,6.25 7,6.25 L9.857,6.25 C10.271,6.25 10.607,6.586 10.607,7 C10.607,7.414 10.271,7.75 9.857,7.75 L8.811,7.75 L12,10.939 L15.189,7.75 L14.143,7.75 C13.729,7.75 13.393,7.414 13.393,7 C13.393,6.586 13.729,6.25 14.143,6.25 L17,6.25 C17.414,6.25 17.75,6.586 17.75,7 Z"/>
</svg>

