<svg xmlns="http://www.w3.org/2000/svg" viewBox="0 0 24 24">
  <defs/>
  <path fill="#151E28" d="M18.53,17.47 C18.823,17.763 18.823,18.237 18.53,18.53 C18.237,18.823 17.763,18.823 17.47,18.53 L11.47,12.53 C11.177,12.237 11.177,11.763 11.47,11.47 L17.47,5.47 C17.763,5.177 18.237,5.177 18.53,5.47 C18.823,5.763 18.823,6.237 18.53,6.53 L13.061,12 Z M12.53,17.47 C12.823,17.763 12.823,18.237 12.53,18.53 C12.237,18.823 11.763,18.823 11.47,18.53 L5.47,12.53 C5.177,12.237 5.177,11.763 5.47,11.47 L11.47,5.47 C11.763,5.177 12.237,5.177 12.53,5.47 C12.823,5.763 12.823,6.237 12.53,6.53 L7.061,12 Z"/>
</svg>

