<svg xmlns="http://www.w3.org/2000/svg" viewBox="0 0 24 24">
  <defs/>
  <path fill="#636F7E" opacity="0.16" d="M22,12 A10 10 0 1 1 2,12 A10 10 0 1 1 22,12 Z"/>
  <path fill="#151E28" d="M1.25,12 C1.25,6.063 6.063,1.25 12,1.25 C17.937,1.25 22.75,6.063 22.75,12 C22.75,17.937 17.937,22.75 12,22.75 C6.063,22.75 1.25,17.937 1.25,12 Z M12,2.75 C6.891,2.75 2.75,6.891 2.75,12 C2.75,17.109 6.891,21.25 12,21.25 C17.109,21.25 21.25,17.109 21.25,12 C21.25,6.891 17.109,2.75 12,2.75 Z M9.53,8.47 L12.53,11.47 C12.823,11.763 12.823,12.237 12.53,12.53 L9.53,15.53 C9.237,15.823 8.763,15.823 8.47,15.53 C8.177,15.237 8.177,14.763 8.47,14.47 L10.939,12 L8.47,9.53 C8.177,9.237 8.177,8.763 8.47,8.47 C8.763,8.177 9.237,8.177 9.53,8.47 Z M12.47,8.47 C12.763,8.177 13.237,8.177 13.53,8.47 L16.53,11.47 C16.823,11.763 16.823,12.237 16.53,12.53 L13.53,15.53 C13.237,15.823 12.763,15.823 12.47,15.53 C12.177,15.237 12.177,14.763 12.47,14.47 L14.939,12 L12.47,9.53 C12.177,9.237 12.177,8.763 12.47,8.47 Z"/>
</svg>

