<svg xmlns="http://www.w3.org/2000/svg" viewBox="0 0 24 24">
  <defs/>
  <path fill="#636F7E" opacity="0.16" d="M21,12 A9 9 0 1 1 3,12 A9 9 0 1 1 21,12 Z"/>
  <path fill="#151E28" d="M12,2.25 C17.385,2.25 21.75,6.615 21.75,12 C21.75,17.385 17.385,21.75 12,21.75 C6.615,21.75 2.25,17.385 2.25,12 C2.25,6.615 6.615,2.25 12,2.25 Z M3.75,12 C3.75,16.556 7.444,20.25 12,20.25 C16.556,20.25 20.25,16.556 20.25,12 C20.25,7.444 16.556,3.75 12,3.75 C7.444,3.75 3.75,7.444 3.75,12 Z M12.75,8 L12.75,11.599 L15.416,13.376 C15.761,13.606 15.854,14.071 15.624,14.416 C15.394,14.761 14.929,14.854 14.584,14.624 L11.584,12.624 C11.375,12.485 11.25,12.251 11.25,12 L11.25,8 C11.25,7.586 11.586,7.25 12,7.25 C12.414,7.25 12.75,7.586 12.75,8 Z"/>
</svg>

