<svg xmlns="http://www.w3.org/2000/svg" viewBox="0 0 24 24">
  <defs/>
  <path fill="#636F7E" opacity="0.16" d="M12,2 C9.239,2 7,4.239 7,7 C4.239,7 2,9.239 2,12 C2,14.761 4.239,17 7,17 L17,17 C19.761,17 22,14.761 22,12 C22,9.239 19.761,7 17,7 C17,4.239 14.761,2 12,2 Z"/>
  <path fill="#151E28" d="M8.318,4.876 C8.111,5.234 7.652,5.357 7.293,5.149 C6.935,4.942 6.812,4.483 7.02,4.124 C8.013,2.408 9.871,1.25 12,1.25 C14.936,1.25 17.358,3.451 17.707,6.293 C20.549,6.641 22.75,9.064 22.75,12 C22.75,14.783 20.774,17.102 18.149,17.635 C17.743,17.717 17.347,17.455 17.265,17.049 C17.183,16.643 17.445,16.247 17.851,16.165 C19.79,15.771 21.25,14.055 21.25,12 C21.25,9.653 19.347,7.75 17,7.75 C16.586,7.75 16.25,7.414 16.25,7 C16.25,4.653 14.347,2.75 12,2.75 C10.428,2.75 9.054,3.603 8.318,4.876 Z M16.03,14.97 C16.323,15.263 16.323,15.737 16.03,16.03 C15.737,16.323 15.263,16.323 14.97,16.03 L12.75,13.811 L12.75,21 C12.75,21.414 12.414,21.75 12,21.75 C11.586,21.75 11.25,21.414 11.25,21 L11.25,13.811 L9.03,16.03 C8.737,16.323 8.263,16.323 7.97,16.03 C7.677,15.737 7.677,15.263 7.97,14.97 L11.47,11.47 C11.763,11.177 12.237,11.177 12.53,11.47 Z M2.75,12 C2.75,14.055 4.21,15.771 6.149,16.165 C6.555,16.247 6.817,16.643 6.735,17.049 C6.653,17.455 6.257,17.717 5.851,17.635 C3.226,17.102 1.25,14.783 1.25,12 C1.25,8.824 3.824,6.25 7,6.25 C7.816,6.25 8.595,6.421 9.3,6.729 C9.68,6.895 9.853,7.337 9.687,7.716 C9.521,8.096 9.079,8.269 8.7,8.103 C8.18,7.876 7.606,7.75 7,7.75 C4.653,7.75 2.75,9.653 2.75,12 Z"/>
</svg>

