<svg xmlns="http://www.w3.org/2000/svg" viewBox="0 0 24 24">
  <defs/>
  <path fill="#636F7E" opacity="0.16" d="M12,4 C9.239,4 7,6.239 7,9 C4.239,9 2,11.239 2,14 C2,16.761 4.239,19 7,19 L17,19 C19.761,19 22,16.761 22,14 C22,11.239 19.761,9 17,9 C17,6.239 14.761,4 12,4 Z"/>
  <path fill="#151E28" d="M12,4.75 C10.428,4.75 9.054,5.603 8.318,6.876 C8.111,7.234 7.652,7.357 7.293,7.149 C6.935,6.942 6.812,6.483 7.02,6.124 C8.013,4.408 9.871,3.25 12,3.25 C14.936,3.25 17.358,5.451 17.707,8.293 C20.549,8.641 22.75,11.064 22.75,14 C22.75,14.816 22.579,15.595 22.271,16.3 C22.105,16.68 21.663,16.853 21.284,16.687 C20.904,16.521 20.731,16.079 20.897,15.7 C21.124,15.18 21.25,14.606 21.25,14 C21.25,11.653 19.347,9.75 17,9.75 C16.586,9.75 16.25,9.414 16.25,9 C16.25,6.653 14.347,4.75 12,4.75 Z M7,9.75 C4.653,9.75 2.75,11.653 2.75,14 C2.75,15.742 3.798,17.24 5.3,17.897 C5.68,18.062 5.853,18.505 5.687,18.884 C5.521,19.264 5.079,19.437 4.7,19.271 C2.671,18.385 1.25,16.359 1.25,14 C1.25,10.824 3.824,8.25 7,8.25 C7.816,8.25 8.595,8.421 9.3,8.729 C9.68,8.895 9.853,9.337 9.687,9.716 C9.521,10.096 9.079,10.269 8.7,10.103 C8.18,9.876 7.606,9.75 7,9.75 Z M10.646,14.922 C10.263,14.635 9.737,14.635 9.354,14.922 C8.573,15.508 7.528,15.602 6.654,15.166 L5.665,14.671 C5.294,14.486 5.144,14.035 5.329,13.665 C5.514,13.294 5.965,13.144 6.335,13.329 L7.325,13.824 C7.69,14.007 8.127,13.967 8.454,13.722 C9.37,13.035 10.63,13.035 11.547,13.722 C11.873,13.967 12.31,14.007 12.675,13.824 L13.665,13.329 C14.035,13.144 14.486,13.294 14.671,13.665 C14.856,14.035 14.706,14.486 14.335,14.671 L13.346,15.166 C12.472,15.602 11.427,15.508 10.646,14.922 Z M14.354,18.422 C13.573,19.008 12.528,19.102 11.654,18.666 L10.665,18.171 C10.294,17.986 10.144,17.535 10.329,17.165 C10.514,16.794 10.965,16.644 11.335,16.829 L12.325,17.324 C12.69,17.507 13.127,17.467 13.453,17.222 C14.37,16.535 15.63,16.535 16.546,17.222 C16.873,17.467 17.31,17.507 17.675,17.324 L18.665,16.829 C19.035,16.644 19.486,16.794 19.671,17.165 C19.856,17.535 19.706,17.986 19.335,18.171 L18.346,18.666 C17.472,19.102 16.427,19.008 15.646,18.422 C15.263,18.135 14.737,18.135 14.354,18.422 Z"/>
</svg>

