<svg xmlns="http://www.w3.org/2000/svg" viewBox="0 0 24 24">
  <defs/>
  <path fill="#636F7E" opacity="0.16" d="M12,4 C9.239,4 7,6.239 7,9 C4.239,9 2,11.239 2,14 C2,16.761 4.239,19 7,19 L17,19 C19.761,19 22,16.761 22,14 C22,11.239 19.761,9 17,9 C17,6.239 14.761,4 12,4 Z"/>
  <path fill="#151E28" d="M8.318,6.876 C8.111,7.234 7.652,7.357 7.293,7.149 C6.935,6.942 6.812,6.483 7.02,6.124 C8.013,4.408 9.871,3.25 12,3.25 C14.936,3.25 17.358,5.451 17.707,8.293 C20.549,8.641 22.75,11.064 22.75,14 C22.75,16.783 20.774,19.102 18.149,19.635 C17.743,19.717 17.347,19.455 17.265,19.049 C17.183,18.643 17.445,18.247 17.851,18.165 C19.79,17.771 21.25,16.055 21.25,14 C21.25,11.653 19.347,9.75 17,9.75 C16.586,9.75 16.25,9.414 16.25,9 C16.25,6.653 14.347,4.75 12,4.75 C10.428,4.75 9.054,5.603 8.318,6.876 Z M2.75,14 C2.75,16.055 4.21,17.771 6.149,18.165 C6.555,18.247 6.817,18.643 6.735,19.049 C6.653,19.455 6.257,19.717 5.851,19.635 C3.226,19.102 1.25,16.783 1.25,14 C1.25,10.824 3.824,8.25 7,8.25 C7.816,8.25 8.595,8.421 9.3,8.729 C9.68,8.895 9.853,9.337 9.687,9.716 C9.521,10.096 9.079,10.269 8.7,10.103 C8.18,9.876 7.606,9.75 7,9.75 C4.653,9.75 2.75,11.653 2.75,14 Z M9,14.25 C9.414,14.25 9.75,14.586 9.75,15 L9.75,15.25 L10,15.25 C10.414,15.25 10.75,15.586 10.75,16 C10.75,16.414 10.414,16.75 10,16.75 L9.75,16.75 L9.75,17 C9.75,17.414 9.414,17.75 9,17.75 C8.586,17.75 8.25,17.414 8.25,17 L8.25,16.75 L8,16.75 C7.586,16.75 7.25,16.414 7.25,16 C7.25,15.586 7.586,15.25 8,15.25 L8.25,15.25 L8.25,15 C8.25,14.586 8.586,14.25 9,14.25 Z M15.75,15 L15.75,15.25 L16,15.25 C16.414,15.25 16.75,15.586 16.75,16 C16.75,16.414 16.414,16.75 16,16.75 L15.75,16.75 L15.75,17 C15.75,17.414 15.414,17.75 15,17.75 C14.586,17.75 14.25,17.414 14.25,17 L14.25,16.75 L14,16.75 C13.586,16.75 13.25,16.414 13.25,16 C13.25,15.586 13.586,15.25 14,15.25 L14.25,15.25 L14.25,15 C14.25,14.586 14.586,14.25 15,14.25 C15.414,14.25 15.75,14.586 15.75,15 Z M12.75,20 L12.75,20.25 L13,20.25 C13.414,20.25 13.75,20.586 13.75,21 C13.75,21.414 13.414,21.75 13,21.75 L12.75,21.75 L12.75,22 C12.75,22.414 12.414,22.75 12,22.75 C11.586,22.75 11.25,22.414 11.25,22 L11.25,21.75 L11,21.75 C10.586,21.75 10.25,21.414 10.25,21 C10.25,20.586 10.586,20.25 11,20.25 L11.25,20.25 L11.25,20 C11.25,19.586 11.586,19.25 12,19.25 C12.414,19.25 12.75,19.586 12.75,20 Z"/>
</svg>

