<svg xmlns="http://www.w3.org/2000/svg" viewBox="0 0 24 24">
  <defs/>
  <path fill="#636F7E" opacity="0.16" d="M3,13 C3,8.029 7.029,4 12,4 C16.971,4 21,8.029 21,13 C21,15.633 19.869,18.002 18.067,19.648 C17.819,19.874 17.465,19.932 17.148,19.82 C13.817,18.642 10.183,18.642 6.852,19.82 C6.535,19.932 6.181,19.874 5.933,19.648 C4.131,18.002 3,15.633 3,13 Z M12,16 C13.105,16 14,15.105 14,14 C14,12.895 13.105,12 12,12 C10.895,12 10,12.895 10,14 C10,15.105 10.895,16 12,16 Z"/>
  <path fill="#151E28" d="M5.098,6.114 C5.1,6.111 5.103,6.109 5.105,6.106 C5.108,6.103 5.111,6.101 5.113,6.098 C6.877,4.338 9.311,3.25 12,3.25 C17.385,3.25 21.75,7.615 21.75,13 C21.75,15.853 20.524,18.42 18.573,20.202 C18.102,20.631 17.451,20.723 16.898,20.527 C13.729,19.407 10.271,19.407 7.102,20.527 C6.549,20.723 5.898,20.631 5.427,20.202 C3.476,18.42 2.25,15.853 2.25,13 C2.25,10.312 3.338,7.878 5.098,6.114 Z M5.66,7.721 C4.617,8.972 3.938,10.535 3.784,12.25 L5,12.25 C5.414,12.25 5.75,12.586 5.75,13 C5.75,13.415 5.414,13.75 5,13.75 L3.784,13.75 C3.974,15.861 4.959,17.743 6.439,19.094 C6.464,19.117 6.522,19.141 6.602,19.113 C10.095,17.878 13.905,17.878 17.398,19.113 C17.478,19.141 17.536,19.117 17.561,19.094 C19.041,17.743 20.026,15.861 20.216,13.75 L19,13.75 C18.586,13.75 18.25,13.414 18.25,13 C18.25,12.586 18.586,12.25 19,12.25 L20.216,12.25 C20.062,10.535 19.382,8.971 18.34,7.721 L17.48,8.581 C17.187,8.873 16.712,8.873 16.419,8.581 C16.126,8.288 16.126,7.813 16.419,7.52 L17.279,6.66 C15.849,5.467 14.008,4.75 12,4.75 C9.992,4.75 8.151,5.468 6.72,6.66 L7.58,7.52 C7.873,7.813 7.873,8.288 7.58,8.581 C7.287,8.874 6.813,8.874 6.52,8.581 Z M11.25,11.354 L11.25,7 C11.25,6.586 11.586,6.25 12,6.25 C12.414,6.25 12.75,6.586 12.75,7 L12.75,11.354 C13.904,11.68 14.75,12.741 14.75,14 C14.75,15.519 13.519,16.75 12,16.75 C10.481,16.75 9.25,15.519 9.25,14 C9.25,12.741 10.096,11.68 11.25,11.354 Z M12,12.75 C11.31,12.75 10.75,13.31 10.75,14 C10.75,14.69 11.31,15.25 12,15.25 C12.69,15.25 13.25,14.69 13.25,14 C13.25,13.31 12.69,12.75 12,12.75 Z"/>
</svg>

