<svg xmlns="http://www.w3.org/2000/svg" viewBox="0 0 24 24">
  <defs/>
  <path fill="#636F7E" opacity="0.16" d="M5.5,13 C5.5,10.791 7.291,9 9.5,9 C11.709,9 13.5,10.791 13.5,13 C15.433,13 17,14.567 17,16.5 C17,18.433 15.433,20 13.5,20 L10.907,20 C10.967,19.844 11,19.676 11,19.5 C11,18.667 9.5,17 9.5,17 C9.5,17 8,18.667 8,19.5 C8,19.676 8.033,19.844 8.093,20 L5.5,20 C3.567,20 2,18.433 2,16.5 C2,14.567 3.567,13 5.5,13 Z"/>
  <path fill="#151E28" d="M9.5,9.75 C8.382,9.75 7.413,10.343 6.897,11.215 C6.686,11.572 6.226,11.69 5.87,11.479 C5.513,11.268 5.395,10.808 5.606,10.451 C6.387,9.132 7.842,8.25 9.5,8.25 C11.73,8.25 13.603,9.85 13.944,11.969 C16.089,12.296 17.75,14.113 17.75,16.333 C17.75,18.483 16.19,20.256 14.146,20.662 C13.74,20.743 13.345,20.479 13.264,20.073 C13.184,19.666 13.448,19.271 13.854,19.191 C15.233,18.917 16.25,17.731 16.25,16.333 C16.25,14.738 14.923,13.417 13.25,13.417 C12.836,13.417 12.5,13.081 12.5,12.667 C12.5,11.071 11.173,9.75 9.5,9.75 Z M5.75,13.417 C4.077,13.417 2.75,14.738 2.75,16.333 C2.75,17.731 3.767,18.917 5.146,19.191 C5.552,19.271 5.816,19.666 5.736,20.073 C5.655,20.479 5.26,20.743 4.854,20.662 C2.81,20.256 1.25,18.483 1.25,16.333 C1.25,13.878 3.281,11.917 5.75,11.917 C6.386,11.917 6.994,12.047 7.545,12.282 C7.926,12.445 8.102,12.885 7.94,13.266 C7.777,13.647 7.336,13.824 6.955,13.661 C6.588,13.504 6.181,13.417 5.75,13.417 Z M14.192,7.75 C13.688,7.75 13.207,7.841 12.764,8.008 C12.376,8.154 11.944,7.958 11.798,7.57 C11.652,7.182 11.848,6.75 12.236,6.604 C12.845,6.375 13.505,6.25 14.192,6.25 C17.262,6.25 19.75,8.738 19.75,11.808 C19.75,12.495 19.625,13.155 19.396,13.764 C19.25,14.152 18.818,14.348 18.43,14.202 C18.042,14.056 17.846,13.624 17.992,13.236 C18.159,12.793 18.25,12.312 18.25,11.808 C18.25,9.567 16.433,7.75 14.192,7.75 Z M9.5,17 L8.943,16.498 C9.085,16.34 9.287,16.25 9.5,16.25 C9.713,16.25 9.915,16.34 10.057,16.498 L9.506,16.994 C10.057,16.498 10.057,16.498 10.058,16.498 L10.058,16.499 L10.058,16.499 L10.059,16.501 L10.064,16.505 L10.078,16.522 C10.091,16.536 10.108,16.556 10.131,16.581 C10.175,16.632 10.237,16.705 10.311,16.794 C10.459,16.972 10.658,17.221 10.859,17.499 C11.057,17.775 11.268,18.095 11.433,18.415 C11.585,18.711 11.75,19.105 11.75,19.5 C11.75,20.774 10.637,21.75 9.5,21.75 C8.363,21.75 7.25,20.774 7.25,19.5 C7.25,19.105 7.415,18.711 7.567,18.415 C7.732,18.095 7.943,17.775 8.141,17.499 C8.342,17.221 8.541,16.972 8.689,16.794 C8.763,16.705 8.825,16.632 8.869,16.581 C8.892,16.556 8.909,16.536 8.922,16.522 L8.936,16.505 L8.94,16.501 L8.942,16.499 L8.942,16.499 L8.942,16.498 C8.942,16.498 8.943,16.498 9.5,17 Z M22,12.2 C21.531,12.2 21.15,11.819 21.15,11.35 C21.15,10.88 21.531,10.5 22,10.5 C22.469,10.5 22.85,10.88 22.85,11.35 C22.85,11.819 22.469,12.2 22,12.2 Z M8.5,6.702 C8.168,6.37 8.168,5.832 8.5,5.5 C8.832,5.168 9.37,5.168 9.702,5.5 C10.034,5.832 10.034,6.37 9.702,6.702 C9.37,7.034 8.832,7.034 8.5,6.702 Z M14.5,4.7 C14.031,4.7 13.65,4.319 13.65,3.85 C13.65,3.381 14.031,3 14.5,3 C14.969,3 15.35,3.381 15.35,3.85 C15.35,4.319 14.969,4.7 14.5,4.7 Z M19.382,6.626 C19.05,6.294 19.05,5.756 19.382,5.424 C19.714,5.092 20.252,5.092 20.584,5.424 C20.916,5.756 20.916,6.294 20.584,6.626 C20.252,6.958 19.714,6.958 19.382,6.626 Z M9.359,18.376 C9.182,18.621 9.018,18.874 8.901,19.101 C8.843,19.214 8.802,19.31 8.777,19.387 C8.753,19.461 8.75,19.496 8.75,19.5 L8.75,19.5 C8.75,19.893 9.137,20.25 9.5,20.25 C9.863,20.25 10.25,19.893 10.25,19.5 L10.25,19.5 C10.25,19.496 10.247,19.461 10.223,19.387 C10.198,19.31 10.157,19.214 10.099,19.101 C9.982,18.874 9.818,18.621 9.641,18.376 C9.594,18.31 9.547,18.246 9.5,18.184 C9.453,18.246 9.406,18.31 9.359,18.376 Z"/>
</svg>

