<svg xmlns="http://www.w3.org/2000/svg" viewBox="0 0 24 24">
  <defs/>
  <path fill="#151E28" d="M12,18.5 C11.172,18.5 10.5,17.828 10.5,17 C10.5,16.171 11.172,15.5 12,15.5 C12.829,15.5 13.5,16.171 13.5,17 C13.5,17.828 12.829,18.5 12,18.5 Z M13.5,12 C13.5,12.828 12.829,13.5 12,13.5 C11.172,13.5 10.5,12.828 10.5,12 C10.5,11.172 11.172,10.5 12,10.5 C12.829,10.5 13.5,11.172 13.5,12 Z M13.5,7 C13.5,7.828 12.828,8.5 12,8.5 C11.172,8.5 10.5,7.828 10.5,7 C10.5,6.172 11.172,5.5 12,5.5 C12.828,5.5 13.5,6.172 13.5,7 Z"/>
</svg>

