<svg xmlns="http://www.w3.org/2000/svg" viewBox="0 0 24 24">
  <defs/>
  <path fill="#151E28" d="M5.5,12 C5.5,11.172 6.172,10.5 7,10.5 C7.828,10.5 8.5,11.172 8.5,12 C8.5,12.828 7.828,13.5 7,13.5 C6.172,13.5 5.5,12.828 5.5,12 Z M12,13.5 C11.172,13.5 10.5,12.828 10.5,12 C10.5,11.172 11.172,10.5 12,10.5 C12.828,10.5 13.5,11.172 13.5,12 C13.5,12.828 12.828,13.5 12,13.5 Z M17,13.5 C16.172,13.5 15.5,12.828 15.5,12 C15.5,11.172 16.172,10.5 17,10.5 C17.828,10.5 18.5,11.172 18.5,12 C18.5,12.828 17.828,13.5 17,13.5 Z"/>
</svg>

