<svg xmlns="http://www.w3.org/2000/svg" viewBox="0 0 24 24">
  <defs/>
  <path fill="#636F7E" opacity="0.16" d="M4.566,15.8 C3.59,14.823 3.59,13.241 4.566,12.264 C5.453,11.377 6.201,11.464 7.071,11.564 C7.589,11.624 8.15,11.689 8.809,11.557 C8.677,12.216 8.742,12.777 8.802,13.295 L8.802,13.295 C8.902,14.163 8.988,14.91 8.108,15.794 C8.992,14.913 9.738,14.999 10.607,15.1 L10.607,15.1 L10.607,15.1 C11.125,15.16 11.686,15.224 12.345,15.093 C12.213,15.752 12.278,16.313 12.337,16.83 C12.438,17.701 12.524,18.448 11.638,19.335 C10.661,20.312 9.078,20.312 8.102,19.335 C7.127,18.36 7.126,16.781 8.098,15.804 C7.121,16.776 5.541,16.775 4.566,15.8 Z M9.493,10.874 C8.515,11.826 6.949,11.818 5.981,10.85 C5.005,9.874 5.005,8.291 5.981,7.315 C6.957,6.338 8.54,6.338 9.517,7.315 C10.486,8.284 10.493,9.851 9.538,10.828 C10.516,9.874 12.083,9.881 13.052,10.85 C14.028,11.826 14.028,13.409 13.052,14.385 C12.165,15.272 11.417,15.186 10.547,15.085 L10.547,15.085 L10.546,15.085 C10.029,15.026 9.468,14.961 8.809,15.093 C8.941,14.433 8.876,13.873 8.816,13.355 C8.717,12.492 8.631,11.75 9.493,10.874 Z M3.152,20.75 C2.176,19.773 2.176,18.19 3.152,17.214 C4.039,16.327 4.787,16.413 5.657,16.514 C6.175,16.574 6.736,16.639 7.395,16.507 C7.263,17.166 7.328,17.727 7.388,18.244 L7.388,18.244 C7.488,19.115 7.575,19.863 6.688,20.75 C5.712,21.726 4.129,21.726 3.152,20.75 Z M16.587,17.921 C15.611,18.897 14.028,18.897 13.052,17.921 C12.076,16.945 12.076,15.362 13.052,14.386 C14.028,13.409 15.611,13.409 16.587,14.386 C17.564,15.362 17.564,16.945 16.587,17.921 Z"/>
  <path fill="#151E28" d="M13.582,10.32 C14.293,11.03 14.606,11.988 14.52,12.917 C15.449,12.832 16.407,13.144 17.118,13.855 C18.387,15.124 18.387,17.182 17.118,18.451 C15.974,19.595 14.191,19.708 12.92,18.791 C12.763,19.162 12.517,19.516 12.168,19.865 C11.024,21.009 9.241,21.122 7.971,20.205 C7.813,20.576 7.568,20.931 7.218,21.28 C5.949,22.549 3.891,22.549 2.622,21.28 C1.353,20.011 1.353,17.953 2.622,16.684 C2.971,16.334 3.326,16.089 3.696,15.931 C2.779,14.661 2.893,12.877 4.036,11.734 C4.386,11.384 4.74,11.139 5.111,10.981 C4.194,9.711 4.307,7.927 5.451,6.784 C6.72,5.515 8.778,5.515 10.047,6.784 C10.758,7.495 11.071,8.453 10.985,9.381 C11.913,9.296 12.871,9.609 13.582,10.32 Z M15.175,2.045 C15.736,2.323 16.243,2.692 16.599,3.201 C16.964,3.724 17.132,4.344 17.087,5.045 C17.06,5.458 16.703,5.772 16.29,5.745 C15.876,5.719 15.563,5.362 15.59,4.948 C15.615,4.56 15.524,4.283 15.369,4.059 C15.253,3.893 15.083,3.733 14.848,3.581 L14.821,3.597 C13.742,4.219 13.441,5.567 13.986,7.021 C14.131,7.409 13.935,7.841 13.547,7.986 C13.159,8.132 12.726,7.935 12.581,7.547 C11.895,5.714 12.109,3.43 14.071,2.298 L14.468,2.068 C14.685,1.943 14.95,1.934 15.175,2.045 Z M22.248,10.748 C22.298,10.993 22.221,11.248 22.043,11.425 L21.719,11.749 C20.118,13.351 17.855,12.967 16.263,11.829 C15.926,11.589 15.848,11.12 16.088,10.783 C16.329,10.446 16.798,10.368 17.135,10.609 C18.398,11.511 19.778,11.569 20.658,10.689 L20.681,10.666 C20.595,10.4 20.484,10.194 20.353,10.04 C20.178,9.831 19.933,9.672 19.552,9.596 C19.145,9.515 18.882,9.12 18.963,8.713 C19.045,8.307 19.44,8.044 19.846,8.125 C20.535,8.263 21.09,8.586 21.501,9.073 C21.901,9.548 22.126,10.135 22.248,10.748 Z M16.603,8.822 L15.673,9.639 C15.362,9.913 14.888,9.882 14.615,9.571 C14.342,9.26 14.372,8.786 14.683,8.513 L15.613,7.696 C16.899,6.565 18.573,5.975 20.285,6.048 C20.699,6.066 21.02,6.416 21.002,6.83 C20.984,7.244 20.634,7.565 20.22,7.547 C18.895,7.49 17.599,7.947 16.603,8.822 Z M3.683,17.744 C2.999,18.428 2.999,19.536 3.683,20.219 C4.366,20.903 5.474,20.903 6.158,20.219 C6.442,19.935 6.569,19.703 6.631,19.509 C6.696,19.309 6.71,19.094 6.691,18.811 C6.683,18.697 6.668,18.563 6.65,18.412 C6.614,18.11 6.571,17.74 6.57,17.332 C6.162,17.331 5.792,17.287 5.49,17.252 C5.339,17.234 5.205,17.219 5.091,17.211 C4.807,17.192 4.593,17.206 4.393,17.27 C4.199,17.333 3.967,17.46 3.683,17.744 Z M9.343,15.856 C9.148,15.919 8.916,16.046 8.632,16.33 C7.949,17.013 7.949,18.122 8.632,18.805 C9.316,19.488 10.424,19.488 11.107,18.805 C11.391,18.521 11.519,18.289 11.581,18.094 C11.645,17.895 11.66,17.68 11.641,17.396 C11.633,17.282 11.617,17.149 11.6,16.998 C11.564,16.695 11.521,16.326 11.52,15.918 C11.111,15.917 10.742,15.873 10.439,15.838 C10.289,15.82 10.155,15.804 10.041,15.797 C9.757,15.778 9.543,15.792 9.343,15.856 Z M5.097,12.795 C4.413,13.478 4.413,14.586 5.097,15.269 C5.78,15.953 6.888,15.953 7.572,15.269 C7.856,14.985 7.983,14.753 8.045,14.559 C8.11,14.359 8.124,14.145 8.105,13.861 C8.097,13.747 8.082,13.613 8.064,13.462 C8.028,13.16 7.985,12.79 7.984,12.382 C7.576,12.381 7.206,12.338 6.904,12.302 L6.904,12.302 C6.753,12.285 6.619,12.269 6.505,12.261 C6.221,12.242 6.007,12.256 5.807,12.321 C5.613,12.383 5.381,12.51 5.097,12.795 Z M10.025,11.402 C9.756,11.676 9.634,11.901 9.573,12.091 C9.508,12.29 9.494,12.505 9.513,12.789 C9.521,12.903 9.537,13.037 9.554,13.187 C9.59,13.49 9.633,13.859 9.634,14.267 C10.042,14.269 10.412,14.312 10.714,14.347 C10.865,14.365 10.999,14.381 11.113,14.388 C11.397,14.407 11.611,14.393 11.811,14.329 C12.005,14.266 12.237,14.139 12.521,13.855 C13.205,13.172 13.205,12.064 12.521,11.38 C11.844,10.703 10.75,10.697 10.065,11.362 Z M13.582,14.916 C12.899,15.599 12.899,16.707 13.582,17.391 C14.266,18.074 15.374,18.074 16.057,17.391 C16.74,16.707 16.74,15.599 16.057,14.916 C15.374,14.232 14.266,14.232 13.582,14.916 Z M8.986,7.845 C8.303,7.161 7.195,7.161 6.511,7.845 C5.828,8.528 5.828,9.636 6.511,10.32 C7.188,10.997 8.282,11.003 8.966,10.339 L8.986,10.32 L9.005,10.301 C9.67,9.616 9.664,8.522 8.986,7.845 Z"/>
</svg>

