<svg xmlns="http://www.w3.org/2000/svg" viewBox="0 0 24 24">
  <defs/>
  <path fill="#636F7E" opacity="0.16" d="M17.839,10.131 L18.759,13.198 C18.9,13.667 18.699,14.172 18.273,14.415 C14.386,16.637 9.614,16.637 5.727,14.415 C5.301,14.172 5.1,13.667 5.241,13.198 L6.161,10.131 C9.576,12.853 14.424,12.853 17.839,10.131 Z"/>
  <path fill="#151E28" d="M9.399,3.861 L11.441,4.882 C11.793,5.058 12.207,5.058 12.559,4.882 L14.601,3.861 C15.573,3.375 16.748,3.883 17.06,4.923 L19.478,12.982 C19.719,13.786 19.374,14.65 18.645,15.067 C14.527,17.42 9.473,17.42 5.355,15.067 C4.626,14.65 4.281,13.786 4.522,12.982 L6.94,4.923 C7.252,3.883 8.427,3.375 9.399,3.861 Z M8.377,5.354 L7.029,9.846 C10.005,11.948 13.995,11.948 16.971,9.846 L15.623,5.354 C15.579,5.206 15.411,5.133 15.272,5.203 L13.23,6.224 C12.456,6.611 11.544,6.611 10.77,6.224 L8.728,5.203 C8.589,5.133 8.421,5.206 8.377,5.354 Z M3.595,12.997 C3.873,13.304 3.85,13.778 3.543,14.056 C2.975,14.57 2.75,15.062 2.75,15.5 C2.75,16.264 3.474,17.205 5.237,17.998 C6.929,18.76 9.32,19.25 12,19.25 C14.681,19.25 17.071,18.76 18.763,17.998 C20.526,17.205 21.25,16.264 21.25,15.5 C21.25,15.062 21.025,14.57 20.457,14.056 C20.15,13.778 20.127,13.304 20.405,12.997 C20.683,12.689 21.157,12.666 21.464,12.944 C22.227,13.635 22.75,14.501 22.75,15.5 C22.75,17.222 21.235,18.53 19.379,19.366 C17.452,20.233 14.842,20.75 12,20.75 C9.158,20.75 6.548,20.233 4.621,19.366 C2.765,18.53 1.25,17.222 1.25,15.5 C1.25,14.501 1.773,13.635 2.536,12.944 C2.843,12.666 3.317,12.689 3.595,12.997 Z M6.578,11.349 L5.959,13.413 C5.918,13.549 5.977,13.694 6.099,13.764 C9.756,15.854 14.244,15.854 17.901,13.764 C18.024,13.694 18.082,13.549 18.041,13.413 L17.422,11.349 C14.118,13.447 9.882,13.447 6.578,11.349 Z"/>
</svg>

