<svg xmlns="http://www.w3.org/2000/svg" viewBox="0 0 24 24">
  <defs/>
  <path fill="#636F7E" opacity="0.16" d="M14.828,9 C14.104,8.276 13.104,7.829 12,7.829 C10.895,7.829 9.895,8.276 9.172,9 L5.636,5.465 C7.265,3.836 9.515,2.829 12,2.829 C14.485,2.829 16.735,3.836 18.364,5.465 Z M14.828,14.829 L18.364,18.364 C16.735,19.993 14.485,21 12,21 C9.515,21 7.265,19.993 5.636,18.364 L9.172,14.829 C9.895,15.553 10.895,16 12,16 C13.104,16 14.104,15.553 14.828,14.829 Z"/>
  <path fill="#151E28" d="M12,2.25 C17.385,2.25 21.75,6.615 21.75,12 C21.75,17.385 17.385,21.75 12,21.75 C6.615,21.75 2.25,17.385 2.25,12 C2.25,6.615 6.615,2.25 12,2.25 Z M8.75,12 C8.75,13.795 10.205,15.25 12,15.25 C13.795,15.25 15.25,13.795 15.25,12 C15.25,10.205 13.795,8.75 12,8.75 C10.205,8.75 8.75,10.205 8.75,12 Z M6.721,5.66 L9.213,8.153 C9.996,7.585 10.959,7.25 12,7.25 C13.041,7.25 14.004,7.585 14.786,8.153 L17.279,5.66 C15.849,4.467 14.008,3.75 12,3.75 C9.992,3.75 8.151,4.467 6.721,5.66 Z M5.66,6.721 C4.467,8.151 3.75,9.992 3.75,12 C3.75,14.008 4.467,15.849 5.66,17.279 L8.153,14.786 C7.585,14.004 7.25,13.041 7.25,12 C7.25,10.959 7.585,9.996 8.153,9.213 Z M15.847,9.213 C16.415,9.996 16.75,10.959 16.75,12 C16.75,13.041 16.415,14.004 15.847,14.786 L18.34,17.279 C19.532,15.849 20.25,14.008 20.25,12 C20.25,9.992 19.532,8.151 18.34,6.721 Z M12,20.25 C14.008,20.25 15.849,19.532 17.279,18.34 L14.786,15.847 C14.004,16.415 13.041,16.75 12,16.75 C10.959,16.75 9.996,16.415 9.213,15.847 L6.721,18.34 C8.151,19.532 9.992,20.25 12,20.25 Z"/>
</svg>

