<svg xmlns="http://www.w3.org/2000/svg" viewBox="0 0 24 24">
  <defs/>
  <path fill="#636F7E" opacity="0.16" d="M18.059,16.909 L18.059,16.91 C17.826,17.452 17.71,17.723 17.532,17.941 C17.374,18.134 17.182,18.296 16.965,18.419 C16.72,18.557 16.433,18.625 15.858,18.762 L5.105,21.322 L5.103,21.323 C4.267,21.522 3.849,21.621 3.556,21.505 C3.299,21.403 3.097,21.2 2.995,20.944 C2.879,20.651 2.978,20.232 3.177,19.395 L5.738,8.641 C5.875,8.067 5.943,7.78 6.081,7.535 C6.204,7.318 6.366,7.126 6.559,6.968 C6.777,6.79 7.048,6.674 7.59,6.441 L9.069,5.807 C9.788,5.499 10.148,5.345 10.508,5.328 C10.827,5.313 11.144,5.374 11.434,5.506 C11.763,5.656 12.039,5.933 12.592,6.486 L18.014,11.907 L18.014,11.907 C18.567,12.46 18.844,12.737 18.993,13.065 C19.126,13.356 19.187,13.673 19.172,13.992 C19.155,14.352 19,14.712 18.692,15.431 Z M11.767,12.732 C10.986,11.951 9.72,11.951 8.939,12.732 C8.158,13.513 8.158,14.78 8.939,15.561 C9.72,16.342 10.986,16.342 11.767,15.561 C12.548,14.78 12.548,13.513 11.767,12.732 Z"/>
  <path fill="#151E28" d="M10.96,4.599 C11.032,4.146 11.242,3.712 11.591,3.363 C12.469,2.484 13.894,2.484 14.773,3.363 L21.137,9.727 C22.015,10.606 22.015,12.03 21.137,12.909 C20.788,13.258 20.353,13.468 19.901,13.54 C19.922,13.701 19.929,13.864 19.921,14.028 C19.897,14.526 19.691,15.006 19.429,15.617 L19.382,15.726 L18.748,17.205 L18.713,17.286 C18.515,17.749 18.359,18.114 18.113,18.415 C17.896,18.681 17.632,18.904 17.333,19.072 C16.994,19.263 16.608,19.355 16.118,19.471 L16.032,19.492 L5.278,22.052 L5.246,22.06 C4.855,22.153 4.513,22.234 4.233,22.274 C3.946,22.316 3.61,22.333 3.279,22.202 C2.831,22.024 2.476,21.669 2.298,21.221 C2.167,20.89 2.184,20.554 2.225,20.267 C2.266,19.987 2.347,19.645 2.44,19.254 L2.448,19.222 L5.008,8.468 L5.029,8.382 L5.029,8.382 C5.145,7.892 5.237,7.506 5.428,7.167 C5.596,6.868 5.819,6.604 6.085,6.387 C6.386,6.141 6.751,5.985 7.214,5.787 L7.295,5.752 L8.774,5.118 L8.883,5.071 C9.494,4.809 9.973,4.603 10.472,4.579 C10.636,4.571 10.799,4.578 10.96,4.599 Z M11.949,6.903 C11.444,6.401 11.287,6.264 11.123,6.189 C10.942,6.106 10.743,6.068 10.544,6.077 C10.351,6.086 10.139,6.165 9.365,6.497 L7.886,7.131 C7.303,7.38 7.15,7.453 7.033,7.549 C6.912,7.648 6.811,7.768 6.735,7.903 C6.66,8.035 6.614,8.198 6.468,8.815 L3.919,19.521 L7.952,15.488 C7.366,14.441 7.519,13.092 8.409,12.202 C9.483,11.128 11.224,11.128 12.298,12.202 C13.372,13.276 13.372,15.017 12.298,16.091 C11.408,16.981 10.059,17.133 9.012,16.548 L4.979,20.581 L15.685,18.032 C16.301,17.886 16.465,17.84 16.597,17.765 C16.732,17.689 16.852,17.588 16.951,17.467 C17.046,17.35 17.12,17.197 17.369,16.614 L18.003,15.135 C18.335,14.361 18.413,14.149 18.423,13.956 C18.432,13.757 18.394,13.558 18.311,13.377 C18.236,13.213 18.099,13.056 17.597,12.551 Z M20.076,11.848 C20.369,11.556 20.369,11.081 20.076,10.788 L13.712,4.424 C13.419,4.131 12.944,4.131 12.651,4.424 C12.358,4.717 12.358,5.192 12.651,5.484 L12.848,5.681 C12.91,5.743 12.973,5.806 13.039,5.872 L13.123,5.956 L18.544,11.377 L18.628,11.461 L18.628,11.461 L18.629,11.461 C18.694,11.527 18.758,11.59 18.819,11.652 L19.015,11.848 C19.308,12.141 19.783,12.141 20.076,11.848 Z M9.479,15.04 C9.968,15.519 10.752,15.515 11.237,15.03 C11.725,14.542 11.725,13.751 11.237,13.263 C10.749,12.774 9.958,12.774 9.469,13.263 C8.984,13.748 8.981,14.532 9.46,15.021 C9.463,15.024 9.466,15.027 9.47,15.03 C9.473,15.033 9.476,15.037 9.479,15.04 Z"/>
</svg>

