<svg xmlns="http://www.w3.org/2000/svg" viewBox="0 0 24 24">
  <defs/>
  <path fill="#636F7E" opacity="0.16" d="M17,7 A5 5 0 1 1 7,7 A5 5 0 1 1 17,7 Z"/>
  <path fill="#151E28" d="M11.25,12.701 C8.429,12.334 6.25,9.921 6.25,7 C6.25,3.824 8.824,1.25 12,1.25 C15.176,1.25 17.75,3.824 17.75,7 C17.75,9.921 15.571,12.334 12.75,12.701 L12.75,21 C12.75,21.414 12.414,21.75 12,21.75 C11.586,21.75 11.25,21.414 11.25,21 Z M7.75,7 C7.75,9.346 9.651,11.249 11.998,11.25 L12.003,11.25 C14.349,11.248 16.25,9.346 16.25,7 C16.25,4.653 14.347,2.75 12,2.75 C9.653,2.75 7.75,4.653 7.75,7 Z"/>
</svg>

