<svg xmlns="http://www.w3.org/2000/svg" viewBox="0 0 24 24">
  <defs/>
  <path fill="#636F7E" opacity="0.16" d="M18,3 C18.932,3 19.398,3 19.765,3.152 C20.255,3.355 20.645,3.745 20.848,4.235 C21,4.602 21,5.068 21,6 C21,6.932 21,7.398 20.848,7.765 C20.645,8.255 20.255,8.645 19.765,8.848 C19.398,9 18.932,9 18,9 C18.932,9 19.398,9 19.765,9.152 C20.255,9.355 20.645,9.745 20.848,10.235 C21,10.602 21,11.068 21,12 C21,12.932 21,13.398 20.848,13.765 C20.645,14.255 20.255,14.645 19.765,14.848 C19.398,15 18.932,15 18,15 C18.932,15 19.398,15 19.765,15.152 C20.255,15.355 20.645,15.745 20.848,16.235 C21,16.602 21,17.068 21,18 C21,18.932 21,19.398 20.848,19.765 C20.645,20.255 20.255,20.645 19.765,20.848 C19.398,21 18.932,21 18,21 L6,21 C5.068,21 4.602,21 4.235,20.848 C3.745,20.645 3.355,20.255 3.152,19.765 C3,19.398 3,18.932 3,18 C3,17.068 3,16.602 3.152,16.235 C3.355,15.745 3.745,15.355 4.235,15.152 C4.602,15 5.068,15 6,15 C5.068,15 4.602,15 4.235,14.848 C3.745,14.645 3.355,14.255 3.152,13.765 C3,13.398 3,12.932 3,12 C3,11.068 3,10.602 3.152,10.235 C3.355,9.745 3.745,9.355 4.235,9.152 C4.602,9 5.068,9 6,9 C5.068,9 4.602,9 4.235,8.848 C3.745,8.645 3.355,8.255 3.152,7.765 C3,7.398 3,6.932 3,6 C3,5.068 3,4.602 3.152,4.235 C3.355,3.745 3.745,3.355 4.235,3.152 C4.602,3 5.068,3 6,3 Z"/>
  <path fill="#151E28" d="M5.975,2.25 L18.025,2.25 C18.47,2.25 18.841,2.25 19.145,2.271 C19.462,2.292 19.762,2.339 20.052,2.459 C20.726,2.738 21.262,3.274 21.541,3.948 C21.661,4.238 21.708,4.538 21.729,4.855 C21.75,5.159 21.75,5.53 21.75,5.975 L21.75,6.025 C21.75,6.47 21.75,6.841 21.729,7.145 C21.708,7.462 21.661,7.762 21.541,8.052 C21.391,8.414 21.167,8.736 20.888,9 C21.167,9.264 21.391,9.586 21.541,9.948 C21.661,10.238 21.708,10.538 21.729,10.855 C21.75,11.159 21.75,11.53 21.75,11.975 L21.75,12.025 C21.75,12.47 21.75,12.841 21.729,13.145 C21.708,13.462 21.661,13.762 21.541,14.052 C21.391,14.414 21.167,14.736 20.888,15 C21.167,15.264 21.391,15.586 21.541,15.948 C21.661,16.238 21.708,16.538 21.729,16.855 C21.75,17.159 21.75,17.53 21.75,17.975 L21.75,18.025 C21.75,18.47 21.75,18.841 21.729,19.145 C21.708,19.462 21.661,19.762 21.541,20.052 C21.262,20.726 20.726,21.262 20.052,21.541 C19.762,21.661 19.462,21.708 19.145,21.729 C18.841,21.75 18.47,21.75 18.025,21.75 L5.975,21.75 C5.53,21.75 5.159,21.75 4.855,21.729 C4.538,21.708 4.238,21.661 3.948,21.541 C3.274,21.262 2.738,20.726 2.459,20.052 C2.339,19.762 2.292,19.462 2.271,19.145 C2.25,18.841 2.25,18.47 2.25,18.025 L2.25,17.975 C2.25,17.53 2.25,17.159 2.271,16.855 C2.292,16.538 2.339,16.238 2.459,15.948 C2.609,15.586 2.833,15.264 3.113,15 C2.833,14.736 2.609,14.414 2.459,14.052 C2.339,13.762 2.292,13.462 2.271,13.145 C2.25,12.841 2.25,12.47 2.25,12.025 L2.25,11.975 C2.25,11.53 2.25,11.159 2.271,10.855 C2.292,10.538 2.339,10.238 2.459,9.948 C2.609,9.586 2.833,9.264 3.113,9 C2.833,8.736 2.609,8.414 2.459,8.052 C2.339,7.762 2.292,7.462 2.271,7.145 C2.25,6.841 2.25,6.47 2.25,6.025 L2.25,5.975 C2.25,5.53 2.25,5.159 2.271,4.855 C2.292,4.538 2.339,4.238 2.459,3.948 C2.738,3.274 3.274,2.738 3.948,2.459 C4.238,2.339 4.538,2.292 4.855,2.271 C5.159,2.25 5.53,2.25 5.975,2.25 Z M4.957,15.767 C4.716,15.784 4.599,15.813 4.522,15.845 C4.215,15.972 3.972,16.215 3.845,16.522 C3.813,16.599 3.784,16.716 3.767,16.957 C3.75,17.204 3.75,17.524 3.75,18 C3.75,18.476 3.75,18.796 3.767,19.043 C3.784,19.284 3.813,19.401 3.845,19.478 C3.972,19.785 4.215,20.028 4.522,20.155 C4.599,20.187 4.716,20.216 4.957,20.233 C5.204,20.25 5.524,20.25 6,20.25 L18,20.25 C18.476,20.25 18.796,20.25 19.043,20.233 C19.284,20.216 19.401,20.187 19.478,20.155 C19.785,20.028 20.028,19.785 20.155,19.478 C20.187,19.401 20.216,19.284 20.233,19.043 C20.25,18.796 20.25,18.476 20.25,18 C20.25,17.524 20.25,17.204 20.233,16.957 C20.216,16.716 20.187,16.599 20.155,16.522 C20.028,16.215 19.785,15.972 19.478,15.845 C19.401,15.813 19.284,15.784 19.043,15.767 C18.796,15.75 18.476,15.75 18,15.75 L6,15.75 C5.524,15.75 5.204,15.75 4.957,15.767 Z M18,14.25 C18.476,14.25 18.796,14.25 19.043,14.233 C19.284,14.216 19.401,14.187 19.478,14.155 C19.785,14.028 20.028,13.785 20.155,13.478 C20.187,13.401 20.216,13.284 20.233,13.043 C20.25,12.796 20.25,12.476 20.25,12 C20.25,11.524 20.25,11.204 20.233,10.957 C20.216,10.716 20.187,10.599 20.155,10.522 C20.028,10.215 19.785,9.972 19.478,9.845 C19.401,9.813 19.284,9.784 19.043,9.767 C18.796,9.75 18.476,9.75 18,9.75 L6,9.75 C5.524,9.75 5.204,9.75 4.957,9.767 C4.716,9.784 4.599,9.813 4.522,9.845 C4.215,9.972 3.972,10.215 3.845,10.522 C3.813,10.599 3.784,10.716 3.767,10.957 C3.75,11.204 3.75,11.524 3.75,12 C3.75,12.476 3.75,12.796 3.767,13.043 C3.784,13.284 3.813,13.401 3.845,13.478 C3.972,13.785 4.215,14.028 4.522,14.155 C4.599,14.187 4.716,14.216 4.957,14.233 C5.204,14.25 5.524,14.25 6,14.25 Z M19.043,8.233 C19.284,8.216 19.401,8.187 19.478,8.155 C19.785,8.028 20.028,7.785 20.155,7.478 C20.187,7.401 20.216,7.284 20.233,7.043 C20.25,6.796 20.25,6.476 20.25,6 C20.25,5.524 20.25,5.204 20.233,4.957 C20.216,4.716 20.187,4.599 20.155,4.522 C20.028,4.215 19.785,3.972 19.478,3.845 C19.401,3.813 19.284,3.784 19.043,3.767 C18.796,3.75 18.476,3.75 18,3.75 L6,3.75 C5.524,3.75 5.204,3.75 4.957,3.767 C4.716,3.784 4.599,3.813 4.522,3.845 C4.215,3.972 3.972,4.215 3.845,4.522 C3.813,4.599 3.784,4.716 3.767,4.957 C3.75,5.204 3.75,5.524 3.75,6 C3.75,6.476 3.75,6.796 3.767,7.043 C3.784,7.284 3.813,7.401 3.845,7.478 C3.972,7.785 4.215,8.028 4.522,8.155 C4.599,8.187 4.716,8.216 4.957,8.233 C5.204,8.25 5.524,8.25 6,8.25 L18,8.25 C18.476,8.25 18.796,8.25 19.043,8.233 Z M18,12 C18,12.552 17.552,13 17,13 C16.448,13 16,12.552 16,12 C16,11.448 16.448,11 17,11 C17.552,11 18,11.448 18,12 Z M17,19 C16.448,19 16,18.552 16,18 C16,17.448 16.448,17 17,17 C17.552,17 18,17.448 18,18 C18,18.552 17.552,19 17,19 Z M17,7 C16.448,7 16,6.552 16,6 C16,5.448 16.448,5 17,5 C17.552,5 18,5.448 18,6 C18,6.552 17.552,7 17,7 Z"/>
</svg>

