<svg xmlns="http://www.w3.org/2000/svg" viewBox="0 0 24 24">
  <defs/>
  <path fill="#636F7E" opacity="0.16" d="M21,12 A9 9 0 1 1 3,12 A9 9 0 1 1 21,12 Z"/>
  <path fill="#151E28" d="M21.75,12 C21.75,17.385 17.385,21.75 12,21.75 C6.615,21.75 2.25,17.385 2.25,12 C2.25,6.615 6.615,2.25 12,2.25 C17.385,2.25 21.75,6.615 21.75,12 Z M12.75,3.784 L12.75,6 C12.75,6.414 12.414,6.75 12,6.75 C11.586,6.75 11.25,6.414 11.25,6 L11.25,3.784 C7.292,4.14 4.14,7.292 3.784,11.25 L6,11.25 C6.414,11.25 6.75,11.586 6.75,12 C6.75,12.414 6.414,12.75 6,12.75 L3.784,12.75 C4.14,16.708 7.292,19.86 11.25,20.216 L11.25,18 C11.25,17.586 11.586,17.25 12,17.25 C12.414,17.25 12.75,17.586 12.75,18 L12.75,20.216 C16.708,19.86 19.86,16.708 20.216,12.75 L18,12.75 C17.586,12.75 17.25,12.414 17.25,12 C17.25,11.586 17.586,11.25 18,11.25 L20.216,11.25 C19.86,7.292 16.708,4.14 12.75,3.784 Z"/>
</svg>

