<svg xmlns="http://www.w3.org/2000/svg" viewBox="0 0 24 24">
  <defs/>
  <path fill="#636F7E" opacity="0.16" d="M4,10.5 C4,6.358 7.358,3 11.5,3 L12.5,3 C16.642,3 20,6.358 20,10.5 L20,11.5 C20,15.642 16.642,19 12.5,19 L11.5,19 C7.358,19 4,15.642 4,11.5 L4,10.5 Z"/>
  <path fill="#151E28" d="M11.5,2.25 L12.5,2.25 C17.056,2.25 20.75,5.944 20.75,10.5 L20.75,11.5 C20.75,14.667 18.965,17.416 16.351,18.798 C15.984,18.992 15.531,18.852 15.337,18.486 C15.143,18.119 15.283,17.666 15.649,17.472 C17.792,16.339 19.25,14.089 19.25,11.5 L19.25,10.5 C19.25,6.772 16.228,3.75 12.5,3.75 L11.5,3.75 C7.772,3.75 4.75,6.772 4.75,10.5 L4.75,11.5 C4.75,14.089 6.208,16.339 8.351,17.472 C8.717,17.666 8.857,18.119 8.663,18.486 C8.469,18.852 8.016,18.992 7.649,18.798 C5.035,17.416 3.25,14.667 3.25,11.5 L3.25,10.5 C3.25,5.944 6.944,2.25 11.5,2.25 Z M12.75,6 L12.75,10.189 L14.47,8.47 C14.762,8.177 15.237,8.177 15.53,8.47 C15.823,8.763 15.823,9.237 15.53,9.53 L12.75,12.311 L12.75,22 C12.75,22.414 12.414,22.75 12,22.75 C11.586,22.75 11.25,22.414 11.25,22 L11.25,15.311 L8.47,12.53 C8.177,12.237 8.177,11.762 8.47,11.47 C8.763,11.177 9.238,11.177 9.531,11.47 L11.25,13.189 L11.25,6 C11.25,5.586 11.586,5.25 12,5.25 C12.414,5.25 12.75,5.586 12.75,6 Z"/>
</svg>

