<svg xmlns="http://www.w3.org/2000/svg" viewBox="0 0 24 24">
  <defs/>
  <path fill="#636F7E" opacity="0.16" d="M10.643,2.469 C8.608,4.79 5,9.41 5,13 C5,15.291 5.63,16.953 6.698,18.08 C7.447,18.872 8.56,19.146 9.645,19.258 L11.181,19.416 C11.726,19.472 12.274,19.472 12.819,19.416 L14.355,19.258 C15.44,19.146 16.552,18.872 17.302,18.08 C18.37,16.953 19,15.291 19,13 C19,9.41 15.392,4.79 13.357,2.469 C12.628,1.638 11.372,1.638 10.643,2.469 Z"/>
  <path fill="#151E28" d="M12.793,2.963 C12.363,2.473 11.637,2.473 11.207,2.963 C10.204,4.108 8.824,5.807 7.699,7.649 C6.558,9.517 5.75,11.42 5.75,13 C5.75,15.902 6.814,17.565 8.366,18.434 C8.728,18.636 8.857,19.093 8.654,19.454 C8.452,19.816 7.995,19.945 7.634,19.743 C5.506,18.552 4.25,16.317 4.25,13 C4.25,10.989 5.246,8.788 6.418,6.868 C7.606,4.922 9.048,3.151 10.08,1.974 C11.107,0.803 12.893,0.803 13.92,1.974 C14.952,3.151 16.394,4.922 17.582,6.868 C18.754,8.788 19.75,10.989 19.75,13 C19.75,16.317 18.494,18.552 16.366,19.743 C16.005,19.945 15.548,19.816 15.345,19.454 C15.143,19.093 15.272,18.636 15.634,18.434 C17.185,17.565 18.25,15.902 18.25,13 C18.25,11.42 17.442,9.517 16.301,7.649 C15.176,5.807 13.796,4.108 12.793,2.963 Z M12,5.25 C12.414,5.25 12.75,5.586 12.75,6 L12.75,22 C12.75,22.414 12.414,22.75 12,22.75 C11.586,22.75 11.25,22.414 11.25,22 L11.25,15.311 L8.47,12.53 C8.177,12.237 8.177,11.762 8.47,11.469 C8.763,11.177 9.238,11.177 9.531,11.469 L11.25,13.189 L11.25,6 C11.25,5.586 11.586,5.25 12,5.25 Z"/>
</svg>

