<svg xmlns="http://www.w3.org/2000/svg" viewBox="0 0 24 24">
  <defs/>
  <path fill="#636F7E" opacity="0.16" d="M22,12 A10 10 0 1 1 2,12 A10 10 0 1 1 22,12 Z"/>
  <path fill="#151E28" d="M12,1.25 C17.937,1.25 22.75,6.063 22.75,12 C22.75,17.937 17.937,22.75 12,22.75 C6.063,22.75 1.25,17.937 1.25,12 C1.25,6.063 6.063,1.25 12,1.25 Z M2.75,12 C2.75,17.109 6.891,21.25 12,21.25 C17.109,21.25 21.25,17.109 21.25,12 C21.25,6.891 17.109,2.75 12,2.75 C6.891,2.75 2.75,6.891 2.75,12 Z M15.257,14.104 L15.256,14.099 L15.252,14.072 C15.249,14.048 15.242,14.01 15.233,13.961 C15.216,13.863 15.188,13.72 15.147,13.547 C15.064,13.199 14.934,12.744 14.742,12.297 C14.323,11.325 13.78,10.75 13.111,10.75 C12.732,10.75 12.265,10.918 11.731,11.257 C11.208,11.591 10.686,12.049 10.215,12.527 C9.972,12.773 9.747,13.019 9.548,13.25 L11,13.25 C11.414,13.25 11.75,13.586 11.75,14 C11.75,14.414 11.414,14.75 11,14.75 L8,14.75 C7.586,14.75 7.25,14.414 7.25,14 L7.25,11 C7.25,10.586 7.586,10.25 8,10.25 C8.414,10.25 8.75,10.586 8.75,11 L8.75,11.891 C8.876,11.753 9.008,11.613 9.147,11.473 C9.661,10.951 10.272,10.409 10.925,9.992 C11.569,9.582 12.323,9.25 13.111,9.25 C14.776,9.25 15.677,10.675 16.119,11.703 C16.357,12.256 16.512,12.801 16.607,13.203 C16.654,13.405 16.688,13.574 16.71,13.695 C16.721,13.755 16.729,13.804 16.734,13.838 L16.74,13.878 L16.742,13.891 L16.743,13.894 L16.743,13.896 L16.743,13.896 C16.743,13.897 16.743,13.897 16.003,14 L16.743,13.897 C16.8,14.307 16.514,14.686 16.103,14.743 C15.693,14.8 15.315,14.514 15.257,14.104 Z"/>
</svg>

