<svg xmlns="http://www.w3.org/2000/svg" viewBox="0 0 24 24">
  <defs/>
  <path fill="#636F7E" opacity="0.16" d="M6,16 C3.791,16 2,14.209 2,12 C2,9.791 3.791,8 6,8 C8.209,8 10,9.791 10,12 C10,14.209 8.209,16 6,16 Z M18,16 C15.791,16 14,14.209 14,12 C14,9.791 15.791,8 18,8 C20.209,8 22,9.791 22,12 C22,14.209 20.209,16 18,16 Z"/>
  <path fill="#151E28" d="M9.464,15.25 L14.536,15.25 C13.738,14.4 13.25,13.257 13.25,12 C13.25,9.377 15.377,7.25 18,7.25 C20.623,7.25 22.75,9.377 22.75,12 C22.75,14.623 20.623,16.75 18,16.75 L6,16.75 C3.377,16.75 1.25,14.623 1.25,12 C1.25,9.377 3.377,7.25 6,7.25 C8.623,7.25 10.75,9.377 10.75,12 C10.75,13.257 10.262,14.4 9.464,15.25 Z M6,8.75 C4.205,8.75 2.75,10.205 2.75,12 C2.75,13.795 4.205,15.25 6,15.25 C7.795,15.25 9.25,13.795 9.25,12 C9.25,10.205 7.795,8.75 6,8.75 Z M18,15.25 C19.795,15.25 21.25,13.795 21.25,12 C21.25,10.205 19.795,8.75 18,8.75 C16.205,8.75 14.75,10.205 14.75,12 C14.75,13.795 16.205,15.25 18,15.25 Z"/>
</svg>

