<svg xmlns="http://www.w3.org/2000/svg" viewBox="0 0 24 24">
  <defs/>
  <path fill="#636F7E" opacity="0.16" d="M7.315,19.888 L12.265,14.938 L15.204,14.938 C16.944,14.938 18.613,14.247 19.844,13.016 C21.305,11.555 21.993,9.492 21.701,7.447 L21.693,7.396 C21.596,6.716 20.765,6.439 20.279,6.924 L17.922,9.281 C17.141,10.062 15.875,10.062 15.094,9.281 C14.312,8.5 14.312,7.234 15.094,6.453 L17.451,4.096 C17.936,3.61 17.659,2.779 16.979,2.682 L16.928,2.674 C14.883,2.382 12.82,3.07 11.359,4.531 C10.128,5.761 9.437,7.431 9.437,9.171 L9.437,12.11 L4.487,17.059 C3.706,17.84 3.706,19.107 4.487,19.888 C5.268,20.669 6.534,20.669 7.315,19.888 Z"/>
  <path fill="#151E28" d="M17.085,1.939 C18.377,2.124 18.903,3.704 17.981,4.626 L15.624,6.983 C15.135,7.472 15.135,8.263 15.624,8.751 C16.112,9.239 16.903,9.239 17.392,8.751 L19.749,6.394 C20.671,5.472 22.251,5.998 22.435,7.29 L22.443,7.341 C22.768,9.62 22.002,11.919 20.374,13.547 C19.003,14.918 17.143,15.688 15.203,15.688 L12.576,15.688 L7.846,20.419 C6.772,21.492 5.03,21.492 3.956,20.419 C2.882,19.344 2.882,17.603 3.956,16.529 L8.687,11.799 L8.687,9.172 C8.687,7.232 9.457,5.372 10.828,4.001 C12.456,2.373 14.755,1.607 17.034,1.932 Z M16.915,3.441 C16.909,3.436 16.898,3.428 16.873,3.424 L16.822,3.417 C15.01,3.158 13.183,3.767 11.889,5.061 C10.799,6.151 10.186,7.63 10.186,9.172 L10.186,12.11 C10.186,12.309 10.108,12.5 9.967,12.64 L5.017,17.59 C4.529,18.078 4.529,18.87 5.017,19.358 C5.505,19.846 6.297,19.846 6.785,19.358 L11.735,14.408 C11.875,14.267 12.066,14.188 12.265,14.188 L15.203,14.188 C16.745,14.188 18.224,13.576 19.314,12.486 C20.608,11.192 21.217,9.365 20.958,7.553 L20.951,7.502 C20.947,7.477 20.939,7.466 20.934,7.46 C20.926,7.451 20.913,7.441 20.894,7.435 C20.876,7.429 20.86,7.429 20.848,7.431 C20.84,7.433 20.827,7.437 20.809,7.455 L18.452,9.812 C17.378,10.886 15.637,10.886 14.563,9.812 C13.489,8.738 13.489,6.997 14.563,5.923 L16.92,3.566 C16.938,3.548 16.942,3.535 16.944,3.527 C16.946,3.515 16.946,3.499 16.94,3.48 C16.934,3.462 16.924,3.449 16.915,3.441 Z"/>
</svg>

