<svg xmlns="http://www.w3.org/2000/svg" viewBox="0 0 24 24"><path fill="#151E28" d="M3.25 16.025V12.75H1a.75.75 0 0 1 0-1.5h2.25V7.975c0-.445 0-.816.02-1.12.013-.311.077-.617.189-.907a2.749 2.749 0 0 1 1.488-1.489c.29-.12.59-.167.907-.188.305-.021.676-.021 1.12-.021h.051c.444 0 .815 0 1.12.02.317.022.617.07.907.19a2.747 2.747 0 0 1 1.488 1.488c.12.29.167.59.189.907.02.304.02.675.02 1.12v3.275h2.5V9.975c0-.445 0-.816.021-1.12.013-.311.077-.617.189-.907a2.749 2.749 0 0 1 1.488-1.489c.29-.12.59-.167.907-.188.305-.021.676-.021 1.12-.021h.051c.444 0 .815 0 1.12.02.317.022.617.07.907.19a2.747 2.747 0 0 1 1.488 1.488c.12.29.167.59.189.907.02.304.02.675.02 1.12v1.275H23a.75.75 0 0 1 0 1.5h-2.25v1.275c0 .445 0 .816-.021 1.12a2.82 2.82 0 0 1-.189.907 2.749 2.749 0 0 1-1.488 1.489c-.29.12-.59.167-.907.188-.305.021-.676.021-1.12.021h-.051c-.444 0-.815 0-1.12-.02a2.82 2.82 0 0 1-.907-.19 2.747 2.747 0 0 1-1.488-1.488 2.846 2.846 0 0 1-.189-.907c-.02-.304-.02-.675-.02-1.12V12.75h-2.5v3.275c0 .445 0 .816-.021 1.12a2.82 2.82 0 0 1-.189.907 2.749 2.749 0 0 1-1.488 1.489c-.29.12-.59.167-.907.188-.305.021-.676.021-1.12.021h-.051c-.444 0-.815 0-1.12-.02a2.82 2.82 0 0 1-.907-.19 2.747 2.747 0 0 1-1.488-1.488 2.846 2.846 0 0 1-.189-.907c-.02-.304-.02-.675-.02-1.12ZM4.75 16c-.005.348.001.696.017 1.043.016.241.046.358.078.435.127.306.37.55.676.677.077.032.195.061.435.078.248.017.567.017 1.044.017.348.005.696-.001 1.043-.017.241-.017.358-.046.435-.078.306-.127.549-.371.676-.677.032-.077.062-.194.078-.435.018-.247.018-.567.018-1.043V8c0-.476-.001-.796-.018-1.043-.016-.241-.046-.358-.078-.435a1.246 1.246 0 0 0-.676-.677c-.077-.032-.195-.061-.435-.078C7.795 5.75 7.476 5.75 7 5.75c-.348-.005-.696.001-1.044.017-.24.017-.358.046-.435.078a1.25 1.25 0 0 0-.676.677c-.032.077-.062.194-.078.435-.017.247-.017.567-.017 1.043Zm10-3.983V14c0 .476 0 .796.017 1.043.016.241.046.358.078.435.127.307.37.55.676.677.077.032.194.061.435.078.248.017.567.017 1.044.017.476 0 .795 0 1.043-.017.24-.017.358-.046.435-.078.306-.127.55-.37.676-.677.032-.077.062-.194.078-.435.017-.247.018-.567.018-1.043v-4c0-.476 0-.796-.018-1.043-.016-.241-.046-.358-.078-.435a1.253 1.253 0 0 0-.676-.677c-.077-.032-.195-.061-.435-.078A17.265 17.265 0 0 0 17 7.75c-.477 0-.796 0-1.044.017-.24.017-.358.046-.435.078a1.253 1.253 0 0 0-.676.677c-.032.077-.062.194-.078.435-.017.347-.023.695-.018 1.043v2.017Z"/></svg>