<svg xmlns="http://www.w3.org/2000/svg" viewBox="0 0 24 24"><path fill="#151E28" d="M12 .25a.75.75 0 0 1 .75.75v2.25h3.275c.445 0 .816 0 1.12.02.317.022.617.069.907.189.674.279 1.21.814 1.489 1.488.12.29.167.59.188.907.021.305.021.676.021 1.12v.051c0 .444 0 .815-.02 1.12a2.82 2.82 0 0 1-.19.907 2.747 2.747 0 0 1-1.488 1.488c-.29.12-.59.167-.907.189-.304.02-.675.02-1.12.02H12.75v2.5h1.275c.445 0 .816 0 1.12.021.318.022.617.069.907.189.674.279 1.21.814 1.489 1.488.12.29.167.59.188.907.021.305.021.676.021 1.12v.051c0 .444 0 .815-.02 1.12a2.82 2.82 0 0 1-.19.907 2.747 2.747 0 0 1-1.488 1.488c-.29.12-.59.167-.907.189-.304.02-.675.02-1.12.02H12.75V23a.75.75 0 0 1-1.5 0v-2.25H9.975c-.445 0-.816 0-1.12-.021a2.82 2.82 0 0 1-.907-.189 2.749 2.749 0 0 1-1.489-1.488c-.12-.29-.167-.59-.188-.907-.021-.305-.021-.676-.021-1.12v-.051c0-.444 0-.815.02-1.12.022-.317.07-.616.19-.907a2.747 2.747 0 0 1 1.488-1.488c.29-.12.59-.167.907-.189.304-.02.675-.02 1.12-.02h1.275v-2.5H7.975c-.445 0-.816 0-1.12-.021a2.82 2.82 0 0 1-.907-.189 2.749 2.749 0 0 1-1.489-1.488c-.12-.29-.167-.59-.188-.907-.021-.305-.021-.676-.021-1.12v-.051c0-.444 0-.815.02-1.12.022-.317.07-.616.19-.907A2.75 2.75 0 0 1 5.947 3.46c.29-.12.59-.167.907-.189.304-.02.675-.02 1.12-.02h3.275V1A.75.75 0 0 1 12 .25Zm-4 4.5c-.476 0-.796 0-1.043.017-.241.016-.358.046-.435.078-.306.127-.55.37-.677.676-.032.077-.061.195-.078.435-.016.348-.022.696-.017 1.044 0 .476 0 .795.017 1.043.017.24.046.358.078.435.127.306.37.55.677.676.077.032.194.062.435.078.247.017.567.018 1.043.018h8c.476 0 .796 0 1.043-.018.241-.016.358-.046.435-.078.307-.127.55-.37.677-.676.032-.077.061-.194.078-.435.017-.248.017-.567.017-1.043 0-.477 0-.796-.017-1.044-.017-.24-.046-.358-.078-.435a1.253 1.253 0 0 0-.677-.676c-.077-.032-.194-.062-.435-.078A17.265 17.265 0 0 0 16 4.75H8Zm3.983 10H10c-.476 0-.796 0-1.043.017-.241.016-.358.046-.435.078-.306.127-.55.37-.677.676-.032.077-.061.194-.078.435-.017.248-.017.567-.017 1.044 0 .476 0 .795.017 1.043.017.24.046.358.078.435.127.306.37.55.677.676.077.032.194.062.435.078.247.017.567.018 1.043.018h4c.476 0 .796 0 1.043-.018.241-.016.358-.046.435-.078.307-.127.55-.37.677-.676.032-.077.061-.195.078-.435.017-.248.017-.567.017-1.043 0-.477 0-.796-.017-1.044-.017-.24-.046-.358-.078-.435a1.253 1.253 0 0 0-.677-.676c-.077-.032-.194-.062-.435-.078A16.481 16.481 0 0 0 14 14.749h-2.017Z"/></svg>