<svg xmlns="http://www.w3.org/2000/svg" viewBox="0 0 24 24"><path fill="#151E28" d="M12 1.25c5.937 0 10.75 4.813 10.75 10.75S17.937 22.75 12 22.75 1.25 17.937 1.25 12 6.063 1.25 12 1.25ZM2.75 12A9.25 9.25 0 0 0 12 21.25 9.25 9.25 0 0 0 21.25 12 9.25 9.25 0 0 0 12 2.75 9.25 9.25 0 0 0 2.75 12ZM10 15.75A1.75 1.75 0 0 1 8.25 14v-3.477c0-1.585 1.94-2.353 3.025-1.198l.106.112.346-.346a1.75 1.75 0 0 1 2.475 0l.707.707a1.75 1.75 0 0 1 0 2.475l-.346.346.112.106c1.155 1.086.387 3.025-1.198 3.025ZM9.75 14c0 .138.112.25.25.25h3.477a.25.25 0 0 0 .17-.432l-.675-.636a.75.75 0 0 1-.017-1.077l.893-.893a.25.25 0 0 0 0-.353l-.707-.707a.25.25 0 0 0-.353 0l-.893.893a.75.75 0 0 1-1.077-.017l-.636-.676a.25.25 0 0 0-.432.171Zm4.098-5.97a.75.75 0 0 1 1.061-1.06l2.121 2.12a.749.749 0 0 1-.326 1.275.749.749 0 0 1-.734-.215Z"/></svg>