<svg xmlns="http://www.w3.org/2000/svg" viewBox="0 0 24 24"><path fill="#151E28" d="M7.75 14.111a2.14 2.14 0 0 0 2.139 2.139.75.75 0 0 1 0 1.5 3.639 3.639 0 0 1-3.639-3.639v-2.343c0-.813 0-1.469.043-2 .045-.546.14-1.026.366-1.47a3.749 3.749 0 0 1 1.639-1.64c.444-.226.924-.32 1.47-.365.532-.043 1.187-.043 2-.043h2.343a3.64 3.64 0 0 1 3.64 3.639.75.75 0 0 1-1.5 0c0-1.182-.958-2.14-2.14-2.139h-2.31c-.853 0-1.448 0-1.91.038-.454.037-.715.107-.912.207a2.25 2.25 0 0 0-.984.984c-.1.197-.17.458-.207.912-.037.462-.038 1.057-.038 1.909Zm6.25 3.64a.75.75 0 0 1 0-1.5h1.19l-3.72-3.72a.75.75 0 0 1 1.06-1.061l3.72 3.72V14a.75.75 0 0 1 1.5 0v3a.75.75 0 0 1-.75.75h-3Z"/></svg>