<svg xmlns="http://www.w3.org/2000/svg" viewBox="0 0 24 24"><path fill="#151E28" d="M12 1.25c5.937 0 10.75 4.813 10.75 10.75S17.937 22.75 12 22.75 1.25 17.937 1.25 12 6.063 1.25 12 1.25ZM2.75 12A9.25 9.25 0 0 0 12 21.25 9.25 9.25 0 0 0 21.25 12 9.25 9.25 0 0 0 12 2.75 9.25 9.25 0 0 0 2.75 12Zm11.5 4v-.2c0-.853-.001-1.447-.038-1.909-.037-.454-.107-.715-.207-.912a2.253 2.253 0 0 0-.983-.984c-.198-.1-.459-.17-.912-.207-.463-.038-1.057-.038-1.91-.038h-.39l.72.72a.749.749 0 0 1-.326 1.275.749.749 0 0 1-.734-.215l-2-2a.75.75 0 0 1 0-1.06l2-2a.749.749 0 0 1 1.275.326.749.749 0 0 1-.215.734l-.72.72h.422c.813 0 1.469 0 2 .043.546.045 1.026.139 1.471.365.705.36 1.279.934 1.638 1.64.226.444.321.924.366 1.47.043.531.043 1.187.043 2V16a.75.75 0 0 1-1.5 0Z"/></svg>