<svg xmlns="http://www.w3.org/2000/svg" viewBox="0 0 24 24"><path fill="#151E28" d="m7.245 15.044.001-.001.004-4.711c0-1.538 1.843-2.327 2.956-1.265l.597.57 2.46-2.46a1.75 1.75 0 0 1 2.475 0l1.131 1.131a1.75 1.75 0 0 1 0 2.474l-2.46 2.46.538.565c1.058 1.111.278 2.947-1.256 2.957l-4.684.03a1.75 1.75 0 0 1-1.762-1.75Zm1.752.25v.001l4.684-.03c.1 0 .19-.06.23-.152a.251.251 0 0 0-.05-.271l-1.043-1.095a.75.75 0 0 1 .013-1.047l2.977-2.978a.25.25 0 0 0 0-.353l-1.131-1.132a.25.25 0 0 0-.354 0l-2.977 2.978a.75.75 0 0 1-1.048.012l-1.127-1.074a.25.25 0 0 0-.422.181l-.004 4.71c0 .067.027.131.074.177a.247.247 0 0 0 .178.073Z"/></svg>