<svg xmlns="http://www.w3.org/2000/svg" viewBox="0 0 24 24"><path fill="#151E28" d="M1.25 12C1.25 6.063 6.063 1.25 12 1.25S22.75 6.063 22.75 12 17.937 22.75 12 22.75 1.25 17.937 1.25 12ZM12 2.75A9.25 9.25 0 0 0 2.75 12 9.25 9.25 0 0 0 12 21.25 9.25 9.25 0 0 0 21.25 12 9.25 9.25 0 0 0 12 2.75ZM11.75 8a.75.75 0 0 1-.75.75H9.81l1.72 1.72a.749.749 0 0 1-.326 1.275.749.749 0 0 1-.734-.215L8.75 9.81V11a.75.75 0 0 1-1.5 0V8A.75.75 0 0 1 8 7.25h3a.75.75 0 0 1 .75.75ZM13 16.75a.75.75 0 0 1 0-1.5h1.19l-1.72-1.72a.749.749 0 0 1 .326-1.275.749.749 0 0 1 .734.215l1.72 1.72V13a.75.75 0 0 1 1.5 0v3a.75.75 0 0 1-.75.75Z"/></svg>