<svg xmlns="http://www.w3.org/2000/svg" viewBox="0 0 24 24"><path fill="#151E28" d="M9.367 2.25h5.266c1.092 0 1.958 0 2.655.057.714.058 1.317.18 1.869.46a4.75 4.75 0 0 1 2.075 2.077c.281.55.403 1.154.461 1.868.057.697.057 1.563.057 2.655v5.266c0 1.092 0 1.958-.057 2.655-.058.714-.18 1.317-.46 1.869a4.752 4.752 0 0 1-2.076 2.075c-.552.281-1.155.403-1.869.461-.697.057-1.563.057-2.655.057H9.367c-1.092 0-1.958 0-2.655-.057-.714-.058-1.317-.18-1.868-.46a4.744 4.744 0 0 1-2.076-2.076c-.281-.552-.403-1.155-.461-1.869-.057-.697-.057-1.563-.057-2.655V9.367c0-1.092 0-1.958.057-2.655.058-.714.18-1.317.46-1.868a4.752 4.752 0 0 1 2.077-2.076c.55-.281 1.154-.403 1.868-.461.697-.057 1.563-.057 2.655-.057ZM6.834 3.802c-.62.05-1.005.147-1.31.302a3.258 3.258 0 0 0-1.42 1.42c-.155.305-.251.69-.302 1.31-.051.63-.052 1.434-.052 2.566v5.2c0 1.133 0 1.937.052 2.566.05.62.147 1.005.302 1.31a3.258 3.258 0 0 0 1.42 1.42c.305.155.69.251 1.31.302.63.051 1.434.052 2.566.052h5.2c1.133 0 1.937 0 2.566-.052.62-.05 1.005-.147 1.31-.302a3.258 3.258 0 0 0 1.42-1.42c.155-.305.251-.69.302-1.31.051-.63.052-1.434.052-2.566V9.4c0-1.132 0-1.937-.052-2.566-.05-.62-.147-1.005-.302-1.31a3.258 3.258 0 0 0-1.42-1.42c-.305-.155-.69-.251-1.31-.302-.63-.051-1.434-.052-2.566-.052H9.4c-1.132 0-1.937 0-2.566.052Zm3.26 12.948.001-.001c-.087 0-.155 0-.215-.003a2.75 2.75 0 0 1-2.63-2.842v-2.735c0-.535 0-.98.03-1.345.03-.38.098-.736.27-1.074a2.75 2.75 0 0 1 1.202-1.2c.337-.172.693-.24 1.073-.27.365-.03.81-.03 1.345-.03h2.735c.088 0 .155 0 .215.003a2.75 2.75 0 0 1 2.627 2.627c.003.06.003.127.003.215v.016a.75.75 0 0 1-1.5 0l-.001-.166a1.25 1.25 0 0 0-1.194-1.194l-.166-.001H11.2c-.573 0-.957.001-1.253.025-.287.023-.424.065-.514.111-.235.12-.427.311-.547.546-.046.091-.088.228-.111.515-.025.296-.025.68-.025 1.252v2.69c-.001.055 0 .111.001.166a1.25 1.25 0 0 0 1.194 1.194l.166.001a.75.75 0 0 1 0 1.5Zm3.506 0a.75.75 0 0 1 0-1.5h.59l-2.72-2.72a.751.751 0 0 1 .018-1.042.751.751 0 0 1 1.042-.018l2.72 2.72v-.59a.75.75 0 0 1 1.5 0V16a.75.75 0 0 1-.75.75Z"/></svg>