<svg xmlns="http://www.w3.org/2000/svg" viewBox="0 0 24 24"><path fill="#151E28" d="M9.253 2.25h5.494c.419 0 .748 0 1.066.076.281.068.549.179.795.33.28.17.512.403.808.7l.052.051 3.126 3.125.05.052c.296.295.53.528.7.808.151.246.262.514.33.794.076.319.076.648.076 1.067v5.494c0 .419 0 .748-.076 1.066a2.759 2.759 0 0 1-.33.795c-.17.28-.403.512-.7.808l-.051.052-3.125 3.126-.052.05c-.296.296-.528.53-.808.7a2.759 2.759 0 0 1-.795.33c-.318.076-.647.076-1.066.076H9.253c-.419 0-.748 0-1.067-.076a2.737 2.737 0 0 1-.794-.33c-.28-.17-.513-.403-.808-.7l-.052-.051-3.126-3.125-.05-.052c-.297-.296-.53-.528-.7-.808a2.693 2.693 0 0 1-.33-.795c-.076-.318-.076-.647-.076-1.066V9.253c0-.419 0-.748.076-1.067.068-.28.179-.548.33-.794.17-.28.403-.513.7-.808l.051-.052 3.125-3.126.052-.05c.295-.297.528-.53.808-.7.246-.151.514-.262.794-.33.319-.076.648-.076 1.067-.076Zm-.716 1.535v-.001a1.25 1.25 0 0 0-.362.15c-.108.067-.211.162-.582.534L4.468 7.593c-.372.372-.467.474-.533.582-.07.112-.12.234-.15.362-.03.123-.035.264-.035.788v5.35c0 .524.004.665.034.788.031.128.081.25.15.362.067.108.162.211.534.582l3.125 3.125c.372.372.474.467.582.533.112.069.234.119.362.15.123.03.264.035.788.035h5.35c.524 0 .665-.004.788-.034a1.25 1.25 0 0 0 .362-.15c.108-.067.211-.162.582-.534l3.125-3.125c.372-.372.467-.474.533-.582.07-.112.12-.234.15-.362.03-.123.035-.264.035-.788v-5.35c0-.524-.004-.665-.034-.788a1.277 1.277 0 0 0-.15-.362c-.067-.108-.162-.211-.534-.582l-3.125-3.125c-.372-.372-.474-.467-.582-.533a1.196 1.196 0 0 0-.362-.15c-.123-.03-.264-.035-.788-.035h-5.35c-.524 0-.665.005-.788.035Zm.708 4.258h-.001l3.43-.093c1.581-.043 2.403 1.868 1.285 2.987l-.17.17.363.363a1.75 1.75 0 0 1 0 2.475l-.708.707a1.75 1.75 0 0 1-2.474 0l-.363-.363-.17.17c-1.119 1.118-3.03.296-2.987-1.284l.093-3.43a1.75 1.75 0 0 1 1.702-1.702Zm-.203 1.742-.093 3.43a.249.249 0 0 0 .152.237.249.249 0 0 0 .276-.054l.7-.7a.75.75 0 0 1 1.06 0l.893.893a.25.25 0 0 0 .354 0l.707-.707a.25.25 0 0 0 0-.354l-.893-.893a.75.75 0 0 1 0-1.061l.7-.7a.248.248 0 0 0 .053-.276.249.249 0 0 0-.236-.151l-3.43.093a.25.25 0 0 0-.243.243Zm4.049 5.928v-.001l2.122-2.121a.75.75 0 0 1 1.06 1.061l-2.122 2.121a.751.751 0 0 1-1.042-.018.751.751 0 0 1-.018-1.042Z"/></svg>