<svg xmlns="http://www.w3.org/2000/svg" viewBox="0 0 24 24"><path fill="#151E28" d="M9.367 2.25h5.266c1.092 0 1.958 0 2.655.057.714.058 1.317.18 1.869.461a4.744 4.744 0 0 1 2.076 2.076c.28.551.402 1.154.46 1.868.057.697.057 1.563.057 2.655v5.266c0 1.092 0 1.958-.057 2.655-.058.714-.18 1.317-.461 1.869a4.752 4.752 0 0 1-2.075 2.076c-.552.28-1.155.402-1.869.46-.697.057-1.563.057-2.655.057H9.367c-1.092 0-1.958 0-2.655-.057-.714-.058-1.318-.18-1.868-.461a4.75 4.75 0 0 1-2.077-2.075c-.28-.552-.402-1.155-.46-1.869-.057-.697-.057-1.563-.057-2.655V9.367c0-1.092 0-1.958.057-2.655.058-.714.18-1.318.461-1.868a4.752 4.752 0 0 1 2.076-2.077c.551-.28 1.154-.402 1.868-.46.697-.057 1.563-.057 2.655-.057ZM5.525 4.104h-.001a3.258 3.258 0 0 0-1.42 1.42c-.155.305-.252.69-.302 1.31-.052.629-.052 1.434-.052 2.566v5.2c0 1.132.001 1.936.052 2.566.051.62.147 1.005.302 1.31a3.258 3.258 0 0 0 1.42 1.42c.305.155.69.252 1.31.302.629.052 1.434.052 2.566.052h5.2c1.132 0 1.936-.001 2.566-.052.62-.051 1.005-.147 1.31-.302a3.258 3.258 0 0 0 1.42-1.42c.155-.305.252-.69.302-1.31.052-.629.052-1.433.052-2.566V9.4c0-1.132-.001-1.936-.052-2.566-.051-.62-.147-1.005-.302-1.31a3.258 3.258 0 0 0-1.42-1.42c-.305-.155-.69-.252-1.31-.302-.629-.052-1.433-.052-2.566-.052H9.4c-1.132 0-1.936.001-2.566.052-.621.051-1.005.147-1.309.302Zm7.679 12.289a1.75 1.75 0 0 1-2.408 0l-2.49-2.36c-1.148-1.087-.378-3.02 1.204-3.02h.24V10.5c0-.966.784-1.75 1.75-1.75h1c.967 0 1.75.784 1.75 1.75v.513h.24c1.583 0 2.353 1.933 1.204 3.02Zm-1.376-1.089a.25.25 0 0 0 .344 0l2.49-2.36a.25.25 0 0 0-.171-.43h-.99a.75.75 0 0 1-.75-.75V10.5a.25.25 0 0 0-.25-.25h-1a.25.25 0 0 0-.25.25v1.263a.75.75 0 0 1-.75.75H9.51a.25.25 0 0 0-.172.432ZM10.5 8.25a.75.75 0 0 1 0-1.5h3a.75.75 0 0 1 0 1.5Z"/></svg>