<svg xmlns="http://www.w3.org/2000/svg" viewBox="0 0 24 24"><path fill="#151E28" d="M12 1.25c5.937 0 10.75 4.813 10.75 10.75S17.937 22.75 12 22.75 1.25 17.937 1.25 12 6.063 1.25 12 1.25ZM2.75 12A9.25 9.25 0 0 0 12 21.25 9.25 9.25 0 0 0 21.25 12 9.25 9.25 0 0 0 12 2.75 9.25 9.25 0 0 0 2.75 12Zm10.454 4.393a1.75 1.75 0 0 1-2.408 0l-2.49-2.36c-1.148-1.087-.378-3.02 1.204-3.02h.24V10.5c0-.966.784-1.75 1.75-1.75h1c.967 0 1.75.784 1.75 1.75v.513h.24c1.583 0 2.353 1.933 1.204 3.02Zm-1.376-1.089a.25.25 0 0 0 .344 0l2.49-2.36a.25.25 0 0 0-.171-.43h-.99a.75.75 0 0 1-.75-.75V10.5a.25.25 0 0 0-.25-.25h-1a.25.25 0 0 0-.25.25v1.263a.75.75 0 0 1-.75.75H9.51a.25.25 0 0 0-.172.432ZM10.5 8.25a.75.75 0 0 1 0-1.5h3a.75.75 0 0 1 0 1.5Z"/></svg>