<svg xmlns="http://www.w3.org/2000/svg" viewBox="0 0 24 24"><path fill="#151E28" d="M12 1.25c5.937 0 10.75 4.813 10.75 10.75S17.937 22.75 12 22.75 1.25 17.937 1.25 12 6.063 1.25 12 1.25ZM2.75 12A9.25 9.25 0 0 0 12 21.25 9.25 9.25 0 0 0 21.25 12 9.25 9.25 0 0 0 12 2.75 9.25 9.25 0 0 0 2.75 12ZM10 15.75A1.75 1.75 0 0 1 8.25 14v-3.358c0-1.612 1.994-2.367 3.061-1.16l.011.014 1.744-1.744a1.75 1.75 0 0 1 2.475 0l.707.707a1.75 1.75 0 0 1 0 2.475l-1.744 1.744.013.01c1.208 1.068.453 3.062-1.159 3.062ZM9.75 14c0 .138.112.25.25.25h3.358a.25.25 0 0 0 .166-.437l-.61-.54a.749.749 0 0 1-.034-1.092l2.307-2.308a.25.25 0 0 0 0-.353l-.707-.707a.25.25 0 0 0-.354 0L11.82 11.12a.748.748 0 0 1-1.092-.033l-.54-.61a.25.25 0 0 0-.437.165V14Z"/></svg>