<svg xmlns="http://www.w3.org/2000/svg" viewBox="0 0 24 24"><path fill="#151E28" d="M9.253 2.25h5.494c.419 0 .748 0 1.066.076.281.068.549.179.795.33.28.17.512.403.808.7l.052.051 3.126 3.125.05.052c.296.295.53.528.7.808.151.246.262.514.33.794.076.319.076.648.076 1.067v5.494c0 .419 0 .748-.076 1.066a2.759 2.759 0 0 1-.33.795c-.17.28-.403.512-.7.808l-.051.052-3.125 3.126-.052.05c-.296.296-.528.53-.808.7a2.759 2.759 0 0 1-.795.33c-.318.076-.647.076-1.066.076H9.253c-.419 0-.748 0-1.067-.076a2.737 2.737 0 0 1-.794-.33c-.28-.17-.513-.403-.808-.7l-.052-.051-3.126-3.125-.05-.052c-.297-.296-.53-.528-.7-.808a2.693 2.693 0 0 1-.33-.795c-.076-.318-.076-.647-.076-1.066V9.253c0-.419 0-.748.076-1.067.068-.28.179-.548.33-.794.17-.28.403-.513.7-.808l.051-.052 3.125-3.126.052-.05c.295-.297.528-.53.808-.7.246-.151.514-.262.794-.33.319-.076.648-.076 1.067-.076Zm-.716 1.535v-.001a1.25 1.25 0 0 0-.362.15c-.108.067-.211.162-.582.534L4.468 7.593c-.372.372-.467.474-.533.582-.07.112-.12.234-.15.362-.03.123-.035.264-.035.788v5.35c0 .524.004.665.034.788.031.128.081.25.15.362.067.108.162.211.534.582l3.125 3.125c.372.372.474.467.582.533.112.069.234.119.362.15.123.03.264.035.788.035h5.35c.524 0 .665-.004.788-.034a1.25 1.25 0 0 0 .362-.15c.108-.067.211-.162.582-.534l3.125-3.125c.372-.372.467-.474.533-.582.07-.112.12-.234.15-.362.03-.123.035-.264.035-.788v-5.35c0-.524-.004-.665-.034-.788a1.277 1.277 0 0 0-.15-.362c-.067-.108-.162-.211-.534-.582l-3.125-3.125c-.372-.372-.474-.467-.582-.533a1.196 1.196 0 0 0-.362-.15c-.123-.03-.264-.035-.788-.035h-5.35c-.524 0-.665.005-.788.035ZM16.75 10v3.476c0 1.586-1.939 2.354-3.025 1.199l-.106-.112-.346.346a1.75 1.75 0 0 1-2.475 0l-.707-.707a1.75 1.75 0 0 1 0-2.475l.346-.346-.113-.106c-1.154-1.085-.386-3.025 1.2-3.025H15c.966 0 1.75.784 1.75 1.75ZM15 9.75h-3.477a.25.25 0 0 0-.171.432l.676.636a.75.75 0 0 1 .017 1.077l-.893.893a.25.25 0 0 0 0 .353l.707.707a.25.25 0 0 0 .353 0l.893-.893a.75.75 0 0 1 1.077.017l.636.676a.25.25 0 0 0 .432-.172V10a.25.25 0 0 0-.25-.25Zm-5.97 4.098h.001l2.12 2.122a.751.751 0 0 1-.018 1.042.751.751 0 0 1-1.042.018L7.97 14.909a.75.75 0 0 1 1.06-1.061Z"/></svg>