<svg xmlns="http://www.w3.org/2000/svg" viewBox="0 0 24 24"><path fill="#151E28" d="M12 1.25c5.937 0 10.75 4.813 10.75 10.75S17.937 22.75 12 22.75 1.25 17.937 1.25 12 6.063 1.25 12 1.25ZM2.75 12A9.25 9.25 0 0 0 12 21.25 9.25 9.25 0 0 0 21.25 12 9.25 9.25 0 0 0 12 2.75 9.25 9.25 0 0 0 2.75 12Zm7 4a.75.75 0 0 1-1.5 0v-.232c0-.813 0-1.469.043-2 .045-.546.14-1.026.366-1.47a3.752 3.752 0 0 1 1.638-1.64c.445-.226.925-.32 1.471-.365.531-.043 1.187-.043 2-.043h.422l-.72-.72a.751.751 0 0 1 .018-1.042.751.751 0 0 1 1.042-.018l2 2a.75.75 0 0 1 0 1.06l-2 2a.749.749 0 0 1-1.275-.326.749.749 0 0 1 .215-.734l.72-.72h-.39c-.853 0-1.447 0-1.91.038-.453.037-.714.107-.912.207-.423.216-.767.56-.983.984-.1.197-.17.458-.207.912-.037.462-.038 1.056-.038 1.909Z"/></svg>