<svg xmlns="http://www.w3.org/2000/svg" viewBox="0 0 24 24"><path fill="#151E28" d="M12 1.25c5.937 0 10.75 4.813 10.75 10.75S17.937 22.75 12 22.75 1.25 17.937 1.25 12 6.063 1.25 12 1.25ZM2.75 12A9.25 9.25 0 0 0 12 21.25 9.25 9.25 0 0 0 21.25 12 9.25 9.25 0 0 0 12 2.75 9.25 9.25 0 0 0 2.75 12Zm13.707-2.255.093 3.43c.043 1.58-1.868 2.402-2.987 1.284l-.17-.17-1.777 1.777a1.75 1.75 0 0 1-2.475 0l-.707-.707a1.75 1.75 0 0 1 0-2.475l1.777-1.777-.17-.17c-1.118-1.119-.296-3.03 1.285-2.987l3.43.093a1.75 1.75 0 0 1 1.701 1.702Zm-1.499.04a.25.25 0 0 0-.243-.243l-3.43-.093a.249.249 0 0 0-.236.151.248.248 0 0 0 .053.276l.7.7a.75.75 0 0 1 0 1.061l-2.307 2.308a.25.25 0 0 0 0 .353l.707.707a.25.25 0 0 0 .354 0l2.307-2.307a.75.75 0 0 1 1.06 0l.7.7a.249.249 0 0 0 .276.054.249.249 0 0 0 .152-.237Z"/></svg>