<svg xmlns="http://www.w3.org/2000/svg" viewBox="0 0 24 24"><path fill="#151E28" d="m2.53 1.47 20 20a.749.749 0 0 1-.326 1.275.749.749 0 0 1-.734-.215l-3.865-3.864h-.001c-.6.084-1.361.084-2.344.084H6.768c-.813 0-1.469 0-2-.043-.546-.045-1.026-.139-1.47-.365a3.749 3.749 0 0 1-1.639-1.64c-.226-.444-.321-.924-.366-1.47-.043-.531-.043-1.187-.043-2v-2.464c0-.813 0-1.469.043-2 .045-.546.139-1.026.365-1.47.36-.706.934-1.28 1.64-1.639.302-.155.629-.249.992-.309L1.47 2.53a.751.751 0 0 1 .018-1.042.751.751 0 0 1 1.042-.018Zm13.656 15.777L5.695 6.755c-.974.017-1.402.08-1.716.24a2.25 2.25 0 0 0-.984.984c-.1.197-.17.458-.207.912-.037.462-.038 1.057-.038 1.909v2.4c0 .853 0 1.447.038 1.91.037.453.107.714.207.912.216.423.56.767.984.983.197.1.458.17.912.207.462.037 1.057.038 1.909.038h8.4c.376 0 .701 0 .986-.003Zm.923-10.459c-.462-.037-1.057-.038-1.909-.038H10a.75.75 0 0 1 0-1.5h5.232c.813 0 1.469 0 2 .043.546.045 1.026.14 1.47.366.706.359 1.28.933 1.64 1.639.226.444.32.924.365 1.47.043.531.043 1.187.043 2v2.435c0 .294 0 1.556-.002 1.802a.75.75 0 0 1-1.5-.01c.002-.24.002-1.502.002-1.795v-2.4c0-.852 0-1.447-.038-1.91-.038-.453-.107-.714-.207-.911a2.253 2.253 0 0 0-.983-.984c-.198-.1-.459-.17-.913-.207ZM22.5 8.25a.75.75 0 0 1 .75.75v6a.75.75 0 0 1-1.5 0V9a.75.75 0 0 1 .75-.75Z"/></svg>