<svg xmlns="http://www.w3.org/2000/svg" viewBox="0 0 24 24"><path fill="#151E28" d="M12 2.25A9.75 9.75 0 0 1 21.75 12 9.75 9.75 0 0 1 12 21.75 9.75 9.75 0 0 1 2.25 12 9.75 9.75 0 0 1 12 2.25ZM3.75 12a8.25 8.25 0 1 0 16.5 0 8.25 8.25 0 0 0-16.5 0Zm6.76-2.308c-1.105.46-1.76 1.364-1.76 2.308 0 .944.655 1.847 1.76 2.307a.75.75 0 1 1-.576 1.386C8.406 15.057 7.25 13.685 7.25 12s1.156-3.057 2.684-3.692a.75.75 0 0 1 .576 1.384Zm3.556-1.384c1.528.635 2.684 2.007 2.684 3.692s-1.156 3.057-2.684 3.693a.75.75 0 1 1-.576-1.386c1.105-.459 1.76-1.363 1.76-2.307s-.655-1.848-1.76-2.308a.75.75 0 0 1 .576-1.384Z"/></svg>