<svg xmlns="http://www.w3.org/2000/svg" viewBox="0 0 24 24"><path fill="#151E28" d="M8.75 1v1.25h6.5V1a.75.75 0 0 1 1.5 0v1.275c.18.007.359.018.538.032.714.058 1.317.18 1.869.461a4.744 4.744 0 0 1 2.076 2.076c.28.551.402 1.154.46 1.868.057.697.057 1.563.057 2.655v5.266c0 1.092 0 1.958-.057 2.655-.058.714-.18 1.317-.461 1.869a4.752 4.752 0 0 1-2.075 2.076c-.552.28-1.155.402-1.869.46-.697.057-1.563.057-2.655.057H9.368c-1.092 0-1.958 0-2.655-.057-.714-.058-1.318-.18-1.868-.461a4.75 4.75 0 0 1-2.077-2.075c-.28-.552-.402-1.155-.46-1.869-.057-.697-.057-1.563-.057-2.655v-6.16c0-1.372 0-2.249.246-2.983A4.75 4.75 0 0 1 5.49 2.496c.489-.163 1.04-.218 1.76-.236V1a.75.75 0 0 1 1.5 0Zm6.5 3v-.25h-6.5V4a.75.75 0 0 1-1.5 0v-.24c-.626.017-.983.058-1.283.158a3.248 3.248 0 0 0-2.048 2.05c-.16.473-.169 1.086-.169 2.68V14.6c0 1.133 0 1.937.052 2.566.05.62.147 1.005.302 1.31a3.258 3.258 0 0 0 1.42 1.42c.305.155.69.251 1.31.302.63.051 1.434.052 2.566.052h5.2c1.133 0 1.937 0 2.566-.052.62-.05 1.005-.147 1.31-.302a3.258 3.258 0 0 0 1.42-1.42c.155-.305.251-.69.302-1.31.052-.63.052-1.434.052-2.566V9.4c0-1.132 0-1.937-.052-2.566-.05-.62-.147-1.005-.302-1.31a3.258 3.258 0 0 0-1.42-1.42c-.305-.155-.69-.251-1.31-.302-.13-.01-.269-.02-.416-.026V4a.75.75 0 0 1-1.5 0ZM8 11.25h8a.75.75 0 0 1 0 1.5H8a.75.75 0 0 1 0-1.5Z"/></svg>