<svg xmlns="http://www.w3.org/2000/svg" viewBox="0 0 24 24"><path fill="#151E28" d="M2.53 1.47h-.001l20 20a.75.75 0 1 1-1.06 1.061l-1.84-1.84a6.75 6.75 0 0 1-2.146.894c-.734.165-1.598.165-3.058.165H9.573c-1.46 0-2.324 0-3.058-.166a6.75 6.75 0 0 1-5.101-5.1c-.165-.734-.165-1.598-.165-3.058v-2.3A5.783 5.783 0 0 1 4.75 5.812L1.47 2.53a.751.751 0 0 1 .018-1.042.751.751 0 0 1 1.042-.018Zm16.006 18.127-3.474-3.474A3.939 3.939 0 0 1 12.3 17.25h-.6a3.95 3.95 0 0 1-3.95-3.95v-.6c0-1.076.43-2.05 1.127-2.763l-2.95-2.949a4.283 4.283 0 0 0-3.177 4.138v2.18c0 1.615.005 2.299.128 2.848a5.251 5.251 0 0 0 3.968 3.968c.55.123 1.233.128 2.847.128h4.614c1.614 0 2.298-.005 2.847-.128a5.27 5.27 0 0 0 1.382-.525ZM10.255 3.75c-.488 0-.95.149-1.334.41a.75.75 0 1 1-.842-1.242 3.872 3.872 0 0 1 2.176-.668h3.49a3.878 3.878 0 0 1 3.68 2.652.814.814 0 0 0 .612.54l.065.013a5.782 5.782 0 0 1 4.648 5.67v2.301c0 1.46 0 2.324-.165 3.058a6.826 6.826 0 0 1-.22.766.75.75 0 1 1-1.415-.5c.068-.193.126-.392.172-.596.123-.55.128-1.233.128-2.847v-2.181a4.28 4.28 0 0 0-3.442-4.2l-.065-.013a2.314 2.314 0 0 1-1.741-1.537 2.38 2.38 0 0 0-2.257-1.626Zm-.318 7.248A2.44 2.44 0 0 0 9.25 12.7v.6a2.45 2.45 0 0 0 2.45 2.45h.6c.66 0 1.26-.261 1.702-.687Zm2.331-1.585a.75.75 0 0 1 .895-.568 3.954 3.954 0 0 1 2.992 2.992.75.75 0 0 1-1.464.326 2.456 2.456 0 0 0-1.854-1.854.748.748 0 0 1-.569-.896Z"/></svg>