<svg xmlns="http://www.w3.org/2000/svg" viewBox="0 0 24 24"><path fill="#151E28" d="m2.53 1.47 20 20a.749.749 0 0 1-.326 1.275.749.749 0 0 1-.734-.215l-3.126-3.126A9.714 9.714 0 0 1 12 21.75c-1.653 0-2.998-.322-4.028-.722a65.592 65.592 0 0 0-1.502-.572 7.476 7.476 0 0 0-.41-.137 1.09 1.09 0 0 0-.145-.035h-.001a1.427 1.427 0 0 0-.24-.013 1.627 1.627 0 0 0-.233.065 1.897 1.897 0 0 0-.354.186c-.207.126-.474.304-.854.557l-.817.545A.75.75 0 0 1 2.25 21v-9a9.714 9.714 0 0 1 2.346-6.344L1.47 2.53a.751.751 0 0 1 .018-1.042.751.751 0 0 1 1.042-.018Zm14.75 16.87L5.66 6.72A8.216 8.216 0 0 0 3.75 12v7.599c.214-.141.397-.26.555-.357.232-.142.46-.267.692-.34l.008-.002c.16-.05.325-.1.506-.12.18-.02.353-.006.52.008l.008.001c.26.022.59.13.938.255.375.134.877.329 1.526.581l.012.005c.87.338 2.03.62 3.485.62a8.216 8.216 0 0 0 5.28-1.91ZM8.791 4.397h.001a.75.75 0 1 1-.584-1.382A9.724 9.724 0 0 1 12 2.25a9.75 9.75 0 0 1 8.984 13.542.75.75 0 1 1-1.382-.584A8.251 8.251 0 0 0 8.791 4.397Z"/></svg>