<svg xmlns="http://www.w3.org/2000/svg" viewBox="0 0 24 24"><path fill="#151E28" d="M12 2.25A9.75 9.75 0 0 1 21.75 12 9.75 9.75 0 0 1 12 21.75c-1.653 0-2.998-.322-4.028-.722a65.592 65.592 0 0 0-1.502-.572 7.476 7.476 0 0 0-.41-.137 1.09 1.09 0 0 0-.145-.035h-.001a1.427 1.427 0 0 0-.24-.013 1.627 1.627 0 0 0-.233.065 1.897 1.897 0 0 0-.354.186c-.207.126-.474.304-.854.557l-.817.545A.75.75 0 0 1 2.25 21v-9A9.75 9.75 0 0 1 12 2.25ZM3.75 12v7.599c.214-.141.397-.261.555-.357.232-.142.46-.267.692-.339l.008-.002c.16-.05.326-.102.506-.122.173-.014.347-.01.52.01h.008c.259.022.59.13.938.255a68.4 68.4 0 0 1 1.526.581l.012.005c.87.338 2.031.62 3.485.62A8.25 8.25 0 1 0 3.75 12ZM13 12a1 1 0 1 1-2 0 1 1 0 0 1 2 0Zm-5 1a1 1 0 1 1 0-2 1 1 0 0 1 0 2Zm8 0a1 1 0 1 1 0-2 1 1 0 0 1 0 2Z"/></svg>