<svg xmlns="http://www.w3.org/2000/svg" viewBox="0 0 24 24"><path fill="#151E28" d="M8.318 6.876a.75.75 0 0 1-1.298-.752 5.75 5.75 0 0 1 10.687 2.169A5.75 5.75 0 0 1 17 19.75a.75.75 0 0 1 0-1.5 4.25 4.25 0 0 0 0-8.5.75.75 0 0 1-.75-.75 4.25 4.25 0 0 0-7.932-2.124Zm6.41 5.306-.855 3.416 1.462.732a.75.75 0 0 1 .195 1.2l-5 5a.75.75 0 0 1-1.258-.712l.855-3.416-1.462-.732a.75.75 0 0 1-.195-1.2l5-5a.75.75 0 0 1 1.258.712ZM2.75 14A4.25 4.25 0 0 0 7 18.25a.75.75 0 0 1 0 1.5A5.75 5.75 0 1 1 9.3 8.729a.75.75 0 0 1-.6 1.374A4.249 4.249 0 0 0 2.75 14Zm8.585 3.329a.75.75 0 0 1 .393.853l-.344 1.373 2.35-2.349-1.069-.535a.75.75 0 0 1-.393-.853l.344-1.373-2.35 2.349Z"/></svg>