<svg xmlns="http://www.w3.org/2000/svg" viewBox="0 0 24 24"><path fill="#151E28" d="M8.318 6.876a.75.75 0 0 1-1.298-.752 5.75 5.75 0 0 1 10.687 2.169 5.752 5.752 0 0 1 .443 11.342.75.75 0 1 1-.3-1.47A4.25 4.25 0 0 0 17 9.75a.75.75 0 0 1-.75-.75 4.25 4.25 0 0 0-7.932-2.124ZM2.75 14c0 2.02 1.421 3.76 3.4 4.165a.75.75 0 1 1-.3 1.47A5.75 5.75 0 1 1 9.3 8.729a.75.75 0 0 1-.6 1.374A4.249 4.249 0 0 0 2.75 14Zm6.25.25a.75.75 0 0 1 .75.75v.25H10a.75.75 0 0 1 0 1.5h-.25V17a.75.75 0 0 1-1.5 0v-.25H8a.75.75 0 0 1 0-1.5h.25V15a.75.75 0 0 1 .75-.75Zm6.75.75v.25H16a.75.75 0 0 1 0 1.5h-.25V17a.75.75 0 0 1-1.5 0v-.25H14a.75.75 0 0 1 0-1.5h.25V15a.75.75 0 0 1 1.5 0Zm-3 5v.25H13a.75.75 0 0 1 0 1.5h-.25V22a.75.75 0 0 1-1.5 0v-.25H11a.75.75 0 0 1 0-1.5h.25V20a.75.75 0 0 1 1.5 0Z"/></svg>