<svg xmlns="http://www.w3.org/2000/svg" viewBox="0 0 24 24"><path fill="#151E28" d="M17.8 11.25h.03c.535 0 .98 0 1.345.03.38.031.736.098 1.073.27.518.264.939.685 1.202 1.202.172.337.24.694.27 1.074.03.364.03.81.03 1.344v2.66c0 .535 0 .98-.03 1.345-.03.38-.098.737-.27 1.074a2.752 2.752 0 0 1-1.201 1.202c-.338.172-.694.239-1.074.27-.365.03-.81.03-1.345.03h-.66c-.535 0-.98 0-1.345-.03-.38-.031-.736-.098-1.073-.27a2.749 2.749 0 0 1-1.202-1.202c-.172-.337-.24-.694-.27-1.074-.03-.364-.03-.81-.03-1.344v-2.662c0-.534 0-.98.03-1.344.03-.38.098-.737.27-1.074a2.752 2.752 0 0 1 1.201-1.202c.338-.172.694-.239 1.074-.27.365-.03.81-.03 1.345-.03h.63Zm-11.6-9v-.001h.63c.535 0 .98 0 1.345.03.38.031.736.098 1.073.27.518.264.938.684 1.202 1.202.172.337.24.694.27 1.074.03.365.03.81.03 1.345v2.66c0 .534 0 .98-.03 1.344-.03.38-.098.737-.27 1.074a2.749 2.749 0 0 1-1.202 1.202c-.337.172-.693.239-1.073.27-.365.03-.81.03-1.345.03h-.66c-.535 0-.98 0-1.345-.03-.38-.031-.736-.098-1.073-.27a2.749 2.749 0 0 1-1.202-1.202c-.172-.337-.24-.694-.27-1.074-.03-.364-.03-.81-.03-1.344V6.168c0-.534 0-.98.03-1.344.03-.38.098-.737.27-1.074a2.75 2.75 0 0 1 1.202-1.2c.337-.173.693-.24 1.073-.27.365-.03.81-.03 1.345-.03Zm12.373 0v-.001c.393 0 .696 0 .964.054a2.75 2.75 0 0 1 2.16 2.16c.053.268.053.571.053.963v.147c0 .393 0 .696-.053.963a2.75 2.75 0 0 1-2.161 2.161c-.267.053-.57.053-.963.053h-2.146c-.393 0-.696 0-.964-.054a2.75 2.75 0 0 1-2.16-2.16c-.053-.267-.053-.57-.053-.963v-.147c0-.393 0-.695.053-.963a2.75 2.75 0 0 1 2.161-2.161c.267-.052.57-.052.963-.052ZM5.427 15.249h2.146c.393 0 .696 0 .964.054a2.75 2.75 0 0 1 2.16 2.16c.053.268.053.571.053.963v.147c0 .393 0 .695-.053.963a2.75 2.75 0 0 1-2.161 2.161c-.267.052-.57.052-.963.052H5.427c-.393.001-.696.001-.964-.053a2.75 2.75 0 0 1-2.16-2.16c-.053-.268-.053-.571-.053-.963v-.147c0-.393 0-.696.053-.963a2.75 2.75 0 0 1 2.161-2.161c.267-.053.57-.053.963-.053ZM4.433 3.886c-.235.12-.427.311-.547.546-.046.091-.088.228-.111.515-.025.296-.025.68-.025 1.253v2.6c-.007.417.002.835.025 1.252.023.287.065.425.111.515.12.235.312.426.547.546.09.046.227.088.514.112.296.024.681.024 1.253.024h.6c.573 0 .957 0 1.253-.024.287-.024.424-.066.514-.112.235-.12.427-.311.547-.546.046-.091.088-.228.111-.515.025-.296.025-.68.025-1.252V6.2c0-.573-.001-.957-.025-1.253-.023-.287-.065-.425-.111-.515a1.244 1.244 0 0 0-.547-.546c-.09-.046-.227-.088-.514-.112-.296-.024-.681-.024-1.253-.024h-.6c-.573 0-.957 0-1.253.024-.287.024-.424.066-.514.112Zm15.134 9.001c-.09-.046-.227-.088-.515-.112-.295-.024-.68-.024-1.252-.024h-.6c-.572 0-.957 0-1.252.024-.288.024-.425.066-.516.112-.235.12-.426.311-.546.546-.046.09-.088.228-.111.515-.024.296-.025.68-.025 1.253v2.6c0 .572 0 .956.025 1.252.023.287.065.424.111.515.12.235.311.426.546.546.091.046.228.088.515.112.296.024.68.024 1.253.024h.6c.572 0 .957 0 1.252-.024.288-.024.425-.066.515-.112.235-.12.427-.311.547-.546.046-.09.088-.228.111-.515.024-.296.025-.68.025-1.253v-2.6c0-.572 0-.956-.025-1.252-.023-.287-.065-.424-.111-.515a1.255 1.255 0 0 0-.547-.546ZM4.756 16.773a1.25 1.25 0 0 0-.982.983c-.02.102-.024.243-.024.744 0 .5.004.641.024.743.098.496.486.884.982.983.103.02.244.024.744.024h2c.501 0 .641-.004.744-.024a1.25 1.25 0 0 0 .982-.983c.02-.103.024-.243.024-.743 0-.501-.004-.642-.024-.744a1.253 1.253 0 0 0-.982-.983c-.103-.02-.244-.023-.744-.023h-2c-.501 0-.641.003-.744.023ZM18.5 3.75h-2c-.501 0-.641.004-.744.024a1.25 1.25 0 0 0-.982.982c-.02.102-.024.243-.024.744 0 .5.004.641.024.743.099.496.486.883.982.982.103.021.244.025.744.025h2c.501 0 .641-.005.744-.025a1.25 1.25 0 0 0 .982-.982c.02-.103.024-.243.024-.743 0-.501-.004-.642-.024-.744a1.249 1.249 0 0 0-.982-.982c-.103-.021-.244-.024-.744-.024Z"/></svg>