<svg xmlns="http://www.w3.org/2000/svg" viewBox="0 0 24 24"><path fill="#151E28" d="M11.636 1.344a.748.748 0 0 1 .728 0l9 5A.75.75 0 0 1 21.75 7v10a.75.75 0 0 1-.386.656l-8.998 4.999a.752.752 0 0 1-.73 0l-1.543-2.572 1.157.642v-8.284l-7.5-4.166v1.228l6.343 10.579h-.001l1.542 2.573-8.998-5A.75.75 0 0 1 2.25 17V6.993a.75.75 0 0 1 .383-.647Zm1.114 19.381 7.5-4.166V8.275l-7.5 4.166v8.284ZM4.544 7 12 11.142 19.456 7 12 2.858Zm-.794 9.559 6.341 3.523L3.75 9.503v7.056Zm6.342 3.523h-.001l.001.001v-.001Z"/></svg>