<svg xmlns="http://www.w3.org/2000/svg" viewBox="0 0 24 24"><path fill="#151E28" d="M6.897 11.215a.751.751 0 0 1-1.291-.764A4.513 4.513 0 0 1 9.5 8.249c2.23 0 4.103 1.601 4.444 3.72 2.145.327 3.806 2.144 3.806 4.364a4.368 4.368 0 0 1-1.418 3.218.75.75 0 0 1-1.017-1.102 2.87 2.87 0 0 0 .935-2.116c0-1.595-1.327-2.917-3-2.917a.75.75 0 0 1-.75-.75c0-1.594-1.327-2.916-3-2.916a3.015 3.015 0 0 0-2.603 1.465Zm5.867-3.207a.75.75 0 1 1-.528-1.404 5.559 5.559 0 0 1 7.16 7.16.75.75 0 1 1-1.404-.528 4.057 4.057 0 0 0-5.228-5.228Zm-6.14 8.408L5.401 18.25H7a.748.748 0 0 1 .624 1.166l-2 3a.75.75 0 0 1-1.248-.832l1.223-1.834H4a.748.748 0 0 1-.624-1.166l2-3a.75.75 0 0 1 1.248.832Zm-3.874-.083a.75.75 0 0 1-1.5 0c0-2.455 2.03-4.417 4.5-4.417a4.555 4.555 0 0 1 1.795.365.75.75 0 0 1-.59 1.38 3.058 3.058 0 0 0-1.205-.244c-1.673 0-3 1.321-3 2.916Zm9.75.917a.75.75 0 0 1 .75.75v2a.75.75 0 0 1-1.5 0v-2a.75.75 0 0 1 .75-.75Zm-3 2a.75.75 0 0 1 .75.75v2a.75.75 0 0 1-1.5 0v-2a.75.75 0 0 1 .75-.75Zm5.85-15.4a.85.85 0 1 1-1.701-.001.85.85 0 0 1 1.701.001Zm5.8 7.5a.85.85 0 1 1 1.701.001.85.85 0 0 1-1.701-.001Zm-.566-4.724a.85.85 0 1 1-1.216-1.189.85.85 0 0 1 1.216 1.189ZM8.5 5.5a.85.85 0 1 1 1.188 1.217A.85.85 0 0 1 8.5 5.5Z"/></svg>