<svg xmlns="http://www.w3.org/2000/svg" viewBox="0 0 24 24"><path fill="#151E28" d="M17.095 2.25c.838 0 1.372 0 1.832.091a4.751 4.751 0 0 1 3.732 3.732c.091.46.091.994.091 1.832v8.19c0 .838 0 1.372-.091 1.832a4.751 4.751 0 0 1-3.732 3.732c-.46.091-.994.091-1.832.091H6.905c-.838 0-1.372 0-1.832-.091a4.751 4.751 0 0 1-3.732-3.732c-.091-.46-.091-.994-.091-1.832v-8.19c0-.838 0-1.372.091-1.832a4.751 4.751 0 0 1 3.732-3.732c.46-.091.994-.091 1.832-.091h10.19Zm1.539 1.562c-.296-.058-.669-.062-1.634-.062H7c-.965 0-1.338.004-1.634.062a3.248 3.248 0 0 0-2.554 2.554c-.058.296-.062.669-.062 1.634v8c0 .965.004 1.338.062 1.634a3.248 3.248 0 0 0 2.554 2.554c.296.058.669.062 1.634.062h10c.965 0 1.338-.004 1.634-.062a3.248 3.248 0 0 0 2.554-2.554c.058-.296.062-.669.062-1.634V8c0-.965-.004-1.338-.062-1.634a3.248 3.248 0 0 0-2.554-2.554ZM15 8.25a3.75 3.75 0 0 1 0 7.5A1.75 1.75 0 0 1 13.25 14v-4c0-.966.784-1.75 1.75-1.75ZM7.75 9v2.25h2.5V9a.75.75 0 0 1 1.5 0v6a.75.75 0 0 1-1.5 0v-2.25h-2.5V15a.75.75 0 0 1-1.5 0V9a.75.75 0 0 1 1.5 0Zm7 1v4c0 .138.112.25.25.25a2.25 2.25 0 1 0 0-4.5.25.25 0 0 0-.25.25Z"/></svg>