<svg xmlns="http://www.w3.org/2000/svg" viewBox="0 0 24 24"><path fill="#151E28" d="M12 2.25A9.75 9.75 0 0 1 21.75 12 9.75 9.75 0 0 1 12 21.75 9.75 9.75 0 0 1 2.25 12 9.75 9.75 0 0 1 12 2.25ZM3.75 12a8.25 8.25 0 1 0 16.5 0 8.25 8.25 0 0 0-16.5 0ZM12 5.712a.75.75 0 0 1 .75.75v.528c.678.088 1.303.295 1.811.6.677.406 1.266 1.072 1.266 1.948a.75.75 0 0 1-1.5 0c0-.142-.1-.4-.537-.662a3.108 3.108 0 0 0-1.04-.368v2.985c.617.252 1.26.536 1.781.883.66.44 1.296 1.1 1.296 2.085 0 .5-.113.953-.359 1.34-.245.386-.59.653-.966.836-.514.248-1.129.357-1.752.398v.503a.75.75 0 0 1-1.5 0v-.528c-.678-.088-1.303-.295-1.812-.6-.677-.406-1.265-1.072-1.265-1.949a.75.75 0 0 1 1.5 0c0 .143.1.4.537.663.27.162.625.294 1.04.368v-2.985c-.617-.252-1.261-.536-1.782-.883-.66-.44-1.295-1.1-1.295-2.086 0-.499.113-.952.359-1.34.237-.364.572-.653.966-.835.514-.248 1.129-.356 1.752-.398v-.503a.75.75 0 0 1 .75-.75Zm-1.85 3.002v-.001a.81.81 0 0 0-.352.29c-.066.104-.125.265-.125.535 0 .245.134.509.627.838.302.193.62.361.95.501V8.469c-.467.038-.835.117-1.1.245Zm2.6 4.409v2.408c.468-.038.835-.117 1.099-.244a.819.819 0 0 0 .353-.29c.065-.104.125-.266.125-.536 0-.244-.135-.508-.627-.837a6.427 6.427 0 0 0-.95-.501Zm0 2.408h-.001Z"/></svg>