<svg xmlns="http://www.w3.org/2000/svg" viewBox="0 0 24 24"><path fill="#151E28" d="M12.884 4.545a1.25 1.25 0 0 0 1.768 0l.707-.707a3.75 3.75 0 0 1 5.303 5.303l-.707.707a1.25 1.25 0 0 0 0 1.768.751.751 0 0 1-.018 1.042.751.751 0 0 1-1.042.018l-7.072-7.07a.75.75 0 1 1 1.06-1.061Zm0 2.828a.75.75 0 0 1 0 1.061L6.88 14.437c-.412.412-.568.57-.697.741-.121.16-.227.332-.316.512-.096.192-.167.402-.352.955l-.157.473-.004.011a2.767 2.767 0 0 1-.205.494l-.006.012-.865 1.73a.637.637 0 0 0 .855.856l1.731-.866.011-.005c.066-.033.117-.059.171-.083l.144-.06c.055-.02.11-.039.18-.062l.011-.004.473-.157c.553-.185.763-.256.955-.352.18-.09.351-.195.512-.316.17-.13.329-.285.741-.697l6.003-6.003a.751.751 0 0 1 1.042.018.751.751 0 0 1 .018 1.042l-6.002 6.003-.038.038c-.362.363-.596.597-.861.796a4.754 4.754 0 0 1-.748.463c-.297.147-.611.252-1.098.414l-.05.017-.472.157a3.577 3.577 0 0 0-.197.072c-.02.01-.043.02-.124.061l-1.73.865a2.138 2.138 0 0 1-2.868-2.867l.865-1.73a3.27 3.27 0 0 0 .088-.19l.045-.132.157-.472.017-.05c.162-.487.267-.8.414-1.098.131-.263.286-.514.463-.748.2-.265.433-.499.796-.861l.037-.038 6.003-6.003a.75.75 0 0 1 1.06 0Zm3.536-2.474-.002-.001-.707.707a2.751 2.751 0 0 1-1.096.671l3.607 3.607c.134-.413.364-.789.671-1.096l.707-.707a2.251 2.251 0 0 0-.981-3.818 2.251 2.251 0 0 0-2.199.637Z"/></svg>