<svg xmlns="http://www.w3.org/2000/svg" viewBox="0 0 24 24"><path fill="#151E28" d="M5 1.25a.75.75 0 0 1 .75.75v1.085l1.74-.348a6.985 6.985 0 0 1 4.962.86l.726.435a3.938 3.938 0 0 0 3.79.146 1.922 1.922 0 0 1 2.782 1.72v7.12c0 .886-.5 1.696-1.293 2.092l-.061.03a6.984 6.984 0 0 1-6.716-.257 5.484 5.484 0 0 0-3.896-.675l-2.034.407V22a.75.75 0 0 1-1.5 0V2A.75.75 0 0 1 5 1.25Zm.75 11.835 1.74-.348a6.985 6.985 0 0 1 4.962.86 5.485 5.485 0 0 0 5.273.202l.061-.03a.84.84 0 0 0 .464-.751v-7.12a.424.424 0 0 0-.612-.379 5.44 5.44 0 0 1-5.232-.2l-.726-.436a5.484 5.484 0 0 0-3.896-.675l-2.034.407Z"/></svg>