<svg xmlns="http://www.w3.org/2000/svg" viewBox="0 0 24 24"><path fill="#151E28" d="m9.632 2.354.001-.001c.382.092.748.244 1.083.45.38.233.7.551 1.16 1.013l.06.06.188.188c.544.544.733.726.943.854.201.124.421.215.651.27.238.057.5.062 1.27.062h2.244c.813 0 1.469 0 2 .043.546.045 1.026.139 1.47.365.706.36 1.28.934 1.639 1.64.226.444.321.924.366 1.47.043.531.043 1.187.043 2v4.464c0 .813 0 1.469-.043 2-.045.546-.139 1.026-.365 1.47a3.749 3.749 0 0 1-1.64 1.639c-.444.226-.924.321-1.47.366-.531.043-1.187.043-2 .043H6.768c-.813 0-1.469 0-2-.043-.546-.045-1.026-.139-1.47-.365a3.749 3.749 0 0 1-1.639-1.64c-.226-.444-.321-.924-.366-1.47-.043-.531-.043-1.187-.043-2V7.768c0-.813 0-1.469.043-2 .045-.546.139-1.026.365-1.47.36-.706.934-1.28 1.64-1.639.444-.226.924-.321 1.47-.366.531-.043 1.187-.043 2-.043h1.33c.652 0 1.102 0 1.534.104ZM8.012 3.75H6.8c-.852 0-1.447.001-1.909.038-.454.037-.715.107-.912.207a2.25 2.25 0 0 0-.984.984c-.1.197-.17.458-.207.911-.038.463-.038 1.058-.038 1.91v7.4c0 .852.001 1.447.038 1.909.037.454.107.715.207.913.216.423.56.767.984.983.197.1.458.169.911.207.463.038 1.058.038 1.91.038h10.4c.852 0 1.447-.001 1.909-.038.454-.037.715-.107.913-.207.423-.216.767-.56.983-.983.1-.198.169-.459.207-.912.038-.463.038-1.058.038-1.91v-4.4c0-.852-.001-1.447-.038-1.909-.037-.454-.107-.715-.207-.912a2.253 2.253 0 0 0-.983-.984c-.198-.1-.459-.17-.912-.207-.463-.038-1.058-.038-1.91-.038h-2.297c-.652 0-1.103 0-1.536-.103a3.741 3.741 0 0 1-1.083-.45c-.38-.233-.7-.551-1.16-1.013l-.06-.06-.188-.188c-.544-.544-.733-.726-.943-.854a2.226 2.226 0 0 0-.651-.27c-.238-.057-.5-.062-1.27-.062Zm2.018 6.22L12 11.94l1.97-1.97a.749.749 0 0 1 1.275.326.749.749 0 0 1-.215.734L13.06 13l1.97 1.97a.749.749 0 0 1-.326 1.275.749.749 0 0 1-.734-.215L12 14.06l-1.97 1.97a.749.749 0 0 1-1.275-.326.749.749 0 0 1 .215-.734L10.94 13l-1.97-1.97a.749.749 0 0 1 .326-1.275.749.749 0 0 1 .734.215Z"/></svg>