<svg xmlns="http://www.w3.org/2000/svg" viewBox="0 0 24 24"><path fill="#151E28" d="M12 2.25A9.75 9.75 0 0 1 21.75 12 9.75 9.75 0 0 1 12 21.75 9.75 9.75 0 0 1 2.25 12 9.75 9.75 0 0 1 12 2.25ZM5.715 17.344A8.232 8.232 0 0 0 12 20.25a8.31 8.31 0 0 0 1.25-.094v-1.302a.633.633 0 0 0-.35-.565 2.132 2.132 0 0 1-.953-2.86l.132-.264c.235-.47.616-.851 1.086-1.086l.765-.382.092-.046c.677-.34 1.143-.573 1.622-.672a3.753 3.753 0 0 1 2.649.43c.423.246.791.614 1.327 1.15l.073.073.095.096A8.228 8.228 0 0 0 20.25 12a8.239 8.239 0 0 0-3.5-6.746v.355c0 .48 0 .813-.058 1.14-.052.29-.137.573-.255.843-.133.305-.318.582-.585.981l-.034.052-.266.399-.033.049c-.249.374-.421.632-.631.857a3.75 3.75 0 0 1-1.252.883c-.283.122-.584.197-1.02.306l-.057.014-1.582.396a2.198 2.198 0 0 1-2.087-.578.697.697 0 0 0-1.118.181l-.81 1.622c-.14.278-.212.585-.212.896v.956c0 .15 0 .253-.006.355a3.75 3.75 0 0 1-1.03 2.383ZM3.75 12a8.218 8.218 0 0 0 1.074 4.074 2.25 2.25 0 0 0 .423-1.195c.003-.056.003-.117.003-.293v-.936c0-.544.127-1.08.37-1.567l.811-1.622a2.198 2.198 0 0 1 3.52-.571.698.698 0 0 0 .662.184l1.582-.396c.515-.128.69-.175.845-.242.284-.123.54-.303.752-.529.116-.125.218-.274.512-.715l.266-.399c.314-.471.419-.633.492-.801a2.23 2.23 0 0 0 .153-.505c.032-.181.035-.374.035-.94V4.415A8.249 8.249 0 0 0 3.75 12Zm15.366 4.177-.484-.484c-.637-.637-.86-.852-1.093-.988a2.252 2.252 0 0 0-1.59-.258c-.263.055-.543.189-1.349.591l-.765.383a.931.931 0 0 0-.414.414l-.132.264a.633.633 0 0 0 .283.848 2.133 2.133 0 0 1 1.178 1.907v.927a8.276 8.276 0 0 0 4.366-3.604Z"/></svg>