<svg xmlns="http://www.w3.org/2000/svg" viewBox="0 0 24 24"><path fill="#151E28" d="M9.367 2.25h5.266c1.092 0 1.958 0 2.655.057.714.058 1.317.18 1.869.46a4.75 4.75 0 0 1 2.075 2.077c.281.55.403 1.154.461 1.868.057.697.057 1.563.057 2.655v5.266c0 1.092 0 1.958-.057 2.655-.058.714-.18 1.317-.46 1.869a4.752 4.752 0 0 1-2.076 2.075c-.552.281-1.155.403-1.869.461-.697.057-1.563.057-2.655.057H9.367c-1.092 0-1.958 0-2.655-.057-.714-.058-1.317-.18-1.868-.46a4.744 4.744 0 0 1-2.076-2.076c-.281-.552-.403-1.155-.461-1.869-.057-.697-.057-1.563-.057-2.655V9.367c0-1.092 0-1.958.057-2.655.058-.714.18-1.317.46-1.868a4.752 4.752 0 0 1 2.077-2.076c.55-.281 1.154-.403 1.868-.461.697-.057 1.563-.057 2.655-.057ZM6.834 3.802c-.62.05-1.005.147-1.31.302a3.258 3.258 0 0 0-1.42 1.42c-.155.305-.251.69-.302 1.31-.051.63-.052 1.434-.052 2.566v5.2c0 1.133 0 1.937.052 2.566.05.62.147 1.005.302 1.31a3.258 3.258 0 0 0 1.42 1.42c.305.155.69.251 1.31.302.63.051 1.434.052 2.566.052h5.2c1.133 0 1.937 0 2.566-.052.62-.05 1.005-.147 1.31-.302a3.258 3.258 0 0 0 1.42-1.42c.155-.305.251-.69.302-1.31.051-.63.052-1.434.052-2.566V9.4c0-1.132 0-1.937-.052-2.566-.05-.62-.147-1.005-.302-1.31a3.258 3.258 0 0 0-1.42-1.42c-.305-.155-.69-.251-1.31-.302-.63-.051-1.434-.052-2.566-.052H9.4c-1.132 0-1.937 0-2.566.052Zm4.348 3.47a.751.751 0 0 1 .546.91L11.46 9.25h2.453l.358-1.432a.75.75 0 1 1 1.456.364L15.46 9.25h1.04a.75.75 0 0 1 0 1.5h-1.414l-.625 2.5H15.5a.75.75 0 0 1 0 1.5h-1.414l-.358 1.432a.75.75 0 1 1-1.456-.364l.267-1.068h-2.453l-.358 1.432a.75.75 0 1 1-1.456-.364l.267-1.068H7.5a.75.75 0 0 1 0-1.5h1.414l.625-2.5H8.5a.75.75 0 0 1 0-1.5h1.414l.358-1.432a.751.751 0 0 1 .91-.546Zm1.732 5.978.625-2.5h-2.453l-.625 2.5Z"/></svg>