<svg xmlns="http://www.w3.org/2000/svg" viewBox="0 0 24 24"><path fill="#151E28" d="m14.302 2.841 6 4.666a3.748 3.748 0 0 1 1.448 2.96V18A3.75 3.75 0 0 1 18 21.75H6A3.75 3.75 0 0 1 2.25 18v-7.533c0-1.157.534-2.25 1.448-2.96l6-4.666a3.75 3.75 0 0 1 4.604 0Zm-3.683 1.184-6 4.666a2.248 2.248 0 0 0-.869 1.776V18A2.25 2.25 0 0 0 6 20.25h12A2.25 2.25 0 0 0 20.25 18v-7.533a2.25 2.25 0 0 0-.869-1.776l-6-4.666a2.249 2.249 0 0 0-2.762 0ZM11.8 8.25h.4a3.55 3.55 0 0 1 3.55 3.55v.4a3.55 3.55 0 0 1-3.55 3.55h-.4a3.55 3.55 0 0 1-3.55-3.55v-.4a3.55 3.55 0 0 1 3.55-3.55ZM9.75 11.8v.4a2.05 2.05 0 0 0 2.05 2.05h.4a2.05 2.05 0 0 0 2.05-2.05v-.4a2.05 2.05 0 0 0-2.05-2.05h-.4a2.05 2.05 0 0 0-2.05 2.05Z"/></svg>