<svg xmlns="http://www.w3.org/2000/svg" viewBox="0 0 24 24"><path fill="#151E28" d="M9.4 3.75c-1.132 0-1.937 0-2.566.052-.62.05-1.005.147-1.31.302a3.258 3.258 0 0 0-1.42 1.42c-.155.305-.251.69-.302 1.31-.051.63-.052 1.434-.052 2.566v5.2c0 1.133 0 1.937.052 2.566.05.62.147 1.005.302 1.31a3.258 3.258 0 0 0 1.42 1.42c.305.155.69.251 1.31.302.63.051 1.434.052 2.566.052h5.2c1.133 0 1.937 0 2.566-.052.62-.05 1.005-.147 1.31-.302a3.258 3.258 0 0 0 1.42-1.42c.155-.305.251-.69.302-1.31.051-.63.052-1.434.052-2.566V12a.75.75 0 0 1 1.5 0v2.633c0 1.092 0 1.958-.057 2.655-.058.714-.18 1.317-.46 1.869a4.752 4.752 0 0 1-2.076 2.075c-.552.281-1.155.403-1.869.461-.697.057-1.563.057-2.655.057H9.367c-1.092 0-1.958 0-2.655-.057-.714-.058-1.317-.18-1.868-.46a4.744 4.744 0 0 1-2.076-2.076c-.281-.552-.403-1.155-.461-1.869-.057-.697-.057-1.563-.057-2.655V9.367c0-1.092 0-1.958.057-2.655.058-.714.18-1.317.46-1.868a4.752 4.752 0 0 1 2.077-2.076c.55-.281 1.154-.403 1.868-.461.697-.057 1.563-.057 2.655-.057H12a.75.75 0 0 1 0 1.5Zm11.13-.28h.001a2.164 2.164 0 0 1 0 3.06l-2.63 2.63-.049.048c-.463.463-.762.763-1.107 1.003-.306.213-.636.39-.983.526-.391.154-.806.237-1.448.365l-.067.013-.6.12a.75.75 0 0 1-.883-.882l.12-.6.014-.067c.128-.642.211-1.057.365-1.448.136-.347.313-.677.526-.983.241-.345.539-.644 1.003-1.107l.048-.048 2.63-2.63a2.164 2.164 0 0 1 3.06 0ZM6.25 8.7A2.45 2.45 0 0 1 8.7 6.25h.6a2.45 2.45 0 0 1 2.45 2.45v.6a2.45 2.45 0 0 1-2.45 2.45h-.6A2.45 2.45 0 0 1 6.25 9.3Zm7.994 4.455a2.75 2.75 0 0 1 3.405.148c.286.247.537.622.866 1.117l.064.096.045.068a.75.75 0 1 1-1.248.832l-.045-.068c-.424-.635-.553-.816-.661-.91a1.25 1.25 0 0 0-1.548-.066c-.117.084-.26.252-.738.848l-.4.5-.005.007a2.749 2.749 0 0 1-4.086.226l-.006-.006-.004-.004a1.25 1.25 0 0 0-1.766 0l-.004.004L6.53 17.53a.751.751 0 0 1-1.042-.018.751.751 0 0 1-.018-1.042l1.583-1.583.005-.006a2.75 2.75 0 0 1 3.884 0l.005.006.005.004a1.25 1.25 0 0 0 1.857-.103l.004-.005.4-.5.072-.09c.37-.464.653-.817.959-1.038ZM18.53 4.53 15.9 7.16c-.527.528-.725.73-.881.953a3.243 3.243 0 0 0-.36.672c-.072.185-.123.382-.201.757.375-.078.572-.129.757-.202.237-.092.462-.213.672-.36.223-.155.425-.353.953-.88l2.63-2.63a.664.664 0 1 0-.94-.94ZM8.7 7.75a.95.95 0 0 0-.95.95v.6c0 .525.425.95.95.95h.6a.95.95 0 0 0 .95-.95v-.6a.95.95 0 0 0-.95-.95Z"/></svg>