<svg xmlns="http://www.w3.org/2000/svg" viewBox="0 0 24 24"><path fill="#151E28" d="M8.75 7.25a.75.75 0 0 1 0 1.5H7.633c-.83 0-1.053.011-1.232.077a1.254 1.254 0 0 0-.485.323c-.13.14-.225.342-.544 1.108l-.625 1.498c-.21.507-.303.73-.379.952-.061.179-.115.36-.161.542H6.38c.535 0 .955 0 1.348.119.346.105.668.277.947.507.317.26.55.61.846 1.055l.152.228c.373.56.48.705.603.807.127.104.273.182.43.23.153.046.333.054 1.006.054h.575c.672 0 .852-.008 1.005-.054a1.26 1.26 0 0 0 .43-.23c.123-.101.23-.247.603-.807l.152-.228c.296-.445.529-.795.846-1.055.28-.23.601-.402.947-.507.393-.12.814-.12 1.348-.119h2.174a7.322 7.322 0 0 0-.161-.542 16.263 16.263 0 0 0-.38-.952l-.624-1.498c-.32-.766-.415-.968-.545-1.108a1.254 1.254 0 0 0-.485-.323c-.179-.066-.402-.077-1.232-.077H15.25a.75.75 0 0 1 0-1.5h1.244c.651 0 1.162 0 1.623.17.406.15.772.393 1.066.71.335.362.533.837.785 1.443l.045.108.624 1.498.011.027c.197.473.31.743.403 1.018a8.761 8.761 0 0 1 .443 3.483 17.22 17.22 0 0 1-.136 1.086l-.004.03-.011.08c-.104.723-.17 1.184-.302 1.585a4.75 4.75 0 0 1-3.675 3.188c-.416.074-.882.074-1.612.074H8.245c-.73 0-1.196 0-1.611-.074a4.751 4.751 0 0 1-3.676-3.188c-.132-.4-.198-.862-.301-1.585l-.012-.08-.004-.03c-.072-.507-.114-.797-.136-1.086a8.761 8.761 0 0 1 .443-3.483c.094-.275.207-.546.403-1.018l.012-.027.624-1.498.045-.108c.252-.606.449-1.08.784-1.443a2.75 2.75 0 0 1 1.067-.71c.46-.17.971-.17 1.622-.17H8.75Zm-4.749 8.343h.001c.032.34.075.679.129 1.017.119.831.167 1.15.253 1.408A3.25 3.25 0 0 0 6.898 20.2c.268.047.59.05 1.43.05h7.343c.84 0 1.163-.003 1.43-.051a3.25 3.25 0 0 0 2.515-2.181c.085-.258.134-.578.252-1.408.054-.338.097-.677.129-1.017.022-.281.026-.563.015-.843h-2.3c-.673 0-.853.008-1.006.054a1.26 1.26 0 0 0-.43.23c-.123.102-.23.247-.603.807l-.152.228c-.296.445-.529.795-.846 1.056a2.753 2.753 0 0 1-.947.506c-.393.119-.813.119-1.348.119h-.761c-.534.001-.955.001-1.348-.119a2.745 2.745 0 0 1-.947-.506c-.317-.261-.55-.611-.846-1.056l-.052-.078-.1-.15c-.373-.56-.48-.706-.603-.807a1.26 1.26 0 0 0-.43-.23c-.153-.046-.333-.054-1.006-.054h-2.3c-.012.281-.007.563.014.843ZM12.53 1.47l3 3a.751.751 0 0 1-.018 1.042.751.751 0 0 1-1.042.018l-1.72-1.72V12a.75.75 0 0 1-1.5 0V3.81L9.53 5.53a.751.751 0 0 1-1.042-.018.751.751 0 0 1-.018-1.042l3-3a.75.75 0 0 1 1.06 0Z"/></svg>