<svg xmlns="http://www.w3.org/2000/svg" viewBox="0 0 24 24"><path fill="#151E28" d="M7.861 3.25h8.278c.757-.001 1.35-.001 1.864.215.451.189.844.495 1.137.887.334.447.477 1.022.66 1.757l.034.133 1.36 5.441.008.034c.145.58.228.912.285 1.25a8.73 8.73 0 0 1 .104 2.01c-.022.342-.07.681-.155 1.273l-.004.034-.02.132c-.168 1.182-.276 1.937-.565 2.567a4.748 4.748 0 0 1-2.965 2.57c-.662.197-1.426.197-2.62.197H8.737c-1.193 0-1.957 0-2.62-.197a4.752 4.752 0 0 1-2.964-2.57c-.289-.629-.397-1.385-.566-2.567l-.018-.132-.005-.034c-.085-.592-.133-.931-.155-1.273a8.73 8.73 0 0 1 .104-2.01c.056-.338.14-.67.285-1.25l.008-.033 1.36-5.442.034-.133c.182-.735.326-1.311.66-1.757a2.748 2.748 0 0 1 1.136-.887c.513-.215 1.103-.215 1.855-.215h.01ZM6.578 4.848h-.001a1.245 1.245 0 0 0-.516.403c-.129.172-.206.421-.439 1.355l-1.36 5.441c-.157.623-.224.896-.27 1.169l-.006.034h2.395c.535-.001.955-.001 1.348.119.346.105.668.277.947.507.317.26.55.61.846 1.055l.052.078.1.15c.373.56.48.706.603.807.127.104.273.182.43.23.153.046.333.054 1.006.054h.575c.672 0 .853-.008 1.005-.054a1.26 1.26 0 0 0 .43-.23c.123-.102.23-.247.603-.807l.1-.15.052-.078c.296-.445.529-.795.846-1.055.279-.23.601-.402.947-.507.394-.119.814-.119 1.348-.119h2.395l-.006-.033c-.046-.274-.114-.547-.269-1.17l-1.36-5.441c-.234-.935-.311-1.183-.44-1.355a1.248 1.248 0 0 0-.517-.403c-.198-.084-.458-.098-1.421-.098H7.998c-.963 0-1.223.014-1.42.098Zm-2.68 9.902.008.132c.017.276.057.555.148 1.19.194 1.36.276 1.88.462 2.285a3.251 3.251 0 0 0 2.028 1.759c.427.126.954.134 2.327.134h6.258c1.373 0 1.9-.008 2.327-.134a3.25 3.25 0 0 0 2.028-1.76c.186-.404.268-.925.462-2.284.091-.635.13-.914.148-1.19l.007-.132h-2.388c-.673 0-.853.008-1.006.054a1.26 1.26 0 0 0-.43.23c-.123.101-.23.247-.603.807l-.1.15-.052.078c-.296.445-.529.795-.846 1.056-.28.23-.601.401-.947.506-.393.12-.813.12-1.348.119h-.761c-.534 0-.954 0-1.348-.119a2.753 2.753 0 0 1-.947-.506c-.317-.261-.55-.611-.846-1.056l-.152-.228c-.373-.56-.48-.705-.602-.807a1.26 1.26 0 0 0-.43-.23c-.153-.046-.334-.054-1.006-.054Z"/></svg>