<svg xmlns="http://www.w3.org/2000/svg" viewBox="0 0 24 24"><path fill="#151E28" d="M15 3.25a6.75 6.75 0 1 1-1.518 13.328l-.952.952a.749.749 0 0 1-.53.22h-1.25V19a.75.75 0 0 1-.75.75H8.75V21a.75.75 0 0 1-.75.75H4a.75.75 0 0 1-.75-.75v-3c0-.199.079-.389.219-.53l5.18-5.18A6.75 6.75 0 0 1 15 3.25ZM9.75 10a5.224 5.224 0 0 0 .464 2.16.75.75 0 0 1-.154.84l-5.31 5.31v1.94h2.5V19a.75.75 0 0 1 .75-.75h1.25V17a.75.75 0 0 1 .75-.75h1.689l1.038-1.037a.75.75 0 0 1 .748-.188A5.25 5.25 0 1 0 9.75 10ZM16 6.25a2.25 2.25 0 1 1 0 4.5 2.25 2.25 0 0 1 0-4.5Zm-.75 2.25a.75.75 0 1 0 1.5 0 .75.75 0 0 0-1.5 0Z"/></svg>