<svg xmlns="http://www.w3.org/2000/svg" viewBox="0 0 24 24"><path fill="#151E28" d="M14.633 2.25c1.092 0 1.958 0 2.655.057.714.058 1.317.18 1.869.46a4.752 4.752 0 0 1 2.075 2.076c.281.551.403 1.155.461 1.868.057.698.057 1.563.057 2.656v5.266c0 1.092 0 1.957-.057 2.655-.058.713-.18 1.317-.46 1.868a4.744 4.744 0 0 1-2.076 2.076c-.552.28-1.155.402-1.869.46-.61.05-1.35.057-2.258.057a.6.6 0 0 1-.06 0H9.03a.6.6 0 0 1-.06 0c-.907 0-1.646-.007-2.257-.056-.714-.059-1.317-.18-1.868-.461a4.744 4.744 0 0 1-2.076-2.076c-.281-.551-.403-1.155-.461-1.868-.057-.698-.057-1.563-.057-2.655V9.366c0-1.092 0-1.957.057-2.655.058-.713.18-1.317.46-1.868a4.752 4.752 0 0 1 2.077-2.076c.55-.28 1.154-.402 1.868-.46.685-.057 1.534-.057 2.6-.057h5.32Zm1.117 17.997c.472 0 .945-.017 1.416-.05.62-.05 1.005-.147 1.31-.302a3.258 3.258 0 0 0 1.42-1.42c.155-.305.251-.689.302-1.31.051-.629.052-1.433.052-2.565V9.4c0-1.133 0-1.937-.052-2.567-.05-.62-.147-1.004-.302-1.309a3.258 3.258 0 0 0-1.42-1.42c-.305-.155-.69-.252-1.31-.302-.471-.033-.944-.05-1.416-.05Zm-1.5-8.997v-7.5h-4.5v7.5Zm0 1.5h-4.5v7.5h4.5Zm-6-8.998c-.565.005-1.024.017-1.416.05-.62.05-1.005.147-1.31.302a3.258 3.258 0 0 0-1.42 1.42c-.155.305-.252.689-.302 1.309-.052.63-.052 1.434-.052 2.567v1.85h4.5Zm0 16.495V12.75h-4.5v1.85c0 1.132 0 1.936.052 2.566.05.62.147 1.005.302 1.309a3.258 3.258 0 0 0 1.42 1.42c.305.155.69.252 1.31.303.392.032.851.044 1.416.049Z"/></svg>