<svg xmlns="http://www.w3.org/2000/svg" viewBox="0 0 24 24"><path fill="#151E28" d="M4.878 5.939 1.47 2.53a.751.751 0 0 1 .018-1.042.751.751 0 0 1 1.042-.018l20 20a.749.749 0 0 1-.326 1.275.749.749 0 0 1-.734-.215l-5.572-5.572c-.097.309-.146.63-.148.953V19a3.75 3.75 0 0 1-7.5 0v-1.09c0-.734-.27-1.44-.706-2.125a9.952 9.952 0 0 0-1.168-1.453A7.728 7.728 0 0 1 4.25 9c0-1.086.224-2.121.628-3.061Zm9.757 9.756L6.043 7.103A6.253 6.253 0 0 0 5.75 9a6.224 6.224 0 0 0 1.714 4.3c.46.485.934 1.038 1.329 1.655.413.59.895 1.152 1.425 1.574.582.462 1.177.721 1.782.721.928 0 1.829-.617 2.635-1.555ZM12 2.75c-.96 0-1.867.216-2.678.601a.75.75 0 1 1-.644-1.355 7.75 7.75 0 0 1 9.964 10.999.75.75 0 0 1-1.284-.775A6.25 6.25 0 0 0 12 2.75ZM9.75 19a2.25 2.25 0 1 0 4.5 0v-.962c-.658.426-1.41.712-2.25.712-.843 0-1.599-.291-2.25-.712Z"/></svg>