<svg xmlns="http://www.w3.org/2000/svg" viewBox="0 0 24 24"><path fill="#151E28" d="m6.53 3.47 3 3a.751.751 0 0 1-.018 1.042.751.751 0 0 1-1.042.018L6.75 5.81v12.38l1.72-1.72a.749.749 0 0 1 1.275.326.749.749 0 0 1-.215.734l-3 3a.75.75 0 0 1-1.06 0l-3-3a.751.751 0 0 1 .018-1.042.751.751 0 0 1 1.042-.018l1.72 1.72V5.81L3.53 7.53a.751.751 0 0 1-1.042-.018.751.751 0 0 1-.018-1.042l3-3a.75.75 0 0 1 1.06 0Zm5.47.78h10a.75.75 0 0 1 0 1.5H12a.75.75 0 0 1 0-1.5Zm0 14h10a.75.75 0 0 1 0 1.5H12a.75.75 0 0 1 0-1.5ZM11.25 12a.75.75 0 0 1 .75-.75h10a.75.75 0 0 1 0 1.5H12a.75.75 0 0 1-.75-.75Z"/></svg>