<svg xmlns="http://www.w3.org/2000/svg" viewBox="0 0 24 24"><path fill="#151E28" d="M9.768 2.25h4.464c.813 0 1.469 0 2 .043.546.045 1.026.139 1.47.365.706.36 1.28.934 1.639 1.64.226.444.321.924.366 1.47.043.531.043 1.187.043 2v8.464c0 .813 0 1.469-.043 2-.045.546-.139 1.026-.365 1.47a3.749 3.749 0 0 1-1.64 1.639c-.444.226-.924.321-1.47.366-.531.043-1.187.043-2 .043H9.768c-.813 0-1.469 0-2-.043-.546-.045-1.026-.139-1.47-.365a3.749 3.749 0 0 1-1.639-1.64c-.226-.444-.321-.924-.366-1.47-.043-.531-.043-1.187-.043-2V7.768c0-.813 0-1.469.043-2 .045-.546.139-1.026.365-1.47.36-.706.934-1.28 1.64-1.639.444-.226.924-.321 1.47-.366.531-.043 1.187-.043 2-.043ZM6.979 3.995a2.25 2.25 0 0 0-.984.984c-.1.197-.17.458-.207.911-.038.463-.038 1.058-.038 1.91v8.4c0 .852.001 1.447.038 1.909.037.454.107.715.207.913.216.423.56.767.984.983.197.1.458.169.911.207.463.038 1.058.038 1.91.038h4.4c.852 0 1.447-.001 1.909-.038.454-.037.715-.107.913-.207.423-.216.767-.56.983-.983.1-.198.169-.459.207-.912.038-.463.038-1.058.038-1.91V7.8c0-.852-.001-1.447-.038-1.909-.037-.454-.107-.715-.207-.912a2.253 2.253 0 0 0-.983-.984c-.198-.1-.459-.17-.912-.207-.463-.038-1.057-.038-1.91-.038H9.8c-.852 0-1.447.001-1.909.038-.454.037-.715.107-.912.207Zm4.787 4.722 2.175 1.243.03.017c.321.176.635.366.94.568.248.174.52.402.67.74.203.455.203.974 0 1.429-.15.34-.422.567-.67.74-.243.171-.567.356-.94.57l-.03.016-2.175 1.243-.029.017c-.368.21-.688.393-.957.516-.272.124-.602.241-.968.201a1.752 1.752 0 0 1-1.229-.714c-.216-.297-.279-.642-.306-.94-.027-.294-.027-.662-.027-1.086v-2.554c0-.424 0-.792.027-1.086.027-.298.09-.643.305-.941a1.75 1.75 0 0 1 1.23-.712c.366-.04.696.076.968.2.269.123.589.306.956.516ZM2.75 6v12a.75.75 0 0 1-1.5 0V6a.75.75 0 0 1 1.5 0ZM22 5.25a.75.75 0 0 1 .75.75v12a.75.75 0 0 1-1.5 0V6a.75.75 0 0 1 .75-.75ZM9.806 9.567l-.001-.001a.983.983 0 0 0-.035.208c-.02.217-.02.516-.02.983v2.486c0 .467.001.766.021.983.004.07.015.14.034.208.039.048.094.08.155.09a.942.942 0 0 0 .198-.073c.198-.09.458-.238.864-.47l2.175-1.243c.411-.235.674-.386.855-.513a.98.98 0 0 0 .166-.135.254.254 0 0 0 0-.18.98.98 0 0 0-.166-.135 12.422 12.422 0 0 0-.855-.513l-2.175-1.243c-.406-.232-.666-.38-.864-.47a.998.998 0 0 0-.198-.072.25.25 0 0 0-.154.09Z"/></svg>