<svg xmlns="http://www.w3.org/2000/svg" viewBox="0 0 24 24"><path fill="#151E28" d="M19.402 1.516v-.001a2.75 2.75 0 0 1 1.851 1.145c.294.42.399.922.449 1.456.048.527.048 1.199.048 2.024v9.721c0 .824 0 1.496-.048 2.024-.049.534-.155 1.036-.449 1.456a2.749 2.749 0 0 1-1.851 1.144c-.507.075-1.003-.055-1.503-.25-.493-.192-1.094-.493-1.832-.862l-.034-.017-9.21-4.606h-.848c-.445 0-.816 0-1.12-.02a2.84 2.84 0 0 1-.907-.189 2.747 2.747 0 0 1-1.488-1.488 2.814 2.814 0 0 1-.19-.907c-.02-.304-.02-.676-.02-1.12v-.052c0-.444 0-.815.021-1.12.021-.317.068-.617.188-.907A2.754 2.754 0 0 1 3.948 7.46a2.82 2.82 0 0 1 .907-.19c.304-.02.675-.02 1.12-.02h.848l9.21-4.606.034-.016c.738-.369 1.339-.67 1.832-.862.5-.196.996-.326 1.503-.25Zm-2.698 2.47h.001L7.335 8.67A.751.751 0 0 1 7 8.75H6c-.348-.005-.696.001-1.043.017-.241.016-.358.046-.435.078-.307.126-.55.37-.677.676-.032.078-.061.195-.078.436-.017.247-.017.567-.017 1.043-.005.348.001.696.017 1.043.017.241.046.358.078.435.127.307.37.55.677.677.077.032.194.061.435.077.247.017.567.017 1.043.017h1c.116 0 .231.028.335.08l9.37 4.684c.78.39 1.318.659 1.74.824.422.165.621.18.738.163.34-.05.644-.238.841-.52.068-.096.143-.281.184-.733.042-.451.042-1.053.042-1.925V6.177c0-.871-.001-1.474-.042-1.924-.041-.452-.116-.637-.184-.734a1.25 1.25 0 0 0-.841-.52c-.117-.016-.315-.001-.739.164-.42.165-.96.433-1.74.823ZM6.25 16v2a1.25 1.25 0 0 0 2.5 0v-.5a.75.75 0 0 1 1.5 0v.5a2.75 2.75 0 1 1-5.5 0v-2a.75.75 0 0 1 1.5 0Z"/></svg>