<svg xmlns="http://www.w3.org/2000/svg" viewBox="0 0 24 24"><path fill="#151E28" d="M5.17 4.25h13.66c.534 0 .98 0 1.344.03.38.03.737.098 1.074.27.517.263.938.684 1.202 1.201.172.338.239.694.27 1.074.03.365.03.81.03 1.345v7.66c0 .535 0 .98-.03 1.345-.03.379-.098.736-.27 1.073a2.749 2.749 0 0 1-1.202 1.202c-.337.172-.693.24-1.073.27-.365.03-.81.03-1.345.03H5.17c-.535 0-.98 0-1.345-.03-.38-.03-.736-.098-1.073-.27a2.749 2.749 0 0 1-1.202-1.202c-.172-.337-.24-.693-.27-1.073-.03-.365-.03-.81-.03-1.345V8.17c0-.535 0-.98.03-1.345.03-.38.098-.736.27-1.073A2.749 2.749 0 0 1 2.752 4.55c.337-.172.693-.24 1.073-.27.365-.03.81-.03 1.345-.03ZM3.433 5.886c-.236.12-.427.311-.547.547-.046.09-.088.227-.111.514-.025.296-.025.681-.025 1.253v7.6c0 .572.001.957.025 1.252.023.288.065.425.111.515.12.236.311.427.547.547.09.046.227.088.514.111.296.025.681.025 1.253.025h13.6c.572 0 .957-.001 1.252-.025.288-.023.425-.065.515-.111.236-.12.427-.311.547-.547.046-.09.088-.227.111-.515.025-.295.025-.68.025-1.252V8.2c0-.573-.001-.957-.025-1.253-.024-.287-.065-.424-.112-.515a1.247 1.247 0 0 0-.546-.546c-.09-.046-.228-.088-.515-.111-.296-.025-.68-.025-1.252-.025H5.2c-.573 0-.957.001-1.253.025-.287.023-.424.065-.514.111ZM12 8.75a3.25 3.25 0 1 1 0 6.5 3.25 3.25 0 0 1 0-6.5ZM10.25 12a1.75 1.75 0 1 0 3.501-.001A1.75 1.75 0 0 0 10.25 12Z"/></svg>