<svg xmlns="http://www.w3.org/2000/svg" viewBox="0 0 24 24"><path fill="#151E28" d="M14.634 3.93a5.265 5.265 0 0 0-3.408 2.883.75.75 0 1 1-1.364-.626A6.75 6.75 0 0 1 16 2.25a.75.75 0 0 1 .6 1.2 4.251 4.251 0 0 0 4.898 6.529.751.751 0 0 1 .983.912 6.762 6.762 0 0 1-3.106 3.956.75.75 0 1 1-.75-1.299 5.275 5.275 0 0 0 1.86-1.818 5.748 5.748 0 0 1-5.851-7.8ZM9.5 9.75a3.015 3.015 0 0 0-2.603 1.465.75.75 0 1 1-1.29-.764A4.515 4.515 0 0 1 9.5 8.25c2.23 0 4.103 1.6 4.444 3.719 2.145.327 3.806 2.144 3.806 4.364 0 .725-.178 1.41-.494 2.015a.751.751 0 1 1-1.33-.695c.207-.396.324-.844.324-1.32 0-1.595-1.327-2.916-3-2.916a.75.75 0 0 1-.75-.75c0-1.595-1.327-2.917-3-2.917Zm-2.876 6.666L5.401 18.25H7a.748.748 0 0 1 .624 1.166l-2 3a.749.749 0 1 1-1.248-.832l1.223-1.834H4a.748.748 0 0 1-.624-1.166l2-3a.749.749 0 1 1 1.248.832Zm-.874-2.999c-1.673 0-3 1.321-3 2.916a.75.75 0 0 1-1.5 0c0-2.455 2.03-4.416 4.5-4.416.636 0 1.244.13 1.795.365a.75.75 0 0 1-.59 1.38 3.062 3.062 0 0 0-1.205-.245ZM13 16.25a.75.75 0 0 1 .75.75v.25H14a.75.75 0 0 1 0 1.5h-.25V19a.75.75 0 0 1-1.5 0v-.25H12a.75.75 0 0 1 0-1.5h.25V17a.75.75 0 0 1 .75-.75ZM10.25 20v.25h.25a.75.75 0 0 1 0 1.5h-.25V22a.75.75 0 0 1-1.5 0v-.25H8.5a.75.75 0 0 1 0-1.5h.25V20a.75.75 0 0 1 1.5 0Z"/></svg>