<svg xmlns="http://www.w3.org/2000/svg" viewBox="0 0 24 24"><path fill="#151E28" d="M11.226 6.813a.75.75 0 1 1-1.364-.626 6.752 6.752 0 0 1 6.137-3.937.75.75 0 0 1 .6 1.2 4.251 4.251 0 0 0 4.898 6.529.75.75 0 0 1 .984.912 6.762 6.762 0 0 1-3.106 3.956.752.752 0 0 1-1.147-.644.75.75 0 0 1 .397-.654 5.28 5.28 0 0 0 1.86-1.82 5.748 5.748 0 0 1-5.851-7.8 5.264 5.264 0 0 0-3.408 2.884Zm-4.329 4.402a.751.751 0 0 1-1.291-.764A4.513 4.513 0 0 1 9.5 8.249c2.23 0 4.103 1.601 4.444 3.72 2.145.327 3.806 2.144 3.806 4.364a4.368 4.368 0 0 1-1.418 3.218.75.75 0 0 1-1.017-1.102 2.87 2.87 0 0 0 .935-2.116c0-1.595-1.327-2.916-3-2.916a.75.75 0 0 1-.75-.75c0-1.595-1.327-2.917-3-2.917a3.015 3.015 0 0 0-2.603 1.465Zm-.481 4.161a.75.75 0 0 1 .208 1.04L5.401 18.25H7a.748.748 0 0 1 .624 1.166l-2 3a.749.749 0 1 1-1.248-.832l1.223-1.834H4a.748.748 0 0 1-.624-1.166l2-3a.75.75 0 0 1 1.04-.208Zm-3.666.957a.75.75 0 0 1-1.5 0c0-2.455 2.03-4.416 4.5-4.416a4.555 4.555 0 0 1 1.795.365.75.75 0 0 1-.59 1.379 3.058 3.058 0 0 0-1.205-.244c-1.673 0-3 1.321-3 2.916ZM13.25 18v2a.75.75 0 0 1-1.5 0v-2a.75.75 0 0 1 1.5 0Zm-3 2v2a.75.75 0 0 1-1.5 0v-2a.75.75 0 0 1 1.5 0Z"/></svg>