<svg xmlns="http://www.w3.org/2000/svg" viewBox="0 0 24 24"><path fill="#151E28" d="M20.85 2.794c.048.044.1.096.168.163l.012.013.013.013a2.75 2.75 0 0 1 .163 3.867c-.043.048-.096.101-.163.168l-.013.013L9.784 18.277l-.044.044c-.425.424-.698.698-1.012.924-.279.2-.578.369-.892.505-.355.153-.731.247-1.314.393l-.06.015-2.28.57a.752.752 0 0 1-.91-.91l.57-2.28.016-.06c.145-.583.239-.959.392-1.314a4.72 4.72 0 0 1 .505-.891c.226-.314.499-.588.924-1.013l.044-.044L16.97 2.97l.012-.013a2.75 2.75 0 0 1 3.868-.163Zm-2.69 1.11c-.02.017-.044.041-.13.127L6.783 15.277c-.482.483-.664.668-.81.871-.137.19-.252.395-.345.61-.1.23-.165.481-.33 1.144l-.267 1.067 1.067-.266c.664-.166.914-.231 1.144-.33.215-.093.42-.209.61-.346.203-.146.388-.327.871-.811L19.97 5.97c.043-.042.086-.085.127-.129a1.25 1.25 0 0 0 0-1.682l-.127-.128a2.35 2.35 0 0 0-.13-.127 1.25 1.25 0 0 0-1.68 0ZM10 20.25h10a.75.75 0 0 1 0 1.5H10a.75.75 0 0 1 0-1.5Z"/></svg>