<svg xmlns="http://www.w3.org/2000/svg" viewBox="0 0 24 24"><path fill="#151E28" d="M12.694 1.302c.326.141.552.391.725.623.17.226.355.526.565.868l.017.028 5.794 9.415.046.075c.265.429.473.767.577 1.142.092.33.121.674.087 1.015-.039.388-.186.756-.374 1.223l-.033.082-.597 1.494-.044.11c-.246.618-.44 1.103-.776 1.473-.109.12-.23.231-.359.33a2.251 2.251 0 0 1-1.822 3.57h-9a2.249 2.249 0 0 1-1.822-3.57 2.804 2.804 0 0 1-.359-.33c-.336-.37-.53-.855-.776-1.473l-.044-.11-.598-1.494-.032-.082c-.188-.467-.335-.835-.375-1.223a2.76 2.76 0 0 1 .088-1.015c.104-.375.312-.712.577-1.142l.046-.075 5.793-9.415.018-.028c.21-.342.395-.642.565-.868.173-.233.398-.483.725-.623a1.753 1.753 0 0 1 1.388 0Zm3.139 16.948c.842 0 1.069-.011 1.25-.079.187-.07.354-.183.488-.33.13-.143.224-.349.537-1.13l.598-1.495c.235-.588.292-.748.307-.899a1.258 1.258 0 0 0-.04-.461c-.04-.146-.123-.294-.456-.834L12.75 3.65v5.704a2.75 2.75 0 1 1-1.5 0V3.65l-5.768 9.372c-.332.54-.415.688-.456.834-.042.15-.055.306-.04.461.016.15.073.31.308.9l.598 1.493c.312.782.407.988.537 1.13.134.148.301.262.488.331.18.068.407.08 1.25.08h7.666Zm.667 1.5h-9a.75.75 0 0 0 0 1.5h9a.75.75 0 0 0 0-1.5Zm-4.5-9a1.25 1.25 0 1 0 0 2.5 1.25 1.25 0 0 0 0-2.5Z"/></svg>