<svg xmlns="http://www.w3.org/2000/svg" viewBox="0 0 24 24"><path fill="#151E28" d="M17.095 2.25c.838 0 1.372 0 1.832.091a4.751 4.751 0 0 1 3.732 3.732c.091.46.091.994.091 1.832v8.19c0 .838 0 1.372-.091 1.832a4.751 4.751 0 0 1-3.732 3.732c-.46.091-.994.091-1.832.091H6.905c-.838 0-1.372 0-1.832-.091a4.751 4.751 0 0 1-3.732-3.732c-.091-.46-.091-.994-.091-1.832v-8.19c0-.838 0-1.372.091-1.832a4.751 4.751 0 0 1 3.732-3.732c.46-.091.994-.091 1.832-.091h10.19Zm1.539 1.562c-.296-.058-.669-.062-1.634-.062H7c-.965 0-1.338.004-1.634.062a3.248 3.248 0 0 0-2.554 2.554c-.058.296-.062.669-.062 1.634v8c0 .965.004 1.338.062 1.634a3.248 3.248 0 0 0 2.554 2.554c.296.058.669.062 1.634.062h10c.965 0 1.338-.004 1.634-.062a3.248 3.248 0 0 0 2.554-2.554c.058-.296.062-.669.062-1.634V8c0-.965-.004-1.338-.062-1.634a3.248 3.248 0 0 0-2.554-2.554ZM15.75 8.25a3 3 0 0 1 3 3v1.5a2.996 2.996 0 0 1-1.465 2.578l.703.603a.75.75 0 1 1-.976 1.138l-1.556-1.333a3 3 0 0 1-2.706-2.986v-1.5a3 3 0 0 1 3-3Zm-8 .75v2.25h2.5V9a.75.75 0 0 1 1.5 0v6a.75.75 0 0 1-1.5 0v-2.25h-2.5V15a.75.75 0 0 1-1.5 0V9a.75.75 0 0 1 1.5 0Zm6.5 2.25v1.5a1.5 1.5 0 0 0 3 0v-1.5a1.5 1.5 0 0 0-3 0Z"/></svg>