<svg xmlns="http://www.w3.org/2000/svg" viewBox="0 0 24 24"><path fill="#151E28" d="M1 2.75a.75.75 0 0 1 0-1.5h.09c.662 0 1.117 0 1.532.095a3.751 3.751 0 0 1 2.41 1.78c.175.305.298.655.445 1.125h12.257c.699 0 1.273 0 1.733.041.471.042.913.133 1.303.377.586.366 1.012.94 1.194 1.606.122.444.082.893-.013 1.357-.092.45-.258 1-.458 1.67l-.01.034-.738 2.46-.045.148c-.325 1.083-.548 1.83-1.005 2.402v-.001l-.585-.469.585.47a3.758 3.758 0 0 1-1.522 1.132c-.677.273-1.453.273-2.578.273H11.38c-1.117 0-1.888 0-2.561-.27A3.752 3.752 0 0 1 7.3 14.359c-.457-.566-.684-1.306-1.014-2.38l-.045-.147-2.076-6.744c-.231-.752-.315-1.011-.432-1.213a2.255 2.255 0 0 0-1.446-1.068c-.228-.052-.5-.057-1.287-.057Zm6.674 8.641h.001c.394 1.279.542 1.714.792 2.024.242.298.556.53.912.673.37.149.829.162 2.167.162h3.884c1.347 0 1.809-.014 2.181-.164.358-.145.673-.379.914-.68.251-.313.397-.752.784-2.042l.738-2.46c.213-.711.358-1.197.436-1.575.076-.373.066-.549.036-.659a1.253 1.253 0 0 0-.543-.73c-.097-.06-.262-.121-.642-.155-.384-.035-.891-.035-1.634-.035H5.94ZM15.25 20a2.75 2.75 0 1 1 5.5 0 2.75 2.75 0 0 1-5.5 0Zm-8 0a2.75 2.75 0 1 1 5.5 0 2.75 2.75 0 0 1-5.5 0ZM10 18.75a1.25 1.25 0 1 0 0 2.5 1.25 1.25 0 0 0 0-2.5Zm8 0a1.25 1.25 0 1 0 0 2.5 1.25 1.25 0 0 0 0-2.5Z"/></svg>