<svg xmlns="http://www.w3.org/2000/svg" viewBox="0 0 24 24"><path fill="#151E28" d="M13.75 16.25h.5a2.5 2.5 0 0 1 2.5 2.5v.5a2.5 2.5 0 0 1-2.5 2.5h-.5a2.5 2.5 0 0 1-2.5-2.5v-.5a2.5 2.5 0 0 1 2.5-2.5Zm0-14h.5a2.5 2.5 0 0 1 2.5 2.5v.5a2.5 2.5 0 0 1-2.5 2.5h-.5a2.5 2.5 0 0 1-2.5-2.5v-.5a2.5 2.5 0 0 1 2.5-2.5Zm-7.5 9.5a2.5 2.5 0 0 1 2.5-2.5h.5a2.5 2.5 0 0 1 2.5 2.5v.5a2.5 2.5 0 0 1-2.5 2.5h-.5a2.5 2.5 0 0 1-2.5-2.5Zm7 .25a.75.75 0 0 1 .75-.75h7a.75.75 0 0 1 0 1.5h-7a.75.75 0 0 1-.75-.75Zm-11-7A.75.75 0 0 1 3 4.25h6a.75.75 0 0 1 0 1.5H3A.75.75 0 0 1 2.25 5ZM3 18.25h6a.75.75 0 0 1 0 1.5H3a.75.75 0 0 1 0-1.5Zm5.75-7.5a1 1 0 0 0-1 1v.5a1 1 0 0 0 1 1h.5a1 1 0 0 0 1-1v-.5a1 1 0 0 0-1-1Zm4-6v.5a1 1 0 0 0 1 1h.5a1 1 0 0 0 1-1v-.5a1 1 0 0 0-1-1h-.5a1 1 0 0 0-1 1Zm0 14v.5a1 1 0 0 0 1 1h.5a1 1 0 0 0 1-1v-.5a1 1 0 0 0-1-1h-.5a1 1 0 0 0-1 1ZM18.25 5a.75.75 0 0 1 .75-.75h2a.75.75 0 0 1 0 1.5h-2a.75.75 0 0 1-.75-.75Zm0 14a.75.75 0 0 1 .75-.75h2a.75.75 0 0 1 0 1.5h-2a.75.75 0 0 1-.75-.75ZM3 11.25h1a.75.75 0 0 1 0 1.5H3a.75.75 0 0 1 0-1.5Z"/></svg>