<svg xmlns="http://www.w3.org/2000/svg" viewBox="0 0 24 24"><path fill="#151E28" d="M12.849 3.674a3.75 3.75 0 0 1 4.489 1.86c.241.471.328 1.072.37 1.768.042.709.042 1.635.042 2.824v3.749c0 1.188 0 2.115-.043 2.823-.041.697-.128 1.297-.37 1.769a3.75 3.75 0 0 1-4.488 1.86c-.505-.163-.99-.527-1.513-.99-.53-.47-1.186-1.126-2.026-1.966l-.02-.02-.199-.2a1.25 1.25 0 0 0-.97-.402h-.017a2.75 2.75 0 0 1-2.85-2.619c-.004-.065-.004-.138-.004-.233v-3.793c0-.095 0-.169.003-.235A2.75 2.75 0 0 1 7.87 7.253c.066-.003.14-.003.235-.003H8.2a1.25 1.25 0 0 0 .89-.401l.2-.2.019-.02c.84-.84 1.495-1.495 2.026-1.966.522-.463 1.008-.826 1.513-.989Zm3.154 2.543a2.25 2.25 0 0 0-2.694-1.115c-.184.059-.47.234-.977.684-.494.437-1.117 1.06-1.98 1.923l-.205.205-.078.077a2.747 2.747 0 0 1-1.832.758l-.108.001H8.12c-.121 0-.155 0-.18.002A1.25 1.25 0 0 0 6.75 9.94l-.001.18v3.758l.001.18a1.25 1.25 0 0 0 1.19 1.19l.18.001h.008l.108.001a2.75 2.75 0 0 1 1.91.835l.005.005.2.2c.863.863 1.486 1.486 1.98 1.924.506.449.793.624.977.684a2.25 2.25 0 0 0 2.694-1.116c.088-.172.166-.499.207-1.175.04-.658.04-1.54.04-2.76v-3.695c0-1.221 0-2.103-.04-2.76-.04-.677-.119-1.003-.207-1.176Z"/></svg>