<svg xmlns="http://www.w3.org/2000/svg" viewBox="0 0 24 24"><path fill="#151E28" d="M8.287 15.712a.75.75 0 0 1 0 1.06l-2.12 2.122a.75.75 0 1 1-1.061-1.06l2.121-2.122a.75.75 0 0 1 1.06 0ZM12.75 3v3a.75.75 0 0 1-1.5 0V3a.75.75 0 0 1 1.5 0Zm-10.5 9a.75.75 0 0 1 .75-.75h3a.75.75 0 0 1 0 1.5H3a.75.75 0 0 1-.75-.75Zm10.5 6v3a.75.75 0 0 1-1.5 0v-3a.75.75 0 0 1 1.5 0ZM18 11.25h3a.75.75 0 0 1 0 1.5h-3a.75.75 0 0 1 0-1.5Zm.894-6.144a.75.75 0 0 1 0 1.06l-2.121 2.122a.75.75 0 0 1-1.06-1.061l2.12-2.121a.75.75 0 0 1 1.061 0Zm-2.121 10.606 2.121 2.122a.748.748 0 0 1-.332 1.265.75.75 0 0 1-.729-.205l-2.12-2.122a.751.751 0 0 1 .018-1.042.751.751 0 0 1 1.042-.018ZM6.167 5.106l2.12 2.122a.751.751 0 0 1-.018 1.042.751.751 0 0 1-1.042.018L5.106 6.166a.75.75 0 0 1 1.061-1.06Z"/></svg>