<svg xmlns="http://www.w3.org/2000/svg" viewBox="0 0 24 24"><path fill="#151E28" d="M8.903 5.25h8.928c.535 0 .98 0 1.345.03.38.03.736.098 1.074.27a2.75 2.75 0 0 1 1.2 1.202c.172.337.24.693.27 1.073.03.365.03.81.03 1.345v4.062c0 .813 0 1.469-.043 2-.045.546-.139 1.026-.365 1.47a3.749 3.749 0 0 1-1.64 1.639c-.444.226-.924.321-1.47.366-.531.043-1.187.043-2 .043H8.903c-.652 0-1.103 0-1.536-.103a3.73 3.73 0 0 1-1.083-.45c-.38-.232-.7-.552-1.16-1.012l-.06-.06-1.2-1.2-.023-.023c-.575-.575-1.038-1.039-1.383-1.445-.355-.418-.628-.824-.782-1.298a3.747 3.747 0 0 1 0-2.318c.154-.474.427-.88.782-1.298.345-.406.808-.87 1.383-1.445l.023-.023 1.2-1.2.06-.06c.461-.461.779-.78 1.159-1.012a3.745 3.745 0 0 1 1.084-.449c.433-.104.884-.104 1.536-.104ZM7.718 6.812h-.001a2.232 2.232 0 0 0-.65.27c-.209.128-.398.31-.943.854l-1.2 1.2c-.603.603-1.023 1.023-1.323 1.377-.294.348-.43.581-.498.792a2.246 2.246 0 0 0 0 1.39c.068.212.204.444.498.792.301.353.721.774 1.323 1.377l1.2 1.2c.545.544.733.726.943.854.201.124.421.215.651.27.238.057.5.062 1.27.062H16.2c.852 0 1.447-.001 1.909-.038.454-.037.715-.107.913-.207.423-.216.767-.56.983-.983.1-.198.169-.459.207-.912.038-.463.038-1.057.038-1.91v-4c0-.573-.001-.957-.025-1.253-.023-.287-.065-.424-.111-.514a1.247 1.247 0 0 0-.547-.547c-.09-.046-.227-.088-.515-.111-.295-.025-.68-.025-1.252-.025H8.988c-.77 0-1.032.005-1.27.062ZM10 9.25a2.75 2.75 0 1 1 0 5.5 2.75 2.75 0 0 1 0-5.5ZM8.75 12a1.25 1.25 0 1 0 2.5 0 1.25 1.25 0 0 0-2.5 0Z"/></svg>