<svg xmlns="http://www.w3.org/2000/svg" viewBox="0 0 24 24"><path fill="#151E28" d="M11.5 2.25h1a8.25 8.25 0 0 1 8.25 8.25v1a8.248 8.248 0 0 1-4.4 7.298.75.75 0 0 1-.7-1.326 6.75 6.75 0 0 0 3.6-5.972v-1a6.75 6.75 0 0 0-6.75-6.75h-1a6.75 6.75 0 0 0-6.75 6.75v1a6.75 6.75 0 0 0 3.6 5.972.75.75 0 1 1-.7 1.326 8.248 8.248 0 0 1-4.4-7.298v-1a8.25 8.25 0 0 1 8.25-8.25ZM12.75 6v4.19l1.72-1.72a.75.75 0 0 1 1.06 1.061l-2.78 2.78V22a.75.75 0 0 1-1.5 0v-6.69l-2.78-2.78a.751.751 0 0 1 .018-1.042.751.751 0 0 1 1.042-.018l1.72 1.72V6a.75.75 0 0 1 1.5 0Z"/></svg>