<svg xmlns="http://www.w3.org/2000/svg" viewBox="0 0 24 24"><path fill="#151E28" d="M13.117 2.479c.485.216.844.614 1.168 1.071.321.455.676 1.067 1.114 1.825l.019.033 5.45 9.413.02.033c.44.76.796 1.375 1.03 1.881.236.51.403 1.021.348 1.55a2.75 2.75 0 0 1-1.118 1.939c-.43.313-.955.424-1.515.475-.555.051-1.267.051-2.145.051H6.512c-.878 0-1.589 0-2.145-.051-.559-.051-1.085-.162-1.515-.475a2.749 2.749 0 0 1-1.119-1.938c-.054-.53.113-1.04.35-1.55.233-.507.59-1.122 1.03-1.882l.018-.033 5.45-9.413.02-.033c.438-.757.793-1.371 1.115-1.825.323-.457.682-.855 1.167-1.071a2.75 2.75 0 0 1 2.234 0Zm-1.625 1.37v.002c-.108.047-.273.173-.552.567-.277.392-.598.944-1.06 1.742l-5.45 9.412c-.464.801-.785 1.357-.987 1.793-.203.44-.23.647-.217.765.037.352.221.673.508.881.095.07.288.15.77.194.479.045 1.121.045 2.046.045h10.9c.926 0 1.567-.001 2.046-.045.482-.044.675-.124.77-.194.287-.208.471-.529.508-.881.012-.118-.014-.325-.218-.765-.201-.436-.522-.992-.986-1.793l-5.45-9.413c-.462-.798-.783-1.351-1.06-1.742-.279-.394-.444-.519-.552-.568a1.249 1.249 0 0 0-1.016 0Zm3.765 12.255-.005-.032a7.867 7.867 0 0 0-.106-.525 7.722 7.722 0 0 0-.404-1.25c-.419-.972-.962-1.547-1.63-1.547-.38 0-.847.168-1.38.508-.524.333-1.046.79-1.517 1.269-.23.233-.453.475-.667.723H11a.75.75 0 0 1 0 1.5H8a.75.75 0 0 1-.75-.75v-3a.75.75 0 0 1 1.5 0v.89c.126-.137.258-.277.397-.417.514-.522 1.125-1.064 1.778-1.48.644-.41 1.398-.743 2.186-.743 1.665 0 2.566 1.425 3.008 2.453a9.233 9.233 0 0 1 .615 2.135l.006.04.002.013v.005L16 16l.743-.103a.75.75 0 0 1-1.486.207Z"/></svg>