<svg xmlns="http://www.w3.org/2000/svg" viewBox="0 0 24 24"><path fill="#151E28" d="M8.367 3.25h7.266c1.092 0 1.958 0 2.655.057.714.058 1.317.18 1.869.461a4.744 4.744 0 0 1 2.076 2.076c.28.551.402 1.154.46 1.868.057.697.057 1.563.057 2.655v3.266c0 1.092 0 1.958-.057 2.655-.058.714-.18 1.317-.461 1.869a4.752 4.752 0 0 1-2.075 2.076c-.552.28-1.155.402-1.869.46-.697.057-1.563.057-2.655.057H8.367c-1.092 0-1.958 0-2.655-.057-.714-.058-1.318-.18-1.868-.461a4.75 4.75 0 0 1-2.077-2.075c-.28-.552-.402-1.155-.46-1.869-.057-.697-.057-1.563-.057-2.655v-3.266c0-1.092 0-1.958.057-2.655.058-.714.18-1.318.461-1.868a4.752 4.752 0 0 1 2.076-2.077c.551-.28 1.154-.402 1.868-.46.697-.057 1.563-.057 2.655-.057ZM4.525 5.104h-.001a3.258 3.258 0 0 0-1.42 1.42c-.155.305-.252.69-.302 1.31-.052.629-.052 1.434-.052 2.566v3.2c0 1.132.001 1.936.052 2.566.051.62.147 1.005.302 1.31a3.258 3.258 0 0 0 1.42 1.42c.305.155.69.252 1.31.302.629.052 1.434.052 2.566.052h7.2c1.133 0 1.936-.001 2.566-.052.62-.051 1.005-.147 1.31-.302a3.258 3.258 0 0 0 1.42-1.42c.155-.305.252-.69.302-1.31.052-.629.052-1.433.052-2.566v-3.2c0-1.132-.001-1.936-.052-2.566-.051-.62-.147-1.005-.302-1.31a3.258 3.258 0 0 0-1.42-1.42c-.305-.155-.69-.252-1.31-.302-.629-.052-1.433-.052-2.566-.052H8.4c-1.132 0-1.936.001-2.566.052-.621.051-1.005.147-1.309.302ZM4.25 15.667a3.417 3.417 0 0 1 3.417-3.417h2.666a3.417 3.417 0 0 1 3.417 3.417c0 1.15-.933 2.083-2.083 2.083H6.333a2.084 2.084 0 0 1-2.083-2.083ZM6.25 9a2.75 2.75 0 1 1 5.5 0 2.75 2.75 0 0 1-5.5 0Zm1.417 4.75a1.917 1.917 0 0 0-1.917 1.917c0 .322.261.583.583.583h5.334a.583.583 0 0 0 .583-.583 1.917 1.917 0 0 0-1.917-1.917ZM15 7.25h4a.75.75 0 0 1 0 1.5h-4a.75.75 0 0 1 0-1.5Zm.25 4.75a.75.75 0 0 1 .75-.75h3a.75.75 0 0 1 0 1.5h-3a.75.75 0 0 1-.75-.75ZM9 7.75a1.25 1.25 0 1 0 0 2.5 1.25 1.25 0 0 0 0-2.5ZM16.25 16a.75.75 0 0 1 .75-.75h2a.75.75 0 0 1 0 1.5h-2a.75.75 0 0 1-.75-.75Z"/></svg>