<svg xmlns="http://www.w3.org/2000/svg" viewBox="0 0 24 24"><path fill="#151E28" d="M2.25 19A4.75 4.75 0 0 1 7 14.25h6A4.75 4.75 0 0 1 17.75 19 2.75 2.75 0 0 1 15 21.75H5A2.75 2.75 0 0 1 2.25 19ZM10 3.25a4.75 4.75 0 1 1 0 9.5 4.75 4.75 0 0 1 0-9.5Zm-3 12.5A3.25 3.25 0 0 0 3.75 19c0 .69.56 1.25 1.25 1.25h10c.69 0 1.25-.56 1.25-1.25A3.25 3.25 0 0 0 13 15.75ZM6.75 8a3.25 3.25 0 1 0 6.5 0 3.25 3.25 0 0 0-6.5 0ZM16 3.25a4.75 4.75 0 0 1 0 9.5.75.75 0 0 1 0-1.5 3.25 3.25 0 1 0 0-6.5.75.75 0 0 1 0-1.5Zm2 11h1A4.75 4.75 0 0 1 23.75 19 2.75 2.75 0 0 1 21 21.75h-2a.75.75 0 0 1 0-1.5h2c.69 0 1.25-.56 1.25-1.25A3.25 3.25 0 0 0 19 15.75h-1a.75.75 0 0 1 0-1.5Z"/></svg>