<svg xmlns="http://www.w3.org/2000/svg" viewBox="0 0 24 24"><path fill="#151E28" d="M8.367 3.75h2.266c1.092 0 1.958 0 2.655.057.714.058 1.317.18 1.869.461a4.752 4.752 0 0 1 2.075 2.076c.163.326.28.672.348 1.03.174-.166.334-.313.483-.443.408-.355.826-.663 1.288-.775a2.75 2.75 0 0 1 2.998 1.242c.247.406.325.919.363 1.458.038.554.038 1.275.038 2.185v1.918c0 .909 0 1.631-.038 2.185-.038.538-.116 1.052-.363 1.458a2.75 2.75 0 0 1-2.998 1.242c-.462-.112-.88-.42-1.288-.775a14.726 14.726 0 0 1-.483-.442 3.959 3.959 0 0 1-.348 1.03 4.744 4.744 0 0 1-2.076 2.076c-.551.28-1.154.402-1.868.46-.697.057-1.563.057-2.655.057H8.367c-1.092 0-1.958 0-2.655-.057-.714-.058-1.318-.18-1.868-.461a4.75 4.75 0 0 1-2.077-2.075c-.28-.552-.402-1.155-.46-1.869-.057-.697-.057-1.563-.057-2.655v-2.266c0-1.092 0-1.958.057-2.655.058-.714.18-1.318.461-1.868a4.752 4.752 0 0 1 2.076-2.077c.551-.28 1.154-.402 1.868-.46.697-.057 1.563-.057 2.655-.057ZM4.525 5.603h-.001a3.258 3.258 0 0 0-1.42 1.42c-.155.305-.252.69-.302 1.31-.052.629-.052 1.434-.052 2.566v2.2c0 1.132.001 1.936.052 2.566.051.62.147 1.005.302 1.31a3.258 3.258 0 0 0 1.42 1.42c.305.155.69.252 1.31.302.629.052 1.434.052 2.566.052h2.2c1.132 0 1.936-.001 2.566-.052.62-.051 1.005-.147 1.31-.302a3.258 3.258 0 0 0 1.42-1.42c.155-.305.252-.69.302-1.31.052-.629.052-1.433.052-2.566v-2.2c0-1.132-.001-1.936-.052-2.566-.051-.62-.147-1.005-.302-1.31a3.258 3.258 0 0 0-1.42-1.42c-.305-.155-.69-.252-1.31-.302-.629-.052-1.433-.052-2.566-.052H8.4c-1.132 0-1.936.001-2.566.052-.621.051-1.005.147-1.309.302ZM17.742 9.32c.008.458.008.97.008 1.547v2.266c0 .576 0 1.09-.008 1.548.56.559.972.966 1.306 1.257.39.339.574.428.657.448a1.249 1.249 0 0 0 1.363-.564c.044-.073.112-.267.147-.782.035-.495.035-1.165.035-2.111V11.07c0-.946 0-1.616-.035-2.111-.035-.515-.103-.709-.148-.782a1.25 1.25 0 0 0-1.362-.564c-.083.02-.268.11-.657.448-.334.29-.747.698-1.306 1.257Z"/></svg>