<svg viewBox="0 0 24 24" fill="none" xmlns="http://www.w3.org/2000/svg"><path fill-rule="evenodd" clip-rule="evenodd" d="M8.4 2.25h-.033c-1.092 0-1.958 0-2.655.057-.714.058-1.317.18-1.868.46a4.75 4.75 0 0 0-2.076 2.077c-.281.55-.403 1.154-.461 1.868-.057.697-.057 1.563-.057 2.655v2.728c0 .838 0 1.372.091 1.832a4.75 4.75 0 0 0 3.732 3.732c.277.055.564.075.908.084a.75.75 0 1 0 .038-1.5 3.882 3.882 0 0 1-.653-.055 3.25 3.25 0 0 1-2.554-2.554c-.058-.296-.062-.669-.062-1.634V9.4c0-1.132 0-1.937.052-2.566.05-.62.147-1.005.302-1.31a3.25 3.25 0 0 1 1.42-1.42c.305-.155.69-.251 1.31-.302.63-.051 1.434-.052 2.566-.052h7.2c1.133 0 1.937 0 2.566.052.62.05 1.005.147 1.31.302l.338-.664-.338.664a3.25 3.25 0 0 1 1.42 1.42c.155.305.251.69.302 1.31.051.63.052 1.434.052 2.566V12c0 .965-.004 1.338-.063 1.634a3.25 3.25 0 0 1-2.553 2.554c-.152.03-.34.047-.653.055a.75.75 0 0 0 .038 1.5c.344-.009.631-.03.908-.084a4.75 4.75 0 0 0 3.732-3.732c.091-.46.091-.994.091-1.832V9.367c0-1.092 0-1.958-.057-2.655-.058-.714-.18-1.317-.46-1.868a4.75 4.75 0 0 0-2.077-2.076c-.55-.281-1.154-.403-1.868-.461-.697-.057-1.563-.057-2.655-.057H8.4Zm4.944 13.192a1.75 1.75 0 0 0-2.688 0L7.79 18.88c-.95 1.14-.14 2.87 1.344 2.87h5.73c1.484 0 2.294-1.73 1.344-2.87l-2.865-3.438Zm-1.536.96a.25.25 0 0 1 .384 0l2.865 3.438a.25.25 0 0 1-.192.41h-5.73a.25.25 0 0 1-.192-.41l2.865-3.438Z" fill="#151E28"/></svg>