<svg viewBox="0 0 24 24" fill="none" xmlns="http://www.w3.org/2000/svg"><path fill-rule="evenodd" clip-rule="evenodd" d="M5.53 2.53a.75.75 0 0 0-1.06-1.06l-3 3a.75.75 0 0 0 1.06 1.06l3-3Zm14-1.06a.75.75 0 1 0-1.06 1.06l3 3a.75.75 0 1 0 1.06-1.06l-3-3ZM12 3.75a8.25 8.25 0 1 0 0 16.5 8.25 8.25 0 0 0 0-16.5ZM2.25 12c0-5.385 4.365-9.75 9.75-9.75s9.75 4.365 9.75 9.75-4.365 9.75-9.75 9.75S2.25 17.385 2.25 12ZM12 7.25a.75.75 0 0 1 .75.75v3.25H16a.75.75 0 0 1 0 1.5h-3.25V16a.75.75 0 0 1-1.5 0v-3.25H8a.75.75 0 0 1 0-1.5h3.25V8a.75.75 0 0 1 .75-.75Z" fill="#151E28"/></svg>