<svg viewBox="0 0 24 24" fill="none" xmlns="http://www.w3.org/2000/svg"><path fill-rule="evenodd" clip-rule="evenodd" d="M21 2.25a.75.75 0 0 1 .75.75v18a.75.75 0 0 1-1.5 0V3a.75.75 0 0 1 .75-.75Zm-15.025 1h8.05c.445 0 .816 0 1.12.02.318.022.617.069.907.19a2.75 2.75 0 0 1 1.489 1.488c.12.29.167.59.188.907.021.304.021.675.021 1.12v.05c0 .445 0 .816-.02 1.12a2.822 2.822 0 0 1-.19.907 2.75 2.75 0 0 1-1.488 1.489c-.29.12-.59.167-.907.188-.304.021-.675.021-1.12.021h-8.05c-.445 0-.816 0-1.12-.02a2.824 2.824 0 0 1-.907-.19 2.75 2.75 0 0 1-1.489-1.488c-.12-.29-.167-.59-.188-.907-.021-.304-.021-.675-.021-1.12v-.05c0-.445 0-.816.02-1.12.022-.317.069-.617.19-.907a2.75 2.75 0 0 1 1.488-1.489c.29-.12.59-.167.907-.188.304-.021.675-.021 1.12-.021ZM4.957 4.767c-.241.017-.358.046-.435.078a1.25 1.25 0 0 0-.677.677c-.032.077-.061.194-.078.435-.017.247-.017.567-.017 1.043s0 .796.017 1.043c.017.241.046.358.078.435.127.307.37.55.677.677.077.032.194.061.435.078.247.017.567.017 1.043.017h8c.476 0 .796 0 1.043-.017.241-.017.358-.046.435-.078.307-.127.55-.37.677-.677.032-.077.061-.194.078-.435.017-.247.017-.567.017-1.043s0-.796-.017-1.043c-.017-.241-.046-.358-.078-.435a1.25 1.25 0 0 0-.677-.677c-.077-.032-.194-.061-.435-.078A17.083 17.083 0 0 0 14 4.75H6c-.476 0-.796 0-1.043.017ZM10 13.25h-.025c-.445 0-.816 0-1.12.02a2.822 2.822 0 0 0-.907.19 2.75 2.75 0 0 0-1.489 1.488c-.12.29-.167.59-.188.907-.021.304-.021.675-.021 1.12v.05c0 .445 0 .816.02 1.12.022.317.07.617.19.907a2.75 2.75 0 0 0 1.488 1.489c.29.12.59.167.907.188.304.021.675.021 1.12.021h4.05c.445 0 .816 0 1.12-.02.318-.022.617-.07.907-.19a2.75 2.75 0 0 0 1.489-1.488c.12-.29.167-.59.188-.907.021-.304.021-.675.021-1.12v-.05c0-.445 0-.816-.02-1.12a2.822 2.822 0 0 0-.19-.907 2.75 2.75 0 0 0-1.488-1.489c-.29-.12-.59-.167-.907-.188-.304-.021-.675-.021-1.12-.021H10Zm-1.478 1.595c.077-.032.194-.061.435-.078A17.07 17.07 0 0 1 10 14.75h4c.476 0 .796 0 1.043.017.241.017.358.046.435.078.307.127.55.37.677.677.032.077.061.194.078.435.017.247.017.567.017 1.043s0 .796-.017 1.043c-.017.241-.046.358-.078.435a1.25 1.25 0 0 1-.677.677c-.077.032-.194.061-.435.078-.247.017-.567.017-1.043.017h-4c-.476 0-.796 0-1.043-.017-.241-.017-.358-.046-.435-.078a1.25 1.25 0 0 1-.677-.677c-.032-.077-.061-.194-.078-.435A17.091 17.091 0 0 1 7.75 17c0-.476 0-.796.017-1.043.017-.241.046-.358.078-.435.127-.307.37-.55.677-.677Z" fill="#151E28"/></svg>