<svg viewBox="0 0 24 24" fill="none" xmlns="http://www.w3.org/2000/svg"><path fill-rule="evenodd" clip-rule="evenodd" d="M19.75 5a.75.75 0 0 0-.75-.75h-4a.75.75 0 0 0 0 1.5h2.19l-3.72 3.72a.75.75 0 1 0 1.06 1.06l3.72-3.72V9a.75.75 0 0 0 1.5 0V5Zm-10 0A.75.75 0 0 0 9 4.25H5a.75.75 0 0 0-.75.75v4a.75.75 0 0 0 1.5 0V6.81l3.72 3.72a.75.75 0 1 0 1.06-1.06L6.81 5.75H9A.75.75 0 0 0 9.75 5Zm3.72 8.47a.75.75 0 0 0 0 1.06l3.72 3.72H15a.75.75 0 0 0 0 1.5h4a.75.75 0 0 0 .75-.75v-4a.75.75 0 0 0-1.5 0v2.19l-3.72-3.72a.75.75 0 0 0-1.06 0Zm-2.94 0a.75.75 0 0 0-1.06 0l-3.72 3.72V15a.75.75 0 0 0-1.5 0v4c0 .414.336.75.75.75h4a.75.75 0 0 0 0-1.5H6.81l3.72-3.72a.75.75 0 0 0 0-1.06Z" fill="#151E28"/></svg>