<svg viewBox="0 0 24 24" fill="none" xmlns="http://www.w3.org/2000/svg"><path fill-rule="evenodd" clip-rule="evenodd" d="M16.25 14.111a2.139 2.139 0 0 1-2.139 2.139.75.75 0 0 0 0 1.5 3.64 3.64 0 0 0 3.64-3.639v-2.343c0-.813 0-1.469-.044-2-.045-.546-.14-1.026-.366-1.47a3.75 3.75 0 0 0-1.638-1.64c-.445-.226-.925-.32-1.471-.365-.531-.043-1.187-.043-2-.043H9.89a3.639 3.639 0 0 0-3.64 3.639.75.75 0 0 0 1.5 0A2.14 2.14 0 0 1 9.889 7.75H12.2c.853 0 1.447 0 1.91.038.453.037.714.107.912.207.423.216.767.56.983.984.1.197.17.458.207.912.038.462.038 1.057.038 1.909v2.311ZM10 17.751a.75.75 0 0 0 0-1.5H8.81l3.72-3.72a.75.75 0 0 0-1.06-1.061l-3.72 3.72V14a.75.75 0 0 0-1.5 0v3c0 .414.336.75.75.75h3Z" fill="#151E28"/></svg>