<svg viewBox="0 0 24 24" fill="none" xmlns="http://www.w3.org/2000/svg"><path fill-rule="evenodd" clip-rule="evenodd" d="M7.8 21.75h-.032c-.813 0-1.469 0-2-.043-.546-.045-1.026-.14-1.47-.366a3.75 3.75 0 0 1-1.64-1.639c-.226-.444-.32-.924-.365-1.47-.043-.531-.043-1.187-.043-2V7.768c0-.813 0-1.469.043-2 .045-.546.14-1.026.366-1.47a3.75 3.75 0 0 1 1.639-1.64c.444-.226.924-.32 1.47-.365.531-.043 1.187-.043 2-.043h8.464c.813 0 1.469 0 2 .043.546.045 1.026.14 1.47.366a3.75 3.75 0 0 1 1.64 1.639c.226.444.32.924.365 1.47.043.531.043 1.187.043 2V10a.75.75 0 0 1-1.5 0V7.8c0-.852 0-1.447-.038-1.91-.038-.453-.107-.714-.207-.911a2.25 2.25 0 0 0-.983-.984c-.198-.1-.459-.17-.913-.207-.462-.037-1.057-.038-1.909-.038H7.8c-.852 0-1.447 0-1.91.038-.453.037-.714.107-.911.207a2.25 2.25 0 0 0-.984.984l-.668-.341.668.34c-.1.198-.17.459-.207.913-.037.462-.038 1.057-.038 1.909v8.4c0 .852 0 1.447.038 1.91.037.453.107.714.207.912.216.423.56.767.984.983.197.1.458.17.912.207.462.037 1.057.038 1.909.038H10a.75.75 0 0 1 0 1.5H7.8Zm6.45-.75a.75.75 0 0 1 .75-.75h4.19l-9.44-9.44V15a.75.75 0 0 1-1.5 0V9A.75.75 0 0 1 9 8.25h6a.75.75 0 0 1 0 1.5h-4.19l9.44 9.44V15a.75.75 0 0 1 1.5 0v6a.75.75 0 0 1-.75.75h-6a.75.75 0 0 1-.75-.75Z" fill="#151E28"/></svg>