<svg viewBox="0 0 24 24" fill="none" xmlns="http://www.w3.org/2000/svg"><path fill-rule="evenodd" clip-rule="evenodd" d="M14 6.25a.75.75 0 1 0 0 1.5h1.19l-3.72 3.72a.75.75 0 0 0 1.06 1.06l3.72-3.72V10a.75.75 0 0 0 1.5 0V7a.75.75 0 0 0-.75-.75h-3ZM7.75 9.889A2.14 2.14 0 0 1 9.889 7.75a.75.75 0 0 0 0-1.5A3.639 3.639 0 0 0 6.25 9.889v2.343c0 .813 0 1.469.043 2 .045.546.14 1.026.366 1.47a3.75 3.75 0 0 0 1.639 1.64c.444.226.924.32 1.47.365.532.043 1.187.043 2 .043h2.343a3.64 3.64 0 0 0 3.64-3.639.75.75 0 1 0-1.5 0 2.139 2.139 0 0 1-2.14 2.139h-2.31c-.853 0-1.448 0-1.91-.038-.454-.037-.715-.107-.912-.207a2.25 2.25 0 0 1-.984-.983c-.1-.198-.17-.459-.207-.913-.037-.462-.038-1.056-.038-1.909V9.889Z" fill="#151E28"/></svg>