<svg viewBox="0 0 24 24" fill="none" xmlns="http://www.w3.org/2000/svg"><path fill-rule="evenodd" clip-rule="evenodd" d="M2.75 12a9.25 9.25 0 1 1 18.5 0 9.25 9.25 0 0 1-18.5 0ZM12 1.25C6.063 1.25 1.25 6.063 1.25 12S6.063 22.75 12 22.75 22.75 17.937 22.75 12 17.937 1.25 12 1.25Zm-.172 14.054a.25.25 0 0 0 .344 0l2.49-2.36a.25.25 0 0 0-.171-.43h-.99a.75.75 0 0 1-.75-.75V8.5a.25.25 0 0 0-.25-.25h-1a.25.25 0 0 0-.25.25v3.263a.75.75 0 0 1-.75.75H9.51a.25.25 0 0 0-.172.432l2.49 2.359Zm1.376 1.089a1.75 1.75 0 0 1-2.408 0l-2.49-2.36c-1.148-1.087-.378-3.02 1.204-3.02h.24V8.5c0-.966.784-1.75 1.75-1.75h1c.967 0 1.75.784 1.75 1.75v2.513h.24c1.583 0 2.353 1.933 1.204 3.02l-2.49 2.36Z" fill="#151E28"/></svg>