<svg viewBox="0 0 24 24" fill="none" xmlns="http://www.w3.org/2000/svg"><path fill-rule="evenodd" clip-rule="evenodd" d="M2.75 12a9.25 9.25 0 1 1 18.5 0 9.25 9.25 0 0 1-18.5 0ZM12 1.25C6.063 1.25 1.25 6.063 1.25 12S6.063 22.75 12 22.75 22.75 17.937 22.75 12 17.937 1.25 12 1.25Zm4 6a.75.75 0 0 1 .75.75v2.286a.75.75 0 0 1-1.5 0V9.81L13.06 12l2.19 2.19v-.476a.75.75 0 0 1 1.5 0V16a.75.75 0 0 1-.75.75h-2.286a.75.75 0 0 1 0-1.5h.475L12 13.06l-2.19 2.19h.476a.75.75 0 0 1 0 1.5H8a.75.75 0 0 1-.75-.75v-2.286a.75.75 0 0 1 1.5 0v.475L10.94 12 8.75 9.81v.476a.75.75 0 0 1-1.5 0V8A.75.75 0 0 1 8 7.25h2.286a.75.75 0 0 1 0 1.5H9.81L12 10.94l2.19-2.19h-.476a.75.75 0 0 1 0-1.5H16Z" fill="#151E28"/></svg>