<svg viewBox="0 0 24 24" fill="none" xmlns="http://www.w3.org/2000/svg"><path fill-rule="evenodd" clip-rule="evenodd" d="M2.75 12a9.25 9.25 0 1 1 18.5 0 9.25 9.25 0 0 1-18.5 0ZM12 1.25C6.063 1.25 1.25 6.063 1.25 12S6.063 22.75 12 22.75 22.75 17.937 22.75 12 17.937 1.25 12 1.25ZM9.803 8.136 11.47 6.47a.75.75 0 0 1 1.06 0l1.667 1.666a.75.75 0 1 1-1.06 1.061l-.387-.386v1.522a.75.75 0 0 1-1.5 0V8.811l-.386.386a.75.75 0 0 1-1.061-1.06Zm5.386 3.114-.386-.386a.75.75 0 0 1 1.06-1.061l1.667 1.667a.75.75 0 0 1 0 1.06l-1.666 1.667a.75.75 0 0 1-1.061-1.06l.386-.387h-1.522a.75.75 0 0 1 0-1.5h1.522ZM8.136 9.803a.75.75 0 1 1 1.061 1.06l-.386.387h1.522a.75.75 0 0 1 0 1.5H8.811l.386.386a.75.75 0 0 1-1.06 1.061L6.47 12.53a.75.75 0 0 1 0-1.06l1.666-1.667Zm4.614 3.864v1.522l.386-.386a.75.75 0 0 1 1.061 1.06L12.53 17.53a.75.75 0 0 1-1.06 0l-1.667-1.666a.75.75 0 0 1 1.06-1.061l.387.386v-1.522a.75.75 0 0 1 1.5 0Z" fill="#151E28"/></svg>