<svg viewBox="0 0 24 24" fill="none" xmlns="http://www.w3.org/2000/svg"><path fill-rule="evenodd" clip-rule="evenodd" d="M2.75 12a9.25 9.25 0 1 1 18.5 0 9.25 9.25 0 0 1-18.5 0ZM12 1.25C6.063 1.25 1.25 6.063 1.25 12S6.063 22.75 12 22.75 22.75 17.937 22.75 12 17.937 1.25 12 1.25Zm1.445 13.412 2.359-2.49a.25.25 0 0 0 0-.344l-2.36-2.49a.25.25 0 0 0-.43.172v.99a.75.75 0 0 1-.75.75H9a.25.25 0 0 0-.25.25v1c0 .138.112.25.25.25h3.263a.75.75 0 0 1 .75.75v.99a.25.25 0 0 0 .432.172Zm3.448-3.866a1.75 1.75 0 0 1 0 2.408l-2.36 2.49c-1.087 1.148-3.02.378-3.02-1.204v-.24H9a1.75 1.75 0 0 1-1.75-1.75v-1c0-.966.784-1.75 1.75-1.75h2.513v-.24c0-1.582 1.933-2.352 3.02-1.204l2.36 2.49Z" fill="#151E28"/></svg>