<svg viewBox="0 0 24 24" fill="none" xmlns="http://www.w3.org/2000/svg"><path fill-rule="evenodd" clip-rule="evenodd" d="M9.4 2.25h-.033c-1.092 0-1.958 0-2.655.057-.714.058-1.317.18-1.868.46a4.75 4.75 0 0 0-2.076 2.077c-.281.55-.403 1.154-.461 1.868-.057.697-.057 1.563-.057 2.655v5.266c0 1.092 0 1.958.057 2.655.058.714.18 1.317.46 1.869a4.75 4.75 0 0 0 2.077 2.075c.55.281 1.154.403 1.868.461.697.057 1.563.057 2.655.057h5.266c1.092 0 1.958 0 2.655-.057.714-.058 1.317-.18 1.869-.46a4.75 4.75 0 0 0 2.075-2.076c.281-.552.403-1.155.461-1.869.057-.697.057-1.563.057-2.655V9.367c0-1.092 0-1.958-.057-2.655-.058-.714-.18-1.317-.46-1.868a4.75 4.75 0 0 0-2.076-2.076c-.552-.281-1.155-.403-1.869-.461-.697-.057-1.563-.057-2.655-.057H9.4ZM5.525 4.104c.304-.155.688-.251 1.309-.302.63-.051 1.434-.052 2.566-.052h5.2c1.133 0 1.937 0 2.566.052.62.05 1.005.147 1.31.302a3.25 3.25 0 0 1 1.42 1.42c.155.305.251.69.302 1.31.051.63.052 1.434.052 2.566v5.2c0 1.133 0 1.937-.052 2.566-.05.62-.147 1.005-.302 1.31a3.25 3.25 0 0 1-1.42 1.42c-.305.155-.69.251-1.31.302-.63.051-1.434.052-2.566.052H9.4c-1.132 0-1.937 0-2.566-.052-.62-.05-1.005-.147-1.31-.302a3.25 3.25 0 0 1-1.42-1.42c-.155-.305-.251-.69-.302-1.31-.051-.63-.052-1.434-.052-2.566V9.4c0-1.132 0-1.937.052-2.566.05-.62.147-1.005.302-1.31a3.25 3.25 0 0 1 1.42-1.42ZM15.25 16a.75.75 0 0 0 1.5 0v-.232c0-.813 0-1.469-.043-2-.045-.546-.14-1.026-.366-1.47a3.75 3.75 0 0 0-1.639-1.64c-.444-.226-.924-.32-1.47-.365-.4-.032-.869-.04-1.422-.042l.72-.72a.75.75 0 0 0-1.06-1.061l-2 2a.75.75 0 0 0 0 1.06l2 2a.75.75 0 0 0 1.06-1.06l-.718-.72c.539.003.954.01 1.297.038.454.037.715.107.912.207.424.216.768.56.984.984.1.197.17.458.207.912.037.462.038 1.056.038 1.909v.2Zm-6.78-2.47a.75.75 0 0 0 1.06-1.06L8.06 11l1.47-1.47a.75.75 0 1 0-1.06-1.06l-2 2a.75.75 0 0 0 0 1.06l2 2Z" fill="#151E28"/></svg>