<svg viewBox="0 0 24 24" fill="none" xmlns="http://www.w3.org/2000/svg"><path fill-rule="evenodd" clip-rule="evenodd" d="M12.53 5.47a.75.75 0 0 0-1.06 0l-2 2a.75.75 0 0 0 1.06 1.06l.72-.72V10a.75.75 0 0 0 1.5 0V7.81l.72.72a.75.75 0 1 0 1.06-1.06l-2-2Zm2.94 4a.75.75 0 0 0 0 1.06l.72.72H14a.75.75 0 0 0 0 1.5h2.19l-.72.72a.75.75 0 1 0 1.06 1.06l2-2a.75.75 0 0 0 0-1.06l-2-2a.75.75 0 0 0-1.06 0Zm-6.94 0a.75.75 0 0 0-1.06 0l-2 2a.75.75 0 0 0 0 1.06l2 2a.75.75 0 0 0 1.06-1.06l-.72-.72H10a.75.75 0 0 0 0-1.5H7.81l.72-.72a.75.75 0 0 0 0-1.06Zm4.22 6.72V14a.75.75 0 0 0-1.5 0v2.19l-.72-.72a.75.75 0 1 0-1.06 1.06l2 2a.75.75 0 0 0 1.06 0l2-2a.75.75 0 1 0-1.06-1.06l-.72.72Z" fill="#151E28"/></svg>