<svg viewBox="0 0 24 24" fill="none" xmlns="http://www.w3.org/2000/svg"><path fill-rule="evenodd" clip-rule="evenodd" d="M12 2.75a9.25 9.25 0 1 0 0 18.5 9.25 9.25 0 0 0 0-18.5ZM1.25 12C1.25 6.063 6.063 1.25 12 1.25S22.75 6.063 22.75 12 17.937 22.75 12 22.75 1.25 17.937 1.25 12Zm11.38-5.13a.75.75 0 0 0-1.06 0l-1.6 1.6a.75.75 0 0 0 0 1.06l1.6 1.6a.75.75 0 0 0 1.06-1.06l-.303-.304A3.25 3.25 0 1 1 8.75 13a.75.75 0 0 0-1.5 0 4.75 4.75 0 1 0 5.051-4.74l.33-.33a.75.75 0 0 0 0-1.06Z" fill="#151E28"/></svg>