<svg viewBox="0 0 24 24" fill="none" xmlns="http://www.w3.org/2000/svg"><path fill-rule="evenodd" clip-rule="evenodd" d="M2.75 12a9.25 9.25 0 1 1 18.5 0 9.25 9.25 0 0 1-18.5 0ZM12 1.25C6.063 1.25 1.25 6.063 1.25 12S6.063 22.75 12 22.75 22.75 17.937 22.75 12 17.937 1.25 12 1.25ZM9.75 16a.75.75 0 0 1-1.5 0v-.232c0-.813 0-1.469.043-2 .045-.546.14-1.026.366-1.47a3.75 3.75 0 0 1 1.638-1.64c.445-.226.925-.32 1.471-.365.531-.043 1.187-.043 2-.043h.422l-.72-.72a.75.75 0 0 1 1.06-1.06l2 2a.75.75 0 0 1 0 1.06l-2 2a.75.75 0 1 1-1.06-1.06l.72-.72h-.39c-.853 0-1.447 0-1.91.038-.453.037-.714.107-.912.207-.423.216-.767.56-.983.984-.1.197-.17.458-.207.912-.037.462-.038 1.056-.038 1.909v.2Z" fill="#151E28"/></svg>