<svg viewBox="0 0 24 24" fill="none" xmlns="http://www.w3.org/2000/svg"><path fill-rule="evenodd" clip-rule="evenodd" d="M17.75 7a.75.75 0 0 0-.75-.75h-2.857a.75.75 0 1 0 0 1.5h1.046L12 10.94 8.81 7.75h1.047a.75.75 0 1 0 0-1.5H7a.75.75 0 0 0-.75.75v2.857a.75.75 0 1 0 1.5 0V8.811L10.94 12l-3.19 3.19v-1.047a.75.75 0 1 0-1.5 0V17c0 .414.336.75.75.75h2.857a.75.75 0 1 0 0-1.5H8.811L12 13.06l3.19 3.19h-1.047a.75.75 0 1 0 0 1.5H17a.75.75 0 0 0 .75-.75v-2.857a.75.75 0 1 0-1.5 0v1.046L13.06 12l3.19-3.19v1.047a.75.75 0 1 0 1.5 0V7Z" fill="#151E28"/></svg>