<svg viewBox="0 0 24 24" fill="none" xmlns="http://www.w3.org/2000/svg"><path fill-rule="evenodd" clip-rule="evenodd" d="M12 2.75a9.25 9.25 0 1 0 0 18.5 9.25 9.25 0 0 0 0-18.5ZM1.25 12C1.25 6.063 6.063 1.25 12 1.25S22.75 6.063 22.75 12 17.937 22.75 12 22.75 1.25 17.937 1.25 12Zm12.803-3.225c-.296-.024-.68-.025-1.253-.025h-1.689c-.53 0-.885 0-1.16.021-.266.02-.395.057-.48.096a1.25 1.25 0 0 0-.604.605.75.75 0 1 1-1.36-.634 2.75 2.75 0 0 1 1.33-1.33c.318-.148.65-.206 1.001-.232.338-.026.75-.026 1.245-.026h1.747c.535 0 .98 0 1.345.03.38.03.736.098 1.073.27a2.75 2.75 0 0 1 1.202 1.2c.172.338.24.694.27 1.074.03.365.03.81.03 1.344v1.748c0 .494 0 .907-.026 1.245-.026.352-.084.683-.232 1a2.75 2.75 0 0 1-1.33 1.33.75.75 0 0 1-.634-1.36 1.25 1.25 0 0 0 .605-.604c.04-.085.076-.213.096-.48.02-.274.021-.63.021-1.16V11.2c0-.572 0-.957-.025-1.253-.023-.287-.065-.424-.111-.515a1.25 1.25 0 0 0-.546-.546c-.091-.046-.228-.088-.515-.111ZM9.6 11.25a.75.75 0 0 0 0 1.5h.59l-2.72 2.72a.75.75 0 0 0 1.06 1.06l2.72-2.72v.59a.75.75 0 0 0 1.5 0V12a.75.75 0 0 0-.75-.75H9.6Z" fill="#151E28"/></svg>