<svg viewBox="0 0 24 24" fill="none" xmlns="http://www.w3.org/2000/svg"><path fill-rule="evenodd" clip-rule="evenodd" d="M16.79 11.827a.25.25 0 0 1 0 .347l-3.4 3.523a.25.25 0 0 1-.43-.173V13.8a.75.75 0 0 0-.75-.75H8a.25.25 0 0 1-.25-.25v-1.6a.25.25 0 0 1 .25-.25h4.21a.75.75 0 0 0 .75-.75V8.477a.25.25 0 0 1 .43-.174l3.4 3.524Zm1.08 1.388a1.75 1.75 0 0 0 0-2.43l-3.4-3.523c-1.093-1.133-3.01-.36-3.01 1.215v.973H8a1.75 1.75 0 0 0-1.75 1.75v1.6c0 .967.784 1.75 1.75 1.75h3.46v.974c0 1.574 1.917 2.348 3.01 1.215l3.4-3.524Z" fill="#151E28"/></svg>