<svg viewBox="0 0 24 24" fill="none" xmlns="http://www.w3.org/2000/svg"><path fill-rule="evenodd" clip-rule="evenodd" d="M13.111 17.75h.103c.727 0 1.223 0 1.65-.101a3.75 3.75 0 0 0 2.785-2.784c.101-.428.101-.924.101-1.65v-1.447c0-.813 0-1.469-.043-2-.045-.546-.14-1.026-.366-1.47a3.75 3.75 0 0 0-1.638-1.64c-.445-.226-.925-.32-1.471-.365-.531-.043-1.187-.043-2-.043h-1.446c-.727 0-1.223 0-1.65.101A3.75 3.75 0 0 0 6.35 9.135c-.101.428-.101.924-.1 1.651v.103a.75.75 0 0 0 1.5 0c0-.87.004-1.173.06-1.408a2.25 2.25 0 0 1 1.67-1.67c.235-.056.539-.061 1.408-.061H12.2c.853 0 1.447 0 1.91.038.453.037.714.107.912.207.423.216.767.56.983.984.1.197.17.458.207.912.038.462.038 1.057.038 1.909v1.311c0 .87-.005 1.173-.06 1.408a2.25 2.25 0 0 1-1.671 1.67c-.234.056-.539.061-1.408.061a.75.75 0 0 0 0 1.5Zm-4.11 0a.75.75 0 0 0 0-1.5h-.19l2.44-2.44V14a.75.75 0 0 0 1.5 0v-2a.75.75 0 0 0-.75-.75h-2a.75.75 0 0 0 0 1.5h.189l-2.44 2.44V15a.75.75 0 0 0-1.5 0v2c0 .414.336.75.75.75h2Z" fill="#151E28"/></svg>