<svg viewBox="0 0 24 24" fill="none" xmlns="http://www.w3.org/2000/svg"><path fill-rule="evenodd" clip-rule="evenodd" d="M2.75 12a9.25 9.25 0 1 1 18.5 0 9.25 9.25 0 0 1-18.5 0ZM12 1.25C6.063 1.25 1.25 6.063 1.25 12S6.063 22.75 12 22.75 22.75 17.937 22.75 12 17.937 1.25 12 1.25ZM6.45 9.51a.75.75 0 0 1 1.1-1.02l2.223 2.4a.764.764 0 0 0 1.121 0 2.264 2.264 0 0 1 3.323 0l2.033 2.196V11.4a.75.75 0 0 1 1.5 0V15a.75.75 0 0 1-.75.75h-3.333a.75.75 0 0 1 0-1.5h1.616l-2.167-2.34a.764.764 0 0 0-1.121 0 2.264 2.264 0 0 1-3.323 0L6.45 9.51Z" fill="#151E28"/></svg>