<svg viewBox="0 0 24 24" fill="none" xmlns="http://www.w3.org/2000/svg"><path fill-rule="evenodd" clip-rule="evenodd" d="M16.903 18.75a.75.75 0 0 1-.74-.76l.006-.519c.014-1.145.024-1.959-.02-2.596-.044-.628-.137-1.017-.29-1.325a3.25 3.25 0 0 0-1.423-1.44c-.306-.158-.694-.256-1.322-.307-.58-.048-1.31-.053-2.303-.053l1.72 1.72a.75.75 0 1 1-1.061 1.06l-3-3a.75.75 0 0 1 0-1.06l3-3a.75.75 0 1 1 1.06 1.06l-1.72 1.72c.985 0 1.778.005 2.427.058.72.059 1.33.183 1.885.468A4.75 4.75 0 0 1 17.2 12.88c.278.558.394 1.17.444 1.89.049.706.038 1.581.024 2.686v.033l-.007.52a.75.75 0 0 1-.76.74ZM9.53 14.53a.75.75 0 0 1-1.06 0l-3-3a.75.75 0 0 1 0-1.06l3-3a.75.75 0 0 1 1.06 1.06L7.06 11l2.47 2.47a.75.75 0 0 1 0 1.06Z" fill="#151E28"/></svg>