<svg viewBox="0 0 24 24" fill="none" xmlns="http://www.w3.org/2000/svg"><path fill-rule="evenodd" clip-rule="evenodd" d="M15.25 15a.25.25 0 0 1-.25.25h-4.638a.25.25 0 0 1-.18-.424l1.041-1.074a.75.75 0 0 0-.008-1.052l-1.563-1.563a.25.25 0 0 1 0-.354l1.131-1.131a.25.25 0 0 1 .354 0l1.563 1.563a.75.75 0 0 0 1.052.008l1.074-1.04a.25.25 0 0 1 .424.179V15ZM15 16.75A1.75 1.75 0 0 0 16.75 15v-4.638c0-1.546-1.858-2.333-2.968-1.257l-.544.527-1.04-1.041a1.75 1.75 0 0 0-2.476 0L8.591 9.722a1.75 1.75 0 0 0 0 2.475l1.041 1.041-.527.544c-1.076 1.11-.29 2.968 1.257 2.968H15Zm-8.53-6.674a.75.75 0 0 0 1.06 0l2.546-2.546a.75.75 0 0 0-1.06-1.06L6.47 9.015a.75.75 0 0 0 0 1.06Z" fill="#151E28"/></svg>