<svg viewBox="0 0 24 24" fill="none" xmlns="http://www.w3.org/2000/svg"><path fill-rule="evenodd" clip-rule="evenodd" d="M9.4 2.25h-.033c-1.092 0-1.958 0-2.655.057-.714.058-1.317.18-1.868.46a4.75 4.75 0 0 0-2.076 2.077c-.281.55-.403 1.154-.461 1.868-.057.697-.057 1.563-.057 2.655v5.266c0 1.092 0 1.958.057 2.655.058.714.18 1.317.46 1.869a4.75 4.75 0 0 0 2.077 2.075c.55.281 1.154.403 1.868.461.697.057 1.563.057 2.655.057h5.266c1.092 0 1.958 0 2.655-.057.714-.058 1.317-.18 1.869-.46a4.75 4.75 0 0 0 2.075-2.076c.281-.552.403-1.155.461-1.869.057-.697.057-1.563.057-2.655V9.367c0-1.092 0-1.958-.057-2.655-.058-.714-.18-1.317-.46-1.868a4.75 4.75 0 0 0-2.076-2.076c-.552-.281-1.155-.403-1.869-.461-.697-.057-1.563-.057-2.655-.057H9.4ZM5.525 4.104c.304-.155.688-.251 1.309-.302.63-.051 1.434-.052 2.566-.052h5.2c1.133 0 1.937 0 2.566.052.62.05 1.005.147 1.31.302a3.25 3.25 0 0 1 1.42 1.42c.155.305.251.69.302 1.31.051.63.052 1.434.052 2.566v5.2c0 1.133 0 1.937-.052 2.566-.05.62-.147 1.005-.302 1.31a3.25 3.25 0 0 1-1.42 1.42c-.305.155-.69.251-1.31.302-.63.051-1.434.052-2.566.052H9.4c-1.132 0-1.937 0-2.566-.052-.62-.05-1.005-.147-1.31-.302a3.25 3.25 0 0 1-1.42-1.42c-.155-.305-.251-.69-.302-1.31-.051-.63-.052-1.434-.052-2.566V9.4c0-1.132 0-1.937.052-2.566.05-.62.147-1.005.302-1.31a3.25 3.25 0 0 1 1.42-1.42Zm2.671 8.068a.25.25 0 0 1 0-.344l2.36-2.49a.25.25 0 0 1 .43.172v.99c0 .414.337.75.75.75H15a.25.25 0 0 1 .25.25v1a.25.25 0 0 1-.25.25h-3.263a.75.75 0 0 0-.75.75v.99a.25.25 0 0 1-.432.172l-2.359-2.49Zm-1.089-1.376a1.75 1.75 0 0 0 0 2.408l2.36 2.49c1.087 1.148 3.02.378 3.02-1.204v-.24H15a1.75 1.75 0 0 0 1.75-1.75v-1A1.75 1.75 0 0 0 15 9.75h-2.513v-.24c0-1.582-1.933-2.352-3.02-1.204l-2.36 2.49Z" fill="#151E28"/></svg>