<svg viewBox="0 0 24 24" fill="none" xmlns="http://www.w3.org/2000/svg"><path fill-rule="evenodd" clip-rule="evenodd" d="M12 16.25a.75.75 0 0 0 0 1.5h.232c.813 0 1.469 0 2-.043.546-.045 1.026-.14 1.47-.366a3.75 3.75 0 0 0 1.64-1.639c.226-.444.32-.924.365-1.47.043-.531.043-1.187.043-2v-.464c0-.813 0-1.469-.043-2-.045-.546-.14-1.026-.366-1.47a3.75 3.75 0 0 0-1.639-1.64c-.444-.226-.924-.32-1.47-.365-.531-.043-1.187-.043-2-.043H12a.75.75 0 0 0 0 1.5h.2c.853 0 1.447 0 1.91.038.453.037.714.107.912.207.423.216.767.56.983.984.1.197.17.458.207.912.037.462.038 1.056.038 1.909v.4c0 .853 0 1.447-.038 1.91-.038.453-.107.714-.207.912-.216.423-.56.767-.983.983-.198.1-.459.17-.913.207-.462.037-1.056.038-1.909.038H12Zm2.51-3.7a.75.75 0 0 0 0-1.1l-2.153-2a.75.75 0 1 0-1.021 1.1l.754.7H7a.75.75 0 0 0 0 1.5h5.09l-.754.7a.75.75 0 0 0 1.02 1.1l2.154-2Z" fill="#151E28"/></svg>