<svg viewBox="0 0 24 24" fill="none" xmlns="http://www.w3.org/2000/svg"><path fill-rule="evenodd" clip-rule="evenodd" d="M12 2.75a9.25 9.25 0 1 0 0 18.5 9.25 9.25 0 0 0 0-18.5ZM1.25 12C1.25 6.063 6.063 1.25 12 1.25S22.75 6.063 22.75 12 17.937 22.75 12 22.75 1.25 17.937 1.25 12Zm8.678-4.135a.75.75 0 0 1-.406.98 1.25 1.25 0 0 0-.677.677c-.032.077-.061.194-.078.435A17.09 17.09 0 0 0 8.75 11v1.8c0 .572 0 .957.025 1.252.023.288.065.425.111.516.12.235.311.426.547.546.09.046.227.088.514.111.296.024.68.025 1.253.025H13c.476 0 .796 0 1.043-.017.241-.017.358-.046.435-.078.307-.127.55-.37.677-.677a.75.75 0 0 1 1.386.574 2.75 2.75 0 0 1-1.489 1.489c-.29.12-.59.167-.907.188-.304.021-.675.021-1.12.021H11.17c-.535 0-.98 0-1.345-.03-.38-.03-.736-.098-1.073-.27a2.75 2.75 0 0 1-1.202-1.2c-.172-.338-.24-.694-.27-1.074-.03-.365-.03-.81-.03-1.345v-1.855c0-.445 0-.816.02-1.12a2.84 2.84 0 0 1 .19-.907A2.75 2.75 0 0 1 8.948 7.46a.75.75 0 0 1 .98.406ZM14.4 12.75a.75.75 0 0 0 0-1.5h-.59l2.72-2.72a.75.75 0 0 0-1.06-1.06l-2.72 2.72V9.6a.75.75 0 0 0-1.5 0V12c0 .414.336.75.75.75h2.4Z" fill="#151E28"/></svg>