<svg viewBox="0 0 24 24" fill="none" xmlns="http://www.w3.org/2000/svg"><path fill-rule="evenodd" clip-rule="evenodd" d="M12.174 16.79a.25.25 0 0 1-.348 0l-3.523-3.4a.25.25 0 0 1 .173-.43H10.2a.75.75 0 0 0 .75-.75V8a.25.25 0 0 1 .25-.25h1.6a.25.25 0 0 1 .25.25v4.21c0 .415.336.75.75.75h1.723a.25.25 0 0 1 .174.43l-3.523 3.4Zm-1.39 1.08a1.75 1.75 0 0 0 2.431 0l3.523-3.4c1.133-1.093.36-3.01-1.215-3.01h-.973V8a1.75 1.75 0 0 0-1.75-1.75h-1.6A1.75 1.75 0 0 0 9.45 8v3.46h-.974c-1.574 0-2.348 1.917-1.215 3.01l3.524 3.4Z" fill="#151E28"/></svg>