<svg viewBox="0 0 24 24" fill="none" xmlns="http://www.w3.org/2000/svg"><path fill-rule="evenodd" clip-rule="evenodd" d="M15 8.75a.25.25 0 0 1 .25.25v4.698a.25.25 0 0 1-.42.183l-1.14-1.063a.75.75 0 0 0-1.041.018L9.67 15.813a.25.25 0 0 1-.353 0l-1.131-1.13a.25.25 0 0 1 0-.354l2.977-2.978a.75.75 0 0 0 .018-1.042l-1.063-1.138a.25.25 0 0 1 .183-.421H15Zm1.75.25A1.75 1.75 0 0 0 15 7.25h-4.698c-1.53 0-2.324 1.826-1.28 2.944l.569.61-2.465 2.464a1.75 1.75 0 0 0 0 2.475l1.131 1.131a1.75 1.75 0 0 0 2.475 0l2.465-2.465.609.569c1.118 1.044 2.944.25 2.944-1.28V9Z" fill="#151E28"/></svg>