<svg viewBox="0 0 24 24" fill="none" xmlns="http://www.w3.org/2000/svg"><path fill-rule="evenodd" clip-rule="evenodd" d="M2.75 12a9.25 9.25 0 1 1 18.5 0 9.25 9.25 0 0 1-18.5 0ZM12 1.25C6.063 1.25 1.25 6.063 1.25 12S6.063 22.75 12 22.75 22.75 17.937 22.75 12 17.937 1.25 12 1.25Zm3 14a.25.25 0 0 0 .25-.25v-3.476a.25.25 0 0 0-.432-.172l-.636.676a.75.75 0 0 1-1.077.017l-.893-.893a.25.25 0 0 0-.353 0l-.707.707a.25.25 0 0 0 0 .353l.893.893a.75.75 0 0 1-.017 1.077l-.676.636a.25.25 0 0 0 .171.432H15Zm1.75-.25A1.75 1.75 0 0 1 15 16.75h-3.476c-1.586 0-2.354-1.94-1.2-3.025l.113-.106-.346-.346a1.75 1.75 0 0 1 0-2.475l.707-.707a1.75 1.75 0 0 1 2.475 0l.346.346.106-.112c1.086-1.155 3.025-.387 3.025 1.199V15Zm-7.72-3.848a.75.75 0 0 1-1.06-1.061l2.12-2.121a.75.75 0 0 1 1.06 1.06l-2.12 2.122Z" fill="#151E28"/></svg>