<svg viewBox="0 0 24 24" fill="none" xmlns="http://www.w3.org/2000/svg"><path fill-rule="evenodd" clip-rule="evenodd" d="M20.763 11.823a.25.25 0 0 1 0 .354l-7.586 7.585a.25.25 0 0 1-.427-.176V15a.75.75 0 0 0-.75-.75H7a.25.25 0 0 1-.25-.25v-4A.25.25 0 0 1 7 9.75h5a.75.75 0 0 0 .75-.75V4.414a.25.25 0 0 1 .427-.177l7.586 7.586Zm1.06 1.414a1.75 1.75 0 0 0 0-2.475l-7.586-7.585c-1.102-1.103-2.987-.322-2.987 1.237V8.25H7A1.75 1.75 0 0 0 5.25 10v4c0 .966.784 1.75 1.75 1.75h4.25v3.836c0 1.559 1.885 2.34 2.987 1.237l7.586-7.586ZM3 15.75a.75.75 0 0 0 .75-.75V9a.75.75 0 0 0-1.5 0v6c0 .414.336.75.75.75Z" fill="#151E28"/></svg>