<svg viewBox="0 0 24 24" fill="none" xmlns="http://www.w3.org/2000/svg"><path fill-rule="evenodd" clip-rule="evenodd" d="M13.117 2.479a2.75 2.75 0 0 0-2.234 0c-.485.216-.844.614-1.167 1.071-.322.454-.677 1.068-1.115 1.825l-.02.033-5.45 9.413-.018.033c-.44.76-.797 1.375-1.03 1.882-.237.51-.404 1.02-.35 1.55a2.75 2.75 0 0 0 1.119 1.938c.43.313.956.424 1.515.475.556.051 1.267.051 2.145.051h10.976c.878 0 1.59 0 2.145-.051.56-.051 1.085-.162 1.515-.475a2.75 2.75 0 0 0 1.118-1.939c.055-.529-.112-1.04-.348-1.55-.234-.506-.59-1.121-1.03-1.881l-.02-.033-5.45-9.413-.019-.033c-.438-.758-.793-1.37-1.114-1.825-.324-.457-.683-.855-1.168-1.071Zm-1.625 1.37a1.25 1.25 0 0 1 1.016 0c.108.049.273.174.552.568.277.391.598.944 1.06 1.742l5.45 9.413c.464.801.785 1.357.986 1.793.204.44.23.647.218.765a1.25 1.25 0 0 1-.508.881c-.095.07-.288.15-.77.194-.479.044-1.12.045-2.046.045H6.55c-.925 0-1.567 0-2.046-.045-.482-.044-.675-.124-.77-.194a1.25 1.25 0 0 1-.508-.881c-.013-.118.014-.325.217-.765.202-.436.523-.992.987-1.793L9.88 6.16c.462-.798.783-1.35 1.06-1.742.279-.394.444-.52.552-.567ZM15 10.25a.75.75 0 0 1 .75.75v1.714a.75.75 0 0 1-1.495.091l-.868.868a.75.75 0 0 1-1.06-1.06l.868-.868a.75.75 0 0 1 .09-1.495H15Zm-3.536.75a.75.75 0 0 1-.659.745l.868.868a.75.75 0 0 1-1.06 1.06l-.868-.868a.75.75 0 0 1-1.495-.09V11a.75.75 0 0 1 .75-.75h1.714a.75.75 0 0 1 .75.75Zm.863 4.387a.75.75 0 0 1 1.06-1.06l.868.868a.75.75 0 0 1 1.495.09V17a.75.75 0 0 1-.75.75h-1.714a.75.75 0 0 1-.091-1.494l-.868-.869Zm-1.714-1.06a.75.75 0 0 1 1.06 1.06l-.868.869a.75.75 0 0 1-.09 1.494H9a.75.75 0 0 1-.75-.75v-1.714a.75.75 0 0 1 1.495-.091l.868-.868Z" fill="#151E28"/></svg>