<svg viewBox="0 0 24 24" fill="none" xmlns="http://www.w3.org/2000/svg"><path fill-rule="evenodd" clip-rule="evenodd" d="M12 2.75a9.25 9.25 0 1 0 0 18.5 9.25 9.25 0 0 0 0-18.5ZM1.25 12C1.25 6.063 6.063 1.25 12 1.25S22.75 6.063 22.75 12 17.937 22.75 12 22.75 1.25 17.937 1.25 12Zm12.915-4.13a.75.75 0 0 1 .997-.362 2.75 2.75 0 0 1 1.33 1.33c.148.317.206.648.232 1 .026.338.026.75.026 1.245v1.747c0 .535 0 .98-.03 1.345-.03.38-.098.736-.27 1.073a2.75 2.75 0 0 1-1.201 1.202c-.338.172-.694.24-1.074.27-.365.03-.81.03-1.345.03h-1.747c-.494 0-.907 0-1.245-.026-.352-.026-.683-.084-1-.232a2.75 2.75 0 0 1-1.33-1.33.75.75 0 1 1 1.36-.634c.123.267.337.48.604.605.084.04.213.076.48.096.274.02.63.021 1.16.021H12.8c.572 0 .957 0 1.252-.025.288-.023.425-.065.516-.111a1.25 1.25 0 0 0 .546-.546c.046-.091.088-.228.111-.515.024-.296.025-.68.025-1.253v-1.689c0-.53 0-.885-.021-1.16-.02-.266-.057-.395-.096-.48a1.25 1.25 0 0 0-.605-.604.75.75 0 0 1-.363-.997ZM9.6 12.75a.75.75 0 0 1 0-1.5h.59L7.47 8.53a.75.75 0 0 1 1.06-1.06l2.72 2.72V9.6a.75.75 0 0 1 1.5 0V12a.75.75 0 0 1-.75.75H9.6Z" fill="#151E28"/></svg>