<svg viewBox="0 0 24 24" fill="none" xmlns="http://www.w3.org/2000/svg"><path fill-rule="evenodd" clip-rule="evenodd" d="M12 2.75a9.25 9.25 0 1 0 0 18.5 9.25 9.25 0 0 0 0-18.5ZM1.25 12C1.25 6.063 6.063 1.25 12 1.25S22.75 6.063 22.75 12 17.937 22.75 12 22.75 1.25 17.937 1.25 12Zm5 0a.75.75 0 0 1 .75-.75h4.19L9.47 9.53a.75.75 0 1 1 1.06-1.06l3 3a.75.75 0 0 1 0 1.06l-3 3a.75.75 0 0 1-1.06-1.06l1.72-1.72H7a.75.75 0 0 1-.75-.75ZM16 15.75a.75.75 0 0 0 .75-.75V9a.75.75 0 0 0-1.5 0v6c0 .414.336.75.75.75Z" fill="#151E28"/></svg>