<svg viewBox="0 0 24 24" fill="none" xmlns="http://www.w3.org/2000/svg"><path fill-rule="evenodd" clip-rule="evenodd" d="M19.75 5a.75.75 0 0 0-.75-.75h-4a.75.75 0 0 0 0 1.5h2.19L12 10.94 6.81 5.75H9a.75.75 0 0 0 0-1.5H5a.75.75 0 0 0-.75.75v4a.75.75 0 0 0 1.5 0V6.81L10.94 12l-5.19 5.19V15a.75.75 0 0 0-1.5 0v4c0 .414.336.75.75.75h4a.75.75 0 0 0 0-1.5H6.81L12 13.06l5.19 5.19H15a.75.75 0 0 0 0 1.5h4a.75.75 0 0 0 .75-.75v-4a.75.75 0 0 0-1.5 0v2.19L13.06 12l5.19-5.19V9a.75.75 0 0 0 1.5 0V5Z" fill="#151E28"/></svg>