<svg viewBox="0 0 24 24" fill="none" xmlns="http://www.w3.org/2000/svg"><path fill-rule="evenodd" clip-rule="evenodd" d="M2.75 12a9.25 9.25 0 1 1 18.5 0 9.25 9.25 0 0 1-18.5 0ZM12 1.25C6.063 1.25 1.25 6.063 1.25 12S6.063 22.75 12 22.75 22.75 17.937 22.75 12 17.937 1.25 12 1.25ZM9.75 14c0 .138.112.25.25.25h3.477a.25.25 0 0 0 .17-.432l-.675-.636a.75.75 0 0 1-.017-1.077l.893-.893a.25.25 0 0 0 0-.353l-.707-.707a.25.25 0 0 0-.353 0l-.893.893a.75.75 0 0 1-1.077-.017l-.636-.676a.25.25 0 0 0-.432.171V14Zm.25 1.75A1.75 1.75 0 0 1 8.25 14v-3.477c0-1.585 1.94-2.353 3.025-1.198l.106.112.346-.346a1.75 1.75 0 0 1 2.475 0l.707.707a1.75 1.75 0 0 1 0 2.475l-.346.346.112.106c1.155 1.086.387 3.025-1.198 3.025H10Zm3.848-7.72a.75.75 0 0 1 1.061-1.06l2.121 2.12a.75.75 0 1 1-1.06 1.06l-2.122-2.12Z" fill="#151E28"/></svg>