<svg viewBox="0 0 24 24" fill="none" xmlns="http://www.w3.org/2000/svg"><path fill-rule="evenodd" clip-rule="evenodd" d="M9.253 2.25h5.494c.419 0 .748 0 1.066.076.281.067.55.178.795.33.28.17.512.403.808.7l.052.05 3.125 3.126.051.052c.297.295.53.528.7.808.151.246.263.514.33.794.076.319.076.648.076 1.067v5.494c0 .419 0 .748-.076 1.066a2.75 2.75 0 0 1-.33.795c-.17.28-.404.512-.7.808l-.05.052-3.126 3.125-.052.051c-.296.297-.528.53-.808.7a2.75 2.75 0 0 1-.795.33c-.318.076-.647.076-1.066.076H9.253c-.419 0-.748 0-1.067-.076a2.75 2.75 0 0 1-.794-.33c-.28-.17-.513-.404-.808-.7l-.052-.05-3.125-3.126-.051-.052c-.297-.296-.53-.528-.7-.808a2.75 2.75 0 0 1-.33-.795c-.076-.318-.076-.647-.076-1.066V9.253c0-.419 0-.748.076-1.067a2.75 2.75 0 0 1 .33-.794c.17-.28.403-.513.7-.808l.05-.052 3.126-3.125.052-.051c.295-.297.528-.53.808-.7a2.75 2.75 0 0 1 .794-.33c.319-.076.648-.076 1.067-.076Zm.072 1.5c-.524 0-.665.005-.788.035a1.25 1.25 0 0 0-.362.15c-.108.066-.21.161-.582.533L4.468 7.593c-.372.371-.467.474-.534.582a1.25 1.25 0 0 0-.15.362c-.03.123-.034.264-.034.788v5.35c0 .524.005.665.035.788.03.128.08.25.15.362.066.108.161.21.533.582l3.125 3.125c.371.372.474.467.582.534.112.068.234.119.362.15.123.03.264.034.788.034h5.35c.524 0 .665-.005.788-.035.128-.03.25-.08.362-.15.108-.066.21-.161.582-.533l3.125-3.125c.372-.371.467-.474.534-.582.068-.112.119-.234.15-.362.03-.123.034-.264.034-.788v-5.35c0-.524-.005-.665-.035-.788a1.253 1.253 0 0 0-.15-.362c-.066-.108-.161-.21-.533-.582l-3.125-3.125c-.371-.372-.474-.467-.582-.534a1.25 1.25 0 0 0-.362-.15c-.123-.03-.264-.034-.788-.034h-5.35Zm3.592 3.5h-.028a.75.75 0 0 0 0 1.5c.53 0 .885 0 1.16.021.266.02.395.057.48.096.266.124.48.338.604.605.04.084.076.213.096.48.02.274.021.63.021 1.16V12.8c0 .572 0 .957-.025 1.252-.023.288-.065.425-.111.516a1.25 1.25 0 0 1-.546.546c-.091.046-.228.088-.515.111-.296.024-.68.025-1.253.025h-1.689c-.53 0-.885 0-1.16-.021-.266-.02-.395-.057-.48-.096a1.25 1.25 0 0 1-.604-.605c-.04-.085-.076-.213-.096-.48-.02-.274-.021-.63-.021-1.16a.75.75 0 0 0-1.5 0v.029c0 .494 0 .907.026 1.245.026.352.084.683.232 1a2.75 2.75 0 0 0 1.33 1.33c.317.148.648.206 1 .232.338.026.75.026 1.245.026h1.747c.535 0 .98 0 1.345-.03.38-.03.736-.098 1.073-.27a2.751 2.751 0 0 0 1.202-1.201c.172-.338.24-.694.27-1.074.03-.365.03-.81.03-1.345v-1.747c0-.494 0-.907-.026-1.245-.026-.352-.084-.683-.232-1a2.75 2.75 0 0 0-1.33-1.33c-.317-.148-.648-.206-1-.232-.338-.026-.75-.026-1.245-.026ZM10.25 8a.75.75 0 0 1-.487.703l1.534 1.534a.75.75 0 0 1 1.453.263V12a.75.75 0 0 1-.75.75h-1.5a.75.75 0 0 1-.263-1.453L8.703 9.763A.75.75 0 0 1 7.25 9.5V8A.75.75 0 0 1 8 7.25h1.5a.75.75 0 0 1 .75.75Z" fill="#151E28"/></svg>