<svg viewBox="0 0 24 24" fill="none" xmlns="http://www.w3.org/2000/svg"><path fill-rule="evenodd" clip-rule="evenodd" d="M12 2.75a9.25 9.25 0 1 0 0 18.5 9.25 9.25 0 0 0 0-18.5ZM1.25 12C1.25 6.063 6.063 1.25 12 1.25S22.75 6.063 22.75 12 17.937 22.75 12 22.75 1.25 17.937 1.25 12Zm8.845 4.75h.016a.75.75 0 1 0 0-1.5l-.166-.001a1.25 1.25 0 0 1-1.194-1.194 4.695 4.695 0 0 1-.001-.166v-2.69c0-.572 0-.956.025-1.252.023-.287.065-.424.111-.515a1.25 1.25 0 0 1 .547-.546c.09-.046.227-.088.514-.111.296-.024.68-.025 1.253-.025h2.689l.166.001a1.25 1.25 0 0 1 1.194 1.194 4.7 4.7 0 0 1 .001.166.75.75 0 1 0 1.5 0v-.016c0-.088 0-.155-.003-.215a2.75 2.75 0 0 0-2.627-2.627c-.06-.003-.127-.003-.215-.003H11.17c-.535 0-.98 0-1.345.03-.38.03-.736.098-1.073.27a2.75 2.75 0 0 0-1.202 1.2c-.172.338-.24.694-.27 1.074-.03.365-.03.81-.03 1.345v2.735a2.75 2.75 0 0 0 2.63 2.842c.06.003.128.003.215.003Zm3.505 0a.75.75 0 0 1 0-1.5h.59l-2.72-2.72a.75.75 0 0 1 1.06-1.06l2.72 2.72v-.59a.75.75 0 0 1 1.5 0V16a.75.75 0 0 1-.75.75h-2.4Z" fill="#151E28"/></svg>