<svg viewBox="0 0 24 24" fill="none" xmlns="http://www.w3.org/2000/svg"><path fill-rule="evenodd" clip-rule="evenodd" d="M18 5.75a.25.25 0 0 1 .25.25v10.728a.25.25 0 0 1-.427.177l-3.242-3.243a.75.75 0 0 0-1.061 0L7.863 19.32a.25.25 0 0 1-.353 0l-2.83-2.83a.25.25 0 0 1 0-.354l5.657-5.657a.75.75 0 0 0 0-1.06L7.095 6.176a.25.25 0 0 1 .177-.427H18Zm1.75.25A1.75 1.75 0 0 0 18 4.25H7.272c-1.559 0-2.34 1.885-1.237 2.987L8.747 9.95 3.62 15.076a1.75 1.75 0 0 0 0 2.475l2.83 2.829a1.75 1.75 0 0 0 2.475 0l5.126-5.127 2.713 2.712c1.102 1.103 2.987.322 2.987-1.237V6Z" fill="#151E28"/></svg>