<svg viewBox="0 0 24 24" fill="none" xmlns="http://www.w3.org/2000/svg"><path fill-rule="evenodd" clip-rule="evenodd" d="M9.367 2.25h5.266c1.092 0 1.958 0 2.655.057.714.058 1.317.18 1.869.46a4.75 4.75 0 0 1 2.075 2.077c.281.55.403 1.154.461 1.868.057.697.057 1.563.057 2.655v5.266c0 1.092 0 1.958-.057 2.655-.058.714-.18 1.317-.46 1.869a4.75 4.75 0 0 1-2.076 2.075c-.552.281-1.155.403-1.869.461-.697.057-1.563.057-2.655.057H9.367c-1.092 0-1.958 0-2.655-.057-.714-.058-1.317-.18-1.868-.46a4.75 4.75 0 0 1-2.076-2.076c-.281-.552-.403-1.155-.461-1.869-.057-.697-.057-1.563-.057-2.655V9.367c0-1.092 0-1.958.057-2.655.058-.714.18-1.317.46-1.868a4.75 4.75 0 0 1 2.077-2.076c.55-.281 1.154-.403 1.868-.461.697-.057 1.563-.057 2.655-.057ZM6.834 3.802c-.62.05-1.005.147-1.31.302a3.25 3.25 0 0 0-1.42 1.42c-.155.305-.251.69-.302 1.31-.051.63-.052 1.434-.052 2.566v5.2c0 1.133 0 1.937.052 2.566.05.62.147 1.005.302 1.31a3.25 3.25 0 0 0 1.42 1.42c.305.155.69.251 1.31.302.63.051 1.434.052 2.566.052h5.2c1.133 0 1.937 0 2.566-.052.62-.05 1.005-.147 1.31-.302a3.25 3.25 0 0 0 1.42-1.42c.155-.305.251-.69.302-1.31.051-.63.052-1.434.052-2.566V9.4c0-1.132 0-1.937-.052-2.566-.05-.62-.147-1.005-.302-1.31a3.25 3.25 0 0 0-1.42-1.42c-.305-.155-.69-.251-1.31-.302-.63-.051-1.434-.052-2.566-.052H9.4c-1.132 0-1.937 0-2.566.052Zm3.26 12.948h.017a.75.75 0 1 0 0-1.5l-.166-.001a1.25 1.25 0 0 1-1.194-1.194 4.695 4.695 0 0 1-.001-.166v-2.69c0-.572 0-.956.025-1.252.023-.287.065-.424.111-.515a1.25 1.25 0 0 1 .547-.546c.09-.046.227-.088.514-.111.296-.024.68-.025 1.253-.025h2.689l.166.001a1.25 1.25 0 0 1 1.194 1.194l.001.166a.75.75 0 0 0 1.5 0v-.016c0-.088 0-.155-.003-.215a2.75 2.75 0 0 0-2.627-2.627c-.06-.003-.127-.003-.215-.003H11.17c-.535 0-.98 0-1.345.03-.38.03-.736.098-1.073.27a2.75 2.75 0 0 0-1.202 1.2c-.172.338-.24.694-.27 1.074-.03.365-.03.81-.03 1.345v2.735a2.75 2.75 0 0 0 2.63 2.842c.06.003.128.003.215.003Zm3.506 0a.75.75 0 0 1 0-1.5h.59l-2.72-2.72a.75.75 0 0 1 1.06-1.06l2.72 2.72v-.59a.75.75 0 0 1 1.5 0V16a.75.75 0 0 1-.75.75h-2.4Z" fill="#151E28"/></svg>