<svg viewBox="0 0 24 24" fill="none" xmlns="http://www.w3.org/2000/svg"><path fill-rule="evenodd" clip-rule="evenodd" d="M9.253 2.25h5.494c.419 0 .748 0 1.067.076.28.067.548.179.794.33.28.17.513.404.808.7l.052.051 3.125 3.125.051.052c.297.296.53.528.7.808.152.246.263.514.33.795.076.318.076.647.076 1.066v5.494c0 .419 0 .748-.076 1.067a2.71 2.71 0 0 1-.33.794c-.17.28-.403.513-.7.808l-.05.052-3.126 3.125-.052.051c-.295.297-.528.53-.808.7a2.71 2.71 0 0 1-.794.33c-.319.076-.648.076-1.067.076H9.253c-.419 0-.748 0-1.066-.076a2.75 2.75 0 0 1-.795-.33c-.28-.17-.512-.403-.808-.7l-.052-.05-3.125-3.126-.051-.052c-.296-.295-.53-.528-.7-.808a2.75 2.75 0 0 1-.33-.794c-.076-.319-.076-.648-.076-1.067V9.253c0-.419 0-.748.076-1.066a2.75 2.75 0 0 1 .33-.795c.17-.28.404-.512.7-.808l.051-.052 3.125-3.125.052-.051c.296-.296.528-.53.808-.7a2.75 2.75 0 0 1 .795-.33c.318-.076.647-.076 1.066-.076Zm.073 1.5c-.525 0-.666.005-.79.035a1.25 1.25 0 0 0-.36.15c-.11.066-.212.161-.583.533L4.468 7.593c-.372.371-.467.474-.534.582a1.25 1.25 0 0 0-.15.362c-.03.123-.034.264-.034.789v5.349c0 .524.005.665.035.788.03.128.08.25.15.362.066.108.161.21.533.582l3.125 3.125c.371.372.474.467.582.534.112.068.234.119.362.15.123.03.264.034.789.034h5.349c.524 0 .665-.005.788-.035.128-.03.25-.08.362-.15.108-.066.21-.161.582-.533l3.125-3.125c.372-.371.467-.474.534-.582a1.25 1.25 0 0 0 .15-.362c.03-.123.034-.263.034-.788v-5.35c0-.524-.005-.665-.035-.788a1.25 1.25 0 0 0-.15-.362c-.066-.108-.161-.21-.533-.582l-3.125-3.125c-.371-.372-.474-.467-.582-.534a1.25 1.25 0 0 0-.362-.15c-.123-.03-.263-.034-.788-.034h-5.35Zm4.84 4.12a.75.75 0 0 1 .996-.362 2.75 2.75 0 0 1 1.33 1.33c.148.317.206.648.232 1 .026.338.026.75.026 1.245v1.747c0 .535 0 .98-.03 1.345-.03.38-.098.736-.27 1.073a2.749 2.749 0 0 1-1.201 1.202c-.338.172-.694.24-1.074.27-.365.03-.81.03-1.345.03h-1.747c-.494 0-.907 0-1.245-.026-.352-.026-.683-.084-1-.232a2.75 2.75 0 0 1-1.33-1.33.75.75 0 1 1 1.36-.634c.123.267.337.48.604.605.085.04.213.076.48.096.274.02.63.021 1.16.021H12.8c.572 0 .957 0 1.253-.025.287-.023.424-.065.514-.111a1.25 1.25 0 0 0 .547-.546c.046-.091.088-.228.111-.515.024-.296.025-.68.025-1.253v-1.689c0-.53 0-.885-.021-1.16-.02-.266-.057-.394-.096-.48a1.25 1.25 0 0 0-.605-.604.75.75 0 0 1-.362-.997ZM9.6 12.75a.75.75 0 1 1 0-1.5h.59L7.47 8.53a.75.75 0 0 1 1.06-1.06l2.72 2.72V9.6a.75.75 0 1 1 1.5 0V12a.75.75 0 0 1-.75.75H9.6Z" fill="#151E28"/></svg>