<svg viewBox="0 0 24 24" fill="none" xmlns="http://www.w3.org/2000/svg"><path fill-rule="evenodd" clip-rule="evenodd" d="M10.883 2.479a2.75 2.75 0 0 1 2.234 0c.485.216.844.614 1.167 1.071.322.454.677 1.067 1.115 1.825l.02.033 5.45 9.413.018.033c.44.76.797 1.375 1.03 1.882.237.51.404 1.02.35 1.55a2.75 2.75 0 0 1-1.119 1.938c-.43.313-.956.424-1.515.475-.556.051-1.267.051-2.145.051H6.512c-.878 0-1.59 0-2.145-.051-.56-.051-1.085-.162-1.515-.475a2.75 2.75 0 0 1-1.118-1.939c-.055-.529.112-1.04.348-1.55.234-.506.59-1.121 1.03-1.881l.02-.033 5.45-9.413.019-.033c.438-.758.793-1.37 1.114-1.825.324-.457.683-.855 1.168-1.071Zm1.625 1.37a1.25 1.25 0 0 0-1.016 0c-.108.049-.274.174-.552.568-.277.391-.598.944-1.06 1.742l-5.45 9.413c-.464.801-.785 1.357-.986 1.793-.204.44-.23.647-.218.765.036.352.221.672.508.881.095.07.288.15.77.194.479.044 1.12.045 2.046.045h10.9c.925 0 1.567 0 2.046-.045.482-.044.675-.124.77-.194a1.25 1.25 0 0 0 .508-.881c.013-.118-.014-.325-.218-.765-.201-.436-.522-.992-.986-1.793L14.12 6.16c-.462-.798-.783-1.35-1.06-1.742-.279-.394-.444-.52-.552-.567Zm-3.512 7.266a.75.75 0 0 1 .066 1.058 1.244 1.244 0 0 0-.31.772 4.687 4.687 0 0 0-.002.166V14.8c0 .572 0 .957.025 1.252.023.288.065.425.111.515.12.236.311.427.547.547.09.046.227.088.514.111.296.024.68.025 1.253.025h1.689l.166-.001c.296-.013.564-.128.772-.311a.75.75 0 1 1 .992 1.124 2.744 2.744 0 0 1-1.699.685c-.06.003-.128.003-.215.003H11.17c-.535 0-.98 0-1.345-.03-.38-.03-.736-.098-1.073-.27a2.75 2.75 0 0 1-1.202-1.2c-.172-.338-.24-.694-.27-1.074-.03-.365-.03-.81-.03-1.345v-1.735c0-.087 0-.155.003-.215.028-.65.282-1.243.685-1.7a.75.75 0 0 1 1.058-.065ZM13.75 15a.75.75 0 0 0-.75-.75h-.19l2.72-2.72a.75.75 0 0 0-1.06-1.06l-2.72 2.72V13a.75.75 0 0 0-1.5 0v2c0 .414.336.75.75.75h2a.75.75 0 0 0 .75-.75Z" fill="#151E28"/></svg>