<svg viewBox="0 0 24 24" fill="none" xmlns="http://www.w3.org/2000/svg"><path fill-rule="evenodd" clip-rule="evenodd" d="M2.75 12a9.25 9.25 0 1 1 18.5 0 9.25 9.25 0 0 1-18.5 0ZM12 1.25C6.063 1.25 1.25 6.063 1.25 12S6.063 22.75 12 22.75 22.75 17.937 22.75 12 17.937 1.25 12 1.25ZM9.247 7.47a.75.75 0 1 1 1.061 1.06l-.497.498h4.411a.75.75 0 0 1 0 1.5H9.811l.497.497a.75.75 0 0 1-1.06 1.06L7.47 10.309a.75.75 0 0 1 0-1.06L9.247 7.47Zm4.445 5.505a.75.75 0 0 1 1.06-1.06l1.778 1.777a.75.75 0 0 1 0 1.06l-1.777 1.778a.75.75 0 0 1-1.061-1.06l.497-.498H9.778a.75.75 0 0 1 0-1.5h4.411l-.497-.497Z" fill="#151E28"/></svg>