<svg viewBox="0 0 24 24" fill="none" xmlns="http://www.w3.org/2000/svg"><path fill-rule="evenodd" clip-rule="evenodd" d="M8.997 15.294a.25.25 0 0 1-.252-.25l.004-4.71a.25.25 0 0 1 .422-.181l1.127 1.074a.75.75 0 0 0 1.048-.012l2.977-2.978a.25.25 0 0 1 .354 0l1.131 1.132a.25.25 0 0 1 0 .353L12.831 12.7a.75.75 0 0 0-.013 1.047l1.043 1.095a.25.25 0 0 1-.18.423l-4.684.03Zm-1.752-.25c0 .97.79 1.757 1.762 1.75l4.684-.03c1.534-.01 2.314-1.846 1.256-2.957l-.538-.565 2.46-2.46a1.75 1.75 0 0 0 0-2.474l-1.131-1.131a1.75 1.75 0 0 0-2.475 0l-2.46 2.46-.597-.57C9.093 8.005 7.25 8.794 7.25 10.332l-.004 4.711Z" fill="#151E28"/></svg>