<svg viewBox="0 0 24 24" fill="none" xmlns="http://www.w3.org/2000/svg"><path fill-rule="evenodd" clip-rule="evenodd" d="M2.75 12a9.25 9.25 0 1 1 18.5 0 9.25 9.25 0 0 1-18.5 0ZM12 1.25C6.063 1.25 1.25 6.063 1.25 12S6.063 22.75 12 22.75 22.75 17.937 22.75 12 17.937 1.25 12 1.25Zm2.958 8.535a.25.25 0 0 0-.243-.243l-3.43-.093a.25.25 0 0 0-.183.427l.7.7a.75.75 0 0 1 0 1.061l-2.307 2.308a.25.25 0 0 0 0 .353l.707.707a.25.25 0 0 0 .354 0l2.307-2.307a.75.75 0 0 1 1.06 0l.7.7a.25.25 0 0 0 .428-.183l-.093-3.43Zm-.203-1.742a1.75 1.75 0 0 1 1.702 1.702l.093 3.43c.043 1.58-1.868 2.402-2.987 1.284l-.17-.17-1.777 1.777a1.75 1.75 0 0 1-2.475 0l-.707-.707a1.75 1.75 0 0 1 0-2.475l1.777-1.777-.17-.17c-1.118-1.119-.296-3.03 1.285-2.987l3.43.093Z" fill="#151E28"/></svg>