<svg viewBox="0 0 24 24" fill="none" xmlns="http://www.w3.org/2000/svg"><path fill-rule="evenodd" clip-rule="evenodd" d="M15.75 5c0-.69.56-1.25 1.25-1.25.387 0 .764.222 1.137.832.375.614.658 1.496.854 2.49.392 1.994.378 4.15.27 4.805a.75.75 0 1 0 1.479.246c.146-.874.14-3.217-.278-5.341-.21-1.065-.535-2.147-1.045-2.982-.513-.839-1.296-1.55-2.417-1.55A2.75 2.75 0 0 0 14.25 5c0 .257.024.596.049.953l.015.22c.031.454.061.962.061 1.491 0 1.077-.125 2.159-.546 3a.75.75 0 1 0 1.342.671c.579-1.158.704-2.523.704-3.67 0-.583-.033-1.132-.064-1.594l-.017-.243A13.502 13.502 0 0 1 15.75 5Zm-4.925 11.471a.75.75 0 1 0-.65-1.351c-.584.281-1.036.525-1.433.74l-.048.026c-.411.222-.758.408-1.155.585-.786.35-1.813.688-3.89 1.13A1.762 1.762 0 0 0 2.25 19.32V20c0 .966.784 1.75 1.75 1.75h5a11.72 11.72 0 0 0 8.595-3.738.75.75 0 0 0-1.097-1.024A10.22 10.22 0 0 1 9 20.25H4a.25.25 0 0 1-.25-.25v-.68c0-.115.084-.225.21-.252 2.127-.452 3.268-.816 4.19-1.227a18.18 18.18 0 0 0 1.257-.635l.043-.024c.398-.215.824-.445 1.376-.71Zm3.21.278a.75.75 0 0 1-.775-.624v-.001l-.001-.007a.56.56 0 0 0-.007-.038 6.628 6.628 0 0 0-.198-.732c-.158-.473-.406-1.042-.771-1.512-.36-.464-.805-.794-1.366-.893-.565-.1-1.381.011-2.53.701a.75.75 0 0 1-.773-1.286c1.35-.81 2.534-1.074 3.563-.893 1.033.183 1.776.79 2.29 1.45.49.631.8 1.344.989 1.895.54-.303 1.309-.655 2.17-.799.878-.146 1.888-.08 2.834.51.941.589 1.715 1.634 2.251 3.243a.75.75 0 1 1-1.423.474c-.463-1.391-1.065-2.096-1.623-2.445-.554-.346-1.168-.406-1.792-.302-.632.105-1.234.374-1.693.632a6.775 6.775 0 0 0-.673.434l-.026.02-.007.005-.005.005h-.001a.746.746 0 0 1-.433.163Z" fill="#151E28"/></svg>