<svg viewBox="0 0 24 24" fill="none" xmlns="http://www.w3.org/2000/svg"><path fill-rule="evenodd" clip-rule="evenodd" d="M8.768 3.25h6.464c.813 0 1.469 0 2 .043.546.045 1.027.14 1.47.366a3.75 3.75 0 0 1 1.64 1.639c.226.444.32.924.365 1.47.043.531.043 1.187.043 2v2.599c.171.042.337.1.498.183.518.263.939.684 1.202 1.201.172.338.24.694.27 1.074.03.365.03.81.03 1.345V21a.75.75 0 0 1-1.5 0v-1.25H2.75V21a.75.75 0 0 1-1.5 0v-5.83c0-.535 0-.98.03-1.345.03-.38.098-.736.27-1.073a2.75 2.75 0 0 1 1.202-1.202c.161-.083.327-.14.498-.183V8.768c0-.813 0-1.469.044-2 .044-.546.139-1.026.365-1.47a3.75 3.75 0 0 1 1.639-1.64c.444-.226.924-.32 1.47-.365.532-.043 1.187-.043 2-.043Zm-4.018 8h1.5v-.823c0-.393 0-.696.053-.963a2.75 2.75 0 0 1 2.16-2.161c.268-.053.571-.053.964-.053h.146c.393 0 .696 0 .963.053.573.114 1.08.403 1.464.81.384-.407.89-.696 1.463-.81.268-.053.571-.053.964-.053h.146c.393 0 .696 0 .963.053a2.75 2.75 0 0 1 2.161 2.16c.053.268.053.571.053.964v.823h1.5V8.8c0-.852 0-1.447-.038-1.91-.037-.453-.106-.714-.207-.911a2.25 2.25 0 0 0-.983-.984c-.198-.1-.459-.17-.912-.207-.463-.037-1.057-.038-1.91-.038H8.8c-.852 0-1.446 0-1.91.038-.453.037-.714.107-.911.207a2.25 2.25 0 0 0-.984.984c-.1.197-.17.458-.206.912-.038.462-.039 1.057-.039 1.909v2.45Zm11.5 0v-.75c0-.5-.004-.641-.024-.744a1.25 1.25 0 0 0-.982-.982c-.103-.02-.243-.024-.744-.024-.5 0-.641.004-.744.024a1.25 1.25 0 0 0-.982.982c-.02.098-.024.232-.024.684v.81h3.5Zm-5 0v-.81c0-.452-.005-.586-.024-.684a1.25 1.25 0 0 0-.982-.982C10.14 8.754 10 8.75 9.5 8.75s-.641.004-.744.024a1.25 1.25 0 0 0-.982.982c-.02.103-.024.243-.024.744v.75h3.5ZM2.75 17v1.25h18.5V15.2c0-.572 0-.957-.025-1.252-.023-.288-.065-.425-.111-.516a1.25 1.25 0 0 0-.547-.546c-.09-.046-.227-.088-.515-.111-.295-.024-.68-.025-1.252-.025H5.2c-.572 0-.957 0-1.253.025-.287.023-.424.065-.514.111a1.25 1.25 0 0 0-.547.546c-.046.091-.088.228-.111.515-.024.296-.025.68-.025 1.253V17Z" fill="#151E28"/></svg>