<svg viewBox="0 0 24 24" fill="none" xmlns="http://www.w3.org/2000/svg"><path fill-rule="evenodd" clip-rule="evenodd" d="M5.75 9a6.25 6.25 0 1 1 12.5 0c0 2.622.53 3.959 1.103 4.934.135.23.255.418.36.584.35.55.537.845.537 1.482 0 .69-.56 1.25-1.25 1.25H5c-.69 0-1.25-.56-1.25-1.25 0-.637.187-.931.537-1.482.105-.166.225-.355.36-.584C5.22 12.96 5.75 11.623 5.75 9ZM12 1.25A7.75 7.75 0 0 0 4.25 9c0 2.378-.47 3.448-.897 4.175-.076.13-.162.262-.25.398-.396.611-.853 1.316-.853 2.427A2.75 2.75 0 0 0 5 18.75h14A2.75 2.75 0 0 0 21.75 16c0-1.11-.457-1.816-.853-2.427-.088-.136-.174-.268-.25-.398-.427-.727-.897-1.797-.897-4.175A7.75 7.75 0 0 0 12 1.25Zm-2.122 18.5a.75.75 0 1 0-1.414.5 3.751 3.751 0 0 0 7.073 0 .75.75 0 1 0-1.415-.5 2.251 2.251 0 0 1-4.244 0Z" fill="#151E28"/></svg>