<svg viewBox="0 0 24 24" fill="none" xmlns="http://www.w3.org/2000/svg"><path fill-rule="evenodd" clip-rule="evenodd" d="M12 2.75c-1.18 0-2.28.326-3.22.892a.75.75 0 1 1-.775-1.284A7.75 7.75 0 0 1 19.75 9c0 2.378.47 3.448.897 4.175.076.13.162.262.25.398.396.611.853 1.316.853 2.427a.75.75 0 0 1-1.5 0c0-.637-.187-.931-.537-1.482a18.734 18.734 0 0 1-.36-.584C18.78 12.96 18.25 11.623 18.25 9A6.25 6.25 0 0 0 12 2.75ZM4.878 5.939 1.47 2.53a.75.75 0 0 1 1.06-1.06l20 20a.75.75 0 1 1-1.06 1.06l-3.78-3.78H5A2.75 2.75 0 0 1 2.25 16c0-1.11.457-1.816.853-2.427.088-.136.174-.268.25-.398.427-.727.897-1.797.897-4.175 0-1.086.224-2.121.628-3.061ZM16.19 17.25H5c-.69 0-1.25-.56-1.25-1.25 0-.637.187-.931.537-1.482.105-.166.225-.355.36-.584C5.22 12.96 5.75 11.623 5.75 9c0-.662.103-1.299.293-1.897L16.189 17.25Zm-7.268 2.043a.75.75 0 0 1 .957.457 2.251 2.251 0 0 0 4.244 0 .75.75 0 1 1 1.415.5 3.751 3.751 0 0 1-7.073 0 .75.75 0 0 1 .457-.957Z" fill="#151E28"/></svg>