<svg viewBox="0 0 24 24" fill="none" xmlns="http://www.w3.org/2000/svg"><path fill-rule="evenodd" clip-rule="evenodd" d="M10.422 3.735a3.25 3.25 0 0 1 3.156 0l5 2.777a3.25 3.25 0 0 1 1.672 2.841v5.293a3.25 3.25 0 0 1-1.672 2.841l-5 2.778a3.25 3.25 0 0 1-3.156 0l-5-2.778a3.25 3.25 0 0 1-1.672-2.84V9.352c0-1.18.64-2.267 1.672-2.84l5-2.778Zm3.885-1.312a4.75 4.75 0 0 0-4.614 0l-5 2.778A4.75 4.75 0 0 0 2.25 9.353v5.293a4.75 4.75 0 0 0 2.443 4.152l5 2.778a4.75 4.75 0 0 0 4.614 0l5-2.777a4.75 4.75 0 0 0 2.443-4.153V9.353a4.75 4.75 0 0 0-2.443-4.152l-5-2.778ZM11.8 8.25a3.55 3.55 0 0 0-3.55 3.55v.4a3.55 3.55 0 0 0 3.55 3.55h.4a3.55 3.55 0 0 0 3.55-3.55v-.4a3.55 3.55 0 0 0-3.55-3.55h-.4ZM9.75 11.8a2.05 2.05 0 0 1 2.05-2.05h.4a2.05 2.05 0 0 1 2.05 2.05v.4a2.05 2.05 0 0 1-2.05 2.05h-.4a2.05 2.05 0 0 1-2.05-2.05v-.4Z" fill="#151E28"/></svg>