<svg viewBox="0 0 24 24" fill="none" xmlns="http://www.w3.org/2000/svg"><path fill-rule="evenodd" clip-rule="evenodd" d="M4.98 4.75c1.556 0 3.096.327 4.519.959l1.751.778v12.359l-1.142-.508A12.628 12.628 0 0 0 4.98 17.25a1.23 1.23 0 0 1-1.23-1.23V5.98c0-.68.55-1.23 1.23-1.23Zm7.34 15.929 2.181-.97a11.127 11.127 0 0 1 4.52-.959 2.73 2.73 0 0 0 2.729-2.73V5.98a2.73 2.73 0 0 0-2.73-2.73c-1.766 0-3.513.37-5.128 1.088L12 5.18l-1.892-.84A12.627 12.627 0 0 0 4.98 3.25a2.73 2.73 0 0 0-2.73 2.73v10.04a2.73 2.73 0 0 0 2.73 2.73c1.556 0 3.096.327 4.519.959l2.181.97a.744.744 0 0 0 .628.005l.011-.005Zm.43-1.833V6.487l1.751-.778a11.127 11.127 0 0 1 4.52-.959c.678 0 1.229.55 1.229 1.23v10.04c0 .68-.55 1.23-1.23 1.23-1.766 0-3.513.37-5.128 1.088l-1.142.508Z" fill="#151E28"/></svg>