<svg viewBox="0 0 24 24" fill="none" xmlns="http://www.w3.org/2000/svg"><path fill-rule="evenodd" clip-rule="evenodd" d="M9.768 2.25h4.464c.813 0 1.469 0 2 .043.546.045 1.026.14 1.47.366a3.75 3.75 0 0 1 1.64 1.639c.226.444.32.924.365 1.47.043.531.043 1.187.043 2v11.158c0 .472 0 .878-.03 1.197-.028.318-.095.692-.335 1.003a1.75 1.75 0 0 1-1.32.68c-.393.014-.736-.15-1.011-.31a14.415 14.415 0 0 1-.991-.672l-.029-.02-2.61-1.865c-.72-.515-.922-.643-1.117-.693a1.249 1.249 0 0 0-.614 0c-.195.05-.396.178-1.117.693l-2.61 1.864-.029.02c-.384.275-.714.51-.99.673-.276.16-.62.324-1.012.31a1.75 1.75 0 0 1-1.32-.68c-.24-.311-.307-.685-.336-1.003-.029-.32-.029-.725-.029-1.197V7.768c0-.813 0-1.469.043-2 .045-.546.14-1.026.366-1.47a3.75 3.75 0 0 1 1.639-1.64c.444-.226.924-.32 1.47-.365.531-.043 1.187-.043 2-.043ZM7.89 3.788c-.454.037-.715.107-.912.207a2.25 2.25 0 0 0-.984.984c-.1.197-.17.458-.207.912-.037.462-.038 1.057-.038 1.909v11.09c0 .518 0 .854.023 1.097.014.152.033.217.04.235a.25.25 0 0 0 .162.083 1.08 1.08 0 0 0 .214-.104c.21-.123.484-.318.905-.618l2.61-1.865.102-.073c.568-.406 1.014-.725 1.519-.853a2.75 2.75 0 0 1 1.35 0c.505.128.95.447 1.519.853l.102.073 2.61 1.865c.42.3.695.495.905.618.132.077.196.099.214.104a.25.25 0 0 0 .163-.083 1.15 1.15 0 0 0 .04-.235c.021-.243.022-.579.022-1.096V7.8c0-.852 0-1.447-.038-1.91-.038-.453-.107-.714-.207-.911a2.25 2.25 0 0 0-.983-.984c-.198-.1-.459-.17-.913-.207-.462-.037-1.057-.038-1.909-.038H9.8c-.852 0-1.447 0-1.91.038Z" fill="#151E28"/></svg>