<svg viewBox="0 0 24 24" fill="none" xmlns="http://www.w3.org/2000/svg"><path fill-rule="evenodd" clip-rule="evenodd" d="M2.53 1.47a.75.75 0 0 0-1.06 1.06l2.864 2.865v.001c-.084.6-.084 1.36-.084 2.344v11.186c0 .472 0 .878.03 1.197.028.318.095.692.335 1.003.317.411.8.66 1.32.68.393.014.736-.15 1.011-.31.277-.162.607-.398.991-.672l.029-.02 2.61-1.865c.72-.515.922-.643 1.117-.693.202-.051.412-.051.614 0 .195.05.396.178 1.117.693l2.61 1.864.029.02c.384.275.714.51.99.673.276.16.62.324 1.012.31a1.75 1.75 0 0 0 1.32-.68c.109-.14.182-.294.232-.449l1.853 1.853a.75.75 0 1 0 1.06-1.06l-20-20Zm15.72 17.84L5.753 6.814c-.004.285-.004.61-.004.986v11.09c0 .518 0 .854.023 1.097.014.152.033.217.04.235a.25.25 0 0 0 .162.083 1.08 1.08 0 0 0 .214-.104c.21-.123.484-.318.905-.618l2.61-1.865.102-.073c.568-.406 1.014-.725 1.519-.853a2.75 2.75 0 0 1 1.35 0c.505.128.95.447 1.519.853l.102.073 2.61 1.865c.42.3.695.495.905.618.132.077.196.099.214.104a.25.25 0 0 0 .163-.083c.006-.018.023-.077.037-.211.017-.17.022-.392.024-.701ZM9.8 2.25h-.06c-.983 0-1.744 0-2.344.084a.75.75 0 1 0 .208 1.485C8.087 3.752 8.74 3.75 9.8 3.75h4.4c.853 0 1.447 0 1.91.038.453.037.714.107.912.207.423.216.767.56.983.984.1.197.17.458.207.912.037.462.038 1.057.038 1.909V15a.75.75 0 0 0 1.5 0V7.768c0-.813 0-1.469-.043-2-.045-.546-.14-1.026-.366-1.47a3.75 3.75 0 0 0-1.639-1.64c-.444-.226-.924-.32-1.47-.365-.531-.043-1.187-.043-2-.043H9.8Z" fill="#151E28"/></svg>