<svg viewBox="0 0 24 24" fill="none" xmlns="http://www.w3.org/2000/svg"><path fill-rule="evenodd" clip-rule="evenodd" d="M3 3.25a.75.75 0 0 0 0 1.5h18a.75.75 0 0 0 0-1.5H3ZM12 9a1 1 0 1 0 0-2 1 1 0 0 0 0 2Zm1 3a1 1 0 1 1-2 0 1 1 0 0 1 2 0Zm0 8a1 1 0 1 1-2 0 1 1 0 0 1 2 0Zm0-4a1 1 0 1 1-2 0 1 1 0 0 1 2 0Zm-5 5a1 1 0 1 0 0-2 1 1 0 0 0 0 2Zm1-9a1 1 0 1 1-2 0 1 1 0 0 1 2 0Zm11 9a1 1 0 1 0 0-2 1 1 0 0 0 0 2ZM5 20a1 1 0 1 1-2 0 1 1 0 0 1 2 0Zm15-7a1 1 0 1 0 0-2 1 1 0 0 0 0 2ZM5 12a1 1 0 1 1-2 0 1 1 0 0 1 2 0Zm15-3a1 1 0 1 0 0-2 1 1 0 0 0 0 2ZM5 8a1 1 0 1 1-2 0 1 1 0 0 1 2 0Zm15 9a1 1 0 1 0 0-2 1 1 0 0 0 0 2ZM5 16a1 1 0 1 1-2 0 1 1 0 0 1 2 0Zm11 5a1 1 0 1 0 0-2 1 1 0 0 0 0 2Zm1-9a1 1 0 1 1-2 0 1 1 0 0 1 2 0Z" fill="#151E28"/></svg>