<svg viewBox="0 0 24 24" fill="none" xmlns="http://www.w3.org/2000/svg"><path fill-rule="evenodd" clip-rule="evenodd" d="M8.306 2.25H8.18c-.704 0-1.257-.001-1.745.19a2.75 2.75 0 0 0-1.103.796c-.337.402-.51.926-.733 1.595l-.04.12-1.265 3.795a.744.744 0 0 0-.044.271v8.813c0 .535 0 .98.03 1.345.03.38.098.736.27 1.073a2.75 2.75 0 0 0 1.2 1.202c.338.172.694.24 1.074.27.364.03.81.03 1.344.03h9.661c.535 0 .98 0 1.345-.03.38-.03.736-.098 1.073-.27a2.75 2.75 0 0 0 1.202-1.201c.172-.338.24-.694.27-1.074.03-.365.03-.81.03-1.345V9.019a.747.747 0 0 0-.044-.272L19.44 4.952l-.04-.12c-.222-.669-.396-1.193-.733-1.595a2.75 2.75 0 0 0-1.103-.795c-.488-.192-1.04-.192-1.745-.191H8.306Zm10.653 6-.941-2.825c-.283-.847-.37-1.071-.5-1.227a1.25 1.25 0 0 0-.502-.361c-.188-.074-.429-.087-1.322-.087H8.306c-.893 0-1.133.013-1.322.087a1.25 1.25 0 0 0-.501.361c-.13.155-.218.38-.5 1.227L5.04 8.25h13.918ZM4.75 17.8V9.75h14.5v8.05c0 .572 0 .957-.024 1.252-.023.288-.065.425-.111.515a1.25 1.25 0 0 1-.547.547c-.09.046-.227.088-.515.111-.295.024-.68.025-1.252.025H7.2c-.572 0-.957 0-1.253-.025-.287-.023-.424-.065-.515-.111a1.25 1.25 0 0 1-.546-.547c-.046-.09-.088-.227-.111-.515-.024-.295-.025-.68-.025-1.252Z" fill="#151E28"/></svg>