<svg viewBox="0 0 24 24" fill="none" xmlns="http://www.w3.org/2000/svg"><path fill-rule="evenodd" clip-rule="evenodd" d="M8.18 2.25h7.64c.704 0 1.257-.001 1.745.19a2.75 2.75 0 0 1 1.103.796c.337.403.51.927.733 1.595l.04.12 1.265 3.796a.736.736 0 0 1 .044.271v8.812c0 .535 0 .98-.03 1.345-.03.38-.098.736-.27 1.074a2.75 2.75 0 0 1-1.202 1.201c-.337.172-.694.24-1.073.27-.365.03-.81.03-1.345.03H7.17c-.535 0-.98 0-1.345-.03-.38-.03-.736-.098-1.074-.27a2.75 2.75 0 0 1-1.201-1.2c-.172-.338-.24-.694-.27-1.074-.03-.364-.03-.81-.03-1.344V9.017a.745.745 0 0 1 .044-.27L4.56 4.95l.04-.12c.222-.669.396-1.193.733-1.595a2.75 2.75 0 0 1 1.103-.795c.488-.192 1.04-.192 1.745-.191Zm4.185 1.5h-.73l-.813 4.884a5.243 5.243 0 0 0-.072.863V14c0 .138.112.25.25.25h2a.25.25 0 0 0 .25-.25V9.497c0-.29-.024-.578-.071-.863l-.814-4.884Zm-2.25 0H8.306c-.893 0-1.133.013-1.322.087a1.25 1.25 0 0 0-.501.361c-.13.156-.218.38-.5 1.227L5.04 8.25h4.324l.75-4.5Zm-.865 6h-4.5v8.05c0 .572 0 .957.025 1.253.023.287.065.424.111.515.12.235.311.426.546.546.091.046.228.088.515.111.296.024.68.025 1.253.025h9.6c.572 0 .957 0 1.252-.025.288-.023.425-.065.515-.111a1.25 1.25 0 0 0 .547-.546c.046-.091.088-.228.111-.515.024-.296.025-.68.025-1.253V9.75h-4.5V14A1.75 1.75 0 0 1 13 15.75h-2A1.75 1.75 0 0 1 9.25 14V9.75Zm5.386-1.5-.75-4.5h1.808c.893 0 1.134.013 1.322.087.195.076.367.2.501.361.13.156.218.38.5 1.227l.942 2.825h-4.323Z" fill="#151E28"/></svg>