<svg viewBox="0 0 24 24" fill="none" xmlns="http://www.w3.org/2000/svg"><path fill-rule="evenodd" clip-rule="evenodd" d="M8.18 2.25h7.64c.704 0 1.257-.001 1.745.19a2.75 2.75 0 0 1 1.103.796c.337.402.51.926.733 1.595l.04.12 1.265 3.795a.744.744 0 0 1 .044.272v8.812c0 .535 0 .98-.03 1.345-.03.38-.098.736-.27 1.073a2.75 2.75 0 0 1-1.202 1.202c-.337.172-.694.24-1.073.27-.365.03-.81.03-1.345.03H7.17c-.535 0-.98 0-1.345-.03-.38-.03-.736-.098-1.074-.27a2.75 2.75 0 0 1-1.201-1.2c-.172-.338-.24-.694-.27-1.074-.03-.365-.03-.81-.03-1.345V9.017a.745.745 0 0 1 .044-.271L4.56 4.951l.04-.12c.222-.669.396-1.193.733-1.595a2.75 2.75 0 0 1 1.103-.795c.488-.192 1.04-.192 1.745-.191Zm3.07 1.5H8.306c-.893 0-1.133.013-1.322.087a1.25 1.25 0 0 0-.501.361c-.13.155-.218.38-.5 1.227L5.04 8.25h6.21v-4.5Zm1.5 4.5v-4.5h2.944c.893 0 1.134.013 1.322.087.195.076.367.2.501.361.13.155.218.38.5 1.227l.942 2.825H12.75ZM12 9.75H4.75v8.05c0 .572 0 .957.025 1.252.023.288.065.425.111.515.12.236.311.427.546.547.091.046.228.088.515.111.296.024.68.025 1.253.025h9.6c.572 0 .957 0 1.252-.025.288-.023.425-.065.515-.111a1.25 1.25 0 0 0 .547-.547c.046-.09.088-.227.111-.515.024-.295.025-.68.025-1.252V9.75H12Z" fill="#151E28"/></svg>