<svg viewBox="0 0 24 24" fill="none" xmlns="http://www.w3.org/2000/svg"><path fill-rule="evenodd" clip-rule="evenodd" d="M3.75 12a8.25 8.25 0 1 1 16.5 0 8.25 8.25 0 0 1-16.5 0ZM12 2.25c-5.385 0-9.75 4.365-9.75 9.75s4.365 9.75 9.75 9.75 9.75-4.365 9.75-9.75S17.385 2.25 12 2.25Zm-2 5A2.75 2.75 0 0 0 7.25 10v4A2.75 2.75 0 0 0 10 16.75a.75.75 0 0 0 0-1.5c-.69 0-1.25-.56-1.25-1.25v-4c0-.69.56-1.25 1.25-1.25a.75.75 0 0 0 0-1.5Zm4 0a.75.75 0 0 0 0 1.5c.69 0 1.25.56 1.25 1.25v4c0 .69-.56 1.25-1.25 1.25a.75.75 0 0 0 0 1.5A2.75 2.75 0 0 0 16.75 14v-4A2.75 2.75 0 0 0 14 7.25Z" fill="#151E28"/></svg>