<svg viewBox="0 0 24 24" fill="none" xmlns="http://www.w3.org/2000/svg"><path fill-rule="evenodd" clip-rule="evenodd" d="M9.4 2.25h-.033c-1.092 0-1.958 0-2.655.057-.714.058-1.317.18-1.868.46a4.75 4.75 0 0 0-2.076 2.077c-.281.55-.403 1.154-.461 1.868-.057.697-.057 1.563-.057 2.655v5.266c0 1.092 0 1.958.057 2.655.058.714.18 1.317.46 1.869a4.75 4.75 0 0 0 2.077 2.075c.55.281 1.154.403 1.868.461.697.057 1.563.057 2.655.057h5.266c1.092 0 1.958 0 2.655-.057.714-.058 1.317-.18 1.869-.46a4.75 4.75 0 0 0 2.075-2.076c.281-.552.403-1.155.461-1.869.057-.697.057-1.563.057-2.655V9.367c0-1.092 0-1.958-.057-2.655-.058-.714-.18-1.317-.46-1.868a4.75 4.75 0 0 0-2.076-2.076c-.552-.281-1.155-.403-1.869-.461-.697-.057-1.563-.057-2.655-.057H9.4ZM5.525 4.104c.304-.155.688-.251 1.309-.302.63-.051 1.434-.052 2.566-.052h5.2c1.133 0 1.937 0 2.566.052.62.05 1.005.147 1.31.302a3.25 3.25 0 0 1 1.42 1.42c.155.305.251.69.302 1.31.051.63.052 1.434.052 2.566v5.2c0 1.133 0 1.937-.052 2.566-.05.62-.147 1.005-.302 1.31a3.25 3.25 0 0 1-1.42 1.42c-.305.155-.69.251-1.31.302-.63.051-1.434.052-2.566.052H9.4c-1.132 0-1.937 0-2.566-.052-.62-.05-1.005-.147-1.31-.302a3.25 3.25 0 0 1-1.42-1.42c-.155-.305-.251-.69-.302-1.31-.051-.63-.052-1.434-.052-2.566V9.4c0-1.132 0-1.937.052-2.566.05-.62.147-1.005.302-1.31a3.25 3.25 0 0 1 1.42-1.42ZM10.26 7.25c-1.15 0-2.054.948-2.054 2.083v1.302a.145.145 0 0 1-.06.12l-.375.255a1.2 1.2 0 0 0 0 1.98l.375.255c.033.023.06.066.06.12v1.302c0 1.135.904 2.083 2.054 2.083a.75.75 0 0 0 0-1.5.57.57 0 0 1-.554-.583v-1.302c0-.541-.265-1.053-.715-1.36L8.983 12l.008-.005c.45-.307.715-.819.715-1.36V9.333a.57.57 0 0 1 .554-.583.75.75 0 0 0 0-1.5Zm3.48 0a.75.75 0 0 0 0 1.5.57.57 0 0 1 .554.583v1.302c0 .541.265 1.053.715 1.36l.008.005-.008.005c-.45.307-.715.819-.715 1.36v1.302a.57.57 0 0 1-.554.583.75.75 0 0 0 0 1.5c1.15 0 2.054-.948 2.054-2.083v-1.302c0-.054.027-.098.06-.12l.375-.255a1.2 1.2 0 0 0 0-1.98l-.375-.255a.144.144 0 0 1-.06-.12V9.333c0-1.135-.904-2.083-2.054-2.083Z" fill="#151E28"/></svg>