<svg viewBox="0 0 24 24" fill="none" xmlns="http://www.w3.org/2000/svg"><path fill-rule="evenodd" clip-rule="evenodd" d="M9.326 2.25h-.073c-.419 0-.748 0-1.066.076a2.75 2.75 0 0 0-.795.33c-.28.17-.512.404-.808.7l-.052.051-3.125 3.125-.051.052c-.296.296-.53.528-.7.808a2.75 2.75 0 0 0-.33.795c-.076.318-.076.647-.076 1.066v5.494c0 .419 0 .748.076 1.067.067.28.179.548.33.794.17.28.404.513.7.808l.051.052 3.125 3.125.052.051c.296.297.528.53.808.7.246.152.514.263.795.33.318.076.647.076 1.066.076h5.494c.419 0 .748 0 1.067-.076a2.71 2.71 0 0 0 .794-.33c.28-.17.513-.403.808-.7l.052-.05 3.125-3.126.051-.052c.297-.295.53-.528.7-.808a2.71 2.71 0 0 0 .33-.794c.076-.319.076-.648.076-1.067V9.253c0-.419 0-.748-.076-1.066a2.75 2.75 0 0 0-.33-.795c-.17-.28-.403-.512-.7-.808l-.05-.052-3.126-3.125-.052-.051c-.295-.296-.528-.53-.808-.7a2.75 2.75 0 0 0-.794-.33c-.319-.076-.648-.076-1.067-.076H9.325Zm-.79 1.535c.124-.03.265-.035.79-.035h5.349c.524 0 .665.005.788.035.128.03.25.08.362.15.108.066.21.161.582.533l3.125 3.125c.372.371.467.474.534.582.068.112.119.234.15.362.03.123.034.264.034.789v5.349c0 .524-.005.665-.035.788a1.25 1.25 0 0 1-.15.362c-.066.108-.161.21-.533.582l-3.125 3.125c-.371.372-.474.467-.582.534a1.25 1.25 0 0 1-.362.15c-.123.03-.263.034-.788.034h-5.35c-.524 0-.665-.005-.788-.035a1.25 1.25 0 0 1-.362-.15c-.108-.066-.21-.161-.582-.533l-3.125-3.125c-.372-.371-.467-.474-.534-.582a1.25 1.25 0 0 1-.15-.362c-.03-.123-.034-.263-.034-.788v-5.35c0-.524.005-.665.035-.788.03-.128.08-.25.15-.362.066-.108.161-.21.533-.582l3.125-3.125c.371-.372.474-.467.582-.534a1.25 1.25 0 0 1 .362-.15ZM10.26 7.25c-1.15 0-2.054.948-2.054 2.083v1.302a.145.145 0 0 1-.06.12l-.375.255a1.2 1.2 0 0 0 0 1.98l.375.255c.033.023.06.066.06.12v1.302c0 1.135.904 2.083 2.054 2.083a.75.75 0 0 0 0-1.5.57.57 0 0 1-.554-.583v-1.302c0-.541-.265-1.053-.715-1.36L8.983 12l.008-.005c.45-.307.715-.819.715-1.36V9.333a.57.57 0 0 1 .554-.583.75.75 0 0 0 0-1.5Zm3.48 0a.75.75 0 0 0 0 1.5.57.57 0 0 1 .554.583v1.302c0 .541.265 1.053.715 1.36l.008.005-.008.005c-.45.307-.715.819-.715 1.36v1.302a.57.57 0 0 1-.554.583.75.75 0 0 0 0 1.5c1.15 0 2.054-.948 2.054-2.083v-1.302c0-.054.027-.098.06-.12l.375-.255a1.2 1.2 0 0 0 0-1.98l-.375-.255a.144.144 0 0 1-.06-.12V9.333c0-1.135-.904-2.083-2.054-2.083Z" fill="#151E28"/></svg>