<svg viewBox="0 0 24 24" fill="none" xmlns="http://www.w3.org/2000/svg"><path fill-rule="evenodd" clip-rule="evenodd" d="M7.309 5.25H4.975c-.445 0-.816 0-1.12.02a2.823 2.823 0 0 0-.907.19 2.75 2.75 0 0 0-1.489 1.488c-.12.29-.167.59-.188.907-.021.304-.021.675-.021 1.12v.05c0 .445 0 .816.02 1.12.022.318.07.617.19.907a2.75 2.75 0 0 0 1.488 1.489c.29.12.59.167.907.188.304.021.675.021 1.12.021H7.25V13a.75.75 0 0 0 1.5 0v-.25h6.5V13a.75.75 0 0 0 1.5 0v-.25h2.275c.445 0 .816 0 1.12-.02.317-.022.617-.069.907-.19a2.75 2.75 0 0 0 1.489-1.488c.12-.29.167-.59.188-.907.021-.304.021-.675.021-1.12v-.05c0-.445 0-.816-.02-1.12a2.822 2.822 0 0 0-.19-.907 2.75 2.75 0 0 0-1.488-1.489c-.29-.12-.59-.167-.907-.188-.304-.021-.675-.021-1.12-.021h-2.334a4.751 4.751 0 0 0-9.382 0Zm1.528 0h6.326a3.251 3.251 0 0 0-6.326 0Zm7.913 6H19c.476 0 .796 0 1.043-.017.241-.017.358-.046.435-.078.307-.127.55-.37.677-.677.032-.077.061-.194.078-.435.017-.247.017-.567.017-1.043s0-.796-.017-1.043c-.017-.241-.046-.358-.078-.435a1.25 1.25 0 0 0-.677-.677c-.077-.032-.194-.061-.435-.078A17.091 17.091 0 0 0 19 6.75H5c-.476 0-.796 0-1.043.017-.241.017-.358.046-.435.078a1.25 1.25 0 0 0-.677.677c-.032.077-.061.194-.078.435A17.09 17.09 0 0 0 2.75 9c0 .476 0 .796.017 1.043.017.241.046.358.078.435.127.307.37.55.677.677.077.032.194.061.435.078.247.017.567.017 1.043.017h2.25V11a.75.75 0 0 1 1.5 0v.25h6.5V11a.75.75 0 0 1 1.5 0v.25ZM3 13.25a.75.75 0 0 1 .75.75v.6c0 1.133 0 1.937.052 2.566.05.62.147 1.005.302 1.31a3.25 3.25 0 0 0 1.42 1.42c.305.155.69.251 1.31.302.63.051 1.434.052 2.566.052h5.2c1.133 0 1.937 0 2.566-.052.62-.05 1.005-.147 1.31-.302a3.25 3.25 0 0 0 1.42-1.42c.155-.305.251-.69.302-1.31.051-.63.052-1.434.052-2.566V14a.75.75 0 0 1 1.5 0v.633c0 1.092 0 1.958-.057 2.655-.058.714-.18 1.317-.46 1.869a4.75 4.75 0 0 1-2.076 2.075c-.552.281-1.155.403-1.869.461-.697.057-1.563.057-2.655.057H9.367c-1.092 0-1.958 0-2.655-.057-.714-.058-1.317-.18-1.868-.46a4.75 4.75 0 0 1-2.076-2.076c-.281-.552-.403-1.155-.461-1.869-.057-.697-.057-1.563-.057-2.655V14a.75.75 0 0 1 .75-.75Z" fill="#151E28"/></svg>