<svg viewBox="0 0 24 24" fill="none" xmlns="http://www.w3.org/2000/svg"><path fill-rule="evenodd" clip-rule="evenodd" d="M7.376 3.987a.75.75 0 1 0-.752-1.298A10.746 10.746 0 0 0 1.25 12c0 3.98 2.163 7.454 5.374 9.312a.75.75 0 1 0 .752-1.299A9.246 9.246 0 0 1 2.75 12a9.246 9.246 0 0 1 4.626-8.013Zm10-1.298a.75.75 0 1 0-.752 1.298A9.246 9.246 0 0 1 21.25 12a9.246 9.246 0 0 1-4.625 8.013.75.75 0 1 0 .75 1.299A10.746 10.746 0 0 0 22.75 12c0-3.98-2.163-7.454-5.375-9.311ZM8.558 7.028A.75.75 0 0 1 8.5 8.087 5.235 5.235 0 0 0 6.75 12c0 1.555.675 2.951 1.75 3.914a.75.75 0 1 1-1 1.117 6.735 6.735 0 0 1-2.25-5.03c0-2 .87-3.797 2.25-5.032a.75.75 0 0 1 1.059.059Zm6.882 0a.75.75 0 0 1 1.06-.059A6.735 6.735 0 0 1 18.75 12c0 2-.87 3.796-2.25 5.031a.75.75 0 0 1-1-1.117A5.235 5.235 0 0 0 17.25 12a5.235 5.235 0 0 0-1.75-3.913.75.75 0 0 1-.059-1.06ZM12 10.75a1.25 1.25 0 1 0 0 2.5 1.25 1.25 0 0 0 0-2.5ZM9.25 12a2.75 2.75 0 1 1 5.5 0 2.75 2.75 0 0 1-5.5 0Z" fill="#151E28"/></svg>