<svg viewBox="0 0 24 24" fill="none" xmlns="http://www.w3.org/2000/svg"><path fill-rule="evenodd" clip-rule="evenodd" d="M12 3.75A2.25 2.25 0 0 0 9.75 6v5a.75.75 0 0 1-.75.75A2.75 2.75 0 0 1 6.25 9v-.5a.75.75 0 0 0-1.5 0V9a4.251 4.251 0 0 0 2.595 3.916C8.47 13.392 9.75 14.446 9.75 16v5a.75.75 0 0 1-1.5 0v-5c0-.654-.58-1.318-1.49-1.703A5.751 5.751 0 0 1 3.25 9v-.5a2.25 2.25 0 0 1 4.5 0V9c0 .409.196.772.5 1V6a3.75 3.75 0 1 1 7.5 0v8c.304-.228.5-.591.5-1v-.5a2.25 2.25 0 0 1 4.5 0v.5a5.751 5.751 0 0 1-3.51 5.297c-.91.385-1.49 1.049-1.49 1.703v1a.75.75 0 0 1-1.5 0v-1c0-1.555 1.28-2.608 2.405-3.084A4.252 4.252 0 0 0 19.25 13v-.5a.75.75 0 0 0-1.5 0v.5A2.75 2.75 0 0 1 15 15.75a.75.75 0 0 1-.75-.75V6A2.25 2.25 0 0 0 12 3.75Z" fill="#151E28"/></svg>