<svg viewBox="0 0 24 24" fill="none" xmlns="http://www.w3.org/2000/svg"><path fill-rule="evenodd" clip-rule="evenodd" d="M7.999 5.376a2.378 2.378 0 0 1 2.256-1.626h3.49a2.38 2.38 0 0 1 2.257 1.626 2.314 2.314 0 0 0 1.741 1.537l.065.013a4.282 4.282 0 0 1 3.442 4.2v2.18c0 1.615-.005 2.299-.128 2.848a5.25 5.25 0 0 1-3.968 3.968c-.55.123-1.233.128-2.847.128H9.693c-1.614 0-2.298-.005-2.847-.128a5.25 5.25 0 0 1-3.968-3.968c-.123-.55-.128-1.233-.128-2.847v-2.181a4.282 4.282 0 0 1 3.443-4.2l.064-.013A2.314 2.314 0 0 0 8 5.376Zm2.256-3.126a3.878 3.878 0 0 0-3.68 2.652.814.814 0 0 1-.612.54l-.065.013a5.782 5.782 0 0 0-4.648 5.67v2.301c0 1.46 0 2.324.165 3.058a6.75 6.75 0 0 0 5.101 5.1c.734.166 1.598.166 3.058.166h4.852c1.46 0 2.324 0 3.058-.165a6.75 6.75 0 0 0 5.1-5.101c.166-.734.166-1.598.166-3.058v-2.3a5.782 5.782 0 0 0-4.648-5.67l-.065-.013a.814.814 0 0 1-.613-.541 3.878 3.878 0 0 0-3.679-2.652h-3.49Zm1.445 6.5a3.95 3.95 0 0 0-3.95 3.95v.6a3.95 3.95 0 0 0 3.95 3.95h.6a3.95 3.95 0 0 0 3.95-3.95v-.6a3.95 3.95 0 0 0-3.95-3.95h-.6ZM9.25 12.7a2.45 2.45 0 0 1 2.45-2.45h.6a2.45 2.45 0 0 1 2.45 2.45v.6a2.45 2.45 0 0 1-2.45 2.45h-.6a2.45 2.45 0 0 1-2.45-2.45v-.6Z" fill="#151E28"/></svg>