<svg viewBox="0 0 24 24" fill="none" xmlns="http://www.w3.org/2000/svg"><path fill-rule="evenodd" clip-rule="evenodd" d="M4.975 4.25h14.05c.445 0 .816 0 1.12.02.317.022.617.07.907.19l-.287.692.287-.693a2.75 2.75 0 0 1 1.488 1.489c.12.29.167.59.189.907.02.304.02.675.02 1.12v.05c0 .445 0 .816-.02 1.12a2.822 2.822 0 0 1-.189.907 2.75 2.75 0 0 1-1.488 1.489c-.321.133-.655.176-1.014.195a.75.75 0 0 1-.076-1.498c.296-.016.43-.047.516-.083.306-.127.55-.37.677-.677.032-.077.061-.194.078-.435.016-.247.017-.567.017-1.043s0-.796-.017-1.043c-.017-.241-.046-.358-.078-.435a1.25 1.25 0 0 0-.677-.677c-.077-.032-.194-.061-.435-.078A17.086 17.086 0 0 0 19 5.75H5c-.476 0-.796 0-1.043.017-.241.017-.358.046-.435.078a1.25 1.25 0 0 0-.677.677c-.032.077-.061.194-.078.435A17.09 17.09 0 0 0 2.75 8c0 .476 0 .796.017 1.043.017.241.046.358.078.435.127.307.37.55.677.677.086.036.22.067.516.083a.75.75 0 0 1-.076 1.498c-.359-.019-.693-.062-1.014-.195a2.75 2.75 0 0 1-1.489-1.489c-.12-.29-.167-.59-.188-.907-.021-.304-.021-.675-.021-1.12v-.05c0-.445 0-.816.02-1.12a2.84 2.84 0 0 1 .19-.907 2.75 2.75 0 0 1 1.488-1.489c.29-.12.59-.167.907-.188.304-.021.675-.021 1.12-.021ZM4.25 8A.75.75 0 0 1 5 7.25h14a.75.75 0 0 1 0 1.5h-.25v9.08c0 .535 0 .98-.03 1.345-.03.38-.098.736-.27 1.073a2.75 2.75 0 0 1-1.202 1.202c-.337.172-.694.24-1.073.27-.324.027-.71.03-1.167.03H9.17c-.535 0-.98 0-1.345-.03-.38-.03-.736-.098-1.074-.27a2.75 2.75 0 0 1-1.201-1.2c-.172-.338-.24-.694-.27-1.074-.03-.364-.03-.81-.03-1.345V8.75H5A.75.75 0 0 1 4.25 8Zm2.5.75h7.5v11.5H9.2c-.572 0-.957 0-1.253-.025-.287-.023-.424-.065-.515-.111a1.25 1.25 0 0 1-.546-.547c-.046-.09-.088-.227-.111-.515-.024-.295-.025-.68-.025-1.252V8.75Zm9 0v11.492c.111-.004.211-.01.302-.017.288-.023.425-.065.515-.111a1.25 1.25 0 0 0 .547-.547c.046-.09.088-.227.111-.515.024-.295.025-.68.025-1.252V8.75h-1.5Zm-3 6.75a.75.75 0 0 0-1.5 0V18a.75.75 0 1 0 1.5 0v-2.5Z" fill="#151E28"/></svg>