<svg viewBox="0 0 24 24" fill="none" xmlns="http://www.w3.org/2000/svg"><path fill-rule="evenodd" clip-rule="evenodd" d="M19.25 4.521a.75.75 0 0 0-.94-.747l-1.862.486-1.049-1.84a.75.75 0 0 0-1.334.06l-1.006 2.21a.75.75 0 0 0 1.366.62l.397-.873.607 1.065a.75.75 0 0 0 .841.354l1.452-.378-.044 1.5a.75.75 0 0 0 .534.74l1.175.352-.843.645a.75.75 0 0 0 .912 1.19l2.007-1.536a.75.75 0 0 0-.24-1.314l-2.029-.61.056-1.924ZM15.53 8.47c-2.344-2.345-6.288-1.752-7.84 1.178l-4.832 9.129c-.806 1.523.842 3.171 2.365 2.365l9.128-4.832c2.93-1.552 3.524-5.496 1.18-7.84Zm-6.514 1.88c1.08-2.038 3.823-2.45 5.454-.82 1.386 1.386 1.296 3.577-.014 4.865L12.53 12.47a.75.75 0 0 0-1.06 1.06l1.705 1.705-8.654 4.581a.25.25 0 0 1-.337-.337l1.811-3.423.475.474a.75.75 0 1 0 1.06-1.06l-.8-.801 2.286-4.319Z" fill="#151E28"/></svg>