<svg viewBox="0 0 24 24" fill="none" xmlns="http://www.w3.org/2000/svg"><path fill-rule="evenodd" clip-rule="evenodd" d="M14.633 3.25H9.367c-1.092 0-1.958 0-2.655.057-.714.058-1.317.18-1.868.46a4.75 4.75 0 0 0-2.076 2.077c-.281.55-.403 1.154-.461 1.868-.057.697-.057 1.563-.057 2.655V20a.75.75 0 0 0 1.166.624l1.388-.925c.62-.414.857-.569 1.107-.678.234-.102.479-.176.73-.22.268-.048.55-.051 1.297-.051h6.695c1.092 0 1.958 0 2.655-.057.714-.058 1.317-.18 1.869-.46a4.75 4.75 0 0 0 2.075-2.076c.281-.552.403-1.155.461-1.869.057-.697.057-1.563.057-2.655v-1.266c0-1.092 0-1.958-.057-2.655-.058-.714-.18-1.317-.46-1.868a4.75 4.75 0 0 0-2.076-2.076c-.552-.281-1.155-.403-1.869-.461-.697-.057-1.563-.057-2.655-.057Zm2.533 1.552c.62.05 1.005.147 1.31.302a3.25 3.25 0 0 1 1.42 1.42c.155.305.251.69.302 1.31.051.63.052 1.434.052 2.566v1.2c0 1.133 0 1.937-.052 2.566-.05.62-.147 1.005-.302 1.31a3.25 3.25 0 0 1-1.42 1.42c-.305.155-.69.251-1.31.302-.63.051-1.434.052-2.566.052H7.87c-.656 0-1.078 0-1.492.074a4.752 4.752 0 0 0-1.067.323c-.386.168-.737.402-1.283.766l-.056.038-.222.148V10.4c0-1.132 0-1.937.052-2.566.05-.62.147-1.005.302-1.31a3.25 3.25 0 0 1 1.42-1.42c.305-.155.69-.251 1.31-.302.63-.051 1.434-.052 2.566-.052h5.2c1.133 0 1.937 0 2.566.052ZM13 15a1 1 0 1 1-2 0 1 1 0 0 1 2 0Zm.099-6.815c.123.215.146.481.15.72a2.76 2.76 0 0 1-.174.272 19.64 19.64 0 0 1-.66.854l-.01.013c-.243.303-.505.63-.705.914-.102.144-.2.295-.277.44a1.32 1.32 0 0 0-.173.602.75.75 0 0 0 1.492.113l.007-.015c.033-.062.09-.153.176-.275.172-.243.406-.536.66-.854l.01-.013c.243-.303.505-.63.705-.914.102-.144.2-.295.277-.44A1.32 1.32 0 0 0 14.75 9v-.021c0-.258.001-.926-.349-1.539-.406-.71-1.18-1.19-2.401-1.19-.631 0-1.155.16-1.572.438a2.505 2.505 0 0 0-.849.977 3.207 3.207 0 0 0-.328 1.288v.03l-.001.01v.006L10 9h-.75a.75.75 0 0 0 1.5.006v-.003l.002-.036a1.71 1.71 0 0 1 .169-.632c.08-.16.19-.299.339-.398.145-.097.371-.187.74-.187.779 0 1.005.27 1.099.435Zm.174.67-.004.01a.062.062 0 0 1 .004-.01Zm-.546 3.29.004-.01a.062.062 0 0 1-.004.01Z" fill="#151E28"/></svg>