<svg viewBox="0 0 24 24" fill="none" xmlns="http://www.w3.org/2000/svg"><path fill-rule="evenodd" clip-rule="evenodd" d="M3.75 12A8.25 8.25 0 1 1 12 20.25c-1.454 0-2.615-.282-3.485-.62l-.012-.005a70.028 70.028 0 0 0-1.526-.581c-.348-.125-.679-.233-.938-.255h-.008a2.639 2.639 0 0 0-.52-.01c-.18.02-.346.072-.506.122l-.008.002c-.232.072-.46.197-.692.339-.158.096-.341.216-.555.357V12ZM12 2.25A9.75 9.75 0 0 0 2.25 12v9a.75.75 0 0 0 1.166.624l.817-.545c.38-.253.647-.431.854-.557.213-.13.31-.172.354-.186.19-.059.217-.063.233-.065.015-.002.043-.004.24.013h.001c.005 0 .046.007.145.035.1.03.234.073.41.137.355.127.839.314 1.502.572 1.03.4 2.375.722 4.028.722 5.385 0 9.75-4.365 9.75-9.75S17.385 2.25 12 2.25Zm-1.97 6.72a.75.75 0 1 0-1.06 1.06L10.94 12l-1.97 1.97a.75.75 0 1 0 1.06 1.06L12 13.06l1.97 1.97a.75.75 0 1 0 1.06-1.06L13.06 12l1.97-1.97a.75.75 0 1 0-1.06-1.06L12 10.94l-1.97-1.97Z" fill="#151E28"/></svg>