<svg viewBox="0 0 24 24" fill="none" xmlns="http://www.w3.org/2000/svg"><path fill-rule="evenodd" clip-rule="evenodd" d="M2.5 11.504a7.004 7.004 0 1 1 7.004 7.004 8.283 8.283 0 0 1-2.655-.415l-.011-.004c-.693-.233-1.226-.413-1.62-.535-.363-.113-.702-.21-.952-.223l-.036-.002c-.148-.007-.307-.016-.468.006-.16.021-.312.07-.453.116l-.033.011c-.22.072-.44.194-.664.331l-.112.07v-6.359ZM9.504 3A8.504 8.504 0 0 0 1 11.504v7.754a.75.75 0 0 0 1.166.624l.402-.268c.37-.246.63-.42.83-.543.207-.127.3-.169.341-.182.093-.03.144-.047.183-.058l.037-.01h.039a6.162 6.162 0 0 1 .192.008c.008.002.051.008.147.031.106.027.248.068.435.126.375.117.892.29 1.598.528a9.779 9.779 0 0 0 3.134.494A8.504 8.504 0 1 0 9.504 3Zm9.466 6.603a.75.75 0 1 1 .892-1.206 7.473 7.473 0 0 1 3.036 6.018v6.733a.75.75 0 0 1-1.167.623l-.06-.04a31.195 31.195 0 0 0-.8-.523 1.946 1.946 0 0 0-.326-.177l-.057-.02a5.618 5.618 0 0 0-.15-.05h-.024c-.032 0-.07 0-.134.002h-.06c.002 0 .002 0-.001.001-.011.002-.055.007-.15.027-.112.023-.263.06-.462.112-.398.104-.952.26-1.705.474-.671.19-1.467.32-2.387.32a7.48 7.48 0 0 1-2.271-.35.75.75 0 0 1 .455-1.43c.572.182 1.182.28 1.816.28.776 0 1.435-.11 1.978-.263l.01-.003c.742-.21 1.31-.37 1.724-.48.38-.099.728-.183.968-.187l.055-.001c.13-.003.279-.006.421.017.142.022.283.07.407.113l.051.018c.122.042.245.1.369.167v-5.363a5.973 5.973 0 0 0-2.428-4.812Z" fill="#151E28"/></svg>