<svg viewBox="0 0 24 24" fill="none" xmlns="http://www.w3.org/2000/svg"><path fill-rule="evenodd" clip-rule="evenodd" d="M2.53 1.47a.75.75 0 0 0-1.06 1.06l2.14 2.142A4.736 4.736 0 0 0 2.25 8v12a.75.75 0 0 0 1.166.624l1.992-1.328a3.25 3.25 0 0 1 1.803-.546H17a4.8 4.8 0 0 0 .644-.045l3.826 3.825a.75.75 0 1 0 1.06-1.06l-20-20Zm13.66 15.78L4.671 5.732A3.238 3.238 0 0 0 3.75 8v10.599l.826-.551a4.75 4.75 0 0 1 2.635-.798h8.978ZM8 3.25a.75.75 0 0 0 0 1.5h9A3.25 3.25 0 0 1 20.25 8v6a3.23 3.23 0 0 1-.434 1.624.75.75 0 1 0 1.298.751A4.724 4.724 0 0 0 21.75 14V8A4.75 4.75 0 0 0 17 3.25H8Z" fill="#151E28"/></svg>