<svg viewBox="0 0 24 24" fill="none" xmlns="http://www.w3.org/2000/svg"><path fill-rule="evenodd" clip-rule="evenodd" d="m14 3 .586-.469a.75.75 0 0 0-.679-.275L14 3Zm0 0 .586-.468.002.002.002.003.008.01a3.24 3.24 0 0 1 .1.135c.063.09.15.219.253.386.206.334.474.82.74 1.453.534 1.267 1.06 3.116 1.06 5.479a.75.75 0 0 1-1.5 0c0-2.137-.475-3.788-.942-4.896a9.236 9.236 0 0 0-.633-1.246 5.508 5.508 0 0 0-1.476.805c-1.112.833-2.525 2.445-3.483 5.558a.75.75 0 0 1-1.433-.442C8.326 6.392 9.912 4.504 11.3 3.463a7.005 7.005 0 0 1 1.786-.988 4.905 4.905 0 0 1 .739-.206l.052-.01.018-.002h.01v-.001c.002 0 .002 0 .095.744ZM2.25 16.414c0-2.667 1.711-5.164 4.188-5.164A3.52 3.52 0 0 1 8 11.619a3.52 3.52 0 0 1 1.563-.369c2.476 0 4.187 2.497 4.187 5.164 0 1.718-.733 3.063-1.836 3.968-1.087.893-2.507 1.342-3.9 1.367-1.393.025-2.825-.374-3.923-1.263-1.118-.905-1.84-2.279-1.84-4.072Zm4.188-3.664c-1.32 0-2.688 1.455-2.688 3.664 0 1.352.527 2.293 1.285 2.906.776.628 1.845.949 2.952.93 1.107-.02 2.187-.38 2.975-1.027.771-.633 1.288-1.56 1.288-2.81 0-2.208-1.367-3.663-2.687-3.663a2.08 2.08 0 0 0-1.151.358.75.75 0 0 1-.823 0 2.08 2.08 0 0 0-1.151-.358Zm6.806-1.289A3.487 3.487 0 0 1 16 11.62a3.52 3.52 0 0 1 1.563-.369c2.476 0 4.187 2.497 4.187 5.164 0 2.336-1.347 3.944-3.076 4.74-1.696.78-3.803.806-5.493.011a.75.75 0 1 1 .638-1.357c1.272.598 2.916.587 4.228-.017 1.281-.59 2.203-1.714 2.203-3.377 0-2.209-1.367-3.664-2.687-3.664a2.08 2.08 0 0 0-1.151.358.75.75 0 0 1-.823 0 2.081 2.081 0 0 0-1.151-.358 2 2 0 0 0-.682.121.75.75 0 0 1-.512-1.41Z" fill="#151E28"/></svg>