<svg viewBox="0 0 24 24" fill="none" xmlns="http://www.w3.org/2000/svg"><path fill-rule="evenodd" clip-rule="evenodd" d="M12 2.75a9.25 9.25 0 1 0 0 18.5 9.25 9.25 0 0 0 0-18.5ZM1.25 12C1.25 6.063 6.063 1.25 12 1.25S22.75 6.063 22.75 12 17.937 22.75 12 22.75 1.25 17.937 1.25 12Zm14.28.47a.75.75 0 0 1 0 1.06l-3 3a.75.75 0 0 1-1.06 0l-3-3a.75.75 0 1 1 1.06-1.06L12 14.94l2.47-2.47a.75.75 0 0 1 1.06 0Zm0-2.94a.75.75 0 0 0-1.06-1.06L12 10.94 9.53 8.47a.75.75 0 0 0-1.06 1.06l3 3a.75.75 0 0 0 1.06 0l3-3Z" fill="#151E28"/></svg>