<svg viewBox="0 0 24 24" fill="none" xmlns="http://www.w3.org/2000/svg"><path fill-rule="evenodd" clip-rule="evenodd" d="M17 2.25h.095c.838 0 1.372 0 1.832.091a4.75 4.75 0 0 1 3.732 3.732c.091.46.091.994.091 1.832v8.19c0 .838 0 1.372-.091 1.832a4.75 4.75 0 0 1-3.732 3.732c-.46.091-.994.091-1.832.091H6.905c-.838 0-1.372 0-1.832-.091a4.75 4.75 0 0 1-3.732-3.732c-.091-.46-.091-.994-.091-1.832v-8.19c0-.838 0-1.372.091-1.832a4.75 4.75 0 0 1 3.732-3.732c.46-.091.994-.091 1.832-.091H17Zm1.634 1.562c-.296-.058-.669-.062-1.634-.062H7c-.965 0-1.338.004-1.634.062a3.25 3.25 0 0 0-2.554 2.554c-.058.296-.062.669-.062 1.634v8c0 .965.004 1.338.062 1.634a3.25 3.25 0 0 0 2.554 2.554c.296.058.669.062 1.634.062h10c.965 0 1.338-.004 1.634-.062a3.25 3.25 0 0 0 2.554-2.554c.058-.296.062-.669.062-1.634V8c0-.965-.004-1.338-.062-1.634a3.25 3.25 0 0 0-2.554-2.554ZM8.621 8.25h-.017c-.096 0-.17 0-.235.003a2.75 2.75 0 0 0-2.616 2.616c-.003.066-.003.14-.003.235v1.793a2.75 2.75 0 0 0 2.854 2.854l.017-.001h.116a2.75 2.75 0 0 0 1.91-.836l.005-.005.378-.379a.75.75 0 1 0-1.06-1.06l-.379.378a1.25 1.25 0 0 1-.89.401l-.08.001-.18-.001a1.25 1.25 0 0 1-1.19-1.19 4.666 4.666 0 0 1-.001-.18V11.12l.001-.18a1.25 1.25 0 0 1 1.19-1.19 4.671 4.671 0 0 1 .26 0 1.25 1.25 0 0 1 .89.4l.379.38a.75.75 0 1 0 1.06-1.061l-.378-.379-.006-.005c-.03-.03-.053-.054-.077-.076a2.75 2.75 0 0 0-1.832-.76h-.116Zm7 0h-.018c-.095 0-.168 0-.234.003a2.75 2.75 0 0 0-2.616 2.616c-.003.066-.003.14-.003.235v1.793a2.75 2.75 0 0 0 2.854 2.854l.017-.001h.116a2.75 2.75 0 0 0 1.832-.76l.078-.076.005-.005.378-.379a.75.75 0 1 0-1.06-1.06l-.379.378a1.25 1.25 0 0 1-.89.401l-.08.001-.18-.001a1.25 1.25 0 0 1-1.19-1.19 4.715 4.715 0 0 1-.001-.18V11.12l.001-.18a1.25 1.25 0 0 1 1.19-1.19 4.666 4.666 0 0 1 .26 0 1.25 1.25 0 0 1 .89.4l.379.38a.75.75 0 1 0 1.06-1.061l-.378-.379-.006-.005c-.03-.03-.053-.054-.077-.076a2.75 2.75 0 0 0-1.832-.76h-.116Z" fill="#151E28"/></svg>