<svg viewBox="0 0 24 24" fill="none" xmlns="http://www.w3.org/2000/svg"><path fill-rule="evenodd" clip-rule="evenodd" d="M8.318 6.876A4.25 4.25 0 0 1 16.25 9c0 .414.336.75.75.75a4.25 4.25 0 0 1 .85 8.415.75.75 0 1 0 .3 1.47 5.752 5.752 0 0 0-.443-11.342A5.751 5.751 0 0 0 7.02 6.124a.75.75 0 1 0 1.298.752ZM2.75 14a4.25 4.25 0 0 1 5.95-3.897.75.75 0 0 0 .6-1.374 5.75 5.75 0 1 0-3.45 10.906.75.75 0 0 0 .3-1.47A4.252 4.252 0 0 1 2.75 14Zm13 1a.75.75 0 0 0-1.5 0v.25H14a.75.75 0 0 0 0 1.5h.25V17a.75.75 0 0 0 1.5 0v-.25H16a.75.75 0 0 0 0-1.5h-.25V15ZM9 14.25a.75.75 0 0 1 .75.75v.25H10a.75.75 0 0 1 0 1.5h-.25V17a.75.75 0 0 1-1.5 0v-.25H8a.75.75 0 0 1 0-1.5h.25V15a.75.75 0 0 1 .75-.75ZM12.75 20a.75.75 0 0 0-1.5 0v.25H11a.75.75 0 0 0 0 1.5h.25V22a.75.75 0 0 0 1.5 0v-.25H13a.75.75 0 0 0 0-1.5h-.25V20Z" fill="#151E28"/></svg>