<svg viewBox="0 0 24 24" fill="none" xmlns="http://www.w3.org/2000/svg"><path fill-rule="evenodd" clip-rule="evenodd" d="M8.318 6.876A4.25 4.25 0 0 1 16.25 9c0 .414.336.75.75.75a4.25 4.25 0 0 1 0 8.5.75.75 0 0 0 0 1.5 5.75 5.75 0 0 0 .707-11.457A5.751 5.751 0 0 0 7.02 6.124a.75.75 0 1 0 1.298.752ZM2.75 14a4.25 4.25 0 0 1 5.95-3.897.75.75 0 0 0 .6-1.374A5.75 5.75 0 1 0 7 19.75a.75.75 0 0 0 0-1.5A4.25 4.25 0 0 1 2.75 14Zm11.978-1.818a.75.75 0 0 0-1.258-.712l-5 5a.75.75 0 0 0 .195 1.2l1.462.732-.855 3.416a.75.75 0 0 0 1.258.712l5-5a.75.75 0 0 0-.195-1.2l-1.462-.732.855-3.416Zm-3.393 5.147-1.069-.535 2.35-2.349-.344 1.373a.75.75 0 0 0 .393.853l1.069.535-2.35 2.349.344-1.373a.75.75 0 0 0-.393-.853Z" fill="#151E28"/></svg>