<svg viewBox="0 0 24 24" fill="none" xmlns="http://www.w3.org/2000/svg"><path fill-rule="evenodd" clip-rule="evenodd" d="M4.753 15.005c-.967-.967-1.362-2.405-1.131-4.02.23-1.616 1.087-3.36 2.545-4.819 1.458-1.458 3.202-2.314 4.818-2.545 1.616-.23 3.054.164 4.02 1.131l.002.002c.966.967 1.36 2.404 1.13 4.019-.231 1.616-1.087 3.36-2.545 4.818-1.459 1.458-3.203 2.314-4.819 2.545-1.615.23-3.053-.164-4.02-1.13Zm12.933-7.573c.033.51.01 1.03-.064 1.553-.281 1.967-1.304 4-2.97 5.667-1.665 1.665-3.7 2.688-5.667 2.969a7.525 7.525 0 0 1-1.552.064l.148.149a7.229 7.229 0 0 0 5.313 2.12l-.924-.924a.75.75 0 1 1 1.06-1.06l1.5 1.5a.747.747 0 0 1 .15.215 7.205 7.205 0 0 0 2.596-1.348L15.97 17.03a.75.75 0 1 1 1.06-1.06l1.307 1.306a7.204 7.204 0 0 0 1.348-2.595.746.746 0 0 1-.215-.15l-1.5-1.5a.75.75 0 1 1 1.06-1.061l.925.924a7.23 7.23 0 0 0-2.12-5.314l-.15-.148ZM3.693 16.067v-.001c-1.377-1.376-1.837-3.326-1.556-5.293.28-1.967 1.304-4.002 2.97-5.667 1.665-1.666 3.7-2.689 5.666-2.97 1.968-.28 3.918.18 5.294 1.555l.001.002 2.827 2.827A8.75 8.75 0 1 1 6.52 18.894l-2.828-2.827Zm2.914-5.006c-.222.888-.06 1.497.267 1.823.326.326.935.49 1.823.267.87-.217 1.876-.784 2.773-1.681.897-.897 1.464-1.902 1.681-2.773.222-.888.06-1.497-.267-1.823-.326-.327-.935-.49-1.823-.267-.871.217-1.876.784-2.773 1.681-.897.897-1.464 1.902-1.681 2.773Zm-1.456-.364c.295-1.176 1.02-2.414 2.076-3.47s2.294-1.782 3.47-2.076c1.16-.29 2.403-.183 3.248.662.845.845.951 2.088.662 3.248-.294 1.176-1.02 2.414-2.076 3.47-1.056 1.055-2.294 1.781-3.47 2.075-1.16.29-2.403.184-3.248-.661-.845-.845-.952-2.088-.662-3.248Z" fill="#151E28"/></svg>