<svg viewBox="0 0 24 24" fill="none" xmlns="http://www.w3.org/2000/svg"><path fill-rule="evenodd" clip-rule="evenodd" d="M8.75 3a.75.75 0 0 0-1.5 0v3a.75.75 0 0 0 1.5 0V3Zm4 0a.75.75 0 0 0-1.5 0v3a.75.75 0 0 0 1.5 0V3Zm4 0a.75.75 0 0 0-1.5 0v3a.75.75 0 0 0 1.5 0V3Zm4.494 6.774c-.103-.02-.243-.024-.744-.024h-.75v3.5h.75c.5 0 .641-.004.744-.024a1.25 1.25 0 0 0 .982-.982c.02-.103.024-.244.024-.744s-.004-.642-.024-.744a1.25 1.25 0 0 0-.982-.982ZM16 8.25H8.17c-.535 0-.98 0-1.345.03-.38.03-.736.098-1.073.27a2.75 2.75 0 0 0-1.202 1.2c-.172.338-.24.694-.27 1.074-.03.365-.03.81-.03 1.345v2.463c0 1.092 0 1.958.057 2.655.058.714.18 1.317.46 1.868a4.75 4.75 0 0 0 2.077 2.076c.55.281 1.154.403 1.868.46.697.058 1.563.058 2.655.058h1.266c1.092 0 1.958 0 2.655-.057.714-.058 1.317-.18 1.869-.46a4.75 4.75 0 0 0 2.075-2.077c.281-.55.403-1.154.461-1.868.055-.672.057-1.5.057-2.538h.823c.393 0 .696 0 .963-.053a2.75 2.75 0 0 0 2.161-2.16c.053-.268.053-.571.053-.964v-.146c0-.393 0-.696-.053-.964a2.75 2.75 0 0 0-2.16-2.16c-.268-.054-.571-.053-.964-.053H16Zm2.25 1.5v4.85c0 1.132 0 1.937-.052 2.566-.05.62-.147 1.005-.302 1.31a3.25 3.25 0 0 1-1.42 1.42c-.305.155-.69.251-1.31.302-.63.051-1.434.052-2.566.052h-1.2c-1.133 0-1.937 0-2.566-.052-.62-.05-1.005-.147-1.31-.302a3.25 3.25 0 0 1-1.42-1.42c-.155-.305-.251-.69-.302-1.31-.051-.63-.052-1.434-.052-2.566v-2.4c0-.572 0-.957.025-1.253.023-.287.065-.424.111-.515a1.25 1.25 0 0 1 .547-.546c.09-.046.227-.088.514-.111.296-.024.68-.025 1.253-.025h10.05Z" fill="#151E28"/></svg>