<svg viewBox="0 0 24 24" fill="none" xmlns="http://www.w3.org/2000/svg"><path fill-rule="evenodd" clip-rule="evenodd" d="M11.798 1.25A2.548 2.548 0 0 0 9.25 3.798v.371a.494.494 0 0 1-.843.35l-.262-.263a2.548 2.548 0 0 0-3.604 0l-.285.285a2.548 2.548 0 0 0 0 3.604l.262.262a.494.494 0 0 1-.349.843h-.37a2.548 2.548 0 0 0-2.549 2.548v.404a2.548 2.548 0 0 0 2.548 2.548h.371a.494.494 0 0 1 .35.843l-.263.262a2.548 2.548 0 0 0 0 3.604l.285.285a2.548 2.548 0 0 0 3.604 0l.262-.262a.494.494 0 0 1 .843.349v.37a2.548 2.548 0 0 0 2.548 2.549h.404a2.548 2.548 0 0 0 2.548-2.548v-.371a.494.494 0 0 1 .843-.35l.262.263a2.548 2.548 0 0 0 3.604 0l.285-.285a2.548 2.548 0 0 0 0-3.604l-.262-.262a.494.494 0 0 1 .349-.843h.37a2.548 2.548 0 0 0 2.549-2.548v-.404a2.548 2.548 0 0 0-2.548-2.548h-.371a.494.494 0 0 1-.35-.843l.263-.262a2.548 2.548 0 0 0 0-3.604l-.285-.285a2.548 2.548 0 0 0-3.604 0l-.262.262a.494.494 0 0 1-.843-.349v-.37a2.548 2.548 0 0 0-2.548-2.549h-.404ZM10.75 3.798c0-.579.47-1.048 1.048-1.048h.404c.579 0 1.048.47 1.048 1.048v.371a1.994 1.994 0 0 0 3.404 1.41l.262-.262a1.047 1.047 0 0 1 1.482 0l.285.285c.41.41.41 1.073 0 1.482l-.262.263a1.994 1.994 0 0 0 1.41 3.403h.37c.58 0 1.049.47 1.049 1.048v.404c0 .579-.47 1.048-1.048 1.048h-.371a1.994 1.994 0 0 0-1.41 3.404l.262.262c.41.409.41 1.073 0 1.482l-.285.285c-.41.41-1.073.41-1.482 0l-.262-.262a1.994 1.994 0 0 0-3.404 1.41v.37c0 .58-.47 1.049-1.048 1.049h-.404c-.579 0-1.048-.47-1.048-1.048v-.371a1.994 1.994 0 0 0-3.403-1.41l-.263.262c-.409.41-1.073.41-1.482 0l-.285-.285a1.048 1.048 0 0 1 0-1.482l.262-.262a1.994 1.994 0 0 0-1.41-3.404h-.37c-.58 0-1.049-.47-1.049-1.048v-.404c0-.579.47-1.048 1.048-1.048h.371a1.994 1.994 0 0 0 1.41-3.403l-.262-.263a1.048 1.048 0 0 1 0-1.482l.285-.285c.41-.41 1.073-.41 1.482 0l.263.262a1.994 1.994 0 0 0 3.403-1.41v-.37ZM11.8 8.25a3.55 3.55 0 0 0-3.55 3.55v.4a3.55 3.55 0 0 0 3.55 3.55h.4a3.55 3.55 0 0 0 3.55-3.55v-.4a3.55 3.55 0 0 0-3.55-3.55h-.4ZM9.75 11.8a2.05 2.05 0 0 1 2.05-2.05h.4a2.05 2.05 0 0 1 2.05 2.05v.4a2.05 2.05 0 0 1-2.05 2.05h-.4a2.05 2.05 0 0 1-2.05-2.05v-.4Z" fill="#151E28"/></svg>