<svg viewBox="0 0 24 24" fill="none" xmlns="http://www.w3.org/2000/svg"><path fill-rule="evenodd" clip-rule="evenodd" d="M18.573 2.25h-2.146c-.393 0-.696 0-.963.052a2.75 2.75 0 0 0-2.161 2.161c-.053.268-.053.57-.053.963v.147c0 .393 0 .696.053.963a2.75 2.75 0 0 0 2.16 2.16c.268.054.571.054.964.054h2.146c.393 0 .696 0 .963-.053a2.75 2.75 0 0 0 2.161-2.161c.053-.267.053-.57.053-.963v-.147c0-.392 0-.695-.053-.963a2.75 2.75 0 0 0-2.16-2.16c-.268-.054-.571-.054-.964-.054Zm-.073 1.5c.5 0 .641.003.744.024.496.098.883.486.982.982.02.102.024.243.024.744 0 .5-.004.64-.024.743a1.25 1.25 0 0 1-.982.982c-.103.02-.243.025-.744.025h-2c-.5 0-.641-.004-.744-.025a1.25 1.25 0 0 1-.982-.982c-.02-.102-.024-.243-.024-.743 0-.501.004-.642.024-.744a1.25 1.25 0 0 1 .982-.982c.103-.02.243-.024.744-.024h2ZM6.2 2.25h-.03c-.535 0-.98 0-1.345.03-.38.03-.736.097-1.073.27a2.75 2.75 0 0 0-1.202 1.2c-.172.337-.24.694-.27 1.074-.03.364-.03.81-.03 1.344V8.83c0 .534 0 .98.03 1.344.03.38.098.737.27 1.074a2.75 2.75 0 0 0 1.202 1.202c.337.172.693.239 1.073.27.365.03.81.03 1.345.03h.66c.535 0 .98 0 1.345-.03.38-.031.736-.098 1.073-.27a2.75 2.75 0 0 0 1.202-1.202c.172-.337.24-.694.27-1.074.03-.364.03-.81.03-1.344V6.17c0-.535 0-.98-.03-1.345-.03-.38-.098-.737-.27-1.074a2.75 2.75 0 0 0-1.202-1.202c-.337-.172-.693-.239-1.073-.27-.365-.03-.81-.03-1.345-.03H6.2ZM4.433 3.886c.09-.046.227-.088.514-.112.296-.024.68-.024 1.253-.024h.6c.572 0 .957 0 1.253.024.287.024.424.066.514.112.236.12.427.31.547.546.046.09.088.228.111.515.024.296.025.68.025 1.253v2.6c0 .572 0 .956-.025 1.252-.023.287-.065.424-.111.515a1.25 1.25 0 0 1-.547.546c-.09.046-.227.088-.514.112-.296.024-.68.024-1.253.024h-.6c-.572 0-.957 0-1.253-.024-.287-.024-.424-.066-.514-.112a1.25 1.25 0 0 1-.547-.546c-.046-.09-.088-.228-.111-.515A17.24 17.24 0 0 1 3.75 8.8V6.2c0-.573 0-.957.025-1.253.023-.287.065-.424.111-.515a1.25 1.25 0 0 1 .547-.546ZM5.5 15.249h-.073c-.393 0-.696 0-.963.053a2.75 2.75 0 0 0-2.161 2.161c-.053.267-.053.57-.053.963v.147c0 .392 0 .695.053.963a2.75 2.75 0 0 0 2.16 2.16c.268.054.571.054.964.053h2.146c.393 0 .696 0 .963-.052a2.75 2.75 0 0 0 2.161-2.161c.053-.268.053-.57.053-.963v-.147c0-.392 0-.695-.053-.963a2.75 2.75 0 0 0-2.16-2.16c-.268-.054-.571-.054-.964-.054H5.5Zm-.744 1.524c.103-.02.243-.023.744-.023h2c.5 0 .641.003.744.023.496.1.883.487.982.983.02.102.024.243.024.744 0 .5-.004.64-.024.743a1.25 1.25 0 0 1-.982.983c-.103.02-.243.024-.744.024h-2c-.5 0-.641-.004-.744-.024a1.25 1.25 0 0 1-.982-.983c-.02-.102-.024-.243-.024-.743 0-.501.004-.642.024-.744a1.25 1.25 0 0 1 .982-.983ZM17.8 11.25h.03c.535 0 .98 0 1.345.03.38.031.736.098 1.073.27.518.264.939.685 1.202 1.202.172.337.24.694.27 1.074.03.364.03.81.03 1.344v2.66c0 .535 0 .98-.03 1.345-.03.38-.098.737-.27 1.074a2.751 2.751 0 0 1-1.201 1.202c-.338.172-.694.239-1.074.27-.365.03-.81.03-1.345.03h-.66c-.535 0-.98 0-1.345-.03-.38-.031-.736-.098-1.073-.27a2.751 2.751 0 0 1-1.202-1.202c-.172-.337-.24-.694-.27-1.074-.03-.364-.03-.81-.03-1.344v-2.662c0-.534 0-.98.03-1.344.03-.38.098-.737.27-1.074a2.751 2.751 0 0 1 1.201-1.202c.338-.172.694-.239 1.074-.27.365-.03.81-.03 1.345-.03h.63Zm1.767 1.637c-.09-.046-.227-.088-.515-.112-.295-.024-.68-.024-1.252-.024h-.6c-.572 0-.957 0-1.252.024-.288.024-.425.066-.516.112a1.25 1.25 0 0 0-.546.546c-.046.09-.088.228-.111.515-.024.296-.025.68-.025 1.253v2.6c0 .572 0 .956.025 1.252.023.287.065.424.111.515.12.235.311.426.546.546.091.046.228.088.515.112.296.024.68.024 1.253.024h.6c.572 0 .957 0 1.252-.024.288-.024.425-.066.515-.112a1.25 1.25 0 0 0 .547-.546c.046-.09.088-.228.111-.515.024-.296.025-.68.025-1.253v-2.6c0-.572 0-.956-.025-1.252-.023-.287-.065-.424-.111-.515a1.25 1.25 0 0 0-.547-.546Z" fill="#151E28"/></svg>