<svg viewBox="0 0 24 24" fill="none" xmlns="http://www.w3.org/2000/svg"><path fill-rule="evenodd" clip-rule="evenodd" d="M8 6.75a1.25 1.25 0 1 0 0 2.5h1.25V8c0-.69-.56-1.25-1.25-1.25ZM5.25 8a2.75 2.75 0 0 1 5.5 0v1.25h2.5V8A2.75 2.75 0 1 1 16 10.75h-1.25v2.5H16A2.75 2.75 0 1 1 13.25 16v-1.25h-2.5V16A2.75 2.75 0 1 1 8 13.25h1.25v-2.5H8A2.75 2.75 0 0 1 5.25 8Zm5.5 2.75v2.5h2.5v-2.5h-2.5Zm4-2.75A1.25 1.25 0 1 1 16 9.25h-1.25V8Zm0 6.75V16A1.25 1.25 0 1 0 16 14.75h-1.25Zm-8 1.25c0-.69.56-1.25 1.25-1.25h1.25V16a1.25 1.25 0 1 1-2.5 0Z" fill="#151E28"/></svg>