<svg viewBox="0 0 24 24" fill="none" xmlns="http://www.w3.org/2000/svg"><path fill-rule="evenodd" clip-rule="evenodd" d="M3.75 12a8.25 8.25 0 1 1 16.5 0 8.25 8.25 0 0 1-16.5 0ZM12 2.25c-5.385 0-9.75 4.365-9.75 9.75s4.365 9.75 9.75 9.75c5.384 0 9.75-4.365 9.75-9.75S17.384 2.25 12 2.25Zm3.735 6.897a.75.75 0 0 0-.882-.882l-2.908.581-.115.023c-.643.128-1.148.229-1.568.486a2.75 2.75 0 0 0-.907.907c-.258.42-.358.925-.486 1.568l-.023.115-.582 2.908a.75.75 0 0 0 .883.882l2.908-.581.115-.023c.643-.128 1.147-.229 1.568-.486.37-.227.68-.538.906-.907.258-.42.359-.925.487-1.568l.023-.115.581-2.908Zm-3.496 1.17 1.805-.36-.361 1.804c-.163.814-.218 1.03-.317 1.193a1.25 1.25 0 0 1-.412.412c-.163.1-.38.154-1.193.317l-1.805.36.36-1.804c.164-.814.218-1.03.318-1.193a1.25 1.25 0 0 1 .412-.412c.162-.1.379-.154 1.193-.317Z" fill="#151E28"/></svg>