<svg viewBox="0 0 24 24" fill="none" xmlns="http://www.w3.org/2000/svg"><path fill-rule="evenodd" clip-rule="evenodd" d="M2.53 1.47a.75.75 0 0 0-1.06 1.06l1.39 1.39a3.75 3.75 0 0 0-1.202 1.378c-.226.444-.32.924-.365 1.47a16.443 16.443 0 0 0-.042 1.281l-.001.719v6.464c0 .813 0 1.469.043 2 .045.546.14 1.026.365 1.47a3.75 3.75 0 0 0 1.64 1.64c.444.226.924.32 1.47.365.531.043 1.187.043 2 .043H19.69l1.78 1.78a.75.75 0 1 0 1.06-1.06l-1.99-1.99a.361.361 0 0 0-.02-.02L2.53 1.47Zm.465 4.509a2.25 2.25 0 0 1 .955-.969l2.24 2.24H2.766c.005-.129.012-.248.021-.36.037-.453.106-.714.207-.911ZM2.75 8.8v-.05h4.94l10.5 10.5H6.8c-.853 0-1.447 0-1.91-.038-.453-.037-.714-.107-.912-.207a2.25 2.25 0 0 1-.983-.983c-.1-.198-.17-.459-.207-.913-.038-.462-.038-1.057-.038-1.909V8.8ZM12 7.25a.75.75 0 1 0 0 1.5h9.25v6.45c0 1.44-.008 2.113-.15 2.582a.75.75 0 0 0 1.435.436c.215-.711.215-1.625.215-2.882v-6.57c0-.254 0-.493-.002-.717a.722.722 0 0 0 0-.109 16.453 16.453 0 0 0-.042-1.171c-.044-.547-.139-1.027-.365-1.471a3.75 3.75 0 0 0-1.639-1.64c-.444-.226-.924-.32-1.47-.365-.532-.043-1.187-.043-2-.043H8a.75.75 0 1 0 0 1.5h9.2c.852 0 1.446 0 1.91.038.453.038.714.107.911.207.424.216.768.56.983.984.101.197.17.458.207.912.01.111.016.23.022.359H12Zm-6 4a.75.75 0 0 0 0 1.5h3a.75.75 0 0 0 0-1.5H6Z" fill="#151E28"/></svg>