<svg viewBox="0 0 24 24" fill="none" xmlns="http://www.w3.org/2000/svg"><path fill-rule="evenodd" clip-rule="evenodd" d="M6.8 3.25h-.032c-.813 0-1.469 0-2 .043-.546.045-1.027.14-1.47.366a3.75 3.75 0 0 0-1.64 1.639c-.226.444-.32.924-.365 1.47a16.461 16.461 0 0 0-.042 1.28l-.001.72v6.464c0 .813 0 1.469.043 2 .045.546.14 1.026.365 1.47a3.75 3.75 0 0 0 1.64 1.64c.443.226.924.32 1.47.365.531.043 1.187.043 2 .043h10.464c.813 0 1.468 0 2-.043.546-.045 1.026-.14 1.47-.366a3.75 3.75 0 0 0 1.639-1.639c.226-.444.32-.924.365-1.47.044-.531.044-1.187.044-2V8.768c0-.255 0-.494-.002-.718a.75.75 0 0 0 0-.11 16.43 16.43 0 0 0-.042-1.171c-.044-.547-.139-1.027-.365-1.471a3.75 3.75 0 0 0-1.639-1.64c-.444-.226-.924-.32-1.47-.365-.532-.043-1.187-.043-2-.043H6.8Zm14.433 4a8.97 8.97 0 0 0-.022-.36c-.037-.453-.106-.714-.206-.911a2.25 2.25 0 0 0-.984-.984c-.197-.1-.458-.17-.912-.207-.463-.037-1.057-.038-1.91-.038H6.8c-.852 0-1.446 0-1.909.038-.454.037-.714.107-.912.207a2.25 2.25 0 0 0-.983.984c-.1.197-.17.458-.207.912-.009.111-.016.23-.021.359h18.466ZM2.75 8.75v6.45c0 .852 0 1.447.038 1.91.037.453.106.714.207.912.216.423.56.767.983.983.198.1.458.17.912.207.463.037 1.057.038 1.91.038h10.4c.852 0 1.446 0 1.909-.038.454-.038.715-.107.912-.207.424-.216.768-.56.983-.983.101-.198.17-.459.207-.913.038-.462.039-1.057.039-1.909V8.75H2.75ZM5.25 12a.75.75 0 0 1 .75-.75h3a.75.75 0 0 1 0 1.5H6a.75.75 0 0 1-.75-.75Z" fill="#151E28"/></svg>