<svg viewBox="0 0 24 24" fill="none" xmlns="http://www.w3.org/2000/svg"><path fill-rule="evenodd" clip-rule="evenodd" d="M6.768 3.25h10.464c.813 0 1.469 0 2 .043.546.045 1.026.14 1.47.366a3.75 3.75 0 0 1 1.64 1.639c.226.444.32.924.365 1.47a16.52 16.52 0 0 1 .042 1.278v7.186c0 .813 0 1.469-.042 2-.045.546-.14 1.026-.366 1.47a3.75 3.75 0 0 1-1.639 1.64c-.444.226-.924.32-1.47.365-.531.043-1.187.043-2 .043H12a.75.75 0 0 1 0-1.5h5.2c.852 0 1.447 0 1.91-.038.453-.038.714-.107.911-.207a2.25 2.25 0 0 0 .984-.983c.1-.198.17-.459.207-.913.037-.462.038-1.057.038-1.909V8.75H2.75v3.45a.75.75 0 0 1-1.5 0V8.768l.001-.717a.762.762 0 0 1 .001-.113c.004-.446.014-.833.041-1.17.045-.546.14-1.026.366-1.47a3.75 3.75 0 0 1 1.638-1.64c.445-.226.925-.32 1.471-.365.531-.043 1.187-.043 2-.043Zm14.444 3.64c.009.112.016.231.02.36H2.768c.005-.129.012-.248.021-.36.037-.453.107-.714.207-.911a2.25 2.25 0 0 1 .983-.984c.198-.1.459-.17.913-.207.462-.037 1.056-.038 1.909-.038h10.4c.852 0 1.447 0 1.91.038.453.037.714.107.911.207.424.216.768.56.984.984.1.197.17.458.207.912ZM6 11.25a.75.75 0 0 0 0 1.5h3a.75.75 0 1 0 0-1.5H6Zm-.47 3.22a.75.75 0 1 0-1.06 1.06l1.72 1.72H1a.75.75 0 0 0 0 1.5h5.19l-1.72 1.72a.75.75 0 0 0 1.06 1.06l3-3a.75.75 0 0 0 0-1.06l-3-3Z" fill="#151E28"/></svg>