<svg viewBox="0 0 24 24" fill="none" xmlns="http://www.w3.org/2000/svg"><path fill-rule="evenodd" clip-rule="evenodd" d="M5.66 7.721a8.213 8.213 0 0 0-1.876 4.53H5a.75.75 0 0 1 0 1.5H3.784a8.227 8.227 0 0 0 2.655 5.343c.025.023.083.047.163.019a16.196 16.196 0 0 1 10.796 0c.08.028.138.004.163-.019a8.227 8.227 0 0 0 2.655-5.344H19a.75.75 0 0 1 0-1.5h1.216a8.213 8.213 0 0 0-1.876-4.53l-.86.86a.75.75 0 0 1-1.06-1.06l.86-.86A8.217 8.217 0 0 0 12 4.75a8.217 8.217 0 0 0-5.28 1.91l.86.86a.75.75 0 0 1-1.06 1.06l-.86-.859Zm-.562-1.607A9.72 9.72 0 0 0 2.25 13a9.726 9.726 0 0 0 3.177 7.202c.47.43 1.122.52 1.675.325a14.696 14.696 0 0 1 9.796 0 1.659 1.659 0 0 0 1.675-.325A9.727 9.727 0 0 0 21.75 13 9.75 9.75 0 0 0 12 3.25a9.72 9.72 0 0 0-6.902 2.864ZM12 12.75a1.25 1.25 0 1 0 0 2.5 1.25 1.25 0 0 0 0-2.5Zm-.75-1.396a2.751 2.751 0 1 0 1.5 0V7a.75.75 0 0 0-1.5 0v4.354Z" fill="#151E28"/></svg>