<svg viewBox="0 0 24 24" fill="none" xmlns="http://www.w3.org/2000/svg"><path fill-rule="evenodd" clip-rule="evenodd" d="M5.126 5.393c-.312.278-.376.484-.376.607s.064.33.376.607c.312.276.806.56 1.48.812 1.344.504 3.251.831 5.394.831 2.143 0 4.05-.327 5.393-.83.675-.254 1.169-.537 1.48-.813.313-.278.377-.484.377-.607s-.064-.33-.376-.607c-.312-.276-.806-.56-1.48-.812C16.05 4.077 14.143 3.75 12 3.75c-2.143 0-4.05.327-5.394.83-.674.254-1.168.537-1.48.813Zm12.938 3.375c.433-.17.834-.364 1.186-.583V12c0 .123-.064.33-.376.607-.312.276-.806.56-1.48.812-1.344.504-3.251.831-5.394.831-2.143 0-4.05-.327-5.394-.83-.674-.254-1.168-.537-1.48-.813-.312-.278-.376-.484-.376-.607V8.185l.013.008c.388.24.834.45 1.317.63 1.551.582 3.645.927 5.92.927s4.369-.345 5.92-.926l.144-.056ZM3.25 12V6c0-.706.384-1.288.881-1.729.498-.441 1.176-.805 1.949-1.095C7.63 2.595 9.725 2.25 12 2.25s4.369.345 5.92.926c.773.29 1.451.654 1.949 1.095.497.44.881 1.023.881 1.729v12c0 .706-.384 1.288-.881 1.729-.498.441-1.176.805-1.949 1.095-1.552.581-3.645.926-5.92.926s-4.369-.345-5.92-.926c-.773-.29-1.451-.654-1.949-1.095-.497-.44-.881-1.023-.881-1.729v-6Zm16 2.185a7.568 7.568 0 0 1-1.33.639c-1.552.581-3.645.926-5.92.926s-4.369-.345-5.92-.926a7.586 7.586 0 0 1-1.317-.631l-.013-.008V18c0 .123.064.33.376.607.312.276.806.56 1.48.812 1.344.504 3.251.831 5.394.831 2.143 0 4.05-.327 5.393-.83.675-.254 1.169-.537 1.48-.814.313-.277.377-.483.377-.606v-3.815Z" fill="#151E28"/></svg>