<svg viewBox="0 0 24 24" fill="none" xmlns="http://www.w3.org/2000/svg"><path fill-rule="evenodd" clip-rule="evenodd" d="M14.5 4.7a.85.85 0 1 0 0-1.7.85.85 0 0 0 0 1.7Zm-.308 3.05c-.504 0-.985.091-1.428.258a.75.75 0 0 1-.528-1.404 5.558 5.558 0 0 1 7.16 7.16.75.75 0 1 1-1.404-.528 4.058 4.058 0 0 0-3.8-5.486Zm-4.692 2a3.014 3.014 0 0 0-2.603 1.465.75.75 0 1 1-1.29-.764A4.514 4.514 0 0 1 9.5 8.25c2.23 0 4.103 1.6 4.444 3.719 2.145.327 3.806 2.144 3.806 4.364 0 2.15-1.56 3.923-3.604 4.33a.75.75 0 0 1-.292-1.472c1.379-.274 2.396-1.46 2.396-2.858 0-1.595-1.327-2.916-3-2.916a.75.75 0 0 1-.75-.75c0-1.595-1.327-2.917-3-2.917Zm-3.75 3.666c-1.673 0-3 1.322-3 2.917 0 1.398 1.017 2.584 2.396 2.858a.75.75 0 1 1-.292 1.471c-2.044-.406-3.604-2.179-3.604-4.329 0-2.455 2.03-4.416 4.5-4.416.636 0 1.244.13 1.795.365a.75.75 0 0 1-.59 1.38 3.061 3.061 0 0 0-1.205-.246ZM22 12.2a.85.85 0 1 1 0-1.7.85.85 0 0 1 0 1.7Zm-2.618-5.574a.85.85 0 1 0 1.202-1.202.85.85 0 0 0-1.202 1.202ZM8.5 6.702A.85.85 0 1 1 9.702 5.5.85.85 0 0 1 8.5 6.702ZM9.5 17l.557-.502a.75.75 0 0 0-1.114 0L9.5 17Zm0 0 .558-.502v.001l.002.002.004.004.014.017a9.034 9.034 0 0 1 .233.272c.148.178.347.427.548.705.198.276.41.596.574.916.152.296.317.69.317 1.085 0 1.274-1.113 2.25-2.25 2.25s-2.25-.976-2.25-2.25c0-.395.165-.79.317-1.085.165-.32.376-.64.574-.916a13.15 13.15 0 0 1 .78-.977l.015-.017.004-.004.002-.002L9.5 17Zm-.141 1.376c.047-.066.094-.13.141-.192.047.062.094.126.141.192.177.245.34.498.458.725.058.113.099.209.124.286.024.074.027.11.027.113 0 .393-.387.75-.75.75s-.75-.357-.75-.75c0-.004.003-.039.027-.113.025-.077.066-.173.124-.286a5.96 5.96 0 0 1 .458-.725Z" fill="#151E28"/></svg>