<svg viewBox="0 0 24 24" fill="none" xmlns="http://www.w3.org/2000/svg"><path fill-rule="evenodd" clip-rule="evenodd" d="M15.35 3.85a.85.85 0 1 1-1.7 0 .85.85 0 0 1 1.7 0Zm-2.586 4.158a4.058 4.058 0 0 1 5.228 5.228.75.75 0 0 0 1.404.528 5.558 5.558 0 0 0-7.16-7.16.75.75 0 1 0 .528 1.404Zm-5.867 3.207A3.014 3.014 0 0 1 9.5 9.75c1.673 0 3 1.322 3 2.916 0 .415.336.75.75.75 1.673 0 3 1.322 3 2.917a.75.75 0 0 0 1.5 0c0-2.22-1.661-4.037-3.806-4.364-.341-2.119-2.214-3.72-4.444-3.72a4.514 4.514 0 0 0-3.894 2.202.75.75 0 0 0 1.291.764ZM2.75 16.333c0-1.595 1.327-2.916 3-2.916.43 0 .838.087 1.205.244a.75.75 0 1 0 .59-1.38 4.56 4.56 0 0 0-1.795-.365c-2.47 0-4.5 1.962-4.5 4.417s2.03 4.417 4.5 4.417a.75.75 0 0 0 0-1.5c-1.673 0-3-1.322-3-2.917Zm18.4-4.983a.85.85 0 1 0 1.7 0 .85.85 0 0 0-1.7 0Zm-.566-4.724a.85.85 0 1 1-1.202-1.202.85.85 0 0 1 1.202 1.202ZM8.5 5.5a.85.85 0 1 0 1.202 1.202A.85.85 0 0 0 8.5 5.5Zm2.146 11.422a1.078 1.078 0 0 0-1.292 0 2.577 2.577 0 0 1-2.7.244l-.99-.495a.75.75 0 0 1 .671-1.342l.99.495c.365.183.802.143 1.129-.102a2.578 2.578 0 0 1 3.092 0c.327.245.764.285 1.129.102l.99-.495a.75.75 0 0 1 .67 1.342l-.99.495a2.577 2.577 0 0 1-2.699-.244Zm3.707 3.5c.384-.287.91-.287 1.293 0a2.58 2.58 0 0 0 2.7.244l.99-.495a.75.75 0 0 0-.671-1.342l-.99.495a1.077 1.077 0 0 1-1.128-.102 2.578 2.578 0 0 0-3.094 0 1.077 1.077 0 0 1-1.128.102l-.99-.495a.75.75 0 0 0-.67 1.342l.99.495a2.577 2.577 0 0 0 2.699-.244Z" fill="#151E28"/></svg>