<svg viewBox="0 0 24 24" fill="none" xmlns="http://www.w3.org/2000/svg"><path fill-rule="evenodd" clip-rule="evenodd" d="M17 2.25h.095c.838 0 1.372 0 1.832.091a4.75 4.75 0 0 1 3.732 3.732c.091.46.091.994.091 1.832v8.19c0 .838 0 1.372-.091 1.832a4.75 4.75 0 0 1-3.732 3.732c-.46.091-.994.091-1.832.091H6.905c-.838 0-1.372 0-1.832-.091a4.75 4.75 0 0 1-3.732-3.732c-.091-.46-.091-.994-.091-1.832v-8.19c0-.838 0-1.372.091-1.832a4.75 4.75 0 0 1 3.732-3.732c.46-.091.994-.091 1.832-.091H17Zm1.634 1.562c-.296-.058-.669-.062-1.634-.062H7c-.965 0-1.338.004-1.634.062a3.25 3.25 0 0 0-2.554 2.554c-.058.296-.062.669-.062 1.634v8c0 .965.004 1.338.062 1.634a3.25 3.25 0 0 0 2.554 2.554c.296.058.669.062 1.634.062h10c.965 0 1.338-.004 1.634-.062a3.25 3.25 0 0 0 2.554-2.554c.058-.296.062-.669.062-1.634V8c0-.965-.004-1.338-.062-1.634a3.25 3.25 0 0 0-2.554-2.554ZM7.75 9a.75.75 0 0 0-1.5 0v6a.75.75 0 0 0 1.5 0v-2.25h2.5V15a.75.75 0 0 0 1.5 0V9a.75.75 0 0 0-1.5 0v2.25h-2.5V9Zm7 1a.25.25 0 0 1 .25-.25 2.25 2.25 0 0 1 0 4.5.25.25 0 0 1-.25-.25v-4ZM15 8.25A1.75 1.75 0 0 0 13.25 10v4c0 .966.784 1.75 1.75 1.75a3.75 3.75 0 1 0 0-7.5Z" fill="#151E28"/></svg>