<svg viewBox="0 0 24 24" fill="none" xmlns="http://www.w3.org/2000/svg"><path fill-rule="evenodd" clip-rule="evenodd" d="M12.75 6.461a.75.75 0 0 0-1.5 0v.504c-.623.041-1.238.15-1.752.398-.377.182-.721.45-.966.836-.246.386-.36.84-.36 1.34 0 .985.636 1.644 1.296 2.085.521.347 1.165.63 1.782.883v2.985a3.111 3.111 0 0 1-1.04-.368c-.437-.262-.537-.52-.537-.663a.75.75 0 0 0-1.5 0c0 .877.588 1.543 1.265 1.949.509.305 1.134.512 1.812.6v.528a.75.75 0 1 0 1.5 0v-.503c.623-.042 1.238-.15 1.752-.398.377-.183.72-.45.966-.836.246-.387.359-.84.359-1.34 0-.986-.635-1.645-1.296-2.085-.52-.347-1.164-.63-1.781-.883V8.507c.414.075.77.207 1.04.369.436.262.537.52.537.662a.75.75 0 0 0 1.5 0c0-.876-.589-1.542-1.266-1.948-.508-.305-1.133-.512-1.811-.6v-.529Zm-1.5 2.008c-.467.038-.835.117-1.1.245a.815.815 0 0 0-.352.289c-.066.103-.125.265-.125.535 0 .245.134.509.627.838.267.178.588.34.95.501V8.47Zm1.5 4.654v2.408c.467-.038.835-.117 1.099-.245a.816.816 0 0 0 .353-.29c.066-.103.125-.265.125-.535 0-.244-.135-.508-.628-.837a6.472 6.472 0 0 0-.949-.501Z" fill="#151E28"/></svg>