<svg viewBox="0 0 24 24" fill="none" xmlns="http://www.w3.org/2000/svg"><path fill-rule="evenodd" clip-rule="evenodd" d="M3.75 12a8.25 8.25 0 1 1 16.5 0 8.25 8.25 0 0 1-16.5 0ZM12 2.25c-5.385 0-9.75 4.365-9.75 9.75s4.365 9.75 9.75 9.75 9.75-4.365 9.75-9.75S17.385 2.25 12 2.25Zm0 3.462a.75.75 0 0 1 .75.75v.528c.678.088 1.303.295 1.811.6.677.406 1.266 1.072 1.266 1.948a.75.75 0 0 1-1.5 0c0-.142-.1-.4-.537-.662a3.109 3.109 0 0 0-1.04-.368v2.985c.617.252 1.26.536 1.781.883.66.44 1.296 1.1 1.296 2.085 0 .5-.113.953-.359 1.34-.245.386-.59.653-.966.836-.514.248-1.129.357-1.752.398v.503a.75.75 0 0 1-1.5 0v-.528c-.678-.088-1.303-.295-1.812-.6-.677-.406-1.265-1.072-1.265-1.949a.75.75 0 0 1 1.5 0c0 .143.1.4.537.663.27.162.625.294 1.04.368v-2.985c-.617-.252-1.261-.536-1.782-.883-.66-.44-1.295-1.1-1.295-2.086 0-.499.113-.952.359-1.34a2.31 2.31 0 0 1 .966-.835c.514-.248 1.129-.356 1.752-.398v-.503a.75.75 0 0 1 .75-.75Zm-1.85 3.002c.265-.128.633-.207 1.1-.245v2.408a6.476 6.476 0 0 1-.95-.501c-.493-.329-.627-.593-.627-.838 0-.27.059-.431.125-.535a.815.815 0 0 1 .352-.29Zm2.6 6.817v-2.408c.362.16.682.323.95.501.492.329.627.593.627.837 0 .27-.06.432-.125.536a.815.815 0 0 1-.353.29c-.264.127-.632.206-1.1.244Z" fill="#151E28"/></svg>