<svg viewBox="0 0 24 24" fill="none" xmlns="http://www.w3.org/2000/svg"><path fill-rule="evenodd" clip-rule="evenodd" d="M10.883 2.479a2.75 2.75 0 0 1 2.234 0c.485.216.844.614 1.167 1.071.322.454.677 1.067 1.115 1.825l.02.033 5.45 9.413.018.033c.44.76.797 1.375 1.03 1.882.237.51.404 1.02.35 1.55a2.75 2.75 0 0 1-1.119 1.938c-.43.313-.956.424-1.515.475-.556.051-1.267.051-2.145.051H6.512c-.878 0-1.59 0-2.145-.051-.56-.051-1.085-.162-1.515-.475a2.75 2.75 0 0 1-1.118-1.939c-.055-.529.112-1.04.348-1.55.234-.506.59-1.121 1.03-1.881l.02-.033 5.45-9.413.019-.033c.438-.758.793-1.37 1.114-1.825.324-.457.683-.855 1.168-1.071Zm1.625 1.37a1.25 1.25 0 0 0-1.016 0c-.108.049-.274.174-.552.568-.277.391-.598.944-1.06 1.742l-5.45 9.413c-.464.801-.785 1.357-.986 1.793-.204.44-.23.647-.218.765.036.352.221.672.508.881.095.07.288.15.77.194.479.044 1.12.045 2.046.045h10.9c.925 0 1.567 0 2.046-.045.482-.044.675-.124.77-.194a1.25 1.25 0 0 0 .508-.881c.013-.118-.014-.325-.218-.765-.201-.436-.522-.992-.986-1.793L14.12 6.16c-.462-.798-.783-1.35-1.06-1.742-.279-.394-.444-.52-.552-.567ZM12 8.25a.75.75 0 0 1 .75.75v.324c.394.08.76.222 1.07.422.492.316.93.843.93 1.54a.75.75 0 0 1-1.5 0c0-.014-.01-.13-.241-.278a1.4 1.4 0 0 0-.259-.129v1.63c.363.162.743.35 1.06.577.469.335.94.853.94 1.628 0 .374-.079.727-.262 1.036a1.785 1.785 0 0 1-.729.675 2.98 2.98 0 0 1-1.009.286V17a.75.75 0 0 1-1.5 0v-.324a3.128 3.128 0 0 1-1.07-.422c-.492-.316-.93-.843-.93-1.54a.75.75 0 0 1 1.5 0c0 .014.01.13.241.278.073.047.16.091.259.129v-1.63c-.363-.162-.743-.35-1.06-.577-.469-.335-.94-.853-.94-1.628 0-.374.079-.727.262-1.036.184-.31.445-.528.729-.675a2.98 2.98 0 0 1 1.009-.286V9a.75.75 0 0 1 .75-.75Zm-.75 2.556c-.135.026-.24.06-.32.101a.292.292 0 0 0-.128.108.533.533 0 0 0-.052.27c0 .083.029.207.31.408.06.042.122.082.19.123v-1.01Zm1.5 3.379v1.009c.135-.026.24-.06.32-.101a.292.292 0 0 0 .128-.108.533.533 0 0 0 .052-.27c0-.083-.029-.207-.31-.408a2.644 2.644 0 0 0-.19-.123Z" fill="#151E28"/></svg>