<svg viewBox="0 0 24 24" fill="none" xmlns="http://www.w3.org/2000/svg"><path fill-rule="evenodd" clip-rule="evenodd" d="M9.367 2.25h5.266c1.092 0 1.958 0 2.655.057.714.058 1.317.18 1.869.46a4.75 4.75 0 0 1 2.075 2.077c.281.55.403 1.154.461 1.868.057.697.057 1.563.057 2.655v5.266c0 1.092 0 1.958-.057 2.655-.058.714-.18 1.317-.46 1.869a4.75 4.75 0 0 1-2.076 2.075c-.552.281-1.155.403-1.869.461-.697.057-1.563.057-2.655.057H9.367c-1.092 0-1.958 0-2.655-.057-.714-.058-1.317-.18-1.868-.46a4.75 4.75 0 0 1-2.076-2.076c-.281-.552-.403-1.155-.461-1.869-.057-.697-.057-1.563-.057-2.655V9.367c0-1.092 0-1.958.057-2.655.058-.714.18-1.317.46-1.868a4.75 4.75 0 0 1 2.077-2.076c.55-.281 1.154-.403 1.868-.461.697-.057 1.563-.057 2.655-.057ZM6.834 3.802c-.62.05-1.005.147-1.31.302a3.25 3.25 0 0 0-1.42 1.42c-.155.305-.251.69-.302 1.31-.051.63-.052 1.434-.052 2.566v5.2c0 1.133 0 1.937.052 2.566.05.62.147 1.005.302 1.31a3.25 3.25 0 0 0 1.42 1.42c.305.155.69.251 1.31.302.63.051 1.434.052 2.566.052h5.2c1.133 0 1.937 0 2.566-.052.62-.05 1.005-.147 1.31-.302a3.25 3.25 0 0 0 1.42-1.42c.155-.305.251-.69.302-1.31.051-.63.052-1.434.052-2.566V9.4c0-1.132 0-1.937-.052-2.566-.05-.62-.147-1.005-.302-1.31a3.25 3.25 0 0 0-1.42-1.42c-.305-.155-.69-.251-1.31-.302-.63-.051-1.434-.052-2.566-.052H9.4c-1.132 0-1.937 0-2.566.052ZM12 5.712a.75.75 0 0 1 .75.75v.528c.678.088 1.303.295 1.811.6.677.406 1.266 1.072 1.266 1.948a.75.75 0 0 1-1.5 0c0-.142-.1-.4-.537-.662a3.108 3.108 0 0 0-1.04-.368v2.985c.617.252 1.26.536 1.781.883.66.44 1.296 1.1 1.296 2.085 0 .5-.113.953-.359 1.34-.245.386-.59.653-.966.836-.514.248-1.129.356-1.752.398v.503a.75.75 0 0 1-1.5 0v-.528c-.678-.088-1.303-.295-1.812-.6-.677-.406-1.265-1.072-1.265-1.949a.75.75 0 0 1 1.5 0c0 .143.1.4.537.663.27.162.626.294 1.04.368v-2.985c-.617-.252-1.261-.536-1.782-.883-.66-.44-1.295-1.1-1.295-2.086 0-.499.113-.952.359-1.34a2.31 2.31 0 0 1 .966-.835c.514-.248 1.129-.357 1.752-.398v-.503a.75.75 0 0 1 .75-.75Zm-.75 2.757c-.467.038-.835.117-1.1.245a.816.816 0 0 0-.352.289c-.066.104-.125.266-.125.535 0 .245.134.51.627.838.267.178.588.34.95.501V8.47Zm1.5 4.654v2.408c.467-.038.835-.117 1.099-.245a.815.815 0 0 0 .353-.29c.066-.103.125-.265.125-.535 0-.244-.135-.508-.628-.837a6.481 6.481 0 0 0-.949-.501Z" fill="#151E28"/></svg>