<svg viewBox="0 0 24 24" fill="none" xmlns="http://www.w3.org/2000/svg"><path fill-rule="evenodd" clip-rule="evenodd" d="M2.53 1.47a.75.75 0 0 0-1.06 1.06l4.575 4.575C4.528 9.29 3.25 11.73 3.25 14a8.75 8.75 0 0 0 15.389 5.7l2.83 2.83a.75.75 0 0 0 1.061-1.06l-20-20Zm15.045 17.166L7.124 8.184C5.724 10.242 4.75 12.271 4.75 14a7.25 7.25 0 0 0 12.825 4.636Zm-4.64-17.17a2.73 2.73 0 0 0-1.87 0c-.402.145-.73.41-1.043.722-.305.304-.653.714-1.077 1.213l-.021.024-.076.09a.75.75 0 0 0 1.144.97l.075-.089c.45-.53.758-.89 1.014-1.146.254-.253.397-.339.495-.374.279-.101.57-.101.849 0 .098.035.24.12.494.373.256.256.564.617 1.013 1.146 1.273 1.498 2.615 3.176 3.637 4.866 1.032 1.705 1.68 3.331 1.68 4.739 0 .308-.018.61-.055.907a.75.75 0 0 0 1.488.186c.045-.358.068-.723.068-1.093 0-1.822-.82-3.736-1.897-5.516-1.087-1.795-2.493-3.548-3.777-5.06l-.021-.025c-.424-.498-.772-.908-1.077-1.212-.313-.312-.641-.577-1.044-.722Z" fill="#151E28"/></svg>