<svg viewBox="0 0 24 24" fill="none" xmlns="http://www.w3.org/2000/svg"><path fill-rule="evenodd" clip-rule="evenodd" d="M2.53 1.47a.75.75 0 0 0-1.06 1.06l3.603 3.604a9.154 9.154 0 0 0-3.057 3.518 9.088 9.088 0 0 0-.605 1.563 6.934 6.934 0 0 0-.15.658l-.002.013-.001.005v.002L2 12l-.742-.106a.75.75 0 0 0 0 .212L2 12l-.742.107v.004l.001.008.004.022.013.075a8.185 8.185 0 0 0 .314 1.13 9.35 9.35 0 0 0 1.445 2.617C4.555 17.897 7.273 19.75 12 19.75c2.291 0 4.12-.435 5.574-1.115l3.896 3.895a.75.75 0 1 0 1.06-1.06l-20-20Zm6.341 8.462L6.156 7.217a7.653 7.653 0 0 0-2.796 3.101 7.59 7.59 0 0 0-.505 1.303c-.046.163-.075.29-.092.375V12a6.664 6.664 0 0 0 .241.841 7.85 7.85 0 0 0 1.21 2.196C5.447 16.603 7.728 18.25 12 18.25c1.82 0 3.273-.3 4.433-.756l-2.365-2.365a3.75 3.75 0 0 1-5.197-5.197ZM9.97 11.03a2.25 2.25 0 0 0 3.001 3.001l-3-3.001Zm.13-5.16c.583-.078 1.216-.12 1.9-.12 4.274 0 6.555 1.647 7.786 3.213a7.848 7.848 0 0 1 1.212 2.196 6.677 6.677 0 0 1 .24.841l-.017.084a6.387 6.387 0 0 1-.166.592 7.848 7.848 0 0 1-.937 1.905.75.75 0 1 0 1.244.838 9.353 9.353 0 0 0 1.117-2.272 7.834 7.834 0 0 0 .25-.949l.01-.062.003-.02v-.006l.001-.002v-.001L22 12l.742.106a.754.754 0 0 0 0-.212L22 12l.742-.107v-.004l-.001-.007-.004-.023a4.095 4.095 0 0 0-.067-.331 8.144 8.144 0 0 0-.26-.874 9.349 9.349 0 0 0-1.445-2.617c-1.52-1.934-4.238-3.787-8.966-3.787-.746 0-1.445.046-2.097.132a.75.75 0 1 0 .196 1.487Zm2.194 3.05a.75.75 0 0 1 .957-.456 3.758 3.758 0 0 1 2.286 2.286.75.75 0 1 1-1.414.5 2.259 2.259 0 0 0-1.372-1.372.75.75 0 0 1-.457-.957Z" fill="#151E28"/></svg>