<svg viewBox="0 0 24 24" fill="none" xmlns="http://www.w3.org/2000/svg"><path fill-rule="evenodd" clip-rule="evenodd" d="M2.79 12.13a4.543 4.543 0 0 1-.028-.13l.029-.13c.039-.167.105-.413.212-.712a7.848 7.848 0 0 1 1.211-2.195C5.445 7.397 7.726 5.75 12 5.75c4.274 0 6.555 1.647 7.786 3.213a7.848 7.848 0 0 1 1.212 2.196 6.677 6.677 0 0 1 .24.841 6.67 6.67 0 0 1-.241.841 7.85 7.85 0 0 1-1.21 2.196C18.553 16.603 16.272 18.25 12 18.25s-6.554-1.647-7.785-3.213a7.85 7.85 0 0 1-1.212-2.196 6.664 6.664 0 0 1-.212-.712Zm19.952-.023L22 12l.742.106a.754.754 0 0 0 0-.212L22 12l.742-.107v-.004l-.001-.007-.004-.023a4.095 4.095 0 0 0-.067-.331 8.144 8.144 0 0 0-.26-.874 9.349 9.349 0 0 0-1.445-2.617c-1.52-1.934-4.238-3.787-8.966-3.787-4.727 0-7.445 1.853-8.964 3.787a9.349 9.349 0 0 0-1.445 2.617 8.164 8.164 0 0 0-.314 1.13l-.013.075-.004.023v.007l-.001.003v.001L2 12l-.742-.106a.75.75 0 0 0 0 .212L2 12l-.742.107v.004l.001.008.004.022.013.075a8.185 8.185 0 0 0 .314 1.13 9.35 9.35 0 0 0 1.445 2.617C4.555 17.897 7.273 19.75 12 19.75c4.727 0 7.446-1.853 8.965-3.787a9.35 9.35 0 0 0 1.444-2.617 8.144 8.144 0 0 0 .315-1.13l.013-.075.004-.022v-.008l.001-.003ZM9.75 12a2.25 2.25 0 1 1 4.5 0 2.25 2.25 0 0 1-4.5 0ZM12 8.25a3.75 3.75 0 1 0 0 7.5 3.75 3.75 0 0 0 0-7.5Z" fill="#151E28"/></svg>