<svg viewBox="0 0 24 24" fill="none" xmlns="http://www.w3.org/2000/svg"><path fill-rule="evenodd" clip-rule="evenodd" d="M7.15 6.683c1.221-.555 2.802-.933 4.849-.933s3.627.378 4.849.933a.75.75 0 0 0 .62-1.366c-1.438-.653-3.234-1.067-5.47-1.067-2.235 0-4.03.414-5.468 1.067a.75.75 0 1 0 .62 1.366Zm-4.408 5.209a.75.75 0 0 0-1.484.214L2 12l-.742.107v.004l.001.007.004.023.013.075a8.185 8.185 0 0 0 .314 1.13 9.35 9.35 0 0 0 1.445 2.617l.01.012L.923 18.52a.75.75 0 1 0 1.152.96l2-2.4c1.004.911 2.343 1.716 4.117 2.198l-.433 2.599a.75.75 0 1 0 1.48.246l.423-2.539a15.85 15.85 0 0 0 2.337.166c.841 0 1.618-.059 2.337-.166l.423 2.54a.75.75 0 1 0 1.48-.247l-.433-2.599c1.773-.482 3.113-1.287 4.117-2.197l2 2.4a.75.75 0 0 0 1.152-.961l-2.12-2.545.009-.012a9.35 9.35 0 0 0 1.444-2.617 8.167 8.167 0 0 0 .315-1.13l.013-.075.004-.023v-.007l.001-.003c0-.001 0-.002-.742-.108l.742.106a.75.75 0 0 0-1.484-.214v.001L22 12l-.742-.106-.001.005-.003.017-.005.026a6.67 6.67 0 0 1-.252.9 7.848 7.848 0 0 1-1.212 2.195c-1.23 1.566-3.512 3.213-7.785 3.213s-6.554-1.647-7.785-3.213a7.85 7.85 0 0 1-1.212-2.196 6.664 6.664 0 0 1-.252-.9 2.08 2.08 0 0 1-.008-.042v-.007ZM2 12l.742-.107L2 12Z" fill="#151E28"/></svg>