<svg viewBox="0 0 24 24" fill="none" xmlns="http://www.w3.org/2000/svg"><path fill-rule="evenodd" clip-rule="evenodd" d="M3.75 12a8.25 8.25 0 1 1 16.5 0 8.25 8.25 0 0 1-16.5 0ZM12 2.25c-5.385 0-9.75 4.365-9.75 9.75s4.365 9.75 9.75 9.75 9.75-4.365 9.75-9.75S17.385 2.25 12 2.25ZM15 10a1 1 0 1 0 0-2 1 1 0 0 0 0 2Zm-5-1a1 1 0 1 1-2 0 1 1 0 0 1 2 0Zm-1.275 7.193.002-.009v.002l-.001.004-.001.003Zm-.001.004v.002-.006.004Zm0 0a1.082 1.082 0 0 1 .069-.152c.065-.121.185-.3.393-.484.403-.359 1.216-.811 2.814-.811s2.411.452 2.814.81c.208.185.328.364.394.485.033.06.052.107.061.132l.007.02a.75.75 0 0 0 1.452-.379L16 16c.728-.182.727-.182.727-.183v-.004l-.002-.006-.004-.014a1.324 1.324 0 0 0-.047-.142 2.576 2.576 0 0 0-.147-.32 3.307 3.307 0 0 0-.716-.891c-.722-.642-1.909-1.19-3.811-1.19s-3.089.548-3.81 1.19a3.306 3.306 0 0 0-.717.89 2.582 2.582 0 0 0-.194.463l-.004.014-.001.006-.001.003c0 .002 0 .002.727.184l-.728-.182a.75.75 0 0 0 1.452.379Z" fill="#151E28"/></svg>