<svg viewBox="0 0 24 24" fill="none" xmlns="http://www.w3.org/2000/svg"><path fill-rule="evenodd" clip-rule="evenodd" d="M12.5 3.75a8.24 8.24 0 0 1 6.746 3.5H17a.75.75 0 1 0 0 1.5h4a.75.75 0 0 0 .75-.75V4a.75.75 0 0 0-1.5 0v2.083A9.735 9.735 0 0 0 12.5 2.25c-5.385 0-9.75 4.365-9.75 9.75s4.365 9.75 9.75 9.75a9.75 9.75 0 0 0 8.736-5.416.75.75 0 1 0-1.343-.668A8.25 8.25 0 1 1 12.5 3.75Zm1 4.5h-.022c-.214 0-.41 0-.576.011-.178.012-.373.04-.572.122a1.75 1.75 0 0 0-.947.947c-.082.199-.11.394-.122.572-.011.165-.011.362-.011.576v.044c0 .214 0 .41.011.576.012.178.04.373.122.572.178.428.519.77.947.947.199.082.394.11.572.122.165.011.362.011.576.011h.022c.243 0 .388 0 .496.008.067.004.095.01.103.012a.25.25 0 0 1 .13.131.632.632 0 0 1 .013.103c.008.108.008.253.008.496s0 .388-.008.496a.632.632 0 0 1-.012.103.25.25 0 0 1-.131.13.632.632 0 0 1-.103.013 8.258 8.258 0 0 1-.496.008H12a.75.75 0 0 0 0 1.5h1.522c.214 0 .41 0 .576-.011.178-.012.373-.04.572-.122a1.75 1.75 0 0 0 .947-.947c.082-.199.11-.394.122-.572.011-.165.011-.362.011-.576v-.044c0-.214 0-.41-.011-.576a1.781 1.781 0 0 0-.122-.572 1.75 1.75 0 0 0-.947-.947 1.781 1.781 0 0 0-.572-.122c-.165-.011-.362-.011-.576-.011H13.5c-.243 0-.388 0-.496-.008a.632.632 0 0 1-.103-.012.25.25 0 0 1-.13-.131.632.632 0 0 1-.013-.103 8.258 8.258 0 0 1-.008-.496c0-.243 0-.388.008-.496a.63.63 0 0 1 .012-.103.25.25 0 0 1 .131-.13.644.644 0 0 1 .103-.013 8.29 8.29 0 0 1 .496-.008H15a.75.75 0 0 0 0-1.5h-1.5ZM9.75 9a.75.75 0 0 0-1.5 0v6a.75.75 0 0 0 1.5 0V9Z" fill="#151E28"/></svg>