<svg viewBox="0 0 24 24" fill="none" xmlns="http://www.w3.org/2000/svg"><path fill-rule="evenodd" clip-rule="evenodd" d="M11.982 5.714c.206.112.476.29.892.568l7.516 5.01c.346.231.562.376.711.496a.839.839 0 0 1 .134.125.25.25 0 0 1 0 .174.85.85 0 0 1-.134.125c-.149.12-.365.265-.71.495l-7.517 5.01c-.416.278-.686.457-.892.569-.13.07-.191.089-.21.094a.25.25 0 0 1-.16-.086 1.042 1.042 0 0 1-.037-.226 13.33 13.33 0 0 1-.022-1.058V6.99c0-.501 0-.824.022-1.058a1.04 1.04 0 0 1 .038-.226.25.25 0 0 1 .16-.086c.018.005.08.024.209.094Zm.715-1.319c-.275-.149-.614-.296-.999-.273a1.75 1.75 0 0 0-1.29.69c-.233.308-.298.672-.327.983-.028.31-.028.704-.028 1.16v10.09c0 .456 0 .849.028 1.16.029.31.094.675.326.982.309.408.78.66 1.291.691.385.023.724-.125.999-.273.274-.15.601-.367.98-.62l.03-.02 7.515-5.01.027-.018c.31-.207.585-.39.794-.558.215-.174.444-.395.574-.709l-.693-.287.693.287a1.75 1.75 0 0 0 0-1.34l-.688.285.688-.286c-.13-.313-.359-.535-.574-.708-.209-.168-.483-.351-.794-.559l-.027-.017-.416.624.416-.624-7.516-5.01-.029-.02a14.001 14.001 0 0 0-.98-.62ZM3.865 6.276 7.87 9.112a.75.75 0 1 0 .867-1.224L4.724 5.046l-.018-.012-.029-.02c-.379-.252-.706-.47-.98-.619-.275-.149-.614-.296-.999-.273a1.75 1.75 0 0 0-1.29.69c-.233.308-.298.672-.327.983-.028.31-.028.704-.028 1.16v10.09c0 .456 0 .849.028 1.16.029.31.094.675.326.982.309.408.78.66 1.291.691.385.023.724-.125.999-.273.274-.15.601-.367.98-.62l.03-.02.017-.011 4.013-2.842a.75.75 0 1 0-.867-1.224l-4.005 2.836c-.411.274-.678.45-.883.562-.13.07-.191.089-.21.094a.25.25 0 0 1-.16-.086 1.043 1.043 0 0 1-.037-.226 13.317 13.317 0 0 1-.022-1.058V6.99c0-.501 0-.824.022-1.058a.985.985 0 0 1 .038-.226.25.25 0 0 1 .16-.086c.018.005.08.024.209.094.205.111.472.288.883.562Z" fill="#151E28"/></svg>