<svg viewBox="0 0 24 24" fill="none" xmlns="http://www.w3.org/2000/svg"><path fill-rule="evenodd" clip-rule="evenodd" d="M13.75 3.892V7c0 .69.56 1.25 1.25 1.25h3.108a1.252 1.252 0 0 0-.155-.23 3.85 3.85 0 0 0-.19-.197l-3.586-3.586a3.792 3.792 0 0 0-.196-.19 1.25 1.25 0 0 0-.231-.155Zm6 5.108v3a.75.75 0 0 1-1.5 0V9.75H15A2.75 2.75 0 0 1 12.25 7V3.75H11a.75.75 0 0 1 0-1.5h2.025c.144 0 .258 0 .37.01a2.75 2.75 0 0 1 1.557.644c.085.073.166.153.268.255l.017.018 3.586 3.586.018.017c.102.102.182.182.255.268.373.439.598.983.645 1.557.01.112.009.226.009.37V9Zm-14-3A2.25 2.25 0 0 1 8 3.75a.75.75 0 0 0 0-1.5A3.75 3.75 0 0 0 4.25 6a.75.75 0 0 0 1.5 0Zm0 3a.75.75 0 0 0-1.5 0v3a.75.75 0 0 0 1.5 0V9Zm0 6a.75.75 0 0 0-1.5 0v3a.75.75 0 0 0 1.5 0v-3Zm14 0a.75.75 0 0 0-1.5 0v3a.75.75 0 0 0 1.5 0v-3ZM6.876 19.95a.75.75 0 0 0-.752 1.298c.553.32 1.194.502 1.876.502h2a.75.75 0 0 0 0-1.5H8c-.411 0-.794-.11-1.124-.3Zm10.374 1.586a.75.75 0 1 0-.5-1.414 2.248 2.248 0 0 1-.75.128h-3a.75.75 0 0 0 0 1.5h3c.437 0 .858-.075 1.25-.214Z" fill="#151E28"/></svg>