<svg viewBox="0 0 24 24" fill="none" xmlns="http://www.w3.org/2000/svg"><path fill-rule="evenodd" clip-rule="evenodd" d="M12 2.75a9.25 9.25 0 1 0 0 18.5 9.25 9.25 0 0 0 0-18.5Zm5.48 18.5A10.745 10.745 0 0 0 22.75 12c0-5.937-4.813-10.75-10.75-10.75S1.25 6.063 1.25 12 6.063 22.75 12 22.75h10a.75.75 0 0 0 0-1.5h-4.52ZM12 10.75a1.25 1.25 0 1 0 0 2.5 1.25 1.25 0 0 0 0-2.5ZM9.25 12a2.75 2.75 0 1 1 5.5 0 2.75 2.75 0 0 1-5.5 0ZM12 19a1 1 0 1 0 0-2 1 1 0 0 0 0 2Zm1-13a1 1 0 1 1-2 0 1 1 0 0 1 2 0Zm-7 7a1 1 0 1 0 0-2 1 1 0 0 0 0 2Zm13-1a1 1 0 1 1-2 0 1 1 0 0 1 2 0Z" fill="#151E28"/></svg>