<svg viewBox="0 0 24 24" fill="none" xmlns="http://www.w3.org/2000/svg"><path fill-rule="evenodd" clip-rule="evenodd" d="M8.146 3.25h7.709c1.104 0 1.985 0 2.657.06.661.06 1.285.187 1.75.571a2.75 2.75 0 0 1 .995 2.234c-.025.602-.349 1.151-.747 1.682-.404.54-.994 1.195-1.733 2.016l-.026.03-2.908 3.23a8.009 8.009 0 0 0-.449.52 3.25 3.25 0 0 0-.63 1.642 7.976 7.976 0 0 0-.014.687v2.842c0 2.044-2.151 3.374-3.98 2.46a2.75 2.75 0 0 1-1.52-2.46v-2.308c0-.941-.004-1.298-.078-1.63a3.25 3.25 0 0 0-.34-.886c-.167-.296-.402-.564-1.032-1.264L5.25 9.842l-.027-.029c-.739-.821-1.328-1.476-1.733-2.016-.398-.53-.721-1.08-.747-1.682a2.75 2.75 0 0 1 .995-2.234c.465-.384 1.09-.511 1.75-.57.672-.061 1.553-.061 2.658-.061ZM5.622 4.804c-.615.056-.837.158-.928.233a1.25 1.25 0 0 0-.452 1.015c.005.117.077.35.448.846.36.479.903 1.084 1.674 1.941l2.55 2.834.059.064c.552.614.908 1.01 1.166 1.467.228.405.396.841.497 1.295.115.513.114 1.045.114 1.87v2.395a1.25 1.25 0 0 0 2.5 0v-2.879c0-.346 0-.57.02-.788.081-.87.4-1.7.921-2.4a8.53 8.53 0 0 1 .513-.6l.024-.027 2.908-3.231c.771-.857 1.315-1.462 1.674-1.942.371-.494.443-.728.448-.845a1.25 1.25 0 0 0-.452-1.015c-.09-.075-.312-.177-.928-.233-.597-.053-1.41-.054-2.563-.054h-7.63c-1.153 0-1.966 0-2.563.054Z" fill="#151E28"/></svg>