<svg viewBox="0 0 24 24" fill="none" xmlns="http://www.w3.org/2000/svg"><path fill-rule="evenodd" clip-rule="evenodd" d="M8.012 3.75c.77 0 1.032.005 1.27.062.23.055.45.146.651.27.21.128.399.31.943.854l.188.188.53-.53-.53.53.06.06c.46.462.78.78 1.16 1.013a3.75 3.75 0 0 0 1.083.45c.433.103.884.103 1.536.103H16.2c.147 0 .496 0 .88.037.41.04.755.113.942.208.553.282.846.54.927.84a.75.75 0 0 0 1.448-.393c-.265-.978-1.119-1.49-1.694-1.783-.455-.232-1.042-.322-1.478-.365-.459-.044-.868-.044-1.023-.044h-1.214c-.77 0-1.032-.005-1.27-.062a2.25 2.25 0 0 1-.65-.27c-.21-.128-.4-.31-.944-.854l-.188-.188-.53.53.53-.53-.06-.06c-.46-.462-.78-.78-1.16-1.013a3.75 3.75 0 0 0-1.083-.45C9.2 2.25 8.749 2.25 8.097 2.25H6.768c-.813 0-1.468 0-2 .043-.546.045-1.026.14-1.47.366a3.75 3.75 0 0 0-1.64 1.639c-.226.444-.32.924-.365 1.47-.043.531-.043 1.187-.043 2v7.464c0 .813 0 1.469.043 2 .045.546.14 1.026.366 1.47a3.75 3.75 0 0 0 1.639 1.64c.348.177.631.291.922.352.274.056.523.056.751.056H21a.75.75 0 0 0 .735-.603l1.235-6.172.007-.033c.125-.628.229-1.147.276-1.572.049-.439.048-.86-.094-1.27a2.75 2.75 0 0 0-1.207-1.472c-.374-.22-.786-.302-1.226-.34-.426-.038-.955-.038-1.596-.038h-8.533c-.445 0-.819 0-1.128.023a2.78 2.78 0 0 0-.93.207 2.75 2.75 0 0 0-1.154.946 2.78 2.78 0 0 0-.386.871c-.083.3-.157.666-.244 1.102l-.005.026-1.365 6.825H5c-.263 0-.366-.003-.476-.025-.104-.022-.252-.07-.545-.22a2.25 2.25 0 0 1-.984-.983c-.1-.198-.17-.459-.207-.913-.037-.462-.038-1.057-.038-1.909V7.8c0-.852 0-1.447.038-1.91.038-.453.107-.714.207-.911a2.25 2.25 0 0 1 .984-.984c.197-.1.458-.17.912-.207.462-.037 1.057-.038 1.91-.038h1.21Zm11.085 7c.682 0 1.145 0 1.498.031.347.03.503.085.598.14.257.152.451.389.549.67.036.104.058.268.02.614-.039.352-.13.806-.263 1.476l-1.114 5.569H6.915l1.306-6.53c.094-.47.157-.781.223-1.02.064-.23.118-.34.17-.415a1.25 1.25 0 0 1 .525-.43c.084-.037.203-.069.44-.086.248-.018.566-.019 1.044-.019h8.474Z" fill="#151E28"/></svg>