<svg viewBox="0 0 24 24" fill="none" xmlns="http://www.w3.org/2000/svg"><path fill-rule="evenodd" clip-rule="evenodd" d="M4.75 3a.75.75 0 0 0-1.5 0v4a3.751 3.751 0 0 0 3 3.675V21a.75.75 0 0 0 1.5 0V10.675a3.75 3.75 0 0 0 3-3.675V3a.75.75 0 0 0-1.5 0v4a2.25 2.25 0 0 1-4.5 0V3Zm3 0a.75.75 0 0 0-1.5 0v4a.75.75 0 0 0 1.5 0V3ZM17 2.25a.75.75 0 0 1 .75.75v9.325a3.75 3.75 0 0 1 3 3.675v2a3.75 3.75 0 1 1-7.5 0v-2a3.751 3.751 0 0 1 3-3.675V3a.75.75 0 0 1 .75-.75Zm0 11.5A2.25 2.25 0 0 0 14.75 16v2a2.25 2.25 0 0 0 4.5 0v-2A2.25 2.25 0 0 0 17 13.75Z" fill="#151E28"/></svg>