<svg viewBox="0 0 24 24" fill="none" xmlns="http://www.w3.org/2000/svg"><path fill-rule="evenodd" clip-rule="evenodd" d="M12 4.75c-2.423 0-4.25 1.751-4.25 3.75 0 1.07.51 2.053 1.362 2.75H21a.75.75 0 0 1 0 1.5H3a.75.75 0 0 1 0-1.5h4.1a4.893 4.893 0 0 1-.85-2.75c0-2.972 2.65-5.25 5.75-5.25 2.894 0 5.384 1.977 5.714 4.659a.75.75 0 0 1-1.489.182C16.002 6.273 14.253 4.75 12 4.75Zm5.714 10.159a.75.75 0 1 0-1.489.182c.016.134.025.27.025.409 0 1.999-1.826 3.75-4.25 3.75-2.253 0-4.002-1.523-4.225-3.341a.75.75 0 1 0-1.489.182c.33 2.682 2.82 4.659 5.714 4.659 3.1 0 5.75-2.278 5.75-5.25 0-.2-.012-.397-.036-.591Z" fill="#151E28"/></svg>