<svg viewBox="0 0 24 24" fill="none" xmlns="http://www.w3.org/2000/svg"><path fill-rule="evenodd" clip-rule="evenodd" d="M2.25 7c0 .414.336.75.75.75h1.5a.75.75 0 1 0 0-1.5H3a.75.75 0 0 0-.75.75Zm0 10c0 .414.336.75.75.75h11.5a.75.75 0 0 0 0-1.5H3a.75.75 0 0 0-.75.75Zm4-8v5.5a.75.75 0 0 0 1.5 0V3a.75.75 0 0 0-1.5 0v6ZM7 18.75a.75.75 0 0 0-.75.75V21a.75.75 0 0 0 1.5 0v-1.5a.75.75 0 0 0-.75-.75ZM8.75 7c0 .414.336.75.75.75H21a.75.75 0 0 0 0-1.5H9.5a.75.75 0 0 0-.75.75ZM17 8.75a.75.75 0 0 0-.75.75V21a.75.75 0 0 0 1.5 0V9.5a.75.75 0 0 0-.75-.75ZM16.25 3v1.5a.75.75 0 0 0 1.5 0V3a.75.75 0 0 0-1.5 0Zm2.5 14c0 .414.336.75.75.75H21a.75.75 0 0 0 0-1.5h-1.5a.75.75 0 0 0-.75.75Z" fill="#151E28"/></svg>