<svg viewBox="0 0 24 24" fill="none" xmlns="http://www.w3.org/2000/svg"><path fill-rule="evenodd" clip-rule="evenodd" d="M12 1.25A7.75 7.75 0 0 0 4.25 9v10.878c0 .543.333.943.745 1.114.388.162.847.129 1.225-.1a1.25 1.25 0 0 1 1.386.064c.104.076.223.21.629.697l.689.827a.75.75 0 0 0 1.152 0l.042-.05c.43-.517.723-.867.97-1.114.24-.243.38-.328.483-.366a1.25 1.25 0 0 1 .858 0c.103.038.243.123.484.366.246.247.538.597.97 1.114l.04.05a.75.75 0 0 0 1.153 0l.69-.827c.405-.487.524-.621.628-.697a1.25 1.25 0 0 1 1.387-.063c.377.228.836.261 1.224.1.412-.172.745-.572.745-1.115V9A7.75 7.75 0 0 0 12 1.25ZM5.75 9a6.25 6.25 0 0 1 12.5 0v10.45a2.75 2.75 0 0 0-2.744.297c-.272.2-.516.493-.833.874l-.06.072-.115.138c-.188-.218-.36-.41-.52-.572-.307-.31-.631-.57-1.034-.718a2.75 2.75 0 0 0-1.888 0c-.402.147-.726.408-1.034.718-.16.162-.332.354-.52.572l-.115-.138-.06-.072c-.317-.381-.561-.674-.832-.874a2.75 2.75 0 0 0-2.745-.298V9Zm4 0a.75.75 0 0 0-1.5 0v2a.75.75 0 0 0 1.5 0V9Zm6 0a.75.75 0 0 0-1.5 0v2a.75.75 0 0 0 1.5 0V9Z" fill="#151E28"/></svg>