<svg viewBox="0 0 24 24" fill="none" xmlns="http://www.w3.org/2000/svg"><path fill-rule="evenodd" clip-rule="evenodd" d="M7.643 4.25H8a.75.75 0 0 1 0 1.5h-.33c-.486 0-.81 0-1.06.02-.242.018-.363.05-.448.087a1.25 1.25 0 0 0-.527.44c-.052.076-.105.19-.166.424-.064.244-.122.562-.209 1.04l-.923 5.08a4.251 4.251 0 0 1 6.347 2.909h2.632a4.251 4.251 0 0 1 6.347-2.909l-.923-5.08a15.754 15.754 0 0 0-.21-1.04c-.06-.234-.114-.348-.166-.424a1.25 1.25 0 0 0-.527-.44c-.084-.037-.205-.07-.447-.088a15.78 15.78 0 0 0-1.06-.019H16a.75.75 0 0 1 0-1.5h.356c.452 0 .832 0 1.146.024.33.024.64.078.943.212.47.208.871.543 1.16.968.186.274.294.57.378.89.079.304.147.678.228 1.123l.005.026 1.522 8.373a.748.748 0 0 1-.003.281 4.25 4.25 0 0 1-8.42 1.103h-2.631a4.251 4.251 0 0 1-8.42-1.103.749.749 0 0 1-.002-.281l1.522-8.373.005-.026c.08-.445.149-.819.228-1.124.084-.32.192-.615.378-.89a2.75 2.75 0 0 1 1.16-.967 2.76 2.76 0 0 1 .942-.212c.314-.024.694-.024 1.146-.024ZM6.5 13.75a2.75 2.75 0 1 0 0 5.5 2.75 2.75 0 0 0 0-5.5Zm8.25 2.75a2.75 2.75 0 1 1 5.5 0 2.75 2.75 0 0 1-5.5 0Z" fill="#151E28"/></svg>