<svg viewBox="0 0 24 24" fill="none" xmlns="http://www.w3.org/2000/svg"><path fill-rule="evenodd" clip-rule="evenodd" d="M12 3.75c-.086 0-.287.052-.579.421-.285.362-.574.932-.83 1.702a15.099 15.099 0 0 0-.56 2.377h3.938a15.099 15.099 0 0 0-.56-2.377c-.256-.77-.545-1.34-.83-1.702-.292-.37-.493-.421-.579-.421Zm2.153 6H9.847A25.584 25.584 0 0 0 9.75 12c0 .781.034 1.535.097 2.25h4.306A25.7 25.7 0 0 0 14.25 12a25.7 25.7 0 0 0-.097-2.25Zm-5.64-1.5c.157-1.06.38-2.026.654-2.851.161-.483.345-.932.552-1.33a8.271 8.271 0 0 0-5.07 4.181h3.865Zm-4.452 1.5h4.28A27.19 27.19 0 0 0 8.25 12c0 .773.032 1.527.092 2.25H4.06A8.256 8.256 0 0 1 3.75 12c0-.78.108-1.535.31-2.25Zm11.597 0h4.281c.203.715.311 1.47.311 2.25a8.26 8.26 0 0 1-.31 2.25h-4.282a27.271 27.271 0 0 0 0-4.5Zm3.692-1.5h-3.864a16.946 16.946 0 0 0-.653-2.851 9.181 9.181 0 0 0-.552-1.33 8.27 8.27 0 0 1 5.07 4.181Zm-10.836 7.5H4.65a8.271 8.271 0 0 0 5.069 4.18 9.183 9.183 0 0 1-.552-1.329 16.946 16.946 0 0 1-.653-2.851Zm4.896 2.377a15.1 15.1 0 0 0 .559-2.377H10.03a15.1 15.1 0 0 0 .56 2.377c.256.77.545 1.34.83 1.701.292.37.493.422.579.422.086 0 .287-.052.579-.422.285-.361.574-.93.83-1.701Zm1.423.474c.275-.825.497-1.79.653-2.851h3.864a8.27 8.27 0 0 1-5.069 4.18c.207-.397.39-.846.552-1.329ZM12 21.75c5.385 0 9.75-4.365 9.75-9.75S17.385 2.25 12 2.25 2.25 6.615 2.25 12s4.365 9.75 9.75 9.75Z" fill="#151E28"/></svg>