<svg viewBox="0 0 24 24" fill="none" xmlns="http://www.w3.org/2000/svg"><path fill-rule="evenodd" clip-rule="evenodd" d="M3.75 12a8.25 8.25 0 0 1 11.5-7.585v1.132c0 .566-.003.759-.035.94a2.253 2.253 0 0 1-.153.505c-.073.168-.178.33-.492.801l-.266.399c-.294.441-.396.59-.512.715a2.25 2.25 0 0 1-.752.529c-.155.067-.33.114-.845.242l-1.582.396a.698.698 0 0 1-.662-.184 2.198 2.198 0 0 0-3.52.571l-.811 1.622a3.504 3.504 0 0 0-.37 1.567v.936c0 .176 0 .237-.003.293a2.25 2.25 0 0 1-.423 1.195A8.212 8.212 0 0 1 3.75 12Zm1.965 5.344A8.232 8.232 0 0 0 12 20.25a8.31 8.31 0 0 0 1.25-.094v-1.302a.632.632 0 0 0-.35-.565 2.132 2.132 0 0 1-.953-2.86l.132-.264c.235-.47.616-.851 1.086-1.086l.765-.382.092-.046c.677-.34 1.143-.573 1.622-.672a3.75 3.75 0 0 1 2.649.43c.423.246.791.614 1.327 1.15l.073.073.095.096A8.238 8.238 0 0 0 20.25 12a8.24 8.24 0 0 0-3.5-6.746v.355c0 .48 0 .813-.058 1.14-.052.29-.137.573-.255.843-.133.305-.318.582-.585.981l-.034.052-.266.399-.033.049c-.249.374-.421.632-.631.857a3.751 3.751 0 0 1-1.252.883c-.283.122-.584.197-1.02.306l-.057.014-1.582.396a2.198 2.198 0 0 1-2.087-.578.698.698 0 0 0-1.118.181l-.81 1.622c-.14.278-.212.585-.212.896v.956c0 .15 0 .253-.006.355a3.75 3.75 0 0 1-1.03 2.383Zm13.401-1.167-.484-.484c-.637-.637-.86-.852-1.093-.988a2.25 2.25 0 0 0-1.59-.258c-.263.055-.543.189-1.349.591l-.765.383a.927.927 0 0 0-.414.414l-.132.264a.632.632 0 0 0 .283.848 2.132 2.132 0 0 1 1.178 1.907v.927a8.277 8.277 0 0 0 4.366-3.604ZM12 2.25c-5.385 0-9.75 4.365-9.75 9.75s4.365 9.75 9.75 9.75 9.75-4.365 9.75-9.75S17.385 2.25 12 2.25Z" fill="#151E28"/></svg>