<svg viewBox="0 0 24 24" fill="none" xmlns="http://www.w3.org/2000/svg"><path fill-rule="evenodd" clip-rule="evenodd" d="M17.83 2.25h-.66c-.535 0-.98 0-1.345.03-.38.03-.736.097-1.073.27a2.75 2.75 0 0 0-1.202 1.2c-.172.337-.24.694-.27 1.074-.03.364-.03.81-.03 1.344v.661c0 .534 0 .98.03 1.344.03.38.098.737.27 1.074a2.75 2.75 0 0 0 1.201 1.202c.338.172.694.239 1.074.27.365.03.81.03 1.345.03h.66c.535 0 .98 0 1.345-.03.38-.031.736-.098 1.073-.27a2.75 2.75 0 0 0 1.202-1.202c.172-.337.24-.694.27-1.074.03-.364.03-.81.03-1.344v-.66c0-.535 0-.98-.03-1.345-.03-.38-.098-.737-.27-1.074a2.75 2.75 0 0 0-1.201-1.202c-.338-.172-.694-.239-1.074-.27-.365-.03-.81-.03-1.345-.03Zm1.223 1.524c.287.024.424.066.514.112.236.12.427.31.547.546.046.09.088.228.111.515.024.296.025.68.025 1.253v.6c0 .572 0 .956-.025 1.252-.023.287-.065.424-.111.515a1.25 1.25 0 0 1-.547.546c-.09.046-.227.088-.515.112-.295.024-.68.025-1.252.025h-.6c-.572 0-.957-.001-1.252-.025-.288-.024-.425-.066-.516-.112a1.25 1.25 0 0 1-.546-.546c-.046-.09-.088-.228-.111-.515A17.24 17.24 0 0 1 14.75 6.8v-.6c0-.573 0-.957.025-1.253.023-.287.065-.424.111-.515a1.25 1.25 0 0 1 .546-.546c.091-.046.228-.088.515-.112.296-.024.68-.024 1.253-.024h.6c.572 0 .957 0 1.252.024ZM6.2 2.25h-.03c-.535 0-.98 0-1.345.03-.38.03-.736.097-1.073.27a2.75 2.75 0 0 0-1.202 1.2c-.172.337-.24.694-.27 1.074-.03.364-.03.81-.03 1.344v.66c0 .535 0 .981.03 1.345.03.38.098.737.27 1.074a2.75 2.75 0 0 0 1.202 1.202c.337.172.693.239 1.073.27.365.03.81.03 1.345.03h.66c.535 0 .98 0 1.345-.03.38-.031.736-.098 1.073-.27a2.75 2.75 0 0 0 1.202-1.202c.172-.337.24-.694.27-1.074.03-.364.03-.81.03-1.344v-.66c0-.535 0-.98-.03-1.345-.03-.38-.098-.737-.27-1.074a2.75 2.75 0 0 0-1.202-1.202c-.337-.172-.693-.239-1.073-.27-.365-.03-.81-.03-1.345-.03H6.2ZM4.433 3.886c.09-.046.227-.088.514-.112.296-.024.68-.024 1.253-.024h.6c.572 0 .957 0 1.253.024.287.024.424.066.514.112.236.12.427.31.547.546.046.09.088.228.111.515.024.296.025.68.025 1.253v.6c0 .572 0 .956-.025 1.252-.023.287-.065.424-.111.515a1.25 1.25 0 0 1-.547.546c-.09.046-.227.088-.514.112-.296.024-.68.025-1.253.025h-.6c-.572 0-.957-.001-1.253-.025-.287-.024-.424-.066-.514-.112a1.25 1.25 0 0 1-.547-.546c-.046-.09-.088-.228-.111-.515A17.24 17.24 0 0 1 3.75 6.8v-.6c0-.573 0-.957.025-1.253.023-.287.065-.424.111-.515a1.25 1.25 0 0 1 .547-.546ZM6.2 13.249h-.03c-.535 0-.98 0-1.345.03-.38.031-.736.098-1.073.27a2.75 2.75 0 0 0-1.202 1.202c-.172.337-.24.694-.27 1.074-.03.364-.03.81-.03 1.344v.661c0 .534 0 .98.03 1.344.03.38.098.737.27 1.074a2.75 2.75 0 0 0 1.202 1.202c.337.172.693.239 1.073.27.365.03.81.03 1.345.03h.66c.535 0 .98 0 1.345-.03.38-.031.736-.098 1.073-.27a2.75 2.75 0 0 0 1.202-1.202c.172-.337.24-.694.27-1.074.03-.364.03-.81.03-1.344v-.661c0-.534 0-.98-.03-1.344-.03-.38-.098-.737-.27-1.074a2.75 2.75 0 0 0-1.202-1.202c-.337-.172-.693-.239-1.073-.27-.365-.03-.81-.03-1.345-.03H6.2Zm-1.767 1.637c.09-.046.227-.088.514-.112.296-.024.68-.024 1.253-.024h.6c.572 0 .957 0 1.253.024.287.024.424.066.514.112.236.12.427.31.547.546.046.09.088.228.111.515.024.296.025.68.025 1.253v.6c0 .572 0 .956-.025 1.252-.023.287-.065.424-.111.515a1.25 1.25 0 0 1-.547.546c-.09.046-.227.088-.514.112-.296.024-.68.024-1.253.024h-.6c-.572 0-.957 0-1.253-.024-.287-.024-.424-.066-.514-.112a1.25 1.25 0 0 1-.547-.546c-.046-.09-.088-.228-.111-.515-.024-.296-.025-.68-.025-1.253v-.6c0-.572 0-.956.025-1.252.023-.287.065-.424.111-.515a1.25 1.25 0 0 1 .547-.546ZM18.25 14a.75.75 0 0 0-1.5 0v2.75H14a.75.75 0 0 0 0 1.5h2.75V21a.75.75 0 0 0 1.5 0v-2.75H21a.75.75 0 0 0 0-1.5h-2.75V14Z" fill="#151E28"/></svg>