<svg viewBox="0 0 24 24" fill="none" xmlns="http://www.w3.org/2000/svg"><path fill-rule="evenodd" clip-rule="evenodd" d="M2.25 4c0-.966.784-1.75 1.75-1.75h2c.966 0 1.75.784 1.75 1.75v2A1.75 1.75 0 0 1 6 7.75H4A1.75 1.75 0 0 1 2.25 6V4ZM4 3.75a.25.25 0 0 0-.25.25v2c0 .138.112.25.25.25h2A.25.25 0 0 0 6.25 6V4A.25.25 0 0 0 6 3.75H4ZM2.25 11c0-.966.784-1.75 1.75-1.75h2c.966 0 1.75.784 1.75 1.75v2A1.75 1.75 0 0 1 6 14.75H4A1.75 1.75 0 0 1 2.25 13v-2ZM4 10.75a.25.25 0 0 0-.25.25v2c0 .138.112.25.25.25h2a.25.25 0 0 0 .25-.25v-2a.25.25 0 0 0-.25-.25H4Zm0 5.5A1.75 1.75 0 0 0 2.25 18v2c0 .966.784 1.75 1.75 1.75h2A1.75 1.75 0 0 0 7.75 20v-2A1.75 1.75 0 0 0 6 16.25H4ZM3.75 18a.25.25 0 0 1 .25-.25h2a.25.25 0 0 1 .25.25v2a.25.25 0 0 1-.25.25H4a.25.25 0 0 1-.25-.25v-2Zm5.5-14c0-.966.784-1.75 1.75-1.75h2c.966 0 1.75.784 1.75 1.75v2A1.75 1.75 0 0 1 13 7.75h-2A1.75 1.75 0 0 1 9.25 6V4ZM11 3.75a.25.25 0 0 0-.25.25v2c0 .138.112.25.25.25h2a.25.25 0 0 0 .25-.25V4a.25.25 0 0 0-.25-.25h-2Zm0 5.5A1.75 1.75 0 0 0 9.25 11v2c0 .966.784 1.75 1.75 1.75h2A1.75 1.75 0 0 0 14.75 13v-2A1.75 1.75 0 0 0 13 9.25h-2ZM10.75 11a.25.25 0 0 1 .25-.25h2a.25.25 0 0 1 .25.25v2a.25.25 0 0 1-.25.25h-2a.25.25 0 0 1-.25-.25v-2Zm-1.5 7c0-.966.784-1.75 1.75-1.75h2c.966 0 1.75.784 1.75 1.75v2A1.75 1.75 0 0 1 13 21.75h-2A1.75 1.75 0 0 1 9.25 20v-2Zm1.75-.25a.25.25 0 0 0-.25.25v2c0 .138.112.25.25.25h2a.25.25 0 0 0 .25-.25v-2a.25.25 0 0 0-.25-.25h-2Zm7-15.5A1.75 1.75 0 0 0 16.25 4v2c0 .966.784 1.75 1.75 1.75h2A1.75 1.75 0 0 0 21.75 6V4A1.75 1.75 0 0 0 20 2.25h-2ZM17.75 4a.25.25 0 0 1 .25-.25h2a.25.25 0 0 1 .25.25v2a.25.25 0 0 1-.25.25h-2a.25.25 0 0 1-.25-.25V4Zm-1.5 7c0-.966.784-1.75 1.75-1.75h2c.966 0 1.75.784 1.75 1.75v2A1.75 1.75 0 0 1 20 14.75h-2A1.75 1.75 0 0 1 16.25 13v-2Zm1.75-.25a.25.25 0 0 0-.25.25v2c0 .138.112.25.25.25h2a.25.25 0 0 0 .25-.25v-2a.25.25 0 0 0-.25-.25h-2Zm0 5.5A1.75 1.75 0 0 0 16.25 18v2c0 .966.784 1.75 1.75 1.75h2A1.75 1.75 0 0 0 21.75 20v-2A1.75 1.75 0 0 0 20 16.25h-2ZM17.75 18a.25.25 0 0 1 .25-.25h2a.25.25 0 0 1 .25.25v2a.25.25 0 0 1-.25.25h-2a.25.25 0 0 1-.25-.25v-2Z" fill="#151E28"/></svg>