<svg viewBox="0 0 24 24" fill="none" xmlns="http://www.w3.org/2000/svg"><path fill-rule="evenodd" clip-rule="evenodd" d="M3 1.25a.75.75 0 0 0 0 1.5h18a.75.75 0 0 0 0-1.5H3Zm1 4A1.75 1.75 0 0 0 2.25 7v2c0 .966.784 1.75 1.75 1.75h2A1.75 1.75 0 0 0 7.75 9V7A1.75 1.75 0 0 0 6 5.25H4ZM3.75 7A.25.25 0 0 1 4 6.75h2a.25.25 0 0 1 .25.25v2a.25.25 0 0 1-.25.25H4A.25.25 0 0 1 3.75 9V7ZM4 17.25A1.75 1.75 0 0 0 2.25 19v2c0 .966.784 1.75 1.75 1.75h2A1.75 1.75 0 0 0 7.75 21v-2A1.75 1.75 0 0 0 6 17.25H4ZM3.75 19a.25.25 0 0 1 .25-.25h2a.25.25 0 0 1 .25.25v2a.25.25 0 0 1-.25.25H4a.25.25 0 0 1-.25-.25v-2Zm5.5-12c0-.966.784-1.75 1.75-1.75h2c.966 0 1.75.784 1.75 1.75v2A1.75 1.75 0 0 1 13 10.75h-2A1.75 1.75 0 0 1 9.25 9V7ZM11 6.75a.25.25 0 0 0-.25.25v2c0 .138.112.25.25.25h2a.25.25 0 0 0 .25-.25V7a.25.25 0 0 0-.25-.25h-2Zm0 10.5A1.75 1.75 0 0 0 9.25 19v2c0 .966.784 1.75 1.75 1.75h2A1.75 1.75 0 0 0 14.75 21v-2A1.75 1.75 0 0 0 13 17.25h-2ZM10.75 19a.25.25 0 0 1 .25-.25h2a.25.25 0 0 1 .25.25v2a.25.25 0 0 1-.25.25h-2a.25.25 0 0 1-.25-.25v-2Zm5.5-12c0-.966.784-1.75 1.75-1.75h2c.966 0 1.75.784 1.75 1.75v2A1.75 1.75 0 0 1 20 10.75h-2A1.75 1.75 0 0 1 16.25 9V7ZM18 6.75a.25.25 0 0 0-.25.25v2c0 .138.112.25.25.25h2a.25.25 0 0 0 .25-.25V7a.25.25 0 0 0-.25-.25h-2Zm0 10.5A1.75 1.75 0 0 0 16.25 19v2c0 .966.784 1.75 1.75 1.75h2A1.75 1.75 0 0 0 21.75 21v-2A1.75 1.75 0 0 0 20 17.25h-2ZM17.75 19a.25.25 0 0 1 .25-.25h2a.25.25 0 0 1 .25.25v2a.25.25 0 0 1-.25.25h-2a.25.25 0 0 1-.25-.25v-2Zm-15.5-5a.75.75 0 0 1 .75-.75h18a.75.75 0 0 1 0 1.5H3a.75.75 0 0 1-.75-.75Z" fill="#151E28"/></svg>