<svg viewBox="0 0 24 24" fill="none" xmlns="http://www.w3.org/2000/svg"><path fill-rule="evenodd" clip-rule="evenodd" d="M4 5.25A1.75 1.75 0 0 0 2.25 7v2c0 .966.784 1.75 1.75 1.75h2A1.75 1.75 0 0 0 7.75 9V7A1.75 1.75 0 0 0 6 5.25H4ZM3.75 7A.25.25 0 0 1 4 6.75h2a.25.25 0 0 1 .25.25v2a.25.25 0 0 1-.25.25H4A.25.25 0 0 1 3.75 9V7ZM4 13.25A1.75 1.75 0 0 0 2.25 15v2c0 .966.784 1.75 1.75 1.75h2A1.75 1.75 0 0 0 7.75 17v-2A1.75 1.75 0 0 0 6 13.25H4ZM3.75 15a.25.25 0 0 1 .25-.25h2a.25.25 0 0 1 .25.25v2a.25.25 0 0 1-.25.25H4a.25.25 0 0 1-.25-.25v-2Zm5.5-8c0-.966.784-1.75 1.75-1.75h2c.966 0 1.75.784 1.75 1.75v2A1.75 1.75 0 0 1 13 10.75h-2A1.75 1.75 0 0 1 9.25 9V7ZM11 6.75a.25.25 0 0 0-.25.25v2c0 .138.112.25.25.25h2a.25.25 0 0 0 .25-.25V7a.25.25 0 0 0-.25-.25h-2Zm0 6.5A1.75 1.75 0 0 0 9.25 15v2c0 .966.784 1.75 1.75 1.75h2A1.75 1.75 0 0 0 14.75 17v-2A1.75 1.75 0 0 0 13 13.25h-2ZM10.75 15a.25.25 0 0 1 .25-.25h2a.25.25 0 0 1 .25.25v2a.25.25 0 0 1-.25.25h-2a.25.25 0 0 1-.25-.25v-2Zm5.5-8c0-.966.784-1.75 1.75-1.75h2c.966 0 1.75.784 1.75 1.75v2A1.75 1.75 0 0 1 20 10.75h-2A1.75 1.75 0 0 1 16.25 9V7ZM18 6.75a.25.25 0 0 0-.25.25v2c0 .138.112.25.25.25h2a.25.25 0 0 0 .25-.25V7a.25.25 0 0 0-.25-.25h-2Zm0 6.5A1.75 1.75 0 0 0 16.25 15v2c0 .966.784 1.75 1.75 1.75h2A1.75 1.75 0 0 0 21.75 17v-2A1.75 1.75 0 0 0 20 13.25h-2ZM17.75 15a.25.25 0 0 1 .25-.25h2a.25.25 0 0 1 .25.25v2a.25.25 0 0 1-.25.25h-2a.25.25 0 0 1-.25-.25v-2Z" fill="#151E28"/></svg>