<svg viewBox="0 0 24 24" fill="none" xmlns="http://www.w3.org/2000/svg"><path fill-rule="evenodd" clip-rule="evenodd" d="M12 2.25a2.75 2.75 0 0 0-2.442 1.484A2.75 2.75 0 0 0 5.25 6v2.325a3.75 3.75 0 0 0-3 3.675v1.667A7.42 7.42 0 0 0 5.217 19.6a2.583 2.583 0 0 1 1.033 2.067V22a.75.75 0 0 0 1.5 0v-.333A4.083 4.083 0 0 0 6.117 18.4a5.917 5.917 0 0 1-2.367-4.733V12c0-.98.626-1.813 1.5-2.122V12a.75.75 0 0 0 1.5 0V6a1.25 1.25 0 1 1 2.5 0 .75.75 0 0 0 1.5 0V5a1.25 1.25 0 1 1 2.5 0v1a.75.75 0 0 0 1.5 0 1.25 1.25 0 1 1 2.5 0v2.5a.75.75 0 0 0 1.5 0 .75.75 0 0 1 1.5 0v3.694a7.25 7.25 0 0 1-1.589 4.529l-1.37 1.713a4.75 4.75 0 0 0-1.041 2.967V22a.75.75 0 0 0 1.5 0v-.597c0-.738.251-1.454.712-2.03l1.37-1.713a8.75 8.75 0 0 0 1.918-5.466V8.5a2.25 2.25 0 0 0-3-2.122V6a2.75 2.75 0 0 0-4.308-2.266A2.75 2.75 0 0 0 12 2.25Z" fill="#151E28"/></svg>