<svg viewBox="0 0 24 24" fill="none" xmlns="http://www.w3.org/2000/svg"><path fill-rule="evenodd" clip-rule="evenodd" d="M10.74 6.123a.75.75 0 1 0-1.48-.246L8.865 8.25H7a.75.75 0 0 0 0 1.5h1.615l-.75 4.5H6a.75.75 0 0 0 0 1.5h1.615l-.355 2.127a.75.75 0 1 0 1.48.246l.395-2.373h4.48l-.355 2.127a.75.75 0 1 0 1.48.246l.395-2.373H17a.75.75 0 0 0 0-1.5h-1.615l.75-4.5H18a.75.75 0 0 0 0-1.5h-1.615l.355-2.127a.75.75 0 1 0-1.48-.246l-.395 2.373h-4.48l.355-2.127Zm3.875 3.627h-4.48l-.75 4.5h4.48l.75-4.5Z" fill="#151E28"/></svg>