<svg viewBox="0 0 24 24" fill="none" xmlns="http://www.w3.org/2000/svg"><path fill-rule="evenodd" clip-rule="evenodd" d="M3.75 12a8.25 8.25 0 1 1 16.5 0 8.25 8.25 0 0 1-16.5 0ZM12 2.25c-5.385 0-9.75 4.365-9.75 9.75s4.365 9.75 9.75 9.75 9.75-4.365 9.75-9.75S17.385 2.25 12 2.25Zm-2 5a.75.75 0 0 1 .75.75v1.25h2.5V8a.75.75 0 0 1 1.5 0v1.25H16a.75.75 0 0 1 0 1.5h-1.25v2.5H16a.75.75 0 0 1 0 1.5h-1.25V16a.75.75 0 0 1-1.5 0v-1.25h-2.5V16a.75.75 0 0 1-1.5 0v-1.25H8a.75.75 0 0 1 0-1.5h1.25v-2.5H8a.75.75 0 0 1 0-1.5h1.25V8a.75.75 0 0 1 .75-.75Zm.75 3.5h2.5v2.5h-2.5v-2.5Z" fill="#151E28"/></svg>