<svg viewBox="0 0 24 24" fill="none" xmlns="http://www.w3.org/2000/svg"><path fill-rule="evenodd" clip-rule="evenodd" d="M10.619 4.025a2.25 2.25 0 0 1 2.762 0l6 4.666a2.25 2.25 0 0 1 .869 1.776V18A2.25 2.25 0 0 1 18 20.25H6A2.25 2.25 0 0 1 3.75 18v-7.533c0-.694.32-1.35.869-1.776l6-4.666Zm3.683-1.184a3.75 3.75 0 0 0-4.604 0l-6 4.666a3.75 3.75 0 0 0-1.448 2.96V18A3.75 3.75 0 0 0 6 21.75h12A3.75 3.75 0 0 0 21.75 18v-7.533a3.75 3.75 0 0 0-1.448-2.96l-6-4.666ZM9 16.25a.75.75 0 0 0 0 1.5h6a.75.75 0 0 0 0-1.5H9Z" fill="#151E28"/></svg>