<svg viewBox="0 0 24 24" fill="none" xmlns="http://www.w3.org/2000/svg"><path fill-rule="evenodd" clip-rule="evenodd" d="M10.686 2.25h2.628c1.178 0 2.114 0 2.823.063.692.061 1.347.192 1.82.596a2.75 2.75 0 0 1 .956 2.307c-.049.62-.42 1.176-.866 1.709-.457.545-1.118 1.207-1.951 2.04l-.028.028-7.075 7.075c-.867.867-1.481 1.482-1.89 1.97-.425.508-.512.749-.52.864-.032.399.13.789.434 1.049.087.075.319.184.978.242.635.056 1.504.057 2.73.057h2.55c1.226 0 2.095 0 2.73-.057.66-.058.89-.167.978-.242.305-.26.466-.65.435-1.049-.01-.115-.096-.356-.52-.864-.41-.488-1.024-1.103-1.891-1.97L13.47 14.53a.75.75 0 1 1 1.06-1.06l1.538 1.537.027.028c.834.833 1.495 1.495 1.952 2.04.446.533.817 1.089.866 1.71a2.75 2.75 0 0 1-.956 2.306c-.473.404-1.128.535-1.82.596-.71.063-1.645.063-2.823.063h-2.629c-1.177 0-2.113 0-2.822-.063-.692-.061-1.347-.192-1.82-.596a2.75 2.75 0 0 1-.956-2.307c.049-.62.42-1.176.866-1.708.457-.546 1.118-1.208 1.951-2.041l.028-.028 7.075-7.075c.867-.867 1.481-1.482 1.89-1.97.425-.508.512-.749.52-.864a1.25 1.25 0 0 0-.434-1.049c-.088-.075-.319-.184-.978-.242-.635-.056-1.504-.057-2.73-.057h-2.55c-1.226 0-2.095 0-2.73.057-.66.058-.89.167-.978.242a1.25 1.25 0 0 0-.435 1.05c.01.114.096.355.52.863.41.488 1.024 1.103 1.891 1.97L10.53 9.47a.75.75 0 1 1-1.06 1.06L7.932 8.993l-.028-.028c-.833-.833-1.494-1.495-1.951-2.04-.447-.533-.817-1.089-.866-1.71a2.75 2.75 0 0 1 .955-2.306c.474-.404 1.129-.535 1.82-.596.71-.063 1.646-.063 2.824-.063Z" fill="#151E28"/></svg>