<svg viewBox="0 0 24 24" fill="none" xmlns="http://www.w3.org/2000/svg"><path fill-rule="evenodd" clip-rule="evenodd" d="M3.75 12a8.25 8.25 0 1 1 16.5 0 8.25 8.25 0 0 1-16.5 0ZM12 2.25c-5.385 0-9.75 4.365-9.75 9.75s4.365 9.75 9.75 9.75 9.75-4.365 9.75-9.75S17.385 2.25 12 2.25ZM7.25 9.3A2.05 2.05 0 0 1 9.3 7.25h.4a2.05 2.05 0 0 1 2.05 2.05v.4a2.05 2.05 0 0 1-2.05 2.05h-.4A2.05 2.05 0 0 1 7.25 9.7v-.4Zm2.05-.55a.55.55 0 0 0-.55.55v.4c0 .304.246.55.55.55h.4a.55.55 0 0 0 .55-.55v-.4a.55.55 0 0 0-.55-.55h-.4Zm8.35 3.553a2.75 2.75 0 0 0-3.406-.148c-.306.221-.588.574-.959 1.038l-.072.09-.4.5-.004.005a1.25 1.25 0 0 1-1.857.103l-.005-.004-.005-.006a2.75 2.75 0 0 0-3.884 0l-.005.006-.583.583a.75.75 0 1 0 1.06 1.06l.583-.583.004-.004a1.25 1.25 0 0 1 1.766 0l.004.004.006.006a2.75 2.75 0 0 0 4.086-.226l.005-.007.4-.5c.477-.596.621-.764.738-.848a1.25 1.25 0 0 1 1.548.067c.108.093.237.274.66.91l.046.067a.75.75 0 1 0 1.248-.832l-.045-.068-.064-.096c-.33-.495-.58-.87-.866-1.117Z" fill="#151E28"/></svg>