<svg viewBox="0 0 24 24" fill="none" xmlns="http://www.w3.org/2000/svg"><path fill-rule="evenodd" clip-rule="evenodd" d="M14.633 2.25H9.367c-1.092 0-1.958 0-2.655.057-.714.058-1.317.18-1.868.46a4.75 4.75 0 0 0-2.076 2.077c-.281.55-.403 1.154-.461 1.868-.057.697-.057 1.563-.057 2.655v5.266c0 1.092 0 1.958.057 2.655.058.714.18 1.317.46 1.869a4.75 4.75 0 0 0 2.077 2.075c.55.281 1.154.403 1.868.461.697.057 1.563.057 2.655.057h5.266c1.092 0 1.958 0 2.655-.057.714-.058 1.317-.18 1.869-.46a4.75 4.75 0 0 0 2.075-2.076c.281-.552.403-1.155.461-1.869.057-.697.057-1.563.057-2.655V9.367c0-1.092 0-1.958-.057-2.655-.058-.714-.18-1.317-.46-1.868a4.75 4.75 0 0 0-2.076-2.076c-.552-.281-1.155-.403-1.869-.461-.697-.057-1.563-.057-2.655-.057Zm2.533 1.552c.62.05 1.005.147 1.31.302a3.25 3.25 0 0 1 1.42 1.42c.155.305.251.69.302 1.31.051.63.052 1.434.052 2.566v5.2c0 1.133 0 1.937-.052 2.566-.05.62-.147 1.005-.302 1.31a3.25 3.25 0 0 1-1.42 1.42c-.305.155-.69.251-1.31.302-.63.051-1.434.052-2.566.052H9.4c-1.132 0-1.937 0-2.566-.052-.62-.05-1.005-.147-1.31-.302a3.25 3.25 0 0 1-1.42-1.42c-.155-.305-.251-.69-.302-1.31-.051-.63-.052-1.434-.052-2.566V9.4c0-1.132 0-1.937.052-2.566.05-.62.147-1.005.302-1.31a3.25 3.25 0 0 1 1.42-1.42c.305-.155.69-.251 1.31-.302.63-.051 1.434-.052 2.566-.052h5.2c1.133 0 1.937 0 2.566.052Zm.483 9.501a2.75 2.75 0 0 0-3.405-.148c-.306.221-.588.574-.959 1.038l-.072.09-.4.5-.004.005a1.25 1.25 0 0 1-1.857.103l-.005-.004-.005-.006a2.75 2.75 0 0 0-3.884 0l-.005.006L5.47 16.47a.75.75 0 1 0 1.06 1.06l1.583-1.583.004-.004a1.25 1.25 0 0 1 1.766 0l.004.004.006.006a2.75 2.75 0 0 0 4.086-.226l.005-.007.4-.5c.477-.596.621-.764.738-.848a1.25 1.25 0 0 1 1.548.067c.108.093.237.274.66.91l.046.067a.75.75 0 1 0 1.248-.832l-.045-.068-.064-.096c-.33-.495-.58-.87-.866-1.117ZM8.7 6.25A2.45 2.45 0 0 0 6.25 8.7v.6a2.45 2.45 0 0 0 2.45 2.45h.6a2.45 2.45 0 0 0 2.45-2.45v-.6A2.45 2.45 0 0 0 9.3 6.25h-.6ZM7.75 8.7a.95.95 0 0 1 .95-.95h.6a.95.95 0 0 1 .95.95v.6a.95.95 0 0 1-.95.95h-.6a.95.95 0 0 1-.95-.95v-.6Z" fill="#151E28"/></svg>