<svg viewBox="0 0 24 24" fill="none" xmlns="http://www.w3.org/2000/svg"><path fill-rule="evenodd" clip-rule="evenodd" d="M9.4 3.75c-1.132 0-1.937 0-2.566.052-.62.05-1.005.147-1.31.302a3.25 3.25 0 0 0-1.42 1.42c-.155.305-.251.69-.302 1.31-.051.63-.052 1.434-.052 2.566v5.2c0 1.133 0 1.937.052 2.566.05.62.147 1.005.302 1.31a3.25 3.25 0 0 0 1.42 1.42c.305.155.69.251 1.31.302.63.051 1.434.052 2.566.052h5.2c1.133 0 1.937 0 2.566-.052.62-.05 1.005-.147 1.31-.302a3.25 3.25 0 0 0 1.42-1.42c.155-.305.251-.69.302-1.31.051-.63.052-1.434.052-2.566V12a.75.75 0 0 1 1.5 0v2.633c0 1.092 0 1.958-.057 2.655-.058.714-.18 1.317-.46 1.869a4.75 4.75 0 0 1-2.076 2.075c-.552.281-1.155.403-1.869.461-.697.057-1.563.057-2.655.057H9.367c-1.092 0-1.958 0-2.655-.057-.714-.058-1.317-.18-1.868-.46a4.75 4.75 0 0 1-2.076-2.076c-.281-.552-.403-1.155-.461-1.869-.057-.697-.057-1.563-.057-2.655V9.367c0-1.092 0-1.958.057-2.655.058-.714.18-1.317.46-1.868a4.75 4.75 0 0 1 2.077-2.076c.55-.281 1.154-.403 1.868-.461.697-.057 1.563-.057 2.655-.057H12a.75.75 0 0 1 0 1.5H9.4Zm4.844 9.405a2.75 2.75 0 0 1 3.405.148c.286.247.537.622.866 1.117l.064.096.045.068a.75.75 0 1 1-1.248.832l-.045-.068c-.424-.635-.553-.816-.661-.91a1.25 1.25 0 0 0-1.548-.066c-.117.084-.26.252-.738.848l-.4.5-.005.007a2.75 2.75 0 0 1-4.086.226l-.006-.006-.004-.004a1.25 1.25 0 0 0-1.766 0l-.004.004L6.53 17.53a.75.75 0 0 1-1.06-1.06l1.583-1.583.005-.006a2.75 2.75 0 0 1 3.884 0l.005.006.005.004a1.25 1.25 0 0 0 1.857-.103l.004-.005.4-.5.072-.09c.37-.464.653-.817.959-1.038ZM6.25 8.7A2.45 2.45 0 0 1 8.7 6.25h.6a2.45 2.45 0 0 1 2.45 2.45v.6a2.45 2.45 0 0 1-2.45 2.45h-.6A2.45 2.45 0 0 1 6.25 9.3v-.6Zm2.45-.95a.95.95 0 0 0-.95.95v.6c0 .525.425.95.95.95h.6a.95.95 0 0 0 .95-.95v-.6a.95.95 0 0 0-.95-.95h-.6Zm9.83-5.28a.75.75 0 0 0-1.06 0l-2.5 2.5a.75.75 0 0 0 1.06 1.06l1.22-1.22V10a.75.75 0 0 0 1.5 0V4.81l1.22 1.22a.75.75 0 1 0 1.06-1.06l-2.5-2.5Z" fill="#151E28"/></svg>