<svg viewBox="0 0 24 24" fill="none" xmlns="http://www.w3.org/2000/svg"><path fill-rule="evenodd" clip-rule="evenodd" d="M6.419 2.378a.75.75 0 0 0-.838 1.244l.002.002.011.007a6.882 6.882 0 0 1 .236.168c.162.118.392.291.658.507.535.436 1.198 1.03 1.749 1.69.564.676.943 1.34 1.03 1.914.04.273.014.517-.082.743-.096.228-.283.483-.635.747-.702.527-1.361.621-1.978.502-.65-.125-1.302-.5-1.909-.997-.6-.493-1.11-1.07-1.472-1.531a11.214 11.214 0 0 1-.548-.761l-.006-.009a.75.75 0 0 0-1.274.792L2 7l-.637.397.002.002.003.005.01.015a5.763 5.763 0 0 0 .162.243c.11.16.27.382.472.64a11.59 11.59 0 0 0 1.7 1.762c.706.58 1.585 1.12 2.576 1.311a3.8 3.8 0 0 0 2.61-.417l9.572 9.572a.75.75 0 0 0 1.06-1.06l-9.452-9.452a2.84 2.84 0 0 0 .671-2.33c-.148-.984-.738-1.907-1.36-2.653-.637-.762-1.38-1.425-1.955-1.892a17.563 17.563 0 0 0-.991-.749l-.017-.011-.005-.004H6.42v-.001L6 3l.419-.622ZM4.53 4.47a.75.75 0 0 0-1.06 1.06l3 3a.75.75 0 0 0 1.06-1.06l-3-3ZM20.75 3a.75.75 0 0 0-1.28-.53l-3.876 3.875-2.171 2.172-.694.693-.192.192-.05.05-.013.013-.004.004L13 10l-.53-.53a.75.75 0 1 0 1.06 1.06L13 10l.53.53h.001l.003-.004.013-.013.05-.05.193-.192.693-.694 2.172-2.172 2.485-2.484c-.277 2.354-1.035 4.102-1.779 5.31a9.941 9.941 0 0 1-1.277 1.671 6.576 6.576 0 0 1-.51.48l-.019.014-.004.003-.002.002h-.001a.75.75 0 0 0 .902 1.199L16 13l.45.6.001-.001.002-.002.005-.003.014-.01a3.54 3.54 0 0 0 .194-.162c.124-.11.296-.269.5-.48.407-.425.941-1.06 1.473-1.924 1.065-1.732 2.11-4.367 2.11-8.018ZM9.53 14.53a.75.75 0 1 0-1.06-1.06l-6 6a.75.75 0 1 0 1.06 1.06l6-6Z" fill="#151E28"/></svg>