<svg viewBox="0 0 24 24" fill="none" xmlns="http://www.w3.org/2000/svg"><path fill-rule="evenodd" clip-rule="evenodd" d="m19.51 3.04.74-.124a.75.75 0 0 0-1.271-.407L6.959 14.53a.418.418 0 0 0-.009.008L3.07 18.42a2.25 2.25 0 0 0 3.182 3.182l3.359-3.359.003.004.013.013.013.012.013.013.013.013.013.013.012.013.013.013.013.013.013.013.013.013.013.013.013.013.013.012.013.014.013.012.013.014.013.012.013.014.013.012.013.014.013.013.013.013.013.013.013.013.013.013.013.013.013.013.014.013.013.013.013.013.013.013.013.014.013.013.013.013.013.013.014.013.013.013.013.013.013.014.013.013.013.013.013.013.014.013.013.013.013.014.013.013.013.013.014.013.013.013.013.014.013.013.014.013.013.013.013.013.013.014.013.013.014.013.013.013.013.014.013.013.014.013.013.013.013.014.013.013.014.013.013.013.013.014.013.013.014.013.013.013.013.014.013.013.014.013.013.013.013.014.013.013.014.013.013.013.013.014.013.013.014.013.013.014.013.013.013.013.014.013.013.014.013.013.013.013.014.013.013.013.013.014.013.013.014.013.013.013.013.014.013.013.014.013.013.013.013.013.013.014.013.013.013.013.014.013.013.013.013.014.013.013.013.013.014.013.013.013.013.013.013.014.013.013.013.013.014.013.013.013.013.013.013.013.013.014.013.013.013.013.013.013.013.013.013.013.013.013.014.013.013.013.013.013.013.013.013.013.013.013.013.013.013.013.013.013.013.013.012.013.014.013.012.013.013.013.013.013.013.013.013.013.013.012.013.013.013.013.013.013.012.013.013.013.013.013.013.012.013.013.013.013.012.013.013.013.013.012.013.013.012.013.013.013.013.012.012.013.013.013.013.012.012.013.013.013.013.012.012.013.013.012.012.013.013.012.012.013.013.013.013.012.012.013.013.012.012.013.013.012.012.013a.75.75 0 0 0 1.06 0c4.353-4.353 6.185-8.727 6.92-12.035.367-1.652.46-3.033.46-4.008 0-.488-.023-.875-.047-1.144a8.1 8.1 0 0 0-.046-.4l-.004-.025-.001-.008v-.003c0-.001 0-.002-.74.122ZM8.55 15.063l-.002-.003L18.845 4.764a17.316 17.316 0 0 1-.421 3.416c-.65 2.923-2.237 6.813-5.992 10.763l-.01-.01-.014-.014-.013-.012-.013-.014-.013-.012-.013-.014-.013-.013-.013-.013-.013-.013-.013-.013-.013-.013-.013-.013-.013-.013-.013-.013-.013-.013-.013-.013-.014-.013-.013-.013-.013-.013-.013-.014-.013-.013-.013-.013-.013-.013-.013-.013-.014-.013-.013-.014-.013-.013-.013-.013-.013-.013-.014-.013-.013-.013-.013-.014-.013-.013-.013-.013-.013-.013-.014-.013-.013-.014-.013-.013-.013-.013-.014-.013-.013-.014-.013-.013-.013-.013-.013-.013-.014-.013-.013-.014-.013-.013-.013-.013-.014-.014-.013-.013-.013-.013-.013-.013-.014-.014-.013-.013-.013-.013-.013-.013-.014-.014-.013-.013-.013-.013-.013-.013-.014-.014-.013-.013-.013-.013-.014-.013-.013-.014-.013-.013-.013-.013-.013-.013-.014-.014-.013-.013-.013-.013-.014-.013-.013-.014-.013-.013-.013-.013-.014-.013-.013-.014-.013-.013-.013-.013-.013-.013-.014-.013-.013-.014-.013-.013-.013-.013-.014-.013-.013-.014-.013-.013-.013-.013-.013-.013-.013-.013-.014-.014-.013-.013-.013-.013-.013-.013-.013-.013-.014-.013-.013-.014-.013-.013-.013-.013-.013-.013-.013-.013-.013-.013-.014-.013-.013-.013-.013-.014-.013-.013-.013-.013-.013-.013-.013-.013-.013-.013-.013-.013-.013-.013-.013-.013-.013-.013-.013-.013-.013-.013-.013-.013-.013-.013-.013-.013-.013-.013-.013-.013-.013-.013-.013-.013-.013-.013-.013-.013-.013-.013-.013-.013-.013-.013-.013-.013-.013-.012-.012-.013-.013-.013-.013-.013-.013-.013-.013-.013-.013-.012-.012-.013-.013-.013-.013-.013-.013-.013-.013-.012-.012-.013-.013-.013-.013-.013-.012-.012-.013-.013-.013-.013-.012-.012-.013-.013-.013-.012-.012-.013-.013-.013-.013-.012-.012-.013-.013-.012-.012-.013-.013-.013-.012-.012-.013-.013-.012-.012-.013-.013-.012-.012-.013-.012-.012-.013-.012-.012-.013-.013-.012-.012-.012-.012-.013-.013-.012-.012-.012-.012-.013-.013-.012-.012-.012-.012-.013-.012-.012-.012-.012-.013-.012-.012-.012-.012-.012-.012-.013-.012-.012-.012-.012-.012-.012-.013-.012-.012-.012-.012-.012-.012-.012-.012-.012-.012-.012-.012-.012-.011-.012-.012-.011-.012-.012-.012-.012-.012-.012-.012-.012-.011-.011-.012-.012-.012-.012-.012-.012-.011-.011-.012-.012-.012-.012-.011-.011-.012-.012-.012-.011-.011-.012-.012-.011-.011-.012-.012-.011-.011-.012-.012-.011-.011-.012-.012-.011-.01-.012-.012-.01-.012-.012-.01-.011-.012-.012-.011-.01-.012-.012-.01-.011-.012-.011-.011-.012-.011-.01-.011-.012-.012-.01-.01-.012-.012-.01-.01-.012-.012-.01-.01-.012-.011-.01-.011-.011-.011-.011-.011-.011-.01-.01-.012-.012-.01-.01-.011-.011-.01-.01-.012-.011-.01-.01-.01-.012-.011-.01-.01-.01-.011-.011-.01-.01-.011-.011-.01-.01-.011-.01-.01-.011-.01-.01-.011-.01-.01-.01-.01-.011-.011-.01-.01-.01-.01-.01-.01-.01-.01-.01-.01-.01-.01-.01-.01-.01-.01-.01-.01-.01-.01-.01-.01-.01-.01-.01-.01-.01-.01-.01-.01-.01-.01-.009-.009-.01-.01-.01-.009-.009-.01-.01-.01-.009-.009-.01-.01-.009-.008-.01-.01-.008-.01-.01-.009-.01-.009-.008-.01-.01-.008-.009-.01-.009-.009-.009-.009-.01-.009-.008-.009-.01-.009-.008-.009-.009-.009-.009-.009-.009-.009-.009-.008-.008-.01-.01-.008-.008-.009-.008-.008-.01-.009-.008-.008-.008-.009-.009-.008-.008-.009-.009-.008-.008-.009-.008-.008-.009-.008-.008-.009-.008-.008-.008-.008-.009-.008-.008-.009-.008-.008-.008-.008-.008-.008-.008-.008-.008-.008-.008-.007-.007-.008-.008-.008-.008-.008-.008-.007-.007-.008-.008-.008-.007-.007-.008-.008-.008-.007-.007-.008-.007-.007-.008-.008ZM4.13 19.48l3.358-3.359 1.061 1.06-3.359 3.36a.75.75 0 0 1-1.06-1.061Z" fill="#151E28"/></svg>