<svg viewBox="0 0 24 24" fill="none" xmlns="http://www.w3.org/2000/svg"><path fill-rule="evenodd" clip-rule="evenodd" d="M9.367 2.25h5.266c1.092 0 1.958 0 2.655.057.714.058 1.317.18 1.869.46a4.75 4.75 0 0 1 2.075 2.076c.281.551.403 1.155.461 1.868.05.615.056 1.36.057 2.277v5.645c0 1.092 0 1.957-.057 2.655-.058.713-.18 1.317-.46 1.868a4.75 4.75 0 0 1-2.076 2.076c-.552.28-1.155.402-1.869.46-.697.058-1.563.058-2.655.058H9.029a.701.701 0 0 1-.06 0c-.907-.001-1.646-.008-2.257-.058-.714-.058-1.317-.18-1.868-.46a4.75 4.75 0 0 1-2.076-2.076c-.281-.551-.403-1.155-.461-1.868-.057-.698-.057-1.563-.057-2.655V9.01a.78.78 0 0 1 0-.023c0-.916.007-1.662.057-2.277.058-.713.18-1.317.46-1.868a4.75 4.75 0 0 1 2.077-2.076c.55-.28 1.154-.402 1.868-.46.697-.058 1.563-.057 2.655-.057ZM3.75 9.75v4.85c0 1.132 0 1.936.052 2.566.05.62.147 1.005.302 1.309a3.25 3.25 0 0 0 1.42 1.42c.305.155.69.252 1.31.303.392.032.851.044 1.416.049V9.75h-4.5Zm6 0v10.5h4.85c1.133 0 1.937-.001 2.566-.052.62-.051 1.005-.148 1.31-.303a3.25 3.25 0 0 0 1.42-1.42c.155-.305.251-.689.302-1.31.051-.629.052-1.433.052-2.565V9.75H9.75Zm10.497-1.5H3.753a19.97 19.97 0 0 1 .049-1.417c.05-.62.147-1.004.302-1.309a3.25 3.25 0 0 1 1.42-1.42c.305-.155.69-.252 1.31-.302.63-.052 1.434-.052 2.566-.052h5.2c1.133 0 1.937 0 2.566.052.62.05 1.005.147 1.31.302a3.25 3.25 0 0 1 1.42 1.42c.155.305.251.689.302 1.31.032.391.044.851.05 1.416Z" fill="#151E28"/></svg>