<svg viewBox="0 0 24 24" fill="none" xmlns="http://www.w3.org/2000/svg"><path fill-rule="evenodd" clip-rule="evenodd" d="M14.633 2.25H9.367c-1.092 0-1.958 0-2.655.057-.714.058-1.317.18-1.868.46a4.75 4.75 0 0 0-2.076 2.076c-.281.551-.403 1.155-.461 1.868-.057.698-.057 1.563-.057 2.655v5.267c0 1.092 0 1.957.057 2.655.058.713.18 1.317.46 1.868a4.75 4.75 0 0 0 2.077 2.076c.55.28 1.154.402 1.868.46.697.058 1.563.058 2.655.058h2.606a.824.824 0 0 0 .054 0h2.606c1.092 0 1.958 0 2.655-.058.714-.058 1.317-.18 1.869-.46a4.75 4.75 0 0 0 2.075-2.076c.281-.551.403-1.155.461-1.868.057-.698.057-1.563.057-2.655V9.366c0-1.093 0-1.958-.057-2.656-.058-.713-.18-1.317-.46-1.868a4.75 4.75 0 0 0-2.076-2.076c-.552-.28-1.155-.402-1.869-.46-.697-.058-1.563-.057-2.655-.057Zm5.617 9V9.4c0-1.133 0-1.937-.052-2.567-.05-.62-.147-1.004-.302-1.309a3.25 3.25 0 0 0-1.42-1.42c-.305-.155-.69-.252-1.31-.302-.63-.052-1.434-.052-2.566-.052h-1.85v7.5h7.5Zm-7.5 1.5h7.5v1.85c0 1.132 0 1.936-.052 2.566-.05.62-.147 1.005-.302 1.309a3.25 3.25 0 0 1-1.42 1.42c-.305.155-.69.252-1.31.303-.63.05-1.434.052-2.566.052h-1.85v-7.5Zm-1.5-1.5v-7.5H9.4c-1.132 0-1.937 0-2.566.052-.62.05-1.005.147-1.31.302a3.25 3.25 0 0 0-1.42 1.42c-.155.305-.251.689-.302 1.31-.051.629-.052 1.433-.052 2.566v1.85h7.5Zm-7.5 1.5h7.5v7.5H9.4c-1.132 0-1.937-.001-2.566-.052-.62-.051-1.005-.148-1.31-.303a3.25 3.25 0 0 1-1.42-1.42c-.155-.305-.251-.689-.302-1.31-.051-.629-.052-1.433-.052-2.565v-1.85Z" fill="#151E28"/></svg>