<svg viewBox="0 0 24 24" fill="none" xmlns="http://www.w3.org/2000/svg"><path fill-rule="evenodd" clip-rule="evenodd" d="M14.633 2.25H9.367c-1.092 0-1.958 0-2.655.057-.714.058-1.317.18-1.868.46a4.75 4.75 0 0 0-2.076 2.076c-.281.551-.403 1.155-.461 1.868-.057.698-.057 1.563-.057 2.655v5.267c0 1.092 0 1.957.057 2.655.058.713.18 1.317.46 1.868a4.75 4.75 0 0 0 2.077 2.076c.55.28 1.154.402 1.868.46.61.05 1.35.057 2.258.057a.756.756 0 0 0 .06 0h5.94a.706.706 0 0 0 .06 0c.907 0 1.646-.007 2.257-.056.714-.059 1.317-.18 1.869-.461a4.75 4.75 0 0 0 2.075-2.076c.281-.551.403-1.155.461-1.868.057-.698.057-1.563.057-2.655V9.366c0-1.093 0-1.958-.057-2.656-.058-.713-.18-1.317-.46-1.868a4.75 4.75 0 0 0-2.076-2.076c-.552-.28-1.155-.402-1.869-.46-.697-.058-1.563-.057-2.655-.057Zm1.117 17.997a20.02 20.02 0 0 0 1.416-.05c.62-.05 1.005-.147 1.31-.302a3.25 3.25 0 0 0 1.42-1.42c.155-.305.251-.689.302-1.31.051-.629.052-1.433.052-2.565V9.4c0-1.133 0-1.937-.052-2.567-.05-.62-.147-1.004-.302-1.309a3.25 3.25 0 0 0-1.42-1.42c-.305-.155-.69-.252-1.31-.302a19.968 19.968 0 0 0-1.416-.05v16.495ZM14.25 3.75h-4.5v16.5h4.5V3.75Zm-6 16.497V3.752c-.565.005-1.024.018-1.416.05-.62.05-1.005.147-1.31.302a3.25 3.25 0 0 0-1.42 1.42c-.155.305-.251.689-.302 1.31-.051.629-.052 1.433-.052 2.566v5.2c0 1.132 0 1.936.052 2.566.05.62.147 1.005.302 1.309a3.25 3.25 0 0 0 1.42 1.42c.305.155.69.252 1.31.303.392.032.851.044 1.416.049Z" fill="#151E28"/></svg>