<svg viewBox="0 0 24 24" fill="none" xmlns="http://www.w3.org/2000/svg"><path fill-rule="evenodd" clip-rule="evenodd" d="M6.72 5.66A8.217 8.217 0 0 1 12 3.75c2.008 0 3.849.717 5.28 1.91l-2.494 2.493A4.728 4.728 0 0 0 12 7.25a4.729 4.729 0 0 0-2.787.903L6.721 5.66Zm9.127 3.553A4.73 4.73 0 0 1 16.75 12a4.728 4.728 0 0 1-.903 2.787l2.493 2.492A8.217 8.217 0 0 0 20.25 12a8.217 8.217 0 0 0-1.91-5.28l-2.493 2.493ZM5.66 6.721A8.217 8.217 0 0 0 3.75 12c0 2.008.717 3.849 1.91 5.28l2.493-2.494A4.728 4.728 0 0 1 7.25 12a4.73 4.73 0 0 1 .903-2.787L5.66 6.721ZM12 20.25a8.217 8.217 0 0 1-5.28-1.91l2.493-2.493A4.729 4.729 0 0 0 12 16.75a4.728 4.728 0 0 0 2.787-.903l2.492 2.493A8.217 8.217 0 0 1 12 20.25Zm0-18c-5.385 0-9.75 4.365-9.75 9.75s4.365 9.75 9.75 9.75 9.75-4.365 9.75-9.75S17.385 2.25 12 2.25ZM8.75 12a3.25 3.25 0 1 1 6.5 0 3.25 3.25 0 0 1-6.5 0Z" fill="#151E28"/></svg>