<svg viewBox="0 0 24 24" fill="none" xmlns="http://www.w3.org/2000/svg"><path fill-rule="evenodd" clip-rule="evenodd" d="M12.884 4.399a4.75 4.75 0 0 1 6.717 6.717l-1.414 1.414a.75.75 0 1 1-1.06-1.06l1.414-1.415a3.25 3.25 0 1 0-4.597-4.596L12.53 6.873a.75.75 0 0 1-1.06-1.06l1.414-1.414Zm-6.01 7.07a.75.75 0 0 1 0 1.061l-1.415 1.415a3.25 3.25 0 0 0 4.596 4.596l1.415-1.415a.75.75 0 0 1 1.06 1.061l-1.414 1.414A4.75 4.75 0 1 1 4.4 12.884l1.414-1.414a.75.75 0 0 1 1.06 0ZM19.25 15a.75.75 0 0 1 .75-.75h2a.75.75 0 0 1 0 1.5h-2a.75.75 0 0 1-.75-.75ZM16 17.25a.75.75 0 0 1 .75.75v2a.75.75 0 0 1-1.5 0v-2a.75.75 0 0 1 .75-.75ZM5 9.75a.75.75 0 0 0 0-1.5H3a.75.75 0 0 0 0 1.5h2ZM8.25 6a.75.75 0 0 0 1.5 0V4a.75.75 0 0 0-1.5 0v2Z" fill="#151E28"/></svg>