<svg viewBox="0 0 24 24" fill="none" xmlns="http://www.w3.org/2000/svg"><path fill-rule="evenodd" clip-rule="evenodd" d="M5.46 18.54a4.25 4.25 0 0 1 0-6.01l1.414-1.414a.75.75 0 1 0-1.06-1.06L4.398 11.47a5.75 5.75 0 1 0 8.132 8.132l1.414-1.415a.75.75 0 0 0-1.06-1.06L11.47 18.54a4.25 4.25 0 0 1-6.01 0Zm4.596-12.727a.75.75 0 0 0 1.06 1.06l1.415-1.414a4.25 4.25 0 1 1 6.01 6.01l-1.414 1.415a.75.75 0 0 0 1.06 1.06l1.415-1.414A5.75 5.75 0 1 0 11.47 4.4l-1.414 1.414ZM8.47 14.47a.75.75 0 1 0 1.06 1.06l6-6a.75.75 0 0 0-1.06-1.06l-6 6Z" fill="#151E28"/></svg>