<svg viewBox="0 0 24 24" fill="none" xmlns="http://www.w3.org/2000/svg"><path fill-rule="evenodd" clip-rule="evenodd" d="M12 21.25A4.25 4.25 0 0 1 7.75 17v-1a.75.75 0 0 0-1.5 0v1a5.75 5.75 0 0 0 11.5 0v-1a.75.75 0 0 0-1.5 0v1A4.25 4.25 0 0 1 12 21.25ZM6.25 8a.75.75 0 1 0 1.5 0V7a4.25 4.25 0 1 1 8.5 0v1a.75.75 0 0 0 1.5 0V7a5.75 5.75 0 1 0-11.5 0v1Zm-3.78 7.47a.75.75 0 1 0 1.06 1.06l2-2a.75.75 0 1 0-1.06-1.06l-2 2Zm1.06-8a.75.75 0 0 0-1.06 1.06l2 2a.75.75 0 0 0 1.06-1.06l-2-2Zm16 6a.75.75 0 1 0-1.06 1.06l2 2a.75.75 0 0 0 1.06-1.06l-2-2Zm-1.06-4a.75.75 0 1 0 1.06 1.06l2-2a.75.75 0 1 0-1.06-1.06l-2 2Z" fill="#151E28"/></svg>