<svg viewBox="0 0 24 24" fill="none" xmlns="http://www.w3.org/2000/svg"><path fill-rule="evenodd" clip-rule="evenodd" d="M3 4.25a.75.75 0 0 0 0 1.5h16a.75.75 0 0 0 0-1.5H3Zm0 7a.75.75 0 0 0 0 1.5h9a.75.75 0 0 0 0-1.5H3Zm0 7a.75.75 0 0 0 0 1.5h4a.75.75 0 0 0 0-1.5H3Zm17.25-7.665c0-.903-.932-1.506-1.756-1.135l-1.744.785v2.73l2.766-1.245c.447-.2.734-.645.734-1.135Zm-2.371-2.503c1.816-.817 3.871.511 3.871 2.503 0 1.08-.634 2.06-1.618 2.503L16.75 14.61v4.393a2.75 2.75 0 1 1-1.5-2.453v-6.8a.75.75 0 0 1 .442-.684l2.187-.984ZM15.25 19a1.25 1.25 0 1 0-2.5 0 1.25 1.25 0 0 0 2.5 0Z" fill="#151E28"/></svg>