<svg viewBox="0 0 24 24" fill="none" xmlns="http://www.w3.org/2000/svg"><path fill-rule="evenodd" clip-rule="evenodd" d="M4.395 4.362a.75.75 0 0 0-.73-.033l-2 1a.75.75 0 0 0 .67 1.342l.915-.457V10a.75.75 0 0 0 1.5 0V5a.75.75 0 0 0-.355-.638ZM20 5.25a.75.75 0 1 1 0 1.5H8a.75.75 0 0 1 0-1.5h12Zm.75 6.75a.75.75 0 0 0-.75-.75H8a.75.75 0 0 0 0 1.5h12a.75.75 0 0 0 .75-.75Zm0 6a.75.75 0 0 0-.75-.75H8a.75.75 0 0 0 0 1.5h12a.75.75 0 0 0 .75-.75ZM3.5 13.25c.562 0 1.176.097 1.637.526.471.44.613 1.067.613 1.724 0 .297-.095.573-.2.797a4.15 4.15 0 0 1-.415.674c-.316.428-.723.862-1.11 1.241l-.04.038H5a.75.75 0 0 1 0 1.5H2a.75.75 0 0 1-.464-1.339h.001l.005-.005.023-.018a22.158 22.158 0 0 0 .418-.346c.273-.233.634-.552.993-.903.362-.354.705-.724.952-1.058.123-.167.21-.31.265-.425.047-.098.055-.148.057-.157v-.001.002c0-.479-.108-.6-.136-.627-.04-.037-.176-.123-.614-.123-.23 0-.426.112-.595.28a1.528 1.528 0 0 0-.23.3l-.007.011a.75.75 0 0 1-1.339-.676L2 15l-.67-.336v-.002l.002-.002.003-.007.01-.017a2.17 2.17 0 0 1 .125-.208 3.03 3.03 0 0 1 .375-.458c.332-.332.886-.72 1.655-.72Z" fill="#151E28"/></svg>