<svg viewBox="0 0 24 24" fill="none" xmlns="http://www.w3.org/2000/svg"><path fill-rule="evenodd" clip-rule="evenodd" d="M3.75 4A.25.25 0 0 1 4 3.75h2a.25.25 0 0 1 .25.25v2a.25.25 0 0 1-.25.25H4A.25.25 0 0 1 3.75 6V4ZM4 2.25A1.75 1.75 0 0 0 2.25 4v2c0 .966.784 1.75 1.75 1.75h2A1.75 1.75 0 0 0 7.75 6V4A1.75 1.75 0 0 0 6 2.25H4ZM21.75 5a.75.75 0 0 0-.75-.75H11a.75.75 0 0 0 0 1.5h10a.75.75 0 0 0 .75-.75ZM21 11.25a.75.75 0 0 1 0 1.5H11a.75.75 0 0 1 0-1.5h10Zm0 7a.75.75 0 0 1 0 1.5H11a.75.75 0 0 1 0-1.5h10ZM3.75 18a.25.25 0 0 1 .25-.25h2a.25.25 0 0 1 .25.25v2a.25.25 0 0 1-.25.25H4a.25.25 0 0 1-.25-.25v-2ZM4 16.25A1.75 1.75 0 0 0 2.25 18v2c0 .966.784 1.75 1.75 1.75h2A1.75 1.75 0 0 0 7.75 20v-2A1.75 1.75 0 0 0 6 16.25H4Zm0-5.5a.25.25 0 0 0-.25.25v2c0 .138.112.25.25.25h2a.25.25 0 0 0 .25-.25v-2a.25.25 0 0 0-.25-.25H4ZM2.25 11c0-.966.784-1.75 1.75-1.75h2c.966 0 1.75.784 1.75 1.75v2A1.75 1.75 0 0 1 6 14.75H4A1.75 1.75 0 0 1 2.25 13v-2Z" fill="#151E28"/></svg>