<svg viewBox="0 0 24 24" fill="none" xmlns="http://www.w3.org/2000/svg"><path fill-rule="evenodd" clip-rule="evenodd" d="M19.994 4.331a1.425 1.425 0 0 0-.302.075c-.293.096-.687.264-1.274.516L6.796 9.903c-.697.299-1.175.504-1.503.678-.222.118-.305.187-.327.205a.25.25 0 0 0 .016.181c.026.014.119.068.359.145.353.112.86.23 1.598.4l2.473.571.107.025c.602.138 1.075.247 1.47.496.349.22.643.514.862.862.25.396.359.869.497 1.47l.025.108.57 2.473c.17.738.288 1.245.401 1.598.077.24.13.333.145.358a.25.25 0 0 0 .18.017c.019-.023.088-.105.206-.327.174-.328.38-.806.678-1.503l4.98-11.622c.252-.587.42-.982.517-1.274.062-.191.072-.278.074-.302a.25.25 0 0 0-.13-.13Zm.433-1.437c.54.172.962.595 1.135 1.134.135.424.026.86-.087 1.204-.12.363-.315.818-.548 1.364l-.015.033-4.98 11.622-.015.033c-.28.656-.51 1.192-.717 1.581-.187.354-.454.793-.898.987a1.75 1.75 0 0 1-1.677-.15c-.403-.27-.588-.749-.71-1.13-.134-.42-.265-.988-.425-1.683l-.008-.035-.571-2.473c-.175-.76-.232-.962-.329-1.116a1.25 1.25 0 0 0-.392-.391c-.153-.097-.355-.154-1.115-.33l-2.473-.57-.035-.008c-.695-.16-1.263-.291-1.683-.426-.381-.122-.86-.306-1.13-.709a1.75 1.75 0 0 1-.15-1.677c.194-.445.633-.71.987-.898.389-.207.925-.437 1.58-.717l.034-.015 11.622-4.98.033-.015c.546-.234 1-.429 1.364-.548.344-.113.78-.222 1.203-.087Z" fill="#151E28"/></svg>