<svg viewBox="0 0 24 24" fill="none" xmlns="http://www.w3.org/2000/svg"><path fill-rule="evenodd" clip-rule="evenodd" d="M12 2.75c-.825 0-1.576.306-2.15.812a.75.75 0 0 1-.992-1.124A4.75 4.75 0 0 1 16.75 6v1.835a6.751 6.751 0 0 1 3.942 5.284c.058.44.058.949.058 1.81V15a.75.75 0 0 1-1.5 0c0-.953-.002-1.356-.045-1.685a5.25 5.25 0 0 0-4.52-4.52c-.329-.043-.732-.045-1.685-.045a.75.75 0 0 1 0-1.5h.07c.862 0 1.372 0 1.811.058.124.016.247.036.369.059V6A3.25 3.25 0 0 0 12 2.75ZM8.06 9.12a5.251 5.251 0 0 0-3.265 4.195c-.043.329-.045.732-.045 1.685 0 .953.002 1.356.045 1.685a5.25 5.25 0 0 0 4.52 4.52c.329.043.732.045 1.685.045h2c.953 0 1.356-.002 1.685-.045a5.246 5.246 0 0 0 3.467-1.992L14.69 15.75a2.551 2.551 0 0 1-2.49 1.999h-.4a2.55 2.55 0 0 1-2.55-2.55v-.4a2.55 2.55 0 0 1 1.999-2.49L8.06 9.12Zm11.16 11.16a6.745 6.745 0 0 1-4.339 2.412c-.44.058-.949.058-1.81.058H10.93c-.862 0-1.372 0-1.811-.058a6.75 6.75 0 0 1-5.811-5.81c-.058-.44-.058-.95-.058-1.812v-.14c0-.862 0-1.372.058-1.811a6.75 6.75 0 0 1 3.62-5.13L1.47 2.53a.75.75 0 0 1 1.06-1.06l20 20a.75.75 0 1 1-1.06 1.06l-2.25-2.25Zm-8.47-5.48c0-.58.47-1.05 1.05-1.05h.4c.58 0 1.05.47 1.05 1.05v.4c0 .58-.47 1.05-1.05 1.05h-.4c-.58 0-1.05-.47-1.05-1.05v-.4Z" fill="#151E28"/></svg>