<svg viewBox="0 0 24 24" fill="none" xmlns="http://www.w3.org/2000/svg"><path fill-rule="evenodd" clip-rule="evenodd" d="M8.75 6a3.25 3.25 0 0 1 6.5 0v1.367a6.782 6.782 0 0 0-.369-.06c-.44-.057-.949-.057-1.81-.057H10.93c-.862 0-1.372 0-1.811.058a6.792 6.792 0 0 0-.369.059V6Zm-1.5 1.835V6a4.75 4.75 0 0 1 9.5 0v1.835a6.751 6.751 0 0 1 3.942 5.284c.058.44.058.949.058 1.81v.141c0 .862 0 1.372-.058 1.811a6.75 6.75 0 0 1-5.81 5.811c-.44.058-.95.058-1.812.058h-2.14c-.862 0-1.372 0-1.811-.058a6.75 6.75 0 0 1-5.811-5.81c-.058-.44-.058-.95-.058-1.812v-.14c0-.862 0-1.372.058-1.811A6.751 6.751 0 0 1 7.25 7.835ZM11 8.75c-.953 0-1.356.002-1.685.045a5.25 5.25 0 0 0-4.52 4.52c-.043.329-.045.732-.045 1.685 0 .953.002 1.356.045 1.685a5.25 5.25 0 0 0 4.52 4.52c.329.043.732.045 1.685.045h2c.953 0 1.356-.002 1.685-.045a5.25 5.25 0 0 0 4.52-4.52c.043-.329.045-.732.045-1.685 0-.953-.002-1.356-.045-1.685a5.25 5.25 0 0 0-4.52-4.52c-.329-.043-.732-.045-1.685-.045h-2ZM9.25 14.8a2.55 2.55 0 0 1 2.55-2.55h.4a2.55 2.55 0 0 1 2.55 2.55v.4a2.55 2.55 0 0 1-2.55 2.55h-.4a2.55 2.55 0 0 1-2.55-2.55v-.4Zm2.55-1.05c-.58 0-1.05.47-1.05 1.05v.4c0 .58.47 1.05 1.05 1.05h.4c.58 0 1.05-.47 1.05-1.05v-.4c0-.58-.47-1.05-1.05-1.05h-.4Z" fill="#151E28"/></svg>