<svg viewBox="0 0 24 24" fill="none" xmlns="http://www.w3.org/2000/svg"><path fill-rule="evenodd" clip-rule="evenodd" d="M12 1.75A3.25 3.25 0 0 0 8.75 5v2.635a6.755 6.755 0 0 1 1.369-.327c.44-.058.949-.058 1.81-.058h.141c.862 0 1.372 0 1.811.058a6.75 6.75 0 0 1 5.811 5.81c.058.44.058.95.058 1.812v.14c0 .862 0 1.372-.058 1.811a6.75 6.75 0 0 1-5.81 5.811c-.44.058-.95.058-1.812.058h-.14c-.862 0-1.372 0-1.811-.058a6.75 6.75 0 0 1-5.811-5.81c-.058-.44-.058-.95-.058-1.812v-.14c0-.862 0-1.372.058-1.811A6.748 6.748 0 0 1 7.25 8.387V5a4.75 4.75 0 0 1 9.35-1.187.75.75 0 1 1-1.452.374A3.252 3.252 0 0 0 12 1.75Zm0 7c-.953 0-1.356.002-1.685.045a5.25 5.25 0 0 0-4.52 4.52c-.043.329-.045.732-.045 1.685 0 .953.002 1.356.045 1.685a5.25 5.25 0 0 0 4.52 4.52c.329.043.732.045 1.685.045.953 0 1.356-.002 1.685-.045a5.25 5.25 0 0 0 4.52-4.52c.043-.329.045-.732.045-1.685 0-.953-.002-1.356-.045-1.685a5.25 5.25 0 0 0-4.52-4.52c-.329-.043-.732-.045-1.685-.045Zm-.2 3.5a2.55 2.55 0 0 0-2.55 2.55v.4a2.55 2.55 0 0 0 2.55 2.55h.4a2.55 2.55 0 0 0 2.55-2.55v-.4a2.55 2.55 0 0 0-2.55-2.55h-.4Zm-1.05 2.55c0-.58.47-1.05 1.05-1.05h.4c.58 0 1.05.47 1.05 1.05v.4c0 .58-.47 1.05-1.05 1.05h-.4c-.58 0-1.05-.47-1.05-1.05v-.4Z" fill="#151E28"/></svg>