<svg viewBox="0 0 24 24" fill="none" xmlns="http://www.w3.org/2000/svg"><path fill-rule="evenodd" clip-rule="evenodd" d="M9.85 3.562A3.25 3.25 0 0 1 15.25 6v1.635a6.755 6.755 0 0 0-1.369-.327 7.618 7.618 0 0 0-.868-.053.75.75 0 1 0-.026 1.5c.318.005.524.017.698.04a5.25 5.25 0 0 1 4.52 4.52c.023.174.035.38.04.698a.75.75 0 1 0 1.5-.026 7.624 7.624 0 0 0-.053-.868 6.748 6.748 0 0 0-2.942-4.732V6a4.75 4.75 0 0 0-7.892-3.562.75.75 0 1 0 .992 1.124ZM8.386 9.447a5.25 5.25 0 0 0-2.591 3.868c-.043.329-.045.732-.045 1.685 0 .953.002 1.356.045 1.685a5.25 5.25 0 0 0 4.52 4.52c.329.043.732.045 1.685.045.953 0 1.356-.002 1.685-.045a5.25 5.25 0 0 0 3.868-2.59L14.69 15.75a2.551 2.551 0 0 1-2.49 1.999h-.4a2.55 2.55 0 0 1-2.55-2.55v-.4a2.55 2.55 0 0 1 1.999-2.49L8.386 9.447Zm10.257 10.257a6.748 6.748 0 0 1-4.762 2.988c-.44.058-.949.058-1.81.058h-.141c-.862 0-1.372 0-1.811-.058a6.75 6.75 0 0 1-5.811-5.81c-.058-.44-.058-.95-.058-1.812v-.14c0-.862 0-1.372.058-1.811a6.748 6.748 0 0 1 2.988-4.762L1.47 2.53a.75.75 0 0 1 1.06-1.06l20 20a.75.75 0 1 1-1.06 1.06l-2.827-2.826ZM11.8 13.75c-.58 0-1.05.47-1.05 1.05v.4c0 .58.47 1.05 1.05 1.05h.4c.58 0 1.05-.47 1.05-1.05v-.4c0-.58-.47-1.05-1.05-1.05h-.4Z" fill="#151E28"/></svg>