<svg viewBox="0 0 24 24" fill="none" xmlns="http://www.w3.org/2000/svg"><path fill-rule="evenodd" clip-rule="evenodd" d="M1.69 2.766C1.57 2.75 1.422 2.75 1 2.75a.75.75 0 0 1 0-1.5h.05c.354 0 .596 0 .816.026A3.75 3.75 0 0 1 5.04 4c.06.213.096.452.15.802l.007.05.918 5.964c.113.733.192 1.242.284 1.637.09.385.18.607.29.777.234.358.566.643.956.82.184.083.417.139.812.169.404.03.919.031 1.661.031H22a.75.75 0 1 1 0 1.5H10.088c-.705 0-1.277 0-1.745-.036-.483-.036-.91-.114-1.317-.298a3.75 3.75 0 0 1-1.593-1.367c-.244-.373-.385-.784-.495-1.256-.107-.457-.194-1.022-.301-1.72l-.004-.029-.918-5.965c-.064-.417-.088-.562-.12-.68A2.25 2.25 0 0 0 1.69 2.767ZM8.75 20a1.25 1.25 0 1 1 2.5 0 1.25 1.25 0 0 1-2.5 0ZM10 17.25a2.75 2.75 0 1 0 0 5.5 2.75 2.75 0 0 0 0-5.5ZM16.75 20a1.25 1.25 0 1 1 2.5 0 1.25 1.25 0 0 1-2.5 0ZM18 17.25a2.75 2.75 0 1 0 0 5.5 2.75 2.75 0 0 0 0-5.5Zm-5.8-11h-.03c-.535 0-.98 0-1.345.03-.38.03-.736.098-1.073.27A2.75 2.75 0 0 0 8.55 7.752c-.172.337-.24.693-.27 1.073-.03.365-.03.81-.03 1.345V12c0 .414.336.75.75.75h11a.75.75 0 0 0 .75-.75v-1.83c0-.535 0-.98-.03-1.345-.03-.38-.098-.736-.27-1.073a2.75 2.75 0 0 0-1.2-1.202c-.338-.172-.694-.24-1.074-.27-.365-.03-.81-.03-1.345-.03H12.2Zm-1.768 1.636c.091-.046.228-.088.515-.111.296-.024.68-.025 1.253-.025h4.6c.572 0 .957 0 1.252.025.288.023.425.065.515.111.236.12.427.311.547.547.046.09.088.227.111.514.024.296.025.68.025 1.253v1.05h-9.5V10.2c0-.572 0-.957.025-1.253.023-.287.065-.424.111-.514a1.25 1.25 0 0 1 .546-.547Z" fill="#151E28"/></svg>