<svg viewBox="0 0 24 24" fill="none" xmlns="http://www.w3.org/2000/svg"><path fill-rule="evenodd" clip-rule="evenodd" d="M20.217 12.621a5.172 5.172 0 0 0 0-7.314L19.1 4.19a4.75 4.75 0 0 0-6.717 0l-.488.488h-1.103a.75.75 0 0 0-.75.75v1.103l-.96.959a1.75 1.75 0 0 0-.494.99l-.498 3.488a2.679 2.679 0 0 1-.758 1.516l-3.788 3.788a2.25 2.25 0 0 0 3.182 3.182l1.548-1.548h1.104a.75.75 0 0 0 .75-.75v-1.104l.958-.959a4.75 4.75 0 0 0 1.344-2.687l.471-3.3a.25.25 0 0 1 .071-.141l1.886-1.886a1.25 1.25 0 0 1 1.767 0l.182.182a.993.993 0 0 1 0 1.404l-.682.682c-1.116 1.117-.538 3.027 1.01 3.337a3.204 3.204 0 0 0 2.894-.877l.187-.187Zm-1.06-6.254a3.672 3.672 0 0 1 0 5.194l-.188.187c-.403.403-.98.578-1.539.466a.477.477 0 0 1-.243-.805l.682-.682a2.493 2.493 0 0 0 0-3.526l-.182-.181a2.75 2.75 0 0 0-3.889 0l-1.886 1.885a1.75 1.75 0 0 0-.495.99l-.471 3.3a3.25 3.25 0 0 1-.92 1.838l-1.178 1.179a.75.75 0 0 0-.22.53v.665h-.664a.75.75 0 0 0-.53.22l-1.768 1.767a.75.75 0 0 1-1.06-1.06l3.788-3.789a4.178 4.178 0 0 0 1.182-2.364l.498-3.488a.25.25 0 0 1 .07-.141l1.18-1.179a.75.75 0 0 0 .219-.53v-.664h.664a.75.75 0 0 0 .53-.22l.707-.707a3.25 3.25 0 0 1 4.597 0l1.115 1.115Z" fill="#151E28"/></svg>