<svg viewBox="0 0 24 24" fill="none" xmlns="http://www.w3.org/2000/svg"><path fill-rule="evenodd" clip-rule="evenodd" d="M7.5 2.969A6.75 6.75 0 0 1 18.75 8v3a.75.75 0 0 1-1.5 0V8A5.25 5.25 0 0 0 8.5 4.087a.75.75 0 0 1-1-1.118ZM5.42 6.482A6.769 6.769 0 0 0 5.25 8v3a.75.75 0 0 0 1.5 0V8l.003-.186 5.436 5.436H5a.75.75 0 0 0 0 1.5h.291a6.753 6.753 0 0 0 5.959 5.959V23a.75.75 0 0 0 1.5 0v-2.291a6.741 6.741 0 0 0 4.47-2.429l4.25 4.25a.75.75 0 1 0 1.06-1.06l-20-20a.75.75 0 0 0-1.06 1.06l3.952 3.952Zm10.731 10.731L13.69 14.75H6.803a5.251 5.251 0 0 0 5.188 4.5h.018a5.24 5.24 0 0 0 4.143-2.037ZM18 13.25a.75.75 0 0 0 0 1.5h1a.75.75 0 0 0 0-1.5h-1Z" fill="#151E28"/></svg>