<svg viewBox="0 0 24 24" fill="none" xmlns="http://www.w3.org/2000/svg"><path fill-rule="evenodd" clip-rule="evenodd" d="M9.143 4.235c-.168.06-.389.167-.755.345a8.25 8.25 0 1 0 10.488 11.981c.137-.206.218-.33.273-.425a.625.625 0 0 0 .046-.094.235.235 0 0 0-.132-.264c-.012-.002-.07-.012-.209-.019-.194-.009-.462-.01-.854-.01a8.75 8.75 0 0 1-8.681-9.853c.075-.599.126-1.004.14-1.298.01-.2-.002-.285-.005-.306a.229.229 0 0 0-.152-.1.618.618 0 0 0-.159.043Zm.163-.042h-.004.004Zm-.67-1.37c.278-.1.596-.172.947-.104.506.098.93.402 1.187.85.2.35.204.769.188 1.102-.018.359-.076.822-.147 1.381l-.004.032A7.25 7.25 0 0 0 18 14.25h.02c.368 0 .67 0 .904.01.215.01.482.032.715.132a1.736 1.736 0 0 1 1.03 1.924c-.04.217-.125.4-.216.56a8.862 8.862 0 0 1-.316.497l-.013.019A9.742 9.742 0 0 1 12 21.75 9.75 9.75 0 0 1 2.25 12a9.75 9.75 0 0 1 5.513-8.784c.323-.157.618-.301.874-.393Z" fill="#151E28"/></svg>