<svg viewBox="0 0 24 24" fill="none" xmlns="http://www.w3.org/2000/svg"><path fill-rule="evenodd" clip-rule="evenodd" d="M12 2.25h-.07c-.862 0-1.372 0-1.811.058a6.75 6.75 0 0 0-5.811 5.811c-.058.44-.058.949-.058 1.81v4.141c0 .862 0 1.372.058 1.811a6.75 6.75 0 0 0 5.81 5.811c.44.058.95.058 1.812.058h.14c.862 0 1.372 0 1.811-.058a6.75 6.75 0 0 0 5.811-5.81c.058-.44.058-.95.058-1.812V9.93c0-.862 0-1.372-.058-1.811a6.75 6.75 0 0 0-5.81-5.811c-.44-.058-.95-.058-1.812-.058H12Zm-1.685 1.545c.329-.043.732-.045 1.685-.045.953 0 1.356.002 1.685.045a5.25 5.25 0 0 1 4.52 4.52c.043.329.045.732.045 1.685v4c0 .953-.002 1.356-.045 1.685a5.25 5.25 0 0 1-4.52 4.52c-.329.043-.732.045-1.685.045-.953 0-1.356-.002-1.685-.045a5.25 5.25 0 0 1-4.52-4.52c-.043-.329-.045-.732-.045-1.685v-4c0-.953.002-1.356.045-1.685a5.25 5.25 0 0 1 4.52-4.52ZM12.75 7a.75.75 0 0 0-1.5 0v3a.75.75 0 0 0 1.5 0V7Z" fill="#151E28"/></svg>