<svg viewBox="0 0 24 24" fill="none" xmlns="http://www.w3.org/2000/svg"><path fill-rule="evenodd" clip-rule="evenodd" d="M11.226 6.813a5.263 5.263 0 0 1 3.408-2.884 5.75 5.75 0 0 0 5.851 7.8 5.279 5.279 0 0 1-1.86 1.82.75.75 0 1 0 .75 1.298 6.764 6.764 0 0 0 3.106-3.956.75.75 0 0 0-.984-.912 4.25 4.25 0 0 1-4.898-6.529.75.75 0 0 0-.6-1.2 6.751 6.751 0 0 0-6.137 3.937.75.75 0 0 0 1.364.626Zm-4.329 4.402A3.015 3.015 0 0 1 9.5 9.75c1.673 0 3 1.322 3 2.917 0 .414.336.75.75.75 1.673 0 3 1.321 3 2.916s-1.327 2.917-3 2.917h-7.5c-1.673 0-3-1.322-3-2.917 0-1.595 1.327-2.916 3-2.916.43 0 .838.087 1.205.244a.75.75 0 0 0 .59-1.379 4.56 4.56 0 0 0-1.795-.365c-2.47 0-4.5 1.961-4.5 4.416s2.03 4.417 4.5 4.417h7.5c2.47 0 4.5-1.962 4.5-4.417 0-2.22-1.661-4.037-3.806-4.364-.341-2.119-2.214-3.72-4.444-3.72a4.514 4.514 0 0 0-3.894 2.202.75.75 0 1 0 1.291.764Z" fill="#151E28"/></svg>