<svg viewBox="0 0 24 24" fill="none" xmlns="http://www.w3.org/2000/svg"><path fill-rule="evenodd" clip-rule="evenodd" d="M11.226 6.813a5.263 5.263 0 0 1 3.408-2.884 5.75 5.75 0 0 0 5.851 7.8 5.279 5.279 0 0 1-1.86 1.82.75.75 0 1 0 .75 1.298 6.764 6.764 0 0 0 3.106-3.956.75.75 0 0 0-.984-.912 4.25 4.25 0 0 1-4.898-6.529.75.75 0 0 0-.6-1.2 6.751 6.751 0 0 0-6.137 3.937.75.75 0 0 0 1.364.626ZM9.5 9.75a3.015 3.015 0 0 0-2.603 1.465.75.75 0 1 1-1.29-.764A4.514 4.514 0 0 1 9.5 8.25c2.23 0 4.103 1.6 4.444 3.719 2.145.327 3.806 2.144 3.806 4.364a4.369 4.369 0 0 1-1.418 3.218.75.75 0 1 1-1.017-1.102c.58-.535.935-1.286.935-2.116 0-1.595-1.327-2.916-3-2.916a.75.75 0 0 1-.75-.75c0-1.595-1.327-2.917-3-2.917Zm-3.75 3.667c-1.673 0-3 1.321-3 2.916 0 .83.356 1.581.935 2.116a.75.75 0 1 1-1.017 1.102 4.369 4.369 0 0 1-1.418-3.218c0-2.455 2.03-4.416 4.5-4.416.636 0 1.244.13 1.795.365a.75.75 0 1 1-.59 1.38 3.06 3.06 0 0 0-1.205-.245Zm.75 3.833a.75.75 0 0 1 .75.75v2a.75.75 0 0 1-1.5 0v-2a.75.75 0 0 1 .75-.75Zm6 0a.75.75 0 0 1 .75.75v2a.75.75 0 0 1-1.5 0v-2a.75.75 0 0 1 .75-.75Zm-3 2a.75.75 0 0 1 .75.75v2a.75.75 0 0 1-1.5 0v-2a.75.75 0 0 1 .75-.75Z" fill="#151E28"/></svg>