<svg viewBox="0 0 24 24" fill="none" xmlns="http://www.w3.org/2000/svg"><path fill-rule="evenodd" clip-rule="evenodd" d="M9.768 2.25h4.464c.813 0 1.469 0 2 .043.546.045 1.026.14 1.47.366a3.75 3.75 0 0 1 1.64 1.639c.226.444.32.924.365 1.47.043.531.043 1.187.043 2v8.464c0 .813 0 1.469-.043 2-.045.546-.14 1.026-.366 1.47a3.75 3.75 0 0 1-1.638 1.64c-.445.226-.925.32-1.471.365-.531.043-1.187.043-2 .043H9.768c-.813 0-1.468 0-2-.043-.546-.045-1.026-.14-1.47-.366a3.75 3.75 0 0 1-1.64-1.639c-.225-.444-.32-.924-.364-1.47a19.705 19.705 0 0 1-.043-1.482H3a.75.75 0 0 1 0-1.5h1.25v-2.5H3a.75.75 0 0 1 0-1.5h1.25v-2.5H3a.75.75 0 0 1 0-1.5h1.25c.002-.58.01-1.068.044-1.481.044-.547.139-1.027.365-1.471a3.75 3.75 0 0 1 1.639-1.64c.444-.226.924-.32 1.47-.365.532-.043 1.187-.043 2-.043Zm4.982 18c.57-.002 1.004-.01 1.36-.038.453-.038.714-.107.912-.207a2.25 2.25 0 0 0 .983-.983c.1-.198.17-.459.207-.913.038-.462.038-1.057.038-1.909V7.8c0-.852 0-1.447-.038-1.91-.037-.453-.106-.714-.207-.911a2.25 2.25 0 0 0-.983-.984c-.198-.1-.459-.17-.912-.207-.356-.029-.79-.036-1.36-.037v16.498Zm-1.5-16.5v16.5H9.8c-.852 0-1.447 0-1.91-.038-.453-.038-.714-.107-.911-.207a2.25 2.25 0 0 1-.984-.983c-.1-.198-.17-.459-.206-.913a18.26 18.26 0 0 1-.038-1.359H7a.75.75 0 0 0 0-1.5H5.75v-2.5H7a.75.75 0 0 0 0-1.5H5.75v-2.5H7a.75.75 0 0 0 0-1.5H5.75c.001-.57.008-1.003.038-1.36.037-.453.106-.714.206-.911a2.25 2.25 0 0 1 .984-.984c.197-.1.458-.17.912-.207.462-.037 1.057-.038 1.91-.038h3.449Z" fill="#151E28"/></svg>