<svg viewBox="0 0 24 24" fill="none" xmlns="http://www.w3.org/2000/svg"><path fill-rule="evenodd" clip-rule="evenodd" d="M14 1.25A4.75 4.75 0 0 0 9.25 6a.75.75 0 0 0 1.5 0 3.25 3.25 0 0 1 6.5 0v8a.75.75 0 0 0 1.5 0V6A4.75 4.75 0 0 0 14 1.25ZM5.25 6.31 1.47 2.53a.75.75 0 0 1 1.06-1.06l3.993 3.993.014.014 3.987 3.986.013.014 3.986 3.986.014.014 7.993 7.993a.75.75 0 1 1-1.06 1.06l-3.458-3.458A6.75 6.75 0 0 1 5.25 16V6.31Zm1.5 1.5V16a5.25 5.25 0 0 0 10.13 1.94l-2.13-2.13V16a2.75 2.75 0 1 1-5.5 0v-5.69l-2.5-2.5Zm4 4V16a1.25 1.25 0 1 0 2.5 0v-1.69l-2.5-2.5Zm4-5.81a.75.75 0 0 0-1.5 0v4a.75.75 0 0 0 1.5 0V6Z" fill="#151E28"/></svg>