<svg viewBox="0 0 24 24" fill="none" xmlns="http://www.w3.org/2000/svg"><path fill-rule="evenodd" clip-rule="evenodd" d="m5.246 3.708.032.015 12.99 6.153.033.016c.46.218.851.403 1.144.575.286.17.615.4.794.77a1.75 1.75 0 0 1 0 1.526c-.179.37-.508.6-.794.77-.293.172-.684.358-1.144.576l-.032.015-12.991 6.153-.032.016c-.447.211-.829.392-1.14.506-.308.113-.687.218-1.08.127a1.75 1.75 0 0 1-1.181-.942c-.176-.364-.158-.757-.116-1.081.042-.33.134-.742.241-1.225l.008-.034L3.232 12 1.978 6.356l-.008-.034a15.106 15.106 0 0 1-.241-1.225c-.042-.324-.06-.717.116-1.08a1.75 1.75 0 0 1 1.18-.943c.394-.09.773.014 1.08.127.312.114.694.295 1.14.507Zm-.644 9.042-1.16 5.22c-.117.526-.193.87-.226 1.124a1.19 1.19 0 0 0-.013.252.25.25 0 0 0 .143.114c.02-.002.09-.013.243-.069.24-.088.559-.238 1.047-.47l12.99-6.153c.502-.237.83-.394 1.057-.527.144-.085.199-.135.214-.149a.25.25 0 0 0 0-.184 1.172 1.172 0 0 0-.214-.149c-.227-.133-.555-.29-1.057-.527L4.636 5.078c-.488-.23-.808-.381-1.047-.47a1.143 1.143 0 0 0-.243-.068.25.25 0 0 0-.143.115c-.002.02-.007.09.013.25.033.254.109.599.226 1.126l1.16 5.22H11a.75.75 0 0 1 0 1.5H4.602Z" fill="#151E28"/></svg>