<svg viewBox="0 0 24 24" fill="none" xmlns="http://www.w3.org/2000/svg"><path fill-rule="evenodd" clip-rule="evenodd" d="M17.53 1.47a.75.75 0 0 0-1.06 1.06c.85.85 1.03 1.656 1.03 2.22a2.567 2.567 0 0 1-.157.882.97.97 0 0 1-.016.036l-.001.003a.75.75 0 0 0-.04.096c-1.12-.293-2.087-.246-2.903.03a4.428 4.428 0 0 0-1.896 1.283 5.9 5.9 0 0 0-.938 1.46 5.94 5.94 0 0 0-.268.71l-.004.014-.001.005v.002c-.001.001-.001.001.723.195l-.724-.194a.75.75 0 0 0 .77.943l2.183-.13.954 1.651a.75.75 0 0 0 1.024.275l1.652-.954 1.826 1.205a.75.75 0 0 0 1.138-.431l-.725-.195.725.194v-.003l.002-.005.004-.015.006-.024.005-.022.034-.159a5.91 5.91 0 0 0 .077-.543 5.9 5.9 0 0 0-.081-1.733 4.428 4.428 0 0 0-1.001-2.059 4.474 4.474 0 0 0-1.188-.95 1.808 1.808 0 0 0 .055-.128c.032-.08.072-.19.111-.327.078-.272.154-.654.154-1.112 0-.936-.32-2.13-1.47-3.28Zm.446 4.518-.647-.323v.001l-.001.001-.001.003-.002.002.004-.007.647.323ZM13.19 8.644l1.41-.085a.75.75 0 0 1 .695.374l.81 1.404 1.405-.81a.75.75 0 0 1 .788.023l1.18.778a4.082 4.082 0 0 0-.08-.701 2.93 2.93 0 0 0-.657-1.37c-.36-.409-.916-.793-1.802-1.03-.885-.237-1.56-.183-2.076-.009a2.93 2.93 0 0 0-1.254.857c-.164.186-.303.38-.42.569Zm-.855 2.685a.75.75 0 0 1 .336 1.006l-.82 1.64a6.75 6.75 0 0 1-4.183 3.471l-3.222.92a.96.96 0 0 0 .264 1.884h5.501a8.25 8.25 0 0 0 7.933-5.984l.135-.472a.75.75 0 0 1 1.442.412l-.135.473a9.75 9.75 0 0 1-9.375 7.071H4.71a2.46 2.46 0 0 1-.676-4.826l3.222-.92a5.25 5.25 0 0 0 3.253-2.7l.82-1.64a.75.75 0 0 1 1.006-.335Z" fill="#151E28"/></svg>