<svg viewBox="0 0 24 24" fill="none" xmlns="http://www.w3.org/2000/svg"><path fill-rule="evenodd" clip-rule="evenodd" d="M3.25 7A4.75 4.75 0 0 1 8 2.25 2.75 2.75 0 0 1 10.75 5v4A2.75 2.75 0 0 1 8 11.75a4.728 4.728 0 0 1-2.588-.766 12.283 12.283 0 0 0 7.604 7.604A4.728 4.728 0 0 1 12.25 16 2.75 2.75 0 0 1 15 13.25h4A2.75 2.75 0 0 1 21.75 16 4.75 4.75 0 0 1 17 20.75C9.406 20.75 3.25 14.594 3.25 7ZM8 10.25a3.25 3.25 0 0 1 0-6.5c.69 0 1.25.56 1.25 1.25v4c0 .69-.56 1.25-1.25 1.25Zm9 9A3.25 3.25 0 0 0 20.25 16c0-.69-.56-1.25-1.25-1.25h-4c-.69 0-1.25.56-1.25 1.25A3.25 3.25 0 0 0 17 19.25Zm-2-13a.75.75 0 0 0 0 1.5h6a.75.75 0 0 0 0-1.5h-6Z" fill="#151E28"/></svg>