<svg viewBox="0 0 24 24" fill="none" xmlns="http://www.w3.org/2000/svg"><path fill-rule="evenodd" clip-rule="evenodd" d="M8.664 5.915a3.334 3.334 0 1 1 6.669 0 3.334 3.334 0 0 1-6.669 0Zm3.335-4.835a4.835 4.835 0 0 0-.75 9.611V17a.75.75 0 0 0 1.5 0v-6.31a4.836 4.836 0 0 0-.75-9.61ZM5.688 15.547a.75.75 0 0 1-.39.987c-.577.251-.988.516-1.243.765-.254.247-.305.427-.305.536 0 .126.07.351.437.655.361.301.93.605 1.698.875 1.53.538 3.691.885 6.115.885 2.424 0 4.586-.347 6.115-.885.768-.27 1.337-.574 1.698-.875.366-.304.437-.529.437-.655 0-.11-.051-.289-.305-.536-.255-.25-.666-.514-1.244-.765a.75.75 0 1 1 .598-1.376c.673.293 1.262.646 1.694 1.067.434.423.757.966.757 1.61 0 .748-.433 1.356-.978 1.809-.549.456-1.299.834-2.16 1.137-1.727.607-4.065.969-6.612.969-2.547 0-4.885-.362-6.613-.97-.86-.302-1.61-.68-2.16-1.136-.544-.453-.977-1.06-.977-1.809 0-.644.323-1.187.757-1.61.432-.421 1.021-.774 1.694-1.067a.75.75 0 0 1 .987.39Z" fill="#151E28"/></svg>