<svg viewBox="0 0 24 24" fill="none" xmlns="http://www.w3.org/2000/svg"><path fill-rule="evenodd" clip-rule="evenodd" d="M4.75 9.542c0-2.295.904-3.969 2.232-5.082C8.327 3.333 10.148 2.75 12 2.75c1.852 0 3.673.583 5.018 1.71 1.328 1.113 2.232 2.787 2.232 5.082 0 2.37-.925 4.535-2.168 6.37-1.242 1.833-2.774 3.296-3.913 4.248-.48.4-.594.484-.825.55a1.423 1.423 0 0 1-.344.034 1.45 1.45 0 0 1-.343-.034c-.232-.066-.346-.15-.825-.55-1.14-.952-2.672-2.415-3.914-4.248-1.243-1.835-2.168-4-2.168-6.37Zm16 0c0-2.734-1.096-4.83-2.768-6.231C16.327 1.924 14.148 1.25 12 1.25s-4.327.674-5.982 2.06C4.346 4.713 3.25 6.809 3.25 9.543c0 2.767 1.079 5.222 2.426 7.21 1.348 1.99 2.991 3.555 4.194 4.56l.05.041c.42.352.763.638 1.325.799.238.068.514.092.755.092s.517-.024.756-.092c.562-.16.904-.447 1.325-.799l.05-.041c1.202-1.005 2.846-2.57 4.193-4.56 1.347-1.988 2.426-4.443 2.426-7.21ZM16.53 8.53a.75.75 0 0 0-1.06-1.06L11 11.94l-1.47-1.47a.75.75 0 0 0-1.06 1.06l2 2a.75.75 0 0 0 1.06 0l5-5Z" fill="#151E28"/></svg>