<svg viewBox="0 0 24 24" fill="none" xmlns="http://www.w3.org/2000/svg"><path fill-rule="evenodd" clip-rule="evenodd" d="M4.75 12a7.25 7.25 0 0 1 13.772-3.171.75.75 0 0 0 1.348-.658 8.75 8.75 0 1 0-15.105 8.75.75.75 0 1 0 1.24-.843A7.213 7.213 0 0 1 4.75 12Zm15.564 2.734a.75.75 0 0 0-1.425-.468 7.254 7.254 0 0 1-8.702 4.756.75.75 0 0 0-.374 1.452 8.754 8.754 0 0 0 10.501-5.74Zm-17.209.411a.75.75 0 1 0-1.21-.886c-.52.711-.91 1.422-1.1 2.098-.191.68-.197 1.394.164 2.018.44.763 1.264 1.118 2.137 1.244.883.128 1.954.047 3.12-.192 2.341-.48 5.24-1.627 8.16-3.313 2.92-1.686 5.363-3.622 6.948-5.41.79-.89 1.396-1.777 1.727-2.606.327-.82.432-1.71-.009-2.473-.33-.57-.879-.915-1.492-1.103-.608-.185-1.326-.233-2.099-.183a.75.75 0 0 0 .098 1.497c.667-.043 1.188.006 1.563.121.37.113.546.27.631.418.112.194.161.55-.085 1.167-.242.607-.727 1.345-1.456 2.167-1.452 1.638-3.757 3.478-6.577 5.106-2.819 1.627-5.565 2.704-7.71 3.142-1.075.22-1.957.271-2.604.178-.658-.096-.941-.316-1.053-.51-.093-.16-.143-.424-.02-.862.124-.442.407-.988.867-1.618Z" fill="#151E28"/></svg>