<svg viewBox="0 0 24 24" fill="none" xmlns="http://www.w3.org/2000/svg"><path fill-rule="evenodd" clip-rule="evenodd" d="M2.75 12a9.25 9.25 0 1 1 18.5 0 9.25 9.25 0 0 1-18.5 0ZM12 1.25C6.063 1.25 1.25 6.063 1.25 12S6.063 22.75 12 22.75 22.75 17.937 22.75 12 17.937 1.25 12 1.25Zm.966 6.947-.029-.02a14.84 14.84 0 0 0-.99-.673c-.276-.16-.62-.324-1.012-.31a1.75 1.75 0 0 0-1.32.68c-.24.311-.307.685-.336 1.003-.029.32-.029.725-.029 1.197v3.852c0 .472 0 .878.03 1.197.028.318.095.692.335 1.003.317.411.8.66 1.32.68.393.014.736-.15 1.011-.31.277-.162.607-.398.991-.672l.029-.02 2.647-1.892.026-.018c.285-.204.54-.385.732-.551.202-.174.413-.392.534-.694a1.75 1.75 0 0 0 0-1.298c-.121-.302-.332-.52-.534-.694-.193-.166-.447-.347-.732-.551l-.026-.018-2.647-1.891Zm-2.154.581a.25.25 0 0 1 .163-.084c.018.006.082.028.214.105.21.123.484.318.905.618l2.647 1.891c.32.228.517.37.652.487a.8.8 0 0 1 .122.12.25.25 0 0 1 0 .17.8.8 0 0 1-.122.12c-.135.117-.333.259-.652.487l-2.647 1.89c-.42.301-.695.496-.905.619a1.043 1.043 0 0 1-.214.104.25.25 0 0 1-.163-.083 1.082 1.082 0 0 1-.04-.235 14.595 14.595 0 0 1-.022-1.096v-3.782c0-.517 0-.853.023-1.096.014-.152.033-.217.04-.235Z" fill="#151E28"/></svg>