<svg viewBox="0 0 24 24" fill="none" xmlns="http://www.w3.org/2000/svg"><path fill-rule="evenodd" clip-rule="evenodd" d="M10.82 3.586a1.25 1.25 0 0 1 2.36 0 .75.75 0 0 0 1.125.375 1.25 1.25 0 0 1 1.784.425.75.75 0 0 0 .749.374 1.25 1.25 0 0 1 1.202 1.934.75.75 0 0 0 .374 1.126 1.25 1.25 0 0 1 .495 2.038 2.997 2.997 0 0 0-1.819-.608 3.02 3.02 0 0 0-2.428 1.223A3.499 3.499 0 0 0 12 9.25c-1.07 0-2.021.477-2.662 1.223A3.02 3.02 0 0 0 6.91 9.25c-.692 0-1.318.228-1.82.608a1.25 1.25 0 0 1 .495-2.038.75.75 0 0 0 .376-1.125A1.25 1.25 0 0 1 7.163 4.76a.75.75 0 0 0 .748-.375 1.25 1.25 0 0 1 1.784-.425.75.75 0 0 0 1.125-.375Zm-6.669 7.45A2.744 2.744 0 0 1 3.25 9c0-.907.439-1.71 1.115-2.211a2.75 2.75 0 0 1 2.511-3.536 2.745 2.745 0 0 1 2.913-.888A2.745 2.745 0 0 1 12 1.25c.907 0 1.71.439 2.211 1.115a2.749 2.749 0 0 1 2.912.888 2.75 2.75 0 0 1 2.512 3.536A2.745 2.745 0 0 1 20.75 9c0 .808-.348 1.533-.901 2.036a3 3 0 0 1 .173 1.969l-1.567 6.266-.018.074c-.134.536-.226.903-.372 1.222a3.75 3.75 0 0 1-2.713 2.118c-.345.065-.724.065-1.276.065H9.924c-.552 0-.93 0-1.276-.065a3.75 3.75 0 0 1-2.713-2.118c-.146-.32-.238-.686-.372-1.222l-.018-.073-1.567-6.267a2.997 2.997 0 0 1 .173-1.97Zm2.759-.286c.791 0 1.45.607 1.516 1.395l.076.906.682 8.189a1.916 1.916 0 0 1-.258-.029 2.25 2.25 0 0 1-1.628-1.27c-.08-.176-.139-.396-.298-1.033L5.433 12.64a1.523 1.523 0 0 1 1.477-1.891Zm3.087 2.177a2.01 2.01 0 1 1 4.007 0l-.694 8.323h-2.62l-.693-8.323Zm5.501.125-.682 8.188c.106-.006.185-.015.258-.029a2.25 2.25 0 0 0 1.628-1.27c.08-.176.139-.396.298-1.033l1.567-6.267a1.522 1.522 0 1 0-2.993-.496l-.076.907Z" fill="#151E28"/></svg>