<svg viewBox="0 0 24 24" fill="none" xmlns="http://www.w3.org/2000/svg"><path fill-rule="evenodd" clip-rule="evenodd" d="M9 1.25a.75.75 0 0 1 .75.75v3.5a.75.75 0 0 1-1.5 0V2A.75.75 0 0 1 9 1.25Zm-1.8 6h-.03c-.156 0-.277 0-.386.008a2.75 2.75 0 0 0-2.526 2.526c-.008.109-.008.23-.008.387V12a7.75 7.75 0 0 0 7 7.714V23a.75.75 0 0 0 1.5 0v-3.286a7.75 7.75 0 0 0 7-7.714v-1.83c0-.156 0-.277-.009-.386a2.75 2.75 0 0 0-2.525-2.526 5.134 5.134 0 0 0-.387-.008H7.2Zm4.8 11A6.25 6.25 0 0 0 18.25 12v-1.8c0-.2 0-.257-.004-.298a1.25 1.25 0 0 0-1.148-1.148 4.69 4.69 0 0 0-.298-.004H7.2c-.2 0-.257 0-.298.004a1.25 1.25 0 0 0-1.148 1.148 4.69 4.69 0 0 0-.004.298V12A6.25 6.25 0 0 0 12 18.25ZM15.75 2a.75.75 0 0 0-1.5 0v3.5a.75.75 0 0 0 1.5 0V2Z" fill="#151E28"/></svg>