<svg viewBox="0 0 24 24" fill="none" xmlns="http://www.w3.org/2000/svg"><path fill-rule="evenodd" clip-rule="evenodd" d="M9.75 11c0-.617.2-1.18.558-1.579.347-.386.888-.671 1.692-.671.796 0 1.339.291 1.69.686.362.408.56.974.56 1.564 0 .287-.047.493-.123.664a1.86 1.86 0 0 1-.407.556c-.323.322-.755.638-1.363 1.084-.24.176-.508.372-.807.596a.75.75 0 0 0-.3.6v1a.75.75 0 0 0 1.5 0v-.623l.396-.291c.654-.479 1.224-.895 1.634-1.306a3.33 3.33 0 0 0 .718-1.007c.174-.391.252-.81.252-1.273 0-.91-.302-1.844-.94-2.56-.649-.731-1.607-1.19-2.81-1.19-1.196 0-2.155.442-2.808 1.169C8.55 9.133 8.25 10.07 8.25 11a.75.75 0 0 0 1.5 0ZM12 19a1 1 0 1 0 0-2 1 1 0 0 0 0 2Z" fill="#151E28"/></svg>