<svg viewBox="0 0 24 24" fill="none" xmlns="http://www.w3.org/2000/svg"><path fill-rule="evenodd" clip-rule="evenodd" d="M8.75 9c0-1.649 1.224-3.25 3.25-3.25 1.1 0 1.891.327 2.407.843S15.25 7.9 15.25 9c0 1.068-.308 1.76-.865 2.368-.601.656-1.501 1.227-2.77 1.989a.75.75 0 0 0-.365.643H12h-.75v2a.75.75 0 0 0 1.5 0v-1.576c1.082-.656 2.043-1.282 2.74-2.042.818-.892 1.26-1.95 1.26-3.382 0-1.4-.423-2.609-1.282-3.468C14.608 4.673 13.4 4.25 12 4.25 9.026 4.25 7.25 6.649 7.25 9a.75.75 0 0 0 1.5 0ZM12 20a1 1 0 1 0 0-2 1 1 0 0 0 0 2Z" fill="#151E28"/></svg>