<svg viewBox="0 0 24 24" fill="none" xmlns="http://www.w3.org/2000/svg"><path fill-rule="evenodd" clip-rule="evenodd" d="M3.75 12a8.25 8.25 0 1 1 16.5 0 8.25 8.25 0 0 1-16.5 0ZM12 2.25c-5.385 0-9.75 4.365-9.75 9.75s4.365 9.75 9.75 9.75 9.75-4.365 9.75-9.75S17.385 2.25 12 2.25Zm0 6.5c-.69 0-1.25.56-1.25 1.25a.75.75 0 0 1-1.5 0 2.75 2.75 0 0 1 5.5 0c0 .885-.414 1.526-.894 2.002-.33.327-.75.627-1.094.872l-.012.009v.617a.75.75 0 0 1-1.5 0v-1a.75.75 0 0 1 .3-.6c.156-.117.302-.221.44-.32.308-.22.573-.408.81-.643.301-.3.45-.58.45-.937 0-.69-.56-1.25-1.25-1.25ZM13 16a1 1 0 1 1-2 0 1 1 0 0 1 2 0Z" fill="#151E28"/></svg>