<svg viewBox="0 0 24 24" fill="none" xmlns="http://www.w3.org/2000/svg"><path fill-rule="evenodd" clip-rule="evenodd" d="M8.75 4h-.095c-.838 0-1.372 0-1.832.091l.147.736-.147-.736a4.75 4.75 0 0 0-3.732 3.732C3 8.283 3 8.817 3 9.655v6.095a3.75 3.75 0 1 0 1.5-3v-3c0-.965.004-1.338.062-1.634a3.25 3.25 0 0 1 2.554-2.554c.296-.058.669-.062 1.634-.062a.75.75 0 0 0 0-1.5ZM4.5 15.75a2.25 2.25 0 1 0 4.5 0 2.25 2.25 0 0 0-4.5 0ZM19 4.25h-.095c-.838 0-1.372 0-1.832.091l.147.736-.147-.736a4.75 4.75 0 0 0-3.732 3.732c-.091.46-.091.994-.091 1.832V16a3.75 3.75 0 1 0 1.5-3v-3c0-.965.004-1.338.062-1.634a3.25 3.25 0 0 1 2.554-2.554c.296-.058.669-.062 1.634-.062a.75.75 0 0 0 0-1.5ZM14.75 16a2.25 2.25 0 1 0 4.5 0 2.25 2.25 0 0 0-4.5 0Z" fill="#151E28"/></svg>