<svg viewBox="0 0 24 24" fill="none" xmlns="http://www.w3.org/2000/svg"><path fill-rule="evenodd" clip-rule="evenodd" d="M6.75 5.5a2.25 2.25 0 1 0 0 4.5 2.25 2.25 0 0 0 0-4.5ZM9 10.75v3c0 .965-.004 1.338-.062 1.634a3.25 3.25 0 0 1-2.554 2.554c-.296.058-.669.062-1.634.062a.75.75 0 0 0 0 1.5h.095c.838 0 1.372 0 1.832-.091a4.75 4.75 0 0 0 3.732-3.732c.091-.46.091-.994.091-1.832V7.75a3.75 3.75 0 1 0-1.5 3ZM14.75 8a2.25 2.25 0 1 1 4.5 0 2.25 2.25 0 0 1-4.5 0Zm4.5 3v3c0 .965-.004 1.338-.062 1.634a3.25 3.25 0 0 1-2.554 2.554c-.296.058-.669.062-1.634.062a.75.75 0 0 0 0 1.5h.095c.838 0 1.372 0 1.832-.091a4.75 4.75 0 0 0 3.732-3.732c.091-.46.091-.994.091-1.832V8a3.75 3.75 0 1 0-1.5 3Z" fill="#151E28"/></svg>