<svg viewBox="0 0 24 24" fill="none" xmlns="http://www.w3.org/2000/svg"><path fill-rule="evenodd" clip-rule="evenodd" d="M5 3.75c-.673 0-1.25.578-1.25 1.25v.898A2.225 2.225 0 0 1 6.704 8c0 1.23-.999 2.224-2.227 2.224A2.225 2.225 0 0 1 2.25 8V5c0-1.499 1.248-2.75 2.75-2.75a.75.75 0 0 1 0 1.5ZM3.75 8c0 .398.324.724.727.724A.725.725 0 0 0 5.204 8a.725.725 0 0 0-.727-.724A.725.725 0 0 0 3.75 8ZM10 3.75c-.673 0-1.25.578-1.25 1.25v.898A2.225 2.225 0 0 1 11.704 8c0 1.23-.999 2.224-2.227 2.224A2.225 2.225 0 0 1 7.25 8V5c0-1.499 1.248-2.75 2.75-2.75a.75.75 0 0 1 0 1.5ZM8.75 8c0 .398.324.724.727.724A.725.725 0 0 0 10.204 8a.725.725 0 0 0-.727-.724A.725.725 0 0 0 8.75 8Zm5.727 7.276a.725.725 0 0 0-.727.724c0 .398.324.724.727.724a.725.725 0 0 0 .727-.724.725.725 0 0 0-.727-.724Zm.727 2.826V19c0 .672-.577 1.25-1.25 1.25a.75.75 0 0 0 0 1.5c1.502 0 2.75-1.251 2.75-2.75v-3c0-1.23-.999-2.224-2.227-2.224A2.225 2.225 0 0 0 12.25 16a2.225 2.225 0 0 0 2.954 2.102Zm4.273-2.826a.725.725 0 0 0-.727.724c0 .398.324.724.727.724a.725.725 0 0 0 .727-.724.725.725 0 0 0-.727-.724Zm.727 2.826V19c0 .672-.577 1.25-1.25 1.25a.75.75 0 0 0 0 1.5c1.502 0 2.75-1.251 2.75-2.75v-3c0-1.23-.999-2.224-2.227-2.224A2.225 2.225 0 0 0 17.25 16a2.225 2.225 0 0 0 2.954 2.102Z" fill="#151E28"/></svg>