<svg viewBox="0 0 24 24" fill="none" xmlns="http://www.w3.org/2000/svg"><path fill-rule="evenodd" clip-rule="evenodd" d="M16.586 3.531 16 4l-.585-.469a.75.75 0 0 1 1.17 0ZM16 4c-.585-.469-.586-.468-.586-.468l-.002.003-.006.006-.019.025a11.605 11.605 0 0 0-.306.407 17.34 17.34 0 0 0-.72 1.071c-.261.425-.532.914-.74 1.407-.202.48-.37 1.027-.37 1.549 0 .93.318 1.659.894 2.139.552.46 1.244.611 1.855.611.612 0 1.303-.151 1.855-.611.576-.48.895-1.209.895-2.139 0-.522-.169-1.068-.371-1.549a10.606 10.606 0 0 0-.74-1.407 17.015 17.015 0 0 0-1.026-1.478l-.02-.025-.005-.006-.001-.002v-.001h-.001L16 4Zm0 1.273c-.115.17-.238.358-.361.558a9.15 9.15 0 0 0-.635 1.202c-.173.41-.254.74-.254.967 0 .57.181.841.355.986.198.165.507.264.895.264.389 0 .697-.099.895-.264.174-.145.355-.416.355-.986 0-.228-.081-.557-.254-.967a9.137 9.137 0 0 0-.635-1.202c-.123-.2-.246-.388-.36-.558Zm-8.414.258L7 6l-.586-.469a.75.75 0 0 1 1.172 0ZM7 7.273c-.115.17-.238.358-.361.558a9.138 9.138 0 0 0-.635 1.202c-.173.41-.254.74-.254.967 0 .57.181.841.355.986.198.165.507.264.895.264.389 0 .697-.099.895-.264.174-.145.355-.416.355-.986 0-.228-.081-.557-.254-.967a9.14 9.14 0 0 0-.635-1.202 15.39 15.39 0 0 0-.36-.558ZM7 6l-.586-.468-.002.003-.005.006-.02.025a10.604 10.604 0 0 0-.306.407 17.34 17.34 0 0 0-.72 1.071c-.261.425-.532.914-.74 1.407-.202.48-.37 1.027-.37 1.549 0 .93.318 1.659.894 2.139.552.46 1.244.611 1.855.611.612 0 1.303-.151 1.855-.611.576-.48.895-1.209.895-2.139 0-.522-.169-1.068-.371-1.549a10.617 10.617 0 0 0-.74-1.407 17.006 17.006 0 0 0-1.026-1.478l-.02-.025-.005-.006-.001-.002v-.001h-.001L7 6Zm5 7 .586-.469a.75.75 0 0 0-1.171 0L12 13Zm0 0 .586-.468.002.003.006.006.019.025a15.933 15.933 0 0 1 .306.407c.196.269.457.644.72 1.071.261.425.532.914.74 1.407.202.48.371 1.027.371 1.549 0 .93-.319 1.659-.895 2.139-.552.46-1.243.611-1.855.611-.611 0-1.303-.151-1.855-.611-.576-.48-.895-1.209-.895-2.139 0-.522.169-1.068.371-1.549.208-.493.479-.982.74-1.407a16.998 16.998 0 0 1 1.026-1.478l.02-.025.005-.006.002-.002v-.001L12 13Zm-.361 1.83c.123-.2.246-.387.361-.557.115.17.239.358.361.558.239.387.468.805.635 1.202.173.41.254.74.254.967 0 .57-.181.841-.355.986-.198.165-.506.264-.895.264-.388 0-.697-.099-.895-.264-.174-.145-.355-.416-.355-.986 0-.228.081-.557.254-.967.167-.397.396-.815.635-1.202Z" fill="#151E28"/></svg>