<svg viewBox="0 0 24 24" fill="none" xmlns="http://www.w3.org/2000/svg"><path fill-rule="evenodd" clip-rule="evenodd" d="M13.117 2.479a2.75 2.75 0 0 0-2.234 0c-.485.216-.844.614-1.167 1.071-.322.454-.677 1.068-1.115 1.825l-.02.033-5.45 9.413-.018.033c-.44.76-.797 1.375-1.03 1.882-.237.51-.404 1.02-.35 1.55a2.75 2.75 0 0 0 1.119 1.938c.43.313.956.424 1.515.475.556.051 1.267.051 2.145.051h10.976c.878 0 1.59 0 2.145-.051.56-.051 1.085-.162 1.515-.475a2.75 2.75 0 0 0 1.118-1.939c.055-.529-.112-1.04-.348-1.55-.234-.506-.59-1.121-1.03-1.881l-.02-.033-5.45-9.413-.019-.033c-.438-.758-.793-1.37-1.114-1.825-.324-.457-.683-.855-1.168-1.071Zm-1.625 1.37a1.25 1.25 0 0 1 1.016 0c.108.049.273.174.552.568.277.391.598.944 1.06 1.742l5.45 9.413c.464.801.785 1.357.986 1.793.204.44.23.647.218.765a1.25 1.25 0 0 1-.508.881c-.095.07-.288.15-.77.194-.479.044-1.12.045-2.046.045H6.55c-.925 0-1.567 0-2.046-.045-.482-.044-.675-.124-.77-.194a1.25 1.25 0 0 1-.508-.881c-.013-.118.014-.325.217-.765.202-.436.523-.992.987-1.793L9.88 6.16c.462-.798.783-1.35 1.06-1.742.279-.394.444-.52.552-.567Zm-2.75 12.255.002-.005.004-.027a8.049 8.049 0 0 1 .106-.525c.081-.348.212-.803.404-1.25.419-.972.962-1.547 1.63-1.547.38 0 .847.168 1.38.508.524.333 1.046.79 1.517 1.269.243.246.468.492.668.723H13a.75.75 0 0 0 0 1.5h3a.75.75 0 0 0 .75-.75v-3a.75.75 0 0 0-1.5 0v.89a16.129 16.129 0 0 0-.396-.417c-.515-.522-1.126-1.064-1.78-1.48-.643-.41-1.397-.743-2.185-.743-1.665 0-2.566 1.425-3.008 2.453a9.202 9.202 0 0 0-.488 1.5 9.511 9.511 0 0 0-.127.635l-.006.04-.002.013v.005L8 16l-.743-.103a.75.75 0 0 0 1.486.207Z" fill="#151E28"/></svg>