<svg viewBox="0 0 24 24" fill="none" xmlns="http://www.w3.org/2000/svg"><path fill-rule="evenodd" clip-rule="evenodd" d="M11.821 5.714c-.206.112-.476.29-.892.568l-7.516 5.01c-.346.231-.562.376-.711.496a.843.843 0 0 0-.134.125.25.25 0 0 0 0 .174c.01.011.042.05.134.125.149.12.365.265.711.495l7.516 5.01c.416.278.686.457.892.569.13.07.192.089.21.094a.25.25 0 0 0 .16-.086c.005-.017.024-.08.037-.226.022-.234.022-.557.022-1.058V6.99c0-.501 0-.824-.022-1.058a1.045 1.045 0 0 0-.038-.226.25.25 0 0 0-.16-.086c-.017.005-.08.024-.209.094Zm-.714-1.319c.274-.149.614-.296.998-.273.51.03.982.283 1.291.69.232.308.297.672.326.983.028.31.028.704.028 1.16v10.09c0 .456 0 .849-.028 1.16-.028.31-.094.675-.326.982a1.75 1.75 0 0 1-1.291.691c-.384.023-.724-.125-.998-.273-.275-.15-.602-.367-.981-.62l-.03-.02-7.515-5.01-.027-.018a11.55 11.55 0 0 1-.794-.558c-.215-.174-.444-.395-.574-.709l.693-.287-.693.287a1.75 1.75 0 0 1 0-1.34l.688.285-.688-.286c.13-.313.359-.535.574-.708.209-.168.483-.351.794-.559l.027-.017.416.624-.416-.624 7.516-5.01.029-.02c.38-.253.706-.471.98-.62Zm8.83 1.881-4.004 2.836a.75.75 0 1 1-.866-1.224l4.012-2.842.018-.012.029-.02c.38-.252.706-.47.98-.619.275-.149.615-.296.999-.273.51.03.982.283 1.291.69.232.308.297.672.326.983.028.31.028.704.028 1.16v10.09c0 .456 0 .849-.028 1.16-.029.31-.094.675-.326.982a1.75 1.75 0 0 1-1.291.691c-.384.023-.724-.125-.998-.273a13.875 13.875 0 0 1-.981-.62l-.03-.02-.017-.011-4.012-2.842a.75.75 0 1 1 .866-1.224l4.005 2.836c.411.274.678.45.883.562.13.07.192.089.21.094a.25.25 0 0 0 .16-.086c.005-.017.024-.08.037-.226.022-.234.022-.557.022-1.058V6.99c0-.501 0-.824-.022-1.058a1.045 1.045 0 0 0-.038-.226.25.25 0 0 0-.16-.086c-.017.005-.08.024-.209.094-.205.111-.472.288-.883.562Z" fill="#151E28"/></svg>