<svg viewBox="0 0 24 24" fill="none" xmlns="http://www.w3.org/2000/svg"><path fill-rule="evenodd" clip-rule="evenodd" d="M19.9 4.344a.672.672 0 0 0-.118-.063 1.139 1.139 0 0 0-.141-.034c-1.482-.319-4.859-.54-8.294 2.894a30.677 30.677 0 0 0-1.73 1.871l-.01.013c-.917 1.086-1.553 2.02-1.994 2.79l-.008.013-.07.125c-.705 1.266-.25 2.792.984 4.027 1.235 1.235 2.76 1.689 4.027.984 1.198-.667 2.82-1.82 4.812-3.812 3.434-3.435 3.213-6.812 2.894-8.294a1.136 1.136 0 0 0-.034-.141.663.663 0 0 0-.063-.119 1.963 1.963 0 0 0-.254-.254ZM10.287 6.08c-.382.382-.735.752-1.062 1.11-2.695-.711-5.61.294-7.25 2.591l-.96 1.344a.75.75 0 0 0 .373 1.147l4.242 1.414c.031.01.063.02.095.025.145 1.254.835 2.432 1.733 3.33.898.898 2.076 1.588 3.33 1.733a.749.749 0 0 0 .025.095l1.414 4.242a.75.75 0 0 0 1.147.374l1.344-.96c2.298-1.641 3.302-4.556 2.591-7.25.358-.328.728-.681 1.11-1.063 3.889-3.889 3.694-7.836 3.3-9.67l-.003-.013a2.35 2.35 0 0 0-.089-.326 2.152 2.152 0 0 0-.203-.404 2.44 2.44 0 0 0-.33-.394c-.1-.1-.251-.241-.394-.33a2.15 2.15 0 0 0-.404-.203 2.368 2.368 0 0 0-.326-.089l-.014-.003c-1.833-.394-5.78-.589-9.67 3.3Zm-7.092 4.573c1.121-1.57 3.022-2.37 4.9-2.154a19.704 19.704 0 0 0-1.766 2.539l-.75 1.05-2.754-.918.37-.517Zm10.651 10.651c1.57-1.121 2.37-3.022 2.154-4.9-.953.77-1.801 1.34-2.537 1.765l-1.052.751.918 2.754.517-.37Zm.33-12.749a1.25 1.25 0 1 1 1.768 1.768 1.25 1.25 0 0 1-1.768-1.768Zm2.828-1.06a2.75 2.75 0 1 0-3.889 3.889 2.75 2.75 0 0 0 3.89-3.89Z" fill="#151E28"/></svg>