<svg viewBox="0 0 24 24" fill="none" xmlns="http://www.w3.org/2000/svg"><path fill-rule="evenodd" clip-rule="evenodd" d="m18.329 3.126-.022-.022a17.823 17.823 0 0 0-.971-.93c-.291-.246-.59-.45-.95-.568a2.75 2.75 0 0 0-1.7 0c-.36.117-.66.322-.95.569-.28.236-.594.551-.972.93l-.021.02-9.617 9.617-.022.022c-.377.378-.693.693-.93.971-.246.29-.45.59-.568.95a2.75 2.75 0 0 0 0 1.7c.117.36.322.66.569.95.236.279.552.594.93.972l.02.021 2.546 2.546.022.021c.378.378.693.694.971.93.291.247.59.451.95.568a2.75 2.75 0 0 0 1.7 0c.36-.117.66-.321.95-.568.279-.236.594-.552.972-.93l.021-.021.566-.566 2.829-2.828 2.828-2.829 2.828-2.828.566-.566.022-.021c.377-.378.693-.693.93-.972.246-.29.45-.59.568-.95a2.75 2.75 0 0 0 0-1.7c-.117-.36-.322-.66-.569-.95a17.533 17.533 0 0 0-.93-.971l-.02-.022-2.546-2.545Zm1.45 7.106-3.006-3.005a.75.75 0 0 0-1.06 1.06l3.005 3.006-1.768 1.767-1.591-1.59a.75.75 0 1 0-1.06 1.06l1.59 1.591-1.768 1.768-3.005-3.005a.75.75 0 0 0-1.06 1.06l3.005 3.005-1.768 1.768-1.591-1.59a.75.75 0 1 0-1.06 1.06l1.59 1.591-.035.035a17.79 17.79 0 0 1-.903.869c-.22.186-.347.253-.443.285a1.251 1.251 0 0 1-.773 0c-.096-.032-.223-.1-.443-.285a17.79 17.79 0 0 1-.903-.869l-2.546-2.545c-.404-.405-.676-.677-.868-.903-.186-.22-.254-.347-.285-.443a1.25 1.25 0 0 1 0-.773c.031-.097.099-.223.285-.443.192-.226.464-.498.868-.903l9.617-9.617c.405-.405.677-.676.903-.868.22-.186.347-.254.443-.285a1.25 1.25 0 0 1 .773 0c.096.031.223.099.443.285.226.192.498.463.903.868l2.546 2.546c.404.405.676.677.868.903.186.22.254.346.285.443a1.25 1.25 0 0 1 0 .773c-.031.096-.099.223-.285.442-.192.227-.464.499-.868.904l-.036.035Z" fill="#151E28"/></svg>