<svg viewBox="0 0 24 24" fill="none" xmlns="http://www.w3.org/2000/svg"><path fill-rule="evenodd" clip-rule="evenodd" d="M7.75 13v6a1.25 1.25 0 1 0 2.5 0v-.08c0-.428 0-.76.063-1.05a2.75 2.75 0 0 1 2.102-2.103c.291-.063.622-.063 1.05-.063h7.399c1.041 0 1.886.845 1.886 1.887a4.16 4.16 0 0 1-4.16 4.159H9A2.75 2.75 0 0 1 6.25 19V5a1.25 1.25 0 0 0-1.235-1.25H4.99A1.25 1.25 0 0 0 3.75 5v1.545c0 .856.217 1.233.398 1.408.188.183.473.282.881.298a.75.75 0 1 1-.058 1.498c-.592-.023-1.307-.174-1.869-.72-.57-.554-.852-1.385-.852-2.484V5A2.75 2.75 0 0 1 5 2.25h9.232c.813 0 1.469 0 2 .043.546.045 1.026.14 1.47.366a3.75 3.75 0 0 1 1.64 1.639c.226.444.32.924.365 1.47.043.532.043 1.187.043 2V14.5a.75.75 0 0 1-1.5 0V7.8c0-.852 0-1.447-.038-1.91-.038-.453-.107-.714-.207-.911a2.25 2.25 0 0 0-.983-.984c-.198-.1-.459-.17-.913-.207-.462-.037-1.057-.038-1.909-.038H7.45c.192.375.3.8.3 1.25v8Zm10.84 7.25h-7.14c.192-.375.3-.8.3-1.25 0-.546.004-.7.029-.811a1.25 1.25 0 0 1 .955-.956c.112-.024.265-.029.812-.029h7.318c.213 0 .386.174.386.387a2.66 2.66 0 0 1-2.66 2.659Z" fill="#151E28"/></svg>