<svg viewBox="0 0 24 24" fill="none" xmlns="http://www.w3.org/2000/svg"><path fill-rule="evenodd" clip-rule="evenodd" d="M5.715 4.829C6.823 4.334 8.804 3.75 12 3.75s5.177.584 6.285 1.079c.605.27.965.943.965 1.825v6.806c0 .955-.149 1.822-.585 2.508-1.881 2.96-5.414 3.985-6.509 4.234a.687.687 0 0 1-.312 0c-1.095-.25-4.628-1.275-6.51-4.235-.435-.685-.584-1.552-.584-2.507V6.654c0-.882.36-1.554.965-1.825ZM12 2.25c-3.382 0-5.576.619-6.897 1.21-1.331.595-1.853 1.955-1.853 3.194v6.806c0 1.08.162 2.28.819 3.312 2.221 3.495 6.283 4.629 7.441 4.893.325.074.655.074.98 0 1.158-.264 5.22-1.398 7.441-4.893.657-1.032.82-2.232.82-3.312V6.655c0-1.24-.523-2.6-1.854-3.195-1.321-.591-3.514-1.21-6.897-1.21Zm4.03 7.78a.75.75 0 1 0-1.06-1.06L11 12.94l-1.47-1.47a.75.75 0 0 0-1.06 1.06l2 2a.75.75 0 0 0 1.06 0l4.5-4.5Z" fill="#151E28"/></svg>