<svg viewBox="0 0 24 24" fill="none" xmlns="http://www.w3.org/2000/svg"><path fill-rule="evenodd" clip-rule="evenodd" d="M2.53 1.47a.75.75 0 0 0-1.06 1.06l2.234 2.235c-.316.579-.454 1.242-.454 1.89v6.805c0 1.08.162 2.28.819 3.312 2.221 3.495 6.283 4.629 7.441 4.893.325.074.655.074.98 0 .88-.201 3.345-.883 5.46-2.654l3.52 3.52a.75.75 0 1 0 1.06-1.061l-20-20Zm14.355 16.475L4.849 5.91a2.577 2.577 0 0 0-.091.527 3 3 0 0 0-.008.218v6.806c0 .955.149 1.822.584 2.507 1.882 2.96 5.415 3.986 6.51 4.235a.688.688 0 0 0 .312 0c.785-.179 2.908-.776 4.729-2.257ZM8.145 4.09c1.02-.2 2.292-.34 3.855-.34 3.196 0 5.177.584 6.285 1.079.605.27.965.943.965 1.825v6.806c0 .48-.038.945-.134 1.377a.75.75 0 0 0 1.464.326 7.86 7.86 0 0 0 .17-1.703V6.654c0-1.239-.522-2.6-1.853-3.194-1.321-.591-3.515-1.21-6.897-1.21-1.652 0-3.022.148-4.144.368a.75.75 0 1 0 .288 1.472Z" fill="#151E28"/></svg>