<svg viewBox="0 0 24 24" fill="none" xmlns="http://www.w3.org/2000/svg"><path fill-rule="evenodd" clip-rule="evenodd" d="M1 2.75c.787 0 1.059.005 1.287.057a2.25 2.25 0 0 1 1.446 1.068c.117.202.201.461.432 1.213l2.076 6.744.045.147c.33 1.074.557 1.814 1.014 2.38.403.497.925.883 1.519 1.121.675.271 1.45.27 2.573.27h4.191c1.131 0 1.911.001 2.59-.273a3.75 3.75 0 0 0 1.522-1.133l-.585-.469.585.47c.457-.572.68-1.319 1.005-2.402l.045-.148.738-2.46.01-.034c.2-.67.366-1.22.458-1.67.095-.464.135-.913.013-1.357l-.723.198.723-.198a2.75 2.75 0 0 0-1.194-1.606c-.39-.244-.832-.335-1.303-.377-.46-.041-1.034-.041-1.733-.041H5.5a.75.75 0 0 0-.023 0c-.147-.47-.27-.82-.445-1.125a3.75 3.75 0 0 0-2.41-1.78c-.415-.095-.87-.095-1.532-.095H1a.75.75 0 0 0 0 1.5Zm6.674 8.641L5.94 5.75H17.7c.743 0 1.25 0 1.634.035.38.034.545.095.642.155.266.167.46.427.543.73.03.11.04.286-.036.659-.078.378-.223.864-.436 1.575l-.738 2.46c-.387 1.29-.533 1.729-.784 2.042a2.25 2.25 0 0 1-.914.68c-.372.15-.834.164-2.181.164h-3.884c-1.338 0-1.797-.013-2.167-.162a2.25 2.25 0 0 1-.912-.673c-.25-.31-.398-.745-.792-2.024ZM10 18.75a1.25 1.25 0 1 0 0 2.5 1.25 1.25 0 0 0 0-2.5ZM7.25 20a2.75 2.75 0 1 1 5.5 0 2.75 2.75 0 0 1-5.5 0ZM18 18.75a1.25 1.25 0 1 0 0 2.5 1.25 1.25 0 0 0 0-2.5ZM15.25 20a2.75 2.75 0 1 1 5.5 0 2.75 2.75 0 0 1-5.5 0Z" fill="#151E28"/></svg>