<svg viewBox="0 0 24 24" fill="none" xmlns="http://www.w3.org/2000/svg"><path fill-rule="evenodd" clip-rule="evenodd" d="M2.75 5a.75.75 0 0 0-1.5 0v14a.75.75 0 0 0 1.5 0v-5.25h18.5V19a.75.75 0 0 0 1.5 0v-6.027c0-.91 0-1.63-.04-2.213-.04-.596-.125-1.104-.322-1.578a4.75 4.75 0 0 0-2.57-2.57c-.474-.197-.982-.282-1.578-.322-.584-.04-1.304-.04-2.213-.04h-.857c-.535 0-.98 0-1.345.03-.38.03-.736.098-1.073.27a2.75 2.75 0 0 0-1.202 1.202c-.172.337-.24.693-.27 1.073-.03.365-.03.81-.03 1.345v2.08h-8.5V5ZM7 6.75a1.25 1.25 0 1 0 0 2.5 1.25 1.25 0 0 0 0-2.5ZM4.25 8a2.75 2.75 0 1 1 5.5 0 2.75 2.75 0 0 1-5.5 0Zm16.964 2.862c.025.375.033.822.035 1.388H12.75V10.2c0-.572 0-.957.025-1.253.023-.287.065-.424.111-.514a1.25 1.25 0 0 1 .546-.547c.091-.046.228-.088.515-.111.296-.024.68-.025 1.253-.025h.8c.942 0 1.611 0 2.138.036.52.036.845.103 1.106.211a3.25 3.25 0 0 1 1.759 1.76c.108.26.175.586.21 1.105Z" fill="#151E28"/></svg>