<svg viewBox="0 0 24 24" fill="none" xmlns="http://www.w3.org/2000/svg"><path fill-rule="evenodd" clip-rule="evenodd" d="M9.75 6.5A3.25 3.25 0 0 0 6.5 3.25h-1A3.25 3.25 0 0 0 2.25 6.5v1a3.25 3.25 0 0 0 3.25 3.25h1A3.25 3.25 0 0 0 9.75 7.5v-1ZM6.5 4.75c.966 0 1.75.784 1.75 1.75v1A1.75 1.75 0 0 1 6.5 9.25h-1A1.75 1.75 0 0 1 3.75 7.5v-1c0-.966.784-1.75 1.75-1.75h1ZM21 6.25a.75.75 0 0 1 0 1.5h-8a.75.75 0 0 1 0-1.5h8Zm-10 10a.75.75 0 0 1 0 1.5H3a.75.75 0 0 1 0-1.5h8Zm7.5-3a3.25 3.25 0 0 1 3.25 3.25v1a3.25 3.25 0 0 1-3.25 3.25h-1a3.25 3.25 0 0 1-3.25-3.25v-1a3.25 3.25 0 0 1 3.25-3.25h1Zm1.75 3.25a1.75 1.75 0 0 0-1.75-1.75h-1a1.75 1.75 0 0 0-1.75 1.75v1c0 .966.784 1.75 1.75 1.75h1a1.75 1.75 0 0 0 1.75-1.75v-1Z" fill="#151E28"/></svg>