<svg viewBox="0 0 24 24" fill="none" xmlns="http://www.w3.org/2000/svg"><path fill-rule="evenodd" clip-rule="evenodd" d="M13.75 2.25a2.5 2.5 0 0 0-2.5 2.5v.5a2.5 2.5 0 0 0 2.5 2.5h.5a2.5 2.5 0 0 0 2.5-2.5v-.5a2.5 2.5 0 0 0-2.5-2.5h-.5Zm-1 2.5a1 1 0 0 1 1-1h.5a1 1 0 0 1 1 1v.5a1 1 0 0 1-1 1h-.5a1 1 0 0 1-1-1v-.5ZM2.25 5A.75.75 0 0 1 3 4.25h6a.75.75 0 0 1 0 1.5H3A.75.75 0 0 1 2.25 5Zm16 0a.75.75 0 0 1 .75-.75h2a.75.75 0 0 1 0 1.5h-2a.75.75 0 0 1-.75-.75ZM3 11.25a.75.75 0 0 0 0 1.5h1a.75.75 0 0 0 0-1.5H3Zm10.25.75a.75.75 0 0 1 .75-.75h7a.75.75 0 0 1 0 1.5h-7a.75.75 0 0 1-.75-.75ZM3 18.25a.75.75 0 0 0 0 1.5h6a.75.75 0 0 0 0-1.5H3Zm15.25.75a.75.75 0 0 1 .75-.75h2a.75.75 0 0 1 0 1.5h-2a.75.75 0 0 1-.75-.75Zm-12-7.25a2.5 2.5 0 0 1 2.5-2.5h.5a2.5 2.5 0 0 1 2.5 2.5v.5a2.5 2.5 0 0 1-2.5 2.5h-.5a2.5 2.5 0 0 1-2.5-2.5v-.5Zm2.5-1a1 1 0 0 0-1 1v.5a1 1 0 0 0 1 1h.5a1 1 0 0 0 1-1v-.5a1 1 0 0 0-1-1h-.5Zm5 5.5a2.5 2.5 0 0 0-2.5 2.5v.5a2.5 2.5 0 0 0 2.5 2.5h.5a2.5 2.5 0 0 0 2.5-2.5v-.5a2.5 2.5 0 0 0-2.5-2.5h-.5Zm-1 2.5a1 1 0 0 1 1-1h.5a1 1 0 0 1 1 1v.5a1 1 0 0 1-1 1h-.5a1 1 0 0 1-1-1v-.5Z" fill="#151E28"/></svg>