<svg viewBox="0 0 24 24" fill="none" xmlns="http://www.w3.org/2000/svg"><path fill-rule="evenodd" clip-rule="evenodd" d="M6.5 9.75A3.25 3.25 0 0 1 3.25 6.5v-1A3.25 3.25 0 0 1 6.5 2.25h1a3.25 3.25 0 0 1 3.25 3.25v1A3.25 3.25 0 0 1 7.5 9.75h-1ZM4.75 6.5c0 .966.784 1.75 1.75 1.75h1A1.75 1.75 0 0 0 9.25 6.5v-1A1.75 1.75 0 0 0 7.5 3.75h-1A1.75 1.75 0 0 0 4.75 5.5v1Zm11.5 4.5a.75.75 0 0 0 1.5 0V3a.75.75 0 0 0-1.5 0v8Zm-10 10a.75.75 0 0 0 1.5 0v-8a.75.75 0 0 0-1.5 0v8Zm7-2.5a3.25 3.25 0 0 0 3.25 3.25h1a3.25 3.25 0 0 0 3.25-3.25v-1a3.25 3.25 0 0 0-3.25-3.25h-1a3.25 3.25 0 0 0-3.25 3.25v1Zm3.25 1.75a1.75 1.75 0 0 1-1.75-1.75v-1c0-.966.784-1.75 1.75-1.75h1c.966 0 1.75.784 1.75 1.75v1a1.75 1.75 0 0 1-1.75 1.75h-1Z" fill="#151E28"/></svg>