<svg viewBox="0 0 24 24" fill="none" xmlns="http://www.w3.org/2000/svg"><path fill-rule="evenodd" clip-rule="evenodd" d="M5.75 3a.75.75 0 0 0-1.5 0v6a.75.75 0 1 0 1.5 0V3Zm7 0a.75.75 0 0 0-1.5 0v1a.75.75 0 0 0 1.5 0V3ZM19 2.25a.75.75 0 0 1 .75.75v6a.75.75 0 0 1-1.5 0V3a.75.75 0 0 1 .75-.75Zm0 16a.75.75 0 0 1 .75.75v2a.75.75 0 0 1-1.5 0v-2a.75.75 0 0 1 .75-.75Zm-7-5a.75.75 0 0 1 .75.75v7a.75.75 0 0 1-1.5 0v-7a.75.75 0 0 1 .75-.75Zm-7 5a.75.75 0 0 1 .75.75v2a.75.75 0 0 1-1.5 0v-2a.75.75 0 0 1 .75-.75Zm16.75-4.5a2.5 2.5 0 0 0-2.5-2.5h-.5a2.5 2.5 0 0 0-2.5 2.5v.5a2.5 2.5 0 0 0 2.5 2.5h.5a2.5 2.5 0 0 0 2.5-2.5v-.5Zm-2.5-1a1 1 0 0 1 1 1v.5a1 1 0 0 1-1 1h-.5a1 1 0 0 1-1-1v-.5a1 1 0 0 1 1-1h.5Zm-7-6.5a2.5 2.5 0 0 1 2.5 2.5v.5a2.5 2.5 0 0 1-2.5 2.5h-.5a2.5 2.5 0 0 1-2.5-2.5v-.5a2.5 2.5 0 0 1 2.5-2.5h.5Zm1 2.5a1 1 0 0 0-1-1h-.5a1 1 0 0 0-1 1v.5a1 1 0 0 0 1 1h.5a1 1 0 0 0 1-1v-.5Zm-5.5 5a2.5 2.5 0 0 0-2.5-2.5h-.5a2.5 2.5 0 0 0-2.5 2.5v.5a2.5 2.5 0 0 0 2.5 2.5h.5a2.5 2.5 0 0 0 2.5-2.5v-.5Zm-2.5-1a1 1 0 0 1 1 1v.5a1 1 0 0 1-1 1h-.5a1 1 0 0 1-1-1v-.5a1 1 0 0 1 1-1h.5Z" fill="#151E28"/></svg>