<svg viewBox="0 0 24 24" fill="none" xmlns="http://www.w3.org/2000/svg"><path fill-rule="evenodd" clip-rule="evenodd" d="M14.25 5a2.75 2.75 0 0 1 5.5-.005V8a2.75 2.75 0 0 1-5.132 1.376.75.75 0 1 1 1.299-.752A1.25 1.25 0 0 0 18.25 8v-.55a2.75 2.75 0 0 1-4-2.45ZM17 3.75a1.25 1.25 0 1 0 0 2.5 1.25 1.25 0 0 0 0-2.5ZM7.75 6a.75.75 0 1 0-1.5 0v10.19l-1.72-1.72a.75.75 0 1 0-1.06 1.06l3 3a.75.75 0 0 0 1.06 0l3-3a.75.75 0 0 0-1.06-1.06l-1.72 1.72V6Zm10 7a.75.75 0 0 0-1.28-.53l-2 2a.75.75 0 1 0 1.06 1.06l.72-.72v4.44H15a.75.75 0 0 0 0 1.5h4a.75.75 0 0 0 0-1.5h-1.25V13Z" fill="#151E28"/></svg>