<svg viewBox="0 0 24 24" fill="none" xmlns="http://www.w3.org/2000/svg"><path fill-rule="evenodd" clip-rule="evenodd" d="M17 3.75c-.69 0-1.25.56-1.25 1.25v.667c0 .161 0 .258.004.33a.666.666 0 0 0 .005.07.25.25 0 0 0 .174.174l.07.006c.072.003.169.003.33.003h1.334c.161 0 .258 0 .33-.003a.655.655 0 0 0 .07-.006.25.25 0 0 0 .174-.176c-.002.01.002 0 .006-.068a8.22 8.22 0 0 0 .003-.33V5c0-.69-.56-1.25-1.25-1.25ZM14.25 5a2.75 2.75 0 1 1 5.5 0v.731l-.001.225.001.044v3a.75.75 0 0 1-1.5 0V7.73a4.1 4.1 0 0 1-.52.02h-1.46c-.172 0-.35 0-.519-.02V9a.75.75 0 0 1-1.5 0V6l.001-.044-.001-.225V5Zm-6.5 1a.75.75 0 0 0-1.5 0v10.19l-1.72-1.72a.75.75 0 0 0-1.06 1.06l3 3a.75.75 0 0 0 1.06 0l3-3a.75.75 0 1 0-1.06-1.06l-1.72 1.72V6ZM15 12.25a.75.75 0 0 0 0 1.5h2.599l-3.223 4.834A.75.75 0 0 0 15 19.75h4a.75.75 0 0 0 0-1.5h-2.599l3.223-4.834A.75.75 0 0 0 19 12.25h-4Z" fill="#151E28"/></svg>