<svg viewBox="0 0 24 24" fill="none" xmlns="http://www.w3.org/2000/svg"><path fill-rule="evenodd" clip-rule="evenodd" d="M9.31 5.101a2.25 2.25 0 0 1 2.693 1.116c.088.173.166.5.207 1.175.04.658.04 1.54.04 2.76v3.696c0 1.22 0 2.102-.04 2.76-.04.676-.119 1.003-.207 1.175A2.25 2.25 0 0 1 9.309 18.9c-.184-.06-.47-.235-.977-.684-.494-.438-1.117-1.06-1.98-1.924l-.2-.2-.005-.005-.078-.076a2.75 2.75 0 0 0-1.832-.76h-.116l-.18-.001a1.25 1.25 0 0 1-1.19-1.19 4.69 4.69 0 0 1-.001-.18v-3.76l.001-.18a1.25 1.25 0 0 1 1.19-1.19h.188c.042 0 .075 0 .108-.002A2.75 2.75 0 0 0 6.07 7.99c.024-.022.048-.046.077-.076l.006-.005.2-.2c.863-.863 1.486-1.486 1.98-1.924.506-.449.793-.624.977-.684Zm4.028.432a3.75 3.75 0 0 0-4.49-1.86c-.504.164-.99.527-1.511.99C6.805 5.134 6.15 5.79 5.31 6.63l-.02.02-.199.2a1.25 1.25 0 0 1-.97.402h-.017a2.75 2.75 0 0 0-2.85 2.619c-.004.065-.004.138-.004.234v3.792a2.75 2.75 0 0 0 2.854 2.854H4.2a1.25 1.25 0 0 1 .89.4l.2.2.019.02c.84.84 1.495 1.495 2.027 1.966.521.463 1.007.827 1.512.99a3.75 3.75 0 0 0 4.489-1.86c.241-.472.328-1.073.37-1.769.042-.709.042-1.635.042-2.823v-3.749c0-1.189 0-2.115-.043-2.824-.041-.696-.128-1.297-.37-1.769ZM17.53 9.47a.75.75 0 1 0-1.06 1.06l1.97 1.97-1.97 1.97a.75.75 0 1 0 1.06 1.06l1.97-1.97 1.97 1.97a.75.75 0 1 0 1.06-1.06l-1.97-1.97 1.97-1.97a.75.75 0 0 0-1.06-1.06l-1.97 1.97-1.97-1.97Z" fill="#151E28"/></svg>