<svg viewBox="0 0 24 24" fill="none" xmlns="http://www.w3.org/2000/svg"><path fill-rule="evenodd" clip-rule="evenodd" d="M2.53 1.47a.75.75 0 0 0-1.06 1.06l5.112 5.113A2.75 2.75 0 0 0 5.253 9.87c-.003.066-.003.14-.003.235v3.791a2.75 2.75 0 0 0 2.854 2.854l.017-.001h.08c.311.008.608.13.833.345l.057.057.516-.516-.516.516.2.2.019.019c.84.84 1.495 1.495 2.026 1.966.522.463 1.008.826 1.513.99a3.75 3.75 0 0 0 4.511-1.906l4.11 4.11a.75.75 0 1 0 1.06-1.061l-20-20Zm13.623 15.743L8.568 9.63l-.847-.848a1.25 1.25 0 0 0-.97 1.16 4.67 4.67 0 0 0-.001.18v3.758l.001.18a1.25 1.25 0 0 0 1.19 1.19l.18.001h.116l.042.002a2.75 2.75 0 0 1 1.868.834l.005.005.2.2c.863.863 1.486 1.486 1.98 1.924.506.449.793.624.977.684a2.25 2.25 0 0 0 2.694-1.116c.054-.105.107-.277.15-.57ZM13.309 5.101a2.25 2.25 0 0 1 2.694 1.116c.088.172.166.5.207 1.175.04.658.04 1.54.04 2.76V13a.75.75 0 0 0 1.5 0v-2.875c0-1.188 0-2.114-.043-2.823-.041-.696-.128-1.297-.37-1.769a3.75 3.75 0 0 0-4.488-1.86c-.381.124-.741.357-1.104.645a17.74 17.74 0 0 0-1.269 1.154.75.75 0 0 0 1.048 1.073c.482-.47.852-.812 1.155-1.053.308-.245.502-.35.63-.39Z" fill="#151E28"/></svg>