<svg viewBox="0 0 24 24" fill="none" xmlns="http://www.w3.org/2000/svg"><path fill-rule="evenodd" clip-rule="evenodd" d="M10 .25a.75.75 0 0 0 0 1.5h4a.75.75 0 0 0 0-1.5h-4Zm11.03 4.78a.75.75 0 1 0-1.06-1.06l-1.626 1.626A9.712 9.712 0 0 0 12 3.25c-5.385 0-9.75 4.365-9.75 9.75s4.365 9.75 9.75 9.75 9.75-4.365 9.75-9.75a9.712 9.712 0 0 0-2.346-6.344L21.03 5.03ZM12 4.75a8.25 8.25 0 1 0 0 16.5 8.25 8.25 0 0 0 0-16.5Zm0 4.5a.75.75 0 0 1 .75.75v4a.75.75 0 0 1-1.5 0v-4a.75.75 0 0 1 .75-.75Z" fill="#151E28"/></svg>