<svg viewBox="0 0 24 24" fill="none" xmlns="http://www.w3.org/2000/svg"><path fill-rule="evenodd" clip-rule="evenodd" d="M9.25 1A.75.75 0 0 1 10 .25h4a.75.75 0 0 1 0 1.5h-4A.75.75 0 0 1 9.25 1Zm11.78 2.97a.75.75 0 0 1 0 1.06l-1.626 1.626A9.712 9.712 0 0 1 21.75 13c0 1.124-.19 2.206-.542 3.212a.75.75 0 1 1-1.416-.493c.296-.85.458-1.765.458-2.719A8.25 8.25 0 0 0 9.282 5.208a.75.75 0 1 1-.495-1.416A9.737 9.737 0 0 1 12 3.25a9.71 9.71 0 0 1 6.344 2.346l1.625-1.626a.75.75 0 0 1 1.061 0ZM5.075 6.136 1.47 2.53a.75.75 0 0 1 1.06-1.06l20 20a.75.75 0 1 1-1.06 1.06l-2.606-2.606A9.721 9.721 0 0 1 12 22.75 9.75 9.75 0 0 1 2.25 13a9.721 9.721 0 0 1 2.825-6.864Zm12.728 12.728L12.75 13.81V14a.75.75 0 0 1-1.5 0v-1.69L6.136 7.198a8.25 8.25 0 0 0 11.667 11.667Z" fill="#151E28"/></svg>