<svg viewBox="0 0 24 24" fill="none" xmlns="http://www.w3.org/2000/svg"><path fill-rule="evenodd" clip-rule="evenodd" d="M2.75 12a9.25 9.25 0 1 1 18.5 0 9.25 9.25 0 0 1-18.5 0ZM12 1.25C6.063 1.25 1.25 6.063 1.25 12S6.063 22.75 12 22.75 22.75 17.937 22.75 12 17.937 1.25 12 1.25Zm-.3 6.5h-.03c-.535 0-.98 0-1.345.03-.38.03-.736.098-1.073.27A2.75 2.75 0 0 0 8.05 9.252c-.172.337-.24.693-.27 1.073-.03.365-.03.81-.03 1.345v.66c0 .535 0 .98.03 1.345.03.38.098.736.27 1.073a2.75 2.75 0 0 0 1.202 1.202c.337.172.693.24 1.073.27.365.03.81.03 1.345.03h.66c.535 0 .98 0 1.345-.03.38-.03.736-.098 1.073-.27a2.751 2.751 0 0 0 1.202-1.201c.172-.338.24-.694.27-1.074.03-.365.03-.81.03-1.345v-.66c0-.535 0-.98-.03-1.345-.03-.38-.098-.736-.27-1.073a2.75 2.75 0 0 0-1.2-1.202c-.338-.172-.694-.24-1.074-.27-.365-.03-.81-.03-1.345-.03h-.63ZM9.933 9.386c.09-.046.227-.088.514-.111.296-.024.68-.025 1.253-.025h.6c.572 0 .957 0 1.252.025.288.023.425.065.516.111.235.12.426.311.546.547.046.09.088.227.111.514.024.296.025.68.025 1.253v.6c0 .572 0 .957-.025 1.252-.023.288-.065.425-.111.516a1.25 1.25 0 0 1-.546.546c-.091.046-.228.088-.515.111-.296.024-.68.025-1.253.025h-.6c-.572 0-.957 0-1.252-.025-.288-.023-.425-.065-.515-.111a1.25 1.25 0 0 1-.547-.546c-.046-.091-.088-.228-.111-.515-.024-.296-.025-.68-.025-1.253v-.6c0-.572 0-.957.025-1.252.023-.288.065-.425.111-.515a1.25 1.25 0 0 1 .547-.547Z" fill="#151E28"/></svg>