<svg viewBox="0 0 24 24" fill="none" xmlns="http://www.w3.org/2000/svg"><path fill-rule="evenodd" clip-rule="evenodd" d="M15.175 2.045a.75.75 0 0 0-.707.023l-.397.23c-1.962 1.132-2.176 3.416-1.49 5.25a.75.75 0 1 0 1.405-.527c-.545-1.454-.244-2.802.835-3.424l.027-.016c.235.152.405.312.52.478.156.224.247.501.222.89a.75.75 0 1 0 1.497.096c.045-.701-.123-1.321-.488-1.844-.355-.51-.863-.878-1.424-1.156Zm7.073 8.703a.75.75 0 0 1-.205.677l-.324.324c-1.601 1.602-3.864 1.218-5.456.08a.75.75 0 0 1 .872-1.22c1.263.902 2.643.96 3.523.08l.023-.023a1.84 1.84 0 0 0-.328-.627c-.175-.208-.42-.367-.801-.443a.75.75 0 0 1 .294-1.47c.689.137 1.244.46 1.655.947.4.475.625 1.062.747 1.675Zm-5.645-1.926a5.144 5.144 0 0 1 3.617-1.275.75.75 0 1 0 .065-1.499 6.644 6.644 0 0 0-4.672 1.648l-.93.817a.75.75 0 0 0 .99 1.126l.93-.817Zm-2.796 4.084a11.975 11.975 0 0 0-2.838-2.838c-2.533-1.809-6.18-.52-7.305 2.522-.82 2.218-1.056 4-.98 5.319.076 1.34.466 2.132.808 2.474.342.342 1.134.732 2.474.809 1.319.075 3.1-.16 5.318-.981 3.042-1.125 4.332-4.772 2.523-7.305Zm-1.967-4.06a13.472 13.472 0 0 1 3.188 3.188c2.458 3.443.621 8.162-3.223 9.584-2.37.876-4.36 1.16-5.925 1.071-1.544-.088-2.75-.547-3.448-1.245-.699-.699-1.158-1.905-1.246-3.45-.09-1.565.195-3.555 1.071-5.924C3.68 8.225 8.398 6.39 11.84 8.847ZM7 13a1 1 0 1 0 0-2 1 1 0 0 0 0 2Zm0 5a1 1 0 1 1-2 0 1 1 0 0 1 2 0Zm5-1a1 1 0 1 0 0-2 1 1 0 0 0 0 2Z" fill="#151E28"/></svg>