<svg viewBox="0 0 24 24" fill="none" xmlns="http://www.w3.org/2000/svg"><path fill-rule="evenodd" clip-rule="evenodd" d="M6.2 2.25h-.03c-.535 0-.98 0-1.345.03-.38.03-.736.098-1.073.27A2.75 2.75 0 0 0 2.55 3.752c-.172.337-.24.693-.27 1.073-.03.365-.03.81-.03 1.345V17a4.75 4.75 0 0 0 4.748 4.75H17.83c.535 0 .98 0 1.345-.03.38-.03.736-.098 1.073-.27a2.751 2.751 0 0 0 1.202-1.201c.172-.338.24-.694.27-1.074.03-.365.03-.81.03-1.345v-1.66c0-.535 0-.98-.03-1.345-.03-.38-.098-.736-.27-1.073a2.751 2.751 0 0 0-1.201-1.202.75.75 0 0 0-.681 1.336c.235.12.426.311.546.546.046.091.088.228.111.515.024.296.025.68.025 1.253v1.6c0 .572 0 .957-.025 1.252-.023.288-.065.425-.111.515a1.25 1.25 0 0 1-.547.547c-.09.046-.227.088-.515.111-.295.024-.68.025-1.252.025h-6.99l8.957-8.957.022-.021c.378-.378.693-.693.93-.972.246-.29.45-.59.568-.95a2.75 2.75 0 0 0 0-1.7c-.117-.36-.322-.66-.569-.95a17.811 17.811 0 0 0-.929-.971l-.022-.022-.974-.975-.022-.021a17.822 17.822 0 0 0-.972-.93c-.29-.246-.59-.451-.95-.568a2.75 2.75 0 0 0-1.7 0c-.36.117-.659.322-.95.569-.278.236-.593.551-.971.93l-.022.02-.736.738a.75.75 0 0 0 1.06 1.06l.737-.737c.405-.404.677-.676.903-.868.22-.186.347-.254.443-.285a1.25 1.25 0 0 1 .773 0c.097.031.223.099.443.285.226.192.498.463.903.868l.975.975c.404.404.676.676.868.903.186.22.254.346.285.443a1.25 1.25 0 0 1 0 .772c-.031.097-.098.224-.285.443-.192.227-.463.499-.868.903l-6.96 6.961c.002-.064.003-.128.003-.193V6.17c0-.535 0-.98-.03-1.345-.03-.38-.098-.736-.27-1.073a2.75 2.75 0 0 0-1.2-1.202c-.338-.172-.694-.24-1.074-.27-.365-.03-.81-.03-1.345-.03H6.2Zm.8 18A3.25 3.25 0 0 0 10.25 17V6.2c0-.572 0-.957-.025-1.253-.023-.287-.065-.424-.111-.514a1.25 1.25 0 0 0-.547-.547c-.09-.046-.227-.088-.514-.111-.296-.024-.68-.025-1.253-.025H6.2c-.572 0-.957 0-1.253.025-.287.023-.424.065-.514.111a1.25 1.25 0 0 0-.547.547c-.046.09-.088.227-.111.514-.024.296-.025.68-.025 1.253V17A3.25 3.25 0 0 0 7 20.25ZM7 18a1 1 0 1 0 0-2 1 1 0 0 0 0 2Z" fill="#151E28"/></svg>