<svg viewBox="0 0 24 24" fill="none" xmlns="http://www.w3.org/2000/svg"><path fill-rule="evenodd" clip-rule="evenodd" d="M8.988 5.25h-.085c-.652 0-1.103 0-1.536.104a3.75 3.75 0 0 0-1.084.449c-.38.232-.698.551-1.159 1.012l-.06.06-1.2 1.2-.023.023c-.575.575-1.038 1.039-1.383 1.445-.355.418-.628.824-.782 1.298a3.75 3.75 0 0 0 0 2.318c.154.474.427.88.782 1.298.345.406.808.87 1.383 1.445l.023.023 1.2 1.2.06.06c.46.46.78.78 1.16 1.012.335.206.7.358 1.083.45.433.103.884.103 1.536.103h7.329c.813 0 1.469 0 2-.043.546-.045 1.026-.14 1.47-.366a3.75 3.75 0 0 0 1.64-1.639c.226-.444.32-.924.365-1.47.043-.531.043-1.187.043-2V9.17c0-.535 0-.98-.03-1.345-.03-.38-.098-.736-.27-1.073a2.75 2.75 0 0 0-1.2-1.202c-.338-.172-.694-.24-1.074-.27-.365-.03-.81-.03-1.345-.03H8.988Zm-1.27 1.562c.238-.057.5-.062 1.27-.062H17.8c.572 0 .957 0 1.252.025.288.023.425.065.515.111.236.12.427.311.547.547.046.09.088.227.111.514.024.296.025.68.025 1.253v4c0 .853 0 1.447-.038 1.91-.038.453-.107.714-.207.912-.216.423-.56.767-.983.983-.198.1-.459.17-.913.207-.462.037-1.057.038-1.909.038H8.988c-.77 0-1.032-.005-1.27-.062a2.25 2.25 0 0 1-.651-.27c-.21-.128-.398-.31-.943-.854l-1.2-1.2c-.602-.603-1.022-1.024-1.323-1.377-.294-.348-.43-.58-.498-.792a2.25 2.25 0 0 1 0-1.39c.068-.211.204-.444.498-.792.3-.354.72-.774 1.323-1.377l1.2-1.2c.545-.544.734-.726.943-.854a2.25 2.25 0 0 1 .65-.27ZM8.75 12a1.25 1.25 0 1 1 2.5 0 1.25 1.25 0 0 1-2.5 0ZM10 9.25a2.75 2.75 0 1 0 0 5.5 2.75 2.75 0 0 0 0-5.5Z" fill="#151E28"/></svg>