<svg viewBox="0 0 24 24" fill="none" xmlns="http://www.w3.org/2000/svg"><path fill-rule="evenodd" clip-rule="evenodd" d="M20 3.25a.75.75 0 0 1 0 1.5H4a.75.75 0 0 1 0-1.5h16ZM20.75 14a.75.75 0 0 0-.75-.75H10a.75.75 0 0 0 0 1.5h10a.75.75 0 0 0 .75-.75Zm0 5a.75.75 0 0 0-.75-.75H4a.75.75 0 0 0 0 1.5h16a.75.75 0 0 0 .75-.75Zm0-10a.75.75 0 0 0-.75-.75H10a.75.75 0 0 0 0 1.5h10a.75.75 0 0 0 .75-.75Zm-17.28.53a.75.75 0 0 1 1.06-1.06l2.5 2.5a.75.75 0 0 1 0 1.06l-2.5 2.5a.75.75 0 0 1-1.06-1.06l1.97-1.97-1.97-1.97Z" fill="#151E28"/></svg>