<svg viewBox="0 0 24 24" fill="none" xmlns="http://www.w3.org/2000/svg"><path fill-rule="evenodd" clip-rule="evenodd" d="M5.75 4.25h-.087c-.613 0-1.031 0-1.395.072a3.75 3.75 0 0 0-2.946 2.946c-.072.364-.072.782-.072 1.395V9c0 .966.784 1.75 1.75 1.75a1.25 1.25 0 1 1 0 2.5A1.75 1.75 0 0 0 1.25 15v.337c0 .613 0 1.031.072 1.395a3.75 3.75 0 0 0 2.946 2.946c.364.072.782.072 1.395.072h12.674c.613 0 1.031 0 1.395-.072a3.75 3.75 0 0 0 2.946-2.946c.072-.364.072-.782.072-1.395V15A1.75 1.75 0 0 0 21 13.25a1.25 1.25 0 1 1 0-2.5A1.75 1.75 0 0 0 22.75 9v-.337c0-.613 0-1.031-.072-1.395a3.75 3.75 0 0 0-2.946-2.946c-.364-.072-.782-.072-1.395-.072H5.75Zm8.5 1.5V7.5a.75.75 0 0 0 1.5 0V5.75h2.5c.733 0 .99.004 1.189.043a2.25 2.25 0 0 1 1.768 1.768c.04.2.043.456.043 1.189V9a.25.25 0 0 1-.25.25 2.75 2.75 0 1 0 0 5.5.25.25 0 0 1 .25.25v.25c0 .733-.004.99-.043 1.189a2.25 2.25 0 0 1-1.768 1.768c-.2.04-.456.043-1.189.043h-2.5V16.5a.75.75 0 0 0-1.5 0v1.75h-8.5c-.733 0-.99-.004-1.189-.043a2.25 2.25 0 0 1-1.768-1.768c-.04-.2-.043-.456-.043-1.189V15a.25.25 0 0 1 .25-.25 2.75 2.75 0 1 0 0-5.5.25.25 0 0 1-.25-.25v-.25c0-.733.004-.99.043-1.189a2.25 2.25 0 0 1 1.768-1.768c.2-.04.456-.043 1.189-.043h8.5Zm1.5 5.25a.75.75 0 0 0-1.5 0v2a.75.75 0 0 0 1.5 0v-2Z" fill="#151E28"/></svg>