<svg viewBox="0 0 24 24" fill="none" xmlns="http://www.w3.org/2000/svg"><path fill-rule="evenodd" clip-rule="evenodd" d="M3.75 8.5c0-.806.673-1.737 2.221-2.511C7.476 5.237 9.606 4.75 12 4.75s4.524.487 6.029 1.239c1.549.774 2.221 1.705 2.221 2.511s-.672 1.737-2.221 2.511c-1.505.752-3.635 1.239-6.029 1.239s-4.524-.487-6.029-1.239C4.423 10.237 3.75 9.306 3.75 8.5ZM12 3.25c-2.576 0-4.946.52-6.7 1.397C3.593 5.501 2.25 6.82 2.25 8.5c0 1.68 1.342 2.999 3.05 3.853 1.754.876 4.124 1.397 6.7 1.397 2.576 0 4.946-.52 6.7-1.397 1.708-.854 3.05-2.173 3.05-3.853 0-1.68-1.342-2.999-3.05-3.853-1.754-.876-4.123-1.397-6.7-1.397Zm-6 10a.75.75 0 0 1 .75.75c0 .391.337.947 1.343 1.45.961.481 2.341.8 3.907.8 1.566 0 2.946-.319 3.907-.8 1.006-.502 1.343-1.059 1.343-1.45a.75.75 0 0 1 1.5 0c0 1.265-1.006 2.21-2.172 2.792-1.21.605-2.83.958-4.578.958-1.748 0-3.368-.353-4.578-.958C6.256 16.21 5.25 15.265 5.25 14a.75.75 0 0 1 .75-.75Zm4.746 5.673A.75.75 0 0 0 9.25 19c0 .713.559 1.157 1 1.378.487.243 1.107.372 1.75.372s1.263-.129 1.75-.372c.441-.22 1-.665 1-1.378a.75.75 0 0 0-1.496-.077.712.712 0 0 1-.175.113c-.238.119-.618.214-1.079.214-.461 0-.841-.095-1.079-.214a.712.712 0 0 1-.175-.113Zm2.525-.02s0 .002-.005.007l.005-.008Zm-2.538.007-.005-.008.005.008Z" fill="#151E28"/></svg>