<svg viewBox="0 0 24 24" fill="none" xmlns="http://www.w3.org/2000/svg"><path fill-rule="evenodd" clip-rule="evenodd" d="M4.25 8A4.75 4.75 0 0 1 9 3.25h6A4.75 4.75 0 0 1 19.75 8v6a4.752 4.752 0 0 1-3.466 4.574l1.34 2.01a.75.75 0 1 1-1.248.832l-1.777-2.666H9.4l-1.777 2.666a.75.75 0 1 1-1.248-.832l1.34-2.01A4.752 4.752 0 0 1 4.25 14V8Zm10.738 9.25H9.012Zm.021 0A3.25 3.25 0 0 0 18.25 14v-1.25H5.75V14a3.25 3.25 0 0 0 3.24 3.25M18.25 8v3.25H5.75V8A3.25 3.25 0 0 1 9 4.75h6A3.25 3.25 0 0 1 18.25 8Zm-8.5 6.5a.75.75 0 0 0-1.5 0v1a.75.75 0 0 0 1.5 0v-1Zm5.25-.75a.75.75 0 0 1 .75.75v1a.75.75 0 0 1-1.5 0v-1a.75.75 0 0 1 .75-.75Z" fill="#151E28"/></svg>