<svg viewBox="0 0 24 24" fill="none" xmlns="http://www.w3.org/2000/svg"><path fill-rule="evenodd" clip-rule="evenodd" d="M8 2.25A6.75 6.75 0 0 0 1.25 9v12a.75.75 0 0 0 1.5 0V9C2.75 6.1 5.1 3.75 8 3.75h8c2.9 0 5.25 2.35 5.25 5.25v12a.75.75 0 0 0 1.5 0V9A6.75 6.75 0 0 0 16 2.25H8Zm2 4A4.75 4.75 0 0 0 5.25 11v4c0 1.715.91 3.219 2.272 4.053L6.4 20.55a.75.75 0 1 0 1.2.9l1.36-1.814c.335.075.683.114 1.04.114h4c.357 0 .705-.04 1.04-.114l1.36 1.814a.75.75 0 1 0 1.2-.9l-1.122-1.497A4.747 4.747 0 0 0 18.75 15v-4A4.75 4.75 0 0 0 14 6.25h-4Zm7.25 5V11A3.25 3.25 0 0 0 14 7.75h-4A3.25 3.25 0 0 0 6.75 11v.25h10.5Zm-10.5 1.5h10.5V15A3.25 3.25 0 0 1 14 18.25h-4A3.25 3.25 0 0 1 6.75 15v-2.25Zm3.25 1a.75.75 0 0 1 .75.75v1a.75.75 0 0 1-1.5 0v-1a.75.75 0 0 1 .75-.75Zm4.75.75a.75.75 0 0 0-1.5 0v1a.75.75 0 0 0 1.5 0v-1Z" fill="#151E28"/></svg>