<svg viewBox="0 0 24 24" fill="none" xmlns="http://www.w3.org/2000/svg"><path fill-rule="evenodd" clip-rule="evenodd" d="M12.793 2.963a1.039 1.039 0 0 0-1.586 0C10.204 4.107 8.824 5.807 7.7 7.65 6.559 9.517 5.75 11.421 5.75 13c0 2.903 1.064 4.566 2.616 5.435a.75.75 0 0 1-.732 1.309C5.506 18.553 4.25 16.317 4.25 13c0-2.01.996-4.212 2.168-6.132 1.188-1.946 2.63-3.717 3.662-4.894a2.539 2.539 0 0 1 3.84 0c1.032 1.177 2.474 2.948 3.662 4.894 1.172 1.92 2.168 4.121 2.168 6.132 0 3.317-1.256 5.552-3.384 6.743a.75.75 0 1 1-.732-1.31c1.552-.868 2.616-2.531 2.616-5.433 0-1.58-.808-3.483-1.949-5.35-1.125-1.843-2.505-3.543-3.508-4.687ZM12 5.25a.75.75 0 0 1 .75.75v16a.75.75 0 1 1-1.5 0v-6.69l-2.78-2.78a.75.75 0 1 1 1.06-1.06l1.72 1.719v-7.19a.75.75 0 0 1 .75-.75Z" fill="#151E28"/></svg>