<svg viewBox="0 0 24 24" fill="none" xmlns="http://www.w3.org/2000/svg"><path fill-rule="evenodd" clip-rule="evenodd" d="M2.75 12a9.25 9.25 0 1 1 18.5 0 9.25 9.25 0 0 1-18.5 0ZM12 1.25C6.063 1.25 1.25 6.063 1.25 12S6.063 22.75 12 22.75 22.75 17.937 22.75 12 17.937 1.25 12 1.25Zm3.257 12.854v-.005l-.005-.027a7.995 7.995 0 0 0-.106-.525 7.717 7.717 0 0 0-.404-1.25c-.419-.972-.962-1.547-1.63-1.547-.38 0-.847.168-1.38.508-.524.333-1.046.79-1.517 1.269a14.54 14.54 0 0 0-.667.723H11a.75.75 0 0 1 0 1.5H8a.75.75 0 0 1-.75-.75v-3a.75.75 0 0 1 1.5 0v.89c.126-.137.258-.277.397-.417.514-.522 1.125-1.064 1.778-1.48.644-.41 1.398-.743 2.186-.743 1.665 0 2.566 1.425 3.008 2.453a9.204 9.204 0 0 1 .59 1.992c.012.06.02.108.025.143l.006.04.002.013v.005L16 14l.743-.103a.75.75 0 0 1-1.486.207Z" fill="#151E28"/></svg>