<svg viewBox="0 0 24 24" fill="none" xmlns="http://www.w3.org/2000/svg"><path fill-rule="evenodd" clip-rule="evenodd" d="M9.326 2.25h-.073c-.419 0-.748 0-1.066.076a2.75 2.75 0 0 0-.795.33c-.28.17-.512.404-.808.7l-.052.051-3.125 3.125-.051.052c-.296.296-.53.528-.7.808a2.75 2.75 0 0 0-.33.795c-.076.318-.076.647-.076 1.066v5.494c0 .419 0 .748.076 1.067.067.28.179.548.33.794.17.28.404.513.7.808l.051.052 3.125 3.125.052.051c.296.297.528.53.808.7.246.152.514.263.795.33.318.076.647.076 1.066.076h5.494c.419 0 .748 0 1.067-.076a2.71 2.71 0 0 0 .794-.33c.28-.17.513-.403.808-.7l.052-.05 3.125-3.126.051-.052c.297-.295.53-.528.7-.808a2.71 2.71 0 0 0 .33-.794c.076-.319.076-.648.076-1.067V9.253c0-.419 0-.748-.076-1.066a2.75 2.75 0 0 0-.33-.795c-.17-.28-.403-.512-.7-.808l-.05-.052-3.126-3.125-.052-.051c-.295-.296-.528-.53-.808-.7a2.75 2.75 0 0 0-.794-.33c-.319-.076-.648-.076-1.067-.076H9.325Zm-.79 1.535c.124-.03.265-.035.79-.035h5.349c.524 0 .665.005.788.035.128.03.25.08.362.15.108.066.21.161.582.533l3.125 3.125c.372.371.467.474.534.582.068.112.119.234.15.362.03.123.034.264.034.789v5.349c0 .524-.005.665-.035.788a1.25 1.25 0 0 1-.15.362c-.066.108-.161.21-.533.582l-3.125 3.125c-.371.372-.474.467-.582.534a1.25 1.25 0 0 1-.362.15c-.123.03-.263.034-.788.034h-5.35c-.524 0-.665-.005-.788-.035a1.25 1.25 0 0 1-.362-.15c-.108-.066-.21-.161-.582-.533l-3.125-3.125c-.372-.371-.467-.474-.534-.582a1.25 1.25 0 0 1-.15-.362c-.03-.123-.034-.263-.034-.788v-5.35c0-.524.005-.665.035-.788.03-.128.08-.25.15-.362.066-.108.161-.21.533-.582l3.125-3.125c.371-.372.474-.467.582-.534a1.25 1.25 0 0 1 .362-.15Zm6.721 10.32v-.006l-.005-.027a6.15 6.15 0 0 0-.105-.525 7.706 7.706 0 0 0-.405-1.25c-.419-.972-.962-1.547-1.63-1.547-.38 0-.847.168-1.38.508-.524.333-1.046.79-1.517 1.269a14.54 14.54 0 0 0-.667.723H11a.75.75 0 1 1 0 1.5H8a.75.75 0 0 1-.75-.75v-3a.75.75 0 1 1 1.5 0v.89c.126-.137.258-.277.397-.417.514-.522 1.125-1.064 1.778-1.48.644-.41 1.398-.743 2.186-.743 1.665 0 2.566 1.425 3.008 2.454.239.552.393 1.097.488 1.499a9.518 9.518 0 0 1 .127.635l.006.04.002.013v.005L16 14l.743-.103a.75.75 0 0 1-1.486.207Z" fill="#151E28"/></svg>