<svg viewBox="0 0 24 24" fill="none" xmlns="http://www.w3.org/2000/svg"><path fill-rule="evenodd" clip-rule="evenodd" d="M8.4 3.25h-.033c-1.092 0-1.958 0-2.655.057-.714.058-1.317.18-1.868.46a4.75 4.75 0 0 0-2.076 2.077c-.281.55-.403 1.154-.461 1.868-.057.697-.057 1.563-.057 2.655v3.266c0 1.092 0 1.958.057 2.655.058.714.18 1.317.46 1.869a4.75 4.75 0 0 0 2.077 2.075c.55.281 1.154.403 1.868.461.697.057 1.563.057 2.655.057h7.266c1.092 0 1.958 0 2.655-.057.714-.058 1.317-.18 1.869-.46a4.75 4.75 0 0 0 2.075-2.076c.281-.552.403-1.155.461-1.869.057-.697.057-1.563.057-2.655v-3.266c0-1.092 0-1.958-.057-2.655-.058-.714-.18-1.317-.46-1.868a4.75 4.75 0 0 0-2.076-2.076c-.552-.281-1.155-.403-1.869-.461-.697-.057-1.563-.057-2.655-.057H8.4ZM4.525 5.104c.304-.155.688-.251 1.309-.302.63-.051 1.434-.052 2.566-.052h7.2c1.133 0 1.937 0 2.566.052.62.05 1.005.147 1.31.302a3.25 3.25 0 0 1 1.42 1.42c.155.305.251.69.302 1.31.051.63.052 1.434.052 2.566v3.2c0 1.133 0 1.937-.052 2.566-.05.62-.147 1.005-.302 1.31a3.25 3.25 0 0 1-1.42 1.42c-.305.155-.69.251-1.31.302-.63.051-1.433.052-2.566.052H8.4c-1.132 0-1.937 0-2.566-.052-.62-.05-1.005-.147-1.31-.302a3.25 3.25 0 0 1-1.42-1.42c-.155-.305-.251-.69-.302-1.31-.051-.63-.052-1.434-.052-2.566v-3.2c0-1.132 0-1.937.052-2.566.05-.62.147-1.005.302-1.31a3.25 3.25 0 0 1 1.42-1.42ZM9 7.75a1.25 1.25 0 1 0 0 2.5 1.25 1.25 0 0 0 0-2.5ZM6.25 9a2.75 2.75 0 1 1 5.5 0 2.75 2.75 0 0 1-5.5 0Zm1.417 4.75a1.917 1.917 0 0 0-1.917 1.917c0 .322.261.583.583.583h5.334a.583.583 0 0 0 .583-.583 1.917 1.917 0 0 0-1.917-1.917H7.667ZM4.25 15.667a3.417 3.417 0 0 1 3.417-3.417h2.666a3.417 3.417 0 0 1 3.417 3.417c0 1.15-.933 2.083-2.083 2.083H6.333a2.083 2.083 0 0 1-2.083-2.083ZM15 7.25a.75.75 0 0 0 0 1.5h4a.75.75 0 0 0 0-1.5h-4Zm.25 4.75a.75.75 0 0 1 .75-.75h3a.75.75 0 0 1 0 1.5h-3a.75.75 0 0 1-.75-.75Zm1 4a.75.75 0 0 1 .75-.75h2a.75.75 0 0 1 0 1.5h-2a.75.75 0 0 1-.75-.75Z" fill="#151E28"/></svg>