<svg viewBox="0 0 24 24" fill="none" xmlns="http://www.w3.org/2000/svg"><path fill-rule="evenodd" clip-rule="evenodd" d="M10 4.75a3.25 3.25 0 1 0 0 6.5 3.25 3.25 0 0 0 0-6.5ZM5.25 8a4.75 4.75 0 1 1 9.5 0 4.75 4.75 0 0 1-9.5 0ZM7 15.75A3.25 3.25 0 0 0 3.75 19c0 .69.56 1.25 1.25 1.25h10c.69 0 1.25-.56 1.25-1.25A3.25 3.25 0 0 0 13 15.75H7ZM2.25 19A4.75 4.75 0 0 1 7 14.25h6A4.75 4.75 0 0 1 17.75 19 2.75 2.75 0 0 1 15 21.75H5A2.75 2.75 0 0 1 2.25 19ZM20.53 6.47a.75.75 0 0 0-1.06 1.06l1.72 1.72H17a.75.75 0 1 0 0 1.5h4.19l-1.72 1.72a.75.75 0 0 0 1.06 1.06l2.997-2.996a.746.746 0 0 0 .222-.585.747.747 0 0 0-.218-.48l-3-3Z" fill="#151E28"/></svg>