<svg viewBox="0 0 24 24" fill="none" xmlns="http://www.w3.org/2000/svg"><path fill-rule="evenodd" clip-rule="evenodd" d="M10 4.75a3.25 3.25 0 1 0 0 6.5 3.25 3.25 0 0 0 0-6.5ZM5.25 8a4.75 4.75 0 1 1 9.5 0 4.75 4.75 0 0 1-9.5 0ZM7 15.75A3.25 3.25 0 0 0 3.75 19c0 .69.56 1.25 1.25 1.25h10c.69 0 1.25-.56 1.25-1.25A3.25 3.25 0 0 0 13 15.75H7ZM2.25 19A4.75 4.75 0 0 1 7 14.25h6A4.75 4.75 0 0 1 17.75 19 2.75 2.75 0 0 1 15 21.75H5A2.75 2.75 0 0 1 2.25 19ZM21 6.25h-4a.75.75 0 0 0-.75.75v4a.75.75 0 0 0 1.5 0V8.81l3.72 3.72a.75.75 0 0 0 1.06-1.06l-3.72-3.72H21a.75.75 0 0 0 0-1.5Z" fill="#151E28"/></svg>