<svg viewBox="0 0 24 24" fill="none" xmlns="http://www.w3.org/2000/svg"><path fill-rule="evenodd" clip-rule="evenodd" d="M4 2.25a2.75 2.75 0 0 0-2.75 2.811v11.171c0 .813 0 1.468.043 2 .045.546.14 1.026.365 1.47a3.75 3.75 0 0 0 1.64 1.64c.444.226.924.32 1.47.365.531.043 1.187.043 2 .043H18.83c.534 0 .98 0 1.344-.03.38-.03.737-.098 1.074-.27a2.751 2.751 0 0 0 1.202-1.201c.172-.338.239-.694.27-1.074.03-.365.03-.81.03-1.345v-7.66c0-.535 0-.98-.03-1.345-.031-.38-.098-.736-.27-1.073a2.75 2.75 0 0 0-1.202-1.202c-.337-.172-.694-.24-1.074-.27-.364-.03-.81-.03-1.344-.03H4a1.25 1.25 0 0 1-1.25-1.21v-.066A1.25 1.25 0 0 1 4 3.75h16a.75.75 0 0 0 0-1.5H4Zm-1.25 5.2v8.75c0 .852 0 1.447.038 1.91.037.453.106.714.207.911.216.424.56.768.983.984.198.1.459.17.912.207.463.037 1.057.038 1.91.038h12c.572 0 .956 0 1.252-.025.287-.023.425-.065.515-.111a1.25 1.25 0 0 0 .546-.547c.047-.09.088-.227.112-.515.024-.295.025-.68.025-1.252v-1.05H20a2.75 2.75 0 1 1 0-5.5h1.25V10.2c0-.572 0-.957-.025-1.253-.024-.287-.065-.424-.112-.514a1.25 1.25 0 0 0-.546-.547c-.09-.046-.228-.088-.515-.111A17.24 17.24 0 0 0 18.8 7.75H4c-.45 0-.875-.108-1.25-.3ZM20 12.75h1.25v2.5H20a1.25 1.25 0 1 1 0-2.5Zm-13 .5a.75.75 0 0 0 0 1.5h6a.75.75 0 1 0 0-1.5H7Z" fill="#151E28"/></svg>