<svg viewBox="0 0 24 24" fill="none" xmlns="http://www.w3.org/2000/svg"><path fill-rule="evenodd" clip-rule="evenodd" d="M12 1.25h-.006c-.463 0-1.073 0-1.615.02-.272.01-.538.024-.767.048-.2.021-.46.057-.664.141a2.75 2.75 0 0 0-1.489 1.489.75.75 0 0 0 1.386.574c.127-.307.37-.55.677-.677-.007.003-.005.002.006 0 .026-.005.099-.02.241-.035.18-.019.407-.032.664-.041A45.645 45.645 0 0 1 12 2.75c.469 0 1.054 0 1.567.019.257.009.485.022.664.041a2.406 2.406 0 0 1 .247.035c.307.127.55.37.677.677a.75.75 0 1 0 1.386-.574 2.75 2.75 0 0 0-1.489-1.489c-.204-.084-.464-.12-.664-.14a11.568 11.568 0 0 0-.767-.05c-.542-.019-1.152-.019-1.615-.019H12ZM5.75 12a6.25 6.25 0 1 1 12.5 0 6.25 6.25 0 0 1-12.5 0ZM12 4.25a7.75 7.75 0 1 0 0 15.5 7.75 7.75 0 0 0 0-15.5Zm0 18.5h-.031c-.939 0-1.552 0-1.974-.02-.43-.02-.743-.063-1.047-.19a2.75 2.75 0 0 1-1.489-1.488.75.75 0 1 1 1.386-.574c.127.307.37.55.677.677.063.026.167.06.544.077.381.018.958.018 1.934.018.469 0 1.054 0 1.567-.018.257-.01.485-.023.664-.042.142-.015.215-.03.24-.035.012-.002.014-.003.007 0 .307-.127.55-.37.677-.677a.75.75 0 1 1 1.386.574 2.75 2.75 0 0 1-1.489 1.489c-.204.084-.464.12-.664.14-.229.025-.495.04-.767.05-.542.019-1.152.019-1.615.019H12Zm0-14.5a.75.75 0 0 1 .75.75v2.69l1.28 1.28a.75.75 0 1 1-1.06 1.06l-1.5-1.5a.75.75 0 0 1-.22-.53V9a.75.75 0 0 1 .75-.75Z" fill="#151E28"/></svg>