<svg viewBox="0 0 24 24" fill="none" xmlns="http://www.w3.org/2000/svg"><path fill-rule="evenodd" clip-rule="evenodd" d="M8.429 3.87a6.25 6.25 0 0 1 8.7 8.701.75.75 0 1 0 1.231.858A7.75 7.75 0 0 0 7.571 2.64a.75.75 0 0 0 .858 1.23ZM4.878 5.939 1.47 2.53a.75.75 0 0 1 1.06-1.06l20 20a.75.75 0 1 1-1.06 1.06l-2.31-2.309a2.74 2.74 0 0 1-.875 1.024c-.423.3-.932.406-1.473.456-.536.049-1.219.049-2.06.049H9.248c-.841 0-1.524 0-2.06-.05-.541-.049-1.05-.156-1.473-.455a2.75 2.75 0 0 1-1.137-1.878c-.07-.514.072-1.014.279-1.517.204-.497.52-1.103.91-1.848l.018-.033.166-.317a.75.75 0 1 1 1.329.696l-.166.316c-.411.787-.695 1.33-.87 1.757-.176.428-.195.63-.18.746.047.344.234.653.517.853.096.068.283.145.744.187.46.042 1.073.043 1.96.043h5.43c.887 0 1.5 0 1.96-.043.46-.042.648-.119.744-.187.283-.2.47-.51.517-.853a.75.75 0 0 1 .032-.139l-2.907-2.906A7.75 7.75 0 0 1 4.878 5.939Zm1.164 1.164a6.25 6.25 0 0 0 7.854 7.854l-2.22-2.22a3.75 3.75 0 0 1-3.413-3.413l-2.22-2.221ZM12 6.75c-.264 0-.516.045-.75.128a.75.75 0 0 1-.499-1.415 3.75 3.75 0 0 1 4.786 4.787.75.75 0 1 1-1.414-.5 2.25 2.25 0 0 0-2.122-3Z" fill="#151E28"/></svg>