<svg viewBox="0 0 24 24" fill="none" xmlns="http://www.w3.org/2000/svg"><path fill-rule="evenodd" clip-rule="evenodd" d="M11.832 2.25h.336c.89 0 1.603 0 2.171.044.58.045 1.088.14 1.542.376a3.75 3.75 0 0 1 1.926 2.466c.118.498.087 1.013-.01 1.587-.095.562-.268 1.253-.484 2.116l-.008.031-.029.117c-.16.644-.285 1.147-.558 1.551a2.75 2.75 0 0 1-1.34 1.046c-.458.167-.977.167-1.64.166h-3.475c-.664 0-1.183.001-1.641-.165a2.75 2.75 0 0 1-1.34-1.047c-.273-.404-.398-.907-.558-1.551l-.03-.117-.007-.03c-.216-.864-.389-1.555-.484-2.117-.097-.574-.128-1.09-.01-1.587A3.75 3.75 0 0 1 8.12 2.67c.454-.236.962-.33 1.542-.376.569-.044 1.28-.044 2.17-.044ZM9.777 3.79c-.5.039-.775.111-.969.212a2.25 2.25 0 0 0-1.155 1.48c-.05.212-.054.497.03.99.083.499.241 1.133.467 2.034.204.818.27 1.037.375 1.193.148.22.361.386.61.476.176.064.405.075 1.248.075h3.234c.843 0 1.072-.011 1.248-.075a1.25 1.25 0 0 0 .61-.476c.105-.155.17-.375.375-1.193.226-.901.384-1.535.468-2.033.083-.494.08-.779.03-.992a2.25 2.25 0 0 0-1.156-1.48c-.194-.1-.47-.172-.969-.211-.504-.04-1.157-.04-2.086-.04h-.274c-.929 0-1.582 0-2.086.04Zm3.558 1.54a.75.75 0 0 1 .336 1.005l-1 2a.75.75 0 1 1-1.342-.67l1-2a.75.75 0 0 1 1.006-.336ZM5.562 6.85a.75.75 0 0 0-1.124-.992A4.735 4.735 0 0 0 3.25 9v8A4.75 4.75 0 0 0 8 21.75h8A4.75 4.75 0 0 0 20.75 17V9a4.735 4.735 0 0 0-1.188-3.142.75.75 0 1 0-1.124.992c.506.574.812 1.325.812 2.15v8A3.25 3.25 0 0 1 16 20.25H8A3.25 3.25 0 0 1 4.75 17V9c0-.825.306-1.576.812-2.15Z" fill="#151E28"/></svg>