<svg viewBox="0 0 24 24" fill="none" xmlns="http://www.w3.org/2000/svg"><path fill-rule="evenodd" clip-rule="evenodd" d="M2.577 10.172A12.223 12.223 0 0 1 12 5.75c3.789 0 7.175 1.719 9.423 4.422a.75.75 0 1 0 1.154-.959A13.723 13.723 0 0 0 12 4.25 13.723 13.723 0 0 0 1.423 9.213a.75.75 0 0 0 1.154.96ZM12 9.75a8.228 8.228 0 0 0-6.15 2.75.75.75 0 0 1-1.117-1A9.728 9.728 0 0 1 12 8.25a9.728 9.728 0 0 1 7.267 3.25.75.75 0 0 1-1.118 1A8.228 8.228 0 0 0 12 9.75Zm-3.4 5.7a4.242 4.242 0 0 1 3.4-1.7 4.24 4.24 0 0 1 3.4 1.7.75.75 0 1 0 1.2-.901A5.742 5.742 0 0 0 12 12.25a5.742 5.742 0 0 0-4.6 2.299.75.75 0 1 0 1.2.901ZM12 19a1 1 0 1 0 0-2 1 1 0 0 0 0 2Z" fill="#151E28"/></svg>