<svg viewBox="0 0 24 24" fill="none" xmlns="http://www.w3.org/2000/svg"><path fill-rule="evenodd" clip-rule="evenodd" d="M2.53 1.47a.75.75 0 0 0-1.06 1.06l3.594 3.595a13.813 13.813 0 0 0-3.64 3.088.75.75 0 0 0 1.153.96 12.308 12.308 0 0 1 3.588-2.947l1.866 1.866A9.775 9.775 0 0 0 4.733 11.5a.75.75 0 0 0 1.117 1 8.263 8.263 0 0 1 3.333-2.257l2.056 2.057A5.747 5.747 0 0 0 7.4 14.549a.75.75 0 1 0 1.2.901 4.242 4.242 0 0 1 4.156-1.633l8.714 8.713a.75.75 0 1 0 1.06-1.06l-20-20ZM12 5.75c-.807 0-1.595.078-2.357.226a.75.75 0 1 1-.286-1.472c.856-.167 1.74-.254 2.643-.254 4.253 0 8.056 1.932 10.577 4.963a.75.75 0 0 1-1.154.96A12.223 12.223 0 0 0 12 5.75Zm1.082 2.56a.75.75 0 0 0-.164 1.49 8.23 8.23 0 0 1 5.231 2.7.75.75 0 0 0 1.118-1 9.73 9.73 0 0 0-6.185-3.19ZM13 18a1 1 0 1 1-2 0 1 1 0 0 1 2 0Z" fill="#151E28"/></svg>