<svg viewBox="0 0 24 24" fill="none" xmlns="http://www.w3.org/2000/svg"><path fill-rule="evenodd" clip-rule="evenodd" d="M12 2.25c-5.385 0-9.75 4.365-9.75 9.75s4.365 9.75 9.75 9.75 9.75-4.365 9.75-9.75S17.385 2.25 12 2.25ZM20.25 12A8.25 8.25 0 0 1 12 20.25a3.75 3.75 0 1 1 0-7.5 5.25 5.25 0 0 0 4.745-7.5A8.24 8.24 0 0 1 20.25 12Zm-16.5 0a8.24 8.24 0 0 0 3.505 6.75A5.25 5.25 0 0 1 12 11.25a3.75 3.75 0 1 0 0-7.5A8.25 8.25 0 0 0 3.75 12ZM13 7a1 1 0 1 0-2 0 1 1 0 0 0 2 0Zm0 10a1 1 0 1 0-2 0 1 1 0 0 0 2 0Z" fill="#151E28"/></svg>