<svg xmlns="http://www.w3.org/2000/svg" viewBox="0 0 32 32">
  <defs/>
  <path fill="white" d="M23,22 L9,22 C7.895,22 7,21.105 7,20 C7,17.813 9,18 9,13 C9,9.134 12.134,6 16,6 C19.866,6 23,9.134 23,13 C23,18 25,17.813 25,20 C25,21.105 24.105,22 23,22 Z"/>
  <path fill="white" d="M23.353,17.934 L24.647,17.175 L24.647,17.175 L23.353,17.934 Z M23.713,18.518 L24.979,17.714 L24.979,17.714 L23.713,18.518 Z M8.287,18.518 L7.021,17.714 L7.021,17.714 L8.287,18.518 Z M8.647,17.934 L9.94,18.694 L9.94,18.694 L8.647,17.934 Z M7.353,17.175 L6.06,16.416 L6.06,16.416 L7.353,17.175 Z M7.103,17.573 L8.362,18.389 L8.362,18.389 L7.103,17.573 Z M24.897,17.573 L26.155,16.757 C26.152,16.752 26.148,16.746 26.145,16.741 L24.897,17.573 Z M24.897,17.573 L23.638,18.389 C23.642,18.394 23.645,18.4 23.649,18.405 L24.897,17.573 Z M24.647,17.175 L23.353,17.934 L23.353,17.934 L24.647,17.175 Z M12.921,23.293 L12.421,21.879 L12.421,21.879 L12.921,23.293 Z M13.878,23.75 L15.292,23.25 L15.292,23.25 L13.878,23.75 Z M12.464,24.25 L11.05,24.75 L11.05,24.75 L12.464,24.25 Z M19.537,24.25 L20.951,24.75 L20.951,24.75 L19.537,24.25 Z M19.079,23.293 L19.579,21.879 L19.579,21.879 L19.079,23.293 Z M18.122,23.75 L16.708,23.25 L16.708,23.25 L18.122,23.75 Z M16,5.25 C11.72,5.25 8.25,8.72 8.25,13 L11.25,13 C11.25,10.377 13.377,8.25 16,8.25 L16,5.25 Z M23.75,13 C23.75,8.72 20.28,5.25 16,5.25 L16,8.25 C18.623,8.25 20.75,10.377 20.75,13 L23.75,13 Z M24.647,17.175 C24.22,16.448 23.75,15.378 23.75,13 L20.75,13 C20.75,15.867 21.34,17.469 22.06,18.694 L24.647,17.175 Z M24.979,17.714 C24.874,17.548 24.766,17.379 24.647,17.175 L22.06,18.694 C22.209,18.948 22.342,19.157 22.447,19.323 L24.979,17.714 Z M25.75,20 C25.75,19.514 25.675,19.085 25.502,18.661 C25.35,18.289 25.134,17.958 24.979,17.714 L22.447,19.323 C22.539,19.467 22.599,19.562 22.647,19.646 C22.693,19.724 22.713,19.768 22.724,19.793 C22.732,19.812 22.75,19.849 22.75,20 L25.75,20 Z M23,22.75 C24.519,22.75 25.75,21.519 25.75,20 L22.75,20 C22.75,19.862 22.862,19.75 23,19.75 L23,22.75 Z M9,22.75 L23,22.75 L23,19.75 L9,19.75 L9,22.75 Z M6.25,20 C6.25,21.519 7.481,22.75 9,22.75 L9,19.75 C9.138,19.75 9.25,19.862 9.25,20 L6.25,20 Z M7.021,17.714 C6.866,17.958 6.65,18.289 6.498,18.661 C6.325,19.085 6.25,19.514 6.25,20 L9.25,20 C9.25,19.849 9.268,19.812 9.276,19.793 C9.287,19.768 9.307,19.724 9.353,19.646 C9.401,19.562 9.461,19.467 9.553,19.323 L7.021,17.714 Z M7.353,17.175 C7.234,17.379 7.126,17.548 7.021,17.714 L9.553,19.323 C9.658,19.157 9.791,18.948 9.94,18.694 L7.353,17.175 Z M8.25,13 C8.25,15.378 7.78,16.448 7.353,17.175 L9.94,18.694 C10.659,17.469 11.25,15.867 11.25,13 L8.25,13 Z M9.75,13 C9.75,9.548 12.548,6.75 16,6.75 L16,3.75 C10.891,3.75 6.75,7.891 6.75,13 L9.75,13 Z M8.647,17.934 C9.22,16.959 9.75,15.622 9.75,13 L6.75,13 C6.75,15.133 6.341,15.937 6.06,16.416 L8.647,17.934 Z M8.362,18.389 C8.446,18.259 8.55,18.099 8.647,17.934 L6.06,16.416 C6.003,16.512 5.936,16.615 5.845,16.757 L8.362,18.389 Z M7.75,20 C7.75,19.363 7.978,18.982 8.362,18.389 L5.845,16.757 C5.436,17.387 4.75,18.415 4.75,20 L7.75,20 Z M9,21.25 C8.31,21.25 7.75,20.69 7.75,20 L4.75,20 C4.75,22.347 6.653,24.25 9,24.25 L9,21.25 Z M23,21.25 L9,21.25 L9,24.25 L23,24.25 L23,21.25 Z M24.25,20 C24.25,20.69 23.69,21.25 23,21.25 L23,24.25 C25.347,24.25 27.25,22.347 27.25,20 L24.25,20 Z M23.638,18.389 C24.022,18.982 24.25,19.363 24.25,20 L27.25,20 C27.25,18.415 26.564,17.387 26.155,16.757 L23.638,18.389 Z M23.649,18.405 L23.649,18.405 L26.145,16.741 L26.145,16.741 L23.649,18.405 Z M23.353,17.934 C23.45,18.099 23.553,18.258 23.638,18.389 L26.155,16.757 C26.064,16.615 25.997,16.512 25.94,16.416 L23.353,17.934 Z M22.25,13 C22.25,15.622 22.78,16.959 23.353,17.934 L25.94,16.416 C25.659,15.937 25.25,15.133 25.25,13 L22.25,13 Z M16,6.75 C19.452,6.75 22.25,9.548 22.25,13 L25.25,13 C25.25,7.891 21.109,3.75 16,3.75 L16,6.75 Z M13.421,24.707 C13.03,24.845 12.602,24.64 12.464,24.25 L15.292,23.25 C14.878,22.079 13.593,21.465 12.421,21.879 L13.421,24.707 Z M13.878,23.75 C14.016,24.141 13.811,24.569 13.421,24.707 L12.421,21.879 C11.249,22.293 10.635,23.578 11.05,24.75 L13.878,23.75 Z M16,25.25 C15.022,25.25 14.188,24.626 13.878,23.75 L11.05,24.75 C11.769,26.785 13.71,28.25 16,28.25 L16,25.25 Z M18.122,23.75 C17.813,24.626 16.978,25.25 16,25.25 L16,28.25 C18.29,28.25 20.232,26.785 20.951,24.75 L18.122,23.75 Z M18.58,24.707 C18.189,24.569 17.984,24.141 18.122,23.75 L20.951,24.75 C21.365,23.578 20.751,22.293 19.579,21.879 L18.58,24.707 Z M19.537,24.25 C19.399,24.64 18.97,24.845 18.58,24.707 L19.579,21.879 C18.408,21.465 17.122,22.079 16.708,23.25 L19.537,24.25 Z M16,26.75 C17.633,26.75 19.022,25.706 19.537,24.25 L16.708,23.25 C16.604,23.544 16.324,23.75 16,23.75 L16,26.75 Z M12.464,24.25 C12.979,25.706 14.367,26.75 16,26.75 L16,23.75 C15.676,23.75 15.396,23.544 15.292,23.25 L12.464,24.25 Z"/>
  <path fill="#151E28" d="M16,5.25 C20.28,5.25 23.75,8.72 23.75,13 C23.75,15.378 24.22,16.448 24.647,17.175 C24.723,17.305 24.809,17.437 24.897,17.573 L24.897,17.573 C25.293,18.184 25.75,18.889 25.75,20 C25.75,21.519 24.519,22.75 23,22.75 L9,22.75 C7.481,22.75 6.25,21.519 6.25,20 C6.25,18.889 6.707,18.184 7.103,17.573 C7.191,17.437 7.277,17.305 7.353,17.175 C7.78,16.448 8.25,15.378 8.25,13 C8.25,8.72 11.72,5.25 16,5.25 Z M9.75,13 C9.75,15.622 9.22,16.958 8.647,17.934 C8.512,18.163 8.392,18.352 8.287,18.518 C7.937,19.069 7.75,19.363 7.75,20 C7.75,20.69 8.31,21.25 9,21.25 L23,21.25 C23.69,21.25 24.25,20.69 24.25,20 C24.25,19.363 24.063,19.069 23.713,18.518 C23.608,18.352 23.488,18.163 23.353,17.934 C22.78,16.958 22.25,15.622 22.25,13 C22.25,9.548 19.452,6.75 16,6.75 C12.548,6.75 9.75,9.548 9.75,13 Z M13.878,23.75 C14.187,24.625 15.022,25.25 16,25.25 C16.979,25.25 17.813,24.625 18.122,23.75 C18.26,23.36 18.689,23.155 19.079,23.293 C19.47,23.431 19.675,23.859 19.537,24.25 C19.022,25.705 17.634,26.75 16,26.75 C14.366,26.75 12.978,25.705 12.464,24.25 C12.326,23.859 12.53,23.431 12.921,23.293 C13.311,23.155 13.74,23.36 13.878,23.75 Z"/>
</svg>

