<svg xmlns="http://www.w3.org/2000/svg" viewBox="0 0 32 32">
  <defs/>
  <path fill="white" d="M10,13 C10,9.686 12.686,7 16,7 L16,7 C19.314,7 22,9.686 22,13 L22,20 C22,23.314 19.314,26 16,26 L16,26 C12.686,26 10,23.314 10,20 L10,13 Z"/>
  <path fill="white" d="M22.53,6.53 L23.591,7.591 L23.591,7.591 L22.53,6.53 Z M22.53,5.47 L23.591,4.409 L23.591,4.409 L22.53,5.47 Z M20.803,8.257 L19.743,7.197 C19.159,7.78 19.156,8.725 19.736,9.311 L20.803,8.257 Z M22.75,13.598 L21.25,13.598 C21.25,14.152 21.556,14.661 22.045,14.922 C22.534,15.182 23.127,15.152 23.587,14.842 L22.75,13.598 Z M23.738,12.823 L24.897,13.775 L24.897,13.775 L23.738,12.823 Z M24.153,12.048 L22.718,11.612 L22.718,11.612 L24.153,12.048 Z M25.75,10.431 L24.25,10.431 L24.25,10.431 L25.75,10.431 Z M25.75,10.542 L24.25,10.542 L24.25,10.542 L25.75,10.542 Z M25.588,12.484 L24.153,12.048 L24.153,12.048 L25.588,12.484 Z M24.897,13.775 L26.056,14.728 L26.056,14.728 L24.897,13.775 Z M23.371,14.988 L22.539,13.739 L22.539,13.739 L23.371,14.988 Z M23.279,15.049 L22.447,13.801 L22.447,13.801 L23.279,15.049 Z M22.75,15.401 L21.918,14.153 C21.501,14.431 21.25,14.9 21.25,15.401 L22.75,15.401 Z M22.75,18.599 L21.25,18.599 C21.25,19.1 21.501,19.569 21.918,19.847 L22.75,18.599 Z M23.279,18.951 L22.447,20.199 L22.447,20.199 L23.279,18.951 Z M23.371,19.012 L22.539,20.261 L22.539,20.261 L23.371,19.012 Z M24.897,20.224 L26.056,19.272 L26.056,19.272 L24.897,20.224 Z M25.588,21.516 L24.153,21.952 L24.153,21.952 L25.588,21.516 Z M25.75,23.458 L24.25,23.458 L24.25,23.458 L25.75,23.458 Z M25.75,23.569 L24.25,23.569 L24.25,23.569 L25.75,23.569 Z M24.153,21.952 L22.718,22.388 L22.718,22.388 L24.153,21.952 Z M23.738,21.177 L24.897,20.224 L24.897,20.224 L23.738,21.177 Z M22.739,20.395 L23.576,19.15 C23.128,18.849 22.555,18.811 22.072,19.051 C21.589,19.29 21.272,19.77 21.241,20.308 L22.739,20.395 Z M9.261,20.395 L10.759,20.308 C10.728,19.77 10.411,19.29 9.928,19.051 C9.446,18.811 8.872,18.849 8.424,19.15 L9.261,20.395 Z M8.262,21.177 L7.103,20.224 L7.103,20.224 L8.262,21.177 Z M7.847,21.952 L9.282,22.388 L9.282,22.388 L7.847,21.952 Z M6.25,23.569 L7.75,23.569 L7.75,23.569 L6.25,23.569 Z M6.25,23.458 L7.75,23.458 L7.75,23.458 L6.25,23.458 Z M6.412,21.516 L7.847,21.952 L7.847,21.952 L6.412,21.516 Z M7.103,20.224 L5.944,19.272 L5.944,19.272 L7.103,20.224 Z M8.629,19.012 L9.461,20.261 L9.461,20.261 L8.629,19.012 Z M8.721,18.951 L9.553,20.199 L9.554,20.199 L8.721,18.951 Z M9.25,18.599 L10.082,19.847 C10.499,19.569 10.75,19.1 10.75,18.599 L9.25,18.599 Z M9.25,15.401 L10.75,15.401 C10.75,14.9 10.499,14.431 10.082,14.153 L9.25,15.401 Z M8.721,15.049 L9.554,13.801 L9.553,13.801 L8.721,15.049 Z M8.629,14.988 L9.461,13.739 L9.461,13.739 L8.629,14.988 Z M7.103,13.775 L5.944,14.728 L5.944,14.728 L7.103,13.775 Z M6.412,12.484 L4.977,12.92 L4.977,12.92 L6.412,12.484 Z M6.25,10.542 L7.75,10.542 L7.75,10.542 L6.25,10.542 Z M6.25,10.431 L7.75,10.431 L7.75,10.431 L6.25,10.431 Z M7.847,12.048 L9.282,11.612 L9.282,11.612 L7.847,12.048 Z M8.262,12.823 L7.103,13.775 L7.103,13.775 L8.262,12.823 Z M9.25,13.598 L8.413,14.842 C8.873,15.152 9.466,15.182 9.955,14.922 C10.444,14.661 10.75,14.152 10.75,13.598 L9.25,13.598 Z M11.197,8.257 L12.264,9.311 C12.844,8.725 12.841,7.78 12.258,7.197 L11.197,8.257 Z M9.47,6.53 L10.53,5.47 L10.53,5.47 L9.47,6.53 Z M9.47,5.47 L8.409,4.409 L8.409,4.409 L9.47,5.47 Z M10.53,5.47 L11.591,4.409 L11.591,4.409 L10.53,5.47 Z M12.369,7.309 L11.309,8.369 C11.807,8.867 12.584,8.952 13.177,8.572 L12.369,7.309 Z M19.631,7.309 L18.823,8.572 C19.416,8.952 20.194,8.867 20.691,8.369 L19.631,7.309 Z M21.47,5.47 L22.53,6.53 L22.53,6.53 L21.47,5.47 Z M10.75,18.988 L9.25,18.988 C9.25,18.996 9.25,19.003 9.25,19.01 L10.75,18.988 Z M10.75,19.01 L9.25,18.988 C9.25,18.996 9.25,19.003 9.25,19.01 L10.75,19.01 Z M10.75,15.75 L10.75,14.25 C9.922,14.25 9.25,14.922 9.25,15.75 L10.75,15.75 Z M21.25,15.75 L22.75,15.75 C22.75,14.922 22.078,14.25 21.25,14.25 L21.25,15.75 Z M21.25,18.988 L22.75,18.997 L22.75,18.988 L21.25,18.988 Z M21.25,19.001 L19.75,18.992 C19.75,18.999 19.75,19.006 19.75,19.014 L21.25,19.001 Z M21.25,19.01 L22.75,19.01 L22.75,18.998 L21.25,19.01 Z M10.75,14.25 L9.25,14.25 C9.25,15.078 9.922,15.75 10.75,15.75 L10.75,14.25 Z M21.25,14.25 L21.25,15.75 C22.078,15.75 22.75,15.078 22.75,14.25 L21.25,14.25 Z M23.591,7.591 C24.47,6.712 24.47,5.288 23.591,4.409 L21.47,6.53 C21.177,6.237 21.177,5.763 21.47,5.47 L23.591,7.591 Z M21.864,9.318 L23.591,7.591 L21.47,5.47 L19.743,7.197 L21.864,9.318 Z M24.25,13 C24.25,10.741 23.34,8.692 21.871,7.204 L19.736,9.311 C20.674,10.261 21.25,11.562 21.25,13 L24.25,13 Z M24.25,13.598 L24.25,13 L21.25,13 L21.25,13.598 L24.25,13.598 Z M22.579,11.871 C22.579,11.871 22.578,11.872 22.577,11.873 C22.576,11.874 22.573,11.877 22.567,11.883 C22.555,11.894 22.53,11.917 22.481,11.955 C22.374,12.038 22.209,12.154 21.913,12.353 L23.587,14.842 C24.137,14.473 24.563,14.182 24.897,13.775 L22.579,11.871 Z M22.718,11.612 C22.689,11.707 22.642,11.794 22.579,11.871 L24.897,13.775 C25.21,13.395 25.445,12.956 25.588,12.484 L22.718,11.612 Z M22.75,10.431 C22.75,10.935 22.748,11.223 22.737,11.419 C22.732,11.511 22.727,11.56 22.723,11.587 C22.721,11.599 22.719,11.606 22.719,11.608 C22.718,11.61 22.718,11.611 22.718,11.612 L25.588,12.484 C25.758,11.924 25.75,11.315 25.75,10.431 L22.75,10.431 Z M22.75,10 L22.75,10.431 L25.75,10.431 L25.75,10 L22.75,10 Z M25,7.75 C23.757,7.75 22.75,8.757 22.75,10 L25.75,10 C25.75,10.414 25.414,10.75 25,10.75 L25,7.75 Z M27.25,10 C27.25,8.757 26.243,7.75 25,7.75 L25,10.75 C24.586,10.75 24.25,10.414 24.25,10 L27.25,10 Z M27.25,10.431 L27.25,10 L24.25,10 L24.25,10.431 L27.25,10.431 Z M27.25,10.541 L27.25,10.431 L24.25,10.431 L24.25,10.542 L27.25,10.541 Z M27.023,12.92 C27.264,12.128 27.25,11.306 27.25,10.541 L24.25,10.542 C24.25,11.442 24.237,11.771 24.153,12.048 L27.023,12.92 Z M26.056,14.728 C26.494,14.195 26.823,13.58 27.023,12.92 L24.153,12.048 C24.067,12.331 23.926,12.595 23.738,12.823 L26.056,14.728 Z M24.202,16.236 C24.839,15.812 25.53,15.367 26.056,14.728 L23.738,12.823 C23.554,13.047 23.288,13.241 22.539,13.739 L24.202,16.236 Z M24.11,16.297 L24.203,16.236 L22.539,13.739 L22.447,13.801 L24.11,16.297 Z M23.582,16.649 L24.111,16.297 L22.447,13.801 L21.918,14.153 L23.582,16.649 Z M24.25,18.599 L24.25,15.401 L21.25,15.401 L21.25,18.599 L24.25,18.599 Z M24.111,17.703 L23.582,17.351 L21.918,19.847 L22.447,20.199 L24.111,17.703 Z M24.203,17.764 L24.11,17.703 L22.447,20.199 L22.539,20.261 L24.203,17.764 Z M26.056,19.272 C25.53,18.633 24.839,18.188 24.202,17.764 L22.539,20.261 C23.288,20.759 23.554,20.953 23.738,21.177 L26.056,19.272 Z M27.023,21.08 C26.823,20.42 26.494,19.805 26.056,19.272 L23.738,21.177 C23.926,21.405 24.067,21.669 24.153,21.952 L27.023,21.08 Z M27.25,23.459 C27.25,22.694 27.264,21.872 27.023,21.08 L24.153,21.952 C24.237,22.229 24.25,22.558 24.25,23.458 L27.25,23.459 Z M27.25,23.569 L27.25,23.459 L24.25,23.458 L24.25,23.569 L27.25,23.569 Z M27.25,24 L27.25,23.569 L24.25,23.569 L24.25,24 L27.25,24 Z M25,26.25 C26.243,26.25 27.25,25.243 27.25,24 L24.25,24 C24.25,23.586 24.586,23.25 25,23.25 L25,26.25 Z M22.75,24 C22.75,25.243 23.757,26.25 25,26.25 L25,23.25 C25.414,23.25 25.75,23.586 25.75,24 L22.75,24 Z M22.75,23.569 L22.75,24 L25.75,24 L25.75,23.569 L22.75,23.569 Z M22.718,22.388 C22.718,22.389 22.718,22.39 22.719,22.392 C22.719,22.394 22.721,22.401 22.723,22.413 C22.727,22.439 22.732,22.489 22.737,22.581 C22.748,22.777 22.75,23.065 22.75,23.569 L25.75,23.569 C25.75,22.685 25.758,22.076 25.588,21.516 L22.718,22.388 Z M22.579,22.129 C22.642,22.206 22.689,22.293 22.718,22.388 L25.588,21.516 C25.445,21.044 25.21,20.605 24.897,20.224 L22.579,22.129 Z M21.902,21.639 C22.202,21.841 22.37,21.959 22.479,22.044 C22.529,22.083 22.555,22.105 22.567,22.117 C22.573,22.122 22.576,22.126 22.577,22.127 C22.578,22.128 22.579,22.128 22.579,22.129 L24.897,20.224 C24.561,19.816 24.131,19.523 23.576,19.15 L21.902,21.639 Z M16,28.25 C20.395,28.25 23.986,24.814 24.236,20.481 L21.241,20.308 C21.082,23.064 18.796,25.25 16,25.25 L16,28.25 Z M7.764,20.481 C8.014,24.814 11.605,28.25 16,28.25 L16,25.25 C13.204,25.25 10.918,23.064 10.759,20.308 L7.764,20.481 Z M9.421,22.129 C9.421,22.128 9.422,22.128 9.423,22.127 C9.424,22.126 9.427,22.122 9.433,22.117 C9.445,22.105 9.471,22.083 9.521,22.044 C9.63,21.959 9.798,21.841 10.098,21.639 L8.424,19.15 C7.869,19.523 7.439,19.816 7.103,20.224 L9.421,22.129 Z M9.282,22.388 C9.311,22.293 9.358,22.206 9.421,22.129 L7.103,20.224 C6.79,20.605 6.555,21.044 6.412,21.516 L9.282,22.388 Z M9.25,23.569 C9.25,23.065 9.252,22.777 9.263,22.581 C9.268,22.489 9.274,22.439 9.278,22.413 C9.279,22.401 9.281,22.394 9.281,22.392 C9.282,22.39 9.282,22.389 9.282,22.388 L6.412,21.516 C6.242,22.076 6.25,22.685 6.25,23.569 L9.25,23.569 Z M9.25,24 L9.25,23.569 L6.25,23.569 L6.25,24 L9.25,24 Z M7,26.25 C8.243,26.25 9.25,25.243 9.25,24 L6.25,24 C6.25,23.586 6.586,23.25 7,23.25 L7,26.25 Z M4.75,24 C4.75,25.243 5.757,26.25 7,26.25 L7,23.25 C7.414,23.25 7.75,23.586 7.75,24 L4.75,24 Z M4.75,23.569 L4.75,24 L7.75,24 L7.75,23.569 L4.75,23.569 Z M4.75,23.459 L4.75,23.569 L7.75,23.569 L7.75,23.458 L4.75,23.459 Z M4.977,21.08 C4.736,21.872 4.75,22.694 4.75,23.459 L7.75,23.458 C7.75,22.558 7.763,22.229 7.847,21.952 L4.977,21.08 Z M5.944,19.272 C5.506,19.805 5.177,20.42 4.977,21.08 L7.847,21.952 C7.933,21.669 8.074,21.405 8.262,21.177 L5.944,19.272 Z M7.798,17.764 C7.161,18.188 6.47,18.633 5.944,19.272 L8.262,21.177 C8.446,20.953 8.713,20.759 9.461,20.261 L7.798,17.764 Z M7.89,17.703 L7.798,17.764 L9.461,20.261 L9.553,20.199 L7.89,17.703 Z M8.418,17.351 L7.889,17.703 L9.554,20.199 L10.082,19.847 L8.418,17.351 Z M7.75,15.401 L7.75,18.599 L10.75,18.599 L10.75,15.401 L7.75,15.401 Z M7.889,16.297 L8.418,16.649 L10.082,14.153 L9.554,13.801 L7.889,16.297 Z M7.798,16.236 L7.89,16.297 L9.553,13.801 L9.461,13.739 L7.798,16.236 Z M5.944,14.728 C6.47,15.367 7.161,15.812 7.798,16.236 L9.461,13.739 C8.713,13.241 8.446,13.047 8.262,12.823 L5.944,14.728 Z M4.977,12.92 C5.177,13.58 5.506,14.195 5.944,14.728 L8.262,12.823 C8.074,12.595 7.933,12.331 7.847,12.048 L4.977,12.92 Z M4.75,10.541 C4.75,11.306 4.736,12.128 4.977,12.92 L7.847,12.048 C7.763,11.771 7.75,11.442 7.75,10.542 L4.75,10.541 Z M4.75,10.431 L4.75,10.541 L7.75,10.542 L7.75,10.431 L4.75,10.431 Z M4.75,10 L4.75,10.431 L7.75,10.431 L7.75,10 L4.75,10 Z M7,7.75 C5.757,7.75 4.75,8.757 4.75,10 L7.75,10 C7.75,10.414 7.414,10.75 7,10.75 L7,7.75 Z M9.25,10 C9.25,8.757 8.243,7.75 7,7.75 L7,10.75 C6.586,10.75 6.25,10.414 6.25,10 L9.25,10 Z M9.25,10.431 L9.25,10 L6.25,10 L6.25,10.431 L9.25,10.431 Z M9.282,11.612 C9.282,11.611 9.282,11.61 9.281,11.608 C9.281,11.606 9.279,11.599 9.278,11.587 C9.274,11.56 9.268,11.511 9.263,11.419 C9.252,11.223 9.25,10.935 9.25,10.431 L6.25,10.431 C6.25,11.315 6.242,11.924 6.412,12.484 L9.282,11.612 Z M9.421,11.871 C9.358,11.794 9.311,11.707 9.282,11.612 L6.412,12.484 C6.555,12.956 6.79,13.395 7.103,13.775 L9.421,11.871 Z M10.087,12.353 C9.792,12.154 9.626,12.038 9.519,11.955 C9.47,11.917 9.445,11.894 9.433,11.883 C9.427,11.877 9.424,11.874 9.423,11.873 C9.422,11.872 9.421,11.871 9.421,11.871 L7.103,13.775 C7.437,14.182 7.864,14.473 8.413,14.842 L10.087,12.353 Z M7.75,13 L7.75,13.598 L10.75,13.598 L10.75,13 L7.75,13 Z M10.13,7.204 C8.66,8.692 7.75,10.741 7.75,13 L10.75,13 C10.75,11.562 11.326,10.261 12.264,9.311 L10.13,7.204 Z M8.409,7.591 L10.136,9.318 L12.258,7.197 L10.53,5.47 L8.409,7.591 Z M8.409,4.409 C7.53,5.288 7.53,6.712 8.409,7.591 L10.53,5.47 C10.823,5.763 10.823,6.237 10.53,6.53 L8.409,4.409 Z M11.591,4.409 C10.712,3.53 9.288,3.53 8.409,4.409 L10.53,6.53 C10.238,6.823 9.763,6.823 9.47,6.53 L11.591,4.409 Z M13.43,6.248 L11.591,4.409 L9.47,6.53 L11.309,8.369 L13.43,6.248 Z M16,4.75 C14.369,4.75 12.844,5.225 11.561,6.045 L13.177,8.572 C13.992,8.052 14.958,7.75 16,7.75 L16,4.75 Z M20.439,6.045 C19.156,5.225 17.631,4.75 16,4.75 L16,7.75 C17.042,7.75 18.009,8.052 18.823,8.572 L20.439,6.045 Z M20.409,4.409 L18.57,6.248 L20.691,8.369 L22.53,6.53 L20.409,4.409 Z M23.591,4.409 C22.712,3.53 21.288,3.53 20.409,4.409 L22.53,6.53 C22.238,6.823 21.763,6.823 21.47,6.53 L23.591,4.409 Z M9.25,19.01 C9.25,19.003 9.25,18.996 9.25,18.988 L12.25,19.032 C12.25,19.01 12.25,18.988 12.25,18.966 L9.25,19.01 Z M9.25,15.75 L9.25,18.988 L12.25,18.988 L12.25,15.75 L9.25,15.75 Z M21.25,14.25 L10.75,14.25 L10.75,17.25 L21.25,17.25 L21.25,14.25 Z M22.75,18.988 L22.75,15.75 L19.75,15.75 L19.75,18.988 L22.75,18.988 Z M22.75,19.01 L22.75,18.997 L19.75,18.979 L19.75,18.992 L22.75,19.01 Z M22.75,18.998 L22.75,18.988 L19.75,19.014 L19.75,19.023 L22.75,18.998 Z M22.75,20 L22.75,19.01 L19.75,19.01 L19.75,20 L22.75,20 Z M16,26.75 C19.728,26.75 22.75,23.728 22.75,20 L19.75,20 C19.75,22.071 18.071,23.75 16,23.75 L16,26.75 Z M9.25,20 C9.25,23.728 12.272,26.75 16,26.75 L16,23.75 C13.929,23.75 12.25,22.071 12.25,20 L9.25,20 Z M9.25,19.01 L9.25,20 L12.25,20 L12.25,19.01 L9.25,19.01 Z M9.25,13 L9.25,14.25 L12.25,14.25 L12.25,13 L9.25,13 Z M16,6.25 C12.272,6.25 9.25,9.272 9.25,13 L12.25,13 C12.25,10.929 13.929,9.25 16,9.25 L16,6.25 Z M22.75,13 C22.75,9.272 19.728,6.25 16,6.25 L16,9.25 C18.071,9.25 19.75,10.929 19.75,13 L22.75,13 Z M22.75,14.25 L22.75,13 L19.75,13 L19.75,14.25 L22.75,14.25 Z M10.75,15.75 L21.25,15.75 L21.25,12.75 L10.75,12.75 L10.75,15.75 Z M18.25,18 C18.25,16.757 17.243,15.75 16,15.75 L16,18.75 C15.586,18.75 15.25,18.414 15.25,18 L18.25,18 Z M18.25,23 L18.25,18 L15.25,18 L15.25,23 L18.25,23 Z M16,25.25 C17.243,25.25 18.25,24.243 18.25,23 L15.25,23 C15.25,22.586 15.586,22.25 16,22.25 L16,25.25 Z M13.75,23 C13.75,24.243 14.757,25.25 16,25.25 L16,22.25 C16.414,22.25 16.75,22.586 16.75,23 L13.75,23 Z M13.75,18 L13.75,23 L16.75,23 L16.75,18 L13.75,18 Z M16,15.75 C14.757,15.75 13.75,16.757 13.75,18 L16.75,18 C16.75,18.414 16.414,18.75 16,18.75 L16,15.75 Z"/>
  <path fill="#151E28" d="M22.53,5.47 C22.823,5.763 22.823,6.237 22.53,6.53 L20.803,8.257 C22.007,9.476 22.75,11.151 22.75,13 L22.75,13.598 C23.34,13.201 23.569,13.029 23.738,12.823 C23.926,12.595 24.067,12.331 24.153,12.048 C24.242,11.754 24.25,11.417 24.25,10.431 L24.25,10 C24.25,9.586 24.586,9.25 25,9.25 C25.414,9.25 25.75,9.586 25.75,10 L25.75,10.542 C25.75,11.374 25.75,11.95 25.588,12.484 C25.445,12.956 25.21,13.395 24.897,13.776 C24.542,14.207 24.063,14.526 23.371,14.988 L23.279,15.049 L22.75,15.401 L22.75,18.599 L23.279,18.951 L23.371,19.012 C24.063,19.474 24.542,19.793 24.897,20.225 C25.21,20.605 25.445,21.044 25.588,21.516 C25.75,22.051 25.75,22.626 25.75,23.458 L25.75,24 C25.75,24.414 25.414,24.75 25,24.75 C24.586,24.75 24.25,24.414 24.25,24 L24.25,23.569 C24.25,22.583 24.242,22.246 24.153,21.952 C24.067,21.669 23.926,21.405 23.738,21.177 C23.568,20.97 23.337,20.797 22.739,20.395 C22.534,23.939 19.596,26.75 16,26.75 C12.405,26.75 9.466,23.939 9.261,20.395 C8.663,20.797 8.432,20.97 8.262,21.177 C8.074,21.405 7.933,21.669 7.847,21.952 C7.758,22.246 7.75,22.583 7.75,23.569 L7.75,24 C7.75,24.414 7.414,24.75 7,24.75 C6.586,24.75 6.25,24.414 6.25,24 L6.25,23.569 L6.25,23.458 C6.25,22.626 6.249,22.05 6.412,21.516 C6.555,21.044 6.79,20.605 7.103,20.225 C7.458,19.793 7.937,19.474 8.629,19.012 L8.721,18.951 L9.25,18.599 L9.25,15.401 L8.721,15.049 L8.629,14.988 C7.937,14.526 7.458,14.207 7.103,13.776 C6.79,13.395 6.555,12.956 6.412,12.484 C6.249,11.95 6.25,11.374 6.25,10.542 L6.25,10.431 L6.25,10 C6.25,9.586 6.586,9.25 7,9.25 C7.414,9.25 7.75,9.586 7.75,10 L7.75,10.431 C7.75,11.417 7.758,11.754 7.847,12.048 C7.933,12.331 8.074,12.595 8.262,12.823 C8.431,13.029 8.66,13.201 9.25,13.598 L9.25,13 C9.25,11.151 9.993,9.476 11.197,8.257 L9.47,6.53 C9.177,6.237 9.177,5.763 9.47,5.47 C9.763,5.177 10.237,5.177 10.53,5.47 L12.369,7.309 C13.418,6.638 14.663,6.25 16,6.25 C17.337,6.25 18.582,6.638 19.631,7.309 L21.47,5.47 C21.763,5.177 22.237,5.177 22.53,5.47 Z M10.75,19.01 L10.75,20 C10.75,22.899 13.101,25.25 16,25.25 C18.899,25.25 21.25,22.899 21.25,20 L21.25,19.01 L21.25,19.001 L21.25,18.988 L21.25,15.75 L10.75,15.75 L10.75,18.988 C10.75,18.996 10.75,19.003 10.75,19.01 Z M10.75,14.25 L21.25,14.25 L21.25,13 C21.25,10.101 18.899,7.75 16,7.75 C13.101,7.75 10.75,10.101 10.75,13 Z M16,17.25 C16.414,17.25 16.75,17.586 16.75,18 L16.75,23 C16.75,23.414 16.414,23.75 16,23.75 C15.586,23.75 15.25,23.414 15.25,23 L15.25,18 C15.25,17.586 15.586,17.25 16,17.25 Z"/>
</svg>

