<svg xmlns="http://www.w3.org/2000/svg" viewBox="0 0 32 32">
  <defs/>
  <path fill="white" d="M10,12 L22,12 L22,21.8 C22,22.92 22,23.48 21.782,23.908 C21.59,24.284 21.284,24.59 20.908,24.782 C20.48,25 19.92,25 18.8,25 L13.2,25 C12.08,25 11.52,25 11.092,24.782 C10.716,24.59 10.41,24.284 10.218,23.908 C10,23.48 10,22.92 10,21.8 L10,12 Z"/>
  <path fill="white" d="M23.025,8.25 L23.025,9.75 L23.025,9.75 L23.025,8.25 Z M24.145,8.271 L24.043,9.767 L24.043,9.767 L24.145,8.271 Z M25.052,8.459 L26.438,9.033 C26.755,8.268 26.392,7.391 25.626,7.074 L25.052,8.459 Z M23.379,8.578 C23.062,9.344 23.426,10.221 24.191,10.538 C24.956,10.855 25.834,10.492 26.151,9.726 L23.379,8.578 Z M25.052,8.459 L25.626,7.074 C24.861,6.756 23.983,7.12 23.666,7.885 L25.052,8.459 Z M26.54,9.948 L25.155,10.522 L25.155,10.522 L26.54,9.948 Z M26.729,10.855 L28.226,10.752 L28.226,10.752 L26.729,10.855 Z M26.75,11.975 L25.25,11.975 L25.25,11.975 L26.75,11.975 Z M26.75,12.025 L25.25,12.025 L25.25,12.025 L26.75,12.025 Z M26.729,13.145 L28.226,13.248 L28.226,13.248 L26.729,13.145 Z M26.54,14.052 L25.155,13.478 L25.155,13.478 L26.54,14.052 Z M25.052,15.541 L25.626,16.927 L25.626,16.927 L25.052,15.541 Z M24.038,15.736 L24.115,17.234 L24.115,17.234 L24.038,15.736 Z M23.251,15.025 L21.753,15.102 L21.753,15.102 L23.251,15.025 Z M23.962,14.238 L23.885,12.739 L23.885,12.739 L23.962,14.238 Z M24.478,14.155 L23.904,12.769 L23.904,12.769 L24.478,14.155 Z M25.155,13.478 L26.54,14.052 L26.54,14.052 L25.155,13.478 Z M25.233,13.043 L23.736,12.941 L23.736,12.941 L25.233,13.043 Z M25.233,10.957 L23.736,11.059 L23.736,11.059 L25.233,10.957 Z M25.155,10.522 L26.54,9.948 L26.54,9.948 L25.155,10.522 Z M24.478,9.845 L25.052,8.459 L25.052,8.459 L24.478,9.845 Z M24.043,9.767 L24.145,8.271 L24.145,8.271 L24.043,9.767 Z M7.957,9.767 L8.059,11.264 L8.059,11.264 L7.957,9.767 Z M7.522,9.845 L8.096,11.231 L8.096,11.231 L7.522,9.845 Z M6.845,10.522 L8.231,11.096 L8.231,11.096 L6.845,10.522 Z M6.767,10.957 L8.264,11.059 L8.264,11.059 L6.767,10.957 Z M6.767,13.043 L8.264,12.941 L8.264,12.941 L6.767,13.043 Z M6.845,13.478 L5.459,14.052 L5.459,14.052 L6.845,13.478 Z M7.522,14.155 L8.096,12.769 L8.096,12.769 L7.522,14.155 Z M8.038,14.238 L8.115,12.739 L8.115,12.739 L8.038,14.238 Z M8.749,15.025 L10.247,15.101 L10.247,15.101 L8.749,15.025 Z M7.962,15.736 L7.885,17.234 L7.885,17.234 L7.962,15.736 Z M6.948,15.541 L6.374,16.927 L6.374,16.927 L6.948,15.541 Z M5.459,14.052 L4.074,14.626 L4.074,14.626 L5.459,14.052 Z M5.271,13.145 L3.774,13.248 L5.271,13.145 Z M5.25,12.025 L6.75,12.025 L6.75,12.025 L5.25,12.025 Z M5.25,11.975 L6.75,11.975 L6.75,11.975 L5.25,11.975 Z M5.271,10.855 L6.767,10.957 L6.767,10.957 L5.271,10.855 Z M5.459,9.948 L4.074,9.374 L4.074,9.374 L5.459,9.948 Z M6.948,8.459 L6.374,7.074 L6.374,7.074 L6.948,8.459 Z M7.855,8.271 L7.957,9.767 L7.957,9.767 L7.855,8.271 Z M8.975,8.25 L8.975,9.75 L8.975,9.75 L8.975,8.25 Z M22.75,12.75 L22.75,11.25 C21.922,11.25 21.25,11.922 21.25,12.75 L22.75,12.75 Z M22.75,21.831 L21.25,21.831 L21.25,21.831 L22.75,21.831 Z M22.72,23.175 L24.215,23.297 L24.215,23.297 L22.72,23.175 Z M22.45,24.248 L23.787,24.93 L23.787,24.93 L22.45,24.248 Z M21.248,25.45 L21.929,26.787 L21.929,26.787 L21.248,25.45 Z M20.175,25.72 L20.297,27.215 L20.297,27.215 L20.175,25.72 Z M19.008,25.75 L19.007,24.25 L19,24.25 L19.008,25.75 Z M19,25.75 L18.993,27.25 C18.998,27.25 19.003,27.25 19.008,27.25 L19,25.75 Z M18.993,25.75 L19,24.25 L18.993,24.25 L18.993,25.75 Z M18.831,25.75 L18.831,27.25 L18.831,27.25 L18.831,25.75 Z M13.169,25.75 L13.169,24.25 L13.169,24.25 L13.169,25.75 Z M11.825,25.72 L11.703,27.215 L11.703,27.215 L11.825,25.72 Z M10.752,25.45 L10.07,26.787 L10.07,26.787 L10.752,25.45 Z M9.55,24.248 L8.213,24.93 L8.213,24.93 L9.55,24.248 Z M9.28,23.175 L10.775,23.052 L10.775,23.052 L9.28,23.175 Z M9.25,21.83 L10.75,21.831 L10.75,21.83 L9.25,21.83 Z M9.25,21.8 L10.75,21.8 L10.75,21.8 L9.25,21.8 Z M9.25,12.75 L10.75,12.75 C10.75,11.922 10.078,11.25 9.25,11.25 L9.25,12.75 Z M18.25,12.75 L19.75,12.75 C19.75,11.922 19.078,11.25 18.25,11.25 L18.25,12.75 Z M10.75,12.75 L10.75,11.25 C9.922,11.25 9.25,11.922 9.25,12.75 L10.75,12.75 Z M18.25,24.25 L18.25,25.75 C19.078,25.75 19.75,25.078 19.75,24.25 L18.25,24.25 Z M11.947,24.225 L11.825,25.72 L11.825,25.72 L11.947,24.225 Z M11.432,24.114 L12.114,22.777 L12.114,22.777 L11.432,24.114 Z M10.886,23.567 L12.223,22.887 L12.223,22.887 L10.886,23.567 Z M10.775,23.052 L9.28,23.175 L9.28,23.175 L10.775,23.052 Z M19.75,24.242 L18.25,24.242 C18.25,24.648 18.415,25.037 18.707,25.32 C18.999,25.602 19.393,25.754 19.799,25.741 L19.75,24.242 Z M19.75,12.75 L19.75,11.25 C18.922,11.25 18.25,11.922 18.25,12.75 L19.75,12.75 Z M20.052,24.225 L20.175,25.72 L20.175,25.72 L20.052,24.225 Z M20.567,24.114 L19.887,22.777 L19.886,22.777 L20.567,24.114 Z M21.114,23.567 L19.777,22.887 L19.777,22.887 L21.114,23.567 Z M21.225,23.052 L22.72,23.175 L22.72,23.175 L21.225,23.052 Z M21.25,12.75 L22.75,12.75 C22.75,11.922 22.078,11.25 21.25,11.25 L21.25,12.75 Z M9,6.75 L8.975,6.75 L8.975,9.75 L9,9.75 L9,6.75 Z M23,6.75 L9,6.75 L9,9.75 L23,9.75 L23,6.75 Z M23.025,6.75 L23,6.75 L23,9.75 L23.025,9.75 L23.025,6.75 Z M24.247,6.774 C23.88,6.749 23.451,6.75 23.025,6.75 L23.025,9.75 C23.488,9.75 23.801,9.751 24.043,9.767 L24.247,6.774 Z M25.626,7.074 C25.123,6.865 24.641,6.801 24.247,6.774 L24.043,9.767 C24.283,9.784 24.401,9.813 24.478,9.845 L25.626,7.074 Z M26.151,9.726 L26.438,9.033 L23.666,7.885 L23.379,8.578 L26.151,9.726 Z M23.666,7.885 L23.379,8.578 L26.151,9.726 L26.438,9.033 L23.666,7.885 Z M27.926,9.374 C27.495,8.332 26.668,7.505 25.626,7.074 L24.478,9.845 C24.784,9.972 25.028,10.215 25.155,10.522 L27.926,9.374 Z M28.226,10.752 C28.199,10.359 28.135,9.877 27.926,9.374 L25.155,10.522 C25.187,10.599 25.216,10.716 25.233,10.957 L28.226,10.752 Z M28.25,11.975 C28.25,11.548 28.251,11.119 28.226,10.752 L25.233,10.957 C25.249,11.199 25.25,11.512 25.25,11.975 L28.25,11.975 Z M28.25,12 L28.25,11.975 L25.25,11.975 L25.25,12 L28.25,12 Z M28.25,12.025 L28.25,12 L25.25,12 L25.25,12.025 L28.25,12.025 Z M28.226,13.248 C28.251,12.88 28.25,12.452 28.25,12.025 L25.25,12.025 C25.25,12.488 25.249,12.801 25.233,13.043 L28.226,13.248 Z M27.926,14.626 C28.135,14.123 28.199,13.641 28.226,13.248 L25.233,13.043 C25.216,13.284 25.187,13.401 25.155,13.478 L27.926,14.626 Z M25.626,16.927 C26.668,16.495 27.495,15.668 27.926,14.626 L25.155,13.478 C25.028,13.785 24.784,14.028 24.478,14.155 L25.626,16.927 Z M24.115,17.234 C24.536,17.212 25.071,17.156 25.626,16.927 L24.478,14.155 C24.391,14.191 24.257,14.222 23.962,14.238 L24.115,17.234 Z M21.753,15.102 C21.817,16.343 22.874,17.297 24.115,17.234 L23.962,14.238 C24.375,14.216 24.728,14.534 24.749,14.948 L21.753,15.102 Z M23.885,12.739 C22.644,12.803 21.689,13.861 21.753,15.102 L24.749,14.948 C24.77,15.362 24.452,15.714 24.038,15.736 L23.885,12.739 Z M23.904,12.769 C23.921,12.762 23.937,12.756 23.953,12.75 C23.969,12.745 23.984,12.74 23.997,12.737 C24.022,12.73 24.037,12.727 24.039,12.727 C24.04,12.726 24.029,12.728 24.003,12.731 C23.977,12.734 23.939,12.737 23.885,12.739 L24.038,15.736 C24.395,15.717 24.73,15.674 25.052,15.541 L23.904,12.769 Z M23.769,12.904 C23.794,12.843 23.843,12.794 23.904,12.769 L25.052,15.541 C25.726,15.261 26.261,14.726 26.54,14.052 L23.769,12.904 Z M23.736,12.941 C23.733,12.979 23.731,13.006 23.729,13.022 C23.727,13.038 23.726,13.042 23.727,13.036 C23.728,13.03 23.732,13.013 23.739,12.989 C23.746,12.964 23.756,12.935 23.769,12.904 L26.54,14.052 C26.661,13.761 26.707,13.461 26.729,13.145 L23.736,12.941 Z M23.75,12 C23.75,12.497 23.748,12.757 23.736,12.941 L26.729,13.145 C26.75,12.835 26.75,12.455 26.75,12 L23.75,12 Z M23.736,11.059 C23.748,11.243 23.75,11.503 23.75,12 L26.75,12 C26.75,11.545 26.75,11.165 26.729,10.855 L23.736,11.059 Z M23.769,11.096 C23.756,11.065 23.746,11.036 23.739,11.011 C23.732,10.986 23.728,10.97 23.727,10.964 C23.726,10.958 23.727,10.962 23.729,10.978 C23.731,10.994 23.733,11.02 23.736,11.059 L26.729,10.855 C26.707,10.539 26.661,10.239 26.54,9.948 L23.769,11.096 Z M23.904,11.231 C23.843,11.206 23.794,11.157 23.769,11.096 L26.54,9.948 C26.261,9.274 25.726,8.738 25.052,8.459 L23.904,11.231 Z M23.941,11.264 C23.979,11.266 24.005,11.269 24.021,11.271 C24.038,11.273 24.041,11.274 24.036,11.273 C24.03,11.272 24.013,11.268 23.989,11.261 C23.964,11.254 23.935,11.244 23.904,11.231 L25.052,8.459 C24.761,8.339 24.461,8.292 24.145,8.271 L23.941,11.264 Z M23,11.25 C23.497,11.25 23.756,11.251 23.941,11.264 L24.145,8.271 C23.835,8.25 23.455,8.25 23,8.25 L23,11.25 Z M9,11.25 L23,11.25 L23,8.25 L9,8.25 L9,11.25 Z M8.059,11.264 C8.243,11.251 8.503,11.25 9,11.25 L9,8.25 C8.545,8.25 8.165,8.25 7.855,8.271 L8.059,11.264 Z M8.096,11.231 C8.065,11.244 8.036,11.254 8.011,11.261 C7.987,11.268 7.97,11.272 7.964,11.273 C7.958,11.274 7.962,11.273 7.978,11.271 C7.994,11.269 8.02,11.266 8.059,11.264 L7.855,8.271 C7.539,8.292 7.239,8.339 6.948,8.459 L8.096,11.231 Z M8.231,11.096 C8.206,11.157 8.157,11.206 8.096,11.231 L6.948,8.459 C6.274,8.738 5.738,9.274 5.459,9.948 L8.231,11.096 Z M8.264,11.059 C8.266,11.02 8.269,10.994 8.271,10.978 C8.273,10.962 8.274,10.958 8.273,10.964 C8.272,10.97 8.268,10.986 8.261,11.011 C8.254,11.036 8.244,11.065 8.231,11.096 L5.459,9.948 C5.339,10.239 5.292,10.539 5.271,10.855 L8.264,11.059 Z M8.25,12 C8.25,11.503 8.251,11.243 8.264,11.059 L5.271,10.855 C5.25,11.165 5.25,11.545 5.25,12 L8.25,12 Z M8.264,12.941 C8.251,12.757 8.25,12.497 8.25,12 L5.25,12 C5.25,12.455 5.25,12.835 5.271,13.145 L8.264,12.941 Z M8.231,12.904 C8.244,12.935 8.254,12.964 8.261,12.989 C8.268,13.013 8.272,13.03 8.273,13.036 C8.274,13.042 8.273,13.038 8.271,13.022 C8.269,13.006 8.266,12.979 8.264,12.941 L5.271,13.145 C5.292,13.461 5.339,13.761 5.459,14.052 L8.231,12.904 Z M8.096,12.769 C8.157,12.794 8.206,12.843 8.231,12.904 L5.459,14.052 C5.738,14.726 6.274,15.261 6.948,15.541 L8.096,12.769 Z M8.115,12.739 C8.061,12.737 8.023,12.734 7.997,12.731 C7.971,12.728 7.96,12.726 7.961,12.727 C7.963,12.727 7.978,12.73 8.003,12.737 C8.016,12.74 8.03,12.745 8.046,12.75 C8.063,12.756 8.079,12.762 8.096,12.769 L6.948,15.541 C7.27,15.674 7.605,15.717 7.962,15.736 L8.115,12.739 Z M10.247,15.101 C10.31,13.861 9.356,12.803 8.115,12.739 L7.962,15.736 C7.548,15.714 7.23,15.362 7.251,14.948 L10.247,15.101 Z M7.885,17.234 C9.126,17.297 10.184,16.343 10.247,15.101 L7.251,14.948 C7.272,14.535 7.625,14.216 8.038,14.238 L7.885,17.234 Z M6.374,16.927 C6.929,17.157 7.464,17.212 7.885,17.234 L8.038,14.238 C7.743,14.222 7.609,14.191 7.522,14.155 L6.374,16.927 Z M4.074,14.626 C4.505,15.668 5.332,16.495 6.374,16.927 L7.522,14.155 C7.215,14.028 6.972,13.785 6.845,13.478 L4.074,14.626 Z M3.774,13.248 C3.801,13.641 3.865,14.123 4.074,14.626 L6.845,13.478 C6.813,13.401 6.784,13.284 6.767,13.043 L3.774,13.248 Z M3.75,12.025 C3.75,12.452 3.749,12.88 3.774,13.248 L6.767,13.043 C6.751,12.801 6.75,12.488 6.75,12.025 L3.75,12.025 Z M3.75,12.025 L3.75,12.025 L6.75,12.025 L6.75,12.025 L3.75,12.025 Z M3.75,12 L3.75,12.025 L6.75,12.025 L6.75,12 L3.75,12 Z M3.75,11.975 L3.75,12 L6.75,12 L6.75,11.975 L3.75,11.975 Z M3.75,11.975 L3.75,11.975 L6.75,11.975 L6.75,11.975 L3.75,11.975 Z M3.774,10.752 C3.749,11.119 3.75,11.548 3.75,11.975 L6.75,11.975 C6.75,11.512 6.751,11.199 6.767,10.957 L3.774,10.752 Z M4.074,9.374 C3.865,9.877 3.801,10.359 3.774,10.752 L6.767,10.957 C6.784,10.716 6.813,10.599 6.845,10.522 L4.074,9.374 Z M6.374,7.074 C5.332,7.505 4.505,8.332 4.074,9.374 L6.845,10.522 C6.972,10.215 7.215,9.972 7.522,9.845 L6.374,7.074 Z M7.753,6.774 C7.359,6.801 6.877,6.865 6.374,7.074 L7.522,9.845 C7.599,9.813 7.716,9.784 7.957,9.767 L7.753,6.774 Z M8.975,6.75 C8.548,6.75 8.119,6.749 7.753,6.774 L7.957,9.767 C8.199,9.751 8.512,9.75 8.975,9.75 L8.975,6.75 Z M8.975,6.75 L8.975,6.75 L8.975,9.75 L8.975,9.75 L8.975,6.75 Z M9,9.75 C7.757,9.75 6.75,10.757 6.75,12 L9.75,12 C9.75,12.414 9.414,12.75 9,12.75 L9,9.75 Z M10,9.75 L9,9.75 L9,12.75 L10,12.75 L10,9.75 Z M19,9.75 L10,9.75 L10,12.75 L19,12.75 L19,9.75 Z M22,9.75 L19,9.75 L19,12.75 L22,12.75 L22,9.75 Z M23,9.75 L22,9.75 L22,12.75 L23,12.75 L23,9.75 Z M25.25,12 C25.25,10.757 24.243,9.75 23,9.75 L23,12.75 C22.586,12.75 22.25,12.414 22.25,12 L25.25,12 Z M23,14.25 C24.243,14.25 25.25,13.243 25.25,12 L22.25,12 C22.25,11.586 22.586,11.25 23,11.25 L23,14.25 Z M22.75,14.25 L23,14.25 L23,11.25 L22.75,11.25 L22.75,14.25 Z M24.25,21.8 L24.25,12.75 L21.25,12.75 L21.25,21.8 L24.25,21.8 Z M24.25,21.831 L24.25,21.8 L21.25,21.8 L21.25,21.831 L24.25,21.831 Z M24.25,21.831 L24.25,21.831 L21.25,21.831 L21.25,21.831 L24.25,21.831 Z M24.215,23.297 C24.251,22.858 24.25,22.343 24.25,21.831 L21.25,21.831 C21.25,22.387 21.249,22.763 21.225,23.052 L24.215,23.297 Z M23.787,24.93 C24.084,24.346 24.177,23.77 24.215,23.297 L21.225,23.052 C21.202,23.339 21.16,23.477 21.114,23.567 L23.787,24.93 Z M21.929,26.787 C22.729,26.379 23.379,25.729 23.787,24.93 L21.114,23.567 C20.994,23.803 20.803,23.994 20.567,24.114 L21.929,26.787 Z M20.297,27.215 C20.77,27.177 21.346,27.084 21.929,26.787 L20.567,24.114 C20.477,24.16 20.339,24.202 20.052,24.225 L20.297,27.215 Z M19.009,27.25 C19.455,27.25 19.903,27.247 20.297,27.215 L20.052,24.225 C19.8,24.246 19.473,24.25 19.007,24.25 L19.009,27.25 Z M19.008,27.25 L19.015,27.25 L19,24.25 L18.992,24.25 L19.008,27.25 Z M18.986,27.25 L18.993,27.25 L19.007,24.25 L19,24.25 L18.986,27.25 Z M18.831,27.25 L18.994,27.25 L18.993,24.25 L18.83,24.25 L18.831,27.25 Z M18.83,27.25 L18.831,27.25 L18.831,24.25 L18.83,24.25 L18.83,27.25 Z M18.8,27.25 L18.83,27.25 L18.83,24.25 L18.8,24.25 L18.8,27.25 Z M13.2,27.25 L18.8,27.25 L18.8,24.25 L13.2,24.25 L13.2,27.25 Z M13.169,27.25 L13.2,27.25 L13.2,24.25 L13.169,24.25 L13.169,27.25 Z M13.169,27.25 L13.169,27.25 L13.169,24.25 L13.169,24.25 L13.169,27.25 Z M11.703,27.215 C12.142,27.251 12.657,27.25 13.169,27.25 L13.169,24.25 C12.613,24.25 12.237,24.249 11.947,24.225 L11.703,27.215 Z M10.07,26.787 C10.654,27.084 11.23,27.177 11.703,27.215 L11.947,24.225 C11.661,24.202 11.523,24.16 11.432,24.114 L10.07,26.787 Z M8.213,24.93 C8.621,25.729 9.271,26.379 10.07,26.787 L11.432,24.114 C11.197,23.994 11.006,23.803 10.886,23.567 L8.213,24.93 Z M7.785,23.297 C7.823,23.77 7.916,24.346 8.213,24.93 L10.886,23.567 C10.84,23.477 10.798,23.339 10.775,23.052 L7.785,23.297 Z M7.75,21.83 C7.75,22.343 7.749,22.858 7.785,23.297 L10.775,23.052 C10.751,22.763 10.75,22.387 10.75,21.831 L7.75,21.83 Z M7.75,21.8 L7.75,21.83 L10.75,21.83 L10.75,21.8 L7.75,21.8 Z M7.75,12.75 L7.75,21.8 L10.75,21.8 L10.75,12.75 L7.75,12.75 Z M9,14.25 L9.25,14.25 L9.25,11.25 L9,11.25 L9,14.25 Z M6.75,12 C6.75,13.243 7.757,14.25 9,14.25 L9,11.25 C9.414,11.25 9.75,11.586 9.75,12 L6.75,12 Z M18.25,11.25 L10.75,11.25 L10.75,14.25 L18.25,14.25 L18.25,11.25 Z M19.75,24.25 L19.75,12.75 L16.75,12.75 L16.75,24.25 L19.75,24.25 Z M13.2,25.75 L18.25,25.75 L18.25,22.75 L13.2,22.75 L13.2,25.75 Z M11.825,25.72 C12.197,25.751 12.653,25.75 13.2,25.75 L13.2,22.75 C12.602,22.75 12.29,22.748 12.07,22.73 L11.825,25.72 Z M10.752,25.45 C11.089,25.622 11.446,25.689 11.825,25.72 L12.07,22.73 C12.024,22.727 11.993,22.723 11.974,22.72 C11.956,22.717 11.952,22.716 11.96,22.718 C11.968,22.72 11.988,22.725 12.017,22.735 C12.047,22.746 12.08,22.76 12.114,22.777 L10.752,25.45 Z M9.55,24.248 C9.813,24.766 10.234,25.187 10.752,25.45 L12.114,22.777 C12.161,22.801 12.199,22.84 12.223,22.887 L9.55,24.248 Z M9.28,23.175 C9.311,23.554 9.378,23.911 9.55,24.248 L12.223,22.887 C12.24,22.92 12.254,22.953 12.265,22.983 C12.275,23.012 12.28,23.032 12.282,23.04 C12.284,23.048 12.283,23.044 12.28,23.026 C12.277,23.007 12.274,22.976 12.27,22.93 L9.28,23.175 Z M9.25,21.8 C9.25,22.347 9.249,22.803 9.28,23.175 L12.27,22.93 C12.252,22.71 12.25,22.398 12.25,21.8 L9.25,21.8 Z M9.25,12.75 L9.25,21.8 L12.25,21.8 L12.25,12.75 L9.25,12.75 Z M21.25,24.242 L21.25,12.75 L18.25,12.75 L18.25,24.242 L21.25,24.242 Z M19.93,22.73 C19.87,22.735 19.796,22.739 19.701,22.742 L19.799,25.741 C19.927,25.737 20.052,25.73 20.175,25.72 L19.93,22.73 Z M19.886,22.777 C19.92,22.76 19.953,22.746 19.983,22.735 C20.012,22.725 20.032,22.72 20.04,22.718 C20.048,22.716 20.044,22.717 20.026,22.72 C20.007,22.723 19.976,22.727 19.93,22.73 L20.175,25.72 C20.554,25.689 20.911,25.622 21.248,25.45 L19.886,22.777 Z M19.777,22.887 C19.801,22.84 19.839,22.801 19.887,22.777 L21.248,25.45 C21.766,25.187 22.187,24.766 22.45,24.248 L19.777,22.887 Z M19.73,22.93 C19.726,22.976 19.723,23.007 19.72,23.026 C19.717,23.044 19.716,23.048 19.718,23.04 C19.72,23.032 19.725,23.012 19.735,22.983 C19.746,22.953 19.76,22.92 19.777,22.887 L22.45,24.248 C22.622,23.911 22.689,23.554 22.72,23.175 L19.73,22.93 Z M19.75,21.8 C19.75,22.398 19.748,22.71 19.73,22.93 L22.72,23.175 C22.751,22.803 22.75,22.347 22.75,21.8 L19.75,21.8 Z M19.75,12.75 L19.75,21.8 L22.75,21.8 L22.75,12.75 L19.75,12.75 Z M19.75,14.25 L21.25,14.25 L21.25,11.25 L19.75,11.25 L19.75,14.25 Z M16,20.25 C15.586,20.25 15.25,19.914 15.25,19.5 L18.25,19.5 C18.25,18.257 17.243,17.25 16,17.25 L16,20.25 Z M16.75,19.5 C16.75,19.914 16.414,20.25 16,20.25 L16,17.25 C14.757,17.25 13.75,18.257 13.75,19.5 L16.75,19.5 Z M16.75,22 L16.75,19.5 L13.75,19.5 L13.75,22 L16.75,22 Z M16,21.25 C16.414,21.25 16.75,21.586 16.75,22 L13.75,22 C13.75,23.243 14.757,24.25 16,24.25 L16,21.25 Z M15.25,22 C15.25,21.586 15.586,21.25 16,21.25 L16,24.25 C17.243,24.25 18.25,23.243 18.25,22 L15.25,22 Z M15.25,19.5 L15.25,22 L18.25,22 L18.25,19.5 L15.25,19.5 Z"/>
  <path fill="#151E28" d="M8.25,12 C8.25,11.586 8.586,11.25 9,11.25 L23,11.25 C23.414,11.25 23.75,11.586 23.75,12 C23.75,12.414 23.414,12.75 23,12.75 L22.75,12.75 L22.75,21.83 C22.75,22.365 22.75,22.81 22.72,23.175 C22.689,23.555 22.622,23.911 22.45,24.249 C22.187,24.766 21.766,25.187 21.248,25.45 C20.911,25.622 20.555,25.689 20.175,25.72 C19.851,25.747 19.464,25.75 19.008,25.75 L13.169,25.75 C12.635,25.75 12.189,25.75 11.825,25.72 C11.445,25.689 11.089,25.622 10.752,25.45 C10.234,25.187 9.813,24.766 9.55,24.249 C9.378,23.911 9.311,23.555 9.28,23.175 C9.25,22.81 9.25,22.365 9.25,21.83 L9.25,12.75 L9,12.75 C8.586,12.75 8.25,12.414 8.25,12 Z M10.75,12.75 L10.75,21.8 C10.75,22.372 10.75,22.757 10.775,23.052 C10.798,23.34 10.84,23.477 10.886,23.567 C11.006,23.803 11.197,23.994 11.432,24.114 C11.523,24.16 11.66,24.202 11.947,24.225 C12.243,24.249 12.627,24.25 13.2,24.25 L18.25,24.25 L18.25,12.75 Z M9,8.25 L23.026,8.25 C23.47,8.25 23.841,8.25 24.145,8.271 C24.462,8.292 24.762,8.339 25.052,8.459 C25.726,8.738 26.261,9.274 26.54,9.948 C26.661,10.238 26.707,10.538 26.729,10.855 C26.75,11.159 26.75,11.53 26.75,11.975 L26.75,12.025 C26.75,12.47 26.75,12.841 26.729,13.145 C26.707,13.462 26.661,13.762 26.54,14.052 C26.261,14.726 25.726,15.262 25.052,15.541 C24.731,15.674 24.397,15.717 24.038,15.736 C23.625,15.757 23.272,15.439 23.251,15.025 C23.23,14.611 23.548,14.259 23.962,14.238 C24.258,14.222 24.392,14.191 24.478,14.155 C24.784,14.028 25.028,13.785 25.155,13.478 C25.187,13.401 25.216,13.284 25.233,13.043 C25.249,12.796 25.25,12.476 25.25,12 C25.25,11.524 25.249,11.204 25.233,10.957 C25.216,10.716 25.187,10.599 25.155,10.522 C25.028,10.215 24.784,9.972 24.478,9.845 C24.401,9.813 24.284,9.784 24.043,9.767 C23.796,9.75 23.476,9.75 23,9.75 L9,9.75 C8.524,9.75 8.204,9.75 7.957,9.767 C7.716,9.784 7.599,9.813 7.522,9.845 C7.215,9.972 6.972,10.215 6.845,10.522 C6.813,10.599 6.784,10.716 6.767,10.957 C6.75,11.204 6.75,11.524 6.75,12 C6.75,12.476 6.75,12.796 6.767,13.043 C6.784,13.284 6.813,13.401 6.845,13.478 C6.972,13.785 7.215,14.028 7.522,14.155 C7.608,14.191 7.742,14.222 8.038,14.238 C8.452,14.259 8.77,14.611 8.749,15.025 C8.728,15.439 8.375,15.757 7.962,15.736 C7.603,15.717 7.269,15.674 6.948,15.541 C6.274,15.262 5.738,14.726 5.459,14.052 C5.339,13.762 5.292,13.462 5.271,13.145 C5.25,12.841 5.25,12.47 5.25,12.025 L5.25,11.975 C5.25,11.53 5.25,11.159 5.271,10.855 C5.292,10.538 5.339,10.238 5.459,9.948 C5.738,9.274 6.274,8.738 6.948,8.459 C7.238,8.339 7.538,8.292 7.855,8.271 C8.159,8.25 8.53,8.25 8.974,8.25 L9,8.25 Z M19.75,12.75 L19.75,24.242 C19.861,24.238 19.961,24.233 20.052,24.225 C20.34,24.202 20.477,24.16 20.567,24.114 C20.803,23.994 20.994,23.803 21.114,23.567 C21.16,23.477 21.202,23.34 21.225,23.052 C21.249,22.757 21.25,22.372 21.25,21.8 L21.25,12.75 Z M16.75,19.5 L16.75,22 C16.75,22.414 16.414,22.75 16,22.75 C15.586,22.75 15.25,22.414 15.25,22 L15.25,19.5 C15.25,19.086 15.586,18.75 16,18.75 C16.414,18.75 16.75,19.086 16.75,19.5 Z"/>
</svg>

