<svg xmlns="http://www.w3.org/2000/svg" viewBox="0 0 32 32">
  <defs/>
  <path fill="white" d="M18,19.647 L8.872,24.479 C8.002,24.94 7.06,23.998 7.521,23.128 L12.353,13.999 C13.668,11.515 17.012,11.012 19,13 C20.988,14.988 20.485,18.331 18,19.647 Z"/>
  <path fill="white" d="M22.967,7.913 L23.901,6.739 L23.901,6.739 L22.967,7.913 Z M23.25,8.522 L24.749,8.565 L24.749,8.565 L23.25,8.522 Z M22.311,7.774 L22.689,9.226 L22.689,9.226 L22.311,7.774 Z M20.448,8.26 L19.145,9.003 C19.48,9.592 20.17,9.883 20.826,9.712 L20.448,8.26 Z M19.399,6.42 L20.702,5.677 L20.702,5.677 L19.399,6.42 Z M18.713,6.042 L18.782,7.541 L18.782,7.541 L18.713,6.042 Z M18.065,6.481 L19.43,7.102 L19.43,7.102 L18.065,6.481 Z M17.059,8.689 L15.694,8.068 L15.694,8.068 L17.059,8.689 Z M17.431,9.683 L16.81,11.048 L16.81,11.048 L17.431,9.683 Z M18.425,9.311 L17.059,8.689 L17.059,8.689 L18.425,9.311 Z M18.822,8.437 L20.125,7.695 C19.846,7.205 19.317,6.913 18.754,6.939 C18.191,6.965 17.691,7.303 17.457,7.816 L18.822,8.437 Z M19.429,9.502 L18.126,10.245 L18.126,10.245 L19.429,9.502 Z M20.27,9.857 L19.892,8.405 L19.892,8.405 L20.27,9.857 Z M21.722,9.478 L23.221,9.521 C23.235,9.049 23.025,8.598 22.656,8.304 C22.286,8.01 21.8,7.907 21.343,8.027 L21.722,9.478 Z M21.678,10.977 L20.179,10.934 L20.179,10.934 L21.678,10.977 Z M22.212,11.717 L22.644,10.281 L22.644,10.281 L22.212,11.717 Z M23.387,12.07 L24.299,13.261 C24.746,12.918 24.963,12.354 24.862,11.8 C24.761,11.246 24.357,10.795 23.818,10.633 L23.387,12.07 Z M22.544,12.715 L23.456,13.906 L23.456,13.906 L22.544,12.715 Z M22.404,13.767 L21.214,14.679 L21.214,14.679 L22.404,13.767 Z M23.456,13.906 L22.544,12.715 L22.544,12.715 L23.456,13.906 Z M25.463,12.369 L24.551,11.178 L24.551,11.178 L25.463,12.369 Z M25.745,11.638 L24.269,11.908 L24.269,11.908 L25.745,11.638 Z M25.223,11.055 L24.791,12.492 L24.791,12.492 L25.223,11.055 Z M23.194,10.446 L21.695,10.403 C21.676,11.081 22.113,11.688 22.763,11.883 L23.194,10.446 Z M11.69,13.649 L10.365,12.947 L10.365,12.947 L11.69,13.649 Z M19.53,12.47 L18.47,13.53 L18.47,13.53 L19.53,12.47 Z M6.858,22.777 L5.532,22.075 L5.532,22.075 L6.858,22.777 Z M9.223,25.142 L8.521,23.817 L8.521,23.817 L9.223,25.142 Z M18.352,20.31 L17.65,18.984 L17.65,18.984 L18.352,20.31 Z M18.47,13.53 L19.53,12.47 L19.53,12.47 L18.47,13.53 Z M13.016,14.35 L14.342,15.052 L14.342,15.052 L13.016,14.35 Z M18.456,18.395 L17.395,19.456 C17.978,20.038 18.921,20.042 19.508,19.465 L18.456,18.395 Z M16.53,16.47 L15.47,17.53 L15.47,17.53 L16.53,16.47 Z M15.47,16.47 L16.53,17.53 L16.53,17.53 L15.47,16.47 Z M15.47,17.53 L16.53,16.47 L16.53,16.47 L15.47,17.53 Z M17.175,19.235 L17.877,20.561 C18.297,20.338 18.587,19.929 18.658,19.458 C18.729,18.988 18.572,18.511 18.235,18.175 L17.175,19.235 Z M8.521,23.817 L7.82,22.491 L7.82,22.491 L8.521,23.817 Z M8.184,23.479 L6.858,22.777 L6.858,22.777 L8.184,23.479 Z M9.995,20.056 L11.056,18.995 C10.72,18.659 10.243,18.502 9.772,18.573 C9.302,18.644 8.892,18.934 8.67,19.354 L9.995,20.056 Z M10.47,20.53 L9.409,21.591 L9.409,21.591 L10.47,20.53 Z M11.53,19.47 L10.47,20.53 L10.47,20.53 L11.53,19.47 Z M10.73,18.669 L9.404,17.967 C9.096,18.549 9.203,19.264 9.669,19.73 L10.73,18.669 Z M22.033,9.087 C21.848,8.94 21.744,8.714 21.75,8.478 L24.749,8.565 C24.769,7.857 24.455,7.18 23.901,6.739 L22.033,9.087 Z M22.689,9.226 C22.461,9.285 22.218,9.234 22.033,9.087 L23.901,6.739 C23.347,6.298 22.617,6.144 21.932,6.323 L22.689,9.226 Z M20.826,9.712 L22.689,9.226 L21.932,6.323 L20.069,6.809 L20.826,9.712 Z M18.096,7.163 L19.145,9.003 L21.751,7.517 L20.702,5.677 L18.096,7.163 Z M18.782,7.541 C18.5,7.554 18.235,7.408 18.096,7.163 L20.702,5.677 C20.284,4.943 19.489,4.506 18.645,4.544 L18.782,7.541 Z M19.43,7.102 C19.313,7.359 19.063,7.528 18.782,7.541 L18.645,4.544 C17.801,4.582 17.05,5.09 16.7,5.859 L19.43,7.102 Z M18.425,9.311 L19.43,7.102 L16.7,5.859 L15.694,8.068 L18.425,9.311 Z M18.053,8.317 C18.43,8.489 18.596,8.934 18.425,9.311 L15.694,8.068 C15.179,9.199 15.679,10.533 16.81,11.048 L18.053,8.317 Z M17.059,8.689 C17.231,8.312 17.676,8.146 18.053,8.317 L16.81,11.048 C17.941,11.563 19.275,11.063 19.79,9.932 L17.059,8.689 Z M17.457,7.816 L17.059,8.689 L19.79,9.932 L20.187,9.059 L17.457,7.816 Z M20.732,8.759 L20.125,7.695 L17.519,9.18 L18.126,10.245 L20.732,8.759 Z M19.892,8.405 C20.22,8.32 20.564,8.465 20.732,8.759 L18.126,10.245 C18.63,11.129 19.664,11.565 20.649,11.308 L19.892,8.405 Z M21.343,8.027 L19.892,8.405 L20.649,11.308 L22.1,10.93 L21.343,8.027 Z M23.178,11.021 L23.221,9.521 L20.222,9.435 L20.179,10.934 L23.178,11.021 Z M22.644,10.281 C22.969,10.378 23.188,10.681 23.178,11.021 L20.179,10.934 C20.15,11.951 20.807,12.861 21.781,13.154 L22.644,10.281 Z M23.818,10.633 L22.644,10.281 L21.781,13.154 L22.955,13.506 L23.818,10.633 Z M23.456,13.906 L24.299,13.261 L22.474,10.879 L21.632,11.524 L23.456,13.906 Z M23.595,12.855 C23.847,13.183 23.785,13.654 23.456,13.906 L21.632,11.524 C20.645,12.28 20.458,13.692 21.214,14.679 L23.595,12.855 Z M22.544,12.715 C22.873,12.463 23.343,12.526 23.595,12.854 L21.214,14.679 C21.969,15.665 23.382,15.852 24.368,15.097 L22.544,12.715 Z M24.551,11.178 L22.544,12.715 L24.368,15.097 L26.375,13.559 L24.551,11.178 Z M24.269,11.908 C24.219,11.631 24.327,11.349 24.551,11.178 L26.375,13.559 C27.046,13.046 27.372,12.2 27.22,11.368 L24.269,11.908 Z M24.791,12.492 C24.522,12.411 24.32,12.185 24.269,11.908 L27.22,11.368 C27.068,10.537 26.463,9.861 25.654,9.618 L24.791,12.492 Z M22.763,11.883 L24.791,12.492 L25.654,9.618 L23.626,9.009 L22.763,11.883 Z M21.75,8.478 L21.695,10.403 L24.694,10.489 L24.749,8.565 L21.75,8.478 Z M13.016,14.35 C14.095,12.312 16.839,11.899 18.47,13.53 L20.591,11.409 C17.533,8.351 12.388,9.125 10.365,12.947 L13.016,14.35 Z M8.184,23.479 L13.016,14.35 L10.365,12.947 L5.532,22.075 L8.184,23.479 Z M8.521,23.817 C8.439,23.86 8.393,23.856 8.367,23.851 C8.329,23.844 8.276,23.821 8.228,23.772 C8.179,23.724 8.156,23.671 8.149,23.633 C8.144,23.607 8.14,23.561 8.184,23.479 L5.532,22.075 C4.035,24.904 7.097,27.965 9.925,26.468 L8.521,23.817 Z M17.65,18.984 L8.521,23.817 L9.925,26.468 L19.053,21.635 L17.65,18.984 Z M18.47,13.53 C20.101,15.161 19.688,17.905 17.65,18.984 L19.053,21.635 C22.876,19.612 23.649,14.467 20.591,11.409 L18.47,13.53 Z M19.53,12.47 C17.186,10.125 13.242,10.718 11.69,13.649 L14.342,15.052 C14.949,13.906 16.492,13.674 17.409,14.591 L19.53,12.47 Z M19.508,19.465 C21.39,17.613 21.527,14.466 19.53,12.47 L17.409,14.591 C18.185,15.367 18.142,16.6 17.404,17.326 L19.508,19.465 Z M15.47,17.53 L17.395,19.456 L19.517,17.335 L17.591,15.409 L15.47,17.53 Z M16.53,17.53 C16.237,17.823 15.763,17.823 15.47,17.53 L17.591,15.409 C16.712,14.53 15.288,14.53 14.409,15.409 L16.53,17.53 Z M16.53,16.47 C16.823,16.763 16.823,17.237 16.53,17.53 L14.409,15.409 C13.53,16.288 13.53,17.712 14.409,18.591 L16.53,16.47 Z M18.235,18.175 L16.53,16.47 L14.409,18.591 L16.114,20.296 L18.235,18.175 Z M9.223,25.142 L17.877,20.561 L16.473,17.91 L7.82,22.491 L9.223,25.142 Z M6.858,22.777 C6.052,24.3 7.7,25.949 9.223,25.142 L7.82,22.491 C8.908,21.915 10.085,23.093 9.509,24.18 L6.858,22.777 Z M8.67,19.354 L6.858,22.777 L9.509,24.18 L11.321,20.758 L8.67,19.354 Z M11.53,19.47 L11.056,18.995 L8.935,21.117 L9.409,21.591 L11.53,19.47 Z M10.47,19.47 C10.763,19.177 11.237,19.177 11.53,19.47 L9.409,21.591 C10.288,22.47 11.712,22.47 12.591,21.591 L10.47,19.47 Z M10.47,20.53 C10.177,20.237 10.177,19.763 10.47,19.47 L12.591,21.591 C13.47,20.712 13.47,19.288 12.591,18.409 L10.47,20.53 Z M9.669,19.73 L10.47,20.53 L12.591,18.409 L11.79,17.608 L9.669,19.73 Z M11.69,13.649 L9.404,17.967 L12.055,19.371 L14.342,15.052 L11.69,13.649 Z"/>
  <path fill="#151E28" d="M19.53,12.47 C21.875,14.814 21.282,18.758 18.351,20.31 L9.223,25.142 C7.7,25.948 6.052,24.3 6.858,22.777 L11.69,13.649 C13.242,10.718 17.186,10.125 19.53,12.47 Z M13.016,14.35 L10.73,18.669 L11.53,19.47 C11.823,19.763 11.823,20.237 11.53,20.53 C11.237,20.823 10.763,20.823 10.47,20.53 L9.995,20.056 L8.184,23.479 C8.068,23.696 8.304,23.932 8.521,23.816 L17.175,19.235 L15.47,17.53 C15.177,17.237 15.177,16.763 15.47,16.47 C15.763,16.177 16.237,16.177 16.53,16.47 L18.456,18.395 C19.766,17.107 19.856,14.917 18.47,13.53 C16.839,11.899 14.095,12.312 13.016,14.35 Z M23.25,8.522 L23.194,10.446 L25.223,11.055 C25.493,11.136 25.694,11.361 25.745,11.638 C25.795,11.915 25.687,12.197 25.463,12.369 L23.456,13.906 C23.127,14.158 22.656,14.095 22.404,13.767 C22.153,13.438 22.215,12.967 22.544,12.715 L23.386,12.07 L22.212,11.717 C21.888,11.62 21.669,11.316 21.678,10.977 L21.722,9.478 L20.27,9.857 C19.942,9.942 19.597,9.797 19.429,9.502 L18.822,8.437 L18.425,9.311 C18.253,9.688 17.808,9.854 17.431,9.683 C17.054,9.511 16.888,9.066 17.059,8.689 L18.065,6.481 C18.181,6.225 18.432,6.055 18.713,6.042 C18.995,6.03 19.26,6.176 19.399,6.42 L20.448,8.26 L22.311,7.774 C22.539,7.715 22.782,7.766 22.967,7.913 C23.152,8.06 23.256,8.286 23.25,8.522 Z"/>
</svg>

