<svg xmlns="http://www.w3.org/2000/svg" viewBox="0 0 32 32">
  <defs/>
  <path fill="white" d="M16,25 C20.971,25 25,20.971 25,16 C25,11.029 20.971,7 16,7 C11.029,7 7,11.029 7,16 L7,25 L7.817,24.455 C8.568,23.955 8.943,23.705 9.219,23.619 C9.571,23.51 9.61,23.506 9.977,23.537 C10.265,23.561 10.925,23.817 12.244,24.329 L12.244,24.329 C13.194,24.698 14.446,25 16,25 Z"/>
  <path fill="white" d="M7.75,23.599 L6.25,23.599 C6.25,24.151 6.554,24.659 7.04,24.921 C7.527,25.182 8.118,25.155 8.578,24.85 L7.75,23.599 Z M8.305,23.242 L7.523,21.962 L7.523,21.962 L8.305,23.242 Z M8.997,22.903 L9.441,24.336 L9.441,24.336 L8.997,22.903 Z M9.005,22.901 L9.449,24.333 L9.449,24.333 L9.005,22.901 Z M9.511,22.78 L9.674,24.271 L9.674,24.271 L9.511,22.78 Z M10.031,22.788 L10.156,21.294 L10.156,21.294 L10.031,22.788 Z M10.039,22.789 L9.915,24.284 L9.915,24.284 L10.039,22.789 Z M10.977,23.044 L10.471,24.456 L10.471,24.456 L10.977,23.044 Z M12.503,23.625 L11.96,25.023 L11.965,25.025 L12.503,23.625 Z M12.503,23.625 L13.052,22.229 L13.041,22.225 L12.503,23.625 Z M12.503,23.625 L11.954,25.021 L11.96,25.023 L12.503,23.625 Z M12.515,23.63 L11.972,25.028 L11.972,25.028 L12.515,23.63 Z M11.972,25.028 L11.429,26.426 L11.429,26.426 L11.972,25.028 Z M10.471,24.456 L10.977,23.044 L10.977,23.044 L10.471,24.456 Z M10.06,24.319 L9.645,25.761 L9.645,25.761 L10.06,24.319 Z M9.915,24.284 L9.697,25.768 L9.7,25.768 L9.915,24.284 Z M9.915,24.284 L9.79,25.779 C10.616,25.847 11.34,25.234 11.409,24.409 C11.479,23.584 10.866,22.859 10.041,22.789 L9.915,24.284 Z M9.674,24.271 L9.511,22.78 L9.511,22.78 L9.674,24.271 Z M9.441,24.336 L8.997,22.903 L8.997,22.903 L9.441,24.336 Z M9.087,24.522 L8.305,23.242 L8.305,23.242 L9.087,24.522 Z M8.233,25.079 L7.401,23.831 L7.401,23.831 L8.233,25.079 Z M7.416,25.624 L6.584,24.376 L6.584,24.376 L7.416,25.624 Z M9.25,16 C9.25,12.272 12.272,9.25 16,9.25 L16,6.25 C10.615,6.25 6.25,10.615 6.25,16 L9.25,16 Z M9.25,16.018 L9.25,16 L6.25,16 L6.25,16.018 L9.25,16.018 Z M9.25,16.035 L9.25,16.018 L6.25,16.018 L6.25,16.035 L9.25,16.035 Z M9.25,16.053 L9.25,16.035 L6.25,16.035 L6.25,16.053 L9.25,16.053 Z M9.25,16.07 L9.25,16.053 L6.25,16.053 L6.25,16.07 L9.25,16.07 Z M9.25,16.088 L9.25,16.07 L6.25,16.07 L6.25,16.088 L9.25,16.088 Z M9.25,16.105 L9.25,16.088 L6.25,16.088 L6.25,16.105 L9.25,16.105 Z M9.25,16.123 L9.25,16.105 L6.25,16.105 L6.25,16.123 L9.25,16.123 Z M9.25,16.141 L9.25,16.123 L6.25,16.123 L6.25,16.141 L9.25,16.141 Z M9.25,16.158 L9.25,16.141 L6.25,16.141 L6.25,16.158 L9.25,16.158 Z M9.25,16.176 L9.25,16.158 L6.25,16.158 L6.25,16.176 L9.25,16.176 Z M9.25,16.193 L9.25,16.176 L6.25,16.176 L6.25,16.193 L9.25,16.193 Z M9.25,16.211 L9.25,16.193 L6.25,16.193 L6.25,16.211 L9.25,16.211 Z M9.25,16.229 L9.25,16.211 L6.25,16.211 L6.25,16.229 L9.25,16.229 Z M9.25,16.246 L9.25,16.229 L6.25,16.229 L6.25,16.246 L9.25,16.246 Z M9.25,16.264 L9.25,16.246 L6.25,16.246 L6.25,16.264 L9.25,16.264 Z M9.25,16.281 L9.25,16.264 L6.25,16.264 L6.25,16.281 L9.25,16.281 Z M9.25,16.299 L9.25,16.281 L6.25,16.281 L6.25,16.299 L9.25,16.299 Z M9.25,16.316 L9.25,16.299 L6.25,16.299 L6.25,16.316 L9.25,16.316 Z M9.25,16.334 L9.25,16.316 L6.25,16.316 L6.25,16.334 L9.25,16.334 Z M9.25,16.352 L9.25,16.334 L6.25,16.334 L6.25,16.352 L9.25,16.352 Z M9.25,16.369 L9.25,16.352 L6.25,16.352 L6.25,16.369 L9.25,16.369 Z M9.25,16.387 L9.25,16.369 L6.25,16.369 L6.25,16.387 L9.25,16.387 Z M9.25,16.404 L9.25,16.387 L6.25,16.387 L6.25,16.404 L9.25,16.404 Z M9.25,16.422 L9.25,16.404 L6.25,16.404 L6.25,16.422 L9.25,16.422 Z M9.25,16.439 L9.25,16.422 L6.25,16.422 L6.25,16.439 L9.25,16.439 Z M9.25,16.457 L9.25,16.439 L6.25,16.439 L6.25,16.457 L9.25,16.457 Z M9.25,16.475 L9.25,16.457 L6.25,16.457 L6.25,16.475 L9.25,16.475 Z M9.25,16.492 L9.25,16.475 L6.25,16.475 L6.25,16.492 L9.25,16.492 Z M9.25,16.51 L9.25,16.492 L6.25,16.492 L6.25,16.51 L9.25,16.51 Z M9.25,16.527 L9.25,16.51 L6.25,16.51 L6.25,16.527 L9.25,16.527 Z M9.25,16.545 L9.25,16.527 L6.25,16.527 L6.25,16.545 L9.25,16.545 Z M9.25,16.562 L9.25,16.545 L6.25,16.545 L6.25,16.562 L9.25,16.562 Z M9.25,16.58 L9.25,16.562 L6.25,16.562 L6.25,16.58 L9.25,16.58 Z M9.25,16.598 L9.25,16.58 L6.25,16.58 L6.25,16.598 L9.25,16.598 Z M9.25,16.615 L9.25,16.598 L6.25,16.598 L6.25,16.615 L9.25,16.615 Z M9.25,16.633 L9.25,16.615 L6.25,16.615 L6.25,16.633 L9.25,16.633 Z M9.25,16.65 L9.25,16.633 L6.25,16.633 L6.25,16.65 L9.25,16.65 Z M9.25,16.668 L9.25,16.65 L6.25,16.65 L6.25,16.668 L9.25,16.668 Z M9.25,16.686 L9.25,16.668 L6.25,16.668 L6.25,16.686 L9.25,16.686 Z M9.25,16.703 L9.25,16.686 L6.25,16.686 L6.25,16.703 L9.25,16.703 Z M9.25,16.721 L9.25,16.703 L6.25,16.703 L6.25,16.721 L9.25,16.721 Z M9.25,16.738 L9.25,16.721 L6.25,16.721 L6.25,16.738 L9.25,16.738 Z M9.25,16.756 L9.25,16.738 L6.25,16.738 L6.25,16.756 L9.25,16.756 Z M9.25,16.773 L9.25,16.756 L6.25,16.756 L6.25,16.773 L9.25,16.773 Z M9.25,16.791 L9.25,16.773 L6.25,16.773 L6.25,16.791 L9.25,16.791 Z M9.25,16.809 L9.25,16.791 L6.25,16.791 L6.25,16.809 L9.25,16.809 Z M9.25,16.826 L9.25,16.809 L6.25,16.809 L6.25,16.826 L9.25,16.826 Z M9.25,16.844 L9.25,16.826 L6.25,16.826 L6.25,16.844 L9.25,16.844 Z M9.25,16.861 L9.25,16.844 L6.25,16.844 L6.25,16.861 L9.25,16.861 Z M9.25,16.879 L9.25,16.861 L6.25,16.861 L6.25,16.879 L9.25,16.879 Z M9.25,16.896 L9.25,16.879 L6.25,16.879 L6.25,16.896 L9.25,16.896 Z M9.25,16.914 L9.25,16.896 L6.25,16.896 L6.25,16.914 L9.25,16.914 Z M9.25,16.932 L9.25,16.914 L6.25,16.914 L6.25,16.932 L9.25,16.932 Z M9.25,16.949 L9.25,16.932 L6.25,16.932 L6.25,16.949 L9.25,16.949 Z M9.25,16.967 L9.25,16.949 L6.25,16.949 L6.25,16.967 L9.25,16.967 Z M9.25,16.984 L9.25,16.967 L6.25,16.967 L6.25,16.984 L9.25,16.984 Z M9.25,17.002 L9.25,16.984 L6.25,16.984 L6.25,17.002 L9.25,17.002 Z M9.25,17.02 L9.25,17.002 L6.25,17.002 L6.25,17.02 L9.25,17.02 Z M9.25,17.037 L9.25,17.02 L6.25,17.02 L6.25,17.037 L9.25,17.037 Z M9.25,17.055 L9.25,17.037 L6.25,17.037 L6.25,17.055 L9.25,17.055 Z M9.25,17.072 L9.25,17.055 L6.25,17.055 L6.25,17.072 L9.25,17.072 Z M9.25,17.09 L9.25,17.072 L6.25,17.072 L6.25,17.09 L9.25,17.09 Z M9.25,17.107 L9.25,17.09 L6.25,17.09 L6.25,17.107 L9.25,17.107 Z M9.25,17.125 L9.25,17.107 L6.25,17.107 L6.25,17.125 L9.25,17.125 Z M9.25,17.143 L9.25,17.125 L6.25,17.125 L6.25,17.143 L9.25,17.143 Z M9.25,17.16 L9.25,17.143 L6.25,17.143 L6.25,17.16 L9.25,17.16 Z M9.25,17.178 L9.25,17.16 L6.25,17.16 L6.25,17.178 L9.25,17.178 Z M9.25,17.195 L9.25,17.178 L6.25,17.178 L6.25,17.195 L9.25,17.195 Z M9.25,17.213 L9.25,17.195 L6.25,17.195 L6.25,17.213 L9.25,17.213 Z M9.25,17.23 L9.25,17.213 L6.25,17.213 L6.25,17.23 L9.25,17.23 Z M9.25,17.248 L9.25,17.23 L6.25,17.23 L6.25,17.248 L9.25,17.248 Z M9.25,17.266 L9.25,17.248 L6.25,17.248 L6.25,17.266 L9.25,17.266 Z M9.25,17.283 L9.25,17.266 L6.25,17.266 L6.25,17.283 L9.25,17.283 Z M9.25,17.301 L9.25,17.283 L6.25,17.283 L6.25,17.301 L9.25,17.301 Z M9.25,17.318 L9.25,17.301 L6.25,17.301 L6.25,17.318 L9.25,17.318 Z M9.25,17.336 L9.25,17.318 L6.25,17.318 L6.25,17.336 L9.25,17.336 Z M9.25,17.354 L9.25,17.336 L6.25,17.336 L6.25,17.354 L9.25,17.354 Z M9.25,17.371 L9.25,17.354 L6.25,17.354 L6.25,17.371 L9.25,17.371 Z M9.25,17.389 L9.25,17.371 L6.25,17.371 L6.25,17.389 L9.25,17.389 Z M9.25,17.406 L9.25,17.389 L6.25,17.389 L6.25,17.406 L9.25,17.406 Z M9.25,17.424 L9.25,17.406 L6.25,17.406 L6.25,17.424 L9.25,17.424 Z M9.25,17.441 L9.25,17.424 L6.25,17.424 L6.25,17.441 L9.25,17.441 Z M9.25,17.459 L9.25,17.441 L6.25,17.441 L6.25,17.459 L9.25,17.459 Z M9.25,17.477 L9.25,17.459 L6.25,17.459 L6.25,17.477 L9.25,17.477 Z M9.25,17.494 L9.25,17.477 L6.25,17.477 L6.25,17.494 L9.25,17.494 Z M9.25,17.512 L9.25,17.494 L6.25,17.494 L6.25,17.512 L9.25,17.512 Z M9.25,17.529 L9.25,17.512 L6.25,17.512 L6.25,17.529 L9.25,17.529 Z M9.25,17.547 L9.25,17.529 L6.25,17.529 L6.25,17.547 L9.25,17.547 Z M9.25,17.564 L9.25,17.547 L6.25,17.547 L6.25,17.564 L9.25,17.564 Z M9.25,17.582 L9.25,17.564 L6.25,17.564 L6.25,17.582 L9.25,17.582 Z M9.25,17.6 L9.25,17.582 L6.25,17.582 L6.25,17.6 L9.25,17.6 Z M9.25,17.617 L9.25,17.6 L6.25,17.6 L6.25,17.617 L9.25,17.617 Z M9.25,17.635 L9.25,17.617 L6.25,17.617 L6.25,17.635 L9.25,17.635 Z M9.25,17.652 L9.25,17.635 L6.25,17.635 L6.25,17.652 L9.25,17.652 Z M9.25,17.67 L9.25,17.652 L6.25,17.652 L6.25,17.67 L9.25,17.67 Z M9.25,17.688 L9.25,17.67 L6.25,17.67 L6.25,17.688 L9.25,17.688 Z M9.25,17.705 L9.25,17.688 L6.25,17.688 L6.25,17.705 L9.25,17.705 Z M9.25,17.723 L9.25,17.705 L6.25,17.705 L6.25,17.723 L9.25,17.723 Z M9.25,17.74 L9.25,17.723 L6.25,17.723 L6.25,17.74 L9.25,17.74 Z M9.25,17.758 L9.25,17.74 L6.25,17.74 L6.25,17.758 L9.25,17.758 Z M9.25,17.775 L9.25,17.758 L6.25,17.758 L6.25,17.775 L9.25,17.775 Z M9.25,17.793 L9.25,17.775 L6.25,17.775 L6.25,17.793 L9.25,17.793 Z M9.25,17.811 L9.25,17.793 L6.25,17.793 L6.25,17.811 L9.25,17.811 Z M9.25,17.828 L9.25,17.811 L6.25,17.811 L6.25,17.828 L9.25,17.828 Z M9.25,17.846 L9.25,17.828 L6.25,17.828 L6.25,17.846 L9.25,17.846 Z M9.25,17.863 L9.25,17.846 L6.25,17.846 L6.25,17.863 L9.25,17.863 Z M9.25,17.881 L9.25,17.863 L6.25,17.863 L6.25,17.881 L9.25,17.881 Z M9.25,17.898 L9.25,17.881 L6.25,17.881 L6.25,17.898 L9.25,17.898 Z M9.25,17.916 L9.25,17.898 L6.25,17.898 L6.25,17.916 L9.25,17.916 Z M9.25,17.934 L9.25,17.916 L6.25,17.916 L6.25,17.934 L9.25,17.934 Z M9.25,17.951 L9.25,17.934 L6.25,17.934 L6.25,17.951 L9.25,17.951 Z M9.25,17.969 L9.25,17.951 L6.25,17.951 L6.25,17.969 L9.25,17.969 Z M9.25,17.986 L9.25,17.969 L6.25,17.969 L6.25,17.986 L9.25,17.986 Z M9.25,18.004 L9.25,17.986 L6.25,17.986 L6.25,18.004 L9.25,18.004 Z M9.25,18.021 L9.25,18.004 L6.25,18.004 L6.25,18.021 L9.25,18.021 Z M9.25,18.039 L9.25,18.021 L6.25,18.021 L6.25,18.039 L9.25,18.039 Z M9.25,18.057 L9.25,18.039 L6.25,18.039 L6.25,18.057 L9.25,18.057 Z M9.25,18.074 L9.25,18.057 L6.25,18.057 L6.25,18.074 L9.25,18.074 Z M9.25,18.092 L9.25,18.074 L6.25,18.074 L6.25,18.092 L9.25,18.092 Z M9.25,18.109 L9.25,18.092 L6.25,18.092 L6.25,18.109 L9.25,18.109 Z M9.25,18.127 L9.25,18.109 L6.25,18.109 L6.25,18.127 L9.25,18.127 Z M9.25,18.145 L9.25,18.127 L6.25,18.127 L6.25,18.145 L9.25,18.145 Z M9.25,18.162 L9.25,18.145 L6.25,18.145 L6.25,18.162 L9.25,18.162 Z M9.25,18.18 L9.25,18.162 L6.25,18.162 L6.25,18.18 L9.25,18.18 Z M9.25,18.197 L9.25,18.18 L6.25,18.18 L6.25,18.197 L9.25,18.197 Z M9.25,18.215 L9.25,18.197 L6.25,18.197 L6.25,18.215 L9.25,18.215 Z M9.25,18.232 L9.25,18.215 L6.25,18.215 L6.25,18.232 L9.25,18.232 Z M9.25,18.25 L9.25,18.232 L6.25,18.232 L6.25,18.25 L9.25,18.25 Z M9.25,18.268 L9.25,18.25 L6.25,18.25 L6.25,18.268 L9.25,18.268 Z M9.25,18.285 L9.25,18.268 L6.25,18.268 L6.25,18.285 L9.25,18.285 Z M9.25,18.303 L9.25,18.285 L6.25,18.285 L6.25,18.303 L9.25,18.303 Z M9.25,18.32 L9.25,18.303 L6.25,18.303 L6.25,18.32 L9.25,18.32 Z M9.25,18.338 L9.25,18.32 L6.25,18.32 L6.25,18.338 L9.25,18.338 Z M9.25,18.355 L9.25,18.338 L6.25,18.338 L6.25,18.355 L9.25,18.355 Z M9.25,18.373 L9.25,18.355 L6.25,18.355 L6.25,18.373 L9.25,18.373 Z M9.25,18.391 L9.25,18.373 L6.25,18.373 L6.25,18.391 L9.25,18.391 Z M9.25,18.408 L9.25,18.391 L6.25,18.391 L6.25,18.408 L9.25,18.408 Z M9.25,18.426 L9.25,18.408 L6.25,18.408 L6.25,18.426 L9.25,18.426 Z M9.25,18.443 L9.25,18.426 L6.25,18.426 L6.25,18.443 L9.25,18.443 Z M9.25,18.461 L9.25,18.443 L6.25,18.443 L6.25,18.461 L9.25,18.461 Z M9.25,18.479 L9.25,18.461 L6.25,18.461 L6.25,18.479 L9.25,18.479 Z M9.25,18.496 L9.25,18.479 L6.25,18.479 L6.25,18.496 L9.25,18.496 Z M9.25,18.514 L9.25,18.496 L6.25,18.496 L6.25,18.514 L9.25,18.514 Z M9.25,18.531 L9.25,18.514 L6.25,18.514 L6.25,18.531 L9.25,18.531 Z M9.25,18.549 L9.25,18.531 L6.25,18.531 L6.25,18.549 L9.25,18.549 Z M9.25,18.566 L9.25,18.549 L6.25,18.549 L6.25,18.566 L9.25,18.566 Z M9.25,18.584 L9.25,18.566 L6.25,18.566 L6.25,18.584 L9.25,18.584 Z M9.25,18.602 L9.25,18.584 L6.25,18.584 L6.25,18.602 L9.25,18.602 Z M9.25,18.619 L9.25,18.602 L6.25,18.602 L6.25,18.619 L9.25,18.619 Z M9.25,18.637 L9.25,18.619 L6.25,18.619 L6.25,18.637 L9.25,18.637 Z M9.25,18.654 L9.25,18.637 L6.25,18.637 L6.25,18.654 L9.25,18.654 Z M9.25,18.672 L9.25,18.654 L6.25,18.654 L6.25,18.672 L9.25,18.672 Z M9.25,18.689 L9.25,18.672 L6.25,18.672 L6.25,18.689 L9.25,18.689 Z M9.25,18.707 L9.25,18.689 L6.25,18.689 L6.25,18.707 L9.25,18.707 Z M9.25,18.725 L9.25,18.707 L6.25,18.707 L6.25,18.725 L9.25,18.725 Z M9.25,18.742 L9.25,18.725 L6.25,18.725 L6.25,18.742 L9.25,18.742 Z M9.25,18.76 L9.25,18.742 L6.25,18.742 L6.25,18.76 L9.25,18.76 Z M9.25,18.777 L9.25,18.76 L6.25,18.76 L6.25,18.777 L9.25,18.777 Z M9.25,18.795 L9.25,18.777 L6.25,18.777 L6.25,18.795 L9.25,18.795 Z M9.25,18.812 L9.25,18.795 L6.25,18.795 L6.25,18.812 L9.25,18.812 Z M9.25,18.83 L9.25,18.812 L6.25,18.812 L6.25,18.83 L9.25,18.83 Z M9.25,18.848 L9.25,18.83 L6.25,18.83 L6.25,18.848 L9.25,18.848 Z M9.25,18.865 L9.25,18.848 L6.25,18.848 L6.25,18.865 L9.25,18.865 Z M9.25,18.883 L9.25,18.865 L6.25,18.865 L6.25,18.883 L9.25,18.883 Z M9.25,18.9 L9.25,18.883 L6.25,18.883 L6.25,18.9 L9.25,18.9 Z M9.25,18.918 L9.25,18.9 L6.25,18.9 L6.25,18.918 L9.25,18.918 Z M9.25,18.936 L9.25,18.918 L6.25,18.918 L6.25,18.936 L9.25,18.936 Z M9.25,18.953 L9.25,18.936 L6.25,18.936 L6.25,18.953 L9.25,18.953 Z M9.25,18.971 L9.25,18.953 L6.25,18.953 L6.25,18.971 L9.25,18.971 Z M9.25,18.988 L9.25,18.971 L6.25,18.971 L6.25,18.988 L9.25,18.988 Z M9.25,19.006 L9.25,18.988 L6.25,18.988 L6.25,19.006 L9.25,19.006 Z M9.25,19.023 L9.25,19.006 L6.25,19.006 L6.25,19.023 L9.25,19.023 Z M9.25,19.041 L9.25,19.023 L6.25,19.023 L6.25,19.041 L9.25,19.041 Z M9.25,19.059 L9.25,19.041 L6.25,19.041 L6.25,19.059 L9.25,19.059 Z M9.25,19.076 L9.25,19.059 L6.25,19.059 L6.25,19.076 L9.25,19.076 Z M9.25,19.094 L9.25,19.076 L6.25,19.076 L6.25,19.094 L9.25,19.094 Z M9.25,19.111 L9.25,19.094 L6.25,19.094 L6.25,19.111 L9.25,19.111 Z M9.25,19.129 L9.25,19.111 L6.25,19.111 L6.25,19.129 L9.25,19.129 Z M9.25,19.146 L9.25,19.129 L6.25,19.129 L6.25,19.146 L9.25,19.146 Z M9.25,19.164 L9.25,19.146 L6.25,19.146 L6.25,19.164 L9.25,19.164 Z M9.25,19.182 L9.25,19.164 L6.25,19.164 L6.25,19.182 L9.25,19.182 Z M9.25,19.199 L9.25,19.182 L6.25,19.182 L6.25,19.199 L9.25,19.199 Z M9.25,19.217 L9.25,19.199 L6.25,19.199 L6.25,19.217 L9.25,19.217 Z M9.25,19.234 L9.25,19.217 L6.25,19.217 L6.25,19.234 L9.25,19.234 Z M9.25,19.252 L9.25,19.234 L6.25,19.234 L6.25,19.252 L9.25,19.252 Z M9.25,19.27 L9.25,19.252 L6.25,19.252 L6.25,19.27 L9.25,19.27 Z M9.25,19.287 L9.25,19.27 L6.25,19.27 L6.25,19.287 L9.25,19.287 Z M9.25,19.305 L9.25,19.287 L6.25,19.287 L6.25,19.305 L9.25,19.305 Z M9.25,19.322 L9.25,19.305 L6.25,19.305 L6.25,19.322 L9.25,19.322 Z M9.25,19.34 L9.25,19.322 L6.25,19.322 L6.25,19.34 L9.25,19.34 Z M9.25,19.357 L9.25,19.34 L6.25,19.34 L6.25,19.357 L9.25,19.357 Z M9.25,19.375 L9.25,19.357 L6.25,19.357 L6.25,19.375 L9.25,19.375 Z M9.25,19.393 L9.25,19.375 L6.25,19.375 L6.25,19.393 L9.25,19.393 Z M9.25,19.41 L9.25,19.393 L6.25,19.393 L6.25,19.41 L9.25,19.41 Z M9.25,19.428 L9.25,19.41 L6.25,19.41 L6.25,19.428 L9.25,19.428 Z M9.25,19.445 L9.25,19.428 L6.25,19.428 L6.25,19.445 L9.25,19.445 Z M9.25,19.463 L9.25,19.445 L6.25,19.445 L6.25,19.463 L9.25,19.463 Z M9.25,19.48 L9.25,19.463 L6.25,19.463 L6.25,19.48 L9.25,19.48 Z M9.25,19.498 L9.25,19.48 L6.25,19.48 L6.25,19.498 L9.25,19.498 Z M9.25,19.516 L9.25,19.498 L6.25,19.498 L6.25,19.516 L9.25,19.516 Z M9.25,19.533 L9.25,19.516 L6.25,19.516 L6.25,19.533 L9.25,19.533 Z M9.25,19.551 L9.25,19.533 L6.25,19.533 L6.25,19.551 L9.25,19.551 Z M9.25,19.568 L9.25,19.551 L6.25,19.551 L6.25,19.568 L9.25,19.568 Z M9.25,19.586 L9.25,19.568 L6.25,19.568 L6.25,19.586 L9.25,19.586 Z M9.25,19.604 L9.25,19.586 L6.25,19.586 L6.25,19.604 L9.25,19.604 Z M9.25,19.621 L9.25,19.604 L6.25,19.604 L6.25,19.621 L9.25,19.621 Z M9.25,19.639 L9.25,19.621 L6.25,19.621 L6.25,19.639 L9.25,19.639 Z M9.25,19.656 L9.25,19.639 L6.25,19.639 L6.25,19.656 L9.25,19.656 Z M9.25,19.674 L9.25,19.656 L6.25,19.656 L6.25,19.674 L9.25,19.674 Z M9.25,19.691 L9.25,19.674 L6.25,19.674 L6.25,19.691 L9.25,19.691 Z M9.25,19.709 L9.25,19.691 L6.25,19.691 L6.25,19.709 L9.25,19.709 Z M9.25,19.727 L9.25,19.709 L6.25,19.709 L6.25,19.727 L9.25,19.727 Z M9.25,19.744 L9.25,19.727 L6.25,19.727 L6.25,19.744 L9.25,19.744 Z M9.25,19.762 L9.25,19.744 L6.25,19.744 L6.25,19.762 L9.25,19.762 Z M9.25,19.779 L9.25,19.762 L6.25,19.762 L6.25,19.779 L9.25,19.779 Z M9.25,19.797 L9.25,19.779 L6.25,19.779 L6.25,19.797 L9.25,19.797 Z M9.25,19.814 L9.25,19.797 L6.25,19.797 L6.25,19.814 L9.25,19.814 Z M9.25,19.832 L9.25,19.814 L6.25,19.814 L6.25,19.832 L9.25,19.832 Z M9.25,19.85 L9.25,19.832 L6.25,19.832 L6.25,19.85 L9.25,19.85 Z M9.25,19.867 L9.25,19.85 L6.25,19.85 L6.25,19.867 L9.25,19.867 Z M9.25,19.885 L9.25,19.867 L6.25,19.867 L6.25,19.885 L9.25,19.885 Z M9.25,19.902 L9.25,19.885 L6.25,19.885 L6.25,19.902 L9.25,19.902 Z M9.25,19.92 L9.25,19.902 L6.25,19.902 L6.25,19.92 L9.25,19.92 Z M9.25,19.938 L9.25,19.92 L6.25,19.92 L6.25,19.938 L9.25,19.938 Z M9.25,19.955 L9.25,19.938 L6.25,19.938 L6.25,19.955 L9.25,19.955 Z M9.25,19.973 L9.25,19.955 L6.25,19.955 L6.25,19.973 L9.25,19.973 Z M9.25,19.99 L9.25,19.973 L6.25,19.973 L6.25,19.99 L9.25,19.99 Z M9.25,20.008 L9.25,19.99 L6.25,19.99 L6.25,20.008 L9.25,20.008 Z M9.25,20.025 L9.25,20.008 L6.25,20.008 L6.25,20.025 L9.25,20.025 Z M9.25,20.043 L9.25,20.025 L6.25,20.025 L6.25,20.043 L9.25,20.043 Z M9.25,20.061 L9.25,20.043 L6.25,20.043 L6.25,20.061 L9.25,20.061 Z M9.25,20.078 L9.25,20.061 L6.25,20.061 L6.25,20.078 L9.25,20.078 Z M9.25,20.096 L9.25,20.078 L6.25,20.078 L6.25,20.096 L9.25,20.096 Z M9.25,20.113 L9.25,20.096 L6.25,20.096 L6.25,20.113 L9.25,20.113 Z M9.25,20.131 L9.25,20.113 L6.25,20.113 L6.25,20.131 L9.25,20.131 Z M9.25,20.148 L9.25,20.131 L6.25,20.131 L6.25,20.148 L9.25,20.148 Z M9.25,20.166 L9.25,20.148 L6.25,20.148 L6.25,20.166 L9.25,20.166 Z M9.25,20.184 L9.25,20.166 L6.25,20.166 L6.25,20.184 L9.25,20.184 Z M9.25,20.201 L9.25,20.184 L6.25,20.184 L6.25,20.201 L9.25,20.201 Z M9.25,20.219 L9.25,20.201 L6.25,20.201 L6.25,20.219 L9.25,20.219 Z M9.25,20.236 L9.25,20.219 L6.25,20.219 L6.25,20.236 L9.25,20.236 Z M9.25,20.254 L9.25,20.236 L6.25,20.236 L6.25,20.254 L9.25,20.254 Z M9.25,20.271 L9.25,20.254 L6.25,20.254 L6.25,20.271 L9.25,20.271 Z M9.25,20.289 L9.25,20.271 L6.25,20.271 L6.25,20.289 L9.25,20.289 Z M9.25,20.307 L9.25,20.289 L6.25,20.289 L6.25,20.307 L9.25,20.307 Z M9.25,20.324 L9.25,20.307 L6.25,20.307 L6.25,20.324 L9.25,20.324 Z M9.25,20.342 L9.25,20.324 L6.25,20.324 L6.25,20.342 L9.25,20.342 Z M9.25,20.359 L9.25,20.342 L6.25,20.342 L6.25,20.359 L9.25,20.359 Z M9.25,20.377 L9.25,20.359 L6.25,20.359 L6.25,20.377 L9.25,20.377 Z M9.25,20.395 L9.25,20.377 L6.25,20.377 L6.25,20.395 L9.25,20.395 Z M9.25,20.412 L9.25,20.395 L6.25,20.395 L6.25,20.412 L9.25,20.412 Z M9.25,20.43 L9.25,20.412 L6.25,20.412 L6.25,20.43 L9.25,20.43 Z M9.25,20.447 L9.25,20.43 L6.25,20.43 L6.25,20.447 L9.25,20.447 Z M9.25,20.465 L9.25,20.447 L6.25,20.447 L6.25,20.465 L9.25,20.465 Z M9.25,20.482 L9.25,20.465 L6.25,20.465 L6.25,20.482 L9.25,20.482 Z M9.25,20.5 L9.25,20.482 L6.25,20.482 L6.25,20.5 L9.25,20.5 Z M9.25,20.518 L9.25,20.5 L6.25,20.5 L6.25,20.518 L9.25,20.518 Z M9.25,20.535 L9.25,20.518 L6.25,20.518 L6.25,20.535 L9.25,20.535 Z M9.25,20.553 L9.25,20.535 L6.25,20.535 L6.25,20.553 L9.25,20.553 Z M9.25,20.57 L9.25,20.553 L6.25,20.553 L6.25,20.57 L9.25,20.57 Z M9.25,20.588 L9.25,20.57 L6.25,20.57 L6.25,20.588 L9.25,20.588 Z M9.25,20.605 L9.25,20.588 L6.25,20.588 L6.25,20.605 L9.25,20.605 Z M9.25,20.623 L9.25,20.605 L6.25,20.605 L6.25,20.623 L9.25,20.623 Z M9.25,20.641 L9.25,20.623 L6.25,20.623 L6.25,20.641 L9.25,20.641 Z M9.25,20.658 L9.25,20.641 L6.25,20.641 L6.25,20.658 L9.25,20.658 Z M9.25,20.676 L9.25,20.658 L6.25,20.658 L6.25,20.676 L9.25,20.676 Z M9.25,20.693 L9.25,20.676 L6.25,20.676 L6.25,20.693 L9.25,20.693 Z M9.25,20.711 L9.25,20.693 L6.25,20.693 L6.25,20.711 L9.25,20.711 Z M9.25,20.729 L9.25,20.711 L6.25,20.711 L6.25,20.729 L9.25,20.729 Z M9.25,20.746 L9.25,20.729 L6.25,20.729 L6.25,20.746 L9.25,20.746 Z M9.25,20.764 L9.25,20.746 L6.25,20.746 L6.25,20.764 L9.25,20.764 Z M9.25,20.781 L9.25,20.764 L6.25,20.764 L6.25,20.781 L9.25,20.781 Z M9.25,20.799 L9.25,20.781 L6.25,20.781 L6.25,20.799 L9.25,20.799 Z M9.25,20.816 L9.25,20.799 L6.25,20.799 L6.25,20.816 L9.25,20.816 Z M9.25,20.834 L9.25,20.816 L6.25,20.816 L6.25,20.834 L9.25,20.834 Z M9.25,20.852 L9.25,20.834 L6.25,20.834 L6.25,20.852 L9.25,20.852 Z M9.25,20.869 L9.25,20.852 L6.25,20.852 L6.25,20.869 L9.25,20.869 Z M9.25,20.887 L9.25,20.869 L6.25,20.869 L6.25,20.887 L9.25,20.887 Z M9.25,20.904 L9.25,20.887 L6.25,20.887 L6.25,20.904 L9.25,20.904 Z M9.25,20.922 L9.25,20.904 L6.25,20.904 L6.25,20.922 L9.25,20.922 Z M9.25,20.939 L9.25,20.922 L6.25,20.922 L6.25,20.939 L9.25,20.939 Z M9.25,20.957 L9.25,20.939 L6.25,20.939 L6.25,20.957 L9.25,20.957 Z M9.25,20.975 L9.25,20.957 L6.25,20.957 L6.25,20.975 L9.25,20.975 Z M9.25,20.992 L9.25,20.975 L6.25,20.975 L6.25,20.992 L9.25,20.992 Z M9.25,21.01 L9.25,20.992 L6.25,20.992 L6.25,21.01 L9.25,21.01 Z M9.25,21.027 L9.25,21.01 L6.25,21.01 L6.25,21.027 L9.25,21.027 Z M9.25,21.045 L9.25,21.027 L6.25,21.027 L6.25,21.045 L9.25,21.045 Z M9.25,21.062 L9.25,21.045 L6.25,21.045 L6.25,21.062 L9.25,21.062 Z M9.25,21.08 L9.25,21.062 L6.25,21.062 L6.25,21.08 L9.25,21.08 Z M9.25,21.098 L9.25,21.08 L6.25,21.08 L6.25,21.098 L9.25,21.098 Z M9.25,21.115 L9.25,21.098 L6.25,21.098 L6.25,21.115 L9.25,21.115 Z M9.25,21.133 L9.25,21.115 L6.25,21.115 L6.25,21.133 L9.25,21.133 Z M9.25,21.15 L9.25,21.133 L6.25,21.133 L6.25,21.15 L9.25,21.15 Z M9.25,21.168 L9.25,21.15 L6.25,21.15 L6.25,21.168 L9.25,21.168 Z M9.25,21.186 L9.25,21.168 L6.25,21.168 L6.25,21.186 L9.25,21.186 Z M9.25,21.203 L9.25,21.186 L6.25,21.186 L6.25,21.203 L9.25,21.203 Z M9.25,21.221 L9.25,21.203 L6.25,21.203 L6.25,21.221 L9.25,21.221 Z M9.25,21.238 L9.25,21.221 L6.25,21.221 L6.25,21.238 L9.25,21.238 Z M9.25,21.256 L9.25,21.238 L6.25,21.238 L6.25,21.256 L9.25,21.256 Z M9.25,21.273 L9.25,21.256 L6.25,21.256 L6.25,21.273 L9.25,21.273 Z M9.25,21.291 L9.25,21.273 L6.25,21.273 L6.25,21.291 L9.25,21.291 Z M9.25,21.309 L9.25,21.291 L6.25,21.291 L6.25,21.309 L9.25,21.309 Z M9.25,21.326 L9.25,21.309 L6.25,21.309 L6.25,21.326 L9.25,21.326 Z M9.25,21.344 L9.25,21.326 L6.25,21.326 L6.25,21.344 L9.25,21.344 Z M9.25,21.361 L9.25,21.344 L6.25,21.344 L6.25,21.361 L9.25,21.361 Z M9.25,21.379 L9.25,21.361 L6.25,21.361 L6.25,21.379 L9.25,21.379 Z M9.25,21.396 L9.25,21.379 L6.25,21.379 L6.25,21.396 L9.25,21.396 Z M9.25,21.414 L9.25,21.396 L6.25,21.396 L6.25,21.414 L9.25,21.414 Z M9.25,21.432 L9.25,21.414 L6.25,21.414 L6.25,21.432 L9.25,21.432 Z M9.25,21.449 L9.25,21.432 L6.25,21.432 L6.25,21.449 L9.25,21.449 Z M9.25,21.467 L9.25,21.449 L6.25,21.449 L6.25,21.467 L9.25,21.467 Z M9.25,21.484 L9.25,21.467 L6.25,21.467 L6.25,21.484 L9.25,21.484 Z M9.25,21.502 L9.25,21.484 L6.25,21.484 L6.25,21.502 L9.25,21.502 Z M9.25,21.52 L9.25,21.502 L6.25,21.502 L6.25,21.52 L9.25,21.52 Z M9.25,21.537 L9.25,21.52 L6.25,21.52 L6.25,21.537 L9.25,21.537 Z M9.25,21.555 L9.25,21.537 L6.25,21.537 L6.25,21.555 L9.25,21.555 Z M9.25,21.572 L9.25,21.555 L6.25,21.555 L6.25,21.572 L9.25,21.572 Z M9.25,21.59 L9.25,21.572 L6.25,21.572 L6.25,21.59 L9.25,21.59 Z M9.25,21.607 L9.25,21.59 L6.25,21.59 L6.25,21.607 L9.25,21.607 Z M9.25,21.625 L9.25,21.607 L6.25,21.607 L6.25,21.625 L9.25,21.625 Z M9.25,21.643 L9.25,21.625 L6.25,21.625 L6.25,21.643 L9.25,21.643 Z M9.25,21.66 L9.25,21.643 L6.25,21.643 L6.25,21.66 L9.25,21.66 Z M9.25,21.678 L9.25,21.66 L6.25,21.66 L6.25,21.678 L9.25,21.678 Z M9.25,21.695 L9.25,21.678 L6.25,21.678 L6.25,21.695 L9.25,21.695 Z M9.25,21.713 L9.25,21.695 L6.25,21.695 L6.25,21.713 L9.25,21.713 Z M9.25,21.73 L9.25,21.713 L6.25,21.713 L6.25,21.73 L9.25,21.73 Z M9.25,21.748 L9.25,21.73 L6.25,21.73 L6.25,21.748 L9.25,21.748 Z M9.25,21.766 L9.25,21.748 L6.25,21.748 L6.25,21.766 L9.25,21.766 Z M9.25,21.783 L9.25,21.766 L6.25,21.766 L6.25,21.783 L9.25,21.783 Z M9.25,21.801 L9.25,21.783 L6.25,21.783 L6.25,21.801 L9.25,21.801 Z M9.25,21.818 L9.25,21.801 L6.25,21.801 L6.25,21.818 L9.25,21.818 Z M9.25,21.836 L9.25,21.818 L6.25,21.818 L6.25,21.836 L9.25,21.836 Z M9.25,21.854 L9.25,21.836 L6.25,21.836 L6.25,21.854 L9.25,21.854 Z M9.25,21.871 L9.25,21.854 L6.25,21.854 L6.25,21.871 L9.25,21.871 Z M9.25,21.889 L9.25,21.871 L6.25,21.871 L6.25,21.889 L9.25,21.889 Z M9.25,21.906 L9.25,21.889 L6.25,21.889 L6.25,21.906 L9.25,21.906 Z M9.25,21.924 L9.25,21.906 L6.25,21.906 L6.25,21.924 L9.25,21.924 Z M9.25,21.941 L9.25,21.924 L6.25,21.924 L6.25,21.941 L9.25,21.941 Z M9.25,21.959 L9.25,21.941 L6.25,21.941 L6.25,21.959 L9.25,21.959 Z M9.25,21.977 L9.25,21.959 L6.25,21.959 L6.25,21.977 L9.25,21.977 Z M9.25,21.994 L9.25,21.977 L6.25,21.977 L6.25,21.994 L9.25,21.994 Z M9.25,22.012 L9.25,21.994 L6.25,21.994 L6.25,22.012 L9.25,22.012 Z M9.25,22.029 L9.25,22.012 L6.25,22.012 L6.25,22.029 L9.25,22.029 Z M9.25,22.047 L9.25,22.029 L6.25,22.029 L6.25,22.047 L9.25,22.047 Z M9.25,22.064 L9.25,22.047 L6.25,22.047 L6.25,22.064 L9.25,22.064 Z M9.25,22.082 L9.25,22.064 L6.25,22.064 L6.25,22.082 L9.25,22.082 Z M9.25,22.1 L9.25,22.082 L6.25,22.082 L6.25,22.1 L9.25,22.1 Z M9.25,22.117 L9.25,22.1 L6.25,22.1 L6.25,22.117 L9.25,22.117 Z M9.25,22.135 L9.25,22.117 L6.25,22.117 L6.25,22.135 L9.25,22.135 Z M9.25,22.152 L9.25,22.135 L6.25,22.135 L6.25,22.152 L9.25,22.152 Z M9.25,22.17 L9.25,22.152 L6.25,22.152 L6.25,22.17 L9.25,22.17 Z M9.25,22.188 L9.25,22.17 L6.25,22.17 L6.25,22.188 L9.25,22.188 Z M9.25,22.205 L9.25,22.188 L6.25,22.188 L6.25,22.205 L9.25,22.205 Z M9.25,22.223 L9.25,22.205 L6.25,22.205 L6.25,22.223 L9.25,22.223 Z M9.25,22.24 L9.25,22.223 L6.25,22.223 L6.25,22.24 L9.25,22.24 Z M9.25,22.258 L9.25,22.24 L6.25,22.24 L6.25,22.258 L9.25,22.258 Z M9.25,22.275 L9.25,22.258 L6.25,22.258 L6.25,22.275 L9.25,22.275 Z M9.25,22.293 L9.25,22.275 L6.25,22.275 L6.25,22.293 L9.25,22.293 Z M9.25,22.311 L9.25,22.293 L6.25,22.293 L6.25,22.311 L9.25,22.311 Z M9.25,22.328 L9.25,22.311 L6.25,22.311 L6.25,22.328 L9.25,22.328 Z M9.25,22.346 L9.25,22.328 L6.25,22.328 L6.25,22.346 L9.25,22.346 Z M9.25,22.363 L9.25,22.346 L6.25,22.346 L6.25,22.363 L9.25,22.363 Z M9.25,22.381 L9.25,22.363 L6.25,22.363 L6.25,22.381 L9.25,22.381 Z M9.25,22.398 L9.25,22.381 L6.25,22.381 L6.25,22.398 L9.25,22.398 Z M9.25,22.416 L9.25,22.398 L6.25,22.398 L6.25,22.416 L9.25,22.416 Z M9.25,22.434 L9.25,22.416 L6.25,22.416 L6.25,22.434 L9.25,22.434 Z M9.25,22.451 L9.25,22.434 L6.25,22.434 L6.25,22.451 L9.25,22.451 Z M9.25,22.469 L9.25,22.451 L6.25,22.451 L6.25,22.469 L9.25,22.469 Z M9.25,22.486 L9.25,22.469 L6.25,22.469 L6.25,22.486 L9.25,22.486 Z M9.25,22.504 L9.25,22.486 L6.25,22.486 L6.25,22.504 L9.25,22.504 Z M9.25,22.521 L9.25,22.504 L6.25,22.504 L6.25,22.521 L9.25,22.521 Z M9.25,22.539 L9.25,22.521 L6.25,22.521 L6.25,22.539 L9.25,22.539 Z M9.25,22.557 L9.25,22.539 L6.25,22.539 L6.25,22.557 L9.25,22.557 Z M9.25,22.574 L9.25,22.557 L6.25,22.557 L6.25,22.574 L9.25,22.574 Z M9.25,22.592 L9.25,22.574 L6.25,22.574 L6.25,22.592 L9.25,22.592 Z M9.25,22.609 L9.25,22.592 L6.25,22.592 L6.25,22.609 L9.25,22.609 Z M9.25,22.627 L9.25,22.609 L6.25,22.609 L6.25,22.627 L9.25,22.627 Z M9.25,22.645 L9.25,22.627 L6.25,22.627 L6.25,22.645 L9.25,22.645 Z M9.25,22.662 L9.25,22.645 L6.25,22.645 L6.25,22.662 L9.25,22.662 Z M9.25,22.68 L9.25,22.662 L6.25,22.662 L6.25,22.68 L9.25,22.68 Z M9.25,22.697 L9.25,22.68 L6.25,22.68 L6.25,22.697 L9.25,22.697 Z M9.25,22.715 L9.25,22.697 L6.25,22.697 L6.25,22.715 L9.25,22.715 Z M9.25,22.732 L9.25,22.715 L6.25,22.715 L6.25,22.732 L9.25,22.732 Z M9.25,22.75 L9.25,22.732 L6.25,22.732 L6.25,22.75 L9.25,22.75 Z M9.25,22.768 L9.25,22.75 L6.25,22.75 L6.25,22.768 L9.25,22.768 Z M9.25,22.785 L9.25,22.768 L6.25,22.768 L6.25,22.785 L9.25,22.785 Z M9.25,22.803 L9.25,22.785 L6.25,22.785 L6.25,22.803 L9.25,22.803 Z M9.25,22.82 L9.25,22.803 L6.25,22.803 L6.25,22.82 L9.25,22.82 Z M9.25,22.838 L9.25,22.82 L6.25,22.82 L6.25,22.838 L9.25,22.838 Z M9.25,22.855 L9.25,22.838 L6.25,22.838 L6.25,22.855 L9.25,22.855 Z M9.25,22.873 L9.25,22.855 L6.25,22.855 L6.25,22.873 L9.25,22.873 Z M9.25,22.891 L9.25,22.873 L6.25,22.873 L6.25,22.891 L9.25,22.891 Z M9.25,22.908 L9.25,22.891 L6.25,22.891 L6.25,22.908 L9.25,22.908 Z M9.25,22.926 L9.25,22.908 L6.25,22.908 L6.25,22.926 L9.25,22.926 Z M9.25,22.943 L9.25,22.926 L6.25,22.926 L6.25,22.943 L9.25,22.943 Z M9.25,22.961 L9.25,22.943 L6.25,22.943 L6.25,22.961 L9.25,22.961 Z M9.25,22.979 L9.25,22.961 L6.25,22.961 L6.25,22.979 L9.25,22.979 Z M9.25,22.996 L9.25,22.979 L6.25,22.979 L6.25,22.996 L9.25,22.996 Z M9.25,23.014 L9.25,22.996 L6.25,22.996 L6.25,23.014 L9.25,23.014 Z M9.25,23.031 L9.25,23.014 L6.25,23.014 L6.25,23.031 L9.25,23.031 Z M9.25,23.049 L9.25,23.031 L6.25,23.031 L6.25,23.049 L9.25,23.049 Z M9.25,23.066 L9.25,23.049 L6.25,23.049 L6.25,23.066 L9.25,23.066 Z M9.25,23.084 L9.25,23.066 L6.25,23.066 L6.25,23.084 L9.25,23.084 Z M9.25,23.102 L9.25,23.084 L6.25,23.084 L6.25,23.102 L9.25,23.102 Z M9.25,23.119 L9.25,23.102 L6.25,23.102 L6.25,23.119 L9.25,23.119 Z M9.25,23.137 L9.25,23.119 L6.25,23.119 L6.25,23.137 L9.25,23.137 Z M9.25,23.154 L9.25,23.137 L6.25,23.137 L6.25,23.154 L9.25,23.154 Z M9.25,23.172 L9.25,23.154 L6.25,23.154 L6.25,23.172 L9.25,23.172 Z M9.25,23.189 L9.25,23.172 L6.25,23.172 L6.25,23.189 L9.25,23.189 Z M9.25,23.207 L9.25,23.189 L6.25,23.189 L6.25,23.207 L9.25,23.207 Z M9.25,23.225 L9.25,23.207 L6.25,23.207 L6.25,23.225 L9.25,23.225 Z M9.25,23.242 L9.25,23.225 L6.25,23.225 L6.25,23.242 L9.25,23.242 Z M9.25,23.26 L9.25,23.242 L6.25,23.242 L6.25,23.26 L9.25,23.26 Z M9.25,23.277 L9.25,23.26 L6.25,23.26 L6.25,23.277 L9.25,23.277 Z M9.25,23.295 L9.25,23.277 L6.25,23.277 L6.25,23.295 L9.25,23.295 Z M9.25,23.312 L9.25,23.295 L6.25,23.295 L6.25,23.312 L9.25,23.312 Z M9.25,23.33 L9.25,23.312 L6.25,23.312 L6.25,23.33 L9.25,23.33 Z M9.25,23.348 L9.25,23.33 L6.25,23.33 L6.25,23.348 L9.25,23.348 Z M9.25,23.365 L9.25,23.348 L6.25,23.348 L6.25,23.365 L9.25,23.365 Z M9.25,23.383 L9.25,23.365 L6.25,23.365 L6.25,23.383 L9.25,23.383 Z M9.25,23.4 L9.25,23.383 L6.25,23.383 L6.25,23.4 L9.25,23.4 Z M9.25,23.418 L9.25,23.4 L6.25,23.4 L6.25,23.418 L9.25,23.418 Z M9.25,23.436 L9.25,23.418 L6.25,23.418 L6.25,23.436 L9.25,23.436 Z M9.25,23.453 L9.25,23.436 L6.25,23.436 L6.25,23.453 L9.25,23.453 Z M9.25,23.471 L9.25,23.453 L6.25,23.453 L6.25,23.471 L9.25,23.471 Z M9.25,23.488 L9.25,23.471 L6.25,23.471 L6.25,23.488 L9.25,23.488 Z M9.25,23.506 L9.25,23.488 L6.25,23.488 L6.25,23.506 L9.25,23.506 Z M9.25,23.523 L9.25,23.506 L6.25,23.506 L6.25,23.523 L9.25,23.523 Z M9.25,23.541 L9.25,23.523 L6.25,23.523 L6.25,23.541 L9.25,23.541 Z M9.25,23.559 L9.25,23.541 L6.25,23.541 L6.25,23.559 L9.25,23.559 Z M9.25,23.576 L9.25,23.559 L6.25,23.559 L6.25,23.576 L9.25,23.576 Z M9.25,23.594 L9.25,23.576 L6.25,23.576 L6.25,23.594 L9.25,23.594 Z M9.25,23.599 L9.25,23.594 L6.25,23.594 L6.25,23.599 L9.25,23.599 Z M7.523,21.962 C7.34,22.073 7.138,22.206 6.922,22.349 L8.578,24.85 C8.79,24.71 8.954,24.603 9.087,24.522 L7.523,21.962 Z M8.553,21.47 C8.135,21.6 7.775,21.808 7.523,21.962 L9.087,24.522 C9.298,24.393 9.396,24.35 9.441,24.336 L8.553,21.47 Z M8.561,21.468 L8.553,21.47 L9.441,24.336 L9.449,24.333 L8.561,21.468 Z M9.348,21.289 C9.002,21.326 8.704,21.423 8.561,21.468 L9.449,24.333 C9.534,24.307 9.58,24.293 9.622,24.282 C9.659,24.273 9.673,24.271 9.674,24.271 L9.348,21.289 Z M10.156,21.294 C10.006,21.281 9.694,21.251 9.348,21.289 L9.674,24.271 C9.675,24.271 9.689,24.27 9.727,24.271 C9.77,24.272 9.818,24.276 9.907,24.283 L10.156,21.294 Z M10.163,21.294 L10.156,21.294 L9.907,24.283 L9.915,24.284 L10.163,21.294 Z M11.483,21.631 C11.166,21.518 10.651,21.335 10.163,21.294 L9.915,24.284 C9.905,24.283 9.946,24.287 10.062,24.32 C10.172,24.351 10.304,24.396 10.471,24.456 L11.483,21.631 Z M13.046,22.227 C12.405,21.978 11.881,21.774 11.483,21.631 L10.471,24.456 C10.823,24.582 11.302,24.768 11.96,25.023 L13.046,22.227 Z M13.041,22.225 L13.041,22.225 L11.965,25.025 L11.965,25.025 L13.041,22.225 Z M13.052,22.229 L13.052,22.229 L11.954,25.021 L11.954,25.021 L13.052,22.229 Z M13.059,22.232 L13.047,22.227 L11.96,25.023 L11.972,25.028 L13.059,22.232 Z M16,22.75 C14.745,22.75 13.768,22.507 13.059,22.232 L11.972,25.028 C13.003,25.428 14.347,25.75 16,25.75 L16,22.75 Z M22.75,16 C22.75,19.728 19.728,22.75 16,22.75 L16,25.75 C21.385,25.75 25.75,21.385 25.75,16 L22.75,16 Z M16,9.25 C19.728,9.25 22.75,12.272 22.75,16 L25.75,16 C25.75,10.615 21.385,6.25 16,6.25 L16,9.25 Z M16,4.75 C9.787,4.75 4.75,9.787 4.75,16 L7.75,16 C7.75,11.444 11.444,7.75 16,7.75 L16,4.75 Z M27.25,16 C27.25,9.787 22.213,4.75 16,4.75 L16,7.75 C20.556,7.75 24.25,11.444 24.25,16 L27.25,16 Z M16,27.25 C22.213,27.25 27.25,22.213 27.25,16 L24.25,16 C24.25,20.556 20.556,24.25 16,24.25 L16,27.25 Z M11.429,26.426 C12.62,26.889 14.148,27.25 16,27.25 L16,24.25 C14.546,24.25 13.385,23.968 12.515,23.63 L11.429,26.426 Z M9.965,25.868 C10.296,25.986 10.757,26.165 11.429,26.426 L12.515,23.63 C11.86,23.375 11.354,23.179 10.977,23.044 L9.965,25.868 Z M9.645,25.761 C9.701,25.777 9.801,25.809 9.965,25.868 L10.977,23.044 C10.788,22.976 10.62,22.919 10.475,22.878 L9.645,25.761 Z M9.7,25.768 C9.7,25.768 9.699,25.768 9.697,25.768 C9.696,25.768 9.694,25.768 9.692,25.767 C9.688,25.767 9.684,25.766 9.68,25.765 C9.672,25.764 9.664,25.763 9.657,25.762 C9.644,25.759 9.634,25.757 9.628,25.756 C9.617,25.753 9.621,25.754 9.645,25.761 L10.475,22.878 C10.321,22.834 10.213,22.811 10.13,22.799 L9.7,25.768 Z M10.041,22.789 C10.038,22.789 10.021,22.788 10,22.786 C9.992,22.786 9.964,22.784 9.928,22.784 C9.912,22.784 9.874,22.784 9.825,22.787 C9.8,22.788 9.757,22.791 9.704,22.799 C9.665,22.804 9.55,22.821 9.411,22.871 C9.341,22.896 9.211,22.948 9.067,23.047 C8.93,23.14 8.677,23.348 8.526,23.718 C8.139,24.665 8.818,25.317 8.92,25.406 C9.09,25.558 9.255,25.632 9.292,25.649 C9.357,25.678 9.409,25.697 9.437,25.706 C9.527,25.736 9.603,25.751 9.604,25.751 C9.639,25.759 9.666,25.763 9.668,25.764 C9.677,25.765 9.683,25.766 9.686,25.766 C9.689,25.767 9.691,25.767 9.693,25.767 C9.694,25.768 9.695,25.768 9.696,25.768 C9.696,25.768 9.697,25.768 9.697,25.768 L10.133,22.8 C10.133,22.8 10.134,22.8 10.134,22.8 C10.135,22.8 10.136,22.8 10.137,22.8 C10.138,22.801 10.141,22.801 10.144,22.802 C10.146,22.802 10.153,22.803 10.161,22.804 C10.163,22.805 10.191,22.809 10.225,22.816 C10.226,22.817 10.302,22.832 10.393,22.862 C10.42,22.871 10.473,22.89 10.537,22.919 C10.575,22.936 10.739,23.01 10.91,23.161 C11.011,23.251 11.69,23.903 11.304,24.85 C11.153,25.22 10.899,25.428 10.762,25.521 C10.618,25.62 10.488,25.672 10.418,25.697 C10.279,25.747 10.164,25.764 10.125,25.769 C10.072,25.777 10.029,25.78 10.005,25.781 C9.956,25.784 9.917,25.784 9.901,25.784 C9.865,25.784 9.838,25.782 9.829,25.782 C9.808,25.78 9.792,25.779 9.788,25.779 L10.041,22.789 Z M9.836,25.762 C9.827,25.763 9.808,25.765 9.783,25.767 C9.759,25.769 9.738,25.769 9.72,25.77 C9.702,25.77 9.689,25.77 9.68,25.77 C9.672,25.77 9.666,25.77 9.665,25.77 C9.663,25.769 9.671,25.77 9.693,25.771 C9.715,25.773 9.746,25.775 9.79,25.779 L10.039,22.789 C9.883,22.776 9.699,22.759 9.511,22.78 L9.836,25.762 Z M9.885,25.768 C9.928,25.755 9.958,25.746 9.978,25.74 C10,25.734 10.007,25.732 10.006,25.732 C10.005,25.733 9.999,25.734 9.991,25.736 C9.982,25.738 9.969,25.741 9.952,25.744 C9.934,25.748 9.913,25.752 9.89,25.755 C9.865,25.759 9.846,25.761 9.837,25.762 L9.511,22.78 C9.323,22.8 9.147,22.856 8.997,22.903 L9.885,25.768 Z M9.869,25.802 C9.91,25.777 9.941,25.758 9.964,25.745 C9.988,25.732 10,25.726 10.005,25.723 C10.009,25.721 10.001,25.725 9.984,25.733 C9.975,25.737 9.962,25.742 9.946,25.748 C9.93,25.754 9.909,25.761 9.885,25.768 L8.997,22.903 C8.764,22.975 8.534,23.102 8.305,23.242 L9.869,25.802 Z M9.065,26.327 C9.456,26.067 9.694,25.909 9.869,25.802 L8.305,23.242 C8.067,23.387 7.771,23.585 7.401,23.831 L9.065,26.327 Z M8.248,26.872 L9.065,26.327 L7.401,23.831 L6.584,24.376 L8.248,26.872 Z M5.938,26.984 C6.67,27.375 7.558,27.332 8.248,26.872 L6.584,24.376 C6.814,24.223 7.11,24.208 7.354,24.339 L5.938,26.984 Z M4.75,25 C4.75,25.83 5.207,26.592 5.938,26.984 L7.354,24.339 C7.598,24.469 7.75,24.723 7.75,25 L4.75,25 Z M4.75,24.982 L4.75,25 L7.75,25 L7.75,24.982 L4.75,24.982 Z M4.75,24.965 L4.75,24.982 L7.75,24.982 L7.75,24.965 L4.75,24.965 Z M4.75,24.947 L4.75,24.965 L7.75,24.965 L7.75,24.947 L4.75,24.947 Z M4.75,24.93 L4.75,24.947 L7.75,24.947 L7.75,24.93 L4.75,24.93 Z M4.75,24.912 L4.75,24.93 L7.75,24.93 L7.75,24.912 L4.75,24.912 Z M4.75,24.895 L4.75,24.912 L7.75,24.912 L7.75,24.895 L4.75,24.895 Z M4.75,24.877 L4.75,24.895 L7.75,24.895 L7.75,24.877 L4.75,24.877 Z M4.75,24.859 L4.75,24.877 L7.75,24.877 L7.75,24.859 L4.75,24.859 Z M4.75,24.842 L4.75,24.859 L7.75,24.859 L7.75,24.842 L4.75,24.842 Z M4.75,24.824 L4.75,24.842 L7.75,24.842 L7.75,24.824 L4.75,24.824 Z M4.75,24.807 L4.75,24.824 L7.75,24.824 L7.75,24.807 L4.75,24.807 Z M4.75,24.789 L4.75,24.807 L7.75,24.807 L7.75,24.789 L4.75,24.789 Z M4.75,24.771 L4.75,24.789 L7.75,24.789 L7.75,24.771 L4.75,24.771 Z M4.75,24.754 L4.75,24.771 L7.75,24.771 L7.75,24.754 L4.75,24.754 Z M4.75,24.736 L4.75,24.754 L7.75,24.754 L7.75,24.736 L4.75,24.736 Z M4.75,24.719 L4.75,24.736 L7.75,24.736 L7.75,24.719 L4.75,24.719 Z M4.75,24.701 L4.75,24.719 L7.75,24.719 L7.75,24.701 L4.75,24.701 Z M4.75,24.684 L4.75,24.701 L7.75,24.701 L7.75,24.684 L4.75,24.684 Z M4.75,24.666 L4.75,24.684 L7.75,24.684 L7.75,24.666 L4.75,24.666 Z M4.75,24.648 L4.75,24.666 L7.75,24.666 L7.75,24.648 L4.75,24.648 Z M4.75,24.631 L4.75,24.648 L7.75,24.648 L7.75,24.631 L4.75,24.631 Z M4.75,24.613 L4.75,24.631 L7.75,24.631 L7.75,24.613 L4.75,24.613 Z M4.75,24.596 L4.75,24.613 L7.75,24.613 L7.75,24.596 L4.75,24.596 Z M4.75,24.578 L4.75,24.596 L7.75,24.596 L7.75,24.578 L4.75,24.578 Z M4.75,24.561 L4.75,24.578 L7.75,24.578 L7.75,24.561 L4.75,24.561 Z M4.75,24.543 L4.75,24.561 L7.75,24.561 L7.75,24.543 L4.75,24.543 Z M4.75,24.525 L4.75,24.543 L7.75,24.543 L7.75,24.525 L4.75,24.525 Z M4.75,24.508 L4.75,24.525 L7.75,24.525 L7.75,24.508 L4.75,24.508 Z M4.75,24.49 L4.75,24.508 L7.75,24.508 L7.75,24.49 L4.75,24.49 Z M4.75,24.473 L4.75,24.49 L7.75,24.49 L7.75,24.473 L4.75,24.473 Z M4.75,24.455 L4.75,24.473 L7.75,24.473 L7.75,24.455 L4.75,24.455 Z M4.75,24.438 L4.75,24.455 L7.75,24.455 L7.75,24.438 L4.75,24.438 Z M4.75,24.42 L4.75,24.438 L7.75,24.438 L7.75,24.42 L4.75,24.42 Z M4.75,24.402 L4.75,24.42 L7.75,24.42 L7.75,24.402 L4.75,24.402 Z M4.75,24.385 L4.75,24.402 L7.75,24.402 L7.75,24.385 L4.75,24.385 Z M4.75,24.367 L4.75,24.385 L7.75,24.385 L7.75,24.367 L4.75,24.367 Z M4.75,24.35 L4.75,24.367 L7.75,24.367 L7.75,24.35 L4.75,24.35 Z M4.75,24.332 L4.75,24.35 L7.75,24.35 L7.75,24.332 L4.75,24.332 Z M4.75,24.314 L4.75,24.332 L7.75,24.332 L7.75,24.314 L4.75,24.314 Z M4.75,24.297 L4.75,24.314 L7.75,24.314 L7.75,24.297 L4.75,24.297 Z M4.75,24.279 L4.75,24.297 L7.75,24.297 L7.75,24.279 L4.75,24.279 Z M4.75,24.262 L4.75,24.279 L7.75,24.279 L7.75,24.262 L4.75,24.262 Z M4.75,24.244 L4.75,24.262 L7.75,24.262 L7.75,24.244 L4.75,24.244 Z M4.75,24.227 L4.75,24.244 L7.75,24.244 L7.75,24.227 L4.75,24.227 Z M4.75,24.209 L4.75,24.227 L7.75,24.227 L7.75,24.209 L4.75,24.209 Z M4.75,24.191 L4.75,24.209 L7.75,24.209 L7.75,24.191 L4.75,24.191 Z M4.75,24.174 L4.75,24.191 L7.75,24.191 L7.75,24.174 L4.75,24.174 Z M4.75,24.156 L4.75,24.174 L7.75,24.174 L7.75,24.156 L4.75,24.156 Z M4.75,24.139 L4.75,24.156 L7.75,24.156 L7.75,24.139 L4.75,24.139 Z M4.75,24.121 L4.75,24.139 L7.75,24.139 L7.75,24.121 L4.75,24.121 Z M4.75,24.104 L4.75,24.121 L7.75,24.121 L7.75,24.104 L4.75,24.104 Z M4.75,24.086 L4.75,24.104 L7.75,24.104 L7.75,24.086 L4.75,24.086 Z M4.75,24.068 L4.75,24.086 L7.75,24.086 L7.75,24.068 L4.75,24.068 Z M4.75,24.051 L4.75,24.068 L7.75,24.068 L7.75,24.051 L4.75,24.051 Z M4.75,24.033 L4.75,24.051 L7.75,24.051 L7.75,24.033 L4.75,24.033 Z M4.75,24.016 L4.75,24.033 L7.75,24.033 L7.75,24.016 L4.75,24.016 Z M4.75,23.998 L4.75,24.016 L7.75,24.016 L7.75,23.998 L4.75,23.998 Z M4.75,23.98 L4.75,23.998 L7.75,23.998 L7.75,23.98 L4.75,23.98 Z M4.75,23.963 L4.75,23.98 L7.75,23.98 L7.75,23.963 L4.75,23.963 Z M4.75,23.945 L4.75,23.963 L7.75,23.963 L7.75,23.945 L4.75,23.945 Z M4.75,23.928 L4.75,23.945 L7.75,23.945 L7.75,23.928 L4.75,23.928 Z M4.75,23.91 L4.75,23.928 L7.75,23.928 L7.75,23.91 L4.75,23.91 Z M4.75,23.893 L4.75,23.91 L7.75,23.91 L7.75,23.893 L4.75,23.893 Z M4.75,23.875 L4.75,23.893 L7.75,23.893 L7.75,23.875 L4.75,23.875 Z M4.75,23.857 L4.75,23.875 L7.75,23.875 L7.75,23.857 L4.75,23.857 Z M4.75,23.84 L4.75,23.857 L7.75,23.857 L7.75,23.84 L4.75,23.84 Z M4.75,23.822 L4.75,23.84 L7.75,23.84 L7.75,23.822 L4.75,23.822 Z M4.75,23.805 L4.75,23.822 L7.75,23.822 L7.75,23.805 L4.75,23.805 Z M4.75,23.787 L4.75,23.805 L7.75,23.805 L7.75,23.787 L4.75,23.787 Z M4.75,23.77 L4.75,23.787 L7.75,23.787 L7.75,23.77 L4.75,23.77 Z M4.75,23.752 L4.75,23.77 L7.75,23.77 L7.75,23.752 L4.75,23.752 Z M4.75,23.734 L4.75,23.752 L7.75,23.752 L7.75,23.734 L4.75,23.734 Z M4.75,23.717 L4.75,23.734 L7.75,23.734 L7.75,23.717 L4.75,23.717 Z M4.75,23.699 L4.75,23.717 L7.75,23.717 L7.75,23.699 L4.75,23.699 Z M4.75,23.682 L4.75,23.699 L7.75,23.699 L7.75,23.682 L4.75,23.682 Z M4.75,23.664 L4.75,23.682 L7.75,23.682 L7.75,23.664 L4.75,23.664 Z M4.75,23.646 L4.75,23.664 L7.75,23.664 L7.75,23.646 L4.75,23.646 Z M4.75,23.629 L4.75,23.646 L7.75,23.646 L7.75,23.629 L4.75,23.629 Z M4.75,23.611 L4.75,23.629 L7.75,23.629 L7.75,23.611 L4.75,23.611 Z M4.75,23.594 L4.75,23.611 L7.75,23.611 L7.75,23.594 L4.75,23.594 Z M4.75,23.576 L4.75,23.594 L7.75,23.594 L7.75,23.576 L4.75,23.576 Z M4.75,23.559 L4.75,23.576 L7.75,23.576 L7.75,23.559 L4.75,23.559 Z M4.75,23.541 L4.75,23.559 L7.75,23.559 L7.75,23.541 L4.75,23.541 Z M4.75,23.523 L4.75,23.541 L7.75,23.541 L7.75,23.523 L4.75,23.523 Z M4.75,23.506 L4.75,23.523 L7.75,23.523 L7.75,23.506 L4.75,23.506 Z M4.75,23.488 L4.75,23.506 L7.75,23.506 L7.75,23.488 L4.75,23.488 Z M4.75,23.471 L4.75,23.488 L7.75,23.488 L7.75,23.471 L4.75,23.471 Z M4.75,23.453 L4.75,23.471 L7.75,23.471 L7.75,23.453 L4.75,23.453 Z M4.75,23.436 L4.75,23.453 L7.75,23.453 L7.75,23.436 L4.75,23.436 Z M4.75,23.418 L4.75,23.436 L7.75,23.436 L7.75,23.418 L4.75,23.418 Z M4.75,23.4 L4.75,23.418 L7.75,23.418 L7.75,23.4 L4.75,23.4 Z M4.75,23.383 L4.75,23.4 L7.75,23.4 L7.75,23.383 L4.75,23.383 Z M4.75,23.365 L4.75,23.383 L7.75,23.383 L7.75,23.365 L4.75,23.365 Z M4.75,23.348 L4.75,23.365 L7.75,23.365 L7.75,23.348 L4.75,23.348 Z M4.75,23.33 L4.75,23.348 L7.75,23.348 L7.75,23.33 L4.75,23.33 Z M4.75,23.312 L4.75,23.33 L7.75,23.33 L7.75,23.312 L4.75,23.312 Z M4.75,23.295 L4.75,23.312 L7.75,23.312 L7.75,23.295 L4.75,23.295 Z M4.75,23.277 L4.75,23.295 L7.75,23.295 L7.75,23.277 L4.75,23.277 Z M4.75,23.26 L4.75,23.277 L7.75,23.277 L7.75,23.26 L4.75,23.26 Z M4.75,23.242 L4.75,23.26 L7.75,23.26 L7.75,23.242 L4.75,23.242 Z M4.75,23.225 L4.75,23.242 L7.75,23.242 L7.75,23.225 L4.75,23.225 Z M4.75,23.207 L4.75,23.225 L7.75,23.225 L7.75,23.207 L4.75,23.207 Z M4.75,23.189 L4.75,23.207 L7.75,23.207 L7.75,23.189 L4.75,23.189 Z M4.75,23.172 L4.75,23.189 L7.75,23.189 L7.75,23.172 L4.75,23.172 Z M4.75,23.154 L4.75,23.172 L7.75,23.172 L7.75,23.154 L4.75,23.154 Z M4.75,23.137 L4.75,23.154 L7.75,23.154 L7.75,23.137 L4.75,23.137 Z M4.75,23.119 L4.75,23.137 L7.75,23.137 L7.75,23.119 L4.75,23.119 Z M4.75,23.102 L4.75,23.119 L7.75,23.119 L7.75,23.102 L4.75,23.102 Z M4.75,23.084 L4.75,23.102 L7.75,23.102 L7.75,23.084 L4.75,23.084 Z M4.75,23.066 L4.75,23.084 L7.75,23.084 L7.75,23.066 L4.75,23.066 Z M4.75,23.049 L4.75,23.066 L7.75,23.066 L7.75,23.049 L4.75,23.049 Z M4.75,23.031 L4.75,23.049 L7.75,23.049 L7.75,23.031 L4.75,23.031 Z M4.75,23.014 L4.75,23.031 L7.75,23.031 L7.75,23.014 L4.75,23.014 Z M4.75,22.996 L4.75,23.014 L7.75,23.014 L7.75,22.996 L4.75,22.996 Z M4.75,22.979 L4.75,22.996 L7.75,22.996 L7.75,22.979 L4.75,22.979 Z M4.75,22.961 L4.75,22.979 L7.75,22.979 L7.75,22.961 L4.75,22.961 Z M4.75,22.943 L4.75,22.961 L7.75,22.961 L7.75,22.943 L4.75,22.943 Z M4.75,22.926 L4.75,22.943 L7.75,22.943 L7.75,22.926 L4.75,22.926 Z M4.75,22.908 L4.75,22.926 L7.75,22.926 L7.75,22.908 L4.75,22.908 Z M4.75,22.891 L4.75,22.908 L7.75,22.908 L7.75,22.891 L4.75,22.891 Z M4.75,22.873 L4.75,22.891 L7.75,22.891 L7.75,22.873 L4.75,22.873 Z M4.75,22.855 L4.75,22.873 L7.75,22.873 L7.75,22.855 L4.75,22.855 Z M4.75,22.838 L4.75,22.855 L7.75,22.855 L7.75,22.838 L4.75,22.838 Z M4.75,22.82 L4.75,22.838 L7.75,22.838 L7.75,22.82 L4.75,22.82 Z M4.75,22.803 L4.75,22.82 L7.75,22.82 L7.75,22.803 L4.75,22.803 Z M4.75,22.785 L4.75,22.803 L7.75,22.803 L7.75,22.785 L4.75,22.785 Z M4.75,22.768 L4.75,22.785 L7.75,22.785 L7.75,22.768 L4.75,22.768 Z M4.75,22.75 L4.75,22.768 L7.75,22.768 L7.75,22.75 L4.75,22.75 Z M4.75,22.732 L4.75,22.75 L7.75,22.75 L7.75,22.732 L4.75,22.732 Z M4.75,22.715 L4.75,22.732 L7.75,22.732 L7.75,22.715 L4.75,22.715 Z M4.75,22.697 L4.75,22.715 L7.75,22.715 L7.75,22.697 L4.75,22.697 Z M4.75,22.68 L4.75,22.697 L7.75,22.697 L7.75,22.68 L4.75,22.68 Z M4.75,22.662 L4.75,22.68 L7.75,22.68 L7.75,22.662 L4.75,22.662 Z M4.75,22.645 L4.75,22.662 L7.75,22.662 L7.75,22.645 L4.75,22.645 Z M4.75,22.627 L4.75,22.645 L7.75,22.645 L7.75,22.627 L4.75,22.627 Z M4.75,22.609 L4.75,22.627 L7.75,22.627 L7.75,22.609 L4.75,22.609 Z M4.75,22.592 L4.75,22.609 L7.75,22.609 L7.75,22.592 L4.75,22.592 Z M4.75,22.574 L4.75,22.592 L7.75,22.592 L7.75,22.574 L4.75,22.574 Z M4.75,22.557 L4.75,22.574 L7.75,22.574 L7.75,22.557 L4.75,22.557 Z M4.75,22.539 L4.75,22.557 L7.75,22.557 L7.75,22.539 L4.75,22.539 Z M4.75,22.521 L4.75,22.539 L7.75,22.539 L7.75,22.521 L4.75,22.521 Z M4.75,22.504 L4.75,22.521 L7.75,22.521 L7.75,22.504 L4.75,22.504 Z M4.75,22.486 L4.75,22.504 L7.75,22.504 L7.75,22.486 L4.75,22.486 Z M4.75,22.469 L4.75,22.486 L7.75,22.486 L7.75,22.469 L4.75,22.469 Z M4.75,22.451 L4.75,22.469 L7.75,22.469 L7.75,22.451 L4.75,22.451 Z M4.75,22.434 L4.75,22.451 L7.75,22.451 L7.75,22.434 L4.75,22.434 Z M4.75,22.416 L4.75,22.434 L7.75,22.434 L7.75,22.416 L4.75,22.416 Z M4.75,22.398 L4.75,22.416 L7.75,22.416 L7.75,22.398 L4.75,22.398 Z M4.75,22.381 L4.75,22.398 L7.75,22.398 L7.75,22.381 L4.75,22.381 Z M4.75,22.363 L4.75,22.381 L7.75,22.381 L7.75,22.363 L4.75,22.363 Z M4.75,22.346 L4.75,22.363 L7.75,22.363 L7.75,22.346 L4.75,22.346 Z M4.75,22.328 L4.75,22.346 L7.75,22.346 L7.75,22.328 L4.75,22.328 Z M4.75,22.311 L4.75,22.328 L7.75,22.328 L7.75,22.311 L4.75,22.311 Z M4.75,22.293 L4.75,22.311 L7.75,22.311 L7.75,22.293 L4.75,22.293 Z M4.75,22.275 L4.75,22.293 L7.75,22.293 L7.75,22.275 L4.75,22.275 Z M4.75,22.258 L4.75,22.275 L7.75,22.275 L7.75,22.258 L4.75,22.258 Z M4.75,22.24 L4.75,22.258 L7.75,22.258 L7.75,22.24 L4.75,22.24 Z M4.75,22.223 L4.75,22.24 L7.75,22.24 L7.75,22.223 L4.75,22.223 Z M4.75,22.205 L4.75,22.223 L7.75,22.223 L7.75,22.205 L4.75,22.205 Z M4.75,22.188 L4.75,22.205 L7.75,22.205 L7.75,22.188 L4.75,22.188 Z M4.75,22.17 L4.75,22.188 L7.75,22.188 L7.75,22.17 L4.75,22.17 Z M4.75,22.152 L4.75,22.17 L7.75,22.17 L7.75,22.152 L4.75,22.152 Z M4.75,22.135 L4.75,22.152 L7.75,22.152 L7.75,22.135 L4.75,22.135 Z M4.75,22.117 L4.75,22.135 L7.75,22.135 L7.75,22.117 L4.75,22.117 Z M4.75,22.1 L4.75,22.117 L7.75,22.117 L7.75,22.1 L4.75,22.1 Z M4.75,22.082 L4.75,22.1 L7.75,22.1 L7.75,22.082 L4.75,22.082 Z M4.75,22.064 L4.75,22.082 L7.75,22.082 L7.75,22.064 L4.75,22.064 Z M4.75,22.047 L4.75,22.064 L7.75,22.064 L7.75,22.047 L4.75,22.047 Z M4.75,22.029 L4.75,22.047 L7.75,22.047 L7.75,22.029 L4.75,22.029 Z M4.75,22.012 L4.75,22.029 L7.75,22.029 L7.75,22.012 L4.75,22.012 Z M4.75,21.994 L4.75,22.012 L7.75,22.012 L7.75,21.994 L4.75,21.994 Z M4.75,21.977 L4.75,21.994 L7.75,21.994 L7.75,21.977 L4.75,21.977 Z M4.75,21.959 L4.75,21.977 L7.75,21.977 L7.75,21.959 L4.75,21.959 Z M4.75,21.941 L4.75,21.959 L7.75,21.959 L7.75,21.941 L4.75,21.941 Z M4.75,21.924 L4.75,21.941 L7.75,21.941 L7.75,21.924 L4.75,21.924 Z M4.75,21.906 L4.75,21.924 L7.75,21.924 L7.75,21.906 L4.75,21.906 Z M4.75,21.889 L4.75,21.906 L7.75,21.906 L7.75,21.889 L4.75,21.889 Z M4.75,21.871 L4.75,21.889 L7.75,21.889 L7.75,21.871 L4.75,21.871 Z M4.75,21.854 L4.75,21.871 L7.75,21.871 L7.75,21.854 L4.75,21.854 Z M4.75,21.836 L4.75,21.854 L7.75,21.854 L7.75,21.836 L4.75,21.836 Z M4.75,21.818 L4.75,21.836 L7.75,21.836 L7.75,21.818 L4.75,21.818 Z M4.75,21.801 L4.75,21.818 L7.75,21.818 L7.75,21.801 L4.75,21.801 Z M4.75,21.783 L4.75,21.801 L7.75,21.801 L7.75,21.783 L4.75,21.783 Z M4.75,21.766 L4.75,21.783 L7.75,21.783 L7.75,21.766 L4.75,21.766 Z M4.75,21.748 L4.75,21.766 L7.75,21.766 L7.75,21.748 L4.75,21.748 Z M4.75,21.73 L4.75,21.748 L7.75,21.748 L7.75,21.73 L4.75,21.73 Z M4.75,21.713 L4.75,21.73 L7.75,21.73 L7.75,21.713 L4.75,21.713 Z M4.75,21.695 L4.75,21.713 L7.75,21.713 L7.75,21.695 L4.75,21.695 Z M4.75,21.678 L4.75,21.695 L7.75,21.695 L7.75,21.678 L4.75,21.678 Z M4.75,21.66 L4.75,21.678 L7.75,21.678 L7.75,21.66 L4.75,21.66 Z M4.75,21.643 L4.75,21.66 L7.75,21.66 L7.75,21.643 L4.75,21.643 Z M4.75,21.625 L4.75,21.643 L7.75,21.643 L7.75,21.625 L4.75,21.625 Z M4.75,21.607 L4.75,21.625 L7.75,21.625 L7.75,21.607 L4.75,21.607 Z M4.75,21.59 L4.75,21.607 L7.75,21.607 L7.75,21.59 L4.75,21.59 Z M4.75,21.572 L4.75,21.59 L7.75,21.59 L7.75,21.572 L4.75,21.572 Z M4.75,21.555 L4.75,21.572 L7.75,21.572 L7.75,21.555 L4.75,21.555 Z M4.75,21.537 L4.75,21.555 L7.75,21.555 L7.75,21.537 L4.75,21.537 Z M4.75,21.52 L4.75,21.537 L7.75,21.537 L7.75,21.52 L4.75,21.52 Z M4.75,21.502 L4.75,21.52 L7.75,21.52 L7.75,21.502 L4.75,21.502 Z M4.75,21.484 L4.75,21.502 L7.75,21.502 L7.75,21.484 L4.75,21.484 Z M4.75,21.467 L4.75,21.484 L7.75,21.484 L7.75,21.467 L4.75,21.467 Z M4.75,21.449 L4.75,21.467 L7.75,21.467 L7.75,21.449 L4.75,21.449 Z M4.75,21.432 L4.75,21.449 L7.75,21.449 L7.75,21.432 L4.75,21.432 Z M4.75,21.414 L4.75,21.432 L7.75,21.432 L7.75,21.414 L4.75,21.414 Z M4.75,21.396 L4.75,21.414 L7.75,21.414 L7.75,21.396 L4.75,21.396 Z M4.75,21.379 L4.75,21.396 L7.75,21.396 L7.75,21.379 L4.75,21.379 Z M4.75,21.361 L4.75,21.379 L7.75,21.379 L7.75,21.361 L4.75,21.361 Z M4.75,21.344 L4.75,21.361 L7.75,21.361 L7.75,21.344 L4.75,21.344 Z M4.75,21.326 L4.75,21.344 L7.75,21.344 L7.75,21.326 L4.75,21.326 Z M4.75,21.309 L4.75,21.326 L7.75,21.326 L7.75,21.309 L4.75,21.309 Z M4.75,21.291 L4.75,21.309 L7.75,21.309 L7.75,21.291 L4.75,21.291 Z M4.75,21.273 L4.75,21.291 L7.75,21.291 L7.75,21.273 L4.75,21.273 Z M4.75,21.256 L4.75,21.273 L7.75,21.273 L7.75,21.256 L4.75,21.256 Z M4.75,21.238 L4.75,21.256 L7.75,21.256 L7.75,21.238 L4.75,21.238 Z M4.75,21.221 L4.75,21.238 L7.75,21.238 L7.75,21.221 L4.75,21.221 Z M4.75,21.203 L4.75,21.221 L7.75,21.221 L7.75,21.203 L4.75,21.203 Z M4.75,21.186 L4.75,21.203 L7.75,21.203 L7.75,21.186 L4.75,21.186 Z M4.75,21.168 L4.75,21.186 L7.75,21.186 L7.75,21.168 L4.75,21.168 Z M4.75,21.15 L4.75,21.168 L7.75,21.168 L7.75,21.15 L4.75,21.15 Z M4.75,21.133 L4.75,21.15 L7.75,21.15 L7.75,21.133 L4.75,21.133 Z M4.75,21.115 L4.75,21.133 L7.75,21.133 L7.75,21.115 L4.75,21.115 Z M4.75,21.098 L4.75,21.115 L7.75,21.115 L7.75,21.098 L4.75,21.098 Z M4.75,21.08 L4.75,21.098 L7.75,21.098 L7.75,21.08 L4.75,21.08 Z M4.75,21.062 L4.75,21.08 L7.75,21.08 L7.75,21.062 L4.75,21.062 Z M4.75,21.045 L4.75,21.062 L7.75,21.062 L7.75,21.045 L4.75,21.045 Z M4.75,21.027 L4.75,21.045 L7.75,21.045 L7.75,21.027 L4.75,21.027 Z M4.75,21.01 L4.75,21.027 L7.75,21.027 L7.75,21.01 L4.75,21.01 Z M4.75,20.992 L4.75,21.01 L7.75,21.01 L7.75,20.992 L4.75,20.992 Z M4.75,20.975 L4.75,20.992 L7.75,20.992 L7.75,20.975 L4.75,20.975 Z M4.75,20.957 L4.75,20.975 L7.75,20.975 L7.75,20.957 L4.75,20.957 Z M4.75,20.939 L4.75,20.957 L7.75,20.957 L7.75,20.939 L4.75,20.939 Z M4.75,20.922 L4.75,20.939 L7.75,20.939 L7.75,20.922 L4.75,20.922 Z M4.75,20.904 L4.75,20.922 L7.75,20.922 L7.75,20.904 L4.75,20.904 Z M4.75,20.887 L4.75,20.904 L7.75,20.904 L7.75,20.887 L4.75,20.887 Z M4.75,20.869 L4.75,20.887 L7.75,20.887 L7.75,20.869 L4.75,20.869 Z M4.75,20.852 L4.75,20.869 L7.75,20.869 L7.75,20.852 L4.75,20.852 Z M4.75,20.834 L4.75,20.852 L7.75,20.852 L7.75,20.834 L4.75,20.834 Z M4.75,20.816 L4.75,20.834 L7.75,20.834 L7.75,20.816 L4.75,20.816 Z M4.75,20.799 L4.75,20.816 L7.75,20.816 L7.75,20.799 L4.75,20.799 Z M4.75,20.781 L4.75,20.799 L7.75,20.799 L7.75,20.781 L4.75,20.781 Z M4.75,20.764 L4.75,20.781 L7.75,20.781 L7.75,20.764 L4.75,20.764 Z M4.75,20.746 L4.75,20.764 L7.75,20.764 L7.75,20.746 L4.75,20.746 Z M4.75,20.729 L4.75,20.746 L7.75,20.746 L7.75,20.729 L4.75,20.729 Z M4.75,20.711 L4.75,20.729 L7.75,20.729 L7.75,20.711 L4.75,20.711 Z M4.75,20.693 L4.75,20.711 L7.75,20.711 L7.75,20.693 L4.75,20.693 Z M4.75,20.676 L4.75,20.693 L7.75,20.693 L7.75,20.676 L4.75,20.676 Z M4.75,20.658 L4.75,20.676 L7.75,20.676 L7.75,20.658 L4.75,20.658 Z M4.75,20.641 L4.75,20.658 L7.75,20.658 L7.75,20.641 L4.75,20.641 Z M4.75,20.623 L4.75,20.641 L7.75,20.641 L7.75,20.623 L4.75,20.623 Z M4.75,20.605 L4.75,20.623 L7.75,20.623 L7.75,20.605 L4.75,20.605 Z M4.75,20.588 L4.75,20.605 L7.75,20.605 L7.75,20.588 L4.75,20.588 Z M4.75,20.57 L4.75,20.588 L7.75,20.588 L7.75,20.57 L4.75,20.57 Z M4.75,20.553 L4.75,20.57 L7.75,20.57 L7.75,20.553 L4.75,20.553 Z M4.75,20.535 L4.75,20.553 L7.75,20.553 L7.75,20.535 L4.75,20.535 Z M4.75,20.518 L4.75,20.535 L7.75,20.535 L7.75,20.518 L4.75,20.518 Z M4.75,20.5 L4.75,20.518 L7.75,20.518 L7.75,20.5 L4.75,20.5 Z M4.75,20.482 L4.75,20.5 L7.75,20.5 L7.75,20.482 L4.75,20.482 Z M4.75,20.465 L4.75,20.482 L7.75,20.482 L7.75,20.465 L4.75,20.465 Z M4.75,20.447 L4.75,20.465 L7.75,20.465 L7.75,20.447 L4.75,20.447 Z M4.75,20.43 L4.75,20.447 L7.75,20.447 L7.75,20.43 L4.75,20.43 Z M4.75,20.412 L4.75,20.43 L7.75,20.43 L7.75,20.412 L4.75,20.412 Z M4.75,20.395 L4.75,20.412 L7.75,20.412 L7.75,20.395 L4.75,20.395 Z M4.75,20.377 L4.75,20.395 L7.75,20.395 L7.75,20.377 L4.75,20.377 Z M4.75,20.359 L4.75,20.377 L7.75,20.377 L7.75,20.359 L4.75,20.359 Z M4.75,20.342 L4.75,20.359 L7.75,20.359 L7.75,20.342 L4.75,20.342 Z M4.75,20.324 L4.75,20.342 L7.75,20.342 L7.75,20.324 L4.75,20.324 Z M4.75,20.307 L4.75,20.324 L7.75,20.324 L7.75,20.307 L4.75,20.307 Z M4.75,20.289 L4.75,20.307 L7.75,20.307 L7.75,20.289 L4.75,20.289 Z M4.75,20.271 L4.75,20.289 L7.75,20.289 L7.75,20.271 L4.75,20.271 Z M4.75,20.254 L4.75,20.271 L7.75,20.271 L7.75,20.254 L4.75,20.254 Z M4.75,20.236 L4.75,20.254 L7.75,20.254 L7.75,20.236 L4.75,20.236 Z M4.75,20.219 L4.75,20.236 L7.75,20.236 L7.75,20.219 L4.75,20.219 Z M4.75,20.201 L4.75,20.219 L7.75,20.219 L7.75,20.201 L4.75,20.201 Z M4.75,20.184 L4.75,20.201 L7.75,20.201 L7.75,20.184 L4.75,20.184 Z M4.75,20.166 L4.75,20.184 L7.75,20.184 L7.75,20.166 L4.75,20.166 Z M4.75,20.148 L4.75,20.166 L7.75,20.166 L7.75,20.148 L4.75,20.148 Z M4.75,20.131 L4.75,20.148 L7.75,20.148 L7.75,20.131 L4.75,20.131 Z M4.75,20.113 L4.75,20.131 L7.75,20.131 L7.75,20.113 L4.75,20.113 Z M4.75,20.096 L4.75,20.113 L7.75,20.113 L7.75,20.096 L4.75,20.096 Z M4.75,20.078 L4.75,20.096 L7.75,20.096 L7.75,20.078 L4.75,20.078 Z M4.75,20.061 L4.75,20.078 L7.75,20.078 L7.75,20.061 L4.75,20.061 Z M4.75,20.043 L4.75,20.061 L7.75,20.061 L7.75,20.043 L4.75,20.043 Z M4.75,20.025 L4.75,20.043 L7.75,20.043 L7.75,20.025 L4.75,20.025 Z M4.75,20.008 L4.75,20.025 L7.75,20.025 L7.75,20.008 L4.75,20.008 Z M4.75,19.99 L4.75,20.008 L7.75,20.008 L7.75,19.99 L4.75,19.99 Z M4.75,19.973 L4.75,19.99 L7.75,19.99 L7.75,19.973 L4.75,19.973 Z M4.75,19.955 L4.75,19.973 L7.75,19.973 L7.75,19.955 L4.75,19.955 Z M4.75,19.938 L4.75,19.955 L7.75,19.955 L7.75,19.938 L4.75,19.938 Z M4.75,19.92 L4.75,19.938 L7.75,19.938 L7.75,19.92 L4.75,19.92 Z M4.75,19.902 L4.75,19.92 L7.75,19.92 L7.75,19.902 L4.75,19.902 Z M4.75,19.885 L4.75,19.902 L7.75,19.902 L7.75,19.885 L4.75,19.885 Z M4.75,19.867 L4.75,19.885 L7.75,19.885 L7.75,19.867 L4.75,19.867 Z M4.75,19.85 L4.75,19.867 L7.75,19.867 L7.75,19.85 L4.75,19.85 Z M4.75,19.832 L4.75,19.85 L7.75,19.85 L7.75,19.832 L4.75,19.832 Z M4.75,19.814 L4.75,19.832 L7.75,19.832 L7.75,19.814 L4.75,19.814 Z M4.75,19.797 L4.75,19.814 L7.75,19.814 L7.75,19.797 L4.75,19.797 Z M4.75,19.779 L4.75,19.797 L7.75,19.797 L7.75,19.779 L4.75,19.779 Z M4.75,19.762 L4.75,19.779 L7.75,19.779 L7.75,19.762 L4.75,19.762 Z M4.75,19.744 L4.75,19.762 L7.75,19.762 L7.75,19.744 L4.75,19.744 Z M4.75,19.727 L4.75,19.744 L7.75,19.744 L7.75,19.727 L4.75,19.727 Z M4.75,19.709 L4.75,19.727 L7.75,19.727 L7.75,19.709 L4.75,19.709 Z M4.75,19.691 L4.75,19.709 L7.75,19.709 L7.75,19.691 L4.75,19.691 Z M4.75,19.674 L4.75,19.691 L7.75,19.691 L7.75,19.674 L4.75,19.674 Z M4.75,19.656 L4.75,19.674 L7.75,19.674 L7.75,19.656 L4.75,19.656 Z M4.75,19.639 L4.75,19.656 L7.75,19.656 L7.75,19.639 L4.75,19.639 Z M4.75,19.621 L4.75,19.639 L7.75,19.639 L7.75,19.621 L4.75,19.621 Z M4.75,19.604 L4.75,19.621 L7.75,19.621 L7.75,19.604 L4.75,19.604 Z M4.75,19.586 L4.75,19.604 L7.75,19.604 L7.75,19.586 L4.75,19.586 Z M4.75,19.568 L4.75,19.586 L7.75,19.586 L7.75,19.568 L4.75,19.568 Z M4.75,19.551 L4.75,19.568 L7.75,19.568 L7.75,19.551 L4.75,19.551 Z M4.75,19.533 L4.75,19.551 L7.75,19.551 L7.75,19.533 L4.75,19.533 Z M4.75,19.516 L4.75,19.533 L7.75,19.533 L7.75,19.516 L4.75,19.516 Z M4.75,19.498 L4.75,19.516 L7.75,19.516 L7.75,19.498 L4.75,19.498 Z M4.75,19.48 L4.75,19.498 L7.75,19.498 L7.75,19.48 L4.75,19.48 Z M4.75,19.463 L4.75,19.48 L7.75,19.48 L7.75,19.463 L4.75,19.463 Z M4.75,19.445 L4.75,19.463 L7.75,19.463 L7.75,19.445 L4.75,19.445 Z M4.75,19.428 L4.75,19.445 L7.75,19.445 L7.75,19.428 L4.75,19.428 Z M4.75,19.41 L4.75,19.428 L7.75,19.428 L7.75,19.41 L4.75,19.41 Z M4.75,19.393 L4.75,19.41 L7.75,19.41 L7.75,19.393 L4.75,19.393 Z M4.75,19.375 L4.75,19.393 L7.75,19.393 L7.75,19.375 L4.75,19.375 Z M4.75,19.357 L4.75,19.375 L7.75,19.375 L7.75,19.357 L4.75,19.357 Z M4.75,19.34 L4.75,19.357 L7.75,19.357 L7.75,19.34 L4.75,19.34 Z M4.75,19.322 L4.75,19.34 L7.75,19.34 L7.75,19.322 L4.75,19.322 Z M4.75,19.305 L4.75,19.322 L7.75,19.322 L7.75,19.305 L4.75,19.305 Z M4.75,19.287 L4.75,19.305 L7.75,19.305 L7.75,19.287 L4.75,19.287 Z M4.75,19.27 L4.75,19.287 L7.75,19.287 L7.75,19.27 L4.75,19.27 Z M4.75,19.252 L4.75,19.27 L7.75,19.27 L7.75,19.252 L4.75,19.252 Z M4.75,19.234 L4.75,19.252 L7.75,19.252 L7.75,19.234 L4.75,19.234 Z M4.75,19.217 L4.75,19.234 L7.75,19.234 L7.75,19.217 L4.75,19.217 Z M4.75,19.199 L4.75,19.217 L7.75,19.217 L7.75,19.199 L4.75,19.199 Z M4.75,19.182 L4.75,19.199 L7.75,19.199 L7.75,19.182 L4.75,19.182 Z M4.75,19.164 L4.75,19.182 L7.75,19.182 L7.75,19.164 L4.75,19.164 Z M4.75,19.146 L4.75,19.164 L7.75,19.164 L7.75,19.146 L4.75,19.146 Z M4.75,19.129 L4.75,19.146 L7.75,19.146 L7.75,19.129 L4.75,19.129 Z M4.75,19.111 L4.75,19.129 L7.75,19.129 L7.75,19.111 L4.75,19.111 Z M4.75,19.094 L4.75,19.111 L7.75,19.111 L7.75,19.094 L4.75,19.094 Z M4.75,19.076 L4.75,19.094 L7.75,19.094 L7.75,19.076 L4.75,19.076 Z M4.75,19.059 L4.75,19.076 L7.75,19.076 L7.75,19.059 L4.75,19.059 Z M4.75,19.041 L4.75,19.059 L7.75,19.059 L7.75,19.041 L4.75,19.041 Z M4.75,19.023 L4.75,19.041 L7.75,19.041 L7.75,19.023 L4.75,19.023 Z M4.75,19.006 L4.75,19.023 L7.75,19.023 L7.75,19.006 L4.75,19.006 Z M4.75,18.988 L4.75,19.006 L7.75,19.006 L7.75,18.988 L4.75,18.988 Z M4.75,18.971 L4.75,18.988 L7.75,18.988 L7.75,18.971 L4.75,18.971 Z M4.75,18.953 L4.75,18.971 L7.75,18.971 L7.75,18.953 L4.75,18.953 Z M4.75,18.936 L4.75,18.953 L7.75,18.953 L7.75,18.936 L4.75,18.936 Z M4.75,18.918 L4.75,18.936 L7.75,18.936 L7.75,18.918 L4.75,18.918 Z M4.75,18.9 L4.75,18.918 L7.75,18.918 L7.75,18.9 L4.75,18.9 Z M4.75,18.883 L4.75,18.9 L7.75,18.9 L7.75,18.883 L4.75,18.883 Z M4.75,18.865 L4.75,18.883 L7.75,18.883 L7.75,18.865 L4.75,18.865 Z M4.75,18.848 L4.75,18.865 L7.75,18.865 L7.75,18.848 L4.75,18.848 Z M4.75,18.83 L4.75,18.848 L7.75,18.848 L7.75,18.83 L4.75,18.83 Z M4.75,18.812 L4.75,18.83 L7.75,18.83 L7.75,18.812 L4.75,18.812 Z M4.75,18.795 L4.75,18.812 L7.75,18.812 L7.75,18.795 L4.75,18.795 Z M4.75,18.777 L4.75,18.795 L7.75,18.795 L7.75,18.777 L4.75,18.777 Z M4.75,18.76 L4.75,18.777 L7.75,18.777 L7.75,18.76 L4.75,18.76 Z M4.75,18.742 L4.75,18.76 L7.75,18.76 L7.75,18.742 L4.75,18.742 Z M4.75,18.725 L4.75,18.742 L7.75,18.742 L7.75,18.725 L4.75,18.725 Z M4.75,18.707 L4.75,18.725 L7.75,18.725 L7.75,18.707 L4.75,18.707 Z M4.75,18.689 L4.75,18.707 L7.75,18.707 L7.75,18.689 L4.75,18.689 Z M4.75,18.672 L4.75,18.689 L7.75,18.689 L7.75,18.672 L4.75,18.672 Z M4.75,18.654 L4.75,18.672 L7.75,18.672 L7.75,18.654 L4.75,18.654 Z M4.75,18.637 L4.75,18.654 L7.75,18.654 L7.75,18.637 L4.75,18.637 Z M4.75,18.619 L4.75,18.637 L7.75,18.637 L7.75,18.619 L4.75,18.619 Z M4.75,18.602 L4.75,18.619 L7.75,18.619 L7.75,18.602 L4.75,18.602 Z M4.75,18.584 L4.75,18.602 L7.75,18.602 L7.75,18.584 L4.75,18.584 Z M4.75,18.566 L4.75,18.584 L7.75,18.584 L7.75,18.566 L4.75,18.566 Z M4.75,18.549 L4.75,18.566 L7.75,18.566 L7.75,18.549 L4.75,18.549 Z M4.75,18.531 L4.75,18.549 L7.75,18.549 L7.75,18.531 L4.75,18.531 Z M4.75,18.514 L4.75,18.531 L7.75,18.531 L7.75,18.514 L4.75,18.514 Z M4.75,18.496 L4.75,18.514 L7.75,18.514 L7.75,18.496 L4.75,18.496 Z M4.75,18.479 L4.75,18.496 L7.75,18.496 L7.75,18.479 L4.75,18.479 Z M4.75,18.461 L4.75,18.479 L7.75,18.479 L7.75,18.461 L4.75,18.461 Z M4.75,18.443 L4.75,18.461 L7.75,18.461 L7.75,18.443 L4.75,18.443 Z M4.75,18.426 L4.75,18.443 L7.75,18.443 L7.75,18.426 L4.75,18.426 Z M4.75,18.408 L4.75,18.426 L7.75,18.426 L7.75,18.408 L4.75,18.408 Z M4.75,18.391 L4.75,18.408 L7.75,18.408 L7.75,18.391 L4.75,18.391 Z M4.75,18.373 L4.75,18.391 L7.75,18.391 L7.75,18.373 L4.75,18.373 Z M4.75,18.355 L4.75,18.373 L7.75,18.373 L7.75,18.355 L4.75,18.355 Z M4.75,18.338 L4.75,18.355 L7.75,18.355 L7.75,18.338 L4.75,18.338 Z M4.75,18.32 L4.75,18.338 L7.75,18.338 L7.75,18.32 L4.75,18.32 Z M4.75,18.303 L4.75,18.32 L7.75,18.32 L7.75,18.303 L4.75,18.303 Z M4.75,18.285 L4.75,18.303 L7.75,18.303 L7.75,18.285 L4.75,18.285 Z M4.75,18.268 L4.75,18.285 L7.75,18.285 L7.75,18.268 L4.75,18.268 Z M4.75,18.25 L4.75,18.268 L7.75,18.268 L7.75,18.25 L4.75,18.25 Z M4.75,18.232 L4.75,18.25 L7.75,18.25 L7.75,18.232 L4.75,18.232 Z M4.75,18.215 L4.75,18.232 L7.75,18.232 L7.75,18.215 L4.75,18.215 Z M4.75,18.197 L4.75,18.215 L7.75,18.215 L7.75,18.197 L4.75,18.197 Z M4.75,18.18 L4.75,18.197 L7.75,18.197 L7.75,18.18 L4.75,18.18 Z M4.75,18.162 L4.75,18.18 L7.75,18.18 L7.75,18.162 L4.75,18.162 Z M4.75,18.145 L4.75,18.162 L7.75,18.162 L7.75,18.145 L4.75,18.145 Z M4.75,18.127 L4.75,18.145 L7.75,18.145 L7.75,18.127 L4.75,18.127 Z M4.75,18.109 L4.75,18.127 L7.75,18.127 L7.75,18.109 L4.75,18.109 Z M4.75,18.092 L4.75,18.109 L7.75,18.109 L7.75,18.092 L4.75,18.092 Z M4.75,18.074 L4.75,18.092 L7.75,18.092 L7.75,18.074 L4.75,18.074 Z M4.75,18.057 L4.75,18.074 L7.75,18.074 L7.75,18.057 L4.75,18.057 Z M4.75,18.039 L4.75,18.057 L7.75,18.057 L7.75,18.039 L4.75,18.039 Z M4.75,18.021 L4.75,18.039 L7.75,18.039 L7.75,18.021 L4.75,18.021 Z M4.75,18.004 L4.75,18.021 L7.75,18.021 L7.75,18.004 L4.75,18.004 Z M4.75,17.986 L4.75,18.004 L7.75,18.004 L7.75,17.986 L4.75,17.986 Z M4.75,17.969 L4.75,17.986 L7.75,17.986 L7.75,17.969 L4.75,17.969 Z M4.75,17.951 L4.75,17.969 L7.75,17.969 L7.75,17.951 L4.75,17.951 Z M4.75,17.934 L4.75,17.951 L7.75,17.951 L7.75,17.934 L4.75,17.934 Z M4.75,17.916 L4.75,17.934 L7.75,17.934 L7.75,17.916 L4.75,17.916 Z M4.75,17.898 L4.75,17.916 L7.75,17.916 L7.75,17.898 L4.75,17.898 Z M4.75,17.881 L4.75,17.898 L7.75,17.898 L7.75,17.881 L4.75,17.881 Z M4.75,17.863 L4.75,17.881 L7.75,17.881 L7.75,17.863 L4.75,17.863 Z M4.75,17.846 L4.75,17.863 L7.75,17.863 L7.75,17.846 L4.75,17.846 Z M4.75,17.828 L4.75,17.846 L7.75,17.846 L7.75,17.828 L4.75,17.828 Z M4.75,17.811 L4.75,17.828 L7.75,17.828 L7.75,17.811 L4.75,17.811 Z M4.75,17.793 L4.75,17.811 L7.75,17.811 L7.75,17.793 L4.75,17.793 Z M4.75,17.775 L4.75,17.793 L7.75,17.793 L7.75,17.775 L4.75,17.775 Z M4.75,17.758 L4.75,17.775 L7.75,17.775 L7.75,17.758 L4.75,17.758 Z M4.75,17.74 L4.75,17.758 L7.75,17.758 L7.75,17.74 L4.75,17.74 Z M4.75,17.723 L4.75,17.74 L7.75,17.74 L7.75,17.723 L4.75,17.723 Z M4.75,17.705 L4.75,17.723 L7.75,17.723 L7.75,17.705 L4.75,17.705 Z M4.75,17.688 L4.75,17.705 L7.75,17.705 L7.75,17.688 L4.75,17.688 Z M4.75,17.67 L4.75,17.688 L7.75,17.688 L7.75,17.67 L4.75,17.67 Z M4.75,17.652 L4.75,17.67 L7.75,17.67 L7.75,17.652 L4.75,17.652 Z M4.75,17.635 L4.75,17.652 L7.75,17.652 L7.75,17.635 L4.75,17.635 Z M4.75,17.617 L4.75,17.635 L7.75,17.635 L7.75,17.617 L4.75,17.617 Z M4.75,17.6 L4.75,17.617 L7.75,17.617 L7.75,17.6 L4.75,17.6 Z M4.75,17.582 L4.75,17.6 L7.75,17.6 L7.75,17.582 L4.75,17.582 Z M4.75,17.564 L4.75,17.582 L7.75,17.582 L7.75,17.564 L4.75,17.564 Z M4.75,17.547 L4.75,17.564 L7.75,17.564 L7.75,17.547 L4.75,17.547 Z M4.75,17.529 L4.75,17.547 L7.75,17.547 L7.75,17.529 L4.75,17.529 Z M4.75,17.512 L4.75,17.529 L7.75,17.529 L7.75,17.512 L4.75,17.512 Z M4.75,17.494 L4.75,17.512 L7.75,17.512 L7.75,17.494 L4.75,17.494 Z M4.75,17.477 L4.75,17.494 L7.75,17.494 L7.75,17.477 L4.75,17.477 Z M4.75,17.459 L4.75,17.477 L7.75,17.477 L7.75,17.459 L4.75,17.459 Z M4.75,17.441 L4.75,17.459 L7.75,17.459 L7.75,17.441 L4.75,17.441 Z M4.75,17.424 L4.75,17.441 L7.75,17.441 L7.75,17.424 L4.75,17.424 Z M4.75,17.406 L4.75,17.424 L7.75,17.424 L7.75,17.406 L4.75,17.406 Z M4.75,17.389 L4.75,17.406 L7.75,17.406 L7.75,17.389 L4.75,17.389 Z M4.75,17.371 L4.75,17.389 L7.75,17.389 L7.75,17.371 L4.75,17.371 Z M4.75,17.354 L4.75,17.371 L7.75,17.371 L7.75,17.354 L4.75,17.354 Z M4.75,17.336 L4.75,17.354 L7.75,17.354 L7.75,17.336 L4.75,17.336 Z M4.75,17.318 L4.75,17.336 L7.75,17.336 L7.75,17.318 L4.75,17.318 Z M4.75,17.301 L4.75,17.318 L7.75,17.318 L7.75,17.301 L4.75,17.301 Z M4.75,17.283 L4.75,17.301 L7.75,17.301 L7.75,17.283 L4.75,17.283 Z M4.75,17.266 L4.75,17.283 L7.75,17.283 L7.75,17.266 L4.75,17.266 Z M4.75,17.248 L4.75,17.266 L7.75,17.266 L7.75,17.248 L4.75,17.248 Z M4.75,17.23 L4.75,17.248 L7.75,17.248 L7.75,17.23 L4.75,17.23 Z M4.75,17.213 L4.75,17.23 L7.75,17.23 L7.75,17.213 L4.75,17.213 Z M4.75,17.195 L4.75,17.213 L7.75,17.213 L7.75,17.195 L4.75,17.195 Z M4.75,17.178 L4.75,17.195 L7.75,17.195 L7.75,17.178 L4.75,17.178 Z M4.75,17.16 L4.75,17.178 L7.75,17.178 L7.75,17.16 L4.75,17.16 Z M4.75,17.143 L4.75,17.16 L7.75,17.16 L7.75,17.143 L4.75,17.143 Z M4.75,17.125 L4.75,17.143 L7.75,17.143 L7.75,17.125 L4.75,17.125 Z M4.75,17.107 L4.75,17.125 L7.75,17.125 L7.75,17.107 L4.75,17.107 Z M4.75,17.09 L4.75,17.107 L7.75,17.107 L7.75,17.09 L4.75,17.09 Z M4.75,17.072 L4.75,17.09 L7.75,17.09 L7.75,17.072 L4.75,17.072 Z M4.75,17.055 L4.75,17.072 L7.75,17.072 L7.75,17.055 L4.75,17.055 Z M4.75,17.037 L4.75,17.055 L7.75,17.055 L7.75,17.037 L4.75,17.037 Z M4.75,17.02 L4.75,17.037 L7.75,17.037 L7.75,17.02 L4.75,17.02 Z M4.75,17.002 L4.75,17.02 L7.75,17.02 L7.75,17.002 L4.75,17.002 Z M4.75,16.984 L4.75,17.002 L7.75,17.002 L7.75,16.984 L4.75,16.984 Z M4.75,16.967 L4.75,16.984 L7.75,16.984 L7.75,16.967 L4.75,16.967 Z M4.75,16.949 L4.75,16.967 L7.75,16.967 L7.75,16.949 L4.75,16.949 Z M4.75,16.932 L4.75,16.949 L7.75,16.949 L7.75,16.932 L4.75,16.932 Z M4.75,16.914 L4.75,16.932 L7.75,16.932 L7.75,16.914 L4.75,16.914 Z M4.75,16.896 L4.75,16.914 L7.75,16.914 L7.75,16.896 L4.75,16.896 Z M4.75,16.879 L4.75,16.896 L7.75,16.896 L7.75,16.879 L4.75,16.879 Z M4.75,16.861 L4.75,16.879 L7.75,16.879 L7.75,16.861 L4.75,16.861 Z M4.75,16.844 L4.75,16.861 L7.75,16.861 L7.75,16.844 L4.75,16.844 Z M4.75,16.826 L4.75,16.844 L7.75,16.844 L7.75,16.826 L4.75,16.826 Z M4.75,16.809 L4.75,16.826 L7.75,16.826 L7.75,16.809 L4.75,16.809 Z M4.75,16.791 L4.75,16.809 L7.75,16.809 L7.75,16.791 L4.75,16.791 Z M4.75,16.773 L4.75,16.791 L7.75,16.791 L7.75,16.773 L4.75,16.773 Z M4.75,16.756 L4.75,16.773 L7.75,16.773 L7.75,16.756 L4.75,16.756 Z M4.75,16.738 L4.75,16.756 L7.75,16.756 L7.75,16.738 L4.75,16.738 Z M4.75,16.721 L4.75,16.738 L7.75,16.738 L7.75,16.721 L4.75,16.721 Z M4.75,16.703 L4.75,16.721 L7.75,16.721 L7.75,16.703 L4.75,16.703 Z M4.75,16.686 L4.75,16.703 L7.75,16.703 L7.75,16.686 L4.75,16.686 Z M4.75,16.668 L4.75,16.686 L7.75,16.686 L7.75,16.668 L4.75,16.668 Z M4.75,16.65 L4.75,16.668 L7.75,16.668 L7.75,16.65 L4.75,16.65 Z M4.75,16.633 L4.75,16.65 L7.75,16.65 L7.75,16.633 L4.75,16.633 Z M4.75,16.615 L4.75,16.633 L7.75,16.633 L7.75,16.615 L4.75,16.615 Z M4.75,16.598 L4.75,16.615 L7.75,16.615 L7.75,16.598 L4.75,16.598 Z M4.75,16.58 L4.75,16.598 L7.75,16.598 L7.75,16.58 L4.75,16.58 Z M4.75,16.562 L4.75,16.58 L7.75,16.58 L7.75,16.562 L4.75,16.562 Z M4.75,16.545 L4.75,16.562 L7.75,16.562 L7.75,16.545 L4.75,16.545 Z M4.75,16.527 L4.75,16.545 L7.75,16.545 L7.75,16.527 L4.75,16.527 Z M4.75,16.51 L4.75,16.527 L7.75,16.527 L7.75,16.51 L4.75,16.51 Z M4.75,16.492 L4.75,16.51 L7.75,16.51 L7.75,16.492 L4.75,16.492 Z M4.75,16.475 L4.75,16.492 L7.75,16.492 L7.75,16.475 L4.75,16.475 Z M4.75,16.457 L4.75,16.475 L7.75,16.475 L7.75,16.457 L4.75,16.457 Z M4.75,16.439 L4.75,16.457 L7.75,16.457 L7.75,16.439 L4.75,16.439 Z M4.75,16.422 L4.75,16.439 L7.75,16.439 L7.75,16.422 L4.75,16.422 Z M4.75,16.404 L4.75,16.422 L7.75,16.422 L7.75,16.404 L4.75,16.404 Z M4.75,16.387 L4.75,16.404 L7.75,16.404 L7.75,16.387 L4.75,16.387 Z M4.75,16.369 L4.75,16.387 L7.75,16.387 L7.75,16.369 L4.75,16.369 Z M4.75,16.352 L4.75,16.369 L7.75,16.369 L7.75,16.352 L4.75,16.352 Z M4.75,16.334 L4.75,16.352 L7.75,16.352 L7.75,16.334 L4.75,16.334 Z M4.75,16.316 L4.75,16.334 L7.75,16.334 L7.75,16.316 L4.75,16.316 Z M4.75,16.299 L4.75,16.316 L7.75,16.316 L7.75,16.299 L4.75,16.299 Z M4.75,16.281 L4.75,16.299 L7.75,16.299 L7.75,16.281 L4.75,16.281 Z M4.75,16.264 L4.75,16.281 L7.75,16.281 L7.75,16.264 L4.75,16.264 Z M4.75,16.246 L4.75,16.264 L7.75,16.264 L7.75,16.246 L4.75,16.246 Z M4.75,16.229 L4.75,16.246 L7.75,16.246 L7.75,16.229 L4.75,16.229 Z M4.75,16.211 L4.75,16.229 L7.75,16.229 L7.75,16.211 L4.75,16.211 Z M4.75,16.193 L4.75,16.211 L7.75,16.211 L7.75,16.193 L4.75,16.193 Z M4.75,16.176 L4.75,16.193 L7.75,16.193 L7.75,16.176 L4.75,16.176 Z M4.75,16.158 L4.75,16.176 L7.75,16.176 L7.75,16.158 L4.75,16.158 Z M4.75,16.141 L4.75,16.158 L7.75,16.158 L7.75,16.141 L4.75,16.141 Z M4.75,16.123 L4.75,16.141 L7.75,16.141 L7.75,16.123 L4.75,16.123 Z M4.75,16.105 L4.75,16.123 L7.75,16.123 L7.75,16.105 L4.75,16.105 Z M4.75,16.088 L4.75,16.105 L7.75,16.105 L7.75,16.088 L4.75,16.088 Z M4.75,16.07 L4.75,16.088 L7.75,16.088 L7.75,16.07 L4.75,16.07 Z M4.75,16.053 L4.75,16.07 L7.75,16.07 L7.75,16.053 L4.75,16.053 Z M4.75,16.035 L4.75,16.053 L7.75,16.053 L7.75,16.035 L4.75,16.035 Z M4.75,16.018 L4.75,16.035 L7.75,16.035 L7.75,16.018 L4.75,16.018 Z M4.75,16 L4.75,16.018 L7.75,16.018 L7.75,16 L4.75,16 Z M12,11.75 C10.757,11.75 9.75,12.757 9.75,14 L12.75,14 C12.75,14.414 12.414,14.75 12,14.75 L12,11.75 Z M20,11.75 L12,11.75 L12,14.75 L20,14.75 L20,11.75 Z M22.25,14 C22.25,12.757 21.243,11.75 20,11.75 L20,14.75 C19.586,14.75 19.25,14.414 19.25,14 L22.25,14 Z M20,16.25 C21.243,16.25 22.25,15.243 22.25,14 L19.25,14 C19.25,13.586 19.586,13.25 20,13.25 L20,16.25 Z M12,16.25 L20,16.25 L20,13.25 L12,13.25 L12,16.25 Z M9.75,14 C9.75,15.243 10.757,16.25 12,16.25 L12,13.25 C12.414,13.25 12.75,13.586 12.75,14 L9.75,14 Z M12.75,18 C12.75,18.414 12.414,18.75 12,18.75 L12,15.75 C10.757,15.75 9.75,16.757 9.75,18 L12.75,18 Z M12,17.25 C12.414,17.25 12.75,17.586 12.75,18 L9.75,18 C9.75,19.243 10.757,20.25 12,20.25 L12,17.25 Z M16,17.25 L12,17.25 L12,20.25 L16,20.25 L16,17.25 Z M15.25,18 C15.25,17.586 15.586,17.25 16,17.25 L16,20.25 C17.243,20.25 18.25,19.243 18.25,18 L15.25,18 Z M16,18.75 C15.586,18.75 15.25,18.414 15.25,18 L18.25,18 C18.25,16.757 17.243,15.75 16,15.75 L16,18.75 Z M12,18.75 L16,18.75 L16,15.75 L12,15.75 L12,18.75 Z"/>
  <path fill="#151E28" d="M6.25,16 C6.25,10.615 10.615,6.25 16,6.25 C21.385,6.25 25.75,10.615 25.75,16 C25.75,21.385 21.385,25.75 16,25.75 C14.347,25.75 13.003,25.428 11.972,25.028 C11.309,24.77 10.825,24.583 10.471,24.456 C10.294,24.392 10.161,24.348 10.06,24.319 C9.961,24.291 9.92,24.285 9.915,24.284 L9.915,24.284 C9.717,24.267 9.689,24.269 9.674,24.271 C9.658,24.273 9.63,24.277 9.441,24.336 C9.396,24.35 9.3,24.392 9.087,24.522 C8.88,24.648 8.614,24.826 8.233,25.079 L7.416,25.624 C7.186,25.778 6.89,25.792 6.646,25.661 C6.402,25.531 6.25,25.277 6.25,25 Z M16,7.75 C11.444,7.75 7.75,11.444 7.75,16 L7.75,23.599 C7.964,23.458 8.147,23.338 8.305,23.242 C8.537,23.1 8.765,22.975 8.997,22.903 L9.005,22.9 C9.165,22.851 9.33,22.8 9.511,22.78 C9.692,22.76 9.864,22.774 10.031,22.788 L10.039,22.789 C10.298,22.811 10.629,22.919 10.977,23.044 C11.352,23.178 11.854,23.373 12.503,23.625 L12.503,23.625 L12.503,23.625 L12.515,23.63 C13.385,23.968 14.546,24.25 16,24.25 C20.556,24.25 24.25,20.556 24.25,16 C24.25,11.444 20.556,7.75 16,7.75 Z M11.25,14 C11.25,13.586 11.586,13.25 12,13.25 L20,13.25 C20.414,13.25 20.75,13.586 20.75,14 C20.75,14.414 20.414,14.75 20,14.75 L12,14.75 C11.586,14.75 11.25,14.414 11.25,14 Z M12,17.25 L16,17.25 C16.414,17.25 16.75,17.586 16.75,18 C16.75,18.414 16.414,18.75 16,18.75 L12,18.75 C11.586,18.75 11.25,18.414 11.25,18 C11.25,17.586 11.586,17.25 12,17.25 Z"/>
</svg>

