<svg xmlns="http://www.w3.org/2000/svg" viewBox="0 0 32 32">
  <defs/>
  <path fill="white" d="M24.923,10.22 C25,10.606 25,11.071 25,12 L25,18.6 C25,20.84 25,21.96 24.564,22.816 C24.181,23.569 23.569,24.181 22.816,24.564 C21.96,25 20.84,25 18.6,25 L13.4,25 C11.16,25 10.04,25 9.184,24.564 C8.431,24.181 7.819,23.569 7.436,22.816 C7,21.96 7,20.84 7,18.6 L7,12 C7,11.071 7,10.606 7.077,10.22 C7.392,8.633 8.633,7.392 10.22,7.077 C10.606,7 11.071,7 12,7 L20,7 C20.929,7 21.394,7 21.78,7.077 C23.367,7.392 24.608,8.633 24.923,10.22 Z"/>
  <path fill="white" d="M14.014,6.25 L13.988,7.75 C13.996,7.75 14.005,7.75 14.014,7.75 L14.014,6.25 Z M18.6,6.25 L18.6,7.75 L18.6,7.75 L18.6,6.25 Z M13.988,6.25 L13.988,7.75 C13.996,7.75 14.005,7.75 14.014,7.75 L13.988,6.25 Z M13.4,6.25 L13.4,7.75 L13.4,7.75 L13.4,6.25 Z M13.367,6.25 L13.367,7.75 L13.367,7.75 L13.367,6.25 Z M10.712,6.307 L10.834,7.802 L10.834,7.802 L10.712,6.307 Z M8.844,6.768 L9.525,8.104 L9.525,8.104 L8.844,6.768 Z M6.768,8.844 L8.104,9.525 L8.104,9.525 L6.768,8.844 Z M6.307,10.712 L4.812,10.59 L4.812,10.59 L6.307,10.712 Z M6.257,11.897 L7.743,12.101 C7.751,12.041 7.756,11.981 7.757,11.921 L6.257,11.897 Z M6.254,12.082 L7.754,12.1 C7.755,12.04 7.752,11.979 7.746,11.919 L6.254,12.082 Z M6.25,13.367 L7.75,13.367 L7.75,13.367 L6.25,13.367 Z M6.25,18.633 L7.75,18.633 L7.75,18.633 L6.25,18.633 Z M6.307,21.288 L4.812,21.41 L4.812,21.41 L6.307,21.288 Z M6.768,23.157 L8.104,22.476 L8.104,22.476 L6.768,23.157 Z M8.844,25.232 L9.525,23.896 L9.525,23.896 L8.844,25.232 Z M10.712,25.693 L10.59,27.188 L10.59,27.188 L10.712,25.693 Z M13.367,25.75 L13.367,24.25 L13.367,24.25 L13.367,25.75 Z M18.633,25.75 L18.633,24.25 L18.633,24.25 L18.633,25.75 Z M21.288,25.693 L21.41,27.188 L21.41,27.188 L21.288,25.693 Z M23.157,25.232 L22.476,23.896 L22.476,23.896 L23.157,25.232 Z M25.232,23.157 L23.896,22.476 L23.896,22.476 L25.232,23.157 Z M25.693,21.288 L27.188,21.41 L27.188,21.41 L25.693,21.288 Z M25.75,18.633 L24.25,18.633 L24.25,18.633 L25.75,18.633 Z M25.745,12.082 L24.254,11.919 C24.248,11.979 24.245,12.04 24.246,12.1 L25.745,12.082 Z M25.743,11.897 L24.243,11.921 C24.244,11.981 24.249,12.041 24.257,12.101 L25.743,11.897 Z M25.693,10.712 L27.188,10.59 L27.188,10.59 L25.693,10.712 Z M25.232,8.844 L23.896,9.525 L23.896,9.525 L25.232,8.844 Z M23.157,6.768 L22.476,8.104 L22.476,8.104 L23.157,6.768 Z M21.288,6.307 L21.166,7.802 L21.166,7.802 L21.288,6.307 Z M18.633,6.25 L18.633,7.75 L18.633,7.75 L18.633,6.25 Z M7.75,12.75 L7.75,11.25 C6.923,11.25 6.252,11.919 6.25,12.747 L7.75,12.75 Z M10.986,12.75 L11.012,11.25 C11.004,11.25 10.995,11.25 10.986,11.25 L10.986,12.75 Z M11.012,12.75 L11.012,11.25 C11.004,11.25 10.995,11.25 10.986,11.25 L11.012,12.75 Z M17.986,12.75 L18.001,11.25 C17.996,11.25 17.991,11.25 17.986,11.25 L17.986,12.75 Z M17.998,12.75 L17.983,14.25 C17.992,14.25 18.001,14.25 18.009,14.25 L17.998,12.75 Z M18.012,12.75 L18.012,11.25 L18.001,11.25 L18.012,12.75 Z M24.25,12.75 L25.75,12.747 C25.748,11.919 25.077,11.25 24.25,11.25 L24.25,12.75 Z M24.198,21.166 L25.693,21.288 L25.693,21.288 L24.198,21.166 Z M23.896,22.476 L25.232,23.157 L25.232,23.157 L23.896,22.476 Z M22.476,23.896 L23.157,25.232 L23.157,25.232 L22.476,23.896 Z M21.166,24.198 L21.288,25.693 L21.288,25.693 L21.166,24.198 Z M10.834,24.198 L10.712,25.693 L10.712,25.693 L10.834,24.198 Z M9.525,23.896 L8.844,25.232 L8.844,25.232 L9.525,23.896 Z M8.104,22.476 L6.768,23.157 L6.768,23.157 L8.104,22.476 Z M7.802,21.166 L6.307,21.288 L6.307,21.288 L7.802,21.166 Z M24.224,11.25 L24.224,12.75 C24.634,12.75 25.026,12.582 25.309,12.286 C25.592,11.99 25.741,11.591 25.722,11.181 L24.224,11.25 Z M24.198,10.834 L22.703,10.956 L22.703,10.956 L24.198,10.834 Z M19.325,11.25 L18.038,10.478 C17.76,10.942 17.753,11.519 18.019,11.989 C18.286,12.459 18.784,12.75 19.325,12.75 L19.325,11.25 Z M21.343,7.886 L20.057,7.114 L20.057,7.114 L21.343,7.886 Z M21.377,7.822 L21.54,6.331 C20.906,6.262 20.298,6.601 20.023,7.176 L21.377,7.822 Z M22.476,8.104 L23.157,6.768 L23.157,6.768 L22.476,8.104 Z M23.896,9.525 L25.232,8.844 L25.232,8.844 L23.896,9.525 Z M19.674,7.752 L20.96,8.524 C21.237,8.062 21.245,7.488 20.982,7.018 C20.718,6.548 20.223,6.256 19.685,6.252 L19.674,7.752 Z M17.575,11.25 L17.575,12.75 C18.102,12.75 18.59,12.474 18.862,12.022 L17.575,11.25 Z M12.325,11.25 L11.038,10.478 C10.76,10.942 10.753,11.519 11.019,11.989 C11.286,12.459 11.784,12.75 12.325,12.75 L12.325,11.25 Z M14.425,7.75 L14.425,6.25 C13.898,6.25 13.409,6.526 13.138,6.978 L14.425,7.75 Z M12.675,7.751 L13.961,8.522 C14.24,8.058 14.246,7.48 13.979,7.01 C13.712,6.539 13.212,6.249 12.671,6.251 L12.675,7.751 Z M10.575,11.25 L10.575,12.75 C11.102,12.75 11.591,12.474 11.862,12.022 L10.575,11.25 Z M10.834,7.802 L10.956,9.297 L10.956,9.297 L10.834,7.802 Z M9.525,8.104 L8.844,6.768 L8.844,6.768 L9.525,8.104 Z M8.104,9.525 L6.768,8.844 L6.768,8.844 L8.104,9.525 Z M7.802,10.834 L6.307,10.712 L6.307,10.712 L7.802,10.834 Z M7.776,11.25 L6.278,11.181 C6.259,11.591 6.408,11.99 6.691,12.286 C6.974,12.582 7.366,12.75 7.776,12.75 L7.776,11.25 Z M14.014,7.75 L18.6,7.75 L18.6,4.75 L14.014,4.75 L14.014,7.75 Z M14.014,7.75 C14.005,7.75 13.996,7.75 13.988,7.75 L14.04,4.75 C14.014,4.75 13.988,4.75 13.962,4.75 L14.014,7.75 Z M13.4,7.75 L13.988,7.75 L13.988,4.75 L13.4,4.75 L13.4,7.75 Z M13.367,7.75 L13.4,7.75 L13.4,4.75 L13.367,4.75 L13.367,7.75 Z M10.834,7.802 C11.457,7.751 12.252,7.75 13.367,7.75 L13.367,4.75 C12.298,4.75 11.362,4.749 10.59,4.812 L10.834,7.802 Z M9.525,8.104 C9.829,7.949 10.213,7.853 10.834,7.802 L10.59,4.812 C9.783,4.878 8.96,5.025 8.163,5.431 L9.525,8.104 Z M8.104,9.525 C8.416,8.913 8.913,8.416 9.525,8.104 L8.163,5.431 C6.987,6.03 6.03,6.987 5.431,8.163 L8.104,9.525 Z M7.802,10.834 C7.853,10.213 7.949,9.829 8.104,9.525 L5.431,8.163 C5.025,8.96 4.878,9.783 4.812,10.59 L7.802,10.834 Z M7.757,11.921 C7.764,11.493 7.777,11.137 7.802,10.834 L4.812,10.59 C4.78,10.987 4.765,11.416 4.757,11.873 L7.757,11.921 Z M7.75,12 C7.75,12.034 7.748,12.067 7.743,12.101 L4.771,11.693 C4.757,11.794 4.75,11.896 4.75,12 L7.75,12 Z M7.746,11.919 C7.749,11.946 7.75,11.973 7.75,12 L4.75,12 C4.75,12.082 4.755,12.165 4.763,12.246 L7.746,11.919 Z M7.75,13.367 C7.75,12.896 7.75,12.479 7.754,12.1 L4.755,12.065 C4.75,12.465 4.75,12.901 4.75,13.367 L7.75,13.367 Z M7.75,13.4 L7.75,13.367 L4.75,13.367 L4.75,13.4 L7.75,13.4 Z M7.75,18.6 L7.75,13.4 L4.75,13.4 L4.75,18.6 L7.75,18.6 Z M7.75,18.633 L7.75,18.6 L4.75,18.6 L4.75,18.633 L7.75,18.633 Z M7.802,21.166 C7.751,20.543 7.75,19.748 7.75,18.633 L4.75,18.633 C4.75,19.702 4.749,20.638 4.812,21.41 L7.802,21.166 Z M8.104,22.476 C7.949,22.171 7.853,21.787 7.802,21.166 L4.812,21.41 C4.878,22.217 5.025,23.04 5.431,23.837 L8.104,22.476 Z M9.525,23.896 C8.913,23.584 8.416,23.087 8.104,22.476 L5.431,23.837 C6.03,25.014 6.987,25.97 8.163,26.569 L9.525,23.896 Z M10.834,24.198 C10.213,24.147 9.829,24.051 9.525,23.896 L8.163,26.569 C8.96,26.975 9.783,27.122 10.59,27.188 L10.834,24.198 Z M13.367,24.25 C12.252,24.25 11.457,24.249 10.834,24.198 L10.59,27.188 C11.362,27.251 12.298,27.25 13.367,27.25 L13.367,24.25 Z M13.4,24.25 L13.367,24.25 L13.367,27.25 L13.4,27.25 L13.4,24.25 Z M18.6,24.25 L13.4,24.25 L13.4,27.25 L18.6,27.25 L18.6,24.25 Z M18.633,24.25 L18.6,24.25 L18.6,27.25 L18.633,27.25 L18.633,24.25 Z M21.166,24.198 C20.543,24.249 19.748,24.25 18.633,24.25 L18.633,27.25 C19.702,27.25 20.638,27.251 21.41,27.188 L21.166,24.198 Z M22.476,23.896 C22.171,24.051 21.787,24.147 21.166,24.198 L21.41,27.188 C22.217,27.122 23.04,26.975 23.837,26.569 L22.476,23.896 Z M23.896,22.476 C23.584,23.087 23.087,23.584 22.476,23.896 L23.837,26.569 C25.014,25.97 25.97,25.014 26.569,23.837 L23.896,22.476 Z M24.198,21.166 C24.147,21.787 24.051,22.171 23.896,22.476 L26.569,23.837 C26.975,23.04 27.122,22.217 27.188,21.41 L24.198,21.166 Z M24.25,18.633 C24.25,19.748 24.249,20.543 24.198,21.166 L27.188,21.41 C27.251,20.638 27.25,19.702 27.25,18.633 L24.25,18.633 Z M24.25,18.6 L24.25,18.633 L27.25,18.633 L27.25,18.6 L24.25,18.6 Z M24.25,13.4 L24.25,18.6 L27.25,18.6 L27.25,13.4 L24.25,13.4 Z M24.25,13.367 L24.25,13.4 L27.25,13.4 L27.25,13.367 L24.25,13.367 Z M24.25,13.365 L24.25,13.367 L27.25,13.367 L27.25,13.365 L24.25,13.365 Z M24.246,12.1 C24.25,12.479 24.25,12.895 24.25,13.365 L27.25,13.365 C27.25,12.9 27.25,12.465 27.245,12.065 L24.246,12.1 Z M24.25,12 C24.25,11.973 24.252,11.946 24.254,11.919 L27.237,12.246 C27.245,12.165 27.25,12.082 27.25,12 L24.25,12 Z M24.257,12.101 C24.252,12.067 24.25,12.034 24.25,12 L27.25,12 C27.25,11.896 27.243,11.794 27.229,11.693 L24.257,12.101 Z M24.198,10.834 C24.223,11.137 24.236,11.493 24.243,11.921 L27.243,11.873 C27.235,11.416 27.221,10.987 27.188,10.59 L24.198,10.834 Z M23.896,9.525 C24.051,9.829 24.147,10.213 24.198,10.834 L27.188,10.59 C27.122,9.783 26.975,8.96 26.569,8.163 L23.896,9.525 Z M22.476,8.104 C23.087,8.416 23.584,8.913 23.896,9.525 L26.569,8.163 C25.97,6.987 25.014,6.03 23.837,5.431 L22.476,8.104 Z M21.166,7.802 C21.787,7.853 22.171,7.949 22.476,8.104 L23.837,5.431 C23.04,5.025 22.217,4.878 21.41,4.812 L21.166,7.802 Z M18.633,7.75 C19.748,7.75 20.543,7.751 21.166,7.802 L21.41,4.812 C20.638,4.749 19.702,4.75 18.633,4.75 L18.633,7.75 Z M18.6,7.75 L18.633,7.75 L18.633,4.75 L18.6,4.75 L18.6,7.75 Z M6.25,12.747 C6.25,12.953 6.25,13.171 6.25,13.4 L9.25,13.4 C9.25,13.17 9.25,12.956 9.25,12.753 L6.25,12.747 Z M10.986,11.25 L7.75,11.25 L7.75,14.25 L10.986,14.25 L10.986,11.25 Z M10.986,11.25 C10.995,11.25 11.004,11.25 11.012,11.25 L10.96,14.25 C10.986,14.25 11.012,14.25 11.038,14.25 L10.986,11.25 Z M17.986,11.25 L11.012,11.25 L11.012,14.25 L17.986,14.25 L17.986,11.25 Z M18.012,11.25 L18.001,11.25 L17.972,14.25 L17.983,14.25 L18.012,11.25 Z M18.001,11.25 L17.986,11.25 L18.009,14.25 L18.024,14.25 L18.001,11.25 Z M24.25,11.25 L18.012,11.25 L18.012,14.25 L24.25,14.25 L24.25,11.25 Z M25.75,13.4 C25.75,13.171 25.75,12.953 25.75,12.747 L22.75,12.753 C22.75,12.956 22.75,13.17 22.75,13.4 L25.75,13.4 Z M25.75,18.6 L25.75,13.4 L22.75,13.4 L22.75,18.6 L25.75,18.6 Z M25.693,21.288 C25.751,20.584 25.75,19.707 25.75,18.6 L22.75,18.6 C22.75,19.758 22.748,20.49 22.703,21.044 L25.693,21.288 Z M25.232,23.157 C25.513,22.605 25.635,22.001 25.693,21.288 L22.703,21.044 C22.66,21.572 22.589,21.737 22.559,21.794 L25.232,23.157 Z M23.157,25.232 C24.05,24.777 24.777,24.05 25.232,23.157 L22.559,21.794 C22.392,22.124 22.124,22.392 21.794,22.559 L23.157,25.232 Z M21.288,25.693 C22.001,25.635 22.605,25.513 23.157,25.232 L21.794,22.559 C21.737,22.589 21.572,22.66 21.044,22.703 L21.288,25.693 Z M18.6,25.75 C19.707,25.75 20.584,25.751 21.288,25.693 L21.044,22.703 C20.49,22.748 19.758,22.75 18.6,22.75 L18.6,25.75 Z M13.4,25.75 L18.6,25.75 L18.6,22.75 L13.4,22.75 L13.4,25.75 Z M10.712,25.693 C11.416,25.751 12.293,25.75 13.4,25.75 L13.4,22.75 C12.242,22.75 11.51,22.748 10.956,22.703 L10.712,25.693 Z M8.844,25.232 C9.395,25.513 9.999,25.635 10.712,25.693 L10.956,22.703 C10.428,22.66 10.263,22.589 10.206,22.559 L8.844,25.232 Z M6.768,23.157 C7.223,24.05 7.95,24.777 8.844,25.232 L10.206,22.559 C9.876,22.392 9.609,22.124 9.441,21.794 L6.768,23.157 Z M6.307,21.288 C6.365,22.001 6.487,22.605 6.768,23.157 L9.441,21.794 C9.411,21.737 9.34,21.572 9.297,21.044 L6.307,21.288 Z M6.25,18.6 C6.25,19.707 6.249,20.584 6.307,21.288 L9.297,21.044 C9.252,20.49 9.25,19.758 9.25,18.6 L6.25,18.6 Z M6.25,13.4 L6.25,18.6 L9.25,18.6 L9.25,13.4 L6.25,13.4 Z M25.722,11.181 C25.715,11.02 25.705,10.864 25.693,10.712 L22.703,10.956 C22.712,11.066 22.719,11.186 22.726,11.319 L25.722,11.181 Z M19.325,12.75 L24.224,12.75 L24.224,9.75 L19.325,9.75 L19.325,12.75 Z M20.057,7.114 L18.038,10.478 L20.611,12.022 L22.629,8.658 L20.057,7.114 Z M20.023,7.176 C20.034,7.155 20.045,7.134 20.057,7.114 L22.629,8.658 C22.666,8.596 22.701,8.532 22.731,8.468 L20.023,7.176 Z M23.157,6.768 C22.67,6.52 22.144,6.397 21.54,6.331 L21.215,9.313 C21.609,9.356 21.744,9.415 21.794,9.441 L23.157,6.768 Z M25.232,8.844 C24.777,7.95 24.05,7.223 23.157,6.768 L21.794,9.441 C22.124,9.609 22.392,9.876 22.559,10.206 L25.232,8.844 Z M25.693,10.712 C25.635,9.999 25.513,9.395 25.232,8.844 L22.559,10.206 C22.589,10.263 22.66,10.428 22.703,10.956 L25.693,10.712 Z M19.685,6.252 C19.356,6.25 18.995,6.25 18.6,6.25 L18.6,9.25 C18.997,9.25 19.347,9.25 19.663,9.252 L19.685,6.252 Z M18.862,12.022 L20.96,8.524 L18.388,6.981 L16.289,10.478 L18.862,12.022 Z M12.325,12.75 L17.575,12.75 L17.575,9.75 L12.325,9.75 L12.325,12.75 Z M13.138,6.978 L11.038,10.478 L13.611,12.022 L15.711,8.522 L13.138,6.978 Z M18.6,6.25 L14.425,6.25 L14.425,9.25 L18.6,9.25 L18.6,6.25 Z M11.389,6.979 L9.289,10.478 L11.862,12.022 L13.961,8.522 L11.389,6.979 Z M10.956,9.297 C11.376,9.263 11.912,9.253 12.679,9.251 L12.671,6.251 C11.908,6.253 11.264,6.262 10.712,6.307 L10.956,9.297 Z M10.206,9.441 C10.263,9.411 10.428,9.34 10.956,9.297 L10.712,6.307 C9.999,6.365 9.395,6.487 8.844,6.768 L10.206,9.441 Z M9.441,10.206 C9.609,9.876 9.876,9.609 10.206,9.441 L8.844,6.768 C7.95,7.223 7.223,7.95 6.768,8.844 L9.441,10.206 Z M9.297,10.956 C9.34,10.428 9.411,10.263 9.441,10.206 L6.768,8.844 C6.487,9.395 6.365,9.999 6.307,10.712 L9.297,10.956 Z M9.275,11.319 C9.281,11.186 9.288,11.066 9.297,10.956 L6.307,10.712 C6.295,10.864 6.285,11.02 6.278,11.181 L9.275,11.319 Z M10.575,9.75 L7.776,9.75 L7.776,12.75 L10.575,12.75 L10.575,9.75 Z M11.75,16 C11.75,16.414 11.414,16.75 11,16.75 L11,13.75 C9.757,13.75 8.75,14.757 8.75,16 L11.75,16 Z M11,15.25 C11.414,15.25 11.75,15.586 11.75,16 L8.75,16 C8.75,17.242 9.757,18.25 11,18.25 L11,15.25 Z M15,15.25 L11,15.25 L11,18.25 L15,18.25 L15,15.25 Z M14.25,16 C14.25,15.586 14.586,15.25 15,15.25 L15,18.25 C16.243,18.25 17.25,17.242 17.25,16 L14.25,16 Z M15,16.75 C14.586,16.75 14.25,16.414 14.25,16 L17.25,16 C17.25,14.757 16.243,13.75 15,13.75 L15,16.75 Z M11,16.75 L15,16.75 L15,13.75 L11,13.75 L11,16.75 Z M11.75,20 C11.75,20.414 11.414,20.75 11,20.75 L11,17.75 C9.758,17.75 8.75,18.757 8.75,20 L11.75,20 Z M11,19.25 C11.414,19.25 11.75,19.586 11.75,20 L8.75,20 C8.75,21.242 9.758,22.25 11,22.25 L11,19.25 Z M19,19.25 L11,19.25 L11,22.25 L19,22.25 L19,19.25 Z M18.25,20 C18.25,19.586 18.586,19.25 19,19.25 L19,22.25 C20.243,22.25 21.25,21.242 21.25,20 L18.25,20 Z M19,20.75 C18.586,20.75 18.25,20.414 18.25,20 L21.25,20 C21.25,18.757 20.243,17.75 19,17.75 L19,20.75 Z M11,20.75 L19,20.75 L19,17.75 L11,17.75 L11,20.75 Z"/>
  <path fill="#151E28" d="M14.014,6.25 L18.633,6.25 C19.725,6.25 20.591,6.25 21.288,6.307 C22.002,6.365 22.605,6.487 23.156,6.768 C24.05,7.223 24.777,7.95 25.232,8.844 C25.513,9.395 25.635,9.998 25.693,10.712 C25.722,11.062 25.736,11.455 25.743,11.897 C25.748,11.931 25.75,11.965 25.75,12 Q25.75,12.042 25.746,12.083 C25.75,12.472 25.75,12.898 25.75,13.365 L25.75,18.633 C25.75,19.725 25.75,20.591 25.693,21.288 C25.635,22.002 25.513,22.605 25.232,23.156 C24.777,24.05 24.05,24.777 23.156,25.232 C22.605,25.513 22.002,25.635 21.288,25.693 C20.591,25.75 19.725,25.75 18.633,25.75 L13.367,25.75 C12.275,25.75 11.409,25.75 10.712,25.693 C9.998,25.635 9.395,25.513 8.844,25.232 C7.95,24.777 7.223,24.05 6.768,23.156 C6.487,22.605 6.365,22.002 6.307,21.288 C6.25,20.591 6.25,19.725 6.25,18.633 L6.25,13.367 C6.25,12.899 6.25,12.472 6.254,12.083 C6.252,12.055 6.25,12.028 6.25,12 C6.25,11.965 6.252,11.931 6.257,11.897 C6.264,11.455 6.278,11.062 6.307,10.712 C6.365,9.998 6.487,9.395 6.768,8.844 C7.223,7.95 7.95,7.223 8.844,6.768 C9.395,6.487 9.998,6.365 10.712,6.307 C11.409,6.25 12.275,6.25 13.367,6.25 L13.988,6.25 C13.996,6.25 14.005,6.25 14.014,6.25 Z M7.75,13.4 L7.75,18.6 C7.75,19.733 7.751,20.537 7.802,21.166 C7.853,21.787 7.949,22.171 8.104,22.476 C8.416,23.087 8.913,23.584 9.525,23.896 C9.829,24.051 10.213,24.147 10.834,24.198 C11.463,24.249 12.267,24.25 13.4,24.25 L18.6,24.25 C19.733,24.25 20.537,24.249 21.166,24.198 C21.787,24.147 22.171,24.051 22.476,23.896 C23.087,23.584 23.584,23.087 23.896,22.476 C24.051,22.171 24.147,21.787 24.198,21.166 C24.249,20.537 24.25,19.733 24.25,18.6 L24.25,13.4 C24.25,13.17 24.25,12.954 24.25,12.75 L18.012,12.75 L17.998,12.75 L17.986,12.75 L11.012,12.75 C11.004,12.75 10.995,12.75 10.986,12.75 L7.75,12.75 C7.75,12.954 7.75,13.17 7.75,13.4 Z M18.6,7.75 L14.425,7.75 L12.325,11.25 L17.575,11.25 L19.674,7.752 C19.352,7.75 18.996,7.75 18.6,7.75 Z M11,19.25 L19,19.25 C19.414,19.25 19.75,19.586 19.75,20 C19.75,20.414 19.414,20.75 19,20.75 L11,20.75 C10.586,20.75 10.25,20.414 10.25,20 C10.25,19.586 10.586,19.25 11,19.25 Z M24.198,10.834 C24.147,10.213 24.051,9.829 23.896,9.525 C23.584,8.913 23.087,8.416 22.476,8.104 C22.207,7.968 21.877,7.876 21.377,7.822 C21.367,7.844 21.356,7.865 21.343,7.886 L19.325,11.25 L24.224,11.25 C24.217,11.103 24.209,10.965 24.198,10.834 Z M10.575,11.25 L12.675,7.751 C11.91,7.753 11.32,7.762 10.834,7.802 C10.213,7.853 9.829,7.949 9.525,8.104 C8.913,8.416 8.416,8.913 8.104,9.525 C7.949,9.829 7.853,10.213 7.802,10.834 C7.791,10.965 7.783,11.103 7.776,11.25 Z M11,15.25 L15,15.25 C15.414,15.25 15.75,15.586 15.75,16 C15.75,16.414 15.414,16.75 15,16.75 L11,16.75 C10.586,16.75 10.25,16.414 10.25,16 C10.25,15.586 10.586,15.25 11,15.25 Z"/>
</svg>

