<svg xmlns="http://www.w3.org/2000/svg" viewBox="0 0 32 32">
  <defs/>
  <path fill="white" d="M16,6 C13.239,6 11,8.239 11,11 C8.239,11 6,13.239 6,16 C6,18.761 8.239,21 11,21 L21,21 C23.761,21 26,18.761 26,16 C26,13.239 23.761,11 21,11 C21,8.239 18.761,6 16,6 Z"/>
  <path fill="white" d="M12.318,8.876 L13.617,9.627 L13.617,9.627 L12.318,8.876 Z M21.851,20.165 L21.552,18.695 L21.552,18.695 L21.851,20.165 Z M21.265,21.049 L22.735,20.751 L22.735,20.751 L21.265,21.049 Z M22.149,21.635 L21.851,20.165 L21.851,20.165 L22.149,21.635 Z M21.707,10.293 L20.218,10.476 C20.302,11.159 20.841,11.698 21.524,11.782 L21.707,10.293 Z M11.02,8.124 L12.318,8.876 L12.318,8.876 L11.02,8.124 Z M11.293,9.149 L10.542,10.448 L10.542,10.448 L11.293,9.149 Z M12.7,12.103 L13.3,10.729 L13.3,10.729 L12.7,12.103 Z M13.3,10.729 L13.901,9.354 L13.901,9.354 L13.3,10.729 Z M9.851,21.635 L10.149,20.165 L10.149,20.165 L9.851,21.635 Z M10.735,21.049 L9.265,20.751 L9.265,20.751 L10.735,21.049 Z M10.149,20.165 L10.448,18.695 L10.448,18.695 L10.149,20.165 Z M15.25,23.189 L14.189,24.25 C14.618,24.679 15.264,24.807 15.824,24.575 C16.384,24.343 16.75,23.796 16.75,23.189 L15.25,23.189 Z M13.03,20.97 L14.091,19.909 L14.091,19.909 L13.03,20.97 Z M11.97,20.97 L10.909,19.909 L10.909,19.909 L11.97,20.97 Z M11.97,22.03 L10.909,23.091 L10.909,23.091 L11.97,22.03 Z M15.47,25.53 L14.409,26.591 L14.409,26.591 L15.47,25.53 Z M16.53,25.53 L17.591,26.591 L17.591,26.591 L16.53,25.53 Z M20.03,22.03 L21.091,23.091 L21.091,23.091 L20.03,22.03 Z M20.03,20.97 L21.091,19.909 L21.091,19.909 L20.03,20.97 Z M18.97,20.97 L17.909,19.909 L17.909,19.909 L18.97,20.97 Z M16.75,23.189 L15.25,23.189 C15.25,23.796 15.616,24.343 16.176,24.575 C16.736,24.807 17.382,24.679 17.811,24.25 L16.75,23.189 Z M16,5.25 C13.871,5.25 12.013,6.407 11.02,8.124 L13.617,9.627 C14.095,8.799 14.985,8.25 16,8.25 L16,5.25 Z M21.75,11 C21.75,7.824 19.176,5.25 16,5.25 L16,8.25 C17.519,8.25 18.75,9.481 18.75,11 L21.75,11 Z M21,10.25 C21.414,10.25 21.75,10.586 21.75,11 L18.75,11 C18.75,12.243 19.757,13.25 21,13.25 L21,10.25 Z M26.75,16 C26.75,12.824 24.176,10.25 21,10.25 L21,13.25 C22.519,13.25 23.75,14.481 23.75,16 L26.75,16 Z M22.149,21.635 C24.775,21.102 26.75,18.782 26.75,16 L23.75,16 C23.75,17.328 22.806,18.441 21.552,18.695 L22.149,21.635 Z M22.735,20.751 C22.817,21.157 22.555,21.553 22.149,21.635 L21.552,18.695 C20.335,18.942 19.548,20.13 19.795,21.348 L22.735,20.751 Z M21.851,20.165 C22.257,20.083 22.653,20.345 22.735,20.751 L19.795,21.348 C20.042,22.565 21.23,23.352 22.448,23.105 L21.851,20.165 Z M25.25,16 C25.25,18.055 23.791,19.771 21.851,20.165 L22.448,23.105 C25.757,22.433 28.25,19.511 28.25,16 L25.25,16 Z M21.524,11.782 C23.624,12.039 25.25,13.831 25.25,16 L28.25,16 C28.25,12.297 25.475,9.244 21.89,8.804 L21.524,11.782 Z M16,6.75 C18.169,6.75 19.961,8.376 20.218,10.476 L23.196,10.111 C22.756,6.525 19.703,3.75 16,3.75 L16,6.75 Z M12.318,8.876 C13.054,7.603 14.428,6.75 16,6.75 L16,3.75 C13.313,3.75 10.971,5.212 9.721,7.373 L12.318,8.876 Z M12.044,7.851 C12.403,8.058 12.525,8.517 12.318,8.876 L9.721,7.373 C9.099,8.449 9.467,9.825 10.542,10.448 L12.044,7.851 Z M11.02,8.124 C11.227,7.766 11.686,7.643 12.044,7.851 L10.542,10.448 C11.618,11.07 12.994,10.702 13.617,9.627 L11.02,8.124 Z M11,10.25 C7.824,10.25 5.25,12.824 5.25,16 L8.25,16 C8.25,14.481 9.481,13.25 11,13.25 L11,10.25 Z M13.3,10.729 C12.595,10.421 11.816,10.25 11,10.25 L11,13.25 C11.395,13.25 11.765,13.332 12.099,13.478 L13.3,10.729 Z M12.313,11.116 C12.479,10.736 12.921,10.563 13.3,10.729 L12.099,13.478 C13.238,13.975 14.564,13.456 15.062,12.317 L12.313,11.116 Z M12.7,12.103 C12.32,11.938 12.147,11.495 12.313,11.116 L15.062,12.317 C15.559,11.178 15.04,9.852 13.901,9.354 L12.7,12.103 Z M11,11.75 C11.606,11.75 12.18,11.876 12.7,12.103 L13.901,9.354 C13.01,8.965 12.027,8.75 11,8.75 L11,11.75 Z M6.75,16 C6.75,13.653 8.653,11.75 11,11.75 L11,8.75 C6.996,8.75 3.75,11.996 3.75,16 L6.75,16 Z M10.149,20.165 C8.209,19.771 6.75,18.055 6.75,16 L3.75,16 C3.75,19.511 6.243,22.433 9.552,23.105 L10.149,20.165 Z M9.265,20.751 C9.347,20.345 9.743,20.083 10.149,20.165 L9.552,23.105 C10.77,23.352 11.958,22.565 12.205,21.348 L9.265,20.751 Z M9.851,21.635 C9.445,21.553 9.183,21.157 9.265,20.751 L12.205,21.348 C12.452,20.13 11.665,18.942 10.448,18.695 L9.851,21.635 Z M5.25,16 C5.25,18.782 7.225,21.102 9.851,21.635 L10.448,18.695 C9.194,18.441 8.25,17.328 8.25,16 L5.25,16 Z M16,16.75 C15.586,16.75 15.25,16.414 15.25,16 L18.25,16 C18.25,14.757 17.243,13.75 16,13.75 L16,16.75 Z M16.75,16 C16.75,16.414 16.414,16.75 16,16.75 L16,13.75 C14.757,13.75 13.75,14.757 13.75,16 L16.75,16 Z M16.75,23.189 L16.75,16 L13.75,16 L13.75,23.189 L16.75,23.189 Z M11.97,22.03 L14.189,24.25 L16.311,22.129 L14.091,19.909 L11.97,22.03 Z M13.03,22.03 C12.737,22.323 12.263,22.323 11.97,22.03 L14.091,19.909 C13.212,19.03 11.788,19.03 10.909,19.909 L13.03,22.03 Z M13.03,20.97 C13.323,21.263 13.323,21.737 13.03,22.03 L10.909,19.909 C10.03,20.788 10.03,22.212 10.909,23.091 L13.03,20.97 Z M16.53,24.47 L13.03,20.97 L10.909,23.091 L14.409,26.591 L16.53,24.47 Z M15.47,24.47 C15.763,24.177 16.237,24.177 16.53,24.47 L14.409,26.591 C15.288,27.47 16.712,27.47 17.591,26.591 L15.47,24.47 Z M18.97,20.97 L15.47,24.47 L17.591,26.591 L21.091,23.091 L18.97,20.97 Z M18.97,22.03 C18.677,21.737 18.677,21.263 18.97,20.97 L21.091,23.091 C21.97,22.212 21.97,20.788 21.091,19.909 L18.97,22.03 Z M20.03,22.03 C19.737,22.323 19.263,22.323 18.97,22.03 L21.091,19.909 C20.212,19.03 18.788,19.03 17.909,19.909 L20.03,22.03 Z M17.811,24.25 L20.03,22.03 L17.909,19.909 L15.689,22.129 L17.811,24.25 Z M15.25,16 L15.25,23.189 L18.25,23.189 L18.25,16 L15.25,16 Z"/>
  <path fill="#151E28" d="M12.318,8.876 C12.111,9.234 11.652,9.357 11.293,9.149 C10.935,8.942 10.812,8.483 11.02,8.124 C12.013,6.408 13.871,5.25 16,5.25 C18.936,5.25 21.358,7.451 21.707,10.293 C24.549,10.642 26.75,13.064 26.75,16 C26.75,18.783 24.774,21.102 22.149,21.635 C21.743,21.717 21.347,21.455 21.265,21.049 C21.183,20.643 21.445,20.247 21.851,20.165 C23.79,19.771 25.25,18.055 25.25,16 C25.25,13.653 23.347,11.75 21,11.75 C20.586,11.75 20.25,11.414 20.25,11 C20.25,8.653 18.347,6.75 16,6.75 C14.428,6.75 13.054,7.603 12.318,8.876 Z M16.75,16 L16.75,23.189 L18.97,20.97 C19.263,20.677 19.737,20.677 20.03,20.97 C20.323,21.263 20.323,21.737 20.03,22.03 L16.53,25.53 C16.237,25.823 15.763,25.823 15.47,25.53 L11.97,22.03 C11.677,21.737 11.677,21.263 11.97,20.97 C12.263,20.677 12.737,20.677 13.03,20.97 L15.25,23.189 L15.25,16 C15.25,15.586 15.586,15.25 16,15.25 C16.414,15.25 16.75,15.586 16.75,16 Z M6.75,16 C6.75,18.055 8.21,19.771 10.149,20.165 C10.555,20.247 10.817,20.643 10.735,21.049 C10.653,21.455 10.257,21.717 9.851,21.635 C7.226,21.102 5.25,18.783 5.25,16 C5.25,12.824 7.824,10.25 11,10.25 C11.816,10.25 12.595,10.421 13.3,10.729 C13.68,10.895 13.853,11.337 13.687,11.716 C13.521,12.096 13.079,12.269 12.7,12.103 C12.18,11.876 11.606,11.75 11,11.75 C8.653,11.75 6.75,13.653 6.75,16 Z"/>
</svg>

