<svg xmlns="http://www.w3.org/2000/svg" viewBox="0 0 32 32">
  <defs/>
  <path fill="white" d="M25,16 C25,20.971 20.97,25 16,25 C11.029,25 7,20.971 7,16 C7,11.029 11.029,7 16,7 C20.97,7 25,11.029 25,16 Z"/>
  <path fill="white" d="M9.25,16 C9.25,12.272 12.272,9.25 16,9.25 L16,6.25 C10.615,6.25 6.25,10.615 6.25,16 L9.25,16 Z M16,22.75 C12.272,22.75 9.25,19.728 9.25,16 L6.25,16 C6.25,21.385 10.615,25.75 16,25.75 L16,22.75 Z M22.75,16 C22.75,19.728 19.728,22.75 16,22.75 L16,25.75 C21.384,25.75 25.75,21.385 25.75,16 L22.75,16 Z M16,9.25 C19.728,9.25 22.75,12.272 22.75,16 L25.75,16 C25.75,10.615 21.384,6.25 16,6.25 L16,9.25 Z M16,4.75 C9.787,4.75 4.75,9.787 4.75,16 L7.75,16 C7.75,11.444 11.443,7.75 16,7.75 L16,4.75 Z M27.25,16 C27.25,9.787 22.213,4.75 16,4.75 L16,7.75 C20.556,7.75 24.25,11.444 24.25,16 L27.25,16 Z M16,27.25 C22.213,27.25 27.25,22.213 27.25,16 L24.25,16 C24.25,20.556 20.556,24.25 16,24.25 L16,27.25 Z M4.75,16 C4.75,22.213 9.787,27.25 16,27.25 L16,24.25 C11.443,24.25 7.75,20.556 7.75,16 L4.75,16 Z"/>
  <path fill="#151E28" d="M16,6.25 C21.385,6.25 25.75,10.615 25.75,16 C25.75,21.385 21.385,25.75 16,25.75 C10.615,25.75 6.25,21.385 6.25,16 C6.25,10.615 10.615,6.25 16,6.25 Z M7.75,16 C7.75,20.556 11.443,24.25 16,24.25 C20.556,24.25 24.25,20.556 24.25,16 C24.25,11.444 20.556,7.75 16,7.75 C11.443,7.75 7.75,11.444 7.75,16 Z M19.735,13.147 L19.154,16.055 L19.131,16.17 C19.003,16.813 18.902,17.318 18.644,17.738 C18.418,18.107 18.107,18.418 17.738,18.645 C17.317,18.902 16.813,19.003 16.17,19.131 L16.055,19.154 L13.147,19.735 C12.901,19.785 12.647,19.708 12.469,19.53 C12.292,19.353 12.215,19.099 12.264,18.853 L12.846,15.945 L12.869,15.83 C12.997,15.187 13.097,14.682 13.355,14.262 C13.582,13.892 13.892,13.582 14.262,13.356 C14.682,13.097 15.187,12.997 15.83,12.869 L15.945,12.846 L18.853,12.265 C19.099,12.215 19.353,12.292 19.53,12.47 C19.707,12.647 19.784,12.901 19.735,13.147 Z M16.239,14.317 C15.425,14.48 15.208,14.534 15.046,14.634 C14.878,14.737 14.737,14.878 14.634,15.046 C14.534,15.209 14.48,15.425 14.317,16.239 L13.956,18.044 L15.761,17.683 C16.575,17.52 16.791,17.465 16.954,17.366 C17.122,17.263 17.263,17.122 17.366,16.954 C17.465,16.791 17.52,16.575 17.683,15.761 L18.044,13.956 Z"/>
</svg>

