<svg xmlns="http://www.w3.org/2000/svg" viewBox="0 0 32 32">
  <defs/>
  <path fill="white" d="M23,20.2 L23,13 L20.2,13 C19.08,13 18.52,13 18.092,12.782 C17.716,12.59 17.41,12.284 17.218,11.908 C17,11.48 17,10.92 17,9.8 L17,7 L13.8,7 C12.12,7 11.28,7 10.638,7.327 C10.073,7.615 9.615,8.074 9.327,8.638 C9,9.28 9,10.12 9,11.8 L9,20.2 C9,21.88 9,22.72 9.327,23.362 C9.615,23.927 10.073,24.385 10.638,24.673 C11.28,25 12.12,25 13.8,25 L18.2,25 C19.88,25 20.72,25 21.362,24.673 C21.927,24.385 22.385,23.927 22.673,23.362 C23,22.72 23,21.88 23,20.2 Z"/>
  <path fill="white" d="M17.75,7.892 L18.444,6.562 C17.979,6.319 17.421,6.337 16.973,6.609 C16.524,6.881 16.25,7.367 16.25,7.892 L17.75,7.892 Z M17.981,8.047 L18.952,6.904 L18.952,6.904 L17.981,8.047 Z M18.177,8.237 L19.237,7.177 L19.237,7.177 L18.177,8.237 Z M21.763,11.823 L22.823,10.763 L22.823,10.763 L21.763,11.823 Z M21.953,12.019 L20.809,12.99 L20.809,12.99 L21.953,12.019 Z M22.108,12.25 L22.108,13.75 C22.633,13.75 23.119,13.476 23.391,13.027 C23.663,12.579 23.681,12.021 23.438,11.556 L22.108,12.25 Z M18.948,12.225 L18.825,13.72 L18.825,13.72 L18.948,12.225 Z M18.433,12.114 L19.113,10.777 L19.113,10.777 L18.433,12.114 Z M17.886,11.568 L19.223,10.886 L19.223,10.886 L17.886,11.568 Z M17.775,11.053 L16.28,11.175 L16.28,11.175 L17.775,11.053 Z M23.75,13 L22.25,13 L22.25,13 L23.75,13 Z M23.75,12.975 L25.25,12.975 L25.25,12.975 L23.75,12.975 Z M23.75,12.975 L22.25,12.975 L22.25,12.975 L23.75,12.975 Z M23.741,12.605 L22.246,12.727 L22.246,12.727 L23.741,12.605 Z M23.096,11.048 L24.239,10.077 L24.239,10.077 L23.096,11.048 Z M22.841,10.78 L21.78,11.841 L21.78,11.841 L22.841,10.78 Z M22.823,10.763 L21.763,11.823 L21.763,11.823 L22.823,10.763 Z M19.237,7.177 L18.177,8.237 L18.177,8.237 L19.237,7.177 Z M19.22,7.159 L18.159,8.22 L18.159,8.22 L19.22,7.159 Z M18.952,6.904 L17.981,8.047 L17.981,8.047 L18.952,6.904 Z M17.395,6.259 L17.273,7.754 L17.273,7.754 L17.395,6.259 Z M17.025,6.25 L17.025,7.75 L17.025,7.75 L17.025,6.25 Z M17,6.25 L17,7.75 L17,7.75 L17,6.25 Z M13.768,6.25 L13.768,7.75 L13.768,7.75 L13.768,6.25 Z M11.768,6.293 L11.891,7.788 L11.891,7.788 L11.768,6.293 Z M10.297,6.659 L9.617,5.322 L9.617,5.322 L10.297,6.659 Z M8.659,8.298 L7.322,7.617 L7.322,7.617 L8.659,8.298 Z M8.293,9.769 L9.788,9.891 L9.788,9.891 L8.293,9.769 Z M8.25,11.768 L9.75,11.768 L9.75,11.768 L8.25,11.768 Z M8.25,20.232 L9.75,20.232 L9.75,20.232 L8.25,20.232 Z M8.293,22.232 L6.798,22.354 L8.293,22.232 Z M8.659,23.703 L7.322,24.383 L7.322,24.383 L8.659,23.703 Z M10.297,25.341 L10.979,24.005 L10.979,24.005 L10.297,25.341 Z M11.768,25.707 L11.646,27.202 L11.646,27.202 L11.768,25.707 Z M13.768,25.75 L13.768,24.25 L13.768,24.25 L13.768,25.75 Z M18.232,25.75 L18.232,24.25 L18.232,24.25 L18.232,25.75 Z M20.232,25.707 L20.354,27.202 L20.354,27.202 L20.232,25.707 Z M21.703,25.341 L21.021,24.005 L21.021,24.005 L21.703,25.341 Z M23.341,23.703 L24.678,24.383 L24.678,24.383 L23.341,23.703 Z M23.707,22.232 L22.212,22.109 L22.212,22.109 L23.707,22.232 Z M23.75,20.232 L22.25,20.232 L22.25,20.232 L23.75,20.232 Z M10.979,7.995 L11.659,9.332 L11.659,9.332 L10.979,7.995 Z M11.891,7.788 L11.768,6.293 L11.768,6.293 L11.891,7.788 Z M9.995,8.979 L8.659,8.298 L8.659,8.298 L9.995,8.979 Z M9.788,9.891 L11.283,10.013 L11.283,10.013 L9.788,9.891 Z M9.788,22.109 L11.283,21.987 L11.283,21.987 L9.788,22.109 Z M9.995,23.021 L11.332,22.34 L11.332,22.34 L9.995,23.021 Z M10.979,24.005 L10.297,25.341 L10.297,25.341 L10.979,24.005 Z M11.891,24.212 L11.768,25.707 L11.768,25.707 L11.891,24.212 Z M20.109,24.212 L20.232,25.707 L20.232,25.707 L20.109,24.212 Z M21.021,24.005 L21.703,25.341 L21.703,25.341 L21.021,24.005 Z M22.005,23.021 L20.668,22.34 L20.668,22.34 L22.005,23.021 Z M22.212,22.109 L23.707,22.232 L23.707,22.232 L22.212,22.109 Z M22.25,13.75 L23.75,13.75 C23.75,12.922 23.078,12.25 22.25,12.25 L22.25,13.75 Z M20.17,13.75 L20.17,12.25 L20.169,12.25 L20.17,13.75 Z M18.825,13.72 L18.948,12.225 L18.948,12.225 L18.825,13.72 Z M17.752,13.45 L17.07,14.787 L17.07,14.787 L17.752,13.45 Z M16.55,12.248 L17.886,11.568 L17.886,11.568 L16.55,12.248 Z M16.28,11.175 L14.785,11.297 L14.785,11.297 L16.28,11.175 Z M16.25,9.83 L17.75,9.83 L17.75,9.83 L16.25,9.83 Z M16.25,7.75 L17.75,7.75 C17.75,6.922 17.078,6.25 16.25,6.25 L16.25,7.75 Z M16.25,7.892 L16.25,9.8 L19.25,9.8 L19.25,7.892 L16.25,7.892 Z M18.952,6.904 C18.795,6.771 18.625,6.656 18.444,6.562 L17.056,9.222 C17.04,9.213 17.024,9.203 17.01,9.191 L18.952,6.904 Z M19.237,7.177 C19.13,7.069 19.043,6.981 18.952,6.904 L17.01,9.191 C16.991,9.175 16.982,9.165 16.998,9.181 C17.018,9.2 17.051,9.233 17.116,9.298 L19.237,7.177 Z M22.823,10.763 L19.237,7.177 L17.116,9.298 L20.702,12.884 L22.823,10.763 Z M23.096,11.048 C23.018,10.957 22.931,10.87 22.823,10.763 L20.702,12.884 C20.767,12.949 20.8,12.982 20.819,13.002 C20.835,13.018 20.825,13.009 20.809,12.99 L23.096,11.048 Z M23.438,11.556 C23.344,11.376 23.229,11.205 23.096,11.048 L20.809,12.99 C20.797,12.976 20.787,12.96 20.778,12.944 L23.438,11.556 Z M20.2,13.75 L22.108,13.75 L22.108,10.75 L20.2,10.75 L20.2,13.75 Z M18.825,13.72 C19.197,13.751 19.653,13.75 20.2,13.75 L20.2,10.75 C19.602,10.75 19.29,10.748 19.07,10.73 L18.825,13.72 Z M17.752,13.45 C18.089,13.622 18.446,13.689 18.825,13.72 L19.07,10.73 C19.024,10.726 18.993,10.723 18.974,10.72 C18.956,10.717 18.952,10.716 18.96,10.718 C18.968,10.72 18.988,10.725 19.017,10.735 C19.047,10.746 19.08,10.76 19.113,10.777 L17.752,13.45 Z M16.55,12.248 C16.813,12.766 17.234,13.187 17.752,13.45 L19.113,10.777 C19.16,10.801 19.199,10.839 19.223,10.886 L16.55,12.248 Z M16.28,11.175 C16.311,11.554 16.378,11.911 16.55,12.248 L19.223,10.886 C19.24,10.92 19.254,10.953 19.265,10.983 C19.275,11.012 19.28,11.032 19.282,11.04 C19.284,11.048 19.283,11.044 19.28,11.026 C19.277,11.007 19.273,10.976 19.27,10.93 L16.28,11.175 Z M16.25,9.8 C16.25,10.347 16.249,10.803 16.28,11.175 L19.27,10.93 C19.252,10.71 19.25,10.398 19.25,9.8 L16.25,9.8 Z M22.25,13 L22.25,20.2 L25.25,20.2 L25.25,13 L22.25,13 Z M22.25,12.975 L22.25,13 L25.25,13 L25.25,12.975 L22.25,12.975 Z M22.25,12.975 L22.25,12.975 L25.25,12.975 L25.25,12.975 L22.25,12.975 Z M22.25,12.975 L22.25,12.975 L25.25,12.975 L25.25,12.975 L22.25,12.975 Z M22.246,12.727 C22.249,12.767 22.25,12.816 22.25,12.975 L25.25,12.975 C25.25,12.845 25.251,12.668 25.236,12.483 L22.246,12.727 Z M21.953,12.019 C22.122,12.219 22.225,12.466 22.246,12.727 L25.236,12.483 C25.164,11.597 24.815,10.755 24.239,10.077 L21.953,12.019 Z M21.78,11.841 C21.893,11.954 21.927,11.989 21.953,12.019 L24.239,10.077 C24.119,9.936 23.993,9.811 23.901,9.719 L21.78,11.841 Z M21.763,11.823 L21.78,11.841 L23.901,9.719 L23.884,9.702 L21.763,11.823 Z M18.177,8.237 L21.763,11.823 L23.884,9.702 L20.298,6.116 L18.177,8.237 Z M18.159,8.22 L18.177,8.237 L20.298,6.116 L20.28,6.099 L18.159,8.22 Z M17.981,8.047 C18.011,8.073 18.047,8.107 18.159,8.22 L20.281,6.099 C20.189,6.007 20.064,5.881 19.923,5.761 L17.981,8.047 Z M17.273,7.754 C17.534,7.775 17.781,7.878 17.981,8.047 L19.923,5.761 C19.245,5.185 18.403,4.836 17.517,4.764 L17.273,7.754 Z M17.025,7.75 C17.184,7.75 17.233,7.751 17.273,7.754 L17.517,4.764 C17.332,4.749 17.155,4.75 17.025,4.75 L17.025,7.75 Z M17,7.75 L17.025,7.75 L17.025,4.75 L17,4.75 L17,7.75 Z M13.8,7.75 L17,7.75 L17,4.75 L13.8,4.75 L13.8,7.75 Z M13.768,7.75 L13.8,7.75 L13.8,4.75 L13.768,4.75 L13.768,7.75 Z M11.891,7.788 C12.347,7.751 12.932,7.75 13.768,7.75 L13.768,4.75 C12.978,4.75 12.252,4.749 11.646,4.798 L11.891,7.788 Z M10.979,7.995 C11.176,7.895 11.437,7.825 11.891,7.788 L11.646,4.798 C11.007,4.851 10.307,4.97 9.617,5.322 L10.979,7.995 Z M9.995,8.979 C10.211,8.555 10.555,8.211 10.979,7.995 L9.617,5.322 C8.629,5.826 7.826,6.629 7.322,7.617 L9.995,8.979 Z M9.788,9.891 C9.825,9.437 9.895,9.176 9.995,8.979 L7.322,7.617 C6.97,8.307 6.851,9.007 6.798,9.646 L9.788,9.891 Z M9.75,11.768 C9.75,10.932 9.751,10.347 9.788,9.891 L6.798,9.646 C6.749,10.252 6.75,10.978 6.75,11.768 L9.75,11.768 Z M9.75,11.8 L9.75,11.768 L6.75,11.768 L6.75,11.8 L9.75,11.8 Z M9.75,20.2 L9.75,11.8 L6.75,11.8 L6.75,20.2 L9.75,20.2 Z M9.75,20.232 L9.75,20.2 L6.75,20.2 L6.75,20.232 L9.75,20.232 Z M9.788,22.109 C9.751,21.653 9.75,21.068 9.75,20.232 L6.75,20.232 C6.75,21.022 6.749,21.748 6.798,22.354 L9.788,22.109 Z M9.995,23.021 C9.895,22.824 9.825,22.563 9.788,22.109 L6.798,22.354 C6.851,22.993 6.97,23.693 7.322,24.383 L9.995,23.021 Z M10.979,24.005 C10.555,23.789 10.211,23.445 9.995,23.021 L7.322,24.383 C7.826,25.371 8.629,26.174 9.617,26.678 L10.979,24.005 Z M11.891,24.212 C11.437,24.174 11.176,24.105 10.979,24.005 L9.617,26.678 C10.307,27.03 11.007,27.149 11.646,27.202 L11.891,24.212 Z M13.768,24.25 C12.932,24.25 12.347,24.249 11.891,24.212 L11.646,27.202 C12.252,27.251 12.978,27.25 13.768,27.25 L13.768,24.25 Z M13.8,24.25 L13.768,24.25 L13.768,27.25 L13.8,27.25 L13.8,24.25 Z M18.2,24.25 L13.8,24.25 L13.8,27.25 L18.2,27.25 L18.2,24.25 Z M18.232,24.25 L18.2,24.25 L18.2,27.25 L18.232,27.25 L18.232,24.25 Z M20.109,24.212 C19.653,24.249 19.068,24.25 18.232,24.25 L18.232,27.25 C19.022,27.25 19.748,27.251 20.354,27.202 L20.109,24.212 Z M21.021,24.005 C20.824,24.105 20.563,24.174 20.109,24.212 L20.354,27.202 C20.993,27.149 21.693,27.03 22.384,26.678 L21.021,24.005 Z M22.005,23.021 C21.789,23.445 21.445,23.789 21.021,24.005 L22.384,26.678 C23.371,26.174 24.174,25.371 24.678,24.383 L22.005,23.021 Z M22.212,22.109 C22.175,22.563 22.105,22.824 22.005,23.021 L24.678,24.383 C25.03,23.693 25.149,22.993 25.202,22.354 L22.212,22.109 Z M22.25,20.232 C22.25,21.068 22.249,21.653 22.212,22.109 L25.202,22.354 C25.251,21.748 25.25,21.022 25.25,20.232 L22.25,20.232 Z M22.25,20.2 L22.25,20.232 L25.25,20.232 L25.25,20.2 L22.25,20.2 Z M11.659,9.332 C11.61,9.357 11.651,9.313 12.013,9.283 L11.768,6.293 C11.222,6.338 10.742,6.432 10.297,6.659 L11.659,9.332 Z M11.332,9.659 C11.404,9.518 11.518,9.404 11.659,9.332 L10.297,6.659 C9.592,7.018 9.018,7.592 8.659,8.298 L11.332,9.659 Z M11.283,10.013 C11.313,9.651 11.357,9.61 11.332,9.659 L8.659,8.298 C8.432,8.742 8.338,9.222 8.293,9.769 L11.283,10.013 Z M11.25,11.8 C11.25,10.922 11.252,10.4 11.283,10.013 L8.293,9.769 C8.249,10.306 8.25,10.973 8.25,11.8 L11.25,11.8 Z M11.25,20.2 L11.25,11.8 L8.25,11.8 L8.25,20.2 L11.25,20.2 Z M11.283,21.987 C11.252,21.6 11.25,21.078 11.25,20.2 L8.25,20.2 C8.25,21.027 8.249,21.694 8.293,22.232 L11.283,21.987 Z M11.332,22.34 C11.357,22.39 11.313,22.349 11.283,21.987 L8.293,22.232 C8.338,22.778 8.432,23.258 8.659,23.703 L11.332,22.34 Z M11.659,22.668 C11.518,22.596 11.404,22.482 11.332,22.34 L8.659,23.703 C9.018,24.408 9.592,24.982 10.297,25.341 L11.659,22.668 Z M12.013,22.717 C11.651,22.687 11.61,22.643 11.659,22.668 L10.297,25.341 C10.742,25.568 11.222,25.662 11.768,25.707 L12.013,22.717 Z M13.8,22.75 C12.922,22.75 12.4,22.748 12.013,22.717 L11.768,25.707 C12.306,25.751 12.973,25.75 13.8,25.75 L13.8,22.75 Z M18.2,22.75 L13.8,22.75 L13.8,25.75 L18.2,25.75 L18.2,22.75 Z M19.987,22.717 C19.6,22.748 19.078,22.75 18.2,22.75 L18.2,25.75 C19.027,25.75 19.694,25.751 20.232,25.707 L19.987,22.717 Z M20.34,22.668 C20.39,22.643 20.349,22.687 19.987,22.717 L20.232,25.707 C20.778,25.662 21.258,25.568 21.703,25.341 L20.34,22.668 Z M20.668,22.34 C20.596,22.482 20.482,22.596 20.34,22.668 L21.703,25.341 C22.408,24.982 22.982,24.408 23.341,23.703 L20.668,22.34 Z M20.717,21.987 C20.687,22.349 20.643,22.39 20.668,22.34 L23.341,23.703 C23.568,23.258 23.662,22.778 23.707,22.232 L20.717,21.987 Z M20.75,20.2 C20.75,21.078 20.748,21.6 20.717,21.987 L23.707,22.232 C23.751,21.694 23.75,21.027 23.75,20.2 L20.75,20.2 Z M20.75,13.75 L20.75,20.2 L23.75,20.2 L23.75,13.75 L20.75,13.75 Z M20.2,15.25 L22.25,15.25 L22.25,12.25 L20.2,12.25 L20.2,15.25 Z M20.17,15.25 L20.2,15.25 L20.2,12.25 L20.17,12.25 L20.17,15.25 Z M18.703,15.215 C19.142,15.251 19.657,15.25 20.17,15.25 L20.169,12.25 C19.613,12.25 19.237,12.249 18.948,12.225 L18.703,15.215 Z M17.07,14.787 C17.654,15.084 18.23,15.177 18.703,15.215 L18.948,12.225 C18.661,12.202 18.523,12.16 18.433,12.114 L17.07,14.787 Z M15.213,12.93 C15.621,13.729 16.271,14.379 17.07,14.787 L18.433,12.114 C18.197,11.994 18.006,11.803 17.886,11.568 L15.213,12.93 Z M14.785,11.297 C14.823,11.77 14.916,12.346 15.213,12.93 L17.886,11.568 C17.84,11.477 17.798,11.339 17.775,11.053 L14.785,11.297 Z M14.75,9.83 C14.75,10.343 14.749,10.858 14.785,11.297 L17.775,11.053 C17.751,10.763 17.75,10.386 17.75,9.83 L14.75,9.83 Z M14.75,9.8 L14.75,9.83 L17.75,9.83 L17.75,9.8 L14.75,9.8 Z M14.75,7.75 L14.75,9.8 L17.75,9.8 L17.75,7.75 L14.75,7.75 Z M13.8,9.25 L16.25,9.25 L16.25,6.25 L13.8,6.25 L13.8,9.25 Z M12.013,9.283 C12.4,9.252 12.922,9.25 13.8,9.25 L13.8,6.25 C12.973,6.25 12.306,6.249 11.768,6.293 L12.013,9.283 Z M13.75,16 C13.75,16.414 13.414,16.75 13,16.75 L13,13.75 C11.758,13.75 10.75,14.757 10.75,16 L13.75,16 Z M13,15.25 C13.414,15.25 13.75,15.586 13.75,16 L10.75,16 C10.75,17.243 11.758,18.25 13,18.25 L13,15.25 Z M19,15.25 L13,15.25 L13,18.25 L19,18.25 L19,15.25 Z M18.25,16 C18.25,15.586 18.586,15.25 19,15.25 L19,18.25 C20.243,18.25 21.25,17.243 21.25,16 L18.25,16 Z M19,16.75 C18.586,16.75 18.25,16.414 18.25,16 L21.25,16 C21.25,14.757 20.243,13.75 19,13.75 L19,16.75 Z M13,16.75 L19,16.75 L19,13.75 L13,13.75 L13,16.75 Z M13.75,20 C13.75,20.414 13.414,20.75 13,20.75 L13,17.75 C11.758,17.75 10.75,18.757 10.75,20 L13.75,20 Z M13,19.25 C13.414,19.25 13.75,19.586 13.75,20 L10.75,20 C10.75,21.243 11.758,22.25 13,22.25 L13,19.25 Z M17,19.25 L13,19.25 L13,22.25 L17,22.25 L17,19.25 Z M16.25,20 C16.25,19.586 16.586,19.25 17,19.25 L17,22.25 C18.243,22.25 19.25,21.243 19.25,20 L16.25,20 Z M17,20.75 C16.586,20.75 16.25,20.414 16.25,20 L19.25,20 C19.25,18.757 18.243,17.75 17,17.75 L17,20.75 Z M13,20.75 L17,20.75 L17,17.75 L13,17.75 L13,20.75 Z"/>
  <path fill="#151E28" d="M23.75,13 L23.75,20.232 C23.75,21.045 23.75,21.701 23.707,22.232 C23.662,22.778 23.568,23.258 23.341,23.702 C22.982,24.408 22.408,24.982 21.702,25.341 C21.258,25.568 20.778,25.662 20.232,25.707 C19.701,25.75 19.045,25.75 18.232,25.75 L13.768,25.75 C12.955,25.75 12.299,25.75 11.769,25.707 C11.222,25.662 10.742,25.568 10.297,25.341 C9.592,24.982 9.018,24.408 8.659,23.702 C8.432,23.258 8.338,22.778 8.293,22.232 C8.25,21.701 8.25,21.045 8.25,20.232 L8.25,11.768 C8.25,10.955 8.25,10.299 8.293,9.769 C8.338,9.222 8.432,8.742 8.659,8.298 C9.018,7.592 9.592,7.018 10.297,6.659 C10.742,6.432 11.222,6.338 11.769,6.293 C12.299,6.25 12.955,6.25 13.767,6.25 L17.025,6.25 C17.169,6.25 17.283,6.25 17.395,6.259 C17.969,6.306 18.513,6.531 18.952,6.904 C19.038,6.977 19.118,7.057 19.22,7.159 L19.237,7.177 L22.823,10.762 L22.841,10.78 C22.943,10.882 23.023,10.962 23.096,11.048 C23.469,11.487 23.694,12.031 23.741,12.605 C23.75,12.716 23.75,12.828 23.75,12.97 L23.75,13 Z M11.891,7.788 C11.437,7.825 11.176,7.895 10.979,7.995 C10.555,8.211 10.211,8.555 9.995,8.979 C9.895,9.176 9.825,9.437 9.788,9.891 C9.751,10.353 9.75,10.948 9.75,11.8 L9.75,20.2 C9.75,21.052 9.751,21.647 9.788,22.109 C9.825,22.563 9.895,22.824 9.995,23.021 C10.211,23.445 10.555,23.789 10.979,24.005 C11.176,24.105 11.437,24.174 11.891,24.212 C12.353,24.249 12.948,24.25 13.8,24.25 L18.2,24.25 C19.052,24.25 19.647,24.249 20.109,24.212 C20.563,24.174 20.824,24.105 21.021,24.005 C21.445,23.789 21.789,23.445 22.005,23.021 C22.105,22.824 22.174,22.563 22.212,22.109 C22.249,21.647 22.25,21.052 22.25,20.2 L22.25,13.75 L20.17,13.75 C19.635,13.75 19.19,13.75 18.825,13.72 C18.445,13.689 18.089,13.622 17.751,13.45 C17.234,13.187 16.813,12.766 16.55,12.248 C16.378,11.911 16.311,11.554 16.28,11.175 C16.25,10.81 16.25,10.365 16.25,9.83 L16.25,7.75 L13.8,7.75 C12.948,7.75 12.353,7.751 11.891,7.788 Z M13,15.25 L19,15.25 C19.414,15.25 19.75,15.586 19.75,16 C19.75,16.414 19.414,16.75 19,16.75 L13,16.75 C12.586,16.75 12.25,16.414 12.25,16 C12.25,15.586 12.586,15.25 13,15.25 Z M17.75,9.8 C17.75,10.372 17.751,10.757 17.775,11.052 C17.798,11.34 17.84,11.477 17.886,11.568 C18.006,11.803 18.197,11.994 18.433,12.114 C18.523,12.16 18.66,12.202 18.948,12.225 C19.243,12.249 19.628,12.25 20.2,12.25 L22.108,12.25 C22.065,12.168 22.013,12.09 21.953,12.019 C21.924,11.986 21.89,11.951 21.763,11.823 L18.177,8.237 C18.049,8.11 18.014,8.076 17.981,8.047 C17.909,7.987 17.832,7.935 17.75,7.892 Z M13,19.25 L17,19.25 C17.414,19.25 17.75,19.586 17.75,20 C17.75,20.414 17.414,20.75 17,20.75 L13,20.75 C12.586,20.75 12.25,20.414 12.25,20 C12.25,19.586 12.586,19.25 13,19.25 Z"/>
</svg>

