<svg xmlns="http://www.w3.org/2000/svg" viewBox="0 0 32 32">
  <defs/>
  <path fill="white" d="M21.2,24 L10.8,24 C9.12,24 8.28,24 7.638,23.673 C7.074,23.385 6.615,22.927 6.327,22.362 C6,21.72 6,20.88 6,19.2 L6,11.8 C6,10.12 6,9.28 6.327,8.638 C6.615,8.074 7.074,7.615 7.638,7.327 C8.28,7 9.12,7 10.8,7 L12.012,7 C12.745,7 13.112,7 13.458,7.083 C13.764,7.156 14.056,7.278 14.325,7.442 C14.628,7.628 14.887,7.887 15.406,8.406 L15.594,8.594 C16.113,9.113 16.372,9.372 16.675,9.558 C16.944,9.722 17.236,9.844 17.542,9.917 C17.888,10 18.255,10 18.988,10 L21.2,10 C22.88,10 23.72,10 24.362,10.327 C24.927,10.615 25.385,11.073 25.673,11.638 C26,12.28 26,13.12 26,14.8 L26,19.2 C26,20.88 26,21.72 25.673,22.362 C25.385,22.927 24.927,23.385 24.362,23.673 C23.72,24 22.88,24 21.2,24 Z"/>
  <path fill="white" d="M13.283,7.812 L12.932,9.271 L12.932,9.271 L13.283,7.812 Z M8.891,7.788 L9.013,9.283 L8.891,7.788 Z M7.979,7.995 L7.298,6.659 L7.298,6.659 L7.979,7.995 Z M6.995,8.979 L5.659,8.298 L5.659,8.298 L6.995,8.979 Z M6.788,9.891 L8.283,10.013 L6.788,9.891 Z M6.788,21.109 L8.283,20.987 L6.788,21.109 Z M6.995,22.021 L8.332,21.34 L8.332,21.34 L6.995,22.021 Z M7.979,23.005 L7.298,24.341 L7.298,24.341 L7.979,23.005 Z M8.891,23.212 L8.769,24.707 L8.769,24.707 L8.891,23.212 Z M23.109,23.212 L23.232,24.707 L23.232,24.707 L23.109,23.212 Z M24.021,23.005 L24.703,24.341 L24.703,24.341 L24.021,23.005 Z M25.005,22.021 L26.341,22.703 L26.341,22.703 L25.005,22.021 Z M25.212,21.109 L26.707,21.232 L26.707,21.232 L25.212,21.109 Z M25.212,12.891 L26.707,12.769 L26.707,12.769 L25.212,12.891 Z M25.005,11.979 L26.341,11.298 L26.341,11.298 L25.005,11.979 Z M24.021,10.995 L24.703,9.659 L24.703,9.659 L24.021,10.995 Z M23.109,10.788 L22.987,12.283 L22.987,12.283 L23.109,10.788 Z M18.903,10.75 L18.902,9.25 L18.902,9.25 L18.903,10.75 Z M17.367,10.646 L17.717,9.188 L17.717,9.188 L17.367,10.646 Z M16.283,10.197 L15.499,11.476 L15.499,11.476 L16.283,10.197 Z M15.124,9.185 L16.185,8.125 L16.185,8.125 L15.124,9.185 Z M15.064,9.124 L16.125,8.064 L16.124,8.064 L15.064,9.124 Z M14.876,8.936 L13.815,9.997 L13.815,9.997 L14.876,8.936 Z M13.933,8.082 L13.149,9.361 L13.149,9.361 L13.933,8.082 Z M13.633,6.354 L13.983,4.895 L13.983,4.895 L13.633,6.354 Z M12.097,6.25 L12.097,4.75 L12.097,4.75 L12.097,6.25 Z M14.717,6.803 L15.501,5.524 L15.501,5.524 L14.717,6.803 Z M15.876,7.815 L16.937,6.755 L16.937,6.755 L15.876,7.815 Z M15.936,7.876 L16.997,6.815 L16.997,6.815 L15.936,7.876 Z M16.124,8.064 L17.185,7.003 L17.185,7.003 L16.124,8.064 Z M17.067,8.918 L16.283,10.197 L16.283,10.197 L17.067,8.918 Z M17.717,9.188 L17.367,10.646 L17.367,10.646 L17.717,9.188 Z M21.232,9.25 L21.232,10.75 L21.232,10.75 L21.232,9.25 Z M23.232,9.293 L23.354,7.798 L23.354,7.798 L23.232,9.293 Z M24.703,9.659 L25.384,8.322 L25.383,8.322 L24.703,9.659 Z M26.341,11.298 L25.005,11.979 L25.005,11.979 L26.341,11.298 Z M26.707,12.769 L28.202,12.646 L28.202,12.646 L26.707,12.769 Z M26.75,14.768 L25.25,14.768 L25.25,14.768 L26.75,14.768 Z M26.75,19.232 L25.25,19.232 L25.25,19.232 L26.75,19.232 Z M26.707,21.232 L28.202,21.354 L28.202,21.354 L26.707,21.232 Z M26.341,22.703 L25.005,22.021 L25.005,22.021 L26.341,22.703 Z M24.703,24.341 L25.384,25.678 L25.384,25.678 L24.703,24.341 Z M23.232,24.707 L23.354,26.202 L23.354,26.202 L23.232,24.707 Z M21.232,24.75 L21.232,23.25 L21.232,23.25 L21.232,24.75 Z M10.768,24.75 L10.768,23.25 L10.768,23.25 L10.768,24.75 Z M8.769,24.707 L8.646,26.202 L8.646,26.202 L8.769,24.707 Z M7.298,24.341 L7.979,23.005 L7.979,23.005 L7.298,24.341 Z M5.659,22.703 L4.322,23.384 L4.322,23.384 L5.659,22.703 Z M5.293,21.232 L3.798,21.354 L5.293,21.232 Z M5.25,19.232 L6.75,19.232 L6.75,19.232 L5.25,19.232 Z M5.25,19.2 L6.75,19.2 L6.75,19.2 L5.25,19.2 Z M5.25,11.8 L6.75,11.8 L6.75,11.8 L5.25,11.8 Z M5.25,11.768 L6.75,11.768 L6.75,11.768 L5.25,11.768 Z M5.293,9.769 L6.788,9.891 L6.788,9.891 L5.293,9.769 Z M5.659,8.298 L4.322,7.617 L5.659,8.298 Z M7.298,6.659 L6.617,5.322 L7.298,6.659 Z M8.769,6.293 L8.891,7.788 L8.891,7.788 L8.769,6.293 Z M10.768,6.25 L10.768,7.75 L10.768,7.75 L10.768,6.25 Z M10.8,6.25 L10.8,7.75 L10.8,7.75 L10.8,6.25 Z M12.012,9.25 C12.405,9.25 12.628,9.252 12.781,9.258 C12.852,9.261 12.89,9.265 12.911,9.267 C12.928,9.269 12.932,9.271 12.932,9.271 L13.633,6.354 C13.18,6.245 12.703,6.25 12.012,6.25 L12.012,9.25 Z M10.8,9.25 L12.012,9.25 L12.012,6.25 L10.8,6.25 L10.8,9.25 Z M9.013,9.283 C9.4,9.252 9.922,9.25 10.8,9.25 L10.8,6.25 C9.973,6.25 9.307,6.249 8.769,6.293 L9.013,9.283 Z M8.66,9.332 C8.61,9.357 8.651,9.313 9.013,9.283 L8.769,6.293 C8.222,6.338 7.742,6.432 7.298,6.659 L8.66,9.332 Z M8.332,9.66 C8.404,9.518 8.518,9.404 8.66,9.332 L7.298,6.659 C6.592,7.018 6.018,7.592 5.659,8.298 L8.332,9.66 Z M8.283,10.013 C8.313,9.651 8.357,9.61 8.332,9.66 L5.659,8.298 C5.432,8.742 5.338,9.222 5.293,9.769 L8.283,10.013 Z M8.25,11.8 C8.25,10.922 8.252,10.4 8.283,10.013 L5.293,9.769 C5.249,10.307 5.25,10.973 5.25,11.8 L8.25,11.8 Z M8.25,19.2 L8.25,11.8 L5.25,11.8 L5.25,19.2 L8.25,19.2 Z M8.283,20.987 C8.252,20.6 8.25,20.078 8.25,19.2 L5.25,19.2 C5.25,20.027 5.249,20.694 5.293,21.232 L8.283,20.987 Z M8.332,21.34 C8.357,21.39 8.313,21.349 8.283,20.987 L5.293,21.232 C5.338,21.778 5.432,22.258 5.659,22.703 L8.332,21.34 Z M8.66,21.668 C8.518,21.596 8.404,21.482 8.332,21.34 L5.659,22.703 C6.018,23.408 6.592,23.982 7.298,24.341 L8.66,21.668 Z M9.013,21.717 C8.651,21.687 8.61,21.643 8.66,21.668 L7.298,24.341 C7.742,24.568 8.222,24.662 8.769,24.707 L9.013,21.717 Z M10.8,21.75 C9.922,21.75 9.4,21.748 9.013,21.717 L8.769,24.707 C9.307,24.751 9.973,24.75 10.8,24.75 L10.8,21.75 Z M21.2,21.75 L10.8,21.75 L10.8,24.75 L21.2,24.75 L21.2,21.75 Z M22.987,21.717 C22.6,21.748 22.078,21.75 21.2,21.75 L21.2,24.75 C22.027,24.75 22.694,24.751 23.232,24.707 L22.987,21.717 Z M23.34,21.668 C23.39,21.643 23.349,21.687 22.987,21.717 L23.232,24.707 C23.778,24.662 24.258,24.568 24.703,24.341 L23.34,21.668 Z M23.668,21.34 C23.596,21.482 23.482,21.596 23.34,21.668 L24.703,24.341 C25.408,23.982 25.982,23.408 26.341,22.703 L23.668,21.34 Z M23.717,20.987 C23.687,21.349 23.643,21.39 23.668,21.34 L26.341,22.703 C26.568,22.258 26.662,21.778 26.707,21.232 L23.717,20.987 Z M23.75,19.2 C23.75,20.078 23.748,20.6 23.717,20.987 L26.707,21.232 C26.751,20.694 26.75,20.027 26.75,19.2 L23.75,19.2 Z M23.75,14.8 L23.75,19.2 L26.75,19.2 L26.75,14.8 L23.75,14.8 Z M23.717,13.013 C23.748,13.4 23.75,13.922 23.75,14.8 L26.75,14.8 C26.75,13.973 26.751,13.307 26.707,12.769 L23.717,13.013 Z M23.668,12.659 C23.643,12.61 23.687,12.651 23.717,13.013 L26.707,12.769 C26.662,12.222 26.568,11.742 26.341,11.298 L23.668,12.659 Z M23.34,12.332 C23.482,12.404 23.596,12.518 23.668,12.659 L26.341,11.298 C25.982,10.592 25.408,10.018 24.703,9.659 L23.34,12.332 Z M22.987,12.283 C23.349,12.313 23.39,12.357 23.34,12.332 L24.703,9.659 C24.258,9.432 23.778,9.338 23.232,9.293 L22.987,12.283 Z M21.2,12.25 C22.078,12.25 22.6,12.252 22.987,12.283 L23.232,9.293 C22.694,9.249 22.027,9.25 21.2,9.25 L21.2,12.25 Z M18.988,12.25 L21.2,12.25 L21.2,9.25 L18.988,9.25 L18.988,12.25 Z M18.903,12.25 C18.931,12.25 18.96,12.25 18.988,12.25 L18.988,9.25 C18.959,9.25 18.93,9.25 18.902,9.25 L18.903,12.25 Z M17.017,12.105 C17.658,12.259 18.302,12.25 18.903,12.25 L18.902,9.25 C18.2,9.25 17.943,9.242 17.717,9.188 L17.017,12.105 Z M15.499,11.476 C15.969,11.764 16.481,11.976 17.017,12.105 L17.717,9.188 C17.488,9.133 17.268,9.042 17.067,8.918 L15.499,11.476 Z M14.063,10.245 C14.488,10.67 14.938,11.132 15.499,11.476 L17.067,8.918 C16.869,8.797 16.681,8.621 16.185,8.125 L14.063,10.245 Z M14.003,10.185 C14.023,10.205 14.043,10.225 14.063,10.245 L16.185,8.125 C16.165,8.105 16.145,8.084 16.125,8.064 L14.003,10.185 Z M13.815,9.997 L14.003,10.185 L16.124,8.064 L15.936,7.876 L13.815,9.997 Z M13.149,9.361 C13.149,9.361 13.153,9.363 13.167,9.373 C13.183,9.386 13.213,9.411 13.265,9.459 C13.378,9.562 13.537,9.719 13.815,9.997 L15.936,7.876 C15.447,7.387 15.114,7.046 14.717,6.803 L13.149,9.361 Z M12.932,9.271 C13.009,9.289 13.082,9.319 13.149,9.361 L14.717,6.803 C14.381,6.597 14.015,6.446 13.633,6.354 L12.932,9.271 Z M13.983,4.895 C13.342,4.741 12.698,4.75 12.097,4.75 L12.098,7.75 C12.8,7.75 13.057,7.758 13.283,7.812 L13.983,4.895 Z M15.501,5.524 C15.031,5.236 14.519,5.024 13.983,4.895 L13.283,7.812 C13.512,7.867 13.732,7.958 13.933,8.082 L15.501,5.524 Z M16.937,6.755 C16.512,6.33 16.062,5.868 15.501,5.524 L13.933,8.082 C14.13,8.203 14.319,8.379 14.815,8.876 L16.937,6.755 Z M16.997,6.815 C16.977,6.795 16.957,6.775 16.937,6.755 L14.815,8.875 C14.835,8.895 14.855,8.916 14.876,8.936 L16.997,6.815 Z M17.185,7.003 L16.997,6.815 L14.876,8.936 L15.064,9.124 L17.185,7.003 Z M17.851,7.64 C17.851,7.639 17.846,7.637 17.833,7.627 C17.817,7.614 17.787,7.589 17.735,7.541 C17.622,7.438 17.463,7.281 17.185,7.003 L15.064,9.124 C15.553,9.613 15.886,9.954 16.283,10.197 L17.851,7.64 Z M18.068,7.729 C17.991,7.711 17.918,7.681 17.851,7.64 L16.283,10.197 C16.619,10.403 16.985,10.555 17.367,10.646 L18.068,7.729 Z M18.988,7.75 C18.595,7.75 18.372,7.749 18.219,7.742 C18.148,7.739 18.11,7.735 18.089,7.733 C18.072,7.731 18.068,7.729 18.068,7.729 L17.367,10.646 C17.82,10.755 18.297,10.75 18.988,10.75 L18.988,7.75 Z M21.2,7.75 L18.988,7.75 L18.988,10.75 L21.2,10.75 L21.2,7.75 Z M21.232,7.75 L21.2,7.75 L21.2,10.75 L21.232,10.75 L21.232,7.75 Z M23.354,7.798 C22.748,7.749 22.022,7.75 21.232,7.75 L21.232,10.75 C22.068,10.75 22.653,10.751 23.109,10.788 L23.354,7.798 Z M25.383,8.322 C24.693,7.97 23.993,7.851 23.354,7.798 L23.109,10.788 C23.563,10.825 23.824,10.895 24.021,10.995 L25.383,8.322 Z M27.678,10.617 C27.174,9.629 26.371,8.826 25.384,8.322 L24.021,10.995 C24.445,11.211 24.789,11.555 25.005,11.979 L27.678,10.617 Z M28.202,12.646 C28.149,12.007 28.03,11.307 27.678,10.617 L25.005,11.979 C25.105,12.176 25.175,12.437 25.212,12.891 L28.202,12.646 Z M28.25,14.768 C28.25,13.978 28.251,13.252 28.202,12.646 L25.212,12.891 C25.249,13.347 25.25,13.932 25.25,14.768 L28.25,14.768 Z M28.25,14.8 L28.25,14.768 L25.25,14.768 L25.25,14.8 L28.25,14.8 Z M28.25,19.2 L28.25,14.8 L25.25,14.8 L25.25,19.2 L28.25,19.2 Z M28.25,19.232 L28.25,19.2 L25.25,19.2 L25.25,19.232 L28.25,19.232 Z M28.202,21.354 C28.251,20.748 28.25,20.022 28.25,19.232 L25.25,19.232 C25.25,20.068 25.249,20.653 25.212,21.109 L28.202,21.354 Z M27.678,23.384 C28.03,22.693 28.149,21.993 28.202,21.354 L25.212,21.109 C25.175,21.563 25.105,21.824 25.005,22.021 L27.678,23.384 Z M25.384,25.678 C26.371,25.174 27.174,24.371 27.678,23.384 L25.005,22.021 C24.789,22.445 24.445,22.789 24.021,23.005 L25.384,25.678 Z M23.354,26.202 C23.993,26.149 24.693,26.03 25.384,25.678 L24.021,23.005 C23.824,23.105 23.563,23.175 23.109,23.212 L23.354,26.202 Z M21.232,26.25 C22.022,26.25 22.748,26.251 23.354,26.202 L23.109,23.212 C22.653,23.249 22.068,23.25 21.232,23.25 L21.232,26.25 Z M21.2,26.25 L21.232,26.25 L21.232,23.25 L21.2,23.25 L21.2,26.25 Z M10.8,26.25 L21.2,26.25 L21.2,23.25 L10.8,23.25 L10.8,26.25 Z M10.768,26.25 L10.8,26.25 L10.8,23.25 L10.768,23.25 L10.768,26.25 Z M8.646,26.202 C9.252,26.251 9.978,26.25 10.768,26.25 L10.768,23.25 C9.932,23.25 9.347,23.249 8.891,23.212 L8.646,26.202 Z M6.617,25.678 C7.307,26.03 8.007,26.149 8.646,26.202 L8.891,23.212 C8.437,23.175 8.176,23.105 7.979,23.005 L6.617,25.678 Z M4.322,23.384 C4.826,24.371 5.629,25.174 6.617,25.678 L7.979,23.005 C7.555,22.789 7.211,22.445 6.995,22.021 L4.322,23.384 Z M3.798,21.354 C3.851,21.993 3.97,22.693 4.322,23.384 L6.995,22.021 C6.895,21.824 6.825,21.563 6.788,21.109 L3.798,21.354 Z M3.75,19.232 C3.75,20.022 3.749,20.748 3.798,21.354 L6.788,21.109 C6.751,20.653 6.75,20.068 6.75,19.232 L3.75,19.232 Z M3.75,19.2 L3.75,19.232 L6.75,19.232 L6.75,19.2 L3.75,19.2 Z M3.75,11.8 L3.75,19.2 L6.75,19.2 L6.75,11.8 L3.75,11.8 Z M3.75,11.768 L3.75,11.8 L6.75,11.8 L6.75,11.768 L3.75,11.768 Z M3.798,9.646 C3.749,10.252 3.75,10.978 3.75,11.768 L6.75,11.768 C6.75,10.932 6.751,10.347 6.788,9.891 L3.798,9.646 Z M4.322,7.617 C3.97,8.307 3.851,9.007 3.798,9.646 L6.788,9.891 C6.825,9.437 6.895,9.176 6.995,8.979 L4.322,7.617 Z M6.617,5.322 C5.629,5.826 4.826,6.629 4.322,7.617 L6.995,8.979 C7.211,8.555 7.555,8.211 7.979,7.995 L6.617,5.322 Z M8.646,4.798 C8.007,4.851 7.307,4.97 6.617,5.322 L7.979,7.995 C8.176,7.895 8.437,7.825 8.891,7.788 L8.646,4.798 Z M10.768,4.75 C9.978,4.75 9.252,4.749 8.646,4.798 L8.891,7.788 C9.347,7.751 9.932,7.75 10.768,7.75 L10.768,4.75 Z M10.8,4.75 L10.768,4.75 L10.768,7.75 L10.8,7.75 L10.8,4.75 Z M12.012,4.75 L10.8,4.75 L10.8,7.75 L12.012,7.75 L12.012,4.75 Z M12.097,4.75 C12.069,4.75 12.04,4.75 12.012,4.75 L12.012,7.75 C12.041,7.75 12.07,7.75 12.098,7.75 L12.097,4.75 Z"/>
  <path fill="#151E28" d="M12.097,6.25 L12.097,6.25 C12.749,6.25 13.2,6.25 13.633,6.354 C14.015,6.445 14.381,6.597 14.717,6.803 C15.096,7.035 15.415,7.354 15.876,7.815 C15.896,7.835 15.916,7.855 15.936,7.876 L16.124,8.064 C16.669,8.608 16.858,8.79 17.067,8.918 C17.268,9.042 17.488,9.133 17.717,9.188 C17.956,9.245 18.219,9.25 18.988,9.25 L21.232,9.25 C22.045,9.25 22.701,9.25 23.232,9.293 C23.778,9.338 24.258,9.432 24.702,9.659 C25.408,10.018 25.982,10.592 26.341,11.297 C26.568,11.742 26.662,12.222 26.707,12.769 C26.75,13.299 26.75,13.955 26.75,14.768 L26.75,19.232 C26.75,20.045 26.75,20.701 26.707,21.232 C26.662,21.778 26.568,22.258 26.341,22.702 C25.982,23.408 25.408,23.982 24.702,24.341 C24.258,24.568 23.778,24.662 23.232,24.707 C22.701,24.75 22.045,24.75 21.232,24.75 L10.768,24.75 C9.955,24.75 9.299,24.75 8.769,24.707 C8.222,24.662 7.742,24.568 7.298,24.341 C6.592,23.982 6.018,23.408 5.659,22.702 C5.432,22.258 5.338,21.778 5.293,21.232 C5.25,20.701 5.25,20.045 5.25,19.232 L5.25,11.768 C5.25,10.955 5.25,10.299 5.293,9.769 C5.338,9.222 5.432,8.742 5.659,8.298 C6.018,7.592 6.592,7.018 7.298,6.659 C7.742,6.432 8.222,6.338 8.769,6.293 C9.299,6.25 9.955,6.25 10.768,6.25 L12.012,6.25 Z M13.283,7.812 C13.044,7.755 12.781,7.75 12.012,7.75 L10.8,7.75 C9.948,7.75 9.353,7.751 8.891,7.788 C8.437,7.825 8.176,7.895 7.979,7.995 C7.555,8.211 7.211,8.555 6.995,8.979 C6.895,9.176 6.825,9.437 6.788,9.891 C6.751,10.353 6.75,10.948 6.75,11.8 L6.75,19.2 C6.75,20.052 6.751,20.647 6.788,21.109 C6.825,21.563 6.895,21.824 6.995,22.021 C7.211,22.445 7.555,22.789 7.979,23.005 C8.176,23.105 8.437,23.174 8.891,23.212 C9.353,23.249 9.948,23.25 10.8,23.25 L21.2,23.25 C22.052,23.25 22.647,23.249 23.109,23.212 C23.563,23.174 23.824,23.105 24.021,23.005 C24.445,22.789 24.789,22.445 25.005,22.021 C25.105,21.824 25.174,21.563 25.212,21.109 C25.249,20.647 25.25,20.052 25.25,19.2 L25.25,14.8 C25.25,13.948 25.249,13.353 25.212,12.891 C25.174,12.437 25.105,12.176 25.005,11.979 C24.789,11.555 24.445,11.211 24.021,10.995 C23.824,10.895 23.563,10.825 23.109,10.788 C22.647,10.751 22.052,10.75 21.2,10.75 L18.903,10.75 C18.251,10.75 17.8,10.75 17.367,10.646 C16.985,10.554 16.619,10.403 16.283,10.197 C15.904,9.965 15.585,9.646 15.124,9.185 C15.104,9.165 15.084,9.145 15.064,9.124 L14.876,8.936 C14.332,8.392 14.142,8.21 13.933,8.082 C13.732,7.958 13.512,7.867 13.283,7.812 Z"/>
</svg>

