<svg xmlns="http://www.w3.org/2000/svg" viewBox="0 0 32 32">
  <defs/>
  <path fill="white" d="M23,13 L23,23.878 C23,24.292 22.523,24.465 22.168,24.251 L22.168,24.251 C21.476,23.833 20.601,23.873 19.95,24.351 C19.754,24.495 19.566,24.721 19.189,25.173 L18.5,26 L18.458,25.95 C17.614,24.937 17.192,24.43 16.687,24.246 C16.243,24.084 15.757,24.084 15.313,24.246 C14.808,24.43 14.386,24.937 13.542,25.95 L13.5,26 L12.811,25.173 C12.434,24.721 12.246,24.495 12.05,24.351 C11.399,23.873 10.524,23.833 9.832,24.251 L9.832,24.251 C9.477,24.465 9,24.292 9,23.878 L9,13 C9,9.134 12.134,6 16,6 C19.866,6 23,9.134 23,13 Z"/>
  <path fill="white" d="M8.995,24.992 L9.571,23.608 L9.571,23.608 L8.995,24.992 Z M10.219,24.893 L10.995,26.177 L10.995,26.177 L10.219,24.893 Z M11.606,24.956 L12.495,23.747 L12.494,23.747 L11.606,24.956 Z M12.235,25.653 L13.387,24.693 L13.387,24.693 L12.235,25.653 Z M12.924,26.48 L11.771,27.44 L11.771,27.44 L12.924,26.48 Z M14.076,26.48 L15.229,27.44 L15.229,27.44 L14.076,26.48 Z M14.118,26.43 L12.966,25.47 L12.966,25.47 L14.118,26.43 Z M15.087,25.316 L14.022,24.259 L14.022,24.259 L15.087,25.316 Z M15.571,24.95 L15.056,23.541 L15.056,23.541 L15.571,24.95 Z M16.429,24.95 L16.944,23.541 L16.944,23.541 L16.429,24.95 Z M16.913,25.316 L17.978,24.259 L17.978,24.259 L16.913,25.316 Z M17.882,26.43 L19.035,25.47 L19.035,25.47 L17.882,26.43 Z M17.924,26.48 L16.771,27.44 L16.771,27.44 L17.924,26.48 Z M19.076,26.48 L20.229,27.44 L20.229,27.44 L19.076,26.48 Z M19.765,25.653 L18.613,24.693 L18.613,24.693 L19.765,25.653 Z M20.394,24.956 L19.506,23.747 L19.506,23.747 L20.394,24.956 Z M21.781,24.893 L21.005,26.177 L21.005,26.177 L21.781,24.893 Z M23.005,24.992 L22.429,23.608 L22.429,23.608 L23.005,24.992 Z M22.25,23.449 L21.641,24.82 C22.105,25.026 22.642,24.983 23.067,24.707 C23.493,24.43 23.75,23.957 23.75,23.449 L22.25,23.449 Z M19.506,23.747 L20.394,24.956 L20.394,24.956 L19.506,23.747 Z M18.673,24.621 L19.826,25.581 L19.826,25.58 L18.673,24.621 Z M18.613,24.693 L19.765,25.653 L19.766,25.652 L18.613,24.693 Z M18.498,24.831 L17.359,25.808 C17.647,26.143 18.067,26.334 18.509,26.331 C18.95,26.328 19.367,26.131 19.65,25.791 L18.498,24.831 Z M17.978,24.259 L19.043,23.202 L19.043,23.202 L17.978,24.259 Z M16.944,23.541 L16.429,24.95 L16.429,24.95 L16.944,23.541 Z M15.056,23.541 L15.571,24.95 L15.571,24.95 L15.056,23.541 Z M14.022,24.259 L12.957,23.202 L12.957,23.202 L14.022,24.259 Z M13.502,24.831 L12.35,25.791 C12.633,26.131 13.05,26.328 13.491,26.331 C13.933,26.334 14.353,26.143 14.641,25.808 L13.502,24.831 Z M13.387,24.693 L12.234,25.652 L12.235,25.653 L13.387,24.693 Z M13.327,24.621 L12.174,25.58 L12.174,25.581 L13.327,24.621 Z M12.494,23.747 L11.606,24.956 L11.606,24.956 L12.494,23.747 Z M9.75,23.449 L8.25,23.449 C8.25,23.957 8.507,24.43 8.932,24.707 C9.358,24.983 9.895,25.026 10.359,24.82 L9.75,23.449 Z M9.75,13 C9.75,9.548 12.548,6.75 16,6.75 L16,3.75 C10.891,3.75 6.75,7.891 6.75,13 L9.75,13 Z M9.75,23.878 L9.75,13 L6.75,13 L6.75,23.878 L9.75,23.878 Z M9.571,23.608 C9.611,23.624 9.654,23.654 9.69,23.705 C9.732,23.764 9.75,23.831 9.75,23.878 L6.75,23.878 C6.75,25.098 7.516,26.002 8.418,26.377 L9.571,23.608 Z M9.444,23.609 C9.458,23.6 9.474,23.595 9.493,23.593 C9.511,23.592 9.539,23.594 9.571,23.608 L8.418,26.377 C9.257,26.726 10.217,26.647 10.995,26.177 L9.444,23.609 Z M12.494,23.747 C11.599,23.089 10.395,23.034 9.444,23.609 L10.995,26.177 C10.908,26.229 10.799,26.224 10.717,26.164 L12.494,23.747 Z M13.387,24.693 C13.048,24.286 12.785,23.96 12.495,23.747 L10.717,26.164 C10.645,26.111 10.62,26.073 10.692,26.153 C10.763,26.233 10.876,26.366 11.082,26.613 L13.387,24.693 Z M14.076,25.52 L13.387,24.693 L11.082,26.613 L11.771,27.44 L14.076,25.52 Z M13.5,25.25 C13.723,25.25 13.934,25.349 14.076,25.52 L11.771,27.44 C12.199,27.953 12.832,28.25 13.5,28.25 L13.5,25.25 Z M12.924,25.52 C13.066,25.349 13.277,25.25 13.5,25.25 L13.5,28.25 C14.168,28.25 14.801,27.953 15.229,27.44 L12.924,25.52 Z M12.966,25.47 L12.924,25.52 L15.229,27.44 L15.27,27.39 L12.966,25.47 Z M14.022,24.259 C13.72,24.564 13.379,24.974 12.966,25.47 L15.27,27.39 C15.719,26.852 15.963,26.562 16.152,26.372 L14.022,24.259 Z M15.056,23.541 C14.653,23.689 14.329,23.95 14.022,24.259 L16.152,26.372 C16.192,26.331 16.221,26.305 16.24,26.288 C16.258,26.272 16.264,26.268 16.259,26.272 C16.252,26.276 16.233,26.29 16.202,26.307 C16.169,26.325 16.13,26.343 16.086,26.359 L15.056,23.541 Z M16.944,23.541 C16.334,23.318 15.666,23.318 15.056,23.541 L16.086,26.359 C16.03,26.379 15.97,26.379 15.914,26.359 L16.944,23.541 Z M17.978,24.259 C17.671,23.95 17.347,23.689 16.944,23.541 L15.914,26.359 C15.87,26.343 15.831,26.325 15.798,26.307 C15.767,26.29 15.748,26.276 15.741,26.272 C15.736,26.268 15.742,26.272 15.76,26.288 C15.779,26.305 15.808,26.331 15.848,26.372 L17.978,24.259 Z M19.035,25.47 C18.621,24.974 18.28,24.564 17.978,24.259 L15.848,26.372 C16.037,26.562 16.281,26.852 16.73,27.39 L19.035,25.47 Z M19.076,25.52 L19.035,25.47 L16.73,27.39 L16.771,27.44 L19.076,25.52 Z M18.5,25.25 C18.723,25.25 18.934,25.349 19.076,25.52 L16.771,27.44 C17.199,27.953 17.832,28.25 18.5,28.25 L18.5,25.25 Z M17.924,25.52 C18.066,25.349 18.277,25.25 18.5,25.25 L18.5,28.25 C19.168,28.25 19.801,27.953 20.229,27.44 L17.924,25.52 Z M18.613,24.693 L17.924,25.52 L20.229,27.44 L20.918,26.613 L18.613,24.693 Z M19.506,23.747 C19.215,23.96 18.952,24.286 18.613,24.693 L20.918,26.613 C21.124,26.366 21.237,26.233 21.308,26.153 C21.38,26.073 21.355,26.111 21.282,26.164 L19.506,23.747 Z M22.556,23.609 C21.605,23.034 20.401,23.089 19.506,23.747 L21.282,26.164 C21.201,26.224 21.092,26.229 21.005,26.177 L22.556,23.609 Z M22.429,23.608 C22.462,23.594 22.488,23.592 22.507,23.593 C22.526,23.595 22.542,23.6 22.556,23.609 L21.005,26.177 C21.783,26.647 22.743,26.726 23.582,26.377 L22.429,23.608 Z M22.25,23.878 C22.25,23.831 22.268,23.764 22.31,23.705 C22.346,23.654 22.389,23.624 22.429,23.608 L23.582,26.377 C24.484,26.002 25.25,25.098 25.25,23.878 L22.25,23.878 Z M22.25,13 L22.25,23.878 L25.25,23.878 L25.25,13 L22.25,13 Z M16,6.75 C19.452,6.75 22.25,9.548 22.25,13 L25.25,13 C25.25,7.891 21.109,3.75 16,3.75 L16,6.75 Z M16,5.25 C11.72,5.25 8.25,8.72 8.25,13 L11.25,13 C11.25,10.377 13.377,8.25 16,8.25 L16,5.25 Z M23.75,13 C23.75,8.72 20.28,5.25 16,5.25 L16,8.25 C18.623,8.25 20.75,10.377 20.75,13 L23.75,13 Z M23.75,23.449 L23.75,13 L20.75,13 L20.75,23.449 L23.75,23.449 Z M20.394,24.956 C20.758,24.688 21.235,24.64 21.641,24.82 L22.859,22.078 C21.477,21.465 19.857,21.627 18.617,22.538 L20.394,24.956 Z M19.826,25.58 C20.182,25.152 20.302,25.024 20.394,24.956 L18.617,22.538 C18.166,22.87 17.798,23.327 17.52,23.661 L19.826,25.58 Z M19.766,25.652 L19.826,25.581 L17.52,23.661 L17.46,23.733 L19.766,25.652 Z M19.65,25.791 L19.765,25.653 L17.461,23.732 L17.345,23.871 L19.65,25.791 Z M16.913,25.316 C17.037,25.44 17.181,25.6 17.359,25.808 L19.636,23.854 C19.439,23.625 19.241,23.402 19.043,23.202 L16.913,25.316 Z M16.429,24.95 C16.532,24.988 16.672,25.073 16.913,25.316 L19.043,23.202 C18.669,22.826 18.161,22.389 17.459,22.132 L16.429,24.95 Z M15.571,24.95 C15.848,24.849 16.152,24.849 16.429,24.95 L17.459,22.132 C16.517,21.788 15.483,21.788 14.541,22.132 L15.571,24.95 Z M15.087,25.316 C15.328,25.073 15.468,24.988 15.571,24.95 L14.541,22.132 C13.839,22.389 13.331,22.826 12.957,23.202 L15.087,25.316 Z M14.641,25.808 C14.819,25.6 14.963,25.44 15.087,25.315 L12.957,23.202 C12.759,23.402 12.561,23.625 12.364,23.854 L14.641,25.808 Z M12.235,25.653 L12.35,25.791 L14.655,23.871 L14.539,23.732 L12.235,25.653 Z M12.174,25.581 L12.234,25.652 L14.54,23.733 L14.48,23.661 L12.174,25.581 Z M11.606,24.956 C11.698,25.024 11.818,25.152 12.174,25.58 L14.48,23.661 C14.202,23.327 13.834,22.87 13.383,22.538 L11.606,24.956 Z M10.359,24.82 C10.765,24.64 11.242,24.688 11.606,24.956 L13.383,22.538 C12.143,21.627 10.523,21.465 9.141,22.078 L10.359,24.82 Z M8.25,13 L8.25,23.449 L11.25,23.449 L11.25,13 L8.25,13 Z M13,13.75 C12.586,13.75 12.25,13.414 12.25,13 L15.25,13 C15.25,11.757 14.243,10.75 13,10.75 L13,13.75 Z M13.75,13 C13.75,13.414 13.414,13.75 13,13.75 L13,10.75 C11.757,10.75 10.75,11.757 10.75,13 L13.75,13 Z M13.75,15 L13.75,13 L10.75,13 L10.75,15 L13.75,15 Z M13,14.25 C13.414,14.25 13.75,14.586 13.75,15 L10.75,15 C10.75,16.243 11.757,17.25 13,17.25 L13,14.25 Z M12.25,15 C12.25,14.586 12.586,14.25 13,14.25 L13,17.25 C14.243,17.25 15.25,16.243 15.25,15 L12.25,15 Z M12.25,13 L12.25,15 L15.25,15 L15.25,13 L12.25,13 Z M19,13.75 C18.586,13.75 18.25,13.414 18.25,13 L21.25,13 C21.25,11.757 20.243,10.75 19,10.75 L19,13.75 Z M19.75,13 C19.75,13.414 19.414,13.75 19,13.75 L19,10.75 C17.757,10.75 16.75,11.757 16.75,13 L19.75,13 Z M19.75,15 L19.75,13 L16.75,13 L16.75,15 L19.75,15 Z M19,14.25 C19.414,14.25 19.75,14.586 19.75,15 L16.75,15 C16.75,16.243 17.757,17.25 19,17.25 L19,14.25 Z M18.25,15 C18.25,14.586 18.586,14.25 19,14.25 L19,17.25 C20.243,17.25 21.25,16.243 21.25,15 L18.25,15 Z M18.25,13 L18.25,15 L21.25,15 L21.25,13 L18.25,13 Z"/>
  <path fill="#151E28" d="M16,5.25 C20.28,5.25 23.75,8.72 23.75,13 L23.75,23.878 C23.75,24.421 23.417,24.821 23.005,24.992 C22.617,25.154 22.158,25.121 21.781,24.893 C21.348,24.632 20.801,24.656 20.394,24.956 C20.29,25.032 20.171,25.166 19.765,25.653 L19.076,26.48 C18.934,26.651 18.723,26.75 18.5,26.75 C18.278,26.75 18.066,26.651 17.924,26.48 L17.882,26.43 C17.451,25.913 17.159,25.563 16.913,25.316 C16.672,25.073 16.532,24.988 16.429,24.95 C16.152,24.849 15.848,24.849 15.571,24.95 C15.468,24.988 15.328,25.073 15.087,25.316 C14.841,25.563 14.549,25.913 14.118,26.43 L14.076,26.48 C13.934,26.651 13.723,26.75 13.5,26.75 C13.278,26.75 13.066,26.651 12.924,26.48 L12.235,25.653 C11.829,25.166 11.71,25.032 11.606,24.956 C11.199,24.656 10.652,24.632 10.219,24.893 C9.842,25.121 9.383,25.154 8.995,24.992 C8.583,24.821 8.25,24.421 8.25,23.878 L8.25,13 C8.25,8.72 11.72,5.25 16,5.25 Z M9.75,13 L9.75,23.449 C10.644,23.052 11.693,23.158 12.495,23.747 C12.766,23.947 13.01,24.24 13.327,24.621 L13.387,24.693 L13.502,24.831 C13.69,24.613 13.861,24.421 14.022,24.259 C14.33,23.949 14.654,23.688 15.056,23.541 C15.666,23.318 16.334,23.318 16.944,23.541 C17.347,23.688 17.67,23.949 17.978,24.259 C18.139,24.421 18.31,24.613 18.498,24.831 L18.613,24.693 L18.673,24.621 C18.99,24.24 19.234,23.947 19.506,23.747 C20.308,23.158 21.356,23.052 22.25,23.449 L22.25,13 C22.25,9.548 19.452,6.75 16,6.75 C12.548,6.75 9.75,9.548 9.75,13 Z M13.75,13 L13.75,15 C13.75,15.414 13.414,15.75 13,15.75 C12.586,15.75 12.25,15.414 12.25,15 L12.25,13 C12.25,12.586 12.586,12.25 13,12.25 C13.414,12.25 13.75,12.586 13.75,13 Z M19.75,13 L19.75,15 C19.75,15.414 19.414,15.75 19,15.75 C18.586,15.75 18.25,15.414 18.25,15 L18.25,13 C18.25,12.586 18.586,12.25 19,12.25 C19.414,12.25 19.75,12.586 19.75,13 Z"/>
</svg>

