<svg xmlns="http://www.w3.org/2000/svg" viewBox="0 0 32 32">
  <defs/>
  <path fill="white" d="M25,16 C25,20.971 20.971,25 16,25 C11.029,25 7,20.971 7,16 C7,11.029 11.029,7 16,7 C20.971,7 25,11.029 25,16 Z"/>
  <path fill="white" d="M10.684,9.691 L9.717,8.544 C9.187,8.991 9.033,9.742 9.342,10.362 L10.684,9.691 Z M17.315,7.854 L18.775,7.511 C18.636,6.919 18.153,6.469 17.552,6.373 L17.315,7.854 Z M17.326,7.903 L18.794,7.598 L18.794,7.598 L17.326,7.903 Z M16.598,10.059 L17.582,11.191 L17.582,11.191 L16.598,10.059 Z M16.422,10.202 L17.359,11.373 L17.359,11.373 L16.422,10.202 Z M16.278,10.317 L17.215,11.488 L17.215,11.488 L16.278,10.317 Z M12.063,12.438 L13.349,13.21 L13.349,13.21 L12.063,12.438 Z M12.06,12.443 L10.718,13.113 C10.963,13.603 11.455,13.92 12.002,13.941 C12.549,13.963 13.064,13.684 13.346,13.214 L12.06,12.443 Z M9.574,10.825 L10.916,10.155 C10.688,9.698 10.243,9.389 9.735,9.334 C9.227,9.279 8.727,9.486 8.406,9.884 L9.574,10.825 Z M13.453,23.849 L12.99,25.276 C13.741,25.52 14.552,25.139 14.845,24.406 L13.453,23.849 Z M13.85,22.856 L12.457,22.299 L12.457,22.299 L13.85,22.856 Z M13.606,21.666 L12.545,22.727 L12.545,22.727 L13.606,21.666 Z M13.364,18.265 L12.164,17.364 L12.164,17.364 L13.364,18.265 Z M14.545,16.69 L15.745,17.59 C16.044,17.192 16.125,16.671 15.963,16.201 C15.8,15.73 15.415,15.371 14.934,15.242 L14.545,16.69 Z M11.329,14.335 L12.671,13.665 L12.671,13.665 L11.329,14.335 Z M14.935,24.182 L13.542,23.625 C13.37,24.055 13.407,24.542 13.642,24.942 C13.877,25.341 14.283,25.61 14.743,25.67 L14.935,24.182 Z M21.82,21.847 L22.878,22.91 C23.415,22.376 23.469,21.524 23.004,20.926 L21.82,21.847 Z M19.3,18.608 L18.116,19.529 L18.116,19.529 L19.3,18.608 Z M18.696,17.887 L17.692,19.002 L17.692,19.002 L18.696,17.887 Z M18.265,17.582 L17.548,18.9 L17.548,18.9 L18.265,17.582 Z M17.384,17.252 L17.858,15.829 L17.858,15.829 L17.384,17.252 Z M16.276,16.882 L16.75,15.459 C16.137,15.255 15.463,15.466 15.076,15.982 L16.276,16.882 Z M14.564,19.165 L15.764,20.064 L15.764,20.064 L14.564,19.165 Z M15.243,23.413 L16.635,23.97 L16.635,23.97 L15.243,23.413 Z M22.803,20.668 L21.619,21.589 C21.913,21.967 22.369,22.182 22.847,22.168 C23.325,22.154 23.768,21.912 24.039,21.518 L22.803,20.668 Z M18.872,8.263 L19.394,6.857 C18.927,6.684 18.404,6.754 17.999,7.043 C17.594,7.333 17.359,7.804 17.372,8.302 L18.872,8.263 Z M17.582,11.191 L16.598,10.059 L16.598,10.059 L17.582,11.191 Z M17.371,11.364 L16.434,10.192 C16.426,10.199 16.418,10.205 16.411,10.211 L17.371,11.364 Z M17.371,11.364 L18.308,12.535 C18.316,12.529 18.323,12.522 18.331,12.516 L17.371,11.364 Z M17.359,11.373 L16.422,10.202 L16.422,10.202 L17.359,11.373 Z M17.215,11.488 L18.152,12.659 L18.152,12.659 L17.215,11.488 Z M13.349,13.21 L12.063,12.438 L12.063,12.438 L13.349,13.21 Z M13.308,13.277 L12.022,12.505 C11.768,12.928 11.739,13.45 11.943,13.899 C12.148,14.348 12.56,14.668 13.046,14.754 L13.308,13.277 Z M17.858,15.829 L17.384,17.252 L17.384,17.252 L17.858,15.829 Z M17.918,15.849 L17.443,17.272 L17.444,17.272 L17.918,15.849 Z M18.981,16.265 L19.698,14.947 L19.698,14.947 L18.981,16.265 Z M19.7,16.773 L20.704,15.658 L20.704,15.658 L19.7,16.773 Z M20.446,17.637 L19.262,18.558 L19.262,18.558 L20.446,17.637 Z M20.484,17.687 L19.3,18.608 L19.3,18.608 L20.484,17.687 Z M16,6.25 C13.608,6.25 11.413,7.114 9.717,8.544 L11.651,10.838 C12.826,9.846 14.342,9.25 16,9.25 L16,6.25 Z M17.552,6.373 C17.046,6.292 16.527,6.25 16,6.25 L16,9.25 C16.368,9.25 16.728,9.279 17.078,9.335 L17.552,6.373 Z M18.794,7.598 C18.788,7.568 18.782,7.539 18.775,7.511 L15.855,8.198 C15.856,8.203 15.857,8.206 15.857,8.207 C15.857,8.208 15.857,8.208 15.857,8.208 L18.794,7.598 Z M17.582,11.191 C18.606,10.301 19.07,8.927 18.794,7.598 L15.857,8.208 C15.912,8.473 15.819,8.748 15.614,8.926 L17.582,11.191 Z M17.359,11.373 C17.455,11.296 17.521,11.243 17.582,11.191 L15.614,8.926 C15.616,8.925 15.613,8.928 15.593,8.944 C15.571,8.961 15.54,8.987 15.485,9.031 L17.359,11.373 Z M17.215,11.488 L17.359,11.373 L15.485,9.031 L15.341,9.146 L17.215,11.488 Z M15.044,12.25 C15.833,12.25 16.599,11.981 17.215,11.488 L15.341,9.146 C15.257,9.213 15.152,9.25 15.044,9.25 L15.044,12.25 Z M13.349,13.21 C13.706,12.614 14.349,12.25 15.044,12.25 L15.044,9.25 C13.296,9.25 11.676,10.167 10.776,11.666 L13.349,13.21 Z M13.346,13.214 L13.349,13.21 L10.777,11.666 L10.774,11.671 L13.346,13.214 Z M9.342,10.362 L10.718,13.113 L13.402,11.772 L12.026,9.02 L9.342,10.362 Z M8.406,9.884 C7.058,11.556 6.25,13.686 6.25,16 L9.25,16 C9.25,14.395 9.808,12.925 10.742,11.767 L8.406,9.884 Z M6.25,16 C6.25,20.336 9.08,24.008 12.99,25.276 L13.915,22.422 C11.206,21.544 9.25,18.998 9.25,16 L6.25,16 Z M14.845,24.406 L15.243,23.413 L12.457,22.299 L12.06,23.292 L14.845,24.406 Z M15.243,23.413 C15.629,22.446 15.403,21.342 14.666,20.606 L12.545,22.727 C12.433,22.615 12.398,22.446 12.457,22.299 L15.243,23.413 Z M14.666,20.606 C14.278,20.218 14.235,19.604 14.564,19.165 L12.164,17.364 C10.939,18.998 11.101,21.284 12.545,22.727 L14.666,20.606 Z M14.564,19.165 L15.745,17.59 L13.345,15.79 L12.164,17.364 L14.564,19.165 Z M14.934,15.242 C14.827,15.213 14.75,15.114 14.75,15 L11.75,15 C11.75,16.505 12.771,17.767 14.156,18.139 L14.934,15.242 Z M14.75,15 C14.75,14.034 13.966,13.25 13,13.25 L13,16.25 C12.31,16.25 11.75,15.69 11.75,15 L14.75,15 Z M13,13.25 L12,13.25 L12,16.25 L13,16.25 L13,13.25 Z M12,13.25 C12.284,13.25 12.544,13.411 12.671,13.665 L9.988,15.006 C10.369,15.768 11.148,16.25 12,16.25 L12,13.25 Z M12.671,13.665 L10.916,10.155 L8.233,11.496 L9.988,15.006 L12.671,13.665 Z M14.743,25.67 C15.155,25.723 15.575,25.75 16,25.75 L16,22.75 C15.703,22.75 15.412,22.731 15.127,22.694 L14.743,25.67 Z M16,25.75 C18.684,25.75 21.117,24.664 22.878,22.91 L20.762,20.784 C19.54,22.001 17.859,22.75 16,22.75 L16,25.75 Z M23.004,20.926 L20.484,17.687 L18.116,19.529 L20.636,22.768 L23.004,20.926 Z M20.484,17.687 C20.172,17.285 19.958,17.006 19.7,16.773 L17.692,19.002 C17.692,19.002 17.695,19.005 17.703,19.014 C17.714,19.025 17.733,19.046 17.766,19.086 C17.838,19.172 17.938,19.3 18.116,19.529 L20.484,17.687 Z M19.7,16.773 C19.481,16.576 19.24,16.405 18.981,16.265 L17.548,18.9 C17.6,18.928 17.648,18.962 17.692,19.002 L19.7,16.773 Z M18.981,16.265 C18.676,16.098 18.342,15.99 17.858,15.829 L16.91,18.675 C17.184,18.767 17.339,18.819 17.444,18.858 C17.493,18.876 17.519,18.887 17.533,18.893 C17.544,18.898 17.547,18.899 17.548,18.9 L18.981,16.265 Z M17.858,15.829 L16.75,15.459 L15.801,18.305 L16.91,18.675 L17.858,15.829 Z M15.076,15.982 L13.364,18.265 L15.764,20.064 L17.476,17.782 L15.076,15.982 Z M13.364,18.265 C12.587,19.301 12.69,20.751 13.606,21.666 L15.727,19.545 C15.867,19.685 15.883,19.906 15.764,20.064 L13.364,18.265 Z M13.606,21.666 C13.918,21.978 14.014,22.446 13.85,22.856 L16.635,23.97 C17.245,22.446 16.888,20.706 15.727,19.545 L13.606,21.666 Z M13.85,22.856 L13.542,23.625 L16.328,24.739 L16.635,23.97 L13.85,22.856 Z M24.039,21.518 C25.118,19.948 25.75,18.046 25.75,16 L22.75,16 C22.75,17.42 22.313,18.733 21.567,19.818 L24.039,21.518 Z M25.75,16 C25.75,11.806 23.103,8.235 19.394,6.857 L18.349,9.67 C20.921,10.625 22.75,13.101 22.75,16 L25.75,16 Z M17.372,8.302 C17.389,8.967 17.11,9.614 16.598,10.059 L18.565,12.324 C19.761,11.285 20.411,9.776 20.371,8.225 L17.372,8.302 Z M16.598,10.059 C16.568,10.085 16.532,10.114 16.434,10.192 L18.308,12.535 C18.392,12.468 18.48,12.398 18.565,12.324 L16.598,10.059 Z M16.411,10.211 L16.411,10.211 L18.331,12.516 L18.331,12.516 L16.411,10.211 Z M16.434,10.192 L16.422,10.202 L18.296,12.545 L18.308,12.535 L16.434,10.192 Z M16.422,10.202 L16.278,10.317 L18.152,12.659 L18.296,12.545 L16.422,10.202 Z M16.278,10.317 C15.928,10.597 15.492,10.75 15.044,10.75 L15.044,13.75 C16.174,13.75 17.27,13.365 18.152,12.659 L16.278,10.317 Z M15.044,10.75 C13.822,10.75 12.691,11.391 12.063,12.438 L14.635,13.981 C14.721,13.838 14.876,13.75 15.044,13.75 L15.044,10.75 Z M12.063,12.438 L12.022,12.505 L14.595,14.049 L14.635,13.981 L12.063,12.438 Z M13.046,14.754 C13.162,14.774 13.25,14.879 13.25,15 L16.25,15 C16.25,13.399 15.094,12.071 13.571,11.8 L13.046,14.754 Z M13.25,15 C13.25,15.966 14.034,16.75 15,16.75 L15,13.75 C15.69,13.75 16.25,14.31 16.25,15 L13.25,15 Z M15,16.75 L16,16.75 L16,13.75 L15,13.75 L15,16.75 Z M16,16.75 C15.919,16.75 15.839,16.737 15.763,16.712 L16.712,13.865 C16.482,13.789 16.242,13.75 16,13.75 L16,16.75 Z M15.763,16.712 L17.384,17.252 L18.333,14.406 L16.712,13.865 L15.763,16.712 Z M17.384,17.252 L17.443,17.272 L18.392,14.425 L18.333,14.406 L17.384,17.252 Z M17.444,17.272 C17.934,17.435 18.112,17.499 18.265,17.582 L19.698,14.947 C19.266,14.712 18.813,14.566 18.392,14.425 L17.444,17.272 Z M18.265,17.582 C18.42,17.667 18.564,17.769 18.696,17.887 L20.704,15.658 C20.398,15.383 20.06,15.144 19.698,14.947 L18.265,17.582 Z M18.696,17.887 C18.825,18.003 18.945,18.15 19.262,18.558 L21.63,16.717 C21.358,16.366 21.069,15.988 20.704,15.658 L18.696,17.887 Z M19.262,18.558 L19.3,18.608 L21.668,16.766 L21.63,16.717 L19.262,18.558 Z M19.3,18.608 L21.619,21.589 L23.987,19.747 L21.668,16.766 L19.3,18.608 Z M7.75,16 C7.75,11.444 11.444,7.75 16,7.75 L16,4.75 C9.787,4.75 4.75,9.787 4.75,16 L7.75,16 Z M16,24.25 C11.444,24.25 7.75,20.556 7.75,16 L4.75,16 C4.75,22.213 9.787,27.25 16,27.25 L16,24.25 Z M24.25,16 C24.25,20.556 20.556,24.25 16,24.25 L16,27.25 C22.213,27.25 27.25,22.213 27.25,16 L24.25,16 Z M16,7.75 C20.556,7.75 24.25,11.444 24.25,16 L27.25,16 C27.25,9.787 22.213,4.75 16,4.75 L16,7.75 Z"/>
  <path fill="#151E28" d="M16,6.25 C21.385,6.25 25.75,10.615 25.75,16 C25.75,21.385 21.385,25.75 16,25.75 C10.615,25.75 6.25,21.385 6.25,16 C6.25,10.615 10.615,6.25 16,6.25 Z M22.803,20.668 C23.716,19.341 24.25,17.733 24.25,16 C24.25,12.453 22.012,9.43 18.872,8.263 C18.9,9.371 18.436,10.449 17.582,11.191 C17.524,11.241 17.462,11.291 17.371,11.364 L17.359,11.373 L17.215,11.488 C16.599,11.981 15.833,12.25 15.044,12.25 C14.349,12.25 13.706,12.614 13.349,13.21 L13.308,13.277 C14.128,13.423 14.75,14.139 14.75,15 C14.75,15.138 14.862,15.25 15,15.25 L16,15.25 C16.081,15.25 16.161,15.263 16.237,15.288 L17.858,15.829 L17.918,15.849 C18.373,16 18.689,16.106 18.981,16.264 C19.24,16.405 19.481,16.576 19.7,16.773 C19.947,16.996 20.151,17.258 20.446,17.638 L20.484,17.687 Z M9.574,10.825 C8.433,12.241 7.75,14.04 7.75,16 C7.75,19.667 10.143,22.776 13.453,23.849 L13.85,22.856 C14.014,22.446 13.918,21.978 13.606,21.667 C12.69,20.751 12.587,19.301 13.364,18.264 L14.545,16.69 C13.799,16.49 13.25,15.809 13.25,15 C13.25,14.862 13.138,14.75 13,14.75 L12,14.75 C11.716,14.75 11.456,14.59 11.329,14.335 Z M14.935,24.182 C15.284,24.227 15.639,24.25 16,24.25 C18.271,24.25 20.328,23.332 21.82,21.847 L19.3,18.608 C18.953,18.161 18.832,18.01 18.696,17.887 C18.565,17.769 18.42,17.667 18.265,17.582 C18.103,17.494 17.921,17.431 17.384,17.252 L16.276,16.882 L14.564,19.164 C14.235,19.604 14.278,20.218 14.667,20.606 C15.403,21.342 15.629,22.446 15.243,23.413 Z M10.684,9.691 L12.06,12.443 L12.063,12.438 C12.691,11.391 13.823,10.75 15.044,10.75 C15.492,10.75 15.928,10.597 16.278,10.317 L16.422,10.202 C16.529,10.116 16.566,10.086 16.598,10.059 C17.213,9.525 17.491,8.7 17.326,7.903 C17.323,7.889 17.319,7.873 17.315,7.854 C16.887,7.786 16.448,7.75 16,7.75 C13.975,7.75 12.12,8.48 10.684,9.691 Z"/>
</svg>

