<svg xmlns="http://www.w3.org/2000/svg" viewBox="0 0 32 32">
  <defs/>
  <path fill="white" d="M17,9 L17,10 C17,8.895 17.895,8 19,8 C20.105,8 21,8.895 21,10 L21,13 C21,11.895 21.895,11 23,11 C24.105,11 25,11.895 25,13 L25,14 C25,14.74 24.598,15.387 24,15.733 L24,18.576 C24,20.128 23.383,21.617 22.285,22.714 C21.462,23.538 21,24.654 21,25.818 L21,26 L11,26 C11,24.719 10.486,23.486 9.58,22.58 C8.56,21.56 7.903,20.223 7.724,18.791 L7.658,18.27 C7.309,15.472 9.491,13 12.311,13 L13,13 L13,12 L9,14 L9,10 C9,8.895 9.895,8 11,8 C12.105,8 13,8.895 13,10 L13,9 C13,7.895 13.895,7 15,7 C16.105,7 17,7.895 17,9 Z M15.146,13 C15.797,13 16.416,13.026 17.001,13.073 C17,13.049 17,13.025 17,13 Z M20.857,13.745 C20.905,13.758 20.953,13.772 21,13.785 L21,13 C21,13.263 20.949,13.515 20.857,13.745 Z"/>
  <path fill="white" d="M12.558,7.734 L11.707,8.969 C12.061,9.213 12.503,9.293 12.921,9.189 C13.338,9.085 13.691,8.807 13.889,8.425 L12.558,7.734 Z M8.253,14.068 L9.372,15.066 C9.648,14.757 9.784,14.347 9.747,13.934 L8.253,14.068 Z M6.914,18.363 L8.403,18.177 L8.403,18.177 L6.914,18.363 Z M6.979,18.884 L5.491,19.07 L5.491,19.07 L6.979,18.884 Z M9.05,23.111 L10.111,22.05 L10.111,22.05 L9.05,23.111 Z M10.47,26.53 L11.53,25.47 L11.53,25.47 L10.47,26.53 Z M22.816,23.245 L23.877,24.305 L23.877,24.305 L22.816,23.245 Z M21.755,22.184 L20.695,21.123 L20.695,21.123 L21.755,22.184 Z M20.281,25.25 L20.281,26.75 C21.046,26.75 21.688,26.175 21.772,25.416 L20.281,25.25 Z M11.699,25.25 L10.213,25.453 C10.314,26.196 10.949,26.75 11.699,26.75 L11.699,25.25 Z M10.111,22.05 L9.05,23.111 L9.05,23.111 L10.111,22.05 Z M8.403,18.177 L9.891,17.991 L9.891,17.991 L8.403,18.177 Z M12.311,13.75 L12.311,12.25 L12.311,12.25 L12.311,13.75 Z M15.146,13.75 L15.146,12.25 L15.146,12.25 L15.146,13.75 Z M15.639,15.842 L14.969,14.5 L14.969,14.5 L15.639,15.842 Z M12.679,17.322 L13.322,18.677 C13.331,18.673 13.34,18.668 13.35,18.664 L12.679,17.322 Z M12.583,17.376 L13.415,18.625 L13.417,18.623 L12.583,17.376 Z M12.256,17.906 L10.768,17.717 L10.768,17.718 L12.256,17.906 Z M12.27,18.172 L13.73,17.829 L13.729,17.826 L12.27,18.172 Z M12.376,18.416 L11.129,19.251 L11.129,19.251 L12.376,18.416 Z M12.906,18.744 L13.095,17.256 L13.091,17.256 L12.906,18.744 Z M13.014,18.75 L13.023,17.25 C13.011,17.25 12.999,17.25 12.987,17.25 L13.014,18.75 Z M15.01,17.834 L14.339,16.492 C13.855,16.734 13.54,17.217 13.512,17.756 C13.484,18.296 13.749,18.809 14.205,19.099 L15.01,17.834 Z M16.31,17.183 L15.639,15.842 L15.639,15.842 L16.31,17.183 Z M17.688,15.418 L18.405,14.1 C17.991,13.875 17.495,13.857 17.067,14.053 C16.638,14.248 16.326,14.633 16.224,15.093 L17.688,15.418 Z M20.558,15.266 L21.889,14.575 C21.691,14.193 21.338,13.915 20.921,13.811 C20.503,13.707 20.061,13.787 19.707,14.031 L20.558,15.266 Z M21.75,10.55 L20.25,10.55 C20.25,11.072 20.521,11.557 20.967,11.829 C21.412,12.102 21.968,12.123 22.433,11.886 L21.75,10.55 Z M17.442,7.734 L16.111,8.425 C16.309,8.807 16.662,9.085 17.079,9.189 C17.496,9.293 17.938,9.213 18.293,8.969 L17.442,7.734 Z M16.25,12.495 L15.613,13.853 C16.078,14.071 16.621,14.036 17.054,13.761 C17.488,13.486 17.75,13.008 17.75,12.495 L16.25,12.495 Z M13.75,12.25 L12.25,12.25 C12.25,13.078 12.921,13.75 13.75,13.75 L13.75,12.25 Z M12.25,12.25 L12.266,13.75 C13.088,13.741 13.75,13.072 13.75,12.25 L12.25,12.25 Z M9.75,12.889 L8.25,12.889 C8.25,13.416 8.527,13.904 8.979,14.175 C9.431,14.446 9.992,14.46 10.457,14.211 L9.75,12.889 Z M13.889,8.425 C14.099,8.021 14.519,7.75 15,7.75 L15,4.75 C13.356,4.75 11.933,5.683 11.227,7.042 L13.889,8.425 Z M11,8.75 C11.265,8.75 11.506,8.831 11.707,8.969 L13.409,6.498 C12.724,6.026 11.892,5.75 11,5.75 L11,8.75 Z M9.75,10 C9.75,9.31 10.309,8.75 11,8.75 L11,5.75 C8.653,5.75 6.75,7.653 6.75,10 L9.75,10 Z M9.75,14 L9.75,10 L6.75,10 L6.75,14 L9.75,14 Z M9.747,13.934 C9.749,13.956 9.75,13.978 9.75,14 L6.75,14 C6.75,14.068 6.753,14.135 6.759,14.202 L9.747,13.934 Z M8.403,18.177 C8.255,16.994 8.643,15.883 9.372,15.066 L7.134,13.069 C5.856,14.501 5.166,16.466 5.426,18.549 L8.403,18.177 Z M8.468,18.698 L8.403,18.177 L5.426,18.549 L5.491,19.07 L8.468,18.698 Z M10.111,22.05 C9.207,21.147 8.626,19.963 8.468,18.698 L5.491,19.07 C5.732,21.001 6.617,22.799 7.989,24.171 L10.111,22.05 Z M11.75,26 C11.75,24.519 11.156,23.095 10.111,22.05 L7.989,24.171 C8.475,24.658 8.75,25.32 8.75,26 L11.75,26 Z M11.53,25.47 C11.671,25.61 11.75,25.801 11.75,26 L8.75,26 C8.75,26.597 8.987,27.169 9.409,27.591 L11.53,25.47 Z M11,25.25 C11.199,25.25 11.389,25.329 11.53,25.47 L9.409,27.591 C9.831,28.013 10.403,28.25 11,28.25 L11,25.25 Z M21,25.25 L11,25.25 L11,28.25 L21,28.25 L21,25.25 Z M20.25,26 C20.25,25.586 20.586,25.25 21,25.25 L21,28.25 C22.242,28.25 23.25,27.243 23.25,26 L20.25,26 Z M20.25,25.818 L20.25,26 L23.25,26 L23.25,25.818 L20.25,25.818 Z M21.755,22.184 C20.791,23.148 20.25,24.455 20.25,25.818 L23.25,25.818 C23.25,25.251 23.475,24.706 23.877,24.305 L21.755,22.184 Z M23.25,18.576 C23.25,19.929 22.712,21.227 21.755,22.184 L23.877,24.305 C25.396,22.786 26.25,20.725 26.25,18.576 L23.25,18.576 Z M23.25,18 L23.25,18.576 L26.25,18.576 L26.25,18 L23.25,18 Z M24,18.75 C23.586,18.75 23.25,18.414 23.25,18 L26.25,18 C26.25,16.757 25.242,15.75 24,15.75 L24,18.75 Z M24.75,18 C24.75,18.414 24.414,18.75 24,18.75 L24,15.75 C22.757,15.75 21.75,16.757 21.75,18 L24.75,18 Z M24.75,18.576 L24.75,18 L21.75,18 L21.75,18.576 L24.75,18.576 Z M22.816,23.245 C24.054,22.006 24.75,20.327 24.75,18.576 L21.75,18.576 C21.75,19.531 21.37,20.448 20.695,21.123 L22.816,23.245 Z M21.772,25.416 C21.863,24.599 22.229,23.832 22.816,23.245 L20.695,21.123 C19.624,22.194 18.956,23.593 18.791,25.084 L21.772,25.416 Z M11.699,26.75 L20.281,26.75 L20.281,23.75 L11.699,23.75 L11.699,26.75 Z M9.05,23.111 C9.685,23.746 10.092,24.572 10.213,25.453 L13.185,25.047 C12.976,23.518 12.271,22.089 11.171,20.989 L9.05,23.111 Z M6.979,18.884 C7.179,20.482 7.912,21.973 9.05,23.111 L11.171,20.989 C10.502,20.321 10.073,19.444 9.956,18.512 L6.979,18.884 Z M6.914,18.363 L6.979,18.884 L9.956,18.512 L9.891,17.991 L6.914,18.363 Z M12.311,12.25 C9.04,12.25 6.509,15.117 6.914,18.363 L9.891,17.991 C9.709,16.536 10.844,15.25 12.311,15.25 L12.311,12.25 Z M15.146,12.25 L12.311,12.25 L12.311,15.25 L15.146,15.25 L15.146,12.25 Z M17.75,14.854 C17.75,13.416 16.584,12.25 15.146,12.25 L15.146,15.25 C14.927,15.25 14.75,15.073 14.75,14.854 L17.75,14.854 Z M16.31,17.183 C17.192,16.742 17.75,15.841 17.75,14.854 L14.75,14.854 C14.75,14.704 14.835,14.567 14.969,14.5 L16.31,17.183 Z M13.35,18.664 L16.31,17.183 L14.969,14.5 L12.008,15.98 L13.35,18.664 Z M13.417,18.623 C13.387,18.643 13.355,18.661 13.322,18.677 L12.036,15.966 C11.936,16.014 11.841,16.068 11.75,16.129 L13.417,18.623 Z M13.744,18.095 C13.717,18.302 13.604,18.499 13.415,18.625 L11.752,16.127 C11.193,16.5 10.847,17.089 10.768,17.717 L13.744,18.095 Z M13.729,17.826 C13.751,17.916 13.755,18.008 13.744,18.095 L10.768,17.718 C10.734,17.98 10.747,18.251 10.81,18.519 L13.729,17.826 Z M13.623,17.582 C13.672,17.655 13.709,17.739 13.73,17.829 L10.81,18.516 C10.872,18.783 10.982,19.031 11.129,19.251 L13.623,17.582 Z M13.091,17.256 C13.317,17.284 13.507,17.409 13.623,17.582 L11.129,19.251 C11.482,19.777 12.054,20.15 12.722,20.233 L13.091,17.256 Z M12.987,17.25 C13.023,17.25 13.059,17.252 13.095,17.256 L12.718,20.232 C12.825,20.246 12.932,20.252 13.041,20.25 L12.987,17.25 Z M16.75,21 C16.75,18.937 15.084,17.263 13.023,17.25 L13.005,20.25 C13.416,20.253 13.75,20.587 13.75,21 L16.75,21 Z M16,20.25 C16.414,20.25 16.75,20.586 16.75,21 L13.75,21 C13.75,22.243 14.757,23.25 16,23.25 L16,20.25 Z M15.25,21 C15.25,20.586 15.586,20.25 16,20.25 L16,23.25 C17.242,23.25 18.25,22.243 18.25,21 L15.25,21 Z M14.205,19.099 C14.836,19.501 15.25,20.203 15.25,21 L18.25,21 C18.25,19.134 17.275,17.497 15.815,16.568 L14.205,19.099 Z M15.639,15.842 L14.339,16.492 L15.681,19.175 L16.981,18.525 L15.639,15.842 Z M16.224,15.093 C16.153,15.414 15.94,15.691 15.639,15.842 L16.981,18.525 C18.101,17.965 18.889,16.934 19.153,15.742 L16.224,15.093 Z M19,14.25 C18.781,14.25 18.58,14.195 18.405,14.1 L16.972,16.735 C17.576,17.064 18.268,17.25 19,17.25 L19,14.25 Z M19.707,14.031 C19.506,14.169 19.265,14.25 19,14.25 L19,17.25 C19.892,17.25 20.724,16.974 21.409,16.502 L19.707,14.031 Z M23,15.25 C22.519,15.25 22.099,14.979 21.889,14.575 L19.227,15.958 C19.933,17.317 21.356,18.25 23,18.25 L23,15.25 Z M24.25,14 C24.25,14.69 23.69,15.25 23,15.25 L23,18.25 C25.347,18.25 27.25,16.347 27.25,14 L24.25,14 Z M24.25,13 L24.25,14 L27.25,14 L27.25,13 L24.25,13 Z M23,11.75 C23.69,11.75 24.25,12.31 24.25,13 L27.25,13 C27.25,10.653 25.347,8.75 23,8.75 L23,11.75 Z M22.433,11.886 C22.601,11.799 22.793,11.75 23,11.75 L23,8.75 C22.307,8.75 21.648,8.917 21.067,9.214 L22.433,11.886 Z M20.25,10 L20.25,10.55 L23.25,10.55 L23.25,10 L20.25,10 Z M19,8.75 C19.69,8.75 20.25,9.31 20.25,10 L23.25,10 C23.25,7.653 21.347,5.75 19,5.75 L19,8.75 Z M18.293,8.969 C18.493,8.831 18.735,8.75 19,8.75 L19,5.75 C18.108,5.75 17.276,6.026 16.591,6.498 L18.293,8.969 Z M15,7.75 C15.48,7.75 15.9,8.021 16.111,8.425 L18.773,7.042 C18.067,5.683 16.643,4.75 15,4.75 L15,7.75 Z M12.25,10 L12.25,12 L15.25,12 L15.25,10 L12.25,10 Z M12.25,9 L12.25,10 L15.25,10 L15.25,9 L12.25,9 Z M15,6.25 C13.481,6.25 12.25,7.481 12.25,9 L15.25,9 C15.25,9.138 15.138,9.25 15,9.25 L15,6.25 Z M17.75,9 C17.75,7.481 16.519,6.25 15,6.25 L15,9.25 C14.862,9.25 14.75,9.138 14.75,9 L17.75,9 Z M17.75,10 L17.75,9 L14.75,9 L14.75,10 L17.75,10 Z M17.75,12.495 L17.75,10 L14.75,10 L14.75,12.495 L17.75,12.495 Z M15.146,13.75 C15.316,13.75 15.473,13.787 15.613,13.853 L16.887,11.137 C16.356,10.888 15.765,10.75 15.146,10.75 L15.146,13.75 Z M13.75,13.75 L15.146,13.75 L15.146,10.75 L13.75,10.75 L13.75,13.75 Z M12.25,12 L12.25,12.25 L15.25,12.25 L15.25,12 L12.25,12 Z M13.75,12 L13.75,10 L10.75,10 L10.75,12 L13.75,12 Z M13.75,12.25 L13.75,12 L10.75,12 L10.75,12.25 L13.75,12.25 Z M10.457,14.211 C10.993,13.925 11.606,13.758 12.266,13.75 L12.233,10.75 C11.079,10.763 9.993,11.057 9.042,11.566 L10.457,14.211 Z M8.25,10 L8.25,12.889 L11.25,12.889 L11.25,10 L8.25,10 Z M11,7.25 C9.481,7.25 8.25,8.481 8.25,10 L11.25,10 C11.25,10.138 11.138,10.25 11,10.25 L11,7.25 Z M13.75,10 C13.75,8.481 12.519,7.25 11,7.25 L11,10.25 C10.862,10.25 10.75,10.138 10.75,10 L13.75,10 Z M19.25,13 L19.25,10 L16.25,10 L16.25,13 L19.25,13 Z M19,12.75 C19.138,12.75 19.25,12.862 19.25,13 L16.25,13 C16.25,14.519 17.481,15.75 19,15.75 L19,12.75 Z M18.75,13 C18.75,12.862 18.862,12.75 19,12.75 L19,15.75 C20.519,15.75 21.75,14.519 21.75,13 L18.75,13 Z M18.75,10 L18.75,13 L21.75,13 L21.75,10 L18.75,10 Z M19,10.25 C18.862,10.25 18.75,10.138 18.75,10 L21.75,10 C21.75,8.481 20.519,7.25 19,7.25 L19,10.25 Z M19.25,10 C19.25,10.138 19.138,10.25 19,10.25 L19,7.25 C17.481,7.25 16.25,8.481 16.25,10 L19.25,10 Z M20.25,13 L20.25,14 L23.25,14 L23.25,13 L20.25,13 Z M23,10.25 C21.481,10.25 20.25,11.481 20.25,13 L23.25,13 C23.25,13.138 23.138,13.25 23,13.25 L23,10.25 Z M25.75,13 C25.75,11.481 24.519,10.25 23,10.25 L23,13.25 C22.862,13.25 22.75,13.138 22.75,13 L25.75,13 Z M25.75,14 L25.75,13 L22.75,13 L22.75,14 L25.75,14 Z M23,16.75 C24.519,16.75 25.75,15.519 25.75,14 L22.75,14 C22.75,13.862 22.862,13.75 23,13.75 L23,16.75 Z M20.25,14 C20.25,15.519 21.481,16.75 23,16.75 L23,13.75 C23.138,13.75 23.25,13.862 23.25,14 L20.25,14 Z"/>
  <path fill="#151E28" d="M15,6.25 C16.062,6.25 16.983,6.852 17.442,7.734 C17.885,7.429 18.421,7.25 19,7.25 C20.519,7.25 21.75,8.481 21.75,10 L21.75,10.55 C22.125,10.358 22.55,10.25 23,10.25 C24.519,10.25 25.75,11.481 25.75,13 L25.75,14 C25.75,15.519 24.519,16.75 23,16.75 C21.938,16.75 21.016,16.148 20.558,15.266 C20.115,15.571 19.578,15.75 19,15.75 C18.525,15.75 18.078,15.63 17.688,15.418 C17.521,16.174 17.021,16.828 16.31,17.183 L15.01,17.834 C16.056,18.499 16.75,19.668 16.75,21 C16.75,21.414 16.414,21.75 16,21.75 C15.586,21.75 15.25,21.414 15.25,21 C15.25,19.762 14.25,18.758 13.014,18.75 C12.978,18.751 12.942,18.749 12.906,18.744 C12.685,18.717 12.494,18.593 12.376,18.417 C12.327,18.343 12.29,18.261 12.27,18.173 C12.249,18.084 12.245,17.994 12.256,17.906 C12.282,17.695 12.398,17.5 12.583,17.376 C12.614,17.356 12.646,17.338 12.679,17.322 L15.639,15.842 C16.014,15.655 16.25,15.272 16.25,14.854 C16.25,14.244 15.755,13.75 15.146,13.75 L12.311,13.75 C9.942,13.75 8.109,15.826 8.403,18.177 L8.468,18.698 C8.626,19.963 9.207,21.147 10.111,22.05 C11.156,23.095 11.75,24.519 11.75,26 C11.75,26.414 11.414,26.75 11,26.75 C10.586,26.75 10.25,26.414 10.25,26 C10.25,24.92 9.816,23.876 9.05,23.111 C7.912,21.973 7.179,20.482 6.979,18.884 L6.914,18.363 C6.71,16.73 7.25,15.192 8.253,14.068 C8.251,14.045 8.25,14.023 8.25,14 L8.25,10 C8.25,8.481 9.481,7.25 11,7.25 C11.578,7.25 12.115,7.429 12.558,7.734 C13.016,6.852 13.938,6.25 15,6.25 Z M24.75,18 L24.75,18.576 C24.75,20.327 24.054,22.006 22.816,23.245 C22.133,23.927 21.75,24.853 21.75,25.818 L21.75,26 C21.75,26.414 21.414,26.75 21,26.75 C20.586,26.75 20.25,26.414 20.25,26 L20.25,25.818 C20.25,24.455 20.791,23.148 21.755,22.184 C22.712,21.227 23.25,19.929 23.25,18.576 L23.25,18 C23.25,17.586 23.586,17.25 24,17.25 C24.414,17.25 24.75,17.586 24.75,18 Z M17.75,10 L17.75,13 C17.75,13.69 18.309,14.25 19,14.25 C19.69,14.25 20.25,13.69 20.25,13 L20.25,10 C20.25,9.31 19.69,8.75 19,8.75 C18.309,8.75 17.75,9.31 17.75,10 Z M13.75,10 L13.75,12.25 L15.146,12.25 C15.54,12.25 15.915,12.338 16.25,12.495 L16.25,9 C16.25,8.31 15.69,7.75 15,7.75 C14.309,7.75 13.75,8.31 13.75,9 L13.75,10 Z M12.25,10 C12.25,9.31 11.69,8.75 11,8.75 C10.309,8.75 9.75,9.31 9.75,10 L9.75,12.889 C10.493,12.491 11.342,12.26 12.25,12.25 Z M21.75,14 C21.75,14.69 22.309,15.25 23,15.25 C23.69,15.25 24.25,14.69 24.25,14 L24.25,13 C24.25,12.31 23.69,11.75 23,11.75 C22.309,11.75 21.75,12.31 21.75,13 Z"/>
</svg>

