<svg xmlns="http://www.w3.org/2000/svg" viewBox="0 0 32 32">
  <defs/>
  <path fill="white" d="M18.6,25 L13.4,25 C11.16,25 10.04,25 9.184,24.564 C8.431,24.18 7.819,23.569 7.436,22.816 C7,21.96 7,20.84 7,18.6 L7,13.4 C7,11.16 7,10.04 7.436,9.184 C7.819,8.431 8.431,7.819 9.184,7.436 C10.04,7 11.16,7 13.4,7 L18.6,7 C20.84,7 21.96,7 22.816,7.436 C23.569,7.819 24.18,8.431 24.564,9.184 C25,10.04 25,11.16 25,13.4 L25,18.6 C25,20.84 25,21.96 24.564,22.816 C24.18,23.569 23.569,24.18 22.816,24.564 C21.96,25 20.84,25 18.6,25 Z"/>
  <path fill="white" d="M18.633,6.25 L18.633,7.75 L18.633,7.75 L18.633,6.25 Z M13.367,6.25 L13.367,7.75 L13.367,7.75 L13.367,6.25 Z M10.712,6.307 L10.834,7.802 L10.834,7.802 L10.712,6.307 Z M8.844,6.768 L9.525,8.104 L9.525,8.104 L8.844,6.768 Z M6.768,8.844 L8.104,9.525 L8.104,9.525 L6.768,8.844 Z M6.307,10.712 L4.812,10.59 L4.812,10.59 L6.307,10.712 Z M6.25,13.367 L7.75,13.367 L7.75,13.367 L6.25,13.367 Z M6.25,18.633 L7.75,18.633 L7.75,18.633 L6.25,18.633 Z M6.307,21.288 L4.812,21.41 L4.812,21.41 L6.307,21.288 Z M6.768,23.157 L8.104,22.476 L8.104,22.476 L6.768,23.157 Z M8.844,25.232 L9.525,23.896 L9.525,23.896 L8.844,25.232 Z M10.712,25.693 L10.59,27.188 L10.59,27.188 L10.712,25.693 Z M13.367,25.75 L13.367,24.25 L13.367,24.25 L13.367,25.75 Z M18.633,25.75 L18.633,24.25 L18.633,24.25 L18.633,25.75 Z M21.288,25.693 L21.41,27.188 L21.41,27.188 L21.288,25.693 Z M23.157,25.232 L22.476,23.896 L22.476,23.896 L23.157,25.232 Z M25.232,23.157 L23.896,22.476 L23.896,22.476 L25.232,23.157 Z M25.693,21.288 L27.188,21.41 L27.188,21.41 L25.693,21.288 Z M25.75,18.633 L24.25,18.633 L24.25,18.633 L25.75,18.633 Z M25.75,13.367 L24.25,13.367 L24.25,13.367 L25.75,13.367 Z M25.693,10.712 L27.188,10.59 L27.188,10.59 L25.693,10.712 Z M25.232,8.844 L23.896,9.525 L23.896,9.525 L25.232,8.844 Z M23.157,6.768 L22.476,8.104 L22.476,8.104 L23.157,6.768 Z M21.288,6.307 L21.166,7.802 L21.166,7.802 L21.288,6.307 Z M22.476,8.104 L23.157,6.768 L23.157,6.768 L22.476,8.104 Z M21.166,7.802 L21.044,9.297 L21.044,9.297 L21.166,7.802 Z M23.896,9.525 L25.232,8.844 L25.232,8.844 L23.896,9.525 Z M24.198,10.834 L25.693,10.712 L25.693,10.712 L24.198,10.834 Z M24.198,21.166 L25.693,21.288 L25.693,21.288 L24.198,21.166 Z M23.896,22.476 L25.232,23.157 L25.232,23.157 L23.896,22.476 Z M22.476,23.896 L23.157,25.232 L23.157,25.232 L22.476,23.896 Z M21.166,24.198 L21.288,25.693 L21.288,25.693 L21.166,24.198 Z M10.834,24.198 L10.712,25.693 L10.712,25.693 L10.834,24.198 Z M9.525,23.896 L8.844,25.232 L8.844,25.232 L9.525,23.896 Z M8.104,22.476 L6.768,23.157 L6.768,23.157 L8.104,22.476 Z M7.802,21.166 L6.307,21.288 L6.307,21.288 L7.802,21.166 Z M7.802,10.834 L6.307,10.712 L6.307,10.712 L7.802,10.834 Z M8.104,9.525 L6.768,8.844 L6.768,8.844 L8.104,9.525 Z M9.525,8.104 L8.844,6.768 L8.844,6.768 L9.525,8.104 Z M10.834,7.802 L10.956,9.297 L10.956,9.297 L10.834,7.802 Z M18.244,17.155 L19.122,18.372 L19.122,18.372 L18.244,17.155 Z M21.649,17.303 L20.67,18.439 L20.67,18.439 L21.649,17.303 Z M17.285,18.193 L18.438,19.153 C18.444,19.145 18.451,19.137 18.457,19.129 L17.285,18.193 Z M17.285,18.193 L16.133,17.233 C16.109,17.261 16.086,17.291 16.065,17.321 L17.285,18.193 Z M17.285,18.193 L18.457,19.129 C18.474,19.108 18.49,19.087 18.506,19.065 L17.285,18.193 Z M17.213,18.283 L18.384,19.22 L18.385,19.22 L17.213,18.283 Z M16.813,18.783 L17.984,19.721 L17.984,19.72 L16.813,18.783 Z M16.809,18.788 L17.979,19.727 L17.98,19.726 L16.809,18.788 Z M14.952,18.891 L13.891,19.952 L13.893,19.953 L14.952,18.891 Z M14.947,18.887 L16.008,17.826 L16.007,17.825 L14.947,18.887 Z M14.942,18.881 L16.002,17.82 L16.001,17.819 L14.942,18.881 Z M11.058,18.881 L9.999,17.819 L9.998,17.82 L11.058,18.881 Z M11.053,18.887 L9.993,17.826 L9.992,17.826 L11.053,18.887 Z M9.47,20.47 L10.53,21.53 L10.53,21.53 L9.47,20.47 Z M12.113,19.947 L11.053,18.886 L11.053,18.887 L12.113,19.947 Z M12.117,19.943 L11.058,18.881 L11.057,18.882 L12.117,19.943 Z M13.883,19.943 L14.943,18.882 L14.942,18.881 L13.883,19.943 Z M13.887,19.947 L12.826,21.008 L12.826,21.008 L13.887,19.947 Z M13.893,19.953 L12.832,21.015 L12.834,21.016 L13.893,19.953 Z M17.979,19.727 L19.149,20.666 L19.15,20.665 L17.979,19.727 Z M17.984,19.72 L19.155,20.658 L19.155,20.657 L17.984,19.72 Z M18.384,19.22 L19.555,20.157 L19.555,20.157 L18.384,19.22 Z M19.122,18.372 L18.244,17.155 L18.244,17.155 L19.122,18.372 Z M20.67,18.439 L21.649,17.303 L21.649,17.303 L20.67,18.439 Z M21.331,19.348 L22.579,18.516 L22.579,18.516 L21.331,19.348 Z M21.376,19.416 L20.128,20.248 L20.128,20.248 L21.376,19.416 Z M22.624,18.584 L23.872,17.752 L23.872,17.752 L22.624,18.584 Z M22.579,18.516 L21.33,19.348 L21.331,19.348 L22.579,18.516 Z M22.515,18.42 L21.266,19.251 L21.266,19.251 L22.515,18.42 Z M18.6,7.75 L18.633,7.75 L18.633,4.75 L18.6,4.75 L18.6,7.75 Z M13.4,7.75 L18.6,7.75 L18.6,4.75 L13.4,4.75 L13.4,7.75 Z M13.367,7.75 L13.4,7.75 L13.4,4.75 L13.367,4.75 L13.367,7.75 Z M13.367,7.75 L13.367,7.75 L13.367,4.75 L13.367,4.75 L13.367,7.75 Z M10.834,7.802 C11.457,7.751 12.252,7.75 13.367,7.75 L13.367,4.75 C12.298,4.75 11.362,4.749 10.59,4.812 L10.834,7.802 Z M9.525,8.104 C9.829,7.949 10.213,7.853 10.834,7.802 L10.59,4.812 C9.783,4.878 8.96,5.025 8.163,5.431 L9.525,8.104 Z M8.104,9.525 C8.416,8.913 8.913,8.416 9.525,8.104 L8.163,5.431 C6.987,6.03 6.03,6.987 5.431,8.163 L8.104,9.525 Z M7.802,10.834 C7.853,10.213 7.949,9.829 8.104,9.525 L5.431,8.163 C5.025,8.96 4.878,9.783 4.812,10.59 L7.802,10.834 Z M7.75,13.367 C7.75,12.252 7.751,11.457 7.802,10.834 L4.812,10.59 C4.749,11.362 4.75,12.298 4.75,13.367 L7.75,13.367 Z M7.75,13.4 L7.75,13.367 L4.75,13.367 L4.75,13.4 L7.75,13.4 Z M7.75,18.6 L7.75,13.4 L4.75,13.4 L4.75,18.6 L7.75,18.6 Z M7.75,18.633 L7.75,18.6 L4.75,18.6 L4.75,18.633 L7.75,18.633 Z M7.802,21.166 C7.751,20.543 7.75,19.748 7.75,18.633 L4.75,18.633 C4.75,19.702 4.749,20.638 4.812,21.41 L7.802,21.166 Z M8.104,22.476 C7.949,22.171 7.853,21.787 7.802,21.166 L4.812,21.41 C4.878,22.217 5.025,23.04 5.431,23.837 L8.104,22.476 Z M9.525,23.896 C8.913,23.584 8.416,23.087 8.104,22.476 L5.431,23.837 C6.03,25.014 6.987,25.97 8.163,26.569 L9.525,23.896 Z M10.834,24.198 C10.213,24.147 9.829,24.051 9.525,23.896 L8.163,26.569 C8.96,26.975 9.783,27.122 10.59,27.188 L10.834,24.198 Z M13.367,24.25 C12.252,24.25 11.457,24.249 10.834,24.198 L10.59,27.188 C11.362,27.251 12.298,27.25 13.367,27.25 L13.367,24.25 Z M13.4,24.25 L13.367,24.25 L13.367,27.25 L13.4,27.25 L13.4,24.25 Z M18.6,24.25 L13.4,24.25 L13.4,27.25 L18.6,27.25 L18.6,24.25 Z M18.633,24.25 L18.6,24.25 L18.6,27.25 L18.633,27.25 L18.633,24.25 Z M21.166,24.198 C20.543,24.249 19.748,24.25 18.633,24.25 L18.633,27.25 C19.702,27.25 20.638,27.251 21.41,27.188 L21.166,24.198 Z M22.476,23.896 C22.171,24.051 21.787,24.147 21.166,24.198 L21.41,27.188 C22.217,27.122 23.04,26.975 23.837,26.569 L22.476,23.896 Z M23.896,22.476 C23.584,23.087 23.087,23.584 22.476,23.896 L23.837,26.569 C25.014,25.97 25.97,25.014 26.569,23.837 L23.896,22.476 Z M24.198,21.166 C24.147,21.787 24.051,22.171 23.896,22.476 L26.569,23.837 C26.975,23.04 27.122,22.217 27.188,21.41 L24.198,21.166 Z M24.25,18.633 C24.25,19.748 24.249,20.543 24.198,21.166 L27.188,21.41 C27.251,20.638 27.25,19.702 27.25,18.633 L24.25,18.633 Z M24.25,18.6 L24.25,18.633 L27.25,18.633 L27.25,18.6 L24.25,18.6 Z M24.25,13.4 L24.25,18.6 L27.25,18.6 L27.25,13.4 L24.25,13.4 Z M24.25,13.367 L24.25,13.4 L27.25,13.4 L27.25,13.367 L24.25,13.367 Z M24.198,10.834 C24.249,11.457 24.25,12.252 24.25,13.367 L27.25,13.367 C27.25,12.298 27.251,11.362 27.188,10.59 L24.198,10.834 Z M23.896,9.525 C24.051,9.829 24.147,10.213 24.198,10.834 L27.188,10.59 C27.122,9.783 26.975,8.96 26.569,8.163 L23.896,9.525 Z M22.476,8.104 C23.087,8.416 23.584,8.913 23.896,9.525 L26.569,8.163 C25.97,6.987 25.014,6.03 23.837,5.431 L22.476,8.104 Z M21.166,7.802 C21.787,7.853 22.171,7.949 22.476,8.104 L23.837,5.431 C23.04,5.025 22.217,4.878 21.41,4.812 L21.166,7.802 Z M18.633,7.75 C19.748,7.75 20.543,7.751 21.166,7.802 L21.41,4.812 C20.638,4.749 19.702,4.75 18.633,4.75 L18.633,7.75 Z M23.157,6.768 C22.605,6.487 22.001,6.365 21.288,6.307 L21.044,9.297 C21.572,9.34 21.737,9.411 21.794,9.441 L23.157,6.768 Z M25.232,8.844 C24.777,7.95 24.05,7.223 23.157,6.768 L21.794,9.441 C22.124,9.609 22.392,9.876 22.559,10.206 L25.232,8.844 Z M25.693,10.712 C25.635,9.999 25.513,9.395 25.232,8.844 L22.559,10.206 C22.589,10.263 22.66,10.428 22.703,10.956 L25.693,10.712 Z M25.75,13.4 C25.75,12.293 25.751,11.416 25.693,10.712 L22.703,10.956 C22.748,11.51 22.75,12.242 22.75,13.4 L25.75,13.4 Z M25.75,18.6 L25.75,13.4 L22.75,13.4 L22.75,18.6 L25.75,18.6 Z M25.693,21.288 C25.751,20.584 25.75,19.707 25.75,18.6 L22.75,18.6 C22.75,19.758 22.748,20.49 22.703,21.044 L25.693,21.288 Z M25.232,23.157 C25.513,22.605 25.635,22.001 25.693,21.288 L22.703,21.044 C22.66,21.572 22.589,21.737 22.559,21.794 L25.232,23.157 Z M23.157,25.232 C24.05,24.777 24.777,24.05 25.232,23.157 L22.559,21.794 C22.392,22.124 22.124,22.392 21.794,22.559 L23.157,25.232 Z M21.288,25.693 C22.001,25.635 22.605,25.513 23.157,25.232 L21.794,22.559 C21.737,22.589 21.572,22.66 21.044,22.703 L21.288,25.693 Z M18.6,25.75 C19.707,25.75 20.584,25.751 21.288,25.693 L21.044,22.703 C20.49,22.748 19.758,22.75 18.6,22.75 L18.6,25.75 Z M13.4,25.75 L18.6,25.75 L18.6,22.75 L13.4,22.75 L13.4,25.75 Z M10.712,25.693 C11.416,25.751 12.293,25.75 13.4,25.75 L13.4,22.75 C12.242,22.75 11.51,22.748 10.956,22.703 L10.712,25.693 Z M8.844,25.232 C9.395,25.513 9.999,25.635 10.712,25.693 L10.956,22.703 C10.428,22.66 10.263,22.589 10.206,22.559 L8.844,25.232 Z M6.768,23.157 C7.223,24.05 7.95,24.777 8.844,25.232 L10.206,22.559 C9.876,22.392 9.609,22.124 9.441,21.794 L6.768,23.157 Z M6.307,21.288 C6.365,22.001 6.487,22.605 6.768,23.157 L9.441,21.794 C9.411,21.737 9.34,21.572 9.297,21.044 L6.307,21.288 Z M6.25,18.6 C6.25,19.707 6.249,20.584 6.307,21.288 L9.297,21.044 C9.252,20.49 9.25,19.758 9.25,18.6 L6.25,18.6 Z M6.25,13.4 L6.25,18.6 L9.25,18.6 L9.25,13.4 L6.25,13.4 Z M6.307,10.712 C6.249,11.416 6.25,12.293 6.25,13.4 L9.25,13.4 C9.25,12.242 9.252,11.51 9.297,10.956 L6.307,10.712 Z M6.768,8.844 C6.487,9.395 6.365,9.999 6.307,10.712 L9.297,10.956 C9.34,10.428 9.411,10.263 9.441,10.206 L6.768,8.844 Z M8.844,6.768 C7.95,7.223 7.223,7.95 6.768,8.844 L9.441,10.206 C9.609,9.876 9.876,9.609 10.206,9.441 L8.844,6.768 Z M10.712,6.307 C9.999,6.365 9.395,6.487 8.844,6.768 L10.206,9.441 C10.263,9.411 10.428,9.34 10.956,9.297 L10.712,6.307 Z M13.4,6.25 C12.293,6.25 11.416,6.249 10.712,6.307 L10.956,9.297 C11.51,9.252 12.242,9.25 13.4,9.25 L13.4,6.25 Z M18.6,6.25 L13.4,6.25 L13.4,9.25 L18.6,9.25 L18.6,6.25 Z M21.288,6.307 C20.584,6.249 19.707,6.25 18.6,6.25 L18.6,9.25 C19.758,9.25 20.49,9.252 21.044,9.297 L21.288,6.307 Z M19.122,18.372 C19.591,18.033 20.231,18.061 20.67,18.439 L22.629,16.167 C21.139,14.882 18.962,14.787 17.366,15.939 L19.122,18.372 Z M18.457,19.129 C18.876,18.605 19.019,18.446 19.122,18.372 L17.366,15.939 C16.856,16.307 16.436,16.853 16.113,17.257 L18.457,19.129 Z M18.438,19.153 L18.438,19.153 L16.133,17.233 L16.133,17.233 L18.438,19.153 Z M18.506,19.065 L18.506,19.065 L16.065,17.321 L16.065,17.321 L18.506,19.065 Z M18.385,19.22 L18.457,19.129 L16.113,17.256 L16.041,17.347 L18.385,19.22 Z M17.984,19.72 L18.384,19.22 L16.042,17.346 L15.642,17.846 L17.984,19.72 Z M17.98,19.726 L17.984,19.721 L15.642,17.846 L15.638,17.851 L17.98,19.726 Z M13.893,19.953 C15.051,21.108 16.955,21.003 17.979,19.727 L15.639,17.849 C15.732,17.733 15.905,17.724 16.011,17.829 L13.893,19.953 Z M13.887,19.948 L13.891,19.952 L16.012,17.83 L16.008,17.826 L13.887,19.948 Z M13.882,19.942 L13.887,19.948 L16.007,17.825 L16.002,17.82 L13.882,19.942 Z M12.117,19.943 C12.605,19.457 13.395,19.457 13.883,19.943 L16.001,17.819 C14.342,16.165 11.658,16.165 9.999,17.819 L12.117,19.943 Z M12.113,19.948 L12.119,19.942 L9.998,17.82 L9.993,17.826 L12.113,19.948 Z M10.53,21.53 L12.113,19.947 L9.992,17.826 L8.409,19.409 L10.53,21.53 Z M10.53,20.47 C10.823,20.763 10.823,21.237 10.53,21.53 L8.409,19.409 C7.53,20.288 7.53,21.712 8.409,22.591 L10.53,20.47 Z M9.47,20.47 C9.763,20.177 10.237,20.177 10.53,20.47 L8.409,22.591 C9.288,23.47 10.712,23.47 11.591,22.591 L9.47,20.47 Z M11.053,18.887 L9.47,20.47 L11.591,22.591 L13.174,21.008 L11.053,18.887 Z M11.057,18.882 L11.053,18.886 L13.174,21.008 L13.178,21.004 L11.057,18.882 Z M14.942,18.881 C13.868,17.811 12.132,17.811 11.058,18.881 L13.177,21.006 C13.079,21.103 12.921,21.103 12.823,21.006 L14.942,18.881 Z M14.947,18.886 L14.943,18.882 L12.822,21.004 L12.826,21.008 L14.947,18.886 Z M14.953,18.892 L14.947,18.886 L12.826,21.008 L12.832,21.015 L14.953,18.892 Z M16.809,18.788 C16.344,19.368 15.478,19.416 14.952,18.891 L12.834,21.016 C14.624,22.8 17.566,22.637 19.149,20.666 L16.809,18.788 Z M16.813,18.783 L16.808,18.79 L19.15,20.665 L19.155,20.658 L16.813,18.783 Z M17.213,18.283 L16.813,18.783 L19.155,20.657 L19.555,20.157 L17.213,18.283 Z M18.244,17.155 C18.039,17.303 17.881,17.476 17.755,17.621 C17.622,17.775 17.448,17.989 17.213,18.283 L19.555,20.157 C19.797,19.855 19.934,19.687 20.022,19.586 C20.116,19.477 20.088,19.524 19.999,19.588 L18.244,17.155 Z M21.649,17.303 C20.685,16.471 19.276,16.41 18.244,17.155 L19.999,19.588 C19.905,19.656 19.777,19.65 19.69,19.575 L21.649,17.303 Z M22.579,18.516 C22.37,18.203 22.215,17.974 22.096,17.81 C21.984,17.654 21.841,17.468 21.649,17.303 L19.69,19.575 C19.607,19.503 19.583,19.454 19.668,19.571 C19.746,19.679 19.868,19.858 20.083,20.18 L22.579,18.516 Z M22.624,18.584 L22.579,18.516 L20.083,20.18 L20.128,20.248 L22.624,18.584 Z M21.584,18.376 C21.929,18.146 22.394,18.239 22.624,18.584 L20.128,20.248 C20.817,21.282 22.214,21.561 23.248,20.872 L21.584,18.376 Z M21.376,19.416 C21.146,19.071 21.239,18.606 21.584,18.376 L23.248,20.872 C24.282,20.183 24.561,18.786 23.872,17.752 L21.376,19.416 Z M21.331,19.348 L21.376,19.416 L23.872,17.752 L23.827,17.684 L21.331,19.348 Z M21.266,19.251 L21.33,19.348 L23.827,17.685 L23.763,17.588 L21.266,19.251 Z M20.67,18.439 C20.765,18.521 20.894,18.693 21.266,19.251 L23.763,17.589 C23.477,17.158 23.105,16.578 22.629,16.167 L20.67,18.439 Z M11.75,12.7 C11.75,12.175 12.175,11.75 12.7,11.75 L12.7,8.75 C10.518,8.75 8.75,10.518 8.75,12.7 L11.75,12.7 Z M11.75,13.3 L11.75,12.7 L8.75,12.7 L8.75,13.3 L11.75,13.3 Z M12.7,14.25 C12.175,14.25 11.75,13.825 11.75,13.3 L8.75,13.3 C8.75,15.482 10.518,17.25 12.7,17.25 L12.7,14.25 Z M13.3,14.25 L12.7,14.25 L12.7,17.25 L13.3,17.25 L13.3,14.25 Z M14.25,13.3 C14.25,13.825 13.825,14.25 13.3,14.25 L13.3,17.25 C15.482,17.25 17.25,15.482 17.25,13.3 L14.25,13.3 Z M14.25,12.7 L14.25,13.3 L17.25,13.3 L17.25,12.7 L14.25,12.7 Z M13.3,11.75 C13.825,11.75 14.25,12.175 14.25,12.7 L17.25,12.7 C17.25,10.518 15.482,8.75 13.3,8.75 L13.3,11.75 Z M12.7,11.75 L13.3,11.75 L13.3,8.75 L12.7,8.75 L12.7,11.75 Z M12.7,10.25 C11.347,10.25 10.25,11.347 10.25,12.7 L13.25,12.7 C13.25,13.004 13.004,13.25 12.7,13.25 L12.7,10.25 Z M13.3,10.25 L12.7,10.25 L12.7,13.25 L13.3,13.25 L13.3,10.25 Z M15.75,12.7 C15.75,11.347 14.653,10.25 13.3,10.25 L13.3,13.25 C12.996,13.25 12.75,13.004 12.75,12.7 L15.75,12.7 Z M15.75,13.3 L15.75,12.7 L12.75,12.7 L12.75,13.3 L15.75,13.3 Z M13.3,15.75 C14.653,15.75 15.75,14.653 15.75,13.3 L12.75,13.3 C12.75,12.996 12.996,12.75 13.3,12.75 L13.3,15.75 Z M12.7,15.75 L13.3,15.75 L13.3,12.75 L12.7,12.75 L12.7,15.75 Z M10.25,13.3 C10.25,14.653 11.347,15.75 12.7,15.75 L12.7,12.75 C13.004,12.75 13.25,12.996 13.25,13.3 L10.25,13.3 Z M10.25,12.7 L10.25,13.3 L13.25,13.3 L13.25,12.7 L10.25,12.7 Z"/>
  <path fill="#151E28" d="M18.633,6.25 C19.725,6.25 20.591,6.25 21.288,6.307 C22.002,6.365 22.605,6.487 23.156,6.768 C24.05,7.223 24.777,7.95 25.232,8.844 C25.513,9.395 25.635,9.998 25.693,10.712 C25.75,11.409 25.75,12.275 25.75,13.367 L25.75,18.633 C25.75,19.725 25.75,20.591 25.693,21.288 C25.635,22.002 25.513,22.605 25.232,23.156 C24.777,24.05 24.05,24.777 23.156,25.232 C22.605,25.513 22.002,25.635 21.288,25.693 C20.591,25.75 19.725,25.75 18.633,25.75 L13.367,25.75 C12.275,25.75 11.409,25.75 10.712,25.693 C9.998,25.635 9.395,25.513 8.844,25.232 C7.95,24.777 7.223,24.05 6.768,23.156 C6.487,22.605 6.365,22.002 6.307,21.288 C6.25,20.591 6.25,19.725 6.25,18.633 L6.25,13.367 C6.25,12.275 6.25,11.409 6.307,10.712 C6.365,9.998 6.487,9.395 6.768,8.844 C7.223,7.95 7.95,7.223 8.844,6.768 C9.395,6.487 9.998,6.365 10.712,6.307 C11.409,6.25 12.275,6.25 13.367,6.25 Z M21.166,7.802 C20.537,7.751 19.733,7.75 18.6,7.75 L13.4,7.75 C12.267,7.75 11.463,7.751 10.834,7.802 C10.213,7.853 9.829,7.949 9.525,8.104 C8.913,8.416 8.416,8.913 8.104,9.525 C7.949,9.829 7.853,10.213 7.802,10.834 C7.751,11.463 7.75,12.267 7.75,13.4 L7.75,18.6 C7.75,19.733 7.751,20.537 7.802,21.166 C7.853,21.787 7.949,22.171 8.104,22.476 C8.416,23.087 8.913,23.584 9.525,23.896 C9.829,24.051 10.213,24.147 10.834,24.198 C11.463,24.249 12.267,24.25 13.4,24.25 L18.6,24.25 C19.733,24.25 20.537,24.249 21.166,24.198 C21.787,24.147 22.171,24.051 22.476,23.896 C23.087,23.584 23.584,23.087 23.896,22.476 C24.051,22.171 24.147,21.787 24.198,21.166 C24.249,20.537 24.25,19.733 24.25,18.6 L24.25,13.4 C24.25,12.267 24.249,11.463 24.198,10.834 C24.147,10.213 24.051,9.829 23.896,9.525 C23.584,8.913 23.087,8.416 22.476,8.104 C22.171,7.949 21.787,7.853 21.166,7.802 Z M12.7,10.25 L13.3,10.25 C14.653,10.25 15.75,11.347 15.75,12.7 L15.75,13.3 C15.75,14.653 14.653,15.75 13.3,15.75 L12.7,15.75 C11.347,15.75 10.25,14.653 10.25,13.3 L10.25,12.7 C10.25,11.347 11.347,10.25 12.7,10.25 Z M21.649,17.303 C21.935,17.55 22.186,17.926 22.515,18.42 L22.579,18.516 L22.624,18.584 C22.854,18.929 22.761,19.394 22.416,19.624 C22.071,19.854 21.606,19.761 21.376,19.416 L21.331,19.348 C20.907,18.713 20.778,18.532 20.67,18.439 C20.231,18.061 19.591,18.033 19.122,18.372 C19.005,18.455 18.861,18.624 18.384,19.22 L17.984,19.72 L17.979,19.727 C16.955,21.003 15.051,21.108 13.893,19.953 L13.887,19.947 L13.883,19.943 C13.395,19.457 12.605,19.457 12.117,19.943 L12.113,19.947 L10.53,21.53 C10.237,21.823 9.763,21.823 9.47,21.53 C9.177,21.237 9.177,20.763 9.47,20.47 L11.053,18.887 L11.058,18.881 C12.132,17.811 13.868,17.811 14.942,18.881 L14.947,18.887 L14.952,18.891 C15.478,19.416 16.344,19.368 16.809,18.788 L16.813,18.783 L17.213,18.283 L17.285,18.193 L17.285,18.193 C17.656,17.729 17.938,17.376 18.244,17.155 C19.276,16.41 20.685,16.471 21.649,17.303 Z M11.75,12.7 L11.75,13.3 C11.75,13.825 12.175,14.25 12.7,14.25 L13.3,14.25 C13.825,14.25 14.25,13.825 14.25,13.3 L14.25,12.7 C14.25,12.175 13.825,11.75 13.3,11.75 L12.7,11.75 C12.175,11.75 11.75,12.175 11.75,12.7 Z"/>
</svg>

