<svg xmlns="http://www.w3.org/2000/svg" viewBox="0 0 32 32">
  <defs/>
  <path fill="white" d="M19.129,25 L12.871,25 C11.549,25 10.888,25 10.33,24.834 C9.225,24.506 8.315,23.717 7.834,22.67 C7.592,22.141 7.498,21.487 7.311,20.178 C7.296,20.073 7.282,19.977 7.27,19.889 C7.252,19.765 7.234,19.637 7.215,19.505 L7,18 L7.152,18 C7.168,17.696 7.202,17.392 7.252,17.092 C7.304,16.783 7.381,16.477 7.534,15.866 L8.894,10.424 C9.111,9.557 9.219,9.124 9.461,8.801 C9.674,8.517 9.959,8.294 10.287,8.156 C10.658,8 11.105,8 11.998,8 L20.001,8 C20.895,8 21.341,8 21.713,8.156 C22.041,8.294 22.326,8.517 22.539,8.801 C22.781,9.124 22.889,9.557 23.106,10.424 L24.466,15.866 C24.619,16.477 24.696,16.783 24.748,17.092 C24.798,17.392 24.832,17.696 24.848,18 L25,18 L24.785,19.505 C24.766,19.637 24.748,19.764 24.73,19.888 C24.718,19.977 24.704,20.073 24.689,20.178 L24.689,20.178 L24.689,20.178 C24.502,21.487 24.408,22.141 24.166,22.67 C23.955,23.128 23.663,23.537 23.308,23.879 C23.211,23.973 23.109,24.061 23.003,24.144 C22.611,24.453 22.159,24.689 21.67,24.834 C21.112,25 20.451,25 19.129,25 Z"/>
  <path fill="white" d="M11.998,7.25 L11.997,8.75 L11.998,8.75 L11.998,7.25 Z M11.861,7.25 L11.86,8.75 L11.86,8.75 L11.861,7.25 Z M20.001,7.25 L20.001,8.75 L20.002,8.75 L20.001,7.25 Z M20.139,7.25 L20.14,8.75 L20.14,8.75 L20.139,7.25 Z M22.003,7.465 L21.422,8.848 L21.422,8.848 L22.003,7.465 Z M23.14,8.352 L21.939,9.251 L21.939,9.251 L23.14,8.352 Z M23.8,10.109 L22.345,10.471 L22.345,10.472 L23.8,10.109 Z M23.834,10.242 L22.378,10.605 L22.378,10.606 L23.834,10.242 Z M25.194,15.684 L23.739,16.047 L23.739,16.047 L25.194,15.684 Z M25.202,15.717 L26.657,15.353 L26.657,15.353 L25.202,15.717 Z M25.202,15.717 L26.669,15.403 C26.665,15.386 26.662,15.37 26.657,15.353 L25.202,15.717 Z M25.202,15.717 L23.735,16.031 C23.739,16.048 23.743,16.064 23.747,16.081 L25.202,15.717 Z M25.487,16.967 L24.008,17.216 L24.008,17.216 L25.487,16.967 Z M25.591,18.977 L27.088,19.073 L27.088,19.073 L25.591,18.977 Z M25.436,20.25 L23.951,20.038 L23.951,20.038 L25.436,20.25 Z M25.431,20.284 L23.946,20.072 L23.946,20.072 L25.431,20.284 Z M25.412,20.416 L23.927,20.204 L23.927,20.204 L25.412,20.416 Z M24.847,22.983 L26.21,23.609 L26.21,23.609 L24.847,22.983 Z M21.883,25.553 L21.456,24.116 L21.456,24.116 L21.883,25.553 Z M19.262,25.75 L19.263,24.25 L19.262,24.25 L19.262,25.75 Z M19.262,25.75 L19.262,27.25 L19.262,27.25 L19.262,25.75 Z M19.129,25.75 L19.129,24.25 L19.129,24.25 L19.129,25.75 Z M12.871,25.75 L12.871,24.25 L12.87,24.25 L12.871,25.75 Z M12.737,25.75 L12.737,27.25 L12.738,27.25 L12.737,25.75 Z M12.737,25.75 L12.737,24.25 L12.737,24.25 L12.737,25.75 Z M10.117,25.553 L10.544,24.116 L10.544,24.116 L10.117,25.553 Z M7.153,22.983 L8.516,22.357 L8.516,22.357 L7.153,22.983 Z M6.587,20.416 L8.072,20.204 L8.072,20.204 L6.587,20.416 Z M6.569,20.284 L8.054,20.072 L8.054,20.072 L6.569,20.284 Z M6.564,20.25 L8.049,20.038 L8.049,20.038 L6.564,20.25 Z M6.409,18.977 L4.912,19.073 L4.912,19.073 L6.409,18.977 Z M6.513,16.967 L7.992,17.216 L7.992,17.216 L6.513,16.967 Z M6.798,15.717 L8.253,16.081 L8.253,16.081 L6.798,15.717 Z M6.806,15.684 L8.261,16.047 L8.261,16.047 L6.806,15.684 Z M8.166,10.242 L9.622,10.606 L9.622,10.605 L8.166,10.242 Z M8.2,10.109 L6.744,9.745 L6.744,9.746 L8.2,10.109 Z M8.2,10.109 L9.655,10.473 L9.655,10.471 L8.2,10.109 Z M8.86,8.352 L10.061,9.251 L10.061,9.251 L8.86,8.352 Z M9.996,7.465 L10.577,8.848 L10.577,8.848 L9.996,7.465 Z M10.577,8.848 L11.158,10.23 L11.158,10.23 L10.577,8.848 Z M10.061,9.251 L8.86,8.352 L8.86,8.352 L10.061,9.251 Z M9.622,10.606 L8.166,10.242 L8.166,10.242 L9.622,10.606 Z M8.261,16.047 L9.716,16.411 L9.716,16.411 L8.261,16.047 Z M7.992,17.216 L6.513,16.967 L6.512,16.971 L7.992,17.216 Z M7.986,17.25 L6.506,17.004 C6.434,17.439 6.557,17.884 6.842,18.22 C7.127,18.556 7.545,18.75 7.986,18.75 L7.986,17.25 Z M10.288,17.25 L10.288,18.75 L10.288,18.75 L10.288,17.25 Z M10.381,17.25 L10.382,18.75 L10.383,18.75 L10.381,17.25 Z M11.729,17.369 L12.165,15.933 L12.165,15.933 L11.729,17.369 Z M12.676,17.875 L13.628,16.717 L13.628,16.717 L12.676,17.875 Z M13.522,18.931 L12.274,19.762 L12.274,19.762 L13.522,18.931 Z M13.574,19.009 L12.326,19.84 L12.326,19.841 L13.574,19.009 Z M13.674,19.159 L14.922,18.327 L14.922,18.327 L13.674,19.159 Z M14.277,19.966 L13.324,21.125 L13.324,21.125 L14.277,19.966 Z M14.707,20.196 L15.143,18.761 L15.143,18.761 L14.707,20.196 Z M17.293,20.196 L16.857,18.761 L16.857,18.761 L17.293,20.196 Z M17.724,19.966 L18.676,21.125 L18.676,21.125 L17.724,19.966 Z M18.326,19.159 L19.574,19.991 L19.574,19.991 L18.326,19.159 Z M18.426,19.009 L19.674,19.841 L19.675,19.84 L18.426,19.009 Z M18.478,18.931 L17.418,17.87 C17.348,17.94 17.285,18.017 17.23,18.099 L18.478,18.931 Z M18.478,18.931 L19.539,19.991 C19.609,19.921 19.672,19.845 19.727,19.762 L18.478,18.931 Z M19.324,17.875 L18.372,16.717 L18.372,16.717 L19.324,17.875 Z M20.271,17.369 L19.836,15.933 L19.836,15.933 L20.271,17.369 Z M21.619,17.25 L21.618,18.75 L21.618,18.75 L21.619,17.25 Z M21.713,17.25 L21.712,18.75 L21.713,18.75 L21.713,17.25 Z M24.014,17.25 L24.014,18.75 C24.454,18.75 24.873,18.556 25.158,18.22 C25.443,17.884 25.566,17.439 25.493,17.004 L24.014,17.25 Z M24.008,17.216 L25.488,16.971 L25.487,16.967 L24.008,17.216 Z M23.739,16.047 L22.283,16.411 L22.283,16.411 L23.739,16.047 Z M22.378,10.606 L20.923,10.97 L20.923,10.97 L22.378,10.606 Z M21.939,9.251 L20.738,10.15 L20.738,10.15 L21.939,9.251 Z M21.422,8.848 L20.841,10.23 L20.841,10.23 L21.422,8.848 Z M7.899,18.75 L7.899,17.25 C7.489,17.25 7.097,17.418 6.814,17.714 C6.531,18.01 6.382,18.409 6.4,18.818 L7.899,18.75 Z M7.906,18.882 L6.409,18.977 L6.409,18.977 L7.906,18.882 Z M11.293,18.804 L10.857,20.239 L10.857,20.239 L11.293,18.804 Z M11.723,19.034 L12.676,17.875 L12.676,17.875 L11.723,19.034 Z M12.326,19.841 L11.078,20.673 L11.078,20.673 L12.326,19.841 Z M12.426,19.991 L13.675,19.16 L13.674,19.159 L12.426,19.991 Z M12.478,20.069 L13.727,19.238 L13.727,19.238 L12.478,20.069 Z M13.324,21.125 L12.372,22.283 L12.372,22.283 L13.324,21.125 Z M14.271,21.631 L13.836,23.067 L13.836,23.067 L14.271,21.631 Z M15.619,21.75 L15.618,20.25 L15.618,20.25 L15.619,21.75 Z M15.713,21.75 L15.713,20.25 L15.712,20.25 L15.713,21.75 Z M16.288,21.75 L16.288,20.25 L16.288,20.25 L16.288,21.75 Z M16.381,21.75 L16.383,20.25 L16.382,20.25 L16.381,21.75 Z M17.729,21.631 L18.165,23.067 L18.165,23.067 L17.729,21.631 Z M18.676,21.125 L19.628,22.283 L19.628,22.283 L18.676,21.125 Z M19.522,20.069 L18.274,19.238 L18.274,19.238 L19.522,20.069 Z M19.574,19.991 L18.326,19.159 L18.326,19.16 L19.574,19.991 Z M19.674,19.841 L18.426,19.009 L18.426,19.009 L19.674,19.841 Z M20.277,19.034 L19.324,17.875 L19.324,17.875 L20.277,19.034 Z M20.707,18.804 L21.143,20.239 L21.143,20.239 L20.707,18.804 Z M24.101,18.75 L25.6,18.818 C25.618,18.409 25.469,18.01 25.186,17.714 C24.903,17.418 24.511,17.25 24.101,17.25 L24.101,18.75 Z M24.094,18.882 L22.597,18.786 L22.597,18.786 L24.094,18.882 Z M23.946,20.072 L25.431,20.284 L25.431,20.284 L23.946,20.072 Z M23.484,22.357 L24.847,22.983 L24.847,22.983 L23.484,22.357 Z M21.456,24.116 L21.883,25.553 L21.883,25.553 L21.456,24.116 Z M10.544,24.116 L10.117,25.553 L10.117,25.553 L10.544,24.116 Z M8.516,22.357 L7.153,22.983 L7.153,22.983 L8.516,22.357 Z M8.054,20.072 L9.538,19.86 L9.538,19.86 L8.054,20.072 Z M11.999,5.75 L11.862,5.75 L11.86,8.75 L11.997,8.75 L11.999,5.75 Z M20.001,5.75 L11.998,5.75 L11.998,8.75 L20.001,8.75 L20.001,5.75 Z M20.138,5.75 L20,5.75 L20.002,8.75 L20.14,8.75 L20.138,5.75 Z M22.584,6.082 C21.734,5.725 20.805,5.749 20.137,5.75 L20.14,8.75 C20.987,8.749 21.244,8.773 21.422,8.848 L22.584,6.082 Z M24.34,7.453 C23.887,6.848 23.281,6.375 22.584,6.082 L21.422,8.848 C21.627,8.934 21.806,9.073 21.939,9.251 L24.34,7.453 Z M25.256,9.747 C25.095,9.098 24.893,8.191 24.34,7.453 L21.939,9.251 C22.055,9.406 22.14,9.649 22.345,10.471 L25.256,9.747 Z M25.289,9.879 L25.256,9.746 L22.345,10.472 L22.378,10.605 L25.289,9.879 Z M26.649,15.32 L25.289,9.878 L22.378,10.606 L23.739,16.047 L26.649,15.32 Z M26.657,15.353 L26.649,15.32 L23.739,16.047 L23.747,16.081 L26.657,15.353 Z M26.657,15.353 L26.657,15.353 L23.747,16.081 L23.747,16.081 L26.657,15.353 Z M26.669,15.403 L26.669,15.403 L23.735,16.031 L23.735,16.031 L26.669,15.403 Z M26.966,16.718 C26.898,16.31 26.798,15.915 26.657,15.353 L23.747,16.081 C23.897,16.68 23.963,16.949 24.008,17.216 L26.966,16.718 Z M27.088,19.073 C27.138,18.286 27.097,17.496 26.966,16.718 L24.008,17.216 C24.101,17.766 24.13,18.325 24.094,18.882 L27.088,19.073 Z M26.921,20.462 C27.003,19.889 27.061,19.486 27.088,19.073 L24.094,18.882 C24.077,19.152 24.038,19.427 23.951,20.038 L26.921,20.462 Z M26.916,20.496 L26.921,20.462 L23.951,20.038 L23.946,20.072 L26.916,20.496 Z M26.897,20.628 L26.916,20.496 L23.946,20.072 L23.927,20.204 L26.897,20.628 Z M26.21,23.609 C26.611,22.737 26.74,21.73 26.897,20.628 L23.927,20.204 C23.747,21.466 23.661,21.971 23.484,22.357 L26.21,23.609 Z M22.31,26.991 C24.037,26.479 25.458,25.246 26.21,23.609 L23.484,22.357 C23.093,23.208 22.354,23.849 21.456,24.116 L22.31,26.991 Z M19.262,27.25 C20.375,27.25 21.39,27.264 22.31,26.991 L21.456,24.116 C21.049,24.236 20.538,24.25 19.263,24.25 L19.262,27.25 Z M19.262,27.25 L19.262,27.25 L19.262,24.25 L19.262,24.25 L19.262,27.25 Z M19.129,27.25 L19.262,27.25 L19.263,24.25 L19.129,24.25 L19.129,27.25 Z M12.871,27.25 L19.129,27.25 L19.129,24.25 L12.871,24.25 L12.871,27.25 Z M12.738,27.25 L12.871,27.25 L12.87,24.25 L12.737,24.25 L12.738,27.25 Z M12.737,27.25 L12.737,27.25 L12.737,24.25 L12.737,24.25 L12.737,27.25 Z M9.69,26.991 C10.609,27.264 11.625,27.25 12.738,27.25 L12.737,24.25 C11.462,24.25 10.951,24.236 10.544,24.116 L9.69,26.991 Z M5.789,23.609 C6.541,25.246 7.963,26.479 9.69,26.991 L10.544,24.116 C9.646,23.849 8.907,23.208 8.516,22.357 L5.789,23.609 Z M5.102,20.628 C5.26,21.73 5.389,22.737 5.789,23.609 L8.516,22.357 C8.338,21.971 8.252,21.466 8.072,20.204 L5.102,20.628 Z M5.084,20.496 L5.102,20.628 L8.072,20.204 L8.054,20.072 L5.084,20.496 Z M5.079,20.462 L5.084,20.496 L8.054,20.072 L8.049,20.038 L5.079,20.462 Z M4.912,19.073 C4.938,19.486 4.997,19.889 5.079,20.462 L8.049,20.038 C7.961,19.427 7.923,19.152 7.906,18.882 L4.912,19.073 Z M5.033,16.718 C4.902,17.496 4.862,18.286 4.912,19.073 L7.906,18.882 C7.87,18.325 7.899,17.766 7.992,17.216 L5.033,16.718 Z M5.342,15.353 C5.202,15.915 5.102,16.31 5.033,16.718 L7.992,17.216 C8.037,16.949 8.103,16.68 8.253,16.081 L5.342,15.353 Z M5.351,15.32 L5.342,15.353 L8.253,16.081 L8.261,16.047 L5.351,15.32 Z M6.711,9.878 L5.351,15.32 L8.261,16.047 L9.622,10.606 L6.711,9.878 Z M6.744,9.746 L6.711,9.879 L9.622,10.605 L9.655,10.472 L6.744,9.746 Z M6.744,9.745 L6.744,9.745 L9.655,10.473 L9.655,10.473 L6.744,9.745 Z M7.659,7.453 C7.107,8.191 6.905,9.098 6.744,9.747 L9.655,10.471 C9.86,9.649 9.945,9.406 10.061,9.251 L7.659,7.453 Z M9.415,6.082 C8.719,6.375 8.112,6.848 7.659,7.453 L10.061,9.251 C10.194,9.073 10.372,8.934 10.577,8.848 L9.415,6.082 Z M11.863,5.75 C11.195,5.749 10.265,5.725 9.415,6.082 L10.577,8.848 C10.756,8.773 11.013,8.749 11.86,8.75 L11.863,5.75 Z M11.158,10.23 C11.038,10.281 10.964,10.273 11.101,10.264 C11.252,10.254 11.507,10.25 11.998,10.25 L11.998,7.25 C11.526,7.25 11.17,7.253 10.901,7.271 C10.617,7.29 10.315,7.331 9.996,7.465 L11.158,10.23 Z M11.262,10.15 C11.235,10.185 11.199,10.213 11.158,10.23 L9.996,7.465 C9.545,7.654 9.153,7.96 8.86,8.352 L11.262,10.15 Z M11.077,10.97 C11.196,10.493 11.262,10.247 11.308,10.102 C11.35,9.972 11.34,10.045 11.262,10.15 L8.86,8.352 C8.653,8.628 8.54,8.912 8.453,9.183 C8.37,9.439 8.281,9.784 8.166,10.242 L11.077,10.97 Z M9.716,16.411 L11.077,10.97 L8.166,10.242 L6.806,15.684 L9.716,16.411 Z M9.471,17.465 C9.505,17.264 9.555,17.056 9.716,16.411 L6.806,15.684 C6.656,16.284 6.571,16.623 6.513,16.967 L9.471,17.465 Z M9.466,17.496 L9.472,17.462 L6.512,16.971 L6.506,17.004 L9.466,17.496 Z M10.288,15.75 L7.986,15.75 L7.986,18.75 L10.288,18.75 L10.288,15.75 Z M10.381,15.75 L10.287,15.75 L10.288,18.75 L10.382,18.75 L10.381,15.75 Z M12.165,15.933 C11.517,15.737 10.857,15.75 10.38,15.75 L10.383,18.75 C10.974,18.75 11.155,18.762 11.293,18.804 L12.165,15.933 Z M13.628,16.717 C13.197,16.362 12.699,16.096 12.165,15.933 L11.293,18.804 C11.45,18.852 11.597,18.93 11.723,19.034 L13.628,16.717 Z M14.771,18.1 C14.507,17.703 14.152,17.147 13.628,16.717 L11.723,19.034 C11.835,19.126 11.946,19.269 12.274,19.762 L14.771,18.1 Z M14.823,18.177 L14.771,18.099 L12.274,19.762 L12.326,19.84 L14.823,18.177 Z M14.922,18.327 L14.822,18.177 L12.326,19.841 L12.426,19.991 L14.922,18.327 Z M15.229,18.807 C15.298,18.864 15.324,18.908 15.273,18.839 C15.211,18.756 15.113,18.613 14.922,18.327 L12.426,19.991 C12.74,20.462 12.986,20.846 13.324,21.125 L15.229,18.807 Z M15.143,18.761 C15.175,18.77 15.204,18.786 15.229,18.807 L13.324,21.125 C13.604,21.354 13.925,21.526 14.271,21.631 L15.143,18.761 Z M15.713,18.75 C15.369,18.75 15.195,18.748 15.093,18.742 C15.007,18.738 15.058,18.735 15.143,18.761 L14.271,21.631 C14.69,21.759 15.147,21.75 15.713,21.75 L15.713,18.75 Z M16.288,18.75 L15.713,18.75 L15.713,21.75 L16.288,21.75 L16.288,18.75 Z M16.857,18.761 C16.943,18.735 16.993,18.738 16.908,18.742 C16.805,18.748 16.631,18.75 16.288,18.75 L16.288,21.75 C16.853,21.75 17.31,21.759 17.729,21.631 L16.857,18.761 Z M16.771,18.807 C16.797,18.786 16.826,18.77 16.857,18.761 L17.729,21.631 C18.075,21.526 18.397,21.354 18.676,21.125 L16.771,18.807 Z M17.078,18.327 C16.887,18.613 16.789,18.756 16.728,18.839 C16.677,18.908 16.702,18.864 16.771,18.807 L18.676,21.125 C19.014,20.846 19.261,20.462 19.574,19.991 L17.078,18.327 Z M17.178,18.177 L17.078,18.327 L19.574,19.991 L19.674,19.841 L17.178,18.177 Z M17.23,18.099 L17.178,18.177 L19.675,19.84 L19.727,19.762 L17.23,18.099 Z M17.418,17.87 L17.418,17.87 L19.539,19.992 L19.539,19.991 L17.418,17.87 Z M18.372,16.717 C17.849,17.147 17.494,17.703 17.23,18.1 L19.727,19.762 C20.055,19.269 20.165,19.126 20.277,19.034 L18.372,16.717 Z M19.836,15.933 C19.301,16.096 18.804,16.362 18.372,16.717 L20.277,19.034 C20.404,18.93 20.55,18.852 20.707,18.804 L19.836,15.933 Z M21.62,15.75 C21.143,15.75 20.484,15.737 19.836,15.933 L20.707,18.804 C20.846,18.762 21.026,18.75 21.618,18.75 L21.62,15.75 Z M21.713,15.75 L21.62,15.75 L21.618,18.75 L21.712,18.75 L21.713,15.75 Z M24.014,15.75 L21.713,15.75 L21.713,18.75 L24.014,18.75 L24.014,15.75 Z M22.528,17.462 L22.534,17.496 L25.493,17.004 L25.488,16.971 L22.528,17.462 Z M22.283,16.411 C22.445,17.056 22.495,17.264 22.529,17.465 L25.487,16.967 C25.429,16.623 25.344,16.284 25.194,15.684 L22.283,16.411 Z M20.923,10.97 L22.283,16.411 L25.194,15.684 L23.834,10.242 L20.923,10.97 Z M20.738,10.15 C20.66,10.045 20.65,9.972 20.692,10.102 C20.738,10.247 20.804,10.493 20.923,10.97 L23.834,10.242 C23.719,9.784 23.63,9.439 23.547,9.183 C23.46,8.912 23.347,8.628 23.14,8.352 L20.738,10.15 Z M20.841,10.23 C20.8,10.213 20.765,10.185 20.738,10.15 L23.14,8.352 C22.846,7.96 22.454,7.654 22.003,7.465 L20.841,10.23 Z M20.001,10.25 C20.492,10.25 20.747,10.254 20.899,10.264 C21.035,10.273 20.962,10.281 20.841,10.23 L22.003,7.465 C21.685,7.331 21.382,7.29 21.098,7.271 C20.83,7.253 20.473,7.25 20.001,7.25 L20.001,10.25 Z M11.998,10.25 L20.001,10.25 L20.001,7.25 L11.998,7.25 L11.998,10.25 Z M6.4,18.818 C6.403,18.871 6.405,18.924 6.409,18.977 L9.403,18.786 C9.401,18.751 9.399,18.717 9.397,18.682 L6.4,18.818 Z M10.288,17.25 L7.899,17.25 L7.899,20.25 L10.288,20.25 L10.288,17.25 Z M11.729,17.369 C11.31,17.241 10.853,17.25 10.288,17.25 L10.288,20.25 C10.632,20.25 10.805,20.252 10.908,20.258 C10.993,20.262 10.943,20.265 10.857,20.239 L11.729,17.369 Z M12.676,17.875 C12.397,17.646 12.075,17.474 11.729,17.369 L10.857,20.239 C10.826,20.23 10.796,20.214 10.771,20.193 L12.676,17.875 Z M13.574,19.009 C13.261,18.538 13.014,18.154 12.676,17.875 L10.771,20.193 C10.702,20.136 10.677,20.092 10.728,20.161 C10.789,20.244 10.887,20.387 11.078,20.673 L13.574,19.009 Z M13.674,19.159 L13.574,19.009 L11.078,20.673 L11.178,20.823 L13.674,19.159 Z M13.727,19.238 L13.675,19.16 L11.178,20.823 L11.23,20.901 L13.727,19.238 Z M14.277,19.966 C14.165,19.874 14.055,19.731 13.727,19.238 L11.229,20.9 C11.494,21.297 11.849,21.853 12.372,22.283 L14.277,19.966 Z M14.707,20.196 C14.55,20.148 14.404,20.07 14.277,19.966 L12.372,22.283 C12.804,22.638 13.301,22.904 13.836,23.067 L14.707,20.196 Z M15.618,20.25 C15.026,20.25 14.846,20.238 14.707,20.196 L13.836,23.067 C14.484,23.263 15.143,23.25 15.62,23.25 L15.618,20.25 Z M15.712,20.25 L15.618,20.25 L15.62,23.25 L15.713,23.25 L15.712,20.25 Z M16.288,20.25 L15.713,20.25 L15.713,23.25 L16.288,23.25 L16.288,20.25 Z M16.382,20.25 L16.288,20.25 L16.287,23.25 L16.381,23.25 L16.382,20.25 Z M17.293,20.196 C17.155,20.238 16.974,20.25 16.383,20.25 L16.38,23.25 C16.857,23.25 17.517,23.263 18.165,23.067 L17.293,20.196 Z M17.724,19.966 C17.597,20.07 17.45,20.148 17.293,20.196 L18.165,23.067 C18.699,22.904 19.197,22.638 19.628,22.283 L17.724,19.966 Z M18.274,19.238 C17.946,19.731 17.835,19.874 17.724,19.966 L19.628,22.283 C20.152,21.853 20.507,21.297 20.771,20.9 L18.274,19.238 Z M18.326,19.16 L18.274,19.238 L20.771,20.901 L20.823,20.823 L18.326,19.16 Z M18.426,19.009 L18.326,19.159 L20.822,20.823 L20.922,20.673 L18.426,19.009 Z M19.324,17.875 C18.986,18.154 18.74,18.538 18.426,19.009 L20.922,20.673 C21.113,20.387 21.211,20.244 21.273,20.161 C21.324,20.092 21.298,20.136 21.229,20.193 L19.324,17.875 Z M20.271,17.369 C19.925,17.474 19.604,17.646 19.324,17.875 L21.229,20.193 C21.204,20.214 21.175,20.23 21.143,20.239 L20.271,17.369 Z M21.713,17.25 C21.147,17.25 20.69,17.241 20.271,17.369 L21.143,20.239 C21.058,20.265 21.007,20.262 21.093,20.258 C21.195,20.252 21.369,20.25 21.713,20.25 L21.713,17.25 Z M24.101,17.25 L21.713,17.25 L21.713,20.25 L24.101,20.25 L24.101,17.25 Z M25.591,18.977 C25.594,18.924 25.597,18.871 25.6,18.818 L22.603,18.682 C22.601,18.717 22.599,18.751 22.597,18.786 L25.591,18.977 Z M25.431,20.284 C25.519,19.672 25.569,19.326 25.591,18.977 L22.597,18.786 C22.584,18.99 22.555,19.202 22.461,19.86 L25.431,20.284 Z M24.847,22.983 C25.147,22.329 25.252,21.536 25.431,20.284 L22.461,19.86 C22.252,21.326 22.193,21.574 22.121,21.73 L24.847,22.983 Z M21.883,25.553 C23.195,25.164 24.276,24.227 24.847,22.983 L22.121,21.73 C21.91,22.189 21.512,22.534 21.029,22.678 L21.883,25.553 Z M19.129,25.75 C20.394,25.75 21.194,25.758 21.883,25.553 L21.029,22.678 C20.864,22.727 20.61,22.75 19.129,22.75 L19.129,25.75 Z M12.871,25.75 L19.129,25.75 L19.129,22.75 L12.871,22.75 L12.871,25.75 Z M10.117,25.553 C10.806,25.758 11.606,25.75 12.871,25.75 L12.871,22.75 C11.389,22.75 11.136,22.727 10.971,22.678 L10.117,25.553 Z M7.153,22.983 C7.724,24.227 8.804,25.164 10.117,25.553 L10.971,22.678 C10.487,22.534 10.089,22.189 9.879,21.73 L7.153,22.983 Z M6.569,20.284 C6.747,21.536 6.853,22.329 7.153,22.983 L9.879,21.73 C9.807,21.574 9.748,21.326 9.538,19.86 L6.569,20.284 Z M6.409,18.977 C6.431,19.326 6.481,19.672 6.569,20.284 L9.538,19.86 C9.444,19.202 9.416,18.99 9.403,18.786 L6.409,18.977 Z M14.75,11 C14.75,11.414 14.414,11.75 14,11.75 L14,8.75 C12.757,8.75 11.75,9.757 11.75,11 L14.75,11 Z M14,10.25 C14.414,10.25 14.75,10.586 14.75,11 L11.75,11 C11.75,12.243 12.757,13.25 14,13.25 L14,10.25 Z M18,10.25 L14,10.25 L14,13.25 L18,13.25 L18,10.25 Z M17.25,11 C17.25,10.586 17.586,10.25 18,10.25 L18,13.25 C19.243,13.25 20.25,12.243 20.25,11 L17.25,11 Z M18,11.75 C17.586,11.75 17.25,11.414 17.25,11 L20.25,11 C20.25,9.757 19.243,8.75 18,8.75 L18,11.75 Z M14,11.75 L18,11.75 L18,8.75 L14,8.75 L14,11.75 Z M12.75,14 C12.75,14.414 12.414,14.75 12,14.75 L12,11.75 C10.757,11.75 9.75,12.757 9.75,14 L12.75,14 Z M12,13.25 C12.414,13.25 12.75,13.586 12.75,14 L9.75,14 C9.75,15.243 10.757,16.25 12,16.25 L12,13.25 Z M20,13.25 L12,13.25 L12,16.25 L20,16.25 L20,13.25 Z M19.25,14 C19.25,13.586 19.586,13.25 20,13.25 L20,16.25 C21.243,16.25 22.25,15.243 22.25,14 L19.25,14 Z M20,14.75 C19.586,14.75 19.25,14.414 19.25,14 L22.25,14 C22.25,12.757 21.243,11.75 20,11.75 L20,14.75 Z M12,14.75 L20,14.75 L20,11.75 L12,11.75 L12,14.75 Z"/>
  <path fill="#151E28" d="M11.861,7.25 L11.998,7.25 L20.001,7.25 L20.139,7.25 C20.896,7.249 21.489,7.249 22.003,7.465 C22.454,7.654 22.847,7.96 23.14,8.352 C23.474,8.798 23.617,9.374 23.8,10.109 L23.833,10.242 L25.194,15.684 L25.202,15.717 L25.202,15.717 C25.347,16.297 25.43,16.629 25.487,16.967 C25.599,17.631 25.634,18.306 25.591,18.977 C25.569,19.319 25.521,19.658 25.436,20.25 L25.431,20.284 L25.412,20.416 C25.244,21.598 25.136,22.354 24.847,22.983 C24.276,24.227 23.195,25.164 21.883,25.553 C21.22,25.75 20.456,25.75 19.263,25.75 L12.737,25.75 C11.544,25.75 10.78,25.75 10.117,25.553 C8.804,25.164 7.724,24.227 7.153,22.983 C6.864,22.354 6.756,21.598 6.587,20.416 L6.569,20.284 L6.564,20.25 C6.479,19.658 6.431,19.319 6.409,18.977 C6.366,18.306 6.401,17.631 6.513,16.967 C6.569,16.629 6.653,16.297 6.798,15.717 L6.806,15.684 L8.166,10.242 L8.2,10.109 C8.382,9.374 8.526,8.798 8.86,8.352 C9.153,7.96 9.545,7.654 9.996,7.465 C10.511,7.249 11.104,7.249 11.861,7.25 Z M11.998,8.75 C11.035,8.75 10.776,8.764 10.577,8.848 C10.372,8.934 10.194,9.073 10.061,9.251 C9.932,9.423 9.855,9.672 9.622,10.606 L8.261,16.047 C8.105,16.67 8.038,16.943 7.992,17.216 L7.986,17.25 L10.381,17.25 C10.916,17.25 11.336,17.249 11.729,17.369 C12.075,17.474 12.397,17.646 12.676,17.875 C12.993,18.136 13.226,18.486 13.522,18.931 L13.574,19.009 L13.674,19.159 C14.047,19.719 14.154,19.865 14.277,19.966 C14.404,20.07 14.55,20.148 14.707,20.196 C14.86,20.242 15.04,20.25 15.713,20.25 L16.288,20.25 C16.96,20.25 17.141,20.242 17.293,20.196 C17.45,20.148 17.597,20.07 17.723,19.966 C17.847,19.865 17.953,19.719 18.326,19.159 L18.426,19.009 L18.478,18.931 C18.774,18.486 19.007,18.136 19.324,17.875 C19.604,17.646 19.926,17.474 20.271,17.369 C20.665,17.249 21.085,17.25 21.619,17.25 L24.014,17.25 L24.008,17.216 C23.962,16.943 23.894,16.67 23.739,16.047 L22.378,10.606 C22.145,9.672 22.068,9.423 21.939,9.251 C21.806,9.073 21.627,8.934 21.423,8.848 C21.224,8.764 20.964,8.75 20.001,8.75 Z M7.906,18.882 C7.923,19.158 7.963,19.437 8.054,20.072 C8.248,21.431 8.33,21.952 8.516,22.357 C8.907,23.208 9.646,23.849 10.544,24.115 C10.971,24.242 11.498,24.25 12.871,24.25 L19.129,24.25 C20.502,24.25 21.029,24.242 21.456,24.115 C22.354,23.849 23.093,23.208 23.484,22.357 C23.67,21.952 23.752,21.431 23.946,20.072 C24.037,19.437 24.076,19.158 24.094,18.882 C24.097,18.838 24.099,18.794 24.101,18.75 L21.713,18.75 C21.04,18.75 20.86,18.758 20.707,18.804 C20.55,18.852 20.404,18.93 20.277,19.034 C20.154,19.135 20.048,19.281 19.674,19.841 L19.574,19.991 L19.522,20.069 C19.226,20.514 18.993,20.864 18.676,21.125 C18.397,21.354 18.075,21.526 17.729,21.631 C17.336,21.751 16.916,21.75 16.382,21.75 L16.381,21.75 L16.288,21.75 L15.713,21.75 L15.619,21.75 L15.618,21.75 C15.084,21.75 14.664,21.751 14.271,21.631 C13.925,21.526 13.604,21.354 13.324,21.125 C13.007,20.864 12.774,20.514 12.478,20.069 L12.426,19.991 L12.326,19.841 C11.953,19.281 11.847,19.135 11.724,19.034 C11.597,18.93 11.45,18.852 11.293,18.804 C11.141,18.758 10.96,18.75 10.288,18.75 L7.899,18.75 C7.901,18.794 7.903,18.838 7.906,18.882 Z M12,13.25 L20,13.25 C20.414,13.25 20.75,13.586 20.75,14 C20.75,14.414 20.414,14.75 20,14.75 L12,14.75 C11.586,14.75 11.25,14.414 11.25,14 C11.25,13.586 11.586,13.25 12,13.25 Z M14,10.25 L18,10.25 C18.414,10.25 18.75,10.586 18.75,11 C18.75,11.414 18.414,11.75 18,11.75 L14,11.75 C13.586,11.75 13.25,11.414 13.25,11 C13.25,10.586 13.586,10.25 14,10.25 Z"/>
</svg>

