<svg xmlns="http://www.w3.org/2000/svg" viewBox="0 0 32 32">
  <defs/>
  <path fill="white" d="M22.364,22.364 C25.488,19.24 25.488,14.174 22.364,11.05 L19.536,8.222 C17.193,5.879 12.76,6.512 9.636,9.636 C6.512,12.76 5.879,17.192 8.222,19.535 L11.05,22.364 C14.175,25.488 19.24,25.488 22.364,22.364 Z"/>
  <path fill="white" d="M7.621,14.985 L9.106,15.197 L9.106,15.197 L7.621,14.985 Z M8.752,19.005 L7.692,20.066 L7.692,20.066 L8.752,19.005 Z M10.167,10.166 L11.227,11.227 L11.227,11.227 L10.167,10.166 Z M14.985,7.621 L15.197,9.106 L15.197,9.106 L14.985,7.621 Z M19.006,8.752 L20.066,7.691 L20.066,7.691 L19.006,8.752 Z M20.137,12.773 L21.621,12.985 L21.621,12.985 L20.137,12.773 Z M17.591,17.591 L16.531,16.53 L16.531,16.53 L17.591,17.591 Z M12.773,20.136 L12.985,21.621 L12.985,21.621 L12.773,20.136 Z M8.754,19.006 L7.693,20.067 L7.693,20.067 L8.754,19.006 Z M7.692,20.066 L6.631,21.127 L6.631,21.127 L7.692,20.066 Z M7.694,20.068 L8.755,19.007 L8.754,19.007 L7.694,20.068 Z M6.136,14.773 L7.621,14.985 L7.621,14.985 L6.136,14.773 Z M9.106,9.106 L8.045,8.045 L8.045,8.045 L9.106,9.106 Z M14.773,6.136 L14.561,4.651 L14.561,4.651 L14.773,6.136 Z M20.066,7.691 L21.127,6.631 L21.127,6.631 L20.066,7.691 Z M22.895,10.52 L21.834,11.581 L21.834,11.581 L22.895,10.52 Z M10.52,22.894 L9.46,23.955 L9.46,23.955 L10.52,22.894 Z M11.581,21.834 L10.52,22.894 L10.52,22.894 L11.581,21.834 Z M11.432,21.685 L11.53,20.188 C10.906,20.148 10.323,20.497 10.066,21.066 C9.808,21.635 9.93,22.304 10.371,22.746 L11.432,21.685 Z M21.834,11.581 L22.895,10.52 L22.895,10.52 L21.834,11.581 Z M21.685,11.432 L22.746,10.371 C22.304,9.93 21.635,9.808 21.066,10.066 C20.498,10.323 20.148,10.906 20.188,11.529 L21.685,11.432 Z M21.621,12.985 L23.106,13.197 L23.106,13.197 L21.621,12.985 Z M12.985,21.621 L13.197,23.106 L13.197,23.106 L12.985,21.621 Z M11.934,10.873 L12.995,9.813 L12.995,9.813 L11.934,10.873 Z M10.874,10.873 L9.813,9.813 L9.813,9.813 L10.874,10.873 Z M12.642,11.581 L11.581,12.641 L11.581,12.641 L12.642,11.581 Z M12.642,12.641 L11.581,11.581 L11.581,11.581 L12.642,12.641 Z M11.581,12.641 L12.642,11.581 L12.642,11.581 L11.581,12.641 Z M10.874,11.934 L9.813,12.995 L9.813,12.995 L10.874,11.934 Z M17.591,10.166 L16.531,11.227 L16.531,11.227 L17.591,10.166 Z M16.531,10.166 L17.591,11.227 L17.591,11.227 L16.531,10.166 Z M15.823,10.873 L14.763,9.813 L14.763,9.813 L15.823,10.873 Z M15.823,11.934 L14.763,12.995 L14.763,12.995 L15.823,11.934 Z M11.934,16.884 L12.995,17.945 L12.995,17.945 L11.934,16.884 Z M10.167,16.53 L9.106,15.47 L9.106,15.47 L10.167,16.53 Z M10.167,17.591 L9.106,18.652 L9.106,18.652 L10.167,17.591 Z M11.227,17.591 L10.167,16.53 L10.167,16.53 L11.227,17.591 Z M6.136,14.773 C5.855,16.741 6.317,18.691 7.692,20.066 L9.813,17.945 C9.254,17.385 8.926,16.459 9.106,15.197 L6.136,14.773 Z M9.106,9.106 C7.44,10.771 6.417,12.806 6.136,14.773 L9.106,15.197 C9.287,13.932 9.976,12.478 11.227,11.227 L9.106,9.106 Z M14.773,6.136 C12.806,6.417 10.772,7.44 9.106,9.106 L11.227,11.227 C12.478,9.976 13.932,9.287 15.197,9.106 L14.773,6.136 Z M20.066,7.691 C18.691,6.316 16.742,5.855 14.773,6.136 L15.197,9.106 C16.46,8.926 17.385,9.253 17.945,9.813 L20.066,7.691 Z M21.621,12.985 C21.903,11.016 21.441,9.066 20.066,7.691 L17.945,9.813 C18.504,10.372 18.832,11.298 18.652,12.56 L21.621,12.985 Z M18.652,18.652 C20.318,16.986 21.34,14.952 21.621,12.985 L18.652,12.56 C18.471,13.825 17.782,15.279 16.531,16.53 L18.652,18.652 Z M12.985,21.621 C14.952,21.34 16.986,20.317 18.652,18.652 L16.531,16.53 C15.28,17.781 13.826,18.471 12.561,18.651 L12.985,21.621 Z M7.693,20.067 C9.068,21.441 11.017,21.902 12.985,21.621 L12.561,18.651 C11.299,18.832 10.373,18.504 9.814,17.945 L7.693,20.067 Z M7.692,20.066 L7.693,20.067 L9.814,17.946 L9.813,17.944 L7.692,20.066 Z M6.631,21.127 L6.634,21.129 L8.754,19.007 L8.752,19.005 L6.631,21.127 Z M4.652,14.56 C4.32,16.878 4.846,19.341 6.631,21.127 L8.752,19.005 C7.786,18.039 7.39,16.602 7.621,14.985 L4.652,14.56 Z M8.045,8.045 C6.172,9.918 4.983,12.242 4.652,14.56 L7.621,14.985 C7.852,13.369 8.708,11.625 10.167,10.166 L8.045,8.045 Z M14.561,4.651 C12.243,4.982 9.918,6.172 8.045,8.045 L10.167,10.166 C11.625,8.708 13.369,7.852 14.985,7.621 L14.561,4.651 Z M21.127,6.631 C19.341,4.846 16.878,4.32 14.561,4.651 L14.985,7.621 C16.602,7.39 18.039,7.786 19.006,8.752 L21.127,6.631 Z M23.955,9.459 L21.127,6.631 L19.006,8.752 L21.834,11.581 L23.955,9.459 Z M23.955,23.955 C27.958,19.952 27.958,13.462 23.955,9.459 L21.834,11.581 C24.665,14.412 24.665,19.002 21.834,21.834 L23.955,23.955 Z M9.46,23.955 C13.462,27.958 19.952,27.958 23.955,23.955 L21.834,21.834 C19.003,24.665 14.412,24.665 11.581,21.834 L9.46,23.955 Z M6.633,21.129 L9.46,23.955 L11.581,21.834 L8.755,19.007 L6.633,21.129 Z M12.642,20.773 L12.493,20.624 L10.371,22.746 L10.52,22.894 L12.642,20.773 Z M20.773,20.773 C18.528,23.018 14.887,23.018 12.642,20.773 L10.52,22.894 C13.937,26.311 19.477,26.311 22.895,22.894 L20.773,20.773 Z M20.773,12.641 C23.019,14.887 23.019,18.527 20.773,20.773 L22.895,22.894 C26.312,19.477 26.312,13.937 22.895,10.52 L20.773,12.641 Z M20.625,12.492 L20.773,12.641 L22.895,10.52 L22.746,10.371 L20.625,12.492 Z M23.106,13.197 C23.195,12.578 23.222,11.953 23.182,11.334 L20.188,11.529 C20.214,11.929 20.197,12.347 20.137,12.773 L23.106,13.197 Z M19.713,19.712 C21.586,17.839 22.775,15.515 23.106,13.197 L20.137,12.773 C19.906,14.389 19.05,16.133 17.591,17.591 L19.713,19.712 Z M13.197,23.106 C15.515,22.775 17.84,21.585 19.713,19.712 L17.591,17.591 C16.133,19.049 14.389,19.905 12.773,20.136 L13.197,23.106 Z M11.335,23.182 C11.954,23.222 12.579,23.194 13.197,23.106 L12.773,20.136 C12.347,20.197 11.93,20.214 11.53,20.188 L11.335,23.182 Z M12.995,9.813 C12.116,8.934 10.692,8.934 9.813,9.813 L11.934,11.934 C11.642,12.227 11.167,12.227 10.874,11.934 L12.995,9.813 Z M13.702,10.52 L12.995,9.813 L10.874,11.934 L11.581,12.641 L13.702,10.52 Z M13.702,13.702 C14.581,12.823 14.581,11.399 13.702,10.52 L11.581,12.641 C11.288,12.348 11.288,11.873 11.581,11.581 L13.702,13.702 Z M10.52,13.702 C11.399,14.581 12.823,14.581 13.702,13.702 L11.581,11.581 C11.874,11.288 12.349,11.288 12.642,11.581 L10.52,13.702 Z M9.813,12.995 L10.52,13.702 L12.642,11.581 L11.934,10.873 L9.813,12.995 Z M9.813,9.813 C8.934,10.691 8.934,12.116 9.813,12.995 L11.934,10.873 C12.227,11.166 12.227,11.641 11.934,11.934 L9.813,9.813 Z M17.238,14.056 C16.359,13.177 14.934,13.177 14.056,14.056 L16.177,16.177 C15.884,16.47 15.409,16.47 15.116,16.177 L17.238,14.056 Z M17.945,14.763 L17.238,14.056 L15.116,16.177 L15.823,16.884 L17.945,14.763 Z M17.945,17.945 C18.823,17.066 18.823,15.641 17.945,14.763 L15.823,16.884 C15.531,16.591 15.531,16.116 15.823,15.823 L17.945,17.945 Z M14.763,17.945 C15.642,18.823 17.066,18.823 17.945,17.945 L15.823,15.823 C16.116,15.53 16.591,15.53 16.884,15.823 L14.763,17.945 Z M14.056,17.237 L14.763,17.945 L16.884,15.823 L16.177,15.116 L14.056,17.237 Z M14.056,14.056 C13.177,14.934 13.177,16.359 14.056,17.237 L16.177,15.116 C16.47,15.409 16.47,15.884 16.177,16.177 L14.056,14.056 Z M16.531,11.227 C16.238,10.934 16.238,10.459 16.531,10.166 L18.652,12.288 C19.531,11.409 19.531,9.984 18.652,9.106 L16.531,11.227 Z M17.591,11.227 C17.298,11.52 16.823,11.52 16.531,11.227 L18.652,9.106 C17.773,8.227 16.349,8.227 15.47,9.106 L17.591,11.227 Z M16.884,11.934 L17.591,11.227 L15.47,9.106 L14.763,9.813 L16.884,11.934 Z M16.884,10.873 C17.177,11.166 17.177,11.641 16.884,11.934 L14.763,9.813 C13.884,10.691 13.884,12.116 14.763,12.995 L16.884,10.873 Z M15.823,10.873 C16.116,10.581 16.591,10.581 16.884,10.873 L14.763,12.995 C15.642,13.873 17.066,13.873 17.945,12.995 L15.823,10.873 Z M16.531,10.166 L15.823,10.873 L17.945,12.995 L18.652,12.288 L16.531,10.166 Z M10.874,16.884 C10.581,16.591 10.581,16.116 10.874,15.823 L12.995,17.945 C13.874,17.066 13.874,15.641 12.995,14.763 L10.874,16.884 Z M11.934,16.884 C11.642,17.177 11.167,17.177 10.874,16.884 L12.995,14.763 C12.116,13.884 10.692,13.884 9.813,14.763 L11.934,16.884 Z M11.227,17.591 L11.934,16.884 L9.813,14.763 L9.106,15.47 L11.227,17.591 Z M11.227,16.53 C11.52,16.823 11.52,17.298 11.227,17.591 L9.106,15.47 C8.227,16.348 8.227,17.773 9.106,18.652 L11.227,16.53 Z M10.167,16.53 C10.46,16.237 10.934,16.237 11.227,16.53 L9.106,18.652 C9.985,19.53 11.409,19.53 12.288,18.652 L10.167,16.53 Z M10.874,15.823 L10.167,16.53 L12.288,18.652 L12.995,17.945 L10.874,15.823 Z"/>
  <path fill="#151E28" d="M7.694,20.068 L7.692,20.066 C6.316,18.69 5.855,16.74 6.136,14.773 C6.417,12.806 7.44,10.771 9.106,9.106 C10.772,7.44 12.806,6.417 14.773,6.136 C16.74,5.855 18.69,6.316 20.066,7.691 L22.895,10.52 C26.312,13.937 26.312,19.477 22.895,22.894 C19.478,26.311 13.937,26.311 10.52,22.894 Z M8.752,19.005 L8.754,19.006 C9.721,19.973 11.158,20.367 12.773,20.136 C14.389,19.905 16.133,19.049 17.591,17.591 C19.05,16.132 19.906,14.389 20.136,12.773 C20.367,11.157 19.973,9.719 19.006,8.752 C18.038,7.785 16.601,7.39 14.985,7.621 C13.369,7.852 11.625,8.708 10.167,10.166 C8.708,11.625 7.852,13.369 7.621,14.985 C7.391,16.6 7.785,18.038 8.752,19.005 Z M11.432,21.685 L11.581,21.834 C14.412,24.665 19.003,24.665 21.834,21.834 C24.665,19.002 24.665,14.412 21.834,11.581 L21.685,11.432 C21.718,11.941 21.696,12.462 21.621,12.985 C21.34,14.952 20.318,16.986 18.652,18.652 C16.986,20.317 14.952,21.34 12.985,21.621 C12.463,21.696 11.942,21.718 11.432,21.685 Z M11.934,16.884 L11.227,17.591 C10.934,17.884 10.46,17.884 10.167,17.591 C9.874,17.298 9.874,16.823 10.167,16.53 L10.874,15.823 C11.167,15.53 11.642,15.53 11.934,15.823 C12.227,16.116 12.227,16.591 11.934,16.884 Z M15.116,15.116 C15.409,14.823 15.884,14.823 16.177,15.116 L16.884,15.823 C17.177,16.116 17.177,16.591 16.884,16.884 C16.591,17.177 16.116,17.177 15.823,16.884 L15.116,16.177 C14.823,15.884 14.823,15.409 15.116,15.116 Z M17.591,11.227 L16.884,11.934 C16.591,12.227 16.116,12.227 15.823,11.934 C15.531,11.641 15.531,11.166 15.823,10.873 L16.531,10.166 C16.823,9.873 17.298,9.873 17.591,10.166 C17.884,10.459 17.884,10.934 17.591,11.227 Z M10.874,10.873 C11.167,10.581 11.642,10.581 11.934,10.873 L12.642,11.581 C12.934,11.873 12.934,12.348 12.642,12.641 C12.349,12.934 11.874,12.934 11.581,12.641 L10.874,11.934 C10.581,11.641 10.581,11.166 10.874,10.873 Z"/>
</svg>

