<svg xmlns="http://www.w3.org/2000/svg" viewBox="0 0 32 32">
  <defs/>
  <path fill="white" d="M25,13.399 C25,11.159 25,10.039 24.564,9.184 C24.18,8.431 23.569,7.819 22.816,7.435 C21.96,7 20.84,7 18.6,7 L13.4,7 C11.16,7 10.04,7 9.184,7.435 C8.431,7.819 7.819,8.431 7.436,9.184 C7,10.039 7,11.159 7,13.399 L7,18.599 C7,20.84 7,21.96 7.436,22.816 C7.819,23.568 8.431,24.18 9.184,24.564 C10.04,25 11.16,25 13.4,25 L18.6,25 C20.84,25 21.96,25 22.816,24.564 C23.569,24.18 24.18,23.568 24.564,22.816 C25,21.96 25,20.84 25,18.599 L25,13.399 Z"/>
  <path fill="white" d="M18.6,6.25 L18.6,7.75 L18.6,7.75 L18.6,6.25 Z M18.633,6.25 L18.633,7.75 L18.633,7.75 L18.633,6.25 Z M13.4,6.25 L13.4,7.75 L13.4,7.75 L13.4,6.25 Z M13.367,6.25 L13.367,7.75 L13.367,7.75 L13.367,6.25 Z M10.712,6.306 L10.834,7.801 L10.834,7.801 L10.712,6.306 Z M8.844,6.767 L9.525,8.104 L9.525,8.104 L8.844,6.767 Z M6.768,8.843 L8.104,9.524 L8.104,9.524 L6.768,8.843 Z M6.307,10.711 L4.812,10.589 L4.812,10.589 L6.307,10.711 Z M6.25,13.367 L7.75,13.367 L7.75,13.367 L6.25,13.367 Z M6.25,18.633 L7.75,18.633 L7.75,18.633 L6.25,18.633 Z M6.307,21.288 L4.812,21.41 L4.812,21.41 L6.307,21.288 Z M6.768,23.156 L8.104,22.475 L8.104,22.475 L6.768,23.156 Z M8.844,25.232 L9.525,23.895 L9.525,23.895 L8.844,25.232 Z M10.712,25.692 L10.59,27.188 L10.59,27.188 L10.712,25.692 Z M13.367,25.75 L13.367,24.25 L13.367,24.25 L13.367,25.75 Z M13.4,25.75 L13.4,27.25 L13.4,25.75 Z M18.6,25.75 L18.6,24.25 L18.6,25.75 Z M18.633,25.75 L18.633,24.25 L18.633,24.25 L18.633,25.75 Z M21.288,25.692 L21.411,27.188 L21.411,27.188 L21.288,25.692 Z M23.157,25.232 L22.476,23.895 L22.476,23.895 L23.157,25.232 Z M25.233,23.156 L23.896,22.475 L23.896,22.475 L25.233,23.156 Z M25.693,21.288 L24.198,21.166 L24.198,21.166 L25.693,21.288 Z M25.75,18.633 L24.25,18.633 L24.25,18.633 L25.75,18.633 Z M25.75,18.599 L24.25,18.599 L24.25,18.599 L25.75,18.599 Z M25.75,13.399 L24.25,13.399 L24.25,13.399 L25.75,13.399 Z M25.75,13.367 L24.25,13.367 L24.25,13.367 L25.75,13.367 Z M25.693,10.711 L24.198,10.833 L25.693,10.711 Z M25.233,8.843 L23.896,9.524 L23.896,9.524 L25.233,8.843 Z M23.157,6.767 L22.476,8.104 L22.476,8.104 L23.157,6.767 Z M21.288,6.306 L21.166,7.801 L21.166,7.801 L21.288,6.306 Z M22.476,8.104 L21.795,9.44 L21.795,9.44 L22.476,8.104 Z M21.166,7.801 L21.044,9.297 L21.044,9.297 L21.166,7.801 Z M23.896,9.524 L22.559,10.205 L22.559,10.205 L23.896,9.524 Z M24.198,10.833 L22.703,10.956 L24.198,10.833 Z M24.25,13.399 L25.75,13.399 L24.25,13.399 Z M24.25,18.599 L22.75,18.599 L24.25,18.599 Z M24.198,21.166 L25.693,21.288 L25.693,21.288 L24.198,21.166 Z M23.896,22.475 L25.233,23.156 L25.233,23.156 L23.896,22.475 Z M22.476,23.895 L23.157,25.232 L23.157,25.232 L22.476,23.895 Z M21.166,24.198 L21.288,25.692 L21.288,25.692 L21.166,24.198 Z M18.6,24.25 L18.6,22.75 L18.6,24.25 Z M13.4,24.25 L13.4,25.75 L13.4,24.25 Z M10.834,24.198 L10.712,25.692 L10.712,25.692 L10.834,24.198 Z M9.525,23.895 L8.844,25.232 L8.844,25.232 L9.525,23.895 Z M8.104,22.475 L6.768,23.156 L6.768,23.156 L8.104,22.475 Z M7.802,21.166 L6.307,21.288 L6.307,21.288 L7.802,21.166 Z M7.75,18.599 L6.25,18.599 L7.75,18.599 Z M7.75,13.399 L9.25,13.399 L7.75,13.399 Z M7.802,10.833 L6.307,10.711 L6.307,10.711 L7.802,10.833 Z M8.104,9.524 L6.768,8.843 L6.768,8.843 L8.104,9.524 Z M9.525,8.104 L8.844,6.767 L8.844,6.767 L9.525,8.104 Z M10.834,7.801 L10.956,9.297 L10.834,7.801 Z M13.4,7.75 L13.4,9.249 L13.4,7.75 Z M18.6,7.75 L18.6,6.25 L18.6,7.75 Z M18.6,7.75 L18.633,7.75 L18.633,4.75 L18.6,4.75 L18.6,7.75 Z M13.4,7.75 L18.6,7.75 L18.6,4.75 L13.4,4.75 L13.4,7.75 Z M13.367,7.75 L13.4,7.75 L13.4,4.75 L13.367,4.75 L13.367,7.75 Z M10.834,7.801 C11.457,7.751 12.252,7.749 13.367,7.75 L13.367,4.75 C12.298,4.749 11.362,4.748 10.59,4.811 L10.834,7.801 Z M9.525,8.104 C9.829,7.949 10.214,7.852 10.834,7.801 L10.59,4.811 C9.783,4.877 8.961,5.024 8.163,5.431 L9.525,8.104 Z M8.104,9.524 C8.416,8.912 8.913,8.415 9.525,8.104 L8.163,5.431 C6.987,6.03 6.031,6.986 5.431,8.162 L8.104,9.524 Z M7.802,10.833 C7.853,10.213 7.949,9.829 8.104,9.524 L5.431,8.162 C5.025,8.96 4.878,9.783 4.812,10.589 L7.802,10.833 Z M7.75,13.367 C7.75,12.251 7.751,11.456 7.802,10.833 L4.812,10.589 C4.749,11.362 4.75,12.298 4.75,13.367 L7.75,13.367 Z M7.75,13.399 L7.75,13.367 L4.75,13.367 L4.75,13.399 L7.75,13.399 Z M7.75,18.599 L7.75,13.399 L4.75,13.399 L4.75,18.599 L7.75,18.599 Z M7.75,18.633 L7.75,18.599 L4.75,18.599 L4.75,18.633 L7.75,18.633 Z M7.802,21.166 C7.751,20.543 7.75,19.748 7.75,18.633 L4.75,18.633 C4.75,19.701 4.749,20.637 4.812,21.41 L7.802,21.166 Z M8.104,22.475 C7.949,22.17 7.853,21.786 7.802,21.166 L4.812,21.41 C4.878,22.216 5.025,23.039 5.431,23.837 L8.104,22.475 Z M9.525,23.895 C8.913,23.584 8.416,23.087 8.104,22.475 L5.431,23.837 C6.031,25.013 6.987,25.969 8.163,26.568 L9.525,23.895 Z M10.834,24.198 C10.214,24.147 9.829,24.05 9.525,23.895 L8.163,26.568 C8.961,26.975 9.783,27.122 10.59,27.188 L10.834,24.198 Z M13.367,24.25 C12.252,24.25 11.457,24.248 10.834,24.198 L10.59,27.188 C11.362,27.251 12.298,27.25 13.367,27.25 L13.367,24.25 Z M13.4,24.25 L13.367,24.25 L13.367,27.25 L13.4,27.25 L13.4,24.25 Z M18.6,24.25 L13.4,24.25 L13.4,27.25 L18.6,27.25 L18.6,24.25 Z M18.633,24.25 L18.6,24.25 L18.6,27.25 L18.633,27.25 L18.633,24.25 Z M21.166,24.198 C20.544,24.248 19.749,24.25 18.633,24.25 L18.633,27.25 C19.702,27.25 20.638,27.251 21.411,27.188 L21.166,24.198 Z M22.476,23.895 C22.171,24.05 21.787,24.147 21.166,24.198 L21.411,27.188 C22.217,27.122 23.04,26.975 23.838,26.568 L22.476,23.895 Z M23.896,22.475 C23.584,23.087 23.087,23.584 22.476,23.895 L23.838,26.568 C25.014,25.969 25.97,25.013 26.569,23.837 L23.896,22.475 Z M24.198,21.166 C24.148,21.786 24.051,22.17 23.896,22.475 L26.569,23.837 C26.976,23.039 27.122,22.216 27.188,21.41 L24.198,21.166 Z M24.25,18.633 C24.25,19.748 24.249,20.543 24.198,21.166 L27.188,21.41 C27.251,20.637 27.25,19.701 27.25,18.633 L24.25,18.633 Z M24.25,18.599 L24.25,18.633 L27.25,18.633 L27.25,18.599 L24.25,18.599 Z M24.25,13.399 L24.25,18.599 L27.25,18.599 L27.25,13.399 L24.25,13.399 Z M24.25,13.367 L24.25,13.399 L27.25,13.399 L27.25,13.367 L24.25,13.367 Z M24.198,10.833 C24.249,11.456 24.25,12.251 24.25,13.367 L27.25,13.367 C27.25,12.298 27.251,11.362 27.188,10.589 L24.198,10.833 Z M23.896,9.524 C24.051,9.829 24.148,10.213 24.198,10.833 L27.188,10.589 C27.122,9.783 26.976,8.96 26.569,8.162 L23.896,9.524 Z M22.476,8.104 C23.087,8.415 23.584,8.912 23.896,9.524 L26.569,8.162 C25.97,6.986 25.014,6.03 23.838,5.431 L22.476,8.104 Z M21.166,7.801 C21.787,7.852 22.171,7.949 22.476,8.104 L23.838,5.431 C23.04,5.024 22.217,4.877 21.411,4.811 L21.166,7.801 Z M18.633,7.75 C19.749,7.749 20.544,7.751 21.166,7.801 L21.411,4.811 C20.638,4.748 19.702,4.749 18.633,4.75 L18.633,7.75 Z M23.157,6.767 C22.605,6.486 22.002,6.365 21.288,6.306 L21.044,9.297 C21.572,9.34 21.737,9.411 21.795,9.44 L23.157,6.767 Z M25.233,8.843 C24.777,7.949 24.05,7.223 23.157,6.767 L21.795,9.44 C22.124,9.608 22.392,9.876 22.559,10.205 L25.233,8.843 Z M25.693,10.711 C25.635,9.998 25.514,9.394 25.233,8.843 L22.559,10.205 C22.589,10.263 22.66,10.427 22.703,10.956 L25.693,10.711 Z M25.75,13.399 C25.75,12.292 25.751,11.416 25.693,10.711 L22.703,10.956 C22.748,11.51 22.75,12.242 22.75,13.399 L25.75,13.399 Z M25.75,18.599 L25.75,13.399 L22.75,13.399 L22.75,18.599 L25.75,18.599 Z M25.693,21.288 C25.751,20.583 25.75,19.707 25.75,18.599 L22.75,18.599 C22.75,19.757 22.748,20.489 22.703,21.044 L25.693,21.288 Z M25.233,23.156 C25.514,22.605 25.635,22.001 25.693,21.288 L22.703,21.044 C22.66,21.572 22.589,21.736 22.559,21.794 L25.233,23.156 Z M23.157,25.232 C24.05,24.776 24.777,24.05 25.233,23.156 L22.559,21.794 C22.392,22.123 22.124,22.391 21.795,22.559 L23.157,25.232 Z M21.288,25.692 C22.002,25.634 22.605,25.513 23.157,25.232 L21.795,22.559 C21.737,22.588 21.572,22.659 21.044,22.703 L21.288,25.692 Z M18.6,25.75 C19.708,25.75 20.584,25.75 21.288,25.692 L21.044,22.703 C20.49,22.748 19.758,22.75 18.6,22.75 L18.6,25.75 Z M13.4,25.75 L18.6,25.75 L18.6,22.75 L13.4,22.75 L13.4,25.75 Z M10.712,25.692 C11.417,25.75 12.293,25.75 13.4,25.75 L13.4,22.75 C12.243,22.75 11.51,22.748 10.956,22.703 L10.712,25.692 Z M8.844,25.232 C9.395,25.513 9.999,25.634 10.712,25.692 L10.956,22.703 C10.428,22.659 10.263,22.588 10.206,22.559 L8.844,25.232 Z M6.768,23.156 C7.223,24.05 7.95,24.776 8.844,25.232 L10.206,22.559 C9.876,22.391 9.609,22.123 9.441,21.794 L6.768,23.156 Z M6.307,21.288 C6.365,22.001 6.487,22.605 6.768,23.156 L9.441,21.794 C9.412,21.736 9.34,21.572 9.297,21.044 L6.307,21.288 Z M6.25,18.599 C6.25,19.707 6.25,20.583 6.307,21.288 L9.297,21.044 C9.252,20.489 9.25,19.757 9.25,18.599 L6.25,18.599 Z M6.25,13.399 L6.25,18.599 L9.25,18.599 L9.25,13.399 L6.25,13.399 Z M6.307,10.711 C6.25,11.416 6.25,12.292 6.25,13.399 L9.25,13.399 C9.25,12.242 9.252,11.51 9.297,10.956 L6.307,10.711 Z M6.768,8.843 C6.487,9.394 6.365,9.998 6.307,10.711 L9.297,10.956 C9.34,10.427 9.412,10.263 9.441,10.205 L6.768,8.843 Z M8.844,6.767 C7.95,7.223 7.223,7.949 6.768,8.843 L9.441,10.205 C9.609,9.876 9.876,9.608 10.206,9.44 L8.844,6.767 Z M10.712,6.306 C9.999,6.365 9.395,6.486 8.844,6.767 L10.206,9.44 C10.263,9.411 10.428,9.34 10.956,9.297 L10.712,6.306 Z M13.4,6.25 C12.293,6.25 11.417,6.249 10.712,6.306 L10.956,9.297 C11.51,9.251 12.243,9.249 13.4,9.249 L13.4,6.25 Z M18.6,6.25 L13.4,6.25 L13.4,9.249 L18.6,9.249 L18.6,6.25 Z M21.288,6.306 C20.584,6.249 19.708,6.25 18.6,6.25 L18.6,9.249 C19.758,9.249 20.49,9.251 21.044,9.297 L21.288,6.306 Z"/>
  <path fill="#151E28" d="M18.6,6.249 L18.633,6.249 C19.725,6.249 20.591,6.249 21.288,6.306 C22.002,6.365 22.605,6.486 23.157,6.767 C24.051,7.223 24.777,7.949 25.233,8.843 C25.513,9.394 25.635,9.998 25.693,10.711 C25.743,11.326 25.75,12.072 25.75,12.988 L25.75,19.012 C25.749,19.928 25.743,20.673 25.693,21.288 C25.635,22.001 25.513,22.605 25.233,23.156 C24.777,24.05 24.051,24.776 23.157,25.232 C22.605,25.513 22.002,25.634 21.288,25.692 C20.678,25.742 19.938,25.749 19.03,25.749 C19.02,25.75 19.01,25.75 19,25.75 C18.99,25.75 18.981,25.75 18.971,25.749 L18.633,25.75 L13.367,25.75 L13.029,25.749 Q13.015,25.75 13,25.75 C12.99,25.75 12.98,25.75 12.97,25.749 C12.062,25.749 11.323,25.742 10.712,25.692 C9.999,25.634 9.395,25.513 8.844,25.232 C7.95,24.776 7.223,24.05 6.768,23.156 C6.487,22.605 6.366,22.001 6.307,21.288 C6.257,20.673 6.251,19.928 6.25,19.012 L6.25,19 L6.25,18.989 L6.25,18.632 L6.25,13.366 C6.25,13.245 6.25,13.127 6.25,13.011 L6.25,13 L6.25,12.988 C6.251,12.072 6.257,11.326 6.307,10.711 C6.366,9.998 6.487,9.394 6.768,8.843 C7.223,7.949 7.95,7.223 8.844,6.767 C9.395,6.486 9.999,6.365 10.712,6.306 C11.41,6.249 12.275,6.249 13.367,6.249 L18.6,6.249 Z M18.25,12.25 L18.25,7.749 L13.75,7.749 L13.75,12.25 Z M13.75,13.75 L13.75,18.25 L18.25,18.25 L18.25,13.75 Z M19.75,13.75 L19.75,18.25 L24.25,18.25 L24.25,13.75 Z M7.75,13.75 L7.75,18.25 L12.25,18.25 L12.25,13.75 Z M13.75,24.25 L18.25,24.25 L18.25,19.75 L13.75,19.75 Z M24.247,12.25 C24.243,11.685 24.23,11.225 24.198,10.833 C24.147,10.213 24.051,9.828 23.896,9.524 C23.584,8.913 23.087,8.415 22.476,8.104 C22.171,7.949 21.787,7.852 21.166,7.801 C20.774,7.769 20.315,7.757 19.75,7.752 L19.75,12.25 Z M12.25,12.25 L12.25,7.752 C11.686,7.757 11.226,7.769 10.834,7.801 C10.214,7.852 9.829,7.949 9.525,8.104 C8.913,8.415 8.416,8.913 8.104,9.524 C7.949,9.828 7.853,10.213 7.802,10.833 C7.77,11.225 7.758,11.685 7.753,12.25 Z M19.75,24.247 C20.315,24.242 20.774,24.229 21.166,24.198 C21.787,24.147 22.171,24.05 22.476,23.895 C23.087,23.584 23.584,23.087 23.896,22.475 C24.051,22.17 24.147,21.786 24.198,21.166 C24.23,20.774 24.243,20.314 24.247,19.75 L19.75,19.75 Z M7.802,21.166 C7.853,21.786 7.949,22.17 8.104,22.475 C8.416,23.087 8.913,23.584 9.525,23.895 C9.829,24.05 10.214,24.147 10.834,24.198 C11.226,24.229 11.686,24.242 12.25,24.247 L12.25,19.75 L7.753,19.75 C7.758,20.314 7.77,20.774 7.802,21.166 Z"/>
</svg>

