<svg xmlns="http://www.w3.org/2000/svg" viewBox="0 0 32 32">
  <defs/>
  <path fill="white" d="M24.939,9.652 C22.277,8.887 14.909,7.059 11.398,9.086 C8.818,10.575 7.693,12.454 7.628,14.462 C7.598,15.364 7.967,16.217 8.419,16.999 L10.056,19.834 C10.507,20.615 11.061,21.362 11.857,21.787 C13.629,22.735 15.819,22.7 18.398,21.21 C21.85,19.217 24.582,13.246 25.549,10.906 C25.764,10.384 25.482,9.808 24.939,9.652 Z"/>
  <path fill="white" d="M24.854,10.47 L23.505,11.126 L23.505,11.126 L24.854,10.47 Z M24.732,10.372 L24.319,11.814 L24.319,11.814 L24.732,10.372 Z M24.855,10.62 L26.242,11.192 L26.242,11.192 L24.855,10.62 Z M22.264,15.799 L20.982,15.02 L20.982,15.02 L22.264,15.799 Z M18.023,20.561 L17.273,19.262 L17.273,19.262 L18.023,20.561 Z M14.152,21.67 L14.071,23.168 L14.071,23.168 L14.152,21.67 Z M11.226,20.445 L12.203,19.308 L12.203,19.308 L11.226,20.445 Z M10.168,20.526 L9.03,19.548 L9.03,19.548 L10.168,20.526 Z M10.248,21.583 L9.271,22.721 L9.271,22.721 L10.248,21.583 Z M14.071,23.168 L13.991,24.666 L13.991,24.666 L14.071,23.168 Z M18.773,21.86 L18.023,20.561 L18.023,20.561 L18.773,21.86 Z M23.547,16.577 L22.264,15.799 L22.264,15.799 L23.547,16.577 Z M26.242,11.192 L27.628,11.765 L27.628,11.765 L26.242,11.192 Z M25.146,8.931 L25.56,7.489 L25.56,7.489 L25.146,8.931 Z M18.572,7.577 L18.401,9.067 L18.401,9.067 L18.572,7.577 Z M14.558,7.464 L14.434,5.969 L14.434,5.969 L14.558,7.464 Z M11.023,8.436 L11.773,9.735 L11.773,9.735 L11.023,8.436 Z M7.539,11.854 L8.877,12.533 L8.877,12.533 L7.539,11.854 Z M7,15.957 L5.526,16.234 L5.526,16.234 L7,15.957 Z M7.876,16.555 L7.598,15.081 L7.598,15.081 L7.876,16.555 Z M8.474,15.679 L7,15.957 L7,15.957 L8.474,15.679 Z M8.877,12.533 L10.214,13.213 L10.214,13.213 L8.877,12.533 Z M11.773,9.735 L11.023,8.436 L11.023,8.436 L11.773,9.735 Z M14.682,8.959 L14.558,7.464 L14.558,7.464 L14.682,8.959 Z M18.401,9.067 L18.231,10.557 L18.231,10.557 L18.401,9.067 Z M19.237,12.711 L19.712,14.134 L19.712,14.134 L19.237,12.711 Z M18.762,11.289 L19.237,12.711 L19.237,12.711 L18.762,11.289 Z M14.635,12.665 L15.11,14.088 L15.11,14.088 L14.635,12.665 Z M10.993,14.647 L10.056,13.475 L10.056,13.475 L10.993,14.647 Z M7.251,22.431 L8.751,22.431 L8.751,22.431 L7.251,22.431 Z M7.251,25 L5.751,25 L5.751,25 L7.251,25 Z M8.001,25.75 L8.001,27.25 L8.001,25.75 Z M8.751,25 L10.251,25 L10.251,25 L8.751,25 Z M8.751,22.431 L7.251,22.431 L7.251,22.431 L8.751,22.431 Z M11.93,15.818 L10.993,14.647 L10.993,14.647 L11.93,15.818 Z M15.11,14.088 L14.635,12.665 L14.635,12.665 L15.11,14.088 Z M26.203,9.813 C25.999,9.395 25.624,9.068 25.146,8.931 L24.319,11.814 C23.967,11.713 23.669,11.462 23.505,11.126 L26.203,9.813 Z M26.242,11.192 C26.432,10.731 26.407,10.233 26.203,9.813 L23.505,11.126 C23.43,10.972 23.379,10.79 23.372,10.589 C23.365,10.388 23.404,10.203 23.469,10.047 L26.242,11.192 Z M23.547,16.577 C24.81,14.497 25.751,12.38 26.242,11.192 L23.469,10.047 C23.008,11.164 22.134,13.124 20.982,15.02 L23.547,16.577 Z M18.773,21.86 C20.671,20.764 22.299,18.632 23.547,16.577 L20.982,15.02 C19.785,16.992 18.483,18.563 17.273,19.262 L18.773,21.86 Z M14.071,23.168 C15.528,23.246 17.103,22.824 18.773,21.86 L17.273,19.262 C15.977,20.01 14.976,20.212 14.232,20.172 L14.071,23.168 Z M10.248,21.583 C11.326,22.509 12.607,23.089 14.071,23.168 L14.232,20.172 C13.508,20.133 12.843,19.857 12.203,19.308 L10.248,21.583 Z M11.306,21.503 C11.036,21.817 10.562,21.853 10.248,21.583 L12.203,19.308 C11.26,18.498 9.84,18.606 9.03,19.548 L11.306,21.503 Z M11.226,20.445 C11.54,20.715 11.576,21.189 11.306,21.503 L9.03,19.548 C8.221,20.491 8.328,21.911 9.271,22.721 L11.226,20.445 Z M14.152,21.67 C13.058,21.611 12.085,21.183 11.226,20.445 L9.271,22.721 C10.568,23.835 12.156,24.567 13.991,24.666 L14.152,21.67 Z M18.023,20.561 C16.54,21.417 15.252,21.729 14.152,21.67 L13.991,24.666 C15.805,24.763 17.666,24.231 19.523,23.159 L18.023,20.561 Z M22.264,15.799 C21.042,17.812 19.577,19.663 18.023,20.561 L19.523,23.159 C21.765,21.864 23.555,19.454 24.829,17.356 L22.264,15.799 Z M24.855,10.62 C24.38,11.772 23.472,13.81 22.264,15.799 L24.829,17.356 C26.148,15.183 27.123,12.988 27.628,11.765 L24.855,10.62 Z M24.733,10.372 C24.795,10.39 24.833,10.428 24.854,10.47 C24.874,10.512 24.88,10.56 24.855,10.62 L27.628,11.765 C28.362,9.987 27.378,8.011 25.56,7.489 L24.733,10.372 Z M18.401,9.067 C20.956,9.359 23.419,9.995 24.733,10.372 L25.56,7.489 C24.176,7.091 21.534,6.406 18.743,6.086 L18.401,9.067 Z M14.682,8.959 C15.843,8.863 17.124,8.921 18.401,9.067 L18.743,6.086 C17.346,5.927 15.856,5.851 14.434,5.969 L14.682,8.959 Z M11.773,9.735 C12.518,9.305 13.514,9.056 14.682,8.959 L14.434,5.969 C13.034,6.085 11.549,6.401 10.273,7.137 L11.773,9.735 Z M8.877,12.533 C9.376,11.551 10.29,10.592 11.773,9.735 L10.273,7.137 C8.416,8.209 7.025,9.555 6.202,11.175 L8.877,12.533 Z M8.474,15.679 C8.265,14.566 8.38,13.51 8.877,12.533 L6.202,11.175 C5.37,12.812 5.21,14.554 5.526,16.234 L8.474,15.679 Z M7.598,15.081 C8.005,15.004 8.397,15.272 8.474,15.679 L5.526,16.234 C5.756,17.456 6.932,18.259 8.153,18.029 L7.598,15.081 Z M7,15.957 C6.923,15.55 7.191,15.158 7.598,15.081 L8.153,18.029 C9.374,17.799 10.178,16.623 9.948,15.402 L7,15.957 Z M7.539,11.854 C6.875,13.161 6.737,14.56 7,15.957 L9.948,15.402 C9.792,14.573 9.886,13.859 10.214,13.213 L7.539,11.854 Z M11.023,8.436 C9.353,9.4 8.2,10.553 7.539,11.854 L10.214,13.213 C10.551,12.548 11.227,11.783 12.523,11.034 L11.023,8.436 Z M14.558,7.464 C13.274,7.571 12.033,7.853 11.023,8.436 L12.523,11.034 C13.002,10.757 13.754,10.541 14.806,10.454 L14.558,7.464 Z M18.572,7.577 C17.235,7.424 15.85,7.357 14.558,7.464 L14.806,10.454 C15.837,10.368 17.013,10.418 18.231,10.557 L18.572,7.577 Z M25.146,8.931 C23.797,8.543 21.245,7.883 18.572,7.577 L18.231,10.557 C20.667,10.836 23.04,11.447 24.319,11.814 L25.146,8.931 Z M18.288,12.237 C18.157,11.844 18.37,11.42 18.762,11.289 L19.712,14.134 C20.89,13.741 21.527,12.467 21.134,11.288 L18.288,12.237 Z M19.237,12.711 C18.844,12.842 18.419,12.63 18.288,12.237 L21.134,11.288 C20.741,10.11 19.467,9.472 18.288,9.866 L19.237,12.711 Z M15.11,14.088 L19.237,12.711 L18.288,9.866 L14.161,11.242 L15.11,14.088 Z M11.93,15.818 C12.879,15.058 13.956,14.473 15.11,14.088 L14.161,11.242 C12.671,11.738 11.281,12.495 10.056,13.475 L11.93,15.818 Z M8.751,22.431 C8.751,19.858 9.921,17.425 11.93,15.818 L10.056,13.475 C7.335,15.652 5.751,18.947 5.751,22.431 L8.751,22.431 Z M8.751,25 L8.751,22.431 L5.751,22.431 L5.751,25 L8.751,25 Z M8.001,24.25 C8.416,24.25 8.751,24.586 8.751,25 L5.751,25 C5.751,26.243 6.759,27.25 8.001,27.25 L8.001,24.25 Z M7.251,25 C7.251,24.586 7.587,24.25 8.001,24.25 L8.001,27.25 C9.244,27.25 10.251,26.243 10.251,25 L7.251,25 Z M7.251,22.431 L7.251,25 L10.251,25 L10.251,22.431 L7.251,22.431 Z M10.993,14.647 C8.628,16.538 7.251,19.402 7.251,22.431 L10.251,22.431 C10.251,20.314 11.214,18.312 12.867,16.989 L10.993,14.647 Z M14.635,12.665 C13.314,13.105 12.08,13.776 10.993,14.647 L12.867,16.989 C13.678,16.34 14.598,15.839 15.584,15.511 L14.635,12.665 Z M18.762,11.289 L14.635,12.665 L15.584,15.511 L19.712,14.134 L18.762,11.289 Z"/>
  <path fill="#151E28" d="M24.732,10.372 C23.419,9.995 20.956,9.359 18.401,9.067 C17.124,8.921 15.843,8.863 14.682,8.959 C13.514,9.056 12.518,9.305 11.773,9.735 C10.29,10.592 9.376,11.551 8.877,12.533 C8.38,13.51 8.265,14.567 8.474,15.679 C8.551,16.086 8.283,16.479 7.876,16.555 C7.469,16.632 7.077,16.364 7,15.957 C6.737,14.56 6.875,13.161 7.539,11.854 C8.2,10.553 9.353,9.4 11.023,8.436 C12.033,7.853 13.274,7.571 14.558,7.464 C15.85,7.357 17.235,7.424 18.572,7.577 C21.245,7.883 23.798,8.543 25.146,8.931 C26.114,9.209 26.63,10.252 26.242,11.192 C25.751,12.38 24.81,14.497 23.546,16.577 C22.298,18.633 20.671,20.764 18.773,21.86 C17.103,22.824 15.528,23.246 14.071,23.168 C12.607,23.089 11.326,22.509 10.248,21.583 C9.934,21.313 9.898,20.84 10.168,20.526 C10.438,20.211 10.911,20.175 11.226,20.445 C12.085,21.183 13.058,21.611 14.151,21.67 C15.252,21.729 16.54,21.417 18.023,20.56 C19.577,19.663 21.042,17.812 22.264,15.799 C23.472,13.81 24.38,11.772 24.855,10.62 C24.879,10.562 24.874,10.511 24.854,10.47 C24.834,10.428 24.795,10.391 24.732,10.372 Z M19.237,12.712 L15.11,14.088 C13.956,14.472 12.879,15.058 11.93,15.818 C9.921,17.425 8.751,19.858 8.751,22.431 L8.751,25 C8.751,25.414 8.416,25.75 8.001,25.75 C7.587,25.75 7.251,25.414 7.251,25 L7.251,22.431 C7.251,19.403 8.628,16.538 10.993,14.647 C12.08,13.776 13.314,13.105 14.635,12.665 L18.763,11.288 C19.155,11.158 19.58,11.37 19.711,11.763 C19.842,12.156 19.63,12.58 19.237,12.712 Z"/>
</svg>

