<svg xmlns="http://www.w3.org/2000/svg" viewBox="0 0 32 32">
  <defs/>
  <path fill="white" d="M22.038,8.418 L8.501,13.253 C7.512,13.606 7.018,13.782 6.834,14.077 C6.673,14.334 6.638,14.65 6.737,14.935 C6.852,15.264 7.294,15.546 8.18,16.109 L13.198,19.303 L16.392,24.321 C16.955,25.207 17.237,25.649 17.566,25.764 C17.851,25.863 18.167,25.828 18.424,25.667 C18.719,25.483 18.895,24.989 19.248,24 L24.083,10.463 C24.446,9.447 24.627,8.939 24.512,8.606 C24.412,8.317 24.184,8.089 23.895,7.989 C23.562,7.874 23.054,8.055 22.038,8.418 Z"/>
  <path fill="white" d="M8.249,12.546 L8.753,13.959 L8.753,13.959 L8.249,12.546 Z M8.215,12.558 L8.72,13.971 L8.72,13.971 L8.215,12.558 Z M21.786,7.712 L22.29,9.124 L22.29,9.124 L21.786,7.712 Z M21.819,7.7 L22.324,9.112 L22.324,9.112 L21.819,7.7 Z M23.035,7.298 L22.661,5.846 L22.661,5.846 L23.035,7.298 Z M24.141,7.281 L24.633,5.863 L24.633,5.863 L24.141,7.281 Z M25.221,8.36 L26.638,7.868 L26.638,7.868 L25.221,8.36 Z M25.203,9.466 L23.751,9.091 L23.751,9.091 L25.203,9.466 Z M24.801,10.682 L26.214,11.186 L26.214,11.186 L24.801,10.682 Z M24.789,10.715 L23.377,10.211 L23.377,10.211 L24.789,10.715 Z M19.955,24.253 L18.542,23.748 L18.542,23.748 L19.955,24.253 Z M19.943,24.286 L21.355,24.79 L21.355,24.79 L19.943,24.286 Z M19.495,25.451 L20.856,26.081 L20.856,26.081 L19.495,25.451 Z M18.821,26.304 L19.615,27.576 L19.615,27.576 L18.821,26.304 Z M17.319,26.472 L17.812,25.055 L17.812,25.055 L17.319,26.472 Z M16.473,25.79 L15.286,26.707 L15.286,26.707 L16.473,25.79 Z M15.778,24.754 L17.043,23.948 L17.043,23.948 L15.778,24.754 Z M15.759,24.724 L17.024,23.919 L17.024,23.918 L15.759,24.724 Z M12.655,19.846 L13.92,19.041 L13.742,18.76 L13.46,18.581 L12.655,19.846 Z M7.777,16.742 L8.583,15.477 L8.583,15.477 L7.777,16.742 Z M7.747,16.723 L8.553,15.458 L8.553,15.458 L7.747,16.723 Z M6.711,16.028 L7.628,14.841 L6.711,16.028 Z M6.029,15.182 L4.612,15.674 L4.612,15.674 L6.029,15.182 Z M6.198,13.68 L4.925,12.886 L6.198,13.68 Z M7.05,13.006 L7.681,14.367 L7.681,14.367 L7.05,13.006 Z M17.024,23.918 L15.759,24.724 L15.759,24.724 L17.024,23.918 Z M14.154,19.408 L13.093,18.347 L12.242,19.198 L12.889,20.213 L14.154,19.408 Z M17.66,24.873 L18.848,23.957 L17.66,24.873 Z M17.829,25.061 L16.884,26.225 L17.131,26.426 L17.438,26.509 L17.829,25.061 Z M18.011,25.04 L18.714,26.365 L18.995,26.216 L19.191,25.966 L18.011,25.04 Z M18.134,24.82 L16.773,24.19 L16.773,24.19 L18.134,24.82 Z M18.542,23.748 L17.129,23.244 L17.129,23.244 L18.542,23.748 Z M23.377,10.211 L21.964,9.706 L21.964,9.706 L23.377,10.211 Z M23.751,9.091 L22.298,8.716 L22.298,8.716 L23.751,9.091 Z M23.797,8.834 L25.296,8.868 L25.304,8.54 L25.173,8.238 L23.797,8.834 Z M23.667,8.704 L24.263,7.328 L23.962,7.198 L23.633,7.205 L23.667,8.704 Z M23.41,8.75 L23.035,7.298 L23.035,7.298 L23.41,8.75 Z M22.29,9.124 L21.786,7.712 L21.786,7.712 L22.29,9.124 Z M8.753,13.959 L8.249,12.546 L8.249,12.546 L8.753,13.959 Z M7.681,14.367 L7.05,13.006 L7.05,13.006 L7.681,14.367 Z M7.461,14.49 L6.535,13.31 L6.285,13.506 L6.136,13.787 L7.461,14.49 Z M7.441,14.672 L5.992,15.064 L6.075,15.371 L6.276,15.618 L7.441,14.672 Z M7.628,14.841 L8.544,13.653 L8.544,13.653 L7.628,14.841 Z M8.583,15.477 L7.777,16.742 L7.777,16.742 L8.583,15.477 Z M13.093,18.347 L12.288,19.613 L13.303,20.259 L14.154,19.408 L13.093,18.347 Z M17.618,13.823 L18.678,14.883 L17.618,13.823 Z M18.678,14.883 L19.739,15.944 L18.678,14.883 Z M7.744,11.134 L7.711,11.146 L8.72,13.971 L8.753,13.959 L7.744,11.134 Z M21.281,6.299 L7.744,11.134 L8.753,13.959 L22.29,9.124 L21.281,6.299 Z M21.315,6.287 L21.281,6.299 L22.29,9.124 L22.324,9.112 L21.315,6.287 Z M22.661,5.846 C22.251,5.951 21.77,6.125 21.315,6.287 L22.324,9.112 C22.828,8.932 23.162,8.814 23.41,8.75 L22.661,5.846 Z M24.633,5.863 C23.804,5.576 23.038,5.748 22.661,5.846 L23.41,8.75 C23.53,8.72 23.602,8.708 23.65,8.705 C23.692,8.703 23.683,8.709 23.649,8.698 L24.633,5.863 Z M26.638,7.868 C26.311,6.928 25.573,6.19 24.633,5.863 L23.649,8.698 C23.721,8.723 23.778,8.78 23.803,8.852 L26.638,7.868 Z M26.655,9.84 C26.753,9.463 26.925,8.697 26.638,7.868 L23.803,8.852 C23.792,8.818 23.798,8.809 23.796,8.851 C23.793,8.899 23.782,8.971 23.751,9.091 L26.655,9.84 Z M26.214,11.186 C26.376,10.731 26.55,10.25 26.655,9.84 L23.751,9.091 C23.687,9.339 23.569,9.673 23.389,10.177 L26.214,11.186 Z M26.202,11.22 L26.214,11.186 L23.389,10.177 L23.377,10.211 L26.202,11.22 Z M21.367,24.757 L26.202,11.22 L23.377,10.211 L18.542,23.748 L21.367,24.757 Z M21.355,24.79 L21.367,24.757 L18.542,23.748 L18.53,23.781 L21.355,24.79 Z M20.856,26.081 C21.031,25.704 21.198,25.232 21.355,24.79 L18.53,23.781 C18.355,24.271 18.238,24.595 18.134,24.82 L20.856,26.081 Z M19.615,27.576 C20.346,27.12 20.692,26.434 20.856,26.081 L18.134,24.82 C18.083,24.929 18.047,24.99 18.021,25.027 C17.997,25.059 17.997,25.049 18.026,25.031 L19.615,27.576 Z M16.827,27.889 C17.756,28.212 18.781,28.097 19.615,27.576 L18.026,25.031 C17.962,25.071 17.883,25.08 17.812,25.055 L16.827,27.889 Z M15.286,26.707 C15.524,27.015 16.013,27.606 16.827,27.889 L17.812,25.055 C17.844,25.067 17.846,25.076 17.816,25.05 C17.782,25.02 17.734,24.968 17.66,24.873 L15.286,26.707 Z M14.512,25.559 C14.764,25.954 15.032,26.378 15.286,26.707 L17.66,24.873 C17.509,24.677 17.323,24.387 17.043,23.948 L14.512,25.559 Z M14.493,25.529 L14.512,25.559 L17.043,23.948 L17.024,23.919 L14.493,25.529 Z M11.389,20.651 L14.493,25.529 L17.024,23.918 L13.92,19.041 L11.389,20.651 Z M6.972,18.008 L11.85,21.112 L13.46,18.581 L8.583,15.477 L6.972,18.008 Z M6.942,17.989 L6.972,18.008 L8.583,15.477 L8.553,15.458 L6.942,17.989 Z M5.794,17.215 C6.123,17.47 6.547,17.737 6.942,17.989 L8.553,15.458 C8.114,15.178 7.824,14.993 7.628,14.841 L5.794,17.215 Z M4.612,15.674 C4.895,16.488 5.486,16.978 5.794,17.215 L7.628,14.841 C7.533,14.767 7.481,14.719 7.451,14.685 C7.425,14.655 7.435,14.657 7.446,14.689 L4.612,15.674 Z M4.925,12.886 C4.404,13.72 4.289,14.745 4.612,15.674 L7.446,14.689 C7.421,14.618 7.43,14.539 7.47,14.475 L4.925,12.886 Z M6.42,11.645 C6.067,11.809 5.382,12.155 4.925,12.886 L7.47,14.475 C7.452,14.504 7.442,14.504 7.474,14.48 C7.511,14.454 7.572,14.418 7.681,14.367 L6.42,11.645 Z M7.711,11.146 C7.269,11.303 6.797,11.47 6.42,11.645 L7.681,14.367 C7.906,14.263 8.23,14.146 8.72,13.971 L7.711,11.146 Z M18.29,23.113 L15.419,18.602 L12.889,20.213 L15.759,24.724 L18.29,23.113 Z M18.848,23.957 C18.743,23.822 18.596,23.595 18.29,23.113 L15.759,24.724 C16.032,25.153 16.265,25.521 16.473,25.79 L18.848,23.957 Z M18.774,23.896 C18.793,23.912 18.812,23.927 18.829,23.943 C18.845,23.958 18.856,23.97 18.863,23.977 C18.876,23.99 18.871,23.986 18.848,23.957 L16.473,25.79 C16.626,25.988 16.759,26.124 16.884,26.225 L18.774,23.896 Z M17.308,23.715 C17.588,23.566 17.914,23.53 18.22,23.613 L17.438,26.509 C17.866,26.624 18.322,26.573 18.714,26.365 L17.308,23.715 Z M16.773,24.19 C16.757,24.224 16.753,24.229 16.762,24.212 C16.767,24.204 16.776,24.19 16.788,24.172 C16.801,24.153 16.816,24.134 16.831,24.114 L19.191,25.966 C19.29,25.84 19.39,25.678 19.495,25.451 L16.773,24.19 Z M17.129,23.244 C16.937,23.781 16.844,24.035 16.773,24.19 L19.495,25.451 C19.638,25.142 19.783,24.732 19.955,24.253 L17.129,23.244 Z M21.964,9.706 L17.129,23.244 L19.955,24.253 L24.789,10.715 L21.964,9.706 Z M22.298,8.716 C22.254,8.889 22.161,9.155 21.964,9.706 L24.789,10.715 C24.965,10.222 25.116,9.802 25.203,9.466 L22.298,8.716 Z M22.297,8.801 C22.297,8.778 22.299,8.754 22.301,8.732 C22.302,8.711 22.305,8.695 22.306,8.686 C22.308,8.669 22.308,8.677 22.298,8.716 L25.203,9.466 C25.267,9.217 25.293,9.027 25.296,8.868 L22.297,8.801 Z M23.07,10.081 C22.779,9.955 22.547,9.722 22.42,9.431 L25.173,8.238 C24.996,7.83 24.671,7.505 24.263,7.328 L23.07,10.081 Z M23.785,10.203 C23.824,10.193 23.832,10.193 23.815,10.195 C23.806,10.197 23.791,10.199 23.769,10.2 C23.747,10.202 23.723,10.204 23.7,10.204 L23.633,7.205 C23.474,7.208 23.285,7.234 23.035,7.298 L23.785,10.203 Z M22.795,10.537 C23.346,10.34 23.612,10.248 23.785,10.203 L23.035,7.298 C22.699,7.385 22.279,7.536 21.786,7.712 L22.795,10.537 Z M9.258,15.372 L22.795,10.537 L21.786,7.712 L8.249,12.546 L9.258,15.372 Z M8.311,15.729 C8.466,15.657 8.72,15.564 9.258,15.372 L8.249,12.546 C7.769,12.718 7.359,12.863 7.05,13.006 L8.311,15.729 Z M8.387,15.67 C8.367,15.685 8.348,15.7 8.329,15.713 C8.311,15.725 8.297,15.734 8.289,15.739 C8.273,15.748 8.277,15.744 8.311,15.729 L7.05,13.006 C6.823,13.112 6.661,13.211 6.535,13.31 L8.387,15.67 Z M8.889,14.281 C8.971,14.587 8.935,14.913 8.786,15.193 L6.136,13.787 C5.928,14.179 5.877,14.635 5.992,15.064 L8.889,14.281 Z M8.544,13.653 C8.515,13.63 8.511,13.626 8.525,13.638 C8.532,13.645 8.543,13.656 8.558,13.672 C8.574,13.689 8.59,13.708 8.605,13.727 L6.276,15.618 C6.377,15.742 6.513,15.875 6.711,16.028 L8.544,13.653 Z M9.388,14.211 C8.906,13.905 8.679,13.758 8.544,13.653 L6.711,16.028 C6.98,16.236 7.348,16.469 7.777,16.742 L9.388,14.211 Z M13.899,17.082 L9.388,14.211 L7.777,16.742 L12.288,19.613 L13.899,17.082 Z M16.557,12.762 L12.033,17.287 L14.154,19.408 L18.678,14.883 L16.557,12.762 Z M19.739,12.762 C18.86,11.883 17.436,11.883 16.557,12.762 L18.678,14.883 C18.385,15.176 17.91,15.176 17.618,14.883 L19.739,12.762 Z M19.739,15.944 C20.618,15.066 20.618,13.641 19.739,12.762 L17.618,14.883 C17.325,14.591 17.325,14.116 17.618,13.823 L19.739,15.944 Z M15.215,20.468 L19.739,15.944 L17.618,13.823 L13.093,18.347 L15.215,20.468 Z"/>
  <path fill="#151E28" d="M8.215,12.558 L21.786,7.712 L21.819,7.7 C22.299,7.529 22.707,7.383 23.035,7.298 C23.358,7.215 23.753,7.146 24.141,7.281 C24.647,7.456 25.045,7.854 25.221,8.36 C25.355,8.748 25.286,9.144 25.203,9.466 C25.118,9.794 24.972,10.202 24.801,10.682 L24.789,10.715 L19.955,24.253 L19.943,24.286 C19.776,24.752 19.634,25.149 19.495,25.451 C19.357,25.748 19.163,26.09 18.821,26.304 C18.372,26.584 17.82,26.646 17.319,26.472 C16.938,26.34 16.673,26.049 16.473,25.79 C16.27,25.527 16.043,25.171 15.778,24.754 L15.759,24.724 L12.655,19.846 L7.777,16.742 L7.747,16.723 C7.33,16.458 6.974,16.231 6.711,16.028 C6.452,15.828 6.161,15.563 6.029,15.182 C5.855,14.682 5.917,14.13 6.198,13.68 C6.411,13.338 6.753,13.144 7.05,13.006 C7.352,12.867 7.749,12.725 8.215,12.558 Z M14.154,19.408 L17.024,23.918 C17.314,24.374 17.504,24.671 17.66,24.873 C17.759,25.001 17.813,25.048 17.829,25.061 C17.89,25.077 17.955,25.07 18.011,25.04 C18.023,25.024 18.066,24.967 18.134,24.82 C18.241,24.588 18.36,24.256 18.542,23.748 L23.377,10.211 C23.563,9.689 23.685,9.346 23.751,9.091 C23.792,8.929 23.796,8.855 23.797,8.834 C23.771,8.776 23.725,8.73 23.667,8.704 C23.646,8.705 23.573,8.709 23.41,8.75 C23.156,8.816 22.812,8.938 22.29,9.124 L8.753,13.959 C8.245,14.141 7.913,14.26 7.681,14.368 C7.534,14.436 7.477,14.478 7.461,14.49 C7.431,14.546 7.424,14.611 7.441,14.672 C7.453,14.688 7.5,14.742 7.628,14.841 C7.83,14.997 8.127,15.187 8.583,15.477 L13.093,18.347 L17.618,13.823 C17.91,13.53 18.385,13.53 18.678,13.823 C18.971,14.116 18.971,14.591 18.678,14.884 Z"/>
</svg>

