<svg xmlns="http://www.w3.org/2000/svg" viewBox="0 0 32 32">
  <defs/>
  <path fill="white" d="M8.598,19.495 C8.379,18.947 8.269,18.673 8.241,18.393 C8.216,18.145 8.237,17.894 8.304,17.654 C8.38,17.383 8.535,17.132 8.844,16.629 L14.637,7.214 C15.088,6.482 15.314,6.115 15.604,5.99 C15.857,5.881 16.144,5.881 16.397,5.99 C16.686,6.115 16.912,6.482 17.363,7.214 L23.156,16.629 C23.466,17.132 23.62,17.383 23.696,17.654 C23.763,17.894 23.784,18.145 23.759,18.393 C23.731,18.673 23.621,18.947 23.402,19.495 L22.805,20.988 C22.514,21.715 22.369,22.078 22.126,22.345 C21.912,22.581 21.644,22.762 21.345,22.874 C21.007,23 20.616,23 19.834,23 L12.167,23 C11.384,23 10.993,23 10.655,22.874 C10.356,22.762 10.089,22.581 9.874,22.345 C9.631,22.078 9.486,21.715 9.195,20.988 Z"/>
  <path fill="white" d="M15.306,5.301 L15.901,6.679 L15.901,6.679 L15.306,5.301 Z M16.694,5.301 L16.099,6.679 L16.099,6.679 L16.694,5.301 Z M14.581,5.925 L15.781,6.824 L15.781,6.824 L14.581,5.925 Z M14.016,6.793 L15.294,7.579 L15.294,7.579 L14.016,6.793 Z M13.999,6.821 L15.276,7.607 L15.276,7.607 L13.999,6.821 Z M8.205,16.236 L9.482,17.023 L9.483,17.022 L8.205,16.236 Z M8.159,16.311 L9.436,17.098 L9.436,17.098 L8.159,16.311 Z M7.582,17.453 L6.137,17.049 L6.137,17.049 L7.582,17.453 Z M7.495,18.468 L8.987,18.317 L8.987,18.317 L7.495,18.468 Z M7.869,19.691 L9.261,19.134 L9.261,19.133 L7.869,19.691 Z M7.902,19.773 L9.294,19.216 L9.294,19.215 L7.902,19.773 Z M8.499,21.267 L9.892,20.711 L9.892,20.71 L8.499,21.267 Z M8.543,21.377 L9.936,20.822 L9.936,20.821 L8.543,21.377 Z M9.319,22.849 L10.429,21.841 L10.429,21.841 L9.319,22.849 Z M9.678,23.18 L10.892,24.061 C11.369,23.404 11.236,22.486 10.592,21.991 L9.678,23.18 Z M22.322,23.18 L21.408,21.991 C20.764,22.486 20.631,23.404 21.108,24.061 L22.322,23.18 Z M22.681,22.849 L21.571,21.841 L21.571,21.841 L22.681,22.849 Z M23.457,21.377 L22.064,20.821 L22.064,20.822 L23.457,21.377 Z M23.501,21.267 L22.108,20.71 L22.108,20.711 L23.501,21.267 Z M24.099,19.773 L22.706,19.215 L22.706,19.216 L24.099,19.773 Z M24.131,19.691 L22.739,19.133 L22.739,19.134 L24.131,19.691 Z M24.506,18.468 L25.998,18.619 L25.998,18.619 L24.506,18.468 Z M24.418,17.453 L25.863,17.049 L25.863,17.049 L24.418,17.453 Z M23.841,16.311 L22.449,16.868 C22.481,16.948 22.519,17.025 22.564,17.098 L23.841,16.311 Z M23.841,16.311 L25.234,15.754 C25.202,15.674 25.163,15.597 25.119,15.524 L23.841,16.311 Z M23.795,16.236 L22.518,17.022 L22.518,17.023 L23.795,16.236 Z M18.002,6.821 L16.724,7.607 L16.724,7.607 L18.002,6.821 Z M17.984,6.793 L16.704,7.575 L16.706,7.579 L17.984,6.793 Z M17.984,6.793 L16.697,7.564 L16.704,7.575 L17.984,6.793 Z M17.984,6.793 L19.271,6.022 L19.269,6.019 L17.984,6.793 Z M17.984,6.793 L19.269,6.019 C19.267,6.015 19.264,6.011 19.262,6.007 L17.984,6.793 Z M17.419,5.925 L18.62,5.025 L18.62,5.025 L17.419,5.925 Z M19.952,23.75 L19.952,25.25 L19.952,25.25 L19.952,23.75 Z M19.837,23.75 L19.836,25.25 L19.837,23.75 Z M19.952,23.75 L19.954,22.25 L19.952,22.25 L19.952,23.75 Z M20.176,23.75 L20.176,22.25 L20.172,22.25 L20.176,23.75 Z M11.824,23.75 L11.828,22.25 L11.824,22.25 L11.824,23.75 Z M12.048,23.75 L12.047,22.25 L12.046,22.25 L12.048,23.75 Z M12.163,23.75 L12.164,25.25 L12.163,23.75 Z M12.167,23.75 L12.167,22.25 L12.166,22.25 L12.167,23.75 Z M19.834,23.75 L19.834,22.25 L19.834,22.25 L19.834,23.75 Z M21.083,22.171 L20.559,20.766 L20.559,20.766 L21.083,22.171 Z M21.571,21.841 L20.461,20.832 L20.461,20.832 L21.571,21.841 Z M22.108,20.71 L20.716,20.153 L20.716,20.153 L22.108,20.71 Z M22.706,19.216 L21.313,18.659 L21.313,18.659 L22.706,19.216 Z M23.013,18.317 L21.521,18.166 L21.521,18.166 L23.013,18.317 Z M22.974,17.855 L21.529,18.259 L21.529,18.259 L22.974,17.855 Z M22.518,17.022 L21.24,17.808 L21.24,17.808 L22.518,17.022 Z M16.75,7.65 L18.028,6.864 C17.676,6.292 16.988,6.024 16.342,6.207 C15.696,6.389 15.25,6.979 15.25,7.65 L16.75,7.65 Z M16.75,13.354 L15.25,13.354 C15.25,14.025 15.696,14.614 16.342,14.797 L16.75,13.354 Z M15.25,13.354 L15.659,14.797 C16.304,14.614 16.75,14.025 16.75,13.354 L15.25,13.354 Z M15.25,7.65 L16.75,7.65 C16.75,6.978 16.305,6.389 15.659,6.206 C15.013,6.024 14.325,6.292 13.973,6.863 L15.25,7.65 Z M9.483,17.022 L8.205,16.236 L8.205,16.236 L9.483,17.022 Z M9.027,17.855 L10.472,18.259 L10.472,18.259 L9.027,17.855 Z M8.987,18.317 L10.479,18.166 L10.479,18.166 L8.987,18.317 Z M9.294,19.216 L10.687,18.659 L10.687,18.659 L9.294,19.216 Z M9.892,20.71 L11.285,20.153 L11.285,20.153 L9.892,20.71 Z M10.429,21.841 L11.539,20.832 L11.539,20.832 L10.429,21.841 Z M10.917,22.171 L11.442,20.766 L11.442,20.766 L10.917,22.171 Z M15.901,6.679 C15.964,6.651 16.036,6.651 16.099,6.679 L17.289,3.924 C16.466,3.569 15.534,3.569 14.712,3.924 L15.901,6.679 Z M15.781,6.824 C15.839,6.747 15.876,6.706 15.901,6.684 C15.922,6.664 15.922,6.67 15.901,6.679 L14.712,3.924 C14.022,4.222 13.604,4.726 13.38,5.025 L15.781,6.824 Z M15.294,7.579 C15.517,7.216 15.662,6.983 15.781,6.824 L13.38,5.025 C13.16,5.319 12.936,5.686 12.739,6.007 L15.294,7.579 Z M15.276,7.607 L15.294,7.579 L12.739,6.007 L12.721,6.035 L15.276,7.607 Z M9.483,17.022 L15.276,7.607 L12.721,6.035 L6.928,15.45 L9.483,17.022 Z M9.436,17.098 L9.482,17.023 L6.928,15.449 L6.882,15.524 L9.436,17.098 Z M9.027,17.855 C9.064,17.723 9.143,17.573 9.436,17.098 L6.882,15.524 C6.646,15.907 6.309,16.431 6.137,17.049 L9.027,17.855 Z M8.987,18.317 C8.971,18.162 8.985,18.006 9.027,17.855 L6.137,17.049 C5.995,17.56 5.949,18.092 6.002,18.619 L8.987,18.317 Z M9.261,19.133 C9.054,18.616 9.001,18.454 8.987,18.317 L6.002,18.619 C6.067,19.258 6.309,19.831 6.477,20.249 L9.261,19.133 Z M9.294,19.215 L9.261,19.134 L6.476,20.249 L6.509,20.331 L9.294,19.215 Z M9.892,20.71 L9.294,19.216 L6.509,20.33 L7.106,21.824 L9.892,20.71 Z M9.936,20.821 L9.892,20.711 L7.106,21.823 L7.15,21.934 L9.936,20.821 Z M10.429,21.841 C10.312,21.712 10.211,21.509 9.936,20.822 L7.15,21.933 C7.368,22.481 7.654,23.248 8.209,23.858 L10.429,21.841 Z M10.592,21.991 C10.534,21.946 10.479,21.896 10.429,21.841 L8.209,23.858 C8.379,24.045 8.564,24.216 8.763,24.369 L10.592,21.991 Z M10.75,24.5 C10.75,24.334 10.802,24.184 10.892,24.061 L8.464,22.299 C8.015,22.917 7.75,23.68 7.75,24.5 L10.75,24.5 Z M11.5,25.25 C11.086,25.25 10.75,24.914 10.75,24.5 L7.75,24.5 C7.75,26.571 9.429,28.25 11.5,28.25 L11.5,25.25 Z M20.5,25.25 L11.5,25.25 L11.5,28.25 L20.5,28.25 L20.5,25.25 Z M21.25,24.5 C21.25,24.914 20.914,25.25 20.5,25.25 L20.5,28.25 C22.571,28.25 24.25,26.571 24.25,24.5 L21.25,24.5 Z M21.108,24.061 C21.198,24.184 21.25,24.334 21.25,24.5 L24.25,24.5 C24.25,23.68 23.985,22.917 23.537,22.299 L21.108,24.061 Z M21.571,21.841 C21.521,21.896 21.467,21.946 21.408,21.991 L23.237,24.369 C23.436,24.216 23.622,24.045 23.791,23.858 L21.571,21.841 Z M22.064,20.822 C21.789,21.509 21.688,21.712 21.571,21.841 L23.791,23.858 C24.346,23.248 24.632,22.481 24.85,21.933 L22.064,20.822 Z M22.108,20.711 L22.064,20.821 L24.85,21.934 L24.894,21.823 L22.108,20.711 Z M22.706,19.216 L22.108,20.71 L24.894,21.824 L25.491,20.33 L22.706,19.216 Z M22.739,19.134 L22.706,19.215 L25.491,20.331 L25.524,20.249 L22.739,19.134 Z M23.013,18.317 C22.999,18.454 22.947,18.616 22.739,19.133 L25.524,20.249 C25.691,19.831 25.933,19.258 25.998,18.619 L23.013,18.317 Z M22.974,17.855 C23.015,18.006 23.029,18.162 23.013,18.317 L25.998,18.619 C26.051,18.092 26.006,17.56 25.863,17.049 L22.974,17.855 Z M22.564,17.098 C22.857,17.573 22.937,17.723 22.974,17.855 L25.863,17.049 C25.691,16.431 25.355,15.907 25.118,15.524 L22.564,17.098 Z M22.449,16.868 L22.449,16.868 L25.234,15.754 L25.234,15.754 L22.449,16.868 Z M22.518,17.023 L22.564,17.098 L25.119,15.524 L25.072,15.449 L22.518,17.023 Z M16.724,7.607 L22.518,17.022 L25.073,15.45 L19.279,6.035 L16.724,7.607 Z M16.706,7.579 L16.724,7.607 L19.279,6.035 L19.262,6.007 L16.706,7.579 Z M16.704,7.575 L16.704,7.575 L19.264,6.01 L19.264,6.01 L16.704,7.575 Z M16.697,7.564 L16.697,7.564 L19.271,6.022 L19.271,6.022 L16.697,7.564 Z M16.699,7.566 L16.699,7.567 L19.269,6.019 L19.269,6.019 L16.699,7.566 Z M16.219,6.824 C16.338,6.983 16.483,7.216 16.706,7.579 L19.262,6.007 C19.064,5.685 18.84,5.319 18.62,5.025 L16.219,6.824 Z M16.099,6.679 C16.079,6.67 16.078,6.664 16.099,6.684 C16.124,6.706 16.161,6.747 16.219,6.824 L18.62,5.025 C18.396,4.726 17.978,4.222 17.289,3.924 L16.099,6.679 Z M19.953,22.25 L19.838,22.25 L19.836,25.25 L19.952,25.25 L19.953,22.25 Z M19.952,22.25 L19.952,22.25 L19.952,25.25 L19.952,25.25 L19.952,22.25 Z M20.172,22.25 C20.102,22.25 20.031,22.25 19.954,22.25 L19.951,25.25 C20.027,25.25 20.104,25.25 20.18,25.25 L20.172,22.25 Z M20.5,22.25 L20.176,22.25 L20.176,25.25 L20.5,25.25 L20.5,22.25 Z M22.75,24.5 C22.75,23.257 21.743,22.25 20.5,22.25 L20.5,25.25 C20.086,25.25 19.75,24.914 19.75,24.5 L22.75,24.5 Z M20.5,26.75 C21.743,26.75 22.75,25.743 22.75,24.5 L19.75,24.5 C19.75,24.086 20.086,23.75 20.5,23.75 L20.5,26.75 Z M11.5,26.75 L20.5,26.75 L20.5,23.75 L11.5,23.75 L11.5,26.75 Z M9.25,24.5 C9.25,25.743 10.258,26.75 11.5,26.75 L11.5,23.75 C11.914,23.75 12.25,24.086 12.25,24.5 L9.25,24.5 Z M11.5,22.25 C10.258,22.25 9.25,23.257 9.25,24.5 L12.25,24.5 C12.25,24.914 11.914,25.25 11.5,25.25 L11.5,22.25 Z M11.824,22.25 L11.5,22.25 L11.5,25.25 L11.824,25.25 L11.824,22.25 Z M12.046,22.25 C11.97,22.25 11.898,22.25 11.828,22.25 L11.82,25.25 C11.896,25.25 11.973,25.25 12.049,25.25 L12.046,22.25 Z M12.162,22.25 L12.047,22.25 L12.049,25.25 L12.164,25.25 L12.162,22.25 Z M12.166,22.25 L12.162,22.25 L12.164,25.25 L12.168,25.25 L12.166,22.25 Z M19.834,22.25 L12.167,22.25 L12.167,25.25 L19.834,25.25 L19.834,22.25 Z M19.838,22.25 L19.834,22.25 L19.833,25.25 L19.836,25.25 L19.838,22.25 Z M20.559,20.766 C20.665,20.726 20.729,20.732 20.615,20.739 C20.484,20.747 20.263,20.75 19.834,20.75 L19.834,23.75 C20.246,23.75 20.56,23.748 20.798,23.733 C21.053,23.718 21.32,23.684 21.607,23.576 L20.559,20.766 Z M20.461,20.832 C20.488,20.802 20.521,20.78 20.559,20.766 L21.607,23.576 C22.018,23.423 22.386,23.174 22.681,22.849 L20.461,20.832 Z M20.716,20.153 C20.556,20.552 20.471,20.756 20.415,20.874 C20.366,20.977 20.385,20.916 20.461,20.832 L22.681,22.849 C22.887,22.623 23.018,22.387 23.127,22.156 C23.229,21.94 23.348,21.65 23.501,21.267 L20.716,20.153 Z M21.313,18.659 L20.716,20.153 L23.501,21.267 L24.099,19.773 L21.313,18.659 Z M21.521,18.166 C21.529,18.082 21.549,18.039 21.523,18.115 C21.492,18.206 21.434,18.358 21.313,18.659 L24.099,19.773 C24.297,19.278 24.464,18.881 24.506,18.468 L21.521,18.166 Z M21.529,18.259 C21.52,18.229 21.518,18.197 21.521,18.166 L24.506,18.468 C24.54,18.127 24.511,17.783 24.418,17.453 L21.529,18.259 Z M21.24,17.808 C21.41,18.084 21.494,18.224 21.54,18.309 C21.579,18.379 21.551,18.34 21.529,18.259 L24.418,17.453 C24.307,17.053 24.075,16.69 23.795,16.236 L21.24,17.808 Z M15.473,8.436 L21.24,17.808 L23.795,16.236 L18.028,6.864 L15.473,8.436 Z M18.25,13.354 L18.25,7.65 L15.25,7.65 L15.25,13.354 L18.25,13.354 Z M16.342,14.797 C16.867,14.945 17.25,15.43 17.25,16 L20.25,16 C20.25,14.053 18.942,12.415 17.159,11.91 L16.342,14.797 Z M17.25,16 C17.25,16.69 16.691,17.25 16,17.25 L16,20.25 C18.347,20.25 20.25,18.347 20.25,16 L17.25,16 Z M16,17.25 C15.31,17.25 14.75,16.69 14.75,16 L11.75,16 C11.75,18.347 13.653,20.25 16,20.25 L16,17.25 Z M14.75,16 C14.75,15.43 15.133,14.945 15.659,14.797 L14.842,11.91 C13.059,12.415 11.75,14.053 11.75,16 L14.75,16 Z M13.75,7.65 L13.75,13.354 L16.75,13.354 L16.75,7.65 L13.75,7.65 Z M10.76,17.808 L16.528,8.436 L13.973,6.863 L8.205,16.236 L10.76,17.808 Z M10.472,18.259 C10.449,18.34 10.422,18.379 10.46,18.309 C10.506,18.224 10.59,18.084 10.76,17.808 L8.205,16.236 C7.926,16.69 7.693,17.053 7.582,17.453 L10.472,18.259 Z M10.479,18.166 C10.483,18.197 10.48,18.229 10.472,18.259 L7.582,17.453 C7.49,17.783 7.46,18.127 7.495,18.468 L10.479,18.166 Z M10.687,18.659 C10.567,18.358 10.508,18.206 10.477,18.115 C10.451,18.039 10.471,18.082 10.479,18.166 L7.495,18.468 C7.536,18.881 7.704,19.278 7.902,19.773 L10.687,18.659 Z M11.285,20.153 L10.687,18.659 L7.902,19.773 L8.499,21.267 L11.285,20.153 Z M11.539,20.832 C11.615,20.916 11.634,20.977 11.585,20.874 C11.529,20.756 11.444,20.552 11.285,20.153 L8.499,21.267 C8.652,21.65 8.771,21.94 8.873,22.156 C8.982,22.387 9.113,22.623 9.319,22.849 L11.539,20.832 Z M11.442,20.766 C11.479,20.78 11.512,20.802 11.539,20.832 L9.319,22.849 C9.614,23.174 9.982,23.423 10.393,23.576 L11.442,20.766 Z M12.167,20.75 C11.737,20.75 11.516,20.747 11.386,20.739 C11.271,20.732 11.335,20.726 11.442,20.766 L10.393,23.576 C10.68,23.684 10.947,23.718 11.202,23.733 C11.441,23.748 11.754,23.75 12.167,23.75 L12.167,20.75 Z M19.834,20.75 L12.167,20.75 L12.167,23.75 L19.834,23.75 L19.834,20.75 Z M16,13.25 C14.482,13.25 13.25,14.481 13.25,16 L16.25,16 C16.25,16.138 16.138,16.25 16,16.25 L16,13.25 Z M13.25,16 C13.25,17.519 14.482,18.75 16,18.75 L16,15.75 C16.138,15.75 16.25,15.862 16.25,16 L13.25,16 Z M16,18.75 C17.519,18.75 18.75,17.519 18.75,16 L15.75,16 C15.75,15.862 15.862,15.75 16,15.75 L16,18.75 Z M18.75,16 C18.75,14.481 17.519,13.25 16,13.25 L16,16.25 C15.862,16.25 15.75,16.138 15.75,16 L18.75,16 Z"/>
  <path fill="#151E28" d="M16.694,5.301 C17.021,5.443 17.246,5.693 17.42,5.925 C17.589,6.151 17.774,6.451 17.984,6.793 L17.984,6.793 L17.984,6.793 L18.001,6.821 L23.795,16.236 L23.841,16.311 C24.106,16.74 24.314,17.077 24.418,17.452 C24.51,17.783 24.54,18.127 24.506,18.468 C24.466,18.856 24.319,19.224 24.131,19.691 L24.099,19.773 L23.501,21.267 L23.457,21.377 C23.211,21.995 23.017,22.48 22.681,22.849 C22.571,22.97 22.451,23.081 22.322,23.18 C22.591,23.551 22.75,24.007 22.75,24.5 C22.75,25.743 21.743,26.75 20.5,26.75 L11.5,26.75 C10.257,26.75 9.25,25.743 9.25,24.5 C9.25,24.007 9.409,23.551 9.678,23.18 C9.549,23.081 9.429,22.97 9.319,22.849 C8.983,22.48 8.79,21.995 8.543,21.377 L8.499,21.267 L7.902,19.773 L7.869,19.691 C7.681,19.224 7.534,18.856 7.495,18.468 C7.46,18.127 7.49,17.783 7.582,17.452 C7.686,17.077 7.894,16.74 8.159,16.311 L8.205,16.236 L13.999,6.821 L14.016,6.793 C14.227,6.451 14.411,6.151 14.581,5.925 C14.754,5.693 14.98,5.443 15.306,5.301 C15.749,5.11 16.251,5.11 16.694,5.301 Z M19.834,22.25 C20.676,22.25 20.902,22.239 21.083,22.171 C21.27,22.101 21.437,21.988 21.571,21.841 C21.701,21.698 21.796,21.492 22.108,20.71 L22.706,19.216 C22.941,18.628 22.998,18.468 23.013,18.317 C23.029,18.162 23.015,18.006 22.974,17.855 C22.933,17.71 22.85,17.562 22.518,17.022 L16.75,7.65 L16.75,13.354 C17.904,13.68 18.75,14.741 18.75,16 C18.75,17.519 17.519,18.75 16,18.75 C14.481,18.75 13.25,17.519 13.25,16 C13.25,14.741 14.096,13.68 15.25,13.354 L15.25,7.65 L9.483,17.022 C9.15,17.562 9.067,17.71 9.027,17.855 C8.985,18.006 8.971,18.162 8.987,18.317 C9.002,18.468 9.059,18.628 9.294,19.216 L9.892,20.71 C10.205,21.492 10.299,21.698 10.429,21.841 C10.563,21.988 10.731,22.101 10.917,22.171 C11.098,22.239 11.325,22.25 12.167,22.25 Z M19.837,23.75 L12.163,23.75 L12.048,23.75 L11.99,23.75 C11.934,23.75 11.878,23.75 11.824,23.75 L11.5,23.75 C11.086,23.75 10.75,24.086 10.75,24.5 C10.75,24.914 11.086,25.25 11.5,25.25 L20.5,25.25 C20.914,25.25 21.25,24.914 21.25,24.5 C21.25,24.086 20.914,23.75 20.5,23.75 L20.176,23.75 C20.122,23.75 20.066,23.75 20.01,23.75 L19.952,23.75 Z M16,14.75 C15.31,14.75 14.75,15.31 14.75,16 C14.75,16.69 15.31,17.25 16,17.25 C16.691,17.25 17.25,16.69 17.25,16 C17.25,15.31 16.691,14.75 16,14.75 Z"/>
</svg>

