<svg xmlns="http://www.w3.org/2000/svg" viewBox="0 0 32 32">
  <defs/>
  <path fill="white" d="M12,7 C13.105,7 14,7.895 14,9 L14,13 C14,14.105 13.105,15 12,15 C9.791,15 8,13.209 8,11 C8,8.791 9.791,7 12,7 Z M19,18 L23,18 C24.105,18 25,18.895 25,20 C25,22.209 23.209,24 21,24 C18.791,24 17,22.209 17,20 C17,18.895 17.895,18 19,18 Z"/>
  <path fill="white" d="M7.25,10.999 L8.75,11.001 L8.75,10.999 L7.25,10.999 Z M18.938,24.596 L19.363,23.158 C19.296,23.138 19.229,23.123 19.161,23.113 L18.938,24.596 Z M19.029,24.622 L18.641,26.071 L18.641,26.071 L19.029,24.622 Z M20.884,24.75 L20.884,23.25 L20.884,23.25 L20.884,24.75 Z M21,24.75 L21,26.25 L21.003,26.25 L21,24.75 Z M21.002,24.75 L21.002,23.25 L20.999,23.25 L21.002,24.75 Z M21.116,24.75 L21.116,23.25 L21.116,23.25 L21.116,24.75 Z M22.971,24.622 L23.359,26.071 L23.359,26.071 L22.971,24.622 Z M25.622,21.971 L24.173,21.582 L24.173,21.582 L25.622,21.971 Z M25.75,20.116 L24.25,20.116 L24.25,20.116 L25.75,20.116 Z M25.75,20.116 L27.25,20.116 L27.25,20.115 L25.75,20.116 Z M25.75,20 L24.25,19.999 L24.25,20 L25.75,20 Z M25.75,19.916 L24.25,19.915 L24.25,19.915 L25.75,19.916 Z M25.673,18.918 L27.122,18.529 L27.122,18.529 L25.673,18.918 Z M24.082,17.327 L24.471,15.878 L24.471,15.878 L24.082,17.327 Z M23.084,17.25 L23.084,18.75 L23.085,18.75 L23.084,17.25 Z M23.084,17.25 L23.084,15.75 L23.083,15.75 L23.084,17.25 Z M23,17.25 L23,18.75 L23.001,18.75 L23,17.25 Z M19,17.25 L18.999,18.75 L19,18.75 L19,17.25 Z M18.916,17.25 L18.917,15.75 L18.916,15.75 L18.916,17.25 Z M18.916,17.25 L18.915,18.75 L18.916,18.75 L18.916,17.25 Z M17.918,17.327 L18.306,18.776 L18.306,18.776 L17.918,17.327 Z M16.327,18.918 L17.776,19.306 L17.776,19.306 L16.327,18.918 Z M16.25,19.916 L17.75,19.916 L17.75,19.915 L16.25,19.916 Z M16.25,19.916 L14.75,19.916 L14.75,19.917 L16.25,19.916 Z M16.25,20 L17.75,20 L17.75,19.999 L16.25,20 Z M16.25,20.116 L17.75,20.116 L17.75,20.116 L16.25,20.116 Z M16.378,21.971 L17.827,21.582 L17.827,21.582 L16.378,21.971 Z M16.524,22.406 L15.975,23.802 C16.533,24.022 17.168,23.888 17.59,23.462 C18.011,23.036 18.139,22.4 17.914,21.844 L16.524,22.406 Z M9.412,14.984 L10.231,13.727 C9.694,13.377 8.995,13.407 8.49,13.801 C7.985,14.195 7.786,14.866 7.994,15.472 L9.412,14.984 Z M8.75,11.003 L7.25,11.003 L7.25,11.004 L8.75,11.003 Z M8.75,11 L7.25,11 L7.25,11.001 L8.75,11 Z M20.991,23.25 L20.99,24.75 L20.991,24.75 L20.991,23.25 Z M19.272,23.129 L18.788,24.549 C18.877,24.579 18.969,24.601 19.063,24.614 L19.272,23.129 Z M21,23.25 L20.999,24.75 L21,24.75 L21,23.25 Z M22.582,23.173 L22.971,24.622 L22.971,24.622 L22.582,23.173 Z M24.173,21.582 L25.622,21.971 L25.622,21.971 L24.173,21.582 Z M24.224,19.306 L25.673,18.918 L25.673,18.918 L24.224,19.306 Z M23.694,18.776 L23.306,20.224 L23.306,20.224 L23.694,18.776 Z M18.306,18.776 L18.694,20.224 L18.694,20.224 L18.306,18.776 Z M17.776,19.306 L16.327,18.918 L16.327,18.918 L17.776,19.306 Z M17.827,21.582 L16.378,21.971 L16.378,21.971 L17.827,21.582 Z M8.75,10.999 C8.75,9.205 10.205,7.75 12,7.75 L12,4.75 C8.549,4.75 5.751,7.547 5.75,10.998 L8.75,10.999 Z M8.75,11 L8.75,11.001 L5.75,10.997 C5.75,10.998 5.75,10.999 5.75,11 C5.75,11 5.75,11 5.75,11 C5.75,11 5.75,11 5.75,11 C5.75,11 5.75,11 5.75,11 C5.75,11 5.75,11 5.75,11 L8.75,11 Z M19.161,23.113 C13.268,22.227 8.75,17.14 8.75,11 L5.75,11 C5.75,18.646 11.376,24.976 18.715,26.08 L19.161,23.113 Z M19.418,23.173 C19.399,23.168 19.381,23.163 19.363,23.158 L18.513,26.035 C18.555,26.047 18.598,26.06 18.641,26.071 L19.418,23.173 Z M20.884,23.25 C19.994,23.25 19.663,23.239 19.418,23.173 L18.641,26.071 C19.354,26.262 20.139,26.25 20.885,26.25 L20.884,23.25 Z M21,23.25 L20.884,23.25 L20.884,26.25 L21,26.25 L21,23.25 Z M20.999,23.25 L20.997,23.25 L21.003,26.25 L21.005,26.25 L20.999,23.25 Z M21.116,23.25 L21.002,23.25 L21.002,26.25 L21.116,26.25 L21.116,23.25 Z M22.582,23.173 C22.337,23.239 22.006,23.25 21.116,23.25 L21.115,26.25 C21.861,26.25 22.646,26.262 23.359,26.071 L22.582,23.173 Z M24.173,21.582 C23.965,22.359 23.359,22.965 22.582,23.173 L23.359,26.071 C25.171,25.586 26.586,24.171 27.071,22.359 L24.173,21.582 Z M24.25,20.116 C24.25,21.006 24.239,21.337 24.173,21.582 L27.071,22.359 C27.262,21.647 27.25,20.861 27.25,20.115 L24.25,20.116 Z M24.25,20.116 L24.25,20.116 L27.25,20.116 L27.25,20.116 L24.25,20.116 Z M24.25,20.116 L24.25,20.116 L27.25,20.116 L27.25,20.116 L24.25,20.116 Z M24.25,20.116 L24.25,20.116 L27.25,20.116 L27.25,20.116 L24.25,20.116 Z M24.25,20 L24.25,20.116 L27.25,20.115 L27.25,20 L24.25,20 Z M24.25,19.915 L24.25,19.999 L27.25,20.001 L27.25,19.917 L24.25,19.915 Z M24.224,19.306 C24.24,19.365 24.25,19.478 24.25,19.915 L27.25,19.918 C27.25,19.593 27.261,19.049 27.122,18.529 L24.224,19.306 Z M23.694,18.776 C23.953,18.845 24.155,19.047 24.224,19.306 L27.122,18.529 C26.776,17.235 25.765,16.224 24.471,15.878 L23.694,18.776 Z M23.085,18.75 C23.522,18.75 23.635,18.76 23.694,18.776 L24.471,15.878 C23.951,15.739 23.407,15.75 23.082,15.75 L23.085,18.75 Z M23.084,18.75 L23.084,18.75 L23.084,15.75 L23.084,15.75 L23.084,18.75 Z M23.001,18.75 L23.085,18.75 L23.083,15.75 L22.999,15.75 L23.001,18.75 Z M19,18.75 L23,18.75 L23,15.75 L19,15.75 L19,18.75 Z M18.915,18.75 L18.999,18.75 L19.001,15.75 L18.917,15.75 L18.915,18.75 Z M18.916,18.75 L18.916,18.75 L18.916,15.75 L18.916,15.75 L18.916,18.75 Z M18.306,18.776 C18.365,18.76 18.478,18.75 18.915,18.75 L18.918,15.75 C18.593,15.75 18.049,15.739 17.529,15.878 L18.306,18.776 Z M17.776,19.306 C17.845,19.047 18.047,18.845 18.306,18.776 L17.529,15.878 C16.235,16.224 15.225,17.235 14.878,18.529 L17.776,19.306 Z M17.75,19.915 C17.75,19.478 17.76,19.365 17.776,19.306 L14.878,18.529 C14.739,19.049 14.75,19.593 14.75,19.918 L17.75,19.915 Z M17.75,19.916 L17.75,19.916 L14.75,19.916 L14.75,19.916 L17.75,19.916 Z M17.75,19.999 L17.75,19.915 L14.75,19.917 L14.75,20.001 L17.75,19.999 Z M17.75,20.116 L17.75,20 L14.75,20 L14.75,20.116 L17.75,20.116 Z M17.827,21.582 C17.761,21.337 17.75,21.006 17.75,20.116 L14.75,20.115 C14.75,20.861 14.738,21.646 14.929,22.359 L17.827,21.582 Z M17.914,21.844 C17.88,21.759 17.851,21.672 17.827,21.582 L14.929,22.359 C14.985,22.567 15.053,22.771 15.133,22.969 L17.914,21.844 Z M7.994,15.472 C9.304,19.284 12.24,22.336 15.975,23.802 L17.072,21.01 C14.152,19.863 11.854,17.474 10.831,14.496 L7.994,15.472 Z M12,14.25 C11.345,14.25 10.739,14.058 10.231,13.727 L8.594,16.241 C9.575,16.879 10.746,17.25 12,17.25 L12,14.25 Z M13.25,13 C13.25,13.69 12.69,14.25 12,14.25 L12,17.25 C14.347,17.25 16.25,15.347 16.25,13 L13.25,13 Z M13.25,9 L13.25,13 L16.25,13 L16.25,9 L13.25,9 Z M12,7.75 C12.69,7.75 13.25,8.31 13.25,9 L16.25,9 C16.25,6.653 14.347,4.75 12,4.75 L12,7.75 Z M7.25,11.004 C7.252,13.625 9.378,15.75 12,15.75 L12,12.75 C11.034,12.75 10.251,11.967 10.25,11.001 L7.25,11.004 Z M12,15.75 C13.519,15.75 14.75,14.519 14.75,13 L11.75,13 C11.75,12.862 11.862,12.75 12,12.75 L12,15.75 Z M14.75,13 L14.75,9 L11.75,9 L11.75,13 L14.75,13 Z M14.75,9 C14.75,7.481 13.519,6.25 12,6.25 L12,9.25 C11.862,9.25 11.75,9.138 11.75,9 L14.75,9 Z M12,6.25 C9.377,6.25 7.25,8.377 7.25,11 L10.25,11 C10.25,10.034 11.034,9.25 12,9.25 L12,6.25 Z M7.25,11.001 L7.25,11.003 L10.25,11.002 L10.25,10.999 L7.25,11.001 Z M24,13.25 C24.414,13.25 24.75,13.586 24.75,14 L21.75,14 C21.75,15.243 22.757,16.25 24,16.25 L24,13.25 Z M23.25,14 C23.25,13.586 23.586,13.25 24,13.25 L24,16.25 C25.243,16.25 26.25,15.243 26.25,14 L23.25,14 Z M18,8.75 C21.086,8.75 23.25,10.914 23.25,14 L26.25,14 C26.25,9.257 22.743,5.75 18,5.75 L18,8.75 Z M18.75,8 C18.75,8.414 18.414,8.75 18,8.75 L18,5.75 C16.757,5.75 15.75,6.757 15.75,8 L18.75,8 Z M18,7.25 C18.414,7.25 18.75,7.586 18.75,8 L15.75,8 C15.75,9.243 16.757,10.25 18,10.25 L18,7.25 Z M24.75,14 C24.75,12.097 24.077,10.391 22.843,9.157 C21.609,7.923 19.903,7.25 18,7.25 L18,10.25 C19.183,10.25 20.102,10.659 20.721,11.278 C21.341,11.898 21.75,12.817 21.75,14 L24.75,14 Z M20.992,21.75 C20.479,21.75 19.975,21.713 19.482,21.644 L19.063,24.614 C19.693,24.703 20.337,24.75 20.99,24.75 L20.992,21.75 Z M21.001,21.75 L20.992,21.75 L20.991,24.75 L20.999,24.75 L21.001,21.75 Z M22.194,21.724 C22.217,21.718 22.191,21.731 21.995,21.739 C21.793,21.748 21.498,21.75 21,21.75 L21,24.75 C21.874,24.75 22.468,24.757 22.971,24.622 L22.194,21.724 Z M22.724,21.194 C22.655,21.453 22.453,21.655 22.194,21.724 L22.971,24.622 C24.265,24.276 25.276,23.265 25.622,21.971 L22.724,21.194 Z M22.75,20 C22.75,20.498 22.748,20.793 22.739,20.995 C22.731,21.191 22.718,21.217 22.724,21.194 L25.622,21.971 C25.757,21.468 25.75,20.874 25.75,20 L22.75,20 Z M22.776,19.694 C22.741,19.565 22.743,19.476 22.746,19.547 C22.748,19.613 22.75,19.741 22.75,20 L25.75,20 C25.75,19.746 25.749,19.562 25.743,19.427 C25.738,19.298 25.727,19.118 25.673,18.918 L22.776,19.694 Z M23.306,20.224 C23.047,20.155 22.845,19.953 22.776,19.694 L25.673,18.918 C25.465,18.141 24.859,17.535 24.082,17.327 L23.306,20.224 Z M23,20.25 C23.259,20.25 23.387,20.252 23.453,20.254 C23.524,20.257 23.435,20.259 23.306,20.224 L24.082,17.327 C23.882,17.273 23.702,17.262 23.573,17.257 C23.438,17.251 23.254,17.25 23,17.25 L23,20.25 Z M19,20.25 L23,20.25 L23,17.25 L19,17.25 L19,20.25 Z M18.694,20.224 C18.565,20.259 18.476,20.257 18.547,20.254 C18.613,20.252 18.741,20.25 19,20.25 L19,17.25 C18.746,17.25 18.562,17.251 18.427,17.257 C18.298,17.262 18.118,17.273 17.918,17.327 L18.694,20.224 Z M19.224,19.694 C19.155,19.953 18.953,20.155 18.694,20.224 L17.918,17.327 C17.141,17.535 16.535,18.141 16.327,18.918 L19.224,19.694 Z M19.25,20 C19.25,19.741 19.252,19.613 19.254,19.547 C19.257,19.476 19.259,19.565 19.224,19.694 L16.327,18.918 C16.273,19.118 16.262,19.298 16.257,19.427 C16.251,19.562 16.25,19.746 16.25,20 L19.25,20 Z M19.276,21.194 C19.282,21.217 19.269,21.191 19.261,20.995 C19.252,20.793 19.25,20.498 19.25,20 L16.25,20 C16.25,20.874 16.243,21.468 16.378,21.971 L19.276,21.194 Z M19.757,21.71 C19.522,21.629 19.34,21.436 19.276,21.194 L16.378,21.971 C16.703,23.183 17.61,24.146 18.788,24.549 L19.757,21.71 Z M18.75,14 C18.75,15.243 19.757,16.25 21,16.25 L21,13.25 C21.414,13.25 21.75,13.586 21.75,14 L18.75,14 Z M18,13.25 C18.414,13.25 18.75,13.586 18.75,14 L21.75,14 C21.75,11.929 20.071,10.25 18,10.25 L18,13.25 Z M15.75,11 C15.75,12.243 16.757,13.25 18,13.25 L18,10.25 C18.414,10.25 18.75,10.586 18.75,11 L15.75,11 Z M18,8.75 C16.757,8.75 15.75,9.757 15.75,11 L18.75,11 C18.75,11.414 18.414,11.75 18,11.75 L18,8.75 Z M23.25,14 C23.25,11.101 20.899,8.75 18,8.75 L18,11.75 C19.243,11.75 20.25,12.757 20.25,14 L23.25,14 Z M21,16.25 C22.243,16.25 23.25,15.243 23.25,14 L20.25,14 C20.25,13.586 20.586,13.25 21,13.25 L21,16.25 Z"/>
  <path fill="#151E28" d="M12,6.25 C13.519,6.25 14.75,7.481 14.75,9 L14.75,13 C14.75,14.519 13.519,15.75 12,15.75 C11.046,15.75 10.157,15.469 9.412,14.984 C10.579,18.379 13.196,21.1 16.524,22.406 C16.467,22.265 16.418,22.12 16.378,21.971 C16.25,21.492 16.25,20.934 16.25,20.116 L16.25,20 L16.25,19.916 C16.25,19.535 16.249,19.207 16.327,18.918 C16.535,18.141 17.141,17.535 17.918,17.327 C18.207,17.249 18.535,17.25 18.916,17.25 L19,17.25 L23,17.25 L23.084,17.25 C23.465,17.25 23.793,17.249 24.082,17.327 C24.859,17.535 25.465,18.141 25.673,18.918 C25.751,19.207 25.75,19.535 25.75,19.916 L25.75,20 L25.75,20.116 C25.75,20.934 25.75,21.492 25.622,21.971 C25.275,23.265 24.265,24.275 22.971,24.622 C22.492,24.75 21.934,24.75 21.116,24.75 L20.884,24.75 C20.066,24.75 19.508,24.75 19.029,24.622 C18.999,24.614 18.968,24.605 18.938,24.596 C12.322,23.601 7.25,17.893 7.25,11 L7.25,10.999 C7.251,8.376 9.377,6.25 12,6.25 Z M19.272,23.129 C19.834,23.208 20.408,23.25 20.991,23.25 L21,23.25 C21.978,23.25 22.32,23.244 22.582,23.173 C23.359,22.965 23.965,22.359 24.173,21.582 C24.244,21.32 24.25,20.978 24.25,20 C24.25,19.487 24.244,19.377 24.224,19.306 C24.155,19.047 23.953,18.845 23.694,18.776 C23.623,18.756 23.513,18.75 23,18.75 L19,18.75 C18.487,18.75 18.377,18.756 18.306,18.776 C18.047,18.845 17.845,19.047 17.776,19.306 C17.756,19.377 17.75,19.487 17.75,20 C17.75,20.978 17.756,21.32 17.827,21.582 C18.022,22.31 18.566,22.888 19.272,23.129 Z M8.75,11.003 C8.751,12.796 10.206,14.25 12,14.25 C12.69,14.25 13.25,13.69 13.25,13 L13.25,9 C13.25,8.31 12.69,7.75 12,7.75 C10.205,7.75 8.75,9.205 8.75,11 Z M23.25,14 C23.25,10.914 21.086,8.75 18,8.75 C17.586,8.75 17.25,8.414 17.25,8 C17.25,7.586 17.586,7.25 18,7.25 C21.914,7.25 24.75,10.086 24.75,14 C24.75,14.414 24.414,14.75 24,14.75 C23.586,14.75 23.25,14.414 23.25,14 Z M21,14.75 C20.586,14.75 20.25,14.414 20.25,14 C20.25,12.757 19.243,11.75 18,11.75 C17.586,11.75 17.25,11.414 17.25,11 C17.25,10.586 17.586,10.25 18,10.25 C20.071,10.25 21.75,11.929 21.75,14 C21.75,14.414 21.414,14.75 21,14.75 Z"/>
</svg>

