<svg xmlns="http://www.w3.org/2000/svg" viewBox="0 0 32 32">
  <defs/>
  <path fill="white" d="M24.235,9.093 C21.829,7.645 19.011,6.813 15.999,6.813 C12.987,6.813 10.169,7.645 7.763,9.093 C7.322,9.358 7.188,9.927 7.435,10.378 L15.122,24.4 C15.502,25.093 16.496,25.093 16.876,24.4 L24.562,10.378 C24.81,9.927 24.676,9.358 24.235,9.093 Z"/>
  <path fill="white" d="M7.634,12.158 L8.952,11.443 C8.945,11.429 8.937,11.416 8.93,11.402 L7.634,12.158 Z M14.461,24.738 L13.142,25.453 L13.142,25.453 L14.461,24.738 Z M6.821,10.766 L5.526,11.522 L5.526,11.522 L6.821,10.766 Z M7.399,8.437 L8.17,9.723 L8.17,9.723 L7.399,8.437 Z M24.599,8.437 L23.828,9.723 L23.828,9.723 L24.599,8.437 Z M25.176,10.766 L26.472,11.522 L26.472,11.522 L25.176,10.766 Z M24.363,12.158 L23.068,11.402 C23.06,11.416 23.052,11.429 23.045,11.443 L24.363,12.158 Z M17.537,24.738 L16.218,24.023 L16.218,24.023 L17.537,24.738 Z M23.881,10.009 L22.585,9.253 L22.585,9.253 L23.881,10.009 Z M23.423,10.794 L22.757,12.138 C23.464,12.488 24.321,12.231 24.718,11.55 L23.423,10.794 Z M23.828,9.723 L24.599,8.437 L24.599,8.437 L23.828,9.723 Z M15.999,7.563 L15.999,6.063 L15.999,7.563 Z M8.17,9.723 L7.399,8.437 L7.399,8.437 L8.17,9.723 Z M8.117,10.009 L9.412,9.253 L9.412,9.253 L8.117,10.009 Z M8.575,10.794 L7.279,11.55 C7.677,12.231 8.534,12.488 9.24,12.138 L8.575,10.794 Z M15.999,9.063 L15.999,7.563 L15.999,9.063 Z M9.838,13.074 L8.519,13.79 C8.738,14.192 9.129,14.473 9.58,14.552 C10.031,14.631 10.494,14.499 10.836,14.194 L9.838,13.074 Z M9.311,12.104 L8.652,10.756 C8.285,10.935 8.007,11.257 7.882,11.647 C7.758,12.036 7.798,12.46 7.993,12.819 L9.311,12.104 Z M12.856,18.636 L12.462,17.189 C12.02,17.309 11.657,17.625 11.477,18.047 C11.296,18.468 11.319,18.949 11.538,19.351 L12.856,18.636 Z M15.779,24.023 L14.461,24.738 L14.461,24.738 L15.779,24.023 Z M16.218,24.023 L17.537,24.738 L17.537,24.738 L16.218,24.023 Z M17.735,21.229 L19.053,21.944 C19.427,21.256 19.208,20.396 18.551,19.97 L17.735,21.229 Z M20.826,15.532 L20.214,16.901 C20.929,17.221 21.771,16.936 22.145,16.247 L20.826,15.532 Z M22.686,12.104 L24.005,12.819 C24.2,12.46 24.24,12.036 24.115,11.647 C23.991,11.257 23.713,10.935 23.345,10.756 L22.686,12.104 Z M15.999,10.563 L15.999,9.063 L15.999,9.063 L15.999,10.563 Z M20.107,16.858 L21.425,17.573 C21.633,17.191 21.664,16.737 21.511,16.329 C21.357,15.922 21.035,15.601 20.626,15.45 L20.107,16.858 Z M18.454,19.903 L17.556,21.105 C17.905,21.365 18.35,21.461 18.776,21.368 C19.201,21.275 19.565,21.001 19.773,20.618 L18.454,19.903 Z M10.591,14.462 L9.401,13.549 C9.04,14.019 8.99,14.657 9.273,15.178 L10.591,14.462 Z M12.13,17.298 L10.811,18.013 C11.004,18.367 11.33,18.629 11.717,18.74 C12.105,18.851 12.521,18.801 12.871,18.602 L12.13,17.298 Z M10.6,14.45 L11.79,15.363 C11.793,15.359 11.796,15.355 11.799,15.351 L10.6,14.45 Z M12.451,17.192 L12.066,15.742 L12.066,15.742 L12.451,17.192 Z M12.351,17.215 L12.053,15.745 L12.053,15.745 L12.351,17.215 Z M6.316,12.874 L13.142,25.453 L15.779,24.023 L8.952,11.443 L6.316,12.874 Z M5.526,11.522 L6.339,12.915 L8.93,11.402 L8.117,10.009 L5.526,11.522 Z M6.627,7.15 C5.041,8.101 4.687,10.085 5.526,11.522 L8.117,10.009 C8.085,9.955 8.076,9.89 8.089,9.833 C8.1,9.785 8.124,9.751 8.17,9.723 L6.627,7.15 Z M15.999,4.563 C12.577,4.563 9.368,5.507 6.627,7.15 L8.17,9.723 C10.458,8.352 13.135,7.563 15.999,7.563 L15.999,4.563 Z M25.37,7.15 C22.629,5.507 19.421,4.563 15.999,4.563 L15.999,7.563 C18.863,7.563 21.54,8.352 23.828,9.723 L25.37,7.15 Z M26.472,11.522 C27.311,10.085 26.956,8.101 25.37,7.15 L23.828,9.723 C23.874,9.751 23.897,9.785 23.908,9.833 C23.922,9.89 23.913,9.955 23.881,10.009 L26.472,11.522 Z M25.659,12.915 L26.472,11.522 L23.881,10.009 L23.068,11.402 L25.659,12.915 Z M18.855,25.453 L25.682,12.874 L23.045,11.443 L16.218,24.023 L18.855,25.453 Z M13.142,25.453 C14.372,27.72 17.625,27.72 18.855,25.453 L16.218,24.023 C16.124,24.197 15.874,24.197 15.779,24.023 L13.142,25.453 Z M22.585,9.253 L22.128,10.038 L24.718,11.55 L25.176,10.766 L22.585,9.253 Z M23.057,11.01 C22.43,10.634 22.241,9.843 22.585,9.253 L25.176,10.766 C25.665,9.929 25.374,8.901 24.599,8.437 L23.057,11.01 Z M15.999,9.063 C18.583,9.063 20.995,9.774 23.057,11.01 L24.599,8.437 C22.084,6.929 19.142,6.063 15.999,6.063 L15.999,9.063 Z M8.941,11.01 C11.002,9.774 13.414,9.063 15.999,9.063 L15.999,6.063 C12.856,6.063 9.913,6.929 7.399,8.437 L8.941,11.01 Z M9.412,9.253 C9.756,9.843 9.568,10.634 8.941,11.01 L7.399,8.437 C6.624,8.901 6.332,9.929 6.821,10.766 L9.412,9.253 Z M9.87,10.038 L9.412,9.253 L6.821,10.766 L7.279,11.55 L9.87,10.038 Z M15.999,7.563 C13.098,7.563 10.35,8.241 7.909,9.45 L9.24,12.138 C11.276,11.13 13.57,10.563 15.999,10.563 L15.999,7.563 Z M24.089,9.45 C21.648,8.241 18.9,7.563 15.999,7.563 L15.999,10.563 C18.427,10.563 20.721,11.13 22.757,12.138 L24.089,9.45 Z M11.156,12.359 L10.629,11.388 L7.993,12.819 L8.519,13.79 L11.156,12.359 Z M12.001,10.75 C10.787,10.75 9.677,11.207 8.839,11.955 L10.836,14.194 C11.146,13.917 11.553,13.75 12.001,13.75 L12.001,10.75 Z M16.75,15.5 C16.75,12.877 14.624,10.75 12.001,10.75 L12.001,13.75 C12.967,13.75 13.751,14.534 13.751,15.5 L16.75,15.5 Z M13.25,20.083 C15.265,19.535 16.75,17.694 16.75,15.5 L13.751,15.5 C13.751,16.305 13.206,16.986 12.462,17.189 L13.25,20.083 Z M17.097,23.307 L14.174,17.921 L11.538,19.351 L14.461,24.738 L17.097,23.307 Z M14.9,23.307 C15.373,22.435 16.624,22.435 17.097,23.307 L14.461,24.738 C15.123,25.958 16.875,25.959 17.537,24.738 L14.9,23.307 Z M16.416,20.513 L14.9,23.307 L17.537,24.738 L19.053,21.944 L16.416,20.513 Z M18.551,19.97 C18.066,19.656 17.75,19.115 17.75,18.5 L14.751,18.5 C14.751,20.175 15.618,21.644 16.919,22.487 L18.551,19.97 Z M17.75,18.5 C17.75,17.534 18.534,16.75 19.5,16.75 L19.5,13.75 C16.877,13.75 14.751,15.877 14.751,18.5 L17.75,18.5 Z M19.5,16.75 C19.757,16.75 19.997,16.804 20.214,16.901 L21.438,14.163 C20.845,13.897 20.188,13.75 19.5,13.75 L19.5,16.75 Z M21.368,11.388 L19.508,14.816 L22.145,16.247 L24.005,12.819 L21.368,11.388 Z M15.999,12.063 C18.166,12.063 20.21,12.563 22.028,13.451 L23.345,10.756 C21.126,9.671 18.632,9.063 15.999,9.063 L15.999,12.063 Z M9.97,13.451 C11.788,12.563 13.832,12.063 15.999,12.063 L15.999,9.063 C13.365,9.063 10.871,9.671 8.652,10.756 L9.97,13.451 Z M20.626,15.45 C20.273,15.32 19.893,15.25 19.5,15.25 L19.5,18.25 C19.535,18.25 19.563,18.256 19.587,18.265 L20.626,15.45 Z M19.5,15.25 C17.706,15.25 16.25,16.705 16.25,18.5 L19.25,18.5 C19.25,18.362 19.362,18.25 19.5,18.25 L19.5,15.25 Z M16.25,18.5 C16.25,19.566 16.765,20.514 17.556,21.105 L19.352,18.701 C19.288,18.653 19.25,18.581 19.25,18.5 L16.25,18.5 Z M18.788,16.142 L17.136,19.188 L19.773,20.618 L21.425,17.573 L18.788,16.142 Z M9.273,15.178 L10.811,18.013 L13.448,16.582 L11.909,13.747 L9.273,15.178 Z M9.41,13.537 L9.401,13.549 L11.781,15.375 L11.79,15.363 L9.41,13.537 Z M12.001,12.25 C10.938,12.25 9.993,12.761 9.401,13.549 L11.799,15.351 C11.848,15.286 11.919,15.25 12.001,15.25 L12.001,12.25 Z M15.251,15.5 C15.251,13.705 13.795,12.25 12.001,12.25 L12.001,15.25 C12.139,15.25 12.251,15.362 12.251,15.5 L15.251,15.5 Z M12.836,18.642 C14.227,18.272 15.251,17.006 15.251,15.5 L12.251,15.5 C12.251,15.614 12.173,15.714 12.066,15.742 L12.836,18.642 Z M12.65,18.685 C12.712,18.672 12.774,18.658 12.836,18.642 L12.066,15.742 C12.062,15.743 12.057,15.744 12.053,15.745 L12.65,18.685 Z M12.871,18.602 C12.802,18.641 12.727,18.669 12.65,18.685 L12.053,15.745 C11.816,15.793 11.592,15.878 11.389,15.994 L12.871,18.602 Z"/>
  <path fill="#151E28" d="M14.461,24.738 L7.634,12.158 L6.821,10.766 C6.364,9.982 6.572,8.932 7.399,8.437 C9.913,6.929 12.856,6.063 15.999,6.063 C19.142,6.063 22.084,6.929 24.599,8.437 C25.426,8.932 25.634,9.982 25.176,10.766 L24.364,12.158 L17.537,24.738 C16.875,25.958 15.123,25.958 14.461,24.738 Z M9.311,12.104 L9.838,13.074 C10.412,12.562 11.17,12.25 12,12.25 C13.795,12.25 15.25,13.705 15.25,15.5 C15.25,17 14.235,18.26 12.856,18.636 L15.779,24.023 C15.874,24.197 16.124,24.197 16.219,24.023 L17.735,21.229 C16.842,20.65 16.25,19.645 16.25,18.5 C16.25,16.705 17.706,15.25 19.5,15.25 C19.972,15.25 20.421,15.351 20.826,15.532 L22.687,12.104 C20.668,11.117 18.399,10.563 15.999,10.563 C13.599,10.563 11.33,11.117 9.311,12.104 Z M23.423,10.794 L23.881,10.009 C23.953,9.886 23.902,9.767 23.828,9.723 C21.54,8.352 18.862,7.563 15.999,7.563 C13.135,7.563 10.458,8.352 8.17,9.723 C8.096,9.767 8.044,9.886 8.117,10.009 L8.575,10.794 C10.813,9.686 13.334,9.063 15.999,9.063 C18.663,9.063 21.185,9.686 23.423,10.794 Z M12.13,17.298 C12.197,17.26 12.271,17.231 12.351,17.215 C12.385,17.208 12.418,17.2 12.451,17.192 C13.2,16.993 13.75,16.31 13.75,15.5 C13.75,14.533 12.967,13.75 12,13.75 C11.429,13.75 10.921,14.024 10.6,14.45 L10.591,14.462 Z M20.107,16.858 C19.918,16.788 19.714,16.75 19.5,16.75 C18.534,16.75 17.75,17.534 17.75,18.5 C17.75,19.073 18.026,19.583 18.454,19.903 Z"/>
</svg>

