<svg xmlns="http://www.w3.org/2000/svg" viewBox="0 0 32 32">
  <defs/>
  <path fill="white" d="M24,16 C24,20.418 20.418,24 16,24 C11.582,24 8,20.418 8,16 C8,11.582 11.582,8 16,8 C20.418,8 24,11.582 24,16 Z"/>
  <path fill="white" d="M16,8.75 L16,7.25 L16,8.75 Z M8.75,16 L10.25,16 L10.25,16 L8.75,16 Z M22.522,12.829 L21.173,13.486 L21.173,13.486 L22.522,12.829 Z M23.524,13.174 L22.867,11.826 L22.867,11.826 L23.524,13.174 Z M23.87,12.171 L22.522,12.829 L22.522,12.829 L23.87,12.171 Z M7.25,16 L8.75,16 L8.75,16 L7.25,16 Z M8.765,20.922 L7.526,21.767 L7.526,21.767 L8.765,20.922 Z M10.005,20.078 L11.244,19.233 L11.244,19.233 L10.005,20.078 Z M23.836,17.788 L24.304,16.363 L24.304,16.363 L23.836,17.788 Z M24.314,18.734 L22.889,18.266 L22.889,18.266 L24.314,18.734 Z M22.889,18.266 L24.314,18.734 L24.314,18.734 L22.889,18.266 Z M14.187,23.022 L14.561,21.569 L14.561,21.569 L14.187,23.022 Z M13.274,23.561 L11.821,23.187 L11.821,23.187 L13.274,23.561 Z M13.813,24.474 L14.187,23.022 L14.187,23.022 L13.813,24.474 Z M6.943,18.097 L6.057,19.307 L6.057,19.307 L6.943,18.097 Z M7.105,19.145 L8.316,20.031 L8.316,20.031 L7.105,19.145 Z M5.895,18.259 L7.105,19.145 L7.105,19.145 L5.895,18.259 Z M4.794,20.357 L6.239,20.763 L6.239,20.763 L4.794,20.357 Z M4.959,22.375 L3.659,23.125 L3.659,23.125 L4.959,22.375 Z M7.096,23.619 L6.881,25.104 L6.881,25.104 L7.096,23.619 Z M10.216,23.427 L9.916,21.957 L9.916,21.957 L10.216,23.427 Z M18.375,20.114 L17.625,18.815 L17.625,18.815 L18.375,20.114 Z M25.324,14.704 L24.202,13.709 L24.202,13.709 L25.324,14.704 Z M27.051,12.098 L25.658,11.542 L25.658,11.542 L27.051,12.098 Z M27.042,9.625 L25.743,10.375 L25.743,10.375 L27.042,9.625 Z M25.55,8.522 L25.988,7.088 L25.988,7.088 L25.55,8.522 Z M23.451,8.339 L23.354,6.843 L23.354,6.843 L23.451,8.339 Z M22.752,9.137 L21.255,9.234 L21.255,9.234 L22.752,9.137 Z M23.549,9.836 L23.647,11.333 L23.647,11.333 L23.549,9.836 Z M25.112,9.957 L24.674,11.392 L24.674,11.392 L25.112,9.957 Z M25.743,10.375 L24.444,11.125 L24.444,11.125 L25.743,10.375 Z M25.658,11.542 L27.051,12.098 L27.051,12.098 L25.658,11.542 Z M24.202,13.709 L23.08,12.714 L23.08,12.714 L24.202,13.709 Z M9.916,21.957 L9.615,20.488 L9.615,20.488 L9.916,21.957 Z M7.311,22.135 L7.526,20.65 L7.526,20.65 L7.311,22.135 Z M6.258,21.625 L4.959,22.375 L4.959,22.375 L6.258,21.625 Z M6.239,20.763 L7.683,21.168 L7.683,21.168 L6.239,20.763 Z M16,7.25 C11.168,7.25 7.25,11.168 7.25,16 L10.25,16 C10.25,12.824 12.825,10.25 16,10.25 L16,7.25 Z M23.87,12.171 C22.451,9.259 19.461,7.25 16,7.25 L16,10.25 C18.271,10.25 20.238,11.566 21.173,13.486 L23.87,12.171 Z M22.867,11.826 C23.24,11.644 23.689,11.799 23.87,12.171 L21.173,13.486 C21.718,14.603 23.064,15.067 24.181,14.523 L22.867,11.826 Z M22.522,12.829 C22.34,12.456 22.495,12.007 22.867,11.826 L24.181,14.523 C25.299,13.978 25.763,12.631 25.218,11.514 L22.522,12.829 Z M16,8.75 C18.865,8.75 21.344,10.412 22.522,12.829 L25.218,11.514 C23.558,8.106 20.056,5.75 16,5.75 L16,8.75 Z M8.75,16 C8.75,11.996 11.996,8.75 16,8.75 L16,5.75 C10.339,5.75 5.75,10.339 5.75,16 L8.75,16 Z M10.005,20.078 C9.213,18.916 8.75,17.513 8.75,16 L5.75,16 C5.75,18.135 6.405,20.123 7.526,21.767 L10.005,20.078 Z M8.962,19.88 C9.305,19.647 9.771,19.735 10.005,20.078 L7.526,21.767 C8.225,22.794 9.625,23.059 10.652,22.359 L8.962,19.88 Z M8.765,20.922 C8.532,20.58 8.62,20.113 8.962,19.88 L10.652,22.359 C11.679,21.659 11.944,20.26 11.244,19.233 L8.765,20.922 Z M7.25,16 C7.25,17.824 7.809,19.52 8.765,20.922 L11.244,19.233 C10.617,18.312 10.25,17.202 10.25,16 L7.25,16 Z M23.368,19.212 C22.974,19.083 22.76,18.659 22.889,18.266 L25.739,19.203 C26.127,18.022 25.485,16.75 24.304,16.363 L23.368,19.212 Z M24.314,18.734 C24.185,19.128 23.761,19.342 23.368,19.212 L24.304,16.363 C23.124,15.975 21.852,16.617 21.464,17.797 L24.314,18.734 Z M16,24.75 C19.878,24.75 23.166,22.227 24.314,18.734 L21.464,17.797 C20.709,20.095 18.545,21.75 16,21.75 L16,24.75 Z M13.813,24.474 C14.513,24.654 15.246,24.75 16,24.75 L16,21.75 C15.5,21.75 15.018,21.687 14.561,21.569 L13.813,24.474 Z M14.726,23.935 C14.623,24.336 14.214,24.578 13.813,24.474 L14.561,21.569 C13.358,21.259 12.131,21.984 11.821,23.187 L14.726,23.935 Z M14.187,23.022 C14.588,23.125 14.83,23.534 14.726,23.935 L11.821,23.187 C11.511,24.391 12.236,25.617 13.439,25.927 L14.187,23.022 Z M16,23.25 C15.373,23.25 14.766,23.171 14.187,23.022 L13.439,25.927 C14.26,26.138 15.119,26.25 16,26.25 L16,23.25 Z M22.889,18.266 C21.938,21.161 19.212,23.25 16,23.25 L16,26.25 C20.546,26.25 24.395,23.292 25.739,19.203 L22.889,18.266 Z M6.057,19.307 C5.723,19.063 5.65,18.593 5.895,18.259 L8.316,20.031 C9.05,19.029 8.832,17.621 7.829,16.887 L6.057,19.307 Z M7.105,19.145 C6.861,19.48 6.391,19.552 6.057,19.307 L7.829,16.887 C6.826,16.153 5.419,16.37 4.685,17.373 L7.105,19.145 Z M6.239,20.763 C6.362,20.321 6.645,19.775 7.105,19.145 L4.685,17.373 C4.104,18.166 3.606,19.04 3.35,19.952 L6.239,20.763 Z M6.258,21.625 C6.166,21.467 6.115,21.204 6.239,20.763 L3.35,19.952 C3.093,20.869 3.03,22.035 3.659,23.125 L6.258,21.625 Z M7.311,22.135 C6.649,22.039 6.368,21.817 6.258,21.625 L3.659,23.125 C4.429,24.458 5.796,24.947 6.881,25.104 L7.311,22.135 Z M9.916,21.957 C8.84,22.178 7.958,22.228 7.311,22.135 L6.881,25.104 C8.001,25.266 9.261,25.154 10.517,24.896 L9.916,21.957 Z M17.625,18.815 C14.806,20.442 12.06,21.519 9.916,21.957 L10.517,24.896 C13.055,24.377 16.105,23.157 19.125,21.413 L17.625,18.815 Z M24.202,13.709 C22.75,15.347 20.445,17.187 17.625,18.815 L19.125,21.413 C22.146,19.669 24.728,17.637 26.447,15.7 L24.202,13.709 Z M25.658,11.542 C25.416,12.149 24.931,12.887 24.202,13.709 L26.447,15.7 C27.297,14.74 28.025,13.705 28.444,12.654 L25.658,11.542 Z M25.743,10.375 C25.854,10.567 25.906,10.921 25.658,11.542 L28.444,12.654 C28.85,11.636 29.111,10.208 28.341,8.875 L25.743,10.375 Z M25.112,9.957 C25.483,10.07 25.659,10.229 25.743,10.375 L28.341,8.875 C27.767,7.88 26.844,7.349 25.988,7.088 L25.112,9.957 Z M23.549,9.836 C24.216,9.793 24.737,9.842 25.112,9.957 L25.988,7.088 C25.147,6.831 24.232,6.785 23.354,6.843 L23.549,9.836 Z M24.249,9.039 C24.276,9.452 23.962,9.809 23.549,9.836 L23.354,6.843 C22.114,6.924 21.174,7.994 21.255,9.234 L24.249,9.039 Z M23.451,8.339 C23.865,8.312 24.222,8.626 24.249,9.039 L21.255,9.234 C21.336,10.474 22.407,11.414 23.647,11.333 L23.451,8.339 Z M25.55,8.522 C24.942,8.337 24.224,8.289 23.451,8.339 L23.647,11.333 C24.208,11.296 24.532,11.348 24.674,11.392 L25.55,8.522 Z M27.042,9.625 C26.715,9.058 26.168,8.711 25.55,8.522 L24.674,11.392 C24.738,11.411 24.721,11.415 24.664,11.375 C24.601,11.33 24.515,11.249 24.444,11.125 L27.042,9.625 Z M27.051,12.098 C27.381,11.271 27.48,10.383 27.042,9.625 L24.444,11.125 C24.343,10.95 24.334,10.807 24.335,10.764 C24.336,10.731 24.341,10.795 24.265,10.986 L27.051,12.098 Z M25.324,14.704 C26.114,13.814 26.72,12.927 27.051,12.098 L24.265,10.986 C24.111,11.371 23.747,11.961 23.08,12.714 L25.324,14.704 Z M18.375,20.114 C21.296,18.428 23.739,16.492 25.324,14.704 L23.08,12.714 C21.761,14.201 19.594,15.946 16.875,17.515 L18.375,20.114 Z M10.216,23.427 C12.557,22.948 15.455,21.8 18.375,20.114 L16.875,17.515 C14.157,19.085 11.563,20.089 9.615,20.488 L10.216,23.427 Z M7.096,23.619 C7.979,23.747 9.05,23.666 10.216,23.427 L9.615,20.488 C8.629,20.69 7.936,20.709 7.526,20.65 L7.096,23.619 Z M4.959,22.375 C5.396,23.133 6.214,23.491 7.096,23.619 L7.526,20.65 C7.322,20.621 7.269,20.584 7.299,20.6 C7.337,20.621 7.455,20.7 7.557,20.875 L4.959,22.375 Z M4.794,20.357 C4.602,21.042 4.6,21.755 4.959,22.375 L7.557,20.875 C7.636,21.012 7.66,21.135 7.664,21.207 C7.668,21.27 7.655,21.265 7.683,21.168 L4.794,20.357 Z M5.895,18.259 C5.375,18.97 4.984,19.681 4.794,20.357 L7.683,21.168 C7.741,20.962 7.915,20.579 8.316,20.031 L5.895,18.259 Z"/>
  <path fill="#151E28" d="M7.105,19.145 C6.645,19.775 6.362,20.321 6.239,20.763 C6.115,21.201 6.165,21.465 6.258,21.625 C6.37,21.819 6.653,22.039 7.311,22.135 C7.958,22.228 8.84,22.178 9.916,21.957 C12.06,21.519 14.806,20.442 17.625,18.815 C20.445,17.187 22.75,15.347 24.202,13.709 C24.931,12.887 25.416,12.149 25.658,11.542 C25.904,10.925 25.855,10.569 25.743,10.375 C25.658,10.228 25.481,10.07 25.112,9.957 C24.737,9.842 24.216,9.793 23.549,9.836 C23.136,9.863 22.779,9.55 22.752,9.137 C22.725,8.723 23.038,8.366 23.451,8.339 C24.224,8.289 24.942,8.337 25.55,8.522 C26.163,8.71 26.713,9.055 27.042,9.625 C27.483,10.388 27.378,11.279 27.051,12.098 C26.72,12.927 26.114,13.814 25.324,14.704 C23.739,16.492 21.295,18.428 18.375,20.114 C15.455,21.8 12.557,22.948 10.217,23.427 C9.05,23.666 7.979,23.747 7.096,23.619 C6.223,23.493 5.399,23.138 4.959,22.375 C4.598,21.751 4.604,21.036 4.794,20.357 C4.984,19.681 5.375,18.97 5.895,18.259 C6.14,17.925 6.609,17.852 6.943,18.097 C7.277,18.342 7.35,18.811 7.105,19.145 Z M8.75,16 C8.75,17.513 9.213,18.916 10.005,20.078 C10.238,20.42 10.149,20.886 9.807,21.12 C9.465,21.353 8.998,21.265 8.765,20.922 C7.809,19.52 7.25,17.824 7.25,16 C7.25,11.167 11.168,7.25 16,7.25 C19.461,7.25 22.451,9.259 23.87,12.172 C24.052,12.544 23.897,12.993 23.524,13.174 C23.152,13.356 22.703,13.201 22.522,12.828 C21.344,10.412 18.866,8.75 16,8.75 C11.996,8.75 8.75,11.996 8.75,16 Z M24.314,18.734 C23.166,22.227 19.879,24.75 16,24.75 C15.246,24.75 14.513,24.654 13.813,24.474 C13.412,24.371 13.171,23.962 13.274,23.561 C13.377,23.16 13.786,22.918 14.187,23.022 C14.766,23.171 15.373,23.25 16,23.25 C19.212,23.25 21.938,21.161 22.889,18.266 C23.019,17.872 23.442,17.658 23.836,17.788 C24.229,17.917 24.444,18.341 24.314,18.734 Z"/>
</svg>

