<svg xmlns="http://www.w3.org/2000/svg" viewBox="0 0 32 32">
  <defs/>
  <path fill="white" d="M9,10 C9,8.895 9.895,8 11,8 C11.087,8 11.174,8.006 11.258,8.017 C11.601,7.41 12.253,7 13,7 C13.412,7 13.794,7.124 14.112,7.338 C14.386,6.559 15.128,6 16,6 C16.872,6 17.614,6.559 17.888,7.338 C18.206,7.124 18.588,7 19,7 C19.747,7 20.399,7.41 20.742,8.017 C20.826,8.006 20.913,8 21,8 C22.105,8 23,8.895 23,10 C23,10.412 22.876,10.794 22.662,11.112 C23.441,11.386 24,12.128 24,13 C24,13.74 23.598,14.387 23,14.732 L22.761,14.732 C23.255,15.27 23.49,16.04 23.294,16.823 L21.728,23.09 C21.576,23.696 21.5,23.999 21.383,24.254 C20.977,25.137 20.168,25.768 19.213,25.948 C18.938,26 18.625,26 18,26 L14,26 C13.375,26 13.062,26 12.787,25.948 C11.832,25.768 11.023,25.137 10.617,24.254 C10.5,23.999 10.424,23.696 10.272,23.09 L8.706,16.823 C8.51,16.04 8.745,15.27 9.239,14.732 L9,14.732 C8.402,14.387 8,13.74 8,13 C8,12.128 8.559,11.386 9.338,11.112 C9.124,10.794 9,10.412 9,10 Z M12.58,14.732 C12.912,15.092 13.13,15.561 13.174,16.083 L13.249,16.989 C13.176,16.103 13.527,15.287 14.127,14.732 Z M17.873,14.732 C18.473,15.287 18.824,16.103 18.751,16.989 L18.826,16.083 C18.87,15.561 19.088,15.092 19.42,14.732 Z"/>
  <path fill="white" d="M14.82,7.586 L16.235,8.083 L16.235,8.083 L14.82,7.586 Z M17.18,7.586 L18.595,7.089 L18.595,7.089 L17.18,7.586 Z M17.651,8.049 L17.177,9.472 L17.177,9.472 L17.651,8.049 Z M18.305,7.961 L19.141,9.206 L19.141,9.206 L18.305,7.961 Z M20.089,8.386 L18.784,9.125 L18.784,9.125 L20.089,8.386 Z M20.838,8.76 L21.029,10.248 L21.029,10.248 L20.838,8.76 Z M22.04,10.695 L23.285,11.53 L23.285,11.53 L22.04,10.695 Z M21.951,11.349 L20.528,11.823 L20.528,11.823 L21.951,11.349 Z M22.414,11.82 L21.917,13.235 L21.917,13.235 L22.414,11.82 Z M22.91,13.858 L22.004,15.054 C22.615,15.516 23.475,15.444 24,14.887 L22.91,13.858 Z M18.662,14.473 L17.525,15.45 C17.822,15.796 18.261,15.988 18.716,15.972 C19.172,15.955 19.595,15.732 19.867,15.366 L18.662,14.473 Z M13.338,14.473 L12.133,15.366 C12.405,15.732 12.828,15.955 13.284,15.972 C13.739,15.988 14.178,15.796 14.475,15.45 L13.338,14.473 Z M9.091,13.858 L8,14.887 C8.525,15.444 9.385,15.516 9.996,15.054 L9.091,13.858 Z M9.586,11.82 L10.083,13.235 L10.083,13.235 L9.586,11.82 Z M10.049,11.349 L8.626,10.875 L8.626,10.875 L10.049,11.349 Z M9.961,10.695 L8.715,11.53 L8.715,11.53 L9.961,10.695 Z M11.162,8.76 L10.971,10.248 L10.971,10.248 L11.162,8.76 Z M11.911,8.386 L10.605,7.647 L10.605,7.647 L11.911,8.386 Z M13.695,7.961 L14.53,6.715 L14.53,6.715 L13.695,7.961 Z M14.349,8.049 L14.823,9.472 L14.823,9.472 L14.349,8.049 Z M8.151,15.036 L9.519,15.652 C9.786,15.059 9.641,14.363 9.16,13.926 L8.151,15.036 Z M8.365,10.789 L9.258,11.994 C9.765,11.618 9.983,10.964 9.802,10.359 L8.365,10.789 Z M10.877,7.253 L10.943,8.751 C11.367,8.732 11.764,8.534 12.034,8.206 L10.877,7.253 Z M13.789,6.365 L13.359,7.802 C13.964,7.983 14.618,7.765 14.994,7.258 L13.789,6.365 Z M18.211,6.365 L17.006,7.258 C17.382,7.765 18.036,7.983 18.641,7.802 L18.211,6.365 Z M21.123,7.253 L19.966,8.206 C20.236,8.534 20.633,8.732 21.057,8.751 L21.123,7.253 Z M23.635,10.789 L22.198,10.359 C22.017,10.964 22.235,11.618 22.742,11.994 L23.635,10.789 Z M23.849,15.036 L22.84,13.926 C22.359,14.363 22.214,15.059 22.481,15.652 L23.849,15.036 Z M24.022,17.005 L22.567,16.641 L22.567,16.641 L24.022,17.005 Z M22.455,23.271 L21,22.908 L21,22.908 L22.455,23.271 Z M22.437,23.345 L20.982,22.982 L20.982,22.982 L22.437,23.345 Z M22.065,24.567 L23.427,25.194 L23.427,25.194 L22.065,24.567 Z M19.352,26.685 L19.629,28.159 L19.629,28.159 L19.352,26.685 Z M18.076,26.75 L18.076,25.25 L18.076,25.25 L18.076,26.75 Z M18,26.75 L18,25.25 L18,25.25 L18,26.75 Z M14,26.75 L14,25.25 L14,25.25 L14,26.75 Z M13.924,26.75 L13.924,25.25 L13.924,25.25 L13.924,26.75 Z M12.648,26.685 L12.371,28.159 L12.371,28.159 L12.648,26.685 Z M9.935,24.567 L8.573,25.194 L8.573,25.194 L9.935,24.567 Z M9.563,23.345 L11.018,22.982 L11.018,22.982 L9.563,23.345 Z M9.545,23.271 L11,22.908 L11,22.908 L9.545,23.271 Z M7.978,17.005 L6.523,17.369 L6.523,17.369 L7.978,17.005 Z M12.426,16.145 L13.921,16.021 L13.921,16.021 L12.426,16.145 Z M12.502,17.051 L13.996,16.927 L13.996,16.926 L12.502,17.051 Z M12.502,17.052 L11.007,17.176 L11.007,17.177 L12.502,17.052 Z M13.184,25.24 L13.103,26.737 C13.536,26.761 13.958,26.596 14.26,26.285 C14.562,25.974 14.715,25.547 14.679,25.115 L13.184,25.24 Z M12.926,25.211 L12.648,26.685 L12.648,26.685 L12.926,25.211 Z M11.298,23.94 L12.661,23.313 L12.661,23.313 L11.298,23.94 Z M11,22.908 L12.455,22.544 L12.455,22.544 L11,22.908 Z M9.433,16.641 L10.889,16.277 L10.889,16.277 L9.433,16.641 Z M13.996,16.927 L12.502,17.051 L12.502,17.051 L13.996,16.927 Z M18.003,16.927 L19.498,17.052 L19.498,17.051 L18.003,16.927 Z M18.003,16.927 L16.509,16.802 L16.509,16.803 L18.003,16.927 Z M17.31,25.25 L17.31,26.75 C18.09,26.75 18.74,26.152 18.805,25.375 L17.31,25.25 Z M14.69,25.25 L13.195,25.375 C13.26,26.152 13.91,26.75 14.69,26.75 L14.69,25.25 Z M19.498,17.052 L18.004,16.926 L18.003,16.927 L19.498,17.052 Z M19.498,17.052 L20.993,17.178 L20.993,17.176 L19.498,17.052 Z M18.816,25.24 L17.321,25.115 C17.285,25.547 17.438,25.974 17.74,26.285 C18.042,26.596 18.464,26.761 18.897,26.737 L18.816,25.24 Z M19.074,25.211 L19.352,26.685 L19.352,26.685 L19.074,25.211 Z M20.702,23.94 L19.339,23.313 L19.339,23.313 L20.702,23.94 Z M21,22.908 L22.455,23.271 L22.455,23.271 L21,22.908 Z M22.567,16.641 L21.111,16.277 L21.111,16.277 L22.567,16.641 Z M19.574,16.145 L18.079,16.021 L18.079,16.021 L19.574,16.145 Z M16,5.25 C14.801,5.25 13.781,6.017 13.405,7.089 L16.235,8.083 C16.202,8.179 16.111,8.25 16,8.25 L16,5.25 Z M18.595,7.089 C18.219,6.017 17.199,5.25 16,5.25 L16,8.25 C15.889,8.25 15.798,8.179 15.765,8.083 L18.595,7.089 Z M18.125,6.626 C18.345,6.699 18.519,6.87 18.595,7.089 L15.765,8.083 C15.995,8.739 16.517,9.253 17.177,9.472 L18.125,6.626 Z M17.47,6.715 C17.663,6.585 17.904,6.553 18.125,6.626 L17.177,9.472 C17.837,9.692 18.562,9.594 19.141,9.206 L17.47,6.715 Z M19,6.25 C18.435,6.25 17.908,6.421 17.47,6.715 L19.141,9.206 C19.099,9.234 19.048,9.25 19,9.25 L19,6.25 Z M21.395,7.647 C20.923,6.813 20.027,6.25 19,6.25 L19,9.25 C18.905,9.25 18.824,9.196 18.784,9.125 L21.395,7.647 Z M20.646,7.273 C20.948,7.234 21.244,7.382 21.395,7.647 L18.784,9.125 C19.234,9.921 20.122,10.365 21.029,10.248 L20.646,7.273 Z M21,7.25 C20.88,7.25 20.762,7.258 20.646,7.273 L21.029,10.248 C21.019,10.249 21.009,10.25 21,10.25 L21,7.25 Z M23.75,10 C23.75,8.481 22.519,7.25 21,7.25 L21,10.25 C20.862,10.25 20.75,10.138 20.75,10 L23.75,10 Z M23.285,11.53 C23.579,11.092 23.75,10.565 23.75,10 L20.75,10 C20.75,9.952 20.766,9.901 20.794,9.859 L23.285,11.53 Z M23.374,10.875 C23.447,11.096 23.415,11.337 23.285,11.53 L20.794,9.859 C20.406,10.438 20.308,11.163 20.528,11.823 L23.374,10.875 Z M22.911,10.405 C23.13,10.481 23.301,10.655 23.374,10.875 L20.528,11.823 C20.747,12.483 21.261,13.005 21.917,13.235 L22.911,10.405 Z M24.75,13 C24.75,11.801 23.983,10.781 22.911,10.405 L21.917,13.235 C21.821,13.202 21.75,13.111 21.75,13 L24.75,13 Z M24,14.887 C24.465,14.395 24.75,13.728 24.75,13 L21.75,13 C21.75,12.935 21.777,12.872 21.819,12.828 L24,14.887 Z M23.815,12.662 C23.062,12.092 22.12,11.75 21.09,11.75 L21.09,14.75 C21.443,14.75 21.754,14.865 22.004,15.054 L23.815,12.662 Z M21.09,11.75 C19.608,11.75 18.283,12.467 17.458,13.579 L19.867,15.366 C20.147,14.989 20.593,14.75 21.09,14.75 L21.09,11.75 Z M19.8,13.495 C18.887,12.433 17.527,11.75 16,11.75 L16,14.75 C16.613,14.75 17.155,15.02 17.525,15.45 L19.8,13.495 Z M16,11.75 C14.473,11.75 13.113,12.433 12.2,13.495 L14.475,15.45 C14.845,15.02 15.387,14.75 16,14.75 L16,11.75 Z M14.542,13.579 C13.717,12.467 12.392,11.75 10.91,11.75 L10.91,14.75 C11.407,14.75 11.853,14.989 12.133,15.366 L14.542,13.579 Z M10.91,11.75 C9.88,11.75 8.938,12.092 8.185,12.662 L9.996,15.054 C10.246,14.865 10.557,14.75 10.91,14.75 L10.91,11.75 Z M7.25,13 C7.25,13.728 7.535,14.395 8,14.887 L10.181,12.828 C10.223,12.872 10.25,12.935 10.25,13 L7.25,13 Z M9.089,10.405 C8.017,10.781 7.25,11.801 7.25,13 L10.25,13 C10.25,13.111 10.179,13.202 10.083,13.235 L9.089,10.405 Z M8.626,10.875 C8.699,10.655 8.87,10.481 9.089,10.405 L10.083,13.235 C10.739,13.005 11.252,12.483 11.472,11.823 L8.626,10.875 Z M8.715,11.53 C8.585,11.337 8.553,11.096 8.626,10.875 L11.472,11.823 C11.692,11.163 11.594,10.438 11.207,9.859 L8.715,11.53 Z M8.25,10 C8.25,10.565 8.421,11.092 8.715,11.53 L11.207,9.859 C11.234,9.901 11.25,9.952 11.25,10 L8.25,10 Z M11,7.25 C9.481,7.25 8.25,8.481 8.25,10 L11.25,10 C11.25,10.138 11.138,10.25 11,10.25 L11,7.25 Z M11.354,7.273 C11.238,7.258 11.12,7.25 11,7.25 L11,10.25 C10.991,10.25 10.981,10.249 10.971,10.248 L11.354,7.273 Z M10.605,7.647 C10.756,7.382 11.052,7.234 11.354,7.273 L10.971,10.248 C11.878,10.365 12.766,9.921 13.216,9.125 L10.605,7.647 Z M13,6.25 C11.973,6.25 11.077,6.813 10.605,7.647 L13.216,9.125 C13.176,9.196 13.095,9.25 13,9.25 L13,6.25 Z M14.53,6.715 C14.092,6.421 13.565,6.25 13,6.25 L13,9.25 C12.952,9.25 12.9,9.234 12.859,9.206 L14.53,6.715 Z M13.875,6.626 C14.096,6.553 14.337,6.585 14.53,6.715 L12.859,9.206 C13.438,9.594 14.163,9.692 14.823,9.472 L13.875,6.626 Z M13.405,7.089 C13.481,6.87 13.655,6.699 13.875,6.626 L14.823,9.472 C15.483,9.253 16.005,8.739 16.235,8.083 L13.405,7.089 Z M9.16,13.926 C8.906,13.695 8.75,13.367 8.75,13 L5.75,13 C5.75,14.248 6.29,15.372 7.142,16.146 L9.16,13.926 Z M8.75,13 C8.75,12.589 8.947,12.225 9.258,11.994 L7.472,9.583 C6.431,10.354 5.75,11.597 5.75,13 L8.75,13 Z M9.802,10.359 C9.768,10.246 9.75,10.126 9.75,10 L6.75,10 C6.75,10.421 6.812,10.831 6.928,11.219 L9.802,10.359 Z M9.75,10 C9.75,9.329 10.28,8.781 10.943,8.751 L10.81,5.754 C8.55,5.854 6.75,7.716 6.75,10 L9.75,10 Z M12.034,8.206 C12.266,7.926 12.612,7.75 13,7.75 L13,4.75 C11.676,4.75 10.495,5.357 9.719,6.299 L12.034,8.206 Z M13,7.75 C13.126,7.75 13.246,7.768 13.359,7.802 L14.219,4.928 C13.831,4.812 13.421,4.75 13,4.75 L13,7.75 Z M14.994,7.258 C15.225,6.947 15.589,6.75 16,6.75 L16,3.75 C14.597,3.75 13.354,4.431 12.583,5.472 L14.994,7.258 Z M16,6.75 C16.411,6.75 16.776,6.947 17.006,7.258 L19.417,5.472 C18.646,4.431 17.403,3.75 16,3.75 L16,6.75 Z M18.641,7.802 C18.753,7.768 18.874,7.75 19,7.75 L19,4.75 C18.579,4.75 18.169,4.812 17.781,4.928 L18.641,7.802 Z M19,7.75 C19.388,7.75 19.734,7.926 19.966,8.206 L22.281,6.299 C21.505,5.357 20.324,4.75 19,4.75 L19,7.75 Z M21.057,8.751 C21.72,8.781 22.25,9.329 22.25,10 L25.25,10 C25.25,7.716 23.45,5.854 21.19,5.754 L21.057,8.751 Z M22.25,10 C22.25,10.126 22.232,10.246 22.198,10.359 L25.072,11.219 C25.188,10.831 25.25,10.421 25.25,10 L22.25,10 Z M22.742,11.994 C23.053,12.225 23.25,12.589 23.25,13 L26.25,13 C26.25,11.597 25.569,10.354 24.528,9.583 L22.742,11.994 Z M23.25,13 C23.25,13.367 23.094,13.695 22.84,13.926 L24.858,16.146 C25.71,15.372 26.25,14.248 26.25,13 L23.25,13 Z M25.477,17.369 C25.735,16.336 25.616,15.307 25.216,14.42 L22.481,15.652 C22.614,15.947 22.655,16.288 22.567,16.641 L25.477,17.369 Z M23.91,23.635 L25.477,17.369 L22.567,16.641 L21,22.908 L23.91,23.635 Z M23.892,23.709 L23.91,23.635 L21,22.908 L20.982,22.982 L23.892,23.709 Z M23.427,25.194 C23.645,24.72 23.77,24.199 23.892,23.709 L20.982,22.982 C20.837,23.562 20.777,23.776 20.702,23.94 L23.427,25.194 Z M19.629,28.159 C21.301,27.845 22.716,26.739 23.427,25.194 L20.702,23.94 C20.397,24.603 19.791,25.076 19.074,25.211 L19.629,28.159 Z M18.076,28.25 C18.581,28.25 19.117,28.256 19.629,28.159 L19.074,25.211 C18.896,25.245 18.674,25.25 18.076,25.25 L18.076,28.25 Z M18,28.25 L18.076,28.25 L18.076,25.25 L18,25.25 L18,28.25 Z M14,28.25 L18,28.25 L18,25.25 L14,25.25 L14,28.25 Z M13.924,28.25 L14,28.25 L14,25.25 L13.924,25.25 L13.924,28.25 Z M12.371,28.159 C12.883,28.256 13.419,28.25 13.925,28.25 L13.924,25.25 C13.326,25.25 13.104,25.245 12.926,25.211 L12.371,28.159 Z M8.573,25.194 C9.284,26.739 10.699,27.845 12.371,28.159 L12.926,25.211 C12.21,25.076 11.603,24.603 11.298,23.94 L8.573,25.194 Z M8.108,23.709 C8.23,24.199 8.355,24.72 8.573,25.194 L11.298,23.94 C11.223,23.776 11.163,23.562 11.018,22.982 L8.108,23.709 Z M8.09,23.635 L8.108,23.709 L11.018,22.982 L11,22.908 L8.09,23.635 Z M6.523,17.369 L8.09,23.635 L11,22.908 L9.433,16.641 L6.523,17.369 Z M6.784,14.42 C6.384,15.307 6.265,16.336 6.523,17.369 L9.433,16.641 C9.345,16.288 9.386,15.947 9.519,15.652 L6.784,14.42 Z M13.921,16.021 C13.79,14.455 12.481,13.25 10.91,13.25 L10.91,16.25 C10.915,16.25 10.916,16.251 10.917,16.251 C10.919,16.252 10.922,16.253 10.924,16.256 C10.927,16.258 10.929,16.261 10.93,16.262 C10.93,16.263 10.931,16.265 10.931,16.27 L13.921,16.021 Z M13.996,16.926 L13.921,16.021 L10.931,16.27 L11.007,17.175 L13.996,16.926 Z M13.997,16.928 L13.996,16.927 L11.007,17.175 L11.007,17.176 L13.997,16.928 Z M14.679,25.115 L13.996,16.927 L11.007,17.177 L11.689,25.364 L14.679,25.115 Z M12.648,26.685 C12.804,26.715 12.951,26.729 13.103,26.737 L13.265,23.742 C13.233,23.74 13.216,23.738 13.208,23.738 C13.201,23.737 13.2,23.736 13.204,23.737 L12.648,26.685 Z M9.935,24.567 C10.443,25.671 11.454,26.46 12.648,26.685 L13.204,23.737 C12.965,23.692 12.762,23.534 12.661,23.313 L9.935,24.567 Z M9.545,23.271 C9.687,23.842 9.782,24.232 9.935,24.567 L12.661,23.313 C12.666,23.325 12.656,23.308 12.621,23.187 C12.585,23.058 12.536,22.869 12.455,22.544 L9.545,23.271 Z M7.978,17.005 L9.545,23.271 L12.455,22.544 L10.889,16.277 L7.978,17.005 Z M10.91,13.25 C8.944,13.25 7.501,15.098 7.978,17.005 L10.889,16.277 C10.887,16.271 10.887,16.269 10.887,16.269 C10.887,16.268 10.887,16.268 10.887,16.268 C10.887,16.267 10.889,16.263 10.893,16.258 C10.896,16.253 10.9,16.251 10.901,16.251 C10.901,16.251 10.901,16.251 10.901,16.251 C10.901,16.251 10.904,16.25 10.91,16.25 L10.91,13.25 Z M12.502,17.051 L12.502,17.052 L15.491,16.803 L15.491,16.802 L12.502,17.051 Z M16,13.25 C13.947,13.25 12.332,15.005 12.502,17.051 L15.491,16.803 C15.467,16.505 15.701,16.25 16,16.25 L16,13.25 Z M19.498,17.051 C19.669,15.005 18.053,13.25 16,13.25 L16,16.25 C16.299,16.25 16.533,16.505 16.509,16.803 L19.498,17.051 Z M19.498,17.052 L19.498,17.052 L16.509,16.802 L16.509,16.802 L19.498,17.052 Z M18.805,25.375 L19.498,17.052 L16.509,16.803 L15.815,25.125 L18.805,25.375 Z M14.69,26.75 L17.31,26.75 L17.31,23.75 L14.69,23.75 L14.69,26.75 Z M12.502,17.052 L13.195,25.375 L16.185,25.125 L15.491,16.803 L12.502,17.052 Z M20.993,17.178 L20.993,17.178 L18.004,16.925 L18.004,16.926 L20.993,17.178 Z M20.311,25.364 L20.993,17.177 L18.003,16.927 L17.321,25.115 L20.311,25.364 Z M18.797,23.737 C18.799,23.736 18.799,23.737 18.792,23.738 C18.784,23.738 18.767,23.74 18.735,23.742 L18.897,26.737 C19.049,26.729 19.196,26.715 19.352,26.685 L18.797,23.737 Z M19.339,23.313 C19.238,23.534 19.035,23.692 18.797,23.737 L19.352,26.685 C20.546,26.46 21.557,25.671 22.065,24.567 L19.339,23.313 Z M19.545,22.544 C19.464,22.869 19.415,23.058 19.379,23.187 C19.344,23.308 19.334,23.325 19.339,23.313 L22.065,24.567 C22.218,24.232 22.313,23.842 22.455,23.271 L19.545,22.544 Z M21.111,16.277 L19.545,22.544 L22.455,23.271 L24.022,17.005 L21.111,16.277 Z M21.09,16.25 C21.096,16.25 21.099,16.251 21.099,16.251 C21.099,16.251 21.099,16.251 21.099,16.251 C21.1,16.251 21.104,16.253 21.108,16.258 C21.111,16.263 21.113,16.267 21.113,16.268 C21.113,16.268 21.113,16.268 21.113,16.269 C21.113,16.269 21.113,16.271 21.111,16.277 L24.022,17.005 C24.499,15.098 23.056,13.25 21.09,13.25 L21.09,16.25 Z M21.069,16.27 C21.069,16.265 21.07,16.263 21.07,16.262 C21.071,16.261 21.073,16.258 21.076,16.256 C21.078,16.253 21.081,16.252 21.083,16.251 C21.084,16.251 21.085,16.25 21.09,16.25 L21.09,13.25 C19.519,13.25 18.209,14.455 18.079,16.021 L21.069,16.27 Z M20.993,17.176 L21.069,16.27 L18.079,16.021 L18.003,16.927 L20.993,17.176 Z"/>
  <path fill="#151E28" d="M8.151,15.036 C7.598,14.533 7.25,13.808 7.25,13 C7.25,12.093 7.689,11.289 8.365,10.789 C8.29,10.539 8.25,10.274 8.25,10 C8.25,8.523 9.415,7.317 10.877,7.253 C11.38,6.641 12.144,6.25 13,6.25 C13.274,6.25 13.539,6.29 13.789,6.365 C14.289,5.689 15.093,5.25 16,5.25 C16.907,5.25 17.711,5.689 18.211,6.365 C18.461,6.29 18.726,6.25 19,6.25 C19.856,6.25 20.62,6.641 21.124,7.253 C22.585,7.317 23.75,8.523 23.75,10 C23.75,10.274 23.71,10.539 23.635,10.789 C24.311,11.289 24.75,12.093 24.75,13 C24.75,13.808 24.402,14.533 23.849,15.036 C24.115,15.627 24.195,16.312 24.022,17.005 L22.437,23.345 C22.303,23.881 22.211,24.248 22.065,24.567 C21.557,25.671 20.546,26.46 19.352,26.685 C19.007,26.75 18.628,26.75 18.077,26.75 L13.923,26.75 C13.372,26.75 12.993,26.75 12.648,26.685 C11.454,26.46 10.443,25.671 9.935,24.567 C9.789,24.248 9.697,23.881 9.563,23.345 L9.545,23.271 L7.978,17.005 C7.805,16.312 7.885,15.627 8.151,15.036 Z M14.82,7.586 C14.743,7.805 14.569,7.976 14.349,8.049 C14.129,8.122 13.887,8.09 13.695,7.961 C13.496,7.828 13.258,7.75 13,7.75 C12.534,7.75 12.127,8.005 11.911,8.386 C11.761,8.651 11.465,8.799 11.162,8.76 C11.109,8.754 11.055,8.75 11,8.75 C10.31,8.75 9.75,9.31 9.75,10 C9.75,10.258 9.828,10.496 9.961,10.695 C10.09,10.887 10.123,11.129 10.049,11.349 C9.976,11.569 9.805,11.743 9.586,11.82 C9.098,11.991 8.75,12.456 8.75,13 C8.75,13.332 8.879,13.633 9.091,13.858 C9.592,13.479 10.218,13.25 10.91,13.25 C11.899,13.25 12.785,13.728 13.338,14.472 C13.979,13.726 14.93,13.25 16,13.25 C17.07,13.25 18.021,13.726 18.662,14.472 C19.215,13.728 20.101,13.25 21.09,13.25 C21.782,13.25 22.408,13.479 22.91,13.858 C23.121,13.633 23.25,13.332 23.25,13 C23.25,12.456 22.902,11.991 22.414,11.82 C22.195,11.743 22.024,11.569 21.951,11.349 C21.878,11.129 21.91,10.887 22.039,10.695 C22.172,10.496 22.25,10.258 22.25,10 C22.25,9.31 21.69,8.75 21,8.75 C20.945,8.75 20.89,8.754 20.838,8.76 C20.535,8.799 20.239,8.651 20.089,8.386 C19.873,8.005 19.466,7.75 19,7.75 C18.742,7.75 18.504,7.828 18.305,7.961 C18.113,8.09 17.871,8.122 17.651,8.049 C17.431,7.976 17.257,7.805 17.18,7.586 C17.009,7.098 16.544,6.75 16,6.75 C15.456,6.75 14.991,7.098 14.82,7.586 Z M13.997,16.927 L14.69,25.25 L17.31,25.25 L18.003,16.927 L18.003,16.927 C18.101,15.755 17.176,14.75 16,14.75 C14.824,14.75 13.899,15.755 13.997,16.927 Z M19.498,17.052 L18.816,25.24 C18.923,25.234 19.001,25.225 19.074,25.211 C19.791,25.076 20.397,24.603 20.702,23.94 C20.782,23.765 20.841,23.545 21,22.908 L22.567,16.641 C22.807,15.68 22.08,14.75 21.09,14.75 C20.299,14.75 19.639,15.357 19.574,16.145 Z M10.91,14.75 C9.92,14.75 9.193,15.68 9.433,16.641 L11,22.908 C11.159,23.545 11.218,23.765 11.298,23.94 C11.603,24.603 12.21,25.076 12.926,25.211 C12.999,25.225 13.078,25.234 13.184,25.24 L12.502,17.052 L12.502,17.051 L12.426,16.145 C12.361,15.357 11.701,14.75 10.91,14.75 Z"/>
</svg>

