<svg xmlns="http://www.w3.org/2000/svg" viewBox="0 0 32 32">
  <defs/>
  <path fill="white" d="M7,10.027 L7,21.944 C7,21.996 7,22.022 7,22.044 C7.024,23.666 8.334,24.976 9.956,25 C9.978,25 10.004,25 10.056,25 L21.049,25 C21.535,25 21.689,24.345 21.255,24.127 C21.099,24.049 21,23.89 21,23.715 L21,10.027 C21,8.678 19.543,7.833 18.372,8.502 C17.831,8.811 17.169,8.811 16.628,8.502 L15.588,7.907 C15.009,7.577 14.72,7.411 14.412,7.346 C14.14,7.289 13.86,7.289 13.588,7.346 C13.28,7.411 12.991,7.577 12.412,7.907 L11.372,8.502 C10.832,8.811 10.168,8.811 9.628,8.502 C8.457,7.833 7,8.678 7,10.027 Z"/>
  <path fill="white" d="M14.567,6.613 L14.876,5.145 L14.876,5.145 L14.567,6.613 Z M13.433,6.613 L13.742,8.08 L13.742,8.08 L13.433,6.613 Z M15.873,7.206 L15.128,8.508 L15.128,8.508 L15.873,7.206 Z M15.96,7.256 L15.215,8.558 L15.216,8.558 L15.96,7.256 Z M17,7.851 L17.745,6.548 L17.745,6.548 L17,7.851 Z M18,7.851 L17.255,6.548 L17.255,6.548 L18,7.851 Z M22.99,24.25 L22.979,25.75 L22.99,25.75 L22.99,24.25 Z M23.006,24.25 L22.994,25.75 C23,25.75 23.007,25.75 23.013,25.75 L23.006,24.25 Z M23.852,20.047 L24.898,18.971 L24.898,18.971 L23.852,20.047 Z M22.971,19.75 L22.912,21.248 L22.912,21.248 L22.971,19.75 Z M22.251,18.971 L20.752,18.913 L20.752,18.913 L22.251,18.971 Z M23.029,18.251 L23.088,16.752 L23.088,16.752 L23.029,18.251 Z M24.898,18.971 L25.943,17.895 L25.943,17.895 L24.898,18.971 Z M22.986,25.75 L22.994,24.25 L22.986,24.25 L22.986,25.75 Z M11.768,25.75 L11.768,24.25 L11.768,24.25 L11.768,25.75 Z M9.769,25.707 L9.646,27.202 L9.646,27.202 L9.769,25.707 Z M8.298,25.341 L8.979,24.005 L8.979,24.005 L8.298,25.341 Z M6.659,23.703 L5.322,24.383 L5.322,24.383 L6.659,23.703 Z M6.293,22.232 L4.798,22.354 L4.798,22.354 L6.293,22.232 Z M6.25,20.232 L7.75,20.232 L7.75,20.232 L6.25,20.232 Z M10.001,7.851 L10.745,6.548 L10.745,6.548 L10.001,7.851 Z M10.999,7.851 L10.255,6.548 L10.255,6.548 L10.999,7.851 Z M12.04,7.256 L12.784,8.558 L12.785,8.558 L12.04,7.256 Z M12.127,7.206 L12.872,8.508 L12.872,8.508 L12.127,7.206 Z M20.55,24.25 L20.55,25.75 C21.072,25.75 21.557,25.478 21.829,25.033 C22.102,24.587 22.123,24.032 21.886,23.567 L20.55,24.25 Z M18.744,9.153 L18,7.851 L18,7.851 L18.744,9.153 Z M16.256,9.153 L17,7.851 L17,7.851 L16.256,9.153 Z M15.216,8.558 L15.96,7.256 L15.96,7.256 L15.216,8.558 Z M14.258,8.08 L14.567,6.613 L14.567,6.613 L14.258,8.08 Z M13.742,8.08 L13.433,6.613 L13.433,6.613 L13.742,8.08 Z M12.784,8.558 L13.529,9.861 L13.529,9.861 L12.784,8.558 Z M11.744,9.153 L10.999,7.851 L10.999,7.851 L11.744,9.153 Z M9.256,9.153 L10.001,7.851 L10.001,7.851 L9.256,9.153 Z M7.788,22.109 L6.293,22.232 L6.293,22.232 L7.788,22.109 Z M7.995,23.021 L9.332,22.34 L9.332,22.34 L7.995,23.021 Z M8.979,24.005 L8.298,25.341 L8.298,25.341 L8.979,24.005 Z M9.891,24.212 L9.769,25.707 L9.769,25.707 L9.891,24.212 Z M11,21.75 L11,23.25 L11,23.25 L11,21.75 Z M16,21.75 L16,20.25 L16,20.25 L16,21.75 Z M11,20.25 L11,21.75 L11,21.75 L11,20.25 Z M16,20.25 L16,18.75 L16,18.75 L16,20.25 Z M14.876,5.145 C14.298,5.023 13.702,5.023 13.124,5.145 L13.742,8.08 C13.912,8.045 14.088,8.045 14.258,8.08 L14.876,5.145 Z M16.618,5.905 C16.179,5.653 15.577,5.293 14.876,5.145 L14.258,8.08 C14.407,8.112 14.581,8.195 15.128,8.508 L16.618,5.905 Z M16.705,5.954 L16.618,5.904 L15.128,8.508 L15.215,8.558 L16.705,5.954 Z M17.745,6.548 L16.704,5.954 L15.216,8.558 L16.256,9.153 L17.745,6.548 Z M17.255,6.548 C17.407,6.462 17.593,6.462 17.745,6.548 L16.256,9.153 C17.027,9.594 17.973,9.594 18.744,9.153 L17.255,6.548 Z M23.25,10.027 C23.25,6.951 19.926,5.022 17.255,6.548 L18.744,9.153 C19.415,8.77 20.25,9.254 20.25,10.027 L23.25,10.027 Z M23.25,16 L23.25,10.027 L20.25,10.027 L20.25,16 L23.25,16 Z M23.25,16.001 C23.25,16.002 23.25,16.003 23.25,16.002 C23.25,16.002 23.25,16.001 23.25,16 L20.25,16 C20.25,15.999 20.25,15.998 20.25,15.999 C20.25,15.999 20.25,16 20.25,16.001 L23.25,16.001 Z M20.25,16.001 L20.25,23 L23.25,23 L23.25,16.001 L20.25,16.001 Z M20.25,23 C20.25,24.512 21.47,25.739 22.979,25.75 L23.002,22.75 C23.139,22.751 23.25,22.863 23.25,23 L20.25,23 Z M23,22.75 L22.99,22.75 L22.99,25.75 L23,25.75 L23,22.75 Z M23.018,22.75 C23.012,22.75 23.006,22.75 23,22.75 L23,25.75 C22.998,25.75 22.996,25.75 22.994,25.75 L23.018,22.75 Z M23.013,25.75 C24.526,25.743 25.75,24.515 25.75,23 L22.75,23 C22.75,22.862 22.861,22.751 22.999,22.75 L23.013,25.75 Z M25.75,23 L25.75,21.455 L22.75,21.455 L22.75,23 L25.75,23 Z M25.75,21.455 C25.75,20.352 25.466,19.523 24.898,18.971 L22.807,21.122 C22.717,21.035 22.695,20.967 22.701,20.984 C22.711,21.013 22.75,21.149 22.75,21.455 L25.75,21.455 Z M24.898,18.971 C24.337,18.426 23.624,18.274 23.029,18.251 L22.912,21.248 C23.015,21.252 23.038,21.265 23.012,21.256 C22.997,21.251 22.968,21.239 22.93,21.217 C22.891,21.194 22.849,21.163 22.807,21.122 L24.898,18.971 Z M23.029,18.251 C23.443,18.267 23.766,18.615 23.749,19.029 L20.752,18.913 C20.703,20.154 21.671,21.2 22.912,21.248 L23.029,18.251 Z M23.749,19.029 C23.733,19.443 23.385,19.766 22.971,19.75 L23.088,16.752 C21.846,16.703 20.8,17.671 20.752,18.913 L23.749,19.029 Z M22.971,19.75 C23.381,19.765 23.665,19.865 23.852,20.047 L25.943,17.895 C25.006,16.985 23.861,16.782 23.088,16.752 L22.971,19.75 Z M23.852,20.047 C24.032,20.221 24.25,20.597 24.25,21.455 L27.25,21.455 C27.25,20.115 26.903,18.829 25.943,17.895 L23.852,20.047 Z M24.25,21.455 L24.25,23 L27.25,23 L27.25,21.455 L24.25,21.455 Z M24.25,23 C24.25,23.69 23.69,24.25 23,24.25 L23,27.25 C25.347,27.25 27.25,25.347 27.25,23 L24.25,23 Z M23,24.25 C22.998,24.25 22.995,24.25 22.994,24.25 L22.978,27.25 C22.985,27.25 22.993,27.25 23,27.25 L23,24.25 Z M11.8,27.25 L22.986,27.25 L22.986,24.25 L11.8,24.25 L11.8,27.25 Z M11.768,27.25 L11.8,27.25 L11.8,24.25 L11.768,24.25 L11.768,27.25 Z M9.646,27.202 C10.252,27.251 10.978,27.25 11.768,27.25 L11.768,24.25 C10.932,24.25 10.347,24.249 9.891,24.212 L9.646,27.202 Z M7.617,26.678 C8.307,27.03 9.007,27.149 9.646,27.202 L9.891,24.212 C9.437,24.175 9.176,24.105 8.979,24.005 L7.617,26.678 Z M5.322,24.383 C5.826,25.371 6.629,26.174 7.617,26.678 L8.979,24.005 C8.555,23.789 8.211,23.445 7.995,23.021 L5.322,24.383 Z M4.798,22.354 C4.851,22.993 4.97,23.693 5.322,24.383 L7.995,23.021 C7.895,22.824 7.825,22.563 7.788,22.109 L4.798,22.354 Z M4.75,20.232 C4.75,21.022 4.749,21.748 4.798,22.354 L7.788,22.109 C7.751,21.653 7.75,21.068 7.75,20.232 L4.75,20.232 Z M4.75,20.232 L4.75,20.232 L7.75,20.232 L7.75,20.232 L4.75,20.232 Z M4.75,20.2 L4.75,20.232 L7.75,20.232 L7.75,20.2 L4.75,20.2 Z M4.75,10.027 L4.75,20.2 L7.75,20.2 L7.75,10.027 L4.75,10.027 Z M10.745,6.548 C8.074,5.022 4.75,6.951 4.75,10.027 L7.75,10.027 C7.75,9.254 8.585,8.77 9.256,9.153 L10.745,6.548 Z M10.255,6.548 C10.407,6.462 10.593,6.462 10.745,6.548 L9.256,9.153 C10.027,9.594 10.973,9.594 11.744,9.153 L10.255,6.548 Z M11.296,5.954 L10.255,6.548 L11.744,9.153 L12.784,8.558 L11.296,5.954 Z M11.382,5.904 L11.295,5.954 L12.785,8.558 L12.872,8.508 L11.382,5.904 Z M13.124,5.145 C12.423,5.293 11.821,5.653 11.382,5.905 L12.872,8.508 C13.419,8.195 13.593,8.112 13.742,8.08 L13.124,5.145 Z M21.886,23.567 C21.799,23.399 21.75,23.207 21.75,23 L18.75,23 C18.75,23.693 18.917,24.351 19.214,24.933 L21.886,23.567 Z M21.75,23 L21.75,16 L18.75,16 L18.75,23 L21.75,23 Z M21.75,16 C21.75,16.001 21.75,16.002 21.75,16.001 C21.75,16.001 21.75,16 21.75,15.999 L18.75,15.999 C18.75,15.998 18.75,15.997 18.75,15.998 C18.75,15.998 18.75,15.999 18.75,16 L21.75,16 Z M18.75,10.027 L18.75,15.999 L21.75,15.999 L21.75,10.027 L18.75,10.027 Z M19.488,10.456 C19.159,10.643 18.75,10.406 18.75,10.027 L21.75,10.027 C21.75,8.102 19.671,6.896 18,7.851 L19.488,10.456 Z M15.512,10.456 C16.744,11.159 18.256,11.159 19.488,10.456 L18,7.851 C17.69,8.028 17.31,8.028 17,7.851 L15.512,10.456 Z M14.471,9.861 L15.512,10.456 L17,7.851 L15.96,7.256 L14.471,9.861 Z M13.948,9.548 C13.855,9.528 13.81,9.498 13.893,9.54 C13.991,9.589 14.153,9.679 14.471,9.861 L15.96,7.256 C15.437,6.957 15.02,6.708 14.567,6.613 L13.948,9.548 Z M14.052,9.548 C14.018,9.555 13.982,9.555 13.948,9.548 L14.567,6.613 C14.193,6.534 13.807,6.534 13.433,6.613 L14.052,9.548 Z M13.529,9.861 C13.847,9.679 14.009,9.589 14.107,9.54 C14.19,9.498 14.145,9.528 14.052,9.548 L13.433,6.613 C12.98,6.708 12.563,6.957 12.04,7.256 L13.529,9.861 Z M12.488,10.456 L13.529,9.861 L12.04,7.256 L10.999,7.851 L12.488,10.456 Z M8.512,10.456 C9.744,11.159 11.256,11.159 12.488,10.456 L10.999,7.851 C10.69,8.028 10.31,8.028 10.001,7.851 L8.512,10.456 Z M9.25,10.027 C9.25,10.406 8.841,10.643 8.512,10.456 L10.001,7.851 C8.329,6.896 6.25,8.102 6.25,10.027 L9.25,10.027 Z M9.25,20.2 L9.25,10.027 L6.25,10.027 L6.25,20.2 L9.25,20.2 Z M9.283,21.987 C9.252,21.6 9.25,21.078 9.25,20.2 L6.25,20.2 C6.25,21.027 6.249,21.694 6.293,22.232 L9.283,21.987 Z M9.332,22.34 C9.357,22.39 9.313,22.349 9.283,21.987 L6.293,22.232 C6.338,22.778 6.432,23.258 6.659,23.703 L9.332,22.34 Z M9.66,22.668 C9.518,22.596 9.404,22.482 9.332,22.34 L6.659,23.703 C7.018,24.408 7.592,24.982 8.298,25.341 L9.66,22.668 Z M10.013,22.717 C9.651,22.687 9.61,22.643 9.659,22.668 L8.298,25.341 C8.742,25.568 9.222,25.662 9.769,25.707 L10.013,22.717 Z M11.8,22.75 C10.922,22.75 10.4,22.748 10.013,22.717 L9.769,25.707 C10.306,25.751 10.973,25.75 11.8,25.75 L11.8,22.75 Z M20.55,22.75 L11.8,22.75 L11.8,25.75 L20.55,25.75 L20.55,22.75 Z M11,10.75 C9.757,10.75 8.75,11.757 8.75,13 L11.75,13 C11.75,13.414 11.414,13.75 11,13.75 L11,10.75 Z M18,10.75 L11,10.75 L11,13.75 L18,13.75 L18,10.75 Z M20.25,13 C20.25,11.757 19.243,10.75 18,10.75 L18,13.75 C17.586,13.75 17.25,13.414 17.25,13 L20.25,13 Z M18,15.25 C19.243,15.25 20.25,14.243 20.25,13 L17.25,13 C17.25,12.586 17.586,12.25 18,12.25 L18,15.25 Z M11,15.25 L18,15.25 L18,12.25 L11,12.25 L11,15.25 Z M8.75,13 C8.75,14.243 9.757,15.25 11,15.25 L11,12.25 C11.414,12.25 11.75,12.586 11.75,13 L8.75,13 Z M15,16.25 L11,16.25 L11,19.25 L15,19.25 L15,16.25 Z M14.25,17 C14.25,16.586 14.586,16.25 15,16.25 L15,19.25 C16.243,19.25 17.25,18.243 17.25,17 L14.25,17 Z M15,17.75 C14.586,17.75 14.25,17.414 14.25,17 L17.25,17 C17.25,15.757 16.243,14.75 15,14.75 L15,17.75 Z M11,17.75 L15,17.75 L15,14.75 L11,14.75 L11,17.75 Z M11.75,17 C11.75,17.414 11.414,17.75 11,17.75 L11,14.75 C9.757,14.75 8.75,15.757 8.75,17 L11.75,17 Z M11,16.25 C11.414,16.25 11.75,16.586 11.75,17 L8.75,17 C8.75,18.243 9.757,19.25 11,19.25 L11,16.25 Z M11,23.25 L16,23.25 L16,20.25 L11,20.25 L11,23.25 Z M8.75,21 C8.75,22.243 9.757,23.25 11,23.25 L11,20.25 C11.414,20.25 11.75,20.586 11.75,21 L8.75,21 Z M11,18.75 C9.757,18.75 8.75,19.757 8.75,21 L11.75,21 C11.75,21.414 11.414,21.75 11,21.75 L11,18.75 Z M16,18.75 L11,18.75 L11,21.75 L16,21.75 L16,18.75 Z M18.25,21 C18.25,19.757 17.243,18.75 16,18.75 L16,21.75 C15.586,21.75 15.25,21.414 15.25,21 L18.25,21 Z M16,23.25 C17.243,23.25 18.25,22.243 18.25,21 L15.25,21 C15.25,20.586 15.586,20.25 16,20.25 L16,23.25 Z"/>
  <path fill="#151E28" d="M13.433,6.613 C13.807,6.534 14.193,6.534 14.567,6.613 C14.992,6.702 15.38,6.924 15.873,7.206 L15.96,7.256 L17,7.851 C17.31,8.028 17.69,8.028 18,7.851 C19.671,6.896 21.75,8.102 21.75,10.027 L21.75,23 C21.75,23.687 22.305,24.245 22.99,24.25 L23.006,24.25 C23.694,24.247 24.25,23.688 24.25,23 L24.25,21.455 C24.25,20.599 24.032,20.222 23.852,20.047 C23.664,19.864 23.379,19.765 22.971,19.75 C22.557,19.733 22.234,19.385 22.251,18.971 C22.267,18.557 22.615,18.235 23.029,18.251 C23.621,18.274 24.336,18.425 24.898,18.971 C25.468,19.525 25.75,20.356 25.75,21.455 L25.75,23 C25.75,24.519 24.519,25.75 23,25.75 L11.768,25.75 C10.955,25.75 10.299,25.75 9.769,25.707 C9.222,25.662 8.742,25.568 8.298,25.341 C7.592,24.982 7.018,24.408 6.659,23.702 C6.432,23.258 6.338,22.778 6.293,22.232 C6.25,21.701 6.25,21.045 6.25,20.232 L6.25,10.027 C6.25,8.102 8.329,6.896 10,7.851 C10.31,8.028 10.69,8.028 11,7.851 L12.04,7.256 L12.127,7.206 C12.62,6.924 13.008,6.702 13.433,6.613 Z M20.55,24.25 C20.358,23.875 20.25,23.45 20.25,23 L20.25,10.027 C20.25,9.254 19.415,8.77 18.744,9.153 C17.973,9.594 17.027,9.594 16.256,9.153 L15.215,8.558 C14.593,8.203 14.422,8.115 14.258,8.08 C14.088,8.045 13.912,8.045 13.742,8.08 C13.578,8.115 13.407,8.203 12.785,8.558 L11.744,9.153 C10.973,9.594 10.027,9.594 9.256,9.153 C8.585,8.77 7.75,9.254 7.75,10.027 L7.75,20.2 C7.75,21.052 7.751,21.647 7.788,22.109 C7.825,22.563 7.895,22.824 7.995,23.021 C8.211,23.445 8.555,23.789 8.979,24.005 C9.176,24.105 9.437,24.174 9.891,24.212 C10.353,24.249 10.948,24.25 11.8,24.25 Z M10.25,13 C10.25,12.586 10.586,12.25 11,12.25 L18,12.25 C18.414,12.25 18.75,12.586 18.75,13 C18.75,13.414 18.414,13.75 18,13.75 L11,13.75 C10.586,13.75 10.25,13.414 10.25,13 Z M16,21.75 L11,21.75 C10.586,21.75 10.25,21.414 10.25,21 C10.25,20.586 10.586,20.25 11,20.25 L16,20.25 C16.414,20.25 16.75,20.586 16.75,21 C16.75,21.414 16.414,21.75 16,21.75 Z M11,17.75 C10.586,17.75 10.25,17.414 10.25,17 C10.25,16.586 10.586,16.25 11,16.25 L15,16.25 C15.414,16.25 15.75,16.586 15.75,17 C15.75,17.414 15.414,17.75 15,17.75 Z"/>
</svg>

