<svg xmlns="http://www.w3.org/2000/svg" viewBox="0 0 32 32">
  <defs/>
  <path fill="white" d="M14.817,10.611 C18.479,6.949 22.141,7.157 23.799,7.514 C23.988,7.554 24.083,7.575 24.304,7.712 C24.434,7.793 24.706,8.065 24.787,8.195 C24.924,8.416 24.945,8.511 24.985,8.701 C25.342,10.358 25.55,14.02 21.888,17.682 C19.854,19.716 18.179,20.914 16.91,21.62 C15.232,22.554 13.347,21.869 11.989,20.511 L11.989,20.511 C10.63,19.152 9.945,17.267 10.879,15.589 C11.585,14.32 12.783,12.645 14.817,10.611 Z"/>
  <path fill="white" d="M23.782,8.281 L24.296,6.872 L24.296,6.872 L23.782,8.281 Z M23.9,8.344 L24.82,7.159 C24.777,7.126 24.733,7.095 24.687,7.067 L23.9,8.344 Z M23.641,8.247 L23.326,9.713 L23.326,9.713 L23.641,8.247 Z M15.347,11.141 L14.287,10.08 L14.287,10.08 L15.347,11.141 Z M13.618,13.012 L12.473,12.043 C12.469,12.048 12.465,12.052 12.462,12.056 L13.618,13.012 Z M13.608,13.025 L14.753,13.993 C14.757,13.989 14.76,13.985 14.764,13.98 L13.608,13.025 Z M11.613,15.815 L12.907,16.573 C12.91,16.569 12.912,16.564 12.915,16.56 L11.613,15.815 Z M11.605,15.828 L10.311,15.07 C10.308,15.075 10.305,15.079 10.303,15.084 L11.605,15.828 Z M11.535,15.953 L10.224,15.224 L10.224,15.224 L11.535,15.953 Z M12.519,19.98 L11.458,21.041 L11.458,21.041 L12.519,19.98 Z M16.546,20.964 L15.816,19.653 L15.816,19.653 L16.546,20.964 Z M24.252,8.858 L22.786,9.173 L22.786,9.173 L24.252,8.858 Z M24.218,8.717 L22.809,9.23 L22.809,9.231 L24.218,8.717 Z M24.155,8.598 L25.432,7.812 C25.403,7.765 25.372,7.72 25.338,7.677 L24.155,8.598 Z M24.154,8.598 L22.968,9.516 L22.971,9.52 L24.154,8.598 Z M24.128,8.566 L22.993,9.547 L22.993,9.547 L24.128,8.566 Z M24.034,8.465 L22.973,9.526 L22.973,9.526 L24.034,8.465 Z M23.933,8.371 L22.952,9.506 L22.952,9.506 L23.933,8.371 Z M23.901,8.345 L22.981,9.53 L22.982,9.53 L23.901,8.345 Z M13.225,11.19 L12.842,12.64 C13.381,12.782 13.955,12.614 14.331,12.202 L13.225,11.19 Z M14.287,10.08 L13.226,9.02 L13.226,9.02 L14.287,10.08 Z M5.974,13.781 L7.195,14.653 L7.195,14.653 L5.974,13.781 Z M5.014,15.125 L3.794,14.253 L3.794,14.253 L5.014,15.125 Z M4.912,15.793 L6.338,15.329 L6.338,15.329 L4.912,15.793 Z M5.388,16.272 L5.862,14.849 L5.862,14.849 L5.388,16.272 Z M9.63,17.686 L9.156,19.109 L9.156,19.109 L9.63,17.686 Z M9.725,17.711 L11.215,17.538 C11.139,16.889 10.652,16.363 10.011,16.239 L9.725,17.711 Z M11.458,21.041 L12.519,19.98 L12.519,19.98 L11.458,21.041 Z M14.788,22.774 L16.26,22.488 C16.136,21.847 15.61,21.36 14.961,21.284 L14.788,22.774 Z M14.813,22.869 L16.236,22.395 L16.236,22.395 L14.813,22.869 Z M16.227,27.111 L17.65,26.637 L17.65,26.637 L16.227,27.111 Z M16.706,27.587 L17.17,26.161 L17.17,26.161 L16.706,27.587 Z M17.374,27.485 L18.246,28.705 L18.246,28.705 L17.374,27.485 Z M18.718,26.525 L17.846,25.304 L17.846,25.304 L18.718,26.525 Z M21.309,19.274 L20.297,18.167 C19.885,18.544 19.717,19.118 19.859,19.657 L21.309,19.274 Z M22.419,18.212 L23.479,19.273 L23.479,19.273 L22.419,18.212 Z M25.719,8.543 L24.252,8.857 L24.252,8.858 L25.719,8.543 Z M25.716,8.528 L24.249,8.841 L24.249,8.843 L25.716,8.528 Z M25.716,8.528 L27.183,8.216 L27.182,8.214 L25.716,8.528 Z M25.627,8.202 L27.036,7.688 L27.036,7.688 L25.627,8.202 Z M25.424,7.799 L26.698,7.007 L26.698,7.007 L25.424,7.799 Z M25.094,7.405 L26.155,6.344 L26.155,6.344 L25.094,7.405 Z M24.7,7.075 L25.492,5.801 L25.492,5.801 L24.7,7.075 Z M24.296,6.872 L24.81,5.463 L24.81,5.463 L24.296,6.872 Z M23.97,6.783 L23.656,8.25 L23.656,8.25 L23.97,6.783 Z M23.956,6.78 L23.641,8.247 L23.642,8.247 L23.956,6.78 Z M12.095,12.499 L13.262,13.442 C13.606,13.017 13.691,12.438 13.484,11.931 C13.277,11.425 12.81,11.072 12.267,11.009 L12.095,12.499 Z M7.195,14.653 L8.415,15.525 L8.415,15.525 L7.195,14.653 Z M10.329,15.038 L11.55,15.91 C11.578,15.87 11.605,15.829 11.629,15.786 L10.329,15.038 Z M9.579,16.088 L9.105,17.511 C9.729,17.719 10.417,17.496 10.8,16.96 L9.579,16.088 Z M6.825,15.17 L5.605,14.298 C5.328,14.686 5.252,15.181 5.399,15.634 C5.546,16.087 5.899,16.443 6.351,16.593 L6.825,15.17 Z M20,20.403 L21.49,20.232 C21.427,19.689 21.074,19.222 20.567,19.015 C20.061,18.808 19.482,18.893 19.057,19.237 L20,20.403 Z M17.846,25.304 L18.718,26.525 L18.718,26.525 L17.846,25.304 Z M17.462,22.169 L16.714,20.869 C16.672,20.893 16.631,20.92 16.591,20.948 L17.462,22.169 Z M16.411,22.92 L15.539,21.699 C15.003,22.082 14.78,22.77 14.988,23.394 L16.411,22.92 Z M17.329,25.674 L15.906,26.148 C16.056,26.6 16.412,26.953 16.865,27.1 C17.318,27.247 17.813,27.171 18.201,26.894 L17.329,25.674 Z M18.176,14.323 L17.115,15.384 L17.115,15.384 L18.176,14.323 Z M17.115,11.495 L16.055,10.434 L16.055,10.434 L17.115,11.495 Z M21.004,11.495 L22.065,10.434 L22.065,10.434 L21.004,11.495 Z M17.115,15.384 L18.176,14.323 L18.176,14.323 L17.115,15.384 Z M23.268,9.69 C23.253,9.685 23.229,9.675 23.201,9.663 C23.176,9.652 23.155,9.643 23.14,9.635 C23.111,9.621 23.101,9.613 23.114,9.622 L24.687,7.067 C24.554,6.985 24.431,6.921 24.296,6.872 L23.268,9.69 Z M23.326,9.713 C23.349,9.718 23.365,9.722 23.376,9.724 C23.387,9.727 23.388,9.727 23.384,9.726 C23.379,9.725 23.363,9.721 23.339,9.714 C23.327,9.71 23.314,9.706 23.301,9.701 C23.287,9.697 23.276,9.693 23.268,9.69 L24.296,6.872 C24.161,6.822 24.031,6.796 23.956,6.78 L23.326,9.713 Z M16.408,12.202 C19.389,9.221 22.196,9.47 23.326,9.713 L23.956,6.78 C22.121,6.386 18.175,6.192 14.287,10.08 L16.408,12.202 Z M14.763,13.981 C15.226,13.434 15.77,12.84 16.408,12.202 L14.287,10.08 C13.593,10.774 12.993,11.429 12.473,12.043 L14.763,13.981 Z M14.764,13.98 L14.774,13.968 L12.462,12.056 L12.451,12.069 L14.764,13.98 Z M12.915,16.56 C13.306,15.876 13.888,15.016 14.753,13.993 L12.462,12.056 C11.491,13.206 10.801,14.214 10.311,15.07 L12.915,16.56 Z M12.899,16.587 L12.907,16.573 L10.319,15.056 L10.311,15.07 L12.899,16.587 Z M12.845,16.683 C12.866,16.646 12.886,16.609 12.908,16.572 L10.303,15.084 C10.276,15.131 10.25,15.178 10.224,15.224 L12.845,16.683 Z M13.58,18.919 C12.601,17.94 12.596,17.132 12.845,16.683 L10.224,15.224 C9.065,17.307 9.968,19.55 11.458,21.041 L13.58,18.919 Z M15.816,19.653 C15.367,19.903 14.559,19.898 13.58,18.919 L11.458,21.041 C12.949,22.531 15.192,23.434 17.275,22.275 L15.816,19.653 Z M20.297,16.091 C18.387,18.001 16.875,19.064 15.816,19.653 L17.275,22.275 C18.613,21.53 20.344,20.287 22.419,18.212 L20.297,16.091 Z M22.786,9.173 C23.028,10.302 23.278,13.11 20.297,16.091 L22.419,18.212 C26.307,14.324 26.113,10.377 25.719,8.543 L22.786,9.173 Z M22.809,9.231 C22.806,9.223 22.802,9.212 22.797,9.198 C22.793,9.185 22.789,9.172 22.785,9.16 C22.778,9.136 22.774,9.119 22.773,9.115 C22.772,9.111 22.772,9.112 22.775,9.123 C22.777,9.134 22.781,9.15 22.786,9.173 L25.719,8.543 C25.703,8.468 25.676,8.338 25.627,8.202 L22.809,9.231 Z M22.877,9.385 C22.886,9.398 22.878,9.387 22.864,9.359 C22.856,9.344 22.846,9.323 22.835,9.298 C22.823,9.27 22.814,9.246 22.809,9.23 L25.627,8.203 C25.578,8.068 25.514,7.945 25.432,7.812 L22.877,9.385 Z M22.971,9.52 L22.971,9.52 L25.338,7.677 L25.338,7.677 L22.971,9.52 Z M22.993,9.547 C22.991,9.544 22.987,9.54 22.982,9.533 C22.979,9.53 22.976,9.527 22.974,9.523 C22.972,9.521 22.971,9.52 22.97,9.518 C22.969,9.517 22.968,9.516 22.968,9.516 L25.34,7.68 C25.326,7.661 25.3,7.629 25.263,7.586 L22.993,9.547 Z M22.973,9.526 C22.98,9.533 22.985,9.539 22.99,9.543 C22.994,9.548 22.995,9.549 22.993,9.547 L25.263,7.586 C25.21,7.525 25.152,7.462 25.094,7.405 L22.973,9.526 Z M22.952,9.506 C22.95,9.504 22.951,9.505 22.956,9.509 C22.96,9.513 22.966,9.519 22.973,9.526 L25.094,7.405 C25.036,7.347 24.974,7.288 24.913,7.236 L22.952,9.506 Z M22.982,9.53 C22.982,9.53 22.979,9.528 22.976,9.525 C22.972,9.522 22.969,9.52 22.965,9.517 C22.959,9.512 22.954,9.508 22.952,9.506 L24.913,7.236 C24.87,7.198 24.838,7.173 24.82,7.159 L22.982,9.53 Z M22.981,9.529 L22.981,9.53 L24.82,7.159 L24.82,7.159 L22.981,9.529 Z M14.331,12.202 C14.643,11.861 14.981,11.507 15.347,11.141 L13.226,9.02 C12.829,9.416 12.46,9.802 12.118,10.177 L14.331,12.202 Z M7.195,14.653 C8.465,12.875 10.735,12.084 12.842,12.64 L13.607,9.739 C10.325,8.873 6.766,10.092 4.754,12.909 L7.195,14.653 Z M6.235,15.997 L7.195,14.653 L4.754,12.909 L3.794,14.253 L6.235,15.997 Z M6.338,15.329 C6.412,15.555 6.373,15.803 6.235,15.997 L3.794,14.253 C3.379,14.834 3.264,15.577 3.485,16.256 L6.338,15.329 Z M5.862,14.849 C6.088,14.924 6.264,15.102 6.338,15.329 L3.485,16.256 C3.706,16.936 4.236,17.469 4.913,17.695 L5.862,14.849 Z M10.105,16.263 L5.862,14.849 L4.913,17.695 L9.156,19.109 L10.105,16.263 Z M10.011,16.239 C10.043,16.245 10.074,16.253 10.105,16.263 L9.156,19.109 C9.249,19.14 9.343,19.165 9.439,19.184 L10.011,16.239 Z M12.519,19.98 C11.792,19.253 11.312,18.372 11.215,17.538 L8.235,17.884 C8.429,19.559 9.329,21.032 10.398,22.101 L12.519,19.98 Z M14.961,21.284 C14.127,21.187 13.246,20.707 12.519,19.98 L10.398,22.101 C11.466,23.17 12.94,24.07 14.615,24.264 L14.961,21.284 Z M16.236,22.395 C16.246,22.425 16.254,22.457 16.26,22.488 L13.315,23.06 C13.334,23.155 13.358,23.25 13.39,23.343 L16.236,22.395 Z M17.65,26.637 L16.236,22.395 L13.39,23.343 L14.804,27.586 L17.65,26.637 Z M17.17,26.161 C17.397,26.235 17.575,26.411 17.65,26.637 L14.804,27.586 C15.03,28.263 15.564,28.793 16.243,29.014 L17.17,26.161 Z M16.503,26.264 C16.696,26.126 16.944,26.087 17.17,26.161 L16.243,29.014 C16.922,29.235 17.665,29.12 18.246,28.705 L16.503,26.264 Z M17.846,25.304 L16.503,26.264 L18.246,28.705 L19.59,27.745 L17.846,25.304 Z M19.859,19.657 C20.415,21.764 19.624,24.034 17.846,25.304 L19.59,27.745 C22.407,25.733 23.626,22.174 22.76,18.892 L19.859,19.657 Z M21.358,17.151 C20.992,17.518 20.638,17.856 20.297,18.167 L22.322,20.381 C22.697,20.038 23.082,19.669 23.479,19.273 L21.358,17.151 Z M24.252,8.858 C24.571,10.341 24.792,13.717 21.358,17.151 L23.479,19.273 C27.823,14.929 27.655,10.412 27.185,8.228 L24.252,8.858 Z M24.249,8.843 L24.252,8.857 L27.185,8.228 L27.182,8.214 L24.249,8.843 Z M24.249,8.841 L24.249,8.841 L27.183,8.216 L27.183,8.216 L24.249,8.841 Z M24.218,8.716 C24.22,8.721 24.223,8.733 24.229,8.753 C24.234,8.776 24.239,8.799 24.249,8.843 L27.182,8.214 C27.164,8.131 27.121,7.922 27.036,7.688 L24.218,8.716 Z M24.15,8.59 C24.202,8.674 24.214,8.705 24.218,8.717 L27.036,7.688 C26.939,7.421 26.817,7.199 26.698,7.007 L24.15,8.59 Z M24.034,8.465 C24.067,8.498 24.1,8.533 24.127,8.565 C24.141,8.581 24.15,8.592 24.155,8.599 C24.161,8.606 24.158,8.603 24.15,8.59 L26.698,7.007 C26.513,6.709 26.267,6.456 26.155,6.344 L24.034,8.465 Z M23.908,8.349 C23.895,8.341 23.892,8.338 23.9,8.344 C23.907,8.349 23.918,8.358 23.934,8.372 C23.966,8.399 24.001,8.432 24.034,8.465 L26.155,6.344 C26.043,6.232 25.79,5.986 25.492,5.801 L23.908,8.349 Z M23.782,8.281 C23.793,8.285 23.825,8.297 23.908,8.349 L25.492,5.801 C25.3,5.682 25.078,5.56 24.81,5.463 L23.782,8.281 Z M23.656,8.25 C23.7,8.259 23.723,8.264 23.745,8.27 C23.766,8.275 23.777,8.279 23.782,8.281 L24.81,5.463 C24.577,5.378 24.368,5.334 24.285,5.316 L23.656,8.25 Z M23.642,8.247 L23.656,8.25 L24.285,5.317 L24.27,5.313 L23.642,8.247 Z M15.347,11.141 C18.782,7.707 22.158,7.928 23.641,8.247 L24.271,5.314 C22.087,4.844 17.57,4.676 13.226,9.02 L15.347,11.141 Z M12.267,11.009 C9.867,10.733 7.424,11.751 5.974,13.781 L8.415,15.525 C9.209,14.414 10.568,13.834 11.924,13.99 L12.267,11.009 Z M11.629,15.786 C12.011,15.123 12.537,14.339 13.262,13.442 L10.929,11.556 C10.113,12.566 9.496,13.479 9.029,14.29 L11.629,15.786 Z M10.8,16.96 L11.55,15.91 L9.109,14.166 L8.358,15.216 L10.8,16.96 Z M6.351,16.593 L9.105,17.511 L10.053,14.665 L7.3,13.747 L6.351,16.593 Z M5.974,13.781 L5.605,14.298 L8.046,16.042 L8.415,15.525 L5.974,13.781 Z M18.509,20.575 C18.665,21.931 18.085,23.291 16.974,24.084 L18.718,26.525 C20.748,25.075 21.766,22.632 21.49,20.232 L18.509,20.575 Z M18.211,23.469 C19.021,23.003 19.934,22.386 20.943,21.57 L19.057,19.237 C18.16,19.961 17.377,20.487 16.714,20.869 L18.211,23.469 Z M17.283,24.141 L18.334,23.389 L16.591,20.948 L15.539,21.699 L17.283,24.141 Z M18.752,25.199 L17.834,22.446 L14.988,23.394 L15.906,26.148 L18.752,25.199 Z M16.974,24.084 L16.457,24.453 L18.201,26.894 L18.718,26.525 L16.974,24.084 Z M21.004,11.495 C19.93,10.421 18.189,10.421 17.115,11.495 L19.236,13.616 C19.139,13.714 18.98,13.714 18.883,13.616 L21.004,11.495 Z M21.004,15.384 C22.078,14.31 22.078,12.569 21.004,11.495 L18.883,13.616 C18.785,13.518 18.785,13.36 18.883,13.262 L21.004,15.384 Z M17.115,15.384 C18.189,16.458 19.93,16.458 21.004,15.384 L18.883,13.262 C18.98,13.165 19.139,13.165 19.236,13.262 L17.115,15.384 Z M17.115,11.495 C16.041,12.569 16.041,14.31 17.115,15.384 L19.236,13.262 C19.334,13.36 19.334,13.518 19.236,13.616 L17.115,11.495 Z M18.176,12.555 C18.664,12.067 19.455,12.067 19.944,12.555 L22.065,10.434 C20.405,8.774 17.714,8.774 16.055,10.434 L18.176,12.555 Z M18.176,14.323 C17.688,13.835 17.688,13.043 18.176,12.555 L16.055,10.434 C14.395,12.094 14.395,14.785 16.055,16.444 L18.176,14.323 Z M19.944,14.323 C19.455,14.811 18.664,14.811 18.176,14.323 L16.055,16.444 C17.714,18.104 20.405,18.104 22.065,16.444 L19.944,14.323 Z M19.944,12.555 C20.432,13.043 20.432,13.835 19.944,14.323 L22.065,16.444 C23.725,14.785 23.725,12.094 22.065,10.434 L19.944,12.555 Z"/>
  <path fill="#151E28" d="M14.287,10.08 C18.176,6.191 22.123,6.386 23.956,6.78 L23.97,6.783 C24.055,6.801 24.171,6.826 24.296,6.872 C24.436,6.923 24.562,6.99 24.7,7.075 C24.843,7.164 24.994,7.305 25.094,7.405 C25.194,7.504 25.335,7.656 25.424,7.799 C25.509,7.936 25.576,8.063 25.627,8.202 C25.673,8.327 25.698,8.444 25.716,8.528 L25.716,8.528 L25.719,8.543 C26.113,10.376 26.308,14.323 22.419,18.212 C22.037,18.594 21.667,18.947 21.309,19.274 C22.02,21.969 21.016,24.884 18.718,26.525 L17.374,27.485 C17.181,27.623 16.933,27.661 16.706,27.587 C16.48,27.514 16.302,27.337 16.227,27.111 L14.813,22.869 C14.802,22.837 14.794,22.806 14.788,22.774 C13.534,22.629 12.356,21.938 11.458,21.041 C10.561,20.143 9.87,18.965 9.725,17.711 C9.693,17.705 9.661,17.697 9.63,17.686 L5.388,16.272 C5.162,16.197 4.985,16.019 4.912,15.793 C4.838,15.566 4.876,15.318 5.014,15.125 L5.974,13.781 C7.615,11.483 10.53,10.479 13.224,11.19 C13.552,10.832 13.905,10.462 14.287,10.08 Z M23.9,8.344 C23.823,8.296 23.793,8.285 23.782,8.281 C23.764,8.274 23.745,8.269 23.641,8.247 C22.159,7.928 18.782,7.706 15.347,11.141 C14.682,11.807 14.109,12.431 13.618,13.012 L13.608,13.025 C12.69,14.111 12.054,15.045 11.613,15.815 L11.605,15.828 C11.581,15.87 11.558,15.912 11.535,15.953 C10.83,17.219 11.284,18.745 12.519,19.98 C13.754,21.215 15.28,21.669 16.546,20.964 C17.744,20.297 19.365,19.144 21.358,17.151 C24.792,13.717 24.571,10.34 24.252,8.858 C24.23,8.754 24.224,8.735 24.218,8.717 C24.214,8.706 24.203,8.676 24.155,8.598 L24.154,8.598 C24.152,8.595 24.144,8.584 24.128,8.566 C24.103,8.537 24.07,8.502 24.034,8.465 C23.997,8.429 23.962,8.396 23.933,8.371 C23.915,8.355 23.904,8.347 23.901,8.344 Z M21.004,11.495 C22.078,12.569 22.078,14.31 21.004,15.384 C19.93,16.458 18.189,16.458 17.115,15.384 C16.041,14.31 16.041,12.569 17.115,11.495 C18.189,10.421 19.93,10.421 21.004,11.495 Z M17.846,25.304 C19.416,24.183 20.216,22.282 20,20.403 C19.047,21.173 18.199,21.745 17.462,22.169 L16.411,22.92 L17.329,25.674 Z M7.195,14.653 L6.825,15.17 L9.579,16.088 L10.329,15.038 C10.753,14.301 11.325,13.453 12.095,12.499 C10.217,12.284 8.316,13.083 7.195,14.653 Z M18.176,12.555 C17.688,13.043 17.688,13.835 18.176,14.323 C18.664,14.811 19.455,14.811 19.944,14.323 C20.432,13.835 20.432,13.043 19.944,12.555 C19.455,12.067 18.664,12.067 18.176,12.555 Z"/>
</svg>

