<svg xmlns="http://www.w3.org/2000/svg" viewBox="0 0 32 32">
  <defs/>
  <path fill="white" d="M6.96,16.33 C5.263,20.918 5.921,23.873 6.962,24.913 C8.002,25.954 10.957,26.611 15.544,24.915 C18.988,23.641 20.551,19.458 18.417,16.47 C17.572,15.286 16.589,14.303 15.405,13.457 C12.417,11.324 8.234,12.887 6.96,16.33 Z"/>
  <path fill="white" d="M18.468,6.068 L17.718,4.769 L17.718,4.769 L18.468,6.068 Z M19.175,6.046 L18.511,7.39 L18.511,7.39 L19.175,6.046 Z M18.071,6.298 L18.821,7.597 L18.821,7.597 L18.071,6.298 Z M16.581,11.547 L15.177,12.074 L15.177,12.074 L16.581,11.547 Z M17.547,11.986 L17.02,10.582 L17.02,10.582 L17.547,11.986 Z M17.986,11.021 L19.391,10.495 L19.391,10.495 L17.986,11.021 Z M18.821,7.597 L19.571,8.896 L19.571,8.896 L18.821,7.597 Z M18.848,7.581 L19.664,6.322 C19.191,6.015 18.586,6 18.098,6.282 L18.848,7.581 Z M19.369,8.059 L20.599,7.201 L20.599,7.201 L19.369,8.059 Z M19.59,8.949 L18.093,8.852 L18.093,8.852 L19.59,8.949 Z M21.087,9.045 L19.59,8.949 L19.59,8.949 L21.087,9.045 Z M20.599,7.201 L19.369,8.059 L19.369,8.059 L20.599,7.201 Z M26.043,15.425 L24.983,14.364 L24.983,14.364 L26.043,15.425 Z M26.248,14.748 L27.719,14.454 L27.719,14.454 L26.248,14.748 Z M25.719,15.749 L26.78,16.81 L26.78,16.81 L25.719,15.749 Z M20.263,15.829 L19.391,17.05 L19.391,17.05 L20.263,15.829 Z M20.088,14.783 L21.309,15.655 L21.309,15.655 L20.088,14.783 Z M21.135,14.609 L20.263,15.829 L20.263,15.829 L21.135,14.609 Z M24.658,14.689 L25.719,15.749 L25.719,15.749 L24.658,14.689 Z M24.681,14.666 L25.742,15.727 C26.14,15.328 26.282,14.74 26.108,14.204 L24.681,14.666 Z M24.353,14.04 L25.501,13.073 L25.501,13.073 L24.353,14.04 Z M23.552,13.596 L23.258,15.067 L23.258,15.067 L23.552,13.596 Z M22.963,12.713 L21.492,12.419 L21.492,12.419 L22.963,12.713 Z M23.846,12.125 L23.552,13.596 L23.552,13.596 L23.846,12.125 Z M25.501,13.073 L26.648,12.107 L26.648,12.107 L25.501,13.073 Z M24.22,11.547 L24.285,10.049 L24.285,10.049 L24.22,11.547 Z M20.603,12.822 L21.593,13.949 L21.593,13.949 L20.603,12.822 Z M25.002,10.83 L26.5,10.895 L26.5,10.895 L25.002,10.83 Z M24.285,10.049 L24.349,8.55 L24.285,10.049 Z M19.613,11.696 L20.603,12.822 L20.603,12.822 L19.613,11.696 Z M18.683,12.513 L17.693,11.386 L17.693,11.386 L18.683,12.513 Z M19.674,13.639 L18.683,12.513 L18.683,12.513 L19.674,13.639 Z M14.969,14.068 L14.097,15.289 L14.097,15.289 L14.969,14.068 Z M17.807,16.906 L19.028,16.034 L19.028,16.034 L17.807,16.906 Z M7.664,16.59 L6.257,16.07 L6.257,16.07 L7.664,16.59 Z M6.683,21.909 L5.186,21.995 L5.186,21.995 L6.683,21.909 Z M7.492,24.383 L6.432,25.444 L6.432,25.444 L7.492,24.383 Z M9.966,25.192 L10.052,23.694 L10.051,23.694 L9.966,25.192 Z M15.284,24.211 L14.764,22.804 L14.764,22.804 L15.284,24.211 Z M19.028,16.034 L20.249,15.163 L20.249,15.163 L19.028,16.034 Z M15.84,12.847 L16.712,11.626 L16.712,11.626 L15.84,12.847 Z M15.805,25.618 L16.325,27.025 L16.325,27.025 L15.805,25.618 Z M9.88,26.689 L9.795,28.187 L9.795,28.187 L9.88,26.689 Z M6.432,25.444 L5.371,26.504 L5.371,26.504 L6.432,25.444 Z M5.186,21.995 L3.688,22.08 L3.688,22.08 L5.186,21.995 Z M6.257,16.07 L4.85,15.55 L4.85,15.55 L6.257,16.07 Z M19.218,7.367 C19.001,7.493 18.735,7.501 18.511,7.39 L19.84,4.701 C19.166,4.368 18.369,4.393 17.718,4.769 L19.218,7.367 Z M18.821,7.597 L19.218,7.367 L17.718,4.769 L17.321,4.999 L18.821,7.597 Z M17.986,11.021 C17.437,9.555 17.751,8.215 18.821,7.597 L17.321,4.999 C14.468,6.646 14.353,9.874 15.177,12.074 L17.986,11.021 Z M17.02,10.582 C17.408,10.437 17.841,10.633 17.986,11.021 L15.177,12.074 C15.613,13.237 16.909,13.827 18.073,13.391 L17.02,10.582 Z M16.581,11.547 C16.436,11.159 16.633,10.727 17.02,10.582 L18.073,13.391 C19.237,12.955 19.827,11.659 19.391,10.495 L16.581,11.547 Z M18.071,6.298 C16.123,7.422 15.887,9.695 16.581,11.547 L19.391,10.495 C19.2,9.986 19.195,9.593 19.254,9.344 C19.307,9.12 19.414,8.986 19.571,8.896 L18.071,6.298 Z M18.098,6.282 L18.071,6.298 L19.571,8.896 L19.598,8.88 L18.098,6.282 Z M20.599,7.201 C20.349,6.843 20.024,6.555 19.664,6.322 L18.033,8.839 C18.143,8.911 18.157,8.944 18.139,8.918 L20.599,7.201 Z M21.087,9.045 C21.132,8.343 20.963,7.723 20.599,7.201 L18.139,8.918 C18.133,8.909 18.124,8.896 18.116,8.878 C18.108,8.861 18.102,8.843 18.098,8.829 C18.089,8.797 18.096,8.798 18.093,8.852 L21.087,9.045 Z M20.386,8.248 C20.8,8.275 21.113,8.632 21.087,9.045 L18.093,8.852 C18.013,10.092 18.953,11.162 20.193,11.242 L20.386,8.248 Z M19.59,8.949 C19.616,8.535 19.973,8.222 20.386,8.248 L20.193,11.242 C21.433,11.322 22.503,10.382 22.584,9.142 L19.59,8.949 Z M19.369,8.059 C19.524,8.282 19.615,8.56 19.59,8.949 L22.584,9.142 C22.649,8.127 22.403,7.165 21.829,6.343 L19.369,8.059 Z M18.511,7.39 C18.929,7.597 19.204,7.823 19.369,8.059 L21.829,6.343 C21.284,5.561 20.542,5.048 19.84,4.701 L18.511,7.39 Z M27.104,16.486 C27.636,15.954 27.867,15.191 27.719,14.454 L24.778,15.042 C24.728,14.796 24.805,14.542 24.983,14.364 L27.104,16.486 Z M26.78,16.81 L27.104,16.486 L24.983,14.364 L24.658,14.689 L26.78,16.81 Z M19.391,17.05 C21.302,18.415 24.451,19.139 26.78,16.81 L24.658,14.689 C23.785,15.562 22.409,15.519 21.135,14.609 L19.391,17.05 Z M18.868,13.911 C18.146,14.922 18.38,16.328 19.391,17.05 L21.135,14.609 C21.472,14.85 21.55,15.318 21.309,15.655 L18.868,13.911 Z M22.006,13.388 C20.995,12.666 19.59,12.9 18.868,13.911 L21.309,15.655 C21.068,15.992 20.6,16.07 20.263,15.829 L22.006,13.388 Z M23.598,13.628 C23.47,13.756 23.313,13.825 23.082,13.818 C22.827,13.811 22.449,13.704 22.006,13.388 L20.263,15.829 C21.872,16.979 24.129,17.34 25.719,15.749 L23.598,13.628 Z M23.62,13.605 L23.598,13.628 L25.719,15.749 L25.742,15.727 L23.62,13.605 Z M23.206,15.006 C23.185,14.981 23.213,15.003 23.254,15.128 L26.108,14.204 C25.976,13.796 25.782,13.408 25.501,13.073 L23.206,15.006 Z M23.258,15.067 C23.31,15.078 23.31,15.085 23.281,15.068 C23.268,15.061 23.253,15.05 23.238,15.038 C23.224,15.025 23.213,15.014 23.206,15.006 L25.501,13.073 C25.09,12.586 24.536,12.263 23.846,12.125 L23.258,15.067 Z M21.492,12.419 C21.249,13.638 22.039,14.823 23.258,15.067 L23.846,12.125 C24.252,12.206 24.515,12.601 24.434,13.008 L21.492,12.419 Z M24.14,10.654 C22.922,10.411 21.736,11.201 21.492,12.419 L24.434,13.008 C24.353,13.414 23.958,13.677 23.552,13.596 L24.14,10.654 Z M26.648,12.107 C26.002,11.34 25.137,10.854 24.14,10.654 L23.552,13.596 C23.933,13.672 24.178,13.832 24.353,14.04 L26.648,12.107 Z M27.719,14.454 C27.566,13.685 27.262,12.837 26.648,12.107 L24.353,14.04 C24.539,14.26 24.686,14.584 24.778,15.042 L27.719,14.454 Z M24.285,10.049 C22.573,9.975 20.9,10.565 19.613,11.696 L21.593,13.949 C22.299,13.329 23.217,13.005 24.156,13.046 L24.285,10.049 Z M23.503,10.766 C23.521,10.352 23.871,10.031 24.285,10.049 L24.156,13.046 C25.397,13.099 26.447,12.136 26.5,10.895 L23.503,10.766 Z M24.22,11.547 C23.806,11.529 23.485,11.179 23.503,10.766 L26.5,10.895 C26.554,9.653 25.591,8.603 24.349,8.55 L24.22,11.547 Z M20.603,12.822 C21.599,11.947 22.895,11.49 24.22,11.547 L24.349,8.55 C22.252,8.46 20.2,9.183 18.623,10.569 L20.603,12.822 Z M19.674,13.639 L20.603,12.822 L18.623,10.569 L17.693,11.386 L19.674,13.639 Z M19.742,12.581 C20.015,12.892 19.985,13.366 19.674,13.639 L17.693,11.386 C16.76,12.206 16.668,13.628 17.488,14.561 L19.742,12.581 Z M18.683,12.513 C18.994,12.239 19.468,12.27 19.742,12.581 L17.488,14.561 C18.309,15.495 19.73,15.586 20.664,14.766 L18.683,12.513 Z M19.613,11.696 L18.683,12.513 L20.664,14.766 L21.593,13.949 L19.613,11.696 Z M14.097,15.289 C15.079,15.99 15.885,16.796 16.586,17.778 L19.028,16.034 C18.134,14.783 17.092,13.741 15.84,12.847 L14.097,15.289 Z M9.071,17.111 C9.895,14.882 12.466,14.124 14.097,15.289 L15.84,12.847 C12.405,10.395 7.683,12.216 6.257,16.07 L9.071,17.111 Z M8.181,21.823 C8.12,20.751 8.306,19.177 9.071,17.111 L6.257,16.07 C5.381,18.439 5.096,20.429 5.186,21.995 L8.181,21.823 Z M8.553,23.322 C8.567,23.336 8.246,22.957 8.181,21.823 L5.186,21.995 C5.274,23.541 5.734,24.746 6.432,25.444 L8.553,23.322 Z M10.051,23.694 C8.918,23.629 8.539,23.308 8.553,23.322 L6.432,25.444 C7.129,26.141 8.335,26.601 9.88,26.689 L10.051,23.694 Z M14.764,22.804 C12.697,23.569 11.123,23.755 10.052,23.694 L9.88,26.689 C11.446,26.779 13.435,26.494 15.805,25.618 L14.764,22.804 Z M16.586,17.778 C17.751,19.409 16.993,21.98 14.764,22.804 L15.805,25.618 C19.658,24.192 21.48,19.469 19.028,16.034 L16.586,17.778 Z M20.249,15.163 C19.259,13.776 18.099,12.616 16.712,11.626 L14.969,14.068 C16.086,14.865 17.01,15.789 17.807,16.906 L20.249,15.163 Z M16.325,27.025 C20.966,25.308 23.36,19.52 20.249,15.163 L17.807,16.906 C19.612,19.433 18.333,23.083 15.284,24.211 L16.325,27.025 Z M9.795,28.187 C11.607,28.29 13.805,27.957 16.325,27.025 L15.284,24.211 C13.066,25.032 11.285,25.267 9.966,25.192 L9.795,28.187 Z M5.371,26.504 C6.426,27.559 8.046,28.087 9.795,28.187 L9.966,25.192 C8.625,25.115 7.834,24.725 7.492,24.383 L5.371,26.504 Z M3.688,22.08 C3.788,23.829 4.316,25.449 5.371,26.504 L7.492,24.383 C7.151,24.041 6.76,23.25 6.683,21.909 L3.688,22.08 Z M4.85,15.55 C3.918,18.07 3.585,20.268 3.688,22.08 L6.683,21.909 C6.608,20.59 6.843,18.808 7.664,16.59 L4.85,15.55 Z M16.712,11.626 C12.355,8.515 6.567,10.909 4.85,15.55 L7.664,16.59 C8.792,13.542 12.441,12.263 14.969,14.068 L16.712,11.626 Z M10.5,16 C10.5,15.724 10.724,15.5 11,15.5 L11,18.5 C12.38,18.5 13.5,17.381 13.5,16 L10.5,16 Z M11,16.5 C10.724,16.5 10.5,16.276 10.5,16 L13.5,16 C13.5,14.619 12.38,13.5 11,13.5 L11,16.5 Z M11.5,16 C11.5,16.276 11.276,16.5 11,16.5 L11,13.5 C9.619,13.5 8.5,14.619 8.5,16 L11.5,16 Z M11,15.5 C11.276,15.5 11.5,15.724 11.5,16 L8.5,16 C8.5,17.381 9.619,18.5 11,18.5 L11,15.5 Z M10,24.5 C11.38,24.5 12.5,23.381 12.5,22 L9.5,22 C9.5,21.724 9.724,21.5 10,21.5 L10,24.5 Z M7.5,22 C7.5,23.381 8.619,24.5 10,24.5 L10,21.5 C10.276,21.5 10.5,21.724 10.5,22 L7.5,22 Z M10,19.5 C8.619,19.5 7.5,20.619 7.5,22 L10.5,22 C10.5,22.276 10.276,22.5 10,22.5 L10,19.5 Z M12.5,22 C12.5,20.619 11.38,19.5 10,19.5 L10,22.5 C9.724,22.5 9.5,22.276 9.5,22 L12.5,22 Z M15.5,20 C15.5,19.724 15.724,19.5 16,19.5 L16,22.5 C17.381,22.5 18.5,21.381 18.5,20 L15.5,20 Z M16,20.5 C15.724,20.5 15.5,20.276 15.5,20 L18.5,20 C18.5,18.619 17.381,17.5 16,17.5 L16,20.5 Z M16.5,20 C16.5,20.276 16.276,20.5 16,20.5 L16,17.5 C14.619,17.5 13.5,18.619 13.5,20 L16.5,20 Z M16,19.5 C16.276,19.5 16.5,19.724 16.5,20 L13.5,20 C13.5,21.381 14.619,22.5 16,22.5 L16,19.5 Z"/>
  <path fill="#151E28" d="M15.84,12.847 C17.092,13.741 18.134,14.783 19.028,16.034 C21.486,19.477 19.649,24.196 15.805,25.618 C13.435,26.494 11.446,26.779 9.88,26.689 C8.336,26.601 7.13,26.142 6.432,25.444 C5.733,24.745 5.274,23.539 5.186,21.995 C5.096,20.429 5.381,18.439 6.257,16.07 C7.679,12.225 12.398,10.389 15.84,12.847 Z M17.807,16.906 C17.01,15.789 16.086,14.865 14.969,14.068 C12.436,12.259 8.789,13.549 7.664,16.59 C6.843,18.808 6.608,20.59 6.683,21.909 C6.76,23.249 7.15,24.041 7.492,24.383 C7.834,24.725 8.626,25.115 9.966,25.192 C11.285,25.267 13.066,25.031 15.284,24.211 C18.326,23.086 19.616,19.439 17.807,16.906 Z M19.175,6.046 C19.736,6.323 20.244,6.692 20.599,7.201 C20.964,7.724 21.132,8.344 21.087,9.045 C21.06,9.458 20.703,9.772 20.29,9.745 C19.876,9.719 19.563,9.362 19.59,8.949 C19.615,8.56 19.524,8.283 19.369,8.059 C19.253,7.893 19.083,7.733 18.848,7.581 L18.821,7.597 C17.742,8.219 17.441,9.567 17.986,11.021 C18.131,11.409 17.935,11.841 17.547,11.986 C17.159,12.132 16.727,11.935 16.581,11.547 C15.895,9.714 16.109,7.43 18.071,6.298 L18.468,6.068 C18.685,5.943 18.951,5.934 19.175,6.046 Z M26.249,14.748 C26.298,14.993 26.221,15.248 26.043,15.425 L25.719,15.749 C24.118,17.351 21.855,16.967 20.263,15.829 C19.926,15.589 19.848,15.12 20.088,14.783 C20.329,14.446 20.798,14.368 21.135,14.609 C22.398,15.511 23.778,15.569 24.658,14.689 L24.681,14.666 C24.595,14.4 24.484,14.194 24.353,14.04 C24.178,13.831 23.933,13.672 23.552,13.596 C23.146,13.515 22.882,13.12 22.963,12.714 C23.045,12.307 23.44,12.044 23.846,12.125 C24.535,12.263 25.09,12.586 25.501,13.073 C25.901,13.549 26.126,14.135 26.249,14.748 Z M20.603,12.823 L19.674,13.639 C19.362,13.913 18.889,13.882 18.615,13.571 C18.342,13.26 18.372,12.786 18.683,12.513 L19.613,11.696 C20.9,10.565 22.573,9.975 24.285,10.049 C24.699,10.066 25.02,10.416 25.002,10.83 C24.984,11.244 24.634,11.565 24.22,11.547 C22.895,11.49 21.599,11.947 20.603,12.823 Z M11,22 C11,22.552 10.552,23 10,23 C9.447,23 9,22.552 9,22 C9,21.448 9.447,21 10,21 C10.552,21 11,21.448 11,22 Z M11,17 C10.448,17 10,16.552 10,16 C10,15.448 10.448,15 11,15 C11.552,15 12,15.448 12,16 C12,16.552 11.552,17 11,17 Z M16,21 C15.448,21 15,20.552 15,20 C15,19.448 15.448,19 16,19 C16.552,19 17,19.448 17,20 C17,20.552 16.552,21 16,21 Z"/>
</svg>

