<svg xmlns="http://www.w3.org/2000/svg" viewBox="0 0 32 32">
  <defs/>
  <path fill="white" d="M21,7 L11,7 C10.071,7 9.606,7 9.22,7.077 C7.633,7.392 6.392,8.633 6.077,10.22 C6,10.606 6,11.071 6,12 L6,20 C6,20.929 6,21.394 6.077,21.78 C6.392,23.367 7.633,24.608 9.22,24.923 C9.606,25 10.071,25 11,25 L21,25 C21.929,25 22.394,25 22.78,24.923 C24.367,24.608 25.608,23.367 25.923,21.78 C26,21.394 26,20.929 26,20 L26,12 C26,11.071 26,10.606 25.923,10.22 C25.608,8.633 24.367,7.392 22.78,7.077 C22.394,7 21.929,7 21,7 Z"/>
  <path fill="white" d="M21.095,6.25 L21.096,7.75 L21.096,7.75 L21.095,6.25 Z M10.905,6.25 L10.905,7.75 L10.905,7.75 L10.905,6.25 Z M9.073,6.341 L8.781,4.87 L8.781,4.87 L9.073,6.341 Z M5.341,10.073 L6.812,10.366 L6.812,10.366 L5.341,10.073 Z M5.25,11.905 L6.75,11.905 L6.75,11.905 L5.25,11.905 Z M5.25,20.095 L6.75,20.096 L6.75,20.096 L5.25,20.095 Z M5.341,21.927 L6.812,21.634 L6.812,21.634 L5.341,21.927 Z M9.073,25.659 L9.366,24.188 L9.366,24.188 L9.073,25.659 Z M10.905,25.75 L10.905,24.25 L10.905,24.25 L10.905,25.75 Z M21.095,25.75 L21.096,24.25 L21.096,24.25 L21.095,25.75 Z M22.927,25.659 L22.634,24.188 L22.634,24.188 L22.927,25.659 Z M26.659,21.927 L28.13,22.219 L28.13,22.219 L26.659,21.927 Z M26.75,20.095 L25.25,20.096 L25.25,20.096 L26.75,20.095 Z M26.75,11.905 L25.25,11.905 L25.25,11.905 L26.75,11.905 Z M26.659,10.073 L28.13,9.781 L26.659,10.073 Z M22.927,6.341 L23.219,4.87 L22.927,6.341 Z M22.634,7.812 L22.341,9.284 L22.341,9.284 L22.634,7.812 Z M25.188,10.366 L23.716,10.659 L23.716,10.659 L25.188,10.366 Z M25.188,21.634 L23.716,21.341 L23.716,21.341 L25.188,21.634 Z M22.634,24.188 L22.927,25.659 L22.927,25.659 L22.634,24.188 Z M9.366,24.188 L9.659,22.716 L9.659,22.716 L9.366,24.188 Z M6.812,21.634 L5.341,21.927 L5.341,21.927 L6.812,21.634 Z M6.812,10.366 L5.341,10.073 L5.341,10.073 L6.812,10.366 Z M9.366,7.812 L9.659,9.284 L9.659,9.284 L9.366,7.812 Z M21,7.75 C21.032,7.75 21.064,7.75 21.096,7.75 L21.095,4.75 C21.064,4.75 21.032,4.75 21,4.75 L21,7.75 Z M11,7.75 L21,7.75 L21,4.75 L11,4.75 L11,7.75 Z M10.905,7.75 C10.936,7.75 10.968,7.75 11,7.75 L11,4.75 C10.968,4.75 10.936,4.75 10.905,4.75 L10.905,7.75 Z M9.366,7.812 C9.648,7.756 10.009,7.75 10.905,7.75 L10.905,4.75 C10.124,4.75 9.419,4.743 8.781,4.87 L9.366,7.812 Z M6.812,10.366 C7.069,9.077 8.077,8.069 9.366,7.812 L8.781,4.87 C6.301,5.363 4.363,7.301 3.87,9.781 L6.812,10.366 Z M6.75,11.905 C6.75,11.009 6.756,10.648 6.812,10.366 L3.87,9.781 C3.743,10.419 3.75,11.124 3.75,11.905 L6.75,11.905 Z M6.75,12 C6.75,11.968 6.75,11.936 6.75,11.905 L3.75,11.905 C3.75,11.936 3.75,11.968 3.75,12 L6.75,12 Z M6.75,20 L6.75,12 L3.75,12 L3.75,20 L6.75,20 Z M6.75,20.096 C6.75,20.064 6.75,20.032 6.75,20 L3.75,20 C3.75,20.032 3.75,20.064 3.75,20.095 L6.75,20.096 Z M6.812,21.634 C6.756,21.352 6.75,20.991 6.75,20.096 L3.75,20.095 C3.75,20.876 3.743,21.581 3.87,22.219 L6.812,21.634 Z M9.366,24.188 C8.077,23.931 7.069,22.923 6.812,21.634 L3.87,22.219 C4.363,24.699 6.301,26.637 8.781,27.13 L9.366,24.188 Z M10.905,24.25 C10.009,24.25 9.648,24.244 9.366,24.188 L8.781,27.13 C9.419,27.257 10.124,27.25 10.905,27.25 L10.905,24.25 Z M11,24.25 C10.968,24.25 10.936,24.25 10.905,24.25 L10.905,27.25 C10.936,27.25 10.968,27.25 11,27.25 L11,24.25 Z M21,24.25 L11,24.25 L11,27.25 L21,27.25 L21,24.25 Z M21.096,24.25 C21.064,24.25 21.032,24.25 21,24.25 L21,27.25 C21.032,27.25 21.064,27.25 21.095,27.25 L21.096,24.25 Z M22.634,24.188 C22.352,24.244 21.991,24.25 21.096,24.25 L21.095,27.25 C21.876,27.25 22.581,27.257 23.219,27.13 L22.634,24.188 Z M25.188,21.634 C24.931,22.923 23.923,23.931 22.634,24.188 L23.219,27.13 C25.699,26.637 27.637,24.699 28.13,22.219 L25.188,21.634 Z M25.25,20.096 C25.25,20.991 25.244,21.352 25.188,21.634 L28.13,22.219 C28.257,21.581 28.25,20.876 28.25,20.095 L25.25,20.096 Z M25.25,20 C25.25,20.032 25.25,20.064 25.25,20.096 L28.25,20.095 C28.25,20.064 28.25,20.032 28.25,20 L25.25,20 Z M25.25,12 L25.25,20 L28.25,20 L28.25,12 L25.25,12 Z M25.25,11.905 C25.25,11.936 25.25,11.968 25.25,12 L28.25,12 C28.25,11.968 28.25,11.936 28.25,11.905 L25.25,11.905 Z M25.188,10.366 C25.244,10.648 25.25,11.009 25.25,11.905 L28.25,11.905 C28.25,11.124 28.257,10.419 28.13,9.781 L25.188,10.366 Z M22.634,7.812 C23.923,8.069 24.931,9.077 25.188,10.366 L28.13,9.781 C27.637,7.301 25.699,5.363 23.219,4.87 L22.634,7.812 Z M21.096,7.75 C21.991,7.75 22.352,7.756 22.634,7.812 L23.219,4.87 C22.581,4.743 21.876,4.75 21.095,4.75 L21.096,7.75 Z M22.927,6.341 C22.449,6.246 21.889,6.25 21,6.25 L21,9.25 C21.49,9.25 21.798,9.251 22.019,9.258 C22.235,9.265 22.31,9.277 22.341,9.284 L22.927,6.341 Z M26.659,10.073 C26.284,8.189 24.811,6.716 22.927,6.341 L22.341,9.284 C23.036,9.422 23.578,9.964 23.716,10.659 L26.659,10.073 Z M26.75,12 C26.75,11.111 26.754,10.551 26.659,10.073 L23.716,10.659 C23.723,10.69 23.735,10.765 23.742,10.981 C23.749,11.202 23.75,11.51 23.75,12 L26.75,12 Z M26.75,20 L26.75,12 L23.75,12 L23.75,20 L26.75,20 Z M26.659,21.927 C26.754,21.449 26.75,20.889 26.75,20 L23.75,20 C23.75,20.49 23.749,20.798 23.742,21.019 C23.735,21.235 23.723,21.31 23.716,21.341 L26.659,21.927 Z M22.927,25.659 C24.811,25.284 26.284,23.811 26.659,21.927 L23.716,21.341 C23.578,22.036 23.036,22.578 22.341,22.716 L22.927,25.659 Z M21,25.75 C21.889,25.75 22.449,25.754 22.927,25.659 L22.341,22.716 C22.31,22.723 22.235,22.735 22.019,22.742 C21.798,22.749 21.49,22.75 21,22.75 L21,25.75 Z M11,25.75 L21,25.75 L21,22.75 L11,22.75 L11,25.75 Z M9.073,25.659 C9.551,25.754 10.111,25.75 11,25.75 L11,22.75 C10.51,22.75 10.202,22.749 9.981,22.742 C9.765,22.735 9.69,22.723 9.659,22.716 L9.073,25.659 Z M5.341,21.927 C5.716,23.811 7.189,25.284 9.073,25.659 L9.659,22.716 C8.964,22.578 8.422,22.036 8.284,21.341 L5.341,21.927 Z M5.25,20 C5.25,20.889 5.246,21.449 5.341,21.927 L8.284,21.341 C8.277,21.31 8.265,21.235 8.258,21.019 C8.251,20.798 8.25,20.49 8.25,20 L5.25,20 Z M5.25,12 L5.25,20 L8.25,20 L8.25,12 L5.25,12 Z M5.341,10.073 C5.246,10.551 5.25,11.111 5.25,12 L8.25,12 C8.25,11.51 8.251,11.202 8.258,10.981 C8.265,10.765 8.277,10.69 8.284,10.659 L5.341,10.073 Z M9.073,6.341 C7.189,6.716 5.716,8.189 5.341,10.073 L8.284,10.659 C8.422,9.964 8.964,9.422 9.659,9.284 L9.073,6.341 Z M11,6.25 C10.111,6.25 9.551,6.246 9.073,6.341 L9.659,9.284 C9.69,9.277 9.765,9.265 9.981,9.258 C10.202,9.251 10.51,9.25 11,9.25 L11,6.25 Z M21,6.25 L11,6.25 L11,9.25 L21,9.25 L21,6.25 Z"/>
  <path fill="#151E28" d="M21,6.25 L21.095,6.25 C21.933,6.25 22.467,6.25 22.927,6.341 C24.811,6.716 26.284,8.189 26.659,10.073 C26.75,10.533 26.75,11.067 26.75,11.905 L26.75,20.095 C26.75,20.933 26.75,21.467 26.659,21.927 C26.284,23.811 24.811,25.284 22.927,25.659 C22.467,25.75 21.933,25.75 21.095,25.75 L10.905,25.75 C10.067,25.75 9.533,25.75 9.073,25.659 C7.189,25.284 5.716,23.811 5.341,21.927 C5.25,21.467 5.25,20.933 5.25,20.095 L5.25,20 L5.25,12 L5.25,11.905 C5.25,11.067 5.25,10.533 5.341,10.073 C5.716,8.189 7.189,6.716 9.073,6.341 C9.533,6.25 10.067,6.25 10.905,6.25 L11,6.25 Z M22.634,7.812 C22.338,7.754 21.965,7.75 21,7.75 L11,7.75 C10.035,7.75 9.662,7.754 9.366,7.812 C8.077,8.069 7.069,9.077 6.812,10.366 C6.754,10.662 6.75,11.035 6.75,12 L6.75,20 C6.75,20.965 6.754,21.338 6.812,21.634 C7.069,22.923 8.077,23.931 9.366,24.188 C9.662,24.246 10.035,24.25 11,24.25 L21,24.25 C21.965,24.25 22.338,24.246 22.634,24.188 C23.923,23.931 24.931,22.923 25.188,21.634 C25.246,21.338 25.25,20.965 25.25,20 L25.25,12 C25.25,11.035 25.246,10.662 25.188,10.366 C24.931,9.077 23.923,8.069 22.634,7.812 Z M15,20.25 L22,20.25 C22.414,20.25 22.75,20.586 22.75,21 C22.75,21.414 22.414,21.75 22,21.75 L15,21.75 C14.586,21.75 14.25,21.414 14.25,21 C14.25,20.586 14.586,20.25 15,20.25 Z M10,16.25 L17,16.25 C17.414,16.25 17.75,16.586 17.75,17 C17.75,17.414 17.414,17.75 17,17.75 L10,17.75 C9.586,17.75 9.25,17.414 9.25,17 C9.25,16.586 9.586,16.25 10,16.25 Z M20,16.25 L22,16.25 C22.414,16.25 22.75,16.586 22.75,17 C22.75,17.414 22.414,17.75 22,17.75 L20,17.75 C19.586,17.75 19.25,17.414 19.25,17 C19.25,16.586 19.586,16.25 20,16.25 Z M10,20.25 L12,20.25 C12.414,20.25 12.75,20.586 12.75,21 C12.75,21.414 12.414,21.75 12,21.75 L10,21.75 C9.586,21.75 9.25,21.414 9.25,21 C9.25,20.586 9.586,20.25 10,20.25 Z"/>
</svg>

