<svg xmlns="http://www.w3.org/2000/svg" viewBox="0 0 32 32">
  <defs/>
  <path fill="white" d="M17.509,25 L14.491,25 C12.909,25 12.118,25 11.498,24.7 C10.953,24.435 10.5,24.012 10.2,23.485 C9.859,22.887 9.806,22.098 9.701,20.519 L9,10 L23,10 L22.299,20.519 C22.194,22.098 22.141,22.887 21.8,23.485 C21.5,24.012 21.047,24.435 20.502,24.7 C19.882,25 19.091,25 17.509,25 Z"/>
  <path fill="white" d="M14.561,6.25 L14.56,7.75 L14.561,7.75 L14.561,6.25 Z M14.581,6.25 L14.581,7.75 L14.581,7.75 L14.581,6.25 Z M14.275,6.255 L14.366,7.752 L14.366,7.752 L14.275,6.255 Z M11.89,7.974 L13.282,8.534 L13.282,8.534 L11.89,7.974 Z M11.795,8.243 L13.205,8.756 C13.209,8.743 13.214,8.73 13.218,8.718 L11.795,8.243 Z M11.795,8.243 L10.385,7.731 C10.379,7.748 10.373,7.765 10.367,7.783 L11.795,8.243 Z M11.795,8.243 L13.218,8.718 C13.22,8.713 13.221,8.709 13.223,8.704 L11.795,8.243 Z M11.789,8.263 L13.211,8.737 L13.212,8.737 L11.789,8.263 Z M11.718,8.466 L13.11,9.026 L13.11,9.026 L11.718,8.466 Z M10.634,9.248 L10.543,7.75 L10.543,7.75 L10.634,9.248 Z M10.419,10.75 L10.419,9.25 L10.419,9.25 L10.419,10.75 Z M10.439,10.75 L10.439,12.25 L10.439,12.25 L10.439,10.75 Z M10.439,10.75 L10.44,9.25 L10.439,9.25 L10.439,10.75 Z M10.725,10.745 L10.634,9.248 L10.634,9.248 L10.725,10.745 Z M10.848,10.735 L11.15,9.265 C10.999,9.234 10.844,9.227 10.691,9.243 L10.848,10.735 Z M21.151,10.735 L21.309,9.243 C21.156,9.227 21.001,9.234 20.85,9.265 L21.151,10.735 Z M21.275,10.745 L21.366,9.248 L21.366,9.248 L21.275,10.745 Z M21.561,10.75 L21.561,9.25 L21.561,9.25 L21.561,10.75 Z M21.561,10.75 L21.561,12.25 L21.561,12.25 L21.561,10.75 Z M21.581,10.75 L21.581,9.25 L21.581,9.25 L21.581,10.75 Z M21.366,9.248 L21.457,7.75 L21.457,7.75 L21.366,9.248 Z M20.282,8.466 L18.89,9.026 L18.89,9.026 L20.282,8.466 Z M20.212,8.263 L18.788,8.737 L18.788,8.737 L20.212,8.263 Z M20.205,8.243 L18.782,8.718 L18.782,8.718 L20.205,8.243 Z M20.11,7.974 L18.718,8.534 L18.718,8.534 L20.11,7.974 Z M17.725,6.255 L17.634,7.752 L17.634,7.752 L17.725,6.255 Z M17.439,6.25 L17.439,7.75 L17.439,7.75 L17.439,6.25 Z M17.419,6.25 L17.419,7.75 L17.419,7.75 L17.419,6.25 Z M18.89,9.026 L20.282,8.466 L20.282,8.466 L18.89,9.026 Z M18.992,9.25 L18.992,10.75 C19.514,10.75 19.998,10.479 20.271,10.034 C20.544,9.588 20.565,9.034 20.328,8.569 L18.992,9.25 Z M18.795,8.757 L20.218,8.282 L20.218,8.282 L18.795,8.757 Z M18.788,8.737 L20.212,8.263 L20.212,8.263 L18.788,8.737 Z M18.718,8.534 L20.11,7.974 L20.11,7.974 L18.718,8.534 Z M17.634,7.752 L17.543,9.25 L17.543,9.25 L17.634,7.752 Z M14.366,7.752 L14.457,9.25 L14.457,9.25 L14.366,7.752 Z M13.282,8.534 L11.89,7.974 L11.89,7.974 L13.282,8.534 Z M13.211,8.737 L11.789,8.263 L11.788,8.263 L13.211,8.737 Z M13.205,8.757 L14.612,9.278 C14.617,9.262 14.623,9.246 14.628,9.231 L13.205,8.757 Z M13.205,8.757 L11.798,8.236 C11.791,8.257 11.783,8.278 11.776,8.299 L13.205,8.757 Z M13.205,8.757 L14.628,9.231 C14.63,9.225 14.632,9.219 14.634,9.214 L13.205,8.757 Z M13.11,9.026 L14.502,9.585 L14.502,9.585 L13.11,9.026 Z M13.008,9.25 L11.672,8.569 C11.435,9.034 11.456,9.588 11.729,10.034 C12.002,10.479 12.486,10.75 13.008,10.75 L13.008,9.25 Z M9.915,12.45 L8.418,12.55 L9.915,12.45 Z M8.418,12.55 L9.915,12.45 L9.915,12.45 L8.418,12.55 Z M8.953,20.569 L10.45,20.469 L10.45,20.469 L8.953,20.569 Z M8.955,20.6 L10.452,20.5 L10.452,20.5 L8.955,20.6 Z M9.12,22.479 L10.604,22.261 L10.604,22.261 L9.12,22.479 Z M9.548,23.856 L8.245,24.599 L8.245,24.599 L9.548,23.856 Z M11.171,25.375 L10.517,26.724 L10.517,26.724 L11.171,25.375 Z M12.574,25.71 L12.693,24.215 L12.693,24.215 L12.574,25.71 Z M14.46,25.75 L14.46,24.25 L14.46,24.25 L14.46,25.75 Z M17.54,25.75 L17.54,24.25 L17.54,24.25 L17.54,25.75 Z M19.426,25.71 L19.307,24.215 L19.307,24.215 L19.426,25.71 Z M20.829,25.375 L21.483,26.724 L21.483,26.724 L20.829,25.375 Z M22.452,23.856 L23.755,24.599 L23.755,24.599 L22.452,23.856 Z M22.88,22.479 L21.396,22.261 L21.396,22.261 L22.88,22.479 Z M23.045,20.6 L21.548,20.5 L21.548,20.5 L23.045,20.6 Z M23.047,20.569 L24.544,20.669 L24.544,20.669 L23.047,20.569 Z M23.582,12.55 L25.078,12.65 L25.078,12.65 L23.582,12.55 Z M22.883,11.752 L22.983,10.255 L22.983,10.255 L22.883,11.752 Z M22.085,12.45 L23.582,12.55 L23.582,12.55 L22.085,12.45 Z M21.55,20.469 L23.047,20.569 L23.047,20.569 L21.55,20.469 Z M21.396,22.261 L19.912,22.043 L19.912,22.043 L21.396,22.261 Z M21.148,23.114 L22.452,23.856 L22.452,23.856 L21.148,23.114 Z M20.175,24.025 L19.52,22.675 L19.52,22.675 L20.175,24.025 Z M19.307,24.215 L19.426,25.71 L19.426,25.71 L19.307,24.215 Z M12.693,24.215 L12.574,25.71 L12.574,25.71 L12.693,24.215 Z M11.825,24.025 L12.48,22.675 L12.48,22.675 L11.825,24.025 Z M10.852,23.114 L9.548,23.856 L9.548,23.856 L10.852,23.114 Z M10.604,22.261 L12.088,22.043 L12.088,22.043 L10.604,22.261 Z M10.45,20.469 L8.953,20.569 L8.953,20.569 L10.45,20.469 Z M14.561,7.75 L14.581,7.75 L14.581,4.75 L14.561,4.75 L14.561,7.75 Z M14.366,7.752 C14.395,7.751 14.435,7.75 14.56,7.75 L14.561,4.75 C14.46,4.75 14.323,4.749 14.185,4.758 L14.366,7.752 Z M13.282,8.534 C13.462,8.086 13.884,7.781 14.366,7.752 L14.185,4.758 C12.546,4.857 11.111,5.891 10.498,7.415 L13.282,8.534 Z M13.218,8.718 C13.258,8.598 13.271,8.561 13.282,8.534 L10.498,7.415 C10.447,7.543 10.404,7.673 10.372,7.769 L13.218,8.718 Z M13.205,8.756 L13.205,8.756 L10.385,7.731 L10.385,7.731 L13.205,8.756 Z M13.223,8.704 L13.223,8.704 L10.367,7.783 L10.367,7.783 L13.223,8.704 Z M13.212,8.737 L13.218,8.718 L10.372,7.769 L10.365,7.789 L13.212,8.737 Z M13.11,9.026 C13.143,8.943 13.173,8.851 13.211,8.737 L10.366,7.788 C10.342,7.858 10.33,7.894 10.323,7.915 C10.316,7.935 10.319,7.925 10.326,7.907 L13.11,9.026 Z M10.725,10.745 C11.785,10.681 12.714,10.011 13.11,9.026 L10.326,7.907 C10.363,7.817 10.447,7.756 10.543,7.75 L10.725,10.745 Z M10.419,10.75 C10.539,10.75 10.636,10.75 10.725,10.745 L10.543,7.75 C10.563,7.749 10.573,7.749 10.553,7.75 C10.53,7.75 10.492,7.75 10.419,7.75 L10.419,10.75 Z M9,10.75 L10.419,10.75 L10.419,7.75 L9,7.75 L9,10.75 Z M7,10.75 L9,10.75 L9,7.75 L7,7.75 L7,10.75 Z M7.75,10 C7.75,10.414 7.414,10.75 7,10.75 L7,7.75 C5.757,7.75 4.75,8.757 4.75,10 L7.75,10 Z M7,9.25 C7.414,9.25 7.75,9.586 7.75,10 L4.75,10 C4.75,11.243 5.757,12.25 7,12.25 L7,9.25 Z M9,9.25 L7,9.25 L7,12.25 L9,12.25 L9,9.25 Z M10.419,9.25 L9,9.25 L9,12.25 L10.419,12.25 L10.419,9.25 Z M10.439,9.25 L10.419,9.25 L10.419,12.25 L10.439,12.25 L10.439,9.25 Z M10.439,9.25 L10.439,9.25 L10.439,12.25 L10.439,12.25 L10.439,9.25 Z M10.634,9.248 C10.605,9.249 10.566,9.25 10.44,9.25 L10.439,12.25 C10.54,12.25 10.677,12.251 10.815,12.242 L10.634,9.248 Z M10.691,9.243 C10.672,9.245 10.653,9.247 10.634,9.248 L10.815,12.242 C10.879,12.238 10.943,12.233 11.006,12.226 L10.691,9.243 Z M11,9.25 C11.05,9.25 11.1,9.255 11.15,9.265 L10.547,12.204 C10.694,12.234 10.846,12.25 11,12.25 L11,9.25 Z M21,9.25 L11,9.25 L11,12.25 L21,12.25 L21,9.25 Z M20.85,9.265 C20.9,9.255 20.95,9.25 21,9.25 L21,12.25 C21.154,12.25 21.305,12.234 21.453,12.204 L20.85,9.265 Z M21.366,9.248 C21.347,9.247 21.328,9.245 21.309,9.243 L20.994,12.226 C21.057,12.233 21.121,12.238 21.185,12.242 L21.366,9.248 Z M21.561,9.25 C21.434,9.25 21.395,9.249 21.366,9.248 L21.185,12.242 C21.323,12.251 21.46,12.25 21.561,12.25 L21.561,9.25 Z M21.561,9.25 L21.561,9.25 L21.561,12.25 L21.561,12.25 L21.561,9.25 Z M21.581,9.25 L21.561,9.25 L21.561,12.25 L21.581,12.25 L21.581,9.25 Z M23,9.25 L21.581,9.25 L21.581,12.25 L23,12.25 L23,9.25 Z M25,9.25 L23,9.25 L23,12.25 L25,12.25 L25,9.25 Z M24.25,10 C24.25,9.586 24.586,9.25 25,9.25 L25,12.25 C26.243,12.25 27.25,11.243 27.25,10 L24.25,10 Z M25,10.75 C24.586,10.75 24.25,10.414 24.25,10 L27.25,10 C27.25,8.757 26.243,7.75 25,7.75 L25,10.75 Z M23,10.75 L25,10.75 L25,7.75 L23,7.75 L23,10.75 Z M21.581,10.75 L23,10.75 L23,7.75 L21.581,7.75 L21.581,10.75 Z M21.275,10.745 C21.364,10.75 21.461,10.75 21.581,10.75 L21.581,7.75 C21.508,7.75 21.47,7.75 21.447,7.75 C21.427,7.749 21.437,7.749 21.457,7.75 L21.275,10.745 Z M18.89,9.026 C19.286,10.011 20.215,10.681 21.275,10.745 L21.457,7.75 C21.553,7.756 21.637,7.817 21.674,7.907 L18.89,9.026 Z M18.788,8.737 C18.827,8.851 18.857,8.943 18.89,9.026 L21.674,7.907 C21.681,7.925 21.684,7.935 21.677,7.915 C21.67,7.894 21.658,7.858 21.634,7.788 L18.788,8.737 Z M18.782,8.718 L18.788,8.737 L21.635,7.789 L21.628,7.769 L18.782,8.718 Z M18.718,8.534 C18.729,8.561 18.742,8.598 18.782,8.718 L21.628,7.769 C21.596,7.673 21.553,7.543 21.502,7.415 L18.718,8.534 Z M17.634,7.752 C18.116,7.781 18.538,8.086 18.718,8.534 L21.502,7.415 C20.889,5.891 19.454,4.857 17.815,4.758 L17.634,7.752 Z M17.439,7.75 C17.565,7.75 17.605,7.751 17.634,7.752 L17.815,4.758 C17.677,4.749 17.54,4.75 17.439,4.75 L17.439,7.75 Z M17.419,7.75 L17.439,7.75 L17.439,4.75 L17.419,4.75 L17.419,7.75 Z M14.581,7.75 L17.419,7.75 L17.419,4.75 L14.581,4.75 L14.581,7.75 Z M17.498,9.585 C17.546,9.704 17.598,9.819 17.656,9.931 L20.328,8.569 C20.311,8.535 20.296,8.501 20.282,8.466 L17.498,9.585 Z M17.372,9.231 C17.404,9.327 17.447,9.457 17.498,9.585 L20.282,8.466 C20.271,8.439 20.258,8.402 20.218,8.282 L17.372,9.231 Z M17.365,9.211 L17.372,9.231 L20.218,8.282 L20.212,8.263 L17.365,9.211 Z M17.326,9.093 C17.319,9.075 17.316,9.065 17.323,9.085 C17.33,9.106 17.342,9.142 17.366,9.212 L20.212,8.263 C20.173,8.149 20.143,8.057 20.11,7.974 L17.326,9.093 Z M17.543,9.25 C17.447,9.244 17.363,9.183 17.326,9.093 L20.11,7.974 C19.714,6.989 18.785,6.319 17.725,6.255 L17.543,9.25 Z M17.419,9.25 C17.492,9.25 17.53,9.25 17.553,9.25 C17.573,9.251 17.563,9.251 17.543,9.25 L17.725,6.255 C17.636,6.25 17.539,6.25 17.419,6.25 L17.419,9.25 Z M14.581,9.25 L17.419,9.25 L17.419,6.25 L14.581,6.25 L14.581,9.25 Z M14.457,9.25 C14.437,9.251 14.427,9.251 14.447,9.25 C14.47,9.25 14.508,9.25 14.581,9.25 L14.581,6.25 C14.461,6.25 14.364,6.25 14.275,6.255 L14.457,9.25 Z M14.674,9.093 C14.637,9.183 14.553,9.244 14.457,9.25 L14.275,6.255 C13.215,6.319 12.286,6.989 11.89,7.974 L14.674,9.093 Z M14.634,9.212 C14.658,9.142 14.67,9.106 14.677,9.085 C14.684,9.065 14.681,9.075 14.674,9.093 L11.89,7.974 C11.857,8.057 11.827,8.149 11.789,8.263 L14.634,9.212 Z M14.628,9.231 L14.635,9.211 L11.788,8.263 L11.782,8.282 L14.628,9.231 Z M14.612,9.278 L14.612,9.278 L11.798,8.236 L11.798,8.236 L14.612,9.278 Z M14.634,9.214 L14.634,9.214 L11.776,8.299 L11.776,8.299 L14.634,9.214 Z M14.502,9.585 C14.553,9.457 14.596,9.327 14.628,9.231 L11.782,8.282 C11.742,8.402 11.729,8.439 11.718,8.466 L14.502,9.585 Z M14.344,9.931 C14.402,9.819 14.454,9.704 14.502,9.585 L11.718,8.466 C11.704,8.501 11.689,8.535 11.672,8.569 L14.344,9.931 Z M18.992,7.75 L13.008,7.75 L13.008,10.75 L18.992,10.75 L18.992,7.75 Z M9.217,13.248 C8.803,13.276 8.446,12.963 8.418,12.55 L11.412,12.35 C11.329,11.11 10.257,10.172 9.017,10.255 L9.217,13.248 Z M9.915,12.45 C9.943,12.863 9.63,13.221 9.217,13.248 L9.017,10.255 C7.777,10.338 6.839,11.41 6.922,12.65 L9.915,12.45 Z M10.45,20.469 L9.915,12.45 L6.922,12.65 L7.456,20.669 L10.45,20.469 Z M10.452,20.5 L10.45,20.469 L7.456,20.669 L7.458,20.7 L10.452,20.5 Z M10.604,22.261 C10.542,21.834 10.504,21.285 10.452,20.5 L7.458,20.7 C7.508,21.441 7.552,22.125 7.636,22.697 L10.604,22.261 Z M10.852,23.114 C10.746,22.928 10.666,22.684 10.604,22.261 L7.636,22.697 C7.725,23.302 7.88,23.958 8.245,24.599 L10.852,23.114 Z M11.825,24.025 C11.416,23.826 11.077,23.509 10.852,23.114 L8.245,24.599 C8.77,25.521 9.562,26.262 10.517,26.724 L11.825,24.025 Z M12.693,24.215 C12.266,24.181 12.017,24.118 11.825,24.025 L10.517,26.724 C11.181,27.046 11.845,27.157 12.456,27.205 L12.693,24.215 Z M14.46,24.25 C13.673,24.25 13.123,24.249 12.693,24.215 L12.456,27.205 C13.031,27.251 13.717,27.25 14.46,27.25 L14.46,24.25 Z M14.491,24.25 L14.46,24.25 L14.46,27.25 L14.491,27.25 L14.491,24.25 Z M17.509,24.25 L14.491,24.25 L14.491,27.25 L17.509,27.25 L17.509,24.25 Z M17.54,24.25 L17.509,24.25 L17.509,27.25 L17.54,27.25 L17.54,24.25 Z M19.307,24.215 C18.877,24.249 18.327,24.25 17.54,24.25 L17.54,27.25 C18.283,27.25 18.969,27.251 19.544,27.205 L19.307,24.215 Z M20.175,24.025 C19.983,24.118 19.734,24.181 19.307,24.215 L19.544,27.205 C20.154,27.157 20.819,27.046 21.483,26.724 L20.175,24.025 Z M21.148,23.114 C20.923,23.509 20.584,23.826 20.175,24.025 L21.483,26.724 C22.438,26.262 23.23,25.521 23.755,24.599 L21.148,23.114 Z M21.396,22.261 C21.334,22.684 21.254,22.928 21.148,23.114 L23.755,24.599 C24.12,23.958 24.275,23.302 24.364,22.697 L21.396,22.261 Z M21.548,20.5 C21.496,21.285 21.458,21.834 21.396,22.261 L24.364,22.697 C24.448,22.125 24.492,21.441 24.542,20.7 L21.548,20.5 Z M21.55,20.469 L21.548,20.5 L24.542,20.7 L24.544,20.669 L21.55,20.469 Z M22.085,12.45 L21.55,20.469 L24.544,20.669 L25.078,12.65 L22.085,12.45 Z M22.783,13.248 C22.37,13.221 22.057,12.863 22.085,12.45 L25.078,12.65 C25.161,11.41 24.223,10.338 22.983,10.255 L22.783,13.248 Z M23.582,12.55 C23.554,12.963 23.197,13.276 22.783,13.248 L22.983,10.255 C21.743,10.172 20.671,11.11 20.588,12.35 L23.582,12.55 Z M23.047,20.569 L23.582,12.55 L20.588,12.35 L20.054,20.37 L23.047,20.569 Z M22.88,22.479 C22.954,21.973 22.995,21.346 23.047,20.569 L20.054,20.37 C19.999,21.195 19.965,21.682 19.912,22.043 L22.88,22.479 Z M22.452,23.856 C22.687,23.443 22.804,22.993 22.88,22.479 L19.912,22.043 C19.863,22.377 19.82,22.414 19.845,22.371 L22.452,23.856 Z M20.829,25.375 C21.511,25.044 22.077,24.515 22.452,23.856 L19.845,22.371 C19.77,22.503 19.657,22.609 19.52,22.675 L20.829,25.375 Z M19.426,25.71 C19.944,25.669 20.401,25.582 20.829,25.375 L19.52,22.675 C19.565,22.653 19.524,22.693 19.188,22.72 L19.426,25.71 Z M17.509,25.75 C18.288,25.75 18.916,25.751 19.426,25.71 L19.188,22.72 C18.825,22.748 18.337,22.75 17.509,22.75 L17.509,25.75 Z M14.491,25.75 L17.509,25.75 L17.509,22.75 L14.491,22.75 L14.491,25.75 Z M12.574,25.71 C13.084,25.751 13.712,25.75 14.491,25.75 L14.491,22.75 C13.663,22.75 13.175,22.748 12.812,22.72 L12.574,25.71 Z M11.171,25.375 C11.599,25.582 12.056,25.669 12.574,25.71 L12.812,22.72 C12.476,22.693 12.435,22.653 12.48,22.675 L11.171,25.375 Z M9.548,23.856 C9.923,24.515 10.489,25.044 11.171,25.375 L12.48,22.675 C12.343,22.609 12.23,22.503 12.155,22.371 L9.548,23.856 Z M9.12,22.479 C9.196,22.993 9.313,23.443 9.548,23.856 L12.155,22.371 C12.18,22.414 12.137,22.377 12.088,22.043 L9.12,22.479 Z M8.953,20.569 C9.005,21.346 9.046,21.973 9.12,22.479 L12.088,22.043 C12.036,21.682 12.001,21.195 11.946,20.37 L8.953,20.569 Z M8.418,12.55 L8.953,20.569 L11.946,20.37 L11.412,12.35 L8.418,12.55 Z M16.25,15 C16.25,13.757 15.243,12.75 14,12.75 L14,15.75 C13.586,15.75 13.25,15.414 13.25,15 L16.25,15 Z M16.25,20 L16.25,15 L13.25,15 L13.25,20 L16.25,20 Z M14,22.25 C15.243,22.25 16.25,21.243 16.25,20 L13.25,20 C13.25,19.586 13.586,19.25 14,19.25 L14,22.25 Z M11.75,20 C11.75,21.243 12.757,22.25 14,22.25 L14,19.25 C14.414,19.25 14.75,19.586 14.75,20 L11.75,20 Z M11.75,15 L11.75,20 L14.75,20 L14.75,15 L11.75,15 Z M14,12.75 C12.757,12.75 11.75,13.757 11.75,15 L14.75,15 C14.75,15.414 14.414,15.75 14,15.75 L14,12.75 Z M18,15.75 C17.586,15.75 17.25,15.414 17.25,15 L20.25,15 C20.25,13.757 19.243,12.75 18,12.75 L18,15.75 Z M18.75,15 C18.75,15.414 18.414,15.75 18,15.75 L18,12.75 C16.757,12.75 15.75,13.757 15.75,15 L18.75,15 Z M18.75,20 L18.75,15 L15.75,15 L15.75,20 L18.75,20 Z M18,19.25 C18.414,19.25 18.75,19.586 18.75,20 L15.75,20 C15.75,21.243 16.757,22.25 18,22.25 L18,19.25 Z M17.25,20 C17.25,19.586 17.586,19.25 18,19.25 L18,22.25 C19.243,22.25 20.25,21.243 20.25,20 L17.25,20 Z M17.25,15 L17.25,20 L20.25,20 L20.25,15 L17.25,15 Z"/>
  <path fill="#151E28" d="M9.915,12.45 L10.45,20.469 C10.503,21.27 10.541,21.828 10.604,22.261 C10.667,22.685 10.746,22.929 10.852,23.114 C11.077,23.509 11.416,23.826 11.825,24.025 C12.017,24.118 12.266,24.181 12.693,24.215 C13.129,24.25 13.688,24.25 14.491,24.25 L17.509,24.25 C18.312,24.25 18.871,24.25 19.307,24.215 C19.734,24.181 19.983,24.118 20.175,24.025 C20.584,23.826 20.923,23.509 21.148,23.114 C21.254,22.929 21.333,22.685 21.396,22.261 C21.459,21.828 21.497,21.27 21.55,20.469 L22.085,12.45 C22.112,12.037 22.47,11.724 22.883,11.752 C23.296,11.779 23.609,12.137 23.582,12.55 L23.047,20.569 L23.045,20.6 C22.994,21.363 22.953,21.98 22.88,22.479 C22.804,22.993 22.687,23.443 22.452,23.856 C22.077,24.515 21.511,25.044 20.829,25.375 C20.401,25.582 19.944,25.669 19.426,25.71 C18.923,25.75 18.305,25.75 17.54,25.75 L14.46,25.75 C13.695,25.75 13.077,25.75 12.574,25.71 C12.056,25.669 11.599,25.582 11.171,25.375 C10.489,25.044 9.923,24.515 9.548,23.856 C9.313,23.443 9.196,22.993 9.12,22.479 C9.047,21.98 9.006,21.363 8.955,20.6 L8.953,20.569 L8.418,12.55 C8.391,12.137 8.703,11.779 9.117,11.752 C9.53,11.724 9.887,12.037 9.915,12.45 Z M14.561,6.25 L17.439,6.25 C17.553,6.25 17.641,6.25 17.725,6.255 C18.785,6.319 19.714,6.989 20.11,7.974 C20.141,8.052 20.169,8.136 20.205,8.243 L20.212,8.263 C20.257,8.399 20.27,8.436 20.282,8.466 C20.462,8.914 20.884,9.219 21.366,9.248 C21.398,9.25 21.438,9.25 21.581,9.25 L25,9.25 C25.414,9.25 25.75,9.586 25.75,10 C25.75,10.414 25.414,10.75 25,10.75 L21.561,10.75 C21.447,10.75 21.359,10.75 21.275,10.745 C21.234,10.743 21.193,10.739 21.152,10.735 C21.103,10.745 21.052,10.75 21,10.75 L11,10.75 C10.948,10.75 10.897,10.745 10.849,10.735 C10.807,10.739 10.766,10.743 10.725,10.745 C10.641,10.75 10.553,10.75 10.439,10.75 L7,10.75 C6.586,10.75 6.25,10.414 6.25,10 C6.25,9.586 6.586,9.25 7,9.25 L10.419,9.25 C10.562,9.25 10.602,9.25 10.634,9.248 C11.116,9.219 11.538,8.914 11.718,8.466 C11.73,8.436 11.743,8.399 11.788,8.263 L11.795,8.243 L11.795,8.243 L11.795,8.243 C11.831,8.136 11.859,8.052 11.89,7.974 C12.286,6.989 13.215,6.319 14.275,6.255 C14.359,6.25 14.447,6.25 14.561,6.25 Z M14,14.25 C14.414,14.25 14.75,14.586 14.75,15 L14.75,20 C14.75,20.414 14.414,20.75 14,20.75 C13.586,20.75 13.25,20.414 13.25,20 L13.25,15 C13.25,14.586 13.586,14.25 14,14.25 Z M18.75,15 L18.75,20 C18.75,20.414 18.414,20.75 18,20.75 C17.586,20.75 17.25,20.414 17.25,20 L17.25,15 C17.25,14.586 17.586,14.25 18,14.25 C18.414,14.25 18.75,14.586 18.75,15 Z M18.992,9.25 C18.955,9.177 18.921,9.102 18.89,9.026 C18.859,8.948 18.831,8.864 18.795,8.757 L18.788,8.737 C18.743,8.601 18.73,8.564 18.718,8.534 C18.538,8.086 18.116,7.781 17.634,7.752 C17.602,7.75 17.562,7.75 17.419,7.75 L14.581,7.75 C14.438,7.75 14.398,7.75 14.366,7.752 C13.884,7.781 13.462,8.086 13.282,8.534 C13.27,8.564 13.257,8.601 13.212,8.737 L13.205,8.757 L13.205,8.757 L13.205,8.757 C13.169,8.864 13.141,8.948 13.11,9.026 C13.079,9.102 13.045,9.177 13.008,9.25 Z"/>
</svg>

