<svg xmlns="http://www.w3.org/2000/svg" viewBox="0 0 24 24"><path fill="#636F7E" opacity=".16" d="M14.5 21c3.038 0 5.5-2.91 5.5-6.5S17.538 8 14.5 8c-.9 0-1.75.256-2.5.709A4.808 4.808 0 0 0 9.5 8C6.463 8 4 10.91 4 14.5S6.463 21 9.5 21c.9 0 1.75-.256 2.5-.709.75.453 1.6.709 2.5.709Z"/><path fill="#151E28" d="M9.501 7.25a5.514 5.514 0 0 1 2.5.602 5.508 5.508 0 0 1 2.5-.602c3.564 0 6.25 3.368 6.25 7.25s-2.686 7.25-6.25 7.25a5.514 5.514 0 0 1-2.5-.602 5.518 5.518 0 0 1-2.5.602c-3.565 0-6.25-3.368-6.25-7.25s2.685-7.25 6.25-7.25ZM4.75 14.5h-.001c0 3.298 2.24 5.75 4.75 5.75.755 0 1.472-.213 2.112-.6a.751.751 0 0 1 .776 0c.635.39 1.366.598 2.112.6 2.511 0 4.75-2.452 4.75-5.75s-2.239-5.75-4.75-5.75c-.755 0-1.472.214-2.112.6a.751.751 0 0 1-.776 0 4.067 4.067 0 0 0-2.111-.6c-2.512 0-4.75 2.452-4.75 5.75ZM16.901 2.67a.75.75 0 0 1 .604.777l-.01.187c-.024.447-.046.846-.115 1.243-.083.472-.23.928-.496 1.51a.75.75 0 0 1-1.363-.626c.225-.492.325-.823.381-1.143.03-.176.051-.354.063-.532a3.974 3.974 0 0 0-1.939.57c-.81.482-1.405 1.205-1.602 2.02a.748.748 0 0 1-1.25.374.749.749 0 0 1-.208-.726c.31-1.29 1.215-2.316 2.294-2.957 1.077-.64 2.402-.941 3.641-.698Z"/></svg>