<svg xmlns="http://www.w3.org/2000/svg" viewBox="0 0 24 24"><path fill="#636F7E" opacity=".16" d="M17 12a5 5 0 1 1-10 0 5 5 0 1 1 10 0Z"/><path fill="#151E28" d="M14 14.75a.75.75 0 0 1 0-1.5h3a.75.75 0 0 1 .75.75v3a.75.75 0 0 1-1.5 0v-.943a5.877 5.877 0 0 1-10.012-2.91.751.751 0 0 1 1.471-.294 4.377 4.377 0 0 0 7.693 1.897H14Zm-5.403-5.5H10a.75.75 0 0 1 0 1.5H7a.75.75 0 0 1-.75-.75V7a.75.75 0 0 1 1.5 0v.942a5.877 5.877 0 0 1 10.011 2.911.751.751 0 0 1-1.471.294A4.377 4.377 0 0 0 8.597 9.25Z"/></svg>