<svg xmlns="http://www.w3.org/2000/svg" viewBox="0 0 24 24"><path fill="#636F7E" opacity=".16" d="m17.33 12.694-3.4 3.524c-.624.647-1.72.205-1.72-.694V13.8H8a1 1 0 0 1-1-1v-1.6a1 1 0 0 1 1-1h4.21V8.477c0-.9 1.095-1.342 1.72-.695l3.4 3.524a1 1 0 0 1 0 1.388Z"/><path fill="#151E28" d="m17.87 13.215-3.4 3.524c-1.093 1.133-3.01.359-3.01-1.215v-.974H8a1.75 1.75 0 0 1-1.75-1.75v-1.6c0-.966.784-1.75 1.75-1.75h3.46v-.973c0-1.575 1.917-2.348 3.01-1.215l3.4 3.523a1.75 1.75 0 0 1 0 2.43Zm-1.08-1.388-3.4-3.524a.25.25 0 0 0-.43.174V10.2a.75.75 0 0 1-.75.75H8a.25.25 0 0 0-.25.25v1.6c0 .138.112.25.25.25h4.21a.75.75 0 0 1 .75.75v1.724a.25.25 0 0 0 .43.173l3.4-3.523a.25.25 0 0 0 0-.347Z"/></svg>