<svg xmlns="http://www.w3.org/2000/svg" viewBox="0 0 24 24"><path fill="#636F7E" opacity=".16" d="m11.306 7.67-3.524 3.4c-.647.624-.205 1.72.695 1.72H10.2V17a1 1 0 0 0 1 1h1.6a1 1 0 0 0 1-1v-4.21h1.724c.9 0 1.341-1.095.694-1.72l-3.523-3.4a1 1 0 0 0-1.39 0Z"/><path fill="#151E28" d="M10.785 7.13a1.75 1.75 0 0 1 2.43 0l3.524 3.4c1.133 1.093.359 3.01-1.215 3.01h-.974V17a1.75 1.75 0 0 1-1.75 1.75h-1.6A1.75 1.75 0 0 1 9.45 17v-3.46h-.973c-1.575 0-2.348-1.917-1.215-3.01Zm1.389 1.08a.25.25 0 0 0-.347 0l-3.524 3.4a.25.25 0 0 0 .174.43H10.2a.75.75 0 0 1 .75.75V17c0 .138.112.25.25.25h1.6a.25.25 0 0 0 .25-.25v-4.21a.75.75 0 0 1 .75-.75h1.724a.25.25 0 0 0 .173-.43Z"/></svg>