<svg xmlns="http://www.w3.org/2000/svg" viewBox="0 0 24 24"><path fill="#636F7E" opacity=".16" d="M22 12a10 10 0 1 1-20 0 10 10 0 1 1 20 0Z"/><path fill="#151E28" d="M1.25 12C1.25 6.063 6.063 1.25 12 1.25S22.75 6.063 22.75 12 17.937 22.75 12 22.75 1.25 17.937 1.25 12ZM12 2.75A9.25 9.25 0 0 0 2.75 12 9.25 9.25 0 0 0 12 21.25 9.25 9.25 0 0 0 21.25 12 9.25 9.25 0 0 0 12 2.75ZM11.25 16a.75.75 0 0 1 .75-.75h.8c.572 0 .957 0 1.252-.025.288-.023.425-.065.516-.111.235-.12.426-.311.546-.546.046-.091.088-.228.111-.515.024-.296.025-.68.025-1.253v-1.6c0-.572 0-.957-.025-1.253-.023-.287-.065-.424-.111-.514a1.255 1.255 0 0 0-.546-.547c-.091-.046-.228-.088-.515-.111-.296-.024-.68-.025-1.253-.025H12a.75.75 0 0 1 0-1.5h.83c.535 0 .98 0 1.345.03.38.03.736.098 1.073.27.518.264.938.684 1.202 1.202.172.337.24.693.27 1.073.03.365.03.81.03 1.345v1.66c0 .535 0 .98-.03 1.345-.03.38-.098.736-.27 1.073a2.752 2.752 0 0 1-1.201 1.202c-.338.172-.694.24-1.074.27-.365.03-.81.03-1.345.03H12a.75.75 0 0 1-.75-.75Zm-3.78-4.53 2-2a.749.749 0 0 1 1.275.326.749.749 0 0 1-.215.734l-.72.72H13a.75.75 0 0 1 0 1.5H9.81l.72.72a.751.751 0 0 1-.018 1.042.751.751 0 0 1-1.042.018l-2-2a.75.75 0 0 1 0-1.06Z"/></svg>