<svg xmlns="http://www.w3.org/2000/svg" viewBox="0 0 24 24"><path fill="#636F7E" opacity=".16" d="M22 12a10 10 0 1 1-20 0 10 10 0 1 1 20 0Z"/><path fill="#151E28" d="M1.25 12C1.25 6.063 6.063 1.25 12 1.25S22.75 6.063 22.75 12 17.937 22.75 12 22.75 1.25 17.937 1.25 12ZM12 2.75A9.25 9.25 0 0 0 2.75 12 9.25 9.25 0 0 0 12 21.25 9.25 9.25 0 0 0 21.25 12 9.25 9.25 0 0 0 12 2.75Zm2.773 9.538h-.001L11.81 15.25h2.433a.75.75 0 0 1 0 1.5H10a.75.75 0 0 1-.75-.75v-4.243a.75.75 0 0 1 1.5 0v2.432l2.963-2.962a.75.75 0 0 1 1.06 1.061ZM9 7.25h6a.75.75 0 0 1 0 1.5H9a.75.75 0 0 1 0-1.5Z"/></svg>