<svg xmlns="http://www.w3.org/2000/svg" viewBox="0 0 24 24"><path fill="#636F7E" opacity=".16" d="M19 19H5V5h14v14Z"/><path fill="#151E28" d="M9.75 5a.75.75 0 0 1-.75.75H6.81l3.72 3.72a.749.749 0 0 1-.326 1.275.749.749 0 0 1-.734-.215L5.75 6.81V9a.75.75 0 0 1-1.5 0V5A.75.75 0 0 1 5 4.25h4a.75.75 0 0 1 .75.75Zm10 0v4a.75.75 0 0 1-1.5 0V6.81l-3.72 3.72a.749.749 0 0 1-1.275-.326.749.749 0 0 1 .215-.734l3.72-3.72H15a.75.75 0 0 1 0-1.5h4a.75.75 0 0 1 .75.75Zm-6.28 8.47a.75.75 0 0 1 1.06 0l3.72 3.72V15a.75.75 0 0 1 1.5 0v4a.75.75 0 0 1-.75.75h-4a.75.75 0 0 1 0-1.5h2.19l-3.72-3.72a.75.75 0 0 1 0-1.06Zm-2.94 0a.75.75 0 0 1 0 1.06l-3.72 3.72H9a.75.75 0 0 1 0 1.5H5a.75.75 0 0 1-.75-.75v-4a.75.75 0 0 1 1.5 0v2.19l3.72-3.72a.75.75 0 0 1 1.06 0Z"/></svg>