<svg xmlns="http://www.w3.org/2000/svg" viewBox="0 0 24 24"><path fill="#636F7E" opacity=".16" d="M22 12a10 10 0 1 1-20 0 10 10 0 1 1 20 0Z"/><path fill="#151E28" d="M1.25 12C1.25 6.063 6.063 1.25 12 1.25S22.75 6.063 22.75 12 17.937 22.75 12 22.75 1.25 17.937 1.25 12ZM12 2.75A9.25 9.25 0 0 0 2.75 12 9.25 9.25 0 0 0 12 21.25 9.25 9.25 0 0 0 21.25 12 9.25 9.25 0 0 0 12 2.75ZM6.25 12a.75.75 0 0 1 .75-.75h4.19L9.47 9.53a.749.749 0 0 1 .326-1.275.749.749 0 0 1 .734.215l3 3a.75.75 0 0 1 0 1.06l-3 3a.751.751 0 0 1-1.042-.018.751.751 0 0 1-.018-1.042l1.72-1.72H7a.75.75 0 0 1-.75-.75ZM16 15.75a.75.75 0 0 1-.75-.75V9a.75.75 0 0 1 1.5 0v6a.75.75 0 0 1-.75.75Z"/></svg>