<svg xmlns="http://www.w3.org/2000/svg" viewBox="0 0 24 24"><path fill="#636F7E" opacity=".16" d="M22 12a10 10 0 1 1-20 0 10 10 0 1 1 20 0Z"/><path fill="#151E28" d="M12 1.25c5.937 0 10.75 4.813 10.75 10.75S17.937 22.75 12 22.75 1.25 17.937 1.25 12 6.063 1.25 12 1.25ZM2.75 12A9.25 9.25 0 0 0 12 21.25 9.25 9.25 0 0 0 21.25 12 9.25 9.25 0 0 0 12 2.75 9.25 9.25 0 0 0 2.75 12ZM16 7.25a.75.75 0 0 1 .75.75v2.286a.75.75 0 0 1-1.5 0V9.81l-1.577 1.576a.751.751 0 0 1-1.042-.018.751.751 0 0 1-.018-1.042l1.576-1.577h-.475a.75.75 0 0 1 0-1.5H16Zm-5.673 5.363a.751.751 0 0 1 1.042.018.751.751 0 0 1 .018 1.042L9.811 15.25h.475a.75.75 0 0 1 0 1.5H8a.75.75 0 0 1-.75-.75v-2.286a.75.75 0 0 1 1.5 0v.475Zm2.286 1.06a.751.751 0 0 1 .018-1.042.751.751 0 0 1 1.042-.018l1.577 1.576v-.475a.75.75 0 0 1 1.5 0V16a.75.75 0 0 1-.75.75h-2.286a.75.75 0 0 1 0-1.5h.475ZM8 7.25h2.286a.75.75 0 0 1 0 1.5H9.81l1.576 1.577a.751.751 0 0 1-.018 1.042.751.751 0 0 1-1.042.018L8.75 9.811v.475a.75.75 0 0 1-1.5 0V8A.75.75 0 0 1 8 7.25Z"/></svg>