<svg xmlns="http://www.w3.org/2000/svg" viewBox="0 0 24 24"><path fill="#636F7E" opacity=".16" d="m12 21 4.5-4.5L12 12v9Z"/><path fill="#151E28" d="M1.47 1.47a.75.75 0 0 1 1.06 0l5 5 5 4.999 4.5 4.5v.001l5.5 5.5a.749.749 0 0 1-.326 1.275.749.749 0 0 1-.734-.215l-4.97-4.97-3.97 3.97a.75.75 0 0 1-1.28-.53v-7.19l-3.72 3.72a.751.751 0 0 1-1.042-.018.751.751 0 0 1-.018-1.042L10.94 12 1.47 2.53a.75.75 0 0 1 0-1.06Zm10.243.838a.75.75 0 0 1 .817.163l4.5 4.5a.75.75 0 0 1 0 1.06l-2 2a.751.751 0 0 1-1.042-.018.751.751 0 0 1-.018-1.042l1.47-1.47-2.69-2.69V8a.75.75 0 0 1-1.5 0V3a.75.75 0 0 1 .463-.693ZM12.75 13.81v5.38l2.69-2.69Z"/></svg>