<svg xmlns="http://www.w3.org/2000/svg" viewBox="0 0 24 24"><path fill="#636F7E" opacity=".16" d="M17 3H7a2 2 0 0 0-2 2v13a2 2 0 0 1 2-2h12V5a2 2 0 0 0-2-2Z"/><path fill="#151E28" d="M7 2.25h10A2.75 2.75 0 0 1 19.75 5v12.83c0 .535 0 .98-.03 1.345-.03.38-.098.736-.27 1.074a2.752 2.752 0 0 1-1.202 1.201c-.337.172-.693.24-1.073.27-.365.03-.81.03-1.345.03H7.427c-.393 0-.696 0-.964-.053a2.75 2.75 0 0 1-2.16-2.161c-.053-.267-.053-.57-.053-.963v-.146c0-.134 0-.258.002-.373-.002-.018-.002-.036-.002-.054V5A2.75 2.75 0 0 1 7 2.25Zm11.25 13V5c0-.69-.56-1.25-1.25-1.25H7c-.69 0-1.25.56-1.25 1.25v10.55c.375-.192.8-.3 1.25-.3Zm0 1.5H7.5c-.5 0-.641.004-.744.024a1.25 1.25 0 0 0-.982.982c-.02.103-.024.243-.024.744 0 .5.004.641.024.744.099.496.486.883.982.982.103.02.243.024.744.024h8.3c.572 0 .957 0 1.252-.025.288-.023.425-.065.515-.111.236-.12.427-.311.547-.547.046-.09.088-.227.111-.515.024-.295.025-.68.025-1.252ZM8.25 7A.75.75 0 0 1 9 6.25h6a.75.75 0 0 1 0 1.5H9A.75.75 0 0 1 8.25 7Z"/></svg>