<svg xmlns="http://www.w3.org/2000/svg" viewBox="0 0 24 24"><path fill="#636F7E" opacity=".16" d="M4 4h16v16H4Z"/><path fill="#151E28" d="M13 12a1 1 0 1 1-2 0 1 1 0 0 1 2 0Zm0-4a1 1 0 1 1-2 0 1 1 0 0 1 2 0Zm-5 5a1 1 0 1 1 0-2 1 1 0 0 1 0 2Zm-3-1a1 1 0 1 1-2 0 1 1 0 0 1 2 0Zm7-7a1 1 0 1 1 0-2 1 1 0 0 1 0 2Zm0 12a1 1 0 1 1 0-2 1 1 0 0 1 0 2Zm4-4a1 1 0 1 1 0-2 1 1 0 0 1 0 2ZM5 8a1 1 0 1 1-2 0 1 1 0 0 1 2 0Zm4-4a1 1 0 1 1-2 0 1 1 0 0 1 2 0ZM4 17a1 1 0 1 1 0-2 1 1 0 0 1 0 2ZM17 4a1 1 0 1 1-2 0 1 1 0 0 1 2 0Zm-5 17a1 1 0 1 1 0-2 1 1 0 0 1 0 2Zm9-9a1 1 0 1 1-2 0 1 1 0 0 1 2 0ZM4 5a1 1 0 1 1 0-2 1 1 0 0 1 0 2Zm5 15a1 1 0 1 1-2 0 1 1 0 0 1 2 0ZM21 8a1 1 0 1 1-2 0 1 1 0 0 1 2 0ZM5 20a1 1 0 1 1-2 0 1 1 0 0 1 2 0ZM20 5a1 1 0 1 1 0-2 1 1 0 0 1 0 2Zm0 12a1 1 0 1 1 0-2 1 1 0 0 1 0 2Zm-3 3a1 1 0 1 1-2 0 1 1 0 0 1 2 0Zm3 1a1 1 0 1 1 0-2 1 1 0 0 1 0 2Z"/></svg>