<svg xmlns="http://www.w3.org/2000/svg" viewBox="0 0 24 24"><path fill="#636F7E" opacity=".16" d="M6 4h12a2 2 0 0 1 2 2v12a2 2 0 0 1-2 2H6a2 2 0 0 1-2-2V6a2 2 0 0 1 2-2Z"/><path fill="#151E28" d="M4.75 3v18a.75.75 0 0 1-1.5 0V3a.75.75 0 0 1 1.5 0ZM13 12a1 1 0 1 1-2 0 1 1 0 0 1 2 0Zm0-4a1 1 0 1 1-2 0 1 1 0 0 1 2 0Zm-5 5a1 1 0 1 1 0-2 1 1 0 0 1 0 2Zm4-8a1 1 0 1 1 0-2 1 1 0 0 1 0 2Zm0 12a1 1 0 1 1 0-2 1 1 0 0 1 0 2Zm4-4a1 1 0 1 1 0-2 1 1 0 0 1 0 2ZM9 4a1 1 0 1 1-2 0 1 1 0 0 1 2 0Zm8 0a1 1 0 1 1-2 0 1 1 0 0 1 2 0Zm-4 16a1 1 0 1 1-2 0 1 1 0 0 1 2 0Zm8-8a1 1 0 1 1-2 0 1 1 0 0 1 2 0ZM9 20a1 1 0 1 1-2 0 1 1 0 0 1 2 0ZM21 8a1 1 0 1 1-2 0 1 1 0 0 1 2 0Zm-1-3a1 1 0 1 1 0-2 1 1 0 0 1 0 2Zm0 12a1 1 0 1 1 0-2 1 1 0 0 1 0 2Zm-3 3a1 1 0 1 1-2 0 1 1 0 0 1 2 0Zm3 1a1 1 0 1 1 0-2 1 1 0 0 1 0 2Z"/></svg>