<svg xmlns="http://www.w3.org/2000/svg" viewBox="0 0 24 24"><path fill="#636F7E" opacity=".16" d="M12 21a9 9 0 1 0-9-9v9l.817-.545c.75-.5 1.126-.75 1.402-.836.352-.109.39-.113.758-.082.288.024.948.28 2.267.792.95.37 2.202.671 3.756.671Z"/><path fill="#151E28" d="M2.25 12A9.75 9.75 0 0 1 12 2.25 9.75 9.75 0 0 1 21.75 12 9.75 9.75 0 0 1 12 21.75c-1.653 0-2.997-.322-4.028-.722a71.32 71.32 0 0 0-1.501-.572 6.824 6.824 0 0 0-.411-.137c-.1-.028-.14-.034-.145-.035a1.492 1.492 0 0 0-.241-.013 1.58 1.58 0 0 0-.233.065 1.84 1.84 0 0 0-.354.186c-.207.126-.473.304-.854.557l-.817.545A.75.75 0 0 1 2.25 21ZM12 3.75A8.25 8.25 0 0 0 3.75 12v7.599c.214-.141.397-.26.555-.357.232-.142.46-.267.692-.34l.008-.002c.16-.05.325-.1.506-.12.18-.02.353-.006.52.008l.008.001c.26.022.59.13.938.255.375.134.877.329 1.526.581l.012.005c.87.338 2.03.62 3.485.62a8.25 8.25 0 0 0 0-16.5Zm1.099 5.435c-.094-.165-.32-.435-1.099-.435-.369 0-.595.09-.74.187a1.007 1.007 0 0 0-.339.398 1.715 1.715 0 0 0-.169.632l-.002.035v.004A.75.75 0 0 1 9.25 10H10l-.75-.001v-.006l.001-.01v-.03c.018-.448.13-.886.328-1.288.193-.394.485-.731.849-.977.417-.278.941-.438 1.572-.438 1.221 0 1.995.48 2.401 1.19.349.611.349 1.277.349 1.537V10a1.327 1.327 0 0 1-.173.602 4.157 4.157 0 0 1-.277.44c-.2.284-.462.611-.705.914l-.01.013c-.254.318-.488.611-.66.854a2.797 2.797 0 0 0-.176.275l-.007.015A.75.75 0 0 1 11.25 13c.009-.212.068-.418.173-.602.077-.145.175-.296.277-.44.2-.284.462-.611.705-.914l.01-.013c.254-.318.488-.611.66-.854.084-.12.141-.21.174-.272-.004-.239-.027-.505-.15-.72ZM13 16a1 1 0 1 1-2 0 1 1 0 0 1 2 0Zm.273-6.145-.004.01Zm-.546 3.29.004-.01Z"/></svg>