<svg xmlns="http://www.w3.org/2000/svg" viewBox="0 0 24 24"><path fill="#636F7E" opacity=".16" d="M22 12a10 10 0 1 1-20 0 10 10 0 1 1 20 0Z"/><path fill="#151E28" d="M12 1.25c5.937 0 10.75 4.813 10.75 10.75S17.937 22.75 12 22.75 1.25 17.937 1.25 12 6.063 1.25 12 1.25ZM2.75 12A9.25 9.25 0 0 0 12 21.25 9.25 9.25 0 0 0 21.25 12 9.25 9.25 0 0 0 12 2.75 9.25 9.25 0 0 0 2.75 12Zm13.78-.47-4 4a.75.75 0 0 1-1.06 0l-4-4a.749.749 0 0 1 .326-1.275.749.749 0 0 1 .734.215L12 13.94l3.47-3.47a.751.751 0 0 1 1.042.018.751.751 0 0 1 .018 1.042Z"/></svg>