<svg xmlns="http://www.w3.org/2000/svg" viewBox="0 0 24 24"><path fill="#636F7E" opacity=".16" d="M12 4a5 5 0 0 0-5 5 5 5 0 0 0 0 10h10a5 5 0 0 0 0-10 5 5 0 0 0-5-5Z"/><path fill="#151E28" d="M8.318 6.876a.75.75 0 0 1-1.298-.752 5.75 5.75 0 0 1 10.687 2.169 5.752 5.752 0 0 1 .443 11.342.75.75 0 1 1-.3-1.47A4.25 4.25 0 0 0 17 9.75a.75.75 0 0 1-.75-.75 4.25 4.25 0 0 0-7.932-2.124ZM2.75 14c0 2.02 1.421 3.76 3.4 4.165a.75.75 0 1 1-.3 1.47A5.75 5.75 0 1 1 9.3 8.729a.75.75 0 0 1-.6 1.374A4.249 4.249 0 0 0 2.75 14Zm10 1h-.001v1.7l1.473-.85a.75.75 0 0 1 .75 1.3l-1.474.85 1.476.85a.75.75 0 0 1-.75 1.3l-1.473-.85V21a.75.75 0 0 1-1.5 0v-1.701l-1.474.851a.75.75 0 0 1-.75-1.3L10.5 18l-1.474-.851a.75.75 0 0 1 .75-1.298l1.474.85V15a.75.75 0 0 1 1.5 0Z"/></svg>