<svg xmlns="http://www.w3.org/2000/svg" viewBox="0 0 24 24"><path fill="#636F7E" opacity=".16" d="M12 2a5 5 0 0 0-5 5 5 5 0 0 0 0 10h10a5 5 0 0 0 0-10 5 5 0 0 0-5-5Z"/><path fill="#151E28" d="M8.318 4.876a.75.75 0 0 1-1.298-.752 5.75 5.75 0 0 1 10.687 2.169 5.752 5.752 0 0 1 .443 11.342.75.75 0 1 1-.3-1.47A4.25 4.25 0 0 0 17 7.75a.75.75 0 0 1-.75-.75 4.25 4.25 0 0 0-7.932-2.124ZM16.03 14.97a.749.749 0 0 1-.326 1.275.749.749 0 0 1-.734-.215l-2.22-2.22V21a.75.75 0 0 1-1.5 0v-7.19l-2.22 2.22a.749.749 0 0 1-1.275-.326.749.749 0 0 1 .215-.734l3.5-3.5a.75.75 0 0 1 1.06 0ZM2.75 12c0 2.02 1.421 3.76 3.4 4.165a.75.75 0 1 1-.3 1.47A5.75 5.75 0 1 1 9.3 6.729a.751.751 0 0 1 .16 1.304.75.75 0 0 1-.76.07A4.249 4.249 0 0 0 2.75 12Z"/></svg>