<svg xmlns="http://www.w3.org/2000/svg" viewBox="0 0 24 24"><path fill="#636F7E" opacity=".16" d="M12 4a5 5 0 0 0-5 5 5 5 0 0 0 0 10h10a5 5 0 0 0 0-10 5 5 0 0 0-5-5Z"/><path fill="#151E28" d="M12 4.75a4.248 4.248 0 0 0-3.682 2.126.75.75 0 0 1-1.298-.752 5.75 5.75 0 0 1 10.687 2.169 5.75 5.75 0 0 1 4.564 8.007c-.174.366-.607.528-.978.366a.75.75 0 0 1-.396-.966A4.249 4.249 0 0 0 17 9.75a.75.75 0 0 1-.75-.75A4.25 4.25 0 0 0 12 4.75Zm-5 5a4.25 4.25 0 0 0-1.7 8.147.751.751 0 0 1 .16 1.304.75.75 0 0 1-.76.07A5.751 5.751 0 0 1 9.3 8.73c.366.174.528.607.366.978a.75.75 0 0 1-.966.396A4.232 4.232 0 0 0 7 9.75Zm7.353 8.672h.001a2.578 2.578 0 0 1-2.699.244l-.99-.495a.749.749 0 1 1 .67-1.342l.99.495c.365.182.802.143 1.128-.102a2.577 2.577 0 0 1 3.094 0c.326.245.763.284 1.128.102l.99-.495a.75.75 0 0 1 .671 1.342l-.99.495a2.58 2.58 0 0 1-2.7-.244 1.079 1.079 0 0 0-1.293 0Zm-3.707-3.5a1.077 1.077 0 0 0-1.292 0 2.578 2.578 0 0 1-2.7.244l-.99-.495a.75.75 0 1 1 .671-1.342l.99.495c.365.183.802.143 1.129-.102a2.577 2.577 0 0 1 3.092 0c.327.245.764.285 1.129.102l.99-.495a.75.75 0 1 1 .67 1.342l-.99.495a2.578 2.578 0 0 1-2.699-.244Z"/></svg>