<svg xmlns="http://www.w3.org/2000/svg" viewBox="0 0 24 24"><path fill="#636F7E" opacity=".16" d="M12 21a7 7 0 0 0 7-7c0-3.866-3-9-7-11v7a2 2 0 1 1-4 0V7c-2 2-3 4.621-3 7a7 7 0 0 0 7 7Z"/><path fill="#151E28" d="M11.606 2.362a.75.75 0 0 1 .73-.033c2.153 1.077 3.998 2.972 5.301 5.076 1.302 2.1 2.113 4.486 2.113 6.595a7.75 7.75 0 0 1-15.5 0c0-2.58 1.08-5.39 3.22-7.53A.75.75 0 0 1 8.75 7v3a1.25 1.25 0 0 0 2.5 0V3a.75.75 0 0 1 .356-.638Zm1.144 1.95V10a2.75 2.75 0 1 1-5.5 0v-.887C6.247 10.66 5.75 12.398 5.75 14a6.25 6.25 0 1 0 12.5 0c0-1.757-.69-3.871-1.887-5.805-.957-1.542-2.207-2.92-3.613-3.883Z"/></svg>