<svg xmlns="http://www.w3.org/2000/svg" viewBox="0 0 24 24"><path fill="#636F7E" opacity=".16" d="M13 5v1a2 2 0 1 1 4 0v3a2 2 0 1 1 4 0v1a2 2 0 0 1-1 1.733v2.843a5.85 5.85 0 0 1-1.715 4.138A4.39 4.39 0 0 0 17 21.818V22H7c0-1.28-.514-2.514-1.42-3.42a6.514 6.514 0 0 1-1.856-3.79l-.066-.52A4.686 4.686 0 0 1 8.311 9H9V8l-4 2V6a2 2 0 1 1 4 0V5a2 2 0 1 1 4 0Zm-1.854 4c.651 0 1.27.027 1.855.073L13 9Zm5.711.745.143.04V9c0 .263-.05.515-.143.745Z"/><path fill="#151E28" d="M11 2.25a2.75 2.75 0 0 1 2.442 1.484A2.75 2.75 0 0 1 17.75 6v.55a2.75 2.75 0 0 1 4 2.45v1a2.749 2.749 0 0 1-5.192 1.266A2.736 2.736 0 0 1 15 11.75c-.475 0-.922-.12-1.312-.332a2.605 2.605 0 0 1-1.378 1.766l-1.3.65A3.746 3.746 0 0 1 12.75 17a.75.75 0 0 1-1.5 0 2.25 2.25 0 0 0-2.237-2.25.75.75 0 0 1-.335-1.428l2.96-1.48a1.106 1.106 0 0 0-.493-2.092H8.31a3.94 3.94 0 0 0-3.906 4.428l.065.52a5.767 5.767 0 0 0 1.643 3.352A5.597 5.597 0 0 1 7.75 22a.75.75 0 0 1-1.5 0 4.094 4.094 0 0 0-1.201-2.889 7.267 7.267 0 0 1-2.07-4.228l-.065-.52a5.414 5.414 0 0 1 1.339-4.295c-.003-.022-.003-.045-.003-.068V6a2.751 2.751 0 0 1 4.308-2.266A2.75 2.75 0 0 1 11 2.25ZM20.75 14v.575a6.602 6.602 0 0 1-1.934 4.67 3.64 3.64 0 0 0-1.066 2.573V22a.75.75 0 0 1-1.5 0v-.182c0-1.363.541-2.67 1.505-3.634a5.103 5.103 0 0 0 1.495-3.608V14a.75.75 0 0 1 1.5 0Zm-7-8v3a1.25 1.25 0 0 0 2.5 0V6a1.25 1.25 0 0 0-2.5 0Zm-4-1v3.25h1.396c.382-.001.758.083 1.104.245V5a1.25 1.25 0 0 0-2.5 0Zm-1.5 1a1.25 1.25 0 0 0-2.5 0v2.889a5.386 5.386 0 0 1 2.5-.639Zm9.5 4a1.25 1.25 0 0 0 2.5 0V9a1.25 1.25 0 0 0-2.5 0Z"/></svg>