<svg xmlns="http://www.w3.org/2000/svg" viewBox="0 0 24 24"><path fill="#636F7E" opacity=".16" d="M21 12a9 9 0 1 1-18 0 9 9 0 1 1 18 0Z"/><path fill="#151E28" d="M12 2.25A9.75 9.75 0 0 1 21.75 12 9.75 9.75 0 0 1 12 21.75 9.75 9.75 0 0 1 2.25 12 9.75 9.75 0 0 1 12 2.25ZM3.75 12a8.25 8.25 0 1 0 16.5 0 8.25 8.25 0 0 0-16.5 0Zm7.432-4.728a.751.751 0 0 1 .546.91L11.46 9.25h2.453l.358-1.432a.75.75 0 1 1 1.456.364L15.46 9.25h1.04a.75.75 0 0 1 0 1.5h-1.414l-.625 2.5H15.5a.75.75 0 0 1 0 1.5h-1.414l-.358 1.432a.75.75 0 1 1-1.456-.364l.267-1.068h-2.453l-.358 1.432a.75.75 0 1 1-1.456-.364l.267-1.068H7.5a.75.75 0 0 1 0-1.5h1.414l.625-2.5H8.5a.75.75 0 0 1 0-1.5h1.414l.358-1.432a.751.751 0 0 1 .91-.546Zm-.096 3.478-.625 2.5h2.453l.625-2.5Z"/></svg>