<svg xmlns="http://www.w3.org/2000/svg" viewBox="0 0 24 24"><path fill="#636F7E" opacity=".16" d="m4.226 13.05 7.099 7.26c.37.378.98.378 1.35 0l7.1-7.26a4.72 4.72 0 0 0-6.75-6.6L12 7.5l-1.026-1.05a4.719 4.719 0 1 0-6.748 6.6Z"/><path fill="#151E28" d="M3.69 5.926a5.469 5.469 0 0 1 7.82 0l.49.501.49-.5a5.47 5.47 0 1 1 7.82 7.646l-7.099 7.26c-.664.68-1.758.68-2.422 0l-7.1-7.26a5.47 5.47 0 0 1 0-7.647Zm6.748 1.049a3.97 3.97 0 1 0-5.676 5.55l7.1 7.26a.193.193 0 0 0 .277 0l7.099-7.26a3.97 3.97 0 0 0-5.676-5.55l-1.026 1.05a.75.75 0 0 1-1.072 0Z"/></svg>