<svg xmlns="http://www.w3.org/2000/svg" viewBox="0 0 24 24"><path fill="#636F7E" opacity=".16" d="M9 10c-3.5 2.625-7-3-7-3l4-4s6.5 4.375 3 7Zm11-7c0 7-4 10-4 10l-3-3Z"/><path fill="#151E28" d="M6.419 2.378 6 3l.42-.621.001.001.005.003.017.011c.339.238.67.488.991.749.574.467 1.318 1.13 1.954 1.892.624.746 1.214 1.669 1.362 2.653.085.524.021 1.06-.183 1.55a3.012 3.012 0 0 1-.489.78l9.452 9.452a.749.749 0 0 1-.326 1.275.749.749 0 0 1-.734-.215l-9.572-9.572a3.798 3.798 0 0 1-2.61.417c-.991-.191-1.87-.731-2.576-1.311a11.612 11.612 0 0 1-1.7-1.762 13.071 13.071 0 0 1-.634-.883l-.01-.015-.003-.005-.001-.002S1.383 7.383 2 7l-.637.396a.75.75 0 1 1 1.274-.792v.001l.006.008c.172.262.355.516.548.762.363.46.873 1.037 1.473 1.53.606.497 1.258.872 1.908.997.617.119 1.276.025 1.978-.502.352-.264.539-.519.636-.747.095-.226.121-.47.081-.743-.087-.575-.466-1.238-1.03-1.913-.551-.66-1.214-1.255-1.749-1.69a15.493 15.493 0 0 0-.893-.676l-.012-.007-.002-.002a.75.75 0 0 1 .838-1.244ZM20.75 3l-.001-.001c0 3.651-1.044 6.286-2.11 8.018a11.508 11.508 0 0 1-1.473 1.924 8.642 8.642 0 0 1-.5.48l-.15.126-.044.036-.014.01-.005.004-.002.001-.001.001L16 13l.45.601a.751.751 0 0 1-.902-1.2h.001l.002-.002c.187-.156.365-.322.533-.497.483-.51.912-1.07 1.277-1.67.744-1.209 1.502-2.957 1.779-5.311l-2.485 2.484-2.172 2.172-.693.694-.193.192-.05.05-.012.013-.004.004h-.001a.751.751 0 0 1-1.042-.018.751.751 0 0 1-.018-1.042L13 10l-.53-.531h.001l.003-.004.255-.255.694-.693L19.47 2.47a.75.75 0 0 1 1.28.53ZM9.53 14.53l-6 6a.751.751 0 0 1-1.042-.018.751.751 0 0 1-.018-1.042l6-6a.751.751 0 0 1 1.042.018.751.751 0 0 1 .018 1.042Zm-5-10.06 3 3a.751.751 0 0 1-.018 1.042.751.751 0 0 1-1.042.018l-3-3a.749.749 0 0 1 .326-1.275.749.749 0 0 1 .734.215Z"/></svg>