<svg xmlns="http://www.w3.org/2000/svg" viewBox="0 0 24 24"><path fill="#636F7E" opacity=".16" d="M21 9.4c0-2.24 0-3.36-.436-4.216a4 4 0 0 0-1.748-1.749C17.96 3 16.84 3 14.6 3H9.4c-2.24 0-3.36 0-4.216.435a4 4 0 0 0-1.748 1.749C3 6.039 3 7.159 3 9.4v5.2c0 2.24 0 3.36.436 4.216a4 4 0 0 0 1.748 1.748C6.04 21 7.16 21 9.4 21h5.2c2.24 0 3.36 0 4.216-.436a4 4 0 0 0 1.748-1.748C21 17.96 21 16.84 21 14.6V9.4Z"/><path fill="#151E28" d="M9.367 2.25h5.32c1.066 0 1.915 0 2.6.057.714.058 1.317.18 1.869.46a4.744 4.744 0 0 1 2.076 2.076c.28.551.402 1.155.46 1.868.057.698.057 1.563.057 2.655v5.267c0 1.092 0 1.957-.057 2.655-.058.713-.18 1.317-.461 1.868a4.752 4.752 0 0 1-2.075 2.076c-.552.281-1.155.402-1.869.461-.611.049-1.35.056-2.257.056a.6.6 0 0 1-.06 0H9.03a.6.6 0 0 1-.06 0c-.908 0-1.648-.007-2.258-.057-.714-.058-1.318-.18-1.868-.46a4.752 4.752 0 0 1-2.077-2.076c-.28-.551-.402-1.155-.46-1.868-.057-.698-.057-1.563-.057-2.655V9.367c0-1.093 0-1.958.057-2.656.058-.713.18-1.317.461-1.868a4.744 4.744 0 0 1 2.076-2.076c.551-.28 1.154-.402 1.868-.46.697-.057 1.563-.057 2.655-.057ZM8.25 3.751c-.565.005-1.024.018-1.416.05-.62.05-1.005.147-1.31.302a3.258 3.258 0 0 0-1.42 1.42c-.155.305-.251.689-.302 1.31-.051.629-.052 1.433-.052 2.566v5.2c0 1.132 0 1.936.052 2.566.05.62.147 1.005.302 1.309a3.258 3.258 0 0 0 1.42 1.42c.305.155.69.252 1.31.303.392.032.851.044 1.416.049V3.751Zm1.5-.001v7.5h4.5v-7.5Zm0 16.5h4.5v-7.5h-4.5Zm10.5-9V9.4c0-1.133-.001-1.937-.052-2.566-.051-.621-.147-1.005-.302-1.31a3.258 3.258 0 0 0-1.42-1.42c-.305-.155-.69-.252-1.31-.302a20.086 20.086 0 0 0-1.416-.05v7.498Zm-3.084 8.948c.62-.051 1.005-.148 1.31-.303a3.258 3.258 0 0 0 1.42-1.42c.155-.304.252-.689.302-1.309.052-.63.052-1.434.052-2.566v-1.85h-4.5v7.497c.472 0 .945-.016 1.416-.049Z"/></svg>