<svg xmlns="http://www.w3.org/2000/svg" viewBox="0 0 24 24"><path fill="#636F7E" opacity=".16" d="m11 14-2 8 6-6.667-6-5.555L7 12l4 2Z"/><path fill="#151E28" d="m15.187 16.248-5.63 6.254a.75.75 0 0 1-1.285-.684l1.854-7.416-3.461-1.731a.75.75 0 0 1-.222-1.173l1.892-2.102L2.47 3.53a.751.751 0 0 1 .018-1.042.751.751 0 0 1 1.042-.018l18 18a.751.751 0 0 1-.018 1.042.751.751 0 0 1-1.042.018l-5.283-5.283Zm1.541-14.066v.001L14.873 9.6l3.462 1.729a.75.75 0 0 1-.67 1.342l-4-2a.75.75 0 0 1-.393-.853l1.269-5.076-1.984 2.204a.75.75 0 0 1-1.115-1.003l4-4.445a.75.75 0 0 1 1.286.684ZM8.215 11.77l3.12 1.56a.75.75 0 0 1 .392.852l-1.27 5.076 3.666-4.073-4.726-4.726-1.182 1.311Zm1.183-1.312h-.002Z"/></svg>