<svg xmlns="http://www.w3.org/2000/svg" viewBox="0 0 24 24"><path fill="#636F7E" opacity=".16" d="M18 16a4 4 0 0 0 0-8H6a4 4 0 1 0 0 8h12Z"/><path fill="#151E28" d="M8.75 8a.75.75 0 0 1-.75.75H6a3.25 3.25 0 1 0 0 6.5h2a.75.75 0 0 1 0 1.5H6a4.75 4.75 0 0 1 0-9.5h2a.75.75 0 0 1 .75.75ZM18 7.25a4.75 4.75 0 0 1 0 9.5h-2a.75.75 0 0 1 0-1.5h2a3.25 3.25 0 1 0 0-6.5h-2a.75.75 0 0 1 0-1.5ZM8.53 3.47l1.5 1.5a.751.751 0 0 1-.018 1.042.751.751 0 0 1-1.042.018l-1.5-1.5a.749.749 0 0 1 .326-1.275.749.749 0 0 1 .734.215Zm5.44 2.56a.75.75 0 0 1 0-1.06l1.5-1.5a.751.751 0 0 1 1.042.018.751.751 0 0 1 .018 1.042l-1.5 1.5a.75.75 0 0 1-1.06 0Zm-3.94 13-1.5 1.5a.751.751 0 0 1-1.042-.018.751.751 0 0 1-.018-1.042l1.5-1.5a.751.751 0 0 1 1.042.018.751.751 0 0 1 .018 1.042Zm3.94 0a.751.751 0 0 1 .018-1.042.751.751 0 0 1 1.042-.018l1.5 1.5a.751.751 0 0 1-.018 1.042.751.751 0 0 1-1.042.018Z"/></svg>