<svg xmlns="http://www.w3.org/2000/svg" viewBox="0 0 24 24"><path fill="#636F7E" opacity=".16" d="M12 8c.929 0 1.393 0 1.783.051a5.999 5.999 0 0 1 5.166 5.166C19 13.607 19 14.07 19 15c0 .929 0 1.393-.051 1.783a5.999 5.999 0 0 1-5.166 5.166C13.393 22 12.93 22 12 22c-.929 0-1.393 0-1.783-.051a5.999 5.999 0 0 1-5.166-5.166C5 16.393 5 15.93 5 15c0-.929 0-1.393.051-1.783a5.999 5.999 0 0 1 5.166-5.166C10.607 8 11.07 8 12 8Zm-.2 5a1.8 1.8 0 0 0-1.8 1.8v.4a1.8 1.8 0 0 0 1.8 1.8h.4a1.8 1.8 0 0 0 1.8-1.8v-.4a1.8 1.8 0 0 0-1.8-1.8Z"/><path fill="#151E28" d="M7.25 8.387V6a4.75 4.75 0 0 1 9.5 0v2.387a6.747 6.747 0 0 1 2.942 4.732c.058.44.058.949.058 1.81v.141c0 .862 0 1.372-.058 1.811a6.75 6.75 0 0 1-5.81 5.811c-.44.058-.95.058-1.812.058h-.14c-.862 0-1.372 0-1.811-.058a6.75 6.75 0 0 1-5.811-5.81c-.058-.44-.058-.95-.058-1.812v-.14c0-.862 0-1.372.058-1.811A6.747 6.747 0 0 1 7.25 8.387ZM12 8.75c-.953 0-1.356.002-1.685.045a5.25 5.25 0 0 0-4.52 4.52c-.043.329-.045.732-.045 1.685 0 .953.002 1.356.045 1.685a5.25 5.25 0 0 0 4.52 4.52c.329.043.732.045 1.685.045.953 0 1.356-.002 1.685-.045a5.25 5.25 0 0 0 4.52-4.52c.043-.329.045-.732.045-1.685 0-.953-.002-1.356-.045-1.685a5.25 5.25 0 0 0-4.52-4.52c-.329-.043-.732-.045-1.685-.045ZM8.75 6v1.635a6.79 6.79 0 0 1 1.369-.327c.439-.058.949-.058 1.811-.058h.141c.861 0 1.37 0 1.81.058a6.79 6.79 0 0 1 1.369.327V6a3.25 3.25 0 1 0-6.5 0Zm.5 8.8a2.55 2.55 0 0 1 2.55-2.55h.4a2.55 2.55 0 0 1 2.55 2.55v.4a2.55 2.55 0 0 1-2.55 2.55h-.4a2.55 2.55 0 0 1-2.55-2.55Zm2.55-1.05c-.58 0-1.05.47-1.05 1.05v.4c0 .58.47 1.05 1.05 1.05h.4c.58 0 1.05-.47 1.05-1.05v-.4c0-.58-.47-1.05-1.05-1.05Z"/></svg>