<svg xmlns="http://www.w3.org/2000/svg" viewBox="0 0 24 24"><path fill="#636F7E" opacity=".16" d="M14 14a4 4 0 1 1-8 0 4 4 0 1 1 8 0Z"/><path fill="#151E28" d="m21.33 5.019-.001-.001-1.934 3.87a.25.25 0 0 0 .224.362h.32c1.462 0 2.279 1.685 1.375 2.833l-5.775 7.331a.732.732 0 0 1-.059.066A7.75 7.75 0 0 1 4.52 8.52a.744.744 0 0 1 .067-.059l7.33-5.775c1.148-.905 2.834-.086 2.834 1.375v.321a.251.251 0 0 0 .36.224l3.87-1.935c1.505-.752 3.1.844 2.349 2.348Zm-1.678-1.006.001-.001-3.87 1.934a1.75 1.75 0 0 1-2.533-1.565V4.06a.25.25 0 0 0-.405-.197L5.55 9.61a6.25 6.25 0 0 0 8.839 8.84l5.747-7.295a.25.25 0 0 0-.197-.405h-.321a1.75 1.75 0 0 1-1.565-2.532l1.935-3.87a.251.251 0 0 0-.047-.289.25.25 0 0 0-.289-.046ZM10 9.25a4.75 4.75 0 1 1 0 9.5 4.75 4.75 0 0 1 0-9.5ZM6.75 14a3.25 3.25 0 1 0 6.5 0 3.25 3.25 0 0 0-6.5 0Z"/></svg>