<svg xmlns="http://www.w3.org/2000/svg" viewBox="0 0 24 24"><path fill="#636F7E" opacity=".16" d="M9.5 9a4 4 0 0 0-4 4 3.5 3.5 0 1 0 0 7h8a3.5 3.5 0 1 0 0-7 4 4 0 0 0-4-4Z"/><path fill="#151E28" d="M11.226 6.813a.75.75 0 1 1-1.364-.626 6.752 6.752 0 0 1 6.137-3.937.75.75 0 0 1 .6 1.2 4.251 4.251 0 0 0 4.898 6.529.75.75 0 0 1 .984.912 6.762 6.762 0 0 1-3.106 3.956.752.752 0 0 1-1.147-.644.75.75 0 0 1 .397-.654 5.28 5.28 0 0 0 1.86-1.82 5.748 5.748 0 0 1-5.851-7.8 5.264 5.264 0 0 0-3.408 2.884ZM9.5 9.75a3.015 3.015 0 0 0-2.603 1.465.75.75 0 1 1-1.29-.764A4.515 4.515 0 0 1 9.5 8.25c2.23 0 4.103 1.6 4.444 3.719 2.145.327 3.806 2.144 3.806 4.364 0 .725-.178 1.41-.494 2.015a.751.751 0 1 1-1.33-.695c.207-.396.324-.844.324-1.32 0-1.595-1.327-2.916-3-2.916a.75.75 0 0 1-.75-.75c0-1.595-1.327-2.917-3-2.917Zm-3.75 3.667c-1.673 0-3 1.321-3 2.916 0 .476.117.924.324 1.32a.751.751 0 1 1-1.33.695 4.337 4.337 0 0 1-.494-2.015c0-2.455 2.03-4.416 4.5-4.416.636 0 1.244.13 1.795.365a.75.75 0 0 1-.59 1.38 3.062 3.062 0 0 0-1.205-.245Zm1 3.583v.25H7a.75.75 0 0 1 0 1.5h-.25V19a.75.75 0 0 1-1.5 0v-.25H5a.75.75 0 0 1 0-1.5h.25V17a.75.75 0 0 1 1.5 0Zm6.25-.75a.75.75 0 0 1 .75.75v.25H14a.75.75 0 0 1 0 1.5h-.25V19a.75.75 0 0 1-1.5 0v-.25H12a.75.75 0 0 1 0-1.5h.25V17a.75.75 0 0 1 .75-.75Zm-3.5 3a.75.75 0 0 1 .75.75v.25h.25a.75.75 0 0 1 0 1.5h-.25V22a.75.75 0 0 1-1.5 0v-.25H8.5a.75.75 0 0 1 0-1.5h.25V20a.75.75 0 0 1 .75-.75Z"/></svg>