<svg xmlns="http://www.w3.org/2000/svg" viewBox="0 0 24 24"><path fill="#636F7E" opacity=".16" d="M18.059 16.91v-.001c-.233.541-.349.813-.527 1.031a2.02 2.02 0 0 1-.567.478c-.245.138-.532.206-1.107.343l-10.753 2.56c-.838.2-1.256.299-1.55.183a1 1 0 0 1-.56-.56c-.117-.294-.017-.713.183-1.55L5.738 8.64c.137-.574.205-.861.343-1.106a2.02 2.02 0 0 1 .478-.567c.218-.178.489-.294 1.031-.527l1.479-.632c.719-.309 1.079-.463 1.439-.48.318-.015.636.046.926.178.329.15.605.427 1.159.98l5.421 5.421c.553.554.83.83.98 1.158.132.29.193.608.178.927-.017.36-.172.72-.48 1.438Zm-6.292-4.178a2 2 0 1 0-2.828 2.83 2 2 0 0 0 2.828-2.83Z"/><path fill="#151E28" d="M10.96 4.598a2.251 2.251 0 0 1 3.813-1.236l6.364 6.365A2.25 2.25 0 0 1 19.9 13.54c.021.161.028.324.02.488-.024.498-.23.978-.492 1.589l-.047.11-.634 1.478-.035.081c-.198.463-.354.828-.6 1.13a2.75 2.75 0 0 1-.78.656c-.34.191-.725.283-1.215.4l-.086.02-10.754 2.56-.032.008c-.39.093-.733.174-1.013.215-.287.04-.623.058-.954-.073a1.752 1.752 0 0 1-.981-.981c-.131-.33-.114-.667-.073-.954.04-.28.122-.622.215-1.013l.008-.032 2.56-10.754.02-.086c.117-.49.209-.876.4-1.215.168-.299.391-.563.657-.78.301-.246.666-.402 1.129-.6l.081-.035 1.479-.634.109-.047c.611-.262 1.09-.468 1.59-.492a2.73 2.73 0 0 1 .487.02Zm.989 2.305c-.505-.502-.662-.64-.826-.714a1.254 1.254 0 0 0-.579-.112c-.193.01-.405.088-1.18.42l-1.478.634c-.583.25-.736.322-.853.418-.12.098-.222.218-.298.354-.075.132-.12.295-.267.912l-2.55 10.706 4.034-4.033a2.75 2.75 0 1 1 1.06 1.06L4.98 20.581l10.706-2.549c.616-.146.78-.192.911-.267a1.24 1.24 0 0 0 .355-.298c.096-.117.169-.27.418-.853l.634-1.479c.332-.774.41-.986.42-1.18a1.238 1.238 0 0 0-.112-.578c-.075-.164-.212-.321-.715-.826L11.95 6.903Zm8.127 4.945a.75.75 0 0 0 0-1.06l-6.364-6.364a.75.75 0 1 0-1.061 1.06l.197.198c.062.06.125.124.191.19l.084.084 5.421 5.421.085.085.19.19.197.196a.75.75 0 0 0 1.06 0ZM9.479 15.04a1.249 1.249 0 1 0 1.748-1.787A1.25 1.25 0 0 0 9.48 15.04Z"/></svg>