<svg xmlns="http://www.w3.org/2000/svg" viewBox="0 0 24 24"><path fill="#636F7E" opacity=".16" d="M18 20a3 3 0 1 1 0-6 3 3 0 0 1 0 6ZM6 10a3 3 0 1 1 0-6 3 3 0 0 1 0 6Z"/><path fill="#151E28" d="M18 13.25a3.75 3.75 0 1 1 0 7.5 3.75 3.75 0 0 1 0-7.5ZM2.25 7a3.75 3.75 0 1 1 7.5 0 3.75 3.75 0 0 1-7.5 0Zm15.148-3.636a.75.75 0 0 1 .238 1.034l-10 16a.75.75 0 0 1-1.272-.795l10-16a.751.751 0 0 1 1.034-.239ZM15.75 17a2.25 2.25 0 1 0 4.5 0 2.25 2.25 0 0 0-4.5 0ZM6 4.75a2.25 2.25 0 1 0 0 4.5 2.25 2.25 0 0 0 0-4.5Z"/></svg>