<svg xmlns="http://www.w3.org/2000/svg" viewBox="0 0 24 24"><path fill="#636F7E" opacity=".16" d="M9.249 12.989a2.76 2.76 0 1 1 5.502-.002l.075-.904a2.271 2.271 0 1 1 4.468.74l-1.566 6.267c-.152.606-.228.909-.345 1.164a3 3 0 0 1-2.17 1.694C14.938 22 14.625 22 14 22h-4c-.625 0-.938 0-1.213-.052a3 3 0 0 1-2.17-1.694c-.117-.254-.193-.558-.345-1.164l-1.566-6.267a2.273 2.273 0 1 1 4.468-.74Z"/><path fill="#151E28" d="M3.25 9c0-.907.439-1.71 1.115-2.211a2.752 2.752 0 0 1 2.511-3.536 2.745 2.745 0 0 1 2.913-.888A2.744 2.744 0 0 1 12 1.25c.907 0 1.71.439 2.211 1.115a2.747 2.747 0 0 1 2.912.888 2.748 2.748 0 0 1 2.512 3.536A2.744 2.744 0 0 1 20.75 9c0 .808-.348 1.533-.901 2.036.278.618.339 1.312.173 1.969l-1.567 6.266-.018.074c-.134.536-.226.903-.372 1.222a3.75 3.75 0 0 1-2.713 2.118c-.345.065-.724.065-1.276.065H9.924c-.552 0-.93 0-1.276-.065a3.75 3.75 0 0 1-2.713-2.118c-.146-.32-.238-.686-.372-1.222l-.018-.073-1.567-6.267a2.993 2.993 0 0 1 .173-1.969A2.743 2.743 0 0 1 3.25 9Zm7.57-5.414v-.001a.75.75 0 0 1-1.125.375 1.247 1.247 0 0 0-1.784.425.75.75 0 0 1-.748.375 1.25 1.25 0 0 0-1.202 1.935.753.753 0 0 1-.376 1.125 1.249 1.249 0 0 0-.495 2.038 3.023 3.023 0 0 1 4.248.615A3.498 3.498 0 0 1 12 9.25a3.502 3.502 0 0 1 2.662 1.223 3.023 3.023 0 0 1 4.247-.615 1.249 1.249 0 0 0-.495-2.038.75.75 0 0 1-.374-1.126 1.249 1.249 0 0 0-1.202-1.934.751.751 0 0 1-.749-.374 1.253 1.253 0 0 0-1.784-.425.75.75 0 0 1-1.125-.375 1.25 1.25 0 0 0-2.36 0Zm-.823 9.341.693 8.323h2.62l.694-8.323a2.01 2.01 0 1 0-4.007 0Zm5.501.125-.682 8.188c.106-.006.185-.015.258-.029a2.252 2.252 0 0 0 1.628-1.27c.08-.176.139-.396.298-1.033l1.567-6.267a1.522 1.522 0 1 0-2.993-.496ZM6.91 10.75v-.001c-.469 0-.911.216-1.199.586a1.52 1.52 0 0 0-.278 1.305L7 18.908c.159.637.218.857.298 1.033a2.252 2.252 0 0 0 1.628 1.27c.085.015.171.025.258.029l-.682-8.189-.076-.906A1.522 1.522 0 0 0 6.91 10.75Zm-2.759.286v-.001Z"/></svg>