<svg xmlns="http://www.w3.org/2000/svg" viewBox="0 0 24 24"><path fill="#636F7E" opacity=".16" d="M19 12v-1.8c0-.186 0-.279-.006-.357a2 2 0 0 0-1.837-1.837C17.079 8 16.986 8 16.8 8H7.2c-.186 0-.279 0-.357.006a2 2 0 0 0-1.837 1.837C5 9.921 5 10.014 5 10.2V12a7 7 0 1 0 14 0Z"/><path fill="#151E28" d="M7.17 7.25h9.659c.129-.002.258 0 .387.008a2.751 2.751 0 0 1 2.525 2.526c.009.109.009.23.009.386V12a7.75 7.75 0 0 1-7 7.714V23a.75.75 0 0 1-1.5 0v-3.286a7.75 7.75 0 0 1-7-7.714v-1.829c0-.157 0-.278.008-.387a2.75 2.75 0 0 1 2.526-2.526c.109-.008.23-.008.386-.008Zm4.83 11A6.25 6.25 0 0 0 18.25 12v-1.8c0-.2 0-.257-.004-.298a1.25 1.25 0 0 0-1.148-1.148c-.099-.004-.199-.006-.298-.004H7.2c-.2 0-.257 0-.298.004a1.25 1.25 0 0 0-1.148 1.148c-.004.099-.006.199-.004.298V12A6.25 6.25 0 0 0 12 18.25Zm-3-17a.75.75 0 0 1 .75.75v3.5a.75.75 0 0 1-1.5 0V2A.75.75 0 0 1 9 1.25Zm6.75.75v3.5a.75.75 0 0 1-1.5 0V2a.75.75 0 0 1 1.5 0Z"/></svg>