<svg xmlns="http://www.w3.org/2000/svg" viewBox="0 0 24 24"><path fill="#636F7E" opacity=".16" d="M21 12a9 9 0 1 1-18 0 9 9 0 1 1 18 0Z"/><path fill="#151E28" d="M12 2.25A9.75 9.75 0 0 1 21.75 12 9.75 9.75 0 0 1 12 21.75 9.75 9.75 0 0 1 2.25 12 9.75 9.75 0 0 1 12 2.25ZM3.75 12a8.25 8.25 0 1 0 16.5 0 8.25 8.25 0 0 0-16.5 0ZM12 8.75c-.69 0-1.25.56-1.25 1.25a.75.75 0 0 1-1.5 0 2.75 2.75 0 1 1 5.5 0c0 .885-.414 1.526-.894 2.002-.33.327-.75.627-1.094.872l-.012.009v.617a.75.75 0 0 1-1.5 0v-1a.75.75 0 0 1 .3-.6c.156-.117.302-.221.44-.32.308-.22.573-.408.81-.643.301-.3.45-.58.45-.937 0-.69-.56-1.25-1.25-1.25ZM13 16a1 1 0 1 1-2 0 1 1 0 0 1 2 0Z"/></svg>