<svg xmlns="http://www.w3.org/2000/svg" viewBox="0 0 24 24"><path fill="#636F7E" opacity=".16" d="M22 12a10 10 0 1 1-20 0 10 10 0 1 1 20 0Z"/><path fill="#151E28" d="M12 1.25c5.937 0 10.75 4.813 10.75 10.75S17.937 22.75 12 22.75 1.25 17.937 1.25 12 6.063 1.25 12 1.25ZM2.75 12A9.25 9.25 0 0 0 12 21.25 9.25 9.25 0 0 0 21.25 12 9.25 9.25 0 0 0 12 2.75 9.25 9.25 0 0 0 2.75 12Zm5.993 2.104a.75.75 0 1 1-1.486-.207L8 14l-.742-.104v-.005l.002-.013.006-.04a9.14 9.14 0 0 1 .127-.635 9.187 9.187 0 0 1 .488-1.5c.442-1.028 1.343-2.453 3.008-2.453.788 0 1.542.333 2.185.743.654.416 1.265.958 1.78 1.48.134.137.266.276.396.417V11a.75.75 0 0 1 1.5 0v3a.75.75 0 0 1-.75.75h-3a.75.75 0 0 1 0-1.5h1.453a15.08 15.08 0 0 0-.668-.723c-.471-.479-.993-.936-1.517-1.269-.533-.34-1-.508-1.38-.508-.668 0-1.211.575-1.63 1.547a7.625 7.625 0 0 0-.404 1.25 7.867 7.867 0 0 0-.106.525Z"/></svg>