<svg xmlns="http://www.w3.org/2000/svg" viewBox="0 0 24 24"><path fill="#636F7E" opacity=".16" d="M21 12a9 9 0 1 1-18 0 9 9 0 1 1 18 0Z"/><path fill="#151E28" d="M12 3.75a8.239 8.239 0 0 0-6.746 3.5H7.5a.75.75 0 0 1 0 1.5h-4A.75.75 0 0 1 2.75 8V4a.75.75 0 0 1 1.5 0v2.084A9.75 9.75 0 0 1 21.75 12a9.75 9.75 0 0 1-18.486 4.334.75.75 0 1 1 1.343-.668A8.25 8.25 0 1 0 12 3.75Zm2.5 4.5a2.25 2.25 0 0 1 2.25 2.25v3a2.25 2.25 0 1 1-4.5 0v-3a2.25 2.25 0 0 1 2.25-2.25ZM10.75 9v6a.75.75 0 0 1-1.5 0V9a.75.75 0 0 1 1.5 0Zm3 1.5v3a.75.75 0 0 0 1.5 0v-3a.75.75 0 0 0-1.5 0Z"/></svg>