<svg xmlns="http://www.w3.org/2000/svg" viewBox="0 0 24 24"><path fill="#636F7E" opacity=".16" d="M18 16a3 3 0 1 1 0 6 3 3 0 0 1 0-6ZM15 5a3 3 0 1 1 6 0 3 3 0 0 1-6 0ZM2 12a3 3 0 1 1 6 0 3 3 0 0 1-6 0Z"/><path fill="#151E28" d="M14.325 4.25A3.751 3.751 0 0 1 21.75 5a3.75 3.75 0 0 1-7.425.75H9a3.251 3.251 0 0 0-3.183 2.59 3.75 3.75 0 0 1 0 7.32A3.251 3.251 0 0 0 9 18.25h5.325a3.751 3.751 0 0 1 7.425.75 3.75 3.75 0 0 1-7.425.75H9a4.751 4.751 0 0 1-4.701-4.065 3.75 3.75 0 0 1 0-7.37A4.751 4.751 0 0 1 9 4.25ZM15.75 19a2.25 2.25 0 1 0 4.5 0 2.25 2.25 0 0 0-4.5 0ZM18 2.75a2.25 2.25 0 1 0 0 4.5 2.25 2.25 0 0 0 0-4.5Zm-13 7a2.25 2.25 0 1 0 0 4.5 2.25 2.25 0 0 0 0-4.5Z"/></svg>