<svg xmlns="http://www.w3.org/2000/svg" viewBox="0 0 24 24"><path fill="#636F7E" opacity=".16" d="M11.46 14h5.068c.597 0 .896 0 1.169-.05a3 3 0 0 0 1.84-1.139c.168-.221.302-.488.569-1.022.635-1.271.953-1.907 1.017-2.416a3 3 0 0 0-1.98-3.202C18.66 6 17.95 6 16.529 6H5.334l1.572 4.718c.394 1.18.59 1.77.955 2.207a3 3 0 0 0 1.203.867c.53.208 1.152.208 2.396.208Z"/><path fill="#151E28" d="M1 2.75a.75.75 0 0 1 0-1.5h.096c.709-.001 1.196-.001 1.64.109a3.75 3.75 0 0 1 2.272 1.638c.244.386.398.848.622 1.52l.03.092.214.641H16.55c.693 0 1.242 0 1.677.022.437.022.822.07 1.167.192a3.75 3.75 0 0 1 2.474 4.001c-.045.364-.176.73-.351 1.13-.175.4-.42.89-.729 1.51l-.01.019-.032.064c-.236.473-.399.799-.609 1.076a3.75 3.75 0 0 1-2.302 1.422c-.342.064-.706.064-1.235.064h-5.29c-.434 0-.815 0-1.157-.015a.786.786 0 0 1-.153.015H6a1.25 1.25 0 0 0 0 2.5h15a.75.75 0 0 1 0 1.5h-1.55a2.75 2.75 0 1 1-4.9 0h-3.1a2.75 2.75 0 1 1-4.9 0H6a2.75 2.75 0 1 1 0-5.5h1.165c-.382-.527-.608-1.207-.923-2.153l-.048-.142-1.4-4.203-.006-.015-.551-1.654c-.267-.799-.363-1.073-.497-1.285a2.251 2.251 0 0 0-1.363-.982C2.133 2.755 1.842 2.75 1 2.75Zm15.528 4H6.374l1.244 3.731c.413 1.241.567 1.662.818 1.963.242.289.552.512.903.65.365.143.813.156 2.121.156h5.069c.627 0 .842-.003 1.031-.038a2.248 2.248 0 0 0 1.381-.854c.115-.152.215-.345.495-.905a34.61 34.61 0 0 0 .706-1.458c.158-.362.219-.569.238-.715a2.249 2.249 0 0 0-1.486-2.402c-.139-.048-.351-.088-.746-.108-.391-.02-.901-.02-1.62-.02ZM15.75 20a1.25 1.25 0 1 0 1.256-1.25h-.012A1.25 1.25 0 0 0 15.75 20Zm-6.76-1.25a1.25 1.25 0 1 0 .02 0Z"/></svg>