<svg xmlns="http://www.w3.org/2000/svg" viewBox="0 0 24 24"><path fill="#151E28" d="M14.25 5a2.751 2.751 0 0 1 5.5-.005V8a2.75 2.75 0 0 1-5.132 1.376.75.75 0 1 1 1.299-.752A1.25 1.25 0 0 0 18.25 8v-.55a2.75 2.75 0 0 1-4-2.45Zm-6.5 1v10.19l1.72-1.72a.751.751 0 0 1 1.042.018.751.751 0 0 1 .018 1.042l-3 3a.75.75 0 0 1-1.06 0l-3-3a.749.749 0 0 1 .326-1.275.749.749 0 0 1 .734.215l1.72 1.72V6a.75.75 0 0 1 1.5 0Zm10 7v6.25H19a.75.75 0 0 1 0 1.5h-4a.75.75 0 0 1 0-1.5h1.25v-4.44l-.72.72a.749.749 0 0 1-1.275-.326.749.749 0 0 1 .215-.734l2-2a.75.75 0 0 1 1.28.53ZM17 3.75a1.25 1.25 0 1 0 0 2.5 1.25 1.25 0 0 0 0-2.5Z"/></svg>