<svg xmlns="http://www.w3.org/2000/svg" viewBox="0 0 24 24"><path fill="#636F7E" opacity=".16" d="M21 12a9 9 0 1 1-18 0 9 9 0 1 1 18 0Z"/><path fill="#151E28" d="M12 2.25A9.75 9.75 0 0 1 21.75 12 9.75 9.75 0 0 1 12 21.75 9.75 9.75 0 0 1 2.25 12a9.723 9.723 0 0 1 3.006-7.042.75.75 0 1 1 1.038 1.084 8.249 8.249 0 0 0 8.43 13.745A8.25 8.25 0 0 0 12.75 3.784V6a.75.75 0 0 1-1.5 0V3a.75.75 0 0 1 .75-.75ZM9.53 8.47l3 3a.749.749 0 0 1-.326 1.275.749.749 0 0 1-.734-.215l-3-3a.749.749 0 0 1 .326-1.275.749.749 0 0 1 .734.215Z"/></svg>