<svg xmlns="http://www.w3.org/2000/svg" viewBox="0 0 24 24"><path fill="#636F7E" opacity=".16" d="M8 10 6.402 9A8.27 8.27 0 0 1 9.5 7.348l.843-.117a12 12 0 0 1 3.313 0l.843.117A8.269 8.269 0 0 1 17.6 9L16 10v2l-4-1-4 1v-2Z"/><path fill="#151E28" d="M5.127 10.34a.75.75 0 0 1 .301 1.017A5.511 5.511 0 0 0 4.75 14c0 3.36 3.149 6.25 7.25 6.25 4.102 0 7.25-2.89 7.25-6.25 0-.943-.242-1.837-.679-2.642a.75.75 0 1 1 1.319-.716c.55 1.014.86 2.153.86 3.358 0 4.371-4.015 7.75-8.75 7.75S3.25 18.37 3.25 14a7 7 0 0 1 .861-3.358.75.75 0 0 1 1.017-.301Zm5.093-3.2a.75.75 0 0 1-.513.928 7.704 7.704 0 0 0-1.975.88l.665.415A.75.75 0 0 1 8.75 10v1.04l3.069-.768a.743.743 0 0 1 .363 0l3.068.767V10a.75.75 0 0 1 .353-.635l.664-.416a7.714 7.714 0 0 0-1.974-.879.75.75 0 0 1 .415-1.441 9.022 9.022 0 0 1 3.38 1.803.75.75 0 0 1-.091 1.205l-1.247.78V12a.75.75 0 0 1-.932.727L12 11.773l-3.818.954A.75.75 0 0 1 7.25 12v-1.585l-1.246-.78a.75.75 0 0 1-.09-1.204 9.022 9.022 0 0 1 3.38-1.803.75.75 0 0 1 .927.513Zm.116-3.81v-.001c1.753.877 2.38 2.237 2.532 3.384a4.995 4.995 0 0 1-.15 2.003l-.004.013-.002.005v.002l-.703-.233.703.234a.75.75 0 0 1-1.424-.471l.004-.012a3.49 3.49 0 0 0 .09-1.342c-.097-.728-.471-1.618-1.717-2.242a.75.75 0 0 1 .671-1.34Z"/></svg>