<svg xmlns="http://www.w3.org/2000/svg" viewBox="0 0 24 24"><path fill="#636F7E" opacity=".16" d="M12 3a6 6 0 0 0-5.634 8.067A3.001 3.001 0 0 0 7 17h10a3 3 0 0 0 .634-5.933A6 6 0 0 0 12 3Z"/><path fill="#151E28" d="M6.75 9a5.24 5.24 0 0 0 .32 1.809.748.748 0 0 1-.547.991A2.25 2.25 0 0 0 7 16.25h1a.75.75 0 0 1 0 1.5H7a3.75 3.75 0 0 1-1.562-7.16 6.75 6.75 0 1 1 13.123 0A3.751 3.751 0 0 1 17 17.75h-1a.75.75 0 0 1 0-1.5h1a2.25 2.25 0 0 0 .477-4.45.752.752 0 0 1-.547-.991A5.25 5.25 0 1 0 6.75 9Zm6-1v14a.75.75 0 0 1-1.5 0V8a.75.75 0 0 1 1.5 0Z"/></svg>