<svg xmlns="http://www.w3.org/2000/svg" viewBox="0 0 24 24"><path fill="#636F7E" opacity=".16" d="M17.192 9c-1.778 0-3.54-.34-5.192-1-1.652-.66-3.414-1-5.193-1h-2.56c.602 3.146 2.425 7 7.753 7 4.227 0 6.248-2.426 7.203-5h-2.01Z"/><path fill="#151E28" d="M11.25 20.25v-5.524c-2.472-.168-4.236-1.162-5.461-2.55-1.321-1.497-1.965-3.395-2.278-5.035a17.295 17.295 0 0 1-.286-3.693c.005-.158.014-.317.025-.475l.003-.028v-.012l.197.017L4 3l-.55-.05-.197-.018A.75.75 0 0 1 4 2.25h16a.75.75 0 0 1 .747.682L20 3l.748-.067v.012l.002.028.008.103c.03.559.032 1.118.007 1.677-.049 1.071-.211 2.516-.675 3.974-.464 1.458-1.241 2.968-2.547 4.118-1.18 1.038-2.748 1.742-4.793 1.88v5.525H16a.75.75 0 0 1 0 1.5H8a.75.75 0 0 1 0-1.5h3.25ZM4.718 3.75c-.012.836.043 1.672.164 2.5h1.925c1.875 0 3.732.358 5.471 1.054 1.563.625 3.231.946 4.915.946h1.475c.405-1.284.554-2.58.599-3.565.016-.362.018-.68.015-.935Zm7.312 9.5c1.944-.006 3.326-.562 4.328-1.37.725-.583 1.278-1.32 1.697-2.13h-.862c-1.875 0-3.732-.358-5.472-1.054a13.236 13.236 0 0 0-4.914-.946h-1.62c.047.174.097.348.153.523.411 1.293 1.071 2.532 2.109 3.445.991.873 2.378 1.492 4.358 1.53l.193.002Z"/></svg>