<svg xmlns="http://www.w3.org/2000/svg" viewBox="0 0 24 24"><path fill="#636F7E" opacity=".16" d="m7.315 19.888 4.95-4.95h2.938a6.563 6.563 0 0 0 6.498-7.491l-.008-.051a.833.833 0 0 0-1.414-.472l-2.357 2.357a2 2 0 1 1-2.828-2.828l2.357-2.357a.833.833 0 0 0-.472-1.414l-.051-.008a6.563 6.563 0 0 0-7.491 6.497v2.939l-4.95 4.95a2 2 0 0 0 2.828 2.828Z"/><path fill="#151E28" d="M17.085 1.94c1.292.184 1.818 1.764.896 2.686l-2.357 2.357a1.25 1.25 0 0 0 1.768 1.768l2.357-2.357c.922-.922 2.502-.396 2.687.896l.007.051a7.313 7.313 0 0 1-7.24 8.347h-2.627l-4.73 4.73a2.75 2.75 0 0 1-3.89-3.889l4.73-4.73V9.172a7.313 7.313 0 0 1 8.348-7.24l.051.007Zm-.17 1.501a.074.074 0 0 0-.042-.017l-.051-.007a5.815 5.815 0 0 0-6.635 5.755v2.938a.749.749 0 0 1-.22.53l-4.95 4.95a1.25 1.25 0 0 0 1.768 1.768l4.95-4.95a.749.749 0 0 1 .53-.22h2.938a5.814 5.814 0 0 0 5.755-6.635l-.007-.051a.074.074 0 0 0-.017-.042.094.094 0 0 0-.04-.025.09.09 0 0 0-.046-.004.076.076 0 0 0-.039.024l-2.357 2.357a2.75 2.75 0 1 1-3.889-3.89l2.357-2.356a.075.075 0 0 0 .024-.04.09.09 0 0 0-.004-.046.09.09 0 0 0-.025-.039Z"/></svg>