<svg width="1024" height="1024" viewBox="0 0 1024 1024" fill="none" xmlns="http://www.w3.org/2000/svg">
<rect width="1024" height="1024" fill="black"/>
<path d="M724.8 644.762C713.176 660.19 697.972 672.556 680.5 680.793C663.028 689.03 643.813 692.89 624.516 692.04C629.971 608.173 689.665 561.623 742.42 535.572C748.543 553.839 750.139 573.319 747.07 592.339C744.001 611.359 736.358 629.349 724.8 644.762Z" fill="white"/>
<path d="M878.641 258.632H824.186C824.186 258.632 810.589 315.209 752.996 315.209C726.856 315.209 710.283 327.997 699.877 338.024C695.357 342.38 690.852 346.366 686.37 350.025C686.354 344.028 685.158 338.093 682.849 332.558C680.54 327.023 677.164 321.997 672.913 317.767C668.661 313.538 663.619 310.186 658.072 307.905C652.526 305.624 646.585 304.458 640.588 304.473C634.591 304.488 628.655 305.685 623.121 307.993C617.586 310.302 612.56 313.679 608.33 317.93C599.787 326.516 595.005 338.143 595.036 350.255C595.036 350.997 595.036 351.739 595.036 352.482V353.15C595.036 353.691 595.088 354.233 595.118 354.775L595.162 355.45C595.207 356.111 595.266 356.771 595.325 357.425V357.647C595.4 358.389 595.489 359.132 595.585 359.874C595.585 360.059 595.637 360.237 595.659 360.423C595.734 360.987 595.823 361.544 595.912 362.1C595.912 362.301 595.979 362.501 596.008 362.702C596.12 363.332 596.238 363.963 596.357 364.587C596.357 364.676 596.394 364.765 596.409 364.846C596.557 365.589 596.721 366.331 596.884 367.029L596.973 367.377C597.114 367.986 597.27 368.587 597.433 369.181C597.433 369.344 597.515 369.507 597.559 369.663C597.73 370.294 597.916 370.925 598.101 371.548L598.168 371.756C598.391 372.498 598.628 373.241 598.873 373.931V373.998C599.103 374.673 599.348 375.341 599.615 376.009L599.734 376.328C599.979 376.974 600.239 377.62 600.476 378.258C600.49 378.296 600.508 378.334 600.528 378.369C601.114 379.779 601.745 381.16 602.413 382.525L602.48 382.666C602.817 383.334 603.158 383.995 603.504 384.648C603.868 385.331 604.246 386.006 604.632 386.674C611.036 397.819 620.267 407.078 631.393 413.514C642.519 419.95 655.147 423.336 668 423.331C666.561 423.662 665.106 423.925 663.636 424.118C647.574 428.802 630.39 427.838 614.952 421.388C599.513 414.938 586.753 403.39 578.797 388.671L516.038 386.214C308.641 386.214 132.453 553.31 132.453 769.806H246.186C246.186 738.312 258.697 708.107 280.967 685.837C303.237 663.567 333.441 651.056 364.936 651.056C396.43 651.056 426.635 663.567 448.904 685.837C471.174 708.107 483.686 738.312 483.686 769.806H620.797C571.716 610.473 680.61 543.172 752.357 514.227C949.638 434.545 878.641 258.632 878.641 258.632ZM718.974 347.598C721.18 342.651 724.93 338.552 729.661 335.916C734.343 333.222 739.757 332.079 745.129 332.65C750.376 333.289 755.415 335.716 758.369 339.85C754.028 339.692 749.688 340.155 745.477 341.223C741.87 342.17 738.413 343.616 735.205 345.52C732.025 347.423 729.097 349.719 726.492 352.355C723.474 355.474 720.867 358.966 718.736 362.746C716.488 358.122 716.844 352.474 718.974 347.598Z" fill="white"/>
</svg>
