<svg id="LogoB_W" data-name="LogoB&amp;W" xmlns="http://www.w3.org/2000/svg" viewBox="0 0 1024 1024"><title>DigibearBW</title><g id="Arm"><path id="Shape" d="M798.72,690.88a160.34,160.34,0,0,1-135.12,63.7c7.35-113,87.78-175.72,158.86-210.82A160.3,160.3,0,0,1,798.72,690.88Z"/></g><g id="Body"><path d="M1006,170.62H932.63s-18.32,76.23-95.92,76.23c-35.22,0-57.55,17.23-71.57,30.74-6.09,5.87-12.16,11.24-18.2,16.17a61.53,61.53,0,0,0-123.06.31c0,1,0,2,0,3l0,.9c0,.73.07,1.46.11,2.19l.06.91c.06.89.14,1.78.22,2.66l0,.3c.1,1,.22,2,.35,3,0,.25.07.49.1.74.1.76.22,1.51.34,2.26,0,.27.09.54.13.81.15.85.31,1.7.47,2.54,0,.12.05.24.07.35.2,1,.42,2,.64,2.94l.12.47c.19.82.4,1.63.62,2.43,0,.22.11.44.17.65.23.85.48,1.7.73,2.54l.09.28c.3,1,.62,2,.95,2.93l0,.09c.31.91.64,1.81,1,2.71l.16.43c.33.87.68,1.74,1,2.6a1,1,0,0,0,.07.15c.79,1.9,1.64,3.76,2.54,5.6l.09.19q.68,1.35,1.38,2.67h0c.49.92,1,1.83,1.52,2.73h0a98.42,98.42,0,0,0,85.38,49.39q-2.91.67-5.88,1.06A98.57,98.57,0,0,1,602,345.83l-84.56-3.31C238,342.52.61,567.66.61,859.36H153.85a160,160,0,0,1,320,0H658.59C592.46,644.68,739.18,554,835.85,515,1101.66,407.64,1006,170.62,1006,170.62ZM790.87,290.49a33.76,33.76,0,0,1,14.4-15.74,34.48,34.48,0,0,1,20.84-4.4c7.07.86,13.86,4.13,17.84,9.7a61.58,61.58,0,0,0-17.37,1.85,53.94,53.94,0,0,0-13.84,5.79A59.34,59.34,0,0,0,801,296.9a68.47,68.47,0,0,0-10.45,14C787.52,304.67,788,297.06,790.87,290.49Z"/></g></svg>