<svg xmlns="http://www.w3.org/2000/svg" viewBox="0 0 24 24"><path fill="#151E28" d="M8.367 2.25h7.266c1.092 0 1.958 0 2.655.057.714.058 1.318.18 1.868.461a4.752 4.752 0 0 1 2.077 2.076c.28.551.402 1.154.46 1.868.057.697.057 1.563.057 2.655v2.728c0 .838 0 1.372-.091 1.832a4.751 4.751 0 0 1-3.732 3.732 5.432 5.432 0 0 1-.908.084.75.75 0 0 1-.038-1.5c.313-.008.501-.025.653-.055a3.25 3.25 0 0 0 2.553-2.554c.059-.296.063-.669.063-1.634V9.4c0-1.132-.001-1.936-.052-2.566-.051-.62-.147-1.005-.302-1.31a3.258 3.258 0 0 0-1.42-1.42c-.305-.155-.69-.252-1.31-.302-.629-.052-1.433-.052-2.566-.052H8.4c-1.132 0-1.936.001-2.566.052-.62.051-1.005.147-1.31.302a3.258 3.258 0 0 0-1.42 1.42c-.155.305-.252.69-.302 1.31-.052.629-.052 1.434-.052 2.566V12c0 .965.004 1.338.062 1.634a3.248 3.248 0 0 0 2.554 2.554c.216.037.434.055.653.055a.75.75 0 0 1-.038 1.5 5.328 5.328 0 0 1-.908-.084 4.751 4.751 0 0 1-3.732-3.732c-.091-.46-.091-.994-.091-1.832V9.367c0-1.092 0-1.958.057-2.655.058-.714.18-1.318.461-1.868a4.752 4.752 0 0 1 2.076-2.077c.551-.28 1.154-.402 1.868-.46.697-.057 1.563-.057 2.655-.057Zm4.977 13.192h-.001l2.865 3.438c.95 1.14.14 2.87-1.344 2.87h-5.73c-1.484 0-2.294-1.73-1.344-2.87l2.866-3.438a1.748 1.748 0 0 1 2.688 0Zm-1.536.96L8.943 19.84a.25.25 0 0 0 .192.41h5.73a.25.25 0 0 0 .192-.41l-2.865-3.438a.25.25 0 0 0-.384 0Z"/></svg>