<svg xmlns="http://www.w3.org/2000/svg" viewBox="0 0 24 24"><path fill="#151E28" d="M18.025 3.25c.445 0 .816 0 1.12.021.317.021.617.068.907.188a2.749 2.749 0 0 1 1.488 1.489c.113.29.177.596.19.907.02.304.02.675.02 1.12v.05c0 .445 0 .816-.021 1.12a2.812 2.812 0 0 1-.188.907 2.749 2.749 0 0 1-1.489 1.488 2.82 2.82 0 0 1-.907.19c-.304.02-.675.02-1.12.02h-8.05c-.445 0-.816 0-1.12-.021a2.812 2.812 0 0 1-.907-.188A2.749 2.749 0 0 1 6.46 9.052a2.84 2.84 0 0 1-.19-.907c-.02-.304-.02-.675-.02-1.12v-.05c0-.445 0-.816.021-1.12.021-.317.068-.617.188-.907A2.749 2.749 0 0 1 7.948 3.46a2.82 2.82 0 0 1 .907-.19c.304-.02.675-.02 1.12-.02Zm-4 10c.445 0 .816 0 1.12.02.318.022.617.069.907.19.674.279 1.21.814 1.489 1.488.12.29.167.59.188.907.021.304.021.675.021 1.12v.05c0 .445 0 .816-.02 1.12a2.82 2.82 0 0 1-.19.907 2.749 2.749 0 0 1-1.488 1.489c-.29.12-.59.167-.907.188-.304.021-.675.021-1.12.021h-4.05c-.445 0-.816 0-1.12-.02a2.82 2.82 0 0 1-.907-.19 2.749 2.749 0 0 1-1.489-1.488c-.12-.29-.167-.59-.188-.907-.021-.304-.021-.675-.021-1.12v-.05c0-.445 0-.816.02-1.12.022-.318.07-.617.19-.907a2.749 2.749 0 0 1 1.488-1.489c.29-.12.59-.167.907-.188.304-.021.675-.021 1.12-.021h4.05Zm5.018-8.483c-.247-.017-.567-.017-1.043-.017h-8c-.476 0-.796 0-1.043.017-.241.017-.358.046-.435.078-.307.127-.55.37-.677.677-.032.077-.061.194-.078.435-.017.247-.017.567-.017 1.043-.005.348.001.696.017 1.043.017.241.046.358.078.435.127.307.37.55.677.677.077.032.194.061.435.078.247.017.567.017 1.043.017h8c.476 0 .796 0 1.043-.017.241-.017.358-.046.435-.078.307-.127.55-.37.677-.677.032-.077.061-.194.078-.435.017-.247.017-.567.017-1.043s0-.796-.017-1.043c-.017-.241-.046-.358-.078-.435a1.248 1.248 0 0 0-.677-.677c-.077-.032-.194-.061-.435-.078Zm-3.565 10.078c-.077-.032-.194-.061-.435-.078A17.265 17.265 0 0 0 14 14.75h-4c-.476 0-.796 0-1.043.017-.241.017-.358.046-.435.078-.307.127-.55.37-.677.677-.032.077-.061.194-.078.435-.017.247-.017.567-.017 1.043s0 .796.017 1.043c.017.241.046.358.078.435.127.307.37.55.677.677.077.032.194.061.435.078.247.017.567.017 1.043.017h4c.476 0 .796 0 1.043-.017.241-.017.358-.046.435-.078.307-.127.55-.37.677-.677.032-.077.061-.194.078-.435.017-.247.017-.567.017-1.043s0-.796-.017-1.043c-.017-.241-.046-.358-.078-.435a1.248 1.248 0 0 0-.677-.677ZM3 2.25a.75.75 0 0 1 .75.75v18a.75.75 0 0 1-1.5 0V3A.75.75 0 0 1 3 2.25Z"/></svg>