<svg xmlns="http://www.w3.org/2000/svg" viewBox="0 0 24 24"><path fill="#151E28" d="M16.25 14.111V11.8c0-.852 0-1.447-.038-1.909-.037-.454-.107-.715-.207-.912a2.253 2.253 0 0 0-.983-.984c-.198-.1-.459-.17-.912-.207-.463-.038-1.057-.038-1.91-.038H9.889A2.14 2.14 0 0 0 7.75 9.889a.75.75 0 0 1-1.5 0c0-2.01 1.63-3.64 3.64-3.639h2.342c.813 0 1.469 0 2 .043.546.045 1.026.139 1.471.365.705.36 1.279.934 1.638 1.64.226.444.321.924.366 1.47.044.531.044 1.187.044 2v2.343a3.64 3.64 0 0 1-3.64 3.639.75.75 0 0 1 0-1.5 2.14 2.14 0 0 0 2.139-2.139ZM10 17.751v-.001H7a.75.75 0 0 1-.75-.75v-3a.75.75 0 0 1 1.5 0v1.19l3.72-3.72a.75.75 0 0 1 1.06 1.061l-3.72 3.72H10a.75.75 0 0 1 0 1.5Z"/></svg>