<svg xmlns="http://www.w3.org/2000/svg" viewBox="0 0 24 24"><path fill="#151E28" d="M4.25 18.056V7.328c0-1.559 1.885-2.339 2.987-1.237L9.95 8.803l3.005-3.005a1.75 1.75 0 0 1 2.475 0l2.828 2.829a1.75 1.75 0 0 1 0 2.474l-3.005 3.006 2.712 2.712c1.103 1.102.322 2.987-1.237 2.987H6a1.75 1.75 0 0 1-1.75-1.75Zm1.75.25h10.728a.25.25 0 0 0 .177-.426l-3.243-3.244a.75.75 0 0 1 0-1.06l3.536-3.535a.25.25 0 0 0 0-.354l-2.829-2.828a.25.25 0 0 0-.353 0l-3.536 3.535a.75.75 0 0 1-1.061 0L6.177 7.152a.25.25 0 0 0-.427.176v10.728c0 .138.112.25.25.25ZM15.783 2.97h.002a.75.75 0 0 1 1.06 0l4.241 4.243a.751.751 0 0 1-.018 1.042.751.751 0 0 1-1.042.018L15.783 4.03a.75.75 0 0 1 0-1.06Z"/></svg>