<svg xmlns="http://www.w3.org/2000/svg" viewBox="0 0 24 24"><path fill="#151E28" d="M7.75 9.889V12.2c0 .853.001 1.447.038 1.909.037.454.107.715.207.913.216.423.56.767.984.983.197.1.458.17.912.207.462.038 1.057.038 1.91.038h2.31a2.138 2.138 0 0 0 2.14-2.139.75.75 0 0 1 1.5 0 3.64 3.64 0 0 1-3.64 3.639h-2.343c-.813 0-1.468 0-2-.043-.546-.045-1.026-.139-1.47-.365a3.749 3.749 0 0 1-1.639-1.64c-.226-.444-.321-.924-.366-1.47-.043-.531-.043-1.187-.043-2V9.889A3.639 3.639 0 0 1 9.889 6.25a.75.75 0 0 1 0 1.5A2.14 2.14 0 0 0 7.75 9.889ZM14 6.25h3a.75.75 0 0 1 .75.75v3a.75.75 0 0 1-1.5 0V8.81l-3.72 3.72a.751.751 0 0 1-1.042-.018.751.751 0 0 1-.018-1.042l3.72-3.72H14a.75.75 0 0 1 0-1.5Z"/></svg>