<svg xmlns="http://www.w3.org/2000/svg" viewBox="0 0 24 24"><path fill="#151E28" d="M12 1.25c5.937 0 10.75 4.813 10.75 10.75S17.937 22.75 12 22.75 1.25 17.937 1.25 12 6.063 1.25 12 1.25ZM2.75 12A9.25 9.25 0 0 0 12 21.25 9.25 9.25 0 0 0 21.25 12 9.25 9.25 0 0 0 12 2.75 9.25 9.25 0 0 0 2.75 12Zm5.78 1.47.72.72V11a3.75 3.75 0 0 1 7.5 0v2a.75.75 0 0 1-1.5 0v-2a2.25 2.25 0 1 0-4.5 0v3.19l.72-.72a.749.749 0 0 1 1.275.326.749.749 0 0 1-.215.734l-2 2a.75.75 0 0 1-1.06 0l-2-2a.751.751 0 0 1 .018-1.042.751.751 0 0 1 1.042-.018Z"/></svg>