<svg xmlns="http://www.w3.org/2000/svg" viewBox="0 0 24 24"><path fill="#151E28" d="M9.253 2.25h5.494c.419 0 .748 0 1.066.076.281.067.55.178.795.33.28.17.512.403.808.7l.052.05 3.125 3.126.051.052c.297.295.53.528.7.808.151.246.263.514.33.794.076.319.076.648.076 1.067v5.494c0 .419 0 .748-.076 1.066a2.759 2.759 0 0 1-.33.795c-.17.28-.404.512-.7.808l-.05.052-3.126 3.125-.052.051c-.296.297-.528.53-.808.7a2.759 2.759 0 0 1-.795.33c-.318.076-.647.076-1.066.076H9.253c-.419 0-.748 0-1.067-.076a2.764 2.764 0 0 1-.794-.33c-.28-.17-.513-.404-.808-.7l-.052-.05-3.125-3.126-.051-.052c-.297-.296-.53-.528-.7-.808a2.759 2.759 0 0 1-.33-.795c-.076-.318-.076-.647-.076-1.066V9.253c0-.419 0-.748.076-1.067.068-.28.179-.548.33-.794.17-.28.403-.513.7-.808l.05-.052 3.126-3.125.052-.051c.295-.297.528-.53.808-.7.246-.151.514-.262.794-.33.319-.076.648-.076 1.067-.076Zm.072 1.5c-.524 0-.665.005-.788.035a1.25 1.25 0 0 0-.362.15c-.108.066-.21.161-.582.533L4.468 7.593c-.372.371-.467.474-.534.582a1.25 1.25 0 0 0-.15.362c-.03.123-.034.264-.034.788v5.35c0 .524.005.665.035.788.03.128.08.25.15.362.066.108.161.21.533.582l3.125 3.125c.371.372.474.467.582.534.112.068.234.119.362.15.123.03.264.034.788.034h5.35c.524 0 .665-.005.788-.035.128-.03.25-.08.362-.15.108-.066.21-.161.582-.533l3.125-3.125c.372-.371.467-.474.534-.582.068-.112.119-.234.15-.362.03-.123.034-.264.034-.788v-5.35c0-.524-.005-.665-.035-.788a1.25 1.25 0 0 0-.15-.362c-.066-.108-.161-.21-.533-.582l-3.125-3.125c-.371-.372-.474-.467-.582-.534a1.25 1.25 0 0 0-.362-.15c-.123-.03-.264-.034-.788-.034ZM12.75 17a.75.75 0 0 1-1.5 0v-4.19l-1.72 1.72a.749.749 0 0 1-1.275-.326.749.749 0 0 1 .215-.734l3-3a.75.75 0 0 1 1.06 0l3 3a.749.749 0 0 1-.326 1.275.749.749 0 0 1-.734-.215l-1.72-1.72ZM9 7.25h6a.75.75 0 0 1 0 1.5H9a.75.75 0 0 1 0-1.5Z"/></svg>