<svg xmlns="http://www.w3.org/2000/svg" viewBox="0 0 24 24"><path fill="#151E28" d="M1.25 12C1.25 6.063 6.063 1.25 12 1.25S22.75 6.063 22.75 12 17.937 22.75 12 22.75 1.25 17.937 1.25 12ZM12 2.75A9.25 9.25 0 0 0 2.75 12 9.25 9.25 0 0 0 12 21.25 9.25 9.25 0 0 0 21.25 12 9.25 9.25 0 0 0 12 2.75Zm-.917 4.5h.028a.75.75 0 0 1 0 1.5c-.53 0-.885 0-1.16.021-.266.02-.395.057-.48.096a1.25 1.25 0 0 0-.604.605c-.04.084-.076.213-.096.48-.02.274-.021.63-.021 1.16V12.8c0 .572 0 .957.025 1.252.023.288.065.425.111.516.12.235.311.426.547.546.09.046.227.088.514.111.296.024.68.025 1.253.025h1.689c.53 0 .885 0 1.16-.021.266-.02.395-.057.48-.096a1.25 1.25 0 0 0 .604-.605c.04-.085.076-.213.096-.48.02-.274.021-.63.021-1.16a.75.75 0 0 1 1.5 0v.029c0 .494 0 .907-.026 1.245-.026.352-.084.683-.232 1a2.747 2.747 0 0 1-1.33 1.33c-.317.148-.648.206-1 .232-.338.026-.75.026-1.245.026H11.17c-.535 0-.98 0-1.345-.03-.38-.03-.736-.098-1.073-.27a2.75 2.75 0 0 1-1.202-1.2c-.172-.338-.24-.694-.27-1.074-.03-.365-.03-.81-.03-1.345v-1.747c0-.494 0-.907.026-1.245.026-.352.084-.683.232-1a2.747 2.747 0 0 1 1.33-1.33c.317-.148.648-.206 1-.232.338-.026.75-.026 1.245-.026ZM13.75 8a.75.75 0 0 1 .75-.75H16a.75.75 0 0 1 .75.75v1.5a.75.75 0 0 1-1.453.263l-1.534 1.534a.75.75 0 0 1-.263 1.453H12a.75.75 0 0 1-.75-.75v-1.5a.75.75 0 0 1 1.453-.263l1.534-1.534A.75.75 0 0 1 13.75 8Z"/></svg>