<svg xmlns="http://www.w3.org/2000/svg" viewBox="0 0 24 24"><path fill="#151E28" d="M13.117 2.479c.485.216.844.614 1.168 1.071.321.455.676 1.067 1.114 1.825l.019.033 5.45 9.413.02.033c.44.76.796 1.375 1.03 1.881.236.51.403 1.021.348 1.55a2.75 2.75 0 0 1-1.118 1.939c-.43.313-.955.424-1.515.475-.555.051-1.267.051-2.145.051H6.512c-.878 0-1.589 0-2.145-.051-.559-.051-1.085-.162-1.515-.475a2.749 2.749 0 0 1-1.119-1.938c-.054-.53.113-1.04.35-1.55.233-.507.59-1.122 1.03-1.882l.018-.033 5.45-9.413.02-.033c.438-.757.793-1.371 1.115-1.825.323-.457.682-.855 1.167-1.071a2.75 2.75 0 0 1 2.234 0Zm-1.625 1.37v.002c-.108.047-.273.173-.552.567-.277.392-.598.944-1.06 1.742l-5.45 9.412c-.464.801-.785 1.357-.987 1.793-.203.44-.23.647-.217.765.037.352.221.673.508.881.095.07.288.15.77.194.479.045 1.121.045 2.046.045h10.9c.926 0 1.567-.001 2.046-.045.482-.044.675-.124.77-.194.287-.208.471-.529.508-.881.012-.118-.014-.325-.218-.765-.201-.436-.522-.992-.986-1.793l-5.45-9.413c-.462-.798-.783-1.351-1.06-1.742-.279-.394-.444-.519-.552-.568a1.249 1.249 0 0 0-1.016 0ZM14.25 17v-.8c0-.573-.001-.957-.025-1.253-.023-.287-.065-.424-.111-.515a1.253 1.253 0 0 0-.546-.546c-.091-.046-.228-.088-.516-.111-.295-.025-.68-.025-1.252-.025h-.99l.72.72a.749.749 0 0 1-.326 1.275.749.749 0 0 1-.734-.215l-2-2a.75.75 0 0 1 0-1.06l2-2a.749.749 0 0 1 1.275.326.749.749 0 0 1-.215.734l-.72.72h1.02c.535 0 .98 0 1.345.03.38.03.736.098 1.074.27.517.264.938.685 1.201 1.202.172.337.24.693.27 1.073.03.365.03.81.03 1.345V17a.75.75 0 0 1-1.5 0Z"/></svg>