<svg xmlns="http://www.w3.org/2000/svg" viewBox="0 0 24 24"><path fill="#151E28" d="M9.367 2.25h5.266c1.092 0 1.958 0 2.655.057.714.058 1.317.18 1.869.46a4.75 4.75 0 0 1 2.075 2.077c.281.55.403 1.154.461 1.868.057.697.057 1.563.057 2.655v5.266c0 1.092 0 1.958-.057 2.655-.058.714-.18 1.317-.46 1.869a4.752 4.752 0 0 1-2.076 2.075c-.552.281-1.155.403-1.869.461-.697.057-1.563.057-2.655.057H9.367c-1.092 0-1.958 0-2.655-.057-.714-.058-1.317-.18-1.868-.46a4.744 4.744 0 0 1-2.076-2.076c-.281-.552-.403-1.155-.461-1.869-.057-.697-.057-1.563-.057-2.655V9.367c0-1.092 0-1.958.057-2.655.058-.714.18-1.317.46-1.868a4.752 4.752 0 0 1 2.077-2.076c.55-.281 1.154-.403 1.868-.461.697-.057 1.563-.057 2.655-.057ZM6.834 3.802c-.62.05-1.005.147-1.31.302a3.258 3.258 0 0 0-1.42 1.42c-.155.305-.251.69-.302 1.31-.051.63-.052 1.434-.052 2.566v5.2c0 1.133 0 1.937.052 2.566.05.62.147 1.005.302 1.31a3.258 3.258 0 0 0 1.42 1.42c.305.155.69.251 1.31.302.63.051 1.434.052 2.566.052h5.2c1.133 0 1.937 0 2.566-.052.62-.05 1.005-.147 1.31-.302a3.258 3.258 0 0 0 1.42-1.42c.155-.305.251-.69.302-1.31.051-.63.052-1.434.052-2.566V9.4c0-1.132 0-1.937-.052-2.566-.05-.62-.147-1.005-.302-1.31a3.258 3.258 0 0 0-1.42-1.42c-.305-.155-.69-.251-1.31-.302-.63-.051-1.434-.052-2.566-.052H9.4c-1.132 0-1.937 0-2.566.052Zm6.083 12.948h-.028a.75.75 0 0 1 0-1.5c.53 0 .885 0 1.16-.021.266-.02.395-.057.48-.096a1.25 1.25 0 0 0 .604-.605c.04-.085.076-.213.096-.48.02-.274.021-.63.021-1.16V11.2c0-.572 0-.957-.025-1.253-.023-.287-.065-.424-.111-.514a1.255 1.255 0 0 0-.546-.547c-.091-.046-.228-.088-.515-.111-.296-.024-.68-.025-1.253-.025h-1.689c-.53 0-.885 0-1.16.021-.266.02-.395.057-.48.096a1.25 1.25 0 0 0-.604.605c-.04.084-.076.213-.096.48-.02.274-.021.63-.021 1.16a.75.75 0 0 1-1.5 0v-.029c0-.494 0-.907.026-1.245.026-.352.084-.683.232-1a2.747 2.747 0 0 1 1.33-1.33c.317-.148.648-.206 1-.232.338-.026.75-.026 1.245-.026h1.747c.535 0 .98 0 1.345.03.38.03.736.098 1.073.27.518.264.938.684 1.202 1.202.172.337.24.693.27 1.073.03.365.03.81.03 1.345v1.747c0 .494 0 .907-.026 1.245-.026.352-.084.683-.232 1a2.747 2.747 0 0 1-1.33 1.33c-.317.148-.648.206-1 .232-.338.026-.75.026-1.245.026ZM10.25 16a.75.75 0 0 1-.75.75H8a.75.75 0 0 1-.75-.75v-1.5a.75.75 0 0 1 1.453-.263l1.534-1.534a.75.75 0 0 1 .263-1.453H12a.75.75 0 0 1 .75.75v1.5a.75.75 0 0 1-1.453.263l-1.534 1.534a.75.75 0 0 1 .487.703Z"/></svg>