<svg xmlns="http://www.w3.org/2000/svg" viewBox="0 0 24 24"><path fill="#151E28" d="M9.367 2.25h5.266c1.092 0 1.958 0 2.655.057.714.058 1.317.18 1.869.461a4.744 4.744 0 0 1 2.076 2.076c.28.551.402 1.154.46 1.868.057.697.057 1.563.057 2.655v5.266c0 1.092 0 1.958-.057 2.655-.058.714-.18 1.317-.461 1.869a4.752 4.752 0 0 1-2.075 2.076c-.552.28-1.155.402-1.869.46-.697.057-1.563.057-2.655.057H9.367c-1.092 0-1.958 0-2.655-.057-.714-.058-1.318-.18-1.868-.461a4.75 4.75 0 0 1-2.077-2.075c-.28-.552-.402-1.155-.46-1.869-.057-.697-.057-1.563-.057-2.655V9.367c0-1.092 0-1.958.057-2.655.058-.714.18-1.318.461-1.868a4.752 4.752 0 0 1 2.076-2.077c.551-.28 1.154-.402 1.868-.46.697-.057 1.563-.057 2.655-.057ZM5.525 4.104h-.001a3.258 3.258 0 0 0-1.42 1.42c-.155.305-.252.69-.302 1.31-.052.629-.052 1.434-.052 2.566v5.2c0 1.132.001 1.936.052 2.566.051.62.147 1.005.302 1.31a3.258 3.258 0 0 0 1.42 1.42c.305.155.69.252 1.31.302.629.052 1.434.052 2.566.052h5.2c1.132 0 1.936-.001 2.566-.052.62-.051 1.005-.147 1.31-.302a3.258 3.258 0 0 0 1.42-1.42c.155-.305.252-.69.302-1.31.052-.629.052-1.433.052-2.566V9.4c0-1.132-.001-1.936-.052-2.566-.051-.62-.147-1.005-.302-1.31a3.258 3.258 0 0 0-1.42-1.42c-.305-.155-.69-.252-1.31-.302-.629-.052-1.433-.052-2.566-.052H9.4c-1.132 0-1.936.001-2.566.052-.621.051-1.005.147-1.309.302Zm10.932 5.641.093 3.43c.043 1.58-1.868 2.402-2.987 1.284l-.17-.17-1.777 1.777a1.75 1.75 0 0 1-2.475 0l-.707-.707a1.75 1.75 0 0 1 0-2.475l1.777-1.777-.17-.17c-1.118-1.119-.296-3.03 1.285-2.987l3.43.093a1.75 1.75 0 0 1 1.701 1.702Zm-1.499.04a.25.25 0 0 0-.243-.243l-3.43-.093a.249.249 0 0 0-.236.151.248.248 0 0 0 .053.276l.7.7a.75.75 0 0 1 0 1.061l-2.307 2.308a.25.25 0 0 0 0 .353l.707.707a.25.25 0 0 0 .354 0l2.307-2.307a.75.75 0 0 1 1.06 0l.7.7a.249.249 0 0 0 .276.054.249.249 0 0 0 .152-.237Z"/></svg>