<svg xmlns="http://www.w3.org/2000/svg" viewBox="0 0 24 24"><path fill="#151E28" d="M1.25 12C1.25 6.063 6.063 1.25 12 1.25S22.75 6.063 22.75 12 17.937 22.75 12 22.75 1.25 17.937 1.25 12ZM12 2.75A9.25 9.25 0 0 0 2.75 12 9.25 9.25 0 0 0 12 21.25 9.25 9.25 0 0 0 21.25 12 9.25 9.25 0 0 0 12 2.75Zm-1 14H8a.75.75 0 0 1-.75-.75v-3a.75.75 0 0 1 1.5 0v1.19l1.72-1.72a.749.749 0 0 1 1.275.326.749.749 0 0 1-.215.734l-1.72 1.72H11a.75.75 0 0 1 0 1.5ZM12.25 8a.75.75 0 0 1 .75-.75h3a.75.75 0 0 1 .75.75v3a.75.75 0 0 1-1.5 0V9.81l-1.72 1.72a.749.749 0 0 1-1.275-.326.749.749 0 0 1 .215-.734l1.72-1.72H13a.75.75 0 0 1-.75-.75Z"/></svg>