<svg xmlns="http://www.w3.org/2000/svg" viewBox="0 0 24 24"><path fill="#151E28" d="M12 1.25c5.937 0 10.75 4.813 10.75 10.75S17.937 22.75 12 22.75 1.25 17.937 1.25 12 6.063 1.25 12 1.25ZM2.75 12A9.25 9.25 0 0 0 12 21.25 9.25 9.25 0 0 0 21.25 12 9.25 9.25 0 0 0 12 2.75 9.25 9.25 0 0 0 2.75 12Zm13.707 2.255v.001a1.75 1.75 0 0 1-1.702 1.701l-3.43.093c-1.58.043-2.402-1.868-1.284-2.987l.17-.17-1.777-1.777a1.75 1.75 0 0 1 0-2.475l.707-.707a1.75 1.75 0 0 1 2.475 0l1.777 1.777.17-.17c1.119-1.118 3.03-.296 2.987 1.285Zm-1.742.203a.25.25 0 0 0 .243-.243l.092-3.43a.25.25 0 0 0-.426-.183l-.7.7a.75.75 0 0 1-1.061 0l-2.307-2.307a.25.25 0 0 0-.354 0l-.707.707a.25.25 0 0 0 0 .354l2.307 2.307a.75.75 0 0 1 0 1.06l-.7.7a.249.249 0 0 0-.054.276c.04.095.134.155.237.152Z"/></svg>