<svg xmlns="http://www.w3.org/2000/svg" viewBox="0 0 24 24"><path fill="#151E28" d="M1.25 12C1.25 6.063 6.063 1.25 12 1.25S22.75 6.063 22.75 12 17.937 22.75 12 22.75 1.25 17.937 1.25 12ZM12 2.75A9.25 9.25 0 0 0 2.75 12 9.25 9.25 0 0 0 12 21.25 9.25 9.25 0 0 0 21.25 12 9.25 9.25 0 0 0 12 2.75Zm.63 4.12h.001a.75.75 0 0 1 0 1.06l-.33.33A4.75 4.75 0 1 1 7.25 13a.75.75 0 0 1 1.5 0 3.25 3.25 0 1 0 3.577-3.234l.303.304a.751.751 0 0 1-.018 1.042.751.751 0 0 1-1.042.018l-1.6-1.6a.75.75 0 0 1 0-1.06l1.6-1.6a.75.75 0 0 1 1.06 0Z"/></svg>