<svg xmlns="http://www.w3.org/2000/svg" viewBox="0 0 24 24"><path fill="#151E28" d="M12 1.25c5.937 0 10.75 4.813 10.75 10.75S17.937 22.75 12 22.75 1.25 17.937 1.25 12 6.063 1.25 12 1.25ZM2.75 12A9.25 9.25 0 0 0 12 21.25 9.25 9.25 0 0 0 21.25 12 9.25 9.25 0 0 0 12 2.75 9.25 9.25 0 0 0 2.75 12ZM8 16.75h-.001A.75.75 0 0 1 7.25 16v-2a.75.75 0 0 1 .75-.75h2a.75.75 0 0 1 0 1.5h-.39a3.645 3.645 0 0 0 5.962-2.04.75.75 0 1 1 1.471.294 5.142 5.142 0 0 1-3.304 3.835 5.142 5.142 0 0 1-4.99-.852V16a.75.75 0 0 1-.749.75ZM16.75 8v2a.75.75 0 0 1-.75.75h-2a.75.75 0 0 1 0-1.501h.389a3.644 3.644 0 0 0-5.963 2.04.75.75 0 0 1-1.47-.293 5.142 5.142 0 0 1 3.304-3.835 5.142 5.142 0 0 1 4.99.852V8a.75.75 0 0 1 1.5 0Z"/></svg>