<svg xmlns="http://www.w3.org/2000/svg" viewBox="0 0 24 24"><path fill="#151E28" d="M1.25 12C1.25 6.063 6.063 1.25 12 1.25S22.75 6.063 22.75 12 17.937 22.75 12 22.75 1.25 17.937 1.25 12ZM12 2.75A9.25 9.25 0 0 0 2.75 12 9.25 9.25 0 0 0 12 21.25 9.25 9.25 0 0 0 21.25 12 9.25 9.25 0 0 0 12 2.75Zm1.905 14h-.016a.75.75 0 0 1 0-1.5l.166-.001a1.25 1.25 0 0 0 1.194-1.194l.001-.166v-2.69c0-.572 0-.956-.025-1.252-.023-.287-.065-.424-.111-.515a1.253 1.253 0 0 0-.546-.546c-.091-.046-.228-.088-.515-.111-.296-.024-.68-.025-1.253-.025h-2.689l-.166.001a1.25 1.25 0 0 0-1.194 1.194 4.593 4.593 0 0 0-.001.166.75.75 0 0 1-1.5 0v-.016c0-.088 0-.155.003-.215A2.75 2.75 0 0 1 9.88 7.253c.06-.003.127-.003.215-.003h2.735c.535 0 .98 0 1.345.03.38.03.736.098 1.073.27a2.75 2.75 0 0 1 1.202 1.2c.172.338.24.694.27 1.074.03.365.03.81.03 1.345v2.735c0 .087 0 .155-.003.215a2.75 2.75 0 0 1-2.627 2.627c-.06.003-.128.003-.215.003Zm-3.505 0H8a.75.75 0 0 1-.75-.75v-2.4a.75.75 0 0 1 1.5 0v.59l2.72-2.72a.751.751 0 0 1 1.042.018.751.751 0 0 1 .018 1.042l-2.72 2.72h.59a.75.75 0 0 1 0 1.5Z"/></svg>