<svg xmlns="http://www.w3.org/2000/svg" viewBox="0 0 24 24"><path fill="#151E28" d="M12 1.25c5.937 0 10.75 4.813 10.75 10.75S17.937 22.75 12 22.75 1.25 17.937 1.25 12 6.063 1.25 12 1.25ZM2.75 12A9.25 9.25 0 0 0 12 21.25 9.25 9.25 0 0 0 21.25 12 9.25 9.25 0 0 0 12 2.75 9.25 9.25 0 0 0 2.75 12Zm10.454-4.393 2.49 2.36c1.149 1.087.379 3.02-1.204 3.02h-.24v.513a1.75 1.75 0 0 1-1.75 1.75h-1a1.75 1.75 0 0 1-1.75-1.75v-.513h-.24c-1.582 0-2.352-1.933-1.204-3.02l2.49-2.36a1.75 1.75 0 0 1 2.408 0Zm-1.376 1.089-2.49 2.359a.25.25 0 0 0 .172.432h.991a.75.75 0 0 1 .75.75V13.5c0 .138.112.25.25.25h1a.25.25 0 0 0 .25-.25v-1.264a.75.75 0 0 1 .75-.75h.99a.25.25 0 0 0 .171-.43l-2.49-2.36a.25.25 0 0 0-.344 0ZM10.5 15.75h3a.75.75 0 0 1 0 1.5h-3a.75.75 0 0 1 0-1.5Z"/></svg>