<svg xmlns="http://www.w3.org/2000/svg" viewBox="0 0 24 24"><path fill="#151E28" d="M12.75 3v8.25H21a.75.75 0 0 1 0 1.5h-8.25V21a.75.75 0 0 1-1.5 0v-8.25H3a.75.75 0 0 1 0-1.5h8.25V3a.75.75 0 0 1 1.5 0ZM4 9a1 1 0 1 1 0-2 1 1 0 0 1 0 2Zm4-4a1 1 0 1 1 0-2 1 1 0 0 1 0 2ZM4 17a1 1 0 1 1 0-2 1 1 0 0 1 0 2ZM16 5a1 1 0 1 1 0-2 1 1 0 0 1 0 2ZM4 5a1 1 0 1 1 0-2 1 1 0 0 1 0 2Zm4 16a1 1 0 1 1 0-2 1 1 0 0 1 0 2ZM21 8a1 1 0 1 1-2 0 1 1 0 0 1 2 0ZM4 21a1 1 0 1 1 0-2 1 1 0 0 1 0 2ZM21 4a1 1 0 1 1-2 0 1 1 0 0 1 2 0Zm-4 16a1 1 0 1 1-2 0 1 1 0 0 1 2 0Zm4-4a1 1 0 1 1-2 0 1 1 0 0 1 2 0Zm0 4a1 1 0 1 1-2 0 1 1 0 0 1 2 0Z"/></svg>