<svg xmlns="http://www.w3.org/2000/svg" viewBox="0 0 24 24"><path fill="#151E28" d="M3 3.25h18a.75.75 0 0 1 0 1.5H3a.75.75 0 0 1 0-1.5ZM13 12a1 1 0 1 1-2 0 1 1 0 0 1 2 0Zm-4 0a1 1 0 1 1-2 0 1 1 0 0 1 2 0Zm3-3a1 1 0 1 1 0-2 1 1 0 0 1 0 2Zm-7 3a1 1 0 1 1-2 0 1 1 0 0 1 2 0Zm12 0a1 1 0 1 1-2 0 1 1 0 0 1 2 0Zm-4 4a1 1 0 1 1-2 0 1 1 0 0 1 2 0ZM5 8a1 1 0 1 1-2 0 1 1 0 0 1 2 0Zm0 8a1 1 0 1 1-2 0 1 1 0 0 1 2 0Zm15-3a1 1 0 1 1 0-2 1 1 0 0 1 0 2Zm-7 7a1 1 0 1 1-2 0 1 1 0 0 1 2 0Zm-5 1a1 1 0 1 1 0-2 1 1 0 0 1 0 2ZM20 9a1 1 0 1 1 0-2 1 1 0 0 1 0 2ZM5 20a1 1 0 1 1-2 0 1 1 0 0 1 2 0Zm15-3a1 1 0 1 1 0-2 1 1 0 0 1 0 2Zm-4 4a1 1 0 1 1 0-2 1 1 0 0 1 0 2Zm4 0a1 1 0 1 1 0-2 1 1 0 0 1 0 2Z"/></svg>