<svg xmlns="http://www.w3.org/2000/svg" viewBox="0 0 24 24"><path fill="#151E28" d="M8.306 2.25v.001h7.513c.705-.001 1.257-.001 1.745.191.428.168.808.442 1.103.795.337.402.511.926.733 1.595l.04.12 1.265 3.795a.76.76 0 0 1 .044.272v8.811c0 .535 0 .98-.03 1.345-.03.38-.098.736-.27 1.074a2.752 2.752 0 0 1-1.202 1.201c-.337.172-.693.24-1.073.27-.365.03-.81.03-1.345.03H7.168c-.534 0-.98 0-1.344-.03-.38-.03-.736-.098-1.074-.27a2.75 2.75 0 0 1-1.2-1.202c-.172-.337-.24-.693-.27-1.073-.03-.365-.03-.81-.03-1.345V9.017a.76.76 0 0 1 .044-.271l1.265-3.795.04-.12c.223-.669.396-1.193.733-1.595a2.743 2.743 0 0 1 1.103-.796c.485-.19 1.035-.19 1.734-.19ZM4.75 17.8c0 .572.001.957.025 1.252.023.288.065.425.111.515.12.235.311.427.546.547.091.046.228.088.515.111.296.025.681.025 1.253.025h9.601c.572 0 .957-.001 1.252-.025.288-.023.425-.065.515-.111.236-.12.427-.311.547-.547.046-.09.088-.227.111-.515.024-.295.024-.68.024-1.252V9.75H4.75Zm14.209-9.55-.941-2.825c-.283-.847-.37-1.071-.5-1.227a1.247 1.247 0 0 0-.502-.361c-.188-.074-.429-.087-1.322-.087H8.306c-.893 0-1.133.013-1.322.087a1.253 1.253 0 0 0-.501.361c-.13.155-.218.38-.5 1.227L5.04 8.25Z"/></svg>