<svg xmlns="http://www.w3.org/2000/svg" viewBox="0 0 24 24"><path fill="#151E28" d="M3.253 18.647A2.75 2.75 0 0 1 1.25 16v-4a8.751 8.751 0 0 1 17.062-2.74 4.75 4.75 0 0 1 1.437 9.157l.001.083a3.25 3.25 0 0 1-6.49.25H9.74a3.25 3.25 0 0 1-6.487-.103ZM2.75 12v4c0 .512.312.973.788 1.162a3.25 3.25 0 0 1 5.963.088h3.998a3.251 3.251 0 0 1 5.86-.297 3.25 3.25 0 0 0-1.563-6.197.75.75 0 0 1-.772-.562A7.25 7.25 0 0 0 2.75 12Zm3.5-1a.75.75 0 0 1 .75-.75h6a.75.75 0 0 1 0 1.5H7a.75.75 0 0 1-.75-.75Zm2 7.5a1.75 1.75 0 1 0-3.501.001A1.75 1.75 0 0 0 8.25 18.5Zm10 0a1.75 1.75 0 1 0-3.501.001 1.75 1.75 0 0 0 3.501-.001Z"/></svg>