<svg xmlns="http://www.w3.org/2000/svg" viewBox="0 0 24 24"><path fill="#151E28" d="M3.844 3.768c.55-.281 1.154-.403 1.868-.461.697-.057 1.563-.057 2.655-.057h3.66c.91 0 1.63 0 2.213.04.596.04 1.104.125 1.578.322a4.753 4.753 0 0 1 2.57 2.57c.197.474.281.982.322 1.578.04.584.04 1.304.04 2.213v.054c0 .91 0 1.63-.04 2.213-.04.596-.125 1.104-.322 1.578a4.753 4.753 0 0 1-2.57 2.57c-.474.197-.982.281-1.578.322-.584.04-1.304.04-2.213.04H6.938c-.746 0-1.03.003-1.297.05a3.271 3.271 0 0 0-.73.221c-.25.11-.487.264-1.107.678l-1.388.925A.75.75 0 0 1 1.25 18v-7.633c0-1.092 0-1.958.057-2.655.058-.714.18-1.317.46-1.868a4.752 4.752 0 0 1 2.077-2.076ZM8.4 4.75c-1.132 0-1.937 0-2.566.052-.62.05-1.005.147-1.31.302a3.258 3.258 0 0 0-1.42 1.42c-.155.305-.251.69-.302 1.31-.051.63-.052 1.434-.052 2.566v6.199l.222-.148.056-.038c.546-.364.897-.598 1.283-.766.341-.15.7-.258 1.067-.323.414-.074.836-.074 1.492-.074H12c.942 0 1.611 0 2.138-.036.52-.036.845-.103 1.106-.211a3.249 3.249 0 0 0 1.759-1.76c.108-.26.175-.586.21-1.105.037-.527.037-1.196.037-2.138s0-1.611-.036-2.138c-.036-.52-.103-.845-.211-1.106a3.249 3.249 0 0 0-1.76-1.759c-.26-.108-.586-.175-1.105-.21C13.61 4.75 12.942 4.75 12 4.75Zm12.287 3.587A2.75 2.75 0 0 1 22.75 11v9a.748.748 0 0 1-1.166.624l-1.992-1.328a3.252 3.252 0 0 0-1.803-.546H12a.75.75 0 0 1 0-1.5h5.789c.938 0 1.855.278 2.635.798l.826.551V11c0-.581-.397-1.071-.937-1.211a.75.75 0 1 1 .374-1.452Z"/></svg>