<svg xmlns="http://www.w3.org/2000/svg" viewBox="0 0 24 24"><path fill="#151E28" d="M2.25 12A9.75 9.75 0 0 1 12 2.25 9.75 9.75 0 0 1 21.75 12 9.75 9.75 0 0 1 12 21.75c-1.653 0-2.997-.322-4.028-.722a71.32 71.32 0 0 0-1.501-.572 6.824 6.824 0 0 0-.411-.137c-.1-.028-.14-.034-.145-.035a1.492 1.492 0 0 0-.241-.013 1.58 1.58 0 0 0-.233.065 1.84 1.84 0 0 0-.354.186c-.207.126-.473.304-.854.557l-.817.545A.75.75 0 0 1 2.25 21ZM12 3.75A8.25 8.25 0 0 0 3.75 12v7.599c.214-.141.397-.26.555-.357.232-.142.46-.267.692-.34l.008-.002c.16-.05.325-.1.506-.12.18-.02.353-.006.52.008l.008.001c.26.022.59.13.938.255.375.134.877.329 1.526.581l.012.005c.87.338 2.03.62 3.485.62a8.25 8.25 0 0 0 0-16.5Zm0 6.5a.75.75 0 0 1 .75.75v5a.75.75 0 0 1-1.5 0v-5a.75.75 0 0 1 .75-.75ZM12 9a1 1 0 1 1 0-2 1 1 0 0 1 0 2Z"/></svg>