<svg xmlns="http://www.w3.org/2000/svg" viewBox="0 0 24 24"><path fill="#151E28" d="M1.25 12C1.25 6.063 6.063 1.25 12 1.25S22.75 6.063 22.75 12 17.937 22.75 12 22.75 1.25 17.937 1.25 12ZM12 2.75A9.25 9.25 0 0 0 2.75 12 9.25 9.25 0 0 0 12 21.25 9.25 9.25 0 0 0 21.25 12 9.25 9.25 0 0 0 12 2.75Zm.47 5.72a.75.75 0 0 1 1.06 0l3 3a.75.75 0 0 1 0 1.06l-3 3a.749.749 0 0 1-1.275-.326.749.749 0 0 1 .215-.734L14.94 12l-2.47-2.47a.75.75 0 0 1 0-1.06Zm-2.94 0 3 3a.75.75 0 0 1 0 1.06l-3 3a.749.749 0 0 1-1.275-.326.749.749 0 0 1 .215-.734L10.94 12 8.47 9.53a.751.751 0 0 1 .018-1.042.751.751 0 0 1 1.042-.018Z"/></svg>