<svg xmlns="http://www.w3.org/2000/svg" viewBox="0 0 24 24"><path fill="#151E28" d="M8.318 6.876a.75.75 0 0 1-1.298-.752 5.75 5.75 0 0 1 10.687 2.169 5.752 5.752 0 0 1 .443 11.342.75.75 0 1 1-.3-1.47A4.25 4.25 0 0 0 17 9.75a.75.75 0 0 1-.75-.75 4.25 4.25 0 0 0-7.932-2.124Zm1.41 5.306-.854 3.416 1.461.732a.75.75 0 0 1 .195 1.2l-5 5a.75.75 0 0 1-1.258-.712l.854-3.416-1.461-.732a.75.75 0 0 1-.195-1.2l5-5a.75.75 0 0 1 1.258.712ZM2.75 14a.75.75 0 0 1-1.5 0A5.751 5.751 0 0 1 9.3 8.729a.75.75 0 0 1-.6 1.374A4.249 4.249 0 0 0 2.75 14Zm13 1v.25H16a.75.75 0 0 1 0 1.5h-.25V17a.75.75 0 0 1-1.5 0v-.25H14a.75.75 0 0 1 0-1.5h.25V15a.75.75 0 0 1 1.5 0ZM12 19.25a.75.75 0 0 1 .75.75v.25H13a.75.75 0 0 1 0 1.5h-.25V22a.75.75 0 0 1-1.5 0v-.25H11a.75.75 0 0 1 0-1.5h.25V20a.75.75 0 0 1 .75-.75Zm-5.665-1.921a.75.75 0 0 1 .393.853l-.344 1.373 2.35-2.349-1.069-.535a.75.75 0 0 1-.393-.853l.344-1.373-2.35 2.349Z"/></svg>