<svg xmlns="http://www.w3.org/2000/svg" viewBox="0 0 24 24"><path fill="#151E28" d="M11.798 1.25h.404a2.547 2.547 0 0 1 2.548 2.549v.37a.495.495 0 0 0 .843.349l.262-.262a2.549 2.549 0 0 1 3.604 0l.285.285a2.549 2.549 0 0 1 0 3.604l-.263.262a.495.495 0 0 0 .35.843h.371a2.548 2.548 0 0 1 2.548 2.548v.404a2.547 2.547 0 0 1-2.549 2.548h-.37a.495.495 0 0 0-.349.843l.262.262a2.549 2.549 0 0 1 0 3.604l-.285.285a2.549 2.549 0 0 1-3.604 0l-.262-.263a.495.495 0 0 0-.843.35v.371a2.548 2.548 0 0 1-2.548 2.548h-.404a2.547 2.547 0 0 1-2.548-2.549v-.37a.495.495 0 0 0-.843-.349l-.262.262a2.549 2.549 0 0 1-3.604 0l-.285-.285a2.549 2.549 0 0 1 0-3.604l.263-.262a.495.495 0 0 0-.35-.843h-.371a2.548 2.548 0 0 1-2.548-2.548v-.404A2.547 2.547 0 0 1 3.799 9.25h.37a.495.495 0 0 0 .349-.843l-.262-.262a2.549 2.549 0 0 1 0-3.604l.285-.285a2.549 2.549 0 0 1 3.604 0l.262.263a.495.495 0 0 0 .843-.35v-.371a2.548 2.548 0 0 1 2.548-2.548ZM10.75 3.798v.371a1.992 1.992 0 0 1-3.403 1.41l-.263-.262a1.047 1.047 0 0 0-1.482 0l-.285.285a1.048 1.048 0 0 0 0 1.482l.262.263a1.992 1.992 0 0 1-1.41 3.403h-.371c-.578 0-1.048.469-1.048 1.048v.404c0 .578.469 1.048 1.049 1.048h.37a1.993 1.993 0 0 1 1.41 3.404l-.262.262a1.048 1.048 0 0 0 0 1.482l.285.285c.409.41 1.073.41 1.482 0l.263-.262a1.992 1.992 0 0 1 3.403 1.41v.371c0 .578.469 1.048 1.048 1.048h.404c.578 0 1.048-.469 1.048-1.049v-.37a1.993 1.993 0 0 1 3.404-1.41l.262.262c.409.41 1.072.41 1.482 0l.285-.285c.41-.409.41-1.073 0-1.482l-.262-.262a1.994 1.994 0 0 1 1.41-3.404h.371c.578 0 1.048-.469 1.048-1.048v-.404c0-.578-.469-1.048-1.049-1.048h-.37a1.992 1.992 0 0 1-1.41-3.403l.262-.263c.41-.409.41-1.072 0-1.482l-.285-.285a1.045 1.045 0 0 0-1.482 0l-.262.262a1.994 1.994 0 0 1-3.404-1.41v-.371c0-.578-.469-1.048-1.048-1.048h-.404c-.578 0-1.048.469-1.048 1.048ZM11.8 8.25h.4a3.55 3.55 0 0 1 3.55 3.55v.4a3.55 3.55 0 0 1-3.55 3.55h-.4a3.55 3.55 0 0 1-3.55-3.55v-.4a3.55 3.55 0 0 1 3.55-3.55ZM9.75 11.8v.4a2.05 2.05 0 0 0 2.05 2.05h.4a2.05 2.05 0 0 0 2.05-2.05v-.4a2.05 2.05 0 0 0-2.05-2.05h-.4a2.05 2.05 0 0 0-2.05 2.05Z"/></svg>