<svg xmlns="http://www.w3.org/2000/svg" viewBox="0 0 24 24"><path fill="#151E28" d="M12 2.25A9.75 9.75 0 0 1 21.75 12 9.75 9.75 0 0 1 12 21.75 9.75 9.75 0 0 1 2.25 12 9.75 9.75 0 0 1 12 2.25ZM3.75 12a8.25 8.25 0 1 0 16.5 0 8.25 8.25 0 0 0-16.5 0Zm9-2.25V9A2.25 2.25 0 1 1 15 11.25h-.75v1.5H15A2.25 2.25 0 1 1 12.75 15v-.75h-1.5V15A2.25 2.25 0 1 1 9 12.75h.75v-1.5H9A2.25 2.25 0 1 1 11.25 9v.75Zm-1.5 3h1.5v-1.5h-1.5Zm3 2.25a.75.75 0 1 0 .75-.75h-.75Zm-6 0a.75.75 0 0 0 1.5 0v-.75H9a.75.75 0 0 0-.75.75Zm6-6v.75H15a.75.75 0 1 0-.75-.75ZM9 8.25a.75.75 0 0 0 0 1.5h.75V9A.75.75 0 0 0 9 8.25Z"/></svg>