<svg xmlns="http://www.w3.org/2000/svg" viewBox="0 0 24 24"><path fill="#151E28" d="M19.75 8.975v7.257c0 .813 0 1.469-.043 2-.045.546-.139 1.026-.365 1.47a3.749 3.749 0 0 1-1.64 1.639c-.444.226-.924.321-1.47.366-.531.043-1.187.043-2 .043H9.768c-.813 0-1.469 0-2-.043-.546-.045-1.026-.139-1.47-.365a3.749 3.749 0 0 1-1.639-1.64c-.226-.444-.321-.924-.366-1.47-.043-.531-.043-1.187-.043-2V7.768c0-.813 0-1.469.043-2 .045-.546.139-1.026.365-1.47.36-.706.934-1.28 1.64-1.639.444-.226.924-.321 1.47-.366.531-.043 1.187-.043 2-.043h3.293a2.75 2.75 0 0 1 1.891.654c.093.081.182.166.268.255l.017.018 3.586 3.586.018.017c.102.102.182.182.255.268.372.439.598.983.644 1.557.01.112.01.226.01.37ZM7.89 3.788c-.453.037-.714.107-.911.207a2.25 2.25 0 0 0-.984.984c-.1.197-.17.458-.207.912-.037.462-.038 1.057-.038 1.909v8.4c0 .852 0 1.447.038 1.91.037.453.107.714.207.912.216.423.56.767.984.983.197.1.458.17.912.207.462.037 1.057.038 1.909.038h4.4c.853 0 1.447 0 1.91-.038.453-.038.714-.107.912-.207.423-.216.767-.56.983-.983.1-.198.17-.459.207-.913.037-.462.038-1.057.038-1.909V9.75h-2.08c-.535 0-.98 0-1.345-.03-.38-.03-.736-.098-1.073-.27a2.749 2.749 0 0 1-1.202-1.202c-.172-.337-.24-.693-.27-1.073-.03-.365-.03-.81-.03-1.345V3.75H9.8c-.852 0-1.447 0-1.91.038ZM12.75 11v2.25H15a.75.75 0 0 1 0 1.5h-2.25V17a.75.75 0 0 1-1.5 0v-2.25H9a.75.75 0 0 1 0-1.5h2.25V11a.75.75 0 0 1 1.5 0Zm1-5.2c0 .573.001.957.025 1.253.023.287.065.424.111.514.12.235.311.427.546.547.091.046.228.088.516.111.295.025.68.025 1.252.025h1.908a1.314 1.314 0 0 0-.155-.231 5.034 5.034 0 0 0-.19-.196l-3.586-3.586a4.074 4.074 0 0 0-.197-.19 1.236 1.236 0 0 0-.23-.155Z"/></svg>