<svg xmlns="http://www.w3.org/2000/svg" viewBox="0 0 24 24"><path fill="#151E28" d="M12 3.75A8.25 8.25 0 0 0 3.75 12a.75.75 0 0 1-1.5 0A9.75 9.75 0 0 1 12 2.25 9.75 9.75 0 0 1 21.75 12a.75.75 0 0 1-1.5 0A8.254 8.254 0 0 0 12 3.75Zm8.344 11.711a.75.75 0 0 1 .322 1.01A9.748 9.748 0 0 1 12 21.75a9.73 9.73 0 0 1-3.212-.542.748.748 0 0 1-.253-1.284.749.749 0 0 1 .747-.132c.85.296 1.764.458 2.718.458a8.25 8.25 0 0 0 7.334-4.467.75.75 0 0 1 1.01-.322ZM10.3 8.103a.75.75 0 0 1-.6-1.374A5.752 5.752 0 0 1 17.75 12v2a.75.75 0 0 1-1.5 0v-2a4.25 4.25 0 0 0-5.95-3.897ZM12.75 11v6a.75.75 0 0 1-1.5 0v-6a.75.75 0 0 1 1.5 0Zm-4.647-.7a4.236 4.236 0 0 0-.354 1.7v3a.75.75 0 0 1-1.5 0v-3a5.723 5.723 0 0 1 .48-2.3c.174-.366.607-.528.978-.366a.75.75 0 0 1 .396.966Zm-4.501 5.028a.75.75 0 0 1 1.005.338A8.272 8.272 0 0 0 6.5 18.15a.75.75 0 0 1-1 1.118 9.776 9.776 0 0 1-2.236-2.933.75.75 0 0 1 .338-1.006Z"/></svg>