<svg xmlns="http://www.w3.org/2000/svg" viewBox="0 0 24 24"><path fill="#151E28" d="m12.335 2.33.001-.001c2.148 1.074 3.993 2.933 5.3 5.024C18.94 9.44 19.75 11.826 19.75 14a7.75 7.75 0 0 1-7.74 7.75h-.022C7.723 21.744 4.25 18.42 4.25 14c0-2.174.809-4.56 2.114-6.649 1.306-2.09 3.151-3.948 5.301-5.021a.752.752 0 0 1 .67 0Zm4.25 15.918A6.23 6.23 0 0 0 18.25 14c0-1.826-.69-3.94-1.886-5.852-1.12-1.794-2.649-3.35-4.364-4.3-1.715.95-3.243 2.506-4.364 4.3C6.441 10.06 5.75 12.174 5.75 14c0 1.713.64 3.219 1.687 4.323a4.752 4.752 0 0 1 7.271-5.221 4.75 4.75 0 0 1 1.877 5.146ZM12 20.25h.005a3.25 3.25 0 1 0-.005 0Z"/></svg>