<svg xmlns="http://www.w3.org/2000/svg" viewBox="0 0 24 24"><path fill="#151E28" d="M8.012 3.75H6.801c-.853 0-1.448.001-1.91.038-.454.037-.715.107-.912.207a2.25 2.25 0 0 0-.984.984c-.1.197-.169.458-.207.911-.038.463-.038 1.058-.038 1.91v7.4c0 .852.001 1.447.038 1.909.037.454.107.715.207.913.216.423.56.767.984.983.293.15.441.198.545.22.11.022.213.025.476.025h.385l1.365-6.825.005-.026c.087-.436.161-.802.244-1.102a2.79 2.79 0 0 1 .386-.871c.29-.416.689-.743 1.154-.946a2.78 2.78 0 0 1 .93-.207c.309-.023.683-.023 1.128-.023h8.533c.641 0 1.17 0 1.596.038.44.038.852.12 1.226.34.565.331.993.853 1.207 1.472.142.41.143.831.094 1.27-.047.425-.151.944-.276 1.572l-.007.033-1.235 6.172a.75.75 0 0 1-.735.603H4.971c-.228 0-.477 0-.751-.056-.291-.061-.574-.175-.922-.352a3.749 3.749 0 0 1-1.639-1.64c-.226-.444-.321-.924-.366-1.47-.043-.531-.043-1.187-.043-2V7.768c0-.813 0-1.469.043-2 .045-.546.139-1.026.365-1.47.36-.706.934-1.28 1.64-1.639.444-.226.924-.321 1.47-.366.532-.043 1.187-.043 2-.043h1.329c.652 0 1.103 0 1.536.103.382.092.748.244 1.083.45.38.233.7.551 1.16 1.013l.06.06.188.188c.544.544.734.726.944.854.201.124.421.215.65.27.238.057.5.062 1.27.062h1.214c.155 0 .564 0 1.023.044.436.043 1.023.133 1.478.365.575.293 1.429.805 1.694 1.783a.75.75 0 0 1-1.448.393c-.081-.3-.374-.558-.927-.84-.187-.095-.532-.168-.942-.208-.384-.037-.733-.037-.88-.037h-1.297c-.652 0-1.103 0-1.536-.103a3.741 3.741 0 0 1-1.083-.45c-.38-.233-.7-.551-1.16-1.013l-.06-.06-.188-.188c-.544-.544-.733-.726-.943-.854a2.226 2.226 0 0 0-.651-.27c-.238-.057-.5-.062-1.27-.062Zm11.085 7h-8.474c-.478 0-.796.001-1.044.019-.237.017-.356.049-.44.086a1.25 1.25 0 0 0-.525.43c-.052.075-.106.185-.17.415-.066.239-.129.55-.223 1.02l-1.306 6.53h13.47l1.114-5.569c.133-.67.224-1.124.263-1.476.038-.346.016-.51-.02-.614a1.26 1.26 0 0 0-.549-.67c-.095-.055-.251-.11-.598-.14-.353-.031-.816-.031-1.498-.031Z"/></svg>