<svg xmlns="http://www.w3.org/2000/svg" viewBox="0 0 24 24"><path fill="#151E28" d="M6.17 13.249h.66c.535 0 .98 0 1.345.03.38.031.736.098 1.073.27.518.264.938.684 1.202 1.202.172.337.24.694.27 1.074.03.364.03.81.03 1.344v.661c0 .534 0 .98-.03 1.344-.03.38-.098.737-.27 1.074a2.749 2.749 0 0 1-1.202 1.202c-.337.172-.693.239-1.073.27-.365.03-.81.03-1.345.03h-.66c-.535 0-.98 0-1.345-.03-.38-.031-.736-.098-1.073-.27a2.749 2.749 0 0 1-1.202-1.202c-.172-.337-.24-.694-.27-1.074-.03-.364-.03-.81-.03-1.344v-.661c0-.534 0-.98.03-1.344.03-.38.098-.737.27-1.074a2.749 2.749 0 0 1 1.202-1.202c.337-.172.693-.239 1.073-.27.365-.03.81-.03 1.345-.03Zm11.63.001h.03c.535 0 .98 0 1.345.03.38.03.736.097 1.073.27.518.263.939.684 1.202 1.201.172.337.24.694.27 1.074.03.364.03.81.03 1.344v.66c0 .535 0 .98-.03 1.345-.03.38-.098.737-.27 1.074a2.752 2.752 0 0 1-1.201 1.202c-.338.172-.694.239-1.074.27-.365.03-.81.03-1.345.03h-.66c-.535 0-.98 0-1.345-.03-.38-.031-.736-.098-1.073-.27a2.749 2.749 0 0 1-1.202-1.202c-.172-.337-.24-.694-.27-1.074-.03-.364-.03-.81-.03-1.344v-.661c0-.534 0-.98.03-1.344.03-.38.098-.737.27-1.074a2.752 2.752 0 0 1 1.201-1.202c.338-.172.694-.239 1.074-.27.365-.03.81-.03 1.345-.03h.63Zm-11.6-11v-.002h.63c.535 0 .98 0 1.345.03.38.031.736.098 1.073.27.518.264.938.684 1.202 1.202.172.337.24.694.27 1.074.03.365.03.81.03 1.345v.66c0 .534 0 .98-.03 1.344-.03.38-.098.737-.27 1.074a2.749 2.749 0 0 1-1.202 1.202c-.337.172-.693.239-1.073.27-.365.03-.81.03-1.345.03h-.66c-.535 0-.98 0-1.345-.03-.38-.031-.736-.098-1.073-.27A2.749 2.749 0 0 1 2.55 9.247c-.172-.337-.24-.694-.27-1.074-.03-.364-.03-.81-.03-1.345v-.66c0-.534 0-.98.03-1.344.03-.38.098-.737.27-1.074a2.75 2.75 0 0 1 1.202-1.2c.337-.173.693-.24 1.073-.27.365-.03.81-.03 1.345-.03Zm11.63 0v-.002c.535 0 .98 0 1.345.03.38.031.736.098 1.074.27.517.264.938.685 1.201 1.202.172.337.24.694.27 1.074.03.365.03.81.03 1.345v.66c0 .534 0 .98-.03 1.344-.03.38-.098.737-.27 1.074a2.749 2.749 0 0 1-1.202 1.202c-.337.172-.693.239-1.073.27-.365.03-.81.03-1.345.03h-.66c-.535 0-.98 0-1.345-.03-.38-.031-.736-.098-1.074-.27a2.752 2.752 0 0 1-1.201-1.202c-.172-.337-.24-.694-.27-1.074-.03-.364-.03-.81-.03-1.344v-.661c0-.534 0-.98.03-1.344.03-.38.098-.737.27-1.074a2.75 2.75 0 0 1 1.202-1.2c.337-.173.693-.24 1.073-.27.365-.03.81-.03 1.345-.03Zm1.223 1.524h-.001c-.295-.024-.68-.024-1.252-.024h-.6c-.573 0-.957 0-1.253.024-.287.024-.424.066-.515.112-.235.12-.426.311-.546.546-.046.091-.088.228-.111.515-.025.296-.025.68-.025 1.253v.6c-.007.417.002.835.025 1.252.023.287.065.425.111.515.12.235.311.426.546.546.091.046.228.088.516.112.295.024.68.025 1.252.025h.6c.572 0 .957-.001 1.252-.025.288-.024.425-.066.515-.112.235-.12.427-.311.547-.546.046-.091.088-.228.111-.515.025-.296.025-.68.025-1.252v-.6c0-.573-.001-.957-.025-1.253-.023-.287-.065-.425-.111-.515a1.244 1.244 0 0 0-.547-.546c-.09-.046-.227-.088-.514-.112Zm-14.62.112c-.235.12-.427.311-.547.546-.046.091-.088.228-.111.515-.025.296-.025.68-.025 1.253v.6c-.007.417.002.835.025 1.252.023.287.065.425.111.515.12.235.312.426.547.546.09.046.227.088.514.112.296.024.681.025 1.253.025h.6c.573 0 .957-.001 1.253-.025.287-.024.424-.066.514-.112.235-.12.427-.311.547-.546.046-.091.088-.228.111-.515.025-.296.025-.68.025-1.252v-.6c0-.573-.001-.957-.025-1.253-.023-.287-.065-.425-.111-.515a1.244 1.244 0 0 0-.547-.546c-.09-.046-.227-.088-.514-.112-.296-.024-.681-.024-1.253-.024h-.6c-.573 0-.957 0-1.253.024-.287.024-.424.066-.514.112Zm15.134 11c-.09-.046-.227-.088-.515-.112-.295-.024-.68-.024-1.252-.024h-.6c-.572 0-.957 0-1.252.024-.288.024-.425.066-.516.112-.235.12-.426.311-.546.546-.046.09-.088.228-.111.515-.024.296-.025.68-.025 1.253v.6c0 .572 0 .956.025 1.252.023.287.065.424.111.515.12.235.311.426.546.546.091.046.228.088.515.112.296.024.68.024 1.253.024h.6c.572 0 .957 0 1.252-.024.288-.024.425-.066.515-.112.235-.12.427-.311.547-.546.046-.09.088-.228.111-.515.024-.296.025-.68.025-1.253v-.6c0-.572 0-.956-.025-1.252-.023-.287-.065-.424-.111-.515a1.255 1.255 0 0 0-.547-.546Zm-15.134 0c-.235.12-.427.311-.547.546-.046.091-.088.228-.111.515-.025.296-.025.68-.025 1.252v.6c0 .573.001.957.025 1.253.023.287.065.425.111.515.12.235.312.426.547.546.09.046.227.088.514.112.296.024.681.024 1.253.024h.6c.573 0 .957 0 1.253-.024.287-.024.424-.066.514-.112.235-.12.427-.311.547-.546.046-.091.088-.228.111-.515.025-.296.025-.68.025-1.252v-.6c0-.573-.001-.957-.025-1.253-.023-.287-.065-.425-.111-.515a1.244 1.244 0 0 0-.547-.546c-.09-.046-.227-.088-.514-.112-.296-.024-.681-.024-1.253-.024h-.6c-.573 0-.957 0-1.253.024-.287.024-.424.066-.514.112Z"/></svg>