<svg xmlns="http://www.w3.org/2000/svg" viewBox="0 0 24 24"><path fill="#151E28" d="M9.698 2.84a3.75 3.75 0 0 1 4.604 0l6 4.666a3.748 3.748 0 0 1 1.448 2.96V18A3.75 3.75 0 0 1 18 21.75h-2A1.75 1.75 0 0 1 14.25 20v-3a2.25 2.25 0 1 0-4.5 0v3A1.75 1.75 0 0 1 8 21.75H6A3.75 3.75 0 0 1 2.25 18v-7.533c0-1.157.534-2.25 1.448-2.96l6-4.666Zm3.683 1.185a2.249 2.249 0 0 0-2.762 0l-6 4.666a2.25 2.25 0 0 0-.869 1.776V18A2.25 2.25 0 0 0 6 20.25h2a.25.25 0 0 0 .25-.25v-3a3.75 3.75 0 0 1 7.5 0v3c0 .138.112.25.25.25h2A2.25 2.25 0 0 0 20.25 18v-7.533c0-.694-.32-1.35-.869-1.776Z"/></svg>