<svg xmlns="http://www.w3.org/2000/svg" viewBox="0 0 24 24"><path fill="#151E28" d="M12 2.25A9.75 9.75 0 0 1 21.75 12 9.75 9.75 0 0 1 12 21.75 9.75 9.75 0 0 1 2.25 12 9.75 9.75 0 0 1 12 2.25ZM3.75 12a8.25 8.25 0 1 0 16.5 0 8.25 8.25 0 0 0-16.5 0Zm13.9.303h-.001c.286.247.536.622.866 1.117l.064.096.045.068a.75.75 0 1 1-1.248.832l-.046-.067c-.423-.636-.552-.817-.66-.91a1.25 1.25 0 0 0-1.548-.067c-.117.084-.261.252-.738.848l-.4.5-.005.007a2.749 2.749 0 0 1-4.086.226l-.006-.006-.004-.004a1.25 1.25 0 0 0-1.766 0l-.004.004-.583.583a.749.749 0 0 1-1.275-.326.749.749 0 0 1 .215-.734l.583-.583.005-.006a2.75 2.75 0 0 1 3.884 0l.005.006.005.004a1.25 1.25 0 0 0 1.857-.103l.004-.005.4-.5.072-.09c.371-.464.653-.817.959-1.038a2.75 2.75 0 0 1 3.406.148ZM7.25 9.3A2.05 2.05 0 0 1 9.3 7.25h.4a2.05 2.05 0 0 1 2.05 2.05v.4a2.05 2.05 0 0 1-2.05 2.05h-.4A2.05 2.05 0 0 1 7.25 9.7Zm2.05-.55a.55.55 0 0 0-.55.55v.4c0 .304.246.55.55.55h.4a.55.55 0 0 0 .55-.55v-.4a.55.55 0 0 0-.55-.55Z"/></svg>