<svg xmlns="http://www.w3.org/2000/svg" viewBox="0 0 24 24"><path fill="#151E28" d="M16.139 3.25h.01c.752 0 1.342 0 1.854.215.451.19.843.495 1.137.887.334.446.477 1.022.66 1.757l.034.133 1.36 5.442.008.033c.145.58.228.912.285 1.25a8.73 8.73 0 0 1 .104 2.01c-.022.342-.07.681-.155 1.273l-.005.034-.019.132c-.168 1.182-.276 1.938-.565 2.567a4.752 4.752 0 0 1-2.964 2.57c-.663.197-1.427.197-2.62.197H8.736c-1.193 0-1.957 0-2.62-.197a4.752 4.752 0 0 1-2.964-2.57c-.29-.63-.397-1.385-.566-2.567l-.018-.132-.005-.034c-.085-.592-.133-.931-.155-1.273a8.73 8.73 0 0 1 .104-2.01c.056-.338.14-.67.285-1.25l.008-.034 1.36-5.441.033-.133c.183-.735.327-1.31.661-1.757a2.748 2.748 0 0 1 1.136-.887c.515-.216 1.108-.216 1.865-.215h8.279Zm-8.141 1.5c-.963 0-1.223.014-1.42.098a1.248 1.248 0 0 0-.517.403c-.129.172-.206.42-.44 1.355l-1.36 5.441c-.156.623-.223.896-.27 1.17l-.005.033h2.395c.535 0 .955 0 1.348.119.346.105.668.277.947.507.317.26.55.61.846 1.055l.052.078.1.15c.373.56.48.705.603.807.127.104.273.182.43.23.153.046.333.054 1.006.054h.575c.672 0 .853-.008 1.005-.054a1.26 1.26 0 0 0 .43-.23c.124-.101.23-.247.603-.807l.1-.15.052-.078c.296-.445.529-.795.846-1.055.28-.23.601-.402.947-.507.394-.12.814-.12 1.348-.119h2.394l-.005-.034c-.046-.273-.114-.546-.27-1.169l-1.36-5.441c-.233-.934-.31-1.183-.44-1.355a1.248 1.248 0 0 0-.515-.403c-.199-.084-.459-.098-1.422-.098ZM3.906 14.882c.018.276.057.555.148 1.19.194 1.359.276 1.88.462 2.284a3.25 3.25 0 0 0 2.028 1.76c.427.126.954.134 2.327.134h6.257c1.373 0 1.9-.008 2.327-.134a3.251 3.251 0 0 0 2.028-1.759c.186-.405.268-.925.462-2.285.091-.635.13-.914.148-1.19l.007-.132h-2.387c-.673 0-.853.008-1.006.054a1.26 1.26 0 0 0-.43.23c-.123.102-.23.247-.603.807l-.1.15-.052.078c-.296.445-.529.795-.846 1.056a2.753 2.753 0 0 1-.947.506c-.393.119-.813.119-1.348.119h-.762c-.534.001-.954.001-1.348-.119a2.754 2.754 0 0 1-.947-.506c-.317-.261-.55-.611-.846-1.056l-.052-.078-.1-.15c-.373-.56-.479-.706-.603-.807a1.25 1.25 0 0 0-.43-.23c-.152-.046-.333-.054-1.005-.054H3.899l.007.132ZM8 9.25h8a.75.75 0 0 1 0 1.5H8a.75.75 0 0 1 0-1.5Zm2-3h4a.75.75 0 0 1 0 1.5h-4a.75.75 0 0 1 0-1.5Z"/></svg>