<svg xmlns="http://www.w3.org/2000/svg" viewBox="0 0 24 24"><path fill="#151E28" d="M5.17 5.25h13.661c.535 0 .98 0 1.345.03.38.03.736.098 1.074.27a2.75 2.75 0 0 1 1.2 1.202c.172.337.24.693.27 1.073.03.365.03.81.03 1.345v5.66c0 .535 0 .98-.03 1.345-.03.38-.098.736-.27 1.074a2.752 2.752 0 0 1-1.202 1.201c-.337.172-.693.24-1.073.27-.365.03-.81.03-1.345.03H5.17c-.535 0-.98 0-1.345-.03-.38-.03-.736-.098-1.073-.27a2.749 2.749 0 0 1-1.202-1.202c-.172-.337-.24-.693-.27-1.073-.03-.365-.03-.81-.03-1.345V9.17c0-.535 0-.98.03-1.345.03-.38.098-.736.27-1.073A2.749 2.749 0 0 1 2.752 5.55c.337-.172.693-.24 1.073-.27.365-.03.81-.03 1.345-.03ZM3.433 6.886c-.236.12-.427.311-.547.547-.046.09-.088.227-.111.514-.025.296-.025.681-.025 1.253v5.6c0 .572.001.957.025 1.252.023.288.065.425.111.515.12.236.311.427.547.547.09.046.227.088.514.111.296.025.681.025 1.253.025h13.6c.572 0 .957-.001 1.252-.025.288-.023.425-.065.515-.111.236-.12.427-.311.547-.547.046-.09.088-.227.111-.515.025-.295.025-.68.025-1.252V9.2c0-.573-.001-.957-.025-1.253-.023-.287-.065-.424-.111-.514a1.247 1.247 0 0 0-.547-.547c-.09-.046-.227-.088-.515-.111-.295-.025-.68-.025-1.252-.025H5.2c-.573 0-.957.001-1.253.025-.287.023-.424.065-.514.111ZM9.25 14a.75.75 0 0 1 .75-.75h4a.75.75 0 0 1 0 1.5h-4a.75.75 0 0 1-.75-.75ZM15 10a1 1 0 1 1-2 0 1 1 0 0 1 2 0Zm-5 1a1 1 0 1 1 0-2 1 1 0 0 1 0 2Zm-4 0a1 1 0 1 1 0-2 1 1 0 0 1 0 2Zm0 4a1 1 0 1 1 0-2 1 1 0 0 1 0 2Zm12-4a1 1 0 1 1 0-2 1 1 0 0 1 0 2Zm1 3a1 1 0 1 1-2 0 1 1 0 0 1 2 0Z"/></svg>