<svg xmlns="http://www.w3.org/2000/svg" viewBox="0 0 24 24"><path fill="#151E28" d="m3.694 16.068-.002-.002c-1.376-1.376-1.837-3.326-1.556-5.293.281-1.967 1.304-4.002 2.97-5.667 1.666-1.666 3.7-2.689 5.667-2.97 1.967-.28 3.917.18 5.293 1.555l2.828 2.829a8.749 8.749 0 0 1-3.896 14.692 8.749 8.749 0 0 1-8.478-2.318Zm1.058-1.063.001.001c.968.967 2.405 1.36 4.02 1.13 1.616-.231 3.36-1.087 4.818-2.545 1.459-1.459 2.315-3.202 2.545-4.819.231-1.615-.163-3.053-1.131-4.02-.967-.967-2.404-1.361-4.02-1.131-1.616.231-3.36 1.087-4.818 2.545-1.459 1.459-2.315 3.203-2.545 4.819-.232 1.615.163 3.053 1.13 4.02Zm2.68 2.68.149.149a7.25 7.25 0 0 0 10.253-.001 7.249 7.249 0 0 0 0-10.253l-.149-.148c.033.51.01 1.03-.064 1.553-.28 1.967-1.303 4-2.97 5.667-1.665 1.665-3.7 2.688-5.666 2.969a7.541 7.541 0 0 1-1.553.064ZM6.874 6.873a.75.75 0 0 1 1.06 0l.707.707a.75.75 0 0 1-1.06 1.061l-.707-.707a.75.75 0 0 1 0-1.06Zm6.717.353v.001l-.707.707a.75.75 0 1 1-1.061-1.061l.708-.707a.751.751 0 0 1 1.042.018.751.751 0 0 1 .018 1.042Zm-2.475 3.89a.75.75 0 0 1 1.06 0l.708.707a.751.751 0 0 1-.018 1.042.751.751 0 0 1-1.042.018l-.708-.706a.75.75 0 0 1 0-1.061Zm-3.182 1.768-.707.706a.751.751 0 0 1-1.042-.018.751.751 0 0 1-.018-1.042l.707-.706a.751.751 0 0 1 1.042.018.751.751 0 0 1 .018 1.042Z"/></svg>