<svg xmlns="http://www.w3.org/2000/svg" viewBox="0 0 24 24"><path fill="#151E28" d="m19.51 3.04.001.001c.729-.122.74-.123.74-.122v.003l.001.008.004.025c.019.133.034.266.046.4.024.269.047.656.047 1.144 0 .975-.093 2.356-.46 4.008-.735 3.308-2.567 7.682-6.92 12.035a.75.75 0 0 1-1.06 0l-.012-.013-.013-.012-.012-.013-.013-.012-.012-.013-.013-.012-.013-.013-.012-.013-.013-.012-.012-.013-.013-.012-.012-.013-.013-.012-.013-.013-.012-.013-.013-.012-.013-.013-.012-.013-.013-.012-.013-.013-.012-.013-.013-.013-.013-.012-.013-.013-.012-.013-.013-.013-.013-.013-.013-.012-.013-.013-.013-.013-.012-.013-.013-.013-.013-.013-.013-.013-.013-.012-.013-.013-.013-.013-.013-.013-.013-.013-.012-.013-.014-.013-.012-.013-.013-.013-.013-.013-.013-.013-.013-.013-.013-.013-.013-.013-.013-.013-.013-.013-.013-.013-.014-.013-.013-.013-.013-.013-.013-.013-.013-.013-.013-.013-.013-.013-.013-.014-.013-.013-.013-.013-.013-.013-.014-.013-.013-.013-.013-.013-.013-.014-.013-.013-.013-.013-.014-.013-.013-.013-.013-.013-.013-.014-.013-.013-.014-.013-.013-.013-.013-.013-.013-.014-.013-.013-.013-.013-.014-.013-.013-.013-.013-.014-.013-.013-.014-.013-.013-.013-.013-.014-.013-.013-.014-.013-.013-.013-.013-.013-.013-.014-.014-.013-.013-.013-.013-.013-.013-.014-.014-.013-.013-.013-.013-.014-.013-.013-.014-.013-.013-.013-.013-.014-.013-.013-.014-.013-.013-.013-.013-.014-.013-.013-.014-.013-.013-.013-.013-.014-.013-.013-.014-.013-.013-.013-.013-.014-.013-.013-.014-.013-.013-.013-.013-.014-.013-.013-.014-.013-.013-.013-.013-.014-.013-.013-.013-.013-.014-.013-.013-.013-.013-.014-.013-.013-.014-.013-.013-.013-.013-.013-.013-.014-.013-.013-.014-.013-.013-.013-.013-.013-.013-.013-.013-.014-.013-.013-.013-.013-.014-.013-.013-.013-.013-.013-.013-.013-.013-.014-.013-.013-.013-.013-.013-.013-.014-.013-.013-.013-.013-.013-.013-.013-.013-.013-.013-.013-.013-.013-.013-.013-.013-.014-.013-.012-.013-.014-.013-.012-.013-.014-.013-.012-.013-.014-.013-.012-.013-.013-.013-.013-.013-.013-.026-.026-.013-.013-.012-.013-.013-.013-.013-.013-.013-.013-.013-.012-.013-.013-.003-.004-3.359 3.359A2.25 2.25 0 1 1 3.07 18.42l3.88-3.882.009-.008 12.02-12.021a.751.751 0 0 1 1.271.407ZM8.55 15.063l.001-.001.008.008.007.007.007.008.008.007.008.008.007.007.008.008.007.008.008.007.016.016.007.008.008.007.008.008.008.008.008.008.008.008.008.008.008.009.009.008.008.008.008.008.008.009.009.008.008.008.008.009.009.008.008.009.009.008.008.009.008.008.01.009.008.008.008.009.01.008.008.01.009.008.009.009.009.009.009.009.008.009.01.009.008.009.01.009.009.009.009.009.009.01.01.008.008.01.01.009.01.009.008.01.01.01.009.008.019.019.01.01.009.01.01.009.039.039.01.01.01.01.02.02.01.01.01.01.02.02.01.01.01.01.01.01.01.01.01.01.01.01.011.011.01.01.01.01.01.011.011.01.01.01.01.011.011.01.01.011.011.01.01.011.01.01.012.011.01.01.011.01.01.012.011.01.01.011.012.01.01.012.011.01.011.011.011.011.01.011.012.011.01.01.012.012.01.01.012.012.01.01.012.012.01.011.012.011.011.011.011.012.012.01.01.012.012.011.011.012.012.01.01.012.012.012.011.01.012.012.011.011.012.012.011.011.012.012.011.011.012.012.011.011.012.012.011.012.012.011.012.012.011.012.012.011.012.012.012.012.011.012.012.011.012.012.012.012.012.012.011.012.012.012.012.011.012.012.012.012.012.012.012.012.012.012.012.012.012.013.012.012.012.012.013.012.012.012.012.012.012.012.012.013.012.012.013.012.012.012.012.012.013.013.012.012.012.012.013.013.012.012.012.012.013.013.012.012.012.013.013.012.012.012.013.013.012.012.013.013.012.012.013.013.012.013.013.012.012.013.013.012.013.013.012.013.013.012.013.013.012.012.013.013.038.038.013.013.012.013.013.012.013.013.013.013.013.013.012.013.013.012.013.013.013.013.013.013.013.013.012.013.013.012.013.013.013.013.013.013.013.013.013.013.013.013.013.013.013.013.013.013.013.013.013.013.013.013.013.013.013.013.013.013.013.013.013.013.013.013.013.013.013.013.013.013.013.013.013.013.013.013.013.014.013.013.014.013.013.013.013.013.013.013.013.013.013.013.013.014.014.013.013.013.013.013.013.013.027.027.013.013.013.013.013.013.013.013.013.014.014.013.013.013.013.013.013.014.014.013.013.013.013.013.013.013.013.014.014.013.013.013.013.013.013.014.014.013.013.013.013.013.027.027.013.013.013.013.013.014.014.013.013.013.013.013.014.014.013.013.013.013.04.04.013.013.013.013.014.014.013.013.013.013.013.013.014.014.013.013.013.013.013.014.014.013.013.013.013.013.013.013.013.014.014.013.013.013.013.013.013.014.014.013.013.013.013.013.013.013.013.014.013.013.014.013.013.013.013.013.013.013.013.014.014.013.013.013.013.013.013.013.013.013.013.014.013.013.013.013.014.013.013.013.013.013.013.013.013.013.013.013.013.013.013.013.013.013.013.013.013.013.013.014.013.012.013.014.013.012.024.024c3.755-3.95 5.342-7.84 5.992-10.763.253-1.122.394-2.266.421-3.416L8.548 15.06ZM4.13 19.48a.75.75 0 0 0 1.06 1.061l3.359-3.36-1.061-1.06Z"/></svg>