<svg xmlns="http://www.w3.org/2000/svg" viewBox="0 0 24 24"><path fill="#151E28" d="M9.367 2.25h5.266c1.092 0 1.958 0 2.655.057.714.058 1.317.18 1.869.46a4.744 4.744 0 0 1 2.076 2.076c.28.551.402 1.155.46 1.868.05.615.056 1.36.057 2.277v5.645c0 1.092 0 1.957-.057 2.655-.058.713-.18 1.317-.46 1.868a4.744 4.744 0 0 1-2.076 2.076c-.552.28-1.155.402-1.869.46-.61.05-1.35.057-2.258.057a.58.58 0 0 1-.059 0H9.367c-1.092 0-1.957 0-2.655-.056-.713-.059-1.317-.18-1.868-.461a4.744 4.744 0 0 1-2.076-2.076c-.28-.551-.402-1.155-.46-1.868-.058-.698-.058-1.563-.058-2.655V8.987c.001-.916.007-1.662.057-2.277.059-.713.18-1.317.461-1.868a4.744 4.744 0 0 1 2.076-2.076c.551-.28 1.155-.402 1.868-.46.686-.057 1.534-.057 2.6-.057h.055ZM3.75 9.75v4.85c0 1.132 0 1.936.052 2.566.051.62.147 1.005.302 1.309a3.258 3.258 0 0 0 1.42 1.42c.305.155.69.252 1.31.303.63.05 1.434.052 2.566.052h4.85V9.75Zm.003-1.5h16.495a20.04 20.04 0 0 0-.05-1.416c-.05-.621-.147-1.005-.302-1.31a3.258 3.258 0 0 0-1.42-1.42c-.305-.155-.689-.252-1.31-.302-.629-.052-1.433-.052-2.566-.052H9.4c-1.132 0-1.936 0-2.566.052-.62.05-1.005.147-1.31.302a3.258 3.258 0 0 0-1.42 1.42c-.155.305-.251.689-.301 1.309-.033.392-.045.852-.05 1.417Zm11.997 1.5v10.497c.472 0 .945-.017 1.416-.05.621-.05 1.005-.147 1.31-.302a3.258 3.258 0 0 0 1.42-1.42c.155-.305.252-.689.302-1.31.052-.629.052-1.433.052-2.565V9.75Z"/></svg>