<svg xmlns="http://www.w3.org/2000/svg" viewBox="0 0 24 24"><path fill="#151E28" d="M14.633 2.25h.054c1.066 0 1.915 0 2.6.057.714.058 1.317.18 1.869.46a4.744 4.744 0 0 1 2.076 2.076c.28.551.402 1.155.46 1.868.05.615.057 1.361.057 2.277v6.024c-.001.916-.007 1.661-.057 2.276-.058.713-.18 1.317-.461 1.868a4.752 4.752 0 0 1-2.075 2.076c-.552.281-1.155.402-1.869.461-.611.049-1.35.056-2.257.056a.6.6 0 0 1-.06 0H9.03a.6.6 0 0 1-.06 0c-.908 0-1.648-.007-2.258-.057-.714-.058-1.318-.18-1.868-.46a4.752 4.752 0 0 1-2.077-2.076c-.28-.551-.402-1.155-.46-1.868-.05-.615-.057-1.36-.057-2.276V8.988c.001-.917.007-1.662.057-2.277.058-.713.18-1.317.461-1.868a4.744 4.744 0 0 1 2.076-2.076c.551-.28 1.154-.402 1.868-.46.697-.057 1.563-.057 2.655-.057Zm-.383 6v-4.5h-4.5v4.5Zm-10.5 1.5v4.5h4.5v-4.5Zm6 0v4.5h4.5v-4.5Zm6 0v4.5h4.5v-4.5Zm-6 10.5h4.5v-4.5h-4.5Zm-1.5-12V3.752c-.565.005-1.024.018-1.416.05-.62.05-1.005.147-1.31.302a3.258 3.258 0 0 0-1.42 1.42c-.155.305-.251.689-.302 1.31-.033.471-.05.944-.05 1.416Zm11.997 0c0-.473-.016-.945-.049-1.417-.05-.62-.147-1.004-.302-1.309a3.258 3.258 0 0 0-1.42-1.42c-.305-.155-.69-.252-1.31-.302-.471-.033-.944-.05-1.416-.05V8.25ZM15.75 20.247c.472 0 .945-.016 1.416-.049.62-.051 1.005-.148 1.31-.303a3.258 3.258 0 0 0 1.42-1.42c.155-.304.252-.689.302-1.309.033-.471.049-.944.049-1.416H15.75ZM3.802 17.166v-.001c.051.621.147 1.005.302 1.31a3.258 3.258 0 0 0 1.42 1.42c.305.155.69.252 1.31.302.471.033.944.05 1.416.05V15.75H3.752c0 .472.017.945.05 1.416Z"/></svg>