<svg xmlns="http://www.w3.org/2000/svg" viewBox="0 0 24 24"><path fill="#151E28" d="M9.367 2.25h5.321c1.066 0 1.915 0 2.6.057.714.058 1.317.18 1.869.46a4.744 4.744 0 0 1 2.076 2.076c.28.551.402 1.155.46 1.868.05.615.057 1.361.057 2.277v6.024c-.001.916-.007 1.661-.057 2.276-.058.713-.18 1.317-.461 1.868a4.752 4.752 0 0 1-2.075 2.076c-.552.28-1.155.402-1.869.46-.697.058-1.563.058-2.655.058h-2.606a.486.486 0 0 1-.054 0H9.367c-1.092 0-1.958 0-2.655-.058-.714-.058-1.318-.18-1.868-.46a4.752 4.752 0 0 1-2.077-2.076c-.28-.551-.402-1.155-.46-1.868-.05-.615-.057-1.36-.057-2.276V8.988c.001-.917.007-1.662.057-2.277.058-.713.18-1.317.461-1.868a4.744 4.744 0 0 1 2.076-2.076c.551-.28 1.154-.402 1.868-.46.697-.057 1.563-.057 2.655-.057Zm10.88 6c0-.473-.016-.945-.049-1.417-.05-.62-.147-1.004-.302-1.309a3.258 3.258 0 0 0-1.42-1.42c-.305-.155-.69-.252-1.31-.302-.63-.052-1.434-.052-2.566-.052H9.4c-1.132 0-1.937 0-2.566.052-.62.05-1.005.147-1.31.302a3.258 3.258 0 0 0-1.42 1.42c-.155.305-.251.689-.302 1.31-.032.391-.044.851-.049 1.416Zm-8.997 1.5h-7.5v4.5h7.5Zm1.5 0v4.5h7.5v-4.5Zm-8.948 7.416v-.001c.051.621.147 1.005.302 1.31a3.258 3.258 0 0 0 1.42 1.42c.305.155.69.252 1.31.303.629.051 1.434.052 2.566.052h1.85v-4.5H3.753c0 .472.016.945.049 1.416Zm8.948 3.084h1.85c1.132 0 1.936-.002 2.566-.052.62-.051 1.005-.148 1.31-.303a3.258 3.258 0 0 0 1.42-1.42c.155-.304.252-.689.302-1.309.033-.471.049-.944.049-1.416H12.75Z"/></svg>