<svg xmlns="http://www.w3.org/2000/svg" viewBox="0 0 24 24"><path fill="#151E28" d="M14.633 2.25c1.092 0 1.958 0 2.655.057.714.058 1.317.18 1.869.46a4.752 4.752 0 0 1 2.075 2.076c.281.551.403 1.155.461 1.868.057.698.057 1.563.057 2.656v5.266c0 1.092 0 1.957-.057 2.655-.058.713-.18 1.317-.46 1.868a4.744 4.744 0 0 1-2.076 2.076c-.552.28-1.155.402-1.869.46-.697.058-1.563.058-2.655.058H9.029a.6.6 0 0 1-.06 0c-.907-.001-1.646-.008-2.257-.058-.714-.058-1.317-.18-1.868-.46a4.744 4.744 0 0 1-2.076-2.076c-.281-.551-.403-1.155-.461-1.868-.057-.698-.057-1.563-.057-2.655V9.366c0-1.092 0-1.957.057-2.655.058-.713.18-1.317.46-1.868a4.752 4.752 0 0 1 2.077-2.076c.55-.28 1.154-.402 1.868-.46.685-.057 1.534-.057 2.6-.057h5.321Zm-4.883 18h4.85c1.133 0 1.937-.001 2.566-.052.62-.051 1.005-.148 1.31-.303a3.258 3.258 0 0 0 1.42-1.42c.155-.305.251-.689.302-1.31.051-.629.052-1.433.052-2.565V9.4c0-1.133 0-1.937-.052-2.567-.05-.62-.147-1.004-.302-1.309a3.258 3.258 0 0 0-1.42-1.42c-.305-.155-.69-.252-1.31-.302-.63-.052-1.434-.052-2.566-.052H9.75ZM8.25 3.752c-.565.005-1.024.017-1.416.05-.62.05-1.005.147-1.31.302a3.258 3.258 0 0 0-1.42 1.42c-.155.305-.252.689-.302 1.309-.052.63-.052 1.434-.052 2.567v5.2c0 1.132.001 1.936.052 2.565.051.621.147 1.005.302 1.31a3.258 3.258 0 0 0 1.42 1.42c.305.155.69.252 1.31.302.471.033.944.05 1.416.05Z"/></svg>