<svg xmlns="http://www.w3.org/2000/svg" viewBox="0 0 24 24"><path fill="#151E28" d="M9.367 2.25h5.32c1.066 0 1.915 0 2.6.057.714.058 1.317.18 1.869.46a4.744 4.744 0 0 1 2.076 2.076c.28.551.402 1.155.46 1.868.057.698.057 1.563.057 2.655v5.267c0 1.092 0 1.957-.057 2.655-.058.713-.18 1.317-.461 1.868a4.752 4.752 0 0 1-2.075 2.076c-.552.281-1.155.402-1.869.461-.611.049-1.35.056-2.257.056a.6.6 0 0 1-.06 0H9.03a.6.6 0 0 1-.06 0c-.908 0-1.648-.007-2.258-.057-.714-.058-1.318-.18-1.868-.46a4.752 4.752 0 0 1-2.077-2.076c-.28-.551-.402-1.155-.46-1.868-.057-.698-.057-1.563-.057-2.655V9.367c0-1.093 0-1.958.057-2.656.058-.713.18-1.317.461-1.868a4.744 4.744 0 0 1 2.076-2.076c.551-.28 1.154-.402 1.868-.46.697-.057 1.563-.057 2.655-.057Zm.383 9h4.5v-7.5h-4.5Zm0 9h4.5v-7.5h-4.5ZM8.25 3.752c-.565.005-1.024.017-1.416.05-.62.05-1.005.147-1.31.302a3.258 3.258 0 0 0-1.42 1.42c-.155.305-.252.689-.302 1.309-.052.63-.052 1.434-.052 2.567v1.85h4.5Zm12 7.498V9.4c0-1.133-.001-1.937-.052-2.566-.051-.621-.147-1.005-.302-1.31a3.258 3.258 0 0 0-1.42-1.42c-.305-.155-.69-.252-1.31-.302a20.086 20.086 0 0 0-1.416-.05v7.498Zm-3.084 8.948c.62-.051 1.005-.148 1.31-.303a3.258 3.258 0 0 0 1.42-1.42c.155-.304.252-.689.302-1.309.052-.63.052-1.434.052-2.566v-1.85h-4.5v7.497c.472 0 .945-.016 1.416-.049ZM8.25 12.75h-4.5v1.85c0 1.132.001 1.936.052 2.565.051.621.147 1.005.302 1.31a3.258 3.258 0 0 0 1.42 1.42c.305.155.69.252 1.31.302.471.033.944.05 1.416.05Z"/></svg>