<svg xmlns="http://www.w3.org/2000/svg" viewBox="0 0 24 24"><path fill="#151E28" d="M20.732 6.372h.001c-1.313-.377-3.776-1.013-6.331-1.305-1.277-.146-2.558-.204-3.718-.108-1.169.096-2.165.346-2.91.776-1.483.856-2.397 1.816-2.896 2.798-.497.976-.613 2.034-.403 3.146A.75.75 0 0 1 3 11.957c-.263-1.397-.125-2.797.539-4.103C4.2 6.553 5.353 5.4 7.023 4.436c1.01-.583 2.251-.865 3.535-.972 1.292-.107 2.677-.04 4.014.113 2.673.306 5.225.966 6.574 1.354a1.677 1.677 0 0 1 1.096 2.261c-.491 1.188-1.432 3.305-2.695 5.385-1.249 2.056-2.876 4.187-4.774 5.283-1.67.964-3.245 1.386-4.702 1.308-1.463-.079-2.745-.659-3.823-1.585a.75.75 0 0 1 .978-1.138c.859.738 1.832 1.166 2.926 1.225 1.101.059 2.388-.253 3.871-1.109 1.554-.898 3.019-2.749 4.242-4.762 1.207-1.989 2.115-4.027 2.59-5.179a.177.177 0 0 0-.001-.15.185.185 0 0 0-.122-.098Zm-5.495 2.34-.001-.002-4.127 1.377c-1.154.384-2.23.97-3.18 1.73A8.468 8.468 0 0 0 4.75 18.43V21a.75.75 0 0 1-1.5 0v-2.57a9.97 9.97 0 0 1 3.743-7.783 11.83 11.83 0 0 1 3.642-1.982l4.127-1.376a.75.75 0 0 1 .475 1.423Z"/></svg>