<svg xmlns="http://www.w3.org/2000/svg" viewBox="0 0 24 24"><path fill="#151E28" d="M15.131 8.077c.476.132.898.354 1.24.696.341.341.563.764.696 1.24.162.585-.055 1.109-.165 1.374l-.011.027c-.06.147-.09.222-.107.279 1.059 2.636.285 5.927-2.031 8.243-2.316 2.317-5.607 3.09-8.244 2.031a2.85 2.85 0 0 0-.278.108l-.028.01h-.001c-.265.111-.789.328-1.373.165-.475-.133-.898-.354-1.24-.696-.341-.341-.563-.764-.695-1.24-.163-.584.054-1.109.164-1.374l.011-.027c.04-.091.076-.184.107-.279-1.059-2.636-.285-5.927 2.031-8.244 2.316-2.316 5.607-3.09 8.244-2.03.094-.031.187-.067.278-.107l.028-.012c.265-.11.789-.327 1.374-.164Zm.179 1.757c-.125-.126-.305-.235-.581-.312-.041-.011-.114-.012-.428.117l-.035.015c-.122.05-.303.126-.485.17a1.335 1.335 0 0 1-.835-.05c-2.007-.835-4.705-.296-6.678 1.677-1.973 1.973-2.513 4.672-1.678 6.678.133.319.102.62.05.835a3.319 3.319 0 0 1-.17.485l-.014.035c-.13.314-.129.387-.117.428.077.277.186.456.31.582.126.125.306.234.582.31.041.012.114.013.428-.116l.035-.015c.122-.05.303-.126.485-.17.215-.051.517-.082.835.05 2.007.835 4.705.296 6.678-1.677 1.973-1.973 2.513-4.672 1.678-6.678a1.335 1.335 0 0 1-.05-.835c.044-.182.12-.364.17-.485l.014-.035c.13-.314.129-.387.117-.428-.077-.277-.186-.456-.31-.582Zm-.507-8.11a.748.748 0 0 1 1.03-.396c.69.34 1.183.977 1.489 1.625.308.653.47 1.409.426 2.095a.75.75 0 0 1-1.497-.096c.026-.403-.072-.906-.286-1.359a2.647 2.647 0 0 0-.231-.4c-.06.095-.119.184-.175.268l-.188.27c-.119.17-.204.29-.279.431-.09.157-.136.335-.135.516 0 .221.054.548.246 1.059a.75.75 0 0 1-1.405.526c-.227-.606-.342-1.122-.34-1.59.001-.487.128-.875.31-1.216.121-.228.285-.46.425-.66l.125-.18c.195-.278.358-.578.485-.893Zm5.607 3.01a.75.75 0 0 1 0 1.06L17.674 8.53a.751.751 0 0 1-1.042-.018.751.751 0 0 1-.018-1.042l2.736-2.736a.75.75 0 0 1 1.06 0Z"/></svg>