<svg xmlns="http://www.w3.org/2000/svg" viewBox="0 0 24 24"><path fill="#151E28" d="M5 16.25a2.75 2.75 0 1 1 0 5.5 2.75 2.75 0 0 1 0-5.5Zm0-14a2.75 2.75 0 1 1 0 5.5 2.75 2.75 0 0 1 0-5.5ZM2.25 12a2.75 2.75 0 1 1 5.5 0 2.75 2.75 0 0 1-5.5 0Zm19.5-7a.75.75 0 0 1-.75.75H11a.75.75 0 0 1 0-1.5h10a.75.75 0 0 1 .75.75ZM21 18.25a.75.75 0 0 1 0 1.5H11a.75.75 0 0 1 0-1.5Zm0-7a.75.75 0 0 1 0 1.5H11a.75.75 0 0 1 0-1.5Zm-16-.5a1.25 1.25 0 1 0 0 2.5 1.25 1.25 0 0 0 0-2.5ZM3.75 5a1.25 1.25 0 1 0 2.5 0 1.25 1.25 0 0 0-2.5 0Zm0 14a1.25 1.25 0 1 0 2.5 0 1.25 1.25 0 0 0-2.5 0Z"/></svg>