<svg xmlns="http://www.w3.org/2000/svg" viewBox="0 0 24 24"><path fill="#151E28" d="M11.198 3.137a1.753 1.753 0 0 1 1.604 0c.396.204.626.59.79.913.172.34.356.8.576 1.352l.014.033 4.696 11.74.013.034c.265.662.482 1.203.611 1.625.118.382.24.88.063 1.333a1.752 1.752 0 0 1-1.292 1.08c-.476.094-.945-.115-1.3-.298-.392-.202-.887-.511-1.492-.889l-.03-.02-2.152-1.344c-.662-.414-.845-.517-1.022-.557a1.234 1.234 0 0 0-.554 0c-.177.04-.36.143-1.022.557L8.55 20.04l-.03.019c-.605.378-1.1.687-1.491.889-.356.183-.825.392-1.301.298a1.752 1.752 0 0 1-1.292-1.08c-.177-.452-.055-.95.063-1.333.13-.422.346-.963.61-1.625l.014-.034 4.696-11.74.014-.033c.22-.552.404-1.012.576-1.352.164-.323.395-.71.79-.913Zm.71 1.323a1.472 1.472 0 0 0-.161.266c-.139.275-.299.673-.536 1.266l-4.696 11.74c-.282.704-.474 1.187-.583 1.542-.074.24-.083.348-.086.376a.25.25 0 0 0 .14.117c.027-.008.13-.036.355-.151.33-.17.77-.445 1.413-.847l2.152-1.345.093-.058c.524-.328.935-.586 1.392-.69a2.751 2.751 0 0 1 1.218 0c.457.104.868.362 1.392.69l.093.058 2.152 1.345c.642.402 1.084.677 1.413.847.225.115.328.143.356.15.06-.02.11-.061.14-.116-.004-.028-.013-.135-.087-.376-.109-.355-.301-.838-.583-1.542L12.79 5.992c-.237-.593-.397-.99-.536-1.266a1.467 1.467 0 0 0-.16-.266.247.247 0 0 0-.185 0Z"/></svg>