<svg xmlns="http://www.w3.org/2000/svg" viewBox="0 0 24 24"><path fill="#151E28" d="M7.25 6a4.75 4.75 0 0 1 9.5 0v2.387a6.747 6.747 0 0 1 2.942 4.732c.058.439.058.949.058 1.811v.14c0 .862 0 1.372-.058 1.812a6.75 6.75 0 0 1-5.811 5.81c-.439.058-.949.058-1.811.058h-.141c-.861 0-1.37 0-1.81-.058a6.75 6.75 0 0 1-5.811-5.811c-.058-.439-.058-.949-.058-1.811v-.141c0-.861 0-1.37.058-1.81A6.747 6.747 0 0 1 7.25 8.387ZM12 8.75c-.953 0-1.356.002-1.685.045a5.25 5.25 0 0 0-4.52 4.52c-.043.329-.045.732-.045 1.685 0 .953.002 1.356.045 1.685a5.25 5.25 0 0 0 4.52 4.52c.329.043.732.045 1.685.045.953 0 1.356-.002 1.685-.045a5.25 5.25 0 0 0 4.52-4.52c.043-.329.045-.732.045-1.685 0-.953-.002-1.356-.045-1.685a5.25 5.25 0 0 0-4.52-4.52c-.329-.043-.732-.045-1.685-.045Zm0-6A3.25 3.25 0 0 0 8.75 6v1.635a6.79 6.79 0 0 1 1.369-.327c.44-.058.949-.058 1.81-.058h.141c.862 0 1.372 0 1.811.058.474.062.932.173 1.369.327V6A3.25 3.25 0 0 0 12 2.75Zm-.2 9.5h.4a2.55 2.55 0 0 1 2.55 2.55v.4a2.55 2.55 0 0 1-2.55 2.55h-.4a2.55 2.55 0 0 1-2.55-2.55v-.4a2.55 2.55 0 0 1 2.55-2.55Zm-1.05 2.55v.4c0 .58.47 1.05 1.05 1.05h.4c.58 0 1.05-.47 1.05-1.05v-.4c0-.58-.47-1.05-1.05-1.05h-.4c-.58 0-1.05.47-1.05 1.05Z"/></svg>