<svg xmlns="http://www.w3.org/2000/svg" viewBox="0 0 24 24"><path fill="#151E28" d="M11.93 2.25h.14c.862 0 1.372 0 1.812.058a6.75 6.75 0 0 1 5.81 5.811c.058.439.058.949.058 1.811v4.14c0 .862 0 1.372-.058 1.812a6.75 6.75 0 0 1-5.811 5.81c-.439.058-.949.058-1.811.058h-.14c-.862 0-1.372 0-1.812-.058a6.75 6.75 0 0 1-5.81-5.811c-.058-.439-.058-.949-.058-1.811V9.929c0-.861 0-1.37.058-1.81a6.75 6.75 0 0 1 5.811-5.811c.439-.058.949-.058 1.811-.058Zm-1.615 1.545a5.25 5.25 0 0 0-4.52 4.52c-.043.329-.045.732-.045 1.685v4c0 .953.002 1.356.045 1.685a5.25 5.25 0 0 0 4.52 4.52c.329.043.732.045 1.685.045.953 0 1.356-.002 1.685-.045a5.25 5.25 0 0 0 4.52-4.52c.043-.329.045-.732.045-1.685v-4c0-.953-.002-1.356-.045-1.685a5.25 5.25 0 0 0-4.52-4.52c-.329-.043-.732-.045-1.685-.045-.953 0-1.356.002-1.685.045ZM12.75 7v3a.75.75 0 0 1-1.5 0V7a.75.75 0 0 1 1.5 0Z"/></svg>