<svg xmlns="http://www.w3.org/2000/svg" viewBox="0 0 24 24"><path fill="#151E28" d="M19.67 1.108 21.75 6v10a3.751 3.751 0 1 1-1.5-3V7.041l-10.5 3.5V19a3.751 3.751 0 1 1-1.5-3V7.18c-.001-.705-.001-1.257.191-1.745.168-.428.442-.808.795-1.103.402-.337.926-.511 1.595-.733l.12-.04 5.6-1.867.034-.011c.682-.227 1.241-.413 1.701-.523.471-.11.929-.165 1.384-.05Zm-2.645 2.007-5.6 1.868c-.847.282-1.072.37-1.227.5a1.235 1.235 0 0 0-.361.501c-.074.188-.087.429-.087 1.322v1.653l10.5-3.5v-.02c0-.763-.001-1.285-.036-1.68-.035-.391-.099-.56-.16-.657a1.256 1.256 0 0 0-.75-.54c-.11-.027-.291-.034-.673.056-.386.092-.881.256-1.606.497ZM18 13.75a2.25 2.25 0 1 0 0 4.5 2.25 2.25 0 0 0 0-4.5Zm-12 3a2.25 2.25 0 1 0 0 4.5 2.25 2.25 0 0 0 0-4.5ZM21.75 5.998l-2.08-4.89a2.75 2.75 0 0 1 1.648 1.188c.253.396.347.848.39 1.328.042.47.042 1.06.042 1.78Z"/></svg>