<svg xmlns="http://www.w3.org/2000/svg" viewBox="0 0 24 24"><path fill="#151E28" d="M19.721 4.63h-.001c.03.202.03.454.03.789v.095c0 .161 0 .286-.011.406a2.75 2.75 0 0 1-1.44 2.186 5.582 5.582 0 0 1-.37.17l-.026.01-5.153 2.209V19a3.751 3.751 0 1 1-1.5-3V5.001c0-.3.179-.572.455-.69l3.796-1.627.062-.027c.306-.132.539-.231.736-.283a2.75 2.75 0 0 1 3.422 2.256Zm-3.04-.805h.001c-.075.019-.194.067-.59.237L12.75 5.495v3.368l4.562-1.955c.094-.038.187-.08.278-.125a1.25 1.25 0 0 0 .655-.993c.005-.047.005-.102.005-.305 0-.431-.002-.559-.014-.635a1.251 1.251 0 0 0-1.555-1.025ZM9 16.75a2.25 2.25 0 1 0 0 4.5 2.25 2.25 0 0 0 0-4.5Z"/></svg>