<svg xmlns="http://www.w3.org/2000/svg" viewBox="0 0 24 24"><path fill="#151E28" d="M9.768 2.25h4.464c.813 0 1.469 0 2 .043.546.045 1.026.14 1.47.366.706.359 1.28.933 1.64 1.639.226.444.32.924.365 1.47.043.531.043 1.187.043 2v8.464c0 .813 0 1.469-.043 2-.045.546-.14 1.026-.366 1.47a3.752 3.752 0 0 1-1.638 1.64c-.445.226-.925.32-1.471.365-.531.043-1.187.043-2 .043H9.768c-.813 0-1.468 0-2-.043-.546-.045-1.026-.14-1.47-.366a3.749 3.749 0 0 1-1.64-1.639c-.225-.444-.32-.924-.364-1.47a19.803 19.803 0 0 1-.043-1.482H3a.75.75 0 0 1 0-1.5h1.25v-2.5H3a.75.75 0 0 1 0-1.5h1.25v-2.5H3a.75.75 0 0 1 0-1.5h1.25c.002-.58.01-1.068.044-1.481.044-.547.139-1.027.365-1.471a3.749 3.749 0 0 1 1.639-1.64c.444-.226.924-.32 1.47-.365.532-.043 1.187-.043 2-.043Zm3.482 1.5H9.8c-.853 0-1.448.001-1.91.038-.454.037-.715.107-.912.207a2.25 2.25 0 0 0-.984.984c-.1.197-.169.458-.206.911-.03.357-.037.79-.038 1.36H7a.75.75 0 0 1 0 1.5H5.75v2.5H7a.75.75 0 0 1 0 1.5H5.75v2.5H7a.75.75 0 0 1 0 1.5H5.751c-.004.453.008.907.038 1.359.036.454.106.715.206.913.216.423.56.767.984.983.197.1.458.169.911.207.463.038 1.058.038 1.91.038h3.45Zm1.5 16.5c.57-.002 1.004-.01 1.36-.038.453-.038.714-.107.912-.207.423-.216.767-.56.983-.983.1-.198.17-.459.207-.913.038-.462.038-1.057.038-1.909V7.8c0-.852 0-1.447-.038-1.91-.037-.453-.106-.714-.207-.911a2.253 2.253 0 0 0-.983-.984c-.198-.1-.459-.17-.912-.207-.356-.029-.79-.036-1.36-.037Z"/></svg>