<svg xmlns="http://www.w3.org/2000/svg" viewBox="0 0 24 24"><path fill="#151E28" d="m4.215 8.558.033-.012 13.537-4.834.034-.012c.48-.171.887-.317 1.216-.402.322-.083.718-.152 1.106-.017a1.75 1.75 0 0 1 1.08 1.079c.134.388.065.783-.018 1.106-.085.328-.23.736-.402 1.216l-.012.033-4.835 13.537-.012.034c-.133.394-.282.783-.447 1.165-.138.297-.332.639-.674.852a1.749 1.749 0 0 1-1.502.17c-.381-.133-.646-.424-.846-.683-.203-.263-.43-.62-.695-1.037l-.02-.03-3.103-4.877-4.878-3.104-.03-.019a14.97 14.97 0 0 1-1.036-.695c-.26-.2-.55-.465-.682-.846a1.752 1.752 0 0 1 .168-1.502c.214-.342.556-.536.853-.674.302-.14.7-.281 1.165-.448Zm8.809 11.36c.29.456.48.753.636.955.099.128.153.175.168.188a.248.248 0 0 0 .183-.021c.012-.016.054-.073.122-.22.108-.232.227-.564.409-1.072L19.376 6.21c.187-.522.309-.866.374-1.12.042-.163.046-.236.046-.257a.25.25 0 0 0-.13-.13c-.02 0-.094.005-.256.046-.255.066-.598.188-1.12.374L4.753 9.96c-.509.182-.84.301-1.072.408a1.157 1.157 0 0 0-.22.123.25.25 0 0 0-.02.182c.012.016.058.07.186.169.203.156.5.346.955.636l4.511 2.87 4.524-4.524a.75.75 0 1 1 1.061 1.06l-4.524 4.525 2.87 4.509Zm-2.87-4.51v.001Z"/></svg>