<svg xmlns="http://www.w3.org/2000/svg" viewBox="0 0 24 24"><path fill="#151E28" d="m21.307 3.752-1.636 1.637c1.152 1.633 1.063 3.886-.381 5.33-1.204 1.205-1.483 2.535-1.773 4.063l-.021.114c-.279 1.477-.597 3.164-2.054 4.621-2.932 2.932-7.747 2.797-10.752-.208-3.005-3.005-3.141-7.82-.207-10.753C5.939 7.1 7.625 6.782 9.103 6.503l.114-.022c1.528-.289 2.858-.568 4.063-1.773 1.444-1.444 3.697-1.532 5.33-.38l1.637-1.636a.751.751 0 0 1 1.042.018.751.751 0 0 1 .018 1.042Zm-3.78 1.66h-.001c-1.048-.607-2.358-.47-3.186.358-1.562 1.561-3.32 1.897-4.845 2.185-1.548.293-2.827.537-3.952 1.663-2.305 2.304-2.255 6.167.208 8.63 2.462 2.462 6.326 2.513 8.631.208 1.125-1.125 1.369-2.405 1.662-3.953.288-1.524.623-3.283 2.185-4.844.828-.828.965-2.138.358-3.186l-.816.814a.749.749 0 0 1-1.275-.326.749.749 0 0 1 .215-.734Z"/></svg>