<svg xmlns="http://www.w3.org/2000/svg" viewBox="0 0 24 24"><path fill="#151E28" d="M10.96 4.598a2.251 2.251 0 0 1 3.813-1.236l6.364 6.365A2.25 2.25 0 0 1 19.9 13.54c.021.161.028.324.02.488-.024.498-.23.978-.492 1.589l-.047.11-.634 1.478-.034.081c-.199.463-.354.828-.6 1.13a2.75 2.75 0 0 1-.78.656c-.34.191-.725.283-1.216.4l-.085.02-10.754 2.56-.033.008c-.39.093-.733.174-1.013.215-.287.04-.623.058-.954-.073a1.75 1.75 0 0 1-.98-.981c-.132-.33-.114-.667-.073-.954.04-.28.121-.622.214-1.013l.008-.032 2.56-10.754.021-.086c.116-.49.208-.876.4-1.215a2.75 2.75 0 0 1 .656-.78c.302-.246.666-.402 1.13-.6l.08-.035 1.48-.634.108-.047c.611-.262 1.09-.468 1.59-.492a2.73 2.73 0 0 1 .487.02Zm.99 2.305c-.505-.502-.663-.64-.827-.714a1.254 1.254 0 0 0-.579-.112c-.192.01-.405.088-1.179.42l-1.479.634c-.582.25-.736.322-.853.418-.12.098-.222.218-.298.354-.074.132-.12.295-.267.912l-2.55 10.706 4.034-4.033a2.75 2.75 0 1 1 1.06 1.06L4.98 20.581l10.705-2.549c.617-.146.78-.192.912-.267.136-.076.256-.177.354-.298.096-.117.169-.27.419-.853l.633-1.479c.332-.774.41-.986.42-1.18a1.262 1.262 0 0 0-.111-.578c-.075-.164-.213-.321-.715-.826l-5.648-5.648Zm8.126 4.945a.75.75 0 0 0 0-1.06l-6.364-6.364a.749.749 0 0 0-1.275.326.749.749 0 0 0 .215.734l.197.198.19.19.085.084 5.42 5.421.085.085.19.19.197.196a.75.75 0 0 0 1.06 0ZM9.48 15.04a1.249 1.249 0 1 0 1.748-1.787 1.25 1.25 0 0 0-1.749 1.787Z"/></svg>