<svg xmlns="http://www.w3.org/2000/svg" viewBox="0 0 24 24"><path fill="#151E28" d="M12 2.25A9.75 9.75 0 0 1 21.75 12 9.75 9.75 0 0 1 12 21.75 9.75 9.75 0 0 1 2.25 12 9.75 9.75 0 0 1 12 2.25ZM3.75 12a8.25 8.25 0 1 0 16.5 0 8.25 8.25 0 0 0-16.5 0ZM15.6 8.45l-6 8a.75.75 0 0 1-1.2-.9l6-8a.75.75 0 0 1 1.2.9ZM7.25 9.5a2.25 2.25 0 1 1 4.5 0 2.25 2.25 0 0 1-4.5 0Zm7.25 2.75a2.25 2.25 0 1 1 0 4.5 2.25 2.25 0 0 1 0-4.5Zm-.75 2.25a.75.75 0 1 0 1.5 0 .75.75 0 0 0-1.5 0ZM9.5 8.75a.75.75 0 1 0 0 1.5.75.75 0 0 0 0-1.5Z"/></svg>