<svg xmlns="http://www.w3.org/2000/svg" viewBox="0 0 24 24"><path fill="#151E28" d="M12 1.25c5.937 0 10.75 4.813 10.75 10.75S17.937 22.75 12 22.75 1.25 17.937 1.25 12 6.063 1.25 12 1.25ZM2.75 12A9.25 9.25 0 0 0 12 21.25 9.25 9.25 0 0 0 21.25 12 9.25 9.25 0 0 0 12 2.75 9.25 9.25 0 0 0 2.75 12Zm10.216-3.803 2.647 1.891.026.018c.285.204.539.385.732.551.202.174.413.392.534.694.166.417.166.881 0 1.298-.121.302-.332.52-.534.694-.192.166-.447.347-.732.551l-.026.018-2.647 1.892-.029.02c-.384.274-.714.51-.991.672-.275.16-.618.324-1.011.31a1.75 1.75 0 0 1-1.32-.68c-.24-.311-.307-.685-.335-1.003-.03-.319-.03-.725-.03-1.197v-3.852c0-.472 0-.877.029-1.197.029-.318.096-.692.336-1.003.317-.411.801-.66 1.32-.68.392-.014.736.15 1.012.31.339.211.669.435.99.673Zm-2.154.581h.001a1.006 1.006 0 0 0-.04.235c-.023.243-.023.579-.023 1.096v3.782c-.006.365.001.731.022 1.096a1.1 1.1 0 0 0 .04.235.25.25 0 0 0 .163.083c.075-.026.147-.061.214-.104.21-.123.485-.318.905-.619l2.647-1.89c.319-.228.517-.37.652-.487a.815.815 0 0 0 .122-.12.248.248 0 0 0 0-.17.815.815 0 0 0-.122-.12 9.744 9.744 0 0 0-.652-.487l-2.647-1.891c-.421-.3-.695-.495-.905-.618a1.156 1.156 0 0 0-.214-.105.248.248 0 0 0-.163.084Z"/></svg>