<svg xmlns="http://www.w3.org/2000/svg" viewBox="0 0 24 24"><path fill="#151E28" d="M17.095 2.25c.838 0 1.372 0 1.832.091a4.751 4.751 0 0 1 3.732 3.732c.091.46.091.994.091 1.832v8.19c0 .838 0 1.372-.091 1.832a4.751 4.751 0 0 1-3.732 3.732c-.46.091-.994.091-1.832.091H6.905c-.838 0-1.372 0-1.832-.091a4.751 4.751 0 0 1-3.732-3.732c-.091-.46-.091-.994-.091-1.832v-8.19c0-.838 0-1.372.091-1.832a4.751 4.751 0 0 1 3.732-3.732c.46-.091.994-.091 1.832-.091h10.19Zm1.539 1.562c-.296-.058-.669-.062-1.634-.062H7c-.965 0-1.338.004-1.634.062a3.248 3.248 0 0 0-2.554 2.554c-.058.296-.062.669-.062 1.634v8c0 .965.004 1.338.062 1.634a3.248 3.248 0 0 0 2.554 2.554c.296.058.669.062 1.634.062h10c.965 0 1.338-.004 1.634-.062a3.248 3.248 0 0 0 2.554-2.554c.058-.296.062-.669.062-1.634V8c0-.965-.004-1.338-.062-1.634a3.248 3.248 0 0 0-2.554-2.554ZM14 8.25a.75.75 0 0 1 .75.75v1.19l1.72-1.72a.749.749 0 0 1 1.275.326.749.749 0 0 1-.215.734L15.06 12l2.47 2.47a.751.751 0 0 1-.018 1.042.751.751 0 0 1-1.042.018l-1.72-1.72V15a.75.75 0 0 1-1.5 0V9a.75.75 0 0 1 .75-.75ZM7.75 9c-.005.348.001.696.017 1.043.017.241.046.358.078.435.127.307.37.55.677.677.077.032.195.061.435.078.247.017.567.017 1.043.017h.25V9a.75.75 0 0 1 1.5 0v6a.75.75 0 0 1-1.5 0v-2.25h-.275c-.445 0-.816 0-1.12-.021a2.812 2.812 0 0 1-.907-.188 2.749 2.749 0 0 1-1.488-1.489 2.835 2.835 0 0 1-.19-.907c-.02-.304-.02-.675-.02-1.12V9a.75.75 0 0 1 1.5 0Z"/></svg>