<svg xmlns="http://www.w3.org/2000/svg" viewBox="0 0 24 24"><path fill="#151E28" d="M10.883 2.479a2.75 2.75 0 0 1 2.234 0c.485.216.844.614 1.167 1.071.322.454.677 1.067 1.115 1.825l.02.033 5.45 9.413.018.033c.44.76.797 1.375 1.03 1.882.237.51.404 1.02.35 1.55a2.749 2.749 0 0 1-1.119 1.938c-.43.313-.956.424-1.515.475-.556.051-1.267.051-2.145.051H6.512c-.878 0-1.59 0-2.145-.051-.56-.051-1.085-.162-1.515-.475a2.75 2.75 0 0 1-1.118-1.939c-.055-.529.112-1.04.348-1.55.234-.506.59-1.121 1.03-1.881l.02-.033 5.45-9.413.019-.033c.438-.757.793-1.37 1.114-1.825.324-.457.683-.855 1.168-1.071Zm1.625 1.37a1.249 1.249 0 0 0-1.016 0c-.108.049-.274.174-.552.568-.277.391-.598.944-1.06 1.742l-5.45 9.413c-.464.801-.785 1.357-.986 1.793-.204.44-.23.647-.218.765.036.352.221.672.508.881.095.07.288.15.77.194.479.044 1.12.045 2.046.045h10.9c.925 0 1.567 0 2.046-.045.482-.044.675-.124.77-.194.287-.208.471-.529.508-.881.013-.118-.014-.325-.218-.765-.201-.436-.522-.992-.986-1.793L14.12 6.16c-.462-.798-.783-1.35-1.06-1.742-.279-.394-.444-.52-.552-.567ZM10.75 11a.75.75 0 0 1-1.5 0 2.75 2.75 0 1 1 5.5 0c0 .885-.414 1.526-.894 2.002-.329.327-.749.627-1.094.872l-.012.009v.617a.75.75 0 0 1-1.5 0v-1a.75.75 0 0 1 .3-.6c.156-.117.302-.221.44-.319.308-.22.573-.409.81-.644.301-.299.45-.58.45-.937a1.25 1.25 0 0 0-2.5 0ZM13 17a1 1 0 1 1-2 0 1 1 0 0 1 2 0Z"/></svg>