<svg xmlns="http://www.w3.org/2000/svg" viewBox="0 0 24 24"><path fill="#151E28" d="M9.433 2.613c.374-.079.76-.079 1.134 0 .425.09.813.311 1.306.594l.087.05L13 3.85c.31.177.69.177 1 0 1.67-.955 3.75.252 3.75 2.176V19a1.25 1.25 0 0 0 1.24 1.25h.016A1.25 1.25 0 0 0 20.25 19v-1.546c0-.856-.218-1.233-.398-1.408-.188-.183-.473-.281-.881-.297a.75.75 0 0 1 .058-1.5c.592.024 1.307.175 1.869.721.57.554.852 1.385.852 2.484V19A2.75 2.75 0 0 1 19 21.75H7.768c-.813 0-1.469 0-2-.043-.546-.045-1.026-.14-1.47-.366a3.752 3.752 0 0 1-1.64-1.638c-.226-.444-.32-.925-.365-1.471-.043-.531-.043-1.187-.043-2V6.027c0-1.924 2.08-3.131 3.75-2.176.31.177.69.177 1 0l1.04-.595.087-.05c.493-.282.88-.504 1.306-.593ZM16.55 20.25c-.192-.375-.3-.8-.3-1.25V6.027c0-.773-.835-1.257-1.506-.874a2.51 2.51 0 0 1-2.488 0l-1.04-.594c-.623-.356-.794-.444-.958-.478a1.246 1.246 0 0 0-.516 0c-.164.034-.335.122-.958.478l-1.04.594a2.51 2.51 0 0 1-2.488 0 1.006 1.006 0 0 0-1.506.874V16.2c0 .853 0 1.447.038 1.91.037.453.107.714.207.912.216.423.56.767.984.983.197.1.458.17.912.207.462.038 1.057.038 1.909.038ZM6.25 9A.75.75 0 0 1 7 8.25h7a.75.75 0 0 1 0 1.5H7A.75.75 0 0 1 6.25 9ZM12 17.75H7a.75.75 0 0 1 0-1.5h5a.75.75 0 0 1 0 1.5Zm-5-4a.75.75 0 0 1 0-1.5h4a.75.75 0 0 1 0 1.5Z"/></svg>