<svg xmlns="http://www.w3.org/2000/svg" viewBox="0 0 24 24"><path fill="#151E28" d="M19.119 5.865c-.72.071-1.532.196-2.267.41-.75.217-1.333.505-1.675.847-.496.495-.739.95-.829 1.348a.749.749 0 0 1-1.246.389.75.75 0 0 1-.216-.724c.167-.732.583-1.427 1.23-2.074.608-.607 1.478-.983 2.318-1.227.855-.248 1.766-.385 2.536-.462a2.408 2.408 0 0 1 2.657 2.657c-.077.769-.214 1.681-.463 2.536-.243.839-.619 1.71-1.226 2.317-1.178 1.179-2.49 1.552-3.768 1.172a.75.75 0 0 1 .428-1.438c.651.194 1.411.074 2.279-.794.342-.342.629-.925.847-1.676.213-.734.338-1.546.41-2.266a.909.909 0 0 0-1.015-1.015ZM4.59 10.898c.371.62.831 1.301 1.336 1.874.518.586 1.026.99 1.48 1.154 1.155.414 1.894.199 2.4-.254a.752.752 0 0 1 1.238.404.75.75 0 0 1-.238.714c-.993.889-2.338 1.11-3.906.547-.808-.29-1.519-.918-2.097-1.572-.59-.667-1.103-1.433-1.5-2.096a2.411 2.411 0 0 1 1.27-3.536c.728-.259 1.61-.523 2.49-.663.863-.138 1.811-.169 2.619.121.86.309 1.533.76 1.997 1.35a.75.75 0 0 1-1.18.927c-.252-.321-.665-.629-1.324-.866-.455-.163-1.104-.174-1.876-.051-.754.12-1.543.353-2.224.595a.909.909 0 0 0-.485 1.352ZM9 10.75h.036c.415.012.829.059 1.237.14.668.133 1.598.42 2.258 1.08.391.39.621.951.773 1.526.157.592.255 1.297.319 2.067.128 1.531.128 3.431.128 5.411V21a.75.75 0 0 1-1.5 0c0-2.011-.001-3.85-.123-5.313-.06-.73-.15-1.337-.274-1.807-.129-.488-.274-.74-.384-.85-.341-.34-.911-.553-1.491-.67a6.078 6.078 0 0 0-.968-.11H9a.75.75 0 0 1 0-1.5Zm6.629-1.97a.751.751 0 0 1 .744 1.303h-.002v.001l-.021.013c-.149.095-.291.2-.425.315-.27.23-.565.545-.754.924a.75.75 0 1 1-1.342-.671c.31-.622.765-1.09 1.121-1.394.206-.176.426-.336.657-.478l.014-.008.005-.003.002-.001h.001l.37.651Z"/></svg>