<svg xmlns="http://www.w3.org/2000/svg" viewBox="0 0 24 24"><path fill="#151E28" d="m7.87 3.954 9.881 6.351V4a.75.75 0 0 1 1.5 0v16a.75.75 0 0 1-1.5 0v-6.305l-9.88 6.35-.029.02c-.377.242-.702.451-.975.593-.275.143-.612.283-.992.256a1.754 1.754 0 0 1-1.276-.697c-.228-.305-.293-.664-.321-.973-.028-.306-.028-.693-.028-1.14V5.896a13.57 13.57 0 0 1 .029-1.141c.027-.308.092-.668.32-.972a1.75 1.75 0 0 1 1.276-.697c.38-.027.717.113.992.256.273.142.598.351.975.593Zm-.81 1.261a13.177 13.177 0 0 0-.886-.543 1.027 1.027 0 0 0-.206-.088.252.252 0 0 0-.159.086 1.04 1.04 0 0 0-.037.222c-.022.229-.022.546-.022 1.038v12.139c0 .492.001.809.022 1.039.004.075.016.149.036.221a.25.25 0 0 0 .16.087c.072-.022.141-.051.206-.088.205-.107.472-.278.886-.544L17.613 12Z"/></svg>