<svg xmlns="http://www.w3.org/2000/svg" viewBox="0 0 24 24"><path fill="#151E28" d="M18.5 13.25a3.25 3.25 0 0 1 3.25 3.25v1a3.25 3.25 0 0 1-3.25 3.25h-1a3.25 3.25 0 0 1-3.25-3.25v-1a3.25 3.25 0 0 1 3.25-3.25ZM9.75 6.5v1a3.25 3.25 0 0 1-3.25 3.25h-1A3.25 3.25 0 0 1 2.25 7.5v-1A3.25 3.25 0 0 1 5.5 3.25h1A3.25 3.25 0 0 1 9.75 6.5Zm10.5 10a1.75 1.75 0 0 0-1.75-1.75h-1a1.75 1.75 0 0 0-1.75 1.75v1c0 .966.784 1.75 1.75 1.75h1a1.75 1.75 0 0 0 1.75-1.75ZM6.5 4.75h-1A1.75 1.75 0 0 0 3.75 6.5v1c0 .966.784 1.75 1.75 1.75h1A1.75 1.75 0 0 0 8.25 7.5v-1A1.75 1.75 0 0 0 6.5 4.75ZM21 6.25a.75.75 0 0 1 0 1.5h-8a.75.75 0 0 1 0-1.5Zm-10 10a.75.75 0 0 1 0 1.5H3a.75.75 0 0 1 0-1.5Z"/></svg>