<svg xmlns="http://www.w3.org/2000/svg" viewBox="0 0 24 24"><path fill="#151E28" d="M13.25 18.5v-1a3.25 3.25 0 0 1 3.25-3.25h1a3.25 3.25 0 0 1 3.25 3.25v1a3.25 3.25 0 0 1-3.25 3.25h-1a3.25 3.25 0 0 1-3.25-3.25ZM6.5 9.75A3.25 3.25 0 0 1 3.25 6.5v-1A3.25 3.25 0 0 1 6.5 2.25h1a3.25 3.25 0 0 1 3.25 3.25v1A3.25 3.25 0 0 1 7.5 9.75ZM4.75 6.5c0 .966.784 1.75 1.75 1.75h1A1.75 1.75 0 0 0 9.25 6.5v-1A1.75 1.75 0 0 0 7.5 3.75h-1A1.75 1.75 0 0 0 4.75 5.5ZM16.5 20.25h1a1.75 1.75 0 0 0 1.75-1.75v-1a1.75 1.75 0 0 0-1.75-1.75h-1a1.75 1.75 0 0 0-1.75 1.75v1c0 .966.784 1.75 1.75 1.75ZM6.25 21v-8a.75.75 0 0 1 1.5 0v8a.75.75 0 0 1-1.5 0Zm10-10V3a.75.75 0 0 1 1.5 0v8a.75.75 0 0 1-1.5 0Z"/></svg>