<svg xmlns="http://www.w3.org/2000/svg" viewBox="0 0 24 24"><path fill="#151E28" d="M2.53 1.47v-.001l20 20a.749.749 0 0 1-.326 1.275.749.749 0 0 1-.734-.215l-2.735-2.735c-.392.857-1.462 1.325-2.412.825l-4.207-2.212a.25.25 0 0 0-.232 0l-4.207 2.212c-1.284.675-2.785-.415-2.539-1.845l.803-4.684a.249.249 0 0 0-.072-.221l-3.403-3.318C1.427 9.54 2 7.775 3.436 7.568l2.681-.39L1.47 2.53a.749.749 0 0 1 .326-1.275.749.749 0 0 1 .734.215Zm14.733 16.853L7.44 8.501l-3.79.55a.25.25 0 0 0-.138.427l3.403 3.318c.413.402.6.98.503 1.549l-.803 4.684a.25.25 0 0 0 .363.264l4.206-2.212a1.753 1.753 0 0 1 1.63 0l4.206 2.212a.25.25 0 0 0 .363-.264l-.121-.706ZM13.569 2.485h.001l2.103 4.262a.251.251 0 0 0 .189.137l4.703.683c1.436.209 2.009 1.973.97 2.985l-3.01 2.935a.75.75 0 0 1-1.047-1.074l3.01-2.935a.25.25 0 0 0-.139-.426l-4.703-.684a1.752 1.752 0 0 1-1.318-.957l-2.103-4.262a.25.25 0 0 0-.448 0l-1.103 2.235a.75.75 0 1 1-1.345-.664l1.101-2.235c.642-1.3 2.497-1.3 3.139 0Z"/></svg>