<svg xmlns="http://www.w3.org/2000/svg" viewBox="0 0 24 24"><path fill="#151E28" d="M9.367 2.25h5.266c1.092 0 1.958 0 2.655.057.714.058 1.317.18 1.869.46a4.75 4.75 0 0 1 2.075 2.077c.281.55.403 1.154.461 1.868.057.697.057 1.563.057 2.655V12A9.75 9.75 0 0 1 12 21.75H9.367c-1.092 0-1.958 0-2.655-.057-.714-.058-1.317-.18-1.868-.46a4.744 4.744 0 0 1-2.076-2.076c-.281-.552-.403-1.155-.461-1.869-.057-.697-.057-1.563-.057-2.655V9.367c0-1.092 0-1.958.057-2.655.058-.714.18-1.317.46-1.868a4.752 4.752 0 0 1 2.077-2.076c.55-.281 1.154-.403 1.868-.461.697-.057 1.563-.057 2.655-.057ZM20.25 9.4c0-1.132-.001-1.936-.052-2.566-.051-.62-.147-1.005-.302-1.31a3.258 3.258 0 0 0-1.42-1.42c-.305-.155-.69-.252-1.31-.302-.629-.052-1.433-.052-2.566-.052H9.4c-1.132 0-1.936.001-2.566.052-.62.051-1.005.147-1.31.302a3.258 3.258 0 0 0-1.42 1.42c-.155.305-.252.69-.302 1.31-.052.629-.052 1.434-.052 2.566v5.2c0 1.132.001 1.936.052 2.566.051.62.147 1.005.302 1.31a3.258 3.258 0 0 0 1.42 1.42c.305.155.69.252 1.31.302.629.052 1.434.052 2.566.052h1.85v-1.883c0-1.092 0-1.958.057-2.655.058-.714.18-1.318.461-1.868a4.752 4.752 0 0 1 2.076-2.077c.551-.28 1.154-.402 1.868-.46.697-.057 1.563-.057 2.655-.057h1.883Zm-7.5 10.816a8.254 8.254 0 0 0 7.466-7.466H18.4c-1.133 0-1.937 0-2.566.052-.62.05-1.005.147-1.31.302a3.258 3.258 0 0 0-1.42 1.42c-.155.305-.251.69-.302 1.31-.051.63-.052 1.433-.052 2.566ZM7 6.25h8a.75.75 0 0 1 0 1.5H7a.75.75 0 0 1 0-1.5Zm0 4h4a.75.75 0 0 1 0 1.5H7a.75.75 0 0 1 0-1.5Zm0 4h2a.75.75 0 0 1 0 1.5H7a.75.75 0 0 1 0-1.5Z"/></svg>