<svg xmlns="http://www.w3.org/2000/svg" viewBox="0 0 24 24"><path fill="#151E28" d="M14.35 3.805h.001l6.231 6.231.021.021c.378.378.693.693.93.972.246.29.451.59.568.95.18.552.18 1.148 0 1.7-.117.36-.322.66-.568.95-.237.278-.552.594-.93.971l-.021.022-2.829 2.828-.022.023c-.575.575-1.039 1.038-1.445 1.383-.418.355-.824.628-1.298.782a3.747 3.747 0 0 1-2.318 0c-.474-.154-.88-.427-1.298-.782-.406-.345-.87-.808-1.445-1.383l-.023-.022-5.1-5.1-.06-.06c-.46-.461-.779-.78-1.012-1.16a3.733 3.733 0 0 1-.449-1.084c-.104-.433-.104-.883-.104-1.535V7.697c0-.813 0-1.468.044-2 .045-.546.139-1.026.365-1.47a3.752 3.752 0 0 1 1.639-1.639c.444-.226.924-.321 1.47-.365.532-.044 1.187-.044 2-.044h1.815c.652 0 1.102 0 1.535.103.383.092.749.244 1.084.45.38.233.699.552 1.159 1.013Zm-2.002.206-.001.001c-.2-.123-.42-.214-.65-.27-.238-.057-.501-.062-1.27-.062H8.73c-.853 0-1.447.001-1.91.039-.454.036-.715.106-.912.206-.423.216-.767.56-.983.984-.101.197-.17.458-.207.911-.039.464-.039 1.058-.039 1.91v1.696c0 .77.005 1.032.062 1.272.055.229.146.449.27.65.128.209.311.398.854.942l5.1 5.1c.603.603 1.023 1.023 1.377 1.323.348.294.581.43.792.498.452.147.939.147 1.391 0 .21-.068.443-.204.79-.498.354-.301.775-.721 1.378-1.323l2.828-2.829c.405-.405.676-.677.868-.903.186-.22.254-.346.286-.443a1.257 1.257 0 0 0 0-.772c-.032-.097-.099-.223-.286-.443-.192-.227-.463-.499-.868-.904L13.29 4.865c-.544-.544-.732-.726-.942-.854ZM10 6.25a2.75 2.75 0 1 1 0 5.5 2.75 2.75 0 0 1 0-5.5ZM8.75 9a1.25 1.25 0 1 0 2.5 0 1.25 1.25 0 0 0-2.5 0Z"/></svg>