<svg xmlns="http://www.w3.org/2000/svg" viewBox="0 0 24 24"><path fill="#151E28" d="M2.25 11.982c.01-5.373 4.366-9.727 9.74-9.732h.02c5.38.005 9.74 4.368 9.74 9.75 0 5.385-4.366 9.75-9.75 9.75a9.75 9.75 0 0 1-9.75-9.732v-.036Zm9-8.198h-.001a8.254 8.254 0 0 0-7.466 7.466H5a.75.75 0 0 1 0 1.5H3.783a8.254 8.254 0 0 0 7.466 7.466V19a.75.75 0 0 1 1.5 0v1.216a8.252 8.252 0 0 0 7.467-7.466H19a.75.75 0 0 1 0-1.5h1.216a8.254 8.254 0 0 0-7.466-7.466V5a.75.75 0 0 1-1.5 0ZM12 9.25a.75.75 0 0 1 .75.75v1.25H14a.75.75 0 0 1 0 1.5h-1.25V14a.75.75 0 0 1-1.5 0v-1.25H10a.75.75 0 0 1 0-1.5h1.25V10a.75.75 0 0 1 .75-.75Z"/></svg>