<svg xmlns="http://www.w3.org/2000/svg" viewBox="0 0 24 24"><path fill="#151E28" d="m6.03 16.03-1.22 1.22h14.38l-1.22-1.22a.749.749 0 0 1 .326-1.275.749.749 0 0 1 .734.215l2.5 2.5a.75.75 0 0 1 0 1.06l-2.5 2.5a.749.749 0 0 1-1.275-.326.749.749 0 0 1 .215-.734l1.22-1.22H4.81l1.22 1.22a.751.751 0 0 1-.018 1.042.751.751 0 0 1-1.042.018l-2.5-2.5a.75.75 0 0 1 0-1.06l2.5-2.5a.749.749 0 0 1 1.275.326.749.749 0 0 1-.215.734ZM8 3.25h8a.75.75 0 0 1 0 1.5h-3.25V12a.75.75 0 0 1-1.5 0V4.75H8a.75.75 0 0 1 0-1.5Z"/></svg>