<svg xmlns="http://www.w3.org/2000/svg" viewBox="0 0 24 24"><path fill="#151E28" d="M4.25 8A4.75 4.75 0 0 1 9 3.25h6A4.75 4.75 0 0 1 19.75 8v6a4.752 4.752 0 0 1-3.466 4.574l1.34 2.01a.75.75 0 1 1-1.248.832l-1.777-2.666H9.4l-1.777 2.666a.749.749 0 1 1-1.248-.832l1.34-2.01A4.752 4.752 0 0 1 4.25 14Zm14 0A3.25 3.25 0 0 0 15 4.75H9A3.25 3.25 0 0 0 5.75 8v3.25h12.5Zm-3.241 9.25A3.25 3.25 0 0 0 18.25 14v-1.25H5.75V14a3.25 3.25 0 0 0 3.24 3.25ZM9.75 14.5v1a.75.75 0 0 1-1.5 0v-1a.75.75 0 0 1 1.5 0Zm5.25-.75a.75.75 0 0 1 .75.75v1a.75.75 0 0 1-1.5 0v-1a.75.75 0 0 1 .75-.75Z"/></svg>