<svg xmlns="http://www.w3.org/2000/svg" viewBox="0 0 24 24"><path fill="#151E28" d="M10.451 2.332c.656-1.247 2.441-1.247 3.098 0l7.237 13.752c1.06 2.012-.642 4.367-2.885 3.993l-2.024-.337a.75.75 0 1 1 .246-1.48l2.024.337c1.02.17 1.793-.9 1.312-1.815L12.22 3.031a.249.249 0 0 0-.221-.133.249.249 0 0 0-.221.133L4.54 16.782c-.481.915.292 1.985 1.312 1.815l2.024-.337a.75.75 0 1 1 .246 1.48l-2.024.337c-2.243.374-3.944-1.981-2.885-3.993L10.45 2.332ZM12 9.25a.75.75 0 0 1 .75.75v12a.75.75 0 0 1-1.5 0v-5.69l-2.78-2.78a.751.751 0 0 1 .018-1.042.751.751 0 0 1 1.042-.018l1.72 1.72V10a.75.75 0 0 1 .75-.75Z"/></svg>