<svg xmlns="http://www.w3.org/2000/svg" viewBox="0 0 24 24"><path fill="#151E28" d="M12 1.25c5.937 0 10.75 4.813 10.75 10.75S17.937 22.75 12 22.75 1.25 17.937 1.25 12 6.063 1.25 12 1.25ZM2.75 12A9.25 9.25 0 0 0 12 21.25 9.25 9.25 0 0 0 21.25 12 9.25 9.25 0 0 0 12 2.75 9.25 9.25 0 0 0 2.75 12Zm12.507 2.104-.005-.032a7.867 7.867 0 0 0-.106-.525 7.722 7.722 0 0 0-.404-1.25c-.419-.972-.962-1.547-1.63-1.547-.38 0-.847.168-1.38.508-.524.333-1.046.79-1.517 1.269-.23.233-.453.475-.667.723H11a.75.75 0 0 1 0 1.5H8a.75.75 0 0 1-.75-.75v-3a.75.75 0 0 1 1.5 0v.89c.126-.137.258-.277.397-.417.514-.522 1.125-1.064 1.778-1.48.644-.41 1.398-.743 2.186-.743 1.665 0 2.566 1.425 3.008 2.453a9.233 9.233 0 0 1 .615 2.135l.006.04.002.013v.005L16 14l.743-.103a.75.75 0 0 1-1.486.207Z"/></svg>