<svg xmlns="http://www.w3.org/2000/svg" viewBox="0 0 24 24"><path fill="#151E28" d="M7 14.25h6A4.75 4.75 0 0 1 17.75 19 2.75 2.75 0 0 1 15 21.75H5A2.75 2.75 0 0 1 2.25 19 4.75 4.75 0 0 1 7 14.25Zm3-11a4.75 4.75 0 1 1 0 9.5 4.75 4.75 0 0 1 0-9.5ZM3.75 19c0 .69.56 1.25 1.25 1.25h10c.69 0 1.25-.56 1.25-1.25A3.25 3.25 0 0 0 13 15.75H7A3.25 3.25 0 0 0 3.75 19Zm3-11a3.25 3.25 0 1 0 6.5 0 3.25 3.25 0 0 0-6.5 0ZM20 4.25a.75.75 0 0 1 .75.75v5a.75.75 0 0 1-1.5 0V5a.75.75 0 0 1 .75-.75ZM20 14a1 1 0 1 1 0-2 1 1 0 0 1 0 2Z"/></svg>