<svg xmlns="http://www.w3.org/2000/svg" viewBox="0 0 24 24"><path fill="#151E28" d="M4 2.25h16a.75.75 0 0 1 0 1.5H4a1.25 1.25 0 0 0-1.25 1.224v.066A1.25 1.25 0 0 0 4 6.25h14.83c.534 0 .98 0 1.344.03.38.03.737.098 1.074.27.518.264.938.684 1.202 1.202.172.337.239.693.27 1.073.03.365.03.81.03 1.345v7.66c0 .535 0 .98-.03 1.345-.031.38-.098.736-.27 1.074a2.752 2.752 0 0 1-1.202 1.201c-.337.172-.694.24-1.074.27-.364.03-.81.03-1.344.03H6.768c-.813 0-1.469 0-2-.043-.546-.045-1.026-.139-1.47-.365a3.756 3.756 0 0 1-1.64-1.64c-.225-.444-.32-.924-.365-1.47-.043-.532-.043-1.187-.043-2V5.061A2.75 2.75 0 0 1 4 2.25Zm-1.25 5.2v8.75c0 .852 0 1.447.038 1.91.037.453.106.714.207.911.216.424.56.768.983.984.198.1.459.17.912.207.463.037 1.057.038 1.91.038h12c.572 0 .956 0 1.252-.025.287-.023.425-.065.515-.111.235-.12.426-.312.546-.547.047-.09.088-.227.112-.515.024-.295.025-.68.025-1.252v-1.05H20a2.75 2.75 0 1 1 0-5.5h1.25V10.2c0-.572 0-.957-.025-1.253-.024-.287-.065-.424-.112-.514a1.255 1.255 0 0 0-.546-.547c-.09-.046-.228-.088-.515-.111A17.433 17.433 0 0 0 18.8 7.75H4c-.45 0-.875-.108-1.25-.3ZM7 13.25h6a.75.75 0 0 1 0 1.5H7a.75.75 0 0 1 0-1.5Zm13-.5a1.25 1.25 0 0 0 0 2.5h1.25v-2.5Z"/></svg>