<svg xmlns="http://www.w3.org/2000/svg" viewBox="0 0 24 24"><path fill="#151E28" d="M16.82 1.83c1.292.184 1.818 1.764.896 2.686l-2.357 2.357a1.251 1.251 0 1 0 1.767 1.768l2.357-2.357c.923-.922 2.503-.396 2.687.896l.008.051a7.313 7.313 0 0 1-7.24 8.347H12.31l-4.73 4.73a2.75 2.75 0 0 1-3.889-3.889l4.73-4.73V9.062a7.313 7.313 0 0 1 8.348-7.24l.05.007Zm-.17 1.501a.074.074 0 0 0-.042-.017l-.052-.007a5.815 5.815 0 0 0-6.635 5.755V12a.749.749 0 0 1-.22.53l-4.949 4.95a1.25 1.25 0 0 0 1.768 1.768l4.95-4.95a.749.749 0 0 1 .53-.22h2.938a5.814 5.814 0 0 0 5.755-6.635l-.008-.051a.08.08 0 0 0-.016-.042.094.094 0 0 0-.04-.025.09.09 0 0 0-.046-.004.076.076 0 0 0-.039.024l-2.357 2.357a2.751 2.751 0 0 1-3.89-3.89l2.358-2.356a.075.075 0 0 0 .024-.04.09.09 0 0 0-.004-.046.09.09 0 0 0-.025-.039Z"/></svg>