<svg xmlns="http://www.w3.org/2000/svg" viewBox="0 0 24 24"><path fill="#636F7E" opacity=".16" d="M17.45 20H6.55c-1.82 0-2.731 0-3.257-.382a2 2 0 0 1-.813-1.41c-.068-.647.388-1.435 1.3-3.011l5.45-9.414c.91-1.57 1.364-2.355 1.957-2.619a2 2 0 0 1 1.626 0c.593.264 1.047 1.05 1.956 2.62l5.45 9.413c.912 1.576 1.369 2.364 1.301 3.01a2 2 0 0 1-.813 1.41C20.181 20 19.271 20 17.45 20Z"/><path fill="#151E28" d="M10.883 2.479a2.75 2.75 0 0 1 2.234 0c.485.216.844.614 1.167 1.071.322.454.677 1.067 1.115 1.825l.02.033 5.45 9.413.018.033c.44.76.797 1.375 1.03 1.882.237.51.404 1.02.35 1.55a2.749 2.749 0 0 1-1.119 1.938c-.43.313-.956.424-1.515.475-.556.051-1.267.051-2.145.051H6.512c-.878 0-1.59 0-2.145-.051-.56-.051-1.085-.162-1.515-.475a2.75 2.75 0 0 1-1.118-1.939c-.055-.529.112-1.04.348-1.55.234-.506.59-1.121 1.03-1.881l.02-.033 5.45-9.413.019-.033c.438-.758.793-1.37 1.114-1.825.324-.457.683-.855 1.168-1.071Zm1.625 1.37a1.249 1.249 0 0 0-1.016 0c-.108.049-.274.174-.552.568-.277.391-.598.944-1.06 1.742l-5.45 9.413c-.464.801-.785 1.357-.986 1.793-.204.44-.23.647-.218.765.036.352.221.672.508.881.095.07.288.15.77.194.479.044 1.12.045 2.046.045h10.9c.925 0 1.567 0 2.046-.045.482-.044.675-.124.77-.194.287-.208.471-.529.508-.881.013-.118-.014-.325-.218-.765-.201-.436-.522-.992-.986-1.793L14.12 6.16c-.462-.798-.783-1.35-1.06-1.742-.279-.394-.444-.52-.552-.567Zm1.397 6.401a2.75 2.75 0 0 1 2.842 2.63c.003.06.003.128.003.215v1.735c0 .535 0 .98-.03 1.345-.03.38-.098.736-.27 1.074a2.752 2.752 0 0 1-1.202 1.201c-.337.172-.693.24-1.073.27-.365.03-.81.03-1.345.03h-1.735c-.087 0-.155 0-.215-.003a2.75 2.75 0 0 1-2.63-2.842v-.016a.75.75 0 0 1 1.5 0c-.001.055 0 .111.001.166a1.25 1.25 0 0 0 1.194 1.194l.166.001H12.8c.573 0 .957-.001 1.253-.025.287-.023.424-.065.515-.111.235-.12.426-.312.546-.547.046-.09.088-.227.111-.515.025-.295.025-.68.025-1.252v-1.689l-.001-.166a1.25 1.25 0 0 0-1.194-1.194l-.166-.001a.75.75 0 0 1 0-1.5ZM11.75 11a.75.75 0 0 1-.75.75h-.19l2.72 2.72a.749.749 0 0 1-.326 1.275.749.749 0 0 1-.734-.215l-2.72-2.72V13a.75.75 0 0 1-1.5 0v-2a.75.75 0 0 1 .75-.75h2a.75.75 0 0 1 .75.75Z"/></svg>