<svg xmlns="http://www.w3.org/2000/svg" viewBox="0 0 24 24"><path fill="#636F7E" opacity=".16" d="M12 22C6.477 22 2 17.523 2 12S6.477 2 12 2s10 4.477 10 10-4.477 10-10 10Zm-3.8-8.806c-.025.904 1.067 1.374 1.707.734l.7-.7 2.307 2.308a1 1 0 0 0 1.414 0l.708-.708a1 1 0 0 0 0-1.414l-2.308-2.308.7-.7c.64-.639.17-1.731-.733-1.706l-3.43.092a1 1 0 0 0-.973.973Z"/><path fill="#151E28" d="M12 1.25c5.937 0 10.75 4.813 10.75 10.75S17.937 22.75 12 22.75 1.25 17.937 1.25 12 6.063 1.25 12 1.25ZM2.75 12A9.25 9.25 0 0 0 12 21.25 9.25 9.25 0 0 0 21.25 12 9.25 9.25 0 0 0 12 2.75 9.25 9.25 0 0 0 2.75 12Zm6.495-3.957h-.001l3.43-.093c1.581-.043 2.403 1.868 1.285 2.987l-.17.17 1.777 1.777a1.75 1.75 0 0 1 0 2.475l-.707.707a1.75 1.75 0 0 1-2.475 0l-1.777-1.777-.17.17c-1.119 1.118-3.03.296-2.987-1.284l.093-3.43a1.75 1.75 0 0 1 1.702-1.702Zm-.203 1.742-.093 3.43a.249.249 0 0 0 .152.237.249.249 0 0 0 .276-.054l.7-.7a.75.75 0 0 1 1.06 0l2.307 2.307a.25.25 0 0 0 .354 0l.707-.707a.25.25 0 0 0 0-.354l-2.307-2.307a.75.75 0 0 1 0-1.061l.7-.7a.248.248 0 0 0 .053-.276.249.249 0 0 0-.236-.151l-3.43.093a.25.25 0 0 0-.243.243Z"/></svg>