<svg xmlns="http://www.w3.org/2000/svg" viewBox="0 0 24 24"><path fill="#636F7E" opacity=".16" d="M22 12a10 10 0 1 1-20 0 10 10 0 1 1 20 0Z"/><path fill="#151E28" d="M12 1.25c5.937 0 10.75 4.813 10.75 10.75S17.937 22.75 12 22.75 1.25 17.937 1.25 12 6.063 1.25 12 1.25ZM2.75 12A9.25 9.25 0 0 0 12 21.25 9.25 9.25 0 0 0 21.25 12 9.25 9.25 0 0 0 12 2.75 9.25 9.25 0 0 0 2.75 12Zm3.7 2.49 2.222-2.4a2.263 2.263 0 0 1 3.323 0 .766.766 0 0 0 1.121 0l2.167-2.34h-1.616a.75.75 0 0 1 0-1.5H17a.75.75 0 0 1 .75.75v3.6a.75.75 0 0 1-1.5 0v-1.686l-2.033 2.196a2.263 2.263 0 0 1-3.323 0 .766.766 0 0 0-1.121 0l-2.223 2.4a.75.75 0 1 1-1.1-1.02Z"/></svg>