<svg xmlns="http://www.w3.org/2000/svg" viewBox="0 0 24 24"><path fill="#636F7E" opacity=".16" d="M22 12a10 10 0 1 1-20 0 10 10 0 1 1 20 0Z"/><path fill="#151E28" d="M12 1.25c5.937 0 10.75 4.813 10.75 10.75S17.937 22.75 12 22.75 1.25 17.937 1.25 12 6.063 1.25 12 1.25ZM2.75 12A9.25 9.25 0 0 0 12 21.25 9.25 9.25 0 0 0 21.25 12 9.25 9.25 0 0 0 12 2.75 9.25 9.25 0 0 0 2.75 12Zm6 4a.75.75 0 0 1-1.5 0v-.232c0-.813 0-1.469.043-2 .045-.546.14-1.026.366-1.47a3.749 3.749 0 0 1 1.639-1.64c.444-.226.924-.32 1.47-.365.4-.032.869-.04 1.422-.042l-.72-.72a.75.75 0 0 1 1.06-1.061l2 2a.75.75 0 0 1 0 1.06l-2 2a.751.751 0 0 1-1.042-.018.751.751 0 0 1-.018-1.042l.718-.72c-.539.003-.954.01-1.297.038-.454.037-.715.107-.912.207a2.25 2.25 0 0 0-.984.984c-.1.197-.17.458-.207.912-.037.462-.038 1.056-.038 1.909Zm6.78-2.47a.749.749 0 0 1-1.275-.326.749.749 0 0 1 .215-.734L15.94 11l-1.47-1.47a.751.751 0 0 1 .018-1.042.751.751 0 0 1 1.042-.018l2 2a.75.75 0 0 1 0 1.06Z"/></svg>