<svg xmlns="http://www.w3.org/2000/svg" viewBox="0 0 24 24"><path fill="#636F7E" opacity=".16" d="M22 12a10 10 0 1 1-20 0 10 10 0 1 1 20 0Z"/><path fill="#151E28" d="M1.25 12C1.25 6.063 6.063 1.25 12 1.25S22.75 6.063 22.75 12 17.937 22.75 12 22.75 1.25 17.937 1.25 12ZM12 2.75A9.25 9.25 0 0 0 2.75 12 9.25 9.25 0 0 0 12 21.25 9.25 9.25 0 0 0 21.25 12 9.25 9.25 0 0 0 12 2.75ZM9.928 7.865a.75.75 0 0 1-.406.98c-.307.127-.55.37-.677.677-.032.077-.061.194-.078.435-.016.347-.022.695-.017 1.043v1.8c0 .572 0 .957.025 1.252.023.288.065.425.111.516.12.235.311.426.547.546.09.046.227.088.514.111.296.024.68.025 1.253.025H13c.476 0 .796 0 1.043-.017.241-.017.358-.046.435-.078.307-.127.55-.37.677-.677a.75.75 0 1 1 1.386.574 2.75 2.75 0 0 1-1.489 1.489c-.29.12-.59.167-.907.188-.304.021-.675.021-1.12.021H11.17c-.535 0-.98 0-1.345-.03-.38-.03-.736-.098-1.073-.27a2.75 2.75 0 0 1-1.202-1.2c-.172-.338-.24-.694-.27-1.074-.03-.365-.03-.81-.03-1.345v-1.855c0-.445 0-.816.02-1.12a2.82 2.82 0 0 1 .19-.907A2.749 2.749 0 0 1 8.948 7.46a.75.75 0 0 1 .98.406ZM14.4 12.75H12a.75.75 0 0 1-.75-.75V9.6a.75.75 0 0 1 1.5 0v.59l2.72-2.72a.751.751 0 0 1 1.042.018.751.751 0 0 1 .018 1.042l-2.72 2.72h.59a.75.75 0 0 1 0 1.5Z"/></svg>