<svg xmlns="http://www.w3.org/2000/svg" viewBox="0 0 24 24"><path fill="#636F7E" opacity=".16" d="M17 7H7v10h10V7Z"/><path fill="#151E28" d="M17.75 7v2.857a.75.75 0 0 1-1.5 0V8.81L13.06 12l3.19 3.189v-1.046a.75.75 0 0 1 1.5 0V17a.75.75 0 0 1-.75.75h-2.857a.75.75 0 0 1 0-1.5h1.047L12 13.06l-3.189 3.19h1.046a.75.75 0 0 1 0 1.5H7a.75.75 0 0 1-.75-.75v-2.857a.75.75 0 0 1 1.5 0v1.047L10.94 12 7.75 8.811v1.046a.75.75 0 0 1-1.5 0V7A.75.75 0 0 1 7 6.25h2.857a.75.75 0 0 1 0 1.5H8.81L12 10.94l3.189-3.19h-1.046a.75.75 0 0 1 0-1.5H17a.75.75 0 0 1 .75.75Z"/></svg>