<svg xmlns="http://www.w3.org/2000/svg" viewBox="0 0 24 24"><path fill="#151E28" d="M12 3.25a.75.75 0 0 1 .75.75v16a.75.75 0 0 1-1.5 0V4a.75.75 0 0 1 .75-.75Zm10 9.5h-5.19l1.72 1.72a.749.749 0 0 1-.326 1.275.749.749 0 0 1-.734-.215l-3-3a.75.75 0 0 1 0-1.06l3-3a.751.751 0 0 1 1.042.018.751.751 0 0 1 .018 1.042l-1.72 1.72H22a.75.75 0 0 1 0 1.5ZM1.25 12a.75.75 0 0 1 .75-.75h5.19L5.47 9.53a.751.751 0 0 1 .018-1.042.751.751 0 0 1 1.042-.018l3 3a.75.75 0 0 1 0 1.06l-3 3a.749.749 0 0 1-1.275-.326.749.749 0 0 1 .215-.734l1.72-1.72H2a.75.75 0 0 1-.75-.75Z"/></svg>