<svg xmlns="http://www.w3.org/2000/svg" viewBox="0 0 24 24"><path fill="#636F7E" opacity=".16" d="M22 12a10 10 0 1 1-20 0 10 10 0 1 1 20 0Z"/><path fill="#151E28" d="M1.25 12C1.25 6.063 6.063 1.25 12 1.25S22.75 6.063 22.75 12 17.937 22.75 12 22.75 1.25 17.937 1.25 12ZM12 2.75A9.25 9.25 0 0 0 2.75 12 9.25 9.25 0 0 0 12 21.25 9.25 9.25 0 0 0 21.25 12 9.25 9.25 0 0 0 12 2.75Zm-1.905 14v-.001c-.087 0-.155 0-.215-.003a2.75 2.75 0 0 1-2.63-2.842v-2.735c0-.535 0-.98.03-1.345.03-.38.098-.736.27-1.074a2.75 2.75 0 0 1 1.202-1.2c.337-.172.693-.24 1.073-.27.365-.03.81-.03 1.345-.03h2.735c.088 0 .155 0 .215.003a2.75 2.75 0 0 1 2.627 2.627c.003.06.003.127.003.215v.016a.75.75 0 0 1-1.5 0c.001-.055 0-.111-.001-.166a1.25 1.25 0 0 0-1.194-1.194l-.166-.001H11.2c-.573 0-.957.001-1.253.025-.287.023-.424.065-.514.111-.235.12-.427.311-.547.546-.046.091-.088.228-.111.515-.025.296-.025.68-.025 1.252v2.69c-.001.055 0 .111.001.166a1.25 1.25 0 0 0 1.194 1.194l.166.001a.75.75 0 0 1 0 1.5Zm3.505 0a.75.75 0 0 1 0-1.5h.59l-2.72-2.72a.751.751 0 0 1 .018-1.042.751.751 0 0 1 1.042-.018l2.72 2.72v-.59a.75.75 0 0 1 1.5 0V16a.75.75 0 0 1-.75.75Z"/></svg>