<svg xmlns="http://www.w3.org/2000/svg" viewBox="0 0 24 24"><path fill="#636F7E" opacity=".16" d="M22 12a10 10 0 1 1-20 0 10 10 0 1 1 20 0Z"/><path fill="#151E28" d="M1.25 12C1.25 6.063 6.063 1.25 12 1.25S22.75 6.063 22.75 12 17.937 22.75 12 22.75 1.25 17.937 1.25 12ZM12 2.75A9.25 9.25 0 0 0 2.75 12 9.25 9.25 0 0 0 12 21.25 9.25 9.25 0 0 0 21.25 12 9.25 9.25 0 0 0 12 2.75Zm2.773 8.962a.749.749 0 0 1-.326 1.275.749.749 0 0 1-.734-.215l-2.963-2.96v2.432a.75.75 0 0 1-1.5 0V8a.75.75 0 0 1 .75-.75h4.242a.75.75 0 0 1 0 1.5H11.81ZM15 16.75H9a.75.75 0 0 1 0-1.5h6a.75.75 0 0 1 0 1.5Z"/></svg>