<svg xmlns="http://www.w3.org/2000/svg" viewBox="0 0 24 24"><path fill="#636F7E" opacity=".16" d="M21 12a9 9 0 1 1-18 0 9 9 0 1 1 18 0Z"/><path fill="#151E28" d="M5.254 16.75a8.25 8.25 0 0 0 14.981-5.271.75.75 0 1 1 1.498-.094 9.75 9.75 0 0 1-4.858 9.059c-4.297 2.481-9.697 1.319-12.625-2.526V21a.75.75 0 0 1-1.5 0v-5a.75.75 0 0 1 .75-.75h5a.75.75 0 0 1 0 1.5Zm13.492-9.5a8.25 8.25 0 0 0-14.981 5.271.75.75 0 1 1-1.498.094 9.75 9.75 0 0 1 4.858-9.059c4.296-2.48 9.696-1.32 12.625 2.526V3a.75.75 0 0 1 1.5 0v5a.75.75 0 0 1-.75.75h-5a.75.75 0 0 1 0-1.5Z"/></svg>