<svg xmlns="http://www.w3.org/2000/svg" viewBox="0 0 24 24"><path fill="#636F7E" opacity=".16" d="M12 22C6.477 22 2 17.523 2 12S6.477 2 12 2s10 4.477 10 10-4.477 10-10 10Zm3-13h-3.477c-.905 0-1.344 1.108-.684 1.728l.675.636-.893.893a1 1 0 0 0 0 1.415l.707.707a1 1 0 0 0 1.415 0l.893-.893.635.675c.621.66 1.729.221 1.729-.685V10a1 1 0 0 0-1-1Z"/><path fill="#151E28" d="M12 1.25c5.937 0 10.75 4.813 10.75 10.75S17.937 22.75 12 22.75 1.25 17.937 1.25 12 6.063 1.25 12 1.25ZM2.75 12A9.25 9.25 0 0 0 12 21.25 9.25 9.25 0 0 0 21.25 12 9.25 9.25 0 0 0 12 2.75 9.25 9.25 0 0 0 2.75 12Zm14-2v3.476c0 1.586-1.939 2.354-3.025 1.199l-.106-.112-.346.346a1.75 1.75 0 0 1-2.475 0l-.707-.707a1.75 1.75 0 0 1 0-2.475l.346-.346-.113-.106c-1.154-1.085-.386-3.025 1.2-3.025H15c.966 0 1.75.784 1.75 1.75ZM15 9.75h-3.477a.25.25 0 0 0-.171.432l.676.636a.75.75 0 0 1 .017 1.077l-.893.893a.25.25 0 0 0 0 .353l.707.707a.25.25 0 0 0 .353 0l.893-.893a.75.75 0 0 1 1.077.017l.636.676a.25.25 0 0 0 .432-.172V10a.25.25 0 0 0-.25-.25Zm-5.97 4.098h.001l2.12 2.122a.751.751 0 0 1-.018 1.042.751.751 0 0 1-1.042.018L7.97 14.909a.75.75 0 0 1 1.06-1.061Z"/></svg>