<svg xmlns="http://www.w3.org/2000/svg" viewBox="0 0 24 24"><path fill="#636F7E" opacity=".16" d="M18 21a3 3 0 1 1 0-6 3 3 0 0 1 0 6ZM6 21a3 3 0 1 1 0-6 3 3 0 0 1 0 6ZM21 6a3 3 0 1 1-6 0 3 3 0 0 1 6 0ZM6 9a3 3 0 1 1 0-6 3 3 0 0 1 0 6Z"/><path fill="#151E28" d="M21.75 6a3.751 3.751 0 0 1-3 3.675v4.65a3.75 3.75 0 1 1-4.425 4.425h-4.65a3.75 3.75 0 1 1-4.425-4.425v-4.65A3.75 3.75 0 1 1 9.675 5.25h4.65A3.751 3.751 0 0 1 21.75 6ZM9.675 17.25h4.65a3.755 3.755 0 0 1 2.925-2.925v-4.65a3.755 3.755 0 0 1-2.925-2.925h-4.65A3.752 3.752 0 0 1 6.75 9.675v4.65a3.755 3.755 0 0 1 2.925 2.925Zm6.075.75a2.25 2.25 0 1 0 4.5 0 2.25 2.25 0 0 0-4.5 0ZM18 3.75a2.25 2.25 0 1 0 0 4.5 2.25 2.25 0 0 0 0-4.5ZM8.25 18a2.25 2.25 0 1 0-4.5 0 2.25 2.25 0 0 0 4.5 0Zm0-12a2.25 2.25 0 1 0-4.5 0 2.25 2.25 0 0 0 4.5 0Z"/></svg>