<svg xmlns="http://www.w3.org/2000/svg" viewBox="0 0 24 24"><path fill="#636F7E" opacity=".16" d="M12 21a9 9 0 0 1-9-9 9 9 0 0 1 9-9 9 9 0 0 1 9 9 9 9 0 0 1-9 9Zm0-7a2 2 0 1 0 .001-3.999A2 2 0 0 0 12 14Z"/><path fill="#151E28" d="M12 2.25A9.75 9.75 0 0 1 21.75 12 9.75 9.75 0 0 1 12 21.75 9.75 9.75 0 0 1 2.25 12 9.75 9.75 0 0 1 12 2.25ZM3.75 12a8.25 8.25 0 1 0 16.5 0 8.25 8.25 0 0 0-16.5 0ZM12 9.25c.495 0 .959.13 1.36.36a.75.75 0 0 1 1.39.39v2.5a.75.75 0 0 0 1.5 0V12a4.25 4.25 0 1 0-2.362 3.809.75.75 0 0 1 .668 1.343A5.75 5.75 0 1 1 17.75 12v.5a2.25 2.25 0 0 1-3.898 1.532A2.75 2.75 0 1 1 12 9.25ZM10.75 12a1.25 1.25 0 1 0 2.5 0 1.25 1.25 0 0 0-2.5 0Z"/></svg>