<svg xmlns="http://www.w3.org/2000/svg" viewBox="0 0 24 24"><path fill="#636F7E" opacity=".16" d="M12 21a9 9 0 0 1-9-9 9 9 0 0 1 9-9 9 9 0 0 1 9 9 9 9 0 0 1-9 9Zm-3-6 2.908-.582c.756-.15 1.134-.226 1.438-.413.268-.165.494-.39.659-.659.186-.304.262-.682.413-1.438L15 9l-2.908.582c-.756.15-1.134.226-1.438.413-.269.165-.495.39-.66.659-.186.304-.261.682-.413 1.438Z"/><path fill="#151E28" d="M12 2.25c5.384 0 9.75 4.365 9.75 9.75s-4.366 9.75-9.75 9.75A9.75 9.75 0 0 1 2.25 12 9.75 9.75 0 0 1 12 2.25ZM3.75 12a8.25 8.25 0 1 0 16.5 0 8.25 8.25 0 0 0-16.5 0Zm11.985-2.853-.581 2.908-.023.115c-.128.643-.229 1.148-.487 1.568-.226.369-.536.68-.906.907-.421.257-.925.358-1.568.486l-.115.023-2.908.581a.75.75 0 0 1-.883-.882l.582-2.908.023-.115c.128-.643.228-1.148.486-1.568.227-.37.537-.68.907-.907.42-.257.925-.358 1.568-.486l.115-.023 2.908-.581a.75.75 0 0 1 .882.882Zm-3.496 1.17c-.814.163-1.031.217-1.193.317a1.248 1.248 0 0 0-.412.412c-.1.163-.154.379-.318 1.193l-.36 1.804 1.805-.36c.813-.163 1.03-.217 1.193-.317.168-.103.309-.244.412-.412.099-.163.154-.379.317-1.193l.361-1.804Z"/></svg>