<svg xmlns="http://www.w3.org/2000/svg" viewBox="0 0 24 24"><path fill="#636F7E" opacity=".16" d="M8 4h8a4 4 0 0 1 4 4v8a4 4 0 0 1-4 4H8a4 4 0 0 1-4-4V8a4 4 0 0 1 4-4Z"/><path fill="#151E28" d="M20 14.25a.75.75 0 0 1 .75.75v.095c0 .838 0 1.372-.091 1.832a4.751 4.751 0 0 1-3.732 3.732c-.46.091-.994.091-1.832.091H15a.75.75 0 0 1 0-1.5c.965 0 1.338-.004 1.634-.062a3.248 3.248 0 0 0 2.554-2.554c.058-.296.062-.669.062-1.634a.75.75 0 0 1 .75-.75Zm-11.095-11H9a.75.75 0 0 1 0 1.5c-.965 0-1.338.004-1.634.062a3.248 3.248 0 0 0-2.554 2.554c-.058.296-.062.669-.062 1.634a.75.75 0 0 1-1.5 0v-.095c0-.838 0-1.372.091-1.832a4.751 4.751 0 0 1 3.732-3.732c.46-.091.994-.091 1.832-.091ZM4 14.25a.75.75 0 0 1 .75.75c0 .965.004 1.338.062 1.634a3.248 3.248 0 0 0 2.554 2.554c.296.058.669.062 1.634.062a.75.75 0 0 1 0 1.5h-.095c-.838 0-1.372 0-1.832-.091a4.751 4.751 0 0 1-3.732-3.732c-.091-.46-.091-.994-.091-1.832V15a.75.75 0 0 1 .75-.75Zm12.635-9.438c-.297-.058-.67-.062-1.635-.062a.75.75 0 0 1 0-1.5h.095c.838 0 1.372 0 1.832.091a4.751 4.751 0 0 1 3.732 3.732c.091.46.091.994.091 1.832V9a.75.75 0 0 1-1.5 0c0-.965-.004-1.338-.062-1.634a3.248 3.248 0 0 0-2.554-2.554Z"/></svg>