<svg xmlns="http://www.w3.org/2000/svg" viewBox="0 0 24 24"><path fill="#636F7E" opacity=".16" d="M21 12a9 9 0 1 1-18 0 9 9 0 1 1 18 0Z"/><path fill="#151E28" d="M12 2.25A9.75 9.75 0 0 1 21.75 12 9.75 9.75 0 0 1 12 21.75 9.75 9.75 0 0 1 2.25 12 9.75 9.75 0 0 1 12 2.25ZM3.75 12a8.25 8.25 0 1 0 16.5 0 8.25 8.25 0 0 0-16.5 0Zm5.78-3.53L12 10.94l2.47-2.47a.751.751 0 0 1 1.042.018.751.751 0 0 1 .018 1.042L13.06 12l2.47 2.47a.749.749 0 0 1-.326 1.275.749.749 0 0 1-.734-.215L12 13.06l-2.47 2.47a.749.749 0 0 1-1.275-.326.749.749 0 0 1 .215-.734L10.94 12 8.47 9.53a.751.751 0 0 1 .018-1.042.751.751 0 0 1 1.042-.018Z"/></svg>