<svg xmlns="http://www.w3.org/2000/svg" viewBox="0 0 24 24"><path fill="#636F7E" opacity=".16" d="M9.5 9a4 4 0 0 0-4 4 3.5 3.5 0 1 0 0 7h8a3.5 3.5 0 1 0 0-7 4 4 0 0 0-4-4Z"/><path fill="#151E28" d="M9.5 9.75a3.015 3.015 0 0 0-2.603 1.465.75.75 0 1 1-1.29-.764A4.515 4.515 0 0 1 9.5 8.25c2.23 0 4.103 1.6 4.444 3.719 2.145.327 3.806 2.144 3.806 4.364a4.368 4.368 0 0 1-1.418 3.218.75.75 0 0 1-1.017-1.102c.58-.535.935-1.286.935-2.116 0-1.595-1.327-2.916-3-2.916a.75.75 0 0 1-.75-.75c0-1.595-1.327-2.917-3-2.917Zm4.692-2c-.504 0-.985.091-1.428.258a.75.75 0 1 1-.528-1.404 5.559 5.559 0 0 1 7.16 7.16.75.75 0 1 1-1.404-.528 4.056 4.056 0 0 0-3.8-5.486ZM5.75 13.416c-1.673 0-3 1.322-3 2.917 0 .83.356 1.581.935 2.116a.75.75 0 0 1-1.017 1.102 4.368 4.368 0 0 1-1.418-3.218c0-2.455 2.03-4.416 4.5-4.416.636 0 1.244.13 1.795.365a.75.75 0 0 1-.59 1.38 3.063 3.063 0 0 0-1.205-.246ZM7.25 18v2a.75.75 0 0 1-1.5 0v-2a.75.75 0 0 1 1.5 0Zm6 0v2a.75.75 0 0 1-1.5 0v-2a.75.75 0 0 1 1.5 0Zm-3 2v2a.75.75 0 0 1-1.5 0v-2a.75.75 0 0 1 1.5 0ZM14.5 4.7a.85.85 0 1 1 .001-1.701A.85.85 0 0 1 14.5 4.7Zm7.5 7.5a.85.85 0 1 1 .001-1.701A.85.85 0 0 1 22 12.2ZM8.5 6.702a.85.85 0 1 1 1.189-1.216A.85.85 0 0 1 8.5 6.702Zm10.882-.076a.85.85 0 1 1 1.217-1.188.85.85 0 0 1-1.217 1.188Z"/></svg>