<svg xmlns="http://www.w3.org/2000/svg" viewBox="0 0 24 24"><path fill="#636F7E" opacity=".16" d="M15 11.2c0-1.12 0-1.68.218-2.108a2 2 0 0 1 .874-.874C16.52 8 17.08 8 18.2 8h1.6c1.12 0 1.68 0 2.108.218a2 2 0 0 1 .874.874C23 9.52 23 10.08 23 11.2v5.6c0 1.12 0 1.68-.218 2.108a2 2 0 0 1-.874.874C21.48 20 20.92 20 19.8 20h-1.6c-1.12 0-1.68 0-2.108-.218a2 2 0 0 1-.874-.874C15 18.48 15 17.92 15 16.8v-5.6Z"/><path fill="#151E28" d="M19.83 7.25c.535 0 .98 0 1.345.03.38.03.736.098 1.073.27.518.264.938.684 1.202 1.202.172.337.24.693.27 1.073.03.365.03.81.03 1.345v5.66c0 .535 0 .98-.03 1.345-.03.38-.098.736-.27 1.073a2.749 2.749 0 0 1-1.202 1.202c-.337.172-.694.24-1.073.27-.365.03-.81.03-1.345.03h-1.66c-.535 0-.98 0-1.345-.03-.38-.03-.736-.098-1.074-.27a2.755 2.755 0 0 1-1.201-1.201c-.172-.338-.24-.694-.27-1.074-.03-.365-.03-.81-.03-1.345v-5.66c0-.535 0-.98.03-1.345.03-.38.098-.736.27-1.073a2.75 2.75 0 0 1 1.2-1.202c.338-.172.694-.24 1.074-.27.364-.03.81-.03 1.345-.03h1.661Zm-2.883 1.525c-.287.023-.424.065-.515.111-.235.12-.426.312-.546.547-.046.09-.088.227-.111.514-.024.296-.025.68-.025 1.253v5.6c0 .572 0 .957.025 1.252.023.288.065.425.111.515.12.236.311.427.546.547.091.046.228.088.515.111.296.024.68.025 1.253.025h1.6c.572 0 .957 0 1.252-.025.288-.023.425-.065.515-.111.236-.12.427-.311.547-.547.046-.09.088-.227.111-.515.024-.295.025-.68.025-1.252v-5.6c0-.572 0-.957-.025-1.253-.023-.287-.065-.424-.111-.514a1.247 1.247 0 0 0-.547-.547c-.09-.046-.227-.088-.515-.111a6.66 6.66 0 0 0-.347-.018.75.75 0 0 1-.705.493h-2a.75.75 0 0 1-.705-.493 6.756 6.756 0 0 0-.348.018ZM9.367 4.25h5.266c1.092 0 1.958 0 2.655.057.714.058 1.318.18 1.868.461a.751.751 0 1 1-.68 1.336c-.305-.155-.69-.252-1.31-.302-.629-.052-1.434-.052-2.566-.052H9.4c-1.133 0-1.936.001-2.566.052-.62.051-1.005.147-1.31.302a3.258 3.258 0 0 0-1.42 1.42c-.155.305-.252.69-.302 1.31-.052.629-.052 1.433-.052 2.566V15a.75.75 0 0 1-1.5 0v-3.633c0-1.092 0-1.958.057-2.655.058-.714.18-1.318.461-1.868a4.75 4.75 0 0 1 2.075-2.077c.552-.28 1.155-.402 1.869-.46.697-.057 1.563-.057 2.655-.057Zm-4.146 16.5c-.22 0-.372 0-.523-.012a3.75 3.75 0 0 1-1.7-.567c-.128-.081-.249-.172-.425-.304l-.023-.017-.012-.009v-.001a23.872 23.872 0 0 1-.565-.43 2.14 2.14 0 0 1-.402-.4 1.75 1.75 0 0 1 .891-2.675c.183-.051.372-.078.562-.079.183-.006.421-.006.711-.006H13a.75.75 0 0 1 0 1.5H3.75c-.308 0-.519 0-.673.006a1.358 1.358 0 0 0-.162.011H2.91a.247.247 0 0 0-.147.154.248.248 0 0 0 .025.212l.003.003c.04.037.081.072.124.106.176.139.354.275.534.408.114.089.23.173.35.253.308.194.658.311 1.021.34.082.007.171.007.43.007h8.25a.75.75 0 0 1 0 1.5ZM11 6.25h2a.75.75 0 0 1 0 1.5h-2a.75.75 0 0 1 0-1.5Z"/></svg>