<svg xmlns="http://www.w3.org/2000/svg" viewBox="0 0 24 24"><path fill="#636F7E" opacity=".16" d="M7 21h10V3H7v18Z"/><path fill="#151E28" d="M14.633 2.25c.85 0 1.564 0 2.167.027a.747.747 0 0 1 .487.03h.001c.714.058 1.317.18 1.869.46a4.75 4.75 0 0 1 2.075 2.077c.281.55.403 1.154.461 1.868.057.697.057 1.563.057 2.655v5.266c0 1.092 0 1.958-.057 2.655-.058.714-.18 1.317-.46 1.869a4.752 4.752 0 0 1-2.076 2.075c-.552.281-1.155.403-1.869.461h-.001a.747.747 0 0 1-.487.03c-.603.027-1.316.027-2.167.027H9.367c-.85 0-1.564 0-2.167-.027a.754.754 0 0 1-.487-.03h-.001c-.714-.058-1.317-.18-1.868-.46a4.744 4.744 0 0 1-2.076-2.076c-.281-.552-.403-1.155-.461-1.869-.057-.697-.057-1.563-.057-2.655V9.367c0-1.092 0-1.958.057-2.655.058-.714.18-1.317.46-1.868a4.752 4.752 0 0 1 2.077-2.076c.55-.281 1.154-.403 1.868-.461h.001a.747.747 0 0 1 .487-.03c.603-.027 1.316-.027 2.167-.027h5.266ZM6.25 5.5V3.874c-.302.055-.53.13-.726.23a3.258 3.258 0 0 0-1.42 1.42c-.155.305-.252.69-.302 1.31-.052.629-.052 1.434-.052 2.566v5.2c0 1.132.001 1.936.052 2.566.051.621.147 1.005.303 1.309a3.258 3.258 0 0 0 1.42 1.42c.229.112.473.19.725.23V18.5a.75.75 0 0 1 1.5 0v1.74c.462.01 1.002.01 1.65.01h5.2c.648 0 1.188 0 1.65-.01V18.5a.75.75 0 0 1 1.5 0v1.626c.302-.055.53-.13.726-.23a3.258 3.258 0 0 0 1.42-1.42c.155-.305.252-.69.302-1.31.052-.629.052-1.433.052-2.566V9.4c0-1.132-.001-1.936-.052-2.566-.051-.621-.147-1.005-.302-1.309a3.258 3.258 0 0 0-1.42-1.42 2.544 2.544 0 0 0-.726-.23V5.5a.75.75 0 0 1-1.5 0V3.76c-.462-.01-1.002-.01-1.65-.01H9.4c-.55-.002-1.1.001-1.65.01V5.5a.75.75 0 0 1-1.5 0Zm1.5 3v2a.75.75 0 0 1-1.5 0v-2a.75.75 0 0 1 1.5 0Zm0 5v2a.75.75 0 0 1-1.5 0v-2a.75.75 0 0 1 1.5 0Zm10-5v2a.75.75 0 0 1-1.5 0v-2a.75.75 0 0 1 1.5 0Zm0 5v2a.75.75 0 0 1-1.5 0v-2a.75.75 0 0 1 1.5 0Z"/></svg>