<svg xmlns="http://www.w3.org/2000/svg" viewBox="0 0 24 24"><path fill="#636F7E" opacity=".16" d="M17 13a3 3 0 0 1 3 3v2a3 3 0 1 1-6 0v-2a3 3 0 0 1 3-3ZM4 7V3h6v4a3 3 0 1 1-6 0Z"/><path fill="#151E28" d="M17 2.25a.75.75 0 0 1 .75.75v9.325a3.75 3.75 0 0 1 3 3.675v2a3.75 3.75 0 0 1-7.5 0v-2a3.751 3.751 0 0 1 3-3.675V3a.75.75 0 0 1 .75-.75ZM4.75 3v4a2.25 2.25 0 1 0 4.5 0V3a.75.75 0 0 1 1.5 0v4a3.75 3.75 0 0 1-3 3.675V21a.75.75 0 0 1-1.5 0V10.675A3.751 3.751 0 0 1 3.25 7V3a.75.75 0 0 1 1.5 0ZM17 13.75A2.25 2.25 0 0 0 14.75 16v2a2.25 2.25 0 1 0 4.5 0v-2A2.25 2.25 0 0 0 17 13.75ZM7.75 3v4a.75.75 0 0 1-1.5 0V3a.75.75 0 0 1 1.5 0Z"/></svg>