<svg xmlns="http://www.w3.org/2000/svg" viewBox="0 0 24 24"><path fill="#636F7E" opacity=".16" d="M19.07 4.929h.002a4 4 0 0 1 0 5.657l-2.828 2.828a3.983 3.983 0 0 1-1.793 1.036 3.985 3.985 0 0 1-1.036 1.792l-2.828 2.829a4 4 0 0 1-5.657-5.657l2.827-2.828A3.983 3.983 0 0 1 9.55 9.55a3.983 3.983 0 0 1 1.036-1.793l2.828-2.828a4 4 0 0 1 5.656 0Z"/><path fill="#151E28" d="M12.884 4.399a4.75 4.75 0 1 1 6.717 6.717l-2.828 2.829a4.75 4.75 0 0 1-6.717 0 .749.749 0 0 1 .326-1.275.749.749 0 0 1 .734.215 3.25 3.25 0 0 0 4.596 0l2.829-2.83a3.25 3.25 0 0 0-4.596-4.596l-2.122 2.122a.751.751 0 0 1-1.042-.018.751.751 0 0 1-.018-1.042l2.12-2.122Zm-5.657 5.657a4.75 4.75 0 0 1 6.718 0 .748.748 0 0 1-.332 1.265.75.75 0 0 1-.729-.205 3.25 3.25 0 0 0-4.596 0l-2.829 2.829a3.251 3.251 0 0 0 4.597 4.596l2.12-2.121a.75.75 0 1 1 1.062 1.06l-2.122 2.122A4.75 4.75 0 0 1 4.4 12.884l2.828-2.828Z"/></svg>