<svg xmlns="http://www.w3.org/2000/svg" viewBox="0 0 24 24"><path fill="#636F7E" opacity=".16" d="M12 22c-.929 0-1.393 0-1.783-.051a5.999 5.999 0 0 1-5.166-5.166C5 16.393 5 15.93 5 15c0-.929 0-1.393.051-1.783A6 6 0 0 1 8.5 8.545l9.955 9.955a6 6 0 0 1-4.672 3.449C13.393 22 12.93 22 12 22Zm-.2-9a1.8 1.8 0 0 0-1.8 1.8v.4a1.8 1.8 0 0 0 1.8 1.8h.4a1.8 1.8 0 0 0 1.8-1.8v-.4a1.8 1.8 0 0 0-1.8-1.8Z"/><path fill="#151E28" d="M18.643 19.704a6.75 6.75 0 0 1-4.762 2.988c-.44.058-.949.058-1.81.058h-.141c-.862 0-1.372 0-1.811-.058a6.75 6.75 0 0 1-5.811-5.81c-.058-.44-.058-.95-.058-1.812v-.14c0-.862 0-1.372.058-1.811a6.75 6.75 0 0 1 2.988-4.762L1.47 2.53a.751.751 0 0 1 .018-1.042.751.751 0 0 1 1.042-.018l20 20a.749.749 0 0 1-.326 1.275.749.749 0 0 1-.734-.215ZM8.386 9.447a5.252 5.252 0 0 0-2.591 3.868c-.043.329-.045.732-.045 1.685 0 .953.002 1.356.045 1.685a5.25 5.25 0 0 0 4.52 4.52c.329.043.732.045 1.685.045.953 0 1.356-.002 1.685-.045a5.248 5.248 0 0 0 3.868-2.59L14.69 15.75a2.55 2.55 0 0 1-2.49 1.999h-.4a2.55 2.55 0 0 1-2.55-2.55v-.4a2.55 2.55 0 0 1 1.999-2.49ZM9.85 3.562a.749.749 0 0 1-1.252-.405.751.751 0 0 1 .26-.719A4.75 4.75 0 0 1 16.75 6v2.387a6.747 6.747 0 0 1 2.942 4.732c.034.288.052.578.053.868a.75.75 0 0 1-1.5.026 6.076 6.076 0 0 0-.04-.698 5.25 5.25 0 0 0-4.52-4.52 6.076 6.076 0 0 0-.698-.04.75.75 0 0 1 .026-1.5c.29.001.58.019.868.053a6.79 6.79 0 0 1 1.369.327V6a3.25 3.25 0 0 0-5.4-2.438ZM11.8 13.75c-.58 0-1.05.47-1.05 1.05v.4c0 .58.47 1.05 1.05 1.05h.4c.58 0 1.05-.47 1.05-1.05v-.4c0-.58-.47-1.05-1.05-1.05Z"/></svg>