<svg xmlns="http://www.w3.org/2000/svg" viewBox="0 0 24 24"><path fill="#636F7E" opacity=".16" d="M19 11a8 8 0 1 1-16 0 8 8 0 0 1 16 0Z"/><path fill="#151E28" d="M11 2.25a8.75 8.75 0 0 1 6.695 14.384l2.835 2.836a.749.749 0 0 1-.326 1.275.749.749 0 0 1-.734-.215l-2.836-2.835A8.75 8.75 0 1 1 11 2.25ZM3.75 11a7.25 7.25 0 1 0 14.5 0 7.25 7.25 0 0 0-14.5 0Zm3.5 0a.75.75 0 0 1 .75-.75h2.25V8a.75.75 0 0 1 1.5 0v2.25H14a.75.75 0 0 1 0 1.5h-2.25V14a.75.75 0 0 1-1.5 0v-2.25H8a.75.75 0 0 1-.75-.75Z"/></svg>