<svg xmlns="http://www.w3.org/2000/svg" viewBox="0 0 24 24"><path fill="#636F7E" opacity=".16" d="M3 12a9 9 0 0 0 16.5 4.977c.263-.396.395-.595.432-.797a.986.986 0 0 0-.59-1.1C19.155 15 18.77 15 18 15a8 8 0 0 1-7.937-9.01c.148-1.173.222-1.759.056-2.05a.981.981 0 0 0-.678-.484c-.328-.064-.68.108-1.382.45A9 9 0 0 0 3 12Z"/><path fill="#151E28" d="M8.636 2.823c.278-.1.596-.171.947-.103.506.097.93.401 1.187.849.2.35.204.769.188 1.102-.018.359-.076.822-.147 1.381l-.004.032A7.25 7.25 0 0 0 18 14.25h.02c.368 0 .67 0 .904.01.215.011.482.032.715.132a1.736 1.736 0 0 1 1.03 1.924c-.04.217-.125.4-.216.56a8.87 8.87 0 0 1-.316.497l-.013.02A9.75 9.75 0 1 1 7.763 3.217c.284-.146.576-.278.874-.394Zm.507 1.412a8.714 8.714 0 0 0-.755.346 8.251 8.251 0 0 0 1.658 15.429 8.25 8.25 0 0 0 8.83-3.448c.095-.139.186-.281.273-.426a.63.63 0 0 0 .046-.094.234.234 0 0 0-.132-.264c-.012-.002-.07-.012-.209-.019A20.264 20.264 0 0 0 18 15.75a8.749 8.749 0 0 1-8.681-9.853c.075-.6.126-1.005.14-1.3.01-.2-.002-.284-.005-.305a.23.23 0 0 0-.152-.1.624.624 0 0 0-.159.043Z"/></svg>