<svg xmlns="http://www.w3.org/2000/svg" viewBox="0 0 24 24"><path fill="#636F7E" opacity=".16" d="M21 6 9 10V7.306c0-.829 0-1.244.139-1.597.123-.311.321-.587.578-.802.291-.243.684-.374 1.471-.637l5.6-1.866c1.422-.474 2.133-.711 2.699-.569.495.125.924.434 1.199.865C21 3.191 21 3.94 21 5.44Zm0 10a3 3 0 1 1-6 0 3 3 0 0 1 6 0ZM9 19a3 3 0 1 1-6 0 3 3 0 0 1 6 0Z"/><path fill="#151E28" d="M19.67 1.107 21.75 6v10a3.751 3.751 0 1 1-1.5-3V7.04l-10.5 3.5v8.459a3.751 3.751 0 1 1-1.5-3V7.18c-.001-.705-.001-1.257.191-1.745.168-.428.442-.808.795-1.103.402-.337.926-.511 1.595-.733l.12-.04 5.6-1.867.034-.011c.682-.227 1.241-.414 1.701-.523.471-.111.929-.165 1.384-.051Zm-2.645 2.008-5.6 1.867c-.847.282-1.072.37-1.227.5a1.244 1.244 0 0 0-.361.502c-.074.188-.087.429-.087 1.322v1.653l10.5-3.5v-.02c0-.763-.001-1.285-.036-1.68-.035-.391-.099-.56-.16-.657a1.252 1.252 0 0 0-.75-.54c-.11-.028-.291-.034-.673.056-.386.091-.881.256-1.606.497ZM18 13.75a2.25 2.25 0 1 0 0 4.5 2.25 2.25 0 0 0 0-4.5Zm-12 3a2.25 2.25 0 1 0 0 4.5 2.25 2.25 0 0 0 0-4.5ZM21.75 5.998l-2.08-4.891a2.748 2.748 0 0 1 1.648 1.189c.253.395.347.848.39 1.328.042.47.042 1.06.042 1.78Z"/></svg>