<svg xmlns="http://www.w3.org/2000/svg" viewBox="0 0 24 24"><path fill="#636F7E" opacity=".16" d="M6 21a2 2 0 1 1-.001-3.999A2 2 0 0 1 6 21ZM18 7a2 2 0 1 1-.001-3.999A2 2 0 0 1 18 7Z"/><path fill="#151E28" d="M7.5 5.75a2.75 2.75 0 1 0 0 5.5h9a4.25 4.25 0 0 1 0 8.5H8.646a2.75 2.75 0 1 1 0-1.5H16.5a2.75 2.75 0 1 0 0-5.5h-9a4.25 4.25 0 0 1 0-8.5H12a.75.75 0 0 1 0 1.5ZM15.25 5a2.75 2.75 0 1 1 5.5 0 2.75 2.75 0 0 1-5.5 0Zm-8 14a1.25 1.25 0 1 0-2.5 0 1.25 1.25 0 0 0 2.5 0ZM18 3.75a1.25 1.25 0 1 0 0 2.5 1.25 1.25 0 0 0 0-2.5Z"/></svg>