<svg xmlns="http://www.w3.org/2000/svg" viewBox="0 0 24 24"><path fill="#636F7E" opacity=".16" d="M7 13.75v.5A1.75 1.75 0 0 1 5.25 16h-.5A1.75 1.75 0 0 1 3 14.25v-.5c0-.966.784-1.75 1.75-1.75h.5c.966 0 1.75.784 1.75 1.75ZM12.25 7c.966 0 1.75.784 1.75 1.75v.5A1.75 1.75 0 0 1 12.25 11h-.5A1.75 1.75 0 0 1 10 9.25v-.5c0-.966.783-1.75 1.75-1.75Zm7 5c.966 0 1.75.784 1.75 1.75v.5A1.75 1.75 0 0 1 19.25 16h-.5A1.75 1.75 0 0 1 17 14.25v-.5c0-.966.783-1.75 1.75-1.75Z"/><path fill="#151E28" d="M21.75 13.75v.5a2.5 2.5 0 0 1-2.5 2.5h-.5a2.5 2.5 0 0 1-2.5-2.5v-.5a2.5 2.5 0 0 1 2.5-2.5h.5a2.5 2.5 0 0 1 2.5 2.5Zm-14 0v.5a2.5 2.5 0 0 1-2.5 2.5h-.5a2.5 2.5 0 0 1-2.5-2.5v-.5a2.5 2.5 0 0 1 2.5-2.5h.5a2.5 2.5 0 0 1 2.5 2.5Zm4.5-7.5a2.5 2.5 0 0 1 2.5 2.5v.5a2.5 2.5 0 0 1-2.5 2.5h-.5a2.5 2.5 0 0 1-2.5-2.5v-.5a2.5 2.5 0 0 1 2.5-2.5Zm-.25 7a.75.75 0 0 1 .75.75v7a.75.75 0 0 1-1.5 0v-7a.75.75 0 0 1 .75-.75ZM5.75 3v6a.75.75 0 0 1-1.5 0V3a.75.75 0 0 1 1.5 0ZM19 2.25a.75.75 0 0 1 .75.75v6a.75.75 0 0 1-1.5 0V3a.75.75 0 0 1 .75-.75Zm-5.75 6.5a1 1 0 0 0-1-1h-.5a1 1 0 0 0-1 1v.5a1 1 0 0 0 1 1h.5a1 1 0 0 0 1-1Zm-8 4h-.5a1 1 0 0 0-1 1v.5a1 1 0 0 0 1 1h.5a1 1 0 0 0 1-1v-.5a1 1 0 0 0-1-1Zm14 0h-.5a1 1 0 0 0-1 1v.5a1 1 0 0 0 1 1h.5a1 1 0 0 0 1-1v-.5a1 1 0 0 0-1-1ZM5 18.25a.75.75 0 0 1 .75.75v2a.75.75 0 0 1-1.5 0v-2a.75.75 0 0 1 .75-.75Zm14 0a.75.75 0 0 1 .75.75v2a.75.75 0 0 1-1.5 0v-2a.75.75 0 0 1 .75-.75ZM12.75 3v1a.75.75 0 0 1-1.5 0V3a.75.75 0 0 1 1.5 0Z"/></svg>