<svg xmlns="http://www.w3.org/2000/svg" viewBox="0 0 24 24"><path fill="#636F7E" opacity=".16" d="M21 12a9 9 0 1 1-18 0 9 9 0 1 1 18 0Z"/><path fill="#151E28" d="m21.03 5.03-1.626 1.626A9.714 9.714 0 0 1 21.75 13 9.75 9.75 0 0 1 12 22.75 9.75 9.75 0 0 1 2.25 13 9.75 9.75 0 0 1 12 3.25a9.714 9.714 0 0 1 6.344 2.346L19.97 3.97a.749.749 0 0 1 1.275.326.749.749 0 0 1-.215.734ZM12 4.75a8.25 8.25 0 1 0 0 16.5 8.25 8.25 0 0 0 0-16.5Zm-2-4.5h4a.75.75 0 0 1 0 1.5h-4a.75.75 0 0 1 0-1.5Zm2 9a.75.75 0 0 1 .75.75v4a.75.75 0 0 1-1.5 0v-4a.75.75 0 0 1 .75-.75Z"/></svg>