<svg xmlns="http://www.w3.org/2000/svg" viewBox="0 0 24 24"><path fill="#636F7E" opacity=".16" d="M21 12a9 9 0 1 1-18 0 9 9 0 1 1 18 0Z"/><path fill="#151E28" d="M21.75 12A9.75 9.75 0 0 1 12 21.75 9.75 9.75 0 0 1 2.25 12 9.75 9.75 0 0 1 12 2.25 9.75 9.75 0 0 1 21.75 12Zm-9-8.216V6a.75.75 0 0 1-1.5 0V3.784a8.254 8.254 0 0 0-7.466 7.466H6a.75.75 0 0 1 0 1.5H3.784a8.254 8.254 0 0 0 7.466 7.466V18a.75.75 0 0 1 1.5 0v2.216a8.254 8.254 0 0 0 7.466-7.466H18a.75.75 0 0 1 0-1.5h2.216a8.254 8.254 0 0 0-7.466-7.466Z"/></svg>