<svg viewBox="0 0 32 32" fill="none" xmlns="http://www.w3.org/2000/svg">
<path d="M23 22H9C7.89543 22 7 21.1046 7 20C7 17.8128 9 18 9 13C9 9.134 12.134 6 16 6C19.866 6 23 9.134 23 13C23 18 25 17.8128 25 20C25 21.1046 24.1046 22 23 22Z" fill="white"/>
<path d="M23.3532 17.9345L24.6468 17.1751L24.6468 17.1751L23.3532 17.9345ZM23.7131 18.5183L24.9791 17.7138L24.9791 17.7137L23.7131 18.5183ZM8.28686 18.5183L7.02088 17.7137L7.02087 17.7137L8.28686 18.5183ZM8.64676 17.9345L9.94029 18.694L9.94029 18.694L8.64676 17.9345ZM7.35324 17.1751L6.05971 16.4156L6.05971 16.4156L7.35324 17.1751ZM7.1032 17.5731L8.36185 18.389L8.36185 18.389L7.1032 17.5731ZM24.8968 17.5731L26.1555 16.7571C26.152 16.7517 26.1484 16.7463 26.1449 16.741L24.8968 17.5731ZM24.8968 17.573L23.6381 18.389C23.6416 18.3943 23.6451 18.3997 23.6487 18.405L24.8968 17.573ZM24.6468 17.1751L23.3532 17.9345L23.3532 17.9345L24.6468 17.1751ZM12.921 23.2929L12.4211 21.8786L12.4211 21.8786L12.921 23.2929ZM13.878 23.7501L15.2923 23.2502L15.2923 23.2502L13.878 23.7501ZM12.4638 24.2499L11.0495 24.7498L11.0495 24.7498L12.4638 24.2499ZM19.5366 24.2499L20.9509 24.7498L20.9509 24.7498L19.5366 24.2499ZM19.0794 23.2929L19.5793 21.8786L19.5793 21.8786L19.0794 23.2929ZM18.1224 23.7501L16.7081 23.2502L16.7081 23.2502L18.1224 23.7501ZM16 5.25C11.7198 5.25 8.25 8.71979 8.25 13H11.25C11.25 10.3766 13.3766 8.25 16 8.25V5.25ZM23.75 13C23.75 8.71979 20.2802 5.25 16 5.25V8.25C18.6234 8.25 20.75 10.3766 20.75 13H23.75ZM24.6468 17.1751C24.2198 16.4479 23.75 15.3777 23.75 13H20.75C20.75 15.8669 21.3405 17.4691 22.0597 18.694L24.6468 17.1751ZM24.9791 17.7137C24.8737 17.5478 24.7663 17.3786 24.6468 17.1751L22.0597 18.694C22.2088 18.948 22.3418 19.1571 22.4472 19.3228L24.9791 17.7137ZM25.75 20C25.75 19.514 25.675 19.0855 25.5018 18.6606C25.3504 18.2891 25.1344 17.958 24.9791 17.7138L22.4471 19.3228C22.5388 19.467 22.5987 19.5617 22.6474 19.6456C22.6931 19.7243 22.7134 19.7676 22.7237 19.7929C22.7315 19.812 22.75 19.849 22.75 20H25.75ZM23 22.75C24.5188 22.75 25.75 21.5188 25.75 20H22.75C22.75 19.8619 22.8619 19.75 23 19.75L23 22.75ZM9 22.75L23 22.75L23 19.75H9V22.75ZM6.25 20C6.25 21.5188 7.48122 22.75 9 22.75V19.75C9.13807 19.75 9.25 19.8619 9.25 20H6.25ZM7.02087 17.7137C6.86565 17.958 6.64959 18.2891 6.49817 18.6606C6.32501 19.0855 6.25 19.514 6.25 20H9.25C9.25 19.849 9.26848 19.812 9.27628 19.7929C9.28659 19.7676 9.30691 19.7243 9.35264 19.6456C9.40129 19.5617 9.46121 19.467 9.55285 19.3228L7.02087 17.7137ZM7.35324 17.1751C7.23372 17.3786 7.12635 17.5478 7.02088 17.7137L9.55285 19.3228C9.65818 19.1571 9.79118 18.948 9.94029 18.694L7.35324 17.1751ZM8.25 13C8.25 15.3777 7.78016 16.4479 7.35324 17.1751L9.94029 18.694C10.6595 17.4691 11.25 15.8669 11.25 13H8.25ZM9.75 13C9.75 9.54821 12.5482 6.75 16 6.75V3.75C10.8914 3.75 6.75 7.89136 6.75 13H9.75ZM8.64676 17.9345C9.21979 16.9586 9.75 15.6224 9.75 13H6.75C6.75 15.133 6.34057 15.9372 6.05971 16.4156L8.64676 17.9345ZM8.36185 18.389C8.44646 18.2585 8.55045 18.0986 8.64676 17.9345L6.05971 16.4156C6.00302 16.5122 5.93649 16.6153 5.84454 16.7571L8.36185 18.389ZM7.75 20C7.75 19.3633 7.97759 18.9818 8.36185 18.389L5.84455 16.7571C5.43648 17.3866 4.75 18.415 4.75 20H7.75ZM9 21.25C8.30964 21.25 7.75 20.6904 7.75 20H4.75C4.75 22.3472 6.65279 24.25 9 24.25V21.25ZM23 21.25L9 21.25V24.25L23 24.25L23 21.25ZM24.25 20C24.25 20.6904 23.6904 21.25 23 21.25L23 24.25C25.3472 24.25 27.25 22.3472 27.25 20H24.25ZM23.6381 18.389C24.0224 18.9818 24.25 19.3633 24.25 20H27.25C27.25 18.415 26.5635 17.3865 26.1555 16.7571L23.6381 18.389ZM23.6487 18.405L23.6487 18.4051L26.1449 16.741L26.1448 16.7409L23.6487 18.405ZM23.3532 17.9345C23.4495 18.0986 23.5535 18.2584 23.6381 18.389L26.1554 16.757C26.0635 16.6152 25.997 16.5121 25.9403 16.4156L23.3532 17.9345ZM22.25 13C22.25 15.6224 22.7802 16.9586 23.3532 17.9345L25.9403 16.4156C25.6594 15.9372 25.25 15.133 25.25 13H22.25ZM16 6.75C19.4518 6.75 22.25 9.54821 22.25 13H25.25C25.25 7.89136 21.1086 3.75 16 3.75V6.75ZM13.4208 24.7071C13.0303 24.8452 12.6018 24.6405 12.4638 24.2499L15.2923 23.2502C14.8782 22.0786 13.5927 21.4645 12.4211 21.8786L13.4208 24.7071ZM13.878 23.7501C14.0161 24.1406 13.8114 24.5691 13.4208 24.7071L12.4211 21.8786C11.2495 22.2927 10.6354 23.5782 11.0495 24.7498L13.878 23.7501ZM16.0002 25.25C15.0223 25.25 14.1875 24.6256 13.878 23.7501L11.0495 24.7498C11.7689 26.7852 13.7101 28.25 16.0002 28.25V25.25ZM18.1224 23.7501C17.8129 24.6256 16.978 25.25 16.0002 25.25V28.25C18.2902 28.25 20.2315 26.7852 20.9509 24.7498L18.1224 23.7501ZM18.5796 24.7071C18.189 24.5691 17.9843 24.1406 18.1224 23.7501L20.9509 24.7498C21.365 23.5782 20.7509 22.2927 19.5793 21.8786L18.5796 24.7071ZM19.5366 24.2499C19.3986 24.6405 18.9701 24.8452 18.5796 24.7071L19.5793 21.8786C18.4077 21.4645 17.1222 22.0786 16.7081 23.2502L19.5366 24.2499ZM16.0002 26.75C17.6331 26.75 19.0218 25.7065 19.5366 24.2499L16.7081 23.2502C16.6044 23.5435 16.3243 23.75 16.0002 23.75V26.75ZM12.4638 24.2499C12.9786 25.7065 14.3673 26.75 16.0002 26.75V23.75C15.6761 23.75 15.396 23.5435 15.2923 23.2502L12.4638 24.2499Z" fill="white"/>
<path fill-rule="evenodd" clip-rule="evenodd" d="M9.75 13C9.75 9.54821 12.5482 6.75 16 6.75C19.4518 6.75 22.25 9.54821 22.25 13C22.25 15.6223 22.7802 16.9585 23.3532 17.9345C23.4876 18.1633 23.6077 18.3524 23.7131 18.5183C24.063 19.0689 24.25 19.3631 24.25 20C24.25 20.6904 23.6904 21.25 23 21.25L9 21.25C8.30964 21.25 7.75 20.6904 7.75 20C7.75 19.3631 7.93697 19.0689 8.28686 18.5183C8.39227 18.3524 8.51245 18.1633 8.64676 17.9345C9.21982 16.9585 9.75 15.6223 9.75 13ZM16 5.25C11.7198 5.25 8.25 8.71979 8.25 13C8.25 15.3777 7.78018 16.4479 7.35324 17.1751C7.27673 17.3054 7.19148 17.4369 7.1032 17.5731C6.70703 18.1842 6.25 18.8891 6.25 20C6.25 21.5188 7.48122 22.75 9 22.75L23 22.75C24.5188 22.75 25.75 21.5188 25.75 20C25.75 18.8891 25.293 18.1842 24.8968 17.5731L24.8968 17.573C24.8085 17.4368 24.7233 17.3054 24.6468 17.1751C24.2198 16.4479 23.75 15.3777 23.75 13C23.75 8.71979 20.2802 5.25 16 5.25ZM13.878 23.7501C13.74 23.3595 13.3115 23.1548 12.921 23.2929C12.5304 23.4309 12.3257 23.8594 12.4638 24.2499C12.9782 25.7054 14.3662 26.75 16.0002 26.75C17.6341 26.75 19.0222 25.7054 19.5366 24.2499C19.6747 23.8594 19.47 23.4309 19.0794 23.2929C18.6889 23.1548 18.2604 23.3595 18.1224 23.7501C17.8131 24.625 16.9787 25.25 16.0002 25.25C15.0217 25.25 14.1873 24.625 13.878 23.7501Z" fill="#151E28"/>
</svg>
