<svg viewBox="0 0 32 32" fill="none" xmlns="http://www.w3.org/2000/svg">
<path d="M10 13C10 9.68629 12.6863 7 16 7V7C19.3137 7 22 9.68629 22 13V20C22 23.3137 19.3137 26 16 26V26C12.6863 26 10 23.3137 10 20L10 13Z" fill="white"/>
<path d="M22.5304 6.53033L23.591 7.59099L23.591 7.59099L22.5304 6.53033ZM22.5304 5.46967L23.591 4.40901L23.591 4.40901L22.5304 5.46967ZM20.8033 8.25746L19.7426 7.19679C19.1594 7.77997 19.1564 8.72455 19.7359 9.3114L20.8033 8.25746ZM22.7501 13.5979H21.2501C21.2501 14.1522 21.5557 14.6613 22.045 14.9219C22.5343 15.1824 23.1273 15.1519 23.5873 14.8425L22.7501 13.5979ZM23.7383 12.8231L24.8971 13.7755L24.8971 13.7755L23.7383 12.8231ZM24.153 12.0483L22.7177 11.6124L22.7177 11.6124L24.153 12.0483ZM25.7501 10.4311L24.2501 10.4311L24.2501 10.4315L25.7501 10.4311ZM25.7501 10.5418L24.2501 10.5422L24.2501 10.5424L25.7501 10.5418ZM25.5882 12.4841L24.153 12.0483L24.153 12.0483L25.5882 12.4841ZM24.8971 13.7755L26.0559 14.728L26.0559 14.728L24.8971 13.7755ZM23.3708 14.9876L22.5392 13.7392L22.539 13.7393L23.3708 14.9876ZM23.2786 15.049L22.4469 13.8007L22.4466 13.8009L23.2786 15.049ZM22.7501 15.4014L21.918 14.1533C21.5007 14.4315 21.2501 14.8999 21.2501 15.4014H22.7501ZM22.7501 18.5986H21.2501C21.2501 19.1001 21.5007 19.5685 21.918 19.8467L22.7501 18.5986ZM23.2786 18.951L22.4466 20.1991L22.4469 20.1993L23.2786 18.951ZM23.3708 19.0124L22.539 20.2607L22.5392 20.2608L23.3708 19.0124ZM24.8971 20.2245L26.0559 19.272L26.0559 19.272L24.8971 20.2245ZM25.5882 21.5159L24.153 21.9517L24.153 21.9517L25.5882 21.5159ZM25.7501 23.4582L24.2501 23.4576L24.2501 23.4578L25.7501 23.4582ZM25.7501 23.5689L24.2501 23.5685V23.5689H25.7501ZM24.153 21.9517L22.7177 22.3876L22.7177 22.3876L24.153 21.9517ZM23.7383 21.1769L24.8971 20.2245L24.8971 20.2245L23.7383 21.1769ZM22.7387 20.3945L23.5756 19.1497C23.1285 18.8491 22.5545 18.8113 22.0719 19.0509C21.5893 19.2904 21.2722 19.7703 21.2412 20.3082L22.7387 20.3945ZM9.26139 20.3945L10.7589 20.3082C10.7279 19.7703 10.4108 19.2904 9.92821 19.0509C9.4456 18.8113 8.87161 18.8491 8.42449 19.1497L9.26139 20.3945ZM8.26182 21.1769L7.103 20.2245L7.103 20.2245L8.26182 21.1769ZM7.84714 21.9517L9.28241 22.3876L9.28242 22.3876L7.84714 21.9517ZM6.25005 23.5689L7.75005 23.5689L7.75005 23.5685L6.25005 23.5689ZM6.25003 23.4582L7.75003 23.4578L7.75003 23.4576L6.25003 23.4582ZM6.41187 21.5159L7.84714 21.9517L7.84714 21.9517L6.41187 21.5159ZM7.10301 20.2245L5.94419 19.272L5.94419 19.272L7.10301 20.2245ZM8.62934 19.0124L9.46094 20.2608L9.4611 20.2607L8.62934 19.0124ZM8.72146 18.951L9.55322 20.1993L9.55352 20.1991L8.72146 18.951ZM9.25005 18.5986L10.0821 19.8467C10.4994 19.5685 10.7501 19.1001 10.7501 18.5986H9.25005ZM9.25005 15.4014H10.7501C10.7501 14.8999 10.4994 14.4315 10.0821 14.1533L9.25005 15.4014ZM8.72146 15.049L9.55352 13.8009L9.55322 13.8007L8.72146 15.049ZM8.62934 14.9876L9.4611 13.7393L9.46094 13.7392L8.62934 14.9876ZM7.10301 13.7755L5.94419 14.728L5.94419 14.728L7.10301 13.7755ZM6.41187 12.4841L4.97659 12.92L4.97659 12.92L6.41187 12.4841ZM6.25003 10.5418L7.75003 10.5424L7.75003 10.5422L6.25003 10.5418ZM6.25005 10.4311L7.75005 10.4315V10.4311H6.25005ZM7.84714 12.0483L9.28242 11.6124L9.28242 11.6124L7.84714 12.0483ZM8.26182 12.8231L7.103 13.7755L7.10301 13.7755L8.26182 12.8231ZM9.25005 13.5979L8.41283 14.8425C8.87276 15.1519 9.46583 15.1824 9.95509 14.9219C10.4444 14.6613 10.7501 14.1522 10.7501 13.5979H9.25005ZM11.1968 8.25746L12.2642 9.3114C12.8437 8.72455 12.8407 7.77997 12.2575 7.1968L11.1968 8.25746ZM9.46972 6.53033L10.5304 5.46967L10.5304 5.46967L9.46972 6.53033ZM9.46972 5.46967L8.40906 4.40901L8.40906 4.40901L9.46972 5.46967ZM10.5304 5.46967L11.591 4.40901L11.591 4.40901L10.5304 5.46967ZM12.3693 7.30862L11.3087 8.36928C11.8066 8.86723 12.5839 8.95175 13.1773 8.57245L12.3693 7.30862ZM19.6308 7.30862L18.8229 8.57245C19.4162 8.95175 20.1935 8.86723 20.6914 8.36928L19.6308 7.30862ZM21.4697 5.46967L22.5304 6.53033L22.5304 6.53033L21.4697 5.46967ZM10.7501 18.9884H9.25005C9.25005 18.9956 9.25011 19.0029 9.25021 19.0102L10.7501 18.9884ZM10.7501 19.0103L9.25021 18.9884C9.25011 18.9957 9.25005 19.003 9.25005 19.0103L10.7501 19.0103ZM10.7501 15.75V14.25C9.92163 14.25 9.25005 14.9216 9.25005 15.75H10.7501ZM21.2501 15.75H22.7501C22.7501 14.9216 22.0785 14.25 21.2501 14.25V15.75ZM21.2501 18.9884L22.7501 18.9975V18.9884H21.2501ZM21.25 19.0011L19.75 18.9919C19.75 18.9992 19.75 19.0064 19.75 19.0137L21.25 19.0011ZM21.2501 19.0102L22.7501 19.0102L22.75 18.9976L21.2501 19.0102ZM10.7501 14.25H9.25005C9.25005 15.0784 9.92163 15.75 10.7501 15.75V14.25ZM21.2501 14.25V15.75C22.0785 15.75 22.7501 15.0784 22.7501 14.25H21.2501ZM23.591 7.59099C24.4697 6.71231 24.4697 5.28769 23.591 4.40901L21.4697 6.53033C21.1768 6.23744 21.1768 5.76256 21.4697 5.46967L23.591 7.59099ZM21.8639 9.31812L23.591 7.59099L21.4697 5.46967L19.7426 7.19679L21.8639 9.31812ZM24.2501 13C24.2501 10.7412 23.3403 8.69186 21.8706 7.20351L19.7359 9.3114C20.6737 10.2611 21.2501 11.5618 21.2501 13L24.2501 13ZM24.2501 13.5979V13L21.2501 13V13.5979H24.2501ZM22.5795 11.8707C22.5788 11.8715 22.5782 11.8721 22.5772 11.8732C22.5762 11.8743 22.5732 11.8774 22.5675 11.8828C22.5555 11.8941 22.5302 11.9166 22.481 11.9549C22.3742 12.0379 22.2086 12.1543 21.9128 12.3533L23.5873 14.8425C24.1365 14.473 24.5632 14.1818 24.8971 13.7755L22.5795 11.8707ZM22.7177 11.6124C22.689 11.7067 22.6421 11.7945 22.5795 11.8707L24.8971 13.7755C25.2101 13.3947 25.445 12.9559 25.5882 12.4841L22.7177 11.6124ZM22.7501 10.4311C22.7501 10.9347 22.7477 11.2225 22.7372 11.4187C22.7323 11.5105 22.7265 11.5605 22.7226 11.5869C22.7207 11.5992 22.7193 11.6057 22.7188 11.6081C22.7183 11.6103 22.718 11.6113 22.7177 11.6124L25.5882 12.4841C25.7583 11.9243 25.7501 11.3153 25.7501 10.4311H22.7501ZM22.7501 10V10.4311H25.7501V10H22.7501ZM25.0001 7.75C23.7574 7.75 22.7501 8.75736 22.7501 10H25.7501C25.7501 10.4142 25.4143 10.75 25.0001 10.75V7.75ZM27.2501 10C27.2501 8.75736 26.2427 7.75 25.0001 7.75V10.75C24.5858 10.75 24.2501 10.4142 24.2501 10H27.2501ZM27.2501 10.4311V10H24.2501V10.4311H27.2501ZM27.2501 10.5415L27.2501 10.4308L24.2501 10.4315L24.2501 10.5422L27.2501 10.5415ZM27.0235 12.92C27.264 12.1282 27.2504 11.3065 27.2501 10.5413L24.2501 10.5424C24.2504 11.4416 24.2372 11.7709 24.153 12.0483L27.0235 12.92ZM26.0559 14.728C26.4942 14.1948 26.823 13.5804 27.0235 12.92L24.153 12.0483C24.067 12.3313 23.9261 12.5946 23.7383 12.8231L26.0559 14.728ZM24.2024 16.236C24.8392 15.8117 25.5305 15.3673 26.0559 14.728L23.7383 12.8231C23.5542 13.0471 23.2875 13.2407 22.5392 13.7392L24.2024 16.236ZM24.1104 16.2973L24.2025 16.2359L22.539 13.7393L22.4469 13.8007L24.1104 16.2973ZM23.5821 16.6495L24.1107 16.2971L22.4466 13.8009L21.918 14.1533L23.5821 16.6495ZM24.2501 18.5986V15.4014H21.2501L21.2501 18.5986H24.2501ZM24.1107 17.7029L23.5821 17.3505L21.918 19.8467L22.4466 20.1991L24.1107 17.7029ZM24.2025 17.7641L24.1104 17.7027L22.4469 20.1993L22.539 20.2607L24.2025 17.7641ZM26.0559 19.272C25.5305 18.6327 24.8392 18.1883 24.2024 17.764L22.5392 20.2608C23.2875 20.7593 23.5542 20.9529 23.7383 21.1769L26.0559 19.272ZM27.0235 21.08C26.823 20.4196 26.4942 19.8052 26.0559 19.272L23.7383 21.1769C23.9261 21.4054 24.067 21.6687 24.153 21.9517L27.0235 21.08ZM27.2501 23.4587C27.2504 22.6935 27.264 21.8718 27.0235 21.08L24.153 21.9517C24.2372 22.2291 24.2504 22.5584 24.2501 23.4576L27.2501 23.4587ZM27.2501 23.5692L27.2501 23.4585L24.2501 23.4578L24.2501 23.5685L27.2501 23.5692ZM27.2501 24V23.5689H24.2501V24H27.2501ZM25.0001 26.25C26.2427 26.25 27.2501 25.2426 27.2501 24H24.2501C24.2501 23.5858 24.5858 23.25 25.0001 23.25V26.25ZM22.7501 24C22.7501 25.2426 23.7574 26.25 25.0001 26.25V23.25C25.4143 23.25 25.7501 23.5858 25.7501 24H22.7501ZM22.7501 23.5689V24H25.7501V23.5689H22.7501ZM22.7177 22.3876C22.718 22.3887 22.7183 22.3897 22.7188 22.3919C22.7193 22.3943 22.7207 22.4008 22.7226 22.4131C22.7265 22.4395 22.7323 22.4895 22.7372 22.5813C22.7477 22.7775 22.7501 23.0653 22.7501 23.5689H25.7501C25.7501 22.6847 25.7583 22.0757 25.5882 21.5159L22.7177 22.3876ZM22.5795 22.1293C22.6421 22.2055 22.689 22.2933 22.7177 22.3876L25.5882 21.5159C25.445 21.0441 25.2101 20.6053 24.8971 20.2245L22.5795 22.1293ZM21.9018 21.6393C22.2022 21.8412 22.3705 21.9593 22.4791 22.0437C22.5292 22.0826 22.555 22.1054 22.5673 22.117C22.5731 22.1225 22.5761 22.1256 22.5772 22.1268C22.5782 22.1278 22.5788 22.1285 22.5795 22.1293L24.8971 20.2245C24.5615 19.8162 24.1315 19.5233 23.5756 19.1497L21.9018 21.6393ZM16.0001 28.25C20.3951 28.25 23.9865 24.8141 24.2362 20.4808L21.2412 20.3082C21.0824 23.0635 18.796 25.25 16.0001 25.25V28.25ZM7.76387 20.4808C8.01359 24.8141 11.605 28.25 16.0001 28.25V25.25C13.2041 25.25 10.9177 23.0635 10.7589 20.3082L7.76387 20.4808ZM9.42064 22.1293C9.42133 22.1285 9.42189 22.1278 9.42291 22.1268C9.42399 22.1256 9.42699 22.1225 9.43285 22.117C9.44512 22.1054 9.47089 22.0826 9.52099 22.0437C9.62965 21.9593 9.79795 21.8412 10.0983 21.6393L8.42449 19.1497C7.86865 19.5233 7.43857 19.8162 7.103 20.2245L9.42064 22.1293ZM9.28242 22.3876C9.31107 22.2933 9.35804 22.2055 9.42064 22.1293L7.103 20.2245C6.78998 20.6053 6.55512 21.0441 6.41187 21.5159L9.28242 22.3876ZM9.25005 23.5689C9.25005 23.0653 9.25239 22.7775 9.2629 22.5813C9.26783 22.4895 9.27358 22.4395 9.27755 22.4131C9.2794 22.4008 9.28078 22.3943 9.28132 22.3919C9.28181 22.3897 9.2821 22.3887 9.28241 22.3876L6.41187 21.5159C6.24185 22.0757 6.25005 22.6847 6.25005 23.5689H9.25005ZM9.25005 24V23.5689H6.25005L6.25005 24H9.25005ZM7.00005 26.25C8.24269 26.25 9.25005 25.2426 9.25005 24H6.25005C6.25005 23.5858 6.58584 23.25 7.00005 23.25L7.00005 26.25ZM4.75005 24C4.75005 25.2426 5.75741 26.25 7.00005 26.25L7.00005 23.25C7.41427 23.25 7.75005 23.5858 7.75005 24H4.75005ZM4.75005 23.5689V24H7.75005V23.5689H4.75005ZM4.75003 23.4585L4.75005 23.5692L7.75005 23.5685L7.75003 23.4578L4.75003 23.4585ZM4.97659 21.08C4.73613 21.8718 4.74975 22.6935 4.75003 23.4587L7.75003 23.4576C7.7497 22.5584 7.7629 22.2291 7.84714 21.9517L4.97659 21.08ZM5.94419 19.272C5.50595 19.8052 5.17715 20.4196 4.97659 21.08L7.84714 21.9517C7.93309 21.6687 8.07401 21.4054 8.26182 21.1769L5.94419 19.272ZM7.79775 17.764C7.16087 18.1883 6.46963 18.6327 5.94419 19.272L8.26182 21.1769C8.44591 20.9529 8.71256 20.7593 9.46094 20.2608L7.79775 17.764ZM7.88971 17.7027L7.79759 17.7641L9.4611 20.2607L9.55322 20.1993L7.88971 17.7027ZM8.418 17.3505L7.88941 17.7029L9.55352 20.1991L10.0821 19.8467L8.418 17.3505ZM7.75005 15.4014V18.5986H10.7501V15.4014H7.75005ZM7.88941 16.2971L8.418 16.6495L10.0821 14.1533L9.55352 13.8009L7.88941 16.2971ZM7.79759 16.2359L7.88971 16.2973L9.55322 13.8007L9.4611 13.7393L7.79759 16.2359ZM5.94419 14.728C6.46963 15.3673 7.16087 15.8117 7.79775 16.236L9.46094 13.7392C8.71256 13.2407 8.44591 13.0471 8.26182 12.8231L5.94419 14.728ZM4.97659 12.92C5.17715 13.5804 5.50595 14.1948 5.94419 14.728L8.26182 12.8231C8.07401 12.5946 7.93309 12.3313 7.84714 12.0483L4.97659 12.92ZM4.75003 10.5413C4.74975 11.3065 4.73613 12.1282 4.97659 12.92L7.84714 12.0483C7.7629 11.7709 7.7497 11.4416 7.75003 10.5424L4.75003 10.5413ZM4.75005 10.4308L4.75003 10.5415L7.75003 10.5422L7.75005 10.4315L4.75005 10.4308ZM4.75005 10V10.4311H7.75005V10H4.75005ZM7.00005 7.75C5.75741 7.75 4.75005 8.75736 4.75005 10H7.75005C7.75005 10.4142 7.41427 10.75 7.00005 10.75V7.75ZM9.25005 10C9.25005 8.75736 8.24269 7.75 7.00005 7.75V10.75C6.58584 10.75 6.25005 10.4142 6.25005 10H9.25005ZM9.25005 10.4311V10H6.25005V10.4311H9.25005ZM9.28242 11.6124C9.2821 11.6113 9.28181 11.6103 9.28132 11.6081C9.28078 11.6057 9.2794 11.5992 9.27755 11.5869C9.27358 11.5605 9.26783 11.5105 9.2629 11.4187C9.25239 11.2225 9.25005 10.9347 9.25005 10.4311H6.25005C6.25005 11.3153 6.24185 11.9243 6.41187 12.4841L9.28242 11.6124ZM9.42064 11.8707C9.35804 11.7945 9.31107 11.7067 9.28242 11.6124L6.41187 12.4841C6.55512 12.9559 6.78998 13.3947 7.103 13.7755L9.42064 11.8707ZM10.0873 12.3533C9.79151 12.1543 9.6259 12.0379 9.51912 11.9549C9.46992 11.9166 9.44462 11.8941 9.43262 11.8828C9.42688 11.8774 9.42395 11.8743 9.42288 11.8732C9.42189 11.8721 9.42133 11.8715 9.42064 11.8707L7.10301 13.7755C7.43692 14.1818 7.8636 14.473 8.41283 14.8425L10.0873 12.3533ZM7.75005 13V13.5979H10.7501V13H7.75005ZM10.1295 7.20351C8.65984 8.69186 7.75005 10.7412 7.75005 13H10.7501C10.7501 11.5618 11.3264 10.2611 12.2642 9.3114L10.1295 7.20351ZM8.40906 7.59099L10.1362 9.31812L12.2575 7.1968L10.5304 5.46967L8.40906 7.59099ZM8.40906 4.40901C7.53038 5.28769 7.53038 6.71231 8.40906 7.59099L10.5304 5.46967C10.8233 5.76256 10.8233 6.23744 10.5304 6.53033L8.40906 4.40901ZM11.591 4.40901C10.7124 3.53033 9.28774 3.53033 8.40906 4.40901L10.5304 6.53033C10.2375 6.82322 9.76262 6.82322 9.46972 6.53033L11.591 4.40901ZM13.43 6.24796L11.591 4.40901L9.46972 6.53033L11.3087 8.36928L13.43 6.24796ZM16.0001 4.75C14.3688 4.75 12.8438 5.22501 11.5614 6.04479L13.1773 8.57245C13.9916 8.0519 14.9583 7.75 16.0001 7.75V4.75ZM20.4387 6.04479C19.1563 5.22501 17.6314 4.75 16.0001 4.75V7.75C17.0418 7.75 18.0085 8.0519 18.8229 8.57245L20.4387 6.04479ZM20.4091 4.40901L18.5701 6.24796L20.6914 8.36928L22.5304 6.53033L20.4091 4.40901ZM23.591 4.40901C22.7124 3.53033 21.2877 3.53033 20.4091 4.40901L22.5304 6.53033C22.2375 6.82323 21.7626 6.82322 21.4697 6.53033L23.591 4.40901ZM9.25021 19.0102C9.25011 19.003 9.25011 18.9957 9.25021 18.9884L12.2499 19.0321C12.2502 19.0102 12.2502 18.9884 12.2499 18.9665L9.25021 19.0102ZM9.25005 15.75L9.25005 18.9884H12.2501V15.75H9.25005ZM21.2501 14.25L10.7501 14.25V17.25H21.2501L21.2501 14.25ZM22.7501 18.9884V15.75H19.7501L19.7501 18.9884H22.7501ZM22.7499 19.0102L22.75 18.9975L19.7501 18.9792L19.75 18.9919L22.7499 19.0102ZM22.75 18.9976L22.7499 18.9884L19.75 19.0137L19.7501 19.0229L22.75 18.9976ZM22.7501 20V19.0102H19.7501V20H22.7501ZM16.0001 26.75C19.728 26.75 22.7501 23.7279 22.7501 20H19.7501C19.7501 22.0711 18.0711 23.75 16.0001 23.75V26.75ZM9.25005 20C9.25005 23.7279 12.2721 26.75 16.0001 26.75V23.75C13.929 23.75 12.2501 22.0711 12.2501 20H9.25005ZM9.25005 19.0103V20H12.2501V19.0103H9.25005ZM9.25005 13V14.25H12.2501V13H9.25005ZM16.0001 6.25C12.2721 6.25 9.25005 9.27208 9.25005 13H12.2501C12.2501 10.9289 13.929 9.25 16.0001 9.25V6.25ZM22.7501 13C22.7501 9.27208 19.728 6.25 16.0001 6.25V9.25C18.0711 9.25 19.7501 10.9289 19.7501 13L22.7501 13ZM22.7501 14.25V13L19.7501 13V14.25H22.7501ZM10.7501 15.75L21.2501 15.75V12.75H10.7501V15.75ZM18.2501 18C18.2501 16.7574 17.2427 15.75 16.0001 15.75L16.0001 18.75C15.5858 18.75 15.2501 18.4142 15.2501 18H18.2501ZM18.2501 23V18H15.2501V23H18.2501ZM16.0001 25.25C17.2427 25.25 18.2501 24.2426 18.2501 23H15.2501C15.2501 22.5858 15.5858 22.25 16.0001 22.25V25.25ZM13.7501 23C13.7501 24.2426 14.7574 25.25 16.0001 25.25V22.25C16.4143 22.25 16.7501 22.5858 16.7501 23H13.7501ZM13.7501 18V23H16.7501V18H13.7501ZM16.0001 15.75C14.7574 15.75 13.7501 16.7574 13.7501 18H16.7501C16.7501 18.4142 16.4143 18.75 16.0001 18.75L16.0001 15.75Z" fill="white"/>
<path fill-rule="evenodd" clip-rule="evenodd" d="M22.5303 5.46967C22.8232 5.76256 22.8232 6.23744 22.5303 6.53033L20.8032 8.25746C22.0069 9.47648 22.75 11.1515 22.75 13V13.5979C23.3399 13.2011 23.5691 13.0288 23.7382 12.8231C23.926 12.5946 24.067 12.3313 24.1529 12.0483C24.2424 11.7537 24.25 11.417 24.25 10.4311V10C24.25 9.58579 24.5858 9.25 25 9.25C25.4142 9.25 25.75 9.58579 25.75 10V10.4311L25.75 10.5418C25.7503 11.3741 25.7505 11.9495 25.5882 12.4841C25.4449 12.9559 25.2101 13.3947 24.897 13.7755C24.5423 14.2072 24.0633 14.5262 23.3707 14.9876L23.2786 15.049L22.75 15.4014V18.5986L23.2786 18.951L23.3707 19.0124C24.0633 19.4738 24.5423 19.7928 24.897 20.2245C25.2101 20.6053 25.4449 21.0441 25.5882 21.5159C25.7505 22.0505 25.7503 22.6259 25.75 23.4582L25.75 23.5689V24C25.75 24.4142 25.4142 24.75 25 24.75C24.5858 24.75 24.25 24.4142 24.25 24V23.5689C24.25 22.583 24.2424 22.2463 24.1529 21.9517C24.067 21.6687 23.926 21.4054 23.7382 21.1769C23.5681 20.9699 23.3369 20.7967 22.7387 20.3945C22.5344 23.9388 19.5955 26.75 16 26.75C12.4045 26.75 9.46559 23.9388 9.26134 20.3945C8.66307 20.7967 8.43193 20.9699 8.26177 21.1769C8.07396 21.4054 7.93304 21.6687 7.84709 21.9517C7.75764 22.2463 7.75 22.583 7.75 23.5689V24C7.75 24.4142 7.41421 24.75 7 24.75C6.58579 24.75 6.25 24.4142 6.25 24V23.5689L6.24997 23.4582C6.24967 22.6259 6.24946 22.0505 6.41182 21.5159C6.55507 21.0441 6.78993 20.6053 7.10295 20.2245C7.45771 19.7928 7.93666 19.4738 8.62929 19.0124L8.72141 18.951L9.25 18.5986L9.25 15.4014L8.72141 15.049L8.62929 14.9876C7.93666 14.5262 7.45771 14.2072 7.10295 13.7755C6.78993 13.3947 6.55507 12.9559 6.41182 12.4841C6.24946 11.9495 6.24967 11.3741 6.24997 10.5418L6.25 10.4311V10C6.25 9.58579 6.58579 9.25 7 9.25C7.41421 9.25 7.75 9.58579 7.75 10V10.4311C7.75 11.417 7.75764 11.7537 7.84709 12.0483C7.93304 12.3313 8.07396 12.5946 8.26177 12.8231C8.43085 13.0288 8.66014 13.2011 9.25 13.5979V13C9.25 11.1515 9.99306 9.47648 11.1968 8.25746L9.46967 6.53033C9.17678 6.23744 9.17678 5.76256 9.46967 5.46967C9.76256 5.17678 10.2374 5.17678 10.5303 5.46967L12.3693 7.30862C13.4176 6.63846 14.6635 6.25 16 6.25C17.3365 6.25 18.5824 6.63846 19.6307 7.30862L21.4697 5.46967C21.7626 5.17678 22.2374 5.17678 22.5303 5.46967ZM10.75 19.0103C10.7501 19.003 10.7501 18.9957 10.75 18.9884V15.75L21.25 15.75V18.9884L21.2499 19.0011L21.25 19.0102V20C21.25 22.8995 18.8995 25.25 16 25.25C13.1005 25.25 10.75 22.8995 10.75 20V19.0103ZM10.75 14.25V13C10.75 10.1005 13.1005 7.75 16 7.75C18.8995 7.75 21.25 10.1005 21.25 13V14.25L10.75 14.25ZM16 17.25C16.4142 17.25 16.75 17.5858 16.75 18V23C16.75 23.4142 16.4142 23.75 16 23.75C15.5858 23.75 15.25 23.4142 15.25 23V18C15.25 17.5858 15.5858 17.25 16 17.25Z" fill="#151E28"/>
</svg>
