<svg viewBox="0 0 32 32" fill="none" xmlns="http://www.w3.org/2000/svg">
<path d="M10 12L22 12V21.8C22 22.9201 22 23.4802 21.782 23.908C21.5903 24.2843 21.2843 24.5903 20.908 24.782C20.4802 25 19.9201 25 18.8 25H13.2C12.0799 25 11.5198 25 11.092 24.782C10.7157 24.5903 10.4097 24.2843 10.218 23.908C10 23.4802 10 22.9201 10 21.8L10 12Z" fill="white"/>
<path d="M23.025 8.24999L23.025 9.74999L23.025 9.74999L23.025 8.24999ZM24.1451 8.27076L24.043 9.76728L24.043 9.76728L24.1451 8.27076ZM25.0522 8.45932L26.438 9.03334C26.755 8.26797 26.3915 7.39052 25.6262 7.0735L25.0522 8.45932ZM23.3793 8.5782C23.0623 9.34357 23.4258 10.221 24.1911 10.538C24.9565 10.8551 25.8339 10.4916 26.151 9.72625L23.3793 8.5782ZM25.0522 8.45932L25.6262 7.0735C24.8608 6.75647 23.9834 7.11992 23.6663 7.88529L25.0522 8.45932ZM26.5404 9.94761L25.1546 10.5216L25.1546 10.5216L26.5404 9.94761ZM26.729 10.8546L28.2255 10.7525L28.2255 10.7525L26.729 10.8546ZM26.7498 11.9747L25.2498 11.9747V11.9747H26.7498ZM26.7498 12.0252L25.2498 12.0252L25.2498 12.0253L26.7498 12.0252ZM26.729 13.1454L28.2255 13.2475L28.2255 13.2475L26.729 13.1454ZM26.5404 14.0524L25.1546 13.4783L25.1546 13.4783L26.5404 14.0524ZM25.0522 15.5407L25.6262 16.9265L25.6262 16.9265L25.0522 15.5407ZM24.0383 15.7356L24.115 17.2336L24.115 17.2336L24.0383 15.7356ZM23.251 15.0249L21.7529 15.1016L21.7529 15.1016L23.251 15.0249ZM23.9617 14.2375L23.885 12.7395L23.885 12.7395L23.9617 14.2375ZM24.4781 14.1548L23.9041 12.769L23.9041 12.769L24.4781 14.1548ZM25.1546 13.4783L26.5404 14.0524L26.5404 14.0524L25.1546 13.4783ZM25.2325 13.0432L23.736 12.9411L23.736 12.9411L25.2325 13.0432ZM25.2325 10.9567L23.736 11.0588L23.736 11.0588L25.2325 10.9567ZM25.1546 10.5216L26.5404 9.94761L26.5404 9.94761L25.1546 10.5216ZM24.4781 9.84514L25.0522 8.45932L25.0522 8.45931L24.4781 9.84514ZM24.043 9.76728L24.1451 8.27076L24.1451 8.27076L24.043 9.76728ZM7.95674 9.76728L8.05885 11.2638L8.05885 11.2638L7.95674 9.76728ZM7.52165 9.84514L8.09567 11.231L8.09567 11.231L7.52165 9.84514ZM6.84515 10.5216L8.23097 11.0957L8.23097 11.0957L6.84515 10.5216ZM6.76729 10.9567L8.26381 11.0588L8.26381 11.0588L6.76729 10.9567ZM6.76729 13.0432L8.26381 12.9411L8.26381 12.9411L6.76729 13.0432ZM6.84515 13.4783L5.45933 14.0524L5.45933 14.0524L6.84515 13.4783ZM7.52165 14.1548L8.09567 12.769L8.09567 12.769L7.52165 14.1548ZM8.03832 14.2375L8.11495 12.7395L8.11495 12.7395L8.03832 14.2375ZM8.74902 15.0249L10.2471 15.1015L10.2471 15.1015L8.74902 15.0249ZM7.96168 15.7356L7.88505 17.2336L7.88505 17.2336L7.96168 15.7356ZM6.94762 15.5407L6.3736 16.9265L6.3736 16.9265L6.94762 15.5407ZM5.45933 14.0524L4.07351 14.6264L4.07351 14.6264L5.45933 14.0524ZM5.27077 13.1454L3.77425 13.2475L5.27077 13.1454ZM5.25 12.0253L6.75 12.0253V12.0253H5.25ZM5.25 11.9747L6.75 11.9747L6.75 11.9747L5.25 11.9747ZM5.27077 10.8546L6.76729 10.9567L6.76729 10.9567L5.27077 10.8546ZM5.45933 9.94761L4.07351 9.37358L4.07351 9.37358L5.45933 9.94761ZM6.94762 8.45932L6.3736 7.0735L6.3736 7.0735L6.94762 8.45932ZM7.85464 8.27076L7.95674 9.76728L7.95674 9.76728L7.85464 8.27076ZM8.97474 8.24999L8.97471 9.74999H8.97474V8.24999ZM22.75 12.75V11.25C21.9215 11.25 21.25 11.9216 21.25 12.75H22.75ZM22.75 21.8305L21.25 21.8305L21.25 21.8306L22.75 21.8305ZM22.7202 23.1747L24.2152 23.2968L24.2152 23.2968L22.7202 23.1747ZM22.4502 24.2485L23.7867 24.9295L23.7867 24.9295L22.4502 24.2485ZM21.2484 25.4503L21.9294 26.7868L21.9294 26.7868L21.2484 25.4503ZM20.1746 25.7203L20.2968 27.2153L20.2968 27.2153L20.1746 25.7203ZM19.0077 25.75L19.0066 24.2499L19 24.25L19.0077 25.75ZM19 25.75L18.9932 27.25C18.998 27.25 19.0029 27.25 19.0077 27.25L19 25.75ZM18.9932 25.75L18.9999 24.25L18.9929 24.25L18.9932 25.75ZM18.8305 25.75L18.8305 27.25L18.8308 27.25L18.8305 25.75ZM13.1694 25.75L13.1694 24.25L13.1694 24.25L13.1694 25.75ZM11.8253 25.7203L11.7031 27.2153L11.7031 27.2153L11.8253 25.7203ZM10.7515 25.4503L10.0705 26.7868L10.0705 26.7868L10.7515 25.4503ZM9.54969 24.2485L8.21318 24.9295L8.21318 24.9295L9.54969 24.2485ZM9.27969 23.1747L10.7747 23.0525L10.7747 23.0525L9.27969 23.1747ZM9.24995 21.8304L10.75 21.8305L10.75 21.8304L9.24995 21.8304ZM9.24995 21.8L10.75 21.8V21.8H9.24995ZM9.24995 12.75L10.75 12.75C10.75 11.9216 10.0784 11.25 9.24995 11.25V12.75ZM18.25 12.75H19.75C19.75 11.9216 19.0784 11.25 18.25 11.25V12.75ZM10.75 12.75V11.25C9.92153 11.25 9.24995 11.9216 9.24995 12.75L10.75 12.75ZM18.25 24.25V25.75C19.0784 25.75 19.75 25.0784 19.75 24.25H18.25ZM11.9474 24.2252L11.8253 25.7203L11.8253 25.7203L11.9474 24.2252ZM11.4325 24.1138L12.1135 22.7773L12.1135 22.7772L11.4325 24.1138ZM10.8862 23.5675L12.2227 22.8865L12.2227 22.8865L10.8862 23.5675ZM10.7747 23.0525L9.27969 23.1747L9.27969 23.1747L10.7747 23.0525ZM19.75 24.2416H18.25C18.25 24.6479 18.4148 25.0369 18.7068 25.3195C18.9988 25.602 19.3929 25.7541 19.7991 25.7408L19.75 24.2416ZM19.75 12.75V11.25C18.9215 11.25 18.25 11.9216 18.25 12.75H19.75ZM20.0525 24.2252L20.1746 25.7203L20.1746 25.7203L20.0525 24.2252ZM20.5674 24.1138L19.8865 22.7772L19.8864 22.7773L20.5674 24.1138ZM21.1137 23.5675L19.7772 22.8865L19.7772 22.8865L21.1137 23.5675ZM21.2252 23.0525L22.7202 23.1747L22.7202 23.1747L21.2252 23.0525ZM21.25 12.75H22.75C22.75 11.9216 22.0784 11.25 21.25 11.25V12.75ZM9 6.74999H8.97475V9.74999H9V6.74999ZM22.9998 6.74999L9 6.74999V9.74999L22.9998 9.74999V6.74999ZM23.025 6.74999H22.9998V9.74999H23.025V6.74999ZM24.2472 6.77423C23.8803 6.7492 23.4514 6.74998 23.025 6.74999L23.025 9.74999C23.4876 9.74998 23.8007 9.75074 24.043 9.76728L24.2472 6.77423ZM25.6262 7.0735C25.1228 6.865 24.6412 6.80111 24.2472 6.77423L24.043 9.76728C24.2833 9.78367 24.4007 9.81307 24.4781 9.84514L25.6262 7.0735ZM26.151 9.72625L26.438 9.03334L23.6663 7.88529L23.3793 8.5782L26.151 9.72625ZM23.6663 7.88529L23.3793 8.5782L26.151 9.72625L26.438 9.03334L23.6663 7.88529ZM27.9263 9.37358C27.4949 8.33221 26.6675 7.50485 25.6262 7.0735L24.4781 9.84514C24.7844 9.972 25.0278 10.2153 25.1546 10.5216L27.9263 9.37358ZM28.2255 10.7525C28.1986 10.3586 28.1348 9.87695 27.9263 9.37358L25.1546 10.5216C25.1867 10.599 25.2161 10.7165 25.2325 10.9567L28.2255 10.7525ZM28.2498 11.9748C28.2498 11.5484 28.2506 11.1194 28.2255 10.7525L25.2325 10.9567C25.249 11.199 25.2498 11.5121 25.2498 11.9747L28.2498 11.9748ZM28.2498 12V11.9747H25.2498V12H28.2498ZM28.2498 12.0252V12H25.2498V12.0252H28.2498ZM28.2255 13.2475C28.2506 12.8805 28.2498 12.4516 28.2498 12.0252L25.2498 12.0253C25.2498 12.4878 25.249 12.8009 25.2325 13.0432L28.2255 13.2475ZM27.9263 14.6264C28.1348 14.123 28.1986 13.6414 28.2255 13.2475L25.2325 13.0432C25.2161 13.2835 25.1867 13.4009 25.1546 13.4783L27.9263 14.6264ZM25.6262 16.9265C26.6675 16.4951 27.4949 15.6678 27.9263 14.6264L25.1546 13.4783C25.0278 13.7846 24.7844 14.028 24.4781 14.1548L25.6262 16.9265ZM24.115 17.2336C24.5364 17.212 25.071 17.1564 25.6262 16.9265L24.4781 14.1548C24.3911 14.1909 24.2568 14.2224 23.9617 14.2375L24.115 17.2336ZM21.7529 15.1016C21.8165 16.3426 22.874 17.2971 24.115 17.2336L23.9617 14.2375C24.3753 14.2163 24.7278 14.5345 24.749 14.9482L21.7529 15.1016ZM23.885 12.7395C22.644 12.803 21.6894 13.8606 21.7529 15.1016L24.749 14.9482C24.7702 15.3619 24.452 15.7144 24.0383 15.7356L23.885 12.7395ZM23.9041 12.769C23.9206 12.7622 23.9371 12.7559 23.9533 12.7503C23.9694 12.7447 23.984 12.7403 23.9967 12.7367C24.0219 12.7296 24.0372 12.7269 24.0387 12.7266C24.0398 12.7264 24.0291 12.7283 24.003 12.731C23.9769 12.7336 23.9386 12.7367 23.885 12.7395L24.0383 15.7356C24.3948 15.7173 24.7301 15.6741 25.0522 15.5407L23.9041 12.769ZM23.7688 12.9043C23.7942 12.8431 23.8429 12.7944 23.9041 12.769L25.0522 15.5407C25.726 15.2615 26.2613 14.7262 26.5404 14.0524L23.7688 12.9043ZM23.736 12.9411C23.7333 12.9795 23.7307 13.0056 23.7288 13.0217C23.7268 13.0378 23.7258 13.0417 23.7269 13.036C23.7281 13.0299 23.7316 13.0134 23.7387 12.9892C23.7461 12.964 23.756 12.9352 23.7688 12.9043L26.5404 14.0524C26.661 13.7614 26.7074 13.4615 26.729 13.1453L23.736 12.9411ZM23.7498 12C23.7498 12.4973 23.7485 12.7567 23.736 12.9411L26.729 13.1453C26.7502 12.8348 26.7498 12.455 26.7498 12H23.7498ZM23.736 11.0588C23.7485 11.2432 23.7498 11.5026 23.7498 12H26.7498C26.7498 11.5449 26.7502 11.1651 26.729 10.8546L23.736 11.0588ZM23.7688 11.0957C23.756 11.0648 23.7461 11.036 23.7387 11.0108C23.7316 10.9865 23.7281 10.97 23.7269 10.964C23.7258 10.9583 23.7268 10.9621 23.7288 10.9783C23.7307 10.9944 23.7333 11.0204 23.736 11.0588L26.729 10.8546C26.7074 10.5385 26.661 10.2386 26.5404 9.94761L23.7688 11.0957ZM23.9041 11.231C23.8428 11.2056 23.7942 11.1569 23.7688 11.0957L26.5404 9.94761C26.2613 9.27378 25.726 8.73843 25.0522 8.45932L23.9041 11.231ZM23.9409 11.2638C23.9793 11.2664 24.0054 11.2691 24.0215 11.271C24.0376 11.273 24.0414 11.2739 24.0358 11.2728C24.0297 11.2717 24.0132 11.2682 23.989 11.2611C23.9638 11.2537 23.935 11.2437 23.9041 11.231L25.0522 8.45931C24.7612 8.3388 24.4613 8.29232 24.1451 8.27076L23.9409 11.2638ZM22.9998 11.25C23.4971 11.25 23.7565 11.2512 23.9409 11.2638L24.1451 8.27076C23.8346 8.24957 23.4548 8.24999 22.9998 8.24999V11.25ZM9 11.25L22.9998 11.25V8.24999L9 8.24999V11.25ZM8.05885 11.2638C8.24326 11.2512 8.50264 11.25 9 11.25V8.24999C8.54495 8.24999 8.16515 8.24957 7.85464 8.27076L8.05885 11.2638ZM8.09567 11.231C8.0648 11.2437 8.03597 11.2537 8.01079 11.2611C7.98654 11.2682 7.97006 11.2717 7.96401 11.2728C7.95833 11.2739 7.96216 11.273 7.97827 11.271C7.99437 11.2691 8.02044 11.2664 8.05885 11.2638L7.85464 8.27076C7.53852 8.29232 7.23858 8.3388 6.94762 8.45932L8.09567 11.231ZM8.23097 11.0957C8.2056 11.1569 8.15693 11.2056 8.09567 11.231L6.94762 8.45932C6.27379 8.73843 5.73844 9.27378 5.45933 9.94761L8.23097 11.0957ZM8.26381 11.0588C8.26643 11.0204 8.26908 10.9944 8.27103 10.9783C8.27298 10.9621 8.27395 10.9583 8.27285 10.964C8.27167 10.97 8.26821 10.9865 8.26109 11.0108C8.2537 11.036 8.24376 11.0648 8.23097 11.0957L5.45933 9.94761C5.33881 10.2386 5.29234 10.5385 5.27077 10.8546L8.26381 11.0588ZM8.25 12C8.25 11.5026 8.25123 11.2432 8.26381 11.0588L5.27077 10.8546C5.24958 11.1651 5.25 11.5449 5.25 12L8.25 12ZM8.26381 12.9411C8.25123 12.7567 8.25 12.4973 8.25 12L5.25 12C5.25 12.455 5.24958 12.8348 5.27077 13.1454L8.26381 12.9411ZM8.23097 12.9043C8.24376 12.9352 8.2537 12.964 8.26109 12.9892C8.26821 13.0134 8.27167 13.0299 8.27285 13.036C8.27395 13.0417 8.27298 13.0378 8.27103 13.0217C8.26908 13.0056 8.26643 12.9795 8.26381 12.9411L5.27077 13.1453C5.29234 13.4615 5.33881 13.7614 5.45933 14.0524L8.23097 12.9043ZM8.09567 12.769C8.15693 12.7944 8.2056 12.8431 8.23097 12.9043L5.45933 14.0524C5.73844 14.7262 6.27379 15.2615 6.94762 15.5407L8.09567 12.769ZM8.11495 12.7395C8.06128 12.7367 8.02297 12.7336 7.99686 12.731C7.97069 12.7283 7.96003 12.7264 7.96111 12.7266C7.96261 12.7269 7.97788 12.7296 8.00308 12.7367C8.01575 12.7403 8.03032 12.7447 8.04644 12.7503C8.06265 12.7559 8.07915 12.7622 8.09567 12.769L6.94762 15.5407C7.26974 15.6741 7.60508 15.7173 7.96169 15.7356L8.11495 12.7395ZM10.2471 15.1015C10.3105 13.8605 9.35597 12.803 8.11495 12.7395L7.96168 15.7356C7.54801 15.7144 7.22982 15.3619 7.25098 14.9482L10.2471 15.1015ZM7.88505 17.2336C9.12607 17.2971 10.1836 16.3425 10.2471 15.1015L7.25098 14.9482C7.27214 14.5346 7.62465 14.2164 8.03832 14.2375L7.88505 17.2336ZM6.3736 16.9265C6.92891 17.1565 7.46362 17.2121 7.88505 17.2336L8.03832 14.2375C7.74302 14.2224 7.60872 14.1909 7.52165 14.1548L6.3736 16.9265ZM4.07351 14.6264C4.50486 15.6678 5.33223 16.4951 6.3736 16.9265L7.52165 14.1548C7.21536 14.028 6.97202 13.7846 6.84515 13.4783L4.07351 14.6264ZM3.77425 13.2475C3.80113 13.6414 3.86501 14.123 4.07351 14.6264L6.84515 13.4783C6.81309 13.4009 6.78369 13.2835 6.76729 13.0432L3.77425 13.2475ZM3.75 12.0252C3.74999 12.4516 3.74921 12.8805 3.77425 13.2475L6.76729 13.0432C6.75076 12.8009 6.74999 12.4878 6.75 12.0253L3.75 12.0252ZM3.75 12.0252V12.0253H6.75V12.0252H3.75ZM3.75 12V12.0252H6.75V12H3.75ZM3.75 11.9747V12H6.75V11.9747H3.75ZM3.75 11.9747V11.9747H6.75V11.9747H3.75ZM3.77425 10.7525C3.74921 11.1194 3.74999 11.5484 3.75 11.9747L6.75 11.9747C6.74999 11.5121 6.75076 11.199 6.76729 10.9567L3.77425 10.7525ZM4.07351 9.37358C3.86501 9.87695 3.80113 10.3586 3.77425 10.7525L6.76729 10.9567C6.78369 10.7165 6.81309 10.599 6.84515 10.5216L4.07351 9.37358ZM6.3736 7.0735C5.33223 7.50485 4.50486 8.33221 4.07351 9.37358L6.84515 10.5216C6.97202 10.2153 7.21536 9.972 7.52165 9.84514L6.3736 7.0735ZM7.75253 6.77423C7.3586 6.80111 6.87696 6.865 6.3736 7.0735L7.52165 9.84514C7.59906 9.81307 7.71647 9.78367 7.95674 9.76728L7.75253 6.77423ZM8.97476 6.74999C8.54841 6.74998 8.11945 6.7492 7.75253 6.77423L7.95674 9.76728C8.19904 9.75074 8.51215 9.74998 8.97471 9.74999L8.97476 6.74999ZM8.97475 6.74999H8.97474V9.74999H8.97475V6.74999ZM8.99995 9.75C7.75731 9.75 6.74995 10.7574 6.74995 12L9.74995 12C9.74995 12.4142 9.41417 12.75 8.99995 12.75V9.75ZM9.99995 9.75H8.99995V12.75L9.99995 12.75V9.75ZM19 9.75H9.99995V12.75L19 12.75V9.75ZM22 9.75H19V12.75H22V9.75ZM23 9.75L22 9.75V12.75H23V9.75ZM25.25 12C25.25 10.7574 24.2426 9.75 23 9.75V12.75C22.5857 12.75 22.25 12.4142 22.25 12H25.25ZM23 14.25C24.2426 14.25 25.25 13.2426 25.25 12H22.25C22.25 11.5858 22.5857 11.25 23 11.25V14.25ZM22.75 14.25H23V11.25H22.75V14.25ZM24.25 21.8V12.75H21.25V21.8H24.25ZM24.25 21.8305V21.8H21.25V21.8305H24.25ZM24.25 21.8305V21.8305H21.25V21.8305H24.25ZM24.2152 23.2968C24.2511 22.8581 24.25 22.3428 24.25 21.8305L21.25 21.8306C21.25 22.3865 21.2489 22.7629 21.2252 23.0525L24.2152 23.2968ZM23.7867 24.9295C24.0842 24.3457 24.1766 23.7698 24.2152 23.2968L21.2252 23.0525C21.2018 23.3393 21.16 23.4767 21.1137 23.5675L23.7867 24.9295ZM21.9294 26.7868C22.7291 26.3793 23.3793 25.7291 23.7867 24.9295L21.1137 23.5675C20.9939 23.8027 20.8026 23.9939 20.5674 24.1138L21.9294 26.7868ZM20.2968 27.2153C20.7698 27.1766 21.3457 27.0842 21.9294 26.7868L20.5674 24.1138C20.4767 24.16 20.3392 24.2018 20.0525 24.2252L20.2968 27.2153ZM19.0088 27.25C19.4553 27.2496 19.9032 27.2474 20.2968 27.2153L20.0525 24.2252C19.7997 24.2459 19.4728 24.2496 19.0066 24.25L19.0088 27.25ZM19.0077 27.25L19.0155 27.2499L19 24.25L18.9922 24.25L19.0077 27.25ZM18.9864 27.25L18.9932 27.25L19.0067 24.25L18.9999 24.25L18.9864 27.25ZM18.8308 27.25L18.9935 27.25L18.9929 24.25L18.8302 24.25L18.8308 27.25ZM18.8304 27.25H18.8305V24.25H18.8304V27.25ZM18.8 27.25H18.8304V24.25H18.8V27.25ZM13.2 27.25H18.8V24.25H13.2V27.25ZM13.1695 27.25H13.2V24.25H13.1695V27.25ZM13.1694 27.25H13.1695V24.25H13.1694V27.25ZM11.7031 27.2153C12.1419 27.2511 12.6572 27.25 13.1694 27.25L13.1694 24.25C12.6134 24.25 12.2371 24.2489 11.9474 24.2252L11.7031 27.2153ZM10.0705 26.7868C10.6542 27.0842 11.2301 27.1766 11.7031 27.2153L11.9474 24.2252C11.6607 24.2018 11.5232 24.16 11.4325 24.1138L10.0705 26.7868ZM8.21318 24.9295C8.62064 25.7291 9.2708 26.3793 10.0705 26.7868L11.4325 24.1138C11.1973 23.9939 11.006 23.8027 10.8862 23.5675L8.21318 24.9295ZM7.78467 23.2968C7.82332 23.7699 7.91574 24.3457 8.21318 24.9295L10.8862 23.5675C10.8399 23.4767 10.7981 23.3393 10.7747 23.0525L7.78467 23.2968ZM7.74995 21.8304C7.74994 22.3427 7.74882 22.858 7.78467 23.2968L10.7747 23.0525C10.751 22.7628 10.7499 22.3865 10.75 21.8305L7.74995 21.8304ZM7.74995 21.8L7.74995 21.8304L10.75 21.8304L10.75 21.8L7.74995 21.8ZM7.74995 12.75L7.74995 21.8H10.75L10.75 12.75L7.74995 12.75ZM8.99995 14.25H9.24995V11.25H8.99995V14.25ZM6.74995 12C6.74995 13.2426 7.75731 14.25 8.99995 14.25V11.25C9.41417 11.25 9.74995 11.5858 9.74995 12L6.74995 12ZM18.25 11.25H10.75V14.25L18.25 14.25V11.25ZM19.75 24.25V12.75L16.75 12.75V24.25H19.75ZM13.2 25.75H18.25V22.75L13.2 22.75V25.75ZM11.8253 25.7203C12.1966 25.7506 12.653 25.75 13.2 25.75V22.75C12.602 22.75 12.29 22.7482 12.0696 22.7302L11.8253 25.7203ZM10.7515 25.4503C11.0892 25.6224 11.4463 25.6893 11.8253 25.7203L12.0696 22.7302C12.0238 22.7265 11.993 22.7227 11.9744 22.72C11.9557 22.7173 11.952 22.716 11.9596 22.7178C11.9677 22.7197 11.9879 22.7249 12.0167 22.7353C12.0467 22.746 12.0796 22.76 12.1135 22.7773L10.7515 25.4503ZM9.54969 24.2485C9.81334 24.7659 10.234 25.1866 10.7515 25.4503L12.1135 22.7772C12.1605 22.8012 12.1987 22.8395 12.2227 22.8865L9.54969 24.2485ZM9.27969 23.1747C9.31066 23.5537 9.3776 23.9107 9.54969 24.2485L12.2227 22.8865C12.24 22.9204 12.254 22.9533 12.2647 22.9832C12.275 23.0121 12.2802 23.0323 12.2821 23.0404C12.2839 23.048 12.2826 23.0442 12.2799 23.0256C12.2772 23.0069 12.2735 22.9762 12.2697 22.9304L9.27969 23.1747ZM9.24995 21.8C9.24995 22.3469 9.24936 22.8034 9.27969 23.1747L12.2697 22.9304C12.2517 22.7099 12.25 22.3979 12.25 21.8H9.24995ZM9.24995 12.75L9.24995 21.8H12.25L12.25 12.75L9.24995 12.75ZM21.25 24.2416V12.75H18.25V24.2416H21.25ZM19.9303 22.7302C19.8699 22.7352 19.7955 22.7393 19.7008 22.7424L19.7991 25.7408C19.9269 25.7366 20.0522 25.7303 20.1746 25.7203L19.9303 22.7302ZM19.8864 22.7773C19.9204 22.76 19.9532 22.746 19.9832 22.7353C20.012 22.7249 20.0322 22.7197 20.0403 22.7178C20.0479 22.716 20.0442 22.7173 20.0255 22.72C20.0069 22.7227 19.9762 22.7265 19.9303 22.7302L20.1746 25.7203C20.5536 25.6893 20.9107 25.6224 21.2484 25.4503L19.8864 22.7773ZM19.7772 22.8865C19.8012 22.8395 19.8394 22.8012 19.8865 22.7772L21.2484 25.4503C21.7659 25.1866 22.1866 24.7659 22.4502 24.2485L19.7772 22.8865ZM19.7302 22.9304C19.7264 22.9762 19.7227 23.0069 19.72 23.0256C19.7173 23.0442 19.716 23.048 19.7178 23.0404C19.7197 23.0323 19.7249 23.0121 19.7352 22.9832C19.7459 22.9533 19.7599 22.9204 19.7772 22.8865L22.4502 24.2485C22.6223 23.9107 22.6892 23.5537 22.7202 23.1747L19.7302 22.9304ZM19.75 21.8C19.75 22.3979 19.7482 22.7099 19.7302 22.9304L22.7202 23.1747C22.7506 22.8034 22.75 22.3469 22.75 21.8H19.75ZM19.75 12.75V21.8H22.75V12.75H19.75ZM19.75 14.25H21.25V11.25H19.75V14.25ZM16 20.25C15.5857 20.25 15.25 19.9142 15.25 19.5H18.25C18.25 18.2574 17.2426 17.25 16 17.25V20.25ZM16.75 19.5C16.75 19.9142 16.4142 20.25 16 20.25V17.25C14.7573 17.25 13.75 18.2574 13.75 19.5H16.75ZM16.75 22V19.5H13.75V22H16.75ZM16 21.25C16.4142 21.25 16.75 21.5858 16.75 22H13.75C13.75 23.2426 14.7573 24.25 16 24.25V21.25ZM15.25 22C15.25 21.5858 15.5857 21.25 16 21.25V24.25C17.2426 24.25 18.25 23.2426 18.25 22H15.25ZM15.25 19.5V22H18.25V19.5H15.25Z" fill="white"/>
<path fill-rule="evenodd" clip-rule="evenodd" d="M8.97475 8.24998H9L22.9998 8.24998H23.025C23.4695 8.24998 23.8405 8.24997 24.1451 8.27076C24.4622 8.29239 24.7618 8.33903 25.0522 8.45932L24.7651 9.15223L25.0522 8.45932C25.726 8.73842 26.2613 9.27378 26.5404 9.94761C26.6607 10.238 26.7074 10.5375 26.729 10.8546C26.7498 11.1592 26.7498 11.5303 26.7498 11.9747V12V12.0252C26.7498 12.4697 26.7498 12.8407 26.729 13.1453C26.7074 13.4625 26.6607 13.762 26.5404 14.0524C26.2613 14.7262 25.726 15.2615 25.0522 15.5407C24.731 15.6737 24.3966 15.7172 24.0383 15.7356C23.6247 15.7567 23.2722 15.4386 23.251 15.0249C23.2298 14.6112 23.548 14.2587 23.9617 14.2375C24.2577 14.2224 24.3915 14.1907 24.4781 14.1548C24.7844 14.028 25.0278 13.7846 25.1546 13.4783C25.1866 13.4012 25.2161 13.284 25.2325 13.0432C25.2494 12.7958 25.2498 12.4762 25.2498 12C25.2498 11.5238 25.2494 11.2042 25.2325 10.9567C25.2161 10.716 25.1866 10.5988 25.1546 10.5216C25.0278 10.2153 24.7844 9.972 24.4781 9.84514C24.401 9.81318 24.2838 9.7837 24.043 9.76728C23.7956 9.75039 23.476 9.74999 22.9998 9.74999L9 9.74999C8.5238 9.74999 8.20421 9.75039 7.95674 9.76728C7.71602 9.7837 7.5988 9.81318 7.52165 9.84514C7.21536 9.972 6.97202 10.2153 6.84515 10.5216C6.81319 10.5988 6.78372 10.716 6.76729 10.9567C6.75041 11.2042 6.75 11.5238 6.75 12C6.75 12.4762 6.75041 12.7958 6.76729 13.0432C6.78372 13.284 6.81319 13.4012 6.84515 13.4783C6.97202 13.7846 7.21536 14.028 7.52165 14.1548C7.60828 14.1907 7.74217 14.2224 8.03832 14.2375C8.45199 14.2587 8.77018 14.6112 8.74902 15.0249C8.72786 15.4385 8.37536 15.7567 7.96168 15.7356C7.60332 15.7172 7.26882 15.6737 6.94762 15.5407C6.27379 15.2615 5.73844 14.7262 5.45933 14.0524C5.33905 13.762 5.29241 13.4625 5.27077 13.1453C5.24999 12.8407 5.24999 12.4697 5.25 12.0252V12.0252V12V11.9747V11.9747C5.24999 11.5303 5.24999 11.1592 5.27077 10.8546C5.29241 10.5375 5.33905 10.238 5.45933 9.94761C5.73844 9.27378 6.27379 8.73842 6.94762 8.45932C7.23801 8.33903 7.53754 8.29239 7.85464 8.27076C8.15925 8.24997 8.53028 8.24998 8.97474 8.24998H8.97475ZM8.24995 12C8.24995 11.5858 8.58574 11.25 8.99995 11.25H9.99995L19 11.25H22H23C23.4142 11.25 23.75 11.5858 23.75 12C23.75 12.4142 23.4142 12.75 23 12.75H22.75V21.8V21.8305V21.8305C22.75 22.3646 22.75 22.8105 22.7202 23.1747C22.6892 23.5546 22.6221 23.9112 22.4502 24.2485C22.1866 24.7659 21.7659 25.1866 21.2484 25.4503C20.9112 25.6221 20.5545 25.6892 20.1746 25.7203C19.8515 25.7467 19.4641 25.7496 19.0077 25.75L19 25.75L18.9932 25.75L18.8305 25.75H18.8304H18.8H13.2H13.1695H13.1694C12.6353 25.75 12.1895 25.75 11.8253 25.7203C11.4454 25.6892 11.0887 25.6221 10.7515 25.4503C10.234 25.1866 9.81334 24.7659 9.54969 24.2485C9.37784 23.9112 9.31073 23.5546 9.27969 23.1747C9.24993 22.8104 9.24994 22.3646 9.24995 21.8304L9.24995 21.8L9.24995 12.75H8.99995C8.58574 12.75 8.24995 12.4142 8.24995 12ZM10.75 12.75L18.25 12.75V24.25H13.2C12.6275 24.25 12.2433 24.2494 11.9474 24.2252C11.6603 24.2018 11.523 24.1599 11.4325 24.1138C11.1973 23.9939 11.006 23.8027 10.8862 23.5675C10.8401 23.4769 10.7982 23.3396 10.7747 23.0525C10.7505 22.7566 10.75 22.3724 10.75 21.8L10.75 12.75ZM19.75 12.75V24.2416C19.8612 24.2379 19.9611 24.2327 20.0525 24.2252C20.3396 24.2018 20.4769 24.1599 20.5674 24.1138C20.8026 23.9939 20.9939 23.8027 21.1137 23.5675C21.1599 23.4769 21.2017 23.3396 21.2252 23.0525C21.2494 22.7566 21.25 22.3724 21.25 21.8V12.75H19.75ZM16.75 19.5C16.75 19.0858 16.4142 18.75 16 18.75C15.5857 18.75 15.25 19.0858 15.25 19.5V22C15.25 22.4142 15.5857 22.75 16 22.75C16.4142 22.75 16.75 22.4142 16.75 22V19.5Z" fill="#151E28"/>
</svg>
