<svg viewBox="0 0 32 32" fill="none" xmlns="http://www.w3.org/2000/svg">
<path d="M18.0005 19.6468L8.87227 24.4794C8.00195 24.9401 7.05984 23.998 7.5206 23.1277L12.3532 13.9995C13.6684 11.5151 17.0123 11.0123 19 13C20.9876 14.9877 20.4848 18.3315 18.0005 19.6468Z" fill="white"/>
<path d="M22.967 7.91316L23.901 6.73948L23.901 6.73947L22.967 7.91316ZM23.2496 8.52152L24.749 8.56456L24.749 8.56456L23.2496 8.52152ZM22.3107 7.77427L22.6892 9.22573L22.6892 9.22573L22.3107 7.77427ZM20.4478 8.26008L19.1446 9.00292C19.4805 9.59215 20.17 9.88269 20.8263 9.71154L20.4478 8.26008ZM19.399 6.42021L20.7021 5.67737L20.7021 5.67737L19.399 6.42021ZM18.7133 6.0424L18.7815 7.54086L18.7815 7.54086L18.7133 6.0424ZM18.0648 6.48087L19.43 7.10238L19.43 7.10238L18.0648 6.48087ZM17.0594 8.68925L15.6943 8.06773L15.6943 8.06774L17.0594 8.68925ZM17.4313 9.68259L16.8098 11.0478L16.8098 11.0478L17.4313 9.68259ZM18.4246 9.31076L17.0594 8.68925L17.0594 8.68925L18.4246 9.31076ZM18.8222 8.43737L20.1254 7.69453C19.8464 7.20516 19.3168 6.91333 18.7541 6.93891C18.1914 6.9645 17.6905 7.30319 17.4571 7.81586L18.8222 8.43737ZM19.4293 9.50227L18.1261 10.2451L18.1261 10.2451L19.4293 9.50227ZM20.2701 9.85658L19.8916 8.40512L19.8916 8.40512L20.2701 9.85658ZM21.7216 9.47807L23.2209 9.52111C23.2345 9.04916 23.025 8.59839 22.6556 8.30439C22.2862 8.01038 21.7999 7.90747 21.343 8.02661L21.7216 9.47807ZM21.6785 10.9775L20.1791 10.9344L20.1791 10.9344L21.6785 10.9775ZM22.2125 11.7173L22.6439 10.2806L22.6439 10.2806L22.2125 11.7173ZM23.3865 12.0698L24.2986 13.2606C24.7458 12.9181 24.9634 12.3539 24.862 11.7998C24.7606 11.2457 24.3574 10.7951 23.8179 10.6331L23.3865 12.0698ZM22.5439 12.7152L23.456 13.906L23.456 13.906L22.5439 12.7152ZM22.4045 13.7666L21.2137 14.6787L21.2137 14.6787L22.4045 13.7666ZM23.456 13.906L22.5439 12.7152L22.5439 12.7152L23.456 13.906ZM25.4631 12.3687L24.551 11.1779L24.551 11.1779L25.4631 12.3687ZM25.7448 11.6383L24.2693 11.9083L24.2693 11.9083L25.7448 11.6383ZM25.2227 11.055L24.7914 12.4916L24.7914 12.4916L25.2227 11.055ZM23.1944 10.4459L21.695 10.4029C21.6756 11.0809 22.1134 11.6875 22.763 11.8826L23.1944 10.4459ZM11.6904 13.6486L10.3648 12.9467L10.3648 12.9467L11.6904 13.6486ZM19.5304 12.4697L18.4697 13.5303L18.4697 13.5303L19.5304 12.4697ZM6.85785 22.7768L5.53217 22.075L5.53217 22.075L6.85785 22.7768ZM9.22329 25.1422L8.52145 23.8165L8.52145 23.8165L9.22329 25.1422ZM18.3515 20.3096L17.6497 18.9839L17.6497 18.9839L18.3515 20.3096ZM18.4697 13.5303L19.5304 12.4697L19.5304 12.4697L18.4697 13.5303ZM13.0161 14.3504L14.3418 15.0522L14.3418 15.0522L13.0161 14.3504ZM18.4559 18.3952L17.3952 19.4559C17.9776 20.0383 18.9207 20.0422 19.5078 19.4646L18.4559 18.3952ZM16.5303 16.4697L15.4697 17.5303L15.4697 17.5303L16.5303 16.4697ZM15.4697 16.4697L16.5303 17.5303L16.5303 17.5303L15.4697 16.4697ZM15.4697 17.5303L16.5303 16.4697L16.5303 16.4697L15.4697 17.5303ZM17.1747 19.2354L17.8766 20.5611C18.2973 20.3383 18.5873 19.9292 18.6581 19.4584C18.7288 18.9877 18.572 18.5113 18.2354 18.1747L17.1747 19.2354ZM8.52145 23.8165L7.81962 22.4909L7.81962 22.4909L8.52145 23.8165ZM8.18353 23.4786L6.85785 22.7768L6.85785 22.7768L8.18353 23.4786ZM9.99545 20.0561L11.0561 18.9955C10.7195 18.6589 10.2431 18.502 9.77241 18.5728C9.30168 18.6436 8.89249 18.9336 8.66977 19.3543L9.99545 20.0561ZM10.4697 20.5303L9.40901 21.591L9.40901 21.591L10.4697 20.5303ZM11.5303 19.4697L10.4697 20.5303L10.4697 20.5303L11.5303 19.4697ZM10.7298 18.6691L9.40407 17.9673C9.09597 18.5492 9.20346 19.2641 9.66909 19.7297L10.7298 18.6691ZM22.0329 9.08684C21.8482 8.93984 21.7435 8.71446 21.7502 8.47848L24.749 8.56456C24.7693 7.85664 24.4552 7.18048 23.901 6.73948L22.0329 9.08684ZM22.6892 9.22573C22.4608 9.2853 22.2176 9.23384 22.0329 9.08684L23.901 6.73947C23.3469 6.29847 22.6175 6.14411 21.9322 6.32281L22.6892 9.22573ZM20.8263 9.71154L22.6892 9.22573L21.9322 6.32281L20.0693 6.80862L20.8263 9.71154ZM18.0958 7.16305L19.1446 9.00292L21.7509 7.51724L20.7021 5.67737L18.0958 7.16305ZM18.7815 7.54086C18.5001 7.55365 18.2353 7.40773 18.0958 7.16305L20.7021 5.67737C20.2837 4.94332 19.4893 4.50557 18.6452 4.54395L18.7815 7.54086ZM19.43 7.10238C19.3133 7.35872 19.0628 7.52806 18.7815 7.54086L18.6452 4.54395C17.8011 4.58233 17.0497 5.09036 16.6996 5.85937L19.43 7.10238ZM18.4246 9.31076L19.43 7.10238L16.6996 5.85936L15.6943 8.06773L18.4246 9.31076ZM18.0528 8.31741C18.4298 8.48904 18.5963 8.93377 18.4246 9.31076L15.6943 8.06774C15.1794 9.19869 15.6788 10.5329 16.8098 11.0478L18.0528 8.31741ZM17.0594 8.68925C17.2311 8.31226 17.6758 8.14578 18.0528 8.31741L16.8098 11.0478C17.9407 11.5627 19.2749 11.0632 19.7898 9.93227L17.0594 8.68925ZM17.4571 7.81586L17.0594 8.68925L19.7898 9.93227L20.1874 9.05888L17.4571 7.81586ZM20.7324 8.75943L20.1254 7.69453L17.5191 9.1802L18.1261 10.2451L20.7324 8.75943ZM19.8916 8.40512C20.2197 8.31955 20.5645 8.46482 20.7324 8.75943L18.1261 10.2451C18.6299 11.129 19.6642 11.5648 20.6486 11.308L19.8916 8.40512ZM21.343 8.02661L19.8916 8.40512L20.6486 11.308L22.1001 10.9295L21.343 8.02661ZM23.1779 11.0205L23.2209 9.52111L20.2222 9.43503L20.1791 10.9344L23.1779 11.0205ZM22.6439 10.2806C22.9687 10.3782 23.1876 10.6815 23.1779 11.0205L20.1791 10.9344C20.15 11.9514 20.8068 12.8614 21.7812 13.1539L22.6439 10.2806ZM23.8179 10.6331L22.6439 10.2806L21.7812 13.1539L22.9552 13.5064L23.8179 10.6331ZM23.456 13.906L24.2986 13.2606L22.4744 10.879L21.6318 11.5244L23.456 13.906ZM23.5954 12.8546C23.8472 13.1834 23.7848 13.6541 23.456 13.906L21.6318 11.5244C20.6453 12.28 20.4581 13.6922 21.2137 14.6787L23.5954 12.8546ZM22.5439 12.7152C22.8727 12.4633 23.3435 12.5257 23.5954 12.8545L21.2137 14.6787C21.9693 15.6653 23.3816 15.8525 24.3681 15.0968L22.5439 12.7152ZM24.551 11.1779L22.5439 12.7152L24.3681 15.0968L26.3752 13.5595L24.551 11.1779ZM24.2693 11.9083C24.2186 11.6312 24.3274 11.3491 24.551 11.1779L26.3752 13.5595C27.046 13.0457 27.3724 12.1995 27.2203 11.3683L24.2693 11.9083ZM24.7914 12.4916C24.5216 12.4106 24.32 12.1853 24.2693 11.9083L27.2203 11.3683C27.0682 10.5372 26.4633 9.8613 25.6541 9.61832L24.7914 12.4916ZM22.763 11.8826L24.7914 12.4916L25.6541 9.61832L23.6258 9.0093L22.763 11.8826ZM21.7502 8.47848L21.695 10.4029L24.6938 10.489L24.749 8.56456L21.7502 8.47848ZM13.0161 14.3504C14.0953 12.312 16.8389 11.8995 18.4697 13.5303L20.591 11.409C17.533 8.35093 12.3883 9.12452 10.3648 12.9467L13.0161 14.3504ZM8.18353 23.4786L13.0161 14.3504L10.3648 12.9467L5.53217 22.075L8.18353 23.4786ZM8.52145 23.8165C8.43949 23.8599 8.39304 23.8561 8.36696 23.8513C8.32877 23.8444 8.27645 23.8211 8.2277 23.7724C8.17895 23.7236 8.15571 23.6713 8.14874 23.6331C8.14398 23.607 8.14014 23.5606 8.18353 23.4786L5.53217 22.075C4.03468 24.9035 7.0966 27.9654 9.92512 26.4679L8.52145 23.8165ZM17.6497 18.9839L8.52145 23.8165L9.92512 26.4679L19.0534 21.6353L17.6497 18.9839ZM18.4697 13.5303C20.1006 15.1612 19.688 17.9048 17.6497 18.9839L19.0534 21.6353C22.8756 19.6118 23.6491 14.4671 20.591 11.409L18.4697 13.5303ZM19.5304 12.4697C17.1859 10.1252 13.2418 10.7183 11.6904 13.6486L14.3418 15.0522C14.9487 13.9058 16.4918 13.6738 17.4091 14.591L19.5304 12.4697ZM19.5078 19.4646C21.3901 17.6129 21.527 14.4663 19.5304 12.4697L17.4091 14.591C18.1848 15.3668 18.1415 16.6004 17.404 17.3259L19.5078 19.4646ZM15.4697 17.5303L17.3952 19.4559L19.5166 17.3346L17.591 15.409L15.4697 17.5303ZM16.5303 17.5303C16.2374 17.8232 15.7626 17.8232 15.4697 17.5303L17.591 15.409C16.7123 14.5303 15.2877 14.5303 14.409 15.409L16.5303 17.5303ZM16.5303 16.4697C16.8232 16.7626 16.8232 17.2374 16.5303 17.5303L14.409 15.409C13.5303 16.2877 13.5303 17.7123 14.409 18.591L16.5303 16.4697ZM18.2354 18.1747L16.5303 16.4697L14.409 18.591L16.1141 20.296L18.2354 18.1747ZM9.22329 25.1422L17.8766 20.5611L16.4729 17.9097L7.81962 22.4909L9.22329 25.1422ZM6.85785 22.7768C6.05157 24.2998 7.70013 25.9486 9.22329 25.1422L7.81962 22.4909C8.9076 21.9149 10.0851 23.0926 9.50922 24.1805L6.85785 22.7768ZM8.66977 19.3543L6.85785 22.7768L9.50922 24.1805L11.3211 20.7579L8.66977 19.3543ZM11.5303 19.4697L11.0561 18.9955L8.93479 21.1168L9.40901 21.591L11.5303 19.4697ZM10.4697 19.4697C10.7626 19.1768 11.2374 19.1768 11.5303 19.4697L9.40901 21.591C10.2877 22.4697 11.7123 22.4697 12.591 21.591L10.4697 19.4697ZM10.4697 20.5303C10.1768 20.2374 10.1768 19.7626 10.4697 19.4697L12.591 21.591C13.4697 20.7123 13.4697 19.2877 12.591 18.409L10.4697 20.5303ZM9.66909 19.7297L10.4697 20.5303L12.591 18.409L11.7904 17.6084L9.66909 19.7297ZM11.6904 13.6486L9.40407 17.9673L12.0554 19.3709L14.3418 15.0522L11.6904 13.6486Z" fill="white"/>
<path fill-rule="evenodd" clip-rule="evenodd" d="M23.2496 8.52152C23.2564 8.28555 23.1517 8.06016 22.967 7.91316C22.7823 7.76616 22.5391 7.7147 22.3107 7.77427L20.4478 8.26008L19.399 6.42021C19.2595 6.17553 18.9947 6.02961 18.7133 6.0424C18.432 6.0552 18.1815 6.22454 18.0648 6.48087L17.0594 8.68925C16.8878 9.06623 17.0543 9.51097 17.4313 9.68259C17.8083 9.85422 18.253 9.68774 18.4246 9.31076L18.8222 8.43737L19.4293 9.50227C19.5972 9.79689 19.942 9.94215 20.2701 9.85658L21.7216 9.47807L21.6785 10.9775C21.6688 11.3164 21.8877 11.6198 22.2125 11.7173L23.3865 12.0698L22.5439 12.7152C22.2151 12.9671 22.1527 13.4378 22.4045 13.7666C22.6564 14.0955 23.1271 14.1579 23.456 13.906L25.4631 12.3687C25.6867 12.1974 25.7955 11.9153 25.7448 11.6383C25.6941 11.3612 25.4925 11.136 25.2227 11.055L23.1944 10.4459L23.2496 8.52152ZM19.5304 12.4697C17.1859 10.1252 13.2418 10.7183 11.6904 13.6486L6.85785 22.7768C6.05152 24.2999 7.70023 25.9485 9.22329 25.1422L18.3515 20.3096C21.2818 18.7583 21.8749 14.8142 19.5304 12.4697ZM13.0161 14.3504C14.0953 12.312 16.8389 11.8995 18.4697 13.5303C19.8559 14.9165 19.7658 17.1066 18.4559 18.3952L16.5303 16.4697C16.2374 16.1768 15.7626 16.1768 15.4697 16.4697C15.1768 16.7626 15.1768 17.2374 15.4697 17.5303L17.1747 19.2354L8.52145 23.8165C8.30386 23.9317 8.06835 23.6962 8.18353 23.4786L9.99545 20.0561L10.4697 20.5303C10.7626 20.8232 11.2374 20.8232 11.5303 20.5303C11.8232 20.2374 11.8232 19.7626 11.5303 19.4697L10.7298 18.6691L13.0161 14.3504Z" fill="#151E28"/>
</svg>
