<svg viewBox="0 0 32 32" fill="none" xmlns="http://www.w3.org/2000/svg">
<path d="M16 25C20.9706 25 25 20.9706 25 16C25 11.0294 20.9706 7 16 7C11.0294 7 7 11.0294 7 16V25L7.81722 24.4552C8.56751 23.955 8.94266 23.7049 9.21924 23.6192C9.57129 23.5101 9.60959 23.506 9.97688 23.5365C10.2654 23.5605 10.9249 23.8167 12.2437 24.329L12.2438 24.329C13.194 24.6982 14.4461 25 16 25Z" fill="white"/>
<path d="M7.75 23.5991H6.25C6.25 24.1514 6.55358 24.6591 7.04019 24.9205C7.5268 25.1819 8.11769 25.1547 8.57823 24.8497L7.75 23.5991ZM8.30477 23.2418L7.52258 21.9619L7.52258 21.9619L8.30477 23.2418ZM8.99729 22.9028L9.4412 24.3356L9.44127 24.3356L8.99729 22.9028ZM9.00478 22.9005L9.44876 24.3333L9.44877 24.3333L9.00478 22.9005ZM9.51096 22.7799L9.67373 24.2711L9.67373 24.2711L9.51096 22.7799ZM10.0312 22.7884L10.1556 21.2936L10.1556 21.2936L10.0312 22.7884ZM10.039 22.7891L9.91464 24.2839L9.91473 24.2839L10.039 22.7891ZM10.977 23.0436L10.4709 24.4557L10.4709 24.4557L10.977 23.0436ZM12.5027 23.625L11.9595 25.0232L11.9646 25.0252L12.5027 23.625ZM12.503 23.6251L13.052 22.2291L13.0411 22.225L12.503 23.6251ZM12.5034 23.6253L11.9545 25.0213L11.9601 25.0234L12.5034 23.6253ZM12.5154 23.6299L11.972 25.0281L11.9722 25.0281L12.5154 23.6299ZM11.9722 25.0281L11.429 26.4263L11.429 26.4263L11.9722 25.0281ZM10.4709 24.4557L10.977 23.0436L10.977 23.0436L10.4709 24.4557ZM10.06 24.3192L9.64514 25.7607L9.64515 25.7607L10.06 24.3192ZM9.91508 24.284L9.69689 25.768L9.69975 25.7684L9.91508 24.284ZM9.91472 24.2839L9.79042 25.7788C10.6156 25.8474 11.3402 25.2344 11.4095 24.4093C11.4787 23.5842 10.8663 22.8591 10.0413 22.7893L9.91472 24.2839ZM9.67374 24.2711L9.511 22.7799L9.51082 22.7799L9.67374 24.2711ZM9.4412 24.3356L8.99729 22.9028L8.99726 22.9028L9.4412 24.3356ZM9.08697 24.5217L8.30478 23.2418L8.30477 23.2418L9.08697 24.5217ZM8.23325 25.0792L7.4012 23.8311L7.4012 23.8311L8.23325 25.0792ZM7.41603 25.624L6.58397 24.376L6.58397 24.376L7.41603 25.624ZM9.25 16C9.25 12.2721 12.2721 9.25 16 9.25V6.25C10.6152 6.25 6.25 10.6152 6.25 16H9.25ZM9.25 16.0176V16H6.25V16.0176H9.25ZM9.25 16.0352V16.0176H6.25V16.0352H9.25ZM9.25 16.0527V16.0352H6.25V16.0527H9.25ZM9.25 16.0703V16.0527H6.25V16.0703H9.25ZM9.25 16.0879V16.0703H6.25V16.0879H9.25ZM9.25 16.1055V16.0879H6.25V16.1055H9.25ZM9.25 16.123V16.1055H6.25V16.123H9.25ZM9.25 16.1406V16.123H6.25V16.1406H9.25ZM9.25 16.1582V16.1406H6.25V16.1582H9.25ZM9.25 16.1758V16.1582H6.25V16.1758H9.25ZM9.25 16.1934V16.1758H6.25V16.1934H9.25ZM9.25 16.2109V16.1934H6.25V16.2109H9.25ZM9.25 16.2285V16.2109H6.25V16.2285H9.25ZM9.25 16.2461V16.2285H6.25V16.2461H9.25ZM9.25 16.2637V16.2461H6.25V16.2637H9.25ZM9.25 16.2812V16.2637H6.25V16.2812H9.25ZM9.25 16.2988V16.2812H6.25V16.2988H9.25ZM9.25 16.3164V16.2988H6.25V16.3164H9.25ZM9.25 16.334V16.3164H6.25V16.334H9.25ZM9.25 16.3516V16.334H6.25V16.3516H9.25ZM9.25 16.3691V16.3516H6.25V16.3691H9.25ZM9.25 16.3867V16.3691H6.25V16.3867H9.25ZM9.25 16.4043V16.3867H6.25V16.4043H9.25ZM9.25 16.4219V16.4043H6.25V16.4219H9.25ZM9.25 16.4395V16.4219H6.25V16.4395H9.25ZM9.25 16.457V16.4395H6.25V16.457H9.25ZM9.25 16.4746V16.457H6.25V16.4746H9.25ZM9.25 16.4922V16.4746H6.25V16.4922H9.25ZM9.25 16.5098V16.4922H6.25V16.5098H9.25ZM9.25 16.5273V16.5098H6.25V16.5273H9.25ZM9.25 16.5449V16.5273H6.25V16.5449H9.25ZM9.25 16.5625V16.5449H6.25V16.5625H9.25ZM9.25 16.5801V16.5625H6.25V16.5801H9.25ZM9.25 16.5977V16.5801H6.25V16.5977H9.25ZM9.25 16.6152V16.5977H6.25V16.6152H9.25ZM9.25 16.6328V16.6152H6.25V16.6328H9.25ZM9.25 16.6504V16.6328H6.25V16.6504H9.25ZM9.25 16.668V16.6504H6.25V16.668H9.25ZM9.25 16.6855V16.668H6.25V16.6855H9.25ZM9.25 16.7031V16.6855H6.25V16.7031H9.25ZM9.25 16.7207V16.7031H6.25V16.7207H9.25ZM9.25 16.7383V16.7207H6.25V16.7383H9.25ZM9.25 16.7559V16.7383H6.25V16.7559H9.25ZM9.25 16.7734V16.7559H6.25V16.7734H9.25ZM9.25 16.791V16.7734H6.25V16.791H9.25ZM9.25 16.8086V16.791H6.25V16.8086H9.25ZM9.25 16.8262V16.8086H6.25V16.8262H9.25ZM9.25 16.8438V16.8262H6.25V16.8438H9.25ZM9.25 16.8613V16.8438H6.25V16.8613H9.25ZM9.25 16.8789V16.8613H6.25V16.8789H9.25ZM9.25 16.8965V16.8789H6.25V16.8965H9.25ZM9.25 16.9141V16.8965H6.25V16.9141H9.25ZM9.25 16.9316V16.9141H6.25V16.9316H9.25ZM9.25 16.9492V16.9316H6.25V16.9492H9.25ZM9.25 16.9668V16.9492H6.25V16.9668H9.25ZM9.25 16.9844V16.9668H6.25V16.9844H9.25ZM9.25 17.002V16.9844H6.25V17.002H9.25ZM9.25 17.0195V17.002H6.25V17.0195H9.25ZM9.25 17.0371V17.0195H6.25V17.0371H9.25ZM9.25 17.0547V17.0371H6.25V17.0547H9.25ZM9.25 17.0723V17.0547H6.25V17.0723H9.25ZM9.25 17.0898V17.0723H6.25V17.0898H9.25ZM9.25 17.1074V17.0898H6.25V17.1074H9.25ZM9.25 17.125V17.1074H6.25V17.125H9.25ZM9.25 17.1426V17.125H6.25V17.1426H9.25ZM9.25 17.1602V17.1426H6.25V17.1602H9.25ZM9.25 17.1777V17.1602H6.25V17.1777H9.25ZM9.25 17.1953V17.1777H6.25V17.1953H9.25ZM9.25 17.2129V17.1953H6.25V17.2129H9.25ZM9.25 17.2305V17.2129H6.25V17.2305H9.25ZM9.25 17.248V17.2305H6.25V17.248H9.25ZM9.25 17.2656V17.248H6.25V17.2656H9.25ZM9.25 17.2832V17.2656H6.25V17.2832H9.25ZM9.25 17.3008V17.2832H6.25V17.3008H9.25ZM9.25 17.3184V17.3008H6.25V17.3184H9.25ZM9.25 17.3359V17.3184H6.25V17.3359H9.25ZM9.25 17.3535V17.3359H6.25V17.3535H9.25ZM9.25 17.3711V17.3535H6.25V17.3711H9.25ZM9.25 17.3887V17.3711H6.25V17.3887H9.25ZM9.25 17.4062V17.3887H6.25V17.4062H9.25ZM9.25 17.4238V17.4062H6.25V17.4238H9.25ZM9.25 17.4414V17.4238H6.25V17.4414H9.25ZM9.25 17.459V17.4414H6.25V17.459H9.25ZM9.25 17.4766V17.459H6.25V17.4766H9.25ZM9.25 17.4941V17.4766H6.25V17.4941H9.25ZM9.25 17.5117V17.4941H6.25V17.5117H9.25ZM9.25 17.5293V17.5117H6.25V17.5293H9.25ZM9.25 17.5469V17.5293H6.25V17.5469H9.25ZM9.25 17.5645V17.5469H6.25V17.5645H9.25ZM9.25 17.582V17.5645H6.25V17.582H9.25ZM9.25 17.5996V17.582H6.25V17.5996H9.25ZM9.25 17.6172V17.5996H6.25V17.6172H9.25ZM9.25 17.6348V17.6172H6.25V17.6348H9.25ZM9.25 17.6523V17.6348H6.25V17.6523H9.25ZM9.25 17.6699V17.6523H6.25V17.6699H9.25ZM9.25 17.6875V17.6699H6.25V17.6875H9.25ZM9.25 17.7051V17.6875H6.25V17.7051H9.25ZM9.25 17.7227V17.7051H6.25V17.7227H9.25ZM9.25 17.7402V17.7227H6.25V17.7402H9.25ZM9.25 17.7578V17.7402H6.25V17.7578H9.25ZM9.25 17.7754V17.7578H6.25V17.7754H9.25ZM9.25 17.793V17.7754H6.25V17.793H9.25ZM9.25 17.8105V17.793H6.25V17.8105H9.25ZM9.25 17.8281V17.8105H6.25V17.8281H9.25ZM9.25 17.8457V17.8281H6.25V17.8457H9.25ZM9.25 17.8633V17.8457H6.25V17.8633H9.25ZM9.25 17.8809V17.8633H6.25V17.8809H9.25ZM9.25 17.8984V17.8809H6.25V17.8984H9.25ZM9.25 17.916V17.8984H6.25V17.916H9.25ZM9.25 17.9336V17.916H6.25V17.9336H9.25ZM9.25 17.9512V17.9336H6.25V17.9512H9.25ZM9.25 17.9688V17.9512H6.25V17.9688H9.25ZM9.25 17.9863V17.9688H6.25V17.9863H9.25ZM9.25 18.0039V17.9863H6.25V18.0039H9.25ZM9.25 18.0215V18.0039H6.25V18.0215H9.25ZM9.25 18.0391V18.0215H6.25V18.0391H9.25ZM9.25 18.0566V18.0391H6.25V18.0566H9.25ZM9.25 18.0742V18.0566H6.25V18.0742H9.25ZM9.25 18.0918V18.0742H6.25V18.0918H9.25ZM9.25 18.1094V18.0918H6.25V18.1094H9.25ZM9.25 18.127V18.1094H6.25V18.127H9.25ZM9.25 18.1445V18.127H6.25V18.1445H9.25ZM9.25 18.1621V18.1445H6.25V18.1621H9.25ZM9.25 18.1797V18.1621H6.25V18.1797H9.25ZM9.25 18.1973V18.1797H6.25V18.1973H9.25ZM9.25 18.2148V18.1973H6.25V18.2148H9.25ZM9.25 18.2324V18.2148H6.25V18.2324H9.25ZM9.25 18.25V18.2324H6.25V18.25H9.25ZM9.25 18.2676V18.25H6.25V18.2676H9.25ZM9.25 18.2852V18.2676H6.25V18.2852H9.25ZM9.25 18.3027V18.2852H6.25V18.3027H9.25ZM9.25 18.3203V18.3027H6.25V18.3203H9.25ZM9.25 18.3379V18.3203H6.25V18.3379H9.25ZM9.25 18.3555V18.3379H6.25V18.3555H9.25ZM9.25 18.373V18.3555H6.25V18.373H9.25ZM9.25 18.3906V18.373H6.25V18.3906H9.25ZM9.25 18.4082V18.3906H6.25V18.4082H9.25ZM9.25 18.4258V18.4082H6.25V18.4258H9.25ZM9.25 18.4434V18.4258H6.25V18.4434H9.25ZM9.25 18.4609V18.4434H6.25V18.4609H9.25ZM9.25 18.4785V18.4609H6.25V18.4785H9.25ZM9.25 18.4961V18.4785H6.25V18.4961H9.25ZM9.25 18.5137V18.4961H6.25V18.5137H9.25ZM9.25 18.5312V18.5137H6.25V18.5312H9.25ZM9.25 18.5488V18.5312H6.25V18.5488H9.25ZM9.25 18.5664V18.5488H6.25V18.5664H9.25ZM9.25 18.584V18.5664H6.25V18.584H9.25ZM9.25 18.6016V18.584H6.25V18.6016H9.25ZM9.25 18.6191V18.6016H6.25V18.6191H9.25ZM9.25 18.6367V18.6191H6.25V18.6367H9.25ZM9.25 18.6543V18.6367H6.25V18.6543H9.25ZM9.25 18.6719V18.6543H6.25V18.6719H9.25ZM9.25 18.6895V18.6719H6.25V18.6895H9.25ZM9.25 18.707V18.6895H6.25V18.707H9.25ZM9.25 18.7246V18.707H6.25V18.7246H9.25ZM9.25 18.7422V18.7246H6.25V18.7422H9.25ZM9.25 18.7598V18.7422H6.25V18.7598H9.25ZM9.25 18.7773V18.7598H6.25V18.7773H9.25ZM9.25 18.7949V18.7773H6.25V18.7949H9.25ZM9.25 18.8125V18.7949H6.25V18.8125H9.25ZM9.25 18.8301V18.8125H6.25V18.8301H9.25ZM9.25 18.8477V18.8301H6.25V18.8477H9.25ZM9.25 18.8652V18.8477H6.25V18.8652H9.25ZM9.25 18.8828V18.8652H6.25V18.8828H9.25ZM9.25 18.9004V18.8828H6.25V18.9004H9.25ZM9.25 18.918V18.9004H6.25V18.918H9.25ZM9.25 18.9355V18.918H6.25V18.9355H9.25ZM9.25 18.9531V18.9355H6.25V18.9531H9.25ZM9.25 18.9707V18.9531H6.25V18.9707H9.25ZM9.25 18.9883V18.9707H6.25V18.9883H9.25ZM9.25 19.0059V18.9883H6.25V19.0059H9.25ZM9.25 19.0234V19.0059H6.25V19.0234H9.25ZM9.25 19.041V19.0234H6.25V19.041H9.25ZM9.25 19.0586V19.041H6.25V19.0586H9.25ZM9.25 19.0762V19.0586H6.25V19.0762H9.25ZM9.25 19.0938V19.0762H6.25V19.0938H9.25ZM9.25 19.1113V19.0938H6.25V19.1113H9.25ZM9.25 19.1289V19.1113H6.25V19.1289H9.25ZM9.25 19.1465V19.1289H6.25V19.1465H9.25ZM9.25 19.1641V19.1465H6.25V19.1641H9.25ZM9.25 19.1816V19.1641H6.25V19.1816H9.25ZM9.25 19.1992V19.1816H6.25V19.1992H9.25ZM9.25 19.2168V19.1992H6.25V19.2168H9.25ZM9.25 19.2344V19.2168H6.25V19.2344H9.25ZM9.25 19.252V19.2344H6.25V19.252H9.25ZM9.25 19.2695V19.252H6.25V19.2695H9.25ZM9.25 19.2871V19.2695H6.25V19.2871H9.25ZM9.25 19.3047V19.2871H6.25V19.3047H9.25ZM9.25 19.3223V19.3047H6.25V19.3223H9.25ZM9.25 19.3398V19.3223H6.25V19.3398H9.25ZM9.25 19.3574V19.3398H6.25V19.3574H9.25ZM9.25 19.375V19.3574H6.25V19.375H9.25ZM9.25 19.3926V19.375H6.25V19.3926H9.25ZM9.25 19.4102V19.3926H6.25V19.4102H9.25ZM9.25 19.4277V19.4102H6.25V19.4277H9.25ZM9.25 19.4453V19.4277H6.25V19.4453H9.25ZM9.25 19.4629V19.4453H6.25V19.4629H9.25ZM9.25 19.4805V19.4629H6.25V19.4805H9.25ZM9.25 19.498V19.4805H6.25V19.498H9.25ZM9.25 19.5156V19.498H6.25V19.5156H9.25ZM9.25 19.5332V19.5156H6.25V19.5332H9.25ZM9.25 19.5508V19.5332H6.25V19.5508H9.25ZM9.25 19.5684V19.5508H6.25V19.5684H9.25ZM9.25 19.5859V19.5684H6.25V19.5859H9.25ZM9.25 19.6035V19.5859H6.25V19.6035H9.25ZM9.25 19.6211V19.6035H6.25V19.6211H9.25ZM9.25 19.6387V19.6211H6.25V19.6387H9.25ZM9.25 19.6562V19.6387H6.25V19.6562H9.25ZM9.25 19.6738V19.6562H6.25V19.6738H9.25ZM9.25 19.6914V19.6738H6.25V19.6914H9.25ZM9.25 19.709V19.6914H6.25V19.709H9.25ZM9.25 19.7266V19.709H6.25V19.7266H9.25ZM9.25 19.7441V19.7266H6.25V19.7441H9.25ZM9.25 19.7617V19.7441H6.25V19.7617H9.25ZM9.25 19.7793V19.7617H6.25V19.7793H9.25ZM9.25 19.7969V19.7793H6.25V19.7969H9.25ZM9.25 19.8145V19.7969H6.25V19.8145H9.25ZM9.25 19.832V19.8145H6.25V19.832H9.25ZM9.25 19.8496V19.832H6.25V19.8496H9.25ZM9.25 19.8672V19.8496H6.25V19.8672H9.25ZM9.25 19.8848V19.8672H6.25V19.8848H9.25ZM9.25 19.9023V19.8848H6.25V19.9023H9.25ZM9.25 19.9199V19.9023H6.25V19.9199H9.25ZM9.25 19.9375V19.9199H6.25V19.9375H9.25ZM9.25 19.9551V19.9375H6.25V19.9551H9.25ZM9.25 19.9727V19.9551H6.25V19.9727H9.25ZM9.25 19.9902V19.9727H6.25V19.9902H9.25ZM9.25 20.0078V19.9902H6.25V20.0078H9.25ZM9.25 20.0254V20.0078H6.25V20.0254H9.25ZM9.25 20.043V20.0254H6.25V20.043H9.25ZM9.25 20.0605V20.043H6.25V20.0605H9.25ZM9.25 20.0781V20.0605H6.25V20.0781H9.25ZM9.25 20.0957V20.0781H6.25V20.0957H9.25ZM9.25 20.1133V20.0957H6.25V20.1133H9.25ZM9.25 20.1309V20.1133H6.25V20.1309H9.25ZM9.25 20.1484V20.1309H6.25V20.1484H9.25ZM9.25 20.166V20.1484H6.25V20.166H9.25ZM9.25 20.1836V20.166H6.25V20.1836H9.25ZM9.25 20.2012V20.1836H6.25V20.2012H9.25ZM9.25 20.2188V20.2012H6.25V20.2188H9.25ZM9.25 20.2363V20.2188H6.25V20.2363H9.25ZM9.25 20.2539V20.2363H6.25V20.2539H9.25ZM9.25 20.2715V20.2539H6.25V20.2715H9.25ZM9.25 20.2891V20.2715H6.25V20.2891H9.25ZM9.25 20.3066V20.2891H6.25V20.3066H9.25ZM9.25 20.3242V20.3066H6.25V20.3242H9.25ZM9.25 20.3418V20.3242H6.25V20.3418H9.25ZM9.25 20.3594V20.3418H6.25V20.3594H9.25ZM9.25 20.377V20.3594H6.25V20.377H9.25ZM9.25 20.3945V20.377H6.25V20.3945H9.25ZM9.25 20.4121V20.3945H6.25V20.4121H9.25ZM9.25 20.4297V20.4121H6.25V20.4297H9.25ZM9.25 20.4473V20.4297H6.25V20.4473H9.25ZM9.25 20.4648V20.4473H6.25V20.4648H9.25ZM9.25 20.4824V20.4648H6.25V20.4824H9.25ZM9.25 20.5V20.4824H6.25V20.5H9.25ZM9.25 20.5176V20.5H6.25V20.5176H9.25ZM9.25 20.5352V20.5176H6.25V20.5352H9.25ZM9.25 20.5527V20.5352H6.25V20.5527H9.25ZM9.25 20.5703V20.5527H6.25V20.5703H9.25ZM9.25 20.5879V20.5703H6.25V20.5879H9.25ZM9.25 20.6055V20.5879H6.25V20.6055H9.25ZM9.25 20.623V20.6055H6.25V20.623H9.25ZM9.25 20.6406V20.623H6.25V20.6406H9.25ZM9.25 20.6582V20.6406H6.25V20.6582H9.25ZM9.25 20.6758V20.6582H6.25V20.6758H9.25ZM9.25 20.6934V20.6758H6.25V20.6934H9.25ZM9.25 20.7109V20.6934H6.25V20.7109H9.25ZM9.25 20.7285V20.7109H6.25V20.7285H9.25ZM9.25 20.7461V20.7285H6.25V20.7461H9.25ZM9.25 20.7637V20.7461H6.25V20.7637H9.25ZM9.25 20.7812V20.7637H6.25V20.7812H9.25ZM9.25 20.7988V20.7812H6.25V20.7988H9.25ZM9.25 20.8164V20.7988H6.25V20.8164H9.25ZM9.25 20.834V20.8164H6.25V20.834H9.25ZM9.25 20.8516V20.834H6.25V20.8516H9.25ZM9.25 20.8691V20.8516H6.25V20.8691H9.25ZM9.25 20.8867V20.8691H6.25V20.8867H9.25ZM9.25 20.9043V20.8867H6.25V20.9043H9.25ZM9.25 20.9219V20.9043H6.25V20.9219H9.25ZM9.25 20.9395V20.9219H6.25V20.9395H9.25ZM9.25 20.957V20.9395H6.25V20.957H9.25ZM9.25 20.9746V20.957H6.25V20.9746H9.25ZM9.25 20.9922V20.9746H6.25V20.9922H9.25ZM9.25 21.0098V20.9922H6.25V21.0098H9.25ZM9.25 21.0273V21.0098H6.25V21.0273H9.25ZM9.25 21.0449V21.0273H6.25V21.0449H9.25ZM9.25 21.0625V21.0449H6.25V21.0625H9.25ZM9.25 21.0801V21.0625H6.25V21.0801H9.25ZM9.25 21.0977V21.0801H6.25V21.0977H9.25ZM9.25 21.1152V21.0977H6.25V21.1152H9.25ZM9.25 21.1328V21.1152H6.25V21.1328H9.25ZM9.25 21.1504V21.1328H6.25V21.1504H9.25ZM9.25 21.168V21.1504H6.25V21.168H9.25ZM9.25 21.1855V21.168H6.25V21.1855H9.25ZM9.25 21.2031V21.1855H6.25V21.2031H9.25ZM9.25 21.2207V21.2031H6.25V21.2207H9.25ZM9.25 21.2383V21.2207H6.25V21.2383H9.25ZM9.25 21.2559V21.2383H6.25V21.2559H9.25ZM9.25 21.2734V21.2559H6.25V21.2734H9.25ZM9.25 21.291V21.2734H6.25V21.291H9.25ZM9.25 21.3086V21.291H6.25V21.3086H9.25ZM9.25 21.3262V21.3086H6.25V21.3262H9.25ZM9.25 21.3438V21.3262H6.25V21.3438H9.25ZM9.25 21.3613V21.3438H6.25V21.3613H9.25ZM9.25 21.3789V21.3613H6.25V21.3789H9.25ZM9.25 21.3965V21.3789H6.25V21.3965H9.25ZM9.25 21.4141V21.3965H6.25V21.4141H9.25ZM9.25 21.4316V21.4141H6.25V21.4316H9.25ZM9.25 21.4492V21.4316H6.25V21.4492H9.25ZM9.25 21.4668V21.4492H6.25V21.4668H9.25ZM9.25 21.4844V21.4668H6.25V21.4844H9.25ZM9.25 21.502V21.4844H6.25V21.502H9.25ZM9.25 21.5195V21.502H6.25V21.5195H9.25ZM9.25 21.5371V21.5195H6.25V21.5371H9.25ZM9.25 21.5547V21.5371H6.25V21.5547H9.25ZM9.25 21.5723V21.5547H6.25V21.5723H9.25ZM9.25 21.5898V21.5723H6.25V21.5898H9.25ZM9.25 21.6074V21.5898H6.25V21.6074H9.25ZM9.25 21.625V21.6074H6.25V21.625H9.25ZM9.25 21.6426V21.625H6.25V21.6426H9.25ZM9.25 21.6602V21.6426H6.25V21.6602H9.25ZM9.25 21.6777V21.6602H6.25V21.6777H9.25ZM9.25 21.6953V21.6777H6.25V21.6953H9.25ZM9.25 21.7129V21.6953H6.25V21.7129H9.25ZM9.25 21.7305V21.7129H6.25V21.7305H9.25ZM9.25 21.748V21.7305H6.25V21.748H9.25ZM9.25 21.7656V21.748H6.25V21.7656H9.25ZM9.25 21.7832V21.7656H6.25V21.7832H9.25ZM9.25 21.8008V21.7832H6.25V21.8008H9.25ZM9.25 21.8184V21.8008H6.25V21.8184H9.25ZM9.25 21.8359V21.8184H6.25V21.8359H9.25ZM9.25 21.8535V21.8359H6.25V21.8535H9.25ZM9.25 21.8711V21.8535H6.25V21.8711H9.25ZM9.25 21.8887V21.8711H6.25V21.8887H9.25ZM9.25 21.9062V21.8887H6.25V21.9062H9.25ZM9.25 21.9238V21.9062H6.25V21.9238H9.25ZM9.25 21.9414V21.9238H6.25V21.9414H9.25ZM9.25 21.959V21.9414H6.25V21.959H9.25ZM9.25 21.9766V21.959H6.25V21.9766H9.25ZM9.25 21.9941V21.9766H6.25V21.9941H9.25ZM9.25 22.0117V21.9941H6.25V22.0117H9.25ZM9.25 22.0293V22.0117H6.25V22.0293H9.25ZM9.25 22.0469V22.0293H6.25V22.0469H9.25ZM9.25 22.0645V22.0469H6.25V22.0645H9.25ZM9.25 22.082V22.0645H6.25V22.082H9.25ZM9.25 22.0996V22.082H6.25V22.0996H9.25ZM9.25 22.1172V22.0996H6.25V22.1172H9.25ZM9.25 22.1348V22.1172H6.25V22.1348H9.25ZM9.25 22.1523V22.1348H6.25V22.1523H9.25ZM9.25 22.1699V22.1523H6.25V22.1699H9.25ZM9.25 22.1875V22.1699H6.25V22.1875H9.25ZM9.25 22.2051V22.1875H6.25V22.2051H9.25ZM9.25 22.2227V22.2051H6.25V22.2227H9.25ZM9.25 22.2402V22.2227H6.25V22.2402H9.25ZM9.25 22.2578V22.2402H6.25V22.2578H9.25ZM9.25 22.2754V22.2578H6.25V22.2754H9.25ZM9.25 22.293V22.2754H6.25V22.293H9.25ZM9.25 22.3105V22.293H6.25V22.3105H9.25ZM9.25 22.3281V22.3105H6.25V22.3281H9.25ZM9.25 22.3457V22.3281H6.25V22.3457H9.25ZM9.25 22.3633V22.3457H6.25V22.3633H9.25ZM9.25 22.3809V22.3633H6.25V22.3809H9.25ZM9.25 22.3984V22.3809H6.25V22.3984H9.25ZM9.25 22.416V22.3984H6.25V22.416H9.25ZM9.25 22.4336V22.416H6.25V22.4336H9.25ZM9.25 22.4512V22.4336H6.25V22.4512H9.25ZM9.25 22.4688V22.4512H6.25V22.4688H9.25ZM9.25 22.4863V22.4688H6.25V22.4863H9.25ZM9.25 22.5039V22.4863H6.25V22.5039H9.25ZM9.25 22.5215V22.5039H6.25V22.5215H9.25ZM9.25 22.5391V22.5215H6.25V22.5391H9.25ZM9.25 22.5566V22.5391H6.25V22.5566H9.25ZM9.25 22.5742V22.5566H6.25V22.5742H9.25ZM9.25 22.5918V22.5742H6.25V22.5918H9.25ZM9.25 22.6094V22.5918H6.25V22.6094H9.25ZM9.25 22.627V22.6094H6.25V22.627H9.25ZM9.25 22.6445V22.627H6.25V22.6445H9.25ZM9.25 22.6621V22.6445H6.25V22.6621H9.25ZM9.25 22.6797V22.6621H6.25V22.6797H9.25ZM9.25 22.6973V22.6797H6.25V22.6973H9.25ZM9.25 22.7148V22.6973H6.25V22.7148H9.25ZM9.25 22.7324V22.7148H6.25V22.7324H9.25ZM9.25 22.75V22.7324H6.25V22.75H9.25ZM9.25 22.7676V22.75H6.25V22.7676H9.25ZM9.25 22.7852V22.7676H6.25V22.7852H9.25ZM9.25 22.8027V22.7852H6.25V22.8027H9.25ZM9.25 22.8203V22.8027H6.25V22.8203H9.25ZM9.25 22.8379V22.8203H6.25V22.8379H9.25ZM9.25 22.8555V22.8379H6.25V22.8555H9.25ZM9.25 22.873V22.8555H6.25V22.873H9.25ZM9.25 22.8906V22.873H6.25V22.8906H9.25ZM9.25 22.9082V22.8906H6.25V22.9082H9.25ZM9.25 22.9258V22.9082H6.25V22.9258H9.25ZM9.25 22.9434V22.9258H6.25V22.9434H9.25ZM9.25 22.9609V22.9434H6.25V22.9609H9.25ZM9.25 22.9785V22.9609H6.25V22.9785H9.25ZM9.25 22.9961V22.9785H6.25V22.9961H9.25ZM9.25 23.0137V22.9961H6.25V23.0137H9.25ZM9.25 23.0312V23.0137H6.25V23.0312H9.25ZM9.25 23.0488V23.0312H6.25V23.0488H9.25ZM9.25 23.0664V23.0488H6.25V23.0664H9.25ZM9.25 23.084V23.0664H6.25V23.084H9.25ZM9.25 23.1016V23.084H6.25V23.1016H9.25ZM9.25 23.1191V23.1016H6.25V23.1191H9.25ZM9.25 23.1367V23.1191H6.25V23.1367H9.25ZM9.25 23.1543V23.1367H6.25V23.1543H9.25ZM9.25 23.1719V23.1543H6.25V23.1719H9.25ZM9.25 23.1895V23.1719H6.25V23.1895H9.25ZM9.25 23.207V23.1895H6.25V23.207H9.25ZM9.25 23.2246V23.207H6.25V23.2246H9.25ZM9.25 23.2422V23.2246H6.25V23.2422H9.25ZM9.25 23.2598V23.2422H6.25V23.2598H9.25ZM9.25 23.2773V23.2598H6.25V23.2773H9.25ZM9.25 23.2949V23.2773H6.25V23.2949H9.25ZM9.25 23.3125V23.2949H6.25V23.3125H9.25ZM9.25 23.3301V23.3125H6.25V23.3301H9.25ZM9.25 23.3477V23.3301H6.25V23.3477H9.25ZM9.25 23.3652V23.3477H6.25V23.3652H9.25ZM9.25 23.3828V23.3652H6.25V23.3828H9.25ZM9.25 23.4004V23.3828H6.25V23.4004H9.25ZM9.25 23.418V23.4004H6.25V23.418H9.25ZM9.25 23.4355V23.418H6.25V23.4355H9.25ZM9.25 23.4531V23.4355H6.25V23.4531H9.25ZM9.25 23.4707V23.4531H6.25V23.4707H9.25ZM9.25 23.4883V23.4707H6.25V23.4883H9.25ZM9.25 23.5059V23.4883H6.25V23.5059H9.25ZM9.25 23.5234V23.5059H6.25V23.5234H9.25ZM9.25 23.541V23.5234H6.25V23.541H9.25ZM9.25 23.5586V23.541H6.25V23.5586H9.25ZM9.25 23.5762V23.5586H6.25V23.5762H9.25ZM9.25 23.5938V23.5762H6.25V23.5938H9.25ZM9.25 23.5991V23.5938H6.25V23.5991H9.25ZM7.52258 21.9619C7.34003 22.0735 7.13751 22.2056 6.92177 22.3485L8.57823 24.8497C8.78971 24.7096 8.95394 24.603 9.08697 24.5217L7.52258 21.9619ZM8.55337 21.47C8.13501 21.5996 7.77488 21.8077 7.52258 21.9619L9.08696 24.5217C9.29819 24.3926 9.39578 24.3497 9.4412 24.3356L8.55337 21.47ZM8.56079 21.4677L8.5533 21.47L9.44127 24.3356L9.44876 24.3333L8.56079 21.4677ZM9.34818 21.2888C9.00227 21.3265 8.70402 21.4233 8.56079 21.4677L9.44877 24.3333C9.53437 24.3067 9.58029 24.2928 9.62192 24.2822C9.65876 24.2728 9.67293 24.2712 9.67373 24.2711L9.34818 21.2888ZM10.1556 21.2936C10.0062 21.2812 9.69408 21.251 9.34818 21.2888L9.67373 24.2711C9.67454 24.271 9.68872 24.2695 9.72673 24.2707C9.76968 24.2722 9.81752 24.2758 9.90683 24.2833L10.1556 21.2936ZM10.1634 21.2942L10.1556 21.2936L9.90682 24.2833L9.91464 24.2839L10.1634 21.2942ZM11.483 21.6315C11.1657 21.5178 10.6513 21.3348 10.1634 21.2942L9.91473 24.2839C9.90493 24.2831 9.94617 24.2866 10.0623 24.3198C10.1721 24.3512 10.3043 24.3959 10.4709 24.4557L11.483 21.6315ZM13.0459 22.2268C12.405 21.9778 11.8812 21.7742 11.483 21.6315L10.4709 24.4557C10.8227 24.5817 11.3023 24.7679 11.9595 25.0232L13.0459 22.2268ZM13.0411 22.225L13.0408 22.2248L11.9646 25.0252L11.965 25.0253L13.0411 22.225ZM13.0524 22.2293L13.0519 22.2292L11.9541 25.0211L11.9545 25.0213L13.0524 22.2293ZM13.0587 22.2318L13.0468 22.2272L11.9601 25.0234L11.972 25.0281L13.0587 22.2318ZM16 22.75C14.7445 22.75 13.768 22.5074 13.0585 22.2317L11.9722 25.0281C13.0027 25.4285 14.3466 25.75 16 25.75V22.75ZM22.75 16C22.75 19.7279 19.7279 22.75 16 22.75V25.75C21.3848 25.75 25.75 21.3848 25.75 16H22.75ZM16 9.25C19.7279 9.25 22.75 12.2721 22.75 16H25.75C25.75 10.6152 21.3848 6.25 16 6.25V9.25ZM16 4.75C9.7868 4.75 4.75 9.7868 4.75 16H7.75C7.75 11.4437 11.4437 7.75 16 7.75V4.75ZM27.25 16C27.25 9.7868 22.2132 4.75 16 4.75V7.75C20.5563 7.75 24.25 11.4437 24.25 16H27.25ZM16 27.25C22.2132 27.25 27.25 22.2132 27.25 16H24.25C24.25 20.5563 20.5563 24.25 16 24.25V27.25ZM11.429 26.4263C12.62 26.889 14.1477 27.25 16 27.25V24.25C14.5456 24.25 13.3854 23.9679 12.5154 23.6299L11.429 26.4263ZM9.9649 25.8677C10.2958 25.9863 10.7568 26.1652 11.429 26.4263L12.5154 23.6299C11.8602 23.3754 11.3544 23.1789 10.977 23.0436L9.9649 25.8677ZM9.64515 25.7607C9.70136 25.7768 9.80082 25.8089 9.9649 25.8677L10.977 23.0436C10.7879 22.9758 10.6201 22.9195 10.4748 22.8776L9.64515 25.7607ZM9.69975 25.7684C9.69976 25.7684 9.69862 25.7683 9.69718 25.7681C9.69569 25.7678 9.69396 25.7676 9.69204 25.7673C9.68817 25.7667 9.68416 25.7661 9.68003 25.7654C9.67179 25.7641 9.6642 25.7628 9.65732 25.7615C9.64363 25.759 9.63372 25.757 9.62799 25.7557C9.61687 25.7532 9.62149 25.7539 9.64514 25.7607L10.4748 22.8777C10.3214 22.8335 10.2129 22.8115 10.1304 22.7995L9.69975 25.7684ZM10.0413 22.7893C10.0379 22.789 10.0213 22.7876 10.0001 22.7863C9.99166 22.7859 9.96399 22.7843 9.9285 22.784C9.91229 22.7838 9.87377 22.7837 9.82478 22.7866C9.80031 22.7881 9.75742 22.7912 9.70436 22.7987C9.66525 22.8043 9.55044 22.8213 9.41113 22.871C9.34138 22.8958 9.2112 22.9476 9.0669 23.0465C8.93002 23.1402 8.67652 23.3477 8.5257 23.7175C8.13926 24.6653 8.81845 25.3167 8.91966 25.4064C9.09021 25.5576 9.2547 25.6316 9.29246 25.6488C9.35656 25.678 9.40937 25.6965 9.43665 25.7057C9.5273 25.7362 9.60335 25.7512 9.604 25.7514C9.63854 25.7587 9.6664 25.7632 9.66823 25.7635C9.67655 25.7649 9.68308 25.7659 9.6857 25.7663C9.6889 25.7668 9.69144 25.7672 9.69272 25.7674C9.69412 25.7676 9.69523 25.7678 9.69576 25.7679C9.69633 25.7679 9.69678 25.768 9.69689 25.768L10.1333 22.7999C10.1333 22.7999 10.1337 22.8 10.1341 22.8001C10.1346 22.8001 10.1356 22.8003 10.137 22.8005C10.1382 22.8007 10.1407 22.801 10.1438 22.8015C10.1464 22.8019 10.1529 22.8029 10.1612 22.8043C10.163 22.8046 10.1908 22.8091 10.2254 22.8164C10.226 22.8166 10.302 22.8316 10.3927 22.8621C10.42 22.8713 10.4728 22.8898 10.5369 22.919C10.5746 22.9363 10.7391 23.0102 10.9097 23.1614C11.0109 23.2512 11.6901 23.9026 11.3036 24.8503C11.1528 25.2201 10.8993 25.4276 10.7624 25.5214C10.6181 25.6202 10.488 25.672 10.4182 25.6969C10.2789 25.7465 10.1641 25.7636 10.125 25.7691C10.0719 25.7766 10.029 25.7797 10.0046 25.7812C9.95557 25.7842 9.91705 25.784 9.90085 25.7838C9.86536 25.7835 9.8377 25.782 9.82928 25.7815C9.80809 25.7803 9.79151 25.7788 9.78819 25.7786L10.0413 22.7893ZM9.83647 25.7622C9.82705 25.7632 9.80761 25.7653 9.78304 25.7669C9.75926 25.7686 9.73799 25.7694 9.71987 25.7698C9.70247 25.7701 9.68881 25.77 9.68018 25.7699C9.67155 25.7697 9.66612 25.7695 9.66492 25.7695C9.66326 25.7694 9.67095 25.7697 9.69312 25.7712C9.71465 25.7727 9.74596 25.7751 9.79042 25.7788L10.039 22.7891C9.88297 22.7761 9.69879 22.7594 9.511 22.7799L9.83647 25.7622ZM9.88511 25.7684C9.92772 25.7552 9.95779 25.7462 9.97848 25.7401C9.9998 25.7338 10.0072 25.7318 10.0056 25.7323C10.0045 25.7326 9.99922 25.734 9.99083 25.736C9.98243 25.738 9.96911 25.741 9.95205 25.7444C9.93429 25.748 9.91335 25.7518 9.88979 25.7553C9.86545 25.7589 9.84605 25.7612 9.83666 25.7622L9.51082 22.7799C9.3231 22.8004 9.14694 22.8564 8.99729 22.9028L9.88511 25.7684ZM9.86916 25.8016C9.91015 25.7766 9.94146 25.7583 9.96443 25.7453C9.98755 25.7322 10.0004 25.7255 10.0046 25.7234C10.0091 25.7211 10.0014 25.7252 9.9837 25.7327C9.97455 25.7366 9.96177 25.7418 9.94574 25.7478C9.92973 25.7538 9.90937 25.7609 9.88514 25.7684L8.99726 22.9028C8.76394 22.9751 8.53386 23.1018 8.30478 23.2418L9.86916 25.8016ZM9.06529 26.3273C9.45639 26.0666 9.69399 25.9087 9.86916 25.8016L8.30477 23.2418C8.06694 23.3871 7.7709 23.5847 7.4012 23.8311L9.06529 26.3273ZM8.24808 26.8721L9.0653 26.3273L7.4012 23.8311L6.58397 24.376L8.24808 26.8721ZM5.93832 26.9838C6.66993 27.3753 7.55765 27.3324 8.24808 26.8721L6.58397 24.376C6.81411 24.2225 7.11002 24.2082 7.35389 24.3387L5.93832 26.9838ZM4.75 25C4.75 25.8298 5.20671 26.5922 5.93832 26.9838L7.35389 24.3387C7.59776 24.4693 7.75 24.7234 7.75 25H4.75ZM4.75 24.9824V25H7.75V24.9824H4.75ZM4.75 24.9648V24.9824H7.75V24.9648H4.75ZM4.75 24.9473V24.9648H7.75V24.9473H4.75ZM4.75 24.9297V24.9473H7.75V24.9297H4.75ZM4.75 24.9121V24.9297H7.75V24.9121H4.75ZM4.75 24.8945V24.9121H7.75V24.8945H4.75ZM4.75 24.877V24.8945H7.75V24.877H4.75ZM4.75 24.8594V24.877H7.75V24.8594H4.75ZM4.75 24.8418V24.8594H7.75V24.8418H4.75ZM4.75 24.8242V24.8418H7.75V24.8242H4.75ZM4.75 24.8066V24.8242H7.75V24.8066H4.75ZM4.75 24.7891V24.8066H7.75V24.7891H4.75ZM4.75 24.7715V24.7891H7.75V24.7715H4.75ZM4.75 24.7539V24.7715H7.75V24.7539H4.75ZM4.75 24.7363V24.7539H7.75V24.7363H4.75ZM4.75 24.7188V24.7363H7.75V24.7188H4.75ZM4.75 24.7012V24.7188H7.75V24.7012H4.75ZM4.75 24.6836V24.7012H7.75V24.6836H4.75ZM4.75 24.666V24.6836H7.75V24.666H4.75ZM4.75 24.6484V24.666H7.75V24.6484H4.75ZM4.75 24.6309V24.6484H7.75V24.6309H4.75ZM4.75 24.6133V24.6309H7.75V24.6133H4.75ZM4.75 24.5957V24.6133H7.75V24.5957H4.75ZM4.75 24.5781V24.5957H7.75V24.5781H4.75ZM4.75 24.5605V24.5781H7.75V24.5605H4.75ZM4.75 24.543V24.5605H7.75V24.543H4.75ZM4.75 24.5254V24.543H7.75V24.5254H4.75ZM4.75 24.5078V24.5254H7.75V24.5078H4.75ZM4.75 24.4902V24.5078H7.75V24.4902H4.75ZM4.75 24.4727V24.4902H7.75V24.4727H4.75ZM4.75 24.4551V24.4727H7.75V24.4551H4.75ZM4.75 24.4375V24.4551H7.75V24.4375H4.75ZM4.75 24.4199V24.4375H7.75V24.4199H4.75ZM4.75 24.4023V24.4199H7.75V24.4023H4.75ZM4.75 24.3848V24.4023H7.75V24.3848H4.75ZM4.75 24.3672V24.3848H7.75V24.3672H4.75ZM4.75 24.3496V24.3672H7.75V24.3496H4.75ZM4.75 24.332V24.3496H7.75V24.332H4.75ZM4.75 24.3145V24.332H7.75V24.3145H4.75ZM4.75 24.2969V24.3145H7.75V24.2969H4.75ZM4.75 24.2793V24.2969H7.75V24.2793H4.75ZM4.75 24.2617V24.2793H7.75V24.2617H4.75ZM4.75 24.2441V24.2617H7.75V24.2441H4.75ZM4.75 24.2266V24.2441H7.75V24.2266H4.75ZM4.75 24.209V24.2266H7.75V24.209H4.75ZM4.75 24.1914V24.209H7.75V24.1914H4.75ZM4.75 24.1738V24.1914H7.75V24.1738H4.75ZM4.75 24.1562V24.1738H7.75V24.1562H4.75ZM4.75 24.1387V24.1562H7.75V24.1387H4.75ZM4.75 24.1211V24.1387H7.75V24.1211H4.75ZM4.75 24.1035V24.1211H7.75V24.1035H4.75ZM4.75 24.0859V24.1035H7.75V24.0859H4.75ZM4.75 24.0684V24.0859H7.75V24.0684H4.75ZM4.75 24.0508V24.0684H7.75V24.0508H4.75ZM4.75 24.0332V24.0508H7.75V24.0332H4.75ZM4.75 24.0156V24.0332H7.75V24.0156H4.75ZM4.75 23.998V24.0156H7.75V23.998H4.75ZM4.75 23.9805V23.998H7.75V23.9805H4.75ZM4.75 23.9629V23.9805H7.75V23.9629H4.75ZM4.75 23.9453V23.9629H7.75V23.9453H4.75ZM4.75 23.9277V23.9453H7.75V23.9277H4.75ZM4.75 23.9102V23.9277H7.75V23.9102H4.75ZM4.75 23.8926V23.9102H7.75V23.8926H4.75ZM4.75 23.875V23.8926H7.75V23.875H4.75ZM4.75 23.8574V23.875H7.75V23.8574H4.75ZM4.75 23.8398V23.8574H7.75V23.8398H4.75ZM4.75 23.8223V23.8398H7.75V23.8223H4.75ZM4.75 23.8047V23.8223H7.75V23.8047H4.75ZM4.75 23.7871V23.8047H7.75V23.7871H4.75ZM4.75 23.7695V23.7871H7.75V23.7695H4.75ZM4.75 23.752V23.7695H7.75V23.752H4.75ZM4.75 23.7344V23.752H7.75V23.7344H4.75ZM4.75 23.7168V23.7344H7.75V23.7168H4.75ZM4.75 23.6992V23.7168H7.75V23.6992H4.75ZM4.75 23.6816V23.6992H7.75V23.6816H4.75ZM4.75 23.6641V23.6816H7.75V23.6641H4.75ZM4.75 23.6465V23.6641H7.75V23.6465H4.75ZM4.75 23.6289V23.6465H7.75V23.6289H4.75ZM4.75 23.6113V23.6289H7.75V23.6113H4.75ZM4.75 23.5938V23.6113H7.75V23.5938H4.75ZM4.75 23.5762V23.5938H7.75V23.5762H4.75ZM4.75 23.5586V23.5762H7.75V23.5586H4.75ZM4.75 23.541V23.5586H7.75V23.541H4.75ZM4.75 23.5234V23.541H7.75V23.5234H4.75ZM4.75 23.5059V23.5234H7.75V23.5059H4.75ZM4.75 23.4883V23.5059H7.75V23.4883H4.75ZM4.75 23.4707V23.4883H7.75V23.4707H4.75ZM4.75 23.4531V23.4707H7.75V23.4531H4.75ZM4.75 23.4355V23.4531H7.75V23.4355H4.75ZM4.75 23.418V23.4355H7.75V23.418H4.75ZM4.75 23.4004V23.418H7.75V23.4004H4.75ZM4.75 23.3828V23.4004H7.75V23.3828H4.75ZM4.75 23.3652V23.3828H7.75V23.3652H4.75ZM4.75 23.3477V23.3652H7.75V23.3477H4.75ZM4.75 23.3301V23.3477H7.75V23.3301H4.75ZM4.75 23.3125V23.3301H7.75V23.3125H4.75ZM4.75 23.2949V23.3125H7.75V23.2949H4.75ZM4.75 23.2773V23.2949H7.75V23.2773H4.75ZM4.75 23.2598V23.2773H7.75V23.2598H4.75ZM4.75 23.2422V23.2598H7.75V23.2422H4.75ZM4.75 23.2246V23.2422H7.75V23.2246H4.75ZM4.75 23.207V23.2246H7.75V23.207H4.75ZM4.75 23.1895V23.207H7.75V23.1895H4.75ZM4.75 23.1719V23.1895H7.75V23.1719H4.75ZM4.75 23.1543V23.1719H7.75V23.1543H4.75ZM4.75 23.1367V23.1543H7.75V23.1367H4.75ZM4.75 23.1191V23.1367H7.75V23.1191H4.75ZM4.75 23.1016V23.1191H7.75V23.1016H4.75ZM4.75 23.084V23.1016H7.75V23.084H4.75ZM4.75 23.0664V23.084H7.75V23.0664H4.75ZM4.75 23.0488V23.0664H7.75V23.0488H4.75ZM4.75 23.0312V23.0488H7.75V23.0312H4.75ZM4.75 23.0137V23.0312H7.75V23.0137H4.75ZM4.75 22.9961V23.0137H7.75V22.9961H4.75ZM4.75 22.9785V22.9961H7.75V22.9785H4.75ZM4.75 22.9609V22.9785H7.75V22.9609H4.75ZM4.75 22.9434V22.9609H7.75V22.9434H4.75ZM4.75 22.9258V22.9434H7.75V22.9258H4.75ZM4.75 22.9082V22.9258H7.75V22.9082H4.75ZM4.75 22.8906V22.9082H7.75V22.8906H4.75ZM4.75 22.873V22.8906H7.75V22.873H4.75ZM4.75 22.8555V22.873H7.75V22.8555H4.75ZM4.75 22.8379V22.8555H7.75V22.8379H4.75ZM4.75 22.8203V22.8379H7.75V22.8203H4.75ZM4.75 22.8027V22.8203H7.75V22.8027H4.75ZM4.75 22.7852V22.8027H7.75V22.7852H4.75ZM4.75 22.7676V22.7852H7.75V22.7676H4.75ZM4.75 22.75V22.7676H7.75V22.75H4.75ZM4.75 22.7324V22.75H7.75V22.7324H4.75ZM4.75 22.7148V22.7324H7.75V22.7148H4.75ZM4.75 22.6973V22.7148H7.75V22.6973H4.75ZM4.75 22.6797V22.6973H7.75V22.6797H4.75ZM4.75 22.6621V22.6797H7.75V22.6621H4.75ZM4.75 22.6445V22.6621H7.75V22.6445H4.75ZM4.75 22.627V22.6445H7.75V22.627H4.75ZM4.75 22.6094V22.627H7.75V22.6094H4.75ZM4.75 22.5918V22.6094H7.75V22.5918H4.75ZM4.75 22.5742V22.5918H7.75V22.5742H4.75ZM4.75 22.5566V22.5742H7.75V22.5566H4.75ZM4.75 22.5391V22.5566H7.75V22.5391H4.75ZM4.75 22.5215V22.5391H7.75V22.5215H4.75ZM4.75 22.5039V22.5215H7.75V22.5039H4.75ZM4.75 22.4863V22.5039H7.75V22.4863H4.75ZM4.75 22.4688V22.4863H7.75V22.4688H4.75ZM4.75 22.4512V22.4688H7.75V22.4512H4.75ZM4.75 22.4336V22.4512H7.75V22.4336H4.75ZM4.75 22.416V22.4336H7.75V22.416H4.75ZM4.75 22.3984V22.416H7.75V22.3984H4.75ZM4.75 22.3809V22.3984H7.75V22.3809H4.75ZM4.75 22.3633V22.3809H7.75V22.3633H4.75ZM4.75 22.3457V22.3633H7.75V22.3457H4.75ZM4.75 22.3281V22.3457H7.75V22.3281H4.75ZM4.75 22.3105V22.3281H7.75V22.3105H4.75ZM4.75 22.293V22.3105H7.75V22.293H4.75ZM4.75 22.2754V22.293H7.75V22.2754H4.75ZM4.75 22.2578V22.2754H7.75V22.2578H4.75ZM4.75 22.2402V22.2578H7.75V22.2402H4.75ZM4.75 22.2227V22.2402H7.75V22.2227H4.75ZM4.75 22.2051V22.2227H7.75V22.2051H4.75ZM4.75 22.1875V22.2051H7.75V22.1875H4.75ZM4.75 22.1699V22.1875H7.75V22.1699H4.75ZM4.75 22.1523V22.1699H7.75V22.1523H4.75ZM4.75 22.1348V22.1523H7.75V22.1348H4.75ZM4.75 22.1172V22.1348H7.75V22.1172H4.75ZM4.75 22.0996V22.1172H7.75V22.0996H4.75ZM4.75 22.082V22.0996H7.75V22.082H4.75ZM4.75 22.0645V22.082H7.75V22.0645H4.75ZM4.75 22.0469V22.0645H7.75V22.0469H4.75ZM4.75 22.0293V22.0469H7.75V22.0293H4.75ZM4.75 22.0117V22.0293H7.75V22.0117H4.75ZM4.75 21.9941V22.0117H7.75V21.9941H4.75ZM4.75 21.9766V21.9941H7.75V21.9766H4.75ZM4.75 21.959V21.9766H7.75V21.959H4.75ZM4.75 21.9414V21.959H7.75V21.9414H4.75ZM4.75 21.9238V21.9414H7.75V21.9238H4.75ZM4.75 21.9062V21.9238H7.75V21.9062H4.75ZM4.75 21.8887V21.9062H7.75V21.8887H4.75ZM4.75 21.8711V21.8887H7.75V21.8711H4.75ZM4.75 21.8535V21.8711H7.75V21.8535H4.75ZM4.75 21.8359V21.8535H7.75V21.8359H4.75ZM4.75 21.8184V21.8359H7.75V21.8184H4.75ZM4.75 21.8008V21.8184H7.75V21.8008H4.75ZM4.75 21.7832V21.8008H7.75V21.7832H4.75ZM4.75 21.7656V21.7832H7.75V21.7656H4.75ZM4.75 21.748V21.7656H7.75V21.748H4.75ZM4.75 21.7305V21.748H7.75V21.7305H4.75ZM4.75 21.7129V21.7305H7.75V21.7129H4.75ZM4.75 21.6953V21.7129H7.75V21.6953H4.75ZM4.75 21.6777V21.6953H7.75V21.6777H4.75ZM4.75 21.6602V21.6777H7.75V21.6602H4.75ZM4.75 21.6426V21.6602H7.75V21.6426H4.75ZM4.75 21.625V21.6426H7.75V21.625H4.75ZM4.75 21.6074V21.625H7.75V21.6074H4.75ZM4.75 21.5898V21.6074H7.75V21.5898H4.75ZM4.75 21.5723V21.5898H7.75V21.5723H4.75ZM4.75 21.5547V21.5723H7.75V21.5547H4.75ZM4.75 21.5371V21.5547H7.75V21.5371H4.75ZM4.75 21.5195V21.5371H7.75V21.5195H4.75ZM4.75 21.502V21.5195H7.75V21.502H4.75ZM4.75 21.4844V21.502H7.75V21.4844H4.75ZM4.75 21.4668V21.4844H7.75V21.4668H4.75ZM4.75 21.4492V21.4668H7.75V21.4492H4.75ZM4.75 21.4316V21.4492H7.75V21.4316H4.75ZM4.75 21.4141V21.4316H7.75V21.4141H4.75ZM4.75 21.3965V21.4141H7.75V21.3965H4.75ZM4.75 21.3789V21.3965H7.75V21.3789H4.75ZM4.75 21.3613V21.3789H7.75V21.3613H4.75ZM4.75 21.3438V21.3613H7.75V21.3438H4.75ZM4.75 21.3262V21.3438H7.75V21.3262H4.75ZM4.75 21.3086V21.3262H7.75V21.3086H4.75ZM4.75 21.291V21.3086H7.75V21.291H4.75ZM4.75 21.2734V21.291H7.75V21.2734H4.75ZM4.75 21.2559V21.2734H7.75V21.2559H4.75ZM4.75 21.2383V21.2559H7.75V21.2383H4.75ZM4.75 21.2207V21.2383H7.75V21.2207H4.75ZM4.75 21.2031V21.2207H7.75V21.2031H4.75ZM4.75 21.1855V21.2031H7.75V21.1855H4.75ZM4.75 21.168V21.1855H7.75V21.168H4.75ZM4.75 21.1504V21.168H7.75V21.1504H4.75ZM4.75 21.1328V21.1504H7.75V21.1328H4.75ZM4.75 21.1152V21.1328H7.75V21.1152H4.75ZM4.75 21.0977V21.1152H7.75V21.0977H4.75ZM4.75 21.0801V21.0977H7.75V21.0801H4.75ZM4.75 21.0625V21.0801H7.75V21.0625H4.75ZM4.75 21.0449V21.0625H7.75V21.0449H4.75ZM4.75 21.0273V21.0449H7.75V21.0273H4.75ZM4.75 21.0098V21.0273H7.75V21.0098H4.75ZM4.75 20.9922V21.0098H7.75V20.9922H4.75ZM4.75 20.9746V20.9922H7.75V20.9746H4.75ZM4.75 20.957V20.9746H7.75V20.957H4.75ZM4.75 20.9395V20.957H7.75V20.9395H4.75ZM4.75 20.9219V20.9395H7.75V20.9219H4.75ZM4.75 20.9043V20.9219H7.75V20.9043H4.75ZM4.75 20.8867V20.9043H7.75V20.8867H4.75ZM4.75 20.8691V20.8867H7.75V20.8691H4.75ZM4.75 20.8516V20.8691H7.75V20.8516H4.75ZM4.75 20.834V20.8516H7.75V20.834H4.75ZM4.75 20.8164V20.834H7.75V20.8164H4.75ZM4.75 20.7988V20.8164H7.75V20.7988H4.75ZM4.75 20.7812V20.7988H7.75V20.7812H4.75ZM4.75 20.7637V20.7812H7.75V20.7637H4.75ZM4.75 20.7461V20.7637H7.75V20.7461H4.75ZM4.75 20.7285V20.7461H7.75V20.7285H4.75ZM4.75 20.7109V20.7285H7.75V20.7109H4.75ZM4.75 20.6934V20.7109H7.75V20.6934H4.75ZM4.75 20.6758V20.6934H7.75V20.6758H4.75ZM4.75 20.6582V20.6758H7.75V20.6582H4.75ZM4.75 20.6406V20.6582H7.75V20.6406H4.75ZM4.75 20.623V20.6406H7.75V20.623H4.75ZM4.75 20.6055V20.623H7.75V20.6055H4.75ZM4.75 20.5879V20.6055H7.75V20.5879H4.75ZM4.75 20.5703V20.5879H7.75V20.5703H4.75ZM4.75 20.5527V20.5703H7.75V20.5527H4.75ZM4.75 20.5352V20.5527H7.75V20.5352H4.75ZM4.75 20.5176V20.5352H7.75V20.5176H4.75ZM4.75 20.5V20.5176H7.75V20.5H4.75ZM4.75 20.4824V20.5H7.75V20.4824H4.75ZM4.75 20.4648V20.4824H7.75V20.4648H4.75ZM4.75 20.4473V20.4648H7.75V20.4473H4.75ZM4.75 20.4297V20.4473H7.75V20.4297H4.75ZM4.75 20.4121V20.4297H7.75V20.4121H4.75ZM4.75 20.3945V20.4121H7.75V20.3945H4.75ZM4.75 20.377V20.3945H7.75V20.377H4.75ZM4.75 20.3594V20.377H7.75V20.3594H4.75ZM4.75 20.3418V20.3594H7.75V20.3418H4.75ZM4.75 20.3242V20.3418H7.75V20.3242H4.75ZM4.75 20.3066V20.3242H7.75V20.3066H4.75ZM4.75 20.2891V20.3066H7.75V20.2891H4.75ZM4.75 20.2715V20.2891H7.75V20.2715H4.75ZM4.75 20.2539V20.2715H7.75V20.2539H4.75ZM4.75 20.2363V20.2539H7.75V20.2363H4.75ZM4.75 20.2188V20.2363H7.75V20.2188H4.75ZM4.75 20.2012V20.2188H7.75V20.2012H4.75ZM4.75 20.1836V20.2012H7.75V20.1836H4.75ZM4.75 20.166V20.1836H7.75V20.166H4.75ZM4.75 20.1484V20.166H7.75V20.1484H4.75ZM4.75 20.1309V20.1484H7.75V20.1309H4.75ZM4.75 20.1133V20.1309H7.75V20.1133H4.75ZM4.75 20.0957V20.1133H7.75V20.0957H4.75ZM4.75 20.0781V20.0957H7.75V20.0781H4.75ZM4.75 20.0605V20.0781H7.75V20.0605H4.75ZM4.75 20.043V20.0605H7.75V20.043H4.75ZM4.75 20.0254V20.043H7.75V20.0254H4.75ZM4.75 20.0078V20.0254H7.75V20.0078H4.75ZM4.75 19.9902V20.0078H7.75V19.9902H4.75ZM4.75 19.9727V19.9902H7.75V19.9727H4.75ZM4.75 19.9551V19.9727H7.75V19.9551H4.75ZM4.75 19.9375V19.9551H7.75V19.9375H4.75ZM4.75 19.9199V19.9375H7.75V19.9199H4.75ZM4.75 19.9023V19.9199H7.75V19.9023H4.75ZM4.75 19.8848V19.9023H7.75V19.8848H4.75ZM4.75 19.8672V19.8848H7.75V19.8672H4.75ZM4.75 19.8496V19.8672H7.75V19.8496H4.75ZM4.75 19.832V19.8496H7.75V19.832H4.75ZM4.75 19.8145V19.832H7.75V19.8145H4.75ZM4.75 19.7969V19.8145H7.75V19.7969H4.75ZM4.75 19.7793V19.7969H7.75V19.7793H4.75ZM4.75 19.7617V19.7793H7.75V19.7617H4.75ZM4.75 19.7441V19.7617H7.75V19.7441H4.75ZM4.75 19.7266V19.7441H7.75V19.7266H4.75ZM4.75 19.709V19.7266H7.75V19.709H4.75ZM4.75 19.6914V19.709H7.75V19.6914H4.75ZM4.75 19.6738V19.6914H7.75V19.6738H4.75ZM4.75 19.6562V19.6738H7.75V19.6562H4.75ZM4.75 19.6387V19.6562H7.75V19.6387H4.75ZM4.75 19.6211V19.6387H7.75V19.6211H4.75ZM4.75 19.6035V19.6211H7.75V19.6035H4.75ZM4.75 19.5859V19.6035H7.75V19.5859H4.75ZM4.75 19.5684V19.5859H7.75V19.5684H4.75ZM4.75 19.5508V19.5684H7.75V19.5508H4.75ZM4.75 19.5332V19.5508H7.75V19.5332H4.75ZM4.75 19.5156V19.5332H7.75V19.5156H4.75ZM4.75 19.498V19.5156H7.75V19.498H4.75ZM4.75 19.4805V19.498H7.75V19.4805H4.75ZM4.75 19.4629V19.4805H7.75V19.4629H4.75ZM4.75 19.4453V19.4629H7.75V19.4453H4.75ZM4.75 19.4277V19.4453H7.75V19.4277H4.75ZM4.75 19.4102V19.4277H7.75V19.4102H4.75ZM4.75 19.3926V19.4102H7.75V19.3926H4.75ZM4.75 19.375V19.3926H7.75V19.375H4.75ZM4.75 19.3574V19.375H7.75V19.3574H4.75ZM4.75 19.3398V19.3574H7.75V19.3398H4.75ZM4.75 19.3223V19.3398H7.75V19.3223H4.75ZM4.75 19.3047V19.3223H7.75V19.3047H4.75ZM4.75 19.2871V19.3047H7.75V19.2871H4.75ZM4.75 19.2695V19.2871H7.75V19.2695H4.75ZM4.75 19.252V19.2695H7.75V19.252H4.75ZM4.75 19.2344V19.252H7.75V19.2344H4.75ZM4.75 19.2168V19.2344H7.75V19.2168H4.75ZM4.75 19.1992V19.2168H7.75V19.1992H4.75ZM4.75 19.1816V19.1992H7.75V19.1816H4.75ZM4.75 19.1641V19.1816H7.75V19.1641H4.75ZM4.75 19.1465V19.1641H7.75V19.1465H4.75ZM4.75 19.1289V19.1465H7.75V19.1289H4.75ZM4.75 19.1113V19.1289H7.75V19.1113H4.75ZM4.75 19.0938V19.1113H7.75V19.0938H4.75ZM4.75 19.0762V19.0938H7.75V19.0762H4.75ZM4.75 19.0586V19.0762H7.75V19.0586H4.75ZM4.75 19.041V19.0586H7.75V19.041H4.75ZM4.75 19.0234V19.041H7.75V19.0234H4.75ZM4.75 19.0059V19.0234H7.75V19.0059H4.75ZM4.75 18.9883V19.0059H7.75V18.9883H4.75ZM4.75 18.9707V18.9883H7.75V18.9707H4.75ZM4.75 18.9531V18.9707H7.75V18.9531H4.75ZM4.75 18.9355V18.9531H7.75V18.9355H4.75ZM4.75 18.918V18.9355H7.75V18.918H4.75ZM4.75 18.9004V18.918H7.75V18.9004H4.75ZM4.75 18.8828V18.9004H7.75V18.8828H4.75ZM4.75 18.8652V18.8828H7.75V18.8652H4.75ZM4.75 18.8477V18.8652H7.75V18.8477H4.75ZM4.75 18.8301V18.8477H7.75V18.8301H4.75ZM4.75 18.8125V18.8301H7.75V18.8125H4.75ZM4.75 18.7949V18.8125H7.75V18.7949H4.75ZM4.75 18.7773V18.7949H7.75V18.7773H4.75ZM4.75 18.7598V18.7773H7.75V18.7598H4.75ZM4.75 18.7422V18.7598H7.75V18.7422H4.75ZM4.75 18.7246V18.7422H7.75V18.7246H4.75ZM4.75 18.707V18.7246H7.75V18.707H4.75ZM4.75 18.6895V18.707H7.75V18.6895H4.75ZM4.75 18.6719V18.6895H7.75V18.6719H4.75ZM4.75 18.6543V18.6719H7.75V18.6543H4.75ZM4.75 18.6367V18.6543H7.75V18.6367H4.75ZM4.75 18.6191V18.6367H7.75V18.6191H4.75ZM4.75 18.6016V18.6191H7.75V18.6016H4.75ZM4.75 18.584V18.6016H7.75V18.584H4.75ZM4.75 18.5664V18.584H7.75V18.5664H4.75ZM4.75 18.5488V18.5664H7.75V18.5488H4.75ZM4.75 18.5312V18.5488H7.75V18.5312H4.75ZM4.75 18.5137V18.5312H7.75V18.5137H4.75ZM4.75 18.4961V18.5137H7.75V18.4961H4.75ZM4.75 18.4785V18.4961H7.75V18.4785H4.75ZM4.75 18.4609V18.4785H7.75V18.4609H4.75ZM4.75 18.4434V18.4609H7.75V18.4434H4.75ZM4.75 18.4258V18.4434H7.75V18.4258H4.75ZM4.75 18.4082V18.4258H7.75V18.4082H4.75ZM4.75 18.3906V18.4082H7.75V18.3906H4.75ZM4.75 18.373V18.3906H7.75V18.373H4.75ZM4.75 18.3555V18.373H7.75V18.3555H4.75ZM4.75 18.3379V18.3555H7.75V18.3379H4.75ZM4.75 18.3203V18.3379H7.75V18.3203H4.75ZM4.75 18.3027V18.3203H7.75V18.3027H4.75ZM4.75 18.2852V18.3027H7.75V18.2852H4.75ZM4.75 18.2676V18.2852H7.75V18.2676H4.75ZM4.75 18.25V18.2676H7.75V18.25H4.75ZM4.75 18.2324V18.25H7.75V18.2324H4.75ZM4.75 18.2148V18.2324H7.75V18.2148H4.75ZM4.75 18.1973V18.2148H7.75V18.1973H4.75ZM4.75 18.1797V18.1973H7.75V18.1797H4.75ZM4.75 18.1621V18.1797H7.75V18.1621H4.75ZM4.75 18.1445V18.1621H7.75V18.1445H4.75ZM4.75 18.127V18.1445H7.75V18.127H4.75ZM4.75 18.1094V18.127H7.75V18.1094H4.75ZM4.75 18.0918V18.1094H7.75V18.0918H4.75ZM4.75 18.0742V18.0918H7.75V18.0742H4.75ZM4.75 18.0566V18.0742H7.75V18.0566H4.75ZM4.75 18.0391V18.0566H7.75V18.0391H4.75ZM4.75 18.0215V18.0391H7.75V18.0215H4.75ZM4.75 18.0039V18.0215H7.75V18.0039H4.75ZM4.75 17.9863V18.0039H7.75V17.9863H4.75ZM4.75 17.9688V17.9863H7.75V17.9688H4.75ZM4.75 17.9512V17.9688H7.75V17.9512H4.75ZM4.75 17.9336V17.9512H7.75V17.9336H4.75ZM4.75 17.916V17.9336H7.75V17.916H4.75ZM4.75 17.8984V17.916H7.75V17.8984H4.75ZM4.75 17.8809V17.8984H7.75V17.8809H4.75ZM4.75 17.8633V17.8809H7.75V17.8633H4.75ZM4.75 17.8457V17.8633H7.75V17.8457H4.75ZM4.75 17.8281V17.8457H7.75V17.8281H4.75ZM4.75 17.8105V17.8281H7.75V17.8105H4.75ZM4.75 17.793V17.8105H7.75V17.793H4.75ZM4.75 17.7754V17.793H7.75V17.7754H4.75ZM4.75 17.7578V17.7754H7.75V17.7578H4.75ZM4.75 17.7402V17.7578H7.75V17.7402H4.75ZM4.75 17.7227V17.7402H7.75V17.7227H4.75ZM4.75 17.7051V17.7227H7.75V17.7051H4.75ZM4.75 17.6875V17.7051H7.75V17.6875H4.75ZM4.75 17.6699V17.6875H7.75V17.6699H4.75ZM4.75 17.6523V17.6699H7.75V17.6523H4.75ZM4.75 17.6348V17.6523H7.75V17.6348H4.75ZM4.75 17.6172V17.6348H7.75V17.6172H4.75ZM4.75 17.5996V17.6172H7.75V17.5996H4.75ZM4.75 17.582V17.5996H7.75V17.582H4.75ZM4.75 17.5645V17.582H7.75V17.5645H4.75ZM4.75 17.5469V17.5645H7.75V17.5469H4.75ZM4.75 17.5293V17.5469H7.75V17.5293H4.75ZM4.75 17.5117V17.5293H7.75V17.5117H4.75ZM4.75 17.4941V17.5117H7.75V17.4941H4.75ZM4.75 17.4766V17.4941H7.75V17.4766H4.75ZM4.75 17.459V17.4766H7.75V17.459H4.75ZM4.75 17.4414V17.459H7.75V17.4414H4.75ZM4.75 17.4238V17.4414H7.75V17.4238H4.75ZM4.75 17.4062V17.4238H7.75V17.4062H4.75ZM4.75 17.3887V17.4062H7.75V17.3887H4.75ZM4.75 17.3711V17.3887H7.75V17.3711H4.75ZM4.75 17.3535V17.3711H7.75V17.3535H4.75ZM4.75 17.3359V17.3535H7.75V17.3359H4.75ZM4.75 17.3184V17.3359H7.75V17.3184H4.75ZM4.75 17.3008V17.3184H7.75V17.3008H4.75ZM4.75 17.2832V17.3008H7.75V17.2832H4.75ZM4.75 17.2656V17.2832H7.75V17.2656H4.75ZM4.75 17.248V17.2656H7.75V17.248H4.75ZM4.75 17.2305V17.248H7.75V17.2305H4.75ZM4.75 17.2129V17.2305H7.75V17.2129H4.75ZM4.75 17.1953V17.2129H7.75V17.1953H4.75ZM4.75 17.1777V17.1953H7.75V17.1777H4.75ZM4.75 17.1602V17.1777H7.75V17.1602H4.75ZM4.75 17.1426V17.1602H7.75V17.1426H4.75ZM4.75 17.125V17.1426H7.75V17.125H4.75ZM4.75 17.1074V17.125H7.75V17.1074H4.75ZM4.75 17.0898V17.1074H7.75V17.0898H4.75ZM4.75 17.0723V17.0898H7.75V17.0723H4.75ZM4.75 17.0547V17.0723H7.75V17.0547H4.75ZM4.75 17.0371V17.0547H7.75V17.0371H4.75ZM4.75 17.0195V17.0371H7.75V17.0195H4.75ZM4.75 17.002V17.0195H7.75V17.002H4.75ZM4.75 16.9844V17.002H7.75V16.9844H4.75ZM4.75 16.9668V16.9844H7.75V16.9668H4.75ZM4.75 16.9492V16.9668H7.75V16.9492H4.75ZM4.75 16.9316V16.9492H7.75V16.9316H4.75ZM4.75 16.9141V16.9316H7.75V16.9141H4.75ZM4.75 16.8965V16.9141H7.75V16.8965H4.75ZM4.75 16.8789V16.8965H7.75V16.8789H4.75ZM4.75 16.8613V16.8789H7.75V16.8613H4.75ZM4.75 16.8438V16.8613H7.75V16.8438H4.75ZM4.75 16.8262V16.8438H7.75V16.8262H4.75ZM4.75 16.8086V16.8262H7.75V16.8086H4.75ZM4.75 16.791V16.8086H7.75V16.791H4.75ZM4.75 16.7734V16.791H7.75V16.7734H4.75ZM4.75 16.7559V16.7734H7.75V16.7559H4.75ZM4.75 16.7383V16.7559H7.75V16.7383H4.75ZM4.75 16.7207V16.7383H7.75V16.7207H4.75ZM4.75 16.7031V16.7207H7.75V16.7031H4.75ZM4.75 16.6855V16.7031H7.75V16.6855H4.75ZM4.75 16.668V16.6855H7.75V16.668H4.75ZM4.75 16.6504V16.668H7.75V16.6504H4.75ZM4.75 16.6328V16.6504H7.75V16.6328H4.75ZM4.75 16.6152V16.6328H7.75V16.6152H4.75ZM4.75 16.5977V16.6152H7.75V16.5977H4.75ZM4.75 16.5801V16.5977H7.75V16.5801H4.75ZM4.75 16.5625V16.5801H7.75V16.5625H4.75ZM4.75 16.5449V16.5625H7.75V16.5449H4.75ZM4.75 16.5273V16.5449H7.75V16.5273H4.75ZM4.75 16.5098V16.5273H7.75V16.5098H4.75ZM4.75 16.4922V16.5098H7.75V16.4922H4.75ZM4.75 16.4746V16.4922H7.75V16.4746H4.75ZM4.75 16.457V16.4746H7.75V16.457H4.75ZM4.75 16.4395V16.457H7.75V16.4395H4.75ZM4.75 16.4219V16.4395H7.75V16.4219H4.75ZM4.75 16.4043V16.4219H7.75V16.4043H4.75ZM4.75 16.3867V16.4043H7.75V16.3867H4.75ZM4.75 16.3691V16.3867H7.75V16.3691H4.75ZM4.75 16.3516V16.3691H7.75V16.3516H4.75ZM4.75 16.334V16.3516H7.75V16.334H4.75ZM4.75 16.3164V16.334H7.75V16.3164H4.75ZM4.75 16.2988V16.3164H7.75V16.2988H4.75ZM4.75 16.2812V16.2988H7.75V16.2812H4.75ZM4.75 16.2637V16.2812H7.75V16.2637H4.75ZM4.75 16.2461V16.2637H7.75V16.2461H4.75ZM4.75 16.2285V16.2461H7.75V16.2285H4.75ZM4.75 16.2109V16.2285H7.75V16.2109H4.75ZM4.75 16.1934V16.2109H7.75V16.1934H4.75ZM4.75 16.1758V16.1934H7.75V16.1758H4.75ZM4.75 16.1582V16.1758H7.75V16.1582H4.75ZM4.75 16.1406V16.1582H7.75V16.1406H4.75ZM4.75 16.123V16.1406H7.75V16.123H4.75ZM4.75 16.1055V16.123H7.75V16.1055H4.75ZM4.75 16.0879V16.1055H7.75V16.0879H4.75ZM4.75 16.0703V16.0879H7.75V16.0703H4.75ZM4.75 16.0527V16.0703H7.75V16.0527H4.75ZM4.75 16.0352V16.0527H7.75V16.0352H4.75ZM4.75 16.0176V16.0352H7.75V16.0176H4.75ZM4.75 16V16.0176H7.75V16H4.75ZM12 11.75C10.7574 11.75 9.75 12.7574 9.75 14H12.75C12.75 14.4142 12.4142 14.75 12 14.75V11.75ZM20 11.75H12V14.75H20V11.75ZM22.25 14C22.25 12.7574 21.2426 11.75 20 11.75V14.75C19.5858 14.75 19.25 14.4142 19.25 14H22.25ZM20 16.25C21.2426 16.25 22.25 15.2426 22.25 14H19.25C19.25 13.5858 19.5858 13.25 20 13.25V16.25ZM12 16.25H20V13.25H12V16.25ZM9.75 14C9.75 15.2426 10.7574 16.25 12 16.25V13.25C12.4142 13.25 12.75 13.5858 12.75 14H9.75ZM12.75 18C12.75 18.4142 12.4142 18.75 12 18.75V15.75C10.7574 15.75 9.75 16.7574 9.75 18H12.75ZM12 17.25C12.4142 17.25 12.75 17.5858 12.75 18H9.75C9.75 19.2426 10.7574 20.25 12 20.25V17.25ZM16 17.25H12V20.25H16V17.25ZM15.25 18C15.25 17.5858 15.5858 17.25 16 17.25V20.25C17.2426 20.25 18.25 19.2426 18.25 18H15.25ZM16 18.75C15.5858 18.75 15.25 18.4142 15.25 18H18.25C18.25 16.7574 17.2426 15.75 16 15.75V18.75ZM12 18.75H16V15.75H12V18.75Z" fill="white"/>
<path fill-rule="evenodd" clip-rule="evenodd" d="M16 7.75C11.4437 7.75 7.75 11.4437 7.75 16V16.0176V16.0352V16.0527V16.0703V16.0879V16.1055V16.123V16.1406V16.1582V16.1758V16.1934V16.2109V16.2285V16.2461V16.2637V16.2812V16.2988V16.3164V16.334V16.3516V16.3691V16.3867V16.4043V16.4219V16.4395V16.457V16.4746V16.4922V16.5098V16.5273V16.5449V16.5625V16.5801V16.5977V16.6152V16.6328V16.6504V16.668V16.6855V16.7031V16.7207V16.7383V16.7559V16.7734V16.791V16.8086V16.8262V16.8438V16.8613V16.8789V16.8965V16.9141V16.9316V16.9492V16.9668V16.9844V17.002V17.0195V17.0371V17.0547V17.0723V17.0898V17.1074V17.125V17.1426V17.1602V17.1777V17.1953V17.2129V17.2305V17.248V17.2656V17.2832V17.3008V17.3184V17.3359V17.3535V17.3711V17.3887V17.4062V17.4238V17.4414V17.459V17.4766V17.4941V17.5117V17.5293V17.5469V17.5645V17.582V17.5996V17.6172V17.6348V17.6523V17.6699V17.6875V17.7051V17.7227V17.7402V17.7578V17.7754V17.793V17.8105V17.8281V17.8457V17.8633V17.8809V17.8984V17.916V17.9336V17.9512V17.9688V17.9863V18.0039V18.0215V18.0391V18.0566V18.0742V18.0918V18.1094V18.127V18.1445V18.1621V18.1797V18.1973V18.2148V18.2324V18.25V18.2676V18.2852V18.3027V18.3203V18.3379V18.3555V18.373V18.3906V18.4082V18.4258V18.4434V18.4609V18.4785V18.4961V18.5137V18.5312V18.5488V18.5664V18.584V18.6016V18.6191V18.6367V18.6543V18.6719V18.6895V18.707V18.7246V18.7422V18.7598V18.7773V18.7949V18.8125V18.8301V18.8477V18.8652V18.8828V18.9004V18.918V18.9355V18.9531V18.9707V18.9883V19.0059V19.0234V19.041V19.0586V19.0762V19.0938V19.1113V19.1289V19.1465V19.1641V19.1816V19.1992V19.2168V19.2344V19.252V19.2695V19.2871V19.3047V19.3223V19.3398V19.3574V19.375V19.3926V19.4102V19.4277V19.4453V19.4629V19.4805V19.498V19.5156V19.5332V19.5508V19.5684V19.5859V19.6035V19.6211V19.6387V19.6562V19.6738V19.6914V19.709V19.7266V19.7441V19.7617V19.7793V19.7969V19.8145V19.832V19.8496V19.8672V19.8848V19.9023V19.9199V19.9375V19.9551V19.9727V19.9902V20.0078V20.0254V20.043V20.0605V20.0781V20.0957V20.1133V20.1309V20.1484V20.166V20.1836V20.2012V20.2188V20.2363V20.2539V20.2715V20.2891V20.3066V20.3242V20.3418V20.3594V20.377V20.3945V20.4121V20.4297V20.4473V20.4648V20.4824V20.5V20.5176V20.5352V20.5527V20.5703V20.5879V20.6055V20.623V20.6406V20.6582V20.6758V20.6934V20.7109V20.7285V20.7461V20.7637V20.7812V20.7988V20.8164V20.834V20.8516V20.8691V20.8867V20.9043V20.9219V20.9395V20.957V20.9746V20.9922V21.0098V21.0273V21.0449V21.0625V21.0801V21.0977V21.1152V21.1328V21.1504V21.168V21.1855V21.2031V21.2207V21.2383V21.2559V21.2734V21.291V21.3086V21.3262V21.3438V21.3613V21.3789V21.3965V21.4141V21.4316V21.4492V21.4668V21.4844V21.502V21.5195V21.5371V21.5547V21.5723V21.5898V21.6074V21.625V21.6426V21.6602V21.6777V21.6953V21.7129V21.7305V21.748V21.7656V21.7832V21.8008V21.8184V21.8359V21.8535V21.8711V21.8887V21.9062V21.9238V21.9414V21.959V21.9766V21.9941V22.0117V22.0293V22.0469V22.0645V22.082V22.0996V22.1172V22.1348V22.1523V22.1699V22.1875V22.2051V22.2227V22.2402V22.2578V22.2754V22.293V22.3105V22.3281V22.3457V22.3633V22.3809V22.3984V22.416V22.4336V22.4512V22.4688V22.4863V22.5039V22.5215V22.5391V22.5566V22.5742V22.5918V22.6094V22.627V22.6445V22.6621V22.6797V22.6973V22.7148V22.7324V22.75V22.7676V22.7852V22.8027V22.8203V22.8379V22.8555V22.873V22.8906V22.9082V22.9258V22.9434V22.9609V22.9785V22.9961V23.0137V23.0312V23.0488V23.0664V23.084V23.1016V23.1191V23.1367V23.1543V23.1719V23.1895V23.207V23.2246V23.2422V23.2598V23.2773V23.2949V23.3125V23.3301V23.3477V23.3652V23.3828V23.4004V23.418V23.4355V23.4531V23.4707V23.4883V23.5059V23.5234V23.541V23.5586V23.5762V23.5938V23.5991C7.96361 23.4576 8.14698 23.3382 8.30477 23.2418C8.53653 23.1002 8.7654 22.9746 8.99729 22.9028L9.00478 22.9005C9.16517 22.8508 9.33012 22.7997 9.51096 22.7799C9.69179 22.7602 9.86388 22.7745 10.0312 22.7884L10.039 22.7891C10.2984 22.8106 10.6289 22.9189 10.977 23.0436C11.352 23.178 11.8536 23.3729 12.5027 23.625L12.503 23.6251L12.5034 23.6253L12.5154 23.6299C13.3854 23.9679 14.5456 24.25 16 24.25C20.5563 24.25 24.25 20.5563 24.25 16C24.25 11.4437 20.5563 7.75 16 7.75ZM6.25 16C6.25 10.6152 10.6152 6.25 16 6.25C21.3848 6.25 25.75 10.6152 25.75 16C25.75 21.3848 21.3848 25.75 16 25.75C14.3466 25.75 13.0027 25.4284 11.9722 25.0281C11.3085 24.7703 10.8251 24.5826 10.4709 24.4557C10.2943 24.3924 10.1607 24.3481 10.06 24.3192C9.96077 24.2906 9.91954 24.2846 9.91508 24.284C9.9147 24.2839 9.91459 24.2839 9.91472 24.2839C9.71723 24.2675 9.68906 24.2694 9.67374 24.2711C9.65841 24.2727 9.6305 24.277 9.4412 24.3356C9.3965 24.3495 9.2995 24.3918 9.08697 24.5217C8.88047 24.6479 8.61364 24.8256 8.23325 25.0792L7.41603 25.624C7.18588 25.7775 6.88997 25.7918 6.64611 25.6613C6.40224 25.5307 6.25 25.2766 6.25 25V24.9824V24.9648V24.9473V24.9297V24.9121V24.8945V24.877V24.8594V24.8418V24.8242V24.8066V24.7891V24.7715V24.7539V24.7363V24.7188V24.7012V24.6836V24.666V24.6484V24.6309V24.6133V24.5957V24.5781V24.5605V24.543V24.5254V24.5078V24.4902V24.4727V24.4551V24.4375V24.4199V24.4023V24.3848V24.3672V24.3496V24.332V24.3145V24.2969V24.2793V24.2617V24.2441V24.2266V24.209V24.1914V24.1738V24.1562V24.1387V24.1211V24.1035V24.0859V24.0684V24.0508V24.0332V24.0156V23.998V23.9805V23.9629V23.9453V23.9277V23.9102V23.8926V23.875V23.8574V23.8398V23.8223V23.8047V23.7871V23.7695V23.752V23.7344V23.7168V23.6992V23.6816V23.6641V23.6465V23.6289V23.6113V23.5938V23.5762V23.5586V23.541V23.5234V23.5059V23.4883V23.4707V23.4531V23.4355V23.418V23.4004V23.3828V23.3652V23.3477V23.3301V23.3125V23.2949V23.2773V23.2598V23.2422V23.2246V23.207V23.1895V23.1719V23.1543V23.1367V23.1191V23.1016V23.084V23.0664V23.0488V23.0312V23.0137V22.9961V22.9785V22.9609V22.9434V22.9258V22.9082V22.8906V22.873V22.8555V22.8379V22.8203V22.8027V22.7852V22.7676V22.75V22.7324V22.7148V22.6973V22.6797V22.6621V22.6445V22.627V22.6094V22.5918V22.5742V22.5566V22.5391V22.5215V22.5039V22.4863V22.4688V22.4512V22.4336V22.416V22.3984V22.3809V22.3633V22.3457V22.3281V22.3105V22.293V22.2754V22.2578V22.2402V22.2227V22.2051V22.1875V22.1699V22.1523V22.1348V22.1172V22.0996V22.082V22.0645V22.0469V22.0293V22.0117V21.9941V21.9766V21.959V21.9414V21.9238V21.9062V21.8887V21.8711V21.8535V21.8359V21.8184V21.8008V21.7832V21.7656V21.748V21.7305V21.7129V21.6953V21.6777V21.6602V21.6426V21.625V21.6074V21.5898V21.5723V21.5547V21.5371V21.5195V21.502V21.4844V21.4668V21.4492V21.4316V21.4141V21.3965V21.3789V21.3613V21.3438V21.3262V21.3086V21.291V21.2734V21.2559V21.2383V21.2207V21.2031V21.1855V21.168V21.1504V21.1328V21.1152V21.0977V21.0801V21.0625V21.0449V21.0273V21.0098V20.9922V20.9746V20.957V20.9395V20.9219V20.9043V20.8867V20.8691V20.8516V20.834V20.8164V20.7988V20.7812V20.7637V20.7461V20.7285V20.7109V20.6934V20.6758V20.6582V20.6406V20.623V20.6055V20.5879V20.5703V20.5527V20.5352V20.5176V20.5V20.4824V20.4648V20.4473V20.4297V20.4121V20.3945V20.377V20.3594V20.3418V20.3242V20.3066V20.2891V20.2715V20.2539V20.2363V20.2188V20.2012V20.1836V20.166V20.1484V20.1309V20.1133V20.0957V20.0781V20.0605V20.043V20.0254V20.0078V19.9902V19.9727V19.9551V19.9375V19.9199V19.9023V19.8848V19.8672V19.8496V19.832V19.8145V19.7969V19.7793V19.7617V19.7441V19.7266V19.709V19.6914V19.6738V19.6562V19.6387V19.6211V19.6035V19.5859V19.5684V19.5508V19.5332V19.5156V19.498V19.4805V19.4629V19.4453V19.4277V19.4102V19.3926V19.375V19.3574V19.3398V19.3223V19.3047V19.2871V19.2695V19.252V19.2344V19.2168V19.1992V19.1816V19.1641V19.1465V19.1289V19.1113V19.0938V19.0762V19.0586V19.041V19.0234V19.0059V18.9883V18.9707V18.9531V18.9355V18.918V18.9004V18.8828V18.8652V18.8477V18.8301V18.8125V18.7949V18.7773V18.7598V18.7422V18.7246V18.707V18.6895V18.6719V18.6543V18.6367V18.6191V18.6016V18.584V18.5664V18.5488V18.5312V18.5137V18.4961V18.4785V18.4609V18.4434V18.4258V18.4082V18.3906V18.373V18.3555V18.3379V18.3203V18.3027V18.2852V18.2676V18.25V18.2324V18.2148V18.1973V18.1797V18.1621V18.1445V18.127V18.1094V18.0918V18.0742V18.0566V18.0391V18.0215V18.0039V17.9863V17.9688V17.9512V17.9336V17.916V17.8984V17.8809V17.8633V17.8457V17.8281V17.8105V17.793V17.7754V17.7578V17.7402V17.7227V17.7051V17.6875V17.6699V17.6523V17.6348V17.6172V17.5996V17.582V17.5645V17.5469V17.5293V17.5117V17.4941V17.4766V17.459V17.4414V17.4238V17.4062V17.3887V17.3711V17.3535V17.3359V17.3184V17.3008V17.2832V17.2656V17.248V17.2305V17.2129V17.1953V17.1777V17.1602V17.1426V17.125V17.1074V17.0898V17.0723V17.0547V17.0371V17.0195V17.002V16.9844V16.9668V16.9492V16.9316V16.9141V16.8965V16.8789V16.8613V16.8438V16.8262V16.8086V16.791V16.7734V16.7559V16.7383V16.7207V16.7031V16.6855V16.668V16.6504V16.6328V16.6152V16.5977V16.5801V16.5625V16.5449V16.5273V16.5098V16.4922V16.4746V16.457V16.4395V16.4219V16.4043V16.3867V16.3691V16.3516V16.334V16.3164V16.2988V16.2812V16.2637V16.2461V16.2285V16.2109V16.1934V16.1758V16.1582V16.1406V16.123V16.1055V16.0879V16.0703V16.0527V16.0352V16.0176V16ZM11.25 14C11.25 13.5858 11.5858 13.25 12 13.25H20C20.4142 13.25 20.75 13.5858 20.75 14C20.75 14.4142 20.4142 14.75 20 14.75H12C11.5858 14.75 11.25 14.4142 11.25 14ZM12 17.25C11.5858 17.25 11.25 17.5858 11.25 18C11.25 18.4142 11.5858 18.75 12 18.75H16C16.4142 18.75 16.75 18.4142 16.75 18C16.75 17.5858 16.4142 17.25 16 17.25H12Z" fill="#151E28"/>
</svg>
