<svg viewBox="0 0 32 32" fill="none" xmlns="http://www.w3.org/2000/svg">
<path fill-rule="evenodd" clip-rule="evenodd" d="M24.9231 10.2196C25 10.606 25 11.0707 25 12V18.6C25 20.8402 25 21.9603 24.564 22.816C24.1805 23.5686 23.5686 24.1805 22.816 24.564C21.9603 25 20.8402 25 18.6 25H13.4C11.1598 25 10.0397 25 9.18404 24.564C8.43139 24.1805 7.81947 23.5686 7.43597 22.816C7 21.9603 7 20.8402 7 18.6V12C7 11.0707 7 10.606 7.07686 10.2196C7.39248 8.63288 8.63288 7.39249 10.2196 7.07686C10.606 7 11.0707 7 12 7L20 7C20.9293 7 21.394 7 21.7804 7.07686C23.3671 7.39249 24.6075 8.63288 24.9231 10.2196Z" fill="white"/>
<path d="M14.0137 6.25001L13.9877 7.74978C13.9964 7.74993 14.005 7.75001 14.0137 7.75001L14.0137 6.25001ZM18.6 6.25001L18.6 7.75001L18.6 7.75001L18.6 6.25001ZM13.9877 6.25001V7.75001C13.9964 7.75001 14.0051 7.74993 14.0137 7.74978L13.9877 6.25001ZM13.4 6.25001L13.4 7.75001H13.4V6.25001ZM13.367 6.25001L13.367 7.75001L13.367 7.75001L13.367 6.25001ZM10.7117 6.30699L10.8339 7.80201L10.8339 7.80201L10.7117 6.30699ZM8.84355 6.76773L9.52453 8.10424L9.52453 8.10423L8.84355 6.76773ZM6.76772 8.84355L8.10423 9.52454L8.10423 9.52454L6.76772 8.84355ZM6.30699 10.7117L4.81197 10.5896L4.81197 10.5896L6.30699 10.7117ZM6.25703 11.8969L7.74305 12.1012C7.75127 12.0415 7.75587 11.9813 7.75684 11.9209L6.25703 11.8969ZM6.25449 12.0825L7.75439 12.0998C7.75508 12.0395 7.75214 11.9793 7.74559 11.9193L6.25449 12.0825ZM6.25 13.367L7.75 13.367L7.75 13.367L6.25 13.367ZM6.25 18.633L7.75 18.633V18.633H6.25ZM6.30699 21.2883L4.81197 21.4104L4.81197 21.4104L6.30699 21.2883ZM6.76772 23.1565L8.10423 22.4755L8.10423 22.4755L6.76772 23.1565ZM8.84355 25.2323L9.52453 23.8958L9.52453 23.8958L8.84355 25.2323ZM10.7117 25.693L10.5896 27.188L10.5896 27.188L10.7117 25.693ZM13.367 25.75L13.367 24.25L13.367 24.25L13.367 25.75ZM18.633 25.75L18.633 24.25H18.633V25.75ZM21.2883 25.693L21.4104 27.188L21.4104 27.188L21.2883 25.693ZM23.1565 25.2323L22.4755 23.8958L22.4755 23.8958L23.1565 25.2323ZM25.2323 23.1565L23.8958 22.4755L23.8958 22.4755L25.2323 23.1565ZM25.693 21.2883L27.188 21.4104L27.188 21.4104L25.693 21.2883ZM25.75 18.633L24.25 18.633L24.25 18.633L25.75 18.633ZM25.7455 12.0825L24.2544 11.9193C24.2479 11.9792 24.2449 12.0395 24.2456 12.0998L25.7455 12.0825ZM25.743 11.8969L24.2432 11.9209C24.2441 11.9813 24.2487 12.0415 24.257 12.1012L25.743 11.8969ZM25.693 10.7117L27.188 10.5896L27.188 10.5896L25.693 10.7117ZM25.2323 8.84355L23.8958 9.52454L23.8958 9.52454L25.2323 8.84355ZM23.1565 6.76773L22.4755 8.10424L22.4755 8.10424L23.1565 6.76773ZM21.2883 6.30699L21.1661 7.80201L21.1661 7.80201L21.2883 6.30699ZM18.633 6.25001L18.633 7.75001L18.633 7.75001L18.633 6.25001ZM7.75049 12.75V11.25C6.92341 11.25 6.25239 11.9195 6.2505 12.7466L7.75049 12.75ZM10.9863 12.75L11.0123 11.2502C11.0036 11.2501 10.9949 11.25 10.9863 11.25L10.9863 12.75ZM11.0123 12.75V11.25C11.0036 11.25 10.9949 11.2501 10.9862 11.2502L11.0123 12.75ZM17.9863 12.75L18.0007 11.2501C17.9959 11.25 17.9911 11.25 17.9863 11.25L17.9863 12.75ZM17.9978 12.7501L17.9833 14.25C17.992 14.2501 18.0007 14.2501 18.0093 14.2501L17.9978 12.7501ZM18.0123 12.75L18.0123 11.25L18.0008 11.2501L18.0123 12.75ZM24.2495 12.75L25.7495 12.7466C25.7476 11.9195 25.0766 11.25 24.2495 11.25V12.75ZM24.198 21.1661L25.693 21.2883L25.693 21.2883L24.198 21.1661ZM23.8958 22.4755L25.2323 23.1565L25.2323 23.1565L23.8958 22.4755ZM22.4755 23.8958L23.1565 25.2323L23.1565 25.2323L22.4755 23.8958ZM21.1661 24.198L21.2883 25.693L21.2883 25.693L21.1661 24.198ZM10.8339 24.198L10.7117 25.693L10.7117 25.693L10.8339 24.198ZM9.52453 23.8958L8.84354 25.2323L8.84355 25.2323L9.52453 23.8958ZM8.10423 22.4755L6.76772 23.1565L6.76772 23.1565L8.10423 22.4755ZM7.80201 21.1661L6.30699 21.2883L6.30699 21.2883L7.80201 21.1661ZM24.2239 11.25V12.75C24.6336 12.75 25.0256 12.5824 25.3086 12.2861C25.5916 11.9898 25.7411 11.5906 25.7223 11.1813L24.2239 11.25ZM24.198 10.8339L22.703 10.956L22.703 10.956L24.198 10.8339ZM19.3246 11.25L18.0384 10.4783C17.7604 10.9417 17.7531 11.5188 18.0193 11.9891C18.2856 12.4593 18.7842 12.75 19.3246 12.75V11.25ZM21.3431 7.88588L20.0569 7.11412L20.0569 7.11413L21.3431 7.88588ZM21.3774 7.82202L21.5399 6.33085C20.906 6.2618 20.2978 6.60095 20.0234 7.17644L21.3774 7.82202ZM22.4755 8.10424L23.1565 6.76773L23.1565 6.76773L22.4755 8.10424ZM23.8958 9.52454L25.2323 8.84355L25.2323 8.84355L23.8958 9.52454ZM19.6739 7.75237L20.9602 8.52411C21.2372 8.06235 21.2455 7.48751 20.9819 7.01796C20.7182 6.54842 20.2231 6.25623 19.6846 6.25241L19.6739 7.75237ZM17.5754 11.25V12.75C18.1023 12.75 18.5905 12.4736 18.8616 12.0218L17.5754 11.25ZM12.3246 11.25L11.0384 10.4783C10.7604 10.9417 10.7531 11.5188 11.0193 11.9891C11.2856 12.4593 11.7842 12.75 12.3246 12.75V11.25ZM14.4246 7.75001V6.25001C13.8977 6.25001 13.4095 6.52645 13.1384 6.97826L14.4246 7.75001ZM12.6749 7.75069L13.9612 8.52244C14.2396 8.05837 14.2465 7.4803 13.9792 7.00975C13.7118 6.5392 13.2118 6.24913 12.6706 6.2507L12.6749 7.75069ZM10.5754 11.25V12.75C11.1023 12.75 11.5905 12.4736 11.8616 12.0218L10.5754 11.25ZM10.8339 7.80201L10.956 9.29703L10.956 9.29703L10.8339 7.80201ZM9.52453 8.10424L8.84355 6.76773L8.84354 6.76773L9.52453 8.10424ZM8.10423 9.52454L6.76772 8.84355L6.76772 8.84355L8.10423 9.52454ZM7.80201 10.8339L6.30699 10.7117L6.30699 10.7117L7.80201 10.8339ZM7.7761 11.25L6.27767 11.1813C6.25891 11.5906 6.40841 11.9898 6.69143 12.2861C6.97445 12.5824 7.36636 12.75 7.7761 12.75V11.25ZM14.0137 7.75001H18.6V4.75001H14.0137V7.75001ZM14.0137 7.74978C14.0051 7.74993 13.9964 7.74993 13.9877 7.74978L14.0398 4.75023C14.0137 4.74978 13.9876 4.74978 13.9616 4.75023L14.0137 7.74978ZM13.4 7.75001H13.9877V4.75001H13.4V7.75001ZM13.367 7.75001L13.4 7.75001L13.4 4.75001L13.367 4.75001L13.367 7.75001ZM10.8339 7.80201C11.4566 7.75113 12.2516 7.75 13.367 7.75001L13.367 4.75001C12.2981 4.75 11.3621 4.74886 10.5896 4.81198L10.8339 7.80201ZM9.52453 8.10423C9.82913 7.94903 10.2135 7.8527 10.8339 7.80201L10.5896 4.81198C9.78321 4.87786 8.96031 5.02474 8.16256 5.43122L9.52453 8.10423ZM8.10423 9.52454C8.41582 8.91301 8.913 8.41582 9.52453 8.10424L8.16256 5.43122C6.98655 6.03042 6.03042 6.98655 5.43121 8.16257L8.10423 9.52454ZM7.80201 10.8339C7.8527 10.2135 7.94903 9.82914 8.10423 9.52454L5.43121 8.16256C5.02473 8.96032 4.87785 9.78322 4.81197 10.5896L7.80201 10.8339ZM7.75684 11.9209C7.7637 11.4931 7.77721 11.1373 7.80201 10.8339L4.81197 10.5896C4.77953 10.9867 4.76455 11.416 4.75722 11.8728L7.75684 11.9209ZM7.75 12C7.75 12.0336 7.7477 12.0674 7.74305 12.1012L4.77101 11.6926C4.75709 11.7938 4.75 11.8965 4.75 12H7.75ZM7.74559 11.9193C7.74854 11.9463 7.75 11.9733 7.75 12H4.75C4.75 12.0825 4.7545 12.1645 4.76339 12.2457L7.74559 11.9193ZM7.75 13.367C7.75 12.8965 7.75002 12.479 7.75439 12.0998L4.75459 12.0652C4.74998 12.4651 4.75 12.9009 4.75 13.367L7.75 13.367ZM7.75 13.4V13.367H4.75V13.4H7.75ZM7.75 18.6L7.75 13.4H4.75L4.75 18.6H7.75ZM7.75 18.633V18.6H4.75V18.633H7.75ZM7.80201 21.1661C7.75113 20.5434 7.74999 19.7484 7.75 18.633L4.75 18.633C4.74999 19.7019 4.74885 20.6379 4.81197 21.4104L7.80201 21.1661ZM8.10423 22.4755C7.94903 22.1709 7.8527 21.7865 7.80201 21.1661L4.81197 21.4104C4.87785 22.2168 5.02473 23.0397 5.43121 23.8374L8.10423 22.4755ZM9.52453 23.8958C8.913 23.5842 8.41582 23.087 8.10423 22.4755L5.43121 23.8374C6.03042 25.0135 6.98655 25.9696 8.16256 26.5688L9.52453 23.8958ZM10.8339 24.198C10.2135 24.1473 9.82913 24.051 9.52453 23.8958L8.16256 26.5688C8.96031 26.9753 9.78321 27.1222 10.5896 27.188L10.8339 24.198ZM13.367 24.25C12.2516 24.25 11.4566 24.2489 10.8339 24.198L10.5896 27.188C11.3621 27.2512 12.2981 27.25 13.367 27.25L13.367 24.25ZM13.4 24.25H13.367V27.25H13.4V24.25ZM18.6 24.25H13.4V27.25H18.6V24.25ZM18.633 24.25H18.6V27.25H18.633V24.25ZM21.1661 24.198C20.5434 24.2489 19.7484 24.25 18.633 24.25L18.633 27.25C19.7019 27.25 20.6379 27.2512 21.4104 27.188L21.1661 24.198ZM22.4755 23.8958C22.1709 24.051 21.7865 24.1473 21.1661 24.198L21.4104 27.188C22.2168 27.1222 23.0397 26.9753 23.8374 26.5688L22.4755 23.8958ZM23.8958 22.4755C23.5842 23.087 23.087 23.5842 22.4755 23.8958L23.8374 26.5688C25.0135 25.9696 25.9696 25.0135 26.5688 23.8374L23.8958 22.4755ZM24.198 21.1661C24.1473 21.7865 24.051 22.1709 23.8958 22.4755L26.5688 23.8374C26.9753 23.0397 27.1221 22.2168 27.188 21.4104L24.198 21.1661ZM24.25 18.633C24.25 19.7484 24.2489 20.5434 24.198 21.1661L27.188 21.4104C27.2511 20.6379 27.25 19.7019 27.25 18.633L24.25 18.633ZM24.25 18.6V18.633H27.25V18.6H24.25ZM24.25 13.4V18.6H27.25V13.4L24.25 13.4ZM24.25 13.367V13.4L27.25 13.4V13.367L24.25 13.367ZM24.25 13.3652V13.367L27.25 13.367V13.3652L24.25 13.3652ZM24.2456 12.0998C24.25 12.4786 24.25 12.8954 24.25 13.3652L27.25 13.3652C27.25 12.8999 27.25 12.4646 27.2454 12.0652L24.2456 12.0998ZM24.25 12C24.25 11.9733 24.2515 11.9464 24.2544 11.9193L27.2366 12.2457C27.2455 12.1645 27.25 12.0824 27.25 12L24.25 12ZM24.257 12.1012C24.2523 12.0674 24.25 12.0336 24.25 12L27.25 12C27.25 11.8965 27.2429 11.7938 27.229 11.6926L24.257 12.1012ZM24.198 10.8339C24.2228 11.1373 24.2363 11.4931 24.2432 11.9209L27.2428 11.8728C27.2355 11.416 27.2205 10.9867 27.188 10.5896L24.198 10.8339ZM23.8958 9.52454C24.051 9.82914 24.1473 10.2135 24.198 10.8339L27.188 10.5896C27.1221 9.78322 26.9753 8.96032 26.5688 8.16256L23.8958 9.52454ZM22.4755 8.10424C23.087 8.41582 23.5842 8.91301 23.8958 9.52454L26.5688 8.16257C25.9696 6.98655 25.0135 6.03042 23.8374 5.43122L22.4755 8.10424ZM21.1661 7.80201C21.7865 7.8527 22.1709 7.94903 22.4755 8.10424L23.8374 5.43122C23.0397 5.02474 22.2168 4.87786 21.4104 4.81198L21.1661 7.80201ZM18.633 7.75001C19.7484 7.75 20.5434 7.75113 21.1661 7.80201L21.4104 4.81198C20.6379 4.74886 19.7019 4.75 18.633 4.75001L18.633 7.75001ZM18.6 7.75001L18.633 7.75001L18.633 4.75001L18.6 4.75001L18.6 7.75001ZM6.2505 12.7466C6.25002 12.9526 6.25 13.1705 6.25 13.4H9.25C9.25 13.17 9.25002 12.9555 9.25049 12.7534L6.2505 12.7466ZM10.9863 11.25H7.75049V14.25H10.9863V11.25ZM10.9862 11.2502C10.995 11.2501 11.0037 11.2501 11.0123 11.2502L10.9602 14.2498C10.9862 14.2502 11.0123 14.2502 11.0384 14.2498L10.9862 11.2502ZM17.9863 11.25H11.0123V14.25L17.9863 14.25L17.9863 11.25ZM18.0123 11.2502L18.0007 11.2501L17.9718 14.2499L17.9833 14.25L18.0123 11.2502ZM18.0008 11.2501L17.9863 11.2502L18.0093 14.2501L18.0239 14.25L18.0008 11.2501ZM24.2495 11.25L18.0123 11.25L18.0123 14.25H24.2495V11.25ZM25.75 13.4C25.75 13.1705 25.75 12.9526 25.7495 12.7466L22.7495 12.7534C22.75 12.9555 22.75 13.17 22.75 13.4H25.75ZM25.75 18.6V13.4H22.75V18.6H25.75ZM25.693 21.2883C25.7506 20.5836 25.75 19.7074 25.75 18.6H22.75C22.75 19.7576 22.7482 20.4899 22.703 21.044L25.693 21.2883ZM25.2323 23.1565C25.5132 22.6051 25.6348 22.0013 25.693 21.2883L22.703 21.044C22.6598 21.5722 22.5886 21.7369 22.5593 21.7945L25.2323 23.1565ZM23.1565 25.2323C24.0502 24.7769 24.7769 24.0502 25.2323 23.1565L22.5593 21.7945C22.3915 22.1238 22.1238 22.3915 21.7945 22.5593L23.1565 25.2323ZM21.2883 25.693C22.0013 25.6348 22.6051 25.5132 23.1565 25.2323L21.7945 22.5593C21.7369 22.5886 21.5722 22.6598 21.044 22.703L21.2883 25.693ZM18.6 25.75C19.7074 25.75 20.5835 25.7506 21.2883 25.693L21.044 22.703C20.4899 22.7482 19.7576 22.75 18.6 22.75V25.75ZM13.4 25.75H18.6V22.75H13.4V25.75ZM10.7117 25.693C11.4165 25.7506 12.2926 25.75 13.4 25.75V22.75C12.2424 22.75 11.5101 22.7482 10.956 22.703L10.7117 25.693ZM8.84355 25.2323C9.3949 25.5132 9.99867 25.6348 10.7117 25.693L10.956 22.703C10.4278 22.6598 10.2631 22.5886 10.2055 22.5593L8.84355 25.2323ZM6.76772 23.1565C7.22312 24.0502 7.94978 24.7769 8.84354 25.2323L10.2055 22.5593C9.87623 22.3915 9.60852 22.1238 9.44074 21.7945L6.76772 23.1565ZM6.30699 21.2883C6.36525 22.0013 6.48679 22.6051 6.76772 23.1565L9.44074 21.7945C9.4114 21.7369 9.34018 21.5722 9.29702 21.044L6.30699 21.2883ZM6.25 18.6C6.25 19.7074 6.24941 20.5836 6.30699 21.2883L9.29702 21.044C9.25176 20.4899 9.25 19.7576 9.25 18.6H6.25ZM6.25 13.4L6.25 18.6H9.25L9.25 13.4H6.25ZM25.7223 11.1813C25.7149 11.0199 25.7054 10.8635 25.693 10.7117L22.703 10.956C22.7119 11.0657 22.7194 11.1858 22.7255 11.3187L25.7223 11.1813ZM19.3246 12.75H24.2239V9.75001L19.3246 9.75001V12.75ZM20.0569 7.11413L18.0384 10.4783L20.6109 12.0218L22.6294 8.65762L20.0569 7.11413ZM20.0234 7.17644C20.0337 7.15499 20.0448 7.13419 20.0569 7.11412L22.6293 8.65764C22.6665 8.59568 22.7005 8.53226 22.7314 8.46761L20.0234 7.17644ZM23.1565 6.76773C22.6698 6.51979 22.1444 6.3967 21.5399 6.33085L21.215 9.3132C21.6093 9.35616 21.7444 9.41524 21.7945 9.44075L23.1565 6.76773ZM25.2323 8.84355C24.7769 7.94978 24.0502 7.22312 23.1565 6.76773L21.7945 9.44074C22.1238 9.60852 22.3915 9.87624 22.5593 10.2055L25.2323 8.84355ZM25.693 10.7117C25.6348 9.99868 25.5132 9.39491 25.2323 8.84355L22.5593 10.2055C22.5886 10.2631 22.6598 10.4278 22.703 10.956L25.693 10.7117ZM19.6846 6.25241C19.3561 6.25007 18.9948 6.25001 18.6 6.25001V9.25001C18.997 9.25001 19.3473 9.25008 19.6633 9.25233L19.6846 6.25241ZM18.8616 12.0218L20.9602 8.52411L18.3877 6.98062L16.2891 10.4783L18.8616 12.0218ZM12.3246 12.75H17.5754V9.75001H12.3246L12.3246 12.75ZM13.1384 6.97826L11.0384 10.4783L13.6109 12.0218L15.7109 8.52175L13.1384 6.97826ZM18.6 6.25001H14.4246V9.25001H18.6V6.25001ZM11.3887 6.97895L9.28912 10.4783L11.8616 12.0218L13.9612 8.52244L11.3887 6.97895ZM10.956 9.29703C11.3759 9.26272 11.9116 9.25292 12.6793 9.25069L12.6706 6.2507C11.9084 6.25291 11.2637 6.2619 10.7117 6.30699L10.956 9.29703ZM10.2055 9.44075C10.2631 9.4114 10.4278 9.34019 10.956 9.29703L10.7117 6.30699C9.99867 6.36525 9.3949 6.48679 8.84355 6.76773L10.2055 9.44075ZM9.44074 10.2055C9.60852 9.87624 9.87623 9.60852 10.2055 9.44074L8.84354 6.76773C7.94978 7.22312 7.22312 7.94978 6.76772 8.84355L9.44074 10.2055ZM9.29702 10.956C9.34018 10.4278 9.4114 10.2631 9.44074 10.2055L6.76772 8.84355C6.48679 9.39491 6.36525 9.99868 6.30699 10.7117L9.29702 10.956ZM9.27452 11.3187C9.28061 11.1858 9.28806 11.0657 9.29702 10.956L6.30699 10.7117C6.29459 10.8635 6.28507 11.0199 6.27767 11.1813L9.27452 11.3187ZM10.5754 9.75001H7.7761V12.75H10.5754L10.5754 9.75001ZM11.7501 15.9999C11.7501 16.4141 11.4143 16.7499 11.0001 16.7499V13.7499C9.75746 13.7499 8.7501 14.7573 8.7501 15.9999H11.7501ZM11.0001 15.2499C11.4143 15.2499 11.7501 15.5857 11.7501 15.9999H8.7501C8.7501 17.2425 9.75746 18.2499 11.0001 18.2499V15.2499ZM15.0001 15.2499L11.0001 15.2499V18.2499L15.0001 18.2499V15.2499ZM14.2501 15.9999C14.2501 15.5857 14.5859 15.2499 15.0001 15.2499V18.2499C16.2427 18.2499 17.2501 17.2425 17.2501 15.9999H14.2501ZM15.0001 16.7499C14.5859 16.7499 14.2501 16.4141 14.2501 15.9999H17.2501C17.2501 14.7573 16.2427 13.7499 15.0001 13.7499L15.0001 16.7499ZM11.0001 16.7499L15.0001 16.7499L15.0001 13.7499H11.0001V16.7499ZM11.7502 19.9999C11.7502 20.4141 11.4144 20.7499 11.0002 20.7499L11.0002 17.7499C9.75755 17.7499 8.75019 18.7573 8.75019 19.9999H11.7502ZM11.0002 19.2499C11.4144 19.2499 11.7502 19.5857 11.7502 19.9999H8.75019C8.75019 21.2425 9.75755 22.2499 11.0002 22.2499V19.2499ZM19.0001 19.2499L11.0002 19.2499V22.2499L19.0001 22.2499V19.2499ZM18.2501 19.9999C18.2501 19.5857 18.5859 19.2499 19.0001 19.2499V22.2499C20.2427 22.2499 21.2501 21.2425 21.2501 19.9999H18.2501ZM19.0001 20.7499C18.5859 20.7499 18.2501 20.4141 18.2501 19.9999H21.2501C21.2501 18.7573 20.2427 17.7499 19.0001 17.7499V20.7499ZM11.0002 20.7499L19.0001 20.7499V17.7499L11.0002 17.7499L11.0002 20.7499Z" fill="white"/>
<path fill-rule="evenodd" clip-rule="evenodd" d="M18.6 6.25001L14.0137 6.25001C14.005 6.24986 13.9964 6.24986 13.9877 6.25001H13.4L13.367 6.25001C12.2749 6.25 11.4094 6.25 10.7117 6.30699C9.99834 6.36528 9.39472 6.48689 8.84355 6.76773C7.94978 7.22312 7.22312 7.94978 6.76772 8.84355C6.48688 9.39473 6.36527 9.99835 6.30699 10.7117C6.27837 11.062 6.26412 11.4546 6.25703 11.8969C6.25239 11.9306 6.25 11.965 6.25 12C6.25 12.0279 6.25152 12.0554 6.25449 12.0825C6.25 12.4721 6.25 12.8987 6.25 13.367V13.4L6.25 18.6V18.633C6.24999 19.7252 6.24999 20.5907 6.30699 21.2883C6.36527 22.0017 6.48688 22.6053 6.76772 23.1565C7.22312 24.0502 7.94978 24.7769 8.84355 25.2323C9.39472 25.5131 9.99834 25.6347 10.7117 25.693C11.4094 25.75 12.2748 25.75 13.367 25.75H13.4H18.6H18.633C19.7252 25.75 20.5906 25.75 21.2883 25.693C22.0017 25.6347 22.6053 25.5131 23.1565 25.2323C24.0502 24.7769 24.7769 24.0502 25.2323 23.1565C25.5131 22.6053 25.6347 22.0017 25.693 21.2883C25.75 20.5907 25.75 19.7252 25.75 18.633V18.6V13.4V13.367V13.3652C25.75 12.8976 25.75 12.4716 25.7455 12.0825C25.7485 12.0554 25.75 12.0279 25.75 12C25.75 11.965 25.7476 11.9306 25.743 11.8969C25.7359 11.4546 25.7216 11.062 25.693 10.7117C25.6347 9.99835 25.5131 9.39473 25.2323 8.84355C24.7769 7.94978 24.0502 7.22312 23.1565 6.76773C22.6053 6.48689 22.0017 6.36528 21.2883 6.30699C20.5906 6.25 19.7251 6.25 18.633 6.25001L18.6 6.25001ZM7.75 13.4C7.75 13.1703 7.75002 12.954 7.75049 12.75H10.9863C10.995 12.7502 11.0036 12.7502 11.0123 12.75H17.9863L17.9978 12.7501L18.0123 12.75L24.2495 12.75C24.25 12.954 24.25 13.1703 24.25 13.4V18.6C24.25 19.7325 24.2494 20.5367 24.198 21.1661C24.1473 21.7868 24.0509 22.171 23.8958 22.4755C23.5842 23.087 23.087 23.5842 22.4755 23.8958C22.171 24.0509 21.7867 24.1473 21.1661 24.198C20.5367 24.2494 19.7325 24.25 18.6 24.25H13.4C12.2675 24.25 11.4633 24.2494 10.8339 24.198C10.2133 24.1473 9.829 24.0509 9.52453 23.8958C8.913 23.5842 8.41582 23.087 8.10423 22.4755C7.94909 22.171 7.85271 21.7868 7.80201 21.1661C7.75058 20.5367 7.75 19.7325 7.75 18.6L7.75 13.4ZM24.198 10.8339C24.2087 10.9646 24.2172 11.1028 24.2239 11.25H19.3246L21.3431 7.88588C21.3557 7.86494 21.3671 7.84363 21.3774 7.82202C21.8769 7.87643 22.2071 7.96751 22.4755 8.10424C23.087 8.41582 23.5842 8.91301 23.8958 9.52454C24.0509 9.82901 24.1473 10.2133 24.198 10.8339ZM18.6 7.75001C18.9959 7.75001 19.3517 7.75008 19.6739 7.75237L17.5754 11.25H12.3246L14.4246 7.75001L18.6 7.75001ZM10.5754 11.25L12.6749 7.75069C11.91 7.75291 11.3198 7.76231 10.8339 7.80201C10.2133 7.85272 9.829 7.9491 9.52453 8.10424C8.913 8.41582 8.41582 8.91301 8.10423 9.52454C7.94909 9.82901 7.85271 10.2133 7.80201 10.8339C7.79133 10.9646 7.78284 11.1028 7.7761 11.25H10.5754ZM11.0001 15.2499C10.5859 15.2499 10.2501 15.5857 10.2501 15.9999C10.2501 16.4141 10.5859 16.7499 11.0001 16.7499H15.0001C15.4143 16.7499 15.7501 16.4141 15.7501 15.9999C15.7501 15.5857 15.4143 15.2499 15.0001 15.2499L11.0001 15.2499ZM11.0002 19.2499C10.586 19.2499 10.2502 19.5857 10.2502 19.9999C10.2502 20.4141 10.586 20.7499 11.0002 20.7499H19.0001C19.4143 20.7499 19.7501 20.4141 19.7501 19.9999C19.7501 19.5857 19.4143 19.2499 19.0001 19.2499H11.0002Z" fill="#151E28"/>
</svg>
