<svg viewBox="0 0 32 32" fill="none" xmlns="http://www.w3.org/2000/svg">
<path d="M16 6C13.2386 6 11 8.23858 11 11C8.23858 11 6 13.2386 6 16C6 18.7614 8.23858 21 11 21H21C23.7614 21 26 18.7614 26 16C26 13.2386 23.7614 11 21 11C21 8.23858 18.7614 6 16 6Z" fill="white"/>
<path d="M12.3181 8.87554L13.6165 9.62663L13.6165 9.62663L12.3181 8.87554ZM21.8508 20.165L21.5524 18.695L21.5524 18.695L21.8508 20.165ZM21.265 21.0492L22.735 20.7508L22.735 20.7508L21.265 21.0492ZM22.1492 21.635L21.8508 20.165L21.8508 20.165L22.1492 21.635ZM21.707 10.293L20.2181 10.4756C20.3019 11.1593 20.8407 11.6981 21.5244 11.7819L21.707 10.293ZM11.0197 8.12446L12.3181 8.87554L12.3181 8.87554L11.0197 8.12446ZM11.2934 9.1492L10.5423 10.4476L10.5423 10.4476L11.2934 9.1492ZM12.6997 12.1033L13.3003 10.7288L13.3003 10.7288L12.6997 12.1033ZM13.3003 10.7288L13.9008 9.35425L13.9008 9.35425L13.3003 10.7288ZM9.8508 21.635L10.1492 20.165L10.1492 20.165L9.8508 21.635ZM10.735 21.0492L9.26499 20.7508L9.26499 20.7508L10.735 21.0492ZM10.1492 20.165L10.4476 18.695L10.4476 18.695L10.1492 20.165ZM15.25 23.1893L14.1893 24.25C14.6183 24.679 15.2635 24.8073 15.824 24.5752C16.3845 24.343 16.75 23.796 16.75 23.1893H15.25ZM13.0303 20.9697L14.091 19.909L14.091 19.909L13.0303 20.9697ZM11.9697 20.9697L10.909 19.909L10.909 19.909L11.9697 20.9697ZM11.9697 22.0303L10.909 23.091L10.909 23.091L11.9697 22.0303ZM15.4697 25.5303L14.409 26.591L14.409 26.591L15.4697 25.5303ZM16.5303 25.5303L17.591 26.591L17.591 26.591L16.5303 25.5303ZM20.0303 22.0303L21.091 23.091L21.091 23.091L20.0303 22.0303ZM20.0303 20.9697L21.091 19.909L21.091 19.909L20.0303 20.9697ZM18.9697 20.9697L17.909 19.909L17.909 19.909L18.9697 20.9697ZM16.75 23.1893H15.25C15.25 23.796 15.6155 24.343 16.176 24.5752C16.7365 24.8073 17.3817 24.679 17.8107 24.25L16.75 23.1893ZM16 5.25C13.8712 5.25 12.013 6.40735 11.0197 8.12446L13.6165 9.62663C14.0952 8.79917 14.9845 8.25 16 8.25V5.25ZM21.75 11C21.75 7.82436 19.1756 5.25 16 5.25V8.25C17.5188 8.25 18.75 9.48122 18.75 11H21.75ZM21 10.25C21.4142 10.25 21.75 10.5858 21.75 11H18.75C18.75 12.2426 19.7574 13.25 21 13.25V10.25ZM26.75 16C26.75 12.8244 24.1756 10.25 21 10.25V13.25C22.5188 13.25 23.75 14.4812 23.75 16H26.75ZM22.1492 21.635C24.7746 21.1021 26.75 18.7821 26.75 16H23.75C23.75 17.3283 22.8062 18.4405 21.5524 18.695L22.1492 21.635ZM22.735 20.7508C22.8174 21.1567 22.5551 21.5526 22.1492 21.635L21.5524 18.695C20.3346 18.9422 19.5478 20.1298 19.795 21.3476L22.735 20.7508ZM21.8508 20.165C22.2567 20.0826 22.6526 20.3448 22.735 20.7508L19.795 21.3476C20.0422 22.5654 21.2298 23.3522 22.4476 23.105L21.8508 20.165ZM25.25 16C25.25 18.0549 23.7908 19.7712 21.8508 20.165L22.4476 23.105C25.7574 22.4332 28.25 19.5105 28.25 16H25.25ZM21.5244 11.7819C23.6236 12.0392 25.25 13.8308 25.25 16H28.25C28.25 12.2966 25.4746 9.24373 21.8895 8.80418L21.5244 11.7819ZM16 6.75C18.1692 6.75 19.9608 8.37642 20.2181 10.4756L23.1958 10.1105C22.7563 6.52541 19.7034 3.75 16 3.75V6.75ZM12.3181 8.87554C13.0543 7.60297 14.4282 6.75 16 6.75V3.75C13.3133 3.75 10.9713 5.21249 9.7213 7.37337L12.3181 8.87554ZM12.0445 7.8508C12.403 8.0582 12.5255 8.517 12.3181 8.87554L9.7213 7.37337C9.09908 8.449 9.46664 9.82539 10.5423 10.4476L12.0445 7.8508ZM11.0197 8.12446C11.2271 7.76591 11.6859 7.64339 12.0445 7.8508L10.5423 10.4476C11.6179 11.0698 12.9943 10.7023 13.6165 9.62663L11.0197 8.12446ZM11 10.25C7.82436 10.25 5.25 12.8244 5.25 16H8.25C8.25 14.4812 9.48122 13.25 11 13.25V10.25ZM13.3003 10.7288C12.5949 10.4206 11.8164 10.25 11 10.25V13.25C11.3953 13.25 11.7654 13.332 12.0992 13.4778L13.3003 10.7288ZM12.3127 11.1158C12.4786 10.7362 12.9207 10.5629 13.3003 10.7288L12.0992 13.4778C13.2379 13.9754 14.5643 13.4556 15.0618 12.3169L12.3127 11.1158ZM12.6997 12.1033C12.3202 11.9375 12.1469 11.4953 12.3127 11.1158L15.0618 12.3169C15.5593 11.1782 15.0395 9.85177 13.9008 9.35425L12.6997 12.1033ZM11 11.75C11.6058 11.75 12.1802 11.8763 12.6997 12.1033L13.9008 9.35425C13.0096 8.96487 12.027 8.75 11 8.75V11.75ZM6.75 16C6.75 13.6528 8.65279 11.75 11 11.75V8.75C6.99594 8.75 3.75 11.9959 3.75 16H6.75ZM10.1492 20.165C8.20922 19.7712 6.75 18.0549 6.75 16H3.75C3.75 19.5105 6.2426 22.4332 9.5524 23.105L10.1492 20.165ZM9.26499 20.7508C9.34739 20.3448 9.74326 20.0826 10.1492 20.165L9.5524 23.105C10.7702 23.3522 11.9578 22.5654 12.205 21.3476L9.26499 20.7508ZM9.8508 21.635C9.44487 21.5526 9.18259 21.1567 9.26499 20.7508L12.205 21.3476C12.4522 20.1298 11.6654 18.9422 10.4476 18.695L9.8508 21.635ZM5.25 16C5.25 18.7821 7.22538 21.1021 9.8508 21.635L10.4476 18.695C9.19384 18.4405 8.25 17.3283 8.25 16H5.25ZM16 16.75C15.5858 16.75 15.25 16.4142 15.25 16H18.25C18.25 14.7574 17.2426 13.75 16 13.75V16.75ZM16.75 16C16.75 16.4142 16.4142 16.75 16 16.75V13.75C14.7574 13.75 13.75 14.7574 13.75 16H16.75ZM16.75 23.1893V16H13.75V23.1893H16.75ZM11.9697 22.0303L14.1893 24.25L16.3107 22.1287L14.091 19.909L11.9697 22.0303ZM13.0303 22.0303C12.7374 22.3232 12.2626 22.3232 11.9697 22.0303L14.091 19.909C13.2123 19.0303 11.7877 19.0303 10.909 19.909L13.0303 22.0303ZM13.0303 20.9697C13.3232 21.2626 13.3232 21.7374 13.0303 22.0303L10.909 19.909C10.0303 20.7877 10.0303 22.2123 10.909 23.091L13.0303 20.9697ZM16.5303 24.4697L13.0303 20.9697L10.909 23.091L14.409 26.591L16.5303 24.4697ZM15.4697 24.4697C15.7626 24.1768 16.2374 24.1768 16.5303 24.4697L14.409 26.591C15.2877 27.4697 16.7123 27.4697 17.591 26.591L15.4697 24.4697ZM18.9697 20.9697L15.4697 24.4697L17.591 26.591L21.091 23.091L18.9697 20.9697ZM18.9697 22.0303C18.6768 21.7374 18.6768 21.2626 18.9697 20.9697L21.091 23.091C21.9697 22.2123 21.9697 20.7877 21.091 19.909L18.9697 22.0303ZM20.0303 22.0303C19.7374 22.3232 19.2626 22.3232 18.9697 22.0303L21.091 19.909C20.2123 19.0303 18.7877 19.0303 17.909 19.909L20.0303 22.0303ZM17.8107 24.25L20.0303 22.0303L17.909 19.909L15.6893 22.1287L17.8107 24.25ZM15.25 16V23.1893H18.25V16H15.25Z" fill="white"/>
<path fill-rule="evenodd" clip-rule="evenodd" d="M12.3181 8.87554C13.0541 7.60326 14.4278 6.75 16 6.75C18.3472 6.75 20.25 8.65279 20.25 11C20.25 11.4142 20.5858 11.75 21 11.75C23.3472 11.75 25.25 13.6528 25.25 16C25.25 18.0552 23.7904 19.7713 21.8508 20.165C21.4449 20.2474 21.1826 20.6432 21.265 21.0492C21.3474 21.4551 21.7433 21.7174 22.1492 21.635C24.7741 21.1022 26.75 18.7827 26.75 16C26.75 13.0637 24.5491 10.6415 21.707 10.293C21.3585 7.45092 18.9363 5.25 16 5.25C13.8707 5.25 12.0128 6.40773 11.0197 8.12446C10.8123 8.483 10.9348 8.9418 11.2934 9.1492C11.6519 9.35661 12.1107 9.23409 12.3181 8.87554ZM6.75 16C6.75 13.6528 8.65279 11.75 11 11.75C11.6058 11.75 12.1802 11.8763 12.6997 12.1033C13.0793 12.2691 13.5214 12.0959 13.6873 11.7163C13.8531 11.3368 13.6798 10.8946 13.3003 10.7288C12.5949 10.4206 11.8164 10.25 11 10.25C7.82436 10.25 5.25 12.8244 5.25 16C5.25 18.7827 7.22591 21.1022 9.8508 21.635C10.2567 21.7174 10.6526 21.4551 10.735 21.0492C10.8174 20.6432 10.5551 20.2474 10.1492 20.165C8.20961 19.7713 6.75 18.0552 6.75 16ZM16.75 16C16.75 15.5858 16.4142 15.25 16 15.25C15.5858 15.25 15.25 15.5858 15.25 16V23.1893L13.0303 20.9697C12.7374 20.6768 12.2626 20.6768 11.9697 20.9697C11.6768 21.2626 11.6768 21.7374 11.9697 22.0303L15.4697 25.5303C15.7626 25.8232 16.2374 25.8232 16.5303 25.5303L20.0303 22.0303C20.3232 21.7374 20.3232 21.2626 20.0303 20.9697C19.7374 20.6768 19.2626 20.6768 18.9697 20.9697L16.75 23.1893V16Z" fill="#151E28"/>
</svg>
