<svg viewBox="0 0 32 32" fill="none" xmlns="http://www.w3.org/2000/svg">
<path d="M24.9998 16C24.9998 20.9706 20.9703 25 15.9998 25C11.0292 25 6.99976 20.9706 6.99976 16C6.99976 11.0294 11.0292 7 15.9998 7C20.9703 7 24.9998 11.0294 24.9998 16Z" fill="white"/>
<path d="M9.24976 16C9.24976 12.2721 12.2718 9.25 15.9998 9.25V6.25C10.615 6.25 6.24976 10.6152 6.24976 16H9.24976ZM15.9998 22.75C12.2718 22.75 9.24976 19.7279 9.24976 16H6.24976C6.24976 21.3848 10.615 25.75 15.9998 25.75V22.75ZM22.7498 16C22.7498 19.7279 19.7277 22.75 15.9998 22.75V25.75C21.3845 25.75 25.7498 21.3848 25.7498 16H22.7498ZM15.9998 9.25C19.7277 9.25 22.7498 12.2721 22.7498 16H25.7498C25.7498 10.6152 21.3845 6.25 15.9998 6.25V9.25ZM15.9998 4.75C9.78655 4.75 4.74976 9.7868 4.74976 16H7.74976C7.74976 11.4437 11.4434 7.75 15.9998 7.75V4.75ZM27.2498 16C27.2498 9.7868 22.213 4.75 15.9998 4.75V7.75C20.5561 7.75 24.2498 11.4437 24.2498 16H27.2498ZM15.9998 27.25C22.213 27.25 27.2498 22.2132 27.2498 16H24.2498C24.2498 20.5563 20.5561 24.25 15.9998 24.25V27.25ZM4.74976 16C4.74976 22.2132 9.78655 27.25 15.9998 27.25V24.25C11.4434 24.25 7.74976 20.5563 7.74976 16H4.74976Z" fill="white"/>
<path fill-rule="evenodd" clip-rule="evenodd" d="M7.74976 16C7.74976 11.4437 11.4434 7.75 15.9998 7.75C20.5561 7.75 24.2498 11.4437 24.2498 16C24.2498 20.5563 20.5561 24.25 15.9998 24.25C11.4434 24.25 7.74976 20.5563 7.74976 16ZM15.9998 6.25C10.615 6.25 6.24976 10.6152 6.24976 16C6.24976 21.3848 10.615 25.75 15.9998 25.75C21.3845 25.75 25.7498 21.3848 25.7498 16C25.7498 10.6152 21.3845 6.25 15.9998 6.25ZM19.7352 13.1471C19.7844 12.9012 19.7074 12.647 19.5301 12.4697C19.3528 12.2924 19.0986 12.2154 18.8527 12.2646L15.9446 12.8462L15.8299 12.869C15.1868 12.9971 14.6821 13.0975 14.2616 13.3555C13.8923 13.582 13.5818 13.8925 13.3553 14.2618C13.0973 14.6824 12.9968 15.187 12.8688 15.8301L12.8459 15.9448L12.2643 18.8529C12.2151 19.0988 12.2921 19.353 12.4694 19.5303C12.6467 19.7076 12.901 19.7846 13.1468 19.7354L16.055 19.1538L16.1697 19.1309C16.8128 19.0029 17.3174 18.9024 17.7379 18.6445C18.1072 18.418 18.4177 18.1074 18.6442 17.7382C18.9022 17.3176 19.0027 16.813 19.1307 16.1699L19.1536 16.0552L19.7352 13.1471ZM16.2388 14.317L18.0437 13.9561L17.6827 15.761C17.5199 16.5748 17.4653 16.7913 17.3656 16.9539C17.2627 17.1217 17.1215 17.2629 16.9537 17.3658C16.7911 17.4655 16.5746 17.5202 15.7608 17.6829L13.9558 18.0439L14.3168 16.239C14.4796 15.4252 14.5342 15.2086 14.6339 15.0461C14.7369 14.8782 14.878 14.7371 15.0459 14.6341C15.2084 14.5344 15.425 14.4798 16.2388 14.317Z" fill="#151E28"/>
</svg>
