<svg viewBox="0 0 32 32" fill="none" xmlns="http://www.w3.org/2000/svg">
<path d="M23 20.2V13L20.2 13C19.0799 13 18.5198 13 18.092 12.782C17.7157 12.5903 17.4097 12.2843 17.218 11.908C17 11.4802 17 10.9201 17 9.8V7H13.8C12.1198 7 11.2798 7 10.638 7.32698C10.0735 7.6146 9.6146 8.07354 9.32698 8.63803C9 9.27976 9 10.1198 9 11.8L9 20.2C9 21.8802 9 22.7202 9.32698 23.362C9.6146 23.9265 10.0735 24.3854 10.638 24.673C11.2798 25 12.1198 25 13.8 25H18.2C19.8802 25 20.7202 25 21.362 24.673C21.9265 24.3854 22.3854 23.9265 22.673 23.362C23 22.7202 23 21.8802 23 20.2Z" fill="white"/>
<path d="M17.75 7.89187L18.4441 6.56213C17.9791 6.31941 17.4211 6.33722 16.9726 6.60907C16.524 6.88093 16.25 7.36735 16.25 7.89187H17.75ZM17.9807 8.04722L18.9517 6.9039L18.9517 6.9039L17.9807 8.04722ZM18.1768 8.23743L19.2374 7.17677L19.2374 7.17677L18.1768 8.23743ZM21.7626 11.8232L22.8232 10.7626L22.8232 10.7626L21.7626 11.8232ZM21.9528 12.0193L20.8094 12.9902L20.8094 12.9902L21.9528 12.0193ZM22.1081 12.25V13.75C22.6326 13.75 23.1191 13.476 23.3909 13.0274C23.6628 12.5789 23.6806 12.0209 23.4379 11.5559L22.1081 12.25ZM18.9475 12.2252L18.8253 13.7203L18.8253 13.7203L18.9475 12.2252ZM18.4325 12.1137L19.1135 10.7772L19.1135 10.7772L18.4325 12.1137ZM17.8862 11.5675L19.2228 10.8865L19.2227 10.8865L17.8862 11.5675ZM17.7748 11.0525L16.2797 11.1747L16.2797 11.1747L17.7748 11.0525ZM23.75 13L22.25 12.9998V13H23.75ZM23.75 12.975L25.25 12.9752V12.975H23.75ZM23.75 12.9749L22.25 12.9747V12.9749H23.75ZM23.7409 12.605L22.2459 12.7269L22.2459 12.7269L23.7409 12.605ZM23.0961 11.0483L24.2394 10.0773L24.2394 10.0773L23.0961 11.0483ZM22.8409 10.7802L21.7804 11.841L21.7805 11.8411L22.8409 10.7802ZM22.8232 10.7626L21.7626 11.8232L21.7627 11.8233L22.8232 10.7626ZM19.2374 7.17677L18.1767 8.23731L18.1768 8.23743L19.2374 7.17677ZM19.2198 7.15908L18.1589 8.21953L18.159 8.21962L19.2198 7.15908ZM18.9517 6.9039L17.9807 8.04722L17.9807 8.04722L18.9517 6.9039ZM17.395 6.25908L17.2731 7.75412L17.2731 7.75412L17.395 6.25908ZM17.025 6.24999L17.0252 7.74999L17.0253 7.74999L17.025 6.24999ZM17 6.24999L17 7.74999L17.0002 7.74999L17 6.24999ZM13.7679 6.24999L13.7679 7.74999H13.7679V6.24999ZM11.7685 6.29335L11.8907 7.78837L11.8907 7.78837L11.7685 6.29335ZM10.2975 6.65872L9.61655 5.32221L9.61655 5.32221L10.2975 6.65872ZM8.65873 8.29753L7.32222 7.61654L7.32222 7.61654L8.65873 8.29753ZM8.29336 9.76852L9.78838 9.89067L9.78838 9.89067L8.29336 9.76852ZM8.25 11.7679L9.75 11.7679L9.75 11.7679L8.25 11.7679ZM8.25 20.2321L9.75 20.2321V20.2321H8.25ZM8.29336 22.2315L6.79835 22.3536L8.29336 22.2315ZM8.65873 23.7025L7.32222 24.3834L7.32222 24.3834L8.65873 23.7025ZM10.2975 25.3413L10.9785 24.0048L10.9785 24.0048L10.2975 25.3413ZM11.7685 25.7066L11.6464 27.2016L11.6464 27.2016L11.7685 25.7066ZM13.7679 25.75L13.7679 24.25L13.7679 24.25L13.7679 25.75ZM18.2321 25.75L18.2321 24.25H18.2321V25.75ZM20.2315 25.7066L20.3536 27.2016L20.3536 27.2016L20.2315 25.7066ZM21.7025 25.3413L21.0215 24.0048L21.0215 24.0048L21.7025 25.3413ZM23.3413 23.7025L24.6778 24.3834L24.6778 24.3834L23.3413 23.7025ZM23.7066 22.2315L22.2116 22.1093L22.2116 22.1093L23.7066 22.2315ZM23.75 20.2321L22.25 20.2321L22.25 20.2321L23.75 20.2321ZM10.9785 7.99523L11.6595 9.33174L11.6595 9.33174L10.9785 7.99523ZM11.8907 7.78837L11.7685 6.29335L11.7685 6.29335L11.8907 7.78837ZM9.99524 8.97851L8.65873 8.29753L8.65873 8.29753L9.99524 8.97851ZM9.78838 9.89067L11.2834 10.0128L11.2834 10.0128L9.78838 9.89067ZM9.78838 22.1093L11.2834 21.9872L11.2834 21.9872L9.78838 22.1093ZM9.99524 23.0215L11.3317 22.3405L11.3317 22.3405L9.99524 23.0215ZM10.9785 24.0048L10.2975 25.3413L10.2975 25.3413L10.9785 24.0048ZM11.8907 24.2116L11.7685 25.7066L11.7685 25.7066L11.8907 24.2116ZM20.1093 24.2116L20.2315 25.7066L20.2315 25.7066L20.1093 24.2116ZM21.0215 24.0048L21.7025 25.3413L21.7025 25.3413L21.0215 24.0048ZM22.0048 23.0215L20.6683 22.3405L20.6683 22.3405L22.0048 23.0215ZM22.2116 22.1093L23.7066 22.2315L23.7066 22.2315L22.2116 22.1093ZM22.25 13.75H23.75C23.75 12.9216 23.0784 12.25 22.25 12.25V13.75ZM20.1696 13.75L20.1696 12.25L20.1695 12.25L20.1696 13.75ZM18.8253 13.7203L18.9475 12.2252L18.9475 12.2252L18.8253 13.7203ZM17.7515 13.4503L17.0705 14.7868L17.0705 14.7868L17.7515 13.4503ZM16.5497 12.2485L17.8862 11.5675L17.8862 11.5675L16.5497 12.2485ZM16.2797 11.1747L14.7847 11.2968L14.7847 11.2968L16.2797 11.1747ZM16.25 9.83042L17.75 9.83045V9.83042H16.25ZM16.25 7.74999H17.75C17.75 6.92156 17.0784 6.24999 16.25 6.24999V7.74999ZM16.25 7.89187V9.79999H19.25V7.89187H16.25ZM18.9517 6.9039C18.7949 6.77071 18.6245 6.65629 18.4441 6.56213L17.0559 9.22162C17.0395 9.21306 17.024 9.20264 17.0097 9.19055L18.9517 6.9039ZM19.2374 7.17677C19.1295 7.06881 19.0431 6.98149 18.9517 6.9039L17.0097 9.19054C16.9914 9.17495 16.9822 9.16542 16.9983 9.18107C17.0179 9.20013 17.0507 9.2327 17.1161 9.29809L19.2374 7.17677ZM22.8232 10.7626L19.2374 7.17677L17.1161 9.29809L20.7019 12.8839L22.8232 10.7626ZM23.0961 11.0483C23.0185 10.9569 22.9312 10.8705 22.8232 10.7626L20.7019 12.8839C20.7673 12.9493 20.7999 12.9821 20.8189 13.0017C20.8346 13.0178 20.825 13.0086 20.8094 12.9902L23.0961 11.0483ZM23.4379 11.5559C23.3437 11.3755 23.2293 11.2051 23.0961 11.0483L20.8094 12.9902C20.7974 12.976 20.7869 12.9605 20.7784 12.9441L23.4379 11.5559ZM20.2 13.75L22.1081 13.75V10.75L20.2 10.75V13.75ZM18.8253 13.7203C19.1966 13.7506 19.6531 13.75 20.2 13.75V10.75C19.6021 10.75 19.2901 10.7482 19.0696 10.7302L18.8253 13.7203ZM17.7515 13.4503C18.0893 13.6223 18.4463 13.6893 18.8253 13.7203L19.0696 10.7302C19.0238 10.7265 18.9931 10.7227 18.9744 10.72C18.9558 10.7173 18.952 10.716 18.9596 10.7178C18.9677 10.7197 18.9879 10.7249 19.0168 10.7352C19.0467 10.746 19.0796 10.76 19.1135 10.7772L17.7515 13.4503ZM16.5497 12.2485C16.8134 12.7659 17.2341 13.1866 17.7515 13.4503L19.1135 10.7772C19.1605 10.8012 19.1988 10.8395 19.2228 10.8865L16.5497 12.2485ZM16.2797 11.1747C16.3107 11.5537 16.3776 11.9107 16.5497 12.2485L19.2227 10.8865C19.24 10.9204 19.254 10.9533 19.2647 10.9832C19.2751 11.0121 19.2803 11.0323 19.2822 11.0404C19.284 11.048 19.2827 11.0442 19.28 11.0256C19.2773 11.0069 19.2735 10.9762 19.2698 10.9304L16.2797 11.1747ZM16.25 9.79999C16.25 10.3469 16.2494 10.8034 16.2797 11.1747L19.2698 10.9304C19.2518 10.7099 19.25 10.3979 19.25 9.79999H16.25ZM22.25 13L22.25 20.2H25.25V13H22.25ZM22.25 12.9748L22.25 12.9998L25.25 13.0002L25.25 12.9752L22.25 12.9748ZM22.25 12.975V12.975H25.25V12.975H22.25ZM22.25 12.9749V12.975H25.25V12.9749H22.25ZM22.2459 12.7269C22.2491 12.7666 22.25 12.8157 22.25 12.9747L25.25 12.9752C25.25 12.8454 25.251 12.6678 25.236 12.4831L22.2459 12.7269ZM21.9528 12.0193C22.1221 12.2187 22.2246 12.4661 22.2459 12.7269L25.236 12.4831C25.1637 11.5967 24.8151 10.7552 24.2394 10.0773L21.9528 12.0193ZM21.7805 11.8411C21.8929 11.9535 21.927 11.9889 21.9528 12.0193L24.2394 10.0773C24.1195 9.93604 23.9932 9.81119 23.9014 9.71936L21.7805 11.8411ZM21.7627 11.8233L21.7804 11.841L23.9015 9.71946L23.8838 9.70178L21.7627 11.8233ZM18.1768 8.23743L21.7626 11.8232L23.8839 9.70189L20.2981 6.11611L18.1768 8.23743ZM18.159 8.21962L18.1767 8.23731L20.2982 6.11623L20.2805 6.09854L18.159 8.21962ZM17.9807 8.04722C18.0111 8.073 18.0465 8.10712 18.1589 8.21953L20.2806 6.09863C20.1888 6.00678 20.0639 5.88053 19.9227 5.76057L17.9807 8.04722ZM17.2731 7.75412C17.5339 7.77538 17.7813 7.87789 17.9807 8.04722L19.9227 5.76058C19.2448 5.18484 18.4033 4.8363 17.5168 4.76404L17.2731 7.75412ZM17.0253 7.74999C17.1842 7.74996 17.2334 7.75089 17.2731 7.75412L17.5168 4.76404C17.3321 4.74898 17.1546 4.74996 17.0247 4.74999L17.0253 7.74999ZM17.0002 7.74999L17.0252 7.74999L17.0248 4.74999L16.9998 4.74999L17.0002 7.74999ZM13.8 7.74999H17V4.74999H13.8V7.74999ZM13.7679 7.74999H13.8V4.74999H13.7679V7.74999ZM11.8907 7.78837C12.3468 7.75111 12.9323 7.74998 13.7679 7.74999L13.7679 4.74999C12.9778 4.74998 12.2521 4.74885 11.6464 4.79834L11.8907 7.78837ZM10.9785 7.99523C11.1762 7.89451 11.4371 7.82543 11.8907 7.78837L11.6464 4.79834C11.0067 4.8506 10.3073 4.97025 9.61655 5.32221L10.9785 7.99523ZM9.99524 8.97851C10.211 8.55515 10.5552 8.21094 10.9785 7.99523L9.61655 5.32221C8.6287 5.82554 7.82555 6.62869 7.32222 7.61654L9.99524 8.97851ZM9.78838 9.89067C9.82544 9.43708 9.89451 9.17619 9.99524 8.97851L7.32222 7.61654C6.97026 8.3073 6.85061 9.00669 6.79835 9.64638L9.78838 9.89067ZM9.75 11.7679C9.74999 10.9323 9.75111 10.3468 9.78838 9.89067L6.79835 9.64638C6.74886 10.2521 6.74999 10.9778 6.75 11.7679L9.75 11.7679ZM9.75 11.8V11.7679H6.75V11.8H9.75ZM9.75 20.2V11.8H6.75L6.75 20.2H9.75ZM9.75 20.2321V20.2H6.75V20.2321H9.75ZM9.78838 22.1093C9.75111 21.6532 9.74999 21.0677 9.75 20.2321L6.75 20.2321C6.74999 21.0222 6.74886 21.7479 6.79835 22.3536L9.78838 22.1093ZM9.99524 23.0215C9.89451 22.8238 9.82544 22.5629 9.78838 22.1093L6.79835 22.3536C6.85061 22.9933 6.97026 23.6927 7.32222 24.3834L9.99524 23.0215ZM10.9785 24.0048C10.5552 23.789 10.211 23.4448 9.99524 23.0215L7.32222 24.3834C7.82555 25.3713 8.6287 26.1744 9.61655 26.6778L10.9785 24.0048ZM11.8907 24.2116C11.4371 24.1745 11.1762 24.1055 10.9785 24.0048L9.61655 26.6778C10.3073 27.0297 11.0067 27.1494 11.6464 27.2016L11.8907 24.2116ZM13.7679 24.25C12.9323 24.25 12.3468 24.2489 11.8907 24.2116L11.6464 27.2016C12.2521 27.2511 12.9778 27.25 13.7679 27.25L13.7679 24.25ZM13.8 24.25H13.7679V27.25H13.8V24.25ZM18.2 24.25H13.8V27.25H18.2V24.25ZM18.2321 24.25H18.2V27.25H18.2321V24.25ZM20.1093 24.2116C19.6532 24.2489 19.0677 24.25 18.2321 24.25L18.2321 27.25C19.0222 27.25 19.7479 27.2511 20.3536 27.2016L20.1093 24.2116ZM21.0215 24.0048C20.8238 24.1055 20.5629 24.1745 20.1093 24.2116L20.3536 27.2016C20.9933 27.1494 21.6927 27.0297 22.3835 26.6778L21.0215 24.0048ZM22.0048 23.0215C21.7891 23.4448 21.4448 23.789 21.0215 24.0048L22.3835 26.6778C23.3713 26.1744 24.1744 25.3713 24.6778 24.3834L22.0048 23.0215ZM22.2116 22.1093C22.1746 22.5629 22.1055 22.8238 22.0048 23.0215L24.6778 24.3834C25.0297 23.6927 25.1494 22.9933 25.2017 22.3536L22.2116 22.1093ZM22.25 20.2321C22.25 21.0677 22.2489 21.6532 22.2116 22.1093L25.2017 22.3536C25.2511 21.7479 25.25 21.0222 25.25 20.2321L22.25 20.2321ZM22.25 20.2V20.2321H25.25V20.2H22.25ZM11.6595 9.33174C11.6101 9.35693 11.6512 9.31293 12.0128 9.28339L11.7685 6.29335C11.2224 6.33798 10.742 6.43224 10.2975 6.65872L11.6595 9.33174ZM11.3317 9.6595C11.4037 9.51838 11.5184 9.40364 11.6595 9.33174L10.2975 6.65872C9.59193 7.01824 9.01825 7.59192 8.65873 8.29753L11.3317 9.6595ZM11.2834 10.0128C11.3129 9.65123 11.3569 9.61005 11.3317 9.6595L8.65873 8.29753C8.43225 8.74201 8.33799 9.22236 8.29336 9.76852L11.2834 10.0128ZM11.25 11.8C11.25 10.9223 11.2518 10.4001 11.2834 10.0128L8.29336 9.76852C8.24941 10.3065 8.25 10.9728 8.25 11.8H11.25ZM11.25 20.2L11.25 11.8H8.25V20.2H11.25ZM11.2834 21.9872C11.2518 21.5999 11.25 21.0777 11.25 20.2H8.25C8.25 21.0272 8.24941 21.6935 8.29336 22.2315L11.2834 21.9872ZM11.3317 22.3405C11.3569 22.3899 11.3129 22.3488 11.2834 21.9872L8.29336 22.2315C8.33799 22.7776 8.43225 23.258 8.65873 23.7025L11.3317 22.3405ZM11.6595 22.6682C11.5184 22.5963 11.4036 22.4816 11.3317 22.3405L8.65873 23.7025C9.01825 24.4081 9.59193 24.9817 10.2975 25.3413L11.6595 22.6682ZM12.0128 22.7166C11.6512 22.687 11.6101 22.6431 11.6595 22.6682L10.2975 25.3413C10.742 25.5677 11.2224 25.662 11.7685 25.7066L12.0128 22.7166ZM13.8 22.75C12.9223 22.75 12.4001 22.7482 12.0128 22.7166L11.7685 25.7066C12.3065 25.7506 12.9728 25.75 13.8 25.75V22.75ZM18.2 22.75H13.8V25.75H18.2V22.75ZM19.9872 22.7166C19.5999 22.7482 19.0777 22.75 18.2 22.75V25.75C19.0272 25.75 19.6935 25.7506 20.2315 25.7066L19.9872 22.7166ZM20.3405 22.6682C20.3899 22.6431 20.3488 22.687 19.9872 22.7166L20.2315 25.7066C20.7776 25.662 21.258 25.5677 21.7025 25.3413L20.3405 22.6682ZM20.6683 22.3405C20.5963 22.4816 20.4816 22.5963 20.3405 22.6682L21.7025 25.3413C22.4081 24.9817 22.9817 24.4081 23.3413 23.7025L20.6683 22.3405ZM20.7166 21.9872C20.6871 22.3488 20.6431 22.3899 20.6683 22.3405L23.3413 23.7025C23.5678 23.258 23.662 22.7776 23.7066 22.2315L20.7166 21.9872ZM20.75 20.2C20.75 21.0777 20.7482 21.5999 20.7166 21.9872L23.7066 22.2315C23.7506 21.6935 23.75 21.0272 23.75 20.2H20.75ZM20.75 13.75L20.75 20.2H23.75L23.75 13.75H20.75ZM20.2 15.25H22.25L22.25 12.25L20.2 12.25L20.2 15.25ZM20.1696 15.25H20.2L20.2 12.25H20.1696L20.1696 15.25ZM18.7032 15.2153C19.142 15.2511 19.6573 15.25 20.1696 15.25L20.1695 12.25C19.6135 12.25 19.2372 12.2489 18.9475 12.2252L18.7032 15.2153ZM17.0705 14.7868C17.6543 15.0842 18.2301 15.1766 18.7032 15.2153L18.9475 12.2252C18.6607 12.2018 18.5233 12.16 18.4325 12.1137L17.0705 14.7868ZM15.2132 12.9295C15.6207 13.7291 16.2709 14.3793 17.0705 14.7868L18.4325 12.1137C18.1973 11.9939 18.0061 11.8027 17.8862 11.5675L15.2132 12.9295ZM14.7847 11.2968C14.8234 11.7698 14.9158 12.3457 15.2132 12.9295L17.8862 11.5675C17.84 11.4767 17.7982 11.3393 17.7748 11.0525L14.7847 11.2968ZM14.75 9.83039C14.75 10.3427 14.7489 10.858 14.7847 11.2968L17.7748 11.0525C17.7511 10.7628 17.75 10.3865 17.75 9.83045L14.75 9.83039ZM14.75 9.79999V9.83042H17.75V9.79999H14.75ZM14.75 7.74999V9.79999H17.75V7.74999H14.75ZM13.8 9.24999L16.25 9.24999V6.24999H13.8V9.24999ZM12.0128 9.28339C12.4001 9.25175 12.9223 9.24999 13.8 9.24999V6.24999C12.9728 6.24999 12.3065 6.2494 11.7685 6.29335L12.0128 9.28339ZM13.7502 16C13.7502 16.4142 13.4144 16.75 13.0002 16.75V13.75C11.7575 13.75 10.7502 14.7574 10.7502 16H13.7502ZM13.0002 15.25C13.4144 15.25 13.7502 15.5858 13.7502 16H10.7502C10.7502 17.2426 11.7575 18.25 13.0002 18.25L13.0002 15.25ZM19.0002 15.25L13.0002 15.25L13.0002 18.25H19.0002V15.25ZM18.2502 16C18.2502 15.5858 18.586 15.25 19.0002 15.25V18.25C20.2428 18.25 21.2502 17.2426 21.2502 16H18.2502ZM19.0002 16.75C18.586 16.75 18.2502 16.4142 18.2502 16H21.2502C21.2502 14.7574 20.2428 13.75 19.0002 13.75L19.0002 16.75ZM13.0002 16.75H19.0002L19.0002 13.75H13.0002V16.75ZM13.7502 20C13.7502 20.4142 13.4144 20.75 13.0002 20.75L13.0002 17.75C11.7575 17.75 10.7502 18.7574 10.7502 20H13.7502ZM13.0002 19.25C13.4144 19.25 13.7502 19.5858 13.7502 20H10.7502C10.7502 21.2426 11.7575 22.25 13.0002 22.25V19.25ZM17.0002 19.25H13.0002V22.25H17.0002V19.25ZM16.2502 20C16.2502 19.5858 16.586 19.25 17.0002 19.25V22.25C18.2428 22.25 19.2502 21.2426 19.2502 20H16.2502ZM17.0002 20.75C16.586 20.75 16.2502 20.4142 16.2502 20H19.2502C19.2502 18.7574 18.2428 17.75 17.0002 17.75V20.75ZM13.0002 20.75H17.0002V17.75H13.0002L13.0002 20.75Z" fill="white"/>
<path fill-rule="evenodd" clip-rule="evenodd" d="M17.75 9.79998V7.89187C17.832 7.93467 17.9094 7.98667 17.9807 8.04722C18.0141 8.07554 18.0489 8.10959 18.1768 8.23742L21.7626 11.8232C21.8904 11.951 21.9244 11.9859 21.9528 12.0193C22.0133 12.0905 22.0653 12.168 22.1081 12.25L20.2 12.25C19.6276 12.25 19.2434 12.2494 18.9475 12.2252C18.6604 12.2018 18.5231 12.1599 18.4325 12.1137C18.1973 11.9939 18.0061 11.8027 17.8862 11.5675C17.8401 11.4769 17.7982 11.3396 17.7748 11.0525C17.7506 10.7566 17.75 10.3724 17.75 9.79998ZM23.75 20.2V13L23.75 12.975V12.975V12.9749C23.75 12.8306 23.7501 12.7172 23.7409 12.605C23.6942 12.0314 23.4686 11.4869 23.0961 11.0483C23.0232 10.9625 22.943 10.8823 22.8409 10.7802L22.8232 10.7625L19.2374 7.17676L19.2198 7.15907C19.1177 7.05694 19.0375 6.97676 18.9517 6.90389C18.5131 6.53136 17.9686 6.30583 17.395 6.25907C17.2828 6.24993 17.1694 6.24995 17.025 6.24998L17 6.24998H13.8H13.7679C12.9551 6.24998 12.2994 6.24997 11.7685 6.29335C11.2219 6.33801 10.7418 6.43237 10.2975 6.65871C9.59193 7.01824 9.01825 7.59191 8.65873 8.29752C8.43238 8.74174 8.33803 9.22188 8.29336 9.76852C8.24999 10.2994 8.24999 10.955 8.25 11.7679V11.8L8.25 20.2V20.2321C8.24999 21.0449 8.24999 21.7005 8.29336 22.2315C8.33803 22.7781 8.43238 23.2582 8.65873 23.7024C9.01825 24.4081 9.59193 24.9817 10.2975 25.3413C10.7418 25.5676 11.2219 25.662 11.7685 25.7066C12.2994 25.75 12.955 25.75 13.7679 25.75H13.8H18.2H18.2321C19.045 25.75 19.7006 25.75 20.2315 25.7066C20.7781 25.662 21.2582 25.5676 21.7025 25.3413C22.4081 24.9817 22.9817 24.4081 23.3413 23.7024C23.5676 23.2582 23.662 22.7781 23.7066 22.2315C23.75 21.7005 23.75 21.0449 23.75 20.2321V20.2ZM11.8907 7.78837C11.4368 7.82545 11.176 7.89458 10.9785 7.99522C10.5552 8.21094 10.211 8.55514 9.99524 8.97851C9.8946 9.17602 9.82546 9.43679 9.78838 9.89066C9.75058 10.3533 9.75 10.9475 9.75 11.8L9.75 20.2C9.75 21.0524 9.75058 21.6467 9.78838 22.1093C9.82546 22.5632 9.8946 22.8239 9.99524 23.0215C10.211 23.4448 10.5552 23.789 10.9785 24.0047C11.176 24.1054 11.4368 24.1745 11.8907 24.2116C12.3533 24.2494 12.9475 24.25 13.8 24.25H18.2C19.0525 24.25 19.6467 24.2494 20.1093 24.2116C20.5632 24.1745 20.824 24.1054 21.0215 24.0047C21.4448 23.789 21.789 23.4448 22.0048 23.0215C22.1054 22.8239 22.1745 22.5632 22.2116 22.1093C22.2494 21.6467 22.25 21.0524 22.25 20.2V13.75L20.2 13.75H20.1696C19.6354 13.75 19.1896 13.75 18.8253 13.7202C18.4454 13.6892 18.0888 13.6221 17.7515 13.4503C17.2341 13.1866 16.8134 12.7659 16.5497 12.2485C16.3779 11.9112 16.3108 11.5545 16.2797 11.1747C16.25 10.8104 16.25 10.3646 16.25 9.83041V9.79998V7.74998H13.8C12.9475 7.74998 12.3533 7.75057 11.8907 7.78837ZM13.0002 15.25C12.586 15.25 12.2502 15.5858 12.2502 16C12.2502 16.4142 12.586 16.75 13.0002 16.75H19.0002C19.4144 16.75 19.7502 16.4142 19.7502 16C19.7502 15.5858 19.4144 15.25 19.0002 15.25L13.0002 15.25ZM13.0002 19.25C12.586 19.25 12.2502 19.5858 12.2502 20C12.2502 20.4142 12.586 20.75 13.0002 20.75H17.0002C17.4144 20.75 17.7502 20.4142 17.7502 20C17.7502 19.5858 17.4144 19.25 17.0002 19.25H13.0002Z" fill="#151E28"/>
</svg>
