<svg viewBox="0 0 32 32" fill="none" xmlns="http://www.w3.org/2000/svg">
<path d="M17 7H13.8C12.1198 7 11.2798 7 10.638 7.32698C10.0735 7.6146 9.6146 8.07354 9.32698 8.63803C9 9.27976 9 10.1198 9 11.8L9 17H23V13L20.2 13C19.0799 13 18.5198 13 18.092 12.782C17.7157 12.5903 17.4097 12.2843 17.218 11.908C17 11.4802 17 10.9201 17 9.8V7Z" fill="white"/>
<path d="M17.75 7.89187L18.4441 6.56213C17.9791 6.31941 17.4211 6.33722 16.9726 6.60907C16.524 6.88093 16.25 7.36735 16.25 7.89187H17.75ZM17.7748 11.0525L16.2797 11.1747L16.2797 11.1747L17.7748 11.0525ZM17.8862 11.5675L19.2228 10.8865L19.2227 10.8865L17.8862 11.5675ZM18.4325 12.1137L19.1135 10.7772L19.1135 10.7772L18.4325 12.1137ZM18.9475 12.2252L18.8253 13.7203L18.8253 13.7203L18.9475 12.2252ZM22.1081 12.25V13.75C22.6326 13.75 23.1191 13.476 23.3909 13.0274C23.6628 12.5789 23.6806 12.0209 23.4379 11.5559L22.1081 12.25ZM21.9528 12.0193L20.8094 12.9902L20.8094 12.9902L21.9528 12.0193ZM21.7626 11.8232L22.8232 10.7626L22.8232 10.7626L21.7626 11.8232ZM18.1768 8.23743L19.2374 7.17677L19.2374 7.17677L18.1768 8.23743ZM17.9807 8.04722L18.9517 6.9039L18.9517 6.9039L17.9807 8.04722ZM23.75 13L22.25 12.9998V13H23.75ZM23.75 16.25H22.25C22.25 17.0784 22.9216 17.75 23.75 17.75V16.25ZM8.25 16.25V17.75C9.07843 17.75 9.75 17.0784 9.75 16.25H8.25ZM8.25 11.8L9.75 11.8L9.75 11.8L8.25 11.8ZM8.25 11.7679L9.75 11.7679L9.75 11.7679L8.25 11.7679ZM8.29336 9.76852L6.79834 9.64638L6.79834 9.64638L8.29336 9.76852ZM8.65873 8.29753L7.32222 7.61654L7.32222 7.61654L8.65873 8.29753ZM10.2975 6.65872L9.61655 5.32221L9.61655 5.32221L10.2975 6.65872ZM11.7685 6.29335L11.6464 4.79834L11.6464 4.79834L11.7685 6.29335ZM13.7678 6.24999L13.7678 4.74999L13.7678 6.24999ZM13.7679 6.24999L13.7679 7.74999L13.7679 7.74999L13.7679 6.24999ZM13.8 6.24999L13.8 7.74999H13.8V6.24999ZM17 6.24999L17 7.74999L17.0002 7.74999L17 6.24999ZM17.025 6.24999L17.0252 7.74999L17.0253 7.74999L17.025 6.24999ZM17.395 6.25908L17.2731 7.75412L17.2731 7.75412L17.395 6.25908ZM18.9517 6.9039L17.9807 8.04722L17.9807 8.04722L18.9517 6.9039ZM19.2198 7.15908L18.1589 8.21953L18.159 8.21962L19.2198 7.15908ZM19.2374 7.17677L18.1767 8.23731L18.1768 8.23743L19.2374 7.17677ZM22.8232 10.7626L21.7626 11.8232L21.7627 11.8234L22.8232 10.7626ZM22.8409 10.7802L21.7804 11.8411L21.7805 11.8411L22.8409 10.7802ZM23.0961 11.0483L24.2394 10.0773L24.2394 10.0773L23.0961 11.0483ZM23.7409 12.605L22.2459 12.7269L22.2459 12.7269L23.7409 12.605ZM23.75 12.975L22.25 12.9747V12.975H23.75ZM23.75 12.975L25.25 12.9752V12.975H23.75ZM9.75 16.25H8.25C8.25 17.0784 8.92157 17.75 9.75 17.75L9.75 16.25ZM22.25 16.25V17.75C23.0784 17.75 23.75 17.0784 23.75 16.25H22.25ZM9.78838 9.89067L8.29336 9.76852L8.29336 9.76852L9.78838 9.89067ZM9.99524 8.97851L11.3317 9.6595L11.3317 9.6595L9.99524 8.97851ZM10.9785 7.99523L11.6595 9.33174L11.6595 9.33174L10.9785 7.99523ZM11.8907 7.78837L11.7685 6.29335L11.7685 6.29335L11.8907 7.78837ZM16.25 7.74999H17.75C17.75 6.92156 17.0784 6.24999 16.25 6.24999V7.74999ZM16.25 9.83042L17.75 9.83045V9.83042H16.25ZM16.2797 11.1747L14.7847 11.2968L14.7847 11.2968L16.2797 11.1747ZM16.5497 12.2485L17.8862 11.5675L17.8862 11.5675L16.5497 12.2485ZM17.7515 13.4503L17.0705 14.7868L17.0705 14.7868L17.7515 13.4503ZM18.8253 13.7203L18.9475 12.2252L18.9475 12.2252L18.8253 13.7203ZM20.1696 13.75L20.1696 12.25L20.1695 12.25L20.1696 13.75ZM22.25 13.75H23.75C23.75 12.9216 23.0784 12.25 22.25 12.25V13.75ZM10.25 21.9999L11.75 22V21.9999H10.25ZM7.99997 24.25L8.00003 25.75L7.99997 24.25ZM7.25 25L8.75 25L7.25 25ZM8.00003 25.75L8.00008 27.25L8.00003 25.75ZM11.75 21.9999L13.25 22V21.9999H11.75ZM16.25 7.89187V9.79999H19.25V7.89187H16.25ZM16.25 9.79999C16.25 10.3469 16.2494 10.8034 16.2797 11.1747L19.2698 10.9304C19.2518 10.7099 19.25 10.3979 19.25 9.79999H16.25ZM16.2797 11.1747C16.3107 11.5537 16.3776 11.9107 16.5497 12.2485L19.2227 10.8865C19.24 10.9204 19.254 10.9533 19.2647 10.9832C19.2751 11.0121 19.2803 11.0323 19.2822 11.0404C19.284 11.048 19.2827 11.0442 19.28 11.0256C19.2773 11.0069 19.2735 10.9762 19.2698 10.9304L16.2797 11.1747ZM16.5497 12.2485C16.8134 12.7659 17.2341 13.1866 17.7515 13.4503L19.1135 10.7772C19.1605 10.8012 19.1988 10.8395 19.2228 10.8865L16.5497 12.2485ZM17.7515 13.4503C18.0893 13.6223 18.4463 13.6893 18.8253 13.7203L19.0696 10.7302C19.0238 10.7265 18.9931 10.7227 18.9744 10.72C18.9558 10.7173 18.952 10.716 18.9596 10.7178C18.9677 10.7197 18.9879 10.7249 19.0168 10.7352C19.0467 10.746 19.0796 10.76 19.1135 10.7772L17.7515 13.4503ZM18.8253 13.7203C19.1966 13.7506 19.6531 13.75 20.2 13.75V10.75C19.6021 10.75 19.2901 10.7482 19.0696 10.7302L18.8253 13.7203ZM20.2 13.75H22.1081V10.75H20.2V13.75ZM23.4379 11.5559C23.3437 11.3755 23.2293 11.2051 23.0961 11.0483L20.8094 12.9902C20.7974 12.976 20.7869 12.9605 20.7784 12.9441L23.4379 11.5559ZM23.0961 11.0483C23.0185 10.9569 22.9312 10.8705 22.8232 10.7626L20.7019 12.8839C20.7673 12.9493 20.7999 12.9821 20.8189 13.0017C20.8346 13.0178 20.825 13.0086 20.8094 12.9902L23.0961 11.0483ZM22.8232 10.7626L19.2374 7.17677L17.1161 9.29809L20.7019 12.8839L22.8232 10.7626ZM19.2374 7.17677C19.1295 7.06881 19.0431 6.98149 18.9517 6.9039L17.0097 9.19054C16.9914 9.17495 16.9822 9.16542 16.9983 9.18107C17.0179 9.20013 17.0507 9.2327 17.1161 9.29809L19.2374 7.17677ZM18.9517 6.9039C18.7949 6.77071 18.6245 6.65629 18.4441 6.56213L17.0559 9.22162C17.0395 9.21305 17.024 9.20264 17.0097 9.19055L18.9517 6.9039ZM22.25 13V16.25H25.25V13H22.25ZM23.75 17.75H25V14.75H23.75V17.75ZM25 17.75C24.5858 17.75 24.25 17.4142 24.25 17H27.25C27.25 15.7574 26.2426 14.75 25 14.75V17.75ZM24.25 17C24.25 16.5858 24.5858 16.25 25 16.25V19.25C26.2426 19.25 27.25 18.2426 27.25 17H24.25ZM25 16.25H23V19.25H25V16.25ZM23 16.25H9V19.25H23V16.25ZM9 16.25H7L7 19.25H9V16.25ZM7 16.25C7.41421 16.25 7.75 16.5858 7.75 17H4.75C4.75 18.2426 5.75736 19.25 7 19.25L7 16.25ZM7.75 17C7.75 17.4142 7.41421 17.75 7 17.75L7 14.75C5.75736 14.75 4.75 15.7574 4.75 17H7.75ZM7 17.75H8.25L8.25 14.75H7L7 17.75ZM9.75 16.25L9.75 11.8H6.75V16.25H9.75ZM9.75 11.8L9.75 11.7679L6.75 11.7679L6.75 11.8L9.75 11.8ZM9.75 11.7679C9.74999 10.9323 9.75111 10.3468 9.78838 9.89067L6.79834 9.64638C6.74886 10.2521 6.74999 10.9778 6.75 11.7679L9.75 11.7679ZM9.78838 9.89067C9.82544 9.43708 9.89451 9.17619 9.99524 8.97851L7.32222 7.61654C6.97026 8.3073 6.85061 9.00669 6.79834 9.64638L9.78838 9.89067ZM9.99524 8.97851C10.211 8.55515 10.5552 8.21094 10.9785 7.99523L9.61655 5.32221C8.6287 5.82554 7.82555 6.62869 7.32222 7.61654L9.99524 8.97851ZM10.9785 7.99523C11.1762 7.89451 11.4371 7.82543 11.8907 7.78837L11.6464 4.79834C11.0067 4.8506 10.3073 4.97025 9.61655 5.32221L10.9785 7.99523ZM11.8907 7.78837C12.3468 7.75111 12.9322 7.74998 13.7678 7.74999L13.7678 4.74999C12.9778 4.74998 12.252 4.74885 11.6464 4.79834L11.8907 7.78837ZM13.7678 7.74999L13.7679 7.74999L13.7679 4.74999L13.7678 4.74999L13.7678 7.74999ZM13.7679 7.74999L13.8 7.74999L13.8 4.74999L13.7679 4.74999L13.7679 7.74999ZM13.8 7.74999H17V4.74999H13.8V7.74999ZM17.0002 7.74999L17.0252 7.74999L17.0248 4.74999L16.9998 4.74999L17.0002 7.74999ZM17.0253 7.74999C17.1842 7.74996 17.2334 7.75089 17.2731 7.75412L17.5168 4.76404C17.3321 4.74898 17.1546 4.74996 17.0247 4.74999L17.0253 7.74999ZM17.2731 7.75412C17.5339 7.77538 17.7813 7.87789 17.9807 8.04722L19.9227 5.76058C19.2448 5.18484 18.4033 4.8363 17.5168 4.76404L17.2731 7.75412ZM17.9807 8.04722C18.0111 8.073 18.0465 8.10712 18.1589 8.21953L20.2806 6.09863C20.1888 6.00678 20.0639 5.88053 19.9227 5.76057L17.9807 8.04722ZM18.159 8.21962L18.1767 8.23731L20.2982 6.11623L20.2805 6.09854L18.159 8.21962ZM18.1768 8.23743L21.7626 11.8232L23.8839 9.70189L20.2981 6.11611L18.1768 8.23743ZM21.7627 11.8234L21.7804 11.8411L23.9014 9.71942L23.8837 9.70174L21.7627 11.8234ZM21.7805 11.8411C21.8929 11.9535 21.927 11.9889 21.9528 12.0193L24.2394 10.0773C24.1195 9.93605 23.9932 9.81119 23.9014 9.71936L21.7805 11.8411ZM21.9528 12.0193C22.1221 12.2187 22.2246 12.4661 22.2459 12.7269L25.236 12.4831C25.1637 11.5967 24.8151 10.7552 24.2394 10.0773L21.9528 12.0193ZM22.2459 12.7269C22.2491 12.7666 22.25 12.8157 22.25 12.9747L25.25 12.9753C25.25 12.8454 25.251 12.6678 25.236 12.4831L22.2459 12.7269ZM22.25 12.975V12.975H25.25V12.975H22.25ZM22.25 12.9748L22.25 12.9998L25.25 13.0002L25.25 12.9752L22.25 12.9748ZM9.75 17.75H22.25V14.75L9.75 14.75L9.75 17.75ZM8.25 11.8L8.25 16.25H11.25V11.8L8.25 11.8ZM8.29336 9.76852C8.24941 10.3065 8.25 10.9728 8.25 11.8L11.25 11.8C11.25 10.9223 11.2518 10.4001 11.2834 10.0128L8.29336 9.76852ZM8.65873 8.29753C8.43225 8.74201 8.33799 9.22236 8.29336 9.76852L11.2834 10.0128C11.3129 9.65123 11.3569 9.61005 11.3317 9.6595L8.65873 8.29753ZM10.2975 6.65872C9.59193 7.01824 9.01825 7.59192 8.65873 8.29753L11.3317 9.6595C11.4037 9.51838 11.5184 9.40364 11.6595 9.33174L10.2975 6.65872ZM11.7685 6.29335C11.2224 6.33798 10.742 6.43224 10.2975 6.65872L11.6595 9.33174C11.6101 9.35693 11.6512 9.31293 12.0128 9.28339L11.7685 6.29335ZM13.8 6.24999C12.9728 6.24999 12.3065 6.2494 11.7685 6.29335L12.0128 9.28339C12.4001 9.25175 12.9223 9.24999 13.8 9.24999V6.24999ZM16.25 6.24999H13.8V9.24999H16.25V6.24999ZM17.75 9.79999V7.74999H14.75V9.79999H17.75ZM17.75 9.83042V9.79999H14.75V9.83042H17.75ZM17.7748 11.0525C17.7511 10.7628 17.75 10.3865 17.75 9.83045L14.75 9.83039C14.75 10.3427 14.7489 10.858 14.7847 11.2968L17.7748 11.0525ZM17.8862 11.5675C17.84 11.4767 17.7982 11.3393 17.7748 11.0525L14.7847 11.2968C14.8234 11.7698 14.9158 12.3457 15.2132 12.9295L17.8862 11.5675ZM18.4325 12.1137C18.1973 11.9939 18.0061 11.8027 17.8862 11.5675L15.2132 12.9295C15.6207 13.7291 16.2709 14.3793 17.0705 14.7868L18.4325 12.1137ZM18.9475 12.2252C18.6607 12.2018 18.5233 12.16 18.4325 12.1137L17.0705 14.7868C17.6543 15.0842 18.2301 15.1766 18.7032 15.2153L18.9475 12.2252ZM20.1695 12.25C19.6135 12.25 19.2372 12.2489 18.9475 12.2252L18.7032 15.2153C19.142 15.2511 19.6573 15.25 20.1696 15.25L20.1695 12.25ZM20.2 12.25H20.1696V15.25H20.2V12.25ZM22.25 12.25H20.2V15.25H22.25V12.25ZM23.75 16.25V13.75H20.75V16.25H23.75ZM11 20.7499C10.5858 20.7499 10.25 20.4141 10.25 19.9999H13.25C13.25 18.7573 12.2426 17.7499 11 17.7499L11 20.7499ZM11.75 19.9999C11.75 20.4141 11.4142 20.7499 11 20.7499L11 17.7499C9.75736 17.7499 8.75 18.7573 8.75 19.9999H11.75ZM11.75 21.9999V19.9999H8.75V21.9999H11.75ZM11.75 21.9999V21.9999H8.75V21.9999H11.75ZM8.00003 25.75C10.071 25.7499 11.75 24.0709 11.75 22L8.75 21.9999C8.74999 22.4141 8.41412 22.75 7.99992 22.75L8.00003 25.75ZM8.75 25C8.75002 25.4142 8.41424 25.75 8.00003 25.75L7.99992 22.75C6.75728 22.75 5.74995 23.7574 5.75 25.0001L8.75 25ZM7.99997 24.25C8.41419 24.25 8.74998 24.5857 8.75 25L5.75 25.0001C5.75005 26.2427 6.75744 27.25 8.00008 27.25L7.99997 24.25ZM10.25 21.9999C10.25 23.2425 9.24257 24.2499 7.99997 24.25L8.00008 27.25C10.8995 27.2499 13.25 24.8993 13.25 22L10.25 21.9999ZM10.25 21.9999V21.9999H13.25V21.9999H10.25ZM10.25 19.9999V21.9999H13.25V19.9999H10.25ZM16 20.7499C15.5858 20.7499 15.25 20.4141 15.25 19.9999H18.25C18.25 18.7573 17.2426 17.7499 16 17.7499V20.7499ZM16.75 19.9999C16.75 20.4141 16.4142 20.7499 16 20.7499V17.7499C14.7574 17.7499 13.75 18.7573 13.75 19.9999H16.75ZM16.75 24.9999V19.9999H13.75V24.9999H16.75ZM16 24.2499C16.4142 24.2499 16.75 24.5857 16.75 24.9999H13.75C13.75 26.2426 14.7574 27.2499 16 27.2499V24.2499ZM15.25 24.9999C15.25 24.5857 15.5858 24.2499 16 24.2499V27.2499C17.2426 27.2499 18.25 26.2426 18.25 24.9999H15.25ZM15.25 19.9999V24.9999H18.25V19.9999H15.25ZM23.25 19.9999C23.25 18.7573 22.2426 17.7499 21 17.7499V20.7499C20.5858 20.7499 20.25 20.4141 20.25 19.9999H23.25ZM23.25 21.9999V19.9999H20.25V21.9999H23.25ZM24 22.7499C23.5858 22.7499 23.25 22.4141 23.25 21.9999H20.25C20.25 24.071 21.9289 25.7499 24 25.7499V22.7499ZM26.25 24.9999C26.25 23.7573 25.2426 22.7499 24 22.7499V25.7499C23.5858 25.7499 23.25 25.4141 23.25 24.9999H26.25ZM24 27.2499C25.2426 27.2499 26.25 26.2426 26.25 24.9999H23.25C23.25 24.5857 23.5858 24.2499 24 24.2499V27.2499ZM18.75 21.9999C18.75 24.8994 21.1005 27.2499 24 27.2499V24.2499C22.7574 24.2499 21.75 23.2426 21.75 21.9999H18.75ZM18.75 19.9999V21.9999H21.75V19.9999H18.75ZM21 17.7499C19.7574 17.7499 18.75 18.7573 18.75 19.9999H21.75C21.75 20.4141 21.4142 20.7499 21 20.7499V17.7499Z" fill="white"/>
<path fill-rule="evenodd" clip-rule="evenodd" d="M17.75 7.89187V9.79999C17.75 10.3724 17.7506 10.7566 17.7748 11.0525C17.7982 11.3396 17.8401 11.4769 17.8862 11.5675C18.0061 11.8027 18.1973 11.9939 18.4325 12.1137C18.5231 12.1599 18.6604 12.2018 18.9475 12.2252C19.2434 12.2494 19.6276 12.25 20.2 12.25H22.1081C22.0653 12.168 22.0133 12.0906 21.9528 12.0193C21.9244 11.9859 21.8904 11.951 21.7626 11.8232L18.1768 8.23743C18.0489 8.1096 18.0141 8.07555 17.9807 8.04722C17.9094 7.98668 17.832 7.93467 17.75 7.89187ZM23.75 13V16.25H25C25.4142 16.25 25.75 16.5858 25.75 17C25.75 17.4142 25.4142 17.75 25 17.75H23H9H7C6.58579 17.75 6.25 17.4142 6.25 17C6.25 16.5858 6.58579 16.25 7 16.25H8.25L8.25 11.8L8.25 11.7679C8.24999 10.955 8.24999 10.2994 8.29336 9.76852C8.33803 9.22189 8.43238 8.74175 8.65873 8.29753C9.01825 7.59192 9.59193 7.01824 10.2975 6.65872C10.7418 6.43238 11.2219 6.33802 11.7685 6.29335C12.2994 6.24998 12.955 6.24998 13.7678 6.24999L13.7679 6.24999L13.8 6.24999H17L17.025 6.24999C17.1694 6.24996 17.2828 6.24994 17.395 6.25908C17.9686 6.30584 18.5131 6.53136 18.9517 6.9039C19.0375 6.97677 19.1177 7.05695 19.2198 7.15908L19.2374 7.17677L22.8232 10.7626L22.8409 10.7802C22.943 10.8823 23.0232 10.9625 23.0961 11.0483C23.4686 11.4869 23.6942 12.0314 23.7409 12.605C23.7501 12.7172 23.75 12.8306 23.75 12.975V12.975L23.75 13ZM22.25 16.25H9.75L9.75 11.8C9.75 10.9475 9.75058 10.3533 9.78838 9.89067C9.82546 9.4368 9.8946 9.17603 9.99524 8.97851C10.211 8.55515 10.5552 8.21094 10.9785 7.99523C11.176 7.89459 11.4368 7.82546 11.8907 7.78837C12.3533 7.75057 12.9475 7.74999 13.8 7.74999H16.25V9.79999V9.83042C16.25 10.3646 16.25 10.8104 16.2797 11.1747C16.3108 11.5545 16.3779 11.9112 16.5497 12.2485C16.8134 12.7659 17.2341 13.1866 17.7515 13.4503C18.0888 13.6221 18.4454 13.6892 18.8253 13.7203C19.1896 13.75 19.6354 13.75 20.1696 13.75H20.2H22.25V16.25ZM11.75 19.9999C11.75 19.5857 11.4142 19.2499 11 19.2499C10.5858 19.2499 10.25 19.5857 10.25 19.9999V21.9999V21.9999C10.25 23.2425 9.24256 24.2499 7.99997 24.25C7.58576 24.25 7.24998 24.5858 7.25 25C7.25002 25.4142 7.58581 25.75 8.00003 25.75C10.071 25.7499 11.75 24.0709 11.75 21.9999V21.9999V19.9999ZM16.75 19.9999C16.75 19.5857 16.4142 19.2499 16 19.2499C15.5858 19.2499 15.25 19.5857 15.25 19.9999V24.9999C15.25 25.4141 15.5858 25.7499 16 25.7499C16.4142 25.7499 16.75 25.4141 16.75 24.9999V19.9999ZM21 19.2499C21.4142 19.2499 21.75 19.5857 21.75 19.9999V21.9999C21.75 23.2426 22.7574 24.2499 24 24.2499C24.4142 24.2499 24.75 24.5857 24.75 24.9999C24.75 25.4141 24.4142 25.7499 24 25.7499C21.9289 25.7499 20.25 24.071 20.25 21.9999V19.9999C20.25 19.5857 20.5858 19.2499 21 19.2499Z" fill="#151E28"/>
</svg>
