<svg viewBox="0 0 32 32" fill="none" xmlns="http://www.w3.org/2000/svg">
<path d="M21.2 24H10.8C9.11984 24 8.27976 24 7.63803 23.673C7.07354 23.3854 6.6146 22.9265 6.32698 22.362C6 21.7202 6 20.8802 6 19.2L6 11.8C6 10.1198 6 9.27976 6.32698 8.63803C6.6146 8.07354 7.07354 7.6146 7.63803 7.32698C8.27976 7 9.11984 7 10.8 7H12.0118C12.7455 7 13.1124 7 13.4577 7.08289C13.7638 7.15638 14.0564 7.27759 14.3249 7.44208C14.6276 7.6276 14.887 7.88703 15.4059 8.40589L15.5941 8.59411C16.113 9.11297 16.3724 9.3724 16.6751 9.55792C16.9436 9.72241 17.2362 9.84362 17.5423 9.91711C17.8876 10 18.2545 10 18.9882 10H21.2C22.8802 10 23.7202 10 24.362 10.327C24.9265 10.6146 25.3854 11.0735 25.673 11.638C26 12.2798 26 13.1198 26 14.8V19.2C26 20.8802 26 21.7202 25.673 22.362C25.3854 22.9265 24.9265 23.3854 24.362 23.673C23.7202 24 22.8802 24 21.2 24Z" fill="white"/>
<path d="M13.2826 7.8122L12.9324 9.27075L12.9324 9.27075L13.2826 7.8122ZM8.89068 7.78841L9.01283 9.28343L8.89068 7.78841ZM7.97852 7.99527L7.29754 6.65876L7.29754 6.65876L7.97852 7.99527ZM6.99524 8.97855L5.65873 8.29757L5.65873 8.29757L6.99524 8.97855ZM6.78838 9.89071L8.2834 10.0129L6.78838 9.89071ZM6.78838 21.1094L8.2834 20.9872L6.78838 21.1094ZM6.99524 22.0215L8.33175 21.3405L8.33175 21.3405L6.99524 22.0215ZM7.97852 23.0048L7.29754 24.3413L7.29754 24.3413L7.97852 23.0048ZM8.89068 23.2117L8.76853 24.7067L8.76853 24.7067L8.89068 23.2117ZM23.1093 23.2117L23.2315 24.7067L23.2315 24.7067L23.1093 23.2117ZM24.0215 23.0048L24.7025 24.3413L24.7025 24.3413L24.0215 23.0048ZM25.0048 22.0215L26.3413 22.7025L26.3413 22.7025L25.0048 22.0215ZM25.2116 21.1094L26.7066 21.2315L26.7066 21.2315L25.2116 21.1094ZM25.2116 12.8907L26.7066 12.7686L26.7066 12.7686L25.2116 12.8907ZM25.0048 11.9786L26.3413 11.2976L26.3413 11.2976L25.0048 11.9786ZM24.0215 10.9953L24.7025 9.65876L24.7025 9.65876L24.0215 10.9953ZM23.1093 10.7884L22.9872 12.2834L22.9872 12.2834L23.1093 10.7884ZM18.9028 10.75L18.9023 9.25005L18.9023 9.25005L18.9028 10.75ZM17.3672 10.6464L17.7174 9.18786L17.7174 9.18786L17.3672 10.6464ZM16.2833 10.1974L15.4995 11.4764L15.4995 11.4764L16.2833 10.1974ZM15.1242 9.18492L16.1852 8.12456L16.1852 8.12456L15.1242 9.18492ZM15.0638 9.12447L16.1245 8.06383L16.1244 8.06381L15.0638 9.12447ZM14.8756 8.93625L13.8149 9.99691L13.8149 9.99691L14.8756 8.93625ZM13.933 8.08159L13.1492 9.36055L13.1492 9.36055L13.933 8.08159ZM13.6328 6.35364L13.9829 4.89509L13.9829 4.89509L13.6328 6.35364ZM12.0972 6.25002L12.0968 4.75002L12.0968 4.75002L12.0972 6.25002ZM14.7167 6.80263L15.5005 5.52367L15.5005 5.52367L14.7167 6.80263ZM15.8758 7.81515L16.9368 6.75481L16.9368 6.7548L15.8758 7.81515ZM15.9362 7.87559L16.9969 6.81493L16.9969 6.81493L15.9362 7.87559ZM16.1244 8.06381L17.1851 7.00316L17.1851 7.00315L16.1244 8.06381ZM17.067 8.91847L16.2833 10.1974L16.2833 10.1974L17.067 8.91847ZM17.7174 9.18786L17.3672 10.6464L17.3672 10.6464L17.7174 9.18786ZM21.2321 9.25003L21.2321 10.75L21.2321 10.75L21.2321 9.25003ZM23.2315 9.2934L23.3536 7.79838L23.3536 7.79838L23.2315 9.2934ZM24.7025 9.65876L25.3835 8.32225L25.3834 8.32225L24.7025 9.65876ZM26.3413 11.2976L25.0048 11.9786L25.0048 11.9786L26.3413 11.2976ZM26.7066 12.7686L28.2017 12.6464L28.2017 12.6464L26.7066 12.7686ZM26.75 14.7679L25.25 14.7679V14.7679H26.75ZM26.75 19.2322L25.25 19.2322L25.25 19.2322L26.75 19.2322ZM26.7066 21.2315L28.2017 21.3536L28.2017 21.3536L26.7066 21.2315ZM26.3413 22.7025L25.0048 22.0215L25.0048 22.0215L26.3413 22.7025ZM24.7025 24.3413L25.3835 25.6778L25.3835 25.6778L24.7025 24.3413ZM23.2315 24.7067L23.3536 26.2017L23.3536 26.2017L23.2315 24.7067ZM21.2321 24.75L21.2321 23.25H21.2321V24.75ZM10.7679 24.75L10.7679 23.25L10.7679 23.25L10.7679 24.75ZM8.76853 24.7067L8.64638 26.2017L8.64638 26.2017L8.76853 24.7067ZM7.29754 24.3413L7.97852 23.0048L7.97852 23.0048L7.29754 24.3413ZM5.65873 22.7025L4.32222 23.3835L4.32222 23.3835L5.65873 22.7025ZM5.29336 21.2315L3.79835 21.3536L5.29336 21.2315ZM5.25 19.2321L6.75 19.2322L6.75 19.2321L5.25 19.2321ZM5.25 19.2L6.75 19.2V19.2H5.25ZM5.25 11.8L6.75 11.8L6.75 11.8L5.25 11.8ZM5.25 11.7679L6.75 11.7679L6.75 11.7679L5.25 11.7679ZM5.29336 9.76856L6.78838 9.89071L6.78838 9.89071L5.29336 9.76856ZM5.65873 8.29757L4.32222 7.61658L5.65873 8.29757ZM7.29754 6.65876L6.61655 5.32225L7.29754 6.65876ZM8.76853 6.2934L8.89068 7.78841L8.89068 7.78841L8.76853 6.2934ZM10.7679 6.25003L10.7679 7.75003L10.7679 7.75003L10.7679 6.25003ZM10.8 6.25003L10.8 7.75003H10.8V6.25003ZM12.0118 9.25003C12.4052 9.25003 12.6282 9.25152 12.7807 9.25818C12.8518 9.26129 12.8905 9.2649 12.9109 9.26738C12.9277 9.26942 12.9321 9.27067 12.9324 9.27075L13.6328 6.35364C13.1796 6.24485 12.7032 6.25003 12.0118 6.25003V9.25003ZM10.8 9.25003H12.0118V6.25003H10.8V9.25003ZM9.01283 9.28343C9.40009 9.25179 9.9223 9.25003 10.8 9.25003V6.25003C9.97279 6.25003 9.30653 6.24944 8.76853 6.2934L9.01283 9.28343ZM8.65951 9.33178C8.61006 9.35697 8.65124 9.31298 9.01283 9.28343L8.76853 6.2934C8.22237 6.33802 7.74202 6.43228 7.29754 6.65876L8.65951 9.33178ZM8.33175 9.65954C8.40365 9.51842 8.51839 9.40368 8.65951 9.33178L7.29754 6.65876C6.59193 7.01828 6.01825 7.59196 5.65873 8.29757L8.33175 9.65954ZM8.2834 10.0129C8.31294 9.65127 8.35694 9.61009 8.33175 9.65954L5.65873 8.29757C5.43225 8.74205 5.33799 9.2224 5.29336 9.76856L8.2834 10.0129ZM8.25 11.8C8.25 10.9223 8.25176 10.4001 8.2834 10.0129L5.29336 9.76856C5.24941 10.3066 5.25 10.9728 5.25 11.8H8.25ZM8.25 19.2L8.25 11.8H5.25L5.25 19.2H8.25ZM8.2834 20.9872C8.25176 20.5999 8.25 20.0777 8.25 19.2H5.25C5.25 20.0272 5.24941 20.6935 5.29336 21.2315L8.2834 20.9872ZM8.33175 21.3405C8.35694 21.39 8.31294 21.3488 8.2834 20.9872L5.29336 21.2315C5.33799 21.7777 5.43225 22.258 5.65873 22.7025L8.33175 21.3405ZM8.65951 21.6683C8.51839 21.5964 8.40365 21.4816 8.33175 21.3405L5.65873 22.7025C6.01825 23.4081 6.59193 23.9818 7.29754 24.3413L8.65951 21.6683ZM9.01283 21.7166C8.65124 21.6871 8.61006 21.6431 8.65951 21.6683L7.29754 24.3413C7.74202 24.5678 8.22237 24.662 8.76853 24.7067L9.01283 21.7166ZM10.8 21.75C9.9223 21.75 9.40009 21.7483 9.01283 21.7166L8.76853 24.7067C9.30653 24.7506 9.97279 24.75 10.8 24.75V21.75ZM21.2 21.75L10.8 21.75V24.75H21.2V21.75ZM22.9872 21.7166C22.5999 21.7483 22.0777 21.75 21.2 21.75V24.75C22.0272 24.75 22.6935 24.7506 23.2315 24.7067L22.9872 21.7166ZM23.3405 21.6683C23.3899 21.6431 23.3488 21.6871 22.9872 21.7166L23.2315 24.7067C23.7776 24.662 24.258 24.5678 24.7025 24.3413L23.3405 21.6683ZM23.6683 21.3405C23.5964 21.4816 23.4816 21.5964 23.3405 21.6683L24.7025 24.3413C25.4081 23.9818 25.9817 23.4081 26.3413 22.7025L23.6683 21.3405ZM23.7166 20.9872C23.6871 21.3488 23.6431 21.39 23.6683 21.3405L26.3413 22.7025C26.5677 22.258 26.662 21.7777 26.7066 21.2315L23.7166 20.9872ZM23.75 19.2C23.75 20.0777 23.7482 20.5999 23.7166 20.9872L26.7066 21.2315C26.7506 20.6935 26.75 20.0272 26.75 19.2H23.75ZM23.75 14.8V19.2H26.75V14.8H23.75ZM23.7166 13.0129C23.7482 13.4001 23.75 13.9223 23.75 14.8H26.75C26.75 13.9728 26.7506 13.3066 26.7066 12.7686L23.7166 13.0129ZM23.6683 12.6595C23.6431 12.6101 23.6871 12.6513 23.7166 13.0129L26.7066 12.7686C26.662 12.2224 26.5677 11.7421 26.3413 11.2976L23.6683 12.6595ZM23.3405 12.3318C23.4816 12.4037 23.5963 12.5184 23.6683 12.6595L26.3413 11.2976C25.9817 10.592 25.4081 10.0183 24.7025 9.65876L23.3405 12.3318ZM22.9872 12.2834C23.3488 12.313 23.3899 12.357 23.3405 12.3318L24.7025 9.65876C24.258 9.43228 23.7776 9.33802 23.2315 9.2934L22.9872 12.2834ZM21.2 12.25C22.0777 12.25 22.5999 12.2518 22.9872 12.2834L23.2315 9.2934C22.6935 9.24944 22.0272 9.25003 21.2 9.25003V12.25ZM18.9882 12.25H21.2V9.25003H18.9882V12.25ZM18.9032 12.25C18.9313 12.25 18.9596 12.25 18.9882 12.25V9.25003C18.9591 9.25003 18.9304 9.25004 18.9023 9.25005L18.9032 12.25ZM17.0171 12.105C17.6577 12.2588 18.3022 12.2502 18.9032 12.25L18.9023 9.25005C18.2002 9.25025 17.9427 9.24196 17.7174 9.18786L17.0171 12.105ZM15.4995 11.4764C15.9693 11.7642 16.4814 11.9764 17.0171 12.105L17.7174 9.18786C17.4878 9.13275 17.2683 9.04184 17.067 8.91847L15.4995 11.4764ZM14.0632 10.2453C14.4881 10.6704 14.9378 11.1321 15.4995 11.4764L17.067 8.91847C16.8695 8.79741 16.6815 8.62116 16.1852 8.12456L14.0632 10.2453ZM14.0031 10.1851C14.0234 10.2054 14.0433 10.2254 14.0632 10.2453L16.1852 8.12456C16.1653 8.1047 16.145 8.08441 16.1245 8.06383L14.0031 10.1851ZM13.8149 9.99691L14.0031 10.1851L16.1244 8.06381L15.9362 7.87559L13.8149 9.99691ZM13.1492 9.36055C13.1495 9.36073 13.1535 9.36295 13.1669 9.37341C13.1831 9.3861 13.213 9.41091 13.2654 9.45896C13.378 9.56208 13.5367 9.71875 13.8149 9.99691L15.9362 7.87559C15.4473 7.38665 15.1141 7.04614 14.7167 6.80263L13.1492 9.36055ZM12.9324 9.27075C13.009 9.28913 13.0821 9.31943 13.1492 9.36055L14.7167 6.80263C14.3812 6.59702 14.0154 6.44551 13.6328 6.35364L12.9324 9.27075ZM13.9829 4.89509C13.3423 4.74128 12.6978 4.74984 12.0968 4.75002L12.0977 7.75002C12.7998 7.74981 13.0573 7.75811 13.2826 7.8122L13.9829 4.89509ZM15.5005 5.52367C15.0307 5.23582 14.5186 5.0237 13.9829 4.89509L13.2826 7.8122C13.5122 7.86732 13.7317 7.95823 13.933 8.08159L15.5005 5.52367ZM16.9368 6.7548C16.5119 6.32968 16.0622 5.86792 15.5005 5.52367L13.933 8.08159C14.1305 8.20266 14.3185 8.37891 14.8148 8.87551L16.9368 6.7548ZM16.9969 6.81493C16.9766 6.7947 16.9567 6.77471 16.9368 6.75481L14.8148 8.87549C14.8347 8.89536 14.855 8.91566 14.8756 8.93626L16.9969 6.81493ZM17.1851 7.00315L16.9969 6.81493L14.8756 8.93625L15.0638 9.12448L17.1851 7.00315ZM17.8508 7.63951C17.8505 7.63933 17.8465 7.63711 17.8331 7.62665C17.8169 7.61396 17.787 7.58916 17.7346 7.5411C17.622 7.43798 17.4633 7.28132 17.1851 7.00316L15.0638 9.12447C15.5527 9.61341 15.8859 9.95392 16.2833 10.1974L17.8508 7.63951ZM18.0676 7.72931C17.991 7.71094 17.9179 7.68063 17.8508 7.63951L16.2833 10.1974C16.6188 10.403 16.9846 10.5546 17.3672 10.6464L18.0676 7.72931ZM18.9882 7.75003C18.5948 7.75003 18.3718 7.74855 18.2193 7.74188C18.1482 7.73878 18.1095 7.73516 18.0891 7.73268C18.0723 7.73064 18.0679 7.72939 18.0676 7.72931L17.3672 10.6464C17.8204 10.7552 18.2968 10.75 18.9882 10.75V7.75003ZM21.2 7.75003H18.9882V10.75H21.2V7.75003ZM21.2321 7.75003H21.2V10.75H21.2321V7.75003ZM23.3536 7.79838C22.7479 7.74889 22.0222 7.75002 21.2321 7.75003L21.2321 10.75C22.0677 10.75 22.6532 10.7511 23.1093 10.7884L23.3536 7.79838ZM25.3834 8.32225C24.6927 7.97029 23.9933 7.85064 23.3536 7.79838L23.1093 10.7884C23.5629 10.8255 23.8238 10.8945 24.0215 10.9953L25.3834 8.32225ZM27.6778 10.6166C27.1744 9.62873 26.3713 8.82558 25.3835 8.32225L24.0215 10.9953C24.4448 11.211 24.789 11.5552 25.0048 11.9786L27.6778 10.6166ZM28.2017 12.6464C28.1494 12.0067 28.0297 11.3073 27.6778 10.6166L25.0048 11.9786C25.1055 12.1762 25.1746 12.4371 25.2116 12.8907L28.2017 12.6464ZM28.25 14.7679C28.25 13.9779 28.2511 13.2521 28.2017 12.6464L25.2116 12.8907C25.2489 13.3468 25.25 13.9323 25.25 14.7679L28.25 14.7679ZM28.25 14.8V14.7679H25.25V14.8H28.25ZM28.25 19.2V14.8H25.25V19.2H28.25ZM28.25 19.2322V19.2H25.25V19.2322H28.25ZM28.2017 21.3536C28.2511 20.748 28.25 20.0222 28.25 19.2321L25.25 19.2322C25.25 20.0678 25.2489 20.6532 25.2116 21.1094L28.2017 21.3536ZM27.6778 23.3835C28.0297 22.6927 28.1494 21.9933 28.2017 21.3536L25.2116 21.1094C25.1746 21.5629 25.1055 21.8238 25.0048 22.0215L27.6778 23.3835ZM25.3835 25.6778C26.3713 25.1745 27.1744 24.3713 27.6778 23.3835L25.0048 22.0215C24.789 22.4449 24.4448 22.7891 24.0215 23.0048L25.3835 25.6778ZM23.3536 26.2017C23.9933 26.1494 24.6927 26.0298 25.3835 25.6778L24.0215 23.0048C23.8238 23.1055 23.5629 23.1746 23.1093 23.2117L23.3536 26.2017ZM21.2321 26.25C22.0222 26.25 22.7479 26.2512 23.3536 26.2017L23.1093 23.2117C22.6532 23.2489 22.0677 23.25 21.2321 23.25L21.2321 26.25ZM21.2 26.25H21.2321V23.25H21.2V26.25ZM10.8 26.25H21.2V23.25H10.8L10.8 26.25ZM10.7679 26.25H10.8L10.8 23.25H10.7679L10.7679 26.25ZM8.64638 26.2017C9.25206 26.2512 9.97782 26.25 10.7679 26.25L10.7679 23.25C9.93227 23.25 9.34681 23.2489 8.89068 23.2117L8.64638 26.2017ZM6.61655 25.6778C7.30731 26.0298 8.0067 26.1494 8.64638 26.2017L8.89068 23.2117C8.43709 23.1746 8.1762 23.1055 7.97852 23.0048L6.61655 25.6778ZM4.32222 23.3835C4.82555 24.3713 5.6287 25.1745 6.61655 25.6778L7.97852 23.0048C7.55516 22.7891 7.21095 22.4449 6.99524 22.0215L4.32222 23.3835ZM3.79835 21.3536C3.85061 21.9933 3.97026 22.6927 4.32222 23.3835L6.99524 22.0215C6.89451 21.8238 6.82544 21.5629 6.78838 21.1094L3.79835 21.3536ZM3.75 19.2321C3.74999 20.0222 3.74886 20.748 3.79835 21.3536L6.78838 21.1094C6.75111 20.6532 6.74999 20.0678 6.75 19.2322L3.75 19.2321ZM3.75 19.2L3.75 19.2321L6.75 19.2321L6.75 19.2L3.75 19.2ZM3.75 11.8L3.75 19.2H6.75L6.75 11.8H3.75ZM3.75 11.7679L3.75 11.8L6.75 11.8L6.75 11.7679L3.75 11.7679ZM3.79835 9.64642C3.74886 10.2521 3.74999 10.9779 3.75 11.7679L6.75 11.7679C6.74999 10.9323 6.75111 10.3468 6.78838 9.89071L3.79835 9.64642ZM4.32222 7.61658C3.97026 8.30734 3.85061 9.00673 3.79835 9.64642L6.78838 9.89071C6.82544 9.43712 6.89451 9.17623 6.99524 8.97855L4.32222 7.61658ZM6.61655 5.32225C5.6287 5.82558 4.82555 6.62873 4.32222 7.61658L6.99524 8.97855C7.21095 8.55519 7.55516 8.21098 7.97852 7.99527L6.61655 5.32225ZM8.64638 4.79838C8.0067 4.85064 7.30731 4.97029 6.61655 5.32225L7.97852 7.99527C8.1762 7.89455 8.43709 7.82547 8.89068 7.78841L8.64638 4.79838ZM10.7679 4.75003C9.97783 4.75002 9.25207 4.74889 8.64638 4.79838L8.89068 7.78841C9.34682 7.75115 9.93228 7.75002 10.7679 7.75003L10.7679 4.75003ZM10.8 4.75003L10.7679 4.75003L10.7679 7.75003L10.8 7.75003L10.8 4.75003ZM12.0118 4.75003H10.8V7.75003H12.0118V4.75003ZM12.0968 4.75002C12.0687 4.75002 12.0404 4.75003 12.0118 4.75003V7.75003C12.0409 7.75003 12.0696 7.75002 12.0977 7.75002L12.0968 4.75002Z" fill="white"/>
<path fill-rule="evenodd" clip-rule="evenodd" d="M13.2826 7.81217C13.0437 7.75482 12.7812 7.75 12.0118 7.75H10.8C9.94755 7.75 9.35331 7.75058 8.89068 7.78838C8.4368 7.82546 8.17604 7.8946 7.97852 7.99524C7.55516 8.21095 7.21095 8.55516 6.99524 8.97852C6.8946 9.17604 6.82546 9.4368 6.78838 9.89068C6.75058 10.3533 6.75 10.9475 6.75 11.8L6.75 19.2C6.75 20.0525 6.75058 20.6467 6.78838 21.1093C6.82546 21.5632 6.8946 21.824 6.99524 22.0215C7.21095 22.4448 7.55516 22.789 7.97852 23.0048C8.17604 23.1054 8.4368 23.1745 8.89068 23.2116C9.35331 23.2494 9.94755 23.25 10.8 23.25H21.2C22.0525 23.25 22.6467 23.2494 23.1093 23.2116C23.5632 23.1745 23.824 23.1054 24.0215 23.0048C24.4448 22.789 24.789 22.4448 25.0048 22.0215C25.1054 21.824 25.1745 21.5632 25.2116 21.1093C25.2494 20.6467 25.25 20.0525 25.25 19.2V14.8C25.25 13.9475 25.2494 13.3533 25.2116 12.8907C25.1745 12.4368 25.1054 12.176 25.0048 11.9785C24.789 11.5552 24.4448 11.211 24.0215 10.9952C23.824 10.8946 23.5632 10.8255 23.1093 10.7884C22.6467 10.7506 22.0525 10.75 21.2 10.75H18.9882C18.9594 10.75 18.9309 10.75 18.9028 10.75C18.2512 10.7502 17.8002 10.7503 17.3672 10.6464C16.9846 10.5545 16.6188 10.403 16.2833 10.1974C15.9036 9.96474 15.5848 9.64574 15.1242 9.18489C15.1043 9.165 15.0842 9.14486 15.0638 9.12444L14.8756 8.93622C14.3315 8.39212 14.1424 8.20992 13.933 8.08156C13.7317 7.9582 13.5122 7.86729 13.2826 7.81217ZM12.0972 6.24998C12.7488 6.2498 13.1998 6.24966 13.6328 6.35361C14.0154 6.44548 14.3812 6.59699 14.7167 6.8026C15.0964 7.03526 15.4152 7.35426 15.8758 7.81512C15.8957 7.835 15.9158 7.85515 15.9362 7.87556L16.1244 8.06378C16.6685 8.60788 16.8576 8.79008 17.067 8.91844C17.2683 9.04181 17.4878 9.13271 17.7174 9.18783C17.9563 9.24518 18.2188 9.25 18.9882 9.25H21.2H21.2321C22.0449 9.24999 22.7006 9.24999 23.2315 9.29336C23.7781 9.33803 24.2582 9.43238 24.7025 9.65873C25.4081 10.0183 25.9817 10.5919 26.3413 11.2975C26.5676 11.7418 26.662 12.2219 26.7066 12.7685C26.75 13.2994 26.75 13.955 26.75 14.7679V14.8V19.2V19.2321C26.75 20.045 26.75 20.7006 26.7066 21.2315C26.662 21.7781 26.5676 22.2582 26.3413 22.7025C25.9817 23.4081 25.4081 23.9817 24.7025 24.3413C24.2582 24.5676 23.7781 24.662 23.2315 24.7066C22.7006 24.75 22.045 24.75 21.2321 24.75H21.2H10.8H10.7679C9.95505 24.75 9.29944 24.75 8.76853 24.7066C8.22189 24.662 7.74175 24.5676 7.29754 24.3413C6.59193 23.9817 6.01825 23.4081 5.65873 22.7025C5.43238 22.2582 5.33803 21.7781 5.29336 21.2315C5.24999 20.7006 5.24999 20.0449 5.25 19.2321L5.25 19.2L5.25 11.8L5.25 11.7679C5.24999 10.9551 5.24999 10.2994 5.29336 9.76853C5.33803 9.22189 5.43238 8.74175 5.65873 8.29754C6.01825 7.59193 6.59193 7.01825 7.29754 6.65873C7.74175 6.43238 8.22189 6.33803 8.76853 6.29336C9.29944 6.24999 9.95506 6.24999 10.7679 6.25L10.8 6.25H12.0118C12.0406 6.25 12.0691 6.24999 12.0972 6.24998Z" fill="#151E28"/>
</svg>
