<svg viewBox="0 0 32 32" fill="none" xmlns="http://www.w3.org/2000/svg">
<path d="M23 13V23.8782C23 24.2922 22.5226 24.4648 22.1683 24.2508V24.2508C21.4764 23.833 20.601 23.8727 19.9498 24.3514C19.7537 24.4955 19.5656 24.7213 19.1893 25.1729L18.5 26L18.4583 25.95C17.6141 24.9369 17.192 24.4304 16.6866 24.2456C16.2432 24.0836 15.7568 24.0836 15.3134 24.2456C14.808 24.4304 14.3859 24.9369 13.5417 25.95L13.5 26L12.8107 25.1729C12.4344 24.7213 12.2463 24.4955 12.0502 24.3514C11.399 23.8727 10.5236 23.833 9.83175 24.2508V24.2508C9.47739 24.4648 9 24.2922 9 23.8782L9 13C9 9.13401 12.134 6 16 6C19.866 6 23 9.13401 23 13Z" fill="white"/>
<path d="M8.9947 24.9924L9.57128 23.6076L9.57128 23.6076L8.9947 24.9924ZM10.2194 24.8928L10.9948 26.1768L10.9948 26.1768L10.2194 24.8928ZM11.606 24.9557L12.4945 23.7471L12.4944 23.7471L11.606 24.9557ZM12.2345 25.653L13.3869 24.6927L13.3869 24.6927L12.2345 25.653ZM12.9238 26.4801L11.7715 27.4404L11.7715 27.4404L12.9238 26.4801ZM14.0762 26.4801L15.2285 27.4404L15.2285 27.4404L14.0762 26.4801ZM14.1179 26.4301L12.9655 25.4698L12.9655 25.4698L14.1179 26.4301ZM15.087 25.3155L14.0222 24.2589L14.0222 24.2589L15.087 25.3155ZM15.5709 24.9501L15.0559 23.5412L15.0559 23.5412L15.5709 24.9501ZM16.4291 24.9501L16.9441 23.5412L16.9441 23.5412L16.4291 24.9501ZM16.913 25.3155L17.9778 24.2589L17.9778 24.2589L16.913 25.3155ZM17.8821 26.4301L19.0345 25.4698L19.0345 25.4698L17.8821 26.4301ZM17.9238 26.4801L16.7715 27.4404L16.7715 27.4404L17.9238 26.4801ZM19.0762 26.4801L20.2285 27.4404L20.2285 27.4404L19.0762 26.4801ZM19.7655 25.653L18.6131 24.6927L18.6131 24.6927L19.7655 25.653ZM20.394 24.9557L19.5056 23.7471L19.5055 23.7471L20.394 24.9557ZM21.7806 24.8928L21.0052 26.1768L21.0052 26.1768L21.7806 24.8928ZM23.0053 24.9924L22.4287 23.6076L22.4287 23.6076L23.0053 24.9924ZM22.25 23.4492L21.6411 24.8201C22.1051 25.0261 22.6419 24.9835 23.0675 24.7068C23.4932 24.4301 23.75 23.9569 23.75 23.4492H22.25ZM19.5056 23.7471L20.394 24.9557L20.394 24.9557L19.5056 23.7471ZM18.673 24.6208L19.8257 25.5806L19.8259 25.5804L18.673 24.6208ZM18.6131 24.6927L19.7654 25.653L19.7658 25.6525L18.6131 24.6927ZM18.4977 24.8312L17.3594 25.8081C17.6468 26.143 18.0672 26.3344 18.5086 26.3312C18.9499 26.328 19.3675 26.1306 19.65 25.7915L18.4977 24.8312ZM17.9778 24.2589L19.0425 23.2023L19.0425 23.2023L17.9778 24.2589ZM16.9441 23.5412L16.4291 24.9501L16.4291 24.9501L16.9441 23.5412ZM15.0559 23.5412L15.5709 24.9501L15.5709 24.9501L15.0559 23.5412ZM14.0222 24.2589L12.9575 23.2023L12.9575 23.2024L14.0222 24.2589ZM13.5023 24.8312L12.35 25.7915C12.6325 26.1306 13.0501 26.328 13.4914 26.3312C13.9328 26.3344 14.3532 26.143 14.6406 25.8081L13.5023 24.8312ZM13.3869 24.6927L12.2342 25.6525L12.2346 25.653L13.3869 24.6927ZM13.327 24.6208L12.1741 25.5804L12.1743 25.5806L13.327 24.6208ZM12.4944 23.7471L11.606 24.9557L11.606 24.9557L12.4944 23.7471ZM9.75 23.4492H8.25C8.25 23.9569 8.50681 24.4301 8.93248 24.7068C9.35815 24.9835 9.89489 25.0261 10.3589 24.8201L9.75 23.4492ZM9.75 13C9.75 9.54822 12.5482 6.75 16 6.75V3.75C10.8914 3.75 6.75 7.89137 6.75 13H9.75ZM9.75 23.8782L9.75 13H6.75L6.75 23.8782H9.75ZM9.57128 23.6076C9.61116 23.6242 9.6538 23.6538 9.69005 23.7047C9.73201 23.7637 9.75 23.8308 9.75 23.8782H6.75C6.75 25.098 7.51636 26.0016 8.41811 26.3771L9.57128 23.6076ZM9.44406 23.6087C9.45781 23.6004 9.47432 23.5949 9.49312 23.5934C9.51148 23.5919 9.53851 23.594 9.57128 23.6076L8.41811 26.3771C9.25666 26.7263 10.2168 26.6466 10.9948 26.1768L9.44406 23.6087ZM12.4944 23.7471C11.599 23.0889 10.3954 23.0343 9.44405 23.6087L10.9948 26.1768C10.9084 26.2291 10.7989 26.2241 10.7175 26.1643L12.4944 23.7471ZM13.3869 24.6927C13.0479 24.286 12.7847 23.9605 12.4945 23.7471L10.7175 26.1642C10.6449 26.1109 10.6196 26.0732 10.6916 26.1533C10.763 26.2327 10.8762 26.366 11.0822 26.6133L13.3869 24.6927ZM14.0762 25.5199L13.3869 24.6927L11.0822 26.6133L11.7715 27.4404L14.0762 25.5199ZM13.5 25.25C13.7226 25.25 13.9337 25.3489 14.0762 25.5199L11.7715 27.4404C12.199 27.9534 12.8322 28.25 13.5 28.25L13.5 25.25ZM12.9238 25.5199C13.0663 25.3489 13.2774 25.25 13.5 25.25L13.5 28.25C14.1678 28.25 14.801 27.9534 15.2285 27.4404L12.9238 25.5199ZM12.9655 25.4698L12.9238 25.5199L15.2285 27.4404L15.2702 27.3904L12.9655 25.4698ZM14.0222 24.2589C13.7195 24.564 13.3786 24.9742 12.9655 25.4698L15.2702 27.3904C15.7186 26.8523 15.9627 26.5625 16.1517 26.372L14.0222 24.2589ZM15.0559 23.5412C14.6529 23.6886 14.3288 23.95 14.0222 24.2589L16.1517 26.372C16.1921 26.3314 16.221 26.3046 16.2397 26.2882C16.2584 26.2717 16.2643 26.2679 16.2586 26.272C16.2524 26.2765 16.2332 26.2898 16.2019 26.3069C16.1692 26.3246 16.1301 26.3427 16.0858 26.3589L15.0559 23.5412ZM16.9441 23.5412C16.3344 23.3184 15.6656 23.3184 15.0559 23.5412L16.0858 26.3589C16.0304 26.3792 15.9696 26.3792 15.9142 26.3589L16.9441 23.5412ZM17.9778 24.2589C17.6712 23.95 17.3471 23.6886 16.9441 23.5412L15.9142 26.3589C15.8699 26.3427 15.8307 26.3246 15.7981 26.3069C15.7668 26.2898 15.7476 26.2765 15.7414 26.272C15.7357 26.2679 15.7416 26.2717 15.7603 26.2882C15.779 26.3046 15.8079 26.3314 15.8483 26.372L17.9778 24.2589ZM19.0345 25.4698C18.6214 24.9742 18.2805 24.564 17.9778 24.2589L15.8483 26.372C16.0373 26.5625 16.2814 26.8523 16.7298 27.3904L19.0345 25.4698ZM19.0762 25.5199L19.0345 25.4698L16.7298 27.3904L16.7715 27.4404L19.0762 25.5199ZM18.5 25.25C18.7226 25.25 18.9337 25.3489 19.0762 25.5199L16.7715 27.4404C17.199 27.9534 17.8322 28.25 18.5 28.25V25.25ZM17.9238 25.5199C18.0663 25.3489 18.2774 25.25 18.5 25.25V28.25C19.1678 28.25 19.801 27.9534 20.2285 27.4404L17.9238 25.5199ZM18.6131 24.6927L17.9238 25.5199L20.2285 27.4404L20.9178 26.6133L18.6131 24.6927ZM19.5055 23.7471C19.2153 23.9605 18.9521 24.286 18.6131 24.6927L20.9178 26.6133C21.1238 26.366 21.237 26.2327 21.3084 26.1533C21.3804 26.0732 21.3551 26.1109 21.2825 26.1642L19.5055 23.7471ZM22.5559 23.6087C21.6046 23.0343 20.401 23.0889 19.5056 23.7471L21.2825 26.1643C21.2011 26.2241 21.0917 26.2291 21.0052 26.1768L22.5559 23.6087ZM22.4287 23.6076C22.4615 23.594 22.4885 23.5919 22.5069 23.5934C22.5257 23.5949 22.5422 23.6004 22.5559 23.6087L21.0052 26.1768C21.7832 26.6466 22.7433 26.7263 23.5819 26.3771L22.4287 23.6076ZM22.25 23.8782C22.25 23.8308 22.268 23.7637 22.3099 23.7047C22.3462 23.6538 22.3888 23.6242 22.4287 23.6076L23.5819 26.3771C24.4836 26.0016 25.25 25.098 25.25 23.8782L22.25 23.8782ZM22.25 13V23.8782L25.25 23.8782L25.25 13H22.25ZM16 6.75C19.4518 6.75 22.25 9.54822 22.25 13H25.25C25.25 7.89137 21.1086 3.75 16 3.75V6.75ZM16 5.25C11.7198 5.25 8.25 8.71979 8.25 13H11.25C11.25 10.3766 13.3766 8.25 16 8.25V5.25ZM23.75 13C23.75 8.71979 20.2802 5.25 16 5.25V8.25C18.6234 8.25 20.75 10.3766 20.75 13H23.75ZM23.75 23.4492V13H20.75V23.4492H23.75ZM20.394 24.9557C20.7582 24.6879 21.2352 24.6398 21.6411 24.8201L22.8589 22.0783C21.4775 21.4648 19.8565 21.6274 18.6171 22.5385L20.394 24.9557ZM19.8259 25.5804C20.182 25.1525 20.3016 25.0236 20.394 24.9557L18.6171 22.5385C18.1665 22.8698 17.7983 23.327 17.5201 23.6612L19.8259 25.5804ZM19.7658 25.6525L19.8257 25.5806L17.5203 23.661L17.4604 23.7329L19.7658 25.6525ZM19.65 25.7915L19.7654 25.653L17.4608 23.7324L17.3454 23.8709L19.65 25.7915ZM16.913 25.3155C17.0365 25.4399 17.181 25.6002 17.3594 25.8081L19.636 23.8544C19.4393 23.6252 19.2407 23.4021 19.0425 23.2023L16.913 25.3155ZM16.4291 24.9501C16.5323 24.9878 16.6723 25.0728 16.913 25.3155L19.0425 23.2023C18.6686 22.8255 18.1607 22.3888 17.459 22.1324L16.4291 24.9501ZM15.5709 24.9501C15.848 24.8488 16.152 24.8488 16.4291 24.9501L17.459 22.1324C16.5168 21.788 15.4832 21.788 14.541 22.1324L15.5709 24.9501ZM15.087 25.3155C15.3277 25.0728 15.4676 24.9878 15.5709 24.9501L14.541 22.1324C13.8393 22.3888 13.3314 22.8255 12.9575 23.2023L15.087 25.3155ZM14.6406 25.8081C14.819 25.6002 14.9635 25.4399 15.087 25.3154L12.9575 23.2024C12.7593 23.4021 12.5607 23.6252 12.364 23.8544L14.6406 25.8081ZM12.2346 25.653L12.35 25.7915L14.6546 23.8709L14.5392 23.7324L12.2346 25.653ZM12.1743 25.5806L12.2342 25.6525L14.5396 23.7329L14.4797 23.661L12.1743 25.5806ZM11.606 24.9557C11.6984 25.0236 11.818 25.1525 12.1741 25.5804L14.4799 23.6612C14.2017 23.327 13.8335 22.8698 13.3829 22.5385L11.606 24.9557ZM10.3589 24.8201C10.7648 24.6398 11.2418 24.6879 11.606 24.9557L13.3829 22.5385C12.1435 21.6274 10.5225 21.4648 9.14112 22.0783L10.3589 24.8201ZM8.25 13L8.25 23.4492H11.25L11.25 13H8.25ZM12.9999 13.75C12.5857 13.75 12.2499 13.4142 12.2499 13H15.2499C15.2499 11.7574 14.2426 10.75 12.9999 10.75V13.75ZM13.7499 13C13.7499 13.4142 13.4141 13.75 12.9999 13.75V10.75C11.7573 10.75 10.7499 11.7574 10.7499 13H13.7499ZM13.7499 15V13H10.7499V15H13.7499ZM12.9999 14.25C13.4141 14.25 13.7499 14.5858 13.7499 15H10.7499C10.7499 16.2426 11.7573 17.25 12.9999 17.25L12.9999 14.25ZM12.2499 15C12.2499 14.5858 12.5857 14.25 12.9999 14.25L12.9999 17.25C14.2426 17.25 15.2499 16.2426 15.2499 15H12.2499ZM12.2499 13V15H15.2499V13H12.2499ZM18.9999 13.75C18.5857 13.75 18.2499 13.4142 18.2499 13L21.2499 13C21.2499 11.7574 20.2426 10.75 18.9999 10.75V13.75ZM19.7499 13C19.7499 13.4142 19.4141 13.75 18.9999 13.75V10.75C17.7573 10.75 16.7499 11.7574 16.7499 13H19.7499ZM19.7499 15V13H16.7499V15H19.7499ZM18.9999 14.25C19.4141 14.25 19.7499 14.5858 19.7499 15H16.7499C16.7499 16.2426 17.7573 17.25 18.9999 17.25V14.25ZM18.2499 15C18.2499 14.5858 18.5857 14.25 18.9999 14.25V17.25C20.2426 17.25 21.2499 16.2426 21.2499 15H18.2499ZM18.2499 13V15H21.2499V13L18.2499 13Z" fill="white"/>
<path fill-rule="evenodd" clip-rule="evenodd" d="M16.0001 5.25C11.7199 5.25 8.25008 8.71979 8.25008 13L8.25008 23.8782C8.25008 24.4208 8.58311 24.8209 8.99477 24.9924C9.38324 25.1541 9.84193 25.1208 10.2195 24.8928C10.652 24.6317 11.199 24.6565 11.6061 24.9557C11.7098 25.032 11.8289 25.1661 12.2346 25.653L12.9239 26.4801C13.0664 26.6511 13.2775 26.75 13.5001 26.75C13.7227 26.75 13.9337 26.6511 14.0762 26.4801L14.1179 26.4301C14.5486 25.9132 14.8412 25.5632 15.0871 25.3155C15.3282 25.0725 15.468 24.9877 15.571 24.9501C15.8481 24.8488 16.1521 24.8488 16.4292 24.9501C16.5321 24.9877 16.672 25.0725 16.9131 25.3155C17.159 25.5632 17.4515 25.9132 17.8822 26.4301L17.9239 26.4801C18.0664 26.6511 18.2775 26.75 18.5001 26.75C18.7227 26.75 18.9337 26.6511 19.0762 26.4801L19.7655 25.653C20.1713 25.1661 20.2903 25.032 20.3941 24.9557C20.8011 24.6565 21.3482 24.6317 21.7806 24.8928C22.1582 25.1208 22.6169 25.1541 23.0054 24.9924C23.417 24.8209 23.7501 24.4208 23.7501 23.8782V13C23.7501 8.71979 20.2803 5.25 16.0001 5.25ZM9.75008 13C9.75008 9.54822 12.5483 6.75 16.0001 6.75C19.4519 6.75 22.2501 9.54822 22.2501 13V23.4492C21.3564 23.0523 20.3075 23.1577 19.5056 23.7471C19.2341 23.9467 18.9902 24.2398 18.6731 24.6208L18.6132 24.6927L18.4978 24.8312C18.3102 24.6127 18.1387 24.421 17.9778 24.2589C17.6705 23.9492 17.3466 23.6883 16.9441 23.5412C16.3345 23.3184 15.6657 23.3184 15.056 23.5412C14.6536 23.6883 14.3297 23.9492 14.0223 24.2589C13.8615 24.421 13.6899 24.6127 13.5024 24.8312L13.387 24.6927L13.3271 24.6208C13.0099 24.2398 12.766 23.9467 12.4945 23.7471C11.6927 23.1577 10.6437 23.0523 9.75008 23.4492L9.75008 13ZM13.75 13C13.75 12.5858 13.4142 12.25 13 12.25C12.5858 12.25 12.25 12.5858 12.25 13V15C12.25 15.4142 12.5858 15.75 13 15.75C13.4142 15.75 13.75 15.4142 13.75 15V13ZM19.75 13C19.75 12.5858 19.4142 12.25 19 12.25C18.5858 12.25 18.25 12.5858 18.25 13V15C18.25 15.4142 18.5858 15.75 19 15.75C19.4142 15.75 19.75 15.4142 19.75 15V13Z" fill="#151E28"/>
</svg>
