<svg viewBox="0 0 32 32" fill="none" xmlns="http://www.w3.org/2000/svg">
<path d="M25 16C25 20.9705 20.9706 25 16 25C11.0294 25 7 20.9705 7 16C7 11.0294 11.0294 6.99998 16 6.99998C20.9706 6.99998 25 11.0294 25 16Z" fill="white"/>
<path d="M10.684 9.69085L9.71685 8.54425C9.18731 8.99089 9.03251 9.74206 9.34232 10.3617L10.684 9.69085ZM17.3149 7.8542L18.775 7.51054C18.6356 6.91853 18.1526 6.46926 17.5521 6.37307L17.3149 7.8542ZM17.3258 7.90297L18.7945 7.5983L18.7945 7.59825L17.3258 7.90297ZM16.5981 10.0587L17.5817 11.1911L17.5817 11.1911L16.5981 10.0587ZM16.4217 10.2022L17.3587 11.3735L17.3587 11.3735L16.4217 10.2022ZM16.2783 10.3169L17.2153 11.4882L17.2153 11.4882L16.2783 10.3169ZM12.0627 12.4378L13.3489 13.2096L13.3489 13.2095L12.0627 12.4378ZM12.0598 12.4426L10.7182 13.1134C10.963 13.603 11.4552 13.9204 12.0022 13.9415C12.5493 13.9625 13.0643 13.6838 13.346 13.2143L12.0598 12.4426ZM9.57419 10.8254L10.9158 10.1546C10.6875 9.69797 10.2426 9.38882 9.73507 9.33407C9.2275 9.27931 8.72692 9.48647 8.40648 9.8839L9.57419 10.8254ZM13.4526 23.8492L12.9898 25.276C13.7408 25.5196 14.552 25.1393 14.8453 24.4063L13.4526 23.8492ZM13.8499 22.8557L12.4572 22.2986L12.4572 22.2986L13.8499 22.8557ZM13.6058 21.6665L12.5452 22.7272L12.5452 22.7272L13.6058 21.6665ZM13.3641 18.2645L12.1641 17.3645L12.1641 17.3645L13.3641 18.2645ZM14.5448 16.6902L15.7448 17.5902C16.0436 17.1919 16.1252 16.6713 15.9627 16.2007C15.8002 15.7301 15.4148 15.3707 14.934 15.2416L14.5448 16.6902ZM11.3292 14.3354L12.6708 13.6646L12.6708 13.6646L11.3292 14.3354ZM14.935 24.1819L13.5423 23.6248C13.37 24.0555 13.4067 24.5416 13.6416 24.9415C13.8765 25.3415 14.2832 25.6103 14.7433 25.6696L14.935 24.1819ZM21.82 21.8473L22.8781 22.9104C23.4152 22.3758 23.4692 21.5245 23.004 20.9263L21.82 21.8473ZM19.3002 18.6076L18.1162 19.5285L18.1162 19.5285L19.3002 18.6076ZM18.6957 17.8872L17.6916 19.0016L17.6916 19.0016L18.6957 17.8872ZM18.2647 17.5822L17.5479 18.8999L17.548 18.8999L18.2647 17.5822ZM17.3841 17.2519L17.8584 15.8289L17.8584 15.8289L17.3841 17.2519ZM16.2757 16.8824L16.75 15.4594C16.1375 15.2552 15.463 15.4659 15.0757 15.9824L16.2757 16.8824ZM14.5641 19.1645L15.7641 20.0645L15.7641 20.0645L14.5641 19.1645ZM15.2427 23.4128L16.6354 23.9699L16.6354 23.9699L15.2427 23.4128ZM22.8032 20.6682L21.6192 21.5891C21.9129 21.9667 22.3691 22.1816 22.8472 22.1675C23.3254 22.1535 23.7682 21.9122 24.0392 21.518L22.8032 20.6682ZM18.8715 8.26346L19.3936 6.85726C18.9268 6.68393 18.4044 6.75356 17.9993 7.04311C17.5942 7.33267 17.3592 7.80439 17.372 8.30218L18.8715 8.26346ZM17.5817 11.1911L16.5981 10.0587L16.5981 10.0587L17.5817 11.1911ZM17.371 11.3637L16.434 10.1923C16.4262 10.1986 16.4184 10.2049 16.4107 10.2113L17.371 11.3637ZM17.371 11.3637L18.308 12.535C18.3158 12.5288 18.3235 12.5224 18.3312 12.516L17.371 11.3637ZM17.3587 11.3735L16.4217 10.2021L16.4217 10.2022L17.3587 11.3735ZM17.2153 11.4882L18.1524 12.6595L18.1524 12.6595L17.2153 11.4882ZM13.3489 13.2095L12.0627 12.4378L12.0627 12.4378L13.3489 13.2095ZM13.3084 13.2771L12.0221 12.5053C11.7683 12.9285 11.7387 13.4495 11.9432 13.8986C12.1477 14.3477 12.56 14.6675 13.0458 14.7539L13.3084 13.2771ZM17.8584 15.8289L17.3841 17.2519L17.3843 17.252L17.8584 15.8289ZM17.9176 15.8486L17.4434 17.2717L17.4435 17.2717L17.9176 15.8486ZM18.9814 16.2645L19.6981 14.9468L19.6981 14.9468L18.9814 16.2645ZM19.6997 16.7728L20.7038 15.6584L20.7038 15.6584L19.6997 16.7728ZM20.446 17.6375L19.2618 18.5582L19.2618 18.5583L20.446 17.6375ZM20.4843 17.6867L19.3001 18.6075L19.3002 18.6076L20.4843 17.6867ZM16 6.24998C13.6076 6.24998 11.4131 7.11355 9.71685 8.54425L11.6511 10.8375C12.8264 9.84609 14.3417 9.24998 16 9.24998V6.24998ZM17.5521 6.37307C17.0458 6.29197 16.5273 6.24998 16 6.24998V9.24998C16.3678 9.24998 16.7276 9.27926 17.0777 9.33532L17.5521 6.37307ZM18.7945 7.59825C18.7882 7.56783 18.7818 7.53941 18.775 7.51054L15.8548 8.19785C15.856 8.20296 15.8566 8.20576 15.8569 8.20701C15.8571 8.20809 15.8571 8.20816 15.857 8.20769L18.7945 7.59825ZM17.5817 11.1911C18.6063 10.3012 19.0701 8.92712 18.7945 7.5983L15.857 8.20764C15.9122 8.4734 15.8194 8.74822 15.6145 8.92621L17.5817 11.1911ZM17.3587 11.3735C17.4554 11.2962 17.5215 11.2434 17.5817 11.1911L15.6145 8.92621C15.6162 8.92473 15.6131 8.92751 15.5929 8.94391C15.5713 8.9615 15.5396 8.98692 15.4846 9.03087L17.3587 11.3735ZM17.2153 11.4882L17.3587 11.3735L15.4846 9.03087L15.3412 9.1456L17.2153 11.4882ZM15.0436 12.25C15.833 12.25 16.5989 11.9813 17.2153 11.4882L15.3412 9.1456C15.2568 9.21317 15.1518 9.24998 15.0436 9.24998V12.25ZM13.3489 13.2095C13.7061 12.6142 14.3494 12.25 15.0436 12.25V9.24998C13.2956 9.24998 11.6758 10.1671 10.7764 11.666L13.3489 13.2095ZM13.346 13.2143L13.3489 13.2096L10.7765 11.666L10.7736 11.6708L13.346 13.2143ZM9.34232 10.3617L10.7182 13.1134L13.4015 11.7717L12.0256 9.02003L9.34232 10.3617ZM8.40648 9.8839C7.0582 11.5561 6.25 13.6857 6.25 16H9.25C9.25 14.3954 9.80803 12.9251 10.7419 11.7669L8.40648 9.8839ZM6.25 16C6.25 20.3364 9.07994 24.008 12.9898 25.276L13.9153 22.4223C11.2059 21.5436 9.25 18.9983 9.25 16H6.25ZM14.8453 24.4063L15.2427 23.4128L12.4572 22.2986L12.0598 23.2921L14.8453 24.4063ZM15.2427 23.4128C15.6293 22.4461 15.4027 21.342 14.6665 20.6058L12.5452 22.7272C12.4328 22.6148 12.3982 22.4462 12.4572 22.2986L15.2427 23.4128ZM14.6665 20.6058C14.2785 20.2178 14.2348 19.6035 14.5641 19.1645L12.1641 17.3645C10.9391 18.9979 11.1015 21.2835 12.5452 22.7272L14.6665 20.6058ZM14.5641 19.1645L15.7448 17.5902L13.3448 15.7902L12.1641 17.3645L14.5641 19.1645ZM14.934 15.2416C14.8269 15.2128 14.75 15.1135 14.75 15L11.75 15C11.75 16.5046 12.7711 17.7669 14.1557 18.1388L14.934 15.2416ZM14.75 15C14.75 14.0335 13.9665 13.25 13 13.25V16.25C12.3096 16.25 11.75 15.6903 11.75 15L14.75 15ZM13 13.25H12V16.25H13V13.25ZM12 13.25C12.2841 13.25 12.5438 13.4105 12.6708 13.6646L9.98754 15.0062C10.3687 15.7685 11.1478 16.25 12 16.25V13.25ZM12.6708 13.6646L10.9158 10.1546L8.23255 11.4962L9.98754 15.0062L12.6708 13.6646ZM14.7433 25.6696C15.1553 25.7227 15.5749 25.75 16 25.75V22.75C15.7034 22.75 15.412 22.7309 15.1268 22.6942L14.7433 25.6696ZM16 25.75C18.6837 25.75 21.1167 24.6637 22.8781 22.9104L20.7618 20.7841C19.5395 22.0007 17.8587 22.75 16 22.75V25.75ZM23.004 20.9263L20.4843 17.6867L18.1162 19.5285L20.6359 22.7682L23.004 20.9263ZM20.4843 17.6867C20.1715 17.2846 19.9583 17.0058 19.6997 16.7728L17.6916 19.0016C17.6923 19.0022 17.6951 19.0046 17.7035 19.0136C17.7138 19.0246 17.7327 19.0457 17.766 19.0857C17.8376 19.1717 17.9384 19.3 18.1162 19.5285L20.4843 17.6867ZM19.6997 16.7728C19.481 16.5758 19.2399 16.4052 18.9814 16.2645L17.548 18.8999C17.5997 18.9281 17.6479 18.9622 17.6916 19.0016L19.6997 16.7728ZM18.9814 16.2645C18.6756 16.0983 18.3417 15.99 17.8584 15.8289L16.9097 18.6749C17.1844 18.7665 17.339 18.8189 17.4439 18.8578C17.4927 18.8759 17.5189 18.8867 17.5326 18.8927C17.544 18.8977 17.5472 18.8995 17.5479 18.8999L18.9814 16.2645ZM17.8584 15.8289L16.75 15.4594L15.8013 18.3055L16.9097 18.6749L17.8584 15.8289ZM15.0757 15.9824L13.3641 18.2645L15.7641 20.0645L17.4757 17.7824L15.0757 15.9824ZM13.3641 18.2645C12.587 19.3007 12.69 20.7506 13.6058 21.6665L15.7272 19.5452C15.867 19.685 15.8827 19.9064 15.7641 20.0645L13.3641 18.2645ZM13.6058 21.6665C13.9177 21.9784 14.0138 22.4462 13.8499 22.8557L16.6354 23.9699C17.2449 22.4461 16.8877 20.7057 15.7272 19.5452L13.6058 21.6665ZM13.8499 22.8557L13.5423 23.6248L16.3277 24.739L16.6354 23.9699L13.8499 22.8557ZM24.0392 21.518C25.1183 19.9484 25.75 18.0457 25.75 16H22.75C22.75 17.4197 22.3134 18.7329 21.5671 19.8184L24.0392 21.518ZM25.75 16C25.75 11.8063 23.103 8.23458 19.3936 6.85726L18.3494 9.66965C20.9213 10.6246 22.75 13.1006 22.75 16H25.75ZM17.372 8.30218C17.3892 8.96695 17.1103 9.61379 16.5981 10.0587L18.5654 12.3236C19.7611 11.285 20.4111 9.77571 20.371 8.22473L17.372 8.30218ZM16.5981 10.0587C16.5684 10.0845 16.5321 10.1138 16.434 10.1923L18.308 12.535C18.3915 12.4682 18.4802 12.3976 18.5654 12.3236L16.5981 10.0587ZM16.4107 10.2113L16.4107 10.2113L18.3312 12.516L18.3313 12.516L16.4107 10.2113ZM16.434 10.1923L16.4217 10.2021L18.2957 12.5448L18.308 12.535L16.434 10.1923ZM16.4217 10.2022L16.2783 10.3169L18.1524 12.6595L18.2958 12.5448L16.4217 10.2022ZM16.2783 10.3169C15.9278 10.5972 15.4924 10.75 15.0436 10.75V13.75C16.1736 13.75 17.27 13.3654 18.1524 12.6595L16.2783 10.3169ZM15.0436 10.75C13.8225 10.75 12.6909 11.3907 12.0627 12.4378L14.6352 13.9813C14.7213 13.8378 14.8763 13.75 15.0436 13.75V10.75ZM12.0627 12.4378L12.0221 12.5053L14.5946 14.0488L14.6352 13.9813L12.0627 12.4378ZM13.0458 14.7539C13.1619 14.7745 13.25 14.8785 13.25 15L16.25 15C16.25 13.3989 15.0938 12.071 13.571 11.8002L13.0458 14.7539ZM13.25 15C13.25 15.9665 14.0335 16.75 15 16.75L15 13.75C15.6904 13.75 16.25 14.3096 16.25 15L13.25 15ZM15 16.75H16L16 13.75H15L15 16.75ZM16 16.75C15.9194 16.75 15.8393 16.737 15.7628 16.7115L16.7115 13.8654C16.4821 13.789 16.2418 13.75 16 13.75L16 16.75ZM15.7628 16.7115L17.3841 17.2519L18.3328 14.4059L16.7115 13.8654L15.7628 16.7115ZM17.3843 17.252L17.4434 17.2717L18.3917 14.4255L18.3326 14.4058L17.3843 17.252ZM17.4435 17.2717C17.9337 17.435 18.1123 17.4994 18.2647 17.5822L19.6981 14.9468C19.266 14.7118 18.8131 14.5659 18.3916 14.4255L17.4435 17.2717ZM18.2647 17.5822C18.4198 17.6666 18.5645 17.769 18.6957 17.8872L20.7038 15.6584C20.3976 15.3826 20.0601 15.1437 19.6981 14.9468L18.2647 17.5822ZM18.6957 17.8872C18.8246 18.0033 18.9447 18.1503 19.2618 18.5582L21.6302 16.7168C21.3575 16.3661 21.0692 15.9876 20.7038 15.6584L18.6957 17.8872ZM19.2618 18.5583L19.3001 18.6075L21.6684 16.766L21.6302 16.7167L19.2618 18.5583ZM19.3002 18.6076L21.6192 21.5891L23.9872 19.7473L21.6683 16.7658L19.3002 18.6076ZM7.75 16C7.75 11.4436 11.4437 7.74998 16 7.74998V4.74998C9.7868 4.74998 4.75 9.78678 4.75 16H7.75ZM16 24.25C11.4437 24.25 7.75 20.5563 7.75 16H4.75C4.75 22.2132 9.7868 27.25 16 27.25V24.25ZM24.25 16C24.25 20.5563 20.5563 24.25 16 24.25V27.25C22.2132 27.25 27.25 22.2132 27.25 16H24.25ZM16 7.74998C20.5563 7.74998 24.25 11.4436 24.25 16H27.25C27.25 9.78678 22.2132 4.74998 16 4.74998V7.74998Z" fill="white"/>
<path fill-rule="evenodd" clip-rule="evenodd" d="M10.684 9.69085C12.1197 8.47982 13.9746 7.74998 16 7.74998C16.4475 7.74998 16.8867 7.78562 17.3149 7.8542C17.3194 7.87349 17.3228 7.88856 17.3258 7.90297C17.4912 8.70026 17.2129 9.52471 16.5981 10.0587C16.5665 10.0861 16.5294 10.116 16.4217 10.2022L16.2783 10.3169C15.9278 10.5972 15.4924 10.75 15.0436 10.75C13.8225 10.75 12.6909 11.3907 12.0627 12.4378L12.0598 12.4426L10.684 9.69085ZM9.57419 10.8254C8.43312 12.2406 7.75 14.0405 7.75 16C7.75 19.6673 10.1429 22.7758 13.4526 23.8492L13.8499 22.8557C14.0138 22.4462 13.9177 21.9784 13.6058 21.6665C12.69 20.7506 12.587 19.3007 13.3641 18.2645L14.5448 16.6902C13.799 16.4899 13.25 15.809 13.25 15C13.25 14.8619 13.1381 14.75 13 14.75H12C11.7159 14.75 11.4562 14.5895 11.3292 14.3354L9.57419 10.8254ZM14.935 24.1819C15.2837 24.2268 15.6391 24.25 16 24.25C18.2712 24.25 20.3281 23.3322 21.82 21.8473L19.3002 18.6076C18.9527 18.1608 18.8322 18.0102 18.6957 17.8872C18.5645 17.769 18.4198 17.6666 18.2647 17.5822C18.1033 17.4945 17.921 17.4309 17.3841 17.2519L16.2757 16.8824L14.5641 19.1645C14.2348 19.6035 14.2785 20.2178 14.6665 20.6058C15.4027 21.342 15.6293 22.4461 15.2427 23.4128L14.935 24.1819ZM22.8032 20.6682C23.7158 19.3407 24.25 17.7327 24.25 16C24.25 12.4535 22.0122 9.4296 18.8715 8.26346C18.9001 9.37133 18.4357 10.4494 17.5817 11.1911C17.5243 11.241 17.4618 11.291 17.371 11.3637L17.371 11.3637L17.3587 11.3735L17.2153 11.4882C16.5989 11.9813 15.833 12.25 15.0436 12.25C14.3494 12.25 13.7061 12.6142 13.3489 13.2095L13.3084 13.2771C14.1278 13.4228 14.75 14.1387 14.75 15C14.75 15.1381 14.8619 15.25 15 15.25H16C16.0806 15.25 16.1607 15.263 16.2372 15.2885L17.8584 15.8289L17.9176 15.8486C18.3734 16.0004 18.6891 16.1056 18.9814 16.2645C19.2399 16.4052 19.481 16.5758 19.6997 16.7728C19.9469 16.9955 20.1511 17.2582 20.446 17.6375L20.4843 17.6867L22.8032 20.6682ZM16 6.24998C10.6152 6.24998 6.25 10.6152 6.25 16C6.25 21.3848 10.6152 25.75 16 25.75C21.3848 25.75 25.75 21.3848 25.75 16C25.75 10.6152 21.3848 6.24998 16 6.24998Z" fill="#151E28"/>
</svg>
