<svg viewBox="0 0 32 32" fill="none" xmlns="http://www.w3.org/2000/svg">
<path fill-rule="evenodd" clip-rule="evenodd" d="M17 9V10C17 8.89543 17.8954 8 19 8C20.1046 8 21 8.89543 21 10V13C21 13.2633 20.9491 13.5146 20.8567 13.7448C20.905 13.7583 20.9528 13.7717 21 13.7853V13C21 11.8954 21.8954 11 23 11C24.1046 11 25 11.8954 25 13V14C25 14.7404 24.5977 15.3868 23.9997 15.7326V18.5756C23.9997 20.1279 23.383 21.6166 22.2854 22.7143C21.4622 23.5375 20.9997 24.6541 20.9997 25.8183V26H10.9997C10.9997 24.7194 10.4856 23.4859 9.58012 22.5804C8.55968 21.56 7.90252 20.2226 7.72352 18.7906L7.65848 18.2703C7.30867 15.4718 9.49073 13 12.311 13H13V12L9 14V10C9 8.89543 9.89543 8 11 8C12.1046 8 13 8.89543 13 10V9C13 7.89543 13.8954 7 15 7C16.1046 7 17 7.89543 17 9ZM15.1456 13C15.7972 13 16.4162 13.0265 17.0013 13.0734C17.0004 13.0491 17 13.0246 17 13H15.1456Z" fill="white"/>
<path d="M12.558 7.73376L11.7071 8.96902C12.0613 9.21305 12.5033 9.29326 12.9207 9.18927C13.338 9.08528 13.6907 8.8071 13.8891 8.4254L12.558 7.73376ZM8.25284 14.0679L9.37215 15.0665C9.64828 14.757 9.78391 14.3469 9.74683 13.9338L8.25284 14.0679ZM6.91438 18.3633L8.4028 18.1772L8.4028 18.1772L6.91438 18.3633ZM6.97942 18.8836L5.491 19.0697L5.491 19.0697L6.97942 18.8836ZM9.0499 23.1108L10.1106 22.0501L10.1106 22.0501L9.0499 23.1108ZM10.4695 26.5303L11.5301 25.4697L11.5301 25.4697L10.4695 26.5303ZM22.8158 23.2446L23.8765 24.3053L23.8765 24.3053L22.8158 23.2446ZM21.7552 22.184L20.6945 21.1233L20.6945 21.1233L21.7552 22.184ZM20.2813 25.25V26.75C21.0456 26.75 21.6876 26.1754 21.7721 25.4158L20.2813 25.25ZM11.6988 25.25L10.2126 25.4528C10.314 26.196 10.9488 26.75 11.6988 26.75V25.25ZM10.1106 22.0501L9.0499 23.1108L9.0499 23.1108L10.1106 22.0501ZM8.4028 18.1772L9.89122 17.9912L9.89122 17.9912L8.4028 18.1772ZM12.3111 13.75L12.3111 12.25L12.3111 12.25L12.3111 13.75ZM15.1457 13.75L15.1457 12.25L15.1457 12.25L15.1457 13.75ZM15.6395 15.8416L14.9686 14.5L14.9686 14.5L15.6395 15.8416ZM12.6789 17.3219L13.3215 18.6773C13.3309 18.6728 13.3404 18.6682 13.3497 18.6636L12.6789 17.3219ZM12.5834 17.3761L13.4145 18.6248L13.4173 18.623L12.5834 17.3761ZM12.2556 17.9063L10.7675 17.7174L10.7675 17.7175L12.2556 17.9063ZM12.2697 18.1725L13.7298 17.8288L13.7293 17.8263L12.2697 18.1725ZM12.376 18.4165L11.1293 19.2506L11.1293 19.2506L12.376 18.4165ZM12.9065 18.7442L13.0945 17.2561L13.0913 17.2557L12.9065 18.7442ZM13.0138 18.75L13.023 17.2501C13.0109 17.25 12.9989 17.2501 12.9868 17.2503L13.0138 18.75ZM15.0097 17.8336L14.3389 16.4919C13.8555 16.7336 13.5395 17.2167 13.5117 17.7564C13.4839 18.2962 13.7486 18.8091 14.2047 19.0992L15.0097 17.8336ZM16.3103 17.1833L15.6395 15.8416L15.6395 15.8416L16.3103 17.1833ZM17.6882 15.4176L18.4046 14.0998C17.9908 13.8748 17.4952 13.8573 17.0665 14.0526C16.6377 14.2478 16.3256 14.6332 16.2237 15.0931L17.6882 15.4176ZM20.558 15.2662L21.8891 14.5746C21.6907 14.1929 21.338 13.9147 20.9207 13.8107C20.5033 13.7067 20.0613 13.787 19.7071 14.031L20.558 15.2662ZM21.7498 10.5499H20.2498C20.2498 11.0721 20.5214 11.5568 20.9669 11.8293C21.4124 12.1019 21.9675 12.1232 22.4326 11.8855L21.7498 10.5499ZM17.4416 7.73376L16.1106 8.4254C16.3089 8.8071 16.6616 9.08528 17.079 9.18927C17.4964 9.29326 17.9383 9.21305 18.2925 8.96902L17.4416 7.73376ZM16.2498 12.495L15.6131 13.8531C16.0777 14.0709 16.6214 14.0361 17.0544 13.7609C17.4875 13.4856 17.7498 13.0081 17.7498 12.495H16.2498ZM13.7498 12.25H12.2498C12.2498 13.0784 12.9214 13.75 13.7498 13.75V12.25ZM12.2498 12.2503L12.2662 13.7502C13.0882 13.7412 13.7498 13.0723 13.7498 12.2503H12.2498ZM9.7498 12.8886H8.2498C8.2498 13.4159 8.52661 13.9044 8.97889 14.1754C9.43116 14.4464 9.9925 14.46 10.4574 14.2113L9.7498 12.8886ZM13.8891 8.4254C14.0992 8.02093 14.5191 7.75 14.9998 7.75V4.75C13.3562 4.75 11.933 5.68343 11.227 7.04212L13.8891 8.4254ZM10.9998 8.75C11.2648 8.75 11.5064 8.83079 11.7071 8.96902L13.409 6.4985C12.7238 6.02649 11.8918 5.75 10.9998 5.75V8.75ZM9.7498 10C9.7498 9.30964 10.3094 8.75 10.9998 8.75V5.75C8.65259 5.75 6.7498 7.65279 6.7498 10H9.7498ZM9.7498 14V10H6.7498L6.7498 14H9.7498ZM9.74683 13.9338C9.74882 13.956 9.7498 13.9781 9.7498 14H6.7498C6.7498 14.0677 6.75284 14.1351 6.75884 14.202L9.74683 13.9338ZM8.4028 18.1772C8.25487 16.9938 8.64327 15.8835 9.37215 15.0665L7.13352 13.0693C5.85602 14.5013 5.16554 16.466 5.42596 18.5494L8.4028 18.1772ZM8.46784 18.6976L8.4028 18.1772L5.42596 18.5494L5.491 19.0697L8.46784 18.6976ZM10.1106 22.0501C9.20733 21.1469 8.62602 19.963 8.46784 18.6976L5.491 19.0697C5.73244 21.0011 6.61717 22.7993 7.98924 24.1714L10.1106 22.0501ZM11.7498 26C11.7498 24.5193 11.1559 23.0954 10.1106 22.0501L7.98924 24.1714C8.47542 24.6576 8.74981 25.3199 8.74981 26H11.7498ZM11.5301 25.4697C11.6708 25.6103 11.7498 25.8011 11.7498 26H8.74981C8.74981 26.5967 8.98686 27.169 9.40882 27.591L11.5301 25.4697ZM10.9998 25.25C11.1987 25.25 11.3895 25.329 11.5301 25.4697L9.40881 27.591C9.83077 28.0129 10.4031 28.25 10.9998 28.25V25.25ZM20.9998 25.25H10.9998V28.25H20.9998V25.25ZM20.2498 26C20.2498 25.5858 20.5856 25.25 20.9998 25.25V28.25C22.2424 28.25 23.2498 27.2426 23.2498 26L20.2498 26ZM20.2498 25.8183V26L23.2498 26V25.8183L20.2498 25.8183ZM21.7552 22.184C20.7913 23.1478 20.2498 24.4551 20.2498 25.8183L23.2498 25.8183C23.2498 25.2508 23.4752 24.7065 23.8765 24.3053L21.7552 22.184ZM23.2498 18.5756C23.2498 19.929 22.7122 21.227 21.7552 22.184L23.8765 24.3053C25.3961 22.7857 26.2498 20.7247 26.2498 18.5756H23.2498ZM23.2498 18V18.5756H26.2498V18H23.2498ZM23.9998 18.75C23.5856 18.75 23.2498 18.4142 23.2498 18H26.2498C26.2498 16.7574 25.2424 15.75 23.9998 15.75V18.75ZM24.7498 18C24.7498 18.4142 24.414 18.75 23.9998 18.75V15.75C22.7572 15.75 21.7498 16.7574 21.7498 18H24.7498ZM24.7498 18.5756V18H21.7498V18.5756H24.7498ZM22.8158 23.2446C24.0541 22.0063 24.7498 20.3268 24.7498 18.5756H21.7498C21.7498 19.5312 21.3702 20.4476 20.6945 21.1233L22.8158 23.2446ZM21.7721 25.4158C21.863 24.5986 22.2288 23.8316 22.8159 23.2446L20.6945 21.1233C19.6236 22.1942 18.9563 23.5933 18.7905 25.0842L21.7721 25.4158ZM11.6988 26.75H20.2813V23.75H11.6988V26.75ZM9.0499 23.1108C9.68479 23.7456 10.0924 24.572 10.2126 25.4528L13.1851 25.0472C12.9764 23.5185 12.2708 22.0891 11.1712 20.9894L9.0499 23.1108ZM6.97942 18.8836C7.17923 20.4821 7.91224 21.9731 9.0499 23.1108L11.1712 20.9894C10.5024 20.3206 10.0728 19.444 9.95625 18.5115L6.97942 18.8836ZM6.91438 18.3633L6.97942 18.8836L9.95625 18.5115L9.89122 17.9912L6.91438 18.3633ZM12.3111 12.25C9.03972 12.25 6.50862 15.1172 6.91438 18.3633L9.89122 17.9912C9.70927 16.5356 10.8442 15.25 12.3111 15.25L12.3111 12.25ZM15.1457 12.25L12.3111 12.25L12.3111 15.25L15.1457 15.25L15.1457 12.25ZM17.7498 14.8541C17.7498 13.4159 16.5839 12.25 15.1457 12.25L15.1457 15.25C14.9271 15.25 14.7498 15.0727 14.7498 14.8541L17.7498 14.8541ZM16.3103 17.1833C17.1925 16.7422 17.7498 15.8405 17.7498 14.8541L14.7498 14.8541C14.7498 14.7041 14.8345 14.5671 14.9686 14.5L16.3103 17.1833ZM13.3497 18.6636L16.3103 17.1833L14.9686 14.5L12.0081 15.9803L13.3497 18.6636ZM13.4173 18.623C13.387 18.6432 13.355 18.6614 13.3215 18.6773L12.0364 15.9665C11.9363 16.0139 11.8405 16.0684 11.7496 16.1292L13.4173 18.623ZM13.7437 18.0951C13.7175 18.3017 13.6035 18.499 13.4145 18.6248L11.7523 16.1274C11.1926 16.5 10.8472 17.0893 10.7675 17.7174L13.7437 18.0951ZM13.7293 17.8263C13.7506 17.9165 13.7548 18.0077 13.7437 18.0951L10.7675 17.7175C10.7342 17.98 10.7468 18.2514 10.8102 18.5186L13.7293 17.8263ZM13.6227 17.5824C13.6716 17.6555 13.7086 17.7388 13.7298 17.8288L10.8096 18.5161C10.8724 18.783 10.9824 19.031 11.1293 19.2506L13.6227 17.5824ZM13.0913 17.2557C13.3167 17.2837 13.5068 17.4092 13.6227 17.5824L11.1293 19.2506C11.4815 19.7771 12.0541 20.1499 12.7217 20.2328L13.0913 17.2557ZM12.9868 17.2503C13.0232 17.2496 13.0592 17.2516 13.0945 17.2561L12.7184 20.2324C12.8247 20.2458 12.9324 20.2518 13.0408 20.2498L12.9868 17.2503ZM16.7498 21C16.7498 18.9367 15.0835 17.2627 13.023 17.2501L13.0047 20.25C13.4165 20.2525 13.7498 20.5874 13.7498 21H16.7498ZM15.9998 20.25C16.414 20.25 16.7498 20.5858 16.7498 21H13.7498C13.7498 22.2426 14.7572 23.25 15.9998 23.25V20.25ZM15.2498 21C15.2498 20.5858 15.5856 20.25 15.9998 20.25V23.25C17.2424 23.25 18.2498 22.2426 18.2498 21H15.2498ZM14.2047 19.0992C14.8362 19.5009 15.2498 20.2027 15.2498 21H18.2498C18.2498 19.1342 17.2754 17.497 15.8148 16.5679L14.2047 19.0992ZM15.6395 15.8416L14.3389 16.4919L15.6805 19.1752L16.9811 18.5249L15.6395 15.8416ZM16.2237 15.0931C16.1526 15.414 15.9404 15.6912 15.6395 15.8416L16.9811 18.5249C18.1012 17.9649 18.8885 16.934 19.1526 15.7422L16.2237 15.0931ZM18.9998 14.25C18.7813 14.25 18.5801 14.1952 18.4046 14.0998L16.9717 16.7355C17.5759 17.064 18.2684 17.25 18.9998 17.25V14.25ZM19.7071 14.031C19.5064 14.1692 19.2648 14.25 18.9998 14.25V17.25C19.8918 17.25 20.7238 16.9735 21.409 16.5015L19.7071 14.031ZM22.9998 15.25C22.5191 15.25 22.0992 14.9791 21.8891 14.5746L19.227 15.9579C19.933 17.3166 21.3562 18.25 22.9998 18.25V15.25ZM24.2498 14C24.2498 14.6904 23.6902 15.25 22.9998 15.25V18.25C25.347 18.25 27.2498 16.3472 27.2498 14L24.2498 14ZM24.2498 13V14L27.2498 14V13L24.2498 13ZM22.9998 11.75C23.6902 11.75 24.2498 12.3096 24.2498 13L27.2498 13C27.2498 10.6528 25.347 8.75 22.9998 8.75V11.75ZM22.4326 11.8855C22.6011 11.7993 22.7925 11.75 22.9998 11.75V8.75C22.3069 8.75 21.6485 8.91699 21.067 9.21425L22.4326 11.8855ZM20.2498 10V10.5499H23.2498V10H20.2498ZM18.9998 8.75C19.6902 8.75 20.2498 9.30964 20.2498 10H23.2498C23.2498 7.65279 21.347 5.75 18.9998 5.75V8.75ZM18.2925 8.96902C18.4932 8.83079 18.7348 8.75 18.9998 8.75V5.75C18.1078 5.75 17.2758 6.02649 16.5906 6.4985L18.2925 8.96902ZM14.9998 7.75C15.4805 7.75 15.9004 8.02093 16.1106 8.4254L18.7726 7.04212C18.0666 5.68343 16.6435 4.75 14.9998 4.75V7.75ZM12.2498 10L12.2498 12H15.2498V10H12.2498ZM12.2498 9V10H15.2498V9H12.2498ZM14.9998 6.25C13.481 6.25 12.2498 7.48122 12.2498 9H15.2498C15.2498 9.13807 15.1379 9.25 14.9998 9.25V6.25ZM17.7498 9C17.7498 7.48122 16.5186 6.25 14.9998 6.25V9.25C14.8617 9.25 14.7498 9.13807 14.7498 9L17.7498 9ZM17.7498 10V9L14.7498 9V10L17.7498 10ZM17.7498 12.495V10L14.7498 10L14.7498 12.495H17.7498ZM15.1457 13.75C15.3158 13.75 15.473 13.7874 15.6131 13.8531L16.8865 11.1368C16.3562 10.8882 15.765 10.75 15.1457 10.75V13.75ZM13.7498 13.75H15.1457V10.75H13.7498V13.75ZM12.2498 12V12.25H15.2498V12H12.2498ZM13.7498 12L13.7498 10H10.7498V12H13.7498ZM13.7498 12.2503V12H10.7498V12.2503H13.7498ZM10.4574 14.2113C10.9931 13.9247 11.6057 13.7575 12.2662 13.7502L12.2334 10.7504C11.079 10.7631 9.99342 11.0572 9.04222 11.566L10.4574 14.2113ZM8.2498 10V12.8886H11.2498L11.2498 10H8.2498ZM10.9998 7.25C9.48102 7.25 8.2498 8.48122 8.2498 10H11.2498C11.2498 10.1381 11.1379 10.25 10.9998 10.25V7.25ZM13.7498 10C13.7498 8.48122 12.5186 7.25 10.9998 7.25V10.25C10.8617 10.25 10.7498 10.1381 10.7498 10H13.7498ZM19.2498 13V10L16.2498 10V13L19.2498 13ZM18.9998 12.75C19.1379 12.75 19.2498 12.8619 19.2498 13L16.2498 13C16.2498 14.5188 17.481 15.75 18.9998 15.75L18.9998 12.75ZM18.7498 13C18.7498 12.8619 18.8617 12.75 18.9998 12.75L18.9998 15.75C20.5186 15.75 21.7498 14.5188 21.7498 13L18.7498 13ZM18.7498 10V13L21.7498 13V10H18.7498ZM18.9998 10.25C18.8617 10.25 18.7498 10.1381 18.7498 10H21.7498C21.7498 8.48122 20.5186 7.25 18.9998 7.25V10.25ZM19.2498 10C19.2498 10.1381 19.1379 10.25 18.9998 10.25V7.25C17.481 7.25 16.2498 8.48122 16.2498 10L19.2498 10ZM20.2498 13V14H23.2498V13H20.2498ZM22.9998 10.25C21.481 10.25 20.2498 11.4812 20.2498 13H23.2498C23.2498 13.1381 23.1379 13.25 22.9998 13.25V10.25ZM25.7498 13C25.7498 11.4812 24.5186 10.25 22.9998 10.25V13.25C22.8617 13.25 22.7498 13.1381 22.7498 13H25.7498ZM25.7498 14V13H22.7498V14H25.7498ZM22.9998 16.75C24.5186 16.75 25.7498 15.5188 25.7498 14H22.7498C22.7498 13.8619 22.8617 13.75 22.9998 13.75V16.75ZM20.2498 14C20.2498 15.5188 21.481 16.75 22.9998 16.75V13.75C23.1379 13.75 23.2498 13.8619 23.2498 14H20.2498Z" fill="white"/>
<path fill-rule="evenodd" clip-rule="evenodd" d="M14.9998 6.25C13.9376 6.25 13.0161 6.85218 12.558 7.73376C12.1151 7.42864 11.5783 7.25 10.9998 7.25C9.48102 7.25 8.2498 8.48122 8.2498 10V14C8.2498 14.0229 8.25083 14.0455 8.25284 14.0679C7.24965 15.1924 6.71021 16.7299 6.91438 18.3633L6.97942 18.8836C7.17923 20.4821 7.91225 21.9731 9.0499 23.1108C9.81563 23.8765 10.2498 24.9196 10.2498 26C10.2498 26.4142 10.5856 26.75 10.9998 26.75C11.414 26.75 11.7498 26.4142 11.7498 26C11.7498 24.5193 11.1558 23.0954 10.1106 22.0501C9.20734 21.1469 8.62602 19.963 8.46784 18.6976L8.4028 18.1772C8.10894 15.8264 9.94197 13.75 12.3111 13.75L15.1457 13.75C15.7555 13.75 16.2498 14.2443 16.2498 14.8541C16.2498 15.2723 16.0135 15.6546 15.6395 15.8416L12.6789 17.3219C12.6457 17.3377 12.6138 17.3558 12.5834 17.3761C12.3981 17.4995 12.2823 17.6955 12.2556 17.9063C12.2445 17.9938 12.2487 18.084 12.2697 18.1725C12.2905 18.2609 12.327 18.3433 12.376 18.4165C12.4942 18.5932 12.6854 18.7168 12.9065 18.7442C12.9419 18.7487 12.9778 18.7507 13.0138 18.75C14.25 18.7576 15.2498 19.762 15.2498 21C15.2498 21.4142 15.5856 21.75 15.9998 21.75C16.414 21.75 16.7498 21.4142 16.7498 21C16.7498 19.6684 16.0558 18.4989 15.0097 17.8336L16.3103 17.1833C17.0208 16.828 17.5206 16.174 17.6882 15.4176C18.078 15.6296 18.5249 15.75 18.9998 15.75C19.5783 15.75 20.1151 15.5714 20.558 15.2662C21.0161 16.1478 21.9376 16.75 22.9998 16.75C24.5186 16.75 25.7498 15.5188 25.7498 14V13C25.7498 11.4812 24.5186 10.25 22.9998 10.25C22.5497 10.25 22.1248 10.3581 21.7498 10.5499V10C21.7498 8.48122 20.5186 7.25 18.9998 7.25C18.4213 7.25 17.8845 7.42864 17.4416 7.73376C16.9835 6.85218 16.062 6.25 14.9998 6.25ZM13.7498 12V10V9C13.7498 8.30964 14.3094 7.75 14.9998 7.75C15.6902 7.75 16.2498 8.30964 16.2498 9V10V12.495C15.9146 12.3378 15.5404 12.25 15.1457 12.25H13.7498V12ZM12.2498 10V12V12.2503C11.3424 12.2603 10.4933 12.4909 9.7498 12.8886V10C9.7498 9.30964 10.3094 8.75 10.9998 8.75C11.6902 8.75 12.2498 9.30964 12.2498 10ZM17.7498 10V13C17.7498 13.6904 18.3094 14.25 18.9998 14.25C19.6902 14.25 20.2498 13.6904 20.2498 13V10C20.2498 9.30964 19.6902 8.75 18.9998 8.75C18.3094 8.75 17.7498 9.30964 17.7498 10ZM21.7498 14V13C21.7498 12.3096 22.3094 11.75 22.9998 11.75C23.6902 11.75 24.2498 12.3096 24.2498 13V14C24.2498 14.6904 23.6902 15.25 22.9998 15.25C22.3094 15.25 21.7498 14.6904 21.7498 14ZM24.7498 18C24.7498 17.5858 24.414 17.25 23.9998 17.25C23.5856 17.25 23.2498 17.5858 23.2498 18V18.5756C23.2498 19.929 22.7122 21.227 21.7552 22.184C20.7913 23.1478 20.2498 24.4551 20.2498 25.8183V26C20.2498 26.4142 20.5856 26.75 20.9998 26.75C21.414 26.75 21.7498 26.4142 21.7498 26V25.8183C21.7498 24.853 22.1333 23.9272 22.8158 23.2446C24.0541 22.0063 24.7498 20.3268 24.7498 18.5756V18Z" fill="#151E28"/>
</svg>
