<svg viewBox="0 0 32 32" fill="none" xmlns="http://www.w3.org/2000/svg">
<path d="M18.6 25H13.4C11.1598 25 10.0397 25 9.18404 24.564C8.43139 24.1805 7.81947 23.5686 7.43597 22.816C7 21.9603 7 20.8402 7 18.6V13.4C7 11.1598 7 10.0397 7.43597 9.18404C7.81947 8.43139 8.43139 7.81947 9.18404 7.43597C10.0397 7 11.1598 7 13.4 7H18.6C20.8402 7 21.9603 7 22.816 7.43597C23.5686 7.81947 24.1805 8.43139 24.564 9.18404C25 10.0397 25 11.1598 25 13.4V18.6C25 20.8402 25 21.9603 24.564 22.816C24.1805 23.5686 23.5686 24.1805 22.816 24.564C21.9603 25 20.8402 25 18.6 25Z" fill="white"/>
<path d="M18.633 6.25L18.633 7.75L18.633 7.75L18.633 6.25ZM13.367 6.25L13.367 7.75H13.367V6.25ZM10.7117 6.30699L10.8339 7.80201L10.8339 7.80201L10.7117 6.30699ZM8.84355 6.76772L9.52453 8.10423L9.52453 8.10423L8.84355 6.76772ZM6.76772 8.84355L8.10423 9.52453L8.10423 9.52453L6.76772 8.84355ZM6.30699 10.7117L4.81197 10.5896L4.81197 10.5896L6.30699 10.7117ZM6.25 13.367L7.75 13.367L7.75 13.367L6.25 13.367ZM6.25 18.633L7.75 18.633V18.633H6.25ZM6.30699 21.2883L4.81197 21.4104L4.81197 21.4104L6.30699 21.2883ZM6.76772 23.1565L8.10423 22.4755L8.10423 22.4755L6.76772 23.1565ZM8.84355 25.2323L9.52453 23.8958L9.52453 23.8958L8.84355 25.2323ZM10.7117 25.693L10.5896 27.188L10.5896 27.188L10.7117 25.693ZM13.367 25.75L13.367 24.25L13.367 24.25L13.367 25.75ZM18.633 25.75L18.633 24.25H18.633V25.75ZM21.2883 25.693L21.4104 27.188L21.4104 27.188L21.2883 25.693ZM23.1565 25.2323L22.4755 23.8958L22.4755 23.8958L23.1565 25.2323ZM25.2323 23.1565L23.8958 22.4755L23.8958 22.4755L25.2323 23.1565ZM25.693 21.2883L27.188 21.4104L27.188 21.4104L25.693 21.2883ZM25.75 18.633L24.25 18.633L24.25 18.633L25.75 18.633ZM25.75 13.367L24.25 13.367V13.367H25.75ZM25.693 10.7117L27.188 10.5896L27.188 10.5896L25.693 10.7117ZM25.2323 8.84355L23.8958 9.52453L23.8958 9.52453L25.2323 8.84355ZM23.1565 6.76772L22.4755 8.10423L22.4755 8.10423L23.1565 6.76772ZM21.2883 6.30699L21.1661 7.80201L21.1661 7.80201L21.2883 6.30699ZM22.4755 8.10423L23.1565 6.76772L23.1565 6.76772L22.4755 8.10423ZM21.1661 7.80201L21.044 9.29702L21.044 9.29702L21.1661 7.80201ZM23.8958 9.52453L25.2323 8.84355L25.2323 8.84355L23.8958 9.52453ZM24.198 10.8339L25.693 10.7117L25.693 10.7117L24.198 10.8339ZM24.198 21.1661L25.693 21.2883L25.693 21.2883L24.198 21.1661ZM23.8958 22.4755L25.2323 23.1565L25.2323 23.1565L23.8958 22.4755ZM22.4755 23.8958L23.1565 25.2323L23.1565 25.2323L22.4755 23.8958ZM21.1661 24.198L21.2883 25.693L21.2883 25.693L21.1661 24.198ZM10.8339 24.198L10.7117 25.693L10.7117 25.693L10.8339 24.198ZM9.52453 23.8958L8.84354 25.2323L8.84355 25.2323L9.52453 23.8958ZM8.10423 22.4755L6.76772 23.1565L6.76772 23.1565L8.10423 22.4755ZM7.80201 21.1661L6.30699 21.2883L6.30699 21.2883L7.80201 21.1661ZM7.80201 10.8339L6.30699 10.7117L6.30699 10.7117L7.80201 10.8339ZM8.10423 9.52453L6.76772 8.84355L6.76772 8.84355L8.10423 9.52453ZM9.52453 8.10423L8.84355 6.76772L8.84354 6.76772L9.52453 8.10423ZM10.8339 7.80201L10.956 9.29702L10.956 9.29702L10.8339 7.80201ZM18.2439 17.1552L19.1216 18.3716L19.1216 18.3716L18.2439 17.1552ZM21.6495 17.303L20.6696 18.4387L20.6696 18.4387L21.6495 17.303ZM17.2852 18.1928L18.4375 19.1531C18.4442 19.1452 18.4507 19.1371 18.4571 19.1291L17.2852 18.1928ZM17.2852 18.1928L16.1329 17.2326C16.109 17.2612 16.0862 17.2907 16.0646 17.321L17.2852 18.1928ZM17.2852 18.1929L18.4569 19.1294C18.4738 19.1083 18.4901 19.0867 18.5058 19.0647L17.2852 18.1929ZM17.2129 18.2833L18.3842 19.2204L18.3846 19.2198L17.2129 18.2833ZM16.8129 18.7833L17.984 19.7206L17.9842 19.7203L16.8129 18.7833ZM16.809 18.7882L17.9788 19.7271L17.98 19.7255L16.809 18.7882ZM14.9517 18.891L13.8913 19.9519L13.8928 19.9534L14.9517 18.891ZM14.9473 18.8866L16.0077 17.8257L16.0074 17.8254L14.9473 18.8866ZM14.9416 18.881L16.0017 17.8198L16.0007 17.8187L14.9416 18.881ZM11.0584 18.881L9.99932 17.8187L9.99817 17.8199L11.0584 18.881ZM11.0527 18.8866L9.99254 17.8255L9.99209 17.8259L11.0527 18.8866ZM9.46967 20.4697L10.5303 21.5303L10.5303 21.5303L9.46967 20.4697ZM12.1134 19.9473L11.053 18.8863L11.0527 18.8866L12.1134 19.9473ZM12.1174 19.9432L11.0584 18.881L11.057 18.8823L12.1174 19.9432ZM13.8826 19.9432L14.943 18.8823L14.9416 18.881L13.8826 19.9432ZM13.8866 19.9473L12.8262 21.0082L12.8263 21.0083L13.8866 19.9473ZM13.8928 19.9534L12.8325 21.0145L12.8338 21.0158L13.8928 19.9534ZM17.9788 19.7271L19.1486 20.666L19.1497 20.6647L17.9788 19.7271ZM17.9842 19.7203L19.1551 20.6579L19.1555 20.6573L17.9842 19.7203ZM18.3842 19.2204L19.5555 20.1574L19.5555 20.1574L18.3842 19.2204ZM19.1216 18.3716L18.2439 17.1552L18.2439 17.1552L19.1216 18.3716ZM20.6696 18.4387L21.6495 17.303L21.6495 17.303L20.6696 18.4387ZM21.3308 19.3482L22.5788 18.5162L22.5788 18.5162L21.3308 19.3482ZM21.376 19.416L20.1279 20.2481L20.1279 20.2481L21.376 19.416ZM22.624 18.584L23.8721 17.7519L23.8721 17.7519L22.624 18.584ZM22.5788 18.5162L21.3304 19.3477L21.3308 19.3482L22.5788 18.5162ZM22.5146 18.4198L21.266 19.251L21.2662 19.2513L22.5146 18.4198ZM18.6 7.75H18.633V4.75H18.6V7.75ZM13.4 7.75L18.6 7.75V4.75L13.4 4.75V7.75ZM13.367 7.75H13.4V4.75H13.367V7.75ZM13.367 7.75H13.367V4.75H13.367V7.75ZM10.8339 7.80201C11.4566 7.75113 12.2516 7.74999 13.367 7.75L13.367 4.75C12.2981 4.74999 11.3621 4.74885 10.5896 4.81197L10.8339 7.80201ZM9.52453 8.10423C9.82913 7.94903 10.2135 7.8527 10.8339 7.80201L10.5896 4.81197C9.78321 4.87785 8.96031 5.02474 8.16256 5.43121L9.52453 8.10423ZM8.10423 9.52453C8.41582 8.913 8.913 8.41582 9.52453 8.10423L8.16256 5.43121C6.98655 6.03042 6.03042 6.98655 5.43121 8.16256L8.10423 9.52453ZM7.80201 10.8339C7.8527 10.2135 7.94903 9.82913 8.10423 9.52453L5.43121 8.16256C5.02473 8.96031 4.87785 9.78321 4.81197 10.5896L7.80201 10.8339ZM7.75 13.367C7.74999 12.2516 7.75113 11.4566 7.80201 10.8339L4.81197 10.5896C4.74885 11.3621 4.74999 12.2981 4.75 13.367L7.75 13.367ZM7.75 13.4V13.367H4.75V13.4H7.75ZM7.75 18.6V13.4H4.75V18.6H7.75ZM7.75 18.633V18.6H4.75V18.633H7.75ZM7.80201 21.1661C7.75113 20.5434 7.74999 19.7484 7.75 18.633L4.75 18.633C4.74999 19.7019 4.74885 20.6379 4.81197 21.4104L7.80201 21.1661ZM8.10423 22.4755C7.94903 22.1709 7.8527 21.7865 7.80201 21.1661L4.81197 21.4104C4.87785 22.2168 5.02473 23.0397 5.43121 23.8374L8.10423 22.4755ZM9.52453 23.8958C8.913 23.5842 8.41582 23.087 8.10423 22.4755L5.43121 23.8374C6.03042 25.0135 6.98655 25.9696 8.16256 26.5688L9.52453 23.8958ZM10.8339 24.198C10.2135 24.1473 9.82913 24.051 9.52453 23.8958L8.16256 26.5688C8.96031 26.9753 9.78321 27.1221 10.5896 27.188L10.8339 24.198ZM13.367 24.25C12.2516 24.25 11.4566 24.2489 10.8339 24.198L10.5896 27.188C11.3621 27.2511 12.2981 27.25 13.367 27.25L13.367 24.25ZM13.4 24.25H13.367V27.25H13.4V24.25ZM18.6 24.25H13.4V27.25H18.6V24.25ZM18.633 24.25H18.6V27.25H18.633V24.25ZM21.1661 24.198C20.5434 24.2489 19.7484 24.25 18.633 24.25L18.633 27.25C19.7019 27.25 20.6379 27.2511 21.4104 27.188L21.1661 24.198ZM22.4755 23.8958C22.1709 24.051 21.7865 24.1473 21.1661 24.198L21.4104 27.188C22.2168 27.1221 23.0397 26.9753 23.8374 26.5688L22.4755 23.8958ZM23.8958 22.4755C23.5842 23.087 23.087 23.5842 22.4755 23.8958L23.8374 26.5688C25.0135 25.9696 25.9696 25.0135 26.5688 23.8374L23.8958 22.4755ZM24.198 21.1661C24.1473 21.7865 24.051 22.1709 23.8958 22.4755L26.5688 23.8374C26.9753 23.0397 27.1221 22.2168 27.188 21.4104L24.198 21.1661ZM24.25 18.633C24.25 19.7484 24.2489 20.5434 24.198 21.1661L27.188 21.4104C27.2511 20.6379 27.25 19.7019 27.25 18.633L24.25 18.633ZM24.25 18.6V18.633H27.25V18.6H24.25ZM24.25 13.4V18.6H27.25V13.4H24.25ZM24.25 13.367V13.4H27.25V13.367H24.25ZM24.198 10.8339C24.2489 11.4566 24.25 12.2516 24.25 13.367L27.25 13.367C27.25 12.2981 27.2511 11.3621 27.188 10.5896L24.198 10.8339ZM23.8958 9.52453C24.051 9.82913 24.1473 10.2135 24.198 10.8339L27.188 10.5896C27.1221 9.78321 26.9753 8.96031 26.5688 8.16256L23.8958 9.52453ZM22.4755 8.10423C23.087 8.41582 23.5842 8.913 23.8958 9.52453L26.5688 8.16256C25.9696 6.98655 25.0135 6.03042 23.8374 5.43121L22.4755 8.10423ZM21.1661 7.80201C21.7865 7.8527 22.1709 7.94903 22.4755 8.10423L23.8374 5.43121C23.0397 5.02474 22.2168 4.87785 21.4104 4.81197L21.1661 7.80201ZM18.633 7.75C19.7484 7.74999 20.5434 7.75113 21.1661 7.80201L21.4104 4.81197C20.6379 4.74885 19.7019 4.74999 18.633 4.75L18.633 7.75ZM23.1565 6.76772C22.6051 6.48679 22.0013 6.36525 21.2883 6.30699L21.044 9.29702C21.5722 9.34018 21.7369 9.4114 21.7945 9.44074L23.1565 6.76772ZM25.2323 8.84355C24.7769 7.94978 24.0502 7.22312 23.1565 6.76772L21.7945 9.44074C22.1238 9.60852 22.3915 9.87623 22.5593 10.2055L25.2323 8.84355ZM25.693 10.7117C25.6348 9.99867 25.5132 9.3949 25.2323 8.84355L22.5593 10.2055C22.5886 10.2631 22.6598 10.4278 22.703 10.956L25.693 10.7117ZM25.75 13.4C25.75 12.2926 25.7506 11.4165 25.693 10.7117L22.703 10.956C22.7482 11.5101 22.75 12.2424 22.75 13.4H25.75ZM25.75 18.6V13.4H22.75V18.6H25.75ZM25.693 21.2883C25.7506 20.5835 25.75 19.7074 25.75 18.6H22.75C22.75 19.7576 22.7482 20.4899 22.703 21.044L25.693 21.2883ZM25.2323 23.1565C25.5132 22.6051 25.6348 22.0013 25.693 21.2883L22.703 21.044C22.6598 21.5722 22.5886 21.7369 22.5593 21.7945L25.2323 23.1565ZM23.1565 25.2323C24.0502 24.7769 24.7769 24.0502 25.2323 23.1565L22.5593 21.7945C22.3915 22.1238 22.1238 22.3915 21.7945 22.5593L23.1565 25.2323ZM21.2883 25.693C22.0013 25.6348 22.6051 25.5132 23.1565 25.2323L21.7945 22.5593C21.7369 22.5886 21.5722 22.6598 21.044 22.703L21.2883 25.693ZM18.6 25.75C19.7074 25.75 20.5835 25.7506 21.2883 25.693L21.044 22.703C20.4899 22.7482 19.7576 22.75 18.6 22.75V25.75ZM13.4 25.75H18.6V22.75H13.4V25.75ZM10.7117 25.693C11.4165 25.7506 12.2926 25.75 13.4 25.75V22.75C12.2424 22.75 11.5101 22.7482 10.956 22.703L10.7117 25.693ZM8.84355 25.2323C9.3949 25.5132 9.99867 25.6348 10.7117 25.693L10.956 22.703C10.4278 22.6598 10.2631 22.5886 10.2055 22.5593L8.84355 25.2323ZM6.76772 23.1565C7.22312 24.0502 7.94978 24.7769 8.84354 25.2323L10.2055 22.5593C9.87623 22.3915 9.60852 22.1238 9.44074 21.7945L6.76772 23.1565ZM6.30699 21.2883C6.36525 22.0013 6.48679 22.6051 6.76772 23.1565L9.44074 21.7945C9.4114 21.7369 9.34018 21.5722 9.29702 21.044L6.30699 21.2883ZM6.25 18.6C6.25 19.7074 6.24941 20.5835 6.30699 21.2883L9.29702 21.044C9.25176 20.4899 9.25 19.7576 9.25 18.6H6.25ZM6.25 13.4V18.6H9.25V13.4H6.25ZM6.30699 10.7117C6.24941 11.4165 6.25 12.2926 6.25 13.4H9.25C9.25 12.2424 9.25176 11.5101 9.29702 10.956L6.30699 10.7117ZM6.76772 8.84355C6.48679 9.3949 6.36525 9.99867 6.30699 10.7117L9.29702 10.956C9.34018 10.4278 9.4114 10.2631 9.44074 10.2055L6.76772 8.84355ZM8.84354 6.76772C7.94977 7.22312 7.22312 7.94978 6.76772 8.84355L9.44074 10.2055C9.60852 9.87623 9.87623 9.60852 10.2055 9.44074L8.84354 6.76772ZM10.7117 6.30699C9.99867 6.36525 9.3949 6.48679 8.84355 6.76772L10.2055 9.44074C10.2631 9.4114 10.4278 9.34018 10.956 9.29702L10.7117 6.30699ZM13.4 6.25C12.2926 6.25 11.4165 6.24941 10.7117 6.30699L10.956 9.29702C11.5101 9.25176 12.2424 9.25 13.4 9.25V6.25ZM18.6 6.25H13.4V9.25H18.6V6.25ZM21.2883 6.30699C20.5835 6.24941 19.7074 6.25 18.6 6.25V9.25C19.7576 9.25 20.4899 9.25176 21.044 9.29702L21.2883 6.30699ZM19.1216 18.3716C19.591 18.0329 20.2314 18.0607 20.6696 18.4387L22.6293 16.1672C21.1393 14.8818 18.9618 14.7873 17.3661 15.9388L19.1216 18.3716ZM18.4571 19.1291C18.8758 18.605 19.0191 18.4456 19.1216 18.3716L17.3661 15.9388C16.8561 16.3069 16.4358 16.8528 16.1133 17.2566L18.4571 19.1291ZM18.4375 19.1531L18.4375 19.1531L16.1329 17.2325L16.1329 17.2326L18.4375 19.1531ZM18.5058 19.0647L18.5058 19.0647L16.0646 17.321L16.0646 17.321L18.5058 19.0647ZM18.3846 19.2198L18.4569 19.1294L16.1135 17.2563L16.0411 17.3468L18.3846 19.2198ZM17.9842 19.7203L18.3842 19.2204L16.0416 17.3463L15.6416 17.8462L17.9842 19.7203ZM17.98 19.7255L17.984 19.7206L15.6419 17.8459L15.638 17.8508L17.98 19.7255ZM13.8928 19.9534C15.0511 21.108 16.955 21.0026 17.9788 19.7271L15.6392 17.8492C15.7323 17.7333 15.9054 17.7237 16.0107 17.8287L13.8928 19.9534ZM13.8868 19.9475L13.8913 19.9519L16.0121 17.8302L16.0077 17.8257L13.8868 19.9475ZM13.8815 19.9422L13.8871 19.9478L16.0074 17.8254L16.0017 17.8198L13.8815 19.9422ZM12.1174 19.9432C12.6053 19.4568 13.3947 19.4568 13.8826 19.9432L16.0007 17.8187C14.342 16.165 11.658 16.165 9.99932 17.8187L12.1174 19.9432ZM12.113 19.9477L12.1186 19.9421L9.99817 17.8199L9.99254 17.8255L12.113 19.9477ZM10.5303 21.5303L12.1134 19.9473L9.99209 17.8259L8.40901 19.409L10.5303 21.5303ZM10.5303 20.4697C10.8232 20.7626 10.8232 21.2374 10.5303 21.5303L8.40901 19.409C7.53033 20.2877 7.53033 21.7123 8.40901 22.591L10.5303 20.4697ZM9.46967 20.4697C9.76256 20.1768 10.2374 20.1768 10.5303 20.4697L8.40901 22.591C9.28769 23.4697 10.7123 23.4697 11.591 22.591L9.46967 20.4697ZM11.0527 18.8866L9.46967 20.4697L11.591 22.591L13.1741 21.0079L11.0527 18.8866ZM11.057 18.8823L11.053 18.8863L13.1738 21.0082L13.1779 21.0041L11.057 18.8823ZM14.9416 18.881C13.8683 17.8109 12.1317 17.8109 11.0584 18.881L13.1765 21.0055C13.0789 21.1027 12.9211 21.1027 12.8235 21.0055L14.9416 18.881ZM14.947 18.8863L14.943 18.8823L12.8221 21.0041L12.8262 21.0082L14.947 18.8863ZM14.953 18.8923L14.9468 18.8862L12.8263 21.0083L12.8325 21.0145L14.953 18.8923ZM16.809 18.7882C16.3437 19.3679 15.4782 19.4159 14.9517 18.891L12.8338 21.0158C14.6239 22.8002 17.5664 22.6372 19.1486 20.666L16.809 18.7882ZM16.8134 18.7827L16.8079 18.7895L19.1497 20.6647L19.1551 20.6579L16.8134 18.7827ZM17.2129 18.2833L16.8129 18.7833L19.1555 20.6573L19.5555 20.1574L17.2129 18.2833ZM18.2439 17.1552C18.0386 17.3033 17.8806 17.4761 17.7546 17.6214C17.622 17.7746 17.4484 17.9889 17.2129 18.2833L19.5555 20.1574C19.7972 19.8553 19.9342 19.6872 20.0219 19.586C20.1163 19.4771 20.0884 19.5237 19.9994 19.5879L18.2439 17.1552ZM21.6495 17.303C20.6854 16.4712 19.2764 16.4101 18.2439 17.1552L19.9994 19.5879C19.9055 19.6557 19.7774 19.6501 19.6898 19.5745L21.6495 17.303ZM22.5788 18.5162C22.3697 18.2025 22.2154 17.9739 22.0964 17.8098C21.9836 17.6541 21.8411 17.4683 21.6495 17.303L19.6898 19.5745C19.6067 19.5028 19.5829 19.4539 19.6676 19.5707C19.7461 19.679 19.8681 19.8584 20.0827 20.1803L22.5788 18.5162ZM22.624 18.584L22.5788 18.5162L20.0827 20.1803L20.1279 20.2481L22.624 18.584ZM21.584 18.376C21.9286 18.1462 22.3943 18.2393 22.624 18.584L20.1279 20.2481C20.8172 21.282 22.2141 21.5614 23.2481 20.8721L21.584 18.376ZM21.376 19.416C21.1462 19.0714 21.2393 18.6057 21.584 18.376L23.2481 20.8721C24.282 20.1828 24.5614 18.7859 23.8721 17.7519L21.376 19.416ZM21.3308 19.3482L21.376 19.416L23.8721 17.7519L23.8269 17.6841L21.3308 19.3482ZM21.2662 19.2513L21.3304 19.3477L23.8273 17.6847L23.7631 17.5883L21.2662 19.2513ZM20.6696 18.4387C20.7654 18.5213 20.8943 18.6926 21.266 19.251L23.7633 17.5886C23.4769 17.1584 23.1055 16.5781 22.6293 16.1672L20.6696 18.4387ZM11.75 12.7C11.75 12.1753 12.1753 11.75 12.7 11.75V8.75C10.5185 8.75 8.75 10.5185 8.75 12.7H11.75ZM11.75 13.3V12.7H8.75V13.3H11.75ZM12.7 14.25C12.1753 14.25 11.75 13.8247 11.75 13.3H8.75C8.75 15.4815 10.5185 17.25 12.7 17.25V14.25ZM13.3 14.25H12.7V17.25H13.3V14.25ZM14.25 13.3C14.25 13.8247 13.8247 14.25 13.3 14.25V17.25C15.4815 17.25 17.25 15.4815 17.25 13.3H14.25ZM14.25 12.7V13.3H17.25V12.7H14.25ZM13.3 11.75C13.8247 11.75 14.25 12.1753 14.25 12.7H17.25C17.25 10.5185 15.4815 8.75 13.3 8.75V11.75ZM12.7 11.75H13.3V8.75H12.7V11.75ZM12.7 10.25C11.3469 10.25 10.25 11.3469 10.25 12.7H13.25C13.25 13.0038 13.0038 13.25 12.7 13.25V10.25ZM13.3 10.25H12.7V13.25H13.3V10.25ZM15.75 12.7C15.75 11.3469 14.6531 10.25 13.3 10.25V13.25C12.9962 13.25 12.75 13.0038 12.75 12.7H15.75ZM15.75 13.3V12.7H12.75V13.3H15.75ZM13.3 15.75C14.6531 15.75 15.75 14.6531 15.75 13.3H12.75C12.75 12.9962 12.9962 12.75 13.3 12.75V15.75ZM12.7 15.75H13.3V12.75H12.7V15.75ZM10.25 13.3C10.25 14.6531 11.3469 15.75 12.7 15.75V12.75C13.0038 12.75 13.25 12.9962 13.25 13.3H10.25ZM10.25 12.7V13.3H13.25V12.7H10.25Z" fill="white"/>
<path fill-rule="evenodd" clip-rule="evenodd" d="M18.633 6.25H18.6H13.4H13.367H13.367C12.2749 6.24999 11.4094 6.24999 10.7117 6.30699C9.99834 6.36527 9.39472 6.48688 8.84355 6.76772C7.94978 7.22312 7.22312 7.94978 6.76772 8.84355C6.48688 9.39472 6.36527 9.99835 6.30699 10.7117C6.24999 11.4094 6.24999 12.2748 6.25 13.367V13.4V18.6V18.633C6.24999 19.7252 6.24999 20.5906 6.30699 21.2883C6.36527 22.0017 6.48688 22.6053 6.76772 23.1565C7.22312 24.0502 7.94978 24.7769 8.84355 25.2323C9.39472 25.5131 9.99834 25.6347 10.7117 25.693C11.4094 25.75 12.2748 25.75 13.367 25.75H13.4H18.6H18.633C19.7252 25.75 20.5906 25.75 21.2883 25.693C22.0017 25.6347 22.6053 25.5131 23.1565 25.2323C24.0502 24.7769 24.7769 24.0502 25.2323 23.1565C25.5131 22.6053 25.6347 22.0017 25.693 21.2883C25.75 20.5906 25.75 19.7251 25.75 18.633V18.6V13.4V13.367C25.75 12.2749 25.75 11.4094 25.693 10.7117C25.6347 9.99834 25.5131 9.39472 25.2323 8.84355C24.7769 7.94978 24.0502 7.22312 23.1565 6.76772C22.6053 6.48688 22.0017 6.36527 21.2883 6.30699C20.5906 6.24999 19.7251 6.24999 18.633 6.25ZM21.1661 7.80201C21.7867 7.85271 22.171 7.94909 22.4755 8.10423C23.087 8.41582 23.5842 8.913 23.8958 9.52453C24.0509 9.829 24.1473 10.2133 24.198 10.8339C24.2494 11.4633 24.25 12.2675 24.25 13.4V18.6C24.25 19.7325 24.2494 20.5367 24.198 21.1661C24.1473 21.7867 24.0509 22.171 23.8958 22.4755C23.5842 23.087 23.087 23.5842 22.4755 23.8958C22.171 24.0509 21.7867 24.1473 21.1661 24.198C20.5367 24.2494 19.7325 24.25 18.6 24.25H13.4C12.2675 24.25 11.4633 24.2494 10.8339 24.198C10.2133 24.1473 9.829 24.0509 9.52453 23.8958C8.913 23.5842 8.41582 23.087 8.10423 22.4755C7.94909 22.171 7.85271 21.7867 7.80201 21.1661C7.75058 20.5367 7.75 19.7325 7.75 18.6V13.4C7.75 12.2675 7.75058 11.4633 7.80201 10.8339C7.85271 10.2133 7.94909 9.829 8.10423 9.52453C8.41582 8.913 8.913 8.41582 9.52453 8.10423C9.829 7.94909 10.2133 7.85271 10.8339 7.80201C11.4633 7.75058 12.2675 7.75 13.4 7.75H18.6C19.7325 7.75 20.5367 7.75058 21.1661 7.80201ZM21.6495 17.303C20.6854 16.4712 19.2764 16.4101 18.2439 17.1552C17.9376 17.3762 17.6558 17.7289 17.2852 18.1928L17.2852 18.1928L17.2852 18.1929L17.2129 18.2833L16.8129 18.7833L16.809 18.7882C16.3437 19.3679 15.4782 19.4159 14.9517 18.891L14.9473 18.8866L14.9416 18.881C13.8683 17.8109 12.1317 17.8109 11.0584 18.881L11.0527 18.8866L9.46967 20.4697C9.17678 20.7626 9.17678 21.2374 9.46967 21.5303C9.76256 21.8232 10.2374 21.8232 10.5303 21.5303L12.1134 19.9473L12.1174 19.9432C12.6053 19.4568 13.3947 19.4568 13.8826 19.9432L13.8866 19.9473L13.8928 19.9534C15.0511 21.108 16.955 21.0026 17.9788 19.7271L17.9842 19.7203L18.3842 19.2204C18.8614 18.6238 19.0054 18.4555 19.1216 18.3716C19.591 18.0329 20.2314 18.0607 20.6696 18.4387C20.7782 18.5324 20.907 18.7126 21.3308 19.3482L21.376 19.416C21.6057 19.7607 22.0714 19.8538 22.416 19.624C22.7607 19.3943 22.8538 18.9286 22.624 18.584L22.5788 18.5162L22.5146 18.4198C22.1856 17.9255 21.9354 17.5497 21.6495 17.303ZM12.7 10.25C11.3469 10.25 10.25 11.3469 10.25 12.7V13.3C10.25 14.6531 11.3469 15.75 12.7 15.75H13.3C14.6531 15.75 15.75 14.6531 15.75 13.3V12.7C15.75 11.3469 14.6531 10.25 13.3 10.25H12.7ZM11.75 12.7C11.75 12.1753 12.1753 11.75 12.7 11.75H13.3C13.8247 11.75 14.25 12.1753 14.25 12.7V13.3C14.25 13.8247 13.8247 14.25 13.3 14.25H12.7C12.1753 14.25 11.75 13.8247 11.75 13.3V12.7Z" fill="#151E28"/>
</svg>
