<svg viewBox="0 0 32 32" fill="none" xmlns="http://www.w3.org/2000/svg">
<path fill-rule="evenodd" clip-rule="evenodd" d="M19.1292 25H12.8708C11.5488 25 10.8878 25 10.3305 24.8345C9.2253 24.5063 8.31544 23.7172 7.83424 22.6695C7.5916 22.1412 7.49812 21.4869 7.31116 20.1781C7.29619 20.0734 7.28248 19.9774 7.26993 19.8887C7.25217 19.7652 7.23391 19.6374 7.21501 19.5051L7 18H7.15225C7.16824 17.6958 7.20161 17.3925 7.25228 17.0916C7.30422 16.7831 7.38069 16.4773 7.53364 15.8655L7.53364 15.8655L7.53364 15.8655L8.89403 10.4239C9.11069 9.55724 9.21903 9.12391 9.46062 8.80126C9.67378 8.51658 9.959 8.29389 10.2869 8.15614C10.6585 8.00002 11.1051 8.00002 11.9985 8.00002H20.0015C20.8949 8.00002 21.3415 8.00002 21.7131 8.15614C22.041 8.29389 22.3262 8.51658 22.5394 8.80126C22.781 9.1239 22.8893 9.55723 23.106 10.4239L23.106 10.4239L24.4664 15.8655C24.6193 16.4773 24.6958 16.7831 24.7477 17.0916C24.7984 17.3925 24.8318 17.6958 24.8477 18H25L24.785 19.5051L24.785 19.5051C24.7661 19.637 24.7479 19.7645 24.7302 19.8877C24.7176 19.9766 24.7039 20.0729 24.6889 20.1781L24.6888 20.1781L24.6888 20.1782C24.5019 21.4869 24.4084 22.1412 24.1658 22.6695C23.9552 23.1279 23.6627 23.5368 23.3076 23.8792C23.2107 23.9726 23.1092 24.0611 23.0035 24.1442C22.6107 24.4531 22.1593 24.6891 21.6695 24.8345C21.1122 25 20.4512 25 19.1292 25Z" fill="white"/>
<path d="M11.9984 7.25001L11.9974 8.75001H11.9984V7.25001ZM11.8612 7.24992L11.8597 8.74992L11.8602 8.74992L11.8612 7.24992ZM20.0014 7.25001L20.0014 8.75001L20.0024 8.75001L20.0014 7.25001ZM20.1386 7.24992L20.1396 8.74992L20.1401 8.74992L20.1386 7.24992ZM22.0035 7.46468L21.4225 8.84759L21.4225 8.84759L22.0035 7.46468ZM23.1396 8.35172L21.9389 9.25079L21.9389 9.25079L23.1396 8.35172ZM23.8003 10.1089L22.3447 10.4713L22.3448 10.4718L23.8003 10.1089ZM23.8335 10.242L22.378 10.6048L22.3783 10.6058L23.8335 10.242ZM25.1939 15.6836L23.7387 16.0474L23.7387 16.0474L25.1939 15.6836ZM25.2022 15.7169L26.6574 15.3531L26.6574 15.3531L25.2022 15.7169ZM25.2022 15.7169L26.6689 15.4026C26.6654 15.3861 26.6615 15.3696 26.6574 15.3531L25.2022 15.7169ZM25.2022 15.717L23.7355 16.0313C23.7391 16.0479 23.7429 16.0644 23.747 16.0808L25.2022 15.717ZM25.4872 16.967L24.008 17.2161L24.008 17.2161L25.4872 16.967ZM25.5909 18.9774L27.0879 19.0729L27.0879 19.0729L25.5909 18.9774ZM25.436 20.2503L23.9511 20.0381L23.9511 20.0382L25.436 20.2503ZM25.4312 20.2842L23.9463 20.0721L23.9462 20.0723L25.4312 20.2842ZM25.4124 20.4162L23.9274 20.2042L23.9274 20.2043L25.4124 20.4162ZM24.8472 22.9825L26.2103 23.6086L26.2103 23.6086L24.8472 22.9825ZM21.8829 25.5535L21.4559 24.1155L21.4559 24.1155L21.8829 25.5535ZM19.2624 25.75L19.2627 24.25H19.2624V25.75ZM19.2624 25.75L19.2621 27.25H19.2624V25.75ZM19.1291 25.75L19.1293 24.25H19.1291V25.75ZM12.8707 25.75L12.8707 24.25L12.8705 24.25L12.8707 25.75ZM12.7374 25.75L12.7374 27.25L12.7376 27.25L12.7374 25.75ZM12.7374 25.75L12.7374 24.25L12.7371 24.25L12.7374 25.75ZM10.1169 25.5535L10.5439 24.1155L10.5439 24.1155L10.1169 25.5535ZM7.15259 22.9825L8.51569 22.3565L8.51569 22.3565L7.15259 22.9825ZM6.58742 20.4161L8.0724 20.2043L8.07238 20.2042L6.58742 20.4161ZM6.5686 20.2842L8.05355 20.0723L8.05352 20.0721L6.5686 20.2842ZM6.56374 20.2502L8.04866 20.0381L8.04866 20.0381L6.56374 20.2502ZM6.40888 18.9774L4.91193 19.0729L4.91193 19.0729L6.40888 18.9774ZM6.51259 16.967L7.99176 17.2161L7.99176 17.2161L6.51259 16.967ZM6.7976 15.7169L8.25281 16.0807L8.25281 16.0807L6.7976 15.7169ZM6.80593 15.6836L8.26114 16.0474L8.26114 16.0474L6.80593 15.6836ZM8.16632 10.242L9.62153 10.6058L9.62177 10.6048L8.16632 10.242ZM8.1995 10.1089L6.74429 9.74508L6.74405 9.74603L8.1995 10.1089ZM8.1995 10.1089L9.65472 10.4727L9.65508 10.4712L8.1995 10.1089ZM8.86017 8.35172L10.0609 9.25079L10.0609 9.25079L8.86017 8.35172ZM9.99626 7.46468L10.5773 8.84759L10.5773 8.84759L9.99626 7.46468ZM10.5773 8.84759L11.1583 10.2305L11.1583 10.2305L10.5773 8.84759ZM10.0609 9.25079L8.86017 8.35172L8.86017 8.35172L10.0609 9.25079ZM9.62153 10.6058L8.16632 10.242L8.16632 10.242L9.62153 10.6058ZM8.26114 16.0474L9.71636 16.4112L9.71636 16.4112L8.26114 16.0474ZM7.99176 17.2161L6.51259 16.967L6.512 16.9705L7.99176 17.2161ZM7.98614 17.25L6.50638 17.0044C6.43422 17.4392 6.55694 17.8838 6.84195 18.22C7.12695 18.5562 7.54539 18.75 7.98614 18.75L7.98614 17.25ZM10.2876 17.25L10.2876 18.75L10.2883 18.75L10.2876 17.25ZM10.3814 17.25L10.3821 18.75L10.3825 18.75L10.3814 17.25ZM11.7289 17.3687L12.1648 15.9334L12.1648 15.9334L11.7289 17.3687ZM12.676 17.8755L13.6284 16.7167L13.6284 16.7167L12.676 17.8755ZM13.5222 18.9309L12.2735 19.762L12.2737 19.7623L13.5222 18.9309ZM13.5742 19.0089L12.3257 19.8404L12.3261 19.841L13.5742 19.0089ZM13.6743 19.159L14.9223 18.327L14.9223 18.327L13.6743 19.159ZM14.2769 19.9657L13.3244 21.1245L13.3244 21.1245L14.2769 19.9657ZM14.7073 20.1961L15.1432 18.7608L15.1432 18.7608L14.7073 20.1961ZM17.2931 20.1961L16.8572 18.7608L16.8572 18.7608L17.2931 20.1961ZM17.7235 19.9657L18.676 21.1245L18.676 21.1245L17.7235 19.9657ZM18.3261 19.159L19.5742 19.9911L19.5742 19.9911L18.3261 19.159ZM18.4262 19.0089L19.6743 19.841L19.6747 19.8404L18.4262 19.0089ZM18.4782 18.9309L17.4175 17.8702C17.3475 17.9402 17.2846 18.017 17.2297 18.0994L18.4782 18.9309ZM18.4782 18.9309L19.5388 19.9915C19.6089 19.9214 19.6719 19.8446 19.7269 19.762L18.4782 18.9309ZM19.3244 17.8755L18.372 16.7167L18.372 16.7167L19.3244 17.8755ZM20.2715 17.3687L19.8356 15.9334L19.8356 15.9334L20.2715 17.3687ZM21.619 17.25L21.6179 18.75L21.6183 18.75L21.619 17.25ZM21.7128 17.25L21.7121 18.75H21.7128V17.25ZM24.0137 17.25V18.75C24.4544 18.75 24.8729 18.5562 25.1579 18.22C25.4429 17.8837 25.5656 17.4392 25.4934 17.0044L24.0137 17.25ZM24.008 17.2161L25.4878 16.9705L25.4872 16.967L24.008 17.2161ZM23.7387 16.0474L22.2834 16.4112L22.2834 16.4112L23.7387 16.0474ZM22.3783 10.6058L20.923 10.9696L20.923 10.9696L22.3783 10.6058ZM21.9389 9.25079L20.7382 10.1499L20.7382 10.1499L21.9389 9.25079ZM21.4225 8.84759L20.8415 10.2305L20.8415 10.2305L21.4225 8.84759ZM7.89863 18.75V17.25C7.48896 17.25 7.09711 17.4176 6.8141 17.7138C6.53108 18.01 6.38153 18.409 6.40018 18.8183L7.89863 18.75ZM7.90584 18.8818L6.40888 18.9774L6.40888 18.9774L7.90584 18.8818ZM11.2931 18.8039L10.8572 20.2392L10.8572 20.2392L11.2931 18.8039ZM11.7235 19.0343L12.676 17.8755L12.676 17.8755L11.7235 19.0343ZM12.3261 19.841L11.0781 20.673L11.0781 20.673L12.3261 19.841ZM12.4262 19.9911L13.6747 19.1596L13.6743 19.159L12.4262 19.9911ZM12.4782 20.0691L13.7268 19.238L13.7266 19.2377L12.4782 20.0691ZM13.3244 21.1245L12.372 22.2833L12.372 22.2833L13.3244 21.1245ZM14.2715 21.6313L13.8356 23.0666L13.8356 23.0666L14.2715 21.6313ZM15.619 21.7501L15.6183 20.2501L15.6179 20.2501L15.619 21.7501ZM15.7128 21.75L15.7128 20.25L15.7121 20.25L15.7128 21.75ZM16.2876 21.75L16.2883 20.25H16.2876V21.75ZM16.3814 21.7501L16.3825 20.2501L16.3821 20.2501L16.3814 21.7501ZM17.7289 21.6313L18.1648 23.0666L18.1648 23.0666L17.7289 21.6313ZM18.676 21.1245L19.6284 22.2833L19.6284 22.2833L18.676 21.1245ZM19.5222 20.0691L18.2738 19.2377L18.2736 19.238L19.5222 20.0691ZM19.5742 19.9911L18.3261 19.159L18.3257 19.1596L19.5742 19.9911ZM19.6743 19.841L18.4262 19.0089L18.4262 19.0089L19.6743 19.841ZM20.2769 19.0343L19.3244 17.8755L19.3244 17.8755L20.2769 19.0343ZM20.7073 18.8039L21.1432 20.2392L21.1432 20.2392L20.7073 18.8039ZM24.1012 18.75L25.5996 18.8183C25.6183 18.4091 25.4687 18.01 25.1857 17.7138C24.9027 17.4176 24.5108 17.25 24.1012 17.25V18.75ZM24.094 18.8818L22.597 18.7862L22.597 18.7863L24.094 18.8818ZM23.9463 20.0721L25.4312 20.2842L25.4312 20.2842L23.9463 20.0721ZM23.4841 22.3565L24.8472 22.9825L24.8472 22.9825L23.4841 22.3565ZM21.4559 24.1155L21.8829 25.5535L21.8829 25.5535L21.4559 24.1155ZM10.5439 24.1155L10.1169 25.5535L10.1169 25.5535L10.5439 24.1155ZM8.51569 22.3565L7.15259 22.9825L7.15259 22.9825L8.51569 22.3565ZM8.05352 20.0721L9.53844 19.8599L9.53844 19.8599L8.05352 20.0721ZM11.9994 5.75001L11.8622 5.74992L11.8602 8.74992L11.9974 8.75001L11.9994 5.75001ZM20.0014 5.75001H11.9984V8.75001H20.0014V5.75001ZM20.1376 5.74992L20.0004 5.75001L20.0024 8.75001L20.1396 8.74992L20.1376 5.74992ZM22.5845 6.08178C21.7343 5.72456 20.805 5.74926 20.1371 5.74992L20.1401 8.74992C20.9872 8.74908 21.244 8.77261 21.4225 8.84759L22.5845 6.08178ZM24.3403 7.45265C23.8874 6.84771 23.2813 6.3745 22.5845 6.08178L21.4225 8.84759C21.6274 8.93368 21.8057 9.07286 21.9389 9.25079L24.3403 7.45265ZM25.2559 9.74654C25.0945 9.09844 24.8931 8.19087 24.3403 7.45265L21.9389 9.25079C22.055 9.40574 22.1401 9.64927 22.3447 10.4713L25.2559 9.74654ZM25.2889 9.87914L25.2557 9.74605L22.3448 10.4718L22.378 10.6048L25.2889 9.87914ZM26.6491 15.3198L25.2887 9.87819L22.3783 10.6058L23.7387 16.0474L26.6491 15.3198ZM26.6574 15.3531L26.6491 15.3197L23.7387 16.0474L23.747 16.0807L26.6574 15.3531ZM26.6574 15.3531L26.6574 15.3531L23.747 16.0807L23.747 16.0807L26.6574 15.3531ZM26.6689 15.4027L26.6689 15.4026L23.7355 16.0312L23.7355 16.0313L26.6689 15.4027ZM26.9664 16.718C26.8977 16.3102 26.7978 15.9146 26.6574 15.3532L23.747 16.0808C23.8968 16.6798 23.963 16.9489 24.008 17.2161L26.9664 16.718ZM27.0879 19.0729C27.1381 18.2859 27.0973 17.4957 26.9664 16.718L24.008 17.2161C24.1007 17.7662 24.1295 18.3251 24.094 18.8818L27.0879 19.0729ZM26.921 20.4625C27.0028 19.8894 27.0615 19.4857 27.0879 19.0729L24.094 18.8818C24.0767 19.1523 24.0385 19.4268 23.9511 20.0381L26.921 20.4625ZM26.9161 20.4963L26.921 20.4624L23.9511 20.0382L23.9463 20.0721L26.9161 20.4963ZM26.8973 20.6281L26.9162 20.4961L23.9462 20.0723L23.9274 20.2042L26.8973 20.6281ZM26.2103 23.6086C26.6106 22.7371 26.7402 21.7296 26.8973 20.628L23.9274 20.2043C23.7474 21.4665 23.6614 21.9705 23.4841 22.3565L26.2103 23.6086ZM22.3099 26.9914C24.0368 26.4786 25.4584 25.2456 26.2103 23.6086L23.4841 22.3565C23.0931 23.2077 22.3539 23.8489 21.4559 24.1155L22.3099 26.9914ZM19.2621 27.25C20.3748 27.2503 21.3905 27.2644 22.3099 26.9914L21.4559 24.1155C21.0487 24.2365 20.5376 24.2503 19.2627 24.25L19.2621 27.25ZM19.2624 27.25H19.2624V24.25H19.2624V27.25ZM19.1289 27.25L19.2621 27.25L19.2626 24.25L19.1293 24.25L19.1289 27.25ZM12.8707 27.25H19.1291V24.25H12.8707V27.25ZM12.7376 27.25L12.8709 27.25L12.8705 24.25L12.7372 24.25L12.7376 27.25ZM12.7374 27.25H12.7374V24.25H12.7374V27.25ZM9.68991 26.9914C10.6093 27.2644 11.625 27.2503 12.7377 27.25L12.7371 24.25C11.4622 24.2503 10.9511 24.2365 10.5439 24.1155L9.68991 26.9914ZM5.78949 23.6086C6.54136 25.2456 7.96302 26.4786 9.68992 26.9914L10.5439 24.1155C9.64593 23.8489 8.90666 23.2077 8.51569 22.3565L5.78949 23.6086ZM5.10245 20.628C5.25959 21.7296 5.3892 22.7371 5.78949 23.6086L8.51569 22.3565C8.3384 21.9705 8.25242 21.4665 8.0724 20.2043L5.10245 20.628ZM5.08364 20.4961L5.10247 20.6281L8.07238 20.2042L8.05355 20.0723L5.08364 20.4961ZM5.07882 20.4624L5.08367 20.4964L8.05352 20.0721L8.04866 20.0381L5.07882 20.4624ZM4.91193 19.0729C4.93827 19.4856 4.99695 19.8894 5.07882 20.4624L8.04866 20.0381C7.96133 19.4268 7.9231 19.1523 7.90584 18.8818L4.91193 19.0729ZM5.03341 16.718C4.90246 17.4957 4.86169 18.2859 4.91193 19.0729L7.90584 18.8818C7.8703 18.3251 7.89914 17.7662 7.99176 17.2161L5.03341 16.718ZM5.3424 15.353C5.20199 15.9146 5.10209 16.3101 5.03341 16.718L7.99176 17.2161C8.03677 16.9489 8.10304 16.6797 8.25281 16.0807L5.3424 15.353ZM5.35072 15.3197L5.34239 15.353L8.25281 16.0807L8.26114 16.0474L5.35072 15.3197ZM6.7111 9.87819L5.35071 15.3198L8.26114 16.0474L9.62153 10.6058L6.7111 9.87819ZM6.74405 9.74603L6.71087 9.87914L9.62177 10.6048L9.65495 10.4717L6.74405 9.74603ZM6.74429 9.74508L6.74429 9.74508L9.65472 10.4727L9.65472 10.4727L6.74429 9.74508ZM7.65947 7.45265C7.1067 8.19087 6.90527 9.09842 6.74393 9.74652L9.65508 10.4712C9.85971 9.64926 9.94484 9.40574 10.0609 9.25079L7.65947 7.45265ZM9.41525 6.08178C8.71852 6.3745 8.11244 6.84772 7.65947 7.45265L10.0609 9.25079C10.1941 9.07286 10.3724 8.93368 10.5773 8.84759L9.41525 6.08178ZM11.8627 5.74992C11.1948 5.74926 10.2655 5.72456 9.41525 6.08178L10.5773 8.84759C10.7557 8.77261 11.0126 8.74908 11.8597 8.74992L11.8627 5.74992ZM11.1583 10.2305C11.0378 10.2811 10.9643 10.2733 11.1007 10.2643C11.2523 10.2542 11.5074 10.25 11.9984 10.25V7.25001C11.5264 7.25001 11.17 7.25301 10.9014 7.27088C10.6175 7.28978 10.315 7.33078 9.99626 7.46468L11.1583 10.2305ZM11.2616 10.1499C11.2349 10.1854 11.1993 10.2133 11.1583 10.2305L9.99626 7.46468C9.54543 7.65409 9.15326 7.96029 8.86017 8.35172L11.2616 10.1499ZM11.0767 10.9696C11.1958 10.4933 11.2617 10.2469 11.3083 10.1021C11.3502 9.97206 11.3399 10.0452 11.2616 10.1499L8.86017 8.35172C8.65297 8.62844 8.53981 8.912 8.45262 9.18285C8.37014 9.43906 8.28079 9.78411 8.16632 10.242L11.0767 10.9696ZM9.71636 16.4112L11.0767 10.9696L8.16632 10.242L6.80593 15.6836L9.71636 16.4112ZM9.47094 17.4652C9.50491 17.2635 9.55513 17.056 9.71636 16.4112L6.80593 15.6836C6.65586 16.2838 6.57054 16.6229 6.51259 16.967L9.47094 17.4652ZM9.4659 17.4956L9.47153 17.4617L6.512 16.9705L6.50638 17.0044L9.4659 17.4956ZM10.2876 15.75H7.98614V18.75H10.2876V15.75ZM10.3807 15.75L10.2869 15.75L10.2883 18.75L10.3821 18.75L10.3807 15.75ZM12.1648 15.9334C11.5168 15.7366 10.8571 15.7496 10.3803 15.75L10.3825 18.75C10.9743 18.7495 11.1547 18.7619 11.2931 18.8039L12.1648 15.9334ZM13.6284 16.7167C13.1968 16.3619 12.6994 16.0958 12.1648 15.9334L11.2931 18.8039C11.4503 18.8517 11.5966 18.93 11.7235 19.0343L13.6284 16.7167ZM14.7709 18.0998C14.5067 17.7028 14.1516 17.1467 13.6284 16.7167L11.7235 19.0343C11.8352 19.1261 11.9456 19.2694 12.2735 19.762L14.7709 18.0998ZM14.8227 18.1775L14.7707 18.0995L12.2737 19.7623L12.3257 19.8404L14.8227 18.1775ZM14.9223 18.327L14.8223 18.1769L12.3261 19.841L12.4262 19.9911L14.9223 18.327ZM15.2293 18.8069C15.2984 18.8637 15.3239 18.9076 15.2726 18.8387C15.2113 18.7563 15.1131 18.6131 14.9223 18.327L12.4262 19.9911C12.7399 20.4617 12.9862 20.8465 13.3244 21.1245L15.2293 18.8069ZM15.1432 18.7608C15.1747 18.7703 15.2039 18.786 15.2293 18.8069L13.3244 21.1245C13.6037 21.3541 13.9255 21.5263 14.2715 21.6313L15.1432 18.7608ZM15.7128 18.75C15.3689 18.75 15.1952 18.7477 15.0927 18.7424C15.007 18.738 15.0576 18.7348 15.1432 18.7608L14.2714 21.6313C14.6903 21.7586 15.1472 21.75 15.7128 21.75V18.75ZM16.2876 18.75H15.7128V21.75H16.2876V18.75ZM16.8572 18.7608C16.9428 18.7348 16.9934 18.738 16.9077 18.7424C16.8052 18.7477 16.6315 18.75 16.2876 18.75V21.75C16.8532 21.75 17.31 21.7586 17.7289 21.6313L16.8572 18.7608ZM16.7711 18.8069C16.7965 18.786 16.8257 18.7703 16.8572 18.7608L17.7289 21.6313C18.0749 21.5263 18.3967 21.3541 18.676 21.1245L16.7711 18.8069ZM17.0781 18.327C16.8873 18.6131 16.7891 18.7563 16.7278 18.8387C16.6765 18.9076 16.7019 18.8637 16.7711 18.8069L18.676 21.1245C19.0142 20.8465 19.2605 20.4617 19.5742 19.9911L17.0781 18.327ZM17.1781 18.1769L17.0781 18.327L19.5742 19.9911L19.6743 19.841L17.1781 18.1769ZM17.2297 18.0994L17.1777 18.1775L19.6747 19.8404L19.7266 19.7623L17.2297 18.0994ZM17.4175 17.8702L17.4175 17.8702L19.5388 19.9916L19.5388 19.9915L17.4175 17.8702ZM18.372 16.7167C17.8488 17.1467 17.4937 17.7028 17.2295 18.0997L19.7269 19.762C20.0548 19.2694 20.1652 19.1261 20.2769 19.0343L18.372 16.7167ZM19.8356 15.9334C19.301 16.0958 18.8036 16.3619 18.372 16.7167L20.2769 19.0343C20.4038 18.93 20.5501 18.8517 20.7073 18.8039L19.8356 15.9334ZM21.6201 15.75C21.1433 15.7496 20.4836 15.7366 19.8356 15.9334L20.7073 18.8039C20.8456 18.7619 21.0261 18.7495 21.6179 18.75L21.6201 15.75ZM21.7135 15.75L21.6197 15.75L21.6183 18.75L21.7121 18.75L21.7135 15.75ZM24.0137 15.75H21.7128V18.75H24.0137V15.75ZM22.5283 17.4617L22.5339 17.4956L25.4934 17.0044L25.4878 16.9705L22.5283 17.4617ZM22.2834 16.4112C22.4447 17.056 22.4949 17.2635 22.5289 17.4652L25.4872 16.967C25.4293 16.6229 25.3439 16.2838 25.1939 15.6836L22.2834 16.4112ZM20.923 10.9696L22.2834 16.4112L25.1939 15.6836L23.8335 10.242L20.923 10.9696ZM20.7382 10.1499C20.6599 10.0452 20.6496 9.97206 20.6915 10.1021C20.7381 10.2469 20.804 10.4933 20.923 10.9696L23.8335 10.242C23.719 9.78411 23.6296 9.43906 23.5472 9.18285C23.46 8.912 23.3468 8.62844 23.1396 8.35172L20.7382 10.1499ZM20.8415 10.2305C20.8005 10.2133 20.7649 10.1854 20.7382 10.1499L23.1396 8.35172C22.8465 7.96029 22.4544 7.65409 22.0035 7.46468L20.8415 10.2305ZM20.0014 10.25C20.4924 10.25 20.7474 10.2542 20.8991 10.2643C21.0355 10.2733 20.962 10.2811 20.8415 10.2305L22.0035 7.46468C21.6848 7.33078 21.3823 7.28978 21.0984 7.27088C20.8298 7.25301 20.4734 7.25001 20.0014 7.25001V10.25ZM11.9984 10.25H20.0014V7.25001H11.9984V10.25ZM6.40018 18.8183C6.4026 18.8713 6.4055 18.9243 6.40888 18.9774L9.40279 18.7863C9.40057 18.7514 9.39866 18.7166 9.39707 18.6817L6.40018 18.8183ZM10.2876 17.25H7.89863V20.25H10.2876V17.25ZM11.7289 17.3687C11.31 17.2415 10.8532 17.25 10.2876 17.25V20.25C10.6315 20.25 10.8052 20.2523 10.9077 20.2576C10.9934 20.2621 10.9428 20.2652 10.8572 20.2392L11.7289 17.3687ZM12.676 17.8755C12.3967 17.646 12.0749 17.4737 11.7289 17.3687L10.8572 20.2392C10.8257 20.2297 10.7965 20.214 10.7711 20.1931L12.676 17.8755ZM13.5742 19.0089C13.2605 18.5383 13.0142 18.1535 12.676 17.8755L10.7711 20.1931C10.7019 20.1363 10.6765 20.0924 10.7278 20.1613C10.7891 20.2437 10.8873 20.3869 11.0781 20.673L13.5742 19.0089ZM13.6743 19.159L13.5742 19.0089L11.0781 20.673L11.1781 20.8231L13.6743 19.159ZM13.7266 19.2377L13.6747 19.1596L11.1777 20.8225L11.2297 20.9006L13.7266 19.2377ZM14.2769 19.9657C14.1652 19.8739 14.0548 19.7306 13.7268 19.238L11.2295 20.9003C11.4937 21.2972 11.8488 21.8533 12.372 22.2833L14.2769 19.9657ZM14.7073 20.1961C14.5501 20.1483 14.4038 20.07 14.2769 19.9657L12.372 22.2833C12.8036 22.6381 13.301 22.9043 13.8356 23.0666L14.7073 20.1961ZM15.6179 20.2501C15.0261 20.2505 14.8456 20.2381 14.7073 20.1961L13.8356 23.0666C14.4836 23.2634 15.1433 23.2504 15.6201 23.2501L15.6179 20.2501ZM15.7121 20.25L15.6183 20.2501L15.6197 23.2501L15.7135 23.25L15.7121 20.25ZM16.2876 20.25H15.7128V23.25H16.2876V20.25ZM16.3821 20.2501L16.2883 20.25L16.2869 23.25L16.3807 23.2501L16.3821 20.2501ZM17.2931 20.1961C17.1547 20.2381 16.9743 20.2505 16.3825 20.2501L16.3803 23.2501C16.8571 23.2504 17.5168 23.2634 18.1648 23.0666L17.2931 20.1961ZM17.7235 19.9657C17.5966 20.07 17.4503 20.1483 17.2931 20.1961L18.1648 23.0666C18.6994 22.9043 19.1968 22.6381 19.6284 22.2833L17.7235 19.9657ZM18.2736 19.238C17.9456 19.7306 17.8352 19.8739 17.7235 19.9657L19.6284 22.2833C20.1516 21.8533 20.5067 21.2972 20.7709 20.9003L18.2736 19.238ZM18.3257 19.1596L18.2738 19.2377L20.7707 20.9006L20.8227 20.8225L18.3257 19.1596ZM18.4262 19.0089L18.3261 19.159L20.8223 20.8231L20.9223 20.673L18.4262 19.0089ZM19.3244 17.8755C18.9862 18.1535 18.7399 18.5383 18.4262 19.0089L20.9223 20.673C21.1131 20.3869 21.2113 20.2437 21.2726 20.1613C21.3239 20.0924 21.2984 20.1363 21.2293 20.1931L19.3244 17.8755ZM20.2714 17.3687C19.9255 17.4737 19.6037 17.646 19.3244 17.8755L21.2293 20.1931C21.2039 20.214 21.1747 20.2297 21.1432 20.2392L20.2714 17.3687ZM21.7128 17.25C21.1472 17.25 20.6904 17.2415 20.2714 17.3687L21.1432 20.2392C21.0576 20.2652 21.007 20.2621 21.0927 20.2576C21.1952 20.2523 21.3689 20.25 21.7128 20.25V17.25ZM24.1012 17.25H21.7128V20.25H24.1012V17.25ZM25.5909 18.9774C25.5943 18.9244 25.5972 18.8713 25.5996 18.8183L22.6027 18.6817C22.6011 18.7166 22.5992 18.7514 22.597 18.7862L25.5909 18.9774ZM25.4312 20.2842C25.5187 19.6717 25.5687 19.3256 25.5909 18.9774L22.597 18.7863C22.584 18.9904 22.5554 19.2019 22.4613 19.8599L25.4312 20.2842ZM24.8472 22.9825C25.1472 22.3295 25.2523 21.5362 25.4312 20.2842L22.4613 19.8599C22.2518 21.3265 22.1928 21.574 22.121 21.7304L24.8472 22.9825ZM21.8829 25.5535C23.1953 25.1638 24.2758 24.2267 24.8472 22.9825L22.121 21.7304C21.9105 22.1888 21.5124 22.534 21.0289 22.6776L21.8829 25.5535ZM19.1291 25.75C20.3938 25.75 21.1939 25.7581 21.8829 25.5535L21.0289 22.6776C20.8639 22.7266 20.6105 22.75 19.1291 22.75V25.75ZM12.8707 25.75H19.1291V22.75H12.8707V25.75ZM10.1169 25.5535C10.8059 25.7581 11.606 25.75 12.8707 25.75V22.75C11.3893 22.75 11.1359 22.7266 10.9709 22.6776L10.1169 25.5535ZM7.15259 22.9825C7.72401 24.2267 8.80447 25.1638 10.1169 25.5535L10.9709 22.6776C10.4874 22.534 10.0893 22.1888 9.87879 21.7304L7.15259 22.9825ZM6.5686 20.2842C6.74745 21.5362 6.85264 22.3295 7.15259 22.9825L9.87879 21.7304C9.80696 21.574 9.74795 21.3265 9.53844 19.8599L6.5686 20.2842ZM6.40888 18.9774C6.43111 19.3256 6.48109 19.6717 6.5686 20.2842L9.53844 19.8599C9.44444 19.2019 9.41582 18.9904 9.40279 18.7863L6.40888 18.9774ZM14.75 11C14.75 11.4142 14.4142 11.75 14 11.75V8.75001C12.7574 8.75001 11.75 9.75737 11.75 11H14.75ZM14 10.25C14.4142 10.25 14.75 10.5858 14.75 11H11.75C11.75 12.2426 12.7574 13.25 14 13.25V10.25ZM18 10.25H14V13.25H18V10.25ZM17.25 11C17.25 10.5858 17.5858 10.25 18 10.25V13.25C19.2426 13.25 20.25 12.2426 20.25 11H17.25ZM18 11.75C17.5858 11.75 17.25 11.4142 17.25 11H20.25C20.25 9.75737 19.2426 8.75001 18 8.75001V11.75ZM14 11.75H18V8.75001H14V11.75ZM12.75 14C12.75 14.4142 12.4142 14.75 12 14.75V11.75C10.7574 11.75 9.75 12.7574 9.75 14H12.75ZM12 13.25C12.4142 13.25 12.75 13.5858 12.75 14H9.75C9.75 15.2426 10.7574 16.25 12 16.25V13.25ZM20 13.25H12V16.25H20V13.25ZM19.25 14C19.25 13.5858 19.5858 13.25 20 13.25V16.25C21.2426 16.25 22.25 15.2426 22.25 14H19.25ZM20 14.75C19.5858 14.75 19.25 14.4142 19.25 14H22.25C22.25 12.7574 21.2426 11.75 20 11.75V14.75ZM12 14.75H20V11.75H12V14.75Z" fill="white"/>
<path fill-rule="evenodd" clip-rule="evenodd" d="M11.8612 7.24992L11.9984 7.25001H20.0014L20.1386 7.24992C20.8961 7.24917 21.4892 7.24858 22.0035 7.46468C22.4544 7.65409 22.8465 7.96029 23.1396 8.35172C23.474 8.79831 23.6173 9.37385 23.8003 10.1089L23.8335 10.242L25.1939 15.6836L25.2022 15.7169L25.2022 15.7169L25.2022 15.717C25.3473 16.2972 25.4304 16.6295 25.4872 16.967C25.599 17.6309 25.6338 18.3055 25.5909 18.9774C25.5691 19.319 25.5207 19.6581 25.436 20.2503L25.4312 20.2842L25.4124 20.4162C25.2438 21.598 25.136 22.3538 24.8472 22.9825C24.2758 24.2267 23.1953 25.1638 21.8829 25.5535C21.2196 25.7505 20.4562 25.7503 19.2624 25.75H19.2624L19.1291 25.75H12.8707L12.7374 25.75H12.7374C11.5436 25.7503 10.7802 25.7505 10.1169 25.5535C8.80447 25.1638 7.72401 24.2267 7.15259 22.9825C6.8638 22.3538 6.756 21.598 6.58742 20.4161L6.5686 20.2842L6.56374 20.2502C6.47914 19.6581 6.43069 19.319 6.40888 18.9774C6.366 18.3055 6.4008 17.6309 6.51259 16.967C6.56943 16.6295 6.65252 16.2972 6.7976 15.7169L6.80593 15.6836L8.16632 10.242L8.1995 10.1089L8.1995 10.1089C8.38249 9.37384 8.52577 8.7983 8.86017 8.35172C9.15326 7.96029 9.54543 7.65409 9.99626 7.46468C10.5106 7.24858 11.1037 7.24917 11.8612 7.24992ZM11.9984 8.75001C11.0354 8.75001 10.7755 8.76431 10.5773 8.84759C10.3724 8.93368 10.1941 9.07286 10.0609 9.25079C9.932 9.42288 9.85509 9.67157 9.62153 10.6058L8.26114 16.0474C8.10549 16.6699 8.03772 16.9432 7.99176 17.2161L7.98614 17.25H10.2876L10.3814 17.25C10.9157 17.2496 11.3357 17.2493 11.7289 17.3687C12.0749 17.4737 12.3967 17.646 12.676 17.8755C12.9934 18.1364 13.2262 18.4861 13.5222 18.9309L13.5742 19.0089L13.6743 19.159C14.0475 19.7189 14.1538 19.8645 14.2769 19.9657C14.4038 20.07 14.5501 20.1483 14.7073 20.1961C14.8598 20.2424 15.0399 20.25 15.7128 20.25H16.2876C16.9604 20.25 17.1406 20.2424 17.2931 20.1961C17.4503 20.1483 17.5966 20.07 17.7235 19.9657C17.8466 19.8645 17.9529 19.7189 18.3261 19.159L18.4262 19.0089L18.4782 18.9309L18.4782 18.9309C18.7742 18.4861 19.007 18.1364 19.3244 17.8755C19.6037 17.646 19.9255 17.4737 20.2715 17.3687C20.6646 17.2493 21.0847 17.2496 21.619 17.25L21.7128 17.25H24.0137L24.008 17.2161C23.9621 16.9432 23.8943 16.6699 23.7387 16.0474L22.3783 10.6058C22.1447 9.67157 22.0678 9.42288 21.9389 9.25079C21.8057 9.07286 21.6274 8.93368 21.4225 8.84759C21.2243 8.76431 20.9644 8.75001 20.0014 8.75001H11.9984ZM7.90584 18.8818C7.90303 18.8379 7.90063 18.794 7.89863 18.75H10.2876C10.9604 18.75 11.1406 18.7576 11.2931 18.8039C11.4503 18.8517 11.5966 18.93 11.7235 19.0343C11.8466 19.1355 11.9529 19.2812 12.3261 19.841L12.4262 19.9911L12.4782 20.0691C12.7742 20.5139 13.007 20.8636 13.3244 21.1245C13.6037 21.3541 13.9255 21.5263 14.2715 21.6313C14.6646 21.7507 15.0847 21.7504 15.619 21.7501L15.7128 21.75H16.2876L16.3814 21.7501C16.9157 21.7504 17.3357 21.7507 17.7289 21.6313C18.0749 21.5263 18.3967 21.3541 18.676 21.1245C18.9934 20.8636 19.2262 20.5139 19.5222 20.0691L19.5742 19.9911L19.6743 19.841C20.0475 19.2812 20.1538 19.1355 20.2769 19.0343C20.4038 18.93 20.5501 18.8517 20.7073 18.8039C20.8598 18.7576 21.0399 18.75 21.7128 18.75H24.1012C24.0992 18.794 24.0968 18.8379 24.094 18.8818C24.0763 19.158 24.037 19.4368 23.9463 20.0721C23.7521 21.4313 23.67 21.9517 23.4841 22.3565C23.0931 23.2077 22.3539 23.8489 21.4559 24.1155C21.0289 24.2423 20.5021 24.25 19.1291 24.25H12.8707C11.4977 24.25 10.9709 24.2423 10.5439 24.1155C9.64593 23.8489 8.90666 23.2077 8.51569 22.3565C8.3298 21.9517 8.2477 21.4313 8.05352 20.0721C7.96276 19.4368 7.92347 19.158 7.90584 18.8818ZM14 10.25C13.5858 10.25 13.25 10.5858 13.25 11C13.25 11.4142 13.5858 11.75 14 11.75H18C18.4142 11.75 18.75 11.4142 18.75 11C18.75 10.5858 18.4142 10.25 18 10.25H14ZM12 13.25C11.5858 13.25 11.25 13.5858 11.25 14C11.25 14.4142 11.5858 14.75 12 14.75H20C20.4142 14.75 20.75 14.4142 20.75 14C20.75 13.5858 20.4142 13.25 20 13.25H12Z" fill="#151E28"/>
</svg>
