<svg viewBox="0 0 32 32" fill="none" xmlns="http://www.w3.org/2000/svg">
<path d="M22.3642 22.364C25.4884 19.2398 25.4884 14.1744 22.3642 11.0502L19.5358 8.22182C17.1926 5.87867 12.7603 6.51168 9.6361 9.63587C6.51191 12.7601 5.8789 17.1924 8.22205 19.5355L11.0505 22.364C14.1747 25.4881 19.24 25.4881 22.3642 22.364Z" fill="white"/>
<path d="M7.62141 14.9847L9.10634 15.1969L9.10634 15.1969L7.62141 14.9847ZM8.75242 19.0052L7.69176 20.0659L7.69188 20.066L8.75242 19.0052ZM10.1666 10.1664L11.2273 11.227L11.2273 11.227L10.1666 10.1664ZM14.985 7.62114L15.1971 9.10606L15.1971 9.10606L14.985 7.62114ZM19.0055 8.75215L20.0661 7.69149L20.0661 7.69149L19.0055 8.75215ZM20.1365 12.7726L21.6214 12.9847L21.6214 12.9847L20.1365 12.7726ZM17.5913 17.591L16.5306 16.5303L16.5306 16.5303L17.5913 17.591ZM12.7729 20.1362L12.985 21.6211L12.985 21.6211L12.7729 20.1362ZM8.75356 19.0063L7.69301 20.0671L7.69334 20.0674L8.75356 19.0063ZM7.69176 20.0659L6.6311 21.1265L6.63142 21.1268L7.69176 20.0659ZM7.694 20.0681L8.75466 19.0074L8.75435 19.0071L7.694 20.0681ZM6.13649 14.7726L7.62141 14.9847L7.62141 14.9847L6.13649 14.7726ZM9.10598 9.1057L8.04532 8.04504L8.04532 8.04504L9.10598 9.1057ZM14.7729 6.13621L14.5608 4.65129L14.5608 4.65129L14.7729 6.13621ZM20.0661 7.69149L21.1268 6.63083L21.1268 6.63083L20.0661 7.69149ZM22.8946 10.5199L21.8339 11.5806L21.8339 11.5806L22.8946 10.5199ZM10.5202 22.8943L9.45953 23.9549L9.45953 23.9549L10.5202 22.8943ZM11.5809 21.8336L10.5202 22.8943L10.5202 22.8943L11.5809 21.8336ZM11.4322 21.6849L11.5296 20.1881C10.9064 20.1475 10.3233 20.4973 10.0657 21.0662C9.80812 21.635 9.92992 22.304 10.3715 22.7456L11.4322 21.6849ZM21.8339 11.5806L22.8946 10.5199L22.8946 10.5199L21.8339 11.5806ZM21.6852 11.4319L22.7459 10.3712C22.3043 9.92965 21.6353 9.80785 21.0664 10.0655C20.4976 10.3231 20.1478 10.9062 20.1884 11.5293L21.6852 11.4319ZM21.6214 12.9847L23.1063 13.1969L23.1063 13.1969L21.6214 12.9847ZM12.985 21.6211L13.1971 23.1061L13.1971 23.1061L12.985 21.6211ZM11.9344 10.8735L12.9951 9.81281L12.9951 9.81281L11.9344 10.8735ZM10.8737 10.8735L9.81309 9.81281L9.81308 9.81281L10.8737 10.8735ZM12.6415 11.5806L11.5809 12.6412L11.5809 12.6412L12.6415 11.5806ZM12.6415 12.6412L11.5809 11.5806L11.5809 11.5806L12.6415 12.6412ZM11.5809 12.6412L12.6415 11.5806L12.6415 11.5806L11.5809 12.6412ZM10.8737 11.9341L9.81308 12.9948L9.81309 12.9948L10.8737 11.9341ZM17.5913 10.1664L16.5306 11.227L16.5306 11.227L17.5913 10.1664ZM16.5306 10.1664L17.5913 11.227L17.5913 11.227L16.5306 10.1664ZM15.8235 10.8735L14.7628 9.81281L14.7628 9.81281L15.8235 10.8735ZM15.8235 11.9341L14.7628 12.9948L14.7628 12.9948L15.8235 11.9341ZM11.9344 16.8839L12.9951 17.9445L12.9951 17.9445L11.9344 16.8839ZM10.1666 16.5303L9.10598 15.4697L9.10598 15.4697L10.1666 16.5303ZM10.1666 17.591L9.10598 18.6516L9.10598 18.6516L10.1666 17.591ZM11.2273 17.591L10.1666 16.5303L10.1666 16.5303L11.2273 17.591ZM6.13649 14.7726C5.85522 16.7415 6.31677 18.6909 7.69176 20.0659L9.81308 17.9445C9.25363 17.3851 8.92598 16.4593 9.10634 15.1969L6.13649 14.7726ZM9.10598 9.1057C7.44015 10.7715 6.41747 12.8057 6.13649 14.7726L9.10634 15.1969C9.28705 13.9319 9.97623 12.4781 11.2273 11.227L9.10598 9.1057ZM14.7729 6.13621C12.806 6.41719 10.7718 7.43988 9.10598 9.1057L11.2273 11.227C12.4784 9.97596 13.9321 9.28678 15.1971 9.10606L14.7729 6.13621ZM20.0661 7.69149C18.6911 6.3165 16.7417 5.85495 14.7729 6.13621L15.1971 9.10606C16.4596 8.92571 17.3854 9.25336 17.9448 9.81281L20.0661 7.69149ZM21.6214 12.9847C21.9027 11.0159 21.4411 9.06648 20.0661 7.69149L17.9448 9.81281C18.5043 10.3723 18.8319 11.298 18.6516 12.5605L21.6214 12.9847ZM18.6519 18.6516C20.3177 16.9858 21.3404 14.9516 21.6214 12.9847L18.6516 12.5605C18.4708 13.8255 17.7817 15.2793 16.5306 16.5303L18.6519 18.6516ZM12.985 21.6211C14.9519 21.3402 16.9861 20.3175 18.6519 18.6516L16.5306 16.5303C15.2795 17.7814 13.8258 18.4706 12.5608 18.6513L12.985 21.6211ZM7.69334 20.0674C9.06829 21.4412 11.0169 21.9023 12.985 21.6211L12.5608 18.6513C11.2988 18.8316 10.3732 18.5042 9.81377 17.9452L7.69334 20.0674ZM7.69188 20.066L7.69301 20.0671L9.81411 17.9456L9.81297 17.9444L7.69188 20.066ZM6.63142 21.1268L6.63365 21.1291L8.75435 19.0071L8.75211 19.0049L6.63142 21.1268ZM4.65156 14.5605C4.32047 16.8781 4.84578 19.3412 6.6311 21.1265L8.75242 19.0052C7.7859 18.0387 7.39043 16.6016 7.62141 14.9847L4.65156 14.5605ZM8.04532 8.04504C6.17233 9.91803 4.98272 12.2424 4.65156 14.5605L7.62141 14.9847C7.85225 13.3689 8.70813 11.6249 10.1666 10.1664L8.04532 8.04504ZM14.5608 4.65129C12.2427 4.98244 9.91831 6.17206 8.04532 8.04504L10.1666 10.1664C11.6251 8.70785 13.3692 7.85197 14.985 7.62114L14.5608 4.65129ZM21.1268 6.63083C19.3415 4.8455 16.8784 4.32019 14.5608 4.65129L14.985 7.62114C16.6019 7.39016 18.039 7.78563 19.0055 8.75215L21.1268 6.63083ZM23.9552 9.45926L21.1268 6.63083L19.0055 8.75215L21.8339 11.5806L23.9552 9.45926ZM23.9552 23.9549C27.9581 19.9521 27.9581 13.4621 23.9552 9.45926L21.8339 11.5806C24.6652 14.4119 24.6652 19.0023 21.8339 21.8336L23.9552 23.9549ZM9.45953 23.9549C13.4624 27.9578 19.9523 27.9578 23.9552 23.9549L21.8339 21.8336C19.0026 24.6649 14.4122 24.6649 11.5809 21.8336L9.45953 23.9549ZM6.63334 21.1288L9.45953 23.9549L11.5809 21.8336L8.75466 19.0074L6.63334 21.1288ZM12.6415 20.773L12.4928 20.6243L10.3715 22.7456L10.5202 22.8943L12.6415 20.773ZM20.7732 20.773C18.5277 23.0185 14.887 23.0185 12.6415 20.773L10.5202 22.8943C13.9373 26.3114 19.4775 26.3114 22.8946 22.8943L20.7732 20.773ZM20.7732 12.6412C23.0188 14.8868 23.0188 18.5275 20.7732 20.773L22.8946 22.8943C26.3116 19.4772 26.3116 13.937 22.8946 10.5199L20.7732 12.6412ZM20.6245 12.4925L20.7732 12.6412L22.8946 10.5199L22.7459 10.3712L20.6245 12.4925ZM23.1063 13.1969C23.1947 12.5783 23.2223 11.9533 23.182 11.3344L20.1884 11.5293C20.2144 11.9294 20.1973 12.3466 20.1365 12.7726L23.1063 13.1969ZM19.7126 19.7123C21.5856 17.8393 22.7752 15.515 23.1063 13.1969L20.1365 12.7726C19.9057 14.3885 19.0498 16.1325 17.5913 17.591L19.7126 19.7123ZM13.1971 23.1061C15.5152 22.7749 17.8396 21.5853 19.7126 19.7123L17.5913 17.591C16.1327 19.0495 14.3887 19.9054 12.7729 20.1362L13.1971 23.1061ZM11.3347 23.1818C11.9536 23.2221 12.5785 23.1944 13.1971 23.1061L12.7729 20.1362C12.3469 20.1971 11.9297 20.2141 11.5296 20.1881L11.3347 23.1818ZM12.9951 9.81281C12.1164 8.93413 10.6918 8.93413 9.81309 9.81281L11.9344 11.9341C11.6415 12.227 11.1666 12.227 10.8737 11.9341L12.9951 9.81281ZM13.7022 10.5199L12.9951 9.81281L10.8737 11.9341L11.5809 12.6412L13.7022 10.5199ZM13.7022 13.7019C14.5809 12.8232 14.5809 11.3986 13.7022 10.5199L11.5809 12.6412C11.288 12.3483 11.288 11.8735 11.5809 11.5806L13.7022 13.7019ZM10.5202 13.7019C11.3989 14.5806 12.8235 14.5806 13.7022 13.7019L11.5809 11.5806C11.8737 11.2877 12.3486 11.2877 12.6415 11.5806L10.5202 13.7019ZM9.81309 12.9948L10.5202 13.7019L12.6415 11.5806L11.9344 10.8735L9.81309 12.9948ZM9.81308 9.81281C8.93441 10.6915 8.93441 12.1161 9.81308 12.9948L11.9344 10.8735C12.2273 11.1664 12.2273 11.6412 11.9344 11.9341L9.81308 9.81281ZM17.2377 14.0555C16.359 13.1768 14.9344 13.1768 14.0557 14.0555L16.177 16.1768C15.8842 16.4697 15.4093 16.4697 15.1164 16.1768L17.2377 14.0555ZM17.9448 14.7626L17.2377 14.0555L15.1164 16.1768L15.8235 16.8839L17.9448 14.7626ZM17.9448 17.9445C18.8235 17.0659 18.8235 15.6412 17.9448 14.7626L15.8235 16.8839C15.5306 16.591 15.5306 16.1161 15.8235 15.8232L17.9448 17.9445ZM14.7628 17.9445C15.6415 18.8232 17.0661 18.8232 17.9448 17.9445L15.8235 15.8232C16.1164 15.5303 16.5913 15.5303 16.8842 15.8232L14.7628 17.9445ZM14.0557 17.2374L14.7628 17.9445L16.8842 15.8232L16.177 15.1161L14.0557 17.2374ZM14.0557 14.0555C13.177 14.9341 13.177 16.3588 14.0557 17.2374L16.177 15.1161C16.4699 15.409 16.4699 15.8839 16.177 16.1768L14.0557 14.0555ZM16.5306 11.227C16.2377 10.9341 16.2377 10.4593 16.5306 10.1664L18.6519 12.2877C19.5306 11.409 19.5306 9.98438 18.6519 9.1057L16.5306 11.227ZM17.5913 11.227C17.2984 11.5199 16.8235 11.5199 16.5306 11.227L18.6519 9.1057C17.7732 8.22702 16.3486 8.22702 15.4699 9.1057L17.5913 11.227ZM16.8842 11.9341L17.5913 11.227L15.4699 9.1057L14.7628 9.81281L16.8842 11.9341ZM16.8842 10.8735C17.177 11.1664 17.177 11.6412 16.8842 11.9341L14.7628 9.81281C13.8842 10.6915 13.8842 12.1161 14.7628 12.9948L16.8842 10.8735ZM15.8235 10.8735C16.1164 10.5806 16.5913 10.5806 16.8842 10.8735L14.7628 12.9948C15.6415 13.8735 17.0661 13.8735 17.9448 12.9948L15.8235 10.8735ZM16.5306 10.1664L15.8235 10.8735L17.9448 12.9948L18.6519 12.2877L16.5306 10.1664ZM10.8737 16.8839C10.5809 16.591 10.5809 16.1161 10.8737 15.8232L12.9951 17.9445C13.8737 17.0659 13.8737 15.6412 12.9951 14.7626L10.8737 16.8839ZM11.9344 16.8839C11.6415 17.1768 11.1666 17.1768 10.8737 16.8839L12.9951 14.7626C12.1164 13.8839 10.6918 13.8839 9.81308 14.7626L11.9344 16.8839ZM11.2273 17.591L11.9344 16.8839L9.81308 14.7626L9.10598 15.4697L11.2273 17.591ZM11.2273 16.5303C11.5202 16.8232 11.5202 17.2981 11.2273 17.591L9.10598 15.4697C8.2273 16.3483 8.2273 17.773 9.10598 18.6516L11.2273 16.5303ZM10.1666 16.5303C10.4595 16.2374 10.9344 16.2374 11.2273 16.5303L9.10598 18.6516C9.98466 19.5303 11.4093 19.5303 12.288 18.6516L10.1666 16.5303ZM10.8737 15.8232L10.1666 16.5303L12.288 18.6516L12.9951 17.9445L10.8737 15.8232Z" fill="white"/>
<path fill-rule="evenodd" clip-rule="evenodd" d="M8.75242 19.0052C7.7852 18.038 7.3906 16.6004 7.62141 14.9847C7.85226 13.3688 8.70819 11.6248 10.1666 10.1664C11.6251 8.70792 13.3691 7.85199 14.985 7.62114C16.6007 7.39033 18.0383 7.78493 19.0055 8.75215C19.9727 9.71937 20.3673 11.157 20.1365 12.7726C19.9056 14.3885 19.0497 16.1325 17.5913 17.591C16.1328 19.0494 14.3888 19.9054 12.7729 20.1362C11.1579 20.3669 9.72077 19.9727 8.75356 19.0063L8.75242 19.0052ZM7.694 20.0681L7.69176 20.0659C6.31584 18.6899 5.85545 16.7399 6.13649 14.7726C6.41748 12.8056 7.44023 10.7715 9.10598 9.1057C10.7717 7.43995 12.8059 6.41721 14.7729 6.13621C16.7401 5.85518 18.6902 6.31557 20.0661 7.69149L22.8946 10.5199C26.3116 13.937 26.3116 19.4772 22.8946 22.8943C19.4775 26.3114 13.9373 26.3114 10.5202 22.8943L7.694 20.0681ZM11.4322 21.6849L11.5809 21.8336C14.4122 24.6649 19.0026 24.6649 21.8339 21.8336C24.6652 19.0023 24.6652 14.4119 21.8339 11.5806L21.6852 11.4319C21.7184 11.9413 21.696 12.4624 21.6214 12.9847C21.3404 14.9517 20.3177 16.9859 18.6519 18.6516C16.9862 20.3174 14.952 21.3401 12.985 21.6211C12.4627 21.6958 11.9416 21.7181 11.4322 21.6849ZM10.8737 10.8735C11.1666 10.5806 11.6415 10.5806 11.9344 10.8735L12.6415 11.5806C12.9344 11.8735 12.9344 12.3483 12.6415 12.6412C12.3486 12.9341 11.8737 12.9341 11.5809 12.6412L10.8737 11.9341C10.5809 11.6412 10.5809 11.1664 10.8737 10.8735ZM15.1164 15.1161C15.4093 14.8232 15.8842 14.8232 16.177 15.1161L16.8842 15.8232C17.177 16.1161 17.177 16.591 16.8842 16.8839C16.5913 17.1768 16.1164 17.1768 15.8235 16.8839L15.1164 16.1768C14.8235 15.8839 14.8235 15.409 15.1164 15.1161ZM17.5913 11.227C17.8842 10.9341 17.8842 10.4593 17.5913 10.1664C17.2984 9.87347 16.8235 9.87347 16.5306 10.1664L15.8235 10.8735C15.5306 11.1664 15.5306 11.6412 15.8235 11.9341C16.1164 12.227 16.5913 12.227 16.8842 11.9341L17.5913 11.227ZM11.9344 16.8839C12.2273 16.591 12.2273 16.1161 11.9344 15.8232C11.6415 15.5303 11.1666 15.5303 10.8737 15.8232L10.1666 16.5303C9.87375 16.8232 9.87375 17.2981 10.1666 17.591C10.4595 17.8839 10.9344 17.8839 11.2273 17.591L11.9344 16.8839Z" fill="#151E28"/>
</svg>
