<svg viewBox="0 0 32 32" fill="none" xmlns="http://www.w3.org/2000/svg">
<path d="M25 13.3995C25 11.1593 25 10.0392 24.564 9.18355C24.1805 8.4309 23.5686 7.81898 22.816 7.43549C21.9603 6.99951 20.8402 6.99951 18.6 6.99951H13.4C11.1598 6.99951 10.0397 6.99951 9.18404 7.43549C8.43139 7.81898 7.81947 8.4309 7.43597 9.18355C7 10.0392 7 11.1593 7 13.3995V18.5995C7 20.8397 7 21.9598 7.43597 22.8155C7.81947 23.5681 8.43139 24.18 9.18404 24.5635C10.0397 24.9995 11.1598 24.9995 13.4 24.9995L18.6 24.9995C20.8402 24.9995 21.9603 24.9995 22.816 24.5635C23.5686 24.18 24.1805 23.5681 24.564 22.8155C25 21.9598 25 20.8397 25 18.5995V13.3995Z" fill="white"/>
<path d="M18.6002 6.2495L18.6002 7.7495L18.6002 7.7495L18.6002 6.2495ZM18.6332 6.2495L18.6332 7.7495L18.6333 7.7495L18.6332 6.2495ZM13.4002 6.2495L13.4002 7.7495H13.4002L13.4002 6.2495ZM13.3672 6.2495L13.3672 7.7495L13.3672 7.7495L13.3672 6.2495ZM10.712 6.30648L10.8341 7.8015L10.8341 7.8015L10.712 6.30648ZM8.84379 6.76722L9.52478 8.10373L9.52478 8.10373L8.84379 6.76722ZM6.76796 8.84304L8.10447 9.52403L8.10447 9.52403L6.76796 8.84304ZM6.30723 10.7112L4.81221 10.5891L4.81221 10.5891L6.30723 10.7112ZM6.25024 13.3665L7.75024 13.3665L7.75024 13.3665L6.25024 13.3665ZM6.25024 18.6325L7.75024 18.6325V18.6325H6.25024ZM6.30723 21.2878L4.81221 21.4099L4.81221 21.4099L6.30723 21.2878ZM6.76796 23.156L8.10447 22.475L8.10447 22.475L6.76796 23.156ZM8.84379 25.2318L9.52478 23.8953L9.52478 23.8953L8.84379 25.2318ZM10.712 25.6925L10.5898 27.1875L10.5898 27.1875L10.712 25.6925ZM13.3672 25.7495L13.3672 24.2495L13.3672 24.2495L13.3672 25.7495ZM13.4002 25.7495L13.4002 27.2495L13.4002 25.7495ZM18.6002 25.7495L18.6002 24.2495L18.6002 25.7495ZM18.6333 25.7495L18.6333 24.2495H18.6333V25.7495ZM21.2885 25.6925L21.4107 27.1875L21.4107 27.1875L21.2885 25.6925ZM23.1567 25.2318L22.4757 23.8953L22.4757 23.8953L23.1567 25.2318ZM25.2325 23.156L23.896 22.475L23.896 22.475L25.2325 23.156ZM25.6933 21.2878L24.1982 21.1656L24.1982 21.1656L25.6933 21.2878ZM25.7502 18.6325L24.2502 18.6325L24.2502 18.6325L25.7502 18.6325ZM25.7502 18.5995L24.2502 18.5995L24.2502 18.5995L25.7502 18.5995ZM25.7502 13.3995L24.2502 13.3995V13.3995H25.7502ZM25.7502 13.3665L24.2502 13.3665L24.2502 13.3665L25.7502 13.3665ZM25.6933 10.7112L24.1982 10.8334L25.6933 10.7112ZM25.2325 8.84304L23.896 9.52403L23.896 9.52403L25.2325 8.84304ZM23.1567 6.76722L22.4757 8.10373L22.4757 8.10373L23.1567 6.76722ZM21.2885 6.30648L21.1664 7.8015L21.1664 7.8015L21.2885 6.30648ZM22.4757 8.10373L21.7947 9.44024L21.7947 9.44024L22.4757 8.10373ZM21.1664 7.8015L21.0442 9.29652L21.0442 9.29652L21.1664 7.8015ZM23.896 9.52403L22.5595 10.205L22.5595 10.205L23.896 9.52403ZM24.1982 10.8334L22.7032 10.9555L24.1982 10.8334ZM24.2502 13.3995L25.7502 13.3995L24.2502 13.3995ZM24.2502 18.5995L22.7502 18.5995L24.2502 18.5995ZM24.1982 21.1656L25.6933 21.2878L25.6933 21.2878L24.1982 21.1656ZM23.896 22.475L25.2325 23.156L25.2325 23.156L23.896 22.475ZM22.4757 23.8953L23.1567 25.2318L23.1567 25.2318L22.4757 23.8953ZM21.1664 24.1975L21.2885 25.6925L21.2885 25.6925L21.1664 24.1975ZM18.6002 24.2495L18.6002 22.7495L18.6002 24.2495ZM13.4002 24.2495L13.4002 25.7495L13.4002 24.2495ZM10.8341 24.1975L10.712 25.6925L10.712 25.6925L10.8341 24.1975ZM9.52477 23.8953L8.84379 25.2318L8.84379 25.2318L9.52477 23.8953ZM8.10447 22.475L6.76796 23.156L6.76796 23.156L8.10447 22.475ZM7.80225 21.1656L6.30723 21.2878L6.30723 21.2878L7.80225 21.1656ZM7.75024 18.5995H6.25024H7.75024ZM7.75024 13.3995L9.25024 13.3995L7.75024 13.3995ZM7.80225 10.8334L6.30723 10.7112L6.30723 10.7112L7.80225 10.8334ZM8.10447 9.52403L6.76796 8.84304L6.76796 8.84304L8.10447 9.52403ZM9.52477 8.10373L8.84379 6.76722L8.84379 6.76722L9.52477 8.10373ZM10.8341 7.8015L10.9563 9.29652L10.8341 7.8015ZM13.4002 7.7495L13.4002 9.2495L13.4002 7.7495ZM18.6002 7.7495L18.6002 6.2495L18.6002 7.7495ZM18.6002 7.7495L18.6332 7.7495L18.6332 4.7495L18.6002 4.7495L18.6002 7.7495ZM13.4002 7.7495L18.6002 7.7495L18.6002 4.7495L13.4002 4.7495L13.4002 7.7495ZM13.3672 7.7495L13.4002 7.7495L13.4002 4.7495L13.3672 4.7495L13.3672 7.7495ZM10.8341 7.8015C11.4569 7.75062 12.2519 7.74949 13.3672 7.7495L13.3672 4.7495C12.2983 4.74949 11.3623 4.74835 10.5898 4.81147L10.8341 7.8015ZM9.52478 8.10373C9.82937 7.94853 10.2137 7.85219 10.8341 7.8015L10.5898 4.81147C9.78345 4.87735 8.96055 5.02423 8.1628 5.43071L9.52478 8.10373ZM8.10447 9.52403C8.41606 8.9125 8.91325 8.41531 9.52478 8.10373L8.1628 5.43071C6.98679 6.02991 6.03066 6.98604 5.43145 8.16206L8.10447 9.52403ZM7.80225 10.8334C7.85294 10.213 7.94927 9.82863 8.10447 9.52403L5.43145 8.16206C5.02498 8.95981 4.8781 9.78271 4.81221 10.5891L7.80225 10.8334ZM7.75024 13.3665C7.75024 12.2511 7.75137 11.4561 7.80225 10.8334L4.81221 10.5891C4.7491 11.3616 4.75024 12.2976 4.75024 13.3665L7.75024 13.3665ZM7.75024 13.3995V13.3665H4.75024V13.3995H7.75024ZM7.75024 18.5995L7.75024 13.3995H4.75024L4.75024 18.5995H7.75024ZM7.75024 18.6325V18.5995H4.75024V18.6325H7.75024ZM7.80225 21.1656C7.75137 20.5429 7.75024 19.7479 7.75024 18.6325L4.75024 18.6325C4.75024 19.7014 4.7491 20.6374 4.81221 21.4099L7.80225 21.1656ZM8.10447 22.475C7.94927 22.1704 7.85294 21.786 7.80225 21.1656L4.81221 21.4099C4.8781 22.2163 5.02498 23.0392 5.43145 23.8369L8.10447 22.475ZM9.52478 23.8953C8.91325 23.5837 8.41606 23.0865 8.10447 22.475L5.43145 23.8369C6.03066 25.013 6.98679 25.9691 8.1628 26.5683L9.52478 23.8953ZM10.8341 24.1975C10.2137 24.1468 9.82937 24.0505 9.52478 23.8953L8.1628 26.5683C8.96055 26.9748 9.78346 27.1216 10.5898 27.1875L10.8341 24.1975ZM13.3672 24.2495C12.2518 24.2495 11.4569 24.2484 10.8341 24.1975L10.5898 27.1875C11.3623 27.2506 12.2983 27.2495 13.3672 27.2495L13.3672 24.2495ZM13.4002 24.2495H13.3672L13.3672 27.2495H13.4002L13.4002 24.2495ZM18.6002 24.2495L13.4002 24.2495L13.4002 27.2495L18.6002 27.2495L18.6002 24.2495ZM18.6333 24.2495H18.6002V27.2495H18.6333V24.2495ZM21.1664 24.1975C20.5436 24.2484 19.7486 24.2495 18.6333 24.2495L18.6333 27.2495C19.7022 27.2495 20.6382 27.2506 21.4107 27.1875L21.1664 24.1975ZM22.4757 23.8953C22.1711 24.0505 21.7868 24.1468 21.1664 24.1975L21.4107 27.1875C22.217 27.1216 23.0399 26.9748 23.8377 26.5683L22.4757 23.8953ZM23.896 22.475C23.5844 23.0865 23.0872 23.5837 22.4757 23.8953L23.8377 26.5683C25.0137 25.9691 25.9698 25.013 26.569 23.8369L23.896 22.475ZM24.1982 21.1656C24.1475 21.786 24.0512 22.1704 23.896 22.475L26.569 23.8369C26.9755 23.0392 27.1224 22.2163 27.1883 21.4099L24.1982 21.1656ZM24.2502 18.6325C24.2503 19.7479 24.2491 20.5429 24.1982 21.1656L27.1883 21.4099C27.2514 20.6374 27.2502 19.7014 27.2502 18.6325L24.2502 18.6325ZM24.2502 18.5995L24.2502 18.6325L27.2502 18.6325L27.2502 18.5995L24.2502 18.5995ZM24.2502 13.3995V18.5995H27.2502V13.3995L24.2502 13.3995ZM24.2502 13.3665L24.2502 13.3995L27.2502 13.3995L27.2502 13.3665L24.2502 13.3665ZM24.1982 10.8334C24.2491 11.4561 24.2503 12.2511 24.2502 13.3665L27.2502 13.3665C27.2502 12.2976 27.2514 11.3616 27.1883 10.5891L24.1982 10.8334ZM23.896 9.52403C24.0512 9.82863 24.1475 10.213 24.1982 10.8334L27.1883 10.5891C27.1224 9.78271 26.9755 8.95981 26.569 8.16206L23.896 9.52403ZM22.4757 8.10373C23.0872 8.41531 23.5844 8.9125 23.896 9.52403L26.569 8.16206C25.9698 6.98604 25.0137 6.02992 23.8377 5.43071L22.4757 8.10373ZM21.1664 7.8015C21.7868 7.85219 22.1711 7.94853 22.4757 8.10373L23.8377 5.43071C23.0399 5.02423 22.217 4.87735 21.4107 4.81147L21.1664 7.8015ZM18.6333 7.7495C19.7486 7.74949 20.5436 7.75062 21.1664 7.8015L21.4107 4.81147C20.6381 4.74835 19.7021 4.74949 18.6332 4.7495L18.6333 7.7495ZM23.1567 6.76722C22.6053 6.48628 22.0016 6.36474 21.2885 6.30648L21.0442 9.29652C21.5724 9.33968 21.7371 9.41089 21.7947 9.44024L23.1567 6.76722ZM25.2325 8.84304C24.7771 7.94927 24.0505 7.22261 23.1567 6.76722L21.7947 9.44024C22.124 9.60801 22.3917 9.87573 22.5595 10.205L25.2325 8.84304ZM25.6933 10.7112C25.635 9.99817 25.5135 9.3944 25.2325 8.84304L22.5595 10.205C22.5888 10.2626 22.6601 10.4273 22.7032 10.9555L25.6933 10.7112ZM25.7502 13.3995C25.7502 12.2921 25.7508 11.416 25.6933 10.7112L22.7032 10.9555C22.7485 11.5096 22.7502 12.2419 22.7502 13.3995L25.7502 13.3995ZM25.7502 18.5995V13.3995H22.7502V18.5995H25.7502ZM25.6933 21.2878C25.7508 20.583 25.7502 19.7069 25.7502 18.5995L22.7502 18.5995C22.7502 19.7571 22.7485 20.4894 22.7032 21.0435L25.6933 21.2878ZM25.2325 23.156C25.5135 22.6046 25.635 22.0008 25.6933 21.2878L22.7032 21.0435C22.6601 21.5717 22.5888 21.7364 22.5595 21.794L25.2325 23.156ZM23.1567 25.2318C24.0505 24.7764 24.7771 24.0497 25.2325 23.156L22.5595 21.794C22.3917 22.1233 22.124 22.391 21.7947 22.5588L23.1567 25.2318ZM21.2885 25.6925C22.0016 25.6343 22.6053 25.5127 23.1567 25.2318L21.7947 22.5588C21.7371 22.5881 21.5724 22.6593 21.0442 22.7025L21.2885 25.6925ZM18.6002 25.7495C19.7076 25.7495 20.5838 25.7501 21.2885 25.6925L21.0442 22.7025C20.4902 22.7477 19.7578 22.7495 18.6002 22.7495L18.6002 25.7495ZM13.4002 25.7495L18.6002 25.7495L18.6002 22.7495L13.4002 22.7495L13.4002 25.7495ZM10.712 25.6925C11.4167 25.7501 12.2929 25.7495 13.4002 25.7495L13.4002 22.7495C12.2426 22.7495 11.5103 22.7477 10.9563 22.7025L10.712 25.6925ZM8.84379 25.2318C9.39515 25.5127 9.99891 25.6343 10.712 25.6925L10.9563 22.7025C10.4281 22.6593 10.2633 22.5881 10.2058 22.5588L8.84379 25.2318ZM6.76796 23.156C7.22336 24.0497 7.95002 24.7764 8.84379 25.2318L10.2058 22.5588C9.87648 22.391 9.60876 22.1233 9.44098 21.794L6.76796 23.156ZM6.30723 21.2878C6.36549 22.0008 6.48703 22.6046 6.76796 23.156L9.44098 21.794C9.41164 21.7364 9.34042 21.5717 9.29727 21.0435L6.30723 21.2878ZM6.25024 18.5995C6.25024 19.7069 6.24965 20.583 6.30723 21.2878L9.29727 21.0435C9.252 20.4894 9.25024 19.7571 9.25024 18.5995H6.25024ZM6.25024 13.3995L6.25024 18.5995H9.25024L9.25024 13.3995H6.25024ZM6.30723 10.7112C6.24965 11.416 6.25024 12.2921 6.25024 13.3995L9.25024 13.3995C9.25024 12.2419 9.252 11.5096 9.29727 10.9555L6.30723 10.7112ZM6.76796 8.84304C6.48703 9.3944 6.36549 9.99817 6.30723 10.7112L9.29727 10.9555C9.34042 10.4273 9.41164 10.2626 9.44098 10.205L6.76796 8.84304ZM8.84379 6.76722C7.95002 7.22261 7.22336 7.94927 6.76796 8.84304L9.44098 10.205C9.60876 9.87573 9.87648 9.60801 10.2058 9.44024L8.84379 6.76722ZM10.712 6.30648C9.99892 6.36474 9.39515 6.48628 8.84379 6.76722L10.2058 9.44024C10.2633 9.41089 10.4281 9.33968 10.9563 9.29652L10.712 6.30648ZM13.4002 6.2495C12.2929 6.2495 11.4167 6.24891 10.712 6.30648L10.9563 9.29652C11.5103 9.25125 12.2426 9.2495 13.4002 9.2495L13.4002 6.2495ZM18.6002 6.2495L13.4002 6.2495L13.4002 9.2495L18.6002 9.2495L18.6002 6.2495ZM21.2885 6.30648C20.5838 6.24891 19.7076 6.2495 18.6002 6.2495V9.2495C19.7578 9.2495 20.4902 9.25125 21.0442 9.29652L21.2885 6.30648Z" fill="white"/>
<path fill-rule="evenodd" clip-rule="evenodd" d="M18.6332 6.2495H18.6002L13.4002 6.2495H13.3672H13.3672C12.2751 6.24949 11.4096 6.24949 10.712 6.30648C9.99859 6.36477 9.39496 6.48638 8.84379 6.76722C7.95002 7.22261 7.22336 7.94927 6.76796 8.84304C6.48713 9.39422 6.36552 9.99784 6.30723 10.7112C6.25698 11.3263 6.25104 12.0718 6.25034 12.9881C6.25028 12.992 6.25024 12.996 6.25024 13C6.25024 13.0036 6.25027 13.0072 6.25032 13.0108C6.25024 13.1266 6.25024 13.2451 6.25024 13.3665V13.3995L6.25024 18.5995V18.6325L6.25032 18.9891L6.25024 19L6.25034 19.0119C6.25104 19.9278 6.257 20.673 6.30723 21.2878C6.36552 22.0012 6.48713 22.6048 6.76796 23.156C7.22336 24.0497 7.95002 24.7764 8.84379 25.2318C9.39496 25.5126 9.99859 25.6342 10.712 25.6925C11.3228 25.7424 12.0624 25.7486 12.9701 25.7494C12.9801 25.7498 12.9901 25.75 13.0002 25.75C13.01 25.75 13.0197 25.7498 13.0293 25.7494L13.3672 25.7495H13.4002H18.6002H18.6333L18.9712 25.7494C18.9808 25.7498 18.9905 25.75 19.0002 25.75C19.0104 25.75 19.0204 25.7498 19.0304 25.7494C19.9381 25.7486 20.6777 25.7424 21.2885 25.6925C22.0019 25.6342 22.6055 25.5126 23.1567 25.2318C24.0505 24.7764 24.7771 24.0497 25.2325 23.156C25.5134 22.6048 25.635 22.0012 25.6933 21.2878C25.7435 20.673 25.7494 19.9278 25.7502 19.0119L25.7502 19L25.7502 18.9891L25.7502 18.6325V18.5995V13.3995V13.3665C25.7502 13.2452 25.7502 13.1266 25.7502 13.0108C25.7502 13.0072 25.7502 13.0036 25.7502 13C25.7502 12.996 25.7502 12.992 25.7502 12.9881C25.7495 12.0718 25.7435 11.3263 25.6933 10.7112C25.635 9.99784 25.5134 9.39422 25.2325 8.84304C24.7771 7.94927 24.0505 7.22261 23.1567 6.76722C22.6055 6.48638 22.0019 6.36477 21.2885 6.30648C20.5909 6.24949 19.7254 6.24949 18.6333 6.2495H18.6332ZM24.2473 12.25C24.2426 11.6852 24.2303 11.2254 24.1982 10.8334C24.1475 10.2128 24.0512 9.8285 23.896 9.52403C23.5844 8.9125 23.0872 8.41531 22.4757 8.10373C22.1712 7.94859 21.787 7.85221 21.1664 7.8015C20.7745 7.76948 20.3148 7.75718 19.7502 7.75245V12.25H24.2473ZM18.2502 12.25V7.7495L13.7502 7.7495V12.25L18.2502 12.25ZM13.7502 13.75L18.2502 13.75L18.2502 18.25H13.7502L13.7502 13.75ZM12.2502 12.25V7.75245C11.6857 7.75718 11.226 7.76948 10.8341 7.8015C10.2135 7.85221 9.82925 7.94859 9.52477 8.10373C8.91325 8.41531 8.41606 8.9125 8.10447 9.52403C7.94934 9.8285 7.85296 10.2128 7.80225 10.8334C7.77022 11.2254 7.75792 11.6852 7.75319 12.25L12.2502 12.25ZM7.75024 13.75L12.2502 13.75L12.2502 18.25H7.75024L7.75024 13.75ZM19.7502 13.75H24.2502V18.25H19.7502L19.7502 13.75ZM7.80225 21.1656C7.77024 20.7738 7.75793 20.3143 7.7532 19.75H12.2502V24.2465C11.6857 24.2418 11.226 24.2295 10.8341 24.1975C10.2135 24.1468 9.82925 24.0504 9.52477 23.8953C8.91325 23.5837 8.41606 23.0865 8.10447 22.475C7.94934 22.1705 7.85296 21.7862 7.80225 21.1656ZM13.7502 24.2495V19.75H18.2502V24.2495H13.7502ZM19.7502 24.2465V19.75H24.2473C24.2426 20.3143 24.2302 20.7738 24.1982 21.1656C24.1475 21.7862 24.0512 22.1705 23.896 22.475C23.5844 23.0865 23.0872 23.5837 22.4757 23.8953C22.1712 24.0504 21.787 24.1468 21.1664 24.1975C20.7745 24.2295 20.3148 24.2418 19.7502 24.2465Z" fill="#151E28"/>
</svg>
