<svg viewBox="0 0 32 32" fill="none" xmlns="http://www.w3.org/2000/svg">
<path d="M24.9395 9.65172C22.2769 8.88726 14.9087 7.05889 11.3979 9.08587C8.81846 10.5751 7.69324 12.454 7.62781 14.4622C7.59843 15.3639 7.96749 16.2174 8.41859 16.9987L10.0555 19.834C10.5066 20.6153 11.0612 21.3617 11.8568 21.7871C13.6287 22.7345 15.8185 22.6995 18.3979 21.2102C21.85 19.2172 24.5824 13.2458 25.5487 10.9059C25.7641 10.3841 25.4821 9.80751 24.9395 9.65172Z" fill="white"/>
<path d="M24.854 10.4697L23.5053 11.1262L23.5053 11.1262L24.854 10.4697ZM24.7324 10.3724L24.3185 11.8142L24.3185 11.8142L24.7324 10.3724ZM24.8554 10.6195L26.2418 11.192L26.2418 11.192L24.8554 10.6195ZM22.2643 15.7987L20.9822 15.0201L20.9822 15.0201L22.2643 15.7987ZM18.0229 20.5605L17.2729 19.2615L17.2729 19.2615L18.0229 20.5605ZM14.1515 21.6698L14.0712 23.1676L14.0712 23.1676L14.1515 21.6698ZM11.2257 20.4453L12.2031 19.3075L12.2031 19.3075L11.2257 20.4453ZM10.1681 20.5256L9.0302 19.5482L9.0302 19.5482L10.1681 20.5256ZM10.2483 21.5832L9.27092 22.7211L9.27093 22.7211L10.2483 21.5832ZM14.0712 23.1677L13.9909 24.6655L13.9909 24.6655L14.0712 23.1677ZM18.7729 21.8596L18.0229 20.5605L18.0229 20.5605L18.7729 21.8596ZM23.5465 16.5772L22.2643 15.7987L22.2643 15.7987L23.5465 16.5772ZM26.2418 11.192L27.6282 11.7646L27.6282 11.7646L26.2418 11.192ZM25.1464 8.93068L25.5603 7.48893L25.5603 7.48893L25.1464 8.93068ZM18.5721 7.57671L18.4014 9.06697L18.4014 9.06697L18.5721 7.57671ZM14.5584 7.46405L14.4345 5.96919L14.4345 5.96919L14.5584 7.46405ZM11.0229 8.43619L11.7729 9.73523L11.7729 9.73523L11.0229 8.43619ZM7.53921 11.8539L8.87653 12.5333L8.87653 12.5333L7.53921 11.8539ZM6.99994 15.9569L5.52584 16.2344L5.52584 16.2344L6.99994 15.9569ZM7.87575 16.5552L7.59824 15.0811L7.59824 15.0811L7.87575 16.5552ZM8.47405 15.6794L6.99994 15.9569L6.99994 15.9569L8.47405 15.6794ZM8.87653 12.5333L10.2138 13.2127L10.2138 13.2127L8.87653 12.5333ZM11.7729 9.73523L11.0229 8.43619L11.0229 8.43619L11.7729 9.73523ZM14.6824 8.95892L14.5584 7.46405L14.5584 7.46405L14.6824 8.95892ZM18.4014 9.06697L18.2308 10.5572L18.2308 10.5572L18.4014 9.06697ZM19.237 12.7115L19.7115 14.1345L19.7115 14.1345L19.237 12.7115ZM18.7625 11.2885L19.237 12.7115L19.237 12.7115L18.7625 11.2885ZM14.6352 12.6648L15.1097 14.0878L15.1097 14.0878L14.6352 12.6648ZM10.9926 14.6467L10.0556 13.4754L10.0556 13.4754L10.9926 14.6467ZM7.25133 22.4307L8.75133 22.4307L8.75133 22.4307L7.25133 22.4307ZM7.2513 25.0002L5.7513 25.0002L5.7513 25.0002L7.2513 25.0002ZM8.00129 25.7502L8.00128 27.2502L8.00129 25.7502ZM8.7513 25.0002L10.2513 25.0002L10.2513 25.0002L8.7513 25.0002ZM8.75133 22.4307L7.25133 22.4307L7.25133 22.4307L8.75133 22.4307ZM11.9296 15.818L10.9926 14.6467L10.9926 14.6467L11.9296 15.818ZM15.1097 14.0878L14.6352 12.6648L14.6352 12.6648L15.1097 14.0878ZM26.2027 9.81314C25.999 9.39469 25.6239 9.06776 25.1464 8.93068L24.3185 11.8142C23.9671 11.7133 23.6687 11.462 23.5053 11.1262L26.2027 9.81314ZM26.2418 11.192C26.4322 10.731 26.4069 10.2328 26.2026 9.81313L23.5053 11.1262C23.4301 10.9718 23.3788 10.7896 23.372 10.5893C23.3651 10.3877 23.4045 10.2029 23.4689 10.047L26.2418 11.192ZM23.5465 16.5772C24.8099 14.4967 25.7514 12.3797 26.2418 11.192L23.4689 10.047C23.0079 11.1635 22.1336 13.124 20.9822 15.0201L23.5465 16.5772ZM18.7729 21.8596C20.6712 20.7636 22.2985 18.6324 23.5465 16.5772L20.9822 15.0201C19.7851 16.9916 18.4825 18.5631 17.2729 19.2615L18.7729 21.8596ZM14.0712 23.1676C15.5284 23.2457 17.1026 22.8239 18.7729 21.8596L17.2729 19.2615C15.9769 20.0097 14.9758 20.2118 14.2318 20.1719L14.0712 23.1676ZM10.2483 21.5832C11.3265 22.5093 12.6073 23.0892 14.0712 23.1676L14.2318 20.1719C13.5081 20.1332 12.8426 19.8568 12.2031 19.3075L10.2483 21.5832ZM11.3059 21.503C11.036 21.8172 10.5625 21.8531 10.2483 21.5832L12.2031 19.3075C11.2604 18.4978 9.83989 18.6056 9.0302 19.5482L11.3059 21.503ZM11.2257 20.4453C11.5399 20.7152 11.5758 21.1887 11.3059 21.503L9.0302 19.5482C8.22052 20.4908 8.32829 21.9114 9.27092 22.7211L11.2257 20.4453ZM14.1515 21.6698C13.0579 21.6112 12.0847 21.1832 11.2257 20.4453L9.27093 22.7211C10.5679 23.8351 12.1563 24.5672 13.9909 24.6655L14.1515 21.6698ZM18.0229 20.5605C16.5396 21.4169 15.252 21.7288 14.1515 21.6698L13.9909 24.6655C15.8051 24.7627 17.666 24.2307 19.5229 23.1586L18.0229 20.5605ZM22.2643 15.7987C21.042 17.8117 19.577 19.6633 18.0229 20.5605L19.5229 23.1586C21.7649 21.8642 23.5545 19.454 24.8286 17.3558L22.2643 15.7987ZM24.8554 10.6195C24.3796 11.7716 23.4718 13.8103 22.2643 15.7987L24.8286 17.3558C26.148 15.183 27.1231 12.9879 27.6282 11.7646L24.8554 10.6195ZM24.7325 10.3724C24.7954 10.3905 24.8334 10.4275 24.8543 10.4704C24.8744 10.5116 24.88 10.56 24.8554 10.6195L27.6282 11.7646C28.3622 9.98729 27.3777 8.0107 25.5603 7.48893L24.7325 10.3724ZM18.4014 9.06697C20.9561 9.35949 23.4188 9.99528 24.7325 10.3724L25.5603 7.48893C24.1761 7.09149 21.5335 6.406 18.7427 6.08645L18.4014 9.06697ZM14.6824 8.95892C15.8434 8.86263 17.1244 8.92075 18.4014 9.06697L18.7427 6.08645C17.3464 5.92658 15.8558 5.8513 14.4345 5.96919L14.6824 8.95892ZM11.7729 9.73523C12.5179 9.3051 13.5144 9.0558 14.6824 8.95892L14.4345 5.96919C13.0343 6.08532 11.5487 6.40054 10.2729 7.13715L11.7729 9.73523ZM8.87653 12.5333C9.37569 11.5508 10.2896 10.5916 11.7729 9.73523L10.2729 7.13715C8.416 8.20921 7.02478 9.55477 6.2019 11.1745L8.87653 12.5333ZM8.47405 15.6794C8.26455 14.5665 8.38048 13.5097 8.87653 12.5333L6.2019 11.1745C5.36972 12.8125 5.20953 14.5541 5.52584 16.2344L8.47405 15.6794ZM7.59824 15.0811C8.00531 15.0044 8.39742 15.2723 8.47405 15.6794L5.52584 16.2344C5.75573 17.4556 6.93206 18.2592 8.15325 18.0293L7.59824 15.0811ZM6.99994 15.9569C6.92331 15.5498 7.19118 15.1577 7.59824 15.0811L8.15325 18.0293C9.37444 17.7994 10.1781 16.623 9.94816 15.4018L6.99994 15.9569ZM7.53921 11.8539C6.87521 13.1609 6.73699 14.56 6.99994 15.9569L9.94816 15.4019C9.79218 14.5733 9.88559 13.8588 10.2138 13.2127L7.53921 11.8539ZM11.0229 8.43619C9.35264 9.40049 8.20016 10.5529 7.53921 11.8539L10.2138 13.2127C10.5513 12.5484 11.2269 11.7825 12.5229 11.0343L11.0229 8.43619ZM14.5584 7.46405C13.2744 7.57055 12.0333 7.8528 11.0229 8.43619L12.5229 11.0343C13.0024 10.7574 13.7544 10.541 14.8064 10.4538L14.5584 7.46405ZM18.5721 7.57671C17.2354 7.42367 15.8496 7.35696 14.5584 7.46405L14.8064 10.4538C15.8372 10.3683 17.0133 10.4178 18.2308 10.5572L18.5721 7.57671ZM25.1464 8.93068C23.7975 8.54339 21.2448 7.88275 18.5721 7.57671L18.2308 10.5572C20.6674 10.8362 23.0401 11.4472 24.3185 11.8142L25.1464 8.93068ZM18.2883 12.2373C18.1572 11.8443 18.3696 11.4196 18.7625 11.2885L19.7115 14.1345C20.8903 13.7414 21.5273 12.4671 21.1342 11.2883L18.2883 12.2373ZM19.237 12.7115C18.844 12.8425 18.4193 12.6302 18.2883 12.2373L21.1342 11.2883C20.7411 10.1095 19.4669 9.47248 18.288 9.86556L19.237 12.7115ZM15.1097 14.0878L19.237 12.7115L18.288 9.86556L14.1607 11.2418L15.1097 14.0878ZM11.9296 15.818C12.8793 15.0582 13.9559 14.4725 15.1097 14.0878L14.1607 11.2418C12.6713 11.7384 11.2815 12.4946 10.0556 13.4754L11.9296 15.818ZM8.75133 22.4307C8.75136 19.8581 9.92079 17.425 11.9296 15.818L10.0556 13.4754C7.33507 15.6517 5.75137 18.9468 5.75133 22.4307L8.75133 22.4307ZM8.7513 25.0002L8.75133 22.4307L5.75133 22.4307L5.7513 25.0002L8.7513 25.0002ZM8.00131 24.2502C8.41553 24.2502 8.75131 24.586 8.7513 25.0002L5.7513 25.0002C5.75129 26.2428 6.75864 27.2502 8.00128 27.2502L8.00131 24.2502ZM7.2513 25.0002C7.25131 24.586 7.5871 24.2502 8.00131 24.2502L8.00128 27.2502C9.24392 27.2502 10.2513 26.2428 10.2513 25.0002L7.2513 25.0002ZM7.25133 22.4307L7.2513 25.0002L10.2513 25.0002L10.2513 22.4308L7.25133 22.4307ZM10.9926 14.6467C8.62793 16.5384 7.25137 19.4025 7.25133 22.4307L10.2513 22.4308C10.2514 20.3138 11.2136 18.3117 12.8667 16.9893L10.9926 14.6467ZM14.6352 12.6648C13.3136 13.1054 12.0804 13.7764 10.9926 14.6467L12.8667 16.9893C13.6782 16.34 14.5982 15.8395 15.5841 15.5107L14.6352 12.6648ZM18.7625 11.2885L14.6352 12.6648L15.5841 15.5107L19.7115 14.1345L18.7625 11.2885Z" fill="white"/>
<path fill-rule="evenodd" clip-rule="evenodd" d="M24.7324 10.3724C24.7955 10.3905 24.8338 10.4283 24.854 10.4697C24.8739 10.5106 24.8793 10.5616 24.8554 10.6195C24.3796 11.7716 23.4717 13.8103 22.2643 15.7987C21.0418 17.812 19.5768 19.6634 18.0229 20.5605C16.5398 21.4168 15.2521 21.7288 14.1515 21.6698C13.0577 21.6112 12.0846 21.1831 11.2257 20.4453C10.9115 20.1754 10.438 20.2114 10.1681 20.5256C9.89817 20.8398 9.93409 21.3133 10.2483 21.5832C11.3263 22.5092 12.6071 23.0892 14.0712 23.1677C15.5285 23.2458 17.1028 22.8238 18.7729 21.8596C20.671 20.7637 22.2983 18.6328 23.5465 16.5772C24.8099 14.4967 25.7513 12.3797 26.2418 11.192C26.6299 10.2522 26.1144 9.20861 25.1464 8.93068C23.7975 8.54338 21.2448 7.88275 18.5721 7.57671C17.2354 7.42366 15.8496 7.35697 14.5584 7.46405C13.2743 7.57056 12.0333 7.85282 11.0229 8.43619C9.35282 9.40039 8.20024 10.5528 7.53921 11.8539C6.8751 13.1611 6.73704 14.5603 6.99994 15.9569C7.07657 16.3639 7.46868 16.6318 7.87575 16.5552C8.28281 16.4785 8.55068 16.0864 8.47405 15.6794C8.26458 14.5667 8.3804 13.5099 8.87653 12.5333C9.37575 11.5507 10.2898 10.5915 11.7729 9.73523C12.5178 9.30511 13.5144 9.0558 14.6824 8.95892C15.8434 8.86263 17.1244 8.92075 18.4014 9.06697C20.9561 9.35949 23.4188 9.99527 24.7324 10.3724ZM19.237 12.7115C19.6299 12.5805 19.8423 12.1557 19.7112 11.7628C19.5802 11.3698 19.1554 11.1575 18.7625 11.2885L14.6352 12.6648C13.3136 13.1054 12.0804 13.7764 10.9926 14.6467C8.62793 16.5384 7.25137 19.4025 7.25133 22.4307L7.2513 25.0002C7.2513 25.4144 7.58708 25.7502 8.00129 25.7502C8.41551 25.7502 8.7513 25.4144 8.7513 25.0002L8.75133 22.4307C8.75136 19.8581 9.92079 17.425 11.9296 15.818C12.8793 15.0582 13.9559 14.4725 15.1097 14.0878L19.237 12.7115Z" fill="#151E28"/>
</svg>
