<svg viewBox="0 0 32 32" fill="none" xmlns="http://www.w3.org/2000/svg">
<path d="M22.038 8.41804L8.50087 13.2527C7.51226 13.6058 7.01795 13.7823 6.83369 14.0774C6.6734 14.3341 6.63797 14.6496 6.73732 14.9354C6.85153 15.264 7.29435 15.5458 8.18 16.1094L13.1982 19.3028L16.3916 24.321C16.9552 25.2066 17.237 25.6495 17.5656 25.7637C17.8514 25.863 18.1669 25.8276 18.4236 25.6673C18.7186 25.483 18.8952 24.9887 19.2483 24.0001L24.083 10.463C24.4459 9.44667 24.6274 8.93852 24.512 8.6059C24.4116 8.31669 24.1843 8.08939 23.8951 7.98902C23.5625 7.87359 23.0543 8.05507 22.038 8.41804Z" fill="white"/>
<path d="M8.24862 12.5465L8.75309 13.9592L8.75312 13.9592L8.24862 12.5465ZM8.21529 12.5584L8.71975 13.9711L8.71976 13.9711L8.21529 12.5584ZM21.7858 7.71184L22.2903 9.12445L22.2903 9.12444L21.7858 7.71184ZM21.8193 7.69987L22.3238 9.11247L22.3238 9.11247L21.8193 7.69987ZM23.0355 7.29804L22.6606 5.84564L22.6606 5.84564L23.0355 7.29804ZM24.141 7.28059L24.6328 5.86349L24.6328 5.86349L24.141 7.28059ZM25.2205 8.36012L26.6376 7.86834L26.6376 7.86834L25.2205 8.36012ZM25.2031 9.46561L23.7507 9.09072L23.7507 9.09072L25.2031 9.46561ZM24.8012 10.6819L26.2138 11.1864L26.2138 11.1864L24.8012 10.6819ZM24.7893 10.7153L23.3767 10.2108L23.3766 10.2108L24.7893 10.7153ZM19.9546 24.2525L18.5419 23.748L18.5419 23.7481L19.9546 24.2525ZM19.9427 24.2858L21.3553 24.7902L21.3553 24.7902L19.9427 24.2858ZM19.4947 25.4507L20.8558 26.0811L20.8558 26.0811L19.4947 25.4507ZM18.8208 26.3036L19.6154 27.5759L19.6154 27.5759L18.8208 26.3036ZM17.3194 26.4722L17.8118 25.0553L17.8118 25.0553L17.3194 26.4722ZM16.4731 25.7901L15.2858 26.7068L15.2858 26.7068L16.4731 25.7901ZM15.7779 24.7536L17.0434 23.9483L17.0434 23.9483L15.7779 24.7536ZM15.7589 24.7237L17.0244 23.9185L17.0244 23.9184L15.7589 24.7237ZM12.6549 19.8462L13.9204 19.0408L13.7415 18.7596L13.4603 18.5807L12.6549 19.8462ZM7.77735 16.7422L8.58266 15.4767L8.58263 15.4767L7.77735 16.7422ZM7.74749 16.7232L8.55278 15.4577L8.55276 15.4577L7.74749 16.7232ZM6.71103 16.028L7.62772 14.8407L6.71103 16.028ZM6.02889 15.1817L4.61204 15.6742L4.61204 15.6742L6.02889 15.1817ZM6.19754 13.6803L4.92524 12.8857L6.19754 13.6803ZM7.05042 13.0064L7.68088 14.3675L7.68088 14.3675L7.05042 13.0064ZM17.0244 23.9184L15.7589 24.7237L15.7589 24.7237L17.0244 23.9184ZM14.154 19.4078L13.0933 18.3471L12.2425 19.198L12.8885 20.2131L14.154 19.4078ZM17.6604 24.8734L18.8477 23.9567L17.6604 24.8734ZM17.8287 25.0606L16.8835 26.2253L17.1305 26.4257L17.4376 26.5087L17.8287 25.0606ZM18.011 25.0401L18.7137 26.3653L18.9947 26.2163L19.191 25.9661L18.011 25.0401ZM18.1336 24.8202L16.7726 24.1898L16.7725 24.1898L18.1336 24.8202ZM18.5419 23.748L17.1293 23.2435L17.1293 23.2435L18.5419 23.748ZM23.3766 10.2108L21.964 9.70631L21.964 9.70631L23.3766 10.2108ZM23.7507 9.09072L22.2983 8.71583L22.2983 8.71584L23.7507 9.09072ZM23.7966 8.83448L25.2963 8.86777L25.3036 8.53957L25.1731 8.23833L23.7966 8.83448ZM23.6666 8.70446L24.2628 7.32802L23.9615 7.19755L23.6333 7.20483L23.6666 8.70446ZM23.4104 8.75044L23.0355 7.29804L23.0355 7.29804L23.4104 8.75044ZM22.2903 9.12445L21.7858 7.71184L21.7858 7.71184L22.2903 9.12445ZM8.75312 13.9592L8.24862 12.5465L8.24862 12.5465L8.75312 13.9592ZM7.68088 14.3675L7.05042 13.0064L7.05042 13.0064L7.68088 14.3675ZM7.46101 14.4901L6.53497 13.3101L6.28478 13.5064L6.1358 13.7874L7.46101 14.4901ZM7.44054 14.6724L5.99245 15.0636L6.07539 15.3706L6.27579 15.6176L7.44054 14.6724ZM7.62772 14.8407L8.54442 13.6534L8.54442 13.6534L7.62772 14.8407ZM8.58266 15.4767L7.77735 16.7422L7.77735 16.7422L8.58266 15.4767ZM13.0933 18.3471L12.288 19.6126L13.3031 20.2586L14.154 19.4078L13.0933 18.3471ZM17.6176 13.8228L18.6783 14.8835L17.6176 13.8228ZM18.6783 14.8835L19.7389 15.9441L18.6783 14.8835ZM7.74414 11.1339L7.71082 11.1458L8.71976 13.9711L8.75309 13.9592L7.74414 11.1339ZM21.2813 6.29923L7.74411 11.1339L8.75312 13.9592L22.2903 9.12445L21.2813 6.29923ZM21.3147 6.28727L21.2812 6.29924L22.2903 9.12444L22.3238 9.11247L21.3147 6.28727ZM22.6606 5.84564C22.251 5.95137 21.7698 6.12474 21.3147 6.28727L22.3238 9.11247C22.8278 8.93245 23.1623 8.81447 23.4104 8.75044L22.6606 5.84564ZM24.6328 5.86349C23.8042 5.57597 23.0384 5.74812 22.6606 5.84564L23.4104 8.75044C23.5302 8.71952 23.6024 8.70796 23.6497 8.70524C23.6917 8.70283 23.6832 8.70948 23.6492 8.69768L24.6328 5.86349ZM26.6376 7.86834C26.3114 6.92842 25.5727 6.18968 24.6328 5.86349L23.6492 8.69768C23.7215 8.72277 23.7783 8.7796 23.8034 8.8519L26.6376 7.86834ZM26.6555 9.84049C26.753 9.46265 26.9251 8.69685 26.6376 7.86834L23.8034 8.8519C23.7916 8.81789 23.7983 8.80943 23.7959 8.85136C23.7931 8.89869 23.7816 8.97093 23.7507 9.09072L26.6555 9.84049ZM26.2138 11.1864C26.3764 10.7313 26.5497 10.2501 26.6555 9.84049L23.7507 9.09072C23.6866 9.3388 23.5686 9.67329 23.3886 10.1773L26.2138 11.1864ZM26.2018 11.2199L26.2138 11.1864L23.3886 10.1773L23.3767 10.2108L26.2018 11.2199ZM21.3672 24.757L26.2019 11.2198L23.3766 10.2108L18.5419 23.748L21.3672 24.757ZM21.3553 24.7902L21.3672 24.7569L18.5419 23.7481L18.53 23.7814L21.3553 24.7902ZM20.8558 26.0811C21.0306 25.7038 21.1976 25.2317 21.3553 24.7902L18.53 23.7813C18.355 24.2715 18.2381 24.5947 18.1336 24.8202L20.8558 26.0811ZM19.6154 27.5759C20.346 27.1196 20.6923 26.4341 20.8558 26.0811L18.1336 24.8202C18.0832 24.9292 18.0475 24.9902 18.0208 25.0269C17.9973 25.0593 17.9974 25.0493 18.0263 25.0313L19.6154 27.5759ZM16.8269 27.8891C17.7559 28.212 18.7811 28.0968 19.6154 27.5759L18.0263 25.0313C17.9621 25.0713 17.8833 25.0802 17.8118 25.0553L16.8269 27.8891ZM15.2858 26.7068C15.5235 27.0147 16.0132 27.6062 16.8269 27.8891L17.8118 25.0553C17.844 25.0665 17.8463 25.0763 17.8162 25.0499C17.7821 25.02 17.7338 24.9684 17.6604 24.8734L15.2858 26.7068ZM14.5123 25.5589C14.764 25.9544 15.0316 26.3776 15.2858 26.7068L17.6604 24.8734C17.5085 24.6767 17.3228 24.3875 17.0434 23.9483L14.5123 25.5589ZM14.4934 25.529L14.5123 25.5589L17.0434 23.9483L17.0244 23.9185L14.4934 25.529ZM11.3894 20.6515L14.4934 25.5291L17.0244 23.9184L13.9204 19.0408L11.3894 20.6515ZM6.97204 18.0077L11.8496 21.1117L13.4603 18.5807L8.58266 15.4767L6.97204 18.0077ZM6.94221 17.9887L6.97206 18.0077L8.58263 15.4767L8.55278 15.4577L6.94221 17.9887ZM5.79433 17.2153C6.12349 17.4695 6.54671 17.7371 6.94222 17.9888L8.55276 15.4577C8.1136 15.1783 7.82441 14.9926 7.62772 14.8407L5.79433 17.2153ZM4.61204 15.6742C4.89485 16.4879 5.48642 16.9776 5.79433 17.2153L7.62772 14.8407C7.53267 14.7673 7.4811 14.719 7.45122 14.6849C7.42484 14.6548 7.43457 14.6571 7.44575 14.6893L4.61204 15.6742ZM4.92524 12.8857C4.4043 13.72 4.28914 14.7452 4.61204 15.6742L7.44575 14.6893C7.42091 14.6178 7.42977 14.539 7.46984 14.4748L4.92524 12.8857ZM6.41996 11.6453C6.06698 11.8088 5.38152 12.1551 4.92524 12.8857L7.46984 14.4748C7.4518 14.5037 7.44179 14.5038 7.47421 14.4803C7.51092 14.4536 7.57192 14.4179 7.68088 14.3675L6.41996 11.6453ZM7.71083 11.1458C7.26935 11.3035 6.7973 11.4705 6.41996 11.6453L7.68088 14.3675C7.90636 14.263 8.22954 14.1461 8.71975 13.9711L7.71083 11.1458ZM18.2898 23.1131L15.4194 18.6025L12.8885 20.2131L15.7589 24.7237L18.2898 23.1131ZM18.8477 23.9567C18.7434 23.8217 18.5963 23.5947 18.2898 23.1131L15.7589 24.7237C16.032 25.153 16.2651 25.5207 16.4731 25.7901L18.8477 23.9567ZM18.7739 23.8958C18.7932 23.9115 18.8118 23.9275 18.8287 23.9432C18.8447 23.958 18.856 23.9695 18.8627 23.9765C18.8756 23.99 18.8706 23.9864 18.8477 23.9567L16.4731 25.7901C16.626 25.9882 16.7588 26.1241 16.8835 26.2253L18.7739 23.8958ZM17.3083 23.7149C17.5882 23.5664 17.914 23.5298 18.2199 23.6125L17.4376 26.5087C17.8657 26.6243 18.3219 26.5731 18.7137 26.3653L17.3083 23.7149ZM16.7725 24.1898C16.7567 24.2239 16.7528 24.2285 16.7623 24.2124C16.7672 24.2041 16.7757 24.1904 16.788 24.1725C16.8011 24.1534 16.8156 24.1336 16.831 24.114L19.191 25.9661C19.2902 25.8398 19.3895 25.6778 19.4947 25.4507L16.7725 24.1898ZM17.1293 23.2435C16.9373 23.7811 16.8443 24.035 16.7726 24.1898L19.4947 25.4507C19.6377 25.1419 19.7834 24.7316 19.9546 24.2525L17.1293 23.2435ZM21.964 9.70631L17.1293 23.2435L19.9546 24.2525L24.7893 10.7153L21.964 9.70631ZM22.2983 8.71584C22.2536 8.88878 22.161 9.15489 21.964 9.70631L24.7893 10.7153C24.9653 10.2223 25.1161 9.80231 25.2031 9.4656L22.2983 8.71584ZM22.297 8.80119C22.2975 8.77787 22.2987 8.7543 22.3007 8.73166C22.3025 8.71052 22.3045 8.69511 22.3059 8.68616C22.3085 8.66896 22.3083 8.67687 22.2983 8.71583L25.2031 9.46561C25.2673 9.2166 25.2927 9.02686 25.2963 8.86777L22.297 8.80119ZM23.0705 10.0809C22.7789 9.95465 22.5465 9.72216 22.4202 9.43063L25.1731 8.23833C24.9963 7.83026 24.6708 7.50475 24.2628 7.32802L23.0705 10.0809ZM23.7853 10.2028C23.8242 10.1928 23.8321 10.1926 23.8149 10.1952C23.806 10.1965 23.7906 10.1986 23.7694 10.2004C23.7468 10.2024 23.7232 10.2036 23.6999 10.2041L23.6333 7.20483C23.4742 7.20836 23.2845 7.23377 23.0355 7.29804L23.7853 10.2028ZM22.7948 10.5371C23.3462 10.3401 23.6123 10.2475 23.7853 10.2028L23.0355 7.29804C22.6988 7.38495 22.2788 7.53575 21.7858 7.71184L22.7948 10.5371ZM9.25763 15.3718L22.7948 10.5371L21.7858 7.71184L8.24862 12.5465L9.25763 15.3718ZM8.31134 15.7285C8.46613 15.6568 8.72001 15.5638 9.25763 15.3718L8.24862 12.5465C7.76945 12.7177 7.35922 12.8634 7.05042 13.0064L8.31134 15.7285ZM8.38706 15.6701C8.36746 15.6855 8.34775 15.7 8.32865 15.7131C8.3107 15.7254 8.29699 15.7338 8.28867 15.7388C8.27263 15.7483 8.27721 15.7444 8.31134 15.7285L7.05042 13.0064C6.82331 13.1116 6.66132 13.2109 6.53497 13.3101L8.38706 15.6701ZM8.88862 14.2812C8.97126 14.5871 8.93467 14.9129 8.78623 15.1928L6.1358 13.7874C5.92801 14.1792 5.87677 14.6354 5.99245 15.0636L8.88862 14.2812ZM8.54442 13.6534C8.51465 13.6304 8.51106 13.6255 8.52458 13.6384C8.5316 13.6451 8.54308 13.6564 8.55787 13.6724C8.57358 13.6894 8.58959 13.7079 8.60529 13.7272L6.27579 15.6176C6.37699 15.7423 6.51291 15.8751 6.71103 16.028L8.54442 13.6534ZM9.38798 14.2113C8.90635 13.9048 8.67945 13.7577 8.54442 13.6534L6.71103 16.028C6.9804 16.236 7.34809 16.4691 7.77735 16.7422L9.38798 14.2113ZM13.8986 17.0817L9.38798 14.2113L7.77735 16.7422L12.288 19.6126L13.8986 17.0817ZM16.557 12.7622L12.0326 17.2865L14.154 19.4078L18.6783 14.8835L16.557 12.7622ZM19.7389 12.7622C18.8603 11.8835 17.4356 11.8835 16.557 12.7622L18.6783 14.8835C18.3854 15.1764 17.9105 15.1764 17.6176 14.8835L19.7389 12.7622ZM19.7389 15.9441C20.6176 15.0655 20.6176 13.6408 19.7389 12.7622L17.6176 14.8835C17.3247 14.5906 17.3247 14.1157 17.6176 13.8228L19.7389 15.9441ZM15.2146 20.4685L19.7389 15.9441L17.6176 13.8228L13.0933 18.3471L15.2146 20.4685Z" fill="white"/>
<path fill-rule="evenodd" clip-rule="evenodd" d="M8.21529 12.5584L8.24862 12.5465L21.7858 7.71184L21.8193 7.69987C22.2988 7.52859 22.7067 7.38292 23.0355 7.29804C23.3576 7.2149 23.7535 7.14611 24.141 7.28059C24.6471 7.45622 25.0449 7.85401 25.2205 8.36012C25.355 8.74763 25.2862 9.1435 25.2031 9.46561C25.1182 9.79446 24.9725 10.2023 24.8012 10.6819L24.7893 10.7153L19.9546 24.2525L19.9427 24.2858C19.7763 24.7516 19.6343 25.1493 19.4947 25.4507C19.3571 25.7477 19.1631 26.0898 18.8208 26.3036C18.3716 26.5841 17.8196 26.6461 17.3194 26.4722C16.9382 26.3397 16.6731 26.0491 16.4731 25.7901C16.2701 25.5271 16.0434 25.1709 15.7779 24.7536L15.7589 24.7237L12.6549 19.8462L7.77735 16.7422L7.74749 16.7232C7.33016 16.4577 6.97395 16.231 6.71103 16.028C6.45197 15.828 6.16138 15.5629 6.02889 15.1817C5.85503 14.6815 5.91703 14.1295 6.19754 13.6803C6.4113 13.338 6.75344 13.144 7.05042 13.0064C7.35183 12.8668 7.74944 12.7248 8.21529 12.5584ZM14.154 19.4078L17.0244 23.9184C17.3142 24.3739 17.5043 24.6712 17.6604 24.8734C17.7593 25.0015 17.8131 25.0479 17.8287 25.0606C17.8899 25.0771 17.9551 25.0698 18.011 25.0401C18.0234 25.0243 18.0656 24.9671 18.1336 24.8202C18.241 24.5884 18.3604 24.2564 18.5419 23.748L23.3766 10.2108C23.5632 9.68859 23.6849 9.34555 23.7507 9.09072C23.7925 8.92857 23.7962 8.8552 23.7966 8.83448C23.7714 8.77621 23.7249 8.7297 23.6666 8.70446C23.6459 8.70492 23.5725 8.70859 23.4104 8.75044C23.1556 8.81622 22.8125 8.93794 22.2903 9.12445L8.75312 13.9592C8.24473 14.1407 7.91267 14.2601 7.68088 14.3675C7.534 14.4355 7.4768 14.4777 7.46101 14.4901C7.43134 14.5461 7.42402 14.6112 7.44054 14.6724C7.45318 14.688 7.4996 14.7418 7.62772 14.8407C7.82992 14.9968 8.12722 15.1869 8.58266 15.4767L13.0933 18.3471L17.6176 13.8228C17.9105 13.5299 18.3854 13.5299 18.6783 13.8228C18.9712 14.1157 18.9712 14.5906 18.6783 14.8835L14.154 19.4078Z" fill="#151E28"/>
</svg>
