<svg viewBox="0 0 32 32" fill="none" xmlns="http://www.w3.org/2000/svg">
<path fill-rule="evenodd" clip-rule="evenodd" d="M8.59795 19.4946L9.19549 20.9884C9.48601 21.7147 9.63127 22.0779 9.87399 22.345C10.0885 22.581 10.3563 22.7624 10.6551 22.8738C10.9932 23 11.3844 23 12.1666 23H19.8336C20.6158 23 21.007 23 21.3451 22.8738C21.6439 22.7624 21.9117 22.581 22.1262 22.345C22.3689 22.0779 22.5142 21.7147 22.8047 20.9884L23.4023 19.4946C23.6214 18.9467 23.731 18.6728 23.7593 18.3927C23.7844 18.1447 23.7629 17.8941 23.696 17.654C23.6203 17.3829 23.4657 17.1316 23.1564 16.629L17.3628 7.2143C16.9118 6.48152 16.6863 6.11512 16.3966 5.98998C16.1436 5.88072 15.8567 5.88072 15.6036 5.98998C15.3139 6.11512 15.0884 6.48152 14.6375 7.2143L8.84377 16.629C8.5345 17.1316 8.37987 17.3829 8.30425 17.654C8.23727 17.8941 8.21578 18.1447 8.24088 18.3927C8.26922 18.6728 8.3788 18.9467 8.59795 19.4946L8.59795 19.4946Z" fill="white"/>
<path d="M15.3063 5.30146L15.901 6.67854L15.901 6.67854L15.3063 5.30146ZM16.6939 5.30146L16.0992 6.67854L16.0992 6.67854L16.6939 5.30146ZM14.5807 5.92462L15.7812 6.82396L15.7812 6.82396L14.5807 5.92462ZM14.0162 6.7929L15.2937 7.57902L15.2937 7.57899L14.0162 6.7929ZM13.9987 6.82125L15.2762 7.60739L15.2762 7.60736L13.9987 6.82125ZM8.20503 16.236L9.48215 17.0227L9.48251 17.0221L8.20503 16.236ZM8.15881 16.311L9.43576 17.098L9.43594 17.0977L8.15881 16.311ZM7.58182 17.4525L6.13697 17.0495L6.13697 17.0495L7.58182 17.4525ZM7.49469 18.4682L8.98707 18.3172L8.98707 18.3172L7.49469 18.4682ZM7.86883 19.6914L9.2613 19.1336L9.26116 19.1333L7.86883 19.6914ZM7.90159 19.7732L9.29431 19.2161L9.29405 19.2154L7.90159 19.7732ZM8.49913 21.267L9.89217 20.7107L9.89184 20.7099L8.49913 21.267ZM8.54319 21.3773L9.9364 20.8215L9.93623 20.8211L8.54319 21.3773ZM9.31893 22.8494L10.4291 21.8406L10.4291 21.8406L9.31893 22.8494ZM9.67781 23.18L10.8919 24.0609C11.3689 23.4036 11.236 22.486 10.5922 21.9909L9.67781 23.18ZM22.3224 23.18L21.408 21.9909C20.7642 22.486 20.6314 23.4036 21.1084 24.0609L22.3224 23.18ZM22.6813 22.8494L21.5712 21.8406L21.5711 21.8406L22.6813 22.8494ZM23.457 21.3773L22.064 20.8211L22.0638 20.8215L23.457 21.3773ZM23.5011 21.267L22.1084 20.7099L22.108 20.7107L23.5011 21.267ZM24.0986 19.7732L22.7062 19.2154L22.7059 19.2161L24.0986 19.7732ZM24.1314 19.6914L22.7391 19.1333L22.7389 19.1336L24.1314 19.6914ZM24.5055 18.4682L25.9979 18.6193L25.9979 18.6193L24.5055 18.4682ZM24.4184 17.4525L25.8632 17.0495L25.8632 17.0495L24.4184 17.4525ZM23.8414 16.311L22.4487 16.8681C22.4806 16.9479 22.5194 17.0249 22.5645 17.098L23.8414 16.311ZM23.8414 16.311L25.2341 15.7539C25.2022 15.6742 25.1635 15.5974 25.1185 15.5242L23.8414 16.311ZM23.7952 16.236L22.5177 17.0221L22.5181 17.0227L23.7952 16.236ZM18.0015 6.82125L16.724 7.60734L16.724 7.60739L18.0015 6.82125ZM17.984 6.79287L16.7043 7.57538L16.7065 7.57897L17.984 6.79287ZM17.984 6.79285L16.6971 7.56362L16.7043 7.57536L17.984 6.79285ZM17.984 6.79279L19.2708 6.02205L19.269 6.01901L17.984 6.79279ZM17.984 6.79272L19.269 6.01895C19.2665 6.01483 19.264 6.01072 19.2615 6.00662L17.984 6.79272ZM17.4195 5.92462L18.62 5.02528L18.62 5.02528L17.4195 5.92462ZM19.9524 23.7501L19.9516 25.2501H19.9524V23.7501ZM19.8369 23.75L19.836 25.25L19.8369 23.75ZM19.9524 23.7501L19.9538 22.2501H19.9524V23.7501ZM20.1762 23.75L20.1762 22.25L20.1721 22.25L20.1762 23.75ZM11.824 23.75L11.8282 22.25H11.824V23.75ZM12.0478 23.7501L12.0469 22.2501L12.0464 22.2501L12.0478 23.7501ZM12.1633 23.75L12.1642 25.25L12.1633 23.75ZM12.1666 23.75L12.1666 22.25L12.1657 22.25L12.1666 23.75ZM19.8336 23.75L19.8345 22.25H19.8336V23.75ZM21.083 22.1712L20.5587 20.7658L20.5587 20.7658L21.083 22.1712ZM21.5712 21.8406L20.461 20.8319L20.461 20.8319L21.5712 21.8406ZM22.1084 20.7099L20.7157 20.1528L20.7157 20.1528L22.1084 20.7099ZM22.7059 19.2161L21.3132 18.659L21.3132 18.659L22.7059 19.2161ZM23.0131 18.3172L21.5208 18.1662L21.5208 18.1662L23.0131 18.3172ZM22.9735 17.8555L21.5287 18.2585L21.5287 18.2585L22.9735 17.8555ZM22.5177 17.0221L21.2402 17.8083L21.2402 17.8083L22.5177 17.0221ZM16.7502 7.65L18.0277 6.86385C17.676 6.29231 16.9875 6.02393 16.3417 6.2067C15.696 6.38947 15.2502 6.9789 15.2502 7.65H16.7502ZM16.7502 13.3535L15.2502 13.3535C15.2502 14.0247 15.6961 14.6142 16.342 14.7969L16.7502 13.3535ZM15.2502 13.3535L15.6585 14.7969C16.3043 14.6142 16.7502 14.0247 16.7502 13.3535L15.2502 13.3535ZM15.2502 7.64958H16.7502C16.7502 6.97848 16.3045 6.38905 15.6588 6.20628C15.013 6.02351 14.3245 6.29189 13.9727 6.86343L15.2502 7.64958ZM9.48251 17.0221L8.20503 16.236L8.20503 16.236L9.48251 17.0221ZM9.02667 17.8555L10.4715 18.2585L10.4715 18.2585L9.02667 17.8555ZM8.98707 18.3172L10.4794 18.1662L10.4794 18.1662L8.98707 18.3172ZM9.29431 19.2161L10.687 18.659L10.687 18.659L9.29431 19.2161ZM9.89184 20.7099L11.2846 20.1528L11.2846 20.1528L9.89184 20.7099ZM10.4291 21.8406L11.5392 20.8319L11.5392 20.8319L10.4291 21.8406ZM10.9172 22.1712L11.4416 20.7658L11.4416 20.7658L10.9172 22.1712ZM15.901 6.67854C15.9642 6.65122 16.036 6.65122 16.0992 6.67854L17.2886 3.92438C16.4663 3.56927 15.5339 3.56927 14.7116 3.92438L15.901 6.67854ZM15.7812 6.82396C15.8391 6.74669 15.8764 6.70616 15.9009 6.68365C15.9222 6.66407 15.9216 6.66964 15.901 6.67854L14.7116 3.92438C14.0222 4.22212 13.6042 4.72629 13.3802 5.02528L15.7812 6.82396ZM15.2937 7.57899C15.517 7.21598 15.6617 6.98347 15.7812 6.82396L13.3802 5.02528C13.1603 5.31895 12.9363 5.68558 12.7386 6.00682L15.2937 7.57899ZM15.2762 7.60736L15.2937 7.57902L12.7386 6.00679L12.7212 6.03513L15.2762 7.60736ZM9.48251 17.0221L15.2762 7.60739L12.7212 6.0351L6.92754 15.4498L9.48251 17.0221ZM9.43594 17.0977L9.48215 17.0227L6.9279 15.4493L6.88169 15.5243L9.43594 17.0977ZM9.02667 17.8555C9.06354 17.7234 9.14324 17.5726 9.43576 17.098L6.88187 15.524C6.64557 15.9074 6.30936 16.4315 6.13697 17.0495L9.02667 17.8555ZM8.98707 18.3172C8.97138 18.1622 8.98481 18.0056 9.02667 17.8555L6.13697 17.0495C5.99464 17.5598 5.94897 18.0922 6.00231 18.6193L8.98707 18.3172ZM9.26116 19.1333C9.05375 18.6158 9.00088 18.4537 8.98707 18.3172L6.00231 18.6193C6.06692 19.2577 6.30895 19.8314 6.47651 20.2494L9.26116 19.1333ZM9.29405 19.2154L9.26129 19.1336L6.47637 20.2491L6.50913 20.3309L9.29405 19.2154ZM9.89184 20.7099L9.29431 19.2161L6.50888 20.3302L7.10641 21.8241L9.89184 20.7099ZM9.93623 20.8211L9.89217 20.7107L7.10609 21.8233L7.15016 21.9336L9.93623 20.8211ZM10.4291 21.8406C10.3118 21.7116 10.2109 21.5095 9.9364 20.8215L7.14998 21.9332C7.36841 22.4807 7.65424 23.2479 8.2088 23.8582L10.4291 21.8406ZM10.5922 21.9909C10.5337 21.9459 10.4791 21.8957 10.4291 21.8406L8.20879 23.8582C8.37873 24.0452 8.56443 24.216 8.76344 24.3691L10.5922 21.9909ZM10.7501 24.5C10.7501 24.3338 10.8024 24.1842 10.8919 24.0609L8.46376 22.299C8.01508 22.9174 7.75011 23.6799 7.75011 24.5H10.7501ZM11.5001 25.25C11.0859 25.25 10.7501 24.9142 10.7501 24.5H7.75011C7.75011 26.5711 9.42904 28.25 11.5001 28.25V25.25ZM20.5001 25.25H11.5001V28.25H20.5001V25.25ZM21.2501 24.5C21.2501 24.9142 20.9143 25.25 20.5001 25.25V28.25C22.5712 28.25 24.2501 26.5711 24.2501 24.5L21.2501 24.5ZM21.1084 24.0609C21.1978 24.1842 21.2501 24.3338 21.2501 24.5L24.2501 24.5C24.2501 23.6799 23.9851 22.9174 23.5365 22.299L21.1084 24.0609ZM21.5711 21.8406C21.5212 21.8957 21.4666 21.9459 21.408 21.9909L23.2368 24.3691C23.4358 24.216 23.6215 24.0452 23.7914 23.8582L21.5711 21.8406ZM22.0638 20.8215C21.7893 21.5095 21.6884 21.7116 21.5712 21.8406L23.7914 23.8582C24.346 23.2479 24.6318 22.4807 24.8502 21.9332L22.0638 20.8215ZM22.108 20.7107L22.064 20.8211L24.8501 21.9336L24.8941 21.8233L22.108 20.7107ZM22.7059 19.2161L22.1084 20.7099L24.8938 21.8241L25.4913 20.3302L22.7059 19.2161ZM22.7389 19.1336L22.7062 19.2154L25.4911 20.3309L25.5238 20.2491L22.7389 19.1336ZM23.0131 18.3172C22.9993 18.4537 22.9465 18.6158 22.7391 19.1333L25.5237 20.2494C25.6913 19.8314 25.9333 19.2577 25.9979 18.6193L23.0131 18.3172ZM22.9735 17.8555C23.0154 18.0056 23.0288 18.1622 23.0131 18.3172L25.9979 18.6193C26.0512 18.0922 26.0056 17.5598 25.8632 17.0495L22.9735 17.8555ZM22.5645 17.098C22.857 17.5726 22.9367 17.7234 22.9735 17.8555L25.8632 17.0495C25.6909 16.4315 25.3546 15.9074 25.1183 15.524L22.5645 17.098ZM22.4487 16.8681L22.4487 16.8681L25.2341 15.7539L25.2341 15.7539L22.4487 16.8681ZM22.5181 17.0227L22.5643 17.0977L25.1185 15.5242L25.0723 15.4492L22.5181 17.0227ZM16.724 7.60739L22.5177 17.0221L25.0727 15.4498L19.279 6.0351L16.724 7.60739ZM16.7065 7.57897L16.724 7.60734L19.279 6.03515L19.2616 6.00678L16.7065 7.57897ZM16.7043 7.57536L16.7043 7.57538L19.2638 6.01037L19.2638 6.01035L16.7043 7.57536ZM16.6971 7.56352L16.6972 7.56359L19.2709 6.02212L19.2708 6.02206L16.6971 7.56352ZM16.6989 7.5665L16.699 7.56656L19.269 6.01901L19.269 6.01895L16.6989 7.5665ZM16.219 6.82396C16.3384 6.98344 16.4831 7.21589 16.7064 7.57882L19.2615 6.00662C19.0638 5.68545 18.8399 5.3189 18.62 5.02528L16.219 6.82396ZM16.0992 6.67854C16.0786 6.66964 16.078 6.66407 16.0993 6.68365C16.1238 6.70616 16.1611 6.74669 16.219 6.82396L18.62 5.02528C18.396 4.72628 17.9781 4.22212 17.2886 3.92438L16.0992 6.67854ZM19.9533 22.2501L19.8378 22.25L19.836 25.25L19.9516 25.2501L19.9533 22.2501ZM19.9524 22.2501H19.9524V25.2501H19.9524V22.2501ZM20.1721 22.25C20.1025 22.2502 20.0307 22.2501 19.9538 22.2501L19.9511 25.2501C20.0271 25.2501 20.1044 25.2502 20.1803 25.25L20.1721 22.25ZM20.5001 22.25H20.1762V25.25H20.5001V22.25ZM22.7501 24.5C22.7501 23.2574 21.7427 22.25 20.5001 22.25V25.25C20.0859 25.25 19.7501 24.9142 19.7501 24.5H22.7501ZM20.5001 26.75C21.7427 26.75 22.7501 25.7426 22.7501 24.5H19.7501C19.7501 24.0858 20.0859 23.75 20.5001 23.75V26.75ZM11.5001 26.75H20.5001V23.75H11.5001V26.75ZM9.25011 24.5C9.25011 25.7426 10.2575 26.75 11.5001 26.75V23.75C11.9143 23.75 12.2501 24.0858 12.2501 24.5H9.25011ZM11.5001 22.25C10.2575 22.25 9.25011 23.2574 9.25011 24.5H12.2501C12.2501 24.9142 11.9143 25.25 11.5001 25.25V22.25ZM11.824 22.25H11.5001V25.25H11.824V22.25ZM12.0464 22.2501C11.9695 22.2501 11.8977 22.2502 11.8282 22.25L11.8199 25.25C11.8959 25.2502 11.9732 25.2501 12.0491 25.2501L12.0464 22.2501ZM12.1624 22.25L12.0469 22.2501L12.0487 25.2501L12.1642 25.25L12.1624 22.25ZM12.1657 22.25L12.1624 22.25L12.1642 25.25L12.1675 25.25L12.1657 22.25ZM19.8336 22.25H12.1666V25.25H19.8336V22.25ZM19.8378 22.25L19.8345 22.25L19.8327 25.25L19.836 25.25L19.8378 22.25ZM20.5587 20.7658C20.6648 20.7262 20.7287 20.7317 20.6147 20.7387C20.484 20.7467 20.2634 20.75 19.8336 20.75V23.75C20.2459 23.75 20.5596 23.7476 20.7978 23.7331C21.0528 23.7175 21.3203 23.6836 21.6073 23.5765L20.5587 20.7658ZM20.461 20.8319C20.4878 20.8024 20.5213 20.7797 20.5587 20.7658L21.6073 23.5765C22.0181 23.4233 22.3864 23.1739 22.6813 22.8494L20.461 20.8319ZM20.7157 20.1528C20.556 20.5519 20.471 20.7555 20.415 20.8739C20.3662 20.9771 20.3848 20.9158 20.461 20.8319L22.6813 22.8494C22.8873 22.6227 23.0181 22.387 23.1273 22.156C23.2293 21.9402 23.348 21.6498 23.5011 21.267L20.7157 20.1528ZM21.3132 18.659L20.7157 20.1528L23.5011 21.267L24.0986 19.7732L21.3132 18.659ZM21.5208 18.1662C21.5292 18.0825 21.5495 18.0393 21.5235 18.1149C21.4922 18.2059 21.4336 18.3581 21.3132 18.659L24.0986 19.7732C24.2967 19.2781 24.4638 18.881 24.5055 18.4682L21.5208 18.1662ZM21.5287 18.2585C21.5203 18.2285 21.5176 18.1972 21.5208 18.1662L24.5055 18.4683C24.54 18.1272 24.5105 17.7827 24.4184 17.4525L21.5287 18.2585ZM21.2402 17.8083C21.4101 18.0843 21.4938 18.2242 21.5401 18.3086C21.5786 18.3786 21.5513 18.3395 21.5287 18.2585L24.4184 17.4525C24.3069 17.0529 24.0747 16.6901 23.7952 16.236L21.2402 17.8083ZM15.4727 8.43615L21.2402 17.8083L23.7952 16.236L18.0277 6.86385L15.4727 8.43615ZM18.2502 13.3535V7.65L15.2502 7.65L15.2502 13.3535L18.2502 13.3535ZM16.342 14.7969C16.8674 14.9455 17.2502 15.43 17.2502 16H20.2502C20.2502 14.0525 18.9415 12.4145 17.1585 11.9101L16.342 14.7969ZM17.2502 16C17.2502 16.6904 16.6906 17.25 16.0002 17.25V20.25C18.3474 20.25 20.2502 18.3472 20.2502 16H17.2502ZM16.0002 17.25C15.3099 17.25 14.7502 16.6904 14.7502 16H11.7502C11.7502 18.3472 13.653 20.25 16.0002 20.25V17.25ZM14.7502 16C14.7502 15.43 15.133 14.9455 15.6585 14.7969L14.842 11.9101C13.0589 12.4145 11.7502 14.0525 11.7502 16H14.7502ZM13.7502 7.64958L13.7502 13.3535L16.7502 13.3535V7.64958H13.7502ZM10.76 17.8083L16.5277 8.43572L13.9727 6.86343L8.20503 16.236L10.76 17.8083ZM10.4715 18.2585C10.4489 18.3395 10.4216 18.3786 10.4601 18.3086C10.5064 18.2242 10.5902 18.0843 10.76 17.8083L8.20503 16.236C7.92555 16.6901 7.69327 17.0529 7.58182 17.4525L10.4715 18.2585ZM10.4794 18.1662C10.4826 18.1972 10.4799 18.2285 10.4715 18.2585L7.58182 17.4525C7.48973 17.7827 7.46017 18.1272 7.49469 18.4682L10.4794 18.1662ZM10.687 18.659C10.5667 18.3581 10.508 18.2059 10.4767 18.1149C10.4507 18.0393 10.471 18.0825 10.4794 18.1662L7.49469 18.4682C7.53646 18.881 7.70355 19.2781 7.90159 19.7732L10.687 18.659ZM11.2846 20.1528L10.687 18.659L7.90159 19.7732L8.49913 21.267L11.2846 20.1528ZM11.5392 20.8319C11.6154 20.9158 11.634 20.9771 11.5852 20.8739C11.5292 20.7555 11.4442 20.5519 11.2846 20.1528L8.49913 21.267C8.65225 21.6498 8.77096 21.9402 8.87295 22.156C8.98213 22.387 9.11292 22.6227 9.31893 22.8494L11.5392 20.8319ZM11.4416 20.7658C11.4789 20.7797 11.5124 20.8024 11.5392 20.8319L9.31893 22.8494C9.61383 23.1739 9.98207 23.4233 10.3929 23.5765L11.4416 20.7658ZM12.1666 20.75C11.7368 20.75 11.5162 20.7467 11.3855 20.7387C11.2715 20.7317 11.3354 20.7262 11.4416 20.7658L10.3929 23.5765C10.6799 23.6836 10.9474 23.7175 11.2024 23.7331C11.4406 23.7476 11.7543 23.75 12.1666 23.75V20.75ZM19.8336 20.75H12.1666V23.75H19.8336V20.75ZM16.0002 13.25C14.4815 13.25 13.2502 14.4812 13.2502 16L16.2502 16C16.2502 16.1381 16.1383 16.25 16.0002 16.25V13.25ZM13.2502 16C13.2502 17.5188 14.4815 18.75 16.0002 18.75V15.75C16.1383 15.75 16.2502 15.8619 16.2502 16L13.2502 16ZM16.0002 18.75C17.519 18.75 18.7502 17.5188 18.7502 16H15.7502C15.7502 15.8619 15.8622 15.75 16.0002 15.75V18.75ZM18.7502 16C18.7502 14.4812 17.519 13.25 16.0002 13.25V16.25C15.8622 16.25 15.7502 16.1381 15.7502 16H18.7502Z" fill="white"/>
<path fill-rule="evenodd" clip-rule="evenodd" d="M16.6939 5.30146C16.2511 5.11025 15.7491 5.11025 15.3063 5.30146C14.9796 5.44253 14.7544 5.69279 14.5808 5.92462C14.411 6.15121 14.2267 6.45078 14.0162 6.7929L13.9987 6.82125L8.20503 16.236L8.15882 16.311C7.89441 16.74 7.68646 17.0774 7.58183 17.4525C7.48973 17.7827 7.46018 18.1272 7.4947 18.4682C7.53391 18.8557 7.68136 19.2236 7.86884 19.6914L7.9016 19.7732L8.49914 21.267L8.5432 21.3773C8.78966 21.9951 8.98302 22.4797 9.31893 22.8494C9.4289 22.9704 9.54906 23.081 9.67782 23.18C9.40877 23.5508 9.25011 24.0069 9.25011 24.5C9.25011 25.7427 10.2575 26.75 11.5001 26.75H20.5001C21.7428 26.75 22.7501 25.7427 22.7501 24.5C22.7501 24.0069 22.5915 23.5508 22.3224 23.18C22.4512 23.081 22.5713 22.9704 22.6813 22.8494C23.0172 22.4797 23.2106 21.9951 23.457 21.3773L23.5011 21.267L24.0986 19.7732L24.1314 19.6914C24.3189 19.2236 24.4663 18.8557 24.5055 18.4682C24.54 18.1272 24.5105 17.7827 24.4184 17.4525C24.3138 17.0774 24.1058 16.74 23.8414 16.311L23.8414 16.311L23.7952 16.236L18.0015 6.82125L17.9841 6.79287L17.984 6.79285L17.984 6.79279L17.984 6.79272C17.7735 6.45067 17.5892 6.15117 17.4195 5.92462C17.2458 5.69279 17.0206 5.44253 16.6939 5.30146ZM19.8369 23.75L19.9524 23.7501H19.9525C20.0289 23.7501 20.1034 23.7502 20.1762 23.75H20.5001C20.9143 23.75 21.2501 24.0858 21.2501 24.5C21.2501 24.9142 20.9143 25.25 20.5001 25.25H11.5001C11.0859 25.25 10.7501 24.9142 10.7501 24.5C10.7501 24.0858 11.0859 23.75 11.5001 23.75H11.824C11.8968 23.7502 11.9714 23.7501 12.0478 23.7501L12.1633 23.75L12.1666 23.75H19.8336L19.8369 23.75ZM19.8336 22.25C20.6757 22.25 20.9022 22.2386 21.083 22.1712C21.2697 22.1015 21.4371 21.9882 21.5712 21.8406C21.701 21.6978 21.7956 21.4918 22.1084 20.7099L22.7059 19.2161C22.9413 18.6276 22.9979 18.4676 23.0132 18.3172C23.0288 18.1622 23.0154 18.0056 22.9736 17.8555C22.933 17.71 22.8499 17.5619 22.5177 17.0221L16.7502 7.65V13.3535C17.9045 13.68 18.7502 14.7412 18.7502 16C18.7502 17.5188 17.519 18.75 16.0002 18.75C14.4815 18.75 13.2502 17.5188 13.2502 16C13.2502 14.7412 14.096 13.68 15.2502 13.3535V7.64958L9.48252 17.0221C9.15032 17.5619 9.06728 17.71 9.02668 17.8555C8.98482 18.0056 8.97138 18.1622 8.98707 18.3172C9.00229 18.4676 9.05891 18.6276 9.29432 19.2161L9.89185 20.7099C10.2046 21.4918 10.2993 21.6978 10.4291 21.8406C10.5631 21.9882 10.7305 22.1015 10.9172 22.1712C11.0981 22.2386 11.3245 22.25 12.1666 22.25H19.8336ZM16.0002 14.75C15.3099 14.75 14.7502 15.3096 14.7502 16C14.7502 16.6904 15.3099 17.25 16.0002 17.25C16.6906 17.25 17.2502 16.6904 17.2502 16C17.2502 15.3096 16.6906 14.75 16.0002 14.75Z" fill="#151E28"/>
</svg>
