<svg viewBox="0 0 32 32" fill="none" xmlns="http://www.w3.org/2000/svg">
<path fill-rule="evenodd" clip-rule="evenodd" d="M12 7C9.79086 7 8 8.79086 8 11C8 13.2091 9.79086 15 12 15C13.1046 15 14 14.1046 14 13V9C14 7.89543 13.1046 7 12 7ZM19 18C17.8954 18 17 18.8954 17 20C17 22.2091 18.7909 24 21 24C23.2091 24 25 22.2091 25 20C25 18.8954 24.1046 18 23 18H19Z" fill="white"/>
<path d="M7.25 10.9988L8.75 11.001L8.75 10.9992L7.25 10.9988ZM18.9376 24.5964L19.3625 23.1578C19.2963 23.1383 19.2289 23.1233 19.1607 23.113L18.9376 24.5964ZM19.0294 24.6222L18.6412 26.0711L18.6412 26.0711L19.0294 24.6222ZM20.8842 24.75L20.8839 23.25L20.8837 23.25L20.8842 24.75ZM21 24.75L21.0003 26.25L21.0027 26.25L21 24.75ZM21.0021 24.75L21.0024 23.25L20.9994 23.25L21.0021 24.75ZM21.1158 24.75L21.1163 23.25L21.1161 23.25L21.1158 24.75ZM22.9706 24.6222L23.3588 26.0711L23.3588 26.0711L22.9706 24.6222ZM25.6222 21.9706L24.1733 21.5823L24.1733 21.5823L25.6222 21.9706ZM25.75 20.1159L24.25 20.1159L24.25 20.1164L25.75 20.1159ZM25.75 20.1158L27.25 20.1158L27.25 20.1154L25.75 20.1158ZM25.75 20L24.25 19.9989L24.25 20.0003L25.75 20ZM25.7501 19.9161L24.2501 19.9145L24.2501 19.9151L25.7501 19.9161ZM25.6733 18.9177L27.1222 18.5294L27.1222 18.5294L25.6733 18.9177ZM24.0823 17.3267L24.4706 15.8778L24.4706 15.8778L24.0823 17.3267ZM23.0839 17.2499L23.0839 18.7499L23.0855 18.7499L23.0839 17.2499ZM23.0839 17.2499L23.0839 15.7499L23.0828 15.7499L23.0839 17.2499ZM23 17.25L23 18.75L23.0011 18.75L23 17.25ZM19 17.25L18.9989 18.75H19V17.25ZM18.9161 17.2499L18.9172 15.7499H18.9161V17.2499ZM18.9161 17.2499L18.9145 18.7499H18.9161V17.2499ZM17.9177 17.3267L18.3059 18.7756L18.3059 18.7756L17.9177 17.3267ZM16.3267 18.9177L17.7756 19.3059L17.7756 19.3059L16.3267 18.9177ZM16.2499 19.9161L17.7499 19.9161L17.7499 19.9145L16.2499 19.9161ZM16.2499 19.9161L14.7499 19.9161L14.7499 19.9172L16.2499 19.9161ZM16.25 20L17.75 20.0003L17.75 19.9989L16.25 20ZM16.25 20.1158L17.75 20.1163L17.75 20.1161L16.25 20.1158ZM16.3778 21.9706L17.8267 21.5823L17.8267 21.5823L16.3778 21.9706ZM16.5236 22.4064L15.9753 23.8025C16.5332 24.0216 17.1679 23.8876 17.5896 23.4617C18.0113 23.0358 18.1389 22.3997 17.9142 21.844L16.5236 22.4064ZM9.41242 14.984L10.2306 13.7268C9.69395 13.3775 8.99472 13.4074 8.48983 13.8013C7.98494 14.1951 7.78573 14.866 7.99389 15.4716L9.41242 14.984ZM8.75 11.0026L7.25 11.0032L7.25 11.0038L8.75 11.0026ZM8.75 11L7.25 11L7.25 11.0006L8.75 11ZM20.9913 23.25L20.9902 24.75L20.9906 24.75L20.9913 23.25ZM19.2724 23.1291L18.7876 24.5486C18.8771 24.5792 18.9692 24.6012 19.0628 24.6144L19.2724 23.1291ZM21 23.25L20.9993 24.75L21 24.75L21 23.25ZM22.5823 23.1733L22.9706 24.6222L22.9706 24.6222L22.5823 23.1733ZM24.1733 21.5823L25.6222 21.9706L25.6222 21.9706L24.1733 21.5823ZM24.2244 19.3059L25.6733 18.9177L25.6733 18.9176L24.2244 19.3059ZM23.6941 18.7756L23.3059 20.2244L23.3059 20.2244L23.6941 18.7756ZM18.3059 18.7756L18.6941 20.2244L18.6941 20.2244L18.3059 18.7756ZM17.7756 19.3059L16.3267 18.9177L16.3267 18.9177L17.7756 19.3059ZM17.8267 21.5823L16.3778 21.9706L16.3778 21.9706L17.8267 21.5823ZM8.75 10.9992C8.75045 9.20463 10.2054 7.75 12 7.75V4.75C8.54875 4.75 5.75086 7.54736 5.75 10.9984L8.75 10.9992ZM8.75 11L8.75 11.001L5.75 10.9966C5.75 10.998 5.75 10.9992 5.75 10.9997C5.75 10.9999 5.75 11 5.75 11.0001C5.75 11.0001 5.75 11.0001 5.75 11.0002C5.75 11.0002 5.75 11.0002 5.75 11.0002C5.75 11.0003 5.75 11.0002 5.75 11H8.75ZM19.1607 23.113C13.2682 22.2267 8.75 17.1396 8.75 11H5.75C5.75 18.6463 11.3759 24.9758 18.7145 26.0797L19.1607 23.113ZM19.4177 23.1733C19.3991 23.1684 19.3807 23.1632 19.3625 23.1578L18.5127 26.0349C18.5553 26.0475 18.5982 26.0596 18.6412 26.0711L19.4177 23.1733ZM20.8837 23.25C19.9936 23.2503 19.6627 23.239 19.4177 23.1733L18.6412 26.0711C19.3535 26.262 20.1389 26.2503 20.8847 26.25L20.8837 23.25ZM20.9997 23.25L20.8839 23.25L20.8845 26.25L21.0003 26.25L20.9997 23.25ZM20.9994 23.25L20.9973 23.25L21.0027 26.25L21.0048 26.25L20.9994 23.25ZM21.1161 23.25L21.0024 23.25L21.0018 26.25L21.1155 26.25L21.1161 23.25ZM22.5823 23.1733C22.3373 23.239 22.0064 23.2503 21.1163 23.25L21.1153 26.25C21.8611 26.2503 22.6465 26.262 23.3588 26.0711L22.5823 23.1733ZM24.1733 21.5823C23.9653 22.3588 23.3588 22.9653 22.5823 23.1733L23.3588 26.0711C25.1705 25.5857 26.5857 24.1705 27.0711 22.3588L24.1733 21.5823ZM24.25 20.1164C24.2503 21.0064 24.239 21.3373 24.1733 21.5823L27.0711 22.3588C27.262 21.6466 27.2503 20.8612 27.25 20.1154L24.25 20.1164ZM24.25 20.1158V20.1159H27.25V20.1158H24.25ZM24.25 20.1158V20.1158H27.25V20.1158H24.25ZM24.25 20.1158V20.1158H27.25V20.1158H24.25ZM24.25 20.0003L24.25 20.1161L27.25 20.1154L27.25 19.9996L24.25 20.0003ZM24.2501 19.9151L24.25 19.9989L27.25 20.0011L27.2501 19.9172L24.2501 19.9151ZM24.2244 19.3059C24.2403 19.3651 24.2505 19.478 24.2501 19.9145L27.2501 19.9177C27.2504 19.5927 27.2613 19.0485 27.1222 18.5294L24.2244 19.3059ZM23.6941 18.7755C23.9529 18.8449 24.1551 19.0471 24.2244 19.3059L27.1222 18.5294C26.7755 17.2353 25.7647 16.2245 24.4706 15.8778L23.6941 18.7755ZM23.0855 18.7499C23.522 18.7495 23.6349 18.7597 23.6941 18.7756L24.4706 15.8778C23.9515 15.7387 23.4073 15.7496 23.0823 15.7499L23.0855 18.7499ZM23.0839 18.7499H23.0839V15.7499H23.0839V18.7499ZM23.0011 18.75L23.0849 18.7499L23.0828 15.7499L22.9989 15.75L23.0011 18.75ZM19 18.75H23V15.75H19V18.75ZM18.9151 18.7499L18.9989 18.75L19.0011 15.75L18.9172 15.7499L18.9151 18.7499ZM18.9161 18.7499H18.9161V15.7499H18.9161V18.7499ZM18.3059 18.7756C18.3651 18.7597 18.478 18.7495 18.9145 18.7499L18.9177 15.7499C18.5927 15.7496 18.0485 15.7387 17.5294 15.8778L18.3059 18.7756ZM17.7756 19.3059C17.8449 19.0471 18.0471 18.8449 18.3059 18.7756L17.5294 15.8778C16.2353 16.2245 15.2245 17.2353 14.8778 18.5294L17.7756 19.3059ZM17.7499 19.9145C17.7495 19.4779 17.7597 19.3651 17.7756 19.3059L14.8778 18.5294C14.7387 19.0485 14.7496 19.5927 14.7499 19.9177L17.7499 19.9145ZM17.7499 19.9161V19.9161H14.7499V19.9161H17.7499ZM17.75 19.9989L17.7499 19.9151L14.7499 19.9172L14.75 20.0011L17.75 19.9989ZM17.75 20.1161L17.75 20.0003L14.75 19.9997L14.75 20.1155L17.75 20.1161ZM17.8267 21.5823C17.761 21.3373 17.7497 21.0064 17.75 20.1163L14.75 20.1153C14.7497 20.8611 14.738 21.6465 14.9289 22.3588L17.8267 21.5823ZM17.9142 21.844C17.88 21.7594 17.8507 21.6721 17.8267 21.5823L14.9289 22.3588C14.9848 22.5675 15.0531 22.7711 15.133 22.9687L17.9142 21.844ZM7.99389 15.4716C9.30428 19.2837 12.2402 22.3356 15.9753 23.8025L17.072 21.0102C14.1524 19.8635 11.8545 17.4741 10.831 14.4964L7.99389 15.4716ZM12 14.25C11.3448 14.25 10.739 14.0577 10.2306 13.7268L8.59421 16.2412C9.57473 16.8793 10.7464 17.25 12 17.25V14.25ZM13.25 13C13.25 13.6904 12.6904 14.25 12 14.25V17.25C14.3472 17.25 16.25 15.3472 16.25 13H13.25ZM13.25 9L13.25 13H16.25V9H13.25ZM12 7.75C12.6904 7.75 13.25 8.30964 13.25 9H16.25C16.25 6.65279 14.3472 4.75 12 4.75V7.75ZM7.25 11.0038C7.25208 13.6254 9.37792 15.75 12 15.75V12.75C11.034 12.75 10.2508 11.9673 10.25 11.0014L7.25 11.0038ZM12 15.75C13.5188 15.75 14.75 14.5188 14.75 13H11.75C11.75 12.8619 11.8619 12.75 12 12.75V15.75ZM14.75 13L14.75 9H11.75L11.75 13H14.75ZM14.75 9C14.75 7.48122 13.5188 6.25 12 6.25V9.25C11.8619 9.25 11.75 9.13807 11.75 9H14.75ZM12 6.25C9.37665 6.25 7.25 8.37665 7.25 11H10.25C10.25 10.0335 11.0335 9.25 12 9.25V6.25ZM7.25 11.0006L7.25 11.0032L10.25 11.002L10.25 10.9994L7.25 11.0006ZM24 13.25C24.4142 13.25 24.75 13.5858 24.75 14H21.75C21.75 15.2426 22.7574 16.25 24 16.25V13.25ZM23.25 14C23.25 13.5858 23.5858 13.25 24 13.25V16.25C25.2427 16.25 26.25 15.2426 26.25 14H23.25ZM18 8.75C21.0858 8.75 23.25 10.9142 23.25 14H26.25C26.25 9.25736 22.7427 5.75 18 5.75V8.75ZM18.75 8C18.75 8.41421 18.4142 8.75 18 8.75V5.75C16.7574 5.75 15.75 6.75736 15.75 8L18.75 8ZM18 7.25C18.4142 7.25 18.75 7.58578 18.75 8L15.75 8C15.75 9.24264 16.7574 10.25 18 10.25V7.25ZM24.75 14C24.75 12.0971 24.0766 10.3909 22.8428 9.15717C21.6091 7.92344 19.9029 7.25 18 7.25V10.25C19.1829 10.25 20.1017 10.6587 20.7215 11.2785C21.3414 11.8983 21.75 12.8171 21.75 14H24.75ZM20.9923 21.75C20.4789 21.7496 19.9748 21.7134 19.4821 21.6439L19.0628 24.6144C19.6933 24.7034 20.3368 24.7495 20.9902 24.75L20.9923 21.75ZM21.0007 21.75L20.9919 21.75L20.9906 24.75L20.9993 24.75L21.0007 21.75ZM22.1941 21.7244C22.2172 21.7183 22.1914 21.7309 21.995 21.7394C21.7932 21.7481 21.4976 21.75 21 21.75L21 24.75C21.8736 24.75 22.4681 24.7569 22.9706 24.6222L22.1941 21.7244ZM22.7244 21.1941C22.6551 21.4529 22.4529 21.6551 22.1941 21.7244L22.9706 24.6222C24.2647 24.2755 25.2755 23.2647 25.6222 21.9706L22.7244 21.1941ZM22.75 20C22.75 20.4976 22.7481 20.7932 22.7394 20.995C22.7309 21.1914 22.7183 21.2172 22.7244 21.1941L25.6222 21.9706C25.7569 21.4681 25.75 20.8736 25.75 20H22.75ZM22.7756 19.6941C22.741 19.565 22.7427 19.4759 22.7456 19.5469C22.7482 19.6134 22.75 19.7409 22.75 20H25.75C25.75 19.7458 25.7486 19.5619 25.7432 19.4275C25.738 19.2977 25.727 19.1181 25.6733 18.9177L22.7756 19.6941ZM23.3059 20.2244C23.0471 20.1551 22.8449 19.9529 22.7756 19.6941L25.6733 18.9176C25.4653 18.1412 24.8588 17.5347 24.0823 17.3267L23.3059 20.2244ZM23 20.25C23.2591 20.25 23.3866 20.2518 23.4531 20.2544C23.5241 20.2572 23.435 20.259 23.3059 20.2244L24.0823 17.3267C23.8819 17.273 23.7023 17.262 23.5725 17.2568C23.4381 17.2514 23.2542 17.25 23 17.25V20.25ZM19 20.25H23V17.25H19V20.25ZM18.6941 20.2244C18.565 20.259 18.4759 20.2572 18.5469 20.2544C18.6134 20.2518 18.7409 20.25 19 20.25V17.25C18.7458 17.25 18.5619 17.2514 18.4275 17.2568C18.2977 17.262 18.1181 17.273 17.9176 17.3267L18.6941 20.2244ZM19.2244 19.6941C19.1551 19.9529 18.9529 20.1551 18.6941 20.2244L17.9177 17.3267C17.1412 17.5347 16.5347 18.1412 16.3267 18.9177L19.2244 19.6941ZM19.25 20C19.25 19.7409 19.2518 19.6134 19.2544 19.5469C19.2573 19.4759 19.259 19.565 19.2244 19.6941L16.3267 18.9177C16.273 19.1181 16.262 19.2977 16.2568 19.4275C16.2514 19.5619 16.25 19.7458 16.25 20H19.25ZM19.2756 21.1941C19.2817 21.2172 19.2691 21.1914 19.2606 20.995C19.2519 20.7932 19.25 20.4976 19.25 20H16.25C16.25 20.8736 16.2431 21.4681 16.3778 21.9706L19.2756 21.1941ZM19.7572 21.7096C19.522 21.6293 19.3405 21.4365 19.2756 21.1941L16.3778 21.9706C16.7026 23.1829 17.6101 24.1465 18.7876 24.5486L19.7572 21.7096ZM18.75 14C18.75 15.2426 19.7574 16.25 21 16.25L21 13.25C21.4142 13.25 21.75 13.5858 21.75 14L18.75 14ZM18 13.25C18.4142 13.25 18.75 13.5858 18.75 14L21.75 14C21.75 11.9289 20.0711 10.25 18 10.25V13.25ZM15.75 11C15.75 12.2426 16.7574 13.25 18 13.25V10.25C18.4142 10.25 18.75 10.5858 18.75 11H15.75ZM18 8.75C16.7574 8.75 15.75 9.75736 15.75 11H18.75C18.75 11.4142 18.4142 11.75 18 11.75V8.75ZM23.25 14C23.25 11.1005 20.8995 8.75 18 8.75V11.75C19.2427 11.75 20.25 12.7574 20.25 14H23.25ZM21 16.25C22.2427 16.25 23.25 15.2426 23.25 14H20.25C20.25 13.5858 20.5858 13.25 21 13.25L21 16.25Z" fill="white"/>
<path fill-rule="evenodd" clip-rule="evenodd" d="M12 6.25C9.37705 6.25 7.25066 8.37599 7.25 10.9988C7.25 10.9992 7.25 10.9996 7.25 11C7.25 17.893 12.3221 23.6013 18.9376 24.5964C18.968 24.6053 18.9986 24.614 19.0294 24.6222C19.5081 24.7505 20.0662 24.7503 20.8842 24.75L21 24.75L21.0021 24.75L21.1158 24.75C21.9338 24.7503 22.4919 24.7505 22.9706 24.6222C24.2647 24.2755 25.2755 23.2647 25.6222 21.9706C25.7505 21.4919 25.7503 20.9338 25.75 20.1159V20.1158V20.1158V20.1158L25.75 20L25.7501 19.9161C25.7505 19.5353 25.7508 19.2068 25.6733 18.9177C25.4653 18.1412 24.8588 17.5347 24.0823 17.3267C23.7932 17.2492 23.4647 17.2495 23.0839 17.2499H23.0839L23 17.25H19L18.9161 17.2499H18.9161C18.5353 17.2495 18.2068 17.2492 17.9177 17.3267C17.1412 17.5347 16.5347 18.1412 16.3267 18.9177C16.2492 19.2068 16.2495 19.5353 16.2499 19.9161V19.9161L16.25 20L16.25 20.1158C16.2497 20.9338 16.2495 21.4919 16.3778 21.9706C16.4178 22.1198 16.4666 22.2653 16.5236 22.4064C13.1963 21.0996 10.5794 18.3789 9.41242 14.984C10.1569 15.4685 11.0456 15.75 12 15.75C13.5188 15.75 14.75 14.5188 14.75 13L14.75 9C14.75 7.48122 13.5188 6.25 12 6.25ZM8.75 11.0026C8.75142 12.7963 10.206 14.25 12 14.25C12.6904 14.25 13.25 13.6904 13.25 13L13.25 9C13.25 8.30964 12.6904 7.75 12 7.75C10.2051 7.75 8.75 9.20508 8.75 11M23.25 14C23.25 14.4142 23.5858 14.75 24 14.75C24.4142 14.75 24.75 14.4142 24.75 14C24.75 10.0858 21.9142 7.25 18 7.25C17.5858 7.25 17.25 7.58578 17.25 8C17.25 8.41421 17.5858 8.75 18 8.75C21.0858 8.75 23.25 10.9142 23.25 14ZM19.2724 23.1291C19.834 23.2084 20.4079 23.2496 20.9913 23.25L21 23.25C21.9783 23.25 22.3203 23.2436 22.5823 23.1733C23.3588 22.9653 23.9653 22.3588 24.1733 21.5823C24.2436 21.3203 24.25 20.9783 24.25 20C24.25 19.4867 24.2436 19.3772 24.2244 19.3059C24.1551 19.0471 23.9529 18.8449 23.6941 18.7756C23.6228 18.7564 23.5133 18.75 23 18.75H19C18.4867 18.75 18.3772 18.7564 18.3059 18.7756C18.0471 18.8449 17.8449 19.0471 17.7756 19.3059C17.7564 19.3772 17.75 19.4867 17.75 20C17.75 20.9783 17.7564 21.3203 17.8267 21.5823C18.0216 22.3097 18.5661 22.8879 19.2724 23.1291ZM21 14.75C20.5858 14.75 20.25 14.4142 20.25 14C20.25 12.7574 19.2427 11.75 18 11.75C17.5858 11.75 17.25 11.4142 17.25 11C17.25 10.5858 17.5858 10.25 18 10.25C20.0711 10.25 21.75 11.9289 21.75 14C21.75 14.4142 21.4142 14.75 21 14.75Z" fill="#151E28"/>
</svg>
