<svg viewBox="0 0 32 32" fill="none" xmlns="http://www.w3.org/2000/svg">
<path d="M24.2347 9.09263C21.8288 7.64531 19.011 6.81291 15.9988 6.81291C12.9866 6.81291 10.1688 7.64531 7.76284 9.09263C7.32166 9.35802 7.18759 9.92667 7.43508 10.3781L15.1219 24.4004C15.5015 25.0928 16.4961 25.0928 16.8757 24.4004L24.5625 10.3781C24.81 9.92668 24.6759 9.35803 24.2347 9.09263Z" fill="white"/>
<path d="M7.63409 12.1583L8.95248 11.4429C8.94504 11.4292 8.93739 11.4156 8.92953 11.4021L7.63409 12.1583ZM14.4607 24.738L13.1423 25.4535L13.1423 25.4535L14.4607 24.738ZM6.82115 10.7657L5.52572 11.5219L5.52572 11.5219L6.82115 10.7657ZM7.39853 8.43655L8.16975 9.72311L8.16975 9.7231L7.39853 8.43655ZM24.599 8.43656L23.8278 9.72311L23.8278 9.72311L24.599 8.43656ZM25.1764 10.7657L26.4718 11.5219L26.4718 11.5219L25.1764 10.7657ZM24.3635 12.1583L23.068 11.4021C23.0602 11.4156 23.0525 11.4291 23.0451 11.4428L24.3635 12.1583ZM17.5369 24.738L16.2185 24.0226L16.2185 24.0226L17.5369 24.738ZM23.881 10.0095L22.5855 9.25326L22.5855 9.25327L23.881 10.0095ZM23.4229 10.7941L22.7572 12.1383C23.4639 12.4883 24.3208 12.2313 24.7184 11.5503L23.4229 10.7941ZM23.8278 9.7231L24.5991 8.43657L24.599 8.43655L23.8278 9.7231ZM15.9988 7.56291L15.9988 6.06291L15.9988 7.56291ZM8.16975 9.7231L7.39853 8.43655L7.39851 8.43657L8.16975 9.7231ZM8.11659 10.0095L9.41203 9.25327L9.41203 9.25327L8.11659 10.0095ZM8.57463 10.7941L7.2792 11.5503C7.67673 12.2313 8.53368 12.4883 9.24032 12.1383L8.57463 10.7941ZM15.9988 9.06292L15.9988 7.56292L15.9988 9.06292ZM9.83771 13.0741L8.51932 13.7896C8.73789 14.1923 9.12859 14.4731 9.58004 14.5518C10.0315 14.6306 10.4942 14.4986 10.8361 14.1936L9.83771 13.0741ZM9.31101 12.1035L8.6523 10.7559C8.28494 10.9355 8.00681 11.2572 7.88227 11.6467C7.75774 12.0362 7.7976 12.4596 7.99262 12.819L9.31101 12.1035ZM12.8559 18.636L12.4618 17.1887C12.0196 17.3091 11.6567 17.6251 11.4766 18.0465C11.2965 18.468 11.319 18.9486 11.5376 19.3514L12.8559 18.636ZM15.779 24.0226L14.4607 24.738L14.4607 24.738L15.779 24.0226ZM16.2185 24.0226L17.5369 24.738L17.5369 24.738L16.2185 24.0226ZM17.7347 21.2287L19.0531 21.9441C19.4265 21.2559 19.2078 20.3961 18.5507 19.9701L17.7347 21.2287ZM20.8261 15.5319L20.2138 16.9013C20.9293 17.2212 21.7706 16.9363 22.1445 16.2474L20.8261 15.5319ZM22.6865 12.1036L24.0049 12.819C24.2 12.4596 24.2398 12.0362 24.1153 11.6467C23.9908 11.2572 23.7126 10.9355 23.3453 10.7559L22.6865 12.1036ZM15.9988 10.5629L15.9988 9.06291H15.9988V10.5629ZM20.1067 16.8576L21.4251 17.573C21.6327 17.1905 21.6639 16.7366 21.5106 16.3292C21.3572 15.9219 21.0345 15.6012 20.6262 15.4504L20.1067 16.8576ZM18.4541 19.903L17.5563 21.1046C17.9052 21.3653 18.3501 21.4614 18.7755 21.3681C19.2009 21.2748 19.5647 21.0012 19.7725 20.6184L18.4541 19.903ZM10.5909 14.4622L9.40061 13.5494C9.04031 14.0193 8.99014 14.6572 9.27256 15.1776L10.5909 14.4622ZM12.1297 17.2978L10.8113 18.0132C11.0035 18.3673 11.3301 18.6293 11.7175 18.74C12.1049 18.8507 12.5205 18.801 12.8708 18.6019L12.1297 17.2978ZM10.6001 14.4502L11.7904 15.363C11.7934 15.3591 11.7964 15.3552 11.7993 15.3512L10.6001 14.4502ZM12.4509 17.1916L12.0663 15.7418L12.0663 15.7418L12.4509 17.1916ZM12.3513 17.2149L12.0529 15.7449L12.0529 15.7449L12.3513 17.2149ZM6.31571 12.8737L13.1423 25.4535L15.779 24.0226L8.95248 11.4429L6.31571 12.8737ZM5.52572 11.5219L6.33866 12.9145L8.92953 11.4021L8.11659 10.0095L5.52572 11.5219ZM6.6273 7.15C5.04103 8.1009 4.68698 10.0851 5.52572 11.5219L8.11659 10.0095C8.0848 9.95501 8.07606 9.88959 8.08928 9.83269C8.1004 9.78486 8.12368 9.75073 8.16975 9.72311L6.6273 7.15ZM15.9988 4.56291C12.5767 4.56291 9.36828 5.50692 6.6273 7.15L8.16975 9.7231C10.4578 8.35156 13.135 7.56291 15.9988 7.56291V4.56291ZM25.3703 7.15001C22.6293 5.50692 19.4208 4.56291 15.9988 4.56291V7.56291C18.8625 7.56291 21.5398 8.35156 23.8278 9.72311L25.3703 7.15001ZM26.4718 11.5219C27.3106 10.0851 26.9565 8.1009 25.3703 7.15L23.8278 9.72311C23.8739 9.75073 23.8972 9.78486 23.9083 9.83269C23.9215 9.88959 23.9128 9.95501 23.881 10.0095L26.4718 11.5219ZM25.6589 12.9145L26.4718 11.5219L23.881 10.0095L23.068 11.4021L25.6589 12.9145ZM18.8553 25.4535L25.6819 12.8737L23.0451 11.4428L16.2185 24.0226L18.8553 25.4535ZM13.1423 25.4535C14.3722 27.72 17.6253 27.72 18.8553 25.4535L16.2185 24.0226C16.1239 24.1969 15.8737 24.1969 15.779 24.0226L13.1423 25.4535ZM22.5855 9.25327L22.1275 10.0379L24.7184 11.5503L25.1764 10.7657L22.5855 9.25327ZM23.0566 11.0096C22.4297 10.6339 22.2412 9.84314 22.5855 9.25326L25.1764 10.7657C25.6651 9.92853 25.3737 8.90097 24.5991 8.43657L23.0566 11.0096ZM15.9988 9.06291C18.5834 9.06291 20.9951 9.7739 23.0566 11.0097L24.599 8.43655C22.0845 6.92924 19.1417 6.06291 15.9988 6.06291L15.9988 9.06291ZM8.94098 11.0097C11.0025 9.7739 13.4142 9.06291 15.9988 9.06291L15.9988 6.06291C12.8559 6.06291 9.91303 6.92923 7.39853 8.43655L8.94098 11.0097ZM9.41203 9.25327C9.75636 9.84314 9.56783 10.6339 8.941 11.0096L7.39851 8.43657C6.62382 8.90097 6.33247 9.92853 6.82116 10.7657L9.41203 9.25327ZM9.87007 10.0379L9.41203 9.25327L6.82116 10.7657L7.2792 11.5503L9.87007 10.0379ZM15.9988 7.56292C13.098 7.56291 10.3495 8.24133 7.90895 9.44994L9.24032 12.1383C11.2762 11.1301 13.5701 10.5629 15.9988 10.5629L15.9988 7.56292ZM24.0886 9.44994C21.6481 8.24133 18.8996 7.56292 15.9988 7.56292L15.9988 10.5629C18.4275 10.5629 20.7213 11.1301 22.7572 12.1383L24.0886 9.44994ZM11.1561 12.3587L10.6294 11.3881L7.99262 12.819L8.51932 13.7896L11.1561 12.3587ZM12.0005 10.75C10.7869 10.75 9.67701 11.2075 8.83928 11.9547L10.8361 14.1936C11.1464 13.9168 11.5525 13.75 12.0005 13.75V10.75ZM16.7505 15.5C16.7505 12.8766 14.6238 10.75 12.0005 10.75V13.75C12.967 13.75 13.7505 14.5335 13.7505 15.5H16.7505ZM13.25 20.0833C15.2649 19.5347 16.7505 17.6942 16.7505 15.5H13.7505C13.7505 16.3051 13.2058 16.9861 12.4618 17.1887L13.25 20.0833ZM17.0974 23.3072L14.1743 17.9206L11.5376 19.3514L14.4607 24.738L17.0974 23.3072ZM14.9001 23.3071C15.3732 22.4354 16.6244 22.4354 17.0974 23.3071L14.4607 24.738C15.1229 25.9584 16.8746 25.9585 17.5369 24.738L14.9001 23.3071ZM16.4163 20.5132L14.9001 23.3072L17.5369 24.738L19.0531 21.9441L16.4163 20.5132ZM18.5507 19.9701C18.0663 19.656 17.7505 19.1147 17.7505 18.5H14.7505C14.7505 20.1748 15.6183 21.6441 16.9186 22.4873L18.5507 19.9701ZM17.7505 18.5C17.7505 17.5335 18.534 16.75 19.5005 16.75L19.5005 13.75C16.8771 13.75 14.7505 15.8766 14.7505 18.5H17.7505ZM19.5005 16.75C19.7566 16.75 19.9972 16.8044 20.2138 16.9013L21.4384 14.1626C20.8448 13.8971 20.1876 13.75 19.5005 13.75L19.5005 16.75ZM21.3682 11.3881L19.5077 14.8165L22.1445 16.2474L24.0049 12.819L21.3682 11.3881ZM15.9988 12.0629C18.1658 12.0629 20.2099 12.5626 22.0278 13.4512L23.3453 10.7559C21.126 9.6712 18.6322 9.06292 15.9988 9.06291L15.9988 12.0629ZM9.96972 13.4512C11.7876 12.5626 13.8318 12.0629 15.9988 12.0629V9.06291C13.3653 9.06291 10.8715 9.67119 8.6523 10.7559L9.96972 13.4512ZM20.6262 15.4504C20.2731 15.3201 19.8933 15.25 19.5005 15.25L19.5005 18.25C19.5348 18.25 19.563 18.2558 19.5872 18.2647L20.6262 15.4504ZM19.5005 15.25C17.7056 15.25 16.2505 16.705 16.2505 18.5H19.2505C19.2505 18.3619 19.3624 18.25 19.5005 18.25L19.5005 15.25ZM16.2505 18.5C16.2505 19.5655 16.7651 20.5135 17.5563 21.1046L19.3519 18.7013C19.2875 18.6532 19.2505 18.5811 19.2505 18.5H16.2505ZM18.7883 16.1421L17.1357 19.1875L19.7725 20.6184L21.4251 17.573L18.7883 16.1421ZM9.27256 15.1776L10.8113 18.0132L13.4481 16.5823L11.9093 13.7467L9.27256 15.1776ZM9.40977 13.5375L9.40061 13.5494L11.7813 15.3749L11.7904 15.363L9.40977 13.5375ZM12.0005 12.25C10.9376 12.25 9.99301 12.7611 9.40087 13.5492L11.7993 15.3512C11.8483 15.2861 11.9194 15.25 12.0005 15.25V12.25ZM15.2505 15.5C15.2505 13.705 13.7954 12.25 12.0005 12.25V15.25C12.1386 15.25 12.2505 15.3619 12.2505 15.5H15.2505ZM12.8356 18.6415C14.2267 18.2724 15.2505 17.0057 15.2505 15.5H12.2505C12.2505 15.6141 12.1726 15.7136 12.0663 15.7418L12.8356 18.6415ZM12.6497 18.685C12.7123 18.6723 12.7743 18.6577 12.8356 18.6415L12.0663 15.7418C12.062 15.7429 12.0575 15.744 12.0529 15.7449L12.6497 18.685ZM12.8708 18.6019C12.8019 18.6411 12.7271 18.6693 12.6497 18.685L12.0529 15.7449C11.8156 15.7931 11.5921 15.878 11.3886 15.9936L12.8708 18.6019Z" fill="white"/>
<path fill-rule="evenodd" clip-rule="evenodd" d="M14.4607 24.738L7.63409 12.1583L6.82115 10.7657C6.36379 9.98217 6.57153 8.9323 7.39853 8.43655C9.91302 6.92924 12.8559 6.06291 15.9988 6.06291C19.1417 6.06291 22.0845 6.92924 24.599 8.43656C25.426 8.9323 25.6338 9.98217 25.1764 10.7657L24.3635 12.1583L17.5369 24.738C16.8746 25.9585 15.1229 25.9585 14.4607 24.738ZM23.4229 10.7941L23.881 10.0095C23.9531 9.88584 23.9017 9.76742 23.8278 9.7231C21.5398 8.35157 18.8625 7.56291 15.9988 7.56291C13.135 7.56291 10.4577 8.35157 8.16975 9.7231C8.09583 9.76742 8.04442 9.88583 8.11659 10.0095L8.57463 10.7941C10.8128 9.68572 13.334 9.06291 15.9988 9.06292C18.6635 9.06292 21.1847 9.68572 23.4229 10.7941ZM9.31101 12.1035L9.83771 13.0741C10.4117 12.5622 11.1697 12.25 12.0005 12.25C13.7954 12.25 15.2505 13.705 15.2505 15.5C15.2505 16.9997 14.2354 18.2604 12.8559 18.636L15.779 24.0226C15.8737 24.1969 16.1239 24.1969 16.2185 24.0226L17.7347 21.2287C16.8423 20.65 16.2505 19.6447 16.2505 18.5C16.2505 16.705 17.7056 15.25 19.5005 15.25C19.9721 15.25 20.421 15.3508 20.8261 15.5319L22.6865 12.1036C20.668 11.1169 18.399 10.5629 15.9988 10.5629C13.5986 10.5629 11.3296 11.1169 9.31101 12.1035ZM20.1067 16.8576C19.9181 16.788 19.714 16.75 19.5005 16.75C18.534 16.75 17.7505 17.5335 17.7505 18.5C17.7505 19.0733 18.0263 19.5834 18.4541 19.903L20.1067 16.8576ZM12.1297 17.2978L10.5909 14.4622L10.6001 14.4502C10.9207 14.0236 11.4285 13.75 12.0005 13.75C12.967 13.75 13.7505 14.5335 13.7505 15.5C13.7505 16.3099 13.1996 16.993 12.4509 17.1916C12.4181 17.2003 12.3849 17.2081 12.3513 17.2149C12.2714 17.2312 12.197 17.2596 12.1297 17.2978Z" fill="#151E28"/>
</svg>
