<svg viewBox="0 0 32 32" fill="none" xmlns="http://www.w3.org/2000/svg">
<path d="M24 16C24 20.4183 20.4183 24 16 24C11.5817 24 8 20.4183 8 16C8 11.5817 11.5817 8 16 8C20.4183 8 24 11.5817 24 16Z" fill="white"/>
<path d="M16.0001 8.75L16.0001 7.25L16.0001 8.75ZM8.75015 16L10.2501 16L10.2501 16L8.75015 16ZM22.5217 12.8285L21.1733 13.4856L21.1733 13.4856L22.5217 12.8285ZM23.5245 13.1742L22.8674 11.8258L22.8674 11.8258L23.5245 13.1742ZM23.8701 12.1715L22.5217 12.8285L22.5217 12.8285L23.8701 12.1715ZM7.25015 16L8.75015 16L8.75015 16L7.25015 16ZM8.76508 20.9224L7.52559 21.7672L7.52559 21.7672L8.76508 20.9224ZM10.0046 20.0776L11.2441 19.2328L11.2441 19.2328L10.0046 20.0776ZM23.836 17.7875L24.3043 16.3625L24.3043 16.3625L23.836 17.7875ZM24.3143 18.7342L22.8893 18.2658L22.8893 18.2658L24.3143 18.7342ZM22.8893 18.2658L24.3143 18.7342L24.3143 18.7342L22.8893 18.2658ZM14.1871 23.0216L14.561 21.569L14.561 21.569L14.1871 23.0216ZM13.2738 23.561L11.8212 23.1871L11.8212 23.1871L13.2738 23.561ZM13.8132 24.4743L14.1871 23.0216L14.1871 23.0216L13.8132 24.4743ZM6.94316 18.0971L6.05714 19.3074L6.05714 19.3074L6.94316 18.0971ZM7.10533 19.1453L8.31569 20.0313L8.31569 20.0313L7.10533 19.1453ZM5.89497 18.2593L7.10533 19.1453L7.10533 19.1453L5.89497 18.2593ZM4.7944 20.3572L6.23856 20.7626L6.23856 20.7626L4.7944 20.3572ZM4.95854 22.375L3.6595 23.125L3.6595 23.125L4.95854 22.375ZM7.09572 23.6191L6.88071 25.1036L6.88071 25.1036L7.09572 23.6191ZM10.2165 23.4269L9.91575 21.9573L9.91575 21.9573L10.2165 23.4269ZM18.3754 20.1136L17.6254 18.8146L17.6254 18.8146L18.3754 20.1136ZM25.3242 14.7044L24.2019 13.7092L24.2019 13.7092L25.3242 14.7044ZM27.051 12.0979L25.6579 11.5419L25.6579 11.5419L27.051 12.0979ZM27.0422 9.62499L25.7431 10.375L25.7431 10.375L27.0422 9.62499ZM25.55 8.52239L25.9882 7.08783L25.9882 7.08783L25.55 8.52239ZM23.4513 8.33944L23.3536 6.84263L23.3536 6.84263L23.4513 8.33944ZM22.7517 9.1367L21.2549 9.2344L21.2549 9.23441L22.7517 9.1367ZM23.549 9.83626L23.6467 11.3331L23.6467 11.3331L23.549 9.83626ZM25.1118 9.95696L24.6736 11.3915L24.6736 11.3915L25.1118 9.95696ZM25.7431 10.375L24.4441 11.125L24.4441 11.125L25.7431 10.375ZM25.6579 11.5419L27.051 12.0979L27.051 12.0979L25.6579 11.5419ZM24.2019 13.7092L23.0796 12.714L23.0796 12.714L24.2019 13.7092ZM9.91575 21.9573L9.61503 20.4878L9.61503 20.4878L9.91575 21.9573ZM7.31073 22.1346L7.52575 20.6501L7.52575 20.6501L7.31073 22.1346ZM6.25758 21.625L4.95854 22.375L4.95854 22.375L6.25758 21.625ZM6.23856 20.7626L7.68271 21.1681L7.68271 21.1681L6.23856 20.7626ZM16.0001 7.25C11.1677 7.25 7.25015 11.1675 7.25015 16L10.2501 16C10.2501 12.8244 12.8245 10.25 16.0001 10.25L16.0001 7.25ZM23.8701 12.1715C22.4509 9.25896 19.4606 7.25 16.0001 7.25L16.0001 10.25C18.2706 10.25 20.2377 11.5656 21.1733 13.4856L23.8701 12.1715ZM22.8674 11.8258C23.2397 11.6443 23.6887 11.7991 23.8701 12.1715L21.1733 13.4856C21.7176 14.6027 23.0645 15.067 24.1815 14.5226L22.8674 11.8258ZM22.5217 12.8285C22.3403 12.4562 22.495 12.0072 22.8674 11.8258L24.1815 14.5226C25.2986 13.9783 25.7629 12.6314 25.2185 11.5144L22.5217 12.8285ZM16.0001 8.75C18.8654 8.75 21.3441 10.4121 22.5217 12.8285L25.2185 11.5144C23.5578 8.1064 20.0565 5.75 16.0001 5.75V8.75ZM8.75015 16C8.75015 11.9959 11.9961 8.75 16.0001 8.75V5.75C10.3392 5.75 5.75015 10.3391 5.75015 16L8.75015 16ZM10.0046 20.0776C9.2129 18.916 8.75015 17.5132 8.75015 16L5.75015 16C5.75015 18.1348 6.40526 20.1234 7.52559 21.7672L10.0046 20.0776ZM8.96244 19.8803C9.30471 19.647 9.77129 19.7353 10.0046 20.0776L7.52559 21.7672C8.22544 22.794 9.62518 23.0591 10.652 22.3592L8.96244 19.8803ZM8.76508 20.9224C8.5318 20.5801 8.62016 20.1135 8.96244 19.8803L10.652 22.3592C11.6788 21.6594 11.9439 20.2597 11.2441 19.2328L8.76508 20.9224ZM7.25015 16C7.25015 17.824 7.80906 19.5197 8.76508 20.9224L11.2441 19.2328C10.6168 18.3124 10.2501 17.2024 10.2501 16H7.25015ZM23.3676 19.2125C22.9741 19.0832 22.7599 18.6593 22.8893 18.2658L25.7393 19.2026C26.1273 18.0221 25.4848 16.7505 24.3043 16.3625L23.3676 19.2125ZM24.3143 18.7342C24.1849 19.1277 23.7611 19.3418 23.3676 19.2125L24.3043 16.3625C23.1238 15.9745 21.8523 16.6169 21.4643 17.7974L24.3143 18.7342ZM16.0001 24.75C19.8785 24.75 23.1662 22.2271 24.3143 18.7342L21.4643 17.7974C20.709 20.0952 18.5452 21.75 16.0001 21.75V24.75ZM13.8132 24.4743C14.513 24.6544 15.246 24.75 16.0001 24.75V21.75C15.5003 21.75 15.0185 21.6868 14.561 21.569L13.8132 24.4743ZM14.7265 23.9349C14.6232 24.3361 14.2143 24.5775 13.8132 24.4743L14.561 21.569C13.3576 21.2592 12.1309 21.9837 11.8212 23.1871L14.7265 23.9349ZM14.1871 23.0216C14.5882 23.1249 14.8297 23.5338 14.7265 23.9349L11.8212 23.1871C11.5114 24.3906 12.2359 25.6172 13.4393 25.9269L14.1871 23.0216ZM16.0001 23.25C15.3731 23.25 14.7658 23.1706 14.1871 23.0216L13.4393 25.9269C14.2602 26.1382 15.1188 26.25 16.0001 26.25V23.25ZM22.8893 18.2658C21.9375 21.1614 19.2116 23.25 16.0001 23.25V26.25C20.5462 26.25 24.3951 23.2921 25.7393 19.2026L22.8893 18.2658ZM6.05714 19.3074C5.72291 19.0628 5.6503 18.5935 5.89497 18.2593L8.31569 20.0313C9.04969 19.0286 8.83187 17.6207 7.82918 16.8867L6.05714 19.3074ZM7.10533 19.1453C6.86066 19.4795 6.39137 19.5521 6.05714 19.3074L7.82918 16.8867C6.82648 16.1527 5.41861 16.3705 4.68461 17.3732L7.10533 19.1453ZM6.23856 20.7626C6.36249 20.3212 6.6446 19.7746 7.10533 19.1453L4.68461 17.3732C4.10445 18.1658 3.60617 19.0402 3.35024 19.9517L6.23856 20.7626ZM6.25758 21.625C6.16616 21.4667 6.11475 21.2036 6.23856 20.7626L3.35024 19.9517C3.09269 20.869 3.03049 22.0355 3.6595 23.125L6.25758 21.625ZM7.31073 22.1346C6.64946 22.0388 6.3683 21.8168 6.25758 21.625L3.6595 23.125C4.42936 24.4584 5.79625 24.9466 6.88071 25.1036L7.31073 22.1346ZM9.91575 21.9573C8.83965 22.1776 7.95758 22.2283 7.31073 22.1346L6.88071 25.1036C8.00091 25.2659 9.26051 25.1536 10.5172 24.8964L9.91575 21.9573ZM17.6254 18.8146C14.806 20.4423 12.06 21.5186 9.91575 21.9573L10.5172 24.8964C13.0547 24.3772 16.1045 23.1568 19.1254 21.4126L17.6254 18.8146ZM24.2019 13.7092C22.7498 15.3468 20.4447 17.1868 17.6254 18.8146L19.1254 21.4126C22.1463 19.6685 24.7281 17.6375 26.4465 15.6996L24.2019 13.7092ZM25.6579 11.5419C25.4156 12.1489 24.9306 12.8874 24.2019 13.7092L26.4465 15.6996C27.2975 14.7399 28.0246 13.7052 28.4442 12.654L25.6579 11.5419ZM25.7431 10.375C25.8539 10.5668 25.9056 10.9213 25.6579 11.5419L28.4442 12.654C28.8504 11.6362 29.1111 10.2084 28.3412 8.87499L25.7431 10.375ZM25.1118 9.95696C25.483 10.0704 25.6589 10.229 25.7431 10.375L28.3412 8.87499C27.767 7.88041 26.8436 7.34913 25.9882 7.08783L25.1118 9.95696ZM23.549 9.83626C24.2159 9.79272 24.737 9.84247 25.1118 9.95696L25.9882 7.08783C25.1468 6.83082 24.2318 6.7853 23.3536 6.84263L23.549 9.83626ZM24.2486 9.039C24.2755 9.45233 23.9623 9.80927 23.549 9.83626L23.3536 6.84263C22.1136 6.92357 21.174 7.99441 21.2549 9.2344L24.2486 9.039ZM23.4513 8.33944C23.8646 8.31246 24.2216 8.62566 24.2486 9.03899L21.2549 9.23441C21.3359 10.4744 22.4067 11.414 23.6467 11.3331L23.4513 8.33944ZM25.55 8.5224C24.9419 8.33663 24.2237 8.28902 23.4513 8.33944L23.6467 11.3331C24.2081 11.2964 24.5322 11.3483 24.6736 11.3915L25.55 8.5224ZM27.0422 9.62499C26.7146 9.05763 26.1675 8.71103 25.55 8.52239L24.6736 11.3915C24.7378 11.4111 24.7205 11.4152 24.6636 11.3746C24.6005 11.3297 24.5155 11.2486 24.4441 11.125L27.0422 9.62499ZM27.051 12.0979C27.3811 11.2709 27.4797 10.3827 27.0422 9.62499L24.4441 11.125C24.343 10.9498 24.3343 10.8075 24.3353 10.7641C24.3361 10.7306 24.341 10.7948 24.2648 10.9858L27.051 12.0979ZM25.3242 14.7044C26.114 13.8137 26.7201 12.9271 27.051 12.0979L24.2648 10.9858C24.1112 11.3706 23.7474 11.961 23.0796 12.714L25.3242 14.7044ZM18.3754 20.1136C21.2955 18.4277 23.7389 16.4922 25.3242 14.7044L23.0796 12.714C21.7606 14.2015 19.594 15.9459 16.8754 17.5155L18.3754 20.1136ZM10.2165 23.4269C12.5573 22.9479 15.4552 21.7996 18.3754 20.1136L16.8754 17.5155C14.1568 19.0851 11.5627 20.0892 9.61503 20.4878L10.2165 23.4269ZM7.09572 23.6191C7.97931 23.7471 9.05018 23.6656 10.2165 23.4269L9.61503 20.4878C8.62896 20.6896 7.93574 20.7095 7.52575 20.6501L7.09572 23.6191ZM4.95854 22.375C5.396 23.1327 6.21444 23.4915 7.09572 23.6191L7.52575 20.6501C7.32224 20.6206 7.2691 20.5843 7.29852 20.6003C7.33661 20.6211 7.45549 20.6998 7.55661 20.875L4.95854 22.375ZM4.7944 20.3572C4.60222 21.0416 4.60037 21.7546 4.95854 22.375L7.55662 20.875C7.6359 21.0123 7.66008 21.1349 7.66448 21.2067C7.66833 21.2697 7.6555 21.265 7.68271 21.1681L4.7944 20.3572ZM5.89497 18.2593C5.37458 18.9701 4.98435 19.6806 4.7944 20.3572L7.68271 21.1681C7.74061 20.9619 7.91454 20.5793 8.31569 20.0313L5.89497 18.2593Z" fill="white"/>
<path fill-rule="evenodd" clip-rule="evenodd" d="M8.75015 16C8.75015 11.9959 11.9961 8.75 16.0001 8.75C18.8656 8.75 21.3443 10.4123 22.5217 12.8285C22.7032 13.2009 23.1521 13.3557 23.5245 13.1742C23.8968 12.9928 24.0516 12.5438 23.8701 12.1715C22.451 9.25923 19.4609 7.25 16.0001 7.25C11.1677 7.25 7.25015 11.1675 7.25015 16C7.25015 17.824 7.80908 19.5197 8.76508 20.9224C8.99836 21.2647 9.46494 21.353 9.80722 21.1197C10.1495 20.8865 10.2379 20.4199 10.0046 20.0776C9.21291 18.9161 8.75015 17.5132 8.75015 16ZM24.3143 18.7342C24.4436 18.3407 24.2295 17.9168 23.836 17.7875C23.4425 17.6582 23.0186 17.8723 22.8893 18.2658C21.9376 21.1611 19.2119 23.25 16.0001 23.25C15.3731 23.25 14.7658 23.1706 14.1871 23.0216C13.786 22.9184 13.3771 23.1599 13.2738 23.561C13.1706 23.9622 13.4121 24.371 13.8132 24.4743C14.513 24.6544 15.246 24.75 16.0001 24.75C19.8789 24.75 23.1663 22.2267 24.3143 18.7342ZM7.10533 19.1453C7.35 18.811 7.27739 18.3417 6.94316 18.0971C6.60893 17.8524 6.13964 17.925 5.89497 18.2593C5.37453 18.9702 4.98433 19.6807 4.7944 20.3572C4.60372 21.0363 4.59833 21.7511 4.95854 22.375C5.39883 23.1376 6.22286 23.4927 7.09572 23.6191C7.97924 23.7471 9.05008 23.6656 10.2165 23.4269C12.5573 22.9479 15.4552 21.7996 18.3754 20.1136C21.2955 18.4277 23.7389 16.4922 25.3242 14.7044C26.1141 13.8137 26.7201 12.927 27.051 12.0979C27.378 11.2788 27.4825 10.3876 27.0422 9.62499C26.7129 9.05473 26.1633 8.70974 25.55 8.52239C24.9419 8.33665 24.2238 8.28901 23.4513 8.33944C23.038 8.36642 22.7248 8.72337 22.7517 9.1367C22.7787 9.55004 23.1357 9.86324 23.549 9.83626C24.2159 9.79272 24.737 9.84248 25.1118 9.95696C25.4813 10.0698 25.6582 10.2279 25.7431 10.375C25.8551 10.569 25.9042 10.9249 25.6579 11.5419C25.4156 12.1488 24.9307 12.8873 24.2019 13.7092C22.7498 15.3468 20.4447 17.1868 17.6254 18.8146C14.806 20.4423 12.06 21.5186 9.91575 21.9573C8.83957 22.1776 7.95753 22.2283 7.31073 22.1346C6.65329 22.0394 6.36957 21.819 6.25758 21.625C6.16533 21.4652 6.11538 21.2014 6.23856 20.7626C6.36248 20.3213 6.64456 19.7747 7.10533 19.1453Z" fill="#151E28"/>
</svg>
