<svg viewBox="0 0 32 32" fill="none" xmlns="http://www.w3.org/2000/svg">
<path fill-rule="evenodd" clip-rule="evenodd" d="M9 10C9 8.89543 9.89543 8 11 8C11.0875 8 11.1736 8.00561 11.2581 8.0165C11.6015 7.40961 12.2529 7 13 7C13.4117 7 13.7943 7.12437 14.1123 7.33759C14.3857 6.55857 15.1276 6 16 6C16.8724 6 17.6143 6.55857 17.8877 7.33759C18.2057 7.12437 18.5883 7 19 7C19.7471 7 20.3985 7.40961 20.7419 8.0165C20.8264 8.00561 20.9125 8 21 8C22.1046 8 23 8.89543 23 10C23 10.4117 22.8756 10.7943 22.6624 11.1123C23.4414 11.3857 24 12.1276 24 13C24 13.7403 23.5978 14.3866 23 14.7324H22.7612C23.2554 15.2698 23.4901 16.0396 23.2943 16.8228L21.7276 23.0896C21.576 23.696 21.5002 23.9992 21.3832 24.2536C20.977 25.1367 20.1681 25.7683 19.2128 25.9482C18.9377 26 18.6251 26 18 26H14C13.3749 26 13.0623 26 12.7872 25.9482C11.8319 25.7683 11.023 25.1367 10.6168 24.2536C10.4998 23.9992 10.424 23.696 10.2724 23.0896L8.70569 16.8228C8.5099 16.0396 8.7446 15.2698 9.23879 14.7324H9C8.4022 14.3866 8 13.7403 8 13C8 12.1276 8.55857 11.3857 9.33759 11.1123C9.12437 10.7943 9 10.4117 9 10ZM12.5805 14.7324C12.9124 15.0924 13.1301 15.561 13.1736 16.0831L13.2491 16.9887C13.1756 16.1033 13.5271 15.2873 14.1272 14.7324H12.5805ZM17.8728 14.7324C18.4729 15.2873 18.8244 16.1032 18.7509 16.9886L18.8264 16.0831C18.8699 15.561 19.0876 15.0924 19.4195 14.7324H17.8728Z" fill="white"/>
<path d="M14.82 7.58592L16.2354 8.08257L16.2354 8.08257L14.82 7.58592ZM17.18 7.58592L18.5954 7.08926L18.5954 7.08926L17.18 7.58592ZM17.6508 8.04919L17.177 9.4724L17.177 9.4724L17.6508 8.04919ZM18.3053 7.96055L19.1406 9.20646L19.1406 9.20646L18.3053 7.96055ZM20.0891 8.38585L18.7836 9.12454L18.7836 9.12455L20.0891 8.38585ZM20.8377 8.76035L21.0294 10.2481L21.0294 10.2481L20.8377 8.76035ZM22.0395 10.6947L23.2854 11.5299L23.2854 11.5299L22.0395 10.6947ZM21.9508 11.3492L20.5276 11.823L20.5276 11.823L21.9508 11.3492ZM22.4141 11.82L21.9174 13.2354L21.9174 13.2354L22.4141 11.82ZM22.9095 13.8577L22.0044 15.0539C22.6148 15.5157 23.4751 15.4439 24.0004 14.8872L22.9095 13.8577ZM18.6624 14.4725L17.525 15.4504C17.8222 15.7961 18.2605 15.9878 18.7161 15.9715C19.1717 15.9551 19.5952 15.7325 19.8669 15.3664L18.6624 14.4725ZM13.3376 14.4725L12.1331 15.3664C12.4048 15.7325 12.8283 15.9551 13.2839 15.9715C13.7395 15.9878 14.1778 15.7961 14.475 15.4504L13.3376 14.4725ZM9.09053 13.8577L7.99959 14.8872C8.52494 15.4439 9.3852 15.5157 9.99561 15.0539L9.09053 13.8577ZM9.58592 11.82L10.0826 13.2354L10.0826 13.2354L9.58592 11.82ZM10.0492 11.3492L8.62598 10.8754L8.62598 10.8754L10.0492 11.3492ZM9.96055 10.6947L8.71463 11.5299L8.71463 11.5299L9.96055 10.6947ZM11.1623 8.76035L10.9706 10.2481L10.9706 10.2481L11.1623 8.76035ZM11.9109 8.38585L10.6054 7.64715L10.6054 7.64716L11.9109 8.38585ZM13.6947 7.96055L14.5299 6.71463L14.5299 6.71463L13.6947 7.96055ZM14.3492 8.04919L14.823 9.4724L14.823 9.4724L14.3492 8.04919ZM8.15128 15.0358L9.51894 15.6518C9.78577 15.0594 9.64091 14.3626 9.16009 13.9257L8.15128 15.0358ZM8.36501 10.7888L9.25765 11.9943C9.76546 11.6183 9.98317 10.9644 9.80211 10.359L8.36501 10.7888ZM10.8765 7.25273L10.9427 8.75126C11.3673 8.73249 11.764 8.53449 12.0342 8.20648L10.8765 7.25273ZM13.7888 6.36501L13.359 7.80211C13.9644 7.98317 14.6183 7.76546 14.9943 7.25765L13.7888 6.36501ZM18.2112 6.36501L17.0057 7.25765C17.3817 7.76546 18.0356 7.98317 18.641 7.80211L18.2112 6.36501ZM21.1235 7.25273L19.9658 8.20648C20.236 8.5345 20.6327 8.73249 21.0573 8.75126L21.1235 7.25273ZM23.635 10.7888L22.1979 10.359C22.0168 10.9644 22.2345 11.6183 22.7423 11.9943L23.635 10.7888ZM23.8487 15.0358L22.8399 13.9257C22.3591 14.3626 22.2142 15.0594 22.4811 15.6518L23.8487 15.0358ZM24.0219 17.0047L22.5667 16.6409L22.5667 16.6409L24.0219 17.0047ZM22.4552 23.2715L21 22.9077L20.9999 22.9079L22.4552 23.2715ZM22.4368 23.3451L20.9816 22.9815L20.9815 22.9816L22.4368 23.3451ZM22.0646 24.567L23.4273 25.1939L23.4273 25.1939L22.0646 24.567ZM19.3516 26.6852L19.6292 28.1593L19.6292 28.1593L19.3516 26.6852ZM18.0759 26.75L18.0762 25.25L18.0761 25.25L18.0759 26.75ZM18 26.75L18.0002 25.25H18V26.75ZM14 26.75L14 25.25L13.9998 25.25L14 26.75ZM13.9241 26.75L13.9239 25.25L13.9238 25.25L13.9241 26.75ZM12.6484 26.6852L12.3708 28.1593L12.3708 28.1593L12.6484 26.6852ZM9.93544 24.567L8.57269 25.1939L8.57269 25.1939L9.93544 24.567ZM9.56318 23.3451L11.0185 22.9816L11.0184 22.9815L9.56318 23.3451ZM9.54479 23.2715L11.0001 22.9079L11 22.9077L9.54479 23.2715ZM7.97809 17.0047L6.52287 17.3685L6.52287 17.3685L7.97809 17.0047ZM12.4262 16.1454L13.921 16.0208L13.921 16.0208L12.4262 16.1454ZM12.5016 17.0509L13.9965 16.9267L13.9965 16.9263L12.5016 17.0509ZM12.5017 17.0519L11.0069 17.1761L11.0069 17.1765L12.5017 17.0519ZM13.184 25.2396L13.1028 26.7374C13.5358 26.7608 13.9578 26.5958 14.2599 26.2848C14.5621 25.9737 14.7149 25.5471 14.6788 25.115L13.184 25.2396ZM12.926 25.2111L12.6484 26.6852L12.6484 26.6852L12.926 25.2111ZM11.2982 23.9402L12.661 23.3134L12.6609 23.3134L11.2982 23.9402ZM11 22.9077L12.4552 22.5439L12.4552 22.5439L11 22.9077ZM9.4333 16.6409L10.8885 16.2771L10.8885 16.2771L9.4333 16.6409ZM13.9965 16.9268L12.5016 17.051L12.5017 17.0514L13.9965 16.9268ZM18.0035 16.927L19.4983 17.0519L19.4983 17.0513L18.0035 16.927ZM18.0035 16.9274L16.5087 16.8024L16.5086 16.8028L18.0035 16.9274ZM17.3099 25.25V26.75C18.09 26.75 18.7399 26.152 18.8047 25.3746L17.3099 25.25ZM14.6901 25.25L13.1953 25.3746C13.2601 26.152 13.91 26.75 14.6901 26.75L14.6901 25.25ZM19.4983 17.0519L18.0036 16.9256L18.0035 16.9274L19.4983 17.0519ZM19.4983 17.0516L20.993 17.1779L20.9931 17.1761L19.4983 17.0516ZM18.816 25.2396L17.3212 25.115C17.2851 25.5471 17.4379 25.9737 17.7401 26.2848C18.0422 26.5958 18.4642 26.7608 18.8972 26.7374L18.816 25.2396ZM19.074 25.2111L19.3516 26.6852L19.3516 26.6852L19.074 25.2111ZM20.7018 23.9402L19.3391 23.3134L19.339 23.3134L20.7018 23.9402ZM21 22.9077L22.4552 23.2715L22.4552 23.2715L21 22.9077ZM22.5667 16.6409L21.1115 16.2771L21.1115 16.2771L22.5667 16.6409ZM19.5738 16.1454L18.079 16.0208L18.079 16.0208L19.5738 16.1454ZM16 5.25C14.8012 5.25 13.7808 6.01722 13.4046 7.08926L16.2354 8.08257C16.2016 8.17886 16.1106 8.25 16 8.25V5.25ZM18.5954 7.08926C18.2192 6.01722 17.1988 5.25 16 5.25V8.25C15.8894 8.25 15.7984 8.17886 15.7646 8.08257L18.5954 7.08926ZM18.1246 6.62599C18.3447 6.69927 18.5186 6.87032 18.5954 7.08926L15.7646 8.08257C15.9951 8.73938 16.5166 9.25254 17.177 9.4724L18.1246 6.62599ZM17.4701 6.71463C17.6628 6.58543 17.9044 6.5527 18.1246 6.62598L17.177 9.4724C17.8374 9.69226 18.5625 9.59407 19.1406 9.20646L17.4701 6.71463ZM19 6.25C18.4352 6.25 17.9079 6.42107 17.4701 6.71463L19.1406 9.20646C19.0995 9.23405 19.0481 9.25 19 9.25V6.25ZM21.3946 7.64716C20.9228 6.81328 20.0267 6.25 19 6.25V9.25C18.9052 9.25 18.824 9.19591 18.7836 9.12454L21.3946 7.64716ZM20.646 7.27265C20.9485 7.23368 21.2444 7.38173 21.3946 7.64715L18.7836 9.12455C19.2342 9.92081 20.122 10.365 21.0294 10.2481L20.646 7.27265ZM21 7.25C20.8804 7.25 20.7622 7.25768 20.646 7.27265L21.0294 10.2481C21.0188 10.2494 21.0089 10.25 21 10.25V7.25ZM23.75 10C23.75 8.48122 22.5188 7.25 21 7.25V10.25C20.8619 10.25 20.75 10.1381 20.75 10H23.75ZM23.2854 11.5299C23.5789 11.0921 23.75 10.5648 23.75 10H20.75C20.75 9.95191 20.766 9.90053 20.7935 9.85938L23.2854 11.5299ZM23.374 10.8754C23.4473 11.0956 23.4146 11.3372 23.2854 11.5299L20.7935 9.85938C20.4059 10.4375 20.3077 11.1626 20.5276 11.823L23.374 10.8754ZM22.9107 10.4046C23.1297 10.4814 23.3007 10.6553 23.374 10.8754L20.5276 11.823C20.7475 12.4834 21.2606 13.0049 21.9174 13.2354L22.9107 10.4046ZM24.75 13C24.75 11.8012 23.9828 10.7808 22.9107 10.4046L21.9174 13.2354C21.8211 13.2016 21.75 13.1106 21.75 13H24.75ZM24.0004 14.8872C24.4653 14.3946 24.75 13.728 24.75 13H21.75C21.75 12.935 21.777 12.8722 21.8185 12.8282L24.0004 14.8872ZM23.8146 12.6615C23.0623 12.0923 22.1201 11.75 21.0903 11.75V14.75C21.4433 14.75 21.7543 14.8647 22.0044 15.0539L23.8146 12.6615ZM21.0903 11.75C19.6084 11.75 18.283 12.4667 17.4579 13.5785L19.8669 15.3664C20.1473 14.9886 20.5931 14.75 21.0903 14.75V11.75ZM19.7998 13.4945C18.8868 12.4327 17.5272 11.75 16 11.75L16 14.75C16.6129 14.75 17.1553 15.0204 17.525 15.4504L19.7998 13.4945ZM16 11.75C14.4728 11.75 13.1132 12.4327 12.2002 13.4945L14.475 15.4504C14.8447 15.0204 15.3871 14.75 16 14.75L16 11.75ZM14.5421 13.5785C13.717 12.4667 12.3916 11.75 10.9097 11.75V14.75C11.4069 14.75 11.8527 14.9886 12.1331 15.3664L14.5421 13.5785ZM10.9097 11.75C9.87995 11.75 8.93774 12.0923 8.18545 12.6615L9.99561 15.0539C10.2457 14.8647 10.5567 14.75 10.9097 14.75V11.75ZM7.25 13C7.25 13.728 7.53474 14.3946 7.99959 14.8872L10.1815 12.8282C10.223 12.8722 10.25 12.935 10.25 13H7.25ZM9.08926 10.4046C8.01722 10.7808 7.25 11.8012 7.25 13H10.25C10.25 13.1106 10.1789 13.2016 10.0826 13.2354L9.08926 10.4046ZM8.62598 10.8754C8.69927 10.6553 8.87033 10.4814 9.08926 10.4046L10.0826 13.2354C10.7394 13.0049 11.2525 12.4834 11.4724 11.823L8.62598 10.8754ZM8.71463 11.5299C8.58543 11.3372 8.5527 11.0956 8.62598 10.8754L11.4724 11.823C11.6923 11.1626 11.5941 10.4375 11.2065 9.85938L8.71463 11.5299ZM8.25 10C8.25 10.5648 8.42107 11.0921 8.71463 11.5299L11.2065 9.85938C11.234 9.90053 11.25 9.95191 11.25 10H8.25ZM11 7.25C9.48122 7.25 8.25 8.48122 8.25 10H11.25C11.25 10.1381 11.1381 10.25 11 10.25V7.25ZM11.354 7.27265C11.2378 7.25768 11.1196 7.25 11 7.25V10.25C10.9911 10.25 10.9812 10.2494 10.9706 10.2481L11.354 7.27265ZM10.6054 7.64716C10.7556 7.38173 11.0515 7.23368 11.354 7.27265L10.9706 10.2481C11.878 10.365 12.7658 9.92081 13.2164 9.12455L10.6054 7.64716ZM13 6.25C11.9733 6.25 11.0772 6.81328 10.6054 7.64715L13.2164 9.12455C13.176 9.19591 13.0948 9.25 13 9.25V6.25ZM14.5299 6.71463C14.0921 6.42108 13.5648 6.25 13 6.25V9.25C12.9519 9.25 12.9005 9.23405 12.8594 9.20646L14.5299 6.71463ZM13.8754 6.62599C14.0956 6.5527 14.3372 6.58543 14.5299 6.71463L12.8594 9.20646C13.4375 9.59407 14.1626 9.69227 14.823 9.4724L13.8754 6.62599ZM13.4046 7.08926C13.4814 6.87033 13.6553 6.69927 13.8754 6.62599L14.823 9.4724C15.4834 9.25254 16.0049 8.73938 16.2354 8.08257L13.4046 7.08926ZM9.16009 13.9257C8.90633 13.6951 8.75 13.3668 8.75 13H5.75C5.75 14.2485 6.29044 15.3716 7.14247 16.1459L9.16009 13.9257ZM8.75 13C8.75 12.5888 8.94683 12.2245 9.25765 11.9943L7.47237 9.58333C6.43104 10.3544 5.75 11.597 5.75 13H8.75ZM9.80211 10.359C9.76846 10.2465 9.75 10.1263 9.75 10H6.75C6.75 10.4212 6.81192 10.8308 6.92791 11.2186L9.80211 10.359ZM9.75 10C9.75 9.32886 10.2796 8.78058 10.9427 8.75126L10.8102 5.75419C8.55045 5.8541 6.75 7.71638 6.75 10H9.75ZM12.0342 8.20648C12.2656 7.92555 12.6117 7.75 13 7.75V4.75C11.6763 4.75 10.4947 5.35706 9.71871 6.29898L12.0342 8.20648ZM13 7.75C13.1263 7.75 13.2465 7.76846 13.359 7.80211L14.2186 4.92791C13.8308 4.81192 13.4212 4.75 13 4.75V7.75ZM14.9943 7.25765C15.2245 6.94683 15.5888 6.75 16 6.75V3.75C14.597 3.75 13.3544 4.43104 12.5833 5.47237L14.9943 7.25765ZM16 6.75C16.4112 6.75 16.7755 6.94683 17.0057 7.25765L19.4167 5.47237C18.6456 4.43104 17.403 3.75 16 3.75V6.75ZM18.641 7.80211C18.7535 7.76846 18.8737 7.75 19 7.75V4.75C18.5788 4.75 18.1692 4.81192 17.7814 4.92791L18.641 7.80211ZM19 7.75C19.3883 7.75 19.7344 7.92555 19.9658 8.20648L22.2813 6.29898C21.5053 5.35706 20.3237 4.75 19 4.75V7.75ZM21.0573 8.75126C21.7204 8.78058 22.25 9.32885 22.25 10H25.25C25.25 7.71638 23.4496 5.8541 21.1898 5.75419L21.0573 8.75126ZM22.25 10C22.25 10.1263 22.2315 10.2465 22.1979 10.359L25.0721 11.2186C25.1881 10.8308 25.25 10.4212 25.25 10H22.25ZM22.7423 11.9943C23.0532 12.2245 23.25 12.5888 23.25 13H26.25C26.25 11.597 25.569 10.3544 24.5276 9.58333L22.7423 11.9943ZM23.25 13C23.25 13.3668 23.0937 13.6951 22.8399 13.9257L24.8575 16.1459C25.7096 15.3716 26.25 14.2485 26.25 13H23.25ZM25.4771 17.3685C25.7352 16.3363 25.616 15.3068 25.2164 14.4197L22.4811 15.6518C22.6142 15.9473 22.655 16.2875 22.5667 16.6409L25.4771 17.3685ZM23.9104 23.6353L25.4771 17.3685L22.5667 16.6409L21 22.9077L23.9104 23.6353ZM23.8921 23.7087L23.9105 23.6351L20.9999 22.9079L20.9816 22.9815L23.8921 23.7087ZM23.4273 25.1939C23.6452 24.7201 23.7695 24.1994 23.8921 23.7085L20.9815 22.9816C20.8366 23.5618 20.7774 23.7758 20.7018 23.9402L23.4273 25.1939ZM19.6292 28.1593C21.3009 27.8445 22.7165 26.7393 23.4273 25.1939L20.7018 23.9402C20.3972 24.6026 19.7905 25.0762 19.074 25.2111L19.6292 28.1593ZM18.0755 28.25C18.5814 28.2501 19.1168 28.2558 19.6292 28.1593L19.0741 25.2111C18.8962 25.2446 18.6742 25.2502 18.0762 25.25L18.0755 28.25ZM17.9998 28.25L18.0756 28.25L18.0761 25.25L18.0002 25.25L17.9998 28.25ZM14 28.25H18V25.25H14L14 28.25ZM13.9244 28.25L14.0002 28.25L13.9998 25.25L13.9239 25.25L13.9244 28.25ZM12.3708 28.1593C12.8832 28.2558 13.4186 28.2501 13.9245 28.25L13.9238 25.25C13.3258 25.2502 13.1038 25.2446 12.9259 25.2111L12.3708 28.1593ZM8.57269 25.1939C9.28353 26.7393 10.6991 27.8445 12.3708 28.1593L12.926 25.2111C12.2095 25.0762 11.6028 24.6026 11.2982 23.9402L8.57269 25.1939ZM8.10788 23.7085C8.23046 24.1994 8.35478 24.7201 8.57269 25.1939L11.2982 23.9402C11.2226 23.7758 11.1634 23.5618 11.0185 22.9816L8.10788 23.7085ZM8.08952 23.6351L8.10791 23.7087L11.0184 22.9815L11.0001 22.9079L8.08952 23.6351ZM6.52287 17.3685L8.08957 23.6353L11 22.9077L9.4333 16.6409L6.52287 17.3685ZM6.78363 14.4197C6.38404 15.3068 6.26484 16.3363 6.52287 17.3685L9.4333 16.6409C9.34497 16.2876 9.38582 15.9473 9.51894 15.6518L6.78363 14.4197ZM13.921 16.0208C13.7905 14.4547 12.4813 13.25 10.9097 13.25L10.9097 16.25C10.9146 16.25 10.9164 16.2507 10.9173 16.2511C10.919 16.2517 10.9216 16.2532 10.9244 16.2558C10.9272 16.2583 10.9289 16.2608 10.9296 16.2624C10.9301 16.2633 10.931 16.2651 10.9314 16.27L13.921 16.0208ZM13.9965 16.9263L13.921 16.0208L10.9314 16.27L11.0068 17.1755L13.9965 16.9263ZM13.9966 16.9277L13.9965 16.9267L11.0068 17.1751L11.0069 17.1761L13.9966 16.9277ZM14.6788 25.115L13.9965 16.9274L11.0069 17.1765L11.6892 25.3641L14.6788 25.115ZM12.6484 26.6852C12.8038 26.7145 12.9511 26.7291 13.1028 26.7374L13.2652 23.7418C13.2334 23.74 13.2159 23.7384 13.2078 23.7375C13.2008 23.7367 13.2005 23.7365 13.2035 23.737L12.6484 26.6852ZM9.93544 24.567C10.4432 25.6709 11.4543 26.4604 12.6484 26.6852L13.2035 23.737C12.9647 23.6921 12.7625 23.5342 12.661 23.3134L9.93544 24.567ZM9.54479 23.2715C9.6874 23.8419 9.78153 24.2324 9.93544 24.567L12.6609 23.3134C12.6663 23.325 12.656 23.3084 12.6213 23.1866C12.5847 23.0578 12.5364 22.8685 12.4552 22.5439L9.54479 23.2715ZM7.97809 17.0047L9.54479 23.2715L12.4552 22.5439L10.8885 16.2771L7.97809 17.0047ZM10.9097 13.25C8.94377 13.25 7.50129 15.0975 7.97809 17.0047L10.8885 16.2771C10.8871 16.2714 10.8871 16.2689 10.8871 16.2687C10.8871 16.2684 10.8871 16.2684 10.8872 16.2682C10.8874 16.2674 10.8885 16.2634 10.8925 16.2584C10.8964 16.2533 10.9 16.2512 10.9007 16.2508C10.9009 16.2508 10.9009 16.2507 10.9012 16.2507C10.9014 16.2506 10.9039 16.25 10.9097 16.25L10.9097 13.25ZM12.5017 17.0514L12.5017 17.0519L15.4914 16.8028L15.4913 16.8022L12.5017 17.0514ZM16 13.25C13.9466 13.25 12.3317 15.0047 12.5016 17.051L15.4914 16.8026C15.4666 16.5051 15.7014 16.25 16 16.25L16 13.25ZM19.4983 17.0513C19.6685 15.0049 18.0535 13.25 16 13.25L16 16.25C16.2986 16.25 16.5334 16.5052 16.5086 16.8027L19.4983 17.0513ZM19.4982 17.0523L19.4983 17.0519L16.5087 16.8021L16.5087 16.8024L19.4982 17.0523ZM18.8047 25.3746L19.4983 17.0519L16.5086 16.8028L15.8151 25.1254L18.8047 25.3746ZM14.6901 26.75H17.3099V23.75H14.6901L14.6901 26.75ZM12.5017 17.0519L13.1953 25.3746L16.1849 25.1254L15.4914 16.8028L12.5017 17.0519ZM20.9929 17.1782L20.993 17.1779L18.0036 16.9253L18.0036 16.9256L20.9929 17.1782ZM20.3108 25.3641L20.9931 17.1765L18.0035 16.9274L17.3212 25.115L20.3108 25.3641ZM18.7965 23.737C18.7995 23.7365 18.7992 23.7367 18.7922 23.7375C18.7841 23.7384 18.7666 23.74 18.7348 23.7418L18.8972 26.7374C19.0489 26.7291 19.1962 26.7145 19.3516 26.6852L18.7965 23.737ZM19.339 23.3134C19.2375 23.5342 19.0353 23.6921 18.7965 23.737L19.3516 26.6852C20.5457 26.4604 21.5568 25.6709 22.0646 24.567L19.339 23.3134ZM19.5448 22.5439C19.4636 22.8685 19.4153 23.0578 19.3787 23.1866C19.344 23.3084 19.3337 23.325 19.3391 23.3134L22.0646 24.567C22.2185 24.2324 22.3126 23.8419 22.4552 23.2715L19.5448 22.5439ZM21.1115 16.2771L19.5448 22.5439L22.4552 23.2715L24.0219 17.0047L21.1115 16.2771ZM21.0903 16.25C21.0961 16.25 21.0986 16.2506 21.0988 16.2507C21.0991 16.2507 21.0991 16.2508 21.0993 16.2508C21.1 16.2512 21.1036 16.2533 21.1075 16.2584C21.1115 16.2634 21.1126 16.2674 21.1128 16.2682C21.1129 16.2684 21.1129 16.2684 21.1129 16.2687C21.1129 16.2689 21.1129 16.2714 21.1115 16.2771L24.0219 17.0047C24.4987 15.0975 23.0562 13.25 21.0903 13.25V16.25ZM21.0686 16.27C21.069 16.2651 21.0699 16.2633 21.0704 16.2624C21.0711 16.2608 21.0728 16.2583 21.0756 16.2558C21.0784 16.2532 21.081 16.2517 21.0827 16.2511C21.0836 16.2507 21.0854 16.25 21.0903 16.25V13.25C19.5187 13.25 18.2095 14.4547 18.079 16.0208L21.0686 16.27ZM20.9931 17.1761L21.0686 16.27L18.079 16.0208L18.0035 16.927L20.9931 17.1761Z" fill="white"/>
<path fill-rule="evenodd" clip-rule="evenodd" d="M14.82 7.58592C14.9912 7.09804 15.4559 6.75 16 6.75C16.5441 6.75 17.0088 7.09804 17.18 7.58592C17.2568 7.80485 17.4307 7.9759 17.6508 8.04919C17.8709 8.12248 18.1126 8.08975 18.3053 7.96055C18.5037 7.82756 18.7417 7.75 19 7.75C19.466 7.75 19.8734 8.0046 20.0891 8.38585C20.2393 8.65127 20.5353 8.79933 20.8377 8.76035C20.8905 8.75355 20.9447 8.75 21 8.75C21.6904 8.75 22.25 9.30964 22.25 10C22.25 10.2583 22.1724 10.4963 22.0395 10.6947C21.9103 10.8874 21.8775 11.1291 21.9508 11.3492C22.0241 11.5693 22.1951 11.7432 22.4141 11.82C22.902 11.9912 23.25 12.4559 23.25 13C23.25 13.3315 23.1212 13.6334 22.9095 13.8577C22.4083 13.4785 21.7817 13.25 21.0903 13.25C20.1007 13.25 19.2152 13.7277 18.6624 14.4725C18.021 13.7265 17.07 13.25 16 13.25C14.93 13.25 13.979 13.7265 13.3376 14.4725C12.7848 13.7277 11.8993 13.25 10.9097 13.25C10.2183 13.25 9.5917 13.4785 9.09053 13.8577C8.87885 13.6334 8.75 13.3315 8.75 13C8.75 12.4559 9.09804 11.9912 9.58592 11.82C9.80485 11.7432 9.9759 11.5693 10.0492 11.3492C10.1225 11.1291 10.0897 10.8874 9.96055 10.6947C9.82756 10.4963 9.75 10.2583 9.75 10C9.75 9.30964 10.3096 8.75 11 8.75C11.0553 8.75 11.1095 8.75355 11.1623 8.76035C11.4647 8.79933 11.7607 8.65127 11.9109 8.38585C12.1266 8.0046 12.5341 7.75 13 7.75C13.2583 7.75 13.4963 7.82756 13.6947 7.96055C13.8874 8.08975 14.1291 8.12248 14.3492 8.04919C14.5693 7.97591 14.7432 7.80485 14.82 7.58592ZM8.15128 15.0358C7.59839 14.5333 7.25 13.8076 7.25 13C7.25 12.0929 7.68894 11.2894 8.36501 10.7888C8.29019 10.5387 8.25 10.2738 8.25 10C8.25 8.52262 9.415 7.31734 10.8765 7.25273C11.3801 6.64131 12.144 6.25 13 6.25C13.2738 6.25 13.5387 6.29019 13.7888 6.36501C14.2894 5.68894 15.0929 5.25 16 5.25C16.9071 5.25 17.7106 5.68894 18.2112 6.36501C18.4613 6.29019 18.7262 6.25 19 6.25C19.856 6.25 20.6199 6.64131 21.1235 7.25273C22.585 7.31734 23.75 8.52262 23.75 10C23.75 10.2738 23.7098 10.5387 23.635 10.7888C24.3111 11.2894 24.75 12.0929 24.75 13C24.75 13.8076 24.4016 14.5333 23.8487 15.0358C24.1151 15.6271 24.1951 16.3119 24.0219 17.0047L22.4552 23.2715L22.4368 23.3451C22.3031 23.8806 22.2113 24.2479 22.0646 24.567C21.5568 25.6709 20.5457 26.4604 19.3516 26.6852C19.0065 26.7502 18.6278 26.7501 18.0759 26.75L18 26.75H14L13.9241 26.75C13.3722 26.7501 12.9935 26.7502 12.6484 26.6852C11.4543 26.4604 10.4432 25.6709 9.93544 24.567C9.78867 24.2479 9.69692 23.8806 9.56318 23.3451L9.54479 23.2715L7.97809 17.0047C7.8049 16.3119 7.88493 15.6271 8.15128 15.0358ZM10.9097 14.75C11.7011 14.75 12.3605 15.3567 12.4262 16.1454L12.5016 17.0509L12.5017 17.0519L13.184 25.2396C13.0775 25.2338 12.9989 25.2249 12.926 25.2111C12.2095 25.0762 11.6028 24.6026 11.2982 23.9402C11.2176 23.765 11.1593 23.5447 11 22.9077L9.4333 16.6409C9.19318 15.6804 9.91962 14.75 10.9097 14.75ZM13.9965 16.9274L13.9965 16.9268C13.8992 15.7549 14.824 14.75 16 14.75C17.1761 14.75 18.1009 15.7551 18.0035 16.927L18.0035 16.9274L17.3099 25.25H14.6901L13.9965 16.9274ZM19.4983 17.0516L19.4983 17.0519L18.816 25.2396C18.9225 25.2338 19.0011 25.2249 19.074 25.2111C19.7905 25.0762 20.3972 24.6026 20.7018 23.9402C20.7824 23.765 20.8407 23.5447 21 22.9077L22.5667 16.6409C22.8068 15.6804 22.0804 14.75 21.0903 14.75C20.2989 14.75 19.6395 15.3567 19.5738 16.1454L19.4983 17.0516Z" fill="#151E28"/>
</svg>
