<svg viewBox="0 0 32 32" fill="none" xmlns="http://www.w3.org/2000/svg">
<path d="M7 10.0272L7 21.9443C7 21.996 7 22.0219 7.00032 22.0438C7.02399 23.6664 8.33363 24.976 9.95623 24.9997C9.97812 25 10.004 25 10.0557 25H21.0486C21.5347 25 21.6894 24.3447 21.2546 24.1273C21.0986 24.0493 21 23.8898 21 23.7153V10.0272C21 8.67835 19.5428 7.83269 18.3716 8.50193C17.8315 8.81056 17.1685 8.81056 16.6284 8.50193L15.5876 7.90722C15.009 7.57655 14.7196 7.41121 14.4123 7.34646C14.1404 7.28917 13.8596 7.28917 13.5877 7.34646C13.2804 7.41121 12.991 7.57655 12.4124 7.90722L11.3716 8.50193C10.8315 8.81056 10.1685 8.81056 9.62839 8.50193C8.45722 7.83269 7 8.67835 7 10.0272Z" fill="white"/>
<path d="M14.567 6.61258L14.8762 5.1448L14.8762 5.1448L14.567 6.61258ZM13.433 6.61258L13.7423 8.08035L13.7423 8.08035L13.433 6.61258ZM15.8728 7.2063L15.1276 8.50809L15.1279 8.50828L15.8728 7.2063ZM15.9598 7.25604L15.2149 8.55802L15.2155 8.5584L15.9598 7.25604ZM17.0005 7.85075L17.7447 6.54839L17.7447 6.54839L17.0005 7.85075ZM17.9995 7.85075L17.2553 6.54839L17.2553 6.54839L17.9995 7.85075ZM22.9904 24.25L22.9791 25.75H22.9904V24.25ZM23.0059 24.25L22.9942 25.75C23.0004 25.75 23.0066 25.75 23.0128 25.75L23.0059 24.25ZM23.8523 20.0468L24.8977 18.9711L24.8977 18.9711L23.8523 20.0468ZM22.9708 19.7495L22.9124 21.2484L22.9124 21.2484L22.9708 19.7495ZM22.2506 18.9709L20.7517 18.9125L20.7517 18.9125L22.2506 18.9709ZM23.0292 18.2506L23.0876 16.7518L23.0876 16.7518L23.0292 18.2506ZM24.8977 18.9711L25.9431 17.8954L25.9431 17.8954L24.8977 18.9711ZM22.9857 25.75L22.9936 24.25H22.9857V25.75ZM11.7679 25.75L11.7679 24.25L11.7679 24.25L11.7679 25.75ZM9.76853 25.7066L9.64638 27.2016L9.64638 27.2016L9.76853 25.7066ZM8.29754 25.3413L8.97852 24.0048L8.97852 24.0048L8.29754 25.3413ZM6.65873 23.7025L5.32222 24.3834L5.32222 24.3834L6.65873 23.7025ZM6.29336 22.2315L4.79835 22.3536L4.79835 22.3536L6.29336 22.2315ZM6.25 20.2321L7.75 20.2321V20.2321H6.25ZM10.0005 7.85075L10.7447 6.54839L10.7447 6.54839L10.0005 7.85075ZM10.9995 7.85075L10.2553 6.54839L10.2553 6.54839L10.9995 7.85075ZM12.0403 7.25604L12.7845 8.5584L12.7851 8.55802L12.0403 7.25604ZM12.1272 7.2063L12.8721 8.50828L12.8724 8.50809L12.1272 7.2063ZM20.5498 24.25V25.75C21.0721 25.75 21.5567 25.4784 21.8293 25.0329C22.1019 24.5874 22.1232 24.0323 21.8855 23.5673L20.5498 24.25ZM18.7437 9.15312L17.9995 7.85075L17.9995 7.85075L18.7437 9.15312ZM16.2563 9.15312L17.0005 7.85075L17.0005 7.85075L16.2563 9.15312ZM15.2155 8.5584L15.9598 7.25604L15.9598 7.25604L15.2155 8.5584ZM14.2577 8.08035L14.567 6.61258L14.567 6.61258L14.2577 8.08035ZM13.7423 8.08035L13.433 6.61258L13.433 6.61258L13.7423 8.08035ZM12.7845 8.5584L13.5287 9.86077L13.5287 9.86077L12.7845 8.5584ZM11.7437 9.15312L10.9995 7.85075L10.9995 7.85075L11.7437 9.15312ZM9.25629 9.15312L10.0005 7.85075L10.0005 7.85075L9.25629 9.15312ZM7.78838 22.1093L6.29336 22.2315L6.29336 22.2315L7.78838 22.1093ZM7.99524 23.0215L9.33175 22.3405L9.33174 22.3405L7.99524 23.0215ZM8.97852 24.0048L8.29754 25.3413L8.29754 25.3413L8.97852 24.0048ZM9.89068 24.2116L9.76853 25.7066L9.76853 25.7066L9.89068 24.2116ZM11 21.75L11 23.25L11 23.25L11 21.75ZM16 21.75L16 20.25L16 20.25L16 21.75ZM11 20.25L11 21.75L11 21.75L11 20.25ZM16 20.25L16 18.75L16 18.75L16 20.25ZM14.8762 5.1448C14.2984 5.02306 13.7016 5.02306 13.1238 5.1448L13.7423 8.08035C13.9122 8.04455 14.0878 8.04455 14.2577 8.08035L14.8762 5.1448ZM16.618 5.90451C16.1787 5.65302 15.5773 5.29251 14.8762 5.1448L14.2577 8.08035C14.407 8.11181 14.5806 8.19498 15.1276 8.50809L16.618 5.90451ZM16.7046 5.95406L16.6177 5.90431L15.1279 8.50828L15.2149 8.55802L16.7046 5.95406ZM17.7447 6.54839L16.704 5.95367L15.2155 8.5584L16.2563 9.15312L17.7447 6.54839ZM17.2553 6.54839C17.4069 6.46174 17.5931 6.46174 17.7447 6.54839L16.2563 9.15312C17.027 9.5935 17.973 9.5935 18.7437 9.15312L17.2553 6.54839ZM23.25 10.0272C23.25 6.95075 19.9264 5.02202 17.2553 6.54839L18.7437 9.15312C19.4149 8.76958 20.25 9.25422 20.25 10.0272H23.25ZM23.25 16V10.0272H20.25L20.25 16H23.25ZM23.25 16.0012C23.25 16.002 23.25 16.0027 23.25 16.0024C23.25 16.0023 23.25 16.0012 23.25 16H20.25C20.25 15.9992 20.25 15.9985 20.25 15.9988C20.25 15.9989 20.25 16 20.25 16.0012H23.25ZM20.25 16.0012V23L23.25 23L23.25 16.0012H20.25ZM20.25 23C20.25 24.5118 21.4698 25.7386 22.9791 25.75L23.0017 22.75C23.1391 22.7511 23.25 22.8625 23.25 23L20.25 23ZM23 22.75H22.9904V25.75H23V22.75ZM23.0176 22.7501C23.0117 22.75 23.0059 22.75 23 22.75V25.75C22.9981 25.75 22.9962 25.75 22.9942 25.75L23.0176 22.7501ZM23.0128 25.75C24.5258 25.743 25.75 24.5145 25.75 23H22.75C22.75 22.8623 22.8613 22.7507 22.999 22.75L23.0128 25.75ZM25.75 23L25.75 21.4546H22.75L22.75 23H25.75ZM25.75 21.4546C25.75 20.3525 25.4657 19.5231 24.8977 18.9711L22.8069 21.1225C22.7168 21.0349 22.6948 20.9673 22.7006 20.9843C22.7106 21.0131 22.75 21.1488 22.75 21.4546H25.75ZM24.8977 18.9711C24.3371 18.4263 23.6243 18.2738 23.0292 18.2506L22.9124 21.2484C23.0148 21.2523 23.0381 21.2649 23.012 21.256C22.9969 21.2509 22.9675 21.2394 22.9296 21.217C22.8911 21.1942 22.8486 21.1631 22.8069 21.1225L24.8977 18.9711ZM23.0292 18.2506C23.4431 18.2668 23.7656 18.6154 23.7494 19.0293L20.7517 18.9125C20.7033 20.1542 21.6707 21.2 22.9124 21.2484L23.0292 18.2506ZM23.7494 19.0293C23.7333 19.4432 23.3847 19.7656 22.9708 19.7495L23.0876 16.7518C21.8459 16.7034 20.8001 17.6708 20.7517 18.9125L23.7494 19.0293ZM22.9708 19.7495C23.3805 19.7655 23.6651 19.8649 23.8523 20.0468L25.9431 17.8954C25.006 16.9848 23.8615 16.7819 23.0876 16.7518L22.9708 19.7495ZM23.8523 20.0468C24.0316 20.2211 24.25 20.5968 24.25 21.4546H27.25C27.25 20.115 26.9033 18.8286 25.9431 17.8954L23.8523 20.0468ZM24.25 21.4546L24.25 23H27.25L27.25 21.4546H24.25ZM24.25 23C24.25 23.6904 23.6904 24.25 23 24.25V27.25C25.3472 27.25 27.25 25.3472 27.25 23H24.25ZM23 24.25C22.9976 24.25 22.9955 24.25 22.9936 24.25L22.9779 27.25C22.9855 27.25 22.9928 27.25 23 27.25V24.25ZM11.8 27.25L22.9857 27.25V24.25L11.8 24.25V27.25ZM11.7679 27.25H11.8V24.25H11.7679V27.25ZM9.64638 27.2016C10.2521 27.2511 10.9778 27.25 11.7679 27.25L11.7679 24.25C10.9323 24.25 10.3468 24.2489 9.89068 24.2116L9.64638 27.2016ZM7.61655 26.6778C8.30731 27.0297 9.0067 27.1494 9.64638 27.2016L9.89068 24.2116C9.43709 24.1746 9.1762 24.1055 8.97852 24.0048L7.61655 26.6778ZM5.32222 24.3834C5.82555 25.3713 6.6287 26.1744 7.61655 26.6778L8.97852 24.0048C8.55516 23.789 8.21095 23.4448 7.99524 23.0215L5.32222 24.3834ZM4.79835 22.3536C4.85061 22.9933 4.97026 23.6927 5.32222 24.3834L7.99524 23.0215C7.89451 22.8238 7.82544 22.5629 7.78838 22.1093L4.79835 22.3536ZM4.75 20.2321C4.74999 21.0222 4.74886 21.7479 4.79835 22.3536L7.78838 22.1093C7.75111 21.6532 7.74999 21.0677 7.75 20.2321L4.75 20.2321ZM4.75 20.2321V20.2321H7.75V20.2321H4.75ZM4.75 20.2V20.2321H7.75V20.2H4.75ZM4.75 10.0272L4.75 20.2H7.75L7.75 10.0272H4.75ZM10.7447 6.54839C8.07356 5.02202 4.75 6.95075 4.75 10.0272H7.75C7.75 9.25422 8.58511 8.76958 9.25629 9.15312L10.7447 6.54839ZM10.2553 6.54839C10.4069 6.46174 10.5931 6.46174 10.7447 6.54839L9.25629 9.15312C10.027 9.5935 10.973 9.5935 11.7437 9.15312L10.2553 6.54839ZM11.296 5.95367L10.2553 6.54839L11.7437 9.15312L12.7845 8.5584L11.296 5.95367ZM11.3823 5.90431L11.2954 5.95405L12.7851 8.55802L12.8721 8.50828L11.3823 5.90431ZM13.1238 5.1448C12.4227 5.29251 11.8213 5.65303 11.382 5.90451L12.8724 8.50809C13.4194 8.19498 13.593 8.11181 13.7423 8.08035L13.1238 5.1448ZM21.8855 23.5673C21.7993 23.3987 21.75 23.2073 21.75 23H18.75C18.75 23.693 18.917 24.3512 19.2142 24.9327L21.8855 23.5673ZM21.75 23V16H18.75V23H21.75ZM21.75 16C21.75 16.0009 21.75 16.0015 21.75 16.0012C21.75 16.0011 21.75 16.0001 21.75 15.9988H18.75C18.75 15.998 18.75 15.9973 18.75 15.9977C18.75 15.9977 18.75 15.9988 18.75 16H21.75ZM18.75 10.0272L18.75 15.9988H21.75L21.75 10.0272H18.75ZM19.4879 10.4555C19.1591 10.6434 18.75 10.406 18.75 10.0272H21.75C21.75 8.10248 19.6707 6.8958 17.9995 7.85075L19.4879 10.4555ZM15.5121 10.4555C16.7439 11.1594 18.2561 11.1594 19.4879 10.4555L17.9995 7.85075C17.69 8.02762 17.31 8.02762 17.0005 7.85075L15.5121 10.4555ZM14.4713 9.86077L15.5121 10.4555L17.0005 7.85075L15.9598 7.25604L14.4713 9.86077ZM13.9485 9.54813C13.8549 9.52842 13.8099 9.49841 13.8929 9.54001C13.9911 9.58924 14.1534 9.67912 14.4713 9.86077L15.9598 7.25604C15.4373 6.95748 15.02 6.70804 14.567 6.61258L13.9485 9.54813ZM14.0515 9.54813C14.0176 9.55529 13.9824 9.55529 13.9485 9.54813L14.567 6.61258C14.1931 6.5338 13.8069 6.5338 13.433 6.61258L14.0515 9.54813ZM13.5287 9.86077C13.8466 9.67912 14.0089 9.58924 14.1071 9.54001C14.1901 9.49841 14.1451 9.52842 14.0515 9.54813L13.433 6.61258C12.98 6.70804 12.5627 6.95748 12.0403 7.25604L13.5287 9.86077ZM12.4879 10.4555L13.5287 9.86077L12.0403 7.25604L10.9995 7.85075L12.4879 10.4555ZM8.51208 10.4555C9.7439 11.1594 11.2561 11.1594 12.4879 10.4555L10.9995 7.85075C10.69 8.02762 10.31 8.02762 10.0005 7.85075L8.51208 10.4555ZM9.25 10.0272C9.25 10.406 8.84089 10.6434 8.51208 10.4555L10.0005 7.85075C8.32933 6.8958 6.25 8.10248 6.25 10.0272H9.25ZM9.25 20.2L9.25 10.0272H6.25L6.25 20.2H9.25ZM9.2834 21.9872C9.25176 21.5999 9.25 21.0777 9.25 20.2H6.25C6.25 21.0272 6.24941 21.6935 6.29336 22.2315L9.2834 21.9872ZM9.33174 22.3405C9.35694 22.3899 9.31294 22.3488 9.2834 21.9872L6.29336 22.2315C6.33799 22.7776 6.43225 23.258 6.65873 23.7025L9.33174 22.3405ZM9.65951 22.6682C9.51839 22.5963 9.40365 22.4816 9.33175 22.3405L6.65873 23.7025C7.01825 24.4081 7.59193 24.9817 8.29754 25.3413L9.65951 22.6682ZM10.0128 22.7166C9.65124 22.6871 9.61006 22.6431 9.6595 22.6682L8.29754 25.3413C8.74202 25.5677 9.22237 25.662 9.76853 25.7066L10.0128 22.7166ZM11.8 22.75C10.9223 22.75 10.4001 22.7482 10.0128 22.7166L9.76853 25.7066C10.3065 25.7506 10.9728 25.75 11.8 25.75V22.75ZM20.5498 22.75H11.8V25.75H20.5498V22.75ZM11 10.75C9.75736 10.75 8.75 11.7574 8.75 13H11.75C11.75 13.4142 11.4142 13.75 11 13.75V10.75ZM18 10.75H11V13.75H18V10.75ZM20.25 13C20.25 11.7574 19.2426 10.75 18 10.75V13.75C17.5858 13.75 17.25 13.4142 17.25 13L20.25 13ZM18 15.25C19.2426 15.25 20.25 14.2426 20.25 13L17.25 13C17.25 12.5858 17.5858 12.25 18 12.25L18 15.25ZM11 15.25L18 15.25L18 12.25H11V15.25ZM8.75 13C8.75 14.2426 9.75736 15.25 11 15.25V12.25C11.4142 12.25 11.75 12.5858 11.75 13H8.75ZM15 16.25H11L11 19.25H15V16.25ZM14.25 17C14.25 16.5858 14.5858 16.25 15 16.25V19.25C16.2426 19.25 17.25 18.2426 17.25 17H14.25ZM15 17.75C14.5858 17.75 14.25 17.4142 14.25 17H17.25C17.25 15.7574 16.2426 14.75 15 14.75V17.75ZM11 17.75H15V14.75L11 14.75V17.75ZM11.75 17C11.75 17.4142 11.4142 17.75 11 17.75V14.75C9.75736 14.75 8.75 15.7574 8.75 17H11.75ZM11 16.25C11.4142 16.25 11.75 16.5858 11.75 17H8.75C8.75 18.2426 9.75736 19.25 11 19.25L11 16.25ZM11 23.25L16 23.25L16 20.25L11 20.25L11 23.25ZM8.75 21C8.75 22.2426 9.75736 23.25 11 23.25V20.25C11.4142 20.25 11.75 20.5858 11.75 21H8.75ZM11 18.75C9.75736 18.75 8.75 19.7574 8.75 21H11.75C11.75 21.4142 11.4142 21.75 11 21.75V18.75ZM16 18.75L11 18.75L11 21.75L16 21.75L16 18.75ZM18.25 21C18.25 19.7574 17.2426 18.75 16 18.75V21.75C15.5858 21.75 15.25 21.4142 15.25 21H18.25ZM16 23.25C17.2426 23.25 18.25 22.2426 18.25 21H15.25C15.25 20.5858 15.5858 20.25 16 20.25V23.25Z" fill="white"/>
<path fill-rule="evenodd" clip-rule="evenodd" d="M13.433 6.61258C13.8069 6.5338 14.1931 6.5338 14.567 6.61258C14.9921 6.70216 15.3797 6.924 15.8728 7.2063L15.9598 7.25604L17.0005 7.85075C17.31 8.02762 17.69 8.02762 17.9995 7.85075C19.6707 6.8958 21.75 8.10248 21.75 10.0272V16C21.75 16.0004 21.75 16.0008 21.75 16.0012V23C21.75 23.6872 22.3045 24.2448 22.9904 24.25H23C23.002 24.25 23.0039 24.25 23.0059 24.25C23.6935 24.2468 24.25 23.6884 24.25 23L24.25 21.4546C24.25 20.5987 24.0325 20.222 23.8523 20.0468C23.6644 19.8642 23.379 19.7654 22.9708 19.7495C22.5569 19.7334 22.2344 19.3848 22.2506 18.9709C22.2667 18.557 22.6153 18.2345 23.0292 18.2506C23.621 18.2737 24.3356 18.4248 24.8977 18.9711C25.4675 19.5248 25.75 20.3559 25.75 21.4546L25.75 23C25.75 24.5188 24.5188 25.75 23 25.75C22.9952 25.75 22.9905 25.75 22.9857 25.75L11.8 25.75H11.7679C10.955 25.75 10.2994 25.75 9.76853 25.7066C9.2219 25.662 8.74175 25.5676 8.29754 25.3413C7.59193 24.9817 7.01825 24.4081 6.65873 23.7025C6.43239 23.2582 6.33803 22.7781 6.29336 22.2315C6.24999 21.7006 6.24999 21.045 6.25 20.2321V20.2321V20.2L6.25 10.0272C6.25 8.10248 8.32933 6.8958 10.0005 7.85075C10.31 8.02762 10.69 8.02762 10.9995 7.85075L12.0403 7.25604L12.1272 7.2063C12.6203 6.924 13.0079 6.70216 13.433 6.61258ZM20.5498 24.25C20.3581 23.875 20.25 23.4501 20.25 23V16C20.25 15.9996 20.25 15.9992 20.25 15.9988V10.0272C20.25 9.25422 19.4149 8.76958 18.7437 9.15312C17.973 9.5935 17.027 9.5935 16.2563 9.15312L15.2155 8.5584C14.5934 8.2029 14.4224 8.11506 14.2577 8.08035C14.0878 8.04455 13.9122 8.04455 13.7423 8.08035C13.5776 8.11506 13.4066 8.2029 12.7845 8.5584L11.7437 9.15312C10.973 9.5935 10.027 9.5935 9.25629 9.15312C8.58511 8.76958 7.75 9.25422 7.75 10.0272L7.75 20.2C7.75 21.0524 7.75058 21.6467 7.78838 22.1093C7.82547 22.5632 7.8946 22.824 7.99524 23.0215C8.21095 23.4448 8.55516 23.789 8.97852 24.0048C9.17604 24.1054 9.4368 24.1745 9.89068 24.2116C10.3533 24.2494 10.9475 24.25 11.8 24.25H20.5498ZM10.25 13C10.25 12.5858 10.5858 12.25 11 12.25H18C18.4142 12.25 18.75 12.5858 18.75 13C18.75 13.4142 18.4142 13.75 18 13.75H11C10.5858 13.75 10.25 13.4142 10.25 13ZM11 17.75H15C15.4142 17.75 15.75 17.4142 15.75 17C15.75 16.5858 15.4142 16.25 15 16.25H11C10.5858 16.25 10.25 16.5858 10.25 17C10.25 17.4142 10.5858 17.75 11 17.75ZM16 21.75L11 21.75C10.5858 21.75 10.25 21.4142 10.25 21C10.25 20.5858 10.5858 20.25 11 20.25L16 20.25C16.4142 20.25 16.75 20.5858 16.75 21C16.75 21.4142 16.4142 21.75 16 21.75Z" fill="#151E28"/>
</svg>
