<svg viewBox="0 0 32 32" fill="none" xmlns="http://www.w3.org/2000/svg">
<path d="M14.8171 10.611C18.4789 6.94916 22.1408 7.15741 23.7985 7.51368C23.988 7.55442 24.0828 7.57479 24.3042 7.71239C24.4338 7.79286 24.7063 8.06539 24.7868 8.19492C24.9244 8.4164 24.9447 8.51117 24.9855 8.7007C25.3418 10.3584 25.55 14.0202 21.8882 17.6821C19.8544 19.7158 18.1788 20.9139 16.9103 21.6198C15.2319 22.5538 13.3469 21.8688 11.9887 20.5105V20.5105C10.6304 19.1522 9.94537 17.2673 10.8794 15.5888C11.5852 14.3204 12.7834 12.6447 14.8171 10.611Z" fill="white"/>
<path d="M23.7823 8.281L24.2964 6.87184L24.2964 6.87184L23.7823 8.281ZM23.9004 8.34419L24.82 7.15913C24.7772 7.12595 24.7327 7.09511 24.6866 7.06675L23.9004 8.34419ZM23.6408 8.24664L23.3256 9.71315L23.3257 9.71316L23.6408 8.24664ZM15.3474 11.141L14.2867 10.0804L14.2867 10.0804L15.3474 11.141ZM13.6179 13.0122L12.4728 12.0433C12.4691 12.0477 12.4654 12.0521 12.4618 12.0565L13.6179 13.0122ZM13.6076 13.0247L14.7533 13.9928C14.7568 13.9887 14.7603 13.9846 14.7637 13.9804L13.6076 13.0247ZM11.613 15.8148L12.9072 16.5732C12.9098 16.5688 12.9123 16.5644 12.9149 16.56L11.613 15.8148ZM11.6053 15.828L10.3111 15.0696C10.3083 15.0745 10.3054 15.0794 10.3026 15.0844L11.6053 15.828ZM11.5347 15.9532L10.224 15.2238L10.224 15.2238L11.5347 15.9532ZM12.519 19.9799L11.4583 21.0405L11.4583 21.0405L12.519 19.9799ZM16.5456 20.9641L15.8163 19.6534L15.8163 19.6534L16.5456 20.9641ZM24.2522 8.858L22.7857 9.17319L22.7857 9.17319L24.2522 8.858ZM24.2178 8.71652L22.8086 9.23049L22.8087 9.23065L24.2178 8.71652ZM24.1546 8.59844L25.4321 7.81222C25.4033 7.76543 25.3719 7.72026 25.3382 7.6769L24.1546 8.59844ZM24.1544 8.59807L22.9682 9.51622L22.9708 9.5196L24.1544 8.59807ZM24.128 8.56617L22.9929 9.54671L22.993 9.54677L24.128 8.56617ZM24.0336 8.46529L22.9729 9.52594L22.9729 9.52596L24.0336 8.46529ZM23.9327 8.3708L22.9521 9.50592L22.9522 9.50595L23.9327 8.3708ZM23.9008 8.3445L22.9812 9.52957L22.982 9.53014L23.9008 8.3445ZM13.2245 11.1896L12.8419 12.64C13.3812 12.7823 13.955 12.6136 14.3314 12.202L13.2245 11.1896ZM14.2867 10.0804L13.2261 9.01972L13.2261 9.01972L14.2867 10.0804ZM5.97427 13.781L7.19487 14.6528L7.19487 14.6528L5.97427 13.781ZM5.01446 15.1247L3.79386 14.2528L3.79386 14.2528L5.01446 15.1247ZM4.91152 15.7926L6.338 15.3287L6.338 15.3287L4.91152 15.7926ZM5.38759 16.2721L5.86193 14.8491L5.86193 14.8491L5.38759 16.2721ZM9.63023 17.6864L9.15589 19.1094L9.1559 19.1094L9.63023 17.6864ZM9.72467 17.7112L11.2146 17.5381C11.1392 16.8889 10.6522 16.3633 10.0108 16.2387L9.72467 17.7112ZM11.4583 21.0405L12.519 19.9799L12.519 19.9799L11.4583 21.0405ZM14.7879 22.7742L16.2604 22.4885C16.1359 21.8468 15.6102 21.3596 14.9609 21.2842L14.7879 22.7742ZM14.8127 22.8688L16.2357 22.3945L16.2357 22.3945L14.8127 22.8688ZM16.2269 27.1115L17.6499 26.6371L17.6499 26.6371L16.2269 27.1115ZM16.7065 27.5875L17.1704 26.1611L17.1704 26.1611L16.7065 27.5875ZM17.3744 27.4846L18.2462 28.7052L18.2462 28.7052L17.3744 27.4846ZM18.7181 26.5248L17.8462 25.3042L17.8462 25.3042L18.7181 26.5248ZM21.3093 19.2742L20.297 18.1673C19.8854 18.5438 19.7167 19.1176 19.859 19.6569L21.3093 19.2742ZM22.4185 18.2121L23.4791 19.2728L23.4791 19.2728L22.4185 18.2121ZM25.7187 8.54281L24.2521 8.85731L24.2522 8.858L25.7187 8.54281ZM25.7156 8.52849L24.2487 8.84145L24.249 8.84299L25.7156 8.52849ZM25.7156 8.52846L27.1826 8.21551L27.1824 8.21435L25.7156 8.52846ZM25.627 8.20247L27.0362 7.68844L27.0362 7.68842L25.627 8.20247ZM25.4238 7.79883L26.6979 7.00724L26.6979 7.00724L25.4238 7.79883ZM25.0942 7.40463L26.1549 6.34397L26.1549 6.34397L25.0942 7.40463ZM24.7 7.07503L25.4916 5.80091L25.4916 5.80091L24.7 7.07503ZM24.2964 6.87183L24.8104 5.46266L24.8104 5.46266L24.2964 6.87183ZM23.9703 6.7832L23.6559 8.24986L23.6562 8.24994L23.9703 6.7832ZM23.956 6.78013L23.6408 8.24664L23.6416 8.2468L23.956 6.78013ZM12.0955 12.4994L13.262 13.4424C13.606 13.0169 13.6909 12.4379 13.4838 11.9315C13.2767 11.4251 12.8103 11.0717 12.2667 11.0092L12.0955 12.4994ZM7.19487 14.6528L8.41547 15.5247L8.41547 15.5247L7.19487 14.6528ZM10.3292 15.0379L11.5498 15.9098C11.5783 15.8699 11.6048 15.8287 11.6292 15.7863L10.3292 15.0379ZM9.57907 16.0882L9.10473 17.5112C9.72944 17.7194 10.4169 17.4959 10.7997 16.96L9.57907 16.0882ZM6.82529 15.1702L5.60469 14.2984C5.32801 14.6857 5.25161 15.1814 5.39882 15.6341C5.54602 16.0868 5.89936 16.4427 6.35095 16.5933L6.82529 15.1702ZM19.9996 20.4034L21.4898 20.2321C21.4273 19.6885 21.0739 19.2222 20.5675 19.015C20.0611 18.8079 19.4822 18.8929 19.0567 19.2368L19.9996 20.4034ZM17.8462 25.3042L18.7181 26.5248L18.7181 26.5248L17.8462 25.3042ZM17.4625 22.1688L16.714 20.8689C16.6716 20.8933 16.6305 20.9198 16.5907 20.9482L17.4625 22.1688ZM16.4109 22.92L15.539 21.6994C15.0032 22.0821 14.7796 22.7696 14.9879 23.3943L16.4109 22.92ZM17.3288 25.6738L15.9058 26.1481C16.0563 26.5997 16.4123 26.953 16.865 27.1002C17.3176 27.2475 17.8133 27.1711 18.2007 26.8944L17.3288 25.6738ZM18.1758 14.3231L17.1151 15.3838L17.1151 15.3838L18.1758 14.3231ZM17.1151 11.4947L16.0545 10.434L16.0545 10.434L17.1151 11.4947ZM21.0042 11.4947L22.0649 10.434L22.0649 10.434L21.0042 11.4947ZM17.1151 15.3838L18.1758 14.3231L18.1758 14.3231L17.1151 15.3838ZM23.2683 9.69016C23.2528 9.68451 23.2288 9.67541 23.2009 9.6634C23.1756 9.6525 23.155 9.64263 23.1399 9.63499C23.1115 9.62063 23.1008 9.61339 23.1142 9.62164L24.6866 7.06675C24.5541 6.98521 24.4312 6.92101 24.2964 6.87184L23.2683 9.69016ZM23.3257 9.71316C23.3492 9.71823 23.3651 9.72171 23.3757 9.72409C23.3869 9.7266 23.3882 9.72698 23.3839 9.72591C23.3793 9.72479 23.3627 9.72062 23.3392 9.71363C23.3269 9.70998 23.314 9.70592 23.3006 9.70145C23.2873 9.697 23.2762 9.69304 23.2683 9.69016L24.2964 6.87184C24.1611 6.82249 24.0309 6.79622 23.956 6.78013L23.3257 9.71316ZM16.4081 12.2017C19.389 9.22075 22.1964 9.47045 23.3256 9.71315L23.956 6.78013C22.1214 6.38583 18.1751 6.19203 14.2867 10.0804L16.4081 12.2017ZM14.763 13.9811C15.2262 13.4337 15.7699 12.8398 16.4081 12.2017L14.2867 10.0804C13.5932 10.7739 12.9927 11.4288 12.4728 12.0433L14.763 13.9811ZM14.7637 13.9804L14.774 13.9679L12.4618 12.0565L12.4515 12.0689L14.7637 13.9804ZM12.9149 16.56C13.3061 15.8764 13.8884 15.0163 14.7533 13.9928L12.4619 12.0565C11.4908 13.2057 10.8011 14.2139 10.3112 15.0696L12.9149 16.56ZM12.8994 16.5865L12.9072 16.5732L10.3189 15.0564L10.3111 15.0696L12.8994 16.5865ZM12.8455 16.6826C12.8657 16.6462 12.8865 16.6092 12.908 16.5717L10.3026 15.0844C10.2758 15.1313 10.2496 15.1778 10.224 15.2238L12.8455 16.6826ZM13.5796 18.9192C12.6006 17.9402 12.5956 17.1316 12.8455 16.6826L10.224 15.2238C9.06487 17.3069 9.96781 19.55 11.4583 21.0405L13.5796 18.9192ZM15.8163 19.6534C15.3672 19.9033 14.5587 19.8982 13.5796 18.9192L11.4583 21.0405C12.9488 22.531 15.192 23.434 17.275 22.2748L15.8163 19.6534ZM20.2971 16.0908C18.3869 18.001 16.8751 19.0642 15.8163 19.6534L17.275 22.2748C18.6133 21.5301 20.3436 20.287 22.4185 18.2121L20.2971 16.0908ZM22.7857 9.17319C23.0284 10.3024 23.2781 13.1098 20.2971 16.0908L22.4185 18.2121C26.3068 14.3238 26.113 10.3774 25.7187 8.54281L22.7857 9.17319ZM22.8087 9.23065C22.8058 9.22275 22.8019 9.21163 22.7974 9.19827C22.7929 9.18487 22.7889 9.17193 22.7852 9.15966C22.7782 9.13618 22.774 9.11948 22.7729 9.11497C22.7719 9.11063 22.7722 9.11194 22.7747 9.1231C22.7771 9.13373 22.7806 9.14959 22.7857 9.17319L25.7187 8.54281C25.7026 8.46804 25.6764 8.33773 25.627 8.20238L22.8087 9.23065ZM22.8772 9.38466C22.8855 9.39807 22.8782 9.38739 22.8639 9.35895C22.8562 9.34382 22.8463 9.32326 22.8354 9.29794C22.8234 9.27003 22.8143 9.24603 22.8086 9.23049L25.627 8.20254C25.5778 8.06766 25.5136 7.94466 25.4321 7.81222L22.8772 9.38466ZM22.9708 9.5196L22.9711 9.51998L25.3382 7.6769L25.3379 7.67653L22.9708 9.5196ZM22.993 9.54677C22.9909 9.54441 22.9871 9.53992 22.9818 9.53338C22.9791 9.53011 22.9764 9.52666 22.9735 9.52307C22.9722 9.52131 22.9709 9.5197 22.9698 9.51831C22.9688 9.51698 22.968 9.51594 22.9682 9.51622L25.3405 7.67991C25.3257 7.66078 25.3003 7.62864 25.2631 7.58556L22.993 9.54677ZM22.9729 9.52596C22.9796 9.53269 22.9854 9.53866 22.9896 9.54322C22.9942 9.54806 22.9952 9.54934 22.9929 9.54671L25.2632 7.58562C25.2105 7.52458 25.152 7.46246 25.0942 7.40462L22.9729 9.52596ZM22.9522 9.50595C22.9495 9.50366 22.9508 9.50468 22.9556 9.5092C22.9602 9.51347 22.9661 9.51921 22.9729 9.52594L25.0942 7.40464C25.0364 7.34683 24.9743 7.2884 24.9132 7.23564L22.9522 9.50595ZM22.982 9.53014C22.9821 9.53024 22.9792 9.52797 22.9756 9.52513C22.9721 9.52236 22.9687 9.51965 22.9654 9.51702C22.9589 9.51175 22.9545 9.50797 22.9521 9.50592L24.9132 7.23567C24.8702 7.19847 24.8382 7.17322 24.8196 7.15886L22.982 9.53014ZM22.9808 9.52926L22.9812 9.52957L24.8204 7.15943L24.82 7.15913L22.9808 9.52926ZM14.3314 12.202C14.6432 11.861 14.9811 11.5073 15.3474 11.141L13.2261 9.01972C12.8293 9.41648 12.4605 9.80242 12.1176 10.1773L14.3314 12.202ZM7.19487 14.6528C8.46481 12.8749 10.7353 12.0842 12.8419 12.64L13.6072 9.73926C10.3248 8.87328 6.76584 10.0921 4.75367 12.9091L7.19487 14.6528ZM6.23506 15.9966L7.19487 14.6528L4.75367 12.9091L3.79386 14.2528L6.23506 15.9966ZM6.338 15.3287C6.4116 15.555 6.3734 15.8029 6.23506 15.9966L3.79386 14.2528C3.37884 14.8339 3.26424 15.5774 3.48505 16.2564L6.338 15.3287ZM5.86193 14.8491C6.08773 14.9244 6.2644 15.1024 6.338 15.3287L3.48505 16.2564C3.70586 16.9355 4.23586 17.4694 4.91325 17.6952L5.86193 14.8491ZM10.1046 16.2633L5.86193 14.8491L4.91325 17.6952L9.15589 19.1094L10.1046 16.2633ZM10.0108 16.2387C10.0425 16.2449 10.0739 16.2531 10.1046 16.2633L9.1559 19.1094C9.24902 19.1404 9.34345 19.1652 9.43858 19.1836L10.0108 16.2387ZM12.519 19.9799C11.792 19.2529 11.3115 18.3716 11.2146 17.5381L8.23469 17.8843C8.42922 19.5586 9.32895 21.0325 10.3976 22.1012L12.519 19.9799ZM14.9609 21.2842C14.1274 21.1874 13.2459 20.7068 12.519 19.9799L10.3976 22.1012C11.4664 23.1699 12.9404 24.0697 14.6148 24.2642L14.9609 21.2842ZM16.2357 22.3945C16.246 22.4254 16.2543 22.4568 16.2604 22.4885L13.3153 23.0599C13.3338 23.155 13.3585 23.2497 13.3897 23.3432L16.2357 22.3945ZM17.6499 26.6371L16.2357 22.3945L13.3897 23.3432L14.8039 27.5858L17.6499 26.6371ZM17.1704 26.1611C17.3967 26.2347 17.5747 26.4113 17.6499 26.6371L14.8039 27.5858C15.0297 28.2632 15.5636 28.7932 16.2426 29.014L17.1704 26.1611ZM16.5025 26.264C16.6962 26.1257 16.944 26.0875 17.1704 26.1611L16.2426 29.014C16.9217 29.2348 17.6652 29.1202 18.2462 28.7052L16.5025 26.264ZM17.8462 25.3042L16.5025 26.264L18.2462 28.7052L19.59 27.7454L17.8462 25.3042ZM19.859 19.6569C20.4149 21.7636 19.6242 24.0342 17.8462 25.3042L19.5899 27.7454C22.4071 25.7331 23.6259 22.174 22.7597 18.8915L19.859 19.6569ZM21.3578 17.1514C20.9916 17.5176 20.6379 17.8556 20.297 18.1673L22.3217 20.3811C22.6965 20.0383 23.0824 19.6695 23.4791 19.2728L21.3578 17.1514ZM24.2522 8.858C24.5709 10.3409 24.7919 13.7174 21.3578 17.1514L23.4791 19.2728C27.8231 14.9288 27.6546 10.4115 27.1852 8.22762L24.2522 8.858ZM24.249 8.84299L24.2521 8.85731L27.1854 8.22831L27.1823 8.21399L24.249 8.84299ZM24.2486 8.84142L24.2487 8.84145L27.1826 8.21553L27.1826 8.21551L24.2486 8.84142ZM24.2178 8.7165C24.2196 8.72145 24.2234 8.73272 24.2287 8.75343C24.2344 8.77584 24.2395 8.79882 24.2489 8.84258L27.1824 8.21435C27.1644 8.13063 27.1213 7.92186 27.0362 7.68844L24.2178 8.7165ZM24.1497 8.59042C24.2017 8.67412 24.2138 8.70548 24.2178 8.71652L27.0362 7.68842C26.9386 7.42104 26.8169 7.19879 26.6979 7.00724L24.1497 8.59042ZM24.0336 8.46529C24.0665 8.4982 24.0996 8.53321 24.1272 8.56523C24.1406 8.58077 24.1497 8.59209 24.1549 8.59893C24.1606 8.60641 24.1578 8.60341 24.1497 8.59042L26.6979 7.00724C26.5128 6.70929 26.2673 6.45639 26.1549 6.34397L24.0336 8.46529ZM23.9084 8.34915C23.8954 8.34109 23.8924 8.33827 23.8999 8.34396C23.9068 8.34916 23.9181 8.35821 23.9336 8.3716C23.9656 8.39921 24.0006 8.43238 24.0336 8.4653L26.1549 6.34397C26.0425 6.23156 25.7896 5.98602 25.4916 5.80091L23.9084 8.34915ZM23.7823 8.281C23.7934 8.28503 23.8247 8.29715 23.9084 8.34915L25.4916 5.80091C25.3001 5.6819 25.0778 5.5602 24.8104 5.46266L23.7823 8.281ZM23.6562 8.24994C23.7 8.25932 23.723 8.26439 23.7454 8.27015C23.7661 8.27546 23.7774 8.2792 23.7823 8.281L24.8104 5.46266C24.577 5.3775 24.3681 5.33438 24.2845 5.31646L23.6562 8.24994ZM23.6416 8.2468L23.6559 8.24986L24.2848 5.31654L24.2705 5.31347L23.6416 8.2468ZM15.3474 11.141C18.7815 7.70697 22.1579 7.92792 23.6408 8.24664L24.2712 5.31362C22.0873 4.84425 17.5701 4.67571 13.2261 9.01972L15.3474 11.141ZM12.2667 11.0092C9.8665 10.7334 7.4242 11.7511 5.97427 13.781L8.41547 15.5247C9.20856 14.4144 10.5682 13.8338 11.9242 13.9896L12.2667 11.0092ZM11.6292 15.7863C12.0109 15.1232 12.537 14.3393 13.262 13.4424L10.9289 11.5565C10.1128 12.5662 9.49559 13.4795 9.02925 14.2896L11.6292 15.7863ZM10.7997 16.96L11.5498 15.9098L9.10864 14.1661L8.35847 15.2163L10.7997 16.96ZM6.35095 16.5933L9.10473 17.5112L10.0534 14.6651L7.29963 13.7472L6.35095 16.5933ZM5.97427 13.781L5.60469 14.2984L8.04589 16.0421L8.41547 15.5247L5.97427 13.781ZM18.5094 20.5747C18.6654 21.9308 18.0847 23.2905 16.9744 24.0836L18.7181 26.5248C20.7481 25.0748 21.7658 22.6324 21.4898 20.2321L18.5094 20.5747ZM18.211 23.4687C19.0208 23.0025 19.9336 22.3855 20.9426 21.5699L19.0567 19.2368C18.1604 19.9614 17.3769 20.4872 16.714 20.8689L18.211 23.4687ZM17.2828 24.1406L18.3344 23.3894L16.5907 20.9482L15.539 21.6994L17.2828 24.1406ZM18.7519 25.1994L17.8339 22.4457L14.9879 23.3943L15.9058 26.1481L18.7519 25.1994ZM16.9744 24.0836L16.457 24.4532L18.2007 26.8944L18.7181 26.5248L16.9744 24.0836ZM21.0042 11.4947C19.9303 10.4207 18.1891 10.4207 17.1151 11.4947L19.2364 13.616C19.1388 13.7136 18.9805 13.7136 18.8829 13.616L21.0042 11.4947ZM21.0042 15.3838C22.0782 14.3098 22.0782 12.5686 21.0042 11.4947L18.8829 13.616C18.7853 13.5184 18.7853 13.3601 18.8829 13.2624L21.0042 15.3838ZM17.1151 15.3838C18.1891 16.4577 19.9303 16.4577 21.0042 15.3838L18.8829 13.2624C18.9805 13.1648 19.1388 13.1648 19.2364 13.2624L17.1151 15.3838ZM17.1151 11.4947C16.0412 12.5686 16.0412 14.3098 17.1151 15.3838L19.2364 13.2624C19.3341 13.3601 19.3341 13.5184 19.2364 13.616L17.1151 11.4947ZM18.1758 12.5553C18.6639 12.0672 19.4554 12.0672 19.9436 12.5553L22.0649 10.434C20.4051 8.77428 17.7142 8.77428 16.0545 10.434L18.1758 12.5553ZM18.1758 14.3231C17.6876 13.8349 17.6876 13.0435 18.1758 12.5553L16.0545 10.434C14.3947 12.0937 14.3947 14.7847 16.0545 16.4444L18.1758 14.3231ZM19.9436 14.3231C19.4554 14.8112 18.6639 14.8112 18.1758 14.3231L16.0545 16.4444C17.7142 18.1041 20.4051 18.1041 22.0649 16.4444L19.9436 14.3231ZM19.9436 12.5553C20.4317 13.0435 20.4317 13.8349 19.9436 14.3231L22.0649 16.4444C23.7246 14.7847 23.7246 12.0937 22.0649 10.434L19.9436 12.5553Z" fill="white"/>
<path fill-rule="evenodd" clip-rule="evenodd" d="M23.9004 8.34419C23.8226 8.29628 23.7929 8.28486 23.7823 8.281C23.7642 8.2744 23.7446 8.26894 23.6408 8.24664C22.1589 7.92814 18.7821 7.70639 15.3474 11.141C14.6816 11.8069 14.1094 12.4312 13.6179 13.0122L13.6076 13.0247C12.6896 14.111 12.0536 15.0452 11.613 15.8148L11.6053 15.828C11.5812 15.8703 11.5577 15.912 11.5347 15.9532C10.8302 17.2193 11.2842 18.7451 12.519 19.9799C13.7537 21.2146 15.2796 21.6686 16.5456 20.9641C17.7442 20.2972 19.3652 19.144 21.3578 17.1514C24.7925 13.7168 24.5707 10.3399 24.2522 8.858C24.2299 8.75426 24.2244 8.7346 24.2178 8.71652C24.214 8.70595 24.2026 8.67629 24.1546 8.59844L24.1544 8.59807C24.1517 8.59458 24.1436 8.58413 24.128 8.56617C24.103 8.53718 24.0701 8.50185 24.0336 8.46529C23.997 8.42873 23.9617 8.39584 23.9327 8.3708C23.9147 8.35531 23.9043 8.34722 23.9008 8.3445L23.9004 8.34419ZM14.2867 10.0804C13.9052 10.4619 13.5519 10.8317 13.2245 11.1896C10.53 10.4788 7.61532 11.4835 5.97427 13.781L5.01446 15.1247C4.87612 15.3184 4.83792 15.5662 4.91152 15.7926C4.98513 16.0189 5.16179 16.1969 5.38759 16.2721L9.63023 17.6864C9.66146 17.6968 9.693 17.705 9.72467 17.7112C9.87036 18.9651 10.5605 20.1427 11.4583 21.0405C12.3562 21.9384 13.5339 22.6286 14.7879 22.7742C14.794 22.8059 14.8023 22.8375 14.8127 22.8688L16.2269 27.1115C16.3022 27.3373 16.4802 27.5139 16.7065 27.5875C16.9328 27.6611 17.1807 27.6229 17.3744 27.4846L18.7181 26.5248C21.0157 24.8837 22.0204 21.9688 21.3093 19.2742C21.6672 18.9469 22.037 18.5936 22.4185 18.2121C26.3075 14.3231 26.1128 10.3762 25.7187 8.54281L25.7156 8.52849L25.7156 8.52846C25.6975 8.44364 25.6726 8.32733 25.627 8.20247C25.5762 8.06326 25.5093 7.93646 25.4238 7.79883C25.3351 7.65604 25.1941 7.5045 25.0942 7.40463C24.9943 7.30477 24.8428 7.16375 24.7 7.07503C24.5624 6.98953 24.4356 6.92262 24.2964 6.87183C24.1715 6.82628 24.0552 6.80137 23.9703 6.7832L23.956 6.78013C22.1226 6.38608 18.1758 6.19134 14.2867 10.0804ZM7.19487 14.6528C8.31638 13.0827 10.2173 12.2836 12.0955 12.4994C11.3249 13.4527 10.7533 14.3013 10.3292 15.0379L9.57907 16.0882L6.82529 15.1702L7.19487 14.6528ZM17.8462 25.3042C19.4164 24.1826 20.2156 22.2816 19.9996 20.4034C19.047 21.1734 18.1989 21.7449 17.4625 22.1688L16.4109 22.92L17.3288 25.6738L17.8462 25.3042ZM18.1758 12.5553C18.6639 12.0672 19.4554 12.0672 19.9436 12.5553C20.4317 13.0435 20.4317 13.8349 19.9436 14.3231C19.4554 14.8112 18.6639 14.8112 18.1758 14.3231C17.6876 13.8349 17.6876 13.0435 18.1758 12.5553ZM21.0042 11.4947C19.9303 10.4207 18.1891 10.4207 17.1151 11.4947C16.0412 12.5686 16.0412 14.3098 17.1151 15.3838C18.1891 16.4577 19.9303 16.4577 21.0042 15.3838C22.0782 14.3098 22.0782 12.5686 21.0042 11.4947Z" fill="#151E28"/>
</svg>
