<svg viewBox="0 0 32 32" fill="none" xmlns="http://www.w3.org/2000/svg">
<path d="M6.96046 16.3301C5.26344 20.9177 5.92134 23.8727 6.96184 24.9132C8.00232 25.9537 10.9571 26.6114 15.5445 24.9145C18.9875 23.6408 20.5506 19.4579 18.4174 16.4702C17.5718 15.2859 16.5888 14.3029 15.4045 13.4573C12.4169 11.3242 8.23407 12.8872 6.96046 16.3301Z" fill="white"/>
<path d="M18.4679 6.06835L17.7179 4.76931L17.7179 4.76931L18.4679 6.06835ZM19.1753 6.04556L18.5105 7.39017L18.5105 7.39017L19.1753 6.04556ZM18.0707 6.29766L18.8207 7.59669L18.8207 7.59669L18.0707 6.29766ZM16.5813 11.5473L15.1766 12.0736L15.1766 12.0736L16.5813 11.5473ZM17.5467 11.9865L17.0205 10.5819L17.0205 10.5819L17.5467 11.9865ZM17.9859 11.0211L19.3906 10.4948L19.3906 10.4948L17.9859 11.0211ZM18.8207 7.59669L19.5707 8.89573L19.5707 8.89573L18.8207 7.59669ZM18.8484 7.58072L19.6642 6.32195C19.1913 6.01546 18.5864 5.9999 18.0984 6.28168L18.8484 7.58072ZM19.3687 8.05938L20.5989 7.20114L20.5989 7.20114L19.3687 8.05938ZM19.5897 8.94855L18.0928 8.85201L18.0928 8.85201L19.5897 8.94855ZM21.0866 9.04509L19.5897 8.94855L19.5897 8.94855L21.0866 9.04509ZM20.5989 7.20114L19.3687 8.05938L19.3687 8.05938L20.5989 7.20114ZM26.0434 15.425L24.9827 14.3644L24.9827 14.3644L26.0434 15.425ZM26.2485 14.7476L27.7194 14.4535L27.7194 14.4535L26.2485 14.7476ZM25.7191 15.7493L26.7798 16.81L26.7798 16.81L25.7191 15.7493ZM20.2628 15.8293L19.391 17.0499L19.391 17.0499L20.2628 15.8293ZM20.0885 14.7831L21.3091 15.6549L21.3091 15.6549L20.0885 14.7831ZM21.1347 14.6087L20.2628 15.8293L20.2628 15.8293L21.1347 14.6087ZM24.6584 14.6887L25.7191 15.7493L25.7191 15.7493L24.6584 14.6887ZM24.681 14.6661L25.7417 15.7267C26.1402 15.3282 26.2817 14.74 26.108 14.2039L24.681 14.6661ZM24.3534 14.0396L25.5008 13.0734L25.5007 13.0734L24.3534 14.0396ZM23.5517 13.596L23.2575 15.0669L23.2575 15.0669L23.5517 13.596ZM22.9633 12.7135L21.4925 12.4193L21.4925 12.4193L22.9633 12.7135ZM23.8458 12.1251L23.5517 13.596L23.5517 13.596L23.8458 12.1251ZM25.5007 13.0734L26.6481 12.1073L26.6481 12.1073L25.5007 13.0734ZM24.2203 11.5472L24.2849 10.0486L24.2849 10.0486L24.2203 11.5472ZM20.603 12.8225L21.5932 13.9493L21.5932 13.9493L20.603 12.8225ZM25.0019 10.8302L26.5005 10.8948L26.5005 10.8948L25.0019 10.8302ZM24.2849 10.0486L24.3495 8.54998L24.2849 10.0486ZM19.6128 11.6958L20.603 12.8225L20.603 12.8225L19.6128 11.6958ZM18.6833 12.5127L17.6931 11.386L17.6931 11.386L18.6833 12.5127ZM19.6735 13.6394L18.6833 12.5127L18.6833 12.5127L19.6735 13.6394ZM14.9687 14.0677L14.0971 15.2885L14.0971 15.2885L14.9687 14.0677ZM17.8071 16.9061L19.0278 16.0344L19.0278 16.0344L17.8071 16.9061ZM7.66395 16.5904L6.25712 16.0699L6.25712 16.0699L7.66395 16.5904ZM6.68343 21.909L5.18587 21.9946L5.18587 21.9946L6.68343 21.909ZM7.49224 24.3829L6.43158 25.4436L6.43158 25.4436L7.49224 24.3829ZM9.96592 25.1916L10.0515 23.694L10.0514 23.694L9.96592 25.1916ZM15.2844 24.2111L14.764 22.8042L14.764 22.8042L15.2844 24.2111ZM19.0278 16.0344L20.2486 15.1628L20.2486 15.1628L19.0278 16.0344ZM15.8403 12.847L16.712 11.6262L16.712 11.6262L15.8403 12.847ZM15.8048 25.6179L16.3252 27.0247L16.3252 27.0247L15.8048 25.6179ZM9.88038 26.6892L9.79485 28.1867L9.79485 28.1867L9.88038 26.6892ZM6.43158 25.4436L5.37092 26.5042L5.37092 26.5042L6.43158 25.4436ZM5.18587 21.9946L3.68832 22.0802L3.68832 22.0802L5.18587 21.9946ZM6.25712 16.0699L4.85029 15.5495L4.85029 15.5495L6.25712 16.0699ZM19.2179 7.36738C19.0007 7.49277 18.7353 7.50132 18.5105 7.39017L19.8402 4.70094C19.1658 4.36751 18.3694 4.39316 17.7179 4.76931L19.2179 7.36738ZM18.8207 7.59669L19.2179 7.36738L17.7179 4.76931L17.3207 4.99862L18.8207 7.59669ZM17.9859 11.0211C17.4366 9.55485 17.7506 8.21452 18.8207 7.59669L17.3207 4.99862C14.4682 6.64551 14.3526 9.87404 15.1766 12.0736L17.9859 11.0211ZM17.0205 10.5819C17.4084 10.4366 17.8406 10.6332 17.9859 11.0211L15.1766 12.0736C15.6126 13.2372 16.9093 13.8271 18.073 13.3912L17.0205 10.5819ZM16.5813 11.5473C16.436 11.1594 16.6326 10.7272 17.0205 10.5819L18.073 13.3912C19.2366 12.9552 19.8266 11.6585 19.3906 10.4948L16.5813 11.5473ZM18.0707 6.29766C16.1228 7.4223 15.8875 9.69547 16.5813 11.5473L19.3906 10.4948C19.1998 9.98556 19.1947 9.59286 19.2538 9.34441C19.3073 9.1199 19.4139 8.98626 19.5707 8.89573L18.0707 6.29766ZM18.0984 6.28168L18.0707 6.29766L19.5707 8.89573L19.5984 8.87975L18.0984 6.28168ZM20.5989 7.20114C20.3489 6.84272 20.0238 6.55501 19.6642 6.32195L18.0326 8.83948C18.143 8.91106 18.1571 8.9442 18.1385 8.91761L20.5989 7.20114ZM21.0866 9.04509C21.1319 8.34309 20.9633 7.72346 20.5989 7.20114L18.1385 8.91761C18.1325 8.90898 18.1242 8.89559 18.116 8.87817C18.1077 8.86058 18.1016 8.84347 18.0977 8.82866C18.0892 8.79694 18.0963 8.79819 18.0928 8.85201L21.0866 9.04509ZM20.3864 8.24837C20.7998 8.27503 21.1132 8.63173 21.0866 9.04509L18.0928 8.85201C18.0128 10.0921 18.9533 11.1622 20.1933 11.2422L20.3864 8.24837ZM19.5897 8.94855C19.6164 8.53519 19.9731 8.22171 20.3864 8.24837L20.1933 11.2422C21.4334 11.3221 22.5035 10.3817 22.5835 9.14162L19.5897 8.94855ZM19.3687 8.05938C19.5244 8.28249 19.6147 8.56019 19.5897 8.94855L22.5835 9.14163C22.6489 8.12728 22.403 7.16543 21.8292 6.34291L19.3687 8.05938ZM18.5105 7.39017C18.9289 7.59707 19.2036 7.82271 19.3687 8.05938L21.8292 6.34291C21.2836 5.56083 20.5424 5.04816 19.8402 4.70094L18.5105 7.39017ZM27.104 16.4857C27.636 15.9538 27.8669 15.1911 27.7194 14.4535L24.7776 15.0418C24.7284 14.7959 24.8054 14.5417 24.9827 14.3644L27.104 16.4857ZM26.7798 16.81L27.1041 16.4857L24.9827 14.3644L24.6584 14.6887L26.7798 16.81ZM19.391 17.0499C21.3023 18.4151 24.4507 19.1391 26.7798 16.81L24.6584 14.6887C23.7847 15.5624 22.4088 15.5188 21.1347 14.6087L19.391 17.0499ZM18.8679 13.9112C18.1456 14.9224 18.3798 16.3276 19.391 17.0499L21.1347 14.6087C21.4717 14.8495 21.5498 15.3179 21.3091 15.6549L18.8679 13.9112ZM22.0065 13.3881C20.9954 12.6658 19.5901 12.9 18.8679 13.9112L21.3091 15.6549C21.0683 15.992 20.5999 16.0701 20.2628 15.8293L22.0065 13.3881ZM23.5978 13.628C23.4698 13.756 23.3131 13.8245 23.0824 13.818C22.8271 13.8108 22.4491 13.7042 22.0065 13.3881L20.2628 15.8293C21.872 16.9787 24.1286 17.3398 25.7191 15.7493L23.5978 13.628ZM23.6203 13.6054L23.5978 13.628L25.7191 15.7493L25.7417 15.7267L23.6203 13.6054ZM23.206 15.0058C23.1851 14.981 23.2135 15.0031 23.254 15.1283L26.108 14.2039C25.976 13.7962 25.7822 13.4077 25.5008 13.0734L23.206 15.0058ZM23.2575 15.0669C23.3104 15.0775 23.3098 15.0846 23.2813 15.0682C23.268 15.0606 23.2531 15.0503 23.2382 15.0377C23.2235 15.0253 23.2127 15.0138 23.206 15.0058L25.5007 13.0734C25.0905 12.5863 24.5356 12.2631 23.8458 12.1251L23.2575 15.0669ZM21.4925 12.4193C21.2488 13.6378 22.039 14.8232 23.2575 15.0669L23.8458 12.1251C24.252 12.2064 24.5154 12.6015 24.4342 13.0077L21.4925 12.4193ZM24.14 10.6543C22.9215 10.4106 21.7362 11.2008 21.4925 12.4193L24.4342 13.0077C24.353 13.4138 23.9578 13.6773 23.5517 13.596L24.14 10.6543ZM26.6481 12.1073C26.0022 11.3401 25.1367 10.8536 24.14 10.6543L23.5517 13.596C23.9333 13.6723 24.1781 13.8315 24.3534 14.0396L26.6481 12.1073ZM27.7194 14.4535C27.5657 13.6853 27.2624 12.8367 26.6481 12.1073L24.3534 14.0396C24.5392 14.2603 24.6861 14.5841 24.7776 15.0418L27.7194 14.4535ZM24.2849 10.0486C22.5734 9.97481 20.8996 10.5649 19.6128 11.6958L21.5932 13.9493C22.299 13.329 23.217 13.0053 24.1557 13.0458L24.2849 10.0486ZM23.5033 10.7656C23.5212 10.3518 23.8711 10.0307 24.2849 10.0486L24.1557 13.0458C25.3972 13.0993 26.447 12.1363 26.5005 10.8948L23.5033 10.7656ZM24.2203 11.5472C23.8065 11.5294 23.4855 11.1794 23.5033 10.7656L26.5005 10.8948C26.5541 9.6533 25.591 8.60349 24.3495 8.54998L24.2203 11.5472ZM20.603 12.8225C21.5993 11.947 22.8952 11.4901 24.2203 11.5472L24.3495 8.54998C22.2516 8.45954 20.1999 9.18291 18.6226 10.5691L20.603 12.8225ZM19.6735 13.6394L20.603 12.8225L18.6226 10.5691L17.6931 11.386L19.6735 13.6394ZM19.7418 12.5809C20.0152 12.8921 19.9846 13.366 19.6735 13.6394L17.6931 11.386C16.7597 12.2063 16.668 13.6279 17.4883 14.5613L19.7418 12.5809ZM18.6833 12.5127C18.9944 12.2392 19.4683 12.2698 19.7418 12.5809L17.4883 14.5613C18.3086 15.4947 19.7303 15.5864 20.6637 14.7661L18.6833 12.5127ZM19.6128 11.6958L18.6833 12.5127L20.6637 14.7661L21.5932 13.9493L19.6128 11.6958ZM14.0971 15.2885C15.0791 15.9896 15.8852 16.7957 16.5863 17.7777L19.0278 16.0344C18.1341 14.7827 17.0921 13.7407 15.8403 12.847L14.0971 15.2885ZM9.07078 17.1108C9.89541 14.8816 12.466 14.1239 14.0971 15.2885L15.8403 12.847C12.4055 10.3945 7.68261 12.2164 6.25712 16.0699L9.07078 17.1108ZM8.18099 21.8235C8.11973 20.7513 8.30626 19.1775 9.07078 17.1108L6.25712 16.0699C5.3806 18.4394 5.09642 20.429 5.18587 21.9946L8.18099 21.8235ZM8.5529 23.3222C8.56657 23.3359 8.24577 22.9573 8.18099 21.8235L5.18587 21.9946C5.2742 23.5405 5.73374 24.7457 6.43158 25.4436L8.5529 23.3222ZM10.0514 23.694C8.91771 23.6293 8.5392 23.3085 8.5529 23.3222L6.43158 25.4436C7.12941 26.1414 8.3346 26.6009 9.88038 26.6892L10.0514 23.694ZM14.764 22.8042C12.6973 23.5687 11.1235 23.7553 10.0515 23.694L9.88038 26.6892C11.4459 26.7786 13.4354 26.4944 15.8048 25.6179L14.764 22.8042ZM16.5863 17.7777C17.751 19.4088 16.9933 21.9796 14.764 22.8042L15.8048 25.6179C19.6584 24.1924 21.4804 19.4693 19.0278 16.0344L16.5863 17.7777ZM20.2486 15.1628C19.2586 13.7762 18.0986 12.6162 16.712 11.6262L14.9687 14.0677C16.0856 14.8652 17.0096 15.7892 17.8071 16.9061L20.2486 15.1628ZM16.3252 27.0247C20.966 25.308 23.3596 19.52 20.2486 15.1628L17.8071 16.9061C19.6116 19.4335 18.3327 23.0834 15.2844 24.2111L16.3252 27.0247ZM9.79485 28.1867C11.6072 28.2902 13.8045 27.9572 16.3252 27.0247L15.2844 24.2111C13.0663 25.0316 11.2847 25.2669 9.96592 25.1916L9.79485 28.1867ZM5.37092 26.5042C6.42607 27.5594 8.04623 28.0868 9.79485 28.1867L9.96592 25.1916C8.62533 25.115 7.83391 24.7246 7.49224 24.3829L5.37092 26.5042ZM3.68832 22.0802C3.78823 23.8289 4.31577 25.4491 5.37092 26.5042L7.49224 24.3829C7.15056 24.0412 6.76003 23.2497 6.68343 21.909L3.68832 22.0802ZM4.85029 15.5495C3.91781 18.0703 3.58476 20.2678 3.68832 22.0802L6.68343 21.909C6.60807 20.5902 6.84342 18.8085 7.66395 16.5903L4.85029 15.5495ZM16.712 11.6262C12.3549 8.51529 6.56699 10.9088 4.85029 15.5495L7.66395 16.5903C8.79156 13.5421 12.4414 12.2632 14.9687 14.0677L16.712 11.6262ZM10.4998 16C10.4998 15.7239 10.7236 15.5 10.9998 15.5V18.5C12.3805 18.5 13.4998 17.3807 13.4998 16H10.4998ZM10.9998 16.5C10.7236 16.5 10.4998 16.2761 10.4998 16H13.4998C13.4998 14.6193 12.3805 13.5 10.9998 13.5V16.5ZM11.4998 16C11.4998 16.2761 11.2759 16.5 10.9998 16.5V13.5C9.61904 13.5 8.49976 14.6193 8.49976 16H11.4998ZM10.9998 15.5C11.2759 15.5 11.4998 15.7239 11.4998 16H8.49976C8.49976 17.3807 9.61904 18.5 10.9998 18.5V15.5ZM9.99976 24.5C11.3805 24.5 12.4998 23.3807 12.4998 22H9.49976C9.49976 21.7239 9.72361 21.5 9.99976 21.5L9.99976 24.5ZM7.49976 22C7.49976 23.3807 8.61904 24.5 9.99976 24.5L9.99976 21.5C10.2759 21.5 10.4998 21.7239 10.4998 22H7.49976ZM9.99976 19.5C8.61904 19.5 7.49976 20.6193 7.49976 22H10.4998C10.4998 22.2761 10.2759 22.5 9.99976 22.5L9.99976 19.5ZM12.4998 22C12.4998 20.6193 11.3805 19.5 9.99976 19.5L9.99976 22.5C9.72361 22.5 9.49976 22.2761 9.49976 22H12.4998ZM15.4998 20C15.4998 19.7239 15.7236 19.5 15.9998 19.5V22.5C17.3805 22.5 18.4998 21.3807 18.4998 20H15.4998ZM15.9998 20.5C15.7236 20.5 15.4998 20.2761 15.4998 20H18.4998C18.4998 18.6193 17.3805 17.5 15.9998 17.5V20.5ZM16.4998 20C16.4998 20.2761 16.2759 20.5 15.9998 20.5V17.5C14.619 17.5 13.4998 18.6193 13.4998 20H16.4998ZM15.9998 19.5C16.2759 19.5 16.4998 19.7239 16.4998 20H13.4998C13.4998 21.3807 14.619 22.5 15.9998 22.5V19.5Z" fill="white"/>
<path fill-rule="evenodd" clip-rule="evenodd" d="M19.1753 6.04556C18.9505 5.93441 18.6851 5.94296 18.4679 6.06835L18.0707 6.29766C16.1094 7.43001 15.8946 9.71444 16.5813 11.5473C16.7266 11.9352 17.1588 12.1318 17.5467 11.9865C17.9346 11.8412 18.1313 11.409 17.9859 11.0211C17.4412 9.56696 17.7422 8.21938 18.8207 7.59669L18.8484 7.58072C19.0834 7.73303 19.253 7.89346 19.3687 8.05938C19.5245 8.28272 19.6147 8.56049 19.5897 8.94855C19.563 9.3619 19.8765 9.7186 20.2899 9.74526C20.7032 9.77192 21.0599 9.45844 21.0866 9.04509C21.1318 8.34373 20.9637 7.72396 20.5989 7.20114C20.2436 6.69177 19.7356 6.32261 19.1753 6.04556ZM26.2485 14.7476C26.2977 14.9935 26.2207 15.2477 26.0434 15.425L25.7191 15.7493C24.1177 17.3507 21.8555 16.967 20.2628 15.8293C19.9258 15.5886 19.8477 15.1201 20.0885 14.7831C20.3292 14.446 20.7976 14.368 21.1347 14.6087C22.3983 15.5113 23.7778 15.5693 24.6584 14.6887L24.681 14.6661C24.5947 14.3996 24.4837 14.1943 24.3534 14.0396C24.1779 13.8313 23.933 13.6723 23.5517 13.596C23.1455 13.5148 22.8821 13.1197 22.9633 12.7135C23.0446 12.3073 23.4397 12.0439 23.8458 12.1251C24.535 12.263 25.0901 12.5858 25.5007 13.0734C25.9008 13.5485 26.1259 14.1347 26.2485 14.7476ZM20.603 12.8225C21.5993 11.947 22.8952 11.4901 24.2203 11.5472C24.6342 11.565 24.9841 11.244 25.0019 10.8302C25.0198 10.4164 24.6988 10.0664 24.2849 10.0486C22.5734 9.97481 20.8996 10.5649 19.6128 11.6958L18.6833 12.5127C18.3722 12.7861 18.3416 13.26 18.615 13.5711C18.8885 13.8823 19.3624 13.9128 19.6735 13.6394L20.603 12.8225ZM17.8071 16.9061C17.0096 15.7892 16.0856 14.8652 14.9687 14.0677C12.4358 12.2592 8.78901 13.549 7.66395 16.5904C6.84343 18.8084 6.60807 20.5901 6.68343 21.909C6.75999 23.2489 7.15015 24.0408 7.49224 24.3829C7.83431 24.725 8.62615 25.1151 9.96592 25.1916C11.2847 25.2669 13.0663 25.0315 15.2844 24.2111C18.3258 23.086 19.6157 19.4391 17.8071 16.9061ZM15.8403 12.847C17.0921 13.7407 18.1341 14.7827 19.0278 16.0344C21.4856 19.4767 19.6494 24.1957 15.8048 25.6179C13.4354 26.4944 11.4459 26.7786 9.88038 26.6892C8.33578 26.6009 7.12999 26.142 6.43158 25.4436C5.73317 24.7451 5.27413 23.5393 5.18587 21.9946C5.09641 20.429 5.38061 18.4394 6.25712 16.0699C7.67927 12.2254 12.3981 10.3893 15.8403 12.847ZM10.9998 17C11.552 17 11.9998 16.5523 11.9998 16C11.9998 15.4477 11.552 15 10.9998 15C10.4475 15 9.99976 15.4477 9.99976 16C9.99976 16.5523 10.4475 17 10.9998 17ZM10.9998 22C10.9998 22.5523 10.552 23 9.99976 23C9.44747 23 8.99976 22.5523 8.99976 22C8.99976 21.4477 9.44747 21 9.99976 21C10.552 21 10.9998 21.4477 10.9998 22ZM15.9998 21C16.552 21 16.9998 20.5523 16.9998 20C16.9998 19.4477 16.552 19 15.9998 19C15.4475 19 14.9998 19.4477 14.9998 20C14.9998 20.5523 15.4475 21 15.9998 21Z" fill="#151E28"/>
</svg>
