<svg viewBox="0 0 32 32" fill="none" xmlns="http://www.w3.org/2000/svg">
<path d="M21 7H11C10.0707 7 9.60604 7 9.21964 7.07686C7.63288 7.39249 6.39248 8.63288 6.07686 10.2196C6 10.606 6 11.0707 6 12V20C6 20.9293 6 21.394 6.07686 21.7804C6.39248 23.3671 7.63288 24.6075 9.21964 24.9231C9.60604 25 10.0707 25 11 25H21C21.9293 25 22.394 25 22.7804 24.9231C24.3671 24.6075 25.6075 23.3671 25.9231 21.7804C26 21.394 26 20.9293 26 20V12C26 11.0707 26 10.606 25.9231 10.2196C25.6075 8.63288 24.3671 7.39249 22.7804 7.07686C22.394 7 21.9293 7 21 7Z" fill="white"/>
<path d="M21.0953 6.24999L21.0955 7.74999L21.0955 7.74999L21.0953 6.24999ZM10.9047 6.24999L10.9045 7.74999L10.9045 7.74999L10.9047 6.24999ZM9.07332 6.34127L8.78069 4.87009L8.78068 4.87009L9.07332 6.34127ZM5.34127 10.0733L6.81245 10.366L6.81245 10.366L5.34127 10.0733ZM5.24999 11.9047L6.74999 11.9045L6.74999 11.9045L5.24999 11.9047ZM5.24999 20.0953L6.74999 20.0955L6.74999 20.0955L5.24999 20.0953ZM5.34127 21.9267L6.81245 21.634L6.81245 21.634L5.34127 21.9267ZM9.07332 25.6587L9.36596 24.1876L9.36596 24.1876L9.07332 25.6587ZM10.9047 25.75L10.9045 24.25L10.9045 24.25L10.9047 25.75ZM21.0953 25.75L21.0955 24.25L21.0955 24.25L21.0953 25.75ZM22.9267 25.6587L22.634 24.1876L22.634 24.1876L22.9267 25.6587ZM26.6587 21.9267L28.1299 22.2193L28.1299 22.2193L26.6587 21.9267ZM26.75 20.0953L25.25 20.0955L25.25 20.0955L26.75 20.0953ZM26.75 11.9047L25.25 11.9045L25.25 11.9045L26.75 11.9047ZM26.6587 10.0733L28.1299 9.78069L26.6587 10.0733ZM22.9267 6.34127L23.2193 4.87009L22.9267 6.34127ZM22.634 7.81245L22.3414 9.28363L22.3414 9.28363L22.634 7.81245ZM25.1876 10.366L23.7164 10.6586L23.7164 10.6586L25.1876 10.366ZM25.1876 21.634L23.7164 21.3414L23.7164 21.3414L25.1876 21.634ZM22.634 24.1876L22.9267 25.6587L22.9267 25.6587L22.634 24.1876ZM9.36596 24.1876L9.65859 22.7164L9.65859 22.7164L9.36596 24.1876ZM6.81245 21.634L5.34127 21.9267L5.34127 21.9267L6.81245 21.634ZM6.81245 10.366L5.34127 10.0733L5.34127 10.0733L6.81245 10.366ZM9.36596 7.81245L9.65859 9.28363L9.65859 9.28363L9.36596 7.81245ZM21 7.75C21.0323 7.75 21.0642 7.75 21.0955 7.74999L21.095 4.74999C21.0637 4.75 21.0321 4.75 21 4.75V7.75ZM11 7.75L21 7.75V4.75L11 4.75V7.75ZM10.9045 7.74999C10.9358 7.75 10.9677 7.75 11 7.75V4.75C10.9679 4.75 10.9363 4.75 10.905 4.74999L10.9045 7.74999ZM9.36596 7.81245C9.64757 7.75643 10.009 7.74986 10.9045 7.74999L10.905 4.74999C10.1243 4.74987 9.41891 4.74314 8.78069 4.87009L9.36596 7.81245ZM6.81245 10.366C7.06889 9.07671 8.07671 8.06889 9.36596 7.81245L8.78068 4.87009C6.30137 5.36326 4.36326 7.30137 3.87009 9.78069L6.81245 10.366ZM6.74999 11.9045C6.74986 11.009 6.75643 10.6476 6.81245 10.366L3.87009 9.78068C3.74314 10.4189 3.74987 11.1243 3.74999 11.9049L6.74999 11.9045ZM6.75 12C6.75 11.9677 6.75 11.9359 6.74999 11.9045L3.74999 11.9049C3.75 11.9362 3.75 11.9679 3.75 12H6.75ZM6.75 20L6.75 12H3.75L3.75 20H6.75ZM6.74999 20.0955C6.75 20.0641 6.75 20.0323 6.75 20H3.75C3.75 20.0321 3.75 20.0638 3.74999 20.0951L6.74999 20.0955ZM6.81245 21.634C6.75643 21.3524 6.74986 20.991 6.74999 20.0955L3.74999 20.0951C3.74987 20.8757 3.74314 21.5811 3.87009 22.2193L6.81245 21.634ZM9.36596 24.1876C8.07671 23.9311 7.06889 22.9233 6.81245 21.634L3.87009 22.2193C4.36326 24.6986 6.30137 26.6367 8.78069 27.1299L9.36596 24.1876ZM10.9045 24.25C10.009 24.2501 9.64757 24.2436 9.36596 24.1876L8.78068 27.1299C9.4189 27.2569 10.1243 27.2501 10.9049 27.25L10.9045 24.25ZM11 24.25C10.9677 24.25 10.9359 24.25 10.9045 24.25L10.9049 27.25C10.9362 27.25 10.9679 27.25 11 27.25L11 24.25ZM21 24.25H11L11 27.25H21V24.25ZM21.0955 24.25C21.0641 24.25 21.0323 24.25 21 24.25V27.25C21.0321 27.25 21.0638 27.25 21.0951 27.25L21.0955 24.25ZM22.634 24.1876C22.3524 24.2436 21.991 24.2501 21.0955 24.25L21.0951 27.25C21.8757 27.2501 22.5811 27.2569 23.2193 27.1299L22.634 24.1876ZM25.1876 21.634C24.9311 22.9233 23.9233 23.9311 22.634 24.1876L23.2193 27.1299C25.6986 26.6367 27.6367 24.6986 28.1299 22.2193L25.1876 21.634ZM25.25 20.0955C25.2501 20.991 25.2436 21.3524 25.1876 21.634L28.1299 22.2193C28.2569 21.5811 28.2501 20.8757 28.25 20.095L25.25 20.0955ZM25.25 20C25.25 20.0323 25.25 20.0642 25.25 20.0955L28.25 20.095C28.25 20.0637 28.25 20.0321 28.25 20H25.25ZM25.25 12V20H28.25V12L25.25 12ZM25.25 11.9045C25.25 11.9358 25.25 11.9677 25.25 12L28.25 12C28.25 11.9679 28.25 11.9363 28.25 11.905L25.25 11.9045ZM25.1876 10.366C25.2436 10.6476 25.2501 11.009 25.25 11.9045L28.25 11.905C28.2501 11.1243 28.2569 10.4189 28.1299 9.78069L25.1876 10.366ZM22.634 7.81245C23.9233 8.06889 24.9311 9.07671 25.1876 10.366L28.1299 9.78069C27.6367 7.30137 25.6986 5.36326 23.2193 4.87009L22.634 7.81245ZM21.0955 7.74999C21.991 7.74986 22.3524 7.75643 22.634 7.81245L23.2193 4.87009C22.5811 4.74314 21.8757 4.74987 21.095 4.74999L21.0955 7.74999ZM22.9267 6.34127C22.4487 6.24619 21.889 6.25 21 6.25V9.25C21.4899 9.25 21.7976 9.25108 22.0188 9.25836C22.2353 9.26548 22.3097 9.27732 22.3414 9.28363L22.9267 6.34127ZM26.6587 10.0733C26.2839 8.18904 24.811 6.71608 22.9267 6.34127L22.3414 9.28363C23.0356 9.42171 23.5783 9.96438 23.7164 10.6586L26.6587 10.0733ZM26.75 12C26.75 11.111 26.7538 10.5513 26.6587 10.0733L23.7164 10.6586C23.7227 10.6903 23.7345 10.7647 23.7416 10.9812C23.7489 11.2024 23.75 11.5101 23.75 12L26.75 12ZM26.75 20V12L23.75 12V20H26.75ZM26.6587 21.9267C26.7538 21.4487 26.75 20.889 26.75 20H23.75C23.75 20.4899 23.7489 20.7976 23.7416 21.0188C23.7345 21.2353 23.7227 21.3097 23.7164 21.3414L26.6587 21.9267ZM22.9267 25.6587C24.811 25.2839 26.2839 23.811 26.6587 21.9267L23.7164 21.3414C23.5783 22.0356 23.0356 22.5783 22.3414 22.7164L22.9267 25.6587ZM21 25.75C21.889 25.75 22.4487 25.7538 22.9267 25.6587L22.3414 22.7164C22.3097 22.7227 22.2353 22.7345 22.0188 22.7416C21.7976 22.7489 21.4899 22.75 21 22.75V25.75ZM11 25.75H21V22.75H11V25.75ZM9.07332 25.6587C9.55131 25.7538 10.111 25.75 11 25.75V22.75C10.5101 22.75 10.2024 22.7489 9.98125 22.7416C9.76472 22.7345 9.69031 22.7227 9.65859 22.7164L9.07332 25.6587ZM5.34127 21.9267C5.71608 23.811 7.18904 25.2839 9.07332 25.6587L9.65859 22.7164C8.96438 22.5783 8.42171 22.0356 8.28363 21.3414L5.34127 21.9267ZM5.25 20C5.25 20.889 5.24619 21.4487 5.34127 21.9267L8.28363 21.3414C8.27732 21.3097 8.26549 21.2353 8.25836 21.0188C8.25108 20.7976 8.25 20.4899 8.25 20H5.25ZM5.25 12L5.25 20H8.25L8.25 12H5.25ZM5.34127 10.0733C5.24619 10.5513 5.25 11.111 5.25 12H8.25C8.25 11.5101 8.25108 11.2024 8.25836 10.9812C8.26549 10.7647 8.27732 10.6903 8.28363 10.6586L5.34127 10.0733ZM9.07332 6.34127C7.18904 6.71608 5.71608 8.18904 5.34127 10.0733L8.28363 10.6586C8.42171 9.96438 8.96438 9.42171 9.65859 9.28363L9.07332 6.34127ZM11 6.25C10.111 6.25 9.55131 6.24619 9.07332 6.34127L9.65859 9.28363C9.69031 9.27732 9.76472 9.26548 9.98124 9.25836C10.2024 9.25108 10.5101 9.25 11 9.25V6.25ZM21 6.25L11 6.25V9.25L21 9.25V6.25Z" fill="white"/>
<path fill-rule="evenodd" clip-rule="evenodd" d="M21 6.25002L21.0953 6.25001C21.9334 6.24988 22.4668 6.24981 22.9267 6.34129C24.811 6.71609 26.2839 8.18906 26.6587 10.0733C26.7502 10.5332 26.7502 11.0667 26.75 11.9047V11.9047L26.75 12V20L26.75 20.0953V20.0953C26.7502 20.9334 26.7502 21.4668 26.6587 21.9267C26.2839 23.811 24.811 25.2839 22.9267 25.6587C22.4668 25.7502 21.9334 25.7502 21.0953 25.75L21 25.75H11L10.9047 25.75C10.0667 25.7502 9.53325 25.7502 9.07334 25.6587C7.18906 25.2839 5.71609 23.811 5.34129 21.9267C5.2498 21.4668 5.24988 20.9334 5.25001 20.0953L5.25002 20L5.25002 12L5.25001 11.9047C5.24988 11.0667 5.2498 10.5333 5.34129 10.0733C5.71609 8.18906 7.18906 6.71609 9.07334 6.34129C9.53325 6.24981 10.0667 6.24988 10.9047 6.25001L11 6.25002L21 6.25002ZM22.6341 7.81247C22.3384 7.75365 21.9653 7.75002 21 7.75002L11 7.75002C10.0348 7.75002 9.66166 7.75365 9.36597 7.81247C8.07673 8.06891 7.06891 9.07673 6.81247 10.366C6.75365 10.6617 6.75002 11.0348 6.75002 12V20C6.75002 20.9653 6.75365 21.3384 6.81247 21.6341C7.06891 22.9233 8.07673 23.9311 9.36597 24.1876C9.66166 24.2464 10.0348 24.25 11 24.25H21C21.9653 24.25 22.3384 24.2464 22.6341 24.1876C23.9233 23.9311 24.9311 22.9233 25.1876 21.6341C25.2464 21.3384 25.25 20.9653 25.25 20V12C25.25 11.0348 25.2464 10.6617 25.1876 10.366C24.9311 9.07673 23.9233 8.06891 22.6341 7.81247ZM10 16.25C9.5858 16.25 9.25002 16.5858 9.25002 17C9.25002 17.4142 9.5858 17.75 10 17.75H17C17.4142 17.75 17.75 17.4142 17.75 17C17.75 16.5858 17.4142 16.25 17 16.25H10ZM20 16.25C19.5858 16.25 19.25 16.5858 19.25 17C19.25 17.4142 19.5858 17.75 20 17.75H22C22.4142 17.75 22.75 17.4142 22.75 17C22.75 16.5858 22.4142 16.25 22 16.25H20ZM10 20.25C9.5858 20.25 9.25002 20.5858 9.25002 21C9.25002 21.4142 9.5858 21.75 10 21.75H12C12.4142 21.75 12.75 21.4142 12.75 21C12.75 20.5858 12.4142 20.25 12 20.25H10ZM15 20.25C14.5858 20.25 14.25 20.5858 14.25 21C14.25 21.4142 14.5858 21.75 15 21.75H22C22.4142 21.75 22.75 21.4142 22.75 21C22.75 20.5858 22.4142 20.25 22 20.25H15Z" fill="#151E28"/>
</svg>
