<svg viewBox="0 0 32 32" fill="none" xmlns="http://www.w3.org/2000/svg">
<path d="M17.5093 25H14.4907C12.9089 25 12.118 25 11.4983 24.6997C10.9528 24.4353 10.5001 24.0118 10.2 23.485C9.85911 22.8867 9.8065 22.0975 9.70129 20.5193L9 10L23 10L22.2987 20.5193C22.1935 22.0975 22.1409 22.8867 21.8 23.485C21.4999 24.0118 21.0472 24.4353 20.5017 24.6997C19.882 25 19.0911 25 17.5093 25Z" fill="white"/>
<path d="M14.5607 6.25L14.5605 7.75L14.5606 7.75L14.5607 6.25ZM14.5811 6.25L14.581 7.75H14.5811V6.25ZM14.2753 6.25503L14.366 7.75229L14.366 7.75229L14.2753 6.25503ZM11.89 7.97426L13.2817 8.53376L13.2817 8.53376L11.89 7.97426ZM11.795 8.2434L13.2047 8.75601C13.2093 8.74324 13.2138 8.73041 13.2181 8.71752L11.795 8.2434ZM11.795 8.24342L10.3853 7.73081C10.379 7.74806 10.373 7.76544 10.3674 7.78292L11.795 8.24342ZM11.7949 8.24344L13.218 8.71765C13.2195 8.71309 13.221 8.70852 13.2225 8.70395L11.7949 8.24344ZM11.7885 8.26283L13.2115 8.73718L13.2116 8.73704L11.7885 8.26283ZM11.7183 8.46625L13.11 9.02575L13.11 9.02575L11.7183 8.46625ZM10.634 9.24772L10.5434 7.75046L10.5434 7.75046L10.634 9.24772ZM10.4189 10.75L10.419 9.25H10.4189V10.75ZM10.4393 10.75L10.4391 12.25H10.4393V10.75ZM10.4393 10.75L10.4395 9.25001H10.4393V10.75ZM10.7247 10.745L10.634 9.24772L10.634 9.24772L10.7247 10.745ZM10.8485 10.7347L11.15 9.2653C10.9989 9.2343 10.8439 9.22679 10.6906 9.24302L10.8485 10.7347ZM21.1515 10.7347L21.3094 9.24302C21.1561 9.22678 21.0011 9.2343 20.85 9.2653L21.1515 10.7347ZM21.2753 10.745L21.366 9.24772L21.366 9.24772L21.2753 10.745ZM21.5607 10.75L21.5607 9.25001L21.5605 9.25001L21.5607 10.75ZM21.5607 10.75L21.5607 12.25L21.5609 12.25L21.5607 10.75ZM21.5811 10.75L21.5811 9.25L21.581 9.25L21.5811 10.75ZM21.366 9.24772L21.4566 7.75046L21.4566 7.75046L21.366 9.24772ZM20.2817 8.46625L18.89 9.02575L18.89 9.02575L20.2817 8.46625ZM20.2115 8.26283L18.7884 8.73701L18.7885 8.73717L20.2115 8.26283ZM20.2051 8.24344L18.782 8.71756L18.782 8.71762L20.2051 8.24344ZM20.11 7.97426L18.7183 8.53375L18.7183 8.53375L20.11 7.97426ZM17.7247 6.25503L17.634 7.75229L17.634 7.75229L17.7247 6.25503ZM17.4393 6.25L17.4394 7.75L17.4395 7.75L17.4393 6.25ZM17.4189 6.25L17.4189 7.75L17.419 7.75L17.4189 6.25ZM18.89 9.02575L20.2817 8.46626L20.2817 8.46625L18.89 9.02575ZM18.992 9.25V10.75C19.514 10.75 19.9984 10.4786 20.2711 10.0335C20.5437 9.58839 20.5654 9.03353 20.3282 8.56852L18.992 9.25ZM18.7949 8.75657L20.218 8.28244L20.218 8.28239L18.7949 8.75657ZM18.7885 8.73717L20.2116 8.263L20.2115 8.26284L18.7885 8.73717ZM18.7183 8.53376L20.11 7.97426L20.11 7.97425L18.7183 8.53376ZM17.634 7.75229L17.5434 9.24955L17.5434 9.24955L17.634 7.75229ZM14.366 7.75229L14.4566 9.24955L14.4566 9.24955L14.366 7.75229ZM13.2817 8.53376L11.89 7.97426L11.89 7.97426L13.2817 8.53376ZM13.2115 8.73717L11.7885 8.26283L11.7884 8.26297L13.2115 8.73717ZM13.2051 8.75657L14.6117 9.27754C14.6174 9.26204 14.6229 9.24645 14.6281 9.23077L13.2051 8.75657ZM13.205 8.75659L11.7984 8.23561C11.7906 8.25672 11.7833 8.27799 11.7764 8.29942L13.205 8.75659ZM13.205 8.7566L14.6281 9.23073C14.63 9.22508 14.6319 9.21943 14.6337 9.21377L13.205 8.7566ZM13.11 9.02575L14.5018 9.58525L14.5018 9.58525L13.11 9.02575ZM13.008 9.25L11.6718 8.56852C11.4346 9.03353 11.4563 9.58839 11.7289 10.0335C12.0016 10.4786 12.486 10.75 13.008 10.75V9.25ZM9.91501 12.4501L8.41833 12.5499L9.91501 12.4501ZM8.41833 12.5499L9.91501 12.4501L9.91501 12.4501L8.41833 12.5499ZM8.95295 20.5692L10.4496 20.4694L10.4496 20.4694L8.95295 20.5692ZM8.955 20.6L10.4517 20.5002L10.4517 20.5002L8.955 20.6ZM9.12022 22.4786L10.6043 22.2607L10.6043 22.2607L9.12022 22.4786ZM9.54831 23.8563L8.24497 24.5988L8.24498 24.5988L9.54831 23.8563ZM11.1713 25.3746L10.5171 26.7245L10.5171 26.7245L11.1713 25.3746ZM12.5744 25.7101L12.6931 24.2148L12.6931 24.2148L12.5744 25.7101ZM14.4598 25.75L14.4598 24.25L14.4597 24.25L14.4598 25.75ZM17.5402 25.75L17.5403 24.25H17.5402V25.75ZM19.4256 25.7101L19.3069 24.2148L19.3069 24.2148L19.4256 25.7101ZM20.8287 25.3746L21.4829 26.7245L21.4829 26.7245L20.8287 25.3746ZM22.4517 23.8563L23.755 24.5988L23.755 24.5988L22.4517 23.8563ZM22.8798 22.4786L21.3957 22.2607L21.3957 22.2607L22.8798 22.4786ZM23.045 20.6L21.5483 20.5001L21.5483 20.5002L23.045 20.6ZM23.0471 20.5692L24.5437 20.669L24.5437 20.669L23.0471 20.5692ZM23.5817 12.5499L25.0784 12.6497L25.0784 12.6497L23.5817 12.5499ZM22.8832 11.7517L22.983 10.255L22.983 10.255L22.8832 11.7517ZM22.085 12.4501L23.5817 12.5499L23.5817 12.5499L22.085 12.4501ZM21.5504 20.4694L23.0471 20.5692L23.0471 20.5692L21.5504 20.4694ZM21.3957 22.2607L19.9116 22.0428L19.9116 22.0428L21.3957 22.2607ZM21.1483 23.1138L22.4517 23.8563L22.4517 23.8563L21.1483 23.1138ZM20.1746 24.0248L19.5204 22.6749L19.5204 22.6749L20.1746 24.0248ZM19.3069 24.2148L19.4256 25.7101L19.4256 25.7101L19.3069 24.2148ZM12.6931 24.2148L12.5744 25.7101L12.5744 25.7101L12.6931 24.2148ZM11.8254 24.0248L12.4796 22.6749L12.4796 22.6749L11.8254 24.0248ZM10.8517 23.1138L9.54831 23.8563L9.54832 23.8563L10.8517 23.1138ZM10.6043 22.2607L12.0884 22.0428L12.0884 22.0428L10.6043 22.2607ZM10.4496 20.4694L8.95295 20.5692L8.95295 20.5692L10.4496 20.4694ZM14.5606 7.75L14.581 7.75L14.5813 4.75L14.5609 4.75L14.5606 7.75ZM14.366 7.75229C14.3951 7.75053 14.4346 7.74998 14.5605 7.75L14.561 4.75C14.4599 4.74999 14.3227 4.74942 14.1846 4.75778L14.366 7.75229ZM13.2817 8.53376C13.4618 8.08571 13.8839 7.78148 14.366 7.75229L14.1846 4.75778C12.5457 4.85703 11.1106 5.89139 10.4982 7.41476L13.2817 8.53376ZM13.2181 8.71752C13.2579 8.59808 13.2709 8.5608 13.2817 8.53376L10.4982 7.41476C10.4466 7.54307 10.4038 7.67339 10.3719 7.76928L13.2181 8.71752ZM13.2046 8.75603L13.2047 8.75601L10.3853 7.73078L10.3853 7.73081L13.2046 8.75603ZM13.2225 8.70395L13.2225 8.70392L10.3674 7.78292L10.3674 7.78294L13.2225 8.70395ZM13.2116 8.73704L13.218 8.71765L10.3719 7.76924L10.3654 7.78863L13.2116 8.73704ZM13.11 9.02575C13.1433 8.94287 13.1734 8.85149 13.2115 8.73718L10.3655 7.78849C10.3423 7.85783 10.3303 7.8938 10.3228 7.91537C10.3161 7.93494 10.3191 7.92517 10.3265 7.90676L13.11 9.02575ZM10.7247 10.745C11.7852 10.6808 12.7138 10.0115 13.11 9.02575L10.3265 7.90675C10.3625 7.81714 10.447 7.7563 10.5434 7.75046L10.7247 10.745ZM10.4189 10.75C10.5394 10.75 10.6356 10.7504 10.7247 10.745L10.5434 7.75046C10.5632 7.74926 10.5734 7.74946 10.5527 7.74967C10.5299 7.74991 10.492 7.75 10.4189 7.75V10.75ZM9 10.75L10.4189 10.75V7.75H9V10.75ZM7 10.75H9V7.75H7L7 10.75ZM7.75 10C7.75 10.4142 7.41421 10.75 7 10.75L7 7.75C5.75736 7.75 4.75 8.75736 4.75 10H7.75ZM7 9.25C7.41421 9.25 7.75 9.58579 7.75 10H4.75C4.75 11.2426 5.75736 12.25 7 12.25L7 9.25ZM9 9.25H7L7 12.25H9V9.25ZM10.4189 9.25H9V12.25L10.4189 12.25V9.25ZM10.4394 9.25001L10.419 9.25L10.4187 12.25L10.4391 12.25L10.4394 9.25001ZM10.4393 9.25001H10.4393V12.25H10.4393V9.25001ZM10.634 9.24772C10.6049 9.24948 10.5655 9.25002 10.4395 9.25001L10.4391 12.25C10.5402 12.25 10.6773 12.2506 10.8154 12.2422L10.634 9.24772ZM10.6906 9.24302C10.6719 9.245 10.653 9.24657 10.634 9.24772L10.8154 12.2422C10.8793 12.2384 10.943 12.2331 11.0063 12.2264L10.6906 9.24302ZM11 9.25C11.0499 9.25 11.1003 9.2551 11.15 9.2653L10.5469 12.2041C10.6945 12.2344 10.8462 12.25 11 12.25V9.25ZM21 9.25L11 9.25V12.25H21V9.25ZM20.85 9.2653C20.8997 9.25511 20.95 9.25 21 9.25V12.25C21.1538 12.25 21.3055 12.2344 21.453 12.2041L20.85 9.2653ZM21.366 9.24772C21.347 9.24657 21.3281 9.245 21.3094 9.24302L20.9937 12.2264C21.057 12.2331 21.1207 12.2384 21.1846 12.2422L21.366 9.24772ZM21.5605 9.25001C21.4345 9.25002 21.3951 9.24948 21.366 9.24772L21.1846 12.2422C21.3227 12.2506 21.4598 12.25 21.5609 12.25L21.5605 9.25001ZM21.5607 9.25001H21.5607V12.25H21.5607V9.25001ZM21.581 9.25L21.5606 9.25001L21.5609 12.25L21.5813 12.25L21.581 9.25ZM23 9.25H21.5811V12.25H23V9.25ZM25 9.25H23V12.25H25V9.25ZM24.25 10C24.25 9.58579 24.5858 9.25 25 9.25V12.25C26.2426 12.25 27.25 11.2426 27.25 10H24.25ZM25 10.75C24.5858 10.75 24.25 10.4142 24.25 10H27.25C27.25 8.75736 26.2426 7.75 25 7.75V10.75ZM23 10.75H25V7.75H23V10.75ZM21.5811 10.75H23V7.75H21.5811V10.75ZM21.2753 10.745C21.3644 10.7504 21.4606 10.75 21.5811 10.75V7.75C21.508 7.75 21.4701 7.74991 21.4473 7.74967C21.4266 7.74946 21.4368 7.74926 21.4566 7.75046L21.2753 10.745ZM18.89 9.02575C19.2862 10.0115 20.2148 10.6808 21.2753 10.745L21.4566 7.75046C21.553 7.7563 21.6375 7.81714 21.6735 7.90675L18.89 9.02575ZM18.7885 8.73717C18.8266 8.85149 18.8567 8.94287 18.89 9.02575L21.6735 7.90676C21.6809 7.92516 21.6839 7.93494 21.6772 7.91536C21.6697 7.8938 21.6577 7.85784 21.6345 7.78849L18.7885 8.73717ZM18.782 8.71762L18.7884 8.73701L21.6346 7.78866L21.6281 7.76927L18.782 8.71762ZM18.7183 8.53375C18.7291 8.56081 18.7422 8.59811 18.782 8.71756L21.6281 7.76932C21.5962 7.67342 21.5534 7.54308 21.5018 7.41476L18.7183 8.53375ZM17.634 7.75229C18.1161 7.78148 18.5382 8.08571 18.7183 8.53375L21.5018 7.41476C20.8894 5.89139 19.4543 4.85703 17.8154 4.75778L17.634 7.75229ZM17.4395 7.75C17.5654 7.74998 17.6049 7.75053 17.634 7.75229L17.8154 4.75778C17.6773 4.74942 17.5401 4.74999 17.439 4.75L17.4395 7.75ZM17.419 7.75L17.4394 7.75L17.4391 4.75L17.4187 4.75L17.419 7.75ZM14.5811 7.75L17.4189 7.75V4.75L14.5811 4.75V7.75ZM17.4982 9.58525C17.5458 9.70356 17.5984 9.81906 17.6557 9.93149L20.3282 8.56852C20.3114 8.53546 20.2958 8.50136 20.2817 8.46626L17.4982 9.58525ZM17.3719 9.23069C17.4038 9.32659 17.4466 9.45692 17.4982 9.58525L20.2817 8.46625C20.2709 8.4392 20.2578 8.4019 20.218 8.28244L17.3719 9.23069ZM17.3654 9.21135L17.3719 9.23074L20.218 8.28239L20.2116 8.263L17.3654 9.21135ZM17.3265 9.09325C17.3191 9.07485 17.3161 9.06507 17.3228 9.08465C17.3303 9.10621 17.3423 9.14217 17.3655 9.21151L20.2115 8.26284C20.1734 8.14851 20.1433 8.05714 20.11 7.97426L17.3265 9.09325ZM17.5434 9.24955C17.447 9.24371 17.3625 9.18286 17.3265 9.09326L20.11 7.97425C19.7138 6.98855 18.7852 6.31926 17.7247 6.25503L17.5434 9.24955ZM17.4189 9.25C17.492 9.25 17.5299 9.2501 17.5527 9.25034C17.5734 9.25055 17.5632 9.25075 17.5434 9.24955L17.7247 6.25503C17.6356 6.24963 17.5394 6.25 17.4189 6.25V9.25ZM14.5811 9.25H17.4189V6.25H14.5811V9.25ZM14.4566 9.24955C14.4368 9.25075 14.4266 9.25055 14.4473 9.25034C14.4701 9.2501 14.508 9.25 14.5811 9.25V6.25C14.4606 6.25 14.3644 6.24963 14.2753 6.25503L14.4566 9.24955ZM14.6735 9.09325C14.6375 9.18286 14.553 9.24371 14.4566 9.24955L14.2753 6.25503C13.2148 6.31926 12.2862 6.98855 11.89 7.97426L14.6735 9.09325ZM14.6345 9.21152C14.6577 9.14217 14.6697 9.10621 14.6772 9.08464C14.6839 9.06506 14.6809 9.07484 14.6735 9.09325L11.89 7.97426C11.8567 8.05714 11.8266 8.14852 11.7885 8.26283L14.6345 9.21152ZM14.6281 9.23077L14.6346 9.21138L11.7884 8.26297L11.782 8.28236L14.6281 9.23077ZM14.6117 9.27756L14.6117 9.27754L11.7984 8.23559L11.7984 8.23561L14.6117 9.27756ZM14.6337 9.21377L14.6337 9.21375L11.7764 8.29942L11.7764 8.29944L14.6337 9.21377ZM14.5018 9.58525C14.5534 9.45693 14.5962 9.32661 14.6281 9.23073L11.7819 8.28248C11.7421 8.40192 11.7291 8.43921 11.7183 8.46626L14.5018 9.58525ZM14.3443 9.93149C14.4016 9.81906 14.4542 9.70357 14.5018 9.58525L11.7183 8.46625C11.7042 8.50136 11.6886 8.53546 11.6718 8.56852L14.3443 9.93149ZM18.992 7.75L13.008 7.75V10.75H18.992V7.75ZM9.21656 13.2483C8.80326 13.2759 8.44588 12.9632 8.41833 12.5499L11.4117 12.3503C11.329 11.1104 10.2569 10.1723 9.017 10.255L9.21656 13.2483ZM9.91501 12.4501C9.94256 12.8634 9.62985 13.2208 9.21656 13.2483L9.017 10.255C7.77711 10.3376 6.83899 11.4098 6.92165 12.6497L9.91501 12.4501ZM10.4496 20.4694L9.91501 12.4501L6.92165 12.6497L7.45627 20.669L10.4496 20.4694ZM10.4517 20.5002L10.4496 20.4694L7.45627 20.669L7.45832 20.6998L10.4517 20.5002ZM10.6043 22.2607C10.5416 21.8338 10.504 21.2851 10.4517 20.5002L7.45832 20.6998C7.50772 21.4409 7.55229 22.1255 7.63613 22.6965L10.6043 22.2607ZM10.8517 23.1138C10.7461 22.9285 10.6665 22.6844 10.6043 22.2607L7.63613 22.6965C7.72505 23.3021 7.87976 23.9577 8.24497 24.5988L10.8517 23.1138ZM11.8254 24.0248C11.4162 23.8265 11.0767 23.5088 10.8517 23.1138L8.24498 24.5988C8.77016 25.5206 9.56233 26.2618 10.5171 26.7245L11.8254 24.0248ZM12.6931 24.2148C12.2661 24.1809 12.0173 24.1178 11.8254 24.0248L10.5171 26.7245C11.1811 27.0462 11.8455 27.157 12.4557 27.2054L12.6931 24.2148ZM14.4597 24.25C13.6732 24.25 13.1232 24.249 12.6931 24.2148L12.4557 27.2054C13.031 27.2511 13.717 27.25 14.4598 27.25L14.4597 24.25ZM14.4907 24.25H14.4598V27.25H14.4907V24.25ZM17.5093 24.25H14.4907V27.25H17.5093V24.25ZM17.5402 24.25H17.5093V27.25H17.5402V24.25ZM19.3069 24.2148C18.8768 24.249 18.3268 24.25 17.5403 24.25L17.5402 27.25C18.283 27.25 18.969 27.2511 19.5443 27.2054L19.3069 24.2148ZM20.1746 24.0248C19.9827 24.1178 19.7339 24.1809 19.3069 24.2148L19.5443 27.2054C20.1545 27.157 20.8189 27.0462 21.4829 26.7245L20.1746 24.0248ZM21.1483 23.1138C20.9233 23.5088 20.5838 23.8265 20.1746 24.0248L21.4829 26.7245C22.4377 26.2618 23.2298 25.5206 23.755 24.5988L21.1483 23.1138ZM21.3957 22.2607C21.3335 22.6844 21.2539 22.9285 21.1483 23.1138L23.755 24.5988C24.1202 23.9577 24.2749 23.3021 24.3639 22.6965L21.3957 22.2607ZM21.5483 20.5002C21.496 21.2851 21.4584 21.8338 21.3957 22.2607L24.3639 22.6965C24.4477 22.1255 24.4923 21.4409 24.5417 20.6997L21.5483 20.5002ZM21.5504 20.4693L21.5483 20.5001L24.5417 20.6998L24.5437 20.669L21.5504 20.4693ZM22.085 12.4501L21.5504 20.4694L24.5437 20.669L25.0784 12.6497L22.085 12.4501ZM22.7834 13.2483C22.3701 13.2208 22.0574 12.8634 22.085 12.4501L25.0784 12.6497C25.161 11.4098 24.2229 10.3376 22.983 10.255L22.7834 13.2483ZM23.5817 12.5499C23.5541 12.9632 23.1967 13.2759 22.7834 13.2483L22.983 10.255C21.7431 10.1723 20.671 11.1104 20.5883 12.3503L23.5817 12.5499ZM23.0471 20.5692L23.5817 12.5499L20.5883 12.3503L20.0537 20.3696L23.0471 20.5692ZM22.8798 22.4786C22.954 21.9728 22.9953 21.3459 23.0471 20.5692L20.0537 20.3696C19.9987 21.195 19.9645 21.6823 19.9116 22.0428L22.8798 22.4786ZM22.4517 23.8563C22.6872 23.4428 22.8043 22.9928 22.8798 22.4786L19.9116 22.0428C19.8626 22.3766 19.8204 22.4144 19.845 22.3713L22.4517 23.8563ZM20.8287 25.3746C21.5107 25.0441 22.0766 24.5147 22.4517 23.8563L19.845 22.3713C19.77 22.503 19.6568 22.6088 19.5204 22.6749L20.8287 25.3746ZM19.4256 25.7101C19.9438 25.669 20.4006 25.5821 20.8287 25.3746L19.5204 22.6749C19.5651 22.6533 19.5245 22.6928 19.1882 22.7195L19.4256 25.7101ZM17.5093 25.75C18.2878 25.75 18.9161 25.7506 19.4256 25.7101L19.1882 22.7195C18.8251 22.7483 18.3366 22.75 17.5093 22.75V25.75ZM14.4907 25.75H17.5093V22.75H14.4907V25.75ZM12.5744 25.7101C13.0839 25.7506 13.7122 25.75 14.4907 25.75V22.75C13.6634 22.75 13.1749 22.7483 12.8118 22.7195L12.5744 25.7101ZM11.1713 25.3746C11.5994 25.5821 12.0562 25.669 12.5744 25.7101L12.8118 22.7195C12.4755 22.6928 12.4349 22.6533 12.4796 22.6749L11.1713 25.3746ZM9.54832 23.8563C9.92345 24.5147 10.4893 25.0441 11.1713 25.3746L12.4796 22.6749C12.3432 22.6088 12.23 22.503 12.155 22.3713L9.54832 23.8563ZM9.12022 22.4786C9.19572 22.9928 9.31278 23.4428 9.54831 23.8563L12.155 22.3713C12.1796 22.4144 12.1374 22.3766 12.0884 22.0428L9.12022 22.4786ZM8.95295 20.5692C9.00473 21.3459 9.04596 21.9728 9.12022 22.4786L12.0884 22.0428C12.0355 21.6823 12.0013 21.195 11.9463 20.3696L8.95295 20.5692ZM8.41833 12.5499L8.95295 20.5692L11.9463 20.3696L11.4117 12.3503L8.41833 12.5499ZM16.25 15C16.25 13.7574 15.2426 12.75 14 12.75V15.75C13.5858 15.75 13.25 15.4142 13.25 15L16.25 15ZM16.25 20V15L13.25 15L13.25 20H16.25ZM14 22.25C15.2426 22.25 16.25 21.2426 16.25 20H13.25C13.25 19.5858 13.5858 19.25 14 19.25V22.25ZM11.75 20C11.75 21.2426 12.7574 22.25 14 22.25V19.25C14.4142 19.25 14.75 19.5858 14.75 20H11.75ZM11.75 15L11.75 20H14.75V15L11.75 15ZM14 12.75C12.7574 12.75 11.75 13.7574 11.75 15L14.75 15C14.75 15.4142 14.4142 15.75 14 15.75V12.75ZM18 15.75C17.5858 15.75 17.25 15.4142 17.25 15H20.25C20.25 13.7574 19.2426 12.75 18 12.75V15.75ZM18.75 15C18.75 15.4142 18.4142 15.75 18 15.75V12.75C16.7574 12.75 15.75 13.7574 15.75 15H18.75ZM18.75 20V15H15.75V20H18.75ZM18 19.25C18.4142 19.25 18.75 19.5858 18.75 20H15.75C15.75 21.2426 16.7574 22.25 18 22.25V19.25ZM17.25 20C17.25 19.5858 17.5858 19.25 18 19.25V22.25C19.2426 22.25 20.25 21.2426 20.25 20H17.25ZM17.25 15V20H20.25V15H17.25Z" fill="white"/>
<path fill-rule="evenodd" clip-rule="evenodd" d="M14.5811 6.25L14.5607 6.25C14.4472 6.24998 14.3589 6.24997 14.2753 6.25503C13.2148 6.31925 12.2862 6.98854 11.89 7.97425C11.8588 8.05193 11.8308 8.13573 11.795 8.24339L11.795 8.24342L11.7949 8.24344L11.7885 8.26283C11.7431 8.39885 11.7303 8.43626 11.7183 8.46625C11.5382 8.9143 11.1161 9.21852 10.634 9.24771C10.6018 9.24967 10.5622 9.25 10.4189 9.25H9H7C6.58579 9.25 6.25 9.58579 6.25 10C6.25 10.4142 6.58579 10.75 7 10.75H9H10.4189L10.4393 10.75H10.4393C10.5528 10.75 10.6411 10.75 10.7247 10.745C10.7662 10.7425 10.8074 10.739 10.8485 10.7347C10.8974 10.7447 10.9481 10.75 11 10.75L21 10.75C21.0519 10.75 21.1026 10.7447 21.1515 10.7347C21.1926 10.739 21.2338 10.7425 21.2753 10.745C21.3589 10.75 21.4472 10.75 21.5607 10.75H21.5607L21.5811 10.75H23H25C25.4142 10.75 25.75 10.4142 25.75 10C25.75 9.58579 25.4142 9.25 25 9.25H23H21.5811C21.4378 9.25 21.3982 9.24967 21.366 9.24771C20.8839 9.21852 20.4619 8.9143 20.2817 8.46625C20.2697 8.43626 20.2569 8.39885 20.2115 8.26283L20.2051 8.24344C20.1692 8.13576 20.1413 8.05194 20.11 7.97425C19.7138 6.98854 18.7852 6.31925 17.7247 6.25503C17.6411 6.24997 17.5528 6.24998 17.4393 6.25L17.4189 6.25H14.5811ZM18.992 9.25C18.9549 9.17726 18.9208 9.10246 18.89 9.02575C18.8587 8.94806 18.8308 8.86424 18.7949 8.75656L18.7885 8.73717C18.7431 8.60115 18.7303 8.56374 18.7183 8.53375C18.5381 8.0857 18.1161 7.78148 17.634 7.75229C17.6018 7.75033 17.5622 7.75 17.4189 7.75L14.5811 7.75C14.4378 7.75 14.3982 7.75033 14.366 7.75229C13.8839 7.78148 13.4618 8.0857 13.2817 8.53375C13.2697 8.56374 13.2569 8.60115 13.2115 8.73717L13.2051 8.75656L13.205 8.75658L13.205 8.7566C13.1692 8.86426 13.1412 8.94807 13.11 9.02575C13.0792 9.10246 13.0451 9.17726 13.008 9.25L18.992 9.25ZM9.91501 12.4501C9.88745 12.0368 9.53007 11.7241 9.11678 11.7517C8.70348 11.7792 8.39077 12.1366 8.41833 12.5499L8.95295 20.5692L8.955 20.6C9.00586 21.363 9.04696 21.9796 9.12022 22.4786C9.19579 22.9932 9.31292 23.4431 9.54831 23.8563C9.92345 24.5147 10.4893 25.0441 11.1713 25.3746C11.5992 25.582 12.0558 25.6689 12.5744 25.7101C13.0771 25.75 13.6951 25.75 14.4598 25.75H14.4907H17.5093H17.5402C18.3049 25.75 18.9229 25.75 19.4256 25.7101C19.9442 25.6689 20.4008 25.582 20.8287 25.3746C21.5107 25.0441 22.0766 24.5147 22.4517 23.8563C22.6871 23.4431 22.8042 22.9932 22.8798 22.4786C22.953 21.9796 22.9941 21.363 23.045 20.6L23.0471 20.5692L23.5817 12.5499C23.6092 12.1366 23.2965 11.7792 22.8832 11.7517C22.4699 11.7241 22.1125 12.0368 22.085 12.4501L21.5504 20.4694C21.497 21.2704 21.4593 21.8276 21.3957 22.2607C21.3334 22.6847 21.2538 22.9286 21.1483 23.1138C20.9233 23.5088 20.5838 23.8265 20.1746 24.0248C19.9828 24.1177 19.7342 24.1809 19.3069 24.2148C18.8706 24.2495 18.3122 24.25 17.5093 24.25H14.4907C13.6878 24.25 13.1294 24.2495 12.6931 24.2148C12.2658 24.1809 12.0172 24.1177 11.8254 24.0248C11.4162 23.8265 11.0767 23.5088 10.8517 23.1138C10.7462 22.9286 10.6666 22.6847 10.6043 22.2607C10.5407 21.8276 10.503 21.2704 10.4496 20.4694L9.91501 12.4501ZM14 14.25C14.4142 14.25 14.75 14.5858 14.75 15V20C14.75 20.4142 14.4142 20.75 14 20.75C13.5858 20.75 13.25 20.4142 13.25 20L13.25 15C13.25 14.5858 13.5858 14.25 14 14.25ZM18.75 15C18.75 14.5858 18.4142 14.25 18 14.25C17.5858 14.25 17.25 14.5858 17.25 15V20C17.25 20.4142 17.5858 20.75 18 20.75C18.4142 20.75 18.75 20.4142 18.75 20V15Z" fill="#151E28"/>
</svg>
