<svg xmlns="http://www.w3.org/2000/svg" viewBox="0 0 24 24">
  <defs/>
  <path fill="#151E28" d="M12,1.25 C17.937,1.25 22.75,6.063 22.75,12 C22.75,17.937 17.937,22.75 12,22.75 C6.063,22.75 1.25,17.937 1.25,12 C1.25,6.063 6.063,1.25 12,1.25 Z M2.75,12 C2.75,17.109 6.891,21.25 12,21.25 C17.109,21.25 21.25,17.109 21.25,12 C21.25,6.891 17.109,2.75 12,2.75 C6.891,2.75 2.75,6.891 2.75,12 Z M11.25,16 L11.25,9.811 L9.53,11.53 C9.237,11.823 8.763,11.823 8.47,11.53 C8.177,11.237 8.177,10.763 8.47,10.47 L11.47,7.47 C11.763,7.177 12.237,7.177 12.53,7.47 L15.53,10.47 C15.823,10.763 15.823,11.237 15.53,11.53 C15.237,11.823 14.763,11.823 14.47,11.53 L12.75,9.811 L12.75,16 C12.75,16.414 12.414,16.75 12,16.75 C11.586,16.75 11.25,16.414 11.25,16 Z"/>
</svg>

