<svg xmlns="http://www.w3.org/2000/svg" viewBox="0 0 24 24">
  <defs/>
  <path fill="#151E28" d="M12,1.25 C17.937,1.25 22.75,6.063 22.75,12 C22.75,17.937 17.937,22.75 12,22.75 C6.063,22.75 1.25,17.937 1.25,12 C1.25,6.063 6.063,1.25 12,1.25 Z M2.75,12 C2.75,17.109 6.891,21.25 12,21.25 C17.109,21.25 21.25,17.109 21.25,12 C21.25,6.891 17.109,2.75 12,2.75 C6.891,2.75 2.75,6.891 2.75,12 Z M13.204,7.607 L15.694,9.966 C16.843,11.054 16.073,12.987 14.491,12.987 L14.25,12.987 L14.25,15.5 C14.25,16.466 13.467,17.25 12.5,17.25 L11.5,17.25 C10.534,17.25 9.75,16.466 9.75,15.5 L9.75,12.987 L9.51,12.987 C7.928,12.987 7.158,11.054 8.306,9.966 L10.797,7.607 C11.472,6.968 12.529,6.968 13.204,7.607 Z M11.828,8.696 L9.338,11.055 C9.174,11.211 9.284,11.487 9.51,11.487 L10.5,11.487 C10.914,11.487 11.25,11.823 11.25,12.237 L11.25,15.5 C11.25,15.638 11.362,15.75 11.5,15.75 L12.5,15.75 C12.638,15.75 12.75,15.638 12.75,15.5 L12.75,12.237 C12.75,11.823 13.086,11.487 13.5,11.487 L14.491,11.487 C14.717,11.487 14.826,11.211 14.662,11.055 L12.172,8.696 C12.076,8.605 11.925,8.605 11.828,8.696 Z"/>
</svg>

