<svg xmlns="http://www.w3.org/2000/svg" viewBox="0 0 24 24">
  <defs/>
  <path fill="#151E28" d="M1.25,12 C1.25,6.063 6.063,1.25 12,1.25 C17.937,1.25 22.75,6.063 22.75,12 C22.75,17.937 17.937,22.75 12,22.75 C6.063,22.75 1.25,17.937 1.25,12 Z M12,2.75 C6.891,2.75 2.75,6.891 2.75,12 C2.75,17.109 6.891,21.25 12,21.25 C17.109,21.25 21.25,17.109 21.25,12 C21.25,6.891 17.109,2.75 12,2.75 Z M14.165,7.87 C14.34,7.495 14.787,7.333 15.162,7.508 C15.748,7.781 16.219,8.252 16.492,8.838 C16.64,9.155 16.698,9.486 16.724,9.838 C16.75,10.176 16.75,10.589 16.75,11.083 L16.75,12.83 C16.75,13.365 16.75,13.81 16.72,14.175 C16.689,14.554 16.622,14.911 16.45,15.248 C16.187,15.766 15.766,16.187 15.248,16.45 C14.911,16.622 14.554,16.689 14.175,16.72 C13.81,16.75 13.365,16.75 12.83,16.75 L11.083,16.75 C10.589,16.75 10.176,16.75 9.838,16.724 C9.486,16.698 9.155,16.64 8.838,16.492 C8.252,16.219 7.781,15.748 7.508,15.162 C7.333,14.787 7.495,14.34 7.87,14.165 C8.246,13.99 8.692,14.153 8.867,14.528 C8.991,14.795 9.205,15.009 9.472,15.133 C9.556,15.172 9.685,15.208 9.952,15.229 C10.226,15.25 10.582,15.25 11.111,15.25 L12.8,15.25 C13.372,15.25 13.757,15.249 14.052,15.225 C14.34,15.202 14.477,15.16 14.568,15.114 C14.803,14.994 14.994,14.803 15.114,14.568 C15.16,14.477 15.202,14.34 15.225,14.052 C15.249,13.757 15.25,13.372 15.25,12.8 L15.25,11.111 C15.25,10.582 15.25,10.226 15.229,9.952 C15.208,9.685 15.172,9.556 15.133,9.472 C15.009,9.205 14.795,8.991 14.528,8.867 C14.153,8.692 13.99,8.246 14.165,7.87 Z M9.6,12.75 C9.186,12.75 8.85,12.414 8.85,12 C8.85,11.586 9.186,11.25 9.6,11.25 L10.189,11.25 L7.47,8.53 C7.177,8.237 7.177,7.762 7.47,7.47 C7.763,7.177 8.237,7.177 8.53,7.47 L11.25,10.189 L11.25,9.6 C11.25,9.186 11.586,8.85 12,8.85 C12.414,8.85 12.75,9.186 12.75,9.6 L12.75,12 C12.75,12.414 12.414,12.75 12,12.75 Z"/>
</svg>

