<svg xmlns="http://www.w3.org/2000/svg" viewBox="0 0 24 24">
  <defs/>
  <path fill="#151E28" d="M1.25,12 C1.25,6.063 6.063,1.25 12,1.25 C17.937,1.25 22.75,6.063 22.75,12 C22.75,17.937 17.937,22.75 12,22.75 C6.063,22.75 1.25,17.937 1.25,12 Z M12,2.75 C6.891,2.75 2.75,6.891 2.75,12 C2.75,17.109 6.891,21.25 12,21.25 C17.109,21.25 21.25,17.109 21.25,12 C21.25,6.891 17.109,2.75 12,2.75 Z M9.928,7.865 C10.086,8.248 9.904,8.687 9.522,8.845 C9.215,8.972 8.972,9.215 8.845,9.522 C8.813,9.599 8.784,9.716 8.767,9.957 C8.75,10.204 8.75,10.524 8.75,11 L8.75,12.8 C8.75,13.372 8.751,13.757 8.775,14.052 C8.798,14.34 8.84,14.477 8.886,14.568 C9.006,14.803 9.197,14.994 9.433,15.114 C9.523,15.16 9.66,15.202 9.947,15.225 C10.243,15.249 10.628,15.25 11.2,15.25 L13,15.25 C13.476,15.25 13.796,15.25 14.043,15.233 C14.284,15.216 14.401,15.187 14.478,15.155 C14.785,15.028 15.028,14.785 15.155,14.478 C15.313,14.096 15.752,13.914 16.135,14.072 C16.517,14.231 16.699,14.67 16.541,15.052 C16.262,15.726 15.726,16.261 15.052,16.541 C14.762,16.661 14.462,16.708 14.145,16.729 C13.841,16.75 13.47,16.75 13.025,16.75 L11.17,16.75 C10.635,16.75 10.189,16.75 9.825,16.72 C9.445,16.689 9.089,16.622 8.752,16.45 C8.234,16.187 7.813,15.766 7.55,15.248 C7.378,14.911 7.311,14.554 7.28,14.175 C7.25,13.81 7.25,13.365 7.25,12.83 L7.25,10.975 C7.25,10.53 7.25,10.159 7.271,9.855 C7.292,9.538 7.339,9.238 7.459,8.948 C7.738,8.274 8.274,7.738 8.948,7.459 C9.33,7.301 9.769,7.483 9.928,7.865 Z M14.4,12.75 L12,12.75 C11.586,12.75 11.25,12.414 11.25,12 L11.25,9.6 C11.25,9.186 11.586,8.85 12,8.85 C12.414,8.85 12.75,9.186 12.75,9.6 L12.75,10.189 L15.47,7.47 C15.763,7.177 16.237,7.177 16.53,7.47 C16.823,7.762 16.823,8.237 16.53,8.53 L13.811,11.25 L14.4,11.25 C14.814,11.25 15.15,11.586 15.15,12 C15.15,12.414 14.814,12.75 14.4,12.75 Z"/>
</svg>

