<svg xmlns="http://www.w3.org/2000/svg" viewBox="0 0 24 24">
  <defs/>
  <path fill="#151E28" d="M10.785,7.13 C11.463,6.476 12.537,6.476 13.215,7.13 L16.739,10.53 C17.872,11.623 17.098,13.54 15.524,13.54 L14.55,13.54 L14.55,15 C14.55,15.967 13.767,16.75 12.8,16.75 L11.2,16.75 C10.234,16.75 9.45,15.967 9.45,15 L9.45,13.54 L8.477,13.54 C6.902,13.54 6.129,11.623 7.262,10.53 Z M12.174,8.21 C12.077,8.116 11.923,8.116 11.827,8.21 L8.303,11.61 C8.141,11.766 8.252,12.04 8.477,12.04 L10.2,12.04 C10.614,12.04 10.95,12.375 10.95,12.79 L10.95,15 C10.95,15.138 11.062,15.25 11.2,15.25 L12.8,15.25 C12.938,15.25 13.05,15.138 13.05,15 L13.05,12.79 C13.05,12.375 13.386,12.04 13.8,12.04 L15.524,12.04 C15.748,12.04 15.859,11.766 15.697,11.61 Z M9.45,18 C9.45,17.586 9.786,17.25 10.2,17.25 L13.8,17.25 C14.214,17.25 14.55,17.586 14.55,18 C14.55,18.414 14.214,18.75 13.8,18.75 L10.2,18.75 C9.786,18.75 9.45,18.414 9.45,18 Z"/>
</svg>

