<svg xmlns="http://www.w3.org/2000/svg" viewBox="0 0 24 24">
  <defs/>
  <path fill="#151E28" d="M9.253,2.25 L14.675,2.25 L14.747,2.25 C15.166,2.25 15.495,2.25 15.814,2.326 C16.094,2.393 16.362,2.504 16.608,2.655 C16.888,2.826 17.121,3.059 17.416,3.356 L17.468,3.407 L20.593,6.532 L20.644,6.584 C20.941,6.879 21.174,7.112 21.345,7.392 C21.496,7.638 21.607,7.906 21.674,8.186 C21.75,8.505 21.75,8.834 21.75,9.253 L21.75,14.747 C21.75,15.166 21.75,15.495 21.674,15.814 C21.607,16.094 21.496,16.362 21.345,16.608 C21.174,16.888 20.941,17.121 20.644,17.416 L17.468,20.593 L17.416,20.644 C17.121,20.941 16.888,21.174 16.608,21.345 C16.362,21.496 16.094,21.607 15.814,21.674 C15.495,21.75 15.166,21.75 14.747,21.75 L9.253,21.75 C8.834,21.75 8.505,21.75 8.186,21.674 C7.906,21.607 7.638,21.496 7.392,21.345 C7.112,21.174 6.879,20.941 6.584,20.644 L6.532,20.593 L3.407,17.468 L3.356,17.416 L3.356,17.416 C3.059,17.121 2.826,16.888 2.655,16.608 C2.504,16.362 2.393,16.094 2.326,15.814 C2.25,15.495 2.25,15.166 2.25,14.747 L2.25,14.675 L2.25,9.325 L2.25,9.253 C2.25,8.834 2.25,8.505 2.326,8.186 C2.393,7.906 2.504,7.638 2.655,7.392 C2.826,7.112 3.059,6.879 3.356,6.584 L3.407,6.532 L6.532,3.407 L6.584,3.356 C6.879,3.059 7.112,2.826 7.392,2.655 C7.638,2.504 7.906,2.393 8.186,2.326 C8.505,2.25 8.834,2.25 9.253,2.25 Z M9.325,3.75 C8.801,3.75 8.66,3.755 8.537,3.785 C8.409,3.815 8.287,3.866 8.175,3.934 C8.067,4.001 7.964,4.096 7.593,4.468 L4.468,7.593 C4.096,7.964 4.001,8.067 3.934,8.175 C3.866,8.287 3.815,8.409 3.785,8.537 C3.755,8.66 3.75,8.801 3.75,9.325 L3.75,14.675 C3.75,15.199 3.755,15.34 3.785,15.463 C3.815,15.591 3.866,15.713 3.934,15.825 C4.001,15.933 4.096,16.036 4.468,16.407 L7.593,19.532 C7.964,19.904 8.067,19.999 8.175,20.066 C8.287,20.134 8.409,20.185 8.537,20.215 C8.66,20.245 8.801,20.25 9.325,20.25 L14.675,20.25 C15.199,20.25 15.34,20.245 15.463,20.215 C15.591,20.185 15.713,20.134 15.825,20.066 C15.933,19.999 16.036,19.904 16.407,19.532 L19.532,16.407 C19.904,16.036 19.999,15.933 20.066,15.825 C20.134,15.713 20.185,15.591 20.215,15.463 C20.245,15.34 20.25,15.199 20.25,14.675 L20.25,9.325 C20.25,8.801 20.245,8.66 20.215,8.537 C20.185,8.409 20.134,8.287 20.066,8.175 C19.999,8.067 19.904,7.964 19.532,7.593 L16.407,4.468 C16.036,4.096 15.933,4.001 15.825,3.934 C15.713,3.866 15.591,3.815 15.463,3.785 C15.34,3.755 15.199,3.75 14.675,3.75 Z M13.889,16.75 C13.475,16.75 13.139,16.414 13.139,16 C13.139,15.586 13.475,15.25 13.889,15.25 C14,15.25 14.031,15.25 14.054,15.249 C14.702,15.22 15.22,14.702 15.249,14.054 C15.25,14.031 15.25,14 15.25,13.889 L15.25,11.2 C15.25,10.627 15.249,10.243 15.225,9.947 C15.202,9.66 15.16,9.523 15.114,9.432 C14.994,9.197 14.803,9.006 14.568,8.886 C14.477,8.84 14.34,8.798 14.052,8.775 C13.757,8.751 13.372,8.75 12.8,8.75 L10.111,8.75 C10,8.75 9.969,8.75 9.945,8.751 C9.298,8.779 8.779,9.298 8.751,9.945 C8.75,9.969 8.75,10 8.75,10.111 C8.75,10.525 8.414,10.861 8,10.861 C7.586,10.861 7.25,10.525 7.25,10.111 L7.25,10.094 C7.25,10.007 7.25,9.94 7.253,9.88 C7.315,8.455 8.456,7.315 9.88,7.253 C9.94,7.25 10.007,7.25 10.094,7.25 L12.831,7.25 C13.365,7.25 13.811,7.25 14.175,7.28 C14.555,7.311 14.911,7.378 15.248,7.55 C15.766,7.813 16.187,8.234 16.45,8.751 C16.622,9.089 16.689,9.445 16.72,9.825 C16.75,10.189 16.75,10.635 16.75,11.17 L16.75,13.905 C16.75,13.992 16.75,14.059 16.747,14.12 C16.685,15.544 15.545,16.685 14.12,16.747 C14.062,16.75 13.997,16.75 13.914,16.75 L13.889,16.75 Z M10.4,16.75 L8,16.75 C7.586,16.75 7.25,16.414 7.25,16 L7.25,13.6 C7.25,13.186 7.586,12.85 8,12.85 C8.414,12.85 8.75,13.186 8.75,13.6 L8.75,14.189 L11.47,11.47 C11.763,11.177 12.237,11.177 12.53,11.47 C12.823,11.762 12.823,12.237 12.53,12.53 L9.811,15.25 L10.4,15.25 C10.814,15.25 11.15,15.586 11.15,16 C11.15,16.414 10.814,16.75 10.4,16.75 Z"/>
</svg>

