<svg xmlns="http://www.w3.org/2000/svg" viewBox="0 0 24 24">
  <defs/>
  <path fill="#151E28" d="M10.762,2.177 C11.446,1.493 12.554,1.493 13.237,2.177 L20.823,9.762 C21.926,10.865 21.145,12.75 19.586,12.75 L15.75,12.75 L15.75,20 C15.75,20.966 14.966,21.75 14,21.75 L10,21.75 C9.033,21.75 8.25,20.966 8.25,20 L8.25,12.75 L4.414,12.75 C2.855,12.75 2.074,10.865 3.177,9.762 Z M12.177,3.237 C12.079,3.14 11.921,3.14 11.823,3.237 L4.237,10.823 C4.08,10.981 4.191,11.25 4.414,11.25 L9,11.25 C9.414,11.25 9.75,11.586 9.75,12 L9.75,20 C9.75,20.138 9.862,20.25 10,20.25 L14,20.25 C14.138,20.25 14.25,20.138 14.25,20 L14.25,12 C14.25,11.586 14.586,11.25 15,11.25 L19.586,11.25 C19.809,11.25 19.92,10.981 19.763,10.823 Z"/>
</svg>

