<svg xmlns="http://www.w3.org/2000/svg" viewBox="0 0 24 24">
  <defs/>
  <path fill="#151E28" d="M4.25,6 C4.25,5.034 5.034,4.25 6,4.25 L16.728,4.25 C18.287,4.25 19.068,6.135 17.965,7.237 L15.253,9.95 L18.258,12.955 C18.942,13.638 18.942,14.746 18.258,15.43 L15.43,18.258 C14.746,18.942 13.638,18.942 12.955,18.258 L9.95,15.253 L7.237,17.965 C6.135,19.068 4.25,18.287 4.25,16.728 Z M6,5.75 C5.862,5.75 5.75,5.862 5.75,6 L5.75,16.728 C5.75,16.951 6.019,17.062 6.177,16.905 L9.419,13.662 C9.712,13.369 10.187,13.369 10.48,13.662 L14.016,17.198 C14.113,17.295 14.272,17.295 14.369,17.198 L17.198,14.369 C17.295,14.272 17.295,14.113 17.198,14.016 L13.662,10.48 C13.369,10.187 13.369,9.712 13.662,9.419 L16.905,6.177 C17.062,6.019 16.951,5.75 16.728,5.75 Z M15.783,21.087 C15.491,20.794 15.491,20.319 15.783,20.026 L20.026,15.783 C20.319,15.491 20.794,15.491 21.087,15.783 C21.38,16.076 21.38,16.551 21.087,16.844 L16.844,21.087 C16.551,21.38 16.076,21.38 15.783,21.087 Z"/>
</svg>

