<svg xmlns="http://www.w3.org/2000/svg" viewBox="0 0 24 24">
  <defs/>
  <path fill="#151E28" d="M15.438,16.656 L10.542,16.744 C8.968,16.772 8.16,14.87 9.273,13.757 L9.962,13.068 L7.515,10.621 C6.831,9.938 6.831,8.83 7.515,8.146 L8.646,7.015 C9.33,6.332 10.438,6.332 11.121,7.015 L13.568,9.462 L14.256,8.774 C15.369,7.66 17.272,8.468 17.243,10.042 L17.156,14.938 C17.139,15.88 16.38,16.639 15.438,16.656 Z M15.656,14.911 L15.744,10.016 C15.748,9.791 15.476,9.675 15.317,9.834 L14.098,11.053 C13.805,11.346 13.33,11.346 13.038,11.053 L10.06,8.076 C9.963,7.978 9.804,7.978 9.707,8.076 L8.575,9.207 C8.478,9.305 8.478,9.463 8.575,9.561 L11.553,12.538 C11.846,12.831 11.846,13.306 11.553,13.599 L10.334,14.817 C10.175,14.976 10.29,15.248 10.515,15.244 L15.411,15.156 C15.545,15.154 15.654,15.046 15.656,14.911 Z"/>
</svg>

