<svg xmlns="http://www.w3.org/2000/svg" viewBox="0 0 24 24">
  <defs/>
  <path fill="#151E28" d="M12,1.25 C17.937,1.25 22.75,6.063 22.75,12 C22.75,17.937 17.937,22.75 12,22.75 C6.063,22.75 1.25,17.937 1.25,12 C1.25,6.063 6.063,1.25 12,1.25 Z M2.75,12 C2.75,17.109 6.891,21.25 12,21.25 C17.109,21.25 21.25,17.109 21.25,12 C21.25,6.891 17.109,2.75 12,2.75 C6.891,2.75 2.75,6.891 2.75,12 Z M15.47,10.53 L14.75,9.811 L14.75,13 C14.75,15.071 13.071,16.75 11,16.75 C8.929,16.75 7.25,15.071 7.25,13 L7.25,11 C7.25,10.586 7.586,10.25 8,10.25 C8.414,10.25 8.75,10.586 8.75,11 L8.75,13 C8.75,14.243 9.757,15.25 11,15.25 C12.243,15.25 13.25,14.243 13.25,13 L13.25,9.811 L12.53,10.53 C12.237,10.823 11.763,10.823 11.47,10.53 C11.177,10.237 11.177,9.763 11.47,9.47 L13.47,7.47 C13.763,7.177 14.237,7.177 14.53,7.47 L16.53,9.47 C16.823,9.763 16.823,10.237 16.53,10.53 C16.237,10.823 15.763,10.823 15.47,10.53 Z"/>
</svg>

