<svg xmlns="http://www.w3.org/2000/svg" viewBox="0 0 24 24">
  <defs/>
  <path fill="#151E28" d="M13.117,2.479 C13.602,2.695 13.961,3.093 14.285,3.55 C14.606,4.004 14.961,4.617 15.399,5.375 L15.418,5.408 L20.868,14.821 L20.887,14.854 C21.327,15.614 21.684,16.229 21.918,16.736 C22.154,17.245 22.321,17.756 22.266,18.285 C22.185,19.061 21.779,19.766 21.148,20.224 C20.718,20.537 20.192,20.648 19.633,20.699 C19.077,20.75 18.366,20.75 17.488,20.75 L6.512,20.75 C5.634,20.75 4.923,20.75 4.367,20.699 C3.808,20.648 3.282,20.537 2.852,20.224 C2.221,19.766 1.815,19.061 1.734,18.285 C1.679,17.756 1.846,17.245 2.082,16.736 C2.316,16.229 2.673,15.614 3.113,14.854 L3.132,14.821 L8.582,5.408 L8.601,5.375 C9.039,4.618 9.394,4.004 9.715,3.55 C10.039,3.093 10.398,2.695 10.883,2.479 C11.594,2.163 12.406,2.163 13.117,2.479 Z M11.492,3.85 C11.384,3.898 11.219,4.023 10.94,4.417 C10.663,4.808 10.342,5.361 9.88,6.159 L4.43,15.572 C3.966,16.373 3.645,16.929 3.444,17.365 C3.24,17.805 3.213,18.012 3.226,18.13 C3.262,18.482 3.447,18.802 3.734,19.011 C3.829,19.081 4.022,19.161 4.504,19.205 C4.983,19.249 5.625,19.25 6.55,19.25 L17.45,19.25 C18.375,19.25 19.017,19.249 19.496,19.205 C19.978,19.161 20.17,19.081 20.266,19.011 C20.553,18.802 20.738,18.482 20.774,18.13 C20.787,18.012 20.76,17.805 20.556,17.365 C20.355,16.929 20.034,16.373 19.57,15.572 L14.12,6.159 C13.658,5.361 13.337,4.808 13.06,4.417 C12.781,4.023 12.616,3.898 12.508,3.85 C12.184,3.706 11.815,3.706 11.492,3.85 Z M15.75,11 L15.75,14.476 C15.75,16.062 13.811,16.83 12.725,15.675 L12.619,15.563 L12.273,15.909 C11.59,16.592 10.481,16.592 9.798,15.909 L9.091,15.202 C8.408,14.519 8.408,13.41 9.091,12.727 L9.437,12.381 L9.325,12.275 C8.17,11.189 8.938,9.25 10.523,9.25 L14,9.25 C14.967,9.25 15.75,10.033 15.75,11 Z M14,10.75 L10.523,10.75 C10.297,10.75 10.187,11.027 10.352,11.182 L11.028,11.818 C11.176,11.957 11.261,12.15 11.264,12.353 C11.267,12.556 11.188,12.751 11.045,12.894 L10.152,13.788 C10.054,13.885 10.054,14.044 10.152,14.141 L10.859,14.848 C10.956,14.946 11.115,14.946 11.212,14.848 L12.106,13.955 C12.249,13.812 12.444,13.733 12.647,13.736 C12.85,13.739 13.043,13.824 13.182,13.972 L13.818,14.648 C13.973,14.813 14.25,14.703 14.25,14.476 L14.25,11 C14.25,10.862 14.138,10.75 14,10.75 Z M8.03,14.848 L10.152,16.97 C10.444,17.263 10.444,17.737 10.152,18.03 C9.859,18.323 9.384,18.323 9.091,18.03 L6.97,15.909 C6.677,15.616 6.677,15.141 6.97,14.848 C7.263,14.556 7.737,14.556 8.03,14.848 Z"/>
</svg>

