<svg xmlns="http://www.w3.org/2000/svg" viewBox="0 0 24 24">
  <defs/>
  <path fill="#151E28" d="M9.367,2.25 L14.633,2.25 C15.725,2.25 16.591,2.25 17.288,2.307 C18.002,2.365 18.605,2.487 19.156,2.768 C20.05,3.223 20.777,3.95 21.232,4.844 C21.513,5.395 21.635,5.998 21.693,6.712 C21.75,7.409 21.75,8.275 21.75,9.367 L21.75,14.633 C21.75,15.725 21.75,16.591 21.693,17.288 C21.635,18.002 21.513,18.605 21.232,19.156 C20.777,20.05 20.05,20.777 19.156,21.232 C18.605,21.513 18.002,21.635 17.288,21.693 C16.591,21.75 15.725,21.75 14.633,21.75 L9.367,21.75 C8.275,21.75 7.409,21.75 6.712,21.693 C5.998,21.635 5.395,21.513 4.844,21.232 C3.95,20.777 3.223,20.05 2.768,19.156 C2.487,18.605 2.365,18.002 2.307,17.288 C2.25,16.591 2.25,15.725 2.25,14.633 L2.25,9.367 C2.25,8.275 2.25,7.409 2.307,6.712 C2.365,5.998 2.487,5.395 2.768,4.844 C3.223,3.95 3.95,3.223 4.844,2.768 C5.395,2.487 5.998,2.365 6.712,2.307 C7.409,2.25 8.275,2.25 9.367,2.25 Z M5.525,4.104 C4.913,4.416 4.416,4.913 4.104,5.525 C3.949,5.829 3.853,6.213 3.802,6.834 C3.751,7.463 3.75,8.268 3.75,9.4 L3.75,14.6 C3.75,15.733 3.751,16.537 3.802,17.166 C3.853,17.787 3.949,18.171 4.104,18.476 C4.416,19.087 4.913,19.584 5.525,19.896 C5.829,20.051 6.213,20.147 6.834,20.198 C7.463,20.249 8.268,20.25 9.4,20.25 L14.6,20.25 C15.733,20.25 16.537,20.249 17.166,20.198 C17.787,20.147 18.171,20.051 18.476,19.896 C19.087,19.584 19.584,19.087 19.896,18.476 C20.051,18.171 20.147,17.787 20.198,17.166 C20.249,16.537 20.25,15.733 20.25,14.6 L20.25,9.4 C20.25,8.268 20.249,7.463 20.198,6.834 C20.147,6.213 20.051,5.829 19.896,5.525 C19.584,4.913 19.087,4.416 18.476,4.104 C18.171,3.949 17.787,3.853 17.166,3.802 C16.537,3.751 15.733,3.75 14.6,3.75 L9.4,3.75 C8.268,3.75 7.463,3.751 6.834,3.802 C6.213,3.853 5.829,3.949 5.525,4.104 Z M13.204,16.393 C12.529,17.032 11.472,17.032 10.797,16.393 L8.306,14.034 C7.158,12.946 7.928,11.013 9.51,11.013 L9.75,11.013 L9.75,10.5 C9.75,9.533 10.534,8.75 11.5,8.75 L12.5,8.75 C13.467,8.75 14.25,9.533 14.25,10.5 L14.25,11.013 L14.491,11.013 C16.073,11.013 16.843,12.946 15.694,14.034 Z M11.828,15.304 C11.925,15.395 12.076,15.395 12.172,15.304 L14.662,12.945 C14.826,12.789 14.717,12.513 14.491,12.513 L13.5,12.513 C13.086,12.513 12.75,12.177 12.75,11.763 L12.75,10.5 C12.75,10.362 12.638,10.25 12.5,10.25 L11.5,10.25 C11.362,10.25 11.25,10.362 11.25,10.5 L11.25,11.763 C11.25,12.177 10.914,12.513 10.5,12.513 L9.51,12.513 C9.284,12.513 9.174,12.789 9.338,12.945 Z M10.5,8.25 C10.086,8.25 9.75,7.914 9.75,7.5 C9.75,7.086 10.086,6.75 10.5,6.75 L13.5,6.75 C13.914,6.75 14.25,7.086 14.25,7.5 C14.25,7.914 13.914,8.25 13.5,8.25 Z"/>
</svg>

