<svg xmlns="http://www.w3.org/2000/svg" viewBox="0 0 24 24">
  <defs/>
  <path fill="#151E28" d="M12,1.25 C17.937,1.25 22.75,6.063 22.75,12 C22.75,17.937 17.937,22.75 12,22.75 C6.063,22.75 1.25,17.937 1.25,12 C1.25,6.063 6.063,1.25 12,1.25 Z M2.75,12 C2.75,17.109 6.891,21.25 12,21.25 C17.109,21.25 21.25,17.109 21.25,12 C21.25,6.891 17.109,2.75 12,2.75 C6.891,2.75 2.75,6.891 2.75,12 Z M11.25,8 C11.25,7.586 11.586,7.25 12,7.25 C12.414,7.25 12.75,7.586 12.75,8 L12.75,14.189 L14.47,12.47 C14.763,12.177 15.237,12.177 15.53,12.47 C15.823,12.763 15.823,13.237 15.53,13.53 L12.53,16.53 C12.237,16.823 11.763,16.823 11.47,16.53 L8.47,13.53 C8.177,13.237 8.177,12.763 8.47,12.47 C8.763,12.177 9.237,12.177 9.53,12.47 L11.25,14.189 Z"/>
</svg>

