<svg xmlns="http://www.w3.org/2000/svg" viewBox="0 0 24 24">
  <defs/>
  <path fill="#151E28" d="M1.25,12 C1.25,6.063 6.063,1.25 12,1.25 C17.937,1.25 22.75,6.063 22.75,12 C22.75,17.937 17.937,22.75 12,22.75 C6.063,22.75 1.25,17.937 1.25,12 Z M12,2.75 C6.891,2.75 2.75,6.891 2.75,12 C2.75,17.109 6.891,21.25 12,21.25 C17.109,21.25 21.25,17.109 21.25,12 C21.25,6.891 17.109,2.75 12,2.75 Z M12.63,6.87 C12.923,7.163 12.923,7.637 12.63,7.93 L12.301,8.259 C14.784,8.415 16.75,10.478 16.75,13 C16.75,15.623 14.623,17.75 12,17.75 C9.377,17.75 7.25,15.623 7.25,13 C7.25,12.586 7.586,12.25 8,12.25 C8.414,12.25 8.75,12.586 8.75,13 C8.75,14.795 10.205,16.25 12,16.25 C13.795,16.25 15.25,14.795 15.25,13 C15.25,11.315 13.968,9.93 12.327,9.766 L12.63,10.07 C12.923,10.363 12.923,10.837 12.63,11.13 C12.337,11.423 11.863,11.423 11.57,11.13 L9.97,9.53 C9.677,9.237 9.677,8.763 9.97,8.47 L11.57,6.87 C11.863,6.577 12.337,6.577 12.63,6.87 Z"/>
</svg>

