<svg xmlns="http://www.w3.org/2000/svg" viewBox="0 0 24 24">
  <defs/>
  <path fill="#151E28" d="M12,1.25 C17.937,1.25 22.75,6.063 22.75,12 C22.75,17.937 17.937,22.75 12,22.75 C6.063,22.75 1.25,17.937 1.25,12 C1.25,6.063 6.063,1.25 12,1.25 Z M2.75,12 C2.75,17.109 6.891,21.25 12,21.25 C17.109,21.25 21.25,17.109 21.25,12 C21.25,6.891 17.109,2.75 12,2.75 C6.891,2.75 2.75,6.891 2.75,12 Z M10.53,15.47 C10.823,15.763 10.823,16.237 10.53,16.53 C10.237,16.823 9.763,16.823 9.47,16.53 L7.47,14.53 C7.177,14.237 7.177,13.763 7.47,13.47 L9.47,11.47 C9.763,11.177 10.237,11.177 10.53,11.47 C10.823,11.763 10.823,12.237 10.53,12.53 L9.811,13.25 L13,13.25 C14.243,13.25 15.25,12.243 15.25,11 C15.25,9.757 14.243,8.75 13,8.75 L11,8.75 C10.586,8.75 10.25,8.414 10.25,8 C10.25,7.586 10.586,7.25 11,7.25 L13,7.25 C15.071,7.25 16.75,8.929 16.75,11 C16.75,13.071 15.071,14.75 13,14.75 L9.811,14.75 Z"/>
</svg>

