<svg xmlns="http://www.w3.org/2000/svg" viewBox="0 0 24 24">
  <defs/>
  <path fill="#151E28" d="M7.25,9 C7.25,8.033 8.033,7.25 9,7.25 L13.698,7.25 C15.229,7.25 16.022,9.076 14.978,10.194 L14.409,10.803 L16.874,13.268 C17.558,13.951 17.558,15.059 16.874,15.743 L15.743,16.874 C15.059,17.558 13.951,17.558 13.268,16.874 L10.803,14.409 L10.194,14.978 C9.076,16.022 7.25,15.229 7.25,13.698 Z M9,8.75 C8.862,8.75 8.75,8.862 8.75,9 L8.75,13.698 C8.75,13.917 9.011,14.03 9.171,13.881 L10.309,12.818 C10.605,12.542 11.066,12.55 11.351,12.836 L14.329,15.814 C14.426,15.911 14.585,15.911 14.682,15.814 L15.814,14.682 C15.911,14.585 15.911,14.426 15.814,14.329 L12.836,11.351 C12.55,11.066 12.542,10.605 12.818,10.309 L13.881,9.171 C14.03,9.011 13.917,8.75 13.698,8.75 Z"/>
</svg>

