<svg xmlns="http://www.w3.org/2000/svg" viewBox="0 0 24 24">
  <defs/>
  <path fill="#151E28" d="M13.117,2.479 C13.602,2.695 13.961,3.093 14.285,3.55 C14.606,4.004 14.961,4.617 15.399,5.375 L15.418,5.408 L20.868,14.821 L20.887,14.854 C21.327,15.614 21.684,16.229 21.918,16.736 C22.154,17.245 22.321,17.756 22.266,18.285 C22.185,19.061 21.779,19.766 21.148,20.224 C20.718,20.537 20.192,20.648 19.633,20.699 C19.077,20.75 18.366,20.75 17.488,20.75 L6.512,20.75 C5.634,20.75 4.923,20.75 4.367,20.699 C3.808,20.648 3.282,20.537 2.852,20.224 C2.221,19.766 1.815,19.061 1.734,18.285 C1.679,17.756 1.846,17.245 2.082,16.736 C2.316,16.229 2.673,15.614 3.113,14.854 L3.132,14.821 L8.582,5.408 L8.601,5.375 C9.039,4.618 9.394,4.004 9.715,3.55 C10.039,3.093 10.398,2.695 10.883,2.479 C11.594,2.163 12.406,2.163 13.117,2.479 Z M11.492,3.85 C11.384,3.898 11.219,4.023 10.94,4.417 C10.663,4.808 10.342,5.361 9.88,6.159 L4.43,15.572 C3.966,16.373 3.645,16.929 3.444,17.365 C3.24,17.805 3.213,18.012 3.226,18.13 C3.262,18.482 3.447,18.802 3.734,19.011 C3.829,19.081 4.022,19.161 4.504,19.205 C4.983,19.249 5.625,19.25 6.55,19.25 L17.45,19.25 C18.375,19.25 19.017,19.249 19.496,19.205 C19.978,19.161 20.17,19.081 20.266,19.011 C20.553,18.802 20.738,18.482 20.774,18.13 C20.787,18.012 20.76,17.805 20.556,17.365 C20.355,16.929 20.034,16.373 19.57,15.572 L14.12,6.159 C13.658,5.361 13.337,4.808 13.06,4.417 C12.781,4.023 12.616,3.898 12.508,3.85 C12.184,3.706 11.815,3.706 11.492,3.85 Z M15,11.75 L14.2,11.75 C13.628,11.75 13.243,11.751 12.948,11.775 C12.66,11.798 12.523,11.84 12.432,11.886 C12.197,12.006 12.006,12.197 11.886,12.432 C11.84,12.523 11.798,12.66 11.775,12.948 C11.751,13.243 11.75,13.628 11.75,14.2 L11.75,15.189 L12.47,14.47 C12.763,14.177 13.237,14.177 13.53,14.47 C13.823,14.763 13.823,15.237 13.53,15.53 L11.53,17.53 C11.237,17.823 10.763,17.823 10.47,17.53 L8.47,15.53 C8.177,15.237 8.177,14.763 8.47,14.47 C8.763,14.177 9.237,14.177 9.53,14.47 L10.25,15.189 L10.25,14.17 C10.25,13.635 10.25,13.19 10.28,12.825 C10.311,12.445 10.378,12.089 10.55,11.752 C10.813,11.234 11.234,10.813 11.752,10.55 C12.089,10.378 12.445,10.311 12.825,10.28 C13.19,10.25 13.635,10.25 14.17,10.25 L15,10.25 C15.414,10.25 15.75,10.586 15.75,11 C15.75,11.414 15.414,11.75 15,11.75 Z"/>
</svg>

