<svg xmlns="http://www.w3.org/2000/svg" viewBox="0 0 24 24">
  <defs/>
  <path fill="#151E28" d="M10.883,2.479 C11.594,2.163 12.406,2.163 13.117,2.479 C13.602,2.695 13.961,3.093 14.285,3.55 C14.606,4.004 14.961,4.617 15.399,5.375 L15.418,5.408 L20.868,14.821 L20.887,14.854 C21.327,15.614 21.684,16.229 21.918,16.736 C22.154,17.245 22.321,17.756 22.266,18.285 C22.185,19.061 21.779,19.766 21.148,20.224 C20.718,20.537 20.192,20.648 19.633,20.699 C19.077,20.75 18.366,20.75 17.488,20.75 L6.512,20.75 C5.634,20.75 4.923,20.75 4.367,20.699 C3.808,20.648 3.282,20.537 2.852,20.224 C2.221,19.766 1.815,19.061 1.734,18.285 C1.679,17.756 1.846,17.245 2.082,16.736 C2.316,16.229 2.673,15.614 3.113,14.854 L3.132,14.821 L8.582,5.408 L8.601,5.375 L8.601,5.375 C9.039,4.617 9.394,4.004 9.715,3.55 C10.039,3.093 10.398,2.695 10.883,2.479 Z M12.508,3.85 C12.184,3.706 11.815,3.706 11.492,3.85 C11.384,3.898 11.219,4.023 10.94,4.417 C10.663,4.808 10.342,5.361 9.88,6.159 L4.43,15.572 C3.966,16.373 3.645,16.929 3.444,17.365 C3.24,17.805 3.213,18.012 3.226,18.13 C3.262,18.482 3.447,18.802 3.734,19.011 C3.829,19.081 4.022,19.161 4.504,19.205 C4.983,19.249 5.625,19.25 6.55,19.25 L17.45,19.25 C18.375,19.25 19.017,19.249 19.496,19.205 C19.978,19.161 20.17,19.081 20.266,19.011 C20.553,18.802 20.738,18.482 20.774,18.13 C20.787,18.012 20.76,17.805 20.556,17.365 C20.355,16.929 20.034,16.373 19.57,15.572 L14.12,6.159 C13.658,5.361 13.337,4.808 13.06,4.417 C12.781,4.023 12.616,3.898 12.508,3.85 Z M17.25,15 C17.25,15.414 16.914,15.75 16.5,15.75 L13.811,15.75 L15.03,16.97 C15.323,17.263 15.323,17.737 15.03,18.03 C14.737,18.323 14.263,18.323 13.97,18.03 L11.47,15.53 C11.177,15.237 11.177,14.763 11.47,14.47 L13.97,11.97 C14.263,11.677 14.737,11.677 15.03,11.97 C15.323,12.263 15.323,12.737 15.03,13.03 L13.811,14.25 L16.5,14.25 C16.914,14.25 17.25,14.586 17.25,15 Z M9.75,17 C9.75,17.414 9.414,17.75 9,17.75 C8.586,17.75 8.25,17.414 8.25,17 L8.25,13 C8.25,12.586 8.586,12.25 9,12.25 C9.414,12.25 9.75,12.586 9.75,13 Z"/>
</svg>

