<svg xmlns="http://www.w3.org/2000/svg" viewBox="0 0 24 24">
  <defs/>
  <path fill="#151E28" d="M12,1.25 C17.937,1.25 22.75,6.063 22.75,12 C22.75,17.937 17.937,22.75 12,22.75 C6.063,22.75 1.25,17.937 1.25,12 C1.25,6.063 6.063,1.25 12,1.25 Z M2.75,12 C2.75,17.109 6.891,21.25 12,21.25 C17.109,21.25 21.25,17.109 21.25,12 C21.25,6.891 17.109,2.75 12,2.75 C6.891,2.75 2.75,6.891 2.75,12 Z M10,15.75 C9.034,15.75 8.25,14.967 8.25,14 L8.25,10.523 C8.25,8.938 10.189,8.17 11.275,9.325 L11.381,9.437 L11.727,9.091 C12.41,8.408 13.519,8.408 14.202,9.091 L14.909,9.798 C15.592,10.481 15.592,11.59 14.909,12.273 L14.563,12.619 L14.675,12.725 C15.83,13.811 15.062,15.75 13.477,15.75 Z M9.75,14 C9.75,14.138 9.862,14.25 10,14.25 L13.477,14.25 C13.703,14.25 13.813,13.973 13.648,13.818 L12.972,13.182 C12.824,13.043 12.739,12.85 12.736,12.647 C12.733,12.444 12.812,12.249 12.955,12.106 L13.848,11.212 C13.946,11.115 13.946,10.956 13.848,10.859 L13.141,10.152 C13.044,10.054 12.885,10.054 12.788,10.152 L11.894,11.045 C11.751,11.188 11.556,11.267 11.353,11.264 C11.15,11.261 10.957,11.176 10.818,11.028 L10.182,10.352 C10.027,10.187 9.75,10.297 9.75,10.523 Z M13.848,8.03 C13.556,7.737 13.556,7.263 13.848,6.97 C14.141,6.677 14.616,6.677 14.909,6.97 L17.03,9.091 C17.323,9.384 17.323,9.859 17.03,10.152 C16.737,10.444 16.263,10.444 15.97,10.152 Z"/>
</svg>

