<svg xmlns="http://www.w3.org/2000/svg" viewBox="0 0 24 24">
  <defs/>
  <path fill="#151E28" d="M12,1.25 C17.937,1.25 22.75,6.063 22.75,12 C22.75,17.937 17.937,22.75 12,22.75 C6.063,22.75 1.25,17.937 1.25,12 C1.25,6.063 6.063,1.25 12,1.25 Z M2.75,12 C2.75,17.109 6.891,21.25 12,21.25 C17.109,21.25 21.25,17.109 21.25,12 C21.25,6.891 17.109,2.75 12,2.75 C6.891,2.75 2.75,6.891 2.75,12 Z M9.245,8.043 L12.674,7.95 C14.255,7.907 15.077,9.818 13.959,10.937 L13.789,11.107 L15.566,12.884 C16.249,13.567 16.249,14.675 15.566,15.359 L14.859,16.066 C14.175,16.749 13.067,16.749 12.384,16.066 L10.607,14.289 L10.437,14.459 C9.318,15.577 7.407,14.755 7.45,13.174 L7.543,9.745 C7.568,8.815 8.315,8.068 9.245,8.043 Z M9.042,9.785 L8.949,13.215 C8.943,13.441 9.216,13.558 9.376,13.398 L10.076,12.698 C10.369,12.405 10.844,12.405 11.137,12.698 L13.444,15.005 C13.542,15.103 13.7,15.103 13.798,15.005 L14.505,14.298 C14.603,14.2 14.603,14.042 14.505,13.944 L12.198,11.637 C11.905,11.344 11.905,10.869 12.198,10.576 L12.898,9.876 C13.058,9.716 12.941,9.443 12.715,9.449 L9.285,9.542 C9.153,9.546 9.046,9.653 9.042,9.785 Z"/>
</svg>

