<svg xmlns="http://www.w3.org/2000/svg" viewBox="0 0 24 24">
  <defs/>
  <path fill="#151E28" d="M9.253,2.25 L14.675,2.25 L14.747,2.25 C15.166,2.25 15.495,2.25 15.814,2.326 C16.094,2.393 16.362,2.505 16.608,2.655 C16.888,2.826 17.121,3.06 17.416,3.356 L17.468,3.407 L20.593,6.532 L20.644,6.584 C20.941,6.88 21.174,7.112 21.345,7.392 C21.496,7.638 21.607,7.906 21.674,8.187 C21.75,8.505 21.75,8.834 21.75,9.252 L21.75,14.748 C21.75,15.166 21.75,15.495 21.674,15.814 C21.607,16.094 21.496,16.362 21.345,16.608 C21.174,16.888 20.941,17.121 20.644,17.416 L20.593,17.468 L17.468,20.593 L17.416,20.644 C17.121,20.941 16.888,21.174 16.608,21.345 C16.362,21.496 16.094,21.607 15.814,21.674 C15.495,21.75 15.166,21.75 14.748,21.75 L9.252,21.75 C8.834,21.75 8.505,21.75 8.187,21.674 C7.906,21.607 7.638,21.496 7.392,21.345 C7.112,21.174 6.88,20.941 6.584,20.644 L6.532,20.593 L3.407,17.468 L3.356,17.416 C3.06,17.121 2.826,16.888 2.655,16.608 C2.505,16.362 2.393,16.094 2.326,15.814 C2.25,15.495 2.25,15.166 2.25,14.747 L2.25,14.675 L2.25,9.326 L2.25,9.253 C2.25,8.834 2.25,8.505 2.326,8.187 C2.393,7.906 2.505,7.638 2.655,7.392 C2.826,7.112 3.06,6.88 3.356,6.584 L3.407,6.532 L6.532,3.407 L6.584,3.356 C6.88,3.06 7.112,2.826 7.392,2.655 C7.638,2.505 7.906,2.393 8.187,2.326 C8.505,2.25 8.834,2.25 9.253,2.25 Z M9.326,3.75 C8.801,3.75 8.66,3.755 8.537,3.785 C8.409,3.815 8.287,3.866 8.175,3.934 C8.067,4.001 7.964,4.096 7.593,4.468 L4.468,7.593 C4.096,7.964 4.001,8.067 3.934,8.175 C3.866,8.287 3.815,8.409 3.785,8.537 C3.755,8.66 3.75,8.801 3.75,9.326 L3.75,14.675 C3.75,15.2 3.755,15.34 3.785,15.463 C3.815,15.591 3.866,15.713 3.934,15.825 C4.001,15.933 4.096,16.036 4.468,16.407 L7.593,19.532 C7.964,19.904 8.067,19.999 8.175,20.066 C8.287,20.134 8.409,20.185 8.537,20.215 C8.66,20.245 8.801,20.25 9.326,20.25 L14.675,20.25 C15.2,20.25 15.34,20.245 15.463,20.215 C15.591,20.185 15.713,20.134 15.825,20.066 C15.933,19.999 16.036,19.904 16.407,19.532 L19.532,16.407 C19.904,16.036 19.999,15.933 20.066,15.825 C20.134,15.713 20.185,15.591 20.215,15.463 C20.245,15.34 20.25,15.2 20.25,14.675 L20.25,9.326 C20.25,8.801 20.245,8.66 20.215,8.537 C20.185,8.409 20.134,8.287 20.066,8.175 C19.999,8.067 19.904,7.964 19.532,7.593 L16.407,4.468 C16.036,4.096 15.933,4.001 15.825,3.934 C15.713,3.866 15.591,3.815 15.463,3.785 C15.34,3.755 15.2,3.75 14.675,3.75 Z M12.889,7.25 L12.918,7.25 C13.412,7.25 13.824,7.25 14.162,7.276 C14.514,7.302 14.845,7.36 15.162,7.508 C15.748,7.781 16.219,8.252 16.492,8.838 C16.64,9.155 16.698,9.486 16.725,9.838 C16.75,10.176 16.75,10.589 16.75,11.083 L16.75,12.83 C16.75,13.365 16.75,13.811 16.72,14.175 C16.689,14.555 16.622,14.911 16.45,15.248 C16.187,15.766 15.766,16.187 15.248,16.45 C14.911,16.622 14.555,16.689 14.175,16.72 C13.811,16.75 13.365,16.75 12.83,16.75 L11.083,16.75 C10.589,16.75 10.176,16.75 9.838,16.725 C9.486,16.698 9.155,16.64 8.838,16.492 C8.252,16.219 7.781,15.748 7.508,15.162 C7.36,14.845 7.302,14.514 7.276,14.162 C7.25,13.824 7.25,13.412 7.25,12.918 L7.25,12.889 C7.25,12.475 7.586,12.139 8,12.139 C8.414,12.139 8.75,12.475 8.75,12.889 C8.75,13.418 8.751,13.774 8.771,14.048 C8.792,14.315 8.828,14.444 8.867,14.528 C8.991,14.795 9.205,15.009 9.472,15.133 C9.557,15.172 9.685,15.209 9.952,15.229 C10.226,15.25 10.582,15.25 11.111,15.25 L12.8,15.25 C13.373,15.25 13.757,15.25 14.053,15.225 C14.34,15.202 14.477,15.16 14.568,15.114 C14.803,14.994 14.994,14.803 15.114,14.568 C15.16,14.477 15.202,14.34 15.225,14.053 C15.25,13.757 15.25,13.373 15.25,12.8 L15.25,11.111 C15.25,10.582 15.25,10.226 15.229,9.952 C15.209,9.685 15.172,9.557 15.133,9.472 C15.009,9.205 14.795,8.991 14.528,8.867 C14.444,8.828 14.315,8.792 14.048,8.771 C13.774,8.751 13.418,8.75 12.889,8.75 C12.475,8.75 12.139,8.414 12.139,8 C12.139,7.586 12.475,7.25 12.889,7.25 Z M10.25,8 C10.25,8.322 10.048,8.596 9.763,8.703 L11.297,10.237 C11.404,9.952 11.679,9.75 12,9.75 C12.414,9.75 12.75,10.086 12.75,10.5 L12.75,12 C12.75,12.414 12.414,12.75 12,12.75 L10.5,12.75 C10.086,12.75 9.75,12.414 9.75,12 C9.75,11.678 9.952,11.404 10.237,11.297 L8.703,9.763 C8.596,10.048 8.322,10.25 8,10.25 C7.586,10.25 7.25,9.914 7.25,9.5 L7.25,8 C7.25,7.586 7.586,7.25 8,7.25 L9.5,7.25 C9.914,7.25 10.25,7.586 10.25,8 Z"/>
</svg>

