<svg xmlns="http://www.w3.org/2000/svg" viewBox="0 0 24 24">
  <defs/>
  <path fill="#151E28" d="M16.75,9 L16.75,13.698 C16.75,15.229 14.924,16.022 13.806,14.978 L13.197,14.409 L10.732,16.874 C10.049,17.558 8.941,17.558 8.257,16.874 L7.126,15.743 C6.442,15.059 6.442,13.951 7.126,13.268 L9.591,10.803 L9.022,10.194 C7.978,9.076 8.771,7.25 10.302,7.25 L15,7.25 C15.967,7.25 16.75,8.033 16.75,9 Z M15,8.75 L10.302,8.75 C10.083,8.75 9.97,9.011 10.119,9.171 L11.182,10.309 C11.458,10.605 11.45,11.066 11.164,11.351 L8.186,14.329 C8.089,14.426 8.089,14.585 8.186,14.682 L9.318,15.814 C9.416,15.911 9.574,15.911 9.671,15.814 L12.649,12.836 C12.934,12.55 13.395,12.542 13.691,12.818 L14.829,13.881 C14.989,14.03 15.25,13.917 15.25,13.698 L15.25,9 C15.25,8.862 15.138,8.75 15,8.75 Z"/>
</svg>

