<svg xmlns="http://www.w3.org/2000/svg" viewBox="0 0 24 24">
  <defs/>
  <path fill="#151E28" d="M9.326,2.25 L14.675,2.25 L14.747,2.25 C15.166,2.25 15.495,2.25 15.814,2.326 C16.094,2.393 16.362,2.505 16.608,2.655 C16.888,2.826 17.121,3.06 17.416,3.356 L17.468,3.407 L20.593,6.532 L20.644,6.584 C20.941,6.88 21.174,7.112 21.345,7.392 C21.496,7.638 21.607,7.906 21.674,8.187 C21.75,8.505 21.75,8.834 21.75,9.252 L21.75,14.748 C21.75,15.166 21.75,15.495 21.674,15.814 C21.607,16.094 21.496,16.362 21.345,16.608 C21.174,16.888 20.941,17.121 20.644,17.416 L20.593,17.468 L17.468,20.593 L17.416,20.644 C17.121,20.941 16.888,21.174 16.608,21.345 C16.362,21.496 16.094,21.607 15.814,21.674 C15.495,21.75 15.166,21.75 14.748,21.75 L9.252,21.75 C8.834,21.75 8.505,21.75 8.187,21.674 C7.906,21.607 7.638,21.496 7.392,21.345 C7.112,21.174 6.88,20.941 6.584,20.644 L6.532,20.593 L3.407,17.468 L3.356,17.416 C3.06,17.121 2.826,16.888 2.655,16.608 C2.505,16.362 2.393,16.094 2.326,15.814 C2.25,15.495 2.25,15.166 2.25,14.747 L2.25,14.675 L2.25,9.326 L2.25,9.253 C2.25,8.834 2.25,8.505 2.326,8.187 C2.393,7.906 2.505,7.638 2.655,7.392 C2.826,7.112 3.06,6.88 3.356,6.584 L3.407,6.532 L6.532,3.407 L6.584,3.356 C6.88,3.06 7.112,2.826 7.392,2.655 C7.638,2.505 7.906,2.393 8.187,2.326 C8.505,2.25 8.834,2.25 9.253,2.25 Z M8.537,3.785 C8.409,3.815 8.287,3.866 8.175,3.934 C8.067,4.001 7.964,4.096 7.593,4.468 L4.468,7.593 C4.096,7.964 4.001,8.067 3.934,8.175 C3.866,8.287 3.815,8.409 3.785,8.537 C3.755,8.66 3.75,8.801 3.75,9.326 L3.75,14.675 C3.75,15.2 3.755,15.34 3.785,15.463 C3.815,15.591 3.866,15.713 3.934,15.825 C4.001,15.933 4.096,16.036 4.468,16.407 L7.593,19.532 C7.964,19.904 8.067,19.999 8.175,20.066 C8.287,20.134 8.409,20.185 8.537,20.215 C8.66,20.245 8.801,20.25 9.326,20.25 L14.675,20.25 C15.2,20.25 15.34,20.245 15.463,20.215 C15.591,20.185 15.713,20.134 15.825,20.066 C15.933,19.999 16.036,19.904 16.407,19.532 L19.532,16.407 C19.904,16.036 19.999,15.933 20.066,15.825 C20.134,15.713 20.185,15.591 20.215,15.463 C20.245,15.34 20.25,15.2 20.25,14.675 L20.25,9.326 C20.25,8.801 20.245,8.66 20.215,8.537 C20.185,8.409 20.134,8.287 20.066,8.175 C19.999,8.067 19.904,7.964 19.532,7.593 L16.407,4.468 C16.036,4.096 15.933,4.001 15.825,3.934 C15.713,3.866 15.591,3.815 15.463,3.785 C15.34,3.755 15.2,3.75 14.675,3.75 L9.326,3.75 C8.801,3.75 8.66,3.755 8.537,3.785 Z M13.204,7.607 L15.694,9.966 C16.843,11.054 16.073,12.987 14.491,12.987 L14.25,12.987 L14.25,13.5 C14.25,14.467 13.467,15.25 12.5,15.25 L11.5,15.25 C10.534,15.25 9.75,14.467 9.75,13.5 L9.75,12.987 L9.51,12.987 C7.928,12.987 7.158,11.054 8.306,9.966 L10.797,7.607 C11.472,6.968 12.529,6.968 13.204,7.607 Z M11.828,8.696 L9.338,11.055 C9.174,11.211 9.284,11.487 9.51,11.487 L10.5,11.487 C10.914,11.487 11.25,11.823 11.25,12.237 L11.25,13.5 C11.25,13.638 11.362,13.75 11.5,13.75 L12.5,13.75 C12.638,13.75 12.75,13.638 12.75,13.5 L12.75,12.237 C12.75,11.823 13.086,11.487 13.5,11.487 L14.491,11.487 C14.717,11.487 14.826,11.211 14.663,11.055 L12.172,8.696 C12.076,8.605 11.925,8.605 11.828,8.696 Z M10.5,15.75 L13.5,15.75 C13.914,15.75 14.25,16.086 14.25,16.5 C14.25,16.914 13.914,17.25 13.5,17.25 L10.5,17.25 C10.086,17.25 9.75,16.914 9.75,16.5 C9.75,16.086 10.086,15.75 10.5,15.75 Z"/>
</svg>

