<svg xmlns="http://www.w3.org/2000/svg" viewBox="0 0 24 24">
  <defs/>
  <path fill="#151E28" d="M10.5,7.75 C8.981,7.75 7.75,8.981 7.75,10.5 C7.75,12.019 8.981,13.25 10.5,13.25 L15.189,13.25 L13.47,11.53 C13.177,11.237 13.177,10.763 13.47,10.47 C13.763,10.177 14.237,10.177 14.53,10.47 L17.53,13.47 C17.823,13.763 17.823,14.237 17.53,14.53 L14.53,17.53 C14.237,17.823 13.763,17.823 13.47,17.53 C13.177,17.237 13.177,16.763 13.47,16.47 L15.189,14.75 L10.5,14.75 C8.153,14.75 6.25,12.847 6.25,10.5 C6.25,8.153 8.153,6.25 10.5,6.25 L13,6.25 C13.414,6.25 13.75,6.586 13.75,7 C13.75,7.414 13.414,7.75 13,7.75 Z"/>
</svg>

