<svg xmlns="http://www.w3.org/2000/svg" viewBox="0 0 24 24">
  <defs/>
  <path fill="#151E28" d="M12,1.25 C17.937,1.25 22.75,6.063 22.75,12 C22.75,17.937 17.937,22.75 12,22.75 C6.063,22.75 1.25,17.937 1.25,12 C1.25,6.063 6.063,1.25 12,1.25 Z M2.75,12 C2.75,17.109 6.891,21.25 12,21.25 C17.109,21.25 21.25,17.109 21.25,12 C21.25,6.891 17.109,2.75 12,2.75 C6.891,2.75 2.75,6.891 2.75,12 Z M16.893,10.796 C17.532,11.471 17.532,12.529 16.893,13.204 L14.534,15.694 C13.446,16.842 11.513,16.072 11.513,14.49 L11.513,14.25 L9,14.25 C8.033,14.25 7.25,13.467 7.25,12.5 L7.25,11.5 C7.25,10.533 8.033,9.75 9,9.75 L11.513,9.75 L11.513,9.51 C11.513,7.928 13.446,7.158 14.534,8.306 Z M13.445,14.662 L15.804,12.172 C15.895,12.075 15.895,11.925 15.804,11.828 L13.445,9.338 C13.289,9.174 13.013,9.284 13.013,9.51 L13.013,10.5 C13.013,10.914 12.677,11.25 12.263,11.25 L9,11.25 C8.862,11.25 8.75,11.362 8.75,11.5 L8.75,12.5 C8.75,12.638 8.862,12.75 9,12.75 L12.263,12.75 C12.677,12.75 13.013,13.086 13.013,13.5 L13.013,14.49 C13.013,14.716 13.289,14.826 13.445,14.662 Z"/>
</svg>

