<svg xmlns="http://www.w3.org/2000/svg" viewBox="0 0 24 24">
  <defs/>
  <path fill="#151E28" d="M7.75,9.889 L7.75,12.2 C7.75,13.052 7.751,13.647 7.788,14.109 C7.826,14.563 7.895,14.824 7.995,15.021 C8.211,15.445 8.555,15.789 8.979,16.005 C9.176,16.105 9.437,16.175 9.891,16.212 C10.353,16.25 10.948,16.25 11.8,16.25 L14.111,16.25 C15.292,16.25 16.25,15.292 16.25,14.111 C16.25,13.697 16.586,13.361 17,13.361 C17.414,13.361 17.75,13.697 17.75,14.111 C17.75,16.121 16.121,17.75 14.111,17.75 L11.762,17.75 C10.952,17.75 10.298,17.75 9.769,17.707 C9.222,17.662 8.742,17.568 8.298,17.341 C7.592,16.982 7.018,16.408 6.659,15.703 C6.433,15.258 6.338,14.778 6.293,14.231 C6.25,13.701 6.25,13.045 6.25,12.232 L6.25,9.889 C6.25,7.879 7.879,6.25 9.889,6.25 C10.303,6.25 10.639,6.586 10.639,7 C10.639,7.414 10.303,7.75 9.889,7.75 C8.708,7.75 7.75,8.708 7.75,9.889 Z M14,6.25 L17,6.25 C17.414,6.25 17.75,6.586 17.75,7 L17.75,10 C17.75,10.414 17.414,10.75 17,10.75 C16.586,10.75 16.25,10.414 16.25,10 L16.25,8.811 L12.531,12.53 C12.238,12.823 11.763,12.823 11.47,12.53 C11.177,12.238 11.177,11.763 11.47,11.47 L15.189,7.75 L14,7.75 C13.586,7.75 13.25,7.414 13.25,7 C13.25,6.586 13.586,6.25 14,6.25 Z"/>
</svg>

