<svg xmlns="http://www.w3.org/2000/svg" viewBox="0 0 24 24">
  <defs/>
  <path fill="#151E28" d="M9.326,2.25 L14.675,2.25 L14.747,2.25 C15.166,2.25 15.495,2.25 15.814,2.326 C16.094,2.393 16.362,2.505 16.608,2.655 C16.888,2.826 17.121,3.06 17.416,3.356 L17.468,3.407 L20.593,6.532 L20.644,6.584 C20.941,6.88 21.174,7.112 21.345,7.392 C21.496,7.638 21.607,7.906 21.674,8.187 C21.75,8.505 21.75,8.834 21.75,9.252 L21.75,14.748 C21.75,15.166 21.75,15.495 21.674,15.814 C21.607,16.094 21.496,16.362 21.345,16.608 C21.174,16.888 20.941,17.121 20.644,17.416 L20.593,17.468 L17.468,20.593 L17.416,20.644 C17.121,20.941 16.888,21.174 16.608,21.345 C16.362,21.496 16.094,21.607 15.814,21.674 C15.495,21.75 15.166,21.75 14.748,21.75 L9.252,21.75 C8.834,21.75 8.505,21.75 8.187,21.674 C7.906,21.607 7.638,21.496 7.392,21.345 C7.112,21.174 6.88,20.941 6.584,20.644 L6.532,20.593 L3.407,17.468 L3.356,17.416 C3.06,17.121 2.826,16.888 2.655,16.608 C2.505,16.362 2.393,16.094 2.326,15.814 C2.25,15.495 2.25,15.166 2.25,14.747 L2.25,14.675 L2.25,9.326 L2.25,9.253 C2.25,8.834 2.25,8.505 2.326,8.187 C2.393,7.906 2.505,7.638 2.655,7.392 C2.826,7.112 3.06,6.88 3.356,6.584 L3.407,6.532 L6.532,3.407 L6.584,3.356 C6.88,3.06 7.112,2.826 7.392,2.655 C7.638,2.505 7.906,2.393 8.187,2.326 C8.505,2.25 8.834,2.25 9.253,2.25 Z M8.537,3.785 C8.409,3.815 8.287,3.866 8.175,3.934 C8.067,4.001 7.964,4.096 7.593,4.468 L4.468,7.593 C4.096,7.964 4.001,8.067 3.934,8.175 C3.866,8.287 3.815,8.409 3.785,8.537 C3.755,8.66 3.75,8.801 3.75,9.326 L3.75,14.675 C3.75,15.2 3.755,15.34 3.785,15.463 C3.815,15.591 3.866,15.713 3.934,15.825 C4.001,15.933 4.096,16.036 4.468,16.407 L7.593,19.532 C7.964,19.904 8.067,19.999 8.175,20.066 C8.287,20.134 8.409,20.185 8.537,20.215 C8.66,20.245 8.801,20.25 9.326,20.25 L14.675,20.25 C15.2,20.25 15.34,20.245 15.463,20.215 C15.591,20.185 15.713,20.134 15.825,20.066 C15.933,19.999 16.036,19.904 16.407,19.532 L19.532,16.407 C19.904,16.036 19.999,15.933 20.066,15.825 C20.134,15.713 20.185,15.591 20.215,15.463 C20.245,15.34 20.25,15.2 20.25,14.675 L20.25,9.326 C20.25,8.801 20.245,8.66 20.215,8.537 C20.185,8.409 20.134,8.287 20.066,8.175 C19.999,8.067 19.904,7.964 19.532,7.593 L16.407,4.468 C16.036,4.096 15.933,4.001 15.825,3.934 C15.713,3.866 15.591,3.815 15.463,3.785 C15.34,3.755 15.2,3.75 14.675,3.75 L9.326,3.75 C8.801,3.75 8.66,3.755 8.537,3.785 Z M16.457,14.255 C16.432,15.185 15.685,15.932 14.755,15.957 L11.326,16.05 C9.745,16.093 8.923,14.182 10.041,13.063 L10.211,12.893 L8.434,11.116 C7.751,10.433 7.751,9.325 8.434,8.641 L9.141,7.934 C9.825,7.251 10.933,7.251 11.616,7.934 L13.393,9.711 L13.563,9.541 C14.682,8.423 16.593,9.245 16.55,10.826 Z M14.715,14.458 C14.848,14.454 14.954,14.347 14.958,14.215 L15.051,10.785 C15.057,10.56 14.784,10.442 14.624,10.602 L13.924,11.302 C13.631,11.595 13.156,11.595 12.863,11.302 L10.556,8.995 C10.458,8.897 10.3,8.897 10.202,8.995 L9.495,9.702 C9.397,9.8 9.397,9.958 9.495,10.056 L11.802,12.363 C12.095,12.656 12.095,13.131 11.802,13.424 L11.102,14.124 C10.942,14.284 11.06,14.557 11.285,14.551 Z"/>
</svg>

