<svg xmlns="http://www.w3.org/2000/svg" viewBox="0 0 24 24">
  <defs/>
  <path fill="#151E28" d="M1.25,12 C1.25,6.063 6.063,1.25 12,1.25 C17.937,1.25 22.75,6.063 22.75,12 C22.75,17.937 17.937,22.75 12,22.75 C6.063,22.75 1.25,17.937 1.25,12 Z M12,2.75 C6.891,2.75 2.75,6.891 2.75,12 C2.75,17.109 6.891,21.25 12,21.25 C17.109,21.25 21.25,17.109 21.25,12 C21.25,6.891 17.109,2.75 12,2.75 Z M12,6.25 C12.414,6.25 12.75,6.586 12.75,7 L12.75,11.189 L14.47,9.47 C14.763,9.177 15.237,9.177 15.53,9.47 C15.823,9.763 15.823,10.238 15.53,10.53 L12.53,13.53 C12.39,13.671 12.199,13.75 12,13.75 C11.801,13.75 11.61,13.671 11.47,13.53 L8.47,10.53 C8.177,10.238 8.177,9.763 8.47,9.47 C8.763,9.177 9.237,9.177 9.53,9.47 L11.25,11.189 L11.25,7 C11.25,6.586 11.586,6.25 12,6.25 Z M8.25,16 C8.25,15.586 8.586,15.25 9,15.25 L15,15.25 C15.414,15.25 15.75,15.586 15.75,16 C15.75,16.414 15.414,16.75 15,16.75 L9,16.75 C8.586,16.75 8.25,16.414 8.25,16 Z"/>
</svg>

