<svg xmlns="http://www.w3.org/2000/svg" viewBox="0 0 24 24">
  <defs/>
  <path fill="#151E28" d="M18,4.25 C18.966,4.25 19.75,5.034 19.75,6 L19.75,16.728 C19.75,18.287 17.865,19.068 16.763,17.965 L14.05,15.253 L11.045,18.258 C10.362,18.942 9.254,18.942 8.57,18.258 L5.742,15.43 C5.058,14.746 5.058,13.638 5.742,12.955 L8.747,9.95 L6.035,7.237 C4.932,6.135 5.713,4.25 7.272,4.25 Z M18.25,6 C18.25,5.862 18.138,5.75 18,5.75 L7.272,5.75 C7.049,5.75 6.938,6.019 7.095,6.177 L10.338,9.419 C10.631,9.712 10.631,10.187 10.338,10.48 L6.802,14.016 C6.705,14.113 6.705,14.271 6.802,14.369 L9.631,17.198 C9.728,17.295 9.887,17.295 9.984,17.198 L13.52,13.662 C13.813,13.369 14.288,13.369 14.58,13.662 L17.823,16.905 C17.981,17.062 18.25,16.951 18.25,16.728 Z M2.913,15.783 C3.206,15.491 3.681,15.491 3.974,15.783 L8.217,20.026 C8.509,20.319 8.509,20.794 8.217,21.087 C7.924,21.38 7.449,21.38 7.156,21.087 L2.913,16.844 C2.62,16.551 2.62,16.076 2.913,15.783 Z"/>
</svg>

