<svg xmlns="http://www.w3.org/2000/svg" viewBox="0 0 24 24">
  <defs/>
  <path fill="#151E28" d="M12,1.25 C17.937,1.25 22.75,6.063 22.75,12 C22.75,17.937 17.937,22.75 12,22.75 C6.063,22.75 1.25,17.937 1.25,12 C1.25,6.063 6.063,1.25 12,1.25 Z M2.75,12 C2.75,17.109 6.891,21.25 12,21.25 C17.109,21.25 21.25,17.109 21.25,12 C21.25,6.891 17.109,2.75 12,2.75 C6.891,2.75 2.75,6.891 2.75,12 Z M9,14.25 L9.2,14.25 C10.052,14.25 10.647,14.249 11.109,14.212 C11.563,14.175 11.824,14.105 12.021,14.005 C12.445,13.789 12.789,13.445 13.005,13.021 C13.105,12.824 13.175,12.563 13.212,12.109 C13.249,11.647 13.25,11.052 13.25,10.2 L13.25,9.811 L12.53,10.53 C12.237,10.823 11.763,10.823 11.47,10.53 C11.177,10.237 11.177,9.763 11.47,9.47 L13.47,7.47 C13.763,7.177 14.237,7.177 14.53,7.47 L16.53,9.47 C16.823,9.763 16.823,10.237 16.53,10.53 C16.237,10.823 15.763,10.823 15.47,10.53 L14.75,9.811 L14.75,10.232 C14.75,11.045 14.75,11.701 14.707,12.231 C14.662,12.778 14.568,13.258 14.341,13.703 C13.982,14.408 13.408,14.982 12.703,15.341 C12.258,15.568 11.778,15.662 11.231,15.707 C10.701,15.75 10.045,15.75 9.232,15.75 L9,15.75 C8.586,15.75 8.25,15.414 8.25,15 C8.25,14.586 8.586,14.25 9,14.25 Z"/>
</svg>

