<svg xmlns="http://www.w3.org/2000/svg" viewBox="0 0 24 24">
  <defs/>
  <path fill="#151E28" d="M12,20.25 L13,20.25 C14.413,20.25 15.427,20.249 16.223,20.184 C17.01,20.12 17.518,19.996 17.93,19.787 C18.729,19.379 19.379,18.729 19.787,17.93 C19.996,17.518 20.12,17.01 20.184,16.223 C20.249,15.427 20.25,14.413 20.25,13 L20.25,11 C20.25,9.587 20.249,8.573 20.184,7.777 C20.12,6.99 19.996,6.482 19.787,6.071 C19.379,5.271 18.729,4.621 17.93,4.213 C17.518,4.004 17.01,3.88 16.223,3.816 C15.427,3.751 14.413,3.75 13,3.75 L12,3.75 C11.586,3.75 11.25,3.414 11.25,3 C11.25,2.586 11.586,2.25 12,2.25 L13.034,2.25 C14.406,2.25 15.481,2.25 16.345,2.321 C17.225,2.393 17.952,2.541 18.61,2.877 C19.692,3.428 20.572,4.308 21.123,5.39 C21.459,6.048 21.608,6.775 21.679,7.655 C21.75,8.519 21.75,9.595 21.75,10.966 L21.75,13.034 C21.75,14.405 21.75,15.481 21.679,16.345 C21.608,17.225 21.459,17.952 21.123,18.61 C20.572,19.692 19.692,20.572 18.61,21.123 C17.952,21.459 17.225,21.608 16.345,21.679 C15.481,21.75 14.405,21.75 13.034,21.75 L12,21.75 C11.586,21.75 11.25,21.414 11.25,21 C11.25,20.586 11.586,20.25 12,20.25 Z M2.47,11.47 L6.47,7.47 C6.763,7.177 7.237,7.177 7.53,7.47 C7.823,7.763 7.823,8.237 7.53,8.53 L4.811,11.25 L16,11.25 C16.414,11.25 16.75,11.586 16.75,12 C16.75,12.414 16.414,12.75 16,12.75 L4.811,12.75 L7.53,15.47 C7.823,15.763 7.823,16.237 7.53,16.53 C7.237,16.823 6.763,16.823 6.47,16.53 L2.47,12.53 C2.177,12.237 2.177,11.763 2.47,11.47 Z"/>
</svg>

