<svg xmlns="http://www.w3.org/2000/svg" viewBox="0 0 24 24">
  <defs/>
  <path fill="#151E28" d="M9.367,2.25 L14.633,2.25 C15.725,2.25 16.591,2.25 17.288,2.307 C18.002,2.365 18.605,2.487 19.156,2.768 C20.05,3.223 20.777,3.95 21.232,4.844 C21.513,5.395 21.635,5.998 21.693,6.712 C21.75,7.409 21.75,8.275 21.75,9.367 L21.75,14.633 C21.75,15.725 21.75,16.591 21.693,17.288 C21.635,18.002 21.513,18.605 21.232,19.156 C20.777,20.05 20.05,20.777 19.156,21.232 C18.605,21.513 18.002,21.635 17.288,21.693 C16.591,21.75 15.725,21.75 14.633,21.75 L9.367,21.75 C8.275,21.75 7.409,21.75 6.712,21.693 C5.998,21.635 5.395,21.513 4.844,21.232 C3.95,20.777 3.223,20.05 2.768,19.156 C2.487,18.605 2.365,18.002 2.307,17.288 C2.25,16.591 2.25,15.725 2.25,14.633 L2.25,9.367 C2.25,8.275 2.25,7.409 2.307,6.712 C2.365,5.998 2.487,5.395 2.768,4.844 C3.223,3.95 3.95,3.223 4.844,2.768 C5.395,2.487 5.998,2.365 6.712,2.307 C7.409,2.25 8.275,2.25 9.367,2.25 Z M6.834,3.802 C6.213,3.853 5.829,3.949 5.525,4.104 C4.913,4.416 4.416,4.913 4.104,5.525 C3.949,5.829 3.853,6.213 3.802,6.834 C3.751,7.463 3.75,8.268 3.75,9.4 L3.75,14.6 C3.75,15.733 3.751,16.537 3.802,17.166 C3.853,17.787 3.949,18.171 4.104,18.476 C4.416,19.087 4.913,19.584 5.525,19.896 C5.829,20.051 6.213,20.147 6.834,20.198 C7.463,20.249 8.268,20.25 9.4,20.25 L14.6,20.25 C15.733,20.25 16.537,20.249 17.166,20.198 C17.787,20.147 18.171,20.051 18.476,19.896 C19.087,19.584 19.584,19.087 19.896,18.476 C20.051,18.171 20.147,17.787 20.198,17.166 C20.249,16.537 20.25,15.733 20.25,14.6 L20.25,9.4 C20.25,8.268 20.249,7.463 20.198,6.834 C20.147,6.213 20.051,5.829 19.896,5.525 C19.584,4.913 19.087,4.416 18.476,4.104 C18.171,3.949 17.787,3.853 17.166,3.802 C16.537,3.751 15.733,3.75 14.6,3.75 L9.4,3.75 C8.268,3.75 7.463,3.751 6.834,3.802 Z M14.773,12.288 L11.811,15.25 L14.243,15.25 C14.657,15.25 14.993,15.586 14.993,16 C14.993,16.414 14.657,16.75 14.243,16.75 L10,16.75 C9.801,16.75 9.61,16.671 9.47,16.53 C9.329,16.39 9.25,16.199 9.25,16 L9.25,11.757 C9.25,11.343 9.586,11.007 10,11.007 C10.414,11.007 10.75,11.343 10.75,11.757 L10.75,14.189 L13.712,11.227 C14.005,10.934 14.48,10.934 14.773,11.227 C15.066,11.52 15.066,11.995 14.773,12.288 Z M9,7.25 L15,7.25 C15.414,7.25 15.75,7.586 15.75,8 C15.75,8.414 15.414,8.75 15,8.75 L9,8.75 C8.586,8.75 8.25,8.414 8.25,8 C8.25,7.586 8.586,7.25 9,7.25 Z"/>
</svg>

