<svg xmlns="http://www.w3.org/2000/svg" viewBox="0 0 24 24">
  <defs/>
  <path fill="#151E28" d="M10.762,21.823 L3.177,14.237 C2.074,13.135 2.855,11.25 4.414,11.25 L8.25,11.25 L8.25,7 C8.25,6.034 9.033,5.25 10,5.25 L14,5.25 C14.966,5.25 15.75,6.034 15.75,7 L15.75,11.25 L19.586,11.25 C21.145,11.25 21.926,13.135 20.823,14.237 L13.237,21.823 C12.554,22.507 11.446,22.507 10.762,21.823 Z M12.177,20.763 L19.763,13.177 C19.92,13.019 19.809,12.75 19.586,12.75 L15,12.75 C14.586,12.75 14.25,12.414 14.25,12 L14.25,7 C14.25,6.862 14.138,6.75 14,6.75 L10,6.75 C9.862,6.75 9.75,6.862 9.75,7 L9.75,12 C9.75,12.414 9.414,12.75 9,12.75 L4.414,12.75 C4.191,12.75 4.08,13.019 4.237,13.177 L11.823,20.763 C11.921,20.86 12.079,20.86 12.177,20.763 Z M8.25,3 C8.25,2.586 8.586,2.25 9,2.25 L15,2.25 C15.414,2.25 15.75,2.586 15.75,3 C15.75,3.414 15.414,3.75 15,3.75 L9,3.75 C8.586,3.75 8.25,3.414 8.25,3 Z"/>
</svg>

