<svg xmlns="http://www.w3.org/2000/svg" viewBox="0 0 24 24">
  <defs/>
  <path fill="#151E28" d="M9.253,2.25 L14.675,2.25 L14.747,2.25 C15.166,2.25 15.495,2.25 15.814,2.326 C16.094,2.393 16.362,2.505 16.608,2.655 C16.888,2.826 17.121,3.06 17.416,3.356 L17.468,3.407 L20.593,6.532 L20.644,6.584 C20.941,6.88 21.174,7.112 21.345,7.392 C21.496,7.638 21.607,7.906 21.674,8.187 C21.75,8.505 21.75,8.834 21.75,9.252 L21.75,14.748 C21.75,15.166 21.75,15.495 21.674,15.814 C21.607,16.094 21.496,16.362 21.345,16.608 C21.174,16.888 20.941,17.121 20.644,17.416 L20.593,17.468 L17.468,20.593 L17.416,20.644 C17.121,20.941 16.888,21.174 16.608,21.345 C16.362,21.496 16.094,21.607 15.814,21.674 C15.495,21.75 15.166,21.75 14.748,21.75 L9.252,21.75 C8.834,21.75 8.505,21.75 8.187,21.674 C7.906,21.607 7.638,21.496 7.392,21.345 C7.112,21.174 6.88,20.941 6.584,20.644 L6.532,20.593 L3.407,17.468 L3.356,17.416 C3.06,17.121 2.826,16.888 2.655,16.608 C2.505,16.362 2.393,16.094 2.326,15.814 C2.25,15.495 2.25,15.166 2.25,14.747 L2.25,14.675 L2.25,9.326 L2.25,9.253 C2.25,8.834 2.25,8.505 2.326,8.187 C2.393,7.906 2.505,7.638 2.655,7.392 C2.826,7.112 3.06,6.88 3.356,6.584 L3.407,6.532 L6.532,3.407 L6.584,3.356 C6.88,3.06 7.112,2.826 7.392,2.655 C7.638,2.505 7.906,2.393 8.187,2.326 C8.505,2.25 8.834,2.25 9.253,2.25 Z M9.326,3.75 C8.801,3.75 8.66,3.755 8.537,3.785 C8.409,3.815 8.287,3.866 8.175,3.934 C8.067,4.001 7.964,4.096 7.593,4.468 L4.468,7.593 C4.096,7.964 4.001,8.067 3.934,8.175 C3.866,8.287 3.815,8.409 3.785,8.537 C3.755,8.66 3.75,8.801 3.75,9.326 L3.75,14.675 C3.75,15.2 3.755,15.34 3.785,15.463 C3.815,15.591 3.866,15.713 3.934,15.825 C4.001,15.933 4.096,16.036 4.468,16.407 L7.593,19.532 C7.964,19.904 8.067,19.999 8.175,20.066 C8.287,20.134 8.409,20.185 8.537,20.215 C8.66,20.245 8.801,20.25 9.326,20.25 L14.675,20.25 C15.2,20.25 15.34,20.245 15.463,20.215 C15.591,20.185 15.713,20.134 15.825,20.066 C15.933,19.999 16.036,19.904 16.407,19.532 L19.532,16.407 C19.904,16.036 19.999,15.933 20.066,15.825 C20.134,15.713 20.185,15.591 20.215,15.463 C20.245,15.34 20.25,15.2 20.25,14.675 L20.25,9.326 C20.25,8.801 20.245,8.66 20.215,8.537 C20.185,8.409 20.134,8.287 20.066,8.175 C19.999,8.067 19.904,7.964 19.532,7.593 L16.407,4.468 C16.036,4.096 15.933,4.001 15.825,3.934 C15.713,3.866 15.591,3.815 15.463,3.785 C15.34,3.755 15.2,3.75 14.675,3.75 Z M12.75,16 C12.75,16.414 12.414,16.75 12,16.75 L11.17,16.75 C10.635,16.75 10.19,16.75 9.825,16.72 C9.446,16.689 9.089,16.622 8.752,16.45 C8.234,16.187 7.813,15.766 7.55,15.248 C7.378,14.911 7.311,14.555 7.28,14.175 C7.25,13.811 7.25,13.365 7.25,12.831 L7.25,11.17 C7.25,10.635 7.25,10.19 7.28,9.825 C7.311,9.446 7.378,9.089 7.55,8.752 C7.813,8.234 8.234,7.813 8.752,7.55 C9.089,7.378 9.446,7.311 9.825,7.28 C10.19,7.25 10.635,7.25 11.17,7.25 L12,7.25 C12.414,7.25 12.75,7.586 12.75,8 C12.75,8.414 12.414,8.75 12,8.75 L11.2,8.75 C10.628,8.75 10.243,8.751 9.948,8.775 C9.66,8.798 9.523,8.84 9.433,8.886 C9.197,9.006 9.006,9.197 8.886,9.433 C8.84,9.523 8.798,9.66 8.775,9.948 C8.751,10.243 8.75,10.628 8.75,11.2 L8.75,12.8 C8.75,13.373 8.751,13.757 8.775,14.053 C8.798,14.34 8.84,14.477 8.886,14.568 C9.006,14.803 9.197,14.994 9.433,15.114 C9.523,15.16 9.66,15.202 9.948,15.225 C10.243,15.25 10.628,15.25 11.2,15.25 L12,15.25 C12.414,15.25 12.75,15.586 12.75,16 Z M10.449,11.491 L12.295,9.491 C12.576,9.187 13.051,9.168 13.355,9.449 C13.659,9.73 13.678,10.204 13.397,10.509 L12.713,11.25 L16,11.25 C16.414,11.25 16.75,11.586 16.75,12 C16.75,12.414 16.414,12.75 16,12.75 L12.713,12.75 L13.397,13.491 C13.678,13.796 13.659,14.27 13.355,14.551 C13.051,14.832 12.576,14.813 12.295,14.509 L10.449,12.509 C10.184,12.222 10.184,11.779 10.449,11.491 Z"/>
</svg>

