<svg xmlns="http://www.w3.org/2000/svg" viewBox="0 0 24 24">
  <defs/>
  <path fill="#151E28" d="M9.367,2.25 L14.633,2.25 C15.725,2.25 16.591,2.25 17.288,2.307 C18.002,2.365 18.605,2.487 19.156,2.768 C20.05,3.223 20.777,3.95 21.232,4.844 C21.513,5.395 21.635,5.998 21.693,6.712 C21.75,7.409 21.75,8.275 21.75,9.367 L21.75,14.633 C21.75,15.725 21.75,16.591 21.693,17.288 C21.635,18.002 21.513,18.605 21.232,19.156 C20.777,20.05 20.05,20.777 19.156,21.232 C18.605,21.513 18.002,21.635 17.288,21.693 C16.591,21.75 15.725,21.75 14.633,21.75 L9.367,21.75 C8.275,21.75 7.409,21.75 6.712,21.693 C5.998,21.635 5.395,21.513 4.844,21.232 C3.95,20.777 3.223,20.05 2.768,19.156 C2.487,18.605 2.365,18.002 2.307,17.288 C2.25,16.591 2.25,15.725 2.25,14.633 L2.25,9.367 C2.25,8.275 2.25,7.409 2.307,6.712 C2.365,5.998 2.487,5.395 2.768,4.844 C3.223,3.95 3.95,3.223 4.844,2.768 C5.395,2.487 5.998,2.365 6.712,2.307 C7.409,2.25 8.275,2.25 9.367,2.25 Z M5.525,4.104 C4.913,4.416 4.416,4.913 4.104,5.525 C3.949,5.829 3.853,6.213 3.802,6.834 C3.751,7.463 3.75,8.268 3.75,9.4 L3.75,14.6 C3.75,15.733 3.751,16.537 3.802,17.166 C3.853,17.787 3.949,18.171 4.104,18.476 C4.416,19.087 4.913,19.584 5.525,19.896 C5.829,20.051 6.213,20.147 6.834,20.198 C7.463,20.249 8.268,20.25 9.4,20.25 L14.6,20.25 C15.733,20.25 16.537,20.249 17.166,20.198 C17.787,20.147 18.171,20.051 18.476,19.896 C19.087,19.584 19.584,19.087 19.896,18.476 C20.051,18.171 20.147,17.787 20.198,17.166 C20.249,16.537 20.25,15.733 20.25,14.6 L20.25,9.4 C20.25,8.268 20.249,7.463 20.198,6.834 C20.147,6.213 20.051,5.829 19.896,5.525 C19.584,4.913 19.087,4.416 18.476,4.104 C18.171,3.949 17.787,3.853 17.166,3.802 C16.537,3.751 15.733,3.75 14.6,3.75 L9.4,3.75 C8.268,3.75 7.463,3.751 6.834,3.802 C6.213,3.853 5.829,3.949 5.525,4.104 Z M9.245,8.043 L12.674,7.95 C14.255,7.907 15.077,9.818 13.959,10.937 L13.789,11.107 L14.152,11.47 C14.835,12.153 14.835,13.261 14.152,13.945 L13.444,14.652 C12.761,15.335 11.653,15.335 10.97,14.652 L10.607,14.289 L10.437,14.459 C9.318,15.577 7.407,14.755 7.45,13.174 L7.543,9.745 C7.568,8.815 8.315,8.068 9.245,8.043 Z M9.042,9.785 L8.949,13.215 C8.943,13.441 9.216,13.558 9.376,13.398 L10.076,12.698 C10.369,12.405 10.844,12.405 11.137,12.698 L12.03,13.591 C12.128,13.689 12.286,13.689 12.384,13.591 L13.091,12.884 C13.189,12.786 13.189,12.628 13.091,12.53 L12.198,11.637 C11.905,11.344 11.905,10.869 12.198,10.576 L12.898,9.876 C13.058,9.716 12.941,9.443 12.715,9.449 L9.285,9.542 C9.153,9.546 9.046,9.653 9.042,9.785 Z M13.091,15.712 L15.212,13.591 C15.505,13.298 15.98,13.298 16.273,13.591 C16.566,13.884 16.566,14.359 16.273,14.652 L14.152,16.773 C13.859,17.066 13.384,17.066 13.091,16.773 C12.798,16.48 12.798,16.005 13.091,15.712 Z"/>
</svg>

