<svg xmlns="http://www.w3.org/2000/svg" viewBox="0 0 24 24">
  <defs/>
  <path fill="#151E28" d="M13.117,2.479 C13.602,2.695 13.961,3.093 14.285,3.55 C14.606,4.004 14.961,4.617 15.399,5.375 L15.418,5.408 L20.868,14.821 L20.887,14.854 C21.327,15.614 21.684,16.229 21.918,16.736 C22.154,17.245 22.321,17.756 22.266,18.285 C22.185,19.061 21.779,19.766 21.148,20.224 C20.718,20.537 20.192,20.648 19.633,20.699 C19.077,20.75 18.366,20.75 17.488,20.75 L6.512,20.75 C5.634,20.75 4.923,20.75 4.367,20.699 C3.808,20.648 3.282,20.537 2.852,20.224 C2.221,19.766 1.815,19.061 1.734,18.285 C1.679,17.756 1.846,17.245 2.082,16.736 C2.316,16.229 2.673,15.614 3.113,14.854 L3.132,14.821 L8.582,5.408 L8.601,5.375 C9.039,4.618 9.394,4.004 9.715,3.55 C10.039,3.093 10.398,2.695 10.883,2.479 C11.594,2.163 12.406,2.163 13.117,2.479 Z M11.492,3.85 C11.384,3.898 11.219,4.023 10.94,4.417 C10.663,4.808 10.342,5.361 9.88,6.159 L4.43,15.572 C3.966,16.373 3.645,16.929 3.444,17.365 C3.24,17.805 3.213,18.012 3.226,18.13 C3.262,18.482 3.447,18.802 3.734,19.011 C3.829,19.081 4.022,19.161 4.504,19.205 C4.983,19.249 5.625,19.25 6.55,19.25 L17.45,19.25 C18.375,19.25 19.017,19.249 19.496,19.205 C19.978,19.161 20.17,19.081 20.266,19.011 C20.553,18.802 20.738,18.482 20.774,18.13 C20.787,18.012 20.76,17.805 20.556,17.365 C20.355,16.929 20.034,16.373 19.57,15.572 L14.12,6.159 C13.658,5.361 13.337,4.808 13.06,4.417 C12.781,4.023 12.616,3.898 12.508,3.85 C12.184,3.706 11.815,3.706 11.492,3.85 Z M13.204,17.393 C12.529,18.032 11.472,18.032 10.797,17.393 L8.306,15.034 C7.158,13.946 7.928,12.013 9.51,12.013 L9.75,12.013 L9.75,9.5 C9.75,8.533 10.534,7.75 11.5,7.75 L12.5,7.75 C13.467,7.75 14.25,8.533 14.25,9.5 L14.25,12.013 L14.491,12.013 C16.073,12.013 16.843,13.946 15.694,15.034 Z M11.828,16.304 C11.925,16.395 12.076,16.395 12.172,16.304 L14.662,13.945 C14.826,13.789 14.717,13.513 14.491,13.513 L13.5,13.513 C13.086,13.513 12.75,13.177 12.75,12.763 L12.75,9.5 C12.75,9.362 12.638,9.25 12.5,9.25 L11.5,9.25 C11.362,9.25 11.25,9.362 11.25,9.5 L11.25,12.763 C11.25,13.177 10.914,13.513 10.5,13.513 L9.51,13.513 C9.284,13.513 9.174,13.789 9.338,13.945 Z"/>
</svg>

