<svg xmlns="http://www.w3.org/2000/svg" viewBox="0 0 24 24">
  <defs/>
  <path fill="#151E28" d="M12,1.25 C17.937,1.25 22.75,6.063 22.75,12 C22.75,17.937 17.937,22.75 12,22.75 C6.063,22.75 1.25,17.937 1.25,12 C1.25,6.063 6.063,1.25 12,1.25 Z M2.75,12 C2.75,17.109 6.891,21.25 12,21.25 C17.109,21.25 21.25,17.109 21.25,12 C21.25,6.891 17.109,2.75 12,2.75 C6.891,2.75 2.75,6.891 2.75,12 Z M8.53,10.53 C8.237,10.823 7.763,10.823 7.47,10.53 C7.177,10.237 7.177,9.763 7.47,9.47 L9.47,7.47 C9.763,7.177 10.237,7.177 10.53,7.47 L12.53,9.47 C12.823,9.763 12.823,10.237 12.53,10.53 C12.237,10.823 11.763,10.823 11.47,10.53 L10.75,9.811 L10.75,13 C10.75,14.243 11.757,15.25 13,15.25 C14.243,15.25 15.25,14.243 15.25,13 L15.25,11 C15.25,10.586 15.586,10.25 16,10.25 C16.414,10.25 16.75,10.586 16.75,11 L16.75,13 C16.75,15.071 15.071,16.75 13,16.75 C10.929,16.75 9.25,15.071 9.25,13 L9.25,9.811 Z"/>
</svg>

