<svg xmlns="http://www.w3.org/2000/svg" viewBox="0 0 24 24">
  <defs/>
  <path fill="#151E28" d="M12,1.25 C17.937,1.25 22.75,6.063 22.75,12 C22.75,17.937 17.937,22.75 12,22.75 C6.063,22.75 1.25,17.937 1.25,12 C1.25,6.063 6.063,1.25 12,1.25 Z M2.75,12 C2.75,17.109 6.891,21.25 12,21.25 C17.109,21.25 21.25,17.109 21.25,12 C21.25,6.891 17.109,2.75 12,2.75 C6.891,2.75 2.75,6.891 2.75,12 Z M15,9.75 L14.8,9.75 C13.948,9.75 13.353,9.751 12.891,9.788 C12.437,9.825 12.176,9.895 11.979,9.995 C11.555,10.211 11.211,10.555 10.995,10.979 C10.895,11.176 10.825,11.437 10.788,11.891 C10.751,12.353 10.75,12.948 10.75,13.8 L10.75,14.189 L11.47,13.47 C11.763,13.177 12.237,13.177 12.53,13.47 C12.823,13.763 12.823,14.237 12.53,14.53 L10.53,16.53 C10.237,16.823 9.763,16.823 9.47,16.53 L7.47,14.53 C7.177,14.237 7.177,13.763 7.47,13.47 C7.763,13.177 8.237,13.177 8.53,13.47 L9.25,14.189 L9.25,13.768 C9.25,12.955 9.25,12.299 9.293,11.769 C9.338,11.222 9.432,10.742 9.659,10.297 C10.018,9.592 10.592,9.018 11.297,8.659 C11.742,8.432 12.222,8.338 12.769,8.293 C13.299,8.25 13.955,8.25 14.768,8.25 L15,8.25 C15.414,8.25 15.75,8.586 15.75,9 C15.75,9.414 15.414,9.75 15,9.75 Z"/>
</svg>

