<svg xmlns="http://www.w3.org/2000/svg" viewBox="0 0 24 24">
  <defs/>
  <path fill="#151E28" d="M12,1.25 C17.937,1.25 22.75,6.063 22.75,12 C22.75,17.937 17.937,22.75 12,22.75 C6.063,22.75 1.25,17.937 1.25,12 C1.25,6.063 6.063,1.25 12,1.25 Z M2.75,12 C2.75,17.109 6.891,21.25 12,21.25 C17.109,21.25 21.25,17.109 21.25,12 C21.25,6.891 17.109,2.75 12,2.75 C6.891,2.75 2.75,6.891 2.75,12 Z M16.75,10 L16.75,13.476 C16.75,15.062 14.811,15.83 13.725,14.675 L13.619,14.563 L13.273,14.909 C12.59,15.592 11.481,15.592 10.798,14.909 L10.091,14.202 C9.408,13.519 9.408,12.41 10.091,11.727 L10.437,11.381 L10.325,11.275 C9.17,10.189 9.938,8.25 11.524,8.25 L15,8.25 C15.967,8.25 16.75,9.033 16.75,10 Z M15,9.75 L11.524,9.75 C11.297,9.75 11.187,10.027 11.352,10.182 L12.028,10.818 C12.176,10.957 12.261,11.15 12.264,11.353 C12.268,11.556 12.188,11.751 12.045,11.894 L11.152,12.788 C11.054,12.885 11.054,13.044 11.152,13.141 L11.859,13.848 C11.956,13.946 12.115,13.946 12.212,13.848 L13.106,12.955 C13.249,12.812 13.444,12.733 13.647,12.736 C13.85,12.739 14.043,12.824 14.182,12.972 L14.818,13.648 C14.973,13.813 15.25,13.703 15.25,13.476 L15.25,10 C15.25,9.862 15.138,9.75 15,9.75 Z M9.03,13.848 L11.152,15.97 C11.445,16.263 11.445,16.737 11.152,17.03 C10.859,17.323 10.384,17.323 10.091,17.03 L7.97,14.909 C7.677,14.616 7.677,14.141 7.97,13.848 C8.263,13.556 8.737,13.556 9.03,13.848 Z"/>
</svg>

