<svg xmlns="http://www.w3.org/2000/svg" viewBox="0 0 24 24">
  <defs/>
  <path fill="#151E28" d="M12,1.25 C17.937,1.25 22.75,6.063 22.75,12 C22.75,17.937 17.937,22.75 12,22.75 C6.063,22.75 1.25,17.937 1.25,12 C1.25,6.063 6.063,1.25 12,1.25 Z M2.75,12 C2.75,17.109 6.891,21.25 12,21.25 C17.109,21.25 21.25,17.109 21.25,12 C21.25,6.891 17.109,2.75 12,2.75 C6.891,2.75 2.75,6.891 2.75,12 Z M13.204,16.393 C12.529,17.032 11.472,17.032 10.797,16.393 L8.306,14.034 C7.158,12.946 7.928,11.013 9.51,11.013 L9.75,11.013 L9.75,10.5 C9.75,9.533 10.534,8.75 11.5,8.75 L12.5,8.75 C13.467,8.75 14.25,9.533 14.25,10.5 L14.25,11.013 L14.491,11.013 C16.073,11.013 16.843,12.946 15.694,14.034 Z M11.828,15.304 C11.925,15.395 12.076,15.395 12.172,15.304 L14.662,12.945 C14.826,12.789 14.717,12.513 14.491,12.513 L13.5,12.513 C13.086,12.513 12.75,12.177 12.75,11.763 L12.75,10.5 C12.75,10.362 12.638,10.25 12.5,10.25 L11.5,10.25 C11.362,10.25 11.25,10.362 11.25,10.5 L11.25,11.763 C11.25,12.177 10.914,12.513 10.5,12.513 L9.51,12.513 C9.284,12.513 9.174,12.789 9.338,12.945 Z M10.5,8.25 C10.086,8.25 9.75,7.914 9.75,7.5 C9.75,7.086 10.086,6.75 10.5,6.75 L13.5,6.75 C13.914,6.75 14.25,7.086 14.25,7.5 C14.25,7.914 13.914,8.25 13.5,8.25 Z"/>
</svg>

