<svg xmlns="http://www.w3.org/2000/svg" viewBox="0 0 24 24">
  <defs/>
  <path fill="#151E28" d="M9.367,2.25 L14.633,2.25 C15.725,2.25 16.591,2.25 17.288,2.307 C18.002,2.365 18.605,2.487 19.156,2.768 C20.05,3.223 20.777,3.95 21.232,4.844 C21.513,5.395 21.635,5.998 21.693,6.712 C21.75,7.409 21.75,8.275 21.75,9.367 L21.75,14.633 C21.75,15.725 21.75,16.591 21.693,17.288 C21.635,18.002 21.513,18.605 21.232,19.156 C20.777,20.05 20.05,20.777 19.156,21.232 C18.605,21.513 18.002,21.635 17.288,21.693 C16.591,21.75 15.725,21.75 14.633,21.75 L9.367,21.75 C8.275,21.75 7.409,21.75 6.712,21.693 C5.998,21.635 5.395,21.513 4.844,21.232 C3.95,20.777 3.223,20.05 2.768,19.156 C2.487,18.605 2.365,18.002 2.307,17.288 C2.25,16.591 2.25,15.725 2.25,14.633 L2.25,9.367 C2.25,8.275 2.25,7.409 2.307,6.712 C2.365,5.998 2.487,5.395 2.768,4.844 C3.223,3.95 3.95,3.223 4.844,2.768 C5.395,2.487 5.998,2.365 6.712,2.307 C7.409,2.25 8.275,2.25 9.367,2.25 Z M5.525,4.104 C4.913,4.416 4.416,4.913 4.104,5.525 C3.949,5.829 3.853,6.213 3.802,6.834 C3.751,7.463 3.75,8.268 3.75,9.4 L3.75,14.6 C3.75,15.733 3.751,16.537 3.802,17.166 C3.853,17.787 3.949,18.171 4.104,18.476 C4.416,19.087 4.913,19.584 5.525,19.896 C5.829,20.051 6.213,20.147 6.834,20.198 C7.463,20.249 8.268,20.25 9.4,20.25 L14.6,20.25 C15.733,20.25 16.537,20.249 17.166,20.198 C17.787,20.147 18.171,20.051 18.476,19.896 C19.087,19.584 19.584,19.087 19.896,18.476 C20.051,18.171 20.147,17.787 20.198,17.166 C20.249,16.537 20.25,15.733 20.25,14.6 L20.25,9.4 C20.25,8.268 20.249,7.463 20.198,6.834 C20.147,6.213 20.051,5.829 19.896,5.525 C19.584,4.913 19.087,4.416 18.476,4.104 C18.171,3.949 17.787,3.853 17.166,3.802 C16.537,3.751 15.733,3.75 14.6,3.75 L9.4,3.75 C8.268,3.75 7.463,3.751 6.834,3.802 C6.213,3.853 5.829,3.949 5.525,4.104 Z M12,9.25 C12.495,9.25 12.959,9.381 13.36,9.609 C13.492,9.394 13.729,9.25 14,9.25 C14.414,9.25 14.75,9.586 14.75,10 L14.75,12.5 C14.75,12.914 15.086,13.25 15.5,13.25 C15.914,13.25 16.25,12.914 16.25,12.5 L16.25,12 C16.25,9.653 14.347,7.75 12,7.75 C9.653,7.75 7.75,9.653 7.75,12 C7.75,14.347 9.653,16.25 12,16.25 C12.68,16.25 13.32,16.091 13.888,15.809 C14.259,15.624 14.71,15.776 14.894,16.146 C15.078,16.517 14.927,16.968 14.556,17.152 C13.785,17.535 12.917,17.75 12,17.75 C8.824,17.75 6.25,15.176 6.25,12 C6.25,8.824 8.824,6.25 12,6.25 C15.176,6.25 17.75,8.824 17.75,12 L17.75,12.5 C17.75,13.743 16.743,14.75 15.5,14.75 C14.849,14.75 14.263,14.474 13.852,14.032 C13.364,14.478 12.714,14.75 12,14.75 C10.481,14.75 9.25,13.519 9.25,12 C9.25,10.481 10.481,9.25 12,9.25 Z M10.75,12 C10.75,12.69 11.31,13.25 12,13.25 C12.69,13.25 13.25,12.69 13.25,12 C13.25,11.31 12.69,10.75 12,10.75 C11.31,10.75 10.75,11.31 10.75,12 Z"/>
</svg>

