<svg xmlns="http://www.w3.org/2000/svg" viewBox="0 0 24 24">
  <defs/>
  <path fill="#151E28" d="M12.319,20.679 L12.308,20.684 C12.212,20.727 12.107,20.75 12,20.75 C11.948,20.75 11.896,20.745 11.845,20.734 C11.787,20.722 11.732,20.703 11.681,20.679 L9.499,19.709 C8.076,19.077 6.536,18.75 4.98,18.75 C3.472,18.75 2.25,17.528 2.25,16.021 L2.25,5.98 C2.25,4.472 3.472,3.25 4.98,3.25 C6.746,3.25 8.493,3.621 10.108,4.338 L12,5.179 L13.892,4.338 C15.507,3.621 17.254,3.25 19.021,3.25 C20.528,3.25 21.75,4.472 21.75,5.98 L21.75,16.021 C21.75,17.528 20.528,18.75 19.021,18.75 C17.464,18.75 15.924,19.077 14.501,19.709 Z M4.98,4.75 C4.3,4.75 3.75,5.3 3.75,5.98 L3.75,16.021 C3.75,16.699 4.3,17.25 4.98,17.25 C6.746,17.25 8.493,17.621 10.108,18.338 L11.25,18.846 L11.25,6.487 L9.499,5.709 C8.076,5.077 6.536,4.75 4.98,4.75 Z M12.75,18.846 L13.892,18.338 C15.507,17.621 17.254,17.25 19.021,17.25 C19.699,17.25 20.25,16.699 20.25,16.021 L20.25,5.98 C20.25,5.3 19.699,4.75 19.021,4.75 C17.464,4.75 15.924,5.077 14.501,5.709 L12.75,6.487 Z"/>
</svg>

