<svg xmlns="http://www.w3.org/2000/svg" viewBox="0 0 24 24">
  <defs/>
  <path fill="#151E28" d="M12,2.25 C17.385,2.25 21.75,6.615 21.75,12 C21.75,17.385 17.385,21.75 12,21.75 C6.615,21.75 2.25,17.385 2.25,12 C2.25,6.615 6.615,2.25 12,2.25 Z M3.75,12 C3.75,16.556 7.444,20.25 12,20.25 C16.556,20.25 20.25,16.556 20.25,12 C20.25,7.444 16.556,3.75 12,3.75 C7.444,3.75 3.75,7.444 3.75,12 Z M14,7.25 C15.519,7.25 16.75,8.481 16.75,10 L16.75,14 C16.75,15.519 15.519,16.75 14,16.75 C13.586,16.75 13.25,16.414 13.25,16 C13.25,15.586 13.586,15.25 14,15.25 C14.69,15.25 15.25,14.69 15.25,14 L15.25,10 C15.25,9.31 14.69,8.75 14,8.75 C13.586,8.75 13.25,8.414 13.25,8 C13.25,7.586 13.586,7.25 14,7.25 Z M10,7.25 C10.414,7.25 10.75,7.586 10.75,8 C10.75,8.414 10.414,8.75 10,8.75 C9.31,8.75 8.75,9.31 8.75,10 L8.75,14 C8.75,14.69 9.31,15.25 10,15.25 C10.414,15.25 10.75,15.586 10.75,16 C10.75,16.414 10.414,16.75 10,16.75 C8.481,16.75 7.25,15.519 7.25,14 L7.25,10 C7.25,8.481 8.481,7.25 10,7.25 Z"/>
</svg>

