<svg xmlns="http://www.w3.org/2000/svg" viewBox="0 0 24 24">
  <defs/>
  <path fill="#151E28" d="M7.309,5.25 C7.668,2.983 9.632,1.25 12,1.25 C14.368,1.25 16.331,2.983 16.691,5.25 L18,5.25 C20.623,5.25 22.75,7.377 22.75,10 C22.75,11.519 21.519,12.75 20,12.75 L16.75,12.75 L16.75,13 C16.75,13.414 16.414,13.75 16,13.75 C15.586,13.75 15.25,13.414 15.25,13 L15.25,12.75 L8.75,12.75 L8.75,13 C8.75,13.414 8.414,13.75 8,13.75 C7.586,13.75 7.25,13.414 7.25,13 L7.25,12.75 L4,12.75 C2.481,12.75 1.25,11.519 1.25,10 C1.25,7.377 3.377,5.25 6,5.25 Z M16.75,11.25 L20,11.25 C20.69,11.25 21.25,10.69 21.25,10 C21.25,8.205 19.795,6.75 18,6.75 L6,6.75 C4.205,6.75 2.75,8.205 2.75,10 C2.75,10.69 3.31,11.25 4,11.25 L7.25,11.25 L7.25,11 C7.25,10.586 7.586,10.25 8,10.25 C8.414,10.25 8.75,10.586 8.75,11 L8.75,11.25 L15.25,11.25 L15.25,11 C15.25,10.586 15.586,10.25 16,10.25 C16.414,10.25 16.75,10.586 16.75,11 Z M3,13.25 C3.414,13.25 3.75,13.586 3.75,14 L3.75,14.6 C3.75,15.733 3.751,16.537 3.802,17.166 C3.853,17.787 3.949,18.171 4.104,18.476 C4.416,19.087 4.913,19.584 5.525,19.896 C5.829,20.051 6.213,20.147 6.834,20.198 C7.463,20.249 8.268,20.25 9.4,20.25 L14.6,20.25 C15.733,20.25 16.537,20.249 17.166,20.198 C17.787,20.147 18.171,20.051 18.476,19.896 C19.087,19.584 19.584,19.087 19.896,18.476 C20.051,18.171 20.147,17.787 20.198,17.166 C20.249,16.537 20.25,15.733 20.25,14.6 L20.25,14 C20.25,13.586 20.586,13.25 21,13.25 C21.414,13.25 21.75,13.586 21.75,14 L21.75,14.633 C21.75,15.725 21.75,16.591 21.693,17.288 C21.635,18.002 21.513,18.605 21.232,19.156 C20.777,20.05 20.05,20.777 19.156,21.232 C18.605,21.513 18.002,21.635 17.288,21.693 C16.591,21.75 15.725,21.75 14.633,21.75 L9.367,21.75 C8.275,21.75 7.409,21.75 6.712,21.693 C5.998,21.635 5.395,21.513 4.844,21.232 C3.95,20.777 3.223,20.05 2.768,19.156 C2.487,18.605 2.365,18.002 2.307,17.288 C2.25,16.591 2.25,15.725 2.25,14.633 L2.25,14 C2.25,13.586 2.586,13.25 3,13.25 Z M8.837,5.25 L15.163,5.25 C14.825,3.817 13.537,2.75 12,2.75 C10.463,2.75 9.176,3.817 8.837,5.25 Z"/>
</svg>

