<svg xmlns="http://www.w3.org/2000/svg" viewBox="0 0 24 24">
  <defs/>
  <path fill="#151E28" d="M9.768,1.25 L14.232,1.25 C15.045,1.25 15.701,1.25 16.232,1.293 C16.778,1.338 17.258,1.432 17.702,1.659 C18.408,2.018 18.982,2.592 19.341,3.298 C19.568,3.742 19.662,4.222 19.707,4.769 C19.75,5.299 19.75,5.955 19.75,6.768 L19.75,10.92 C19.75,12.474 18.935,13.914 17.603,14.713 L15.961,15.698 C15.275,16.11 14.91,16.899 15.042,17.688 L15.247,18.917 C15.581,20.924 14.034,22.75 12,22.75 C9.966,22.75 8.419,20.924 8.753,18.917 L8.958,17.688 C9.09,16.899 8.725,16.11 8.039,15.698 L6.397,14.713 C5.065,13.914 4.25,12.474 4.25,10.92 L4.25,6.768 C4.25,5.955 4.25,5.299 4.293,4.769 C4.338,4.222 4.432,3.742 4.659,3.298 C5.018,2.592 5.592,2.018 6.298,1.659 C6.742,1.432 7.222,1.338 7.769,1.293 C8.107,1.266 8.496,1.256 8.944,1.252 C8.962,1.251 8.981,1.25 9,1.25 C9.015,1.25 9.03,1.25 9.045,1.251 C9.271,1.25 9.512,1.25 9.768,1.25 Z M12.25,2.75 L9.75,2.75 L9.75,6 C9.75,6.414 9.414,6.75 9,6.75 C8.586,6.75 8.25,6.414 8.25,6 L8.25,2.767 C8.121,2.772 8.002,2.779 7.891,2.788 C7.437,2.825 7.176,2.895 6.979,2.995 C6.555,3.211 6.211,3.555 5.995,3.979 C5.895,4.176 5.825,4.437 5.788,4.891 C5.751,5.353 5.75,5.948 5.75,6.8 L5.75,9.25 L18.25,9.25 L18.25,6.8 C18.25,5.948 18.249,5.353 18.212,4.891 C18.174,4.437 18.105,4.176 18.005,3.979 C17.789,3.555 17.445,3.211 17.021,2.995 C16.824,2.895 16.563,2.825 16.109,2.788 C15.647,2.751 15.052,2.75 14.2,2.75 L13.75,2.75 L13.75,4 C13.75,4.414 13.414,4.75 13,4.75 C12.586,4.75 12.25,4.414 12.25,4 Z M5.75,10.75 L5.75,10.92 C5.75,11.947 6.289,12.899 7.169,13.427 L8.811,14.412 C10.025,15.141 10.671,16.538 10.438,17.935 L10.233,19.164 C10.051,20.256 10.893,21.25 12,21.25 C13.107,21.25 13.949,20.256 13.767,19.164 L13.562,17.935 C13.329,16.538 13.975,15.141 15.189,14.412 L16.831,13.427 C17.711,12.899 18.25,11.947 18.25,10.92 L18.25,10.75 Z"/>
</svg>

