<svg xmlns="http://www.w3.org/2000/svg" viewBox="0 0 24 24">
  <defs/>
  <path fill="#151E28" d="M10.255,2.25 L13.745,2.25 C15.415,2.25 16.897,3.318 17.424,4.902 C17.517,5.179 17.751,5.385 18.037,5.443 L18.102,5.455 C20.805,5.996 22.75,8.369 22.75,11.125 L22.75,13.427 C22.75,14.887 22.75,15.75 22.585,16.484 C22.012,19.026 20.026,21.012 17.484,21.585 C16.75,21.75 15.887,21.75 14.427,21.75 L9.573,21.75 C8.113,21.75 7.25,21.75 6.516,21.585 C3.974,21.012 1.988,19.026 1.415,16.484 C1.25,15.75 1.25,14.886 1.25,13.426 L1.25,11.125 C1.25,8.369 3.196,5.996 5.898,5.455 L5.963,5.443 C6.249,5.385 6.483,5.179 6.576,4.902 C7.103,3.318 8.585,2.25 10.255,2.25 Z M7.999,5.376 C7.736,6.164 7.071,6.751 6.257,6.913 L6.193,6.926 C4.191,7.327 2.75,9.084 2.75,11.125 L2.75,13.307 C2.75,14.921 2.755,15.605 2.878,16.154 C3.324,18.132 4.868,19.676 6.846,20.122 C7.395,20.245 8.079,20.25 9.693,20.25 L14.307,20.25 C15.921,20.25 16.605,20.245 17.154,20.122 C19.132,19.676 20.676,18.132 21.122,16.154 C21.245,15.605 21.25,14.921 21.25,13.307 L21.25,11.125 C21.25,9.084 19.809,7.327 17.808,6.926 L17.743,6.913 C16.929,6.751 16.264,6.164 16.001,5.376 C15.678,4.405 14.769,3.75 13.745,3.75 L10.255,3.75 C9.231,3.75 8.322,4.405 7.999,5.376 Z M11.7,8.75 L12.3,8.75 C14.481,8.75 16.25,10.519 16.25,12.7 L16.25,13.3 C16.25,15.481 14.481,17.25 12.3,17.25 L11.7,17.25 C9.518,17.25 7.75,15.481 7.75,13.3 L7.75,12.7 C7.75,10.519 9.518,8.75 11.7,8.75 Z M9.25,12.7 L9.25,13.3 C9.25,14.653 10.347,15.75 11.7,15.75 L12.3,15.75 C13.653,15.75 14.75,14.653 14.75,13.3 L14.75,12.7 C14.75,11.347 13.653,10.25 12.3,10.25 L11.7,10.25 C10.347,10.25 9.25,11.347 9.25,12.7 Z"/>
</svg>

