<svg xmlns="http://www.w3.org/2000/svg" viewBox="0 0 24 24">
  <defs/>
  <path fill="#151E28" d="M2.53,1.47 L22.53,21.47 C22.823,21.763 22.823,22.237 22.53,22.53 C22.237,22.823 21.763,22.823 21.47,22.53 L19.63,20.691 C18.983,21.104 18.259,21.41 17.484,21.585 C16.75,21.75 15.887,21.75 14.427,21.75 L9.573,21.75 C8.113,21.75 7.25,21.75 6.516,21.585 C3.974,21.012 1.988,19.026 1.415,16.484 C1.25,15.75 1.25,14.886 1.25,13.426 L1.25,13.426 L1.25,13.307 L1.25,11.126 C1.25,8.778 2.662,6.708 4.751,5.812 L1.47,2.53 C1.177,2.237 1.177,1.763 1.47,1.47 C1.763,1.177 2.237,1.177 2.53,1.47 Z M18.536,19.597 L15.062,16.123 C14.351,16.82 13.376,17.25 12.3,17.25 L11.7,17.25 C9.518,17.25 7.75,15.482 7.75,13.3 L7.75,12.7 C7.75,11.624 8.18,10.649 8.877,9.937 L5.927,6.988 C4.065,7.484 2.75,9.176 2.75,11.126 L2.75,13.307 C2.75,14.921 2.755,15.605 2.878,16.154 C3.324,18.132 4.868,19.676 6.846,20.122 C7.395,20.245 8.079,20.25 9.693,20.25 L14.307,20.25 C15.921,20.25 16.605,20.245 17.154,20.122 C17.645,20.011 18.109,19.833 18.536,19.597 Z M10.255,3.75 C9.767,3.75 9.306,3.899 8.921,4.159 C8.578,4.392 8.111,4.302 7.879,3.959 C7.647,3.616 7.736,3.15 8.079,2.918 C8.706,2.493 9.459,2.25 10.255,2.25 L13.745,2.25 C15.415,2.25 16.897,3.318 17.424,4.902 C17.517,5.179 17.751,5.385 18.037,5.443 L18.102,5.455 C20.805,5.996 22.75,8.369 22.75,11.126 L22.75,13.427 C22.75,14.887 22.75,15.75 22.585,16.484 C22.526,16.745 22.452,17.001 22.364,17.25 C22.226,17.64 21.798,17.845 21.407,17.707 C21.017,17.569 20.812,17.141 20.95,16.75 C21.018,16.557 21.076,16.358 21.122,16.154 C21.245,15.605 21.25,14.921 21.25,13.307 L21.25,11.126 C21.25,9.084 19.809,7.327 17.808,6.926 L17.743,6.913 C16.929,6.751 16.264,6.164 16.001,5.376 C15.678,4.405 14.769,3.75 13.745,3.75 Z M9.937,10.998 C9.511,11.439 9.25,12.039 9.25,12.7 L9.25,13.3 C9.25,14.653 10.347,15.75 11.7,15.75 L12.3,15.75 C12.961,15.75 13.561,15.489 14.002,15.063 Z M12.268,9.413 C12.358,9.009 12.759,8.755 13.163,8.845 C14.652,9.177 15.823,10.348 16.155,11.837 C16.245,12.241 15.991,12.642 15.587,12.732 C15.182,12.822 14.781,12.568 14.691,12.163 C14.486,11.242 13.758,10.514 12.837,10.309 C12.432,10.219 12.178,9.818 12.268,9.413 Z"/>
</svg>

