<svg xmlns="http://www.w3.org/2000/svg" viewBox="0 0 24 24">
  <defs/>
  <path fill="#151E28" d="M15.53,8.47 C17.875,10.814 17.282,14.758 14.351,16.309 L5.223,21.142 C3.7,21.948 2.052,20.3 2.858,18.777 L7.69,9.648 C9.242,6.718 13.186,6.125 15.53,8.47 Z M9.016,10.35 L6.73,14.669 L7.53,15.469 C7.823,15.762 7.823,16.237 7.53,16.53 C7.237,16.823 6.763,16.823 6.47,16.53 L5.995,16.056 L4.184,19.479 C4.068,19.696 4.304,19.932 4.521,19.816 L13.175,15.235 L11.47,13.53 C11.177,13.237 11.177,12.762 11.47,12.469 C11.763,12.177 12.237,12.177 12.53,12.469 L14.456,14.395 C15.766,13.106 15.856,10.916 14.47,9.53 C12.839,7.899 10.095,8.312 9.016,10.35 Z M19.25,4.521 L19.194,6.446 L21.223,7.055 C21.493,7.136 21.694,7.361 21.745,7.638 C21.795,7.915 21.687,8.197 21.463,8.369 L19.456,9.906 C19.127,10.158 18.656,10.095 18.404,9.767 C18.153,9.438 18.215,8.967 18.544,8.715 L19.386,8.07 L18.212,7.717 C17.888,7.62 17.669,7.316 17.678,6.977 L17.722,5.478 L16.27,5.856 C15.942,5.942 15.597,5.797 15.429,5.502 L14.822,4.437 L14.425,5.311 C14.253,5.688 13.808,5.854 13.431,5.682 C13.054,5.511 12.888,5.066 13.059,4.689 L14.065,2.481 C14.182,2.224 14.432,2.055 14.713,2.042 C14.995,2.029 15.259,2.175 15.399,2.42 L16.448,4.26 L18.311,3.774 C18.539,3.715 18.782,3.766 18.967,3.913 C19.152,4.06 19.256,4.285 19.25,4.521 Z"/>
</svg>

