<svg xmlns="http://www.w3.org/2000/svg" viewBox="0 0 24 24">
  <defs/>
  <path fill="#151E28" d="M12,2.25 C17.385,2.25 21.75,6.615 21.75,12 C21.75,17.385 17.385,21.75 12,21.75 C6.615,21.75 2.25,17.385 2.25,12 C2.25,6.615 6.615,2.25 12,2.25 Z M3.75,12 C3.75,16.556 7.444,20.25 12,20.25 C16.556,20.25 20.25,16.556 20.25,12 C20.25,7.444 16.556,3.75 12,3.75 C7.444,3.75 3.75,7.444 3.75,12 Z M16.502,10.057 L11.502,14.557 C11.205,14.824 10.752,14.812 10.47,14.53 L8.47,12.53 C8.177,12.237 8.177,11.763 8.47,11.47 C8.763,11.177 9.237,11.177 9.53,11.47 L11.027,12.967 L15.498,8.943 C15.806,8.665 16.28,8.69 16.558,8.998 C16.835,9.306 16.81,9.78 16.502,10.057 Z"/>
</svg>

