<svg xmlns="http://www.w3.org/2000/svg" viewBox="0 0 24 24">
  <defs/>
  <path fill="#151E28" d="M1.25,12 C1.25,6.063 6.063,1.25 12,1.25 C17.937,1.25 22.75,6.063 22.75,12 C22.75,17.937 17.937,22.75 12,22.75 C6.063,22.75 1.25,17.937 1.25,12 Z M12,2.75 C6.891,2.75 2.75,6.891 2.75,12 C2.75,17.109 6.891,21.25 12,21.25 C17.109,21.25 21.25,17.109 21.25,12 C21.25,6.891 17.109,2.75 12,2.75 Z M10.53,15.53 C10.237,15.823 9.763,15.823 9.47,15.53 L6.47,12.53 C6.329,12.39 6.25,12.199 6.25,12 C6.25,11.801 6.329,11.61 6.47,11.47 L9.47,8.47 C9.763,8.177 10.237,8.177 10.53,8.47 C10.823,8.763 10.823,9.237 10.53,9.53 L8.061,12 L10.53,14.47 C10.823,14.763 10.823,15.237 10.53,15.53 Z M14.53,15.53 C14.237,15.823 13.763,15.823 13.47,15.53 C13.177,15.237 13.177,14.763 13.47,14.47 L15.939,12 L13.47,9.53 C13.177,9.237 13.177,8.763 13.47,8.47 C13.763,8.177 14.237,8.177 14.53,8.47 L17.53,11.47 C17.671,11.61 17.75,11.801 17.75,12 C17.75,12.199 17.671,12.39 17.53,12.53 Z"/>
</svg>

