<svg xmlns="http://www.w3.org/2000/svg" viewBox="0 0 24 24">
  <defs/>
  <path fill="#151E28" d="M12,1.25 C17.937,1.25 22.75,6.063 22.75,12 C22.75,17.937 17.937,22.75 12,22.75 C6.063,22.75 1.25,17.937 1.25,12 C1.25,6.063 6.063,1.25 12,1.25 Z M2.75,12 C2.75,17.109 6.891,21.25 12,21.25 C17.109,21.25 21.25,17.109 21.25,12 C21.25,6.891 17.109,2.75 12,2.75 C6.891,2.75 2.75,6.891 2.75,12 Z M11.531,16.53 C11.238,16.823 10.763,16.823 10.47,16.53 C10.177,16.237 10.177,15.763 10.47,15.47 L13.94,12 L10.47,8.53 C10.177,8.237 10.177,7.763 10.47,7.47 C10.763,7.177 11.238,7.177 11.531,7.47 L15.531,11.47 C15.823,11.763 15.823,12.237 15.531,12.53 Z"/>
</svg>

