<svg xmlns="http://www.w3.org/2000/svg" viewBox="0 0 24 24">
  <defs/>
  <path fill="#151E28" d="M12,1.25 C17.937,1.25 22.75,6.063 22.75,12 C22.75,17.937 17.937,22.75 12,22.75 C6.063,22.75 1.25,17.937 1.25,12 C1.25,6.063 6.063,1.25 12,1.25 Z M2.75,12 C2.75,17.109 6.891,21.25 12,21.25 C17.109,21.25 21.25,17.109 21.25,12 C21.25,6.891 17.109,2.75 12,2.75 C6.891,2.75 2.75,6.891 2.75,12 Z M16.531,13.469 C16.823,13.762 16.823,14.237 16.531,14.53 C16.238,14.823 15.763,14.823 15.47,14.53 L12,11.061 L8.531,14.53 C8.238,14.823 7.763,14.823 7.47,14.53 C7.177,14.237 7.177,13.762 7.47,13.469 L11.47,9.47 C11.763,9.177 12.238,9.177 12.531,9.47 Z"/>
</svg>

