<svg xmlns="http://www.w3.org/2000/svg" viewBox="0 0 24 24">
  <defs/>
  <path fill="#151E28" d="M12,1.25 C17.937,1.25 22.75,6.063 22.75,12 C22.75,17.937 17.937,22.75 12,22.75 C6.063,22.75 1.25,17.937 1.25,12 C1.25,6.063 6.063,1.25 12,1.25 Z M2.75,12 C2.75,17.109 6.891,21.25 12,21.25 C17.109,21.25 21.25,17.109 21.25,12 C21.25,6.891 17.109,2.75 12,2.75 C6.891,2.75 2.75,6.891 2.75,12 Z M16.531,11.531 L12.531,15.53 C12.238,15.823 11.763,15.823 11.47,15.53 L7.47,11.531 C7.177,11.238 7.177,10.763 7.47,10.47 C7.763,10.177 8.238,10.177 8.531,10.47 L12,13.939 L15.47,10.47 C15.763,10.177 16.238,10.177 16.531,10.47 C16.823,10.763 16.823,11.238 16.531,11.531 Z"/>
</svg>

