<svg xmlns="http://www.w3.org/2000/svg" viewBox="0 0 24 24">
  <defs/>
  <path fill="#151E28" d="M17,2.25 L17.095,2.25 C17.933,2.25 18.467,2.25 18.927,2.341 C20.811,2.716 22.284,4.189 22.659,6.073 C22.75,6.533 22.75,7.066 22.75,7.904 L22.75,16.096 C22.75,16.934 22.75,17.467 22.659,17.927 C22.284,19.811 20.811,21.284 18.927,21.659 C18.467,21.75 17.934,21.75 17.096,21.75 L6.904,21.75 C6.066,21.75 5.533,21.75 5.073,21.659 C3.189,21.284 1.716,19.811 1.341,17.927 C1.25,17.467 1.25,16.933 1.25,16.095 L1.25,16 L1.25,8 L1.25,7.905 C1.25,7.067 1.25,6.533 1.341,6.073 C1.716,4.189 3.189,2.716 5.073,2.341 C5.533,2.25 6.067,2.25 6.905,2.25 L6.905,2.25 L7,2.25 Z M18.634,3.812 C18.338,3.754 17.965,3.75 17,3.75 L7,3.75 C6.035,3.75 5.662,3.754 5.366,3.812 C4.077,4.069 3.069,5.077 2.812,6.366 C2.754,6.662 2.75,7.035 2.75,8 L2.75,16 C2.75,16.965 2.754,17.338 2.812,17.634 C3.069,18.923 4.077,19.931 5.366,20.188 C5.662,20.246 6.035,20.25 7,20.25 L17,20.25 C17.965,20.25 18.338,20.246 18.634,20.188 C19.923,19.931 20.931,18.923 21.188,17.634 C21.246,17.338 21.25,16.965 21.25,16 L21.25,8 C21.25,7.035 21.246,6.662 21.188,6.366 C20.931,5.077 19.923,4.069 18.634,3.812 Z M15.604,8.25 L15.629,8.25 C15.671,8.25 15.704,8.25 15.737,8.251 C16.421,8.267 17.074,8.538 17.569,9.01 C17.593,9.032 17.617,9.056 17.646,9.086 L17.646,9.086 L17.652,9.091 L18.03,9.47 C18.323,9.763 18.323,10.237 18.03,10.53 C17.737,10.823 17.263,10.823 16.97,10.53 L16.591,10.152 C16.554,10.114 16.543,10.104 16.534,10.095 C16.309,9.881 16.012,9.758 15.701,9.75 C15.689,9.75 15.674,9.75 15.621,9.75 C15.5,9.75 15.466,9.75 15.441,9.751 C14.797,9.782 14.282,10.297 14.251,10.941 C14.25,10.966 14.25,11 14.25,11.121 L14.25,12.879 C14.25,13 14.25,13.034 14.251,13.059 C14.282,13.703 14.797,14.218 15.441,14.249 C15.466,14.25 15.5,14.25 15.621,14.25 C15.674,14.25 15.689,14.25 15.701,14.25 C16.012,14.242 16.309,14.119 16.534,13.905 C16.543,13.896 16.554,13.886 16.591,13.848 L16.97,13.47 C17.263,13.177 17.737,13.177 18.03,13.47 C18.323,13.763 18.323,14.237 18.03,14.53 L17.652,14.909 L17.646,14.914 C17.617,14.944 17.593,14.968 17.569,14.99 C17.074,15.462 16.421,15.733 15.737,15.749 C15.704,15.75 15.671,15.75 15.629,15.75 L15.604,15.75 C15.508,15.75 15.435,15.75 15.369,15.747 C13.953,15.679 12.821,14.547 12.753,13.131 C12.75,13.065 12.75,12.992 12.75,12.896 L12.75,11.104 C12.75,11.008 12.75,10.935 12.753,10.869 C12.821,9.453 13.953,8.321 15.369,8.253 C15.435,8.25 15.508,8.25 15.603,8.25 L15.604,8.25 Z M8.604,8.25 L8.629,8.25 C8.671,8.25 8.704,8.25 8.737,8.251 C9.421,8.267 10.074,8.538 10.569,9.01 C10.593,9.032 10.616,9.056 10.646,9.086 L10.652,9.091 L11.03,9.47 C11.323,9.763 11.323,10.237 11.03,10.53 C10.737,10.823 10.263,10.823 9.97,10.53 L9.591,10.152 C9.554,10.114 9.543,10.104 9.534,10.095 C9.309,9.881 9.012,9.758 8.701,9.75 C8.689,9.75 8.674,9.75 8.621,9.75 C8.5,9.75 8.466,9.75 8.44,9.751 C7.797,9.782 7.282,10.297 7.251,10.941 C7.25,10.966 7.25,11 7.25,11.121 L7.25,12.879 C7.25,13 7.25,13.034 7.251,13.059 C7.282,13.703 7.797,14.218 8.44,14.249 C8.466,14.25 8.5,14.25 8.621,14.25 C8.674,14.25 8.689,14.25 8.701,14.25 C9.012,14.242 9.309,14.119 9.534,13.905 C9.543,13.896 9.554,13.886 9.591,13.848 L9.97,13.47 C10.263,13.177 10.737,13.177 11.03,13.47 C11.323,13.763 11.323,14.237 11.03,14.53 L10.652,14.909 L10.646,14.914 L10.646,14.914 C10.616,14.944 10.593,14.968 10.569,14.99 C10.074,15.462 9.421,15.733 8.737,15.749 C8.704,15.75 8.671,15.75 8.629,15.75 L8.604,15.75 C8.508,15.75 8.435,15.75 8.369,15.747 C6.953,15.679 5.821,14.547 5.753,13.131 C5.75,13.065 5.75,12.992 5.75,12.897 L5.75,11.103 C5.75,11.008 5.75,10.935 5.753,10.869 C5.821,9.453 6.953,8.321 8.369,8.253 C8.435,8.25 8.508,8.25 8.603,8.25 L8.604,8.25 Z"/>
</svg>

