<svg xmlns="http://www.w3.org/2000/svg" viewBox="0 0 24 24">
  <defs/>
  <path fill="#151E28" d="M8.318,6.876 C8.111,7.234 7.652,7.357 7.293,7.149 C6.935,6.942 6.812,6.483 7.02,6.124 C8.013,4.408 9.871,3.25 12,3.25 C14.936,3.25 17.358,5.451 17.707,8.293 C20.549,8.641 22.75,11.064 22.75,14 C22.75,16.783 20.774,19.102 18.149,19.635 C17.743,19.717 17.347,19.455 17.265,19.049 C17.183,18.643 17.445,18.247 17.851,18.165 C19.79,17.771 21.25,16.055 21.25,14 C21.25,11.653 19.347,9.75 17,9.75 C16.586,9.75 16.25,9.414 16.25,9 C16.25,6.653 14.347,4.75 12,4.75 C10.428,4.75 9.054,5.603 8.318,6.876 Z M12,16 C12.586,15.532 12.586,15.532 12.586,15.532 L12.586,15.532 L12.587,15.533 L12.588,15.535 L12.594,15.541 L12.613,15.566 C12.629,15.586 12.652,15.616 12.681,15.654 C12.739,15.73 12.821,15.838 12.919,15.973 C13.114,16.242 13.376,16.617 13.639,17.044 C13.9,17.469 14.171,17.958 14.379,18.451 C14.581,18.932 14.75,19.478 14.75,20 C14.75,20.93 14.431,21.659 13.855,22.139 C13.303,22.599 12.611,22.75 12,22.75 C11.389,22.75 10.697,22.599 10.145,22.139 C9.569,21.659 9.25,20.93 9.25,20 C9.25,19.478 9.419,18.932 9.621,18.451 C9.829,17.958 10.1,17.469 10.361,17.044 C10.624,16.617 10.886,16.242 11.081,15.973 C11.179,15.838 11.261,15.73 11.319,15.654 C11.348,15.616 11.371,15.586 11.387,15.566 L11.406,15.541 L11.412,15.535 L11.413,15.533 L11.414,15.532 L11.414,15.532 C11.414,15.532 11.415,15.532 11.994,15.995 L11.414,15.531 C11.557,15.354 11.772,15.25 12,15.25 C12.228,15.25 12.443,15.354 12.586,15.531 Z M2.75,14 C2.75,16.055 4.21,17.771 6.149,18.165 C6.555,18.247 6.817,18.643 6.735,19.049 C6.653,19.455 6.257,19.717 5.851,19.635 C3.226,19.102 1.25,16.783 1.25,14 C1.25,10.824 3.824,8.25 7,8.25 C7.816,8.25 8.595,8.421 9.3,8.729 C9.68,8.895 9.853,9.337 9.687,9.716 C9.521,10.096 9.079,10.269 8.7,10.103 C8.18,9.876 7.606,9.75 7,9.75 C4.653,9.75 2.75,11.653 2.75,14 Z M11.639,17.831 C11.4,18.218 11.171,18.636 11.004,19.033 C10.831,19.443 10.75,19.772 10.75,20 C10.75,20.57 10.931,20.841 11.105,20.986 C11.303,21.151 11.611,21.25 12,21.25 C12.389,21.25 12.697,21.151 12.895,20.986 C13.069,20.841 13.25,20.57 13.25,20 C13.25,19.772 13.169,19.443 12.996,19.033 C12.829,18.636 12.6,18.218 12.361,17.831 C12.238,17.631 12.115,17.443 12,17.273 C11.885,17.443 11.762,17.631 11.639,17.831 Z"/>
</svg>

