<svg xmlns="http://www.w3.org/2000/svg" viewBox="0 0 24 24">
  <defs/>
  <path fill="#151E28" d="M12,4.75 C10.428,4.75 9.054,5.603 8.318,6.876 C8.111,7.234 7.652,7.357 7.293,7.149 C6.935,6.942 6.812,6.483 7.02,6.124 C8.013,4.408 9.871,3.25 12,3.25 C14.936,3.25 17.358,5.451 17.707,8.293 C20.549,8.641 22.75,11.064 22.75,14 C22.75,17.176 20.176,19.75 17,19.75 L7,19.75 C3.824,19.75 1.25,17.176 1.25,14 C1.25,10.824 3.824,8.25 7,8.25 C7.816,8.25 8.595,8.421 9.3,8.729 C9.68,8.895 9.853,9.337 9.687,9.716 C9.521,10.096 9.079,10.269 8.7,10.103 C8.18,9.876 7.606,9.75 7,9.75 C4.653,9.75 2.75,11.653 2.75,14 C2.75,16.347 4.653,18.25 7,18.25 L17,18.25 C19.347,18.25 21.25,16.347 21.25,14 C21.25,11.653 19.347,9.75 17,9.75 C16.586,9.75 16.25,9.414 16.25,9 C16.25,6.653 14.347,4.75 12,4.75 Z"/>
</svg>

