<svg xmlns="http://www.w3.org/2000/svg" viewBox="0 0 24 24">
  <defs/>
  <path fill="#151E28" d="M8.318,6.876 C8.111,7.234 7.652,7.357 7.293,7.149 C6.935,6.942 6.812,6.483 7.02,6.124 C8.013,4.408 9.871,3.25 12,3.25 C14.936,3.25 17.358,5.451 17.707,8.293 C20.549,8.641 22.75,11.064 22.75,14 C22.75,16.783 20.774,19.102 18.149,19.635 C17.743,19.717 17.347,19.455 17.265,19.049 C17.183,18.643 17.445,18.247 17.851,18.165 C19.79,17.771 21.25,16.055 21.25,14 C21.25,11.653 19.347,9.75 17,9.75 C16.586,9.75 16.25,9.414 16.25,9 C16.25,6.653 14.347,4.75 12,4.75 C10.428,4.75 9.054,5.603 8.318,6.876 Z M2.75,14 C2.75,16.055 4.21,17.771 6.149,18.165 C6.555,18.247 6.817,18.643 6.735,19.049 C6.653,19.455 6.257,19.717 5.851,19.635 C3.226,19.102 1.25,16.783 1.25,14 C1.25,10.824 3.824,8.25 7,8.25 C7.816,8.25 8.595,8.421 9.3,8.729 C9.68,8.895 9.853,9.337 9.687,9.716 C9.521,10.096 9.079,10.269 8.7,10.103 C8.18,9.876 7.606,9.75 7,9.75 C4.653,9.75 2.75,11.653 2.75,14 Z M12.75,15 L12.75,16.701 L14.223,15.851 C14.581,15.643 15.04,15.766 15.247,16.125 C15.454,16.484 15.331,16.942 14.973,17.149 L13.5,18 L14.972,18.851 C15.331,19.058 15.454,19.516 15.247,19.875 C15.04,20.234 14.581,20.357 14.222,20.149 L12.75,19.299 L12.75,21 C12.75,21.414 12.414,21.75 12,21.75 C11.586,21.75 11.25,21.414 11.25,21 L11.25,19.299 L9.776,20.149 C9.418,20.357 8.959,20.234 8.752,19.875 C8.545,19.516 8.668,19.058 9.026,18.851 L10.5,18 L9.026,17.149 C8.668,16.942 8.545,16.484 8.752,16.125 C8.959,15.766 9.418,15.643 9.776,15.851 L11.25,16.701 L11.25,15 C11.25,14.586 11.586,14.25 12,14.25 C12.414,14.25 12.75,14.586 12.75,15 Z"/>
</svg>

