<svg xmlns="http://www.w3.org/2000/svg" viewBox="0 0 24 24">
  <defs/>
  <path fill="#151E28" d="M2.53,1.47 L22.53,21.47 C22.823,21.763 22.823,22.237 22.53,22.53 C22.237,22.823 21.763,22.823 21.47,22.53 L18.493,19.554 C18.016,19.682 17.516,19.75 17,19.75 L7,19.75 C3.824,19.75 1.25,17.176 1.25,14 C1.25,10.824 3.824,8.25 7,8.25 C7.064,8.25 7.129,8.251 7.193,8.253 L1.47,2.53 C1.177,2.237 1.177,1.763 1.47,1.47 C1.763,1.177 2.237,1.177 2.53,1.47 Z M17.185,18.246 L9.099,10.16 C8.968,10.177 8.83,10.16 8.7,10.103 C8.18,9.876 7.606,9.75 7,9.75 C4.653,9.75 2.75,11.653 2.75,14 C2.75,16.347 4.653,18.25 7,18.25 L17,18.25 C17.062,18.25 17.124,18.249 17.185,18.246 Z M9.876,5.318 C9.517,5.526 9.058,5.403 8.851,5.044 C8.643,4.686 8.766,4.227 9.124,4.02 C9.971,3.53 10.954,3.25 12,3.25 C14.936,3.25 17.358,5.451 17.707,8.293 C20.549,8.641 22.75,11.064 22.75,14 C22.75,15.046 22.47,16.029 21.98,16.875 C21.773,17.234 21.314,17.357 20.955,17.149 C20.597,16.942 20.475,16.483 20.682,16.125 C21.043,15.5 21.25,14.775 21.25,14 C21.25,11.653 19.347,9.75 17,9.75 C16.586,9.75 16.25,9.414 16.25,9 C16.25,6.653 14.347,4.75 12,4.75 C11.225,4.75 10.5,4.957 9.876,5.318 Z"/>
</svg>

