<svg xmlns="http://www.w3.org/2000/svg" viewBox="0 0 24 24">
  <defs/>
  <path fill="#151E28" d="M3.693,16.067 L3.692,16.066 C2.316,14.69 1.856,12.74 2.137,10.773 C2.418,8.806 3.441,6.771 5.106,5.106 C6.772,3.44 8.806,2.417 10.773,2.136 C12.741,1.855 14.691,2.315 16.066,3.691 L16.068,3.693 L18.895,6.52 C22.312,9.937 22.312,15.477 18.895,18.894 C15.478,22.311 9.938,22.311 6.521,18.894 Z M4.753,15.005 C5.72,15.972 7.158,16.367 8.773,16.136 C10.389,15.905 12.133,15.049 13.592,13.591 C15.05,12.132 15.906,10.389 16.137,8.773 C16.368,7.158 15.974,5.721 15.007,4.754 L15.006,4.752 C14.039,3.785 12.601,3.39 10.985,3.621 C9.369,3.852 7.625,4.708 6.167,6.166 C4.709,7.625 3.853,9.369 3.622,10.985 C3.391,12.6 3.786,14.038 4.753,15.005 Z M5.151,10.697 C5.446,9.521 6.171,8.283 7.227,7.227 C8.283,6.171 9.521,5.445 10.697,5.151 C11.857,4.861 13.1,4.968 13.945,5.813 C14.79,6.658 14.896,7.901 14.607,9.061 C14.312,10.237 13.587,11.475 12.531,12.531 C11.475,13.587 10.237,14.312 9.061,14.606 C7.901,14.896 6.658,14.79 5.813,13.945 C4.968,13.099 4.861,11.857 5.151,10.697 Z M17.686,7.432 C17.719,7.941 17.696,8.462 17.622,8.985 C17.341,10.952 16.318,12.986 14.652,14.652 C12.986,16.317 10.952,17.34 8.985,17.621 C8.463,17.696 7.942,17.718 7.433,17.685 L7.581,17.833 C9.044,19.297 10.977,20.004 12.894,19.955 L11.97,19.03 C11.677,18.737 11.677,18.263 11.97,17.97 C12.263,17.677 12.738,17.677 13.031,17.97 L14.531,19.47 C14.595,19.534 14.645,19.607 14.681,19.685 C15.608,19.423 16.493,18.974 17.277,18.337 L15.97,17.03 C15.677,16.737 15.677,16.262 15.97,15.969 C16.263,15.677 16.738,15.677 17.031,15.97 L18.337,17.277 C18.975,16.493 19.424,15.608 19.685,14.681 C19.607,14.645 19.534,14.595 19.47,14.53 L17.97,13.03 C17.677,12.737 17.677,12.262 17.97,11.97 C18.263,11.677 18.738,11.677 19.031,11.97 L19.955,12.894 C20.005,10.977 19.298,9.044 17.834,7.581 Z M6.607,11.061 C6.385,11.949 6.547,12.558 6.874,12.884 C7.2,13.21 7.809,13.373 8.697,13.151 C9.568,12.934 10.573,12.367 11.47,11.47 C12.367,10.573 12.934,9.568 13.151,8.697 C13.373,7.809 13.21,7.2 12.884,6.874 C12.558,6.547 11.949,6.385 11.061,6.607 C10.19,6.824 9.185,7.391 8.288,8.288 C7.391,9.185 6.824,10.19 6.607,11.061 Z"/>
</svg>

