<svg xmlns="http://www.w3.org/2000/svg" viewBox="0 0 24 24">
  <defs/>
  <path fill="#151E28" d="M11,1.25 L13,1.25 C14.519,1.25 15.75,2.481 15.75,4 L15.75,4.098 C15.75,4.388 15.905,4.656 16.156,4.801 C16.407,4.947 16.717,4.947 16.968,4.802 L17.053,4.752 C18.368,3.993 20.05,4.444 20.81,5.759 L21.81,7.491 C22.569,8.806 22.118,10.488 20.803,11.248 L20.718,11.297 C20.467,11.442 20.312,11.71 20.312,12 C20.312,12.29 20.467,12.558 20.718,12.703 L20.803,12.752 C22.118,13.512 22.569,15.194 21.81,16.509 L20.81,18.241 C20.05,19.556 18.368,20.007 17.053,19.248 L16.968,19.199 C16.717,19.053 16.407,19.053 16.156,19.199 C15.905,19.344 15.75,19.612 15.75,19.902 L15.75,20 C15.75,21.519 14.519,22.75 13,22.75 L11,22.75 C9.481,22.75 8.25,21.519 8.25,20 L8.25,19.902 C8.25,19.612 8.095,19.344 7.844,19.199 C7.593,19.053 7.283,19.053 7.032,19.199 L6.947,19.248 C5.631,20.007 3.95,19.556 3.19,18.241 L2.19,16.509 C1.431,15.194 1.881,13.512 3.197,12.752 L3.282,12.703 C3.533,12.558 3.688,12.29 3.688,12 C3.688,11.71 3.533,11.442 3.282,11.297 L3.197,11.248 C1.881,10.488 1.431,8.806 2.19,7.491 L3.19,5.759 C3.95,4.444 5.631,3.993 6.947,4.752 L7.032,4.801 C7.283,4.947 7.593,4.947 7.844,4.801 C8.095,4.656 8.25,4.388 8.25,4.098 L8.25,4 C8.25,2.481 9.481,1.25 11,1.25 Z M9.75,4 L9.75,4.098 C9.75,4.924 9.309,5.687 8.594,6.101 C7.878,6.514 6.997,6.514 6.282,6.1 L6.197,6.051 C5.599,5.706 4.834,5.911 4.489,6.509 L3.489,8.241 C3.144,8.839 3.349,9.603 3.947,9.949 L4.032,9.998 C4.747,10.411 5.188,11.174 5.188,12 C5.188,12.826 4.747,13.589 4.032,14.002 L3.947,14.052 C3.349,14.397 3.144,15.161 3.489,15.759 L4.489,17.491 C4.834,18.089 5.599,18.294 6.197,17.949 L6.282,17.9 C6.997,17.486 7.878,17.486 8.594,17.899 C9.309,18.312 9.75,19.076 9.75,19.902 L9.75,20 C9.75,20.69 10.31,21.25 11,21.25 L13,21.25 C13.691,21.25 14.25,20.69 14.25,20 L14.25,19.902 C14.25,19.076 14.691,18.313 15.406,17.9 C16.121,17.486 17.003,17.486 17.718,17.899 L17.803,17.949 C18.401,18.294 19.166,18.089 19.511,17.491 L20.511,15.759 C20.856,15.161 20.651,14.397 20.053,14.052 L19.968,14.002 C19.253,13.589 18.812,12.826 18.812,12 C18.812,11.174 19.253,10.411 19.968,9.998 L20.053,9.949 C20.651,9.603 20.856,8.839 20.511,8.241 L19.511,6.509 C19.166,5.911 18.401,5.706 17.803,6.051 L17.718,6.101 C17.003,6.514 16.121,6.514 15.406,6.1 C14.691,5.687 14.25,4.924 14.25,4.098 L14.25,4 C14.25,3.31 13.691,2.75 13,2.75 L11,2.75 C10.31,2.75 9.75,3.31 9.75,4 Z M11.8,8.25 L12.2,8.25 C14.161,8.25 15.75,9.839 15.75,11.8 L15.75,12.2 C15.75,14.161 14.161,15.75 12.2,15.75 L11.8,15.75 C9.839,15.75 8.25,14.161 8.25,12.2 L8.25,11.8 C8.25,9.839 9.839,8.25 11.8,8.25 Z M9.75,11.8 L9.75,12.2 C9.75,13.332 10.668,14.25 11.8,14.25 L12.2,14.25 C13.332,14.25 14.25,13.332 14.25,12.2 L14.25,11.8 C14.25,10.668 13.332,9.75 12.2,9.75 L11.8,9.75 C10.668,9.75 9.75,10.668 9.75,11.8 Z"/>
</svg>

