<svg xmlns="http://www.w3.org/2000/svg" viewBox="0 0 24 24">
  <defs/>
  <path fill="#151E28" d="M11.798,1.25 L12.202,1.25 C13.609,1.25 14.75,2.391 14.75,3.798 L14.75,4.169 C14.75,4.369 14.87,4.549 15.055,4.625 C15.239,4.702 15.452,4.659 15.593,4.518 L15.855,4.256 C16.85,3.261 18.464,3.261 19.459,4.256 L19.744,4.541 C20.739,5.536 20.739,7.15 19.744,8.145 L19.482,8.407 C19.341,8.548 19.299,8.761 19.375,8.945 C19.451,9.13 19.631,9.25 19.831,9.25 L20.202,9.25 C21.609,9.25 22.75,10.391 22.75,11.798 L22.75,12.202 C22.75,13.609 21.609,14.75 20.202,14.75 L19.831,14.75 C19.631,14.75 19.451,14.87 19.375,15.055 C19.299,15.239 19.341,15.452 19.482,15.593 L19.744,15.855 C20.739,16.85 20.739,18.464 19.744,19.459 L19.459,19.744 C18.464,20.739 16.85,20.739 15.855,19.744 L15.593,19.482 C15.452,19.341 15.239,19.299 15.055,19.375 C14.87,19.451 14.75,19.631 14.75,19.831 L14.75,20.202 C14.75,21.609 13.609,22.75 12.202,22.75 L11.798,22.75 C10.391,22.75 9.25,21.609 9.25,20.202 L9.25,19.831 C9.25,19.631 9.13,19.451 8.945,19.375 C8.761,19.299 8.548,19.341 8.407,19.482 L8.145,19.744 C7.15,20.739 5.536,20.739 4.541,19.744 L4.256,19.459 C3.261,18.464 3.261,16.85 4.256,15.855 L4.518,15.593 C4.659,15.452 4.702,15.239 4.625,15.055 C4.549,14.87 4.369,14.75 4.169,14.75 L3.798,14.75 C2.391,14.75 1.25,13.609 1.25,12.202 L1.25,11.798 C1.25,10.391 2.391,9.25 3.798,9.25 L4.169,9.25 C4.369,9.25 4.549,9.13 4.625,8.945 C4.702,8.761 4.659,8.548 4.518,8.407 L4.256,8.145 C3.261,7.15 3.261,5.536 4.256,4.541 L4.541,4.256 C5.536,3.261 7.15,3.261 8.145,4.256 L8.407,4.518 C8.548,4.659 8.761,4.702 8.945,4.625 C9.13,4.549 9.25,4.369 9.25,4.169 L9.25,3.798 C9.25,2.391 10.391,1.25 11.798,1.25 Z M10.75,3.798 L10.75,4.169 C10.75,4.975 10.264,5.702 9.519,6.011 C8.774,6.32 7.917,6.149 7.346,5.579 L7.084,5.317 C6.675,4.907 6.011,4.907 5.602,5.317 L5.317,5.602 C4.907,6.011 4.907,6.675 5.317,7.084 L5.579,7.347 C6.149,7.917 6.32,8.774 6.011,9.519 C5.702,10.264 4.975,10.75 4.169,10.75 L3.798,10.75 C3.219,10.75 2.75,11.219 2.75,11.798 L2.75,12.202 C2.75,12.781 3.219,13.25 3.798,13.25 L4.169,13.25 C4.975,13.25 5.702,13.736 6.011,14.481 C6.32,15.226 6.149,16.083 5.579,16.654 L5.317,16.916 C4.907,17.325 4.907,17.989 5.317,18.398 L5.602,18.683 C6.011,19.093 6.675,19.093 7.084,18.683 L7.347,18.421 C7.917,17.851 8.774,17.681 9.519,17.989 C10.264,18.298 10.75,19.025 10.75,19.831 L10.75,20.202 C10.75,20.781 11.219,21.25 11.798,21.25 L12.202,21.25 C12.781,21.25 13.25,20.781 13.25,20.202 L13.25,19.831 C13.25,19.025 13.736,18.298 14.481,17.989 C15.226,17.681 16.083,17.851 16.653,18.421 L16.916,18.683 C17.325,19.093 17.989,19.093 18.398,18.683 L18.683,18.398 C19.093,17.989 19.093,17.325 18.683,16.916 L18.421,16.653 C17.851,16.083 17.681,15.226 17.989,14.481 C18.298,13.736 19.025,13.25 19.831,13.25 L20.202,13.25 C20.781,13.25 21.25,12.781 21.25,12.202 L21.25,11.798 C21.25,11.219 20.781,10.75 20.202,10.75 L19.831,10.75 C19.025,10.75 18.298,10.264 17.989,9.519 C17.681,8.774 17.851,7.917 18.421,7.347 L18.683,7.084 C19.093,6.675 19.093,6.011 18.683,5.602 L18.398,5.317 C17.989,4.907 17.325,4.907 16.916,5.317 L16.653,5.579 C16.083,6.149 15.226,6.32 14.481,6.011 C13.736,5.702 13.25,4.975 13.25,4.169 L13.25,3.798 C13.25,3.219 12.781,2.75 12.202,2.75 L11.798,2.75 C11.219,2.75 10.75,3.219 10.75,3.798 Z M11.8,8.25 L12.2,8.25 C14.161,8.25 15.75,9.839 15.75,11.8 L15.75,12.2 C15.75,14.161 14.161,15.75 12.2,15.75 L11.8,15.75 C9.839,15.75 8.25,14.161 8.25,12.2 L8.25,11.8 C8.25,9.839 9.839,8.25 11.8,8.25 Z M9.75,11.8 L9.75,12.2 C9.75,13.332 10.668,14.25 11.8,14.25 L12.2,14.25 C13.332,14.25 14.25,13.332 14.25,12.2 L14.25,11.8 C14.25,10.668 13.332,9.75 12.2,9.75 L11.8,9.75 C10.668,9.75 9.75,10.668 9.75,11.8 Z"/>
</svg>

