<svg xmlns="http://www.w3.org/2000/svg" viewBox="0 0 24 24">
  <defs/>
  <path fill="#151E28" d="M12,2.25 C17.385,2.25 21.75,6.615 21.75,12 C21.75,17.385 17.385,21.75 12,21.75 C6.615,21.75 2.25,17.385 2.25,12 C2.25,6.615 6.615,2.25 12,2.25 Z M3.75,12 C3.75,16.556 7.443,20.25 12,20.25 C16.556,20.25 20.25,16.556 20.25,12 C20.25,7.444 16.556,3.75 12,3.75 C7.443,3.75 3.75,7.444 3.75,12 Z M15.735,9.147 L15.154,12.055 L15.131,12.17 C15.003,12.813 14.902,13.318 14.644,13.738 C14.418,14.107 14.107,14.418 13.738,14.644 C13.317,14.902 12.813,15.003 12.17,15.131 L12.055,15.154 L9.147,15.735 C8.901,15.785 8.647,15.708 8.469,15.53 C8.292,15.353 8.215,15.099 8.264,14.853 L8.846,11.945 L8.869,11.83 C8.997,11.187 9.097,10.682 9.355,10.262 C9.582,9.893 9.892,9.582 10.262,9.355 C10.682,9.098 11.187,8.997 11.83,8.869 L11.945,8.846 L14.853,8.265 C15.099,8.215 15.353,8.292 15.53,8.47 C15.707,8.647 15.784,8.901 15.735,9.147 Z M12.239,10.317 C11.425,10.48 11.208,10.534 11.046,10.634 C10.878,10.737 10.737,10.878 10.634,11.046 C10.534,11.209 10.48,11.425 10.317,12.239 L9.956,14.044 L11.761,13.683 C12.575,13.52 12.791,13.465 12.954,13.366 C13.122,13.263 13.263,13.122 13.366,12.954 C13.465,12.791 13.52,12.575 13.683,11.761 L14.044,9.956 Z"/>
</svg>

