<svg xmlns="http://www.w3.org/2000/svg" viewBox="0 0 24 24">
  <defs/>
  <path fill="#151E28" d="M11.636,1.344 C11.862,1.219 12.138,1.219 12.364,1.344 L21.364,6.344 C21.394,6.361 21.422,6.379 21.449,6.399 C21.637,6.54 21.75,6.762 21.75,7 L21.75,17 C21.75,17.272 21.602,17.523 21.364,17.656 L12.366,22.655 C12.342,22.668 12.317,22.68 12.292,22.691 C12.081,22.78 11.839,22.768 11.636,22.656 L10.093,20.083 L10.092,20.082 L11.634,22.655 L2.636,17.656 C2.398,17.523 2.25,17.272 2.25,17 L2.25,7 L2.25,6.993 C2.251,6.86 2.288,6.731 2.354,6.62 C2.394,6.55 2.446,6.488 2.508,6.434 C2.546,6.401 2.588,6.371 2.633,6.346 Z M12.75,12.441 L12.75,20.725 L20.25,16.559 L20.25,8.275 Z M4.544,7 L12,11.142 L19.456,7 L12,2.858 Z M11.25,20.725 L11.25,12.441 L3.75,8.275 L3.75,9.502 L10.093,20.083 L11.25,20.725 Z M10.092,20.082 L3.75,9.502 L3.75,16.559 Z M2.647,7.662 L2.647,7.662 L3.75,9.502 L3.75,9.502 L2.647,7.662 Z"/>
</svg>

