<svg xmlns="http://www.w3.org/2000/svg" viewBox="0 0 24 24">
  <defs/>
  <path fill="#151E28" d="M3.25,6 C3.25,5.294 3.634,4.712 4.131,4.271 C4.629,3.83 5.307,3.466 6.08,3.176 C7.631,2.595 9.725,2.25 12,2.25 C14.275,2.25 16.368,2.595 17.92,3.176 C18.693,3.466 19.371,3.83 19.869,4.271 C20.366,4.712 20.75,5.294 20.75,6 L20.75,18 C20.75,18.706 20.366,19.288 19.869,19.729 C19.371,20.17 18.693,20.534 17.92,20.824 C16.368,21.405 14.275,21.75 12,21.75 C9.725,21.75 7.631,21.405 6.08,20.824 C5.307,20.534 4.629,20.17 4.131,19.729 C3.634,19.288 3.25,18.706 3.25,18 L3.25,6 Z M19.25,14.185 C18.859,14.428 18.409,14.64 17.92,14.824 C16.368,15.405 14.275,15.75 12,15.75 C9.725,15.75 7.631,15.405 6.08,14.824 C5.597,14.642 5.151,14.432 4.763,14.193 C4.758,14.19 4.754,14.188 4.75,14.185 L4.75,18 C4.75,18.123 4.814,18.329 5.126,18.607 C5.438,18.883 5.932,19.166 6.606,19.419 C7.95,19.923 9.857,20.25 12,20.25 C14.143,20.25 16.05,19.923 17.393,19.419 C18.068,19.166 18.562,18.883 18.874,18.607 C19.186,18.329 19.25,18.123 19.25,18 Z M18.064,8.768 C18.017,8.787 17.969,8.805 17.92,8.824 C16.368,9.405 14.275,9.75 12,9.75 C9.725,9.75 7.631,9.405 6.08,8.824 C5.597,8.642 5.151,8.433 4.763,8.193 L4.75,8.185 L4.75,12 C4.75,12.123 4.814,12.329 5.126,12.606 C5.438,12.883 5.932,13.166 6.606,13.419 C7.95,13.923 9.857,14.25 12,14.25 C14.143,14.25 16.05,13.923 17.393,13.419 C18.068,13.166 18.562,12.883 18.874,12.606 C19.186,12.329 19.25,12.123 19.25,12 L19.25,8.185 C18.898,8.404 18.497,8.598 18.064,8.768 Z M5.126,5.393 C4.814,5.671 4.75,5.877 4.75,6 C4.75,6.123 4.814,6.329 5.126,6.607 C5.438,6.883 5.932,7.166 6.606,7.419 C7.95,7.923 9.857,8.25 12,8.25 C14.143,8.25 16.05,7.923 17.393,7.419 C18.068,7.166 18.562,6.883 18.874,6.607 C19.186,6.329 19.25,6.123 19.25,6 C19.25,5.877 19.186,5.671 18.874,5.393 C18.562,5.117 18.068,4.834 17.393,4.581 C16.05,4.077 14.143,3.75 12,3.75 C9.857,3.75 7.95,4.077 6.606,4.581 C5.932,4.834 5.438,5.117 5.126,5.393 Z"/>
</svg>

