<svg xmlns="http://www.w3.org/2000/svg" viewBox="0 0 24 24">
  <defs/>
  <path fill="#151E28" d="M16.25,19 C16.25,17.481 17.481,16.25 19,16.25 C20.519,16.25 21.75,17.481 21.75,19 C21.75,20.519 20.519,21.75 19,21.75 C17.481,21.75 16.25,20.519 16.25,19 Z M16.25,12 C16.25,10.481 17.481,9.25 19,9.25 C20.519,9.25 21.75,10.481 21.75,12 C21.75,13.519 20.519,14.75 19,14.75 C17.481,14.75 16.25,13.519 16.25,12 Z M9.25,19 C9.25,17.481 10.481,16.25 12,16.25 C13.519,16.25 14.75,17.481 14.75,19 C14.75,20.519 13.519,21.75 12,21.75 C10.481,21.75 9.25,20.519 9.25,19 Z M12,9.25 C13.519,9.25 14.75,10.481 14.75,12 C14.75,13.519 13.519,14.75 12,14.75 C10.481,14.75 9.25,13.519 9.25,12 C9.25,10.481 10.481,9.25 12,9.25 Z M5,16.25 C6.519,16.25 7.75,17.481 7.75,19 C7.75,20.519 6.519,21.75 5,21.75 C3.481,21.75 2.25,20.519 2.25,19 C2.25,17.481 3.481,16.25 5,16.25 Z M16.25,5 C16.25,3.481 17.481,2.25 19,2.25 C20.519,2.25 21.75,3.481 21.75,5 C21.75,6.519 20.519,7.75 19,7.75 C17.481,7.75 16.25,6.519 16.25,5 Z M2.25,12 C2.25,10.481 3.481,9.25 5,9.25 C6.519,9.25 7.75,10.481 7.75,12 C7.75,13.519 6.519,14.75 5,14.75 C3.481,14.75 2.25,13.519 2.25,12 Z M12,2.25 C13.519,2.25 14.75,3.481 14.75,5 C14.75,6.519 13.519,7.75 12,7.75 C10.481,7.75 9.25,6.519 9.25,5 C9.25,3.481 10.481,2.25 12,2.25 Z M5,2.25 C6.519,2.25 7.75,3.481 7.75,5 C7.75,6.519 6.519,7.75 5,7.75 C3.481,7.75 2.25,6.519 2.25,5 C2.25,3.481 3.481,2.25 5,2.25 Z M10.75,12 C10.75,12.69 11.31,13.25 12,13.25 C12.69,13.25 13.25,12.69 13.25,12 C13.25,11.31 12.69,10.75 12,10.75 C11.31,10.75 10.75,11.31 10.75,12 Z M12,17.75 C11.31,17.75 10.75,18.31 10.75,19 C10.75,19.69 11.31,20.25 12,20.25 C12.69,20.25 13.25,19.69 13.25,19 C13.25,18.31 12.69,17.75 12,17.75 Z M19,10.75 C18.31,10.75 17.75,11.31 17.75,12 C17.75,12.69 18.31,13.25 19,13.25 C19.69,13.25 20.25,12.69 20.25,12 C20.25,11.31 19.69,10.75 19,10.75 Z M19,17.75 C18.31,17.75 17.75,18.31 17.75,19 C17.75,19.69 18.31,20.25 19,20.25 C19.69,20.25 20.25,19.69 20.25,19 C20.25,18.31 19.69,17.75 19,17.75 Z M5,10.75 C4.31,10.75 3.75,11.31 3.75,12 C3.75,12.69 4.31,13.25 5,13.25 C5.69,13.25 6.25,12.69 6.25,12 C6.25,11.31 5.69,10.75 5,10.75 Z M10.75,5 C10.75,5.69 11.31,6.25 12,6.25 C12.69,6.25 13.25,5.69 13.25,5 C13.25,4.31 12.69,3.75 12,3.75 C11.31,3.75 10.75,4.31 10.75,5 Z M19,3.75 C18.31,3.75 17.75,4.31 17.75,5 C17.75,5.69 18.31,6.25 19,6.25 C19.69,6.25 20.25,5.69 20.25,5 C20.25,4.31 19.69,3.75 19,3.75 Z M3.75,19 C3.75,19.69 4.31,20.25 5,20.25 C5.69,20.25 6.25,19.69 6.25,19 C6.25,18.31 5.69,17.75 5,17.75 C4.31,17.75 3.75,18.31 3.75,19 Z M3.75,5 C3.75,5.69 4.31,6.25 5,6.25 C5.69,6.25 6.25,5.69 6.25,5 C6.25,4.31 5.69,3.75 5,3.75 C4.31,3.75 3.75,4.31 3.75,5 Z"/>
</svg>

