<svg xmlns="http://www.w3.org/2000/svg" viewBox="0 0 24 24">
  <defs/>
  <path fill="#151E28" d="M12,2.25 C17.385,2.25 21.75,6.615 21.75,12 C21.75,17.385 17.385,21.75 12,21.75 C6.615,21.75 2.25,17.385 2.25,12 C2.25,6.615 6.615,2.25 12,2.25 Z M3.75,12 C3.75,16.556 7.444,20.25 12,20.25 C16.556,20.25 20.25,16.556 20.25,12 C20.25,7.444 16.556,3.75 12,3.75 C7.444,3.75 3.75,7.444 3.75,12 Z M7,13.5 C6.172,13.5 5.5,12.828 5.5,12 C5.5,11.172 6.172,10.5 7,10.5 C7.828,10.5 8.5,11.172 8.5,12 C8.5,12.828 7.828,13.5 7,13.5 Z M10.5,12 C10.5,11.172 11.172,10.5 12,10.5 C12.828,10.5 13.5,11.172 13.5,12 C13.5,12.828 12.828,13.5 12,13.5 C11.172,13.5 10.5,12.828 10.5,12 Z M15.5,12 C15.5,11.172 16.172,10.5 17,10.5 C17.828,10.5 18.5,11.172 18.5,12 C18.5,12.828 17.828,13.5 17,13.5 C16.172,13.5 15.5,12.828 15.5,12 Z"/>
</svg>

