<svg xmlns="http://www.w3.org/2000/svg" viewBox="0 0 24 24">
  <defs/>
  <path fill="#151E28" d="M8.75,6 L8.75,11.25 L15.25,11.25 L15.25,6 C15.25,5.034 16.034,4.25 17,4.25 L19,4.25 C19.967,4.25 20.75,5.034 20.75,6 L20.75,11.25 L23,11.25 C23.414,11.25 23.75,11.586 23.75,12 C23.75,12.414 23.414,12.75 23,12.75 L20.75,12.75 L20.75,18 C20.75,18.967 19.967,19.75 19,19.75 L17,19.75 C16.034,19.75 15.25,18.967 15.25,18 L15.25,12.75 L8.75,12.75 L8.75,18 C8.75,18.966 7.967,19.75 7,19.75 L5,19.75 C4.034,19.75 3.25,18.966 3.25,18 L3.25,12.75 L1,12.75 C0.586,12.75 0.25,12.414 0.25,12 C0.25,11.586 0.586,11.25 1,11.25 L3.25,11.25 L3.25,6 C3.25,5.034 4.034,4.25 5,4.25 L7,4.25 C7.967,4.25 8.75,5.034 8.75,6 Z M7,5.75 L5,5.75 C4.862,5.75 4.75,5.862 4.75,6 L4.75,18 C4.75,18.138 4.862,18.25 5,18.25 L7,18.25 C7.138,18.25 7.25,18.138 7.25,18 L7.25,6 C7.25,5.862 7.138,5.75 7,5.75 Z M19.25,18 L19.25,12.021 L19.25,12 L19.25,11.98 L19.25,6 C19.25,5.862 19.138,5.75 19,5.75 L17,5.75 C16.862,5.75 16.75,5.862 16.75,6 L16.75,18 C16.75,18.138 16.862,18.25 17,18.25 L19,18.25 C19.138,18.25 19.25,18.138 19.25,18 Z"/>
</svg>

