<svg xmlns="http://www.w3.org/2000/svg" viewBox="0 0 24 24">
  <defs/>
  <path fill="#151E28" d="M9.367,2.25 L12,2.25 C12.414,2.25 12.75,2.586 12.75,3 C12.75,3.414 12.414,3.75 12,3.75 L9.4,3.75 C8.268,3.75 7.463,3.751 6.834,3.802 C6.213,3.853 5.829,3.949 5.525,4.104 C4.913,4.416 4.416,4.913 4.104,5.525 C3.949,5.829 3.853,6.213 3.802,6.834 C3.751,7.463 3.75,8.268 3.75,9.4 L3.75,14.6 C3.75,15.733 3.751,16.537 3.802,17.166 C3.853,17.787 3.949,18.171 4.104,18.476 C4.416,19.087 4.913,19.584 5.525,19.896 C5.829,20.051 6.213,20.147 6.834,20.198 C7.463,20.25 8.268,20.25 9.4,20.25 L14.6,20.25 C15.733,20.25 16.537,20.25 17.166,20.198 C17.787,20.147 18.171,20.051 18.476,19.896 C19.087,19.584 19.584,19.087 19.896,18.476 C20.051,18.171 20.147,17.787 20.198,17.166 C20.249,16.537 20.25,15.733 20.25,14.6 L20.25,12 C20.25,11.586 20.586,11.25 21,11.25 C21.414,11.25 21.75,11.586 21.75,12 L21.75,14.633 C21.75,15.725 21.75,16.591 21.693,17.288 C21.635,18.002 21.513,18.605 21.232,19.157 C20.777,20.05 20.05,20.777 19.156,21.233 C18.605,21.513 18.002,21.635 17.288,21.693 C16.591,21.75 15.725,21.75 14.633,21.75 L9.367,21.75 C8.275,21.75 7.409,21.75 6.712,21.693 C5.998,21.635 5.395,21.513 4.844,21.233 C3.95,20.777 3.223,20.05 2.768,19.157 C2.487,18.605 2.365,18.002 2.307,17.288 C2.25,16.591 2.25,15.726 2.25,14.634 L2.25,9.367 C2.25,8.275 2.25,7.409 2.307,6.712 C2.365,5.999 2.487,5.395 2.768,4.844 C3.223,3.95 3.95,3.223 4.844,2.768 C5.395,2.487 5.998,2.365 6.712,2.307 C7.409,2.25 8.275,2.25 9.367,2.25 Z M20.85,2.794 C20.899,2.838 20.95,2.89 21.018,2.957 L21.018,2.957 L21.03,2.97 L21.043,2.982 L21.043,2.982 C21.11,3.05 21.162,3.102 21.206,3.15 C22.16,4.199 22.16,5.801 21.206,6.85 C21.162,6.899 21.11,6.951 21.043,7.018 L21.043,7.018 L21.03,7.031 L16.784,11.277 L16.74,11.321 C16.315,11.746 16.042,12.019 15.728,12.245 C15.449,12.445 15.15,12.615 14.836,12.75 C14.481,12.903 14.105,12.997 13.523,13.143 L13.462,13.158 L11.182,13.728 C10.926,13.792 10.656,13.717 10.47,13.531 C10.283,13.344 10.208,13.074 10.272,12.818 L10.842,10.538 L10.858,10.478 C11.003,9.895 11.097,9.519 11.25,9.164 C11.386,8.85 11.555,8.551 11.755,8.273 C11.981,7.959 12.255,7.685 12.679,7.26 L12.679,7.26 L12.723,7.216 L16.97,2.97 L16.982,2.957 L16.982,2.957 C17.05,2.89 17.101,2.838 17.15,2.794 C18.199,1.84 19.801,1.84 20.85,2.794 Z M18.159,3.904 C18.14,3.921 18.116,3.945 18.03,4.031 L13.784,8.277 C13.301,8.76 13.119,8.945 12.973,9.148 C12.836,9.339 12.72,9.543 12.627,9.758 C12.528,9.988 12.463,10.239 12.298,10.902 L12.031,11.969 L13.098,11.703 C13.761,11.537 14.012,11.472 14.242,11.373 C14.457,11.28 14.662,11.164 14.852,11.027 C15.055,10.881 15.24,10.7 15.723,10.216 L19.97,5.97 C20.055,5.884 20.08,5.86 20.097,5.841 C20.53,5.364 20.53,4.636 20.097,4.159 C20.08,4.141 20.055,4.116 19.97,4.031 C19.884,3.945 19.86,3.921 19.841,3.904 C19.364,3.47 18.636,3.47 18.159,3.904 Z"/>
</svg>

