<svg xmlns="http://www.w3.org/2000/svg" viewBox="0 0 24 24">
  <defs/>
  <path fill="#151E28" d="M19.75,9 L19.75,16.232 C19.75,17.045 19.75,17.701 19.707,18.232 C19.662,18.778 19.568,19.258 19.341,19.702 C18.982,20.408 18.408,20.982 17.702,21.341 C17.258,21.568 16.778,21.662 16.232,21.707 C15.701,21.75 15.045,21.75 14.232,21.75 L9.768,21.75 C8.955,21.75 8.299,21.75 7.769,21.707 C7.222,21.662 6.742,21.568 6.298,21.341 C5.592,20.982 5.018,20.408 4.659,19.702 C4.432,19.258 4.338,18.778 4.293,18.232 C4.25,17.701 4.25,17.045 4.25,16.232 L4.25,7.768 C4.25,6.955 4.25,6.299 4.293,5.769 C4.338,5.222 4.432,4.742 4.659,4.298 C5.018,3.592 5.592,3.018 6.298,2.659 C6.742,2.432 7.222,2.338 7.769,2.293 C8.299,2.25 8.955,2.25 9.768,2.25 L13.025,2.25 C13.17,2.25 13.283,2.25 13.395,2.259 C13.969,2.306 14.513,2.531 14.952,2.904 C15.038,2.977 15.118,3.057 15.22,3.159 L15.237,3.177 L18.823,6.763 L18.841,6.78 C18.943,6.882 19.023,6.962 19.096,7.048 C19.469,7.487 19.694,8.031 19.741,8.605 C19.75,8.716 19.75,8.828 19.75,8.97 L19.75,9 Z M7.891,3.788 C7.437,3.825 7.176,3.895 6.979,3.995 C6.555,4.211 6.211,4.555 5.995,4.979 C5.895,5.176 5.825,5.437 5.788,5.891 C5.751,6.353 5.75,6.948 5.75,7.8 L5.75,16.2 C5.75,17.052 5.751,17.647 5.788,18.109 C5.825,18.563 5.895,18.824 5.995,19.021 C6.211,19.445 6.555,19.789 6.979,20.005 C7.176,20.105 7.437,20.174 7.891,20.212 C8.353,20.249 8.948,20.25 9.8,20.25 L14.2,20.25 C15.052,20.25 15.647,20.249 16.109,20.212 C16.563,20.174 16.824,20.105 17.021,20.005 C17.445,19.789 17.789,19.445 18.005,19.021 C18.105,18.824 18.174,18.563 18.212,18.109 C18.249,17.647 18.25,17.052 18.25,16.2 L18.25,9.75 L16.169,9.75 C15.635,9.75 15.19,9.75 14.825,9.72 C14.445,9.689 14.089,9.622 13.752,9.45 C13.234,9.187 12.813,8.766 12.55,8.248 C12.378,7.911 12.311,7.555 12.28,7.175 C12.25,6.81 12.25,6.365 12.25,5.83 L12.25,3.75 L9.8,3.75 C8.948,3.75 8.353,3.751 7.891,3.788 Z M11.889,10.981 C11.922,11.005 11.958,11.031 12,11.062 C12.042,11.031 12.078,11.005 12.111,10.981 C13.25,10.19 14.801,10.371 15.727,11.404 C15.761,11.441 15.796,11.484 15.842,11.539 L15.842,11.539 L15.851,11.55 L15.859,11.559 C15.903,11.613 15.938,11.654 15.968,11.693 C16.794,12.758 16.725,14.265 15.807,15.252 C15.773,15.288 15.735,15.325 15.686,15.375 L15.686,15.375 L12.53,18.53 C12.237,18.823 11.763,18.823 11.47,18.53 L8.323,15.384 L8.314,15.375 L8.314,15.375 C8.265,15.325 8.227,15.288 8.193,15.252 C7.275,14.265 7.206,12.758 8.032,11.693 C8.062,11.654 8.096,11.613 8.141,11.559 L8.141,11.559 L8.149,11.55 L8.158,11.539 L8.158,11.539 C8.204,11.484 8.239,11.441 8.273,11.404 C9.199,10.371 10.75,10.19 11.889,10.981 Z M9.39,12.405 C9.377,12.42 9.36,12.439 9.301,12.51 C9.245,12.578 9.229,12.597 9.218,12.612 C8.842,13.096 8.873,13.781 9.291,14.229 C9.304,14.243 9.321,14.261 9.384,14.323 L12,16.939 L14.616,14.323 C14.679,14.261 14.696,14.243 14.709,14.229 C15.127,13.781 15.158,13.096 14.782,12.612 C14.771,12.597 14.755,12.578 14.698,12.51 C14.64,12.439 14.623,12.42 14.61,12.405 C14.189,11.936 13.485,11.854 12.967,12.213 C12.951,12.224 12.93,12.24 12.857,12.295 L12.45,12.6 C12.183,12.8 11.817,12.8 11.55,12.6 L11.143,12.295 C11.07,12.24 11.049,12.224 11.033,12.213 C10.515,11.854 9.811,11.936 9.39,12.405 Z M13.75,5.8 C13.75,6.372 13.751,6.757 13.775,7.053 C13.798,7.34 13.84,7.477 13.886,7.567 C14.006,7.803 14.197,7.994 14.432,8.114 C14.523,8.16 14.66,8.202 14.948,8.225 C15.243,8.249 15.628,8.25 16.2,8.25 L18.108,8.25 C18.065,8.168 18.013,8.091 17.953,8.019 C17.924,7.986 17.89,7.951 17.763,7.823 L14.177,4.237 C14.049,4.11 14.014,4.076 13.981,4.047 C13.909,3.987 13.832,3.935 13.75,3.892 Z"/>
</svg>

