<svg xmlns="http://www.w3.org/2000/svg" viewBox="0 0 24 24">
  <defs/>
  <path fill="#151E28" d="M17.48,21.25 L22,21.25 C22.414,21.25 22.75,21.586 22.75,22 C22.75,22.414 22.414,22.75 22,22.75 L12,22.75 C6.063,22.75 1.25,17.937 1.25,12 C1.25,6.063 6.063,1.25 12,1.25 C17.937,1.25 22.75,6.063 22.75,12 C22.75,15.935 20.635,19.377 17.48,21.25 Z M12,2.75 C6.891,2.75 2.75,6.891 2.75,12 C2.75,17.109 6.891,21.25 12,21.25 C17.109,21.25 21.25,17.109 21.25,12 C21.25,6.891 17.109,2.75 12,2.75 Z M9.25,12 C9.25,10.481 10.481,9.25 12,9.25 C13.519,9.25 14.75,10.481 14.75,12 C14.75,13.519 13.519,14.75 12,14.75 C10.481,14.75 9.25,13.519 9.25,12 Z M12,10.75 C11.31,10.75 10.75,11.31 10.75,12 C10.75,12.69 11.31,13.25 12,13.25 C12.69,13.25 13.25,12.69 13.25,12 C13.25,11.31 12.69,10.75 12,10.75 Z M19,12 C19,12.552 18.552,13 18,13 C17.448,13 17,12.552 17,12 C17,11.448 17.448,11 18,11 C18.552,11 19,11.448 19,12 Z M12,19 C11.448,19 11,18.552 11,18 C11,17.448 11.448,17 12,17 C12.552,17 13,17.448 13,18 C13,18.552 12.552,19 12,19 Z M13,6 C13,6.552 12.552,7 12,7 C11.448,7 11,6.552 11,6 C11,5.448 11.448,5 12,5 C12.552,5 13,5.448 13,6 Z M6,13 C5.448,13 5,12.552 5,12 C5,11.448 5.448,11 6,11 C6.552,11 7,11.448 7,12 C7,12.552 6.552,13 6,13 Z"/>
</svg>

