<svg xmlns="http://www.w3.org/2000/svg" viewBox="0 0 24 24">
  <defs/>
  <path fill="#151E28" d="M8.185,3.25 L15.855,3.25 C16.959,3.25 17.84,3.25 18.512,3.31 C19.173,3.37 19.798,3.497 20.262,3.881 C20.925,4.429 21.293,5.256 21.257,6.115 C21.232,6.717 20.909,7.266 20.51,7.797 C20.106,8.337 19.516,8.992 18.777,9.813 L18.751,9.842 L15.843,13.073 C15.579,13.367 15.479,13.479 15.394,13.593 C15.037,14.072 14.819,14.64 14.764,15.235 C14.751,15.377 14.75,15.527 14.75,15.922 L14.75,18.764 C14.75,20.808 12.599,22.138 10.77,21.224 C9.839,20.758 9.25,19.806 9.25,18.764 L9.25,16.456 C9.25,15.515 9.246,15.158 9.172,14.826 C9.103,14.516 8.988,14.217 8.832,13.94 C8.665,13.644 8.43,13.376 7.8,12.676 L5.249,9.842 L5.223,9.813 C4.484,8.992 3.895,8.337 3.49,7.797 C3.092,7.266 2.769,6.717 2.743,6.115 C2.708,5.256 3.076,4.429 3.738,3.881 C4.203,3.497 4.827,3.37 5.488,3.31 C6.16,3.25 7.041,3.25 8.146,3.25 L8.185,3.25 Z M5.622,4.804 C5.007,4.86 4.785,4.962 4.694,5.037 C4.393,5.286 4.226,5.662 4.242,6.052 C4.247,6.169 4.319,6.403 4.69,6.898 C5.05,7.377 5.593,7.982 6.364,8.839 L8.915,11.673 C8.934,11.694 8.954,11.716 8.973,11.737 C9.525,12.351 9.881,12.746 10.139,13.204 C10.367,13.609 10.535,14.045 10.636,14.499 C10.75,15.012 10.75,15.543 10.75,16.369 L10.75,16.369 C10.75,16.398 10.75,16.427 10.75,16.456 L10.75,18.764 C10.75,19.237 11.018,19.67 11.441,19.882 C12.272,20.298 13.25,19.693 13.25,18.764 L13.25,15.885 C13.25,15.539 13.25,15.316 13.271,15.097 C13.351,14.227 13.67,13.397 14.191,12.697 C14.323,12.52 14.472,12.354 14.704,12.097 L14.728,12.07 L17.636,8.839 C18.407,7.982 18.951,7.377 19.31,6.898 C19.681,6.403 19.753,6.169 19.758,6.052 C19.774,5.662 19.607,5.286 19.306,5.037 C19.216,4.962 18.994,4.86 18.378,4.804 C17.781,4.751 16.968,4.75 15.815,4.75 L8.185,4.75 C7.032,4.75 6.219,4.751 5.622,4.804 Z"/>
</svg>

