<svg xmlns="http://www.w3.org/2000/svg" viewBox="0 0 24 24">
  <defs/>
  <path fill="#151E28" d="M5,1.25 C5.414,1.25 5.75,1.586 5.75,2 L5.75,3.085 L7.49,2.737 C9.193,2.396 10.963,2.703 12.452,3.597 L13.178,4.032 C14.333,4.725 15.763,4.78 16.968,4.178 C18.246,3.539 19.75,4.468 19.75,5.897 L19.75,13.018 C19.75,13.904 19.249,14.714 18.457,15.11 L18.396,15.141 C16.26,16.208 13.727,16.111 11.68,14.883 C10.511,14.181 9.122,13.941 7.784,14.208 L5.75,14.615 L5.75,22 C5.75,22.414 5.414,22.75 5,22.75 C4.586,22.75 4.25,22.414 4.25,22 L4.25,2 C4.25,1.586 4.586,1.25 5,1.25 Z M5.75,13.085 L7.49,12.737 C9.193,12.396 10.963,12.703 12.452,13.597 C14.059,14.561 16.048,14.637 17.725,13.799 L17.786,13.769 C18.07,13.626 18.25,13.336 18.25,13.018 L18.25,5.897 C18.25,5.583 17.919,5.379 17.638,5.519 C15.975,6.351 14.001,6.275 12.406,5.318 L11.68,4.883 C10.511,4.181 9.122,3.941 7.784,4.208 L5.75,4.615 Z"/>
</svg>

