<svg xmlns="http://www.w3.org/2000/svg" viewBox="0 0 24 24">
  <defs/>
  <path fill="#151E28" d="M6,1.25 C6.414,1.25 6.75,1.586 6.75,2 L6.75,3.469 L14.7,6.275 L14.737,6.288 C16.018,6.74 17.026,7.096 17.757,7.426 C18.459,7.743 19.1,8.115 19.414,8.699 C19.85,9.512 19.85,10.488 19.414,11.3 C19.1,11.885 18.459,12.257 17.757,12.574 C17.026,12.904 16.018,13.26 14.737,13.712 L14.7,13.725 L6.75,16.531 L6.75,22 C6.75,22.414 6.414,22.75 6,22.75 C5.586,22.75 5.25,22.414 5.25,22 L5.25,2 C5.25,1.586 5.586,1.25 6,1.25 Z M6.75,14.94 L14.201,12.31 C15.526,11.842 16.474,11.507 17.14,11.207 C17.841,10.89 18.04,10.689 18.092,10.591 C18.29,10.222 18.29,9.778 18.092,9.409 C18.04,9.311 17.841,9.11 17.14,8.793 C16.474,8.493 15.526,8.158 14.201,7.69 L6.75,5.06 Z"/>
</svg>

