<svg xmlns="http://www.w3.org/2000/svg" viewBox="0 0 24 24">
  <defs/>
  <path fill="#151E28" d="M9.633,2.354 C10.015,2.445 10.381,2.597 10.717,2.803 C11.096,3.035 11.415,3.354 11.876,3.815 L11.936,3.876 L12.124,4.064 C12.668,4.608 12.858,4.79 13.067,4.918 C13.268,5.042 13.488,5.133 13.717,5.188 C13.956,5.245 14.219,5.25 14.988,5.25 L17.232,5.25 C18.045,5.25 18.701,5.25 19.232,5.293 C19.778,5.338 20.258,5.432 20.702,5.659 C21.408,6.018 21.982,6.592 22.341,7.298 C22.568,7.742 22.662,8.222 22.707,8.769 C22.75,9.299 22.75,9.955 22.75,10.768 L22.75,15.232 C22.75,16.045 22.75,16.701 22.707,17.232 C22.662,17.778 22.568,18.258 22.341,18.702 C21.982,19.408 21.408,19.982 20.702,20.341 C20.258,20.568 19.778,20.662 19.232,20.707 C18.701,20.75 18.045,20.75 17.232,20.75 L6.768,20.75 C5.955,20.75 5.299,20.75 4.769,20.707 C4.222,20.662 3.742,20.568 3.298,20.341 C2.592,19.982 2.018,19.408 1.659,18.702 C1.432,18.258 1.338,17.778 1.293,17.232 C1.25,16.701 1.25,16.045 1.25,15.232 L1.25,7.768 C1.25,6.955 1.25,6.299 1.293,5.769 C1.338,5.222 1.432,4.742 1.659,4.298 C2.018,3.592 2.592,3.018 3.298,2.659 C3.742,2.432 4.222,2.338 4.769,2.293 C5.299,2.25 5.955,2.25 6.768,2.25 L8.012,2.25 L8.097,2.25 L8.098,2.25 C8.749,2.25 9.2,2.25 9.633,2.354 Z M8.012,3.75 L6.8,3.75 C5.948,3.75 5.353,3.751 4.891,3.788 C4.437,3.825 4.176,3.895 3.979,3.995 C3.555,4.211 3.211,4.555 2.995,4.979 C2.895,5.176 2.825,5.437 2.788,5.891 C2.751,6.353 2.75,6.948 2.75,7.8 L2.75,15.2 C2.75,16.052 2.751,16.647 2.788,17.109 C2.825,17.563 2.895,17.824 2.995,18.021 C3.211,18.445 3.555,18.789 3.979,19.005 C4.176,19.105 4.437,19.174 4.891,19.212 C5.353,19.249 5.948,19.25 6.8,19.25 L17.2,19.25 C18.052,19.25 18.647,19.249 19.109,19.212 C19.563,19.174 19.824,19.105 20.021,19.005 C20.445,18.789 20.789,18.445 21.005,18.021 C21.105,17.824 21.174,17.563 21.212,17.109 C21.249,16.647 21.25,16.052 21.25,15.2 L21.25,10.8 C21.25,9.948 21.249,9.353 21.212,8.891 C21.174,8.437 21.105,8.176 21.005,7.979 C20.789,7.555 20.445,7.211 20.021,6.995 C19.824,6.895 19.563,6.825 19.109,6.788 C18.647,6.751 18.052,6.75 17.2,6.75 L14.988,6.75 L14.903,6.75 C14.251,6.75 13.8,6.75 13.367,6.646 C12.985,6.555 12.619,6.403 12.283,6.197 C11.904,5.965 11.585,5.646 11.124,5.185 L11.064,5.124 L10.876,4.936 C10.332,4.392 10.142,4.21 9.933,4.082 C9.732,3.958 9.512,3.867 9.283,3.812 C9.044,3.755 8.781,3.75 8.012,3.75 Z M11.889,9.981 C11.922,10.005 11.958,10.031 12,10.062 C12.042,10.031 12.078,10.005 12.111,9.981 C13.25,9.19 14.801,9.371 15.727,10.404 C15.761,10.441 15.796,10.484 15.842,10.539 L15.842,10.539 L15.851,10.55 L15.859,10.559 C15.903,10.613 15.938,10.654 15.968,10.693 C16.794,11.758 16.725,13.265 15.807,14.252 C15.773,14.288 15.735,14.325 15.686,14.375 L15.686,14.375 L12.53,17.53 C12.237,17.823 11.763,17.823 11.47,17.53 L8.323,14.384 L8.314,14.375 L8.314,14.375 C8.265,14.325 8.227,14.288 8.193,14.252 C7.275,13.265 7.206,11.758 8.032,10.693 C8.062,10.654 8.096,10.613 8.141,10.559 L8.141,10.559 L8.149,10.55 L8.158,10.539 L8.158,10.539 C8.204,10.484 8.239,10.441 8.273,10.404 C9.199,9.371 10.75,9.19 11.889,9.981 Z M9.39,11.405 C9.377,11.42 9.36,11.439 9.301,11.51 C9.245,11.578 9.229,11.597 9.218,11.612 C8.842,12.096 8.873,12.781 9.291,13.229 C9.304,13.243 9.321,13.261 9.384,13.323 L12,15.939 L14.616,13.323 C14.679,13.261 14.696,13.243 14.709,13.229 C15.127,12.781 15.158,12.096 14.782,11.612 C14.771,11.597 14.755,11.578 14.698,11.51 C14.64,11.439 14.623,11.42 14.61,11.405 C14.189,10.936 13.485,10.854 12.967,11.213 C12.951,11.224 12.93,11.24 12.857,11.295 L12.45,11.6 C12.183,11.8 11.817,11.8 11.55,11.6 L11.143,11.295 C11.07,11.24 11.049,11.224 11.033,11.213 C10.515,10.854 9.811,10.936 9.39,11.405 Z"/>
</svg>

