<svg xmlns="http://www.w3.org/2000/svg" viewBox="0 0 24 24">
  <defs/>
  <path fill="#151E28" d="M12,2.25 C17.385,2.25 21.75,6.615 21.75,12 C21.75,17.385 17.385,21.75 12,21.75 C6.615,21.75 2.25,17.385 2.25,12 C2.25,6.615 6.615,2.25 12,2.25 Z M18.803,16.668 C19.716,15.341 20.25,13.733 20.25,12 C20.25,8.453 18.012,5.43 14.872,4.263 C14.9,5.371 14.436,6.449 13.582,7.191 C13.524,7.241 13.462,7.291 13.371,7.364 L13.371,7.364 L13.359,7.373 L13.215,7.488 C12.599,7.981 11.833,8.25 11.044,8.25 C10.349,8.25 9.706,8.614 9.349,9.21 L9.308,9.277 C10.128,9.423 10.75,10.139 10.75,11 C10.75,11.138 10.862,11.25 11,11.25 L12,11.25 C12.081,11.25 12.161,11.263 12.237,11.288 L13.858,11.829 L13.918,11.849 C14.373,12 14.689,12.106 14.981,12.265 C15.24,12.405 15.481,12.576 15.7,12.773 C15.947,12.995 16.151,13.258 16.446,13.637 L16.484,13.687 Z M5.574,6.825 C4.433,8.241 3.75,10.04 3.75,12 C3.75,15.667 6.143,18.776 9.453,19.849 L9.85,18.856 C10.014,18.446 9.918,17.978 9.606,17.667 C8.69,16.751 8.587,15.301 9.364,14.265 L10.545,12.69 C9.799,12.49 9.25,11.809 9.25,11 C9.25,10.862 9.138,10.75 9,10.75 L8,10.75 C7.716,10.75 7.456,10.59 7.329,10.335 Z M10.935,20.182 C11.284,20.227 11.639,20.25 12,20.25 C14.271,20.25 16.328,19.332 17.82,17.847 L15.3,14.608 C14.953,14.161 14.832,14.01 14.696,13.887 C14.564,13.769 14.42,13.667 14.265,13.582 C14.103,13.495 13.921,13.431 13.384,13.252 L12.276,12.882 L10.564,15.165 C10.235,15.604 10.278,16.218 10.667,16.606 C11.403,17.342 11.629,18.446 11.243,19.413 Z M6.684,5.691 L8.06,8.443 L8.063,8.438 C8.691,7.391 9.823,6.75 11.044,6.75 C11.492,6.75 11.928,6.597 12.278,6.317 L12.422,6.202 C12.529,6.116 12.566,6.086 12.598,6.059 C13.213,5.525 13.491,4.7 13.326,3.903 C13.323,3.889 13.319,3.874 13.315,3.854 C12.887,3.786 12.448,3.75 12,3.75 C9.975,3.75 8.12,4.48 6.684,5.691 Z"/>
</svg>

