<svg xmlns="http://www.w3.org/2000/svg" viewBox="0 0 24 24">
  <defs/>
  <path fill="#151E28" d="M12,2.25 C17.385,2.25 21.75,6.615 21.75,12 C21.75,17.385 17.385,21.75 12,21.75 C6.615,21.75 2.25,17.385 2.25,12 C2.25,6.615 6.615,2.25 12,2.25 Z M5.715,17.344 C7.228,19.122 9.482,20.25 12,20.25 C12.425,20.25 12.842,20.218 13.25,20.156 L13.25,18.854 C13.25,18.615 13.115,18.396 12.901,18.289 C11.847,17.762 11.421,16.482 11.947,15.429 L12.079,15.165 C12.314,14.695 12.695,14.314 13.165,14.079 L13.929,13.697 L14.022,13.651 C14.699,13.312 15.165,13.078 15.644,12.979 C16.55,12.79 17.493,12.944 18.293,13.408 C18.716,13.655 19.084,14.023 19.62,14.559 L19.788,14.728 C20.087,13.874 20.25,12.956 20.25,12 C20.25,9.212 18.867,6.747 16.75,5.254 L16.75,5.61 C16.75,6.09 16.75,6.422 16.692,6.75 C16.64,7.04 16.555,7.322 16.437,7.592 C16.304,7.897 16.119,8.174 15.852,8.573 L15.818,8.625 L15.552,9.024 L15.519,9.073 C15.27,9.447 15.098,9.705 14.888,9.93 C14.536,10.307 14.109,10.608 13.636,10.813 C13.353,10.935 13.052,11.01 12.616,11.119 L12.559,11.133 L10.977,11.529 C10.228,11.716 9.436,11.497 8.89,10.951 C8.553,10.614 7.985,10.706 7.773,11.132 L6.962,12.754 C6.822,13.032 6.75,13.339 6.75,13.65 L6.75,14.606 C6.75,14.755 6.75,14.859 6.744,14.961 C6.698,15.814 6.362,16.625 5.791,17.261 C5.767,17.289 5.742,17.316 5.715,17.344 Z M3.75,12 C3.75,13.482 4.141,14.872 4.824,16.074 C5.076,15.726 5.223,15.311 5.247,14.879 C5.25,14.823 5.25,14.762 5.25,14.586 L5.25,13.65 C5.25,13.106 5.377,12.57 5.62,12.083 L6.431,10.461 C7.102,9.119 8.89,8.829 9.951,9.89 C10.124,10.063 10.376,10.133 10.613,10.074 L12.195,9.678 C12.709,9.55 12.884,9.503 13.04,9.436 C13.325,9.313 13.58,9.133 13.792,8.907 C13.908,8.782 14.01,8.633 14.304,8.192 L14.57,7.793 C14.884,7.322 14.989,7.16 15.062,6.992 C15.133,6.83 15.184,6.66 15.215,6.487 C15.247,6.306 15.25,6.113 15.25,5.547 L15.25,4.415 C14.253,3.987 13.154,3.75 12,3.75 C7.444,3.75 3.75,7.444 3.75,12 Z M19.116,16.177 L18.632,15.693 C17.995,15.056 17.771,14.84 17.539,14.705 C17.059,14.426 16.493,14.334 15.95,14.447 C15.686,14.502 15.406,14.636 14.6,15.038 L13.835,15.421 C13.656,15.51 13.51,15.656 13.421,15.835 L13.289,16.099 C13.133,16.412 13.259,16.791 13.571,16.947 C14.294,17.308 14.75,18.047 14.75,18.854 L14.75,19.781 C16.595,19.128 18.138,17.839 19.116,16.177 Z"/>
</svg>

