<svg xmlns="http://www.w3.org/2000/svg" viewBox="0 0 24 24">
  <defs/>
  <path fill="#151E28" d="M9.698,2.841 C11.052,1.787 12.948,1.787 14.302,2.841 L20.302,7.507 C21.216,8.218 21.75,9.31 21.75,10.467 L21.75,18 C21.75,20.071 20.071,21.75 18,21.75 L6,21.75 C3.929,21.75 2.25,20.071 2.25,18 L2.25,10.467 C2.25,9.31 2.784,8.218 3.698,7.507 Z M13.381,4.025 C12.569,3.393 11.431,3.393 10.619,4.025 L4.619,8.691 C4.071,9.118 3.75,9.773 3.75,10.467 L3.75,18 C3.75,19.243 4.757,20.25 6,20.25 L18,20.25 C19.243,20.25 20.25,19.243 20.25,18 L20.25,10.467 C20.25,9.773 19.929,9.118 19.381,8.691 Z"/>
</svg>

