<svg xmlns="http://www.w3.org/2000/svg" viewBox="0 0 24 24">
  <defs/>
  <path fill="#151E28" d="M14.302,2.841 L20.302,7.507 C21.216,8.218 21.75,9.31 21.75,10.467 L21.75,18 C21.75,20.071 20.071,21.75 18,21.75 L6,21.75 C3.929,21.75 2.25,20.071 2.25,18 L2.25,10.467 C2.25,9.31 2.784,8.218 3.698,7.507 L9.698,2.841 C11.052,1.787 12.948,1.787 14.302,2.841 Z M10.619,4.025 L4.619,8.691 C4.071,9.118 3.75,9.773 3.75,10.467 L3.75,18 C3.75,19.243 4.757,20.25 6,20.25 L18,20.25 C19.243,20.25 20.25,19.243 20.25,18 L20.25,10.467 C20.25,9.773 19.929,9.118 19.381,8.691 L13.381,4.025 C12.569,3.393 11.431,3.393 10.619,4.025 Z M11.8,8.25 L12.2,8.25 C14.161,8.25 15.75,9.839 15.75,11.8 L15.75,12.2 C15.75,14.161 14.161,15.75 12.2,15.75 L11.8,15.75 C9.839,15.75 8.25,14.161 8.25,12.2 L8.25,11.8 C8.25,9.839 9.839,8.25 11.8,8.25 Z M9.75,11.8 L9.75,12.2 C9.75,13.332 10.668,14.25 11.8,14.25 L12.2,14.25 C13.332,14.25 14.25,13.332 14.25,12.2 L14.25,11.8 C14.25,10.668 13.332,9.75 12.2,9.75 L11.8,9.75 C10.668,9.75 9.75,10.668 9.75,11.8 Z"/>
</svg>

