<svg xmlns="http://www.w3.org/2000/svg" viewBox="0 0 24 24">
  <defs/>
  <path fill="#151E28" d="M12,2.25 C15.176,2.25 17.75,4.824 17.75,8 C17.75,11.176 15.176,13.75 12,13.75 C8.824,13.75 6.25,11.176 6.25,8 C6.25,4.824 8.824,2.25 12,2.25 Z M7.75,8 C7.75,10.347 9.653,12.25 12,12.25 C14.347,12.25 16.25,10.347 16.25,8 C16.25,5.653 14.347,3.75 12,3.75 C9.653,3.75 7.75,5.653 7.75,8 Z M6.149,10.293 C6.357,10.652 6.234,11.111 5.876,11.318 C5.728,11.403 5.586,11.497 5.45,11.599 C4.416,12.376 3.75,13.61 3.75,15 C3.75,17.347 5.653,19.25 8,19.25 C9.39,19.25 10.624,18.584 11.4,17.55 C11.934,16.84 12.25,15.958 12.25,15 C12.25,14.586 12.586,14.25 13,14.25 C13.414,14.25 13.75,14.586 13.75,15 C13.75,16.294 13.322,17.49 12.6,18.451 C11.552,19.846 9.881,20.75 8,20.75 C4.824,20.75 2.25,18.176 2.25,15 C2.25,13.118 3.155,11.448 4.55,10.4 C4.733,10.262 4.925,10.135 5.124,10.02 C5.483,9.812 5.942,9.935 6.149,10.293 Z M17.851,10.293 C18.058,9.935 18.517,9.812 18.875,10.02 C19.075,10.135 19.267,10.262 19.451,10.4 C20.846,11.448 21.75,13.119 21.75,15 C21.75,18.176 19.176,20.75 16,20.75 C14.954,20.75 13.971,20.47 13.125,19.98 C12.766,19.773 12.643,19.314 12.851,18.955 C13.058,18.597 13.517,18.475 13.875,18.682 C14.5,19.043 15.225,19.25 16,19.25 C18.347,19.25 20.25,17.347 20.25,15 C20.25,13.61 19.584,12.376 18.55,11.6 C18.414,11.498 18.272,11.403 18.125,11.318 C17.766,11.111 17.643,10.652 17.851,10.293 Z"/>
</svg>

