<svg xmlns="http://www.w3.org/2000/svg" viewBox="0 0 24 24">
  <defs/>
  <path fill="#151E28" d="M9.253,2.25 L14.675,2.25 L14.747,2.25 C15.166,2.25 15.495,2.25 15.814,2.326 C16.094,2.393 16.362,2.505 16.608,2.655 C16.888,2.826 17.121,3.06 17.416,3.356 L17.468,3.407 L20.593,6.532 L20.644,6.584 C20.941,6.88 21.174,7.112 21.345,7.392 C21.496,7.638 21.607,7.906 21.674,8.187 C21.75,8.505 21.75,8.834 21.75,9.252 L21.75,14.748 C21.75,15.166 21.75,15.495 21.674,15.814 C21.607,16.094 21.496,16.362 21.345,16.608 C21.174,16.888 20.941,17.121 20.644,17.416 L20.593,17.468 L17.468,20.593 L17.416,20.644 C17.121,20.941 16.888,21.174 16.608,21.345 C16.362,21.496 16.094,21.607 15.814,21.674 C15.495,21.75 15.166,21.75 14.748,21.75 L9.252,21.75 C8.834,21.75 8.505,21.75 8.187,21.674 C7.906,21.607 7.638,21.496 7.392,21.345 C7.112,21.174 6.88,20.941 6.584,20.644 L6.532,20.593 L3.407,17.468 L3.356,17.416 C3.06,17.121 2.826,16.888 2.655,16.608 C2.505,16.362 2.393,16.094 2.326,15.814 C2.25,15.495 2.25,15.166 2.25,14.747 L2.25,14.675 L2.25,9.326 L2.25,9.253 C2.25,8.834 2.25,8.505 2.326,8.187 C2.393,7.906 2.505,7.638 2.655,7.392 C2.826,7.112 3.06,6.88 3.356,6.584 L3.407,6.532 L6.532,3.407 L6.584,3.356 C6.88,3.06 7.112,2.826 7.392,2.655 C7.638,2.505 7.906,2.393 8.187,2.326 C8.505,2.25 8.834,2.25 9.253,2.25 Z M9.326,3.75 C8.801,3.75 8.66,3.755 8.537,3.785 C8.409,3.815 8.287,3.866 8.175,3.934 C8.067,4.001 7.964,4.096 7.593,4.468 L4.468,7.593 C4.096,7.964 4.001,8.067 3.934,8.175 C3.866,8.287 3.815,8.409 3.785,8.537 C3.755,8.66 3.75,8.801 3.75,9.326 L3.75,14.675 C3.75,15.2 3.755,15.34 3.785,15.463 C3.815,15.591 3.866,15.713 3.934,15.825 C4.001,15.933 4.096,16.036 4.468,16.407 L7.593,19.532 C7.964,19.904 8.067,19.999 8.175,20.066 C8.287,20.134 8.409,20.185 8.537,20.215 C8.66,20.245 8.801,20.25 9.326,20.25 L14.675,20.25 C15.2,20.25 15.34,20.245 15.463,20.215 C15.591,20.185 15.713,20.134 15.825,20.066 C15.933,19.999 16.036,19.904 16.407,19.532 L19.532,16.407 C19.904,16.036 19.999,15.933 20.066,15.825 C20.134,15.713 20.185,15.591 20.215,15.463 C20.245,15.34 20.25,15.2 20.25,14.675 L20.25,9.326 C20.25,8.801 20.245,8.66 20.215,8.537 C20.185,8.409 20.134,8.287 20.066,8.175 C19.999,8.067 19.904,7.964 19.532,7.593 L16.407,4.468 C16.036,4.096 15.933,4.001 15.825,3.934 C15.713,3.866 15.591,3.815 15.463,3.785 C15.34,3.755 15.2,3.75 14.675,3.75 Z M9.5,10.25 C8.533,10.25 7.75,11.033 7.75,12 C7.75,12.967 8.533,13.75 9.5,13.75 C9.82,13.75 10.118,13.665 10.375,13.516 C10.733,13.309 11.192,13.432 11.399,13.79 C11.607,14.149 11.484,14.607 11.125,14.815 C10.647,15.092 10.091,15.25 9.5,15.25 C7.705,15.25 6.25,13.795 6.25,12 C6.25,10.205 7.705,8.75 9.5,8.75 C11.295,8.75 12.75,10.205 12.75,12 C12.75,12.967 13.533,13.75 14.5,13.75 C15.467,13.75 16.25,12.967 16.25,12 C16.25,11.033 15.467,10.25 14.5,10.25 C14.18,10.25 13.882,10.335 13.625,10.484 C13.267,10.691 12.808,10.568 12.601,10.21 C12.393,9.851 12.516,9.393 12.875,9.185 C13.353,8.908 13.909,8.75 14.5,8.75 C16.295,8.75 17.75,10.205 17.75,12 C17.75,13.795 16.295,15.25 14.5,15.25 C12.705,15.25 11.25,13.795 11.25,12 C11.25,11.033 10.467,10.25 9.5,10.25 Z"/>
</svg>

