<svg xmlns="http://www.w3.org/2000/svg" viewBox="0 0 24 24">
  <defs/>
  <path fill="#151E28" d="M12,2.25 C17.385,2.25 21.75,6.615 21.75,12 C21.75,17.385 17.385,21.75 12,21.75 C6.615,21.75 2.25,17.385 2.25,12 C2.25,6.615 6.615,2.25 12,2.25 Z M3.75,12 C3.75,16.556 7.444,20.25 12,20.25 C16.556,20.25 20.25,16.556 20.25,12 C20.25,7.444 16.556,3.75 12,3.75 C7.444,3.75 3.75,7.444 3.75,12 Z M12,10.25 C12.414,10.25 12.75,10.586 12.75,11 L12.75,16 C12.75,16.414 12.414,16.75 12,16.75 C11.586,16.75 11.25,16.414 11.25,16 L11.25,11 C11.25,10.586 11.586,10.25 12,10.25 Z M13,8 C13,8.552 12.552,9 12,9 C11.448,9 11,8.552 11,8 C11,7.448 11.448,7 12,7 C12.552,7 13,7.448 13,8 Z"/>
</svg>

