<svg xmlns="http://www.w3.org/2000/svg" viewBox="0 0 24 24">
  <defs/>
  <path fill="#151E28" d="M14.6,2.25 L14.634,2.25 C15.726,2.25 16.591,2.25 17.288,2.306 C18.002,2.365 18.605,2.486 19.156,2.767 C20.05,3.223 20.777,3.949 21.232,4.843 C21.513,5.394 21.635,5.998 21.693,6.711 C21.75,7.409 21.75,8.274 21.75,9.367 L21.75,14.632 C21.75,15.725 21.75,16.59 21.693,17.288 C21.635,18.001 21.513,18.605 21.232,19.156 C20.777,20.05 20.05,20.776 19.156,21.232 C18.605,21.513 18.002,21.634 17.288,21.692 C16.677,21.742 15.938,21.749 15.03,21.749 C15.02,21.75 15.01,21.75 15,21.75 C14.99,21.75 14.981,21.75 14.971,21.749 C14.861,21.75 14.748,21.75 14.633,21.75 L9.367,21.75 L9.029,21.749 C9.019,21.75 9.01,21.75 9,21.75 C8.99,21.75 8.98,21.75 8.97,21.749 C8.062,21.749 7.323,21.742 6.712,21.692 C5.998,21.634 5.395,21.513 4.844,21.232 C3.95,20.776 3.223,20.05 2.768,19.156 C2.487,18.605 2.365,18.001 2.307,17.288 C2.25,16.59 2.25,15.725 2.25,14.632 L2.25,9.366 C2.25,8.274 2.25,7.409 2.307,6.711 C2.365,5.998 2.487,5.394 2.768,4.843 C3.223,3.949 3.95,3.223 4.844,2.767 C5.395,2.486 5.998,2.365 6.712,2.306 C7.409,2.25 8.275,2.25 9.366,2.25 L14.6,2.25 Z M14.25,3.75 L9.75,3.75 L9.75,20.25 L14.25,20.25 Z M15.75,20.247 C16.315,20.242 16.774,20.229 17.166,20.198 C17.787,20.147 18.171,20.05 18.476,19.895 C19.087,19.584 19.584,19.087 19.896,18.475 C20.051,18.17 20.147,17.786 20.198,17.166 C20.249,16.536 20.25,15.732 20.25,14.599 L20.25,9.4 C20.25,8.267 20.249,7.463 20.198,6.833 C20.147,6.213 20.051,5.829 19.896,5.524 C19.584,4.913 19.087,4.415 18.476,4.104 C18.171,3.949 17.787,3.852 17.166,3.802 C16.774,3.77 16.315,3.757 15.75,3.752 Z M8.25,20.247 L8.25,3.752 C7.685,3.757 7.226,3.77 6.834,3.802 C6.213,3.852 5.829,3.949 5.525,4.104 C4.913,4.415 4.416,4.913 4.104,5.524 C3.949,5.829 3.853,6.213 3.802,6.833 C3.751,7.463 3.75,8.267 3.75,9.4 L3.75,14.599 C3.75,15.732 3.751,16.536 3.802,17.166 C3.853,17.786 3.949,18.17 4.104,18.475 C4.416,19.087 4.913,19.584 5.525,19.895 C5.829,20.05 6.213,20.147 6.834,20.198 C7.226,20.229 7.685,20.242 8.25,20.247 Z"/>
</svg>

