<svg xmlns="http://www.w3.org/2000/svg" viewBox="0 0 24 24">
  <defs/>
  <path fill="#151E28" d="M20.732,6.372 C19.419,5.995 16.956,5.359 14.401,5.067 C13.124,4.921 11.843,4.863 10.682,4.959 C9.514,5.056 8.518,5.305 7.773,5.735 C6.29,6.591 5.376,7.551 4.877,8.533 C4.38,9.51 4.265,10.567 4.474,11.679 C4.551,12.086 4.283,12.479 3.876,12.555 C3.469,12.632 3.077,12.364 3,11.957 C2.737,10.56 2.875,9.161 3.539,7.854 C4.2,6.553 5.353,5.4 7.023,4.436 C8.033,3.853 9.274,3.571 10.558,3.464 C11.85,3.357 13.235,3.424 14.572,3.577 C17.245,3.883 19.798,4.543 21.146,4.931 C22.114,5.209 22.63,6.252 22.242,7.192 C21.751,8.38 20.81,10.497 19.546,12.577 C18.298,14.633 16.671,16.764 14.773,17.86 C13.103,18.824 11.528,19.246 10.071,19.168 C8.607,19.089 7.326,18.509 6.248,17.583 C5.934,17.313 5.898,16.84 6.168,16.525 C6.438,16.211 6.911,16.175 7.226,16.445 C8.085,17.183 9.058,17.611 10.151,17.67 C11.252,17.729 12.54,17.417 14.023,16.56 C15.577,15.663 17.042,13.812 18.264,11.799 C19.472,9.81 20.38,7.772 20.855,6.619 C20.879,6.562 20.874,6.511 20.854,6.47 C20.834,6.428 20.795,6.39 20.732,6.372 Z M15.237,8.711 L11.11,10.088 C9.956,10.472 8.879,11.058 7.93,11.818 C5.921,13.425 4.751,15.858 4.751,18.431 L4.751,21 C4.751,21.414 4.416,21.75 4.001,21.75 C3.587,21.75 3.251,21.414 3.251,21 L3.251,18.431 C3.251,15.402 4.628,12.538 6.993,10.647 C8.08,9.776 9.314,9.105 10.635,8.665 L14.762,7.289 C15.155,7.157 15.58,7.37 15.711,7.763 C15.842,8.156 15.63,8.58 15.237,8.711 Z"/>
</svg>

