<svg xmlns="http://www.w3.org/2000/svg" viewBox="0 0 24 24">
  <defs/>
  <path fill="#151E28" d="M17.879,8.082 C19.695,7.265 21.75,8.593 21.75,10.585 C21.75,11.665 21.117,12.645 20.132,13.088 L16.75,14.61 L16.75,19.003 C16.749,20.52 15.518,21.75 14,21.75 C12.481,21.75 11.25,20.519 11.25,19 C11.25,17.481 12.481,16.25 14,16.25 C14.45,16.25 14.875,16.358 15.25,16.55 L15.25,9.75 C15.25,9.455 15.423,9.187 15.692,9.066 Z M3,4.25 L19,4.25 C19.414,4.25 19.75,4.586 19.75,5 C19.75,5.414 19.414,5.75 19,5.75 L3,5.75 C2.586,5.75 2.25,5.414 2.25,5 C2.25,4.586 2.586,4.25 3,4.25 Z M3,11.25 L12,11.25 C12.414,11.25 12.75,11.586 12.75,12 C12.75,12.414 12.414,12.75 12,12.75 L3,12.75 C2.586,12.75 2.25,12.414 2.25,12 C2.25,11.586 2.586,11.25 3,11.25 Z M20.25,10.585 C20.25,9.682 19.318,9.079 18.494,9.45 L16.75,10.235 L16.75,12.965 L19.516,11.72 C19.963,11.519 20.25,11.075 20.25,10.585 Z M3,18.25 L7,18.25 C7.414,18.25 7.75,18.586 7.75,19 C7.75,19.414 7.414,19.75 7,19.75 L3,19.75 C2.586,19.75 2.25,19.414 2.25,19 C2.25,18.586 2.586,18.25 3,18.25 Z M15.25,19 C15.25,18.31 14.69,17.75 14,17.75 C13.31,17.75 12.75,18.31 12.75,19 C12.75,19.69 13.31,20.25 14,20.25 C14.69,20.25 15.25,19.69 15.25,19 Z"/>
</svg>

