<svg xmlns="http://www.w3.org/2000/svg" viewBox="0 0 24 24">
  <defs/>
  <path fill="#151E28" d="M19.219,20.28 C18.159,21.572 16.628,22.462 14.881,22.692 C14.443,22.75 13.934,22.75 13.075,22.75 L10.925,22.75 C10.066,22.75 9.557,22.75 9.119,22.692 C6.09,22.294 3.707,19.91 3.308,16.881 C3.25,16.442 3.25,15.933 3.25,15.07 L3.25,14.93 C3.25,14.067 3.25,13.558 3.308,13.119 C3.604,10.87 4.993,8.978 6.928,7.989 L1.47,2.53 C1.177,2.237 1.177,1.763 1.47,1.47 C1.763,1.177 2.237,1.177 2.53,1.47 L22.53,21.47 C22.823,21.763 22.823,22.237 22.53,22.53 C22.237,22.823 21.763,22.823 21.47,22.53 Z M8.06,9.121 C6.323,9.811 5.047,11.397 4.795,13.315 C4.752,13.644 4.75,14.047 4.75,15 C4.75,15.953 4.752,16.356 4.795,16.685 C5.105,19.041 6.959,20.895 9.315,21.205 C9.644,21.248 10.047,21.25 11,21.25 L13,21.25 C13.953,21.25 14.356,21.248 14.685,21.205 C16.095,21.02 17.325,20.281 18.152,19.213 L14.69,15.751 C14.439,16.894 13.419,17.75 12.2,17.75 L11.8,17.75 C10.392,17.75 9.25,16.608 9.25,15.2 L9.25,14.8 C9.25,13.581 10.106,12.561 11.249,12.31 Z M12,2.75 C11.175,2.75 10.424,3.056 9.85,3.562 C9.54,3.836 9.066,3.807 8.792,3.496 C8.518,3.186 8.547,2.712 8.858,2.438 C9.695,1.699 10.796,1.25 12,1.25 C14.623,1.25 16.75,3.377 16.75,6 L16.75,7.835 C18.852,8.773 20.38,10.748 20.692,13.119 C20.75,13.557 20.75,14.066 20.75,14.925 L20.75,15 C20.75,15.414 20.414,15.75 20,15.75 C19.586,15.75 19.25,15.414 19.25,15 C19.25,14.047 19.248,13.644 19.205,13.315 C18.895,10.959 17.041,9.105 14.685,8.795 C14.356,8.752 13.953,8.75 13,8.75 C12.586,8.75 12.25,8.414 12.25,8 C12.25,7.586 12.586,7.25 13,7.25 L13.07,7.25 C13.933,7.25 14.442,7.25 14.881,7.308 C15.005,7.324 15.128,7.344 15.25,7.367 L15.25,6 C15.25,4.205 13.795,2.75 12,2.75 Z M10.75,14.8 L10.75,15.2 C10.75,15.78 11.22,16.25 11.8,16.25 L12.2,16.25 C12.78,16.25 13.25,15.78 13.25,15.2 L13.25,14.8 C13.25,14.22 12.78,13.75 12.2,13.75 L11.8,13.75 C11.22,13.75 10.75,14.22 10.75,14.8 Z"/>
</svg>

