<svg xmlns="http://www.w3.org/2000/svg" viewBox="0 0 24 24">
  <defs/>
  <path fill="#151E28" d="M20.217,12.621 L20.03,12.809 C19.272,13.566 18.187,13.895 17.136,13.685 C15.588,13.375 15.01,11.465 16.126,10.348 L16.808,9.666 C17.196,9.278 17.196,8.65 16.808,8.262 L16.626,8.08 C16.138,7.592 15.347,7.592 14.859,8.08 L12.973,9.966 C12.935,10.004 12.91,10.054 12.902,10.107 L12.431,13.407 C12.285,14.425 11.814,15.367 11.087,16.094 L10.128,17.053 L10.128,18.156 C10.128,18.571 9.793,18.906 9.379,18.906 L8.275,18.906 L6.727,20.455 C5.848,21.333 4.424,21.333 3.545,20.455 C2.666,19.576 2.666,18.151 3.545,17.273 L7.333,13.484 C7.743,13.075 8.009,12.543 8.091,11.969 L8.589,8.481 C8.642,8.106 8.816,7.759 9.084,7.491 L10.043,6.532 L10.043,5.429 C10.043,5.014 10.378,4.679 10.793,4.679 L11.896,4.679 L12.384,4.191 C14.239,2.336 17.246,2.336 19.101,4.191 L20.217,5.307 C22.237,7.327 22.237,10.601 20.217,12.621 Z M19.156,6.367 L18.041,5.252 C16.771,3.983 14.714,3.983 13.444,5.252 L12.737,5.959 C12.597,6.1 12.406,6.179 12.207,6.179 L11.543,6.179 L11.543,6.843 C11.543,7.042 11.464,7.232 11.323,7.373 L10.145,8.552 C10.106,8.59 10.082,8.639 10.074,8.693 L9.576,12.181 C9.448,13.076 9.033,13.906 8.394,14.545 L4.606,18.333 C4.313,18.626 4.313,19.101 4.606,19.394 C4.898,19.687 5.373,19.687 5.666,19.394 L7.434,17.626 C7.575,17.486 7.765,17.406 7.964,17.406 L8.629,17.406 L8.629,16.742 C8.629,16.543 8.708,16.353 8.848,16.212 L10.027,15.033 C10.524,14.536 10.847,13.891 10.946,13.195 L11.417,9.895 C11.471,9.52 11.645,9.173 11.912,8.905 L13.798,7.02 C14.872,5.946 16.613,5.946 17.687,7.02 L17.869,7.201 C18.842,8.175 18.842,9.753 17.869,10.727 L17.187,11.409 C16.917,11.678 17.057,12.139 17.43,12.214 C17.989,12.325 18.566,12.151 18.969,11.748 L19.156,11.561 C20.59,10.127 20.59,7.802 19.156,6.367 Z"/>
</svg>

