<svg xmlns="http://www.w3.org/2000/svg" viewBox="0 0 24 24">
  <defs/>
  <path fill="#151E28" d="M2.25,11 C2.25,6.168 6.168,2.25 11,2.25 C15.833,2.25 19.75,6.168 19.75,11 C19.75,13.146 18.977,15.112 17.695,16.634 L20.53,19.47 C20.823,19.763 20.823,20.237 20.53,20.53 C20.237,20.823 19.763,20.823 19.47,20.53 L16.634,17.695 C15.112,18.977 13.146,19.75 11,19.75 C6.168,19.75 2.25,15.833 2.25,11 Z M11,3.75 C6.996,3.75 3.75,6.996 3.75,11 C3.75,15.004 6.996,18.25 11,18.25 C15.004,18.25 18.25,15.004 18.25,11 C18.25,6.996 15.004,3.75 11,3.75 Z M8,10.25 L14,10.25 C14.414,10.25 14.75,10.586 14.75,11 C14.75,11.414 14.414,11.75 14,11.75 L8,11.75 C7.586,11.75 7.25,11.414 7.25,11 C7.25,10.586 7.586,10.25 8,10.25 Z"/>
</svg>

