<svg xmlns="http://www.w3.org/2000/svg" viewBox="0 0 24 24">
  <defs/>
  <path fill="#151E28" d="M8.637,2.823 C8.914,2.723 9.232,2.651 9.583,2.719 C10.089,2.817 10.514,3.121 10.77,3.568 C10.971,3.92 10.974,4.338 10.958,4.671 C10.94,5.03 10.882,5.493 10.811,6.052 L10.807,6.084 C10.769,6.384 10.75,6.689 10.75,7 C10.75,11.004 13.996,14.25 18,14.25 L18.02,14.25 C18.388,14.25 18.691,14.25 18.924,14.261 C19.139,14.271 19.406,14.292 19.639,14.392 C20.397,14.717 20.819,15.504 20.67,16.316 C20.63,16.533 20.544,16.716 20.453,16.876 C20.369,17.024 20.258,17.191 20.137,17.373 L20.124,17.392 C18.379,20.017 15.392,21.75 12,21.75 C6.615,21.75 2.25,17.385 2.25,12 C2.25,8.145 4.487,4.815 7.73,3.232 L7.762,3.216 C8.086,3.059 8.381,2.915 8.637,2.823 Z M9.144,4.235 C8.975,4.295 8.754,4.402 8.388,4.58 C5.64,5.921 3.75,8.74 3.75,12 C3.75,16.556 7.444,20.25 12,20.25 C14.869,20.25 17.396,18.786 18.875,16.562 C19.013,16.354 19.094,16.232 19.149,16.136 C19.182,16.077 19.192,16.049 19.195,16.042 C19.215,15.926 19.166,15.829 19.063,15.778 C19.051,15.776 18.993,15.766 18.854,15.759 C18.66,15.75 18.392,15.75 18,15.75 C13.167,15.75 9.25,11.832 9.25,7 C9.25,6.626 9.273,6.258 9.319,5.896 C9.394,5.297 9.445,4.892 9.459,4.598 C9.469,4.403 9.458,4.317 9.454,4.293 L9.454,4.292 C9.417,4.238 9.369,4.206 9.302,4.193 C9.288,4.193 9.243,4.199 9.144,4.235 Z M9.306,4.193 L9.302,4.193 C9.305,4.193 9.306,4.193 9.306,4.193 Z"/>
</svg>

