<svg xmlns="http://www.w3.org/2000/svg" viewBox="0 0 24 24">
  <defs/>
  <path fill="#151E28" d="M19.67,1.108 L21.75,6 L21.75,15.967 L21.75,15.977 L21.75,16 C21.75,18.071 20.071,19.75 18,19.75 C15.929,19.75 14.25,18.071 14.25,16 C14.25,13.929 15.929,12.25 18,12.25 C18.844,12.25 19.623,12.529 20.25,13 L20.25,7.041 L9.75,10.541 L9.75,18.967 L9.75,18.977 L9.75,19 C9.75,21.071 8.071,22.75 6,22.75 C3.929,22.75 2.25,21.071 2.25,19 C2.25,16.929 3.929,15.25 6,15.25 C6.844,15.25 7.623,15.529 8.25,16 L8.25,7.306 L8.25,7.18 L8.25,7.18 C8.249,6.475 8.249,5.923 8.441,5.435 C8.609,5.007 8.883,4.627 9.236,4.332 C9.638,3.995 10.162,3.821 10.831,3.599 L10.951,3.559 L16.551,1.692 L16.585,1.681 C17.267,1.454 17.827,1.267 18.286,1.159 C18.757,1.047 19.215,0.993 19.67,1.108 Z M17.025,3.115 L11.425,4.982 C10.578,5.265 10.354,5.353 10.198,5.483 C10.038,5.617 9.913,5.789 9.837,5.984 C9.763,6.172 9.75,6.413 9.75,7.306 L9.75,8.959 L20.25,5.459 L20.25,5.44 C20.25,4.676 20.249,4.154 20.214,3.759 C20.179,3.368 20.115,3.199 20.054,3.103 C19.882,2.834 19.614,2.64 19.304,2.562 C19.194,2.535 19.013,2.528 18.631,2.618 C18.245,2.71 17.75,2.874 17.025,3.115 Z M6,16.75 C4.757,16.75 3.75,17.757 3.75,19 C3.75,20.243 4.757,21.25 6,21.25 C7.243,21.25 8.25,20.243 8.25,19 C8.25,17.757 7.243,16.75 6,16.75 Z M18,13.75 C16.757,13.75 15.75,14.757 15.75,16 C15.75,17.243 16.757,18.25 18,18.25 C19.243,18.25 20.25,17.243 20.25,16 C20.25,14.757 19.243,13.75 18,13.75 Z M21.75,5.998 L19.67,1.108 C20.351,1.279 20.941,1.704 21.319,2.296 C21.571,2.692 21.664,3.143 21.708,3.625 C21.75,4.095 21.75,4.685 21.75,5.404 Z"/>
</svg>

