<svg xmlns="http://www.w3.org/2000/svg" viewBox="0 0 24 24">
  <defs/>
  <path fill="#151E28" d="M11.226,6.813 C11.053,7.189 10.608,7.354 10.231,7.182 C9.855,7.009 9.69,6.564 9.862,6.187 C10.928,3.865 13.275,2.25 16,2.25 C16.284,2.25 16.544,2.411 16.671,2.665 C16.798,2.919 16.77,3.223 16.6,3.451 C16.066,4.161 15.75,5.042 15.75,6 C15.75,8.347 17.653,10.25 20,10.25 C20.528,10.25 21.032,10.154 21.497,9.979 C21.763,9.879 22.062,9.938 22.271,10.131 C22.479,10.324 22.561,10.618 22.481,10.891 C21.99,12.576 20.862,13.987 19.375,14.847 C19.017,15.054 18.558,14.931 18.351,14.573 C18.143,14.214 18.266,13.755 18.624,13.548 C19.387,13.107 20.028,12.48 20.485,11.73 C20.325,11.743 20.163,11.75 20,11.75 C16.824,11.75 14.25,9.176 14.25,6 C14.25,5.27 14.386,4.572 14.634,3.929 C13.117,4.337 11.871,5.407 11.226,6.813 Z M9.5,9.75 C8.382,9.75 7.413,10.343 6.897,11.215 C6.686,11.572 6.226,11.69 5.87,11.479 C5.513,11.268 5.395,10.808 5.606,10.451 C6.387,9.132 7.842,8.25 9.5,8.25 C11.73,8.25 13.603,9.85 13.944,11.969 C16.089,12.296 17.75,14.113 17.75,16.333 C17.75,18.483 16.19,20.257 14.146,20.662 C13.74,20.743 13.345,20.479 13.264,20.073 C13.184,19.666 13.448,19.272 13.854,19.191 C15.233,18.917 16.25,17.731 16.25,16.333 C16.25,14.738 14.923,13.417 13.25,13.417 C12.836,13.417 12.5,13.081 12.5,12.667 C12.5,11.072 11.173,9.75 9.5,9.75 Z M5.75,13.417 C4.077,13.417 2.75,14.738 2.75,16.333 C2.75,17.731 3.767,18.917 5.146,19.191 C5.552,19.272 5.816,19.666 5.736,20.073 C5.655,20.479 5.26,20.743 4.854,20.662 C2.81,20.257 1.25,18.483 1.25,16.333 C1.25,13.878 3.281,11.917 5.75,11.917 C6.386,11.917 6.994,12.047 7.545,12.282 C7.926,12.445 8.102,12.885 7.94,13.266 C7.777,13.647 7.336,13.824 6.955,13.661 C6.588,13.504 6.181,13.417 5.75,13.417 Z M10.416,15.376 C10.761,15.606 10.854,16.071 10.624,16.416 L9.401,18.25 L11,18.25 C11.277,18.25 11.531,18.402 11.661,18.646 C11.792,18.89 11.778,19.186 11.624,19.416 L9.624,22.416 C9.394,22.761 8.929,22.854 8.584,22.624 C8.239,22.394 8.146,21.929 8.376,21.584 L9.599,19.75 L8,19.75 C7.723,19.75 7.469,19.598 7.339,19.354 C7.208,19.11 7.223,18.814 7.376,18.584 L9.376,15.584 C9.606,15.239 10.071,15.146 10.416,15.376 Z"/>
</svg>

