<svg xmlns="http://www.w3.org/2000/svg" viewBox="0 0 24 24">
  <defs/>
  <path fill="#151E28" d="M5.246,3.708 L18.269,9.876 L18.301,9.892 C18.761,10.109 19.152,10.295 19.445,10.467 C19.731,10.636 20.06,10.868 20.239,11.237 C20.473,11.719 20.473,12.281 20.239,12.763 C20.06,13.132 19.731,13.364 19.445,13.533 C19.152,13.705 18.761,13.891 18.301,14.109 L18.269,14.124 L5.278,20.278 L5.246,20.293 C4.799,20.504 4.417,20.685 4.105,20.799 C3.798,20.912 3.419,21.017 3.026,20.926 C2.51,20.807 2.076,20.46 1.845,19.984 C1.669,19.62 1.687,19.228 1.729,18.903 C1.771,18.573 1.863,18.161 1.97,17.678 L1.978,17.644 L3.232,12 L1.978,6.356 L1.97,6.322 C1.863,5.839 1.771,5.427 1.729,5.097 C1.687,4.773 1.669,4.38 1.845,4.017 C2.076,3.54 2.51,3.193 3.026,3.074 C3.419,2.983 3.798,3.088 4.105,3.201 C4.417,3.315 4.799,3.496 5.246,3.708 Z M4.602,12.75 L3.442,17.969 C3.325,18.496 3.249,18.841 3.216,19.094 C3.196,19.255 3.201,19.326 3.203,19.346 C3.235,19.401 3.286,19.441 3.346,19.46 C3.366,19.458 3.437,19.447 3.589,19.391 C3.828,19.303 4.148,19.153 4.636,18.922 L17.626,12.768 C18.128,12.531 18.456,12.374 18.683,12.241 C18.827,12.156 18.882,12.106 18.897,12.092 C18.92,12.033 18.92,11.967 18.897,11.908 C18.882,11.894 18.827,11.844 18.683,11.759 C18.456,11.626 18.128,11.469 17.626,11.232 L4.636,5.078 C4.148,4.847 3.828,4.697 3.589,4.609 C3.437,4.553 3.366,4.543 3.346,4.54 C3.286,4.559 3.235,4.6 3.203,4.655 C3.201,4.675 3.196,4.745 3.216,4.906 C3.249,5.159 3.325,5.504 3.442,6.031 L4.602,11.25 L11,11.25 C11.414,11.25 11.75,11.586 11.75,12 C11.75,12.414 11.414,12.75 11,12.75 Z"/>
</svg>

