<svg xmlns="http://www.w3.org/2000/svg" viewBox="0 0 24 24">
  <defs/>
  <path fill="#151E28" d="M12,1.25 C17.937,1.25 22.75,6.063 22.75,12 C22.75,17.937 17.937,22.75 12,22.75 C6.063,22.75 1.25,17.937 1.25,12 C1.25,6.063 6.063,1.25 12,1.25 Z M2.75,12 C2.75,17.109 6.891,21.25 12,21.25 C17.109,21.25 21.25,17.109 21.25,12 C21.25,6.891 17.109,2.75 12,2.75 C6.891,2.75 2.75,6.891 2.75,12 Z M14.75,9 L14.75,15 C14.75,15.414 14.414,15.75 14,15.75 C13.586,15.75 13.25,15.414 13.25,15 L13.25,9 C13.25,8.586 13.586,8.25 14,8.25 C14.414,8.25 14.75,8.586 14.75,9 Z M10.75,9 L10.75,15 C10.75,15.414 10.414,15.75 10,15.75 C9.586,15.75 9.25,15.414 9.25,15 L9.25,9 C9.25,8.586 9.586,8.25 10,8.25 C10.414,8.25 10.75,8.586 10.75,9 Z"/>
</svg>

