<svg xmlns="http://www.w3.org/2000/svg" viewBox="0 0 24 24">
  <defs/>
  <path fill="#151E28" d="M10.96,4.599 C11.032,4.146 11.242,3.712 11.591,3.363 C12.47,2.484 13.894,2.484 14.773,3.363 L21.137,9.727 C22.016,10.606 22.016,12.03 21.137,12.909 C20.788,13.258 20.354,13.468 19.901,13.54 C19.922,13.701 19.929,13.864 19.921,14.028 C19.897,14.526 19.691,15.006 19.429,15.617 L19.382,15.726 L18.748,17.205 L18.714,17.286 C18.515,17.749 18.36,18.114 18.113,18.415 C17.897,18.681 17.632,18.904 17.333,19.072 C16.994,19.263 16.609,19.355 16.118,19.471 L16.033,19.492 L5.279,22.052 L5.246,22.06 C4.855,22.153 4.513,22.234 4.233,22.274 C3.946,22.316 3.61,22.333 3.279,22.202 C2.831,22.024 2.476,21.669 2.298,21.221 C2.167,20.89 2.185,20.554 2.226,20.267 C2.266,19.987 2.347,19.645 2.44,19.254 L2.448,19.222 L5.009,8.468 L5.029,8.382 L5.029,8.382 C5.145,7.892 5.237,7.506 5.428,7.167 C5.597,6.868 5.819,6.604 6.085,6.387 C6.387,6.141 6.751,5.985 7.214,5.787 L7.295,5.752 L8.774,5.118 L8.883,5.071 C9.494,4.809 9.974,4.603 10.473,4.579 C10.636,4.571 10.799,4.578 10.96,4.599 Z M11.949,6.903 C11.445,6.401 11.287,6.264 11.123,6.189 C10.942,6.106 10.743,6.068 10.544,6.077 C10.352,6.086 10.139,6.165 9.365,6.497 L7.886,7.131 C7.304,7.38 7.15,7.453 7.033,7.549 C6.913,7.648 6.811,7.768 6.735,7.903 C6.661,8.035 6.615,8.198 6.468,8.815 L3.919,19.521 L7.952,15.488 C7.366,14.441 7.519,13.092 8.409,12.202 C9.483,11.128 11.224,11.128 12.298,12.202 C13.372,13.276 13.372,15.017 12.298,16.091 C11.408,16.981 10.06,17.133 9.013,16.548 L4.98,20.581 L15.685,18.032 C16.302,17.886 16.465,17.84 16.597,17.765 C16.733,17.689 16.853,17.588 16.951,17.467 C17.047,17.35 17.12,17.197 17.37,16.614 L18.003,15.135 C18.335,14.361 18.414,14.149 18.423,13.956 C18.433,13.757 18.394,13.558 18.312,13.377 C18.237,13.213 18.099,13.056 17.597,12.551 Z M20.076,11.848 C20.369,11.556 20.369,11.081 20.076,10.788 L13.712,4.424 C13.419,4.131 12.944,4.131 12.652,4.424 C12.359,4.717 12.359,5.192 12.652,5.484 L12.848,5.681 C12.91,5.743 12.974,5.806 13.039,5.872 L13.123,5.956 L18.545,11.377 L18.629,11.461 L18.629,11.461 L18.629,11.461 C18.694,11.527 18.758,11.59 18.819,11.652 L19.016,11.848 C19.309,12.141 19.783,12.141 20.076,11.848 Z M9.479,15.04 C9.968,15.519 10.752,15.515 11.237,15.03 C11.726,14.542 11.726,13.751 11.237,13.263 C10.749,12.774 9.958,12.774 9.47,13.263 C8.985,13.748 8.982,14.532 9.46,15.021 C9.464,15.024 9.467,15.027 9.47,15.03 C9.473,15.033 9.476,15.037 9.479,15.04 Z"/>
</svg>

