<svg xmlns="http://www.w3.org/2000/svg" viewBox="0 0 24 24">
  <defs/>
  <path fill="#151E28" d="M12.694,1.302 C13.02,1.443 13.246,1.693 13.419,1.925 C13.589,2.151 13.773,2.451 13.984,2.793 L13.984,2.793 L13.984,2.793 L14.001,2.821 L19.795,12.236 L19.841,12.311 L19.841,12.311 C20.106,12.74 20.313,13.078 20.418,13.453 C20.51,13.783 20.54,14.127 20.505,14.468 C20.466,14.856 20.319,15.224 20.131,15.691 L20.098,15.773 L19.501,17.267 L19.457,17.378 C19.21,17.995 19.017,18.48 18.681,18.85 C18.571,18.971 18.451,19.081 18.322,19.18 C18.591,19.551 18.75,20.007 18.75,20.5 C18.75,21.743 17.743,22.75 16.5,22.75 L7.5,22.75 C6.257,22.75 5.25,21.743 5.25,20.5 C5.25,20.007 5.409,19.551 5.678,19.18 C5.549,19.081 5.429,18.971 5.319,18.85 C4.983,18.48 4.789,17.995 4.543,17.378 L4.499,17.267 L3.901,15.773 L3.869,15.691 C3.681,15.224 3.534,14.856 3.494,14.468 C3.46,14.127 3.489,13.783 3.582,13.453 C3.686,13.078 3.894,12.74 4.159,12.311 L4.205,12.236 L9.998,2.821 L10.016,2.793 C10.226,2.451 10.411,2.151 10.58,1.925 C10.754,1.693 10.979,1.443 11.306,1.302 C11.749,1.11 12.251,1.11 12.694,1.302 Z M15.833,18.25 C16.676,18.25 16.902,18.239 17.083,18.171 C17.27,18.102 17.437,17.988 17.571,17.841 C17.701,17.698 17.795,17.492 18.108,16.71 L18.706,15.216 C18.941,14.628 18.998,14.468 19.013,14.317 C19.029,14.162 19.015,14.006 18.973,13.856 C18.933,13.71 18.85,13.562 18.517,13.022 L12.75,3.65 L12.75,9.354 C13.904,9.68 14.75,10.741 14.75,12 C14.75,13.519 13.519,14.75 12,14.75 C10.481,14.75 9.25,13.519 9.25,12 C9.25,10.741 10.096,9.68 11.25,9.354 L11.25,3.65 L5.482,13.022 C5.15,13.562 5.067,13.71 5.026,13.856 C4.985,14.006 4.971,14.162 4.987,14.317 C5.002,14.468 5.059,14.628 5.294,15.216 L5.892,16.71 C6.204,17.492 6.299,17.698 6.429,17.841 C6.563,17.988 6.73,18.102 6.917,18.171 C7.098,18.239 7.324,18.25 8.166,18.25 Z M15.952,19.75 L8.048,19.75 L8.044,19.75 C7.969,19.75 7.896,19.75 7.824,19.75 L7.5,19.75 C7.086,19.75 6.75,20.086 6.75,20.5 C6.75,20.914 7.086,21.25 7.5,21.25 L16.5,21.25 C16.914,21.25 17.25,20.914 17.25,20.5 C17.25,20.086 16.914,19.75 16.5,19.75 L16.176,19.75 C16.104,19.75 16.031,19.75 15.955,19.75 L15.952,19.75 Z M12,10.75 C11.31,10.75 10.75,11.31 10.75,12 C10.75,12.691 11.31,13.25 12,13.25 C12.69,13.25 13.25,12.691 13.25,12 C13.25,11.31 12.69,10.75 12,10.75 Z"/>
</svg>

