<svg xmlns="http://www.w3.org/2000/svg" viewBox="0 0 24 24">
  <defs/>
  <path fill="#151E28" d="M6.644,13.374 C7.513,13.558 8.341,13.987 9.016,14.662 C10.089,15.736 10.089,17.477 9.016,18.551 L6.187,21.379 C5.113,22.454 3.372,22.454 2.298,21.379 C0.447,19.528 0.443,16.529 2.286,14.674 L2.298,14.662 C7.655,9.305 16.333,9.292 21.705,14.624 L21.743,14.662 C23.598,16.517 23.598,19.524 21.743,21.379 C20.67,22.454 18.928,22.454 17.854,21.379 L15.026,18.551 C13.952,17.477 13.952,15.736 15.026,14.662 C15.701,13.987 16.528,13.558 17.397,13.374 C14.014,11.722 10.027,11.722 6.644,13.374 Z M17.469,4.586 L12.469,8.586 C12.195,8.805 11.805,8.805 11.531,8.586 L7.75,5.56 L7.75,8 C7.75,8.414 7.414,8.75 7,8.75 C6.586,8.75 6.25,8.414 6.25,8 L6.25,4 C6.25,3.586 6.586,3.25 7,3.25 L11,3.25 C11.414,3.25 11.75,3.586 11.75,4 C11.75,4.414 11.414,4.75 11,4.75 L9.138,4.75 L12,7.04 L16.531,3.414 C16.855,3.156 17.327,3.208 17.586,3.531 C17.844,3.855 17.792,4.327 17.469,4.586 Z M7.955,15.723 C6.686,14.453 4.628,14.453 3.359,15.723 C2.089,16.992 2.089,19.05 3.359,20.319 C3.847,20.807 4.638,20.807 5.126,20.319 L7.955,17.49 C8.443,17.002 8.443,16.211 7.955,15.723 Z M20.683,15.723 L20.654,15.694 C19.382,14.453 17.346,14.463 16.087,15.723 C15.598,16.211 15.598,17.002 16.087,17.49 L18.915,20.319 C19.403,20.807 20.195,20.807 20.683,20.319 C21.948,19.053 21.952,17.004 20.694,15.734 Z"/>
</svg>

