<svg xmlns="http://www.w3.org/2000/svg" viewBox="0 0 24 24">
  <defs/>
  <path fill="#151E28" d="M20.75,9.542 C20.75,12.309 19.671,14.764 18.324,16.753 C16.976,18.742 15.333,20.307 14.13,21.312 L14.081,21.353 C13.66,21.705 13.318,21.991 12.756,22.152 C12.517,22.22 12.241,22.244 12,22.244 C11.759,22.244 11.483,22.22 11.245,22.152 C10.683,21.992 10.34,21.705 9.919,21.353 L9.87,21.312 C8.667,20.307 7.024,18.742 5.676,16.753 C4.329,14.764 3.25,12.309 3.25,9.542 C3.25,6.808 4.346,4.712 6.018,3.311 C7.673,1.924 9.852,1.25 12,1.25 C14.148,1.25 16.327,1.924 17.982,3.311 C19.654,4.712 20.75,6.808 20.75,9.542 Z M4.75,9.542 C4.75,11.913 5.675,14.077 6.918,15.911 C8.16,17.745 9.692,19.208 10.832,20.16 C11.311,20.561 11.425,20.644 11.657,20.71 C11.714,20.726 11.84,20.744 12,20.744 C12.161,20.744 12.286,20.726 12.344,20.71 C12.575,20.644 12.689,20.561 13.169,20.16 C14.309,19.208 15.84,17.745 17.082,15.911 C18.325,14.077 19.25,11.913 19.25,9.542 C19.25,7.247 18.346,5.573 17.018,4.46 C15.673,3.333 13.852,2.75 12,2.75 C10.148,2.75 8.327,3.333 6.982,4.46 C5.654,5.573 4.75,7.247 4.75,9.542 Z M16.53,8.53 L11.53,13.53 C11.237,13.823 10.763,13.823 10.47,13.53 L8.47,11.53 C8.177,11.237 8.177,10.763 8.47,10.47 C8.763,10.177 9.237,10.177 9.53,10.47 L11,11.939 L15.47,7.47 C15.763,7.177 16.237,7.177 16.53,7.47 C16.823,7.763 16.823,8.237 16.53,8.53 Z"/>
</svg>

