<svg xmlns="http://www.w3.org/2000/svg" viewBox="0 0 24 24">
  <defs/>
  <path fill="#151E28" d="M10.46,20.738 L3.634,8.158 L2.821,6.766 C2.364,5.982 2.571,4.932 3.398,4.437 C5.913,2.929 8.856,2.063 11.999,2.063 C15.142,2.063 18.084,2.929 20.599,4.437 C21.426,4.932 21.634,5.982 21.176,6.766 L20.363,8.158 L13.537,20.738 C12.875,21.958 11.123,21.958 10.46,20.738 Z M5.311,8.104 L5.838,9.074 C6.412,8.562 7.17,8.25 8,8.25 C9.795,8.25 11.25,9.705 11.25,11.5 C11.25,13 10.235,14.26 8.856,14.636 L11.779,20.023 C11.873,20.197 12.124,20.197 12.218,20.023 L13.734,17.229 C12.842,16.65 12.25,15.645 12.25,14.5 C12.25,12.705 13.705,11.25 15.5,11.25 C15.972,11.25 16.421,11.351 16.826,11.532 L18.686,8.104 C16.668,7.117 14.399,6.563 11.999,6.563 C9.598,6.563 7.329,7.117 5.311,8.104 Z M19.423,6.794 L19.881,6.01 C19.953,5.886 19.902,5.767 19.828,5.723 C17.54,4.352 14.862,3.563 11.999,3.563 C9.135,3.563 6.458,4.352 4.17,5.723 C4.096,5.767 4.044,5.886 4.116,6.01 L4.575,6.794 C6.813,5.686 9.334,5.063 11.999,5.063 C14.663,5.063 17.185,5.686 19.423,6.794 Z M8.13,13.298 C8.197,13.26 8.271,13.231 8.351,13.215 C8.385,13.208 8.418,13.2 8.451,13.192 C9.2,12.993 9.75,12.31 9.75,11.5 C9.75,10.533 8.967,9.75 8,9.75 C7.428,9.75 6.921,10.024 6.6,10.45 L6.591,10.462 Z M16.107,12.858 C15.918,12.788 15.714,12.75 15.5,12.75 C14.534,12.75 13.75,13.533 13.75,14.5 C13.75,15.073 14.026,15.583 14.454,15.903 Z"/>
</svg>

