<svg xmlns="http://www.w3.org/2000/svg" viewBox="0 0 24 24">
  <defs/>
  <path fill="#151E28" d="M2.25,12 C2.25,6.615 6.615,2.25 12,2.25 C17.385,2.25 21.75,6.615 21.75,12 C21.75,17.385 17.385,21.75 12,21.75 C6.615,21.75 2.25,17.385 2.25,12 Z M12,3.75 C7.444,3.75 3.75,7.444 3.75,12 C3.75,16.556 7.444,20.25 12,20.25 C16.556,20.25 20.25,16.556 20.25,12 C20.25,7.444 16.556,3.75 12,3.75 Z M7.25,12 C7.25,11.586 7.586,11.25 8,11.25 L11.25,11.25 L11.25,8 C11.25,7.586 11.586,7.25 12,7.25 C12.414,7.25 12.75,7.586 12.75,8 L12.75,11.25 L16,11.25 C16.414,11.25 16.75,11.586 16.75,12 C16.75,12.414 16.414,12.75 16,12.75 L12.75,12.75 L12.75,16 C12.75,16.414 12.414,16.75 12,16.75 C11.586,16.75 11.25,16.414 11.25,16 L11.25,12.75 L8,12.75 C7.586,12.75 7.25,12.414 7.25,12 Z"/>
</svg>

