<svg xmlns="http://www.w3.org/2000/svg" viewBox="0 0 24 24">
  <defs/>
  <path fill="#151E28" d="M2.25,12 C2.25,6.615 6.615,2.25 12,2.25 C17.385,2.25 21.75,6.615 21.75,12 C21.75,17.385 17.385,21.75 12,21.75 C6.615,21.75 2.25,17.385 2.25,12 Z M12,3.75 C7.444,3.75 3.75,7.444 3.75,12 C3.75,16.556 7.444,20.25 12,20.25 C16.556,20.25 20.25,16.556 20.25,12 C20.25,7.444 16.556,3.75 12,3.75 Z M9.562,9.85 C9.056,10.424 8.75,11.175 8.75,12 C8.75,13.795 10.205,15.25 12,15.25 C13.795,15.25 15.25,13.795 15.25,12 C15.25,11.175 14.944,10.424 14.438,9.85 C14.164,9.54 14.193,9.066 14.504,8.792 C14.814,8.518 15.288,8.547 15.562,8.858 C16.301,9.695 16.75,10.796 16.75,12 C16.75,14.623 14.623,16.75 12,16.75 C9.377,16.75 7.25,14.623 7.25,12 C7.25,10.796 7.699,9.695 8.438,8.858 C8.712,8.547 9.186,8.518 9.496,8.792 C9.807,9.066 9.836,9.54 9.562,9.85 Z M12,7.25 C12.414,7.25 12.75,7.586 12.75,8 L12.75,12 C12.75,12.414 12.414,12.75 12,12.75 C11.586,12.75 11.25,12.414 11.25,12 L11.25,8 C11.25,7.586 11.586,7.25 12,7.25 Z"/>
</svg>

