<svg xmlns="http://www.w3.org/2000/svg" viewBox="0 0 24 24">
  <defs/>
  <path fill="#151E28" d="M4.75,6 L4.75,10.2 C4.75,11.052 4.751,11.647 4.788,12.109 C4.825,12.563 4.895,12.824 4.995,13.021 C5.211,13.445 5.555,13.789 5.979,14.005 C6.176,14.105 6.437,14.175 6.891,14.212 C7.353,14.249 7.948,14.25 8.8,14.25 L15.2,14.25 C16.052,14.25 16.647,14.249 17.109,14.212 C17.563,14.175 17.824,14.105 18.021,14.005 C18.445,13.789 18.789,13.445 19.005,13.021 C19.105,12.824 19.174,12.563 19.212,12.109 C19.249,11.647 19.25,11.052 19.25,10.2 L19.25,6 C19.25,5.586 19.586,5.25 20,5.25 C20.414,5.25 20.75,5.586 20.75,6 L20.75,10.232 C20.75,11.045 20.75,11.701 20.707,12.231 C20.662,12.778 20.568,13.258 20.341,13.703 C19.982,14.408 19.408,14.982 18.702,15.341 C18.258,15.568 17.778,15.662 17.232,15.707 C16.701,15.75 16.045,15.75 15.232,15.75 L12.75,15.75 L12.75,17.575 L17.386,20.357 C17.741,20.57 17.856,21.031 17.643,21.386 C17.43,21.741 16.969,21.856 16.614,21.643 L12,18.875 L7.386,21.643 C7.031,21.856 6.57,21.741 6.357,21.386 C6.144,21.031 6.259,20.57 6.614,20.357 L11.25,17.575 L11.25,15.75 L8.768,15.75 C7.955,15.75 7.299,15.75 6.769,15.707 C6.222,15.662 5.742,15.568 5.298,15.341 C4.592,14.982 4.018,14.408 3.659,13.703 C3.432,13.258 3.338,12.778 3.293,12.231 C3.25,11.701 3.25,11.045 3.25,10.232 L3.25,6 C3.25,5.586 3.586,5.25 4,5.25 C4.414,5.25 4.75,5.586 4.75,6 Z M1.25,3 C1.25,2.586 1.586,2.25 2,2.25 L22,2.25 C22.414,2.25 22.75,2.586 22.75,3 C22.75,3.414 22.414,3.75 22,3.75 L2,3.75 C1.586,3.75 1.25,3.414 1.25,3 Z M16.416,8.624 L13.416,10.624 C13.119,10.822 12.722,10.783 12.47,10.53 L10.904,8.965 L8.416,10.624 C8.071,10.854 7.606,10.761 7.376,10.416 C7.146,10.071 7.239,9.606 7.584,9.376 L10.584,7.376 C10.881,7.178 11.278,7.217 11.53,7.47 L13.096,9.035 L15.584,7.376 C15.929,7.146 16.394,7.239 16.624,7.584 C16.854,7.929 16.761,8.394 16.416,8.624 Z"/>
</svg>

