<svg xmlns="http://www.w3.org/2000/svg" viewBox="0 0 24 24">
  <defs/>
  <path fill="#151E28" d="M17,2.25 L17.095,2.25 C17.933,2.25 18.467,2.25 18.927,2.341 C20.811,2.716 22.284,4.189 22.659,6.073 C22.75,6.533 22.75,7.067 22.75,7.905 L22.75,16.095 C22.75,16.933 22.75,17.467 22.659,17.927 C22.284,19.811 20.811,21.284 18.927,21.659 C18.467,21.75 17.933,21.75 17.095,21.75 L6.905,21.75 C6.067,21.75 5.533,21.75 5.073,21.659 C3.189,21.284 1.716,19.811 1.341,17.927 C1.25,17.467 1.25,16.933 1.25,16.095 L1.25,16 L1.25,8 L1.25,7.905 C1.25,7.067 1.25,6.533 1.341,6.073 C1.716,4.189 3.189,2.716 5.073,2.341 C5.533,2.25 6.067,2.25 6.905,2.25 L7,2.25 Z M18.634,3.812 C18.338,3.754 17.965,3.75 17,3.75 L7,3.75 C6.035,3.75 5.662,3.754 5.366,3.812 C4.077,4.069 3.069,5.077 2.812,6.366 C2.754,6.662 2.75,7.035 2.75,8 L2.75,16 C2.75,16.965 2.754,17.338 2.812,17.634 C3.069,18.923 4.077,19.931 5.366,20.188 C5.662,20.246 6.035,20.25 7,20.25 L17,20.25 C17.965,20.25 18.338,20.246 18.634,20.188 C19.923,19.931 20.931,18.923 21.188,17.634 C21.246,17.338 21.25,16.965 21.25,16 L21.25,8 C21.25,7.035 21.246,6.662 21.188,6.366 C20.931,5.077 19.923,4.069 18.634,3.812 Z M14,8.25 C14.414,8.25 14.75,8.586 14.75,9 L14.75,10.189 L16.47,8.47 C16.763,8.177 17.237,8.177 17.53,8.47 C17.823,8.763 17.823,9.237 17.53,9.53 L15.061,12 L17.53,14.47 C17.823,14.763 17.823,15.238 17.53,15.53 C17.237,15.823 16.763,15.823 16.47,15.53 L14.75,13.811 L14.75,15 C14.75,15.414 14.414,15.75 14,15.75 C13.586,15.75 13.25,15.414 13.25,15 L13.25,9 C13.25,8.586 13.586,8.25 14,8.25 Z M7.75,9 C7.75,9.476 7.751,9.796 7.767,10.043 C7.784,10.284 7.813,10.401 7.845,10.478 C7.972,10.785 8.215,11.028 8.522,11.155 C8.599,11.187 8.716,11.216 8.957,11.233 C9.204,11.25 9.524,11.25 10,11.25 L10.25,11.25 L10.25,9 C10.25,8.586 10.586,8.25 11,8.25 C11.414,8.25 11.75,8.586 11.75,9 L11.75,15 C11.75,15.414 11.414,15.75 11,15.75 C10.586,15.75 10.25,15.414 10.25,15 L10.25,12.75 L9.975,12.75 C9.53,12.75 9.159,12.75 8.855,12.729 C8.538,12.708 8.238,12.661 7.948,12.541 C7.274,12.262 6.739,11.726 6.459,11.052 C6.339,10.762 6.293,10.462 6.271,10.145 C6.25,9.841 6.25,9.47 6.25,9.025 L6.25,9 C6.25,8.586 6.586,8.25 7,8.25 C7.414,8.25 7.75,8.586 7.75,9 Z"/>
</svg>

