<svg xmlns="http://www.w3.org/2000/svg" viewBox="0 0 24 24">
  <defs/>
  <path fill="#151E28" d="M19.25,11 C18.623,11.471 17.844,11.75 17,11.75 C14.929,11.75 13.25,10.071 13.25,8 C13.25,5.929 14.929,4.25 17,4.25 C19.071,4.25 20.75,5.929 20.75,8 L20.75,14.096 C20.75,14.934 20.75,15.467 20.659,15.927 C20.284,17.811 18.811,19.284 16.927,19.659 C16.467,19.75 15.934,19.75 15.096,19.75 L15,19.75 C14.586,19.75 14.25,19.414 14.25,19 C14.25,18.586 14.586,18.25 15,18.25 C15.965,18.25 16.338,18.246 16.634,18.188 C17.923,17.931 18.931,16.923 19.188,15.634 C19.246,15.338 19.25,14.965 19.25,14 Z M9,10.75 C8.373,11.221 7.594,11.5 6.75,11.5 C4.679,11.5 3,9.821 3,7.75 C3,5.679 4.679,4 6.75,4 C8.821,4 10.5,5.679 10.5,7.75 L10.5,13.846 C10.5,14.684 10.5,15.217 10.409,15.677 C10.034,17.561 8.561,19.034 6.677,19.409 C6.217,19.5 5.684,19.5 4.846,19.5 L4.75,19.5 C4.336,19.5 4,19.164 4,18.75 C4,18.336 4.336,18 4.75,18 C5.715,18 6.088,17.996 6.384,17.938 C7.673,17.681 8.681,16.673 8.938,15.384 C8.996,15.088 9,14.715 9,13.75 Z M6.75,5.5 C5.507,5.5 4.5,6.507 4.5,7.75 C4.5,8.993 5.507,10 6.75,10 C7.993,10 9,8.993 9,7.75 C9,6.507 7.993,5.5 6.75,5.5 Z M14.75,8 C14.75,9.243 15.757,10.25 17,10.25 C18.243,10.25 19.25,9.243 19.25,8 C19.25,6.757 18.243,5.75 17,5.75 C15.757,5.75 14.75,6.757 14.75,8 Z"/>
</svg>

