<svg xmlns="http://www.w3.org/2000/svg" viewBox="0 0 24 24">
  <defs/>
  <path fill="#151E28" d="M19.119,5.865 C18.399,5.936 17.587,6.061 16.852,6.275 C16.102,6.493 15.519,6.78 15.177,7.122 C14.681,7.617 14.439,8.072 14.348,8.47 C14.255,8.874 13.853,9.126 13.449,9.033 C13.045,8.941 12.793,8.538 12.886,8.135 C13.053,7.403 13.469,6.708 14.116,6.061 C14.723,5.454 15.595,5.078 16.434,4.834 C17.289,4.586 18.201,4.449 18.97,4.372 C20.515,4.218 21.78,5.484 21.627,7.029 C21.55,7.798 21.413,8.71 21.164,9.565 C20.92,10.404 20.545,11.275 19.938,11.882 C18.759,13.061 17.448,13.434 16.17,13.054 C15.773,12.936 15.547,12.518 15.665,12.121 C15.783,11.724 16.201,11.498 16.598,11.616 C17.249,11.81 18.009,11.689 18.877,10.822 C19.219,10.48 19.506,9.897 19.724,9.146 C19.937,8.412 20.062,7.6 20.134,6.88 C20.194,6.278 19.721,5.805 19.119,5.865 Z M4.591,10.898 C4.962,11.518 5.422,12.199 5.928,12.772 C6.445,13.358 6.953,13.762 7.408,13.926 C8.562,14.34 9.301,14.125 9.807,13.672 C10.116,13.396 10.59,13.422 10.866,13.731 C11.142,14.04 11.116,14.514 10.807,14.79 C9.814,15.679 8.469,15.901 6.901,15.337 C6.093,15.047 5.382,14.42 4.804,13.765 C4.214,13.098 3.701,12.332 3.304,11.669 C2.506,10.337 3.111,8.653 4.574,8.133 C5.302,7.874 6.185,7.609 7.064,7.47 C7.927,7.332 8.875,7.3 9.683,7.591 C10.543,7.9 11.216,8.351 11.68,8.941 C11.936,9.267 11.879,9.738 11.553,9.994 C11.228,10.25 10.756,10.194 10.5,9.868 C10.248,9.547 9.835,9.239 9.176,9.002 C8.721,8.839 8.072,8.828 7.3,8.951 C6.545,9.071 5.757,9.304 5.076,9.546 C4.506,9.749 4.28,10.379 4.591,10.898 Z M9,10.75 L9,11.498 C9,10.751 9,10.75 9,10.75 L9.012,10.75 L9.035,10.75 C9.054,10.751 9.08,10.751 9.113,10.752 C9.18,10.755 9.272,10.759 9.385,10.768 C9.611,10.785 9.923,10.82 10.272,10.889 C10.941,11.023 11.871,11.31 12.53,11.97 C12.921,12.36 13.151,12.921 13.303,13.496 C13.46,14.088 13.558,14.793 13.622,15.563 C13.75,17.094 13.75,18.994 13.75,20.974 L13.75,21 C13.75,21.414 13.414,21.75 13,21.75 C12.586,21.75 12.25,21.414 12.25,21 C12.25,18.989 12.249,17.15 12.127,15.688 C12.067,14.957 11.977,14.35 11.853,13.88 C11.724,13.392 11.579,13.14 11.469,13.03 C11.129,12.69 10.559,12.477 9.978,12.36 C9.702,12.305 9.451,12.277 9.271,12.263 C9.181,12.257 9.109,12.253 9.062,12.252 C9.038,12.251 9.021,12.25 9.01,12.25 L9,12.25 L8.999,12.25 C8.585,12.249 8.25,11.914 8.25,11.5 C8.25,11.086 8.586,10.75 9,10.75 Z M15.63,8.78 C15.99,8.575 16.447,8.702 16.652,9.062 C16.856,9.421 16.731,9.878 16.373,10.083 L16.372,10.083 L16.372,10.083 L16.371,10.084 L16.37,10.084 L16.35,10.097 C16.33,10.109 16.298,10.129 16.257,10.157 C16.174,10.213 16.056,10.299 15.925,10.411 C15.656,10.641 15.36,10.957 15.171,11.336 C14.985,11.706 14.535,11.856 14.164,11.671 C13.794,11.486 13.644,11.035 13.829,10.665 C14.14,10.043 14.594,9.575 14.95,9.271 C15.131,9.116 15.295,8.997 15.415,8.916 C15.475,8.875 15.525,8.843 15.562,8.82 C15.58,8.809 15.595,8.8 15.607,8.793 L15.621,8.785 L15.626,8.782 L15.628,8.781 L15.629,8.78 L15.629,8.78 C15.629,8.78 15.63,8.78 16,9.432 Z"/>
</svg>

