<svg xmlns="http://www.w3.org/2000/svg" viewBox="0 0 24 24">
  <defs/>
  <path fill="#151E28" d="M14.325,4.25 C14.672,2.538 16.186,1.25 18,1.25 C20.071,1.25 21.75,2.929 21.75,5 C21.75,7.071 20.071,8.75 18,8.75 C16.186,8.75 14.672,7.462 14.325,5.75 L9,5.75 C7.431,5.75 6.122,6.861 5.817,8.339 C7.495,8.712 8.75,10.21 8.75,12 C8.75,13.79 7.495,15.288 5.817,15.661 C6.122,17.139 7.431,18.25 9,18.25 L14.325,18.25 C14.672,16.538 16.186,15.25 18,15.25 C20.071,15.25 21.75,16.929 21.75,19 C21.75,21.071 20.071,22.75 18,22.75 C16.186,22.75 14.672,21.462 14.325,19.75 L9,19.75 C6.609,19.75 4.631,17.984 4.299,15.685 C2.563,15.356 1.25,13.832 1.25,12 C1.25,10.168 2.563,8.644 4.299,8.315 C4.631,6.016 6.609,4.25 9,4.25 Z M5,9.75 C3.757,9.75 2.75,10.757 2.75,12 C2.75,13.243 3.757,14.25 5,14.25 C6.243,14.25 7.25,13.243 7.25,12 C7.25,10.757 6.243,9.75 5,9.75 Z M18,2.75 C16.757,2.75 15.75,3.757 15.75,5 C15.75,6.243 16.757,7.25 18,7.25 C19.243,7.25 20.25,6.243 20.25,5 C20.25,3.757 19.243,2.75 18,2.75 Z M15.75,19 C15.75,20.243 16.757,21.25 18,21.25 C19.243,21.25 20.25,20.243 20.25,19 C20.25,17.757 19.243,16.75 18,16.75 C16.757,16.75 15.75,17.757 15.75,19 Z"/>
</svg>

