<svg xmlns="http://www.w3.org/2000/svg" viewBox="0 0 24 24">
  <defs/>
  <path fill="#151E28" d="M12,2.25 C15.382,2.25 17.576,2.869 18.897,3.46 C20.229,4.055 20.75,5.415 20.75,6.654 L20.75,13.46 C20.75,14.54 20.588,15.74 19.931,16.772 C17.71,20.267 13.648,21.401 12.49,21.665 C12.165,21.739 11.835,21.739 11.51,21.665 C10.352,21.401 6.29,20.267 4.069,16.772 C3.412,15.74 3.25,14.54 3.25,13.46 L3.25,6.654 C3.25,5.415 3.772,4.055 5.103,3.46 C6.424,2.869 8.618,2.25 12,2.25 Z M5.715,4.829 C5.11,5.1 4.75,5.772 4.75,6.654 L4.75,13.46 C4.75,14.415 4.899,15.282 5.335,15.967 C7.216,18.927 10.749,19.953 11.844,20.202 C11.949,20.226 12.051,20.226 12.156,20.202 C13.251,19.953 16.784,18.927 18.665,15.968 C19.101,15.283 19.25,14.415 19.25,13.46 L19.25,6.654 C19.25,5.772 18.89,5.1 18.285,4.829 C17.177,4.334 15.196,3.75 12,3.75 C8.804,3.75 6.823,4.334 5.715,4.829 Z M16.03,10.03 L11.53,14.53 C11.237,14.823 10.762,14.823 10.47,14.53 L8.47,12.53 C8.177,12.237 8.177,11.763 8.47,11.47 C8.763,11.177 9.237,11.177 9.53,11.47 L11,12.939 L14.97,8.97 C15.262,8.677 15.737,8.677 16.03,8.97 C16.323,9.263 16.323,9.737 16.03,10.03 Z"/>
</svg>

