<svg xmlns="http://www.w3.org/2000/svg" viewBox="0 0 24 24">
  <defs/>
  <path fill="#151E28" d="M15.629,3.954 L15.658,3.935 C16.035,3.693 16.36,3.484 16.633,3.342 C16.907,3.199 17.245,3.059 17.625,3.086 C18.131,3.122 18.597,3.376 18.901,3.783 C19.129,4.087 19.194,4.447 19.222,4.755 C19.25,5.061 19.25,5.448 19.25,5.896 L19.25,18.104 C19.25,18.551 19.25,18.938 19.222,19.245 C19.194,19.553 19.129,19.912 18.901,20.217 C18.597,20.623 18.131,20.878 17.625,20.914 C17.245,20.941 16.907,20.801 16.633,20.658 C16.36,20.516 16.035,20.307 15.658,20.065 L15.629,20.046 L5.75,13.695 L5.75,20 C5.75,20.414 5.414,20.75 5,20.75 C4.586,20.75 4.25,20.414 4.25,20 L4.25,12.336 C4.25,12.326 4.25,12.315 4.25,12.305 L4.25,11.695 C4.25,11.684 4.25,11.674 4.25,11.663 L4.25,4 C4.25,3.586 4.586,3.25 5,3.25 C5.414,3.25 5.75,3.586 5.75,4 L5.75,10.305 Z M16.44,5.215 L5.887,12 L16.44,18.784 C16.854,19.05 17.121,19.221 17.326,19.327 C17.454,19.394 17.515,19.412 17.532,19.416 C17.594,19.408 17.651,19.377 17.691,19.329 C17.697,19.312 17.715,19.251 17.728,19.108 C17.749,18.878 17.75,18.561 17.75,18.069 L17.75,5.93 C17.75,5.438 17.749,5.121 17.728,4.892 C17.715,4.748 17.697,4.687 17.691,4.67 C17.651,4.623 17.594,4.592 17.532,4.584 C17.515,4.588 17.454,4.606 17.326,4.672 C17.121,4.779 16.854,4.949 16.44,5.215 Z"/>
</svg>

