<svg xmlns="http://www.w3.org/2000/svg" viewBox="0 0 24 24">
  <defs/>
  <path fill="#151E28" d="M7.871,3.954 L17.75,10.305 L17.75,4 C17.75,3.586 18.086,3.25 18.5,3.25 C18.914,3.25 19.25,3.586 19.25,4 L19.25,20 C19.25,20.414 18.914,20.75 18.5,20.75 C18.086,20.75 17.75,20.414 17.75,20 L17.75,13.695 L7.871,20.046 L7.842,20.065 C7.465,20.307 7.14,20.516 6.867,20.658 C6.592,20.801 6.255,20.941 5.875,20.914 C5.369,20.878 4.903,20.623 4.599,20.217 C4.371,19.912 4.306,19.553 4.278,19.245 C4.25,18.938 4.25,18.551 4.25,18.104 L4.25,5.896 C4.25,5.448 4.25,5.061 4.278,4.755 C4.306,4.447 4.371,4.087 4.599,3.783 C4.903,3.376 5.369,3.122 5.875,3.086 C6.255,3.059 6.592,3.199 6.867,3.342 C7.14,3.484 7.465,3.693 7.842,3.935 Z M7.06,5.215 C6.646,4.949 6.379,4.779 6.174,4.672 C6.046,4.606 5.985,4.588 5.968,4.584 C5.906,4.592 5.849,4.623 5.809,4.67 C5.803,4.687 5.785,4.748 5.772,4.892 C5.751,5.121 5.75,5.438 5.75,5.93 L5.75,18.069 C5.75,18.561 5.751,18.878 5.772,19.108 C5.785,19.251 5.803,19.312 5.809,19.329 C5.849,19.377 5.906,19.408 5.968,19.416 C5.985,19.412 6.046,19.394 6.174,19.327 C6.379,19.221 6.646,19.05 7.06,18.784 L17.613,12 Z"/>
</svg>

