<svg xmlns="http://www.w3.org/2000/svg" viewBox="0 0 24 24">
  <defs/>
  <path fill="#151E28" d="M2.531,1.47 L22.531,21.47 C22.823,21.763 22.823,22.237 22.531,22.53 C22.238,22.823 21.763,22.823 21.47,22.53 L18.735,19.795 C18.343,20.652 17.274,21.12 16.323,20.62 L12.116,18.409 C12.043,18.37 11.956,18.37 11.884,18.409 L7.677,20.62 C6.393,21.295 4.892,20.205 5.138,18.775 L5.941,14.091 C5.955,14.01 5.928,13.927 5.869,13.87 L2.466,10.552 C1.427,9.54 2,7.776 3.436,7.567 L6.117,7.178 L1.47,2.53 C1.177,2.238 1.177,1.763 1.47,1.47 C1.763,1.177 2.238,1.177 2.531,1.47 Z M17.263,18.323 L7.441,8.501 L3.651,9.052 C3.446,9.082 3.364,9.333 3.513,9.478 L6.916,12.796 C7.329,13.198 7.517,13.777 7.419,14.345 L6.616,19.029 C6.581,19.233 6.795,19.389 6.979,19.292 L11.186,17.081 C11.695,16.813 12.304,16.813 12.814,17.081 L17.021,19.292 C17.204,19.389 17.419,19.233 17.384,19.029 Z M13.569,2.485 L15.672,6.747 C15.709,6.821 15.779,6.872 15.861,6.884 L20.564,7.567 C22,7.776 22.573,9.54 21.534,10.552 L18.524,13.487 C18.227,13.776 17.752,13.77 17.463,13.473 C17.174,13.177 17.18,12.702 17.476,12.413 L20.487,9.478 C20.635,9.333 20.553,9.082 20.348,9.052 L15.645,8.368 C15.075,8.285 14.582,7.927 14.327,7.411 L12.224,3.149 C12.132,2.963 11.867,2.963 11.776,3.149 L10.673,5.384 C10.489,5.755 10.04,5.908 9.668,5.725 C9.297,5.541 9.144,5.092 9.328,4.72 L10.431,2.485 C11.073,1.184 12.927,1.184 13.569,2.485 Z"/>
</svg>

