<svg xmlns="http://www.w3.org/2000/svg" viewBox="0 0 24 24">
  <defs/>
  <path fill="#151E28" d="M10.431,2.485 C11.073,1.185 12.927,1.185 13.569,2.485 L15.673,6.747 C15.709,6.821 15.779,6.872 15.861,6.884 L20.564,7.567 C22,7.776 22.573,9.54 21.534,10.552 L18.131,13.87 C18.072,13.927 18.045,14.01 18.059,14.091 L18.862,18.776 C19.107,20.205 17.607,21.295 16.323,20.62 L12.116,18.409 C12.043,18.37 11.956,18.37 11.884,18.409 L7.677,20.62 C6.393,21.295 4.892,20.205 5.138,18.776 L5.941,14.091 C5.955,14.01 5.928,13.927 5.869,13.87 L2.466,10.552 C1.427,9.54 2,7.776 3.436,7.567 L8.139,6.884 C8.22,6.872 8.291,6.821 8.327,6.747 Z M12.224,3.149 C12.132,2.963 11.867,2.963 11.776,3.149 L9.672,7.411 C9.417,7.928 8.925,8.286 8.355,8.368 L3.651,9.052 C3.446,9.082 3.364,9.334 3.513,9.478 L6.916,12.796 C7.329,13.198 7.517,13.777 7.419,14.345 L6.616,19.029 C6.581,19.233 6.795,19.389 6.979,19.293 L11.186,17.081 C11.695,16.813 12.304,16.813 12.814,17.081 L17.021,19.293 C17.205,19.389 17.419,19.233 17.384,19.029 L16.58,14.345 C16.483,13.777 16.671,13.198 17.084,12.796 L20.487,9.478 C20.635,9.334 20.553,9.082 20.348,9.052 L15.645,8.368 C15.075,8.286 14.582,7.928 14.328,7.411 Z"/>
</svg>

