<svg xmlns="http://www.w3.org/2000/svg" viewBox="0 0 24 24">
  <defs/>
  <path fill="#151E28" d="M17,2.25 L17.095,2.25 C17.933,2.25 18.467,2.25 18.927,2.341 C20.811,2.716 22.284,4.189 22.659,6.073 C22.75,6.533 22.75,7.066 22.75,7.904 L22.75,16.096 C22.75,16.934 22.75,17.467 22.659,17.927 C22.284,19.811 20.811,21.284 18.927,21.659 C18.467,21.75 17.934,21.75 17.096,21.75 L6.904,21.75 C6.066,21.75 5.533,21.75 5.073,21.659 C3.189,21.284 1.716,19.811 1.341,17.927 C1.25,17.467 1.25,16.933 1.25,16.095 L1.25,16 L1.25,8 L1.25,7.905 C1.25,7.067 1.25,6.533 1.341,6.073 C1.716,4.189 3.189,2.716 5.073,2.341 C5.533,2.25 6.067,2.25 6.905,2.25 L6.905,2.25 L7,2.25 Z M18.634,3.812 C18.338,3.754 17.965,3.75 17,3.75 L7,3.75 C6.035,3.75 5.662,3.754 5.366,3.812 C4.077,4.069 3.069,5.077 2.812,6.366 C2.754,6.662 2.75,7.035 2.75,8 L2.75,16 C2.75,16.965 2.754,17.338 2.812,17.634 C3.069,18.923 4.077,19.931 5.366,20.188 C5.662,20.246 6.035,20.25 7,20.25 L17,20.25 C17.965,20.25 18.338,20.246 18.634,20.188 C19.923,19.931 20.931,18.923 21.188,17.634 C21.246,17.338 21.25,16.965 21.25,16 L21.25,8 C21.25,7.035 21.246,6.662 21.188,6.366 C20.931,5.077 19.923,4.069 18.634,3.812 Z M6,12.25 L13,12.25 C13.414,12.25 13.75,12.586 13.75,13 C13.75,13.414 13.414,13.75 13,13.75 L6,13.75 C5.586,13.75 5.25,13.414 5.25,13 C5.25,12.586 5.586,12.25 6,12.25 Z M11,16.25 L18,16.25 C18.414,16.25 18.75,16.586 18.75,17 C18.75,17.414 18.414,17.75 18,17.75 L11,17.75 C10.586,17.75 10.25,17.414 10.25,17 C10.25,16.586 10.586,16.25 11,16.25 Z M6,16.25 L8,16.25 C8.414,16.25 8.75,16.586 8.75,17 C8.75,17.414 8.414,17.75 8,17.75 L6,17.75 C5.586,17.75 5.25,17.414 5.25,17 C5.25,16.586 5.586,16.25 6,16.25 Z M16,12.25 L18,12.25 C18.414,12.25 18.75,12.586 18.75,13 C18.75,13.414 18.414,13.75 18,13.75 L16,13.75 C15.586,13.75 15.25,13.414 15.25,13 C15.25,12.586 15.586,12.25 16,12.25 Z"/>
</svg>

