<svg xmlns="http://www.w3.org/2000/svg" viewBox="0 0 24 24">
  <defs/>
  <path fill="#151E28" d="M14.351,3.805 L20.582,10.036 L20.603,10.057 C20.981,10.435 21.296,10.75 21.533,11.029 C21.779,11.319 21.984,11.619 22.101,11.979 C22.281,12.531 22.281,13.126 22.101,13.679 C21.984,14.039 21.779,14.338 21.533,14.629 C21.296,14.907 20.981,15.223 20.603,15.6 L20.582,15.622 L17.753,18.45 L17.731,18.473 L17.731,18.473 C17.156,19.048 16.692,19.511 16.286,19.856 C15.868,20.211 15.462,20.484 14.988,20.638 C14.235,20.883 13.423,20.883 12.67,20.638 C12.196,20.484 11.79,20.211 11.372,19.856 C10.965,19.511 10.502,19.048 9.927,18.473 L9.904,18.45 L4.805,13.351 L4.744,13.29 L4.744,13.29 C4.284,12.83 3.965,12.511 3.732,12.131 C3.526,11.796 3.375,11.43 3.283,11.047 C3.179,10.615 3.179,10.163 3.179,9.512 L3.179,9.426 L3.179,7.729 L3.179,7.696 C3.179,6.884 3.179,6.229 3.223,5.698 C3.267,5.151 3.362,4.671 3.588,4.227 C3.948,3.521 4.521,2.947 5.227,2.588 C5.671,2.362 6.151,2.267 6.698,2.223 C7.229,2.179 7.884,2.179 8.697,2.179 L8.729,2.179 L10.427,2.179 L10.512,2.179 C11.164,2.179 11.615,2.179 12.047,2.283 C12.43,2.375 12.796,2.526 13.131,2.732 C13.511,2.965 13.83,3.284 14.29,3.744 Z M12.348,4.011 C12.146,3.888 11.927,3.797 11.697,3.741 C11.458,3.684 11.196,3.679 10.427,3.679 L8.729,3.679 C7.877,3.679 7.283,3.68 6.82,3.718 C6.366,3.755 6.105,3.824 5.908,3.924 C5.484,4.14 5.14,4.484 4.925,4.908 C4.824,5.105 4.755,5.366 4.718,5.82 C4.68,6.283 4.679,6.877 4.679,7.729 L4.679,9.426 C4.679,10.196 4.684,10.458 4.742,10.697 C4.797,10.927 4.888,11.146 5.011,11.348 C5.139,11.557 5.322,11.746 5.866,12.29 L10.965,17.39 C11.568,17.992 11.988,18.412 12.342,18.713 C12.689,19.007 12.923,19.143 13.134,19.211 C13.585,19.358 14.072,19.358 14.524,19.211 C14.735,19.143 14.968,19.007 15.316,18.713 C15.669,18.412 16.09,17.992 16.693,17.39 L19.521,14.561 C19.926,14.156 20.197,13.884 20.389,13.658 C20.576,13.438 20.643,13.312 20.675,13.215 C20.756,12.964 20.756,12.694 20.675,12.443 C20.643,12.346 20.576,12.219 20.389,12 C20.197,11.773 19.926,11.501 19.521,11.096 L13.29,4.865 C12.746,4.321 12.557,4.139 12.348,4.011 Z M10,6.25 C11.519,6.25 12.75,7.481 12.75,9 C12.75,10.519 11.519,11.75 10,11.75 C8.481,11.75 7.25,10.519 7.25,9 C7.25,7.481 8.481,6.25 10,6.25 Z M8.75,9 C8.75,9.69 9.31,10.25 10,10.25 C10.69,10.25 11.25,9.69 11.25,9 C11.25,8.31 10.69,7.75 10,7.75 C9.31,7.75 8.75,8.31 8.75,9 Z"/>
</svg>

