<svg xmlns="http://www.w3.org/2000/svg" viewBox="0 0 24 24">
  <defs/>
  <path fill="#151E28" d="M8.25,5 C8.25,2.929 9.929,1.25 12,1.25 C14.071,1.25 15.75,2.929 15.75,5 L15.75,12.641 C16.973,13.695 17.75,15.257 17.75,17 C17.75,20.176 15.176,22.75 12,22.75 C8.824,22.75 6.25,20.176 6.25,17 C6.25,15.257 7.027,13.695 8.25,12.641 Z M12,2.75 C10.757,2.75 9.75,3.757 9.75,5 L9.75,13 C9.75,13.236 9.639,13.458 9.45,13.599 C8.416,14.376 7.75,15.61 7.75,17 C7.75,19.347 9.653,21.25 12,21.25 C14.347,21.25 16.25,19.347 16.25,17 C16.25,15.61 15.583,14.376 14.55,13.599 C14.361,13.458 14.25,13.236 14.25,13 L14.25,5 C14.25,3.757 13.243,2.75 12,2.75 Z"/>
</svg>

