<svg xmlns="http://www.w3.org/2000/svg" viewBox="0 0 24 24">
  <defs/>
  <path fill="#151E28" d="M6.75,9 C6.75,9.637 6.863,10.246 7.07,10.809 C7.145,11.013 7.127,11.239 7.023,11.429 C6.918,11.619 6.736,11.755 6.523,11.8 C5.51,12.019 4.75,12.922 4.75,14 C4.75,15.243 5.757,16.25 7,16.25 L8,16.25 C8.414,16.25 8.75,16.586 8.75,17 C8.75,17.414 8.414,17.75 8,17.75 L7,17.75 C4.929,17.75 3.25,16.071 3.25,14 C3.25,12.486 4.147,11.182 5.438,10.59 C5.315,10.08 5.25,9.547 5.25,9 C5.25,5.272 8.272,2.25 12,2.25 C15.728,2.25 18.75,5.272 18.75,9 C18.75,9.547 18.685,10.08 18.562,10.59 C19.853,11.182 20.75,12.486 20.75,14 C20.75,16.071 19.071,17.75 17,17.75 L16,17.75 C15.586,17.75 15.25,17.414 15.25,17 C15.25,16.586 15.586,16.25 16,16.25 L17,16.25 C18.243,16.25 19.25,15.243 19.25,14 C19.25,12.922 18.49,12.019 17.476,11.8 C17.264,11.755 17.082,11.619 16.978,11.429 C16.873,11.239 16.855,11.013 16.93,10.809 C17.137,10.246 17.25,9.637 17.25,9 C17.25,6.101 14.899,3.75 12,3.75 C9.101,3.75 6.75,6.101 6.75,9 Z M12.75,8 L12.75,22 C12.75,22.414 12.414,22.75 12,22.75 C11.586,22.75 11.25,22.414 11.25,22 L11.25,8 C11.25,7.586 11.586,7.25 12,7.25 C12.414,7.25 12.75,7.586 12.75,8 Z"/>
</svg>

