<svg xmlns="http://www.w3.org/2000/svg" viewBox="0 0 24 24">
  <defs/>
  <path fill="#151E28" d="M10.451,2.332 C11.108,1.085 12.892,1.085 13.549,2.332 L20.786,16.084 C21.845,18.096 20.144,20.451 17.901,20.077 L15.877,19.74 C15.468,19.672 15.192,19.285 15.26,18.877 C15.328,18.468 15.715,18.192 16.123,18.26 L18.147,18.597 C19.167,18.767 19.94,17.697 19.459,16.782 L12.221,3.031 C12.127,2.852 11.873,2.852 11.779,3.031 L4.541,16.782 C4.06,17.697 4.833,18.767 5.853,18.597 L7.877,18.26 C8.285,18.192 8.672,18.468 8.74,18.877 C8.808,19.285 8.532,19.672 8.123,19.74 L6.099,20.077 C3.856,20.451 2.155,18.096 3.214,16.084 Z M12,9.25 C12.414,9.25 12.75,9.586 12.75,10 L12.75,15.989 C12.75,15.996 12.75,16.004 12.75,16.011 L12.75,22 C12.75,22.414 12.414,22.75 12,22.75 C11.586,22.75 11.25,22.414 11.25,22 L11.25,16.311 L8.47,13.53 C8.177,13.237 8.177,12.762 8.47,12.47 C8.763,12.177 9.238,12.177 9.531,12.47 L11.25,14.189 L11.25,10 C11.25,9.586 11.586,9.25 12,9.25 Z"/>
</svg>

