<svg xmlns="http://www.w3.org/2000/svg" viewBox="0 0 24 24">
  <defs/>
  <path fill="#151E28" d="M9.326,2.25 L14.675,2.25 L14.747,2.25 C15.166,2.25 15.495,2.25 15.814,2.326 C16.094,2.393 16.362,2.505 16.608,2.655 C16.888,2.826 17.121,3.06 17.416,3.356 L17.468,3.407 L20.593,6.532 L20.644,6.584 C20.941,6.88 21.174,7.112 21.345,7.392 C21.496,7.638 21.607,7.906 21.674,8.187 C21.75,8.505 21.75,8.834 21.75,9.252 L21.75,14.748 C21.75,15.166 21.75,15.495 21.674,15.814 C21.607,16.094 21.496,16.362 21.345,16.608 C21.174,16.888 20.941,17.121 20.644,17.416 L20.593,17.468 L17.468,20.593 L17.416,20.644 C17.121,20.941 16.888,21.174 16.608,21.345 C16.362,21.496 16.094,21.607 15.814,21.674 C15.495,21.75 15.166,21.75 14.748,21.75 L9.252,21.75 C8.834,21.75 8.505,21.75 8.187,21.674 C7.906,21.607 7.638,21.496 7.392,21.345 C7.112,21.174 6.88,20.941 6.584,20.644 L6.532,20.593 L3.407,17.468 L3.356,17.416 C3.06,17.121 2.826,16.888 2.655,16.608 C2.505,16.362 2.393,16.094 2.326,15.814 C2.25,15.495 2.25,15.166 2.25,14.747 L2.25,14.675 L2.25,9.326 L2.25,9.253 C2.25,8.834 2.25,8.505 2.326,8.187 C2.393,7.906 2.505,7.638 2.655,7.392 C2.826,7.112 3.06,6.88 3.356,6.584 L3.407,6.532 L6.532,3.407 L6.584,3.356 C6.88,3.06 7.112,2.826 7.392,2.655 C7.638,2.505 7.906,2.393 8.187,2.326 C8.505,2.25 8.834,2.25 9.253,2.25 Z M8.537,3.785 C8.409,3.815 8.287,3.866 8.175,3.934 C8.067,4.001 7.964,4.096 7.593,4.468 L4.468,7.593 C4.096,7.964 4.001,8.067 3.934,8.175 C3.866,8.287 3.815,8.409 3.785,8.537 C3.755,8.66 3.75,8.801 3.75,9.326 L3.75,14.675 C3.75,15.2 3.755,15.34 3.785,15.463 C3.815,15.591 3.866,15.713 3.934,15.825 C4.001,15.933 4.096,16.036 4.468,16.407 L7.593,19.532 C7.964,19.904 8.067,19.999 8.175,20.066 C8.287,20.134 8.409,20.185 8.537,20.215 C8.66,20.245 8.801,20.25 9.326,20.25 L14.675,20.25 C15.2,20.25 15.34,20.245 15.463,20.215 C15.591,20.185 15.713,20.134 15.825,20.066 C15.933,19.999 16.036,19.904 16.407,19.532 L19.532,16.407 C19.904,16.036 19.999,15.933 20.066,15.825 C20.134,15.713 20.185,15.591 20.215,15.463 C20.245,15.34 20.25,15.2 20.25,14.675 L20.25,9.326 C20.25,8.801 20.245,8.66 20.215,8.537 C20.185,8.409 20.134,8.287 20.066,8.175 C19.999,8.067 19.904,7.964 19.532,7.593 L16.407,4.468 C16.036,4.096 15.933,4.001 15.825,3.934 C15.713,3.866 15.591,3.815 15.463,3.785 C15.34,3.755 15.2,3.75 14.675,3.75 L9.326,3.75 C8.801,3.75 8.66,3.755 8.537,3.785 Z M15.257,14.104 L15.257,14.099 L15.252,14.072 C15.249,14.048 15.242,14.01 15.234,13.961 C15.216,13.863 15.188,13.72 15.147,13.547 C15.065,13.199 14.934,12.744 14.742,12.297 C14.323,11.325 13.78,10.75 13.111,10.75 C12.732,10.75 12.265,10.918 11.731,11.258 C11.208,11.591 10.686,12.049 10.215,12.527 C9.972,12.773 9.747,13.019 9.548,13.25 L11,13.25 C11.414,13.25 11.75,13.586 11.75,14 C11.75,14.414 11.414,14.75 11,14.75 L8,14.75 C7.586,14.75 7.25,14.414 7.25,14 L7.25,11 C7.25,10.586 7.586,10.25 8,10.25 C8.414,10.25 8.75,10.586 8.75,11 L8.75,11.891 C8.876,11.753 9.008,11.613 9.147,11.473 C9.661,10.951 10.272,10.409 10.925,9.993 C11.569,9.582 12.323,9.25 13.111,9.25 C14.776,9.25 15.677,10.675 16.119,11.703 C16.358,12.256 16.512,12.801 16.607,13.203 C16.654,13.405 16.688,13.574 16.71,13.695 C16.721,13.755 16.729,13.804 16.734,13.838 L16.74,13.879 L16.742,13.891 L16.743,13.894 L16.743,13.896 L16.743,13.896 C16.743,13.897 16.743,13.897 16,14 L16.743,13.897 C16.8,14.307 16.514,14.686 16.103,14.743 C15.693,14.8 15.315,14.514 15.257,14.104 Z"/>
</svg>

