<svg xmlns="http://www.w3.org/2000/svg" viewBox="0 0 24 24">
  <defs/>
  <path fill="#151E28" d="M2.25,19 C2.25,16.377 4.377,14.25 7,14.25 L13,14.25 C15.623,14.25 17.75,16.377 17.75,19 C17.75,20.519 16.519,21.75 15,21.75 L5,21.75 C3.481,21.75 2.25,20.519 2.25,19 Z M5.25,8 C5.25,5.377 7.377,3.25 10,3.25 C12.623,3.25 14.75,5.377 14.75,8 C14.75,10.623 12.623,12.75 10,12.75 C7.377,12.75 5.25,10.623 5.25,8 Z M7,15.75 C5.205,15.75 3.75,17.205 3.75,19 C3.75,19.69 4.31,20.25 5,20.25 L15,20.25 C15.69,20.25 16.25,19.69 16.25,19 C16.25,17.205 14.795,15.75 13,15.75 Z M10,4.75 C8.205,4.75 6.75,6.205 6.75,8 C6.75,9.795 8.205,11.25 10,11.25 C11.795,11.25 13.25,9.795 13.25,8 C13.25,6.205 11.795,4.75 10,4.75 Z M18,6.25 L22,6.25 C22.414,6.25 22.75,6.586 22.75,7 L22.75,11 C22.75,11.414 22.414,11.75 22,11.75 C21.586,11.75 21.25,11.414 21.25,11 L21.25,8.811 L17.531,12.53 C17.238,12.823 16.763,12.823 16.47,12.53 C16.177,12.238 16.177,11.763 16.47,11.47 L20.19,7.75 L18,7.75 C17.586,7.75 17.25,7.414 17.25,7 C17.25,6.586 17.586,6.25 18,6.25 Z"/>
</svg>

