<svg xmlns="http://www.w3.org/2000/svg" viewBox="0 0 24 24">
  <defs/>
  <path fill="#151E28" d="M12,1.25 C17.937,1.25 22.75,6.063 22.75,12 C22.75,17.937 17.937,22.75 12,22.75 C6.063,22.75 1.25,17.937 1.25,12 C1.25,6.063 6.063,1.25 12,1.25 Z M2.75,12 C2.75,17.109 6.891,21.25 12,21.25 C17.109,21.25 21.25,17.109 21.25,12 C21.25,6.891 17.109,2.75 12,2.75 C6.891,2.75 2.75,6.891 2.75,12 Z M7.25,15.667 C7.25,13.78 8.78,12.25 10.667,12.25 L13.333,12.25 C15.22,12.25 16.75,13.78 16.75,15.667 C16.75,16.817 15.817,17.75 14.667,17.75 L9.333,17.75 C8.183,17.75 7.25,16.817 7.25,15.667 Z M9.25,9 C9.25,7.481 10.481,6.25 12,6.25 C13.519,6.25 14.75,7.481 14.75,9 C14.75,10.519 13.519,11.75 12,11.75 C10.481,11.75 9.25,10.519 9.25,9 Z M10.667,13.75 C9.608,13.75 8.75,14.608 8.75,15.667 C8.75,15.989 9.011,16.25 9.333,16.25 L14.667,16.25 C14.989,16.25 15.25,15.989 15.25,15.667 C15.25,14.608 14.392,13.75 13.333,13.75 Z M12,7.75 C11.31,7.75 10.75,8.31 10.75,9 C10.75,9.69 11.31,10.25 12,10.25 C12.69,10.25 13.25,9.69 13.25,9 C13.25,8.31 12.69,7.75 12,7.75 Z"/>
</svg>

