<svg xmlns="http://www.w3.org/2000/svg" viewBox="0 0 24 24">
  <defs/>
  <path fill="#151E28" d="M7,14.25 L13,14.25 C15.623,14.25 17.75,16.377 17.75,19 C17.75,20.519 16.519,21.75 15,21.75 L5,21.75 C3.481,21.75 2.25,20.519 2.25,19 C2.25,16.377 4.377,14.25 7,14.25 Z M10,3.25 C12.623,3.25 14.75,5.377 14.75,8 C14.75,10.623 12.623,12.75 10,12.75 C7.377,12.75 5.25,10.623 5.25,8 C5.25,5.377 7.377,3.25 10,3.25 Z M3.75,19 C3.75,19.69 4.31,20.25 5,20.25 L15,20.25 C15.69,20.25 16.25,19.69 16.25,19 C16.25,17.205 14.795,15.75 13,15.75 L7,15.75 C5.205,15.75 3.75,17.205 3.75,19 Z M6.75,8 C6.75,9.795 8.205,11.25 10,11.25 C11.795,11.25 13.25,9.795 13.25,8 C13.25,6.205 11.795,4.75 10,4.75 C8.205,4.75 6.75,6.205 6.75,8 Z M20,4.25 C20.414,4.25 20.75,4.586 20.75,5 L20.75,10 C20.75,10.414 20.414,10.75 20,10.75 C19.586,10.75 19.25,10.414 19.25,10 L19.25,5 C19.25,4.586 19.586,4.25 20,4.25 Z M20,14 C19.448,14 19,13.552 19,13 C19,12.448 19.448,12 20,12 C20.552,12 21,12.448 21,13 C21,13.552 20.552,14 20,14 Z"/>
</svg>

