<svg xmlns="http://www.w3.org/2000/svg" viewBox="0 0 24 24">
  <defs/>
  <path fill="#151E28" d="M9,14.25 L15,14.25 C17.623,14.25 19.75,16.377 19.75,19 C19.75,20.519 18.519,21.75 17,21.75 L7,21.75 C5.481,21.75 4.25,20.519 4.25,19 C4.25,16.377 6.377,14.25 9,14.25 Z M12,3.25 C14.623,3.25 16.75,5.377 16.75,8 C16.75,10.623 14.623,12.75 12,12.75 C9.377,12.75 7.25,10.623 7.25,8 C7.25,5.377 9.377,3.25 12,3.25 Z M5.75,19 C5.75,19.69 6.31,20.25 7,20.25 L17,20.25 C17.69,20.25 18.25,19.69 18.25,19 C18.25,17.205 16.795,15.75 15,15.75 L9,15.75 C7.205,15.75 5.75,17.205 5.75,19 Z M8.75,8 C8.75,9.795 10.205,11.25 12,11.25 C13.795,11.25 15.25,9.795 15.25,8 C15.25,6.205 13.795,4.75 12,4.75 C10.205,4.75 8.75,6.205 8.75,8 Z"/>
</svg>

