<svg xmlns="http://www.w3.org/2000/svg" viewBox="0 0 24 24">
  <defs/>
  <path fill="#151E28" d="M2.25,19 C2.25,16.377 4.377,14.25 7,14.25 L13,14.25 C15.623,14.25 17.75,16.377 17.75,19 C17.75,20.519 16.519,21.75 15,21.75 L5,21.75 C3.481,21.75 2.25,20.519 2.25,19 Z M5.25,8 C5.25,5.377 7.377,3.25 10,3.25 C12.623,3.25 14.75,5.377 14.75,8 C14.75,10.623 12.623,12.75 10,12.75 C7.377,12.75 5.25,10.623 5.25,8 Z M7,15.75 C5.205,15.75 3.75,17.205 3.75,19 C3.75,19.69 4.31,20.25 5,20.25 L15,20.25 C15.69,20.25 16.25,19.69 16.25,19 C16.25,17.205 14.795,15.75 13,15.75 Z M10,4.75 C8.205,4.75 6.75,6.205 6.75,8 C6.75,9.795 8.205,11.25 10,11.25 C11.795,11.25 13.25,9.795 13.25,8 C13.25,6.205 11.795,4.75 10,4.75 Z M23.531,10.53 L20.531,13.53 C20.238,13.823 19.763,13.823 19.47,13.53 L16.47,10.53 C16.177,10.238 16.177,9.763 16.47,9.47 C16.763,9.177 17.238,9.177 17.531,9.47 L19.25,11.189 L19.25,7 C19.25,6.586 19.586,6.25 20,6.25 C20.414,6.25 20.75,6.586 20.75,7 L20.75,11.189 L22.47,9.47 C22.763,9.177 23.238,9.177 23.531,9.47 C23.823,9.763 23.823,10.238 23.531,10.53 Z"/>
</svg>

