<svg xmlns="http://www.w3.org/2000/svg" viewBox="0 0 24 24">
  <defs/>
  <path fill="#151E28" d="M11.367,4.25 L12.633,4.25 C13.725,4.25 14.591,4.25 15.288,4.307 C16.002,4.365 16.605,4.487 17.156,4.768 C18.05,5.223 18.777,5.95 19.232,6.844 C19.513,7.395 19.635,7.998 19.693,8.712 C19.75,9.409 19.75,10.275 19.75,11.367 L19.75,12.633 C19.75,13.725 19.75,14.591 19.693,15.288 C19.635,16.002 19.513,16.605 19.232,17.156 C18.777,18.05 18.05,18.777 17.156,19.232 C16.605,19.513 16.002,19.635 15.288,19.693 C14.591,19.75 13.725,19.75 12.633,19.75 L11.367,19.75 C10.275,19.75 9.409,19.75 8.712,19.693 C7.998,19.635 7.395,19.513 6.844,19.232 C5.95,18.777 5.223,18.05 4.768,17.156 C4.487,16.605 4.365,16.002 4.307,15.288 C4.25,14.591 4.25,13.725 4.25,12.633 L4.25,11.367 C4.25,10.275 4.25,9.409 4.307,8.712 C4.365,7.998 4.487,7.395 4.768,6.844 C5.223,5.95 5.95,5.223 6.844,4.768 C7.395,4.487 7.998,4.365 8.712,4.307 C9.409,4.25 10.275,4.25 11.367,4.25 Z M7.525,6.104 C6.913,6.416 6.416,6.913 6.104,7.525 C5.949,7.829 5.853,8.213 5.802,8.834 C5.751,9.463 5.75,10.267 5.75,11.4 L5.75,12.6 C5.75,13.733 5.751,14.537 5.802,15.166 C5.853,15.787 5.949,16.171 6.104,16.476 C6.416,17.087 6.913,17.584 7.525,17.896 C7.829,18.051 8.213,18.147 8.834,18.198 C9.463,18.249 10.267,18.25 11.4,18.25 L12.6,18.25 C13.733,18.25 14.537,18.249 15.166,18.198 C15.787,18.147 16.171,18.051 16.476,17.896 C17.087,17.584 17.584,17.087 17.896,16.476 C18.051,16.171 18.147,15.787 18.198,15.166 C18.249,14.537 18.25,13.733 18.25,12.6 L18.25,11.4 C18.25,10.267 18.249,9.463 18.198,8.834 C18.147,8.213 18.051,7.829 17.896,7.525 C17.584,6.913 17.087,6.416 16.476,6.104 C16.171,5.949 15.787,5.853 15.166,5.802 C14.537,5.751 13.733,5.75 12.6,5.75 L11.4,5.75 C10.267,5.75 9.463,5.751 8.834,5.802 C8.213,5.853 7.829,5.949 7.525,6.104 Z M7.25,2 C7.25,1.586 7.586,1.25 8,1.25 L16,1.25 C16.414,1.25 16.75,1.586 16.75,2 C16.75,2.414 16.414,2.75 16,2.75 L8,2.75 C7.586,2.75 7.25,2.414 7.25,2 Z M8,22.75 C7.586,22.75 7.25,22.414 7.25,22 C7.25,21.586 7.586,21.25 8,21.25 L16,21.25 C16.414,21.25 16.75,21.586 16.75,22 C16.75,22.414 16.414,22.75 16,22.75 Z M12.75,9 L12.75,11.689 L14.03,12.97 C14.323,13.263 14.323,13.737 14.03,14.03 C13.737,14.323 13.263,14.323 12.97,14.03 L11.47,12.53 C11.329,12.39 11.25,12.199 11.25,12 L11.25,9 C11.25,8.586 11.586,8.25 12,8.25 C12.414,8.25 12.75,8.586 12.75,9 Z"/>
</svg>

