<svg xmlns="http://www.w3.org/2000/svg" viewBox="0 0 24 24">
  <defs/>
  <path fill="#151E28" d="M11.832,2.25 L12.168,2.25 C13.059,2.25 13.771,2.25 14.339,2.294 C14.919,2.339 15.427,2.434 15.881,2.67 C16.852,3.172 17.555,4.072 17.807,5.136 C17.925,5.634 17.894,6.149 17.797,6.723 C17.702,7.285 17.529,7.976 17.313,8.839 L17.313,8.84 L17.306,8.87 L17.276,8.987 C17.116,9.631 16.991,10.134 16.718,10.538 C16.393,11.02 15.924,11.386 15.378,11.585 C14.92,11.751 14.402,11.751 13.739,11.75 L13.737,11.75 L13.617,11.75 L10.383,11.75 L10.263,11.75 L10.263,11.75 L10.261,11.75 C9.598,11.751 9.08,11.751 8.622,11.585 C8.076,11.386 7.607,11.02 7.282,10.538 C7.009,10.134 6.884,9.631 6.724,8.987 L6.694,8.87 L6.687,8.84 C6.471,7.976 6.298,7.285 6.203,6.723 C6.106,6.149 6.075,5.634 6.193,5.136 C6.445,4.072 7.148,3.172 8.119,2.67 C8.573,2.434 9.081,2.339 9.661,2.294 C10.229,2.25 10.941,2.25 11.832,2.25 Z M5.562,6.85 C5.056,7.424 4.75,8.175 4.75,9 L4.75,17 C4.75,18.795 6.205,20.25 8,20.25 L16,20.25 C17.795,20.25 19.25,18.795 19.25,17 L19.25,9 C19.25,8.175 18.944,7.424 18.438,6.85 C18.164,6.54 18.193,6.066 18.504,5.792 C18.814,5.518 19.288,5.547 19.562,5.858 C20.301,6.695 20.75,7.796 20.75,9 L20.75,17 C20.75,19.623 18.623,21.75 16,21.75 L8,21.75 C5.377,21.75 3.25,19.623 3.25,17 L3.25,9 C3.25,7.796 3.699,6.695 4.438,5.858 C4.712,5.547 5.186,5.518 5.496,5.792 C5.807,6.066 5.836,6.54 5.562,6.85 Z M9.777,3.79 C9.278,3.829 9.002,3.901 8.808,4.002 C8.226,4.303 7.804,4.843 7.653,5.481 C7.603,5.694 7.599,5.979 7.682,6.473 C7.766,6.971 7.924,7.605 8.15,8.506 C8.354,9.324 8.42,9.543 8.525,9.699 C8.673,9.918 8.886,10.085 9.134,10.175 C9.311,10.239 9.54,10.25 10.383,10.25 L13.617,10.25 C14.46,10.25 14.689,10.239 14.866,10.175 C15.114,10.085 15.327,9.918 15.475,9.699 C15.58,9.543 15.646,9.324 15.85,8.506 C16.076,7.605 16.234,6.971 16.318,6.473 C16.401,5.979 16.397,5.694 16.347,5.481 C16.196,4.843 15.774,4.303 15.192,4.002 C14.998,3.901 14.722,3.829 14.223,3.79 C13.719,3.751 13.066,3.75 12.137,3.75 L11.863,3.75 C10.934,3.75 10.281,3.751 9.777,3.79 Z M13.335,5.329 C13.706,5.514 13.856,5.965 13.671,6.335 L12.671,8.335 C12.486,8.706 12.035,8.856 11.665,8.671 C11.294,8.486 11.144,8.035 11.329,7.665 L12.329,5.665 C12.514,5.294 12.965,5.144 13.335,5.329 Z"/>
</svg>

