<svg xmlns="http://www.w3.org/2000/svg" viewBox="0 0 24 24">
  <defs/>
  <path fill="#151E28" d="M16.82,1.829 C18.112,2.014 18.638,3.594 17.716,4.516 L15.359,6.873 C14.87,7.362 14.87,8.153 15.359,8.641 C15.847,9.129 16.638,9.129 17.126,8.641 L19.483,6.284 C20.406,5.362 21.986,5.888 22.17,7.18 L22.178,7.231 C22.503,9.51 21.737,11.809 20.109,13.436 C18.738,14.808 16.878,15.578 14.938,15.578 L12.311,15.578 L7.58,20.309 C6.506,21.382 4.765,21.382 3.691,20.309 C2.617,19.235 2.617,17.493 3.691,16.419 L8.421,11.689 L8.421,9.062 C8.421,7.122 9.192,5.262 10.563,3.891 C12.191,2.263 14.49,1.497 16.769,1.822 Z M16.65,3.331 C16.644,3.326 16.632,3.318 16.608,3.314 L16.556,3.307 C14.745,3.048 12.918,3.657 11.624,4.951 C10.534,6.041 9.921,7.52 9.921,9.062 L9.921,12 C9.921,12.199 9.842,12.39 9.702,12.53 L4.752,17.48 C4.264,17.968 4.264,18.76 4.752,19.248 C5.24,19.736 6.032,19.736 6.52,19.248 L11.469,14.298 C11.61,14.157 11.801,14.078 12,14.078 L14.938,14.078 C16.48,14.078 17.958,13.466 19.049,12.376 C20.342,11.082 20.951,9.255 20.693,7.443 L20.685,7.392 C20.682,7.367 20.674,7.356 20.669,7.35 C20.661,7.341 20.648,7.331 20.629,7.325 C20.611,7.319 20.595,7.319 20.583,7.321 C20.574,7.323 20.562,7.327 20.544,7.345 L18.187,9.702 C17.113,10.776 15.372,10.776 14.298,9.702 C13.224,8.628 13.224,6.887 14.298,5.813 L16.655,3.456 C16.673,3.438 16.677,3.425 16.679,3.417 C16.681,3.405 16.681,3.389 16.675,3.371 C16.669,3.352 16.659,3.339 16.65,3.331 Z"/>
</svg>

